<?xml version="1.0" encoding="utf-8" standalone="no"?>
<!DOCTYPE svg PUBLIC "-//W3C//DTD SVG 1.1//EN"
  "http://www.w3.org/Graphics/SVG/1.1/DTD/svg11.dtd">
<svg xmlns:xlink="http://www.w3.org/1999/xlink" width="504pt" height="504pt" viewBox="0 0 504 504" xmlns="http://www.w3.org/2000/svg" version="1.1">
 <metadata>
  <rdf:RDF xmlns:dc="http://purl.org/dc/elements/1.1/" xmlns:cc="http://creativecommons.org/ns#" xmlns:rdf="http://www.w3.org/1999/02/22-rdf-syntax-ns#">
   <cc:Work>
    <dc:type rdf:resource="http://purl.org/dc/dcmitype/StillImage"/>
    <dc:date>2026-07-17T10:21:28.931753</dc:date>
    <dc:format>image/svg+xml</dc:format>
    <dc:creator>
     <cc:Agent>
      <dc:title>Matplotlib v3.11.0, https://matplotlib.org/</dc:title>
     </cc:Agent>
    </dc:creator>
   </cc:Work>
  </rdf:RDF>
 </metadata>
 <defs>
  <style type="text/css">*{stroke-linejoin: round; stroke-linecap: butt}</style>
 </defs>
 <g id="figure_1">
  <g id="patch_1">
   <path d="M 0 504 
L 504 504 
L 504 0 
L 0 0 
L 0 504 
z
" style="fill: none"/>
  </g>
  <g id="axes_1">
   <g id="patch_2">
    <path d="M 63 448.56 
L 453.6 448.56 
L 453.6 60.48 
L 63 60.48 
L 63 448.56 
z
" style="fill: none"/>
   </g>
   <g id="matplotlib.axis_1">
    <g id="ytick_1">
     <g id="line2d_1">
      <defs>
       <path id="m2bd9ed9da9" d="M 0 0 
L 3.5 0 
" style="stroke: #7f7f7f; stroke-width: 0.8"/>
      </defs>
      <g>
       <use xlink:href="#m2bd9ed9da9" x="453.6" y="448.56" style="fill: #7f7f7f; stroke: #7f7f7f; stroke-width: 0.8"/>
      </g>
     </g>
     <g id="text_1">
      <text style="font-size: 16px; font-family: 'Arial', sans-serif; text-anchor: start; fill: #7f7f7f" x="460.6" y="454.384219" transform="rotate(-0 460.6 454.384219)">0</text>
     </g>
    </g>
    <g id="ytick_2">
     <g id="line2d_2">
      <g>
       <use xlink:href="#m2bd9ed9da9" x="453.6" y="364.194783" style="fill: #7f7f7f; stroke: #7f7f7f; stroke-width: 0.8"/>
      </g>
     </g>
     <g id="text_2">
      <text style="font-size: 16px; font-family: 'Arial', sans-serif; text-anchor: start; fill: #7f7f7f" x="460.6" y="370.019001" transform="rotate(-0 460.6 370.019001)">5</text>
     </g>
    </g>
    <g id="ytick_3">
     <g id="line2d_3">
      <g>
       <use xlink:href="#m2bd9ed9da9" x="453.6" y="279.829565" style="fill: #7f7f7f; stroke: #7f7f7f; stroke-width: 0.8"/>
      </g>
     </g>
     <g id="text_3">
      <text style="font-size: 16px; font-family: 'Arial', sans-serif; text-anchor: start; fill: #7f7f7f" x="460.6" y="285.653784" transform="rotate(-0 460.6 285.653784)">10</text>
     </g>
    </g>
    <g id="ytick_4">
     <g id="line2d_4">
      <g>
       <use xlink:href="#m2bd9ed9da9" x="453.6" y="195.464348" style="fill: #7f7f7f; stroke: #7f7f7f; stroke-width: 0.8"/>
      </g>
     </g>
     <g id="text_4">
      <text style="font-size: 16px; font-family: 'Arial', sans-serif; text-anchor: start; fill: #7f7f7f" x="460.6" y="201.288567" transform="rotate(-0 460.6 201.288567)">15</text>
     </g>
    </g>
    <g id="ytick_5">
     <g id="line2d_5">
      <g>
       <use xlink:href="#m2bd9ed9da9" x="453.6" y="111.09913" style="fill: #7f7f7f; stroke: #7f7f7f; stroke-width: 0.8"/>
      </g>
     </g>
     <g id="text_5">
      <text style="font-size: 16px; font-family: 'Arial', sans-serif; text-anchor: start; fill: #7f7f7f" x="460.6" y="116.923349" transform="rotate(-0 460.6 116.923349)">20</text>
     </g>
    </g>
    <g id="text_6">
     <text style="font-size: 16px; font-family: 'Arial', sans-serif; text-anchor: middle; fill: #7f7f7f" x="494.043438" y="254.52" transform="rotate(-90 494.043438 254.52)">Number of cases</text>
    </g>
   </g>
   <g id="patch_3">
    <path d="M 80.754545 448.56 
L 82.352255 448.56 
L 82.352255 431.686957 
L 80.754545 431.686957 
z
" clip-path="url(#pe6c05fd931)" style="fill: #7f7f7f; opacity: 0.5"/>
   </g>
   <g id="patch_4">
    <path d="M 82.751682 448.56 
L 84.349392 448.56 
L 84.349392 448.56 
L 82.751682 448.56 
z
" clip-path="url(#pe6c05fd931)" style="fill: #7f7f7f; opacity: 0.5"/>
   </g>
   <g id="patch_5">
    <path d="M 84.748819 448.56 
L 86.346528 448.56 
L 86.346528 448.56 
L 84.748819 448.56 
z
" clip-path="url(#pe6c05fd931)" style="fill: #7f7f7f; opacity: 0.5"/>
   </g>
   <g id="patch_6">
    <path d="M 86.745956 448.56 
L 88.343665 448.56 
L 88.343665 448.56 
L 86.745956 448.56 
z
" clip-path="url(#pe6c05fd931)" style="fill: #7f7f7f; opacity: 0.5"/>
   </g>
   <g id="patch_7">
    <path d="M 88.743092 448.56 
L 90.340802 448.56 
L 90.340802 448.56 
L 88.743092 448.56 
z
" clip-path="url(#pe6c05fd931)" style="fill: #7f7f7f; opacity: 0.5"/>
   </g>
   <g id="patch_8">
    <path d="M 90.740229 448.56 
L 92.337938 448.56 
L 92.337938 448.56 
L 90.740229 448.56 
z
" clip-path="url(#pe6c05fd931)" style="fill: #7f7f7f; opacity: 0.5"/>
   </g>
   <g id="patch_9">
    <path d="M 92.737366 448.56 
L 94.335075 448.56 
L 94.335075 448.56 
L 92.737366 448.56 
z
" clip-path="url(#pe6c05fd931)" style="fill: #7f7f7f; opacity: 0.5"/>
   </g>
   <g id="patch_10">
    <path d="M 94.734503 448.56 
L 96.332212 448.56 
L 96.332212 448.56 
L 94.734503 448.56 
z
" clip-path="url(#pe6c05fd931)" style="fill: #7f7f7f; opacity: 0.5"/>
   </g>
   <g id="patch_11">
    <path d="M 96.731639 448.56 
L 98.329349 448.56 
L 98.329349 448.56 
L 96.731639 448.56 
z
" clip-path="url(#pe6c05fd931)" style="fill: #7f7f7f; opacity: 0.5"/>
   </g>
   <g id="patch_12">
    <path d="M 98.728776 448.56 
L 100.326485 448.56 
L 100.326485 448.56 
L 98.728776 448.56 
z
" clip-path="url(#pe6c05fd931)" style="fill: #7f7f7f; opacity: 0.5"/>
   </g>
   <g id="patch_13">
    <path d="M 100.725913 448.56 
L 102.323622 448.56 
L 102.323622 448.56 
L 100.725913 448.56 
z
" clip-path="url(#pe6c05fd931)" style="fill: #7f7f7f; opacity: 0.5"/>
   </g>
   <g id="patch_14">
    <path d="M 102.723049 448.56 
L 104.320759 448.56 
L 104.320759 448.56 
L 102.723049 448.56 
z
" clip-path="url(#pe6c05fd931)" style="fill: #7f7f7f; opacity: 0.5"/>
   </g>
   <g id="patch_15">
    <path d="M 104.720186 448.56 
L 106.317895 448.56 
L 106.317895 448.56 
L 104.720186 448.56 
z
" clip-path="url(#pe6c05fd931)" style="fill: #7f7f7f; opacity: 0.5"/>
   </g>
   <g id="patch_16">
    <path d="M 106.717323 448.56 
L 108.315032 448.56 
L 108.315032 448.56 
L 106.717323 448.56 
z
" clip-path="url(#pe6c05fd931)" style="fill: #7f7f7f; opacity: 0.5"/>
   </g>
   <g id="patch_17">
    <path d="M 108.71446 448.56 
L 110.312169 448.56 
L 110.312169 448.56 
L 108.71446 448.56 
z
" clip-path="url(#pe6c05fd931)" style="fill: #7f7f7f; opacity: 0.5"/>
   </g>
   <g id="patch_18">
    <path d="M 110.711596 448.56 
L 112.309306 448.56 
L 112.309306 448.56 
L 110.711596 448.56 
z
" clip-path="url(#pe6c05fd931)" style="fill: #7f7f7f; opacity: 0.5"/>
   </g>
   <g id="patch_19">
    <path d="M 112.708733 448.56 
L 114.306442 448.56 
L 114.306442 448.56 
L 112.708733 448.56 
z
" clip-path="url(#pe6c05fd931)" style="fill: #7f7f7f; opacity: 0.5"/>
   </g>
   <g id="patch_20">
    <path d="M 114.70587 448.56 
L 116.303579 448.56 
L 116.303579 448.56 
L 114.70587 448.56 
z
" clip-path="url(#pe6c05fd931)" style="fill: #7f7f7f; opacity: 0.5"/>
   </g>
   <g id="patch_21">
    <path d="M 116.703006 448.56 
L 118.300716 448.56 
L 118.300716 448.56 
L 116.703006 448.56 
z
" clip-path="url(#pe6c05fd931)" style="fill: #7f7f7f; opacity: 0.5"/>
   </g>
   <g id="patch_22">
    <path d="M 118.700143 448.56 
L 120.297853 448.56 
L 120.297853 431.686957 
L 118.700143 431.686957 
z
" clip-path="url(#pe6c05fd931)" style="fill: #7f7f7f; opacity: 0.5"/>
   </g>
   <g id="patch_23">
    <path d="M 120.69728 448.56 
L 122.294989 448.56 
L 122.294989 448.56 
L 120.69728 448.56 
z
" clip-path="url(#pe6c05fd931)" style="fill: #7f7f7f; opacity: 0.5"/>
   </g>
   <g id="patch_24">
    <path d="M 122.694417 448.56 
L 124.292126 448.56 
L 124.292126 448.56 
L 122.694417 448.56 
z
" clip-path="url(#pe6c05fd931)" style="fill: #7f7f7f; opacity: 0.5"/>
   </g>
   <g id="patch_25">
    <path d="M 124.691553 448.56 
L 126.289263 448.56 
L 126.289263 448.56 
L 124.691553 448.56 
z
" clip-path="url(#pe6c05fd931)" style="fill: #7f7f7f; opacity: 0.5"/>
   </g>
   <g id="patch_26">
    <path d="M 126.68869 448.56 
L 128.286399 448.56 
L 128.286399 448.56 
L 126.68869 448.56 
z
" clip-path="url(#pe6c05fd931)" style="fill: #7f7f7f; opacity: 0.5"/>
   </g>
   <g id="patch_27">
    <path d="M 128.685827 448.56 
L 130.283536 448.56 
L 130.283536 448.56 
L 128.685827 448.56 
z
" clip-path="url(#pe6c05fd931)" style="fill: #7f7f7f; opacity: 0.5"/>
   </g>
   <g id="patch_28">
    <path d="M 130.682963 448.56 
L 132.280673 448.56 
L 132.280673 448.56 
L 130.682963 448.56 
z
" clip-path="url(#pe6c05fd931)" style="fill: #7f7f7f; opacity: 0.5"/>
   </g>
   <g id="patch_29">
    <path d="M 132.6801 448.56 
L 134.27781 448.56 
L 134.27781 431.686957 
L 132.6801 431.686957 
z
" clip-path="url(#pe6c05fd931)" style="fill: #7f7f7f; opacity: 0.5"/>
   </g>
   <g id="patch_30">
    <path d="M 134.677237 448.56 
L 136.274946 448.56 
L 136.274946 431.686957 
L 134.677237 431.686957 
z
" clip-path="url(#pe6c05fd931)" style="fill: #7f7f7f; opacity: 0.5"/>
   </g>
   <g id="patch_31">
    <path d="M 136.674374 448.56 
L 138.272083 448.56 
L 138.272083 448.56 
L 136.674374 448.56 
z
" clip-path="url(#pe6c05fd931)" style="fill: #7f7f7f; opacity: 0.5"/>
   </g>
   <g id="patch_32">
    <path d="M 138.67151 448.56 
L 140.26922 448.56 
L 140.26922 448.56 
L 138.67151 448.56 
z
" clip-path="url(#pe6c05fd931)" style="fill: #7f7f7f; opacity: 0.5"/>
   </g>
   <g id="patch_33">
    <path d="M 140.668647 448.56 
L 142.266356 448.56 
L 142.266356 448.56 
L 140.668647 448.56 
z
" clip-path="url(#pe6c05fd931)" style="fill: #7f7f7f; opacity: 0.5"/>
   </g>
   <g id="patch_34">
    <path d="M 142.665784 448.56 
L 144.263493 448.56 
L 144.263493 448.56 
L 142.665784 448.56 
z
" clip-path="url(#pe6c05fd931)" style="fill: #7f7f7f; opacity: 0.5"/>
   </g>
   <g id="patch_35">
    <path d="M 144.662921 448.56 
L 146.26063 448.56 
L 146.26063 448.56 
L 144.662921 448.56 
z
" clip-path="url(#pe6c05fd931)" style="fill: #7f7f7f; opacity: 0.5"/>
   </g>
   <g id="patch_36">
    <path d="M 146.660057 448.56 
L 148.257767 448.56 
L 148.257767 431.686957 
L 146.660057 431.686957 
z
" clip-path="url(#pe6c05fd931)" style="fill: #7f7f7f; opacity: 0.5"/>
   </g>
   <g id="patch_37">
    <path d="M 148.657194 448.56 
L 150.254903 448.56 
L 150.254903 431.686957 
L 148.657194 431.686957 
z
" clip-path="url(#pe6c05fd931)" style="fill: #7f7f7f; opacity: 0.5"/>
   </g>
   <g id="patch_38">
    <path d="M 150.654331 448.56 
L 152.25204 448.56 
L 152.25204 431.686957 
L 150.654331 431.686957 
z
" clip-path="url(#pe6c05fd931)" style="fill: #7f7f7f; opacity: 0.5"/>
   </g>
   <g id="patch_39">
    <path d="M 152.651467 448.56 
L 154.249177 448.56 
L 154.249177 431.686957 
L 152.651467 431.686957 
z
" clip-path="url(#pe6c05fd931)" style="fill: #7f7f7f; opacity: 0.5"/>
   </g>
   <g id="patch_40">
    <path d="M 154.648604 448.56 
L 156.246314 448.56 
L 156.246314 414.813913 
L 154.648604 414.813913 
z
" clip-path="url(#pe6c05fd931)" style="fill: #7f7f7f; opacity: 0.5"/>
   </g>
   <g id="patch_41">
    <path d="M 156.645741 448.56 
L 158.24345 448.56 
L 158.24345 431.686957 
L 156.645741 431.686957 
z
" clip-path="url(#pe6c05fd931)" style="fill: #7f7f7f; opacity: 0.5"/>
   </g>
   <g id="patch_42">
    <path d="M 158.642878 448.56 
L 160.240587 448.56 
L 160.240587 431.686957 
L 158.642878 431.686957 
z
" clip-path="url(#pe6c05fd931)" style="fill: #7f7f7f; opacity: 0.5"/>
   </g>
   <g id="patch_43">
    <path d="M 160.640014 448.56 
L 162.237724 448.56 
L 162.237724 431.686957 
L 160.640014 431.686957 
z
" clip-path="url(#pe6c05fd931)" style="fill: #7f7f7f; opacity: 0.5"/>
   </g>
   <g id="patch_44">
    <path d="M 162.637151 448.56 
L 164.23486 448.56 
L 164.23486 448.56 
L 162.637151 448.56 
z
" clip-path="url(#pe6c05fd931)" style="fill: #7f7f7f; opacity: 0.5"/>
   </g>
   <g id="patch_45">
    <path d="M 164.634288 448.56 
L 166.231997 448.56 
L 166.231997 448.56 
L 164.634288 448.56 
z
" clip-path="url(#pe6c05fd931)" style="fill: #7f7f7f; opacity: 0.5"/>
   </g>
   <g id="patch_46">
    <path d="M 166.631424 448.56 
L 168.229134 448.56 
L 168.229134 448.56 
L 166.631424 448.56 
z
" clip-path="url(#pe6c05fd931)" style="fill: #7f7f7f; opacity: 0.5"/>
   </g>
   <g id="patch_47">
    <path d="M 168.628561 448.56 
L 170.226271 448.56 
L 170.226271 364.194783 
L 168.628561 364.194783 
z
" clip-path="url(#pe6c05fd931)" style="fill: #7f7f7f; opacity: 0.5"/>
   </g>
   <g id="patch_48">
    <path d="M 170.625698 448.56 
L 172.223407 448.56 
L 172.223407 397.94087 
L 170.625698 397.94087 
z
" clip-path="url(#pe6c05fd931)" style="fill: #7f7f7f; opacity: 0.5"/>
   </g>
   <g id="patch_49">
    <path d="M 172.622835 448.56 
L 174.220544 448.56 
L 174.220544 414.813913 
L 172.622835 414.813913 
z
" clip-path="url(#pe6c05fd931)" style="fill: #7f7f7f; opacity: 0.5"/>
   </g>
   <g id="patch_50">
    <path d="M 174.619971 448.56 
L 176.217681 448.56 
L 176.217681 397.94087 
L 174.619971 397.94087 
z
" clip-path="url(#pe6c05fd931)" style="fill: #7f7f7f; opacity: 0.5"/>
   </g>
   <g id="patch_51">
    <path d="M 176.617108 448.56 
L 178.214817 448.56 
L 178.214817 431.686957 
L 176.617108 431.686957 
z
" clip-path="url(#pe6c05fd931)" style="fill: #7f7f7f; opacity: 0.5"/>
   </g>
   <g id="patch_52">
    <path d="M 178.614245 448.56 
L 180.211954 448.56 
L 180.211954 414.813913 
L 178.614245 414.813913 
z
" clip-path="url(#pe6c05fd931)" style="fill: #7f7f7f; opacity: 0.5"/>
   </g>
   <g id="patch_53">
    <path d="M 180.611382 448.56 
L 182.209091 448.56 
L 182.209091 431.686957 
L 180.611382 431.686957 
z
" clip-path="url(#pe6c05fd931)" style="fill: #7f7f7f; opacity: 0.5"/>
   </g>
   <g id="patch_54">
    <path d="M 182.608518 448.56 
L 184.206228 448.56 
L 184.206228 448.56 
L 182.608518 448.56 
z
" clip-path="url(#pe6c05fd931)" style="fill: #7f7f7f; opacity: 0.5"/>
   </g>
   <g id="patch_55">
    <path d="M 184.605655 448.56 
L 186.203364 448.56 
L 186.203364 381.067826 
L 184.605655 381.067826 
z
" clip-path="url(#pe6c05fd931)" style="fill: #7f7f7f; opacity: 0.5"/>
   </g>
   <g id="patch_56">
    <path d="M 186.602792 448.56 
L 188.200501 448.56 
L 188.200501 381.067826 
L 186.602792 381.067826 
z
" clip-path="url(#pe6c05fd931)" style="fill: #7f7f7f; opacity: 0.5"/>
   </g>
   <g id="patch_57">
    <path d="M 188.599928 448.56 
L 190.197638 448.56 
L 190.197638 347.321739 
L 188.599928 347.321739 
z
" clip-path="url(#pe6c05fd931)" style="fill: #7f7f7f; opacity: 0.5"/>
   </g>
   <g id="patch_58">
    <path d="M 190.597065 448.56 
L 192.194775 448.56 
L 192.194775 414.813913 
L 190.597065 414.813913 
z
" clip-path="url(#pe6c05fd931)" style="fill: #7f7f7f; opacity: 0.5"/>
   </g>
   <g id="patch_59">
    <path d="M 192.594202 448.56 
L 194.191911 448.56 
L 194.191911 414.813913 
L 192.594202 414.813913 
z
" clip-path="url(#pe6c05fd931)" style="fill: #7f7f7f; opacity: 0.5"/>
   </g>
   <g id="patch_60">
    <path d="M 194.591339 448.56 
L 196.189048 448.56 
L 196.189048 381.067826 
L 194.591339 381.067826 
z
" clip-path="url(#pe6c05fd931)" style="fill: #7f7f7f; opacity: 0.5"/>
   </g>
   <g id="patch_61">
    <path d="M 196.588475 448.56 
L 198.186185 448.56 
L 198.186185 381.067826 
L 196.588475 381.067826 
z
" clip-path="url(#pe6c05fd931)" style="fill: #7f7f7f; opacity: 0.5"/>
   </g>
   <g id="patch_62">
    <path d="M 198.585612 448.56 
L 200.183321 448.56 
L 200.183321 397.94087 
L 198.585612 397.94087 
z
" clip-path="url(#pe6c05fd931)" style="fill: #7f7f7f; opacity: 0.5"/>
   </g>
   <g id="patch_63">
    <path d="M 200.582749 448.56 
L 202.180458 448.56 
L 202.180458 364.194783 
L 200.582749 364.194783 
z
" clip-path="url(#pe6c05fd931)" style="fill: #7f7f7f; opacity: 0.5"/>
   </g>
   <g id="patch_64">
    <path d="M 202.579885 448.56 
L 204.177595 448.56 
L 204.177595 347.321739 
L 202.579885 347.321739 
z
" clip-path="url(#pe6c05fd931)" style="fill: #7f7f7f; opacity: 0.5"/>
   </g>
   <g id="patch_65">
    <path d="M 204.577022 448.56 
L 206.174732 448.56 
L 206.174732 347.321739 
L 204.577022 347.321739 
z
" clip-path="url(#pe6c05fd931)" style="fill: #7f7f7f; opacity: 0.5"/>
   </g>
   <g id="patch_66">
    <path d="M 206.574159 448.56 
L 208.171868 448.56 
L 208.171868 347.321739 
L 206.574159 347.321739 
z
" clip-path="url(#pe6c05fd931)" style="fill: #7f7f7f; opacity: 0.5"/>
   </g>
   <g id="patch_67">
    <path d="M 208.571296 448.56 
L 210.169005 448.56 
L 210.169005 347.321739 
L 208.571296 347.321739 
z
" clip-path="url(#pe6c05fd931)" style="fill: #7f7f7f; opacity: 0.5"/>
   </g>
   <g id="patch_68">
    <path d="M 210.568432 448.56 
L 212.166142 448.56 
L 212.166142 330.448696 
L 210.568432 330.448696 
z
" clip-path="url(#pe6c05fd931)" style="fill: #7f7f7f; opacity: 0.5"/>
   </g>
   <g id="patch_69">
    <path d="M 212.565569 448.56 
L 214.163278 448.56 
L 214.163278 330.448696 
L 212.565569 330.448696 
z
" clip-path="url(#pe6c05fd931)" style="fill: #7f7f7f; opacity: 0.5"/>
   </g>
   <g id="patch_70">
    <path d="M 214.562706 448.56 
L 216.160415 448.56 
L 216.160415 212.337391 
L 214.562706 212.337391 
z
" clip-path="url(#pe6c05fd931)" style="fill: #7f7f7f; opacity: 0.5"/>
   </g>
   <g id="patch_71">
    <path d="M 216.559843 448.56 
L 218.157552 448.56 
L 218.157552 347.321739 
L 216.559843 347.321739 
z
" clip-path="url(#pe6c05fd931)" style="fill: #7f7f7f; opacity: 0.5"/>
   </g>
   <g id="patch_72">
    <path d="M 218.556979 448.56 
L 220.154689 448.56 
L 220.154689 279.829565 
L 218.556979 279.829565 
z
" clip-path="url(#pe6c05fd931)" style="fill: #7f7f7f; opacity: 0.5"/>
   </g>
   <g id="patch_73">
    <path d="M 220.554116 448.56 
L 222.151825 448.56 
L 222.151825 229.210435 
L 220.554116 229.210435 
z
" clip-path="url(#pe6c05fd931)" style="fill: #7f7f7f; opacity: 0.5"/>
   </g>
   <g id="patch_74">
    <path d="M 222.551253 448.56 
L 224.148962 448.56 
L 224.148962 229.210435 
L 222.551253 229.210435 
z
" clip-path="url(#pe6c05fd931)" style="fill: #7f7f7f; opacity: 0.5"/>
   </g>
   <g id="patch_75">
    <path d="M 224.548389 448.56 
L 226.146099 448.56 
L 226.146099 330.448696 
L 224.548389 330.448696 
z
" clip-path="url(#pe6c05fd931)" style="fill: #7f7f7f; opacity: 0.5"/>
   </g>
   <g id="patch_76">
    <path d="M 226.545526 448.56 
L 228.143236 448.56 
L 228.143236 178.591304 
L 226.545526 178.591304 
z
" clip-path="url(#pe6c05fd931)" style="fill: #7f7f7f; opacity: 0.5"/>
   </g>
   <g id="patch_77">
    <path d="M 228.542663 448.56 
L 230.140372 448.56 
L 230.140372 195.464348 
L 228.542663 195.464348 
z
" clip-path="url(#pe6c05fd931)" style="fill: #7f7f7f; opacity: 0.5"/>
   </g>
   <g id="patch_78">
    <path d="M 230.5398 448.56 
L 232.137509 448.56 
L 232.137509 144.845217 
L 230.5398 144.845217 
z
" clip-path="url(#pe6c05fd931)" style="fill: #7f7f7f; opacity: 0.5"/>
   </g>
   <g id="patch_79">
    <path d="M 232.536936 448.56 
L 234.134646 448.56 
L 234.134646 178.591304 
L 232.536936 178.591304 
z
" clip-path="url(#pe6c05fd931)" style="fill: #7f7f7f; opacity: 0.5"/>
   </g>
   <g id="patch_80">
    <path d="M 234.534073 448.56 
L 236.131782 448.56 
L 236.131782 60.48 
L 234.534073 60.48 
z
" clip-path="url(#pe6c05fd931)" style="fill: #7f7f7f; opacity: 0.5"/>
   </g>
   <g id="patch_81">
    <path d="M 236.53121 448.56 
L 238.128919 448.56 
L 238.128919 178.591304 
L 236.53121 178.591304 
z
" clip-path="url(#pe6c05fd931)" style="fill: #7f7f7f; opacity: 0.5"/>
   </g>
   <g id="patch_82">
    <path d="M 238.528346 448.56 
L 240.126056 448.56 
L 240.126056 144.845217 
L 238.528346 144.845217 
z
" clip-path="url(#pe6c05fd931)" style="fill: #7f7f7f; opacity: 0.5"/>
   </g>
   <g id="patch_83">
    <path d="M 240.525483 448.56 
L 242.123193 448.56 
L 242.123193 296.702609 
L 240.525483 296.702609 
z
" clip-path="url(#pe6c05fd931)" style="fill: #7f7f7f; opacity: 0.5"/>
   </g>
   <g id="patch_84">
    <path d="M 242.52262 448.56 
L 244.120329 448.56 
L 244.120329 296.702609 
L 242.52262 296.702609 
z
" clip-path="url(#pe6c05fd931)" style="fill: #7f7f7f; opacity: 0.5"/>
   </g>
   <g id="patch_85">
    <path d="M 244.519757 448.56 
L 246.117466 448.56 
L 246.117466 279.829565 
L 244.519757 279.829565 
z
" clip-path="url(#pe6c05fd931)" style="fill: #7f7f7f; opacity: 0.5"/>
   </g>
   <g id="patch_86">
    <path d="M 246.516893 448.56 
L 248.114603 448.56 
L 248.114603 313.575652 
L 246.516893 313.575652 
z
" clip-path="url(#pe6c05fd931)" style="fill: #7f7f7f; opacity: 0.5"/>
   </g>
   <g id="patch_87">
    <path d="M 248.51403 448.56 
L 250.111739 448.56 
L 250.111739 229.210435 
L 248.51403 229.210435 
z
" clip-path="url(#pe6c05fd931)" style="fill: #7f7f7f; opacity: 0.5"/>
   </g>
   <g id="patch_88">
    <path d="M 250.511167 448.56 
L 252.108876 448.56 
L 252.108876 313.575652 
L 250.511167 313.575652 
z
" clip-path="url(#pe6c05fd931)" style="fill: #7f7f7f; opacity: 0.5"/>
   </g>
   <g id="patch_89">
    <path d="M 252.508304 448.56 
L 254.106013 448.56 
L 254.106013 127.972174 
L 252.508304 127.972174 
z
" clip-path="url(#pe6c05fd931)" style="fill: #7f7f7f; opacity: 0.5"/>
   </g>
   <g id="patch_90">
    <path d="M 254.50544 448.56 
L 256.10315 448.56 
L 256.10315 195.464348 
L 254.50544 195.464348 
z
" clip-path="url(#pe6c05fd931)" style="fill: #7f7f7f; opacity: 0.5"/>
   </g>
   <g id="patch_91">
    <path d="M 256.502577 448.56 
L 258.100286 448.56 
L 258.100286 296.702609 
L 256.502577 296.702609 
z
" clip-path="url(#pe6c05fd931)" style="fill: #7f7f7f; opacity: 0.5"/>
   </g>
   <g id="patch_92">
    <path d="M 258.499714 448.56 
L 260.097423 448.56 
L 260.097423 229.210435 
L 258.499714 229.210435 
z
" clip-path="url(#pe6c05fd931)" style="fill: #7f7f7f; opacity: 0.5"/>
   </g>
   <g id="patch_93">
    <path d="M 260.49685 448.56 
L 262.09456 448.56 
L 262.09456 144.845217 
L 260.49685 144.845217 
z
" clip-path="url(#pe6c05fd931)" style="fill: #7f7f7f; opacity: 0.5"/>
   </g>
   <g id="patch_94">
    <path d="M 262.493987 448.56 
L 264.091696 448.56 
L 264.091696 347.321739 
L 262.493987 347.321739 
z
" clip-path="url(#pe6c05fd931)" style="fill: #7f7f7f; opacity: 0.5"/>
   </g>
   <g id="patch_95">
    <path d="M 264.491124 448.56 
L 266.088833 448.56 
L 266.088833 60.48 
L 264.491124 60.48 
z
" clip-path="url(#pe6c05fd931)" style="fill: #7f7f7f; opacity: 0.5"/>
   </g>
   <g id="patch_96">
    <path d="M 266.488261 448.56 
L 268.08597 448.56 
L 268.08597 161.718261 
L 266.488261 161.718261 
z
" clip-path="url(#pe6c05fd931)" style="fill: #7f7f7f; opacity: 0.5"/>
   </g>
   <g id="patch_97">
    <path d="M 268.485397 448.56 
L 270.083107 448.56 
L 270.083107 144.845217 
L 268.485397 144.845217 
z
" clip-path="url(#pe6c05fd931)" style="fill: #7f7f7f; opacity: 0.5"/>
   </g>
   <g id="patch_98">
    <path d="M 270.482534 448.56 
L 272.080243 448.56 
L 272.080243 279.829565 
L 270.482534 279.829565 
z
" clip-path="url(#pe6c05fd931)" style="fill: #7f7f7f; opacity: 0.5"/>
   </g>
   <g id="patch_99">
    <path d="M 272.479671 448.56 
L 274.07738 448.56 
L 274.07738 246.083478 
L 272.479671 246.083478 
z
" clip-path="url(#pe6c05fd931)" style="fill: #7f7f7f; opacity: 0.5"/>
   </g>
   <g id="patch_100">
    <path d="M 274.476807 448.56 
L 276.074517 448.56 
L 276.074517 161.718261 
L 274.476807 161.718261 
z
" clip-path="url(#pe6c05fd931)" style="fill: #7f7f7f; opacity: 0.5"/>
   </g>
   <g id="patch_101">
    <path d="M 276.473944 448.56 
L 278.071654 448.56 
L 278.071654 144.845217 
L 276.473944 144.845217 
z
" clip-path="url(#pe6c05fd931)" style="fill: #7f7f7f; opacity: 0.5"/>
   </g>
   <g id="patch_102">
    <path d="M 278.471081 448.56 
L 280.06879 448.56 
L 280.06879 296.702609 
L 278.471081 296.702609 
z
" clip-path="url(#pe6c05fd931)" style="fill: #7f7f7f; opacity: 0.5"/>
   </g>
   <g id="patch_103">
    <path d="M 280.468218 448.56 
L 282.065927 448.56 
L 282.065927 262.956522 
L 280.468218 262.956522 
z
" clip-path="url(#pe6c05fd931)" style="fill: #7f7f7f; opacity: 0.5"/>
   </g>
   <g id="patch_104">
    <path d="M 282.465354 448.56 
L 284.063064 448.56 
L 284.063064 279.829565 
L 282.465354 279.829565 
z
" clip-path="url(#pe6c05fd931)" style="fill: #7f7f7f; opacity: 0.5"/>
   </g>
   <g id="patch_105">
    <path d="M 284.462491 448.56 
L 286.0602 448.56 
L 286.0602 246.083478 
L 284.462491 246.083478 
z
" clip-path="url(#pe6c05fd931)" style="fill: #7f7f7f; opacity: 0.5"/>
   </g>
   <g id="patch_106">
    <path d="M 286.459628 448.56 
L 288.057337 448.56 
L 288.057337 212.337391 
L 286.459628 212.337391 
z
" clip-path="url(#pe6c05fd931)" style="fill: #7f7f7f; opacity: 0.5"/>
   </g>
   <g id="patch_107">
    <path d="M 288.456764 448.56 
L 290.054474 448.56 
L 290.054474 127.972174 
L 288.456764 127.972174 
z
" clip-path="url(#pe6c05fd931)" style="fill: #7f7f7f; opacity: 0.5"/>
   </g>
   <g id="patch_108">
    <path d="M 290.453901 448.56 
L 292.051611 448.56 
L 292.051611 246.083478 
L 290.453901 246.083478 
z
" clip-path="url(#pe6c05fd931)" style="fill: #7f7f7f; opacity: 0.5"/>
   </g>
   <g id="patch_109">
    <path d="M 292.451038 448.56 
L 294.048747 448.56 
L 294.048747 195.464348 
L 292.451038 195.464348 
z
" clip-path="url(#pe6c05fd931)" style="fill: #7f7f7f; opacity: 0.5"/>
   </g>
   <g id="patch_110">
    <path d="M 294.448175 448.56 
L 296.045884 448.56 
L 296.045884 347.321739 
L 294.448175 347.321739 
z
" clip-path="url(#pe6c05fd931)" style="fill: #7f7f7f; opacity: 0.5"/>
   </g>
   <g id="patch_111">
    <path d="M 296.445311 448.56 
L 298.043021 448.56 
L 298.043021 330.448696 
L 296.445311 330.448696 
z
" clip-path="url(#pe6c05fd931)" style="fill: #7f7f7f; opacity: 0.5"/>
   </g>
   <g id="patch_112">
    <path d="M 298.442448 448.56 
L 300.040157 448.56 
L 300.040157 279.829565 
L 298.442448 279.829565 
z
" clip-path="url(#pe6c05fd931)" style="fill: #7f7f7f; opacity: 0.5"/>
   </g>
   <g id="patch_113">
    <path d="M 300.439585 448.56 
L 302.037294 448.56 
L 302.037294 262.956522 
L 300.439585 262.956522 
z
" clip-path="url(#pe6c05fd931)" style="fill: #7f7f7f; opacity: 0.5"/>
   </g>
   <g id="patch_114">
    <path d="M 302.436722 448.56 
L 304.034431 448.56 
L 304.034431 296.702609 
L 302.436722 296.702609 
z
" clip-path="url(#pe6c05fd931)" style="fill: #7f7f7f; opacity: 0.5"/>
   </g>
   <g id="patch_115">
    <path d="M 304.433858 448.56 
L 306.031568 448.56 
L 306.031568 246.083478 
L 304.433858 246.083478 
z
" clip-path="url(#pe6c05fd931)" style="fill: #7f7f7f; opacity: 0.5"/>
   </g>
   <g id="patch_116">
    <path d="M 306.430995 448.56 
L 308.028704 448.56 
L 308.028704 347.321739 
L 306.430995 347.321739 
z
" clip-path="url(#pe6c05fd931)" style="fill: #7f7f7f; opacity: 0.5"/>
   </g>
   <g id="patch_117">
    <path d="M 308.428132 448.56 
L 310.025841 448.56 
L 310.025841 330.448696 
L 308.428132 330.448696 
z
" clip-path="url(#pe6c05fd931)" style="fill: #7f7f7f; opacity: 0.5"/>
   </g>
   <g id="patch_118">
    <path d="M 310.425268 448.56 
L 312.022978 448.56 
L 312.022978 347.321739 
L 310.425268 347.321739 
z
" clip-path="url(#pe6c05fd931)" style="fill: #7f7f7f; opacity: 0.5"/>
   </g>
   <g id="patch_119">
    <path d="M 312.422405 448.56 
L 314.020115 448.56 
L 314.020115 414.813913 
L 312.422405 414.813913 
z
" clip-path="url(#pe6c05fd931)" style="fill: #7f7f7f; opacity: 0.5"/>
   </g>
   <g id="patch_120">
    <path d="M 314.419542 448.56 
L 316.017251 448.56 
L 316.017251 347.321739 
L 314.419542 347.321739 
z
" clip-path="url(#pe6c05fd931)" style="fill: #7f7f7f; opacity: 0.5"/>
   </g>
   <g id="patch_121">
    <path d="M 316.416679 448.56 
L 318.014388 448.56 
L 318.014388 381.067826 
L 316.416679 381.067826 
z
" clip-path="url(#pe6c05fd931)" style="fill: #7f7f7f; opacity: 0.5"/>
   </g>
   <g id="patch_122">
    <path d="M 318.413815 448.56 
L 320.011525 448.56 
L 320.011525 347.321739 
L 318.413815 347.321739 
z
" clip-path="url(#pe6c05fd931)" style="fill: #7f7f7f; opacity: 0.5"/>
   </g>
   <g id="patch_123">
    <path d="M 320.410952 448.56 
L 322.008661 448.56 
L 322.008661 364.194783 
L 320.410952 364.194783 
z
" clip-path="url(#pe6c05fd931)" style="fill: #7f7f7f; opacity: 0.5"/>
   </g>
   <g id="patch_124">
    <path d="M 322.408089 448.56 
L 324.005798 448.56 
L 324.005798 397.94087 
L 322.408089 397.94087 
z
" clip-path="url(#pe6c05fd931)" style="fill: #7f7f7f; opacity: 0.5"/>
   </g>
   <g id="patch_125">
    <path d="M 324.405225 448.56 
L 326.002935 448.56 
L 326.002935 347.321739 
L 324.405225 347.321739 
z
" clip-path="url(#pe6c05fd931)" style="fill: #7f7f7f; opacity: 0.5"/>
   </g>
   <g id="patch_126">
    <path d="M 326.402362 448.56 
L 328.000072 448.56 
L 328.000072 397.94087 
L 326.402362 397.94087 
z
" clip-path="url(#pe6c05fd931)" style="fill: #7f7f7f; opacity: 0.5"/>
   </g>
   <g id="patch_127">
    <path d="M 328.399499 448.56 
L 329.997208 448.56 
L 329.997208 414.813913 
L 328.399499 414.813913 
z
" clip-path="url(#pe6c05fd931)" style="fill: #7f7f7f; opacity: 0.5"/>
   </g>
   <g id="patch_128">
    <path d="M 330.396636 448.56 
L 331.994345 448.56 
L 331.994345 431.686957 
L 330.396636 431.686957 
z
" clip-path="url(#pe6c05fd931)" style="fill: #7f7f7f; opacity: 0.5"/>
   </g>
   <g id="patch_129">
    <path d="M 332.393772 448.56 
L 333.991482 448.56 
L 333.991482 431.686957 
L 332.393772 431.686957 
z
" clip-path="url(#pe6c05fd931)" style="fill: #7f7f7f; opacity: 0.5"/>
   </g>
   <g id="patch_130">
    <path d="M 334.390909 448.56 
L 335.988618 448.56 
L 335.988618 431.686957 
L 334.390909 431.686957 
z
" clip-path="url(#pe6c05fd931)" style="fill: #7f7f7f; opacity: 0.5"/>
   </g>
   <g id="patch_131">
    <path d="M 336.388046 448.56 
L 337.985755 448.56 
L 337.985755 431.686957 
L 336.388046 431.686957 
z
" clip-path="url(#pe6c05fd931)" style="fill: #7f7f7f; opacity: 0.5"/>
   </g>
   <g id="patch_132">
    <path d="M 338.385183 448.56 
L 339.982892 448.56 
L 339.982892 431.686957 
L 338.385183 431.686957 
z
" clip-path="url(#pe6c05fd931)" style="fill: #7f7f7f; opacity: 0.5"/>
   </g>
   <g id="patch_133">
    <path d="M 340.382319 448.56 
L 341.980029 448.56 
L 341.980029 431.686957 
L 340.382319 431.686957 
z
" clip-path="url(#pe6c05fd931)" style="fill: #7f7f7f; opacity: 0.5"/>
   </g>
   <g id="patch_134">
    <path d="M 342.379456 448.56 
L 343.977165 448.56 
L 343.977165 431.686957 
L 342.379456 431.686957 
z
" clip-path="url(#pe6c05fd931)" style="fill: #7f7f7f; opacity: 0.5"/>
   </g>
   <g id="patch_135">
    <path d="M 344.376593 448.56 
L 345.974302 448.56 
L 345.974302 431.686957 
L 344.376593 431.686957 
z
" clip-path="url(#pe6c05fd931)" style="fill: #7f7f7f; opacity: 0.5"/>
   </g>
   <g id="patch_136">
    <path d="M 346.373729 448.56 
L 347.971439 448.56 
L 347.971439 448.56 
L 346.373729 448.56 
z
" clip-path="url(#pe6c05fd931)" style="fill: #7f7f7f; opacity: 0.5"/>
   </g>
   <g id="patch_137">
    <path d="M 348.370866 448.56 
L 349.968576 448.56 
L 349.968576 431.686957 
L 348.370866 431.686957 
z
" clip-path="url(#pe6c05fd931)" style="fill: #7f7f7f; opacity: 0.5"/>
   </g>
   <g id="patch_138">
    <path d="M 350.368003 448.56 
L 351.965712 448.56 
L 351.965712 431.686957 
L 350.368003 431.686957 
z
" clip-path="url(#pe6c05fd931)" style="fill: #7f7f7f; opacity: 0.5"/>
   </g>
   <g id="patch_139">
    <path d="M 352.36514 448.56 
L 353.962849 448.56 
L 353.962849 448.56 
L 352.36514 448.56 
z
" clip-path="url(#pe6c05fd931)" style="fill: #7f7f7f; opacity: 0.5"/>
   </g>
   <g id="patch_140">
    <path d="M 354.362276 448.56 
L 355.959986 448.56 
L 355.959986 448.56 
L 354.362276 448.56 
z
" clip-path="url(#pe6c05fd931)" style="fill: #7f7f7f; opacity: 0.5"/>
   </g>
   <g id="patch_141">
    <path d="M 356.359413 448.56 
L 357.957122 448.56 
L 357.957122 448.56 
L 356.359413 448.56 
z
" clip-path="url(#pe6c05fd931)" style="fill: #7f7f7f; opacity: 0.5"/>
   </g>
   <g id="patch_142">
    <path d="M 358.35655 448.56 
L 359.954259 448.56 
L 359.954259 448.56 
L 358.35655 448.56 
z
" clip-path="url(#pe6c05fd931)" style="fill: #7f7f7f; opacity: 0.5"/>
   </g>
   <g id="patch_143">
    <path d="M 360.353686 448.56 
L 361.951396 448.56 
L 361.951396 448.56 
L 360.353686 448.56 
z
" clip-path="url(#pe6c05fd931)" style="fill: #7f7f7f; opacity: 0.5"/>
   </g>
   <g id="patch_144">
    <path d="M 362.350823 448.56 
L 363.948533 448.56 
L 363.948533 448.56 
L 362.350823 448.56 
z
" clip-path="url(#pe6c05fd931)" style="fill: #7f7f7f; opacity: 0.5"/>
   </g>
   <g id="patch_145">
    <path d="M 364.34796 448.56 
L 365.945669 448.56 
L 365.945669 448.56 
L 364.34796 448.56 
z
" clip-path="url(#pe6c05fd931)" style="fill: #7f7f7f; opacity: 0.5"/>
   </g>
   <g id="patch_146">
    <path d="M 366.345097 448.56 
L 367.942806 448.56 
L 367.942806 448.56 
L 366.345097 448.56 
z
" clip-path="url(#pe6c05fd931)" style="fill: #7f7f7f; opacity: 0.5"/>
   </g>
   <g id="patch_147">
    <path d="M 368.342233 448.56 
L 369.939943 448.56 
L 369.939943 448.56 
L 368.342233 448.56 
z
" clip-path="url(#pe6c05fd931)" style="fill: #7f7f7f; opacity: 0.5"/>
   </g>
   <g id="patch_148">
    <path d="M 370.33937 448.56 
L 371.937079 448.56 
L 371.937079 448.56 
L 370.33937 448.56 
z
" clip-path="url(#pe6c05fd931)" style="fill: #7f7f7f; opacity: 0.5"/>
   </g>
   <g id="patch_149">
    <path d="M 372.336507 448.56 
L 373.934216 448.56 
L 373.934216 448.56 
L 372.336507 448.56 
z
" clip-path="url(#pe6c05fd931)" style="fill: #7f7f7f; opacity: 0.5"/>
   </g>
   <g id="patch_150">
    <path d="M 374.333644 448.56 
L 375.931353 448.56 
L 375.931353 448.56 
L 374.333644 448.56 
z
" clip-path="url(#pe6c05fd931)" style="fill: #7f7f7f; opacity: 0.5"/>
   </g>
   <g id="patch_151">
    <path d="M 376.33078 448.56 
L 377.92849 448.56 
L 377.92849 448.56 
L 376.33078 448.56 
z
" clip-path="url(#pe6c05fd931)" style="fill: #7f7f7f; opacity: 0.5"/>
   </g>
   <g id="patch_152">
    <path d="M 378.327917 448.56 
L 379.925626 448.56 
L 379.925626 448.56 
L 378.327917 448.56 
z
" clip-path="url(#pe6c05fd931)" style="fill: #7f7f7f; opacity: 0.5"/>
   </g>
   <g id="patch_153">
    <path d="M 380.325054 448.56 
L 381.922763 448.56 
L 381.922763 448.56 
L 380.325054 448.56 
z
" clip-path="url(#pe6c05fd931)" style="fill: #7f7f7f; opacity: 0.5"/>
   </g>
   <g id="patch_154">
    <path d="M 382.32219 448.56 
L 383.9199 448.56 
L 383.9199 448.56 
L 382.32219 448.56 
z
" clip-path="url(#pe6c05fd931)" style="fill: #7f7f7f; opacity: 0.5"/>
   </g>
   <g id="patch_155">
    <path d="M 384.319327 448.56 
L 385.917037 448.56 
L 385.917037 448.56 
L 384.319327 448.56 
z
" clip-path="url(#pe6c05fd931)" style="fill: #7f7f7f; opacity: 0.5"/>
   </g>
   <g id="patch_156">
    <path d="M 386.316464 448.56 
L 387.914173 448.56 
L 387.914173 448.56 
L 386.316464 448.56 
z
" clip-path="url(#pe6c05fd931)" style="fill: #7f7f7f; opacity: 0.5"/>
   </g>
   <g id="patch_157">
    <path d="M 388.313601 448.56 
L 389.91131 448.56 
L 389.91131 448.56 
L 388.313601 448.56 
z
" clip-path="url(#pe6c05fd931)" style="fill: #7f7f7f; opacity: 0.5"/>
   </g>
   <g id="patch_158">
    <path d="M 390.310737 448.56 
L 391.908447 448.56 
L 391.908447 448.56 
L 390.310737 448.56 
z
" clip-path="url(#pe6c05fd931)" style="fill: #7f7f7f; opacity: 0.5"/>
   </g>
   <g id="patch_159">
    <path d="M 392.307874 448.56 
L 393.905583 448.56 
L 393.905583 448.56 
L 392.307874 448.56 
z
" clip-path="url(#pe6c05fd931)" style="fill: #7f7f7f; opacity: 0.5"/>
   </g>
   <g id="patch_160">
    <path d="M 394.305011 448.56 
L 395.90272 448.56 
L 395.90272 448.56 
L 394.305011 448.56 
z
" clip-path="url(#pe6c05fd931)" style="fill: #7f7f7f; opacity: 0.5"/>
   </g>
   <g id="patch_161">
    <path d="M 396.302147 448.56 
L 397.899857 448.56 
L 397.899857 448.56 
L 396.302147 448.56 
z
" clip-path="url(#pe6c05fd931)" style="fill: #7f7f7f; opacity: 0.5"/>
   </g>
   <g id="patch_162">
    <path d="M 398.299284 448.56 
L 399.896994 448.56 
L 399.896994 448.56 
L 398.299284 448.56 
z
" clip-path="url(#pe6c05fd931)" style="fill: #7f7f7f; opacity: 0.5"/>
   </g>
   <g id="patch_163">
    <path d="M 400.296421 448.56 
L 401.89413 448.56 
L 401.89413 448.56 
L 400.296421 448.56 
z
" clip-path="url(#pe6c05fd931)" style="fill: #7f7f7f; opacity: 0.5"/>
   </g>
   <g id="patch_164">
    <path d="M 402.293558 448.56 
L 403.891267 448.56 
L 403.891267 448.56 
L 402.293558 448.56 
z
" clip-path="url(#pe6c05fd931)" style="fill: #7f7f7f; opacity: 0.5"/>
   </g>
   <g id="patch_165">
    <path d="M 404.290694 448.56 
L 405.888404 448.56 
L 405.888404 448.56 
L 404.290694 448.56 
z
" clip-path="url(#pe6c05fd931)" style="fill: #7f7f7f; opacity: 0.5"/>
   </g>
   <g id="patch_166">
    <path d="M 406.287831 448.56 
L 407.88554 448.56 
L 407.88554 448.56 
L 406.287831 448.56 
z
" clip-path="url(#pe6c05fd931)" style="fill: #7f7f7f; opacity: 0.5"/>
   </g>
   <g id="patch_167">
    <path d="M 408.284968 448.56 
L 409.882677 448.56 
L 409.882677 448.56 
L 408.284968 448.56 
z
" clip-path="url(#pe6c05fd931)" style="fill: #7f7f7f; opacity: 0.5"/>
   </g>
   <g id="patch_168">
    <path d="M 410.282105 448.56 
L 411.879814 448.56 
L 411.879814 448.56 
L 410.282105 448.56 
z
" clip-path="url(#pe6c05fd931)" style="fill: #7f7f7f; opacity: 0.5"/>
   </g>
   <g id="patch_169">
    <path d="M 412.279241 448.56 
L 413.876951 448.56 
L 413.876951 448.56 
L 412.279241 448.56 
z
" clip-path="url(#pe6c05fd931)" style="fill: #7f7f7f; opacity: 0.5"/>
   </g>
   <g id="patch_170">
    <path d="M 414.276378 448.56 
L 415.874087 448.56 
L 415.874087 448.56 
L 414.276378 448.56 
z
" clip-path="url(#pe6c05fd931)" style="fill: #7f7f7f; opacity: 0.5"/>
   </g>
   <g id="patch_171">
    <path d="M 416.273515 448.56 
L 417.871224 448.56 
L 417.871224 448.56 
L 416.273515 448.56 
z
" clip-path="url(#pe6c05fd931)" style="fill: #7f7f7f; opacity: 0.5"/>
   </g>
   <g id="patch_172">
    <path d="M 418.270651 448.56 
L 419.868361 448.56 
L 419.868361 448.56 
L 418.270651 448.56 
z
" clip-path="url(#pe6c05fd931)" style="fill: #7f7f7f; opacity: 0.5"/>
   </g>
   <g id="patch_173">
    <path d="M 420.267788 448.56 
L 421.865497 448.56 
L 421.865497 448.56 
L 420.267788 448.56 
z
" clip-path="url(#pe6c05fd931)" style="fill: #7f7f7f; opacity: 0.5"/>
   </g>
   <g id="patch_174">
    <path d="M 422.264925 448.56 
L 423.862634 448.56 
L 423.862634 448.56 
L 422.264925 448.56 
z
" clip-path="url(#pe6c05fd931)" style="fill: #7f7f7f; opacity: 0.5"/>
   </g>
   <g id="patch_175">
    <path d="M 424.262062 448.56 
L 425.859771 448.56 
L 425.859771 448.56 
L 424.262062 448.56 
z
" clip-path="url(#pe6c05fd931)" style="fill: #7f7f7f; opacity: 0.5"/>
   </g>
   <g id="patch_176">
    <path d="M 426.259198 448.56 
L 427.856908 448.56 
L 427.856908 448.56 
L 426.259198 448.56 
z
" clip-path="url(#pe6c05fd931)" style="fill: #7f7f7f; opacity: 0.5"/>
   </g>
   <g id="patch_177">
    <path d="M 428.256335 448.56 
L 429.854044 448.56 
L 429.854044 448.56 
L 428.256335 448.56 
z
" clip-path="url(#pe6c05fd931)" style="fill: #7f7f7f; opacity: 0.5"/>
   </g>
   <g id="patch_178">
    <path d="M 430.253472 448.56 
L 431.851181 448.56 
L 431.851181 448.56 
L 430.253472 448.56 
z
" clip-path="url(#pe6c05fd931)" style="fill: #7f7f7f; opacity: 0.5"/>
   </g>
   <g id="patch_179">
    <path d="M 432.250608 448.56 
L 433.848318 448.56 
L 433.848318 448.56 
L 432.250608 448.56 
z
" clip-path="url(#pe6c05fd931)" style="fill: #7f7f7f; opacity: 0.5"/>
   </g>
   <g id="patch_180">
    <path d="M 434.247745 448.56 
L 435.845455 448.56 
L 435.845455 448.56 
L 434.247745 448.56 
z
" clip-path="url(#pe6c05fd931)" style="fill: #7f7f7f; opacity: 0.5"/>
   </g>
   <g id="patch_181">
    <path d="M 453.6 448.56 
L 453.6 60.48 
" style="fill: none; stroke: #7f7f7f; stroke-width: 0.8; stroke-linejoin: miter; stroke-linecap: square"/>
   </g>
  </g>
  <g id="axes_2">
   <g id="matplotlib.axis_2">
    <g id="xtick_1">
     <g id="line2d_6">
      <defs>
       <path id="m5b207a7aa7" d="M 0 0 
L 0 3.5 
" style="stroke: #000000; stroke-width: 0.8"/>
      </defs>
      <g>
       <use xlink:href="#m5b207a7aa7" x="81.5534" y="448.56" style="stroke: #000000; stroke-width: 0.8"/>
      </g>
     </g>
     <g id="text_7">
      <text style="font-size: 16px; font-family: 'Arial', sans-serif; text-anchor: middle" x="81.5534" y="467.208438" transform="rotate(-0 81.5534 467.208438)">1 Jun</text>
     </g>
    </g>
    <g id="xtick_2">
     <g id="line2d_7">
      <g>
       <use xlink:href="#m5b207a7aa7" x="141.467502" y="448.56" style="stroke: #000000; stroke-width: 0.8"/>
      </g>
     </g>
     <g id="text_8">
      <text style="font-size: 16px; font-family: 'Arial', sans-serif; text-anchor: middle" x="141.467502" y="467.208438" transform="rotate(-0 141.467502 467.208438)">1 Jul</text>
     </g>
    </g>
    <g id="xtick_3">
     <g id="line2d_8">
      <g>
       <use xlink:href="#m5b207a7aa7" x="203.37874" y="448.56" style="stroke: #000000; stroke-width: 0.8"/>
      </g>
     </g>
     <g id="text_9">
      <text style="font-size: 16px; font-family: 'Arial', sans-serif; text-anchor: middle" x="203.37874" y="467.208438" transform="rotate(-0 203.37874 467.208438)">1 Aug</text>
     </g>
    </g>
    <g id="xtick_4">
     <g id="line2d_9">
      <g>
       <use xlink:href="#m5b207a7aa7" x="265.289979" y="448.56" style="stroke: #000000; stroke-width: 0.8"/>
      </g>
     </g>
     <g id="text_10">
      <text style="font-size: 16px; font-family: 'Arial', sans-serif; text-anchor: middle" x="265.289979" y="467.208438" transform="rotate(-0 265.289979 467.208438)">1 Sep</text>
     </g>
    </g>
    <g id="xtick_5">
     <g id="line2d_10">
      <g>
       <use xlink:href="#m5b207a7aa7" x="325.20408" y="448.56" style="stroke: #000000; stroke-width: 0.8"/>
      </g>
     </g>
     <g id="text_11">
      <text style="font-size: 16px; font-family: 'Arial', sans-serif; text-anchor: middle" x="325.20408" y="467.2175" transform="rotate(-0 325.20408 467.2175)">1 Oct</text>
     </g>
    </g>
    <g id="xtick_6">
     <g id="line2d_11">
      <g>
       <use xlink:href="#m5b207a7aa7" x="387.115319" y="448.56" style="stroke: #000000; stroke-width: 0.8"/>
      </g>
     </g>
     <g id="text_12">
      <text style="font-size: 16px; font-family: 'Arial', sans-serif; text-anchor: middle" x="387.115319" y="467.208438" transform="rotate(-0 387.115319 467.208438)">1 Nov</text>
     </g>
    </g>
    <g id="xtick_7">
     <g id="line2d_12">
      <g>
       <use xlink:href="#m5b207a7aa7" x="447.02942" y="448.56" style="stroke: #000000; stroke-width: 0.8"/>
      </g>
     </g>
     <g id="text_13">
      <text style="font-size: 16px; font-family: 'Arial', sans-serif; text-anchor: middle" x="447.02942" y="467.208438" transform="rotate(-0 447.02942 467.208438)">1 Dec</text>
     </g>
    </g>
    <g id="text_14">
     <text style="font-size: 16px; font-family: 'Arial', sans-serif; text-anchor: middle" x="258.3" y="486.233125" transform="rotate(-0 258.3 486.233125)">Date</text>
    </g>
   </g>
   <g id="matplotlib.axis_3">
    <g id="ytick_6">
     <g id="line2d_13">
      <defs>
       <path id="mda46e0af07" d="M 0 0 
L -3.5 0 
" style="stroke: #000000; stroke-width: 0.8"/>
      </defs>
      <g>
       <use xlink:href="#mda46e0af07" x="63" y="448.56" style="stroke: #000000; stroke-width: 0.8"/>
      </g>
     </g>
     <g id="text_15">
      <text style="font-size: 16px; font-family: 'Arial', sans-serif; text-anchor: end" x="56" y="454.384219" transform="rotate(-0 56 454.384219)">0.0</text>
     </g>
    </g>
    <g id="ytick_7">
     <g id="line2d_14">
      <g>
       <use xlink:href="#mda46e0af07" x="63" y="371.712475" style="stroke: #000000; stroke-width: 0.8"/>
      </g>
     </g>
     <g id="text_16">
      <text style="font-size: 16px; font-family: 'Arial', sans-serif; text-anchor: end" x="56" y="377.536694" transform="rotate(-0 56 377.536694)">0.2</text>
     </g>
    </g>
    <g id="ytick_8">
     <g id="line2d_15">
      <g>
       <use xlink:href="#mda46e0af07" x="63" y="294.86495" style="stroke: #000000; stroke-width: 0.8"/>
      </g>
     </g>
     <g id="text_17">
      <text style="font-size: 16px; font-family: 'Arial', sans-serif; text-anchor: end" x="56" y="300.689169" transform="rotate(-0 56 300.689169)">0.4</text>
     </g>
    </g>
    <g id="ytick_9">
     <g id="line2d_16">
      <g>
       <use xlink:href="#mda46e0af07" x="63" y="218.017426" style="stroke: #000000; stroke-width: 0.8"/>
      </g>
     </g>
     <g id="text_18">
      <text style="font-size: 16px; font-family: 'Arial', sans-serif; text-anchor: end" x="56" y="223.841644" transform="rotate(-0 56 223.841644)">0.6</text>
     </g>
    </g>
    <g id="ytick_10">
     <g id="line2d_17">
      <g>
       <use xlink:href="#mda46e0af07" x="63" y="141.169901" style="stroke: #000000; stroke-width: 0.8"/>
      </g>
     </g>
     <g id="text_19">
      <text style="font-size: 16px; font-family: 'Arial', sans-serif; text-anchor: end" x="56" y="146.99412" transform="rotate(-0 56 146.99412)">0.8</text>
     </g>
    </g>
    <g id="ytick_11">
     <g id="line2d_18">
      <g>
       <use xlink:href="#mda46e0af07" x="63" y="64.322376" style="stroke: #000000; stroke-width: 0.8"/>
      </g>
     </g>
     <g id="text_20">
      <text style="font-size: 16px; font-family: 'Arial', sans-serif; text-anchor: end" x="56" y="70.146595" transform="rotate(-0 56 70.146595)">1.0</text>
     </g>
    </g>
    <g id="text_21">
     <text style="font-size: 16px; font-family: 'Arial', sans-serif; text-anchor: middle" x="26.3925" y="254.52" transform="rotate(-90 26.3925 254.52)">Risk of additional cases</text>
    </g>
   </g>
   <g id="line2d_19">
    <path d="M 81.5534 64.322376 
L 83.550537 228.541581 
L 89.541947 228.611077 
L 91.539084 228.888883 
L 93.53622 229.697993 
L 95.533357 231.487557 
L 97.530494 234.757633 
L 99.527631 239.940152 
L 101.524767 247.335381 
L 103.521904 257.061704 
L 105.519041 269.159503 
L 107.516178 283.336485 
L 109.513314 299.246817 
L 113.507588 334.025684 
L 117.501861 368.684988 
L 119.498998 384.450154 
L 121.496135 87.052501 
L 123.493271 87.692275 
L 129.484681 89.250899 
L 131.481818 90.262648 
L 133.478955 92.150246 
L 135.476092 66.561512 
L 137.473228 64.568806 
L 143.464639 64.755448 
L 147.458912 65.068125 
L 149.456049 64.432027 
L 153.450322 64.326542 
L 225.347244 64.322376 
L 331.19549 64.418775 
L 333.192627 64.713869 
L 335.189764 65.565822 
L 337.186901 67.656728 
L 339.184037 72.193939 
L 341.181174 80.868396 
L 343.178311 95.567878 
L 345.175447 118.070478 
L 347.172584 148.42571 
L 349.169721 186.511669 
L 353.163994 267.879377 
L 355.161131 303.136315 
L 357.158268 331.516854 
L 359.155404 354.10191 
L 361.152541 371.939775 
L 363.149678 386.155035 
L 365.146815 397.556933 
L 367.143951 406.883111 
L 369.141088 414.687576 
L 371.138225 421.308906 
L 373.135361 426.887277 
L 375.132498 431.491979 
L 377.129635 435.290978 
L 379.126772 438.407693 
L 381.123908 440.848894 
L 383.121045 442.788828 
L 385.118182 444.310541 
L 387.115319 445.474807 
L 389.112455 446.350414 
L 391.109592 446.991408 
L 393.106729 447.467291 
L 397.101002 448.043623 
L 401.095276 448.328694 
L 407.086686 448.495266 
L 421.066643 448.557585 
L 435.0466 448.56 
L 435.0466 448.56 
" clip-path="url(#pe6c05fd931)" style="fill: none; stroke: #0173b2; stroke-width: 2; stroke-linecap: square"/>
   </g>
   <g id="line2d_20">
    <path d="M 81.5534 64.322376 
L 83.550537 149.640511 
L 87.54481 149.661486 
L 89.541947 149.81631 
L 91.539084 150.423557 
L 93.53622 152.008044 
L 95.533357 155.192928 
L 97.530494 160.558865 
L 99.527631 168.614149 
L 101.524767 179.706897 
L 103.521904 194.030654 
L 105.519041 211.522087 
L 107.516178 231.945296 
L 109.513314 254.735931 
L 117.501861 351.805764 
L 119.498998 372.71862 
L 121.496135 86.112373 
L 123.493271 86.916853 
L 129.484681 88.745972 
L 131.481818 89.865536 
L 133.478955 91.923894 
L 135.476092 66.611508 
L 137.473228 64.57717 
L 143.464639 64.78444 
L 147.458912 65.125168 
L 149.456049 64.441801 
L 153.450322 64.327111 
L 217.358697 64.322376 
L 335.189764 64.411595 
L 337.186901 64.562144 
L 339.184037 64.893036 
L 341.181174 65.575232 
L 343.178311 66.84019 
L 345.175447 68.935574 
L 347.172584 72.072876 
L 351.166858 83.953147 
L 353.163994 90.584277 
L 355.161131 102.108541 
L 357.158268 115.949336 
L 359.155404 131.848127 
L 361.152541 149.650981 
L 363.149678 169.154704 
L 365.146815 190.292043 
L 369.141088 236.609798 
L 375.132498 309.647413 
L 377.129635 332.565208 
L 379.126772 353.738528 
L 381.123908 372.615893 
L 383.121045 389.014688 
L 385.118182 402.799773 
L 387.115319 413.989347 
L 389.112455 422.84917 
L 391.109592 429.779484 
L 393.106729 435.022544 
L 395.103865 438.941977 
L 397.101002 441.807051 
L 399.098139 443.870033 
L 401.095276 445.340232 
L 403.092412 446.373207 
L 405.089549 447.085569 
L 407.086686 447.57829 
L 411.080959 448.136955 
L 415.075233 448.383104 
L 423.06378 448.533311 
L 435.0466 448.56 
L 435.0466 448.56 
" clip-path="url(#pe6c05fd931)" style="fill: none; stroke: #de8f05; stroke-width: 2; stroke-linecap: square"/>
   </g>
   <g id="line2d_21">
    <path d="M 81.5534 64.322376 
L 83.550537 189.56486 
L 87.54481 189.580006 
L 89.541947 189.696914 
L 91.539084 190.179583 
L 93.53622 191.518289 
L 95.533357 194.101758 
L 97.530494 198.66253 
L 99.527631 205.496991 
L 101.524767 216.579532 
L 103.521904 231.12356 
L 105.519041 248.682641 
L 107.516178 268.773394 
L 115.504724 354.03083 
L 117.501861 372.552286 
L 119.498998 389.062328 
L 121.496135 86.799546 
L 123.493271 87.54771 
L 129.484681 89.386294 
L 131.481818 90.546241 
L 133.478955 92.696418 
L 135.476092 65.984208 
L 137.473228 64.423227 
L 145.461775 64.618175 
L 147.458912 64.755476 
L 149.456049 64.35664 
L 157.444596 64.322376 
L 335.189764 64.378122 
L 337.186901 64.543275 
L 339.184037 65.11242 
L 341.181174 66.729116 
L 343.178311 70.960263 
L 345.175447 78.726977 
L 347.172584 91.056775 
L 349.169721 108.581221 
L 351.166858 131.654789 
L 353.163994 160.164078 
L 359.155404 261.626999 
L 361.152541 290.390155 
L 365.146815 332.084213 
L 367.143951 360.021476 
L 369.141088 383.97152 
L 371.138225 402.764878 
L 373.135361 414.802185 
L 379.126772 432.844971 
L 381.123908 437.561179 
L 383.121045 441.502413 
L 385.118182 444.524324 
L 387.115319 446.818254 
L 389.112455 447.685299 
L 393.106729 448.456197 
L 397.101002 448.53795 
L 435.0466 448.56 
L 435.0466 448.56 
" clip-path="url(#pe6c05fd931)" style="fill: none; stroke: #000000; stroke-width: 2; stroke-linecap: square"/>
   </g>
   <g id="patch_182">
    <path d="M 63 448.56 
L 63 60.48 
" style="fill: none; stroke: #000000; stroke-width: 0.8; stroke-linejoin: miter; stroke-linecap: square"/>
   </g>
   <g id="patch_183">
    <path d="M 63 448.56 
L 453.6 448.56 
" style="fill: none; stroke: #000000; stroke-width: 0.8; stroke-linejoin: miter; stroke-linecap: square"/>
   </g>
   <g id="legend_1">
    <g id="patch_184">
     <path d="M 184.540781 441.56 
L 332.059219 441.56 
Q 334.859219 441.56 334.859219 438.76 
L 334.859219 379.743438 
Q 334.859219 376.943438 332.059219 376.943438 
L 184.540781 376.943438 
Q 181.740781 376.943438 181.740781 379.743438 
L 181.740781 438.76 
Q 181.740781 441.56 184.540781 441.56 
z
" style="fill: #ffffff; opacity: 0.8; stroke: #cccccc; stroke-linejoin: miter"/>
    </g>
    <g id="line2d_22">
     <path d="M 187.340781 387.83582 
L 201.340781 387.83582 
L 215.340781 387.83582 
" style="fill: none; stroke: #000000; stroke-width: 2; stroke-linecap: square"/>
    </g>
    <g id="text_22">
     <text style="font-size: 14px; font-family: 'Arial', sans-serif; text-anchor: start" x="226.540781" y="392.73582" transform="rotate(-0 226.540781 392.73582)">True</text>
    </g>
    <g id="line2d_23">
     <path d="M 187.340781 407.974492 
L 201.340781 407.974492 
L 215.340781 407.974492 
" style="fill: none; stroke: #0173b2; stroke-width: 2; stroke-linecap: square"/>
    </g>
    <g id="text_23">
     <text style="font-size: 14px; font-family: 'Arial', sans-serif; text-anchor: start" x="226.540781" y="412.874492" transform="rotate(-0 226.540781 412.874492)">Suitability-based</text>
    </g>
    <g id="line2d_24">
     <path d="M 187.340781 428.113438 
L 201.340781 428.113438 
L 215.340781 428.113438 
" style="fill: none; stroke: #de8f05; stroke-width: 2; stroke-linecap: square"/>
    </g>
    <g id="text_24">
     <text style="font-size: 14px; font-family: 'Arial', sans-serif; text-anchor: start" x="226.540781" y="433.013438" transform="rotate(-0 226.540781 433.013438)">Autoregressive</text>
    </g>
   </g>
  </g>
 </g>
 <defs>
  <clipPath id="pe6c05fd931">
   <rect x="63" y="60.48" width="390.6" height="388.08"/>
  </clipPath>
 </defs>
</svg>
