<?xml version="1.0" encoding="utf-8" standalone="no"?>
<!DOCTYPE svg PUBLIC "-//W3C//DTD SVG 1.1//EN"
  "http://www.w3.org/Graphics/SVG/1.1/DTD/svg11.dtd">
<svg xmlns:xlink="http://www.w3.org/1999/xlink" width="504pt" height="504pt" viewBox="0 0 504 504" xmlns="http://www.w3.org/2000/svg" version="1.1">
 <metadata>
  <rdf:RDF xmlns:dc="http://purl.org/dc/elements/1.1/" xmlns:cc="http://creativecommons.org/ns#" xmlns:rdf="http://www.w3.org/1999/02/22-rdf-syntax-ns#">
   <cc:Work>
    <dc:type rdf:resource="http://purl.org/dc/dcmitype/StillImage"/>
    <dc:date>2026-07-17T10:21:28.643842</dc:date>
    <dc:format>image/svg+xml</dc:format>
    <dc:creator>
     <cc:Agent>
      <dc:title>Matplotlib v3.11.0, https://matplotlib.org/</dc:title>
     </cc:Agent>
    </dc:creator>
   </cc:Work>
  </rdf:RDF>
 </metadata>
 <defs>
  <style type="text/css">*{stroke-linejoin: round; stroke-linecap: butt}</style>
 </defs>
 <g id="figure_1">
  <g id="patch_1">
   <path d="M 0 504 
L 504 504 
L 504 0 
L 0 0 
L 0 504 
z
" style="fill: none"/>
  </g>
  <g id="axes_1">
   <g id="patch_2">
    <path d="M 63 448.56 
L 453.6 448.56 
L 453.6 60.48 
L 63 60.48 
L 63 448.56 
z
" style="fill: none"/>
   </g>
   <g id="matplotlib.axis_1">
    <g id="ytick_1">
     <g id="line2d_1">
      <defs>
       <path id="mf9d4a585d7" d="M 0 0 
L 3.5 0 
" style="stroke: #7f7f7f; stroke-width: 0.8"/>
      </defs>
      <g>
       <use xlink:href="#mf9d4a585d7" x="453.6" y="448.56" style="fill: #7f7f7f; stroke: #7f7f7f; stroke-width: 0.8"/>
      </g>
     </g>
     <g id="text_1">
      <text style="font-size: 16px; font-family: 'Arial', sans-serif; text-anchor: start; fill: #7f7f7f" x="460.6" y="454.384219" transform="rotate(-0 460.6 454.384219)">0</text>
     </g>
    </g>
    <g id="ytick_2">
     <g id="line2d_2">
      <g>
       <use xlink:href="#mf9d4a585d7" x="453.6" y="364.194783" style="fill: #7f7f7f; stroke: #7f7f7f; stroke-width: 0.8"/>
      </g>
     </g>
     <g id="text_2">
      <text style="font-size: 16px; font-family: 'Arial', sans-serif; text-anchor: start; fill: #7f7f7f" x="460.6" y="370.019001" transform="rotate(-0 460.6 370.019001)">5</text>
     </g>
    </g>
    <g id="ytick_3">
     <g id="line2d_3">
      <g>
       <use xlink:href="#mf9d4a585d7" x="453.6" y="279.829565" style="fill: #7f7f7f; stroke: #7f7f7f; stroke-width: 0.8"/>
      </g>
     </g>
     <g id="text_3">
      <text style="font-size: 16px; font-family: 'Arial', sans-serif; text-anchor: start; fill: #7f7f7f" x="460.6" y="285.653784" transform="rotate(-0 460.6 285.653784)">10</text>
     </g>
    </g>
    <g id="ytick_4">
     <g id="line2d_4">
      <g>
       <use xlink:href="#mf9d4a585d7" x="453.6" y="195.464348" style="fill: #7f7f7f; stroke: #7f7f7f; stroke-width: 0.8"/>
      </g>
     </g>
     <g id="text_4">
      <text style="font-size: 16px; font-family: 'Arial', sans-serif; text-anchor: start; fill: #7f7f7f" x="460.6" y="201.288567" transform="rotate(-0 460.6 201.288567)">15</text>
     </g>
    </g>
    <g id="ytick_5">
     <g id="line2d_5">
      <g>
       <use xlink:href="#mf9d4a585d7" x="453.6" y="111.09913" style="fill: #7f7f7f; stroke: #7f7f7f; stroke-width: 0.8"/>
      </g>
     </g>
     <g id="text_5">
      <text style="font-size: 16px; font-family: 'Arial', sans-serif; text-anchor: start; fill: #7f7f7f" x="460.6" y="116.923349" transform="rotate(-0 460.6 116.923349)">20</text>
     </g>
    </g>
    <g id="text_6">
     <text style="font-size: 16px; font-family: 'Arial', sans-serif; text-anchor: middle; fill: #7f7f7f" x="494.043438" y="254.52" transform="rotate(-90 494.043438 254.52)">Number of cases</text>
    </g>
   </g>
   <g id="patch_3">
    <path d="M 80.754545 448.56 
L 82.352255 448.56 
L 82.352255 431.686957 
L 80.754545 431.686957 
z
" clip-path="url(#pfcd81b4d8c)" style="fill: #7f7f7f; opacity: 0.5"/>
   </g>
   <g id="patch_4">
    <path d="M 82.751682 448.56 
L 84.349392 448.56 
L 84.349392 448.56 
L 82.751682 448.56 
z
" clip-path="url(#pfcd81b4d8c)" style="fill: #7f7f7f; opacity: 0.5"/>
   </g>
   <g id="patch_5">
    <path d="M 84.748819 448.56 
L 86.346528 448.56 
L 86.346528 448.56 
L 84.748819 448.56 
z
" clip-path="url(#pfcd81b4d8c)" style="fill: #7f7f7f; opacity: 0.5"/>
   </g>
   <g id="patch_6">
    <path d="M 86.745956 448.56 
L 88.343665 448.56 
L 88.343665 448.56 
L 86.745956 448.56 
z
" clip-path="url(#pfcd81b4d8c)" style="fill: #7f7f7f; opacity: 0.5"/>
   </g>
   <g id="patch_7">
    <path d="M 88.743092 448.56 
L 90.340802 448.56 
L 90.340802 448.56 
L 88.743092 448.56 
z
" clip-path="url(#pfcd81b4d8c)" style="fill: #7f7f7f; opacity: 0.5"/>
   </g>
   <g id="patch_8">
    <path d="M 90.740229 448.56 
L 92.337938 448.56 
L 92.337938 448.56 
L 90.740229 448.56 
z
" clip-path="url(#pfcd81b4d8c)" style="fill: #7f7f7f; opacity: 0.5"/>
   </g>
   <g id="patch_9">
    <path d="M 92.737366 448.56 
L 94.335075 448.56 
L 94.335075 448.56 
L 92.737366 448.56 
z
" clip-path="url(#pfcd81b4d8c)" style="fill: #7f7f7f; opacity: 0.5"/>
   </g>
   <g id="patch_10">
    <path d="M 94.734503 448.56 
L 96.332212 448.56 
L 96.332212 448.56 
L 94.734503 448.56 
z
" clip-path="url(#pfcd81b4d8c)" style="fill: #7f7f7f; opacity: 0.5"/>
   </g>
   <g id="patch_11">
    <path d="M 96.731639 448.56 
L 98.329349 448.56 
L 98.329349 448.56 
L 96.731639 448.56 
z
" clip-path="url(#pfcd81b4d8c)" style="fill: #7f7f7f; opacity: 0.5"/>
   </g>
   <g id="patch_12">
    <path d="M 98.728776 448.56 
L 100.326485 448.56 
L 100.326485 448.56 
L 98.728776 448.56 
z
" clip-path="url(#pfcd81b4d8c)" style="fill: #7f7f7f; opacity: 0.5"/>
   </g>
   <g id="patch_13">
    <path d="M 100.725913 448.56 
L 102.323622 448.56 
L 102.323622 448.56 
L 100.725913 448.56 
z
" clip-path="url(#pfcd81b4d8c)" style="fill: #7f7f7f; opacity: 0.5"/>
   </g>
   <g id="patch_14">
    <path d="M 102.723049 448.56 
L 104.320759 448.56 
L 104.320759 448.56 
L 102.723049 448.56 
z
" clip-path="url(#pfcd81b4d8c)" style="fill: #7f7f7f; opacity: 0.5"/>
   </g>
   <g id="patch_15">
    <path d="M 104.720186 448.56 
L 106.317895 448.56 
L 106.317895 448.56 
L 104.720186 448.56 
z
" clip-path="url(#pfcd81b4d8c)" style="fill: #7f7f7f; opacity: 0.5"/>
   </g>
   <g id="patch_16">
    <path d="M 106.717323 448.56 
L 108.315032 448.56 
L 108.315032 448.56 
L 106.717323 448.56 
z
" clip-path="url(#pfcd81b4d8c)" style="fill: #7f7f7f; opacity: 0.5"/>
   </g>
   <g id="patch_17">
    <path d="M 108.71446 448.56 
L 110.312169 448.56 
L 110.312169 448.56 
L 108.71446 448.56 
z
" clip-path="url(#pfcd81b4d8c)" style="fill: #7f7f7f; opacity: 0.5"/>
   </g>
   <g id="patch_18">
    <path d="M 110.711596 448.56 
L 112.309306 448.56 
L 112.309306 448.56 
L 110.711596 448.56 
z
" clip-path="url(#pfcd81b4d8c)" style="fill: #7f7f7f; opacity: 0.5"/>
   </g>
   <g id="patch_19">
    <path d="M 112.708733 448.56 
L 114.306442 448.56 
L 114.306442 448.56 
L 112.708733 448.56 
z
" clip-path="url(#pfcd81b4d8c)" style="fill: #7f7f7f; opacity: 0.5"/>
   </g>
   <g id="patch_20">
    <path d="M 114.70587 448.56 
L 116.303579 448.56 
L 116.303579 448.56 
L 114.70587 448.56 
z
" clip-path="url(#pfcd81b4d8c)" style="fill: #7f7f7f; opacity: 0.5"/>
   </g>
   <g id="patch_21">
    <path d="M 116.703006 448.56 
L 118.300716 448.56 
L 118.300716 448.56 
L 116.703006 448.56 
z
" clip-path="url(#pfcd81b4d8c)" style="fill: #7f7f7f; opacity: 0.5"/>
   </g>
   <g id="patch_22">
    <path d="M 118.700143 448.56 
L 120.297853 448.56 
L 120.297853 431.686957 
L 118.700143 431.686957 
z
" clip-path="url(#pfcd81b4d8c)" style="fill: #7f7f7f; opacity: 0.5"/>
   </g>
   <g id="patch_23">
    <path d="M 120.69728 448.56 
L 122.294989 448.56 
L 122.294989 448.56 
L 120.69728 448.56 
z
" clip-path="url(#pfcd81b4d8c)" style="fill: #7f7f7f; opacity: 0.5"/>
   </g>
   <g id="patch_24">
    <path d="M 122.694417 448.56 
L 124.292126 448.56 
L 124.292126 448.56 
L 122.694417 448.56 
z
" clip-path="url(#pfcd81b4d8c)" style="fill: #7f7f7f; opacity: 0.5"/>
   </g>
   <g id="patch_25">
    <path d="M 124.691553 448.56 
L 126.289263 448.56 
L 126.289263 448.56 
L 124.691553 448.56 
z
" clip-path="url(#pfcd81b4d8c)" style="fill: #7f7f7f; opacity: 0.5"/>
   </g>
   <g id="patch_26">
    <path d="M 126.68869 448.56 
L 128.286399 448.56 
L 128.286399 448.56 
L 126.68869 448.56 
z
" clip-path="url(#pfcd81b4d8c)" style="fill: #7f7f7f; opacity: 0.5"/>
   </g>
   <g id="patch_27">
    <path d="M 128.685827 448.56 
L 130.283536 448.56 
L 130.283536 448.56 
L 128.685827 448.56 
z
" clip-path="url(#pfcd81b4d8c)" style="fill: #7f7f7f; opacity: 0.5"/>
   </g>
   <g id="patch_28">
    <path d="M 130.682963 448.56 
L 132.280673 448.56 
L 132.280673 448.56 
L 130.682963 448.56 
z
" clip-path="url(#pfcd81b4d8c)" style="fill: #7f7f7f; opacity: 0.5"/>
   </g>
   <g id="patch_29">
    <path d="M 132.6801 448.56 
L 134.27781 448.56 
L 134.27781 431.686957 
L 132.6801 431.686957 
z
" clip-path="url(#pfcd81b4d8c)" style="fill: #7f7f7f; opacity: 0.5"/>
   </g>
   <g id="patch_30">
    <path d="M 134.677237 448.56 
L 136.274946 448.56 
L 136.274946 431.686957 
L 134.677237 431.686957 
z
" clip-path="url(#pfcd81b4d8c)" style="fill: #7f7f7f; opacity: 0.5"/>
   </g>
   <g id="patch_31">
    <path d="M 136.674374 448.56 
L 138.272083 448.56 
L 138.272083 448.56 
L 136.674374 448.56 
z
" clip-path="url(#pfcd81b4d8c)" style="fill: #7f7f7f; opacity: 0.5"/>
   </g>
   <g id="patch_32">
    <path d="M 138.67151 448.56 
L 140.26922 448.56 
L 140.26922 448.56 
L 138.67151 448.56 
z
" clip-path="url(#pfcd81b4d8c)" style="fill: #7f7f7f; opacity: 0.5"/>
   </g>
   <g id="patch_33">
    <path d="M 140.668647 448.56 
L 142.266356 448.56 
L 142.266356 448.56 
L 140.668647 448.56 
z
" clip-path="url(#pfcd81b4d8c)" style="fill: #7f7f7f; opacity: 0.5"/>
   </g>
   <g id="patch_34">
    <path d="M 142.665784 448.56 
L 144.263493 448.56 
L 144.263493 448.56 
L 142.665784 448.56 
z
" clip-path="url(#pfcd81b4d8c)" style="fill: #7f7f7f; opacity: 0.5"/>
   </g>
   <g id="patch_35">
    <path d="M 144.662921 448.56 
L 146.26063 448.56 
L 146.26063 448.56 
L 144.662921 448.56 
z
" clip-path="url(#pfcd81b4d8c)" style="fill: #7f7f7f; opacity: 0.5"/>
   </g>
   <g id="patch_36">
    <path d="M 146.660057 448.56 
L 148.257767 448.56 
L 148.257767 431.686957 
L 146.660057 431.686957 
z
" clip-path="url(#pfcd81b4d8c)" style="fill: #7f7f7f; opacity: 0.5"/>
   </g>
   <g id="patch_37">
    <path d="M 148.657194 448.56 
L 150.254903 448.56 
L 150.254903 431.686957 
L 148.657194 431.686957 
z
" clip-path="url(#pfcd81b4d8c)" style="fill: #7f7f7f; opacity: 0.5"/>
   </g>
   <g id="patch_38">
    <path d="M 150.654331 448.56 
L 152.25204 448.56 
L 152.25204 431.686957 
L 150.654331 431.686957 
z
" clip-path="url(#pfcd81b4d8c)" style="fill: #7f7f7f; opacity: 0.5"/>
   </g>
   <g id="patch_39">
    <path d="M 152.651467 448.56 
L 154.249177 448.56 
L 154.249177 431.686957 
L 152.651467 431.686957 
z
" clip-path="url(#pfcd81b4d8c)" style="fill: #7f7f7f; opacity: 0.5"/>
   </g>
   <g id="patch_40">
    <path d="M 154.648604 448.56 
L 156.246314 448.56 
L 156.246314 414.813913 
L 154.648604 414.813913 
z
" clip-path="url(#pfcd81b4d8c)" style="fill: #7f7f7f; opacity: 0.5"/>
   </g>
   <g id="patch_41">
    <path d="M 156.645741 448.56 
L 158.24345 448.56 
L 158.24345 431.686957 
L 156.645741 431.686957 
z
" clip-path="url(#pfcd81b4d8c)" style="fill: #7f7f7f; opacity: 0.5"/>
   </g>
   <g id="patch_42">
    <path d="M 158.642878 448.56 
L 160.240587 448.56 
L 160.240587 431.686957 
L 158.642878 431.686957 
z
" clip-path="url(#pfcd81b4d8c)" style="fill: #7f7f7f; opacity: 0.5"/>
   </g>
   <g id="patch_43">
    <path d="M 160.640014 448.56 
L 162.237724 448.56 
L 162.237724 431.686957 
L 160.640014 431.686957 
z
" clip-path="url(#pfcd81b4d8c)" style="fill: #7f7f7f; opacity: 0.5"/>
   </g>
   <g id="patch_44">
    <path d="M 162.637151 448.56 
L 164.23486 448.56 
L 164.23486 448.56 
L 162.637151 448.56 
z
" clip-path="url(#pfcd81b4d8c)" style="fill: #7f7f7f; opacity: 0.5"/>
   </g>
   <g id="patch_45">
    <path d="M 164.634288 448.56 
L 166.231997 448.56 
L 166.231997 448.56 
L 164.634288 448.56 
z
" clip-path="url(#pfcd81b4d8c)" style="fill: #7f7f7f; opacity: 0.5"/>
   </g>
   <g id="patch_46">
    <path d="M 166.631424 448.56 
L 168.229134 448.56 
L 168.229134 448.56 
L 166.631424 448.56 
z
" clip-path="url(#pfcd81b4d8c)" style="fill: #7f7f7f; opacity: 0.5"/>
   </g>
   <g id="patch_47">
    <path d="M 168.628561 448.56 
L 170.226271 448.56 
L 170.226271 364.194783 
L 168.628561 364.194783 
z
" clip-path="url(#pfcd81b4d8c)" style="fill: #7f7f7f; opacity: 0.5"/>
   </g>
   <g id="patch_48">
    <path d="M 170.625698 448.56 
L 172.223407 448.56 
L 172.223407 397.94087 
L 170.625698 397.94087 
z
" clip-path="url(#pfcd81b4d8c)" style="fill: #7f7f7f; opacity: 0.5"/>
   </g>
   <g id="patch_49">
    <path d="M 172.622835 448.56 
L 174.220544 448.56 
L 174.220544 414.813913 
L 172.622835 414.813913 
z
" clip-path="url(#pfcd81b4d8c)" style="fill: #7f7f7f; opacity: 0.5"/>
   </g>
   <g id="patch_50">
    <path d="M 174.619971 448.56 
L 176.217681 448.56 
L 176.217681 397.94087 
L 174.619971 397.94087 
z
" clip-path="url(#pfcd81b4d8c)" style="fill: #7f7f7f; opacity: 0.5"/>
   </g>
   <g id="patch_51">
    <path d="M 176.617108 448.56 
L 178.214817 448.56 
L 178.214817 431.686957 
L 176.617108 431.686957 
z
" clip-path="url(#pfcd81b4d8c)" style="fill: #7f7f7f; opacity: 0.5"/>
   </g>
   <g id="patch_52">
    <path d="M 178.614245 448.56 
L 180.211954 448.56 
L 180.211954 414.813913 
L 178.614245 414.813913 
z
" clip-path="url(#pfcd81b4d8c)" style="fill: #7f7f7f; opacity: 0.5"/>
   </g>
   <g id="patch_53">
    <path d="M 180.611382 448.56 
L 182.209091 448.56 
L 182.209091 431.686957 
L 180.611382 431.686957 
z
" clip-path="url(#pfcd81b4d8c)" style="fill: #7f7f7f; opacity: 0.5"/>
   </g>
   <g id="patch_54">
    <path d="M 182.608518 448.56 
L 184.206228 448.56 
L 184.206228 448.56 
L 182.608518 448.56 
z
" clip-path="url(#pfcd81b4d8c)" style="fill: #7f7f7f; opacity: 0.5"/>
   </g>
   <g id="patch_55">
    <path d="M 184.605655 448.56 
L 186.203364 448.56 
L 186.203364 381.067826 
L 184.605655 381.067826 
z
" clip-path="url(#pfcd81b4d8c)" style="fill: #7f7f7f; opacity: 0.5"/>
   </g>
   <g id="patch_56">
    <path d="M 186.602792 448.56 
L 188.200501 448.56 
L 188.200501 381.067826 
L 186.602792 381.067826 
z
" clip-path="url(#pfcd81b4d8c)" style="fill: #7f7f7f; opacity: 0.5"/>
   </g>
   <g id="patch_57">
    <path d="M 188.599928 448.56 
L 190.197638 448.56 
L 190.197638 347.321739 
L 188.599928 347.321739 
z
" clip-path="url(#pfcd81b4d8c)" style="fill: #7f7f7f; opacity: 0.5"/>
   </g>
   <g id="patch_58">
    <path d="M 190.597065 448.56 
L 192.194775 448.56 
L 192.194775 414.813913 
L 190.597065 414.813913 
z
" clip-path="url(#pfcd81b4d8c)" style="fill: #7f7f7f; opacity: 0.5"/>
   </g>
   <g id="patch_59">
    <path d="M 192.594202 448.56 
L 194.191911 448.56 
L 194.191911 414.813913 
L 192.594202 414.813913 
z
" clip-path="url(#pfcd81b4d8c)" style="fill: #7f7f7f; opacity: 0.5"/>
   </g>
   <g id="patch_60">
    <path d="M 194.591339 448.56 
L 196.189048 448.56 
L 196.189048 381.067826 
L 194.591339 381.067826 
z
" clip-path="url(#pfcd81b4d8c)" style="fill: #7f7f7f; opacity: 0.5"/>
   </g>
   <g id="patch_61">
    <path d="M 196.588475 448.56 
L 198.186185 448.56 
L 198.186185 381.067826 
L 196.588475 381.067826 
z
" clip-path="url(#pfcd81b4d8c)" style="fill: #7f7f7f; opacity: 0.5"/>
   </g>
   <g id="patch_62">
    <path d="M 198.585612 448.56 
L 200.183321 448.56 
L 200.183321 397.94087 
L 198.585612 397.94087 
z
" clip-path="url(#pfcd81b4d8c)" style="fill: #7f7f7f; opacity: 0.5"/>
   </g>
   <g id="patch_63">
    <path d="M 200.582749 448.56 
L 202.180458 448.56 
L 202.180458 364.194783 
L 200.582749 364.194783 
z
" clip-path="url(#pfcd81b4d8c)" style="fill: #7f7f7f; opacity: 0.5"/>
   </g>
   <g id="patch_64">
    <path d="M 202.579885 448.56 
L 204.177595 448.56 
L 204.177595 347.321739 
L 202.579885 347.321739 
z
" clip-path="url(#pfcd81b4d8c)" style="fill: #7f7f7f; opacity: 0.5"/>
   </g>
   <g id="patch_65">
    <path d="M 204.577022 448.56 
L 206.174732 448.56 
L 206.174732 347.321739 
L 204.577022 347.321739 
z
" clip-path="url(#pfcd81b4d8c)" style="fill: #7f7f7f; opacity: 0.5"/>
   </g>
   <g id="patch_66">
    <path d="M 206.574159 448.56 
L 208.171868 448.56 
L 208.171868 347.321739 
L 206.574159 347.321739 
z
" clip-path="url(#pfcd81b4d8c)" style="fill: #7f7f7f; opacity: 0.5"/>
   </g>
   <g id="patch_67">
    <path d="M 208.571296 448.56 
L 210.169005 448.56 
L 210.169005 347.321739 
L 208.571296 347.321739 
z
" clip-path="url(#pfcd81b4d8c)" style="fill: #7f7f7f; opacity: 0.5"/>
   </g>
   <g id="patch_68">
    <path d="M 210.568432 448.56 
L 212.166142 448.56 
L 212.166142 330.448696 
L 210.568432 330.448696 
z
" clip-path="url(#pfcd81b4d8c)" style="fill: #7f7f7f; opacity: 0.5"/>
   </g>
   <g id="patch_69">
    <path d="M 212.565569 448.56 
L 214.163278 448.56 
L 214.163278 330.448696 
L 212.565569 330.448696 
z
" clip-path="url(#pfcd81b4d8c)" style="fill: #7f7f7f; opacity: 0.5"/>
   </g>
   <g id="patch_70">
    <path d="M 214.562706 448.56 
L 216.160415 448.56 
L 216.160415 212.337391 
L 214.562706 212.337391 
z
" clip-path="url(#pfcd81b4d8c)" style="fill: #7f7f7f; opacity: 0.5"/>
   </g>
   <g id="patch_71">
    <path d="M 216.559843 448.56 
L 218.157552 448.56 
L 218.157552 347.321739 
L 216.559843 347.321739 
z
" clip-path="url(#pfcd81b4d8c)" style="fill: #7f7f7f; opacity: 0.5"/>
   </g>
   <g id="patch_72">
    <path d="M 218.556979 448.56 
L 220.154689 448.56 
L 220.154689 279.829565 
L 218.556979 279.829565 
z
" clip-path="url(#pfcd81b4d8c)" style="fill: #7f7f7f; opacity: 0.5"/>
   </g>
   <g id="patch_73">
    <path d="M 220.554116 448.56 
L 222.151825 448.56 
L 222.151825 229.210435 
L 220.554116 229.210435 
z
" clip-path="url(#pfcd81b4d8c)" style="fill: #7f7f7f; opacity: 0.5"/>
   </g>
   <g id="patch_74">
    <path d="M 222.551253 448.56 
L 224.148962 448.56 
L 224.148962 229.210435 
L 222.551253 229.210435 
z
" clip-path="url(#pfcd81b4d8c)" style="fill: #7f7f7f; opacity: 0.5"/>
   </g>
   <g id="patch_75">
    <path d="M 224.548389 448.56 
L 226.146099 448.56 
L 226.146099 330.448696 
L 224.548389 330.448696 
z
" clip-path="url(#pfcd81b4d8c)" style="fill: #7f7f7f; opacity: 0.5"/>
   </g>
   <g id="patch_76">
    <path d="M 226.545526 448.56 
L 228.143236 448.56 
L 228.143236 178.591304 
L 226.545526 178.591304 
z
" clip-path="url(#pfcd81b4d8c)" style="fill: #7f7f7f; opacity: 0.5"/>
   </g>
   <g id="patch_77">
    <path d="M 228.542663 448.56 
L 230.140372 448.56 
L 230.140372 195.464348 
L 228.542663 195.464348 
z
" clip-path="url(#pfcd81b4d8c)" style="fill: #7f7f7f; opacity: 0.5"/>
   </g>
   <g id="patch_78">
    <path d="M 230.5398 448.56 
L 232.137509 448.56 
L 232.137509 144.845217 
L 230.5398 144.845217 
z
" clip-path="url(#pfcd81b4d8c)" style="fill: #7f7f7f; opacity: 0.5"/>
   </g>
   <g id="patch_79">
    <path d="M 232.536936 448.56 
L 234.134646 448.56 
L 234.134646 178.591304 
L 232.536936 178.591304 
z
" clip-path="url(#pfcd81b4d8c)" style="fill: #7f7f7f; opacity: 0.5"/>
   </g>
   <g id="patch_80">
    <path d="M 234.534073 448.56 
L 236.131782 448.56 
L 236.131782 60.48 
L 234.534073 60.48 
z
" clip-path="url(#pfcd81b4d8c)" style="fill: #7f7f7f; opacity: 0.5"/>
   </g>
   <g id="patch_81">
    <path d="M 236.53121 448.56 
L 238.128919 448.56 
L 238.128919 178.591304 
L 236.53121 178.591304 
z
" clip-path="url(#pfcd81b4d8c)" style="fill: #7f7f7f; opacity: 0.5"/>
   </g>
   <g id="patch_82">
    <path d="M 238.528346 448.56 
L 240.126056 448.56 
L 240.126056 144.845217 
L 238.528346 144.845217 
z
" clip-path="url(#pfcd81b4d8c)" style="fill: #7f7f7f; opacity: 0.5"/>
   </g>
   <g id="patch_83">
    <path d="M 240.525483 448.56 
L 242.123193 448.56 
L 242.123193 296.702609 
L 240.525483 296.702609 
z
" clip-path="url(#pfcd81b4d8c)" style="fill: #7f7f7f; opacity: 0.5"/>
   </g>
   <g id="patch_84">
    <path d="M 242.52262 448.56 
L 244.120329 448.56 
L 244.120329 296.702609 
L 242.52262 296.702609 
z
" clip-path="url(#pfcd81b4d8c)" style="fill: #7f7f7f; opacity: 0.5"/>
   </g>
   <g id="patch_85">
    <path d="M 244.519757 448.56 
L 246.117466 448.56 
L 246.117466 279.829565 
L 244.519757 279.829565 
z
" clip-path="url(#pfcd81b4d8c)" style="fill: #7f7f7f; opacity: 0.5"/>
   </g>
   <g id="patch_86">
    <path d="M 246.516893 448.56 
L 248.114603 448.56 
L 248.114603 313.575652 
L 246.516893 313.575652 
z
" clip-path="url(#pfcd81b4d8c)" style="fill: #7f7f7f; opacity: 0.5"/>
   </g>
   <g id="patch_87">
    <path d="M 248.51403 448.56 
L 250.111739 448.56 
L 250.111739 229.210435 
L 248.51403 229.210435 
z
" clip-path="url(#pfcd81b4d8c)" style="fill: #7f7f7f; opacity: 0.5"/>
   </g>
   <g id="patch_88">
    <path d="M 250.511167 448.56 
L 252.108876 448.56 
L 252.108876 313.575652 
L 250.511167 313.575652 
z
" clip-path="url(#pfcd81b4d8c)" style="fill: #7f7f7f; opacity: 0.5"/>
   </g>
   <g id="patch_89">
    <path d="M 252.508304 448.56 
L 254.106013 448.56 
L 254.106013 127.972174 
L 252.508304 127.972174 
z
" clip-path="url(#pfcd81b4d8c)" style="fill: #7f7f7f; opacity: 0.5"/>
   </g>
   <g id="patch_90">
    <path d="M 254.50544 448.56 
L 256.10315 448.56 
L 256.10315 195.464348 
L 254.50544 195.464348 
z
" clip-path="url(#pfcd81b4d8c)" style="fill: #7f7f7f; opacity: 0.5"/>
   </g>
   <g id="patch_91">
    <path d="M 256.502577 448.56 
L 258.100286 448.56 
L 258.100286 296.702609 
L 256.502577 296.702609 
z
" clip-path="url(#pfcd81b4d8c)" style="fill: #7f7f7f; opacity: 0.5"/>
   </g>
   <g id="patch_92">
    <path d="M 258.499714 448.56 
L 260.097423 448.56 
L 260.097423 229.210435 
L 258.499714 229.210435 
z
" clip-path="url(#pfcd81b4d8c)" style="fill: #7f7f7f; opacity: 0.5"/>
   </g>
   <g id="patch_93">
    <path d="M 260.49685 448.56 
L 262.09456 448.56 
L 262.09456 144.845217 
L 260.49685 144.845217 
z
" clip-path="url(#pfcd81b4d8c)" style="fill: #7f7f7f; opacity: 0.5"/>
   </g>
   <g id="patch_94">
    <path d="M 262.493987 448.56 
L 264.091696 448.56 
L 264.091696 347.321739 
L 262.493987 347.321739 
z
" clip-path="url(#pfcd81b4d8c)" style="fill: #7f7f7f; opacity: 0.5"/>
   </g>
   <g id="patch_95">
    <path d="M 264.491124 448.56 
L 266.088833 448.56 
L 266.088833 60.48 
L 264.491124 60.48 
z
" clip-path="url(#pfcd81b4d8c)" style="fill: #7f7f7f; opacity: 0.5"/>
   </g>
   <g id="patch_96">
    <path d="M 266.488261 448.56 
L 268.08597 448.56 
L 268.08597 161.718261 
L 266.488261 161.718261 
z
" clip-path="url(#pfcd81b4d8c)" style="fill: #7f7f7f; opacity: 0.5"/>
   </g>
   <g id="patch_97">
    <path d="M 268.485397 448.56 
L 270.083107 448.56 
L 270.083107 144.845217 
L 268.485397 144.845217 
z
" clip-path="url(#pfcd81b4d8c)" style="fill: #7f7f7f; opacity: 0.5"/>
   </g>
   <g id="patch_98">
    <path d="M 270.482534 448.56 
L 272.080243 448.56 
L 272.080243 279.829565 
L 270.482534 279.829565 
z
" clip-path="url(#pfcd81b4d8c)" style="fill: #7f7f7f; opacity: 0.5"/>
   </g>
   <g id="patch_99">
    <path d="M 272.479671 448.56 
L 274.07738 448.56 
L 274.07738 246.083478 
L 272.479671 246.083478 
z
" clip-path="url(#pfcd81b4d8c)" style="fill: #7f7f7f; opacity: 0.5"/>
   </g>
   <g id="patch_100">
    <path d="M 274.476807 448.56 
L 276.074517 448.56 
L 276.074517 161.718261 
L 274.476807 161.718261 
z
" clip-path="url(#pfcd81b4d8c)" style="fill: #7f7f7f; opacity: 0.5"/>
   </g>
   <g id="patch_101">
    <path d="M 276.473944 448.56 
L 278.071654 448.56 
L 278.071654 144.845217 
L 276.473944 144.845217 
z
" clip-path="url(#pfcd81b4d8c)" style="fill: #7f7f7f; opacity: 0.5"/>
   </g>
   <g id="patch_102">
    <path d="M 278.471081 448.56 
L 280.06879 448.56 
L 280.06879 296.702609 
L 278.471081 296.702609 
z
" clip-path="url(#pfcd81b4d8c)" style="fill: #7f7f7f; opacity: 0.5"/>
   </g>
   <g id="patch_103">
    <path d="M 280.468218 448.56 
L 282.065927 448.56 
L 282.065927 262.956522 
L 280.468218 262.956522 
z
" clip-path="url(#pfcd81b4d8c)" style="fill: #7f7f7f; opacity: 0.5"/>
   </g>
   <g id="patch_104">
    <path d="M 282.465354 448.56 
L 284.063064 448.56 
L 284.063064 279.829565 
L 282.465354 279.829565 
z
" clip-path="url(#pfcd81b4d8c)" style="fill: #7f7f7f; opacity: 0.5"/>
   </g>
   <g id="patch_105">
    <path d="M 284.462491 448.56 
L 286.0602 448.56 
L 286.0602 246.083478 
L 284.462491 246.083478 
z
" clip-path="url(#pfcd81b4d8c)" style="fill: #7f7f7f; opacity: 0.5"/>
   </g>
   <g id="patch_106">
    <path d="M 286.459628 448.56 
L 288.057337 448.56 
L 288.057337 212.337391 
L 286.459628 212.337391 
z
" clip-path="url(#pfcd81b4d8c)" style="fill: #7f7f7f; opacity: 0.5"/>
   </g>
   <g id="patch_107">
    <path d="M 288.456764 448.56 
L 290.054474 448.56 
L 290.054474 127.972174 
L 288.456764 127.972174 
z
" clip-path="url(#pfcd81b4d8c)" style="fill: #7f7f7f; opacity: 0.5"/>
   </g>
   <g id="patch_108">
    <path d="M 290.453901 448.56 
L 292.051611 448.56 
L 292.051611 246.083478 
L 290.453901 246.083478 
z
" clip-path="url(#pfcd81b4d8c)" style="fill: #7f7f7f; opacity: 0.5"/>
   </g>
   <g id="patch_109">
    <path d="M 292.451038 448.56 
L 294.048747 448.56 
L 294.048747 195.464348 
L 292.451038 195.464348 
z
" clip-path="url(#pfcd81b4d8c)" style="fill: #7f7f7f; opacity: 0.5"/>
   </g>
   <g id="patch_110">
    <path d="M 294.448175 448.56 
L 296.045884 448.56 
L 296.045884 347.321739 
L 294.448175 347.321739 
z
" clip-path="url(#pfcd81b4d8c)" style="fill: #7f7f7f; opacity: 0.5"/>
   </g>
   <g id="patch_111">
    <path d="M 296.445311 448.56 
L 298.043021 448.56 
L 298.043021 330.448696 
L 296.445311 330.448696 
z
" clip-path="url(#pfcd81b4d8c)" style="fill: #7f7f7f; opacity: 0.5"/>
   </g>
   <g id="patch_112">
    <path d="M 298.442448 448.56 
L 300.040157 448.56 
L 300.040157 279.829565 
L 298.442448 279.829565 
z
" clip-path="url(#pfcd81b4d8c)" style="fill: #7f7f7f; opacity: 0.5"/>
   </g>
   <g id="patch_113">
    <path d="M 300.439585 448.56 
L 302.037294 448.56 
L 302.037294 262.956522 
L 300.439585 262.956522 
z
" clip-path="url(#pfcd81b4d8c)" style="fill: #7f7f7f; opacity: 0.5"/>
   </g>
   <g id="patch_114">
    <path d="M 302.436722 448.56 
L 304.034431 448.56 
L 304.034431 296.702609 
L 302.436722 296.702609 
z
" clip-path="url(#pfcd81b4d8c)" style="fill: #7f7f7f; opacity: 0.5"/>
   </g>
   <g id="patch_115">
    <path d="M 304.433858 448.56 
L 306.031568 448.56 
L 306.031568 246.083478 
L 304.433858 246.083478 
z
" clip-path="url(#pfcd81b4d8c)" style="fill: #7f7f7f; opacity: 0.5"/>
   </g>
   <g id="patch_116">
    <path d="M 306.430995 448.56 
L 308.028704 448.56 
L 308.028704 347.321739 
L 306.430995 347.321739 
z
" clip-path="url(#pfcd81b4d8c)" style="fill: #7f7f7f; opacity: 0.5"/>
   </g>
   <g id="patch_117">
    <path d="M 308.428132 448.56 
L 310.025841 448.56 
L 310.025841 330.448696 
L 308.428132 330.448696 
z
" clip-path="url(#pfcd81b4d8c)" style="fill: #7f7f7f; opacity: 0.5"/>
   </g>
   <g id="patch_118">
    <path d="M 310.425268 448.56 
L 312.022978 448.56 
L 312.022978 347.321739 
L 310.425268 347.321739 
z
" clip-path="url(#pfcd81b4d8c)" style="fill: #7f7f7f; opacity: 0.5"/>
   </g>
   <g id="patch_119">
    <path d="M 312.422405 448.56 
L 314.020115 448.56 
L 314.020115 414.813913 
L 312.422405 414.813913 
z
" clip-path="url(#pfcd81b4d8c)" style="fill: #7f7f7f; opacity: 0.5"/>
   </g>
   <g id="patch_120">
    <path d="M 314.419542 448.56 
L 316.017251 448.56 
L 316.017251 347.321739 
L 314.419542 347.321739 
z
" clip-path="url(#pfcd81b4d8c)" style="fill: #7f7f7f; opacity: 0.5"/>
   </g>
   <g id="patch_121">
    <path d="M 316.416679 448.56 
L 318.014388 448.56 
L 318.014388 381.067826 
L 316.416679 381.067826 
z
" clip-path="url(#pfcd81b4d8c)" style="fill: #7f7f7f; opacity: 0.5"/>
   </g>
   <g id="patch_122">
    <path d="M 318.413815 448.56 
L 320.011525 448.56 
L 320.011525 347.321739 
L 318.413815 347.321739 
z
" clip-path="url(#pfcd81b4d8c)" style="fill: #7f7f7f; opacity: 0.5"/>
   </g>
   <g id="patch_123">
    <path d="M 320.410952 448.56 
L 322.008661 448.56 
L 322.008661 364.194783 
L 320.410952 364.194783 
z
" clip-path="url(#pfcd81b4d8c)" style="fill: #7f7f7f; opacity: 0.5"/>
   </g>
   <g id="patch_124">
    <path d="M 322.408089 448.56 
L 324.005798 448.56 
L 324.005798 397.94087 
L 322.408089 397.94087 
z
" clip-path="url(#pfcd81b4d8c)" style="fill: #7f7f7f; opacity: 0.5"/>
   </g>
   <g id="patch_125">
    <path d="M 324.405225 448.56 
L 326.002935 448.56 
L 326.002935 347.321739 
L 324.405225 347.321739 
z
" clip-path="url(#pfcd81b4d8c)" style="fill: #7f7f7f; opacity: 0.5"/>
   </g>
   <g id="patch_126">
    <path d="M 326.402362 448.56 
L 328.000072 448.56 
L 328.000072 397.94087 
L 326.402362 397.94087 
z
" clip-path="url(#pfcd81b4d8c)" style="fill: #7f7f7f; opacity: 0.5"/>
   </g>
   <g id="patch_127">
    <path d="M 328.399499 448.56 
L 329.997208 448.56 
L 329.997208 414.813913 
L 328.399499 414.813913 
z
" clip-path="url(#pfcd81b4d8c)" style="fill: #7f7f7f; opacity: 0.5"/>
   </g>
   <g id="patch_128">
    <path d="M 330.396636 448.56 
L 331.994345 448.56 
L 331.994345 431.686957 
L 330.396636 431.686957 
z
" clip-path="url(#pfcd81b4d8c)" style="fill: #7f7f7f; opacity: 0.5"/>
   </g>
   <g id="patch_129">
    <path d="M 332.393772 448.56 
L 333.991482 448.56 
L 333.991482 431.686957 
L 332.393772 431.686957 
z
" clip-path="url(#pfcd81b4d8c)" style="fill: #7f7f7f; opacity: 0.5"/>
   </g>
   <g id="patch_130">
    <path d="M 334.390909 448.56 
L 335.988618 448.56 
L 335.988618 431.686957 
L 334.390909 431.686957 
z
" clip-path="url(#pfcd81b4d8c)" style="fill: #7f7f7f; opacity: 0.5"/>
   </g>
   <g id="patch_131">
    <path d="M 336.388046 448.56 
L 337.985755 448.56 
L 337.985755 431.686957 
L 336.388046 431.686957 
z
" clip-path="url(#pfcd81b4d8c)" style="fill: #7f7f7f; opacity: 0.5"/>
   </g>
   <g id="patch_132">
    <path d="M 338.385183 448.56 
L 339.982892 448.56 
L 339.982892 431.686957 
L 338.385183 431.686957 
z
" clip-path="url(#pfcd81b4d8c)" style="fill: #7f7f7f; opacity: 0.5"/>
   </g>
   <g id="patch_133">
    <path d="M 340.382319 448.56 
L 341.980029 448.56 
L 341.980029 431.686957 
L 340.382319 431.686957 
z
" clip-path="url(#pfcd81b4d8c)" style="fill: #7f7f7f; opacity: 0.5"/>
   </g>
   <g id="patch_134">
    <path d="M 342.379456 448.56 
L 343.977165 448.56 
L 343.977165 431.686957 
L 342.379456 431.686957 
z
" clip-path="url(#pfcd81b4d8c)" style="fill: #7f7f7f; opacity: 0.5"/>
   </g>
   <g id="patch_135">
    <path d="M 344.376593 448.56 
L 345.974302 448.56 
L 345.974302 431.686957 
L 344.376593 431.686957 
z
" clip-path="url(#pfcd81b4d8c)" style="fill: #7f7f7f; opacity: 0.5"/>
   </g>
   <g id="patch_136">
    <path d="M 346.373729 448.56 
L 347.971439 448.56 
L 347.971439 448.56 
L 346.373729 448.56 
z
" clip-path="url(#pfcd81b4d8c)" style="fill: #7f7f7f; opacity: 0.5"/>
   </g>
   <g id="patch_137">
    <path d="M 348.370866 448.56 
L 349.968576 448.56 
L 349.968576 431.686957 
L 348.370866 431.686957 
z
" clip-path="url(#pfcd81b4d8c)" style="fill: #7f7f7f; opacity: 0.5"/>
   </g>
   <g id="patch_138">
    <path d="M 350.368003 448.56 
L 351.965712 448.56 
L 351.965712 431.686957 
L 350.368003 431.686957 
z
" clip-path="url(#pfcd81b4d8c)" style="fill: #7f7f7f; opacity: 0.5"/>
   </g>
   <g id="patch_139">
    <path d="M 352.36514 448.56 
L 353.962849 448.56 
L 353.962849 448.56 
L 352.36514 448.56 
z
" clip-path="url(#pfcd81b4d8c)" style="fill: #7f7f7f; opacity: 0.5"/>
   </g>
   <g id="patch_140">
    <path d="M 354.362276 448.56 
L 355.959986 448.56 
L 355.959986 448.56 
L 354.362276 448.56 
z
" clip-path="url(#pfcd81b4d8c)" style="fill: #7f7f7f; opacity: 0.5"/>
   </g>
   <g id="patch_141">
    <path d="M 356.359413 448.56 
L 357.957122 448.56 
L 357.957122 448.56 
L 356.359413 448.56 
z
" clip-path="url(#pfcd81b4d8c)" style="fill: #7f7f7f; opacity: 0.5"/>
   </g>
   <g id="patch_142">
    <path d="M 358.35655 448.56 
L 359.954259 448.56 
L 359.954259 448.56 
L 358.35655 448.56 
z
" clip-path="url(#pfcd81b4d8c)" style="fill: #7f7f7f; opacity: 0.5"/>
   </g>
   <g id="patch_143">
    <path d="M 360.353686 448.56 
L 361.951396 448.56 
L 361.951396 448.56 
L 360.353686 448.56 
z
" clip-path="url(#pfcd81b4d8c)" style="fill: #7f7f7f; opacity: 0.5"/>
   </g>
   <g id="patch_144">
    <path d="M 362.350823 448.56 
L 363.948533 448.56 
L 363.948533 448.56 
L 362.350823 448.56 
z
" clip-path="url(#pfcd81b4d8c)" style="fill: #7f7f7f; opacity: 0.5"/>
   </g>
   <g id="patch_145">
    <path d="M 364.34796 448.56 
L 365.945669 448.56 
L 365.945669 448.56 
L 364.34796 448.56 
z
" clip-path="url(#pfcd81b4d8c)" style="fill: #7f7f7f; opacity: 0.5"/>
   </g>
   <g id="patch_146">
    <path d="M 366.345097 448.56 
L 367.942806 448.56 
L 367.942806 448.56 
L 366.345097 448.56 
z
" clip-path="url(#pfcd81b4d8c)" style="fill: #7f7f7f; opacity: 0.5"/>
   </g>
   <g id="patch_147">
    <path d="M 368.342233 448.56 
L 369.939943 448.56 
L 369.939943 448.56 
L 368.342233 448.56 
z
" clip-path="url(#pfcd81b4d8c)" style="fill: #7f7f7f; opacity: 0.5"/>
   </g>
   <g id="patch_148">
    <path d="M 370.33937 448.56 
L 371.937079 448.56 
L 371.937079 448.56 
L 370.33937 448.56 
z
" clip-path="url(#pfcd81b4d8c)" style="fill: #7f7f7f; opacity: 0.5"/>
   </g>
   <g id="patch_149">
    <path d="M 372.336507 448.56 
L 373.934216 448.56 
L 373.934216 448.56 
L 372.336507 448.56 
z
" clip-path="url(#pfcd81b4d8c)" style="fill: #7f7f7f; opacity: 0.5"/>
   </g>
   <g id="patch_150">
    <path d="M 374.333644 448.56 
L 375.931353 448.56 
L 375.931353 448.56 
L 374.333644 448.56 
z
" clip-path="url(#pfcd81b4d8c)" style="fill: #7f7f7f; opacity: 0.5"/>
   </g>
   <g id="patch_151">
    <path d="M 376.33078 448.56 
L 377.92849 448.56 
L 377.92849 448.56 
L 376.33078 448.56 
z
" clip-path="url(#pfcd81b4d8c)" style="fill: #7f7f7f; opacity: 0.5"/>
   </g>
   <g id="patch_152">
    <path d="M 378.327917 448.56 
L 379.925626 448.56 
L 379.925626 448.56 
L 378.327917 448.56 
z
" clip-path="url(#pfcd81b4d8c)" style="fill: #7f7f7f; opacity: 0.5"/>
   </g>
   <g id="patch_153">
    <path d="M 380.325054 448.56 
L 381.922763 448.56 
L 381.922763 448.56 
L 380.325054 448.56 
z
" clip-path="url(#pfcd81b4d8c)" style="fill: #7f7f7f; opacity: 0.5"/>
   </g>
   <g id="patch_154">
    <path d="M 382.32219 448.56 
L 383.9199 448.56 
L 383.9199 448.56 
L 382.32219 448.56 
z
" clip-path="url(#pfcd81b4d8c)" style="fill: #7f7f7f; opacity: 0.5"/>
   </g>
   <g id="patch_155">
    <path d="M 384.319327 448.56 
L 385.917037 448.56 
L 385.917037 448.56 
L 384.319327 448.56 
z
" clip-path="url(#pfcd81b4d8c)" style="fill: #7f7f7f; opacity: 0.5"/>
   </g>
   <g id="patch_156">
    <path d="M 386.316464 448.56 
L 387.914173 448.56 
L 387.914173 448.56 
L 386.316464 448.56 
z
" clip-path="url(#pfcd81b4d8c)" style="fill: #7f7f7f; opacity: 0.5"/>
   </g>
   <g id="patch_157">
    <path d="M 388.313601 448.56 
L 389.91131 448.56 
L 389.91131 448.56 
L 388.313601 448.56 
z
" clip-path="url(#pfcd81b4d8c)" style="fill: #7f7f7f; opacity: 0.5"/>
   </g>
   <g id="patch_158">
    <path d="M 390.310737 448.56 
L 391.908447 448.56 
L 391.908447 448.56 
L 390.310737 448.56 
z
" clip-path="url(#pfcd81b4d8c)" style="fill: #7f7f7f; opacity: 0.5"/>
   </g>
   <g id="patch_159">
    <path d="M 392.307874 448.56 
L 393.905583 448.56 
L 393.905583 448.56 
L 392.307874 448.56 
z
" clip-path="url(#pfcd81b4d8c)" style="fill: #7f7f7f; opacity: 0.5"/>
   </g>
   <g id="patch_160">
    <path d="M 394.305011 448.56 
L 395.90272 448.56 
L 395.90272 448.56 
L 394.305011 448.56 
z
" clip-path="url(#pfcd81b4d8c)" style="fill: #7f7f7f; opacity: 0.5"/>
   </g>
   <g id="patch_161">
    <path d="M 396.302147 448.56 
L 397.899857 448.56 
L 397.899857 448.56 
L 396.302147 448.56 
z
" clip-path="url(#pfcd81b4d8c)" style="fill: #7f7f7f; opacity: 0.5"/>
   </g>
   <g id="patch_162">
    <path d="M 398.299284 448.56 
L 399.896994 448.56 
L 399.896994 448.56 
L 398.299284 448.56 
z
" clip-path="url(#pfcd81b4d8c)" style="fill: #7f7f7f; opacity: 0.5"/>
   </g>
   <g id="patch_163">
    <path d="M 400.296421 448.56 
L 401.89413 448.56 
L 401.89413 448.56 
L 400.296421 448.56 
z
" clip-path="url(#pfcd81b4d8c)" style="fill: #7f7f7f; opacity: 0.5"/>
   </g>
   <g id="patch_164">
    <path d="M 402.293558 448.56 
L 403.891267 448.56 
L 403.891267 448.56 
L 402.293558 448.56 
z
" clip-path="url(#pfcd81b4d8c)" style="fill: #7f7f7f; opacity: 0.5"/>
   </g>
   <g id="patch_165">
    <path d="M 404.290694 448.56 
L 405.888404 448.56 
L 405.888404 448.56 
L 404.290694 448.56 
z
" clip-path="url(#pfcd81b4d8c)" style="fill: #7f7f7f; opacity: 0.5"/>
   </g>
   <g id="patch_166">
    <path d="M 406.287831 448.56 
L 407.88554 448.56 
L 407.88554 448.56 
L 406.287831 448.56 
z
" clip-path="url(#pfcd81b4d8c)" style="fill: #7f7f7f; opacity: 0.5"/>
   </g>
   <g id="patch_167">
    <path d="M 408.284968 448.56 
L 409.882677 448.56 
L 409.882677 448.56 
L 408.284968 448.56 
z
" clip-path="url(#pfcd81b4d8c)" style="fill: #7f7f7f; opacity: 0.5"/>
   </g>
   <g id="patch_168">
    <path d="M 410.282105 448.56 
L 411.879814 448.56 
L 411.879814 448.56 
L 410.282105 448.56 
z
" clip-path="url(#pfcd81b4d8c)" style="fill: #7f7f7f; opacity: 0.5"/>
   </g>
   <g id="patch_169">
    <path d="M 412.279241 448.56 
L 413.876951 448.56 
L 413.876951 448.56 
L 412.279241 448.56 
z
" clip-path="url(#pfcd81b4d8c)" style="fill: #7f7f7f; opacity: 0.5"/>
   </g>
   <g id="patch_170">
    <path d="M 414.276378 448.56 
L 415.874087 448.56 
L 415.874087 448.56 
L 414.276378 448.56 
z
" clip-path="url(#pfcd81b4d8c)" style="fill: #7f7f7f; opacity: 0.5"/>
   </g>
   <g id="patch_171">
    <path d="M 416.273515 448.56 
L 417.871224 448.56 
L 417.871224 448.56 
L 416.273515 448.56 
z
" clip-path="url(#pfcd81b4d8c)" style="fill: #7f7f7f; opacity: 0.5"/>
   </g>
   <g id="patch_172">
    <path d="M 418.270651 448.56 
L 419.868361 448.56 
L 419.868361 448.56 
L 418.270651 448.56 
z
" clip-path="url(#pfcd81b4d8c)" style="fill: #7f7f7f; opacity: 0.5"/>
   </g>
   <g id="patch_173">
    <path d="M 420.267788 448.56 
L 421.865497 448.56 
L 421.865497 448.56 
L 420.267788 448.56 
z
" clip-path="url(#pfcd81b4d8c)" style="fill: #7f7f7f; opacity: 0.5"/>
   </g>
   <g id="patch_174">
    <path d="M 422.264925 448.56 
L 423.862634 448.56 
L 423.862634 448.56 
L 422.264925 448.56 
z
" clip-path="url(#pfcd81b4d8c)" style="fill: #7f7f7f; opacity: 0.5"/>
   </g>
   <g id="patch_175">
    <path d="M 424.262062 448.56 
L 425.859771 448.56 
L 425.859771 448.56 
L 424.262062 448.56 
z
" clip-path="url(#pfcd81b4d8c)" style="fill: #7f7f7f; opacity: 0.5"/>
   </g>
   <g id="patch_176">
    <path d="M 426.259198 448.56 
L 427.856908 448.56 
L 427.856908 448.56 
L 426.259198 448.56 
z
" clip-path="url(#pfcd81b4d8c)" style="fill: #7f7f7f; opacity: 0.5"/>
   </g>
   <g id="patch_177">
    <path d="M 428.256335 448.56 
L 429.854044 448.56 
L 429.854044 448.56 
L 428.256335 448.56 
z
" clip-path="url(#pfcd81b4d8c)" style="fill: #7f7f7f; opacity: 0.5"/>
   </g>
   <g id="patch_178">
    <path d="M 430.253472 448.56 
L 431.851181 448.56 
L 431.851181 448.56 
L 430.253472 448.56 
z
" clip-path="url(#pfcd81b4d8c)" style="fill: #7f7f7f; opacity: 0.5"/>
   </g>
   <g id="patch_179">
    <path d="M 432.250608 448.56 
L 433.848318 448.56 
L 433.848318 448.56 
L 432.250608 448.56 
z
" clip-path="url(#pfcd81b4d8c)" style="fill: #7f7f7f; opacity: 0.5"/>
   </g>
   <g id="patch_180">
    <path d="M 434.247745 448.56 
L 435.845455 448.56 
L 435.845455 448.56 
L 434.247745 448.56 
z
" clip-path="url(#pfcd81b4d8c)" style="fill: #7f7f7f; opacity: 0.5"/>
   </g>
   <g id="patch_181">
    <path d="M 453.6 448.56 
L 453.6 60.48 
" style="fill: none; stroke: #7f7f7f; stroke-width: 0.8; stroke-linejoin: miter; stroke-linecap: square"/>
   </g>
  </g>
  <g id="axes_2">
   <g id="FillBetweenPolyCollection_1">
    <defs>
     <path id="m6a3ab6b1b7" d="M 81.5534 -126.326629 
L 81.5534 -55.44967 
L 83.550537 -57.177678 
L 85.547674 -62.297191 
L 87.54481 -68.861697 
L 89.541947 -74.962027 
L 91.539084 -81.064207 
L 93.53622 -88.297002 
L 95.533357 -96.286774 
L 97.530494 -103.73068 
L 99.527631 -112.17534 
L 101.524767 -120.492761 
L 103.521904 -130.627478 
L 105.519041 -140.421996 
L 107.516178 -151.346633 
L 109.513314 -161.326983 
L 111.510451 -172.65893 
L 113.507588 -184.50636 
L 115.504724 -195.77829 
L 117.501861 -207.719272 
L 119.498998 -219.08227 
L 121.496135 -231.408696 
L 123.493271 -243.989689 
L 125.490408 -255.674641 
L 127.487545 -266.731399 
L 129.484681 -279.027665 
L 131.481818 -289.752768 
L 133.478955 -300.366517 
L 135.476092 -311.644348 
L 137.473228 -320.865538 
L 139.470365 -329.647828 
L 141.467502 -338.542971 
L 143.464639 -347.950197 
L 145.461775 -355.408744 
L 147.458912 -363.742426 
L 149.456049 -370.496818 
L 151.453185 -376.971255 
L 153.450322 -381.294353 
L 155.447459 -386.260197 
L 157.444596 -389.542042 
L 159.441732 -393.471692 
L 161.438869 -397.01102 
L 163.436006 -398.797454 
L 165.433142 -400.25238 
L 167.430279 -401.048945 
L 169.427416 -401.921232 
L 171.424553 -402.371151 
L 173.421689 -403.06688 
L 175.418826 -401.648608 
L 177.415963 -401.382072 
L 179.413099 -400.699802 
L 181.410236 -399.674699 
L 183.407373 -398.034613 
L 185.40451 -397.133272 
L 187.401646 -396.023564 
L 189.398783 -394.081309 
L 191.39592 -391.981806 
L 193.393057 -390.661847 
L 195.390193 -388.822347 
L 197.38733 -387.691787 
L 199.384467 -386.474554 
L 201.381603 -385.897842 
L 203.37874 -385.082978 
L 205.375877 -383.624272 
L 207.373014 -382.740958 
L 209.37015 -382.285511 
L 211.367287 -381.485141 
L 213.364424 -380.36161 
L 215.36156 -380.801815 
L 217.358697 -380.845391 
L 219.355834 -380.985974 
L 221.352971 -381.515043 
L 223.350107 -382.027891 
L 225.347244 -382.39354 
L 227.344381 -383.325436 
L 229.341518 -384.864149 
L 231.338654 -385.981795 
L 233.335791 -387.771931 
L 235.332928 -388.880526 
L 237.330064 -389.626063 
L 239.327201 -389.746162 
L 241.324338 -391.423303 
L 243.321475 -393.360491 
L 245.318611 -394.694901 
L 247.315748 -396.340974 
L 249.312885 -398.849897 
L 251.310021 -400.868253 
L 253.307158 -402.172392 
L 255.304295 -402.893304 
L 257.301432 -404.50821 
L 259.298568 -404.440434 
L 261.295705 -405.301015 
L 263.292842 -404.936044 
L 265.289979 -404.842415 
L 267.287115 -402.778635 
L 269.284252 -401.930174 
L 271.281389 -399.575392 
L 273.278525 -397.889934 
L 275.275662 -394.439162 
L 277.272799 -390.154886 
L 279.269936 -385.067671 
L 281.267072 -380.569988 
L 283.264209 -374.590026 
L 285.261346 -368.388311 
L 287.258482 -360.781047 
L 289.255619 -353.295669 
L 291.252756 -343.712538 
L 293.249893 -333.988348 
L 295.247029 -324.272076 
L 297.244166 -312.653134 
L 299.241303 -301.938548 
L 301.23844 -290.423977 
L 303.235576 -277.933085 
L 305.232713 -265.754118 
L 307.22985 -252.955786 
L 309.226986 -240.182346 
L 311.224123 -227.735013 
L 313.22126 -215.399492 
L 315.218397 -203.719855 
L 317.215533 -192.426969 
L 319.21267 -179.801442 
L 321.209807 -168.189902 
L 323.206943 -156.635625 
L 325.20408 -145.651288 
L 327.201217 -135.846247 
L 329.198354 -125.991769 
L 331.19549 -116.908951 
L 333.192627 -108.257151 
L 335.189764 -100.753525 
L 337.186901 -93.687841 
L 339.184037 -86.800221 
L 341.181174 -81.633853 
L 343.178311 -77.054398 
L 345.175447 -72.282054 
L 347.172584 -68.647421 
L 349.169721 -66.003187 
L 351.166858 -62.408029 
L 353.163994 -56.78349 
L 355.161131 -55.440051 
L 357.158268 -55.440004 
L 359.155404 -55.440004 
L 361.152541 -55.440004 
L 363.149678 -55.440004 
L 365.146815 -55.440004 
L 367.143951 -55.440004 
L 369.141088 -55.440004 
L 371.138225 -55.440004 
L 373.135361 -55.440004 
L 375.132498 -55.440004 
L 377.129635 -55.440004 
L 379.126772 -55.440004 
L 381.123908 -55.440004 
L 383.121045 -55.440004 
L 385.118182 -55.440004 
L 387.115319 -55.440004 
L 389.112455 -55.440004 
L 391.109592 -55.440004 
L 393.106729 -55.440004 
L 395.103865 -55.440004 
L 397.101002 -55.440004 
L 399.098139 -55.440004 
L 401.095276 -55.440004 
L 403.092412 -55.440004 
L 405.089549 -55.440004 
L 407.086686 -55.440004 
L 409.083822 -55.440004 
L 411.080959 -55.440004 
L 413.078096 -55.440004 
L 415.075233 -55.440004 
L 417.072369 -55.440004 
L 419.069506 -55.440004 
L 421.066643 -55.440004 
L 423.06378 -55.440004 
L 425.060916 -55.440004 
L 427.058053 -55.440004 
L 429.05519 -55.440004 
L 431.052326 -55.440004 
L 433.049463 -55.440004 
L 435.0466 -55.440004 
L 435.0466 -92.598316 
L 435.0466 -92.598316 
L 433.049463 -92.400638 
L 431.052326 -92.636652 
L 429.05519 -93.477381 
L 427.058053 -93.215726 
L 425.060916 -92.623066 
L 423.06378 -93.297882 
L 421.066643 -92.99457 
L 419.069506 -93.543755 
L 417.072369 -92.5353 
L 415.075233 -92.0909 
L 413.078096 -92.434268 
L 411.080959 -92.677735 
L 409.083822 -92.4343 
L 407.086686 -92.373761 
L 405.089549 -92.530772 
L 403.092412 -92.354325 
L 401.095276 -91.787743 
L 399.098139 -91.73029 
L 397.101002 -91.442648 
L 395.103865 -91.081786 
L 393.106729 -91.237388 
L 391.109592 -91.686034 
L 389.112455 -91.717645 
L 387.115319 -91.580052 
L 385.118182 -92.094693 
L 383.121045 -92.097909 
L 381.123908 -92.435598 
L 379.126772 -92.429131 
L 377.129635 -92.529326 
L 375.132498 -92.708705 
L 373.135361 -92.895765 
L 371.138225 -93.548681 
L 369.141088 -93.45409 
L 367.143951 -94.559431 
L 365.146815 -95.686235 
L 363.149678 -97.719789 
L 361.152541 -98.99671 
L 359.155404 -102.283758 
L 357.158268 -105.015751 
L 355.161131 -107.707726 
L 353.163994 -110.61779 
L 351.166858 -113.793922 
L 349.169721 -117.691511 
L 347.172584 -122.65377 
L 345.175447 -128.1875 
L 343.178311 -132.797565 
L 341.181174 -138.876378 
L 339.184037 -145.149589 
L 337.186901 -152.25135 
L 335.189764 -160.127164 
L 333.192627 -168.35903 
L 331.19549 -177.599441 
L 329.198354 -187.806127 
L 327.201217 -197.949028 
L 325.20408 -208.664143 
L 323.206943 -219.526676 
L 321.209807 -230.63413 
L 319.21267 -243.62906 
L 317.215533 -256.63222 
L 315.218397 -268.433738 
L 313.22126 -281.889908 
L 311.224123 -294.698183 
L 309.226986 -308.578694 
L 307.22985 -322.794266 
L 305.232713 -335.007311 
L 303.235576 -347.118607 
L 301.23844 -359.364883 
L 299.241303 -370.350753 
L 297.244166 -380.989248 
L 295.247029 -392.039773 
L 293.249893 -402.05245 
L 291.252756 -411.980099 
L 289.255619 -421.119804 
L 287.258482 -430.516135 
L 285.261346 -438.143116 
L 283.264209 -439.677623 
L 281.267072 -439.677624 
L 279.269936 -439.677624 
L 277.272799 -439.677624 
L 275.275662 -439.677624 
L 273.278525 -439.677624 
L 271.281389 -439.677624 
L 269.284252 -439.677624 
L 267.287115 -439.677624 
L 265.289979 -439.677624 
L 263.292842 -439.677624 
L 261.295705 -439.677624 
L 259.298568 -439.677624 
L 257.301432 -439.677624 
L 255.304295 -439.677624 
L 253.307158 -439.677624 
L 251.310021 -439.677624 
L 249.312885 -439.677624 
L 247.315748 -439.677624 
L 245.318611 -439.677624 
L 243.321475 -439.677624 
L 241.324338 -439.677624 
L 239.327201 -439.677624 
L 237.330064 -439.677624 
L 235.332928 -439.677624 
L 233.335791 -439.677624 
L 231.338654 -439.677624 
L 229.341518 -439.677624 
L 227.344381 -439.677624 
L 225.347244 -439.677624 
L 223.350107 -439.677624 
L 221.352971 -439.677624 
L 219.355834 -439.677624 
L 217.358697 -439.677624 
L 215.36156 -439.677624 
L 213.364424 -439.677624 
L 211.367287 -439.677624 
L 209.37015 -439.677624 
L 207.373014 -439.677624 
L 205.375877 -439.677624 
L 203.37874 -439.677624 
L 201.381603 -439.677624 
L 199.384467 -439.677624 
L 197.38733 -439.677624 
L 195.390193 -439.677624 
L 193.393057 -439.677624 
L 191.39592 -439.677624 
L 189.398783 -439.677624 
L 187.401646 -439.677624 
L 185.40451 -439.677624 
L 183.407373 -439.677624 
L 181.410236 -439.677624 
L 179.413099 -439.677624 
L 177.415963 -439.677624 
L 175.418826 -439.677624 
L 173.421689 -439.677624 
L 171.424553 -439.677624 
L 169.427416 -439.677624 
L 167.430279 -439.677624 
L 165.433142 -439.677624 
L 163.436006 -439.677624 
L 161.438869 -439.677624 
L 159.441732 -439.677624 
L 157.444596 -439.677624 
L 155.447459 -439.677624 
L 153.450322 -439.677624 
L 151.453185 -439.677624 
L 149.456049 -439.677624 
L 147.458912 -439.653207 
L 145.461775 -433.119297 
L 143.464639 -425.091852 
L 141.467502 -416.099022 
L 139.470365 -407.40834 
L 137.473228 -398.01811 
L 135.476092 -388.103921 
L 133.478955 -377.993716 
L 131.481818 -366.271651 
L 129.484681 -355.463486 
L 127.487545 -343.431644 
L 125.490408 -331.935649 
L 123.493271 -320.103049 
L 121.496135 -308.092445 
L 119.498998 -295.677246 
L 117.501861 -283.475834 
L 115.504724 -271.121222 
L 113.507588 -259.900218 
L 111.510451 -248.476199 
L 109.513314 -236.879296 
L 107.516178 -226.388806 
L 105.519041 -216.941814 
L 103.521904 -206.634184 
L 101.524767 -196.738187 
L 99.527631 -187.920243 
L 97.530494 -179.202588 
L 95.533357 -171.291855 
L 93.53622 -163.134712 
L 91.539084 -155.715449 
L 89.541947 -149.3619 
L 87.54481 -143.302409 
L 85.547674 -137.610998 
L 83.550537 -131.682426 
L 81.5534 -126.326629 
z
" style="stroke: #1f77b4; stroke-opacity: 0.3"/>
    </defs>
    <g clip-path="url(#pfcd81b4d8c)">
     <use xlink:href="#m6a3ab6b1b7" x="0" y="504" style="fill: #1f77b4; fill-opacity: 0.3; stroke: #1f77b4; stroke-opacity: 0.3"/>
    </g>
   </g>
   <g id="matplotlib.axis_2">
    <g id="xtick_1">
     <g id="line2d_6">
      <defs>
       <path id="mf980bad83d" d="M 0 0 
L 0 3.5 
" style="stroke: #000000; stroke-width: 0.8"/>
      </defs>
      <g>
       <use xlink:href="#mf980bad83d" x="81.5534" y="448.56" style="stroke: #000000; stroke-width: 0.8"/>
      </g>
     </g>
     <g id="text_7">
      <text style="font-size: 16px; font-family: 'Arial', sans-serif; text-anchor: middle" x="81.5534" y="467.208438" transform="rotate(-0 81.5534 467.208438)">1 Jun</text>
     </g>
    </g>
    <g id="xtick_2">
     <g id="line2d_7">
      <g>
       <use xlink:href="#mf980bad83d" x="141.467502" y="448.56" style="stroke: #000000; stroke-width: 0.8"/>
      </g>
     </g>
     <g id="text_8">
      <text style="font-size: 16px; font-family: 'Arial', sans-serif; text-anchor: middle" x="141.467502" y="467.208438" transform="rotate(-0 141.467502 467.208438)">1 Jul</text>
     </g>
    </g>
    <g id="xtick_3">
     <g id="line2d_8">
      <g>
       <use xlink:href="#mf980bad83d" x="203.37874" y="448.56" style="stroke: #000000; stroke-width: 0.8"/>
      </g>
     </g>
     <g id="text_9">
      <text style="font-size: 16px; font-family: 'Arial', sans-serif; text-anchor: middle" x="203.37874" y="467.208438" transform="rotate(-0 203.37874 467.208438)">1 Aug</text>
     </g>
    </g>
    <g id="xtick_4">
     <g id="line2d_9">
      <g>
       <use xlink:href="#mf980bad83d" x="265.289979" y="448.56" style="stroke: #000000; stroke-width: 0.8"/>
      </g>
     </g>
     <g id="text_10">
      <text style="font-size: 16px; font-family: 'Arial', sans-serif; text-anchor: middle" x="265.289979" y="467.208438" transform="rotate(-0 265.289979 467.208438)">1 Sep</text>
     </g>
    </g>
    <g id="xtick_5">
     <g id="line2d_10">
      <g>
       <use xlink:href="#mf980bad83d" x="325.20408" y="448.56" style="stroke: #000000; stroke-width: 0.8"/>
      </g>
     </g>
     <g id="text_11">
      <text style="font-size: 16px; font-family: 'Arial', sans-serif; text-anchor: middle" x="325.20408" y="467.2175" transform="rotate(-0 325.20408 467.2175)">1 Oct</text>
     </g>
    </g>
    <g id="xtick_6">
     <g id="line2d_11">
      <g>
       <use xlink:href="#mf980bad83d" x="387.115319" y="448.56" style="stroke: #000000; stroke-width: 0.8"/>
      </g>
     </g>
     <g id="text_12">
      <text style="font-size: 16px; font-family: 'Arial', sans-serif; text-anchor: middle" x="387.115319" y="467.208438" transform="rotate(-0 387.115319 467.208438)">1 Nov</text>
     </g>
    </g>
    <g id="xtick_7">
     <g id="line2d_12">
      <g>
       <use xlink:href="#mf980bad83d" x="447.02942" y="448.56" style="stroke: #000000; stroke-width: 0.8"/>
      </g>
     </g>
     <g id="text_13">
      <text style="font-size: 16px; font-family: 'Arial', sans-serif; text-anchor: middle" x="447.02942" y="467.208438" transform="rotate(-0 447.02942 467.208438)">1 Dec</text>
     </g>
    </g>
    <g id="text_14">
     <text style="font-size: 16px; font-family: 'Arial', sans-serif; text-anchor: middle" x="258.3" y="486.233125" transform="rotate(-0 258.3 486.233125)">Date</text>
    </g>
   </g>
   <g id="matplotlib.axis_3">
    <g id="ytick_6">
     <g id="line2d_13">
      <defs>
       <path id="mf3c110d2bc" d="M 0 0 
L -3.5 0 
" style="stroke: #000000; stroke-width: 0.8"/>
      </defs>
      <g>
       <use xlink:href="#mf3c110d2bc" x="63" y="448.56" style="stroke: #000000; stroke-width: 0.8"/>
      </g>
     </g>
     <g id="text_15">
      <text style="font-size: 16px; font-family: 'Arial', sans-serif; text-anchor: end" x="56" y="454.384219" transform="rotate(-0 56 454.384219)">0.0</text>
     </g>
    </g>
    <g id="ytick_7">
     <g id="line2d_14">
      <g>
       <use xlink:href="#mf3c110d2bc" x="63" y="371.712475" style="stroke: #000000; stroke-width: 0.8"/>
      </g>
     </g>
     <g id="text_16">
      <text style="font-size: 16px; font-family: 'Arial', sans-serif; text-anchor: end" x="56" y="377.536694" transform="rotate(-0 56 377.536694)">0.2</text>
     </g>
    </g>
    <g id="ytick_8">
     <g id="line2d_15">
      <g>
       <use xlink:href="#mf3c110d2bc" x="63" y="294.86495" style="stroke: #000000; stroke-width: 0.8"/>
      </g>
     </g>
     <g id="text_17">
      <text style="font-size: 16px; font-family: 'Arial', sans-serif; text-anchor: end" x="56" y="300.689169" transform="rotate(-0 56 300.689169)">0.4</text>
     </g>
    </g>
    <g id="ytick_9">
     <g id="line2d_16">
      <g>
       <use xlink:href="#mf3c110d2bc" x="63" y="218.017426" style="stroke: #000000; stroke-width: 0.8"/>
      </g>
     </g>
     <g id="text_18">
      <text style="font-size: 16px; font-family: 'Arial', sans-serif; text-anchor: end" x="56" y="223.841644" transform="rotate(-0 56 223.841644)">0.6</text>
     </g>
    </g>
    <g id="ytick_10">
     <g id="line2d_17">
      <g>
       <use xlink:href="#mf3c110d2bc" x="63" y="141.169901" style="stroke: #000000; stroke-width: 0.8"/>
      </g>
     </g>
     <g id="text_19">
      <text style="font-size: 16px; font-family: 'Arial', sans-serif; text-anchor: end" x="56" y="146.99412" transform="rotate(-0 56 146.99412)">0.8</text>
     </g>
    </g>
    <g id="ytick_11">
     <g id="line2d_18">
      <g>
       <use xlink:href="#mf3c110d2bc" x="63" y="64.322376" style="stroke: #000000; stroke-width: 0.8"/>
      </g>
     </g>
     <g id="text_20">
      <text style="font-size: 16px; font-family: 'Arial', sans-serif; text-anchor: end" x="56" y="70.146595" transform="rotate(-0 56 70.146595)">1.0</text>
     </g>
    </g>
    <g id="text_21">
     <text style="font-size: 16px; font-family: 'Arial', sans-serif; text-anchor: middle" x="26.3925" y="254.52" transform="rotate(-90 26.3925 254.52)">Temperature suitability for transmission</text>
    </g>
   </g>
   <g id="line2d_19">
    <path d="M 81.5534 413.703001 
L 83.550537 409.11281 
L 85.547674 404.039479 
L 87.54481 398.425173 
L 89.541947 392.257703 
L 91.539084 385.718845 
L 93.53622 378.574774 
L 95.533357 370.968578 
L 99.527631 354.374133 
L 101.524767 345.33871 
L 105.519041 325.636726 
L 109.513314 304.333883 
L 115.504724 270.282074 
L 129.484681 187.091857 
L 133.478955 164.7619 
L 137.473228 144.451696 
L 141.467502 126.307421 
L 143.464639 117.696426 
L 145.461775 109.675751 
L 147.458912 102.469169 
L 149.456049 96.066318 
L 151.453185 90.358977 
L 153.450322 85.530831 
L 155.447459 81.702903 
L 157.444596 78.608895 
L 159.441732 76.242026 
L 161.438869 74.525469 
L 163.436006 73.339104 
L 165.433142 72.521409 
L 167.430279 71.915129 
L 169.427416 71.45515 
L 173.421689 71.345016 
L 175.418826 71.502035 
L 179.413099 72.15076 
L 183.407373 73.489305 
L 185.40451 74.263368 
L 189.398783 76.160726 
L 195.390193 79.784234 
L 203.37874 83.810616 
L 205.375877 84.698708 
L 209.37015 86.193111 
L 211.367287 86.779256 
L 213.364424 87.118916 
L 217.358697 87.464138 
L 219.355834 87.315128 
L 223.350107 86.530264 
L 225.347244 86.024796 
L 229.341518 84.062041 
L 233.335791 81.846106 
L 235.332928 80.679331 
L 239.327201 79.046752 
L 241.324338 78.10465 
L 245.318611 75.760994 
L 249.312885 73.656636 
L 253.307158 72.008778 
L 255.304295 71.478156 
L 257.301432 71.113114 
L 261.295705 70.719988 
L 265.289979 70.815945 
L 269.284252 72.061882 
L 271.281389 73.154539 
L 273.278525 74.749131 
L 275.275662 76.86321 
L 277.272799 79.953753 
L 279.269936 84.028407 
L 281.267072 88.855811 
L 283.264209 94.787902 
L 285.261346 101.309953 
L 287.258482 108.682603 
L 289.255619 116.983881 
L 293.249893 135.631934 
L 295.247029 145.834634 
L 299.241303 167.71736 
L 301.23844 179.319996 
L 307.22985 216.688931 
L 317.215533 280.454627 
L 323.206943 315.812457 
L 327.201217 337.823034 
L 329.198354 348.216235 
L 331.19549 357.727861 
L 333.192627 366.633114 
L 335.189764 374.913062 
L 337.186901 382.529493 
L 339.184037 389.442527 
L 341.181174 395.824298 
L 343.178311 401.615829 
L 345.175447 406.923873 
L 347.172584 411.855971 
L 351.166858 420.186093 
L 353.163994 424.553492 
L 355.161131 428.097192 
L 357.158268 430.976194 
L 359.155404 433.332588 
L 361.152541 435.208305 
L 363.149678 436.59467 
L 365.146815 437.811973 
L 367.143951 438.697463 
L 371.138225 439.773682 
L 375.132498 440.379939 
L 381.123908 440.862089 
L 387.115319 440.990185 
L 409.083822 440.885772 
L 411.080959 440.742405 
L 433.049463 440.558501 
L 435.0466 440.603401 
L 435.0466 440.603401 
" clip-path="url(#pfcd81b4d8c)" style="fill: none; stroke: #1f77b4; stroke-width: 2; stroke-linecap: square"/>
   </g>
   <g id="line2d_20">
    <path d="M 81.5534 414.957902 
L 83.550537 410.278019 
L 85.547674 405.13296 
L 87.54481 399.505737 
L 89.541947 393.381685 
L 91.539084 386.770063 
L 93.53622 379.681621 
L 95.533357 372.107863 
L 99.527631 355.552199 
L 101.524767 346.520572 
L 105.519041 326.972938 
L 109.513314 305.835672 
L 115.504724 272.045723 
L 121.496135 236.198829 
L 125.490408 212.566424 
L 133.478955 167.280512 
L 137.473228 146.874615 
L 141.467502 128.708912 
L 143.464639 120.134184 
L 145.461775 112.116209 
L 147.458912 104.844046 
L 149.456049 98.233736 
L 151.453185 92.054952 
L 153.450322 86.568188 
L 155.447459 81.763052 
L 157.444596 77.458681 
L 159.441732 73.821014 
L 161.438869 70.839101 
L 163.436006 68.51512 
L 165.433142 66.885523 
L 167.430279 65.66449 
L 169.427416 64.636645 
L 171.424553 64.419061 
L 173.421689 64.344955 
L 175.418826 64.641377 
L 177.415963 65.20864 
L 179.413099 65.977203 
L 183.407373 68.709289 
L 189.398783 73.312065 
L 195.390193 78.757817 
L 201.381603 82.94073 
L 203.37874 84.319466 
L 205.375877 85.518622 
L 207.373014 86.5371 
L 209.37015 87.429957 
L 211.367287 88.150739 
L 213.364424 88.669461 
L 215.36156 88.985342 
L 217.358697 89.097711 
L 219.355834 89.006007 
L 221.352971 88.709781 
L 223.350107 88.208696 
L 225.347244 87.502529 
L 227.344381 86.612582 
L 229.341518 85.599163 
L 231.338654 84.399615 
L 239.327201 78.762676 
L 241.324338 77.041617 
L 245.318611 73.223522 
L 251.310021 68.496415 
L 253.307158 67.05172 
L 255.304295 65.828434 
L 257.301432 65.0267 
L 259.298568 64.510862 
L 261.295705 64.364242 
L 263.292842 64.492091 
L 265.289979 64.921346 
L 269.284252 67.465313 
L 271.281389 69.553755 
L 273.278525 72.39208 
L 275.275662 75.890108 
L 277.272799 80.22614 
L 279.269936 85.075853 
L 281.267072 90.701992 
L 283.264209 97.097462 
L 285.261346 104.079818 
L 287.258482 111.708319 
L 289.255619 120.215428 
L 293.249893 138.853355 
L 295.247029 148.937596 
L 299.241303 171.114639 
L 303.235576 195.418147 
L 309.226986 233.262769 
L 315.218397 272.344074 
L 321.209807 309.249448 
L 325.20408 332.298761 
L 329.198354 353.240184 
L 333.192627 371.772277 
L 335.189764 380.216374 
L 337.186901 388.087184 
L 339.184037 395.353197 
L 341.181174 402.019824 
L 343.178311 408.111639 
L 345.175447 413.572529 
L 347.172584 418.469276 
L 349.169721 422.824363 
L 351.166858 426.755661 
L 353.163994 430.17772 
L 355.161131 433.130832 
L 357.158268 435.740096 
L 359.155404 438.017693 
L 361.152541 439.935044 
L 363.149678 441.561864 
L 365.146815 442.957198 
L 367.143951 444.122461 
L 369.141088 445.080207 
L 371.138225 445.847326 
L 373.135361 446.482437 
L 377.129635 447.38425 
L 381.123908 447.928527 
L 385.118182 448.244779 
L 391.109592 448.466771 
L 401.095276 448.554457 
L 435.0466 448.56 
L 435.0466 448.56 
" clip-path="url(#pfcd81b4d8c)" style="fill: none; stroke-dasharray: 7.4,3.2; stroke-dashoffset: 0; stroke: #000000; stroke-width: 2"/>
   </g>
   <g id="line2d_21">
    <path d="M 81.5534 375.748006 
L 83.550537 382.958437 
L 85.547674 376.711515 
L 87.54481 374.218621 
L 89.541947 370.659095 
L 91.539084 365.535916 
L 93.53622 367.601595 
L 95.533357 361.319951 
L 97.530494 357.21244 
L 99.527631 334.712375 
L 101.524767 325.237867 
L 103.521904 317.714759 
L 105.519041 309.409612 
L 107.516178 302.279715 
L 109.513314 296.42452 
L 111.510451 287.25098 
L 113.507588 274.107192 
L 115.504724 263.921257 
L 117.501861 248.290264 
L 119.498998 237.454292 
L 121.496135 225.509885 
L 123.493271 207.185425 
L 125.490408 193.644114 
L 127.487545 184.806796 
L 129.484681 174.365889 
L 131.481818 161.093577 
L 133.478955 142.411064 
L 137.473228 125.395068 
L 139.470365 112.340039 
L 141.467502 107.902313 
L 143.464639 101.093095 
L 145.461775 89.783613 
L 147.458912 80.592265 
L 149.456049 74.197568 
L 151.453185 65.759031 
L 153.450322 73.003014 
L 155.447459 64.322376 
L 157.444596 64.409052 
L 159.441732 68.220919 
L 161.438869 64.322376 
L 189.398783 64.322376 
L 191.39592 65.109081 
L 193.393057 66.303977 
L 195.390193 78.906508 
L 197.38733 77.392362 
L 199.384467 76.66836 
L 201.381603 85.228928 
L 203.37874 86.288542 
L 205.375877 91.554187 
L 207.373014 89.189219 
L 209.37015 98.699579 
L 211.367287 103.042573 
L 213.364424 100.159822 
L 215.36156 95.251799 
L 217.358697 104.419974 
L 219.355834 106.071332 
L 221.352971 103.948163 
L 223.350107 105.666846 
L 225.347244 97.733824 
L 227.344381 101.67341 
L 229.341518 98.769983 
L 231.338654 101.71678 
L 233.335791 93.896367 
L 235.332928 92.244415 
L 237.330064 92.245808 
L 239.327201 97.821112 
L 241.324338 88.443923 
L 245.318611 77.712644 
L 247.315748 71.149084 
L 249.312885 68.098722 
L 251.310021 69.314816 
L 255.304295 73.353262 
L 257.301432 66.514606 
L 259.298568 72.195899 
L 261.295705 74.403038 
L 263.292842 75.651299 
L 265.289979 74.842681 
L 267.287115 73.395335 
L 269.284252 79.834396 
L 271.281389 88.998992 
L 273.278525 91.370031 
L 275.275662 89.212938 
L 277.272799 89.984039 
L 279.269936 93.669198 
L 281.267072 100.434432 
L 283.264209 105.334783 
L 285.261346 113.149998 
L 287.258482 117.063111 
L 289.255619 128.827825 
L 291.252756 137.191416 
L 293.249893 146.954692 
L 295.247029 154.516813 
L 297.244166 164.386968 
L 299.241303 164.597351 
L 301.23844 170.21166 
L 303.235576 176.595344 
L 305.232713 198.230749 
L 307.22985 212.433684 
L 309.226986 228.108003 
L 311.224123 239.154688 
L 313.22126 262.130416 
L 317.215533 277.882088 
L 319.21267 295.943496 
L 321.209807 312.229193 
L 323.206943 327.234568 
L 325.20408 338.281229 
L 327.201217 346.055793 
L 329.198354 347.517016 
L 331.19549 358.006362 
L 333.192627 363.877059 
L 335.189764 371.855062 
L 337.186901 372.421827 
L 339.184037 376.911222 
L 341.181174 378.196592 
L 343.178311 389.484554 
L 345.175447 396.231793 
L 347.172584 405.03603 
L 349.169721 403.302368 
L 351.166858 404.914268 
L 355.161131 415.569519 
L 357.158268 416.548795 
L 359.155404 422.30084 
L 361.152541 428.583771 
L 363.149678 428.439825 
L 365.146815 419.648165 
L 367.143951 422.446891 
L 369.141088 426.319503 
L 371.138225 432.555277 
L 373.135361 439.221815 
L 375.132498 437.66769 
L 377.129635 434.664955 
L 379.126772 435.250741 
L 381.123908 434.379301 
L 383.121045 434.40351 
L 385.118182 434.290159 
L 387.115319 441.252794 
L 389.112455 443.458212 
L 391.109592 443.157149 
L 393.106729 446.668162 
L 395.103865 448.56 
L 407.086686 448.56 
L 409.083822 445.827108 
L 411.080959 438.658702 
L 413.078096 447.830471 
L 415.075233 444.190801 
L 417.072369 446.358889 
L 419.069506 445.838921 
L 421.066643 442.330746 
L 423.06378 437.862099 
L 425.060916 433.692586 
L 427.058053 433.402125 
L 429.05519 426.909465 
L 431.052326 428.658737 
L 433.049463 429.758117 
L 435.0466 426.815755 
L 435.0466 426.815755 
" clip-path="url(#pfcd81b4d8c)" style="fill: none; stroke: #000000; stroke-width: 2; stroke-linecap: square"/>
   </g>
   <g id="patch_182">
    <path d="M 63 448.56 
L 63 60.48 
" style="fill: none; stroke: #000000; stroke-width: 0.8; stroke-linejoin: miter; stroke-linecap: square"/>
   </g>
   <g id="patch_183">
    <path d="M 63 448.56 
L 453.6 448.56 
" style="fill: none; stroke: #000000; stroke-width: 0.8; stroke-linejoin: miter; stroke-linecap: square"/>
   </g>
   <g id="legend_1">
    <g id="patch_184">
     <path d="M 308.730625 132.096016 
L 443.8 132.096016 
Q 446.6 132.096016 446.6 129.296016 
L 446.6 70.28 
Q 446.6 67.48 443.8 67.48 
L 308.730625 67.48 
Q 305.930625 67.48 305.930625 70.28 
L 305.930625 129.296016 
Q 305.930625 132.096016 308.730625 132.096016 
z
" style="fill: #ffffff; opacity: 0.8; stroke: #cccccc; stroke-linejoin: miter"/>
    </g>
    <g id="line2d_22">
     <path d="M 311.530625 78.372383 
L 325.530625 78.372383 
L 339.530625 78.372383 
" style="fill: none; stroke: #000000; stroke-width: 2; stroke-linecap: square"/>
    </g>
    <g id="text_22">
     <text style="font-size: 14px; font-family: 'Arial', sans-serif; text-anchor: start" x="350.730625" y="83.272383" transform="rotate(-0 350.730625 83.272383)">True</text>
    </g>
    <g id="line2d_23">
     <path d="M 311.530625 98.511055 
L 325.530625 98.511055 
L 339.530625 98.511055 
" style="fill: none; stroke-dasharray: 7.4,3.2; stroke-dashoffset: 0; stroke: #000000; stroke-width: 2"/>
    </g>
    <g id="text_23">
     <text style="font-size: 14px; font-family: 'Arial', sans-serif; text-anchor: start" x="350.730625" y="103.411055" transform="rotate(-0 350.730625 103.411055)">Seasonal prior</text>
    </g>
    <g id="line2d_24">
     <path d="M 311.530625 118.649727 
L 325.530625 118.649727 
L 339.530625 118.649727 
" style="fill: none; stroke: #1f77b4; stroke-width: 2; stroke-linecap: square"/>
    </g>
    <g id="text_24">
     <text style="font-size: 14px; font-family: 'Arial', sans-serif; text-anchor: start" x="350.730625" y="123.549727" transform="rotate(-0 350.730625 123.549727)">Posterior</text>
    </g>
   </g>
  </g>
 </g>
 <defs>
  <clipPath id="pfcd81b4d8c">
   <rect x="63" y="60.48" width="390.6" height="388.08"/>
  </clipPath>
 </defs>
</svg>
