<?xml version="1.0" encoding="utf-8" standalone="no"?>
<!DOCTYPE svg PUBLIC "-//W3C//DTD SVG 1.1//EN"
  "http://www.w3.org/Graphics/SVG/1.1/DTD/svg11.dtd">
<svg xmlns:xlink="http://www.w3.org/1999/xlink" width="504pt" height="504pt" viewBox="0 0 504 504" xmlns="http://www.w3.org/2000/svg" version="1.1">
 <metadata>
  <rdf:RDF xmlns:dc="http://purl.org/dc/elements/1.1/" xmlns:cc="http://creativecommons.org/ns#" xmlns:rdf="http://www.w3.org/1999/02/22-rdf-syntax-ns#">
   <cc:Work>
    <dc:type rdf:resource="http://purl.org/dc/dcmitype/StillImage"/>
    <dc:date>2026-03-26T12:32:37.827805</dc:date>
    <dc:format>image/svg+xml</dc:format>
    <dc:creator>
     <cc:Agent>
      <dc:title>Matplotlib v3.10.8, https://matplotlib.org/</dc:title>
     </cc:Agent>
    </dc:creator>
   </cc:Work>
  </rdf:RDF>
 </metadata>
 <defs>
  <style type="text/css">*{stroke-linejoin: round; stroke-linecap: butt}</style>
 </defs>
 <g id="figure_1">
  <g id="patch_1">
   <path d="M 0 504 
L 504 504 
L 504 0 
L 0 0 
L 0 504 
z
" style="fill: none"/>
  </g>
  <g id="axes_1">
   <g id="patch_2">
    <path d="M 63 448.56 
L 453.6 448.56 
L 453.6 60.48 
L 63 60.48 
L 63 448.56 
z
" style="fill: none"/>
   </g>
   <g id="FillBetweenPolyCollection_1">
    <defs>
     <path id="mc2e8598bba" d="M 81.562488 -78.087725 
L 81.562488 -55.44 
L 83.582346 -55.466061 
L 85.602203 -55.705982 
L 87.62206 -56.02055 
L 89.641917 -56.23357 
L 91.661775 -56.452363 
L 93.681632 -56.747025 
L 95.701489 -56.706833 
L 97.721347 -57.145748 
L 99.741204 -57.223289 
L 101.761061 -59.458134 
L 103.780918 -59.805894 
L 105.800776 -59.725214 
L 107.820633 -60.012729 
L 109.84049 -60.978251 
L 111.860348 -60.695639 
L 113.880205 -61.279061 
L 115.900062 -61.382979 
L 117.919919 -60.938291 
L 119.939777 -61.041477 
L 121.959634 -61.525661 
L 123.979491 -62.17262 
L 125.999348 -61.612693 
L 128.019206 -61.905957 
L 130.039063 -61.812076 
L 132.05892 -62.069324 
L 134.078778 -67.318868 
L 136.098635 -67.327328 
L 138.118492 -67.309434 
L 140.138349 -66.374879 
L 142.158207 -67.373959 
L 144.178064 -67.080014 
L 146.197921 -67.08178 
L 148.217778 -67.25119 
L 150.237636 -72.183958 
L 152.257493 -71.931274 
L 154.27735 -70.316243 
L 156.297208 -69.609815 
L 158.317065 -69.293488 
L 160.336922 -76.773711 
L 162.356779 -75.282821 
L 164.376637 -90.793361 
L 166.396494 -98.856263 
L 168.416351 -108.189204 
L 170.436209 -100.642526 
L 172.456066 -91.304615 
L 174.475923 -97.297656 
L 176.49578 -92.372629 
L 178.515638 -111.981877 
L 180.535495 -99.173871 
L 182.555352 -99.315016 
L 184.575209 -89.340639 
L 186.595067 -89.106759 
L 188.614924 -81.184184 
L 190.634781 -86.315493 
L 192.654639 -86.245493 
L 194.674496 -100.138788 
L 196.694353 -106.478248 
L 198.71421 -112.970212 
L 200.734068 -122.335121 
L 202.753925 -109.714316 
L 204.773782 -125.962867 
L 206.793639 -145.755299 
L 208.813497 -131.364469 
L 210.833354 -120.628214 
L 212.853211 -124.793773 
L 214.873069 -127.174928 
L 216.892926 -123.846743 
L 218.912783 -115.680558 
L 220.93264 -101.546144 
L 222.952498 -110.245066 
L 224.972355 -108.344388 
L 226.992212 -106.381737 
L 229.01207 -136.025433 
L 231.031927 -111.829629 
L 233.051784 -118.84956 
L 235.071641 -126.019655 
L 237.091499 -115.228825 
L 239.111356 -124.529573 
L 241.131213 -123.675616 
L 243.15107 -115.416182 
L 245.170928 -105.302467 
L 247.190785 -97.384532 
L 249.210642 -95.22048 
L 251.2305 -87.579749 
L 253.250357 -81.411818 
L 255.270214 -84.363915 
L 257.290071 -94.275502 
L 259.309929 -91.504837 
L 261.329786 -84.6736 
L 263.349643 -87.74149 
L 265.3695 -94.032254 
L 267.389358 -93.296761 
L 269.409215 -89.710202 
L 271.429072 -91.5573 
L 273.44893 -86.221611 
L 275.468787 -82.072394 
L 277.488644 -94.501593 
L 279.508501 -89.874115 
L 281.528359 -92.781336 
L 283.548216 -91.994219 
L 285.568073 -87.256421 
L 287.58793 -86.478031 
L 289.607788 -81.608296 
L 291.627645 -81.162137 
L 293.647502 -85.905196 
L 295.66736 -80.523756 
L 297.687217 -75.276018 
L 299.707074 -82.1635 
L 301.726931 -82.809588 
L 303.746789 -83.038169 
L 305.766646 -79.621846 
L 307.786503 -72.940904 
L 309.806361 -74.368337 
L 311.826218 -73.813277 
L 313.846075 -71.738758 
L 315.865932 -67.968708 
L 317.88579 -67.772839 
L 319.905647 -69.450921 
L 321.925504 -69.637821 
L 323.945361 -67.101035 
L 325.965219 -66.821948 
L 327.985076 -65.950848 
L 330.004933 -66.399615 
L 332.024791 -62.540483 
L 334.044648 -61.633862 
L 336.064505 -60.65441 
L 338.084362 -60.445746 
L 340.10422 -59.572863 
L 342.124077 -58.376256 
L 344.143934 -58.818023 
L 346.163791 -57.367075 
L 348.183649 -55.578741 
L 350.203506 -55.440001 
L 352.223363 -56.011455 
L 354.243221 -55.823678 
L 356.263078 -55.440001 
L 358.282935 -55.44 
L 360.302792 -55.44 
L 362.32265 -55.44 
L 364.342507 -55.44 
L 366.362364 -55.44 
L 368.382222 -55.44 
L 370.402079 -55.44 
L 372.421936 -55.44 
L 374.441793 -55.44 
L 376.461651 -55.44 
L 378.481508 -55.44 
L 380.501365 -55.44 
L 382.521222 -55.44 
L 384.54108 -55.44 
L 386.560937 -55.44 
L 388.580794 -55.44 
L 390.600652 -55.44 
L 392.620509 -55.44 
L 394.640366 -55.44 
L 396.660223 -55.44 
L 398.680081 -55.44 
L 400.699938 -55.44 
L 402.719795 -55.44 
L 404.739652 -55.44 
L 406.75951 -55.44 
L 408.779367 -55.44 
L 410.799224 -55.44 
L 412.819082 -55.44 
L 414.838939 -55.44 
L 416.858796 -55.44 
L 418.878653 -55.44 
L 420.898511 -55.44 
L 422.918368 -55.44 
L 424.938225 -55.44 
L 426.958083 -55.44 
L 428.97794 -55.44 
L 430.997797 -55.44 
L 433.017654 -55.44 
L 435.037512 -55.44 
L 435.037512 -61.096205 
L 435.037512 -61.096205 
L 433.017654 -61.038448 
L 430.997797 -60.91024 
L 428.97794 -61.549117 
L 426.958083 -60.834518 
L 424.938225 -61.290612 
L 422.918368 -60.931731 
L 420.898511 -61.143739 
L 418.878653 -60.852548 
L 416.858796 -60.567992 
L 414.838939 -60.246698 
L 412.819082 -60.057909 
L 410.799224 -59.786624 
L 408.779367 -60.12238 
L 406.75951 -59.997945 
L 404.739652 -59.910179 
L 402.719795 -59.245236 
L 400.699938 -59.326342 
L 398.680081 -59.291509 
L 396.660223 -59.172935 
L 394.640366 -58.756135 
L 392.620509 -58.990937 
L 390.600652 -58.905089 
L 388.580794 -58.988423 
L 386.560937 -58.710763 
L 384.54108 -58.699656 
L 382.521222 -58.56346 
L 380.501365 -58.592997 
L 378.481508 -58.237868 
L 376.461651 -58.23509 
L 374.441793 -58.150041 
L 372.421936 -58.48996 
L 370.402079 -58.476419 
L 368.382222 -58.581692 
L 366.362364 -58.773191 
L 364.342507 -59.193759 
L 362.32265 -59.718823 
L 360.302792 -60.055101 
L 358.282935 -60.799589 
L 356.263078 -61.925557 
L 354.243221 -63.551613 
L 352.223363 -63.410939 
L 350.203506 -62.271458 
L 348.183649 -64.70332 
L 346.163791 -67.82181 
L 344.143934 -70.363989 
L 342.124077 -69.341836 
L 340.10422 -72.328453 
L 338.084362 -74.238571 
L 336.064505 -74.268948 
L 334.044648 -76.466967 
L 332.024791 -78.264309 
L 330.004933 -88.364232 
L 327.985076 -86.365053 
L 325.965219 -89.637711 
L 323.945361 -88.534521 
L 321.925504 -97.100992 
L 319.905647 -94.70188 
L 317.88579 -90.134301 
L 315.865932 -91.493454 
L 313.846075 -100.74127 
L 311.826218 -105.678466 
L 309.806361 -105.360894 
L 307.786503 -102.10777 
L 305.766646 -118.676677 
L 303.746789 -127.672357 
L 301.726931 -126.600468 
L 299.707074 -125.048035 
L 297.687217 -109.968106 
L 295.66736 -123.586009 
L 293.647502 -135.956206 
L 291.627645 -123.312494 
L 289.607788 -125.172779 
L 287.58793 -136.456691 
L 285.568073 -139.564181 
L 283.548216 -149.841366 
L 281.528359 -154.06405 
L 279.508501 -145.433491 
L 277.488644 -157.077612 
L 275.468787 -127.868203 
L 273.44893 -139.186897 
L 271.429072 -150.205054 
L 269.409215 -147.094535 
L 267.389358 -151.347665 
L 265.3695 -155.072071 
L 263.349643 -141.324011 
L 261.329786 -135.832746 
L 259.309929 -154.771093 
L 257.290071 -164.456395 
L 255.270214 -137.474842 
L 253.250357 -131.342224 
L 251.2305 -144.537325 
L 249.210642 -163.857409 
L 247.190785 -173.727007 
L 245.170928 -190.432949 
L 243.15107 -218.309945 
L 241.131213 -244.347677 
L 239.111356 -241.36439 
L 237.091499 -222.313214 
L 235.071641 -252.321159 
L 233.051784 -233.952154 
L 231.031927 -214.230496 
L 229.01207 -281.526165 
L 226.992212 -209.462226 
L 224.972355 -218.908921 
L 222.952498 -231.959011 
L 220.93264 -206.382916 
L 218.912783 -243.677459 
L 216.892926 -275.512666 
L 214.873069 -291.361959 
L 212.853211 -293.009311 
L 210.833354 -295.524298 
L 208.813497 -323.644474 
L 206.793639 -370.017152 
L 204.773782 -325.310114 
L 202.753925 -286.191926 
L 200.734068 -329.732661 
L 198.71421 -296.280098 
L 196.694353 -279.01093 
L 194.674496 -258.200974 
L 192.654639 -213.727373 
L 190.634781 -220.07002 
L 188.614924 -203.332879 
L 186.595067 -229.757677 
L 184.575209 -242.385674 
L 182.555352 -289.859538 
L 180.535495 -308.097902 
L 178.515638 -389.184677 
L 176.49578 -290.271621 
L 174.475923 -344.116781 
L 172.456066 -324.82288 
L 170.436209 -376.372379 
L 168.416351 -425.04 
L 166.396494 -408.32328 
L 164.376637 -359.133453 
L 162.356779 -264.407662 
L 160.336922 -273.694609 
L 158.317065 -229.957009 
L 156.297208 -239.325583 
L 154.27735 -252.772716 
L 152.257493 -267.987167 
L 150.237636 -283.095312 
L 148.217778 -215.658171 
L 146.197921 -218.503604 
L 144.178064 -227.735839 
L 142.158207 -222.201156 
L 140.138349 -218.875336 
L 138.118492 -212.653159 
L 136.098635 -212.286201 
L 134.078778 -203.079684 
L 132.05892 -156.911806 
L 130.039063 -159.07554 
L 128.019206 -151.600031 
L 125.999348 -155.352983 
L 123.979491 -157.680567 
L 121.959634 -148.035979 
L 119.939777 -155.537681 
L 117.919919 -156.735954 
L 115.900062 -154.660821 
L 113.880205 -153.83809 
L 111.860348 -156.287504 
L 109.84049 -153.90321 
L 107.820633 -150.819124 
L 105.800776 -157.196386 
L 103.780918 -153.988829 
L 101.761061 -146.868396 
L 99.741204 -105.534554 
L 97.721347 -101.489954 
L 95.701489 -99.860399 
L 93.681632 -95.881713 
L 91.661775 -93.276944 
L 89.641917 -88.405528 
L 87.62206 -85.545506 
L 85.602203 -82.056782 
L 83.582346 -79.646086 
L 81.562488 -78.087725 
z
" style="stroke: #0173b2; stroke-opacity: 0.3"/>
    </defs>
    <g clip-path="url(#p5e7d6ee083)">
     <use xlink:href="#mc2e8598bba" x="0" y="504" style="fill: #0173b2; fill-opacity: 0.3; stroke: #0173b2; stroke-opacity: 0.3"/>
    </g>
   </g>
   <g id="FillBetweenPolyCollection_2">
    <defs>
     <path id="m421c17ba5b" d="M 81.562488 -275.781072 
L 81.562488 -63.694145 
L 83.582346 -63.695553 
L 85.602203 -63.038424 
L 87.62206 -63.952539 
L 89.641917 -63.499749 
L 91.661775 -63.664515 
L 93.681632 -63.874847 
L 95.701489 -63.88881 
L 97.721347 -62.340639 
L 99.741204 -64.511272 
L 101.761061 -69.946574 
L 103.780918 -69.144173 
L 105.800776 -68.311803 
L 107.820633 -66.797739 
L 109.84049 -65.566188 
L 111.860348 -66.71929 
L 113.880205 -66.461495 
L 115.900062 -64.637189 
L 117.919919 -65.240344 
L 119.939777 -64.527746 
L 121.959634 -63.50787 
L 123.979491 -63.459108 
L 125.999348 -63.501069 
L 128.019206 -63.223406 
L 130.039063 -63.131709 
L 132.05892 -62.99956 
L 134.078778 -66.809612 
L 136.098635 -67.266556 
L 138.118492 -67.193894 
L 140.138349 -66.271229 
L 142.158207 -65.842268 
L 144.178064 -66.172634 
L 146.197921 -66.641239 
L 148.217778 -65.252085 
L 150.237636 -70.056277 
L 152.257493 -68.77956 
L 154.27735 -69.258051 
L 156.297208 -68.585203 
L 158.317065 -67.210519 
L 160.336922 -72.479886 
L 162.356779 -72.384501 
L 164.376637 -87.364973 
L 166.396494 -95.853141 
L 168.416351 -101.074111 
L 170.436209 -94.682673 
L 172.456066 -88.836857 
L 174.475923 -93.195109 
L 176.49578 -88.542688 
L 178.515638 -109.743029 
L 180.535495 -96.365751 
L 182.555352 -96.644986 
L 184.575209 -87.880118 
L 186.595067 -87.070247 
L 188.614924 -81.127803 
L 190.634781 -86.496205 
L 192.654639 -85.52121 
L 194.674496 -101.281843 
L 196.694353 -107.37993 
L 198.71421 -114.119934 
L 200.734068 -123.486639 
L 202.753925 -110.355315 
L 204.773782 -125.947016 
L 206.793639 -145.843762 
L 208.813497 -131.042327 
L 210.833354 -121.043824 
L 212.853211 -127.899033 
L 214.873069 -130.359371 
L 216.892926 -125.01032 
L 218.912783 -115.177126 
L 220.93264 -100.683169 
L 222.952498 -109.948006 
L 224.972355 -108.520716 
L 226.992212 -105.962469 
L 229.01207 -135.093588 
L 231.031927 -110.521041 
L 233.051784 -118.376358 
L 235.071641 -124.634218 
L 237.091499 -115.56334 
L 239.111356 -124.06337 
L 241.131213 -123.141505 
L 243.15107 -114.604834 
L 245.170928 -104.603589 
L 247.190785 -97.138357 
L 249.210642 -95.624812 
L 251.2305 -87.717342 
L 253.250357 -81.83824 
L 255.270214 -84.242288 
L 257.290071 -94.11799 
L 259.309929 -91.988823 
L 261.329786 -85.450675 
L 263.349643 -87.522765 
L 265.3695 -94.678017 
L 267.389358 -92.631608 
L 269.409215 -90.635341 
L 271.429072 -91.262115 
L 273.44893 -86.513624 
L 275.468787 -82.439291 
L 277.488644 -94.491527 
L 279.508501 -90.313077 
L 281.528359 -93.886272 
L 283.548216 -93.17205 
L 285.568073 -88.67144 
L 287.58793 -87.465423 
L 289.607788 -82.472767 
L 291.627645 -82.782 
L 293.647502 -88.509849 
L 295.66736 -82.25402 
L 297.687217 -77.4504 
L 299.707074 -84.214922 
L 301.726931 -85.530128 
L 303.746789 -85.277443 
L 305.766646 -81.968565 
L 307.786503 -75.272835 
L 309.806361 -76.809349 
L 311.826218 -76.326851 
L 313.846075 -74.073493 
L 315.865932 -70.299533 
L 317.88579 -70.082864 
L 319.905647 -72.313293 
L 321.925504 -73.262628 
L 323.945361 -69.764905 
L 325.965219 -70.382021 
L 327.985076 -69.300493 
L 330.004933 -70.122841 
L 332.024791 -65.664603 
L 334.044648 -64.731864 
L 336.064505 -63.892826 
L 338.084362 -64.113316 
L 340.10422 -63.12362 
L 342.124077 -61.907062 
L 344.143934 -62.185842 
L 346.163791 -61.040747 
L 348.183649 -59.766881 
L 350.203506 -58.953451 
L 352.223363 -59.255122 
L 354.243221 -59.13797 
L 356.263078 -58.660281 
L 358.282935 -58.201373 
L 360.302792 -58.032759 
L 362.32265 -57.818187 
L 364.342507 -57.687491 
L 366.362364 -57.539855 
L 368.382222 -57.468401 
L 370.402079 -57.361692 
L 372.421936 -57.381445 
L 374.441793 -57.218731 
L 376.461651 -57.212627 
L 378.481508 -57.194797 
L 380.501365 -57.330724 
L 382.521222 -57.198035 
L 384.54108 -57.304445 
L 386.560937 -57.370198 
L 388.580794 -57.296378 
L 390.600652 -57.336184 
L 392.620509 -57.399817 
L 394.640366 -57.563898 
L 396.660223 -57.617055 
L 398.680081 -57.623417 
L 400.699938 -57.751122 
L 402.719795 -57.686698 
L 404.739652 -57.704219 
L 406.75951 -57.575024 
L 408.779367 -57.822805 
L 410.799224 -57.857185 
L 412.819082 -57.925174 
L 414.838939 -58.016529 
L 416.858796 -58.114593 
L 418.878653 -58.113214 
L 420.898511 -58.186914 
L 422.918368 -58.435402 
L 424.938225 -58.3897 
L 426.958083 -58.381197 
L 428.97794 -58.587233 
L 430.997797 -58.702975 
L 433.017654 -58.534191 
L 435.037512 -59.003789 
L 435.037512 -115.797613 
L 435.037512 -115.797613 
L 433.017654 -113.279731 
L 430.997797 -114.557223 
L 428.97794 -108.655065 
L 426.958083 -102.457563 
L 424.938225 -100.771316 
L 422.918368 -104.641609 
L 420.898511 -99.018633 
L 418.878653 -97.211157 
L 416.858796 -95.540064 
L 414.838939 -93.425744 
L 412.819082 -91.840541 
L 410.799224 -90.637128 
L 408.779367 -90.363914 
L 406.75951 -86.913255 
L 404.739652 -84.758231 
L 402.719795 -82.718452 
L 400.699938 -82.146811 
L 398.680081 -80.719158 
L 396.660223 -78.278361 
L 394.640366 -77.58193 
L 392.620509 -75.703868 
L 390.600652 -74.227565 
L 388.580794 -73.411817 
L 386.560937 -72.863762 
L 384.54108 -71.969542 
L 382.521222 -70.224397 
L 380.501365 -70.444446 
L 378.481508 -69.503436 
L 376.461651 -68.7974 
L 374.441793 -68.686706 
L 372.421936 -68.356601 
L 370.402079 -68.229339 
L 368.382222 -68.118422 
L 366.362364 -67.680453 
L 364.342507 -68.135747 
L 362.32265 -68.070402 
L 360.302792 -68.771542 
L 358.282935 -68.970221 
L 356.263078 -70.503828 
L 354.243221 -71.667064 
L 352.223363 -72.034768 
L 350.203506 -70.545459 
L 348.183649 -72.211972 
L 346.163791 -75.712647 
L 344.143934 -79.325107 
L 342.124077 -78.071544 
L 340.10422 -80.391292 
L 338.084362 -83.034548 
L 336.064505 -83.056186 
L 334.044648 -84.912969 
L 332.024791 -87.053516 
L 330.004933 -98.224911 
L 327.985076 -95.943303 
L 325.965219 -97.179199 
L 323.945361 -96.782171 
L 321.925504 -104.227302 
L 319.905647 -101.790477 
L 317.88579 -96.357299 
L 315.865932 -97.420728 
L 313.846075 -106.894744 
L 311.826218 -111.700746 
L 309.806361 -112.119565 
L 307.786503 -108.688066 
L 305.766646 -125.035304 
L 303.746789 -132.789645 
L 301.726931 -132.883357 
L 299.707074 -129.846151 
L 297.687217 -111.992395 
L 295.66736 -126.990136 
L 293.647502 -139.506684 
L 291.627645 -127.159715 
L 289.607788 -127.142492 
L 287.58793 -137.801231 
L 285.568073 -139.336537 
L 283.548216 -152.465852 
L 281.528359 -154.796867 
L 279.508501 -147.041175 
L 277.488644 -155.414433 
L 275.468787 -129.082221 
L 273.44893 -138.438312 
L 271.429072 -150.211648 
L 269.409215 -147.648342 
L 267.389358 -153.62692 
L 265.3695 -160.068705 
L 263.349643 -141.311288 
L 261.329786 -136.334396 
L 259.309929 -152.762733 
L 257.290071 -161.500636 
L 255.270214 -136.650403 
L 253.250357 -129.641685 
L 251.2305 -146.41578 
L 249.210642 -165.767007 
L 247.190785 -169.93913 
L 245.170928 -186.486676 
L 243.15107 -218.718533 
L 241.131213 -239.356366 
L 239.111356 -238.787028 
L 237.091499 -222.457468 
L 235.071641 -250.840738 
L 233.051784 -236.23516 
L 231.031927 -219.827406 
L 229.01207 -287.246871 
L 226.992212 -209.146837 
L 224.972355 -219.616399 
L 222.952498 -232.118385 
L 220.93264 -210.02445 
L 218.912783 -252.126336 
L 216.892926 -273.785562 
L 214.873069 -289.793374 
L 212.853211 -302.723758 
L 210.833354 -288.230262 
L 208.813497 -338.609972 
L 206.793639 -366.897483 
L 204.773782 -322.117034 
L 202.753925 -282.716301 
L 200.734068 -330.475374 
L 198.71421 -300.363659 
L 196.694353 -279.446905 
L 194.674496 -261.376289 
L 192.654639 -212.240396 
L 190.634781 -220.025787 
L 188.614924 -202.696244 
L 186.595067 -223.708055 
L 184.575209 -240.2226 
L 182.555352 -285.717338 
L 180.535495 -292.85094 
L 178.515638 -376.79808 
L 176.49578 -281.227906 
L 174.475923 -333.603069 
L 172.456066 -314.951362 
L 170.436209 -350.490635 
L 168.416351 -419.54774 
L 166.396494 -358.786995 
L 164.376637 -334.188215 
L 162.356779 -231.421246 
L 160.336922 -245.886016 
L 158.317065 -202.625378 
L 156.297208 -209.424794 
L 154.27735 -220.317007 
L 152.257493 -239.902507 
L 150.237636 -241.296375 
L 148.217778 -189.396018 
L 146.197921 -193.906208 
L 144.178064 -195.725154 
L 142.158207 -195.198887 
L 140.138349 -194.487812 
L 138.118492 -196.820783 
L 136.098635 -193.806653 
L 134.078778 -204.772543 
L 132.05892 -158.573821 
L 130.039063 -158.677613 
L 128.019206 -158.806293 
L 125.999348 -166.238005 
L 123.979491 -171.698903 
L 121.959634 -168.253364 
L 119.939777 -178.629226 
L 117.919919 -188.931542 
L 115.900062 -197.995128 
L 113.880205 -194.349322 
L 111.860348 -207.347361 
L 109.84049 -209.947807 
L 107.820633 -226.176103 
L 105.800776 -248.485996 
L 103.780918 -265.425945 
L 101.761061 -280.452891 
L 99.741204 -222.357618 
L 97.721347 -222.098889 
L 95.701489 -254.400415 
L 93.681632 -250.651699 
L 91.661775 -248.102559 
L 89.641917 -239.417841 
L 87.62206 -293.392906 
L 85.602203 -245.243361 
L 83.582346 -274.233559 
L 81.562488 -275.781072 
z
" style="stroke: #de8f05; stroke-opacity: 0.3"/>
    </defs>
    <g clip-path="url(#p5e7d6ee083)">
     <use xlink:href="#m421c17ba5b" x="0" y="504" style="fill: #de8f05; fill-opacity: 0.3; stroke: #de8f05; stroke-opacity: 0.3"/>
    </g>
   </g>
   <g id="matplotlib.axis_1">
    <g id="xtick_1">
     <g id="line2d_1">
      <defs>
       <path id="mb16d3832db" d="M 0 0 
L 0 3.5 
" style="stroke: #000000; stroke-width: 0.8"/>
      </defs>
      <g>
       <use xlink:href="#mb16d3832db" x="81.562488" y="448.56" style="stroke: #000000; stroke-width: 0.8"/>
      </g>
     </g>
     <g id="text_1">
      <text style="font-size: 16px; font-family: 'Arial', sans-serif; text-anchor: middle" x="81.562488" y="467.0125" transform="rotate(-0 81.562488 467.0125)">1 Jun</text>
     </g>
    </g>
    <g id="xtick_2">
     <g id="line2d_2">
      <g>
       <use xlink:href="#mb16d3832db" x="142.158207" y="448.56" style="stroke: #000000; stroke-width: 0.8"/>
      </g>
     </g>
     <g id="text_2">
      <text style="font-size: 16px; font-family: 'Arial', sans-serif; text-anchor: middle" x="142.158207" y="467.0125" transform="rotate(-0 142.158207 467.0125)">1 Jul</text>
     </g>
    </g>
    <g id="xtick_3">
     <g id="line2d_3">
      <g>
       <use xlink:href="#mb16d3832db" x="204.773782" y="448.56" style="stroke: #000000; stroke-width: 0.8"/>
      </g>
     </g>
     <g id="text_3">
      <text style="font-size: 16px; font-family: 'Arial', sans-serif; text-anchor: middle" x="204.773782" y="467.06" transform="rotate(-0 204.773782 467.06)">1 Aug</text>
     </g>
    </g>
    <g id="xtick_4">
     <g id="line2d_4">
      <g>
       <use xlink:href="#mb16d3832db" x="267.389358" y="448.56" style="stroke: #000000; stroke-width: 0.8"/>
      </g>
     </g>
     <g id="text_4">
      <text style="font-size: 16px; font-family: 'Arial', sans-serif; text-anchor: middle" x="267.389358" y="467.2075" transform="rotate(-0 267.389358 467.2075)">1 Sep</text>
     </g>
    </g>
    <g id="xtick_5">
     <g id="line2d_5">
      <g>
       <use xlink:href="#mb16d3832db" x="327.985076" y="448.56" style="stroke: #000000; stroke-width: 0.8"/>
      </g>
     </g>
     <g id="text_5">
      <text style="font-size: 16px; font-family: 'Arial', sans-serif; text-anchor: middle" x="327.985076" y="467.0125" transform="rotate(-0 327.985076 467.0125)">1 Oct</text>
     </g>
    </g>
    <g id="xtick_6">
     <g id="line2d_6">
      <g>
       <use xlink:href="#mb16d3832db" x="390.600652" y="448.56" style="stroke: #000000; stroke-width: 0.8"/>
      </g>
     </g>
     <g id="text_6">
      <text style="font-size: 16px; font-family: 'Arial', sans-serif; text-anchor: middle" x="390.600652" y="467.0125" transform="rotate(-0 390.600652 467.0125)">1 Nov</text>
     </g>
    </g>
    <g id="xtick_7">
     <g id="line2d_7">
      <g>
       <use xlink:href="#mb16d3832db" x="451.19637" y="448.56" style="stroke: #000000; stroke-width: 0.8"/>
      </g>
     </g>
     <g id="text_7">
      <text style="font-size: 16px; font-family: 'Arial', sans-serif; text-anchor: middle" x="451.19637" y="467.0125" transform="rotate(-0 451.19637 467.0125)">1 Dec</text>
     </g>
    </g>
   </g>
   <g id="matplotlib.axis_2">
    <g id="ytick_1">
     <g id="line2d_8">
      <defs>
       <path id="m1b6b7c0f77" d="M 0 0 
L -3.5 0 
" style="stroke: #000000; stroke-width: 0.8"/>
      </defs>
      <g>
       <use xlink:href="#m1b6b7c0f77" x="63" y="448.56" style="stroke: #000000; stroke-width: 0.8"/>
      </g>
     </g>
     <g id="text_8">
      <text style="font-size: 16px; font-family: 'Arial', sans-serif; text-anchor: end" x="56" y="454.28625" transform="rotate(-0 56 454.28625)">0</text>
     </g>
    </g>
    <g id="ytick_2">
     <g id="line2d_9">
      <g>
       <use xlink:href="#m1b6b7c0f77" x="63" y="364.952747" style="stroke: #000000; stroke-width: 0.8"/>
      </g>
     </g>
     <g id="text_9">
      <text style="font-size: 16px; font-family: 'Arial', sans-serif; text-anchor: end" x="56" y="370.678997" transform="rotate(-0 56 370.678997)">2</text>
     </g>
    </g>
    <g id="ytick_3">
     <g id="line2d_10">
      <g>
       <use xlink:href="#m1b6b7c0f77" x="63" y="281.345494" style="stroke: #000000; stroke-width: 0.8"/>
      </g>
     </g>
     <g id="text_10">
      <text style="font-size: 16px; font-family: 'Arial', sans-serif; text-anchor: end" x="56" y="287.071744" transform="rotate(-0 56 287.071744)">4</text>
     </g>
    </g>
    <g id="ytick_4">
     <g id="line2d_11">
      <g>
       <use xlink:href="#m1b6b7c0f77" x="63" y="197.738242" style="stroke: #000000; stroke-width: 0.8"/>
      </g>
     </g>
     <g id="text_11">
      <text style="font-size: 16px; font-family: 'Arial', sans-serif; text-anchor: end" x="56" y="203.464492" transform="rotate(-0 56 203.464492)">6</text>
     </g>
    </g>
    <g id="ytick_5">
     <g id="line2d_12">
      <g>
       <use xlink:href="#m1b6b7c0f77" x="63" y="114.130989" style="stroke: #000000; stroke-width: 0.8"/>
      </g>
     </g>
     <g id="text_12">
      <text style="font-size: 16px; font-family: 'Arial', sans-serif; text-anchor: end" x="56" y="119.857239" transform="rotate(-0 56 119.857239)">8</text>
     </g>
    </g>
    <g id="text_13">
     <text style="font-size: 16px; font-family: 'Arial', sans-serif; text-anchor: middle" x="39.9225" y="254.52" transform="rotate(-90 39.9225 254.52)">Time-dependent reproduction number</text>
    </g>
   </g>
   <g id="line2d_13">
    <path d="M 81.562488 443.317456 
L 87.62206 441.194963 
L 91.661775 438.924917 
L 93.681632 438.065291 
L 99.741204 434.828774 
L 101.761061 421.595877 
L 103.780918 420.075219 
L 105.800776 419.328409 
L 107.820633 418.80025 
L 109.84049 418.768762 
L 111.860348 417.364156 
L 113.880205 417.359614 
L 115.900062 415.64934 
L 117.919919 415.988503 
L 119.939777 415.782388 
L 121.959634 416.547929 
L 123.979491 414.672767 
L 125.999348 415.411066 
L 128.019206 415.310476 
L 130.039063 414.633938 
L 132.05892 413.646152 
L 134.078778 395.329389 
L 136.098635 394.418134 
L 138.118492 393.768129 
L 140.138349 394.226248 
L 142.158207 393.012759 
L 144.178064 390.688528 
L 146.197921 392.403721 
L 148.217778 392.389262 
L 150.237636 367.866287 
L 154.27735 377.489192 
L 156.297208 380.410541 
L 158.317065 385.759655 
L 160.336922 364.956927 
L 162.356779 368.958623 
L 164.376637 322.092631 
L 166.396494 301.192157 
L 168.416351 285.859474 
L 170.436209 307.276978 
L 172.456066 330.918415 
L 174.475923 321.987717 
L 176.49578 342.345719 
L 178.515638 294.545628 
L 180.535495 330.677149 
L 182.555352 337.897592 
L 184.575209 359.416866 
L 186.595067 364.15934 
L 188.614924 378.440025 
L 190.634781 368.11383 
L 192.654639 372.218943 
L 194.674496 343.065668 
L 196.694353 330.065795 
L 198.71421 320.513772 
L 200.734068 301.579153 
L 202.753925 326.976734 
L 204.773782 299.716412 
L 206.793639 270.616269 
L 208.813497 297.361836 
L 210.833354 317.159437 
L 212.853211 309.19861 
L 214.873069 312.176146 
L 216.892926 319.10384 
L 218.912783 336.615245 
L 220.93264 360.345981 
L 222.952498 345.658738 
L 226.992212 356.089623 
L 229.01207 307.875489 
L 231.031927 349.789464 
L 233.051784 337.623158 
L 235.071641 326.145265 
L 237.091499 344.249924 
L 239.111356 330.744827 
L 241.131213 331.93746 
L 243.15107 345.305285 
L 245.170928 363.630762 
L 247.190785 375.526026 
L 249.210642 379.583578 
L 251.2305 392.462304 
L 253.250357 402.139907 
L 255.270214 398.20695 
L 257.290071 381.033557 
L 259.309929 386.674691 
L 261.329786 398.26551 
L 263.349643 394.033246 
L 265.3695 383.721069 
L 267.389358 385.85141 
L 269.409215 390.258808 
L 271.429072 387.740148 
L 273.44893 395.778283 
L 275.468787 402.901956 
L 277.488644 383.994878 
L 279.508501 391.222664 
L 281.528359 385.763408 
L 283.548216 388.329532 
L 285.568073 395.205397 
L 287.58793 397.278872 
L 289.607788 404.607016 
L 291.627645 405.095393 
L 293.647502 396.921038 
L 295.66736 405.895252 
L 297.687217 414.147094 
L 299.707074 404.198742 
L 301.726931 402.434386 
L 303.746789 403.051613 
L 305.766646 408.197957 
L 307.786503 418.750542 
L 309.806361 416.99221 
L 311.826218 417.194203 
L 313.846075 420.33502 
L 315.865932 426.607214 
L 317.88579 427.168818 
L 319.905647 424.098209 
L 321.925504 423.204256 
L 323.945361 428.126901 
L 325.965219 427.954999 
L 327.985076 429.584932 
L 330.004933 428.575163 
L 332.024791 435.166429 
L 336.064505 437.899918 
L 338.084362 438.030402 
L 340.10422 439.518452 
L 342.124077 441.256118 
L 344.143934 440.753525 
L 346.163791 442.520339 
L 348.183649 444.449716 
L 350.203506 445.962227 
L 352.223363 445.031244 
L 354.243221 445.153186 
L 356.263078 446.099173 
L 358.282935 446.811592 
L 360.302792 447.273153 
L 364.342507 447.763231 
L 368.382222 448.024138 
L 374.441793 448.181229 
L 416.858796 447.888631 
L 420.898511 447.829285 
L 430.997797 447.811353 
L 435.037512 447.804725 
L 435.037512 447.804725 
" clip-path="url(#p5e7d6ee083)" style="fill: none; stroke: #0173b2; stroke-width: 2; stroke-linecap: square"/>
   </g>
   <g id="line2d_14">
    <path d="M 81.562488 388.766027 
L 83.582346 388.61342 
L 85.602203 392.922795 
L 87.62206 391.35876 
L 89.641917 394.898506 
L 91.661775 392.685501 
L 93.681632 391.614521 
L 95.701489 391.533821 
L 97.721347 397.446458 
L 99.741204 397.997909 
L 101.761061 373.530053 
L 103.780918 376.590526 
L 105.800776 382.314258 
L 107.820633 390.467679 
L 109.84049 395.087267 
L 111.860348 395.522542 
L 115.900062 400.813646 
L 117.919919 402.695687 
L 119.939777 405.214817 
L 121.959634 408.142196 
L 123.979491 407.436069 
L 125.999348 410.0674 
L 128.019206 411.86319 
L 130.039063 412.22869 
L 132.05892 412.970318 
L 134.078778 394.76355 
L 136.098635 397.050718 
L 138.118492 397.682775 
L 140.138349 398.660264 
L 142.158207 399.07705 
L 144.178064 399.623633 
L 146.197921 399.446729 
L 148.217778 401.366278 
L 150.237636 381.928398 
L 152.257493 384.537866 
L 154.27735 388.055824 
L 156.297208 391.167668 
L 158.317065 395.203158 
L 160.336922 377.493304 
L 162.356779 382.053667 
L 164.376637 334.902824 
L 166.396494 314.764108 
L 168.416351 296.865949 
L 170.436209 322.693125 
L 172.456066 336.383456 
L 174.475923 327.154854 
L 176.49578 348.743997 
L 178.515638 298.810981 
L 180.535495 334.225444 
L 182.555352 338.962716 
L 184.575209 360.368203 
L 186.595067 365.484954 
L 188.614924 378.406826 
L 190.634781 368.428215 
L 192.654639 371.830835 
L 194.674496 341.936989 
L 196.694353 329.994627 
L 198.71421 319.683331 
L 200.734068 301.87878 
L 202.753925 326.827722 
L 206.793639 270.266705 
L 210.833354 314.852379 
L 212.853211 307.047695 
L 214.873069 310.67014 
L 216.892926 319.256976 
L 218.912783 334.908621 
L 220.93264 360.240829 
L 222.952498 345.039349 
L 224.972355 350.355336 
L 226.992212 356.897177 
L 229.01207 308.402614 
L 231.031927 349.007557 
L 233.051784 338.470258 
L 235.071641 326.485068 
L 237.091499 344.938239 
L 239.111356 331.550334 
L 241.131213 332.452588 
L 243.15107 346.381681 
L 245.170928 364.571256 
L 247.190785 376.025752 
L 249.210642 379.675806 
L 251.2305 392.328524 
L 253.250357 402.33592 
L 255.270214 397.730894 
L 257.290071 381.928192 
L 259.309929 386.937109 
L 261.329786 397.744225 
L 263.349643 394.182235 
L 265.3695 382.920557 
L 267.389358 385.833083 
L 269.409215 389.978092 
L 271.429072 387.693303 
L 275.468787 402.982501 
L 277.488644 383.654915 
L 279.508501 389.758164 
L 281.528359 384.837841 
L 283.548216 386.647459 
L 285.568073 394.206565 
L 287.58793 395.490832 
L 289.607788 403.004681 
L 291.627645 403.138502 
L 293.647502 394.363312 
L 297.687217 412.038615 
L 299.707074 400.729961 
L 301.726931 398.530358 
L 303.746789 398.937235 
L 305.766646 404.054442 
L 307.786503 414.992384 
L 309.806361 412.592202 
L 311.826218 412.732224 
L 313.846075 416.209436 
L 315.865932 422.582216 
L 317.88579 422.955976 
L 319.905647 419.305195 
L 321.925504 417.79347 
L 323.945361 423.140864 
L 325.965219 422.641746 
L 327.985076 423.910441 
L 330.004933 422.256937 
L 332.024791 429.675982 
L 334.044648 431.031915 
L 336.064505 432.532851 
L 338.084362 432.447023 
L 340.10422 434.175764 
L 342.124077 435.660156 
L 344.143934 435.04476 
L 346.163791 437.010502 
L 348.183649 439.239688 
L 350.203506 440.749303 
L 352.223363 439.876031 
L 354.243221 440.21295 
L 358.282935 441.819457 
L 362.32265 442.548816 
L 366.362364 442.834486 
L 376.461651 442.826808 
L 384.54108 442.014234 
L 386.560937 441.732765 
L 388.580794 441.627294 
L 392.620509 441.005199 
L 394.640366 440.316091 
L 404.739652 438.457598 
L 406.75951 437.689358 
L 408.779367 437.249855 
L 410.799224 436.595297 
L 412.819082 436.413701 
L 414.838939 436.091733 
L 416.858796 435.424451 
L 418.878653 435.074591 
L 420.898511 434.393176 
L 422.918368 433.218566 
L 426.958083 433.124526 
L 430.997797 430.879611 
L 433.017654 431.078478 
L 435.037512 429.617021 
L 435.037512 429.617021 
" clip-path="url(#p5e7d6ee083)" style="fill: none; stroke: #de8f05; stroke-width: 2; stroke-linecap: square"/>
   </g>
   <g id="line2d_15">
    <path d="M 81.562488 437.966332 
L 83.582346 436.029998 
L 85.602203 437.455647 
L 89.641917 430.148402 
L 91.661775 424.846561 
L 93.681632 423.910817 
L 97.721347 418.878681 
L 99.741204 418.033423 
L 103.780918 414.549349 
L 107.820633 406.516912 
L 109.84049 401.138013 
L 111.860348 398.13181 
L 113.880205 396.433989 
L 117.919919 387.722185 
L 119.939777 382.893088 
L 121.959634 377.23796 
L 123.979491 374.219196 
L 125.999348 369.363401 
L 128.019206 367.105225 
L 130.039063 363.137977 
L 132.05892 358.524617 
L 134.078778 355.219533 
L 136.098635 351.615114 
L 138.118492 350.342082 
L 140.138349 348.233706 
L 142.158207 345.136736 
L 144.178064 344.02309 
L 146.197921 342.562406 
L 148.217778 336.732133 
L 150.237636 334.240091 
L 152.257493 333.409871 
L 154.27735 333.069423 
L 156.297208 329.553687 
L 158.317065 332.091759 
L 160.336922 331.356178 
L 162.356779 329.49785 
L 164.376637 329.547338 
L 166.396494 328.297416 
L 168.416351 329.398226 
L 170.436209 329.088054 
L 174.475923 328.940037 
L 176.49578 328.851447 
L 178.515638 329.008506 
L 180.535495 327.724974 
L 182.555352 328.58817 
L 184.575209 329.934313 
L 188.614924 331.820075 
L 190.634781 334.472259 
L 192.654639 337.707172 
L 194.674496 340.126569 
L 196.694353 340.143249 
L 198.71421 341.418758 
L 200.734068 342.275607 
L 202.753925 338.594205 
L 204.773782 337.426231 
L 206.793639 338.10191 
L 208.813497 339.299511 
L 210.833354 337.635374 
L 212.853211 338.972534 
L 214.873069 337.402062 
L 216.892926 336.713647 
L 218.912783 334.866917 
L 220.93264 335.943406 
L 222.952498 334.654304 
L 224.972355 337.116566 
L 226.992212 337.161654 
L 229.01207 335.392955 
L 231.031927 334.15656 
L 233.051784 336.413437 
L 235.071641 335.027919 
L 237.091499 333.960168 
L 239.111356 333.681458 
L 241.131213 334.273184 
L 243.15107 391.348563 
L 245.170928 391.43958 
L 247.190785 390.478541 
L 249.210642 389.911385 
L 251.2305 388.935271 
L 253.250357 388.243208 
L 255.270214 388.955774 
L 257.290071 388.692287 
L 259.309929 387.099751 
L 261.329786 387.858995 
L 263.349643 387.687601 
L 267.389358 389.032228 
L 269.409215 389.110767 
L 271.429072 388.704351 
L 273.44893 388.549297 
L 275.468787 388.742208 
L 277.488644 388.709409 
L 279.508501 390.627203 
L 281.528359 390.892884 
L 283.548216 391.586756 
L 287.58793 394.027255 
L 289.607788 395.92424 
L 291.627645 396.541413 
L 293.647502 398.620708 
L 295.66736 401.243586 
L 297.687217 402.912808 
L 299.707074 405.125413 
L 301.726931 407.011377 
L 303.746789 407.89663 
L 305.766646 410.057468 
L 307.786503 412.033184 
L 309.806361 412.523497 
L 311.826218 415.672588 
L 313.846075 417.610677 
L 315.865932 418.974243 
L 317.88579 420.074896 
L 319.905647 420.636293 
L 321.925504 423.233537 
L 323.945361 424.88915 
L 325.965219 426.976092 
L 330.004933 431.612326 
L 332.024791 434.39799 
L 334.044648 435.773308 
L 336.064505 436.782393 
L 338.084362 438.976419 
L 340.10422 439.781305 
L 342.124077 441.418325 
L 344.143934 443.268306 
L 346.163791 446.131461 
L 348.183649 446.237047 
L 350.203506 446.540453 
L 354.243221 448.412148 
L 356.263078 448.56 
L 426.958083 448.56 
L 428.97794 448.427952 
L 430.997797 447.07272 
L 433.017654 446.346462 
L 435.037512 447.590211 
L 435.037512 447.590211 
" clip-path="url(#p5e7d6ee083)" style="fill: none; stroke: #000000; stroke-width: 2; stroke-linecap: square"/>
   </g>
   <g id="patch_3">
    <path d="M 63 448.56 
L 63 60.48 
" style="fill: none; stroke: #000000; stroke-width: 0.8; stroke-linejoin: miter; stroke-linecap: square"/>
   </g>
   <g id="patch_4">
    <path d="M 63 448.56 
L 453.6 448.56 
" style="fill: none; stroke: #000000; stroke-width: 0.8; stroke-linejoin: miter; stroke-linecap: square"/>
   </g>
   <g id="legend_1">
    <g id="patch_5">
     <path d="M 296.281563 131.589063 
L 443.8 131.589063 
Q 446.6 131.589063 446.6 128.789062 
L 446.6 70.28 
Q 446.6 67.48 443.8 67.48 
L 296.281563 67.48 
Q 293.481562 67.48 293.481562 70.28 
L 293.481562 128.789062 
Q 293.481562 131.589063 296.281563 131.589063 
z
" style="fill: #ffffff; opacity: 0.8; stroke: #cccccc; stroke-linejoin: miter"/>
    </g>
    <g id="line2d_16">
     <path d="M 299.081563 78.371563 
L 313.081563 78.371563 
L 327.081563 78.371563 
" style="fill: none; stroke: #0173b2; stroke-width: 2; stroke-linecap: square"/>
    </g>
    <g id="text_14">
     <text style="font-size: 14px; font-family: 'Arial', sans-serif; text-anchor: start" x="338.281563" y="83.271563" transform="rotate(-0 338.281563 83.271563)">Suitability-based</text>
    </g>
    <g id="line2d_17">
     <path d="M 299.081563 98.339063 
L 313.081563 98.339063 
L 327.081563 98.339063 
" style="fill: none; stroke: #de8f05; stroke-width: 2; stroke-linecap: square"/>
    </g>
    <g id="text_15">
     <text style="font-size: 14px; font-family: 'Arial', sans-serif; text-anchor: start" x="338.281563" y="103.239063" transform="rotate(-0 338.281563 103.239063)">Autoregressive</text>
    </g>
    <g id="line2d_18">
     <path d="M 299.081563 118.306563 
L 313.081563 118.306563 
L 327.081563 118.306563 
" style="fill: none; stroke: #000000; stroke-width: 2; stroke-linecap: square"/>
    </g>
    <g id="text_16">
     <text style="font-size: 14px; font-family: 'Arial', sans-serif; text-anchor: start" x="338.281563" y="123.206563" transform="rotate(-0 338.281563 123.206563)">True</text>
    </g>
   </g>
  </g>
  <g id="axes_2">
   <g id="patch_6">
    <path d="M 80.754545 448.56 
L 82.370431 448.56 
L 82.370431 434.186667 
L 80.754545 434.186667 
z
" clip-path="url(#p5e7d6ee083)" style="fill: #7f7f7f; opacity: 0.5"/>
   </g>
   <g id="patch_7">
    <path d="M 82.774403 448.56 
L 84.390289 448.56 
L 84.390289 448.56 
L 82.774403 448.56 
z
" clip-path="url(#p5e7d6ee083)" style="fill: #7f7f7f; opacity: 0.5"/>
   </g>
   <g id="patch_8">
    <path d="M 84.79426 448.56 
L 86.410146 448.56 
L 86.410146 448.56 
L 84.79426 448.56 
z
" clip-path="url(#p5e7d6ee083)" style="fill: #7f7f7f; opacity: 0.5"/>
   </g>
   <g id="patch_9">
    <path d="M 86.814117 448.56 
L 88.430003 448.56 
L 88.430003 448.56 
L 86.814117 448.56 
z
" clip-path="url(#p5e7d6ee083)" style="fill: #7f7f7f; opacity: 0.5"/>
   </g>
   <g id="patch_10">
    <path d="M 88.833975 448.56 
L 90.44986 448.56 
L 90.44986 448.56 
L 88.833975 448.56 
z
" clip-path="url(#p5e7d6ee083)" style="fill: #7f7f7f; opacity: 0.5"/>
   </g>
   <g id="patch_11">
    <path d="M 90.853832 448.56 
L 92.469718 448.56 
L 92.469718 448.56 
L 90.853832 448.56 
z
" clip-path="url(#p5e7d6ee083)" style="fill: #7f7f7f; opacity: 0.5"/>
   </g>
   <g id="patch_12">
    <path d="M 92.873689 448.56 
L 94.489575 448.56 
L 94.489575 448.56 
L 92.873689 448.56 
z
" clip-path="url(#p5e7d6ee083)" style="fill: #7f7f7f; opacity: 0.5"/>
   </g>
   <g id="patch_13">
    <path d="M 94.893546 448.56 
L 96.509432 448.56 
L 96.509432 448.56 
L 94.893546 448.56 
z
" clip-path="url(#p5e7d6ee083)" style="fill: #7f7f7f; opacity: 0.5"/>
   </g>
   <g id="patch_14">
    <path d="M 96.913404 448.56 
L 98.529289 448.56 
L 98.529289 448.56 
L 96.913404 448.56 
z
" clip-path="url(#p5e7d6ee083)" style="fill: #7f7f7f; opacity: 0.5"/>
   </g>
   <g id="patch_15">
    <path d="M 98.933261 448.56 
L 100.549147 448.56 
L 100.549147 434.186667 
L 98.933261 434.186667 
z
" clip-path="url(#p5e7d6ee083)" style="fill: #7f7f7f; opacity: 0.5"/>
   </g>
   <g id="patch_16">
    <path d="M 100.953118 448.56 
L 102.569004 448.56 
L 102.569004 448.56 
L 100.953118 448.56 
z
" clip-path="url(#p5e7d6ee083)" style="fill: #7f7f7f; opacity: 0.5"/>
   </g>
   <g id="patch_17">
    <path d="M 102.972975 448.56 
L 104.588861 448.56 
L 104.588861 448.56 
L 102.972975 448.56 
z
" clip-path="url(#p5e7d6ee083)" style="fill: #7f7f7f; opacity: 0.5"/>
   </g>
   <g id="patch_18">
    <path d="M 104.992833 448.56 
L 106.608719 448.56 
L 106.608719 448.56 
L 104.992833 448.56 
z
" clip-path="url(#p5e7d6ee083)" style="fill: #7f7f7f; opacity: 0.5"/>
   </g>
   <g id="patch_19">
    <path d="M 107.01269 448.56 
L 108.628576 448.56 
L 108.628576 448.56 
L 107.01269 448.56 
z
" clip-path="url(#p5e7d6ee083)" style="fill: #7f7f7f; opacity: 0.5"/>
   </g>
   <g id="patch_20">
    <path d="M 109.032547 448.56 
L 110.648433 448.56 
L 110.648433 448.56 
L 109.032547 448.56 
z
" clip-path="url(#p5e7d6ee083)" style="fill: #7f7f7f; opacity: 0.5"/>
   </g>
   <g id="patch_21">
    <path d="M 111.052405 448.56 
L 112.66829 448.56 
L 112.66829 448.56 
L 111.052405 448.56 
z
" clip-path="url(#p5e7d6ee083)" style="fill: #7f7f7f; opacity: 0.5"/>
   </g>
   <g id="patch_22">
    <path d="M 113.072262 448.56 
L 114.688148 448.56 
L 114.688148 448.56 
L 113.072262 448.56 
z
" clip-path="url(#p5e7d6ee083)" style="fill: #7f7f7f; opacity: 0.5"/>
   </g>
   <g id="patch_23">
    <path d="M 115.092119 448.56 
L 116.708005 448.56 
L 116.708005 448.56 
L 115.092119 448.56 
z
" clip-path="url(#p5e7d6ee083)" style="fill: #7f7f7f; opacity: 0.5"/>
   </g>
   <g id="patch_24">
    <path d="M 117.111976 448.56 
L 118.727862 448.56 
L 118.727862 448.56 
L 117.111976 448.56 
z
" clip-path="url(#p5e7d6ee083)" style="fill: #7f7f7f; opacity: 0.5"/>
   </g>
   <g id="patch_25">
    <path d="M 119.131834 448.56 
L 120.74772 448.56 
L 120.74772 448.56 
L 119.131834 448.56 
z
" clip-path="url(#p5e7d6ee083)" style="fill: #7f7f7f; opacity: 0.5"/>
   </g>
   <g id="patch_26">
    <path d="M 121.151691 448.56 
L 122.767577 448.56 
L 122.767577 448.56 
L 121.151691 448.56 
z
" clip-path="url(#p5e7d6ee083)" style="fill: #7f7f7f; opacity: 0.5"/>
   </g>
   <g id="patch_27">
    <path d="M 123.171548 448.56 
L 124.787434 448.56 
L 124.787434 448.56 
L 123.171548 448.56 
z
" clip-path="url(#p5e7d6ee083)" style="fill: #7f7f7f; opacity: 0.5"/>
   </g>
   <g id="patch_28">
    <path d="M 125.191406 448.56 
L 126.807291 448.56 
L 126.807291 448.56 
L 125.191406 448.56 
z
" clip-path="url(#p5e7d6ee083)" style="fill: #7f7f7f; opacity: 0.5"/>
   </g>
   <g id="patch_29">
    <path d="M 127.211263 448.56 
L 128.827149 448.56 
L 128.827149 448.56 
L 127.211263 448.56 
z
" clip-path="url(#p5e7d6ee083)" style="fill: #7f7f7f; opacity: 0.5"/>
   </g>
   <g id="patch_30">
    <path d="M 129.23112 448.56 
L 130.847006 448.56 
L 130.847006 448.56 
L 129.23112 448.56 
z
" clip-path="url(#p5e7d6ee083)" style="fill: #7f7f7f; opacity: 0.5"/>
   </g>
   <g id="patch_31">
    <path d="M 131.250977 448.56 
L 132.866863 448.56 
L 132.866863 434.186667 
L 131.250977 434.186667 
z
" clip-path="url(#p5e7d6ee083)" style="fill: #7f7f7f; opacity: 0.5"/>
   </g>
   <g id="patch_32">
    <path d="M 133.270835 448.56 
L 134.88672 448.56 
L 134.88672 448.56 
L 133.270835 448.56 
z
" clip-path="url(#p5e7d6ee083)" style="fill: #7f7f7f; opacity: 0.5"/>
   </g>
   <g id="patch_33">
    <path d="M 135.290692 448.56 
L 136.906578 448.56 
L 136.906578 448.56 
L 135.290692 448.56 
z
" clip-path="url(#p5e7d6ee083)" style="fill: #7f7f7f; opacity: 0.5"/>
   </g>
   <g id="patch_34">
    <path d="M 137.310549 448.56 
L 138.926435 448.56 
L 138.926435 448.56 
L 137.310549 448.56 
z
" clip-path="url(#p5e7d6ee083)" style="fill: #7f7f7f; opacity: 0.5"/>
   </g>
   <g id="patch_35">
    <path d="M 139.330406 448.56 
L 140.946292 448.56 
L 140.946292 448.56 
L 139.330406 448.56 
z
" clip-path="url(#p5e7d6ee083)" style="fill: #7f7f7f; opacity: 0.5"/>
   </g>
   <g id="patch_36">
    <path d="M 141.350264 448.56 
L 142.96615 448.56 
L 142.96615 448.56 
L 141.350264 448.56 
z
" clip-path="url(#p5e7d6ee083)" style="fill: #7f7f7f; opacity: 0.5"/>
   </g>
   <g id="patch_37">
    <path d="M 143.370121 448.56 
L 144.986007 448.56 
L 144.986007 448.56 
L 143.370121 448.56 
z
" clip-path="url(#p5e7d6ee083)" style="fill: #7f7f7f; opacity: 0.5"/>
   </g>
   <g id="patch_38">
    <path d="M 145.389978 448.56 
L 147.005864 448.56 
L 147.005864 448.56 
L 145.389978 448.56 
z
" clip-path="url(#p5e7d6ee083)" style="fill: #7f7f7f; opacity: 0.5"/>
   </g>
   <g id="patch_39">
    <path d="M 147.409836 448.56 
L 149.025721 448.56 
L 149.025721 434.186667 
L 147.409836 434.186667 
z
" clip-path="url(#p5e7d6ee083)" style="fill: #7f7f7f; opacity: 0.5"/>
   </g>
   <g id="patch_40">
    <path d="M 149.429693 448.56 
L 151.045579 448.56 
L 151.045579 448.56 
L 149.429693 448.56 
z
" clip-path="url(#p5e7d6ee083)" style="fill: #7f7f7f; opacity: 0.5"/>
   </g>
   <g id="patch_41">
    <path d="M 151.44955 448.56 
L 153.065436 448.56 
L 153.065436 448.56 
L 151.44955 448.56 
z
" clip-path="url(#p5e7d6ee083)" style="fill: #7f7f7f; opacity: 0.5"/>
   </g>
   <g id="patch_42">
    <path d="M 153.469407 448.56 
L 155.085293 448.56 
L 155.085293 448.56 
L 153.469407 448.56 
z
" clip-path="url(#p5e7d6ee083)" style="fill: #7f7f7f; opacity: 0.5"/>
   </g>
   <g id="patch_43">
    <path d="M 155.489265 448.56 
L 157.10515 448.56 
L 157.10515 448.56 
L 155.489265 448.56 
z
" clip-path="url(#p5e7d6ee083)" style="fill: #7f7f7f; opacity: 0.5"/>
   </g>
   <g id="patch_44">
    <path d="M 157.509122 448.56 
L 159.125008 448.56 
L 159.125008 434.186667 
L 157.509122 434.186667 
z
" clip-path="url(#p5e7d6ee083)" style="fill: #7f7f7f; opacity: 0.5"/>
   </g>
   <g id="patch_45">
    <path d="M 159.528979 448.56 
L 161.144865 448.56 
L 161.144865 448.56 
L 159.528979 448.56 
z
" clip-path="url(#p5e7d6ee083)" style="fill: #7f7f7f; opacity: 0.5"/>
   </g>
   <g id="patch_46">
    <path d="M 161.548836 448.56 
L 163.164722 448.56 
L 163.164722 419.813333 
L 161.548836 419.813333 
z
" clip-path="url(#p5e7d6ee083)" style="fill: #7f7f7f; opacity: 0.5"/>
   </g>
   <g id="patch_47">
    <path d="M 163.568694 448.56 
L 165.18458 448.56 
L 165.18458 434.186667 
L 163.568694 434.186667 
z
" clip-path="url(#p5e7d6ee083)" style="fill: #7f7f7f; opacity: 0.5"/>
   </g>
   <g id="patch_48">
    <path d="M 165.588551 448.56 
L 167.204437 448.56 
L 167.204437 434.186667 
L 165.588551 434.186667 
z
" clip-path="url(#p5e7d6ee083)" style="fill: #7f7f7f; opacity: 0.5"/>
   </g>
   <g id="patch_49">
    <path d="M 167.608408 448.56 
L 169.224294 448.56 
L 169.224294 448.56 
L 167.608408 448.56 
z
" clip-path="url(#p5e7d6ee083)" style="fill: #7f7f7f; opacity: 0.5"/>
   </g>
   <g id="patch_50">
    <path d="M 169.628266 448.56 
L 171.244151 448.56 
L 171.244151 448.56 
L 169.628266 448.56 
z
" clip-path="url(#p5e7d6ee083)" style="fill: #7f7f7f; opacity: 0.5"/>
   </g>
   <g id="patch_51">
    <path d="M 171.648123 448.56 
L 173.264009 448.56 
L 173.264009 434.186667 
L 171.648123 434.186667 
z
" clip-path="url(#p5e7d6ee083)" style="fill: #7f7f7f; opacity: 0.5"/>
   </g>
   <g id="patch_52">
    <path d="M 173.66798 448.56 
L 175.283866 448.56 
L 175.283866 448.56 
L 173.66798 448.56 
z
" clip-path="url(#p5e7d6ee083)" style="fill: #7f7f7f; opacity: 0.5"/>
   </g>
   <g id="patch_53">
    <path d="M 175.687837 448.56 
L 177.303723 448.56 
L 177.303723 405.44 
L 175.687837 405.44 
z
" clip-path="url(#p5e7d6ee083)" style="fill: #7f7f7f; opacity: 0.5"/>
   </g>
   <g id="patch_54">
    <path d="M 177.707695 448.56 
L 179.323581 448.56 
L 179.323581 448.56 
L 177.707695 448.56 
z
" clip-path="url(#p5e7d6ee083)" style="fill: #7f7f7f; opacity: 0.5"/>
   </g>
   <g id="patch_55">
    <path d="M 179.727552 448.56 
L 181.343438 448.56 
L 181.343438 434.186667 
L 179.727552 434.186667 
z
" clip-path="url(#p5e7d6ee083)" style="fill: #7f7f7f; opacity: 0.5"/>
   </g>
   <g id="patch_56">
    <path d="M 181.747409 448.56 
L 183.363295 448.56 
L 183.363295 448.56 
L 181.747409 448.56 
z
" clip-path="url(#p5e7d6ee083)" style="fill: #7f7f7f; opacity: 0.5"/>
   </g>
   <g id="patch_57">
    <path d="M 183.767267 448.56 
L 185.383152 448.56 
L 185.383152 434.186667 
L 183.767267 434.186667 
z
" clip-path="url(#p5e7d6ee083)" style="fill: #7f7f7f; opacity: 0.5"/>
   </g>
   <g id="patch_58">
    <path d="M 185.787124 448.56 
L 187.40301 448.56 
L 187.40301 448.56 
L 185.787124 448.56 
z
" clip-path="url(#p5e7d6ee083)" style="fill: #7f7f7f; opacity: 0.5"/>
   </g>
   <g id="patch_59">
    <path d="M 187.806981 448.56 
L 189.422867 448.56 
L 189.422867 419.813333 
L 187.806981 419.813333 
z
" clip-path="url(#p5e7d6ee083)" style="fill: #7f7f7f; opacity: 0.5"/>
   </g>
   <g id="patch_60">
    <path d="M 189.826838 448.56 
L 191.442724 448.56 
L 191.442724 434.186667 
L 189.826838 434.186667 
z
" clip-path="url(#p5e7d6ee083)" style="fill: #7f7f7f; opacity: 0.5"/>
   </g>
   <g id="patch_61">
    <path d="M 191.846696 448.56 
L 193.462581 448.56 
L 193.462581 391.066667 
L 191.846696 391.066667 
z
" clip-path="url(#p5e7d6ee083)" style="fill: #7f7f7f; opacity: 0.5"/>
   </g>
   <g id="patch_62">
    <path d="M 193.866553 448.56 
L 195.482439 448.56 
L 195.482439 405.44 
L 193.866553 405.44 
z
" clip-path="url(#p5e7d6ee083)" style="fill: #7f7f7f; opacity: 0.5"/>
   </g>
   <g id="patch_63">
    <path d="M 195.88641 448.56 
L 197.502296 448.56 
L 197.502296 405.44 
L 195.88641 405.44 
z
" clip-path="url(#p5e7d6ee083)" style="fill: #7f7f7f; opacity: 0.5"/>
   </g>
   <g id="patch_64">
    <path d="M 197.906267 448.56 
L 199.522153 448.56 
L 199.522153 391.066667 
L 197.906267 391.066667 
z
" clip-path="url(#p5e7d6ee083)" style="fill: #7f7f7f; opacity: 0.5"/>
   </g>
   <g id="patch_65">
    <path d="M 199.926125 448.56 
L 201.542011 448.56 
L 201.542011 434.186667 
L 199.926125 434.186667 
z
" clip-path="url(#p5e7d6ee083)" style="fill: #7f7f7f; opacity: 0.5"/>
   </g>
   <g id="patch_66">
    <path d="M 201.945982 448.56 
L 203.561868 448.56 
L 203.561868 376.693333 
L 201.945982 376.693333 
z
" clip-path="url(#p5e7d6ee083)" style="fill: #7f7f7f; opacity: 0.5"/>
   </g>
   <g id="patch_67">
    <path d="M 203.965839 448.56 
L 205.581725 448.56 
L 205.581725 362.32 
L 203.965839 362.32 
z
" clip-path="url(#p5e7d6ee083)" style="fill: #7f7f7f; opacity: 0.5"/>
   </g>
   <g id="patch_68">
    <path d="M 205.985697 448.56 
L 207.601582 448.56 
L 207.601582 405.44 
L 205.985697 405.44 
z
" clip-path="url(#p5e7d6ee083)" style="fill: #7f7f7f; opacity: 0.5"/>
   </g>
   <g id="patch_69">
    <path d="M 208.005554 448.56 
L 209.62144 448.56 
L 209.62144 405.44 
L 208.005554 405.44 
z
" clip-path="url(#p5e7d6ee083)" style="fill: #7f7f7f; opacity: 0.5"/>
   </g>
   <g id="patch_70">
    <path d="M 210.025411 448.56 
L 211.641297 448.56 
L 211.641297 362.32 
L 210.025411 362.32 
z
" clip-path="url(#p5e7d6ee083)" style="fill: #7f7f7f; opacity: 0.5"/>
   </g>
   <g id="patch_71">
    <path d="M 212.045268 448.56 
L 213.661154 448.56 
L 213.661154 362.32 
L 212.045268 362.32 
z
" clip-path="url(#p5e7d6ee083)" style="fill: #7f7f7f; opacity: 0.5"/>
   </g>
   <g id="patch_72">
    <path d="M 214.065126 448.56 
L 215.681011 448.56 
L 215.681011 362.32 
L 214.065126 362.32 
z
" clip-path="url(#p5e7d6ee083)" style="fill: #7f7f7f; opacity: 0.5"/>
   </g>
   <g id="patch_73">
    <path d="M 216.084983 448.56 
L 217.700869 448.56 
L 217.700869 376.693333 
L 216.084983 376.693333 
z
" clip-path="url(#p5e7d6ee083)" style="fill: #7f7f7f; opacity: 0.5"/>
   </g>
   <g id="patch_74">
    <path d="M 218.10484 448.56 
L 219.720726 448.56 
L 219.720726 405.44 
L 218.10484 405.44 
z
" clip-path="url(#p5e7d6ee083)" style="fill: #7f7f7f; opacity: 0.5"/>
   </g>
   <g id="patch_75">
    <path d="M 220.124697 448.56 
L 221.740583 448.56 
L 221.740583 319.2 
L 220.124697 319.2 
z
" clip-path="url(#p5e7d6ee083)" style="fill: #7f7f7f; opacity: 0.5"/>
   </g>
   <g id="patch_76">
    <path d="M 222.144555 448.56 
L 223.760441 448.56 
L 223.760441 347.946667 
L 222.144555 347.946667 
z
" clip-path="url(#p5e7d6ee083)" style="fill: #7f7f7f; opacity: 0.5"/>
   </g>
   <g id="patch_77">
    <path d="M 224.164412 448.56 
L 225.780298 448.56 
L 225.780298 347.946667 
L 224.164412 347.946667 
z
" clip-path="url(#p5e7d6ee083)" style="fill: #7f7f7f; opacity: 0.5"/>
   </g>
   <g id="patch_78">
    <path d="M 226.184269 448.56 
L 227.800155 448.56 
L 227.800155 189.84 
L 226.184269 189.84 
z
" clip-path="url(#p5e7d6ee083)" style="fill: #7f7f7f; opacity: 0.5"/>
   </g>
   <g id="patch_79">
    <path d="M 228.204127 448.56 
L 229.820012 448.56 
L 229.820012 376.693333 
L 228.204127 376.693333 
z
" clip-path="url(#p5e7d6ee083)" style="fill: #7f7f7f; opacity: 0.5"/>
   </g>
   <g id="patch_80">
    <path d="M 230.223984 448.56 
L 231.83987 448.56 
L 231.83987 261.706667 
L 230.223984 261.706667 
z
" clip-path="url(#p5e7d6ee083)" style="fill: #7f7f7f; opacity: 0.5"/>
   </g>
   <g id="patch_81">
    <path d="M 232.243841 448.56 
L 233.859727 448.56 
L 233.859727 232.96 
L 232.243841 232.96 
z
" clip-path="url(#p5e7d6ee083)" style="fill: #7f7f7f; opacity: 0.5"/>
   </g>
   <g id="patch_82">
    <path d="M 234.263698 448.56 
L 235.879584 448.56 
L 235.879584 304.826667 
L 234.263698 304.826667 
z
" clip-path="url(#p5e7d6ee083)" style="fill: #7f7f7f; opacity: 0.5"/>
   </g>
   <g id="patch_83">
    <path d="M 236.283556 448.56 
L 237.899442 448.56 
L 237.899442 204.213333 
L 236.283556 204.213333 
z
" clip-path="url(#p5e7d6ee083)" style="fill: #7f7f7f; opacity: 0.5"/>
   </g>
   <g id="patch_84">
    <path d="M 238.303413 448.56 
L 239.919299 448.56 
L 239.919299 218.586667 
L 238.303413 218.586667 
z
" clip-path="url(#p5e7d6ee083)" style="fill: #7f7f7f; opacity: 0.5"/>
   </g>
   <g id="patch_85">
    <path d="M 240.32327 448.56 
L 241.939156 448.56 
L 241.939156 247.333333 
L 240.32327 247.333333 
z
" clip-path="url(#p5e7d6ee083)" style="fill: #7f7f7f; opacity: 0.5"/>
   </g>
   <g id="patch_86">
    <path d="M 242.343128 448.56 
L 243.959013 448.56 
L 243.959013 290.453333 
L 242.343128 290.453333 
z
" clip-path="url(#p5e7d6ee083)" style="fill: #7f7f7f; opacity: 0.5"/>
   </g>
   <g id="patch_87">
    <path d="M 244.362985 448.56 
L 245.978871 448.56 
L 245.978871 290.453333 
L 244.362985 290.453333 
z
" clip-path="url(#p5e7d6ee083)" style="fill: #7f7f7f; opacity: 0.5"/>
   </g>
   <g id="patch_88">
    <path d="M 246.382842 448.56 
L 247.998728 448.56 
L 247.998728 261.706667 
L 246.382842 261.706667 
z
" clip-path="url(#p5e7d6ee083)" style="fill: #7f7f7f; opacity: 0.5"/>
   </g>
   <g id="patch_89">
    <path d="M 248.402699 448.56 
L 250.018585 448.56 
L 250.018585 319.2 
L 248.402699 319.2 
z
" clip-path="url(#p5e7d6ee083)" style="fill: #7f7f7f; opacity: 0.5"/>
   </g>
   <g id="patch_90">
    <path d="M 250.422557 448.56 
L 252.038442 448.56 
L 252.038442 333.573333 
L 250.422557 333.573333 
z
" clip-path="url(#p5e7d6ee083)" style="fill: #7f7f7f; opacity: 0.5"/>
   </g>
   <g id="patch_91">
    <path d="M 252.442414 448.56 
L 254.0583 448.56 
L 254.0583 247.333333 
L 252.442414 247.333333 
z
" clip-path="url(#p5e7d6ee083)" style="fill: #7f7f7f; opacity: 0.5"/>
   </g>
   <g id="patch_92">
    <path d="M 254.462271 448.56 
L 256.078157 448.56 
L 256.078157 132.346667 
L 254.462271 132.346667 
z
" clip-path="url(#p5e7d6ee083)" style="fill: #7f7f7f; opacity: 0.5"/>
   </g>
   <g id="patch_93">
    <path d="M 256.482128 448.56 
L 258.098014 448.56 
L 258.098014 218.586667 
L 256.482128 218.586667 
z
" clip-path="url(#p5e7d6ee083)" style="fill: #7f7f7f; opacity: 0.5"/>
   </g>
   <g id="patch_94">
    <path d="M 258.501986 448.56 
L 260.117872 448.56 
L 260.117872 290.453333 
L 258.501986 290.453333 
z
" clip-path="url(#p5e7d6ee083)" style="fill: #7f7f7f; opacity: 0.5"/>
   </g>
   <g id="patch_95">
    <path d="M 260.521843 448.56 
L 262.137729 448.56 
L 262.137729 204.213333 
L 260.521843 204.213333 
z
" clip-path="url(#p5e7d6ee083)" style="fill: #7f7f7f; opacity: 0.5"/>
   </g>
   <g id="patch_96">
    <path d="M 262.5417 448.56 
L 264.157586 448.56 
L 264.157586 132.346667 
L 262.5417 132.346667 
z
" clip-path="url(#p5e7d6ee083)" style="fill: #7f7f7f; opacity: 0.5"/>
   </g>
   <g id="patch_97">
    <path d="M 264.561558 448.56 
L 266.177443 448.56 
L 266.177443 189.84 
L 264.561558 189.84 
z
" clip-path="url(#p5e7d6ee083)" style="fill: #7f7f7f; opacity: 0.5"/>
   </g>
   <g id="patch_98">
    <path d="M 266.581415 448.56 
L 268.197301 448.56 
L 268.197301 218.586667 
L 266.581415 218.586667 
z
" clip-path="url(#p5e7d6ee083)" style="fill: #7f7f7f; opacity: 0.5"/>
   </g>
   <g id="patch_99">
    <path d="M 268.601272 448.56 
L 270.217158 448.56 
L 270.217158 175.466667 
L 268.601272 175.466667 
z
" clip-path="url(#p5e7d6ee083)" style="fill: #7f7f7f; opacity: 0.5"/>
   </g>
   <g id="patch_100">
    <path d="M 270.621129 448.56 
L 272.237015 448.56 
L 272.237015 247.333333 
L 270.621129 247.333333 
z
" clip-path="url(#p5e7d6ee083)" style="fill: #7f7f7f; opacity: 0.5"/>
   </g>
   <g id="patch_101">
    <path d="M 272.640987 448.56 
L 274.256872 448.56 
L 274.256872 276.08 
L 272.640987 276.08 
z
" clip-path="url(#p5e7d6ee083)" style="fill: #7f7f7f; opacity: 0.5"/>
   </g>
   <g id="patch_102">
    <path d="M 274.660844 448.56 
L 276.27673 448.56 
L 276.27673 60.48 
L 274.660844 60.48 
z
" clip-path="url(#p5e7d6ee083)" style="fill: #7f7f7f; opacity: 0.5"/>
   </g>
   <g id="patch_103">
    <path d="M 276.680701 448.56 
L 278.296587 448.56 
L 278.296587 189.84 
L 276.680701 189.84 
z
" clip-path="url(#p5e7d6ee083)" style="fill: #7f7f7f; opacity: 0.5"/>
   </g>
   <g id="patch_104">
    <path d="M 278.700558 448.56 
L 280.316444 448.56 
L 280.316444 103.6 
L 278.700558 103.6 
z
" clip-path="url(#p5e7d6ee083)" style="fill: #7f7f7f; opacity: 0.5"/>
   </g>
   <g id="patch_105">
    <path d="M 280.720416 448.56 
L 282.336302 448.56 
L 282.336302 132.346667 
L 280.720416 132.346667 
z
" clip-path="url(#p5e7d6ee083)" style="fill: #7f7f7f; opacity: 0.5"/>
   </g>
   <g id="patch_106">
    <path d="M 282.740273 448.56 
L 284.356159 448.56 
L 284.356159 189.84 
L 282.740273 189.84 
z
" clip-path="url(#p5e7d6ee083)" style="fill: #7f7f7f; opacity: 0.5"/>
   </g>
   <g id="patch_107">
    <path d="M 284.76013 448.56 
L 286.376016 448.56 
L 286.376016 161.093333 
L 284.76013 161.093333 
z
" clip-path="url(#p5e7d6ee083)" style="fill: #7f7f7f; opacity: 0.5"/>
   </g>
   <g id="patch_108">
    <path d="M 286.779988 448.56 
L 288.395873 448.56 
L 288.395873 232.96 
L 286.779988 232.96 
z
" clip-path="url(#p5e7d6ee083)" style="fill: #7f7f7f; opacity: 0.5"/>
   </g>
   <g id="patch_109">
    <path d="M 288.799845 448.56 
L 290.415731 448.56 
L 290.415731 189.84 
L 288.799845 189.84 
z
" clip-path="url(#p5e7d6ee083)" style="fill: #7f7f7f; opacity: 0.5"/>
   </g>
   <g id="patch_110">
    <path d="M 290.819702 448.56 
L 292.435588 448.56 
L 292.435588 89.226667 
L 290.819702 89.226667 
z
" clip-path="url(#p5e7d6ee083)" style="fill: #7f7f7f; opacity: 0.5"/>
   </g>
   <g id="patch_111">
    <path d="M 292.839559 448.56 
L 294.455445 448.56 
L 294.455445 218.586667 
L 292.839559 218.586667 
z
" clip-path="url(#p5e7d6ee083)" style="fill: #7f7f7f; opacity: 0.5"/>
   </g>
   <g id="patch_112">
    <path d="M 294.859417 448.56 
L 296.475303 448.56 
L 296.475303 276.08 
L 294.859417 276.08 
z
" clip-path="url(#p5e7d6ee083)" style="fill: #7f7f7f; opacity: 0.5"/>
   </g>
   <g id="patch_113">
    <path d="M 296.879274 448.56 
L 298.49516 448.56 
L 298.49516 89.226667 
L 296.879274 89.226667 
z
" clip-path="url(#p5e7d6ee083)" style="fill: #7f7f7f; opacity: 0.5"/>
   </g>
   <g id="patch_114">
    <path d="M 298.899131 448.56 
L 300.515017 448.56 
L 300.515017 117.973333 
L 298.899131 117.973333 
z
" clip-path="url(#p5e7d6ee083)" style="fill: #7f7f7f; opacity: 0.5"/>
   </g>
   <g id="patch_115">
    <path d="M 300.918989 448.56 
L 302.534874 448.56 
L 302.534874 132.346667 
L 300.918989 132.346667 
z
" clip-path="url(#p5e7d6ee083)" style="fill: #7f7f7f; opacity: 0.5"/>
   </g>
   <g id="patch_116">
    <path d="M 302.938846 448.56 
L 304.554732 448.56 
L 304.554732 189.84 
L 302.938846 189.84 
z
" clip-path="url(#p5e7d6ee083)" style="fill: #7f7f7f; opacity: 0.5"/>
   </g>
   <g id="patch_117">
    <path d="M 304.958703 448.56 
L 306.574589 448.56 
L 306.574589 304.826667 
L 304.958703 304.826667 
z
" clip-path="url(#p5e7d6ee083)" style="fill: #7f7f7f; opacity: 0.5"/>
   </g>
   <g id="patch_118">
    <path d="M 306.97856 448.56 
L 308.594446 448.56 
L 308.594446 204.213333 
L 306.97856 204.213333 
z
" clip-path="url(#p5e7d6ee083)" style="fill: #7f7f7f; opacity: 0.5"/>
   </g>
   <g id="patch_119">
    <path d="M 308.998418 448.56 
L 310.614303 448.56 
L 310.614303 218.586667 
L 308.998418 218.586667 
z
" clip-path="url(#p5e7d6ee083)" style="fill: #7f7f7f; opacity: 0.5"/>
   </g>
   <g id="patch_120">
    <path d="M 311.018275 448.56 
L 312.634161 448.56 
L 312.634161 261.706667 
L 311.018275 261.706667 
z
" clip-path="url(#p5e7d6ee083)" style="fill: #7f7f7f; opacity: 0.5"/>
   </g>
   <g id="patch_121">
    <path d="M 313.038132 448.56 
L 314.654018 448.56 
L 314.654018 333.573333 
L 313.038132 333.573333 
z
" clip-path="url(#p5e7d6ee083)" style="fill: #7f7f7f; opacity: 0.5"/>
   </g>
   <g id="patch_122">
    <path d="M 315.057989 448.56 
L 316.673875 448.56 
L 316.673875 290.453333 
L 315.057989 290.453333 
z
" clip-path="url(#p5e7d6ee083)" style="fill: #7f7f7f; opacity: 0.5"/>
   </g>
   <g id="patch_123">
    <path d="M 317.077847 448.56 
L 318.693733 448.56 
L 318.693733 232.96 
L 317.077847 232.96 
z
" clip-path="url(#p5e7d6ee083)" style="fill: #7f7f7f; opacity: 0.5"/>
   </g>
   <g id="patch_124">
    <path d="M 319.097704 448.56 
L 320.71359 448.56 
L 320.71359 247.333333 
L 319.097704 247.333333 
z
" clip-path="url(#p5e7d6ee083)" style="fill: #7f7f7f; opacity: 0.5"/>
   </g>
   <g id="patch_125">
    <path d="M 321.117561 448.56 
L 322.733447 448.56 
L 322.733447 333.573333 
L 321.117561 333.573333 
z
" clip-path="url(#p5e7d6ee083)" style="fill: #7f7f7f; opacity: 0.5"/>
   </g>
   <g id="patch_126">
    <path d="M 323.137419 448.56 
L 324.753304 448.56 
L 324.753304 290.453333 
L 323.137419 290.453333 
z
" clip-path="url(#p5e7d6ee083)" style="fill: #7f7f7f; opacity: 0.5"/>
   </g>
   <g id="patch_127">
    <path d="M 325.157276 448.56 
L 326.773162 448.56 
L 326.773162 319.2 
L 325.157276 319.2 
z
" clip-path="url(#p5e7d6ee083)" style="fill: #7f7f7f; opacity: 0.5"/>
   </g>
   <g id="patch_128">
    <path d="M 327.177133 448.56 
L 328.793019 448.56 
L 328.793019 290.453333 
L 327.177133 290.453333 
z
" clip-path="url(#p5e7d6ee083)" style="fill: #7f7f7f; opacity: 0.5"/>
   </g>
   <g id="patch_129">
    <path d="M 329.19699 448.56 
L 330.812876 448.56 
L 330.812876 419.813333 
L 329.19699 419.813333 
z
" clip-path="url(#p5e7d6ee083)" style="fill: #7f7f7f; opacity: 0.5"/>
   </g>
   <g id="patch_130">
    <path d="M 331.216848 448.56 
L 332.832733 448.56 
L 332.832733 376.693333 
L 331.216848 376.693333 
z
" clip-path="url(#p5e7d6ee083)" style="fill: #7f7f7f; opacity: 0.5"/>
   </g>
   <g id="patch_131">
    <path d="M 333.236705 448.56 
L 334.852591 448.56 
L 334.852591 391.066667 
L 333.236705 391.066667 
z
" clip-path="url(#p5e7d6ee083)" style="fill: #7f7f7f; opacity: 0.5"/>
   </g>
   <g id="patch_132">
    <path d="M 335.256562 448.56 
L 336.872448 448.56 
L 336.872448 376.693333 
L 335.256562 376.693333 
z
" clip-path="url(#p5e7d6ee083)" style="fill: #7f7f7f; opacity: 0.5"/>
   </g>
   <g id="patch_133">
    <path d="M 337.276419 448.56 
L 338.892305 448.56 
L 338.892305 405.44 
L 337.276419 405.44 
z
" clip-path="url(#p5e7d6ee083)" style="fill: #7f7f7f; opacity: 0.5"/>
   </g>
   <g id="patch_134">
    <path d="M 339.296277 448.56 
L 340.912163 448.56 
L 340.912163 419.813333 
L 339.296277 419.813333 
z
" clip-path="url(#p5e7d6ee083)" style="fill: #7f7f7f; opacity: 0.5"/>
   </g>
   <g id="patch_135">
    <path d="M 341.316134 448.56 
L 342.93202 448.56 
L 342.93202 391.066667 
L 341.316134 391.066667 
z
" clip-path="url(#p5e7d6ee083)" style="fill: #7f7f7f; opacity: 0.5"/>
   </g>
   <g id="patch_136">
    <path d="M 343.335991 448.56 
L 344.951877 448.56 
L 344.951877 434.186667 
L 343.335991 434.186667 
z
" clip-path="url(#p5e7d6ee083)" style="fill: #7f7f7f; opacity: 0.5"/>
   </g>
   <g id="patch_137">
    <path d="M 345.355849 448.56 
L 346.971734 448.56 
L 346.971734 448.56 
L 345.355849 448.56 
z
" clip-path="url(#p5e7d6ee083)" style="fill: #7f7f7f; opacity: 0.5"/>
   </g>
   <g id="patch_138">
    <path d="M 347.375706 448.56 
L 348.991592 448.56 
L 348.991592 448.56 
L 347.375706 448.56 
z
" clip-path="url(#p5e7d6ee083)" style="fill: #7f7f7f; opacity: 0.5"/>
   </g>
   <g id="patch_139">
    <path d="M 349.395563 448.56 
L 351.011449 448.56 
L 351.011449 419.813333 
L 349.395563 419.813333 
z
" clip-path="url(#p5e7d6ee083)" style="fill: #7f7f7f; opacity: 0.5"/>
   </g>
   <g id="patch_140">
    <path d="M 351.41542 448.56 
L 353.031306 448.56 
L 353.031306 434.186667 
L 351.41542 434.186667 
z
" clip-path="url(#p5e7d6ee083)" style="fill: #7f7f7f; opacity: 0.5"/>
   </g>
   <g id="patch_141">
    <path d="M 353.435278 448.56 
L 355.051164 448.56 
L 355.051164 448.56 
L 353.435278 448.56 
z
" clip-path="url(#p5e7d6ee083)" style="fill: #7f7f7f; opacity: 0.5"/>
   </g>
   <g id="patch_142">
    <path d="M 355.455135 448.56 
L 357.071021 448.56 
L 357.071021 448.56 
L 355.455135 448.56 
z
" clip-path="url(#p5e7d6ee083)" style="fill: #7f7f7f; opacity: 0.5"/>
   </g>
   <g id="patch_143">
    <path d="M 357.474992 448.56 
L 359.090878 448.56 
L 359.090878 448.56 
L 357.474992 448.56 
z
" clip-path="url(#p5e7d6ee083)" style="fill: #7f7f7f; opacity: 0.5"/>
   </g>
   <g id="patch_144">
    <path d="M 359.49485 448.56 
L 361.110735 448.56 
L 361.110735 448.56 
L 359.49485 448.56 
z
" clip-path="url(#p5e7d6ee083)" style="fill: #7f7f7f; opacity: 0.5"/>
   </g>
   <g id="patch_145">
    <path d="M 361.514707 448.56 
L 363.130593 448.56 
L 363.130593 448.56 
L 361.514707 448.56 
z
" clip-path="url(#p5e7d6ee083)" style="fill: #7f7f7f; opacity: 0.5"/>
   </g>
   <g id="patch_146">
    <path d="M 363.534564 448.56 
L 365.15045 448.56 
L 365.15045 448.56 
L 363.534564 448.56 
z
" clip-path="url(#p5e7d6ee083)" style="fill: #7f7f7f; opacity: 0.5"/>
   </g>
   <g id="patch_147">
    <path d="M 365.554421 448.56 
L 367.170307 448.56 
L 367.170307 448.56 
L 365.554421 448.56 
z
" clip-path="url(#p5e7d6ee083)" style="fill: #7f7f7f; opacity: 0.5"/>
   </g>
   <g id="patch_148">
    <path d="M 367.574279 448.56 
L 369.190164 448.56 
L 369.190164 448.56 
L 367.574279 448.56 
z
" clip-path="url(#p5e7d6ee083)" style="fill: #7f7f7f; opacity: 0.5"/>
   </g>
   <g id="patch_149">
    <path d="M 369.594136 448.56 
L 371.210022 448.56 
L 371.210022 448.56 
L 369.594136 448.56 
z
" clip-path="url(#p5e7d6ee083)" style="fill: #7f7f7f; opacity: 0.5"/>
   </g>
   <g id="patch_150">
    <path d="M 371.613993 448.56 
L 373.229879 448.56 
L 373.229879 448.56 
L 371.613993 448.56 
z
" clip-path="url(#p5e7d6ee083)" style="fill: #7f7f7f; opacity: 0.5"/>
   </g>
   <g id="patch_151">
    <path d="M 373.63385 448.56 
L 375.249736 448.56 
L 375.249736 448.56 
L 373.63385 448.56 
z
" clip-path="url(#p5e7d6ee083)" style="fill: #7f7f7f; opacity: 0.5"/>
   </g>
   <g id="patch_152">
    <path d="M 375.653708 448.56 
L 377.269594 448.56 
L 377.269594 448.56 
L 375.653708 448.56 
z
" clip-path="url(#p5e7d6ee083)" style="fill: #7f7f7f; opacity: 0.5"/>
   </g>
   <g id="patch_153">
    <path d="M 377.673565 448.56 
L 379.289451 448.56 
L 379.289451 448.56 
L 377.673565 448.56 
z
" clip-path="url(#p5e7d6ee083)" style="fill: #7f7f7f; opacity: 0.5"/>
   </g>
   <g id="patch_154">
    <path d="M 379.693422 448.56 
L 381.309308 448.56 
L 381.309308 448.56 
L 379.693422 448.56 
z
" clip-path="url(#p5e7d6ee083)" style="fill: #7f7f7f; opacity: 0.5"/>
   </g>
   <g id="patch_155">
    <path d="M 381.71328 448.56 
L 383.329165 448.56 
L 383.329165 448.56 
L 381.71328 448.56 
z
" clip-path="url(#p5e7d6ee083)" style="fill: #7f7f7f; opacity: 0.5"/>
   </g>
   <g id="patch_156">
    <path d="M 383.733137 448.56 
L 385.349023 448.56 
L 385.349023 448.56 
L 383.733137 448.56 
z
" clip-path="url(#p5e7d6ee083)" style="fill: #7f7f7f; opacity: 0.5"/>
   </g>
   <g id="patch_157">
    <path d="M 385.752994 448.56 
L 387.36888 448.56 
L 387.36888 448.56 
L 385.752994 448.56 
z
" clip-path="url(#p5e7d6ee083)" style="fill: #7f7f7f; opacity: 0.5"/>
   </g>
   <g id="patch_158">
    <path d="M 387.772851 448.56 
L 389.388737 448.56 
L 389.388737 448.56 
L 387.772851 448.56 
z
" clip-path="url(#p5e7d6ee083)" style="fill: #7f7f7f; opacity: 0.5"/>
   </g>
   <g id="patch_159">
    <path d="M 389.792709 448.56 
L 391.408594 448.56 
L 391.408594 448.56 
L 389.792709 448.56 
z
" clip-path="url(#p5e7d6ee083)" style="fill: #7f7f7f; opacity: 0.5"/>
   </g>
   <g id="patch_160">
    <path d="M 391.812566 448.56 
L 393.428452 448.56 
L 393.428452 448.56 
L 391.812566 448.56 
z
" clip-path="url(#p5e7d6ee083)" style="fill: #7f7f7f; opacity: 0.5"/>
   </g>
   <g id="patch_161">
    <path d="M 393.832423 448.56 
L 395.448309 448.56 
L 395.448309 448.56 
L 393.832423 448.56 
z
" clip-path="url(#p5e7d6ee083)" style="fill: #7f7f7f; opacity: 0.5"/>
   </g>
   <g id="patch_162">
    <path d="M 395.85228 448.56 
L 397.468166 448.56 
L 397.468166 448.56 
L 395.85228 448.56 
z
" clip-path="url(#p5e7d6ee083)" style="fill: #7f7f7f; opacity: 0.5"/>
   </g>
   <g id="patch_163">
    <path d="M 397.872138 448.56 
L 399.488024 448.56 
L 399.488024 448.56 
L 397.872138 448.56 
z
" clip-path="url(#p5e7d6ee083)" style="fill: #7f7f7f; opacity: 0.5"/>
   </g>
   <g id="patch_164">
    <path d="M 399.891995 448.56 
L 401.507881 448.56 
L 401.507881 448.56 
L 399.891995 448.56 
z
" clip-path="url(#p5e7d6ee083)" style="fill: #7f7f7f; opacity: 0.5"/>
   </g>
   <g id="patch_165">
    <path d="M 401.911852 448.56 
L 403.527738 448.56 
L 403.527738 448.56 
L 401.911852 448.56 
z
" clip-path="url(#p5e7d6ee083)" style="fill: #7f7f7f; opacity: 0.5"/>
   </g>
   <g id="patch_166">
    <path d="M 403.93171 448.56 
L 405.547595 448.56 
L 405.547595 448.56 
L 403.93171 448.56 
z
" clip-path="url(#p5e7d6ee083)" style="fill: #7f7f7f; opacity: 0.5"/>
   </g>
   <g id="patch_167">
    <path d="M 405.951567 448.56 
L 407.567453 448.56 
L 407.567453 448.56 
L 405.951567 448.56 
z
" clip-path="url(#p5e7d6ee083)" style="fill: #7f7f7f; opacity: 0.5"/>
   </g>
   <g id="patch_168">
    <path d="M 407.971424 448.56 
L 409.58731 448.56 
L 409.58731 448.56 
L 407.971424 448.56 
z
" clip-path="url(#p5e7d6ee083)" style="fill: #7f7f7f; opacity: 0.5"/>
   </g>
   <g id="patch_169">
    <path d="M 409.991281 448.56 
L 411.607167 448.56 
L 411.607167 448.56 
L 409.991281 448.56 
z
" clip-path="url(#p5e7d6ee083)" style="fill: #7f7f7f; opacity: 0.5"/>
   </g>
   <g id="patch_170">
    <path d="M 412.011139 448.56 
L 413.627025 448.56 
L 413.627025 448.56 
L 412.011139 448.56 
z
" clip-path="url(#p5e7d6ee083)" style="fill: #7f7f7f; opacity: 0.5"/>
   </g>
   <g id="patch_171">
    <path d="M 414.030996 448.56 
L 415.646882 448.56 
L 415.646882 448.56 
L 414.030996 448.56 
z
" clip-path="url(#p5e7d6ee083)" style="fill: #7f7f7f; opacity: 0.5"/>
   </g>
   <g id="patch_172">
    <path d="M 416.050853 448.56 
L 417.666739 448.56 
L 417.666739 448.56 
L 416.050853 448.56 
z
" clip-path="url(#p5e7d6ee083)" style="fill: #7f7f7f; opacity: 0.5"/>
   </g>
   <g id="patch_173">
    <path d="M 418.070711 448.56 
L 419.686596 448.56 
L 419.686596 448.56 
L 418.070711 448.56 
z
" clip-path="url(#p5e7d6ee083)" style="fill: #7f7f7f; opacity: 0.5"/>
   </g>
   <g id="patch_174">
    <path d="M 420.090568 448.56 
L 421.706454 448.56 
L 421.706454 448.56 
L 420.090568 448.56 
z
" clip-path="url(#p5e7d6ee083)" style="fill: #7f7f7f; opacity: 0.5"/>
   </g>
   <g id="patch_175">
    <path d="M 422.110425 448.56 
L 423.726311 448.56 
L 423.726311 448.56 
L 422.110425 448.56 
z
" clip-path="url(#p5e7d6ee083)" style="fill: #7f7f7f; opacity: 0.5"/>
   </g>
   <g id="patch_176">
    <path d="M 424.130282 448.56 
L 425.746168 448.56 
L 425.746168 448.56 
L 424.130282 448.56 
z
" clip-path="url(#p5e7d6ee083)" style="fill: #7f7f7f; opacity: 0.5"/>
   </g>
   <g id="patch_177">
    <path d="M 426.15014 448.56 
L 427.766025 448.56 
L 427.766025 448.56 
L 426.15014 448.56 
z
" clip-path="url(#p5e7d6ee083)" style="fill: #7f7f7f; opacity: 0.5"/>
   </g>
   <g id="patch_178">
    <path d="M 428.169997 448.56 
L 429.785883 448.56 
L 429.785883 448.56 
L 428.169997 448.56 
z
" clip-path="url(#p5e7d6ee083)" style="fill: #7f7f7f; opacity: 0.5"/>
   </g>
   <g id="patch_179">
    <path d="M 430.189854 448.56 
L 431.80574 448.56 
L 431.80574 448.56 
L 430.189854 448.56 
z
" clip-path="url(#p5e7d6ee083)" style="fill: #7f7f7f; opacity: 0.5"/>
   </g>
   <g id="patch_180">
    <path d="M 432.209711 448.56 
L 433.825597 448.56 
L 433.825597 448.56 
L 432.209711 448.56 
z
" clip-path="url(#p5e7d6ee083)" style="fill: #7f7f7f; opacity: 0.5"/>
   </g>
   <g id="patch_181">
    <path d="M 434.229569 448.56 
L 435.845455 448.56 
L 435.845455 448.56 
L 434.229569 448.56 
z
" clip-path="url(#p5e7d6ee083)" style="fill: #7f7f7f; opacity: 0.5"/>
   </g>
   <g id="matplotlib.axis_3">
    <g id="ytick_6">
     <g id="line2d_19">
      <defs>
       <path id="mb64f39ad68" d="M 0 0 
L 3.5 0 
" style="stroke: #7f7f7f; stroke-width: 0.8"/>
      </defs>
      <g>
       <use xlink:href="#mb64f39ad68" x="453.6" y="448.56" style="fill: #7f7f7f; stroke: #7f7f7f; stroke-width: 0.8"/>
      </g>
     </g>
     <g id="text_17">
      <text style="font-size: 16px; font-family: 'Arial', sans-serif; text-anchor: start; fill: #7f7f7f" x="460.6" y="454.28625" transform="rotate(-0 460.6 454.28625)">0</text>
     </g>
    </g>
    <g id="ytick_7">
     <g id="line2d_20">
      <g>
       <use xlink:href="#mb64f39ad68" x="453.6" y="376.693333" style="fill: #7f7f7f; stroke: #7f7f7f; stroke-width: 0.8"/>
      </g>
     </g>
     <g id="text_18">
      <text style="font-size: 16px; font-family: 'Arial', sans-serif; text-anchor: start; fill: #7f7f7f" x="460.6" y="382.419583" transform="rotate(-0 460.6 382.419583)">5</text>
     </g>
    </g>
    <g id="ytick_8">
     <g id="line2d_21">
      <g>
       <use xlink:href="#mb64f39ad68" x="453.6" y="304.826667" style="fill: #7f7f7f; stroke: #7f7f7f; stroke-width: 0.8"/>
      </g>
     </g>
     <g id="text_19">
      <text style="font-size: 16px; font-family: 'Arial', sans-serif; text-anchor: start; fill: #7f7f7f" x="460.6" y="310.552917" transform="rotate(-0 460.6 310.552917)">10</text>
     </g>
    </g>
    <g id="ytick_9">
     <g id="line2d_22">
      <g>
       <use xlink:href="#mb64f39ad68" x="453.6" y="232.96" style="fill: #7f7f7f; stroke: #7f7f7f; stroke-width: 0.8"/>
      </g>
     </g>
     <g id="text_20">
      <text style="font-size: 16px; font-family: 'Arial', sans-serif; text-anchor: start; fill: #7f7f7f" x="460.6" y="238.68625" transform="rotate(-0 460.6 238.68625)">15</text>
     </g>
    </g>
    <g id="ytick_10">
     <g id="line2d_23">
      <g>
       <use xlink:href="#mb64f39ad68" x="453.6" y="161.093333" style="fill: #7f7f7f; stroke: #7f7f7f; stroke-width: 0.8"/>
      </g>
     </g>
     <g id="text_21">
      <text style="font-size: 16px; font-family: 'Arial', sans-serif; text-anchor: start; fill: #7f7f7f" x="460.6" y="166.819583" transform="rotate(-0 460.6 166.819583)">20</text>
     </g>
    </g>
    <g id="ytick_11">
     <g id="line2d_24">
      <g>
       <use xlink:href="#mb64f39ad68" x="453.6" y="89.226667" style="fill: #7f7f7f; stroke: #7f7f7f; stroke-width: 0.8"/>
      </g>
     </g>
     <g id="text_22">
      <text style="font-size: 16px; font-family: 'Arial', sans-serif; text-anchor: start; fill: #7f7f7f" x="460.6" y="94.952917" transform="rotate(-0 460.6 94.952917)">25</text>
     </g>
    </g>
    <g id="text_23">
     <text style="font-size: 16px; font-family: 'Arial', sans-serif; text-anchor: middle; fill: #7f7f7f" x="493.8475" y="254.52" transform="rotate(-90 493.8475 254.52)">Number of cases</text>
    </g>
   </g>
   <g id="patch_182">
    <path d="M 453.6 448.56 
L 453.6 60.48 
" style="fill: none; stroke: #7f7f7f; stroke-width: 0.8; stroke-linejoin: miter; stroke-linecap: square"/>
   </g>
  </g>
 </g>
 <defs>
  <clipPath id="p5e7d6ee083">
   <rect x="63" y="60.48" width="390.6" height="388.08"/>
  </clipPath>
 </defs>
</svg>
