<?xml version="1.0" encoding="utf-8" standalone="no"?>
<!DOCTYPE svg PUBLIC "-//W3C//DTD SVG 1.1//EN"
  "http://www.w3.org/Graphics/SVG/1.1/DTD/svg11.dtd">
<svg xmlns:xlink="http://www.w3.org/1999/xlink" width="504pt" height="504pt" viewBox="0 0 504 504" xmlns="http://www.w3.org/2000/svg" version="1.1">
 <metadata>
  <rdf:RDF xmlns:dc="http://purl.org/dc/elements/1.1/" xmlns:cc="http://creativecommons.org/ns#" xmlns:rdf="http://www.w3.org/1999/02/22-rdf-syntax-ns#">
   <cc:Work>
    <dc:type rdf:resource="http://purl.org/dc/dcmitype/StillImage"/>
    <dc:date>2026-07-13T19:18:12.174253</dc:date>
    <dc:format>image/svg+xml</dc:format>
    <dc:creator>
     <cc:Agent>
      <dc:title>Matplotlib v3.11.0, https://matplotlib.org/</dc:title>
     </cc:Agent>
    </dc:creator>
   </cc:Work>
  </rdf:RDF>
 </metadata>
 <defs>
  <style type="text/css">*{stroke-linejoin: round; stroke-linecap: butt}</style>
 </defs>
 <g id="figure_1">
  <g id="patch_1">
   <path d="M 0 504 
L 504 504 
L 504 0 
L 0 0 
L 0 504 
z
" style="fill: none"/>
  </g>
  <g id="axes_1">
   <g id="patch_2">
    <path d="M 63 448.56 
L 453.6 448.56 
L 453.6 60.48 
L 63 60.48 
L 63 448.56 
z
" style="fill: none"/>
   </g>
   <g id="matplotlib.axis_1">
    <g id="ytick_1">
     <g id="line2d_1">
      <defs>
       <path id="m2818001982" d="M 0 0 
L 3.5 0 
" style="stroke: #7f7f7f; stroke-width: 0.8"/>
      </defs>
      <g>
       <use xlink:href="#m2818001982" x="453.6" y="448.56" style="fill: #7f7f7f; stroke: #7f7f7f; stroke-width: 0.8"/>
      </g>
     </g>
     <g id="text_1">
      <text style="font-size: 16px; font-family: 'Arial', sans-serif; text-anchor: start; fill: #7f7f7f" x="460.6" y="454.638125" transform="rotate(-0 460.6 454.638125)">0</text>
     </g>
    </g>
    <g id="ytick_2">
     <g id="line2d_2">
      <g>
       <use xlink:href="#m2818001982" x="453.6" y="396.816" style="fill: #7f7f7f; stroke: #7f7f7f; stroke-width: 0.8"/>
      </g>
     </g>
     <g id="text_2">
      <text style="font-size: 16px; font-family: 'Arial', sans-serif; text-anchor: start; fill: #7f7f7f" x="460.6" y="402.894125" transform="rotate(-0 460.6 402.894125)">2</text>
     </g>
    </g>
    <g id="ytick_3">
     <g id="line2d_3">
      <g>
       <use xlink:href="#m2818001982" x="453.6" y="345.072" style="fill: #7f7f7f; stroke: #7f7f7f; stroke-width: 0.8"/>
      </g>
     </g>
     <g id="text_3">
      <text style="font-size: 16px; font-family: 'Arial', sans-serif; text-anchor: start; fill: #7f7f7f" x="460.6" y="351.150125" transform="rotate(-0 460.6 351.150125)">4</text>
     </g>
    </g>
    <g id="ytick_4">
     <g id="line2d_4">
      <g>
       <use xlink:href="#m2818001982" x="453.6" y="293.328" style="fill: #7f7f7f; stroke: #7f7f7f; stroke-width: 0.8"/>
      </g>
     </g>
     <g id="text_4">
      <text style="font-size: 16px; font-family: 'Arial', sans-serif; text-anchor: start; fill: #7f7f7f" x="460.6" y="299.406125" transform="rotate(-0 460.6 299.406125)">6</text>
     </g>
    </g>
    <g id="ytick_5">
     <g id="line2d_5">
      <g>
       <use xlink:href="#m2818001982" x="453.6" y="241.584" style="fill: #7f7f7f; stroke: #7f7f7f; stroke-width: 0.8"/>
      </g>
     </g>
     <g id="text_5">
      <text style="font-size: 16px; font-family: 'Arial', sans-serif; text-anchor: start; fill: #7f7f7f" x="460.6" y="247.662125" transform="rotate(-0 460.6 247.662125)">8</text>
     </g>
    </g>
    <g id="ytick_6">
     <g id="line2d_6">
      <g>
       <use xlink:href="#m2818001982" x="453.6" y="189.84" style="fill: #7f7f7f; stroke: #7f7f7f; stroke-width: 0.8"/>
      </g>
     </g>
     <g id="text_6">
      <text style="font-size: 16px; font-family: 'Arial', sans-serif; text-anchor: start; fill: #7f7f7f" x="460.6" y="195.918125" transform="rotate(-0 460.6 195.918125)">10</text>
     </g>
    </g>
    <g id="ytick_7">
     <g id="line2d_7">
      <g>
       <use xlink:href="#m2818001982" x="453.6" y="138.096" style="fill: #7f7f7f; stroke: #7f7f7f; stroke-width: 0.8"/>
      </g>
     </g>
     <g id="text_7">
      <text style="font-size: 16px; font-family: 'Arial', sans-serif; text-anchor: start; fill: #7f7f7f" x="460.6" y="144.174125" transform="rotate(-0 460.6 144.174125)">12</text>
     </g>
    </g>
    <g id="ytick_8">
     <g id="line2d_8">
      <g>
       <use xlink:href="#m2818001982" x="453.6" y="86.352" style="fill: #7f7f7f; stroke: #7f7f7f; stroke-width: 0.8"/>
      </g>
     </g>
     <g id="text_8">
      <text style="font-size: 16px; font-family: 'Arial', sans-serif; text-anchor: start; fill: #7f7f7f" x="460.6" y="92.430125" transform="rotate(-0 460.6 92.430125)">14</text>
     </g>
    </g>
    <g id="text_9">
     <text style="font-size: 16px; font-family: 'Arial', sans-serif; text-anchor: middle; fill: #7f7f7f" x="497.1175" y="254.52" transform="rotate(-90 497.1175 254.52)">Number of cases</text>
    </g>
   </g>
   <g id="patch_3">
    <path d="M 80.754545 448.56 
L 82.379675 448.56 
L 82.379675 396.816 
L 80.754545 396.816 
z
" clip-path="url(#p243004f48d)" style="fill: #7f7f7f; opacity: 0.5"/>
   </g>
   <g id="patch_4">
    <path d="M 82.785958 448.56 
L 84.411088 448.56 
L 84.411088 396.816 
L 82.785958 396.816 
z
" clip-path="url(#p243004f48d)" style="fill: #7f7f7f; opacity: 0.5"/>
   </g>
   <g id="patch_5">
    <path d="M 84.817371 448.56 
L 86.442501 448.56 
L 86.442501 396.816 
L 84.817371 396.816 
z
" clip-path="url(#p243004f48d)" style="fill: #7f7f7f; opacity: 0.5"/>
   </g>
   <g id="patch_6">
    <path d="M 86.848783 448.56 
L 88.473913 448.56 
L 88.473913 448.56 
L 86.848783 448.56 
z
" clip-path="url(#p243004f48d)" style="fill: #7f7f7f; opacity: 0.5"/>
   </g>
   <g id="patch_7">
    <path d="M 88.880196 448.56 
L 90.505326 448.56 
L 90.505326 448.56 
L 88.880196 448.56 
z
" clip-path="url(#p243004f48d)" style="fill: #7f7f7f; opacity: 0.5"/>
   </g>
   <g id="patch_8">
    <path d="M 90.911608 448.56 
L 92.536738 448.56 
L 92.536738 448.56 
L 90.911608 448.56 
z
" clip-path="url(#p243004f48d)" style="fill: #7f7f7f; opacity: 0.5"/>
   </g>
   <g id="patch_9">
    <path d="M 92.943021 448.56 
L 94.568151 448.56 
L 94.568151 448.56 
L 92.943021 448.56 
z
" clip-path="url(#p243004f48d)" style="fill: #7f7f7f; opacity: 0.5"/>
   </g>
   <g id="patch_10">
    <path d="M 94.974433 448.56 
L 96.599563 448.56 
L 96.599563 448.56 
L 94.974433 448.56 
z
" clip-path="url(#p243004f48d)" style="fill: #7f7f7f; opacity: 0.5"/>
   </g>
   <g id="patch_11">
    <path d="M 97.005846 448.56 
L 98.630976 448.56 
L 98.630976 448.56 
L 97.005846 448.56 
z
" clip-path="url(#p243004f48d)" style="fill: #7f7f7f; opacity: 0.5"/>
   </g>
   <g id="patch_12">
    <path d="M 99.037258 448.56 
L 100.662388 448.56 
L 100.662388 422.688 
L 99.037258 422.688 
z
" clip-path="url(#p243004f48d)" style="fill: #7f7f7f; opacity: 0.5"/>
   </g>
   <g id="patch_13">
    <path d="M 101.068671 448.56 
L 102.693801 448.56 
L 102.693801 448.56 
L 101.068671 448.56 
z
" clip-path="url(#p243004f48d)" style="fill: #7f7f7f; opacity: 0.5"/>
   </g>
   <g id="patch_14">
    <path d="M 103.100083 448.56 
L 104.725213 448.56 
L 104.725213 448.56 
L 103.100083 448.56 
z
" clip-path="url(#p243004f48d)" style="fill: #7f7f7f; opacity: 0.5"/>
   </g>
   <g id="patch_15">
    <path d="M 105.131496 448.56 
L 106.756626 448.56 
L 106.756626 448.56 
L 105.131496 448.56 
z
" clip-path="url(#p243004f48d)" style="fill: #7f7f7f; opacity: 0.5"/>
   </g>
   <g id="patch_16">
    <path d="M 107.162908 448.56 
L 108.788038 448.56 
L 108.788038 448.56 
L 107.162908 448.56 
z
" clip-path="url(#p243004f48d)" style="fill: #7f7f7f; opacity: 0.5"/>
   </g>
   <g id="patch_17">
    <path d="M 109.194321 448.56 
L 110.819451 448.56 
L 110.819451 448.56 
L 109.194321 448.56 
z
" clip-path="url(#p243004f48d)" style="fill: #7f7f7f; opacity: 0.5"/>
   </g>
   <g id="patch_18">
    <path d="M 111.225733 448.56 
L 112.850863 448.56 
L 112.850863 448.56 
L 111.225733 448.56 
z
" clip-path="url(#p243004f48d)" style="fill: #7f7f7f; opacity: 0.5"/>
   </g>
   <g id="patch_19">
    <path d="M 113.257146 448.56 
L 114.882276 448.56 
L 114.882276 448.56 
L 113.257146 448.56 
z
" clip-path="url(#p243004f48d)" style="fill: #7f7f7f; opacity: 0.5"/>
   </g>
   <g id="patch_20">
    <path d="M 115.288558 448.56 
L 116.913688 448.56 
L 116.913688 448.56 
L 115.288558 448.56 
z
" clip-path="url(#p243004f48d)" style="fill: #7f7f7f; opacity: 0.5"/>
   </g>
   <g id="patch_21">
    <path d="M 117.319971 448.56 
L 118.945101 448.56 
L 118.945101 448.56 
L 117.319971 448.56 
z
" clip-path="url(#p243004f48d)" style="fill: #7f7f7f; opacity: 0.5"/>
   </g>
   <g id="patch_22">
    <path d="M 119.351383 448.56 
L 120.976513 448.56 
L 120.976513 422.688 
L 119.351383 422.688 
z
" clip-path="url(#p243004f48d)" style="fill: #7f7f7f; opacity: 0.5"/>
   </g>
   <g id="patch_23">
    <path d="M 121.382796 448.56 
L 123.007926 448.56 
L 123.007926 448.56 
L 121.382796 448.56 
z
" clip-path="url(#p243004f48d)" style="fill: #7f7f7f; opacity: 0.5"/>
   </g>
   <g id="patch_24">
    <path d="M 123.414208 448.56 
L 125.039338 448.56 
L 125.039338 448.56 
L 123.414208 448.56 
z
" clip-path="url(#p243004f48d)" style="fill: #7f7f7f; opacity: 0.5"/>
   </g>
   <g id="patch_25">
    <path d="M 125.445621 448.56 
L 127.070751 448.56 
L 127.070751 422.688 
L 125.445621 422.688 
z
" clip-path="url(#p243004f48d)" style="fill: #7f7f7f; opacity: 0.5"/>
   </g>
   <g id="patch_26">
    <path d="M 127.477033 448.56 
L 129.102164 448.56 
L 129.102164 448.56 
L 127.477033 448.56 
z
" clip-path="url(#p243004f48d)" style="fill: #7f7f7f; opacity: 0.5"/>
   </g>
   <g id="patch_27">
    <path d="M 129.508446 448.56 
L 131.133576 448.56 
L 131.133576 422.688 
L 129.508446 422.688 
z
" clip-path="url(#p243004f48d)" style="fill: #7f7f7f; opacity: 0.5"/>
   </g>
   <g id="patch_28">
    <path d="M 131.539859 448.56 
L 133.164989 448.56 
L 133.164989 448.56 
L 131.539859 448.56 
z
" clip-path="url(#p243004f48d)" style="fill: #7f7f7f; opacity: 0.5"/>
   </g>
   <g id="patch_29">
    <path d="M 133.571271 448.56 
L 135.196401 448.56 
L 135.196401 422.688 
L 133.571271 422.688 
z
" clip-path="url(#p243004f48d)" style="fill: #7f7f7f; opacity: 0.5"/>
   </g>
   <g id="patch_30">
    <path d="M 135.602684 448.56 
L 137.227814 448.56 
L 137.227814 448.56 
L 135.602684 448.56 
z
" clip-path="url(#p243004f48d)" style="fill: #7f7f7f; opacity: 0.5"/>
   </g>
   <g id="patch_31">
    <path d="M 137.634096 448.56 
L 139.259226 448.56 
L 139.259226 422.688 
L 137.634096 422.688 
z
" clip-path="url(#p243004f48d)" style="fill: #7f7f7f; opacity: 0.5"/>
   </g>
   <g id="patch_32">
    <path d="M 139.665509 448.56 
L 141.290639 448.56 
L 141.290639 422.688 
L 139.665509 422.688 
z
" clip-path="url(#p243004f48d)" style="fill: #7f7f7f; opacity: 0.5"/>
   </g>
   <g id="patch_33">
    <path d="M 141.696921 448.56 
L 143.322051 448.56 
L 143.322051 448.56 
L 141.696921 448.56 
z
" clip-path="url(#p243004f48d)" style="fill: #7f7f7f; opacity: 0.5"/>
   </g>
   <g id="patch_34">
    <path d="M 143.728334 448.56 
L 145.353464 448.56 
L 145.353464 422.688 
L 143.728334 422.688 
z
" clip-path="url(#p243004f48d)" style="fill: #7f7f7f; opacity: 0.5"/>
   </g>
   <g id="patch_35">
    <path d="M 145.759746 448.56 
L 147.384876 448.56 
L 147.384876 422.688 
L 145.759746 422.688 
z
" clip-path="url(#p243004f48d)" style="fill: #7f7f7f; opacity: 0.5"/>
   </g>
   <g id="patch_36">
    <path d="M 147.791159 448.56 
L 149.416289 448.56 
L 149.416289 448.56 
L 147.791159 448.56 
z
" clip-path="url(#p243004f48d)" style="fill: #7f7f7f; opacity: 0.5"/>
   </g>
   <g id="patch_37">
    <path d="M 149.822571 448.56 
L 151.447701 448.56 
L 151.447701 422.688 
L 149.822571 422.688 
z
" clip-path="url(#p243004f48d)" style="fill: #7f7f7f; opacity: 0.5"/>
   </g>
   <g id="patch_38">
    <path d="M 151.853984 448.56 
L 153.479114 448.56 
L 153.479114 448.56 
L 151.853984 448.56 
z
" clip-path="url(#p243004f48d)" style="fill: #7f7f7f; opacity: 0.5"/>
   </g>
   <g id="patch_39">
    <path d="M 153.885396 448.56 
L 155.510526 448.56 
L 155.510526 448.56 
L 153.885396 448.56 
z
" clip-path="url(#p243004f48d)" style="fill: #7f7f7f; opacity: 0.5"/>
   </g>
   <g id="patch_40">
    <path d="M 155.916809 448.56 
L 157.541939 448.56 
L 157.541939 370.944 
L 155.916809 370.944 
z
" clip-path="url(#p243004f48d)" style="fill: #7f7f7f; opacity: 0.5"/>
   </g>
   <g id="patch_41">
    <path d="M 157.948221 448.56 
L 159.573351 448.56 
L 159.573351 396.816 
L 157.948221 396.816 
z
" clip-path="url(#p243004f48d)" style="fill: #7f7f7f; opacity: 0.5"/>
   </g>
   <g id="patch_42">
    <path d="M 159.979634 448.56 
L 161.604764 448.56 
L 161.604764 422.688 
L 159.979634 422.688 
z
" clip-path="url(#p243004f48d)" style="fill: #7f7f7f; opacity: 0.5"/>
   </g>
   <g id="patch_43">
    <path d="M 162.011046 448.56 
L 163.636176 448.56 
L 163.636176 422.688 
L 162.011046 422.688 
z
" clip-path="url(#p243004f48d)" style="fill: #7f7f7f; opacity: 0.5"/>
   </g>
   <g id="patch_44">
    <path d="M 164.042459 448.56 
L 165.667589 448.56 
L 165.667589 422.688 
L 164.042459 422.688 
z
" clip-path="url(#p243004f48d)" style="fill: #7f7f7f; opacity: 0.5"/>
   </g>
   <g id="patch_45">
    <path d="M 166.073871 448.56 
L 167.699001 448.56 
L 167.699001 422.688 
L 166.073871 422.688 
z
" clip-path="url(#p243004f48d)" style="fill: #7f7f7f; opacity: 0.5"/>
   </g>
   <g id="patch_46">
    <path d="M 168.105284 448.56 
L 169.730414 448.56 
L 169.730414 370.944 
L 168.105284 370.944 
z
" clip-path="url(#p243004f48d)" style="fill: #7f7f7f; opacity: 0.5"/>
   </g>
   <g id="patch_47">
    <path d="M 170.136696 448.56 
L 171.761827 448.56 
L 171.761827 448.56 
L 170.136696 448.56 
z
" clip-path="url(#p243004f48d)" style="fill: #7f7f7f; opacity: 0.5"/>
   </g>
   <g id="patch_48">
    <path d="M 172.168109 448.56 
L 173.793239 448.56 
L 173.793239 422.688 
L 172.168109 422.688 
z
" clip-path="url(#p243004f48d)" style="fill: #7f7f7f; opacity: 0.5"/>
   </g>
   <g id="patch_49">
    <path d="M 174.199522 448.56 
L 175.824652 448.56 
L 175.824652 422.688 
L 174.199522 422.688 
z
" clip-path="url(#p243004f48d)" style="fill: #7f7f7f; opacity: 0.5"/>
   </g>
   <g id="patch_50">
    <path d="M 176.230934 448.56 
L 177.856064 448.56 
L 177.856064 345.072 
L 176.230934 345.072 
z
" clip-path="url(#p243004f48d)" style="fill: #7f7f7f; opacity: 0.5"/>
   </g>
   <g id="patch_51">
    <path d="M 178.262347 448.56 
L 179.887477 448.56 
L 179.887477 370.944 
L 178.262347 370.944 
z
" clip-path="url(#p243004f48d)" style="fill: #7f7f7f; opacity: 0.5"/>
   </g>
   <g id="patch_52">
    <path d="M 180.293759 448.56 
L 181.918889 448.56 
L 181.918889 370.944 
L 180.293759 370.944 
z
" clip-path="url(#p243004f48d)" style="fill: #7f7f7f; opacity: 0.5"/>
   </g>
   <g id="patch_53">
    <path d="M 182.325172 448.56 
L 183.950302 448.56 
L 183.950302 396.816 
L 182.325172 396.816 
z
" clip-path="url(#p243004f48d)" style="fill: #7f7f7f; opacity: 0.5"/>
   </g>
   <g id="patch_54">
    <path d="M 184.356584 448.56 
L 185.981714 448.56 
L 185.981714 345.072 
L 184.356584 345.072 
z
" clip-path="url(#p243004f48d)" style="fill: #7f7f7f; opacity: 0.5"/>
   </g>
   <g id="patch_55">
    <path d="M 186.387997 448.56 
L 188.013127 448.56 
L 188.013127 345.072 
L 186.387997 345.072 
z
" clip-path="url(#p243004f48d)" style="fill: #7f7f7f; opacity: 0.5"/>
   </g>
   <g id="patch_56">
    <path d="M 188.419409 448.56 
L 190.044539 448.56 
L 190.044539 241.584 
L 188.419409 241.584 
z
" clip-path="url(#p243004f48d)" style="fill: #7f7f7f; opacity: 0.5"/>
   </g>
   <g id="patch_57">
    <path d="M 190.450822 448.56 
L 192.075952 448.56 
L 192.075952 319.2 
L 190.450822 319.2 
z
" clip-path="url(#p243004f48d)" style="fill: #7f7f7f; opacity: 0.5"/>
   </g>
   <g id="patch_58">
    <path d="M 192.482234 448.56 
L 194.107364 448.56 
L 194.107364 241.584 
L 192.482234 241.584 
z
" clip-path="url(#p243004f48d)" style="fill: #7f7f7f; opacity: 0.5"/>
   </g>
   <g id="patch_59">
    <path d="M 194.513647 448.56 
L 196.138777 448.56 
L 196.138777 319.2 
L 194.513647 319.2 
z
" clip-path="url(#p243004f48d)" style="fill: #7f7f7f; opacity: 0.5"/>
   </g>
   <g id="patch_60">
    <path d="M 196.545059 448.56 
L 198.170189 448.56 
L 198.170189 345.072 
L 196.545059 345.072 
z
" clip-path="url(#p243004f48d)" style="fill: #7f7f7f; opacity: 0.5"/>
   </g>
   <g id="patch_61">
    <path d="M 198.576472 448.56 
L 200.201602 448.56 
L 200.201602 319.2 
L 198.576472 319.2 
z
" clip-path="url(#p243004f48d)" style="fill: #7f7f7f; opacity: 0.5"/>
   </g>
   <g id="patch_62">
    <path d="M 200.607884 448.56 
L 202.233014 448.56 
L 202.233014 267.456 
L 200.607884 267.456 
z
" clip-path="url(#p243004f48d)" style="fill: #7f7f7f; opacity: 0.5"/>
   </g>
   <g id="patch_63">
    <path d="M 202.639297 448.56 
L 204.264427 448.56 
L 204.264427 396.816 
L 202.639297 396.816 
z
" clip-path="url(#p243004f48d)" style="fill: #7f7f7f; opacity: 0.5"/>
   </g>
   <g id="patch_64">
    <path d="M 204.670709 448.56 
L 206.295839 448.56 
L 206.295839 422.688 
L 204.670709 422.688 
z
" clip-path="url(#p243004f48d)" style="fill: #7f7f7f; opacity: 0.5"/>
   </g>
   <g id="patch_65">
    <path d="M 206.702122 448.56 
L 208.327252 448.56 
L 208.327252 241.584 
L 206.702122 241.584 
z
" clip-path="url(#p243004f48d)" style="fill: #7f7f7f; opacity: 0.5"/>
   </g>
   <g id="patch_66">
    <path d="M 208.733534 448.56 
L 210.358664 448.56 
L 210.358664 396.816 
L 208.733534 396.816 
z
" clip-path="url(#p243004f48d)" style="fill: #7f7f7f; opacity: 0.5"/>
   </g>
   <g id="patch_67">
    <path d="M 210.764947 448.56 
L 212.390077 448.56 
L 212.390077 345.072 
L 210.764947 345.072 
z
" clip-path="url(#p243004f48d)" style="fill: #7f7f7f; opacity: 0.5"/>
   </g>
   <g id="patch_68">
    <path d="M 212.796359 448.56 
L 214.421489 448.56 
L 214.421489 396.816 
L 212.796359 396.816 
z
" clip-path="url(#p243004f48d)" style="fill: #7f7f7f; opacity: 0.5"/>
   </g>
   <g id="patch_69">
    <path d="M 214.827772 448.56 
L 216.452902 448.56 
L 216.452902 215.712 
L 214.827772 215.712 
z
" clip-path="url(#p243004f48d)" style="fill: #7f7f7f; opacity: 0.5"/>
   </g>
   <g id="patch_70">
    <path d="M 216.859185 448.56 
L 218.484315 448.56 
L 218.484315 241.584 
L 216.859185 241.584 
z
" clip-path="url(#p243004f48d)" style="fill: #7f7f7f; opacity: 0.5"/>
   </g>
   <g id="patch_71">
    <path d="M 218.890597 448.56 
L 220.515727 448.56 
L 220.515727 241.584 
L 218.890597 241.584 
z
" clip-path="url(#p243004f48d)" style="fill: #7f7f7f; opacity: 0.5"/>
   </g>
   <g id="patch_72">
    <path d="M 220.92201 448.56 
L 222.54714 448.56 
L 222.54714 267.456 
L 220.92201 267.456 
z
" clip-path="url(#p243004f48d)" style="fill: #7f7f7f; opacity: 0.5"/>
   </g>
   <g id="patch_73">
    <path d="M 222.953422 448.56 
L 224.578552 448.56 
L 224.578552 215.712 
L 222.953422 215.712 
z
" clip-path="url(#p243004f48d)" style="fill: #7f7f7f; opacity: 0.5"/>
   </g>
   <g id="patch_74">
    <path d="M 224.984835 448.56 
L 226.609965 448.56 
L 226.609965 138.096 
L 224.984835 138.096 
z
" clip-path="url(#p243004f48d)" style="fill: #7f7f7f; opacity: 0.5"/>
   </g>
   <g id="patch_75">
    <path d="M 227.016247 448.56 
L 228.641377 448.56 
L 228.641377 138.096 
L 227.016247 138.096 
z
" clip-path="url(#p243004f48d)" style="fill: #7f7f7f; opacity: 0.5"/>
   </g>
   <g id="patch_76">
    <path d="M 229.04766 448.56 
L 230.67279 448.56 
L 230.67279 267.456 
L 229.04766 267.456 
z
" clip-path="url(#p243004f48d)" style="fill: #7f7f7f; opacity: 0.5"/>
   </g>
   <g id="patch_77">
    <path d="M 231.079072 448.56 
L 232.704202 448.56 
L 232.704202 138.096 
L 231.079072 138.096 
z
" clip-path="url(#p243004f48d)" style="fill: #7f7f7f; opacity: 0.5"/>
   </g>
   <g id="patch_78">
    <path d="M 233.110485 448.56 
L 234.735615 448.56 
L 234.735615 396.816 
L 233.110485 396.816 
z
" clip-path="url(#p243004f48d)" style="fill: #7f7f7f; opacity: 0.5"/>
   </g>
   <g id="patch_79">
    <path d="M 235.141897 448.56 
L 236.767027 448.56 
L 236.767027 60.48 
L 235.141897 60.48 
z
" clip-path="url(#p243004f48d)" style="fill: #7f7f7f; opacity: 0.5"/>
   </g>
   <g id="patch_80">
    <path d="M 237.17331 448.56 
L 238.79844 448.56 
L 238.79844 163.968 
L 237.17331 163.968 
z
" clip-path="url(#p243004f48d)" style="fill: #7f7f7f; opacity: 0.5"/>
   </g>
   <g id="patch_81">
    <path d="M 239.204722 448.56 
L 240.829852 448.56 
L 240.829852 319.2 
L 239.204722 319.2 
z
" clip-path="url(#p243004f48d)" style="fill: #7f7f7f; opacity: 0.5"/>
   </g>
   <g id="patch_82">
    <path d="M 241.236135 448.56 
L 242.861265 448.56 
L 242.861265 345.072 
L 241.236135 345.072 
z
" clip-path="url(#p243004f48d)" style="fill: #7f7f7f; opacity: 0.5"/>
   </g>
   <g id="patch_83">
    <path d="M 243.267547 448.56 
L 244.892677 448.56 
L 244.892677 396.816 
L 243.267547 396.816 
z
" clip-path="url(#p243004f48d)" style="fill: #7f7f7f; opacity: 0.5"/>
   </g>
   <g id="patch_84">
    <path d="M 245.29896 448.56 
L 246.92409 448.56 
L 246.92409 345.072 
L 245.29896 345.072 
z
" clip-path="url(#p243004f48d)" style="fill: #7f7f7f; opacity: 0.5"/>
   </g>
   <g id="patch_85">
    <path d="M 247.330372 448.56 
L 248.955502 448.56 
L 248.955502 267.456 
L 247.330372 267.456 
z
" clip-path="url(#p243004f48d)" style="fill: #7f7f7f; opacity: 0.5"/>
   </g>
   <g id="patch_86">
    <path d="M 249.361785 448.56 
L 250.986915 448.56 
L 250.986915 112.224 
L 249.361785 112.224 
z
" clip-path="url(#p243004f48d)" style="fill: #7f7f7f; opacity: 0.5"/>
   </g>
   <g id="patch_87">
    <path d="M 251.393197 448.56 
L 253.018327 448.56 
L 253.018327 293.328 
L 251.393197 293.328 
z
" clip-path="url(#p243004f48d)" style="fill: #7f7f7f; opacity: 0.5"/>
   </g>
   <g id="patch_88">
    <path d="M 253.42461 448.56 
L 255.04974 448.56 
L 255.04974 241.584 
L 253.42461 241.584 
z
" clip-path="url(#p243004f48d)" style="fill: #7f7f7f; opacity: 0.5"/>
   </g>
   <g id="patch_89">
    <path d="M 255.456022 448.56 
L 257.081152 448.56 
L 257.081152 345.072 
L 255.456022 345.072 
z
" clip-path="url(#p243004f48d)" style="fill: #7f7f7f; opacity: 0.5"/>
   </g>
   <g id="patch_90">
    <path d="M 257.487435 448.56 
L 259.112565 448.56 
L 259.112565 319.2 
L 257.487435 319.2 
z
" clip-path="url(#p243004f48d)" style="fill: #7f7f7f; opacity: 0.5"/>
   </g>
   <g id="patch_91">
    <path d="M 259.518848 448.56 
L 261.143978 448.56 
L 261.143978 370.944 
L 259.518848 370.944 
z
" clip-path="url(#p243004f48d)" style="fill: #7f7f7f; opacity: 0.5"/>
   </g>
   <g id="patch_92">
    <path d="M 261.55026 448.56 
L 263.17539 448.56 
L 263.17539 396.816 
L 261.55026 396.816 
z
" clip-path="url(#p243004f48d)" style="fill: #7f7f7f; opacity: 0.5"/>
   </g>
   <g id="patch_93">
    <path d="M 263.581673 448.56 
L 265.206803 448.56 
L 265.206803 396.816 
L 263.581673 396.816 
z
" clip-path="url(#p243004f48d)" style="fill: #7f7f7f; opacity: 0.5"/>
   </g>
   <g id="patch_94">
    <path d="M 265.613085 448.56 
L 267.238215 448.56 
L 267.238215 448.56 
L 265.613085 448.56 
z
" clip-path="url(#p243004f48d)" style="fill: #7f7f7f; opacity: 0.5"/>
   </g>
   <g id="patch_95">
    <path d="M 267.644498 448.56 
L 269.269628 448.56 
L 269.269628 422.688 
L 267.644498 422.688 
z
" clip-path="url(#p243004f48d)" style="fill: #7f7f7f; opacity: 0.5"/>
   </g>
   <g id="patch_96">
    <path d="M 269.67591 448.56 
L 271.30104 448.56 
L 271.30104 396.816 
L 269.67591 396.816 
z
" clip-path="url(#p243004f48d)" style="fill: #7f7f7f; opacity: 0.5"/>
   </g>
   <g id="patch_97">
    <path d="M 271.707323 448.56 
L 273.332453 448.56 
L 273.332453 370.944 
L 271.707323 370.944 
z
" clip-path="url(#p243004f48d)" style="fill: #7f7f7f; opacity: 0.5"/>
   </g>
   <g id="patch_98">
    <path d="M 273.738735 448.56 
L 275.363865 448.56 
L 275.363865 422.688 
L 273.738735 422.688 
z
" clip-path="url(#p243004f48d)" style="fill: #7f7f7f; opacity: 0.5"/>
   </g>
   <g id="patch_99">
    <path d="M 275.770148 448.56 
L 277.395278 448.56 
L 277.395278 370.944 
L 275.770148 370.944 
z
" clip-path="url(#p243004f48d)" style="fill: #7f7f7f; opacity: 0.5"/>
   </g>
   <g id="patch_100">
    <path d="M 277.80156 448.56 
L 279.42669 448.56 
L 279.42669 396.816 
L 277.80156 396.816 
z
" clip-path="url(#p243004f48d)" style="fill: #7f7f7f; opacity: 0.5"/>
   </g>
   <g id="patch_101">
    <path d="M 279.832973 448.56 
L 281.458103 448.56 
L 281.458103 448.56 
L 279.832973 448.56 
z
" clip-path="url(#p243004f48d)" style="fill: #7f7f7f; opacity: 0.5"/>
   </g>
   <g id="patch_102">
    <path d="M 281.864385 448.56 
L 283.489515 448.56 
L 283.489515 448.56 
L 281.864385 448.56 
z
" clip-path="url(#p243004f48d)" style="fill: #7f7f7f; opacity: 0.5"/>
   </g>
   <g id="patch_103">
    <path d="M 283.895798 448.56 
L 285.520928 448.56 
L 285.520928 422.688 
L 283.895798 422.688 
z
" clip-path="url(#p243004f48d)" style="fill: #7f7f7f; opacity: 0.5"/>
   </g>
   <g id="patch_104">
    <path d="M 285.92721 448.56 
L 287.55234 448.56 
L 287.55234 396.816 
L 285.92721 396.816 
z
" clip-path="url(#p243004f48d)" style="fill: #7f7f7f; opacity: 0.5"/>
   </g>
   <g id="patch_105">
    <path d="M 287.958623 448.56 
L 289.583753 448.56 
L 289.583753 422.688 
L 287.958623 422.688 
z
" clip-path="url(#p243004f48d)" style="fill: #7f7f7f; opacity: 0.5"/>
   </g>
   <g id="patch_106">
    <path d="M 289.990035 448.56 
L 291.615165 448.56 
L 291.615165 448.56 
L 289.990035 448.56 
z
" clip-path="url(#p243004f48d)" style="fill: #7f7f7f; opacity: 0.5"/>
   </g>
   <g id="patch_107">
    <path d="M 292.021448 448.56 
L 293.646578 448.56 
L 293.646578 422.688 
L 292.021448 422.688 
z
" clip-path="url(#p243004f48d)" style="fill: #7f7f7f; opacity: 0.5"/>
   </g>
   <g id="patch_108">
    <path d="M 294.05286 448.56 
L 295.67799 448.56 
L 295.67799 448.56 
L 294.05286 448.56 
z
" clip-path="url(#p243004f48d)" style="fill: #7f7f7f; opacity: 0.5"/>
   </g>
   <g id="patch_109">
    <path d="M 296.084273 448.56 
L 297.709403 448.56 
L 297.709403 422.688 
L 296.084273 422.688 
z
" clip-path="url(#p243004f48d)" style="fill: #7f7f7f; opacity: 0.5"/>
   </g>
   <g id="patch_110">
    <path d="M 298.115685 448.56 
L 299.740815 448.56 
L 299.740815 448.56 
L 298.115685 448.56 
z
" clip-path="url(#p243004f48d)" style="fill: #7f7f7f; opacity: 0.5"/>
   </g>
   <g id="patch_111">
    <path d="M 300.147098 448.56 
L 301.772228 448.56 
L 301.772228 448.56 
L 300.147098 448.56 
z
" clip-path="url(#p243004f48d)" style="fill: #7f7f7f; opacity: 0.5"/>
   </g>
   <g id="patch_112">
    <path d="M 302.178511 448.56 
L 303.803641 448.56 
L 303.803641 448.56 
L 302.178511 448.56 
z
" clip-path="url(#p243004f48d)" style="fill: #7f7f7f; opacity: 0.5"/>
   </g>
   <g id="patch_113">
    <path d="M 304.209923 448.56 
L 305.835053 448.56 
L 305.835053 422.688 
L 304.209923 422.688 
z
" clip-path="url(#p243004f48d)" style="fill: #7f7f7f; opacity: 0.5"/>
   </g>
   <g id="patch_114">
    <path d="M 306.241336 448.56 
L 307.866466 448.56 
L 307.866466 422.688 
L 306.241336 422.688 
z
" clip-path="url(#p243004f48d)" style="fill: #7f7f7f; opacity: 0.5"/>
   </g>
   <g id="patch_115">
    <path d="M 308.272748 448.56 
L 309.897878 448.56 
L 309.897878 448.56 
L 308.272748 448.56 
z
" clip-path="url(#p243004f48d)" style="fill: #7f7f7f; opacity: 0.5"/>
   </g>
   <g id="patch_116">
    <path d="M 310.304161 448.56 
L 311.929291 448.56 
L 311.929291 448.56 
L 310.304161 448.56 
z
" clip-path="url(#p243004f48d)" style="fill: #7f7f7f; opacity: 0.5"/>
   </g>
   <g id="patch_117">
    <path d="M 312.335573 448.56 
L 313.960703 448.56 
L 313.960703 448.56 
L 312.335573 448.56 
z
" clip-path="url(#p243004f48d)" style="fill: #7f7f7f; opacity: 0.5"/>
   </g>
   <g id="patch_118">
    <path d="M 314.366986 448.56 
L 315.992116 448.56 
L 315.992116 422.688 
L 314.366986 422.688 
z
" clip-path="url(#p243004f48d)" style="fill: #7f7f7f; opacity: 0.5"/>
   </g>
   <g id="patch_119">
    <path d="M 316.398398 448.56 
L 318.023528 448.56 
L 318.023528 448.56 
L 316.398398 448.56 
z
" clip-path="url(#p243004f48d)" style="fill: #7f7f7f; opacity: 0.5"/>
   </g>
   <g id="patch_120">
    <path d="M 318.429811 448.56 
L 320.054941 448.56 
L 320.054941 448.56 
L 318.429811 448.56 
z
" clip-path="url(#p243004f48d)" style="fill: #7f7f7f; opacity: 0.5"/>
   </g>
   <g id="patch_121">
    <path d="M 320.461223 448.56 
L 322.086353 448.56 
L 322.086353 448.56 
L 320.461223 448.56 
z
" clip-path="url(#p243004f48d)" style="fill: #7f7f7f; opacity: 0.5"/>
   </g>
   <g id="patch_122">
    <path d="M 322.492636 448.56 
L 324.117766 448.56 
L 324.117766 448.56 
L 322.492636 448.56 
z
" clip-path="url(#p243004f48d)" style="fill: #7f7f7f; opacity: 0.5"/>
   </g>
   <g id="patch_123">
    <path d="M 324.524048 448.56 
L 326.149178 448.56 
L 326.149178 448.56 
L 324.524048 448.56 
z
" clip-path="url(#p243004f48d)" style="fill: #7f7f7f; opacity: 0.5"/>
   </g>
   <g id="patch_124">
    <path d="M 326.555461 448.56 
L 328.180591 448.56 
L 328.180591 448.56 
L 326.555461 448.56 
z
" clip-path="url(#p243004f48d)" style="fill: #7f7f7f; opacity: 0.5"/>
   </g>
   <g id="patch_125">
    <path d="M 328.586873 448.56 
L 330.212003 448.56 
L 330.212003 448.56 
L 328.586873 448.56 
z
" clip-path="url(#p243004f48d)" style="fill: #7f7f7f; opacity: 0.5"/>
   </g>
   <g id="patch_126">
    <path d="M 330.618286 448.56 
L 332.243416 448.56 
L 332.243416 448.56 
L 330.618286 448.56 
z
" clip-path="url(#p243004f48d)" style="fill: #7f7f7f; opacity: 0.5"/>
   </g>
   <g id="patch_127">
    <path d="M 332.649698 448.56 
L 334.274828 448.56 
L 334.274828 448.56 
L 332.649698 448.56 
z
" clip-path="url(#p243004f48d)" style="fill: #7f7f7f; opacity: 0.5"/>
   </g>
   <g id="patch_128">
    <path d="M 334.681111 448.56 
L 336.306241 448.56 
L 336.306241 422.688 
L 334.681111 422.688 
z
" clip-path="url(#p243004f48d)" style="fill: #7f7f7f; opacity: 0.5"/>
   </g>
   <g id="patch_129">
    <path d="M 336.712523 448.56 
L 338.337653 448.56 
L 338.337653 448.56 
L 336.712523 448.56 
z
" clip-path="url(#p243004f48d)" style="fill: #7f7f7f; opacity: 0.5"/>
   </g>
   <g id="patch_130">
    <path d="M 338.743936 448.56 
L 340.369066 448.56 
L 340.369066 448.56 
L 338.743936 448.56 
z
" clip-path="url(#p243004f48d)" style="fill: #7f7f7f; opacity: 0.5"/>
   </g>
   <g id="patch_131">
    <path d="M 340.775348 448.56 
L 342.400478 448.56 
L 342.400478 448.56 
L 340.775348 448.56 
z
" clip-path="url(#p243004f48d)" style="fill: #7f7f7f; opacity: 0.5"/>
   </g>
   <g id="patch_132">
    <path d="M 342.806761 448.56 
L 344.431891 448.56 
L 344.431891 448.56 
L 342.806761 448.56 
z
" clip-path="url(#p243004f48d)" style="fill: #7f7f7f; opacity: 0.5"/>
   </g>
   <g id="patch_133">
    <path d="M 344.838173 448.56 
L 346.463304 448.56 
L 346.463304 448.56 
L 344.838173 448.56 
z
" clip-path="url(#p243004f48d)" style="fill: #7f7f7f; opacity: 0.5"/>
   </g>
   <g id="patch_134">
    <path d="M 346.869586 448.56 
L 348.494716 448.56 
L 348.494716 448.56 
L 346.869586 448.56 
z
" clip-path="url(#p243004f48d)" style="fill: #7f7f7f; opacity: 0.5"/>
   </g>
   <g id="patch_135">
    <path d="M 348.900999 448.56 
L 350.526129 448.56 
L 350.526129 422.688 
L 348.900999 422.688 
z
" clip-path="url(#p243004f48d)" style="fill: #7f7f7f; opacity: 0.5"/>
   </g>
   <g id="patch_136">
    <path d="M 350.932411 448.56 
L 352.557541 448.56 
L 352.557541 448.56 
L 350.932411 448.56 
z
" clip-path="url(#p243004f48d)" style="fill: #7f7f7f; opacity: 0.5"/>
   </g>
   <g id="patch_137">
    <path d="M 352.963824 448.56 
L 354.588954 448.56 
L 354.588954 448.56 
L 352.963824 448.56 
z
" clip-path="url(#p243004f48d)" style="fill: #7f7f7f; opacity: 0.5"/>
   </g>
   <g id="patch_138">
    <path d="M 354.995236 448.56 
L 356.620366 448.56 
L 356.620366 448.56 
L 354.995236 448.56 
z
" clip-path="url(#p243004f48d)" style="fill: #7f7f7f; opacity: 0.5"/>
   </g>
   <g id="patch_139">
    <path d="M 357.026649 448.56 
L 358.651779 448.56 
L 358.651779 448.56 
L 357.026649 448.56 
z
" clip-path="url(#p243004f48d)" style="fill: #7f7f7f; opacity: 0.5"/>
   </g>
   <g id="patch_140">
    <path d="M 359.058061 448.56 
L 360.683191 448.56 
L 360.683191 448.56 
L 359.058061 448.56 
z
" clip-path="url(#p243004f48d)" style="fill: #7f7f7f; opacity: 0.5"/>
   </g>
   <g id="patch_141">
    <path d="M 361.089474 448.56 
L 362.714604 448.56 
L 362.714604 448.56 
L 361.089474 448.56 
z
" clip-path="url(#p243004f48d)" style="fill: #7f7f7f; opacity: 0.5"/>
   </g>
   <g id="patch_142">
    <path d="M 363.120886 448.56 
L 364.746016 448.56 
L 364.746016 448.56 
L 363.120886 448.56 
z
" clip-path="url(#p243004f48d)" style="fill: #7f7f7f; opacity: 0.5"/>
   </g>
   <g id="patch_143">
    <path d="M 365.152299 448.56 
L 366.777429 448.56 
L 366.777429 448.56 
L 365.152299 448.56 
z
" clip-path="url(#p243004f48d)" style="fill: #7f7f7f; opacity: 0.5"/>
   </g>
   <g id="patch_144">
    <path d="M 367.183711 448.56 
L 368.808841 448.56 
L 368.808841 448.56 
L 367.183711 448.56 
z
" clip-path="url(#p243004f48d)" style="fill: #7f7f7f; opacity: 0.5"/>
   </g>
   <g id="patch_145">
    <path d="M 369.215124 448.56 
L 370.840254 448.56 
L 370.840254 448.56 
L 369.215124 448.56 
z
" clip-path="url(#p243004f48d)" style="fill: #7f7f7f; opacity: 0.5"/>
   </g>
   <g id="patch_146">
    <path d="M 371.246536 448.56 
L 372.871666 448.56 
L 372.871666 448.56 
L 371.246536 448.56 
z
" clip-path="url(#p243004f48d)" style="fill: #7f7f7f; opacity: 0.5"/>
   </g>
   <g id="patch_147">
    <path d="M 373.277949 448.56 
L 374.903079 448.56 
L 374.903079 448.56 
L 373.277949 448.56 
z
" clip-path="url(#p243004f48d)" style="fill: #7f7f7f; opacity: 0.5"/>
   </g>
   <g id="patch_148">
    <path d="M 375.309361 448.56 
L 376.934491 448.56 
L 376.934491 448.56 
L 375.309361 448.56 
z
" clip-path="url(#p243004f48d)" style="fill: #7f7f7f; opacity: 0.5"/>
   </g>
   <g id="patch_149">
    <path d="M 377.340774 448.56 
L 378.965904 448.56 
L 378.965904 448.56 
L 377.340774 448.56 
z
" clip-path="url(#p243004f48d)" style="fill: #7f7f7f; opacity: 0.5"/>
   </g>
   <g id="patch_150">
    <path d="M 379.372186 448.56 
L 380.997316 448.56 
L 380.997316 448.56 
L 379.372186 448.56 
z
" clip-path="url(#p243004f48d)" style="fill: #7f7f7f; opacity: 0.5"/>
   </g>
   <g id="patch_151">
    <path d="M 381.403599 448.56 
L 383.028729 448.56 
L 383.028729 448.56 
L 381.403599 448.56 
z
" clip-path="url(#p243004f48d)" style="fill: #7f7f7f; opacity: 0.5"/>
   </g>
   <g id="patch_152">
    <path d="M 383.435011 448.56 
L 385.060141 448.56 
L 385.060141 448.56 
L 383.435011 448.56 
z
" clip-path="url(#p243004f48d)" style="fill: #7f7f7f; opacity: 0.5"/>
   </g>
   <g id="patch_153">
    <path d="M 385.466424 448.56 
L 387.091554 448.56 
L 387.091554 448.56 
L 385.466424 448.56 
z
" clip-path="url(#p243004f48d)" style="fill: #7f7f7f; opacity: 0.5"/>
   </g>
   <g id="patch_154">
    <path d="M 387.497836 448.56 
L 389.122967 448.56 
L 389.122967 448.56 
L 387.497836 448.56 
z
" clip-path="url(#p243004f48d)" style="fill: #7f7f7f; opacity: 0.5"/>
   </g>
   <g id="patch_155">
    <path d="M 389.529249 448.56 
L 391.154379 448.56 
L 391.154379 448.56 
L 389.529249 448.56 
z
" clip-path="url(#p243004f48d)" style="fill: #7f7f7f; opacity: 0.5"/>
   </g>
   <g id="patch_156">
    <path d="M 391.560662 448.56 
L 393.185792 448.56 
L 393.185792 448.56 
L 391.560662 448.56 
z
" clip-path="url(#p243004f48d)" style="fill: #7f7f7f; opacity: 0.5"/>
   </g>
   <g id="patch_157">
    <path d="M 393.592074 448.56 
L 395.217204 448.56 
L 395.217204 448.56 
L 393.592074 448.56 
z
" clip-path="url(#p243004f48d)" style="fill: #7f7f7f; opacity: 0.5"/>
   </g>
   <g id="patch_158">
    <path d="M 395.623487 448.56 
L 397.248617 448.56 
L 397.248617 448.56 
L 395.623487 448.56 
z
" clip-path="url(#p243004f48d)" style="fill: #7f7f7f; opacity: 0.5"/>
   </g>
   <g id="patch_159">
    <path d="M 397.654899 448.56 
L 399.280029 448.56 
L 399.280029 448.56 
L 397.654899 448.56 
z
" clip-path="url(#p243004f48d)" style="fill: #7f7f7f; opacity: 0.5"/>
   </g>
   <g id="patch_160">
    <path d="M 399.686312 448.56 
L 401.311442 448.56 
L 401.311442 448.56 
L 399.686312 448.56 
z
" clip-path="url(#p243004f48d)" style="fill: #7f7f7f; opacity: 0.5"/>
   </g>
   <g id="patch_161">
    <path d="M 401.717724 448.56 
L 403.342854 448.56 
L 403.342854 448.56 
L 401.717724 448.56 
z
" clip-path="url(#p243004f48d)" style="fill: #7f7f7f; opacity: 0.5"/>
   </g>
   <g id="patch_162">
    <path d="M 403.749137 448.56 
L 405.374267 448.56 
L 405.374267 448.56 
L 403.749137 448.56 
z
" clip-path="url(#p243004f48d)" style="fill: #7f7f7f; opacity: 0.5"/>
   </g>
   <g id="patch_163">
    <path d="M 405.780549 448.56 
L 407.405679 448.56 
L 407.405679 448.56 
L 405.780549 448.56 
z
" clip-path="url(#p243004f48d)" style="fill: #7f7f7f; opacity: 0.5"/>
   </g>
   <g id="patch_164">
    <path d="M 407.811962 448.56 
L 409.437092 448.56 
L 409.437092 448.56 
L 407.811962 448.56 
z
" clip-path="url(#p243004f48d)" style="fill: #7f7f7f; opacity: 0.5"/>
   </g>
   <g id="patch_165">
    <path d="M 409.843374 448.56 
L 411.468504 448.56 
L 411.468504 448.56 
L 409.843374 448.56 
z
" clip-path="url(#p243004f48d)" style="fill: #7f7f7f; opacity: 0.5"/>
   </g>
   <g id="patch_166">
    <path d="M 411.874787 448.56 
L 413.499917 448.56 
L 413.499917 448.56 
L 411.874787 448.56 
z
" clip-path="url(#p243004f48d)" style="fill: #7f7f7f; opacity: 0.5"/>
   </g>
   <g id="patch_167">
    <path d="M 413.906199 448.56 
L 415.531329 448.56 
L 415.531329 448.56 
L 413.906199 448.56 
z
" clip-path="url(#p243004f48d)" style="fill: #7f7f7f; opacity: 0.5"/>
   </g>
   <g id="patch_168">
    <path d="M 415.937612 448.56 
L 417.562742 448.56 
L 417.562742 448.56 
L 415.937612 448.56 
z
" clip-path="url(#p243004f48d)" style="fill: #7f7f7f; opacity: 0.5"/>
   </g>
   <g id="patch_169">
    <path d="M 417.969024 448.56 
L 419.594154 448.56 
L 419.594154 448.56 
L 417.969024 448.56 
z
" clip-path="url(#p243004f48d)" style="fill: #7f7f7f; opacity: 0.5"/>
   </g>
   <g id="patch_170">
    <path d="M 420.000437 448.56 
L 421.625567 448.56 
L 421.625567 448.56 
L 420.000437 448.56 
z
" clip-path="url(#p243004f48d)" style="fill: #7f7f7f; opacity: 0.5"/>
   </g>
   <g id="patch_171">
    <path d="M 422.031849 448.56 
L 423.656979 448.56 
L 423.656979 448.56 
L 422.031849 448.56 
z
" clip-path="url(#p243004f48d)" style="fill: #7f7f7f; opacity: 0.5"/>
   </g>
   <g id="patch_172">
    <path d="M 424.063262 448.56 
L 425.688392 448.56 
L 425.688392 448.56 
L 424.063262 448.56 
z
" clip-path="url(#p243004f48d)" style="fill: #7f7f7f; opacity: 0.5"/>
   </g>
   <g id="patch_173">
    <path d="M 426.094674 448.56 
L 427.719804 448.56 
L 427.719804 448.56 
L 426.094674 448.56 
z
" clip-path="url(#p243004f48d)" style="fill: #7f7f7f; opacity: 0.5"/>
   </g>
   <g id="patch_174">
    <path d="M 428.126087 448.56 
L 429.751217 448.56 
L 429.751217 448.56 
L 428.126087 448.56 
z
" clip-path="url(#p243004f48d)" style="fill: #7f7f7f; opacity: 0.5"/>
   </g>
   <g id="patch_175">
    <path d="M 430.157499 448.56 
L 431.782629 448.56 
L 431.782629 448.56 
L 430.157499 448.56 
z
" clip-path="url(#p243004f48d)" style="fill: #7f7f7f; opacity: 0.5"/>
   </g>
   <g id="patch_176">
    <path d="M 432.188912 448.56 
L 433.814042 448.56 
L 433.814042 448.56 
L 432.188912 448.56 
z
" clip-path="url(#p243004f48d)" style="fill: #7f7f7f; opacity: 0.5"/>
   </g>
   <g id="patch_177">
    <path d="M 434.220325 448.56 
L 435.845455 448.56 
L 435.845455 448.56 
L 434.220325 448.56 
z
" clip-path="url(#p243004f48d)" style="fill: #7f7f7f; opacity: 0.5"/>
   </g>
   <g id="patch_178">
    <path d="M 453.6 448.56 
L 453.6 60.48 
" style="fill: none; stroke: #7f7f7f; stroke-width: 0.8; stroke-linejoin: miter; stroke-linecap: square"/>
   </g>
  </g>
  <g id="axes_2">
   <g id="matplotlib.axis_2">
    <g id="xtick_1">
     <g id="line2d_9">
      <defs>
       <path id="ma805d3b0ef" d="M 0 0 
L 0 3.5 
" style="stroke: #000000; stroke-width: 0.8"/>
      </defs>
      <g>
       <use xlink:href="#ma805d3b0ef" x="91.724173" y="448.56" style="stroke: #000000; stroke-width: 0.8"/>
      </g>
     </g>
     <g id="text_10">
      <text style="font-size: 16px; font-family: 'Arial', sans-serif; text-anchor: middle" x="91.724173" y="467.7175" transform="rotate(-0 91.724173 467.7175)">1 Jul</text>
     </g>
    </g>
    <g id="xtick_2">
     <g id="line2d_10">
      <g>
       <use xlink:href="#ma805d3b0ef" x="154.697961" y="448.56" style="stroke: #000000; stroke-width: 0.8"/>
      </g>
     </g>
     <g id="text_11">
      <text style="font-size: 16px; font-family: 'Arial', sans-serif; text-anchor: middle" x="154.697961" y="467.71625" transform="rotate(-0 154.697961 467.71625)">1 Aug</text>
     </g>
    </g>
    <g id="xtick_3">
     <g id="line2d_11">
      <g>
       <use xlink:href="#ma805d3b0ef" x="217.67175" y="448.56" style="stroke: #000000; stroke-width: 0.8"/>
      </g>
     </g>
     <g id="text_12">
      <text style="font-size: 16px; font-family: 'Arial', sans-serif; text-anchor: middle" x="217.67175" y="467.71625" transform="rotate(-0 217.67175 467.71625)">1 Sep</text>
     </g>
    </g>
    <g id="xtick_4">
     <g id="line2d_12">
      <g>
       <use xlink:href="#ma805d3b0ef" x="278.614125" y="448.56" style="stroke: #000000; stroke-width: 0.8"/>
      </g>
     </g>
     <g id="text_13">
      <text style="font-size: 16px; font-family: 'Arial', sans-serif; text-anchor: middle" x="278.614125" y="467.71625" transform="rotate(-0 278.614125 467.71625)">1 Oct</text>
     </g>
    </g>
    <g id="xtick_5">
     <g id="line2d_13">
      <g>
       <use xlink:href="#ma805d3b0ef" x="341.587913" y="448.56" style="stroke: #000000; stroke-width: 0.8"/>
      </g>
     </g>
     <g id="text_14">
      <text style="font-size: 16px; font-family: 'Arial', sans-serif; text-anchor: middle" x="341.587913" y="467.71625" transform="rotate(-0 341.587913 467.71625)">1 Nov</text>
     </g>
    </g>
    <g id="xtick_6">
     <g id="line2d_14">
      <g>
       <use xlink:href="#ma805d3b0ef" x="402.530289" y="448.56" style="stroke: #000000; stroke-width: 0.8"/>
      </g>
     </g>
     <g id="text_15">
      <text style="font-size: 16px; font-family: 'Arial', sans-serif; text-anchor: middle" x="402.530289" y="467.71625" transform="rotate(-0 402.530289 467.71625)">1 Dec</text>
     </g>
    </g>
    <g id="text_16">
     <text style="font-size: 16px; font-family: 'Arial', sans-serif; text-anchor: middle" x="258.3" y="487.7175" transform="rotate(-0 258.3 487.7175)">Date (2017)</text>
    </g>
   </g>
   <g id="matplotlib.axis_3">
    <g id="ytick_9">
     <g id="line2d_15">
      <defs>
       <path id="md81388ec71" d="M 0 0 
L -3.5 0 
" style="stroke: #000000; stroke-width: 0.8"/>
      </defs>
      <g>
       <use xlink:href="#md81388ec71" x="63" y="448.56" style="stroke: #000000; stroke-width: 0.8"/>
      </g>
     </g>
     <g id="text_17">
      <text style="font-size: 16px; font-family: 'Arial', sans-serif; text-anchor: end" x="56" y="454.638125" transform="rotate(-0 56 454.638125)">0.0</text>
     </g>
    </g>
    <g id="ytick_10">
     <g id="line2d_16">
      <g>
       <use xlink:href="#md81388ec71" x="63" y="371.712475" style="stroke: #000000; stroke-width: 0.8"/>
      </g>
     </g>
     <g id="text_18">
      <text style="font-size: 16px; font-family: 'Arial', sans-serif; text-anchor: end" x="56" y="377.7906" transform="rotate(-0 56 377.7906)">0.2</text>
     </g>
    </g>
    <g id="ytick_11">
     <g id="line2d_17">
      <g>
       <use xlink:href="#md81388ec71" x="63" y="294.86495" style="stroke: #000000; stroke-width: 0.8"/>
      </g>
     </g>
     <g id="text_19">
      <text style="font-size: 16px; font-family: 'Arial', sans-serif; text-anchor: end" x="56" y="300.943075" transform="rotate(-0 56 300.943075)">0.4</text>
     </g>
    </g>
    <g id="ytick_12">
     <g id="line2d_18">
      <g>
       <use xlink:href="#md81388ec71" x="63" y="218.017426" style="stroke: #000000; stroke-width: 0.8"/>
      </g>
     </g>
     <g id="text_20">
      <text style="font-size: 16px; font-family: 'Arial', sans-serif; text-anchor: end" x="56" y="224.095551" transform="rotate(-0 56 224.095551)">0.6</text>
     </g>
    </g>
    <g id="ytick_13">
     <g id="line2d_19">
      <g>
       <use xlink:href="#md81388ec71" x="63" y="141.169901" style="stroke: #000000; stroke-width: 0.8"/>
      </g>
     </g>
     <g id="text_21">
      <text style="font-size: 16px; font-family: 'Arial', sans-serif; text-anchor: end" x="56" y="147.248026" transform="rotate(-0 56 147.248026)">0.8</text>
     </g>
    </g>
    <g id="ytick_14">
     <g id="line2d_20">
      <g>
       <use xlink:href="#md81388ec71" x="63" y="64.322376" style="stroke: #000000; stroke-width: 0.8"/>
      </g>
     </g>
     <g id="text_22">
      <text style="font-size: 16px; font-family: 'Arial', sans-serif; text-anchor: end" x="56" y="70.400501" transform="rotate(-0 56 70.400501)">1.0</text>
     </g>
    </g>
    <g id="text_23">
     <text style="font-size: 16px; font-family: 'Arial', sans-serif; text-anchor: middle" x="22.71125" y="254.52" transform="rotate(-90 22.71125 254.52)">Probability of additional cases</text>
    </g>
   </g>
   <g id="line2d_21">
    <path d="M 81.56711 64.322376 
L 83.598523 105.611199 
L 85.629936 70.672366 
L 87.661348 65.520008 
L 93.755586 65.615749 
L 95.786998 65.765343 
L 97.818411 66.06016 
L 99.849823 66.602307 
L 101.881236 65.328598 
L 103.912648 65.829458 
L 105.944061 66.656174 
L 107.975473 67.993514 
L 110.006886 70.050737 
L 112.038298 73.161251 
L 114.069711 77.658891 
L 116.101123 84.067278 
L 118.132536 92.981908 
L 120.163948 105.099472 
L 122.195361 73.275692 
L 124.226773 76.33377 
L 126.258186 79.974471 
L 128.289599 67.567588 
L 130.321011 68.305022 
L 132.352424 65.146895 
L 134.383836 65.307331 
L 136.415249 64.527881 
L 138.446661 64.575751 
L 140.478074 64.377036 
L 146.572311 64.326598 
L 219.703162 64.322376 
L 276.582713 64.393958 
L 278.614125 64.499269 
L 280.645538 64.749743 
L 282.67695 65.446592 
L 284.708363 66.913475 
L 286.739775 69.136665 
L 288.771188 71.637594 
L 290.8026 75.783854 
L 294.865425 89.707772 
L 296.896838 101.176831 
L 298.92825 109.81965 
L 300.959663 124.701924 
L 302.991076 141.900406 
L 305.022488 161.567415 
L 307.053901 169.908698 
L 309.085313 176.404631 
L 315.179551 234.099421 
L 317.210963 229.492916 
L 321.273788 259.734018 
L 327.368026 302.007539 
L 331.430851 330.443896 
L 335.493676 359.907072 
L 337.525088 338.922144 
L 339.556501 350.42486 
L 341.587913 360.672981 
L 343.619326 369.570482 
L 345.650739 377.330303 
L 349.713564 390.927227 
L 351.744976 368.47786 
L 355.807801 379.825892 
L 359.870626 390.528662 
L 367.996276 411.238455 
L 372.059101 421.676016 
L 374.090514 426.450307 
L 376.121926 430.824967 
L 378.153339 434.651522 
L 380.184751 437.856884 
L 382.216164 440.504672 
L 384.247576 442.606166 
L 386.278989 444.236419 
L 388.310401 445.475815 
L 390.341814 446.399017 
L 392.373227 447.069862 
L 394.404639 447.548993 
L 398.467464 448.109541 
L 402.530289 448.366303 
L 408.624527 448.508477 
L 424.875827 448.558982 
L 435.03289 448.56 
L 435.03289 448.56 
" clip-path="url(#p243004f48d)" style="fill: none; stroke: #0173b2; stroke-width: 2; stroke-linecap: square"/>
   </g>
   <g id="line2d_22">
    <path d="M 105.944061 83.397322 
L 107.975473 90.562599 
L 110.006886 99.007277 
L 112.038298 108.737271 
L 114.069711 119.304277 
L 120.163948 136.729766 
L 122.195361 72.531547 
L 126.258186 75.097844 
L 128.289599 65.789076 
L 130.321011 66.059452 
L 132.352424 64.600691 
L 134.383836 64.669258 
L 136.415249 64.384153 
L 140.478074 64.339994 
L 158.760786 64.322379 
L 282.67695 64.370275 
L 288.771188 64.774317 
L 290.8026 65.127505 
L 292.834013 65.865841 
L 294.865425 66.201172 
L 296.896838 67.597248 
L 298.92825 68.628797 
L 300.959663 71.946453 
L 305.022488 79.221859 
L 307.053901 78.409811 
L 309.085313 77.387526 
L 313.148138 89.404458 
L 315.179551 97.329071 
L 317.210963 89.074793 
L 321.273788 109.581931 
L 323.305201 117.927997 
L 325.336613 127.945885 
L 327.368026 140.001029 
L 329.399438 154.87725 
L 331.430851 163.381556 
L 333.462263 172.763903 
L 335.493676 182.991227 
L 337.525088 118.019706 
L 339.556501 126.976634 
L 343.619326 146.448077 
L 345.650739 157.115439 
L 347.682151 168.563253 
L 349.713564 181.314284 
L 351.744976 130.822956 
L 353.776389 140.485422 
L 355.807801 152.264492 
L 357.839214 166.169885 
L 359.870626 182.802399 
L 361.902039 202.346318 
L 363.933451 226.461686 
L 365.964864 240.263984 
L 367.996276 256.078503 
L 372.059101 290.75896 
L 376.121926 328.157539 
L 378.153339 345.928561 
L 380.184751 361.975847 
L 382.216164 376.956269 
L 384.247576 390.863894 
L 386.278989 402.724346 
L 388.310401 413.087704 
L 390.341814 421.538743 
L 392.373227 428.323909 
L 394.404639 433.739245 
L 396.436052 437.937676 
L 398.467464 441.09502 
L 400.498877 443.414015 
L 402.530289 445.066129 
L 404.561702 446.223955 
L 406.593114 447.013784 
L 408.624527 447.55477 
L 410.655939 447.91031 
L 414.718764 448.298064 
L 420.813002 448.497538 
L 435.03289 448.56 
L 435.03289 448.56 
" clip-path="url(#p243004f48d)" style="fill: none; stroke: #de8f05; stroke-width: 2; stroke-linecap: square"/>
   </g>
   <g id="line2d_23">
    <path d="M 402.530289 448.56 
L 402.530289 60.48 
" clip-path="url(#p243004f48d)" style="fill: none; stroke-dasharray: 2,3.3; stroke-dashoffset: 0; stroke: #d55e00; stroke-width: 2"/>
   </g>
   <g id="line2d_24">
    <path d="M 441.127127 448.56 
L 441.127127 60.48 
" clip-path="url(#p243004f48d)" style="fill: none; stroke-dasharray: 2,3.3; stroke-dashoffset: 0; stroke: #cc78bc; stroke-width: 2"/>
   </g>
   <g id="patch_179">
    <path d="M 63 448.56 
L 63 60.48 
" style="fill: none; stroke: #000000; stroke-width: 0.8; stroke-linejoin: miter; stroke-linecap: square"/>
   </g>
   <g id="patch_180">
    <path d="M 63 448.56 
L 453.6 448.56 
" style="fill: none; stroke: #000000; stroke-width: 0.8; stroke-linejoin: miter; stroke-linecap: square"/>
   </g>
   <g id="legend_1">
    <g id="patch_181">
     <path d="M 72.8 217.979738 
L 234.716563 217.979738 
Q 237.516563 217.979738 237.516563 215.179738 
L 237.516563 112.9688 
Q 237.516563 110.1688 234.716563 110.1688 
L 72.8 110.1688 
Q 70 110.1688 70 112.9688 
L 70 215.179738 
Q 70 217.979738 72.8 217.979738 
z
" style="fill: #ffffff; opacity: 0.8; stroke: #cccccc; stroke-linejoin: miter"/>
    </g>
    <g id="line2d_25">
     <path d="M 75.6 121.506613 
L 89.6 121.506613 
L 103.6 121.506613 
" style="fill: none; stroke: #0173b2; stroke-width: 2; stroke-linecap: square"/>
    </g>
    <g id="text_24">
     <text style="font-size: 14px; font-family: 'Arial', sans-serif; text-anchor: start" x="114.8" y="126.406613" transform="rotate(-0 114.8 126.406613)">Suitability-based</text>
    </g>
    <g id="line2d_26">
     <path d="M 75.6 142.507706 
L 89.6 142.507706 
L 103.6 142.507706 
" style="fill: none; stroke: #de8f05; stroke-width: 2; stroke-linecap: square"/>
    </g>
    <g id="text_25">
     <text style="font-size: 14px; font-family: 'Arial', sans-serif; text-anchor: start" x="114.8" y="147.407706" transform="rotate(-0 114.8 147.407706)">EpiEstim</text>
    </g>
    <g id="line2d_27">
     <path d="M 75.6 174.993722 
L 89.6 174.993722 
L 103.6 174.993722 
" style="fill: none; stroke-dasharray: 2,3.3; stroke-dashoffset: 0; stroke: #d55e00; stroke-width: 2"/>
    </g>
    <g id="text_26">
     <text style="font-size: 14px; font-family: 'Arial', sans-serif" transform="translate(114.8 169.810167)">Blood measures</text>
     <text style="font-size: 14px; font-family: 'Arial', sans-serif" transform="translate(114.8 186.613995)">lifted</text>
    </g>
    <g id="line2d_28">
     <path d="M 75.6 204.116456 
L 89.6 204.116456 
L 103.6 204.116456 
" style="fill: none; stroke-dasharray: 2,3.3; stroke-dashoffset: 0; stroke: #cc78bc; stroke-width: 2"/>
    </g>
    <g id="text_27">
     <text style="font-size: 14px; font-family: 'Arial', sans-serif; text-anchor: start" x="114.8" y="209.016456" transform="rotate(-0 114.8 209.016456)">45-day rule</text>
    </g>
   </g>
  </g>
 </g>
 <defs>
  <clipPath id="p243004f48d">
   <rect x="63" y="60.48" width="390.6" height="388.08"/>
  </clipPath>
 </defs>
</svg>
