<?xml version="1.0" encoding="utf-8" standalone="no"?>
<!DOCTYPE svg PUBLIC "-//W3C//DTD SVG 1.1//EN"
  "http://www.w3.org/Graphics/SVG/1.1/DTD/svg11.dtd">
<svg xmlns:xlink="http://www.w3.org/1999/xlink" width="504pt" height="504pt" viewBox="0 0 504 504" xmlns="http://www.w3.org/2000/svg" version="1.1">
 <metadata>
  <rdf:RDF xmlns:dc="http://purl.org/dc/elements/1.1/" xmlns:cc="http://creativecommons.org/ns#" xmlns:rdf="http://www.w3.org/1999/02/22-rdf-syntax-ns#">
   <cc:Work>
    <dc:type rdf:resource="http://purl.org/dc/dcmitype/StillImage"/>
    <dc:date>2026-07-23T18:06:46.963777</dc:date>
    <dc:format>image/svg+xml</dc:format>
    <dc:creator>
     <cc:Agent>
      <dc:title>Matplotlib v3.11.0, https://matplotlib.org/</dc:title>
     </cc:Agent>
    </dc:creator>
   </cc:Work>
  </rdf:RDF>
 </metadata>
 <defs>
  <style type="text/css">*{stroke-linejoin: round; stroke-linecap: butt}</style>
 </defs>
 <g id="figure_1">
  <g id="patch_1">
   <path d="M 0 504 
L 504 504 
L 504 0 
L 0 0 
L 0 504 
z
" style="fill: none"/>
  </g>
  <g id="axes_1">
   <g id="patch_2">
    <path d="M 63 448.56 
L 453.6 448.56 
L 453.6 60.48 
L 63 60.48 
L 63 448.56 
z
" style="fill: none"/>
   </g>
   <g id="matplotlib.axis_1">
    <g id="xtick_1">
     <g id="line2d_1">
      <defs>
       <path id="m06228a0cb4" d="M 0 0 
L 0 3.5 
" style="stroke: #000000; stroke-width: 0.8"/>
      </defs>
      <g>
       <use xlink:href="#m06228a0cb4" x="63" y="448.56" style="stroke: #000000; stroke-width: 0.8"/>
      </g>
     </g>
     <g id="text_1">
      <text style="font-size: 16px; font-family: 'Arial', sans-serif; text-anchor: middle" x="63" y="467.208438" transform="rotate(-0 63 467.208438)">0.1</text>
     </g>
    </g>
    <g id="xtick_2">
     <g id="line2d_2">
      <g>
       <use xlink:href="#m06228a0cb4" x="137.963636" y="448.56" style="stroke: #000000; stroke-width: 0.8"/>
      </g>
     </g>
     <g id="text_2">
      <text style="font-size: 16px; font-family: 'Arial', sans-serif; text-anchor: middle" x="137.963636" y="467.208438" transform="rotate(-0 137.963636 467.208438)">2.0</text>
     </g>
    </g>
    <g id="xtick_3">
     <g id="line2d_3">
      <g>
       <use xlink:href="#m06228a0cb4" x="216.872727" y="448.56" style="stroke: #000000; stroke-width: 0.8"/>
      </g>
     </g>
     <g id="text_3">
      <text style="font-size: 16px; font-family: 'Arial', sans-serif; text-anchor: middle" x="216.872727" y="467.208438" transform="rotate(-0 216.872727 467.208438)">4.0</text>
     </g>
    </g>
    <g id="xtick_4">
     <g id="line2d_4">
      <g>
       <use xlink:href="#m06228a0cb4" x="295.781818" y="448.56" style="stroke: #000000; stroke-width: 0.8"/>
      </g>
     </g>
     <g id="text_4">
      <text style="font-size: 16px; font-family: 'Arial', sans-serif; text-anchor: middle" x="295.781818" y="467.208438" transform="rotate(-0 295.781818 467.208438)">6.0</text>
     </g>
    </g>
    <g id="xtick_5">
     <g id="line2d_5">
      <g>
       <use xlink:href="#m06228a0cb4" x="374.690909" y="448.56" style="stroke: #000000; stroke-width: 0.8"/>
      </g>
     </g>
     <g id="text_5">
      <text style="font-size: 16px; font-family: 'Arial', sans-serif; text-anchor: middle" x="374.690909" y="467.208438" transform="rotate(-0 374.690909 467.208438)">8.0</text>
     </g>
    </g>
    <g id="xtick_6">
     <g id="line2d_6">
      <g>
       <use xlink:href="#m06228a0cb4" x="453.6" y="448.56" style="stroke: #000000; stroke-width: 0.8"/>
      </g>
     </g>
     <g id="text_6">
      <text style="font-size: 16px; font-family: 'Arial', sans-serif; text-anchor: middle" x="453.6" y="467.208438" transform="rotate(-0 453.6 467.208438)">10.0</text>
     </g>
    </g>
    <g id="text_7">
     <text style="font-size: 16px; font-family: 'Arial', sans-serif; text-anchor: middle" x="258.3" y="486.224063" transform="rotate(-0 258.3 486.224063)">Risk threshold (%)</text>
    </g>
   </g>
   <g id="matplotlib.axis_2">
    <g id="ytick_1">
     <g id="line2d_7">
      <defs>
       <path id="mff252059ec" d="M 0 0 
L -3.5 0 
" style="stroke: #000000; stroke-width: 0.8"/>
      </defs>
      <g>
       <use xlink:href="#mff252059ec" x="63" y="448.56" style="stroke: #000000; stroke-width: 0.8"/>
      </g>
     </g>
     <g id="text_8">
      <text style="font-size: 16px; font-family: 'Arial', sans-serif; text-anchor: end" x="56" y="454.384219" transform="rotate(-0 56 454.384219)">0</text>
     </g>
    </g>
    <g id="ytick_2">
     <g id="line2d_8">
      <g>
       <use xlink:href="#mff252059ec" x="63" y="390.026063" style="stroke: #000000; stroke-width: 0.8"/>
      </g>
     </g>
     <g id="text_9">
      <text style="font-size: 16px; font-family: 'Arial', sans-serif; text-anchor: end" x="56" y="395.850282" transform="rotate(-0 56 395.850282)">5</text>
     </g>
    </g>
    <g id="ytick_3">
     <g id="line2d_9">
      <g>
       <use xlink:href="#mff252059ec" x="63" y="331.492127" style="stroke: #000000; stroke-width: 0.8"/>
      </g>
     </g>
     <g id="text_10">
      <text style="font-size: 16px; font-family: 'Arial', sans-serif; text-anchor: end" x="56" y="337.316345" transform="rotate(-0 56 337.316345)">10</text>
     </g>
    </g>
    <g id="ytick_4">
     <g id="line2d_10">
      <g>
       <use xlink:href="#mff252059ec" x="63" y="272.95819" style="stroke: #000000; stroke-width: 0.8"/>
      </g>
     </g>
     <g id="text_11">
      <text style="font-size: 16px; font-family: 'Arial', sans-serif; text-anchor: end" x="56" y="278.782409" transform="rotate(-0 56 278.782409)">15</text>
     </g>
    </g>
    <g id="ytick_5">
     <g id="line2d_11">
      <g>
       <use xlink:href="#mff252059ec" x="63" y="214.424253" style="stroke: #000000; stroke-width: 0.8"/>
      </g>
     </g>
     <g id="text_12">
      <text style="font-size: 16px; font-family: 'Arial', sans-serif; text-anchor: end" x="56" y="220.248472" transform="rotate(-0 56 220.248472)">20</text>
     </g>
    </g>
    <g id="ytick_6">
     <g id="line2d_12">
      <g>
       <use xlink:href="#mff252059ec" x="63" y="155.890317" style="stroke: #000000; stroke-width: 0.8"/>
      </g>
     </g>
     <g id="text_13">
      <text style="font-size: 16px; font-family: 'Arial', sans-serif; text-anchor: end" x="56" y="161.714535" transform="rotate(-0 56 161.714535)">25</text>
     </g>
    </g>
    <g id="ytick_7">
     <g id="line2d_13">
      <g>
       <use xlink:href="#mff252059ec" x="63" y="97.35638" style="stroke: #000000; stroke-width: 0.8"/>
      </g>
     </g>
     <g id="text_14">
      <text style="font-size: 16px; font-family: 'Arial', sans-serif; text-anchor: end" x="56" y="103.180599" transform="rotate(-0 56 103.180599)">30</text>
     </g>
    </g>
    <g id="text_15">
     <text style="font-size: 16px; font-family: 'Arial', sans-serif" transform="translate(12.224219 359.88875) rotate(-90)">Days from last observed case</text>
     <text style="font-size: 16px; font-family: 'Arial', sans-serif" transform="translate(29.638594 358.56125) rotate(-90)">until risk falls below threshold</text>
    </g>
   </g>
   <g id="line2d_14">
    <path d="M 63 155.890317 
L 66.906 179.303891 
L 70.812 191.010679 
L 74.718 202.717466 
L 78.624 202.717466 
L 82.53 214.424253 
L 86.436 214.424253 
L 90.342 226.131041 
L 94.248 226.131041 
L 98.154 226.131041 
L 102.06 226.131041 
L 105.966 237.837828 
L 109.872 237.837828 
L 113.778 237.837828 
L 117.684 237.837828 
L 121.59 249.544615 
L 125.496 249.544615 
L 129.402 249.544615 
L 133.308 249.544615 
L 137.214 249.544615 
L 141.12 261.251403 
L 145.026 261.251403 
L 148.932 261.251403 
L 152.838 261.251403 
L 156.744 261.251403 
L 160.65 261.251403 
L 164.556 261.251403 
L 168.462 272.95819 
L 172.368 272.95819 
L 176.274 272.95819 
L 180.18 272.95819 
L 184.086 272.95819 
L 187.992 272.95819 
L 191.898 272.95819 
L 195.804 272.95819 
L 199.71 272.95819 
L 203.616 284.664977 
L 207.522 284.664977 
L 211.428 284.664977 
L 215.334 284.664977 
L 219.24 284.664977 
L 223.146 284.664977 
L 227.052 284.664977 
L 230.958 284.664977 
L 234.864 284.664977 
L 238.77 284.664977 
L 242.676 296.371765 
L 246.582 296.371765 
L 250.488 296.371765 
L 254.394 296.371765 
L 258.3 296.371765 
L 262.206 296.371765 
L 266.112 296.371765 
L 270.018 296.371765 
L 273.924 296.371765 
L 277.83 296.371765 
L 281.736 296.371765 
L 285.642 308.078552 
L 289.548 308.078552 
L 293.454 308.078552 
L 297.36 308.078552 
L 301.266 308.078552 
L 305.172 308.078552 
L 309.078 308.078552 
L 312.984 308.078552 
L 316.89 308.078552 
L 320.796 308.078552 
L 324.702 308.078552 
L 328.608 308.078552 
L 332.514 308.078552 
L 336.42 319.785339 
L 340.326 319.785339 
L 344.232 319.785339 
L 348.138 319.785339 
L 352.044 319.785339 
L 355.95 319.785339 
L 359.856 319.785339 
L 363.762 319.785339 
L 367.668 319.785339 
L 371.574 319.785339 
L 375.48 319.785339 
L 379.386 319.785339 
L 383.292 319.785339 
L 387.198 331.492127 
L 391.104 331.492127 
L 395.01 331.492127 
L 398.916 331.492127 
L 402.822 331.492127 
L 406.728 331.492127 
L 410.634 331.492127 
L 414.54 331.492127 
L 418.446 331.492127 
L 422.352 331.492127 
L 426.258 331.492127 
L 430.164 331.492127 
L 434.07 331.492127 
L 437.976 331.492127 
L 441.882 343.198914 
L 445.788 343.198914 
L 449.694 343.198914 
L 453.6 343.198914 
" clip-path="url(#p75a7a847ac)" style="fill: none; stroke: #0173b2; stroke-width: 2; stroke-linecap: square"/>
   </g>
   <g id="line2d_15">
    <path d="M 63 73.942805 
L 66.906 97.35638 
L 70.812 109.063167 
L 74.718 109.063167 
L 78.624 120.769955 
L 82.53 120.769955 
L 86.436 132.476742 
L 90.342 132.476742 
L 94.248 132.476742 
L 98.154 144.183529 
L 102.06 144.183529 
L 105.966 144.183529 
L 109.872 144.183529 
L 113.778 155.890317 
L 117.684 155.890317 
L 121.59 155.890317 
L 125.496 155.890317 
L 129.402 155.890317 
L 133.308 155.890317 
L 137.214 167.597104 
L 141.12 167.597104 
L 145.026 167.597104 
L 148.932 167.597104 
L 152.838 167.597104 
L 156.744 167.597104 
L 160.65 167.597104 
L 164.556 167.597104 
L 168.462 179.303891 
L 172.368 179.303891 
L 176.274 179.303891 
L 180.18 179.303891 
L 184.086 179.303891 
L 187.992 179.303891 
L 191.898 179.303891 
L 195.804 179.303891 
L 199.71 179.303891 
L 203.616 179.303891 
L 207.522 179.303891 
L 211.428 191.010679 
L 215.334 191.010679 
L 219.24 191.010679 
L 223.146 191.010679 
L 227.052 191.010679 
L 230.958 191.010679 
L 234.864 191.010679 
L 238.77 191.010679 
L 242.676 191.010679 
L 246.582 191.010679 
L 250.488 191.010679 
L 254.394 191.010679 
L 258.3 191.010679 
L 262.206 191.010679 
L 266.112 191.010679 
L 270.018 202.717466 
L 273.924 202.717466 
L 277.83 202.717466 
L 281.736 202.717466 
L 285.642 202.717466 
L 289.548 202.717466 
L 293.454 202.717466 
L 297.36 202.717466 
L 301.266 202.717466 
L 305.172 202.717466 
L 309.078 202.717466 
L 312.984 202.717466 
L 316.89 202.717466 
L 320.796 202.717466 
L 324.702 202.717466 
L 328.608 202.717466 
L 332.514 202.717466 
L 336.42 202.717466 
L 340.326 214.424253 
L 344.232 214.424253 
L 348.138 214.424253 
L 352.044 214.424253 
L 355.95 214.424253 
L 359.856 214.424253 
L 363.762 214.424253 
L 367.668 214.424253 
L 371.574 214.424253 
L 375.48 214.424253 
L 379.386 214.424253 
L 383.292 214.424253 
L 387.198 214.424253 
L 391.104 214.424253 
L 395.01 214.424253 
L 398.916 214.424253 
L 402.822 214.424253 
L 406.728 214.424253 
L 410.634 214.424253 
L 414.54 214.424253 
L 418.446 214.424253 
L 422.352 214.424253 
L 426.258 226.131041 
L 430.164 226.131041 
L 434.07 226.131041 
L 437.976 226.131041 
L 441.882 226.131041 
L 445.788 226.131041 
L 449.694 226.131041 
L 453.6 226.131041 
" clip-path="url(#p75a7a847ac)" style="fill: none; stroke: #de8f05; stroke-width: 2; stroke-linecap: square"/>
   </g>
   <g id="line2d_16">
    <path d="M 63 144.183529 
L 453.6 144.183529 
" clip-path="url(#p75a7a847ac)" style="fill: none; stroke-dasharray: 2,3.3; stroke-dashoffset: 0; stroke: #d55e00; stroke-width: 2"/>
   </g>
   <g id="patch_3">
    <path d="M 63 448.56 
L 63 60.48 
" style="fill: none; stroke: #000000; stroke-width: 0.8; stroke-linejoin: miter; stroke-linecap: square"/>
   </g>
   <g id="patch_4">
    <path d="M 63 448.56 
L 453.6 448.56 
" style="fill: none; stroke: #000000; stroke-width: 0.8; stroke-linejoin: miter; stroke-linecap: square"/>
   </g>
   <g id="legend_1">
    <g id="patch_5">
     <path d="M 72.8 441.56 
L 252.21875 441.56 
Q 255.01875 441.56 255.01875 438.76 
L 255.01875 379.743711 
Q 255.01875 376.943711 252.21875 376.943711 
L 72.8 376.943711 
Q 70 376.943711 70 379.743711 
L 70 438.76 
Q 70 441.56 72.8 441.56 
z
" style="fill: #ffffff; opacity: 0.8; stroke: #cccccc; stroke-linejoin: miter"/>
    </g>
    <g id="line2d_17">
     <path d="M 75.6 387.836094 
L 89.6 387.836094 
L 103.6 387.836094 
" style="fill: none; stroke: #0173b2; stroke-width: 2; stroke-linecap: square"/>
    </g>
    <g id="text_16">
     <text style="font-size: 14px; font-family: 'Arial', sans-serif; text-anchor: start" x="114.8" y="392.736094" transform="rotate(-0 114.8 392.736094)">Suitability-based</text>
    </g>
    <g id="line2d_18">
     <path d="M 75.6 407.975039 
L 89.6 407.975039 
L 103.6 407.975039 
" style="fill: none; stroke: #de8f05; stroke-width: 2; stroke-linecap: square"/>
    </g>
    <g id="text_17">
     <text style="font-size: 14px; font-family: 'Arial', sans-serif; text-anchor: start" x="114.8" y="412.875039" transform="rotate(-0 114.8 412.875039)">EpiEstim</text>
    </g>
    <g id="line2d_19">
     <path d="M 75.6 428.113711 
L 89.6 428.113711 
L 103.6 428.113711 
" style="fill: none; stroke-dasharray: 2,3.3; stroke-dashoffset: 0; stroke: #d55e00; stroke-width: 2"/>
    </g>
    <g id="text_18">
     <text style="font-size: 14px; font-family: 'Arial', sans-serif; text-anchor: start" x="114.8" y="433.013711" transform="rotate(-0 114.8 433.013711)">Blood measures lifted</text>
    </g>
   </g>
  </g>
 </g>
 <defs>
  <clipPath id="p75a7a847ac">
   <rect x="63" y="60.48" width="390.6" height="388.08"/>
  </clipPath>
 </defs>
</svg>
