<?xml version="1.0" encoding="utf-8" standalone="no"?>
<!DOCTYPE svg PUBLIC "-//W3C//DTD SVG 1.1//EN"
  "http://www.w3.org/Graphics/SVG/1.1/DTD/svg11.dtd">
<svg xmlns:xlink="http://www.w3.org/1999/xlink" width="504pt" height="504pt" viewBox="0 0 504 504" xmlns="http://www.w3.org/2000/svg" version="1.1">
 <metadata>
  <rdf:RDF xmlns:dc="http://purl.org/dc/elements/1.1/" xmlns:cc="http://creativecommons.org/ns#" xmlns:rdf="http://www.w3.org/1999/02/22-rdf-syntax-ns#">
   <cc:Work>
    <dc:type rdf:resource="http://purl.org/dc/dcmitype/StillImage"/>
    <dc:date>2026-06-18T11:49:49.247588</dc:date>
    <dc:format>image/svg+xml</dc:format>
    <dc:creator>
     <cc:Agent>
      <dc:title>Matplotlib v3.11.0, https://matplotlib.org/</dc:title>
     </cc:Agent>
    </dc:creator>
   </cc:Work>
  </rdf:RDF>
 </metadata>
 <defs>
  <style type="text/css">*{stroke-linejoin: round; stroke-linecap: butt}</style>
 </defs>
 <g id="figure_1">
  <g id="patch_1">
   <path d="M 0 504 
L 504 504 
L 504 0 
L 0 0 
L 0 504 
z
" style="fill: none"/>
  </g>
  <g id="axes_1">
   <g id="patch_2">
    <path d="M 63 448.56 
L 453.6 448.56 
L 453.6 60.48 
L 63 60.48 
L 63 448.56 
z
" style="fill: none"/>
   </g>
   <g id="FillBetweenPolyCollection_1">
    <defs>
     <path id="mac90631ffc" d="M 81.571786 -412.23617 
L 81.571786 -91.219608 
L 83.614886 -95.307781 
L 85.657987 -98.072035 
L 87.701088 -95.414514 
L 89.744189 -93.425715 
L 91.787289 -91.671426 
L 93.83039 -89.769579 
L 95.873491 -87.941179 
L 97.916592 -87.154394 
L 99.959692 -86.581257 
L 102.002793 -84.245301 
L 104.045894 -84.2702 
L 106.088995 -83.981863 
L 108.132095 -83.628511 
L 110.175196 -83.213697 
L 112.218297 -83.438436 
L 114.261398 -84.89418 
L 116.304498 -87.081209 
L 118.347599 -89.049964 
L 120.3907 -91.188279 
L 122.433801 -93.104361 
L 124.476901 -95.640173 
L 126.520002 -98.442021 
L 128.563103 -100.437674 
L 130.606204 -103.7467 
L 132.649304 -106.341743 
L 134.692405 -108.85603 
L 136.735506 -110.649761 
L 138.778607 -112.912447 
L 140.821707 -114.054155 
L 142.864808 -114.198416 
L 144.907909 -115.134986 
L 146.95101 -116.035158 
L 148.99411 -116.936031 
L 151.037211 -118.821632 
L 153.080312 -121.040987 
L 155.123412 -124.327836 
L 157.166513 -128.388604 
L 159.209614 -129.007448 
L 161.252715 -129.307171 
L 163.295815 -129.876777 
L 165.338916 -129.453802 
L 167.382017 -131.039797 
L 169.425118 -134.144318 
L 171.468218 -133.534694 
L 173.511319 -136.890511 
L 175.55442 -142.860009 
L 177.597521 -151.120894 
L 179.640621 -158.727076 
L 181.683722 -160.788518 
L 183.726823 -164.582487 
L 185.769924 -174.992982 
L 187.813024 -185.496773 
L 189.856125 -195.566942 
L 191.899226 -190.799089 
L 193.942327 -186.300913 
L 195.985427 -167.575956 
L 198.028528 -153.611159 
L 200.071629 -141.954823 
L 202.11473 -131.239534 
L 204.15783 -116.573061 
L 206.200931 -108.80587 
L 208.244032 -109.799674 
L 210.287133 -104.15209 
L 212.330233 -103.727909 
L 214.373334 -105.690432 
L 216.416435 -115.54544 
L 218.459536 -121.787427 
L 220.502636 -125.245195 
L 222.545737 -129.667512 
L 224.588838 -137.460944 
L 226.631938 -144.117248 
L 228.675039 -144.439894 
L 230.71814 -135.987874 
L 232.761241 -133.929395 
L 234.804341 -123.002154 
L 236.847442 -125.34108 
L 238.890543 -114.577936 
L 240.933644 -100.460902 
L 242.976744 -92.051218 
L 245.019845 -88.059866 
L 247.062946 -88.010637 
L 249.106047 -90.805518 
L 251.149147 -93.486171 
L 253.192248 -89.180112 
L 255.235349 -84.615839 
L 257.27845 -79.80579 
L 259.32155 -76.578505 
L 261.364651 -73.053086 
L 263.407752 -70.189456 
L 265.450853 -68.392158 
L 267.493953 -66.998652 
L 269.537054 -66.502819 
L 271.580155 -66.390289 
L 273.623256 -66.090823 
L 275.666356 -65.653981 
L 277.709457 -65.344598 
L 279.752558 -64.766499 
L 281.795659 -63.83622 
L 283.838759 -63.339251 
L 285.88186 -63.256581 
L 287.924961 -63.106789 
L 289.968062 -62.588722 
L 292.011162 -62.012445 
L 294.054263 -61.507366 
L 296.097364 -60.999058 
L 298.140464 -60.439708 
L 300.183565 -60.052009 
L 302.226666 -59.760041 
L 304.269767 -59.415328 
L 306.312867 -59.231814 
L 308.355968 -59.067073 
L 310.399069 -58.651847 
L 312.44217 -58.333581 
L 314.48527 -58.229559 
L 316.528371 -58.124048 
L 318.571472 -57.719076 
L 320.614573 -57.323542 
L 322.657673 -57.108548 
L 324.700774 -56.903385 
L 326.743875 -56.714041 
L 328.786976 -56.724129 
L 330.830076 -56.772749 
L 332.873177 -56.93567 
L 334.916278 -57.076938 
L 336.959379 -57.429474 
L 339.002479 -57.353866 
L 341.04558 -57.179584 
L 343.088681 -57.099718 
L 345.131782 -56.957444 
L 347.174882 -56.947164 
L 349.217983 -57.17594 
L 351.261084 -57.210906 
L 353.304185 -56.650486 
L 355.347285 -56.136023 
L 357.390386 -55.660077 
L 359.433487 -55.454381 
L 361.476588 -55.44031 
L 363.519688 -55.440006 
L 365.562789 -55.440003 
L 367.60589 -55.440002 
L 369.64899 -55.440002 
L 371.692091 -55.440002 
L 373.735192 -55.440001 
L 375.778293 -55.440001 
L 377.821393 -55.440001 
L 379.864494 -55.440001 
L 381.907595 -55.440001 
L 383.950696 -55.440001 
L 385.993796 -55.440001 
L 388.036897 -55.440001 
L 390.079998 -55.440001 
L 392.123099 -55.440001 
L 394.166199 -55.440001 
L 396.2093 -55.440001 
L 398.252401 -55.440001 
L 400.295502 -55.44 
L 402.338602 -55.44 
L 404.381703 -55.44 
L 406.424804 -55.44 
L 408.467905 -55.44 
L 410.511005 -55.44 
L 412.554106 -55.44 
L 414.597207 -55.44 
L 416.640308 -55.44 
L 418.683408 -55.44 
L 420.726509 -55.44 
L 422.76961 -55.44 
L 424.812711 -55.44 
L 426.855811 -55.44 
L 428.898912 -55.44 
L 430.942013 -55.44 
L 432.985114 -55.44 
L 435.028214 -55.44 
L 435.028214 -72.870625 
L 435.028214 -72.870625 
L 432.985114 -72.919315 
L 430.942013 -74.311035 
L 428.898912 -74.189116 
L 426.855811 -74.585252 
L 424.812711 -74.989167 
L 422.76961 -74.598589 
L 420.726509 -74.972445 
L 418.683408 -75.364243 
L 416.640308 -75.21636 
L 414.597207 -76.785758 
L 412.554106 -77.021574 
L 410.511005 -76.075181 
L 408.467905 -76.212705 
L 406.424804 -76.269759 
L 404.381703 -77.112329 
L 402.338602 -77.677949 
L 400.295502 -76.555993 
L 398.252401 -76.721524 
L 396.2093 -78.396121 
L 394.166199 -77.468537 
L 392.123099 -78.097161 
L 390.079998 -77.992121 
L 388.036897 -79.156525 
L 385.993796 -79.397963 
L 383.950696 -79.50914 
L 381.907595 -79.275722 
L 379.864494 -80.9953 
L 377.821393 -79.837195 
L 375.778293 -81.00546 
L 373.735192 -80.018486 
L 371.692091 -81.039286 
L 369.64899 -81.830146 
L 367.60589 -82.184478 
L 365.562789 -82.742183 
L 363.519688 -83.125437 
L 361.476588 -83.563881 
L 359.433487 -83.817733 
L 357.390386 -86.019627 
L 355.347285 -86.829831 
L 353.304185 -87.702867 
L 351.261084 -89.12439 
L 349.217983 -89.910759 
L 347.174882 -89.006027 
L 345.131782 -88.867736 
L 343.088681 -88.083188 
L 341.04558 -87.343435 
L 339.002479 -87.028489 
L 336.959379 -85.081851 
L 334.916278 -84.051161 
L 332.873177 -82.403546 
L 330.830076 -81.633466 
L 328.786976 -80.482545 
L 326.743875 -79.89363 
L 324.700774 -79.601543 
L 322.657673 -79.103381 
L 320.614573 -78.559776 
L 318.571472 -78.008637 
L 316.528371 -79.085221 
L 314.48527 -78.77042 
L 312.44217 -78.682621 
L 310.399069 -79.296942 
L 308.355968 -79.785321 
L 306.312867 -80.444885 
L 304.269767 -79.258439 
L 302.226666 -79.23463 
L 300.183565 -79.509834 
L 298.140464 -79.899692 
L 296.097364 -80.483251 
L 294.054263 -80.770353 
L 292.011162 -81.062808 
L 289.968062 -81.39094 
L 287.924961 -82.642472 
L 285.88186 -81.902482 
L 283.838759 -81.788963 
L 281.795659 -82.10016 
L 279.752558 -83.980515 
L 277.709457 -85.355745 
L 275.666356 -85.40961 
L 273.623256 -85.837209 
L 271.580155 -85.41869 
L 269.537054 -85.030996 
L 267.493953 -85.64164 
L 265.450853 -88.492541 
L 263.407752 -92.211885 
L 261.364651 -96.878875 
L 259.32155 -103.186154 
L 257.27845 -109.898126 
L 255.235349 -118.619644 
L 253.192248 -124.72774 
L 251.149147 -131.919093 
L 249.106047 -129.176278 
L 247.062946 -124.329589 
L 245.019845 -123.473729 
L 242.976744 -131.851588 
L 240.933644 -147.517369 
L 238.890543 -174.060495 
L 236.847442 -193.065516 
L 234.804341 -188.262814 
L 232.761241 -209.823658 
L 230.71814 -215.178043 
L 228.675039 -230.5885 
L 226.631938 -230.49073 
L 224.588838 -217.003187 
L 222.545737 -205.236 
L 220.502636 -196.570842 
L 218.459536 -190.300946 
L 216.416435 -183.728823 
L 214.373334 -163.708609 
L 212.330233 -162.277944 
L 210.287133 -162.408347 
L 208.244032 -175.136972 
L 206.200931 -176.172076 
L 204.15783 -194.027491 
L 202.11473 -226.086321 
L 200.071629 -245.23324 
L 198.028528 -269.407622 
L 195.985427 -306.710975 
L 193.942327 -343.852317 
L 191.899226 -356.762504 
L 189.856125 -375.962733 
L 187.813024 -354.58932 
L 185.769924 -339.044534 
L 183.726823 -320.136599 
L 181.683722 -316.695771 
L 179.640621 -315.309459 
L 177.597521 -308.582683 
L 175.55442 -287.133257 
L 173.511319 -278.439787 
L 171.468218 -274.348629 
L 169.425118 -283.727028 
L 167.382017 -287.002971 
L 165.338916 -288.406703 
L 163.295815 -288.368365 
L 161.252715 -290.70244 
L 159.209614 -299.937215 
L 157.166513 -301.134609 
L 155.123412 -287.180934 
L 153.080312 -285.044967 
L 151.037211 -286.868914 
L 148.99411 -288.256437 
L 146.95101 -295.89909 
L 144.907909 -301.484171 
L 142.864808 -304.287458 
L 140.821707 -308.526401 
L 138.778607 -315.13381 
L 136.735506 -302.836535 
L 134.692405 -302.730828 
L 132.649304 -299.211566 
L 130.606204 -288.883912 
L 128.563103 -276.08424 
L 126.520002 -262.988605 
L 124.476901 -245.328044 
L 122.433801 -227.673175 
L 120.3907 -219.037691 
L 118.347599 -202.607619 
L 116.304498 -190.212053 
L 114.261398 -186.923055 
L 112.218297 -183.539851 
L 110.175196 -179.282585 
L 108.132095 -180.310736 
L 106.088995 -184.266811 
L 104.045894 -191.582747 
L 102.002793 -198.989111 
L 99.959692 -216.513356 
L 97.916592 -232.285353 
L 95.873491 -250.091764 
L 93.83039 -271.439838 
L 91.787289 -299.627484 
L 89.744189 -334.014175 
L 87.701088 -362.378815 
L 85.657987 -402.712848 
L 83.614886 -422.63726 
L 81.571786 -412.23617 
z
" style="stroke: #0173b2; stroke-opacity: 0.3"/>
    </defs>
    <g clip-path="url(#p4aaed54154)">
     <use xlink:href="#mac90631ffc" x="0" y="504" style="fill: #0173b2; fill-opacity: 0.3; stroke: #0173b2; stroke-opacity: 0.3"/>
    </g>
   </g>
   <g id="FillBetweenPolyCollection_2">
    <defs>
     <path id="m8dcc15967f" d="M 106.088995 -157.796692 
L 106.088995 -60.058063 
L 108.132095 -59.507617 
L 110.175196 -59.178261 
L 112.218297 -59.016564 
L 114.261398 -55.852724 
L 116.304498 -55.862654 
L 118.347599 -55.884289 
L 120.3907 -59.539238 
L 122.433801 -59.90765 
L 124.476901 -60.365587 
L 126.520002 -69.117428 
L 128.563103 -70.720389 
L 130.606204 -85.2566 
L 132.649304 -88.551703 
L 134.692405 -91.659192 
L 136.735506 -94.073354 
L 138.778607 -114.487651 
L 140.821707 -113.994071 
L 142.864808 -111.435415 
L 144.907909 -107.516376 
L 146.95101 -119.816981 
L 148.99411 -98.600609 
L 151.037211 -108.315252 
L 153.080312 -90.975261 
L 155.123412 -77.356146 
L 157.166513 -107.095815 
L 159.209614 -114.239754 
L 161.252715 -110.53414 
L 163.295815 -117.457521 
L 165.338916 -114.573591 
L 167.382017 -121.444092 
L 169.425118 -146.73657 
L 171.468218 -116.036493 
L 173.511319 -104.921196 
L 175.55442 -102.132014 
L 177.597521 -121.215971 
L 179.640621 -131.035587 
L 181.683722 -139.435132 
L 183.726823 -127.402304 
L 185.769924 -147.360844 
L 187.813024 -159.918569 
L 189.856125 -194.653505 
L 191.899226 -192.727863 
L 193.942327 -211.311655 
L 195.985427 -211.384184 
L 198.028528 -209.305756 
L 200.071629 -200.625612 
L 202.11473 -198.449704 
L 204.15783 -162.670825 
L 206.200931 -138.672452 
L 208.244032 -129.420194 
L 210.287133 -114.242441 
L 212.330233 -108.296579 
L 214.373334 -97.703377 
L 216.416435 -98.000384 
L 218.459536 -105.524949 
L 220.502636 -114.727698 
L 222.545737 -111.283905 
L 224.588838 -121.456332 
L 226.631938 -133.861975 
L 228.675039 -150.131392 
L 230.71814 -147.08606 
L 232.761241 -153.455166 
L 234.804341 -142.727979 
L 236.847442 -153.259909 
L 238.890543 -152.570312 
L 240.933644 -137.492197 
L 242.976744 -121.74934 
L 245.019845 -111.155572 
L 247.062946 -98.256424 
L 249.106047 -100.902223 
L 251.149147 -96.281025 
L 253.192248 -89.531701 
L 255.235349 -91.061738 
L 257.27845 -90.223094 
L 259.32155 -92.547424 
L 261.364651 -91.711576 
L 263.407752 -87.630017 
L 265.450853 -78.312593 
L 267.493953 -73.478065 
L 269.537054 -67.690918 
L 271.580155 -66.260211 
L 273.623256 -64.771526 
L 275.666356 -63.24081 
L 277.709457 -64.449597 
L 279.752558 -64.829748 
L 281.795659 -65.322599 
L 283.838759 -64.871943 
L 285.88186 -64.452623 
L 287.924961 -64.035361 
L 289.968062 -64.91635 
L 292.011162 -61.635607 
L 294.054263 -60.855506 
L 296.097364 -61.484288 
L 298.140464 -64.030844 
L 300.183565 -62.915826 
L 302.226666 -59.562545 
L 304.269767 -58.042461 
L 306.312867 -60.437073 
L 308.355968 -60.927888 
L 310.399069 -61.463843 
L 312.44217 -59.228482 
L 314.48527 -59.605485 
L 316.528371 -63.45108 
L 318.571472 -64.277854 
L 320.614573 -61.028537 
L 322.657673 -57.909137 
L 324.700774 -58.158932 
L 326.743875 -58.42108 
L 328.786976 -58.688435 
L 330.830076 -55.848895 
L 332.873177 -55.880062 
L 334.916278 -55.912081 
L 336.959379 -59.793268 
L 339.002479 -60.121484 
L 341.04558 -60.501526 
L 343.088681 -60.951467 
L 345.131782 -61.483491 
L 347.174882 -62.09561 
L 349.217983 -62.763732 
L 351.261084 -63.440052 
L 353.304185 -64.060575 
L 355.347285 -64.564736 
L 357.390386 -64.915884 
L 359.433487 -65.111408 
L 361.476588 -65.177236 
L 363.519688 -65.152257 
L 365.562789 -56.560532 
L 367.60589 -56.548887 
L 369.64899 -56.537054 
L 371.692091 -56.527113 
L 373.735192 -56.521763 
L 375.778293 -56.524485 
L 377.821393 -56.538998 
L 379.864494 -56.568461 
L 381.907595 -56.615047 
L 383.950696 -56.679755 
L 385.993796 -56.762343 
L 388.036897 -56.861211 
L 390.079998 -56.973306 
L 392.123099 -57.0941 
L 394.166199 -57.217979 
L 396.2093 -57.338884 
L 398.252401 -57.451266 
L 400.295502 -57.550931 
L 402.338602 -57.635459 
L 404.381703 -57.704254 
L 406.424804 -57.758206 
L 408.467905 -57.799186 
L 410.511005 -57.829453 
L 412.554106 -57.851295 
L 414.597207 -57.866698 
L 416.640308 -57.877383 
L 418.683408 -57.884663 
L 420.726509 -57.889588 
L 422.76961 -57.892867 
L 424.812711 -57.895027 
L 426.855811 -57.896435 
L 428.898912 -57.897345 
L 430.942013 -57.897928 
L 432.985114 -57.898299 
L 435.028214 -57.898534 
L 435.028214 -368.697664 
L 435.028214 -368.697664 
L 432.985114 -368.667791 
L 430.942013 -368.6205 
L 428.898912 -368.546166 
L 426.855811 -368.430209 
L 424.812711 -368.2508 
L 422.76961 -367.975683 
L 420.726509 -367.557895 
L 418.683408 -366.930257 
L 416.640308 -366.002788 
L 414.597207 -364.641259 
L 412.554106 -362.678639 
L 410.511005 -359.895687 
L 408.467905 -356.039139 
L 406.424804 -350.81759 
L 404.381703 -343.943301 
L 402.338602 -335.177673 
L 400.295502 -324.407361 
L 398.252401 -311.708428 
L 396.2093 -297.389049 
L 394.166199 -281.983837 
L 392.123099 -266.199583 
L 390.079998 -250.808486 
L 388.036897 -236.525668 
L 385.993796 -223.928266 
L 383.950696 -213.405181 
L 381.907595 -205.160289 
L 379.864494 -199.224513 
L 377.821393 -195.470491 
L 375.778293 -193.621235 
L 373.735192 -193.27443 
L 371.692091 -193.956058 
L 369.64899 -195.222725 
L 367.60589 -196.73049 
L 365.562789 -198.214229 
L 363.519688 -270.706542 
L 361.476588 -271.260201 
L 359.433487 -269.801151 
L 357.390386 -265.467487 
L 355.347285 -257.684496 
L 353.304185 -246.510045 
L 351.261084 -232.756518 
L 349.217983 -217.766277 
L 347.174882 -202.95774 
L 345.131782 -189.390488 
L 343.088681 -177.598481 
L 341.04558 -167.625797 
L 339.002479 -159.202373 
L 336.959379 -151.927667 
L 334.916278 -115.590862 
L 332.873177 -111.511162 
L 330.830076 -107.539944 
L 328.786976 -127.439689 
L 326.743875 -121.513911 
L 324.700774 -115.703545 
L 322.657673 -110.166985 
L 320.614573 -119.517824 
L 318.571472 -125.738043 
L 316.528371 -119.161718 
L 314.48527 -103.201199 
L 312.44217 -98.878497 
L 310.399069 -103.354839 
L 308.355968 -99.091753 
L 306.312867 -95.187708 
L 304.269767 -85.279658 
L 302.226666 -88.231544 
L 300.183565 -94.826743 
L 298.140464 -95.123725 
L 296.097364 -87.284614 
L 294.054263 -83.97185 
L 292.011162 -84.059396 
L 289.968062 -89.114989 
L 287.924961 -85.984321 
L 285.88186 -85.557067 
L 283.838759 -85.321141 
L 281.795659 -85.316048 
L 279.752558 -83.826112 
L 277.709457 -82.67688 
L 275.666356 -80.153583 
L 273.623256 -82.501546 
L 271.580155 -84.674677 
L 269.537054 -86.665181 
L 267.493953 -95.229284 
L 265.450853 -101.92532 
L 263.407752 -114.572545 
L 261.364651 -119.869633 
L 259.32155 -120.955255 
L 257.27845 -118.01871 
L 255.235349 -119.527526 
L 253.192248 -118.065909 
L 251.149147 -127.9864 
L 249.106047 -135.23517 
L 247.062946 -132.989746 
L 245.019845 -151.620448 
L 242.976744 -167.116106 
L 240.933644 -189.094488 
L 238.890543 -209.82898 
L 236.847442 -211.957179 
L 234.804341 -199.303364 
L 232.761241 -213.356663 
L 230.71814 -205.293794 
L 228.675039 -209.107265 
L 226.631938 -188.134181 
L 224.588838 -171.995567 
L 222.545737 -158.79171 
L 220.502636 -164.350551 
L 218.459536 -153.013547 
L 216.416435 -144.075963 
L 214.373334 -145.877579 
L 212.330233 -164.14936 
L 210.287133 -176.378128 
L 208.244032 -202.503412 
L 206.200931 -220.895749 
L 204.15783 -260.513545 
L 202.11473 -316.264939 
L 200.071629 -326.2246 
L 198.028528 -344.728173 
L 195.985427 -353.675385 
L 193.942327 -359.103087 
L 191.899226 -337.797958 
L 189.856125 -345.365092 
L 187.813024 -298.510941 
L 185.769924 -283.816349 
L 183.726823 -256.508839 
L 181.683722 -282.382943 
L 179.640621 -274.668178 
L 177.597521 -263.82347 
L 175.55442 -233.741869 
L 173.511319 -244.392861 
L 171.468218 -270.774621 
L 169.425118 -331.438326 
L 167.382017 -289.990969 
L 165.338916 -281.252271 
L 163.295815 -292.265077 
L 161.252715 -284.662871 
L 159.209614 -300.080326 
L 157.166513 -294.053956 
L 155.123412 -229.765374 
L 153.080312 -277.867686 
L 151.037211 -334.015754 
L 148.99411 -325.597418 
L 146.95101 -394.613156 
L 144.907909 -381.404337 
L 142.864808 -405.934979 
L 140.821707 -421.950504 
L 138.778607 -425.04 
L 136.735506 -362.737355 
L 134.692405 -343.534635 
L 132.649304 -318.817047 
L 130.606204 -292.607151 
L 128.563103 -230.643999 
L 126.520002 -212.264547 
L 124.476901 -164.61278 
L 122.433801 -154.462865 
L 120.3907 -146.297227 
L 118.347599 -112.049745 
L 116.304498 -109.293087 
L 114.261398 -108.027822 
L 112.218297 -134.712474 
L 110.175196 -138.296382 
L 108.132095 -145.596372 
L 106.088995 -157.796692 
z
" style="stroke: #de8f05; stroke-opacity: 0.3"/>
    </defs>
    <g clip-path="url(#p4aaed54154)">
     <use xlink:href="#m8dcc15967f" x="0" y="504" style="fill: #de8f05; fill-opacity: 0.3; stroke: #de8f05; stroke-opacity: 0.3"/>
    </g>
   </g>
   <g id="matplotlib.axis_1">
    <g id="xtick_1">
     <g id="line2d_1">
      <defs>
       <path id="m9537dcf762" d="M 0 0 
L 0 3.5 
" style="stroke: #000000; stroke-width: 0.8"/>
      </defs>
      <g>
       <use xlink:href="#m9537dcf762" x="91.787289" y="448.56" style="stroke: #000000; stroke-width: 0.8"/>
      </g>
     </g>
     <g id="text_1">
      <text style="font-size: 16px; font-family: 'Arial', sans-serif; text-anchor: middle" x="91.787289" y="467.208438" transform="rotate(-0 91.787289 467.208438)">1 Jul</text>
     </g>
    </g>
    <g id="xtick_2">
     <g id="line2d_2">
      <g>
       <use xlink:href="#m9537dcf762" x="155.123412" y="448.56" style="stroke: #000000; stroke-width: 0.8"/>
      </g>
     </g>
     <g id="text_2">
      <text style="font-size: 16px; font-family: 'Arial', sans-serif; text-anchor: middle" x="155.123412" y="467.208438" transform="rotate(-0 155.123412 467.208438)">1 Aug</text>
     </g>
    </g>
    <g id="xtick_3">
     <g id="line2d_3">
      <g>
       <use xlink:href="#m9537dcf762" x="218.459536" y="448.56" style="stroke: #000000; stroke-width: 0.8"/>
      </g>
     </g>
     <g id="text_3">
      <text style="font-size: 16px; font-family: 'Arial', sans-serif; text-anchor: middle" x="218.459536" y="467.208438" transform="rotate(-0 218.459536 467.208438)">1 Sep</text>
     </g>
    </g>
    <g id="xtick_4">
     <g id="line2d_4">
      <g>
       <use xlink:href="#m9537dcf762" x="279.752558" y="448.56" style="stroke: #000000; stroke-width: 0.8"/>
      </g>
     </g>
     <g id="text_4">
      <text style="font-size: 16px; font-family: 'Arial', sans-serif; text-anchor: middle" x="279.752558" y="467.2175" transform="rotate(-0 279.752558 467.2175)">1 Oct</text>
     </g>
    </g>
    <g id="xtick_5">
     <g id="line2d_5">
      <g>
       <use xlink:href="#m9537dcf762" x="343.088681" y="448.56" style="stroke: #000000; stroke-width: 0.8"/>
      </g>
     </g>
     <g id="text_5">
      <text style="font-size: 16px; font-family: 'Arial', sans-serif; text-anchor: middle" x="343.088681" y="467.208438" transform="rotate(-0 343.088681 467.208438)">1 Nov</text>
     </g>
    </g>
    <g id="xtick_6">
     <g id="line2d_6">
      <g>
       <use xlink:href="#m9537dcf762" x="404.381703" y="448.56" style="stroke: #000000; stroke-width: 0.8"/>
      </g>
     </g>
     <g id="text_6">
      <text style="font-size: 16px; font-family: 'Arial', sans-serif; text-anchor: middle" x="404.381703" y="467.208438" transform="rotate(-0 404.381703 467.208438)">1 Dec</text>
     </g>
    </g>
    <g id="text_7">
     <text style="font-size: 16px; font-family: 'Arial', sans-serif; text-anchor: middle" x="258.3" y="486.233125" transform="rotate(-0 258.3 486.233125)">Date (2017)</text>
    </g>
   </g>
   <g id="matplotlib.axis_2">
    <g id="ytick_1">
     <g id="line2d_7">
      <defs>
       <path id="mef80cf6751" d="M 0 0 
L -3.5 0 
" style="stroke: #000000; stroke-width: 0.8"/>
      </defs>
      <g>
       <use xlink:href="#mef80cf6751" x="63" y="448.56" style="stroke: #000000; stroke-width: 0.8"/>
      </g>
     </g>
     <g id="text_8">
      <text style="font-size: 16px; font-family: 'Arial', sans-serif; text-anchor: end" x="56" y="454.384219" transform="rotate(-0 56 454.384219)">0</text>
     </g>
    </g>
    <g id="ytick_2">
     <g id="line2d_8">
      <g>
       <use xlink:href="#mef80cf6751" x="63" y="386.937702" style="stroke: #000000; stroke-width: 0.8"/>
      </g>
     </g>
     <g id="text_9">
      <text style="font-size: 16px; font-family: 'Arial', sans-serif; text-anchor: end" x="56" y="392.761921" transform="rotate(-0 56 392.761921)">1</text>
     </g>
    </g>
    <g id="ytick_3">
     <g id="line2d_9">
      <g>
       <use xlink:href="#mef80cf6751" x="63" y="325.315404" style="stroke: #000000; stroke-width: 0.8"/>
      </g>
     </g>
     <g id="text_10">
      <text style="font-size: 16px; font-family: 'Arial', sans-serif; text-anchor: end" x="56" y="331.139623" transform="rotate(-0 56 331.139623)">2</text>
     </g>
    </g>
    <g id="ytick_4">
     <g id="line2d_10">
      <g>
       <use xlink:href="#mef80cf6751" x="63" y="263.693106" style="stroke: #000000; stroke-width: 0.8"/>
      </g>
     </g>
     <g id="text_11">
      <text style="font-size: 16px; font-family: 'Arial', sans-serif; text-anchor: end" x="56" y="269.517325" transform="rotate(-0 56 269.517325)">3</text>
     </g>
    </g>
    <g id="ytick_5">
     <g id="line2d_11">
      <g>
       <use xlink:href="#mef80cf6751" x="63" y="202.070808" style="stroke: #000000; stroke-width: 0.8"/>
      </g>
     </g>
     <g id="text_12">
      <text style="font-size: 16px; font-family: 'Arial', sans-serif; text-anchor: end" x="56" y="207.895027" transform="rotate(-0 56 207.895027)">4</text>
     </g>
    </g>
    <g id="ytick_6">
     <g id="line2d_12">
      <g>
       <use xlink:href="#mef80cf6751" x="63" y="140.448511" style="stroke: #000000; stroke-width: 0.8"/>
      </g>
     </g>
     <g id="text_13">
      <text style="font-size: 16px; font-family: 'Arial', sans-serif; text-anchor: end" x="56" y="146.272729" transform="rotate(-0 56 146.272729)">5</text>
     </g>
    </g>
    <g id="ytick_7">
     <g id="line2d_13">
      <g>
       <use xlink:href="#mef80cf6751" x="63" y="78.826213" style="stroke: #000000; stroke-width: 0.8"/>
      </g>
     </g>
     <g id="text_14">
      <text style="font-size: 16px; font-family: 'Arial', sans-serif; text-anchor: end" x="56" y="84.650431" transform="rotate(-0 56 84.650431)">6</text>
     </g>
    </g>
    <g id="text_15">
     <text style="font-size: 16px; font-family: 'Arial', sans-serif; text-anchor: middle" x="39.735312" y="254.52" transform="rotate(-90 39.735312 254.52)">Time-dependent reproduction number</text>
    </g>
   </g>
   <g id="line2d_14">
    <path d="M 81.571786 311.719497 
L 83.614886 303.025973 
L 85.657987 305.871488 
L 89.744189 329.837309 
L 91.787289 340.404114 
L 93.83039 349.467319 
L 95.873491 357.635957 
L 97.916592 363.894325 
L 99.959692 369.027759 
L 102.002793 375.055731 
L 104.045894 379.228702 
L 106.088995 382.369813 
L 108.132095 383.660424 
L 110.175196 383.812697 
L 112.218297 382.488799 
L 114.261398 380.174155 
L 116.304498 376.655376 
L 118.347599 371.252963 
L 120.3907 364.37357 
L 122.433801 359.826424 
L 124.476901 352.763912 
L 126.520002 344.561059 
L 128.563103 338.892852 
L 130.606204 331.045825 
L 132.649304 326.619644 
L 134.692405 320.765617 
L 136.735506 318.656767 
L 138.778607 314.772436 
L 140.821707 313.726093 
L 142.864808 315.214878 
L 144.907909 314.419939 
L 146.95101 315.39037 
L 148.99411 318.228026 
L 151.037211 317.018393 
L 153.080312 317.349231 
L 155.123412 313.390815 
L 157.166513 304.407593 
L 159.209614 304.452035 
L 161.252715 307.952991 
L 163.295815 309.734861 
L 165.338916 311.0332 
L 167.382017 309.767016 
L 169.425118 307.56483 
L 171.468218 311.402594 
L 173.511319 307.639004 
L 175.55442 300.509633 
L 177.597521 286.491702 
L 179.640621 280.489544 
L 181.683722 276.021842 
L 183.726823 271.03022 
L 185.769924 256.972512 
L 187.813024 244.382276 
L 189.856125 229.440504 
L 191.899226 238.116325 
L 193.942327 247.852684 
L 195.985427 275.12773 
L 198.028528 298.962046 
L 200.071629 316.199189 
L 202.11473 332.217317 
L 204.15783 354.01376 
L 206.200931 365.201279 
L 208.244032 365.569341 
L 210.287133 373.965535 
L 212.330233 374.42889 
L 214.373334 372.327818 
L 216.416435 359.64402 
L 218.459536 352.291262 
L 222.545737 340.775596 
L 224.588838 330.730755 
L 226.631938 320.005259 
L 228.675039 320.848859 
L 230.71814 332.774948 
L 232.761241 336.934557 
L 234.804341 352.52055 
L 236.847442 348.187034 
L 238.890543 363.275977 
L 240.933644 382.567667 
L 242.976744 394.311469 
L 245.019845 400.615887 
L 247.062946 400.515263 
L 251.149147 393.487552 
L 253.192248 399.879636 
L 255.235349 404.446351 
L 257.27845 411.220166 
L 261.364651 420.738592 
L 263.407752 424.385405 
L 265.450853 427.065714 
L 267.493953 429.198177 
L 269.537054 429.700314 
L 273.623256 429.604673 
L 275.666356 430.138171 
L 277.709457 430.370333 
L 279.752558 431.346285 
L 281.795659 432.683678 
L 283.838759 433.214588 
L 287.924961 433.105939 
L 292.011162 434.566762 
L 294.054263 435.038879 
L 296.097364 435.629485 
L 298.140464 436.029131 
L 300.183565 436.646727 
L 302.226666 437.008053 
L 304.269767 437.139784 
L 306.312867 437.055427 
L 308.355968 437.318157 
L 310.399069 437.917174 
L 312.44217 438.338345 
L 314.48527 438.516871 
L 316.528371 438.515258 
L 318.571472 438.956332 
L 322.657673 439.390748 
L 326.743875 439.467533 
L 330.830076 439.085314 
L 332.873177 438.771428 
L 334.916278 438.337853 
L 336.959379 437.724881 
L 345.131782 437.730188 
L 347.174882 437.589734 
L 351.261084 437.504922 
L 355.347285 438.769731 
L 361.476588 440.168807 
L 369.64899 441.571587 
L 373.735192 442.076543 
L 379.864494 442.570098 
L 394.166199 443.649856 
L 404.381703 444.068181 
L 408.467905 444.269417 
L 435.028214 445.221705 
L 435.028214 445.221705 
" clip-path="url(#p4aaed54154)" style="fill: none; stroke: #0173b2; stroke-width: 2; stroke-linecap: square"/>
   </g>
   <g id="line2d_15">
    <path d="M 106.088995 411.551276 
L 108.132095 415.9625 
L 110.175196 418.60193 
L 112.218297 419.89775 
L 114.261398 434.069767 
L 116.304498 433.721131 
L 118.347599 432.961552 
L 120.3907 415.709094 
L 122.433801 412.756676 
L 124.476901 409.086809 
L 126.520002 383.154539 
L 128.563103 375.48918 
L 130.606204 340.026531 
L 132.649304 328.032244 
L 134.692405 316.720874 
L 136.735506 307.933241 
L 138.778607 267.710583 
L 140.821707 269.222308 
L 142.864808 277.058884 
L 144.907909 289.062001 
L 146.95101 273.842482 
L 148.99411 316.368951 
L 151.037211 305.057888 
L 153.080312 339.723644 
L 155.123412 368.78446 
L 157.166513 320.475274 
L 159.209614 312.697958 
L 161.252715 321.260107 
L 163.295815 313.204879 
L 165.338916 319.499143 
L 167.382017 311.15073 
L 169.425118 277.283746 
L 171.468218 322.408429 
L 173.511319 340.565789 
L 175.55442 346.653262 
L 177.597521 321.421385 
L 179.640621 310.419087 
L 181.683722 301.722537 
L 183.726823 320.09559 
L 185.769924 295.973172 
L 187.813024 281.922996 
L 189.856125 240.751754 
L 191.899226 245.135723 
L 193.942327 224.827917 
L 195.985427 227.121718 
L 198.028528 232.222037 
L 200.071629 245.372759 
L 202.11473 250.983414 
L 204.15783 296.293919 
L 206.200931 327.673829 
L 208.244032 341.111738 
L 210.287133 361.430345 
L 212.330233 370.240539 
L 214.373334 384.449233 
L 216.416435 385.028817 
L 218.459536 376.670021 
L 220.502636 366.31079 
L 222.545737 370.754723 
L 224.588838 359.036472 
L 226.631938 344.754156 
L 228.675039 326.13462 
L 230.71814 329.568013 
L 232.761241 322.349172 
L 234.804341 334.720305 
L 236.847442 323.086516 
L 238.890543 324.430746 
L 242.976744 361.019086 
L 245.019845 373.967747 
L 247.062946 389.641993 
L 249.106047 387.116297 
L 251.149147 392.983626 
L 253.192248 401.264936 
L 255.235349 399.730584 
L 257.27845 400.880177 
L 259.32155 398.239309 
L 261.364651 399.201722 
L 263.407752 403.903123 
L 265.450853 414.905605 
L 267.493953 420.697232 
L 269.537054 427.902208 
L 273.623256 431.507874 
L 275.666356 433.481785 
L 277.709457 431.657612 
L 279.752558 430.944433 
L 281.795659 430.019824 
L 285.88186 430.531624 
L 287.924961 430.665924 
L 289.968062 428.831854 
L 292.011162 433.197497 
L 294.054263 433.862451 
L 296.097364 432.155954 
L 298.140464 427.258316 
L 300.183565 428.270794 
L 302.226666 433.55379 
L 304.269767 436.115031 
L 306.312867 430.37048 
L 308.355968 428.583894 
L 310.399069 426.633002 
L 312.44217 430.443481 
L 314.48527 428.640649 
L 316.528371 419.399389 
L 318.571472 416.389902 
L 320.614573 421.835615 
L 322.657673 428.77257 
L 326.743875 424.669905 
L 328.786976 422.527343 
L 330.830076 434.204199 
L 334.916278 431.98582 
L 336.959379 413.673318 
L 339.002479 411.04303 
L 341.04558 407.997404 
L 343.088681 404.391618 
L 345.131782 400.128026 
L 347.174882 395.222566 
L 351.261084 384.448334 
L 353.304185 379.475523 
L 355.347285 375.435219 
L 357.390386 372.621152 
L 359.433487 371.054246 
L 361.476588 370.526702 
L 363.519688 370.726887 
L 365.562789 409.219488 
L 371.692091 410.392799 
L 373.735192 410.580617 
L 375.778293 410.485058 
L 377.821393 409.975507 
L 379.864494 408.94111 
L 381.907595 407.305546 
L 383.950696 405.033719 
L 385.993796 402.134152 
L 388.036897 398.663019 
L 390.079998 394.727482 
L 398.252401 377.946898 
L 400.295502 374.447789 
L 402.338602 371.4801 
L 404.381703 369.064788 
L 406.424804 367.170622 
L 408.467905 365.731858 
L 410.511005 364.669211 
L 412.554106 363.902387 
L 414.597207 363.3616 
L 416.640308 362.986439 
L 420.726509 362.55794 
L 426.855811 362.317579 
L 435.028214 362.243884 
L 435.028214 362.243884 
" clip-path="url(#p4aaed54154)" style="fill: none; stroke: #de8f05; stroke-width: 2; stroke-linecap: square"/>
   </g>
   <g id="patch_3">
    <path d="M 63 448.56 
L 63 60.48 
" style="fill: none; stroke: #000000; stroke-width: 0.8; stroke-linejoin: miter; stroke-linecap: square"/>
   </g>
   <g id="patch_4">
    <path d="M 63 448.56 
L 453.6 448.56 
" style="fill: none; stroke: #000000; stroke-width: 0.8; stroke-linejoin: miter; stroke-linecap: square"/>
   </g>
   <g id="legend_1">
    <g id="patch_5">
     <path d="M 296.281563 111.957617 
L 443.8 111.957617 
Q 446.6 111.957617 446.6 109.157617 
L 446.6 70.28 
Q 446.6 67.48 443.8 67.48 
L 296.281563 67.48 
Q 293.481562 67.48 293.481562 70.28 
L 293.481562 109.157617 
Q 293.481562 111.957617 296.281563 111.957617 
z
" style="fill: #ffffff; opacity: 0.8; stroke: #cccccc; stroke-linejoin: miter"/>
    </g>
    <g id="line2d_16">
     <path d="M 299.081563 78.372383 
L 313.081563 78.372383 
L 327.081563 78.372383 
" style="fill: none; stroke: #0173b2; stroke-width: 2; stroke-linecap: square"/>
    </g>
    <g id="text_16">
     <text style="font-size: 14px; font-family: 'Arial', sans-serif; text-anchor: start" x="338.281563" y="83.272383" transform="rotate(-0 338.281563 83.272383)">Suitability-based</text>
    </g>
    <g id="line2d_17">
     <path d="M 299.081563 98.511328 
L 313.081563 98.511328 
L 327.081563 98.511328 
" style="fill: none; stroke: #de8f05; stroke-width: 2; stroke-linecap: square"/>
    </g>
    <g id="text_17">
     <text style="font-size: 14px; font-family: 'Arial', sans-serif; text-anchor: start" x="338.281563" y="103.411328" transform="rotate(-0 338.281563 103.411328)">EpiEstim</text>
    </g>
   </g>
  </g>
  <g id="axes_2">
   <g id="patch_6">
    <path d="M 80.754545 448.56 
L 82.389026 448.56 
L 82.389026 396.816 
L 80.754545 396.816 
z
" clip-path="url(#p4aaed54154)" style="fill: #7f7f7f; opacity: 0.5"/>
   </g>
   <g id="patch_7">
    <path d="M 82.797646 448.56 
L 84.432127 448.56 
L 84.432127 396.816 
L 82.797646 396.816 
z
" clip-path="url(#p4aaed54154)" style="fill: #7f7f7f; opacity: 0.5"/>
   </g>
   <g id="patch_8">
    <path d="M 84.840747 448.56 
L 86.475228 448.56 
L 86.475228 396.816 
L 84.840747 396.816 
z
" clip-path="url(#p4aaed54154)" style="fill: #7f7f7f; opacity: 0.5"/>
   </g>
   <g id="patch_9">
    <path d="M 86.883848 448.56 
L 88.518328 448.56 
L 88.518328 448.56 
L 86.883848 448.56 
z
" clip-path="url(#p4aaed54154)" style="fill: #7f7f7f; opacity: 0.5"/>
   </g>
   <g id="patch_10">
    <path d="M 88.926948 448.56 
L 90.561429 448.56 
L 90.561429 448.56 
L 88.926948 448.56 
z
" clip-path="url(#p4aaed54154)" style="fill: #7f7f7f; opacity: 0.5"/>
   </g>
   <g id="patch_11">
    <path d="M 90.970049 448.56 
L 92.60453 448.56 
L 92.60453 448.56 
L 90.970049 448.56 
z
" clip-path="url(#p4aaed54154)" style="fill: #7f7f7f; opacity: 0.5"/>
   </g>
   <g id="patch_12">
    <path d="M 93.01315 448.56 
L 94.647631 448.56 
L 94.647631 448.56 
L 93.01315 448.56 
z
" clip-path="url(#p4aaed54154)" style="fill: #7f7f7f; opacity: 0.5"/>
   </g>
   <g id="patch_13">
    <path d="M 95.056251 448.56 
L 96.690731 448.56 
L 96.690731 448.56 
L 95.056251 448.56 
z
" clip-path="url(#p4aaed54154)" style="fill: #7f7f7f; opacity: 0.5"/>
   </g>
   <g id="patch_14">
    <path d="M 97.099351 448.56 
L 98.733832 448.56 
L 98.733832 448.56 
L 97.099351 448.56 
z
" clip-path="url(#p4aaed54154)" style="fill: #7f7f7f; opacity: 0.5"/>
   </g>
   <g id="patch_15">
    <path d="M 99.142452 448.56 
L 100.776933 448.56 
L 100.776933 422.688 
L 99.142452 422.688 
z
" clip-path="url(#p4aaed54154)" style="fill: #7f7f7f; opacity: 0.5"/>
   </g>
   <g id="patch_16">
    <path d="M 101.185553 448.56 
L 102.820033 448.56 
L 102.820033 448.56 
L 101.185553 448.56 
z
" clip-path="url(#p4aaed54154)" style="fill: #7f7f7f; opacity: 0.5"/>
   </g>
   <g id="patch_17">
    <path d="M 103.228654 448.56 
L 104.863134 448.56 
L 104.863134 448.56 
L 103.228654 448.56 
z
" clip-path="url(#p4aaed54154)" style="fill: #7f7f7f; opacity: 0.5"/>
   </g>
   <g id="patch_18">
    <path d="M 105.271754 448.56 
L 106.906235 448.56 
L 106.906235 448.56 
L 105.271754 448.56 
z
" clip-path="url(#p4aaed54154)" style="fill: #7f7f7f; opacity: 0.5"/>
   </g>
   <g id="patch_19">
    <path d="M 107.314855 448.56 
L 108.949336 448.56 
L 108.949336 448.56 
L 107.314855 448.56 
z
" clip-path="url(#p4aaed54154)" style="fill: #7f7f7f; opacity: 0.5"/>
   </g>
   <g id="patch_20">
    <path d="M 109.357956 448.56 
L 110.992436 448.56 
L 110.992436 448.56 
L 109.357956 448.56 
z
" clip-path="url(#p4aaed54154)" style="fill: #7f7f7f; opacity: 0.5"/>
   </g>
   <g id="patch_21">
    <path d="M 111.401057 448.56 
L 113.035537 448.56 
L 113.035537 448.56 
L 111.401057 448.56 
z
" clip-path="url(#p4aaed54154)" style="fill: #7f7f7f; opacity: 0.5"/>
   </g>
   <g id="patch_22">
    <path d="M 113.444157 448.56 
L 115.078638 448.56 
L 115.078638 448.56 
L 113.444157 448.56 
z
" clip-path="url(#p4aaed54154)" style="fill: #7f7f7f; opacity: 0.5"/>
   </g>
   <g id="patch_23">
    <path d="M 115.487258 448.56 
L 117.121739 448.56 
L 117.121739 448.56 
L 115.487258 448.56 
z
" clip-path="url(#p4aaed54154)" style="fill: #7f7f7f; opacity: 0.5"/>
   </g>
   <g id="patch_24">
    <path d="M 117.530359 448.56 
L 119.164839 448.56 
L 119.164839 448.56 
L 117.530359 448.56 
z
" clip-path="url(#p4aaed54154)" style="fill: #7f7f7f; opacity: 0.5"/>
   </g>
   <g id="patch_25">
    <path d="M 119.57346 448.56 
L 121.20794 448.56 
L 121.20794 422.688 
L 119.57346 422.688 
z
" clip-path="url(#p4aaed54154)" style="fill: #7f7f7f; opacity: 0.5"/>
   </g>
   <g id="patch_26">
    <path d="M 121.61656 448.56 
L 123.251041 448.56 
L 123.251041 448.56 
L 121.61656 448.56 
z
" clip-path="url(#p4aaed54154)" style="fill: #7f7f7f; opacity: 0.5"/>
   </g>
   <g id="patch_27">
    <path d="M 123.659661 448.56 
L 125.294142 448.56 
L 125.294142 448.56 
L 123.659661 448.56 
z
" clip-path="url(#p4aaed54154)" style="fill: #7f7f7f; opacity: 0.5"/>
   </g>
   <g id="patch_28">
    <path d="M 125.702762 448.56 
L 127.337242 448.56 
L 127.337242 422.688 
L 125.702762 422.688 
z
" clip-path="url(#p4aaed54154)" style="fill: #7f7f7f; opacity: 0.5"/>
   </g>
   <g id="patch_29">
    <path d="M 127.745863 448.56 
L 129.380343 448.56 
L 129.380343 448.56 
L 127.745863 448.56 
z
" clip-path="url(#p4aaed54154)" style="fill: #7f7f7f; opacity: 0.5"/>
   </g>
   <g id="patch_30">
    <path d="M 129.788963 448.56 
L 131.423444 448.56 
L 131.423444 422.688 
L 129.788963 422.688 
z
" clip-path="url(#p4aaed54154)" style="fill: #7f7f7f; opacity: 0.5"/>
   </g>
   <g id="patch_31">
    <path d="M 131.832064 448.56 
L 133.466545 448.56 
L 133.466545 448.56 
L 131.832064 448.56 
z
" clip-path="url(#p4aaed54154)" style="fill: #7f7f7f; opacity: 0.5"/>
   </g>
   <g id="patch_32">
    <path d="M 133.875165 448.56 
L 135.509645 448.56 
L 135.509645 422.688 
L 133.875165 422.688 
z
" clip-path="url(#p4aaed54154)" style="fill: #7f7f7f; opacity: 0.5"/>
   </g>
   <g id="patch_33">
    <path d="M 135.918266 448.56 
L 137.552746 448.56 
L 137.552746 448.56 
L 135.918266 448.56 
z
" clip-path="url(#p4aaed54154)" style="fill: #7f7f7f; opacity: 0.5"/>
   </g>
   <g id="patch_34">
    <path d="M 137.961366 448.56 
L 139.595847 448.56 
L 139.595847 422.688 
L 137.961366 422.688 
z
" clip-path="url(#p4aaed54154)" style="fill: #7f7f7f; opacity: 0.5"/>
   </g>
   <g id="patch_35">
    <path d="M 140.004467 448.56 
L 141.638948 448.56 
L 141.638948 422.688 
L 140.004467 422.688 
z
" clip-path="url(#p4aaed54154)" style="fill: #7f7f7f; opacity: 0.5"/>
   </g>
   <g id="patch_36">
    <path d="M 142.047568 448.56 
L 143.682048 448.56 
L 143.682048 448.56 
L 142.047568 448.56 
z
" clip-path="url(#p4aaed54154)" style="fill: #7f7f7f; opacity: 0.5"/>
   </g>
   <g id="patch_37">
    <path d="M 144.090668 448.56 
L 145.725149 448.56 
L 145.725149 422.688 
L 144.090668 422.688 
z
" clip-path="url(#p4aaed54154)" style="fill: #7f7f7f; opacity: 0.5"/>
   </g>
   <g id="patch_38">
    <path d="M 146.133769 448.56 
L 147.76825 448.56 
L 147.76825 422.688 
L 146.133769 422.688 
z
" clip-path="url(#p4aaed54154)" style="fill: #7f7f7f; opacity: 0.5"/>
   </g>
   <g id="patch_39">
    <path d="M 148.17687 448.56 
L 149.811351 448.56 
L 149.811351 448.56 
L 148.17687 448.56 
z
" clip-path="url(#p4aaed54154)" style="fill: #7f7f7f; opacity: 0.5"/>
   </g>
   <g id="patch_40">
    <path d="M 150.219971 448.56 
L 151.854451 448.56 
L 151.854451 422.688 
L 150.219971 422.688 
z
" clip-path="url(#p4aaed54154)" style="fill: #7f7f7f; opacity: 0.5"/>
   </g>
   <g id="patch_41">
    <path d="M 152.263071 448.56 
L 153.897552 448.56 
L 153.897552 448.56 
L 152.263071 448.56 
z
" clip-path="url(#p4aaed54154)" style="fill: #7f7f7f; opacity: 0.5"/>
   </g>
   <g id="patch_42">
    <path d="M 154.306172 448.56 
L 155.940653 448.56 
L 155.940653 448.56 
L 154.306172 448.56 
z
" clip-path="url(#p4aaed54154)" style="fill: #7f7f7f; opacity: 0.5"/>
   </g>
   <g id="patch_43">
    <path d="M 156.349273 448.56 
L 157.983754 448.56 
L 157.983754 370.944 
L 156.349273 370.944 
z
" clip-path="url(#p4aaed54154)" style="fill: #7f7f7f; opacity: 0.5"/>
   </g>
   <g id="patch_44">
    <path d="M 158.392374 448.56 
L 160.026854 448.56 
L 160.026854 396.816 
L 158.392374 396.816 
z
" clip-path="url(#p4aaed54154)" style="fill: #7f7f7f; opacity: 0.5"/>
   </g>
   <g id="patch_45">
    <path d="M 160.435474 448.56 
L 162.069955 448.56 
L 162.069955 422.688 
L 160.435474 422.688 
z
" clip-path="url(#p4aaed54154)" style="fill: #7f7f7f; opacity: 0.5"/>
   </g>
   <g id="patch_46">
    <path d="M 162.478575 448.56 
L 164.113056 448.56 
L 164.113056 422.688 
L 162.478575 422.688 
z
" clip-path="url(#p4aaed54154)" style="fill: #7f7f7f; opacity: 0.5"/>
   </g>
   <g id="patch_47">
    <path d="M 164.521676 448.56 
L 166.156157 448.56 
L 166.156157 422.688 
L 164.521676 422.688 
z
" clip-path="url(#p4aaed54154)" style="fill: #7f7f7f; opacity: 0.5"/>
   </g>
   <g id="patch_48">
    <path d="M 166.564777 448.56 
L 168.199257 448.56 
L 168.199257 422.688 
L 166.564777 422.688 
z
" clip-path="url(#p4aaed54154)" style="fill: #7f7f7f; opacity: 0.5"/>
   </g>
   <g id="patch_49">
    <path d="M 168.607877 448.56 
L 170.242358 448.56 
L 170.242358 370.944 
L 168.607877 370.944 
z
" clip-path="url(#p4aaed54154)" style="fill: #7f7f7f; opacity: 0.5"/>
   </g>
   <g id="patch_50">
    <path d="M 170.650978 448.56 
L 172.285459 448.56 
L 172.285459 448.56 
L 170.650978 448.56 
z
" clip-path="url(#p4aaed54154)" style="fill: #7f7f7f; opacity: 0.5"/>
   </g>
   <g id="patch_51">
    <path d="M 172.694079 448.56 
L 174.328559 448.56 
L 174.328559 422.688 
L 172.694079 422.688 
z
" clip-path="url(#p4aaed54154)" style="fill: #7f7f7f; opacity: 0.5"/>
   </g>
   <g id="patch_52">
    <path d="M 174.73718 448.56 
L 176.37166 448.56 
L 176.37166 422.688 
L 174.73718 422.688 
z
" clip-path="url(#p4aaed54154)" style="fill: #7f7f7f; opacity: 0.5"/>
   </g>
   <g id="patch_53">
    <path d="M 176.78028 448.56 
L 178.414761 448.56 
L 178.414761 345.072 
L 176.78028 345.072 
z
" clip-path="url(#p4aaed54154)" style="fill: #7f7f7f; opacity: 0.5"/>
   </g>
   <g id="patch_54">
    <path d="M 178.823381 448.56 
L 180.457862 448.56 
L 180.457862 370.944 
L 178.823381 370.944 
z
" clip-path="url(#p4aaed54154)" style="fill: #7f7f7f; opacity: 0.5"/>
   </g>
   <g id="patch_55">
    <path d="M 180.866482 448.56 
L 182.500962 448.56 
L 182.500962 370.944 
L 180.866482 370.944 
z
" clip-path="url(#p4aaed54154)" style="fill: #7f7f7f; opacity: 0.5"/>
   </g>
   <g id="patch_56">
    <path d="M 182.909583 448.56 
L 184.544063 448.56 
L 184.544063 396.816 
L 182.909583 396.816 
z
" clip-path="url(#p4aaed54154)" style="fill: #7f7f7f; opacity: 0.5"/>
   </g>
   <g id="patch_57">
    <path d="M 184.952683 448.56 
L 186.587164 448.56 
L 186.587164 345.072 
L 184.952683 345.072 
z
" clip-path="url(#p4aaed54154)" style="fill: #7f7f7f; opacity: 0.5"/>
   </g>
   <g id="patch_58">
    <path d="M 186.995784 448.56 
L 188.630265 448.56 
L 188.630265 345.072 
L 186.995784 345.072 
z
" clip-path="url(#p4aaed54154)" style="fill: #7f7f7f; opacity: 0.5"/>
   </g>
   <g id="patch_59">
    <path d="M 189.038885 448.56 
L 190.673365 448.56 
L 190.673365 241.584 
L 189.038885 241.584 
z
" clip-path="url(#p4aaed54154)" style="fill: #7f7f7f; opacity: 0.5"/>
   </g>
   <g id="patch_60">
    <path d="M 191.081986 448.56 
L 192.716466 448.56 
L 192.716466 319.2 
L 191.081986 319.2 
z
" clip-path="url(#p4aaed54154)" style="fill: #7f7f7f; opacity: 0.5"/>
   </g>
   <g id="patch_61">
    <path d="M 193.125086 448.56 
L 194.759567 448.56 
L 194.759567 241.584 
L 193.125086 241.584 
z
" clip-path="url(#p4aaed54154)" style="fill: #7f7f7f; opacity: 0.5"/>
   </g>
   <g id="patch_62">
    <path d="M 195.168187 448.56 
L 196.802668 448.56 
L 196.802668 319.2 
L 195.168187 319.2 
z
" clip-path="url(#p4aaed54154)" style="fill: #7f7f7f; opacity: 0.5"/>
   </g>
   <g id="patch_63">
    <path d="M 197.211288 448.56 
L 198.845768 448.56 
L 198.845768 345.072 
L 197.211288 345.072 
z
" clip-path="url(#p4aaed54154)" style="fill: #7f7f7f; opacity: 0.5"/>
   </g>
   <g id="patch_64">
    <path d="M 199.254389 448.56 
L 200.888869 448.56 
L 200.888869 319.2 
L 199.254389 319.2 
z
" clip-path="url(#p4aaed54154)" style="fill: #7f7f7f; opacity: 0.5"/>
   </g>
   <g id="patch_65">
    <path d="M 201.297489 448.56 
L 202.93197 448.56 
L 202.93197 267.456 
L 201.297489 267.456 
z
" clip-path="url(#p4aaed54154)" style="fill: #7f7f7f; opacity: 0.5"/>
   </g>
   <g id="patch_66">
    <path d="M 203.34059 448.56 
L 204.975071 448.56 
L 204.975071 396.816 
L 203.34059 396.816 
z
" clip-path="url(#p4aaed54154)" style="fill: #7f7f7f; opacity: 0.5"/>
   </g>
   <g id="patch_67">
    <path d="M 205.383691 448.56 
L 207.018171 448.56 
L 207.018171 422.688 
L 205.383691 422.688 
z
" clip-path="url(#p4aaed54154)" style="fill: #7f7f7f; opacity: 0.5"/>
   </g>
   <g id="patch_68">
    <path d="M 207.426792 448.56 
L 209.061272 448.56 
L 209.061272 241.584 
L 207.426792 241.584 
z
" clip-path="url(#p4aaed54154)" style="fill: #7f7f7f; opacity: 0.5"/>
   </g>
   <g id="patch_69">
    <path d="M 209.469892 448.56 
L 211.104373 448.56 
L 211.104373 396.816 
L 209.469892 396.816 
z
" clip-path="url(#p4aaed54154)" style="fill: #7f7f7f; opacity: 0.5"/>
   </g>
   <g id="patch_70">
    <path d="M 211.512993 448.56 
L 213.147474 448.56 
L 213.147474 345.072 
L 211.512993 345.072 
z
" clip-path="url(#p4aaed54154)" style="fill: #7f7f7f; opacity: 0.5"/>
   </g>
   <g id="patch_71">
    <path d="M 213.556094 448.56 
L 215.190574 448.56 
L 215.190574 396.816 
L 213.556094 396.816 
z
" clip-path="url(#p4aaed54154)" style="fill: #7f7f7f; opacity: 0.5"/>
   </g>
   <g id="patch_72">
    <path d="M 215.599194 448.56 
L 217.233675 448.56 
L 217.233675 215.712 
L 215.599194 215.712 
z
" clip-path="url(#p4aaed54154)" style="fill: #7f7f7f; opacity: 0.5"/>
   </g>
   <g id="patch_73">
    <path d="M 217.642295 448.56 
L 219.276776 448.56 
L 219.276776 241.584 
L 217.642295 241.584 
z
" clip-path="url(#p4aaed54154)" style="fill: #7f7f7f; opacity: 0.5"/>
   </g>
   <g id="patch_74">
    <path d="M 219.685396 448.56 
L 221.319877 448.56 
L 221.319877 241.584 
L 219.685396 241.584 
z
" clip-path="url(#p4aaed54154)" style="fill: #7f7f7f; opacity: 0.5"/>
   </g>
   <g id="patch_75">
    <path d="M 221.728497 448.56 
L 223.362977 448.56 
L 223.362977 267.456 
L 221.728497 267.456 
z
" clip-path="url(#p4aaed54154)" style="fill: #7f7f7f; opacity: 0.5"/>
   </g>
   <g id="patch_76">
    <path d="M 223.771597 448.56 
L 225.406078 448.56 
L 225.406078 215.712 
L 223.771597 215.712 
z
" clip-path="url(#p4aaed54154)" style="fill: #7f7f7f; opacity: 0.5"/>
   </g>
   <g id="patch_77">
    <path d="M 225.814698 448.56 
L 227.449179 448.56 
L 227.449179 138.096 
L 225.814698 138.096 
z
" clip-path="url(#p4aaed54154)" style="fill: #7f7f7f; opacity: 0.5"/>
   </g>
   <g id="patch_78">
    <path d="M 227.857799 448.56 
L 229.49228 448.56 
L 229.49228 138.096 
L 227.857799 138.096 
z
" clip-path="url(#p4aaed54154)" style="fill: #7f7f7f; opacity: 0.5"/>
   </g>
   <g id="patch_79">
    <path d="M 229.9009 448.56 
L 231.53538 448.56 
L 231.53538 267.456 
L 229.9009 267.456 
z
" clip-path="url(#p4aaed54154)" style="fill: #7f7f7f; opacity: 0.5"/>
   </g>
   <g id="patch_80">
    <path d="M 231.944 448.56 
L 233.578481 448.56 
L 233.578481 138.096 
L 231.944 138.096 
z
" clip-path="url(#p4aaed54154)" style="fill: #7f7f7f; opacity: 0.5"/>
   </g>
   <g id="patch_81">
    <path d="M 233.987101 448.56 
L 235.621582 448.56 
L 235.621582 396.816 
L 233.987101 396.816 
z
" clip-path="url(#p4aaed54154)" style="fill: #7f7f7f; opacity: 0.5"/>
   </g>
   <g id="patch_82">
    <path d="M 236.030202 448.56 
L 237.664682 448.56 
L 237.664682 60.48 
L 236.030202 60.48 
z
" clip-path="url(#p4aaed54154)" style="fill: #7f7f7f; opacity: 0.5"/>
   </g>
   <g id="patch_83">
    <path d="M 238.073303 448.56 
L 239.707783 448.56 
L 239.707783 163.968 
L 238.073303 163.968 
z
" clip-path="url(#p4aaed54154)" style="fill: #7f7f7f; opacity: 0.5"/>
   </g>
   <g id="patch_84">
    <path d="M 240.116403 448.56 
L 241.750884 448.56 
L 241.750884 319.2 
L 240.116403 319.2 
z
" clip-path="url(#p4aaed54154)" style="fill: #7f7f7f; opacity: 0.5"/>
   </g>
   <g id="patch_85">
    <path d="M 242.159504 448.56 
L 243.793985 448.56 
L 243.793985 345.072 
L 242.159504 345.072 
z
" clip-path="url(#p4aaed54154)" style="fill: #7f7f7f; opacity: 0.5"/>
   </g>
   <g id="patch_86">
    <path d="M 244.202605 448.56 
L 245.837085 448.56 
L 245.837085 396.816 
L 244.202605 396.816 
z
" clip-path="url(#p4aaed54154)" style="fill: #7f7f7f; opacity: 0.5"/>
   </g>
   <g id="patch_87">
    <path d="M 246.245706 448.56 
L 247.880186 448.56 
L 247.880186 345.072 
L 246.245706 345.072 
z
" clip-path="url(#p4aaed54154)" style="fill: #7f7f7f; opacity: 0.5"/>
   </g>
   <g id="patch_88">
    <path d="M 248.288806 448.56 
L 249.923287 448.56 
L 249.923287 267.456 
L 248.288806 267.456 
z
" clip-path="url(#p4aaed54154)" style="fill: #7f7f7f; opacity: 0.5"/>
   </g>
   <g id="patch_89">
    <path d="M 250.331907 448.56 
L 251.966388 448.56 
L 251.966388 112.224 
L 250.331907 112.224 
z
" clip-path="url(#p4aaed54154)" style="fill: #7f7f7f; opacity: 0.5"/>
   </g>
   <g id="patch_90">
    <path d="M 252.375008 448.56 
L 254.009488 448.56 
L 254.009488 293.328 
L 252.375008 293.328 
z
" clip-path="url(#p4aaed54154)" style="fill: #7f7f7f; opacity: 0.5"/>
   </g>
   <g id="patch_91">
    <path d="M 254.418109 448.56 
L 256.052589 448.56 
L 256.052589 241.584 
L 254.418109 241.584 
z
" clip-path="url(#p4aaed54154)" style="fill: #7f7f7f; opacity: 0.5"/>
   </g>
   <g id="patch_92">
    <path d="M 256.461209 448.56 
L 258.09569 448.56 
L 258.09569 345.072 
L 256.461209 345.072 
z
" clip-path="url(#p4aaed54154)" style="fill: #7f7f7f; opacity: 0.5"/>
   </g>
   <g id="patch_93">
    <path d="M 258.50431 448.56 
L 260.138791 448.56 
L 260.138791 319.2 
L 258.50431 319.2 
z
" clip-path="url(#p4aaed54154)" style="fill: #7f7f7f; opacity: 0.5"/>
   </g>
   <g id="patch_94">
    <path d="M 260.547411 448.56 
L 262.181891 448.56 
L 262.181891 370.944 
L 260.547411 370.944 
z
" clip-path="url(#p4aaed54154)" style="fill: #7f7f7f; opacity: 0.5"/>
   </g>
   <g id="patch_95">
    <path d="M 262.590512 448.56 
L 264.224992 448.56 
L 264.224992 396.816 
L 262.590512 396.816 
z
" clip-path="url(#p4aaed54154)" style="fill: #7f7f7f; opacity: 0.5"/>
   </g>
   <g id="patch_96">
    <path d="M 264.633612 448.56 
L 266.268093 448.56 
L 266.268093 396.816 
L 264.633612 396.816 
z
" clip-path="url(#p4aaed54154)" style="fill: #7f7f7f; opacity: 0.5"/>
   </g>
   <g id="patch_97">
    <path d="M 266.676713 448.56 
L 268.311194 448.56 
L 268.311194 448.56 
L 266.676713 448.56 
z
" clip-path="url(#p4aaed54154)" style="fill: #7f7f7f; opacity: 0.5"/>
   </g>
   <g id="patch_98">
    <path d="M 268.719814 448.56 
L 270.354294 448.56 
L 270.354294 422.688 
L 268.719814 422.688 
z
" clip-path="url(#p4aaed54154)" style="fill: #7f7f7f; opacity: 0.5"/>
   </g>
   <g id="patch_99">
    <path d="M 270.762915 448.56 
L 272.397395 448.56 
L 272.397395 396.816 
L 270.762915 396.816 
z
" clip-path="url(#p4aaed54154)" style="fill: #7f7f7f; opacity: 0.5"/>
   </g>
   <g id="patch_100">
    <path d="M 272.806015 448.56 
L 274.440496 448.56 
L 274.440496 370.944 
L 272.806015 370.944 
z
" clip-path="url(#p4aaed54154)" style="fill: #7f7f7f; opacity: 0.5"/>
   </g>
   <g id="patch_101">
    <path d="M 274.849116 448.56 
L 276.483597 448.56 
L 276.483597 422.688 
L 274.849116 422.688 
z
" clip-path="url(#p4aaed54154)" style="fill: #7f7f7f; opacity: 0.5"/>
   </g>
   <g id="patch_102">
    <path d="M 276.892217 448.56 
L 278.526697 448.56 
L 278.526697 370.944 
L 276.892217 370.944 
z
" clip-path="url(#p4aaed54154)" style="fill: #7f7f7f; opacity: 0.5"/>
   </g>
   <g id="patch_103">
    <path d="M 278.935318 448.56 
L 280.569798 448.56 
L 280.569798 396.816 
L 278.935318 396.816 
z
" clip-path="url(#p4aaed54154)" style="fill: #7f7f7f; opacity: 0.5"/>
   </g>
   <g id="patch_104">
    <path d="M 280.978418 448.56 
L 282.612899 448.56 
L 282.612899 448.56 
L 280.978418 448.56 
z
" clip-path="url(#p4aaed54154)" style="fill: #7f7f7f; opacity: 0.5"/>
   </g>
   <g id="patch_105">
    <path d="M 283.021519 448.56 
L 284.656 448.56 
L 284.656 448.56 
L 283.021519 448.56 
z
" clip-path="url(#p4aaed54154)" style="fill: #7f7f7f; opacity: 0.5"/>
   </g>
   <g id="patch_106">
    <path d="M 285.06462 448.56 
L 286.6991 448.56 
L 286.6991 422.688 
L 285.06462 422.688 
z
" clip-path="url(#p4aaed54154)" style="fill: #7f7f7f; opacity: 0.5"/>
   </g>
   <g id="patch_107">
    <path d="M 287.10772 448.56 
L 288.742201 448.56 
L 288.742201 396.816 
L 287.10772 396.816 
z
" clip-path="url(#p4aaed54154)" style="fill: #7f7f7f; opacity: 0.5"/>
   </g>
   <g id="patch_108">
    <path d="M 289.150821 448.56 
L 290.785302 448.56 
L 290.785302 422.688 
L 289.150821 422.688 
z
" clip-path="url(#p4aaed54154)" style="fill: #7f7f7f; opacity: 0.5"/>
   </g>
   <g id="patch_109">
    <path d="M 291.193922 448.56 
L 292.828403 448.56 
L 292.828403 448.56 
L 291.193922 448.56 
z
" clip-path="url(#p4aaed54154)" style="fill: #7f7f7f; opacity: 0.5"/>
   </g>
   <g id="patch_110">
    <path d="M 293.237023 448.56 
L 294.871503 448.56 
L 294.871503 422.688 
L 293.237023 422.688 
z
" clip-path="url(#p4aaed54154)" style="fill: #7f7f7f; opacity: 0.5"/>
   </g>
   <g id="patch_111">
    <path d="M 295.280123 448.56 
L 296.914604 448.56 
L 296.914604 448.56 
L 295.280123 448.56 
z
" clip-path="url(#p4aaed54154)" style="fill: #7f7f7f; opacity: 0.5"/>
   </g>
   <g id="patch_112">
    <path d="M 297.323224 448.56 
L 298.957705 448.56 
L 298.957705 422.688 
L 297.323224 422.688 
z
" clip-path="url(#p4aaed54154)" style="fill: #7f7f7f; opacity: 0.5"/>
   </g>
   <g id="patch_113">
    <path d="M 299.366325 448.56 
L 301.000806 448.56 
L 301.000806 448.56 
L 299.366325 448.56 
z
" clip-path="url(#p4aaed54154)" style="fill: #7f7f7f; opacity: 0.5"/>
   </g>
   <g id="patch_114">
    <path d="M 301.409426 448.56 
L 303.043906 448.56 
L 303.043906 448.56 
L 301.409426 448.56 
z
" clip-path="url(#p4aaed54154)" style="fill: #7f7f7f; opacity: 0.5"/>
   </g>
   <g id="patch_115">
    <path d="M 303.452526 448.56 
L 305.087007 448.56 
L 305.087007 448.56 
L 303.452526 448.56 
z
" clip-path="url(#p4aaed54154)" style="fill: #7f7f7f; opacity: 0.5"/>
   </g>
   <g id="patch_116">
    <path d="M 305.495627 448.56 
L 307.130108 448.56 
L 307.130108 422.688 
L 305.495627 422.688 
z
" clip-path="url(#p4aaed54154)" style="fill: #7f7f7f; opacity: 0.5"/>
   </g>
   <g id="patch_117">
    <path d="M 307.538728 448.56 
L 309.173208 448.56 
L 309.173208 422.688 
L 307.538728 422.688 
z
" clip-path="url(#p4aaed54154)" style="fill: #7f7f7f; opacity: 0.5"/>
   </g>
   <g id="patch_118">
    <path d="M 309.581829 448.56 
L 311.216309 448.56 
L 311.216309 448.56 
L 309.581829 448.56 
z
" clip-path="url(#p4aaed54154)" style="fill: #7f7f7f; opacity: 0.5"/>
   </g>
   <g id="patch_119">
    <path d="M 311.624929 448.56 
L 313.25941 448.56 
L 313.25941 448.56 
L 311.624929 448.56 
z
" clip-path="url(#p4aaed54154)" style="fill: #7f7f7f; opacity: 0.5"/>
   </g>
   <g id="patch_120">
    <path d="M 313.66803 448.56 
L 315.302511 448.56 
L 315.302511 448.56 
L 313.66803 448.56 
z
" clip-path="url(#p4aaed54154)" style="fill: #7f7f7f; opacity: 0.5"/>
   </g>
   <g id="patch_121">
    <path d="M 315.711131 448.56 
L 317.345611 448.56 
L 317.345611 422.688 
L 315.711131 422.688 
z
" clip-path="url(#p4aaed54154)" style="fill: #7f7f7f; opacity: 0.5"/>
   </g>
   <g id="patch_122">
    <path d="M 317.754232 448.56 
L 319.388712 448.56 
L 319.388712 448.56 
L 317.754232 448.56 
z
" clip-path="url(#p4aaed54154)" style="fill: #7f7f7f; opacity: 0.5"/>
   </g>
   <g id="patch_123">
    <path d="M 319.797332 448.56 
L 321.431813 448.56 
L 321.431813 448.56 
L 319.797332 448.56 
z
" clip-path="url(#p4aaed54154)" style="fill: #7f7f7f; opacity: 0.5"/>
   </g>
   <g id="patch_124">
    <path d="M 321.840433 448.56 
L 323.474914 448.56 
L 323.474914 448.56 
L 321.840433 448.56 
z
" clip-path="url(#p4aaed54154)" style="fill: #7f7f7f; opacity: 0.5"/>
   </g>
   <g id="patch_125">
    <path d="M 323.883534 448.56 
L 325.518014 448.56 
L 325.518014 448.56 
L 323.883534 448.56 
z
" clip-path="url(#p4aaed54154)" style="fill: #7f7f7f; opacity: 0.5"/>
   </g>
   <g id="patch_126">
    <path d="M 325.926635 448.56 
L 327.561115 448.56 
L 327.561115 448.56 
L 325.926635 448.56 
z
" clip-path="url(#p4aaed54154)" style="fill: #7f7f7f; opacity: 0.5"/>
   </g>
   <g id="patch_127">
    <path d="M 327.969735 448.56 
L 329.604216 448.56 
L 329.604216 448.56 
L 327.969735 448.56 
z
" clip-path="url(#p4aaed54154)" style="fill: #7f7f7f; opacity: 0.5"/>
   </g>
   <g id="patch_128">
    <path d="M 330.012836 448.56 
L 331.647317 448.56 
L 331.647317 448.56 
L 330.012836 448.56 
z
" clip-path="url(#p4aaed54154)" style="fill: #7f7f7f; opacity: 0.5"/>
   </g>
   <g id="patch_129">
    <path d="M 332.055937 448.56 
L 333.690417 448.56 
L 333.690417 448.56 
L 332.055937 448.56 
z
" clip-path="url(#p4aaed54154)" style="fill: #7f7f7f; opacity: 0.5"/>
   </g>
   <g id="patch_130">
    <path d="M 334.099038 448.56 
L 335.733518 448.56 
L 335.733518 448.56 
L 334.099038 448.56 
z
" clip-path="url(#p4aaed54154)" style="fill: #7f7f7f; opacity: 0.5"/>
   </g>
   <g id="patch_131">
    <path d="M 336.142138 448.56 
L 337.776619 448.56 
L 337.776619 422.688 
L 336.142138 422.688 
z
" clip-path="url(#p4aaed54154)" style="fill: #7f7f7f; opacity: 0.5"/>
   </g>
   <g id="patch_132">
    <path d="M 338.185239 448.56 
L 339.81972 448.56 
L 339.81972 448.56 
L 338.185239 448.56 
z
" clip-path="url(#p4aaed54154)" style="fill: #7f7f7f; opacity: 0.5"/>
   </g>
   <g id="patch_133">
    <path d="M 340.22834 448.56 
L 341.86282 448.56 
L 341.86282 448.56 
L 340.22834 448.56 
z
" clip-path="url(#p4aaed54154)" style="fill: #7f7f7f; opacity: 0.5"/>
   </g>
   <g id="patch_134">
    <path d="M 342.271441 448.56 
L 343.905921 448.56 
L 343.905921 448.56 
L 342.271441 448.56 
z
" clip-path="url(#p4aaed54154)" style="fill: #7f7f7f; opacity: 0.5"/>
   </g>
   <g id="patch_135">
    <path d="M 344.314541 448.56 
L 345.949022 448.56 
L 345.949022 448.56 
L 344.314541 448.56 
z
" clip-path="url(#p4aaed54154)" style="fill: #7f7f7f; opacity: 0.5"/>
   </g>
   <g id="patch_136">
    <path d="M 346.357642 448.56 
L 347.992123 448.56 
L 347.992123 448.56 
L 346.357642 448.56 
z
" clip-path="url(#p4aaed54154)" style="fill: #7f7f7f; opacity: 0.5"/>
   </g>
   <g id="patch_137">
    <path d="M 348.400743 448.56 
L 350.035223 448.56 
L 350.035223 448.56 
L 348.400743 448.56 
z
" clip-path="url(#p4aaed54154)" style="fill: #7f7f7f; opacity: 0.5"/>
   </g>
   <g id="patch_138">
    <path d="M 350.443843 448.56 
L 352.078324 448.56 
L 352.078324 422.688 
L 350.443843 422.688 
z
" clip-path="url(#p4aaed54154)" style="fill: #7f7f7f; opacity: 0.5"/>
   </g>
   <g id="patch_139">
    <path d="M 352.486944 448.56 
L 354.121425 448.56 
L 354.121425 448.56 
L 352.486944 448.56 
z
" clip-path="url(#p4aaed54154)" style="fill: #7f7f7f; opacity: 0.5"/>
   </g>
   <g id="patch_140">
    <path d="M 354.530045 448.56 
L 356.164526 448.56 
L 356.164526 448.56 
L 354.530045 448.56 
z
" clip-path="url(#p4aaed54154)" style="fill: #7f7f7f; opacity: 0.5"/>
   </g>
   <g id="patch_141">
    <path d="M 356.573146 448.56 
L 358.207626 448.56 
L 358.207626 448.56 
L 356.573146 448.56 
z
" clip-path="url(#p4aaed54154)" style="fill: #7f7f7f; opacity: 0.5"/>
   </g>
   <g id="patch_142">
    <path d="M 358.616246 448.56 
L 360.250727 448.56 
L 360.250727 448.56 
L 358.616246 448.56 
z
" clip-path="url(#p4aaed54154)" style="fill: #7f7f7f; opacity: 0.5"/>
   </g>
   <g id="patch_143">
    <path d="M 360.659347 448.56 
L 362.293828 448.56 
L 362.293828 448.56 
L 360.659347 448.56 
z
" clip-path="url(#p4aaed54154)" style="fill: #7f7f7f; opacity: 0.5"/>
   </g>
   <g id="patch_144">
    <path d="M 362.702448 448.56 
L 364.336929 448.56 
L 364.336929 448.56 
L 362.702448 448.56 
z
" clip-path="url(#p4aaed54154)" style="fill: #7f7f7f; opacity: 0.5"/>
   </g>
   <g id="patch_145">
    <path d="M 364.745549 448.56 
L 366.380029 448.56 
L 366.380029 448.56 
L 364.745549 448.56 
z
" clip-path="url(#p4aaed54154)" style="fill: #7f7f7f; opacity: 0.5"/>
   </g>
   <g id="patch_146">
    <path d="M 366.788649 448.56 
L 368.42313 448.56 
L 368.42313 448.56 
L 366.788649 448.56 
z
" clip-path="url(#p4aaed54154)" style="fill: #7f7f7f; opacity: 0.5"/>
   </g>
   <g id="patch_147">
    <path d="M 368.83175 448.56 
L 370.466231 448.56 
L 370.466231 448.56 
L 368.83175 448.56 
z
" clip-path="url(#p4aaed54154)" style="fill: #7f7f7f; opacity: 0.5"/>
   </g>
   <g id="patch_148">
    <path d="M 370.874851 448.56 
L 372.509332 448.56 
L 372.509332 448.56 
L 370.874851 448.56 
z
" clip-path="url(#p4aaed54154)" style="fill: #7f7f7f; opacity: 0.5"/>
   </g>
   <g id="patch_149">
    <path d="M 372.917952 448.56 
L 374.552432 448.56 
L 374.552432 448.56 
L 372.917952 448.56 
z
" clip-path="url(#p4aaed54154)" style="fill: #7f7f7f; opacity: 0.5"/>
   </g>
   <g id="patch_150">
    <path d="M 374.961052 448.56 
L 376.595533 448.56 
L 376.595533 448.56 
L 374.961052 448.56 
z
" clip-path="url(#p4aaed54154)" style="fill: #7f7f7f; opacity: 0.5"/>
   </g>
   <g id="patch_151">
    <path d="M 377.004153 448.56 
L 378.638634 448.56 
L 378.638634 448.56 
L 377.004153 448.56 
z
" clip-path="url(#p4aaed54154)" style="fill: #7f7f7f; opacity: 0.5"/>
   </g>
   <g id="patch_152">
    <path d="M 379.047254 448.56 
L 380.681734 448.56 
L 380.681734 448.56 
L 379.047254 448.56 
z
" clip-path="url(#p4aaed54154)" style="fill: #7f7f7f; opacity: 0.5"/>
   </g>
   <g id="patch_153">
    <path d="M 381.090355 448.56 
L 382.724835 448.56 
L 382.724835 448.56 
L 381.090355 448.56 
z
" clip-path="url(#p4aaed54154)" style="fill: #7f7f7f; opacity: 0.5"/>
   </g>
   <g id="patch_154">
    <path d="M 383.133455 448.56 
L 384.767936 448.56 
L 384.767936 448.56 
L 383.133455 448.56 
z
" clip-path="url(#p4aaed54154)" style="fill: #7f7f7f; opacity: 0.5"/>
   </g>
   <g id="patch_155">
    <path d="M 385.176556 448.56 
L 386.811037 448.56 
L 386.811037 448.56 
L 385.176556 448.56 
z
" clip-path="url(#p4aaed54154)" style="fill: #7f7f7f; opacity: 0.5"/>
   </g>
   <g id="patch_156">
    <path d="M 387.219657 448.56 
L 388.854137 448.56 
L 388.854137 448.56 
L 387.219657 448.56 
z
" clip-path="url(#p4aaed54154)" style="fill: #7f7f7f; opacity: 0.5"/>
   </g>
   <g id="patch_157">
    <path d="M 389.262758 448.56 
L 390.897238 448.56 
L 390.897238 448.56 
L 389.262758 448.56 
z
" clip-path="url(#p4aaed54154)" style="fill: #7f7f7f; opacity: 0.5"/>
   </g>
   <g id="patch_158">
    <path d="M 391.305858 448.56 
L 392.940339 448.56 
L 392.940339 448.56 
L 391.305858 448.56 
z
" clip-path="url(#p4aaed54154)" style="fill: #7f7f7f; opacity: 0.5"/>
   </g>
   <g id="patch_159">
    <path d="M 393.348959 448.56 
L 394.98344 448.56 
L 394.98344 448.56 
L 393.348959 448.56 
z
" clip-path="url(#p4aaed54154)" style="fill: #7f7f7f; opacity: 0.5"/>
   </g>
   <g id="patch_160">
    <path d="M 395.39206 448.56 
L 397.02654 448.56 
L 397.02654 448.56 
L 395.39206 448.56 
z
" clip-path="url(#p4aaed54154)" style="fill: #7f7f7f; opacity: 0.5"/>
   </g>
   <g id="patch_161">
    <path d="M 397.435161 448.56 
L 399.069641 448.56 
L 399.069641 448.56 
L 397.435161 448.56 
z
" clip-path="url(#p4aaed54154)" style="fill: #7f7f7f; opacity: 0.5"/>
   </g>
   <g id="patch_162">
    <path d="M 399.478261 448.56 
L 401.112742 448.56 
L 401.112742 448.56 
L 399.478261 448.56 
z
" clip-path="url(#p4aaed54154)" style="fill: #7f7f7f; opacity: 0.5"/>
   </g>
   <g id="patch_163">
    <path d="M 401.521362 448.56 
L 403.155843 448.56 
L 403.155843 448.56 
L 401.521362 448.56 
z
" clip-path="url(#p4aaed54154)" style="fill: #7f7f7f; opacity: 0.5"/>
   </g>
   <g id="patch_164">
    <path d="M 403.564463 448.56 
L 405.198943 448.56 
L 405.198943 448.56 
L 403.564463 448.56 
z
" clip-path="url(#p4aaed54154)" style="fill: #7f7f7f; opacity: 0.5"/>
   </g>
   <g id="patch_165">
    <path d="M 405.607564 448.56 
L 407.242044 448.56 
L 407.242044 448.56 
L 405.607564 448.56 
z
" clip-path="url(#p4aaed54154)" style="fill: #7f7f7f; opacity: 0.5"/>
   </g>
   <g id="patch_166">
    <path d="M 407.650664 448.56 
L 409.285145 448.56 
L 409.285145 448.56 
L 407.650664 448.56 
z
" clip-path="url(#p4aaed54154)" style="fill: #7f7f7f; opacity: 0.5"/>
   </g>
   <g id="patch_167">
    <path d="M 409.693765 448.56 
L 411.328246 448.56 
L 411.328246 448.56 
L 409.693765 448.56 
z
" clip-path="url(#p4aaed54154)" style="fill: #7f7f7f; opacity: 0.5"/>
   </g>
   <g id="patch_168">
    <path d="M 411.736866 448.56 
L 413.371346 448.56 
L 413.371346 448.56 
L 411.736866 448.56 
z
" clip-path="url(#p4aaed54154)" style="fill: #7f7f7f; opacity: 0.5"/>
   </g>
   <g id="patch_169">
    <path d="M 413.779967 448.56 
L 415.414447 448.56 
L 415.414447 448.56 
L 413.779967 448.56 
z
" clip-path="url(#p4aaed54154)" style="fill: #7f7f7f; opacity: 0.5"/>
   </g>
   <g id="patch_170">
    <path d="M 415.823067 448.56 
L 417.457548 448.56 
L 417.457548 448.56 
L 415.823067 448.56 
z
" clip-path="url(#p4aaed54154)" style="fill: #7f7f7f; opacity: 0.5"/>
   </g>
   <g id="patch_171">
    <path d="M 417.866168 448.56 
L 419.500649 448.56 
L 419.500649 448.56 
L 417.866168 448.56 
z
" clip-path="url(#p4aaed54154)" style="fill: #7f7f7f; opacity: 0.5"/>
   </g>
   <g id="patch_172">
    <path d="M 419.909269 448.56 
L 421.543749 448.56 
L 421.543749 448.56 
L 419.909269 448.56 
z
" clip-path="url(#p4aaed54154)" style="fill: #7f7f7f; opacity: 0.5"/>
   </g>
   <g id="patch_173">
    <path d="M 421.952369 448.56 
L 423.58685 448.56 
L 423.58685 448.56 
L 421.952369 448.56 
z
" clip-path="url(#p4aaed54154)" style="fill: #7f7f7f; opacity: 0.5"/>
   </g>
   <g id="patch_174">
    <path d="M 423.99547 448.56 
L 425.629951 448.56 
L 425.629951 448.56 
L 423.99547 448.56 
z
" clip-path="url(#p4aaed54154)" style="fill: #7f7f7f; opacity: 0.5"/>
   </g>
   <g id="patch_175">
    <path d="M 426.038571 448.56 
L 427.673052 448.56 
L 427.673052 448.56 
L 426.038571 448.56 
z
" clip-path="url(#p4aaed54154)" style="fill: #7f7f7f; opacity: 0.5"/>
   </g>
   <g id="patch_176">
    <path d="M 428.081672 448.56 
L 429.716152 448.56 
L 429.716152 448.56 
L 428.081672 448.56 
z
" clip-path="url(#p4aaed54154)" style="fill: #7f7f7f; opacity: 0.5"/>
   </g>
   <g id="patch_177">
    <path d="M 430.124772 448.56 
L 431.759253 448.56 
L 431.759253 448.56 
L 430.124772 448.56 
z
" clip-path="url(#p4aaed54154)" style="fill: #7f7f7f; opacity: 0.5"/>
   </g>
   <g id="patch_178">
    <path d="M 432.167873 448.56 
L 433.802354 448.56 
L 433.802354 448.56 
L 432.167873 448.56 
z
" clip-path="url(#p4aaed54154)" style="fill: #7f7f7f; opacity: 0.5"/>
   </g>
   <g id="patch_179">
    <path d="M 434.210974 448.56 
L 435.845455 448.56 
L 435.845455 448.56 
L 434.210974 448.56 
z
" clip-path="url(#p4aaed54154)" style="fill: #7f7f7f; opacity: 0.5"/>
   </g>
   <g id="matplotlib.axis_3">
    <g id="ytick_8">
     <g id="line2d_18">
      <defs>
       <path id="meffaf93848" d="M 0 0 
L 3.5 0 
" style="stroke: #7f7f7f; stroke-width: 0.8"/>
      </defs>
      <g>
       <use xlink:href="#meffaf93848" x="453.6" y="448.56" style="fill: #7f7f7f; stroke: #7f7f7f; stroke-width: 0.8"/>
      </g>
     </g>
     <g id="text_18">
      <text style="font-size: 16px; font-family: 'Arial', sans-serif; text-anchor: start; fill: #7f7f7f" x="460.6" y="454.384219" transform="rotate(-0 460.6 454.384219)">0</text>
     </g>
    </g>
    <g id="ytick_9">
     <g id="line2d_19">
      <g>
       <use xlink:href="#meffaf93848" x="453.6" y="396.816" style="fill: #7f7f7f; stroke: #7f7f7f; stroke-width: 0.8"/>
      </g>
     </g>
     <g id="text_19">
      <text style="font-size: 16px; font-family: 'Arial', sans-serif; text-anchor: start; fill: #7f7f7f" x="460.6" y="402.640219" transform="rotate(-0 460.6 402.640219)">2</text>
     </g>
    </g>
    <g id="ytick_10">
     <g id="line2d_20">
      <g>
       <use xlink:href="#meffaf93848" x="453.6" y="345.072" style="fill: #7f7f7f; stroke: #7f7f7f; stroke-width: 0.8"/>
      </g>
     </g>
     <g id="text_20">
      <text style="font-size: 16px; font-family: 'Arial', sans-serif; text-anchor: start; fill: #7f7f7f" x="460.6" y="350.896219" transform="rotate(-0 460.6 350.896219)">4</text>
     </g>
    </g>
    <g id="ytick_11">
     <g id="line2d_21">
      <g>
       <use xlink:href="#meffaf93848" x="453.6" y="293.328" style="fill: #7f7f7f; stroke: #7f7f7f; stroke-width: 0.8"/>
      </g>
     </g>
     <g id="text_21">
      <text style="font-size: 16px; font-family: 'Arial', sans-serif; text-anchor: start; fill: #7f7f7f" x="460.6" y="299.152219" transform="rotate(-0 460.6 299.152219)">6</text>
     </g>
    </g>
    <g id="ytick_12">
     <g id="line2d_22">
      <g>
       <use xlink:href="#meffaf93848" x="453.6" y="241.584" style="fill: #7f7f7f; stroke: #7f7f7f; stroke-width: 0.8"/>
      </g>
     </g>
     <g id="text_22">
      <text style="font-size: 16px; font-family: 'Arial', sans-serif; text-anchor: start; fill: #7f7f7f" x="460.6" y="247.408219" transform="rotate(-0 460.6 247.408219)">8</text>
     </g>
    </g>
    <g id="ytick_13">
     <g id="line2d_23">
      <g>
       <use xlink:href="#meffaf93848" x="453.6" y="189.84" style="fill: #7f7f7f; stroke: #7f7f7f; stroke-width: 0.8"/>
      </g>
     </g>
     <g id="text_23">
      <text style="font-size: 16px; font-family: 'Arial', sans-serif; text-anchor: start; fill: #7f7f7f" x="460.6" y="195.664219" transform="rotate(-0 460.6 195.664219)">10</text>
     </g>
    </g>
    <g id="ytick_14">
     <g id="line2d_24">
      <g>
       <use xlink:href="#meffaf93848" x="453.6" y="138.096" style="fill: #7f7f7f; stroke: #7f7f7f; stroke-width: 0.8"/>
      </g>
     </g>
     <g id="text_24">
      <text style="font-size: 16px; font-family: 'Arial', sans-serif; text-anchor: start; fill: #7f7f7f" x="460.6" y="143.920219" transform="rotate(-0 460.6 143.920219)">12</text>
     </g>
    </g>
    <g id="ytick_15">
     <g id="line2d_25">
      <g>
       <use xlink:href="#meffaf93848" x="453.6" y="86.352" style="fill: #7f7f7f; stroke: #7f7f7f; stroke-width: 0.8"/>
      </g>
     </g>
     <g id="text_25">
      <text style="font-size: 16px; font-family: 'Arial', sans-serif; text-anchor: start; fill: #7f7f7f" x="460.6" y="92.176219" transform="rotate(-0 460.6 92.176219)">14</text>
     </g>
    </g>
    <g id="text_26">
     <text style="font-size: 16px; font-family: 'Arial', sans-serif; text-anchor: middle; fill: #7f7f7f" x="494.043438" y="254.52" transform="rotate(-90 494.043438 254.52)">Number of cases</text>
    </g>
   </g>
   <g id="patch_180">
    <path d="M 453.6 448.56 
L 453.6 60.48 
" style="fill: none; stroke: #7f7f7f; stroke-width: 0.8; stroke-linejoin: miter; stroke-linecap: square"/>
   </g>
  </g>
 </g>
 <defs>
  <clipPath id="p4aaed54154">
   <rect x="63" y="60.48" width="390.6" height="388.08"/>
  </clipPath>
 </defs>
</svg>
