<?xml version="1.0" encoding="utf-8" standalone="no"?>
<!DOCTYPE svg PUBLIC "-//W3C//DTD SVG 1.1//EN"
  "http://www.w3.org/Graphics/SVG/1.1/DTD/svg11.dtd">
<svg xmlns:xlink="http://www.w3.org/1999/xlink" width="504pt" height="504pt" viewBox="0 0 504 504" xmlns="http://www.w3.org/2000/svg" version="1.1">
 <metadata>
  <rdf:RDF xmlns:dc="http://purl.org/dc/elements/1.1/" xmlns:cc="http://creativecommons.org/ns#" xmlns:rdf="http://www.w3.org/1999/02/22-rdf-syntax-ns#">
   <cc:Work>
    <dc:type rdf:resource="http://purl.org/dc/dcmitype/StillImage"/>
    <dc:date>2026-07-13T19:18:11.473330</dc:date>
    <dc:format>image/svg+xml</dc:format>
    <dc:creator>
     <cc:Agent>
      <dc:title>Matplotlib v3.11.0, https://matplotlib.org/</dc:title>
     </cc:Agent>
    </dc:creator>
   </cc:Work>
  </rdf:RDF>
 </metadata>
 <defs>
  <style type="text/css">*{stroke-linejoin: round; stroke-linecap: butt}</style>
 </defs>
 <g id="figure_1">
  <g id="patch_1">
   <path d="M 0 504 
L 504 504 
L 504 0 
L 0 0 
L 0 504 
z
" style="fill: none"/>
  </g>
  <g id="axes_1">
   <g id="patch_2">
    <path d="M 63 448.56 
L 453.6 448.56 
L 453.6 60.48 
L 63 60.48 
L 63 448.56 
z
" style="fill: none"/>
   </g>
   <g id="matplotlib.axis_1">
    <g id="ytick_1">
     <g id="line2d_1">
      <defs>
       <path id="m99afb2d51d" d="M 0 0 
L 3.5 0 
" style="stroke: #7f7f7f; stroke-width: 0.8"/>
      </defs>
      <g>
       <use xlink:href="#m99afb2d51d" x="453.6" y="448.56" style="fill: #7f7f7f; stroke: #7f7f7f; stroke-width: 0.8"/>
      </g>
     </g>
     <g id="text_1">
      <text style="font-size: 16px; font-family: 'Arial', sans-serif; text-anchor: start; fill: #7f7f7f" x="460.6" y="454.638125" transform="rotate(-0 460.6 454.638125)">0</text>
     </g>
    </g>
    <g id="ytick_2">
     <g id="line2d_2">
      <g>
       <use xlink:href="#m99afb2d51d" x="453.6" y="396.816" style="fill: #7f7f7f; stroke: #7f7f7f; stroke-width: 0.8"/>
      </g>
     </g>
     <g id="text_2">
      <text style="font-size: 16px; font-family: 'Arial', sans-serif; text-anchor: start; fill: #7f7f7f" x="460.6" y="402.894125" transform="rotate(-0 460.6 402.894125)">2</text>
     </g>
    </g>
    <g id="ytick_3">
     <g id="line2d_3">
      <g>
       <use xlink:href="#m99afb2d51d" x="453.6" y="345.072" style="fill: #7f7f7f; stroke: #7f7f7f; stroke-width: 0.8"/>
      </g>
     </g>
     <g id="text_3">
      <text style="font-size: 16px; font-family: 'Arial', sans-serif; text-anchor: start; fill: #7f7f7f" x="460.6" y="351.150125" transform="rotate(-0 460.6 351.150125)">4</text>
     </g>
    </g>
    <g id="ytick_4">
     <g id="line2d_4">
      <g>
       <use xlink:href="#m99afb2d51d" x="453.6" y="293.328" style="fill: #7f7f7f; stroke: #7f7f7f; stroke-width: 0.8"/>
      </g>
     </g>
     <g id="text_4">
      <text style="font-size: 16px; font-family: 'Arial', sans-serif; text-anchor: start; fill: #7f7f7f" x="460.6" y="299.406125" transform="rotate(-0 460.6 299.406125)">6</text>
     </g>
    </g>
    <g id="ytick_5">
     <g id="line2d_5">
      <g>
       <use xlink:href="#m99afb2d51d" x="453.6" y="241.584" style="fill: #7f7f7f; stroke: #7f7f7f; stroke-width: 0.8"/>
      </g>
     </g>
     <g id="text_5">
      <text style="font-size: 16px; font-family: 'Arial', sans-serif; text-anchor: start; fill: #7f7f7f" x="460.6" y="247.662125" transform="rotate(-0 460.6 247.662125)">8</text>
     </g>
    </g>
    <g id="ytick_6">
     <g id="line2d_6">
      <g>
       <use xlink:href="#m99afb2d51d" x="453.6" y="189.84" style="fill: #7f7f7f; stroke: #7f7f7f; stroke-width: 0.8"/>
      </g>
     </g>
     <g id="text_6">
      <text style="font-size: 16px; font-family: 'Arial', sans-serif; text-anchor: start; fill: #7f7f7f" x="460.6" y="195.918125" transform="rotate(-0 460.6 195.918125)">10</text>
     </g>
    </g>
    <g id="ytick_7">
     <g id="line2d_7">
      <g>
       <use xlink:href="#m99afb2d51d" x="453.6" y="138.096" style="fill: #7f7f7f; stroke: #7f7f7f; stroke-width: 0.8"/>
      </g>
     </g>
     <g id="text_7">
      <text style="font-size: 16px; font-family: 'Arial', sans-serif; text-anchor: start; fill: #7f7f7f" x="460.6" y="144.174125" transform="rotate(-0 460.6 144.174125)">12</text>
     </g>
    </g>
    <g id="ytick_8">
     <g id="line2d_8">
      <g>
       <use xlink:href="#m99afb2d51d" x="453.6" y="86.352" style="fill: #7f7f7f; stroke: #7f7f7f; stroke-width: 0.8"/>
      </g>
     </g>
     <g id="text_8">
      <text style="font-size: 16px; font-family: 'Arial', sans-serif; text-anchor: start; fill: #7f7f7f" x="460.6" y="92.430125" transform="rotate(-0 460.6 92.430125)">14</text>
     </g>
    </g>
    <g id="text_9">
     <text style="font-size: 16px; font-family: 'Arial', sans-serif; text-anchor: middle; fill: #7f7f7f" x="497.1175" y="254.52" transform="rotate(-90 497.1175 254.52)">Number of cases</text>
    </g>
   </g>
   <g id="patch_3">
    <path d="M 80.754545 448.56 
L 82.379675 448.56 
L 82.379675 396.816 
L 80.754545 396.816 
z
" clip-path="url(#p3a7d8ba1bd)" style="fill: #7f7f7f; opacity: 0.5"/>
   </g>
   <g id="patch_4">
    <path d="M 82.785958 448.56 
L 84.411088 448.56 
L 84.411088 396.816 
L 82.785958 396.816 
z
" clip-path="url(#p3a7d8ba1bd)" style="fill: #7f7f7f; opacity: 0.5"/>
   </g>
   <g id="patch_5">
    <path d="M 84.817371 448.56 
L 86.442501 448.56 
L 86.442501 396.816 
L 84.817371 396.816 
z
" clip-path="url(#p3a7d8ba1bd)" style="fill: #7f7f7f; opacity: 0.5"/>
   </g>
   <g id="patch_6">
    <path d="M 86.848783 448.56 
L 88.473913 448.56 
L 88.473913 448.56 
L 86.848783 448.56 
z
" clip-path="url(#p3a7d8ba1bd)" style="fill: #7f7f7f; opacity: 0.5"/>
   </g>
   <g id="patch_7">
    <path d="M 88.880196 448.56 
L 90.505326 448.56 
L 90.505326 448.56 
L 88.880196 448.56 
z
" clip-path="url(#p3a7d8ba1bd)" style="fill: #7f7f7f; opacity: 0.5"/>
   </g>
   <g id="patch_8">
    <path d="M 90.911608 448.56 
L 92.536738 448.56 
L 92.536738 448.56 
L 90.911608 448.56 
z
" clip-path="url(#p3a7d8ba1bd)" style="fill: #7f7f7f; opacity: 0.5"/>
   </g>
   <g id="patch_9">
    <path d="M 92.943021 448.56 
L 94.568151 448.56 
L 94.568151 448.56 
L 92.943021 448.56 
z
" clip-path="url(#p3a7d8ba1bd)" style="fill: #7f7f7f; opacity: 0.5"/>
   </g>
   <g id="patch_10">
    <path d="M 94.974433 448.56 
L 96.599563 448.56 
L 96.599563 448.56 
L 94.974433 448.56 
z
" clip-path="url(#p3a7d8ba1bd)" style="fill: #7f7f7f; opacity: 0.5"/>
   </g>
   <g id="patch_11">
    <path d="M 97.005846 448.56 
L 98.630976 448.56 
L 98.630976 448.56 
L 97.005846 448.56 
z
" clip-path="url(#p3a7d8ba1bd)" style="fill: #7f7f7f; opacity: 0.5"/>
   </g>
   <g id="patch_12">
    <path d="M 99.037258 448.56 
L 100.662388 448.56 
L 100.662388 422.688 
L 99.037258 422.688 
z
" clip-path="url(#p3a7d8ba1bd)" style="fill: #7f7f7f; opacity: 0.5"/>
   </g>
   <g id="patch_13">
    <path d="M 101.068671 448.56 
L 102.693801 448.56 
L 102.693801 448.56 
L 101.068671 448.56 
z
" clip-path="url(#p3a7d8ba1bd)" style="fill: #7f7f7f; opacity: 0.5"/>
   </g>
   <g id="patch_14">
    <path d="M 103.100083 448.56 
L 104.725213 448.56 
L 104.725213 448.56 
L 103.100083 448.56 
z
" clip-path="url(#p3a7d8ba1bd)" style="fill: #7f7f7f; opacity: 0.5"/>
   </g>
   <g id="patch_15">
    <path d="M 105.131496 448.56 
L 106.756626 448.56 
L 106.756626 448.56 
L 105.131496 448.56 
z
" clip-path="url(#p3a7d8ba1bd)" style="fill: #7f7f7f; opacity: 0.5"/>
   </g>
   <g id="patch_16">
    <path d="M 107.162908 448.56 
L 108.788038 448.56 
L 108.788038 448.56 
L 107.162908 448.56 
z
" clip-path="url(#p3a7d8ba1bd)" style="fill: #7f7f7f; opacity: 0.5"/>
   </g>
   <g id="patch_17">
    <path d="M 109.194321 448.56 
L 110.819451 448.56 
L 110.819451 448.56 
L 109.194321 448.56 
z
" clip-path="url(#p3a7d8ba1bd)" style="fill: #7f7f7f; opacity: 0.5"/>
   </g>
   <g id="patch_18">
    <path d="M 111.225733 448.56 
L 112.850863 448.56 
L 112.850863 448.56 
L 111.225733 448.56 
z
" clip-path="url(#p3a7d8ba1bd)" style="fill: #7f7f7f; opacity: 0.5"/>
   </g>
   <g id="patch_19">
    <path d="M 113.257146 448.56 
L 114.882276 448.56 
L 114.882276 448.56 
L 113.257146 448.56 
z
" clip-path="url(#p3a7d8ba1bd)" style="fill: #7f7f7f; opacity: 0.5"/>
   </g>
   <g id="patch_20">
    <path d="M 115.288558 448.56 
L 116.913688 448.56 
L 116.913688 448.56 
L 115.288558 448.56 
z
" clip-path="url(#p3a7d8ba1bd)" style="fill: #7f7f7f; opacity: 0.5"/>
   </g>
   <g id="patch_21">
    <path d="M 117.319971 448.56 
L 118.945101 448.56 
L 118.945101 448.56 
L 117.319971 448.56 
z
" clip-path="url(#p3a7d8ba1bd)" style="fill: #7f7f7f; opacity: 0.5"/>
   </g>
   <g id="patch_22">
    <path d="M 119.351383 448.56 
L 120.976513 448.56 
L 120.976513 422.688 
L 119.351383 422.688 
z
" clip-path="url(#p3a7d8ba1bd)" style="fill: #7f7f7f; opacity: 0.5"/>
   </g>
   <g id="patch_23">
    <path d="M 121.382796 448.56 
L 123.007926 448.56 
L 123.007926 448.56 
L 121.382796 448.56 
z
" clip-path="url(#p3a7d8ba1bd)" style="fill: #7f7f7f; opacity: 0.5"/>
   </g>
   <g id="patch_24">
    <path d="M 123.414208 448.56 
L 125.039338 448.56 
L 125.039338 448.56 
L 123.414208 448.56 
z
" clip-path="url(#p3a7d8ba1bd)" style="fill: #7f7f7f; opacity: 0.5"/>
   </g>
   <g id="patch_25">
    <path d="M 125.445621 448.56 
L 127.070751 448.56 
L 127.070751 422.688 
L 125.445621 422.688 
z
" clip-path="url(#p3a7d8ba1bd)" style="fill: #7f7f7f; opacity: 0.5"/>
   </g>
   <g id="patch_26">
    <path d="M 127.477033 448.56 
L 129.102164 448.56 
L 129.102164 448.56 
L 127.477033 448.56 
z
" clip-path="url(#p3a7d8ba1bd)" style="fill: #7f7f7f; opacity: 0.5"/>
   </g>
   <g id="patch_27">
    <path d="M 129.508446 448.56 
L 131.133576 448.56 
L 131.133576 422.688 
L 129.508446 422.688 
z
" clip-path="url(#p3a7d8ba1bd)" style="fill: #7f7f7f; opacity: 0.5"/>
   </g>
   <g id="patch_28">
    <path d="M 131.539859 448.56 
L 133.164989 448.56 
L 133.164989 448.56 
L 131.539859 448.56 
z
" clip-path="url(#p3a7d8ba1bd)" style="fill: #7f7f7f; opacity: 0.5"/>
   </g>
   <g id="patch_29">
    <path d="M 133.571271 448.56 
L 135.196401 448.56 
L 135.196401 422.688 
L 133.571271 422.688 
z
" clip-path="url(#p3a7d8ba1bd)" style="fill: #7f7f7f; opacity: 0.5"/>
   </g>
   <g id="patch_30">
    <path d="M 135.602684 448.56 
L 137.227814 448.56 
L 137.227814 448.56 
L 135.602684 448.56 
z
" clip-path="url(#p3a7d8ba1bd)" style="fill: #7f7f7f; opacity: 0.5"/>
   </g>
   <g id="patch_31">
    <path d="M 137.634096 448.56 
L 139.259226 448.56 
L 139.259226 422.688 
L 137.634096 422.688 
z
" clip-path="url(#p3a7d8ba1bd)" style="fill: #7f7f7f; opacity: 0.5"/>
   </g>
   <g id="patch_32">
    <path d="M 139.665509 448.56 
L 141.290639 448.56 
L 141.290639 422.688 
L 139.665509 422.688 
z
" clip-path="url(#p3a7d8ba1bd)" style="fill: #7f7f7f; opacity: 0.5"/>
   </g>
   <g id="patch_33">
    <path d="M 141.696921 448.56 
L 143.322051 448.56 
L 143.322051 448.56 
L 141.696921 448.56 
z
" clip-path="url(#p3a7d8ba1bd)" style="fill: #7f7f7f; opacity: 0.5"/>
   </g>
   <g id="patch_34">
    <path d="M 143.728334 448.56 
L 145.353464 448.56 
L 145.353464 422.688 
L 143.728334 422.688 
z
" clip-path="url(#p3a7d8ba1bd)" style="fill: #7f7f7f; opacity: 0.5"/>
   </g>
   <g id="patch_35">
    <path d="M 145.759746 448.56 
L 147.384876 448.56 
L 147.384876 422.688 
L 145.759746 422.688 
z
" clip-path="url(#p3a7d8ba1bd)" style="fill: #7f7f7f; opacity: 0.5"/>
   </g>
   <g id="patch_36">
    <path d="M 147.791159 448.56 
L 149.416289 448.56 
L 149.416289 448.56 
L 147.791159 448.56 
z
" clip-path="url(#p3a7d8ba1bd)" style="fill: #7f7f7f; opacity: 0.5"/>
   </g>
   <g id="patch_37">
    <path d="M 149.822571 448.56 
L 151.447701 448.56 
L 151.447701 422.688 
L 149.822571 422.688 
z
" clip-path="url(#p3a7d8ba1bd)" style="fill: #7f7f7f; opacity: 0.5"/>
   </g>
   <g id="patch_38">
    <path d="M 151.853984 448.56 
L 153.479114 448.56 
L 153.479114 448.56 
L 151.853984 448.56 
z
" clip-path="url(#p3a7d8ba1bd)" style="fill: #7f7f7f; opacity: 0.5"/>
   </g>
   <g id="patch_39">
    <path d="M 153.885396 448.56 
L 155.510526 448.56 
L 155.510526 448.56 
L 153.885396 448.56 
z
" clip-path="url(#p3a7d8ba1bd)" style="fill: #7f7f7f; opacity: 0.5"/>
   </g>
   <g id="patch_40">
    <path d="M 155.916809 448.56 
L 157.541939 448.56 
L 157.541939 370.944 
L 155.916809 370.944 
z
" clip-path="url(#p3a7d8ba1bd)" style="fill: #7f7f7f; opacity: 0.5"/>
   </g>
   <g id="patch_41">
    <path d="M 157.948221 448.56 
L 159.573351 448.56 
L 159.573351 396.816 
L 157.948221 396.816 
z
" clip-path="url(#p3a7d8ba1bd)" style="fill: #7f7f7f; opacity: 0.5"/>
   </g>
   <g id="patch_42">
    <path d="M 159.979634 448.56 
L 161.604764 448.56 
L 161.604764 422.688 
L 159.979634 422.688 
z
" clip-path="url(#p3a7d8ba1bd)" style="fill: #7f7f7f; opacity: 0.5"/>
   </g>
   <g id="patch_43">
    <path d="M 162.011046 448.56 
L 163.636176 448.56 
L 163.636176 422.688 
L 162.011046 422.688 
z
" clip-path="url(#p3a7d8ba1bd)" style="fill: #7f7f7f; opacity: 0.5"/>
   </g>
   <g id="patch_44">
    <path d="M 164.042459 448.56 
L 165.667589 448.56 
L 165.667589 422.688 
L 164.042459 422.688 
z
" clip-path="url(#p3a7d8ba1bd)" style="fill: #7f7f7f; opacity: 0.5"/>
   </g>
   <g id="patch_45">
    <path d="M 166.073871 448.56 
L 167.699001 448.56 
L 167.699001 422.688 
L 166.073871 422.688 
z
" clip-path="url(#p3a7d8ba1bd)" style="fill: #7f7f7f; opacity: 0.5"/>
   </g>
   <g id="patch_46">
    <path d="M 168.105284 448.56 
L 169.730414 448.56 
L 169.730414 370.944 
L 168.105284 370.944 
z
" clip-path="url(#p3a7d8ba1bd)" style="fill: #7f7f7f; opacity: 0.5"/>
   </g>
   <g id="patch_47">
    <path d="M 170.136696 448.56 
L 171.761827 448.56 
L 171.761827 448.56 
L 170.136696 448.56 
z
" clip-path="url(#p3a7d8ba1bd)" style="fill: #7f7f7f; opacity: 0.5"/>
   </g>
   <g id="patch_48">
    <path d="M 172.168109 448.56 
L 173.793239 448.56 
L 173.793239 422.688 
L 172.168109 422.688 
z
" clip-path="url(#p3a7d8ba1bd)" style="fill: #7f7f7f; opacity: 0.5"/>
   </g>
   <g id="patch_49">
    <path d="M 174.199522 448.56 
L 175.824652 448.56 
L 175.824652 422.688 
L 174.199522 422.688 
z
" clip-path="url(#p3a7d8ba1bd)" style="fill: #7f7f7f; opacity: 0.5"/>
   </g>
   <g id="patch_50">
    <path d="M 176.230934 448.56 
L 177.856064 448.56 
L 177.856064 345.072 
L 176.230934 345.072 
z
" clip-path="url(#p3a7d8ba1bd)" style="fill: #7f7f7f; opacity: 0.5"/>
   </g>
   <g id="patch_51">
    <path d="M 178.262347 448.56 
L 179.887477 448.56 
L 179.887477 370.944 
L 178.262347 370.944 
z
" clip-path="url(#p3a7d8ba1bd)" style="fill: #7f7f7f; opacity: 0.5"/>
   </g>
   <g id="patch_52">
    <path d="M 180.293759 448.56 
L 181.918889 448.56 
L 181.918889 370.944 
L 180.293759 370.944 
z
" clip-path="url(#p3a7d8ba1bd)" style="fill: #7f7f7f; opacity: 0.5"/>
   </g>
   <g id="patch_53">
    <path d="M 182.325172 448.56 
L 183.950302 448.56 
L 183.950302 396.816 
L 182.325172 396.816 
z
" clip-path="url(#p3a7d8ba1bd)" style="fill: #7f7f7f; opacity: 0.5"/>
   </g>
   <g id="patch_54">
    <path d="M 184.356584 448.56 
L 185.981714 448.56 
L 185.981714 345.072 
L 184.356584 345.072 
z
" clip-path="url(#p3a7d8ba1bd)" style="fill: #7f7f7f; opacity: 0.5"/>
   </g>
   <g id="patch_55">
    <path d="M 186.387997 448.56 
L 188.013127 448.56 
L 188.013127 345.072 
L 186.387997 345.072 
z
" clip-path="url(#p3a7d8ba1bd)" style="fill: #7f7f7f; opacity: 0.5"/>
   </g>
   <g id="patch_56">
    <path d="M 188.419409 448.56 
L 190.044539 448.56 
L 190.044539 241.584 
L 188.419409 241.584 
z
" clip-path="url(#p3a7d8ba1bd)" style="fill: #7f7f7f; opacity: 0.5"/>
   </g>
   <g id="patch_57">
    <path d="M 190.450822 448.56 
L 192.075952 448.56 
L 192.075952 319.2 
L 190.450822 319.2 
z
" clip-path="url(#p3a7d8ba1bd)" style="fill: #7f7f7f; opacity: 0.5"/>
   </g>
   <g id="patch_58">
    <path d="M 192.482234 448.56 
L 194.107364 448.56 
L 194.107364 241.584 
L 192.482234 241.584 
z
" clip-path="url(#p3a7d8ba1bd)" style="fill: #7f7f7f; opacity: 0.5"/>
   </g>
   <g id="patch_59">
    <path d="M 194.513647 448.56 
L 196.138777 448.56 
L 196.138777 319.2 
L 194.513647 319.2 
z
" clip-path="url(#p3a7d8ba1bd)" style="fill: #7f7f7f; opacity: 0.5"/>
   </g>
   <g id="patch_60">
    <path d="M 196.545059 448.56 
L 198.170189 448.56 
L 198.170189 345.072 
L 196.545059 345.072 
z
" clip-path="url(#p3a7d8ba1bd)" style="fill: #7f7f7f; opacity: 0.5"/>
   </g>
   <g id="patch_61">
    <path d="M 198.576472 448.56 
L 200.201602 448.56 
L 200.201602 319.2 
L 198.576472 319.2 
z
" clip-path="url(#p3a7d8ba1bd)" style="fill: #7f7f7f; opacity: 0.5"/>
   </g>
   <g id="patch_62">
    <path d="M 200.607884 448.56 
L 202.233014 448.56 
L 202.233014 267.456 
L 200.607884 267.456 
z
" clip-path="url(#p3a7d8ba1bd)" style="fill: #7f7f7f; opacity: 0.5"/>
   </g>
   <g id="patch_63">
    <path d="M 202.639297 448.56 
L 204.264427 448.56 
L 204.264427 396.816 
L 202.639297 396.816 
z
" clip-path="url(#p3a7d8ba1bd)" style="fill: #7f7f7f; opacity: 0.5"/>
   </g>
   <g id="patch_64">
    <path d="M 204.670709 448.56 
L 206.295839 448.56 
L 206.295839 422.688 
L 204.670709 422.688 
z
" clip-path="url(#p3a7d8ba1bd)" style="fill: #7f7f7f; opacity: 0.5"/>
   </g>
   <g id="patch_65">
    <path d="M 206.702122 448.56 
L 208.327252 448.56 
L 208.327252 241.584 
L 206.702122 241.584 
z
" clip-path="url(#p3a7d8ba1bd)" style="fill: #7f7f7f; opacity: 0.5"/>
   </g>
   <g id="patch_66">
    <path d="M 208.733534 448.56 
L 210.358664 448.56 
L 210.358664 396.816 
L 208.733534 396.816 
z
" clip-path="url(#p3a7d8ba1bd)" style="fill: #7f7f7f; opacity: 0.5"/>
   </g>
   <g id="patch_67">
    <path d="M 210.764947 448.56 
L 212.390077 448.56 
L 212.390077 345.072 
L 210.764947 345.072 
z
" clip-path="url(#p3a7d8ba1bd)" style="fill: #7f7f7f; opacity: 0.5"/>
   </g>
   <g id="patch_68">
    <path d="M 212.796359 448.56 
L 214.421489 448.56 
L 214.421489 396.816 
L 212.796359 396.816 
z
" clip-path="url(#p3a7d8ba1bd)" style="fill: #7f7f7f; opacity: 0.5"/>
   </g>
   <g id="patch_69">
    <path d="M 214.827772 448.56 
L 216.452902 448.56 
L 216.452902 215.712 
L 214.827772 215.712 
z
" clip-path="url(#p3a7d8ba1bd)" style="fill: #7f7f7f; opacity: 0.5"/>
   </g>
   <g id="patch_70">
    <path d="M 216.859185 448.56 
L 218.484315 448.56 
L 218.484315 241.584 
L 216.859185 241.584 
z
" clip-path="url(#p3a7d8ba1bd)" style="fill: #7f7f7f; opacity: 0.5"/>
   </g>
   <g id="patch_71">
    <path d="M 218.890597 448.56 
L 220.515727 448.56 
L 220.515727 241.584 
L 218.890597 241.584 
z
" clip-path="url(#p3a7d8ba1bd)" style="fill: #7f7f7f; opacity: 0.5"/>
   </g>
   <g id="patch_72">
    <path d="M 220.92201 448.56 
L 222.54714 448.56 
L 222.54714 267.456 
L 220.92201 267.456 
z
" clip-path="url(#p3a7d8ba1bd)" style="fill: #7f7f7f; opacity: 0.5"/>
   </g>
   <g id="patch_73">
    <path d="M 222.953422 448.56 
L 224.578552 448.56 
L 224.578552 215.712 
L 222.953422 215.712 
z
" clip-path="url(#p3a7d8ba1bd)" style="fill: #7f7f7f; opacity: 0.5"/>
   </g>
   <g id="patch_74">
    <path d="M 224.984835 448.56 
L 226.609965 448.56 
L 226.609965 138.096 
L 224.984835 138.096 
z
" clip-path="url(#p3a7d8ba1bd)" style="fill: #7f7f7f; opacity: 0.5"/>
   </g>
   <g id="patch_75">
    <path d="M 227.016247 448.56 
L 228.641377 448.56 
L 228.641377 138.096 
L 227.016247 138.096 
z
" clip-path="url(#p3a7d8ba1bd)" style="fill: #7f7f7f; opacity: 0.5"/>
   </g>
   <g id="patch_76">
    <path d="M 229.04766 448.56 
L 230.67279 448.56 
L 230.67279 267.456 
L 229.04766 267.456 
z
" clip-path="url(#p3a7d8ba1bd)" style="fill: #7f7f7f; opacity: 0.5"/>
   </g>
   <g id="patch_77">
    <path d="M 231.079072 448.56 
L 232.704202 448.56 
L 232.704202 138.096 
L 231.079072 138.096 
z
" clip-path="url(#p3a7d8ba1bd)" style="fill: #7f7f7f; opacity: 0.5"/>
   </g>
   <g id="patch_78">
    <path d="M 233.110485 448.56 
L 234.735615 448.56 
L 234.735615 396.816 
L 233.110485 396.816 
z
" clip-path="url(#p3a7d8ba1bd)" style="fill: #7f7f7f; opacity: 0.5"/>
   </g>
   <g id="patch_79">
    <path d="M 235.141897 448.56 
L 236.767027 448.56 
L 236.767027 60.48 
L 235.141897 60.48 
z
" clip-path="url(#p3a7d8ba1bd)" style="fill: #7f7f7f; opacity: 0.5"/>
   </g>
   <g id="patch_80">
    <path d="M 237.17331 448.56 
L 238.79844 448.56 
L 238.79844 163.968 
L 237.17331 163.968 
z
" clip-path="url(#p3a7d8ba1bd)" style="fill: #7f7f7f; opacity: 0.5"/>
   </g>
   <g id="patch_81">
    <path d="M 239.204722 448.56 
L 240.829852 448.56 
L 240.829852 319.2 
L 239.204722 319.2 
z
" clip-path="url(#p3a7d8ba1bd)" style="fill: #7f7f7f; opacity: 0.5"/>
   </g>
   <g id="patch_82">
    <path d="M 241.236135 448.56 
L 242.861265 448.56 
L 242.861265 345.072 
L 241.236135 345.072 
z
" clip-path="url(#p3a7d8ba1bd)" style="fill: #7f7f7f; opacity: 0.5"/>
   </g>
   <g id="patch_83">
    <path d="M 243.267547 448.56 
L 244.892677 448.56 
L 244.892677 396.816 
L 243.267547 396.816 
z
" clip-path="url(#p3a7d8ba1bd)" style="fill: #7f7f7f; opacity: 0.5"/>
   </g>
   <g id="patch_84">
    <path d="M 245.29896 448.56 
L 246.92409 448.56 
L 246.92409 345.072 
L 245.29896 345.072 
z
" clip-path="url(#p3a7d8ba1bd)" style="fill: #7f7f7f; opacity: 0.5"/>
   </g>
   <g id="patch_85">
    <path d="M 247.330372 448.56 
L 248.955502 448.56 
L 248.955502 267.456 
L 247.330372 267.456 
z
" clip-path="url(#p3a7d8ba1bd)" style="fill: #7f7f7f; opacity: 0.5"/>
   </g>
   <g id="patch_86">
    <path d="M 249.361785 448.56 
L 250.986915 448.56 
L 250.986915 112.224 
L 249.361785 112.224 
z
" clip-path="url(#p3a7d8ba1bd)" style="fill: #7f7f7f; opacity: 0.5"/>
   </g>
   <g id="patch_87">
    <path d="M 251.393197 448.56 
L 253.018327 448.56 
L 253.018327 293.328 
L 251.393197 293.328 
z
" clip-path="url(#p3a7d8ba1bd)" style="fill: #7f7f7f; opacity: 0.5"/>
   </g>
   <g id="patch_88">
    <path d="M 253.42461 448.56 
L 255.04974 448.56 
L 255.04974 241.584 
L 253.42461 241.584 
z
" clip-path="url(#p3a7d8ba1bd)" style="fill: #7f7f7f; opacity: 0.5"/>
   </g>
   <g id="patch_89">
    <path d="M 255.456022 448.56 
L 257.081152 448.56 
L 257.081152 345.072 
L 255.456022 345.072 
z
" clip-path="url(#p3a7d8ba1bd)" style="fill: #7f7f7f; opacity: 0.5"/>
   </g>
   <g id="patch_90">
    <path d="M 257.487435 448.56 
L 259.112565 448.56 
L 259.112565 319.2 
L 257.487435 319.2 
z
" clip-path="url(#p3a7d8ba1bd)" style="fill: #7f7f7f; opacity: 0.5"/>
   </g>
   <g id="patch_91">
    <path d="M 259.518848 448.56 
L 261.143978 448.56 
L 261.143978 370.944 
L 259.518848 370.944 
z
" clip-path="url(#p3a7d8ba1bd)" style="fill: #7f7f7f; opacity: 0.5"/>
   </g>
   <g id="patch_92">
    <path d="M 261.55026 448.56 
L 263.17539 448.56 
L 263.17539 396.816 
L 261.55026 396.816 
z
" clip-path="url(#p3a7d8ba1bd)" style="fill: #7f7f7f; opacity: 0.5"/>
   </g>
   <g id="patch_93">
    <path d="M 263.581673 448.56 
L 265.206803 448.56 
L 265.206803 396.816 
L 263.581673 396.816 
z
" clip-path="url(#p3a7d8ba1bd)" style="fill: #7f7f7f; opacity: 0.5"/>
   </g>
   <g id="patch_94">
    <path d="M 265.613085 448.56 
L 267.238215 448.56 
L 267.238215 448.56 
L 265.613085 448.56 
z
" clip-path="url(#p3a7d8ba1bd)" style="fill: #7f7f7f; opacity: 0.5"/>
   </g>
   <g id="patch_95">
    <path d="M 267.644498 448.56 
L 269.269628 448.56 
L 269.269628 422.688 
L 267.644498 422.688 
z
" clip-path="url(#p3a7d8ba1bd)" style="fill: #7f7f7f; opacity: 0.5"/>
   </g>
   <g id="patch_96">
    <path d="M 269.67591 448.56 
L 271.30104 448.56 
L 271.30104 396.816 
L 269.67591 396.816 
z
" clip-path="url(#p3a7d8ba1bd)" style="fill: #7f7f7f; opacity: 0.5"/>
   </g>
   <g id="patch_97">
    <path d="M 271.707323 448.56 
L 273.332453 448.56 
L 273.332453 370.944 
L 271.707323 370.944 
z
" clip-path="url(#p3a7d8ba1bd)" style="fill: #7f7f7f; opacity: 0.5"/>
   </g>
   <g id="patch_98">
    <path d="M 273.738735 448.56 
L 275.363865 448.56 
L 275.363865 422.688 
L 273.738735 422.688 
z
" clip-path="url(#p3a7d8ba1bd)" style="fill: #7f7f7f; opacity: 0.5"/>
   </g>
   <g id="patch_99">
    <path d="M 275.770148 448.56 
L 277.395278 448.56 
L 277.395278 370.944 
L 275.770148 370.944 
z
" clip-path="url(#p3a7d8ba1bd)" style="fill: #7f7f7f; opacity: 0.5"/>
   </g>
   <g id="patch_100">
    <path d="M 277.80156 448.56 
L 279.42669 448.56 
L 279.42669 396.816 
L 277.80156 396.816 
z
" clip-path="url(#p3a7d8ba1bd)" style="fill: #7f7f7f; opacity: 0.5"/>
   </g>
   <g id="patch_101">
    <path d="M 279.832973 448.56 
L 281.458103 448.56 
L 281.458103 448.56 
L 279.832973 448.56 
z
" clip-path="url(#p3a7d8ba1bd)" style="fill: #7f7f7f; opacity: 0.5"/>
   </g>
   <g id="patch_102">
    <path d="M 281.864385 448.56 
L 283.489515 448.56 
L 283.489515 448.56 
L 281.864385 448.56 
z
" clip-path="url(#p3a7d8ba1bd)" style="fill: #7f7f7f; opacity: 0.5"/>
   </g>
   <g id="patch_103">
    <path d="M 283.895798 448.56 
L 285.520928 448.56 
L 285.520928 422.688 
L 283.895798 422.688 
z
" clip-path="url(#p3a7d8ba1bd)" style="fill: #7f7f7f; opacity: 0.5"/>
   </g>
   <g id="patch_104">
    <path d="M 285.92721 448.56 
L 287.55234 448.56 
L 287.55234 396.816 
L 285.92721 396.816 
z
" clip-path="url(#p3a7d8ba1bd)" style="fill: #7f7f7f; opacity: 0.5"/>
   </g>
   <g id="patch_105">
    <path d="M 287.958623 448.56 
L 289.583753 448.56 
L 289.583753 422.688 
L 287.958623 422.688 
z
" clip-path="url(#p3a7d8ba1bd)" style="fill: #7f7f7f; opacity: 0.5"/>
   </g>
   <g id="patch_106">
    <path d="M 289.990035 448.56 
L 291.615165 448.56 
L 291.615165 448.56 
L 289.990035 448.56 
z
" clip-path="url(#p3a7d8ba1bd)" style="fill: #7f7f7f; opacity: 0.5"/>
   </g>
   <g id="patch_107">
    <path d="M 292.021448 448.56 
L 293.646578 448.56 
L 293.646578 422.688 
L 292.021448 422.688 
z
" clip-path="url(#p3a7d8ba1bd)" style="fill: #7f7f7f; opacity: 0.5"/>
   </g>
   <g id="patch_108">
    <path d="M 294.05286 448.56 
L 295.67799 448.56 
L 295.67799 448.56 
L 294.05286 448.56 
z
" clip-path="url(#p3a7d8ba1bd)" style="fill: #7f7f7f; opacity: 0.5"/>
   </g>
   <g id="patch_109">
    <path d="M 296.084273 448.56 
L 297.709403 448.56 
L 297.709403 422.688 
L 296.084273 422.688 
z
" clip-path="url(#p3a7d8ba1bd)" style="fill: #7f7f7f; opacity: 0.5"/>
   </g>
   <g id="patch_110">
    <path d="M 298.115685 448.56 
L 299.740815 448.56 
L 299.740815 448.56 
L 298.115685 448.56 
z
" clip-path="url(#p3a7d8ba1bd)" style="fill: #7f7f7f; opacity: 0.5"/>
   </g>
   <g id="patch_111">
    <path d="M 300.147098 448.56 
L 301.772228 448.56 
L 301.772228 448.56 
L 300.147098 448.56 
z
" clip-path="url(#p3a7d8ba1bd)" style="fill: #7f7f7f; opacity: 0.5"/>
   </g>
   <g id="patch_112">
    <path d="M 302.178511 448.56 
L 303.803641 448.56 
L 303.803641 448.56 
L 302.178511 448.56 
z
" clip-path="url(#p3a7d8ba1bd)" style="fill: #7f7f7f; opacity: 0.5"/>
   </g>
   <g id="patch_113">
    <path d="M 304.209923 448.56 
L 305.835053 448.56 
L 305.835053 422.688 
L 304.209923 422.688 
z
" clip-path="url(#p3a7d8ba1bd)" style="fill: #7f7f7f; opacity: 0.5"/>
   </g>
   <g id="patch_114">
    <path d="M 306.241336 448.56 
L 307.866466 448.56 
L 307.866466 422.688 
L 306.241336 422.688 
z
" clip-path="url(#p3a7d8ba1bd)" style="fill: #7f7f7f; opacity: 0.5"/>
   </g>
   <g id="patch_115">
    <path d="M 308.272748 448.56 
L 309.897878 448.56 
L 309.897878 448.56 
L 308.272748 448.56 
z
" clip-path="url(#p3a7d8ba1bd)" style="fill: #7f7f7f; opacity: 0.5"/>
   </g>
   <g id="patch_116">
    <path d="M 310.304161 448.56 
L 311.929291 448.56 
L 311.929291 448.56 
L 310.304161 448.56 
z
" clip-path="url(#p3a7d8ba1bd)" style="fill: #7f7f7f; opacity: 0.5"/>
   </g>
   <g id="patch_117">
    <path d="M 312.335573 448.56 
L 313.960703 448.56 
L 313.960703 448.56 
L 312.335573 448.56 
z
" clip-path="url(#p3a7d8ba1bd)" style="fill: #7f7f7f; opacity: 0.5"/>
   </g>
   <g id="patch_118">
    <path d="M 314.366986 448.56 
L 315.992116 448.56 
L 315.992116 422.688 
L 314.366986 422.688 
z
" clip-path="url(#p3a7d8ba1bd)" style="fill: #7f7f7f; opacity: 0.5"/>
   </g>
   <g id="patch_119">
    <path d="M 316.398398 448.56 
L 318.023528 448.56 
L 318.023528 448.56 
L 316.398398 448.56 
z
" clip-path="url(#p3a7d8ba1bd)" style="fill: #7f7f7f; opacity: 0.5"/>
   </g>
   <g id="patch_120">
    <path d="M 318.429811 448.56 
L 320.054941 448.56 
L 320.054941 448.56 
L 318.429811 448.56 
z
" clip-path="url(#p3a7d8ba1bd)" style="fill: #7f7f7f; opacity: 0.5"/>
   </g>
   <g id="patch_121">
    <path d="M 320.461223 448.56 
L 322.086353 448.56 
L 322.086353 448.56 
L 320.461223 448.56 
z
" clip-path="url(#p3a7d8ba1bd)" style="fill: #7f7f7f; opacity: 0.5"/>
   </g>
   <g id="patch_122">
    <path d="M 322.492636 448.56 
L 324.117766 448.56 
L 324.117766 448.56 
L 322.492636 448.56 
z
" clip-path="url(#p3a7d8ba1bd)" style="fill: #7f7f7f; opacity: 0.5"/>
   </g>
   <g id="patch_123">
    <path d="M 324.524048 448.56 
L 326.149178 448.56 
L 326.149178 448.56 
L 324.524048 448.56 
z
" clip-path="url(#p3a7d8ba1bd)" style="fill: #7f7f7f; opacity: 0.5"/>
   </g>
   <g id="patch_124">
    <path d="M 326.555461 448.56 
L 328.180591 448.56 
L 328.180591 448.56 
L 326.555461 448.56 
z
" clip-path="url(#p3a7d8ba1bd)" style="fill: #7f7f7f; opacity: 0.5"/>
   </g>
   <g id="patch_125">
    <path d="M 328.586873 448.56 
L 330.212003 448.56 
L 330.212003 448.56 
L 328.586873 448.56 
z
" clip-path="url(#p3a7d8ba1bd)" style="fill: #7f7f7f; opacity: 0.5"/>
   </g>
   <g id="patch_126">
    <path d="M 330.618286 448.56 
L 332.243416 448.56 
L 332.243416 448.56 
L 330.618286 448.56 
z
" clip-path="url(#p3a7d8ba1bd)" style="fill: #7f7f7f; opacity: 0.5"/>
   </g>
   <g id="patch_127">
    <path d="M 332.649698 448.56 
L 334.274828 448.56 
L 334.274828 448.56 
L 332.649698 448.56 
z
" clip-path="url(#p3a7d8ba1bd)" style="fill: #7f7f7f; opacity: 0.5"/>
   </g>
   <g id="patch_128">
    <path d="M 334.681111 448.56 
L 336.306241 448.56 
L 336.306241 422.688 
L 334.681111 422.688 
z
" clip-path="url(#p3a7d8ba1bd)" style="fill: #7f7f7f; opacity: 0.5"/>
   </g>
   <g id="patch_129">
    <path d="M 336.712523 448.56 
L 338.337653 448.56 
L 338.337653 448.56 
L 336.712523 448.56 
z
" clip-path="url(#p3a7d8ba1bd)" style="fill: #7f7f7f; opacity: 0.5"/>
   </g>
   <g id="patch_130">
    <path d="M 338.743936 448.56 
L 340.369066 448.56 
L 340.369066 448.56 
L 338.743936 448.56 
z
" clip-path="url(#p3a7d8ba1bd)" style="fill: #7f7f7f; opacity: 0.5"/>
   </g>
   <g id="patch_131">
    <path d="M 340.775348 448.56 
L 342.400478 448.56 
L 342.400478 448.56 
L 340.775348 448.56 
z
" clip-path="url(#p3a7d8ba1bd)" style="fill: #7f7f7f; opacity: 0.5"/>
   </g>
   <g id="patch_132">
    <path d="M 342.806761 448.56 
L 344.431891 448.56 
L 344.431891 448.56 
L 342.806761 448.56 
z
" clip-path="url(#p3a7d8ba1bd)" style="fill: #7f7f7f; opacity: 0.5"/>
   </g>
   <g id="patch_133">
    <path d="M 344.838173 448.56 
L 346.463304 448.56 
L 346.463304 448.56 
L 344.838173 448.56 
z
" clip-path="url(#p3a7d8ba1bd)" style="fill: #7f7f7f; opacity: 0.5"/>
   </g>
   <g id="patch_134">
    <path d="M 346.869586 448.56 
L 348.494716 448.56 
L 348.494716 448.56 
L 346.869586 448.56 
z
" clip-path="url(#p3a7d8ba1bd)" style="fill: #7f7f7f; opacity: 0.5"/>
   </g>
   <g id="patch_135">
    <path d="M 348.900999 448.56 
L 350.526129 448.56 
L 350.526129 422.688 
L 348.900999 422.688 
z
" clip-path="url(#p3a7d8ba1bd)" style="fill: #7f7f7f; opacity: 0.5"/>
   </g>
   <g id="patch_136">
    <path d="M 350.932411 448.56 
L 352.557541 448.56 
L 352.557541 448.56 
L 350.932411 448.56 
z
" clip-path="url(#p3a7d8ba1bd)" style="fill: #7f7f7f; opacity: 0.5"/>
   </g>
   <g id="patch_137">
    <path d="M 352.963824 448.56 
L 354.588954 448.56 
L 354.588954 448.56 
L 352.963824 448.56 
z
" clip-path="url(#p3a7d8ba1bd)" style="fill: #7f7f7f; opacity: 0.5"/>
   </g>
   <g id="patch_138">
    <path d="M 354.995236 448.56 
L 356.620366 448.56 
L 356.620366 448.56 
L 354.995236 448.56 
z
" clip-path="url(#p3a7d8ba1bd)" style="fill: #7f7f7f; opacity: 0.5"/>
   </g>
   <g id="patch_139">
    <path d="M 357.026649 448.56 
L 358.651779 448.56 
L 358.651779 448.56 
L 357.026649 448.56 
z
" clip-path="url(#p3a7d8ba1bd)" style="fill: #7f7f7f; opacity: 0.5"/>
   </g>
   <g id="patch_140">
    <path d="M 359.058061 448.56 
L 360.683191 448.56 
L 360.683191 448.56 
L 359.058061 448.56 
z
" clip-path="url(#p3a7d8ba1bd)" style="fill: #7f7f7f; opacity: 0.5"/>
   </g>
   <g id="patch_141">
    <path d="M 361.089474 448.56 
L 362.714604 448.56 
L 362.714604 448.56 
L 361.089474 448.56 
z
" clip-path="url(#p3a7d8ba1bd)" style="fill: #7f7f7f; opacity: 0.5"/>
   </g>
   <g id="patch_142">
    <path d="M 363.120886 448.56 
L 364.746016 448.56 
L 364.746016 448.56 
L 363.120886 448.56 
z
" clip-path="url(#p3a7d8ba1bd)" style="fill: #7f7f7f; opacity: 0.5"/>
   </g>
   <g id="patch_143">
    <path d="M 365.152299 448.56 
L 366.777429 448.56 
L 366.777429 448.56 
L 365.152299 448.56 
z
" clip-path="url(#p3a7d8ba1bd)" style="fill: #7f7f7f; opacity: 0.5"/>
   </g>
   <g id="patch_144">
    <path d="M 367.183711 448.56 
L 368.808841 448.56 
L 368.808841 448.56 
L 367.183711 448.56 
z
" clip-path="url(#p3a7d8ba1bd)" style="fill: #7f7f7f; opacity: 0.5"/>
   </g>
   <g id="patch_145">
    <path d="M 369.215124 448.56 
L 370.840254 448.56 
L 370.840254 448.56 
L 369.215124 448.56 
z
" clip-path="url(#p3a7d8ba1bd)" style="fill: #7f7f7f; opacity: 0.5"/>
   </g>
   <g id="patch_146">
    <path d="M 371.246536 448.56 
L 372.871666 448.56 
L 372.871666 448.56 
L 371.246536 448.56 
z
" clip-path="url(#p3a7d8ba1bd)" style="fill: #7f7f7f; opacity: 0.5"/>
   </g>
   <g id="patch_147">
    <path d="M 373.277949 448.56 
L 374.903079 448.56 
L 374.903079 448.56 
L 373.277949 448.56 
z
" clip-path="url(#p3a7d8ba1bd)" style="fill: #7f7f7f; opacity: 0.5"/>
   </g>
   <g id="patch_148">
    <path d="M 375.309361 448.56 
L 376.934491 448.56 
L 376.934491 448.56 
L 375.309361 448.56 
z
" clip-path="url(#p3a7d8ba1bd)" style="fill: #7f7f7f; opacity: 0.5"/>
   </g>
   <g id="patch_149">
    <path d="M 377.340774 448.56 
L 378.965904 448.56 
L 378.965904 448.56 
L 377.340774 448.56 
z
" clip-path="url(#p3a7d8ba1bd)" style="fill: #7f7f7f; opacity: 0.5"/>
   </g>
   <g id="patch_150">
    <path d="M 379.372186 448.56 
L 380.997316 448.56 
L 380.997316 448.56 
L 379.372186 448.56 
z
" clip-path="url(#p3a7d8ba1bd)" style="fill: #7f7f7f; opacity: 0.5"/>
   </g>
   <g id="patch_151">
    <path d="M 381.403599 448.56 
L 383.028729 448.56 
L 383.028729 448.56 
L 381.403599 448.56 
z
" clip-path="url(#p3a7d8ba1bd)" style="fill: #7f7f7f; opacity: 0.5"/>
   </g>
   <g id="patch_152">
    <path d="M 383.435011 448.56 
L 385.060141 448.56 
L 385.060141 448.56 
L 383.435011 448.56 
z
" clip-path="url(#p3a7d8ba1bd)" style="fill: #7f7f7f; opacity: 0.5"/>
   </g>
   <g id="patch_153">
    <path d="M 385.466424 448.56 
L 387.091554 448.56 
L 387.091554 448.56 
L 385.466424 448.56 
z
" clip-path="url(#p3a7d8ba1bd)" style="fill: #7f7f7f; opacity: 0.5"/>
   </g>
   <g id="patch_154">
    <path d="M 387.497836 448.56 
L 389.122967 448.56 
L 389.122967 448.56 
L 387.497836 448.56 
z
" clip-path="url(#p3a7d8ba1bd)" style="fill: #7f7f7f; opacity: 0.5"/>
   </g>
   <g id="patch_155">
    <path d="M 389.529249 448.56 
L 391.154379 448.56 
L 391.154379 448.56 
L 389.529249 448.56 
z
" clip-path="url(#p3a7d8ba1bd)" style="fill: #7f7f7f; opacity: 0.5"/>
   </g>
   <g id="patch_156">
    <path d="M 391.560662 448.56 
L 393.185792 448.56 
L 393.185792 448.56 
L 391.560662 448.56 
z
" clip-path="url(#p3a7d8ba1bd)" style="fill: #7f7f7f; opacity: 0.5"/>
   </g>
   <g id="patch_157">
    <path d="M 393.592074 448.56 
L 395.217204 448.56 
L 395.217204 448.56 
L 393.592074 448.56 
z
" clip-path="url(#p3a7d8ba1bd)" style="fill: #7f7f7f; opacity: 0.5"/>
   </g>
   <g id="patch_158">
    <path d="M 395.623487 448.56 
L 397.248617 448.56 
L 397.248617 448.56 
L 395.623487 448.56 
z
" clip-path="url(#p3a7d8ba1bd)" style="fill: #7f7f7f; opacity: 0.5"/>
   </g>
   <g id="patch_159">
    <path d="M 397.654899 448.56 
L 399.280029 448.56 
L 399.280029 448.56 
L 397.654899 448.56 
z
" clip-path="url(#p3a7d8ba1bd)" style="fill: #7f7f7f; opacity: 0.5"/>
   </g>
   <g id="patch_160">
    <path d="M 399.686312 448.56 
L 401.311442 448.56 
L 401.311442 448.56 
L 399.686312 448.56 
z
" clip-path="url(#p3a7d8ba1bd)" style="fill: #7f7f7f; opacity: 0.5"/>
   </g>
   <g id="patch_161">
    <path d="M 401.717724 448.56 
L 403.342854 448.56 
L 403.342854 448.56 
L 401.717724 448.56 
z
" clip-path="url(#p3a7d8ba1bd)" style="fill: #7f7f7f; opacity: 0.5"/>
   </g>
   <g id="patch_162">
    <path d="M 403.749137 448.56 
L 405.374267 448.56 
L 405.374267 448.56 
L 403.749137 448.56 
z
" clip-path="url(#p3a7d8ba1bd)" style="fill: #7f7f7f; opacity: 0.5"/>
   </g>
   <g id="patch_163">
    <path d="M 405.780549 448.56 
L 407.405679 448.56 
L 407.405679 448.56 
L 405.780549 448.56 
z
" clip-path="url(#p3a7d8ba1bd)" style="fill: #7f7f7f; opacity: 0.5"/>
   </g>
   <g id="patch_164">
    <path d="M 407.811962 448.56 
L 409.437092 448.56 
L 409.437092 448.56 
L 407.811962 448.56 
z
" clip-path="url(#p3a7d8ba1bd)" style="fill: #7f7f7f; opacity: 0.5"/>
   </g>
   <g id="patch_165">
    <path d="M 409.843374 448.56 
L 411.468504 448.56 
L 411.468504 448.56 
L 409.843374 448.56 
z
" clip-path="url(#p3a7d8ba1bd)" style="fill: #7f7f7f; opacity: 0.5"/>
   </g>
   <g id="patch_166">
    <path d="M 411.874787 448.56 
L 413.499917 448.56 
L 413.499917 448.56 
L 411.874787 448.56 
z
" clip-path="url(#p3a7d8ba1bd)" style="fill: #7f7f7f; opacity: 0.5"/>
   </g>
   <g id="patch_167">
    <path d="M 413.906199 448.56 
L 415.531329 448.56 
L 415.531329 448.56 
L 413.906199 448.56 
z
" clip-path="url(#p3a7d8ba1bd)" style="fill: #7f7f7f; opacity: 0.5"/>
   </g>
   <g id="patch_168">
    <path d="M 415.937612 448.56 
L 417.562742 448.56 
L 417.562742 448.56 
L 415.937612 448.56 
z
" clip-path="url(#p3a7d8ba1bd)" style="fill: #7f7f7f; opacity: 0.5"/>
   </g>
   <g id="patch_169">
    <path d="M 417.969024 448.56 
L 419.594154 448.56 
L 419.594154 448.56 
L 417.969024 448.56 
z
" clip-path="url(#p3a7d8ba1bd)" style="fill: #7f7f7f; opacity: 0.5"/>
   </g>
   <g id="patch_170">
    <path d="M 420.000437 448.56 
L 421.625567 448.56 
L 421.625567 448.56 
L 420.000437 448.56 
z
" clip-path="url(#p3a7d8ba1bd)" style="fill: #7f7f7f; opacity: 0.5"/>
   </g>
   <g id="patch_171">
    <path d="M 422.031849 448.56 
L 423.656979 448.56 
L 423.656979 448.56 
L 422.031849 448.56 
z
" clip-path="url(#p3a7d8ba1bd)" style="fill: #7f7f7f; opacity: 0.5"/>
   </g>
   <g id="patch_172">
    <path d="M 424.063262 448.56 
L 425.688392 448.56 
L 425.688392 448.56 
L 424.063262 448.56 
z
" clip-path="url(#p3a7d8ba1bd)" style="fill: #7f7f7f; opacity: 0.5"/>
   </g>
   <g id="patch_173">
    <path d="M 426.094674 448.56 
L 427.719804 448.56 
L 427.719804 448.56 
L 426.094674 448.56 
z
" clip-path="url(#p3a7d8ba1bd)" style="fill: #7f7f7f; opacity: 0.5"/>
   </g>
   <g id="patch_174">
    <path d="M 428.126087 448.56 
L 429.751217 448.56 
L 429.751217 448.56 
L 428.126087 448.56 
z
" clip-path="url(#p3a7d8ba1bd)" style="fill: #7f7f7f; opacity: 0.5"/>
   </g>
   <g id="patch_175">
    <path d="M 430.157499 448.56 
L 431.782629 448.56 
L 431.782629 448.56 
L 430.157499 448.56 
z
" clip-path="url(#p3a7d8ba1bd)" style="fill: #7f7f7f; opacity: 0.5"/>
   </g>
   <g id="patch_176">
    <path d="M 432.188912 448.56 
L 433.814042 448.56 
L 433.814042 448.56 
L 432.188912 448.56 
z
" clip-path="url(#p3a7d8ba1bd)" style="fill: #7f7f7f; opacity: 0.5"/>
   </g>
   <g id="patch_177">
    <path d="M 434.220325 448.56 
L 435.845455 448.56 
L 435.845455 448.56 
L 434.220325 448.56 
z
" clip-path="url(#p3a7d8ba1bd)" style="fill: #7f7f7f; opacity: 0.5"/>
   </g>
   <g id="patch_178">
    <path d="M 453.6 448.56 
L 453.6 60.48 
" style="fill: none; stroke: #7f7f7f; stroke-width: 0.8; stroke-linejoin: miter; stroke-linecap: square"/>
   </g>
  </g>
  <g id="axes_2">
   <g id="FillBetweenPolyCollection_1">
    <defs>
     <path id="md652e2b45e" d="M 81.56711 -415.072952 
L 81.56711 -92.848052 
L 83.598523 -94.541177 
L 85.629936 -96.569656 
L 87.661348 -94.76685 
L 89.692761 -92.171851 
L 91.724173 -90.834794 
L 93.755586 -88.979094 
L 95.786998 -88.565721 
L 97.818411 -87.260773 
L 99.849823 -86.79139 
L 101.881236 -85.330668 
L 103.912648 -84.478321 
L 105.944061 -84.197622 
L 107.975473 -83.947746 
L 110.006886 -84.859688 
L 112.038298 -85.207372 
L 114.069711 -86.516288 
L 116.101123 -88.588351 
L 118.132536 -90.223026 
L 120.163948 -92.27343 
L 122.195361 -95.444798 
L 124.226773 -97.254224 
L 126.258186 -100.579424 
L 128.289599 -103.041559 
L 130.321011 -106.138453 
L 132.352424 -107.020878 
L 134.383836 -108.968513 
L 136.415249 -111.542198 
L 138.446661 -114.916069 
L 140.478074 -115.780581 
L 142.509486 -116.98904 
L 144.540899 -119.22583 
L 146.572311 -119.3561 
L 148.603724 -118.888923 
L 150.635136 -120.378542 
L 152.666549 -121.418099 
L 154.697961 -123.971344 
L 156.729374 -130.30305 
L 158.760786 -131.91942 
L 160.792199 -129.779945 
L 162.823611 -129.750039 
L 164.855024 -130.150251 
L 166.886436 -130.823079 
L 168.917849 -135.101836 
L 170.949261 -133.599217 
L 172.980674 -136.192549 
L 175.012087 -141.831838 
L 177.043499 -152.483555 
L 179.074912 -157.722103 
L 181.106324 -160.560966 
L 183.137737 -167.060428 
L 185.169149 -178.204632 
L 187.200562 -187.989123 
L 189.231974 -198.343297 
L 191.263387 -192.322309 
L 193.294799 -187.16333 
L 195.326212 -169.571573 
L 197.357624 -156.344632 
L 199.389037 -143.184194 
L 201.420449 -131.789168 
L 203.451862 -117.179029 
L 205.483274 -109.375928 
L 207.514687 -109.15156 
L 209.546099 -104.799978 
L 211.577512 -104.520022 
L 213.608924 -106.252838 
L 215.640337 -116.012081 
L 217.67175 -121.980226 
L 219.703162 -126.095032 
L 221.734575 -130.424788 
L 223.765987 -137.878376 
L 225.7974 -146.184449 
L 227.828812 -143.572311 
L 229.860225 -136.463412 
L 231.891637 -133.5731 
L 233.92305 -122.36542 
L 235.954462 -123.851212 
L 237.985875 -115.224909 
L 240.017287 -100.548012 
L 242.0487 -92.296435 
L 244.080112 -87.799811 
L 246.111525 -87.503985 
L 248.142937 -90.541323 
L 250.17435 -92.868955 
L 252.205762 -88.512083 
L 254.237175 -85.204198 
L 256.268587 -79.709847 
L 258.3 -76.175155 
L 260.331413 -72.813327 
L 262.362825 -70.481668 
L 264.394238 -68.310542 
L 266.42565 -67.181633 
L 268.457063 -66.552286 
L 270.488475 -66.448583 
L 272.519888 -66.376348 
L 274.5513 -65.914575 
L 276.582713 -65.682056 
L 278.614125 -64.908222 
L 280.645538 -64.176891 
L 282.67695 -63.559083 
L 284.708363 -63.444959 
L 286.739775 -63.227962 
L 288.771188 -62.592253 
L 290.8026 -61.934842 
L 292.834013 -61.570849 
L 294.865425 -61.132061 
L 296.896838 -60.817843 
L 298.92825 -60.278889 
L 300.959663 -59.904858 
L 302.991076 -59.690063 
L 305.022488 -59.532865 
L 307.053901 -59.107912 
L 309.085313 -58.743051 
L 311.116726 -58.435524 
L 313.148138 -58.257107 
L 315.179551 -58.044294 
L 317.210963 -57.74371 
L 319.242376 -57.174636 
L 321.273788 -56.991056 
L 323.305201 -56.917141 
L 325.336613 -56.784434 
L 327.368026 -56.79809 
L 329.399438 -56.755939 
L 331.430851 -57.031208 
L 333.462263 -57.084738 
L 335.493676 -57.250554 
L 337.525088 -57.242744 
L 339.556501 -57.025802 
L 341.587913 -57.011147 
L 343.619326 -56.875284 
L 345.650739 -56.739338 
L 347.682151 -56.890258 
L 349.713564 -56.883702 
L 351.744976 -56.500632 
L 353.776389 -56.11359 
L 355.807801 -55.663417 
L 357.839214 -55.451163 
L 359.870626 -55.440223 
L 361.902039 -55.440008 
L 363.933451 -55.440003 
L 365.964864 -55.440002 
L 367.996276 -55.440001 
L 370.027689 -55.440001 
L 372.059101 -55.440001 
L 374.090514 -55.440001 
L 376.121926 -55.440001 
L 378.153339 -55.440001 
L 380.184751 -55.440001 
L 382.216164 -55.440001 
L 384.247576 -55.440001 
L 386.278989 -55.440001 
L 388.310401 -55.440001 
L 390.341814 -55.44 
L 392.373227 -55.44 
L 394.404639 -55.44 
L 396.436052 -55.44 
L 398.467464 -55.44 
L 400.498877 -55.44 
L 402.530289 -55.44 
L 404.561702 -55.44 
L 406.593114 -55.44 
L 408.624527 -55.44 
L 410.655939 -55.44 
L 412.687352 -55.44 
L 414.718764 -55.44 
L 416.750177 -55.44 
L 418.781589 -55.44 
L 420.813002 -55.44 
L 422.844414 -55.44 
L 424.875827 -55.44 
L 426.907239 -55.44 
L 428.938652 -55.44 
L 430.970064 -55.44 
L 433.001477 -55.44 
L 435.03289 -55.44 
L 435.03289 -74.201576 
L 435.03289 -74.201576 
L 433.001477 -74.328816 
L 430.970064 -74.595391 
L 428.938652 -75.325703 
L 426.907239 -75.235066 
L 424.875827 -75.428778 
L 422.844414 -76.083162 
L 420.813002 -77.202773 
L 418.781589 -77.701504 
L 416.750177 -78.596301 
L 414.718764 -77.622148 
L 412.687352 -77.676252 
L 410.655939 -79.416421 
L 408.624527 -78.812896 
L 406.593114 -78.915631 
L 404.561702 -78.512997 
L 402.530289 -79.481343 
L 400.498877 -78.737929 
L 398.467464 -79.454669 
L 396.436052 -79.378047 
L 394.404639 -79.545119 
L 392.373227 -80.229363 
L 390.341814 -80.929053 
L 388.310401 -80.061917 
L 386.278989 -80.134073 
L 384.247576 -80.501361 
L 382.216164 -79.713381 
L 380.184751 -80.510928 
L 378.153339 -80.52234 
L 376.121926 -80.729918 
L 374.090514 -81.319397 
L 372.059101 -81.475755 
L 370.027689 -83.004033 
L 367.996276 -83.278361 
L 365.964864 -84.348402 
L 363.933451 -84.095371 
L 361.902039 -85.843866 
L 359.870626 -86.138003 
L 357.839214 -87.748508 
L 355.807801 -89.357368 
L 353.776389 -90.873125 
L 351.744976 -92.358202 
L 349.713564 -91.410854 
L 347.682151 -90.821367 
L 345.650739 -89.004714 
L 343.619326 -90.053427 
L 341.587913 -89.628142 
L 339.556501 -89.334679 
L 337.525088 -86.502322 
L 335.493676 -87.281728 
L 333.462263 -84.827246 
L 331.430851 -83.2199 
L 329.399438 -83.098009 
L 327.368026 -82.023741 
L 325.336613 -80.954008 
L 323.305201 -80.6314 
L 321.273788 -80.623969 
L 319.242376 -79.256861 
L 317.210963 -79.615233 
L 315.179551 -80.352823 
L 313.148138 -79.770786 
L 311.116726 -79.349822 
L 309.085313 -78.868529 
L 307.053901 -79.885972 
L 305.022488 -79.558606 
L 302.991076 -79.142805 
L 300.959663 -78.890957 
L 298.92825 -78.648414 
L 296.896838 -78.924698 
L 294.865425 -79.503695 
L 292.834013 -80.018139 
L 290.8026 -80.828214 
L 288.771188 -81.425355 
L 286.739775 -82.033231 
L 284.708363 -81.113789 
L 282.67695 -81.232924 
L 280.645538 -82.215691 
L 278.614125 -83.236081 
L 276.582713 -84.443171 
L 274.5513 -83.975903 
L 272.519888 -85.034917 
L 270.488475 -85.108697 
L 268.457063 -84.510654 
L 266.42565 -85.060407 
L 264.394238 -88.339458 
L 262.362825 -92.189185 
L 260.331413 -97.26858 
L 258.3 -103.498256 
L 256.268587 -110.061378 
L 254.237175 -118.328623 
L 252.205762 -124.62141 
L 250.17435 -132.869249 
L 248.142937 -128.335891 
L 246.111525 -123.941575 
L 244.080112 -123.242487 
L 242.0487 -131.993467 
L 240.017287 -148.437632 
L 237.985875 -172.777946 
L 235.954462 -195.281549 
L 233.92305 -186.774628 
L 231.891637 -207.814593 
L 229.860225 -214.205824 
L 227.828812 -230.932893 
L 225.7974 -230.651 
L 223.765987 -218.407495 
L 221.734575 -203.574881 
L 219.703162 -195.587162 
L 217.67175 -191.234349 
L 215.640337 -183.797828 
L 213.608924 -165.072772 
L 211.577512 -160.345885 
L 209.546099 -165.770915 
L 207.514687 -177.004993 
L 205.483274 -178.297532 
L 203.451862 -193.020772 
L 201.420449 -225.0695 
L 199.389037 -247.693034 
L 197.357624 -270.830469 
L 195.326212 -309.878031 
L 193.294799 -351.717467 
L 191.263387 -364.60646 
L 189.231974 -374.430303 
L 187.200562 -359.066963 
L 185.169149 -337.603639 
L 183.137737 -321.313413 
L 181.106324 -319.289102 
L 179.074912 -311.409191 
L 177.043499 -305.028317 
L 175.012087 -290.406482 
L 172.980674 -278.122629 
L 170.949261 -273.424443 
L 168.917849 -288.444686 
L 166.886436 -289.078964 
L 164.855024 -283.264512 
L 162.823611 -287.550608 
L 160.792199 -291.559343 
L 158.760786 -297.571729 
L 156.729374 -296.825172 
L 154.697961 -289.946924 
L 152.666549 -285.136978 
L 150.635136 -283.707531 
L 148.603724 -284.741233 
L 146.572311 -296.240539 
L 144.540899 -303.410826 
L 142.509486 -302.740707 
L 140.478074 -307.851375 
L 138.446661 -307.975907 
L 136.415249 -310.379619 
L 134.383836 -304.704349 
L 132.352424 -292.910322 
L 130.321011 -282.746324 
L 128.289599 -265.73263 
L 126.258186 -249.992598 
L 124.226773 -235.872605 
L 122.195361 -222.584738 
L 120.163948 -210.824131 
L 118.132536 -198.11624 
L 116.101123 -190.290607 
L 114.069711 -186.249003 
L 112.038298 -180.709086 
L 110.006886 -177.212985 
L 107.975473 -179.008516 
L 105.944061 -180.615909 
L 103.912648 -187.566343 
L 101.881236 -200.04847 
L 99.849823 -211.101873 
L 97.818411 -229.092865 
L 95.786998 -249.55963 
L 93.755586 -276.356217 
L 91.724173 -305.160683 
L 89.692761 -329.616367 
L 87.661348 -364.161279 
L 85.629936 -400.651978 
L 83.598523 -423.337799 
L 81.56711 -415.072952 
z
" style="stroke: #0173b2; stroke-opacity: 0.3"/>
    </defs>
    <g clip-path="url(#p3a7d8ba1bd)">
     <use xlink:href="#md652e2b45e" x="0" y="504" style="fill: #0173b2; fill-opacity: 0.3; stroke: #0173b2; stroke-opacity: 0.3"/>
    </g>
   </g>
   <g id="FillBetweenPolyCollection_2">
    <defs>
     <path id="m9c50f2885c" d="M 105.944061 -157.796692 
L 105.944061 -60.058063 
L 107.975473 -59.507617 
L 110.006886 -59.178261 
L 112.038298 -59.016564 
L 114.069711 -55.852724 
L 116.101123 -55.862654 
L 118.132536 -55.884289 
L 120.163948 -59.539238 
L 122.195361 -59.90765 
L 124.226773 -60.365587 
L 126.258186 -69.117428 
L 128.289599 -70.720389 
L 130.321011 -85.2566 
L 132.352424 -88.551703 
L 134.383836 -91.659192 
L 136.415249 -94.073354 
L 138.446661 -114.487651 
L 140.478074 -113.994071 
L 142.509486 -111.435415 
L 144.540899 -107.516376 
L 146.572311 -119.816981 
L 148.603724 -98.600609 
L 150.635136 -108.315252 
L 152.666549 -90.975261 
L 154.697961 -77.356146 
L 156.729374 -107.095815 
L 158.760786 -114.239754 
L 160.792199 -110.53414 
L 162.823611 -117.457521 
L 164.855024 -114.573591 
L 166.886436 -121.444092 
L 168.917849 -146.73657 
L 170.949261 -116.036493 
L 172.980674 -104.921196 
L 175.012087 -102.132014 
L 177.043499 -121.215971 
L 179.074912 -131.035587 
L 181.106324 -139.435132 
L 183.137737 -127.402304 
L 185.169149 -147.360844 
L 187.200562 -159.918569 
L 189.231974 -194.653505 
L 191.263387 -192.727863 
L 193.294799 -211.311655 
L 195.326212 -211.384184 
L 197.357624 -209.305756 
L 199.389037 -200.625612 
L 201.420449 -198.449704 
L 203.451862 -162.670825 
L 205.483274 -138.672452 
L 207.514687 -129.420194 
L 209.546099 -114.242441 
L 211.577512 -108.296579 
L 213.608924 -97.703377 
L 215.640337 -98.000384 
L 217.67175 -105.524949 
L 219.703162 -114.727698 
L 221.734575 -111.283905 
L 223.765987 -121.456332 
L 225.7974 -133.861975 
L 227.828812 -150.131392 
L 229.860225 -147.08606 
L 231.891637 -153.455166 
L 233.92305 -142.727979 
L 235.954462 -153.259909 
L 237.985875 -152.570312 
L 240.017287 -137.492197 
L 242.0487 -121.74934 
L 244.080112 -111.155572 
L 246.111525 -98.256424 
L 248.142937 -100.902223 
L 250.17435 -96.281025 
L 252.205762 -89.531701 
L 254.237175 -91.061738 
L 256.268587 -90.223094 
L 258.3 -92.547424 
L 260.331413 -91.711576 
L 262.362825 -87.630017 
L 264.394238 -78.312593 
L 266.42565 -73.478065 
L 268.457063 -67.690918 
L 270.488475 -66.260211 
L 272.519888 -64.771526 
L 274.5513 -63.24081 
L 276.582713 -64.449597 
L 278.614125 -64.829748 
L 280.645538 -65.322599 
L 282.67695 -64.871943 
L 284.708363 -64.452623 
L 286.739775 -64.035361 
L 288.771188 -64.91635 
L 290.8026 -61.635607 
L 292.834013 -60.855506 
L 294.865425 -61.484288 
L 296.896838 -64.030844 
L 298.92825 -62.915826 
L 300.959663 -59.562545 
L 302.991076 -58.042461 
L 305.022488 -60.437073 
L 307.053901 -60.927888 
L 309.085313 -61.463843 
L 311.116726 -59.228482 
L 313.148138 -59.605485 
L 315.179551 -63.45108 
L 317.210963 -64.277854 
L 319.242376 -61.028537 
L 321.273788 -57.909137 
L 323.305201 -58.158932 
L 325.336613 -58.42108 
L 327.368026 -58.688435 
L 329.399438 -55.848895 
L 331.430851 -55.880062 
L 333.462263 -55.912081 
L 335.493676 -59.793268 
L 337.525088 -60.121484 
L 339.556501 -60.501526 
L 341.587913 -60.951467 
L 343.619326 -61.483491 
L 345.650739 -62.09561 
L 347.682151 -62.763732 
L 349.713564 -63.440052 
L 351.744976 -64.060575 
L 353.776389 -64.564736 
L 355.807801 -64.915884 
L 357.839214 -65.111408 
L 359.870626 -65.177236 
L 361.902039 -65.152257 
L 363.933451 -56.560532 
L 365.964864 -56.548887 
L 367.996276 -56.537054 
L 370.027689 -56.527113 
L 372.059101 -56.521763 
L 374.090514 -56.524485 
L 376.121926 -56.538998 
L 378.153339 -56.568461 
L 380.184751 -56.615047 
L 382.216164 -56.679755 
L 384.247576 -56.762343 
L 386.278989 -56.861211 
L 388.310401 -56.973306 
L 390.341814 -57.0941 
L 392.373227 -57.217979 
L 394.404639 -57.338884 
L 396.436052 -57.451266 
L 398.467464 -57.550931 
L 400.498877 -57.635459 
L 402.530289 -57.704254 
L 404.561702 -57.758206 
L 406.593114 -57.799186 
L 408.624527 -57.829453 
L 410.655939 -57.851295 
L 412.687352 -57.866698 
L 414.718764 -57.877383 
L 416.750177 -57.884663 
L 418.781589 -57.889588 
L 420.813002 -57.892867 
L 422.844414 -57.895027 
L 424.875827 -57.896435 
L 426.907239 -57.897345 
L 428.938652 -57.897928 
L 430.970064 -57.898299 
L 433.001477 -57.898534 
L 433.001477 -368.697664 
L 433.001477 -368.697664 
L 430.970064 -368.667791 
L 428.938652 -368.6205 
L 426.907239 -368.546166 
L 424.875827 -368.430209 
L 422.844414 -368.2508 
L 420.813002 -367.975683 
L 418.781589 -367.557895 
L 416.750177 -366.930257 
L 414.718764 -366.002788 
L 412.687352 -364.641259 
L 410.655939 -362.678638 
L 408.624527 -359.895687 
L 406.593114 -356.039139 
L 404.561702 -350.81759 
L 402.530289 -343.943301 
L 400.498877 -335.177673 
L 398.467464 -324.407361 
L 396.436052 -311.708428 
L 394.404639 -297.389049 
L 392.373227 -281.983837 
L 390.341814 -266.199583 
L 388.310401 -250.808486 
L 386.278989 -236.525668 
L 384.247576 -223.928266 
L 382.216164 -213.405181 
L 380.184751 -205.160289 
L 378.153339 -199.224513 
L 376.121926 -195.470491 
L 374.090514 -193.621235 
L 372.059101 -193.27443 
L 370.027689 -193.956058 
L 367.996276 -195.222725 
L 365.964864 -196.73049 
L 363.933451 -198.214229 
L 361.902039 -270.706542 
L 359.870626 -271.260201 
L 357.839214 -269.801151 
L 355.807801 -265.467487 
L 353.776389 -257.684496 
L 351.744976 -246.510045 
L 349.713564 -232.756518 
L 347.682151 -217.766277 
L 345.650739 -202.95774 
L 343.619326 -189.390488 
L 341.587913 -177.598481 
L 339.556501 -167.625797 
L 337.525088 -159.202373 
L 335.493676 -151.927667 
L 333.462263 -115.590862 
L 331.430851 -111.511162 
L 329.399438 -107.539944 
L 327.368026 -127.439689 
L 325.336613 -121.513911 
L 323.305201 -115.703545 
L 321.273788 -110.166985 
L 319.242376 -119.517824 
L 317.210963 -125.738043 
L 315.179551 -119.161718 
L 313.148138 -103.201199 
L 311.116726 -98.878497 
L 309.085313 -103.354839 
L 307.053901 -99.091753 
L 305.022488 -95.187708 
L 302.991076 -85.279658 
L 300.959663 -88.231544 
L 298.92825 -94.826743 
L 296.896838 -95.123725 
L 294.865425 -87.284614 
L 292.834013 -83.97185 
L 290.8026 -84.059396 
L 288.771188 -89.114989 
L 286.739775 -85.984321 
L 284.708363 -85.557067 
L 282.67695 -85.321141 
L 280.645538 -85.316048 
L 278.614125 -83.826112 
L 276.582713 -82.67688 
L 274.5513 -80.153583 
L 272.519888 -82.501546 
L 270.488475 -84.674677 
L 268.457063 -86.665181 
L 266.42565 -95.229284 
L 264.394238 -101.92532 
L 262.362825 -114.572545 
L 260.331413 -119.869633 
L 258.3 -120.955255 
L 256.268587 -118.01871 
L 254.237175 -119.527526 
L 252.205762 -118.065909 
L 250.17435 -127.9864 
L 248.142937 -135.23517 
L 246.111525 -132.989746 
L 244.080112 -151.620448 
L 242.0487 -167.116106 
L 240.017287 -189.094488 
L 237.985875 -209.82898 
L 235.954462 -211.957179 
L 233.92305 -199.303364 
L 231.891637 -213.356663 
L 229.860225 -205.293794 
L 227.828812 -209.107265 
L 225.7974 -188.134181 
L 223.765987 -171.995567 
L 221.734575 -158.79171 
L 219.703162 -164.350551 
L 217.67175 -153.013547 
L 215.640337 -144.075963 
L 213.608924 -145.877579 
L 211.577512 -164.14936 
L 209.546099 -176.378128 
L 207.514687 -202.503412 
L 205.483274 -220.895749 
L 203.451862 -260.513545 
L 201.420449 -316.264939 
L 199.389037 -326.2246 
L 197.357624 -344.728173 
L 195.326212 -353.675385 
L 193.294799 -359.103087 
L 191.263387 -337.797958 
L 189.231974 -345.365092 
L 187.200562 -298.510941 
L 185.169149 -283.816349 
L 183.137737 -256.508839 
L 181.106324 -282.382943 
L 179.074912 -274.668178 
L 177.043499 -263.82347 
L 175.012087 -233.741869 
L 172.980674 -244.392861 
L 170.949261 -270.774621 
L 168.917849 -331.438326 
L 166.886436 -289.990969 
L 164.855024 -281.252271 
L 162.823611 -292.265077 
L 160.792199 -284.662871 
L 158.760786 -300.080326 
L 156.729374 -294.053956 
L 154.697961 -229.765374 
L 152.666549 -277.867686 
L 150.635136 -334.015754 
L 148.603724 -325.597418 
L 146.572311 -394.613156 
L 144.540899 -381.404337 
L 142.509486 -405.934979 
L 140.478074 -421.950504 
L 138.446661 -425.04 
L 136.415249 -362.737355 
L 134.383836 -343.534635 
L 132.352424 -318.817047 
L 130.321011 -292.607151 
L 128.289599 -230.643999 
L 126.258186 -212.264547 
L 124.226773 -164.61278 
L 122.195361 -154.462865 
L 120.163948 -146.297227 
L 118.132536 -112.049745 
L 116.101123 -109.293087 
L 114.069711 -108.027822 
L 112.038298 -134.712474 
L 110.006886 -138.296382 
L 107.975473 -145.596372 
L 105.944061 -157.796692 
z
" style="stroke: #de8f05; stroke-opacity: 0.3"/>
    </defs>
    <g clip-path="url(#p3a7d8ba1bd)">
     <use xlink:href="#m9c50f2885c" x="0" y="504" style="fill: #de8f05; fill-opacity: 0.3; stroke: #de8f05; stroke-opacity: 0.3"/>
    </g>
   </g>
   <g id="matplotlib.axis_2">
    <g id="xtick_1">
     <g id="line2d_9">
      <defs>
       <path id="mbba9794089" d="M 0 0 
L 0 3.5 
" style="stroke: #000000; stroke-width: 0.8"/>
      </defs>
      <g>
       <use xlink:href="#mbba9794089" x="91.724173" y="448.56" style="stroke: #000000; stroke-width: 0.8"/>
      </g>
     </g>
     <g id="text_10">
      <text style="font-size: 16px; font-family: 'Arial', sans-serif; text-anchor: middle" x="91.724173" y="467.7175" transform="rotate(-0 91.724173 467.7175)">1 Jul</text>
     </g>
    </g>
    <g id="xtick_2">
     <g id="line2d_10">
      <g>
       <use xlink:href="#mbba9794089" x="154.697961" y="448.56" style="stroke: #000000; stroke-width: 0.8"/>
      </g>
     </g>
     <g id="text_11">
      <text style="font-size: 16px; font-family: 'Arial', sans-serif; text-anchor: middle" x="154.697961" y="467.71625" transform="rotate(-0 154.697961 467.71625)">1 Aug</text>
     </g>
    </g>
    <g id="xtick_3">
     <g id="line2d_11">
      <g>
       <use xlink:href="#mbba9794089" x="217.67175" y="448.56" style="stroke: #000000; stroke-width: 0.8"/>
      </g>
     </g>
     <g id="text_12">
      <text style="font-size: 16px; font-family: 'Arial', sans-serif; text-anchor: middle" x="217.67175" y="467.71625" transform="rotate(-0 217.67175 467.71625)">1 Sep</text>
     </g>
    </g>
    <g id="xtick_4">
     <g id="line2d_12">
      <g>
       <use xlink:href="#mbba9794089" x="278.614125" y="448.56" style="stroke: #000000; stroke-width: 0.8"/>
      </g>
     </g>
     <g id="text_13">
      <text style="font-size: 16px; font-family: 'Arial', sans-serif; text-anchor: middle" x="278.614125" y="467.71625" transform="rotate(-0 278.614125 467.71625)">1 Oct</text>
     </g>
    </g>
    <g id="xtick_5">
     <g id="line2d_13">
      <g>
       <use xlink:href="#mbba9794089" x="341.587913" y="448.56" style="stroke: #000000; stroke-width: 0.8"/>
      </g>
     </g>
     <g id="text_14">
      <text style="font-size: 16px; font-family: 'Arial', sans-serif; text-anchor: middle" x="341.587913" y="467.71625" transform="rotate(-0 341.587913 467.71625)">1 Nov</text>
     </g>
    </g>
    <g id="xtick_6">
     <g id="line2d_14">
      <g>
       <use xlink:href="#mbba9794089" x="402.530289" y="448.56" style="stroke: #000000; stroke-width: 0.8"/>
      </g>
     </g>
     <g id="text_15">
      <text style="font-size: 16px; font-family: 'Arial', sans-serif; text-anchor: middle" x="402.530289" y="467.71625" transform="rotate(-0 402.530289 467.71625)">1 Dec</text>
     </g>
    </g>
    <g id="text_16">
     <text style="font-size: 16px; font-family: 'Arial', sans-serif; text-anchor: middle" x="258.3" y="487.7175" transform="rotate(-0 258.3 487.7175)">Date (2017)</text>
    </g>
   </g>
   <g id="matplotlib.axis_3">
    <g id="ytick_9">
     <g id="line2d_15">
      <defs>
       <path id="m68c355e0b6" d="M 0 0 
L -3.5 0 
" style="stroke: #000000; stroke-width: 0.8"/>
      </defs>
      <g>
       <use xlink:href="#m68c355e0b6" x="63" y="448.56" style="stroke: #000000; stroke-width: 0.8"/>
      </g>
     </g>
     <g id="text_17">
      <text style="font-size: 16px; font-family: 'Arial', sans-serif; text-anchor: end" x="56" y="454.638125" transform="rotate(-0 56 454.638125)">0</text>
     </g>
    </g>
    <g id="ytick_10">
     <g id="line2d_16">
      <g>
       <use xlink:href="#m68c355e0b6" x="63" y="386.937702" style="stroke: #000000; stroke-width: 0.8"/>
      </g>
     </g>
     <g id="text_18">
      <text style="font-size: 16px; font-family: 'Arial', sans-serif; text-anchor: end" x="56" y="393.015827" transform="rotate(-0 56 393.015827)">1</text>
     </g>
    </g>
    <g id="ytick_11">
     <g id="line2d_17">
      <g>
       <use xlink:href="#m68c355e0b6" x="63" y="325.315404" style="stroke: #000000; stroke-width: 0.8"/>
      </g>
     </g>
     <g id="text_19">
      <text style="font-size: 16px; font-family: 'Arial', sans-serif; text-anchor: end" x="56" y="331.393529" transform="rotate(-0 56 331.393529)">2</text>
     </g>
    </g>
    <g id="ytick_12">
     <g id="line2d_18">
      <g>
       <use xlink:href="#m68c355e0b6" x="63" y="263.693106" style="stroke: #000000; stroke-width: 0.8"/>
      </g>
     </g>
     <g id="text_20">
      <text style="font-size: 16px; font-family: 'Arial', sans-serif; text-anchor: end" x="56" y="269.771231" transform="rotate(-0 56 269.771231)">3</text>
     </g>
    </g>
    <g id="ytick_13">
     <g id="line2d_19">
      <g>
       <use xlink:href="#m68c355e0b6" x="63" y="202.070808" style="stroke: #000000; stroke-width: 0.8"/>
      </g>
     </g>
     <g id="text_21">
      <text style="font-size: 16px; font-family: 'Arial', sans-serif; text-anchor: end" x="56" y="208.148933" transform="rotate(-0 56 208.148933)">4</text>
     </g>
    </g>
    <g id="ytick_14">
     <g id="line2d_20">
      <g>
       <use xlink:href="#m68c355e0b6" x="63" y="140.448511" style="stroke: #000000; stroke-width: 0.8"/>
      </g>
     </g>
     <g id="text_22">
      <text style="font-size: 16px; font-family: 'Arial', sans-serif; text-anchor: end" x="56" y="146.526636" transform="rotate(-0 56 146.526636)">5</text>
     </g>
    </g>
    <g id="ytick_15">
     <g id="line2d_21">
      <g>
       <use xlink:href="#m68c355e0b6" x="63" y="78.826213" style="stroke: #000000; stroke-width: 0.8"/>
      </g>
     </g>
     <g id="text_23">
      <text style="font-size: 16px; font-family: 'Arial', sans-serif; text-anchor: end" x="56" y="84.904338" transform="rotate(-0 56 84.904338)">6</text>
     </g>
    </g>
    <g id="text_24">
     <text style="font-size: 16px; font-family: 'Arial', sans-serif; text-anchor: middle" x="37.97625" y="254.52" transform="rotate(-90 37.97625 254.52)">Time-dependent reproduction number</text>
    </g>
   </g>
   <g id="line2d_22">
    <path d="M 81.56711 310.986049 
L 83.598523 303.314897 
L 85.629936 306.872546 
L 87.661348 319.2315 
L 89.692761 330.073295 
L 91.724173 340.145437 
L 93.755586 349.130841 
L 95.786998 357.103572 
L 97.818411 364.082059 
L 101.881236 375.519686 
L 103.912648 379.900433 
L 105.944061 382.379084 
L 107.975473 383.672172 
L 110.006886 383.78598 
L 112.038298 382.4505 
L 114.069711 380.025659 
L 116.101123 376.808933 
L 118.132536 371.936423 
L 120.163948 365.384361 
L 122.195361 360.357863 
L 124.226773 353.741096 
L 126.258186 345.187066 
L 128.289599 338.625029 
L 130.321011 330.896313 
L 132.352424 325.998333 
L 134.383836 320.045084 
L 136.415249 317.092489 
L 138.446661 313.123752 
L 140.478074 312.373858 
L 142.509486 313.712752 
L 144.540899 313.46639 
L 146.572311 314.508925 
L 148.603724 317.466921 
L 150.635136 316.869694 
L 152.666549 317.066361 
L 154.697961 313.297698 
L 156.729374 304.872543 
L 158.760786 304.891815 
L 160.792199 308.030169 
L 162.823611 309.523888 
L 164.855024 310.38106 
L 166.886436 309.049534 
L 168.917849 306.44108 
L 170.949261 311.092256 
L 172.980674 307.872499 
L 175.012087 300.426702 
L 177.043499 286.437952 
L 179.074912 280.366985 
L 183.137737 269.859002 
L 185.169149 256.231483 
L 187.200562 243.749579 
L 189.231974 228.908251 
L 193.294799 247.201514 
L 195.326212 274.209115 
L 197.357624 298.212482 
L 201.420449 331.849532 
L 203.451862 353.856512 
L 205.483274 364.564517 
L 207.514687 365.116324 
L 209.546099 373.617539 
L 211.577512 374.668056 
L 213.608924 372.294677 
L 215.640337 359.179919 
L 217.67175 351.926398 
L 221.734575 340.730854 
L 223.765987 330.227856 
L 225.7974 320.554973 
L 227.828812 320.916035 
L 229.860225 332.600817 
L 231.891637 337.034655 
L 233.92305 352.709219 
L 235.954462 347.949969 
L 237.985875 363.243094 
L 240.017287 382.45623 
L 242.0487 394.195808 
L 244.080112 400.56573 
L 246.111525 400.427414 
L 250.17435 393.254486 
L 252.205762 399.717651 
L 254.237175 404.465171 
L 256.268587 411.141119 
L 260.331413 420.667808 
L 262.362825 424.41711 
L 264.394238 427.110608 
L 266.42565 429.227429 
L 268.457063 429.84139 
L 272.519888 429.73661 
L 274.5513 430.38468 
L 276.582713 430.506845 
L 278.614125 431.479354 
L 280.645538 432.720225 
L 282.67695 433.255344 
L 286.739775 433.2469 
L 288.771188 433.859618 
L 290.8026 434.589733 
L 292.834013 435.000683 
L 294.865425 435.673025 
L 296.896838 436.100653 
L 298.92825 436.707394 
L 300.959663 437.035822 
L 302.991076 437.147782 
L 305.022488 437.116294 
L 307.053901 437.351038 
L 309.085313 437.871941 
L 311.116726 438.210706 
L 313.148138 438.410016 
L 315.179551 438.414773 
L 317.210963 438.877204 
L 319.242376 439.213071 
L 323.305201 439.365909 
L 327.368026 439.152636 
L 329.399438 438.903606 
L 333.462263 438.116629 
L 335.493676 437.56868 
L 339.556501 437.661571 
L 343.619326 437.636437 
L 349.713564 437.343373 
L 359.870626 439.98205 
L 363.933451 440.757606 
L 372.059101 441.937403 
L 376.121926 442.270046 
L 378.153339 442.502321 
L 408.624527 444.096923 
L 412.687352 444.212804 
L 422.844414 444.719688 
L 435.03289 445.183978 
L 435.03289 445.183978 
" clip-path="url(#p3a7d8ba1bd)" style="fill: none; stroke: #0173b2; stroke-width: 2; stroke-linecap: square"/>
   </g>
   <g id="line2d_23">
    <path d="M 105.944061 411.551276 
L 107.975473 415.9625 
L 110.006886 418.60193 
L 112.038298 419.89775 
L 114.069711 434.069767 
L 116.101123 433.721131 
L 118.132536 432.961552 
L 120.163948 415.709094 
L 122.195361 412.756676 
L 124.226773 409.086809 
L 126.258186 383.154539 
L 128.289599 375.48918 
L 130.321011 340.026531 
L 132.352424 328.032244 
L 134.383836 316.720874 
L 136.415249 307.933241 
L 138.446661 267.710583 
L 140.478074 269.222308 
L 142.509486 277.058884 
L 144.540899 289.062001 
L 146.572311 273.842482 
L 148.603724 316.368951 
L 150.635136 305.057888 
L 152.666549 339.723644 
L 154.697961 368.78446 
L 156.729374 320.475274 
L 158.760786 312.697958 
L 160.792199 321.260107 
L 162.823611 313.204879 
L 164.855024 319.499143 
L 166.886436 311.15073 
L 168.917849 277.283746 
L 170.949261 322.408429 
L 172.980674 340.565789 
L 175.012087 346.653262 
L 177.043499 321.421385 
L 179.074912 310.419087 
L 181.106324 301.722537 
L 183.137737 320.09559 
L 185.169149 295.973172 
L 187.200562 281.922996 
L 189.231974 240.751754 
L 191.263387 245.135723 
L 193.294799 224.827917 
L 195.326212 227.121718 
L 197.357624 232.222037 
L 199.389037 245.372759 
L 201.420449 250.983414 
L 203.451862 296.293919 
L 205.483274 327.673829 
L 207.514687 341.111738 
L 209.546099 361.430345 
L 211.577512 370.240539 
L 213.608924 384.449233 
L 215.640337 385.028817 
L 217.67175 376.670021 
L 219.703162 366.31079 
L 221.734575 370.754723 
L 223.765987 359.036472 
L 225.7974 344.754156 
L 227.828812 326.13462 
L 229.860225 329.568013 
L 231.891637 322.349172 
L 233.92305 334.720305 
L 235.954462 323.086516 
L 237.985875 324.430746 
L 242.0487 361.019086 
L 244.080112 373.967747 
L 246.111525 389.641993 
L 248.142937 387.116297 
L 250.17435 392.983626 
L 252.205762 401.264936 
L 254.237175 399.730584 
L 256.268587 400.880177 
L 258.3 398.239309 
L 260.331413 399.201722 
L 262.362825 403.903123 
L 264.394238 414.905605 
L 266.42565 420.697232 
L 268.457063 427.902208 
L 272.519888 431.507874 
L 274.5513 433.481785 
L 276.582713 431.657612 
L 278.614125 430.944433 
L 280.645538 430.019824 
L 284.708363 430.531624 
L 286.739775 430.665924 
L 288.771188 428.831854 
L 290.8026 433.197497 
L 292.834013 433.862451 
L 294.865425 432.155954 
L 296.896838 427.258316 
L 298.92825 428.270794 
L 300.959663 433.55379 
L 302.991076 436.115031 
L 305.022488 430.37048 
L 307.053901 428.583894 
L 309.085313 426.633002 
L 311.116726 430.443481 
L 313.148138 428.640649 
L 315.179551 419.399389 
L 317.210963 416.389902 
L 319.242376 421.835615 
L 321.273788 428.77257 
L 325.336613 424.669905 
L 327.368026 422.527343 
L 329.399438 434.204199 
L 333.462263 431.98582 
L 335.493676 413.673318 
L 337.525088 411.04303 
L 339.556501 407.997404 
L 341.587913 404.391618 
L 343.619326 400.128026 
L 345.650739 395.222566 
L 349.713564 384.448334 
L 351.744976 379.475523 
L 353.776389 375.435219 
L 355.807801 372.621152 
L 357.839214 371.054246 
L 359.870626 370.526702 
L 361.902039 370.726887 
L 363.933451 409.219488 
L 370.027689 410.392799 
L 372.059101 410.580617 
L 374.090514 410.485058 
L 376.121926 409.975507 
L 378.153339 408.94111 
L 380.184751 407.305546 
L 382.216164 405.033719 
L 384.247576 402.134152 
L 386.278989 398.663019 
L 388.310401 394.727482 
L 396.436052 377.946898 
L 398.467464 374.447789 
L 400.498877 371.4801 
L 402.530289 369.064788 
L 404.561702 367.170622 
L 406.593114 365.731858 
L 408.624527 364.669211 
L 410.655939 363.902387 
L 412.687352 363.3616 
L 414.718764 362.986439 
L 418.781589 362.55794 
L 424.875827 362.317579 
L 433.001477 362.243884 
L 433.001477 362.243884 
" clip-path="url(#p3a7d8ba1bd)" style="fill: none; stroke: #de8f05; stroke-width: 2; stroke-linecap: square"/>
   </g>
   <g id="patch_179">
    <path d="M 63 448.56 
L 63 60.48 
" style="fill: none; stroke: #000000; stroke-width: 0.8; stroke-linejoin: miter; stroke-linecap: square"/>
   </g>
   <g id="patch_180">
    <path d="M 63 448.56 
L 453.6 448.56 
" style="fill: none; stroke: #000000; stroke-width: 0.8; stroke-linejoin: miter; stroke-linecap: square"/>
   </g>
   <g id="legend_1">
    <g id="patch_181">
     <path d="M 281.883438 113.682187 
L 443.8 113.682187 
Q 446.6 113.682187 446.6 110.882187 
L 446.6 70.28 
Q 446.6 67.48 443.8 67.48 
L 281.883438 67.48 
Q 279.083438 67.48 279.083438 70.28 
L 279.083438 110.882187 
Q 279.083438 113.682187 281.883438 113.682187 
z
" style="fill: #ffffff; opacity: 0.8; stroke: #cccccc; stroke-linejoin: miter"/>
    </g>
    <g id="line2d_24">
     <path d="M 284.683438 78.817812 
L 298.683438 78.817812 
L 312.683438 78.817812 
" style="fill: none; stroke: #0173b2; stroke-width: 2; stroke-linecap: square"/>
    </g>
    <g id="text_25">
     <text style="font-size: 14px; font-family: 'Arial', sans-serif; text-anchor: start" x="323.883438" y="83.717812" transform="rotate(-0 323.883438 83.717812)">Suitability-based</text>
    </g>
    <g id="line2d_25">
     <path d="M 284.683438 99.818906 
L 298.683438 99.818906 
L 312.683438 99.818906 
" style="fill: none; stroke: #de8f05; stroke-width: 2; stroke-linecap: square"/>
    </g>
    <g id="text_26">
     <text style="font-size: 14px; font-family: 'Arial', sans-serif; text-anchor: start" x="323.883438" y="104.718906" transform="rotate(-0 323.883438 104.718906)">EpiEstim</text>
    </g>
   </g>
  </g>
 </g>
 <defs>
  <clipPath id="p3a7d8ba1bd">
   <rect x="63" y="60.48" width="390.6" height="388.08"/>
  </clipPath>
 </defs>
</svg>
