<?xml version="1.0" encoding="utf-8" standalone="no"?>
<!DOCTYPE svg PUBLIC "-//W3C//DTD SVG 1.1//EN"
  "http://www.w3.org/Graphics/SVG/1.1/DTD/svg11.dtd">
<svg xmlns:xlink="http://www.w3.org/1999/xlink" width="504pt" height="504pt" viewBox="0 0 504 504" xmlns="http://www.w3.org/2000/svg" version="1.1">
 <metadata>
  <rdf:RDF xmlns:dc="http://purl.org/dc/elements/1.1/" xmlns:cc="http://creativecommons.org/ns#" xmlns:rdf="http://www.w3.org/1999/02/22-rdf-syntax-ns#">
   <cc:Work>
    <dc:type rdf:resource="http://purl.org/dc/dcmitype/StillImage"/>
    <dc:date>2026-07-23T18:06:46.842731</dc:date>
    <dc:format>image/svg+xml</dc:format>
    <dc:creator>
     <cc:Agent>
      <dc:title>Matplotlib v3.11.0, https://matplotlib.org/</dc:title>
     </cc:Agent>
    </dc:creator>
   </cc:Work>
  </rdf:RDF>
 </metadata>
 <defs>
  <style type="text/css">*{stroke-linejoin: round; stroke-linecap: butt}</style>
 </defs>
 <g id="figure_1">
  <g id="patch_1">
   <path d="M 0 504 
L 504 504 
L 504 0 
L 0 0 
L 0 504 
z
" style="fill: none"/>
  </g>
  <g id="axes_1">
   <g id="patch_2">
    <path d="M 63 448.56 
L 453.6 448.56 
L 453.6 60.48 
L 63 60.48 
L 63 448.56 
z
" style="fill: none"/>
   </g>
   <g id="matplotlib.axis_1">
    <g id="ytick_1">
     <g id="line2d_1">
      <defs>
       <path id="mfee3c4af42" d="M 0 0 
L 3.5 0 
" style="stroke: #7f7f7f; stroke-width: 0.8"/>
      </defs>
      <g>
       <use xlink:href="#mfee3c4af42" x="453.6" y="448.56" style="fill: #7f7f7f; stroke: #7f7f7f; stroke-width: 0.8"/>
      </g>
     </g>
     <g id="text_1">
      <text style="font-size: 16px; font-family: 'Arial', sans-serif; text-anchor: start; fill: #7f7f7f" x="460.6" y="454.384219" transform="rotate(-0 460.6 454.384219)">0</text>
     </g>
    </g>
    <g id="ytick_2">
     <g id="line2d_2">
      <g>
       <use xlink:href="#mfee3c4af42" x="453.6" y="396.816" style="fill: #7f7f7f; stroke: #7f7f7f; stroke-width: 0.8"/>
      </g>
     </g>
     <g id="text_2">
      <text style="font-size: 16px; font-family: 'Arial', sans-serif; text-anchor: start; fill: #7f7f7f" x="460.6" y="402.640219" transform="rotate(-0 460.6 402.640219)">2</text>
     </g>
    </g>
    <g id="ytick_3">
     <g id="line2d_3">
      <g>
       <use xlink:href="#mfee3c4af42" x="453.6" y="345.072" style="fill: #7f7f7f; stroke: #7f7f7f; stroke-width: 0.8"/>
      </g>
     </g>
     <g id="text_3">
      <text style="font-size: 16px; font-family: 'Arial', sans-serif; text-anchor: start; fill: #7f7f7f" x="460.6" y="350.896219" transform="rotate(-0 460.6 350.896219)">4</text>
     </g>
    </g>
    <g id="ytick_4">
     <g id="line2d_4">
      <g>
       <use xlink:href="#mfee3c4af42" x="453.6" y="293.328" style="fill: #7f7f7f; stroke: #7f7f7f; stroke-width: 0.8"/>
      </g>
     </g>
     <g id="text_4">
      <text style="font-size: 16px; font-family: 'Arial', sans-serif; text-anchor: start; fill: #7f7f7f" x="460.6" y="299.152219" transform="rotate(-0 460.6 299.152219)">6</text>
     </g>
    </g>
    <g id="ytick_5">
     <g id="line2d_5">
      <g>
       <use xlink:href="#mfee3c4af42" x="453.6" y="241.584" style="fill: #7f7f7f; stroke: #7f7f7f; stroke-width: 0.8"/>
      </g>
     </g>
     <g id="text_5">
      <text style="font-size: 16px; font-family: 'Arial', sans-serif; text-anchor: start; fill: #7f7f7f" x="460.6" y="247.408219" transform="rotate(-0 460.6 247.408219)">8</text>
     </g>
    </g>
    <g id="ytick_6">
     <g id="line2d_6">
      <g>
       <use xlink:href="#mfee3c4af42" x="453.6" y="189.84" style="fill: #7f7f7f; stroke: #7f7f7f; stroke-width: 0.8"/>
      </g>
     </g>
     <g id="text_6">
      <text style="font-size: 16px; font-family: 'Arial', sans-serif; text-anchor: start; fill: #7f7f7f" x="460.6" y="195.664219" transform="rotate(-0 460.6 195.664219)">10</text>
     </g>
    </g>
    <g id="ytick_7">
     <g id="line2d_7">
      <g>
       <use xlink:href="#mfee3c4af42" x="453.6" y="138.096" style="fill: #7f7f7f; stroke: #7f7f7f; stroke-width: 0.8"/>
      </g>
     </g>
     <g id="text_7">
      <text style="font-size: 16px; font-family: 'Arial', sans-serif; text-anchor: start; fill: #7f7f7f" x="460.6" y="143.920219" transform="rotate(-0 460.6 143.920219)">12</text>
     </g>
    </g>
    <g id="ytick_8">
     <g id="line2d_8">
      <g>
       <use xlink:href="#mfee3c4af42" x="453.6" y="86.352" style="fill: #7f7f7f; stroke: #7f7f7f; stroke-width: 0.8"/>
      </g>
     </g>
     <g id="text_8">
      <text style="font-size: 16px; font-family: 'Arial', sans-serif; text-anchor: start; fill: #7f7f7f" x="460.6" y="92.176219" transform="rotate(-0 460.6 92.176219)">14</text>
     </g>
    </g>
    <g id="text_9">
     <text style="font-size: 16px; font-family: 'Arial', sans-serif; text-anchor: middle; fill: #7f7f7f" x="494.043438" y="254.52" transform="rotate(-90 494.043438 254.52)">Number of cases</text>
    </g>
   </g>
   <g id="patch_3">
    <path d="M 82.107042 448.56 
L 83.684507 448.56 
L 83.684507 396.816 
L 82.107042 396.816 
z
" clip-path="url(#p0896746594)" style="fill: #7f7f7f; opacity: 0.5"/>
   </g>
   <g id="patch_4">
    <path d="M 84.078873 448.56 
L 85.656338 448.56 
L 85.656338 396.816 
L 84.078873 396.816 
z
" clip-path="url(#p0896746594)" style="fill: #7f7f7f; opacity: 0.5"/>
   </g>
   <g id="patch_5">
    <path d="M 86.050704 448.56 
L 87.628169 448.56 
L 87.628169 396.816 
L 86.050704 396.816 
z
" clip-path="url(#p0896746594)" style="fill: #7f7f7f; opacity: 0.5"/>
   </g>
   <g id="patch_6">
    <path d="M 88.022535 448.56 
L 89.6 448.56 
L 89.6 448.56 
L 88.022535 448.56 
z
" clip-path="url(#p0896746594)" style="fill: #7f7f7f; opacity: 0.5"/>
   </g>
   <g id="patch_7">
    <path d="M 89.994366 448.56 
L 91.571831 448.56 
L 91.571831 448.56 
L 89.994366 448.56 
z
" clip-path="url(#p0896746594)" style="fill: #7f7f7f; opacity: 0.5"/>
   </g>
   <g id="patch_8">
    <path d="M 91.966197 448.56 
L 93.543662 448.56 
L 93.543662 448.56 
L 91.966197 448.56 
z
" clip-path="url(#p0896746594)" style="fill: #7f7f7f; opacity: 0.5"/>
   </g>
   <g id="patch_9">
    <path d="M 93.938028 448.56 
L 95.515493 448.56 
L 95.515493 448.56 
L 93.938028 448.56 
z
" clip-path="url(#p0896746594)" style="fill: #7f7f7f; opacity: 0.5"/>
   </g>
   <g id="patch_10">
    <path d="M 95.909859 448.56 
L 97.487324 448.56 
L 97.487324 448.56 
L 95.909859 448.56 
z
" clip-path="url(#p0896746594)" style="fill: #7f7f7f; opacity: 0.5"/>
   </g>
   <g id="patch_11">
    <path d="M 97.88169 448.56 
L 99.459155 448.56 
L 99.459155 448.56 
L 97.88169 448.56 
z
" clip-path="url(#p0896746594)" style="fill: #7f7f7f; opacity: 0.5"/>
   </g>
   <g id="patch_12">
    <path d="M 99.853521 448.56 
L 101.430986 448.56 
L 101.430986 422.688 
L 99.853521 422.688 
z
" clip-path="url(#p0896746594)" style="fill: #7f7f7f; opacity: 0.5"/>
   </g>
   <g id="patch_13">
    <path d="M 101.825352 448.56 
L 103.402817 448.56 
L 103.402817 448.56 
L 101.825352 448.56 
z
" clip-path="url(#p0896746594)" style="fill: #7f7f7f; opacity: 0.5"/>
   </g>
   <g id="patch_14">
    <path d="M 103.797183 448.56 
L 105.374648 448.56 
L 105.374648 448.56 
L 103.797183 448.56 
z
" clip-path="url(#p0896746594)" style="fill: #7f7f7f; opacity: 0.5"/>
   </g>
   <g id="patch_15">
    <path d="M 105.769014 448.56 
L 107.346479 448.56 
L 107.346479 448.56 
L 105.769014 448.56 
z
" clip-path="url(#p0896746594)" style="fill: #7f7f7f; opacity: 0.5"/>
   </g>
   <g id="patch_16">
    <path d="M 107.740845 448.56 
L 109.31831 448.56 
L 109.31831 448.56 
L 107.740845 448.56 
z
" clip-path="url(#p0896746594)" style="fill: #7f7f7f; opacity: 0.5"/>
   </g>
   <g id="patch_17">
    <path d="M 109.712676 448.56 
L 111.290141 448.56 
L 111.290141 448.56 
L 109.712676 448.56 
z
" clip-path="url(#p0896746594)" style="fill: #7f7f7f; opacity: 0.5"/>
   </g>
   <g id="patch_18">
    <path d="M 111.684507 448.56 
L 113.261972 448.56 
L 113.261972 448.56 
L 111.684507 448.56 
z
" clip-path="url(#p0896746594)" style="fill: #7f7f7f; opacity: 0.5"/>
   </g>
   <g id="patch_19">
    <path d="M 113.656338 448.56 
L 115.233803 448.56 
L 115.233803 448.56 
L 113.656338 448.56 
z
" clip-path="url(#p0896746594)" style="fill: #7f7f7f; opacity: 0.5"/>
   </g>
   <g id="patch_20">
    <path d="M 115.628169 448.56 
L 117.205634 448.56 
L 117.205634 448.56 
L 115.628169 448.56 
z
" clip-path="url(#p0896746594)" style="fill: #7f7f7f; opacity: 0.5"/>
   </g>
   <g id="patch_21">
    <path d="M 117.6 448.56 
L 119.177465 448.56 
L 119.177465 448.56 
L 117.6 448.56 
z
" clip-path="url(#p0896746594)" style="fill: #7f7f7f; opacity: 0.5"/>
   </g>
   <g id="patch_22">
    <path d="M 119.571831 448.56 
L 121.149296 448.56 
L 121.149296 422.688 
L 119.571831 422.688 
z
" clip-path="url(#p0896746594)" style="fill: #7f7f7f; opacity: 0.5"/>
   </g>
   <g id="patch_23">
    <path d="M 121.543662 448.56 
L 123.121127 448.56 
L 123.121127 448.56 
L 121.543662 448.56 
z
" clip-path="url(#p0896746594)" style="fill: #7f7f7f; opacity: 0.5"/>
   </g>
   <g id="patch_24">
    <path d="M 123.515493 448.56 
L 125.092958 448.56 
L 125.092958 448.56 
L 123.515493 448.56 
z
" clip-path="url(#p0896746594)" style="fill: #7f7f7f; opacity: 0.5"/>
   </g>
   <g id="patch_25">
    <path d="M 125.487324 448.56 
L 127.064789 448.56 
L 127.064789 422.688 
L 125.487324 422.688 
z
" clip-path="url(#p0896746594)" style="fill: #7f7f7f; opacity: 0.5"/>
   </g>
   <g id="patch_26">
    <path d="M 127.459155 448.56 
L 129.03662 448.56 
L 129.03662 448.56 
L 127.459155 448.56 
z
" clip-path="url(#p0896746594)" style="fill: #7f7f7f; opacity: 0.5"/>
   </g>
   <g id="patch_27">
    <path d="M 129.430986 448.56 
L 131.008451 448.56 
L 131.008451 422.688 
L 129.430986 422.688 
z
" clip-path="url(#p0896746594)" style="fill: #7f7f7f; opacity: 0.5"/>
   </g>
   <g id="patch_28">
    <path d="M 131.402817 448.56 
L 132.980282 448.56 
L 132.980282 448.56 
L 131.402817 448.56 
z
" clip-path="url(#p0896746594)" style="fill: #7f7f7f; opacity: 0.5"/>
   </g>
   <g id="patch_29">
    <path d="M 133.374648 448.56 
L 134.952113 448.56 
L 134.952113 422.688 
L 133.374648 422.688 
z
" clip-path="url(#p0896746594)" style="fill: #7f7f7f; opacity: 0.5"/>
   </g>
   <g id="patch_30">
    <path d="M 135.346479 448.56 
L 136.923944 448.56 
L 136.923944 448.56 
L 135.346479 448.56 
z
" clip-path="url(#p0896746594)" style="fill: #7f7f7f; opacity: 0.5"/>
   </g>
   <g id="patch_31">
    <path d="M 137.31831 448.56 
L 138.895775 448.56 
L 138.895775 422.688 
L 137.31831 422.688 
z
" clip-path="url(#p0896746594)" style="fill: #7f7f7f; opacity: 0.5"/>
   </g>
   <g id="patch_32">
    <path d="M 139.290141 448.56 
L 140.867606 448.56 
L 140.867606 422.688 
L 139.290141 422.688 
z
" clip-path="url(#p0896746594)" style="fill: #7f7f7f; opacity: 0.5"/>
   </g>
   <g id="patch_33">
    <path d="M 141.261972 448.56 
L 142.839437 448.56 
L 142.839437 448.56 
L 141.261972 448.56 
z
" clip-path="url(#p0896746594)" style="fill: #7f7f7f; opacity: 0.5"/>
   </g>
   <g id="patch_34">
    <path d="M 143.233803 448.56 
L 144.811268 448.56 
L 144.811268 422.688 
L 143.233803 422.688 
z
" clip-path="url(#p0896746594)" style="fill: #7f7f7f; opacity: 0.5"/>
   </g>
   <g id="patch_35">
    <path d="M 145.205634 448.56 
L 146.783099 448.56 
L 146.783099 422.688 
L 145.205634 422.688 
z
" clip-path="url(#p0896746594)" style="fill: #7f7f7f; opacity: 0.5"/>
   </g>
   <g id="patch_36">
    <path d="M 147.177465 448.56 
L 148.75493 448.56 
L 148.75493 448.56 
L 147.177465 448.56 
z
" clip-path="url(#p0896746594)" style="fill: #7f7f7f; opacity: 0.5"/>
   </g>
   <g id="patch_37">
    <path d="M 149.149296 448.56 
L 150.726761 448.56 
L 150.726761 422.688 
L 149.149296 422.688 
z
" clip-path="url(#p0896746594)" style="fill: #7f7f7f; opacity: 0.5"/>
   </g>
   <g id="patch_38">
    <path d="M 151.121127 448.56 
L 152.698592 448.56 
L 152.698592 448.56 
L 151.121127 448.56 
z
" clip-path="url(#p0896746594)" style="fill: #7f7f7f; opacity: 0.5"/>
   </g>
   <g id="patch_39">
    <path d="M 153.092958 448.56 
L 154.670423 448.56 
L 154.670423 448.56 
L 153.092958 448.56 
z
" clip-path="url(#p0896746594)" style="fill: #7f7f7f; opacity: 0.5"/>
   </g>
   <g id="patch_40">
    <path d="M 155.064789 448.56 
L 156.642254 448.56 
L 156.642254 370.944 
L 155.064789 370.944 
z
" clip-path="url(#p0896746594)" style="fill: #7f7f7f; opacity: 0.5"/>
   </g>
   <g id="patch_41">
    <path d="M 157.03662 448.56 
L 158.614085 448.56 
L 158.614085 396.816 
L 157.03662 396.816 
z
" clip-path="url(#p0896746594)" style="fill: #7f7f7f; opacity: 0.5"/>
   </g>
   <g id="patch_42">
    <path d="M 159.008451 448.56 
L 160.585915 448.56 
L 160.585915 422.688 
L 159.008451 422.688 
z
" clip-path="url(#p0896746594)" style="fill: #7f7f7f; opacity: 0.5"/>
   </g>
   <g id="patch_43">
    <path d="M 160.980282 448.56 
L 162.557746 448.56 
L 162.557746 422.688 
L 160.980282 422.688 
z
" clip-path="url(#p0896746594)" style="fill: #7f7f7f; opacity: 0.5"/>
   </g>
   <g id="patch_44">
    <path d="M 162.952113 448.56 
L 164.529577 448.56 
L 164.529577 422.688 
L 162.952113 422.688 
z
" clip-path="url(#p0896746594)" style="fill: #7f7f7f; opacity: 0.5"/>
   </g>
   <g id="patch_45">
    <path d="M 164.923944 448.56 
L 166.501408 448.56 
L 166.501408 422.688 
L 164.923944 422.688 
z
" clip-path="url(#p0896746594)" style="fill: #7f7f7f; opacity: 0.5"/>
   </g>
   <g id="patch_46">
    <path d="M 166.895775 448.56 
L 168.473239 448.56 
L 168.473239 370.944 
L 166.895775 370.944 
z
" clip-path="url(#p0896746594)" style="fill: #7f7f7f; opacity: 0.5"/>
   </g>
   <g id="patch_47">
    <path d="M 168.867606 448.56 
L 170.44507 448.56 
L 170.44507 448.56 
L 168.867606 448.56 
z
" clip-path="url(#p0896746594)" style="fill: #7f7f7f; opacity: 0.5"/>
   </g>
   <g id="patch_48">
    <path d="M 170.839437 448.56 
L 172.416901 448.56 
L 172.416901 422.688 
L 170.839437 422.688 
z
" clip-path="url(#p0896746594)" style="fill: #7f7f7f; opacity: 0.5"/>
   </g>
   <g id="patch_49">
    <path d="M 172.811268 448.56 
L 174.388732 448.56 
L 174.388732 422.688 
L 172.811268 422.688 
z
" clip-path="url(#p0896746594)" style="fill: #7f7f7f; opacity: 0.5"/>
   </g>
   <g id="patch_50">
    <path d="M 174.783099 448.56 
L 176.360563 448.56 
L 176.360563 345.072 
L 174.783099 345.072 
z
" clip-path="url(#p0896746594)" style="fill: #7f7f7f; opacity: 0.5"/>
   </g>
   <g id="patch_51">
    <path d="M 176.75493 448.56 
L 178.332394 448.56 
L 178.332394 370.944 
L 176.75493 370.944 
z
" clip-path="url(#p0896746594)" style="fill: #7f7f7f; opacity: 0.5"/>
   </g>
   <g id="patch_52">
    <path d="M 178.726761 448.56 
L 180.304225 448.56 
L 180.304225 370.944 
L 178.726761 370.944 
z
" clip-path="url(#p0896746594)" style="fill: #7f7f7f; opacity: 0.5"/>
   </g>
   <g id="patch_53">
    <path d="M 180.698592 448.56 
L 182.276056 448.56 
L 182.276056 396.816 
L 180.698592 396.816 
z
" clip-path="url(#p0896746594)" style="fill: #7f7f7f; opacity: 0.5"/>
   </g>
   <g id="patch_54">
    <path d="M 182.670423 448.56 
L 184.247887 448.56 
L 184.247887 345.072 
L 182.670423 345.072 
z
" clip-path="url(#p0896746594)" style="fill: #7f7f7f; opacity: 0.5"/>
   </g>
   <g id="patch_55">
    <path d="M 184.642254 448.56 
L 186.219718 448.56 
L 186.219718 345.072 
L 184.642254 345.072 
z
" clip-path="url(#p0896746594)" style="fill: #7f7f7f; opacity: 0.5"/>
   </g>
   <g id="patch_56">
    <path d="M 186.614085 448.56 
L 188.191549 448.56 
L 188.191549 241.584 
L 186.614085 241.584 
z
" clip-path="url(#p0896746594)" style="fill: #7f7f7f; opacity: 0.5"/>
   </g>
   <g id="patch_57">
    <path d="M 188.585915 448.56 
L 190.16338 448.56 
L 190.16338 319.2 
L 188.585915 319.2 
z
" clip-path="url(#p0896746594)" style="fill: #7f7f7f; opacity: 0.5"/>
   </g>
   <g id="patch_58">
    <path d="M 190.557746 448.56 
L 192.135211 448.56 
L 192.135211 241.584 
L 190.557746 241.584 
z
" clip-path="url(#p0896746594)" style="fill: #7f7f7f; opacity: 0.5"/>
   </g>
   <g id="patch_59">
    <path d="M 192.529577 448.56 
L 194.107042 448.56 
L 194.107042 319.2 
L 192.529577 319.2 
z
" clip-path="url(#p0896746594)" style="fill: #7f7f7f; opacity: 0.5"/>
   </g>
   <g id="patch_60">
    <path d="M 194.501408 448.56 
L 196.078873 448.56 
L 196.078873 345.072 
L 194.501408 345.072 
z
" clip-path="url(#p0896746594)" style="fill: #7f7f7f; opacity: 0.5"/>
   </g>
   <g id="patch_61">
    <path d="M 196.473239 448.56 
L 198.050704 448.56 
L 198.050704 319.2 
L 196.473239 319.2 
z
" clip-path="url(#p0896746594)" style="fill: #7f7f7f; opacity: 0.5"/>
   </g>
   <g id="patch_62">
    <path d="M 198.44507 448.56 
L 200.022535 448.56 
L 200.022535 267.456 
L 198.44507 267.456 
z
" clip-path="url(#p0896746594)" style="fill: #7f7f7f; opacity: 0.5"/>
   </g>
   <g id="patch_63">
    <path d="M 200.416901 448.56 
L 201.994366 448.56 
L 201.994366 396.816 
L 200.416901 396.816 
z
" clip-path="url(#p0896746594)" style="fill: #7f7f7f; opacity: 0.5"/>
   </g>
   <g id="patch_64">
    <path d="M 202.388732 448.56 
L 203.966197 448.56 
L 203.966197 422.688 
L 202.388732 422.688 
z
" clip-path="url(#p0896746594)" style="fill: #7f7f7f; opacity: 0.5"/>
   </g>
   <g id="patch_65">
    <path d="M 204.360563 448.56 
L 205.938028 448.56 
L 205.938028 241.584 
L 204.360563 241.584 
z
" clip-path="url(#p0896746594)" style="fill: #7f7f7f; opacity: 0.5"/>
   </g>
   <g id="patch_66">
    <path d="M 206.332394 448.56 
L 207.909859 448.56 
L 207.909859 396.816 
L 206.332394 396.816 
z
" clip-path="url(#p0896746594)" style="fill: #7f7f7f; opacity: 0.5"/>
   </g>
   <g id="patch_67">
    <path d="M 208.304225 448.56 
L 209.88169 448.56 
L 209.88169 345.072 
L 208.304225 345.072 
z
" clip-path="url(#p0896746594)" style="fill: #7f7f7f; opacity: 0.5"/>
   </g>
   <g id="patch_68">
    <path d="M 210.276056 448.56 
L 211.853521 448.56 
L 211.853521 396.816 
L 210.276056 396.816 
z
" clip-path="url(#p0896746594)" style="fill: #7f7f7f; opacity: 0.5"/>
   </g>
   <g id="patch_69">
    <path d="M 212.247887 448.56 
L 213.825352 448.56 
L 213.825352 215.712 
L 212.247887 215.712 
z
" clip-path="url(#p0896746594)" style="fill: #7f7f7f; opacity: 0.5"/>
   </g>
   <g id="patch_70">
    <path d="M 214.219718 448.56 
L 215.797183 448.56 
L 215.797183 241.584 
L 214.219718 241.584 
z
" clip-path="url(#p0896746594)" style="fill: #7f7f7f; opacity: 0.5"/>
   </g>
   <g id="patch_71">
    <path d="M 216.191549 448.56 
L 217.769014 448.56 
L 217.769014 241.584 
L 216.191549 241.584 
z
" clip-path="url(#p0896746594)" style="fill: #7f7f7f; opacity: 0.5"/>
   </g>
   <g id="patch_72">
    <path d="M 218.16338 448.56 
L 219.740845 448.56 
L 219.740845 267.456 
L 218.16338 267.456 
z
" clip-path="url(#p0896746594)" style="fill: #7f7f7f; opacity: 0.5"/>
   </g>
   <g id="patch_73">
    <path d="M 220.135211 448.56 
L 221.712676 448.56 
L 221.712676 215.712 
L 220.135211 215.712 
z
" clip-path="url(#p0896746594)" style="fill: #7f7f7f; opacity: 0.5"/>
   </g>
   <g id="patch_74">
    <path d="M 222.107042 448.56 
L 223.684507 448.56 
L 223.684507 138.096 
L 222.107042 138.096 
z
" clip-path="url(#p0896746594)" style="fill: #7f7f7f; opacity: 0.5"/>
   </g>
   <g id="patch_75">
    <path d="M 224.078873 448.56 
L 225.656338 448.56 
L 225.656338 138.096 
L 224.078873 138.096 
z
" clip-path="url(#p0896746594)" style="fill: #7f7f7f; opacity: 0.5"/>
   </g>
   <g id="patch_76">
    <path d="M 226.050704 448.56 
L 227.628169 448.56 
L 227.628169 267.456 
L 226.050704 267.456 
z
" clip-path="url(#p0896746594)" style="fill: #7f7f7f; opacity: 0.5"/>
   </g>
   <g id="patch_77">
    <path d="M 228.022535 448.56 
L 229.6 448.56 
L 229.6 138.096 
L 228.022535 138.096 
z
" clip-path="url(#p0896746594)" style="fill: #7f7f7f; opacity: 0.5"/>
   </g>
   <g id="patch_78">
    <path d="M 229.994366 448.56 
L 231.571831 448.56 
L 231.571831 396.816 
L 229.994366 396.816 
z
" clip-path="url(#p0896746594)" style="fill: #7f7f7f; opacity: 0.5"/>
   </g>
   <g id="patch_79">
    <path d="M 231.966197 448.56 
L 233.543662 448.56 
L 233.543662 60.48 
L 231.966197 60.48 
z
" clip-path="url(#p0896746594)" style="fill: #7f7f7f; opacity: 0.5"/>
   </g>
   <g id="patch_80">
    <path d="M 233.938028 448.56 
L 235.515493 448.56 
L 235.515493 163.968 
L 233.938028 163.968 
z
" clip-path="url(#p0896746594)" style="fill: #7f7f7f; opacity: 0.5"/>
   </g>
   <g id="patch_81">
    <path d="M 235.909859 448.56 
L 237.487324 448.56 
L 237.487324 319.2 
L 235.909859 319.2 
z
" clip-path="url(#p0896746594)" style="fill: #7f7f7f; opacity: 0.5"/>
   </g>
   <g id="patch_82">
    <path d="M 237.88169 448.56 
L 239.459155 448.56 
L 239.459155 345.072 
L 237.88169 345.072 
z
" clip-path="url(#p0896746594)" style="fill: #7f7f7f; opacity: 0.5"/>
   </g>
   <g id="patch_83">
    <path d="M 239.853521 448.56 
L 241.430986 448.56 
L 241.430986 396.816 
L 239.853521 396.816 
z
" clip-path="url(#p0896746594)" style="fill: #7f7f7f; opacity: 0.5"/>
   </g>
   <g id="patch_84">
    <path d="M 241.825352 448.56 
L 243.402817 448.56 
L 243.402817 345.072 
L 241.825352 345.072 
z
" clip-path="url(#p0896746594)" style="fill: #7f7f7f; opacity: 0.5"/>
   </g>
   <g id="patch_85">
    <path d="M 243.797183 448.56 
L 245.374648 448.56 
L 245.374648 267.456 
L 243.797183 267.456 
z
" clip-path="url(#p0896746594)" style="fill: #7f7f7f; opacity: 0.5"/>
   </g>
   <g id="patch_86">
    <path d="M 245.769014 448.56 
L 247.346479 448.56 
L 247.346479 112.224 
L 245.769014 112.224 
z
" clip-path="url(#p0896746594)" style="fill: #7f7f7f; opacity: 0.5"/>
   </g>
   <g id="patch_87">
    <path d="M 247.740845 448.56 
L 249.31831 448.56 
L 249.31831 293.328 
L 247.740845 293.328 
z
" clip-path="url(#p0896746594)" style="fill: #7f7f7f; opacity: 0.5"/>
   </g>
   <g id="patch_88">
    <path d="M 249.712676 448.56 
L 251.290141 448.56 
L 251.290141 241.584 
L 249.712676 241.584 
z
" clip-path="url(#p0896746594)" style="fill: #7f7f7f; opacity: 0.5"/>
   </g>
   <g id="patch_89">
    <path d="M 251.684507 448.56 
L 253.261972 448.56 
L 253.261972 345.072 
L 251.684507 345.072 
z
" clip-path="url(#p0896746594)" style="fill: #7f7f7f; opacity: 0.5"/>
   </g>
   <g id="patch_90">
    <path d="M 253.656338 448.56 
L 255.233803 448.56 
L 255.233803 319.2 
L 253.656338 319.2 
z
" clip-path="url(#p0896746594)" style="fill: #7f7f7f; opacity: 0.5"/>
   </g>
   <g id="patch_91">
    <path d="M 255.628169 448.56 
L 257.205634 448.56 
L 257.205634 370.944 
L 255.628169 370.944 
z
" clip-path="url(#p0896746594)" style="fill: #7f7f7f; opacity: 0.5"/>
   </g>
   <g id="patch_92">
    <path d="M 257.6 448.56 
L 259.177465 448.56 
L 259.177465 396.816 
L 257.6 396.816 
z
" clip-path="url(#p0896746594)" style="fill: #7f7f7f; opacity: 0.5"/>
   </g>
   <g id="patch_93">
    <path d="M 259.571831 448.56 
L 261.149296 448.56 
L 261.149296 396.816 
L 259.571831 396.816 
z
" clip-path="url(#p0896746594)" style="fill: #7f7f7f; opacity: 0.5"/>
   </g>
   <g id="patch_94">
    <path d="M 261.543662 448.56 
L 263.121127 448.56 
L 263.121127 448.56 
L 261.543662 448.56 
z
" clip-path="url(#p0896746594)" style="fill: #7f7f7f; opacity: 0.5"/>
   </g>
   <g id="patch_95">
    <path d="M 263.515493 448.56 
L 265.092958 448.56 
L 265.092958 422.688 
L 263.515493 422.688 
z
" clip-path="url(#p0896746594)" style="fill: #7f7f7f; opacity: 0.5"/>
   </g>
   <g id="patch_96">
    <path d="M 265.487324 448.56 
L 267.064789 448.56 
L 267.064789 396.816 
L 265.487324 396.816 
z
" clip-path="url(#p0896746594)" style="fill: #7f7f7f; opacity: 0.5"/>
   </g>
   <g id="patch_97">
    <path d="M 267.459155 448.56 
L 269.03662 448.56 
L 269.03662 370.944 
L 267.459155 370.944 
z
" clip-path="url(#p0896746594)" style="fill: #7f7f7f; opacity: 0.5"/>
   </g>
   <g id="patch_98">
    <path d="M 269.430986 448.56 
L 271.008451 448.56 
L 271.008451 422.688 
L 269.430986 422.688 
z
" clip-path="url(#p0896746594)" style="fill: #7f7f7f; opacity: 0.5"/>
   </g>
   <g id="patch_99">
    <path d="M 271.402817 448.56 
L 272.980282 448.56 
L 272.980282 370.944 
L 271.402817 370.944 
z
" clip-path="url(#p0896746594)" style="fill: #7f7f7f; opacity: 0.5"/>
   </g>
   <g id="patch_100">
    <path d="M 273.374648 448.56 
L 274.952113 448.56 
L 274.952113 396.816 
L 273.374648 396.816 
z
" clip-path="url(#p0896746594)" style="fill: #7f7f7f; opacity: 0.5"/>
   </g>
   <g id="patch_101">
    <path d="M 275.346479 448.56 
L 276.923944 448.56 
L 276.923944 448.56 
L 275.346479 448.56 
z
" clip-path="url(#p0896746594)" style="fill: #7f7f7f; opacity: 0.5"/>
   </g>
   <g id="patch_102">
    <path d="M 277.31831 448.56 
L 278.895775 448.56 
L 278.895775 448.56 
L 277.31831 448.56 
z
" clip-path="url(#p0896746594)" style="fill: #7f7f7f; opacity: 0.5"/>
   </g>
   <g id="patch_103">
    <path d="M 279.290141 448.56 
L 280.867606 448.56 
L 280.867606 422.688 
L 279.290141 422.688 
z
" clip-path="url(#p0896746594)" style="fill: #7f7f7f; opacity: 0.5"/>
   </g>
   <g id="patch_104">
    <path d="M 281.261972 448.56 
L 282.839437 448.56 
L 282.839437 396.816 
L 281.261972 396.816 
z
" clip-path="url(#p0896746594)" style="fill: #7f7f7f; opacity: 0.5"/>
   </g>
   <g id="patch_105">
    <path d="M 283.233803 448.56 
L 284.811268 448.56 
L 284.811268 422.688 
L 283.233803 422.688 
z
" clip-path="url(#p0896746594)" style="fill: #7f7f7f; opacity: 0.5"/>
   </g>
   <g id="patch_106">
    <path d="M 285.205634 448.56 
L 286.783099 448.56 
L 286.783099 448.56 
L 285.205634 448.56 
z
" clip-path="url(#p0896746594)" style="fill: #7f7f7f; opacity: 0.5"/>
   </g>
   <g id="patch_107">
    <path d="M 287.177465 448.56 
L 288.75493 448.56 
L 288.75493 422.688 
L 287.177465 422.688 
z
" clip-path="url(#p0896746594)" style="fill: #7f7f7f; opacity: 0.5"/>
   </g>
   <g id="patch_108">
    <path d="M 289.149296 448.56 
L 290.726761 448.56 
L 290.726761 448.56 
L 289.149296 448.56 
z
" clip-path="url(#p0896746594)" style="fill: #7f7f7f; opacity: 0.5"/>
   </g>
   <g id="patch_109">
    <path d="M 291.121127 448.56 
L 292.698592 448.56 
L 292.698592 422.688 
L 291.121127 422.688 
z
" clip-path="url(#p0896746594)" style="fill: #7f7f7f; opacity: 0.5"/>
   </g>
   <g id="patch_110">
    <path d="M 293.092958 448.56 
L 294.670423 448.56 
L 294.670423 448.56 
L 293.092958 448.56 
z
" clip-path="url(#p0896746594)" style="fill: #7f7f7f; opacity: 0.5"/>
   </g>
   <g id="patch_111">
    <path d="M 295.064789 448.56 
L 296.642254 448.56 
L 296.642254 448.56 
L 295.064789 448.56 
z
" clip-path="url(#p0896746594)" style="fill: #7f7f7f; opacity: 0.5"/>
   </g>
   <g id="patch_112">
    <path d="M 297.03662 448.56 
L 298.614085 448.56 
L 298.614085 448.56 
L 297.03662 448.56 
z
" clip-path="url(#p0896746594)" style="fill: #7f7f7f; opacity: 0.5"/>
   </g>
   <g id="patch_113">
    <path d="M 299.008451 448.56 
L 300.585915 448.56 
L 300.585915 422.688 
L 299.008451 422.688 
z
" clip-path="url(#p0896746594)" style="fill: #7f7f7f; opacity: 0.5"/>
   </g>
   <g id="patch_114">
    <path d="M 300.980282 448.56 
L 302.557746 448.56 
L 302.557746 422.688 
L 300.980282 422.688 
z
" clip-path="url(#p0896746594)" style="fill: #7f7f7f; opacity: 0.5"/>
   </g>
   <g id="patch_115">
    <path d="M 302.952113 448.56 
L 304.529577 448.56 
L 304.529577 448.56 
L 302.952113 448.56 
z
" clip-path="url(#p0896746594)" style="fill: #7f7f7f; opacity: 0.5"/>
   </g>
   <g id="patch_116">
    <path d="M 304.923944 448.56 
L 306.501408 448.56 
L 306.501408 448.56 
L 304.923944 448.56 
z
" clip-path="url(#p0896746594)" style="fill: #7f7f7f; opacity: 0.5"/>
   </g>
   <g id="patch_117">
    <path d="M 306.895775 448.56 
L 308.473239 448.56 
L 308.473239 448.56 
L 306.895775 448.56 
z
" clip-path="url(#p0896746594)" style="fill: #7f7f7f; opacity: 0.5"/>
   </g>
   <g id="patch_118">
    <path d="M 308.867606 448.56 
L 310.44507 448.56 
L 310.44507 422.688 
L 308.867606 422.688 
z
" clip-path="url(#p0896746594)" style="fill: #7f7f7f; opacity: 0.5"/>
   </g>
   <g id="patch_119">
    <path d="M 310.839437 448.56 
L 312.416901 448.56 
L 312.416901 448.56 
L 310.839437 448.56 
z
" clip-path="url(#p0896746594)" style="fill: #7f7f7f; opacity: 0.5"/>
   </g>
   <g id="patch_120">
    <path d="M 312.811268 448.56 
L 314.388732 448.56 
L 314.388732 448.56 
L 312.811268 448.56 
z
" clip-path="url(#p0896746594)" style="fill: #7f7f7f; opacity: 0.5"/>
   </g>
   <g id="patch_121">
    <path d="M 314.783099 448.56 
L 316.360563 448.56 
L 316.360563 448.56 
L 314.783099 448.56 
z
" clip-path="url(#p0896746594)" style="fill: #7f7f7f; opacity: 0.5"/>
   </g>
   <g id="patch_122">
    <path d="M 316.75493 448.56 
L 318.332394 448.56 
L 318.332394 448.56 
L 316.75493 448.56 
z
" clip-path="url(#p0896746594)" style="fill: #7f7f7f; opacity: 0.5"/>
   </g>
   <g id="patch_123">
    <path d="M 318.726761 448.56 
L 320.304225 448.56 
L 320.304225 448.56 
L 318.726761 448.56 
z
" clip-path="url(#p0896746594)" style="fill: #7f7f7f; opacity: 0.5"/>
   </g>
   <g id="patch_124">
    <path d="M 320.698592 448.56 
L 322.276056 448.56 
L 322.276056 448.56 
L 320.698592 448.56 
z
" clip-path="url(#p0896746594)" style="fill: #7f7f7f; opacity: 0.5"/>
   </g>
   <g id="patch_125">
    <path d="M 322.670423 448.56 
L 324.247887 448.56 
L 324.247887 448.56 
L 322.670423 448.56 
z
" clip-path="url(#p0896746594)" style="fill: #7f7f7f; opacity: 0.5"/>
   </g>
   <g id="patch_126">
    <path d="M 324.642254 448.56 
L 326.219718 448.56 
L 326.219718 448.56 
L 324.642254 448.56 
z
" clip-path="url(#p0896746594)" style="fill: #7f7f7f; opacity: 0.5"/>
   </g>
   <g id="patch_127">
    <path d="M 326.614085 448.56 
L 328.191549 448.56 
L 328.191549 448.56 
L 326.614085 448.56 
z
" clip-path="url(#p0896746594)" style="fill: #7f7f7f; opacity: 0.5"/>
   </g>
   <g id="patch_128">
    <path d="M 328.585915 448.56 
L 330.16338 448.56 
L 330.16338 422.688 
L 328.585915 422.688 
z
" clip-path="url(#p0896746594)" style="fill: #7f7f7f; opacity: 0.5"/>
   </g>
   <g id="patch_129">
    <path d="M 330.557746 448.56 
L 332.135211 448.56 
L 332.135211 448.56 
L 330.557746 448.56 
z
" clip-path="url(#p0896746594)" style="fill: #7f7f7f; opacity: 0.5"/>
   </g>
   <g id="patch_130">
    <path d="M 332.529577 448.56 
L 334.107042 448.56 
L 334.107042 448.56 
L 332.529577 448.56 
z
" clip-path="url(#p0896746594)" style="fill: #7f7f7f; opacity: 0.5"/>
   </g>
   <g id="patch_131">
    <path d="M 334.501408 448.56 
L 336.078873 448.56 
L 336.078873 448.56 
L 334.501408 448.56 
z
" clip-path="url(#p0896746594)" style="fill: #7f7f7f; opacity: 0.5"/>
   </g>
   <g id="patch_132">
    <path d="M 336.473239 448.56 
L 338.050704 448.56 
L 338.050704 448.56 
L 336.473239 448.56 
z
" clip-path="url(#p0896746594)" style="fill: #7f7f7f; opacity: 0.5"/>
   </g>
   <g id="patch_133">
    <path d="M 338.44507 448.56 
L 340.022535 448.56 
L 340.022535 448.56 
L 338.44507 448.56 
z
" clip-path="url(#p0896746594)" style="fill: #7f7f7f; opacity: 0.5"/>
   </g>
   <g id="patch_134">
    <path d="M 340.416901 448.56 
L 341.994366 448.56 
L 341.994366 448.56 
L 340.416901 448.56 
z
" clip-path="url(#p0896746594)" style="fill: #7f7f7f; opacity: 0.5"/>
   </g>
   <g id="patch_135">
    <path d="M 342.388732 448.56 
L 343.966197 448.56 
L 343.966197 422.688 
L 342.388732 422.688 
z
" clip-path="url(#p0896746594)" style="fill: #7f7f7f; opacity: 0.5"/>
   </g>
   <g id="patch_136">
    <path d="M 344.360563 448.56 
L 345.938028 448.56 
L 345.938028 448.56 
L 344.360563 448.56 
z
" clip-path="url(#p0896746594)" style="fill: #7f7f7f; opacity: 0.5"/>
   </g>
   <g id="patch_137">
    <path d="M 346.332394 448.56 
L 347.909859 448.56 
L 347.909859 448.56 
L 346.332394 448.56 
z
" clip-path="url(#p0896746594)" style="fill: #7f7f7f; opacity: 0.5"/>
   </g>
   <g id="patch_138">
    <path d="M 348.304225 448.56 
L 349.88169 448.56 
L 349.88169 448.56 
L 348.304225 448.56 
z
" clip-path="url(#p0896746594)" style="fill: #7f7f7f; opacity: 0.5"/>
   </g>
   <g id="patch_139">
    <path d="M 350.276056 448.56 
L 351.853521 448.56 
L 351.853521 448.56 
L 350.276056 448.56 
z
" clip-path="url(#p0896746594)" style="fill: #7f7f7f; opacity: 0.5"/>
   </g>
   <g id="patch_140">
    <path d="M 352.247887 448.56 
L 353.825352 448.56 
L 353.825352 448.56 
L 352.247887 448.56 
z
" clip-path="url(#p0896746594)" style="fill: #7f7f7f; opacity: 0.5"/>
   </g>
   <g id="patch_141">
    <path d="M 354.219718 448.56 
L 355.797183 448.56 
L 355.797183 448.56 
L 354.219718 448.56 
z
" clip-path="url(#p0896746594)" style="fill: #7f7f7f; opacity: 0.5"/>
   </g>
   <g id="patch_142">
    <path d="M 356.191549 448.56 
L 357.769014 448.56 
L 357.769014 448.56 
L 356.191549 448.56 
z
" clip-path="url(#p0896746594)" style="fill: #7f7f7f; opacity: 0.5"/>
   </g>
   <g id="patch_143">
    <path d="M 358.16338 448.56 
L 359.740845 448.56 
L 359.740845 448.56 
L 358.16338 448.56 
z
" clip-path="url(#p0896746594)" style="fill: #7f7f7f; opacity: 0.5"/>
   </g>
   <g id="patch_144">
    <path d="M 360.135211 448.56 
L 361.712676 448.56 
L 361.712676 448.56 
L 360.135211 448.56 
z
" clip-path="url(#p0896746594)" style="fill: #7f7f7f; opacity: 0.5"/>
   </g>
   <g id="patch_145">
    <path d="M 362.107042 448.56 
L 363.684507 448.56 
L 363.684507 448.56 
L 362.107042 448.56 
z
" clip-path="url(#p0896746594)" style="fill: #7f7f7f; opacity: 0.5"/>
   </g>
   <g id="patch_146">
    <path d="M 364.078873 448.56 
L 365.656338 448.56 
L 365.656338 448.56 
L 364.078873 448.56 
z
" clip-path="url(#p0896746594)" style="fill: #7f7f7f; opacity: 0.5"/>
   </g>
   <g id="patch_147">
    <path d="M 366.050704 448.56 
L 367.628169 448.56 
L 367.628169 448.56 
L 366.050704 448.56 
z
" clip-path="url(#p0896746594)" style="fill: #7f7f7f; opacity: 0.5"/>
   </g>
   <g id="patch_148">
    <path d="M 368.022535 448.56 
L 369.6 448.56 
L 369.6 448.56 
L 368.022535 448.56 
z
" clip-path="url(#p0896746594)" style="fill: #7f7f7f; opacity: 0.5"/>
   </g>
   <g id="patch_149">
    <path d="M 369.994366 448.56 
L 371.571831 448.56 
L 371.571831 448.56 
L 369.994366 448.56 
z
" clip-path="url(#p0896746594)" style="fill: #7f7f7f; opacity: 0.5"/>
   </g>
   <g id="patch_150">
    <path d="M 371.966197 448.56 
L 373.543662 448.56 
L 373.543662 448.56 
L 371.966197 448.56 
z
" clip-path="url(#p0896746594)" style="fill: #7f7f7f; opacity: 0.5"/>
   </g>
   <g id="patch_151">
    <path d="M 373.938028 448.56 
L 375.515493 448.56 
L 375.515493 448.56 
L 373.938028 448.56 
z
" clip-path="url(#p0896746594)" style="fill: #7f7f7f; opacity: 0.5"/>
   </g>
   <g id="patch_152">
    <path d="M 375.909859 448.56 
L 377.487324 448.56 
L 377.487324 448.56 
L 375.909859 448.56 
z
" clip-path="url(#p0896746594)" style="fill: #7f7f7f; opacity: 0.5"/>
   </g>
   <g id="patch_153">
    <path d="M 377.88169 448.56 
L 379.459155 448.56 
L 379.459155 448.56 
L 377.88169 448.56 
z
" clip-path="url(#p0896746594)" style="fill: #7f7f7f; opacity: 0.5"/>
   </g>
   <g id="patch_154">
    <path d="M 379.853521 448.56 
L 381.430986 448.56 
L 381.430986 448.56 
L 379.853521 448.56 
z
" clip-path="url(#p0896746594)" style="fill: #7f7f7f; opacity: 0.5"/>
   </g>
   <g id="patch_155">
    <path d="M 381.825352 448.56 
L 383.402817 448.56 
L 383.402817 448.56 
L 381.825352 448.56 
z
" clip-path="url(#p0896746594)" style="fill: #7f7f7f; opacity: 0.5"/>
   </g>
   <g id="patch_156">
    <path d="M 383.797183 448.56 
L 385.374648 448.56 
L 385.374648 448.56 
L 383.797183 448.56 
z
" clip-path="url(#p0896746594)" style="fill: #7f7f7f; opacity: 0.5"/>
   </g>
   <g id="patch_157">
    <path d="M 385.769014 448.56 
L 387.346479 448.56 
L 387.346479 448.56 
L 385.769014 448.56 
z
" clip-path="url(#p0896746594)" style="fill: #7f7f7f; opacity: 0.5"/>
   </g>
   <g id="patch_158">
    <path d="M 387.740845 448.56 
L 389.31831 448.56 
L 389.31831 448.56 
L 387.740845 448.56 
z
" clip-path="url(#p0896746594)" style="fill: #7f7f7f; opacity: 0.5"/>
   </g>
   <g id="patch_159">
    <path d="M 389.712676 448.56 
L 391.290141 448.56 
L 391.290141 448.56 
L 389.712676 448.56 
z
" clip-path="url(#p0896746594)" style="fill: #7f7f7f; opacity: 0.5"/>
   </g>
   <g id="patch_160">
    <path d="M 391.684507 448.56 
L 393.261972 448.56 
L 393.261972 448.56 
L 391.684507 448.56 
z
" clip-path="url(#p0896746594)" style="fill: #7f7f7f; opacity: 0.5"/>
   </g>
   <g id="patch_161">
    <path d="M 393.656338 448.56 
L 395.233803 448.56 
L 395.233803 448.56 
L 393.656338 448.56 
z
" clip-path="url(#p0896746594)" style="fill: #7f7f7f; opacity: 0.5"/>
   </g>
   <g id="patch_162">
    <path d="M 395.628169 448.56 
L 397.205634 448.56 
L 397.205634 448.56 
L 395.628169 448.56 
z
" clip-path="url(#p0896746594)" style="fill: #7f7f7f; opacity: 0.5"/>
   </g>
   <g id="patch_163">
    <path d="M 397.6 448.56 
L 399.177465 448.56 
L 399.177465 448.56 
L 397.6 448.56 
z
" clip-path="url(#p0896746594)" style="fill: #7f7f7f; opacity: 0.5"/>
   </g>
   <g id="patch_164">
    <path d="M 399.571831 448.56 
L 401.149296 448.56 
L 401.149296 448.56 
L 399.571831 448.56 
z
" clip-path="url(#p0896746594)" style="fill: #7f7f7f; opacity: 0.5"/>
   </g>
   <g id="patch_165">
    <path d="M 401.543662 448.56 
L 403.121127 448.56 
L 403.121127 448.56 
L 401.543662 448.56 
z
" clip-path="url(#p0896746594)" style="fill: #7f7f7f; opacity: 0.5"/>
   </g>
   <g id="patch_166">
    <path d="M 403.515493 448.56 
L 405.092958 448.56 
L 405.092958 448.56 
L 403.515493 448.56 
z
" clip-path="url(#p0896746594)" style="fill: #7f7f7f; opacity: 0.5"/>
   </g>
   <g id="patch_167">
    <path d="M 405.487324 448.56 
L 407.064789 448.56 
L 407.064789 448.56 
L 405.487324 448.56 
z
" clip-path="url(#p0896746594)" style="fill: #7f7f7f; opacity: 0.5"/>
   </g>
   <g id="patch_168">
    <path d="M 407.459155 448.56 
L 409.03662 448.56 
L 409.03662 448.56 
L 407.459155 448.56 
z
" clip-path="url(#p0896746594)" style="fill: #7f7f7f; opacity: 0.5"/>
   </g>
   <g id="patch_169">
    <path d="M 409.430986 448.56 
L 411.008451 448.56 
L 411.008451 448.56 
L 409.430986 448.56 
z
" clip-path="url(#p0896746594)" style="fill: #7f7f7f; opacity: 0.5"/>
   </g>
   <g id="patch_170">
    <path d="M 411.402817 448.56 
L 412.980282 448.56 
L 412.980282 448.56 
L 411.402817 448.56 
z
" clip-path="url(#p0896746594)" style="fill: #7f7f7f; opacity: 0.5"/>
   </g>
   <g id="patch_171">
    <path d="M 413.374648 448.56 
L 414.952113 448.56 
L 414.952113 448.56 
L 413.374648 448.56 
z
" clip-path="url(#p0896746594)" style="fill: #7f7f7f; opacity: 0.5"/>
   </g>
   <g id="patch_172">
    <path d="M 415.346479 448.56 
L 416.923944 448.56 
L 416.923944 448.56 
L 415.346479 448.56 
z
" clip-path="url(#p0896746594)" style="fill: #7f7f7f; opacity: 0.5"/>
   </g>
   <g id="patch_173">
    <path d="M 417.31831 448.56 
L 418.895775 448.56 
L 418.895775 448.56 
L 417.31831 448.56 
z
" clip-path="url(#p0896746594)" style="fill: #7f7f7f; opacity: 0.5"/>
   </g>
   <g id="patch_174">
    <path d="M 419.290141 448.56 
L 420.867606 448.56 
L 420.867606 448.56 
L 419.290141 448.56 
z
" clip-path="url(#p0896746594)" style="fill: #7f7f7f; opacity: 0.5"/>
   </g>
   <g id="patch_175">
    <path d="M 421.261972 448.56 
L 422.839437 448.56 
L 422.839437 448.56 
L 421.261972 448.56 
z
" clip-path="url(#p0896746594)" style="fill: #7f7f7f; opacity: 0.5"/>
   </g>
   <g id="patch_176">
    <path d="M 423.233803 448.56 
L 424.811268 448.56 
L 424.811268 448.56 
L 423.233803 448.56 
z
" clip-path="url(#p0896746594)" style="fill: #7f7f7f; opacity: 0.5"/>
   </g>
   <g id="patch_177">
    <path d="M 425.205634 448.56 
L 426.783099 448.56 
L 426.783099 448.56 
L 425.205634 448.56 
z
" clip-path="url(#p0896746594)" style="fill: #7f7f7f; opacity: 0.5"/>
   </g>
   <g id="patch_178">
    <path d="M 427.177465 448.56 
L 428.75493 448.56 
L 428.75493 448.56 
L 427.177465 448.56 
z
" clip-path="url(#p0896746594)" style="fill: #7f7f7f; opacity: 0.5"/>
   </g>
   <g id="patch_179">
    <path d="M 429.149296 448.56 
L 430.726761 448.56 
L 430.726761 448.56 
L 429.149296 448.56 
z
" clip-path="url(#p0896746594)" style="fill: #7f7f7f; opacity: 0.5"/>
   </g>
   <g id="patch_180">
    <path d="M 431.121127 448.56 
L 432.698592 448.56 
L 432.698592 448.56 
L 431.121127 448.56 
z
" clip-path="url(#p0896746594)" style="fill: #7f7f7f; opacity: 0.5"/>
   </g>
   <g id="patch_181">
    <path d="M 433.092958 448.56 
L 434.670423 448.56 
L 434.670423 448.56 
L 433.092958 448.56 
z
" clip-path="url(#p0896746594)" style="fill: #7f7f7f; opacity: 0.5"/>
   </g>
   <g id="patch_182">
    <path d="M 435.064789 448.56 
L 436.642254 448.56 
L 436.642254 448.56 
L 435.064789 448.56 
z
" clip-path="url(#p0896746594)" style="fill: #7f7f7f; opacity: 0.5"/>
   </g>
   <g id="patch_183">
    <path d="M 437.03662 448.56 
L 438.614085 448.56 
L 438.614085 448.56 
L 437.03662 448.56 
z
" clip-path="url(#p0896746594)" style="fill: #7f7f7f; opacity: 0.5"/>
   </g>
   <g id="patch_184">
    <path d="M 439.008451 448.56 
L 440.585915 448.56 
L 440.585915 448.56 
L 439.008451 448.56 
z
" clip-path="url(#p0896746594)" style="fill: #7f7f7f; opacity: 0.5"/>
   </g>
   <g id="patch_185">
    <path d="M 440.980282 448.56 
L 442.557746 448.56 
L 442.557746 448.56 
L 440.980282 448.56 
z
" clip-path="url(#p0896746594)" style="fill: #7f7f7f; opacity: 0.5"/>
   </g>
   <g id="patch_186">
    <path d="M 442.952113 448.56 
L 444.529577 448.56 
L 444.529577 448.56 
L 442.952113 448.56 
z
" clip-path="url(#p0896746594)" style="fill: #7f7f7f; opacity: 0.5"/>
   </g>
   <g id="patch_187">
    <path d="M 444.923944 448.56 
L 446.501408 448.56 
L 446.501408 448.56 
L 444.923944 448.56 
z
" clip-path="url(#p0896746594)" style="fill: #7f7f7f; opacity: 0.5"/>
   </g>
   <g id="patch_188">
    <path d="M 446.895775 448.56 
L 448.473239 448.56 
L 448.473239 448.56 
L 446.895775 448.56 
z
" clip-path="url(#p0896746594)" style="fill: #7f7f7f; opacity: 0.5"/>
   </g>
   <g id="patch_189">
    <path d="M 448.867606 448.56 
L 450.44507 448.56 
L 450.44507 448.56 
L 448.867606 448.56 
z
" clip-path="url(#p0896746594)" style="fill: #7f7f7f; opacity: 0.5"/>
   </g>
   <g id="patch_190">
    <path d="M 450.839437 448.56 
L 452.416901 448.56 
L 452.416901 448.56 
L 450.839437 448.56 
z
" clip-path="url(#p0896746594)" style="fill: #7f7f7f; opacity: 0.5"/>
   </g>
   <g id="patch_191">
    <path d="M 452.811268 448.56 
L 454.388732 448.56 
L 454.388732 448.56 
L 452.811268 448.56 
z
" clip-path="url(#p0896746594)" style="fill: #7f7f7f; opacity: 0.5"/>
   </g>
   <g id="patch_192">
    <path d="M 454.783099 448.56 
L 456.360563 448.56 
L 456.360563 448.56 
L 454.783099 448.56 
z
" clip-path="url(#p0896746594)" style="fill: #7f7f7f; opacity: 0.5"/>
   </g>
   <g id="patch_193">
    <path d="M 456.75493 448.56 
L 458.332394 448.56 
L 458.332394 448.56 
L 456.75493 448.56 
z
" clip-path="url(#p0896746594)" style="fill: #7f7f7f; opacity: 0.5"/>
   </g>
   <g id="patch_194">
    <path d="M 458.726761 448.56 
L 460.304225 448.56 
L 460.304225 448.56 
L 458.726761 448.56 
z
" clip-path="url(#p0896746594)" style="fill: #7f7f7f; opacity: 0.5"/>
   </g>
   <g id="patch_195">
    <path d="M 460.698592 448.56 
L 462.276056 448.56 
L 462.276056 448.56 
L 460.698592 448.56 
z
" clip-path="url(#p0896746594)" style="fill: #7f7f7f; opacity: 0.5"/>
   </g>
   <g id="patch_196">
    <path d="M 462.670423 448.56 
L 464.247887 448.56 
L 464.247887 448.56 
L 462.670423 448.56 
z
" clip-path="url(#p0896746594)" style="fill: #7f7f7f; opacity: 0.5"/>
   </g>
   <g id="patch_197">
    <path d="M 453.6 448.56 
L 453.6 60.48 
" style="fill: none; stroke: #7f7f7f; stroke-width: 0.8; stroke-linejoin: miter; stroke-linecap: square"/>
   </g>
  </g>
  <g id="axes_2">
   <g id="FillBetweenPolyCollection_1">
    <path d="M 82.895775 316.766109 
L 82.895775 442.898108 
L 84.867606 442.839575 
L 86.839437 427.247417 
L 88.811268 357.991473 
L 90.783099 370.63259 
L 92.75493 377.427555 
L 94.726761 391.456607 
L 96.698592 404.057727 
L 98.670423 411.322136 
L 100.642254 419.830919 
L 102.614085 417.414059 
L 104.585915 423.479266 
L 106.557746 428.668771 
L 108.529577 432.714838 
L 110.501408 434.747972 
L 112.473239 436.048311 
L 114.44507 437.838687 
L 116.416901 438.317748 
L 118.388732 439.329426 
L 120.360563 440.14014 
L 122.332394 437.342775 
L 124.304225 438.339394 
L 126.276056 438.684832 
L 128.247887 436.342049 
L 130.219718 436.612265 
L 132.191549 433.159042 
L 134.16338 434.360257 
L 136.135211 431.290512 
L 138.107042 432.199615 
L 140.078873 427.603854 
L 142.050704 424.738278 
L 144.022535 426.387129 
L 145.994366 423.247103 
L 147.966197 420.801413 
L 149.938028 423.861717 
L 151.909859 423.394083 
L 153.88169 426.963153 
L 155.853521 429.631969 
L 157.825352 418.296441 
L 159.797183 413.218849 
L 161.769014 414.243147 
L 163.740845 416.159187 
L 165.712676 419.016272 
L 167.684507 420.066793 
L 169.656338 409.352438 
L 171.628169 418.662347 
L 173.6 420.135058 
L 175.571831 421.194951 
L 177.543662 411.222546 
L 179.515493 407.25554 
L 181.487324 406.365203 
L 183.459155 408.489913 
L 185.430986 402.281129 
L 187.402817 398.868521 
L 189.374648 376.334238 
L 191.346479 379.805741 
L 193.31831 366.544256 
L 195.290141 378.295322 
L 197.261972 390.429308 
L 199.233803 396.456285 
L 201.205634 394.054702 
L 203.177465 410.09993 
L 205.149296 421.15499 
L 207.121127 414.196017 
L 209.092958 423.380674 
L 211.064789 425.77648 
L 213.03662 430.401857 
L 215.008451 422.98824 
L 216.980282 420.601997 
L 218.952113 416.976117 
L 220.923944 417.064487 
L 222.895775 414.671459 
L 224.867606 405.418402 
L 226.839437 399.993688 
L 228.811268 407.007252 
L 230.783099 403.301552 
L 232.75493 419.182773 
L 234.726761 406.209138 
L 236.698592 409.320734 
L 238.670423 420.075908 
L 240.642254 427.000688 
L 242.614085 433.433825 
L 244.585915 435.349765 
L 246.557746 434.068007 
L 248.529577 428.424251 
L 250.501408 431.302969 
L 252.473239 431.087895 
L 254.44507 434.500544 
L 256.416901 435.578136 
L 258.388732 437.855581 
L 260.360563 440.119708 
L 262.332394 441.44039 
L 264.304225 443.393976 
L 266.276056 444.31844 
L 268.247887 444.503406 
L 270.219718 444.001538 
L 272.191549 444.905878 
L 274.16338 444.472442 
L 276.135211 444.331221 
L 278.107042 445.631167 
L 280.078873 446.262201 
L 282.050704 446.43023 
L 284.022535 446.180183 
L 285.994366 446.30138 
L 287.966197 447.012327 
L 289.938028 446.953922 
L 291.909859 447.680722 
L 293.88169 447.530031 
L 295.853521 448.072485 
L 297.825352 448.557322 
L 299.797183 448.559999 
L 301.769014 448.174884 
L 303.740845 447.904948 
L 305.712676 448.389403 
L 307.684507 448.559934 
L 309.656338 448.559999 
L 311.628169 447.930956 
L 313.6 448.405192 
L 315.571831 448.558512 
L 317.543662 448.559998 
L 319.515493 448.559999 
L 321.487324 448.559999 
L 323.459155 448.559999 
L 325.430986 448.56 
L 327.402817 448.56 
L 329.374648 448.56 
L 331.346479 448.138492 
L 333.31831 448.441952 
L 335.290141 448.551151 
L 337.261972 448.559793 
L 339.233803 448.559998 
L 341.205634 448.559999 
L 343.177465 448.559999 
L 345.149296 447.666091 
L 347.121127 447.993559 
L 349.092958 448.206772 
L 351.064789 448.515078 
L 353.03662 448.558776 
L 355.008451 448.559993 
L 356.980282 448.559997 
L 358.952113 448.559999 
L 360.923944 448.559999 
L 362.895775 448.559999 
L 364.867606 448.559999 
L 366.839437 448.559999 
L 368.811268 448.559999 
L 370.783099 448.559999 
L 372.75493 448.56 
L 374.726761 448.56 
L 376.698592 448.56 
L 378.670423 448.56 
L 380.642254 448.56 
L 382.614085 448.56 
L 384.585915 448.56 
L 386.557746 448.56 
L 388.529577 448.56 
L 390.501408 448.56 
L 392.473239 448.56 
L 394.44507 448.56 
L 396.416901 448.56 
L 398.388732 448.56 
L 400.360563 448.56 
L 402.332394 448.56 
L 404.304225 448.56 
L 406.276056 448.56 
L 408.247887 448.56 
L 410.219718 448.56 
L 412.191549 448.56 
L 414.16338 448.56 
L 416.135211 448.56 
L 418.107042 448.56 
L 420.078873 448.56 
L 422.050704 448.56 
L 424.022535 448.56 
L 425.994366 448.56 
L 427.966197 448.56 
L 429.938028 448.56 
L 431.909859 448.56 
L 433.88169 448.56 
L 435.853521 448.56 
L 437.825352 448.56 
L 439.797183 448.56 
L 441.769014 448.56 
L 443.740845 448.56 
L 445.712676 448.56 
L 447.684507 448.56 
L 449.656338 448.56 
L 451.628169 448.56 
L 453.6 448.56 
L 455.571831 448.56 
L 457.543662 448.56 
L 459.515493 448.56 
L 461.487324 448.56 
L 463.459155 448.56 
L 463.459155 438.234363 
L 463.459155 438.234363 
L 461.487324 437.583551 
L 459.515493 438.089951 
L 457.543662 437.903181 
L 455.571831 436.838715 
L 453.6 438.162924 
L 451.628169 437.391489 
L 449.656338 437.350751 
L 447.684507 437.228524 
L 445.712676 437.163284 
L 443.740845 437.447218 
L 441.769014 437.456804 
L 439.797183 437.449823 
L 437.825352 436.556554 
L 435.853521 435.544088 
L 433.88169 437.846278 
L 431.909859 435.818642 
L 429.938028 435.996079 
L 427.966197 436.191183 
L 425.994366 436.393489 
L 424.022535 435.217358 
L 422.050704 436.597085 
L 420.078873 436.551383 
L 418.107042 436.529155 
L 416.135211 435.017794 
L 414.16338 435.821727 
L 412.191549 435.947259 
L 410.219718 434.969562 
L 408.247887 436.025667 
L 406.276056 435.090343 
L 404.304225 434.465614 
L 402.332394 434.546559 
L 400.360563 434.194319 
L 398.388732 434.42601 
L 396.416901 434.337409 
L 394.44507 433.630736 
L 392.473239 434.210513 
L 390.501408 434.459706 
L 388.529577 435.0697 
L 386.557746 434.175252 
L 384.585915 433.879628 
L 382.614085 433.299838 
L 380.642254 432.737671 
L 378.670423 433.436788 
L 376.698592 433.479171 
L 374.726761 432.312844 
L 372.75493 432.072852 
L 370.783099 430.410311 
L 368.811268 431.215048 
L 366.839437 430.23921 
L 364.867606 429.693226 
L 362.895775 429.906893 
L 360.923944 428.256959 
L 358.952113 428.315213 
L 356.980282 427.579081 
L 355.008451 427.109206 
L 353.03662 426.229978 
L 351.064789 424.81153 
L 349.092958 424.846041 
L 347.121127 425.046555 
L 345.149296 423.438779 
L 343.177465 434.23549 
L 341.205634 434.006896 
L 339.233803 434.70485 
L 337.261972 433.208875 
L 335.290141 433.152821 
L 333.31831 433.052086 
L 331.346479 431.253753 
L 329.374648 439.00136 
L 327.402817 438.55148 
L 325.430986 438.412692 
L 323.459155 438.696962 
L 321.487324 437.758521 
L 319.515493 437.606272 
L 317.543662 437.613025 
L 315.571831 437.187694 
L 313.6 435.485306 
L 311.628169 434.714502 
L 309.656338 438.367051 
L 307.684507 437.895612 
L 305.712676 437.376017 
L 303.740845 435.939159 
L 301.769014 438.152042 
L 299.797183 440.826854 
L 297.825352 439.539071 
L 295.853521 438.554214 
L 293.88169 436.125202 
L 291.909859 437.611355 
L 289.938028 435.704674 
L 287.966197 436.326863 
L 285.994366 434.198152 
L 284.022535 433.18663 
L 282.050704 436.252063 
L 280.078873 435.756827 
L 278.107042 432.616889 
L 276.135211 429.389958 
L 274.16338 429.318042 
L 272.191549 431.102226 
L 270.219718 429.860621 
L 268.247887 430.833745 
L 266.276056 430.353238 
L 264.304225 427.860717 
L 262.332394 421.562681 
L 260.360563 417.724502 
L 258.388732 412.986804 
L 256.416901 407.11263 
L 254.44507 404.121955 
L 252.473239 394.82268 
L 250.501408 393.865229 
L 248.529577 385.438174 
L 246.557746 403.420029 
L 244.585915 405.96539 
L 242.614085 400.286425 
L 240.642254 382.999135 
L 238.670423 364.053165 
L 236.698592 335.033719 
L 234.726761 331.914049 
L 232.75493 360.001543 
L 230.783099 315.814193 
L 228.811268 327.187601 
L 226.839437 305.399315 
L 224.867606 318.376043 
L 222.895775 341.698068 
L 220.923944 353.374023 
L 218.952113 351.729907 
L 216.980282 354.116885 
L 215.008451 364.428271 
L 213.03662 385.48825 
L 211.064789 371.739421 
L 209.092958 363.237549 
L 207.121127 340.657144 
L 205.149296 355.007111 
L 203.177465 318.369215 
L 201.205634 274.604925 
L 199.233803 272.088185 
L 197.261972 247.155542 
L 195.290141 213.166452 
L 193.31831 185.748758 
L 191.346479 205.343015 
L 189.374648 202.246806 
L 187.402817 266.742592 
L 185.430986 274.038078 
L 183.459155 288.132297 
L 181.487324 270.954129 
L 179.515493 275.852264 
L 177.543662 284.762018 
L 175.571831 321.312927 
L 173.6 312.711149 
L 171.628169 300.423404 
L 169.656338 267.692543 
L 167.684507 295.494796 
L 165.712676 287.461153 
L 163.740845 284.182895 
L 161.769014 277.062568 
L 159.797183 258.987327 
L 157.825352 279.587316 
L 155.853521 332.484722 
L 153.88169 313.41367 
L 151.909859 281.404287 
L 149.938028 294.257769 
L 147.966197 261.137206 
L 145.994366 273.37407 
L 144.022535 279.172645 
L 142.050704 254.864456 
L 140.078873 284.145316 
L 138.107042 304.27967 
L 136.135211 292.881894 
L 134.16338 322.707324 
L 132.191549 327.012118 
L 130.219718 350.771616 
L 128.247887 353.231295 
L 126.276056 369.601805 
L 124.304225 368.086763 
L 122.332394 366.745585 
L 120.360563 377.36828 
L 118.388732 376.149111 
L 116.416901 370.114362 
L 114.44507 365.182777 
L 112.473239 360.012033 
L 110.501408 346.175839 
L 108.529577 331.061998 
L 106.557746 305.45642 
L 104.585915 273.306488 
L 102.614085 210.682877 
L 100.642254 179.387273 
L 98.670423 57.98955 
L 96.698592 -188.279465 
L 94.726761 -541.747985 
L 92.75493 -995.765968 
L 90.783099 -1447.200291 
L 88.811268 -1429.35633 
L 86.839437 -103.546107 
L 84.867606 312.000926 
L 82.895775 316.766109 
z
" clip-path="url(#p0896746594)" style="fill: #0173b2; fill-opacity: 0.3; stroke: #0173b2; stroke-opacity: 0.3"/>
   </g>
   <g id="FillBetweenPolyCollection_2">
    <path d="M 82.895775 259.607719 
L 82.895775 440.966746 
L 84.867606 440.786715 
L 86.839437 421.202666 
L 88.811268 344.767026 
L 90.783099 348.945024 
L 92.75493 370.489913 
L 94.726761 380.27406 
L 96.698592 393.801161 
L 98.670423 408.386246 
L 100.642254 418.869728 
L 102.614085 415.77452 
L 104.585915 423.746504 
L 106.557746 428.36603 
L 108.529577 431.742728 
L 110.501408 434.444574 
L 112.473239 436.312677 
L 114.44507 437.67017 
L 116.416901 438.497092 
L 118.388732 439.568513 
L 120.360563 439.836617 
L 122.332394 437.776191 
L 124.304225 438.502868 
L 126.276056 439.011202 
L 128.247887 435.784667 
L 130.219718 437.160859 
L 132.191549 433.63694 
L 134.16338 434.998388 
L 136.135211 430.479679 
L 138.107042 432.209448 
L 140.078873 427.555606 
L 142.050704 423.680735 
L 144.022535 426.111449 
L 145.994366 422.538681 
L 147.966197 420.249668 
L 149.938028 425.479538 
L 151.909859 422.587106 
L 153.88169 427.264915 
L 155.853521 429.665519 
L 157.825352 417.965422 
L 159.797183 412.220841 
L 161.769014 414.997221 
L 163.740845 415.201154 
L 165.712676 417.096048 
L 167.684507 418.741321 
L 169.656338 410.776859 
L 171.628169 417.481895 
L 173.6 419.306063 
L 175.571831 422.579536 
L 177.543662 411.525875 
L 179.515493 406.806762 
L 181.487324 404.858869 
L 183.459155 410.149058 
L 185.430986 402.089665 
L 187.402817 398.401182 
L 189.374648 376.360925 
L 191.346479 378.979729 
L 193.31831 368.114801 
L 195.290141 374.213321 
L 197.261972 388.690519 
L 199.233803 395.510343 
L 201.205634 393.239955 
L 203.177465 410.333207 
L 205.149296 421.055628 
L 207.121127 415.328663 
L 209.092958 423.360026 
L 211.064789 425.428142 
L 213.03662 430.094816 
L 215.008451 422.302305 
L 216.980282 419.042049 
L 218.952113 416.685898 
L 220.923944 416.885883 
L 222.895775 413.907621 
L 224.867606 403.053437 
L 226.839437 399.916209 
L 228.811268 406.160809 
L 230.783099 401.389069 
L 232.75493 418.228184 
L 234.726761 405.178665 
L 236.698592 407.583732 
L 238.670423 418.084138 
L 240.642254 425.874876 
L 242.614085 432.040436 
L 244.585915 433.944951 
L 246.557746 432.804814 
L 248.529577 425.576241 
L 250.501408 428.747035 
L 252.473239 428.521091 
L 254.44507 431.896276 
L 256.416901 433.296859 
L 258.388732 435.569257 
L 260.360563 437.992025 
L 262.332394 439.100117 
L 264.304225 441.542453 
L 266.276056 442.382185 
L 268.247887 442.389915 
L 270.219718 441.769948 
L 272.191549 442.61171 
L 274.16338 441.469772 
L 276.135211 441.422075 
L 278.107042 442.533901 
L 280.078873 443.745866 
L 282.050704 443.594635 
L 284.022535 442.692003 
L 285.994366 442.670063 
L 287.966197 443.350261 
L 289.938028 443.241387 
L 291.909859 443.825671 
L 293.88169 443.485388 
L 295.853521 443.96263 
L 297.825352 444.084921 
L 299.797183 444.500585 
L 301.769014 443.94761 
L 303.740845 443.224586 
L 305.712676 443.414267 
L 307.684507 443.885221 
L 309.656338 443.994794 
L 311.628169 443.371451 
L 313.6 443.594416 
L 315.571831 443.954013 
L 317.543662 443.726212 
L 319.515493 444.12011 
L 321.487324 444.452211 
L 323.459155 444.581994 
L 325.430986 444.390533 
L 327.402817 444.507646 
L 329.374648 444.824372 
L 331.346479 443.199173 
L 333.31831 443.589144 
L 335.290141 443.56841 
L 337.261972 443.797105 
L 339.233803 443.656589 
L 341.205634 443.43535 
L 343.177465 444.150643 
L 345.149296 441.743741 
L 347.121127 442.087499 
L 349.092958 442.259702 
L 351.064789 442.423835 
L 353.03662 442.555008 
L 355.008451 442.707774 
L 356.980282 442.697736 
L 358.952113 442.59267 
L 360.923944 443.105253 
L 362.895775 443.171731 
L 364.867606 443.011298 
L 366.839437 443.167746 
L 368.811268 443.585989 
L 370.783099 443.381055 
L 372.75493 443.466389 
L 374.726761 443.769403 
L 376.698592 443.121678 
L 378.670423 443.899236 
L 380.642254 443.660688 
L 382.614085 443.343326 
L 384.585915 443.775602 
L 386.557746 443.634026 
L 388.529577 443.560537 
L 390.501408 443.309306 
L 392.473239 443.792015 
L 394.44507 443.524324 
L 396.416901 443.486164 
L 398.388732 443.441281 
L 400.360563 443.333532 
L 402.332394 443.325228 
L 404.304225 443.409785 
L 406.276056 443.325393 
L 408.247887 443.526344 
L 410.219718 443.624225 
L 412.191549 443.185328 
L 414.16338 443.320702 
L 416.135211 443.216579 
L 418.107042 443.536349 
L 420.078873 442.867658 
L 422.050704 443.248998 
L 424.022535 443.246397 
L 425.994366 442.821984 
L 427.966197 442.655826 
L 429.938028 442.879522 
L 431.909859 443.17756 
L 433.88169 443.37536 
L 435.853521 442.793566 
L 437.825352 442.771995 
L 439.797183 442.857119 
L 441.769014 442.445845 
L 443.740845 442.772483 
L 445.712676 442.821545 
L 447.684507 442.439208 
L 449.656338 442.381068 
L 451.628169 442.429697 
L 453.6 442.108467 
L 455.571831 442.587905 
L 457.543662 442.286016 
L 459.515493 442.293807 
L 461.487324 442.444702 
L 463.459155 442.322051 
L 463.459155 308.166399 
L 463.459155 308.166399 
L 461.487324 296.030203 
L 459.515493 301.815919 
L 457.543662 308.822127 
L 455.571831 306.98577 
L 453.6 310.317484 
L 451.628169 312.225862 
L 449.656338 315.781565 
L 447.684507 315.986306 
L 445.712676 311.37233 
L 443.740845 317.071482 
L 441.769014 324.517412 
L 439.797183 314.284394 
L 437.825352 318.651978 
L 435.853521 327.305539 
L 433.88169 315.969602 
L 431.909859 325.666442 
L 429.938028 324.807013 
L 427.966197 331.846001 
L 425.994366 335.642405 
L 424.022535 326.925396 
L 422.050704 319.154577 
L 420.078873 340.505867 
L 418.107042 334.270693 
L 416.135211 335.736246 
L 414.16338 337.982741 
L 412.191549 346.388202 
L 410.219718 349.812293 
L 408.247887 345.369 
L 406.276056 349.386772 
L 404.304225 353.132066 
L 402.332394 356.377124 
L 400.360563 362.589478 
L 398.388732 355.526122 
L 396.416901 367.162536 
L 394.44507 365.799891 
L 392.473239 365.42876 
L 390.501408 368.294851 
L 388.529577 368.631566 
L 386.557746 375.02891 
L 384.585915 376.332602 
L 382.614085 377.92237 
L 380.642254 375.879673 
L 378.670423 379.514077 
L 376.698592 385.946084 
L 374.726761 381.412611 
L 372.75493 383.110005 
L 370.783099 385.667006 
L 368.811268 383.53024 
L 366.839437 386.05912 
L 364.867606 385.525856 
L 362.895775 381.541602 
L 360.923944 381.761202 
L 358.952113 380.664926 
L 356.980282 381.773073 
L 355.008451 381.907712 
L 353.03662 378.883932 
L 351.064789 379.051947 
L 349.092958 377.08885 
L 347.121127 377.00797 
L 345.149296 377.184268 
L 343.177465 395.85621 
L 341.205634 400.593089 
L 339.233803 399.378106 
L 337.261972 399.967153 
L 335.290141 399.525532 
L 333.31831 402.773924 
L 331.346479 400.429522 
L 329.374648 412.458681 
L 327.402817 413.983112 
L 325.430986 414.13963 
L 323.459155 411.474793 
L 321.487324 413.019517 
L 319.515493 414.64647 
L 317.543662 412.256021 
L 315.571831 412.500729 
L 313.6 412.345974 
L 311.628169 411.429134 
L 309.656338 418.066148 
L 307.684507 417.56706 
L 305.712676 416.878819 
L 303.740845 414.205053 
L 301.769014 419.969988 
L 299.797183 423.526853 
L 297.825352 422.516781 
L 295.853521 420.875122 
L 293.88169 419.582142 
L 291.909859 422.188961 
L 289.938028 420.772842 
L 287.966197 422.881402 
L 285.994366 420.448447 
L 284.022535 420.432195 
L 282.050704 425.222958 
L 280.078873 425.982324 
L 278.107042 424.079156 
L 276.135211 419.460475 
L 274.16338 420.050431 
L 272.191549 423.75941 
L 270.219718 420.635627 
L 268.247887 424.430078 
L 266.276056 424.384748 
L 264.304225 421.473994 
L 262.332394 414.8316 
L 260.360563 411.887932 
L 258.388732 406.419998 
L 256.416901 398.977963 
L 254.44507 396.281693 
L 252.473239 386.533563 
L 250.501408 388.350732 
L 248.529577 379.560575 
L 246.557746 396.762593 
L 244.585915 402.369618 
L 242.614085 395.680243 
L 240.642254 378.295056 
L 238.670423 359.254056 
L 236.698592 326.621916 
L 234.726761 327.219123 
L 232.75493 354.324332 
L 230.783099 313.294054 
L 228.811268 321.970238 
L 226.839437 303.697084 
L 224.867606 321.366492 
L 222.895775 340.126819 
L 220.923944 352.577519 
L 218.952113 347.520453 
L 216.980282 354.884622 
L 215.008451 365.015205 
L 213.03662 384.97493 
L 211.064789 372.703396 
L 209.092958 365.933567 
L 207.121127 337.010539 
L 205.149296 356.123887 
L 203.177465 320.093383 
L 201.205634 273.686508 
L 199.233803 271.661621 
L 197.261972 251.57284 
L 195.290141 223.730606 
L 193.31831 183.853536 
L 191.346479 213.392687 
L 189.374648 206.094715 
L 187.402817 259.719181 
L 185.430986 276.520849 
L 183.459155 284.670062 
L 181.487324 275.138691 
L 179.515493 280.6257 
L 177.543662 287.984448 
L 175.571831 321.715488 
L 173.6 311.628466 
L 171.628169 299.248412 
L 169.656338 254.094847 
L 167.684507 292.966649 
L 165.712676 284.94962 
L 163.740845 285.148453 
L 161.769014 267.696102 
L 159.797183 259.047608 
L 157.825352 279.164288 
L 155.853521 324.05459 
L 153.88169 303.713302 
L 151.909859 285.268221 
L 149.938028 284.503819 
L 147.966197 258.328108 
L 145.994366 269.441486 
L 144.022535 275.601906 
L 142.050704 257.844711 
L 140.078873 278.12605 
L 138.107042 310.308567 
L 136.135211 293.624388 
L 134.16338 327.392045 
L 132.191549 324.828897 
L 130.219718 353.602927 
L 128.247887 350.947777 
L 126.276056 369.498367 
L 124.304225 369.126867 
L 122.332394 366.793055 
L 120.360563 381.05319 
L 118.388732 378.647886 
L 116.416901 374.277463 
L 114.44507 367.481418 
L 112.473239 360.271004 
L 110.501408 350.466694 
L 108.529577 336.327067 
L 106.557746 315.972248 
L 104.585915 281.55704 
L 102.614085 212.731728 
L 100.642254 171.148007 
L 98.670423 39.170689 
L 96.698592 -152.880622 
L 94.726761 -572.218397 
L 92.75493 -1173.52762 
L 90.783099 -1663.787979 
L 88.811268 -2127.311147 
L 86.839437 -322.821631 
L 84.867606 258.062875 
L 82.895775 259.607719 
z
" clip-path="url(#p0896746594)" style="fill: #de8f05; fill-opacity: 0.3; stroke: #de8f05; stroke-opacity: 0.3"/>
   </g>
   <g id="matplotlib.axis_2">
    <g id="xtick_1">
     <g id="line2d_9">
      <defs>
       <path id="m187f6009c8" d="M 0 0 
L 0 3.5 
" style="stroke: #000000; stroke-width: 0.8"/>
      </defs>
      <g>
       <use xlink:href="#m187f6009c8" x="92.75493" y="448.56" style="stroke: #000000; stroke-width: 0.8"/>
      </g>
     </g>
     <g id="text_10">
      <text style="font-size: 16px; font-family: 'Arial', sans-serif; text-anchor: middle" x="92.75493" y="467.208438" transform="rotate(-0 92.75493 467.208438)">1 Jul</text>
     </g>
    </g>
    <g id="xtick_2">
     <g id="line2d_10">
      <g>
       <use xlink:href="#m187f6009c8" x="153.88169" y="448.56" style="stroke: #000000; stroke-width: 0.8"/>
      </g>
     </g>
     <g id="text_11">
      <text style="font-size: 16px; font-family: 'Arial', sans-serif; text-anchor: middle" x="153.88169" y="467.208438" transform="rotate(-0 153.88169 467.208438)">1 Aug</text>
     </g>
    </g>
    <g id="xtick_3">
     <g id="line2d_11">
      <g>
       <use xlink:href="#m187f6009c8" x="215.008451" y="448.56" style="stroke: #000000; stroke-width: 0.8"/>
      </g>
     </g>
     <g id="text_12">
      <text style="font-size: 16px; font-family: 'Arial', sans-serif; text-anchor: middle" x="215.008451" y="467.208438" transform="rotate(-0 215.008451 467.208438)">1 Sep</text>
     </g>
    </g>
    <g id="xtick_4">
     <g id="line2d_12">
      <g>
       <use xlink:href="#m187f6009c8" x="274.16338" y="448.56" style="stroke: #000000; stroke-width: 0.8"/>
      </g>
     </g>
     <g id="text_13">
      <text style="font-size: 16px; font-family: 'Arial', sans-serif; text-anchor: middle" x="274.16338" y="467.2175" transform="rotate(-0 274.16338 467.2175)">1 Oct</text>
     </g>
    </g>
    <g id="xtick_5">
     <g id="line2d_13">
      <g>
       <use xlink:href="#m187f6009c8" x="335.290141" y="448.56" style="stroke: #000000; stroke-width: 0.8"/>
      </g>
     </g>
     <g id="text_14">
      <text style="font-size: 16px; font-family: 'Arial', sans-serif; text-anchor: middle" x="335.290141" y="467.208438" transform="rotate(-0 335.290141 467.208438)">1 Nov</text>
     </g>
    </g>
    <g id="xtick_6">
     <g id="line2d_14">
      <g>
       <use xlink:href="#m187f6009c8" x="394.44507" y="448.56" style="stroke: #000000; stroke-width: 0.8"/>
      </g>
     </g>
     <g id="text_15">
      <text style="font-size: 16px; font-family: 'Arial', sans-serif; text-anchor: middle" x="394.44507" y="467.208438" transform="rotate(-0 394.44507 467.208438)">1 Dec</text>
     </g>
    </g>
    <g id="text_16">
     <text style="font-size: 16px; font-family: 'Arial', sans-serif; text-anchor: middle" x="258.3" y="486.233125" transform="rotate(-0 258.3 486.233125)">Date (2017)</text>
    </g>
   </g>
   <g id="matplotlib.axis_3">
    <g id="ytick_9">
     <g id="line2d_15">
      <defs>
       <path id="m86358cdcbd" d="M 0 0 
L -3.5 0 
" style="stroke: #000000; stroke-width: 0.8"/>
      </defs>
      <g>
       <use xlink:href="#m86358cdcbd" x="63" y="448.56" style="stroke: #000000; stroke-width: 0.8"/>
      </g>
     </g>
     <g id="text_17">
      <text style="font-size: 16px; font-family: 'Arial', sans-serif; text-anchor: end" x="56" y="454.384219" transform="rotate(-0 56 454.384219)">0</text>
     </g>
    </g>
    <g id="ytick_10">
     <g id="line2d_16">
      <g>
       <use xlink:href="#m86358cdcbd" x="63" y="370.944" style="stroke: #000000; stroke-width: 0.8"/>
      </g>
     </g>
     <g id="text_18">
      <text style="font-size: 16px; font-family: 'Arial', sans-serif; text-anchor: end" x="56" y="376.768219" transform="rotate(-0 56 376.768219)">2</text>
     </g>
    </g>
    <g id="ytick_11">
     <g id="line2d_17">
      <g>
       <use xlink:href="#m86358cdcbd" x="63" y="293.328" style="stroke: #000000; stroke-width: 0.8"/>
      </g>
     </g>
     <g id="text_19">
      <text style="font-size: 16px; font-family: 'Arial', sans-serif; text-anchor: end" x="56" y="299.152219" transform="rotate(-0 56 299.152219)">4</text>
     </g>
    </g>
    <g id="ytick_12">
     <g id="line2d_18">
      <g>
       <use xlink:href="#m86358cdcbd" x="63" y="215.712" style="stroke: #000000; stroke-width: 0.8"/>
      </g>
     </g>
     <g id="text_20">
      <text style="font-size: 16px; font-family: 'Arial', sans-serif; text-anchor: end" x="56" y="221.536219" transform="rotate(-0 56 221.536219)">6</text>
     </g>
    </g>
    <g id="ytick_13">
     <g id="line2d_19">
      <g>
       <use xlink:href="#m86358cdcbd" x="63" y="138.096" style="stroke: #000000; stroke-width: 0.8"/>
      </g>
     </g>
     <g id="text_21">
      <text style="font-size: 16px; font-family: 'Arial', sans-serif; text-anchor: end" x="56" y="143.920219" transform="rotate(-0 56 143.920219)">8</text>
     </g>
    </g>
    <g id="ytick_14">
     <g id="line2d_20">
      <g>
       <use xlink:href="#m86358cdcbd" x="63" y="60.48" style="stroke: #000000; stroke-width: 0.8"/>
      </g>
     </g>
     <g id="text_22">
      <text style="font-size: 16px; font-family: 'Arial', sans-serif; text-anchor: end" x="56" y="66.304219" transform="rotate(-0 56 66.304219)">10</text>
     </g>
    </g>
    <g id="text_23">
     <text style="font-size: 16px; font-family: 'Arial', sans-serif; text-anchor: middle" x="30.837812" y="254.52" transform="rotate(-90 30.837812 254.52)">Time-dependent reproduction number</text>
    </g>
   </g>
   <g id="line2d_21">
    <path d="M 82.895775 411.135366 
L 84.867606 409.791408 
L 86.839437 289.469002 
L 88.253746 -1 
M 92.683904 -1 
L 92.75493 2.22937 
L 94.726761 124.868829 
L 96.698592 225.544987 
L 98.670423 295.828165 
L 100.642254 338.275322 
L 102.614085 344.511831 
L 104.585915 370.716053 
L 106.557746 386.635715 
L 108.529577 396.899063 
L 110.501408 404.076829 
L 112.473239 409.849543 
L 114.44507 413.065532 
L 118.388732 418.117199 
L 120.360563 419.451055 
L 122.332394 413.483563 
L 126.276056 415.670024 
L 128.247887 407.433335 
L 130.219718 408.296442 
L 132.191549 398.218121 
L 134.16338 399.321457 
L 136.135211 387.315485 
L 138.107042 390.428101 
L 140.078873 379.590189 
L 142.050704 366.85689 
L 144.022535 377.518286 
L 145.994366 371.159474 
L 147.966197 365.53961 
L 149.938028 378.360009 
L 151.909859 374.209667 
L 153.88169 385.955029 
L 155.853521 395.033339 
L 157.825352 367.627027 
L 159.797183 357.436179 
L 161.769014 363.500005 
L 163.740845 366.698842 
L 165.712676 370.864916 
L 167.684507 373.386074 
L 169.656338 356.133294 
L 171.628169 374.558776 
L 173.6 379.989795 
L 175.571831 384.337046 
L 177.543662 363.465098 
L 179.515493 357.48743 
L 181.487324 354.315216 
L 183.459155 361.852062 
L 185.430986 352.497412 
L 187.402817 345.585005 
L 189.374648 307.940756 
L 191.346479 311.595766 
L 193.31831 294.289343 
L 195.290141 312.645334 
L 197.261972 334.277323 
L 199.233803 346.025641 
L 201.205634 345.505995 
L 203.177465 373.581514 
L 205.149296 394.841774 
L 207.121127 384.576845 
L 209.092958 399.920264 
L 211.064789 404.005997 
L 213.03662 412.58853 
L 215.008451 399.873205 
L 216.980282 393.492613 
L 218.952113 390.51383 
L 220.923944 391.112731 
L 222.895775 384.548957 
L 224.867606 369.994102 
L 226.839437 361.729352 
L 228.811268 374.92195 
L 230.783099 367.442132 
L 232.75493 394.774177 
L 234.726761 375.463348 
L 236.698592 378.258629 
L 238.670423 396.653729 
L 240.642254 409.304338 
L 242.614085 420.111837 
L 244.585915 423.573409 
L 246.557746 421.637629 
L 248.529577 410.555287 
L 250.501408 416.086817 
L 252.473239 416.01918 
L 254.44507 422.201697 
L 256.416901 424.070193 
L 258.388732 427.90575 
L 260.360563 431.492951 
L 262.332394 433.846438 
L 264.304225 437.593266 
L 266.276056 439.093145 
L 268.247887 439.369482 
L 270.219718 438.565564 
L 272.191549 439.790737 
L 274.16338 438.769161 
L 276.135211 438.772267 
L 278.107042 440.94209 
L 280.078873 442.451265 
L 282.050704 442.703495 
L 284.022535 441.680114 
L 285.994366 441.964419 
L 287.966197 443.179949 
L 289.938028 443.032925 
L 291.909859 444.107428 
L 293.88169 443.67643 
L 295.853521 444.590989 
L 299.797183 445.908633 
L 301.769014 444.77303 
L 303.740845 443.84452 
L 307.684507 445.039524 
L 309.656338 445.50222 
L 311.628169 443.760733 
L 315.571831 444.830881 
L 317.543662 445.196893 
L 323.459155 445.808201 
L 329.374648 446.265082 
L 331.346479 443.384698 
L 333.31831 443.793187 
L 337.261972 444.172685 
L 339.233803 444.526055 
L 341.205634 444.524178 
L 343.177465 444.683653 
L 345.149296 440.912537 
L 347.121127 441.436899 
L 349.092958 441.573362 
L 353.03662 442.335289 
L 355.008451 442.540988 
L 358.952113 443.355006 
L 360.923944 443.40731 
L 364.867606 444.03424 
L 368.811268 444.341723 
L 374.726761 444.814326 
L 376.698592 445.124048 
L 380.642254 445.058039 
L 382.614085 445.272531 
L 386.557746 445.383422 
L 388.529577 445.550272 
L 396.416901 445.710599 
L 398.388732 445.824844 
L 402.332394 445.878271 
L 408.247887 446.052825 
L 414.16338 446.133123 
L 416.135211 446.103229 
L 418.107042 446.330926 
L 420.078873 446.266375 
L 422.050704 446.33715 
L 424.022535 446.270071 
L 427.966197 446.49991 
L 429.938028 446.361394 
L 433.88169 446.54236 
L 435.853521 446.417695 
L 439.797183 446.617152 
L 463.459155 446.751126 
L 463.459155 446.751126 
" clip-path="url(#p0896746594)" style="fill: none; stroke: #0173b2; stroke-width: 2; stroke-linecap: square"/>
   </g>
   <g id="line2d_22">
    <path d="M 82.895775 394.209489 
L 84.867606 394.401705 
L 86.839437 240.041799 
L 87.767279 -1 
M 93.437759 -1 
L 94.726761 95.87815 
L 96.698592 220.914059 
L 98.670423 289.488964 
L 100.642254 337.525502 
L 102.614085 344.379756 
L 104.585915 372.311521 
L 106.557746 387.77472 
L 108.529577 398.155192 
L 110.501408 405.067537 
L 112.473239 409.962872 
L 114.44507 413.788257 
L 116.416901 416.443582 
L 118.388732 418.527837 
L 120.360563 419.937174 
L 122.332394 413.396156 
L 124.304225 415.050475 
L 126.276056 416.109288 
L 128.247887 407.209702 
L 130.219718 409.020451 
L 132.191549 397.995443 
L 134.16338 399.796276 
L 136.135211 387.016415 
L 138.107042 391.636634 
L 140.078873 378.532431 
L 142.050704 367.549218 
L 144.022535 376.690835 
L 145.994366 369.067365 
L 147.966197 363.943023 
L 149.938028 375.657214 
L 151.909859 372.850772 
L 153.88169 383.974798 
L 155.853521 393.564495 
L 157.825352 366.898323 
L 159.797183 356.274322 
L 161.769014 361.608694 
L 163.740845 365.586187 
L 165.712676 368.872279 
L 167.684507 372.506899 
L 169.656338 353.76586 
L 171.628169 373.718459 
L 173.6 379.09735 
L 175.571831 383.6727 
L 177.543662 363.701051 
L 179.515493 357.815344 
L 181.487324 354.773159 
L 183.459155 361.999883 
L 185.430986 352.605652 
L 187.402817 346.010128 
L 189.374648 308.620115 
L 191.346479 312.91041 
L 193.31831 293.672159 
L 195.290141 313.47583 
L 197.261972 335.744878 
L 199.233803 345.76726 
L 201.205634 345.45724 
L 203.177465 374.343686 
L 205.149296 394.974545 
L 207.121127 384.64824 
L 209.092958 400.196894 
L 211.064789 404.206334 
L 213.03662 412.226338 
L 215.008451 399.508012 
L 216.980282 393.707744 
L 218.952113 389.624582 
L 220.923944 390.428417 
L 222.895775 383.951678 
L 224.867606 369.32848 
L 226.839437 360.318818 
L 228.811268 372.628074 
L 230.783099 365.105301 
L 232.75493 392.414132 
L 234.726761 372.291145 
L 236.698592 374.593961 
L 238.670423 394.10977 
L 240.642254 406.73546 
L 242.614085 417.652619 
L 244.585915 421.100508 
L 246.557746 418.548575 
L 248.529577 406.779951 
L 250.501408 412.225747 
L 252.473239 411.965168 
L 254.44507 417.6951 
L 256.416901 419.671159 
L 260.360563 427.462911 
L 262.332394 429.664833 
L 264.304225 433.829214 
L 266.276056 435.45233 
L 268.247887 435.393932 
L 270.219718 433.770324 
L 272.191549 435.312656 
L 274.16338 433.279748 
L 276.135211 433.074951 
L 278.107042 435.438535 
L 280.078873 437.061944 
L 282.050704 436.89956 
L 284.022535 434.607756 
L 285.994366 434.577582 
L 287.966197 435.846906 
L 289.938028 434.958686 
L 291.909859 436.077138 
L 293.88169 434.725299 
L 295.853521 435.809138 
L 297.825352 436.676082 
L 299.797183 437.024318 
L 301.769014 435.291279 
L 303.740845 433.127616 
L 305.712676 434.019635 
L 309.656338 435.131045 
L 311.628169 432.530212 
L 313.6 432.915078 
L 317.543662 433.328431 
L 319.515493 433.880263 
L 321.487324 433.955258 
L 323.459155 433.825748 
L 325.430986 434.371428 
L 327.402817 434.521258 
L 329.374648 434.342187 
L 331.346479 429.569334 
L 333.31831 430.205158 
L 335.290141 429.619066 
L 337.261972 429.861158 
L 339.233803 429.818788 
L 343.177465 429.517283 
L 345.149296 422.045398 
L 347.121127 421.997994 
L 349.092958 422.202684 
L 351.064789 422.815902 
L 355.008451 423.768057 
L 358.952113 423.855367 
L 360.923944 424.375494 
L 362.895775 424.437822 
L 364.867606 425.201876 
L 368.811268 425.591915 
L 372.75493 425.629715 
L 374.726761 425.228228 
L 376.698592 425.80636 
L 378.670423 425.045308 
L 380.642254 424.617057 
L 382.614085 424.474395 
L 384.585915 424.007058 
L 386.557746 423.669816 
L 388.529577 422.781728 
L 390.501408 422.667365 
L 392.473239 421.775455 
L 394.44507 422.140415 
L 396.416901 421.54271 
L 398.388732 419.775988 
L 400.360563 420.945174 
L 402.332394 419.855792 
L 404.304225 419.869679 
L 406.276056 418.114563 
L 408.247887 417.84087 
L 412.191549 417.447564 
L 414.16338 416.226412 
L 416.135211 415.478993 
L 418.107042 415.171975 
L 420.078873 416.41335 
L 422.050704 414.095011 
L 424.022535 413.644019 
L 425.994366 414.940688 
L 429.938028 412.566106 
L 431.909859 413.092818 
L 433.88169 411.248084 
L 435.853521 412.093522 
L 437.825352 411.055883 
L 439.797183 410.286612 
L 441.769014 411.881656 
L 443.740845 410.575486 
L 445.712676 410.244104 
L 447.684507 409.310297 
L 449.656338 409.464414 
L 451.628169 408.522278 
L 453.6 409.205618 
L 455.571831 408.587688 
L 457.543662 407.781901 
L 459.515493 407.189559 
L 461.487324 406.757923 
L 463.459155 407.553092 
L 463.459155 407.553092 
" clip-path="url(#p0896746594)" style="fill: none; stroke: #de8f05; stroke-width: 2; stroke-linecap: square"/>
   </g>
   <g id="patch_198">
    <path d="M 63 448.56 
L 63 60.48 
" style="fill: none; stroke: #000000; stroke-width: 0.8; stroke-linejoin: miter; stroke-linecap: square"/>
   </g>
   <g id="patch_199">
    <path d="M 63 448.56 
L 453.6 448.56 
" style="fill: none; stroke: #000000; stroke-width: 0.8; stroke-linejoin: miter; stroke-linecap: square"/>
   </g>
   <g id="legend_1">
    <g id="patch_200">
     <path d="M 296.281563 111.957891 
L 443.8 111.957891 
Q 446.6 111.957891 446.6 109.157891 
L 446.6 70.28 
Q 446.6 67.48 443.8 67.48 
L 296.281563 67.48 
Q 293.481562 67.48 293.481562 70.28 
L 293.481562 109.157891 
Q 293.481562 111.957891 296.281563 111.957891 
z
" style="fill: #ffffff; opacity: 0.8; stroke: #cccccc; stroke-linejoin: miter"/>
    </g>
    <g id="line2d_23">
     <path d="M 299.081563 78.372383 
L 313.081563 78.372383 
L 327.081563 78.372383 
" style="fill: none; stroke: #0173b2; stroke-width: 2; stroke-linecap: square"/>
    </g>
    <g id="text_24">
     <text style="font-size: 14px; font-family: 'Arial', sans-serif; text-anchor: start" x="338.281563" y="83.272383" transform="rotate(-0 338.281563 83.272383)">Suitability-based</text>
    </g>
    <g id="line2d_24">
     <path d="M 299.081563 98.511328 
L 313.081563 98.511328 
L 327.081563 98.511328 
" style="fill: none; stroke: #de8f05; stroke-width: 2; stroke-linecap: square"/>
    </g>
    <g id="text_25">
     <text style="font-size: 14px; font-family: 'Arial', sans-serif; text-anchor: start" x="338.281563" y="103.411328" transform="rotate(-0 338.281563 103.411328)">Autoregressive</text>
    </g>
   </g>
  </g>
 </g>
 <defs>
  <clipPath id="p0896746594">
   <rect x="63" y="60.48" width="390.6" height="388.08"/>
  </clipPath>
 </defs>
</svg>
