<?xml version="1.0" encoding="utf-8" standalone="no"?>
<!DOCTYPE svg PUBLIC "-//W3C//DTD SVG 1.1//EN"
  "http://www.w3.org/Graphics/SVG/1.1/DTD/svg11.dtd">
<svg xmlns:xlink="http://www.w3.org/1999/xlink" width="504pt" height="504pt" viewBox="0 0 504 504" xmlns="http://www.w3.org/2000/svg" version="1.1">
 <metadata>
  <rdf:RDF xmlns:dc="http://purl.org/dc/elements/1.1/" xmlns:cc="http://creativecommons.org/ns#" xmlns:rdf="http://www.w3.org/1999/02/22-rdf-syntax-ns#">
   <cc:Work>
    <dc:type rdf:resource="http://purl.org/dc/dcmitype/StillImage"/>
    <dc:date>2026-07-17T10:21:11.779484</dc:date>
    <dc:format>image/svg+xml</dc:format>
    <dc:creator>
     <cc:Agent>
      <dc:title>Matplotlib v3.11.0, https://matplotlib.org/</dc:title>
     </cc:Agent>
    </dc:creator>
   </cc:Work>
  </rdf:RDF>
 </metadata>
 <defs>
  <style type="text/css">*{stroke-linejoin: round; stroke-linecap: butt}</style>
 </defs>
 <g id="figure_1">
  <g id="patch_1">
   <path d="M 0 504 
L 504 504 
L 504 0 
L 0 0 
L 0 504 
z
" style="fill: none"/>
  </g>
  <g id="axes_1">
   <g id="patch_2">
    <path d="M 63 448.56 
L 453.6 448.56 
L 453.6 60.48 
L 63 60.48 
L 63 448.56 
z
" style="fill: none"/>
   </g>
   <g id="matplotlib.axis_1">
    <g id="ytick_1">
     <g id="line2d_1">
      <defs>
       <path id="m34bbaf771a" d="M 0 0 
L 3.5 0 
" style="stroke: #7f7f7f; stroke-width: 0.8"/>
      </defs>
      <g>
       <use xlink:href="#m34bbaf771a" x="453.6" y="448.56" style="fill: #7f7f7f; stroke: #7f7f7f; stroke-width: 0.8"/>
      </g>
     </g>
     <g id="text_1">
      <text style="font-size: 16px; font-family: 'Arial', sans-serif; text-anchor: start; fill: #7f7f7f" x="460.6" y="454.384219" transform="rotate(-0 460.6 454.384219)">0</text>
     </g>
    </g>
    <g id="ytick_2">
     <g id="line2d_2">
      <g>
       <use xlink:href="#m34bbaf771a" x="453.6" y="396.816" style="fill: #7f7f7f; stroke: #7f7f7f; stroke-width: 0.8"/>
      </g>
     </g>
     <g id="text_2">
      <text style="font-size: 16px; font-family: 'Arial', sans-serif; text-anchor: start; fill: #7f7f7f" x="460.6" y="402.640219" transform="rotate(-0 460.6 402.640219)">2</text>
     </g>
    </g>
    <g id="ytick_3">
     <g id="line2d_3">
      <g>
       <use xlink:href="#m34bbaf771a" x="453.6" y="345.072" style="fill: #7f7f7f; stroke: #7f7f7f; stroke-width: 0.8"/>
      </g>
     </g>
     <g id="text_3">
      <text style="font-size: 16px; font-family: 'Arial', sans-serif; text-anchor: start; fill: #7f7f7f" x="460.6" y="350.896219" transform="rotate(-0 460.6 350.896219)">4</text>
     </g>
    </g>
    <g id="ytick_4">
     <g id="line2d_4">
      <g>
       <use xlink:href="#m34bbaf771a" x="453.6" y="293.328" style="fill: #7f7f7f; stroke: #7f7f7f; stroke-width: 0.8"/>
      </g>
     </g>
     <g id="text_4">
      <text style="font-size: 16px; font-family: 'Arial', sans-serif; text-anchor: start; fill: #7f7f7f" x="460.6" y="299.152219" transform="rotate(-0 460.6 299.152219)">6</text>
     </g>
    </g>
    <g id="ytick_5">
     <g id="line2d_5">
      <g>
       <use xlink:href="#m34bbaf771a" x="453.6" y="241.584" style="fill: #7f7f7f; stroke: #7f7f7f; stroke-width: 0.8"/>
      </g>
     </g>
     <g id="text_5">
      <text style="font-size: 16px; font-family: 'Arial', sans-serif; text-anchor: start; fill: #7f7f7f" x="460.6" y="247.408219" transform="rotate(-0 460.6 247.408219)">8</text>
     </g>
    </g>
    <g id="ytick_6">
     <g id="line2d_6">
      <g>
       <use xlink:href="#m34bbaf771a" x="453.6" y="189.84" style="fill: #7f7f7f; stroke: #7f7f7f; stroke-width: 0.8"/>
      </g>
     </g>
     <g id="text_6">
      <text style="font-size: 16px; font-family: 'Arial', sans-serif; text-anchor: start; fill: #7f7f7f" x="460.6" y="195.664219" transform="rotate(-0 460.6 195.664219)">10</text>
     </g>
    </g>
    <g id="ytick_7">
     <g id="line2d_7">
      <g>
       <use xlink:href="#m34bbaf771a" x="453.6" y="138.096" style="fill: #7f7f7f; stroke: #7f7f7f; stroke-width: 0.8"/>
      </g>
     </g>
     <g id="text_7">
      <text style="font-size: 16px; font-family: 'Arial', sans-serif; text-anchor: start; fill: #7f7f7f" x="460.6" y="143.920219" transform="rotate(-0 460.6 143.920219)">12</text>
     </g>
    </g>
    <g id="ytick_8">
     <g id="line2d_8">
      <g>
       <use xlink:href="#m34bbaf771a" x="453.6" y="86.352" style="fill: #7f7f7f; stroke: #7f7f7f; stroke-width: 0.8"/>
      </g>
     </g>
     <g id="text_8">
      <text style="font-size: 16px; font-family: 'Arial', sans-serif; text-anchor: start; fill: #7f7f7f" x="460.6" y="92.176219" transform="rotate(-0 460.6 92.176219)">14</text>
     </g>
    </g>
    <g id="text_9">
     <text style="font-size: 16px; font-family: 'Arial', sans-serif; text-anchor: middle; fill: #7f7f7f" x="494.043438" y="254.52" transform="rotate(-90 494.043438 254.52)">Number of cases</text>
    </g>
   </g>
   <g id="patch_3">
    <path d="M 80.754545 448.56 
L 82.379675 448.56 
L 82.379675 396.816 
L 80.754545 396.816 
z
" clip-path="url(#p329bddea44)" style="fill: #7f7f7f; opacity: 0.5"/>
   </g>
   <g id="patch_4">
    <path d="M 82.785958 448.56 
L 84.411088 448.56 
L 84.411088 396.816 
L 82.785958 396.816 
z
" clip-path="url(#p329bddea44)" style="fill: #7f7f7f; opacity: 0.5"/>
   </g>
   <g id="patch_5">
    <path d="M 84.817371 448.56 
L 86.442501 448.56 
L 86.442501 396.816 
L 84.817371 396.816 
z
" clip-path="url(#p329bddea44)" style="fill: #7f7f7f; opacity: 0.5"/>
   </g>
   <g id="patch_6">
    <path d="M 86.848783 448.56 
L 88.473913 448.56 
L 88.473913 448.56 
L 86.848783 448.56 
z
" clip-path="url(#p329bddea44)" style="fill: #7f7f7f; opacity: 0.5"/>
   </g>
   <g id="patch_7">
    <path d="M 88.880196 448.56 
L 90.505326 448.56 
L 90.505326 448.56 
L 88.880196 448.56 
z
" clip-path="url(#p329bddea44)" style="fill: #7f7f7f; opacity: 0.5"/>
   </g>
   <g id="patch_8">
    <path d="M 90.911608 448.56 
L 92.536738 448.56 
L 92.536738 448.56 
L 90.911608 448.56 
z
" clip-path="url(#p329bddea44)" style="fill: #7f7f7f; opacity: 0.5"/>
   </g>
   <g id="patch_9">
    <path d="M 92.943021 448.56 
L 94.568151 448.56 
L 94.568151 448.56 
L 92.943021 448.56 
z
" clip-path="url(#p329bddea44)" style="fill: #7f7f7f; opacity: 0.5"/>
   </g>
   <g id="patch_10">
    <path d="M 94.974433 448.56 
L 96.599563 448.56 
L 96.599563 448.56 
L 94.974433 448.56 
z
" clip-path="url(#p329bddea44)" style="fill: #7f7f7f; opacity: 0.5"/>
   </g>
   <g id="patch_11">
    <path d="M 97.005846 448.56 
L 98.630976 448.56 
L 98.630976 448.56 
L 97.005846 448.56 
z
" clip-path="url(#p329bddea44)" style="fill: #7f7f7f; opacity: 0.5"/>
   </g>
   <g id="patch_12">
    <path d="M 99.037258 448.56 
L 100.662388 448.56 
L 100.662388 422.688 
L 99.037258 422.688 
z
" clip-path="url(#p329bddea44)" style="fill: #7f7f7f; opacity: 0.5"/>
   </g>
   <g id="patch_13">
    <path d="M 101.068671 448.56 
L 102.693801 448.56 
L 102.693801 448.56 
L 101.068671 448.56 
z
" clip-path="url(#p329bddea44)" style="fill: #7f7f7f; opacity: 0.5"/>
   </g>
   <g id="patch_14">
    <path d="M 103.100083 448.56 
L 104.725213 448.56 
L 104.725213 448.56 
L 103.100083 448.56 
z
" clip-path="url(#p329bddea44)" style="fill: #7f7f7f; opacity: 0.5"/>
   </g>
   <g id="patch_15">
    <path d="M 105.131496 448.56 
L 106.756626 448.56 
L 106.756626 448.56 
L 105.131496 448.56 
z
" clip-path="url(#p329bddea44)" style="fill: #7f7f7f; opacity: 0.5"/>
   </g>
   <g id="patch_16">
    <path d="M 107.162908 448.56 
L 108.788038 448.56 
L 108.788038 448.56 
L 107.162908 448.56 
z
" clip-path="url(#p329bddea44)" style="fill: #7f7f7f; opacity: 0.5"/>
   </g>
   <g id="patch_17">
    <path d="M 109.194321 448.56 
L 110.819451 448.56 
L 110.819451 448.56 
L 109.194321 448.56 
z
" clip-path="url(#p329bddea44)" style="fill: #7f7f7f; opacity: 0.5"/>
   </g>
   <g id="patch_18">
    <path d="M 111.225733 448.56 
L 112.850863 448.56 
L 112.850863 448.56 
L 111.225733 448.56 
z
" clip-path="url(#p329bddea44)" style="fill: #7f7f7f; opacity: 0.5"/>
   </g>
   <g id="patch_19">
    <path d="M 113.257146 448.56 
L 114.882276 448.56 
L 114.882276 448.56 
L 113.257146 448.56 
z
" clip-path="url(#p329bddea44)" style="fill: #7f7f7f; opacity: 0.5"/>
   </g>
   <g id="patch_20">
    <path d="M 115.288558 448.56 
L 116.913688 448.56 
L 116.913688 448.56 
L 115.288558 448.56 
z
" clip-path="url(#p329bddea44)" style="fill: #7f7f7f; opacity: 0.5"/>
   </g>
   <g id="patch_21">
    <path d="M 117.319971 448.56 
L 118.945101 448.56 
L 118.945101 448.56 
L 117.319971 448.56 
z
" clip-path="url(#p329bddea44)" style="fill: #7f7f7f; opacity: 0.5"/>
   </g>
   <g id="patch_22">
    <path d="M 119.351383 448.56 
L 120.976513 448.56 
L 120.976513 422.688 
L 119.351383 422.688 
z
" clip-path="url(#p329bddea44)" style="fill: #7f7f7f; opacity: 0.5"/>
   </g>
   <g id="patch_23">
    <path d="M 121.382796 448.56 
L 123.007926 448.56 
L 123.007926 448.56 
L 121.382796 448.56 
z
" clip-path="url(#p329bddea44)" style="fill: #7f7f7f; opacity: 0.5"/>
   </g>
   <g id="patch_24">
    <path d="M 123.414208 448.56 
L 125.039338 448.56 
L 125.039338 448.56 
L 123.414208 448.56 
z
" clip-path="url(#p329bddea44)" style="fill: #7f7f7f; opacity: 0.5"/>
   </g>
   <g id="patch_25">
    <path d="M 125.445621 448.56 
L 127.070751 448.56 
L 127.070751 422.688 
L 125.445621 422.688 
z
" clip-path="url(#p329bddea44)" style="fill: #7f7f7f; opacity: 0.5"/>
   </g>
   <g id="patch_26">
    <path d="M 127.477033 448.56 
L 129.102164 448.56 
L 129.102164 448.56 
L 127.477033 448.56 
z
" clip-path="url(#p329bddea44)" style="fill: #7f7f7f; opacity: 0.5"/>
   </g>
   <g id="patch_27">
    <path d="M 129.508446 448.56 
L 131.133576 448.56 
L 131.133576 422.688 
L 129.508446 422.688 
z
" clip-path="url(#p329bddea44)" style="fill: #7f7f7f; opacity: 0.5"/>
   </g>
   <g id="patch_28">
    <path d="M 131.539859 448.56 
L 133.164989 448.56 
L 133.164989 448.56 
L 131.539859 448.56 
z
" clip-path="url(#p329bddea44)" style="fill: #7f7f7f; opacity: 0.5"/>
   </g>
   <g id="patch_29">
    <path d="M 133.571271 448.56 
L 135.196401 448.56 
L 135.196401 422.688 
L 133.571271 422.688 
z
" clip-path="url(#p329bddea44)" style="fill: #7f7f7f; opacity: 0.5"/>
   </g>
   <g id="patch_30">
    <path d="M 135.602684 448.56 
L 137.227814 448.56 
L 137.227814 448.56 
L 135.602684 448.56 
z
" clip-path="url(#p329bddea44)" style="fill: #7f7f7f; opacity: 0.5"/>
   </g>
   <g id="patch_31">
    <path d="M 137.634096 448.56 
L 139.259226 448.56 
L 139.259226 422.688 
L 137.634096 422.688 
z
" clip-path="url(#p329bddea44)" style="fill: #7f7f7f; opacity: 0.5"/>
   </g>
   <g id="patch_32">
    <path d="M 139.665509 448.56 
L 141.290639 448.56 
L 141.290639 422.688 
L 139.665509 422.688 
z
" clip-path="url(#p329bddea44)" style="fill: #7f7f7f; opacity: 0.5"/>
   </g>
   <g id="patch_33">
    <path d="M 141.696921 448.56 
L 143.322051 448.56 
L 143.322051 448.56 
L 141.696921 448.56 
z
" clip-path="url(#p329bddea44)" style="fill: #7f7f7f; opacity: 0.5"/>
   </g>
   <g id="patch_34">
    <path d="M 143.728334 448.56 
L 145.353464 448.56 
L 145.353464 422.688 
L 143.728334 422.688 
z
" clip-path="url(#p329bddea44)" style="fill: #7f7f7f; opacity: 0.5"/>
   </g>
   <g id="patch_35">
    <path d="M 145.759746 448.56 
L 147.384876 448.56 
L 147.384876 422.688 
L 145.759746 422.688 
z
" clip-path="url(#p329bddea44)" style="fill: #7f7f7f; opacity: 0.5"/>
   </g>
   <g id="patch_36">
    <path d="M 147.791159 448.56 
L 149.416289 448.56 
L 149.416289 448.56 
L 147.791159 448.56 
z
" clip-path="url(#p329bddea44)" style="fill: #7f7f7f; opacity: 0.5"/>
   </g>
   <g id="patch_37">
    <path d="M 149.822571 448.56 
L 151.447701 448.56 
L 151.447701 422.688 
L 149.822571 422.688 
z
" clip-path="url(#p329bddea44)" style="fill: #7f7f7f; opacity: 0.5"/>
   </g>
   <g id="patch_38">
    <path d="M 151.853984 448.56 
L 153.479114 448.56 
L 153.479114 448.56 
L 151.853984 448.56 
z
" clip-path="url(#p329bddea44)" style="fill: #7f7f7f; opacity: 0.5"/>
   </g>
   <g id="patch_39">
    <path d="M 153.885396 448.56 
L 155.510526 448.56 
L 155.510526 448.56 
L 153.885396 448.56 
z
" clip-path="url(#p329bddea44)" style="fill: #7f7f7f; opacity: 0.5"/>
   </g>
   <g id="patch_40">
    <path d="M 155.916809 448.56 
L 157.541939 448.56 
L 157.541939 370.944 
L 155.916809 370.944 
z
" clip-path="url(#p329bddea44)" style="fill: #7f7f7f; opacity: 0.5"/>
   </g>
   <g id="patch_41">
    <path d="M 157.948221 448.56 
L 159.573351 448.56 
L 159.573351 396.816 
L 157.948221 396.816 
z
" clip-path="url(#p329bddea44)" style="fill: #7f7f7f; opacity: 0.5"/>
   </g>
   <g id="patch_42">
    <path d="M 159.979634 448.56 
L 161.604764 448.56 
L 161.604764 422.688 
L 159.979634 422.688 
z
" clip-path="url(#p329bddea44)" style="fill: #7f7f7f; opacity: 0.5"/>
   </g>
   <g id="patch_43">
    <path d="M 162.011046 448.56 
L 163.636176 448.56 
L 163.636176 422.688 
L 162.011046 422.688 
z
" clip-path="url(#p329bddea44)" style="fill: #7f7f7f; opacity: 0.5"/>
   </g>
   <g id="patch_44">
    <path d="M 164.042459 448.56 
L 165.667589 448.56 
L 165.667589 422.688 
L 164.042459 422.688 
z
" clip-path="url(#p329bddea44)" style="fill: #7f7f7f; opacity: 0.5"/>
   </g>
   <g id="patch_45">
    <path d="M 166.073871 448.56 
L 167.699001 448.56 
L 167.699001 422.688 
L 166.073871 422.688 
z
" clip-path="url(#p329bddea44)" style="fill: #7f7f7f; opacity: 0.5"/>
   </g>
   <g id="patch_46">
    <path d="M 168.105284 448.56 
L 169.730414 448.56 
L 169.730414 370.944 
L 168.105284 370.944 
z
" clip-path="url(#p329bddea44)" style="fill: #7f7f7f; opacity: 0.5"/>
   </g>
   <g id="patch_47">
    <path d="M 170.136696 448.56 
L 171.761827 448.56 
L 171.761827 448.56 
L 170.136696 448.56 
z
" clip-path="url(#p329bddea44)" style="fill: #7f7f7f; opacity: 0.5"/>
   </g>
   <g id="patch_48">
    <path d="M 172.168109 448.56 
L 173.793239 448.56 
L 173.793239 422.688 
L 172.168109 422.688 
z
" clip-path="url(#p329bddea44)" style="fill: #7f7f7f; opacity: 0.5"/>
   </g>
   <g id="patch_49">
    <path d="M 174.199522 448.56 
L 175.824652 448.56 
L 175.824652 422.688 
L 174.199522 422.688 
z
" clip-path="url(#p329bddea44)" style="fill: #7f7f7f; opacity: 0.5"/>
   </g>
   <g id="patch_50">
    <path d="M 176.230934 448.56 
L 177.856064 448.56 
L 177.856064 345.072 
L 176.230934 345.072 
z
" clip-path="url(#p329bddea44)" style="fill: #7f7f7f; opacity: 0.5"/>
   </g>
   <g id="patch_51">
    <path d="M 178.262347 448.56 
L 179.887477 448.56 
L 179.887477 370.944 
L 178.262347 370.944 
z
" clip-path="url(#p329bddea44)" style="fill: #7f7f7f; opacity: 0.5"/>
   </g>
   <g id="patch_52">
    <path d="M 180.293759 448.56 
L 181.918889 448.56 
L 181.918889 370.944 
L 180.293759 370.944 
z
" clip-path="url(#p329bddea44)" style="fill: #7f7f7f; opacity: 0.5"/>
   </g>
   <g id="patch_53">
    <path d="M 182.325172 448.56 
L 183.950302 448.56 
L 183.950302 396.816 
L 182.325172 396.816 
z
" clip-path="url(#p329bddea44)" style="fill: #7f7f7f; opacity: 0.5"/>
   </g>
   <g id="patch_54">
    <path d="M 184.356584 448.56 
L 185.981714 448.56 
L 185.981714 345.072 
L 184.356584 345.072 
z
" clip-path="url(#p329bddea44)" style="fill: #7f7f7f; opacity: 0.5"/>
   </g>
   <g id="patch_55">
    <path d="M 186.387997 448.56 
L 188.013127 448.56 
L 188.013127 345.072 
L 186.387997 345.072 
z
" clip-path="url(#p329bddea44)" style="fill: #7f7f7f; opacity: 0.5"/>
   </g>
   <g id="patch_56">
    <path d="M 188.419409 448.56 
L 190.044539 448.56 
L 190.044539 241.584 
L 188.419409 241.584 
z
" clip-path="url(#p329bddea44)" style="fill: #7f7f7f; opacity: 0.5"/>
   </g>
   <g id="patch_57">
    <path d="M 190.450822 448.56 
L 192.075952 448.56 
L 192.075952 319.2 
L 190.450822 319.2 
z
" clip-path="url(#p329bddea44)" style="fill: #7f7f7f; opacity: 0.5"/>
   </g>
   <g id="patch_58">
    <path d="M 192.482234 448.56 
L 194.107364 448.56 
L 194.107364 241.584 
L 192.482234 241.584 
z
" clip-path="url(#p329bddea44)" style="fill: #7f7f7f; opacity: 0.5"/>
   </g>
   <g id="patch_59">
    <path d="M 194.513647 448.56 
L 196.138777 448.56 
L 196.138777 319.2 
L 194.513647 319.2 
z
" clip-path="url(#p329bddea44)" style="fill: #7f7f7f; opacity: 0.5"/>
   </g>
   <g id="patch_60">
    <path d="M 196.545059 448.56 
L 198.170189 448.56 
L 198.170189 345.072 
L 196.545059 345.072 
z
" clip-path="url(#p329bddea44)" style="fill: #7f7f7f; opacity: 0.5"/>
   </g>
   <g id="patch_61">
    <path d="M 198.576472 448.56 
L 200.201602 448.56 
L 200.201602 319.2 
L 198.576472 319.2 
z
" clip-path="url(#p329bddea44)" style="fill: #7f7f7f; opacity: 0.5"/>
   </g>
   <g id="patch_62">
    <path d="M 200.607884 448.56 
L 202.233014 448.56 
L 202.233014 267.456 
L 200.607884 267.456 
z
" clip-path="url(#p329bddea44)" style="fill: #7f7f7f; opacity: 0.5"/>
   </g>
   <g id="patch_63">
    <path d="M 202.639297 448.56 
L 204.264427 448.56 
L 204.264427 396.816 
L 202.639297 396.816 
z
" clip-path="url(#p329bddea44)" style="fill: #7f7f7f; opacity: 0.5"/>
   </g>
   <g id="patch_64">
    <path d="M 204.670709 448.56 
L 206.295839 448.56 
L 206.295839 422.688 
L 204.670709 422.688 
z
" clip-path="url(#p329bddea44)" style="fill: #7f7f7f; opacity: 0.5"/>
   </g>
   <g id="patch_65">
    <path d="M 206.702122 448.56 
L 208.327252 448.56 
L 208.327252 241.584 
L 206.702122 241.584 
z
" clip-path="url(#p329bddea44)" style="fill: #7f7f7f; opacity: 0.5"/>
   </g>
   <g id="patch_66">
    <path d="M 208.733534 448.56 
L 210.358664 448.56 
L 210.358664 396.816 
L 208.733534 396.816 
z
" clip-path="url(#p329bddea44)" style="fill: #7f7f7f; opacity: 0.5"/>
   </g>
   <g id="patch_67">
    <path d="M 210.764947 448.56 
L 212.390077 448.56 
L 212.390077 345.072 
L 210.764947 345.072 
z
" clip-path="url(#p329bddea44)" style="fill: #7f7f7f; opacity: 0.5"/>
   </g>
   <g id="patch_68">
    <path d="M 212.796359 448.56 
L 214.421489 448.56 
L 214.421489 396.816 
L 212.796359 396.816 
z
" clip-path="url(#p329bddea44)" style="fill: #7f7f7f; opacity: 0.5"/>
   </g>
   <g id="patch_69">
    <path d="M 214.827772 448.56 
L 216.452902 448.56 
L 216.452902 215.712 
L 214.827772 215.712 
z
" clip-path="url(#p329bddea44)" style="fill: #7f7f7f; opacity: 0.5"/>
   </g>
   <g id="patch_70">
    <path d="M 216.859185 448.56 
L 218.484315 448.56 
L 218.484315 241.584 
L 216.859185 241.584 
z
" clip-path="url(#p329bddea44)" style="fill: #7f7f7f; opacity: 0.5"/>
   </g>
   <g id="patch_71">
    <path d="M 218.890597 448.56 
L 220.515727 448.56 
L 220.515727 241.584 
L 218.890597 241.584 
z
" clip-path="url(#p329bddea44)" style="fill: #7f7f7f; opacity: 0.5"/>
   </g>
   <g id="patch_72">
    <path d="M 220.92201 448.56 
L 222.54714 448.56 
L 222.54714 267.456 
L 220.92201 267.456 
z
" clip-path="url(#p329bddea44)" style="fill: #7f7f7f; opacity: 0.5"/>
   </g>
   <g id="patch_73">
    <path d="M 222.953422 448.56 
L 224.578552 448.56 
L 224.578552 215.712 
L 222.953422 215.712 
z
" clip-path="url(#p329bddea44)" style="fill: #7f7f7f; opacity: 0.5"/>
   </g>
   <g id="patch_74">
    <path d="M 224.984835 448.56 
L 226.609965 448.56 
L 226.609965 138.096 
L 224.984835 138.096 
z
" clip-path="url(#p329bddea44)" style="fill: #7f7f7f; opacity: 0.5"/>
   </g>
   <g id="patch_75">
    <path d="M 227.016247 448.56 
L 228.641377 448.56 
L 228.641377 138.096 
L 227.016247 138.096 
z
" clip-path="url(#p329bddea44)" style="fill: #7f7f7f; opacity: 0.5"/>
   </g>
   <g id="patch_76">
    <path d="M 229.04766 448.56 
L 230.67279 448.56 
L 230.67279 267.456 
L 229.04766 267.456 
z
" clip-path="url(#p329bddea44)" style="fill: #7f7f7f; opacity: 0.5"/>
   </g>
   <g id="patch_77">
    <path d="M 231.079072 448.56 
L 232.704202 448.56 
L 232.704202 138.096 
L 231.079072 138.096 
z
" clip-path="url(#p329bddea44)" style="fill: #7f7f7f; opacity: 0.5"/>
   </g>
   <g id="patch_78">
    <path d="M 233.110485 448.56 
L 234.735615 448.56 
L 234.735615 396.816 
L 233.110485 396.816 
z
" clip-path="url(#p329bddea44)" style="fill: #7f7f7f; opacity: 0.5"/>
   </g>
   <g id="patch_79">
    <path d="M 235.141897 448.56 
L 236.767027 448.56 
L 236.767027 60.48 
L 235.141897 60.48 
z
" clip-path="url(#p329bddea44)" style="fill: #7f7f7f; opacity: 0.5"/>
   </g>
   <g id="patch_80">
    <path d="M 237.17331 448.56 
L 238.79844 448.56 
L 238.79844 163.968 
L 237.17331 163.968 
z
" clip-path="url(#p329bddea44)" style="fill: #7f7f7f; opacity: 0.5"/>
   </g>
   <g id="patch_81">
    <path d="M 239.204722 448.56 
L 240.829852 448.56 
L 240.829852 319.2 
L 239.204722 319.2 
z
" clip-path="url(#p329bddea44)" style="fill: #7f7f7f; opacity: 0.5"/>
   </g>
   <g id="patch_82">
    <path d="M 241.236135 448.56 
L 242.861265 448.56 
L 242.861265 345.072 
L 241.236135 345.072 
z
" clip-path="url(#p329bddea44)" style="fill: #7f7f7f; opacity: 0.5"/>
   </g>
   <g id="patch_83">
    <path d="M 243.267547 448.56 
L 244.892677 448.56 
L 244.892677 396.816 
L 243.267547 396.816 
z
" clip-path="url(#p329bddea44)" style="fill: #7f7f7f; opacity: 0.5"/>
   </g>
   <g id="patch_84">
    <path d="M 245.29896 448.56 
L 246.92409 448.56 
L 246.92409 345.072 
L 245.29896 345.072 
z
" clip-path="url(#p329bddea44)" style="fill: #7f7f7f; opacity: 0.5"/>
   </g>
   <g id="patch_85">
    <path d="M 247.330372 448.56 
L 248.955502 448.56 
L 248.955502 267.456 
L 247.330372 267.456 
z
" clip-path="url(#p329bddea44)" style="fill: #7f7f7f; opacity: 0.5"/>
   </g>
   <g id="patch_86">
    <path d="M 249.361785 448.56 
L 250.986915 448.56 
L 250.986915 112.224 
L 249.361785 112.224 
z
" clip-path="url(#p329bddea44)" style="fill: #7f7f7f; opacity: 0.5"/>
   </g>
   <g id="patch_87">
    <path d="M 251.393197 448.56 
L 253.018327 448.56 
L 253.018327 293.328 
L 251.393197 293.328 
z
" clip-path="url(#p329bddea44)" style="fill: #7f7f7f; opacity: 0.5"/>
   </g>
   <g id="patch_88">
    <path d="M 253.42461 448.56 
L 255.04974 448.56 
L 255.04974 241.584 
L 253.42461 241.584 
z
" clip-path="url(#p329bddea44)" style="fill: #7f7f7f; opacity: 0.5"/>
   </g>
   <g id="patch_89">
    <path d="M 255.456022 448.56 
L 257.081152 448.56 
L 257.081152 345.072 
L 255.456022 345.072 
z
" clip-path="url(#p329bddea44)" style="fill: #7f7f7f; opacity: 0.5"/>
   </g>
   <g id="patch_90">
    <path d="M 257.487435 448.56 
L 259.112565 448.56 
L 259.112565 319.2 
L 257.487435 319.2 
z
" clip-path="url(#p329bddea44)" style="fill: #7f7f7f; opacity: 0.5"/>
   </g>
   <g id="patch_91">
    <path d="M 259.518848 448.56 
L 261.143978 448.56 
L 261.143978 370.944 
L 259.518848 370.944 
z
" clip-path="url(#p329bddea44)" style="fill: #7f7f7f; opacity: 0.5"/>
   </g>
   <g id="patch_92">
    <path d="M 261.55026 448.56 
L 263.17539 448.56 
L 263.17539 396.816 
L 261.55026 396.816 
z
" clip-path="url(#p329bddea44)" style="fill: #7f7f7f; opacity: 0.5"/>
   </g>
   <g id="patch_93">
    <path d="M 263.581673 448.56 
L 265.206803 448.56 
L 265.206803 396.816 
L 263.581673 396.816 
z
" clip-path="url(#p329bddea44)" style="fill: #7f7f7f; opacity: 0.5"/>
   </g>
   <g id="patch_94">
    <path d="M 265.613085 448.56 
L 267.238215 448.56 
L 267.238215 448.56 
L 265.613085 448.56 
z
" clip-path="url(#p329bddea44)" style="fill: #7f7f7f; opacity: 0.5"/>
   </g>
   <g id="patch_95">
    <path d="M 267.644498 448.56 
L 269.269628 448.56 
L 269.269628 422.688 
L 267.644498 422.688 
z
" clip-path="url(#p329bddea44)" style="fill: #7f7f7f; opacity: 0.5"/>
   </g>
   <g id="patch_96">
    <path d="M 269.67591 448.56 
L 271.30104 448.56 
L 271.30104 396.816 
L 269.67591 396.816 
z
" clip-path="url(#p329bddea44)" style="fill: #7f7f7f; opacity: 0.5"/>
   </g>
   <g id="patch_97">
    <path d="M 271.707323 448.56 
L 273.332453 448.56 
L 273.332453 370.944 
L 271.707323 370.944 
z
" clip-path="url(#p329bddea44)" style="fill: #7f7f7f; opacity: 0.5"/>
   </g>
   <g id="patch_98">
    <path d="M 273.738735 448.56 
L 275.363865 448.56 
L 275.363865 422.688 
L 273.738735 422.688 
z
" clip-path="url(#p329bddea44)" style="fill: #7f7f7f; opacity: 0.5"/>
   </g>
   <g id="patch_99">
    <path d="M 275.770148 448.56 
L 277.395278 448.56 
L 277.395278 370.944 
L 275.770148 370.944 
z
" clip-path="url(#p329bddea44)" style="fill: #7f7f7f; opacity: 0.5"/>
   </g>
   <g id="patch_100">
    <path d="M 277.80156 448.56 
L 279.42669 448.56 
L 279.42669 396.816 
L 277.80156 396.816 
z
" clip-path="url(#p329bddea44)" style="fill: #7f7f7f; opacity: 0.5"/>
   </g>
   <g id="patch_101">
    <path d="M 279.832973 448.56 
L 281.458103 448.56 
L 281.458103 448.56 
L 279.832973 448.56 
z
" clip-path="url(#p329bddea44)" style="fill: #7f7f7f; opacity: 0.5"/>
   </g>
   <g id="patch_102">
    <path d="M 281.864385 448.56 
L 283.489515 448.56 
L 283.489515 448.56 
L 281.864385 448.56 
z
" clip-path="url(#p329bddea44)" style="fill: #7f7f7f; opacity: 0.5"/>
   </g>
   <g id="patch_103">
    <path d="M 283.895798 448.56 
L 285.520928 448.56 
L 285.520928 422.688 
L 283.895798 422.688 
z
" clip-path="url(#p329bddea44)" style="fill: #7f7f7f; opacity: 0.5"/>
   </g>
   <g id="patch_104">
    <path d="M 285.92721 448.56 
L 287.55234 448.56 
L 287.55234 396.816 
L 285.92721 396.816 
z
" clip-path="url(#p329bddea44)" style="fill: #7f7f7f; opacity: 0.5"/>
   </g>
   <g id="patch_105">
    <path d="M 287.958623 448.56 
L 289.583753 448.56 
L 289.583753 422.688 
L 287.958623 422.688 
z
" clip-path="url(#p329bddea44)" style="fill: #7f7f7f; opacity: 0.5"/>
   </g>
   <g id="patch_106">
    <path d="M 289.990035 448.56 
L 291.615165 448.56 
L 291.615165 448.56 
L 289.990035 448.56 
z
" clip-path="url(#p329bddea44)" style="fill: #7f7f7f; opacity: 0.5"/>
   </g>
   <g id="patch_107">
    <path d="M 292.021448 448.56 
L 293.646578 448.56 
L 293.646578 422.688 
L 292.021448 422.688 
z
" clip-path="url(#p329bddea44)" style="fill: #7f7f7f; opacity: 0.5"/>
   </g>
   <g id="patch_108">
    <path d="M 294.05286 448.56 
L 295.67799 448.56 
L 295.67799 448.56 
L 294.05286 448.56 
z
" clip-path="url(#p329bddea44)" style="fill: #7f7f7f; opacity: 0.5"/>
   </g>
   <g id="patch_109">
    <path d="M 296.084273 448.56 
L 297.709403 448.56 
L 297.709403 422.688 
L 296.084273 422.688 
z
" clip-path="url(#p329bddea44)" style="fill: #7f7f7f; opacity: 0.5"/>
   </g>
   <g id="patch_110">
    <path d="M 298.115685 448.56 
L 299.740815 448.56 
L 299.740815 448.56 
L 298.115685 448.56 
z
" clip-path="url(#p329bddea44)" style="fill: #7f7f7f; opacity: 0.5"/>
   </g>
   <g id="patch_111">
    <path d="M 300.147098 448.56 
L 301.772228 448.56 
L 301.772228 448.56 
L 300.147098 448.56 
z
" clip-path="url(#p329bddea44)" style="fill: #7f7f7f; opacity: 0.5"/>
   </g>
   <g id="patch_112">
    <path d="M 302.178511 448.56 
L 303.803641 448.56 
L 303.803641 448.56 
L 302.178511 448.56 
z
" clip-path="url(#p329bddea44)" style="fill: #7f7f7f; opacity: 0.5"/>
   </g>
   <g id="patch_113">
    <path d="M 304.209923 448.56 
L 305.835053 448.56 
L 305.835053 422.688 
L 304.209923 422.688 
z
" clip-path="url(#p329bddea44)" style="fill: #7f7f7f; opacity: 0.5"/>
   </g>
   <g id="patch_114">
    <path d="M 306.241336 448.56 
L 307.866466 448.56 
L 307.866466 422.688 
L 306.241336 422.688 
z
" clip-path="url(#p329bddea44)" style="fill: #7f7f7f; opacity: 0.5"/>
   </g>
   <g id="patch_115">
    <path d="M 308.272748 448.56 
L 309.897878 448.56 
L 309.897878 448.56 
L 308.272748 448.56 
z
" clip-path="url(#p329bddea44)" style="fill: #7f7f7f; opacity: 0.5"/>
   </g>
   <g id="patch_116">
    <path d="M 310.304161 448.56 
L 311.929291 448.56 
L 311.929291 448.56 
L 310.304161 448.56 
z
" clip-path="url(#p329bddea44)" style="fill: #7f7f7f; opacity: 0.5"/>
   </g>
   <g id="patch_117">
    <path d="M 312.335573 448.56 
L 313.960703 448.56 
L 313.960703 448.56 
L 312.335573 448.56 
z
" clip-path="url(#p329bddea44)" style="fill: #7f7f7f; opacity: 0.5"/>
   </g>
   <g id="patch_118">
    <path d="M 314.366986 448.56 
L 315.992116 448.56 
L 315.992116 422.688 
L 314.366986 422.688 
z
" clip-path="url(#p329bddea44)" style="fill: #7f7f7f; opacity: 0.5"/>
   </g>
   <g id="patch_119">
    <path d="M 316.398398 448.56 
L 318.023528 448.56 
L 318.023528 448.56 
L 316.398398 448.56 
z
" clip-path="url(#p329bddea44)" style="fill: #7f7f7f; opacity: 0.5"/>
   </g>
   <g id="patch_120">
    <path d="M 318.429811 448.56 
L 320.054941 448.56 
L 320.054941 448.56 
L 318.429811 448.56 
z
" clip-path="url(#p329bddea44)" style="fill: #7f7f7f; opacity: 0.5"/>
   </g>
   <g id="patch_121">
    <path d="M 320.461223 448.56 
L 322.086353 448.56 
L 322.086353 448.56 
L 320.461223 448.56 
z
" clip-path="url(#p329bddea44)" style="fill: #7f7f7f; opacity: 0.5"/>
   </g>
   <g id="patch_122">
    <path d="M 322.492636 448.56 
L 324.117766 448.56 
L 324.117766 448.56 
L 322.492636 448.56 
z
" clip-path="url(#p329bddea44)" style="fill: #7f7f7f; opacity: 0.5"/>
   </g>
   <g id="patch_123">
    <path d="M 324.524048 448.56 
L 326.149178 448.56 
L 326.149178 448.56 
L 324.524048 448.56 
z
" clip-path="url(#p329bddea44)" style="fill: #7f7f7f; opacity: 0.5"/>
   </g>
   <g id="patch_124">
    <path d="M 326.555461 448.56 
L 328.180591 448.56 
L 328.180591 448.56 
L 326.555461 448.56 
z
" clip-path="url(#p329bddea44)" style="fill: #7f7f7f; opacity: 0.5"/>
   </g>
   <g id="patch_125">
    <path d="M 328.586873 448.56 
L 330.212003 448.56 
L 330.212003 448.56 
L 328.586873 448.56 
z
" clip-path="url(#p329bddea44)" style="fill: #7f7f7f; opacity: 0.5"/>
   </g>
   <g id="patch_126">
    <path d="M 330.618286 448.56 
L 332.243416 448.56 
L 332.243416 448.56 
L 330.618286 448.56 
z
" clip-path="url(#p329bddea44)" style="fill: #7f7f7f; opacity: 0.5"/>
   </g>
   <g id="patch_127">
    <path d="M 332.649698 448.56 
L 334.274828 448.56 
L 334.274828 448.56 
L 332.649698 448.56 
z
" clip-path="url(#p329bddea44)" style="fill: #7f7f7f; opacity: 0.5"/>
   </g>
   <g id="patch_128">
    <path d="M 334.681111 448.56 
L 336.306241 448.56 
L 336.306241 422.688 
L 334.681111 422.688 
z
" clip-path="url(#p329bddea44)" style="fill: #7f7f7f; opacity: 0.5"/>
   </g>
   <g id="patch_129">
    <path d="M 336.712523 448.56 
L 338.337653 448.56 
L 338.337653 448.56 
L 336.712523 448.56 
z
" clip-path="url(#p329bddea44)" style="fill: #7f7f7f; opacity: 0.5"/>
   </g>
   <g id="patch_130">
    <path d="M 338.743936 448.56 
L 340.369066 448.56 
L 340.369066 448.56 
L 338.743936 448.56 
z
" clip-path="url(#p329bddea44)" style="fill: #7f7f7f; opacity: 0.5"/>
   </g>
   <g id="patch_131">
    <path d="M 340.775348 448.56 
L 342.400478 448.56 
L 342.400478 448.56 
L 340.775348 448.56 
z
" clip-path="url(#p329bddea44)" style="fill: #7f7f7f; opacity: 0.5"/>
   </g>
   <g id="patch_132">
    <path d="M 342.806761 448.56 
L 344.431891 448.56 
L 344.431891 448.56 
L 342.806761 448.56 
z
" clip-path="url(#p329bddea44)" style="fill: #7f7f7f; opacity: 0.5"/>
   </g>
   <g id="patch_133">
    <path d="M 344.838173 448.56 
L 346.463304 448.56 
L 346.463304 448.56 
L 344.838173 448.56 
z
" clip-path="url(#p329bddea44)" style="fill: #7f7f7f; opacity: 0.5"/>
   </g>
   <g id="patch_134">
    <path d="M 346.869586 448.56 
L 348.494716 448.56 
L 348.494716 448.56 
L 346.869586 448.56 
z
" clip-path="url(#p329bddea44)" style="fill: #7f7f7f; opacity: 0.5"/>
   </g>
   <g id="patch_135">
    <path d="M 348.900999 448.56 
L 350.526129 448.56 
L 350.526129 422.688 
L 348.900999 422.688 
z
" clip-path="url(#p329bddea44)" style="fill: #7f7f7f; opacity: 0.5"/>
   </g>
   <g id="patch_136">
    <path d="M 350.932411 448.56 
L 352.557541 448.56 
L 352.557541 448.56 
L 350.932411 448.56 
z
" clip-path="url(#p329bddea44)" style="fill: #7f7f7f; opacity: 0.5"/>
   </g>
   <g id="patch_137">
    <path d="M 352.963824 448.56 
L 354.588954 448.56 
L 354.588954 448.56 
L 352.963824 448.56 
z
" clip-path="url(#p329bddea44)" style="fill: #7f7f7f; opacity: 0.5"/>
   </g>
   <g id="patch_138">
    <path d="M 354.995236 448.56 
L 356.620366 448.56 
L 356.620366 448.56 
L 354.995236 448.56 
z
" clip-path="url(#p329bddea44)" style="fill: #7f7f7f; opacity: 0.5"/>
   </g>
   <g id="patch_139">
    <path d="M 357.026649 448.56 
L 358.651779 448.56 
L 358.651779 448.56 
L 357.026649 448.56 
z
" clip-path="url(#p329bddea44)" style="fill: #7f7f7f; opacity: 0.5"/>
   </g>
   <g id="patch_140">
    <path d="M 359.058061 448.56 
L 360.683191 448.56 
L 360.683191 448.56 
L 359.058061 448.56 
z
" clip-path="url(#p329bddea44)" style="fill: #7f7f7f; opacity: 0.5"/>
   </g>
   <g id="patch_141">
    <path d="M 361.089474 448.56 
L 362.714604 448.56 
L 362.714604 448.56 
L 361.089474 448.56 
z
" clip-path="url(#p329bddea44)" style="fill: #7f7f7f; opacity: 0.5"/>
   </g>
   <g id="patch_142">
    <path d="M 363.120886 448.56 
L 364.746016 448.56 
L 364.746016 448.56 
L 363.120886 448.56 
z
" clip-path="url(#p329bddea44)" style="fill: #7f7f7f; opacity: 0.5"/>
   </g>
   <g id="patch_143">
    <path d="M 365.152299 448.56 
L 366.777429 448.56 
L 366.777429 448.56 
L 365.152299 448.56 
z
" clip-path="url(#p329bddea44)" style="fill: #7f7f7f; opacity: 0.5"/>
   </g>
   <g id="patch_144">
    <path d="M 367.183711 448.56 
L 368.808841 448.56 
L 368.808841 448.56 
L 367.183711 448.56 
z
" clip-path="url(#p329bddea44)" style="fill: #7f7f7f; opacity: 0.5"/>
   </g>
   <g id="patch_145">
    <path d="M 369.215124 448.56 
L 370.840254 448.56 
L 370.840254 448.56 
L 369.215124 448.56 
z
" clip-path="url(#p329bddea44)" style="fill: #7f7f7f; opacity: 0.5"/>
   </g>
   <g id="patch_146">
    <path d="M 371.246536 448.56 
L 372.871666 448.56 
L 372.871666 448.56 
L 371.246536 448.56 
z
" clip-path="url(#p329bddea44)" style="fill: #7f7f7f; opacity: 0.5"/>
   </g>
   <g id="patch_147">
    <path d="M 373.277949 448.56 
L 374.903079 448.56 
L 374.903079 448.56 
L 373.277949 448.56 
z
" clip-path="url(#p329bddea44)" style="fill: #7f7f7f; opacity: 0.5"/>
   </g>
   <g id="patch_148">
    <path d="M 375.309361 448.56 
L 376.934491 448.56 
L 376.934491 448.56 
L 375.309361 448.56 
z
" clip-path="url(#p329bddea44)" style="fill: #7f7f7f; opacity: 0.5"/>
   </g>
   <g id="patch_149">
    <path d="M 377.340774 448.56 
L 378.965904 448.56 
L 378.965904 448.56 
L 377.340774 448.56 
z
" clip-path="url(#p329bddea44)" style="fill: #7f7f7f; opacity: 0.5"/>
   </g>
   <g id="patch_150">
    <path d="M 379.372186 448.56 
L 380.997316 448.56 
L 380.997316 448.56 
L 379.372186 448.56 
z
" clip-path="url(#p329bddea44)" style="fill: #7f7f7f; opacity: 0.5"/>
   </g>
   <g id="patch_151">
    <path d="M 381.403599 448.56 
L 383.028729 448.56 
L 383.028729 448.56 
L 381.403599 448.56 
z
" clip-path="url(#p329bddea44)" style="fill: #7f7f7f; opacity: 0.5"/>
   </g>
   <g id="patch_152">
    <path d="M 383.435011 448.56 
L 385.060141 448.56 
L 385.060141 448.56 
L 383.435011 448.56 
z
" clip-path="url(#p329bddea44)" style="fill: #7f7f7f; opacity: 0.5"/>
   </g>
   <g id="patch_153">
    <path d="M 385.466424 448.56 
L 387.091554 448.56 
L 387.091554 448.56 
L 385.466424 448.56 
z
" clip-path="url(#p329bddea44)" style="fill: #7f7f7f; opacity: 0.5"/>
   </g>
   <g id="patch_154">
    <path d="M 387.497836 448.56 
L 389.122967 448.56 
L 389.122967 448.56 
L 387.497836 448.56 
z
" clip-path="url(#p329bddea44)" style="fill: #7f7f7f; opacity: 0.5"/>
   </g>
   <g id="patch_155">
    <path d="M 389.529249 448.56 
L 391.154379 448.56 
L 391.154379 448.56 
L 389.529249 448.56 
z
" clip-path="url(#p329bddea44)" style="fill: #7f7f7f; opacity: 0.5"/>
   </g>
   <g id="patch_156">
    <path d="M 391.560662 448.56 
L 393.185792 448.56 
L 393.185792 448.56 
L 391.560662 448.56 
z
" clip-path="url(#p329bddea44)" style="fill: #7f7f7f; opacity: 0.5"/>
   </g>
   <g id="patch_157">
    <path d="M 393.592074 448.56 
L 395.217204 448.56 
L 395.217204 448.56 
L 393.592074 448.56 
z
" clip-path="url(#p329bddea44)" style="fill: #7f7f7f; opacity: 0.5"/>
   </g>
   <g id="patch_158">
    <path d="M 395.623487 448.56 
L 397.248617 448.56 
L 397.248617 448.56 
L 395.623487 448.56 
z
" clip-path="url(#p329bddea44)" style="fill: #7f7f7f; opacity: 0.5"/>
   </g>
   <g id="patch_159">
    <path d="M 397.654899 448.56 
L 399.280029 448.56 
L 399.280029 448.56 
L 397.654899 448.56 
z
" clip-path="url(#p329bddea44)" style="fill: #7f7f7f; opacity: 0.5"/>
   </g>
   <g id="patch_160">
    <path d="M 399.686312 448.56 
L 401.311442 448.56 
L 401.311442 448.56 
L 399.686312 448.56 
z
" clip-path="url(#p329bddea44)" style="fill: #7f7f7f; opacity: 0.5"/>
   </g>
   <g id="patch_161">
    <path d="M 401.717724 448.56 
L 403.342854 448.56 
L 403.342854 448.56 
L 401.717724 448.56 
z
" clip-path="url(#p329bddea44)" style="fill: #7f7f7f; opacity: 0.5"/>
   </g>
   <g id="patch_162">
    <path d="M 403.749137 448.56 
L 405.374267 448.56 
L 405.374267 448.56 
L 403.749137 448.56 
z
" clip-path="url(#p329bddea44)" style="fill: #7f7f7f; opacity: 0.5"/>
   </g>
   <g id="patch_163">
    <path d="M 405.780549 448.56 
L 407.405679 448.56 
L 407.405679 448.56 
L 405.780549 448.56 
z
" clip-path="url(#p329bddea44)" style="fill: #7f7f7f; opacity: 0.5"/>
   </g>
   <g id="patch_164">
    <path d="M 407.811962 448.56 
L 409.437092 448.56 
L 409.437092 448.56 
L 407.811962 448.56 
z
" clip-path="url(#p329bddea44)" style="fill: #7f7f7f; opacity: 0.5"/>
   </g>
   <g id="patch_165">
    <path d="M 409.843374 448.56 
L 411.468504 448.56 
L 411.468504 448.56 
L 409.843374 448.56 
z
" clip-path="url(#p329bddea44)" style="fill: #7f7f7f; opacity: 0.5"/>
   </g>
   <g id="patch_166">
    <path d="M 411.874787 448.56 
L 413.499917 448.56 
L 413.499917 448.56 
L 411.874787 448.56 
z
" clip-path="url(#p329bddea44)" style="fill: #7f7f7f; opacity: 0.5"/>
   </g>
   <g id="patch_167">
    <path d="M 413.906199 448.56 
L 415.531329 448.56 
L 415.531329 448.56 
L 413.906199 448.56 
z
" clip-path="url(#p329bddea44)" style="fill: #7f7f7f; opacity: 0.5"/>
   </g>
   <g id="patch_168">
    <path d="M 415.937612 448.56 
L 417.562742 448.56 
L 417.562742 448.56 
L 415.937612 448.56 
z
" clip-path="url(#p329bddea44)" style="fill: #7f7f7f; opacity: 0.5"/>
   </g>
   <g id="patch_169">
    <path d="M 417.969024 448.56 
L 419.594154 448.56 
L 419.594154 448.56 
L 417.969024 448.56 
z
" clip-path="url(#p329bddea44)" style="fill: #7f7f7f; opacity: 0.5"/>
   </g>
   <g id="patch_170">
    <path d="M 420.000437 448.56 
L 421.625567 448.56 
L 421.625567 448.56 
L 420.000437 448.56 
z
" clip-path="url(#p329bddea44)" style="fill: #7f7f7f; opacity: 0.5"/>
   </g>
   <g id="patch_171">
    <path d="M 422.031849 448.56 
L 423.656979 448.56 
L 423.656979 448.56 
L 422.031849 448.56 
z
" clip-path="url(#p329bddea44)" style="fill: #7f7f7f; opacity: 0.5"/>
   </g>
   <g id="patch_172">
    <path d="M 424.063262 448.56 
L 425.688392 448.56 
L 425.688392 448.56 
L 424.063262 448.56 
z
" clip-path="url(#p329bddea44)" style="fill: #7f7f7f; opacity: 0.5"/>
   </g>
   <g id="patch_173">
    <path d="M 426.094674 448.56 
L 427.719804 448.56 
L 427.719804 448.56 
L 426.094674 448.56 
z
" clip-path="url(#p329bddea44)" style="fill: #7f7f7f; opacity: 0.5"/>
   </g>
   <g id="patch_174">
    <path d="M 428.126087 448.56 
L 429.751217 448.56 
L 429.751217 448.56 
L 428.126087 448.56 
z
" clip-path="url(#p329bddea44)" style="fill: #7f7f7f; opacity: 0.5"/>
   </g>
   <g id="patch_175">
    <path d="M 430.157499 448.56 
L 431.782629 448.56 
L 431.782629 448.56 
L 430.157499 448.56 
z
" clip-path="url(#p329bddea44)" style="fill: #7f7f7f; opacity: 0.5"/>
   </g>
   <g id="patch_176">
    <path d="M 432.188912 448.56 
L 433.814042 448.56 
L 433.814042 448.56 
L 432.188912 448.56 
z
" clip-path="url(#p329bddea44)" style="fill: #7f7f7f; opacity: 0.5"/>
   </g>
   <g id="patch_177">
    <path d="M 434.220325 448.56 
L 435.845455 448.56 
L 435.845455 448.56 
L 434.220325 448.56 
z
" clip-path="url(#p329bddea44)" style="fill: #7f7f7f; opacity: 0.5"/>
   </g>
   <g id="patch_178">
    <path d="M 453.6 448.56 
L 453.6 60.48 
" style="fill: none; stroke: #7f7f7f; stroke-width: 0.8; stroke-linejoin: miter; stroke-linecap: square"/>
   </g>
  </g>
  <g id="axes_2">
   <g id="FillBetweenPolyCollection_1">
    <path d="M 81.56711 309.870651 
L 81.56711 442.847962 
L 83.598523 442.774901 
L 85.629936 426.721852 
L 87.661348 365.692816 
L 89.692761 368.082955 
L 91.724173 382.471746 
L 93.755586 388.054666 
L 95.786998 401.751522 
L 97.818411 412.622644 
L 99.849823 418.610909 
L 101.881236 416.282268 
L 103.912648 424.637947 
L 105.944061 429.708304 
L 107.975473 432.146425 
L 110.006886 434.829876 
L 112.038298 435.551504 
L 114.069711 437.899963 
L 116.101123 438.689068 
L 118.132536 439.154851 
L 120.163948 439.558232 
L 122.195361 437.768353 
L 124.226773 438.078982 
L 126.258186 439.269774 
L 128.289599 435.926939 
L 130.321011 436.874178 
L 132.352424 434.698064 
L 134.383836 434.471296 
L 136.415249 430.537104 
L 138.446661 432.511283 
L 140.478074 427.90879 
L 142.509486 424.526872 
L 144.540899 426.085873 
L 146.572311 425.072241 
L 148.603724 420.082098 
L 150.635136 424.177381 
L 152.666549 423.651695 
L 154.697961 427.112818 
L 156.729374 430.296394 
L 158.760786 418.529306 
L 160.792199 412.959071 
L 162.823611 414.109101 
L 164.855024 415.270483 
L 166.886436 417.884371 
L 168.917849 419.68166 
L 170.949261 409.987269 
L 172.980674 417.837069 
L 175.012087 418.850335 
L 177.043499 421.568152 
L 179.074912 411.707585 
L 181.106324 408.77097 
L 183.137737 406.010719 
L 185.169149 408.142846 
L 187.200562 402.581679 
L 189.231974 398.543263 
L 191.263387 377.877187 
L 193.294799 378.654429 
L 195.326212 368.263162 
L 197.357624 376.231091 
L 199.389037 387.999227 
L 201.420449 393.948371 
L 203.451862 393.053948 
L 205.483274 408.587765 
L 207.514687 420.893342 
L 209.546099 414.407745 
L 211.577512 423.347294 
L 213.608924 426.164626 
L 215.640337 430.581594 
L 217.67175 423.165928 
L 219.703162 419.416448 
L 221.734575 417.426435 
L 223.765987 416.607311 
L 225.7974 413.230378 
L 227.828812 405.631893 
L 229.860225 400.432443 
L 231.891637 408.008784 
L 233.92305 402.579221 
L 235.954462 418.603955 
L 237.985875 406.945914 
L 240.017287 408.753326 
L 242.0487 420.239714 
L 244.080112 427.387301 
L 246.111525 433.396065 
L 248.142937 435.847241 
L 250.17435 434.844948 
L 252.205762 427.376492 
L 254.237175 431.253079 
L 256.268587 431.321284 
L 258.3 434.454836 
L 260.331413 435.827288 
L 262.362825 438.140968 
L 264.394238 439.88313 
L 266.42565 441.729903 
L 268.457063 443.549913 
L 270.488475 444.316016 
L 272.519888 444.436895 
L 274.5513 444.132385 
L 276.582713 444.639543 
L 278.614125 444.37863 
L 280.645538 444.500008 
L 282.67695 445.456947 
L 284.708363 446.265697 
L 286.739775 446.425566 
L 288.771188 446.117656 
L 290.8026 446.273793 
L 292.834013 446.931352 
L 294.865425 447.075484 
L 296.896838 447.581756 
L 298.92825 447.437707 
L 300.959663 447.992942 
L 302.991076 448.559115 
L 305.022488 448.559999 
L 307.053901 448.086637 
L 309.085313 447.76695 
L 311.116726 448.318937 
L 313.148138 448.559795 
L 315.179551 448.559999 
L 317.210963 448.118943 
L 319.242376 448.471355 
L 321.273788 448.559432 
L 323.305201 448.559997 
L 325.336613 448.559999 
L 327.368026 448.559999 
L 329.399438 448.56 
L 331.430851 448.56 
L 333.462263 448.56 
L 335.493676 448.56 
L 337.525088 448.075456 
L 339.556501 448.415615 
L 341.587913 448.513869 
L 343.619326 448.559959 
L 345.650739 448.559995 
L 347.682151 448.559998 
L 349.713564 448.559999 
L 351.744976 447.700712 
L 353.776389 448.053148 
L 355.807801 448.41314 
L 357.839214 448.460436 
L 359.870626 448.558455 
L 361.902039 448.55997 
L 363.933451 448.559998 
L 365.964864 448.559999 
L 367.996276 448.559999 
L 370.027689 448.559999 
L 372.059101 448.559999 
L 374.090514 448.559999 
L 376.121926 448.559999 
L 378.153339 448.559999 
L 380.184751 448.559999 
L 382.216164 448.56 
L 384.247576 448.56 
L 386.278989 448.56 
L 388.310401 448.56 
L 390.341814 448.56 
L 392.373227 448.56 
L 394.404639 448.56 
L 396.436052 448.56 
L 398.467464 448.56 
L 400.498877 448.56 
L 402.530289 448.56 
L 404.561702 448.56 
L 406.593114 448.56 
L 408.624527 448.56 
L 410.655939 448.56 
L 412.687352 448.56 
L 414.718764 448.56 
L 416.750177 448.56 
L 418.781589 448.56 
L 420.813002 448.56 
L 422.844414 448.56 
L 424.875827 448.56 
L 426.907239 448.56 
L 428.938652 448.56 
L 430.970064 448.56 
L 433.001477 448.56 
L 435.03289 448.56 
L 435.03289 436.430096 
L 435.03289 436.430096 
L 433.001477 436.376761 
L 430.970064 437.072796 
L 428.938652 436.667517 
L 426.907239 436.219283 
L 424.875827 435.418815 
L 422.844414 435.9784 
L 420.813002 435.146503 
L 418.781589 437.155822 
L 416.750177 434.992127 
L 414.718764 435.844692 
L 412.687352 435.265604 
L 410.655939 435.52135 
L 408.624527 434.423767 
L 406.593114 435.264165 
L 404.561702 435.124659 
L 402.530289 432.597131 
L 400.498877 434.211932 
L 398.467464 433.538621 
L 396.436052 432.468089 
L 394.404639 432.544071 
L 392.373227 433.329591 
L 390.341814 433.074628 
L 388.310401 433.261426 
L 386.278989 433.663398 
L 384.247576 433.494961 
L 382.216164 432.568418 
L 380.184751 432.368773 
L 378.153339 432.056005 
L 376.121926 431.529475 
L 374.090514 431.31827 
L 372.059101 430.251924 
L 370.027689 428.188724 
L 367.996276 428.701875 
L 365.964864 427.448674 
L 363.933451 427.970806 
L 361.902039 427.062231 
L 359.870626 426.061184 
L 357.839214 424.324143 
L 355.807801 423.915877 
L 353.776389 423.299674 
L 351.744976 422.570214 
L 349.713564 433.987919 
L 347.682151 433.997612 
L 345.650739 433.240395 
L 343.619326 433.675865 
L 341.587913 432.820294 
L 339.556501 431.873195 
L 337.525088 432.619204 
L 335.493676 439.032989 
L 333.462263 438.757599 
L 331.430851 438.634621 
L 329.399438 438.396697 
L 327.368026 438.489212 
L 325.336613 437.440866 
L 323.305201 437.030925 
L 321.273788 436.870707 
L 319.242376 434.970978 
L 317.210963 434.957249 
L 315.179551 438.637754 
L 313.148138 438.074016 
L 311.116726 436.604618 
L 309.085313 435.468617 
L 307.053901 438.240258 
L 305.022488 440.500019 
L 302.991076 439.087952 
L 300.959663 438.068498 
L 298.92825 436.263635 
L 296.896838 437.643585 
L 294.865425 435.271444 
L 292.834013 436.090729 
L 290.8026 434.058678 
L 288.771188 433.65465 
L 286.739775 436.055387 
L 284.708363 435.465171 
L 282.67695 433.120394 
L 280.645538 429.243174 
L 278.614125 429.301132 
L 276.582713 432.090592 
L 274.5513 428.481781 
L 272.519888 430.4382 
L 270.488475 430.710449 
L 268.457063 427.753071 
L 266.42565 420.680528 
L 264.394238 418.469657 
L 262.362825 411.834877 
L 260.331413 406.569296 
L 258.3 403.994388 
L 256.268587 395.125524 
L 254.237175 393.711829 
L 252.205762 387.126868 
L 250.17435 401.642779 
L 248.142937 405.105999 
L 246.111525 400.021606 
L 244.080112 382.968863 
L 242.0487 362.676296 
L 240.017287 333.061644 
L 237.985875 329.76313 
L 235.954462 359.743877 
L 233.92305 314.059865 
L 231.891637 326.039152 
L 229.860225 306.024196 
L 227.828812 317.756354 
L 225.7974 343.044425 
L 223.765987 351.12958 
L 221.734575 349.070575 
L 219.703162 354.834631 
L 217.67175 365.706977 
L 215.640337 385.249463 
L 213.608924 370.009403 
L 211.577512 363.939069 
L 209.546099 338.591007 
L 207.514687 354.517443 
L 205.483274 319.56171 
L 203.451862 273.683261 
L 201.420449 272.451691 
L 199.389037 252.693276 
L 197.357624 217.349641 
L 195.326212 185.053443 
L 193.294799 209.097179 
L 191.263387 198.289718 
L 189.231974 267.115851 
L 187.200562 273.4302 
L 185.169149 286.135455 
L 183.137737 276.782961 
L 181.106324 276.46123 
L 179.074912 288.23755 
L 177.043499 323.665252 
L 175.012087 313.758441 
L 172.980674 306.198869 
L 170.949261 266.545253 
L 168.917849 293.925937 
L 166.886436 282.868894 
L 164.855024 282.809098 
L 162.823611 280.131932 
L 160.792199 259.030182 
L 158.760786 280.496534 
L 156.729374 331.591559 
L 154.697961 301.407121 
L 152.666549 281.40198 
L 150.635136 295.729486 
L 148.603724 259.280725 
L 146.572311 265.279873 
L 144.540899 277.296659 
L 142.509486 258.47431 
L 140.478074 281.882267 
L 138.446661 305.070234 
L 136.415249 296.90314 
L 134.383836 330.080139 
L 132.352424 321.713576 
L 130.321011 349.590149 
L 128.289599 348.696205 
L 126.258186 365.855586 
L 124.226773 366.567773 
L 122.195361 365.504107 
L 120.163948 380.122455 
L 118.132536 378.278889 
L 116.101123 371.960924 
L 114.069711 366.629851 
L 112.038298 363.237088 
L 110.006886 345.936108 
L 107.975473 332.760745 
L 105.944061 306.742829 
L 103.912648 268.466352 
L 101.881236 211.402321 
L 99.849823 176.456594 
L 97.818411 55.739019 
L 95.786998 -136.556375 
L 93.755586 -518.595247 
L 91.724173 -1133.229692 
L 89.692761 -1469.405303 
L 87.661348 -1595.210962 
L 85.629936 -112.131863 
L 83.598523 303.313612 
L 81.56711 309.870651 
z
" clip-path="url(#p329bddea44)" style="fill: #0173b2; fill-opacity: 0.3; stroke: #0173b2; stroke-opacity: 0.3"/>
   </g>
   <g id="FillBetweenPolyCollection_2">
    <path d="M 81.56711 259.607719 
L 81.56711 440.966746 
L 83.598523 440.786715 
L 85.629936 421.202666 
L 87.661348 344.767026 
L 89.692761 348.945024 
L 91.724173 370.489913 
L 93.755586 380.27406 
L 95.786998 393.801161 
L 97.818411 408.386246 
L 99.849823 418.869728 
L 101.881236 415.77452 
L 103.912648 423.746504 
L 105.944061 428.36603 
L 107.975473 431.742728 
L 110.006886 434.444574 
L 112.038298 436.312677 
L 114.069711 437.67017 
L 116.101123 438.497092 
L 118.132536 439.568513 
L 120.163948 439.836617 
L 122.195361 437.776191 
L 124.226773 438.502868 
L 126.258186 439.011202 
L 128.289599 435.784667 
L 130.321011 437.160859 
L 132.352424 433.63694 
L 134.383836 434.998388 
L 136.415249 430.479679 
L 138.446661 432.209448 
L 140.478074 427.555606 
L 142.509486 423.680735 
L 144.540899 426.111449 
L 146.572311 422.538681 
L 148.603724 420.249668 
L 150.635136 425.479538 
L 152.666549 422.587106 
L 154.697961 427.264915 
L 156.729374 429.665519 
L 158.760786 417.965422 
L 160.792199 412.220841 
L 162.823611 414.997221 
L 164.855024 415.201154 
L 166.886436 417.096048 
L 168.917849 418.741321 
L 170.949261 410.776859 
L 172.980674 417.481895 
L 175.012087 419.306063 
L 177.043499 422.579536 
L 179.074912 411.525875 
L 181.106324 406.806762 
L 183.137737 404.858869 
L 185.169149 410.149058 
L 187.200562 402.089665 
L 189.231974 398.401182 
L 191.263387 376.360925 
L 193.294799 378.979729 
L 195.326212 368.114801 
L 197.357624 374.213321 
L 199.389037 388.690519 
L 201.420449 395.510343 
L 203.451862 393.239955 
L 205.483274 410.333207 
L 207.514687 421.055628 
L 209.546099 415.328663 
L 211.577512 423.360026 
L 213.608924 425.428142 
L 215.640337 430.094816 
L 217.67175 422.302305 
L 219.703162 419.042049 
L 221.734575 416.685898 
L 223.765987 416.885883 
L 225.7974 413.907621 
L 227.828812 403.053437 
L 229.860225 399.916209 
L 231.891637 406.160809 
L 233.92305 401.389069 
L 235.954462 418.228184 
L 237.985875 405.178665 
L 240.017287 407.583732 
L 242.0487 418.084138 
L 244.080112 425.874876 
L 246.111525 432.040436 
L 248.142937 433.944951 
L 250.17435 432.804814 
L 252.205762 425.576241 
L 254.237175 428.747035 
L 256.268587 428.521091 
L 258.3 431.896276 
L 260.331413 433.296859 
L 262.362825 435.569257 
L 264.394238 437.992025 
L 266.42565 439.100117 
L 268.457063 441.542453 
L 270.488475 442.382185 
L 272.519888 442.389915 
L 274.5513 441.769948 
L 276.582713 442.61171 
L 278.614125 441.469772 
L 280.645538 441.422075 
L 282.67695 442.533901 
L 284.708363 443.745866 
L 286.739775 443.594635 
L 288.771188 442.692003 
L 290.8026 442.670063 
L 292.834013 443.350261 
L 294.865425 443.241387 
L 296.896838 443.825671 
L 298.92825 443.485388 
L 300.959663 443.96263 
L 302.991076 444.084921 
L 305.022488 444.500585 
L 307.053901 443.94761 
L 309.085313 443.224586 
L 311.116726 443.414267 
L 313.148138 443.885221 
L 315.179551 443.994794 
L 317.210963 443.371451 
L 319.242376 443.594416 
L 321.273788 443.954013 
L 323.305201 443.726212 
L 325.336613 444.12011 
L 327.368026 444.452211 
L 329.399438 444.581994 
L 331.430851 444.390533 
L 333.462263 444.507646 
L 335.493676 444.824372 
L 337.525088 443.199173 
L 339.556501 443.589144 
L 341.587913 443.56841 
L 343.619326 443.797105 
L 345.650739 443.656589 
L 347.682151 443.43535 
L 349.713564 444.150643 
L 351.744976 441.743741 
L 353.776389 442.087499 
L 355.807801 442.259702 
L 357.839214 442.423835 
L 359.870626 442.555008 
L 361.902039 442.707774 
L 363.933451 442.697736 
L 365.964864 442.59267 
L 367.996276 443.105253 
L 370.027689 443.171731 
L 372.059101 443.011298 
L 374.090514 443.167746 
L 376.121926 443.585989 
L 378.153339 443.381055 
L 380.184751 443.466389 
L 382.216164 443.769403 
L 384.247576 443.121678 
L 386.278989 443.899236 
L 388.310401 443.660688 
L 390.341814 443.343326 
L 392.373227 443.775602 
L 394.404639 443.634026 
L 396.436052 443.560537 
L 398.467464 443.309306 
L 400.498877 443.792015 
L 402.530289 443.524324 
L 404.561702 443.486164 
L 406.593114 443.441281 
L 408.624527 443.333532 
L 410.655939 443.325228 
L 412.687352 443.409785 
L 414.718764 443.325393 
L 416.750177 443.526344 
L 418.781589 443.624225 
L 420.813002 443.185328 
L 422.844414 443.320702 
L 424.875827 443.216579 
L 426.907239 443.536349 
L 428.938652 442.867658 
L 430.970064 443.248998 
L 433.001477 443.246397 
L 435.03289 442.821984 
L 435.03289 335.642405 
L 435.03289 335.642405 
L 433.001477 326.925396 
L 430.970064 319.154577 
L 428.938652 340.505867 
L 426.907239 334.270693 
L 424.875827 335.736246 
L 422.844414 337.982741 
L 420.813002 346.388202 
L 418.781589 349.812293 
L 416.750177 345.369 
L 414.718764 349.386772 
L 412.687352 353.132066 
L 410.655939 356.377124 
L 408.624527 362.589478 
L 406.593114 355.526122 
L 404.561702 367.162536 
L 402.530289 365.799891 
L 400.498877 365.42876 
L 398.467464 368.294851 
L 396.436052 368.631566 
L 394.404639 375.02891 
L 392.373227 376.332602 
L 390.341814 377.92237 
L 388.310401 375.879673 
L 386.278989 379.514077 
L 384.247576 385.946084 
L 382.216164 381.412611 
L 380.184751 383.110005 
L 378.153339 385.667006 
L 376.121926 383.53024 
L 374.090514 386.05912 
L 372.059101 385.525856 
L 370.027689 381.541602 
L 367.996276 381.761202 
L 365.964864 380.664926 
L 363.933451 381.773073 
L 361.902039 381.907712 
L 359.870626 378.883932 
L 357.839214 379.051947 
L 355.807801 377.08885 
L 353.776389 377.00797 
L 351.744976 377.184268 
L 349.713564 395.85621 
L 347.682151 400.593089 
L 345.650739 399.378106 
L 343.619326 399.967153 
L 341.587913 399.525532 
L 339.556501 402.773924 
L 337.525088 400.429522 
L 335.493676 412.458681 
L 333.462263 413.983112 
L 331.430851 414.13963 
L 329.399438 411.474793 
L 327.368026 413.019517 
L 325.336613 414.64647 
L 323.305201 412.256021 
L 321.273788 412.500729 
L 319.242376 412.345974 
L 317.210963 411.429134 
L 315.179551 418.066148 
L 313.148138 417.56706 
L 311.116726 416.878819 
L 309.085313 414.205053 
L 307.053901 419.969988 
L 305.022488 423.526853 
L 302.991076 422.516781 
L 300.959663 420.875122 
L 298.92825 419.582142 
L 296.896838 422.188961 
L 294.865425 420.772842 
L 292.834013 422.881402 
L 290.8026 420.448447 
L 288.771188 420.432195 
L 286.739775 425.222958 
L 284.708363 425.982324 
L 282.67695 424.079156 
L 280.645538 419.460475 
L 278.614125 420.050431 
L 276.582713 423.75941 
L 274.5513 420.635627 
L 272.519888 424.430078 
L 270.488475 424.384748 
L 268.457063 421.473994 
L 266.42565 414.8316 
L 264.394238 411.887932 
L 262.362825 406.419998 
L 260.331413 398.977963 
L 258.3 396.281693 
L 256.268587 386.533563 
L 254.237175 388.350732 
L 252.205762 379.560575 
L 250.17435 396.762593 
L 248.142937 402.369618 
L 246.111525 395.680243 
L 244.080112 378.295056 
L 242.0487 359.254056 
L 240.017287 326.621916 
L 237.985875 327.219123 
L 235.954462 354.324332 
L 233.92305 313.294054 
L 231.891637 321.970238 
L 229.860225 303.697084 
L 227.828812 321.366492 
L 225.7974 340.126819 
L 223.765987 352.577519 
L 221.734575 347.520453 
L 219.703162 354.884622 
L 217.67175 365.015205 
L 215.640337 384.97493 
L 213.608924 372.703396 
L 211.577512 365.933567 
L 209.546099 337.010539 
L 207.514687 356.123887 
L 205.483274 320.093383 
L 203.451862 273.686508 
L 201.420449 271.661621 
L 199.389037 251.57284 
L 197.357624 223.730606 
L 195.326212 183.853536 
L 193.294799 213.392687 
L 191.263387 206.094715 
L 189.231974 259.719181 
L 187.200562 276.520849 
L 185.169149 284.670062 
L 183.137737 275.138691 
L 181.106324 280.6257 
L 179.074912 287.984448 
L 177.043499 321.715488 
L 175.012087 311.628466 
L 172.980674 299.248412 
L 170.949261 254.094847 
L 168.917849 292.966649 
L 166.886436 284.94962 
L 164.855024 285.148453 
L 162.823611 267.696102 
L 160.792199 259.047608 
L 158.760786 279.164288 
L 156.729374 324.05459 
L 154.697961 303.713302 
L 152.666549 285.268221 
L 150.635136 284.503819 
L 148.603724 258.328108 
L 146.572311 269.441486 
L 144.540899 275.601906 
L 142.509486 257.844711 
L 140.478074 278.12605 
L 138.446661 310.308567 
L 136.415249 293.624388 
L 134.383836 327.392045 
L 132.352424 324.828897 
L 130.321011 353.602927 
L 128.289599 350.947777 
L 126.258186 369.498367 
L 124.226773 369.126867 
L 122.195361 366.793055 
L 120.163948 381.05319 
L 118.132536 378.647886 
L 116.101123 374.277463 
L 114.069711 367.481418 
L 112.038298 360.271004 
L 110.006886 350.466694 
L 107.975473 336.327067 
L 105.944061 315.972248 
L 103.912648 281.55704 
L 101.881236 212.731728 
L 99.849823 171.148007 
L 97.818411 39.170689 
L 95.786998 -152.880622 
L 93.755586 -572.218397 
L 91.724173 -1173.52762 
L 89.692761 -1663.787979 
L 87.661348 -2127.311147 
L 85.629936 -322.821631 
L 83.598523 258.062875 
L 81.56711 259.607719 
z
" clip-path="url(#p329bddea44)" style="fill: #de8f05; fill-opacity: 0.3; stroke: #de8f05; stroke-opacity: 0.3"/>
   </g>
   <g id="matplotlib.axis_2">
    <g id="xtick_1">
     <g id="line2d_9">
      <defs>
       <path id="ma447e6a977" d="M 0 0 
L 0 3.5 
" style="stroke: #000000; stroke-width: 0.8"/>
      </defs>
      <g>
       <use xlink:href="#ma447e6a977" x="91.724173" y="448.56" style="stroke: #000000; stroke-width: 0.8"/>
      </g>
     </g>
     <g id="text_10">
      <text style="font-size: 16px; font-family: 'Arial', sans-serif; text-anchor: middle" x="91.724173" y="467.208438" transform="rotate(-0 91.724173 467.208438)">1 Jul</text>
     </g>
    </g>
    <g id="xtick_2">
     <g id="line2d_10">
      <g>
       <use xlink:href="#ma447e6a977" x="154.697961" y="448.56" style="stroke: #000000; stroke-width: 0.8"/>
      </g>
     </g>
     <g id="text_11">
      <text style="font-size: 16px; font-family: 'Arial', sans-serif; text-anchor: middle" x="154.697961" y="467.208438" transform="rotate(-0 154.697961 467.208438)">1 Aug</text>
     </g>
    </g>
    <g id="xtick_3">
     <g id="line2d_11">
      <g>
       <use xlink:href="#ma447e6a977" x="217.67175" y="448.56" style="stroke: #000000; stroke-width: 0.8"/>
      </g>
     </g>
     <g id="text_12">
      <text style="font-size: 16px; font-family: 'Arial', sans-serif; text-anchor: middle" x="217.67175" y="467.208438" transform="rotate(-0 217.67175 467.208438)">1 Sep</text>
     </g>
    </g>
    <g id="xtick_4">
     <g id="line2d_12">
      <g>
       <use xlink:href="#ma447e6a977" x="278.614125" y="448.56" style="stroke: #000000; stroke-width: 0.8"/>
      </g>
     </g>
     <g id="text_13">
      <text style="font-size: 16px; font-family: 'Arial', sans-serif; text-anchor: middle" x="278.614125" y="467.2175" transform="rotate(-0 278.614125 467.2175)">1 Oct</text>
     </g>
    </g>
    <g id="xtick_5">
     <g id="line2d_13">
      <g>
       <use xlink:href="#ma447e6a977" x="341.587913" y="448.56" style="stroke: #000000; stroke-width: 0.8"/>
      </g>
     </g>
     <g id="text_14">
      <text style="font-size: 16px; font-family: 'Arial', sans-serif; text-anchor: middle" x="341.587913" y="467.208438" transform="rotate(-0 341.587913 467.208438)">1 Nov</text>
     </g>
    </g>
    <g id="xtick_6">
     <g id="line2d_14">
      <g>
       <use xlink:href="#ma447e6a977" x="402.530289" y="448.56" style="stroke: #000000; stroke-width: 0.8"/>
      </g>
     </g>
     <g id="text_15">
      <text style="font-size: 16px; font-family: 'Arial', sans-serif; text-anchor: middle" x="402.530289" y="467.208438" transform="rotate(-0 402.530289 467.208438)">1 Dec</text>
     </g>
    </g>
    <g id="text_16">
     <text style="font-size: 16px; font-family: 'Arial', sans-serif; text-anchor: middle" x="258.3" y="486.233125" transform="rotate(-0 258.3 486.233125)">Date (2017)</text>
    </g>
   </g>
   <g id="matplotlib.axis_3">
    <g id="ytick_9">
     <g id="line2d_15">
      <defs>
       <path id="m4cb54aa3b8" d="M 0 0 
L -3.5 0 
" style="stroke: #000000; stroke-width: 0.8"/>
      </defs>
      <g>
       <use xlink:href="#m4cb54aa3b8" x="63" y="448.56" style="stroke: #000000; stroke-width: 0.8"/>
      </g>
     </g>
     <g id="text_17">
      <text style="font-size: 16px; font-family: 'Arial', sans-serif; text-anchor: end" x="56" y="454.384219" transform="rotate(-0 56 454.384219)">0</text>
     </g>
    </g>
    <g id="ytick_10">
     <g id="line2d_16">
      <g>
       <use xlink:href="#m4cb54aa3b8" x="63" y="370.944" style="stroke: #000000; stroke-width: 0.8"/>
      </g>
     </g>
     <g id="text_18">
      <text style="font-size: 16px; font-family: 'Arial', sans-serif; text-anchor: end" x="56" y="376.768219" transform="rotate(-0 56 376.768219)">2</text>
     </g>
    </g>
    <g id="ytick_11">
     <g id="line2d_17">
      <g>
       <use xlink:href="#m4cb54aa3b8" x="63" y="293.328" style="stroke: #000000; stroke-width: 0.8"/>
      </g>
     </g>
     <g id="text_19">
      <text style="font-size: 16px; font-family: 'Arial', sans-serif; text-anchor: end" x="56" y="299.152219" transform="rotate(-0 56 299.152219)">4</text>
     </g>
    </g>
    <g id="ytick_12">
     <g id="line2d_18">
      <g>
       <use xlink:href="#m4cb54aa3b8" x="63" y="215.712" style="stroke: #000000; stroke-width: 0.8"/>
      </g>
     </g>
     <g id="text_20">
      <text style="font-size: 16px; font-family: 'Arial', sans-serif; text-anchor: end" x="56" y="221.536219" transform="rotate(-0 56 221.536219)">6</text>
     </g>
    </g>
    <g id="ytick_13">
     <g id="line2d_19">
      <g>
       <use xlink:href="#m4cb54aa3b8" x="63" y="138.096" style="stroke: #000000; stroke-width: 0.8"/>
      </g>
     </g>
     <g id="text_21">
      <text style="font-size: 16px; font-family: 'Arial', sans-serif; text-anchor: end" x="56" y="143.920219" transform="rotate(-0 56 143.920219)">8</text>
     </g>
    </g>
    <g id="ytick_14">
     <g id="line2d_20">
      <g>
       <use xlink:href="#m4cb54aa3b8" x="63" y="60.48" style="stroke: #000000; stroke-width: 0.8"/>
      </g>
     </g>
     <g id="text_22">
      <text style="font-size: 16px; font-family: 'Arial', sans-serif; text-anchor: end" x="56" y="66.304219" transform="rotate(-0 56 66.304219)">10</text>
     </g>
    </g>
    <g id="text_23">
     <text style="font-size: 16px; font-family: 'Arial', sans-serif; text-anchor: middle" x="30.837812" y="254.52" transform="rotate(-90 30.837812 254.52)">Time-dependent reproduction number</text>
    </g>
   </g>
   <g id="line2d_21">
    <path d="M 81.56711 409.573745 
L 83.598523 407.814467 
L 85.629936 293.468209 
L 87.087229 -1 
M 91.71146 -1 
L 91.724173 -0.459851 
L 93.755586 124.221806 
L 95.786998 230.487401 
L 97.818411 296.951225 
L 99.849823 338.312046 
L 101.881236 343.75546 
L 103.912648 370.631777 
L 105.944061 386.279649 
L 107.975473 396.998499 
L 110.006886 404.012163 
L 112.038298 409.552022 
L 114.069711 412.855625 
L 116.101123 415.855622 
L 118.132536 418.120575 
L 120.163948 419.608036 
L 122.195361 413.195521 
L 124.226773 414.754671 
L 126.258186 415.724645 
L 128.289599 407.602626 
L 130.321011 408.081322 
L 132.352424 398.374106 
L 134.383836 399.314374 
L 136.415249 387.119057 
L 138.446661 390.980292 
L 140.478074 378.716795 
L 142.509486 367.847992 
L 144.540899 377.092443 
L 148.603724 364.963602 
L 150.635136 379.070848 
L 152.666549 374.85124 
L 154.697961 384.533037 
L 156.729374 395.367071 
L 158.760786 368.351327 
L 160.792199 357.517467 
L 162.823611 363.030518 
L 164.855024 367.279629 
L 166.886436 369.970535 
L 168.917849 373.818129 
L 170.949261 356.213341 
L 172.980674 374.868542 
L 175.012087 379.472002 
L 177.043499 384.755703 
L 179.074912 364.414728 
L 181.106324 357.967391 
L 183.137737 354.974541 
L 185.169149 361.960143 
L 187.200562 351.644406 
L 189.231974 345.973038 
L 191.263387 306.959776 
L 193.294799 311.68118 
L 195.326212 293.467166 
L 197.357624 312.389592 
L 199.389037 334.483345 
L 201.420449 345.584698 
L 203.451862 345.661826 
L 205.483274 373.733217 
L 207.514687 394.713333 
L 209.546099 384.259838 
L 211.577512 399.912458 
L 213.608924 403.97385 
L 215.640337 412.139634 
L 217.67175 399.523584 
L 219.703162 393.738773 
L 221.734575 390.12843 
L 223.765987 390.524369 
L 225.7974 384.638298 
L 227.828812 369.958421 
L 229.860225 361.873735 
L 231.891637 374.915751 
L 233.92305 367.317345 
L 235.954462 394.645088 
L 237.985875 374.940115 
L 240.017287 377.823984 
L 242.0487 396.965644 
L 244.080112 409.414257 
L 246.111525 420.142256 
L 248.142937 423.44344 
L 250.17435 421.555535 
L 252.205762 410.560113 
L 254.237175 416.087541 
L 256.268587 416.318832 
L 258.3 422.097667 
L 260.331413 424.090803 
L 264.394238 431.486516 
L 266.42565 433.739444 
L 268.457063 437.57639 
L 270.488475 439.164853 
L 272.519888 439.214029 
L 274.5513 438.420745 
L 276.582713 439.843371 
L 278.614125 438.755832 
L 280.645538 438.860664 
L 282.67695 440.950984 
L 284.708363 442.446631 
L 286.739775 442.635316 
L 288.771188 441.693632 
L 290.8026 441.928904 
L 292.834013 443.164251 
L 294.865425 443.022852 
L 296.896838 444.099457 
L 298.92825 443.671878 
L 300.959663 444.549404 
L 305.022488 445.892402 
L 307.053901 444.745109 
L 309.085313 443.800666 
L 313.148138 445.112685 
L 315.179551 445.503739 
L 317.210963 443.774855 
L 321.273788 444.791877 
L 327.368026 445.703208 
L 335.493676 446.226534 
L 337.525088 443.401794 
L 339.556501 443.644365 
L 341.587913 444.045782 
L 343.619326 444.326073 
L 347.682151 444.529792 
L 349.713564 444.622349 
L 351.744976 440.804501 
L 353.776389 441.301331 
L 357.839214 441.854968 
L 359.870626 442.378965 
L 363.933451 442.90134 
L 370.027689 443.564637 
L 372.059101 444.033499 
L 386.278989 445.097524 
L 388.310401 445.20678 
L 390.341814 445.139431 
L 392.373227 445.290395 
L 394.404639 445.277456 
L 400.498877 445.615249 
L 402.530289 445.486863 
L 404.561702 445.715217 
L 416.750177 445.939117 
L 418.781589 446.206897 
L 420.813002 446.087206 
L 424.875827 446.153669 
L 433.001477 446.382706 
L 435.03289 446.35726 
L 435.03289 446.35726 
" clip-path="url(#p329bddea44)" style="fill: none; stroke: #0173b2; stroke-width: 2; stroke-linecap: square"/>
   </g>
   <g id="line2d_22">
    <path d="M 81.56711 394.209489 
L 83.598523 394.401705 
L 85.629936 240.041799 
L 86.585814 -1 
M 92.427635 -1 
L 93.755586 95.87815 
L 95.786998 220.914059 
L 97.818411 289.488964 
L 99.849823 337.525502 
L 101.881236 344.379756 
L 103.912648 372.311521 
L 105.944061 387.77472 
L 107.975473 398.155192 
L 110.006886 405.067537 
L 112.038298 409.962872 
L 114.069711 413.788257 
L 116.101123 416.443582 
L 118.132536 418.527837 
L 120.163948 419.937174 
L 122.195361 413.396156 
L 124.226773 415.050475 
L 126.258186 416.109288 
L 128.289599 407.209702 
L 130.321011 409.020451 
L 132.352424 397.995443 
L 134.383836 399.796276 
L 136.415249 387.016415 
L 138.446661 391.636634 
L 140.478074 378.532431 
L 142.509486 367.549218 
L 144.540899 376.690835 
L 146.572311 369.067365 
L 148.603724 363.943023 
L 150.635136 375.657214 
L 152.666549 372.850772 
L 154.697961 383.974798 
L 156.729374 393.564495 
L 158.760786 366.898323 
L 160.792199 356.274322 
L 162.823611 361.608694 
L 164.855024 365.586187 
L 166.886436 368.872279 
L 168.917849 372.506899 
L 170.949261 353.76586 
L 172.980674 373.718459 
L 175.012087 379.09735 
L 177.043499 383.6727 
L 179.074912 363.701051 
L 181.106324 357.815344 
L 183.137737 354.773159 
L 185.169149 361.999883 
L 187.200562 352.605652 
L 189.231974 346.010128 
L 191.263387 308.620115 
L 193.294799 312.91041 
L 195.326212 293.672159 
L 197.357624 313.47583 
L 199.389037 335.744878 
L 201.420449 345.76726 
L 203.451862 345.45724 
L 205.483274 374.343686 
L 207.514687 394.974545 
L 209.546099 384.64824 
L 211.577512 400.196894 
L 213.608924 404.206334 
L 215.640337 412.226338 
L 217.67175 399.508012 
L 219.703162 393.707744 
L 221.734575 389.624582 
L 223.765987 390.428417 
L 225.7974 383.951678 
L 227.828812 369.32848 
L 229.860225 360.318818 
L 231.891637 372.628074 
L 233.92305 365.105301 
L 235.954462 392.414132 
L 237.985875 372.291145 
L 240.017287 374.593961 
L 242.0487 394.10977 
L 244.080112 406.73546 
L 246.111525 417.652619 
L 248.142937 421.100508 
L 250.17435 418.548575 
L 252.205762 406.779951 
L 254.237175 412.225747 
L 256.268587 411.965168 
L 258.3 417.6951 
L 260.331413 419.671159 
L 264.394238 427.462911 
L 266.42565 429.664833 
L 268.457063 433.829214 
L 270.488475 435.45233 
L 272.519888 435.393932 
L 274.5513 433.770324 
L 276.582713 435.312656 
L 278.614125 433.279748 
L 280.645538 433.074951 
L 282.67695 435.438535 
L 284.708363 437.061944 
L 286.739775 436.89956 
L 288.771188 434.607756 
L 290.8026 434.577582 
L 292.834013 435.846906 
L 294.865425 434.958686 
L 296.896838 436.077138 
L 298.92825 434.725299 
L 300.959663 435.809138 
L 302.991076 436.676082 
L 305.022488 437.024318 
L 307.053901 435.291279 
L 309.085313 433.127616 
L 311.116726 434.019635 
L 315.179551 435.131045 
L 317.210963 432.530212 
L 319.242376 432.915078 
L 323.305201 433.328431 
L 325.336613 433.880263 
L 327.368026 433.955258 
L 329.399438 433.825748 
L 331.430851 434.371428 
L 333.462263 434.521258 
L 335.493676 434.342187 
L 337.525088 429.569334 
L 339.556501 430.205158 
L 341.587913 429.619066 
L 343.619326 429.861158 
L 345.650739 429.818788 
L 349.713564 429.517283 
L 351.744976 422.045398 
L 353.776389 421.997994 
L 355.807801 422.202684 
L 357.839214 422.815902 
L 361.902039 423.768057 
L 365.964864 423.855367 
L 367.996276 424.375494 
L 370.027689 424.437822 
L 372.059101 425.201876 
L 376.121926 425.591915 
L 380.184751 425.629715 
L 382.216164 425.228228 
L 384.247576 425.80636 
L 386.278989 425.045308 
L 388.310401 424.617057 
L 390.341814 424.474395 
L 392.373227 424.007058 
L 394.404639 423.669816 
L 396.436052 422.781728 
L 398.467464 422.667365 
L 400.498877 421.775455 
L 402.530289 422.140415 
L 404.561702 421.54271 
L 406.593114 419.775988 
L 408.624527 420.945174 
L 410.655939 419.855792 
L 412.687352 419.869679 
L 414.718764 418.114563 
L 416.750177 417.84087 
L 420.813002 417.447564 
L 422.844414 416.226412 
L 424.875827 415.478993 
L 426.907239 415.171975 
L 428.938652 416.41335 
L 430.970064 414.095011 
L 433.001477 413.644019 
L 435.03289 414.940688 
L 435.03289 414.940688 
" clip-path="url(#p329bddea44)" style="fill: none; stroke: #de8f05; stroke-width: 2; stroke-linecap: square"/>
   </g>
   <g id="patch_179">
    <path d="M 63 448.56 
L 63 60.48 
" style="fill: none; stroke: #000000; stroke-width: 0.8; stroke-linejoin: miter; stroke-linecap: square"/>
   </g>
   <g id="patch_180">
    <path d="M 63 448.56 
L 453.6 448.56 
" style="fill: none; stroke: #000000; stroke-width: 0.8; stroke-linejoin: miter; stroke-linecap: square"/>
   </g>
   <g id="legend_1">
    <g id="patch_181">
     <path d="M 296.281563 111.957891 
L 443.8 111.957891 
Q 446.6 111.957891 446.6 109.157891 
L 446.6 70.28 
Q 446.6 67.48 443.8 67.48 
L 296.281563 67.48 
Q 293.481562 67.48 293.481562 70.28 
L 293.481562 109.157891 
Q 293.481562 111.957891 296.281563 111.957891 
z
" style="fill: #ffffff; opacity: 0.8; stroke: #cccccc; stroke-linejoin: miter"/>
    </g>
    <g id="line2d_23">
     <path d="M 299.081563 78.372383 
L 313.081563 78.372383 
L 327.081563 78.372383 
" style="fill: none; stroke: #0173b2; stroke-width: 2; stroke-linecap: square"/>
    </g>
    <g id="text_24">
     <text style="font-size: 14px; font-family: 'Arial', sans-serif; text-anchor: start" x="338.281563" y="83.272383" transform="rotate(-0 338.281563 83.272383)">Suitability-based</text>
    </g>
    <g id="line2d_24">
     <path d="M 299.081563 98.511328 
L 313.081563 98.511328 
L 327.081563 98.511328 
" style="fill: none; stroke: #de8f05; stroke-width: 2; stroke-linecap: square"/>
    </g>
    <g id="text_25">
     <text style="font-size: 14px; font-family: 'Arial', sans-serif; text-anchor: start" x="338.281563" y="103.411328" transform="rotate(-0 338.281563 103.411328)">Autoregressive</text>
    </g>
   </g>
  </g>
 </g>
 <defs>
  <clipPath id="p329bddea44">
   <rect x="63" y="60.48" width="390.6" height="388.08"/>
  </clipPath>
 </defs>
</svg>
