<?xml version="1.0" encoding="utf-8" standalone="no"?>
<!DOCTYPE svg PUBLIC "-//W3C//DTD SVG 1.1//EN"
  "http://www.w3.org/Graphics/SVG/1.1/DTD/svg11.dtd">
<svg xmlns:xlink="http://www.w3.org/1999/xlink" width="504pt" height="504pt" viewBox="0 0 504 504" xmlns="http://www.w3.org/2000/svg" version="1.1">
 <metadata>
  <rdf:RDF xmlns:dc="http://purl.org/dc/elements/1.1/" xmlns:cc="http://creativecommons.org/ns#" xmlns:rdf="http://www.w3.org/1999/02/22-rdf-syntax-ns#">
   <cc:Work>
    <dc:type rdf:resource="http://purl.org/dc/dcmitype/StillImage"/>
    <dc:date>2026-04-17T16:38:28.283354</dc:date>
    <dc:format>image/svg+xml</dc:format>
    <dc:creator>
     <cc:Agent>
      <dc:title>Matplotlib v3.10.8, https://matplotlib.org/</dc:title>
     </cc:Agent>
    </dc:creator>
   </cc:Work>
  </rdf:RDF>
 </metadata>
 <defs>
  <style type="text/css">*{stroke-linejoin: round; stroke-linecap: butt}</style>
 </defs>
 <g id="figure_1">
  <g id="patch_1">
   <path d="M 0 504 
L 504 504 
L 504 0 
L 0 0 
L 0 504 
z
" style="fill: none"/>
  </g>
  <g id="axes_1">
   <g id="patch_2">
    <path d="M 63 448.56 
L 453.6 448.56 
L 453.6 60.48 
L 63 60.48 
L 63 448.56 
z
" style="fill: none"/>
   </g>
   <g id="FillBetweenPolyCollection_1">
    <path d="M 81.571786 310.348083 
L 81.571786 442.957002 
L 83.614886 442.766417 
L 85.657987 426.05936 
L 87.701088 368.924533 
L 89.744189 373.5483 
L 91.787289 375.211238 
L 93.83039 389.697651 
L 95.873491 398.391737 
L 97.916592 413.564456 
L 99.959692 421.016066 
L 102.002793 416.231215 
L 104.045894 424.77824 
L 106.088995 429.372168 
L 108.132095 432.608502 
L 110.175196 434.521573 
L 112.218297 436.724719 
L 114.261398 437.363871 
L 116.304498 438.24024 
L 118.347599 438.997469 
L 120.3907 440.284793 
L 122.433801 437.652388 
L 124.476901 437.867045 
L 126.520002 439.344605 
L 128.563103 435.878334 
L 130.606204 436.880081 
L 132.649304 432.929453 
L 134.692405 434.464777 
L 136.735506 430.9396 
L 138.778607 432.064686 
L 140.821707 428.997034 
L 142.864808 423.409722 
L 144.907909 426.503636 
L 146.95101 424.020577 
L 148.99411 420.878981 
L 151.037211 424.83927 
L 153.080312 422.697044 
L 155.123412 426.799402 
L 157.166513 430.478017 
L 159.209614 418.090725 
L 161.252715 413.089318 
L 163.295815 414.543402 
L 165.338916 416.525651 
L 167.382017 417.645766 
L 169.425118 418.324959 
L 171.468218 409.397516 
L 173.511319 417.880221 
L 175.55442 420.07677 
L 177.597521 421.939739 
L 179.640621 412.184768 
L 181.683722 407.531516 
L 183.726823 405.200689 
L 185.769924 408.783736 
L 187.813024 401.759282 
L 189.856125 398.418947 
L 191.899226 377.863369 
L 193.942327 377.775999 
L 195.985427 367.466848 
L 198.028528 377.575171 
L 200.071629 388.594202 
L 202.11473 394.086155 
L 204.15783 394.224069 
L 206.200931 409.677693 
L 208.244032 420.731396 
L 210.287133 413.996236 
L 212.330233 423.239773 
L 214.373334 425.945092 
L 216.416435 430.213714 
L 218.459536 423.181729 
L 220.502636 420.186028 
L 222.545737 416.645606 
L 224.588838 416.976505 
L 226.631938 413.316826 
L 228.675039 405.05244 
L 230.71814 400.200812 
L 232.761241 406.89508 
L 234.804341 402.309709 
L 236.847442 419.52324 
L 238.890543 407.753723 
L 240.933644 409.163474 
L 242.976744 419.651257 
L 245.019845 427.290083 
L 247.062946 433.295711 
L 249.106047 435.555095 
L 251.149147 434.328499 
L 253.192248 427.45408 
L 255.235349 431.066982 
L 257.27845 431.238336 
L 259.32155 434.534223 
L 261.364651 435.700298 
L 263.407752 438.065531 
L 265.450853 440.208446 
L 267.493953 441.431746 
L 269.537054 443.246267 
L 271.580155 444.255005 
L 273.623256 444.442711 
L 275.666356 443.961435 
L 277.709457 444.655282 
L 279.752558 444.309687 
L 281.795659 444.48713 
L 283.838759 445.475098 
L 285.88186 446.263779 
L 287.924961 446.41443 
L 289.968062 446.127822 
L 292.011162 446.2414 
L 294.054263 446.963539 
L 296.097364 447.086928 
L 298.140464 447.529069 
L 300.183565 447.52025 
L 302.226666 448.052822 
L 304.269767 448.557988 
L 306.312867 448.559999 
L 308.355968 448.13996 
L 310.399069 447.847239 
L 312.44217 448.21535 
L 314.48527 448.559891 
L 316.528371 448.559998 
L 318.571472 447.989867 
L 320.614573 448.480168 
L 322.657673 448.557975 
L 324.700774 448.559999 
L 326.743875 448.559999 
L 328.786976 448.559999 
L 330.830076 448.56 
L 332.873177 448.56 
L 334.916278 448.56 
L 336.959379 448.56 
L 339.002479 448.122095 
L 341.04558 448.347389 
L 343.088681 448.549042 
L 345.131782 448.55998 
L 347.174882 448.559998 
L 349.217983 448.559999 
L 351.261084 448.559999 
L 353.304185 447.715936 
L 355.347285 447.859547 
L 357.390386 448.254905 
L 359.433487 448.415255 
L 361.476588 448.558605 
L 363.519688 448.559908 
L 365.562789 448.559997 
L 367.60589 448.559998 
L 369.64899 448.559999 
L 371.692091 448.559999 
L 373.735192 448.559999 
L 375.778293 448.559999 
L 377.821393 448.559999 
L 379.864494 448.56 
L 381.907595 448.56 
L 383.950696 448.559999 
L 385.993796 448.56 
L 388.036897 448.56 
L 390.079998 448.56 
L 392.123099 448.56 
L 394.166199 448.56 
L 396.2093 448.56 
L 398.252401 448.56 
L 400.295502 448.56 
L 402.338602 448.56 
L 404.381703 448.56 
L 406.424804 448.56 
L 408.467905 448.56 
L 410.511005 448.56 
L 412.554106 448.56 
L 414.597207 448.56 
L 416.640308 448.56 
L 418.683408 448.56 
L 420.726509 448.56 
L 422.76961 448.56 
L 424.812711 448.56 
L 426.855811 448.56 
L 428.898912 448.56 
L 430.942013 448.56 
L 432.985114 448.56 
L 435.028214 448.56 
L 435.028214 437.03961 
L 435.028214 437.03961 
L 432.985114 436.109812 
L 430.942013 435.092447 
L 428.898912 435.464656 
L 426.855811 435.41518 
L 424.812711 436.013389 
L 422.76961 435.545646 
L 420.726509 434.897131 
L 418.683408 435.172173 
L 416.640308 434.622724 
L 414.597207 434.710538 
L 412.554106 434.423531 
L 410.511005 435.732255 
L 408.467905 435.306851 
L 406.424804 434.797125 
L 404.381703 434.666463 
L 402.338602 435.306161 
L 400.295502 433.446649 
L 398.252401 433.892478 
L 396.2093 434.042415 
L 394.166199 433.06257 
L 392.123099 433.403307 
L 390.079998 432.957294 
L 388.036897 433.150853 
L 385.993796 433.073517 
L 383.950696 432.507464 
L 381.907595 432.380972 
L 379.864494 431.989216 
L 377.821393 430.689463 
L 375.778293 432.021465 
L 373.735192 431.02528 
L 371.692091 428.959596 
L 369.64899 429.830242 
L 367.60589 427.684349 
L 365.562789 428.474576 
L 363.519688 426.641407 
L 361.476588 424.23067 
L 359.433487 426.122891 
L 357.390386 423.243803 
L 355.347285 423.598265 
L 353.304185 422.634853 
L 351.261084 433.660547 
L 349.217983 434.799923 
L 347.174882 433.307317 
L 345.131782 432.599385 
L 343.088681 433.754265 
L 341.04558 432.369319 
L 339.002479 432.178983 
L 336.959379 438.955789 
L 334.916278 438.737403 
L 332.873177 437.743103 
L 330.830076 438.34001 
L 328.786976 438.481707 
L 326.743875 438.504064 
L 324.700774 437.351328 
L 322.657673 436.03474 
L 320.614573 435.817226 
L 318.571472 435.31882 
L 316.528371 438.997537 
L 314.48527 437.767549 
L 312.44217 437.40332 
L 310.399069 435.765962 
L 308.355968 438.334878 
L 306.312867 440.493962 
L 304.269767 439.141015 
L 302.226666 437.361112 
L 300.183565 436.984539 
L 298.140464 437.596695 
L 296.097364 435.448734 
L 294.054263 436.389157 
L 292.011162 433.769563 
L 289.968062 434.257391 
L 287.924961 436.189148 
L 285.88186 436.073954 
L 283.838759 433.729556 
L 281.795659 429.590241 
L 279.752558 429.335325 
L 277.709457 431.670772 
L 275.666356 428.660813 
L 273.623256 431.111612 
L 271.580155 430.730099 
L 269.537054 428.107809 
L 267.493953 422.264833 
L 265.450853 418.635758 
L 263.407752 412.302744 
L 261.364651 406.656487 
L 259.32155 402.967308 
L 257.27845 393.742261 
L 255.235349 393.721684 
L 253.192248 385.178012 
L 251.149147 402.054707 
L 249.106047 405.471635 
L 247.062946 401.76091 
L 245.019845 382.927529 
L 242.976744 363.212646 
L 240.933644 334.115213 
L 238.890543 326.78817 
L 236.847442 358.53901 
L 234.804341 315.031858 
L 232.761241 326.645503 
L 230.71814 308.109749 
L 228.675039 319.464676 
L 226.631938 341.011126 
L 224.588838 350.563075 
L 222.545737 349.625076 
L 220.502636 357.366254 
L 218.459536 365.119822 
L 216.416435 385.648222 
L 214.373334 370.841825 
L 212.330233 365.205232 
L 210.287133 338.339776 
L 208.244032 354.112153 
L 206.200931 322.254054 
L 204.15783 272.27152 
L 202.11473 270.794228 
L 200.071629 255.143194 
L 198.028528 216.569663 
L 195.985427 184.942433 
L 193.942327 213.329377 
L 191.899226 197.309669 
L 189.856125 266.476287 
L 187.813024 274.400889 
L 185.769924 286.994809 
L 183.726823 274.056956 
L 181.683722 280.126982 
L 179.640621 285.34155 
L 177.597521 318.869329 
L 175.55442 310.855018 
L 173.511319 297.374753 
L 171.468218 270.534278 
L 169.425118 298.066828 
L 167.382017 296.006064 
L 165.338916 283.570149 
L 163.295815 274.458705 
L 161.252715 259.469813 
L 159.209614 278.259048 
L 157.166513 327.169949 
L 155.123412 311.108093 
L 153.080312 283.533685 
L 151.037211 283.279548 
L 148.99411 261.788028 
L 146.95101 265.833246 
L 144.907909 279.778425 
L 142.864808 260.648821 
L 140.821707 273.440771 
L 138.778607 301.797532 
L 136.735506 296.768879 
L 134.692405 332.942141 
L 132.649304 326.373644 
L 130.606204 356.784034 
L 128.563103 349.598585 
L 126.520002 370.676747 
L 124.476901 369.023714 
L 122.433801 365.045112 
L 120.3907 381.948745 
L 118.347599 378.545714 
L 116.304498 371.110747 
L 114.261398 367.304701 
L 112.218297 359.175719 
L 110.175196 345.806189 
L 108.132095 337.014699 
L 106.088995 306.482514 
L 104.045894 271.936665 
L 102.002793 211.103444 
L 99.959692 180.341217 
L 97.916592 60.057653 
L 95.873491 -176.074577 
L 93.83039 -467.383924 
L 91.787289 -1038.871492 
L 89.744189 -1313.6203 
L 87.701088 -1724.771324 
L 85.657987 -114.529283 
L 83.614886 301.821161 
L 81.571786 310.348083 
z
" clip-path="url(#p181dc353cb)" style="fill: #0173b2; fill-opacity: 0.3; stroke: #0173b2; stroke-opacity: 0.3"/>
   </g>
   <g id="FillBetweenPolyCollection_2">
    <path d="M 81.571786 245.036291 
L 81.571786 439.805846 
L 83.614886 440.018711 
L 85.657987 421.118136 
L 87.701088 340.241961 
L 89.744189 356.328561 
L 91.787289 365.710107 
L 93.83039 388.440114 
L 95.873491 399.614484 
L 97.916592 413.420378 
L 99.959692 421.382593 
L 102.002793 417.838374 
L 104.045894 423.081544 
L 106.088995 429.591096 
L 108.132095 431.962532 
L 110.175196 434.439864 
L 112.218297 435.557264 
L 114.261398 437.754884 
L 116.304498 438.991444 
L 118.347599 439.83193 
L 120.3907 440.234993 
L 122.433801 437.800551 
L 124.476901 439.389554 
L 126.520002 438.807405 
L 128.563103 436.690325 
L 130.606204 437.170122 
L 132.649304 433.660129 
L 134.692405 435.015483 
L 136.735506 431.145759 
L 138.778607 432.17803 
L 140.821707 427.5198 
L 142.864808 423.111776 
L 144.907909 425.581183 
L 146.95101 422.787356 
L 148.99411 422.211561 
L 151.037211 424.188675 
L 153.080312 422.001649 
L 155.123412 426.732369 
L 157.166513 429.074354 
L 159.209614 418.570509 
L 161.252715 412.552882 
L 163.295815 414.805604 
L 165.338916 415.257078 
L 167.382017 415.798049 
L 169.425118 418.363604 
L 171.468218 408.29534 
L 173.511319 416.736096 
L 175.55442 419.072355 
L 177.597521 422.662573 
L 179.640621 412.531438 
L 181.683722 407.519488 
L 183.726823 404.811395 
L 185.769924 408.350761 
L 187.813024 404.074736 
L 189.856125 399.045868 
L 191.899226 378.214993 
L 193.942327 377.812787 
L 195.985427 366.948922 
L 198.028528 378.159834 
L 200.071629 388.94677 
L 202.11473 395.215451 
L 204.15783 393.992953 
L 206.200931 410.334653 
L 208.244032 421.616891 
L 210.287133 414.741437 
L 212.330233 423.279297 
L 214.373334 425.690205 
L 216.416435 430.219586 
L 218.459536 423.262601 
L 220.502636 419.673383 
L 222.545737 416.417963 
L 224.588838 417.034041 
L 226.631938 411.960721 
L 228.675039 405.306504 
L 230.71814 399.214548 
L 232.761241 406.882659 
L 234.804341 400.713697 
L 236.847442 416.958253 
L 238.890543 405.644504 
L 240.933644 407.159066 
L 242.976744 418.157917 
L 245.019845 425.717985 
L 247.062946 432.25744 
L 249.106047 434.037809 
L 251.149147 432.696165 
L 253.192248 425.46156 
L 255.235349 428.523996 
L 257.27845 428.044385 
L 259.32155 431.900416 
L 261.364651 433.559952 
L 263.407752 435.529645 
L 265.450853 437.886344 
L 267.493953 439.197599 
L 269.537054 441.552016 
L 271.580155 442.418299 
L 273.623256 442.390749 
L 275.666356 441.794105 
L 277.709457 442.454968 
L 279.752558 441.495343 
L 281.795659 441.463238 
L 283.838759 442.787418 
L 285.88186 443.739376 
L 287.924961 443.574658 
L 289.968062 442.681764 
L 292.011162 442.637584 
L 294.054263 443.375665 
L 296.097364 443.130525 
L 298.140464 443.701055 
L 300.183565 443.472114 
L 302.226666 443.743856 
L 304.269767 444.220175 
L 306.312867 444.516225 
L 308.355968 443.804574 
L 310.399069 443.15566 
L 312.44217 443.653694 
L 314.48527 443.729001 
L 316.528371 444.129857 
L 318.571472 443.164714 
L 320.614573 443.645294 
L 322.657673 443.757996 
L 324.700774 443.825117 
L 326.743875 443.914317 
L 328.786976 444.256445 
L 330.830076 444.172535 
L 332.873177 444.549411 
L 334.916278 444.705068 
L 336.959379 444.78653 
L 339.002479 443.286585 
L 341.04558 443.467424 
L 343.088681 443.466095 
L 345.131782 443.458128 
L 347.174882 443.876058 
L 349.217983 443.877072 
L 351.261084 443.937108 
L 353.304185 441.880054 
L 355.347285 442.090229 
L 357.390386 441.858398 
L 359.433487 442.378031 
L 361.476588 442.22358 
L 363.519688 443.184604 
L 365.562789 442.896841 
L 367.60589 442.813205 
L 369.64899 442.693716 
L 371.692091 443.085535 
L 373.735192 443.248834 
L 375.778293 442.98635 
L 377.821393 443.465115 
L 379.864494 443.542213 
L 381.907595 443.040996 
L 383.950696 443.716525 
L 385.993796 443.403085 
L 388.036897 443.375279 
L 390.079998 443.688169 
L 392.123099 443.812405 
L 394.166199 443.872368 
L 396.2093 443.967994 
L 398.252401 443.475508 
L 400.295502 443.255921 
L 402.338602 443.608611 
L 404.381703 443.843344 
L 406.424804 443.54697 
L 408.467905 443.721984 
L 410.511005 443.535362 
L 412.554106 443.266272 
L 414.597207 443.509263 
L 416.640308 443.679127 
L 418.683408 443.385679 
L 420.726509 443.737474 
L 422.76961 443.398037 
L 424.812711 443.276137 
L 426.855811 442.976722 
L 428.898912 443.03407 
L 430.942013 443.11874 
L 432.985114 442.442878 
L 435.028214 442.710856 
L 435.028214 336.423218 
L 435.028214 336.423218 
L 432.985114 335.144998 
L 430.942013 338.533897 
L 428.898912 335.265924 
L 426.855811 337.374042 
L 424.812711 344.134225 
L 422.76961 340.361317 
L 420.726509 358.754579 
L 418.683408 348.247374 
L 416.640308 350.420065 
L 414.597207 351.164846 
L 412.554106 356.488983 
L 410.511005 355.114005 
L 408.467905 363.23629 
L 406.424804 363.353195 
L 404.381703 367.103364 
L 402.338602 369.202753 
L 400.295502 368.354509 
L 398.252401 371.529153 
L 396.2093 371.189399 
L 394.166199 378.53108 
L 392.123099 381.417864 
L 390.079998 376.238135 
L 388.036897 381.169751 
L 385.993796 379.110627 
L 383.950696 376.63384 
L 381.907595 382.402702 
L 379.864494 384.972474 
L 377.821393 383.302659 
L 375.778293 382.077559 
L 373.735192 382.641132 
L 371.692091 384.42505 
L 369.64899 384.083642 
L 367.60589 385.744893 
L 365.562789 380.584933 
L 363.519688 377.512227 
L 361.476588 380.119025 
L 359.433487 380.456816 
L 357.390386 377.732485 
L 355.347285 379.783913 
L 353.304185 378.096496 
L 351.261084 397.886724 
L 349.217983 401.601435 
L 347.174882 398.747423 
L 345.131782 400.907471 
L 343.088681 399.130956 
L 341.04558 400.846659 
L 339.002479 403.320128 
L 336.959379 411.468772 
L 334.916278 412.506458 
L 332.873177 410.600216 
L 330.830076 412.774315 
L 328.786976 415.227856 
L 326.743875 413.089925 
L 324.700774 412.209754 
L 322.657673 411.759976 
L 320.614573 412.833945 
L 318.571472 409.851003 
L 316.528371 418.201496 
L 314.48527 416.504463 
L 312.44217 415.386746 
L 310.399069 414.494533 
L 308.355968 419.463537 
L 306.312867 423.897673 
L 304.269767 422.265575 
L 302.226666 422.237628 
L 300.183565 419.367464 
L 298.140464 422.413783 
L 296.097364 420.806528 
L 294.054263 421.846116 
L 292.011162 420.050907 
L 289.968062 421.556163 
L 287.924961 426.24099 
L 285.88186 426.016447 
L 283.838759 423.767832 
L 281.795659 419.99077 
L 279.752558 419.95451 
L 277.709457 423.753577 
L 275.666356 421.75426 
L 273.623256 424.136858 
L 271.580155 424.835109 
L 269.537054 422.073274 
L 267.493953 414.709912 
L 265.450853 411.501987 
L 263.407752 405.163194 
L 261.364651 399.536154 
L 259.32155 395.855558 
L 257.27845 387.252048 
L 255.235349 389.086786 
L 253.192248 378.990494 
L 251.149147 397.75368 
L 249.106047 400.86539 
L 247.062946 395.908556 
L 245.019845 377.966695 
L 242.976744 359.984981 
L 240.933644 326.034312 
L 238.890543 324.565872 
L 236.847442 356.282932 
L 234.804341 311.826392 
L 232.761241 325.154227 
L 230.71814 306.153595 
L 228.675039 316.5839 
L 226.631938 340.724375 
L 224.588838 350.636316 
L 222.545737 350.506308 
L 220.502636 355.825314 
L 218.459536 365.160873 
L 216.416435 384.782278 
L 214.373334 370.360836 
L 212.330233 364.430002 
L 210.287133 338.31788 
L 208.244032 356.15688 
L 206.200931 321.123101 
L 204.15783 275.135851 
L 202.11473 271.232116 
L 200.071629 253.068159 
L 198.028528 213.092941 
L 195.985427 183.967522 
L 193.942327 214.996658 
L 191.899226 207.091368 
L 189.856125 265.187734 
L 187.813024 269.817413 
L 185.769924 290.061465 
L 183.726823 274.987225 
L 181.683722 281.223014 
L 179.640621 282.818166 
L 177.597521 318.783112 
L 175.55442 312.796582 
L 173.511319 301.709779 
L 171.468218 261.756739 
L 169.425118 294.331807 
L 167.382017 285.606801 
L 165.338916 279.456082 
L 163.295815 273.80246 
L 161.252715 253.801609 
L 159.209614 281.508325 
L 157.166513 328.624316 
L 155.123412 306.945973 
L 153.080312 277.912501 
L 151.037211 279.301531 
L 148.99411 260.579103 
L 146.95101 273.56933 
L 144.907909 285.971522 
L 142.864808 255.335589 
L 140.821707 276.066409 
L 138.778607 311.738717 
L 136.735506 299.177718 
L 134.692405 328.874475 
L 132.649304 330.101054 
L 130.606204 355.303918 
L 128.563103 350.943958 
L 126.520002 372.646156 
L 124.476901 369.652989 
L 122.433801 364.242967 
L 120.3907 377.886254 
L 118.347599 377.515766 
L 116.304498 374.960441 
L 114.261398 369.255011 
L 112.218297 358.187993 
L 110.175196 347.861911 
L 108.132095 331.336764 
L 106.088995 308.975987 
L 104.045894 277.204571 
L 102.002793 230.394803 
L 99.959692 181.675562 
L 97.916592 60.582159 
L 95.873491 -181.498369 
L 93.83039 -567.310432 
L 91.787289 -1257.728691 
L 89.744189 -1774.484392 
L 87.701088 -2129.445313 
L 85.657987 -310.346692 
L 83.614886 252.859547 
L 81.571786 245.036291 
z
" clip-path="url(#p181dc353cb)" style="fill: #de8f05; fill-opacity: 0.3; stroke: #de8f05; stroke-opacity: 0.3"/>
   </g>
   <g id="matplotlib.axis_1">
    <g id="xtick_1">
     <g id="line2d_1">
      <defs>
       <path id="m6e0f25b4cd" d="M 0 0 
L 0 3.5 
" style="stroke: #000000; stroke-width: 0.8"/>
      </defs>
      <g>
       <use xlink:href="#m6e0f25b4cd" x="91.787289" y="448.56" style="stroke: #000000; stroke-width: 0.8"/>
      </g>
     </g>
     <g id="text_1">
      <text style="font-size: 16px; font-family: 'Arial', sans-serif; text-anchor: middle" x="91.787289" y="467.0125" transform="rotate(-0 91.787289 467.0125)">1 Jul</text>
     </g>
    </g>
    <g id="xtick_2">
     <g id="line2d_2">
      <g>
       <use xlink:href="#m6e0f25b4cd" x="155.123412" y="448.56" style="stroke: #000000; stroke-width: 0.8"/>
      </g>
     </g>
     <g id="text_2">
      <text style="font-size: 16px; font-family: 'Arial', sans-serif; text-anchor: middle" x="155.123412" y="467.06" transform="rotate(-0 155.123412 467.06)">1 Aug</text>
     </g>
    </g>
    <g id="xtick_3">
     <g id="line2d_3">
      <g>
       <use xlink:href="#m6e0f25b4cd" x="218.459536" y="448.56" style="stroke: #000000; stroke-width: 0.8"/>
      </g>
     </g>
     <g id="text_3">
      <text style="font-size: 16px; font-family: 'Arial', sans-serif; text-anchor: middle" x="218.459536" y="467.2075" transform="rotate(-0 218.459536 467.2075)">1 Sep</text>
     </g>
    </g>
    <g id="xtick_4">
     <g id="line2d_4">
      <g>
       <use xlink:href="#m6e0f25b4cd" x="279.752558" y="448.56" style="stroke: #000000; stroke-width: 0.8"/>
      </g>
     </g>
     <g id="text_4">
      <text style="font-size: 16px; font-family: 'Arial', sans-serif; text-anchor: middle" x="279.752558" y="467.0125" transform="rotate(-0 279.752558 467.0125)">1 Oct</text>
     </g>
    </g>
    <g id="xtick_5">
     <g id="line2d_5">
      <g>
       <use xlink:href="#m6e0f25b4cd" x="343.088681" y="448.56" style="stroke: #000000; stroke-width: 0.8"/>
      </g>
     </g>
     <g id="text_5">
      <text style="font-size: 16px; font-family: 'Arial', sans-serif; text-anchor: middle" x="343.088681" y="467.0125" transform="rotate(-0 343.088681 467.0125)">1 Nov</text>
     </g>
    </g>
    <g id="xtick_6">
     <g id="line2d_6">
      <g>
       <use xlink:href="#m6e0f25b4cd" x="404.381703" y="448.56" style="stroke: #000000; stroke-width: 0.8"/>
      </g>
     </g>
     <g id="text_6">
      <text style="font-size: 16px; font-family: 'Arial', sans-serif; text-anchor: middle" x="404.381703" y="467.0125" transform="rotate(-0 404.381703 467.0125)">1 Dec</text>
     </g>
    </g>
   </g>
   <g id="matplotlib.axis_2">
    <g id="ytick_1">
     <g id="line2d_7">
      <defs>
       <path id="m2dddc5f9ea" d="M 0 0 
L -3.5 0 
" style="stroke: #000000; stroke-width: 0.8"/>
      </defs>
      <g>
       <use xlink:href="#m2dddc5f9ea" x="63" y="448.56" style="stroke: #000000; stroke-width: 0.8"/>
      </g>
     </g>
     <g id="text_7">
      <text style="font-size: 16px; font-family: 'Arial', sans-serif; text-anchor: end" x="56" y="454.28625" transform="rotate(-0 56 454.28625)">0</text>
     </g>
    </g>
    <g id="ytick_2">
     <g id="line2d_8">
      <g>
       <use xlink:href="#m2dddc5f9ea" x="63" y="370.944" style="stroke: #000000; stroke-width: 0.8"/>
      </g>
     </g>
     <g id="text_8">
      <text style="font-size: 16px; font-family: 'Arial', sans-serif; text-anchor: end" x="56" y="376.67025" transform="rotate(-0 56 376.67025)">2</text>
     </g>
    </g>
    <g id="ytick_3">
     <g id="line2d_9">
      <g>
       <use xlink:href="#m2dddc5f9ea" x="63" y="293.328" style="stroke: #000000; stroke-width: 0.8"/>
      </g>
     </g>
     <g id="text_9">
      <text style="font-size: 16px; font-family: 'Arial', sans-serif; text-anchor: end" x="56" y="299.05425" transform="rotate(-0 56 299.05425)">4</text>
     </g>
    </g>
    <g id="ytick_4">
     <g id="line2d_10">
      <g>
       <use xlink:href="#m2dddc5f9ea" x="63" y="215.712" style="stroke: #000000; stroke-width: 0.8"/>
      </g>
     </g>
     <g id="text_10">
      <text style="font-size: 16px; font-family: 'Arial', sans-serif; text-anchor: end" x="56" y="221.43825" transform="rotate(-0 56 221.43825)">6</text>
     </g>
    </g>
    <g id="ytick_5">
     <g id="line2d_11">
      <g>
       <use xlink:href="#m2dddc5f9ea" x="63" y="138.096" style="stroke: #000000; stroke-width: 0.8"/>
      </g>
     </g>
     <g id="text_11">
      <text style="font-size: 16px; font-family: 'Arial', sans-serif; text-anchor: end" x="56" y="143.82225" transform="rotate(-0 56 143.82225)">8</text>
     </g>
    </g>
    <g id="ytick_6">
     <g id="line2d_12">
      <g>
       <use xlink:href="#m2dddc5f9ea" x="63" y="60.48" style="stroke: #000000; stroke-width: 0.8"/>
      </g>
     </g>
     <g id="text_12">
      <text style="font-size: 16px; font-family: 'Arial', sans-serif; text-anchor: end" x="56" y="66.20625" transform="rotate(-0 56 66.20625)">10</text>
     </g>
    </g>
    <g id="text_13">
     <text style="font-size: 16px; font-family: 'Arial', sans-serif; text-anchor: middle" x="31.025" y="254.52" transform="rotate(-90 31.025 254.52)">Time-dependent reproduction number</text>
    </g>
   </g>
   <g id="line2d_13">
    <path d="M 81.571786 409.636217 
L 83.614886 407.849081 
L 85.657987 289.775229 
L 87.016849 -1 
M 91.93893 -1 
L 93.83039 134.175478 
L 95.873491 224.605088 
L 97.916592 296.349207 
L 99.959692 339.63294 
L 102.002793 343.868658 
L 104.045894 370.649043 
L 106.088995 386.164363 
L 108.132095 397.611923 
L 110.175196 404.045369 
L 112.218297 409.729102 
L 114.261398 413.421599 
L 116.304498 415.605465 
L 118.347599 418.318479 
L 120.3907 419.707675 
L 122.433801 412.893108 
L 124.476901 414.803738 
L 126.520002 416.17721 
L 128.563103 406.979566 
L 130.606204 409.27451 
L 132.649304 397.33509 
L 134.692405 400.921756 
L 136.735506 387.730555 
L 138.778607 390.387863 
L 142.864808 368.690529 
L 144.907909 377.705032 
L 146.95101 369.100439 
L 148.99411 365.147408 
L 151.037211 377.160945 
L 153.080312 375.003987 
L 155.123412 385.890686 
L 157.166513 394.386099 
L 159.209614 368.211009 
L 161.252715 357.598735 
L 163.295815 363.422376 
L 165.338916 368.17626 
L 167.382017 370.778483 
L 169.425118 373.759029 
L 171.468218 356.629881 
L 173.511319 373.858064 
L 175.55442 379.296218 
L 177.597521 383.568331 
L 179.640621 364.539712 
L 181.683722 358.584637 
L 183.726823 355.141071 
L 185.769924 361.890787 
L 187.813024 352.32246 
L 189.856125 346.049579 
L 191.899226 307.622061 
L 193.942327 312.671304 
L 195.985427 293.119635 
L 200.071629 334.380883 
L 202.11473 345.732818 
L 204.15783 345.341923 
L 206.200931 373.407411 
L 208.244032 395.216529 
L 210.287133 384.804358 
L 212.330233 400.20133 
L 214.373334 403.896309 
L 216.416435 412.131725 
L 218.459536 399.835874 
L 220.502636 393.815352 
L 222.545737 389.887134 
L 224.588838 390.15566 
L 226.631938 384.549169 
L 228.675039 370.220024 
L 230.71814 361.762887 
L 232.761241 374.597211 
L 234.804341 367.463772 
L 236.847442 394.931996 
L 238.890543 375.685301 
L 240.933644 378.034202 
L 242.976744 397.107845 
L 245.019845 409.549485 
L 247.062946 420.240115 
L 249.106047 423.65248 
L 251.149147 421.628422 
L 253.192248 410.58591 
L 255.235349 416.273784 
L 257.27845 416.00965 
L 259.32155 422.16732 
L 261.364651 424.12768 
L 265.450853 431.595159 
L 267.493953 434.019647 
L 269.537054 437.505882 
L 271.580155 439.165274 
L 273.623256 439.356063 
L 275.666356 438.464833 
L 277.709457 439.866814 
L 279.752558 438.79827 
L 281.795659 438.801355 
L 283.838759 441.033105 
L 285.88186 442.482402 
L 287.924961 442.686663 
L 289.968062 441.725512 
L 292.011162 441.895679 
L 294.054263 443.21584 
L 296.097364 443.000646 
L 298.140464 444.047524 
L 300.183565 443.727211 
L 304.269767 445.286804 
L 306.312867 445.867787 
L 310.399069 443.816134 
L 312.44217 444.583656 
L 316.528371 445.533639 
L 318.571472 443.842764 
L 320.614573 444.398901 
L 328.786976 445.661127 
L 332.873177 445.968532 
L 336.959379 446.20443 
L 339.002479 443.528834 
L 341.04558 443.725302 
L 343.088681 444.1392 
L 345.131782 444.134628 
L 349.217983 444.68709 
L 351.261084 444.604536 
L 353.304185 440.534175 
L 355.347285 441.198066 
L 357.390386 441.374594 
L 359.433487 442.133326 
L 361.476588 442.069653 
L 365.562789 443.078454 
L 367.60589 443.26355 
L 369.64899 443.607114 
L 371.692091 443.570597 
L 373.735192 444.075969 
L 377.821393 444.229101 
L 379.864494 444.596027 
L 381.907595 444.646168 
L 388.036897 445.063885 
L 390.079998 445.065784 
L 392.123099 445.299874 
L 394.166199 445.261526 
L 396.2093 445.432284 
L 400.295502 445.511701 
L 402.338602 445.646707 
L 404.381703 445.649276 
L 406.424804 445.851194 
L 410.511005 445.95528 
L 412.554106 445.789334 
L 424.812711 446.200492 
L 428.898912 446.117771 
L 435.028214 446.347051 
L 435.028214 446.347051 
" clip-path="url(#p181dc353cb)" style="fill: none; stroke: #0173b2; stroke-width: 2; stroke-linecap: square"/>
   </g>
   <g id="line2d_14">
    <path d="M 81.571786 392.106558 
L 83.614886 392.001978 
L 85.657987 238.55007 
L 86.584161 -1 
M 92.694397 -1 
L 93.83039 100.606993 
L 95.873491 217.51719 
L 97.916592 295.339779 
L 99.959692 340.112993 
L 102.002793 348.341917 
L 104.045894 370.312485 
L 106.088995 386.838764 
L 108.132095 398.272509 
L 110.175196 404.564586 
L 112.218297 410.094019 
L 114.261398 413.891891 
L 116.304498 416.6432 
L 118.347599 418.841177 
L 120.3907 419.874015 
L 122.433801 413.647343 
L 124.476901 415.709599 
L 126.520002 416.422513 
L 128.563103 407.892895 
L 130.606204 409.293045 
L 132.649304 399.468601 
L 134.692405 400.542397 
L 136.735506 388.081103 
L 138.778607 391.909574 
L 140.821707 378.014492 
L 142.864808 366.095772 
L 144.907909 377.515288 
L 146.95101 369.809045 
L 148.99411 365.130298 
L 151.037211 374.607848 
L 153.080312 372.09232 
L 155.123412 384.763318 
L 157.166513 393.122658 
L 159.209614 367.649774 
L 161.252715 354.583814 
L 163.295815 361.664966 
L 165.338916 365.910285 
L 167.382017 368.823853 
L 169.425118 372.728302 
L 171.468218 354.30345 
L 173.511319 372.983077 
L 175.55442 379.59129 
L 177.597521 383.419063 
L 179.640621 364.55253 
L 181.683722 358.449223 
L 183.726823 355.195043 
L 185.769924 362.146457 
L 187.813024 352.156335 
L 189.856125 346.527062 
L 191.899226 307.869707 
L 193.942327 312.05985 
L 195.985427 293.176921 
L 200.071629 334.410709 
L 202.11473 346.04397 
L 204.15783 345.789902 
L 206.200931 373.991412 
L 208.244032 395.459382 
L 210.287133 384.53939 
L 212.330233 400.32796 
L 214.373334 403.831486 
L 216.416435 412.329959 
L 218.459536 400.089368 
L 220.502636 394.373319 
L 222.545737 389.780839 
L 224.588838 389.973173 
L 226.631938 383.20248 
L 228.675039 369.397524 
L 230.71814 360.619601 
L 232.761241 373.154577 
L 234.804341 364.274154 
L 236.847442 392.466544 
L 238.890543 372.088867 
L 240.933644 374.202976 
L 242.976744 393.931143 
L 245.019845 406.649892 
L 247.062946 417.52032 
L 249.106047 420.998807 
L 251.149147 418.5253 
L 253.192248 406.592124 
L 255.235349 412.547986 
L 257.27845 411.614829 
L 259.32155 418.122058 
L 261.364651 419.892758 
L 265.450853 427.4539 
L 267.493953 429.51141 
L 269.537054 433.960121 
L 271.580155 435.604819 
L 273.623256 435.511205 
L 275.666356 433.974912 
L 277.709457 435.173811 
L 279.752558 433.253344 
L 281.795659 433.128867 
L 283.838759 435.515705 
L 285.88186 437.13283 
L 287.924961 437.094453 
L 289.968062 434.975563 
L 292.011162 434.488199 
L 294.054263 435.804458 
L 296.097364 434.812667 
L 298.140464 435.959909 
L 300.183565 434.798391 
L 302.226666 435.818594 
L 304.269767 436.562529 
L 306.312867 437.173063 
L 308.355968 434.908838 
L 310.399069 433.008527 
L 312.44217 433.803447 
L 314.48527 434.38797 
L 316.528371 435.231065 
L 318.571472 432.223565 
L 320.614573 432.890415 
L 322.657673 433.303631 
L 324.700774 433.242508 
L 328.786976 434.154302 
L 332.873177 433.758283 
L 334.916278 434.532881 
L 336.959379 434.41864 
L 339.002479 429.793781 
L 343.088681 429.472221 
L 345.131782 430.156594 
L 347.174882 429.916643 
L 349.217983 430.377373 
L 351.261084 430.014271 
L 353.304185 422.143885 
L 355.347285 422.687967 
L 357.390386 422.189079 
L 359.433487 422.731365 
L 361.476588 423.127798 
L 363.519688 423.89583 
L 367.60589 424.636221 
L 369.64899 424.358455 
L 371.692091 425.229637 
L 373.735192 424.683437 
L 375.778293 424.992885 
L 377.821393 425.655989 
L 379.864494 425.797993 
L 381.907595 425.153152 
L 383.950696 424.804302 
L 385.993796 424.958774 
L 388.036897 424.504163 
L 392.123099 425.112358 
L 394.166199 424.293505 
L 396.2093 422.925481 
L 398.252401 422.509796 
L 400.295502 422.786539 
L 402.338602 421.967101 
L 404.381703 422.139544 
L 406.424804 420.925089 
L 408.467905 421.137407 
L 410.511005 420.650239 
L 412.554106 419.501393 
L 416.640308 419.898289 
L 418.683408 417.839308 
L 420.726509 418.457316 
L 422.76961 416.753753 
L 424.812711 416.636731 
L 428.898912 415.017769 
L 430.942013 415.71694 
L 432.985114 414.232659 
L 435.028214 415.198299 
L 435.028214 415.198299 
" clip-path="url(#p181dc353cb)" style="fill: none; stroke: #de8f05; stroke-width: 2; stroke-linecap: square"/>
   </g>
   <g id="patch_3">
    <path d="M 63 448.56 
L 63 60.48 
" style="fill: none; stroke: #000000; stroke-width: 0.8; stroke-linejoin: miter; stroke-linecap: square"/>
   </g>
   <g id="patch_4">
    <path d="M 63 448.56 
L 453.6 448.56 
" style="fill: none; stroke: #000000; stroke-width: 0.8; stroke-linejoin: miter; stroke-linecap: square"/>
   </g>
   <g id="legend_1">
    <g id="patch_5">
     <path d="M 296.281563 111.785625 
L 443.8 111.785625 
Q 446.6 111.785625 446.6 108.985625 
L 446.6 70.28 
Q 446.6 67.48 443.8 67.48 
L 296.281563 67.48 
Q 293.481562 67.48 293.481562 70.28 
L 293.481562 108.985625 
Q 293.481562 111.785625 296.281563 111.785625 
z
" style="fill: #ffffff; opacity: 0.8; stroke: #cccccc; stroke-linejoin: miter"/>
    </g>
    <g id="line2d_15">
     <path d="M 299.081563 78.371563 
L 313.081563 78.371563 
L 327.081563 78.371563 
" style="fill: none; stroke: #0173b2; stroke-width: 2; stroke-linecap: square"/>
    </g>
    <g id="text_14">
     <text style="font-size: 14px; font-family: 'Arial', sans-serif; text-anchor: start" x="338.281563" y="83.271563" transform="rotate(-0 338.281563 83.271563)">Suitability-based</text>
    </g>
    <g id="line2d_16">
     <path d="M 299.081563 98.339063 
L 313.081563 98.339063 
L 327.081563 98.339063 
" style="fill: none; stroke: #de8f05; stroke-width: 2; stroke-linecap: square"/>
    </g>
    <g id="text_15">
     <text style="font-size: 14px; font-family: 'Arial', sans-serif; text-anchor: start" x="338.281563" y="103.239063" transform="rotate(-0 338.281563 103.239063)">Autoregressive</text>
    </g>
   </g>
  </g>
  <g id="axes_2">
   <g id="patch_6">
    <path d="M 80.754545 448.56 
L 82.389026 448.56 
L 82.389026 396.816 
L 80.754545 396.816 
z
" clip-path="url(#p181dc353cb)" style="fill: #7f7f7f; opacity: 0.5"/>
   </g>
   <g id="patch_7">
    <path d="M 82.797646 448.56 
L 84.432127 448.56 
L 84.432127 396.816 
L 82.797646 396.816 
z
" clip-path="url(#p181dc353cb)" style="fill: #7f7f7f; opacity: 0.5"/>
   </g>
   <g id="patch_8">
    <path d="M 84.840747 448.56 
L 86.475228 448.56 
L 86.475228 396.816 
L 84.840747 396.816 
z
" clip-path="url(#p181dc353cb)" style="fill: #7f7f7f; opacity: 0.5"/>
   </g>
   <g id="patch_9">
    <path d="M 86.883848 448.56 
L 88.518328 448.56 
L 88.518328 448.56 
L 86.883848 448.56 
z
" clip-path="url(#p181dc353cb)" style="fill: #7f7f7f; opacity: 0.5"/>
   </g>
   <g id="patch_10">
    <path d="M 88.926948 448.56 
L 90.561429 448.56 
L 90.561429 448.56 
L 88.926948 448.56 
z
" clip-path="url(#p181dc353cb)" style="fill: #7f7f7f; opacity: 0.5"/>
   </g>
   <g id="patch_11">
    <path d="M 90.970049 448.56 
L 92.60453 448.56 
L 92.60453 448.56 
L 90.970049 448.56 
z
" clip-path="url(#p181dc353cb)" style="fill: #7f7f7f; opacity: 0.5"/>
   </g>
   <g id="patch_12">
    <path d="M 93.01315 448.56 
L 94.647631 448.56 
L 94.647631 448.56 
L 93.01315 448.56 
z
" clip-path="url(#p181dc353cb)" style="fill: #7f7f7f; opacity: 0.5"/>
   </g>
   <g id="patch_13">
    <path d="M 95.056251 448.56 
L 96.690731 448.56 
L 96.690731 448.56 
L 95.056251 448.56 
z
" clip-path="url(#p181dc353cb)" style="fill: #7f7f7f; opacity: 0.5"/>
   </g>
   <g id="patch_14">
    <path d="M 97.099351 448.56 
L 98.733832 448.56 
L 98.733832 448.56 
L 97.099351 448.56 
z
" clip-path="url(#p181dc353cb)" style="fill: #7f7f7f; opacity: 0.5"/>
   </g>
   <g id="patch_15">
    <path d="M 99.142452 448.56 
L 100.776933 448.56 
L 100.776933 422.688 
L 99.142452 422.688 
z
" clip-path="url(#p181dc353cb)" style="fill: #7f7f7f; opacity: 0.5"/>
   </g>
   <g id="patch_16">
    <path d="M 101.185553 448.56 
L 102.820033 448.56 
L 102.820033 448.56 
L 101.185553 448.56 
z
" clip-path="url(#p181dc353cb)" style="fill: #7f7f7f; opacity: 0.5"/>
   </g>
   <g id="patch_17">
    <path d="M 103.228654 448.56 
L 104.863134 448.56 
L 104.863134 448.56 
L 103.228654 448.56 
z
" clip-path="url(#p181dc353cb)" style="fill: #7f7f7f; opacity: 0.5"/>
   </g>
   <g id="patch_18">
    <path d="M 105.271754 448.56 
L 106.906235 448.56 
L 106.906235 448.56 
L 105.271754 448.56 
z
" clip-path="url(#p181dc353cb)" style="fill: #7f7f7f; opacity: 0.5"/>
   </g>
   <g id="patch_19">
    <path d="M 107.314855 448.56 
L 108.949336 448.56 
L 108.949336 448.56 
L 107.314855 448.56 
z
" clip-path="url(#p181dc353cb)" style="fill: #7f7f7f; opacity: 0.5"/>
   </g>
   <g id="patch_20">
    <path d="M 109.357956 448.56 
L 110.992436 448.56 
L 110.992436 448.56 
L 109.357956 448.56 
z
" clip-path="url(#p181dc353cb)" style="fill: #7f7f7f; opacity: 0.5"/>
   </g>
   <g id="patch_21">
    <path d="M 111.401057 448.56 
L 113.035537 448.56 
L 113.035537 448.56 
L 111.401057 448.56 
z
" clip-path="url(#p181dc353cb)" style="fill: #7f7f7f; opacity: 0.5"/>
   </g>
   <g id="patch_22">
    <path d="M 113.444157 448.56 
L 115.078638 448.56 
L 115.078638 448.56 
L 113.444157 448.56 
z
" clip-path="url(#p181dc353cb)" style="fill: #7f7f7f; opacity: 0.5"/>
   </g>
   <g id="patch_23">
    <path d="M 115.487258 448.56 
L 117.121739 448.56 
L 117.121739 448.56 
L 115.487258 448.56 
z
" clip-path="url(#p181dc353cb)" style="fill: #7f7f7f; opacity: 0.5"/>
   </g>
   <g id="patch_24">
    <path d="M 117.530359 448.56 
L 119.164839 448.56 
L 119.164839 448.56 
L 117.530359 448.56 
z
" clip-path="url(#p181dc353cb)" style="fill: #7f7f7f; opacity: 0.5"/>
   </g>
   <g id="patch_25">
    <path d="M 119.57346 448.56 
L 121.20794 448.56 
L 121.20794 422.688 
L 119.57346 422.688 
z
" clip-path="url(#p181dc353cb)" style="fill: #7f7f7f; opacity: 0.5"/>
   </g>
   <g id="patch_26">
    <path d="M 121.61656 448.56 
L 123.251041 448.56 
L 123.251041 448.56 
L 121.61656 448.56 
z
" clip-path="url(#p181dc353cb)" style="fill: #7f7f7f; opacity: 0.5"/>
   </g>
   <g id="patch_27">
    <path d="M 123.659661 448.56 
L 125.294142 448.56 
L 125.294142 448.56 
L 123.659661 448.56 
z
" clip-path="url(#p181dc353cb)" style="fill: #7f7f7f; opacity: 0.5"/>
   </g>
   <g id="patch_28">
    <path d="M 125.702762 448.56 
L 127.337242 448.56 
L 127.337242 422.688 
L 125.702762 422.688 
z
" clip-path="url(#p181dc353cb)" style="fill: #7f7f7f; opacity: 0.5"/>
   </g>
   <g id="patch_29">
    <path d="M 127.745863 448.56 
L 129.380343 448.56 
L 129.380343 448.56 
L 127.745863 448.56 
z
" clip-path="url(#p181dc353cb)" style="fill: #7f7f7f; opacity: 0.5"/>
   </g>
   <g id="patch_30">
    <path d="M 129.788963 448.56 
L 131.423444 448.56 
L 131.423444 422.688 
L 129.788963 422.688 
z
" clip-path="url(#p181dc353cb)" style="fill: #7f7f7f; opacity: 0.5"/>
   </g>
   <g id="patch_31">
    <path d="M 131.832064 448.56 
L 133.466545 448.56 
L 133.466545 448.56 
L 131.832064 448.56 
z
" clip-path="url(#p181dc353cb)" style="fill: #7f7f7f; opacity: 0.5"/>
   </g>
   <g id="patch_32">
    <path d="M 133.875165 448.56 
L 135.509645 448.56 
L 135.509645 422.688 
L 133.875165 422.688 
z
" clip-path="url(#p181dc353cb)" style="fill: #7f7f7f; opacity: 0.5"/>
   </g>
   <g id="patch_33">
    <path d="M 135.918266 448.56 
L 137.552746 448.56 
L 137.552746 448.56 
L 135.918266 448.56 
z
" clip-path="url(#p181dc353cb)" style="fill: #7f7f7f; opacity: 0.5"/>
   </g>
   <g id="patch_34">
    <path d="M 137.961366 448.56 
L 139.595847 448.56 
L 139.595847 422.688 
L 137.961366 422.688 
z
" clip-path="url(#p181dc353cb)" style="fill: #7f7f7f; opacity: 0.5"/>
   </g>
   <g id="patch_35">
    <path d="M 140.004467 448.56 
L 141.638948 448.56 
L 141.638948 422.688 
L 140.004467 422.688 
z
" clip-path="url(#p181dc353cb)" style="fill: #7f7f7f; opacity: 0.5"/>
   </g>
   <g id="patch_36">
    <path d="M 142.047568 448.56 
L 143.682048 448.56 
L 143.682048 448.56 
L 142.047568 448.56 
z
" clip-path="url(#p181dc353cb)" style="fill: #7f7f7f; opacity: 0.5"/>
   </g>
   <g id="patch_37">
    <path d="M 144.090668 448.56 
L 145.725149 448.56 
L 145.725149 422.688 
L 144.090668 422.688 
z
" clip-path="url(#p181dc353cb)" style="fill: #7f7f7f; opacity: 0.5"/>
   </g>
   <g id="patch_38">
    <path d="M 146.133769 448.56 
L 147.76825 448.56 
L 147.76825 422.688 
L 146.133769 422.688 
z
" clip-path="url(#p181dc353cb)" style="fill: #7f7f7f; opacity: 0.5"/>
   </g>
   <g id="patch_39">
    <path d="M 148.17687 448.56 
L 149.811351 448.56 
L 149.811351 448.56 
L 148.17687 448.56 
z
" clip-path="url(#p181dc353cb)" style="fill: #7f7f7f; opacity: 0.5"/>
   </g>
   <g id="patch_40">
    <path d="M 150.219971 448.56 
L 151.854451 448.56 
L 151.854451 422.688 
L 150.219971 422.688 
z
" clip-path="url(#p181dc353cb)" style="fill: #7f7f7f; opacity: 0.5"/>
   </g>
   <g id="patch_41">
    <path d="M 152.263071 448.56 
L 153.897552 448.56 
L 153.897552 448.56 
L 152.263071 448.56 
z
" clip-path="url(#p181dc353cb)" style="fill: #7f7f7f; opacity: 0.5"/>
   </g>
   <g id="patch_42">
    <path d="M 154.306172 448.56 
L 155.940653 448.56 
L 155.940653 448.56 
L 154.306172 448.56 
z
" clip-path="url(#p181dc353cb)" style="fill: #7f7f7f; opacity: 0.5"/>
   </g>
   <g id="patch_43">
    <path d="M 156.349273 448.56 
L 157.983754 448.56 
L 157.983754 370.944 
L 156.349273 370.944 
z
" clip-path="url(#p181dc353cb)" style="fill: #7f7f7f; opacity: 0.5"/>
   </g>
   <g id="patch_44">
    <path d="M 158.392374 448.56 
L 160.026854 448.56 
L 160.026854 396.816 
L 158.392374 396.816 
z
" clip-path="url(#p181dc353cb)" style="fill: #7f7f7f; opacity: 0.5"/>
   </g>
   <g id="patch_45">
    <path d="M 160.435474 448.56 
L 162.069955 448.56 
L 162.069955 422.688 
L 160.435474 422.688 
z
" clip-path="url(#p181dc353cb)" style="fill: #7f7f7f; opacity: 0.5"/>
   </g>
   <g id="patch_46">
    <path d="M 162.478575 448.56 
L 164.113056 448.56 
L 164.113056 422.688 
L 162.478575 422.688 
z
" clip-path="url(#p181dc353cb)" style="fill: #7f7f7f; opacity: 0.5"/>
   </g>
   <g id="patch_47">
    <path d="M 164.521676 448.56 
L 166.156157 448.56 
L 166.156157 422.688 
L 164.521676 422.688 
z
" clip-path="url(#p181dc353cb)" style="fill: #7f7f7f; opacity: 0.5"/>
   </g>
   <g id="patch_48">
    <path d="M 166.564777 448.56 
L 168.199257 448.56 
L 168.199257 422.688 
L 166.564777 422.688 
z
" clip-path="url(#p181dc353cb)" style="fill: #7f7f7f; opacity: 0.5"/>
   </g>
   <g id="patch_49">
    <path d="M 168.607877 448.56 
L 170.242358 448.56 
L 170.242358 370.944 
L 168.607877 370.944 
z
" clip-path="url(#p181dc353cb)" style="fill: #7f7f7f; opacity: 0.5"/>
   </g>
   <g id="patch_50">
    <path d="M 170.650978 448.56 
L 172.285459 448.56 
L 172.285459 448.56 
L 170.650978 448.56 
z
" clip-path="url(#p181dc353cb)" style="fill: #7f7f7f; opacity: 0.5"/>
   </g>
   <g id="patch_51">
    <path d="M 172.694079 448.56 
L 174.328559 448.56 
L 174.328559 422.688 
L 172.694079 422.688 
z
" clip-path="url(#p181dc353cb)" style="fill: #7f7f7f; opacity: 0.5"/>
   </g>
   <g id="patch_52">
    <path d="M 174.73718 448.56 
L 176.37166 448.56 
L 176.37166 422.688 
L 174.73718 422.688 
z
" clip-path="url(#p181dc353cb)" style="fill: #7f7f7f; opacity: 0.5"/>
   </g>
   <g id="patch_53">
    <path d="M 176.78028 448.56 
L 178.414761 448.56 
L 178.414761 345.072 
L 176.78028 345.072 
z
" clip-path="url(#p181dc353cb)" style="fill: #7f7f7f; opacity: 0.5"/>
   </g>
   <g id="patch_54">
    <path d="M 178.823381 448.56 
L 180.457862 448.56 
L 180.457862 370.944 
L 178.823381 370.944 
z
" clip-path="url(#p181dc353cb)" style="fill: #7f7f7f; opacity: 0.5"/>
   </g>
   <g id="patch_55">
    <path d="M 180.866482 448.56 
L 182.500962 448.56 
L 182.500962 370.944 
L 180.866482 370.944 
z
" clip-path="url(#p181dc353cb)" style="fill: #7f7f7f; opacity: 0.5"/>
   </g>
   <g id="patch_56">
    <path d="M 182.909583 448.56 
L 184.544063 448.56 
L 184.544063 396.816 
L 182.909583 396.816 
z
" clip-path="url(#p181dc353cb)" style="fill: #7f7f7f; opacity: 0.5"/>
   </g>
   <g id="patch_57">
    <path d="M 184.952683 448.56 
L 186.587164 448.56 
L 186.587164 345.072 
L 184.952683 345.072 
z
" clip-path="url(#p181dc353cb)" style="fill: #7f7f7f; opacity: 0.5"/>
   </g>
   <g id="patch_58">
    <path d="M 186.995784 448.56 
L 188.630265 448.56 
L 188.630265 345.072 
L 186.995784 345.072 
z
" clip-path="url(#p181dc353cb)" style="fill: #7f7f7f; opacity: 0.5"/>
   </g>
   <g id="patch_59">
    <path d="M 189.038885 448.56 
L 190.673365 448.56 
L 190.673365 241.584 
L 189.038885 241.584 
z
" clip-path="url(#p181dc353cb)" style="fill: #7f7f7f; opacity: 0.5"/>
   </g>
   <g id="patch_60">
    <path d="M 191.081986 448.56 
L 192.716466 448.56 
L 192.716466 319.2 
L 191.081986 319.2 
z
" clip-path="url(#p181dc353cb)" style="fill: #7f7f7f; opacity: 0.5"/>
   </g>
   <g id="patch_61">
    <path d="M 193.125086 448.56 
L 194.759567 448.56 
L 194.759567 241.584 
L 193.125086 241.584 
z
" clip-path="url(#p181dc353cb)" style="fill: #7f7f7f; opacity: 0.5"/>
   </g>
   <g id="patch_62">
    <path d="M 195.168187 448.56 
L 196.802668 448.56 
L 196.802668 319.2 
L 195.168187 319.2 
z
" clip-path="url(#p181dc353cb)" style="fill: #7f7f7f; opacity: 0.5"/>
   </g>
   <g id="patch_63">
    <path d="M 197.211288 448.56 
L 198.845768 448.56 
L 198.845768 345.072 
L 197.211288 345.072 
z
" clip-path="url(#p181dc353cb)" style="fill: #7f7f7f; opacity: 0.5"/>
   </g>
   <g id="patch_64">
    <path d="M 199.254389 448.56 
L 200.888869 448.56 
L 200.888869 319.2 
L 199.254389 319.2 
z
" clip-path="url(#p181dc353cb)" style="fill: #7f7f7f; opacity: 0.5"/>
   </g>
   <g id="patch_65">
    <path d="M 201.297489 448.56 
L 202.93197 448.56 
L 202.93197 267.456 
L 201.297489 267.456 
z
" clip-path="url(#p181dc353cb)" style="fill: #7f7f7f; opacity: 0.5"/>
   </g>
   <g id="patch_66">
    <path d="M 203.34059 448.56 
L 204.975071 448.56 
L 204.975071 396.816 
L 203.34059 396.816 
z
" clip-path="url(#p181dc353cb)" style="fill: #7f7f7f; opacity: 0.5"/>
   </g>
   <g id="patch_67">
    <path d="M 205.383691 448.56 
L 207.018171 448.56 
L 207.018171 422.688 
L 205.383691 422.688 
z
" clip-path="url(#p181dc353cb)" style="fill: #7f7f7f; opacity: 0.5"/>
   </g>
   <g id="patch_68">
    <path d="M 207.426792 448.56 
L 209.061272 448.56 
L 209.061272 241.584 
L 207.426792 241.584 
z
" clip-path="url(#p181dc353cb)" style="fill: #7f7f7f; opacity: 0.5"/>
   </g>
   <g id="patch_69">
    <path d="M 209.469892 448.56 
L 211.104373 448.56 
L 211.104373 396.816 
L 209.469892 396.816 
z
" clip-path="url(#p181dc353cb)" style="fill: #7f7f7f; opacity: 0.5"/>
   </g>
   <g id="patch_70">
    <path d="M 211.512993 448.56 
L 213.147474 448.56 
L 213.147474 345.072 
L 211.512993 345.072 
z
" clip-path="url(#p181dc353cb)" style="fill: #7f7f7f; opacity: 0.5"/>
   </g>
   <g id="patch_71">
    <path d="M 213.556094 448.56 
L 215.190574 448.56 
L 215.190574 396.816 
L 213.556094 396.816 
z
" clip-path="url(#p181dc353cb)" style="fill: #7f7f7f; opacity: 0.5"/>
   </g>
   <g id="patch_72">
    <path d="M 215.599194 448.56 
L 217.233675 448.56 
L 217.233675 215.712 
L 215.599194 215.712 
z
" clip-path="url(#p181dc353cb)" style="fill: #7f7f7f; opacity: 0.5"/>
   </g>
   <g id="patch_73">
    <path d="M 217.642295 448.56 
L 219.276776 448.56 
L 219.276776 241.584 
L 217.642295 241.584 
z
" clip-path="url(#p181dc353cb)" style="fill: #7f7f7f; opacity: 0.5"/>
   </g>
   <g id="patch_74">
    <path d="M 219.685396 448.56 
L 221.319877 448.56 
L 221.319877 241.584 
L 219.685396 241.584 
z
" clip-path="url(#p181dc353cb)" style="fill: #7f7f7f; opacity: 0.5"/>
   </g>
   <g id="patch_75">
    <path d="M 221.728497 448.56 
L 223.362977 448.56 
L 223.362977 267.456 
L 221.728497 267.456 
z
" clip-path="url(#p181dc353cb)" style="fill: #7f7f7f; opacity: 0.5"/>
   </g>
   <g id="patch_76">
    <path d="M 223.771597 448.56 
L 225.406078 448.56 
L 225.406078 215.712 
L 223.771597 215.712 
z
" clip-path="url(#p181dc353cb)" style="fill: #7f7f7f; opacity: 0.5"/>
   </g>
   <g id="patch_77">
    <path d="M 225.814698 448.56 
L 227.449179 448.56 
L 227.449179 138.096 
L 225.814698 138.096 
z
" clip-path="url(#p181dc353cb)" style="fill: #7f7f7f; opacity: 0.5"/>
   </g>
   <g id="patch_78">
    <path d="M 227.857799 448.56 
L 229.49228 448.56 
L 229.49228 138.096 
L 227.857799 138.096 
z
" clip-path="url(#p181dc353cb)" style="fill: #7f7f7f; opacity: 0.5"/>
   </g>
   <g id="patch_79">
    <path d="M 229.9009 448.56 
L 231.53538 448.56 
L 231.53538 267.456 
L 229.9009 267.456 
z
" clip-path="url(#p181dc353cb)" style="fill: #7f7f7f; opacity: 0.5"/>
   </g>
   <g id="patch_80">
    <path d="M 231.944 448.56 
L 233.578481 448.56 
L 233.578481 138.096 
L 231.944 138.096 
z
" clip-path="url(#p181dc353cb)" style="fill: #7f7f7f; opacity: 0.5"/>
   </g>
   <g id="patch_81">
    <path d="M 233.987101 448.56 
L 235.621582 448.56 
L 235.621582 396.816 
L 233.987101 396.816 
z
" clip-path="url(#p181dc353cb)" style="fill: #7f7f7f; opacity: 0.5"/>
   </g>
   <g id="patch_82">
    <path d="M 236.030202 448.56 
L 237.664682 448.56 
L 237.664682 60.48 
L 236.030202 60.48 
z
" clip-path="url(#p181dc353cb)" style="fill: #7f7f7f; opacity: 0.5"/>
   </g>
   <g id="patch_83">
    <path d="M 238.073303 448.56 
L 239.707783 448.56 
L 239.707783 163.968 
L 238.073303 163.968 
z
" clip-path="url(#p181dc353cb)" style="fill: #7f7f7f; opacity: 0.5"/>
   </g>
   <g id="patch_84">
    <path d="M 240.116403 448.56 
L 241.750884 448.56 
L 241.750884 319.2 
L 240.116403 319.2 
z
" clip-path="url(#p181dc353cb)" style="fill: #7f7f7f; opacity: 0.5"/>
   </g>
   <g id="patch_85">
    <path d="M 242.159504 448.56 
L 243.793985 448.56 
L 243.793985 345.072 
L 242.159504 345.072 
z
" clip-path="url(#p181dc353cb)" style="fill: #7f7f7f; opacity: 0.5"/>
   </g>
   <g id="patch_86">
    <path d="M 244.202605 448.56 
L 245.837085 448.56 
L 245.837085 396.816 
L 244.202605 396.816 
z
" clip-path="url(#p181dc353cb)" style="fill: #7f7f7f; opacity: 0.5"/>
   </g>
   <g id="patch_87">
    <path d="M 246.245706 448.56 
L 247.880186 448.56 
L 247.880186 345.072 
L 246.245706 345.072 
z
" clip-path="url(#p181dc353cb)" style="fill: #7f7f7f; opacity: 0.5"/>
   </g>
   <g id="patch_88">
    <path d="M 248.288806 448.56 
L 249.923287 448.56 
L 249.923287 267.456 
L 248.288806 267.456 
z
" clip-path="url(#p181dc353cb)" style="fill: #7f7f7f; opacity: 0.5"/>
   </g>
   <g id="patch_89">
    <path d="M 250.331907 448.56 
L 251.966388 448.56 
L 251.966388 112.224 
L 250.331907 112.224 
z
" clip-path="url(#p181dc353cb)" style="fill: #7f7f7f; opacity: 0.5"/>
   </g>
   <g id="patch_90">
    <path d="M 252.375008 448.56 
L 254.009488 448.56 
L 254.009488 293.328 
L 252.375008 293.328 
z
" clip-path="url(#p181dc353cb)" style="fill: #7f7f7f; opacity: 0.5"/>
   </g>
   <g id="patch_91">
    <path d="M 254.418109 448.56 
L 256.052589 448.56 
L 256.052589 241.584 
L 254.418109 241.584 
z
" clip-path="url(#p181dc353cb)" style="fill: #7f7f7f; opacity: 0.5"/>
   </g>
   <g id="patch_92">
    <path d="M 256.461209 448.56 
L 258.09569 448.56 
L 258.09569 345.072 
L 256.461209 345.072 
z
" clip-path="url(#p181dc353cb)" style="fill: #7f7f7f; opacity: 0.5"/>
   </g>
   <g id="patch_93">
    <path d="M 258.50431 448.56 
L 260.138791 448.56 
L 260.138791 319.2 
L 258.50431 319.2 
z
" clip-path="url(#p181dc353cb)" style="fill: #7f7f7f; opacity: 0.5"/>
   </g>
   <g id="patch_94">
    <path d="M 260.547411 448.56 
L 262.181891 448.56 
L 262.181891 370.944 
L 260.547411 370.944 
z
" clip-path="url(#p181dc353cb)" style="fill: #7f7f7f; opacity: 0.5"/>
   </g>
   <g id="patch_95">
    <path d="M 262.590512 448.56 
L 264.224992 448.56 
L 264.224992 396.816 
L 262.590512 396.816 
z
" clip-path="url(#p181dc353cb)" style="fill: #7f7f7f; opacity: 0.5"/>
   </g>
   <g id="patch_96">
    <path d="M 264.633612 448.56 
L 266.268093 448.56 
L 266.268093 396.816 
L 264.633612 396.816 
z
" clip-path="url(#p181dc353cb)" style="fill: #7f7f7f; opacity: 0.5"/>
   </g>
   <g id="patch_97">
    <path d="M 266.676713 448.56 
L 268.311194 448.56 
L 268.311194 448.56 
L 266.676713 448.56 
z
" clip-path="url(#p181dc353cb)" style="fill: #7f7f7f; opacity: 0.5"/>
   </g>
   <g id="patch_98">
    <path d="M 268.719814 448.56 
L 270.354294 448.56 
L 270.354294 422.688 
L 268.719814 422.688 
z
" clip-path="url(#p181dc353cb)" style="fill: #7f7f7f; opacity: 0.5"/>
   </g>
   <g id="patch_99">
    <path d="M 270.762915 448.56 
L 272.397395 448.56 
L 272.397395 396.816 
L 270.762915 396.816 
z
" clip-path="url(#p181dc353cb)" style="fill: #7f7f7f; opacity: 0.5"/>
   </g>
   <g id="patch_100">
    <path d="M 272.806015 448.56 
L 274.440496 448.56 
L 274.440496 370.944 
L 272.806015 370.944 
z
" clip-path="url(#p181dc353cb)" style="fill: #7f7f7f; opacity: 0.5"/>
   </g>
   <g id="patch_101">
    <path d="M 274.849116 448.56 
L 276.483597 448.56 
L 276.483597 422.688 
L 274.849116 422.688 
z
" clip-path="url(#p181dc353cb)" style="fill: #7f7f7f; opacity: 0.5"/>
   </g>
   <g id="patch_102">
    <path d="M 276.892217 448.56 
L 278.526697 448.56 
L 278.526697 370.944 
L 276.892217 370.944 
z
" clip-path="url(#p181dc353cb)" style="fill: #7f7f7f; opacity: 0.5"/>
   </g>
   <g id="patch_103">
    <path d="M 278.935318 448.56 
L 280.569798 448.56 
L 280.569798 396.816 
L 278.935318 396.816 
z
" clip-path="url(#p181dc353cb)" style="fill: #7f7f7f; opacity: 0.5"/>
   </g>
   <g id="patch_104">
    <path d="M 280.978418 448.56 
L 282.612899 448.56 
L 282.612899 448.56 
L 280.978418 448.56 
z
" clip-path="url(#p181dc353cb)" style="fill: #7f7f7f; opacity: 0.5"/>
   </g>
   <g id="patch_105">
    <path d="M 283.021519 448.56 
L 284.656 448.56 
L 284.656 448.56 
L 283.021519 448.56 
z
" clip-path="url(#p181dc353cb)" style="fill: #7f7f7f; opacity: 0.5"/>
   </g>
   <g id="patch_106">
    <path d="M 285.06462 448.56 
L 286.6991 448.56 
L 286.6991 422.688 
L 285.06462 422.688 
z
" clip-path="url(#p181dc353cb)" style="fill: #7f7f7f; opacity: 0.5"/>
   </g>
   <g id="patch_107">
    <path d="M 287.10772 448.56 
L 288.742201 448.56 
L 288.742201 396.816 
L 287.10772 396.816 
z
" clip-path="url(#p181dc353cb)" style="fill: #7f7f7f; opacity: 0.5"/>
   </g>
   <g id="patch_108">
    <path d="M 289.150821 448.56 
L 290.785302 448.56 
L 290.785302 422.688 
L 289.150821 422.688 
z
" clip-path="url(#p181dc353cb)" style="fill: #7f7f7f; opacity: 0.5"/>
   </g>
   <g id="patch_109">
    <path d="M 291.193922 448.56 
L 292.828403 448.56 
L 292.828403 448.56 
L 291.193922 448.56 
z
" clip-path="url(#p181dc353cb)" style="fill: #7f7f7f; opacity: 0.5"/>
   </g>
   <g id="patch_110">
    <path d="M 293.237023 448.56 
L 294.871503 448.56 
L 294.871503 422.688 
L 293.237023 422.688 
z
" clip-path="url(#p181dc353cb)" style="fill: #7f7f7f; opacity: 0.5"/>
   </g>
   <g id="patch_111">
    <path d="M 295.280123 448.56 
L 296.914604 448.56 
L 296.914604 448.56 
L 295.280123 448.56 
z
" clip-path="url(#p181dc353cb)" style="fill: #7f7f7f; opacity: 0.5"/>
   </g>
   <g id="patch_112">
    <path d="M 297.323224 448.56 
L 298.957705 448.56 
L 298.957705 422.688 
L 297.323224 422.688 
z
" clip-path="url(#p181dc353cb)" style="fill: #7f7f7f; opacity: 0.5"/>
   </g>
   <g id="patch_113">
    <path d="M 299.366325 448.56 
L 301.000806 448.56 
L 301.000806 448.56 
L 299.366325 448.56 
z
" clip-path="url(#p181dc353cb)" style="fill: #7f7f7f; opacity: 0.5"/>
   </g>
   <g id="patch_114">
    <path d="M 301.409426 448.56 
L 303.043906 448.56 
L 303.043906 448.56 
L 301.409426 448.56 
z
" clip-path="url(#p181dc353cb)" style="fill: #7f7f7f; opacity: 0.5"/>
   </g>
   <g id="patch_115">
    <path d="M 303.452526 448.56 
L 305.087007 448.56 
L 305.087007 448.56 
L 303.452526 448.56 
z
" clip-path="url(#p181dc353cb)" style="fill: #7f7f7f; opacity: 0.5"/>
   </g>
   <g id="patch_116">
    <path d="M 305.495627 448.56 
L 307.130108 448.56 
L 307.130108 422.688 
L 305.495627 422.688 
z
" clip-path="url(#p181dc353cb)" style="fill: #7f7f7f; opacity: 0.5"/>
   </g>
   <g id="patch_117">
    <path d="M 307.538728 448.56 
L 309.173208 448.56 
L 309.173208 422.688 
L 307.538728 422.688 
z
" clip-path="url(#p181dc353cb)" style="fill: #7f7f7f; opacity: 0.5"/>
   </g>
   <g id="patch_118">
    <path d="M 309.581829 448.56 
L 311.216309 448.56 
L 311.216309 448.56 
L 309.581829 448.56 
z
" clip-path="url(#p181dc353cb)" style="fill: #7f7f7f; opacity: 0.5"/>
   </g>
   <g id="patch_119">
    <path d="M 311.624929 448.56 
L 313.25941 448.56 
L 313.25941 448.56 
L 311.624929 448.56 
z
" clip-path="url(#p181dc353cb)" style="fill: #7f7f7f; opacity: 0.5"/>
   </g>
   <g id="patch_120">
    <path d="M 313.66803 448.56 
L 315.302511 448.56 
L 315.302511 448.56 
L 313.66803 448.56 
z
" clip-path="url(#p181dc353cb)" style="fill: #7f7f7f; opacity: 0.5"/>
   </g>
   <g id="patch_121">
    <path d="M 315.711131 448.56 
L 317.345611 448.56 
L 317.345611 422.688 
L 315.711131 422.688 
z
" clip-path="url(#p181dc353cb)" style="fill: #7f7f7f; opacity: 0.5"/>
   </g>
   <g id="patch_122">
    <path d="M 317.754232 448.56 
L 319.388712 448.56 
L 319.388712 448.56 
L 317.754232 448.56 
z
" clip-path="url(#p181dc353cb)" style="fill: #7f7f7f; opacity: 0.5"/>
   </g>
   <g id="patch_123">
    <path d="M 319.797332 448.56 
L 321.431813 448.56 
L 321.431813 448.56 
L 319.797332 448.56 
z
" clip-path="url(#p181dc353cb)" style="fill: #7f7f7f; opacity: 0.5"/>
   </g>
   <g id="patch_124">
    <path d="M 321.840433 448.56 
L 323.474914 448.56 
L 323.474914 448.56 
L 321.840433 448.56 
z
" clip-path="url(#p181dc353cb)" style="fill: #7f7f7f; opacity: 0.5"/>
   </g>
   <g id="patch_125">
    <path d="M 323.883534 448.56 
L 325.518014 448.56 
L 325.518014 448.56 
L 323.883534 448.56 
z
" clip-path="url(#p181dc353cb)" style="fill: #7f7f7f; opacity: 0.5"/>
   </g>
   <g id="patch_126">
    <path d="M 325.926635 448.56 
L 327.561115 448.56 
L 327.561115 448.56 
L 325.926635 448.56 
z
" clip-path="url(#p181dc353cb)" style="fill: #7f7f7f; opacity: 0.5"/>
   </g>
   <g id="patch_127">
    <path d="M 327.969735 448.56 
L 329.604216 448.56 
L 329.604216 448.56 
L 327.969735 448.56 
z
" clip-path="url(#p181dc353cb)" style="fill: #7f7f7f; opacity: 0.5"/>
   </g>
   <g id="patch_128">
    <path d="M 330.012836 448.56 
L 331.647317 448.56 
L 331.647317 448.56 
L 330.012836 448.56 
z
" clip-path="url(#p181dc353cb)" style="fill: #7f7f7f; opacity: 0.5"/>
   </g>
   <g id="patch_129">
    <path d="M 332.055937 448.56 
L 333.690417 448.56 
L 333.690417 448.56 
L 332.055937 448.56 
z
" clip-path="url(#p181dc353cb)" style="fill: #7f7f7f; opacity: 0.5"/>
   </g>
   <g id="patch_130">
    <path d="M 334.099038 448.56 
L 335.733518 448.56 
L 335.733518 448.56 
L 334.099038 448.56 
z
" clip-path="url(#p181dc353cb)" style="fill: #7f7f7f; opacity: 0.5"/>
   </g>
   <g id="patch_131">
    <path d="M 336.142138 448.56 
L 337.776619 448.56 
L 337.776619 422.688 
L 336.142138 422.688 
z
" clip-path="url(#p181dc353cb)" style="fill: #7f7f7f; opacity: 0.5"/>
   </g>
   <g id="patch_132">
    <path d="M 338.185239 448.56 
L 339.81972 448.56 
L 339.81972 448.56 
L 338.185239 448.56 
z
" clip-path="url(#p181dc353cb)" style="fill: #7f7f7f; opacity: 0.5"/>
   </g>
   <g id="patch_133">
    <path d="M 340.22834 448.56 
L 341.86282 448.56 
L 341.86282 448.56 
L 340.22834 448.56 
z
" clip-path="url(#p181dc353cb)" style="fill: #7f7f7f; opacity: 0.5"/>
   </g>
   <g id="patch_134">
    <path d="M 342.271441 448.56 
L 343.905921 448.56 
L 343.905921 448.56 
L 342.271441 448.56 
z
" clip-path="url(#p181dc353cb)" style="fill: #7f7f7f; opacity: 0.5"/>
   </g>
   <g id="patch_135">
    <path d="M 344.314541 448.56 
L 345.949022 448.56 
L 345.949022 448.56 
L 344.314541 448.56 
z
" clip-path="url(#p181dc353cb)" style="fill: #7f7f7f; opacity: 0.5"/>
   </g>
   <g id="patch_136">
    <path d="M 346.357642 448.56 
L 347.992123 448.56 
L 347.992123 448.56 
L 346.357642 448.56 
z
" clip-path="url(#p181dc353cb)" style="fill: #7f7f7f; opacity: 0.5"/>
   </g>
   <g id="patch_137">
    <path d="M 348.400743 448.56 
L 350.035223 448.56 
L 350.035223 448.56 
L 348.400743 448.56 
z
" clip-path="url(#p181dc353cb)" style="fill: #7f7f7f; opacity: 0.5"/>
   </g>
   <g id="patch_138">
    <path d="M 350.443843 448.56 
L 352.078324 448.56 
L 352.078324 422.688 
L 350.443843 422.688 
z
" clip-path="url(#p181dc353cb)" style="fill: #7f7f7f; opacity: 0.5"/>
   </g>
   <g id="patch_139">
    <path d="M 352.486944 448.56 
L 354.121425 448.56 
L 354.121425 448.56 
L 352.486944 448.56 
z
" clip-path="url(#p181dc353cb)" style="fill: #7f7f7f; opacity: 0.5"/>
   </g>
   <g id="patch_140">
    <path d="M 354.530045 448.56 
L 356.164526 448.56 
L 356.164526 448.56 
L 354.530045 448.56 
z
" clip-path="url(#p181dc353cb)" style="fill: #7f7f7f; opacity: 0.5"/>
   </g>
   <g id="patch_141">
    <path d="M 356.573146 448.56 
L 358.207626 448.56 
L 358.207626 448.56 
L 356.573146 448.56 
z
" clip-path="url(#p181dc353cb)" style="fill: #7f7f7f; opacity: 0.5"/>
   </g>
   <g id="patch_142">
    <path d="M 358.616246 448.56 
L 360.250727 448.56 
L 360.250727 448.56 
L 358.616246 448.56 
z
" clip-path="url(#p181dc353cb)" style="fill: #7f7f7f; opacity: 0.5"/>
   </g>
   <g id="patch_143">
    <path d="M 360.659347 448.56 
L 362.293828 448.56 
L 362.293828 448.56 
L 360.659347 448.56 
z
" clip-path="url(#p181dc353cb)" style="fill: #7f7f7f; opacity: 0.5"/>
   </g>
   <g id="patch_144">
    <path d="M 362.702448 448.56 
L 364.336929 448.56 
L 364.336929 448.56 
L 362.702448 448.56 
z
" clip-path="url(#p181dc353cb)" style="fill: #7f7f7f; opacity: 0.5"/>
   </g>
   <g id="patch_145">
    <path d="M 364.745549 448.56 
L 366.380029 448.56 
L 366.380029 448.56 
L 364.745549 448.56 
z
" clip-path="url(#p181dc353cb)" style="fill: #7f7f7f; opacity: 0.5"/>
   </g>
   <g id="patch_146">
    <path d="M 366.788649 448.56 
L 368.42313 448.56 
L 368.42313 448.56 
L 366.788649 448.56 
z
" clip-path="url(#p181dc353cb)" style="fill: #7f7f7f; opacity: 0.5"/>
   </g>
   <g id="patch_147">
    <path d="M 368.83175 448.56 
L 370.466231 448.56 
L 370.466231 448.56 
L 368.83175 448.56 
z
" clip-path="url(#p181dc353cb)" style="fill: #7f7f7f; opacity: 0.5"/>
   </g>
   <g id="patch_148">
    <path d="M 370.874851 448.56 
L 372.509332 448.56 
L 372.509332 448.56 
L 370.874851 448.56 
z
" clip-path="url(#p181dc353cb)" style="fill: #7f7f7f; opacity: 0.5"/>
   </g>
   <g id="patch_149">
    <path d="M 372.917952 448.56 
L 374.552432 448.56 
L 374.552432 448.56 
L 372.917952 448.56 
z
" clip-path="url(#p181dc353cb)" style="fill: #7f7f7f; opacity: 0.5"/>
   </g>
   <g id="patch_150">
    <path d="M 374.961052 448.56 
L 376.595533 448.56 
L 376.595533 448.56 
L 374.961052 448.56 
z
" clip-path="url(#p181dc353cb)" style="fill: #7f7f7f; opacity: 0.5"/>
   </g>
   <g id="patch_151">
    <path d="M 377.004153 448.56 
L 378.638634 448.56 
L 378.638634 448.56 
L 377.004153 448.56 
z
" clip-path="url(#p181dc353cb)" style="fill: #7f7f7f; opacity: 0.5"/>
   </g>
   <g id="patch_152">
    <path d="M 379.047254 448.56 
L 380.681734 448.56 
L 380.681734 448.56 
L 379.047254 448.56 
z
" clip-path="url(#p181dc353cb)" style="fill: #7f7f7f; opacity: 0.5"/>
   </g>
   <g id="patch_153">
    <path d="M 381.090355 448.56 
L 382.724835 448.56 
L 382.724835 448.56 
L 381.090355 448.56 
z
" clip-path="url(#p181dc353cb)" style="fill: #7f7f7f; opacity: 0.5"/>
   </g>
   <g id="patch_154">
    <path d="M 383.133455 448.56 
L 384.767936 448.56 
L 384.767936 448.56 
L 383.133455 448.56 
z
" clip-path="url(#p181dc353cb)" style="fill: #7f7f7f; opacity: 0.5"/>
   </g>
   <g id="patch_155">
    <path d="M 385.176556 448.56 
L 386.811037 448.56 
L 386.811037 448.56 
L 385.176556 448.56 
z
" clip-path="url(#p181dc353cb)" style="fill: #7f7f7f; opacity: 0.5"/>
   </g>
   <g id="patch_156">
    <path d="M 387.219657 448.56 
L 388.854137 448.56 
L 388.854137 448.56 
L 387.219657 448.56 
z
" clip-path="url(#p181dc353cb)" style="fill: #7f7f7f; opacity: 0.5"/>
   </g>
   <g id="patch_157">
    <path d="M 389.262758 448.56 
L 390.897238 448.56 
L 390.897238 448.56 
L 389.262758 448.56 
z
" clip-path="url(#p181dc353cb)" style="fill: #7f7f7f; opacity: 0.5"/>
   </g>
   <g id="patch_158">
    <path d="M 391.305858 448.56 
L 392.940339 448.56 
L 392.940339 448.56 
L 391.305858 448.56 
z
" clip-path="url(#p181dc353cb)" style="fill: #7f7f7f; opacity: 0.5"/>
   </g>
   <g id="patch_159">
    <path d="M 393.348959 448.56 
L 394.98344 448.56 
L 394.98344 448.56 
L 393.348959 448.56 
z
" clip-path="url(#p181dc353cb)" style="fill: #7f7f7f; opacity: 0.5"/>
   </g>
   <g id="patch_160">
    <path d="M 395.39206 448.56 
L 397.02654 448.56 
L 397.02654 448.56 
L 395.39206 448.56 
z
" clip-path="url(#p181dc353cb)" style="fill: #7f7f7f; opacity: 0.5"/>
   </g>
   <g id="patch_161">
    <path d="M 397.435161 448.56 
L 399.069641 448.56 
L 399.069641 448.56 
L 397.435161 448.56 
z
" clip-path="url(#p181dc353cb)" style="fill: #7f7f7f; opacity: 0.5"/>
   </g>
   <g id="patch_162">
    <path d="M 399.478261 448.56 
L 401.112742 448.56 
L 401.112742 448.56 
L 399.478261 448.56 
z
" clip-path="url(#p181dc353cb)" style="fill: #7f7f7f; opacity: 0.5"/>
   </g>
   <g id="patch_163">
    <path d="M 401.521362 448.56 
L 403.155843 448.56 
L 403.155843 448.56 
L 401.521362 448.56 
z
" clip-path="url(#p181dc353cb)" style="fill: #7f7f7f; opacity: 0.5"/>
   </g>
   <g id="patch_164">
    <path d="M 403.564463 448.56 
L 405.198943 448.56 
L 405.198943 448.56 
L 403.564463 448.56 
z
" clip-path="url(#p181dc353cb)" style="fill: #7f7f7f; opacity: 0.5"/>
   </g>
   <g id="patch_165">
    <path d="M 405.607564 448.56 
L 407.242044 448.56 
L 407.242044 448.56 
L 405.607564 448.56 
z
" clip-path="url(#p181dc353cb)" style="fill: #7f7f7f; opacity: 0.5"/>
   </g>
   <g id="patch_166">
    <path d="M 407.650664 448.56 
L 409.285145 448.56 
L 409.285145 448.56 
L 407.650664 448.56 
z
" clip-path="url(#p181dc353cb)" style="fill: #7f7f7f; opacity: 0.5"/>
   </g>
   <g id="patch_167">
    <path d="M 409.693765 448.56 
L 411.328246 448.56 
L 411.328246 448.56 
L 409.693765 448.56 
z
" clip-path="url(#p181dc353cb)" style="fill: #7f7f7f; opacity: 0.5"/>
   </g>
   <g id="patch_168">
    <path d="M 411.736866 448.56 
L 413.371346 448.56 
L 413.371346 448.56 
L 411.736866 448.56 
z
" clip-path="url(#p181dc353cb)" style="fill: #7f7f7f; opacity: 0.5"/>
   </g>
   <g id="patch_169">
    <path d="M 413.779967 448.56 
L 415.414447 448.56 
L 415.414447 448.56 
L 413.779967 448.56 
z
" clip-path="url(#p181dc353cb)" style="fill: #7f7f7f; opacity: 0.5"/>
   </g>
   <g id="patch_170">
    <path d="M 415.823067 448.56 
L 417.457548 448.56 
L 417.457548 448.56 
L 415.823067 448.56 
z
" clip-path="url(#p181dc353cb)" style="fill: #7f7f7f; opacity: 0.5"/>
   </g>
   <g id="patch_171">
    <path d="M 417.866168 448.56 
L 419.500649 448.56 
L 419.500649 448.56 
L 417.866168 448.56 
z
" clip-path="url(#p181dc353cb)" style="fill: #7f7f7f; opacity: 0.5"/>
   </g>
   <g id="patch_172">
    <path d="M 419.909269 448.56 
L 421.543749 448.56 
L 421.543749 448.56 
L 419.909269 448.56 
z
" clip-path="url(#p181dc353cb)" style="fill: #7f7f7f; opacity: 0.5"/>
   </g>
   <g id="patch_173">
    <path d="M 421.952369 448.56 
L 423.58685 448.56 
L 423.58685 448.56 
L 421.952369 448.56 
z
" clip-path="url(#p181dc353cb)" style="fill: #7f7f7f; opacity: 0.5"/>
   </g>
   <g id="patch_174">
    <path d="M 423.99547 448.56 
L 425.629951 448.56 
L 425.629951 448.56 
L 423.99547 448.56 
z
" clip-path="url(#p181dc353cb)" style="fill: #7f7f7f; opacity: 0.5"/>
   </g>
   <g id="patch_175">
    <path d="M 426.038571 448.56 
L 427.673052 448.56 
L 427.673052 448.56 
L 426.038571 448.56 
z
" clip-path="url(#p181dc353cb)" style="fill: #7f7f7f; opacity: 0.5"/>
   </g>
   <g id="patch_176">
    <path d="M 428.081672 448.56 
L 429.716152 448.56 
L 429.716152 448.56 
L 428.081672 448.56 
z
" clip-path="url(#p181dc353cb)" style="fill: #7f7f7f; opacity: 0.5"/>
   </g>
   <g id="patch_177">
    <path d="M 430.124772 448.56 
L 431.759253 448.56 
L 431.759253 448.56 
L 430.124772 448.56 
z
" clip-path="url(#p181dc353cb)" style="fill: #7f7f7f; opacity: 0.5"/>
   </g>
   <g id="patch_178">
    <path d="M 432.167873 448.56 
L 433.802354 448.56 
L 433.802354 448.56 
L 432.167873 448.56 
z
" clip-path="url(#p181dc353cb)" style="fill: #7f7f7f; opacity: 0.5"/>
   </g>
   <g id="patch_179">
    <path d="M 434.210974 448.56 
L 435.845455 448.56 
L 435.845455 448.56 
L 434.210974 448.56 
z
" clip-path="url(#p181dc353cb)" style="fill: #7f7f7f; opacity: 0.5"/>
   </g>
   <g id="matplotlib.axis_3">
    <g id="ytick_7">
     <g id="line2d_17">
      <defs>
       <path id="m4659b6cbe6" d="M 0 0 
L 3.5 0 
" style="stroke: #7f7f7f; stroke-width: 0.8"/>
      </defs>
      <g>
       <use xlink:href="#m4659b6cbe6" x="453.6" y="448.56" style="fill: #7f7f7f; stroke: #7f7f7f; stroke-width: 0.8"/>
      </g>
     </g>
     <g id="text_16">
      <text style="font-size: 16px; font-family: 'Arial', sans-serif; text-anchor: start; fill: #7f7f7f" x="460.6" y="454.28625" transform="rotate(-0 460.6 454.28625)">0</text>
     </g>
    </g>
    <g id="ytick_8">
     <g id="line2d_18">
      <g>
       <use xlink:href="#m4659b6cbe6" x="453.6" y="396.816" style="fill: #7f7f7f; stroke: #7f7f7f; stroke-width: 0.8"/>
      </g>
     </g>
     <g id="text_17">
      <text style="font-size: 16px; font-family: 'Arial', sans-serif; text-anchor: start; fill: #7f7f7f" x="460.6" y="402.54225" transform="rotate(-0 460.6 402.54225)">2</text>
     </g>
    </g>
    <g id="ytick_9">
     <g id="line2d_19">
      <g>
       <use xlink:href="#m4659b6cbe6" x="453.6" y="345.072" style="fill: #7f7f7f; stroke: #7f7f7f; stroke-width: 0.8"/>
      </g>
     </g>
     <g id="text_18">
      <text style="font-size: 16px; font-family: 'Arial', sans-serif; text-anchor: start; fill: #7f7f7f" x="460.6" y="350.79825" transform="rotate(-0 460.6 350.79825)">4</text>
     </g>
    </g>
    <g id="ytick_10">
     <g id="line2d_20">
      <g>
       <use xlink:href="#m4659b6cbe6" x="453.6" y="293.328" style="fill: #7f7f7f; stroke: #7f7f7f; stroke-width: 0.8"/>
      </g>
     </g>
     <g id="text_19">
      <text style="font-size: 16px; font-family: 'Arial', sans-serif; text-anchor: start; fill: #7f7f7f" x="460.6" y="299.05425" transform="rotate(-0 460.6 299.05425)">6</text>
     </g>
    </g>
    <g id="ytick_11">
     <g id="line2d_21">
      <g>
       <use xlink:href="#m4659b6cbe6" x="453.6" y="241.584" style="fill: #7f7f7f; stroke: #7f7f7f; stroke-width: 0.8"/>
      </g>
     </g>
     <g id="text_20">
      <text style="font-size: 16px; font-family: 'Arial', sans-serif; text-anchor: start; fill: #7f7f7f" x="460.6" y="247.31025" transform="rotate(-0 460.6 247.31025)">8</text>
     </g>
    </g>
    <g id="ytick_12">
     <g id="line2d_22">
      <g>
       <use xlink:href="#m4659b6cbe6" x="453.6" y="189.84" style="fill: #7f7f7f; stroke: #7f7f7f; stroke-width: 0.8"/>
      </g>
     </g>
     <g id="text_21">
      <text style="font-size: 16px; font-family: 'Arial', sans-serif; text-anchor: start; fill: #7f7f7f" x="460.6" y="195.56625" transform="rotate(-0 460.6 195.56625)">10</text>
     </g>
    </g>
    <g id="ytick_13">
     <g id="line2d_23">
      <g>
       <use xlink:href="#m4659b6cbe6" x="453.6" y="138.096" style="fill: #7f7f7f; stroke: #7f7f7f; stroke-width: 0.8"/>
      </g>
     </g>
     <g id="text_22">
      <text style="font-size: 16px; font-family: 'Arial', sans-serif; text-anchor: start; fill: #7f7f7f" x="460.6" y="143.82225" transform="rotate(-0 460.6 143.82225)">12</text>
     </g>
    </g>
    <g id="ytick_14">
     <g id="line2d_24">
      <g>
       <use xlink:href="#m4659b6cbe6" x="453.6" y="86.352" style="fill: #7f7f7f; stroke: #7f7f7f; stroke-width: 0.8"/>
      </g>
     </g>
     <g id="text_23">
      <text style="font-size: 16px; font-family: 'Arial', sans-serif; text-anchor: start; fill: #7f7f7f" x="460.6" y="92.07825" transform="rotate(-0 460.6 92.07825)">14</text>
     </g>
    </g>
    <g id="text_24">
     <text style="font-size: 16px; font-family: 'Arial', sans-serif; text-anchor: middle; fill: #7f7f7f" x="493.8475" y="254.52" transform="rotate(-90 493.8475 254.52)">Number of cases</text>
    </g>
   </g>
   <g id="patch_180">
    <path d="M 453.6 448.56 
L 453.6 60.48 
" style="fill: none; stroke: #7f7f7f; stroke-width: 0.8; stroke-linejoin: miter; stroke-linecap: square"/>
   </g>
  </g>
 </g>
 <defs>
  <clipPath id="p181dc353cb">
   <rect x="63" y="60.48" width="390.6" height="388.08"/>
  </clipPath>
 </defs>
</svg>
