<?xml version="1.0" encoding="utf-8" standalone="no"?>
<!DOCTYPE svg PUBLIC "-//W3C//DTD SVG 1.1//EN"
  "http://www.w3.org/Graphics/SVG/1.1/DTD/svg11.dtd">
<svg xmlns:xlink="http://www.w3.org/1999/xlink" width="504pt" height="504pt" viewBox="0 0 504 504" xmlns="http://www.w3.org/2000/svg" version="1.1">
 <metadata>
  <rdf:RDF xmlns:dc="http://purl.org/dc/elements/1.1/" xmlns:cc="http://creativecommons.org/ns#" xmlns:rdf="http://www.w3.org/1999/02/22-rdf-syntax-ns#">
   <cc:Work>
    <dc:type rdf:resource="http://purl.org/dc/dcmitype/StillImage"/>
    <dc:date>2026-02-20T16:21:39.700027</dc:date>
    <dc:format>image/svg+xml</dc:format>
    <dc:creator>
     <cc:Agent>
      <dc:title>Matplotlib v3.10.8, https://matplotlib.org/</dc:title>
     </cc:Agent>
    </dc:creator>
   </cc:Work>
  </rdf:RDF>
 </metadata>
 <defs>
  <style type="text/css">*{stroke-linejoin: round; stroke-linecap: butt}</style>
 </defs>
 <g id="figure_1">
  <g id="patch_1">
   <path d="M 0 504 
L 504 504 
L 504 0 
L 0 0 
L 0 504 
z
" style="fill: none"/>
  </g>
  <g id="axes_1">
   <g id="patch_2">
    <path d="M 63 448.56 
L 453.6 448.56 
L 453.6 60.48 
L 63 60.48 
L 63 448.56 
z
" style="fill: none"/>
   </g>
   <g id="FillBetweenPolyCollection_1">
    <path d="M 81.571786 280.261004 
L 81.571786 441.585792 
L 83.614886 441.426766 
L 85.657987 420.940025 
L 87.701088 356.432775 
L 89.744189 360.992162 
L 91.787289 374.126826 
L 93.83039 383.732826 
L 95.873491 400.477084 
L 97.916592 410.401833 
L 99.959692 420.214125 
L 102.002793 416.746876 
L 104.045894 423.906279 
L 106.088995 429.495767 
L 108.132095 432.189588 
L 110.175196 435.297982 
L 112.218297 436.123072 
L 114.261398 437.364821 
L 116.304498 438.562984 
L 118.347599 439.650266 
L 120.3907 440.482929 
L 122.433801 437.831952 
L 124.476901 439.139005 
L 126.520002 439.308694 
L 128.563103 436.711575 
L 130.606204 437.747924 
L 132.649304 434.267629 
L 134.692405 434.82174 
L 136.735506 431.53023 
L 138.778607 432.678879 
L 140.821707 428.579437 
L 142.864808 423.467268 
L 144.907909 426.671645 
L 146.95101 423.964503 
L 148.99411 421.705353 
L 151.037211 424.378821 
L 153.080312 423.328094 
L 155.123412 427.796411 
L 157.166513 431.246759 
L 159.209614 419.105228 
L 161.252715 412.052997 
L 163.295815 413.972578 
L 165.338916 416.094266 
L 167.382017 417.602253 
L 169.425118 418.738311 
L 171.468218 408.027676 
L 173.511319 417.999536 
L 175.55442 419.911661 
L 177.597521 423.152406 
L 179.640621 411.966486 
L 181.683722 407.758419 
L 183.726823 405.619269 
L 185.769924 407.831392 
L 187.813024 402.719905 
L 189.856125 398.871836 
L 191.899226 376.222406 
L 193.942327 377.335376 
L 195.985427 366.861735 
L 198.028528 376.756049 
L 200.071629 388.507869 
L 202.11473 395.260347 
L 204.15783 394.054814 
L 206.200931 410.693365 
L 208.244032 421.287067 
L 210.287133 415.521649 
L 212.330233 423.482729 
L 214.373334 426.044267 
L 216.416435 430.832324 
L 218.459536 424.163122 
L 220.502636 420.41511 
L 222.545737 418.349114 
L 224.588838 419.178044 
L 226.631938 414.897633 
L 228.675039 408.027717 
L 230.71814 402.722951 
L 232.761241 410.539027 
L 234.804341 405.980855 
L 236.847442 421.567958 
L 238.890543 410.631794 
L 240.933644 411.196808 
L 242.976744 421.96994 
L 245.019845 429.039741 
L 247.062946 435.135481 
L 249.106047 436.827168 
L 251.149147 435.835835 
L 253.192248 429.65756 
L 255.235349 432.972087 
L 257.27845 432.973519 
L 259.32155 436.229076 
L 261.364651 437.40719 
L 263.407752 439.58172 
L 265.450853 441.51484 
L 267.493953 442.816089 
L 269.537054 444.76133 
L 271.580155 445.563292 
L 273.623256 445.778829 
L 275.666356 445.287015 
L 277.709457 446.206251 
L 279.752558 445.648643 
L 281.795659 445.809046 
L 283.838759 447.05418 
L 285.88186 448.396732 
L 287.924961 447.802252 
L 289.968062 447.044727 
L 292.011162 447.227359 
L 294.054263 448.205407 
L 296.097364 447.630276 
L 298.140464 448.515068 
L 300.183565 447.686197 
L 302.226666 448.559997 
L 304.269767 448.559999 
L 306.312867 448.559999 
L 308.355968 448.021707 
L 310.399069 447.513071 
L 312.44217 448.154574 
L 314.48527 448.559998 
L 316.528371 448.559999 
L 318.571472 447.603705 
L 320.614573 448.133359 
L 322.657673 448.253953 
L 324.700774 448.559998 
L 326.743875 448.559999 
L 328.786976 448.559999 
L 330.830076 448.559999 
L 332.873177 448.559999 
L 334.916278 448.56 
L 336.959379 448.56 
L 339.002479 447.811245 
L 341.04558 448.246714 
L 343.088681 448.459156 
L 345.131782 448.559998 
L 347.174882 448.559999 
L 349.217983 448.559999 
L 351.261084 448.559999 
L 353.304185 447.382008 
L 355.347285 447.789774 
L 357.390386 447.983046 
L 359.433487 448.472613 
L 361.476588 448.559998 
L 363.519688 448.559999 
L 365.562789 448.559999 
L 367.60589 448.559999 
L 369.64899 448.559999 
L 371.692091 448.559999 
L 373.735192 448.559999 
L 375.778293 448.559999 
L 377.821393 448.559999 
L 379.864494 448.56 
L 381.907595 448.56 
L 383.950696 448.56 
L 385.993796 448.56 
L 388.036897 448.56 
L 390.079998 448.56 
L 392.123099 448.56 
L 394.166199 448.56 
L 396.2093 448.56 
L 398.252401 448.56 
L 400.295502 448.56 
L 402.338602 448.56 
L 404.381703 448.56 
L 406.424804 448.56 
L 408.467905 448.56 
L 410.511005 448.56 
L 412.554106 448.56 
L 414.597207 448.56 
L 416.640308 448.56 
L 418.683408 448.56 
L 420.726509 448.56 
L 422.76961 448.56 
L 424.812711 448.56 
L 426.855811 448.56 
L 428.898912 448.56 
L 430.942013 448.56 
L 432.985114 448.56 
L 435.028214 448.56 
L 435.028214 435.152421 
L 435.028214 435.152421 
L 432.985114 435.563246 
L 430.942013 435.525128 
L 428.898912 435.481352 
L 426.855811 434.880606 
L 424.812711 434.372825 
L 422.76961 434.216583 
L 420.726509 434.065246 
L 418.683408 433.587318 
L 416.640308 433.521802 
L 414.597207 434.458364 
L 412.554106 434.180516 
L 410.511005 433.394981 
L 408.467905 432.302283 
L 406.424804 432.835892 
L 404.381703 433.58375 
L 402.338602 433.675212 
L 400.295502 432.153027 
L 398.252401 432.868786 
L 396.2093 432.122563 
L 394.166199 431.816441 
L 392.123099 431.544271 
L 390.079998 431.417984 
L 388.036897 430.05604 
L 385.993796 430.833175 
L 383.950696 429.071258 
L 381.907595 430.473824 
L 379.864494 429.581355 
L 377.821393 429.453859 
L 375.778293 428.777204 
L 373.735192 428.043181 
L 371.692091 427.260295 
L 369.64899 426.849495 
L 367.60589 424.973686 
L 365.562789 424.309064 
L 363.519688 423.292495 
L 361.476588 423.40318 
L 359.433487 421.402973 
L 357.390386 421.538381 
L 355.347285 418.346903 
L 353.304185 417.949109 
L 351.261084 430.032744 
L 349.217983 430.382168 
L 347.174882 430.140377 
L 345.131782 429.130723 
L 343.088681 427.878808 
L 341.04558 428.80475 
L 339.002479 427.732764 
L 336.959379 435.569689 
L 334.916278 435.024308 
L 332.873177 434.677821 
L 330.830076 434.93318 
L 328.786976 434.317393 
L 326.743875 434.094159 
L 324.700774 432.404082 
L 322.657673 432.00632 
L 320.614573 431.572163 
L 318.571472 430.774573 
L 316.528371 434.842976 
L 314.48527 434.579358 
L 312.44217 433.592303 
L 310.399069 431.80603 
L 308.355968 434.983502 
L 306.312867 438.450038 
L 304.269767 438.009774 
L 302.226666 436.280035 
L 300.183565 435.070347 
L 298.140464 436.921893 
L 296.097364 435.300581 
L 294.054263 436.453078 
L 292.011162 434.723632 
L 289.968062 434.596156 
L 287.924961 437.702439 
L 285.88186 438.275149 
L 283.838759 435.637582 
L 281.795659 431.788766 
L 279.752558 432.090859 
L 277.709457 434.791393 
L 275.666356 432.988125 
L 273.623256 434.045054 
L 271.580155 433.903136 
L 269.537054 431.623961 
L 267.493953 425.82067 
L 265.450853 422.404427 
L 263.407752 417.249787 
L 261.364651 410.494293 
L 259.32155 408.472007 
L 257.27845 399.369883 
L 255.235349 399.502876 
L 253.192248 390.900011 
L 251.149147 405.901546 
L 249.106047 409.539018 
L 247.062946 404.343799 
L 245.019845 387.776596 
L 242.976744 368.912311 
L 240.933644 340.573571 
L 238.890543 336.0744 
L 236.847442 363.801187 
L 234.804341 322.611379 
L 232.761241 334.848203 
L 230.71814 312.580378 
L 228.675039 326.080207 
L 226.631938 345.980702 
L 224.588838 354.931001 
L 222.545737 353.787801 
L 220.502636 361.336455 
L 218.459536 367.413287 
L 216.416435 386.580942 
L 214.373334 372.175348 
L 212.330233 365.895739 
L 210.287133 339.438498 
L 208.244032 356.385242 
L 206.200931 322.99962 
L 204.15783 277.842176 
L 202.11473 272.076117 
L 200.071629 252.095743 
L 198.028528 217.424613 
L 195.985427 187.734066 
L 193.942327 205.547754 
L 191.899226 206.489775 
L 189.856125 262.91346 
L 187.813024 273.720848 
L 185.769924 287.11011 
L 183.726823 274.025383 
L 181.683722 277.019406 
L 179.640621 286.222852 
L 177.597521 324.32006 
L 175.55442 308.098497 
L 173.511319 295.947114 
L 171.468218 263.699307 
L 169.425118 297.165977 
L 167.382017 288.269606 
L 165.338916 282.748563 
L 163.295815 270.766775 
L 161.252715 262.609469 
L 159.209614 279.484011 
L 157.166513 326.458063 
L 155.123412 309.788502 
L 153.080312 285.044937 
L 151.037211 290.548784 
L 148.99411 272.042114 
L 146.95101 275.482345 
L 144.907909 284.598175 
L 142.864808 261.842439 
L 140.821707 292.263806 
L 138.778607 310.369339 
L 136.735506 303.786383 
L 134.692405 334.231892 
L 132.649304 331.27006 
L 130.606204 354.145607 
L 128.563103 351.953995 
L 126.520002 369.43419 
L 124.476901 372.583961 
L 122.433801 366.395549 
L 120.3907 380.121924 
L 118.347599 376.777866 
L 116.304498 374.51526 
L 114.261398 366.91473 
L 112.218297 362.284281 
L 110.175196 351.778858 
L 108.132095 337.200922 
L 106.088995 310.30756 
L 104.045894 278.297053 
L 102.002793 211.288162 
L 99.959692 177.06295 
L 97.916592 45.978282 
L 95.873491 -148.555491 
L 93.83039 -588.499424 
L 91.787289 -1130.377154 
L 89.744189 -1827.119806 
L 87.701088 -1838.51414 
L 85.657987 -180.896568 
L 83.614886 278.213166 
L 81.571786 280.261004 
z
" clip-path="url(#pfdd237e23d)" style="fill: #0173b2; fill-opacity: 0.3; stroke: #0173b2; stroke-opacity: 0.3"/>
   </g>
   <g id="FillBetweenPolyCollection_2">
    <path d="M 81.571786 256.940204 
L 81.571786 441.27923 
L 83.614886 441.258272 
L 85.657987 422.83362 
L 87.701088 345.96302 
L 89.744189 351.859632 
L 91.787289 362.868272 
L 93.83039 381.932818 
L 95.873491 395.374227 
L 97.916592 412.114936 
L 99.959692 419.016839 
L 102.002793 415.303826 
L 104.045894 422.649386 
L 106.088995 428.561713 
L 108.132095 433.756359 
L 110.175196 434.699859 
L 112.218297 436.577875 
L 114.261398 438.066474 
L 116.304498 439.038437 
L 118.347599 439.280308 
L 120.3907 439.979656 
L 122.433801 438.370817 
L 124.476901 438.535957 
L 126.520002 439.258321 
L 128.563103 436.011532 
L 130.606204 436.871074 
L 132.649304 433.254457 
L 134.692405 435.964999 
L 136.735506 431.108272 
L 138.778607 432.209388 
L 140.821707 427.411267 
L 142.864808 423.952001 
L 144.907909 426.506037 
L 146.95101 422.363593 
L 148.99411 421.210403 
L 151.037211 424.488708 
L 153.080312 421.367757 
L 155.123412 426.766567 
L 157.166513 429.572407 
L 159.209614 417.688932 
L 161.252715 412.024994 
L 163.295815 414.914495 
L 165.338916 416.602292 
L 167.382017 416.944441 
L 169.425118 417.125332 
L 171.468218 408.119285 
L 173.511319 417.631047 
L 175.55442 420.119224 
L 177.597521 421.801147 
L 179.640621 411.0469 
L 181.683722 407.947302 
L 183.726823 404.502036 
L 185.769924 408.324204 
L 187.813024 401.755723 
L 189.856125 398.654861 
L 191.899226 376.914548 
L 193.942327 378.865645 
L 195.985427 364.204077 
L 198.028528 377.146851 
L 200.071629 388.234685 
L 202.11473 394.20636 
L 204.15783 393.260174 
L 206.200931 410.031535 
L 208.244032 421.297172 
L 210.287133 415.650843 
L 212.330233 423.357632 
L 214.373334 426.068596 
L 216.416435 430.269264 
L 218.459536 422.949165 
L 220.502636 419.020816 
L 222.545737 416.639664 
L 224.588838 416.934925 
L 226.631938 413.03063 
L 228.675039 404.734836 
L 230.71814 399.941845 
L 232.761241 406.254586 
L 234.804341 402.603948 
L 236.847442 418.751326 
L 238.890543 406.003988 
L 240.933644 406.21907 
L 242.976744 418.038177 
L 245.019845 425.884387 
L 247.062946 432.267701 
L 249.106047 434.106192 
L 251.149147 432.681209 
L 253.192248 425.005541 
L 255.235349 428.783874 
L 257.27845 428.343511 
L 259.32155 432.058684 
L 261.364651 432.942189 
L 263.407752 435.666314 
L 265.450853 437.96283 
L 267.493953 439.445434 
L 269.537054 441.664177 
L 271.580155 442.324091 
L 273.623256 442.533062 
L 275.666356 441.660121 
L 277.709457 442.523743 
L 279.752558 441.65512 
L 281.795659 441.530034 
L 283.838759 442.830625 
L 285.88186 443.662044 
L 287.924961 443.653887 
L 289.968062 442.901247 
L 292.011162 442.84749 
L 294.054263 443.415282 
L 296.097364 443.264331 
L 298.140464 443.651247 
L 300.183565 443.370745 
L 302.226666 443.926536 
L 304.269767 444.232586 
L 306.312867 444.470445 
L 308.355968 444.056373 
L 310.399069 443.364396 
L 312.44217 443.415529 
L 314.48527 443.857275 
L 316.528371 444.088148 
L 318.571472 443.257147 
L 320.614573 443.360291 
L 322.657673 443.892254 
L 324.700774 444.001789 
L 326.743875 444.114707 
L 328.786976 444.403555 
L 330.830076 444.339894 
L 332.873177 444.292536 
L 334.916278 444.857515 
L 336.959379 444.594952 
L 339.002479 443.441025 
L 341.04558 443.588423 
L 343.088681 443.476289 
L 345.131782 443.488789 
L 347.174882 443.752901 
L 349.217983 443.991343 
L 351.261084 443.872324 
L 353.304185 442.277448 
L 355.347285 442.008202 
L 357.390386 442.481417 
L 359.433487 441.816013 
L 361.476588 442.418194 
L 363.519688 442.539597 
L 365.562789 442.816118 
L 367.60589 442.804812 
L 369.64899 443.132662 
L 371.692091 443.187601 
L 373.735192 443.378226 
L 375.778293 443.239215 
L 377.821393 443.062693 
L 379.864494 443.682233 
L 381.907595 443.428153 
L 383.950696 443.833983 
L 385.993796 443.308835 
L 388.036897 443.078557 
L 390.079998 443.639314 
L 392.123099 443.650288 
L 394.166199 443.546573 
L 396.2093 443.829223 
L 398.252401 443.541017 
L 400.295502 443.91093 
L 402.338602 443.551702 
L 404.381703 443.347549 
L 406.424804 443.18311 
L 408.467905 443.222338 
L 410.511005 443.749521 
L 412.554106 443.464903 
L 414.597207 443.19 
L 416.640308 443.241933 
L 418.683408 443.036613 
L 420.726509 442.75162 
L 422.76961 443.092157 
L 424.812711 443.207789 
L 426.855811 443.208108 
L 428.898912 443.418664 
L 430.942013 443.078313 
L 432.985114 442.830088 
L 435.028214 443.133025 
L 435.028214 326.703153 
L 435.028214 326.703153 
L 432.985114 329.089405 
L 430.942013 330.167101 
L 428.898912 334.57593 
L 426.855811 334.390372 
L 424.812711 343.844558 
L 422.76961 344.063256 
L 420.726509 348.089651 
L 418.683408 350.881341 
L 416.640308 348.8823 
L 414.597207 358.871008 
L 412.554106 359.532501 
L 410.511005 361.278621 
L 408.467905 354.764896 
L 406.424804 363.585317 
L 404.381703 365.166153 
L 402.338602 368.816815 
L 400.295502 371.693483 
L 398.252401 372.037122 
L 396.2093 374.901217 
L 394.166199 374.360477 
L 392.123099 376.480067 
L 390.079998 377.363839 
L 388.036897 381.035277 
L 385.993796 379.476909 
L 383.950696 383.270803 
L 381.907595 385.44242 
L 379.864494 377.868197 
L 377.821393 382.941428 
L 375.778293 383.184344 
L 373.735192 381.187264 
L 371.692091 378.484569 
L 369.64899 384.997266 
L 367.60589 383.886948 
L 365.562789 381.547865 
L 363.519688 380.849192 
L 361.476588 380.468179 
L 359.433487 379.401806 
L 357.390386 377.879264 
L 355.347285 378.578471 
L 353.304185 375.072797 
L 351.261084 398.33495 
L 349.217983 398.209823 
L 347.174882 398.515383 
L 345.131782 400.400188 
L 343.088681 397.97263 
L 341.04558 400.417464 
L 339.002479 398.329841 
L 336.959379 413.479493 
L 334.916278 413.952954 
L 332.873177 410.688181 
L 330.830076 414.173536 
L 328.786976 413.68021 
L 326.743875 411.071108 
L 324.700774 412.275113 
L 322.657673 412.944569 
L 320.614573 410.719113 
L 318.571472 411.472179 
L 316.528371 417.815322 
L 314.48527 416.401003 
L 312.44217 415.825771 
L 310.399069 413.441638 
L 308.355968 417.992406 
L 306.312867 423.506315 
L 304.269767 422.672614 
L 302.226666 421.531229 
L 300.183565 418.995043 
L 298.140464 422.315052 
L 296.097364 420.217803 
L 294.054263 423.756388 
L 292.011162 420.637104 
L 289.968062 420.647602 
L 287.924961 425.258289 
L 285.88186 426.282786 
L 283.838759 423.731752 
L 281.795659 419.58685 
L 279.752558 420.04048 
L 277.709457 423.798905 
L 275.666356 420.883293 
L 273.623256 424.718204 
L 271.580155 424.275122 
L 269.537054 421.489483 
L 267.493953 415.132619 
L 265.450853 410.978816 
L 263.407752 405.913564 
L 261.364651 399.566943 
L 259.32155 397.500942 
L 257.27845 387.819214 
L 255.235349 388.018854 
L 253.192248 380.616388 
L 251.149147 398.972493 
L 249.106047 403.019586 
L 247.062946 397.398265 
L 245.019845 378.402436 
L 242.976744 358.000954 
L 240.933644 328.547309 
L 238.890543 320.803667 
L 236.847442 354.250195 
L 234.804341 313.451745 
L 232.761241 323.787548 
L 230.71814 305.327851 
L 228.675039 319.560387 
L 226.631938 340.392951 
L 224.588838 348.954704 
L 222.545737 350.503052 
L 220.502636 356.518884 
L 218.459536 364.385554 
L 216.416435 384.032308 
L 214.373334 371.253469 
L 212.330233 365.432663 
L 210.287133 335.309631 
L 208.244032 355.116281 
L 206.200931 321.542964 
L 204.15783 271.453103 
L 202.11473 270.49361 
L 200.071629 256.706422 
L 198.028528 215.957259 
L 195.985427 184.873916 
L 193.942327 210.235776 
L 191.899226 199.71344 
L 189.856125 267.878898 
L 187.813024 278.288983 
L 185.769924 283.702562 
L 183.726823 271.75303 
L 181.683722 278.826019 
L 179.640621 285.8831 
L 177.597521 320.032636 
L 175.55442 308.386734 
L 173.511319 298.198271 
L 171.468218 261.921886 
L 169.425118 293.994861 
L 167.382017 292.268291 
L 165.338916 278.217855 
L 163.295815 270.067645 
L 161.252715 259.542162 
L 159.209614 277.917369 
L 157.166513 330.643699 
L 155.123412 303.599381 
L 153.080312 278.327134 
L 151.037211 284.836059 
L 148.99411 265.092612 
L 146.95101 257.111072 
L 144.907909 284.869838 
L 142.864808 259.475221 
L 140.821707 281.53338 
L 138.778607 306.164838 
L 136.735506 294.734743 
L 134.692405 332.129561 
L 132.649304 321.850402 
L 130.606204 351.428396 
L 128.563103 353.208396 
L 126.520002 369.684228 
L 124.476901 368.943793 
L 122.433801 367.814229 
L 120.3907 381.13432 
L 118.347599 378.372851 
L 116.304498 370.641683 
L 114.261398 370.210525 
L 112.218297 361.06476 
L 110.175196 348.01163 
L 108.132095 337.952021 
L 106.088995 309.045677 
L 104.045894 271.56539 
L 102.002793 205.97417 
L 99.959692 167.046007 
L 97.916592 51.590865 
L 95.873491 -189.29288 
L 93.83039 -499.631426 
L 91.787289 -1275.276603 
L 89.744189 -1647.813221 
L 87.701088 -2104.520181 
L 85.657987 -254.398177 
L 83.614886 253.851485 
L 81.571786 256.940204 
z
" clip-path="url(#pfdd237e23d)" style="fill: #de8f05; fill-opacity: 0.3; stroke: #de8f05; stroke-opacity: 0.3"/>
   </g>
   <g id="matplotlib.axis_1">
    <g id="xtick_1">
     <g id="line2d_1">
      <defs>
       <path id="m7b4e02935d" d="M 0 0 
L 0 3.5 
" style="stroke: #000000; stroke-width: 0.8"/>
      </defs>
      <g>
       <use xlink:href="#m7b4e02935d" x="91.787289" y="448.56" style="stroke: #000000; stroke-width: 0.8"/>
      </g>
     </g>
     <g id="text_1">
      <text style="font-size: 16px; font-family: 'Arial', sans-serif; text-anchor: middle" x="91.787289" y="467.0125" transform="rotate(-0 91.787289 467.0125)">1 Jul</text>
     </g>
    </g>
    <g id="xtick_2">
     <g id="line2d_2">
      <g>
       <use xlink:href="#m7b4e02935d" x="155.123412" y="448.56" style="stroke: #000000; stroke-width: 0.8"/>
      </g>
     </g>
     <g id="text_2">
      <text style="font-size: 16px; font-family: 'Arial', sans-serif; text-anchor: middle" x="155.123412" y="467.06" transform="rotate(-0 155.123412 467.06)">1 Aug</text>
     </g>
    </g>
    <g id="xtick_3">
     <g id="line2d_3">
      <g>
       <use xlink:href="#m7b4e02935d" x="218.459536" y="448.56" style="stroke: #000000; stroke-width: 0.8"/>
      </g>
     </g>
     <g id="text_3">
      <text style="font-size: 16px; font-family: 'Arial', sans-serif; text-anchor: middle" x="218.459536" y="467.2075" transform="rotate(-0 218.459536 467.2075)">1 Sep</text>
     </g>
    </g>
    <g id="xtick_4">
     <g id="line2d_4">
      <g>
       <use xlink:href="#m7b4e02935d" x="279.752558" y="448.56" style="stroke: #000000; stroke-width: 0.8"/>
      </g>
     </g>
     <g id="text_4">
      <text style="font-size: 16px; font-family: 'Arial', sans-serif; text-anchor: middle" x="279.752558" y="467.0125" transform="rotate(-0 279.752558 467.0125)">1 Oct</text>
     </g>
    </g>
    <g id="xtick_5">
     <g id="line2d_5">
      <g>
       <use xlink:href="#m7b4e02935d" x="343.088681" y="448.56" style="stroke: #000000; stroke-width: 0.8"/>
      </g>
     </g>
     <g id="text_5">
      <text style="font-size: 16px; font-family: 'Arial', sans-serif; text-anchor: middle" x="343.088681" y="467.0125" transform="rotate(-0 343.088681 467.0125)">1 Nov</text>
     </g>
    </g>
    <g id="xtick_6">
     <g id="line2d_6">
      <g>
       <use xlink:href="#m7b4e02935d" x="404.381703" y="448.56" style="stroke: #000000; stroke-width: 0.8"/>
      </g>
     </g>
     <g id="text_6">
      <text style="font-size: 16px; font-family: 'Arial', sans-serif; text-anchor: middle" x="404.381703" y="467.0125" transform="rotate(-0 404.381703 467.0125)">1 Dec</text>
     </g>
    </g>
   </g>
   <g id="matplotlib.axis_2">
    <g id="ytick_1">
     <g id="line2d_7">
      <defs>
       <path id="md695349a37" d="M 0 0 
L -3.5 0 
" style="stroke: #000000; stroke-width: 0.8"/>
      </defs>
      <g>
       <use xlink:href="#md695349a37" x="63" y="448.56" style="stroke: #000000; stroke-width: 0.8"/>
      </g>
     </g>
     <g id="text_7">
      <text style="font-size: 16px; font-family: 'Arial', sans-serif; text-anchor: end" x="56" y="454.28625" transform="rotate(-0 56 454.28625)">0</text>
     </g>
    </g>
    <g id="ytick_2">
     <g id="line2d_8">
      <g>
       <use xlink:href="#md695349a37" x="63" y="370.944" style="stroke: #000000; stroke-width: 0.8"/>
      </g>
     </g>
     <g id="text_8">
      <text style="font-size: 16px; font-family: 'Arial', sans-serif; text-anchor: end" x="56" y="376.67025" transform="rotate(-0 56 376.67025)">2</text>
     </g>
    </g>
    <g id="ytick_3">
     <g id="line2d_9">
      <g>
       <use xlink:href="#md695349a37" x="63" y="293.328" style="stroke: #000000; stroke-width: 0.8"/>
      </g>
     </g>
     <g id="text_9">
      <text style="font-size: 16px; font-family: 'Arial', sans-serif; text-anchor: end" x="56" y="299.05425" transform="rotate(-0 56 299.05425)">4</text>
     </g>
    </g>
    <g id="ytick_4">
     <g id="line2d_10">
      <g>
       <use xlink:href="#md695349a37" x="63" y="215.712" style="stroke: #000000; stroke-width: 0.8"/>
      </g>
     </g>
     <g id="text_10">
      <text style="font-size: 16px; font-family: 'Arial', sans-serif; text-anchor: end" x="56" y="221.43825" transform="rotate(-0 56 221.43825)">6</text>
     </g>
    </g>
    <g id="ytick_5">
     <g id="line2d_11">
      <g>
       <use xlink:href="#md695349a37" x="63" y="138.096" style="stroke: #000000; stroke-width: 0.8"/>
      </g>
     </g>
     <g id="text_11">
      <text style="font-size: 16px; font-family: 'Arial', sans-serif; text-anchor: end" x="56" y="143.82225" transform="rotate(-0 56 143.82225)">8</text>
     </g>
    </g>
    <g id="ytick_6">
     <g id="line2d_12">
      <g>
       <use xlink:href="#md695349a37" x="63" y="60.48" style="stroke: #000000; stroke-width: 0.8"/>
      </g>
     </g>
     <g id="text_12">
      <text style="font-size: 16px; font-family: 'Arial', sans-serif; text-anchor: end" x="56" y="66.20625" transform="rotate(-0 56 66.20625)">10</text>
     </g>
    </g>
    <g id="text_13">
     <text style="font-size: 16px; font-family: 'Arial', sans-serif; text-anchor: middle" x="31.025" y="254.52" transform="rotate(-90 31.025 254.52)">Time-dependent reproduction number</text>
    </g>
   </g>
   <g id="line2d_13">
    <path d="M 81.571786 400.067827 
L 83.614886 399.32329 
L 85.657987 262.203493 
L 86.764981 -1 
M 92.321837 -1 
L 95.873491 221.985486 
L 97.916592 291.102876 
L 99.959692 338.698123 
L 102.002793 345.778215 
L 104.045894 372.442539 
L 106.088995 387.293329 
L 108.132095 398.719831 
L 110.175196 406.224367 
L 112.218297 410.151322 
L 114.261398 412.958133 
L 116.304498 417.033054 
L 120.3907 420.22461 
L 122.433801 413.945276 
L 124.476901 416.08194 
L 126.520002 416.245309 
L 128.563103 408.32636 
L 130.606204 410.586982 
L 132.649304 400.426841 
L 134.692405 402.296298 
L 136.735506 390.10965 
L 138.778607 392.563018 
L 140.821707 382.210806 
L 142.864808 368.416368 
L 144.907909 378.664569 
L 146.95101 372.641315 
L 148.99411 365.437032 
L 151.037211 377.984527 
L 153.080312 374.730052 
L 155.123412 386.264752 
L 157.166513 394.051373 
L 159.209614 368.309805 
L 161.252715 358.175526 
L 165.338916 366.80044 
L 167.382017 370.357935 
L 169.425118 373.174211 
L 171.468218 354.403405 
L 173.511319 373.458251 
L 175.55442 378.539068 
L 177.597521 384.468701 
L 179.640621 362.804597 
L 181.683722 355.871536 
L 183.726823 354.404196 
L 185.769924 361.168096 
L 187.813024 351.599834 
L 189.856125 345.638687 
L 191.899226 307.900082 
L 193.942327 311.012335 
L 195.985427 294.50313 
L 198.028528 313.575116 
L 200.071629 335.420427 
L 202.11473 345.867718 
L 204.15783 346.32154 
L 206.200931 374.361868 
L 208.244032 395.548306 
L 210.287133 385.22906 
L 212.330233 400.527882 
L 214.373334 404.941412 
L 216.416435 413.275632 
L 218.459536 401.086319 
L 220.502636 395.896428 
L 222.545737 392.628051 
L 224.588838 392.469122 
L 226.631938 387.241729 
L 228.675039 373.900718 
L 230.71814 366.015107 
L 232.761241 379.086726 
L 234.804341 372.163053 
L 236.847442 398.63207 
L 238.890543 380.235084 
L 240.933644 382.372322 
L 242.976744 400.67342 
L 245.019845 412.329282 
L 247.062946 422.80473 
L 249.106047 425.851202 
L 251.149147 424.074071 
L 253.192248 414.025744 
L 255.235349 419.241036 
L 257.27845 419.495668 
L 259.32155 425.101304 
L 261.364651 426.92555 
L 263.407752 430.681929 
L 265.450853 434.103895 
L 267.493953 436.217193 
L 269.537054 439.742377 
L 271.580155 441.229548 
L 273.623256 441.435708 
L 275.666356 440.565982 
L 277.709457 441.814227 
L 279.752558 440.642672 
L 281.795659 440.571261 
L 283.838759 442.760825 
L 285.88186 444.248824 
L 287.924961 444.052909 
L 289.968062 442.685883 
L 292.011162 442.748184 
L 294.054263 443.888777 
L 296.097364 443.281249 
L 298.140464 444.240555 
L 300.183565 443.401374 
L 302.226666 444.229469 
L 306.312867 445.388234 
L 308.355968 443.678245 
L 310.399069 442.247667 
L 312.44217 443.220337 
L 314.48527 443.795073 
L 316.528371 444.053577 
L 318.571472 442.035672 
L 320.614573 442.744132 
L 324.700774 443.538152 
L 326.743875 443.984986 
L 332.873177 444.786722 
L 334.916278 444.874815 
L 336.959379 445.157189 
L 339.002479 441.76222 
L 341.04558 442.365985 
L 343.088681 442.496257 
L 345.131782 442.962486 
L 347.174882 443.206931 
L 349.217983 443.626963 
L 351.261084 443.417001 
L 353.304185 439.172627 
L 357.390386 440.349952 
L 363.519688 441.681784 
L 367.60589 442.205841 
L 369.64899 442.753733 
L 371.692091 443.142129 
L 373.735192 443.312032 
L 377.821393 443.807999 
L 383.950696 444.188521 
L 385.993796 444.454792 
L 388.036897 444.438827 
L 390.079998 444.68201 
L 392.123099 444.738392 
L 394.166199 444.952385 
L 396.2093 444.944461 
L 398.252401 445.198864 
L 400.295502 445.164744 
L 402.338602 445.381567 
L 404.381703 445.433028 
L 408.467905 445.386885 
L 410.511005 445.647525 
L 416.640308 445.628926 
L 418.683408 445.892196 
L 424.812711 445.900973 
L 430.942013 446.147605 
L 435.028214 446.185437 
L 435.028214 446.185437 
" clip-path="url(#pfdd237e23d)" style="fill: none; stroke: #0173b2; stroke-width: 2; stroke-linecap: square"/>
   </g>
   <g id="line2d_14">
    <path d="M 81.571786 394.331538 
L 83.614886 394.207191 
L 85.657987 248.334722 
L 86.617172 -1 
M 92.596699 -1 
L 93.83039 115.594688 
L 95.873491 216.808915 
L 97.916592 293.094797 
L 99.959692 334.600206 
L 102.002793 344.785988 
L 104.045894 370.694873 
L 106.088995 387.222906 
L 108.132095 399.265955 
L 110.175196 404.79571 
L 112.218297 410.79722 
L 114.261398 414.151258 
L 116.304498 416.051738 
L 118.347599 418.376147 
L 120.3907 420.495557 
L 122.433801 414.367941 
L 124.476901 414.850234 
L 126.520002 415.878416 
L 128.563103 408.023162 
L 130.606204 408.494595 
L 132.649304 397.441979 
L 134.692405 401.523338 
L 136.735506 386.321374 
L 138.778607 391.322366 
L 140.821707 378.880592 
L 142.864808 368.208934 
L 144.907909 377.882695 
L 146.95101 367.102241 
L 148.99411 363.877831 
L 151.037211 375.339745 
L 153.080312 372.026438 
L 155.123412 384.256728 
L 157.166513 393.678078 
L 159.209614 367.709846 
L 161.252715 355.577718 
L 163.295815 362.266063 
L 165.338916 366.045579 
L 167.382017 370.395938 
L 169.425118 372.203174 
L 171.468218 353.312549 
L 173.511319 373.525926 
L 175.55442 378.594944 
L 177.597521 384.139362 
L 179.640621 363.880297 
L 181.683722 356.77004 
L 183.726823 354.268516 
L 185.769924 361.036204 
L 187.813024 352.323234 
L 189.856125 346.731225 
L 191.899226 306.93115 
L 193.942327 313.68604 
L 195.985427 293.820737 
L 198.028528 312.39201 
L 200.071629 335.742039 
L 202.11473 345.69801 
L 204.15783 346.044761 
L 206.200931 374.851165 
L 208.244032 394.828397 
L 210.287133 384.160411 
L 212.330233 400.460529 
L 214.373334 404.495091 
L 216.416435 412.362718 
L 218.459536 399.963002 
L 220.502636 393.66618 
L 222.545737 390.043214 
L 224.588838 389.79872 
L 226.631938 383.708253 
L 228.675039 369.666617 
L 230.71814 360.418242 
L 232.761241 373.141557 
L 234.804341 365.761893 
L 236.847442 392.270288 
L 238.890543 371.408897 
L 240.933644 374.729751 
L 242.976744 394.003776 
L 245.019845 406.767703 
L 247.062946 417.927841 
L 249.106047 421.232482 
L 251.149147 418.834056 
L 253.192248 406.700158 
L 255.235349 412.438229 
L 257.27845 411.860498 
L 259.32155 417.882897 
L 261.364651 419.703453 
L 263.407752 423.763861 
L 265.450853 427.543704 
L 267.493953 429.920175 
L 269.537054 433.872747 
L 271.580155 435.489576 
L 273.623256 435.534511 
L 275.666356 433.784611 
L 277.709457 435.202775 
L 279.752558 433.239905 
L 281.795659 433.034702 
L 283.838759 435.610779 
L 285.88186 437.080432 
L 287.924961 436.88019 
L 289.968062 434.853355 
L 292.011162 434.411218 
L 294.054263 436.133946 
L 296.097364 434.983864 
L 298.140464 435.958178 
L 300.183565 434.960122 
L 304.269767 436.569578 
L 306.312867 437.026172 
L 308.355968 435.042605 
L 310.399069 433.243794 
L 312.44217 433.714886 
L 314.48527 434.512375 
L 316.528371 435.051172 
L 318.571472 432.009807 
L 320.614573 432.344235 
L 322.657673 433.911651 
L 326.743875 433.589156 
L 328.786976 434.336283 
L 330.830076 434.179748 
L 332.873177 433.767505 
L 334.916278 434.728285 
L 336.959379 434.525004 
L 339.002479 429.572044 
L 341.04558 429.707257 
L 343.088681 429.656663 
L 345.131782 429.752489 
L 347.174882 429.735546 
L 351.261084 429.891562 
L 353.304185 422.357504 
L 355.347285 422.106042 
L 357.390386 422.707927 
L 359.433487 422.390102 
L 361.476588 422.484077 
L 363.519688 423.730615 
L 365.562789 423.961827 
L 367.60589 423.899474 
L 369.64899 425.133202 
L 371.692091 424.219067 
L 375.778293 425.479184 
L 377.821393 425.521383 
L 379.864494 424.985292 
L 381.907595 425.891607 
L 383.950696 425.787243 
L 385.993796 424.939054 
L 388.036897 425.225794 
L 390.079998 424.50668 
L 392.123099 424.051734 
L 394.166199 423.939702 
L 396.2093 424.112756 
L 398.252401 423.1121 
L 400.295502 422.924975 
L 402.338602 422.885231 
L 404.381703 421.246318 
L 406.424804 421.261613 
L 408.467905 419.247449 
L 410.511005 420.927375 
L 412.554106 419.720096 
L 414.597207 418.856395 
L 416.640308 417.736447 
L 418.683408 417.961009 
L 420.726509 417.713697 
L 422.76961 416.29528 
L 424.812711 416.949476 
L 428.898912 415.020732 
L 430.942013 414.519418 
L 432.985114 413.668559 
L 435.028214 413.028688 
L 435.028214 413.028688 
" clip-path="url(#pfdd237e23d)" style="fill: none; stroke: #de8f05; stroke-width: 2; stroke-linecap: square"/>
   </g>
   <g id="patch_3">
    <path d="M 63 448.56 
L 63 60.48 
" style="fill: none; stroke: #000000; stroke-width: 0.8; stroke-linejoin: miter; stroke-linecap: square"/>
   </g>
   <g id="patch_4">
    <path d="M 63 448.56 
L 453.6 448.56 
" style="fill: none; stroke: #000000; stroke-width: 0.8; stroke-linejoin: miter; stroke-linecap: square"/>
   </g>
   <g id="legend_1">
    <g id="patch_5">
     <path d="M 296.281563 111.785625 
L 443.8 111.785625 
Q 446.6 111.785625 446.6 108.985625 
L 446.6 70.28 
Q 446.6 67.48 443.8 67.48 
L 296.281563 67.48 
Q 293.481562 67.48 293.481562 70.28 
L 293.481562 108.985625 
Q 293.481562 111.785625 296.281563 111.785625 
z
" style="fill: #ffffff; opacity: 0.8; stroke: #cccccc; stroke-linejoin: miter"/>
    </g>
    <g id="line2d_15">
     <path d="M 299.081563 78.371563 
L 313.081563 78.371563 
L 327.081563 78.371563 
" style="fill: none; stroke: #0173b2; stroke-width: 2; stroke-linecap: square"/>
    </g>
    <g id="text_14">
     <text style="font-size: 14px; font-family: 'Arial', sans-serif; text-anchor: start" x="338.281563" y="83.271563" transform="rotate(-0 338.281563 83.271563)">Suitability-based</text>
    </g>
    <g id="line2d_16">
     <path d="M 299.081563 98.339063 
L 313.081563 98.339063 
L 327.081563 98.339063 
" style="fill: none; stroke: #de8f05; stroke-width: 2; stroke-linecap: square"/>
    </g>
    <g id="text_15">
     <text style="font-size: 14px; font-family: 'Arial', sans-serif; text-anchor: start" x="338.281563" y="103.239063" transform="rotate(-0 338.281563 103.239063)">Autoregressive</text>
    </g>
   </g>
  </g>
  <g id="axes_2">
   <g id="patch_6">
    <path d="M 80.754545 448.56 
L 82.389026 448.56 
L 82.389026 396.816 
L 80.754545 396.816 
z
" clip-path="url(#pfdd237e23d)" style="fill: #7f7f7f; opacity: 0.5"/>
   </g>
   <g id="patch_7">
    <path d="M 82.797646 448.56 
L 84.432127 448.56 
L 84.432127 396.816 
L 82.797646 396.816 
z
" clip-path="url(#pfdd237e23d)" style="fill: #7f7f7f; opacity: 0.5"/>
   </g>
   <g id="patch_8">
    <path d="M 84.840747 448.56 
L 86.475228 448.56 
L 86.475228 396.816 
L 84.840747 396.816 
z
" clip-path="url(#pfdd237e23d)" style="fill: #7f7f7f; opacity: 0.5"/>
   </g>
   <g id="patch_9">
    <path d="M 86.883848 448.56 
L 88.518328 448.56 
L 88.518328 448.56 
L 86.883848 448.56 
z
" clip-path="url(#pfdd237e23d)" style="fill: #7f7f7f; opacity: 0.5"/>
   </g>
   <g id="patch_10">
    <path d="M 88.926948 448.56 
L 90.561429 448.56 
L 90.561429 448.56 
L 88.926948 448.56 
z
" clip-path="url(#pfdd237e23d)" style="fill: #7f7f7f; opacity: 0.5"/>
   </g>
   <g id="patch_11">
    <path d="M 90.970049 448.56 
L 92.60453 448.56 
L 92.60453 448.56 
L 90.970049 448.56 
z
" clip-path="url(#pfdd237e23d)" style="fill: #7f7f7f; opacity: 0.5"/>
   </g>
   <g id="patch_12">
    <path d="M 93.01315 448.56 
L 94.647631 448.56 
L 94.647631 448.56 
L 93.01315 448.56 
z
" clip-path="url(#pfdd237e23d)" style="fill: #7f7f7f; opacity: 0.5"/>
   </g>
   <g id="patch_13">
    <path d="M 95.056251 448.56 
L 96.690731 448.56 
L 96.690731 448.56 
L 95.056251 448.56 
z
" clip-path="url(#pfdd237e23d)" style="fill: #7f7f7f; opacity: 0.5"/>
   </g>
   <g id="patch_14">
    <path d="M 97.099351 448.56 
L 98.733832 448.56 
L 98.733832 448.56 
L 97.099351 448.56 
z
" clip-path="url(#pfdd237e23d)" style="fill: #7f7f7f; opacity: 0.5"/>
   </g>
   <g id="patch_15">
    <path d="M 99.142452 448.56 
L 100.776933 448.56 
L 100.776933 422.688 
L 99.142452 422.688 
z
" clip-path="url(#pfdd237e23d)" style="fill: #7f7f7f; opacity: 0.5"/>
   </g>
   <g id="patch_16">
    <path d="M 101.185553 448.56 
L 102.820033 448.56 
L 102.820033 448.56 
L 101.185553 448.56 
z
" clip-path="url(#pfdd237e23d)" style="fill: #7f7f7f; opacity: 0.5"/>
   </g>
   <g id="patch_17">
    <path d="M 103.228654 448.56 
L 104.863134 448.56 
L 104.863134 448.56 
L 103.228654 448.56 
z
" clip-path="url(#pfdd237e23d)" style="fill: #7f7f7f; opacity: 0.5"/>
   </g>
   <g id="patch_18">
    <path d="M 105.271754 448.56 
L 106.906235 448.56 
L 106.906235 448.56 
L 105.271754 448.56 
z
" clip-path="url(#pfdd237e23d)" style="fill: #7f7f7f; opacity: 0.5"/>
   </g>
   <g id="patch_19">
    <path d="M 107.314855 448.56 
L 108.949336 448.56 
L 108.949336 448.56 
L 107.314855 448.56 
z
" clip-path="url(#pfdd237e23d)" style="fill: #7f7f7f; opacity: 0.5"/>
   </g>
   <g id="patch_20">
    <path d="M 109.357956 448.56 
L 110.992436 448.56 
L 110.992436 448.56 
L 109.357956 448.56 
z
" clip-path="url(#pfdd237e23d)" style="fill: #7f7f7f; opacity: 0.5"/>
   </g>
   <g id="patch_21">
    <path d="M 111.401057 448.56 
L 113.035537 448.56 
L 113.035537 448.56 
L 111.401057 448.56 
z
" clip-path="url(#pfdd237e23d)" style="fill: #7f7f7f; opacity: 0.5"/>
   </g>
   <g id="patch_22">
    <path d="M 113.444157 448.56 
L 115.078638 448.56 
L 115.078638 448.56 
L 113.444157 448.56 
z
" clip-path="url(#pfdd237e23d)" style="fill: #7f7f7f; opacity: 0.5"/>
   </g>
   <g id="patch_23">
    <path d="M 115.487258 448.56 
L 117.121739 448.56 
L 117.121739 448.56 
L 115.487258 448.56 
z
" clip-path="url(#pfdd237e23d)" style="fill: #7f7f7f; opacity: 0.5"/>
   </g>
   <g id="patch_24">
    <path d="M 117.530359 448.56 
L 119.164839 448.56 
L 119.164839 448.56 
L 117.530359 448.56 
z
" clip-path="url(#pfdd237e23d)" style="fill: #7f7f7f; opacity: 0.5"/>
   </g>
   <g id="patch_25">
    <path d="M 119.57346 448.56 
L 121.20794 448.56 
L 121.20794 422.688 
L 119.57346 422.688 
z
" clip-path="url(#pfdd237e23d)" style="fill: #7f7f7f; opacity: 0.5"/>
   </g>
   <g id="patch_26">
    <path d="M 121.61656 448.56 
L 123.251041 448.56 
L 123.251041 448.56 
L 121.61656 448.56 
z
" clip-path="url(#pfdd237e23d)" style="fill: #7f7f7f; opacity: 0.5"/>
   </g>
   <g id="patch_27">
    <path d="M 123.659661 448.56 
L 125.294142 448.56 
L 125.294142 448.56 
L 123.659661 448.56 
z
" clip-path="url(#pfdd237e23d)" style="fill: #7f7f7f; opacity: 0.5"/>
   </g>
   <g id="patch_28">
    <path d="M 125.702762 448.56 
L 127.337242 448.56 
L 127.337242 422.688 
L 125.702762 422.688 
z
" clip-path="url(#pfdd237e23d)" style="fill: #7f7f7f; opacity: 0.5"/>
   </g>
   <g id="patch_29">
    <path d="M 127.745863 448.56 
L 129.380343 448.56 
L 129.380343 448.56 
L 127.745863 448.56 
z
" clip-path="url(#pfdd237e23d)" style="fill: #7f7f7f; opacity: 0.5"/>
   </g>
   <g id="patch_30">
    <path d="M 129.788963 448.56 
L 131.423444 448.56 
L 131.423444 422.688 
L 129.788963 422.688 
z
" clip-path="url(#pfdd237e23d)" style="fill: #7f7f7f; opacity: 0.5"/>
   </g>
   <g id="patch_31">
    <path d="M 131.832064 448.56 
L 133.466545 448.56 
L 133.466545 448.56 
L 131.832064 448.56 
z
" clip-path="url(#pfdd237e23d)" style="fill: #7f7f7f; opacity: 0.5"/>
   </g>
   <g id="patch_32">
    <path d="M 133.875165 448.56 
L 135.509645 448.56 
L 135.509645 422.688 
L 133.875165 422.688 
z
" clip-path="url(#pfdd237e23d)" style="fill: #7f7f7f; opacity: 0.5"/>
   </g>
   <g id="patch_33">
    <path d="M 135.918266 448.56 
L 137.552746 448.56 
L 137.552746 448.56 
L 135.918266 448.56 
z
" clip-path="url(#pfdd237e23d)" style="fill: #7f7f7f; opacity: 0.5"/>
   </g>
   <g id="patch_34">
    <path d="M 137.961366 448.56 
L 139.595847 448.56 
L 139.595847 422.688 
L 137.961366 422.688 
z
" clip-path="url(#pfdd237e23d)" style="fill: #7f7f7f; opacity: 0.5"/>
   </g>
   <g id="patch_35">
    <path d="M 140.004467 448.56 
L 141.638948 448.56 
L 141.638948 422.688 
L 140.004467 422.688 
z
" clip-path="url(#pfdd237e23d)" style="fill: #7f7f7f; opacity: 0.5"/>
   </g>
   <g id="patch_36">
    <path d="M 142.047568 448.56 
L 143.682048 448.56 
L 143.682048 448.56 
L 142.047568 448.56 
z
" clip-path="url(#pfdd237e23d)" style="fill: #7f7f7f; opacity: 0.5"/>
   </g>
   <g id="patch_37">
    <path d="M 144.090668 448.56 
L 145.725149 448.56 
L 145.725149 422.688 
L 144.090668 422.688 
z
" clip-path="url(#pfdd237e23d)" style="fill: #7f7f7f; opacity: 0.5"/>
   </g>
   <g id="patch_38">
    <path d="M 146.133769 448.56 
L 147.76825 448.56 
L 147.76825 422.688 
L 146.133769 422.688 
z
" clip-path="url(#pfdd237e23d)" style="fill: #7f7f7f; opacity: 0.5"/>
   </g>
   <g id="patch_39">
    <path d="M 148.17687 448.56 
L 149.811351 448.56 
L 149.811351 448.56 
L 148.17687 448.56 
z
" clip-path="url(#pfdd237e23d)" style="fill: #7f7f7f; opacity: 0.5"/>
   </g>
   <g id="patch_40">
    <path d="M 150.219971 448.56 
L 151.854451 448.56 
L 151.854451 422.688 
L 150.219971 422.688 
z
" clip-path="url(#pfdd237e23d)" style="fill: #7f7f7f; opacity: 0.5"/>
   </g>
   <g id="patch_41">
    <path d="M 152.263071 448.56 
L 153.897552 448.56 
L 153.897552 448.56 
L 152.263071 448.56 
z
" clip-path="url(#pfdd237e23d)" style="fill: #7f7f7f; opacity: 0.5"/>
   </g>
   <g id="patch_42">
    <path d="M 154.306172 448.56 
L 155.940653 448.56 
L 155.940653 448.56 
L 154.306172 448.56 
z
" clip-path="url(#pfdd237e23d)" style="fill: #7f7f7f; opacity: 0.5"/>
   </g>
   <g id="patch_43">
    <path d="M 156.349273 448.56 
L 157.983754 448.56 
L 157.983754 370.944 
L 156.349273 370.944 
z
" clip-path="url(#pfdd237e23d)" style="fill: #7f7f7f; opacity: 0.5"/>
   </g>
   <g id="patch_44">
    <path d="M 158.392374 448.56 
L 160.026854 448.56 
L 160.026854 396.816 
L 158.392374 396.816 
z
" clip-path="url(#pfdd237e23d)" style="fill: #7f7f7f; opacity: 0.5"/>
   </g>
   <g id="patch_45">
    <path d="M 160.435474 448.56 
L 162.069955 448.56 
L 162.069955 422.688 
L 160.435474 422.688 
z
" clip-path="url(#pfdd237e23d)" style="fill: #7f7f7f; opacity: 0.5"/>
   </g>
   <g id="patch_46">
    <path d="M 162.478575 448.56 
L 164.113056 448.56 
L 164.113056 422.688 
L 162.478575 422.688 
z
" clip-path="url(#pfdd237e23d)" style="fill: #7f7f7f; opacity: 0.5"/>
   </g>
   <g id="patch_47">
    <path d="M 164.521676 448.56 
L 166.156157 448.56 
L 166.156157 422.688 
L 164.521676 422.688 
z
" clip-path="url(#pfdd237e23d)" style="fill: #7f7f7f; opacity: 0.5"/>
   </g>
   <g id="patch_48">
    <path d="M 166.564777 448.56 
L 168.199257 448.56 
L 168.199257 422.688 
L 166.564777 422.688 
z
" clip-path="url(#pfdd237e23d)" style="fill: #7f7f7f; opacity: 0.5"/>
   </g>
   <g id="patch_49">
    <path d="M 168.607877 448.56 
L 170.242358 448.56 
L 170.242358 370.944 
L 168.607877 370.944 
z
" clip-path="url(#pfdd237e23d)" style="fill: #7f7f7f; opacity: 0.5"/>
   </g>
   <g id="patch_50">
    <path d="M 170.650978 448.56 
L 172.285459 448.56 
L 172.285459 448.56 
L 170.650978 448.56 
z
" clip-path="url(#pfdd237e23d)" style="fill: #7f7f7f; opacity: 0.5"/>
   </g>
   <g id="patch_51">
    <path d="M 172.694079 448.56 
L 174.328559 448.56 
L 174.328559 422.688 
L 172.694079 422.688 
z
" clip-path="url(#pfdd237e23d)" style="fill: #7f7f7f; opacity: 0.5"/>
   </g>
   <g id="patch_52">
    <path d="M 174.73718 448.56 
L 176.37166 448.56 
L 176.37166 422.688 
L 174.73718 422.688 
z
" clip-path="url(#pfdd237e23d)" style="fill: #7f7f7f; opacity: 0.5"/>
   </g>
   <g id="patch_53">
    <path d="M 176.78028 448.56 
L 178.414761 448.56 
L 178.414761 345.072 
L 176.78028 345.072 
z
" clip-path="url(#pfdd237e23d)" style="fill: #7f7f7f; opacity: 0.5"/>
   </g>
   <g id="patch_54">
    <path d="M 178.823381 448.56 
L 180.457862 448.56 
L 180.457862 370.944 
L 178.823381 370.944 
z
" clip-path="url(#pfdd237e23d)" style="fill: #7f7f7f; opacity: 0.5"/>
   </g>
   <g id="patch_55">
    <path d="M 180.866482 448.56 
L 182.500962 448.56 
L 182.500962 370.944 
L 180.866482 370.944 
z
" clip-path="url(#pfdd237e23d)" style="fill: #7f7f7f; opacity: 0.5"/>
   </g>
   <g id="patch_56">
    <path d="M 182.909583 448.56 
L 184.544063 448.56 
L 184.544063 396.816 
L 182.909583 396.816 
z
" clip-path="url(#pfdd237e23d)" style="fill: #7f7f7f; opacity: 0.5"/>
   </g>
   <g id="patch_57">
    <path d="M 184.952683 448.56 
L 186.587164 448.56 
L 186.587164 345.072 
L 184.952683 345.072 
z
" clip-path="url(#pfdd237e23d)" style="fill: #7f7f7f; opacity: 0.5"/>
   </g>
   <g id="patch_58">
    <path d="M 186.995784 448.56 
L 188.630265 448.56 
L 188.630265 345.072 
L 186.995784 345.072 
z
" clip-path="url(#pfdd237e23d)" style="fill: #7f7f7f; opacity: 0.5"/>
   </g>
   <g id="patch_59">
    <path d="M 189.038885 448.56 
L 190.673365 448.56 
L 190.673365 241.584 
L 189.038885 241.584 
z
" clip-path="url(#pfdd237e23d)" style="fill: #7f7f7f; opacity: 0.5"/>
   </g>
   <g id="patch_60">
    <path d="M 191.081986 448.56 
L 192.716466 448.56 
L 192.716466 319.2 
L 191.081986 319.2 
z
" clip-path="url(#pfdd237e23d)" style="fill: #7f7f7f; opacity: 0.5"/>
   </g>
   <g id="patch_61">
    <path d="M 193.125086 448.56 
L 194.759567 448.56 
L 194.759567 241.584 
L 193.125086 241.584 
z
" clip-path="url(#pfdd237e23d)" style="fill: #7f7f7f; opacity: 0.5"/>
   </g>
   <g id="patch_62">
    <path d="M 195.168187 448.56 
L 196.802668 448.56 
L 196.802668 319.2 
L 195.168187 319.2 
z
" clip-path="url(#pfdd237e23d)" style="fill: #7f7f7f; opacity: 0.5"/>
   </g>
   <g id="patch_63">
    <path d="M 197.211288 448.56 
L 198.845768 448.56 
L 198.845768 345.072 
L 197.211288 345.072 
z
" clip-path="url(#pfdd237e23d)" style="fill: #7f7f7f; opacity: 0.5"/>
   </g>
   <g id="patch_64">
    <path d="M 199.254389 448.56 
L 200.888869 448.56 
L 200.888869 319.2 
L 199.254389 319.2 
z
" clip-path="url(#pfdd237e23d)" style="fill: #7f7f7f; opacity: 0.5"/>
   </g>
   <g id="patch_65">
    <path d="M 201.297489 448.56 
L 202.93197 448.56 
L 202.93197 267.456 
L 201.297489 267.456 
z
" clip-path="url(#pfdd237e23d)" style="fill: #7f7f7f; opacity: 0.5"/>
   </g>
   <g id="patch_66">
    <path d="M 203.34059 448.56 
L 204.975071 448.56 
L 204.975071 396.816 
L 203.34059 396.816 
z
" clip-path="url(#pfdd237e23d)" style="fill: #7f7f7f; opacity: 0.5"/>
   </g>
   <g id="patch_67">
    <path d="M 205.383691 448.56 
L 207.018171 448.56 
L 207.018171 422.688 
L 205.383691 422.688 
z
" clip-path="url(#pfdd237e23d)" style="fill: #7f7f7f; opacity: 0.5"/>
   </g>
   <g id="patch_68">
    <path d="M 207.426792 448.56 
L 209.061272 448.56 
L 209.061272 241.584 
L 207.426792 241.584 
z
" clip-path="url(#pfdd237e23d)" style="fill: #7f7f7f; opacity: 0.5"/>
   </g>
   <g id="patch_69">
    <path d="M 209.469892 448.56 
L 211.104373 448.56 
L 211.104373 396.816 
L 209.469892 396.816 
z
" clip-path="url(#pfdd237e23d)" style="fill: #7f7f7f; opacity: 0.5"/>
   </g>
   <g id="patch_70">
    <path d="M 211.512993 448.56 
L 213.147474 448.56 
L 213.147474 345.072 
L 211.512993 345.072 
z
" clip-path="url(#pfdd237e23d)" style="fill: #7f7f7f; opacity: 0.5"/>
   </g>
   <g id="patch_71">
    <path d="M 213.556094 448.56 
L 215.190574 448.56 
L 215.190574 396.816 
L 213.556094 396.816 
z
" clip-path="url(#pfdd237e23d)" style="fill: #7f7f7f; opacity: 0.5"/>
   </g>
   <g id="patch_72">
    <path d="M 215.599194 448.56 
L 217.233675 448.56 
L 217.233675 215.712 
L 215.599194 215.712 
z
" clip-path="url(#pfdd237e23d)" style="fill: #7f7f7f; opacity: 0.5"/>
   </g>
   <g id="patch_73">
    <path d="M 217.642295 448.56 
L 219.276776 448.56 
L 219.276776 241.584 
L 217.642295 241.584 
z
" clip-path="url(#pfdd237e23d)" style="fill: #7f7f7f; opacity: 0.5"/>
   </g>
   <g id="patch_74">
    <path d="M 219.685396 448.56 
L 221.319877 448.56 
L 221.319877 241.584 
L 219.685396 241.584 
z
" clip-path="url(#pfdd237e23d)" style="fill: #7f7f7f; opacity: 0.5"/>
   </g>
   <g id="patch_75">
    <path d="M 221.728497 448.56 
L 223.362977 448.56 
L 223.362977 267.456 
L 221.728497 267.456 
z
" clip-path="url(#pfdd237e23d)" style="fill: #7f7f7f; opacity: 0.5"/>
   </g>
   <g id="patch_76">
    <path d="M 223.771597 448.56 
L 225.406078 448.56 
L 225.406078 215.712 
L 223.771597 215.712 
z
" clip-path="url(#pfdd237e23d)" style="fill: #7f7f7f; opacity: 0.5"/>
   </g>
   <g id="patch_77">
    <path d="M 225.814698 448.56 
L 227.449179 448.56 
L 227.449179 138.096 
L 225.814698 138.096 
z
" clip-path="url(#pfdd237e23d)" style="fill: #7f7f7f; opacity: 0.5"/>
   </g>
   <g id="patch_78">
    <path d="M 227.857799 448.56 
L 229.49228 448.56 
L 229.49228 138.096 
L 227.857799 138.096 
z
" clip-path="url(#pfdd237e23d)" style="fill: #7f7f7f; opacity: 0.5"/>
   </g>
   <g id="patch_79">
    <path d="M 229.9009 448.56 
L 231.53538 448.56 
L 231.53538 267.456 
L 229.9009 267.456 
z
" clip-path="url(#pfdd237e23d)" style="fill: #7f7f7f; opacity: 0.5"/>
   </g>
   <g id="patch_80">
    <path d="M 231.944 448.56 
L 233.578481 448.56 
L 233.578481 138.096 
L 231.944 138.096 
z
" clip-path="url(#pfdd237e23d)" style="fill: #7f7f7f; opacity: 0.5"/>
   </g>
   <g id="patch_81">
    <path d="M 233.987101 448.56 
L 235.621582 448.56 
L 235.621582 396.816 
L 233.987101 396.816 
z
" clip-path="url(#pfdd237e23d)" style="fill: #7f7f7f; opacity: 0.5"/>
   </g>
   <g id="patch_82">
    <path d="M 236.030202 448.56 
L 237.664682 448.56 
L 237.664682 60.48 
L 236.030202 60.48 
z
" clip-path="url(#pfdd237e23d)" style="fill: #7f7f7f; opacity: 0.5"/>
   </g>
   <g id="patch_83">
    <path d="M 238.073303 448.56 
L 239.707783 448.56 
L 239.707783 163.968 
L 238.073303 163.968 
z
" clip-path="url(#pfdd237e23d)" style="fill: #7f7f7f; opacity: 0.5"/>
   </g>
   <g id="patch_84">
    <path d="M 240.116403 448.56 
L 241.750884 448.56 
L 241.750884 319.2 
L 240.116403 319.2 
z
" clip-path="url(#pfdd237e23d)" style="fill: #7f7f7f; opacity: 0.5"/>
   </g>
   <g id="patch_85">
    <path d="M 242.159504 448.56 
L 243.793985 448.56 
L 243.793985 345.072 
L 242.159504 345.072 
z
" clip-path="url(#pfdd237e23d)" style="fill: #7f7f7f; opacity: 0.5"/>
   </g>
   <g id="patch_86">
    <path d="M 244.202605 448.56 
L 245.837085 448.56 
L 245.837085 396.816 
L 244.202605 396.816 
z
" clip-path="url(#pfdd237e23d)" style="fill: #7f7f7f; opacity: 0.5"/>
   </g>
   <g id="patch_87">
    <path d="M 246.245706 448.56 
L 247.880186 448.56 
L 247.880186 345.072 
L 246.245706 345.072 
z
" clip-path="url(#pfdd237e23d)" style="fill: #7f7f7f; opacity: 0.5"/>
   </g>
   <g id="patch_88">
    <path d="M 248.288806 448.56 
L 249.923287 448.56 
L 249.923287 267.456 
L 248.288806 267.456 
z
" clip-path="url(#pfdd237e23d)" style="fill: #7f7f7f; opacity: 0.5"/>
   </g>
   <g id="patch_89">
    <path d="M 250.331907 448.56 
L 251.966388 448.56 
L 251.966388 112.224 
L 250.331907 112.224 
z
" clip-path="url(#pfdd237e23d)" style="fill: #7f7f7f; opacity: 0.5"/>
   </g>
   <g id="patch_90">
    <path d="M 252.375008 448.56 
L 254.009488 448.56 
L 254.009488 293.328 
L 252.375008 293.328 
z
" clip-path="url(#pfdd237e23d)" style="fill: #7f7f7f; opacity: 0.5"/>
   </g>
   <g id="patch_91">
    <path d="M 254.418109 448.56 
L 256.052589 448.56 
L 256.052589 241.584 
L 254.418109 241.584 
z
" clip-path="url(#pfdd237e23d)" style="fill: #7f7f7f; opacity: 0.5"/>
   </g>
   <g id="patch_92">
    <path d="M 256.461209 448.56 
L 258.09569 448.56 
L 258.09569 345.072 
L 256.461209 345.072 
z
" clip-path="url(#pfdd237e23d)" style="fill: #7f7f7f; opacity: 0.5"/>
   </g>
   <g id="patch_93">
    <path d="M 258.50431 448.56 
L 260.138791 448.56 
L 260.138791 319.2 
L 258.50431 319.2 
z
" clip-path="url(#pfdd237e23d)" style="fill: #7f7f7f; opacity: 0.5"/>
   </g>
   <g id="patch_94">
    <path d="M 260.547411 448.56 
L 262.181891 448.56 
L 262.181891 370.944 
L 260.547411 370.944 
z
" clip-path="url(#pfdd237e23d)" style="fill: #7f7f7f; opacity: 0.5"/>
   </g>
   <g id="patch_95">
    <path d="M 262.590512 448.56 
L 264.224992 448.56 
L 264.224992 396.816 
L 262.590512 396.816 
z
" clip-path="url(#pfdd237e23d)" style="fill: #7f7f7f; opacity: 0.5"/>
   </g>
   <g id="patch_96">
    <path d="M 264.633612 448.56 
L 266.268093 448.56 
L 266.268093 396.816 
L 264.633612 396.816 
z
" clip-path="url(#pfdd237e23d)" style="fill: #7f7f7f; opacity: 0.5"/>
   </g>
   <g id="patch_97">
    <path d="M 266.676713 448.56 
L 268.311194 448.56 
L 268.311194 448.56 
L 266.676713 448.56 
z
" clip-path="url(#pfdd237e23d)" style="fill: #7f7f7f; opacity: 0.5"/>
   </g>
   <g id="patch_98">
    <path d="M 268.719814 448.56 
L 270.354294 448.56 
L 270.354294 422.688 
L 268.719814 422.688 
z
" clip-path="url(#pfdd237e23d)" style="fill: #7f7f7f; opacity: 0.5"/>
   </g>
   <g id="patch_99">
    <path d="M 270.762915 448.56 
L 272.397395 448.56 
L 272.397395 396.816 
L 270.762915 396.816 
z
" clip-path="url(#pfdd237e23d)" style="fill: #7f7f7f; opacity: 0.5"/>
   </g>
   <g id="patch_100">
    <path d="M 272.806015 448.56 
L 274.440496 448.56 
L 274.440496 370.944 
L 272.806015 370.944 
z
" clip-path="url(#pfdd237e23d)" style="fill: #7f7f7f; opacity: 0.5"/>
   </g>
   <g id="patch_101">
    <path d="M 274.849116 448.56 
L 276.483597 448.56 
L 276.483597 422.688 
L 274.849116 422.688 
z
" clip-path="url(#pfdd237e23d)" style="fill: #7f7f7f; opacity: 0.5"/>
   </g>
   <g id="patch_102">
    <path d="M 276.892217 448.56 
L 278.526697 448.56 
L 278.526697 370.944 
L 276.892217 370.944 
z
" clip-path="url(#pfdd237e23d)" style="fill: #7f7f7f; opacity: 0.5"/>
   </g>
   <g id="patch_103">
    <path d="M 278.935318 448.56 
L 280.569798 448.56 
L 280.569798 396.816 
L 278.935318 396.816 
z
" clip-path="url(#pfdd237e23d)" style="fill: #7f7f7f; opacity: 0.5"/>
   </g>
   <g id="patch_104">
    <path d="M 280.978418 448.56 
L 282.612899 448.56 
L 282.612899 448.56 
L 280.978418 448.56 
z
" clip-path="url(#pfdd237e23d)" style="fill: #7f7f7f; opacity: 0.5"/>
   </g>
   <g id="patch_105">
    <path d="M 283.021519 448.56 
L 284.656 448.56 
L 284.656 448.56 
L 283.021519 448.56 
z
" clip-path="url(#pfdd237e23d)" style="fill: #7f7f7f; opacity: 0.5"/>
   </g>
   <g id="patch_106">
    <path d="M 285.06462 448.56 
L 286.6991 448.56 
L 286.6991 422.688 
L 285.06462 422.688 
z
" clip-path="url(#pfdd237e23d)" style="fill: #7f7f7f; opacity: 0.5"/>
   </g>
   <g id="patch_107">
    <path d="M 287.10772 448.56 
L 288.742201 448.56 
L 288.742201 396.816 
L 287.10772 396.816 
z
" clip-path="url(#pfdd237e23d)" style="fill: #7f7f7f; opacity: 0.5"/>
   </g>
   <g id="patch_108">
    <path d="M 289.150821 448.56 
L 290.785302 448.56 
L 290.785302 422.688 
L 289.150821 422.688 
z
" clip-path="url(#pfdd237e23d)" style="fill: #7f7f7f; opacity: 0.5"/>
   </g>
   <g id="patch_109">
    <path d="M 291.193922 448.56 
L 292.828403 448.56 
L 292.828403 448.56 
L 291.193922 448.56 
z
" clip-path="url(#pfdd237e23d)" style="fill: #7f7f7f; opacity: 0.5"/>
   </g>
   <g id="patch_110">
    <path d="M 293.237023 448.56 
L 294.871503 448.56 
L 294.871503 422.688 
L 293.237023 422.688 
z
" clip-path="url(#pfdd237e23d)" style="fill: #7f7f7f; opacity: 0.5"/>
   </g>
   <g id="patch_111">
    <path d="M 295.280123 448.56 
L 296.914604 448.56 
L 296.914604 448.56 
L 295.280123 448.56 
z
" clip-path="url(#pfdd237e23d)" style="fill: #7f7f7f; opacity: 0.5"/>
   </g>
   <g id="patch_112">
    <path d="M 297.323224 448.56 
L 298.957705 448.56 
L 298.957705 422.688 
L 297.323224 422.688 
z
" clip-path="url(#pfdd237e23d)" style="fill: #7f7f7f; opacity: 0.5"/>
   </g>
   <g id="patch_113">
    <path d="M 299.366325 448.56 
L 301.000806 448.56 
L 301.000806 448.56 
L 299.366325 448.56 
z
" clip-path="url(#pfdd237e23d)" style="fill: #7f7f7f; opacity: 0.5"/>
   </g>
   <g id="patch_114">
    <path d="M 301.409426 448.56 
L 303.043906 448.56 
L 303.043906 448.56 
L 301.409426 448.56 
z
" clip-path="url(#pfdd237e23d)" style="fill: #7f7f7f; opacity: 0.5"/>
   </g>
   <g id="patch_115">
    <path d="M 303.452526 448.56 
L 305.087007 448.56 
L 305.087007 448.56 
L 303.452526 448.56 
z
" clip-path="url(#pfdd237e23d)" style="fill: #7f7f7f; opacity: 0.5"/>
   </g>
   <g id="patch_116">
    <path d="M 305.495627 448.56 
L 307.130108 448.56 
L 307.130108 422.688 
L 305.495627 422.688 
z
" clip-path="url(#pfdd237e23d)" style="fill: #7f7f7f; opacity: 0.5"/>
   </g>
   <g id="patch_117">
    <path d="M 307.538728 448.56 
L 309.173208 448.56 
L 309.173208 422.688 
L 307.538728 422.688 
z
" clip-path="url(#pfdd237e23d)" style="fill: #7f7f7f; opacity: 0.5"/>
   </g>
   <g id="patch_118">
    <path d="M 309.581829 448.56 
L 311.216309 448.56 
L 311.216309 448.56 
L 309.581829 448.56 
z
" clip-path="url(#pfdd237e23d)" style="fill: #7f7f7f; opacity: 0.5"/>
   </g>
   <g id="patch_119">
    <path d="M 311.624929 448.56 
L 313.25941 448.56 
L 313.25941 448.56 
L 311.624929 448.56 
z
" clip-path="url(#pfdd237e23d)" style="fill: #7f7f7f; opacity: 0.5"/>
   </g>
   <g id="patch_120">
    <path d="M 313.66803 448.56 
L 315.302511 448.56 
L 315.302511 448.56 
L 313.66803 448.56 
z
" clip-path="url(#pfdd237e23d)" style="fill: #7f7f7f; opacity: 0.5"/>
   </g>
   <g id="patch_121">
    <path d="M 315.711131 448.56 
L 317.345611 448.56 
L 317.345611 422.688 
L 315.711131 422.688 
z
" clip-path="url(#pfdd237e23d)" style="fill: #7f7f7f; opacity: 0.5"/>
   </g>
   <g id="patch_122">
    <path d="M 317.754232 448.56 
L 319.388712 448.56 
L 319.388712 448.56 
L 317.754232 448.56 
z
" clip-path="url(#pfdd237e23d)" style="fill: #7f7f7f; opacity: 0.5"/>
   </g>
   <g id="patch_123">
    <path d="M 319.797332 448.56 
L 321.431813 448.56 
L 321.431813 448.56 
L 319.797332 448.56 
z
" clip-path="url(#pfdd237e23d)" style="fill: #7f7f7f; opacity: 0.5"/>
   </g>
   <g id="patch_124">
    <path d="M 321.840433 448.56 
L 323.474914 448.56 
L 323.474914 448.56 
L 321.840433 448.56 
z
" clip-path="url(#pfdd237e23d)" style="fill: #7f7f7f; opacity: 0.5"/>
   </g>
   <g id="patch_125">
    <path d="M 323.883534 448.56 
L 325.518014 448.56 
L 325.518014 448.56 
L 323.883534 448.56 
z
" clip-path="url(#pfdd237e23d)" style="fill: #7f7f7f; opacity: 0.5"/>
   </g>
   <g id="patch_126">
    <path d="M 325.926635 448.56 
L 327.561115 448.56 
L 327.561115 448.56 
L 325.926635 448.56 
z
" clip-path="url(#pfdd237e23d)" style="fill: #7f7f7f; opacity: 0.5"/>
   </g>
   <g id="patch_127">
    <path d="M 327.969735 448.56 
L 329.604216 448.56 
L 329.604216 448.56 
L 327.969735 448.56 
z
" clip-path="url(#pfdd237e23d)" style="fill: #7f7f7f; opacity: 0.5"/>
   </g>
   <g id="patch_128">
    <path d="M 330.012836 448.56 
L 331.647317 448.56 
L 331.647317 448.56 
L 330.012836 448.56 
z
" clip-path="url(#pfdd237e23d)" style="fill: #7f7f7f; opacity: 0.5"/>
   </g>
   <g id="patch_129">
    <path d="M 332.055937 448.56 
L 333.690417 448.56 
L 333.690417 448.56 
L 332.055937 448.56 
z
" clip-path="url(#pfdd237e23d)" style="fill: #7f7f7f; opacity: 0.5"/>
   </g>
   <g id="patch_130">
    <path d="M 334.099038 448.56 
L 335.733518 448.56 
L 335.733518 448.56 
L 334.099038 448.56 
z
" clip-path="url(#pfdd237e23d)" style="fill: #7f7f7f; opacity: 0.5"/>
   </g>
   <g id="patch_131">
    <path d="M 336.142138 448.56 
L 337.776619 448.56 
L 337.776619 422.688 
L 336.142138 422.688 
z
" clip-path="url(#pfdd237e23d)" style="fill: #7f7f7f; opacity: 0.5"/>
   </g>
   <g id="patch_132">
    <path d="M 338.185239 448.56 
L 339.81972 448.56 
L 339.81972 448.56 
L 338.185239 448.56 
z
" clip-path="url(#pfdd237e23d)" style="fill: #7f7f7f; opacity: 0.5"/>
   </g>
   <g id="patch_133">
    <path d="M 340.22834 448.56 
L 341.86282 448.56 
L 341.86282 448.56 
L 340.22834 448.56 
z
" clip-path="url(#pfdd237e23d)" style="fill: #7f7f7f; opacity: 0.5"/>
   </g>
   <g id="patch_134">
    <path d="M 342.271441 448.56 
L 343.905921 448.56 
L 343.905921 448.56 
L 342.271441 448.56 
z
" clip-path="url(#pfdd237e23d)" style="fill: #7f7f7f; opacity: 0.5"/>
   </g>
   <g id="patch_135">
    <path d="M 344.314541 448.56 
L 345.949022 448.56 
L 345.949022 448.56 
L 344.314541 448.56 
z
" clip-path="url(#pfdd237e23d)" style="fill: #7f7f7f; opacity: 0.5"/>
   </g>
   <g id="patch_136">
    <path d="M 346.357642 448.56 
L 347.992123 448.56 
L 347.992123 448.56 
L 346.357642 448.56 
z
" clip-path="url(#pfdd237e23d)" style="fill: #7f7f7f; opacity: 0.5"/>
   </g>
   <g id="patch_137">
    <path d="M 348.400743 448.56 
L 350.035223 448.56 
L 350.035223 448.56 
L 348.400743 448.56 
z
" clip-path="url(#pfdd237e23d)" style="fill: #7f7f7f; opacity: 0.5"/>
   </g>
   <g id="patch_138">
    <path d="M 350.443843 448.56 
L 352.078324 448.56 
L 352.078324 422.688 
L 350.443843 422.688 
z
" clip-path="url(#pfdd237e23d)" style="fill: #7f7f7f; opacity: 0.5"/>
   </g>
   <g id="patch_139">
    <path d="M 352.486944 448.56 
L 354.121425 448.56 
L 354.121425 448.56 
L 352.486944 448.56 
z
" clip-path="url(#pfdd237e23d)" style="fill: #7f7f7f; opacity: 0.5"/>
   </g>
   <g id="patch_140">
    <path d="M 354.530045 448.56 
L 356.164526 448.56 
L 356.164526 448.56 
L 354.530045 448.56 
z
" clip-path="url(#pfdd237e23d)" style="fill: #7f7f7f; opacity: 0.5"/>
   </g>
   <g id="patch_141">
    <path d="M 356.573146 448.56 
L 358.207626 448.56 
L 358.207626 448.56 
L 356.573146 448.56 
z
" clip-path="url(#pfdd237e23d)" style="fill: #7f7f7f; opacity: 0.5"/>
   </g>
   <g id="patch_142">
    <path d="M 358.616246 448.56 
L 360.250727 448.56 
L 360.250727 448.56 
L 358.616246 448.56 
z
" clip-path="url(#pfdd237e23d)" style="fill: #7f7f7f; opacity: 0.5"/>
   </g>
   <g id="patch_143">
    <path d="M 360.659347 448.56 
L 362.293828 448.56 
L 362.293828 448.56 
L 360.659347 448.56 
z
" clip-path="url(#pfdd237e23d)" style="fill: #7f7f7f; opacity: 0.5"/>
   </g>
   <g id="patch_144">
    <path d="M 362.702448 448.56 
L 364.336929 448.56 
L 364.336929 448.56 
L 362.702448 448.56 
z
" clip-path="url(#pfdd237e23d)" style="fill: #7f7f7f; opacity: 0.5"/>
   </g>
   <g id="patch_145">
    <path d="M 364.745549 448.56 
L 366.380029 448.56 
L 366.380029 448.56 
L 364.745549 448.56 
z
" clip-path="url(#pfdd237e23d)" style="fill: #7f7f7f; opacity: 0.5"/>
   </g>
   <g id="patch_146">
    <path d="M 366.788649 448.56 
L 368.42313 448.56 
L 368.42313 448.56 
L 366.788649 448.56 
z
" clip-path="url(#pfdd237e23d)" style="fill: #7f7f7f; opacity: 0.5"/>
   </g>
   <g id="patch_147">
    <path d="M 368.83175 448.56 
L 370.466231 448.56 
L 370.466231 448.56 
L 368.83175 448.56 
z
" clip-path="url(#pfdd237e23d)" style="fill: #7f7f7f; opacity: 0.5"/>
   </g>
   <g id="patch_148">
    <path d="M 370.874851 448.56 
L 372.509332 448.56 
L 372.509332 448.56 
L 370.874851 448.56 
z
" clip-path="url(#pfdd237e23d)" style="fill: #7f7f7f; opacity: 0.5"/>
   </g>
   <g id="patch_149">
    <path d="M 372.917952 448.56 
L 374.552432 448.56 
L 374.552432 448.56 
L 372.917952 448.56 
z
" clip-path="url(#pfdd237e23d)" style="fill: #7f7f7f; opacity: 0.5"/>
   </g>
   <g id="patch_150">
    <path d="M 374.961052 448.56 
L 376.595533 448.56 
L 376.595533 448.56 
L 374.961052 448.56 
z
" clip-path="url(#pfdd237e23d)" style="fill: #7f7f7f; opacity: 0.5"/>
   </g>
   <g id="patch_151">
    <path d="M 377.004153 448.56 
L 378.638634 448.56 
L 378.638634 448.56 
L 377.004153 448.56 
z
" clip-path="url(#pfdd237e23d)" style="fill: #7f7f7f; opacity: 0.5"/>
   </g>
   <g id="patch_152">
    <path d="M 379.047254 448.56 
L 380.681734 448.56 
L 380.681734 448.56 
L 379.047254 448.56 
z
" clip-path="url(#pfdd237e23d)" style="fill: #7f7f7f; opacity: 0.5"/>
   </g>
   <g id="patch_153">
    <path d="M 381.090355 448.56 
L 382.724835 448.56 
L 382.724835 448.56 
L 381.090355 448.56 
z
" clip-path="url(#pfdd237e23d)" style="fill: #7f7f7f; opacity: 0.5"/>
   </g>
   <g id="patch_154">
    <path d="M 383.133455 448.56 
L 384.767936 448.56 
L 384.767936 448.56 
L 383.133455 448.56 
z
" clip-path="url(#pfdd237e23d)" style="fill: #7f7f7f; opacity: 0.5"/>
   </g>
   <g id="patch_155">
    <path d="M 385.176556 448.56 
L 386.811037 448.56 
L 386.811037 448.56 
L 385.176556 448.56 
z
" clip-path="url(#pfdd237e23d)" style="fill: #7f7f7f; opacity: 0.5"/>
   </g>
   <g id="patch_156">
    <path d="M 387.219657 448.56 
L 388.854137 448.56 
L 388.854137 448.56 
L 387.219657 448.56 
z
" clip-path="url(#pfdd237e23d)" style="fill: #7f7f7f; opacity: 0.5"/>
   </g>
   <g id="patch_157">
    <path d="M 389.262758 448.56 
L 390.897238 448.56 
L 390.897238 448.56 
L 389.262758 448.56 
z
" clip-path="url(#pfdd237e23d)" style="fill: #7f7f7f; opacity: 0.5"/>
   </g>
   <g id="patch_158">
    <path d="M 391.305858 448.56 
L 392.940339 448.56 
L 392.940339 448.56 
L 391.305858 448.56 
z
" clip-path="url(#pfdd237e23d)" style="fill: #7f7f7f; opacity: 0.5"/>
   </g>
   <g id="patch_159">
    <path d="M 393.348959 448.56 
L 394.98344 448.56 
L 394.98344 448.56 
L 393.348959 448.56 
z
" clip-path="url(#pfdd237e23d)" style="fill: #7f7f7f; opacity: 0.5"/>
   </g>
   <g id="patch_160">
    <path d="M 395.39206 448.56 
L 397.02654 448.56 
L 397.02654 448.56 
L 395.39206 448.56 
z
" clip-path="url(#pfdd237e23d)" style="fill: #7f7f7f; opacity: 0.5"/>
   </g>
   <g id="patch_161">
    <path d="M 397.435161 448.56 
L 399.069641 448.56 
L 399.069641 448.56 
L 397.435161 448.56 
z
" clip-path="url(#pfdd237e23d)" style="fill: #7f7f7f; opacity: 0.5"/>
   </g>
   <g id="patch_162">
    <path d="M 399.478261 448.56 
L 401.112742 448.56 
L 401.112742 448.56 
L 399.478261 448.56 
z
" clip-path="url(#pfdd237e23d)" style="fill: #7f7f7f; opacity: 0.5"/>
   </g>
   <g id="patch_163">
    <path d="M 401.521362 448.56 
L 403.155843 448.56 
L 403.155843 448.56 
L 401.521362 448.56 
z
" clip-path="url(#pfdd237e23d)" style="fill: #7f7f7f; opacity: 0.5"/>
   </g>
   <g id="patch_164">
    <path d="M 403.564463 448.56 
L 405.198943 448.56 
L 405.198943 448.56 
L 403.564463 448.56 
z
" clip-path="url(#pfdd237e23d)" style="fill: #7f7f7f; opacity: 0.5"/>
   </g>
   <g id="patch_165">
    <path d="M 405.607564 448.56 
L 407.242044 448.56 
L 407.242044 448.56 
L 405.607564 448.56 
z
" clip-path="url(#pfdd237e23d)" style="fill: #7f7f7f; opacity: 0.5"/>
   </g>
   <g id="patch_166">
    <path d="M 407.650664 448.56 
L 409.285145 448.56 
L 409.285145 448.56 
L 407.650664 448.56 
z
" clip-path="url(#pfdd237e23d)" style="fill: #7f7f7f; opacity: 0.5"/>
   </g>
   <g id="patch_167">
    <path d="M 409.693765 448.56 
L 411.328246 448.56 
L 411.328246 448.56 
L 409.693765 448.56 
z
" clip-path="url(#pfdd237e23d)" style="fill: #7f7f7f; opacity: 0.5"/>
   </g>
   <g id="patch_168">
    <path d="M 411.736866 448.56 
L 413.371346 448.56 
L 413.371346 448.56 
L 411.736866 448.56 
z
" clip-path="url(#pfdd237e23d)" style="fill: #7f7f7f; opacity: 0.5"/>
   </g>
   <g id="patch_169">
    <path d="M 413.779967 448.56 
L 415.414447 448.56 
L 415.414447 448.56 
L 413.779967 448.56 
z
" clip-path="url(#pfdd237e23d)" style="fill: #7f7f7f; opacity: 0.5"/>
   </g>
   <g id="patch_170">
    <path d="M 415.823067 448.56 
L 417.457548 448.56 
L 417.457548 448.56 
L 415.823067 448.56 
z
" clip-path="url(#pfdd237e23d)" style="fill: #7f7f7f; opacity: 0.5"/>
   </g>
   <g id="patch_171">
    <path d="M 417.866168 448.56 
L 419.500649 448.56 
L 419.500649 448.56 
L 417.866168 448.56 
z
" clip-path="url(#pfdd237e23d)" style="fill: #7f7f7f; opacity: 0.5"/>
   </g>
   <g id="patch_172">
    <path d="M 419.909269 448.56 
L 421.543749 448.56 
L 421.543749 448.56 
L 419.909269 448.56 
z
" clip-path="url(#pfdd237e23d)" style="fill: #7f7f7f; opacity: 0.5"/>
   </g>
   <g id="patch_173">
    <path d="M 421.952369 448.56 
L 423.58685 448.56 
L 423.58685 448.56 
L 421.952369 448.56 
z
" clip-path="url(#pfdd237e23d)" style="fill: #7f7f7f; opacity: 0.5"/>
   </g>
   <g id="patch_174">
    <path d="M 423.99547 448.56 
L 425.629951 448.56 
L 425.629951 448.56 
L 423.99547 448.56 
z
" clip-path="url(#pfdd237e23d)" style="fill: #7f7f7f; opacity: 0.5"/>
   </g>
   <g id="patch_175">
    <path d="M 426.038571 448.56 
L 427.673052 448.56 
L 427.673052 448.56 
L 426.038571 448.56 
z
" clip-path="url(#pfdd237e23d)" style="fill: #7f7f7f; opacity: 0.5"/>
   </g>
   <g id="patch_176">
    <path d="M 428.081672 448.56 
L 429.716152 448.56 
L 429.716152 448.56 
L 428.081672 448.56 
z
" clip-path="url(#pfdd237e23d)" style="fill: #7f7f7f; opacity: 0.5"/>
   </g>
   <g id="patch_177">
    <path d="M 430.124772 448.56 
L 431.759253 448.56 
L 431.759253 448.56 
L 430.124772 448.56 
z
" clip-path="url(#pfdd237e23d)" style="fill: #7f7f7f; opacity: 0.5"/>
   </g>
   <g id="patch_178">
    <path d="M 432.167873 448.56 
L 433.802354 448.56 
L 433.802354 448.56 
L 432.167873 448.56 
z
" clip-path="url(#pfdd237e23d)" style="fill: #7f7f7f; opacity: 0.5"/>
   </g>
   <g id="patch_179">
    <path d="M 434.210974 448.56 
L 435.845455 448.56 
L 435.845455 448.56 
L 434.210974 448.56 
z
" clip-path="url(#pfdd237e23d)" style="fill: #7f7f7f; opacity: 0.5"/>
   </g>
   <g id="matplotlib.axis_3">
    <g id="ytick_7">
     <g id="line2d_17">
      <defs>
       <path id="m2751359bb0" d="M 0 0 
L 3.5 0 
" style="stroke: #7f7f7f; stroke-width: 0.8"/>
      </defs>
      <g>
       <use xlink:href="#m2751359bb0" x="453.6" y="448.56" style="fill: #7f7f7f; stroke: #7f7f7f; stroke-width: 0.8"/>
      </g>
     </g>
     <g id="text_16">
      <text style="font-size: 16px; font-family: 'Arial', sans-serif; text-anchor: start; fill: #7f7f7f" x="460.6" y="454.28625" transform="rotate(-0 460.6 454.28625)">0</text>
     </g>
    </g>
    <g id="ytick_8">
     <g id="line2d_18">
      <g>
       <use xlink:href="#m2751359bb0" x="453.6" y="396.816" style="fill: #7f7f7f; stroke: #7f7f7f; stroke-width: 0.8"/>
      </g>
     </g>
     <g id="text_17">
      <text style="font-size: 16px; font-family: 'Arial', sans-serif; text-anchor: start; fill: #7f7f7f" x="460.6" y="402.54225" transform="rotate(-0 460.6 402.54225)">2</text>
     </g>
    </g>
    <g id="ytick_9">
     <g id="line2d_19">
      <g>
       <use xlink:href="#m2751359bb0" x="453.6" y="345.072" style="fill: #7f7f7f; stroke: #7f7f7f; stroke-width: 0.8"/>
      </g>
     </g>
     <g id="text_18">
      <text style="font-size: 16px; font-family: 'Arial', sans-serif; text-anchor: start; fill: #7f7f7f" x="460.6" y="350.79825" transform="rotate(-0 460.6 350.79825)">4</text>
     </g>
    </g>
    <g id="ytick_10">
     <g id="line2d_20">
      <g>
       <use xlink:href="#m2751359bb0" x="453.6" y="293.328" style="fill: #7f7f7f; stroke: #7f7f7f; stroke-width: 0.8"/>
      </g>
     </g>
     <g id="text_19">
      <text style="font-size: 16px; font-family: 'Arial', sans-serif; text-anchor: start; fill: #7f7f7f" x="460.6" y="299.05425" transform="rotate(-0 460.6 299.05425)">6</text>
     </g>
    </g>
    <g id="ytick_11">
     <g id="line2d_21">
      <g>
       <use xlink:href="#m2751359bb0" x="453.6" y="241.584" style="fill: #7f7f7f; stroke: #7f7f7f; stroke-width: 0.8"/>
      </g>
     </g>
     <g id="text_20">
      <text style="font-size: 16px; font-family: 'Arial', sans-serif; text-anchor: start; fill: #7f7f7f" x="460.6" y="247.31025" transform="rotate(-0 460.6 247.31025)">8</text>
     </g>
    </g>
    <g id="ytick_12">
     <g id="line2d_22">
      <g>
       <use xlink:href="#m2751359bb0" x="453.6" y="189.84" style="fill: #7f7f7f; stroke: #7f7f7f; stroke-width: 0.8"/>
      </g>
     </g>
     <g id="text_21">
      <text style="font-size: 16px; font-family: 'Arial', sans-serif; text-anchor: start; fill: #7f7f7f" x="460.6" y="195.56625" transform="rotate(-0 460.6 195.56625)">10</text>
     </g>
    </g>
    <g id="ytick_13">
     <g id="line2d_23">
      <g>
       <use xlink:href="#m2751359bb0" x="453.6" y="138.096" style="fill: #7f7f7f; stroke: #7f7f7f; stroke-width: 0.8"/>
      </g>
     </g>
     <g id="text_22">
      <text style="font-size: 16px; font-family: 'Arial', sans-serif; text-anchor: start; fill: #7f7f7f" x="460.6" y="143.82225" transform="rotate(-0 460.6 143.82225)">12</text>
     </g>
    </g>
    <g id="ytick_14">
     <g id="line2d_24">
      <g>
       <use xlink:href="#m2751359bb0" x="453.6" y="86.352" style="fill: #7f7f7f; stroke: #7f7f7f; stroke-width: 0.8"/>
      </g>
     </g>
     <g id="text_23">
      <text style="font-size: 16px; font-family: 'Arial', sans-serif; text-anchor: start; fill: #7f7f7f" x="460.6" y="92.07825" transform="rotate(-0 460.6 92.07825)">14</text>
     </g>
    </g>
    <g id="text_24">
     <text style="font-size: 16px; font-family: 'Arial', sans-serif; text-anchor: middle; fill: #7f7f7f" x="493.8475" y="254.52" transform="rotate(-90 493.8475 254.52)">Number of cases</text>
    </g>
   </g>
   <g id="patch_180">
    <path d="M 453.6 448.56 
L 453.6 60.48 
" style="fill: none; stroke: #7f7f7f; stroke-width: 0.8; stroke-linejoin: miter; stroke-linecap: square"/>
   </g>
  </g>
 </g>
 <defs>
  <clipPath id="pfdd237e23d">
   <rect x="63" y="60.48" width="390.6" height="388.08"/>
  </clipPath>
 </defs>
</svg>
