<?xml version="1.0" encoding="utf-8" standalone="no"?>
<!DOCTYPE svg PUBLIC "-//W3C//DTD SVG 1.1//EN"
  "http://www.w3.org/Graphics/SVG/1.1/DTD/svg11.dtd">
<svg xmlns:xlink="http://www.w3.org/1999/xlink" width="504pt" height="504pt" viewBox="0 0 504 504" xmlns="http://www.w3.org/2000/svg" version="1.1">
 <metadata>
  <rdf:RDF xmlns:dc="http://purl.org/dc/elements/1.1/" xmlns:cc="http://creativecommons.org/ns#" xmlns:rdf="http://www.w3.org/1999/02/22-rdf-syntax-ns#">
   <cc:Work>
    <dc:type rdf:resource="http://purl.org/dc/dcmitype/StillImage"/>
    <dc:date>2026-02-13T14:45:37.407504</dc:date>
    <dc:format>image/svg+xml</dc:format>
    <dc:creator>
     <cc:Agent>
      <dc:title>Matplotlib v3.10.8, https://matplotlib.org/</dc:title>
     </cc:Agent>
    </dc:creator>
   </cc:Work>
  </rdf:RDF>
 </metadata>
 <defs>
  <style type="text/css">*{stroke-linejoin: round; stroke-linecap: butt}</style>
 </defs>
 <g id="figure_1">
  <g id="patch_1">
   <path d="M 0 504 
L 504 504 
L 504 0 
L 0 0 
L 0 504 
z
" style="fill: none"/>
  </g>
  <g id="axes_1">
   <g id="patch_2">
    <path d="M 63 448.56 
L 453.6 448.56 
L 453.6 60.48 
L 63 60.48 
L 63 448.56 
z
" style="fill: none"/>
   </g>
   <g id="FillBetweenPolyCollection_1">
    <path d="M 81.571786 203.593898 
L 81.571786 438.731646 
L 83.614886 409.360877 
L 85.657987 306.142169 
L 87.701088 312.743027 
L 89.744189 336.358042 
L 91.787289 355.069261 
L 93.83039 376.789018 
L 95.873491 394.612574 
L 97.916592 413.29254 
L 99.959692 406.489932 
L 102.002793 416.993757 
L 104.045894 423.004876 
L 106.088995 427.323276 
L 108.132095 430.486605 
L 110.175196 433.043923 
L 112.218297 434.530109 
L 114.261398 435.698431 
L 116.304498 437.112538 
L 118.347599 437.820067 
L 120.3907 434.449836 
L 122.433801 435.999242 
L 124.476901 436.097677 
L 126.520002 432.367377 
L 128.563103 434.226353 
L 130.606204 428.885331 
L 132.649304 429.802442 
L 134.692405 425.160243 
L 136.735506 427.0439 
L 138.778607 423.027772 
L 140.821707 414.450553 
L 142.864808 419.882908 
L 144.907909 415.08687 
L 146.95101 411.744102 
L 148.99411 417.164683 
L 151.037211 414.170932 
L 153.080312 420.579182 
L 155.123412 423.958451 
L 157.166513 407.8222 
L 159.209614 399.760411 
L 161.252715 403.36739 
L 163.295815 404.612656 
L 165.338916 406.375558 
L 167.382017 406.407607 
L 169.425118 394.307265 
L 171.468218 406.677858 
L 173.511319 409.902202 
L 175.55442 413.622478 
L 177.597521 398.753997 
L 179.640621 393.364742 
L 181.683722 387.373068 
L 183.726823 391.766456 
L 185.769924 386.408582 
L 187.813024 379.351145 
L 189.856125 346.163611 
L 191.899226 349.084216 
L 193.942327 331.189992 
L 195.985427 346.471675 
L 198.028528 363.644785 
L 200.071629 370.92685 
L 202.11473 372.077892 
L 204.15783 393.879443 
L 206.200931 410.454273 
L 208.244032 401.052515 
L 210.287133 413.429102 
L 212.330233 417.311504 
L 214.373334 424.067112 
L 216.416435 412.818927 
L 218.459536 407.468981 
L 220.502636 403.899356 
L 222.545737 403.890334 
L 224.588838 398.179015 
L 226.631938 386.485876 
L 228.675039 376.330754 
L 230.71814 388.10472 
L 232.761241 380.83668 
L 234.804341 404.933243 
L 236.847442 386.647206 
L 238.890543 388.369482 
L 240.933644 405.707038 
L 242.976744 416.548373 
L 245.019845 425.316443 
L 247.062946 428.518735 
L 249.106047 426.905005 
L 251.149147 416.18888 
L 253.192248 420.769794 
L 255.235349 420.570635 
L 257.27845 426.008853 
L 259.32155 427.555796 
L 261.364651 430.866161 
L 263.407752 433.862723 
L 265.450853 436.050636 
L 267.493953 439.007023 
L 269.537054 440.378761 
L 271.580155 440.405521 
L 273.623256 439.672947 
L 275.666356 440.794225 
L 277.709457 439.394827 
L 279.752558 438.98484 
L 281.795659 441.062441 
L 283.838759 442.069273 
L 285.88186 442.558289 
L 287.924961 441.320191 
L 289.968062 441.072867 
L 292.011162 441.817514 
L 294.054263 441.594505 
L 296.097364 442.593779 
L 298.140464 441.741367 
L 300.183565 442.620806 
L 302.226666 443.089335 
L 304.269767 443.595122 
L 306.312867 442.591927 
L 308.355968 442.016042 
L 310.399069 442.179956 
L 312.44217 442.625228 
L 314.48527 442.636512 
L 316.528371 441.851824 
L 318.571472 442.235946 
L 320.614573 442.292668 
L 322.657673 442.933201 
L 324.700774 443.138981 
L 326.743875 443.37944 
L 328.786976 443.365502 
L 330.830076 443.495829 
L 332.873177 443.676127 
L 334.916278 443.886256 
L 336.959379 442.166892 
L 339.002479 442.022921 
L 341.04558 442.468578 
L 343.088681 442.254948 
L 345.131782 442.803026 
L 347.174882 442.814888 
L 349.217983 443.100525 
L 351.261084 440.321925 
L 353.304185 440.851355 
L 355.347285 440.413148 
L 357.390386 440.834226 
L 359.433487 441.282115 
L 361.476588 441.310411 
L 363.519688 441.338838 
L 365.562789 441.355436 
L 367.60589 442.207189 
L 369.64899 441.964954 
L 371.692091 441.945677 
L 373.735192 442.054276 
L 375.778293 442.007834 
L 377.821393 442.203007 
L 379.864494 442.072086 
L 381.907595 442.352521 
L 383.950696 442.075146 
L 385.993796 442.581678 
L 388.036897 442.228934 
L 390.079998 442.216558 
L 392.123099 442.311672 
L 394.166199 442.222771 
L 396.2093 442.486705 
L 398.252401 442.101249 
L 400.295502 442.201298 
L 402.338602 442.495241 
L 404.381703 442.587321 
L 406.424804 442.174678 
L 408.467905 442.116484 
L 410.511005 442.054867 
L 412.554106 442.15537 
L 414.597207 441.891685 
L 416.640308 442.026158 
L 418.683408 441.801216 
L 420.726509 441.428461 
L 422.76961 442.113959 
L 424.812711 441.947312 
L 426.855811 441.830923 
L 428.898912 441.546796 
L 430.942013 441.979232 
L 432.985114 441.86745 
L 435.028214 441.704934 
L 435.028214 290.39264 
L 435.028214 290.39264 
L 432.985114 308.465977 
L 430.942013 307.263878 
L 428.898912 310.762579 
L 426.855811 319.914199 
L 424.812711 307.771017 
L 422.76961 313.543929 
L 420.726509 321.460302 
L 418.683408 327.616214 
L 416.640308 322.025746 
L 414.597207 325.987567 
L 412.554106 327.763278 
L 410.511005 342.587573 
L 408.467905 342.662721 
L 406.424804 339.470486 
L 404.381703 341.904343 
L 402.338602 348.872802 
L 400.295502 348.483256 
L 398.252401 355.245629 
L 396.2093 354.648924 
L 394.166199 359.920746 
L 392.123099 360.771008 
L 390.079998 362.861657 
L 388.036897 362.786019 
L 385.993796 365.475382 
L 383.950696 370.081955 
L 381.907595 369.15135 
L 379.864494 370.997893 
L 377.821393 370.120971 
L 375.778293 370.22539 
L 373.735192 369.760889 
L 371.692091 369.347556 
L 369.64899 367.939954 
L 367.60589 365.389337 
L 365.562789 367.87479 
L 363.519688 363.141969 
L 361.476588 360.915358 
L 359.433487 365.56824 
L 357.390386 366.81689 
L 355.347285 365.936762 
L 353.304185 367.729101 
L 351.261084 362.4019 
L 349.217983 387.539308 
L 347.174882 386.982037 
L 345.131782 392.698107 
L 343.088681 391.216971 
L 341.04558 394.407167 
L 339.002479 392.396323 
L 336.959379 391.161432 
L 334.916278 404.88184 
L 332.873177 407.538513 
L 330.830076 404.500482 
L 328.786976 407.246096 
L 326.743875 407.228786 
L 324.700774 408.363085 
L 322.657673 406.37739 
L 320.614573 405.26896 
L 318.571472 405.403912 
L 316.528371 404.830774 
L 314.48527 413.624907 
L 312.44217 410.391305 
L 310.399069 410.438948 
L 308.355968 409.545266 
L 306.312867 415.197169 
L 304.269767 419.776305 
L 302.226666 419.594055 
L 300.183565 418.775597 
L 298.140464 415.821703 
L 296.097364 418.842476 
L 294.054263 416.699242 
L 292.011162 419.546343 
L 289.968062 416.135843 
L 287.924961 417.210697 
L 285.88186 422.775539 
L 283.838759 423.289826 
L 281.795659 420.476237 
L 279.752558 416.192555 
L 277.709457 416.726159 
L 275.666356 420.471728 
L 273.623256 418.15157 
L 271.580155 421.703841 
L 269.537054 422.102614 
L 267.493953 418.921967 
L 265.450853 411.151141 
L 263.407752 408.089671 
L 261.364651 401.028062 
L 259.32155 395.64983 
L 257.27845 392.078389 
L 255.235349 381.286217 
L 253.192248 382.02228 
L 251.149147 371.589629 
L 249.106047 392.09883 
L 247.062946 396.146955 
L 245.019845 390.715141 
L 242.976744 371.464234 
L 240.933644 348.380425 
L 238.890543 317.13574 
L 236.847442 310.522066 
L 234.804341 344.302384 
L 232.761241 296.277277 
L 230.71814 310.369859 
L 228.675039 288.257463 
L 226.631938 300.735789 
L 224.588838 328.348075 
L 222.545737 339.228802 
L 220.502636 337.608404 
L 218.459536 344.653092 
L 216.416435 353.372933 
L 214.373334 377.521804 
L 212.330233 361.390018 
L 210.287133 354.615476 
L 208.244032 325.205239 
L 206.200931 344.2379 
L 204.15783 303.380442 
L 202.11473 250.986048 
L 200.071629 248.365563 
L 198.028528 224.577278 
L 195.985427 182.680802 
L 193.942327 143.892145 
L 191.899226 176.844857 
L 189.856125 169.122575 
L 187.813024 233.262975 
L 185.769924 246.687579 
L 183.726823 262.220472 
L 181.683722 243.499647 
L 179.640621 244.974668 
L 177.597521 258.474064 
L 175.55442 296.449074 
L 173.511319 287.954286 
L 171.468218 268.54427 
L 169.425118 234.080513 
L 167.382017 263.253525 
L 165.338916 256.434839 
L 163.295815 248.082882 
L 161.252715 245.167524 
L 159.209614 222.990558 
L 157.166513 246.557982 
L 155.123412 300.370087 
L 153.080312 273.465197 
L 151.037211 247.082905 
L 148.99411 252.102421 
L 146.95101 230.277598 
L 144.907909 219.126451 
L 142.864808 246.083892 
L 140.821707 218.852746 
L 138.778607 249.87849 
L 136.735506 273.999145 
L 134.692405 271.873586 
L 132.649304 300.213031 
L 130.606204 297.688233 
L 128.563103 334.939228 
L 126.520002 335.835324 
L 124.476901 356.034721 
L 122.433801 352.745869 
L 120.3907 348.853768 
L 118.347599 369.889113 
L 116.304498 362.689636 
L 114.261398 360.667067 
L 112.218297 354.392067 
L 110.175196 347.523531 
L 108.132095 329.890937 
L 106.088995 311.36878 
L 104.045894 279.54284 
L 102.002793 250.849852 
L 99.959692 162.324551 
L 97.916592 116.181544 
L 95.873491 -52.932998 
L 93.83039 -381.313488 
L 91.787289 -808.36965 
L 89.744189 -1861.960135 
L 87.701088 -2500.262413 
L 85.657987 -2908.119534 
L 83.614886 -454.576285 
L 81.571786 203.593898 
z
" clip-path="url(#p9d830e6c23)" style="fill: #0173b2; fill-opacity: 0.3; stroke: #0173b2; stroke-opacity: 0.3"/>
   </g>
   <g id="FillBetweenPolyCollection_2">
    <path d="M 81.571786 222.7593 
L 81.571786 440.178507 
L 83.614886 416.336821 
L 85.657987 324.069404 
L 87.701088 321.807504 
L 89.744189 346.996467 
L 91.787289 357.601025 
L 93.83039 379.570389 
L 95.873491 393.287315 
L 97.916592 411.09674 
L 99.959692 408.285086 
L 102.002793 419.047899 
L 104.045894 424.170837 
L 106.088995 427.640064 
L 108.132095 431.474711 
L 110.175196 433.160731 
L 112.218297 434.474088 
L 114.261398 436.148961 
L 116.304498 436.668904 
L 118.347599 438.078779 
L 120.3907 434.686069 
L 122.433801 435.505936 
L 124.476901 435.876697 
L 126.520002 432.579816 
L 128.563103 434.314012 
L 130.606204 429.520852 
L 132.649304 430.782138 
L 134.692405 425.227059 
L 136.735506 427.269234 
L 138.778607 422.192952 
L 140.821707 417.908572 
L 142.864808 420.886173 
L 144.907909 417.747923 
L 146.95101 412.432708 
L 148.99411 417.367417 
L 151.037211 415.257572 
L 153.080312 420.146474 
L 155.123412 424.530964 
L 157.166513 407.635051 
L 159.209614 400.339442 
L 161.252715 403.534731 
L 163.295815 403.267661 
L 165.338916 407.721956 
L 167.382017 406.986396 
L 169.425118 396.935977 
L 171.468218 406.186098 
L 173.511319 409.702112 
L 175.55442 411.006805 
L 177.597521 397.412522 
L 179.640621 392.674846 
L 181.683722 388.310308 
L 183.726823 394.163004 
L 185.769924 383.963155 
L 187.813024 380.348821 
L 189.856125 344.267354 
L 191.899226 350.250498 
L 193.942327 331.543205 
L 195.985427 345.882988 
L 198.028528 364.323485 
L 200.071629 371.480634 
L 202.11473 370.563908 
L 204.15783 394.681708 
L 206.200931 411.02456 
L 208.244032 401.738216 
L 210.287133 414.852275 
L 212.330233 417.180118 
L 214.373334 423.731996 
L 216.416435 412.854819 
L 218.459536 408.883726 
L 220.502636 405.336647 
L 222.545737 405.414852 
L 224.588838 400.155464 
L 226.631938 388.238908 
L 228.675039 380.129649 
L 230.71814 391.659263 
L 232.761241 384.030974 
L 234.804341 408.246188 
L 236.847442 390.855998 
L 238.890543 392.118514 
L 240.933644 408.210353 
L 242.976744 418.902714 
L 245.019845 428.174897 
L 247.062946 431.499595 
L 249.106047 429.648346 
L 251.149147 419.917067 
L 253.192248 424.566228 
L 255.235349 424.231285 
L 257.27845 429.633467 
L 259.32155 431.206711 
L 261.364651 434.913225 
L 263.407752 437.538845 
L 265.450853 439.7478 
L 267.493953 442.699543 
L 269.537054 443.869949 
L 271.580155 444.082131 
L 273.623256 443.494215 
L 275.666356 444.335631 
L 277.709457 443.729664 
L 279.752558 443.745805 
L 281.795659 445.587382 
L 283.838759 447.387862 
L 285.88186 446.639977 
L 287.924961 445.833995 
L 289.968062 445.841678 
L 292.011162 447.183374 
L 294.054263 446.474478 
L 296.097364 447.699151 
L 298.140464 446.763358 
L 300.183565 447.827635 
L 302.226666 448.559997 
L 304.269767 448.559999 
L 306.312867 447.352523 
L 308.355968 446.673241 
L 310.399069 447.366817 
L 312.44217 448.170155 
L 314.48527 448.559998 
L 316.528371 446.835946 
L 318.571472 447.455077 
L 320.614573 448.047011 
L 322.657673 448.422159 
L 324.700774 448.559998 
L 326.743875 448.559999 
L 328.786976 448.559999 
L 330.830076 448.559999 
L 332.873177 448.559999 
L 334.916278 448.559999 
L 336.959379 447.159934 
L 339.002479 447.645522 
L 341.04558 448.083258 
L 343.088681 448.368515 
L 345.131782 448.559998 
L 347.174882 448.559998 
L 349.217983 448.559999 
L 351.261084 446.800024 
L 353.304185 447.243059 
L 355.347285 447.738257 
L 357.390386 448.020202 
L 359.433487 448.454498 
L 361.476588 448.559998 
L 363.519688 448.559998 
L 365.562789 448.559999 
L 367.60589 448.559999 
L 369.64899 448.559999 
L 371.692091 448.559999 
L 373.735192 448.559999 
L 375.778293 448.559999 
L 377.821393 448.559999 
L 379.864494 448.559999 
L 381.907595 448.559999 
L 383.950696 448.559999 
L 385.993796 448.56 
L 388.036897 448.56 
L 390.079998 448.56 
L 392.123099 448.56 
L 394.166199 448.56 
L 396.2093 448.56 
L 398.252401 448.56 
L 400.295502 448.56 
L 402.338602 448.56 
L 404.381703 448.56 
L 406.424804 448.56 
L 408.467905 448.56 
L 410.511005 448.56 
L 412.554106 448.56 
L 414.597207 448.56 
L 416.640308 448.56 
L 418.683408 448.56 
L 420.726509 448.56 
L 422.76961 448.56 
L 424.812711 448.56 
L 426.855811 448.56 
L 428.898912 448.56 
L 430.942013 448.56 
L 432.985114 448.56 
L 435.028214 448.56 
L 435.028214 432.9766 
L 435.028214 432.9766 
L 432.985114 431.488461 
L 430.942013 432.24427 
L 428.898912 432.044428 
L 426.855811 432.127964 
L 424.812711 430.720258 
L 422.76961 431.405745 
L 420.726509 431.842118 
L 418.683408 431.040646 
L 416.640308 431.799459 
L 414.597207 431.400537 
L 412.554106 429.397972 
L 410.511005 429.135508 
L 408.467905 430.996842 
L 406.424804 431.494369 
L 404.381703 429.67049 
L 402.338602 428.038499 
L 400.295502 427.64033 
L 398.252401 430.098552 
L 396.2093 428.50821 
L 394.166199 427.836126 
L 392.123099 428.163325 
L 390.079998 429.195893 
L 388.036897 428.916369 
L 385.993796 426.539692 
L 383.950696 426.529833 
L 381.907595 426.002587 
L 379.864494 425.270133 
L 377.821393 425.434763 
L 375.778293 425.97813 
L 373.735192 425.260626 
L 371.692091 422.386201 
L 369.64899 422.12799 
L 367.60589 422.25467 
L 365.562789 419.299608 
L 363.519688 418.995767 
L 361.476588 416.853203 
L 359.433487 416.740838 
L 357.390386 413.240895 
L 355.347285 415.02963 
L 353.304185 410.911191 
L 351.261084 408.798461 
L 349.217983 425.843362 
L 347.174882 425.053779 
L 345.131782 425.552904 
L 343.088681 423.792099 
L 341.04558 423.8807 
L 339.002479 424.282667 
L 336.959379 422.091736 
L 334.916278 432.725333 
L 332.873177 430.920339 
L 330.830076 431.96644 
L 328.786976 430.420815 
L 326.743875 430.453654 
L 324.700774 429.989415 
L 322.657673 428.001709 
L 320.614573 428.630478 
L 318.571472 427.430438 
L 316.528371 425.611434 
L 314.48527 431.53493 
L 312.44217 431.061773 
L 310.399069 429.622837 
L 308.355968 427.527442 
L 306.312867 432.397145 
L 304.269767 436.085898 
L 302.226666 434.786165 
L 300.183565 433.987446 
L 298.140464 431.60155 
L 296.097364 433.937855 
L 294.054263 431.690879 
L 292.011162 433.528161 
L 289.968062 430.67513 
L 287.924961 430.720193 
L 285.88186 434.132873 
L 283.838759 434.455601 
L 281.795659 431.49068 
L 279.752558 426.993789 
L 277.709457 427.6671 
L 275.666356 430.83538 
L 273.623256 427.883158 
L 271.580155 429.917386 
L 269.537054 430.312254 
L 267.493953 427.423016 
L 265.450853 420.260633 
L 263.407752 414.878021 
L 261.364651 409.404544 
L 259.32155 402.74467 
L 257.27845 398.70668 
L 255.235349 390.024625 
L 253.192248 389.612859 
L 251.149147 378.928177 
L 249.106047 398.576145 
L 247.062946 401.160706 
L 245.019845 396.671335 
L 242.976744 377.380578 
L 240.933644 356.814709 
L 238.890543 322.27225 
L 236.847442 317.760967 
L 234.804341 351.056376 
L 232.761241 302.519832 
L 230.71814 318.989884 
L 228.675039 292.294198 
L 226.631938 306.203666 
L 224.588838 332.236763 
L 222.545737 340.939845 
L 220.502636 339.099422 
L 218.459536 346.887719 
L 216.416435 356.620854 
L 214.373334 378.887754 
L 212.330233 363.951757 
L 210.287133 355.033733 
L 208.244032 324.381796 
L 206.200931 342.038788 
L 204.15783 304.963785 
L 202.11473 249.030251 
L 200.071629 252.635015 
L 198.028528 227.255964 
L 195.985427 183.548119 
L 193.942327 147.729815 
L 191.899226 170.995983 
L 189.856125 162.563488 
L 187.813024 231.91446 
L 185.769924 242.910249 
L 183.726823 258.888387 
L 181.683722 244.872244 
L 179.640621 245.435476 
L 177.597521 256.15129 
L 175.55442 296.715697 
L 173.511319 283.725159 
L 171.468218 276.835248 
L 169.425118 224.099055 
L 167.382017 268.235807 
L 165.338916 262.467222 
L 163.295815 252.853205 
L 161.252715 236.881515 
L 159.209614 221.154726 
L 157.166513 250.133559 
L 155.123412 309.886441 
L 153.080312 280.970219 
L 151.037211 257.24569 
L 148.99411 256.058457 
L 146.95101 219.698832 
L 144.907909 226.010425 
L 142.864808 251.744199 
L 140.821707 223.493203 
L 138.778607 247.831686 
L 136.735506 279.64227 
L 134.692405 270.485399 
L 132.649304 301.823386 
L 130.606204 308.057899 
L 128.563103 334.777099 
L 126.520002 329.4466 
L 124.476901 356.605678 
L 122.433801 349.467234 
L 120.3907 347.891383 
L 118.347599 366.557599 
L 116.304498 365.542776 
L 114.261398 359.140349 
L 112.218297 355.723559 
L 110.175196 345.386778 
L 108.132095 333.955888 
L 106.088995 310.111853 
L 104.045894 289.204015 
L 102.002793 232.298326 
L 99.959692 166.17686 
L 97.916592 109.535786 
L 95.873491 -33.427977 
L 93.83039 -337.189548 
L 91.787289 -838.764165 
L 89.744189 -1804.791884 
L 87.701088 -2668.880577 
L 85.657987 -2529.959096 
L 83.614886 -459.08435 
L 81.571786 222.7593 
z
" clip-path="url(#p9d830e6c23)" style="fill: #de8f05; fill-opacity: 0.3; stroke: #de8f05; stroke-opacity: 0.3"/>
   </g>
   <g id="matplotlib.axis_1">
    <g id="xtick_1">
     <g id="line2d_1">
      <defs>
       <path id="me65ced3adf" d="M 0 0 
L 0 3.5 
" style="stroke: #000000; stroke-width: 0.8"/>
      </defs>
      <g>
       <use xlink:href="#me65ced3adf" x="91.787289" y="448.56" style="stroke: #000000; stroke-width: 0.8"/>
      </g>
     </g>
     <g id="text_1">
      <text style="font-size: 16px; font-family: 'Arial', sans-serif; text-anchor: middle" x="91.787289" y="467.0125" transform="rotate(-0 91.787289 467.0125)">1 Jul</text>
     </g>
    </g>
    <g id="xtick_2">
     <g id="line2d_2">
      <g>
       <use xlink:href="#me65ced3adf" x="155.123412" y="448.56" style="stroke: #000000; stroke-width: 0.8"/>
      </g>
     </g>
     <g id="text_2">
      <text style="font-size: 16px; font-family: 'Arial', sans-serif; text-anchor: middle" x="155.123412" y="467.06" transform="rotate(-0 155.123412 467.06)">1 Aug</text>
     </g>
    </g>
    <g id="xtick_3">
     <g id="line2d_3">
      <g>
       <use xlink:href="#me65ced3adf" x="218.459536" y="448.56" style="stroke: #000000; stroke-width: 0.8"/>
      </g>
     </g>
     <g id="text_3">
      <text style="font-size: 16px; font-family: 'Arial', sans-serif; text-anchor: middle" x="218.459536" y="467.2075" transform="rotate(-0 218.459536 467.2075)">1 Sep</text>
     </g>
    </g>
    <g id="xtick_4">
     <g id="line2d_4">
      <g>
       <use xlink:href="#me65ced3adf" x="279.752558" y="448.56" style="stroke: #000000; stroke-width: 0.8"/>
      </g>
     </g>
     <g id="text_4">
      <text style="font-size: 16px; font-family: 'Arial', sans-serif; text-anchor: middle" x="279.752558" y="467.0125" transform="rotate(-0 279.752558 467.0125)">1 Oct</text>
     </g>
    </g>
    <g id="xtick_5">
     <g id="line2d_5">
      <g>
       <use xlink:href="#me65ced3adf" x="343.088681" y="448.56" style="stroke: #000000; stroke-width: 0.8"/>
      </g>
     </g>
     <g id="text_5">
      <text style="font-size: 16px; font-family: 'Arial', sans-serif; text-anchor: middle" x="343.088681" y="467.0125" transform="rotate(-0 343.088681 467.0125)">1 Nov</text>
     </g>
    </g>
    <g id="xtick_6">
     <g id="line2d_6">
      <g>
       <use xlink:href="#me65ced3adf" x="404.381703" y="448.56" style="stroke: #000000; stroke-width: 0.8"/>
      </g>
     </g>
     <g id="text_6">
      <text style="font-size: 16px; font-family: 'Arial', sans-serif; text-anchor: middle" x="404.381703" y="467.0125" transform="rotate(-0 404.381703 467.0125)">1 Dec</text>
     </g>
    </g>
   </g>
   <g id="matplotlib.axis_2">
    <g id="ytick_1">
     <g id="line2d_7">
      <defs>
       <path id="md9b58bed00" d="M 0 0 
L -3.5 0 
" style="stroke: #000000; stroke-width: 0.8"/>
      </defs>
      <g>
       <use xlink:href="#md9b58bed00" x="63" y="448.56" style="stroke: #000000; stroke-width: 0.8"/>
      </g>
     </g>
     <g id="text_7">
      <text style="font-size: 16px; font-family: 'Arial', sans-serif; text-anchor: end" x="56" y="454.28625" transform="rotate(-0 56 454.28625)">0</text>
     </g>
    </g>
    <g id="ytick_2">
     <g id="line2d_8">
      <g>
       <use xlink:href="#md9b58bed00" x="63" y="400.05" style="stroke: #000000; stroke-width: 0.8"/>
      </g>
     </g>
     <g id="text_8">
      <text style="font-size: 16px; font-family: 'Arial', sans-serif; text-anchor: end" x="56" y="405.77625" transform="rotate(-0 56 405.77625)">1</text>
     </g>
    </g>
    <g id="ytick_3">
     <g id="line2d_9">
      <g>
       <use xlink:href="#md9b58bed00" x="63" y="351.54" style="stroke: #000000; stroke-width: 0.8"/>
      </g>
     </g>
     <g id="text_9">
      <text style="font-size: 16px; font-family: 'Arial', sans-serif; text-anchor: end" x="56" y="357.26625" transform="rotate(-0 56 357.26625)">2</text>
     </g>
    </g>
    <g id="ytick_4">
     <g id="line2d_10">
      <g>
       <use xlink:href="#md9b58bed00" x="63" y="303.03" style="stroke: #000000; stroke-width: 0.8"/>
      </g>
     </g>
     <g id="text_10">
      <text style="font-size: 16px; font-family: 'Arial', sans-serif; text-anchor: end" x="56" y="308.75625" transform="rotate(-0 56 308.75625)">3</text>
     </g>
    </g>
    <g id="ytick_5">
     <g id="line2d_11">
      <g>
       <use xlink:href="#md9b58bed00" x="63" y="254.52" style="stroke: #000000; stroke-width: 0.8"/>
      </g>
     </g>
     <g id="text_11">
      <text style="font-size: 16px; font-family: 'Arial', sans-serif; text-anchor: end" x="56" y="260.24625" transform="rotate(-0 56 260.24625)">4</text>
     </g>
    </g>
    <g id="ytick_6">
     <g id="line2d_12">
      <g>
       <use xlink:href="#md9b58bed00" x="63" y="206.01" style="stroke: #000000; stroke-width: 0.8"/>
      </g>
     </g>
     <g id="text_12">
      <text style="font-size: 16px; font-family: 'Arial', sans-serif; text-anchor: end" x="56" y="211.73625" transform="rotate(-0 56 211.73625)">5</text>
     </g>
    </g>
    <g id="ytick_7">
     <g id="line2d_13">
      <g>
       <use xlink:href="#md9b58bed00" x="63" y="157.5" style="stroke: #000000; stroke-width: 0.8"/>
      </g>
     </g>
     <g id="text_13">
      <text style="font-size: 16px; font-family: 'Arial', sans-serif; text-anchor: end" x="56" y="163.22625" transform="rotate(-0 56 163.22625)">6</text>
     </g>
    </g>
    <g id="ytick_8">
     <g id="line2d_14">
      <g>
       <use xlink:href="#md9b58bed00" x="63" y="108.99" style="stroke: #000000; stroke-width: 0.8"/>
      </g>
     </g>
     <g id="text_14">
      <text style="font-size: 16px; font-family: 'Arial', sans-serif; text-anchor: end" x="56" y="114.71625" transform="rotate(-0 56 114.71625)">7</text>
     </g>
    </g>
    <g id="ytick_9">
     <g id="line2d_15">
      <g>
       <use xlink:href="#md9b58bed00" x="63" y="60.48" style="stroke: #000000; stroke-width: 0.8"/>
      </g>
     </g>
     <g id="text_15">
      <text style="font-size: 16px; font-family: 'Arial', sans-serif; text-anchor: end" x="56" y="66.20625" transform="rotate(-0 56 66.20625)">8</text>
     </g>
    </g>
    <g id="text_16">
     <text style="font-size: 16px; font-family: 'Arial', sans-serif; text-anchor: middle" x="39.9225" y="254.52" transform="rotate(-90 39.9225 254.52)">Time-dependent reproduction number</text>
    </g>
   </g>
   <g id="line2d_16">
    <path d="M 81.571786 380.298389 
L 83.614886 187.951218 
L 84.196609 -1 
M 91.912356 -1 
L 93.83039 141.320522 
L 95.873491 246.595994 
L 97.916592 310.01398 
L 99.959692 318.095958 
L 102.002793 354.66797 
L 104.045894 371.888881 
L 106.088995 385.433968 
L 108.132095 394.27738 
L 110.175196 401.618068 
L 114.261398 409.615195 
L 116.304498 411.625938 
L 118.347599 414.026417 
L 120.3907 404.769614 
L 122.433801 407.702333 
L 124.476901 409.072336 
L 126.520002 399.495636 
L 128.563103 400.799852 
L 130.606204 386.362045 
L 132.649304 387.792585 
L 134.692405 372.4362 
L 136.735506 376.099962 
L 138.778607 362.504667 
L 140.821707 346.951995 
L 142.864808 359.836931 
L 144.907909 346.513179 
L 146.95101 342.537262 
L 148.99411 358.181402 
L 151.037211 352.571136 
L 153.080312 368.111962 
L 155.123412 379.112632 
L 157.166513 346.66496 
L 159.209614 333.155225 
L 161.252715 339.906499 
L 165.338916 348.095206 
L 167.382017 352.945519 
L 169.425118 330.37698 
L 171.468218 354.253339 
L 175.55442 367.63056 
L 177.597521 341.622997 
L 179.640621 333.837679 
L 181.683722 329.364143 
L 183.726823 339.999348 
L 185.769924 327.417451 
L 187.813024 319.289388 
L 189.856125 270.920131 
L 191.899226 276.149809 
L 193.942327 252.237803 
L 195.985427 277.356168 
L 198.028528 305.596966 
L 200.071629 320.018692 
L 202.11473 318.823903 
L 204.15783 355.937129 
L 206.200931 382.686144 
L 208.244032 368.501864 
L 210.287133 388.69922 
L 212.330233 393.772369 
L 214.373334 404.16288 
L 216.416435 387.851449 
L 218.459536 380.304265 
L 220.502636 375.431908 
L 222.545737 376.052796 
L 224.588838 367.759064 
L 226.631938 349.565445 
L 228.675039 337.841345 
L 230.71814 354.073904 
L 232.761241 343.87909 
L 234.804341 378.892958 
L 236.847442 352.817611 
L 238.890543 356.41654 
L 240.933644 380.69437 
L 242.976744 397.172418 
L 245.019845 410.749237 
L 247.062946 414.955611 
L 249.106047 411.944116 
L 251.149147 397.060589 
L 253.192248 403.954496 
L 255.235349 403.30843 
L 257.27845 411.283592 
L 259.32155 413.534051 
L 263.407752 423.169652 
L 265.450853 425.850957 
L 267.493953 430.898879 
L 269.537054 433.002932 
L 271.580155 432.758942 
L 273.623256 430.86539 
L 275.666356 432.714534 
L 277.709457 430.349785 
L 279.752558 430.002906 
L 281.795659 432.923359 
L 283.838759 434.898882 
L 285.88186 434.813348 
L 287.924961 432.122627 
L 289.968062 431.632689 
L 292.011162 433.35746 
L 294.054263 432.145729 
L 296.097364 433.523005 
L 298.140464 432.332518 
L 302.226666 434.461038 
L 304.269767 434.726695 
L 306.312867 432.686434 
L 308.355968 430.113833 
L 310.399069 430.992756 
L 314.48527 432.330862 
L 316.528371 428.729334 
L 318.571472 429.457216 
L 320.614573 429.867708 
L 324.700774 430.86314 
L 326.743875 431.029817 
L 330.830076 431.188673 
L 332.873177 431.662967 
L 334.916278 431.735306 
L 336.959379 425.489655 
L 339.002479 426.097608 
L 341.04558 426.262912 
L 343.088681 425.968923 
L 345.131782 426.265874 
L 347.174882 425.950383 
L 349.217983 425.920795 
L 351.261084 416.025107 
L 353.304185 416.873679 
L 355.347285 416.66762 
L 357.390386 417.44243 
L 361.476588 417.884777 
L 363.519688 418.009227 
L 365.562789 418.732533 
L 367.60589 419.063797 
L 369.64899 419.932372 
L 371.692091 419.913724 
L 373.735192 420.184891 
L 375.778293 419.857052 
L 377.821393 420.827449 
L 379.864494 420.888519 
L 381.907595 420.320014 
L 383.950696 420.45088 
L 385.993796 419.972743 
L 388.036897 419.950938 
L 390.079998 418.609736 
L 392.123099 418.922371 
L 394.166199 417.591643 
L 396.2093 418.025632 
L 398.252401 416.432823 
L 400.295502 416.57988 
L 402.338602 416.009294 
L 404.381703 414.948435 
L 406.424804 414.26489 
L 408.467905 414.288227 
L 412.554106 411.826116 
L 414.597207 410.854303 
L 416.640308 410.051234 
L 418.683408 410.591282 
L 420.726509 409.919074 
L 422.76961 408.693641 
L 424.812711 408.152012 
L 426.855811 408.834205 
L 428.898912 406.906659 
L 430.942013 407.493398 
L 432.985114 405.762434 
L 435.028214 404.45825 
L 435.028214 404.45825 
" clip-path="url(#p9d830e6c23)" style="fill: none; stroke: #0173b2; stroke-width: 2; stroke-linecap: square"/>
   </g>
   <g id="line2d_17">
    <path d="M 81.571786 387.807497 
L 83.614886 204.169163 
L 84.281787 -1 
M 91.84741 -1 
L 93.83039 153.812963 
L 95.873491 248.517849 
L 97.916592 306.943569 
L 99.959692 320.331972 
L 102.002793 350.423705 
L 104.045894 373.179981 
L 106.088995 384.346454 
L 108.132095 394.783577 
L 110.175196 401.730479 
L 112.218297 405.978069 
L 114.261398 409.410849 
L 118.347599 413.919594 
L 120.3907 404.914499 
L 124.476901 408.970589 
L 126.520002 398.198429 
L 128.563103 400.639471 
L 130.606204 388.06404 
L 132.649304 388.980369 
L 134.692405 374.092911 
L 136.735506 378.875391 
L 138.778607 362.879492 
L 140.821707 350.245122 
L 142.864808 361.271221 
L 144.907909 350.730551 
L 146.95101 343.987137 
L 148.99411 360.853756 
L 151.037211 357.05461 
L 153.080312 369.169514 
L 155.123412 382.03518 
L 157.166513 347.085222 
L 159.209614 332.895975 
L 161.252715 340.217365 
L 163.295815 345.039586 
L 165.338916 350.645874 
L 167.382017 353.887772 
L 169.425118 330.301562 
L 171.468218 355.308815 
L 173.511319 360.752054 
L 175.55442 367.702082 
L 177.597521 341.135149 
L 179.640621 333.834184 
L 181.683722 328.810371 
L 183.726823 339.715745 
L 185.769924 326.899315 
L 187.813024 318.867699 
L 189.856125 269.533251 
L 191.899226 275.439155 
L 193.942327 252.162819 
L 195.985427 277.226978 
L 198.028528 305.882617 
L 200.071629 320.0317 
L 202.11473 319.211178 
L 204.15783 356.588034 
L 206.200931 382.782099 
L 208.244032 368.574963 
L 210.287133 389.172018 
L 212.330233 394.199181 
L 214.373334 404.706343 
L 216.416435 389.079428 
L 218.459536 381.787539 
L 220.502636 376.877012 
L 222.545737 378.096159 
L 224.588838 370.431231 
L 226.631938 352.676525 
L 228.675039 342.200016 
L 230.71814 358.718034 
L 232.761241 347.903 
L 234.804341 383.150287 
L 236.847442 358.269079 
L 238.890543 361.808331 
L 240.933644 385.243525 
L 242.976744 401.297299 
L 245.019845 414.74671 
L 247.062946 418.843521 
L 249.106047 416.529452 
L 251.149147 402.098574 
L 253.192248 409.315044 
L 255.235349 409.060755 
L 257.27845 416.670926 
L 259.32155 419.121356 
L 261.364651 424.101543 
L 263.407752 428.529527 
L 265.450853 431.776678 
L 267.493953 436.415591 
L 269.537054 438.36219 
L 271.580155 438.598041 
L 273.623256 437.168605 
L 275.666356 439.001381 
L 277.709457 437.413789 
L 279.752558 437.344389 
L 281.795659 440.363555 
L 283.838759 442.310689 
L 285.88186 442.008043 
L 287.924961 440.212496 
L 289.968062 440.262817 
L 292.011162 442.110284 
L 294.054263 441.247617 
L 296.097364 442.625147 
L 298.140464 441.486397 
L 300.183565 442.671379 
L 304.269767 444.327254 
L 308.355968 440.256404 
L 310.399069 441.513018 
L 314.48527 442.753044 
L 316.528371 439.918984 
L 318.571472 440.92499 
L 320.614573 441.642961 
L 322.657673 441.863238 
L 324.700774 442.637329 
L 326.743875 442.819802 
L 330.830076 443.538107 
L 332.873177 443.770235 
L 334.916278 444.260314 
L 336.959379 439.77851 
L 339.002479 440.508568 
L 345.131782 441.64292 
L 349.217983 442.289433 
L 351.261084 436.34524 
L 353.304185 436.766088 
L 355.347285 437.851812 
L 357.390386 438.367382 
L 359.433487 439.170198 
L 361.476588 439.767151 
L 365.562789 440.696163 
L 367.60589 441.303316 
L 369.64899 441.27458 
L 371.692091 441.751499 
L 373.735192 442.470383 
L 375.778293 442.747438 
L 377.821393 442.709793 
L 379.864494 442.985068 
L 383.950696 443.295134 
L 390.079998 444.059228 
L 392.123099 444.151609 
L 394.166199 443.964447 
L 398.252401 444.377287 
L 400.295502 444.280765 
L 402.338602 444.367437 
L 404.381703 444.74857 
L 406.424804 444.943822 
L 408.467905 444.976507 
L 410.511005 444.718701 
L 416.640308 445.265135 
L 418.683408 445.16605 
L 426.855811 445.469299 
L 428.898912 445.401337 
L 430.942013 445.54716 
L 432.985114 445.507361 
L 435.028214 445.715264 
L 435.028214 445.715264 
" clip-path="url(#p9d830e6c23)" style="fill: none; stroke: #de8f05; stroke-width: 2; stroke-linecap: square"/>
   </g>
   <g id="patch_3">
    <path d="M 63 448.56 
L 63 60.48 
" style="fill: none; stroke: #000000; stroke-width: 0.8; stroke-linejoin: miter; stroke-linecap: square"/>
   </g>
   <g id="patch_4">
    <path d="M 63 448.56 
L 453.6 448.56 
" style="fill: none; stroke: #000000; stroke-width: 0.8; stroke-linejoin: miter; stroke-linecap: square"/>
   </g>
   <g id="legend_1">
    <g id="patch_5">
     <path d="M 263.609063 111.785625 
L 443.8 111.785625 
Q 446.6 111.785625 446.6 108.985625 
L 446.6 70.28 
Q 446.6 67.48 443.8 67.48 
L 263.609063 67.48 
Q 260.809063 67.48 260.809063 70.28 
L 260.809063 108.985625 
Q 260.809063 111.785625 263.609063 111.785625 
z
" style="fill: #ffffff; opacity: 0.8; stroke: #cccccc; stroke-linejoin: miter"/>
    </g>
    <g id="line2d_18">
     <path d="M 266.409063 78.200938 
L 280.409063 78.200938 
L 294.409063 78.200938 
" style="fill: none; stroke: #0173b2; stroke-width: 2; stroke-linecap: square"/>
    </g>
    <g id="text_17">
     <text style="font-size: 14px; font-family: 'Arial', sans-serif; text-anchor: start" x="305.609063" y="83.100938" transform="rotate(-0 305.609063 83.100938)">Autoregressive model</text>
    </g>
    <g id="line2d_19">
     <path d="M 266.409063 98.339063 
L 280.409063 98.339063 
L 294.409063 98.339063 
" style="fill: none; stroke: #de8f05; stroke-width: 2; stroke-linecap: square"/>
    </g>
    <g id="text_18">
     <text style="font-size: 14px; font-family: 'Arial', sans-serif; text-anchor: start" x="305.609063" y="103.239063" transform="rotate(-0 305.609063 103.239063)">Suitability model</text>
    </g>
   </g>
  </g>
  <g id="axes_2">
   <g id="patch_6">
    <path d="M 80.754545 448.56 
L 82.389026 448.56 
L 82.389026 396.816 
L 80.754545 396.816 
z
" clip-path="url(#p9d830e6c23)" style="fill: #7f7f7f; opacity: 0.5"/>
   </g>
   <g id="patch_7">
    <path d="M 82.797646 448.56 
L 84.432127 448.56 
L 84.432127 396.816 
L 82.797646 396.816 
z
" clip-path="url(#p9d830e6c23)" style="fill: #7f7f7f; opacity: 0.5"/>
   </g>
   <g id="patch_8">
    <path d="M 84.840747 448.56 
L 86.475228 448.56 
L 86.475228 396.816 
L 84.840747 396.816 
z
" clip-path="url(#p9d830e6c23)" style="fill: #7f7f7f; opacity: 0.5"/>
   </g>
   <g id="patch_9">
    <path d="M 86.883848 448.56 
L 88.518328 448.56 
L 88.518328 448.56 
L 86.883848 448.56 
z
" clip-path="url(#p9d830e6c23)" style="fill: #7f7f7f; opacity: 0.5"/>
   </g>
   <g id="patch_10">
    <path d="M 88.926948 448.56 
L 90.561429 448.56 
L 90.561429 448.56 
L 88.926948 448.56 
z
" clip-path="url(#p9d830e6c23)" style="fill: #7f7f7f; opacity: 0.5"/>
   </g>
   <g id="patch_11">
    <path d="M 90.970049 448.56 
L 92.60453 448.56 
L 92.60453 448.56 
L 90.970049 448.56 
z
" clip-path="url(#p9d830e6c23)" style="fill: #7f7f7f; opacity: 0.5"/>
   </g>
   <g id="patch_12">
    <path d="M 93.01315 448.56 
L 94.647631 448.56 
L 94.647631 448.56 
L 93.01315 448.56 
z
" clip-path="url(#p9d830e6c23)" style="fill: #7f7f7f; opacity: 0.5"/>
   </g>
   <g id="patch_13">
    <path d="M 95.056251 448.56 
L 96.690731 448.56 
L 96.690731 448.56 
L 95.056251 448.56 
z
" clip-path="url(#p9d830e6c23)" style="fill: #7f7f7f; opacity: 0.5"/>
   </g>
   <g id="patch_14">
    <path d="M 97.099351 448.56 
L 98.733832 448.56 
L 98.733832 448.56 
L 97.099351 448.56 
z
" clip-path="url(#p9d830e6c23)" style="fill: #7f7f7f; opacity: 0.5"/>
   </g>
   <g id="patch_15">
    <path d="M 99.142452 448.56 
L 100.776933 448.56 
L 100.776933 422.688 
L 99.142452 422.688 
z
" clip-path="url(#p9d830e6c23)" style="fill: #7f7f7f; opacity: 0.5"/>
   </g>
   <g id="patch_16">
    <path d="M 101.185553 448.56 
L 102.820033 448.56 
L 102.820033 448.56 
L 101.185553 448.56 
z
" clip-path="url(#p9d830e6c23)" style="fill: #7f7f7f; opacity: 0.5"/>
   </g>
   <g id="patch_17">
    <path d="M 103.228654 448.56 
L 104.863134 448.56 
L 104.863134 448.56 
L 103.228654 448.56 
z
" clip-path="url(#p9d830e6c23)" style="fill: #7f7f7f; opacity: 0.5"/>
   </g>
   <g id="patch_18">
    <path d="M 105.271754 448.56 
L 106.906235 448.56 
L 106.906235 448.56 
L 105.271754 448.56 
z
" clip-path="url(#p9d830e6c23)" style="fill: #7f7f7f; opacity: 0.5"/>
   </g>
   <g id="patch_19">
    <path d="M 107.314855 448.56 
L 108.949336 448.56 
L 108.949336 448.56 
L 107.314855 448.56 
z
" clip-path="url(#p9d830e6c23)" style="fill: #7f7f7f; opacity: 0.5"/>
   </g>
   <g id="patch_20">
    <path d="M 109.357956 448.56 
L 110.992436 448.56 
L 110.992436 448.56 
L 109.357956 448.56 
z
" clip-path="url(#p9d830e6c23)" style="fill: #7f7f7f; opacity: 0.5"/>
   </g>
   <g id="patch_21">
    <path d="M 111.401057 448.56 
L 113.035537 448.56 
L 113.035537 448.56 
L 111.401057 448.56 
z
" clip-path="url(#p9d830e6c23)" style="fill: #7f7f7f; opacity: 0.5"/>
   </g>
   <g id="patch_22">
    <path d="M 113.444157 448.56 
L 115.078638 448.56 
L 115.078638 448.56 
L 113.444157 448.56 
z
" clip-path="url(#p9d830e6c23)" style="fill: #7f7f7f; opacity: 0.5"/>
   </g>
   <g id="patch_23">
    <path d="M 115.487258 448.56 
L 117.121739 448.56 
L 117.121739 448.56 
L 115.487258 448.56 
z
" clip-path="url(#p9d830e6c23)" style="fill: #7f7f7f; opacity: 0.5"/>
   </g>
   <g id="patch_24">
    <path d="M 117.530359 448.56 
L 119.164839 448.56 
L 119.164839 448.56 
L 117.530359 448.56 
z
" clip-path="url(#p9d830e6c23)" style="fill: #7f7f7f; opacity: 0.5"/>
   </g>
   <g id="patch_25">
    <path d="M 119.57346 448.56 
L 121.20794 448.56 
L 121.20794 422.688 
L 119.57346 422.688 
z
" clip-path="url(#p9d830e6c23)" style="fill: #7f7f7f; opacity: 0.5"/>
   </g>
   <g id="patch_26">
    <path d="M 121.61656 448.56 
L 123.251041 448.56 
L 123.251041 448.56 
L 121.61656 448.56 
z
" clip-path="url(#p9d830e6c23)" style="fill: #7f7f7f; opacity: 0.5"/>
   </g>
   <g id="patch_27">
    <path d="M 123.659661 448.56 
L 125.294142 448.56 
L 125.294142 448.56 
L 123.659661 448.56 
z
" clip-path="url(#p9d830e6c23)" style="fill: #7f7f7f; opacity: 0.5"/>
   </g>
   <g id="patch_28">
    <path d="M 125.702762 448.56 
L 127.337242 448.56 
L 127.337242 422.688 
L 125.702762 422.688 
z
" clip-path="url(#p9d830e6c23)" style="fill: #7f7f7f; opacity: 0.5"/>
   </g>
   <g id="patch_29">
    <path d="M 127.745863 448.56 
L 129.380343 448.56 
L 129.380343 448.56 
L 127.745863 448.56 
z
" clip-path="url(#p9d830e6c23)" style="fill: #7f7f7f; opacity: 0.5"/>
   </g>
   <g id="patch_30">
    <path d="M 129.788963 448.56 
L 131.423444 448.56 
L 131.423444 422.688 
L 129.788963 422.688 
z
" clip-path="url(#p9d830e6c23)" style="fill: #7f7f7f; opacity: 0.5"/>
   </g>
   <g id="patch_31">
    <path d="M 131.832064 448.56 
L 133.466545 448.56 
L 133.466545 448.56 
L 131.832064 448.56 
z
" clip-path="url(#p9d830e6c23)" style="fill: #7f7f7f; opacity: 0.5"/>
   </g>
   <g id="patch_32">
    <path d="M 133.875165 448.56 
L 135.509645 448.56 
L 135.509645 422.688 
L 133.875165 422.688 
z
" clip-path="url(#p9d830e6c23)" style="fill: #7f7f7f; opacity: 0.5"/>
   </g>
   <g id="patch_33">
    <path d="M 135.918266 448.56 
L 137.552746 448.56 
L 137.552746 448.56 
L 135.918266 448.56 
z
" clip-path="url(#p9d830e6c23)" style="fill: #7f7f7f; opacity: 0.5"/>
   </g>
   <g id="patch_34">
    <path d="M 137.961366 448.56 
L 139.595847 448.56 
L 139.595847 422.688 
L 137.961366 422.688 
z
" clip-path="url(#p9d830e6c23)" style="fill: #7f7f7f; opacity: 0.5"/>
   </g>
   <g id="patch_35">
    <path d="M 140.004467 448.56 
L 141.638948 448.56 
L 141.638948 422.688 
L 140.004467 422.688 
z
" clip-path="url(#p9d830e6c23)" style="fill: #7f7f7f; opacity: 0.5"/>
   </g>
   <g id="patch_36">
    <path d="M 142.047568 448.56 
L 143.682048 448.56 
L 143.682048 448.56 
L 142.047568 448.56 
z
" clip-path="url(#p9d830e6c23)" style="fill: #7f7f7f; opacity: 0.5"/>
   </g>
   <g id="patch_37">
    <path d="M 144.090668 448.56 
L 145.725149 448.56 
L 145.725149 422.688 
L 144.090668 422.688 
z
" clip-path="url(#p9d830e6c23)" style="fill: #7f7f7f; opacity: 0.5"/>
   </g>
   <g id="patch_38">
    <path d="M 146.133769 448.56 
L 147.76825 448.56 
L 147.76825 422.688 
L 146.133769 422.688 
z
" clip-path="url(#p9d830e6c23)" style="fill: #7f7f7f; opacity: 0.5"/>
   </g>
   <g id="patch_39">
    <path d="M 148.17687 448.56 
L 149.811351 448.56 
L 149.811351 448.56 
L 148.17687 448.56 
z
" clip-path="url(#p9d830e6c23)" style="fill: #7f7f7f; opacity: 0.5"/>
   </g>
   <g id="patch_40">
    <path d="M 150.219971 448.56 
L 151.854451 448.56 
L 151.854451 422.688 
L 150.219971 422.688 
z
" clip-path="url(#p9d830e6c23)" style="fill: #7f7f7f; opacity: 0.5"/>
   </g>
   <g id="patch_41">
    <path d="M 152.263071 448.56 
L 153.897552 448.56 
L 153.897552 448.56 
L 152.263071 448.56 
z
" clip-path="url(#p9d830e6c23)" style="fill: #7f7f7f; opacity: 0.5"/>
   </g>
   <g id="patch_42">
    <path d="M 154.306172 448.56 
L 155.940653 448.56 
L 155.940653 448.56 
L 154.306172 448.56 
z
" clip-path="url(#p9d830e6c23)" style="fill: #7f7f7f; opacity: 0.5"/>
   </g>
   <g id="patch_43">
    <path d="M 156.349273 448.56 
L 157.983754 448.56 
L 157.983754 370.944 
L 156.349273 370.944 
z
" clip-path="url(#p9d830e6c23)" style="fill: #7f7f7f; opacity: 0.5"/>
   </g>
   <g id="patch_44">
    <path d="M 158.392374 448.56 
L 160.026854 448.56 
L 160.026854 396.816 
L 158.392374 396.816 
z
" clip-path="url(#p9d830e6c23)" style="fill: #7f7f7f; opacity: 0.5"/>
   </g>
   <g id="patch_45">
    <path d="M 160.435474 448.56 
L 162.069955 448.56 
L 162.069955 422.688 
L 160.435474 422.688 
z
" clip-path="url(#p9d830e6c23)" style="fill: #7f7f7f; opacity: 0.5"/>
   </g>
   <g id="patch_46">
    <path d="M 162.478575 448.56 
L 164.113056 448.56 
L 164.113056 422.688 
L 162.478575 422.688 
z
" clip-path="url(#p9d830e6c23)" style="fill: #7f7f7f; opacity: 0.5"/>
   </g>
   <g id="patch_47">
    <path d="M 164.521676 448.56 
L 166.156157 448.56 
L 166.156157 422.688 
L 164.521676 422.688 
z
" clip-path="url(#p9d830e6c23)" style="fill: #7f7f7f; opacity: 0.5"/>
   </g>
   <g id="patch_48">
    <path d="M 166.564777 448.56 
L 168.199257 448.56 
L 168.199257 422.688 
L 166.564777 422.688 
z
" clip-path="url(#p9d830e6c23)" style="fill: #7f7f7f; opacity: 0.5"/>
   </g>
   <g id="patch_49">
    <path d="M 168.607877 448.56 
L 170.242358 448.56 
L 170.242358 370.944 
L 168.607877 370.944 
z
" clip-path="url(#p9d830e6c23)" style="fill: #7f7f7f; opacity: 0.5"/>
   </g>
   <g id="patch_50">
    <path d="M 170.650978 448.56 
L 172.285459 448.56 
L 172.285459 448.56 
L 170.650978 448.56 
z
" clip-path="url(#p9d830e6c23)" style="fill: #7f7f7f; opacity: 0.5"/>
   </g>
   <g id="patch_51">
    <path d="M 172.694079 448.56 
L 174.328559 448.56 
L 174.328559 422.688 
L 172.694079 422.688 
z
" clip-path="url(#p9d830e6c23)" style="fill: #7f7f7f; opacity: 0.5"/>
   </g>
   <g id="patch_52">
    <path d="M 174.73718 448.56 
L 176.37166 448.56 
L 176.37166 422.688 
L 174.73718 422.688 
z
" clip-path="url(#p9d830e6c23)" style="fill: #7f7f7f; opacity: 0.5"/>
   </g>
   <g id="patch_53">
    <path d="M 176.78028 448.56 
L 178.414761 448.56 
L 178.414761 345.072 
L 176.78028 345.072 
z
" clip-path="url(#p9d830e6c23)" style="fill: #7f7f7f; opacity: 0.5"/>
   </g>
   <g id="patch_54">
    <path d="M 178.823381 448.56 
L 180.457862 448.56 
L 180.457862 370.944 
L 178.823381 370.944 
z
" clip-path="url(#p9d830e6c23)" style="fill: #7f7f7f; opacity: 0.5"/>
   </g>
   <g id="patch_55">
    <path d="M 180.866482 448.56 
L 182.500962 448.56 
L 182.500962 370.944 
L 180.866482 370.944 
z
" clip-path="url(#p9d830e6c23)" style="fill: #7f7f7f; opacity: 0.5"/>
   </g>
   <g id="patch_56">
    <path d="M 182.909583 448.56 
L 184.544063 448.56 
L 184.544063 396.816 
L 182.909583 396.816 
z
" clip-path="url(#p9d830e6c23)" style="fill: #7f7f7f; opacity: 0.5"/>
   </g>
   <g id="patch_57">
    <path d="M 184.952683 448.56 
L 186.587164 448.56 
L 186.587164 345.072 
L 184.952683 345.072 
z
" clip-path="url(#p9d830e6c23)" style="fill: #7f7f7f; opacity: 0.5"/>
   </g>
   <g id="patch_58">
    <path d="M 186.995784 448.56 
L 188.630265 448.56 
L 188.630265 345.072 
L 186.995784 345.072 
z
" clip-path="url(#p9d830e6c23)" style="fill: #7f7f7f; opacity: 0.5"/>
   </g>
   <g id="patch_59">
    <path d="M 189.038885 448.56 
L 190.673365 448.56 
L 190.673365 241.584 
L 189.038885 241.584 
z
" clip-path="url(#p9d830e6c23)" style="fill: #7f7f7f; opacity: 0.5"/>
   </g>
   <g id="patch_60">
    <path d="M 191.081986 448.56 
L 192.716466 448.56 
L 192.716466 319.2 
L 191.081986 319.2 
z
" clip-path="url(#p9d830e6c23)" style="fill: #7f7f7f; opacity: 0.5"/>
   </g>
   <g id="patch_61">
    <path d="M 193.125086 448.56 
L 194.759567 448.56 
L 194.759567 241.584 
L 193.125086 241.584 
z
" clip-path="url(#p9d830e6c23)" style="fill: #7f7f7f; opacity: 0.5"/>
   </g>
   <g id="patch_62">
    <path d="M 195.168187 448.56 
L 196.802668 448.56 
L 196.802668 319.2 
L 195.168187 319.2 
z
" clip-path="url(#p9d830e6c23)" style="fill: #7f7f7f; opacity: 0.5"/>
   </g>
   <g id="patch_63">
    <path d="M 197.211288 448.56 
L 198.845768 448.56 
L 198.845768 345.072 
L 197.211288 345.072 
z
" clip-path="url(#p9d830e6c23)" style="fill: #7f7f7f; opacity: 0.5"/>
   </g>
   <g id="patch_64">
    <path d="M 199.254389 448.56 
L 200.888869 448.56 
L 200.888869 319.2 
L 199.254389 319.2 
z
" clip-path="url(#p9d830e6c23)" style="fill: #7f7f7f; opacity: 0.5"/>
   </g>
   <g id="patch_65">
    <path d="M 201.297489 448.56 
L 202.93197 448.56 
L 202.93197 267.456 
L 201.297489 267.456 
z
" clip-path="url(#p9d830e6c23)" style="fill: #7f7f7f; opacity: 0.5"/>
   </g>
   <g id="patch_66">
    <path d="M 203.34059 448.56 
L 204.975071 448.56 
L 204.975071 396.816 
L 203.34059 396.816 
z
" clip-path="url(#p9d830e6c23)" style="fill: #7f7f7f; opacity: 0.5"/>
   </g>
   <g id="patch_67">
    <path d="M 205.383691 448.56 
L 207.018171 448.56 
L 207.018171 422.688 
L 205.383691 422.688 
z
" clip-path="url(#p9d830e6c23)" style="fill: #7f7f7f; opacity: 0.5"/>
   </g>
   <g id="patch_68">
    <path d="M 207.426792 448.56 
L 209.061272 448.56 
L 209.061272 241.584 
L 207.426792 241.584 
z
" clip-path="url(#p9d830e6c23)" style="fill: #7f7f7f; opacity: 0.5"/>
   </g>
   <g id="patch_69">
    <path d="M 209.469892 448.56 
L 211.104373 448.56 
L 211.104373 396.816 
L 209.469892 396.816 
z
" clip-path="url(#p9d830e6c23)" style="fill: #7f7f7f; opacity: 0.5"/>
   </g>
   <g id="patch_70">
    <path d="M 211.512993 448.56 
L 213.147474 448.56 
L 213.147474 345.072 
L 211.512993 345.072 
z
" clip-path="url(#p9d830e6c23)" style="fill: #7f7f7f; opacity: 0.5"/>
   </g>
   <g id="patch_71">
    <path d="M 213.556094 448.56 
L 215.190574 448.56 
L 215.190574 396.816 
L 213.556094 396.816 
z
" clip-path="url(#p9d830e6c23)" style="fill: #7f7f7f; opacity: 0.5"/>
   </g>
   <g id="patch_72">
    <path d="M 215.599194 448.56 
L 217.233675 448.56 
L 217.233675 215.712 
L 215.599194 215.712 
z
" clip-path="url(#p9d830e6c23)" style="fill: #7f7f7f; opacity: 0.5"/>
   </g>
   <g id="patch_73">
    <path d="M 217.642295 448.56 
L 219.276776 448.56 
L 219.276776 241.584 
L 217.642295 241.584 
z
" clip-path="url(#p9d830e6c23)" style="fill: #7f7f7f; opacity: 0.5"/>
   </g>
   <g id="patch_74">
    <path d="M 219.685396 448.56 
L 221.319877 448.56 
L 221.319877 241.584 
L 219.685396 241.584 
z
" clip-path="url(#p9d830e6c23)" style="fill: #7f7f7f; opacity: 0.5"/>
   </g>
   <g id="patch_75">
    <path d="M 221.728497 448.56 
L 223.362977 448.56 
L 223.362977 267.456 
L 221.728497 267.456 
z
" clip-path="url(#p9d830e6c23)" style="fill: #7f7f7f; opacity: 0.5"/>
   </g>
   <g id="patch_76">
    <path d="M 223.771597 448.56 
L 225.406078 448.56 
L 225.406078 215.712 
L 223.771597 215.712 
z
" clip-path="url(#p9d830e6c23)" style="fill: #7f7f7f; opacity: 0.5"/>
   </g>
   <g id="patch_77">
    <path d="M 225.814698 448.56 
L 227.449179 448.56 
L 227.449179 138.096 
L 225.814698 138.096 
z
" clip-path="url(#p9d830e6c23)" style="fill: #7f7f7f; opacity: 0.5"/>
   </g>
   <g id="patch_78">
    <path d="M 227.857799 448.56 
L 229.49228 448.56 
L 229.49228 138.096 
L 227.857799 138.096 
z
" clip-path="url(#p9d830e6c23)" style="fill: #7f7f7f; opacity: 0.5"/>
   </g>
   <g id="patch_79">
    <path d="M 229.9009 448.56 
L 231.53538 448.56 
L 231.53538 267.456 
L 229.9009 267.456 
z
" clip-path="url(#p9d830e6c23)" style="fill: #7f7f7f; opacity: 0.5"/>
   </g>
   <g id="patch_80">
    <path d="M 231.944 448.56 
L 233.578481 448.56 
L 233.578481 138.096 
L 231.944 138.096 
z
" clip-path="url(#p9d830e6c23)" style="fill: #7f7f7f; opacity: 0.5"/>
   </g>
   <g id="patch_81">
    <path d="M 233.987101 448.56 
L 235.621582 448.56 
L 235.621582 396.816 
L 233.987101 396.816 
z
" clip-path="url(#p9d830e6c23)" style="fill: #7f7f7f; opacity: 0.5"/>
   </g>
   <g id="patch_82">
    <path d="M 236.030202 448.56 
L 237.664682 448.56 
L 237.664682 60.48 
L 236.030202 60.48 
z
" clip-path="url(#p9d830e6c23)" style="fill: #7f7f7f; opacity: 0.5"/>
   </g>
   <g id="patch_83">
    <path d="M 238.073303 448.56 
L 239.707783 448.56 
L 239.707783 163.968 
L 238.073303 163.968 
z
" clip-path="url(#p9d830e6c23)" style="fill: #7f7f7f; opacity: 0.5"/>
   </g>
   <g id="patch_84">
    <path d="M 240.116403 448.56 
L 241.750884 448.56 
L 241.750884 319.2 
L 240.116403 319.2 
z
" clip-path="url(#p9d830e6c23)" style="fill: #7f7f7f; opacity: 0.5"/>
   </g>
   <g id="patch_85">
    <path d="M 242.159504 448.56 
L 243.793985 448.56 
L 243.793985 345.072 
L 242.159504 345.072 
z
" clip-path="url(#p9d830e6c23)" style="fill: #7f7f7f; opacity: 0.5"/>
   </g>
   <g id="patch_86">
    <path d="M 244.202605 448.56 
L 245.837085 448.56 
L 245.837085 396.816 
L 244.202605 396.816 
z
" clip-path="url(#p9d830e6c23)" style="fill: #7f7f7f; opacity: 0.5"/>
   </g>
   <g id="patch_87">
    <path d="M 246.245706 448.56 
L 247.880186 448.56 
L 247.880186 345.072 
L 246.245706 345.072 
z
" clip-path="url(#p9d830e6c23)" style="fill: #7f7f7f; opacity: 0.5"/>
   </g>
   <g id="patch_88">
    <path d="M 248.288806 448.56 
L 249.923287 448.56 
L 249.923287 267.456 
L 248.288806 267.456 
z
" clip-path="url(#p9d830e6c23)" style="fill: #7f7f7f; opacity: 0.5"/>
   </g>
   <g id="patch_89">
    <path d="M 250.331907 448.56 
L 251.966388 448.56 
L 251.966388 112.224 
L 250.331907 112.224 
z
" clip-path="url(#p9d830e6c23)" style="fill: #7f7f7f; opacity: 0.5"/>
   </g>
   <g id="patch_90">
    <path d="M 252.375008 448.56 
L 254.009488 448.56 
L 254.009488 293.328 
L 252.375008 293.328 
z
" clip-path="url(#p9d830e6c23)" style="fill: #7f7f7f; opacity: 0.5"/>
   </g>
   <g id="patch_91">
    <path d="M 254.418109 448.56 
L 256.052589 448.56 
L 256.052589 241.584 
L 254.418109 241.584 
z
" clip-path="url(#p9d830e6c23)" style="fill: #7f7f7f; opacity: 0.5"/>
   </g>
   <g id="patch_92">
    <path d="M 256.461209 448.56 
L 258.09569 448.56 
L 258.09569 345.072 
L 256.461209 345.072 
z
" clip-path="url(#p9d830e6c23)" style="fill: #7f7f7f; opacity: 0.5"/>
   </g>
   <g id="patch_93">
    <path d="M 258.50431 448.56 
L 260.138791 448.56 
L 260.138791 319.2 
L 258.50431 319.2 
z
" clip-path="url(#p9d830e6c23)" style="fill: #7f7f7f; opacity: 0.5"/>
   </g>
   <g id="patch_94">
    <path d="M 260.547411 448.56 
L 262.181891 448.56 
L 262.181891 370.944 
L 260.547411 370.944 
z
" clip-path="url(#p9d830e6c23)" style="fill: #7f7f7f; opacity: 0.5"/>
   </g>
   <g id="patch_95">
    <path d="M 262.590512 448.56 
L 264.224992 448.56 
L 264.224992 396.816 
L 262.590512 396.816 
z
" clip-path="url(#p9d830e6c23)" style="fill: #7f7f7f; opacity: 0.5"/>
   </g>
   <g id="patch_96">
    <path d="M 264.633612 448.56 
L 266.268093 448.56 
L 266.268093 396.816 
L 264.633612 396.816 
z
" clip-path="url(#p9d830e6c23)" style="fill: #7f7f7f; opacity: 0.5"/>
   </g>
   <g id="patch_97">
    <path d="M 266.676713 448.56 
L 268.311194 448.56 
L 268.311194 448.56 
L 266.676713 448.56 
z
" clip-path="url(#p9d830e6c23)" style="fill: #7f7f7f; opacity: 0.5"/>
   </g>
   <g id="patch_98">
    <path d="M 268.719814 448.56 
L 270.354294 448.56 
L 270.354294 422.688 
L 268.719814 422.688 
z
" clip-path="url(#p9d830e6c23)" style="fill: #7f7f7f; opacity: 0.5"/>
   </g>
   <g id="patch_99">
    <path d="M 270.762915 448.56 
L 272.397395 448.56 
L 272.397395 396.816 
L 270.762915 396.816 
z
" clip-path="url(#p9d830e6c23)" style="fill: #7f7f7f; opacity: 0.5"/>
   </g>
   <g id="patch_100">
    <path d="M 272.806015 448.56 
L 274.440496 448.56 
L 274.440496 370.944 
L 272.806015 370.944 
z
" clip-path="url(#p9d830e6c23)" style="fill: #7f7f7f; opacity: 0.5"/>
   </g>
   <g id="patch_101">
    <path d="M 274.849116 448.56 
L 276.483597 448.56 
L 276.483597 422.688 
L 274.849116 422.688 
z
" clip-path="url(#p9d830e6c23)" style="fill: #7f7f7f; opacity: 0.5"/>
   </g>
   <g id="patch_102">
    <path d="M 276.892217 448.56 
L 278.526697 448.56 
L 278.526697 370.944 
L 276.892217 370.944 
z
" clip-path="url(#p9d830e6c23)" style="fill: #7f7f7f; opacity: 0.5"/>
   </g>
   <g id="patch_103">
    <path d="M 278.935318 448.56 
L 280.569798 448.56 
L 280.569798 396.816 
L 278.935318 396.816 
z
" clip-path="url(#p9d830e6c23)" style="fill: #7f7f7f; opacity: 0.5"/>
   </g>
   <g id="patch_104">
    <path d="M 280.978418 448.56 
L 282.612899 448.56 
L 282.612899 448.56 
L 280.978418 448.56 
z
" clip-path="url(#p9d830e6c23)" style="fill: #7f7f7f; opacity: 0.5"/>
   </g>
   <g id="patch_105">
    <path d="M 283.021519 448.56 
L 284.656 448.56 
L 284.656 448.56 
L 283.021519 448.56 
z
" clip-path="url(#p9d830e6c23)" style="fill: #7f7f7f; opacity: 0.5"/>
   </g>
   <g id="patch_106">
    <path d="M 285.06462 448.56 
L 286.6991 448.56 
L 286.6991 422.688 
L 285.06462 422.688 
z
" clip-path="url(#p9d830e6c23)" style="fill: #7f7f7f; opacity: 0.5"/>
   </g>
   <g id="patch_107">
    <path d="M 287.10772 448.56 
L 288.742201 448.56 
L 288.742201 396.816 
L 287.10772 396.816 
z
" clip-path="url(#p9d830e6c23)" style="fill: #7f7f7f; opacity: 0.5"/>
   </g>
   <g id="patch_108">
    <path d="M 289.150821 448.56 
L 290.785302 448.56 
L 290.785302 422.688 
L 289.150821 422.688 
z
" clip-path="url(#p9d830e6c23)" style="fill: #7f7f7f; opacity: 0.5"/>
   </g>
   <g id="patch_109">
    <path d="M 291.193922 448.56 
L 292.828403 448.56 
L 292.828403 448.56 
L 291.193922 448.56 
z
" clip-path="url(#p9d830e6c23)" style="fill: #7f7f7f; opacity: 0.5"/>
   </g>
   <g id="patch_110">
    <path d="M 293.237023 448.56 
L 294.871503 448.56 
L 294.871503 422.688 
L 293.237023 422.688 
z
" clip-path="url(#p9d830e6c23)" style="fill: #7f7f7f; opacity: 0.5"/>
   </g>
   <g id="patch_111">
    <path d="M 295.280123 448.56 
L 296.914604 448.56 
L 296.914604 448.56 
L 295.280123 448.56 
z
" clip-path="url(#p9d830e6c23)" style="fill: #7f7f7f; opacity: 0.5"/>
   </g>
   <g id="patch_112">
    <path d="M 297.323224 448.56 
L 298.957705 448.56 
L 298.957705 422.688 
L 297.323224 422.688 
z
" clip-path="url(#p9d830e6c23)" style="fill: #7f7f7f; opacity: 0.5"/>
   </g>
   <g id="patch_113">
    <path d="M 299.366325 448.56 
L 301.000806 448.56 
L 301.000806 448.56 
L 299.366325 448.56 
z
" clip-path="url(#p9d830e6c23)" style="fill: #7f7f7f; opacity: 0.5"/>
   </g>
   <g id="patch_114">
    <path d="M 301.409426 448.56 
L 303.043906 448.56 
L 303.043906 448.56 
L 301.409426 448.56 
z
" clip-path="url(#p9d830e6c23)" style="fill: #7f7f7f; opacity: 0.5"/>
   </g>
   <g id="patch_115">
    <path d="M 303.452526 448.56 
L 305.087007 448.56 
L 305.087007 448.56 
L 303.452526 448.56 
z
" clip-path="url(#p9d830e6c23)" style="fill: #7f7f7f; opacity: 0.5"/>
   </g>
   <g id="patch_116">
    <path d="M 305.495627 448.56 
L 307.130108 448.56 
L 307.130108 422.688 
L 305.495627 422.688 
z
" clip-path="url(#p9d830e6c23)" style="fill: #7f7f7f; opacity: 0.5"/>
   </g>
   <g id="patch_117">
    <path d="M 307.538728 448.56 
L 309.173208 448.56 
L 309.173208 422.688 
L 307.538728 422.688 
z
" clip-path="url(#p9d830e6c23)" style="fill: #7f7f7f; opacity: 0.5"/>
   </g>
   <g id="patch_118">
    <path d="M 309.581829 448.56 
L 311.216309 448.56 
L 311.216309 448.56 
L 309.581829 448.56 
z
" clip-path="url(#p9d830e6c23)" style="fill: #7f7f7f; opacity: 0.5"/>
   </g>
   <g id="patch_119">
    <path d="M 311.624929 448.56 
L 313.25941 448.56 
L 313.25941 448.56 
L 311.624929 448.56 
z
" clip-path="url(#p9d830e6c23)" style="fill: #7f7f7f; opacity: 0.5"/>
   </g>
   <g id="patch_120">
    <path d="M 313.66803 448.56 
L 315.302511 448.56 
L 315.302511 448.56 
L 313.66803 448.56 
z
" clip-path="url(#p9d830e6c23)" style="fill: #7f7f7f; opacity: 0.5"/>
   </g>
   <g id="patch_121">
    <path d="M 315.711131 448.56 
L 317.345611 448.56 
L 317.345611 422.688 
L 315.711131 422.688 
z
" clip-path="url(#p9d830e6c23)" style="fill: #7f7f7f; opacity: 0.5"/>
   </g>
   <g id="patch_122">
    <path d="M 317.754232 448.56 
L 319.388712 448.56 
L 319.388712 448.56 
L 317.754232 448.56 
z
" clip-path="url(#p9d830e6c23)" style="fill: #7f7f7f; opacity: 0.5"/>
   </g>
   <g id="patch_123">
    <path d="M 319.797332 448.56 
L 321.431813 448.56 
L 321.431813 448.56 
L 319.797332 448.56 
z
" clip-path="url(#p9d830e6c23)" style="fill: #7f7f7f; opacity: 0.5"/>
   </g>
   <g id="patch_124">
    <path d="M 321.840433 448.56 
L 323.474914 448.56 
L 323.474914 448.56 
L 321.840433 448.56 
z
" clip-path="url(#p9d830e6c23)" style="fill: #7f7f7f; opacity: 0.5"/>
   </g>
   <g id="patch_125">
    <path d="M 323.883534 448.56 
L 325.518014 448.56 
L 325.518014 448.56 
L 323.883534 448.56 
z
" clip-path="url(#p9d830e6c23)" style="fill: #7f7f7f; opacity: 0.5"/>
   </g>
   <g id="patch_126">
    <path d="M 325.926635 448.56 
L 327.561115 448.56 
L 327.561115 448.56 
L 325.926635 448.56 
z
" clip-path="url(#p9d830e6c23)" style="fill: #7f7f7f; opacity: 0.5"/>
   </g>
   <g id="patch_127">
    <path d="M 327.969735 448.56 
L 329.604216 448.56 
L 329.604216 448.56 
L 327.969735 448.56 
z
" clip-path="url(#p9d830e6c23)" style="fill: #7f7f7f; opacity: 0.5"/>
   </g>
   <g id="patch_128">
    <path d="M 330.012836 448.56 
L 331.647317 448.56 
L 331.647317 448.56 
L 330.012836 448.56 
z
" clip-path="url(#p9d830e6c23)" style="fill: #7f7f7f; opacity: 0.5"/>
   </g>
   <g id="patch_129">
    <path d="M 332.055937 448.56 
L 333.690417 448.56 
L 333.690417 448.56 
L 332.055937 448.56 
z
" clip-path="url(#p9d830e6c23)" style="fill: #7f7f7f; opacity: 0.5"/>
   </g>
   <g id="patch_130">
    <path d="M 334.099038 448.56 
L 335.733518 448.56 
L 335.733518 448.56 
L 334.099038 448.56 
z
" clip-path="url(#p9d830e6c23)" style="fill: #7f7f7f; opacity: 0.5"/>
   </g>
   <g id="patch_131">
    <path d="M 336.142138 448.56 
L 337.776619 448.56 
L 337.776619 422.688 
L 336.142138 422.688 
z
" clip-path="url(#p9d830e6c23)" style="fill: #7f7f7f; opacity: 0.5"/>
   </g>
   <g id="patch_132">
    <path d="M 338.185239 448.56 
L 339.81972 448.56 
L 339.81972 448.56 
L 338.185239 448.56 
z
" clip-path="url(#p9d830e6c23)" style="fill: #7f7f7f; opacity: 0.5"/>
   </g>
   <g id="patch_133">
    <path d="M 340.22834 448.56 
L 341.86282 448.56 
L 341.86282 448.56 
L 340.22834 448.56 
z
" clip-path="url(#p9d830e6c23)" style="fill: #7f7f7f; opacity: 0.5"/>
   </g>
   <g id="patch_134">
    <path d="M 342.271441 448.56 
L 343.905921 448.56 
L 343.905921 448.56 
L 342.271441 448.56 
z
" clip-path="url(#p9d830e6c23)" style="fill: #7f7f7f; opacity: 0.5"/>
   </g>
   <g id="patch_135">
    <path d="M 344.314541 448.56 
L 345.949022 448.56 
L 345.949022 448.56 
L 344.314541 448.56 
z
" clip-path="url(#p9d830e6c23)" style="fill: #7f7f7f; opacity: 0.5"/>
   </g>
   <g id="patch_136">
    <path d="M 346.357642 448.56 
L 347.992123 448.56 
L 347.992123 448.56 
L 346.357642 448.56 
z
" clip-path="url(#p9d830e6c23)" style="fill: #7f7f7f; opacity: 0.5"/>
   </g>
   <g id="patch_137">
    <path d="M 348.400743 448.56 
L 350.035223 448.56 
L 350.035223 448.56 
L 348.400743 448.56 
z
" clip-path="url(#p9d830e6c23)" style="fill: #7f7f7f; opacity: 0.5"/>
   </g>
   <g id="patch_138">
    <path d="M 350.443843 448.56 
L 352.078324 448.56 
L 352.078324 422.688 
L 350.443843 422.688 
z
" clip-path="url(#p9d830e6c23)" style="fill: #7f7f7f; opacity: 0.5"/>
   </g>
   <g id="patch_139">
    <path d="M 352.486944 448.56 
L 354.121425 448.56 
L 354.121425 448.56 
L 352.486944 448.56 
z
" clip-path="url(#p9d830e6c23)" style="fill: #7f7f7f; opacity: 0.5"/>
   </g>
   <g id="patch_140">
    <path d="M 354.530045 448.56 
L 356.164526 448.56 
L 356.164526 448.56 
L 354.530045 448.56 
z
" clip-path="url(#p9d830e6c23)" style="fill: #7f7f7f; opacity: 0.5"/>
   </g>
   <g id="patch_141">
    <path d="M 356.573146 448.56 
L 358.207626 448.56 
L 358.207626 448.56 
L 356.573146 448.56 
z
" clip-path="url(#p9d830e6c23)" style="fill: #7f7f7f; opacity: 0.5"/>
   </g>
   <g id="patch_142">
    <path d="M 358.616246 448.56 
L 360.250727 448.56 
L 360.250727 448.56 
L 358.616246 448.56 
z
" clip-path="url(#p9d830e6c23)" style="fill: #7f7f7f; opacity: 0.5"/>
   </g>
   <g id="patch_143">
    <path d="M 360.659347 448.56 
L 362.293828 448.56 
L 362.293828 448.56 
L 360.659347 448.56 
z
" clip-path="url(#p9d830e6c23)" style="fill: #7f7f7f; opacity: 0.5"/>
   </g>
   <g id="patch_144">
    <path d="M 362.702448 448.56 
L 364.336929 448.56 
L 364.336929 448.56 
L 362.702448 448.56 
z
" clip-path="url(#p9d830e6c23)" style="fill: #7f7f7f; opacity: 0.5"/>
   </g>
   <g id="patch_145">
    <path d="M 364.745549 448.56 
L 366.380029 448.56 
L 366.380029 448.56 
L 364.745549 448.56 
z
" clip-path="url(#p9d830e6c23)" style="fill: #7f7f7f; opacity: 0.5"/>
   </g>
   <g id="patch_146">
    <path d="M 366.788649 448.56 
L 368.42313 448.56 
L 368.42313 448.56 
L 366.788649 448.56 
z
" clip-path="url(#p9d830e6c23)" style="fill: #7f7f7f; opacity: 0.5"/>
   </g>
   <g id="patch_147">
    <path d="M 368.83175 448.56 
L 370.466231 448.56 
L 370.466231 448.56 
L 368.83175 448.56 
z
" clip-path="url(#p9d830e6c23)" style="fill: #7f7f7f; opacity: 0.5"/>
   </g>
   <g id="patch_148">
    <path d="M 370.874851 448.56 
L 372.509332 448.56 
L 372.509332 448.56 
L 370.874851 448.56 
z
" clip-path="url(#p9d830e6c23)" style="fill: #7f7f7f; opacity: 0.5"/>
   </g>
   <g id="patch_149">
    <path d="M 372.917952 448.56 
L 374.552432 448.56 
L 374.552432 448.56 
L 372.917952 448.56 
z
" clip-path="url(#p9d830e6c23)" style="fill: #7f7f7f; opacity: 0.5"/>
   </g>
   <g id="patch_150">
    <path d="M 374.961052 448.56 
L 376.595533 448.56 
L 376.595533 448.56 
L 374.961052 448.56 
z
" clip-path="url(#p9d830e6c23)" style="fill: #7f7f7f; opacity: 0.5"/>
   </g>
   <g id="patch_151">
    <path d="M 377.004153 448.56 
L 378.638634 448.56 
L 378.638634 448.56 
L 377.004153 448.56 
z
" clip-path="url(#p9d830e6c23)" style="fill: #7f7f7f; opacity: 0.5"/>
   </g>
   <g id="patch_152">
    <path d="M 379.047254 448.56 
L 380.681734 448.56 
L 380.681734 448.56 
L 379.047254 448.56 
z
" clip-path="url(#p9d830e6c23)" style="fill: #7f7f7f; opacity: 0.5"/>
   </g>
   <g id="patch_153">
    <path d="M 381.090355 448.56 
L 382.724835 448.56 
L 382.724835 448.56 
L 381.090355 448.56 
z
" clip-path="url(#p9d830e6c23)" style="fill: #7f7f7f; opacity: 0.5"/>
   </g>
   <g id="patch_154">
    <path d="M 383.133455 448.56 
L 384.767936 448.56 
L 384.767936 448.56 
L 383.133455 448.56 
z
" clip-path="url(#p9d830e6c23)" style="fill: #7f7f7f; opacity: 0.5"/>
   </g>
   <g id="patch_155">
    <path d="M 385.176556 448.56 
L 386.811037 448.56 
L 386.811037 448.56 
L 385.176556 448.56 
z
" clip-path="url(#p9d830e6c23)" style="fill: #7f7f7f; opacity: 0.5"/>
   </g>
   <g id="patch_156">
    <path d="M 387.219657 448.56 
L 388.854137 448.56 
L 388.854137 448.56 
L 387.219657 448.56 
z
" clip-path="url(#p9d830e6c23)" style="fill: #7f7f7f; opacity: 0.5"/>
   </g>
   <g id="patch_157">
    <path d="M 389.262758 448.56 
L 390.897238 448.56 
L 390.897238 448.56 
L 389.262758 448.56 
z
" clip-path="url(#p9d830e6c23)" style="fill: #7f7f7f; opacity: 0.5"/>
   </g>
   <g id="patch_158">
    <path d="M 391.305858 448.56 
L 392.940339 448.56 
L 392.940339 448.56 
L 391.305858 448.56 
z
" clip-path="url(#p9d830e6c23)" style="fill: #7f7f7f; opacity: 0.5"/>
   </g>
   <g id="patch_159">
    <path d="M 393.348959 448.56 
L 394.98344 448.56 
L 394.98344 448.56 
L 393.348959 448.56 
z
" clip-path="url(#p9d830e6c23)" style="fill: #7f7f7f; opacity: 0.5"/>
   </g>
   <g id="patch_160">
    <path d="M 395.39206 448.56 
L 397.02654 448.56 
L 397.02654 448.56 
L 395.39206 448.56 
z
" clip-path="url(#p9d830e6c23)" style="fill: #7f7f7f; opacity: 0.5"/>
   </g>
   <g id="patch_161">
    <path d="M 397.435161 448.56 
L 399.069641 448.56 
L 399.069641 448.56 
L 397.435161 448.56 
z
" clip-path="url(#p9d830e6c23)" style="fill: #7f7f7f; opacity: 0.5"/>
   </g>
   <g id="patch_162">
    <path d="M 399.478261 448.56 
L 401.112742 448.56 
L 401.112742 448.56 
L 399.478261 448.56 
z
" clip-path="url(#p9d830e6c23)" style="fill: #7f7f7f; opacity: 0.5"/>
   </g>
   <g id="patch_163">
    <path d="M 401.521362 448.56 
L 403.155843 448.56 
L 403.155843 448.56 
L 401.521362 448.56 
z
" clip-path="url(#p9d830e6c23)" style="fill: #7f7f7f; opacity: 0.5"/>
   </g>
   <g id="patch_164">
    <path d="M 403.564463 448.56 
L 405.198943 448.56 
L 405.198943 448.56 
L 403.564463 448.56 
z
" clip-path="url(#p9d830e6c23)" style="fill: #7f7f7f; opacity: 0.5"/>
   </g>
   <g id="patch_165">
    <path d="M 405.607564 448.56 
L 407.242044 448.56 
L 407.242044 448.56 
L 405.607564 448.56 
z
" clip-path="url(#p9d830e6c23)" style="fill: #7f7f7f; opacity: 0.5"/>
   </g>
   <g id="patch_166">
    <path d="M 407.650664 448.56 
L 409.285145 448.56 
L 409.285145 448.56 
L 407.650664 448.56 
z
" clip-path="url(#p9d830e6c23)" style="fill: #7f7f7f; opacity: 0.5"/>
   </g>
   <g id="patch_167">
    <path d="M 409.693765 448.56 
L 411.328246 448.56 
L 411.328246 448.56 
L 409.693765 448.56 
z
" clip-path="url(#p9d830e6c23)" style="fill: #7f7f7f; opacity: 0.5"/>
   </g>
   <g id="patch_168">
    <path d="M 411.736866 448.56 
L 413.371346 448.56 
L 413.371346 448.56 
L 411.736866 448.56 
z
" clip-path="url(#p9d830e6c23)" style="fill: #7f7f7f; opacity: 0.5"/>
   </g>
   <g id="patch_169">
    <path d="M 413.779967 448.56 
L 415.414447 448.56 
L 415.414447 448.56 
L 413.779967 448.56 
z
" clip-path="url(#p9d830e6c23)" style="fill: #7f7f7f; opacity: 0.5"/>
   </g>
   <g id="patch_170">
    <path d="M 415.823067 448.56 
L 417.457548 448.56 
L 417.457548 448.56 
L 415.823067 448.56 
z
" clip-path="url(#p9d830e6c23)" style="fill: #7f7f7f; opacity: 0.5"/>
   </g>
   <g id="patch_171">
    <path d="M 417.866168 448.56 
L 419.500649 448.56 
L 419.500649 448.56 
L 417.866168 448.56 
z
" clip-path="url(#p9d830e6c23)" style="fill: #7f7f7f; opacity: 0.5"/>
   </g>
   <g id="patch_172">
    <path d="M 419.909269 448.56 
L 421.543749 448.56 
L 421.543749 448.56 
L 419.909269 448.56 
z
" clip-path="url(#p9d830e6c23)" style="fill: #7f7f7f; opacity: 0.5"/>
   </g>
   <g id="patch_173">
    <path d="M 421.952369 448.56 
L 423.58685 448.56 
L 423.58685 448.56 
L 421.952369 448.56 
z
" clip-path="url(#p9d830e6c23)" style="fill: #7f7f7f; opacity: 0.5"/>
   </g>
   <g id="patch_174">
    <path d="M 423.99547 448.56 
L 425.629951 448.56 
L 425.629951 448.56 
L 423.99547 448.56 
z
" clip-path="url(#p9d830e6c23)" style="fill: #7f7f7f; opacity: 0.5"/>
   </g>
   <g id="patch_175">
    <path d="M 426.038571 448.56 
L 427.673052 448.56 
L 427.673052 448.56 
L 426.038571 448.56 
z
" clip-path="url(#p9d830e6c23)" style="fill: #7f7f7f; opacity: 0.5"/>
   </g>
   <g id="patch_176">
    <path d="M 428.081672 448.56 
L 429.716152 448.56 
L 429.716152 448.56 
L 428.081672 448.56 
z
" clip-path="url(#p9d830e6c23)" style="fill: #7f7f7f; opacity: 0.5"/>
   </g>
   <g id="patch_177">
    <path d="M 430.124772 448.56 
L 431.759253 448.56 
L 431.759253 448.56 
L 430.124772 448.56 
z
" clip-path="url(#p9d830e6c23)" style="fill: #7f7f7f; opacity: 0.5"/>
   </g>
   <g id="patch_178">
    <path d="M 432.167873 448.56 
L 433.802354 448.56 
L 433.802354 448.56 
L 432.167873 448.56 
z
" clip-path="url(#p9d830e6c23)" style="fill: #7f7f7f; opacity: 0.5"/>
   </g>
   <g id="patch_179">
    <path d="M 434.210974 448.56 
L 435.845455 448.56 
L 435.845455 448.56 
L 434.210974 448.56 
z
" clip-path="url(#p9d830e6c23)" style="fill: #7f7f7f; opacity: 0.5"/>
   </g>
   <g id="matplotlib.axis_3">
    <g id="ytick_10">
     <g id="line2d_20">
      <defs>
       <path id="m921a5e8d0a" d="M 0 0 
L 3.5 0 
" style="stroke: #7f7f7f; stroke-width: 0.8"/>
      </defs>
      <g>
       <use xlink:href="#m921a5e8d0a" x="453.6" y="448.56" style="fill: #7f7f7f; stroke: #7f7f7f; stroke-width: 0.8"/>
      </g>
     </g>
     <g id="text_19">
      <text style="font-size: 16px; font-family: 'Arial', sans-serif; text-anchor: start; fill: #7f7f7f" x="460.6" y="454.28625" transform="rotate(-0 460.6 454.28625)">0</text>
     </g>
    </g>
    <g id="ytick_11">
     <g id="line2d_21">
      <g>
       <use xlink:href="#m921a5e8d0a" x="453.6" y="396.816" style="fill: #7f7f7f; stroke: #7f7f7f; stroke-width: 0.8"/>
      </g>
     </g>
     <g id="text_20">
      <text style="font-size: 16px; font-family: 'Arial', sans-serif; text-anchor: start; fill: #7f7f7f" x="460.6" y="402.54225" transform="rotate(-0 460.6 402.54225)">2</text>
     </g>
    </g>
    <g id="ytick_12">
     <g id="line2d_22">
      <g>
       <use xlink:href="#m921a5e8d0a" x="453.6" y="345.072" style="fill: #7f7f7f; stroke: #7f7f7f; stroke-width: 0.8"/>
      </g>
     </g>
     <g id="text_21">
      <text style="font-size: 16px; font-family: 'Arial', sans-serif; text-anchor: start; fill: #7f7f7f" x="460.6" y="350.79825" transform="rotate(-0 460.6 350.79825)">4</text>
     </g>
    </g>
    <g id="ytick_13">
     <g id="line2d_23">
      <g>
       <use xlink:href="#m921a5e8d0a" x="453.6" y="293.328" style="fill: #7f7f7f; stroke: #7f7f7f; stroke-width: 0.8"/>
      </g>
     </g>
     <g id="text_22">
      <text style="font-size: 16px; font-family: 'Arial', sans-serif; text-anchor: start; fill: #7f7f7f" x="460.6" y="299.05425" transform="rotate(-0 460.6 299.05425)">6</text>
     </g>
    </g>
    <g id="ytick_14">
     <g id="line2d_24">
      <g>
       <use xlink:href="#m921a5e8d0a" x="453.6" y="241.584" style="fill: #7f7f7f; stroke: #7f7f7f; stroke-width: 0.8"/>
      </g>
     </g>
     <g id="text_23">
      <text style="font-size: 16px; font-family: 'Arial', sans-serif; text-anchor: start; fill: #7f7f7f" x="460.6" y="247.31025" transform="rotate(-0 460.6 247.31025)">8</text>
     </g>
    </g>
    <g id="ytick_15">
     <g id="line2d_25">
      <g>
       <use xlink:href="#m921a5e8d0a" x="453.6" y="189.84" style="fill: #7f7f7f; stroke: #7f7f7f; stroke-width: 0.8"/>
      </g>
     </g>
     <g id="text_24">
      <text style="font-size: 16px; font-family: 'Arial', sans-serif; text-anchor: start; fill: #7f7f7f" x="460.6" y="195.56625" transform="rotate(-0 460.6 195.56625)">10</text>
     </g>
    </g>
    <g id="ytick_16">
     <g id="line2d_26">
      <g>
       <use xlink:href="#m921a5e8d0a" x="453.6" y="138.096" style="fill: #7f7f7f; stroke: #7f7f7f; stroke-width: 0.8"/>
      </g>
     </g>
     <g id="text_25">
      <text style="font-size: 16px; font-family: 'Arial', sans-serif; text-anchor: start; fill: #7f7f7f" x="460.6" y="143.82225" transform="rotate(-0 460.6 143.82225)">12</text>
     </g>
    </g>
    <g id="ytick_17">
     <g id="line2d_27">
      <g>
       <use xlink:href="#m921a5e8d0a" x="453.6" y="86.352" style="fill: #7f7f7f; stroke: #7f7f7f; stroke-width: 0.8"/>
      </g>
     </g>
     <g id="text_26">
      <text style="font-size: 16px; font-family: 'Arial', sans-serif; text-anchor: start; fill: #7f7f7f" x="460.6" y="92.07825" transform="rotate(-0 460.6 92.07825)">14</text>
     </g>
    </g>
    <g id="text_27">
     <text style="font-size: 16px; font-family: 'Arial', sans-serif; text-anchor: middle; fill: #7f7f7f" x="493.8475" y="254.52" transform="rotate(-90 493.8475 254.52)">Number of cases</text>
    </g>
   </g>
   <g id="patch_180">
    <path d="M 453.6 448.56 
L 453.6 60.48 
" style="fill: none; stroke: #7f7f7f; stroke-width: 0.8; stroke-linejoin: miter; stroke-linecap: square"/>
   </g>
  </g>
 </g>
 <defs>
  <clipPath id="p9d830e6c23">
   <rect x="63" y="60.48" width="390.6" height="388.08"/>
  </clipPath>
 </defs>
</svg>
