<?xml version="1.0" encoding="utf-8" standalone="no"?>
<!DOCTYPE svg PUBLIC "-//W3C//DTD SVG 1.1//EN"
  "http://www.w3.org/Graphics/SVG/1.1/DTD/svg11.dtd">
<svg xmlns:xlink="http://www.w3.org/1999/xlink" width="504pt" height="504pt" viewBox="0 0 504 504" xmlns="http://www.w3.org/2000/svg" version="1.1">
 <metadata>
  <rdf:RDF xmlns:dc="http://purl.org/dc/elements/1.1/" xmlns:cc="http://creativecommons.org/ns#" xmlns:rdf="http://www.w3.org/1999/02/22-rdf-syntax-ns#">
   <cc:Work>
    <dc:type rdf:resource="http://purl.org/dc/dcmitype/StillImage"/>
    <dc:date>2026-06-23T21:20:09.510008</dc:date>
    <dc:format>image/svg+xml</dc:format>
    <dc:creator>
     <cc:Agent>
      <dc:title>Matplotlib v3.11.0, https://matplotlib.org/</dc:title>
     </cc:Agent>
    </dc:creator>
   </cc:Work>
  </rdf:RDF>
 </metadata>
 <defs>
  <style type="text/css">*{stroke-linejoin: round; stroke-linecap: butt}</style>
 </defs>
 <g id="figure_1">
  <g id="patch_1">
   <path d="M 0 504 
L 504 504 
L 504 0 
L 0 0 
L 0 504 
z
" style="fill: none"/>
  </g>
  <g id="axes_1">
   <g id="patch_2">
    <path d="M 63 448.56 
L 453.6 448.56 
L 453.6 60.48 
L 63 60.48 
L 63 448.56 
z
" style="fill: none"/>
   </g>
   <g id="patch_3">
    <path d="M 80.754545 448.56 
L 82.389026 448.56 
L 82.389026 396.816 
L 80.754545 396.816 
z
" clip-path="url(#p7f5bb75d0e)" style="fill: #7f7f7f; opacity: 0.5"/>
   </g>
   <g id="patch_4">
    <path d="M 82.797646 448.56 
L 84.432127 448.56 
L 84.432127 396.816 
L 82.797646 396.816 
z
" clip-path="url(#p7f5bb75d0e)" style="fill: #7f7f7f; opacity: 0.5"/>
   </g>
   <g id="patch_5">
    <path d="M 84.840747 448.56 
L 86.475228 448.56 
L 86.475228 396.816 
L 84.840747 396.816 
z
" clip-path="url(#p7f5bb75d0e)" style="fill: #7f7f7f; opacity: 0.5"/>
   </g>
   <g id="patch_6">
    <path d="M 86.883848 448.56 
L 88.518328 448.56 
L 88.518328 448.56 
L 86.883848 448.56 
z
" clip-path="url(#p7f5bb75d0e)" style="fill: #7f7f7f; opacity: 0.5"/>
   </g>
   <g id="patch_7">
    <path d="M 88.926948 448.56 
L 90.561429 448.56 
L 90.561429 448.56 
L 88.926948 448.56 
z
" clip-path="url(#p7f5bb75d0e)" style="fill: #7f7f7f; opacity: 0.5"/>
   </g>
   <g id="patch_8">
    <path d="M 90.970049 448.56 
L 92.60453 448.56 
L 92.60453 448.56 
L 90.970049 448.56 
z
" clip-path="url(#p7f5bb75d0e)" style="fill: #7f7f7f; opacity: 0.5"/>
   </g>
   <g id="patch_9">
    <path d="M 93.01315 448.56 
L 94.647631 448.56 
L 94.647631 448.56 
L 93.01315 448.56 
z
" clip-path="url(#p7f5bb75d0e)" style="fill: #7f7f7f; opacity: 0.5"/>
   </g>
   <g id="patch_10">
    <path d="M 95.056251 448.56 
L 96.690731 448.56 
L 96.690731 448.56 
L 95.056251 448.56 
z
" clip-path="url(#p7f5bb75d0e)" style="fill: #7f7f7f; opacity: 0.5"/>
   </g>
   <g id="patch_11">
    <path d="M 97.099351 448.56 
L 98.733832 448.56 
L 98.733832 448.56 
L 97.099351 448.56 
z
" clip-path="url(#p7f5bb75d0e)" style="fill: #7f7f7f; opacity: 0.5"/>
   </g>
   <g id="patch_12">
    <path d="M 99.142452 448.56 
L 100.776933 448.56 
L 100.776933 422.688 
L 99.142452 422.688 
z
" clip-path="url(#p7f5bb75d0e)" style="fill: #7f7f7f; opacity: 0.5"/>
   </g>
   <g id="patch_13">
    <path d="M 101.185553 448.56 
L 102.820033 448.56 
L 102.820033 448.56 
L 101.185553 448.56 
z
" clip-path="url(#p7f5bb75d0e)" style="fill: #7f7f7f; opacity: 0.5"/>
   </g>
   <g id="patch_14">
    <path d="M 103.228654 448.56 
L 104.863134 448.56 
L 104.863134 448.56 
L 103.228654 448.56 
z
" clip-path="url(#p7f5bb75d0e)" style="fill: #7f7f7f; opacity: 0.5"/>
   </g>
   <g id="patch_15">
    <path d="M 105.271754 448.56 
L 106.906235 448.56 
L 106.906235 448.56 
L 105.271754 448.56 
z
" clip-path="url(#p7f5bb75d0e)" style="fill: #7f7f7f; opacity: 0.5"/>
   </g>
   <g id="patch_16">
    <path d="M 107.314855 448.56 
L 108.949336 448.56 
L 108.949336 448.56 
L 107.314855 448.56 
z
" clip-path="url(#p7f5bb75d0e)" style="fill: #7f7f7f; opacity: 0.5"/>
   </g>
   <g id="patch_17">
    <path d="M 109.357956 448.56 
L 110.992436 448.56 
L 110.992436 448.56 
L 109.357956 448.56 
z
" clip-path="url(#p7f5bb75d0e)" style="fill: #7f7f7f; opacity: 0.5"/>
   </g>
   <g id="patch_18">
    <path d="M 111.401057 448.56 
L 113.035537 448.56 
L 113.035537 448.56 
L 111.401057 448.56 
z
" clip-path="url(#p7f5bb75d0e)" style="fill: #7f7f7f; opacity: 0.5"/>
   </g>
   <g id="patch_19">
    <path d="M 113.444157 448.56 
L 115.078638 448.56 
L 115.078638 448.56 
L 113.444157 448.56 
z
" clip-path="url(#p7f5bb75d0e)" style="fill: #7f7f7f; opacity: 0.5"/>
   </g>
   <g id="patch_20">
    <path d="M 115.487258 448.56 
L 117.121739 448.56 
L 117.121739 448.56 
L 115.487258 448.56 
z
" clip-path="url(#p7f5bb75d0e)" style="fill: #7f7f7f; opacity: 0.5"/>
   </g>
   <g id="patch_21">
    <path d="M 117.530359 448.56 
L 119.164839 448.56 
L 119.164839 448.56 
L 117.530359 448.56 
z
" clip-path="url(#p7f5bb75d0e)" style="fill: #7f7f7f; opacity: 0.5"/>
   </g>
   <g id="patch_22">
    <path d="M 119.57346 448.56 
L 121.20794 448.56 
L 121.20794 422.688 
L 119.57346 422.688 
z
" clip-path="url(#p7f5bb75d0e)" style="fill: #7f7f7f; opacity: 0.5"/>
   </g>
   <g id="patch_23">
    <path d="M 121.61656 448.56 
L 123.251041 448.56 
L 123.251041 448.56 
L 121.61656 448.56 
z
" clip-path="url(#p7f5bb75d0e)" style="fill: #7f7f7f; opacity: 0.5"/>
   </g>
   <g id="patch_24">
    <path d="M 123.659661 448.56 
L 125.294142 448.56 
L 125.294142 448.56 
L 123.659661 448.56 
z
" clip-path="url(#p7f5bb75d0e)" style="fill: #7f7f7f; opacity: 0.5"/>
   </g>
   <g id="patch_25">
    <path d="M 125.702762 448.56 
L 127.337242 448.56 
L 127.337242 422.688 
L 125.702762 422.688 
z
" clip-path="url(#p7f5bb75d0e)" style="fill: #7f7f7f; opacity: 0.5"/>
   </g>
   <g id="patch_26">
    <path d="M 127.745863 448.56 
L 129.380343 448.56 
L 129.380343 448.56 
L 127.745863 448.56 
z
" clip-path="url(#p7f5bb75d0e)" style="fill: #7f7f7f; opacity: 0.5"/>
   </g>
   <g id="patch_27">
    <path d="M 129.788963 448.56 
L 131.423444 448.56 
L 131.423444 422.688 
L 129.788963 422.688 
z
" clip-path="url(#p7f5bb75d0e)" style="fill: #7f7f7f; opacity: 0.5"/>
   </g>
   <g id="patch_28">
    <path d="M 131.832064 448.56 
L 133.466545 448.56 
L 133.466545 448.56 
L 131.832064 448.56 
z
" clip-path="url(#p7f5bb75d0e)" style="fill: #7f7f7f; opacity: 0.5"/>
   </g>
   <g id="patch_29">
    <path d="M 133.875165 448.56 
L 135.509645 448.56 
L 135.509645 422.688 
L 133.875165 422.688 
z
" clip-path="url(#p7f5bb75d0e)" style="fill: #7f7f7f; opacity: 0.5"/>
   </g>
   <g id="patch_30">
    <path d="M 135.918266 448.56 
L 137.552746 448.56 
L 137.552746 448.56 
L 135.918266 448.56 
z
" clip-path="url(#p7f5bb75d0e)" style="fill: #7f7f7f; opacity: 0.5"/>
   </g>
   <g id="patch_31">
    <path d="M 137.961366 448.56 
L 139.595847 448.56 
L 139.595847 422.688 
L 137.961366 422.688 
z
" clip-path="url(#p7f5bb75d0e)" style="fill: #7f7f7f; opacity: 0.5"/>
   </g>
   <g id="patch_32">
    <path d="M 140.004467 448.56 
L 141.638948 448.56 
L 141.638948 422.688 
L 140.004467 422.688 
z
" clip-path="url(#p7f5bb75d0e)" style="fill: #7f7f7f; opacity: 0.5"/>
   </g>
   <g id="patch_33">
    <path d="M 142.047568 448.56 
L 143.682048 448.56 
L 143.682048 448.56 
L 142.047568 448.56 
z
" clip-path="url(#p7f5bb75d0e)" style="fill: #7f7f7f; opacity: 0.5"/>
   </g>
   <g id="patch_34">
    <path d="M 144.090668 448.56 
L 145.725149 448.56 
L 145.725149 422.688 
L 144.090668 422.688 
z
" clip-path="url(#p7f5bb75d0e)" style="fill: #7f7f7f; opacity: 0.5"/>
   </g>
   <g id="patch_35">
    <path d="M 146.133769 448.56 
L 147.76825 448.56 
L 147.76825 422.688 
L 146.133769 422.688 
z
" clip-path="url(#p7f5bb75d0e)" style="fill: #7f7f7f; opacity: 0.5"/>
   </g>
   <g id="patch_36">
    <path d="M 148.17687 448.56 
L 149.811351 448.56 
L 149.811351 448.56 
L 148.17687 448.56 
z
" clip-path="url(#p7f5bb75d0e)" style="fill: #7f7f7f; opacity: 0.5"/>
   </g>
   <g id="patch_37">
    <path d="M 150.219971 448.56 
L 151.854451 448.56 
L 151.854451 422.688 
L 150.219971 422.688 
z
" clip-path="url(#p7f5bb75d0e)" style="fill: #7f7f7f; opacity: 0.5"/>
   </g>
   <g id="patch_38">
    <path d="M 152.263071 448.56 
L 153.897552 448.56 
L 153.897552 448.56 
L 152.263071 448.56 
z
" clip-path="url(#p7f5bb75d0e)" style="fill: #7f7f7f; opacity: 0.5"/>
   </g>
   <g id="patch_39">
    <path d="M 154.306172 448.56 
L 155.940653 448.56 
L 155.940653 448.56 
L 154.306172 448.56 
z
" clip-path="url(#p7f5bb75d0e)" style="fill: #7f7f7f; opacity: 0.5"/>
   </g>
   <g id="patch_40">
    <path d="M 156.349273 448.56 
L 157.983754 448.56 
L 157.983754 370.944 
L 156.349273 370.944 
z
" clip-path="url(#p7f5bb75d0e)" style="fill: #7f7f7f; opacity: 0.5"/>
   </g>
   <g id="patch_41">
    <path d="M 158.392374 448.56 
L 160.026854 448.56 
L 160.026854 396.816 
L 158.392374 396.816 
z
" clip-path="url(#p7f5bb75d0e)" style="fill: #7f7f7f; opacity: 0.5"/>
   </g>
   <g id="patch_42">
    <path d="M 160.435474 448.56 
L 162.069955 448.56 
L 162.069955 422.688 
L 160.435474 422.688 
z
" clip-path="url(#p7f5bb75d0e)" style="fill: #7f7f7f; opacity: 0.5"/>
   </g>
   <g id="patch_43">
    <path d="M 162.478575 448.56 
L 164.113056 448.56 
L 164.113056 422.688 
L 162.478575 422.688 
z
" clip-path="url(#p7f5bb75d0e)" style="fill: #7f7f7f; opacity: 0.5"/>
   </g>
   <g id="patch_44">
    <path d="M 164.521676 448.56 
L 166.156157 448.56 
L 166.156157 422.688 
L 164.521676 422.688 
z
" clip-path="url(#p7f5bb75d0e)" style="fill: #7f7f7f; opacity: 0.5"/>
   </g>
   <g id="patch_45">
    <path d="M 166.564777 448.56 
L 168.199257 448.56 
L 168.199257 422.688 
L 166.564777 422.688 
z
" clip-path="url(#p7f5bb75d0e)" style="fill: #7f7f7f; opacity: 0.5"/>
   </g>
   <g id="patch_46">
    <path d="M 168.607877 448.56 
L 170.242358 448.56 
L 170.242358 370.944 
L 168.607877 370.944 
z
" clip-path="url(#p7f5bb75d0e)" style="fill: #7f7f7f; opacity: 0.5"/>
   </g>
   <g id="patch_47">
    <path d="M 170.650978 448.56 
L 172.285459 448.56 
L 172.285459 448.56 
L 170.650978 448.56 
z
" clip-path="url(#p7f5bb75d0e)" style="fill: #7f7f7f; opacity: 0.5"/>
   </g>
   <g id="patch_48">
    <path d="M 172.694079 448.56 
L 174.328559 448.56 
L 174.328559 422.688 
L 172.694079 422.688 
z
" clip-path="url(#p7f5bb75d0e)" style="fill: #7f7f7f; opacity: 0.5"/>
   </g>
   <g id="patch_49">
    <path d="M 174.73718 448.56 
L 176.37166 448.56 
L 176.37166 422.688 
L 174.73718 422.688 
z
" clip-path="url(#p7f5bb75d0e)" style="fill: #7f7f7f; opacity: 0.5"/>
   </g>
   <g id="patch_50">
    <path d="M 176.78028 448.56 
L 178.414761 448.56 
L 178.414761 345.072 
L 176.78028 345.072 
z
" clip-path="url(#p7f5bb75d0e)" style="fill: #7f7f7f; opacity: 0.5"/>
   </g>
   <g id="patch_51">
    <path d="M 178.823381 448.56 
L 180.457862 448.56 
L 180.457862 370.944 
L 178.823381 370.944 
z
" clip-path="url(#p7f5bb75d0e)" style="fill: #7f7f7f; opacity: 0.5"/>
   </g>
   <g id="patch_52">
    <path d="M 180.866482 448.56 
L 182.500962 448.56 
L 182.500962 370.944 
L 180.866482 370.944 
z
" clip-path="url(#p7f5bb75d0e)" style="fill: #7f7f7f; opacity: 0.5"/>
   </g>
   <g id="patch_53">
    <path d="M 182.909583 448.56 
L 184.544063 448.56 
L 184.544063 396.816 
L 182.909583 396.816 
z
" clip-path="url(#p7f5bb75d0e)" style="fill: #7f7f7f; opacity: 0.5"/>
   </g>
   <g id="patch_54">
    <path d="M 184.952683 448.56 
L 186.587164 448.56 
L 186.587164 345.072 
L 184.952683 345.072 
z
" clip-path="url(#p7f5bb75d0e)" style="fill: #7f7f7f; opacity: 0.5"/>
   </g>
   <g id="patch_55">
    <path d="M 186.995784 448.56 
L 188.630265 448.56 
L 188.630265 345.072 
L 186.995784 345.072 
z
" clip-path="url(#p7f5bb75d0e)" style="fill: #7f7f7f; opacity: 0.5"/>
   </g>
   <g id="patch_56">
    <path d="M 189.038885 448.56 
L 190.673365 448.56 
L 190.673365 241.584 
L 189.038885 241.584 
z
" clip-path="url(#p7f5bb75d0e)" style="fill: #7f7f7f; opacity: 0.5"/>
   </g>
   <g id="patch_57">
    <path d="M 191.081986 448.56 
L 192.716466 448.56 
L 192.716466 319.2 
L 191.081986 319.2 
z
" clip-path="url(#p7f5bb75d0e)" style="fill: #7f7f7f; opacity: 0.5"/>
   </g>
   <g id="patch_58">
    <path d="M 193.125086 448.56 
L 194.759567 448.56 
L 194.759567 241.584 
L 193.125086 241.584 
z
" clip-path="url(#p7f5bb75d0e)" style="fill: #7f7f7f; opacity: 0.5"/>
   </g>
   <g id="patch_59">
    <path d="M 195.168187 448.56 
L 196.802668 448.56 
L 196.802668 319.2 
L 195.168187 319.2 
z
" clip-path="url(#p7f5bb75d0e)" style="fill: #7f7f7f; opacity: 0.5"/>
   </g>
   <g id="patch_60">
    <path d="M 197.211288 448.56 
L 198.845768 448.56 
L 198.845768 345.072 
L 197.211288 345.072 
z
" clip-path="url(#p7f5bb75d0e)" style="fill: #7f7f7f; opacity: 0.5"/>
   </g>
   <g id="patch_61">
    <path d="M 199.254389 448.56 
L 200.888869 448.56 
L 200.888869 319.2 
L 199.254389 319.2 
z
" clip-path="url(#p7f5bb75d0e)" style="fill: #7f7f7f; opacity: 0.5"/>
   </g>
   <g id="patch_62">
    <path d="M 201.297489 448.56 
L 202.93197 448.56 
L 202.93197 267.456 
L 201.297489 267.456 
z
" clip-path="url(#p7f5bb75d0e)" style="fill: #7f7f7f; opacity: 0.5"/>
   </g>
   <g id="patch_63">
    <path d="M 203.34059 448.56 
L 204.975071 448.56 
L 204.975071 396.816 
L 203.34059 396.816 
z
" clip-path="url(#p7f5bb75d0e)" style="fill: #7f7f7f; opacity: 0.5"/>
   </g>
   <g id="patch_64">
    <path d="M 205.383691 448.56 
L 207.018171 448.56 
L 207.018171 422.688 
L 205.383691 422.688 
z
" clip-path="url(#p7f5bb75d0e)" style="fill: #7f7f7f; opacity: 0.5"/>
   </g>
   <g id="patch_65">
    <path d="M 207.426792 448.56 
L 209.061272 448.56 
L 209.061272 241.584 
L 207.426792 241.584 
z
" clip-path="url(#p7f5bb75d0e)" style="fill: #7f7f7f; opacity: 0.5"/>
   </g>
   <g id="patch_66">
    <path d="M 209.469892 448.56 
L 211.104373 448.56 
L 211.104373 396.816 
L 209.469892 396.816 
z
" clip-path="url(#p7f5bb75d0e)" style="fill: #7f7f7f; opacity: 0.5"/>
   </g>
   <g id="patch_67">
    <path d="M 211.512993 448.56 
L 213.147474 448.56 
L 213.147474 345.072 
L 211.512993 345.072 
z
" clip-path="url(#p7f5bb75d0e)" style="fill: #7f7f7f; opacity: 0.5"/>
   </g>
   <g id="patch_68">
    <path d="M 213.556094 448.56 
L 215.190574 448.56 
L 215.190574 396.816 
L 213.556094 396.816 
z
" clip-path="url(#p7f5bb75d0e)" style="fill: #7f7f7f; opacity: 0.5"/>
   </g>
   <g id="patch_69">
    <path d="M 215.599194 448.56 
L 217.233675 448.56 
L 217.233675 215.712 
L 215.599194 215.712 
z
" clip-path="url(#p7f5bb75d0e)" style="fill: #7f7f7f; opacity: 0.5"/>
   </g>
   <g id="patch_70">
    <path d="M 217.642295 448.56 
L 219.276776 448.56 
L 219.276776 241.584 
L 217.642295 241.584 
z
" clip-path="url(#p7f5bb75d0e)" style="fill: #7f7f7f; opacity: 0.5"/>
   </g>
   <g id="patch_71">
    <path d="M 219.685396 448.56 
L 221.319877 448.56 
L 221.319877 241.584 
L 219.685396 241.584 
z
" clip-path="url(#p7f5bb75d0e)" style="fill: #7f7f7f; opacity: 0.5"/>
   </g>
   <g id="patch_72">
    <path d="M 221.728497 448.56 
L 223.362977 448.56 
L 223.362977 267.456 
L 221.728497 267.456 
z
" clip-path="url(#p7f5bb75d0e)" style="fill: #7f7f7f; opacity: 0.5"/>
   </g>
   <g id="patch_73">
    <path d="M 223.771597 448.56 
L 225.406078 448.56 
L 225.406078 215.712 
L 223.771597 215.712 
z
" clip-path="url(#p7f5bb75d0e)" style="fill: #7f7f7f; opacity: 0.5"/>
   </g>
   <g id="patch_74">
    <path d="M 225.814698 448.56 
L 227.449179 448.56 
L 227.449179 138.096 
L 225.814698 138.096 
z
" clip-path="url(#p7f5bb75d0e)" style="fill: #7f7f7f; opacity: 0.5"/>
   </g>
   <g id="patch_75">
    <path d="M 227.857799 448.56 
L 229.49228 448.56 
L 229.49228 138.096 
L 227.857799 138.096 
z
" clip-path="url(#p7f5bb75d0e)" style="fill: #7f7f7f; opacity: 0.5"/>
   </g>
   <g id="patch_76">
    <path d="M 229.9009 448.56 
L 231.53538 448.56 
L 231.53538 267.456 
L 229.9009 267.456 
z
" clip-path="url(#p7f5bb75d0e)" style="fill: #7f7f7f; opacity: 0.5"/>
   </g>
   <g id="patch_77">
    <path d="M 231.944 448.56 
L 233.578481 448.56 
L 233.578481 138.096 
L 231.944 138.096 
z
" clip-path="url(#p7f5bb75d0e)" style="fill: #7f7f7f; opacity: 0.5"/>
   </g>
   <g id="patch_78">
    <path d="M 233.987101 448.56 
L 235.621582 448.56 
L 235.621582 396.816 
L 233.987101 396.816 
z
" clip-path="url(#p7f5bb75d0e)" style="fill: #7f7f7f; opacity: 0.5"/>
   </g>
   <g id="patch_79">
    <path d="M 236.030202 448.56 
L 237.664682 448.56 
L 237.664682 60.48 
L 236.030202 60.48 
z
" clip-path="url(#p7f5bb75d0e)" style="fill: #7f7f7f; opacity: 0.5"/>
   </g>
   <g id="patch_80">
    <path d="M 238.073303 448.56 
L 239.707783 448.56 
L 239.707783 163.968 
L 238.073303 163.968 
z
" clip-path="url(#p7f5bb75d0e)" style="fill: #7f7f7f; opacity: 0.5"/>
   </g>
   <g id="patch_81">
    <path d="M 240.116403 448.56 
L 241.750884 448.56 
L 241.750884 319.2 
L 240.116403 319.2 
z
" clip-path="url(#p7f5bb75d0e)" style="fill: #7f7f7f; opacity: 0.5"/>
   </g>
   <g id="patch_82">
    <path d="M 242.159504 448.56 
L 243.793985 448.56 
L 243.793985 345.072 
L 242.159504 345.072 
z
" clip-path="url(#p7f5bb75d0e)" style="fill: #7f7f7f; opacity: 0.5"/>
   </g>
   <g id="patch_83">
    <path d="M 244.202605 448.56 
L 245.837085 448.56 
L 245.837085 396.816 
L 244.202605 396.816 
z
" clip-path="url(#p7f5bb75d0e)" style="fill: #7f7f7f; opacity: 0.5"/>
   </g>
   <g id="patch_84">
    <path d="M 246.245706 448.56 
L 247.880186 448.56 
L 247.880186 345.072 
L 246.245706 345.072 
z
" clip-path="url(#p7f5bb75d0e)" style="fill: #7f7f7f; opacity: 0.5"/>
   </g>
   <g id="patch_85">
    <path d="M 248.288806 448.56 
L 249.923287 448.56 
L 249.923287 267.456 
L 248.288806 267.456 
z
" clip-path="url(#p7f5bb75d0e)" style="fill: #7f7f7f; opacity: 0.5"/>
   </g>
   <g id="patch_86">
    <path d="M 250.331907 448.56 
L 251.966388 448.56 
L 251.966388 112.224 
L 250.331907 112.224 
z
" clip-path="url(#p7f5bb75d0e)" style="fill: #7f7f7f; opacity: 0.5"/>
   </g>
   <g id="patch_87">
    <path d="M 252.375008 448.56 
L 254.009488 448.56 
L 254.009488 293.328 
L 252.375008 293.328 
z
" clip-path="url(#p7f5bb75d0e)" style="fill: #7f7f7f; opacity: 0.5"/>
   </g>
   <g id="patch_88">
    <path d="M 254.418109 448.56 
L 256.052589 448.56 
L 256.052589 241.584 
L 254.418109 241.584 
z
" clip-path="url(#p7f5bb75d0e)" style="fill: #7f7f7f; opacity: 0.5"/>
   </g>
   <g id="patch_89">
    <path d="M 256.461209 448.56 
L 258.09569 448.56 
L 258.09569 345.072 
L 256.461209 345.072 
z
" clip-path="url(#p7f5bb75d0e)" style="fill: #7f7f7f; opacity: 0.5"/>
   </g>
   <g id="patch_90">
    <path d="M 258.50431 448.56 
L 260.138791 448.56 
L 260.138791 319.2 
L 258.50431 319.2 
z
" clip-path="url(#p7f5bb75d0e)" style="fill: #7f7f7f; opacity: 0.5"/>
   </g>
   <g id="patch_91">
    <path d="M 260.547411 448.56 
L 262.181891 448.56 
L 262.181891 370.944 
L 260.547411 370.944 
z
" clip-path="url(#p7f5bb75d0e)" style="fill: #7f7f7f; opacity: 0.5"/>
   </g>
   <g id="patch_92">
    <path d="M 262.590512 448.56 
L 264.224992 448.56 
L 264.224992 396.816 
L 262.590512 396.816 
z
" clip-path="url(#p7f5bb75d0e)" style="fill: #7f7f7f; opacity: 0.5"/>
   </g>
   <g id="patch_93">
    <path d="M 264.633612 448.56 
L 266.268093 448.56 
L 266.268093 396.816 
L 264.633612 396.816 
z
" clip-path="url(#p7f5bb75d0e)" style="fill: #7f7f7f; opacity: 0.5"/>
   </g>
   <g id="patch_94">
    <path d="M 266.676713 448.56 
L 268.311194 448.56 
L 268.311194 448.56 
L 266.676713 448.56 
z
" clip-path="url(#p7f5bb75d0e)" style="fill: #7f7f7f; opacity: 0.5"/>
   </g>
   <g id="patch_95">
    <path d="M 268.719814 448.56 
L 270.354294 448.56 
L 270.354294 422.688 
L 268.719814 422.688 
z
" clip-path="url(#p7f5bb75d0e)" style="fill: #7f7f7f; opacity: 0.5"/>
   </g>
   <g id="patch_96">
    <path d="M 270.762915 448.56 
L 272.397395 448.56 
L 272.397395 396.816 
L 270.762915 396.816 
z
" clip-path="url(#p7f5bb75d0e)" style="fill: #7f7f7f; opacity: 0.5"/>
   </g>
   <g id="patch_97">
    <path d="M 272.806015 448.56 
L 274.440496 448.56 
L 274.440496 370.944 
L 272.806015 370.944 
z
" clip-path="url(#p7f5bb75d0e)" style="fill: #7f7f7f; opacity: 0.5"/>
   </g>
   <g id="patch_98">
    <path d="M 274.849116 448.56 
L 276.483597 448.56 
L 276.483597 422.688 
L 274.849116 422.688 
z
" clip-path="url(#p7f5bb75d0e)" style="fill: #7f7f7f; opacity: 0.5"/>
   </g>
   <g id="patch_99">
    <path d="M 276.892217 448.56 
L 278.526697 448.56 
L 278.526697 370.944 
L 276.892217 370.944 
z
" clip-path="url(#p7f5bb75d0e)" style="fill: #7f7f7f; opacity: 0.5"/>
   </g>
   <g id="patch_100">
    <path d="M 278.935318 448.56 
L 280.569798 448.56 
L 280.569798 396.816 
L 278.935318 396.816 
z
" clip-path="url(#p7f5bb75d0e)" style="fill: #7f7f7f; opacity: 0.5"/>
   </g>
   <g id="patch_101">
    <path d="M 280.978418 448.56 
L 282.612899 448.56 
L 282.612899 448.56 
L 280.978418 448.56 
z
" clip-path="url(#p7f5bb75d0e)" style="fill: #7f7f7f; opacity: 0.5"/>
   </g>
   <g id="patch_102">
    <path d="M 283.021519 448.56 
L 284.656 448.56 
L 284.656 448.56 
L 283.021519 448.56 
z
" clip-path="url(#p7f5bb75d0e)" style="fill: #7f7f7f; opacity: 0.5"/>
   </g>
   <g id="patch_103">
    <path d="M 285.06462 448.56 
L 286.6991 448.56 
L 286.6991 422.688 
L 285.06462 422.688 
z
" clip-path="url(#p7f5bb75d0e)" style="fill: #7f7f7f; opacity: 0.5"/>
   </g>
   <g id="patch_104">
    <path d="M 287.10772 448.56 
L 288.742201 448.56 
L 288.742201 396.816 
L 287.10772 396.816 
z
" clip-path="url(#p7f5bb75d0e)" style="fill: #7f7f7f; opacity: 0.5"/>
   </g>
   <g id="patch_105">
    <path d="M 289.150821 448.56 
L 290.785302 448.56 
L 290.785302 422.688 
L 289.150821 422.688 
z
" clip-path="url(#p7f5bb75d0e)" style="fill: #7f7f7f; opacity: 0.5"/>
   </g>
   <g id="patch_106">
    <path d="M 291.193922 448.56 
L 292.828403 448.56 
L 292.828403 448.56 
L 291.193922 448.56 
z
" clip-path="url(#p7f5bb75d0e)" style="fill: #7f7f7f; opacity: 0.5"/>
   </g>
   <g id="patch_107">
    <path d="M 293.237023 448.56 
L 294.871503 448.56 
L 294.871503 422.688 
L 293.237023 422.688 
z
" clip-path="url(#p7f5bb75d0e)" style="fill: #7f7f7f; opacity: 0.5"/>
   </g>
   <g id="patch_108">
    <path d="M 295.280123 448.56 
L 296.914604 448.56 
L 296.914604 448.56 
L 295.280123 448.56 
z
" clip-path="url(#p7f5bb75d0e)" style="fill: #7f7f7f; opacity: 0.5"/>
   </g>
   <g id="patch_109">
    <path d="M 297.323224 448.56 
L 298.957705 448.56 
L 298.957705 422.688 
L 297.323224 422.688 
z
" clip-path="url(#p7f5bb75d0e)" style="fill: #7f7f7f; opacity: 0.5"/>
   </g>
   <g id="patch_110">
    <path d="M 299.366325 448.56 
L 301.000806 448.56 
L 301.000806 448.56 
L 299.366325 448.56 
z
" clip-path="url(#p7f5bb75d0e)" style="fill: #7f7f7f; opacity: 0.5"/>
   </g>
   <g id="patch_111">
    <path d="M 301.409426 448.56 
L 303.043906 448.56 
L 303.043906 448.56 
L 301.409426 448.56 
z
" clip-path="url(#p7f5bb75d0e)" style="fill: #7f7f7f; opacity: 0.5"/>
   </g>
   <g id="patch_112">
    <path d="M 303.452526 448.56 
L 305.087007 448.56 
L 305.087007 448.56 
L 303.452526 448.56 
z
" clip-path="url(#p7f5bb75d0e)" style="fill: #7f7f7f; opacity: 0.5"/>
   </g>
   <g id="patch_113">
    <path d="M 305.495627 448.56 
L 307.130108 448.56 
L 307.130108 422.688 
L 305.495627 422.688 
z
" clip-path="url(#p7f5bb75d0e)" style="fill: #7f7f7f; opacity: 0.5"/>
   </g>
   <g id="patch_114">
    <path d="M 307.538728 448.56 
L 309.173208 448.56 
L 309.173208 422.688 
L 307.538728 422.688 
z
" clip-path="url(#p7f5bb75d0e)" style="fill: #7f7f7f; opacity: 0.5"/>
   </g>
   <g id="patch_115">
    <path d="M 309.581829 448.56 
L 311.216309 448.56 
L 311.216309 448.56 
L 309.581829 448.56 
z
" clip-path="url(#p7f5bb75d0e)" style="fill: #7f7f7f; opacity: 0.5"/>
   </g>
   <g id="patch_116">
    <path d="M 311.624929 448.56 
L 313.25941 448.56 
L 313.25941 448.56 
L 311.624929 448.56 
z
" clip-path="url(#p7f5bb75d0e)" style="fill: #7f7f7f; opacity: 0.5"/>
   </g>
   <g id="patch_117">
    <path d="M 313.66803 448.56 
L 315.302511 448.56 
L 315.302511 448.56 
L 313.66803 448.56 
z
" clip-path="url(#p7f5bb75d0e)" style="fill: #7f7f7f; opacity: 0.5"/>
   </g>
   <g id="patch_118">
    <path d="M 315.711131 448.56 
L 317.345611 448.56 
L 317.345611 422.688 
L 315.711131 422.688 
z
" clip-path="url(#p7f5bb75d0e)" style="fill: #7f7f7f; opacity: 0.5"/>
   </g>
   <g id="patch_119">
    <path d="M 317.754232 448.56 
L 319.388712 448.56 
L 319.388712 448.56 
L 317.754232 448.56 
z
" clip-path="url(#p7f5bb75d0e)" style="fill: #7f7f7f; opacity: 0.5"/>
   </g>
   <g id="patch_120">
    <path d="M 319.797332 448.56 
L 321.431813 448.56 
L 321.431813 448.56 
L 319.797332 448.56 
z
" clip-path="url(#p7f5bb75d0e)" style="fill: #7f7f7f; opacity: 0.5"/>
   </g>
   <g id="patch_121">
    <path d="M 321.840433 448.56 
L 323.474914 448.56 
L 323.474914 448.56 
L 321.840433 448.56 
z
" clip-path="url(#p7f5bb75d0e)" style="fill: #7f7f7f; opacity: 0.5"/>
   </g>
   <g id="patch_122">
    <path d="M 323.883534 448.56 
L 325.518014 448.56 
L 325.518014 448.56 
L 323.883534 448.56 
z
" clip-path="url(#p7f5bb75d0e)" style="fill: #7f7f7f; opacity: 0.5"/>
   </g>
   <g id="patch_123">
    <path d="M 325.926635 448.56 
L 327.561115 448.56 
L 327.561115 448.56 
L 325.926635 448.56 
z
" clip-path="url(#p7f5bb75d0e)" style="fill: #7f7f7f; opacity: 0.5"/>
   </g>
   <g id="patch_124">
    <path d="M 327.969735 448.56 
L 329.604216 448.56 
L 329.604216 448.56 
L 327.969735 448.56 
z
" clip-path="url(#p7f5bb75d0e)" style="fill: #7f7f7f; opacity: 0.5"/>
   </g>
   <g id="patch_125">
    <path d="M 330.012836 448.56 
L 331.647317 448.56 
L 331.647317 448.56 
L 330.012836 448.56 
z
" clip-path="url(#p7f5bb75d0e)" style="fill: #7f7f7f; opacity: 0.5"/>
   </g>
   <g id="patch_126">
    <path d="M 332.055937 448.56 
L 333.690417 448.56 
L 333.690417 448.56 
L 332.055937 448.56 
z
" clip-path="url(#p7f5bb75d0e)" style="fill: #7f7f7f; opacity: 0.5"/>
   </g>
   <g id="patch_127">
    <path d="M 334.099038 448.56 
L 335.733518 448.56 
L 335.733518 448.56 
L 334.099038 448.56 
z
" clip-path="url(#p7f5bb75d0e)" style="fill: #7f7f7f; opacity: 0.5"/>
   </g>
   <g id="patch_128">
    <path d="M 336.142138 448.56 
L 337.776619 448.56 
L 337.776619 422.688 
L 336.142138 422.688 
z
" clip-path="url(#p7f5bb75d0e)" style="fill: #7f7f7f; opacity: 0.5"/>
   </g>
   <g id="patch_129">
    <path d="M 338.185239 448.56 
L 339.81972 448.56 
L 339.81972 448.56 
L 338.185239 448.56 
z
" clip-path="url(#p7f5bb75d0e)" style="fill: #7f7f7f; opacity: 0.5"/>
   </g>
   <g id="patch_130">
    <path d="M 340.22834 448.56 
L 341.86282 448.56 
L 341.86282 448.56 
L 340.22834 448.56 
z
" clip-path="url(#p7f5bb75d0e)" style="fill: #7f7f7f; opacity: 0.5"/>
   </g>
   <g id="patch_131">
    <path d="M 342.271441 448.56 
L 343.905921 448.56 
L 343.905921 448.56 
L 342.271441 448.56 
z
" clip-path="url(#p7f5bb75d0e)" style="fill: #7f7f7f; opacity: 0.5"/>
   </g>
   <g id="patch_132">
    <path d="M 344.314541 448.56 
L 345.949022 448.56 
L 345.949022 448.56 
L 344.314541 448.56 
z
" clip-path="url(#p7f5bb75d0e)" style="fill: #7f7f7f; opacity: 0.5"/>
   </g>
   <g id="patch_133">
    <path d="M 346.357642 448.56 
L 347.992123 448.56 
L 347.992123 448.56 
L 346.357642 448.56 
z
" clip-path="url(#p7f5bb75d0e)" style="fill: #7f7f7f; opacity: 0.5"/>
   </g>
   <g id="patch_134">
    <path d="M 348.400743 448.56 
L 350.035223 448.56 
L 350.035223 448.56 
L 348.400743 448.56 
z
" clip-path="url(#p7f5bb75d0e)" style="fill: #7f7f7f; opacity: 0.5"/>
   </g>
   <g id="patch_135">
    <path d="M 350.443843 448.56 
L 352.078324 448.56 
L 352.078324 422.688 
L 350.443843 422.688 
z
" clip-path="url(#p7f5bb75d0e)" style="fill: #7f7f7f; opacity: 0.5"/>
   </g>
   <g id="patch_136">
    <path d="M 352.486944 448.56 
L 354.121425 448.56 
L 354.121425 448.56 
L 352.486944 448.56 
z
" clip-path="url(#p7f5bb75d0e)" style="fill: #7f7f7f; opacity: 0.5"/>
   </g>
   <g id="patch_137">
    <path d="M 354.530045 448.56 
L 356.164526 448.56 
L 356.164526 448.56 
L 354.530045 448.56 
z
" clip-path="url(#p7f5bb75d0e)" style="fill: #7f7f7f; opacity: 0.5"/>
   </g>
   <g id="patch_138">
    <path d="M 356.573146 448.56 
L 358.207626 448.56 
L 358.207626 448.56 
L 356.573146 448.56 
z
" clip-path="url(#p7f5bb75d0e)" style="fill: #7f7f7f; opacity: 0.5"/>
   </g>
   <g id="patch_139">
    <path d="M 358.616246 448.56 
L 360.250727 448.56 
L 360.250727 448.56 
L 358.616246 448.56 
z
" clip-path="url(#p7f5bb75d0e)" style="fill: #7f7f7f; opacity: 0.5"/>
   </g>
   <g id="patch_140">
    <path d="M 360.659347 448.56 
L 362.293828 448.56 
L 362.293828 448.56 
L 360.659347 448.56 
z
" clip-path="url(#p7f5bb75d0e)" style="fill: #7f7f7f; opacity: 0.5"/>
   </g>
   <g id="patch_141">
    <path d="M 362.702448 448.56 
L 364.336929 448.56 
L 364.336929 448.56 
L 362.702448 448.56 
z
" clip-path="url(#p7f5bb75d0e)" style="fill: #7f7f7f; opacity: 0.5"/>
   </g>
   <g id="patch_142">
    <path d="M 364.745549 448.56 
L 366.380029 448.56 
L 366.380029 448.56 
L 364.745549 448.56 
z
" clip-path="url(#p7f5bb75d0e)" style="fill: #7f7f7f; opacity: 0.5"/>
   </g>
   <g id="patch_143">
    <path d="M 366.788649 448.56 
L 368.42313 448.56 
L 368.42313 448.56 
L 366.788649 448.56 
z
" clip-path="url(#p7f5bb75d0e)" style="fill: #7f7f7f; opacity: 0.5"/>
   </g>
   <g id="patch_144">
    <path d="M 368.83175 448.56 
L 370.466231 448.56 
L 370.466231 448.56 
L 368.83175 448.56 
z
" clip-path="url(#p7f5bb75d0e)" style="fill: #7f7f7f; opacity: 0.5"/>
   </g>
   <g id="patch_145">
    <path d="M 370.874851 448.56 
L 372.509332 448.56 
L 372.509332 448.56 
L 370.874851 448.56 
z
" clip-path="url(#p7f5bb75d0e)" style="fill: #7f7f7f; opacity: 0.5"/>
   </g>
   <g id="patch_146">
    <path d="M 372.917952 448.56 
L 374.552432 448.56 
L 374.552432 448.56 
L 372.917952 448.56 
z
" clip-path="url(#p7f5bb75d0e)" style="fill: #7f7f7f; opacity: 0.5"/>
   </g>
   <g id="patch_147">
    <path d="M 374.961052 448.56 
L 376.595533 448.56 
L 376.595533 448.56 
L 374.961052 448.56 
z
" clip-path="url(#p7f5bb75d0e)" style="fill: #7f7f7f; opacity: 0.5"/>
   </g>
   <g id="patch_148">
    <path d="M 377.004153 448.56 
L 378.638634 448.56 
L 378.638634 448.56 
L 377.004153 448.56 
z
" clip-path="url(#p7f5bb75d0e)" style="fill: #7f7f7f; opacity: 0.5"/>
   </g>
   <g id="patch_149">
    <path d="M 379.047254 448.56 
L 380.681734 448.56 
L 380.681734 448.56 
L 379.047254 448.56 
z
" clip-path="url(#p7f5bb75d0e)" style="fill: #7f7f7f; opacity: 0.5"/>
   </g>
   <g id="patch_150">
    <path d="M 381.090355 448.56 
L 382.724835 448.56 
L 382.724835 448.56 
L 381.090355 448.56 
z
" clip-path="url(#p7f5bb75d0e)" style="fill: #7f7f7f; opacity: 0.5"/>
   </g>
   <g id="patch_151">
    <path d="M 383.133455 448.56 
L 384.767936 448.56 
L 384.767936 448.56 
L 383.133455 448.56 
z
" clip-path="url(#p7f5bb75d0e)" style="fill: #7f7f7f; opacity: 0.5"/>
   </g>
   <g id="patch_152">
    <path d="M 385.176556 448.56 
L 386.811037 448.56 
L 386.811037 448.56 
L 385.176556 448.56 
z
" clip-path="url(#p7f5bb75d0e)" style="fill: #7f7f7f; opacity: 0.5"/>
   </g>
   <g id="patch_153">
    <path d="M 387.219657 448.56 
L 388.854137 448.56 
L 388.854137 448.56 
L 387.219657 448.56 
z
" clip-path="url(#p7f5bb75d0e)" style="fill: #7f7f7f; opacity: 0.5"/>
   </g>
   <g id="patch_154">
    <path d="M 389.262758 448.56 
L 390.897238 448.56 
L 390.897238 448.56 
L 389.262758 448.56 
z
" clip-path="url(#p7f5bb75d0e)" style="fill: #7f7f7f; opacity: 0.5"/>
   </g>
   <g id="patch_155">
    <path d="M 391.305858 448.56 
L 392.940339 448.56 
L 392.940339 448.56 
L 391.305858 448.56 
z
" clip-path="url(#p7f5bb75d0e)" style="fill: #7f7f7f; opacity: 0.5"/>
   </g>
   <g id="patch_156">
    <path d="M 393.348959 448.56 
L 394.98344 448.56 
L 394.98344 448.56 
L 393.348959 448.56 
z
" clip-path="url(#p7f5bb75d0e)" style="fill: #7f7f7f; opacity: 0.5"/>
   </g>
   <g id="patch_157">
    <path d="M 395.39206 448.56 
L 397.02654 448.56 
L 397.02654 448.56 
L 395.39206 448.56 
z
" clip-path="url(#p7f5bb75d0e)" style="fill: #7f7f7f; opacity: 0.5"/>
   </g>
   <g id="patch_158">
    <path d="M 397.435161 448.56 
L 399.069641 448.56 
L 399.069641 448.56 
L 397.435161 448.56 
z
" clip-path="url(#p7f5bb75d0e)" style="fill: #7f7f7f; opacity: 0.5"/>
   </g>
   <g id="patch_159">
    <path d="M 399.478261 448.56 
L 401.112742 448.56 
L 401.112742 448.56 
L 399.478261 448.56 
z
" clip-path="url(#p7f5bb75d0e)" style="fill: #7f7f7f; opacity: 0.5"/>
   </g>
   <g id="patch_160">
    <path d="M 401.521362 448.56 
L 403.155843 448.56 
L 403.155843 448.56 
L 401.521362 448.56 
z
" clip-path="url(#p7f5bb75d0e)" style="fill: #7f7f7f; opacity: 0.5"/>
   </g>
   <g id="patch_161">
    <path d="M 403.564463 448.56 
L 405.198943 448.56 
L 405.198943 448.56 
L 403.564463 448.56 
z
" clip-path="url(#p7f5bb75d0e)" style="fill: #7f7f7f; opacity: 0.5"/>
   </g>
   <g id="patch_162">
    <path d="M 405.607564 448.56 
L 407.242044 448.56 
L 407.242044 448.56 
L 405.607564 448.56 
z
" clip-path="url(#p7f5bb75d0e)" style="fill: #7f7f7f; opacity: 0.5"/>
   </g>
   <g id="patch_163">
    <path d="M 407.650664 448.56 
L 409.285145 448.56 
L 409.285145 448.56 
L 407.650664 448.56 
z
" clip-path="url(#p7f5bb75d0e)" style="fill: #7f7f7f; opacity: 0.5"/>
   </g>
   <g id="patch_164">
    <path d="M 409.693765 448.56 
L 411.328246 448.56 
L 411.328246 448.56 
L 409.693765 448.56 
z
" clip-path="url(#p7f5bb75d0e)" style="fill: #7f7f7f; opacity: 0.5"/>
   </g>
   <g id="patch_165">
    <path d="M 411.736866 448.56 
L 413.371346 448.56 
L 413.371346 448.56 
L 411.736866 448.56 
z
" clip-path="url(#p7f5bb75d0e)" style="fill: #7f7f7f; opacity: 0.5"/>
   </g>
   <g id="patch_166">
    <path d="M 413.779967 448.56 
L 415.414447 448.56 
L 415.414447 448.56 
L 413.779967 448.56 
z
" clip-path="url(#p7f5bb75d0e)" style="fill: #7f7f7f; opacity: 0.5"/>
   </g>
   <g id="patch_167">
    <path d="M 415.823067 448.56 
L 417.457548 448.56 
L 417.457548 448.56 
L 415.823067 448.56 
z
" clip-path="url(#p7f5bb75d0e)" style="fill: #7f7f7f; opacity: 0.5"/>
   </g>
   <g id="patch_168">
    <path d="M 417.866168 448.56 
L 419.500649 448.56 
L 419.500649 448.56 
L 417.866168 448.56 
z
" clip-path="url(#p7f5bb75d0e)" style="fill: #7f7f7f; opacity: 0.5"/>
   </g>
   <g id="patch_169">
    <path d="M 419.909269 448.56 
L 421.543749 448.56 
L 421.543749 448.56 
L 419.909269 448.56 
z
" clip-path="url(#p7f5bb75d0e)" style="fill: #7f7f7f; opacity: 0.5"/>
   </g>
   <g id="patch_170">
    <path d="M 421.952369 448.56 
L 423.58685 448.56 
L 423.58685 448.56 
L 421.952369 448.56 
z
" clip-path="url(#p7f5bb75d0e)" style="fill: #7f7f7f; opacity: 0.5"/>
   </g>
   <g id="patch_171">
    <path d="M 423.99547 448.56 
L 425.629951 448.56 
L 425.629951 448.56 
L 423.99547 448.56 
z
" clip-path="url(#p7f5bb75d0e)" style="fill: #7f7f7f; opacity: 0.5"/>
   </g>
   <g id="patch_172">
    <path d="M 426.038571 448.56 
L 427.673052 448.56 
L 427.673052 448.56 
L 426.038571 448.56 
z
" clip-path="url(#p7f5bb75d0e)" style="fill: #7f7f7f; opacity: 0.5"/>
   </g>
   <g id="patch_173">
    <path d="M 428.081672 448.56 
L 429.716152 448.56 
L 429.716152 448.56 
L 428.081672 448.56 
z
" clip-path="url(#p7f5bb75d0e)" style="fill: #7f7f7f; opacity: 0.5"/>
   </g>
   <g id="patch_174">
    <path d="M 430.124772 448.56 
L 431.759253 448.56 
L 431.759253 448.56 
L 430.124772 448.56 
z
" clip-path="url(#p7f5bb75d0e)" style="fill: #7f7f7f; opacity: 0.5"/>
   </g>
   <g id="patch_175">
    <path d="M 432.167873 448.56 
L 433.802354 448.56 
L 433.802354 448.56 
L 432.167873 448.56 
z
" clip-path="url(#p7f5bb75d0e)" style="fill: #7f7f7f; opacity: 0.5"/>
   </g>
   <g id="patch_176">
    <path d="M 434.210974 448.56 
L 435.845455 448.56 
L 435.845455 448.56 
L 434.210974 448.56 
z
" clip-path="url(#p7f5bb75d0e)" style="fill: #7f7f7f; opacity: 0.5"/>
   </g>
   <g id="matplotlib.axis_1">
    <g id="ytick_1">
     <g id="line2d_1">
      <defs>
       <path id="mbeee788037" d="M 0 0 
L 3.5 0 
" style="stroke: #7f7f7f; stroke-width: 0.8"/>
      </defs>
      <g>
       <use xlink:href="#mbeee788037" x="453.6" y="448.56" style="fill: #7f7f7f; stroke: #7f7f7f; stroke-width: 0.8"/>
      </g>
     </g>
     <g id="text_1">
      <text style="font-size: 16px; font-family: 'Arial', sans-serif; text-anchor: start; fill: #7f7f7f" x="460.6" y="454.638125" transform="rotate(-0 460.6 454.638125)">0</text>
     </g>
    </g>
    <g id="ytick_2">
     <g id="line2d_2">
      <g>
       <use xlink:href="#mbeee788037" x="453.6" y="396.816" style="fill: #7f7f7f; stroke: #7f7f7f; stroke-width: 0.8"/>
      </g>
     </g>
     <g id="text_2">
      <text style="font-size: 16px; font-family: 'Arial', sans-serif; text-anchor: start; fill: #7f7f7f" x="460.6" y="402.894125" transform="rotate(-0 460.6 402.894125)">2</text>
     </g>
    </g>
    <g id="ytick_3">
     <g id="line2d_3">
      <g>
       <use xlink:href="#mbeee788037" x="453.6" y="345.072" style="fill: #7f7f7f; stroke: #7f7f7f; stroke-width: 0.8"/>
      </g>
     </g>
     <g id="text_3">
      <text style="font-size: 16px; font-family: 'Arial', sans-serif; text-anchor: start; fill: #7f7f7f" x="460.6" y="351.150125" transform="rotate(-0 460.6 351.150125)">4</text>
     </g>
    </g>
    <g id="ytick_4">
     <g id="line2d_4">
      <g>
       <use xlink:href="#mbeee788037" x="453.6" y="293.328" style="fill: #7f7f7f; stroke: #7f7f7f; stroke-width: 0.8"/>
      </g>
     </g>
     <g id="text_4">
      <text style="font-size: 16px; font-family: 'Arial', sans-serif; text-anchor: start; fill: #7f7f7f" x="460.6" y="299.406125" transform="rotate(-0 460.6 299.406125)">6</text>
     </g>
    </g>
    <g id="ytick_5">
     <g id="line2d_5">
      <g>
       <use xlink:href="#mbeee788037" x="453.6" y="241.584" style="fill: #7f7f7f; stroke: #7f7f7f; stroke-width: 0.8"/>
      </g>
     </g>
     <g id="text_5">
      <text style="font-size: 16px; font-family: 'Arial', sans-serif; text-anchor: start; fill: #7f7f7f" x="460.6" y="247.662125" transform="rotate(-0 460.6 247.662125)">8</text>
     </g>
    </g>
    <g id="ytick_6">
     <g id="line2d_6">
      <g>
       <use xlink:href="#mbeee788037" x="453.6" y="189.84" style="fill: #7f7f7f; stroke: #7f7f7f; stroke-width: 0.8"/>
      </g>
     </g>
     <g id="text_6">
      <text style="font-size: 16px; font-family: 'Arial', sans-serif; text-anchor: start; fill: #7f7f7f" x="460.6" y="195.918125" transform="rotate(-0 460.6 195.918125)">10</text>
     </g>
    </g>
    <g id="ytick_7">
     <g id="line2d_7">
      <g>
       <use xlink:href="#mbeee788037" x="453.6" y="138.096" style="fill: #7f7f7f; stroke: #7f7f7f; stroke-width: 0.8"/>
      </g>
     </g>
     <g id="text_7">
      <text style="font-size: 16px; font-family: 'Arial', sans-serif; text-anchor: start; fill: #7f7f7f" x="460.6" y="144.174125" transform="rotate(-0 460.6 144.174125)">12</text>
     </g>
    </g>
    <g id="ytick_8">
     <g id="line2d_8">
      <g>
       <use xlink:href="#mbeee788037" x="453.6" y="86.352" style="fill: #7f7f7f; stroke: #7f7f7f; stroke-width: 0.8"/>
      </g>
     </g>
     <g id="text_8">
      <text style="font-size: 16px; font-family: 'Arial', sans-serif; text-anchor: start; fill: #7f7f7f" x="460.6" y="92.430125" transform="rotate(-0 460.6 92.430125)">14</text>
     </g>
    </g>
    <g id="text_9">
     <text style="font-size: 16px; font-family: 'Arial', sans-serif; text-anchor: middle; fill: #7f7f7f" x="497.1175" y="254.52" transform="rotate(-90 497.1175 254.52)">Number of cases</text>
    </g>
   </g>
   <g id="patch_177">
    <path d="M 453.6 448.56 
L 453.6 60.48 
" style="fill: none; stroke: #7f7f7f; stroke-width: 0.8; stroke-linejoin: miter; stroke-linecap: square"/>
   </g>
  </g>
  <g id="axes_2">
   <g id="FillBetweenPolyCollection_1">
    <path d="M 81.571786 318.46098 
L 81.571786 443.141552 
L 83.614886 442.983573 
L 85.657987 427.289544 
L 87.701088 359.7743 
L 89.744189 371.63518 
L 91.787289 379.827931 
L 93.83039 391.069657 
L 95.873491 402.579265 
L 97.916592 413.650394 
L 99.959692 421.082964 
L 102.002793 418.129741 
L 104.045894 424.761502 
L 106.088995 429.082478 
L 108.132095 432.089486 
L 110.175196 434.908854 
L 112.218297 436.066748 
L 114.261398 437.942088 
L 116.304498 438.508857 
L 118.347599 439.049199 
L 120.3907 439.630671 
L 122.433801 437.883081 
L 124.476901 438.867199 
L 126.520002 439.118484 
L 128.563103 436.126114 
L 130.606204 436.782496 
L 132.649304 433.637209 
L 134.692405 434.185198 
L 136.735506 430.784137 
L 138.778607 432.749311 
L 140.821707 428.994513 
L 142.864808 423.343259 
L 144.907909 427.145121 
L 146.95101 424.832479 
L 148.99411 421.901204 
L 151.037211 426.291487 
L 153.080312 422.298793 
L 155.123412 427.541534 
L 157.166513 429.272346 
L 159.209614 419.61751 
L 161.252715 412.853959 
L 163.295815 414.178742 
L 165.338916 415.60187 
L 167.382017 417.589534 
L 169.425118 417.860556 
L 171.468218 410.349993 
L 173.511319 417.966604 
L 175.55442 420.633738 
L 177.597521 421.828738 
L 179.640621 411.396307 
L 181.683722 409.536508 
L 183.726823 406.817057 
L 185.769924 409.065812 
L 187.813024 402.646328 
L 189.856125 398.441406 
L 191.899226 375.973946 
L 193.942327 377.567007 
L 195.985427 366.283252 
L 198.028528 378.874346 
L 200.071629 390.322511 
L 202.11473 395.710714 
L 204.15783 392.748773 
L 206.200931 409.430951 
L 208.244032 420.719061 
L 210.287133 414.881554 
L 212.330233 423.329977 
L 214.373334 425.844243 
L 216.416435 429.269601 
L 218.459536 423.323929 
L 220.502636 418.93919 
L 222.545737 417.17434 
L 224.588838 417.831597 
L 226.631938 413.466771 
L 228.675039 404.722439 
L 230.71814 399.689467 
L 232.761241 407.62118 
L 234.804341 403.700334 
L 236.847442 419.571413 
L 238.890543 406.981691 
L 240.933644 408.557832 
L 242.976744 420.24543 
L 245.019845 427.03653 
L 247.062946 433.72661 
L 249.106047 435.642911 
L 251.149147 434.249804 
L 253.192248 427.69343 
L 255.235349 430.499193 
L 257.27845 430.764826 
L 259.32155 434.665978 
L 261.364651 435.492123 
L 263.407752 438.086494 
L 265.450853 439.977782 
L 267.493953 441.400551 
L 269.537054 443.347268 
L 271.580155 444.390224 
L 273.623256 444.516211 
L 275.666356 444.118254 
L 277.709457 444.966674 
L 279.752558 444.319116 
L 281.795659 444.395333 
L 283.838759 445.418461 
L 285.88186 446.22762 
L 287.924961 446.377145 
L 289.968062 446.100736 
L 292.011162 446.330814 
L 294.054263 447.024905 
L 296.097364 446.950073 
L 298.140464 447.613503 
L 300.183565 447.495774 
L 302.226666 448.030564 
L 304.269767 448.559498 
L 306.312867 448.559999 
L 308.355968 448.199627 
L 310.399069 447.779565 
L 312.44217 448.282733 
L 314.48527 448.559739 
L 316.528371 448.559999 
L 318.571472 447.997209 
L 320.614573 448.487146 
L 322.657673 448.559948 
L 324.700774 448.559999 
L 326.743875 448.559999 
L 328.786976 448.559999 
L 330.830076 448.56 
L 332.873177 448.56 
L 334.916278 448.56 
L 336.959379 448.56 
L 339.002479 448.070462 
L 341.04558 448.460399 
L 343.088681 448.522284 
L 345.131782 448.559915 
L 347.174882 448.559996 
L 349.217983 448.559998 
L 351.261084 448.559999 
L 353.304185 447.732693 
L 355.347285 448.004777 
L 357.390386 448.290837 
L 359.433487 448.555688 
L 361.476588 448.557923 
L 363.519688 448.559987 
L 365.562789 448.559997 
L 367.60589 448.559999 
L 369.64899 448.559999 
L 371.692091 448.559999 
L 373.735192 448.559999 
L 375.778293 448.559999 
L 377.821393 448.559999 
L 379.864494 448.559999 
L 381.907595 448.56 
L 383.950696 448.56 
L 385.993796 448.56 
L 388.036897 448.56 
L 390.079998 448.56 
L 392.123099 448.56 
L 394.166199 448.56 
L 396.2093 448.56 
L 398.252401 448.56 
L 400.295502 448.56 
L 402.338602 448.56 
L 404.381703 448.56 
L 406.424804 448.56 
L 408.467905 448.56 
L 410.511005 448.56 
L 412.554106 448.56 
L 414.597207 448.56 
L 416.640308 448.56 
L 418.683408 448.56 
L 420.726509 448.56 
L 422.76961 448.56 
L 424.812711 448.56 
L 426.855811 448.56 
L 428.898912 448.56 
L 430.942013 448.56 
L 432.985114 448.56 
L 435.028214 448.56 
L 435.028214 436.332681 
L 435.028214 436.332681 
L 432.985114 435.983808 
L 430.942013 436.593277 
L 428.898912 434.87834 
L 426.855811 435.367079 
L 424.812711 436.211519 
L 422.76961 434.245075 
L 420.726509 435.054781 
L 418.683408 435.653268 
L 416.640308 435.480273 
L 414.597207 433.967365 
L 412.554106 434.328665 
L 410.511005 434.791937 
L 408.467905 434.764149 
L 406.424804 435.358686 
L 404.381703 434.275545 
L 402.338602 433.896825 
L 400.295502 433.069389 
L 398.252401 434.009587 
L 396.2093 434.99954 
L 394.166199 433.458287 
L 392.123099 432.921812 
L 390.079998 433.684635 
L 388.036897 432.179776 
L 385.993796 431.645547 
L 383.950696 432.139073 
L 381.907595 431.986671 
L 379.864494 433.050955 
L 377.821393 431.225143 
L 375.778293 432.06028 
L 373.735192 430.439401 
L 371.692091 429.468999 
L 369.64899 429.888136 
L 367.60589 428.459463 
L 365.562789 427.212797 
L 363.519688 426.888408 
L 361.476588 426.585496 
L 359.433487 424.679448 
L 357.390386 423.726153 
L 355.347285 425.31194 
L 353.304185 422.65452 
L 351.261084 434.158691 
L 349.217983 433.721647 
L 347.174882 433.951356 
L 345.131782 433.694293 
L 343.088681 432.438254 
L 341.04558 433.047017 
L 339.002479 432.353951 
L 336.959379 438.864924 
L 334.916278 439.215949 
L 332.873177 438.644396 
L 330.830076 438.218686 
L 328.786976 438.064097 
L 326.743875 436.883416 
L 324.700774 437.325219 
L 322.657673 436.774975 
L 320.614573 436.332431 
L 318.571472 434.516691 
L 316.528371 438.504377 
L 314.48527 438.470644 
L 312.44217 436.930597 
L 310.399069 435.5641 
L 308.355968 438.096876 
L 306.312867 440.367846 
L 304.269767 439.092549 
L 302.226666 437.887835 
L 300.183565 436.341098 
L 298.140464 437.141623 
L 296.097364 436.069984 
L 294.054263 436.078022 
L 292.011162 434.590619 
L 289.968062 434.052403 
L 287.924961 436.045171 
L 285.88186 436.145404 
L 283.838759 433.681887 
L 281.795659 429.351779 
L 279.752558 430.181314 
L 277.709457 430.967076 
L 275.666356 429.251685 
L 273.623256 430.856797 
L 271.580155 430.492324 
L 269.537054 428.655485 
L 267.493953 422.231068 
L 265.450853 418.392008 
L 263.407752 413.351417 
L 261.364651 407.368141 
L 259.32155 402.583004 
L 257.27845 393.676221 
L 255.235349 395.053216 
L 253.192248 386.625901 
L 251.149147 402.314711 
L 249.106047 405.737476 
L 247.062946 399.522783 
L 245.019845 382.048346 
L 242.976744 364.43865 
L 240.933644 333.239879 
L 238.890543 327.831676 
L 236.847442 358.474916 
L 234.804341 312.733961 
L 232.761241 325.870041 
L 230.71814 308.806819 
L 228.675039 319.899872 
L 226.631938 340.07469 
L 224.588838 351.062085 
L 222.545737 351.314822 
L 220.502636 356.036597 
L 218.459536 364.844052 
L 216.416435 386.654581 
L 214.373334 371.103245 
L 212.330233 364.143404 
L 210.287133 340.069636 
L 208.244032 356.231803 
L 206.200931 320.646489 
L 204.15783 272.52776 
L 202.11473 271.404706 
L 200.071629 248.805739 
L 198.028528 213.454235 
L 195.985427 186.70646 
L 193.942327 207.596441 
L 191.899226 204.090939 
L 189.856125 264.516904 
L 187.813024 267.377411 
L 185.769924 286.507921 
L 183.726823 270.733585 
L 181.683722 278.217872 
L 179.640621 284.409234 
L 177.597521 324.765184 
L 175.55442 311.4997 
L 173.511319 300.47737 
L 171.468218 268.98304 
L 169.425118 302.898814 
L 167.382017 293.519905 
L 165.338916 283.756982 
L 163.295815 276.119449 
L 161.252715 261.894918 
L 159.209614 277.844178 
L 157.166513 328.111904 
L 155.123412 309.18045 
L 153.080312 290.075897 
L 151.037211 285.286667 
L 148.99411 256.958561 
L 146.95101 269.814137 
L 144.907909 285.054391 
L 142.864808 269.300577 
L 140.821707 285.010555 
L 138.778607 304.080724 
L 136.735506 296.582053 
L 134.692405 332.64974 
L 132.649304 328.563753 
L 130.606204 351.721169 
L 128.563103 348.635373 
L 126.520002 367.048886 
L 124.476901 364.912861 
L 122.433801 364.564043 
L 120.3907 378.725524 
L 118.347599 377.550881 
L 116.304498 370.103044 
L 114.261398 365.160245 
L 112.218297 359.876061 
L 110.175196 345.052511 
L 108.132095 330.336656 
L 106.088995 311.980389 
L 104.045894 266.838798 
L 102.002793 214.75506 
L 99.959692 182.775812 
L 97.916592 46.500351 
L 95.873491 -145.278986 
L 93.83039 -524.119919 
L 91.787289 -881.631429 
L 89.744189 -1366.982198 
L 87.701088 -1536.080327 
L 85.657987 -121.156848 
L 83.614886 317.768915 
L 81.571786 318.46098 
z
" clip-path="url(#p7f5bb75d0e)" style="fill: #0173b2; fill-opacity: 0.3; stroke: #0173b2; stroke-opacity: 0.3"/>
   </g>
   <g id="FillBetweenPolyCollection_2">
    <path d="M 81.571786 251.313605 
L 81.571786 441.187477 
L 83.614886 441.452982 
L 85.657987 420.090682 
L 87.701088 343.520222 
L 89.744189 354.851761 
L 91.787289 362.568787 
L 93.83039 380.42384 
L 95.873491 397.603736 
L 97.916592 409.376142 
L 99.959692 417.936374 
L 102.002793 418.313149 
L 104.045894 424.564404 
L 106.088995 428.746953 
L 108.132095 431.726424 
L 110.175196 435.088632 
L 112.218297 436.93106 
L 114.261398 437.649981 
L 116.304498 437.989598 
L 118.347599 438.941232 
L 120.3907 439.524241 
L 122.433801 438.007771 
L 124.476901 438.412381 
L 126.520002 439.538648 
L 128.563103 436.033464 
L 130.606204 437.0303 
L 132.649304 432.709075 
L 134.692405 435.04841 
L 136.735506 430.163463 
L 138.778607 431.99373 
L 140.821707 427.607185 
L 142.864808 423.680867 
L 144.907909 427.472699 
L 146.95101 422.921126 
L 148.99411 420.59026 
L 151.037211 425.961564 
L 153.080312 423.338656 
L 155.123412 426.488152 
L 157.166513 430.633434 
L 159.209614 418.355782 
L 161.252715 412.122983 
L 163.295815 415.15346 
L 165.338916 414.644299 
L 167.382017 417.493353 
L 169.425118 418.384043 
L 171.468218 409.231717 
L 173.511319 418.028236 
L 175.55442 420.380973 
L 177.597521 421.360204 
L 179.640621 412.024281 
L 181.683722 408.085263 
L 183.726823 403.904231 
L 185.769924 408.563257 
L 187.813024 404.372276 
L 189.856125 398.761419 
L 191.899226 378.569578 
L 193.942327 379.963884 
L 195.985427 367.893587 
L 198.028528 377.6579 
L 200.071629 389.917853 
L 202.11473 393.773312 
L 204.15783 394.631069 
L 206.200931 410.019935 
L 208.244032 421.730097 
L 210.287133 415.052736 
L 212.330233 424.523939 
L 214.373334 425.746417 
L 216.416435 429.887912 
L 218.459536 422.96847 
L 220.502636 419.196196 
L 222.545737 417.071227 
L 224.588838 417.289451 
L 226.631938 412.847507 
L 228.675039 404.75053 
L 230.71814 399.035489 
L 232.761241 407.190593 
L 234.804341 401.956446 
L 236.847442 418.56542 
L 238.890543 405.435541 
L 240.933644 405.512013 
L 242.976744 417.761399 
L 245.019845 425.455363 
L 247.062946 431.938061 
L 249.106047 433.901389 
L 251.149147 433.09959 
L 253.192248 424.800514 
L 255.235349 428.828156 
L 257.27845 428.872423 
L 259.32155 432.042515 
L 261.364651 432.77271 
L 263.407752 435.355714 
L 265.450853 437.717992 
L 267.493953 439.065984 
L 269.537054 441.436153 
L 271.580155 442.507283 
L 273.623256 442.328185 
L 275.666356 441.776227 
L 277.709457 442.396194 
L 279.752558 441.660437 
L 281.795659 441.303117 
L 283.838759 442.79571 
L 285.88186 443.622029 
L 287.924961 443.627044 
L 289.968062 442.835511 
L 292.011162 442.735927 
L 294.054263 443.359741 
L 296.097364 443.074072 
L 298.140464 443.697231 
L 300.183565 443.139846 
L 302.226666 443.751061 
L 304.269767 444.206351 
L 306.312867 444.533504 
L 308.355968 443.937731 
L 310.399069 443.144113 
L 312.44217 443.598598 
L 314.48527 443.991704 
L 316.528371 444.186336 
L 318.571472 443.372562 
L 320.614573 443.472696 
L 322.657673 443.508549 
L 324.700774 444.02985 
L 326.743875 444.034934 
L 328.786976 444.522069 
L 330.830076 444.431496 
L 332.873177 444.489878 
L 334.916278 444.550258 
L 336.959379 444.809091 
L 339.002479 443.524732 
L 341.04558 443.858872 
L 343.088681 443.62094 
L 345.131782 443.44794 
L 347.174882 443.698171 
L 349.217983 443.807592 
L 351.261084 443.987279 
L 353.304185 441.990028 
L 355.347285 442.435541 
L 357.390386 442.514072 
L 359.433487 442.38828 
L 361.476588 442.348001 
L 363.519688 442.914427 
L 365.562789 442.596243 
L 367.60589 442.815964 
L 369.64899 442.843365 
L 371.692091 443.044568 
L 373.735192 442.944056 
L 375.778293 443.435886 
L 377.821393 443.511324 
L 379.864494 443.310754 
L 381.907595 443.138996 
L 383.950696 443.418104 
L 385.993796 443.763685 
L 388.036897 443.721127 
L 390.079998 443.377155 
L 392.123099 443.350055 
L 394.166199 443.57886 
L 396.2093 443.554464 
L 398.252401 443.521882 
L 400.295502 443.656598 
L 402.338602 443.258924 
L 404.381703 443.137407 
L 406.424804 443.527289 
L 408.467905 443.125163 
L 410.511005 443.33343 
L 412.554106 443.219469 
L 414.597207 443.29753 
L 416.640308 443.459582 
L 418.683408 443.252943 
L 420.726509 443.255179 
L 422.76961 443.218644 
L 424.812711 442.828488 
L 426.855811 443.122357 
L 428.898912 442.954475 
L 430.942013 443.39403 
L 432.985114 443.297273 
L 435.028214 442.804768 
L 435.028214 333.229032 
L 435.028214 333.229032 
L 432.985114 327.208017 
L 430.942013 334.182568 
L 428.898912 345.752603 
L 426.855811 339.95067 
L 424.812711 346.28878 
L 422.76961 346.606668 
L 420.726509 349.233145 
L 418.683408 347.469618 
L 416.640308 355.542594 
L 414.597207 357.086224 
L 412.554106 355.271948 
L 410.511005 358.725557 
L 408.467905 365.570857 
L 406.424804 363.315395 
L 404.381703 370.023059 
L 402.338602 367.459735 
L 400.295502 373.991993 
L 398.252401 368.441859 
L 396.2093 372.753857 
L 394.166199 374.006174 
L 392.123099 377.829374 
L 390.079998 381.558027 
L 388.036897 377.612242 
L 385.993796 382.870527 
L 383.950696 383.805169 
L 381.907595 383.760773 
L 379.864494 380.815679 
L 377.821393 385.755934 
L 375.778293 385.518587 
L 373.735192 382.853166 
L 371.692091 379.289702 
L 369.64899 380.545843 
L 367.60589 381.741341 
L 365.562789 381.414277 
L 363.519688 376.552997 
L 361.476588 380.620078 
L 359.433487 376.794948 
L 357.390386 378.408255 
L 355.347285 376.183781 
L 353.304185 379.189589 
L 351.261084 397.711376 
L 349.217983 397.875069 
L 347.174882 399.230106 
L 345.131782 401.082821 
L 343.088681 397.988546 
L 341.04558 399.073888 
L 339.002479 400.829697 
L 336.959379 413.231452 
L 334.916278 413.188019 
L 332.873177 411.697021 
L 330.830076 413.47173 
L 328.786976 411.779322 
L 326.743875 412.442382 
L 324.700774 413.630565 
L 322.657673 413.024427 
L 320.614573 411.694135 
L 318.571472 409.915189 
L 316.528371 417.937595 
L 314.48527 416.959016 
L 312.44217 416.987051 
L 310.399069 415.864696 
L 308.355968 418.927095 
L 306.312867 423.071568 
L 304.269767 422.887547 
L 302.226666 421.908564 
L 300.183565 420.122882 
L 298.140464 422.851444 
L 296.097364 421.419291 
L 294.054263 423.472611 
L 292.011162 420.901424 
L 289.968062 420.829734 
L 287.924961 425.747267 
L 285.88186 426.798788 
L 283.838759 423.164794 
L 281.795659 419.954127 
L 279.752558 419.567825 
L 277.709457 423.514897 
L 275.666356 421.475999 
L 273.623256 424.660976 
L 271.580155 423.763394 
L 269.537054 422.013 
L 267.493953 414.997385 
L 265.450853 410.937151 
L 263.407752 406.513002 
L 261.364651 400.411133 
L 259.32155 397.103977 
L 257.27845 387.286077 
L 255.235349 387.121387 
L 253.192248 379.40757 
L 251.149147 398.690527 
L 249.106047 401.189787 
L 247.062946 395.410463 
L 245.019845 378.284347 
L 242.976744 359.881888 
L 240.933644 332.361222 
L 238.890543 323.557667 
L 236.847442 353.200354 
L 234.804341 313.663414 
L 232.761241 321.096231 
L 230.71814 304.336423 
L 228.675039 316.357211 
L 226.631938 341.469185 
L 224.588838 349.787212 
L 222.545737 350.740262 
L 220.502636 357.4107 
L 218.459536 365.721882 
L 216.416435 385.541176 
L 214.373334 370.682826 
L 212.330233 364.982127 
L 210.287133 339.845017 
L 208.244032 354.702469 
L 206.200931 322.643619 
L 204.15783 274.641839 
L 202.11473 273.706411 
L 200.071629 257.441987 
L 198.028528 214.514398 
L 195.985427 187.574903 
L 193.942327 209.968223 
L 191.899226 200.784857 
L 189.856125 266.356944 
L 187.813024 270.39513 
L 185.769924 289.456394 
L 183.726823 276.728654 
L 181.683722 278.410439 
L 179.640621 279.062087 
L 177.597521 322.779755 
L 175.55442 309.822462 
L 173.511319 298.308271 
L 171.468218 264.25143 
L 169.425118 294.705839 
L 167.382017 291.673995 
L 165.338916 281.97181 
L 163.295815 268.183858 
L 161.252715 259.896308 
L 159.209614 273.378341 
L 157.166513 322.79271 
L 155.123412 307.371419 
L 153.080312 280.14579 
L 151.037211 283.053887 
L 148.99411 259.09553 
L 146.95101 265.136722 
L 144.907909 275.095961 
L 142.864808 258.283974 
L 140.821707 285.077358 
L 138.778607 307.527665 
L 136.735506 303.445596 
L 134.692405 325.600285 
L 132.649304 326.978078 
L 130.606204 352.69006 
L 128.563103 349.804369 
L 126.520002 366.641264 
L 124.476901 369.658226 
L 122.433801 364.817974 
L 120.3907 381.432782 
L 118.347599 380.186487 
L 116.304498 377.235333 
L 114.261398 370.35217 
L 112.218297 358.523298 
L 110.175196 352.12248 
L 108.132095 334.641568 
L 106.088995 316.415508 
L 104.045894 271.322829 
L 102.002793 211.843939 
L 99.959692 170.153347 
L 97.916592 60.16027 
L 95.873491 -190.030995 
L 93.83039 -644.010427 
L 91.787289 -1114.45188 
L 89.744189 -1708.925381 
L 87.701088 -2111.979824 
L 85.657987 -338.282529 
L 83.614886 243.199066 
L 81.571786 251.313605 
z
" clip-path="url(#p7f5bb75d0e)" style="fill: #de8f05; fill-opacity: 0.3; stroke: #de8f05; stroke-opacity: 0.3"/>
   </g>
   <g id="matplotlib.axis_2">
    <g id="xtick_1">
     <g id="line2d_9">
      <defs>
       <path id="m3be2234081" d="M 0 0 
L 0 3.5 
" style="stroke: #000000; stroke-width: 0.8"/>
      </defs>
      <g>
       <use xlink:href="#m3be2234081" x="91.787289" y="448.56" style="stroke: #000000; stroke-width: 0.8"/>
      </g>
     </g>
     <g id="text_10">
      <text style="font-size: 16px; font-family: 'Arial', sans-serif; text-anchor: middle" x="91.787289" y="467.7175" transform="rotate(-0 91.787289 467.7175)">1 Jul</text>
     </g>
    </g>
    <g id="xtick_2">
     <g id="line2d_10">
      <g>
       <use xlink:href="#m3be2234081" x="155.123412" y="448.56" style="stroke: #000000; stroke-width: 0.8"/>
      </g>
     </g>
     <g id="text_11">
      <text style="font-size: 16px; font-family: 'Arial', sans-serif; text-anchor: middle" x="155.123412" y="467.71625" transform="rotate(-0 155.123412 467.71625)">1 Aug</text>
     </g>
    </g>
    <g id="xtick_3">
     <g id="line2d_11">
      <g>
       <use xlink:href="#m3be2234081" x="218.459536" y="448.56" style="stroke: #000000; stroke-width: 0.8"/>
      </g>
     </g>
     <g id="text_12">
      <text style="font-size: 16px; font-family: 'Arial', sans-serif; text-anchor: middle" x="218.459536" y="467.71625" transform="rotate(-0 218.459536 467.71625)">1 Sep</text>
     </g>
    </g>
    <g id="xtick_4">
     <g id="line2d_12">
      <g>
       <use xlink:href="#m3be2234081" x="279.752558" y="448.56" style="stroke: #000000; stroke-width: 0.8"/>
      </g>
     </g>
     <g id="text_13">
      <text style="font-size: 16px; font-family: 'Arial', sans-serif; text-anchor: middle" x="279.752558" y="467.71625" transform="rotate(-0 279.752558 467.71625)">1 Oct</text>
     </g>
    </g>
    <g id="xtick_5">
     <g id="line2d_13">
      <g>
       <use xlink:href="#m3be2234081" x="343.088681" y="448.56" style="stroke: #000000; stroke-width: 0.8"/>
      </g>
     </g>
     <g id="text_14">
      <text style="font-size: 16px; font-family: 'Arial', sans-serif; text-anchor: middle" x="343.088681" y="467.71625" transform="rotate(-0 343.088681 467.71625)">1 Nov</text>
     </g>
    </g>
    <g id="xtick_6">
     <g id="line2d_14">
      <g>
       <use xlink:href="#m3be2234081" x="404.381703" y="448.56" style="stroke: #000000; stroke-width: 0.8"/>
      </g>
     </g>
     <g id="text_15">
      <text style="font-size: 16px; font-family: 'Arial', sans-serif; text-anchor: middle" x="404.381703" y="467.71625" transform="rotate(-0 404.381703 467.71625)">1 Dec</text>
     </g>
    </g>
    <g id="text_16">
     <text style="font-size: 16px; font-family: 'Arial', sans-serif; text-anchor: middle" x="258.3" y="487.7175" transform="rotate(-0 258.3 487.7175)">Date (2017)</text>
    </g>
   </g>
   <g id="matplotlib.axis_3">
    <g id="ytick_9">
     <g id="line2d_15">
      <defs>
       <path id="m0892f56824" d="M 0 0 
L -3.5 0 
" style="stroke: #000000; stroke-width: 0.8"/>
      </defs>
      <g>
       <use xlink:href="#m0892f56824" x="63" y="448.56" style="stroke: #000000; stroke-width: 0.8"/>
      </g>
     </g>
     <g id="text_17">
      <text style="font-size: 16px; font-family: 'Arial', sans-serif; text-anchor: end" x="56" y="454.638125" transform="rotate(-0 56 454.638125)">0</text>
     </g>
    </g>
    <g id="ytick_10">
     <g id="line2d_16">
      <g>
       <use xlink:href="#m0892f56824" x="63" y="370.944" style="stroke: #000000; stroke-width: 0.8"/>
      </g>
     </g>
     <g id="text_18">
      <text style="font-size: 16px; font-family: 'Arial', sans-serif; text-anchor: end" x="56" y="377.022125" transform="rotate(-0 56 377.022125)">2</text>
     </g>
    </g>
    <g id="ytick_11">
     <g id="line2d_17">
      <g>
       <use xlink:href="#m0892f56824" x="63" y="293.328" style="stroke: #000000; stroke-width: 0.8"/>
      </g>
     </g>
     <g id="text_19">
      <text style="font-size: 16px; font-family: 'Arial', sans-serif; text-anchor: end" x="56" y="299.406125" transform="rotate(-0 56 299.406125)">4</text>
     </g>
    </g>
    <g id="ytick_12">
     <g id="line2d_18">
      <g>
       <use xlink:href="#m0892f56824" x="63" y="215.712" style="stroke: #000000; stroke-width: 0.8"/>
      </g>
     </g>
     <g id="text_20">
      <text style="font-size: 16px; font-family: 'Arial', sans-serif; text-anchor: end" x="56" y="221.790125" transform="rotate(-0 56 221.790125)">6</text>
     </g>
    </g>
    <g id="ytick_13">
     <g id="line2d_19">
      <g>
       <use xlink:href="#m0892f56824" x="63" y="138.096" style="stroke: #000000; stroke-width: 0.8"/>
      </g>
     </g>
     <g id="text_21">
      <text style="font-size: 16px; font-family: 'Arial', sans-serif; text-anchor: end" x="56" y="144.174125" transform="rotate(-0 56 144.174125)">8</text>
     </g>
    </g>
    <g id="ytick_14">
     <g id="line2d_20">
      <g>
       <use xlink:href="#m0892f56824" x="63" y="60.48" style="stroke: #000000; stroke-width: 0.8"/>
      </g>
     </g>
     <g id="text_22">
      <text style="font-size: 16px; font-family: 'Arial', sans-serif; text-anchor: end" x="56" y="66.558125" transform="rotate(-0 56 66.558125)">10</text>
     </g>
    </g>
    <g id="text_23">
     <text style="font-size: 16px; font-family: 'Arial', sans-serif; text-anchor: middle" x="27.79625" y="254.52" transform="rotate(-90 27.79625 254.52)">Time-dependent reproduction number</text>
    </g>
   </g>
   <g id="line2d_21">
    <path d="M 81.571786 411.033454 
L 83.614886 409.580973 
L 85.657987 290.462519 
L 87.096413 -1 
M 91.485668 -1 
L 91.787289 14.147051 
L 93.83039 123.904961 
L 95.873491 227.319983 
L 97.916592 293.215158 
L 99.959692 340.564676 
L 102.002793 344.214169 
L 104.045894 370.675839 
L 106.088995 387.715358 
L 108.132095 397.042725 
L 110.175196 404.146876 
L 112.218297 409.633063 
L 114.261398 413.315956 
L 116.304498 415.263394 
L 118.347599 417.98575 
L 120.3907 419.295722 
L 122.433801 412.954242 
L 124.476901 414.357555 
L 126.520002 415.544821 
L 128.563103 407.376658 
L 130.606204 408.716702 
L 132.649304 398.408279 
L 134.692405 400.384274 
L 136.735506 386.788751 
L 138.778607 390.988401 
L 140.821707 379.876822 
L 142.864808 369.836205 
L 144.907909 378.486335 
L 146.95101 370.599425 
L 148.99411 364.824579 
L 151.037211 378.501407 
L 153.080312 375.387654 
L 155.123412 385.54882 
L 157.166513 394.42295 
L 159.209614 368.892333 
L 161.252715 358.02713 
L 163.295815 363.229558 
L 167.382017 371.215858 
L 169.425118 374.234535 
L 171.468218 356.708082 
L 173.511319 373.930014 
L 175.55442 379.537256 
L 177.597521 384.689821 
L 179.640621 363.585669 
L 181.683722 357.876275 
L 183.726823 354.22119 
L 185.769924 362.244974 
L 187.813024 351.472611 
L 189.856125 345.520403 
L 191.899226 307.244497 
L 193.942327 311.704786 
L 195.985427 293.719562 
L 198.028528 313.17621 
L 200.071629 334.067199 
L 202.11473 345.414471 
L 204.15783 345.32205 
L 206.200931 374.148482 
L 208.244032 395.034877 
L 210.287133 384.818105 
L 212.330233 399.851281 
L 214.373334 404.193871 
L 216.416435 412.387105 
L 218.459536 399.71005 
L 220.502636 393.971187 
L 222.545737 390.445805 
L 224.588838 390.570062 
L 226.631938 384.020596 
L 228.675039 369.846364 
L 230.71814 361.946195 
L 232.761241 375.03045 
L 234.804341 367.180299 
L 236.847442 394.855108 
L 238.890543 375.160867 
L 240.933644 378.006091 
L 242.976744 397.131911 
L 245.019845 409.296121 
L 247.062946 420.052041 
L 249.106047 423.346397 
L 251.149147 421.479614 
L 253.192248 410.715758 
L 255.235349 416.167492 
L 257.27845 416.087122 
L 259.32155 422.0497 
L 261.364651 424.141298 
L 263.407752 428.000932 
L 265.450853 431.562497 
L 267.493953 433.829791 
L 269.537054 437.615741 
L 271.580155 439.138618 
L 273.623256 439.332745 
L 275.666356 438.483293 
L 277.709457 439.74745 
L 279.752558 438.751899 
L 281.795659 438.843206 
L 283.838759 441.019025 
L 285.88186 442.514339 
L 287.924961 442.659805 
L 289.968062 441.732062 
L 292.011162 441.997278 
L 294.054263 443.152202 
L 296.097364 443.054907 
L 298.140464 444.068275 
L 300.183565 443.676645 
L 302.226666 444.563368 
L 306.312867 445.85819 
L 310.399069 443.80898 
L 312.44217 444.532712 
L 314.48527 445.096929 
L 316.528371 445.495422 
L 318.571472 443.765888 
L 320.614573 444.420535 
L 324.700774 445.1217 
L 332.873177 446.022138 
L 336.959379 446.237952 
L 339.002479 443.536765 
L 341.04558 443.84798 
L 343.088681 443.868555 
L 345.131782 444.162404 
L 351.261084 444.679781 
L 353.304185 440.863059 
L 355.347285 441.445676 
L 357.390386 441.543808 
L 361.476588 442.38293 
L 367.60589 443.28016 
L 371.692091 443.832552 
L 375.778293 444.240811 
L 388.036897 445.01386 
L 392.123099 445.225499 
L 394.166199 445.295595 
L 396.2093 445.517793 
L 402.338602 445.53623 
L 404.381703 445.724887 
L 408.467905 445.761234 
L 410.511005 445.889004 
L 412.554106 445.70618 
L 416.640308 446.005486 
L 420.726509 445.90672 
L 424.812711 446.155529 
L 426.855811 446.077825 
L 428.898912 446.130043 
L 430.942013 446.377521 
L 432.985114 446.277146 
L 435.028214 446.365062 
L 435.028214 446.365062 
" clip-path="url(#p7f5bb75d0e)" style="fill: none; stroke: #0173b2; stroke-width: 2; stroke-linecap: square"/>
   </g>
   <g id="line2d_22">
    <path d="M 81.571786 392.81432 
L 83.614886 392.384184 
L 85.657987 244.280351 
L 86.642303 -1 
M 92.495883 -1 
L 93.83039 92.177143 
L 95.873491 213.829038 
L 97.916592 291.765595 
L 99.959692 337.463404 
L 102.002793 345.042879 
L 104.045894 371.151145 
L 106.088995 388.096865 
L 108.132095 397.862415 
L 110.175196 405.683276 
L 112.218297 410.154345 
L 114.261398 413.765559 
L 116.304498 416.632935 
L 118.347599 418.609971 
L 120.3907 420.151565 
L 122.433801 413.4185 
L 124.476901 415.04676 
L 126.520002 416.211362 
L 128.563103 407.407511 
L 130.606204 409.006697 
L 132.649304 398.46199 
L 134.692405 400.220388 
L 136.735506 387.976234 
L 138.778607 390.961724 
L 142.864808 367.60751 
L 144.907909 376.813895 
L 146.95101 369.027064 
L 148.99411 364.452597 
L 151.037211 376.110718 
L 153.080312 373.535704 
L 155.123412 384.424765 
L 157.166513 393.452745 
L 159.209614 366.641972 
L 161.252715 356.475145 
L 163.295815 360.797763 
L 165.338916 366.354773 
L 167.382017 368.920333 
L 169.425118 372.547631 
L 171.468218 355.282996 
L 173.511319 373.991956 
L 175.55442 378.714786 
L 177.597521 383.894392 
L 179.640621 363.584153 
L 181.683722 357.864856 
L 183.726823 354.336828 
L 185.769924 362.160843 
L 187.813024 352.287021 
L 189.856125 346.527713 
L 191.899226 308.129549 
L 193.942327 312.367114 
L 195.985427 294.411384 
L 198.028528 312.481813 
L 200.071629 336.837891 
L 202.11473 346.021386 
L 204.15783 346.474422 
L 206.200931 374.438402 
L 208.244032 395.273371 
L 210.287133 384.368258 
L 212.330233 400.197895 
L 214.373334 404.013795 
L 216.416435 412.544411 
L 218.459536 399.781449 
L 220.502636 393.433495 
L 222.545737 389.796957 
L 224.588838 390.127827 
L 226.631938 383.789876 
L 228.675039 369.391575 
L 230.71814 360.16923 
L 232.761241 373.38386 
L 234.804341 365.662532 
L 236.847442 392.623974 
L 238.890543 371.988928 
L 240.933644 375.11005 
L 242.976744 393.988367 
L 245.019845 406.373124 
L 247.062946 417.443202 
L 249.106047 420.992478 
L 251.149147 418.744989 
L 253.192248 406.46641 
L 255.235349 411.882261 
L 257.27845 411.872099 
L 259.32155 418.183558 
L 261.364651 419.968589 
L 265.450853 427.396472 
L 267.493953 429.612905 
L 269.537054 433.985109 
L 271.580155 435.372599 
L 273.623256 435.437773 
L 275.666356 433.937938 
L 277.709457 435.158995 
L 279.752558 433.349754 
L 281.795659 433.104564 
L 283.838759 435.496658 
L 285.88186 437.217388 
L 287.924961 436.822473 
L 289.968062 434.699695 
L 292.011162 434.502375 
L 294.054263 435.895564 
L 296.097364 435.030188 
L 298.140464 436.172126 
L 300.183565 434.774689 
L 302.226666 435.812714 
L 304.269767 436.533024 
L 306.312867 437.108349 
L 310.399069 433.213657 
L 312.44217 433.984837 
L 314.48527 434.584073 
L 316.528371 435.052028 
L 318.571472 432.090707 
L 324.700774 433.555783 
L 328.786976 433.857957 
L 330.830076 434.243268 
L 334.916278 434.299877 
L 336.959379 434.366314 
L 339.002479 429.549144 
L 341.04558 429.821853 
L 343.088681 429.602352 
L 345.131782 429.843582 
L 347.174882 429.793684 
L 349.217983 429.572545 
L 351.261084 429.724095 
L 353.304185 421.908219 
L 357.390386 422.19155 
L 359.433487 422.340029 
L 361.476588 423.197467 
L 363.519688 423.080351 
L 369.64899 424.600611 
L 371.692091 424.561597 
L 375.778293 425.435026 
L 377.821393 425.428616 
L 379.864494 425.297789 
L 381.907595 425.525951 
L 383.950696 425.157617 
L 385.993796 425.476478 
L 388.036897 425.023689 
L 390.079998 425.035395 
L 392.123099 424.697959 
L 394.166199 424.086529 
L 396.2093 424.034705 
L 398.252401 423.005592 
L 400.295502 423.337666 
L 402.338602 421.996223 
L 404.381703 421.772704 
L 406.424804 421.429971 
L 408.467905 421.239872 
L 410.511005 420.320892 
L 412.554106 419.711749 
L 414.597207 419.859418 
L 416.640308 419.251491 
L 418.683408 417.4612 
L 420.726509 418.267384 
L 424.812711 416.635439 
L 426.855811 415.954619 
L 428.898912 416.760882 
L 430.942013 415.38946 
L 432.985114 414.168927 
L 435.028214 414.359817 
L 435.028214 414.359817 
" clip-path="url(#p7f5bb75d0e)" style="fill: none; stroke: #de8f05; stroke-width: 2; stroke-linecap: square"/>
   </g>
   <g id="patch_178">
    <path d="M 63 448.56 
L 63 60.48 
" style="fill: none; stroke: #000000; stroke-width: 0.8; stroke-linejoin: miter; stroke-linecap: square"/>
   </g>
   <g id="patch_179">
    <path d="M 63 448.56 
L 453.6 448.56 
" style="fill: none; stroke: #000000; stroke-width: 0.8; stroke-linejoin: miter; stroke-linecap: square"/>
   </g>
   <g id="legend_1">
    <g id="patch_180">
     <path d="M 281.883438 113.682187 
L 443.8 113.682187 
Q 446.6 113.682187 446.6 110.882187 
L 446.6 70.28 
Q 446.6 67.48 443.8 67.48 
L 281.883438 67.48 
Q 279.083438 67.48 279.083438 70.28 
L 279.083438 110.882187 
Q 279.083438 113.682187 281.883438 113.682187 
z
" style="fill: #ffffff; opacity: 0.8; stroke: #cccccc; stroke-linejoin: miter"/>
    </g>
    <g id="line2d_23">
     <path d="M 284.683438 78.817812 
L 298.683438 78.817812 
L 312.683438 78.817812 
" style="fill: none; stroke: #0173b2; stroke-width: 2; stroke-linecap: square"/>
    </g>
    <g id="text_24">
     <text style="font-size: 14px; font-family: 'Arial', sans-serif; text-anchor: start" x="323.883438" y="83.717812" transform="rotate(-0 323.883438 83.717812)">Suitability-based</text>
    </g>
    <g id="line2d_24">
     <path d="M 284.683438 99.818906 
L 298.683438 99.818906 
L 312.683438 99.818906 
" style="fill: none; stroke: #de8f05; stroke-width: 2; stroke-linecap: square"/>
    </g>
    <g id="text_25">
     <text style="font-size: 14px; font-family: 'Arial', sans-serif; text-anchor: start" x="323.883438" y="104.718906" transform="rotate(-0 323.883438 104.718906)">Autoregressive</text>
    </g>
   </g>
  </g>
 </g>
 <defs>
  <clipPath id="p7f5bb75d0e">
   <rect x="63" y="60.48" width="390.6" height="388.08"/>
  </clipPath>
 </defs>
</svg>
