<?xml version="1.0" encoding="utf-8" standalone="no"?>
<!DOCTYPE svg PUBLIC "-//W3C//DTD SVG 1.1//EN"
  "http://www.w3.org/Graphics/SVG/1.1/DTD/svg11.dtd">
<svg xmlns:xlink="http://www.w3.org/1999/xlink" width="504pt" height="504pt" viewBox="0 0 504 504" xmlns="http://www.w3.org/2000/svg" version="1.1">
 <metadata>
  <rdf:RDF xmlns:dc="http://purl.org/dc/elements/1.1/" xmlns:cc="http://creativecommons.org/ns#" xmlns:rdf="http://www.w3.org/1999/02/22-rdf-syntax-ns#">
   <cc:Work>
    <dc:type rdf:resource="http://purl.org/dc/dcmitype/StillImage"/>
    <dc:date>2026-07-23T18:06:47.304723</dc:date>
    <dc:format>image/svg+xml</dc:format>
    <dc:creator>
     <cc:Agent>
      <dc:title>Matplotlib v3.11.0, https://matplotlib.org/</dc:title>
     </cc:Agent>
    </dc:creator>
   </cc:Work>
  </rdf:RDF>
 </metadata>
 <defs>
  <style type="text/css">*{stroke-linejoin: round; stroke-linecap: butt}</style>
 </defs>
 <g id="figure_1">
  <g id="patch_1">
   <path d="M 0 504 
L 504 504 
L 504 0 
L 0 0 
L 0 504 
z
" style="fill: none"/>
  </g>
  <g id="axes_1">
   <g id="patch_2">
    <path d="M 63 448.56 
L 453.6 448.56 
L 453.6 60.48 
L 63 60.48 
L 63 448.56 
z
" style="fill: none"/>
   </g>
   <g id="matplotlib.axis_1">
    <g id="ytick_1">
     <g id="line2d_1">
      <defs>
       <path id="me01501ce47" d="M 0 0 
L 3.5 0 
" style="stroke: #7f7f7f; stroke-width: 0.8"/>
      </defs>
      <g>
       <use xlink:href="#me01501ce47" x="453.6" y="448.56" style="fill: #7f7f7f; stroke: #7f7f7f; stroke-width: 0.8"/>
      </g>
     </g>
     <g id="text_1">
      <text style="font-size: 16px; font-family: 'Arial', sans-serif; text-anchor: start; fill: #7f7f7f" x="460.6" y="454.384219" transform="rotate(-0 460.6 454.384219)">0</text>
     </g>
    </g>
    <g id="ytick_2">
     <g id="line2d_2">
      <g>
       <use xlink:href="#me01501ce47" x="453.6" y="396.816" style="fill: #7f7f7f; stroke: #7f7f7f; stroke-width: 0.8"/>
      </g>
     </g>
     <g id="text_2">
      <text style="font-size: 16px; font-family: 'Arial', sans-serif; text-anchor: start; fill: #7f7f7f" x="460.6" y="402.640219" transform="rotate(-0 460.6 402.640219)">2</text>
     </g>
    </g>
    <g id="ytick_3">
     <g id="line2d_3">
      <g>
       <use xlink:href="#me01501ce47" x="453.6" y="345.072" style="fill: #7f7f7f; stroke: #7f7f7f; stroke-width: 0.8"/>
      </g>
     </g>
     <g id="text_3">
      <text style="font-size: 16px; font-family: 'Arial', sans-serif; text-anchor: start; fill: #7f7f7f" x="460.6" y="350.896219" transform="rotate(-0 460.6 350.896219)">4</text>
     </g>
    </g>
    <g id="ytick_4">
     <g id="line2d_4">
      <g>
       <use xlink:href="#me01501ce47" x="453.6" y="293.328" style="fill: #7f7f7f; stroke: #7f7f7f; stroke-width: 0.8"/>
      </g>
     </g>
     <g id="text_4">
      <text style="font-size: 16px; font-family: 'Arial', sans-serif; text-anchor: start; fill: #7f7f7f" x="460.6" y="299.152219" transform="rotate(-0 460.6 299.152219)">6</text>
     </g>
    </g>
    <g id="ytick_5">
     <g id="line2d_5">
      <g>
       <use xlink:href="#me01501ce47" x="453.6" y="241.584" style="fill: #7f7f7f; stroke: #7f7f7f; stroke-width: 0.8"/>
      </g>
     </g>
     <g id="text_5">
      <text style="font-size: 16px; font-family: 'Arial', sans-serif; text-anchor: start; fill: #7f7f7f" x="460.6" y="247.408219" transform="rotate(-0 460.6 247.408219)">8</text>
     </g>
    </g>
    <g id="ytick_6">
     <g id="line2d_6">
      <g>
       <use xlink:href="#me01501ce47" x="453.6" y="189.84" style="fill: #7f7f7f; stroke: #7f7f7f; stroke-width: 0.8"/>
      </g>
     </g>
     <g id="text_6">
      <text style="font-size: 16px; font-family: 'Arial', sans-serif; text-anchor: start; fill: #7f7f7f" x="460.6" y="195.664219" transform="rotate(-0 460.6 195.664219)">10</text>
     </g>
    </g>
    <g id="ytick_7">
     <g id="line2d_7">
      <g>
       <use xlink:href="#me01501ce47" x="453.6" y="138.096" style="fill: #7f7f7f; stroke: #7f7f7f; stroke-width: 0.8"/>
      </g>
     </g>
     <g id="text_7">
      <text style="font-size: 16px; font-family: 'Arial', sans-serif; text-anchor: start; fill: #7f7f7f" x="460.6" y="143.920219" transform="rotate(-0 460.6 143.920219)">12</text>
     </g>
    </g>
    <g id="ytick_8">
     <g id="line2d_8">
      <g>
       <use xlink:href="#me01501ce47" x="453.6" y="86.352" style="fill: #7f7f7f; stroke: #7f7f7f; stroke-width: 0.8"/>
      </g>
     </g>
     <g id="text_8">
      <text style="font-size: 16px; font-family: 'Arial', sans-serif; text-anchor: start; fill: #7f7f7f" x="460.6" y="92.176219" transform="rotate(-0 460.6 92.176219)">14</text>
     </g>
    </g>
    <g id="text_9">
     <text style="font-size: 16px; font-family: 'Arial', sans-serif; text-anchor: middle; fill: #7f7f7f" x="494.043438" y="254.52" transform="rotate(-90 494.043438 254.52)">Number of cases</text>
    </g>
   </g>
   <g id="patch_3">
    <path d="M 82.107042 448.56 
L 83.684507 448.56 
L 83.684507 396.816 
L 82.107042 396.816 
z
" clip-path="url(#p4b1909c543)" style="fill: #7f7f7f; opacity: 0.5"/>
   </g>
   <g id="patch_4">
    <path d="M 84.078873 448.56 
L 85.656338 448.56 
L 85.656338 396.816 
L 84.078873 396.816 
z
" clip-path="url(#p4b1909c543)" style="fill: #7f7f7f; opacity: 0.5"/>
   </g>
   <g id="patch_5">
    <path d="M 86.050704 448.56 
L 87.628169 448.56 
L 87.628169 396.816 
L 86.050704 396.816 
z
" clip-path="url(#p4b1909c543)" style="fill: #7f7f7f; opacity: 0.5"/>
   </g>
   <g id="patch_6">
    <path d="M 88.022535 448.56 
L 89.6 448.56 
L 89.6 448.56 
L 88.022535 448.56 
z
" clip-path="url(#p4b1909c543)" style="fill: #7f7f7f; opacity: 0.5"/>
   </g>
   <g id="patch_7">
    <path d="M 89.994366 448.56 
L 91.571831 448.56 
L 91.571831 448.56 
L 89.994366 448.56 
z
" clip-path="url(#p4b1909c543)" style="fill: #7f7f7f; opacity: 0.5"/>
   </g>
   <g id="patch_8">
    <path d="M 91.966197 448.56 
L 93.543662 448.56 
L 93.543662 448.56 
L 91.966197 448.56 
z
" clip-path="url(#p4b1909c543)" style="fill: #7f7f7f; opacity: 0.5"/>
   </g>
   <g id="patch_9">
    <path d="M 93.938028 448.56 
L 95.515493 448.56 
L 95.515493 448.56 
L 93.938028 448.56 
z
" clip-path="url(#p4b1909c543)" style="fill: #7f7f7f; opacity: 0.5"/>
   </g>
   <g id="patch_10">
    <path d="M 95.909859 448.56 
L 97.487324 448.56 
L 97.487324 448.56 
L 95.909859 448.56 
z
" clip-path="url(#p4b1909c543)" style="fill: #7f7f7f; opacity: 0.5"/>
   </g>
   <g id="patch_11">
    <path d="M 97.88169 448.56 
L 99.459155 448.56 
L 99.459155 448.56 
L 97.88169 448.56 
z
" clip-path="url(#p4b1909c543)" style="fill: #7f7f7f; opacity: 0.5"/>
   </g>
   <g id="patch_12">
    <path d="M 99.853521 448.56 
L 101.430986 448.56 
L 101.430986 422.688 
L 99.853521 422.688 
z
" clip-path="url(#p4b1909c543)" style="fill: #7f7f7f; opacity: 0.5"/>
   </g>
   <g id="patch_13">
    <path d="M 101.825352 448.56 
L 103.402817 448.56 
L 103.402817 448.56 
L 101.825352 448.56 
z
" clip-path="url(#p4b1909c543)" style="fill: #7f7f7f; opacity: 0.5"/>
   </g>
   <g id="patch_14">
    <path d="M 103.797183 448.56 
L 105.374648 448.56 
L 105.374648 448.56 
L 103.797183 448.56 
z
" clip-path="url(#p4b1909c543)" style="fill: #7f7f7f; opacity: 0.5"/>
   </g>
   <g id="patch_15">
    <path d="M 105.769014 448.56 
L 107.346479 448.56 
L 107.346479 448.56 
L 105.769014 448.56 
z
" clip-path="url(#p4b1909c543)" style="fill: #7f7f7f; opacity: 0.5"/>
   </g>
   <g id="patch_16">
    <path d="M 107.740845 448.56 
L 109.31831 448.56 
L 109.31831 448.56 
L 107.740845 448.56 
z
" clip-path="url(#p4b1909c543)" style="fill: #7f7f7f; opacity: 0.5"/>
   </g>
   <g id="patch_17">
    <path d="M 109.712676 448.56 
L 111.290141 448.56 
L 111.290141 448.56 
L 109.712676 448.56 
z
" clip-path="url(#p4b1909c543)" style="fill: #7f7f7f; opacity: 0.5"/>
   </g>
   <g id="patch_18">
    <path d="M 111.684507 448.56 
L 113.261972 448.56 
L 113.261972 448.56 
L 111.684507 448.56 
z
" clip-path="url(#p4b1909c543)" style="fill: #7f7f7f; opacity: 0.5"/>
   </g>
   <g id="patch_19">
    <path d="M 113.656338 448.56 
L 115.233803 448.56 
L 115.233803 448.56 
L 113.656338 448.56 
z
" clip-path="url(#p4b1909c543)" style="fill: #7f7f7f; opacity: 0.5"/>
   </g>
   <g id="patch_20">
    <path d="M 115.628169 448.56 
L 117.205634 448.56 
L 117.205634 448.56 
L 115.628169 448.56 
z
" clip-path="url(#p4b1909c543)" style="fill: #7f7f7f; opacity: 0.5"/>
   </g>
   <g id="patch_21">
    <path d="M 117.6 448.56 
L 119.177465 448.56 
L 119.177465 448.56 
L 117.6 448.56 
z
" clip-path="url(#p4b1909c543)" style="fill: #7f7f7f; opacity: 0.5"/>
   </g>
   <g id="patch_22">
    <path d="M 119.571831 448.56 
L 121.149296 448.56 
L 121.149296 422.688 
L 119.571831 422.688 
z
" clip-path="url(#p4b1909c543)" style="fill: #7f7f7f; opacity: 0.5"/>
   </g>
   <g id="patch_23">
    <path d="M 121.543662 448.56 
L 123.121127 448.56 
L 123.121127 448.56 
L 121.543662 448.56 
z
" clip-path="url(#p4b1909c543)" style="fill: #7f7f7f; opacity: 0.5"/>
   </g>
   <g id="patch_24">
    <path d="M 123.515493 448.56 
L 125.092958 448.56 
L 125.092958 448.56 
L 123.515493 448.56 
z
" clip-path="url(#p4b1909c543)" style="fill: #7f7f7f; opacity: 0.5"/>
   </g>
   <g id="patch_25">
    <path d="M 125.487324 448.56 
L 127.064789 448.56 
L 127.064789 422.688 
L 125.487324 422.688 
z
" clip-path="url(#p4b1909c543)" style="fill: #7f7f7f; opacity: 0.5"/>
   </g>
   <g id="patch_26">
    <path d="M 127.459155 448.56 
L 129.03662 448.56 
L 129.03662 448.56 
L 127.459155 448.56 
z
" clip-path="url(#p4b1909c543)" style="fill: #7f7f7f; opacity: 0.5"/>
   </g>
   <g id="patch_27">
    <path d="M 129.430986 448.56 
L 131.008451 448.56 
L 131.008451 422.688 
L 129.430986 422.688 
z
" clip-path="url(#p4b1909c543)" style="fill: #7f7f7f; opacity: 0.5"/>
   </g>
   <g id="patch_28">
    <path d="M 131.402817 448.56 
L 132.980282 448.56 
L 132.980282 448.56 
L 131.402817 448.56 
z
" clip-path="url(#p4b1909c543)" style="fill: #7f7f7f; opacity: 0.5"/>
   </g>
   <g id="patch_29">
    <path d="M 133.374648 448.56 
L 134.952113 448.56 
L 134.952113 422.688 
L 133.374648 422.688 
z
" clip-path="url(#p4b1909c543)" style="fill: #7f7f7f; opacity: 0.5"/>
   </g>
   <g id="patch_30">
    <path d="M 135.346479 448.56 
L 136.923944 448.56 
L 136.923944 448.56 
L 135.346479 448.56 
z
" clip-path="url(#p4b1909c543)" style="fill: #7f7f7f; opacity: 0.5"/>
   </g>
   <g id="patch_31">
    <path d="M 137.31831 448.56 
L 138.895775 448.56 
L 138.895775 422.688 
L 137.31831 422.688 
z
" clip-path="url(#p4b1909c543)" style="fill: #7f7f7f; opacity: 0.5"/>
   </g>
   <g id="patch_32">
    <path d="M 139.290141 448.56 
L 140.867606 448.56 
L 140.867606 422.688 
L 139.290141 422.688 
z
" clip-path="url(#p4b1909c543)" style="fill: #7f7f7f; opacity: 0.5"/>
   </g>
   <g id="patch_33">
    <path d="M 141.261972 448.56 
L 142.839437 448.56 
L 142.839437 448.56 
L 141.261972 448.56 
z
" clip-path="url(#p4b1909c543)" style="fill: #7f7f7f; opacity: 0.5"/>
   </g>
   <g id="patch_34">
    <path d="M 143.233803 448.56 
L 144.811268 448.56 
L 144.811268 422.688 
L 143.233803 422.688 
z
" clip-path="url(#p4b1909c543)" style="fill: #7f7f7f; opacity: 0.5"/>
   </g>
   <g id="patch_35">
    <path d="M 145.205634 448.56 
L 146.783099 448.56 
L 146.783099 422.688 
L 145.205634 422.688 
z
" clip-path="url(#p4b1909c543)" style="fill: #7f7f7f; opacity: 0.5"/>
   </g>
   <g id="patch_36">
    <path d="M 147.177465 448.56 
L 148.75493 448.56 
L 148.75493 448.56 
L 147.177465 448.56 
z
" clip-path="url(#p4b1909c543)" style="fill: #7f7f7f; opacity: 0.5"/>
   </g>
   <g id="patch_37">
    <path d="M 149.149296 448.56 
L 150.726761 448.56 
L 150.726761 422.688 
L 149.149296 422.688 
z
" clip-path="url(#p4b1909c543)" style="fill: #7f7f7f; opacity: 0.5"/>
   </g>
   <g id="patch_38">
    <path d="M 151.121127 448.56 
L 152.698592 448.56 
L 152.698592 448.56 
L 151.121127 448.56 
z
" clip-path="url(#p4b1909c543)" style="fill: #7f7f7f; opacity: 0.5"/>
   </g>
   <g id="patch_39">
    <path d="M 153.092958 448.56 
L 154.670423 448.56 
L 154.670423 448.56 
L 153.092958 448.56 
z
" clip-path="url(#p4b1909c543)" style="fill: #7f7f7f; opacity: 0.5"/>
   </g>
   <g id="patch_40">
    <path d="M 155.064789 448.56 
L 156.642254 448.56 
L 156.642254 370.944 
L 155.064789 370.944 
z
" clip-path="url(#p4b1909c543)" style="fill: #7f7f7f; opacity: 0.5"/>
   </g>
   <g id="patch_41">
    <path d="M 157.03662 448.56 
L 158.614085 448.56 
L 158.614085 396.816 
L 157.03662 396.816 
z
" clip-path="url(#p4b1909c543)" style="fill: #7f7f7f; opacity: 0.5"/>
   </g>
   <g id="patch_42">
    <path d="M 159.008451 448.56 
L 160.585915 448.56 
L 160.585915 422.688 
L 159.008451 422.688 
z
" clip-path="url(#p4b1909c543)" style="fill: #7f7f7f; opacity: 0.5"/>
   </g>
   <g id="patch_43">
    <path d="M 160.980282 448.56 
L 162.557746 448.56 
L 162.557746 422.688 
L 160.980282 422.688 
z
" clip-path="url(#p4b1909c543)" style="fill: #7f7f7f; opacity: 0.5"/>
   </g>
   <g id="patch_44">
    <path d="M 162.952113 448.56 
L 164.529577 448.56 
L 164.529577 422.688 
L 162.952113 422.688 
z
" clip-path="url(#p4b1909c543)" style="fill: #7f7f7f; opacity: 0.5"/>
   </g>
   <g id="patch_45">
    <path d="M 164.923944 448.56 
L 166.501408 448.56 
L 166.501408 422.688 
L 164.923944 422.688 
z
" clip-path="url(#p4b1909c543)" style="fill: #7f7f7f; opacity: 0.5"/>
   </g>
   <g id="patch_46">
    <path d="M 166.895775 448.56 
L 168.473239 448.56 
L 168.473239 370.944 
L 166.895775 370.944 
z
" clip-path="url(#p4b1909c543)" style="fill: #7f7f7f; opacity: 0.5"/>
   </g>
   <g id="patch_47">
    <path d="M 168.867606 448.56 
L 170.44507 448.56 
L 170.44507 448.56 
L 168.867606 448.56 
z
" clip-path="url(#p4b1909c543)" style="fill: #7f7f7f; opacity: 0.5"/>
   </g>
   <g id="patch_48">
    <path d="M 170.839437 448.56 
L 172.416901 448.56 
L 172.416901 422.688 
L 170.839437 422.688 
z
" clip-path="url(#p4b1909c543)" style="fill: #7f7f7f; opacity: 0.5"/>
   </g>
   <g id="patch_49">
    <path d="M 172.811268 448.56 
L 174.388732 448.56 
L 174.388732 422.688 
L 172.811268 422.688 
z
" clip-path="url(#p4b1909c543)" style="fill: #7f7f7f; opacity: 0.5"/>
   </g>
   <g id="patch_50">
    <path d="M 174.783099 448.56 
L 176.360563 448.56 
L 176.360563 345.072 
L 174.783099 345.072 
z
" clip-path="url(#p4b1909c543)" style="fill: #7f7f7f; opacity: 0.5"/>
   </g>
   <g id="patch_51">
    <path d="M 176.75493 448.56 
L 178.332394 448.56 
L 178.332394 370.944 
L 176.75493 370.944 
z
" clip-path="url(#p4b1909c543)" style="fill: #7f7f7f; opacity: 0.5"/>
   </g>
   <g id="patch_52">
    <path d="M 178.726761 448.56 
L 180.304225 448.56 
L 180.304225 370.944 
L 178.726761 370.944 
z
" clip-path="url(#p4b1909c543)" style="fill: #7f7f7f; opacity: 0.5"/>
   </g>
   <g id="patch_53">
    <path d="M 180.698592 448.56 
L 182.276056 448.56 
L 182.276056 396.816 
L 180.698592 396.816 
z
" clip-path="url(#p4b1909c543)" style="fill: #7f7f7f; opacity: 0.5"/>
   </g>
   <g id="patch_54">
    <path d="M 182.670423 448.56 
L 184.247887 448.56 
L 184.247887 345.072 
L 182.670423 345.072 
z
" clip-path="url(#p4b1909c543)" style="fill: #7f7f7f; opacity: 0.5"/>
   </g>
   <g id="patch_55">
    <path d="M 184.642254 448.56 
L 186.219718 448.56 
L 186.219718 345.072 
L 184.642254 345.072 
z
" clip-path="url(#p4b1909c543)" style="fill: #7f7f7f; opacity: 0.5"/>
   </g>
   <g id="patch_56">
    <path d="M 186.614085 448.56 
L 188.191549 448.56 
L 188.191549 241.584 
L 186.614085 241.584 
z
" clip-path="url(#p4b1909c543)" style="fill: #7f7f7f; opacity: 0.5"/>
   </g>
   <g id="patch_57">
    <path d="M 188.585915 448.56 
L 190.16338 448.56 
L 190.16338 319.2 
L 188.585915 319.2 
z
" clip-path="url(#p4b1909c543)" style="fill: #7f7f7f; opacity: 0.5"/>
   </g>
   <g id="patch_58">
    <path d="M 190.557746 448.56 
L 192.135211 448.56 
L 192.135211 241.584 
L 190.557746 241.584 
z
" clip-path="url(#p4b1909c543)" style="fill: #7f7f7f; opacity: 0.5"/>
   </g>
   <g id="patch_59">
    <path d="M 192.529577 448.56 
L 194.107042 448.56 
L 194.107042 319.2 
L 192.529577 319.2 
z
" clip-path="url(#p4b1909c543)" style="fill: #7f7f7f; opacity: 0.5"/>
   </g>
   <g id="patch_60">
    <path d="M 194.501408 448.56 
L 196.078873 448.56 
L 196.078873 345.072 
L 194.501408 345.072 
z
" clip-path="url(#p4b1909c543)" style="fill: #7f7f7f; opacity: 0.5"/>
   </g>
   <g id="patch_61">
    <path d="M 196.473239 448.56 
L 198.050704 448.56 
L 198.050704 319.2 
L 196.473239 319.2 
z
" clip-path="url(#p4b1909c543)" style="fill: #7f7f7f; opacity: 0.5"/>
   </g>
   <g id="patch_62">
    <path d="M 198.44507 448.56 
L 200.022535 448.56 
L 200.022535 267.456 
L 198.44507 267.456 
z
" clip-path="url(#p4b1909c543)" style="fill: #7f7f7f; opacity: 0.5"/>
   </g>
   <g id="patch_63">
    <path d="M 200.416901 448.56 
L 201.994366 448.56 
L 201.994366 396.816 
L 200.416901 396.816 
z
" clip-path="url(#p4b1909c543)" style="fill: #7f7f7f; opacity: 0.5"/>
   </g>
   <g id="patch_64">
    <path d="M 202.388732 448.56 
L 203.966197 448.56 
L 203.966197 422.688 
L 202.388732 422.688 
z
" clip-path="url(#p4b1909c543)" style="fill: #7f7f7f; opacity: 0.5"/>
   </g>
   <g id="patch_65">
    <path d="M 204.360563 448.56 
L 205.938028 448.56 
L 205.938028 241.584 
L 204.360563 241.584 
z
" clip-path="url(#p4b1909c543)" style="fill: #7f7f7f; opacity: 0.5"/>
   </g>
   <g id="patch_66">
    <path d="M 206.332394 448.56 
L 207.909859 448.56 
L 207.909859 396.816 
L 206.332394 396.816 
z
" clip-path="url(#p4b1909c543)" style="fill: #7f7f7f; opacity: 0.5"/>
   </g>
   <g id="patch_67">
    <path d="M 208.304225 448.56 
L 209.88169 448.56 
L 209.88169 345.072 
L 208.304225 345.072 
z
" clip-path="url(#p4b1909c543)" style="fill: #7f7f7f; opacity: 0.5"/>
   </g>
   <g id="patch_68">
    <path d="M 210.276056 448.56 
L 211.853521 448.56 
L 211.853521 396.816 
L 210.276056 396.816 
z
" clip-path="url(#p4b1909c543)" style="fill: #7f7f7f; opacity: 0.5"/>
   </g>
   <g id="patch_69">
    <path d="M 212.247887 448.56 
L 213.825352 448.56 
L 213.825352 215.712 
L 212.247887 215.712 
z
" clip-path="url(#p4b1909c543)" style="fill: #7f7f7f; opacity: 0.5"/>
   </g>
   <g id="patch_70">
    <path d="M 214.219718 448.56 
L 215.797183 448.56 
L 215.797183 241.584 
L 214.219718 241.584 
z
" clip-path="url(#p4b1909c543)" style="fill: #7f7f7f; opacity: 0.5"/>
   </g>
   <g id="patch_71">
    <path d="M 216.191549 448.56 
L 217.769014 448.56 
L 217.769014 241.584 
L 216.191549 241.584 
z
" clip-path="url(#p4b1909c543)" style="fill: #7f7f7f; opacity: 0.5"/>
   </g>
   <g id="patch_72">
    <path d="M 218.16338 448.56 
L 219.740845 448.56 
L 219.740845 267.456 
L 218.16338 267.456 
z
" clip-path="url(#p4b1909c543)" style="fill: #7f7f7f; opacity: 0.5"/>
   </g>
   <g id="patch_73">
    <path d="M 220.135211 448.56 
L 221.712676 448.56 
L 221.712676 215.712 
L 220.135211 215.712 
z
" clip-path="url(#p4b1909c543)" style="fill: #7f7f7f; opacity: 0.5"/>
   </g>
   <g id="patch_74">
    <path d="M 222.107042 448.56 
L 223.684507 448.56 
L 223.684507 138.096 
L 222.107042 138.096 
z
" clip-path="url(#p4b1909c543)" style="fill: #7f7f7f; opacity: 0.5"/>
   </g>
   <g id="patch_75">
    <path d="M 224.078873 448.56 
L 225.656338 448.56 
L 225.656338 138.096 
L 224.078873 138.096 
z
" clip-path="url(#p4b1909c543)" style="fill: #7f7f7f; opacity: 0.5"/>
   </g>
   <g id="patch_76">
    <path d="M 226.050704 448.56 
L 227.628169 448.56 
L 227.628169 267.456 
L 226.050704 267.456 
z
" clip-path="url(#p4b1909c543)" style="fill: #7f7f7f; opacity: 0.5"/>
   </g>
   <g id="patch_77">
    <path d="M 228.022535 448.56 
L 229.6 448.56 
L 229.6 138.096 
L 228.022535 138.096 
z
" clip-path="url(#p4b1909c543)" style="fill: #7f7f7f; opacity: 0.5"/>
   </g>
   <g id="patch_78">
    <path d="M 229.994366 448.56 
L 231.571831 448.56 
L 231.571831 396.816 
L 229.994366 396.816 
z
" clip-path="url(#p4b1909c543)" style="fill: #7f7f7f; opacity: 0.5"/>
   </g>
   <g id="patch_79">
    <path d="M 231.966197 448.56 
L 233.543662 448.56 
L 233.543662 60.48 
L 231.966197 60.48 
z
" clip-path="url(#p4b1909c543)" style="fill: #7f7f7f; opacity: 0.5"/>
   </g>
   <g id="patch_80">
    <path d="M 233.938028 448.56 
L 235.515493 448.56 
L 235.515493 163.968 
L 233.938028 163.968 
z
" clip-path="url(#p4b1909c543)" style="fill: #7f7f7f; opacity: 0.5"/>
   </g>
   <g id="patch_81">
    <path d="M 235.909859 448.56 
L 237.487324 448.56 
L 237.487324 319.2 
L 235.909859 319.2 
z
" clip-path="url(#p4b1909c543)" style="fill: #7f7f7f; opacity: 0.5"/>
   </g>
   <g id="patch_82">
    <path d="M 237.88169 448.56 
L 239.459155 448.56 
L 239.459155 345.072 
L 237.88169 345.072 
z
" clip-path="url(#p4b1909c543)" style="fill: #7f7f7f; opacity: 0.5"/>
   </g>
   <g id="patch_83">
    <path d="M 239.853521 448.56 
L 241.430986 448.56 
L 241.430986 396.816 
L 239.853521 396.816 
z
" clip-path="url(#p4b1909c543)" style="fill: #7f7f7f; opacity: 0.5"/>
   </g>
   <g id="patch_84">
    <path d="M 241.825352 448.56 
L 243.402817 448.56 
L 243.402817 345.072 
L 241.825352 345.072 
z
" clip-path="url(#p4b1909c543)" style="fill: #7f7f7f; opacity: 0.5"/>
   </g>
   <g id="patch_85">
    <path d="M 243.797183 448.56 
L 245.374648 448.56 
L 245.374648 267.456 
L 243.797183 267.456 
z
" clip-path="url(#p4b1909c543)" style="fill: #7f7f7f; opacity: 0.5"/>
   </g>
   <g id="patch_86">
    <path d="M 245.769014 448.56 
L 247.346479 448.56 
L 247.346479 112.224 
L 245.769014 112.224 
z
" clip-path="url(#p4b1909c543)" style="fill: #7f7f7f; opacity: 0.5"/>
   </g>
   <g id="patch_87">
    <path d="M 247.740845 448.56 
L 249.31831 448.56 
L 249.31831 293.328 
L 247.740845 293.328 
z
" clip-path="url(#p4b1909c543)" style="fill: #7f7f7f; opacity: 0.5"/>
   </g>
   <g id="patch_88">
    <path d="M 249.712676 448.56 
L 251.290141 448.56 
L 251.290141 241.584 
L 249.712676 241.584 
z
" clip-path="url(#p4b1909c543)" style="fill: #7f7f7f; opacity: 0.5"/>
   </g>
   <g id="patch_89">
    <path d="M 251.684507 448.56 
L 253.261972 448.56 
L 253.261972 345.072 
L 251.684507 345.072 
z
" clip-path="url(#p4b1909c543)" style="fill: #7f7f7f; opacity: 0.5"/>
   </g>
   <g id="patch_90">
    <path d="M 253.656338 448.56 
L 255.233803 448.56 
L 255.233803 319.2 
L 253.656338 319.2 
z
" clip-path="url(#p4b1909c543)" style="fill: #7f7f7f; opacity: 0.5"/>
   </g>
   <g id="patch_91">
    <path d="M 255.628169 448.56 
L 257.205634 448.56 
L 257.205634 370.944 
L 255.628169 370.944 
z
" clip-path="url(#p4b1909c543)" style="fill: #7f7f7f; opacity: 0.5"/>
   </g>
   <g id="patch_92">
    <path d="M 257.6 448.56 
L 259.177465 448.56 
L 259.177465 396.816 
L 257.6 396.816 
z
" clip-path="url(#p4b1909c543)" style="fill: #7f7f7f; opacity: 0.5"/>
   </g>
   <g id="patch_93">
    <path d="M 259.571831 448.56 
L 261.149296 448.56 
L 261.149296 396.816 
L 259.571831 396.816 
z
" clip-path="url(#p4b1909c543)" style="fill: #7f7f7f; opacity: 0.5"/>
   </g>
   <g id="patch_94">
    <path d="M 261.543662 448.56 
L 263.121127 448.56 
L 263.121127 448.56 
L 261.543662 448.56 
z
" clip-path="url(#p4b1909c543)" style="fill: #7f7f7f; opacity: 0.5"/>
   </g>
   <g id="patch_95">
    <path d="M 263.515493 448.56 
L 265.092958 448.56 
L 265.092958 422.688 
L 263.515493 422.688 
z
" clip-path="url(#p4b1909c543)" style="fill: #7f7f7f; opacity: 0.5"/>
   </g>
   <g id="patch_96">
    <path d="M 265.487324 448.56 
L 267.064789 448.56 
L 267.064789 396.816 
L 265.487324 396.816 
z
" clip-path="url(#p4b1909c543)" style="fill: #7f7f7f; opacity: 0.5"/>
   </g>
   <g id="patch_97">
    <path d="M 267.459155 448.56 
L 269.03662 448.56 
L 269.03662 370.944 
L 267.459155 370.944 
z
" clip-path="url(#p4b1909c543)" style="fill: #7f7f7f; opacity: 0.5"/>
   </g>
   <g id="patch_98">
    <path d="M 269.430986 448.56 
L 271.008451 448.56 
L 271.008451 422.688 
L 269.430986 422.688 
z
" clip-path="url(#p4b1909c543)" style="fill: #7f7f7f; opacity: 0.5"/>
   </g>
   <g id="patch_99">
    <path d="M 271.402817 448.56 
L 272.980282 448.56 
L 272.980282 370.944 
L 271.402817 370.944 
z
" clip-path="url(#p4b1909c543)" style="fill: #7f7f7f; opacity: 0.5"/>
   </g>
   <g id="patch_100">
    <path d="M 273.374648 448.56 
L 274.952113 448.56 
L 274.952113 396.816 
L 273.374648 396.816 
z
" clip-path="url(#p4b1909c543)" style="fill: #7f7f7f; opacity: 0.5"/>
   </g>
   <g id="patch_101">
    <path d="M 275.346479 448.56 
L 276.923944 448.56 
L 276.923944 448.56 
L 275.346479 448.56 
z
" clip-path="url(#p4b1909c543)" style="fill: #7f7f7f; opacity: 0.5"/>
   </g>
   <g id="patch_102">
    <path d="M 277.31831 448.56 
L 278.895775 448.56 
L 278.895775 448.56 
L 277.31831 448.56 
z
" clip-path="url(#p4b1909c543)" style="fill: #7f7f7f; opacity: 0.5"/>
   </g>
   <g id="patch_103">
    <path d="M 279.290141 448.56 
L 280.867606 448.56 
L 280.867606 422.688 
L 279.290141 422.688 
z
" clip-path="url(#p4b1909c543)" style="fill: #7f7f7f; opacity: 0.5"/>
   </g>
   <g id="patch_104">
    <path d="M 281.261972 448.56 
L 282.839437 448.56 
L 282.839437 396.816 
L 281.261972 396.816 
z
" clip-path="url(#p4b1909c543)" style="fill: #7f7f7f; opacity: 0.5"/>
   </g>
   <g id="patch_105">
    <path d="M 283.233803 448.56 
L 284.811268 448.56 
L 284.811268 422.688 
L 283.233803 422.688 
z
" clip-path="url(#p4b1909c543)" style="fill: #7f7f7f; opacity: 0.5"/>
   </g>
   <g id="patch_106">
    <path d="M 285.205634 448.56 
L 286.783099 448.56 
L 286.783099 448.56 
L 285.205634 448.56 
z
" clip-path="url(#p4b1909c543)" style="fill: #7f7f7f; opacity: 0.5"/>
   </g>
   <g id="patch_107">
    <path d="M 287.177465 448.56 
L 288.75493 448.56 
L 288.75493 422.688 
L 287.177465 422.688 
z
" clip-path="url(#p4b1909c543)" style="fill: #7f7f7f; opacity: 0.5"/>
   </g>
   <g id="patch_108">
    <path d="M 289.149296 448.56 
L 290.726761 448.56 
L 290.726761 448.56 
L 289.149296 448.56 
z
" clip-path="url(#p4b1909c543)" style="fill: #7f7f7f; opacity: 0.5"/>
   </g>
   <g id="patch_109">
    <path d="M 291.121127 448.56 
L 292.698592 448.56 
L 292.698592 422.688 
L 291.121127 422.688 
z
" clip-path="url(#p4b1909c543)" style="fill: #7f7f7f; opacity: 0.5"/>
   </g>
   <g id="patch_110">
    <path d="M 293.092958 448.56 
L 294.670423 448.56 
L 294.670423 448.56 
L 293.092958 448.56 
z
" clip-path="url(#p4b1909c543)" style="fill: #7f7f7f; opacity: 0.5"/>
   </g>
   <g id="patch_111">
    <path d="M 295.064789 448.56 
L 296.642254 448.56 
L 296.642254 448.56 
L 295.064789 448.56 
z
" clip-path="url(#p4b1909c543)" style="fill: #7f7f7f; opacity: 0.5"/>
   </g>
   <g id="patch_112">
    <path d="M 297.03662 448.56 
L 298.614085 448.56 
L 298.614085 448.56 
L 297.03662 448.56 
z
" clip-path="url(#p4b1909c543)" style="fill: #7f7f7f; opacity: 0.5"/>
   </g>
   <g id="patch_113">
    <path d="M 299.008451 448.56 
L 300.585915 448.56 
L 300.585915 422.688 
L 299.008451 422.688 
z
" clip-path="url(#p4b1909c543)" style="fill: #7f7f7f; opacity: 0.5"/>
   </g>
   <g id="patch_114">
    <path d="M 300.980282 448.56 
L 302.557746 448.56 
L 302.557746 422.688 
L 300.980282 422.688 
z
" clip-path="url(#p4b1909c543)" style="fill: #7f7f7f; opacity: 0.5"/>
   </g>
   <g id="patch_115">
    <path d="M 302.952113 448.56 
L 304.529577 448.56 
L 304.529577 448.56 
L 302.952113 448.56 
z
" clip-path="url(#p4b1909c543)" style="fill: #7f7f7f; opacity: 0.5"/>
   </g>
   <g id="patch_116">
    <path d="M 304.923944 448.56 
L 306.501408 448.56 
L 306.501408 448.56 
L 304.923944 448.56 
z
" clip-path="url(#p4b1909c543)" style="fill: #7f7f7f; opacity: 0.5"/>
   </g>
   <g id="patch_117">
    <path d="M 306.895775 448.56 
L 308.473239 448.56 
L 308.473239 448.56 
L 306.895775 448.56 
z
" clip-path="url(#p4b1909c543)" style="fill: #7f7f7f; opacity: 0.5"/>
   </g>
   <g id="patch_118">
    <path d="M 308.867606 448.56 
L 310.44507 448.56 
L 310.44507 422.688 
L 308.867606 422.688 
z
" clip-path="url(#p4b1909c543)" style="fill: #7f7f7f; opacity: 0.5"/>
   </g>
   <g id="patch_119">
    <path d="M 310.839437 448.56 
L 312.416901 448.56 
L 312.416901 448.56 
L 310.839437 448.56 
z
" clip-path="url(#p4b1909c543)" style="fill: #7f7f7f; opacity: 0.5"/>
   </g>
   <g id="patch_120">
    <path d="M 312.811268 448.56 
L 314.388732 448.56 
L 314.388732 448.56 
L 312.811268 448.56 
z
" clip-path="url(#p4b1909c543)" style="fill: #7f7f7f; opacity: 0.5"/>
   </g>
   <g id="patch_121">
    <path d="M 314.783099 448.56 
L 316.360563 448.56 
L 316.360563 448.56 
L 314.783099 448.56 
z
" clip-path="url(#p4b1909c543)" style="fill: #7f7f7f; opacity: 0.5"/>
   </g>
   <g id="patch_122">
    <path d="M 316.75493 448.56 
L 318.332394 448.56 
L 318.332394 448.56 
L 316.75493 448.56 
z
" clip-path="url(#p4b1909c543)" style="fill: #7f7f7f; opacity: 0.5"/>
   </g>
   <g id="patch_123">
    <path d="M 318.726761 448.56 
L 320.304225 448.56 
L 320.304225 448.56 
L 318.726761 448.56 
z
" clip-path="url(#p4b1909c543)" style="fill: #7f7f7f; opacity: 0.5"/>
   </g>
   <g id="patch_124">
    <path d="M 320.698592 448.56 
L 322.276056 448.56 
L 322.276056 448.56 
L 320.698592 448.56 
z
" clip-path="url(#p4b1909c543)" style="fill: #7f7f7f; opacity: 0.5"/>
   </g>
   <g id="patch_125">
    <path d="M 322.670423 448.56 
L 324.247887 448.56 
L 324.247887 448.56 
L 322.670423 448.56 
z
" clip-path="url(#p4b1909c543)" style="fill: #7f7f7f; opacity: 0.5"/>
   </g>
   <g id="patch_126">
    <path d="M 324.642254 448.56 
L 326.219718 448.56 
L 326.219718 448.56 
L 324.642254 448.56 
z
" clip-path="url(#p4b1909c543)" style="fill: #7f7f7f; opacity: 0.5"/>
   </g>
   <g id="patch_127">
    <path d="M 326.614085 448.56 
L 328.191549 448.56 
L 328.191549 448.56 
L 326.614085 448.56 
z
" clip-path="url(#p4b1909c543)" style="fill: #7f7f7f; opacity: 0.5"/>
   </g>
   <g id="patch_128">
    <path d="M 328.585915 448.56 
L 330.16338 448.56 
L 330.16338 422.688 
L 328.585915 422.688 
z
" clip-path="url(#p4b1909c543)" style="fill: #7f7f7f; opacity: 0.5"/>
   </g>
   <g id="patch_129">
    <path d="M 330.557746 448.56 
L 332.135211 448.56 
L 332.135211 448.56 
L 330.557746 448.56 
z
" clip-path="url(#p4b1909c543)" style="fill: #7f7f7f; opacity: 0.5"/>
   </g>
   <g id="patch_130">
    <path d="M 332.529577 448.56 
L 334.107042 448.56 
L 334.107042 448.56 
L 332.529577 448.56 
z
" clip-path="url(#p4b1909c543)" style="fill: #7f7f7f; opacity: 0.5"/>
   </g>
   <g id="patch_131">
    <path d="M 334.501408 448.56 
L 336.078873 448.56 
L 336.078873 448.56 
L 334.501408 448.56 
z
" clip-path="url(#p4b1909c543)" style="fill: #7f7f7f; opacity: 0.5"/>
   </g>
   <g id="patch_132">
    <path d="M 336.473239 448.56 
L 338.050704 448.56 
L 338.050704 448.56 
L 336.473239 448.56 
z
" clip-path="url(#p4b1909c543)" style="fill: #7f7f7f; opacity: 0.5"/>
   </g>
   <g id="patch_133">
    <path d="M 338.44507 448.56 
L 340.022535 448.56 
L 340.022535 448.56 
L 338.44507 448.56 
z
" clip-path="url(#p4b1909c543)" style="fill: #7f7f7f; opacity: 0.5"/>
   </g>
   <g id="patch_134">
    <path d="M 340.416901 448.56 
L 341.994366 448.56 
L 341.994366 448.56 
L 340.416901 448.56 
z
" clip-path="url(#p4b1909c543)" style="fill: #7f7f7f; opacity: 0.5"/>
   </g>
   <g id="patch_135">
    <path d="M 342.388732 448.56 
L 343.966197 448.56 
L 343.966197 422.688 
L 342.388732 422.688 
z
" clip-path="url(#p4b1909c543)" style="fill: #7f7f7f; opacity: 0.5"/>
   </g>
   <g id="patch_136">
    <path d="M 344.360563 448.56 
L 345.938028 448.56 
L 345.938028 448.56 
L 344.360563 448.56 
z
" clip-path="url(#p4b1909c543)" style="fill: #7f7f7f; opacity: 0.5"/>
   </g>
   <g id="patch_137">
    <path d="M 346.332394 448.56 
L 347.909859 448.56 
L 347.909859 448.56 
L 346.332394 448.56 
z
" clip-path="url(#p4b1909c543)" style="fill: #7f7f7f; opacity: 0.5"/>
   </g>
   <g id="patch_138">
    <path d="M 348.304225 448.56 
L 349.88169 448.56 
L 349.88169 448.56 
L 348.304225 448.56 
z
" clip-path="url(#p4b1909c543)" style="fill: #7f7f7f; opacity: 0.5"/>
   </g>
   <g id="patch_139">
    <path d="M 350.276056 448.56 
L 351.853521 448.56 
L 351.853521 448.56 
L 350.276056 448.56 
z
" clip-path="url(#p4b1909c543)" style="fill: #7f7f7f; opacity: 0.5"/>
   </g>
   <g id="patch_140">
    <path d="M 352.247887 448.56 
L 353.825352 448.56 
L 353.825352 448.56 
L 352.247887 448.56 
z
" clip-path="url(#p4b1909c543)" style="fill: #7f7f7f; opacity: 0.5"/>
   </g>
   <g id="patch_141">
    <path d="M 354.219718 448.56 
L 355.797183 448.56 
L 355.797183 448.56 
L 354.219718 448.56 
z
" clip-path="url(#p4b1909c543)" style="fill: #7f7f7f; opacity: 0.5"/>
   </g>
   <g id="patch_142">
    <path d="M 356.191549 448.56 
L 357.769014 448.56 
L 357.769014 448.56 
L 356.191549 448.56 
z
" clip-path="url(#p4b1909c543)" style="fill: #7f7f7f; opacity: 0.5"/>
   </g>
   <g id="patch_143">
    <path d="M 358.16338 448.56 
L 359.740845 448.56 
L 359.740845 448.56 
L 358.16338 448.56 
z
" clip-path="url(#p4b1909c543)" style="fill: #7f7f7f; opacity: 0.5"/>
   </g>
   <g id="patch_144">
    <path d="M 360.135211 448.56 
L 361.712676 448.56 
L 361.712676 448.56 
L 360.135211 448.56 
z
" clip-path="url(#p4b1909c543)" style="fill: #7f7f7f; opacity: 0.5"/>
   </g>
   <g id="patch_145">
    <path d="M 362.107042 448.56 
L 363.684507 448.56 
L 363.684507 448.56 
L 362.107042 448.56 
z
" clip-path="url(#p4b1909c543)" style="fill: #7f7f7f; opacity: 0.5"/>
   </g>
   <g id="patch_146">
    <path d="M 364.078873 448.56 
L 365.656338 448.56 
L 365.656338 448.56 
L 364.078873 448.56 
z
" clip-path="url(#p4b1909c543)" style="fill: #7f7f7f; opacity: 0.5"/>
   </g>
   <g id="patch_147">
    <path d="M 366.050704 448.56 
L 367.628169 448.56 
L 367.628169 448.56 
L 366.050704 448.56 
z
" clip-path="url(#p4b1909c543)" style="fill: #7f7f7f; opacity: 0.5"/>
   </g>
   <g id="patch_148">
    <path d="M 368.022535 448.56 
L 369.6 448.56 
L 369.6 448.56 
L 368.022535 448.56 
z
" clip-path="url(#p4b1909c543)" style="fill: #7f7f7f; opacity: 0.5"/>
   </g>
   <g id="patch_149">
    <path d="M 369.994366 448.56 
L 371.571831 448.56 
L 371.571831 448.56 
L 369.994366 448.56 
z
" clip-path="url(#p4b1909c543)" style="fill: #7f7f7f; opacity: 0.5"/>
   </g>
   <g id="patch_150">
    <path d="M 371.966197 448.56 
L 373.543662 448.56 
L 373.543662 448.56 
L 371.966197 448.56 
z
" clip-path="url(#p4b1909c543)" style="fill: #7f7f7f; opacity: 0.5"/>
   </g>
   <g id="patch_151">
    <path d="M 373.938028 448.56 
L 375.515493 448.56 
L 375.515493 448.56 
L 373.938028 448.56 
z
" clip-path="url(#p4b1909c543)" style="fill: #7f7f7f; opacity: 0.5"/>
   </g>
   <g id="patch_152">
    <path d="M 375.909859 448.56 
L 377.487324 448.56 
L 377.487324 448.56 
L 375.909859 448.56 
z
" clip-path="url(#p4b1909c543)" style="fill: #7f7f7f; opacity: 0.5"/>
   </g>
   <g id="patch_153">
    <path d="M 377.88169 448.56 
L 379.459155 448.56 
L 379.459155 448.56 
L 377.88169 448.56 
z
" clip-path="url(#p4b1909c543)" style="fill: #7f7f7f; opacity: 0.5"/>
   </g>
   <g id="patch_154">
    <path d="M 379.853521 448.56 
L 381.430986 448.56 
L 381.430986 448.56 
L 379.853521 448.56 
z
" clip-path="url(#p4b1909c543)" style="fill: #7f7f7f; opacity: 0.5"/>
   </g>
   <g id="patch_155">
    <path d="M 381.825352 448.56 
L 383.402817 448.56 
L 383.402817 448.56 
L 381.825352 448.56 
z
" clip-path="url(#p4b1909c543)" style="fill: #7f7f7f; opacity: 0.5"/>
   </g>
   <g id="patch_156">
    <path d="M 383.797183 448.56 
L 385.374648 448.56 
L 385.374648 448.56 
L 383.797183 448.56 
z
" clip-path="url(#p4b1909c543)" style="fill: #7f7f7f; opacity: 0.5"/>
   </g>
   <g id="patch_157">
    <path d="M 385.769014 448.56 
L 387.346479 448.56 
L 387.346479 448.56 
L 385.769014 448.56 
z
" clip-path="url(#p4b1909c543)" style="fill: #7f7f7f; opacity: 0.5"/>
   </g>
   <g id="patch_158">
    <path d="M 387.740845 448.56 
L 389.31831 448.56 
L 389.31831 448.56 
L 387.740845 448.56 
z
" clip-path="url(#p4b1909c543)" style="fill: #7f7f7f; opacity: 0.5"/>
   </g>
   <g id="patch_159">
    <path d="M 389.712676 448.56 
L 391.290141 448.56 
L 391.290141 448.56 
L 389.712676 448.56 
z
" clip-path="url(#p4b1909c543)" style="fill: #7f7f7f; opacity: 0.5"/>
   </g>
   <g id="patch_160">
    <path d="M 391.684507 448.56 
L 393.261972 448.56 
L 393.261972 448.56 
L 391.684507 448.56 
z
" clip-path="url(#p4b1909c543)" style="fill: #7f7f7f; opacity: 0.5"/>
   </g>
   <g id="patch_161">
    <path d="M 393.656338 448.56 
L 395.233803 448.56 
L 395.233803 448.56 
L 393.656338 448.56 
z
" clip-path="url(#p4b1909c543)" style="fill: #7f7f7f; opacity: 0.5"/>
   </g>
   <g id="patch_162">
    <path d="M 395.628169 448.56 
L 397.205634 448.56 
L 397.205634 448.56 
L 395.628169 448.56 
z
" clip-path="url(#p4b1909c543)" style="fill: #7f7f7f; opacity: 0.5"/>
   </g>
   <g id="patch_163">
    <path d="M 397.6 448.56 
L 399.177465 448.56 
L 399.177465 448.56 
L 397.6 448.56 
z
" clip-path="url(#p4b1909c543)" style="fill: #7f7f7f; opacity: 0.5"/>
   </g>
   <g id="patch_164">
    <path d="M 399.571831 448.56 
L 401.149296 448.56 
L 401.149296 448.56 
L 399.571831 448.56 
z
" clip-path="url(#p4b1909c543)" style="fill: #7f7f7f; opacity: 0.5"/>
   </g>
   <g id="patch_165">
    <path d="M 401.543662 448.56 
L 403.121127 448.56 
L 403.121127 448.56 
L 401.543662 448.56 
z
" clip-path="url(#p4b1909c543)" style="fill: #7f7f7f; opacity: 0.5"/>
   </g>
   <g id="patch_166">
    <path d="M 403.515493 448.56 
L 405.092958 448.56 
L 405.092958 448.56 
L 403.515493 448.56 
z
" clip-path="url(#p4b1909c543)" style="fill: #7f7f7f; opacity: 0.5"/>
   </g>
   <g id="patch_167">
    <path d="M 405.487324 448.56 
L 407.064789 448.56 
L 407.064789 448.56 
L 405.487324 448.56 
z
" clip-path="url(#p4b1909c543)" style="fill: #7f7f7f; opacity: 0.5"/>
   </g>
   <g id="patch_168">
    <path d="M 407.459155 448.56 
L 409.03662 448.56 
L 409.03662 448.56 
L 407.459155 448.56 
z
" clip-path="url(#p4b1909c543)" style="fill: #7f7f7f; opacity: 0.5"/>
   </g>
   <g id="patch_169">
    <path d="M 409.430986 448.56 
L 411.008451 448.56 
L 411.008451 448.56 
L 409.430986 448.56 
z
" clip-path="url(#p4b1909c543)" style="fill: #7f7f7f; opacity: 0.5"/>
   </g>
   <g id="patch_170">
    <path d="M 411.402817 448.56 
L 412.980282 448.56 
L 412.980282 448.56 
L 411.402817 448.56 
z
" clip-path="url(#p4b1909c543)" style="fill: #7f7f7f; opacity: 0.5"/>
   </g>
   <g id="patch_171">
    <path d="M 413.374648 448.56 
L 414.952113 448.56 
L 414.952113 448.56 
L 413.374648 448.56 
z
" clip-path="url(#p4b1909c543)" style="fill: #7f7f7f; opacity: 0.5"/>
   </g>
   <g id="patch_172">
    <path d="M 415.346479 448.56 
L 416.923944 448.56 
L 416.923944 448.56 
L 415.346479 448.56 
z
" clip-path="url(#p4b1909c543)" style="fill: #7f7f7f; opacity: 0.5"/>
   </g>
   <g id="patch_173">
    <path d="M 417.31831 448.56 
L 418.895775 448.56 
L 418.895775 448.56 
L 417.31831 448.56 
z
" clip-path="url(#p4b1909c543)" style="fill: #7f7f7f; opacity: 0.5"/>
   </g>
   <g id="patch_174">
    <path d="M 419.290141 448.56 
L 420.867606 448.56 
L 420.867606 448.56 
L 419.290141 448.56 
z
" clip-path="url(#p4b1909c543)" style="fill: #7f7f7f; opacity: 0.5"/>
   </g>
   <g id="patch_175">
    <path d="M 421.261972 448.56 
L 422.839437 448.56 
L 422.839437 448.56 
L 421.261972 448.56 
z
" clip-path="url(#p4b1909c543)" style="fill: #7f7f7f; opacity: 0.5"/>
   </g>
   <g id="patch_176">
    <path d="M 423.233803 448.56 
L 424.811268 448.56 
L 424.811268 448.56 
L 423.233803 448.56 
z
" clip-path="url(#p4b1909c543)" style="fill: #7f7f7f; opacity: 0.5"/>
   </g>
   <g id="patch_177">
    <path d="M 425.205634 448.56 
L 426.783099 448.56 
L 426.783099 448.56 
L 425.205634 448.56 
z
" clip-path="url(#p4b1909c543)" style="fill: #7f7f7f; opacity: 0.5"/>
   </g>
   <g id="patch_178">
    <path d="M 427.177465 448.56 
L 428.75493 448.56 
L 428.75493 448.56 
L 427.177465 448.56 
z
" clip-path="url(#p4b1909c543)" style="fill: #7f7f7f; opacity: 0.5"/>
   </g>
   <g id="patch_179">
    <path d="M 429.149296 448.56 
L 430.726761 448.56 
L 430.726761 448.56 
L 429.149296 448.56 
z
" clip-path="url(#p4b1909c543)" style="fill: #7f7f7f; opacity: 0.5"/>
   </g>
   <g id="patch_180">
    <path d="M 431.121127 448.56 
L 432.698592 448.56 
L 432.698592 448.56 
L 431.121127 448.56 
z
" clip-path="url(#p4b1909c543)" style="fill: #7f7f7f; opacity: 0.5"/>
   </g>
   <g id="patch_181">
    <path d="M 433.092958 448.56 
L 434.670423 448.56 
L 434.670423 448.56 
L 433.092958 448.56 
z
" clip-path="url(#p4b1909c543)" style="fill: #7f7f7f; opacity: 0.5"/>
   </g>
   <g id="patch_182">
    <path d="M 435.064789 448.56 
L 436.642254 448.56 
L 436.642254 448.56 
L 435.064789 448.56 
z
" clip-path="url(#p4b1909c543)" style="fill: #7f7f7f; opacity: 0.5"/>
   </g>
   <g id="patch_183">
    <path d="M 437.03662 448.56 
L 438.614085 448.56 
L 438.614085 448.56 
L 437.03662 448.56 
z
" clip-path="url(#p4b1909c543)" style="fill: #7f7f7f; opacity: 0.5"/>
   </g>
   <g id="patch_184">
    <path d="M 439.008451 448.56 
L 440.585915 448.56 
L 440.585915 448.56 
L 439.008451 448.56 
z
" clip-path="url(#p4b1909c543)" style="fill: #7f7f7f; opacity: 0.5"/>
   </g>
   <g id="patch_185">
    <path d="M 440.980282 448.56 
L 442.557746 448.56 
L 442.557746 448.56 
L 440.980282 448.56 
z
" clip-path="url(#p4b1909c543)" style="fill: #7f7f7f; opacity: 0.5"/>
   </g>
   <g id="patch_186">
    <path d="M 442.952113 448.56 
L 444.529577 448.56 
L 444.529577 448.56 
L 442.952113 448.56 
z
" clip-path="url(#p4b1909c543)" style="fill: #7f7f7f; opacity: 0.5"/>
   </g>
   <g id="patch_187">
    <path d="M 444.923944 448.56 
L 446.501408 448.56 
L 446.501408 448.56 
L 444.923944 448.56 
z
" clip-path="url(#p4b1909c543)" style="fill: #7f7f7f; opacity: 0.5"/>
   </g>
   <g id="patch_188">
    <path d="M 446.895775 448.56 
L 448.473239 448.56 
L 448.473239 448.56 
L 446.895775 448.56 
z
" clip-path="url(#p4b1909c543)" style="fill: #7f7f7f; opacity: 0.5"/>
   </g>
   <g id="patch_189">
    <path d="M 448.867606 448.56 
L 450.44507 448.56 
L 450.44507 448.56 
L 448.867606 448.56 
z
" clip-path="url(#p4b1909c543)" style="fill: #7f7f7f; opacity: 0.5"/>
   </g>
   <g id="patch_190">
    <path d="M 450.839437 448.56 
L 452.416901 448.56 
L 452.416901 448.56 
L 450.839437 448.56 
z
" clip-path="url(#p4b1909c543)" style="fill: #7f7f7f; opacity: 0.5"/>
   </g>
   <g id="patch_191">
    <path d="M 452.811268 448.56 
L 454.388732 448.56 
L 454.388732 448.56 
L 452.811268 448.56 
z
" clip-path="url(#p4b1909c543)" style="fill: #7f7f7f; opacity: 0.5"/>
   </g>
   <g id="patch_192">
    <path d="M 454.783099 448.56 
L 456.360563 448.56 
L 456.360563 448.56 
L 454.783099 448.56 
z
" clip-path="url(#p4b1909c543)" style="fill: #7f7f7f; opacity: 0.5"/>
   </g>
   <g id="patch_193">
    <path d="M 456.75493 448.56 
L 458.332394 448.56 
L 458.332394 448.56 
L 456.75493 448.56 
z
" clip-path="url(#p4b1909c543)" style="fill: #7f7f7f; opacity: 0.5"/>
   </g>
   <g id="patch_194">
    <path d="M 458.726761 448.56 
L 460.304225 448.56 
L 460.304225 448.56 
L 458.726761 448.56 
z
" clip-path="url(#p4b1909c543)" style="fill: #7f7f7f; opacity: 0.5"/>
   </g>
   <g id="patch_195">
    <path d="M 460.698592 448.56 
L 462.276056 448.56 
L 462.276056 448.56 
L 460.698592 448.56 
z
" clip-path="url(#p4b1909c543)" style="fill: #7f7f7f; opacity: 0.5"/>
   </g>
   <g id="patch_196">
    <path d="M 462.670423 448.56 
L 464.247887 448.56 
L 464.247887 448.56 
L 462.670423 448.56 
z
" clip-path="url(#p4b1909c543)" style="fill: #7f7f7f; opacity: 0.5"/>
   </g>
   <g id="patch_197">
    <path d="M 453.6 448.56 
L 453.6 60.48 
" style="fill: none; stroke: #7f7f7f; stroke-width: 0.8; stroke-linejoin: miter; stroke-linecap: square"/>
   </g>
  </g>
  <g id="axes_2">
   <g id="FillBetweenPolyCollection_1">
    <path d="M 82.895775 256.122442 
L 82.895775 440.517471 
L 84.867606 440.390637 
L 86.839437 420.156796 
L 88.811268 335.986174 
L 90.783099 351.721809 
L 92.75493 365.273533 
L 94.726761 383.905076 
L 96.698592 397.189064 
L 98.670423 406.563224 
L 100.642254 416.848478 
L 102.614085 414.975861 
L 104.585915 422.326278 
L 106.557746 428.047024 
L 108.529577 432.170799 
L 110.501408 434.165767 
L 112.473239 435.732515 
L 114.44507 437.614921 
L 116.416901 438.151577 
L 118.388732 439.056065 
L 120.360563 440.000362 
L 122.332394 437.018026 
L 124.304225 438.09884 
L 126.276056 438.524056 
L 128.247887 436.194944 
L 130.219718 436.400128 
L 132.191549 432.864815 
L 134.16338 433.910312 
L 136.135211 430.795045 
L 138.107042 431.554077 
L 140.078873 426.581699 
L 142.050704 424.193219 
L 144.022535 425.365353 
L 145.994366 422.418855 
L 147.966197 419.413707 
L 149.938028 422.583204 
L 151.909859 422.271122 
L 153.88169 425.400941 
L 155.853521 428.335599 
L 157.825352 416.697731 
L 159.797183 411.08036 
L 161.769014 411.873559 
L 163.740845 413.883923 
L 165.712676 417.015241 
L 167.684507 417.982716 
L 169.656338 406.863137 
L 171.628169 416.728555 
L 173.6 418.688828 
L 175.571831 419.657388 
L 177.543662 409.514011 
L 179.515493 405.119696 
L 181.487324 404.732973 
L 183.459155 406.865851 
L 185.430986 400.54595 
L 187.402817 396.344606 
L 189.374648 374.227111 
L 191.346479 376.86192 
L 193.31831 363.85229 
L 195.290141 375.763077 
L 197.261972 388.168452 
L 199.233803 394.970504 
L 201.205634 392.874719 
L 203.177465 409.522781 
L 205.149296 420.835098 
L 207.121127 413.915555 
L 209.092958 423.09693 
L 211.064789 425.540044 
L 213.03662 430.096127 
L 215.008451 422.313214 
L 216.980282 420.272285 
L 218.952113 416.07461 
L 220.923944 416.001647 
L 222.895775 413.163401 
L 224.867606 404.603174 
L 226.839437 397.393756 
L 228.811268 405.06622 
L 230.783099 400.615575 
L 232.75493 416.6562 
L 234.726761 401.626054 
L 236.698592 403.675878 
L 238.670423 415.162399 
L 240.642254 422.767928 
L 242.614085 429.75715 
L 244.585915 431.805097 
L 246.557746 429.448878 
L 248.529577 420.855348 
L 250.501408 423.556332 
L 252.473239 422.286604 
L 254.44507 426.299555 
L 256.416901 427.154498 
L 258.388732 429.557331 
L 260.360563 432.821087 
L 262.332394 434.146093 
L 264.304225 437.240628 
L 266.276056 438.459877 
L 268.247887 438.061218 
L 270.219718 435.942147 
L 272.191549 437.057778 
L 274.16338 434.599881 
L 276.135211 433.080871 
L 278.107042 435.70797 
L 280.078873 437.180847 
L 282.050704 436.537674 
L 284.022535 434.210294 
L 285.994366 432.978241 
L 287.966197 434.244806 
L 289.938028 433.117164 
L 291.909859 434.340266 
L 293.88169 432.487675 
L 295.853521 433.391686 
L 297.825352 434.706465 
L 299.797183 435.429804 
L 301.769014 432.95023 
L 303.740845 429.944863 
L 305.712676 430.700052 
L 307.684507 432.27957 
L 309.656338 433.761417 
L 311.628169 428.635259 
L 313.6 430.903834 
L 315.571831 432.024974 
L 317.543662 432.095305 
L 319.515493 432.858692 
L 321.487324 433.585012 
L 323.459155 433.907147 
L 325.430986 435.092993 
L 327.402817 434.70511 
L 329.374648 434.86171 
L 331.346479 431.094751 
L 333.31831 430.9349 
L 335.290141 431.176583 
L 337.261972 431.733643 
L 339.233803 431.197142 
L 341.205634 433.459691 
L 343.177465 433.599201 
L 345.149296 423.884851 
L 347.121127 427.368037 
L 349.092958 427.343234 
L 351.064789 427.958257 
L 353.03662 430.176468 
L 355.008451 429.716598 
L 356.980282 430.523176 
L 358.952113 430.354542 
L 360.923944 431.427233 
L 362.895775 431.885639 
L 364.867606 432.247404 
L 366.839437 433.811006 
L 368.811268 433.230327 
L 370.783099 435.366477 
L 372.75493 434.166459 
L 374.726761 434.642997 
L 376.698592 434.489438 
L 378.670423 434.805122 
L 380.642254 434.873779 
L 382.614085 434.766332 
L 384.585915 435.716971 
L 386.557746 435.757465 
L 388.529577 435.315233 
L 390.501408 435.818294 
L 392.473239 436.480631 
L 394.44507 436.243148 
L 396.416901 436.636753 
L 398.388732 437.385298 
L 400.360563 437.131943 
L 402.332394 437.055659 
L 404.304225 437.842354 
L 406.276056 436.917706 
L 408.247887 437.806552 
L 410.219718 438.011006 
L 412.191549 437.411413 
L 414.16338 437.442096 
L 416.135211 437.419097 
L 418.107042 438.198521 
L 420.078873 437.89726 
L 422.050704 438.811442 
L 424.022535 437.94119 
L 425.994366 438.557673 
L 427.966197 438.629854 
L 429.938028 438.27391 
L 431.909859 437.841844 
L 433.88169 438.320207 
L 435.853521 438.549862 
L 437.825352 438.673705 
L 439.797183 438.969646 
L 441.769014 438.508477 
L 443.740845 438.958894 
L 445.712676 439.25742 
L 447.684507 439.550826 
L 449.656338 438.832001 
L 451.628169 439.620609 
L 453.6 439.249023 
L 455.571831 438.904917 
L 457.543662 439.638199 
L 459.515493 439.138007 
L 461.487324 439.833313 
L 463.459155 439.242419 
L 463.459155 229.427606 
L 463.459155 229.427606 
L 461.487324 198.943303 
L 459.515493 219.609268 
L 457.543662 222.954671 
L 455.571831 216.725104 
L 453.6 222.6923 
L 451.628169 229.109194 
L 449.656338 240.176952 
L 447.684507 213.34265 
L 445.712676 213.953967 
L 443.740845 221.325682 
L 441.769014 216.520175 
L 439.797183 224.16834 
L 437.825352 212.835751 
L 435.853521 211.669746 
L 433.88169 223.963893 
L 431.909859 224.284341 
L 429.938028 223.928413 
L 427.966197 208.052559 
L 425.994366 205.67339 
L 424.022535 203.746541 
L 422.050704 204.379703 
L 420.078873 221.933544 
L 418.107042 211.746185 
L 416.135211 210.83383 
L 414.16338 218.245846 
L 412.191549 205.03403 
L 410.219718 192.815443 
L 408.247887 196.119003 
L 406.276056 194.196417 
L 404.304225 200.126341 
L 402.332394 195.581019 
L 400.360563 207.56203 
L 398.388732 185.445443 
L 396.416901 192.161064 
L 394.44507 206.657465 
L 392.473239 197.30379 
L 390.501408 193.086992 
L 388.529577 200.156953 
L 386.557746 200.23085 
L 384.585915 191.709882 
L 382.614085 201.088642 
L 380.642254 185.357235 
L 378.670423 192.202462 
L 376.698592 188.188027 
L 374.726761 187.399087 
L 372.75493 187.212785 
L 370.783099 172.404616 
L 368.811268 171.284429 
L 366.839437 178.171554 
L 364.867606 184.07508 
L 362.895775 174.956287 
L 360.923944 164.330595 
L 358.952113 175.45417 
L 356.980282 158.134787 
L 355.008451 154.660076 
L 353.03662 130.175871 
L 351.064789 134.289725 
L 349.092958 140.707205 
L 347.121127 154.367307 
L 345.149296 128.352968 
L 343.177465 227.644344 
L 341.205634 211.434039 
L 339.233803 225.741868 
L 337.261972 209.233787 
L 335.290141 210.951363 
L 333.31831 221.400856 
L 331.346479 206.768326 
L 329.374648 270.64044 
L 327.402817 269.413578 
L 325.430986 261.915681 
L 323.459155 269.914365 
L 321.487324 267.793453 
L 319.515493 273.180299 
L 317.543662 276.265409 
L 315.571831 272.102054 
L 313.6 262.843905 
L 311.628169 267.86808 
L 309.656338 293.490833 
L 307.684507 300.024128 
L 305.712676 296.151264 
L 303.740845 295.005725 
L 301.769014 322.340963 
L 299.797183 333.764657 
L 297.825352 339.685786 
L 295.853521 344.54505 
L 293.88169 338.90715 
L 291.909859 352.923714 
L 289.938028 352.040615 
L 287.966197 360.861888 
L 285.994366 360.784411 
L 284.022535 364.017337 
L 282.050704 384.608207 
L 280.078873 389.630316 
L 278.107042 384.25288 
L 276.135211 379.021684 
L 274.16338 383.519747 
L 272.191549 394.7967 
L 270.219718 395.352459 
L 268.247887 402.103683 
L 266.276056 404.193208 
L 264.304225 402.173814 
L 262.332394 392.772243 
L 260.360563 388.636215 
L 258.388732 383.636084 
L 256.416901 377.74922 
L 254.44507 374.85307 
L 252.473239 366.065447 
L 250.501408 368.239097 
L 248.529577 360.391788 
L 246.557746 387.705716 
L 244.585915 393.177106 
L 242.614085 387.228599 
L 240.642254 369.656099 
L 238.670423 348.980613 
L 236.698592 318.587809 
L 234.726761 317.442036 
L 232.75493 351.602962 
L 230.783099 306.008796 
L 228.811268 320.606722 
L 226.839437 298.150187 
L 224.867606 312.072214 
L 222.895775 337.545206 
L 220.923944 351.843618 
L 218.952113 350.208552 
L 216.980282 351.834923 
L 215.008451 362.512687 
L 213.03662 384.198229 
L 211.064789 369.853284 
L 209.092958 361.233396 
L 207.121127 338.68019 
L 205.149296 352.942966 
L 203.177465 315.49214 
L 201.205634 269.162729 
L 199.233803 265.265716 
L 197.261972 240.620509 
L 195.290141 204.551434 
L 193.31831 173.840759 
L 191.346479 198.0684 
L 189.374648 193.68079 
L 187.402817 255.776897 
L 185.430986 262.957165 
L 183.459155 277.979051 
L 181.487324 258.377696 
L 179.515493 265.738637 
L 177.543662 273.128335 
L 175.571831 313.258612 
L 173.6 304.396648 
L 171.628169 290.275893 
L 169.656338 254.157935 
L 167.684507 280.397129 
L 165.712676 277.229628 
L 163.740845 271.230405 
L 161.769014 264.857222 
L 159.797183 244.248767 
L 157.825352 269.217715 
L 155.853521 325.435604 
L 153.88169 304.991241 
L 151.909859 271.361834 
L 149.938028 285.521577 
L 147.966197 254.379808 
L 145.994366 265.687176 
L 144.022535 270.74091 
L 142.050704 248.029906 
L 140.078873 280.830811 
L 138.107042 299.817827 
L 136.135211 288.478119 
L 134.16338 320.974775 
L 132.191549 325.237529 
L 130.219718 347.796417 
L 128.247887 350.18171 
L 126.276056 367.977365 
L 124.304225 366.552491 
L 122.332394 364.247478 
L 120.360563 376.483107 
L 118.388732 374.479452 
L 116.416901 369.280532 
L 114.44507 362.797081 
L 112.473239 358.375103 
L 110.501408 342.544956 
L 108.529577 326.32878 
L 106.557746 299.203849 
L 104.585915 262.197779 
L 102.614085 188.576867 
L 100.642254 150.861339 
L 98.670423 15.695858 
L 96.698592 -257.911834 
L 94.726761 -704.741077 
L 92.75493 -1288.366961 
L 90.783099 -1855.230458 
L 88.811268 -1914.769387 
L 86.839437 -270.990658 
L 84.867606 255.824968 
L 82.895775 256.122442 
z
" clip-path="url(#p4b1909c543)" style="fill: #1f77b4; fill-opacity: 0.3; stroke: #1f77b4; stroke-opacity: 0.3"/>
   </g>
   <g id="matplotlib.axis_2">
    <g id="xtick_1">
     <g id="line2d_9">
      <defs>
       <path id="m5bba91ec6c" d="M 0 0 
L 0 3.5 
" style="stroke: #000000; stroke-width: 0.8"/>
      </defs>
      <g>
       <use xlink:href="#m5bba91ec6c" x="92.75493" y="448.56" style="stroke: #000000; stroke-width: 0.8"/>
      </g>
     </g>
     <g id="text_10">
      <text style="font-size: 16px; font-family: 'Arial', sans-serif; text-anchor: middle" x="92.75493" y="467.208438" transform="rotate(-0 92.75493 467.208438)">1 Jul</text>
     </g>
    </g>
    <g id="xtick_2">
     <g id="line2d_10">
      <g>
       <use xlink:href="#m5bba91ec6c" x="153.88169" y="448.56" style="stroke: #000000; stroke-width: 0.8"/>
      </g>
     </g>
     <g id="text_11">
      <text style="font-size: 16px; font-family: 'Arial', sans-serif; text-anchor: middle" x="153.88169" y="467.208438" transform="rotate(-0 153.88169 467.208438)">1 Aug</text>
     </g>
    </g>
    <g id="xtick_3">
     <g id="line2d_11">
      <g>
       <use xlink:href="#m5bba91ec6c" x="215.008451" y="448.56" style="stroke: #000000; stroke-width: 0.8"/>
      </g>
     </g>
     <g id="text_12">
      <text style="font-size: 16px; font-family: 'Arial', sans-serif; text-anchor: middle" x="215.008451" y="467.208438" transform="rotate(-0 215.008451 467.208438)">1 Sep</text>
     </g>
    </g>
    <g id="xtick_4">
     <g id="line2d_12">
      <g>
       <use xlink:href="#m5bba91ec6c" x="274.16338" y="448.56" style="stroke: #000000; stroke-width: 0.8"/>
      </g>
     </g>
     <g id="text_13">
      <text style="font-size: 16px; font-family: 'Arial', sans-serif; text-anchor: middle" x="274.16338" y="467.2175" transform="rotate(-0 274.16338 467.2175)">1 Oct</text>
     </g>
    </g>
    <g id="xtick_5">
     <g id="line2d_13">
      <g>
       <use xlink:href="#m5bba91ec6c" x="335.290141" y="448.56" style="stroke: #000000; stroke-width: 0.8"/>
      </g>
     </g>
     <g id="text_14">
      <text style="font-size: 16px; font-family: 'Arial', sans-serif; text-anchor: middle" x="335.290141" y="467.208438" transform="rotate(-0 335.290141 467.208438)">1 Nov</text>
     </g>
    </g>
    <g id="xtick_6">
     <g id="line2d_14">
      <g>
       <use xlink:href="#m5bba91ec6c" x="394.44507" y="448.56" style="stroke: #000000; stroke-width: 0.8"/>
      </g>
     </g>
     <g id="text_15">
      <text style="font-size: 16px; font-family: 'Arial', sans-serif; text-anchor: middle" x="394.44507" y="467.208438" transform="rotate(-0 394.44507 467.208438)">1 Dec</text>
     </g>
    </g>
    <g id="text_16">
     <text style="font-size: 16px; font-family: 'Arial', sans-serif; text-anchor: middle" x="258.3" y="486.233125" transform="rotate(-0 258.3 486.233125)">Date (2017)</text>
    </g>
   </g>
   <g id="matplotlib.axis_3">
    <g id="ytick_9">
     <g id="line2d_15">
      <defs>
       <path id="m491db63279" d="M 0 0 
L -3.5 0 
" style="stroke: #000000; stroke-width: 0.8"/>
      </defs>
      <g>
       <use xlink:href="#m491db63279" x="63" y="448.56" style="stroke: #000000; stroke-width: 0.8"/>
      </g>
     </g>
     <g id="text_17">
      <text style="font-size: 16px; font-family: 'Arial', sans-serif; text-anchor: end" x="56" y="454.384219" transform="rotate(-0 56 454.384219)">0</text>
     </g>
    </g>
    <g id="ytick_10">
     <g id="line2d_16">
      <g>
       <use xlink:href="#m491db63279" x="63" y="370.944" style="stroke: #000000; stroke-width: 0.8"/>
      </g>
     </g>
     <g id="text_18">
      <text style="font-size: 16px; font-family: 'Arial', sans-serif; text-anchor: end" x="56" y="376.768219" transform="rotate(-0 56 376.768219)">2</text>
     </g>
    </g>
    <g id="ytick_11">
     <g id="line2d_17">
      <g>
       <use xlink:href="#m491db63279" x="63" y="293.328" style="stroke: #000000; stroke-width: 0.8"/>
      </g>
     </g>
     <g id="text_19">
      <text style="font-size: 16px; font-family: 'Arial', sans-serif; text-anchor: end" x="56" y="299.152219" transform="rotate(-0 56 299.152219)">4</text>
     </g>
    </g>
    <g id="ytick_12">
     <g id="line2d_18">
      <g>
       <use xlink:href="#m491db63279" x="63" y="215.712" style="stroke: #000000; stroke-width: 0.8"/>
      </g>
     </g>
     <g id="text_20">
      <text style="font-size: 16px; font-family: 'Arial', sans-serif; text-anchor: end" x="56" y="221.536219" transform="rotate(-0 56 221.536219)">6</text>
     </g>
    </g>
    <g id="ytick_13">
     <g id="line2d_19">
      <g>
       <use xlink:href="#m491db63279" x="63" y="138.096" style="stroke: #000000; stroke-width: 0.8"/>
      </g>
     </g>
     <g id="text_21">
      <text style="font-size: 16px; font-family: 'Arial', sans-serif; text-anchor: end" x="56" y="143.920219" transform="rotate(-0 56 143.920219)">8</text>
     </g>
    </g>
    <g id="ytick_14">
     <g id="line2d_20">
      <g>
       <use xlink:href="#m491db63279" x="63" y="60.48" style="stroke: #000000; stroke-width: 0.8"/>
      </g>
     </g>
     <g id="text_22">
      <text style="font-size: 16px; font-family: 'Arial', sans-serif; text-anchor: end" x="56" y="66.304219" transform="rotate(-0 56 66.304219)">10</text>
     </g>
    </g>
    <g id="text_23">
     <text style="font-size: 16px; font-family: 'Arial', sans-serif; text-anchor: middle" x="30.8375" y="254.52" transform="rotate(-90 30.8375 254.52)">Reproduction number scaling factor</text>
    </g>
   </g>
   <g id="line2d_21">
    <path d="M 82.895775 395.297015 
L 84.867606 395.526975 
L 86.839437 241.25161 
L 87.795682 -1 
M 93.774316 -1 
L 94.726761 73.253641 
L 96.698592 195.652245 
L 98.670423 278.903292 
L 100.642254 327.991356 
L 102.614085 336.556297 
L 104.585915 365.911811 
L 106.557746 383.509118 
L 108.529577 394.776643 
L 110.501408 402.497315 
L 112.473239 408.668103 
L 114.44507 412.164733 
L 118.388732 417.452448 
L 120.360563 418.871942 
L 122.332394 412.744793 
L 124.304225 413.979314 
L 126.276056 414.984077 
L 128.247887 406.589056 
L 130.219718 407.354632 
L 132.191549 397.053866 
L 134.16338 398.004478 
L 136.135211 385.624178 
L 138.107042 388.657387 
L 140.078873 377.329718 
L 142.050704 363.793066 
L 144.022535 374.576693 
L 145.994366 367.802026 
L 147.966197 361.704232 
L 149.938028 374.865061 
L 151.909859 370.109588 
L 153.88169 382.319185 
L 155.853521 391.752343 
L 157.825352 362.538628 
L 159.797183 351.500127 
L 161.769014 357.804072 
L 163.740845 361.126532 
L 165.712676 365.443028 
L 167.684507 368.003127 
L 169.656338 349.578535 
L 171.628169 369.559983 
L 173.6 375.250838 
L 175.571831 380.022139 
L 177.543662 358.161087 
L 179.515493 352.071237 
L 181.487324 348.775815 
L 183.459155 357.165475 
L 185.430986 347.641679 
L 187.402817 340.624511 
L 189.374648 301.807328 
L 191.346479 306.117069 
L 193.31831 288.541214 
L 195.290141 308.163785 
L 197.261972 330.843061 
L 199.233803 343.171551 
L 201.205634 342.894553 
L 203.177465 371.864879 
L 205.149296 393.66058 
L 207.121127 383.262375 
L 209.092958 398.940241 
L 211.064789 403.118524 
L 213.03662 411.863998 
L 215.008451 398.891945 
L 216.980282 392.224949 
L 218.952113 389.160281 
L 220.923944 389.575176 
L 222.895775 382.557785 
L 224.867606 366.952823 
L 226.839437 357.741842 
L 228.811268 370.694489 
L 230.783099 361.678968 
L 232.75493 389.691462 
L 234.726761 367.286387 
L 236.698592 368.650274 
L 238.670423 387.933754 
L 240.642254 401.214344 
L 242.614085 413.096927 
L 244.585915 416.343314 
L 246.557746 412.562739 
L 248.529577 395.888951 
L 250.501408 401.4093 
L 252.473239 399.026724 
L 254.44507 406.253136 
L 256.416901 407.15554 
L 260.360563 415.733379 
L 262.332394 418.17179 
L 264.304225 423.994129 
L 266.276056 425.63014 
L 268.247887 424.488504 
L 270.219718 420.274476 
L 272.191549 421.365497 
L 274.16338 415.522408 
L 276.135211 412.443106 
L 278.107042 416.702251 
L 280.078873 419.684113 
L 282.050704 417.752427 
L 284.022535 409.749919 
L 285.994366 407.186292 
L 287.966197 409.459535 
L 289.938028 404.760473 
L 291.909859 406.841358 
L 293.88169 401.291092 
L 295.853521 403.395535 
L 297.825352 403.419331 
L 299.797183 403.838415 
L 301.769014 396.836295 
L 303.740845 386.883021 
L 305.712676 388.839809 
L 307.684507 390.408607 
L 309.656338 390.172738 
L 311.628169 377.974264 
L 313.6 379.48513 
L 315.571831 381.714817 
L 317.543662 383.22495 
L 319.515493 383.959984 
L 321.487324 384.816617 
L 323.459155 384.791268 
L 325.430986 385.601811 
L 327.402817 386.064509 
L 329.374648 387.188911 
L 331.346479 366.367063 
L 333.31831 369.054892 
L 335.290141 367.642637 
L 337.261972 369.959896 
L 339.233803 372.078603 
L 341.205634 371.746988 
L 343.177465 373.435042 
L 345.149296 340.209923 
L 347.121127 344.645968 
L 349.092958 345.112735 
L 351.064789 345.830399 
L 353.03662 349.409658 
L 355.008451 351.346986 
L 356.980282 353.519736 
L 358.952113 356.884607 
L 360.923944 357.321082 
L 362.895775 360.68442 
L 364.867606 363.011719 
L 366.839437 363.064855 
L 368.811268 362.81693 
L 370.783099 364.799051 
L 372.75493 365.394813 
L 374.726761 367.714336 
L 376.698592 370.36645 
L 378.670423 369.746946 
L 380.642254 368.829951 
L 382.614085 372.273085 
L 386.557746 372.361378 
L 388.529577 373.011533 
L 392.473239 373.787819 
L 394.44507 373.241137 
L 396.416901 375.078517 
L 398.388732 374.302823 
L 400.360563 375.593673 
L 402.332394 376.378077 
L 404.304225 376.386379 
L 406.276056 378.302283 
L 408.247887 377.953547 
L 410.219718 378.272728 
L 412.191549 377.90736 
L 414.16338 379.020995 
L 416.135211 378.910345 
L 418.107042 379.071394 
L 420.078873 380.918362 
L 422.050704 379.456469 
L 424.022535 379.282439 
L 425.994366 381.514466 
L 427.966197 380.850114 
L 429.938028 380.972266 
L 431.909859 382.117281 
L 433.88169 383.681337 
L 435.853521 381.769833 
L 437.825352 382.500041 
L 439.797183 384.131217 
L 441.769014 383.765285 
L 443.740845 384.788985 
L 445.712676 383.601243 
L 447.684507 384.314373 
L 449.656338 385.48431 
L 451.628169 385.336306 
L 453.6 385.347615 
L 455.571831 384.452928 
L 457.543662 385.44832 
L 459.515493 383.907022 
L 461.487324 383.373874 
L 463.459155 386.716123 
L 463.459155 386.716123 
" clip-path="url(#p4b1909c543)" style="fill: none; stroke: #1f77b4; stroke-width: 2; stroke-linecap: square"/>
   </g>
   <g id="patch_198">
    <path d="M 63 448.56 
L 63 60.48 
" style="fill: none; stroke: #000000; stroke-width: 0.8; stroke-linejoin: miter; stroke-linecap: square"/>
   </g>
   <g id="patch_199">
    <path d="M 63 448.56 
L 453.6 448.56 
" style="fill: none; stroke: #000000; stroke-width: 0.8; stroke-linejoin: miter; stroke-linecap: square"/>
   </g>
  </g>
 </g>
 <defs>
  <clipPath id="p4b1909c543">
   <rect x="63" y="60.48" width="390.6" height="388.08"/>
  </clipPath>
 </defs>
</svg>
