<?xml version="1.0" encoding="utf-8" standalone="no"?>
<!DOCTYPE svg PUBLIC "-//W3C//DTD SVG 1.1//EN"
  "http://www.w3.org/Graphics/SVG/1.1/DTD/svg11.dtd">
<svg xmlns:xlink="http://www.w3.org/1999/xlink" width="504pt" height="504pt" viewBox="0 0 504 504" xmlns="http://www.w3.org/2000/svg" version="1.1">
 <metadata>
  <rdf:RDF xmlns:dc="http://purl.org/dc/elements/1.1/" xmlns:cc="http://creativecommons.org/ns#" xmlns:rdf="http://www.w3.org/1999/02/22-rdf-syntax-ns#">
   <cc:Work>
    <dc:type rdf:resource="http://purl.org/dc/dcmitype/StillImage"/>
    <dc:date>2026-03-26T12:34:35.744168</dc:date>
    <dc:format>image/svg+xml</dc:format>
    <dc:creator>
     <cc:Agent>
      <dc:title>Matplotlib v3.10.8, https://matplotlib.org/</dc:title>
     </cc:Agent>
    </dc:creator>
   </cc:Work>
  </rdf:RDF>
 </metadata>
 <defs>
  <style type="text/css">*{stroke-linejoin: round; stroke-linecap: butt}</style>
 </defs>
 <g id="figure_1">
  <g id="patch_1">
   <path d="M 0 504 
L 504 504 
L 504 0 
L 0 0 
L 0 504 
z
" style="fill: none"/>
  </g>
  <g id="axes_1">
   <g id="patch_2">
    <path d="M 63 448.56 
L 453.6 448.56 
L 453.6 60.48 
L 63 60.48 
L 63 448.56 
z
" style="fill: none"/>
   </g>
   <g id="FillBetweenPolyCollection_1">
    <defs>
     <path id="ma1df327ae9" d="M 81.571786 -366.500242 
L 81.571786 -288.030647 
L 83.614886 -299.091407 
L 85.657987 -313.467582 
L 87.701088 -323.36114 
L 89.744189 -332.985675 
L 91.787289 -342.056889 
L 93.83039 -348.467579 
L 95.873491 -357.757142 
L 97.916592 -365.646741 
L 99.959692 -369.190001 
L 102.002793 -376.924159 
L 104.045894 -381.665393 
L 106.088995 -386.70758 
L 108.132095 -390.229805 
L 110.175196 -394.00129 
L 112.218297 -395.347263 
L 114.261398 -400.067013 
L 116.304498 -400.097457 
L 118.347599 -401.383271 
L 120.3907 -401.262699 
L 122.433801 -402.089915 
L 124.476901 -402.97823 
L 126.520002 -400.952411 
L 128.563103 -403.32222 
L 130.606204 -401.087157 
L 132.649304 -401.04464 
L 134.692405 -398.231063 
L 136.735506 -399.426761 
L 138.778607 -396.029139 
L 140.821707 -394.741527 
L 142.864808 -392.035195 
L 144.907909 -390.282058 
L 146.95101 -390.669934 
L 148.99411 -387.268561 
L 151.037211 -387.876923 
L 153.080312 -383.577059 
L 155.123412 -383.408056 
L 157.166513 -381.169848 
L 159.209614 -381.971349 
L 161.252715 -381.386818 
L 163.295815 -379.357348 
L 165.338916 -378.628391 
L 167.382017 -377.557884 
L 169.425118 -376.989725 
L 171.468218 -379.802288 
L 173.511319 -378.867293 
L 175.55442 -378.175019 
L 177.597521 -381.515999 
L 179.640621 -382.315148 
L 181.683722 -381.353248 
L 183.726823 -383.233155 
L 185.769924 -384.438954 
L 187.813024 -385.784154 
L 189.856125 -389.810498 
L 191.899226 -391.180504 
L 193.942327 -391.87627 
L 195.985427 -392.682474 
L 198.028528 -396.869925 
L 200.071629 -398.133297 
L 202.11473 -398.150544 
L 204.15783 -398.243956 
L 206.200931 -400.793582 
L 208.244032 -402.042434 
L 210.287133 -402.907904 
L 212.330233 -402.283294 
L 214.373334 -402.692946 
L 216.416435 -402.43509 
L 218.459536 -402.015683 
L 220.502636 -401.290247 
L 222.545737 -400.107776 
L 224.588838 -398.411545 
L 226.631938 -393.458256 
L 228.675039 -392.648637 
L 230.71814 -388.733081 
L 232.761241 -382.239848 
L 234.804341 -375.704862 
L 236.847442 -371.418104 
L 238.890543 -364.289161 
L 240.933644 -356.836654 
L 242.976744 -348.13407 
L 245.019845 -338.716699 
L 247.062946 -326.952083 
L 249.106047 -315.44508 
L 251.149147 -307.194845 
L 253.192248 -297.067049 
L 255.235349 -283.550328 
L 257.27845 -273.028675 
L 259.32155 -258.424625 
L 261.364651 -245.386691 
L 263.407752 -233.515298 
L 265.450853 -217.812545 
L 267.493953 -206.433082 
L 269.537054 -191.156118 
L 271.580155 -177.612323 
L 273.623256 -165.89231 
L 275.666356 -155.628303 
L 277.709457 -144.000947 
L 279.752558 -135.07529 
L 281.795659 -125.032536 
L 283.838759 -112.0874 
L 285.88186 -101.784453 
L 287.924961 -94.740957 
L 289.968062 -89.555937 
L 292.011162 -85.27823 
L 294.054263 -76.219587 
L 296.097364 -72.864895 
L 298.140464 -65.473635 
L 300.183565 -66.041983 
L 302.226666 -59.839113 
L 304.269767 -55.440004 
L 306.312867 -55.440004 
L 308.355968 -58.812088 
L 310.399069 -62.205177 
L 312.44217 -57.601064 
L 314.48527 -55.440004 
L 316.528371 -55.440004 
L 318.571472 -59.407816 
L 320.614573 -56.210465 
L 322.657673 -55.440004 
L 324.700774 -55.440004 
L 326.743875 -55.440004 
L 328.786976 -55.440004 
L 330.830076 -55.440004 
L 332.873177 -55.440004 
L 334.916278 -55.440004 
L 336.959379 -55.440004 
L 339.002479 -58.764595 
L 341.04558 -55.915622 
L 343.088681 -55.440004 
L 345.131782 -55.440004 
L 347.174882 -55.440004 
L 349.217983 -55.440004 
L 351.261084 -55.440004 
L 353.304185 -61.028143 
L 355.347285 -58.867828 
L 357.390386 -57.528784 
L 359.433487 -56.08519 
L 361.476588 -55.440004 
L 363.519688 -55.440004 
L 365.562789 -55.440004 
L 367.60589 -55.440004 
L 369.64899 -55.440004 
L 371.692091 -55.440004 
L 373.735192 -55.440004 
L 375.778293 -55.440004 
L 377.821393 -55.440004 
L 379.864494 -55.440004 
L 381.907595 -55.440004 
L 383.950696 -55.440004 
L 385.993796 -55.440004 
L 388.036897 -55.440004 
L 390.079998 -55.440004 
L 392.123099 -55.440004 
L 394.166199 -55.440004 
L 396.2093 -55.440004 
L 398.252401 -55.440004 
L 400.295502 -55.440004 
L 402.338602 -55.440004 
L 404.381703 -55.440004 
L 406.424804 -55.440004 
L 408.467905 -55.440004 
L 410.511005 -55.440004 
L 412.554106 -55.440004 
L 414.597207 -55.440004 
L 416.640308 -55.440004 
L 418.683408 -55.440004 
L 420.726509 -55.440004 
L 422.76961 -55.440004 
L 424.812711 -55.440004 
L 426.855811 -55.440004 
L 428.898912 -55.440004 
L 430.942013 -55.440004 
L 432.985114 -55.440004 
L 435.028214 -55.440004 
L 435.028214 -101.494881 
L 435.028214 -101.494881 
L 432.985114 -101.748799 
L 430.942013 -100.772934 
L 428.898912 -99.770081 
L 426.855811 -100.872016 
L 424.812711 -102.018328 
L 422.76961 -101.451453 
L 420.726509 -101.24908 
L 418.683408 -102.201617 
L 416.640308 -102.815687 
L 414.597207 -101.448531 
L 412.554106 -102.113178 
L 410.511005 -103.989692 
L 408.467905 -103.386999 
L 406.424804 -103.045424 
L 404.381703 -102.774178 
L 402.338602 -103.852797 
L 400.295502 -103.025282 
L 398.252401 -103.2692 
L 396.2093 -103.591413 
L 394.166199 -106.232644 
L 392.123099 -105.538068 
L 390.079998 -103.489881 
L 388.036897 -105.253389 
L 385.993796 -106.078252 
L 383.950696 -105.36837 
L 381.907595 -107.106166 
L 379.864494 -106.390983 
L 377.821393 -106.702432 
L 375.778293 -107.42881 
L 373.735192 -107.126085 
L 371.692091 -107.303332 
L 369.64899 -108.772383 
L 367.60589 -109.803955 
L 365.562789 -109.372141 
L 363.519688 -110.381788 
L 361.476588 -111.533917 
L 359.433487 -109.506338 
L 357.390386 -109.834936 
L 355.347285 -111.469402 
L 353.304185 -112.987683 
L 351.261084 -107.477581 
L 349.217983 -105.945245 
L 347.174882 -105.608958 
L 345.131782 -106.35395 
L 343.088681 -107.542585 
L 341.04558 -106.271708 
L 339.002479 -110.069375 
L 336.959379 -101.446392 
L 334.916278 -102.134645 
L 332.873177 -102.922627 
L 330.830076 -104.175062 
L 328.786976 -104.510734 
L 326.743875 -105.997231 
L 324.700774 -105.222452 
L 322.657673 -108.750203 
L 320.614573 -111.245866 
L 318.571472 -111.449944 
L 316.528371 -107.573569 
L 314.48527 -112.470676 
L 312.44217 -115.636474 
L 310.399069 -117.869565 
L 308.355968 -117.037586 
L 306.312867 -114.485984 
L 304.269767 -118.711123 
L 302.226666 -124.841233 
L 300.183565 -130.810996 
L 298.140464 -134.253744 
L 296.097364 -141.677074 
L 294.054263 -147.6408 
L 292.011162 -154.168412 
L 289.968062 -160.561394 
L 287.924961 -165.401599 
L 285.88186 -177.340916 
L 283.838759 -186.864079 
L 281.795659 -197.007734 
L 279.752558 -207.017304 
L 277.709457 -215.842441 
L 275.666356 -227.854863 
L 273.623256 -240.385711 
L 271.580155 -252.703107 
L 269.537054 -267.54996 
L 267.493953 -281.095234 
L 265.450853 -293.014749 
L 263.407752 -305.831841 
L 261.364651 -321.950267 
L 259.32155 -332.031509 
L 257.27845 -345.549523 
L 255.235349 -358.60473 
L 253.192248 -369.124761 
L 251.149147 -381.686467 
L 249.106047 -389.913291 
L 247.062946 -402.597722 
L 245.019845 -413.638221 
L 242.976744 -421.557868 
L 240.933644 -431.224304 
L 238.890543 -439.102386 
L 236.847442 -439.677624 
L 234.804341 -439.677624 
L 232.761241 -439.677624 
L 230.71814 -439.677624 
L 228.675039 -439.677624 
L 226.631938 -439.677624 
L 224.588838 -439.677624 
L 222.545737 -439.677624 
L 220.502636 -439.677624 
L 218.459536 -439.677624 
L 216.416435 -439.677624 
L 214.373334 -439.677624 
L 212.330233 -439.677624 
L 210.287133 -439.677624 
L 208.244032 -439.677624 
L 206.200931 -439.677624 
L 204.15783 -439.677624 
L 202.11473 -439.677624 
L 200.071629 -439.677624 
L 198.028528 -439.677624 
L 195.985427 -439.677624 
L 193.942327 -439.677624 
L 191.899226 -439.677624 
L 189.856125 -439.677624 
L 187.813024 -439.677624 
L 185.769924 -439.677624 
L 183.726823 -439.677624 
L 181.683722 -439.677624 
L 179.640621 -439.677624 
L 177.597521 -439.677624 
L 175.55442 -439.677624 
L 173.511319 -439.677624 
L 171.468218 -439.677624 
L 169.425118 -439.677624 
L 167.382017 -439.677624 
L 165.338916 -439.677624 
L 163.295815 -439.677624 
L 161.252715 -439.677624 
L 159.209614 -439.677624 
L 157.166513 -439.677624 
L 155.123412 -439.677624 
L 153.080312 -439.677624 
L 151.037211 -439.677624 
L 148.99411 -439.677624 
L 146.95101 -439.677624 
L 144.907909 -439.677624 
L 142.864808 -439.677624 
L 140.821707 -439.677624 
L 138.778607 -439.677624 
L 136.735506 -439.677624 
L 134.692405 -439.677624 
L 132.649304 -439.677624 
L 130.606204 -439.677624 
L 128.563103 -439.677624 
L 126.520002 -439.677624 
L 124.476901 -439.677624 
L 122.433801 -439.677624 
L 120.3907 -439.677624 
L 118.347599 -439.677624 
L 116.304498 -439.677624 
L 114.261398 -439.677624 
L 112.218297 -439.677624 
L 110.175196 -439.677624 
L 108.132095 -439.677624 
L 106.088995 -439.677624 
L 104.045894 -439.677624 
L 102.002793 -439.677624 
L 99.959692 -439.677624 
L 97.916592 -439.121406 
L 95.873491 -432.239163 
L 93.83039 -425.316729 
L 91.787289 -415.470718 
L 89.744189 -408.525778 
L 87.701088 -398.869495 
L 85.657987 -387.434987 
L 83.614886 -377.497753 
L 81.571786 -366.500242 
z
" style="stroke: #1f77b4; stroke-opacity: 0.3"/>
    </defs>
    <g clip-path="url(#p1ef00a8dba)">
     <use xlink:href="#ma1df327ae9" x="0" y="504" style="fill: #1f77b4; fill-opacity: 0.3; stroke: #1f77b4; stroke-opacity: 0.3"/>
    </g>
   </g>
   <g id="matplotlib.axis_1">
    <g id="xtick_1">
     <g id="line2d_1">
      <defs>
       <path id="mea94c02d06" d="M 0 0 
L 0 3.5 
" style="stroke: #000000; stroke-width: 0.8"/>
      </defs>
      <g>
       <use xlink:href="#mea94c02d06" x="91.787289" y="448.56" style="stroke: #000000; stroke-width: 0.8"/>
      </g>
     </g>
     <g id="text_1">
      <text style="font-size: 16px; font-family: 'Arial', sans-serif; text-anchor: middle" x="91.787289" y="467.0125" transform="rotate(-0 91.787289 467.0125)">1 Jul</text>
     </g>
    </g>
    <g id="xtick_2">
     <g id="line2d_2">
      <g>
       <use xlink:href="#mea94c02d06" x="155.123412" y="448.56" style="stroke: #000000; stroke-width: 0.8"/>
      </g>
     </g>
     <g id="text_2">
      <text style="font-size: 16px; font-family: 'Arial', sans-serif; text-anchor: middle" x="155.123412" y="467.06" transform="rotate(-0 155.123412 467.06)">1 Aug</text>
     </g>
    </g>
    <g id="xtick_3">
     <g id="line2d_3">
      <g>
       <use xlink:href="#mea94c02d06" x="218.459536" y="448.56" style="stroke: #000000; stroke-width: 0.8"/>
      </g>
     </g>
     <g id="text_3">
      <text style="font-size: 16px; font-family: 'Arial', sans-serif; text-anchor: middle" x="218.459536" y="467.2075" transform="rotate(-0 218.459536 467.2075)">1 Sep</text>
     </g>
    </g>
    <g id="xtick_4">
     <g id="line2d_4">
      <g>
       <use xlink:href="#mea94c02d06" x="279.752558" y="448.56" style="stroke: #000000; stroke-width: 0.8"/>
      </g>
     </g>
     <g id="text_4">
      <text style="font-size: 16px; font-family: 'Arial', sans-serif; text-anchor: middle" x="279.752558" y="467.0125" transform="rotate(-0 279.752558 467.0125)">1 Oct</text>
     </g>
    </g>
    <g id="xtick_5">
     <g id="line2d_5">
      <g>
       <use xlink:href="#mea94c02d06" x="343.088681" y="448.56" style="stroke: #000000; stroke-width: 0.8"/>
      </g>
     </g>
     <g id="text_5">
      <text style="font-size: 16px; font-family: 'Arial', sans-serif; text-anchor: middle" x="343.088681" y="467.0125" transform="rotate(-0 343.088681 467.0125)">1 Nov</text>
     </g>
    </g>
    <g id="xtick_6">
     <g id="line2d_6">
      <g>
       <use xlink:href="#mea94c02d06" x="404.381703" y="448.56" style="stroke: #000000; stroke-width: 0.8"/>
      </g>
     </g>
     <g id="text_6">
      <text style="font-size: 16px; font-family: 'Arial', sans-serif; text-anchor: middle" x="404.381703" y="467.0125" transform="rotate(-0 404.381703 467.0125)">1 Dec</text>
     </g>
    </g>
   </g>
   <g id="matplotlib.axis_2">
    <g id="ytick_1">
     <g id="line2d_7">
      <defs>
       <path id="ma22239c07b" d="M 0 0 
L -3.5 0 
" style="stroke: #000000; stroke-width: 0.8"/>
      </defs>
      <g>
       <use xlink:href="#ma22239c07b" x="63" y="448.56" style="stroke: #000000; stroke-width: 0.8"/>
      </g>
     </g>
     <g id="text_7">
      <text style="font-size: 16px; font-family: 'Arial', sans-serif; text-anchor: end" x="56" y="454.28625" transform="rotate(-0 56 454.28625)">0.0</text>
     </g>
    </g>
    <g id="ytick_2">
     <g id="line2d_8">
      <g>
       <use xlink:href="#ma22239c07b" x="63" y="371.712475" style="stroke: #000000; stroke-width: 0.8"/>
      </g>
     </g>
     <g id="text_8">
      <text style="font-size: 16px; font-family: 'Arial', sans-serif; text-anchor: end" x="56" y="377.438725" transform="rotate(-0 56 377.438725)">0.2</text>
     </g>
    </g>
    <g id="ytick_3">
     <g id="line2d_9">
      <g>
       <use xlink:href="#ma22239c07b" x="63" y="294.86495" style="stroke: #000000; stroke-width: 0.8"/>
      </g>
     </g>
     <g id="text_9">
      <text style="font-size: 16px; font-family: 'Arial', sans-serif; text-anchor: end" x="56" y="300.5912" transform="rotate(-0 56 300.5912)">0.4</text>
     </g>
    </g>
    <g id="ytick_4">
     <g id="line2d_10">
      <g>
       <use xlink:href="#ma22239c07b" x="63" y="218.017426" style="stroke: #000000; stroke-width: 0.8"/>
      </g>
     </g>
     <g id="text_10">
      <text style="font-size: 16px; font-family: 'Arial', sans-serif; text-anchor: end" x="56" y="223.743676" transform="rotate(-0 56 223.743676)">0.6</text>
     </g>
    </g>
    <g id="ytick_5">
     <g id="line2d_11">
      <g>
       <use xlink:href="#ma22239c07b" x="63" y="141.169901" style="stroke: #000000; stroke-width: 0.8"/>
      </g>
     </g>
     <g id="text_11">
      <text style="font-size: 16px; font-family: 'Arial', sans-serif; text-anchor: end" x="56" y="146.896151" transform="rotate(-0 56 146.896151)">0.8</text>
     </g>
    </g>
    <g id="ytick_6">
     <g id="line2d_12">
      <g>
       <use xlink:href="#ma22239c07b" x="63" y="64.322376" style="stroke: #000000; stroke-width: 0.8"/>
      </g>
     </g>
     <g id="text_12">
      <text style="font-size: 16px; font-family: 'Arial', sans-serif; text-anchor: end" x="56" y="70.048626" transform="rotate(-0 56 70.048626)">1.0</text>
     </g>
    </g>
    <g id="text_13">
     <text style="font-size: 16px; font-family: 'Arial', sans-serif; text-anchor: middle" x="26.3925" y="254.52" transform="rotate(-90 26.3925 254.52)">Temperature suitability for transmission</text>
    </g>
   </g>
   <g id="line2d_13">
    <path d="M 81.571786 177.631655 
L 83.614886 166.860099 
L 85.657987 153.689911 
L 87.701088 142.645944 
L 89.744189 132.860926 
L 91.787289 125.102303 
L 93.83039 116.378721 
L 95.873491 108.960059 
L 97.916592 102.102847 
L 99.959692 96.754663 
L 102.002793 90.010067 
L 104.045894 86.077645 
L 106.088995 82.646598 
L 108.132095 80.090816 
L 110.175196 77.16671 
L 112.218297 74.874212 
L 114.261398 73.607516 
L 118.347599 72.459138 
L 120.3907 71.794572 
L 122.433801 71.883682 
L 124.476901 71.448622 
L 126.520002 72.193521 
L 128.563103 71.752059 
L 130.606204 72.06909 
L 132.649304 72.707907 
L 134.692405 73.969872 
L 136.735506 74.131685 
L 138.778607 75.600613 
L 140.821707 76.673685 
L 142.864808 77.920499 
L 144.907909 79.024392 
L 146.95101 79.482064 
L 148.99411 81.457843 
L 151.037211 82.635675 
L 153.080312 84.006428 
L 155.123412 85.047011 
L 157.166513 86.543085 
L 159.209614 86.432959 
L 161.252715 86.741888 
L 163.295815 87.992735 
L 165.338916 88.790984 
L 169.425118 89.413263 
L 171.468218 88.141565 
L 173.511319 88.263639 
L 175.55442 88.081763 
L 177.597521 87.274974 
L 179.640621 86.249371 
L 181.683722 86.001185 
L 183.726823 85.134391 
L 185.769924 83.28248 
L 189.856125 80.954803 
L 191.899226 79.621733 
L 193.942327 78.834216 
L 195.985427 77.232907 
L 200.071629 74.869573 
L 202.11473 74.379636 
L 204.15783 73.434002 
L 206.200931 72.643155 
L 208.244032 71.620775 
L 210.287133 71.686262 
L 212.330233 71.413599 
L 214.373334 71.98484 
L 216.416435 71.672418 
L 218.459536 71.983376 
L 220.502636 72.019102 
L 224.588838 73.797488 
L 228.675039 77.927767 
L 230.71814 80.765577 
L 232.761241 85.497028 
L 234.804341 89.4667 
L 236.847442 96.642413 
L 238.890543 102.652074 
L 240.933644 109.886885 
L 245.019845 128.596006 
L 247.062946 138.737191 
L 249.106047 150.624497 
L 251.149147 159.860444 
L 253.192248 169.982145 
L 261.364651 220.385825 
L 265.450853 248.042487 
L 267.493953 260.349773 
L 269.537054 275.46215 
L 271.580155 288.307571 
L 275.666356 310.715972 
L 277.709457 323.204562 
L 279.752558 333.11136 
L 281.795659 341.365394 
L 283.838759 354.107584 
L 285.88186 364.837003 
L 287.924961 373.635847 
L 292.011162 385.358338 
L 294.054263 393.462274 
L 296.097364 397.328539 
L 298.140464 405.173344 
L 300.183565 407.048856 
L 302.226666 412.860736 
L 304.269767 419.174761 
L 306.312867 423.519821 
L 308.355968 418.295291 
L 310.399069 416.963953 
L 312.44217 420.506768 
L 314.48527 423.663211 
L 316.528371 426.331366 
L 318.571472 421.54747 
L 320.614573 423.247569 
L 322.657673 425.659981 
L 324.700774 427.130929 
L 326.743875 428.235475 
L 328.786976 429.918264 
L 330.830076 430.198069 
L 332.873177 431.71231 
L 334.916278 431.926304 
L 336.959379 432.405575 
L 339.002479 422.762891 
L 341.04558 424.807416 
L 343.088681 425.268743 
L 347.174882 426.758074 
L 349.217983 426.909111 
L 351.261084 427.739225 
L 353.304185 419.798379 
L 355.347285 421.013007 
L 357.390386 421.902881 
L 359.433487 422.321003 
L 361.476588 423.062756 
L 363.519688 424.174336 
L 365.562789 424.64685 
L 367.60589 425.321168 
L 371.692091 426.365748 
L 373.735192 426.959032 
L 375.778293 427.362092 
L 379.864494 428.593766 
L 383.950696 430.103971 
L 385.993796 430.274968 
L 388.036897 430.037093 
L 390.079998 431.342798 
L 392.123099 430.922285 
L 394.166199 431.453352 
L 396.2093 431.612153 
L 400.295502 432.647509 
L 406.424804 432.793314 
L 408.467905 433.494901 
L 410.511005 433.460805 
L 412.554106 433.769381 
L 414.597207 434.425995 
L 416.640308 433.53186 
L 418.683408 434.694394 
L 420.726509 434.690437 
L 422.76961 434.54447 
L 426.855811 435.055271 
L 428.898912 435.850674 
L 430.942013 435.62252 
L 432.985114 435.700571 
L 435.028214 435.388907 
L 435.028214 435.388907 
" clip-path="url(#p1ef00a8dba)" style="fill: none; stroke: #1f77b4; stroke-width: 2; stroke-linecap: square"/>
   </g>
   <g id="line2d_14">
    <path d="M 81.571786 178.128047 
L 85.657987 156.957833 
L 87.701088 146.874615 
L 91.787289 128.708912 
L 93.83039 120.134184 
L 95.873491 112.116209 
L 97.916592 104.844046 
L 99.959692 98.233736 
L 102.002793 92.054952 
L 104.045894 86.568188 
L 106.088995 81.763052 
L 108.132095 77.458681 
L 110.175196 73.821014 
L 112.218297 70.839101 
L 114.261398 68.51512 
L 116.304498 66.885523 
L 118.347599 65.66449 
L 120.3907 64.636645 
L 122.433801 64.419061 
L 124.476901 64.344955 
L 126.520002 64.641377 
L 128.563103 65.20864 
L 130.606204 65.977203 
L 134.692405 68.709289 
L 140.821707 73.312065 
L 146.95101 78.757817 
L 153.080312 82.94073 
L 155.123412 84.319466 
L 157.166513 85.518622 
L 159.209614 86.5371 
L 161.252715 87.429957 
L 163.295815 88.150739 
L 165.338916 88.669461 
L 167.382017 88.985342 
L 169.425118 89.097711 
L 171.468218 89.006007 
L 173.511319 88.709781 
L 175.55442 88.208696 
L 177.597521 87.502529 
L 179.640621 86.612582 
L 181.683722 85.599163 
L 183.726823 84.399615 
L 191.899226 78.762676 
L 193.942327 77.041617 
L 198.028528 73.223522 
L 204.15783 68.496415 
L 206.200931 67.05172 
L 208.244032 65.828434 
L 210.287133 65.0267 
L 212.330233 64.510862 
L 214.373334 64.364242 
L 216.416435 64.492091 
L 218.459536 64.921346 
L 222.545737 67.465313 
L 224.588838 69.553755 
L 226.631938 72.39208 
L 228.675039 75.890108 
L 230.71814 80.22614 
L 232.761241 85.075853 
L 234.804341 90.701992 
L 236.847442 97.097462 
L 238.890543 104.079818 
L 240.933644 111.708319 
L 242.976744 120.215428 
L 247.062946 138.853355 
L 249.106047 148.937596 
L 253.192248 171.114639 
L 257.27845 195.418147 
L 263.407752 233.262769 
L 269.537054 272.344074 
L 275.666356 309.249448 
L 279.752558 332.298761 
L 283.838759 353.240184 
L 287.924961 371.772277 
L 289.968062 380.216374 
L 292.011162 388.087184 
L 294.054263 395.353197 
L 296.097364 402.019824 
L 298.140464 408.111639 
L 300.183565 413.572529 
L 302.226666 418.469276 
L 304.269767 422.824363 
L 306.312867 426.755661 
L 308.355968 430.17772 
L 310.399069 433.130832 
L 312.44217 435.740096 
L 314.48527 438.017693 
L 316.528371 439.935044 
L 318.571472 441.561864 
L 320.614573 442.957198 
L 322.657673 444.122461 
L 324.700774 445.080207 
L 326.743875 445.847326 
L 328.786976 446.482437 
L 332.873177 447.38425 
L 336.959379 447.928527 
L 341.04558 448.244779 
L 347.174882 448.466771 
L 357.390386 448.554457 
L 435.028214 448.56 
L 435.028214 448.56 
" clip-path="url(#p1ef00a8dba)" style="fill: none; stroke-dasharray: 7.4,3.2; stroke-dashoffset: 0; stroke: #000000; stroke-width: 2"/>
   </g>
   <g id="patch_3">
    <path d="M 63 448.56 
L 63 60.48 
" style="fill: none; stroke: #000000; stroke-width: 0.8; stroke-linejoin: miter; stroke-linecap: square"/>
   </g>
   <g id="patch_4">
    <path d="M 63 448.56 
L 453.6 448.56 
" style="fill: none; stroke: #000000; stroke-width: 0.8; stroke-linejoin: miter; stroke-linecap: square"/>
   </g>
  </g>
  <g id="axes_2">
   <g id="patch_5">
    <path d="M 80.754545 448.56 
L 82.389026 448.56 
L 82.389026 396.816 
L 80.754545 396.816 
z
" clip-path="url(#p1ef00a8dba)" style="fill: #7f7f7f; opacity: 0.5"/>
   </g>
   <g id="patch_6">
    <path d="M 82.797646 448.56 
L 84.432127 448.56 
L 84.432127 396.816 
L 82.797646 396.816 
z
" clip-path="url(#p1ef00a8dba)" style="fill: #7f7f7f; opacity: 0.5"/>
   </g>
   <g id="patch_7">
    <path d="M 84.840747 448.56 
L 86.475228 448.56 
L 86.475228 396.816 
L 84.840747 396.816 
z
" clip-path="url(#p1ef00a8dba)" style="fill: #7f7f7f; opacity: 0.5"/>
   </g>
   <g id="patch_8">
    <path d="M 86.883848 448.56 
L 88.518328 448.56 
L 88.518328 448.56 
L 86.883848 448.56 
z
" clip-path="url(#p1ef00a8dba)" style="fill: #7f7f7f; opacity: 0.5"/>
   </g>
   <g id="patch_9">
    <path d="M 88.926948 448.56 
L 90.561429 448.56 
L 90.561429 448.56 
L 88.926948 448.56 
z
" clip-path="url(#p1ef00a8dba)" style="fill: #7f7f7f; opacity: 0.5"/>
   </g>
   <g id="patch_10">
    <path d="M 90.970049 448.56 
L 92.60453 448.56 
L 92.60453 448.56 
L 90.970049 448.56 
z
" clip-path="url(#p1ef00a8dba)" style="fill: #7f7f7f; opacity: 0.5"/>
   </g>
   <g id="patch_11">
    <path d="M 93.01315 448.56 
L 94.647631 448.56 
L 94.647631 448.56 
L 93.01315 448.56 
z
" clip-path="url(#p1ef00a8dba)" style="fill: #7f7f7f; opacity: 0.5"/>
   </g>
   <g id="patch_12">
    <path d="M 95.056251 448.56 
L 96.690731 448.56 
L 96.690731 448.56 
L 95.056251 448.56 
z
" clip-path="url(#p1ef00a8dba)" style="fill: #7f7f7f; opacity: 0.5"/>
   </g>
   <g id="patch_13">
    <path d="M 97.099351 448.56 
L 98.733832 448.56 
L 98.733832 448.56 
L 97.099351 448.56 
z
" clip-path="url(#p1ef00a8dba)" style="fill: #7f7f7f; opacity: 0.5"/>
   </g>
   <g id="patch_14">
    <path d="M 99.142452 448.56 
L 100.776933 448.56 
L 100.776933 422.688 
L 99.142452 422.688 
z
" clip-path="url(#p1ef00a8dba)" style="fill: #7f7f7f; opacity: 0.5"/>
   </g>
   <g id="patch_15">
    <path d="M 101.185553 448.56 
L 102.820033 448.56 
L 102.820033 448.56 
L 101.185553 448.56 
z
" clip-path="url(#p1ef00a8dba)" style="fill: #7f7f7f; opacity: 0.5"/>
   </g>
   <g id="patch_16">
    <path d="M 103.228654 448.56 
L 104.863134 448.56 
L 104.863134 448.56 
L 103.228654 448.56 
z
" clip-path="url(#p1ef00a8dba)" style="fill: #7f7f7f; opacity: 0.5"/>
   </g>
   <g id="patch_17">
    <path d="M 105.271754 448.56 
L 106.906235 448.56 
L 106.906235 448.56 
L 105.271754 448.56 
z
" clip-path="url(#p1ef00a8dba)" style="fill: #7f7f7f; opacity: 0.5"/>
   </g>
   <g id="patch_18">
    <path d="M 107.314855 448.56 
L 108.949336 448.56 
L 108.949336 448.56 
L 107.314855 448.56 
z
" clip-path="url(#p1ef00a8dba)" style="fill: #7f7f7f; opacity: 0.5"/>
   </g>
   <g id="patch_19">
    <path d="M 109.357956 448.56 
L 110.992436 448.56 
L 110.992436 448.56 
L 109.357956 448.56 
z
" clip-path="url(#p1ef00a8dba)" style="fill: #7f7f7f; opacity: 0.5"/>
   </g>
   <g id="patch_20">
    <path d="M 111.401057 448.56 
L 113.035537 448.56 
L 113.035537 448.56 
L 111.401057 448.56 
z
" clip-path="url(#p1ef00a8dba)" style="fill: #7f7f7f; opacity: 0.5"/>
   </g>
   <g id="patch_21">
    <path d="M 113.444157 448.56 
L 115.078638 448.56 
L 115.078638 448.56 
L 113.444157 448.56 
z
" clip-path="url(#p1ef00a8dba)" style="fill: #7f7f7f; opacity: 0.5"/>
   </g>
   <g id="patch_22">
    <path d="M 115.487258 448.56 
L 117.121739 448.56 
L 117.121739 448.56 
L 115.487258 448.56 
z
" clip-path="url(#p1ef00a8dba)" style="fill: #7f7f7f; opacity: 0.5"/>
   </g>
   <g id="patch_23">
    <path d="M 117.530359 448.56 
L 119.164839 448.56 
L 119.164839 448.56 
L 117.530359 448.56 
z
" clip-path="url(#p1ef00a8dba)" style="fill: #7f7f7f; opacity: 0.5"/>
   </g>
   <g id="patch_24">
    <path d="M 119.57346 448.56 
L 121.20794 448.56 
L 121.20794 422.688 
L 119.57346 422.688 
z
" clip-path="url(#p1ef00a8dba)" style="fill: #7f7f7f; opacity: 0.5"/>
   </g>
   <g id="patch_25">
    <path d="M 121.61656 448.56 
L 123.251041 448.56 
L 123.251041 448.56 
L 121.61656 448.56 
z
" clip-path="url(#p1ef00a8dba)" style="fill: #7f7f7f; opacity: 0.5"/>
   </g>
   <g id="patch_26">
    <path d="M 123.659661 448.56 
L 125.294142 448.56 
L 125.294142 448.56 
L 123.659661 448.56 
z
" clip-path="url(#p1ef00a8dba)" style="fill: #7f7f7f; opacity: 0.5"/>
   </g>
   <g id="patch_27">
    <path d="M 125.702762 448.56 
L 127.337242 448.56 
L 127.337242 422.688 
L 125.702762 422.688 
z
" clip-path="url(#p1ef00a8dba)" style="fill: #7f7f7f; opacity: 0.5"/>
   </g>
   <g id="patch_28">
    <path d="M 127.745863 448.56 
L 129.380343 448.56 
L 129.380343 448.56 
L 127.745863 448.56 
z
" clip-path="url(#p1ef00a8dba)" style="fill: #7f7f7f; opacity: 0.5"/>
   </g>
   <g id="patch_29">
    <path d="M 129.788963 448.56 
L 131.423444 448.56 
L 131.423444 422.688 
L 129.788963 422.688 
z
" clip-path="url(#p1ef00a8dba)" style="fill: #7f7f7f; opacity: 0.5"/>
   </g>
   <g id="patch_30">
    <path d="M 131.832064 448.56 
L 133.466545 448.56 
L 133.466545 448.56 
L 131.832064 448.56 
z
" clip-path="url(#p1ef00a8dba)" style="fill: #7f7f7f; opacity: 0.5"/>
   </g>
   <g id="patch_31">
    <path d="M 133.875165 448.56 
L 135.509645 448.56 
L 135.509645 422.688 
L 133.875165 422.688 
z
" clip-path="url(#p1ef00a8dba)" style="fill: #7f7f7f; opacity: 0.5"/>
   </g>
   <g id="patch_32">
    <path d="M 135.918266 448.56 
L 137.552746 448.56 
L 137.552746 448.56 
L 135.918266 448.56 
z
" clip-path="url(#p1ef00a8dba)" style="fill: #7f7f7f; opacity: 0.5"/>
   </g>
   <g id="patch_33">
    <path d="M 137.961366 448.56 
L 139.595847 448.56 
L 139.595847 422.688 
L 137.961366 422.688 
z
" clip-path="url(#p1ef00a8dba)" style="fill: #7f7f7f; opacity: 0.5"/>
   </g>
   <g id="patch_34">
    <path d="M 140.004467 448.56 
L 141.638948 448.56 
L 141.638948 422.688 
L 140.004467 422.688 
z
" clip-path="url(#p1ef00a8dba)" style="fill: #7f7f7f; opacity: 0.5"/>
   </g>
   <g id="patch_35">
    <path d="M 142.047568 448.56 
L 143.682048 448.56 
L 143.682048 448.56 
L 142.047568 448.56 
z
" clip-path="url(#p1ef00a8dba)" style="fill: #7f7f7f; opacity: 0.5"/>
   </g>
   <g id="patch_36">
    <path d="M 144.090668 448.56 
L 145.725149 448.56 
L 145.725149 422.688 
L 144.090668 422.688 
z
" clip-path="url(#p1ef00a8dba)" style="fill: #7f7f7f; opacity: 0.5"/>
   </g>
   <g id="patch_37">
    <path d="M 146.133769 448.56 
L 147.76825 448.56 
L 147.76825 422.688 
L 146.133769 422.688 
z
" clip-path="url(#p1ef00a8dba)" style="fill: #7f7f7f; opacity: 0.5"/>
   </g>
   <g id="patch_38">
    <path d="M 148.17687 448.56 
L 149.811351 448.56 
L 149.811351 448.56 
L 148.17687 448.56 
z
" clip-path="url(#p1ef00a8dba)" style="fill: #7f7f7f; opacity: 0.5"/>
   </g>
   <g id="patch_39">
    <path d="M 150.219971 448.56 
L 151.854451 448.56 
L 151.854451 422.688 
L 150.219971 422.688 
z
" clip-path="url(#p1ef00a8dba)" style="fill: #7f7f7f; opacity: 0.5"/>
   </g>
   <g id="patch_40">
    <path d="M 152.263071 448.56 
L 153.897552 448.56 
L 153.897552 448.56 
L 152.263071 448.56 
z
" clip-path="url(#p1ef00a8dba)" style="fill: #7f7f7f; opacity: 0.5"/>
   </g>
   <g id="patch_41">
    <path d="M 154.306172 448.56 
L 155.940653 448.56 
L 155.940653 448.56 
L 154.306172 448.56 
z
" clip-path="url(#p1ef00a8dba)" style="fill: #7f7f7f; opacity: 0.5"/>
   </g>
   <g id="patch_42">
    <path d="M 156.349273 448.56 
L 157.983754 448.56 
L 157.983754 370.944 
L 156.349273 370.944 
z
" clip-path="url(#p1ef00a8dba)" style="fill: #7f7f7f; opacity: 0.5"/>
   </g>
   <g id="patch_43">
    <path d="M 158.392374 448.56 
L 160.026854 448.56 
L 160.026854 396.816 
L 158.392374 396.816 
z
" clip-path="url(#p1ef00a8dba)" style="fill: #7f7f7f; opacity: 0.5"/>
   </g>
   <g id="patch_44">
    <path d="M 160.435474 448.56 
L 162.069955 448.56 
L 162.069955 422.688 
L 160.435474 422.688 
z
" clip-path="url(#p1ef00a8dba)" style="fill: #7f7f7f; opacity: 0.5"/>
   </g>
   <g id="patch_45">
    <path d="M 162.478575 448.56 
L 164.113056 448.56 
L 164.113056 422.688 
L 162.478575 422.688 
z
" clip-path="url(#p1ef00a8dba)" style="fill: #7f7f7f; opacity: 0.5"/>
   </g>
   <g id="patch_46">
    <path d="M 164.521676 448.56 
L 166.156157 448.56 
L 166.156157 422.688 
L 164.521676 422.688 
z
" clip-path="url(#p1ef00a8dba)" style="fill: #7f7f7f; opacity: 0.5"/>
   </g>
   <g id="patch_47">
    <path d="M 166.564777 448.56 
L 168.199257 448.56 
L 168.199257 422.688 
L 166.564777 422.688 
z
" clip-path="url(#p1ef00a8dba)" style="fill: #7f7f7f; opacity: 0.5"/>
   </g>
   <g id="patch_48">
    <path d="M 168.607877 448.56 
L 170.242358 448.56 
L 170.242358 370.944 
L 168.607877 370.944 
z
" clip-path="url(#p1ef00a8dba)" style="fill: #7f7f7f; opacity: 0.5"/>
   </g>
   <g id="patch_49">
    <path d="M 170.650978 448.56 
L 172.285459 448.56 
L 172.285459 448.56 
L 170.650978 448.56 
z
" clip-path="url(#p1ef00a8dba)" style="fill: #7f7f7f; opacity: 0.5"/>
   </g>
   <g id="patch_50">
    <path d="M 172.694079 448.56 
L 174.328559 448.56 
L 174.328559 422.688 
L 172.694079 422.688 
z
" clip-path="url(#p1ef00a8dba)" style="fill: #7f7f7f; opacity: 0.5"/>
   </g>
   <g id="patch_51">
    <path d="M 174.73718 448.56 
L 176.37166 448.56 
L 176.37166 422.688 
L 174.73718 422.688 
z
" clip-path="url(#p1ef00a8dba)" style="fill: #7f7f7f; opacity: 0.5"/>
   </g>
   <g id="patch_52">
    <path d="M 176.78028 448.56 
L 178.414761 448.56 
L 178.414761 345.072 
L 176.78028 345.072 
z
" clip-path="url(#p1ef00a8dba)" style="fill: #7f7f7f; opacity: 0.5"/>
   </g>
   <g id="patch_53">
    <path d="M 178.823381 448.56 
L 180.457862 448.56 
L 180.457862 370.944 
L 178.823381 370.944 
z
" clip-path="url(#p1ef00a8dba)" style="fill: #7f7f7f; opacity: 0.5"/>
   </g>
   <g id="patch_54">
    <path d="M 180.866482 448.56 
L 182.500962 448.56 
L 182.500962 370.944 
L 180.866482 370.944 
z
" clip-path="url(#p1ef00a8dba)" style="fill: #7f7f7f; opacity: 0.5"/>
   </g>
   <g id="patch_55">
    <path d="M 182.909583 448.56 
L 184.544063 448.56 
L 184.544063 396.816 
L 182.909583 396.816 
z
" clip-path="url(#p1ef00a8dba)" style="fill: #7f7f7f; opacity: 0.5"/>
   </g>
   <g id="patch_56">
    <path d="M 184.952683 448.56 
L 186.587164 448.56 
L 186.587164 345.072 
L 184.952683 345.072 
z
" clip-path="url(#p1ef00a8dba)" style="fill: #7f7f7f; opacity: 0.5"/>
   </g>
   <g id="patch_57">
    <path d="M 186.995784 448.56 
L 188.630265 448.56 
L 188.630265 345.072 
L 186.995784 345.072 
z
" clip-path="url(#p1ef00a8dba)" style="fill: #7f7f7f; opacity: 0.5"/>
   </g>
   <g id="patch_58">
    <path d="M 189.038885 448.56 
L 190.673365 448.56 
L 190.673365 241.584 
L 189.038885 241.584 
z
" clip-path="url(#p1ef00a8dba)" style="fill: #7f7f7f; opacity: 0.5"/>
   </g>
   <g id="patch_59">
    <path d="M 191.081986 448.56 
L 192.716466 448.56 
L 192.716466 319.2 
L 191.081986 319.2 
z
" clip-path="url(#p1ef00a8dba)" style="fill: #7f7f7f; opacity: 0.5"/>
   </g>
   <g id="patch_60">
    <path d="M 193.125086 448.56 
L 194.759567 448.56 
L 194.759567 241.584 
L 193.125086 241.584 
z
" clip-path="url(#p1ef00a8dba)" style="fill: #7f7f7f; opacity: 0.5"/>
   </g>
   <g id="patch_61">
    <path d="M 195.168187 448.56 
L 196.802668 448.56 
L 196.802668 319.2 
L 195.168187 319.2 
z
" clip-path="url(#p1ef00a8dba)" style="fill: #7f7f7f; opacity: 0.5"/>
   </g>
   <g id="patch_62">
    <path d="M 197.211288 448.56 
L 198.845768 448.56 
L 198.845768 345.072 
L 197.211288 345.072 
z
" clip-path="url(#p1ef00a8dba)" style="fill: #7f7f7f; opacity: 0.5"/>
   </g>
   <g id="patch_63">
    <path d="M 199.254389 448.56 
L 200.888869 448.56 
L 200.888869 319.2 
L 199.254389 319.2 
z
" clip-path="url(#p1ef00a8dba)" style="fill: #7f7f7f; opacity: 0.5"/>
   </g>
   <g id="patch_64">
    <path d="M 201.297489 448.56 
L 202.93197 448.56 
L 202.93197 267.456 
L 201.297489 267.456 
z
" clip-path="url(#p1ef00a8dba)" style="fill: #7f7f7f; opacity: 0.5"/>
   </g>
   <g id="patch_65">
    <path d="M 203.34059 448.56 
L 204.975071 448.56 
L 204.975071 396.816 
L 203.34059 396.816 
z
" clip-path="url(#p1ef00a8dba)" style="fill: #7f7f7f; opacity: 0.5"/>
   </g>
   <g id="patch_66">
    <path d="M 205.383691 448.56 
L 207.018171 448.56 
L 207.018171 422.688 
L 205.383691 422.688 
z
" clip-path="url(#p1ef00a8dba)" style="fill: #7f7f7f; opacity: 0.5"/>
   </g>
   <g id="patch_67">
    <path d="M 207.426792 448.56 
L 209.061272 448.56 
L 209.061272 241.584 
L 207.426792 241.584 
z
" clip-path="url(#p1ef00a8dba)" style="fill: #7f7f7f; opacity: 0.5"/>
   </g>
   <g id="patch_68">
    <path d="M 209.469892 448.56 
L 211.104373 448.56 
L 211.104373 396.816 
L 209.469892 396.816 
z
" clip-path="url(#p1ef00a8dba)" style="fill: #7f7f7f; opacity: 0.5"/>
   </g>
   <g id="patch_69">
    <path d="M 211.512993 448.56 
L 213.147474 448.56 
L 213.147474 345.072 
L 211.512993 345.072 
z
" clip-path="url(#p1ef00a8dba)" style="fill: #7f7f7f; opacity: 0.5"/>
   </g>
   <g id="patch_70">
    <path d="M 213.556094 448.56 
L 215.190574 448.56 
L 215.190574 396.816 
L 213.556094 396.816 
z
" clip-path="url(#p1ef00a8dba)" style="fill: #7f7f7f; opacity: 0.5"/>
   </g>
   <g id="patch_71">
    <path d="M 215.599194 448.56 
L 217.233675 448.56 
L 217.233675 215.712 
L 215.599194 215.712 
z
" clip-path="url(#p1ef00a8dba)" style="fill: #7f7f7f; opacity: 0.5"/>
   </g>
   <g id="patch_72">
    <path d="M 217.642295 448.56 
L 219.276776 448.56 
L 219.276776 241.584 
L 217.642295 241.584 
z
" clip-path="url(#p1ef00a8dba)" style="fill: #7f7f7f; opacity: 0.5"/>
   </g>
   <g id="patch_73">
    <path d="M 219.685396 448.56 
L 221.319877 448.56 
L 221.319877 241.584 
L 219.685396 241.584 
z
" clip-path="url(#p1ef00a8dba)" style="fill: #7f7f7f; opacity: 0.5"/>
   </g>
   <g id="patch_74">
    <path d="M 221.728497 448.56 
L 223.362977 448.56 
L 223.362977 267.456 
L 221.728497 267.456 
z
" clip-path="url(#p1ef00a8dba)" style="fill: #7f7f7f; opacity: 0.5"/>
   </g>
   <g id="patch_75">
    <path d="M 223.771597 448.56 
L 225.406078 448.56 
L 225.406078 215.712 
L 223.771597 215.712 
z
" clip-path="url(#p1ef00a8dba)" style="fill: #7f7f7f; opacity: 0.5"/>
   </g>
   <g id="patch_76">
    <path d="M 225.814698 448.56 
L 227.449179 448.56 
L 227.449179 138.096 
L 225.814698 138.096 
z
" clip-path="url(#p1ef00a8dba)" style="fill: #7f7f7f; opacity: 0.5"/>
   </g>
   <g id="patch_77">
    <path d="M 227.857799 448.56 
L 229.49228 448.56 
L 229.49228 138.096 
L 227.857799 138.096 
z
" clip-path="url(#p1ef00a8dba)" style="fill: #7f7f7f; opacity: 0.5"/>
   </g>
   <g id="patch_78">
    <path d="M 229.9009 448.56 
L 231.53538 448.56 
L 231.53538 267.456 
L 229.9009 267.456 
z
" clip-path="url(#p1ef00a8dba)" style="fill: #7f7f7f; opacity: 0.5"/>
   </g>
   <g id="patch_79">
    <path d="M 231.944 448.56 
L 233.578481 448.56 
L 233.578481 138.096 
L 231.944 138.096 
z
" clip-path="url(#p1ef00a8dba)" style="fill: #7f7f7f; opacity: 0.5"/>
   </g>
   <g id="patch_80">
    <path d="M 233.987101 448.56 
L 235.621582 448.56 
L 235.621582 396.816 
L 233.987101 396.816 
z
" clip-path="url(#p1ef00a8dba)" style="fill: #7f7f7f; opacity: 0.5"/>
   </g>
   <g id="patch_81">
    <path d="M 236.030202 448.56 
L 237.664682 448.56 
L 237.664682 60.48 
L 236.030202 60.48 
z
" clip-path="url(#p1ef00a8dba)" style="fill: #7f7f7f; opacity: 0.5"/>
   </g>
   <g id="patch_82">
    <path d="M 238.073303 448.56 
L 239.707783 448.56 
L 239.707783 163.968 
L 238.073303 163.968 
z
" clip-path="url(#p1ef00a8dba)" style="fill: #7f7f7f; opacity: 0.5"/>
   </g>
   <g id="patch_83">
    <path d="M 240.116403 448.56 
L 241.750884 448.56 
L 241.750884 319.2 
L 240.116403 319.2 
z
" clip-path="url(#p1ef00a8dba)" style="fill: #7f7f7f; opacity: 0.5"/>
   </g>
   <g id="patch_84">
    <path d="M 242.159504 448.56 
L 243.793985 448.56 
L 243.793985 345.072 
L 242.159504 345.072 
z
" clip-path="url(#p1ef00a8dba)" style="fill: #7f7f7f; opacity: 0.5"/>
   </g>
   <g id="patch_85">
    <path d="M 244.202605 448.56 
L 245.837085 448.56 
L 245.837085 396.816 
L 244.202605 396.816 
z
" clip-path="url(#p1ef00a8dba)" style="fill: #7f7f7f; opacity: 0.5"/>
   </g>
   <g id="patch_86">
    <path d="M 246.245706 448.56 
L 247.880186 448.56 
L 247.880186 345.072 
L 246.245706 345.072 
z
" clip-path="url(#p1ef00a8dba)" style="fill: #7f7f7f; opacity: 0.5"/>
   </g>
   <g id="patch_87">
    <path d="M 248.288806 448.56 
L 249.923287 448.56 
L 249.923287 267.456 
L 248.288806 267.456 
z
" clip-path="url(#p1ef00a8dba)" style="fill: #7f7f7f; opacity: 0.5"/>
   </g>
   <g id="patch_88">
    <path d="M 250.331907 448.56 
L 251.966388 448.56 
L 251.966388 112.224 
L 250.331907 112.224 
z
" clip-path="url(#p1ef00a8dba)" style="fill: #7f7f7f; opacity: 0.5"/>
   </g>
   <g id="patch_89">
    <path d="M 252.375008 448.56 
L 254.009488 448.56 
L 254.009488 293.328 
L 252.375008 293.328 
z
" clip-path="url(#p1ef00a8dba)" style="fill: #7f7f7f; opacity: 0.5"/>
   </g>
   <g id="patch_90">
    <path d="M 254.418109 448.56 
L 256.052589 448.56 
L 256.052589 241.584 
L 254.418109 241.584 
z
" clip-path="url(#p1ef00a8dba)" style="fill: #7f7f7f; opacity: 0.5"/>
   </g>
   <g id="patch_91">
    <path d="M 256.461209 448.56 
L 258.09569 448.56 
L 258.09569 345.072 
L 256.461209 345.072 
z
" clip-path="url(#p1ef00a8dba)" style="fill: #7f7f7f; opacity: 0.5"/>
   </g>
   <g id="patch_92">
    <path d="M 258.50431 448.56 
L 260.138791 448.56 
L 260.138791 319.2 
L 258.50431 319.2 
z
" clip-path="url(#p1ef00a8dba)" style="fill: #7f7f7f; opacity: 0.5"/>
   </g>
   <g id="patch_93">
    <path d="M 260.547411 448.56 
L 262.181891 448.56 
L 262.181891 370.944 
L 260.547411 370.944 
z
" clip-path="url(#p1ef00a8dba)" style="fill: #7f7f7f; opacity: 0.5"/>
   </g>
   <g id="patch_94">
    <path d="M 262.590512 448.56 
L 264.224992 448.56 
L 264.224992 396.816 
L 262.590512 396.816 
z
" clip-path="url(#p1ef00a8dba)" style="fill: #7f7f7f; opacity: 0.5"/>
   </g>
   <g id="patch_95">
    <path d="M 264.633612 448.56 
L 266.268093 448.56 
L 266.268093 396.816 
L 264.633612 396.816 
z
" clip-path="url(#p1ef00a8dba)" style="fill: #7f7f7f; opacity: 0.5"/>
   </g>
   <g id="patch_96">
    <path d="M 266.676713 448.56 
L 268.311194 448.56 
L 268.311194 448.56 
L 266.676713 448.56 
z
" clip-path="url(#p1ef00a8dba)" style="fill: #7f7f7f; opacity: 0.5"/>
   </g>
   <g id="patch_97">
    <path d="M 268.719814 448.56 
L 270.354294 448.56 
L 270.354294 422.688 
L 268.719814 422.688 
z
" clip-path="url(#p1ef00a8dba)" style="fill: #7f7f7f; opacity: 0.5"/>
   </g>
   <g id="patch_98">
    <path d="M 270.762915 448.56 
L 272.397395 448.56 
L 272.397395 396.816 
L 270.762915 396.816 
z
" clip-path="url(#p1ef00a8dba)" style="fill: #7f7f7f; opacity: 0.5"/>
   </g>
   <g id="patch_99">
    <path d="M 272.806015 448.56 
L 274.440496 448.56 
L 274.440496 370.944 
L 272.806015 370.944 
z
" clip-path="url(#p1ef00a8dba)" style="fill: #7f7f7f; opacity: 0.5"/>
   </g>
   <g id="patch_100">
    <path d="M 274.849116 448.56 
L 276.483597 448.56 
L 276.483597 422.688 
L 274.849116 422.688 
z
" clip-path="url(#p1ef00a8dba)" style="fill: #7f7f7f; opacity: 0.5"/>
   </g>
   <g id="patch_101">
    <path d="M 276.892217 448.56 
L 278.526697 448.56 
L 278.526697 370.944 
L 276.892217 370.944 
z
" clip-path="url(#p1ef00a8dba)" style="fill: #7f7f7f; opacity: 0.5"/>
   </g>
   <g id="patch_102">
    <path d="M 278.935318 448.56 
L 280.569798 448.56 
L 280.569798 396.816 
L 278.935318 396.816 
z
" clip-path="url(#p1ef00a8dba)" style="fill: #7f7f7f; opacity: 0.5"/>
   </g>
   <g id="patch_103">
    <path d="M 280.978418 448.56 
L 282.612899 448.56 
L 282.612899 448.56 
L 280.978418 448.56 
z
" clip-path="url(#p1ef00a8dba)" style="fill: #7f7f7f; opacity: 0.5"/>
   </g>
   <g id="patch_104">
    <path d="M 283.021519 448.56 
L 284.656 448.56 
L 284.656 448.56 
L 283.021519 448.56 
z
" clip-path="url(#p1ef00a8dba)" style="fill: #7f7f7f; opacity: 0.5"/>
   </g>
   <g id="patch_105">
    <path d="M 285.06462 448.56 
L 286.6991 448.56 
L 286.6991 422.688 
L 285.06462 422.688 
z
" clip-path="url(#p1ef00a8dba)" style="fill: #7f7f7f; opacity: 0.5"/>
   </g>
   <g id="patch_106">
    <path d="M 287.10772 448.56 
L 288.742201 448.56 
L 288.742201 396.816 
L 287.10772 396.816 
z
" clip-path="url(#p1ef00a8dba)" style="fill: #7f7f7f; opacity: 0.5"/>
   </g>
   <g id="patch_107">
    <path d="M 289.150821 448.56 
L 290.785302 448.56 
L 290.785302 422.688 
L 289.150821 422.688 
z
" clip-path="url(#p1ef00a8dba)" style="fill: #7f7f7f; opacity: 0.5"/>
   </g>
   <g id="patch_108">
    <path d="M 291.193922 448.56 
L 292.828403 448.56 
L 292.828403 448.56 
L 291.193922 448.56 
z
" clip-path="url(#p1ef00a8dba)" style="fill: #7f7f7f; opacity: 0.5"/>
   </g>
   <g id="patch_109">
    <path d="M 293.237023 448.56 
L 294.871503 448.56 
L 294.871503 422.688 
L 293.237023 422.688 
z
" clip-path="url(#p1ef00a8dba)" style="fill: #7f7f7f; opacity: 0.5"/>
   </g>
   <g id="patch_110">
    <path d="M 295.280123 448.56 
L 296.914604 448.56 
L 296.914604 448.56 
L 295.280123 448.56 
z
" clip-path="url(#p1ef00a8dba)" style="fill: #7f7f7f; opacity: 0.5"/>
   </g>
   <g id="patch_111">
    <path d="M 297.323224 448.56 
L 298.957705 448.56 
L 298.957705 422.688 
L 297.323224 422.688 
z
" clip-path="url(#p1ef00a8dba)" style="fill: #7f7f7f; opacity: 0.5"/>
   </g>
   <g id="patch_112">
    <path d="M 299.366325 448.56 
L 301.000806 448.56 
L 301.000806 448.56 
L 299.366325 448.56 
z
" clip-path="url(#p1ef00a8dba)" style="fill: #7f7f7f; opacity: 0.5"/>
   </g>
   <g id="patch_113">
    <path d="M 301.409426 448.56 
L 303.043906 448.56 
L 303.043906 448.56 
L 301.409426 448.56 
z
" clip-path="url(#p1ef00a8dba)" style="fill: #7f7f7f; opacity: 0.5"/>
   </g>
   <g id="patch_114">
    <path d="M 303.452526 448.56 
L 305.087007 448.56 
L 305.087007 448.56 
L 303.452526 448.56 
z
" clip-path="url(#p1ef00a8dba)" style="fill: #7f7f7f; opacity: 0.5"/>
   </g>
   <g id="patch_115">
    <path d="M 305.495627 448.56 
L 307.130108 448.56 
L 307.130108 422.688 
L 305.495627 422.688 
z
" clip-path="url(#p1ef00a8dba)" style="fill: #7f7f7f; opacity: 0.5"/>
   </g>
   <g id="patch_116">
    <path d="M 307.538728 448.56 
L 309.173208 448.56 
L 309.173208 422.688 
L 307.538728 422.688 
z
" clip-path="url(#p1ef00a8dba)" style="fill: #7f7f7f; opacity: 0.5"/>
   </g>
   <g id="patch_117">
    <path d="M 309.581829 448.56 
L 311.216309 448.56 
L 311.216309 448.56 
L 309.581829 448.56 
z
" clip-path="url(#p1ef00a8dba)" style="fill: #7f7f7f; opacity: 0.5"/>
   </g>
   <g id="patch_118">
    <path d="M 311.624929 448.56 
L 313.25941 448.56 
L 313.25941 448.56 
L 311.624929 448.56 
z
" clip-path="url(#p1ef00a8dba)" style="fill: #7f7f7f; opacity: 0.5"/>
   </g>
   <g id="patch_119">
    <path d="M 313.66803 448.56 
L 315.302511 448.56 
L 315.302511 448.56 
L 313.66803 448.56 
z
" clip-path="url(#p1ef00a8dba)" style="fill: #7f7f7f; opacity: 0.5"/>
   </g>
   <g id="patch_120">
    <path d="M 315.711131 448.56 
L 317.345611 448.56 
L 317.345611 422.688 
L 315.711131 422.688 
z
" clip-path="url(#p1ef00a8dba)" style="fill: #7f7f7f; opacity: 0.5"/>
   </g>
   <g id="patch_121">
    <path d="M 317.754232 448.56 
L 319.388712 448.56 
L 319.388712 448.56 
L 317.754232 448.56 
z
" clip-path="url(#p1ef00a8dba)" style="fill: #7f7f7f; opacity: 0.5"/>
   </g>
   <g id="patch_122">
    <path d="M 319.797332 448.56 
L 321.431813 448.56 
L 321.431813 448.56 
L 319.797332 448.56 
z
" clip-path="url(#p1ef00a8dba)" style="fill: #7f7f7f; opacity: 0.5"/>
   </g>
   <g id="patch_123">
    <path d="M 321.840433 448.56 
L 323.474914 448.56 
L 323.474914 448.56 
L 321.840433 448.56 
z
" clip-path="url(#p1ef00a8dba)" style="fill: #7f7f7f; opacity: 0.5"/>
   </g>
   <g id="patch_124">
    <path d="M 323.883534 448.56 
L 325.518014 448.56 
L 325.518014 448.56 
L 323.883534 448.56 
z
" clip-path="url(#p1ef00a8dba)" style="fill: #7f7f7f; opacity: 0.5"/>
   </g>
   <g id="patch_125">
    <path d="M 325.926635 448.56 
L 327.561115 448.56 
L 327.561115 448.56 
L 325.926635 448.56 
z
" clip-path="url(#p1ef00a8dba)" style="fill: #7f7f7f; opacity: 0.5"/>
   </g>
   <g id="patch_126">
    <path d="M 327.969735 448.56 
L 329.604216 448.56 
L 329.604216 448.56 
L 327.969735 448.56 
z
" clip-path="url(#p1ef00a8dba)" style="fill: #7f7f7f; opacity: 0.5"/>
   </g>
   <g id="patch_127">
    <path d="M 330.012836 448.56 
L 331.647317 448.56 
L 331.647317 448.56 
L 330.012836 448.56 
z
" clip-path="url(#p1ef00a8dba)" style="fill: #7f7f7f; opacity: 0.5"/>
   </g>
   <g id="patch_128">
    <path d="M 332.055937 448.56 
L 333.690417 448.56 
L 333.690417 448.56 
L 332.055937 448.56 
z
" clip-path="url(#p1ef00a8dba)" style="fill: #7f7f7f; opacity: 0.5"/>
   </g>
   <g id="patch_129">
    <path d="M 334.099038 448.56 
L 335.733518 448.56 
L 335.733518 448.56 
L 334.099038 448.56 
z
" clip-path="url(#p1ef00a8dba)" style="fill: #7f7f7f; opacity: 0.5"/>
   </g>
   <g id="patch_130">
    <path d="M 336.142138 448.56 
L 337.776619 448.56 
L 337.776619 422.688 
L 336.142138 422.688 
z
" clip-path="url(#p1ef00a8dba)" style="fill: #7f7f7f; opacity: 0.5"/>
   </g>
   <g id="patch_131">
    <path d="M 338.185239 448.56 
L 339.81972 448.56 
L 339.81972 448.56 
L 338.185239 448.56 
z
" clip-path="url(#p1ef00a8dba)" style="fill: #7f7f7f; opacity: 0.5"/>
   </g>
   <g id="patch_132">
    <path d="M 340.22834 448.56 
L 341.86282 448.56 
L 341.86282 448.56 
L 340.22834 448.56 
z
" clip-path="url(#p1ef00a8dba)" style="fill: #7f7f7f; opacity: 0.5"/>
   </g>
   <g id="patch_133">
    <path d="M 342.271441 448.56 
L 343.905921 448.56 
L 343.905921 448.56 
L 342.271441 448.56 
z
" clip-path="url(#p1ef00a8dba)" style="fill: #7f7f7f; opacity: 0.5"/>
   </g>
   <g id="patch_134">
    <path d="M 344.314541 448.56 
L 345.949022 448.56 
L 345.949022 448.56 
L 344.314541 448.56 
z
" clip-path="url(#p1ef00a8dba)" style="fill: #7f7f7f; opacity: 0.5"/>
   </g>
   <g id="patch_135">
    <path d="M 346.357642 448.56 
L 347.992123 448.56 
L 347.992123 448.56 
L 346.357642 448.56 
z
" clip-path="url(#p1ef00a8dba)" style="fill: #7f7f7f; opacity: 0.5"/>
   </g>
   <g id="patch_136">
    <path d="M 348.400743 448.56 
L 350.035223 448.56 
L 350.035223 448.56 
L 348.400743 448.56 
z
" clip-path="url(#p1ef00a8dba)" style="fill: #7f7f7f; opacity: 0.5"/>
   </g>
   <g id="patch_137">
    <path d="M 350.443843 448.56 
L 352.078324 448.56 
L 352.078324 422.688 
L 350.443843 422.688 
z
" clip-path="url(#p1ef00a8dba)" style="fill: #7f7f7f; opacity: 0.5"/>
   </g>
   <g id="patch_138">
    <path d="M 352.486944 448.56 
L 354.121425 448.56 
L 354.121425 448.56 
L 352.486944 448.56 
z
" clip-path="url(#p1ef00a8dba)" style="fill: #7f7f7f; opacity: 0.5"/>
   </g>
   <g id="patch_139">
    <path d="M 354.530045 448.56 
L 356.164526 448.56 
L 356.164526 448.56 
L 354.530045 448.56 
z
" clip-path="url(#p1ef00a8dba)" style="fill: #7f7f7f; opacity: 0.5"/>
   </g>
   <g id="patch_140">
    <path d="M 356.573146 448.56 
L 358.207626 448.56 
L 358.207626 448.56 
L 356.573146 448.56 
z
" clip-path="url(#p1ef00a8dba)" style="fill: #7f7f7f; opacity: 0.5"/>
   </g>
   <g id="patch_141">
    <path d="M 358.616246 448.56 
L 360.250727 448.56 
L 360.250727 448.56 
L 358.616246 448.56 
z
" clip-path="url(#p1ef00a8dba)" style="fill: #7f7f7f; opacity: 0.5"/>
   </g>
   <g id="patch_142">
    <path d="M 360.659347 448.56 
L 362.293828 448.56 
L 362.293828 448.56 
L 360.659347 448.56 
z
" clip-path="url(#p1ef00a8dba)" style="fill: #7f7f7f; opacity: 0.5"/>
   </g>
   <g id="patch_143">
    <path d="M 362.702448 448.56 
L 364.336929 448.56 
L 364.336929 448.56 
L 362.702448 448.56 
z
" clip-path="url(#p1ef00a8dba)" style="fill: #7f7f7f; opacity: 0.5"/>
   </g>
   <g id="patch_144">
    <path d="M 364.745549 448.56 
L 366.380029 448.56 
L 366.380029 448.56 
L 364.745549 448.56 
z
" clip-path="url(#p1ef00a8dba)" style="fill: #7f7f7f; opacity: 0.5"/>
   </g>
   <g id="patch_145">
    <path d="M 366.788649 448.56 
L 368.42313 448.56 
L 368.42313 448.56 
L 366.788649 448.56 
z
" clip-path="url(#p1ef00a8dba)" style="fill: #7f7f7f; opacity: 0.5"/>
   </g>
   <g id="patch_146">
    <path d="M 368.83175 448.56 
L 370.466231 448.56 
L 370.466231 448.56 
L 368.83175 448.56 
z
" clip-path="url(#p1ef00a8dba)" style="fill: #7f7f7f; opacity: 0.5"/>
   </g>
   <g id="patch_147">
    <path d="M 370.874851 448.56 
L 372.509332 448.56 
L 372.509332 448.56 
L 370.874851 448.56 
z
" clip-path="url(#p1ef00a8dba)" style="fill: #7f7f7f; opacity: 0.5"/>
   </g>
   <g id="patch_148">
    <path d="M 372.917952 448.56 
L 374.552432 448.56 
L 374.552432 448.56 
L 372.917952 448.56 
z
" clip-path="url(#p1ef00a8dba)" style="fill: #7f7f7f; opacity: 0.5"/>
   </g>
   <g id="patch_149">
    <path d="M 374.961052 448.56 
L 376.595533 448.56 
L 376.595533 448.56 
L 374.961052 448.56 
z
" clip-path="url(#p1ef00a8dba)" style="fill: #7f7f7f; opacity: 0.5"/>
   </g>
   <g id="patch_150">
    <path d="M 377.004153 448.56 
L 378.638634 448.56 
L 378.638634 448.56 
L 377.004153 448.56 
z
" clip-path="url(#p1ef00a8dba)" style="fill: #7f7f7f; opacity: 0.5"/>
   </g>
   <g id="patch_151">
    <path d="M 379.047254 448.56 
L 380.681734 448.56 
L 380.681734 448.56 
L 379.047254 448.56 
z
" clip-path="url(#p1ef00a8dba)" style="fill: #7f7f7f; opacity: 0.5"/>
   </g>
   <g id="patch_152">
    <path d="M 381.090355 448.56 
L 382.724835 448.56 
L 382.724835 448.56 
L 381.090355 448.56 
z
" clip-path="url(#p1ef00a8dba)" style="fill: #7f7f7f; opacity: 0.5"/>
   </g>
   <g id="patch_153">
    <path d="M 383.133455 448.56 
L 384.767936 448.56 
L 384.767936 448.56 
L 383.133455 448.56 
z
" clip-path="url(#p1ef00a8dba)" style="fill: #7f7f7f; opacity: 0.5"/>
   </g>
   <g id="patch_154">
    <path d="M 385.176556 448.56 
L 386.811037 448.56 
L 386.811037 448.56 
L 385.176556 448.56 
z
" clip-path="url(#p1ef00a8dba)" style="fill: #7f7f7f; opacity: 0.5"/>
   </g>
   <g id="patch_155">
    <path d="M 387.219657 448.56 
L 388.854137 448.56 
L 388.854137 448.56 
L 387.219657 448.56 
z
" clip-path="url(#p1ef00a8dba)" style="fill: #7f7f7f; opacity: 0.5"/>
   </g>
   <g id="patch_156">
    <path d="M 389.262758 448.56 
L 390.897238 448.56 
L 390.897238 448.56 
L 389.262758 448.56 
z
" clip-path="url(#p1ef00a8dba)" style="fill: #7f7f7f; opacity: 0.5"/>
   </g>
   <g id="patch_157">
    <path d="M 391.305858 448.56 
L 392.940339 448.56 
L 392.940339 448.56 
L 391.305858 448.56 
z
" clip-path="url(#p1ef00a8dba)" style="fill: #7f7f7f; opacity: 0.5"/>
   </g>
   <g id="patch_158">
    <path d="M 393.348959 448.56 
L 394.98344 448.56 
L 394.98344 448.56 
L 393.348959 448.56 
z
" clip-path="url(#p1ef00a8dba)" style="fill: #7f7f7f; opacity: 0.5"/>
   </g>
   <g id="patch_159">
    <path d="M 395.39206 448.56 
L 397.02654 448.56 
L 397.02654 448.56 
L 395.39206 448.56 
z
" clip-path="url(#p1ef00a8dba)" style="fill: #7f7f7f; opacity: 0.5"/>
   </g>
   <g id="patch_160">
    <path d="M 397.435161 448.56 
L 399.069641 448.56 
L 399.069641 448.56 
L 397.435161 448.56 
z
" clip-path="url(#p1ef00a8dba)" style="fill: #7f7f7f; opacity: 0.5"/>
   </g>
   <g id="patch_161">
    <path d="M 399.478261 448.56 
L 401.112742 448.56 
L 401.112742 448.56 
L 399.478261 448.56 
z
" clip-path="url(#p1ef00a8dba)" style="fill: #7f7f7f; opacity: 0.5"/>
   </g>
   <g id="patch_162">
    <path d="M 401.521362 448.56 
L 403.155843 448.56 
L 403.155843 448.56 
L 401.521362 448.56 
z
" clip-path="url(#p1ef00a8dba)" style="fill: #7f7f7f; opacity: 0.5"/>
   </g>
   <g id="patch_163">
    <path d="M 403.564463 448.56 
L 405.198943 448.56 
L 405.198943 448.56 
L 403.564463 448.56 
z
" clip-path="url(#p1ef00a8dba)" style="fill: #7f7f7f; opacity: 0.5"/>
   </g>
   <g id="patch_164">
    <path d="M 405.607564 448.56 
L 407.242044 448.56 
L 407.242044 448.56 
L 405.607564 448.56 
z
" clip-path="url(#p1ef00a8dba)" style="fill: #7f7f7f; opacity: 0.5"/>
   </g>
   <g id="patch_165">
    <path d="M 407.650664 448.56 
L 409.285145 448.56 
L 409.285145 448.56 
L 407.650664 448.56 
z
" clip-path="url(#p1ef00a8dba)" style="fill: #7f7f7f; opacity: 0.5"/>
   </g>
   <g id="patch_166">
    <path d="M 409.693765 448.56 
L 411.328246 448.56 
L 411.328246 448.56 
L 409.693765 448.56 
z
" clip-path="url(#p1ef00a8dba)" style="fill: #7f7f7f; opacity: 0.5"/>
   </g>
   <g id="patch_167">
    <path d="M 411.736866 448.56 
L 413.371346 448.56 
L 413.371346 448.56 
L 411.736866 448.56 
z
" clip-path="url(#p1ef00a8dba)" style="fill: #7f7f7f; opacity: 0.5"/>
   </g>
   <g id="patch_168">
    <path d="M 413.779967 448.56 
L 415.414447 448.56 
L 415.414447 448.56 
L 413.779967 448.56 
z
" clip-path="url(#p1ef00a8dba)" style="fill: #7f7f7f; opacity: 0.5"/>
   </g>
   <g id="patch_169">
    <path d="M 415.823067 448.56 
L 417.457548 448.56 
L 417.457548 448.56 
L 415.823067 448.56 
z
" clip-path="url(#p1ef00a8dba)" style="fill: #7f7f7f; opacity: 0.5"/>
   </g>
   <g id="patch_170">
    <path d="M 417.866168 448.56 
L 419.500649 448.56 
L 419.500649 448.56 
L 417.866168 448.56 
z
" clip-path="url(#p1ef00a8dba)" style="fill: #7f7f7f; opacity: 0.5"/>
   </g>
   <g id="patch_171">
    <path d="M 419.909269 448.56 
L 421.543749 448.56 
L 421.543749 448.56 
L 419.909269 448.56 
z
" clip-path="url(#p1ef00a8dba)" style="fill: #7f7f7f; opacity: 0.5"/>
   </g>
   <g id="patch_172">
    <path d="M 421.952369 448.56 
L 423.58685 448.56 
L 423.58685 448.56 
L 421.952369 448.56 
z
" clip-path="url(#p1ef00a8dba)" style="fill: #7f7f7f; opacity: 0.5"/>
   </g>
   <g id="patch_173">
    <path d="M 423.99547 448.56 
L 425.629951 448.56 
L 425.629951 448.56 
L 423.99547 448.56 
z
" clip-path="url(#p1ef00a8dba)" style="fill: #7f7f7f; opacity: 0.5"/>
   </g>
   <g id="patch_174">
    <path d="M 426.038571 448.56 
L 427.673052 448.56 
L 427.673052 448.56 
L 426.038571 448.56 
z
" clip-path="url(#p1ef00a8dba)" style="fill: #7f7f7f; opacity: 0.5"/>
   </g>
   <g id="patch_175">
    <path d="M 428.081672 448.56 
L 429.716152 448.56 
L 429.716152 448.56 
L 428.081672 448.56 
z
" clip-path="url(#p1ef00a8dba)" style="fill: #7f7f7f; opacity: 0.5"/>
   </g>
   <g id="patch_176">
    <path d="M 430.124772 448.56 
L 431.759253 448.56 
L 431.759253 448.56 
L 430.124772 448.56 
z
" clip-path="url(#p1ef00a8dba)" style="fill: #7f7f7f; opacity: 0.5"/>
   </g>
   <g id="patch_177">
    <path d="M 432.167873 448.56 
L 433.802354 448.56 
L 433.802354 448.56 
L 432.167873 448.56 
z
" clip-path="url(#p1ef00a8dba)" style="fill: #7f7f7f; opacity: 0.5"/>
   </g>
   <g id="patch_178">
    <path d="M 434.210974 448.56 
L 435.845455 448.56 
L 435.845455 448.56 
L 434.210974 448.56 
z
" clip-path="url(#p1ef00a8dba)" style="fill: #7f7f7f; opacity: 0.5"/>
   </g>
   <g id="matplotlib.axis_3">
    <g id="ytick_7">
     <g id="line2d_15">
      <defs>
       <path id="m1da2b2b102" d="M 0 0 
L 3.5 0 
" style="stroke: #7f7f7f; stroke-width: 0.8"/>
      </defs>
      <g>
       <use xlink:href="#m1da2b2b102" x="453.6" y="448.56" style="fill: #7f7f7f; stroke: #7f7f7f; stroke-width: 0.8"/>
      </g>
     </g>
     <g id="text_14">
      <text style="font-size: 16px; font-family: 'Arial', sans-serif; text-anchor: start; fill: #7f7f7f" x="460.6" y="454.28625" transform="rotate(-0 460.6 454.28625)">0</text>
     </g>
    </g>
    <g id="ytick_8">
     <g id="line2d_16">
      <g>
       <use xlink:href="#m1da2b2b102" x="453.6" y="396.816" style="fill: #7f7f7f; stroke: #7f7f7f; stroke-width: 0.8"/>
      </g>
     </g>
     <g id="text_15">
      <text style="font-size: 16px; font-family: 'Arial', sans-serif; text-anchor: start; fill: #7f7f7f" x="460.6" y="402.54225" transform="rotate(-0 460.6 402.54225)">2</text>
     </g>
    </g>
    <g id="ytick_9">
     <g id="line2d_17">
      <g>
       <use xlink:href="#m1da2b2b102" x="453.6" y="345.072" style="fill: #7f7f7f; stroke: #7f7f7f; stroke-width: 0.8"/>
      </g>
     </g>
     <g id="text_16">
      <text style="font-size: 16px; font-family: 'Arial', sans-serif; text-anchor: start; fill: #7f7f7f" x="460.6" y="350.79825" transform="rotate(-0 460.6 350.79825)">4</text>
     </g>
    </g>
    <g id="ytick_10">
     <g id="line2d_18">
      <g>
       <use xlink:href="#m1da2b2b102" x="453.6" y="293.328" style="fill: #7f7f7f; stroke: #7f7f7f; stroke-width: 0.8"/>
      </g>
     </g>
     <g id="text_17">
      <text style="font-size: 16px; font-family: 'Arial', sans-serif; text-anchor: start; fill: #7f7f7f" x="460.6" y="299.05425" transform="rotate(-0 460.6 299.05425)">6</text>
     </g>
    </g>
    <g id="ytick_11">
     <g id="line2d_19">
      <g>
       <use xlink:href="#m1da2b2b102" x="453.6" y="241.584" style="fill: #7f7f7f; stroke: #7f7f7f; stroke-width: 0.8"/>
      </g>
     </g>
     <g id="text_18">
      <text style="font-size: 16px; font-family: 'Arial', sans-serif; text-anchor: start; fill: #7f7f7f" x="460.6" y="247.31025" transform="rotate(-0 460.6 247.31025)">8</text>
     </g>
    </g>
    <g id="ytick_12">
     <g id="line2d_20">
      <g>
       <use xlink:href="#m1da2b2b102" x="453.6" y="189.84" style="fill: #7f7f7f; stroke: #7f7f7f; stroke-width: 0.8"/>
      </g>
     </g>
     <g id="text_19">
      <text style="font-size: 16px; font-family: 'Arial', sans-serif; text-anchor: start; fill: #7f7f7f" x="460.6" y="195.56625" transform="rotate(-0 460.6 195.56625)">10</text>
     </g>
    </g>
    <g id="ytick_13">
     <g id="line2d_21">
      <g>
       <use xlink:href="#m1da2b2b102" x="453.6" y="138.096" style="fill: #7f7f7f; stroke: #7f7f7f; stroke-width: 0.8"/>
      </g>
     </g>
     <g id="text_20">
      <text style="font-size: 16px; font-family: 'Arial', sans-serif; text-anchor: start; fill: #7f7f7f" x="460.6" y="143.82225" transform="rotate(-0 460.6 143.82225)">12</text>
     </g>
    </g>
    <g id="ytick_14">
     <g id="line2d_22">
      <g>
       <use xlink:href="#m1da2b2b102" x="453.6" y="86.352" style="fill: #7f7f7f; stroke: #7f7f7f; stroke-width: 0.8"/>
      </g>
     </g>
     <g id="text_21">
      <text style="font-size: 16px; font-family: 'Arial', sans-serif; text-anchor: start; fill: #7f7f7f" x="460.6" y="92.07825" transform="rotate(-0 460.6 92.07825)">14</text>
     </g>
    </g>
    <g id="text_22">
     <text style="font-size: 16px; font-family: 'Arial', sans-serif; text-anchor: middle; fill: #7f7f7f" x="493.8475" y="254.52" transform="rotate(-90 493.8475 254.52)">Number of cases</text>
    </g>
   </g>
   <g id="patch_179">
    <path d="M 453.6 448.56 
L 453.6 60.48 
" style="fill: none; stroke: #7f7f7f; stroke-width: 0.8; stroke-linejoin: miter; stroke-linecap: square"/>
   </g>
  </g>
 </g>
 <defs>
  <clipPath id="p1ef00a8dba">
   <rect x="63" y="60.48" width="390.6" height="388.08"/>
  </clipPath>
 </defs>
</svg>
