<?xml version="1.0" encoding="utf-8" standalone="no"?>
<!DOCTYPE svg PUBLIC "-//W3C//DTD SVG 1.1//EN"
  "http://www.w3.org/Graphics/SVG/1.1/DTD/svg11.dtd">
<svg xmlns:xlink="http://www.w3.org/1999/xlink" width="504pt" height="504pt" viewBox="0 0 504 504" xmlns="http://www.w3.org/2000/svg" version="1.1">
 <metadata>
  <rdf:RDF xmlns:dc="http://purl.org/dc/elements/1.1/" xmlns:cc="http://creativecommons.org/ns#" xmlns:rdf="http://www.w3.org/1999/02/22-rdf-syntax-ns#">
   <cc:Work>
    <dc:type rdf:resource="http://purl.org/dc/dcmitype/StillImage"/>
    <dc:date>2026-07-23T18:06:47.114865</dc:date>
    <dc:format>image/svg+xml</dc:format>
    <dc:creator>
     <cc:Agent>
      <dc:title>Matplotlib v3.11.0, https://matplotlib.org/</dc:title>
     </cc:Agent>
    </dc:creator>
   </cc:Work>
  </rdf:RDF>
 </metadata>
 <defs>
  <style type="text/css">*{stroke-linejoin: round; stroke-linecap: butt}</style>
 </defs>
 <g id="figure_1">
  <g id="patch_1">
   <path d="M 0 504 
L 504 504 
L 504 0 
L 0 0 
L 0 504 
z
" style="fill: none"/>
  </g>
  <g id="axes_1">
   <g id="patch_2">
    <path d="M 63 448.56 
L 453.6 448.56 
L 453.6 60.48 
L 63 60.48 
L 63 448.56 
z
" style="fill: none"/>
   </g>
   <g id="matplotlib.axis_1">
    <g id="ytick_1">
     <g id="line2d_1">
      <defs>
       <path id="md6c0657240" d="M 0 0 
L 3.5 0 
" style="stroke: #7f7f7f; stroke-width: 0.8"/>
      </defs>
      <g>
       <use xlink:href="#md6c0657240" x="453.6" y="448.56" style="fill: #7f7f7f; stroke: #7f7f7f; stroke-width: 0.8"/>
      </g>
     </g>
     <g id="text_1">
      <text style="font-size: 16px; font-family: 'Arial', sans-serif; text-anchor: start; fill: #7f7f7f" x="460.6" y="454.384219" transform="rotate(-0 460.6 454.384219)">0</text>
     </g>
    </g>
    <g id="ytick_2">
     <g id="line2d_2">
      <g>
       <use xlink:href="#md6c0657240" x="453.6" y="396.816" style="fill: #7f7f7f; stroke: #7f7f7f; stroke-width: 0.8"/>
      </g>
     </g>
     <g id="text_2">
      <text style="font-size: 16px; font-family: 'Arial', sans-serif; text-anchor: start; fill: #7f7f7f" x="460.6" y="402.640219" transform="rotate(-0 460.6 402.640219)">2</text>
     </g>
    </g>
    <g id="ytick_3">
     <g id="line2d_3">
      <g>
       <use xlink:href="#md6c0657240" x="453.6" y="345.072" style="fill: #7f7f7f; stroke: #7f7f7f; stroke-width: 0.8"/>
      </g>
     </g>
     <g id="text_3">
      <text style="font-size: 16px; font-family: 'Arial', sans-serif; text-anchor: start; fill: #7f7f7f" x="460.6" y="350.896219" transform="rotate(-0 460.6 350.896219)">4</text>
     </g>
    </g>
    <g id="ytick_4">
     <g id="line2d_4">
      <g>
       <use xlink:href="#md6c0657240" x="453.6" y="293.328" style="fill: #7f7f7f; stroke: #7f7f7f; stroke-width: 0.8"/>
      </g>
     </g>
     <g id="text_4">
      <text style="font-size: 16px; font-family: 'Arial', sans-serif; text-anchor: start; fill: #7f7f7f" x="460.6" y="299.152219" transform="rotate(-0 460.6 299.152219)">6</text>
     </g>
    </g>
    <g id="ytick_5">
     <g id="line2d_5">
      <g>
       <use xlink:href="#md6c0657240" x="453.6" y="241.584" style="fill: #7f7f7f; stroke: #7f7f7f; stroke-width: 0.8"/>
      </g>
     </g>
     <g id="text_5">
      <text style="font-size: 16px; font-family: 'Arial', sans-serif; text-anchor: start; fill: #7f7f7f" x="460.6" y="247.408219" transform="rotate(-0 460.6 247.408219)">8</text>
     </g>
    </g>
    <g id="ytick_6">
     <g id="line2d_6">
      <g>
       <use xlink:href="#md6c0657240" x="453.6" y="189.84" style="fill: #7f7f7f; stroke: #7f7f7f; stroke-width: 0.8"/>
      </g>
     </g>
     <g id="text_6">
      <text style="font-size: 16px; font-family: 'Arial', sans-serif; text-anchor: start; fill: #7f7f7f" x="460.6" y="195.664219" transform="rotate(-0 460.6 195.664219)">10</text>
     </g>
    </g>
    <g id="ytick_7">
     <g id="line2d_7">
      <g>
       <use xlink:href="#md6c0657240" x="453.6" y="138.096" style="fill: #7f7f7f; stroke: #7f7f7f; stroke-width: 0.8"/>
      </g>
     </g>
     <g id="text_7">
      <text style="font-size: 16px; font-family: 'Arial', sans-serif; text-anchor: start; fill: #7f7f7f" x="460.6" y="143.920219" transform="rotate(-0 460.6 143.920219)">12</text>
     </g>
    </g>
    <g id="ytick_8">
     <g id="line2d_8">
      <g>
       <use xlink:href="#md6c0657240" x="453.6" y="86.352" style="fill: #7f7f7f; stroke: #7f7f7f; stroke-width: 0.8"/>
      </g>
     </g>
     <g id="text_8">
      <text style="font-size: 16px; font-family: 'Arial', sans-serif; text-anchor: start; fill: #7f7f7f" x="460.6" y="92.176219" transform="rotate(-0 460.6 92.176219)">14</text>
     </g>
    </g>
    <g id="text_9">
     <text style="font-size: 16px; font-family: 'Arial', sans-serif; text-anchor: middle; fill: #7f7f7f" x="494.043438" y="254.52" transform="rotate(-90 494.043438 254.52)">Number of cases</text>
    </g>
   </g>
   <g id="patch_3">
    <path d="M 82.107042 448.56 
L 83.684507 448.56 
L 83.684507 396.816 
L 82.107042 396.816 
z
" clip-path="url(#p824c0170a2)" style="fill: #7f7f7f; opacity: 0.5"/>
   </g>
   <g id="patch_4">
    <path d="M 84.078873 448.56 
L 85.656338 448.56 
L 85.656338 396.816 
L 84.078873 396.816 
z
" clip-path="url(#p824c0170a2)" style="fill: #7f7f7f; opacity: 0.5"/>
   </g>
   <g id="patch_5">
    <path d="M 86.050704 448.56 
L 87.628169 448.56 
L 87.628169 396.816 
L 86.050704 396.816 
z
" clip-path="url(#p824c0170a2)" style="fill: #7f7f7f; opacity: 0.5"/>
   </g>
   <g id="patch_6">
    <path d="M 88.022535 448.56 
L 89.6 448.56 
L 89.6 448.56 
L 88.022535 448.56 
z
" clip-path="url(#p824c0170a2)" style="fill: #7f7f7f; opacity: 0.5"/>
   </g>
   <g id="patch_7">
    <path d="M 89.994366 448.56 
L 91.571831 448.56 
L 91.571831 448.56 
L 89.994366 448.56 
z
" clip-path="url(#p824c0170a2)" style="fill: #7f7f7f; opacity: 0.5"/>
   </g>
   <g id="patch_8">
    <path d="M 91.966197 448.56 
L 93.543662 448.56 
L 93.543662 448.56 
L 91.966197 448.56 
z
" clip-path="url(#p824c0170a2)" style="fill: #7f7f7f; opacity: 0.5"/>
   </g>
   <g id="patch_9">
    <path d="M 93.938028 448.56 
L 95.515493 448.56 
L 95.515493 448.56 
L 93.938028 448.56 
z
" clip-path="url(#p824c0170a2)" style="fill: #7f7f7f; opacity: 0.5"/>
   </g>
   <g id="patch_10">
    <path d="M 95.909859 448.56 
L 97.487324 448.56 
L 97.487324 448.56 
L 95.909859 448.56 
z
" clip-path="url(#p824c0170a2)" style="fill: #7f7f7f; opacity: 0.5"/>
   </g>
   <g id="patch_11">
    <path d="M 97.88169 448.56 
L 99.459155 448.56 
L 99.459155 448.56 
L 97.88169 448.56 
z
" clip-path="url(#p824c0170a2)" style="fill: #7f7f7f; opacity: 0.5"/>
   </g>
   <g id="patch_12">
    <path d="M 99.853521 448.56 
L 101.430986 448.56 
L 101.430986 422.688 
L 99.853521 422.688 
z
" clip-path="url(#p824c0170a2)" style="fill: #7f7f7f; opacity: 0.5"/>
   </g>
   <g id="patch_13">
    <path d="M 101.825352 448.56 
L 103.402817 448.56 
L 103.402817 448.56 
L 101.825352 448.56 
z
" clip-path="url(#p824c0170a2)" style="fill: #7f7f7f; opacity: 0.5"/>
   </g>
   <g id="patch_14">
    <path d="M 103.797183 448.56 
L 105.374648 448.56 
L 105.374648 448.56 
L 103.797183 448.56 
z
" clip-path="url(#p824c0170a2)" style="fill: #7f7f7f; opacity: 0.5"/>
   </g>
   <g id="patch_15">
    <path d="M 105.769014 448.56 
L 107.346479 448.56 
L 107.346479 448.56 
L 105.769014 448.56 
z
" clip-path="url(#p824c0170a2)" style="fill: #7f7f7f; opacity: 0.5"/>
   </g>
   <g id="patch_16">
    <path d="M 107.740845 448.56 
L 109.31831 448.56 
L 109.31831 448.56 
L 107.740845 448.56 
z
" clip-path="url(#p824c0170a2)" style="fill: #7f7f7f; opacity: 0.5"/>
   </g>
   <g id="patch_17">
    <path d="M 109.712676 448.56 
L 111.290141 448.56 
L 111.290141 448.56 
L 109.712676 448.56 
z
" clip-path="url(#p824c0170a2)" style="fill: #7f7f7f; opacity: 0.5"/>
   </g>
   <g id="patch_18">
    <path d="M 111.684507 448.56 
L 113.261972 448.56 
L 113.261972 448.56 
L 111.684507 448.56 
z
" clip-path="url(#p824c0170a2)" style="fill: #7f7f7f; opacity: 0.5"/>
   </g>
   <g id="patch_19">
    <path d="M 113.656338 448.56 
L 115.233803 448.56 
L 115.233803 448.56 
L 113.656338 448.56 
z
" clip-path="url(#p824c0170a2)" style="fill: #7f7f7f; opacity: 0.5"/>
   </g>
   <g id="patch_20">
    <path d="M 115.628169 448.56 
L 117.205634 448.56 
L 117.205634 448.56 
L 115.628169 448.56 
z
" clip-path="url(#p824c0170a2)" style="fill: #7f7f7f; opacity: 0.5"/>
   </g>
   <g id="patch_21">
    <path d="M 117.6 448.56 
L 119.177465 448.56 
L 119.177465 448.56 
L 117.6 448.56 
z
" clip-path="url(#p824c0170a2)" style="fill: #7f7f7f; opacity: 0.5"/>
   </g>
   <g id="patch_22">
    <path d="M 119.571831 448.56 
L 121.149296 448.56 
L 121.149296 422.688 
L 119.571831 422.688 
z
" clip-path="url(#p824c0170a2)" style="fill: #7f7f7f; opacity: 0.5"/>
   </g>
   <g id="patch_23">
    <path d="M 121.543662 448.56 
L 123.121127 448.56 
L 123.121127 448.56 
L 121.543662 448.56 
z
" clip-path="url(#p824c0170a2)" style="fill: #7f7f7f; opacity: 0.5"/>
   </g>
   <g id="patch_24">
    <path d="M 123.515493 448.56 
L 125.092958 448.56 
L 125.092958 448.56 
L 123.515493 448.56 
z
" clip-path="url(#p824c0170a2)" style="fill: #7f7f7f; opacity: 0.5"/>
   </g>
   <g id="patch_25">
    <path d="M 125.487324 448.56 
L 127.064789 448.56 
L 127.064789 422.688 
L 125.487324 422.688 
z
" clip-path="url(#p824c0170a2)" style="fill: #7f7f7f; opacity: 0.5"/>
   </g>
   <g id="patch_26">
    <path d="M 127.459155 448.56 
L 129.03662 448.56 
L 129.03662 448.56 
L 127.459155 448.56 
z
" clip-path="url(#p824c0170a2)" style="fill: #7f7f7f; opacity: 0.5"/>
   </g>
   <g id="patch_27">
    <path d="M 129.430986 448.56 
L 131.008451 448.56 
L 131.008451 422.688 
L 129.430986 422.688 
z
" clip-path="url(#p824c0170a2)" style="fill: #7f7f7f; opacity: 0.5"/>
   </g>
   <g id="patch_28">
    <path d="M 131.402817 448.56 
L 132.980282 448.56 
L 132.980282 448.56 
L 131.402817 448.56 
z
" clip-path="url(#p824c0170a2)" style="fill: #7f7f7f; opacity: 0.5"/>
   </g>
   <g id="patch_29">
    <path d="M 133.374648 448.56 
L 134.952113 448.56 
L 134.952113 422.688 
L 133.374648 422.688 
z
" clip-path="url(#p824c0170a2)" style="fill: #7f7f7f; opacity: 0.5"/>
   </g>
   <g id="patch_30">
    <path d="M 135.346479 448.56 
L 136.923944 448.56 
L 136.923944 448.56 
L 135.346479 448.56 
z
" clip-path="url(#p824c0170a2)" style="fill: #7f7f7f; opacity: 0.5"/>
   </g>
   <g id="patch_31">
    <path d="M 137.31831 448.56 
L 138.895775 448.56 
L 138.895775 422.688 
L 137.31831 422.688 
z
" clip-path="url(#p824c0170a2)" style="fill: #7f7f7f; opacity: 0.5"/>
   </g>
   <g id="patch_32">
    <path d="M 139.290141 448.56 
L 140.867606 448.56 
L 140.867606 422.688 
L 139.290141 422.688 
z
" clip-path="url(#p824c0170a2)" style="fill: #7f7f7f; opacity: 0.5"/>
   </g>
   <g id="patch_33">
    <path d="M 141.261972 448.56 
L 142.839437 448.56 
L 142.839437 448.56 
L 141.261972 448.56 
z
" clip-path="url(#p824c0170a2)" style="fill: #7f7f7f; opacity: 0.5"/>
   </g>
   <g id="patch_34">
    <path d="M 143.233803 448.56 
L 144.811268 448.56 
L 144.811268 422.688 
L 143.233803 422.688 
z
" clip-path="url(#p824c0170a2)" style="fill: #7f7f7f; opacity: 0.5"/>
   </g>
   <g id="patch_35">
    <path d="M 145.205634 448.56 
L 146.783099 448.56 
L 146.783099 422.688 
L 145.205634 422.688 
z
" clip-path="url(#p824c0170a2)" style="fill: #7f7f7f; opacity: 0.5"/>
   </g>
   <g id="patch_36">
    <path d="M 147.177465 448.56 
L 148.75493 448.56 
L 148.75493 448.56 
L 147.177465 448.56 
z
" clip-path="url(#p824c0170a2)" style="fill: #7f7f7f; opacity: 0.5"/>
   </g>
   <g id="patch_37">
    <path d="M 149.149296 448.56 
L 150.726761 448.56 
L 150.726761 422.688 
L 149.149296 422.688 
z
" clip-path="url(#p824c0170a2)" style="fill: #7f7f7f; opacity: 0.5"/>
   </g>
   <g id="patch_38">
    <path d="M 151.121127 448.56 
L 152.698592 448.56 
L 152.698592 448.56 
L 151.121127 448.56 
z
" clip-path="url(#p824c0170a2)" style="fill: #7f7f7f; opacity: 0.5"/>
   </g>
   <g id="patch_39">
    <path d="M 153.092958 448.56 
L 154.670423 448.56 
L 154.670423 448.56 
L 153.092958 448.56 
z
" clip-path="url(#p824c0170a2)" style="fill: #7f7f7f; opacity: 0.5"/>
   </g>
   <g id="patch_40">
    <path d="M 155.064789 448.56 
L 156.642254 448.56 
L 156.642254 370.944 
L 155.064789 370.944 
z
" clip-path="url(#p824c0170a2)" style="fill: #7f7f7f; opacity: 0.5"/>
   </g>
   <g id="patch_41">
    <path d="M 157.03662 448.56 
L 158.614085 448.56 
L 158.614085 396.816 
L 157.03662 396.816 
z
" clip-path="url(#p824c0170a2)" style="fill: #7f7f7f; opacity: 0.5"/>
   </g>
   <g id="patch_42">
    <path d="M 159.008451 448.56 
L 160.585915 448.56 
L 160.585915 422.688 
L 159.008451 422.688 
z
" clip-path="url(#p824c0170a2)" style="fill: #7f7f7f; opacity: 0.5"/>
   </g>
   <g id="patch_43">
    <path d="M 160.980282 448.56 
L 162.557746 448.56 
L 162.557746 422.688 
L 160.980282 422.688 
z
" clip-path="url(#p824c0170a2)" style="fill: #7f7f7f; opacity: 0.5"/>
   </g>
   <g id="patch_44">
    <path d="M 162.952113 448.56 
L 164.529577 448.56 
L 164.529577 422.688 
L 162.952113 422.688 
z
" clip-path="url(#p824c0170a2)" style="fill: #7f7f7f; opacity: 0.5"/>
   </g>
   <g id="patch_45">
    <path d="M 164.923944 448.56 
L 166.501408 448.56 
L 166.501408 422.688 
L 164.923944 422.688 
z
" clip-path="url(#p824c0170a2)" style="fill: #7f7f7f; opacity: 0.5"/>
   </g>
   <g id="patch_46">
    <path d="M 166.895775 448.56 
L 168.473239 448.56 
L 168.473239 370.944 
L 166.895775 370.944 
z
" clip-path="url(#p824c0170a2)" style="fill: #7f7f7f; opacity: 0.5"/>
   </g>
   <g id="patch_47">
    <path d="M 168.867606 448.56 
L 170.44507 448.56 
L 170.44507 448.56 
L 168.867606 448.56 
z
" clip-path="url(#p824c0170a2)" style="fill: #7f7f7f; opacity: 0.5"/>
   </g>
   <g id="patch_48">
    <path d="M 170.839437 448.56 
L 172.416901 448.56 
L 172.416901 422.688 
L 170.839437 422.688 
z
" clip-path="url(#p824c0170a2)" style="fill: #7f7f7f; opacity: 0.5"/>
   </g>
   <g id="patch_49">
    <path d="M 172.811268 448.56 
L 174.388732 448.56 
L 174.388732 422.688 
L 172.811268 422.688 
z
" clip-path="url(#p824c0170a2)" style="fill: #7f7f7f; opacity: 0.5"/>
   </g>
   <g id="patch_50">
    <path d="M 174.783099 448.56 
L 176.360563 448.56 
L 176.360563 345.072 
L 174.783099 345.072 
z
" clip-path="url(#p824c0170a2)" style="fill: #7f7f7f; opacity: 0.5"/>
   </g>
   <g id="patch_51">
    <path d="M 176.75493 448.56 
L 178.332394 448.56 
L 178.332394 370.944 
L 176.75493 370.944 
z
" clip-path="url(#p824c0170a2)" style="fill: #7f7f7f; opacity: 0.5"/>
   </g>
   <g id="patch_52">
    <path d="M 178.726761 448.56 
L 180.304225 448.56 
L 180.304225 370.944 
L 178.726761 370.944 
z
" clip-path="url(#p824c0170a2)" style="fill: #7f7f7f; opacity: 0.5"/>
   </g>
   <g id="patch_53">
    <path d="M 180.698592 448.56 
L 182.276056 448.56 
L 182.276056 396.816 
L 180.698592 396.816 
z
" clip-path="url(#p824c0170a2)" style="fill: #7f7f7f; opacity: 0.5"/>
   </g>
   <g id="patch_54">
    <path d="M 182.670423 448.56 
L 184.247887 448.56 
L 184.247887 345.072 
L 182.670423 345.072 
z
" clip-path="url(#p824c0170a2)" style="fill: #7f7f7f; opacity: 0.5"/>
   </g>
   <g id="patch_55">
    <path d="M 184.642254 448.56 
L 186.219718 448.56 
L 186.219718 345.072 
L 184.642254 345.072 
z
" clip-path="url(#p824c0170a2)" style="fill: #7f7f7f; opacity: 0.5"/>
   </g>
   <g id="patch_56">
    <path d="M 186.614085 448.56 
L 188.191549 448.56 
L 188.191549 241.584 
L 186.614085 241.584 
z
" clip-path="url(#p824c0170a2)" style="fill: #7f7f7f; opacity: 0.5"/>
   </g>
   <g id="patch_57">
    <path d="M 188.585915 448.56 
L 190.16338 448.56 
L 190.16338 319.2 
L 188.585915 319.2 
z
" clip-path="url(#p824c0170a2)" style="fill: #7f7f7f; opacity: 0.5"/>
   </g>
   <g id="patch_58">
    <path d="M 190.557746 448.56 
L 192.135211 448.56 
L 192.135211 241.584 
L 190.557746 241.584 
z
" clip-path="url(#p824c0170a2)" style="fill: #7f7f7f; opacity: 0.5"/>
   </g>
   <g id="patch_59">
    <path d="M 192.529577 448.56 
L 194.107042 448.56 
L 194.107042 319.2 
L 192.529577 319.2 
z
" clip-path="url(#p824c0170a2)" style="fill: #7f7f7f; opacity: 0.5"/>
   </g>
   <g id="patch_60">
    <path d="M 194.501408 448.56 
L 196.078873 448.56 
L 196.078873 345.072 
L 194.501408 345.072 
z
" clip-path="url(#p824c0170a2)" style="fill: #7f7f7f; opacity: 0.5"/>
   </g>
   <g id="patch_61">
    <path d="M 196.473239 448.56 
L 198.050704 448.56 
L 198.050704 319.2 
L 196.473239 319.2 
z
" clip-path="url(#p824c0170a2)" style="fill: #7f7f7f; opacity: 0.5"/>
   </g>
   <g id="patch_62">
    <path d="M 198.44507 448.56 
L 200.022535 448.56 
L 200.022535 267.456 
L 198.44507 267.456 
z
" clip-path="url(#p824c0170a2)" style="fill: #7f7f7f; opacity: 0.5"/>
   </g>
   <g id="patch_63">
    <path d="M 200.416901 448.56 
L 201.994366 448.56 
L 201.994366 396.816 
L 200.416901 396.816 
z
" clip-path="url(#p824c0170a2)" style="fill: #7f7f7f; opacity: 0.5"/>
   </g>
   <g id="patch_64">
    <path d="M 202.388732 448.56 
L 203.966197 448.56 
L 203.966197 422.688 
L 202.388732 422.688 
z
" clip-path="url(#p824c0170a2)" style="fill: #7f7f7f; opacity: 0.5"/>
   </g>
   <g id="patch_65">
    <path d="M 204.360563 448.56 
L 205.938028 448.56 
L 205.938028 241.584 
L 204.360563 241.584 
z
" clip-path="url(#p824c0170a2)" style="fill: #7f7f7f; opacity: 0.5"/>
   </g>
   <g id="patch_66">
    <path d="M 206.332394 448.56 
L 207.909859 448.56 
L 207.909859 396.816 
L 206.332394 396.816 
z
" clip-path="url(#p824c0170a2)" style="fill: #7f7f7f; opacity: 0.5"/>
   </g>
   <g id="patch_67">
    <path d="M 208.304225 448.56 
L 209.88169 448.56 
L 209.88169 345.072 
L 208.304225 345.072 
z
" clip-path="url(#p824c0170a2)" style="fill: #7f7f7f; opacity: 0.5"/>
   </g>
   <g id="patch_68">
    <path d="M 210.276056 448.56 
L 211.853521 448.56 
L 211.853521 396.816 
L 210.276056 396.816 
z
" clip-path="url(#p824c0170a2)" style="fill: #7f7f7f; opacity: 0.5"/>
   </g>
   <g id="patch_69">
    <path d="M 212.247887 448.56 
L 213.825352 448.56 
L 213.825352 215.712 
L 212.247887 215.712 
z
" clip-path="url(#p824c0170a2)" style="fill: #7f7f7f; opacity: 0.5"/>
   </g>
   <g id="patch_70">
    <path d="M 214.219718 448.56 
L 215.797183 448.56 
L 215.797183 241.584 
L 214.219718 241.584 
z
" clip-path="url(#p824c0170a2)" style="fill: #7f7f7f; opacity: 0.5"/>
   </g>
   <g id="patch_71">
    <path d="M 216.191549 448.56 
L 217.769014 448.56 
L 217.769014 241.584 
L 216.191549 241.584 
z
" clip-path="url(#p824c0170a2)" style="fill: #7f7f7f; opacity: 0.5"/>
   </g>
   <g id="patch_72">
    <path d="M 218.16338 448.56 
L 219.740845 448.56 
L 219.740845 267.456 
L 218.16338 267.456 
z
" clip-path="url(#p824c0170a2)" style="fill: #7f7f7f; opacity: 0.5"/>
   </g>
   <g id="patch_73">
    <path d="M 220.135211 448.56 
L 221.712676 448.56 
L 221.712676 215.712 
L 220.135211 215.712 
z
" clip-path="url(#p824c0170a2)" style="fill: #7f7f7f; opacity: 0.5"/>
   </g>
   <g id="patch_74">
    <path d="M 222.107042 448.56 
L 223.684507 448.56 
L 223.684507 138.096 
L 222.107042 138.096 
z
" clip-path="url(#p824c0170a2)" style="fill: #7f7f7f; opacity: 0.5"/>
   </g>
   <g id="patch_75">
    <path d="M 224.078873 448.56 
L 225.656338 448.56 
L 225.656338 138.096 
L 224.078873 138.096 
z
" clip-path="url(#p824c0170a2)" style="fill: #7f7f7f; opacity: 0.5"/>
   </g>
   <g id="patch_76">
    <path d="M 226.050704 448.56 
L 227.628169 448.56 
L 227.628169 267.456 
L 226.050704 267.456 
z
" clip-path="url(#p824c0170a2)" style="fill: #7f7f7f; opacity: 0.5"/>
   </g>
   <g id="patch_77">
    <path d="M 228.022535 448.56 
L 229.6 448.56 
L 229.6 138.096 
L 228.022535 138.096 
z
" clip-path="url(#p824c0170a2)" style="fill: #7f7f7f; opacity: 0.5"/>
   </g>
   <g id="patch_78">
    <path d="M 229.994366 448.56 
L 231.571831 448.56 
L 231.571831 396.816 
L 229.994366 396.816 
z
" clip-path="url(#p824c0170a2)" style="fill: #7f7f7f; opacity: 0.5"/>
   </g>
   <g id="patch_79">
    <path d="M 231.966197 448.56 
L 233.543662 448.56 
L 233.543662 60.48 
L 231.966197 60.48 
z
" clip-path="url(#p824c0170a2)" style="fill: #7f7f7f; opacity: 0.5"/>
   </g>
   <g id="patch_80">
    <path d="M 233.938028 448.56 
L 235.515493 448.56 
L 235.515493 163.968 
L 233.938028 163.968 
z
" clip-path="url(#p824c0170a2)" style="fill: #7f7f7f; opacity: 0.5"/>
   </g>
   <g id="patch_81">
    <path d="M 235.909859 448.56 
L 237.487324 448.56 
L 237.487324 319.2 
L 235.909859 319.2 
z
" clip-path="url(#p824c0170a2)" style="fill: #7f7f7f; opacity: 0.5"/>
   </g>
   <g id="patch_82">
    <path d="M 237.88169 448.56 
L 239.459155 448.56 
L 239.459155 345.072 
L 237.88169 345.072 
z
" clip-path="url(#p824c0170a2)" style="fill: #7f7f7f; opacity: 0.5"/>
   </g>
   <g id="patch_83">
    <path d="M 239.853521 448.56 
L 241.430986 448.56 
L 241.430986 396.816 
L 239.853521 396.816 
z
" clip-path="url(#p824c0170a2)" style="fill: #7f7f7f; opacity: 0.5"/>
   </g>
   <g id="patch_84">
    <path d="M 241.825352 448.56 
L 243.402817 448.56 
L 243.402817 345.072 
L 241.825352 345.072 
z
" clip-path="url(#p824c0170a2)" style="fill: #7f7f7f; opacity: 0.5"/>
   </g>
   <g id="patch_85">
    <path d="M 243.797183 448.56 
L 245.374648 448.56 
L 245.374648 267.456 
L 243.797183 267.456 
z
" clip-path="url(#p824c0170a2)" style="fill: #7f7f7f; opacity: 0.5"/>
   </g>
   <g id="patch_86">
    <path d="M 245.769014 448.56 
L 247.346479 448.56 
L 247.346479 112.224 
L 245.769014 112.224 
z
" clip-path="url(#p824c0170a2)" style="fill: #7f7f7f; opacity: 0.5"/>
   </g>
   <g id="patch_87">
    <path d="M 247.740845 448.56 
L 249.31831 448.56 
L 249.31831 293.328 
L 247.740845 293.328 
z
" clip-path="url(#p824c0170a2)" style="fill: #7f7f7f; opacity: 0.5"/>
   </g>
   <g id="patch_88">
    <path d="M 249.712676 448.56 
L 251.290141 448.56 
L 251.290141 241.584 
L 249.712676 241.584 
z
" clip-path="url(#p824c0170a2)" style="fill: #7f7f7f; opacity: 0.5"/>
   </g>
   <g id="patch_89">
    <path d="M 251.684507 448.56 
L 253.261972 448.56 
L 253.261972 345.072 
L 251.684507 345.072 
z
" clip-path="url(#p824c0170a2)" style="fill: #7f7f7f; opacity: 0.5"/>
   </g>
   <g id="patch_90">
    <path d="M 253.656338 448.56 
L 255.233803 448.56 
L 255.233803 319.2 
L 253.656338 319.2 
z
" clip-path="url(#p824c0170a2)" style="fill: #7f7f7f; opacity: 0.5"/>
   </g>
   <g id="patch_91">
    <path d="M 255.628169 448.56 
L 257.205634 448.56 
L 257.205634 370.944 
L 255.628169 370.944 
z
" clip-path="url(#p824c0170a2)" style="fill: #7f7f7f; opacity: 0.5"/>
   </g>
   <g id="patch_92">
    <path d="M 257.6 448.56 
L 259.177465 448.56 
L 259.177465 396.816 
L 257.6 396.816 
z
" clip-path="url(#p824c0170a2)" style="fill: #7f7f7f; opacity: 0.5"/>
   </g>
   <g id="patch_93">
    <path d="M 259.571831 448.56 
L 261.149296 448.56 
L 261.149296 396.816 
L 259.571831 396.816 
z
" clip-path="url(#p824c0170a2)" style="fill: #7f7f7f; opacity: 0.5"/>
   </g>
   <g id="patch_94">
    <path d="M 261.543662 448.56 
L 263.121127 448.56 
L 263.121127 448.56 
L 261.543662 448.56 
z
" clip-path="url(#p824c0170a2)" style="fill: #7f7f7f; opacity: 0.5"/>
   </g>
   <g id="patch_95">
    <path d="M 263.515493 448.56 
L 265.092958 448.56 
L 265.092958 422.688 
L 263.515493 422.688 
z
" clip-path="url(#p824c0170a2)" style="fill: #7f7f7f; opacity: 0.5"/>
   </g>
   <g id="patch_96">
    <path d="M 265.487324 448.56 
L 267.064789 448.56 
L 267.064789 396.816 
L 265.487324 396.816 
z
" clip-path="url(#p824c0170a2)" style="fill: #7f7f7f; opacity: 0.5"/>
   </g>
   <g id="patch_97">
    <path d="M 267.459155 448.56 
L 269.03662 448.56 
L 269.03662 370.944 
L 267.459155 370.944 
z
" clip-path="url(#p824c0170a2)" style="fill: #7f7f7f; opacity: 0.5"/>
   </g>
   <g id="patch_98">
    <path d="M 269.430986 448.56 
L 271.008451 448.56 
L 271.008451 422.688 
L 269.430986 422.688 
z
" clip-path="url(#p824c0170a2)" style="fill: #7f7f7f; opacity: 0.5"/>
   </g>
   <g id="patch_99">
    <path d="M 271.402817 448.56 
L 272.980282 448.56 
L 272.980282 370.944 
L 271.402817 370.944 
z
" clip-path="url(#p824c0170a2)" style="fill: #7f7f7f; opacity: 0.5"/>
   </g>
   <g id="patch_100">
    <path d="M 273.374648 448.56 
L 274.952113 448.56 
L 274.952113 396.816 
L 273.374648 396.816 
z
" clip-path="url(#p824c0170a2)" style="fill: #7f7f7f; opacity: 0.5"/>
   </g>
   <g id="patch_101">
    <path d="M 275.346479 448.56 
L 276.923944 448.56 
L 276.923944 448.56 
L 275.346479 448.56 
z
" clip-path="url(#p824c0170a2)" style="fill: #7f7f7f; opacity: 0.5"/>
   </g>
   <g id="patch_102">
    <path d="M 277.31831 448.56 
L 278.895775 448.56 
L 278.895775 448.56 
L 277.31831 448.56 
z
" clip-path="url(#p824c0170a2)" style="fill: #7f7f7f; opacity: 0.5"/>
   </g>
   <g id="patch_103">
    <path d="M 279.290141 448.56 
L 280.867606 448.56 
L 280.867606 422.688 
L 279.290141 422.688 
z
" clip-path="url(#p824c0170a2)" style="fill: #7f7f7f; opacity: 0.5"/>
   </g>
   <g id="patch_104">
    <path d="M 281.261972 448.56 
L 282.839437 448.56 
L 282.839437 396.816 
L 281.261972 396.816 
z
" clip-path="url(#p824c0170a2)" style="fill: #7f7f7f; opacity: 0.5"/>
   </g>
   <g id="patch_105">
    <path d="M 283.233803 448.56 
L 284.811268 448.56 
L 284.811268 422.688 
L 283.233803 422.688 
z
" clip-path="url(#p824c0170a2)" style="fill: #7f7f7f; opacity: 0.5"/>
   </g>
   <g id="patch_106">
    <path d="M 285.205634 448.56 
L 286.783099 448.56 
L 286.783099 448.56 
L 285.205634 448.56 
z
" clip-path="url(#p824c0170a2)" style="fill: #7f7f7f; opacity: 0.5"/>
   </g>
   <g id="patch_107">
    <path d="M 287.177465 448.56 
L 288.75493 448.56 
L 288.75493 422.688 
L 287.177465 422.688 
z
" clip-path="url(#p824c0170a2)" style="fill: #7f7f7f; opacity: 0.5"/>
   </g>
   <g id="patch_108">
    <path d="M 289.149296 448.56 
L 290.726761 448.56 
L 290.726761 448.56 
L 289.149296 448.56 
z
" clip-path="url(#p824c0170a2)" style="fill: #7f7f7f; opacity: 0.5"/>
   </g>
   <g id="patch_109">
    <path d="M 291.121127 448.56 
L 292.698592 448.56 
L 292.698592 422.688 
L 291.121127 422.688 
z
" clip-path="url(#p824c0170a2)" style="fill: #7f7f7f; opacity: 0.5"/>
   </g>
   <g id="patch_110">
    <path d="M 293.092958 448.56 
L 294.670423 448.56 
L 294.670423 448.56 
L 293.092958 448.56 
z
" clip-path="url(#p824c0170a2)" style="fill: #7f7f7f; opacity: 0.5"/>
   </g>
   <g id="patch_111">
    <path d="M 295.064789 448.56 
L 296.642254 448.56 
L 296.642254 448.56 
L 295.064789 448.56 
z
" clip-path="url(#p824c0170a2)" style="fill: #7f7f7f; opacity: 0.5"/>
   </g>
   <g id="patch_112">
    <path d="M 297.03662 448.56 
L 298.614085 448.56 
L 298.614085 448.56 
L 297.03662 448.56 
z
" clip-path="url(#p824c0170a2)" style="fill: #7f7f7f; opacity: 0.5"/>
   </g>
   <g id="patch_113">
    <path d="M 299.008451 448.56 
L 300.585915 448.56 
L 300.585915 422.688 
L 299.008451 422.688 
z
" clip-path="url(#p824c0170a2)" style="fill: #7f7f7f; opacity: 0.5"/>
   </g>
   <g id="patch_114">
    <path d="M 300.980282 448.56 
L 302.557746 448.56 
L 302.557746 422.688 
L 300.980282 422.688 
z
" clip-path="url(#p824c0170a2)" style="fill: #7f7f7f; opacity: 0.5"/>
   </g>
   <g id="patch_115">
    <path d="M 302.952113 448.56 
L 304.529577 448.56 
L 304.529577 448.56 
L 302.952113 448.56 
z
" clip-path="url(#p824c0170a2)" style="fill: #7f7f7f; opacity: 0.5"/>
   </g>
   <g id="patch_116">
    <path d="M 304.923944 448.56 
L 306.501408 448.56 
L 306.501408 448.56 
L 304.923944 448.56 
z
" clip-path="url(#p824c0170a2)" style="fill: #7f7f7f; opacity: 0.5"/>
   </g>
   <g id="patch_117">
    <path d="M 306.895775 448.56 
L 308.473239 448.56 
L 308.473239 448.56 
L 306.895775 448.56 
z
" clip-path="url(#p824c0170a2)" style="fill: #7f7f7f; opacity: 0.5"/>
   </g>
   <g id="patch_118">
    <path d="M 308.867606 448.56 
L 310.44507 448.56 
L 310.44507 422.688 
L 308.867606 422.688 
z
" clip-path="url(#p824c0170a2)" style="fill: #7f7f7f; opacity: 0.5"/>
   </g>
   <g id="patch_119">
    <path d="M 310.839437 448.56 
L 312.416901 448.56 
L 312.416901 448.56 
L 310.839437 448.56 
z
" clip-path="url(#p824c0170a2)" style="fill: #7f7f7f; opacity: 0.5"/>
   </g>
   <g id="patch_120">
    <path d="M 312.811268 448.56 
L 314.388732 448.56 
L 314.388732 448.56 
L 312.811268 448.56 
z
" clip-path="url(#p824c0170a2)" style="fill: #7f7f7f; opacity: 0.5"/>
   </g>
   <g id="patch_121">
    <path d="M 314.783099 448.56 
L 316.360563 448.56 
L 316.360563 448.56 
L 314.783099 448.56 
z
" clip-path="url(#p824c0170a2)" style="fill: #7f7f7f; opacity: 0.5"/>
   </g>
   <g id="patch_122">
    <path d="M 316.75493 448.56 
L 318.332394 448.56 
L 318.332394 448.56 
L 316.75493 448.56 
z
" clip-path="url(#p824c0170a2)" style="fill: #7f7f7f; opacity: 0.5"/>
   </g>
   <g id="patch_123">
    <path d="M 318.726761 448.56 
L 320.304225 448.56 
L 320.304225 448.56 
L 318.726761 448.56 
z
" clip-path="url(#p824c0170a2)" style="fill: #7f7f7f; opacity: 0.5"/>
   </g>
   <g id="patch_124">
    <path d="M 320.698592 448.56 
L 322.276056 448.56 
L 322.276056 448.56 
L 320.698592 448.56 
z
" clip-path="url(#p824c0170a2)" style="fill: #7f7f7f; opacity: 0.5"/>
   </g>
   <g id="patch_125">
    <path d="M 322.670423 448.56 
L 324.247887 448.56 
L 324.247887 448.56 
L 322.670423 448.56 
z
" clip-path="url(#p824c0170a2)" style="fill: #7f7f7f; opacity: 0.5"/>
   </g>
   <g id="patch_126">
    <path d="M 324.642254 448.56 
L 326.219718 448.56 
L 326.219718 448.56 
L 324.642254 448.56 
z
" clip-path="url(#p824c0170a2)" style="fill: #7f7f7f; opacity: 0.5"/>
   </g>
   <g id="patch_127">
    <path d="M 326.614085 448.56 
L 328.191549 448.56 
L 328.191549 448.56 
L 326.614085 448.56 
z
" clip-path="url(#p824c0170a2)" style="fill: #7f7f7f; opacity: 0.5"/>
   </g>
   <g id="patch_128">
    <path d="M 328.585915 448.56 
L 330.16338 448.56 
L 330.16338 422.688 
L 328.585915 422.688 
z
" clip-path="url(#p824c0170a2)" style="fill: #7f7f7f; opacity: 0.5"/>
   </g>
   <g id="patch_129">
    <path d="M 330.557746 448.56 
L 332.135211 448.56 
L 332.135211 448.56 
L 330.557746 448.56 
z
" clip-path="url(#p824c0170a2)" style="fill: #7f7f7f; opacity: 0.5"/>
   </g>
   <g id="patch_130">
    <path d="M 332.529577 448.56 
L 334.107042 448.56 
L 334.107042 448.56 
L 332.529577 448.56 
z
" clip-path="url(#p824c0170a2)" style="fill: #7f7f7f; opacity: 0.5"/>
   </g>
   <g id="patch_131">
    <path d="M 334.501408 448.56 
L 336.078873 448.56 
L 336.078873 448.56 
L 334.501408 448.56 
z
" clip-path="url(#p824c0170a2)" style="fill: #7f7f7f; opacity: 0.5"/>
   </g>
   <g id="patch_132">
    <path d="M 336.473239 448.56 
L 338.050704 448.56 
L 338.050704 448.56 
L 336.473239 448.56 
z
" clip-path="url(#p824c0170a2)" style="fill: #7f7f7f; opacity: 0.5"/>
   </g>
   <g id="patch_133">
    <path d="M 338.44507 448.56 
L 340.022535 448.56 
L 340.022535 448.56 
L 338.44507 448.56 
z
" clip-path="url(#p824c0170a2)" style="fill: #7f7f7f; opacity: 0.5"/>
   </g>
   <g id="patch_134">
    <path d="M 340.416901 448.56 
L 341.994366 448.56 
L 341.994366 448.56 
L 340.416901 448.56 
z
" clip-path="url(#p824c0170a2)" style="fill: #7f7f7f; opacity: 0.5"/>
   </g>
   <g id="patch_135">
    <path d="M 342.388732 448.56 
L 343.966197 448.56 
L 343.966197 422.688 
L 342.388732 422.688 
z
" clip-path="url(#p824c0170a2)" style="fill: #7f7f7f; opacity: 0.5"/>
   </g>
   <g id="patch_136">
    <path d="M 344.360563 448.56 
L 345.938028 448.56 
L 345.938028 448.56 
L 344.360563 448.56 
z
" clip-path="url(#p824c0170a2)" style="fill: #7f7f7f; opacity: 0.5"/>
   </g>
   <g id="patch_137">
    <path d="M 346.332394 448.56 
L 347.909859 448.56 
L 347.909859 448.56 
L 346.332394 448.56 
z
" clip-path="url(#p824c0170a2)" style="fill: #7f7f7f; opacity: 0.5"/>
   </g>
   <g id="patch_138">
    <path d="M 348.304225 448.56 
L 349.88169 448.56 
L 349.88169 448.56 
L 348.304225 448.56 
z
" clip-path="url(#p824c0170a2)" style="fill: #7f7f7f; opacity: 0.5"/>
   </g>
   <g id="patch_139">
    <path d="M 350.276056 448.56 
L 351.853521 448.56 
L 351.853521 448.56 
L 350.276056 448.56 
z
" clip-path="url(#p824c0170a2)" style="fill: #7f7f7f; opacity: 0.5"/>
   </g>
   <g id="patch_140">
    <path d="M 352.247887 448.56 
L 353.825352 448.56 
L 353.825352 448.56 
L 352.247887 448.56 
z
" clip-path="url(#p824c0170a2)" style="fill: #7f7f7f; opacity: 0.5"/>
   </g>
   <g id="patch_141">
    <path d="M 354.219718 448.56 
L 355.797183 448.56 
L 355.797183 448.56 
L 354.219718 448.56 
z
" clip-path="url(#p824c0170a2)" style="fill: #7f7f7f; opacity: 0.5"/>
   </g>
   <g id="patch_142">
    <path d="M 356.191549 448.56 
L 357.769014 448.56 
L 357.769014 448.56 
L 356.191549 448.56 
z
" clip-path="url(#p824c0170a2)" style="fill: #7f7f7f; opacity: 0.5"/>
   </g>
   <g id="patch_143">
    <path d="M 358.16338 448.56 
L 359.740845 448.56 
L 359.740845 448.56 
L 358.16338 448.56 
z
" clip-path="url(#p824c0170a2)" style="fill: #7f7f7f; opacity: 0.5"/>
   </g>
   <g id="patch_144">
    <path d="M 360.135211 448.56 
L 361.712676 448.56 
L 361.712676 448.56 
L 360.135211 448.56 
z
" clip-path="url(#p824c0170a2)" style="fill: #7f7f7f; opacity: 0.5"/>
   </g>
   <g id="patch_145">
    <path d="M 362.107042 448.56 
L 363.684507 448.56 
L 363.684507 448.56 
L 362.107042 448.56 
z
" clip-path="url(#p824c0170a2)" style="fill: #7f7f7f; opacity: 0.5"/>
   </g>
   <g id="patch_146">
    <path d="M 364.078873 448.56 
L 365.656338 448.56 
L 365.656338 448.56 
L 364.078873 448.56 
z
" clip-path="url(#p824c0170a2)" style="fill: #7f7f7f; opacity: 0.5"/>
   </g>
   <g id="patch_147">
    <path d="M 366.050704 448.56 
L 367.628169 448.56 
L 367.628169 448.56 
L 366.050704 448.56 
z
" clip-path="url(#p824c0170a2)" style="fill: #7f7f7f; opacity: 0.5"/>
   </g>
   <g id="patch_148">
    <path d="M 368.022535 448.56 
L 369.6 448.56 
L 369.6 448.56 
L 368.022535 448.56 
z
" clip-path="url(#p824c0170a2)" style="fill: #7f7f7f; opacity: 0.5"/>
   </g>
   <g id="patch_149">
    <path d="M 369.994366 448.56 
L 371.571831 448.56 
L 371.571831 448.56 
L 369.994366 448.56 
z
" clip-path="url(#p824c0170a2)" style="fill: #7f7f7f; opacity: 0.5"/>
   </g>
   <g id="patch_150">
    <path d="M 371.966197 448.56 
L 373.543662 448.56 
L 373.543662 448.56 
L 371.966197 448.56 
z
" clip-path="url(#p824c0170a2)" style="fill: #7f7f7f; opacity: 0.5"/>
   </g>
   <g id="patch_151">
    <path d="M 373.938028 448.56 
L 375.515493 448.56 
L 375.515493 448.56 
L 373.938028 448.56 
z
" clip-path="url(#p824c0170a2)" style="fill: #7f7f7f; opacity: 0.5"/>
   </g>
   <g id="patch_152">
    <path d="M 375.909859 448.56 
L 377.487324 448.56 
L 377.487324 448.56 
L 375.909859 448.56 
z
" clip-path="url(#p824c0170a2)" style="fill: #7f7f7f; opacity: 0.5"/>
   </g>
   <g id="patch_153">
    <path d="M 377.88169 448.56 
L 379.459155 448.56 
L 379.459155 448.56 
L 377.88169 448.56 
z
" clip-path="url(#p824c0170a2)" style="fill: #7f7f7f; opacity: 0.5"/>
   </g>
   <g id="patch_154">
    <path d="M 379.853521 448.56 
L 381.430986 448.56 
L 381.430986 448.56 
L 379.853521 448.56 
z
" clip-path="url(#p824c0170a2)" style="fill: #7f7f7f; opacity: 0.5"/>
   </g>
   <g id="patch_155">
    <path d="M 381.825352 448.56 
L 383.402817 448.56 
L 383.402817 448.56 
L 381.825352 448.56 
z
" clip-path="url(#p824c0170a2)" style="fill: #7f7f7f; opacity: 0.5"/>
   </g>
   <g id="patch_156">
    <path d="M 383.797183 448.56 
L 385.374648 448.56 
L 385.374648 448.56 
L 383.797183 448.56 
z
" clip-path="url(#p824c0170a2)" style="fill: #7f7f7f; opacity: 0.5"/>
   </g>
   <g id="patch_157">
    <path d="M 385.769014 448.56 
L 387.346479 448.56 
L 387.346479 448.56 
L 385.769014 448.56 
z
" clip-path="url(#p824c0170a2)" style="fill: #7f7f7f; opacity: 0.5"/>
   </g>
   <g id="patch_158">
    <path d="M 387.740845 448.56 
L 389.31831 448.56 
L 389.31831 448.56 
L 387.740845 448.56 
z
" clip-path="url(#p824c0170a2)" style="fill: #7f7f7f; opacity: 0.5"/>
   </g>
   <g id="patch_159">
    <path d="M 389.712676 448.56 
L 391.290141 448.56 
L 391.290141 448.56 
L 389.712676 448.56 
z
" clip-path="url(#p824c0170a2)" style="fill: #7f7f7f; opacity: 0.5"/>
   </g>
   <g id="patch_160">
    <path d="M 391.684507 448.56 
L 393.261972 448.56 
L 393.261972 448.56 
L 391.684507 448.56 
z
" clip-path="url(#p824c0170a2)" style="fill: #7f7f7f; opacity: 0.5"/>
   </g>
   <g id="patch_161">
    <path d="M 393.656338 448.56 
L 395.233803 448.56 
L 395.233803 448.56 
L 393.656338 448.56 
z
" clip-path="url(#p824c0170a2)" style="fill: #7f7f7f; opacity: 0.5"/>
   </g>
   <g id="patch_162">
    <path d="M 395.628169 448.56 
L 397.205634 448.56 
L 397.205634 448.56 
L 395.628169 448.56 
z
" clip-path="url(#p824c0170a2)" style="fill: #7f7f7f; opacity: 0.5"/>
   </g>
   <g id="patch_163">
    <path d="M 397.6 448.56 
L 399.177465 448.56 
L 399.177465 448.56 
L 397.6 448.56 
z
" clip-path="url(#p824c0170a2)" style="fill: #7f7f7f; opacity: 0.5"/>
   </g>
   <g id="patch_164">
    <path d="M 399.571831 448.56 
L 401.149296 448.56 
L 401.149296 448.56 
L 399.571831 448.56 
z
" clip-path="url(#p824c0170a2)" style="fill: #7f7f7f; opacity: 0.5"/>
   </g>
   <g id="patch_165">
    <path d="M 401.543662 448.56 
L 403.121127 448.56 
L 403.121127 448.56 
L 401.543662 448.56 
z
" clip-path="url(#p824c0170a2)" style="fill: #7f7f7f; opacity: 0.5"/>
   </g>
   <g id="patch_166">
    <path d="M 403.515493 448.56 
L 405.092958 448.56 
L 405.092958 448.56 
L 403.515493 448.56 
z
" clip-path="url(#p824c0170a2)" style="fill: #7f7f7f; opacity: 0.5"/>
   </g>
   <g id="patch_167">
    <path d="M 405.487324 448.56 
L 407.064789 448.56 
L 407.064789 448.56 
L 405.487324 448.56 
z
" clip-path="url(#p824c0170a2)" style="fill: #7f7f7f; opacity: 0.5"/>
   </g>
   <g id="patch_168">
    <path d="M 407.459155 448.56 
L 409.03662 448.56 
L 409.03662 448.56 
L 407.459155 448.56 
z
" clip-path="url(#p824c0170a2)" style="fill: #7f7f7f; opacity: 0.5"/>
   </g>
   <g id="patch_169">
    <path d="M 409.430986 448.56 
L 411.008451 448.56 
L 411.008451 448.56 
L 409.430986 448.56 
z
" clip-path="url(#p824c0170a2)" style="fill: #7f7f7f; opacity: 0.5"/>
   </g>
   <g id="patch_170">
    <path d="M 411.402817 448.56 
L 412.980282 448.56 
L 412.980282 448.56 
L 411.402817 448.56 
z
" clip-path="url(#p824c0170a2)" style="fill: #7f7f7f; opacity: 0.5"/>
   </g>
   <g id="patch_171">
    <path d="M 413.374648 448.56 
L 414.952113 448.56 
L 414.952113 448.56 
L 413.374648 448.56 
z
" clip-path="url(#p824c0170a2)" style="fill: #7f7f7f; opacity: 0.5"/>
   </g>
   <g id="patch_172">
    <path d="M 415.346479 448.56 
L 416.923944 448.56 
L 416.923944 448.56 
L 415.346479 448.56 
z
" clip-path="url(#p824c0170a2)" style="fill: #7f7f7f; opacity: 0.5"/>
   </g>
   <g id="patch_173">
    <path d="M 417.31831 448.56 
L 418.895775 448.56 
L 418.895775 448.56 
L 417.31831 448.56 
z
" clip-path="url(#p824c0170a2)" style="fill: #7f7f7f; opacity: 0.5"/>
   </g>
   <g id="patch_174">
    <path d="M 419.290141 448.56 
L 420.867606 448.56 
L 420.867606 448.56 
L 419.290141 448.56 
z
" clip-path="url(#p824c0170a2)" style="fill: #7f7f7f; opacity: 0.5"/>
   </g>
   <g id="patch_175">
    <path d="M 421.261972 448.56 
L 422.839437 448.56 
L 422.839437 448.56 
L 421.261972 448.56 
z
" clip-path="url(#p824c0170a2)" style="fill: #7f7f7f; opacity: 0.5"/>
   </g>
   <g id="patch_176">
    <path d="M 423.233803 448.56 
L 424.811268 448.56 
L 424.811268 448.56 
L 423.233803 448.56 
z
" clip-path="url(#p824c0170a2)" style="fill: #7f7f7f; opacity: 0.5"/>
   </g>
   <g id="patch_177">
    <path d="M 425.205634 448.56 
L 426.783099 448.56 
L 426.783099 448.56 
L 425.205634 448.56 
z
" clip-path="url(#p824c0170a2)" style="fill: #7f7f7f; opacity: 0.5"/>
   </g>
   <g id="patch_178">
    <path d="M 427.177465 448.56 
L 428.75493 448.56 
L 428.75493 448.56 
L 427.177465 448.56 
z
" clip-path="url(#p824c0170a2)" style="fill: #7f7f7f; opacity: 0.5"/>
   </g>
   <g id="patch_179">
    <path d="M 429.149296 448.56 
L 430.726761 448.56 
L 430.726761 448.56 
L 429.149296 448.56 
z
" clip-path="url(#p824c0170a2)" style="fill: #7f7f7f; opacity: 0.5"/>
   </g>
   <g id="patch_180">
    <path d="M 431.121127 448.56 
L 432.698592 448.56 
L 432.698592 448.56 
L 431.121127 448.56 
z
" clip-path="url(#p824c0170a2)" style="fill: #7f7f7f; opacity: 0.5"/>
   </g>
   <g id="patch_181">
    <path d="M 433.092958 448.56 
L 434.670423 448.56 
L 434.670423 448.56 
L 433.092958 448.56 
z
" clip-path="url(#p824c0170a2)" style="fill: #7f7f7f; opacity: 0.5"/>
   </g>
   <g id="patch_182">
    <path d="M 435.064789 448.56 
L 436.642254 448.56 
L 436.642254 448.56 
L 435.064789 448.56 
z
" clip-path="url(#p824c0170a2)" style="fill: #7f7f7f; opacity: 0.5"/>
   </g>
   <g id="patch_183">
    <path d="M 437.03662 448.56 
L 438.614085 448.56 
L 438.614085 448.56 
L 437.03662 448.56 
z
" clip-path="url(#p824c0170a2)" style="fill: #7f7f7f; opacity: 0.5"/>
   </g>
   <g id="patch_184">
    <path d="M 439.008451 448.56 
L 440.585915 448.56 
L 440.585915 448.56 
L 439.008451 448.56 
z
" clip-path="url(#p824c0170a2)" style="fill: #7f7f7f; opacity: 0.5"/>
   </g>
   <g id="patch_185">
    <path d="M 440.980282 448.56 
L 442.557746 448.56 
L 442.557746 448.56 
L 440.980282 448.56 
z
" clip-path="url(#p824c0170a2)" style="fill: #7f7f7f; opacity: 0.5"/>
   </g>
   <g id="patch_186">
    <path d="M 442.952113 448.56 
L 444.529577 448.56 
L 444.529577 448.56 
L 442.952113 448.56 
z
" clip-path="url(#p824c0170a2)" style="fill: #7f7f7f; opacity: 0.5"/>
   </g>
   <g id="patch_187">
    <path d="M 444.923944 448.56 
L 446.501408 448.56 
L 446.501408 448.56 
L 444.923944 448.56 
z
" clip-path="url(#p824c0170a2)" style="fill: #7f7f7f; opacity: 0.5"/>
   </g>
   <g id="patch_188">
    <path d="M 446.895775 448.56 
L 448.473239 448.56 
L 448.473239 448.56 
L 446.895775 448.56 
z
" clip-path="url(#p824c0170a2)" style="fill: #7f7f7f; opacity: 0.5"/>
   </g>
   <g id="patch_189">
    <path d="M 448.867606 448.56 
L 450.44507 448.56 
L 450.44507 448.56 
L 448.867606 448.56 
z
" clip-path="url(#p824c0170a2)" style="fill: #7f7f7f; opacity: 0.5"/>
   </g>
   <g id="patch_190">
    <path d="M 450.839437 448.56 
L 452.416901 448.56 
L 452.416901 448.56 
L 450.839437 448.56 
z
" clip-path="url(#p824c0170a2)" style="fill: #7f7f7f; opacity: 0.5"/>
   </g>
   <g id="patch_191">
    <path d="M 452.811268 448.56 
L 454.388732 448.56 
L 454.388732 448.56 
L 452.811268 448.56 
z
" clip-path="url(#p824c0170a2)" style="fill: #7f7f7f; opacity: 0.5"/>
   </g>
   <g id="patch_192">
    <path d="M 454.783099 448.56 
L 456.360563 448.56 
L 456.360563 448.56 
L 454.783099 448.56 
z
" clip-path="url(#p824c0170a2)" style="fill: #7f7f7f; opacity: 0.5"/>
   </g>
   <g id="patch_193">
    <path d="M 456.75493 448.56 
L 458.332394 448.56 
L 458.332394 448.56 
L 456.75493 448.56 
z
" clip-path="url(#p824c0170a2)" style="fill: #7f7f7f; opacity: 0.5"/>
   </g>
   <g id="patch_194">
    <path d="M 458.726761 448.56 
L 460.304225 448.56 
L 460.304225 448.56 
L 458.726761 448.56 
z
" clip-path="url(#p824c0170a2)" style="fill: #7f7f7f; opacity: 0.5"/>
   </g>
   <g id="patch_195">
    <path d="M 460.698592 448.56 
L 462.276056 448.56 
L 462.276056 448.56 
L 460.698592 448.56 
z
" clip-path="url(#p824c0170a2)" style="fill: #7f7f7f; opacity: 0.5"/>
   </g>
   <g id="patch_196">
    <path d="M 462.670423 448.56 
L 464.247887 448.56 
L 464.247887 448.56 
L 462.670423 448.56 
z
" clip-path="url(#p824c0170a2)" style="fill: #7f7f7f; opacity: 0.5"/>
   </g>
   <g id="patch_197">
    <path d="M 453.6 448.56 
L 453.6 60.48 
" style="fill: none; stroke: #7f7f7f; stroke-width: 0.8; stroke-linejoin: miter; stroke-linecap: square"/>
   </g>
  </g>
  <g id="axes_2">
   <g id="FillBetweenPolyCollection_1">
    <defs>
     <path id="mc1a50f5fad" d="M 82.895775 -362.937922 
L 82.895775 -288.629921 
L 84.867606 -299.055746 
L 86.839437 -310.589967 
L 88.811268 -324.135226 
L 90.783099 -333.326631 
L 92.75493 -341.635082 
L 94.726761 -350.905726 
L 96.698592 -357.711255 
L 98.670423 -363.234949 
L 100.642254 -370.337996 
L 102.614085 -376.901175 
L 104.585915 -383.908646 
L 106.557746 -387.352889 
L 108.529577 -391.464484 
L 110.501408 -392.395535 
L 112.473239 -395.908585 
L 114.44507 -398.685038 
L 116.416901 -398.81186 
L 118.388732 -401.102977 
L 120.360563 -403.677339 
L 122.332394 -403.116608 
L 124.304225 -402.247661 
L 126.276056 -401.270429 
L 128.247887 -402.605567 
L 130.219718 -399.268811 
L 132.191549 -399.977476 
L 134.16338 -398.931502 
L 136.135211 -397.819066 
L 138.107042 -396.216443 
L 140.078873 -394.492741 
L 142.050704 -392.216003 
L 144.022535 -390.278397 
L 145.994366 -390.423527 
L 147.966197 -388.426929 
L 149.938028 -386.358338 
L 151.909859 -383.983965 
L 153.88169 -382.830554 
L 155.853521 -380.656632 
L 157.825352 -381.992565 
L 159.797183 -378.743543 
L 161.769014 -378.775142 
L 163.740845 -380.303599 
L 165.712676 -379.833699 
L 167.684507 -376.596002 
L 169.656338 -377.349248 
L 171.628169 -379.31312 
L 173.6 -379.251646 
L 175.571831 -379.66789 
L 177.543662 -382.584962 
L 179.515493 -383.052888 
L 181.487324 -382.889411 
L 183.459155 -384.899073 
L 185.430986 -386.211597 
L 187.402817 -388.096493 
L 189.374648 -389.920514 
L 191.346479 -391.871425 
L 193.31831 -393.195638 
L 195.290141 -396.155258 
L 197.261972 -396.156668 
L 199.233803 -398.044603 
L 201.205634 -399.737141 
L 203.177465 -401.881148 
L 205.149296 -400.925625 
L 207.121127 -402.826107 
L 209.092958 -403.157879 
L 211.064789 -402.017799 
L 213.03662 -402.652713 
L 215.008451 -403.217592 
L 216.980282 -400.288004 
L 218.952113 -399.898083 
L 220.923944 -399.162278 
L 222.895775 -397.078917 
L 224.867606 -391.68497 
L 226.839437 -389.420813 
L 228.811268 -382.170681 
L 230.783099 -378.767365 
L 232.75493 -370.079924 
L 234.726761 -363.356084 
L 236.698592 -356.575057 
L 238.670423 -348.763338 
L 240.642254 -338.148629 
L 242.614085 -326.662621 
L 244.585915 -316.391906 
L 246.557746 -305.668024 
L 248.529577 -297.332419 
L 250.501408 -283.795617 
L 252.473239 -271.522285 
L 254.44507 -258.307015 
L 256.416901 -244.990109 
L 258.388732 -233.593147 
L 260.360563 -220.483917 
L 262.332394 -205.323686 
L 264.304225 -190.900944 
L 266.276056 -178.74225 
L 268.247887 -165.396496 
L 270.219718 -156.821025 
L 272.191549 -144.073048 
L 274.16338 -134.133334 
L 276.135211 -125.161696 
L 278.107042 -111.76116 
L 280.078873 -101.757652 
L 282.050704 -94.229029 
L 284.022535 -91.436578 
L 285.994366 -84.258588 
L 287.966197 -75.372012 
L 289.938028 -73.176313 
L 291.909859 -65.753954 
L 293.88169 -65.647178 
L 295.853521 -60.179898 
L 297.825352 -55.454842 
L 299.797183 -55.440004 
L 301.769014 -59.122599 
L 303.740845 -60.783885 
L 305.712676 -56.920123 
L 307.684507 -55.440343 
L 309.656338 -55.440004 
L 311.628169 -59.945701 
L 313.6 -56.600044 
L 315.571831 -55.449832 
L 317.543662 -55.440007 
L 319.515493 -55.440004 
L 321.487324 -55.440004 
L 323.459155 -55.440004 
L 325.430986 -55.440004 
L 327.402817 -55.440004 
L 329.374648 -55.440004 
L 331.346479 -58.737888 
L 333.31831 -56.285554 
L 335.290141 -55.488251 
L 337.261972 -55.440936 
L 339.233803 -55.440005 
L 341.205634 -55.440005 
L 343.177465 -55.440004 
L 345.149296 -61.554764 
L 347.121127 -59.136531 
L 349.092958 -57.418581 
L 351.064789 -55.664817 
L 353.03662 -55.445831 
L 355.008451 -55.440023 
L 356.980282 -55.440006 
L 358.952113 -55.440004 
L 360.923944 -55.440004 
L 362.895775 -55.440004 
L 364.867606 -55.440004 
L 366.839437 -55.440004 
L 368.811268 -55.440004 
L 370.783099 -55.440004 
L 372.75493 -55.440004 
L 374.726761 -55.440004 
L 376.698592 -55.440004 
L 378.670423 -55.440004 
L 380.642254 -55.440004 
L 382.614085 -55.440004 
L 384.585915 -55.440004 
L 386.557746 -55.440004 
L 388.529577 -55.440004 
L 390.501408 -55.440004 
L 392.473239 -55.440004 
L 394.44507 -55.440004 
L 396.416901 -55.440004 
L 398.388732 -55.440004 
L 400.360563 -55.440004 
L 402.332394 -55.440004 
L 404.304225 -55.440004 
L 406.276056 -55.440004 
L 408.247887 -55.440004 
L 410.219718 -55.440004 
L 412.191549 -55.440004 
L 414.16338 -55.440004 
L 416.135211 -55.440004 
L 418.107042 -55.440004 
L 420.078873 -55.440004 
L 422.050704 -55.440004 
L 424.022535 -55.440004 
L 425.994366 -55.440004 
L 427.966197 -55.440004 
L 429.938028 -55.440004 
L 431.909859 -55.440004 
L 433.88169 -55.440004 
L 435.853521 -55.440004 
L 437.825352 -55.440004 
L 439.797183 -55.440004 
L 441.769014 -55.440004 
L 443.740845 -55.440004 
L 445.712676 -55.440004 
L 447.684507 -55.440004 
L 449.656338 -55.440004 
L 451.628169 -55.440004 
L 453.6 -55.440004 
L 455.571831 -55.440004 
L 457.543662 -55.440004 
L 459.515493 -55.440004 
L 461.487324 -55.440004 
L 463.459155 -55.440004 
L 463.459155 -99.110767 
L 463.459155 -99.110767 
L 461.487324 -98.989538 
L 459.515493 -98.25259 
L 457.543662 -99.105293 
L 455.571831 -97.379049 
L 453.6 -98.483633 
L 451.628169 -98.424648 
L 449.656338 -99.530683 
L 447.684507 -98.483895 
L 445.712676 -99.27677 
L 443.740845 -97.943992 
L 441.769014 -100.490195 
L 439.797183 -98.960356 
L 437.825352 -100.257348 
L 435.853521 -99.767581 
L 433.88169 -99.625871 
L 431.909859 -101.452104 
L 429.938028 -101.392628 
L 427.966197 -101.038617 
L 425.994366 -99.930052 
L 424.022535 -100.028259 
L 422.050704 -99.6196 
L 420.078873 -101.598996 
L 418.107042 -100.879685 
L 416.135211 -102.731652 
L 414.16338 -100.840251 
L 412.191549 -102.184701 
L 410.219718 -102.38352 
L 408.247887 -102.292801 
L 406.276056 -102.232595 
L 404.304225 -103.431091 
L 402.332394 -102.692273 
L 400.360563 -103.512105 
L 398.388732 -102.292436 
L 396.416901 -104.066544 
L 394.44507 -103.865589 
L 392.473239 -106.339361 
L 390.501408 -104.259309 
L 388.529577 -104.007966 
L 386.557746 -104.437875 
L 384.585915 -104.059862 
L 382.614085 -104.323576 
L 380.642254 -104.472869 
L 378.670423 -106.241579 
L 376.698592 -103.71089 
L 374.726761 -105.106919 
L 372.75493 -107.29176 
L 370.783099 -106.882957 
L 368.811268 -106.794369 
L 366.839437 -108.613029 
L 364.867606 -108.398954 
L 362.895775 -109.090648 
L 360.923944 -110.406638 
L 358.952113 -109.70278 
L 356.980282 -109.008701 
L 355.008451 -111.437292 
L 353.03662 -112.172473 
L 351.064789 -109.55025 
L 349.092958 -111.463012 
L 347.121127 -110.693795 
L 345.149296 -111.531254 
L 343.177465 -106.287655 
L 341.205634 -106.553482 
L 339.233803 -106.868135 
L 337.261972 -107.934555 
L 335.290141 -107.757974 
L 333.31831 -108.262158 
L 331.346479 -109.00052 
L 329.374648 -101.274369 
L 327.402817 -101.788197 
L 325.430986 -102.953496 
L 323.459155 -104.656724 
L 321.487324 -105.383942 
L 319.515493 -106.342438 
L 317.543662 -107.449807 
L 315.571831 -107.408125 
L 313.6 -110.120129 
L 311.628169 -112.377655 
L 309.656338 -107.685174 
L 307.684507 -111.346735 
L 305.712676 -114.91748 
L 303.740845 -117.626529 
L 301.769014 -116.830654 
L 299.797183 -115.384663 
L 297.825352 -119.568225 
L 295.853521 -125.606209 
L 293.88169 -131.521762 
L 291.909859 -132.915892 
L 289.938028 -140.954736 
L 287.966197 -145.166606 
L 285.994366 -155.435487 
L 284.022535 -160.249091 
L 282.050704 -167.535024 
L 280.078873 -175.430699 
L 278.107042 -188.098982 
L 276.135211 -198.57178 
L 274.16338 -208.200426 
L 272.191549 -217.376693 
L 270.219718 -229.397796 
L 268.247887 -240.729478 
L 266.276056 -252.363695 
L 264.304225 -266.657133 
L 262.332394 -280.605017 
L 260.360563 -292.574556 
L 258.388732 -307.475382 
L 256.416901 -322.458057 
L 254.44507 -333.4589 
L 252.473239 -345.498095 
L 250.501408 -360.164861 
L 248.529577 -369.975597 
L 246.557746 -380.667964 
L 244.585915 -390.636727 
L 242.614085 -401.738301 
L 240.642254 -411.106048 
L 238.670423 -421.01724 
L 236.698592 -430.255301 
L 234.726761 -439.67574 
L 232.75493 -439.677594 
L 230.783099 -439.677624 
L 228.811268 -439.677624 
L 226.839437 -439.677624 
L 224.867606 -439.677624 
L 222.895775 -439.677624 
L 220.923944 -439.677624 
L 218.952113 -439.677624 
L 216.980282 -439.677624 
L 215.008451 -439.677624 
L 213.03662 -439.677624 
L 211.064789 -439.677624 
L 209.092958 -439.677624 
L 207.121127 -439.677624 
L 205.149296 -439.677624 
L 203.177465 -439.677624 
L 201.205634 -439.677624 
L 199.233803 -439.677624 
L 197.261972 -439.677624 
L 195.290141 -439.677624 
L 193.31831 -439.677624 
L 191.346479 -439.677624 
L 189.374648 -439.677624 
L 187.402817 -439.677624 
L 185.430986 -439.677624 
L 183.459155 -439.677624 
L 181.487324 -439.677624 
L 179.515493 -439.677624 
L 177.543662 -439.677624 
L 175.571831 -439.677624 
L 173.6 -439.677624 
L 171.628169 -439.677624 
L 169.656338 -439.677624 
L 167.684507 -439.677624 
L 165.712676 -439.677624 
L 163.740845 -439.677624 
L 161.769014 -439.677624 
L 159.797183 -439.677624 
L 157.825352 -439.677624 
L 155.853521 -439.677624 
L 153.88169 -439.677624 
L 151.909859 -439.677624 
L 149.938028 -439.677624 
L 147.966197 -439.677624 
L 145.994366 -439.677624 
L 144.022535 -439.677624 
L 142.050704 -439.677624 
L 140.078873 -439.677624 
L 138.107042 -439.677624 
L 136.135211 -439.677624 
L 134.16338 -439.677624 
L 132.191549 -439.677624 
L 130.219718 -439.677624 
L 128.247887 -439.677624 
L 126.276056 -439.677624 
L 124.304225 -439.677624 
L 122.332394 -439.677624 
L 120.360563 -439.677624 
L 118.388732 -439.677624 
L 116.416901 -439.677624 
L 114.44507 -439.677624 
L 112.473239 -439.677624 
L 110.501408 -439.677624 
L 108.529577 -439.677624 
L 106.557746 -439.677624 
L 104.585915 -439.677624 
L 102.614085 -439.677624 
L 100.642254 -439.677615 
L 98.670423 -438.721284 
L 96.698592 -432.673195 
L 94.726761 -425.734862 
L 92.75493 -415.496094 
L 90.783099 -409.252932 
L 88.811268 -399.867923 
L 86.839437 -387.107154 
L 84.867606 -374.536852 
L 82.895775 -362.937922 
z
" style="stroke: #1f77b4; stroke-opacity: 0.3"/>
    </defs>
    <g clip-path="url(#p824c0170a2)">
     <use xlink:href="#mc1a50f5fad" x="0" y="504" style="fill: #1f77b4; fill-opacity: 0.3; stroke: #1f77b4; stroke-opacity: 0.3"/>
    </g>
   </g>
   <g id="matplotlib.axis_2">
    <g id="xtick_1">
     <g id="line2d_9">
      <defs>
       <path id="m355b6b0309" d="M 0 0 
L 0 3.5 
" style="stroke: #000000; stroke-width: 0.8"/>
      </defs>
      <g>
       <use xlink:href="#m355b6b0309" x="92.75493" y="448.56" style="stroke: #000000; stroke-width: 0.8"/>
      </g>
     </g>
     <g id="text_10">
      <text style="font-size: 16px; font-family: 'Arial', sans-serif; text-anchor: middle" x="92.75493" y="467.208438" transform="rotate(-0 92.75493 467.208438)">1 Jul</text>
     </g>
    </g>
    <g id="xtick_2">
     <g id="line2d_10">
      <g>
       <use xlink:href="#m355b6b0309" x="153.88169" y="448.56" style="stroke: #000000; stroke-width: 0.8"/>
      </g>
     </g>
     <g id="text_11">
      <text style="font-size: 16px; font-family: 'Arial', sans-serif; text-anchor: middle" x="153.88169" y="467.208438" transform="rotate(-0 153.88169 467.208438)">1 Aug</text>
     </g>
    </g>
    <g id="xtick_3">
     <g id="line2d_11">
      <g>
       <use xlink:href="#m355b6b0309" x="215.008451" y="448.56" style="stroke: #000000; stroke-width: 0.8"/>
      </g>
     </g>
     <g id="text_12">
      <text style="font-size: 16px; font-family: 'Arial', sans-serif; text-anchor: middle" x="215.008451" y="467.208438" transform="rotate(-0 215.008451 467.208438)">1 Sep</text>
     </g>
    </g>
    <g id="xtick_4">
     <g id="line2d_12">
      <g>
       <use xlink:href="#m355b6b0309" x="274.16338" y="448.56" style="stroke: #000000; stroke-width: 0.8"/>
      </g>
     </g>
     <g id="text_13">
      <text style="font-size: 16px; font-family: 'Arial', sans-serif; text-anchor: middle" x="274.16338" y="467.2175" transform="rotate(-0 274.16338 467.2175)">1 Oct</text>
     </g>
    </g>
    <g id="xtick_5">
     <g id="line2d_13">
      <g>
       <use xlink:href="#m355b6b0309" x="335.290141" y="448.56" style="stroke: #000000; stroke-width: 0.8"/>
      </g>
     </g>
     <g id="text_14">
      <text style="font-size: 16px; font-family: 'Arial', sans-serif; text-anchor: middle" x="335.290141" y="467.208438" transform="rotate(-0 335.290141 467.208438)">1 Nov</text>
     </g>
    </g>
    <g id="xtick_6">
     <g id="line2d_14">
      <g>
       <use xlink:href="#m355b6b0309" x="394.44507" y="448.56" style="stroke: #000000; stroke-width: 0.8"/>
      </g>
     </g>
     <g id="text_15">
      <text style="font-size: 16px; font-family: 'Arial', sans-serif; text-anchor: middle" x="394.44507" y="467.208438" transform="rotate(-0 394.44507 467.208438)">1 Dec</text>
     </g>
    </g>
    <g id="text_16">
     <text style="font-size: 16px; font-family: 'Arial', sans-serif; text-anchor: middle" x="258.3" y="486.233125" transform="rotate(-0 258.3 486.233125)">Date (2017)</text>
    </g>
   </g>
   <g id="matplotlib.axis_3">
    <g id="ytick_9">
     <g id="line2d_15">
      <defs>
       <path id="m60174cd280" d="M 0 0 
L -3.5 0 
" style="stroke: #000000; stroke-width: 0.8"/>
      </defs>
      <g>
       <use xlink:href="#m60174cd280" x="63" y="448.56" style="stroke: #000000; stroke-width: 0.8"/>
      </g>
     </g>
     <g id="text_17">
      <text style="font-size: 16px; font-family: 'Arial', sans-serif; text-anchor: end" x="56" y="454.384219" transform="rotate(-0 56 454.384219)">0.0</text>
     </g>
    </g>
    <g id="ytick_10">
     <g id="line2d_16">
      <g>
       <use xlink:href="#m60174cd280" x="63" y="371.712475" style="stroke: #000000; stroke-width: 0.8"/>
      </g>
     </g>
     <g id="text_18">
      <text style="font-size: 16px; font-family: 'Arial', sans-serif; text-anchor: end" x="56" y="377.536694" transform="rotate(-0 56 377.536694)">0.2</text>
     </g>
    </g>
    <g id="ytick_11">
     <g id="line2d_17">
      <g>
       <use xlink:href="#m60174cd280" x="63" y="294.86495" style="stroke: #000000; stroke-width: 0.8"/>
      </g>
     </g>
     <g id="text_19">
      <text style="font-size: 16px; font-family: 'Arial', sans-serif; text-anchor: end" x="56" y="300.689169" transform="rotate(-0 56 300.689169)">0.4</text>
     </g>
    </g>
    <g id="ytick_12">
     <g id="line2d_18">
      <g>
       <use xlink:href="#m60174cd280" x="63" y="218.017426" style="stroke: #000000; stroke-width: 0.8"/>
      </g>
     </g>
     <g id="text_20">
      <text style="font-size: 16px; font-family: 'Arial', sans-serif; text-anchor: end" x="56" y="223.841644" transform="rotate(-0 56 223.841644)">0.6</text>
     </g>
    </g>
    <g id="ytick_13">
     <g id="line2d_19">
      <g>
       <use xlink:href="#m60174cd280" x="63" y="141.169901" style="stroke: #000000; stroke-width: 0.8"/>
      </g>
     </g>
     <g id="text_21">
      <text style="font-size: 16px; font-family: 'Arial', sans-serif; text-anchor: end" x="56" y="146.99412" transform="rotate(-0 56 146.99412)">0.8</text>
     </g>
    </g>
    <g id="ytick_14">
     <g id="line2d_20">
      <g>
       <use xlink:href="#m60174cd280" x="63" y="64.322376" style="stroke: #000000; stroke-width: 0.8"/>
      </g>
     </g>
     <g id="text_22">
      <text style="font-size: 16px; font-family: 'Arial', sans-serif; text-anchor: end" x="56" y="70.146595" transform="rotate(-0 56 70.146595)">1.0</text>
     </g>
    </g>
    <g id="text_23">
     <text style="font-size: 16px; font-family: 'Arial', sans-serif; text-anchor: middle" x="26.3925" y="254.52" transform="rotate(-90 26.3925 254.52)">Temperature suitability for transmission</text>
    </g>
   </g>
   <g id="line2d_21">
    <path d="M 82.895775 178.172229 
L 84.867606 167.287484 
L 88.811268 141.662636 
L 90.783099 132.696552 
L 94.726761 116.067783 
L 98.670423 102.481851 
L 102.614085 90.782079 
L 104.585915 85.974165 
L 106.557746 82.302217 
L 108.529577 78.973157 
L 110.501408 76.956463 
L 112.473239 75.464617 
L 114.44507 73.663749 
L 116.416901 72.86129 
L 118.388732 72.348965 
L 120.360563 71.608543 
L 122.332394 71.853294 
L 124.304225 71.513047 
L 128.247887 71.883507 
L 130.219718 72.755002 
L 132.191549 72.850762 
L 134.16338 74.106596 
L 136.135211 74.389846 
L 138.107042 75.588305 
L 140.078873 76.371738 
L 142.050704 77.942613 
L 144.022535 79.236812 
L 145.994366 79.888371 
L 151.909859 83.977923 
L 153.88169 84.90548 
L 155.853521 86.445773 
L 157.825352 86.553434 
L 159.797183 87.142927 
L 161.769014 87.99783 
L 165.712676 88.585421 
L 167.684507 89.196011 
L 169.656338 88.924844 
L 171.628169 88.219348 
L 173.6 88.39503 
L 175.571831 87.780355 
L 177.543662 86.303566 
L 179.515493 85.329639 
L 181.487324 84.94805 
L 185.430986 82.163185 
L 187.402817 81.31924 
L 189.374648 79.877385 
L 193.31831 77.609698 
L 195.290141 76.155522 
L 199.233803 74.322486 
L 203.177465 72.573304 
L 205.149296 72.068272 
L 209.092958 71.493547 
L 211.064789 71.592098 
L 215.008451 71.579103 
L 216.980282 72.589792 
L 218.952113 72.964719 
L 220.923944 74.107091 
L 222.895775 75.591696 
L 224.867606 77.921494 
L 226.839437 80.691408 
L 228.811268 84.609675 
L 230.783099 89.450948 
L 232.75493 96.750806 
L 234.726761 102.062065 
L 236.698592 109.649806 
L 238.670423 118.983013 
L 248.529577 170.279117 
L 256.416901 220.076125 
L 262.332394 261.236446 
L 264.304225 275.200915 
L 266.276056 288.310301 
L 268.247887 300.216681 
L 270.219718 311.260146 
L 272.191549 322.956899 
L 274.16338 333.17624 
L 276.135211 342.726218 
L 278.107042 354.646188 
L 280.078873 365.190068 
L 282.050704 373.550483 
L 284.022535 378.33075 
L 285.994366 384.943059 
L 287.966197 393.595299 
L 289.938028 397.702561 
L 291.909859 405.373679 
L 293.88169 406.687682 
L 297.825352 418.29671 
L 299.797183 422.912259 
L 301.769014 418.604819 
L 303.740845 417.331771 
L 305.712676 420.267285 
L 309.656338 426.53089 
L 311.628169 420.993875 
L 313.6 423.07736 
L 315.571831 425.32368 
L 319.515493 428.262883 
L 321.487324 429.36929 
L 325.430986 431.092722 
L 327.402817 432.236656 
L 329.374648 432.695181 
L 331.346479 423.064183 
L 333.31831 424.07768 
L 335.290141 425.34922 
L 337.261972 425.607809 
L 339.233803 426.51225 
L 343.177465 427.434401 
L 345.149296 420.206684 
L 349.092958 421.503283 
L 351.064789 422.517337 
L 353.03662 423.303055 
L 355.008451 423.793357 
L 358.952113 425.298192 
L 360.923944 425.62991 
L 362.895775 426.353466 
L 364.867606 427.383049 
L 366.839437 427.598206 
L 368.811268 428.372144 
L 374.726761 429.583411 
L 376.698592 430.462605 
L 378.670423 430.340478 
L 380.642254 430.699013 
L 382.614085 431.189188 
L 386.557746 431.831569 
L 388.529577 432.118045 
L 390.501408 432.095005 
L 394.44507 432.878953 
L 396.416901 433.080999 
L 398.388732 433.411479 
L 400.360563 433.526047 
L 406.276056 434.194353 
L 408.247887 434.319101 
L 410.219718 434.565893 
L 416.135211 434.823267 
L 418.107042 435.422991 
L 420.078873 435.17113 
L 422.050704 435.605399 
L 424.022535 435.399758 
L 427.966197 436.135002 
L 429.938028 435.98 
L 431.909859 436.113105 
L 433.88169 436.373483 
L 435.853521 436.458172 
L 437.825352 436.759869 
L 439.797183 436.708411 
L 441.769014 436.786371 
L 443.740845 437.269449 
L 445.712676 437.078963 
L 447.684507 437.22223 
L 449.656338 437.00432 
L 451.628169 437.064848 
L 453.6 437.686252 
L 459.515493 437.796747 
L 461.487324 437.539224 
L 463.459155 437.549128 
L 463.459155 437.549128 
" clip-path="url(#p824c0170a2)" style="fill: none; stroke: #1f77b4; stroke-width: 2; stroke-linecap: square"/>
   </g>
   <g id="line2d_22">
    <path d="M 82.895775 178.128047 
L 86.839437 156.957833 
L 88.811268 146.874615 
L 92.75493 128.708912 
L 94.726761 120.134184 
L 96.698592 112.116209 
L 98.670423 104.844046 
L 100.642254 98.233736 
L 102.614085 92.054952 
L 104.585915 86.568188 
L 106.557746 81.763052 
L 108.529577 77.458681 
L 110.501408 73.821014 
L 112.473239 70.839101 
L 114.44507 68.51512 
L 116.416901 66.885523 
L 118.388732 65.66449 
L 120.360563 64.636645 
L 122.332394 64.419061 
L 124.304225 64.344955 
L 126.276056 64.641377 
L 128.247887 65.20864 
L 130.219718 65.977203 
L 134.16338 68.709289 
L 140.078873 73.312065 
L 145.994366 78.757817 
L 151.909859 82.94073 
L 153.88169 84.319466 
L 155.853521 85.518622 
L 157.825352 86.5371 
L 159.797183 87.429957 
L 161.769014 88.150739 
L 163.740845 88.669461 
L 165.712676 88.985342 
L 167.684507 89.097711 
L 169.656338 89.006007 
L 171.628169 88.709781 
L 173.6 88.208696 
L 175.571831 87.502529 
L 177.543662 86.612582 
L 179.515493 85.599163 
L 181.487324 84.399615 
L 189.374648 78.762676 
L 191.346479 77.041617 
L 195.290141 73.223522 
L 201.205634 68.496415 
L 203.177465 67.05172 
L 205.149296 65.828434 
L 207.121127 65.0267 
L 209.092958 64.510862 
L 211.064789 64.364242 
L 213.03662 64.492091 
L 215.008451 64.921346 
L 218.952113 67.465313 
L 220.923944 69.553755 
L 222.895775 72.39208 
L 224.867606 75.890108 
L 226.839437 80.22614 
L 228.811268 85.075853 
L 230.783099 90.701992 
L 232.75493 97.097462 
L 234.726761 104.079818 
L 236.698592 111.708319 
L 238.670423 120.215428 
L 242.614085 138.853355 
L 244.585915 148.937596 
L 248.529577 171.114639 
L 252.473239 195.418147 
L 258.388732 233.262769 
L 264.304225 272.344074 
L 270.219718 309.249448 
L 274.16338 332.298761 
L 278.107042 353.240184 
L 282.050704 371.772277 
L 284.022535 380.216374 
L 285.994366 388.087184 
L 287.966197 395.353197 
L 289.938028 402.019824 
L 291.909859 408.111639 
L 293.88169 413.572529 
L 295.853521 418.469276 
L 297.825352 422.824363 
L 299.797183 426.755661 
L 301.769014 430.17772 
L 303.740845 433.130832 
L 305.712676 435.740096 
L 307.684507 438.017693 
L 309.656338 439.935044 
L 311.628169 441.561864 
L 313.6 442.957198 
L 315.571831 444.122461 
L 317.543662 445.080207 
L 319.515493 445.847326 
L 321.487324 446.482437 
L 325.430986 447.38425 
L 329.374648 447.928527 
L 333.31831 448.244779 
L 339.233803 448.466771 
L 349.092958 448.554457 
L 424.022535 448.56 
L 463.459155 448.56 
L 463.459155 448.56 
" clip-path="url(#p824c0170a2)" style="fill: none; stroke-dasharray: 7.4,3.2; stroke-dashoffset: 0; stroke: #000000; stroke-width: 2"/>
   </g>
   <g id="patch_198">
    <path d="M 63 448.56 
L 63 60.48 
" style="fill: none; stroke: #000000; stroke-width: 0.8; stroke-linejoin: miter; stroke-linecap: square"/>
   </g>
   <g id="patch_199">
    <path d="M 63 448.56 
L 453.6 448.56 
" style="fill: none; stroke: #000000; stroke-width: 0.8; stroke-linejoin: miter; stroke-linecap: square"/>
   </g>
   <g id="legend_1">
    <g id="patch_200">
     <path d="M 308.730625 111.957344 
L 443.8 111.957344 
Q 446.6 111.957344 446.6 109.157344 
L 446.6 70.28 
Q 446.6 67.48 443.8 67.48 
L 308.730625 67.48 
Q 305.930625 67.48 305.930625 70.28 
L 305.930625 109.157344 
Q 305.930625 111.957344 308.730625 111.957344 
z
" style="fill: #ffffff; opacity: 0.8; stroke: #cccccc; stroke-linejoin: miter"/>
    </g>
    <g id="line2d_23">
     <path d="M 311.530625 78.372383 
L 325.530625 78.372383 
L 339.530625 78.372383 
" style="fill: none; stroke-dasharray: 7.4,3.2; stroke-dashoffset: 0; stroke: #000000; stroke-width: 2"/>
    </g>
    <g id="text_24">
     <text style="font-size: 14px; font-family: 'Arial', sans-serif; text-anchor: start" x="350.730625" y="83.272383" transform="rotate(-0 350.730625 83.272383)">Seasonal prior</text>
    </g>
    <g id="line2d_24">
     <path d="M 311.530625 98.511055 
L 325.530625 98.511055 
L 339.530625 98.511055 
" style="fill: none; stroke: #1f77b4; stroke-width: 2; stroke-linecap: square"/>
    </g>
    <g id="text_25">
     <text style="font-size: 14px; font-family: 'Arial', sans-serif; text-anchor: start" x="350.730625" y="103.411055" transform="rotate(-0 350.730625 103.411055)">Posterior</text>
    </g>
   </g>
  </g>
 </g>
 <defs>
  <clipPath id="p824c0170a2">
   <rect x="63" y="60.48" width="390.6" height="388.08"/>
  </clipPath>
 </defs>
</svg>
