<?xml version="1.0" encoding="utf-8" standalone="no"?>
<!DOCTYPE svg PUBLIC "-//W3C//DTD SVG 1.1//EN"
  "http://www.w3.org/Graphics/SVG/1.1/DTD/svg11.dtd">
<svg xmlns:xlink="http://www.w3.org/1999/xlink" width="504pt" height="504pt" viewBox="0 0 504 504" xmlns="http://www.w3.org/2000/svg" version="1.1">
 <metadata>
  <rdf:RDF xmlns:dc="http://purl.org/dc/elements/1.1/" xmlns:cc="http://creativecommons.org/ns#" xmlns:rdf="http://www.w3.org/1999/02/22-rdf-syntax-ns#">
   <cc:Work>
    <dc:type rdf:resource="http://purl.org/dc/dcmitype/StillImage"/>
    <dc:date>2026-02-13T14:47:13.994612</dc:date>
    <dc:format>image/svg+xml</dc:format>
    <dc:creator>
     <cc:Agent>
      <dc:title>Matplotlib v3.10.8, https://matplotlib.org/</dc:title>
     </cc:Agent>
    </dc:creator>
   </cc:Work>
  </rdf:RDF>
 </metadata>
 <defs>
  <style type="text/css">*{stroke-linejoin: round; stroke-linecap: butt}</style>
 </defs>
 <g id="figure_1">
  <g id="patch_1">
   <path d="M 0 504 
L 504 504 
L 504 0 
L 0 0 
L 0 504 
z
" style="fill: none"/>
  </g>
  <g id="axes_1">
   <g id="patch_2">
    <path d="M 63 448.56 
L 453.6 448.56 
L 453.6 60.48 
L 63 60.48 
L 63 448.56 
z
" style="fill: none"/>
   </g>
   <g id="matplotlib.axis_1">
    <g id="xtick_1">
     <g id="line2d_1">
      <defs>
       <path id="m3345d836c4" d="M 0 0 
L 0 3.5 
" style="stroke: #000000; stroke-width: 0.8"/>
      </defs>
      <g>
       <use xlink:href="#m3345d836c4" x="80.754545" y="448.56" style="stroke: #000000; stroke-width: 0.8"/>
      </g>
     </g>
     <g id="text_1">
      <text style="font-size: 16px; font-family: 'Arial', sans-serif; text-anchor: middle" x="80.754545" y="467.0125" transform="rotate(-0 80.754545 467.0125)">1 Jan</text>
     </g>
    </g>
    <g id="xtick_2">
     <g id="line2d_2">
      <g>
       <use xlink:href="#m3345d836c4" x="110.995804" y="448.56" style="stroke: #000000; stroke-width: 0.8"/>
      </g>
     </g>
    </g>
    <g id="xtick_3">
     <g id="line2d_3">
      <g>
       <use xlink:href="#m3345d836c4" x="138.31049" y="448.56" style="stroke: #000000; stroke-width: 0.8"/>
      </g>
     </g>
     <g id="text_2">
      <text style="font-size: 16px; font-family: 'Arial', sans-serif; text-anchor: middle" x="138.31049" y="467.0125" transform="rotate(-0 138.31049 467.0125)">1 Mar</text>
     </g>
    </g>
    <g id="xtick_4">
     <g id="line2d_4">
      <g>
       <use xlink:href="#m3345d836c4" x="168.551748" y="448.56" style="stroke: #000000; stroke-width: 0.8"/>
      </g>
     </g>
    </g>
    <g id="xtick_5">
     <g id="line2d_5">
      <g>
       <use xlink:href="#m3345d836c4" x="197.817483" y="448.56" style="stroke: #000000; stroke-width: 0.8"/>
      </g>
     </g>
     <g id="text_3">
      <text style="font-size: 16px; font-family: 'Arial', sans-serif; text-anchor: middle" x="197.817483" y="467.06" transform="rotate(-0 197.817483 467.06)">1 May</text>
     </g>
    </g>
    <g id="xtick_6">
     <g id="line2d_6">
      <g>
       <use xlink:href="#m3345d836c4" x="228.058741" y="448.56" style="stroke: #000000; stroke-width: 0.8"/>
      </g>
     </g>
    </g>
    <g id="xtick_7">
     <g id="line2d_7">
      <g>
       <use xlink:href="#m3345d836c4" x="257.324476" y="448.56" style="stroke: #000000; stroke-width: 0.8"/>
      </g>
     </g>
     <g id="text_4">
      <text style="font-size: 16px; font-family: 'Arial', sans-serif; text-anchor: middle" x="257.324476" y="467.0125" transform="rotate(-0 257.324476 467.0125)">1 Jul</text>
     </g>
    </g>
    <g id="xtick_8">
     <g id="line2d_8">
      <g>
       <use xlink:href="#m3345d836c4" x="287.565734" y="448.56" style="stroke: #000000; stroke-width: 0.8"/>
      </g>
     </g>
    </g>
    <g id="xtick_9">
     <g id="line2d_9">
      <g>
       <use xlink:href="#m3345d836c4" x="317.806993" y="448.56" style="stroke: #000000; stroke-width: 0.8"/>
      </g>
     </g>
     <g id="text_5">
      <text style="font-size: 16px; font-family: 'Arial', sans-serif; text-anchor: middle" x="317.806993" y="467.2075" transform="rotate(-0 317.806993 467.2075)">1 Sep</text>
     </g>
    </g>
    <g id="xtick_10">
     <g id="line2d_10">
      <g>
       <use xlink:href="#m3345d836c4" x="347.072727" y="448.56" style="stroke: #000000; stroke-width: 0.8"/>
      </g>
     </g>
    </g>
    <g id="xtick_11">
     <g id="line2d_11">
      <g>
       <use xlink:href="#m3345d836c4" x="377.313986" y="448.56" style="stroke: #000000; stroke-width: 0.8"/>
      </g>
     </g>
     <g id="text_6">
      <text style="font-size: 16px; font-family: 'Arial', sans-serif; text-anchor: middle" x="377.313986" y="467.0125" transform="rotate(-0 377.313986 467.0125)">1 Nov</text>
     </g>
    </g>
    <g id="xtick_12">
     <g id="line2d_12">
      <g>
       <use xlink:href="#m3345d836c4" x="406.57972" y="448.56" style="stroke: #000000; stroke-width: 0.8"/>
      </g>
     </g>
    </g>
    <g id="xtick_13">
     <g id="line2d_13">
      <g>
       <use xlink:href="#m3345d836c4" x="436.820979" y="448.56" style="stroke: #000000; stroke-width: 0.8"/>
      </g>
     </g>
     <g id="text_7">
      <text style="font-size: 16px; font-family: 'Arial', sans-serif; text-anchor: middle" x="436.820979" y="467.0125" transform="rotate(-0 436.820979 467.0125)">1 Jan</text>
     </g>
    </g>
    <g id="text_8">
     <text style="font-size: 16px; font-family: 'Arial', sans-serif; text-anchor: middle" x="258.3" y="485.88" transform="rotate(-0 258.3 485.88)">Date of final case</text>
    </g>
   </g>
   <g id="matplotlib.axis_2">
    <g id="ytick_1">
     <g id="line2d_14">
      <defs>
       <path id="m4f3e6ac9cf" d="M 0 0 
L -3.5 0 
" style="stroke: #000000; stroke-width: 0.8"/>
      </defs>
      <g>
       <use xlink:href="#m4f3e6ac9cf" x="63" y="444.489231" style="stroke: #000000; stroke-width: 0.8"/>
      </g>
     </g>
     <g id="text_9">
      <text style="font-size: 16px; font-family: 'Arial', sans-serif; text-anchor: end" x="56" y="450.215481" transform="rotate(-0 56 450.215481)">0</text>
     </g>
    </g>
    <g id="ytick_2">
     <g id="line2d_15">
      <g>
       <use xlink:href="#m4f3e6ac9cf" x="63" y="376.643077" style="stroke: #000000; stroke-width: 0.8"/>
      </g>
     </g>
     <g id="text_10">
      <text style="font-size: 16px; font-family: 'Arial', sans-serif; text-anchor: end" x="56" y="382.369327" transform="rotate(-0 56 382.369327)">5</text>
     </g>
    </g>
    <g id="ytick_3">
     <g id="line2d_16">
      <g>
       <use xlink:href="#m4f3e6ac9cf" x="63" y="308.796923" style="stroke: #000000; stroke-width: 0.8"/>
      </g>
     </g>
     <g id="text_11">
      <text style="font-size: 16px; font-family: 'Arial', sans-serif; text-anchor: end" x="56" y="314.523173" transform="rotate(-0 56 314.523173)">10</text>
     </g>
    </g>
    <g id="ytick_4">
     <g id="line2d_17">
      <g>
       <use xlink:href="#m4f3e6ac9cf" x="63" y="240.950769" style="stroke: #000000; stroke-width: 0.8"/>
      </g>
     </g>
     <g id="text_12">
      <text style="font-size: 16px; font-family: 'Arial', sans-serif; text-anchor: end" x="56" y="246.677019" transform="rotate(-0 56 246.677019)">15</text>
     </g>
    </g>
    <g id="ytick_5">
     <g id="line2d_18">
      <g>
       <use xlink:href="#m4f3e6ac9cf" x="63" y="173.104615" style="stroke: #000000; stroke-width: 0.8"/>
      </g>
     </g>
     <g id="text_13">
      <text style="font-size: 16px; font-family: 'Arial', sans-serif; text-anchor: end" x="56" y="178.830865" transform="rotate(-0 56 178.830865)">20</text>
     </g>
    </g>
    <g id="ytick_6">
     <g id="line2d_19">
      <g>
       <use xlink:href="#m4f3e6ac9cf" x="63" y="105.258462" style="stroke: #000000; stroke-width: 0.8"/>
      </g>
     </g>
     <g id="text_14">
      <text style="font-size: 16px; font-family: 'Arial', sans-serif; text-anchor: end" x="56" y="110.984712" transform="rotate(-0 56 110.984712)">25</text>
     </g>
    </g>
    <g id="text_15">
     <text style="font-size: 16px; font-family: 'Arial', sans-serif; text-anchor: middle" x="30.8375" y="254.52" transform="rotate(-90 30.8375 254.52)">Days from final case until declaration</text>
    </g>
   </g>
   <g id="line2d_20">
    <path d="M 80.754545 430.92 
L 190.013287 430.92 
L 190.988811 281.658462 
L 191.964336 240.950769 
L 192.93986 213.812308 
L 194.890909 186.673846 
L 195.866434 186.673846 
L 197.817483 159.535385 
L 198.793007 159.535385 
L 199.768531 145.966154 
L 200.744056 145.966154 
L 201.71958 132.396923 
L 203.670629 132.396923 
L 204.646154 118.827692 
L 206.597203 118.827692 
L 207.572727 105.258462 
L 211.474825 105.258462 
L 212.45035 91.689231 
L 219.279021 91.689231 
L 220.254545 78.12 
L 297.320979 78.12 
L 298.296503 91.689231 
L 306.100699 91.689231 
L 307.076224 105.258462 
L 311.953846 105.258462 
L 312.929371 118.827692 
L 316.831469 118.827692 
L 317.806993 132.396923 
L 321.709091 132.396923 
L 322.684615 145.966154 
L 324.635664 145.966154 
L 325.611189 159.535385 
L 328.537762 159.535385 
L 329.513287 173.104615 
L 331.464336 173.104615 
L 332.43986 186.673846 
L 333.415385 186.673846 
L 334.390909 200.243077 
L 336.341958 200.243077 
L 337.317483 213.812308 
L 338.293007 213.812308 
L 339.268531 227.381538 
L 340.244056 227.381538 
L 341.21958 240.950769 
L 342.195105 240.950769 
L 343.170629 254.52 
L 344.146154 254.52 
L 345.121678 268.089231 
L 346.097203 268.089231 
L 348.048252 295.227692 
L 349.023776 295.227692 
L 349.999301 308.796923 
L 350.974825 335.935385 
L 351.95035 349.504615 
L 352.925874 430.92 
L 435.845455 430.92 
L 435.845455 430.92 
" clip-path="url(#p37345f7ad4)" style="fill: none; stroke: #0173b2; stroke-width: 2; stroke-linecap: square"/>
   </g>
   <g id="line2d_21">
    <path d="M 80.754545 430.92 
L 194.890909 430.92 
L 195.866434 281.658462 
L 197.817483 227.381538 
L 198.793007 213.812308 
L 199.768531 213.812308 
L 201.71958 186.673846 
L 202.695105 186.673846 
L 203.670629 173.104615 
L 204.646154 173.104615 
L 205.621678 159.535385 
L 207.572727 159.535385 
L 208.548252 145.966154 
L 210.499301 145.966154 
L 211.474825 132.396923 
L 216.352448 132.396923 
L 217.327972 118.827692 
L 225.132168 118.827692 
L 226.107692 105.258462 
L 295.36993 105.258462 
L 296.345455 118.827692 
L 306.100699 118.827692 
L 307.076224 132.396923 
L 311.953846 132.396923 
L 312.929371 145.966154 
L 316.831469 145.966154 
L 317.806993 159.535385 
L 321.709091 159.535385 
L 322.684615 173.104615 
L 324.635664 173.104615 
L 325.611189 186.673846 
L 328.537762 186.673846 
L 329.513287 200.243077 
L 331.464336 200.243077 
L 332.43986 213.812308 
L 333.415385 213.812308 
L 334.390909 227.381538 
L 336.341958 227.381538 
L 337.317483 240.950769 
L 338.293007 240.950769 
L 339.268531 254.52 
L 340.244056 254.52 
L 341.21958 268.089231 
L 342.195105 268.089231 
L 344.146154 295.227692 
L 345.121678 295.227692 
L 347.072727 322.366154 
L 348.048252 349.504615 
L 349.023776 430.92 
L 435.845455 430.92 
L 435.845455 430.92 
" clip-path="url(#p37345f7ad4)" style="fill: none; stroke: #de8f05; stroke-width: 2; stroke-linecap: square"/>
   </g>
   <g id="line2d_22">
    <path d="M 80.754545 430.92 
L 198.793007 430.92 
L 199.768531 281.658462 
L 200.744056 268.089231 
L 201.71958 240.950769 
L 202.695105 227.381538 
L 203.670629 227.381538 
L 205.621678 200.243077 
L 206.597203 200.243077 
L 207.572727 186.673846 
L 209.523776 186.673846 
L 210.499301 173.104615 
L 212.45035 173.104615 
L 213.425874 159.535385 
L 217.327972 159.535385 
L 218.303497 145.966154 
L 225.132168 145.966154 
L 226.107692 132.396923 
L 299.272028 132.396923 
L 300.247552 145.966154 
L 308.051748 145.966154 
L 309.027273 159.535385 
L 313.904895 159.535385 
L 314.88042 173.104615 
L 318.782517 173.104615 
L 319.758042 186.673846 
L 322.684615 186.673846 
L 323.66014 200.243077 
L 325.611189 200.243077 
L 326.586713 213.812308 
L 328.537762 213.812308 
L 329.513287 227.381538 
L 331.464336 227.381538 
L 332.43986 240.950769 
L 334.390909 240.950769 
L 335.366434 254.52 
L 336.341958 254.52 
L 337.317483 268.089231 
L 338.293007 268.089231 
L 340.244056 295.227692 
L 341.21958 295.227692 
L 344.146154 335.935385 
L 345.121678 363.073846 
L 346.097203 430.92 
L 435.845455 430.92 
L 435.845455 430.92 
" clip-path="url(#p37345f7ad4)" style="fill: none; stroke: #029e73; stroke-width: 2; stroke-linecap: square"/>
   </g>
   <g id="patch_3">
    <path d="M 63 448.56 
L 63 60.48 
" style="fill: none; stroke: #000000; stroke-width: 0.8; stroke-linejoin: miter; stroke-linecap: square"/>
   </g>
   <g id="patch_4">
    <path d="M 63 448.56 
L 453.6 448.56 
" style="fill: none; stroke: #000000; stroke-width: 0.8; stroke-linejoin: miter; stroke-linecap: square"/>
   </g>
   <g id="legend_1">
    <g id="patch_5">
     <path d="M 72.8 286.325156 
L 236.648125 286.325156 
Q 239.448125 286.325156 239.448125 283.525156 
L 239.448125 225.514844 
Q 239.448125 222.714844 236.648125 222.714844 
L 72.8 222.714844 
Q 70 222.714844 70 225.514844 
L 70 283.525156 
Q 70 286.325156 72.8 286.325156 
z
" style="fill: #ffffff; opacity: 0.8; stroke: #cccccc; stroke-linejoin: miter"/>
    </g>
    <g id="line2d_23">
     <path d="M 75.6 233.435781 
L 89.6 233.435781 
L 103.6 233.435781 
" style="fill: none; stroke: #0173b2; stroke-width: 2; stroke-linecap: square"/>
    </g>
    <g id="text_16">
     <text style="font-size: 14px; font-family: 'Arial', sans-serif; text-anchor: start" x="114.8" y="238.335781" transform="rotate(-0 114.8 238.335781)">1.0% risk threshold</text>
    </g>
    <g id="line2d_24">
     <path d="M 75.6 253.239219 
L 89.6 253.239219 
L 103.6 253.239219 
" style="fill: none; stroke: #de8f05; stroke-width: 2; stroke-linecap: square"/>
    </g>
    <g id="text_17">
     <text style="font-size: 14px; font-family: 'Arial', sans-serif; text-anchor: start" x="114.8" y="258.139219" transform="rotate(-0 114.8 258.139219)">2.5% risk threshold</text>
    </g>
    <g id="line2d_25">
     <path d="M 75.6 273.042656 
L 89.6 273.042656 
L 103.6 273.042656 
" style="fill: none; stroke: #029e73; stroke-width: 2; stroke-linecap: square"/>
    </g>
    <g id="text_18">
     <text style="font-size: 14px; font-family: 'Arial', sans-serif; text-anchor: start" x="114.8" y="277.942656" transform="rotate(-0 114.8 277.942656)">5.0% risk threshold</text>
    </g>
   </g>
  </g>
 </g>
 <defs>
  <clipPath id="p37345f7ad4">
   <rect x="63" y="60.48" width="390.6" height="388.08"/>
  </clipPath>
 </defs>
</svg>
