<?xml version="1.0" encoding="utf-8" standalone="no"?>
<!DOCTYPE svg PUBLIC "-//W3C//DTD SVG 1.1//EN"
  "http://www.w3.org/Graphics/SVG/1.1/DTD/svg11.dtd">
<svg xmlns:xlink="http://www.w3.org/1999/xlink" width="504pt" height="504pt" viewBox="0 0 504 504" xmlns="http://www.w3.org/2000/svg" version="1.1">
 <metadata>
  <rdf:RDF xmlns:dc="http://purl.org/dc/elements/1.1/" xmlns:cc="http://creativecommons.org/ns#" xmlns:rdf="http://www.w3.org/1999/02/22-rdf-syntax-ns#">
   <cc:Work>
    <dc:type rdf:resource="http://purl.org/dc/dcmitype/StillImage"/>
    <dc:date>2026-04-14T13:43:41.146287</dc:date>
    <dc:format>image/svg+xml</dc:format>
    <dc:creator>
     <cc:Agent>
      <dc:title>Matplotlib v3.10.8, https://matplotlib.org/</dc:title>
     </cc:Agent>
    </dc:creator>
   </cc:Work>
  </rdf:RDF>
 </metadata>
 <defs>
  <style type="text/css">*{stroke-linejoin: round; stroke-linecap: butt}</style>
 </defs>
 <g id="figure_1">
  <g id="patch_1">
   <path d="M 0 504 
L 504 504 
L 504 0 
L 0 0 
L 0 504 
z
" style="fill: none"/>
  </g>
  <g id="axes_1">
   <g id="patch_2">
    <path d="M 63 448.56 
L 453.6 448.56 
L 453.6 60.48 
L 63 60.48 
L 63 448.56 
z
" style="fill: none"/>
   </g>
   <g id="matplotlib.axis_1">
    <g id="xtick_1">
     <g id="line2d_1">
      <defs>
       <path id="m8e7a17d894" d="M 0 0 
L 0 3.5 
" style="stroke: #000000; stroke-width: 0.8"/>
      </defs>
      <g>
       <use xlink:href="#m8e7a17d894" x="80.754545" y="448.56" style="stroke: #000000; stroke-width: 0.8"/>
      </g>
     </g>
     <g id="text_1">
      <text style="font-size: 16px; font-family: 'Arial', sans-serif; text-anchor: middle" x="80.754545" y="467.7175" transform="rotate(-0 80.754545 467.7175)">1 Jan</text>
     </g>
    </g>
    <g id="xtick_2">
     <g id="line2d_2">
      <g>
       <use xlink:href="#m8e7a17d894" x="110.995804" y="448.56" style="stroke: #000000; stroke-width: 0.8"/>
      </g>
     </g>
    </g>
    <g id="xtick_3">
     <g id="line2d_3">
      <g>
       <use xlink:href="#m8e7a17d894" x="138.31049" y="448.56" style="stroke: #000000; stroke-width: 0.8"/>
      </g>
     </g>
     <g id="text_2">
      <text style="font-size: 16px; font-family: 'Arial', sans-serif; text-anchor: middle" x="138.31049" y="467.7175" transform="rotate(-0 138.31049 467.7175)">1 Mar</text>
     </g>
    </g>
    <g id="xtick_4">
     <g id="line2d_4">
      <g>
       <use xlink:href="#m8e7a17d894" x="168.551748" y="448.56" style="stroke: #000000; stroke-width: 0.8"/>
      </g>
     </g>
    </g>
    <g id="xtick_5">
     <g id="line2d_5">
      <g>
       <use xlink:href="#m8e7a17d894" x="197.817483" y="448.56" style="stroke: #000000; stroke-width: 0.8"/>
      </g>
     </g>
     <g id="text_3">
      <text style="font-size: 16px; font-family: 'Arial', sans-serif; text-anchor: middle" x="197.817483" y="467.7175" transform="rotate(-0 197.817483 467.7175)">1 May</text>
     </g>
    </g>
    <g id="xtick_6">
     <g id="line2d_6">
      <g>
       <use xlink:href="#m8e7a17d894" x="228.058741" y="448.56" style="stroke: #000000; stroke-width: 0.8"/>
      </g>
     </g>
    </g>
    <g id="xtick_7">
     <g id="line2d_7">
      <g>
       <use xlink:href="#m8e7a17d894" x="257.324476" y="448.56" style="stroke: #000000; stroke-width: 0.8"/>
      </g>
     </g>
     <g id="text_4">
      <text style="font-size: 16px; font-family: 'Arial', sans-serif; text-anchor: middle" x="257.324476" y="467.7175" transform="rotate(-0 257.324476 467.7175)">1 Jul</text>
     </g>
    </g>
    <g id="xtick_8">
     <g id="line2d_8">
      <g>
       <use xlink:href="#m8e7a17d894" x="287.565734" y="448.56" style="stroke: #000000; stroke-width: 0.8"/>
      </g>
     </g>
    </g>
    <g id="xtick_9">
     <g id="line2d_9">
      <g>
       <use xlink:href="#m8e7a17d894" x="317.806993" y="448.56" style="stroke: #000000; stroke-width: 0.8"/>
      </g>
     </g>
     <g id="text_5">
      <text style="font-size: 16px; font-family: 'Arial', sans-serif; text-anchor: middle" x="317.806993" y="467.7175" transform="rotate(-0 317.806993 467.7175)">1 Sep</text>
     </g>
    </g>
    <g id="xtick_10">
     <g id="line2d_10">
      <g>
       <use xlink:href="#m8e7a17d894" x="347.072727" y="448.56" style="stroke: #000000; stroke-width: 0.8"/>
      </g>
     </g>
    </g>
    <g id="xtick_11">
     <g id="line2d_11">
      <g>
       <use xlink:href="#m8e7a17d894" x="377.313986" y="448.56" style="stroke: #000000; stroke-width: 0.8"/>
      </g>
     </g>
     <g id="text_6">
      <text style="font-size: 16px; font-family: 'Arial', sans-serif; text-anchor: middle" x="377.313986" y="467.7175" transform="rotate(-0 377.313986 467.7175)">1 Nov</text>
     </g>
    </g>
    <g id="xtick_12">
     <g id="line2d_12">
      <g>
       <use xlink:href="#m8e7a17d894" x="406.57972" y="448.56" style="stroke: #000000; stroke-width: 0.8"/>
      </g>
     </g>
    </g>
    <g id="xtick_13">
     <g id="line2d_13">
      <g>
       <use xlink:href="#m8e7a17d894" x="436.820979" y="448.56" style="stroke: #000000; stroke-width: 0.8"/>
      </g>
     </g>
     <g id="text_7">
      <text style="font-size: 16px; font-family: 'Arial', sans-serif; text-anchor: middle" x="436.820979" y="467.7175" transform="rotate(-0 436.820979 467.7175)">1 Jan</text>
     </g>
    </g>
    <g id="text_8">
     <text style="font-size: 16px; font-family: 'Arial', sans-serif; text-anchor: middle" x="258.3" y="487.2025" transform="rotate(-0 258.3 487.2025)">Date of final case</text>
    </g>
   </g>
   <g id="matplotlib.axis_2">
    <g id="ytick_1">
     <g id="line2d_14">
      <defs>
       <path id="md62780c1ce" d="M 0 0 
L -3.5 0 
" style="stroke: #000000; stroke-width: 0.8"/>
      </defs>
      <g>
       <use xlink:href="#md62780c1ce" x="63" y="444.489231" style="stroke: #000000; stroke-width: 0.8"/>
      </g>
     </g>
     <g id="text_9">
      <text style="font-size: 16px; font-family: 'Arial', sans-serif; text-anchor: end" x="56" y="450.567981" transform="rotate(-0 56 450.567981)">0</text>
     </g>
    </g>
    <g id="ytick_2">
     <g id="line2d_15">
      <g>
       <use xlink:href="#md62780c1ce" x="63" y="376.643077" style="stroke: #000000; stroke-width: 0.8"/>
      </g>
     </g>
     <g id="text_10">
      <text style="font-size: 16px; font-family: 'Arial', sans-serif; text-anchor: end" x="56" y="382.721827" transform="rotate(-0 56 382.721827)">5</text>
     </g>
    </g>
    <g id="ytick_3">
     <g id="line2d_16">
      <g>
       <use xlink:href="#md62780c1ce" x="63" y="308.796923" style="stroke: #000000; stroke-width: 0.8"/>
      </g>
     </g>
     <g id="text_11">
      <text style="font-size: 16px; font-family: 'Arial', sans-serif; text-anchor: end" x="56" y="314.875673" transform="rotate(-0 56 314.875673)">10</text>
     </g>
    </g>
    <g id="ytick_4">
     <g id="line2d_17">
      <g>
       <use xlink:href="#md62780c1ce" x="63" y="240.950769" style="stroke: #000000; stroke-width: 0.8"/>
      </g>
     </g>
     <g id="text_12">
      <text style="font-size: 16px; font-family: 'Arial', sans-serif; text-anchor: end" x="56" y="247.029519" transform="rotate(-0 56 247.029519)">15</text>
     </g>
    </g>
    <g id="ytick_5">
     <g id="line2d_18">
      <g>
       <use xlink:href="#md62780c1ce" x="63" y="173.104615" style="stroke: #000000; stroke-width: 0.8"/>
      </g>
     </g>
     <g id="text_13">
      <text style="font-size: 16px; font-family: 'Arial', sans-serif; text-anchor: end" x="56" y="179.183365" transform="rotate(-0 56 179.183365)">20</text>
     </g>
    </g>
    <g id="ytick_6">
     <g id="line2d_19">
      <g>
       <use xlink:href="#md62780c1ce" x="63" y="105.258462" style="stroke: #000000; stroke-width: 0.8"/>
      </g>
     </g>
     <g id="text_14">
      <text style="font-size: 16px; font-family: 'Arial', sans-serif; text-anchor: end" x="56" y="111.337212" transform="rotate(-0 56 111.337212)">25</text>
     </g>
    </g>
    <g id="text_15">
     <text style="font-size: 16px; font-family: 'Arial', sans-serif; text-anchor: middle" x="28.3125" y="254.52" transform="rotate(-90 28.3125 254.52)">Days from final case until declaration</text>
    </g>
   </g>
   <g id="line2d_20">
    <path d="M 80.754545 430.92 
L 197.817483 430.92 
L 198.793007 281.658462 
L 199.768531 240.950769 
L 200.744056 213.812308 
L 202.695105 186.673846 
L 203.670629 186.673846 
L 205.621678 159.535385 
L 206.597203 159.535385 
L 207.572727 145.966154 
L 208.548252 145.966154 
L 209.523776 132.396923 
L 211.474825 132.396923 
L 212.45035 118.827692 
L 214.401399 118.827692 
L 215.376923 105.258462 
L 219.279021 105.258462 
L 220.254545 91.689231 
L 227.083217 91.689231 
L 228.058741 78.12 
L 305.125175 78.12 
L 306.100699 91.689231 
L 313.904895 91.689231 
L 314.88042 105.258462 
L 319.758042 105.258462 
L 320.733566 118.827692 
L 324.635664 118.827692 
L 325.611189 132.396923 
L 329.513287 132.396923 
L 330.488811 145.966154 
L 332.43986 145.966154 
L 333.415385 159.535385 
L 336.341958 159.535385 
L 337.317483 173.104615 
L 339.268531 173.104615 
L 340.244056 186.673846 
L 341.21958 186.673846 
L 342.195105 200.243077 
L 344.146154 200.243077 
L 345.121678 213.812308 
L 346.097203 213.812308 
L 347.072727 227.381538 
L 348.048252 227.381538 
L 349.023776 240.950769 
L 349.999301 240.950769 
L 350.974825 254.52 
L 351.95035 254.52 
L 352.925874 268.089231 
L 353.901399 268.089231 
L 355.852448 295.227692 
L 356.827972 295.227692 
L 357.803497 308.796923 
L 358.779021 335.935385 
L 359.754545 349.504615 
L 360.73007 430.92 
L 435.845455 430.92 
L 435.845455 430.92 
" clip-path="url(#p1ccb46dae5)" style="fill: none; stroke: #0173b2; stroke-width: 2; stroke-linecap: square"/>
   </g>
   <g id="line2d_21">
    <path d="M 80.754545 430.92 
L 202.695105 430.92 
L 203.670629 281.658462 
L 205.621678 227.381538 
L 206.597203 213.812308 
L 207.572727 213.812308 
L 209.523776 186.673846 
L 210.499301 186.673846 
L 211.474825 173.104615 
L 212.45035 173.104615 
L 213.425874 159.535385 
L 215.376923 159.535385 
L 216.352448 145.966154 
L 218.303497 145.966154 
L 219.279021 132.396923 
L 224.156643 132.396923 
L 225.132168 118.827692 
L 232.936364 118.827692 
L 233.911888 105.258462 
L 303.174126 105.258462 
L 304.14965 118.827692 
L 313.904895 118.827692 
L 314.88042 132.396923 
L 319.758042 132.396923 
L 320.733566 145.966154 
L 324.635664 145.966154 
L 325.611189 159.535385 
L 329.513287 159.535385 
L 330.488811 173.104615 
L 332.43986 173.104615 
L 333.415385 186.673846 
L 336.341958 186.673846 
L 337.317483 200.243077 
L 339.268531 200.243077 
L 340.244056 213.812308 
L 341.21958 213.812308 
L 342.195105 227.381538 
L 344.146154 227.381538 
L 345.121678 240.950769 
L 346.097203 240.950769 
L 347.072727 254.52 
L 348.048252 254.52 
L 349.023776 268.089231 
L 349.999301 268.089231 
L 351.95035 295.227692 
L 352.925874 295.227692 
L 354.876923 322.366154 
L 355.852448 349.504615 
L 356.827972 430.92 
L 435.845455 430.92 
L 435.845455 430.92 
" clip-path="url(#p1ccb46dae5)" style="fill: none; stroke: #de8f05; stroke-width: 2; stroke-linecap: square"/>
   </g>
   <g id="line2d_22">
    <path d="M 80.754545 430.92 
L 206.597203 430.92 
L 207.572727 281.658462 
L 208.548252 268.089231 
L 209.523776 240.950769 
L 210.499301 227.381538 
L 211.474825 227.381538 
L 213.425874 200.243077 
L 214.401399 200.243077 
L 215.376923 186.673846 
L 217.327972 186.673846 
L 218.303497 173.104615 
L 220.254545 173.104615 
L 221.23007 159.535385 
L 225.132168 159.535385 
L 226.107692 145.966154 
L 232.936364 145.966154 
L 233.911888 132.396923 
L 307.076224 132.396923 
L 308.051748 145.966154 
L 315.855944 145.966154 
L 316.831469 159.535385 
L 321.709091 159.535385 
L 322.684615 173.104615 
L 326.586713 173.104615 
L 327.562238 186.673846 
L 330.488811 186.673846 
L 331.464336 200.243077 
L 333.415385 200.243077 
L 334.390909 213.812308 
L 336.341958 213.812308 
L 337.317483 227.381538 
L 339.268531 227.381538 
L 340.244056 240.950769 
L 342.195105 240.950769 
L 343.170629 254.52 
L 344.146154 254.52 
L 345.121678 268.089231 
L 346.097203 268.089231 
L 348.048252 295.227692 
L 349.023776 295.227692 
L 351.95035 335.935385 
L 352.925874 363.073846 
L 353.901399 430.92 
L 435.845455 430.92 
L 435.845455 430.92 
" clip-path="url(#p1ccb46dae5)" style="fill: none; stroke: #029e73; stroke-width: 2; stroke-linecap: square"/>
   </g>
   <g id="patch_3">
    <path d="M 63 448.56 
L 63 60.48 
" style="fill: none; stroke: #000000; stroke-width: 0.8; stroke-linejoin: miter; stroke-linecap: square"/>
   </g>
   <g id="patch_4">
    <path d="M 63 448.56 
L 453.6 448.56 
" style="fill: none; stroke: #000000; stroke-width: 0.8; stroke-linejoin: miter; stroke-linecap: square"/>
   </g>
   <g id="legend_1">
    <g id="patch_5">
     <path d="M 72.8 287.444063 
L 253.034688 287.444063 
Q 255.834688 287.444063 255.834688 284.644063 
L 255.834688 224.395938 
Q 255.834688 221.595937 253.034688 221.595937 
L 72.8 221.595937 
Q 70 221.595937 70 224.395938 
L 70 284.644063 
Q 70 287.444063 72.8 287.444063 
z
" style="fill: #ffffff; opacity: 0.8; stroke: #cccccc; stroke-linejoin: miter"/>
    </g>
    <g id="line2d_23">
     <path d="M 75.6 232.93375 
L 89.6 232.93375 
L 103.6 232.93375 
" style="fill: none; stroke: #0173b2; stroke-width: 2; stroke-linecap: square"/>
    </g>
    <g id="text_16">
     <text style="font-size: 14px; font-family: 'Arial', sans-serif; text-anchor: start" x="114.8" y="237.83375" transform="rotate(-0 114.8 237.83375)">1.0% risk threshold</text>
    </g>
    <g id="line2d_24">
     <path d="M 75.6 253.483125 
L 89.6 253.483125 
L 103.6 253.483125 
" style="fill: none; stroke: #de8f05; stroke-width: 2; stroke-linecap: square"/>
    </g>
    <g id="text_17">
     <text style="font-size: 14px; font-family: 'Arial', sans-serif; text-anchor: start" x="114.8" y="258.383125" transform="rotate(-0 114.8 258.383125)">2.5% risk threshold</text>
    </g>
    <g id="line2d_25">
     <path d="M 75.6 274.0325 
L 89.6 274.0325 
L 103.6 274.0325 
" style="fill: none; stroke: #029e73; stroke-width: 2; stroke-linecap: square"/>
    </g>
    <g id="text_18">
     <text style="font-size: 14px; font-family: 'Arial', sans-serif; text-anchor: start" x="114.8" y="278.9325" transform="rotate(-0 114.8 278.9325)">5.0% risk threshold</text>
    </g>
   </g>
  </g>
 </g>
 <defs>
  <clipPath id="p1ccb46dae5">
   <rect x="63" y="60.48" width="390.6" height="388.08"/>
  </clipPath>
 </defs>
</svg>
