<?xml version="1.0" encoding="utf-8" standalone="no"?>
<!DOCTYPE svg PUBLIC "-//W3C//DTD SVG 1.1//EN"
  "http://www.w3.org/Graphics/SVG/1.1/DTD/svg11.dtd">
<svg xmlns:xlink="http://www.w3.org/1999/xlink" width="504pt" height="504pt" viewBox="0 0 504 504" xmlns="http://www.w3.org/2000/svg" version="1.1">
 <metadata>
  <rdf:RDF xmlns:dc="http://purl.org/dc/elements/1.1/" xmlns:cc="http://creativecommons.org/ns#" xmlns:rdf="http://www.w3.org/1999/02/22-rdf-syntax-ns#">
   <cc:Work>
    <dc:type rdf:resource="http://purl.org/dc/dcmitype/StillImage"/>
    <dc:date>2026-04-14T13:43:41.705888</dc:date>
    <dc:format>image/svg+xml</dc:format>
    <dc:creator>
     <cc:Agent>
      <dc:title>Matplotlib v3.10.8, https://matplotlib.org/</dc:title>
     </cc:Agent>
    </dc:creator>
   </cc:Work>
  </rdf:RDF>
 </metadata>
 <defs>
  <style type="text/css">*{stroke-linejoin: round; stroke-linecap: butt}</style>
 </defs>
 <g id="figure_1">
  <g id="patch_1">
   <path d="M 0 504 
L 504 504 
L 504 0 
L 0 0 
L 0 504 
z
" style="fill: none"/>
  </g>
  <g id="axes_1">
   <g id="patch_2">
    <path d="M 63 448.56 
L 453.6 448.56 
L 453.6 60.48 
L 63 60.48 
L 63 448.56 
z
" style="fill: none"/>
   </g>
   <g id="matplotlib.axis_1">
    <g id="xtick_1">
     <g id="line2d_1">
      <defs>
       <path id="m7a5466c430" d="M 0 0 
L 0 3.5 
" style="stroke: #000000; stroke-width: 0.8"/>
      </defs>
      <g>
       <use xlink:href="#m7a5466c430" x="75.876923" y="448.56" style="stroke: #000000; stroke-width: 0.8"/>
      </g>
     </g>
     <g id="text_1">
      <text style="font-size: 16px; font-family: 'Arial', sans-serif; text-anchor: middle" x="75.876923" y="467.7175" transform="rotate(-0 75.876923 467.7175)">1 May</text>
     </g>
    </g>
    <g id="xtick_2">
     <g id="line2d_2">
      <g>
       <use xlink:href="#m7a5466c430" x="136.359441" y="448.56" style="stroke: #000000; stroke-width: 0.8"/>
      </g>
     </g>
     <g id="text_2">
      <text style="font-size: 16px; font-family: 'Arial', sans-serif; text-anchor: middle" x="136.359441" y="467.7175" transform="rotate(-0 136.359441 467.7175)">1 Jun</text>
     </g>
    </g>
    <g id="xtick_3">
     <g id="line2d_3">
      <g>
       <use xlink:href="#m7a5466c430" x="194.890909" y="448.56" style="stroke: #000000; stroke-width: 0.8"/>
      </g>
     </g>
     <g id="text_3">
      <text style="font-size: 16px; font-family: 'Arial', sans-serif; text-anchor: middle" x="194.890909" y="467.7175" transform="rotate(-0 194.890909 467.7175)">1 Jul</text>
     </g>
    </g>
    <g id="xtick_4">
     <g id="line2d_4">
      <g>
       <use xlink:href="#m7a5466c430" x="255.373427" y="448.56" style="stroke: #000000; stroke-width: 0.8"/>
      </g>
     </g>
     <g id="text_4">
      <text style="font-size: 16px; font-family: 'Arial', sans-serif; text-anchor: middle" x="255.373427" y="467.7175" transform="rotate(-0 255.373427 467.7175)">1 Aug</text>
     </g>
    </g>
    <g id="xtick_5">
     <g id="line2d_5">
      <g>
       <use xlink:href="#m7a5466c430" x="315.855944" y="448.56" style="stroke: #000000; stroke-width: 0.8"/>
      </g>
     </g>
     <g id="text_5">
      <text style="font-size: 16px; font-family: 'Arial', sans-serif; text-anchor: middle" x="315.855944" y="467.7175" transform="rotate(-0 315.855944 467.7175)">1 Sep</text>
     </g>
    </g>
    <g id="xtick_6">
     <g id="line2d_6">
      <g>
       <use xlink:href="#m7a5466c430" x="374.387413" y="448.56" style="stroke: #000000; stroke-width: 0.8"/>
      </g>
     </g>
     <g id="text_6">
      <text style="font-size: 16px; font-family: 'Arial', sans-serif; text-anchor: middle" x="374.387413" y="467.7175" transform="rotate(-0 374.387413 467.7175)">1 Oct</text>
     </g>
    </g>
    <g id="xtick_7">
     <g id="line2d_7">
      <g>
       <use xlink:href="#m7a5466c430" x="434.86993" y="448.56" style="stroke: #000000; stroke-width: 0.8"/>
      </g>
     </g>
     <g id="text_7">
      <text style="font-size: 16px; font-family: 'Arial', sans-serif; text-anchor: middle" x="434.86993" y="467.7175" transform="rotate(-0 434.86993 467.7175)">1 Nov</text>
     </g>
    </g>
    <g id="text_8">
     <text style="font-size: 16px; font-family: 'Arial', sans-serif; text-anchor: middle" x="258.3" y="487.2025" transform="rotate(-0 258.3 487.2025)">Week of final case</text>
    </g>
   </g>
   <g id="matplotlib.axis_2">
    <g id="ytick_1">
     <g id="line2d_8">
      <defs>
       <path id="me7575d2568" d="M 0 0 
L -3.5 0 
" style="stroke: #000000; stroke-width: 0.8"/>
      </defs>
      <g>
       <use xlink:href="#me7575d2568" x="63" y="446.25913" style="stroke: #000000; stroke-width: 0.8"/>
      </g>
     </g>
     <g id="text_9">
      <text style="font-size: 16px; font-family: 'Arial', sans-serif; text-anchor: end" x="56" y="452.33788" transform="rotate(-0 56 452.33788)">0</text>
     </g>
    </g>
    <g id="ytick_2">
     <g id="line2d_9">
      <g>
       <use xlink:href="#me7575d2568" x="63" y="369.563478" style="stroke: #000000; stroke-width: 0.8"/>
      </g>
     </g>
     <g id="text_10">
      <text style="font-size: 16px; font-family: 'Arial', sans-serif; text-anchor: end" x="56" y="375.642228" transform="rotate(-0 56 375.642228)">5</text>
     </g>
    </g>
    <g id="ytick_3">
     <g id="line2d_10">
      <g>
       <use xlink:href="#me7575d2568" x="63" y="292.867826" style="stroke: #000000; stroke-width: 0.8"/>
      </g>
     </g>
     <g id="text_11">
      <text style="font-size: 16px; font-family: 'Arial', sans-serif; text-anchor: end" x="56" y="298.946576" transform="rotate(-0 56 298.946576)">10</text>
     </g>
    </g>
    <g id="ytick_4">
     <g id="line2d_11">
      <g>
       <use xlink:href="#me7575d2568" x="63" y="216.172174" style="stroke: #000000; stroke-width: 0.8"/>
      </g>
     </g>
     <g id="text_12">
      <text style="font-size: 16px; font-family: 'Arial', sans-serif; text-anchor: end" x="56" y="222.250924" transform="rotate(-0 56 222.250924)">15</text>
     </g>
    </g>
    <g id="ytick_5">
     <g id="line2d_12">
      <g>
       <use xlink:href="#me7575d2568" x="63" y="139.476522" style="stroke: #000000; stroke-width: 0.8"/>
      </g>
     </g>
     <g id="text_13">
      <text style="font-size: 16px; font-family: 'Arial', sans-serif; text-anchor: end" x="56" y="145.555272" transform="rotate(-0 56 145.555272)">20</text>
     </g>
    </g>
    <g id="ytick_6">
     <g id="line2d_13">
      <g>
       <use xlink:href="#me7575d2568" x="63" y="62.78087" style="stroke: #000000; stroke-width: 0.8"/>
      </g>
     </g>
     <g id="text_14">
      <text style="font-size: 16px; font-family: 'Arial', sans-serif; text-anchor: end" x="56" y="68.85962" transform="rotate(-0 56 68.85962)">25</text>
     </g>
    </g>
    <g id="text_15">
     <text style="font-size: 16px; font-family: 'Arial', sans-serif; text-anchor: middle" x="28.3125" y="254.52" transform="rotate(-90 28.3125 254.52)">Days from final case until declaration</text>
    </g>
   </g>
   <g id="LineCollection_1">
    <path clip-path="url(#p1cce09676c)" style="fill: none; stroke: #f7fbff; stroke-width: 2"/>
   </g>
   <g id="line2d_14">
    <defs>
     <path id="m730bcd20d9" d="M 3 0 
L -3 -0 
" style="stroke: #f7fbff"/>
    </defs>
    <g clip-path="url(#p1cce09676c)"/>
   </g>
   <g id="line2d_15">
    <g clip-path="url(#p1cce09676c)"/>
   </g>
   <g id="LineCollection_2">
    <path clip-path="url(#p1cce09676c)" style="fill: none; stroke: #f7fbff; stroke-width: 2"/>
   </g>
   <g id="line2d_16">
    <g clip-path="url(#p1cce09676c)"/>
   </g>
   <g id="line2d_17">
    <g clip-path="url(#p1cce09676c)"/>
   </g>
   <g id="LineCollection_3">
    <path clip-path="url(#p1cce09676c)" style="fill: none; stroke: #f7fbff; stroke-width: 2"/>
   </g>
   <g id="line2d_18">
    <g clip-path="url(#p1cce09676c)"/>
   </g>
   <g id="line2d_19">
    <g clip-path="url(#p1cce09676c)"/>
   </g>
   <g id="LineCollection_4">
    <path clip-path="url(#p1cce09676c)" style="fill: none; stroke: #f7fbff; stroke-width: 2"/>
   </g>
   <g id="line2d_20">
    <g clip-path="url(#p1cce09676c)"/>
   </g>
   <g id="line2d_21">
    <g clip-path="url(#p1cce09676c)"/>
   </g>
   <g id="LineCollection_5">
    <path clip-path="url(#p1cce09676c)" style="fill: none; stroke: #f7fbff; stroke-width: 2"/>
   </g>
   <g id="line2d_22">
    <g clip-path="url(#p1cce09676c)"/>
   </g>
   <g id="line2d_23">
    <g clip-path="url(#p1cce09676c)"/>
   </g>
   <g id="LineCollection_6">
    <path clip-path="url(#p1cce09676c)" style="fill: none; stroke: #f7fbff; stroke-width: 2"/>
   </g>
   <g id="line2d_24">
    <g clip-path="url(#p1cce09676c)"/>
   </g>
   <g id="line2d_25">
    <g clip-path="url(#p1cce09676c)"/>
   </g>
   <g id="LineCollection_7">
    <path clip-path="url(#p1cce09676c)" style="fill: none; stroke: #f7fbff; stroke-width: 2"/>
   </g>
   <g id="line2d_26">
    <g clip-path="url(#p1cce09676c)"/>
   </g>
   <g id="line2d_27">
    <g clip-path="url(#p1cce09676c)"/>
   </g>
   <g id="LineCollection_8">
    <path clip-path="url(#p1cce09676c)" style="fill: none; stroke: #f7fbff; stroke-width: 2"/>
   </g>
   <g id="line2d_28">
    <g clip-path="url(#p1cce09676c)"/>
   </g>
   <g id="line2d_29">
    <g clip-path="url(#p1cce09676c)"/>
   </g>
   <g id="LineCollection_9">
    <path clip-path="url(#p1cce09676c)" style="fill: none; stroke: #f7fbff; stroke-width: 2"/>
   </g>
   <g id="line2d_30">
    <g clip-path="url(#p1cce09676c)"/>
   </g>
   <g id="line2d_31">
    <g clip-path="url(#p1cce09676c)"/>
   </g>
   <g id="LineCollection_10">
    <path clip-path="url(#p1cce09676c)" style="fill: none; stroke: #f7fbff; stroke-width: 2"/>
   </g>
   <g id="line2d_32">
    <g clip-path="url(#p1cce09676c)"/>
   </g>
   <g id="line2d_33">
    <g clip-path="url(#p1cce09676c)"/>
   </g>
   <g id="LineCollection_11">
    <path clip-path="url(#p1cce09676c)" style="fill: none; stroke: #f7fbff; stroke-width: 2"/>
   </g>
   <g id="line2d_34">
    <g clip-path="url(#p1cce09676c)"/>
   </g>
   <g id="line2d_35">
    <g clip-path="url(#p1cce09676c)"/>
   </g>
   <g id="LineCollection_12">
    <path clip-path="url(#p1cce09676c)" style="fill: none; stroke: #f7fbff; stroke-width: 2"/>
   </g>
   <g id="line2d_36">
    <g clip-path="url(#p1cce09676c)"/>
   </g>
   <g id="line2d_37">
    <g clip-path="url(#p1cce09676c)"/>
   </g>
   <g id="LineCollection_13">
    <path clip-path="url(#p1cce09676c)" style="fill: none; stroke: #f7fbff; stroke-width: 2"/>
   </g>
   <g id="line2d_38">
    <g clip-path="url(#p1cce09676c)"/>
   </g>
   <g id="line2d_39">
    <g clip-path="url(#p1cce09676c)"/>
   </g>
   <g id="LineCollection_14">
    <path clip-path="url(#p1cce09676c)" style="fill: none; stroke: #f7fbff; stroke-width: 2"/>
   </g>
   <g id="line2d_40">
    <g clip-path="url(#p1cce09676c)"/>
   </g>
   <g id="line2d_41">
    <g clip-path="url(#p1cce09676c)"/>
   </g>
   <g id="LineCollection_15">
    <path clip-path="url(#p1cce09676c)" style="fill: none; stroke: #f7fbff; stroke-width: 2"/>
   </g>
   <g id="line2d_42">
    <g clip-path="url(#p1cce09676c)"/>
   </g>
   <g id="line2d_43">
    <g clip-path="url(#p1cce09676c)"/>
   </g>
   <g id="LineCollection_16">
    <path clip-path="url(#p1cce09676c)" style="fill: none; stroke: #f7fbff; stroke-width: 2"/>
   </g>
   <g id="line2d_44">
    <g clip-path="url(#p1cce09676c)"/>
   </g>
   <g id="line2d_45">
    <g clip-path="url(#p1cce09676c)"/>
   </g>
   <g id="LineCollection_17">
    <path clip-path="url(#p1cce09676c)" style="fill: none; stroke: #f7fbff; stroke-width: 2"/>
   </g>
   <g id="line2d_46">
    <g clip-path="url(#p1cce09676c)"/>
   </g>
   <g id="line2d_47">
    <g clip-path="url(#p1cce09676c)"/>
   </g>
   <g id="LineCollection_18">
    <path d="M 80.754545 430.92 
L 80.754545 430.92 
" clip-path="url(#p1cce09676c)" style="fill: none; stroke: #f6faff; stroke-width: 2"/>
   </g>
   <g id="line2d_48">
    <defs>
     <path id="m27eef7f7f3" d="M 3 0 
L -3 -0 
" style="stroke: #f6faff"/>
    </defs>
    <g clip-path="url(#p1cce09676c)">
     <use xlink:href="#m27eef7f7f3" x="80.754545" y="430.92" style="fill: #f6faff; stroke: #f6faff"/>
    </g>
   </g>
   <g id="line2d_49">
    <g clip-path="url(#p1cce09676c)">
     <use xlink:href="#m27eef7f7f3" x="80.754545" y="430.92" style="fill: #f6faff; stroke: #f6faff"/>
    </g>
   </g>
   <g id="LineCollection_19">
    <path d="M 94.411888 430.92 
L 94.411888 216.172174 
" clip-path="url(#p1cce09676c)" style="fill: none; stroke: #f4f9fe; stroke-width: 2"/>
   </g>
   <g id="line2d_50">
    <defs>
     <path id="m4c04b0abcb" d="M 3 0 
L -3 -0 
" style="stroke: #f4f9fe"/>
    </defs>
    <g clip-path="url(#p1cce09676c)">
     <use xlink:href="#m4c04b0abcb" x="94.411888" y="430.92" style="fill: #f4f9fe; stroke: #f4f9fe"/>
    </g>
   </g>
   <g id="line2d_51">
    <g clip-path="url(#p1cce09676c)">
     <use xlink:href="#m4c04b0abcb" x="94.411888" y="216.172174" style="fill: #f4f9fe; stroke: #f4f9fe"/>
    </g>
   </g>
   <g id="LineCollection_20">
    <path d="M 108.069231 200.833043 
L 108.069231 154.815652 
" clip-path="url(#p1cce09676c)" style="fill: none; stroke: #e5eff9; stroke-width: 2"/>
   </g>
   <g id="line2d_52">
    <defs>
     <path id="m13e51ce37c" d="M 3 0 
L -3 -0 
" style="stroke: #e5eff9"/>
    </defs>
    <g clip-path="url(#p1cce09676c)">
     <use xlink:href="#m13e51ce37c" x="108.069231" y="200.833043" style="fill: #e5eff9; stroke: #e5eff9"/>
    </g>
   </g>
   <g id="line2d_53">
    <g clip-path="url(#p1cce09676c)">
     <use xlink:href="#m13e51ce37c" x="108.069231" y="154.815652" style="fill: #e5eff9; stroke: #e5eff9"/>
    </g>
   </g>
   <g id="LineCollection_21">
    <path d="M 121.726573 154.815652 
L 121.726573 123.753913 
" clip-path="url(#p1cce09676c)" style="fill: none; stroke: #bdd7ec; stroke-width: 2"/>
   </g>
   <g id="line2d_54">
    <defs>
     <path id="m21fec457b2" d="M 3 0 
L -3 -0 
" style="stroke: #bdd7ec"/>
    </defs>
    <g clip-path="url(#p1cce09676c)">
     <use xlink:href="#m21fec457b2" x="121.726573" y="154.815652" style="fill: #bdd7ec; stroke: #bdd7ec"/>
    </g>
   </g>
   <g id="line2d_55">
    <g clip-path="url(#p1cce09676c)">
     <use xlink:href="#m21fec457b2" x="121.726573" y="123.753913" style="fill: #bdd7ec; stroke: #bdd7ec"/>
    </g>
   </g>
   <g id="LineCollection_22">
    <path d="M 135.383916 124.137391 
L 135.383916 108.798261 
" clip-path="url(#p1cce09676c)" style="fill: none; stroke: #68acd5; stroke-width: 2"/>
   </g>
   <g id="line2d_56">
    <defs>
     <path id="m4fae4acd6a" d="M 3 0 
L -3 -0 
" style="stroke: #68acd5"/>
    </defs>
    <g clip-path="url(#p1cce09676c)">
     <use xlink:href="#m4fae4acd6a" x="135.383916" y="124.137391" style="fill: #68acd5; stroke: #68acd5"/>
    </g>
   </g>
   <g id="line2d_57">
    <g clip-path="url(#p1cce09676c)">
     <use xlink:href="#m4fae4acd6a" x="135.383916" y="108.798261" style="fill: #68acd5; stroke: #68acd5"/>
    </g>
   </g>
   <g id="LineCollection_23">
    <path d="M 149.041259 108.798261 
L 149.041259 93.45913 
" clip-path="url(#p1cce09676c)" style="fill: none; stroke: #2b7bba; stroke-width: 2"/>
   </g>
   <g id="line2d_58">
    <defs>
     <path id="mbc7919823d" d="M 3 0 
L -3 -0 
" style="stroke: #2b7bba"/>
    </defs>
    <g clip-path="url(#p1cce09676c)">
     <use xlink:href="#mbc7919823d" x="149.041259" y="108.798261" style="fill: #2b7bba; stroke: #2b7bba"/>
    </g>
   </g>
   <g id="line2d_59">
    <g clip-path="url(#p1cce09676c)">
     <use xlink:href="#mbc7919823d" x="149.041259" y="93.45913" style="fill: #2b7bba; stroke: #2b7bba"/>
    </g>
   </g>
   <g id="LineCollection_24">
    <path d="M 162.698601 93.45913 
L 162.698601 78.12 
" clip-path="url(#p1cce09676c)" style="fill: none; stroke: #2373b6; stroke-width: 2"/>
   </g>
   <g id="line2d_60">
    <defs>
     <path id="m694e9d9c45" d="M 3 0 
L -3 -0 
" style="stroke: #2373b6"/>
    </defs>
    <g clip-path="url(#p1cce09676c)">
     <use xlink:href="#m694e9d9c45" x="162.698601" y="93.45913" style="fill: #2373b6; stroke: #2373b6"/>
    </g>
   </g>
   <g id="line2d_61">
    <g clip-path="url(#p1cce09676c)">
     <use xlink:href="#m694e9d9c45" x="162.698601" y="78.12" style="fill: #2373b6; stroke: #2373b6"/>
    </g>
   </g>
   <g id="LineCollection_25">
    <path d="M 176.355944 93.45913 
L 176.355944 78.12 
" clip-path="url(#p1cce09676c)" style="fill: none; stroke: #3787c0; stroke-width: 2"/>
   </g>
   <g id="line2d_62">
    <defs>
     <path id="mb839f514ca" d="M 3 0 
L -3 -0 
" style="stroke: #3787c0"/>
    </defs>
    <g clip-path="url(#p1cce09676c)">
     <use xlink:href="#mb839f514ca" x="176.355944" y="93.45913" style="fill: #3787c0; stroke: #3787c0"/>
    </g>
   </g>
   <g id="line2d_63">
    <g clip-path="url(#p1cce09676c)">
     <use xlink:href="#mb839f514ca" x="176.355944" y="78.12" style="fill: #3787c0; stroke: #3787c0"/>
    </g>
   </g>
   <g id="LineCollection_26">
    <path d="M 190.013287 93.45913 
L 190.013287 78.12 
" clip-path="url(#p1cce09676c)" style="fill: none; stroke: #3a8ac2; stroke-width: 2"/>
   </g>
   <g id="line2d_64">
    <defs>
     <path id="ma233b3a373" d="M 3 0 
L -3 -0 
" style="stroke: #3a8ac2"/>
    </defs>
    <g clip-path="url(#p1cce09676c)">
     <use xlink:href="#ma233b3a373" x="190.013287" y="93.45913" style="fill: #3a8ac2; stroke: #3a8ac2"/>
    </g>
   </g>
   <g id="line2d_65">
    <g clip-path="url(#p1cce09676c)">
     <use xlink:href="#ma233b3a373" x="190.013287" y="78.12" style="fill: #3a8ac2; stroke: #3a8ac2"/>
    </g>
   </g>
   <g id="LineCollection_27">
    <path d="M 203.670629 93.45913 
L 203.670629 78.12 
" clip-path="url(#p1cce09676c)" style="fill: none; stroke: #549fcd; stroke-width: 2"/>
   </g>
   <g id="line2d_66">
    <defs>
     <path id="m62c1cfc532" d="M 3 0 
L -3 -0 
" style="stroke: #549fcd"/>
    </defs>
    <g clip-path="url(#p1cce09676c)">
     <use xlink:href="#m62c1cfc532" x="203.670629" y="93.45913" style="fill: #549fcd; stroke: #549fcd"/>
    </g>
   </g>
   <g id="line2d_67">
    <g clip-path="url(#p1cce09676c)">
     <use xlink:href="#m62c1cfc532" x="203.670629" y="78.12" style="fill: #549fcd; stroke: #549fcd"/>
    </g>
   </g>
   <g id="LineCollection_28">
    <path d="M 217.327972 93.45913 
L 217.327972 78.12 
" clip-path="url(#p1cce09676c)" style="fill: none; stroke: #56a0ce; stroke-width: 2"/>
   </g>
   <g id="line2d_68">
    <defs>
     <path id="m178551ebd6" d="M 3 0 
L -3 -0 
" style="stroke: #56a0ce"/>
    </defs>
    <g clip-path="url(#p1cce09676c)">
     <use xlink:href="#m178551ebd6" x="217.327972" y="93.45913" style="fill: #56a0ce; stroke: #56a0ce"/>
    </g>
   </g>
   <g id="line2d_69">
    <g clip-path="url(#p1cce09676c)">
     <use xlink:href="#m178551ebd6" x="217.327972" y="78.12" style="fill: #56a0ce; stroke: #56a0ce"/>
    </g>
   </g>
   <g id="LineCollection_29">
    <path d="M 230.985315 93.45913 
L 230.985315 78.12 
" clip-path="url(#p1cce09676c)" style="fill: none; stroke: #549fcd; stroke-width: 2"/>
   </g>
   <g id="line2d_70">
    <g clip-path="url(#p1cce09676c)">
     <use xlink:href="#m62c1cfc532" x="230.985315" y="93.45913" style="fill: #549fcd; stroke: #549fcd"/>
    </g>
   </g>
   <g id="line2d_71">
    <g clip-path="url(#p1cce09676c)">
     <use xlink:href="#m62c1cfc532" x="230.985315" y="78.12" style="fill: #549fcd; stroke: #549fcd"/>
    </g>
   </g>
   <g id="LineCollection_30">
    <path d="M 244.642657 93.45913 
L 244.642657 78.12 
" clip-path="url(#p1cce09676c)" style="fill: none; stroke: #4090c5; stroke-width: 2"/>
   </g>
   <g id="line2d_72">
    <defs>
     <path id="mdf2ecd467a" d="M 3 0 
L -3 -0 
" style="stroke: #4090c5"/>
    </defs>
    <g clip-path="url(#p1cce09676c)">
     <use xlink:href="#mdf2ecd467a" x="244.642657" y="93.45913" style="fill: #4090c5; stroke: #4090c5"/>
    </g>
   </g>
   <g id="line2d_73">
    <g clip-path="url(#p1cce09676c)">
     <use xlink:href="#mdf2ecd467a" x="244.642657" y="78.12" style="fill: #4090c5; stroke: #4090c5"/>
    </g>
   </g>
   <g id="LineCollection_31">
    <path d="M 258.3 93.45913 
L 258.3 78.12 
" clip-path="url(#p1cce09676c)" style="fill: none; stroke: #4e9acb; stroke-width: 2"/>
   </g>
   <g id="line2d_74">
    <defs>
     <path id="mbbcec0445c" d="M 3 0 
L -3 -0 
" style="stroke: #4e9acb"/>
    </defs>
    <g clip-path="url(#p1cce09676c)">
     <use xlink:href="#mbbcec0445c" x="258.3" y="93.45913" style="fill: #4e9acb; stroke: #4e9acb"/>
    </g>
   </g>
   <g id="line2d_75">
    <g clip-path="url(#p1cce09676c)">
     <use xlink:href="#mbbcec0445c" x="258.3" y="78.12" style="fill: #4e9acb; stroke: #4e9acb"/>
    </g>
   </g>
   <g id="LineCollection_32">
    <path d="M 271.957343 93.45913 
L 271.957343 78.12 
" clip-path="url(#p1cce09676c)" style="fill: none; stroke: #5aa2cf; stroke-width: 2"/>
   </g>
   <g id="line2d_76">
    <defs>
     <path id="m8b5e0b5e03" d="M 3 0 
L -3 -0 
" style="stroke: #5aa2cf"/>
    </defs>
    <g clip-path="url(#p1cce09676c)">
     <use xlink:href="#m8b5e0b5e03" x="271.957343" y="93.45913" style="fill: #5aa2cf; stroke: #5aa2cf"/>
    </g>
   </g>
   <g id="line2d_77">
    <g clip-path="url(#p1cce09676c)">
     <use xlink:href="#m8b5e0b5e03" x="271.957343" y="78.12" style="fill: #5aa2cf; stroke: #5aa2cf"/>
    </g>
   </g>
   <g id="LineCollection_33">
    <path d="M 285.614685 93.45913 
L 285.614685 78.12 
" clip-path="url(#p1cce09676c)" style="fill: none; stroke: #66abd4; stroke-width: 2"/>
   </g>
   <g id="line2d_78">
    <defs>
     <path id="m0560471f9d" d="M 3 0 
L -3 -0 
" style="stroke: #66abd4"/>
    </defs>
    <g clip-path="url(#p1cce09676c)">
     <use xlink:href="#m0560471f9d" x="285.614685" y="93.45913" style="fill: #66abd4; stroke: #66abd4"/>
    </g>
   </g>
   <g id="line2d_79">
    <g clip-path="url(#p1cce09676c)">
     <use xlink:href="#m0560471f9d" x="285.614685" y="78.12" style="fill: #66abd4; stroke: #66abd4"/>
    </g>
   </g>
   <g id="LineCollection_34">
    <path d="M 299.272028 108.798261 
L 299.272028 78.12 
" clip-path="url(#p1cce09676c)" style="fill: none; stroke: #519ccc; stroke-width: 2"/>
   </g>
   <g id="line2d_80">
    <defs>
     <path id="m428c000c8a" d="M 3 0 
L -3 -0 
" style="stroke: #519ccc"/>
    </defs>
    <g clip-path="url(#p1cce09676c)">
     <use xlink:href="#m428c000c8a" x="299.272028" y="108.798261" style="fill: #519ccc; stroke: #519ccc"/>
    </g>
   </g>
   <g id="line2d_81">
    <g clip-path="url(#p1cce09676c)">
     <use xlink:href="#m428c000c8a" x="299.272028" y="78.12" style="fill: #519ccc; stroke: #519ccc"/>
    </g>
   </g>
   <g id="LineCollection_35">
    <path d="M 312.929371 124.137391 
L 312.929371 93.45913 
" clip-path="url(#p1cce09676c)" style="fill: none; stroke: #3787c0; stroke-width: 2"/>
   </g>
   <g id="line2d_82">
    <g clip-path="url(#p1cce09676c)">
     <use xlink:href="#mb839f514ca" x="312.929371" y="124.137391" style="fill: #3787c0; stroke: #3787c0"/>
    </g>
   </g>
   <g id="line2d_83">
    <g clip-path="url(#p1cce09676c)">
     <use xlink:href="#mb839f514ca" x="312.929371" y="93.45913" style="fill: #3787c0; stroke: #3787c0"/>
    </g>
   </g>
   <g id="LineCollection_36">
    <path d="M 326.586713 139.476522 
L 326.586713 108.798261 
" clip-path="url(#p1cce09676c)" style="fill: none; stroke: #08306b; stroke-width: 2"/>
   </g>
   <g id="line2d_84">
    <defs>
     <path id="m159512bfa6" d="M 3 0 
L -3 -0 
" style="stroke: #08306b"/>
    </defs>
    <g clip-path="url(#p1cce09676c)">
     <use xlink:href="#m159512bfa6" x="326.586713" y="139.476522" style="fill: #08306b; stroke: #08306b"/>
    </g>
   </g>
   <g id="line2d_85">
    <g clip-path="url(#p1cce09676c)">
     <use xlink:href="#m159512bfa6" x="326.586713" y="108.798261" style="fill: #08306b; stroke: #08306b"/>
    </g>
   </g>
   <g id="LineCollection_37">
    <path d="M 340.244056 170.154783 
L 340.244056 124.137391 
" clip-path="url(#p1cce09676c)" style="fill: none; stroke: #08306b; stroke-width: 2"/>
   </g>
   <g id="line2d_86">
    <g clip-path="url(#p1cce09676c)">
     <use xlink:href="#m159512bfa6" x="340.244056" y="170.154783" style="fill: #08306b; stroke: #08306b"/>
    </g>
   </g>
   <g id="line2d_87">
    <g clip-path="url(#p1cce09676c)">
     <use xlink:href="#m159512bfa6" x="340.244056" y="124.137391" style="fill: #08306b; stroke: #08306b"/>
    </g>
   </g>
   <g id="LineCollection_38">
    <path d="M 353.901399 200.833043 
L 353.901399 154.815652 
" clip-path="url(#p1cce09676c)" style="fill: none; stroke: #08306b; stroke-width: 2"/>
   </g>
   <g id="line2d_88">
    <g clip-path="url(#p1cce09676c)">
     <use xlink:href="#m159512bfa6" x="353.901399" y="200.833043" style="fill: #08306b; stroke: #08306b"/>
    </g>
   </g>
   <g id="line2d_89">
    <g clip-path="url(#p1cce09676c)">
     <use xlink:href="#m159512bfa6" x="353.901399" y="154.815652" style="fill: #08306b; stroke: #08306b"/>
    </g>
   </g>
   <g id="LineCollection_39">
    <path d="M 367.558741 246.850435 
L 367.558741 185.493913 
" clip-path="url(#p1cce09676c)" style="fill: none; stroke: #08306b; stroke-width: 2"/>
   </g>
   <g id="line2d_90">
    <g clip-path="url(#p1cce09676c)">
     <use xlink:href="#m159512bfa6" x="367.558741" y="246.850435" style="fill: #08306b; stroke: #08306b"/>
    </g>
   </g>
   <g id="line2d_91">
    <g clip-path="url(#p1cce09676c)">
     <use xlink:href="#m159512bfa6" x="367.558741" y="185.493913" style="fill: #08306b; stroke: #08306b"/>
    </g>
   </g>
   <g id="LineCollection_40">
    <path d="M 381.216084 323.546087 
L 381.216084 216.172174 
" clip-path="url(#p1cce09676c)" style="fill: none; stroke: #08306b; stroke-width: 2"/>
   </g>
   <g id="line2d_92">
    <g clip-path="url(#p1cce09676c)">
     <use xlink:href="#m159512bfa6" x="381.216084" y="323.546087" style="fill: #08306b; stroke: #08306b"/>
    </g>
   </g>
   <g id="line2d_93">
    <g clip-path="url(#p1cce09676c)">
     <use xlink:href="#m159512bfa6" x="381.216084" y="216.172174" style="fill: #08306b; stroke: #08306b"/>
    </g>
   </g>
   <g id="LineCollection_41">
    <path d="M 394.873427 430.92 
L 394.873427 246.850435 
" clip-path="url(#p1cce09676c)" style="fill: none; stroke: #08306b; stroke-width: 2"/>
   </g>
   <g id="line2d_94">
    <g clip-path="url(#p1cce09676c)">
     <use xlink:href="#m159512bfa6" x="394.873427" y="430.92" style="fill: #08306b; stroke: #08306b"/>
    </g>
   </g>
   <g id="line2d_95">
    <g clip-path="url(#p1cce09676c)">
     <use xlink:href="#m159512bfa6" x="394.873427" y="246.850435" style="fill: #08306b; stroke: #08306b"/>
    </g>
   </g>
   <g id="LineCollection_42">
    <path d="M 408.530769 430.92 
L 408.530769 292.867826 
" clip-path="url(#p1cce09676c)" style="fill: none; stroke: #08306b; stroke-width: 2"/>
   </g>
   <g id="line2d_96">
    <g clip-path="url(#p1cce09676c)">
     <use xlink:href="#m159512bfa6" x="408.530769" y="430.92" style="fill: #08306b; stroke: #08306b"/>
    </g>
   </g>
   <g id="line2d_97">
    <g clip-path="url(#p1cce09676c)">
     <use xlink:href="#m159512bfa6" x="408.530769" y="292.867826" style="fill: #08306b; stroke: #08306b"/>
    </g>
   </g>
   <g id="LineCollection_43">
    <path d="M 422.188112 430.92 
L 422.188112 369.563478 
" clip-path="url(#p1cce09676c)" style="fill: none; stroke: #08306b; stroke-width: 2"/>
   </g>
   <g id="line2d_98">
    <g clip-path="url(#p1cce09676c)">
     <use xlink:href="#m159512bfa6" x="422.188112" y="430.92" style="fill: #08306b; stroke: #08306b"/>
    </g>
   </g>
   <g id="line2d_99">
    <g clip-path="url(#p1cce09676c)">
     <use xlink:href="#m159512bfa6" x="422.188112" y="369.563478" style="fill: #08306b; stroke: #08306b"/>
    </g>
   </g>
   <g id="LineCollection_44">
    <path d="M 435.845455 430.92 
L 435.845455 430.92 
" clip-path="url(#p1cce09676c)" style="fill: none; stroke: #d8e7f5; stroke-width: 2"/>
   </g>
   <g id="line2d_100">
    <defs>
     <path id="m61293aeeb6" d="M 3 0 
L -3 -0 
" style="stroke: #d8e7f5"/>
    </defs>
    <g clip-path="url(#p1cce09676c)">
     <use xlink:href="#m61293aeeb6" x="435.845455" y="430.92" style="fill: #d8e7f5; stroke: #d8e7f5"/>
    </g>
   </g>
   <g id="line2d_101">
    <g clip-path="url(#p1cce09676c)">
     <use xlink:href="#m61293aeeb6" x="435.845455" y="430.92" style="fill: #d8e7f5; stroke: #d8e7f5"/>
    </g>
   </g>
   <g id="LineCollection_45">
    <path clip-path="url(#p1cce09676c)" style="fill: none; stroke: #f7fbff; stroke-width: 2"/>
   </g>
   <g id="line2d_102">
    <g clip-path="url(#p1cce09676c)"/>
   </g>
   <g id="line2d_103">
    <g clip-path="url(#p1cce09676c)"/>
   </g>
   <g id="LineCollection_46">
    <path clip-path="url(#p1cce09676c)" style="fill: none; stroke: #f7fbff; stroke-width: 2"/>
   </g>
   <g id="line2d_104">
    <g clip-path="url(#p1cce09676c)"/>
   </g>
   <g id="line2d_105">
    <g clip-path="url(#p1cce09676c)"/>
   </g>
   <g id="LineCollection_47">
    <path clip-path="url(#p1cce09676c)" style="fill: none; stroke: #f7fbff; stroke-width: 2"/>
   </g>
   <g id="line2d_106">
    <g clip-path="url(#p1cce09676c)"/>
   </g>
   <g id="line2d_107">
    <g clip-path="url(#p1cce09676c)"/>
   </g>
   <g id="LineCollection_48">
    <path clip-path="url(#p1cce09676c)" style="fill: none; stroke: #f7fbff; stroke-width: 2"/>
   </g>
   <g id="line2d_108">
    <g clip-path="url(#p1cce09676c)"/>
   </g>
   <g id="line2d_109">
    <g clip-path="url(#p1cce09676c)"/>
   </g>
   <g id="LineCollection_49">
    <path clip-path="url(#p1cce09676c)" style="fill: none; stroke: #f7fbff; stroke-width: 2"/>
   </g>
   <g id="line2d_110">
    <g clip-path="url(#p1cce09676c)"/>
   </g>
   <g id="line2d_111">
    <g clip-path="url(#p1cce09676c)"/>
   </g>
   <g id="LineCollection_50">
    <path clip-path="url(#p1cce09676c)" style="fill: none; stroke: #f7fbff; stroke-width: 2"/>
   </g>
   <g id="line2d_112">
    <g clip-path="url(#p1cce09676c)"/>
   </g>
   <g id="line2d_113">
    <g clip-path="url(#p1cce09676c)"/>
   </g>
   <g id="LineCollection_51">
    <path clip-path="url(#p1cce09676c)" style="fill: none; stroke: #f7fbff; stroke-width: 2"/>
   </g>
   <g id="line2d_114">
    <g clip-path="url(#p1cce09676c)"/>
   </g>
   <g id="line2d_115">
    <g clip-path="url(#p1cce09676c)"/>
   </g>
   <g id="LineCollection_52">
    <path clip-path="url(#p1cce09676c)" style="fill: none; stroke: #f7fbff; stroke-width: 2"/>
   </g>
   <g id="line2d_116">
    <g clip-path="url(#p1cce09676c)"/>
   </g>
   <g id="line2d_117">
    <g clip-path="url(#p1cce09676c)"/>
   </g>
   <g id="line2d_118">
    <path d="M 408.530769 369.563478 
" clip-path="url(#p1cce09676c)" style="fill: none; stroke: #d62728; stroke-width: 2; stroke-linecap: square"/>
    <defs>
     <path id="ma68d24c46f" d="M -4 4 
L 4 -4 
M -4 -4 
L 4 4 
" style="stroke: #d62728"/>
    </defs>
    <g clip-path="url(#p1cce09676c)">
     <use xlink:href="#ma68d24c46f" x="408.530769" y="369.563478" style="fill: #d62728; stroke: #d62728"/>
    </g>
   </g>
   <g id="line2d_119">
    <defs>
     <path id="m5d0c667832" d="M 0 4 
C 1.060812 4 2.078319 3.578535 2.828427 2.828427 
C 3.578535 2.078319 4 1.060812 4 0 
C 4 -1.060812 3.578535 -2.078319 2.828427 -2.828427 
C 2.078319 -3.578535 1.060812 -4 0 -4 
C -1.060812 -4 -2.078319 -3.578535 -2.828427 -2.828427 
C -3.578535 -2.078319 -4 -1.060812 -4 0 
C -4 1.060812 -3.578535 2.078319 -2.828427 2.828427 
C -2.078319 3.578535 -1.060812 4 0 4 
z
" style="stroke: #f7fbff"/>
    </defs>
    <g clip-path="url(#p1cce09676c)"/>
   </g>
   <g id="line2d_120">
    <g clip-path="url(#p1cce09676c)"/>
   </g>
   <g id="line2d_121">
    <g clip-path="url(#p1cce09676c)"/>
   </g>
   <g id="line2d_122">
    <g clip-path="url(#p1cce09676c)"/>
   </g>
   <g id="line2d_123">
    <g clip-path="url(#p1cce09676c)"/>
   </g>
   <g id="line2d_124">
    <g clip-path="url(#p1cce09676c)"/>
   </g>
   <g id="line2d_125">
    <g clip-path="url(#p1cce09676c)"/>
   </g>
   <g id="line2d_126">
    <g clip-path="url(#p1cce09676c)"/>
   </g>
   <g id="line2d_127">
    <g clip-path="url(#p1cce09676c)"/>
   </g>
   <g id="line2d_128">
    <g clip-path="url(#p1cce09676c)"/>
   </g>
   <g id="line2d_129">
    <g clip-path="url(#p1cce09676c)"/>
   </g>
   <g id="line2d_130">
    <g clip-path="url(#p1cce09676c)"/>
   </g>
   <g id="line2d_131">
    <g clip-path="url(#p1cce09676c)"/>
   </g>
   <g id="line2d_132">
    <g clip-path="url(#p1cce09676c)"/>
   </g>
   <g id="line2d_133">
    <g clip-path="url(#p1cce09676c)"/>
   </g>
   <g id="line2d_134">
    <g clip-path="url(#p1cce09676c)"/>
   </g>
   <g id="line2d_135">
    <g clip-path="url(#p1cce09676c)"/>
   </g>
   <g id="line2d_136">
    <defs>
     <path id="m4eb3c6916a" d="M 0 4 
C 1.060812 4 2.078319 3.578535 2.828427 2.828427 
C 3.578535 2.078319 4 1.060812 4 0 
C 4 -1.060812 3.578535 -2.078319 2.828427 -2.828427 
C 2.078319 -3.578535 1.060812 -4 0 -4 
C -1.060812 -4 -2.078319 -3.578535 -2.828427 -2.828427 
C -3.578535 -2.078319 -4 -1.060812 -4 0 
C -4 1.060812 -3.578535 2.078319 -2.828427 2.828427 
C -2.078319 3.578535 -1.060812 4 0 4 
z
" style="stroke: #f6faff"/>
    </defs>
    <g clip-path="url(#p1cce09676c)">
     <use xlink:href="#m4eb3c6916a" x="80.754545" y="430.92" style="fill: #f6faff; stroke: #f6faff"/>
    </g>
   </g>
   <g id="line2d_137">
    <defs>
     <path id="m229236bf03" d="M 0 4 
C 1.060812 4 2.078319 3.578535 2.828427 2.828427 
C 3.578535 2.078319 4 1.060812 4 0 
C 4 -1.060812 3.578535 -2.078319 2.828427 -2.828427 
C 2.078319 -3.578535 1.060812 -4 0 -4 
C -1.060812 -4 -2.078319 -3.578535 -2.828427 -2.828427 
C -3.578535 -2.078319 -4 -1.060812 -4 0 
C -4 1.060812 -3.578535 2.078319 -2.828427 2.828427 
C -2.078319 3.578535 -1.060812 4 0 4 
z
" style="stroke: #f4f9fe"/>
    </defs>
    <g clip-path="url(#p1cce09676c)">
     <use xlink:href="#m229236bf03" x="94.411888" y="246.850435" style="fill: #f4f9fe; stroke: #f4f9fe"/>
    </g>
   </g>
   <g id="line2d_138">
    <defs>
     <path id="m539c17938f" d="M 0 4 
C 1.060812 4 2.078319 3.578535 2.828427 2.828427 
C 3.578535 2.078319 4 1.060812 4 0 
C 4 -1.060812 3.578535 -2.078319 2.828427 -2.828427 
C 2.078319 -3.578535 1.060812 -4 0 -4 
C -1.060812 -4 -2.078319 -3.578535 -2.828427 -2.828427 
C -3.578535 -2.078319 -4 -1.060812 -4 0 
C -4 1.060812 -3.578535 2.078319 -2.828427 2.828427 
C -2.078319 3.578535 -1.060812 4 0 4 
z
" style="stroke: #e5eff9"/>
    </defs>
    <g clip-path="url(#p1cce09676c)">
     <use xlink:href="#m539c17938f" x="108.069231" y="170.154783" style="fill: #e5eff9; stroke: #e5eff9"/>
    </g>
   </g>
   <g id="line2d_139">
    <defs>
     <path id="m6112e4c836" d="M 0 4 
C 1.060812 4 2.078319 3.578535 2.828427 2.828427 
C 3.578535 2.078319 4 1.060812 4 0 
C 4 -1.060812 3.578535 -2.078319 2.828427 -2.828427 
C 2.078319 -3.578535 1.060812 -4 0 -4 
C -1.060812 -4 -2.078319 -3.578535 -2.828427 -2.828427 
C -3.578535 -2.078319 -4 -1.060812 -4 0 
C -4 1.060812 -3.578535 2.078319 -2.828427 2.828427 
C -2.078319 3.578535 -1.060812 4 0 4 
z
" style="stroke: #bdd7ec"/>
    </defs>
    <g clip-path="url(#p1cce09676c)">
     <use xlink:href="#m6112e4c836" x="121.726573" y="124.137391" style="fill: #bdd7ec; stroke: #bdd7ec"/>
    </g>
   </g>
   <g id="line2d_140">
    <defs>
     <path id="m2e067d7c9c" d="M 0 4 
C 1.060812 4 2.078319 3.578535 2.828427 2.828427 
C 3.578535 2.078319 4 1.060812 4 0 
C 4 -1.060812 3.578535 -2.078319 2.828427 -2.828427 
C 2.078319 -3.578535 1.060812 -4 0 -4 
C -1.060812 -4 -2.078319 -3.578535 -2.828427 -2.828427 
C -3.578535 -2.078319 -4 -1.060812 -4 0 
C -4 1.060812 -3.578535 2.078319 -2.828427 2.828427 
C -2.078319 3.578535 -1.060812 4 0 4 
z
" style="stroke: #68acd5"/>
    </defs>
    <g clip-path="url(#p1cce09676c)">
     <use xlink:href="#m2e067d7c9c" x="135.383916" y="108.798261" style="fill: #68acd5; stroke: #68acd5"/>
    </g>
   </g>
   <g id="line2d_141">
    <defs>
     <path id="m8c9090d8d8" d="M 0 4 
C 1.060812 4 2.078319 3.578535 2.828427 2.828427 
C 3.578535 2.078319 4 1.060812 4 0 
C 4 -1.060812 3.578535 -2.078319 2.828427 -2.828427 
C 2.078319 -3.578535 1.060812 -4 0 -4 
C -1.060812 -4 -2.078319 -3.578535 -2.828427 -2.828427 
C -3.578535 -2.078319 -4 -1.060812 -4 0 
C -4 1.060812 -3.578535 2.078319 -2.828427 2.828427 
C -2.078319 3.578535 -1.060812 4 0 4 
z
" style="stroke: #2b7bba"/>
    </defs>
    <g clip-path="url(#p1cce09676c)">
     <use xlink:href="#m8c9090d8d8" x="149.041259" y="93.45913" style="fill: #2b7bba; stroke: #2b7bba"/>
    </g>
   </g>
   <g id="line2d_142">
    <defs>
     <path id="m6f20a1cfe3" d="M 0 4 
C 1.060812 4 2.078319 3.578535 2.828427 2.828427 
C 3.578535 2.078319 4 1.060812 4 0 
C 4 -1.060812 3.578535 -2.078319 2.828427 -2.828427 
C 2.078319 -3.578535 1.060812 -4 0 -4 
C -1.060812 -4 -2.078319 -3.578535 -2.828427 -2.828427 
C -3.578535 -2.078319 -4 -1.060812 -4 0 
C -4 1.060812 -3.578535 2.078319 -2.828427 2.828427 
C -2.078319 3.578535 -1.060812 4 0 4 
z
" style="stroke: #2373b6"/>
    </defs>
    <g clip-path="url(#p1cce09676c)">
     <use xlink:href="#m6f20a1cfe3" x="162.698601" y="93.45913" style="fill: #2373b6; stroke: #2373b6"/>
    </g>
   </g>
   <g id="line2d_143">
    <defs>
     <path id="m7001282336" d="M 0 4 
C 1.060812 4 2.078319 3.578535 2.828427 2.828427 
C 3.578535 2.078319 4 1.060812 4 0 
C 4 -1.060812 3.578535 -2.078319 2.828427 -2.828427 
C 2.078319 -3.578535 1.060812 -4 0 -4 
C -1.060812 -4 -2.078319 -3.578535 -2.828427 -2.828427 
C -3.578535 -2.078319 -4 -1.060812 -4 0 
C -4 1.060812 -3.578535 2.078319 -2.828427 2.828427 
C -2.078319 3.578535 -1.060812 4 0 4 
z
" style="stroke: #3787c0"/>
    </defs>
    <g clip-path="url(#p1cce09676c)">
     <use xlink:href="#m7001282336" x="176.355944" y="93.45913" style="fill: #3787c0; stroke: #3787c0"/>
    </g>
   </g>
   <g id="line2d_144">
    <defs>
     <path id="me268ea59b5" d="M 0 4 
C 1.060812 4 2.078319 3.578535 2.828427 2.828427 
C 3.578535 2.078319 4 1.060812 4 0 
C 4 -1.060812 3.578535 -2.078319 2.828427 -2.828427 
C 2.078319 -3.578535 1.060812 -4 0 -4 
C -1.060812 -4 -2.078319 -3.578535 -2.828427 -2.828427 
C -3.578535 -2.078319 -4 -1.060812 -4 0 
C -4 1.060812 -3.578535 2.078319 -2.828427 2.828427 
C -2.078319 3.578535 -1.060812 4 0 4 
z
" style="stroke: #3a8ac2"/>
    </defs>
    <g clip-path="url(#p1cce09676c)">
     <use xlink:href="#me268ea59b5" x="190.013287" y="93.45913" style="fill: #3a8ac2; stroke: #3a8ac2"/>
    </g>
   </g>
   <g id="line2d_145">
    <defs>
     <path id="ma346883858" d="M 0 4 
C 1.060812 4 2.078319 3.578535 2.828427 2.828427 
C 3.578535 2.078319 4 1.060812 4 0 
C 4 -1.060812 3.578535 -2.078319 2.828427 -2.828427 
C 2.078319 -3.578535 1.060812 -4 0 -4 
C -1.060812 -4 -2.078319 -3.578535 -2.828427 -2.828427 
C -3.578535 -2.078319 -4 -1.060812 -4 0 
C -4 1.060812 -3.578535 2.078319 -2.828427 2.828427 
C -2.078319 3.578535 -1.060812 4 0 4 
z
" style="stroke: #549fcd"/>
    </defs>
    <g clip-path="url(#p1cce09676c)">
     <use xlink:href="#ma346883858" x="203.670629" y="93.45913" style="fill: #549fcd; stroke: #549fcd"/>
    </g>
   </g>
   <g id="line2d_146">
    <defs>
     <path id="m674e0793af" d="M 0 4 
C 1.060812 4 2.078319 3.578535 2.828427 2.828427 
C 3.578535 2.078319 4 1.060812 4 0 
C 4 -1.060812 3.578535 -2.078319 2.828427 -2.828427 
C 2.078319 -3.578535 1.060812 -4 0 -4 
C -1.060812 -4 -2.078319 -3.578535 -2.828427 -2.828427 
C -3.578535 -2.078319 -4 -1.060812 -4 0 
C -4 1.060812 -3.578535 2.078319 -2.828427 2.828427 
C -2.078319 3.578535 -1.060812 4 0 4 
z
" style="stroke: #56a0ce"/>
    </defs>
    <g clip-path="url(#p1cce09676c)">
     <use xlink:href="#m674e0793af" x="217.327972" y="93.45913" style="fill: #56a0ce; stroke: #56a0ce"/>
    </g>
   </g>
   <g id="line2d_147">
    <g clip-path="url(#p1cce09676c)">
     <use xlink:href="#ma346883858" x="230.985315" y="93.45913" style="fill: #549fcd; stroke: #549fcd"/>
    </g>
   </g>
   <g id="line2d_148">
    <defs>
     <path id="m6824621191" d="M 0 4 
C 1.060812 4 2.078319 3.578535 2.828427 2.828427 
C 3.578535 2.078319 4 1.060812 4 0 
C 4 -1.060812 3.578535 -2.078319 2.828427 -2.828427 
C 2.078319 -3.578535 1.060812 -4 0 -4 
C -1.060812 -4 -2.078319 -3.578535 -2.828427 -2.828427 
C -3.578535 -2.078319 -4 -1.060812 -4 0 
C -4 1.060812 -3.578535 2.078319 -2.828427 2.828427 
C -2.078319 3.578535 -1.060812 4 0 4 
z
" style="stroke: #4090c5"/>
    </defs>
    <g clip-path="url(#p1cce09676c)">
     <use xlink:href="#m6824621191" x="244.642657" y="93.45913" style="fill: #4090c5; stroke: #4090c5"/>
    </g>
   </g>
   <g id="line2d_149">
    <defs>
     <path id="m4763e570ec" d="M 0 4 
C 1.060812 4 2.078319 3.578535 2.828427 2.828427 
C 3.578535 2.078319 4 1.060812 4 0 
C 4 -1.060812 3.578535 -2.078319 2.828427 -2.828427 
C 2.078319 -3.578535 1.060812 -4 0 -4 
C -1.060812 -4 -2.078319 -3.578535 -2.828427 -2.828427 
C -3.578535 -2.078319 -4 -1.060812 -4 0 
C -4 1.060812 -3.578535 2.078319 -2.828427 2.828427 
C -2.078319 3.578535 -1.060812 4 0 4 
z
" style="stroke: #4e9acb"/>
    </defs>
    <g clip-path="url(#p1cce09676c)">
     <use xlink:href="#m4763e570ec" x="258.3" y="93.45913" style="fill: #4e9acb; stroke: #4e9acb"/>
    </g>
   </g>
   <g id="line2d_150">
    <defs>
     <path id="m4d947e461d" d="M 0 4 
C 1.060812 4 2.078319 3.578535 2.828427 2.828427 
C 3.578535 2.078319 4 1.060812 4 0 
C 4 -1.060812 3.578535 -2.078319 2.828427 -2.828427 
C 2.078319 -3.578535 1.060812 -4 0 -4 
C -1.060812 -4 -2.078319 -3.578535 -2.828427 -2.828427 
C -3.578535 -2.078319 -4 -1.060812 -4 0 
C -4 1.060812 -3.578535 2.078319 -2.828427 2.828427 
C -2.078319 3.578535 -1.060812 4 0 4 
z
" style="stroke: #5aa2cf"/>
    </defs>
    <g clip-path="url(#p1cce09676c)">
     <use xlink:href="#m4d947e461d" x="271.957343" y="93.45913" style="fill: #5aa2cf; stroke: #5aa2cf"/>
    </g>
   </g>
   <g id="line2d_151">
    <defs>
     <path id="mc0fd230057" d="M 0 4 
C 1.060812 4 2.078319 3.578535 2.828427 2.828427 
C 3.578535 2.078319 4 1.060812 4 0 
C 4 -1.060812 3.578535 -2.078319 2.828427 -2.828427 
C 2.078319 -3.578535 1.060812 -4 0 -4 
C -1.060812 -4 -2.078319 -3.578535 -2.828427 -2.828427 
C -3.578535 -2.078319 -4 -1.060812 -4 0 
C -4 1.060812 -3.578535 2.078319 -2.828427 2.828427 
C -2.078319 3.578535 -1.060812 4 0 4 
z
" style="stroke: #66abd4"/>
    </defs>
    <g clip-path="url(#p1cce09676c)">
     <use xlink:href="#mc0fd230057" x="285.614685" y="93.45913" style="fill: #66abd4; stroke: #66abd4"/>
    </g>
   </g>
   <g id="line2d_152">
    <defs>
     <path id="med2560b06d" d="M 0 4 
C 1.060812 4 2.078319 3.578535 2.828427 2.828427 
C 3.578535 2.078319 4 1.060812 4 0 
C 4 -1.060812 3.578535 -2.078319 2.828427 -2.828427 
C 2.078319 -3.578535 1.060812 -4 0 -4 
C -1.060812 -4 -2.078319 -3.578535 -2.828427 -2.828427 
C -3.578535 -2.078319 -4 -1.060812 -4 0 
C -4 1.060812 -3.578535 2.078319 -2.828427 2.828427 
C -2.078319 3.578535 -1.060812 4 0 4 
z
" style="stroke: #519ccc"/>
    </defs>
    <g clip-path="url(#p1cce09676c)">
     <use xlink:href="#med2560b06d" x="299.272028" y="108.798261" style="fill: #519ccc; stroke: #519ccc"/>
    </g>
   </g>
   <g id="line2d_153">
    <g clip-path="url(#p1cce09676c)">
     <use xlink:href="#m7001282336" x="312.929371" y="108.798261" style="fill: #3787c0; stroke: #3787c0"/>
    </g>
   </g>
   <g id="line2d_154">
    <defs>
     <path id="m2c816d943a" d="M 0 4 
C 1.060812 4 2.078319 3.578535 2.828427 2.828427 
C 3.578535 2.078319 4 1.060812 4 0 
C 4 -1.060812 3.578535 -2.078319 2.828427 -2.828427 
C 2.078319 -3.578535 1.060812 -4 0 -4 
C -1.060812 -4 -2.078319 -3.578535 -2.828427 -2.828427 
C -3.578535 -2.078319 -4 -1.060812 -4 0 
C -4 1.060812 -3.578535 2.078319 -2.828427 2.828427 
C -2.078319 3.578535 -1.060812 4 0 4 
z
" style="stroke: #08306b"/>
    </defs>
    <g clip-path="url(#p1cce09676c)">
     <use xlink:href="#m2c816d943a" x="326.586713" y="124.137391" style="fill: #08306b; stroke: #08306b"/>
    </g>
   </g>
   <g id="line2d_155">
    <g clip-path="url(#p1cce09676c)">
     <use xlink:href="#m2c816d943a" x="340.244056" y="154.815652" style="fill: #08306b; stroke: #08306b"/>
    </g>
   </g>
   <g id="line2d_156">
    <g clip-path="url(#p1cce09676c)">
     <use xlink:href="#m2c816d943a" x="353.901399" y="185.493913" style="fill: #08306b; stroke: #08306b"/>
    </g>
   </g>
   <g id="line2d_157">
    <g clip-path="url(#p1cce09676c)">
     <use xlink:href="#m2c816d943a" x="367.558741" y="216.172174" style="fill: #08306b; stroke: #08306b"/>
    </g>
   </g>
   <g id="line2d_158">
    <g clip-path="url(#p1cce09676c)">
     <use xlink:href="#m2c816d943a" x="381.216084" y="262.189565" style="fill: #08306b; stroke: #08306b"/>
    </g>
   </g>
   <g id="line2d_159">
    <g clip-path="url(#p1cce09676c)">
     <use xlink:href="#m2c816d943a" x="394.873427" y="308.206957" style="fill: #08306b; stroke: #08306b"/>
    </g>
   </g>
   <g id="line2d_160">
    <g clip-path="url(#p1cce09676c)">
     <use xlink:href="#m2c816d943a" x="408.530769" y="354.224348" style="fill: #08306b; stroke: #08306b"/>
    </g>
   </g>
   <g id="line2d_161">
    <g clip-path="url(#p1cce09676c)">
     <use xlink:href="#m2c816d943a" x="422.188112" y="430.92" style="fill: #08306b; stroke: #08306b"/>
    </g>
   </g>
   <g id="line2d_162">
    <defs>
     <path id="md2a0828072" d="M 0 4 
C 1.060812 4 2.078319 3.578535 2.828427 2.828427 
C 3.578535 2.078319 4 1.060812 4 0 
C 4 -1.060812 3.578535 -2.078319 2.828427 -2.828427 
C 2.078319 -3.578535 1.060812 -4 0 -4 
C -1.060812 -4 -2.078319 -3.578535 -2.828427 -2.828427 
C -3.578535 -2.078319 -4 -1.060812 -4 0 
C -4 1.060812 -3.578535 2.078319 -2.828427 2.828427 
C -2.078319 3.578535 -1.060812 4 0 4 
z
" style="stroke: #d8e7f5"/>
    </defs>
    <g clip-path="url(#p1cce09676c)">
     <use xlink:href="#md2a0828072" x="435.845455" y="430.92" style="fill: #d8e7f5; stroke: #d8e7f5"/>
    </g>
   </g>
   <g id="line2d_163">
    <g clip-path="url(#p1cce09676c)"/>
   </g>
   <g id="line2d_164">
    <g clip-path="url(#p1cce09676c)"/>
   </g>
   <g id="line2d_165">
    <g clip-path="url(#p1cce09676c)"/>
   </g>
   <g id="line2d_166">
    <g clip-path="url(#p1cce09676c)"/>
   </g>
   <g id="line2d_167">
    <g clip-path="url(#p1cce09676c)"/>
   </g>
   <g id="line2d_168">
    <g clip-path="url(#p1cce09676c)"/>
   </g>
   <g id="line2d_169">
    <g clip-path="url(#p1cce09676c)"/>
   </g>
   <g id="line2d_170">
    <g clip-path="url(#p1cce09676c)"/>
   </g>
   <g id="patch_3">
    <path d="M 63 448.56 
L 63 60.48 
" style="fill: none; stroke: #000000; stroke-width: 0.8; stroke-linejoin: miter; stroke-linecap: square"/>
   </g>
   <g id="patch_4">
    <path d="M 63 448.56 
L 453.6 448.56 
" style="fill: none; stroke: #000000; stroke-width: 0.8; stroke-linejoin: miter; stroke-linecap: square"/>
   </g>
  </g>
 </g>
 <defs>
  <clipPath id="p1cce09676c">
   <rect x="63" y="60.48" width="390.6" height="388.08"/>
  </clipPath>
 </defs>
</svg>
