<?xml version="1.0" encoding="utf-8" standalone="no"?>
<!DOCTYPE svg PUBLIC "-//W3C//DTD SVG 1.1//EN"
  "http://www.w3.org/Graphics/SVG/1.1/DTD/svg11.dtd">
<svg xmlns:xlink="http://www.w3.org/1999/xlink" width="504pt" height="504pt" viewBox="0 0 504 504" xmlns="http://www.w3.org/2000/svg" version="1.1">
 <metadata>
  <rdf:RDF xmlns:dc="http://purl.org/dc/elements/1.1/" xmlns:cc="http://creativecommons.org/ns#" xmlns:rdf="http://www.w3.org/1999/02/22-rdf-syntax-ns#">
   <cc:Work>
    <dc:type rdf:resource="http://purl.org/dc/dcmitype/StillImage"/>
    <dc:date>2026-06-23T17:14:17.735724</dc:date>
    <dc:format>image/svg+xml</dc:format>
    <dc:creator>
     <cc:Agent>
      <dc:title>Matplotlib v3.11.0, https://matplotlib.org/</dc:title>
     </cc:Agent>
    </dc:creator>
   </cc:Work>
  </rdf:RDF>
 </metadata>
 <defs>
  <style type="text/css">*{stroke-linejoin: round; stroke-linecap: butt}</style>
 </defs>
 <g id="figure_1">
  <g id="patch_1">
   <path d="M 0 504 
L 504 504 
L 504 0 
L 0 0 
L 0 504 
z
" style="fill: none"/>
  </g>
  <g id="axes_1">
   <g id="patch_2">
    <path d="M 63 448.56 
L 453.6 448.56 
L 453.6 60.48 
L 63 60.48 
L 63 448.56 
z
" style="fill: none"/>
   </g>
   <g id="matplotlib.axis_1">
    <g id="xtick_1">
     <g id="line2d_1">
      <defs>
       <path id="m19447876a2" d="M 0 0 
L 0 3.5 
" style="stroke: #000000; stroke-width: 0.8"/>
      </defs>
      <g>
       <use xlink:href="#m19447876a2" x="75.876923" y="448.56" style="stroke: #000000; stroke-width: 0.8"/>
      </g>
     </g>
     <g id="text_1">
      <text style="font-size: 16px; font-family: 'Arial', sans-serif; text-anchor: middle" x="75.876923" y="467.71625" transform="rotate(-0 75.876923 467.71625)">1 May</text>
     </g>
    </g>
    <g id="xtick_2">
     <g id="line2d_2">
      <g>
       <use xlink:href="#m19447876a2" x="136.359441" y="448.56" style="stroke: #000000; stroke-width: 0.8"/>
      </g>
     </g>
     <g id="text_2">
      <text style="font-size: 16px; font-family: 'Arial', sans-serif; text-anchor: middle" x="136.359441" y="467.71625" transform="rotate(-0 136.359441 467.71625)">1 Jun</text>
     </g>
    </g>
    <g id="xtick_3">
     <g id="line2d_3">
      <g>
       <use xlink:href="#m19447876a2" x="194.890909" y="448.56" style="stroke: #000000; stroke-width: 0.8"/>
      </g>
     </g>
     <g id="text_3">
      <text style="font-size: 16px; font-family: 'Arial', sans-serif; text-anchor: middle" x="194.890909" y="467.7175" transform="rotate(-0 194.890909 467.7175)">1 Jul</text>
     </g>
    </g>
    <g id="xtick_4">
     <g id="line2d_4">
      <g>
       <use xlink:href="#m19447876a2" x="255.373427" y="448.56" style="stroke: #000000; stroke-width: 0.8"/>
      </g>
     </g>
     <g id="text_4">
      <text style="font-size: 16px; font-family: 'Arial', sans-serif; text-anchor: middle" x="255.373427" y="467.71625" transform="rotate(-0 255.373427 467.71625)">1 Aug</text>
     </g>
    </g>
    <g id="xtick_5">
     <g id="line2d_5">
      <g>
       <use xlink:href="#m19447876a2" x="315.855944" y="448.56" style="stroke: #000000; stroke-width: 0.8"/>
      </g>
     </g>
     <g id="text_5">
      <text style="font-size: 16px; font-family: 'Arial', sans-serif; text-anchor: middle" x="315.855944" y="467.71625" transform="rotate(-0 315.855944 467.71625)">1 Sep</text>
     </g>
    </g>
    <g id="xtick_6">
     <g id="line2d_6">
      <g>
       <use xlink:href="#m19447876a2" x="374.387413" y="448.56" style="stroke: #000000; stroke-width: 0.8"/>
      </g>
     </g>
     <g id="text_6">
      <text style="font-size: 16px; font-family: 'Arial', sans-serif; text-anchor: middle" x="374.387413" y="467.71625" transform="rotate(-0 374.387413 467.71625)">1 Oct</text>
     </g>
    </g>
    <g id="xtick_7">
     <g id="line2d_7">
      <g>
       <use xlink:href="#m19447876a2" x="434.86993" y="448.56" style="stroke: #000000; stroke-width: 0.8"/>
      </g>
     </g>
     <g id="text_7">
      <text style="font-size: 16px; font-family: 'Arial', sans-serif; text-anchor: middle" x="434.86993" y="467.71625" transform="rotate(-0 434.86993 467.71625)">1 Nov</text>
     </g>
    </g>
    <g id="text_8">
     <text style="font-size: 16px; font-family: 'Arial', sans-serif; text-anchor: middle" x="258.3" y="487.71875" transform="rotate(-0 258.3 487.71875)">Week of last observed case</text>
    </g>
   </g>
   <g id="matplotlib.axis_2">
    <g id="ytick_1">
     <g id="line2d_8">
      <defs>
       <path id="m67e282f065" d="M 0 0 
L -3.5 0 
" style="stroke: #000000; stroke-width: 0.8"/>
      </defs>
      <g>
       <use xlink:href="#m67e282f065" x="63" y="443.986667" style="stroke: #000000; stroke-width: 0.8"/>
      </g>
     </g>
     <g id="text_9">
      <text style="font-size: 16px; font-family: 'Arial', sans-serif; text-anchor: end" x="56" y="450.064792" transform="rotate(-0 56 450.064792)">0</text>
     </g>
    </g>
    <g id="ytick_2">
     <g id="line2d_9">
      <g>
       <use xlink:href="#m67e282f065" x="63" y="378.653333" style="stroke: #000000; stroke-width: 0.8"/>
      </g>
     </g>
     <g id="text_10">
      <text style="font-size: 16px; font-family: 'Arial', sans-serif; text-anchor: end" x="56" y="384.731458" transform="rotate(-0 56 384.731458)">5</text>
     </g>
    </g>
    <g id="ytick_3">
     <g id="line2d_10">
      <g>
       <use xlink:href="#m67e282f065" x="63" y="313.32" style="stroke: #000000; stroke-width: 0.8"/>
      </g>
     </g>
     <g id="text_11">
      <text style="font-size: 16px; font-family: 'Arial', sans-serif; text-anchor: end" x="56" y="319.398125" transform="rotate(-0 56 319.398125)">10</text>
     </g>
    </g>
    <g id="ytick_4">
     <g id="line2d_11">
      <g>
       <use xlink:href="#m67e282f065" x="63" y="247.986667" style="stroke: #000000; stroke-width: 0.8"/>
      </g>
     </g>
     <g id="text_12">
      <text style="font-size: 16px; font-family: 'Arial', sans-serif; text-anchor: end" x="56" y="254.064792" transform="rotate(-0 56 254.064792)">15</text>
     </g>
    </g>
    <g id="ytick_5">
     <g id="line2d_12">
      <g>
       <use xlink:href="#m67e282f065" x="63" y="182.653333" style="stroke: #000000; stroke-width: 0.8"/>
      </g>
     </g>
     <g id="text_13">
      <text style="font-size: 16px; font-family: 'Arial', sans-serif; text-anchor: end" x="56" y="188.731458" transform="rotate(-0 56 188.731458)">20</text>
     </g>
    </g>
    <g id="ytick_6">
     <g id="line2d_13">
      <g>
       <use xlink:href="#m67e282f065" x="63" y="117.32" style="stroke: #000000; stroke-width: 0.8"/>
      </g>
     </g>
     <g id="text_14">
      <text style="font-size: 16px; font-family: 'Arial', sans-serif; text-anchor: end" x="56" y="123.398125" transform="rotate(-0 56 123.398125)">25</text>
     </g>
    </g>
    <g id="text_15">
     <text style="font-size: 16px; font-family: 'Arial', sans-serif" transform="translate(6.990312 373.18) rotate(-90)">Days from last observed case</text>
     <text style="font-size: 16px; font-family: 'Arial', sans-serif" transform="translate(26.194687 374.39) rotate(-90)">until risk falls below threshold</text>
    </g>
   </g>
   <g id="LineCollection_1">
    <path clip-path="url(#pf9f84d4977)" style="fill: none; stroke: #f7fbff; stroke-width: 2"/>
   </g>
   <g id="line2d_14">
    <defs>
     <path id="mbbc4ba2feb" d="M 3 0 
L -3 -0 
" style="stroke: #f7fbff"/>
    </defs>
    <g clip-path="url(#pf9f84d4977)"/>
   </g>
   <g id="line2d_15">
    <g clip-path="url(#pf9f84d4977)"/>
   </g>
   <g id="LineCollection_2">
    <path clip-path="url(#pf9f84d4977)" style="fill: none; stroke: #f7fbff; stroke-width: 2"/>
   </g>
   <g id="line2d_16">
    <g clip-path="url(#pf9f84d4977)"/>
   </g>
   <g id="line2d_17">
    <g clip-path="url(#pf9f84d4977)"/>
   </g>
   <g id="LineCollection_3">
    <path clip-path="url(#pf9f84d4977)" style="fill: none; stroke: #f7fbff; stroke-width: 2"/>
   </g>
   <g id="line2d_18">
    <g clip-path="url(#pf9f84d4977)"/>
   </g>
   <g id="line2d_19">
    <g clip-path="url(#pf9f84d4977)"/>
   </g>
   <g id="LineCollection_4">
    <path clip-path="url(#pf9f84d4977)" style="fill: none; stroke: #f7fbff; stroke-width: 2"/>
   </g>
   <g id="line2d_20">
    <g clip-path="url(#pf9f84d4977)"/>
   </g>
   <g id="line2d_21">
    <g clip-path="url(#pf9f84d4977)"/>
   </g>
   <g id="LineCollection_5">
    <path clip-path="url(#pf9f84d4977)" style="fill: none; stroke: #f7fbff; stroke-width: 2"/>
   </g>
   <g id="line2d_22">
    <g clip-path="url(#pf9f84d4977)"/>
   </g>
   <g id="line2d_23">
    <g clip-path="url(#pf9f84d4977)"/>
   </g>
   <g id="LineCollection_6">
    <path clip-path="url(#pf9f84d4977)" style="fill: none; stroke: #f7fbff; stroke-width: 2"/>
   </g>
   <g id="line2d_24">
    <g clip-path="url(#pf9f84d4977)"/>
   </g>
   <g id="line2d_25">
    <g clip-path="url(#pf9f84d4977)"/>
   </g>
   <g id="LineCollection_7">
    <path clip-path="url(#pf9f84d4977)" style="fill: none; stroke: #f7fbff; stroke-width: 2"/>
   </g>
   <g id="line2d_26">
    <g clip-path="url(#pf9f84d4977)"/>
   </g>
   <g id="line2d_27">
    <g clip-path="url(#pf9f84d4977)"/>
   </g>
   <g id="LineCollection_8">
    <path clip-path="url(#pf9f84d4977)" style="fill: none; stroke: #f7fbff; stroke-width: 2"/>
   </g>
   <g id="line2d_28">
    <g clip-path="url(#pf9f84d4977)"/>
   </g>
   <g id="line2d_29">
    <g clip-path="url(#pf9f84d4977)"/>
   </g>
   <g id="LineCollection_9">
    <path clip-path="url(#pf9f84d4977)" style="fill: none; stroke: #f7fbff; stroke-width: 2"/>
   </g>
   <g id="line2d_30">
    <g clip-path="url(#pf9f84d4977)"/>
   </g>
   <g id="line2d_31">
    <g clip-path="url(#pf9f84d4977)"/>
   </g>
   <g id="LineCollection_10">
    <path clip-path="url(#pf9f84d4977)" style="fill: none; stroke: #f7fbff; stroke-width: 2"/>
   </g>
   <g id="line2d_32">
    <g clip-path="url(#pf9f84d4977)"/>
   </g>
   <g id="line2d_33">
    <g clip-path="url(#pf9f84d4977)"/>
   </g>
   <g id="LineCollection_11">
    <path clip-path="url(#pf9f84d4977)" style="fill: none; stroke: #f7fbff; stroke-width: 2"/>
   </g>
   <g id="line2d_34">
    <g clip-path="url(#pf9f84d4977)"/>
   </g>
   <g id="line2d_35">
    <g clip-path="url(#pf9f84d4977)"/>
   </g>
   <g id="LineCollection_12">
    <path clip-path="url(#pf9f84d4977)" style="fill: none; stroke: #f7fbff; stroke-width: 2"/>
   </g>
   <g id="line2d_36">
    <g clip-path="url(#pf9f84d4977)"/>
   </g>
   <g id="line2d_37">
    <g clip-path="url(#pf9f84d4977)"/>
   </g>
   <g id="LineCollection_13">
    <path clip-path="url(#pf9f84d4977)" style="fill: none; stroke: #f7fbff; stroke-width: 2"/>
   </g>
   <g id="line2d_38">
    <g clip-path="url(#pf9f84d4977)"/>
   </g>
   <g id="line2d_39">
    <g clip-path="url(#pf9f84d4977)"/>
   </g>
   <g id="LineCollection_14">
    <path clip-path="url(#pf9f84d4977)" style="fill: none; stroke: #f7fbff; stroke-width: 2"/>
   </g>
   <g id="line2d_40">
    <g clip-path="url(#pf9f84d4977)"/>
   </g>
   <g id="line2d_41">
    <g clip-path="url(#pf9f84d4977)"/>
   </g>
   <g id="LineCollection_15">
    <path clip-path="url(#pf9f84d4977)" style="fill: none; stroke: #f7fbff; stroke-width: 2"/>
   </g>
   <g id="line2d_42">
    <g clip-path="url(#pf9f84d4977)"/>
   </g>
   <g id="line2d_43">
    <g clip-path="url(#pf9f84d4977)"/>
   </g>
   <g id="LineCollection_16">
    <path clip-path="url(#pf9f84d4977)" style="fill: none; stroke: #f7fbff; stroke-width: 2"/>
   </g>
   <g id="line2d_44">
    <g clip-path="url(#pf9f84d4977)"/>
   </g>
   <g id="line2d_45">
    <g clip-path="url(#pf9f84d4977)"/>
   </g>
   <g id="LineCollection_17">
    <path clip-path="url(#pf9f84d4977)" style="fill: none; stroke: #f7fbff; stroke-width: 2"/>
   </g>
   <g id="line2d_46">
    <g clip-path="url(#pf9f84d4977)"/>
   </g>
   <g id="line2d_47">
    <g clip-path="url(#pf9f84d4977)"/>
   </g>
   <g id="LineCollection_18">
    <path d="M 80.754545 287.186667 
L 80.754545 197.68 
" clip-path="url(#pf9f84d4977)" style="fill: none; stroke: #f6faff; stroke-width: 2"/>
   </g>
   <g id="line2d_48">
    <defs>
     <path id="m2b03c65cf2" d="M 3 0 
L -3 -0 
" style="stroke: #f6faff"/>
    </defs>
    <g clip-path="url(#pf9f84d4977)">
     <use xlink:href="#m2b03c65cf2" x="80.754545" y="287.186667" style="fill: #f6faff; stroke: #f6faff"/>
    </g>
   </g>
   <g id="line2d_49">
    <g clip-path="url(#pf9f84d4977)">
     <use xlink:href="#m2b03c65cf2" x="80.754545" y="197.68" style="fill: #f6faff; stroke: #f6faff"/>
    </g>
   </g>
   <g id="LineCollection_19">
    <path d="M 94.411888 190.82 
L 94.411888 143.453333 
" clip-path="url(#pf9f84d4977)" style="fill: none; stroke: #f4f9fe; stroke-width: 2"/>
   </g>
   <g id="line2d_50">
    <defs>
     <path id="m66c0d5561e" d="M 3 0 
L -3 -0 
" style="stroke: #f4f9fe"/>
    </defs>
    <g clip-path="url(#pf9f84d4977)">
     <use xlink:href="#m66c0d5561e" x="94.411888" y="190.82" style="fill: #f4f9fe; stroke: #f4f9fe"/>
    </g>
   </g>
   <g id="line2d_51">
    <g clip-path="url(#pf9f84d4977)">
     <use xlink:href="#m66c0d5561e" x="94.411888" y="143.453333" style="fill: #f4f9fe; stroke: #f4f9fe"/>
    </g>
   </g>
   <g id="LineCollection_20">
    <path d="M 108.069231 143.453333 
L 108.069231 117.32 
" clip-path="url(#pf9f84d4977)" style="fill: none; stroke: #e5eff9; stroke-width: 2"/>
   </g>
   <g id="line2d_52">
    <defs>
     <path id="m1b53f72604" d="M 3 0 
L -3 -0 
" style="stroke: #e5eff9"/>
    </defs>
    <g clip-path="url(#pf9f84d4977)">
     <use xlink:href="#m1b53f72604" x="108.069231" y="143.453333" style="fill: #e5eff9; stroke: #e5eff9"/>
    </g>
   </g>
   <g id="line2d_53">
    <g clip-path="url(#pf9f84d4977)">
     <use xlink:href="#m1b53f72604" x="108.069231" y="117.32" style="fill: #e5eff9; stroke: #e5eff9"/>
    </g>
   </g>
   <g id="LineCollection_21">
    <path d="M 121.726573 117.32 
L 121.726573 104.253333 
" clip-path="url(#pf9f84d4977)" style="fill: none; stroke: #bdd7ec; stroke-width: 2"/>
   </g>
   <g id="line2d_54">
    <defs>
     <path id="m13f33e597e" d="M 3 0 
L -3 -0 
" style="stroke: #bdd7ec"/>
    </defs>
    <g clip-path="url(#pf9f84d4977)">
     <use xlink:href="#m13f33e597e" x="121.726573" y="117.32" style="fill: #bdd7ec; stroke: #bdd7ec"/>
    </g>
   </g>
   <g id="line2d_55">
    <g clip-path="url(#pf9f84d4977)">
     <use xlink:href="#m13f33e597e" x="121.726573" y="104.253333" style="fill: #bdd7ec; stroke: #bdd7ec"/>
    </g>
   </g>
   <g id="LineCollection_22">
    <path d="M 135.383916 104.253333 
L 135.383916 91.186667 
" clip-path="url(#pf9f84d4977)" style="fill: none; stroke: #68acd5; stroke-width: 2"/>
   </g>
   <g id="line2d_56">
    <defs>
     <path id="m550fa3dab3" d="M 3 0 
L -3 -0 
" style="stroke: #68acd5"/>
    </defs>
    <g clip-path="url(#pf9f84d4977)">
     <use xlink:href="#m550fa3dab3" x="135.383916" y="104.253333" style="fill: #68acd5; stroke: #68acd5"/>
    </g>
   </g>
   <g id="line2d_57">
    <g clip-path="url(#pf9f84d4977)">
     <use xlink:href="#m550fa3dab3" x="135.383916" y="91.186667" style="fill: #68acd5; stroke: #68acd5"/>
    </g>
   </g>
   <g id="LineCollection_23">
    <path d="M 149.041259 91.186667 
L 149.041259 91.186667 
" clip-path="url(#pf9f84d4977)" style="fill: none; stroke: #2b7bba; stroke-width: 2"/>
   </g>
   <g id="line2d_58">
    <defs>
     <path id="m1fc2f37019" d="M 3 0 
L -3 -0 
" style="stroke: #2b7bba"/>
    </defs>
    <g clip-path="url(#pf9f84d4977)">
     <use xlink:href="#m1fc2f37019" x="149.041259" y="91.186667" style="fill: #2b7bba; stroke: #2b7bba"/>
    </g>
   </g>
   <g id="line2d_59">
    <g clip-path="url(#pf9f84d4977)">
     <use xlink:href="#m1fc2f37019" x="149.041259" y="91.186667" style="fill: #2b7bba; stroke: #2b7bba"/>
    </g>
   </g>
   <g id="LineCollection_24">
    <path d="M 162.698601 91.186667 
L 162.698601 78.12 
" clip-path="url(#pf9f84d4977)" style="fill: none; stroke: #2373b6; stroke-width: 2"/>
   </g>
   <g id="line2d_60">
    <defs>
     <path id="m431f988a22" d="M 3 0 
L -3 -0 
" style="stroke: #2373b6"/>
    </defs>
    <g clip-path="url(#pf9f84d4977)">
     <use xlink:href="#m431f988a22" x="162.698601" y="91.186667" style="fill: #2373b6; stroke: #2373b6"/>
    </g>
   </g>
   <g id="line2d_61">
    <g clip-path="url(#pf9f84d4977)">
     <use xlink:href="#m431f988a22" x="162.698601" y="78.12" style="fill: #2373b6; stroke: #2373b6"/>
    </g>
   </g>
   <g id="LineCollection_25">
    <path d="M 176.355944 91.186667 
L 176.355944 78.12 
" clip-path="url(#pf9f84d4977)" style="fill: none; stroke: #3787c0; stroke-width: 2"/>
   </g>
   <g id="line2d_62">
    <defs>
     <path id="m3e4df36ee4" d="M 3 0 
L -3 -0 
" style="stroke: #3787c0"/>
    </defs>
    <g clip-path="url(#pf9f84d4977)">
     <use xlink:href="#m3e4df36ee4" x="176.355944" y="91.186667" style="fill: #3787c0; stroke: #3787c0"/>
    </g>
   </g>
   <g id="line2d_63">
    <g clip-path="url(#pf9f84d4977)">
     <use xlink:href="#m3e4df36ee4" x="176.355944" y="78.12" style="fill: #3787c0; stroke: #3787c0"/>
    </g>
   </g>
   <g id="LineCollection_26">
    <path d="M 190.013287 91.186667 
L 190.013287 78.12 
" clip-path="url(#pf9f84d4977)" style="fill: none; stroke: #3a8ac2; stroke-width: 2"/>
   </g>
   <g id="line2d_64">
    <defs>
     <path id="m41b64444ff" d="M 3 0 
L -3 -0 
" style="stroke: #3a8ac2"/>
    </defs>
    <g clip-path="url(#pf9f84d4977)">
     <use xlink:href="#m41b64444ff" x="190.013287" y="91.186667" style="fill: #3a8ac2; stroke: #3a8ac2"/>
    </g>
   </g>
   <g id="line2d_65">
    <g clip-path="url(#pf9f84d4977)">
     <use xlink:href="#m41b64444ff" x="190.013287" y="78.12" style="fill: #3a8ac2; stroke: #3a8ac2"/>
    </g>
   </g>
   <g id="LineCollection_27">
    <path d="M 203.670629 91.186667 
L 203.670629 78.12 
" clip-path="url(#pf9f84d4977)" style="fill: none; stroke: #549fcd; stroke-width: 2"/>
   </g>
   <g id="line2d_66">
    <defs>
     <path id="m2a21b3422d" d="M 3 0 
L -3 -0 
" style="stroke: #549fcd"/>
    </defs>
    <g clip-path="url(#pf9f84d4977)">
     <use xlink:href="#m2a21b3422d" x="203.670629" y="91.186667" style="fill: #549fcd; stroke: #549fcd"/>
    </g>
   </g>
   <g id="line2d_67">
    <g clip-path="url(#pf9f84d4977)">
     <use xlink:href="#m2a21b3422d" x="203.670629" y="78.12" style="fill: #549fcd; stroke: #549fcd"/>
    </g>
   </g>
   <g id="LineCollection_28">
    <path d="M 217.327972 91.186667 
L 217.327972 78.12 
" clip-path="url(#pf9f84d4977)" style="fill: none; stroke: #56a0ce; stroke-width: 2"/>
   </g>
   <g id="line2d_68">
    <defs>
     <path id="mb740cdb74b" d="M 3 0 
L -3 -0 
" style="stroke: #56a0ce"/>
    </defs>
    <g clip-path="url(#pf9f84d4977)">
     <use xlink:href="#mb740cdb74b" x="217.327972" y="91.186667" style="fill: #56a0ce; stroke: #56a0ce"/>
    </g>
   </g>
   <g id="line2d_69">
    <g clip-path="url(#pf9f84d4977)">
     <use xlink:href="#mb740cdb74b" x="217.327972" y="78.12" style="fill: #56a0ce; stroke: #56a0ce"/>
    </g>
   </g>
   <g id="LineCollection_29">
    <path d="M 230.985315 91.186667 
L 230.985315 78.12 
" clip-path="url(#pf9f84d4977)" style="fill: none; stroke: #549fcd; stroke-width: 2"/>
   </g>
   <g id="line2d_70">
    <g clip-path="url(#pf9f84d4977)">
     <use xlink:href="#m2a21b3422d" x="230.985315" y="91.186667" style="fill: #549fcd; stroke: #549fcd"/>
    </g>
   </g>
   <g id="line2d_71">
    <g clip-path="url(#pf9f84d4977)">
     <use xlink:href="#m2a21b3422d" x="230.985315" y="78.12" style="fill: #549fcd; stroke: #549fcd"/>
    </g>
   </g>
   <g id="LineCollection_30">
    <path d="M 244.642657 91.186667 
L 244.642657 78.12 
" clip-path="url(#pf9f84d4977)" style="fill: none; stroke: #4090c5; stroke-width: 2"/>
   </g>
   <g id="line2d_72">
    <defs>
     <path id="mc1d1171b92" d="M 3 0 
L -3 -0 
" style="stroke: #4090c5"/>
    </defs>
    <g clip-path="url(#pf9f84d4977)">
     <use xlink:href="#mc1d1171b92" x="244.642657" y="91.186667" style="fill: #4090c5; stroke: #4090c5"/>
    </g>
   </g>
   <g id="line2d_73">
    <g clip-path="url(#pf9f84d4977)">
     <use xlink:href="#mc1d1171b92" x="244.642657" y="78.12" style="fill: #4090c5; stroke: #4090c5"/>
    </g>
   </g>
   <g id="LineCollection_31">
    <path d="M 258.3 91.186667 
L 258.3 78.12 
" clip-path="url(#pf9f84d4977)" style="fill: none; stroke: #4e9acb; stroke-width: 2"/>
   </g>
   <g id="line2d_74">
    <defs>
     <path id="mbf77efc1b5" d="M 3 0 
L -3 -0 
" style="stroke: #4e9acb"/>
    </defs>
    <g clip-path="url(#pf9f84d4977)">
     <use xlink:href="#mbf77efc1b5" x="258.3" y="91.186667" style="fill: #4e9acb; stroke: #4e9acb"/>
    </g>
   </g>
   <g id="line2d_75">
    <g clip-path="url(#pf9f84d4977)">
     <use xlink:href="#mbf77efc1b5" x="258.3" y="78.12" style="fill: #4e9acb; stroke: #4e9acb"/>
    </g>
   </g>
   <g id="LineCollection_32">
    <path d="M 271.957343 91.186667 
L 271.957343 78.12 
" clip-path="url(#pf9f84d4977)" style="fill: none; stroke: #5aa2cf; stroke-width: 2"/>
   </g>
   <g id="line2d_76">
    <defs>
     <path id="m8f03845b0a" d="M 3 0 
L -3 -0 
" style="stroke: #5aa2cf"/>
    </defs>
    <g clip-path="url(#pf9f84d4977)">
     <use xlink:href="#m8f03845b0a" x="271.957343" y="91.186667" style="fill: #5aa2cf; stroke: #5aa2cf"/>
    </g>
   </g>
   <g id="line2d_77">
    <g clip-path="url(#pf9f84d4977)">
     <use xlink:href="#m8f03845b0a" x="271.957343" y="78.12" style="fill: #5aa2cf; stroke: #5aa2cf"/>
    </g>
   </g>
   <g id="LineCollection_33">
    <path d="M 285.614685 91.186667 
L 285.614685 78.12 
" clip-path="url(#pf9f84d4977)" style="fill: none; stroke: #66abd4; stroke-width: 2"/>
   </g>
   <g id="line2d_78">
    <defs>
     <path id="mfa97e55717" d="M 3 0 
L -3 -0 
" style="stroke: #66abd4"/>
    </defs>
    <g clip-path="url(#pf9f84d4977)">
     <use xlink:href="#mfa97e55717" x="285.614685" y="91.186667" style="fill: #66abd4; stroke: #66abd4"/>
    </g>
   </g>
   <g id="line2d_79">
    <g clip-path="url(#pf9f84d4977)">
     <use xlink:href="#mfa97e55717" x="285.614685" y="78.12" style="fill: #66abd4; stroke: #66abd4"/>
    </g>
   </g>
   <g id="LineCollection_34">
    <path d="M 299.272028 104.253333 
L 299.272028 91.186667 
" clip-path="url(#pf9f84d4977)" style="fill: none; stroke: #519ccc; stroke-width: 2"/>
   </g>
   <g id="line2d_80">
    <defs>
     <path id="m1a97588501" d="M 3 0 
L -3 -0 
" style="stroke: #519ccc"/>
    </defs>
    <g clip-path="url(#pf9f84d4977)">
     <use xlink:href="#m1a97588501" x="299.272028" y="104.253333" style="fill: #519ccc; stroke: #519ccc"/>
    </g>
   </g>
   <g id="line2d_81">
    <g clip-path="url(#pf9f84d4977)">
     <use xlink:href="#m1a97588501" x="299.272028" y="91.186667" style="fill: #519ccc; stroke: #519ccc"/>
    </g>
   </g>
   <g id="LineCollection_35">
    <path d="M 312.929371 117.32 
L 312.929371 104.253333 
" clip-path="url(#pf9f84d4977)" style="fill: none; stroke: #3787c0; stroke-width: 2"/>
   </g>
   <g id="line2d_82">
    <g clip-path="url(#pf9f84d4977)">
     <use xlink:href="#m3e4df36ee4" x="312.929371" y="117.32" style="fill: #3787c0; stroke: #3787c0"/>
    </g>
   </g>
   <g id="line2d_83">
    <g clip-path="url(#pf9f84d4977)">
     <use xlink:href="#m3e4df36ee4" x="312.929371" y="104.253333" style="fill: #3787c0; stroke: #3787c0"/>
    </g>
   </g>
   <g id="LineCollection_36">
    <path d="M 326.586713 143.453333 
L 326.586713 117.32 
" clip-path="url(#pf9f84d4977)" style="fill: none; stroke: #08306b; stroke-width: 2"/>
   </g>
   <g id="line2d_84">
    <defs>
     <path id="m62f41e7e2c" d="M 3 0 
L -3 -0 
" style="stroke: #08306b"/>
    </defs>
    <g clip-path="url(#pf9f84d4977)">
     <use xlink:href="#m62f41e7e2c" x="326.586713" y="143.453333" style="fill: #08306b; stroke: #08306b"/>
    </g>
   </g>
   <g id="line2d_85">
    <g clip-path="url(#pf9f84d4977)">
     <use xlink:href="#m62f41e7e2c" x="326.586713" y="117.32" style="fill: #08306b; stroke: #08306b"/>
    </g>
   </g>
   <g id="LineCollection_37">
    <path d="M 340.244056 156.52 
L 340.244056 130.386667 
" clip-path="url(#pf9f84d4977)" style="fill: none; stroke: #08306b; stroke-width: 2"/>
   </g>
   <g id="line2d_86">
    <g clip-path="url(#pf9f84d4977)">
     <use xlink:href="#m62f41e7e2c" x="340.244056" y="156.52" style="fill: #08306b; stroke: #08306b"/>
    </g>
   </g>
   <g id="line2d_87">
    <g clip-path="url(#pf9f84d4977)">
     <use xlink:href="#m62f41e7e2c" x="340.244056" y="130.386667" style="fill: #08306b; stroke: #08306b"/>
    </g>
   </g>
   <g id="LineCollection_38">
    <path d="M 353.901399 182.653333 
L 353.901399 143.453333 
" clip-path="url(#pf9f84d4977)" style="fill: none; stroke: #08306b; stroke-width: 2"/>
   </g>
   <g id="line2d_88">
    <g clip-path="url(#pf9f84d4977)">
     <use xlink:href="#m62f41e7e2c" x="353.901399" y="182.653333" style="fill: #08306b; stroke: #08306b"/>
    </g>
   </g>
   <g id="line2d_89">
    <g clip-path="url(#pf9f84d4977)">
     <use xlink:href="#m62f41e7e2c" x="353.901399" y="143.453333" style="fill: #08306b; stroke: #08306b"/>
    </g>
   </g>
   <g id="LineCollection_39">
    <path d="M 367.558741 221.853333 
L 367.558741 169.586667 
" clip-path="url(#pf9f84d4977)" style="fill: none; stroke: #08306b; stroke-width: 2"/>
   </g>
   <g id="line2d_90">
    <g clip-path="url(#pf9f84d4977)">
     <use xlink:href="#m62f41e7e2c" x="367.558741" y="221.853333" style="fill: #08306b; stroke: #08306b"/>
    </g>
   </g>
   <g id="line2d_91">
    <g clip-path="url(#pf9f84d4977)">
     <use xlink:href="#m62f41e7e2c" x="367.558741" y="169.586667" style="fill: #08306b; stroke: #08306b"/>
    </g>
   </g>
   <g id="LineCollection_40">
    <path d="M 381.216084 274.12 
L 381.216084 208.786667 
" clip-path="url(#pf9f84d4977)" style="fill: none; stroke: #08306b; stroke-width: 2"/>
   </g>
   <g id="line2d_92">
    <g clip-path="url(#pf9f84d4977)">
     <use xlink:href="#m62f41e7e2c" x="381.216084" y="274.12" style="fill: #08306b; stroke: #08306b"/>
    </g>
   </g>
   <g id="line2d_93">
    <g clip-path="url(#pf9f84d4977)">
     <use xlink:href="#m62f41e7e2c" x="381.216084" y="208.786667" style="fill: #08306b; stroke: #08306b"/>
    </g>
   </g>
   <g id="LineCollection_41">
    <path d="M 394.873427 326.386667 
L 394.873427 234.92 
" clip-path="url(#pf9f84d4977)" style="fill: none; stroke: #08306b; stroke-width: 2"/>
   </g>
   <g id="line2d_94">
    <g clip-path="url(#pf9f84d4977)">
     <use xlink:href="#m62f41e7e2c" x="394.873427" y="326.386667" style="fill: #08306b; stroke: #08306b"/>
    </g>
   </g>
   <g id="line2d_95">
    <g clip-path="url(#pf9f84d4977)">
     <use xlink:href="#m62f41e7e2c" x="394.873427" y="234.92" style="fill: #08306b; stroke: #08306b"/>
    </g>
   </g>
   <g id="LineCollection_42">
    <path d="M 408.530769 404.786667 
L 408.530769 274.12 
" clip-path="url(#pf9f84d4977)" style="fill: none; stroke: #08306b; stroke-width: 2"/>
   </g>
   <g id="line2d_96">
    <g clip-path="url(#pf9f84d4977)">
     <use xlink:href="#m62f41e7e2c" x="408.530769" y="404.786667" style="fill: #08306b; stroke: #08306b"/>
    </g>
   </g>
   <g id="line2d_97">
    <g clip-path="url(#pf9f84d4977)">
     <use xlink:href="#m62f41e7e2c" x="408.530769" y="274.12" style="fill: #08306b; stroke: #08306b"/>
    </g>
   </g>
   <g id="LineCollection_43">
    <path d="M 422.188112 430.92 
L 422.188112 339.453333 
" clip-path="url(#pf9f84d4977)" style="fill: none; stroke: #08306b; stroke-width: 2"/>
   </g>
   <g id="line2d_98">
    <g clip-path="url(#pf9f84d4977)">
     <use xlink:href="#m62f41e7e2c" x="422.188112" y="430.92" style="fill: #08306b; stroke: #08306b"/>
    </g>
   </g>
   <g id="line2d_99">
    <g clip-path="url(#pf9f84d4977)">
     <use xlink:href="#m62f41e7e2c" x="422.188112" y="339.453333" style="fill: #08306b; stroke: #08306b"/>
    </g>
   </g>
   <g id="LineCollection_44">
    <path d="M 435.845455 430.92 
L 435.845455 417.853333 
" clip-path="url(#pf9f84d4977)" style="fill: none; stroke: #d8e7f5; stroke-width: 2"/>
   </g>
   <g id="line2d_100">
    <defs>
     <path id="mf716b23eaf" d="M 3 0 
L -3 -0 
" style="stroke: #d8e7f5"/>
    </defs>
    <g clip-path="url(#pf9f84d4977)">
     <use xlink:href="#mf716b23eaf" x="435.845455" y="430.92" style="fill: #d8e7f5; stroke: #d8e7f5"/>
    </g>
   </g>
   <g id="line2d_101">
    <g clip-path="url(#pf9f84d4977)">
     <use xlink:href="#mf716b23eaf" x="435.845455" y="417.853333" style="fill: #d8e7f5; stroke: #d8e7f5"/>
    </g>
   </g>
   <g id="LineCollection_45">
    <path clip-path="url(#pf9f84d4977)" style="fill: none; stroke: #f7fbff; stroke-width: 2"/>
   </g>
   <g id="line2d_102">
    <g clip-path="url(#pf9f84d4977)"/>
   </g>
   <g id="line2d_103">
    <g clip-path="url(#pf9f84d4977)"/>
   </g>
   <g id="LineCollection_46">
    <path clip-path="url(#pf9f84d4977)" style="fill: none; stroke: #f7fbff; stroke-width: 2"/>
   </g>
   <g id="line2d_104">
    <g clip-path="url(#pf9f84d4977)"/>
   </g>
   <g id="line2d_105">
    <g clip-path="url(#pf9f84d4977)"/>
   </g>
   <g id="LineCollection_47">
    <path clip-path="url(#pf9f84d4977)" style="fill: none; stroke: #f7fbff; stroke-width: 2"/>
   </g>
   <g id="line2d_106">
    <g clip-path="url(#pf9f84d4977)"/>
   </g>
   <g id="line2d_107">
    <g clip-path="url(#pf9f84d4977)"/>
   </g>
   <g id="LineCollection_48">
    <path clip-path="url(#pf9f84d4977)" style="fill: none; stroke: #f7fbff; stroke-width: 2"/>
   </g>
   <g id="line2d_108">
    <g clip-path="url(#pf9f84d4977)"/>
   </g>
   <g id="line2d_109">
    <g clip-path="url(#pf9f84d4977)"/>
   </g>
   <g id="LineCollection_49">
    <path clip-path="url(#pf9f84d4977)" style="fill: none; stroke: #f7fbff; stroke-width: 2"/>
   </g>
   <g id="line2d_110">
    <g clip-path="url(#pf9f84d4977)"/>
   </g>
   <g id="line2d_111">
    <g clip-path="url(#pf9f84d4977)"/>
   </g>
   <g id="LineCollection_50">
    <path clip-path="url(#pf9f84d4977)" style="fill: none; stroke: #f7fbff; stroke-width: 2"/>
   </g>
   <g id="line2d_112">
    <g clip-path="url(#pf9f84d4977)"/>
   </g>
   <g id="line2d_113">
    <g clip-path="url(#pf9f84d4977)"/>
   </g>
   <g id="LineCollection_51">
    <path clip-path="url(#pf9f84d4977)" style="fill: none; stroke: #f7fbff; stroke-width: 2"/>
   </g>
   <g id="line2d_114">
    <g clip-path="url(#pf9f84d4977)"/>
   </g>
   <g id="line2d_115">
    <g clip-path="url(#pf9f84d4977)"/>
   </g>
   <g id="LineCollection_52">
    <path clip-path="url(#pf9f84d4977)" style="fill: none; stroke: #f7fbff; stroke-width: 2"/>
   </g>
   <g id="line2d_116">
    <g clip-path="url(#pf9f84d4977)"/>
   </g>
   <g id="line2d_117">
    <g clip-path="url(#pf9f84d4977)"/>
   </g>
   <g id="line2d_118">
    <path d="M 408.530769 326.386667 
" clip-path="url(#pf9f84d4977)" style="fill: none; stroke: #0000ff; stroke-width: 2; stroke-linecap: square"/>
    <defs>
     <path id="mfd3c849f32" d="M -4 4 
L 4 -4 
M -4 -4 
L 4 4 
" style="stroke: #0000ff"/>
    </defs>
    <g clip-path="url(#pf9f84d4977)">
     <use xlink:href="#mfd3c849f32" x="408.530769" y="326.386667" style="fill: #0000ff; stroke: #0000ff"/>
    </g>
   </g>
   <g id="line2d_119">
    <defs>
     <path id="mdf57ce4d9e" d="M 0 4 
C 1.060812 4 2.078319 3.578535 2.828427 2.828427 
C 3.578535 2.078319 4 1.060812 4 0 
C 4 -1.060812 3.578535 -2.078319 2.828427 -2.828427 
C 2.078319 -3.578535 1.060812 -4 0 -4 
C -1.060812 -4 -2.078319 -3.578535 -2.828427 -2.828427 
C -3.578535 -2.078319 -4 -1.060812 -4 0 
C -4 1.060812 -3.578535 2.078319 -2.828427 2.828427 
C -2.078319 3.578535 -1.060812 4 0 4 
z
" style="stroke: #f7fbff"/>
    </defs>
    <g clip-path="url(#pf9f84d4977)"/>
   </g>
   <g id="line2d_120">
    <g clip-path="url(#pf9f84d4977)"/>
   </g>
   <g id="line2d_121">
    <g clip-path="url(#pf9f84d4977)"/>
   </g>
   <g id="line2d_122">
    <g clip-path="url(#pf9f84d4977)"/>
   </g>
   <g id="line2d_123">
    <g clip-path="url(#pf9f84d4977)"/>
   </g>
   <g id="line2d_124">
    <g clip-path="url(#pf9f84d4977)"/>
   </g>
   <g id="line2d_125">
    <g clip-path="url(#pf9f84d4977)"/>
   </g>
   <g id="line2d_126">
    <g clip-path="url(#pf9f84d4977)"/>
   </g>
   <g id="line2d_127">
    <g clip-path="url(#pf9f84d4977)"/>
   </g>
   <g id="line2d_128">
    <g clip-path="url(#pf9f84d4977)"/>
   </g>
   <g id="line2d_129">
    <g clip-path="url(#pf9f84d4977)"/>
   </g>
   <g id="line2d_130">
    <g clip-path="url(#pf9f84d4977)"/>
   </g>
   <g id="line2d_131">
    <g clip-path="url(#pf9f84d4977)"/>
   </g>
   <g id="line2d_132">
    <g clip-path="url(#pf9f84d4977)"/>
   </g>
   <g id="line2d_133">
    <g clip-path="url(#pf9f84d4977)"/>
   </g>
   <g id="line2d_134">
    <g clip-path="url(#pf9f84d4977)"/>
   </g>
   <g id="line2d_135">
    <g clip-path="url(#pf9f84d4977)"/>
   </g>
   <g id="line2d_136">
    <defs>
     <path id="m205b12d06b" d="M 0 4 
C 1.060812 4 2.078319 3.578535 2.828427 2.828427 
C 3.578535 2.078319 4 1.060812 4 0 
C 4 -1.060812 3.578535 -2.078319 2.828427 -2.828427 
C 2.078319 -3.578535 1.060812 -4 0 -4 
C -1.060812 -4 -2.078319 -3.578535 -2.828427 -2.828427 
C -3.578535 -2.078319 -4 -1.060812 -4 0 
C -4 1.060812 -3.578535 2.078319 -2.828427 2.828427 
C -2.078319 3.578535 -1.060812 4 0 4 
z
" style="stroke: #f6faff"/>
    </defs>
    <g clip-path="url(#pf9f84d4977)">
     <use xlink:href="#m205b12d06b" x="80.754545" y="254.52" style="fill: #f6faff; stroke: #f6faff"/>
    </g>
   </g>
   <g id="line2d_137">
    <defs>
     <path id="m8abada2a0b" d="M 0 4 
C 1.060812 4 2.078319 3.578535 2.828427 2.828427 
C 3.578535 2.078319 4 1.060812 4 0 
C 4 -1.060812 3.578535 -2.078319 2.828427 -2.828427 
C 2.078319 -3.578535 1.060812 -4 0 -4 
C -1.060812 -4 -2.078319 -3.578535 -2.828427 -2.828427 
C -3.578535 -2.078319 -4 -1.060812 -4 0 
C -4 1.060812 -3.578535 2.078319 -2.828427 2.828427 
C -2.078319 3.578535 -1.060812 4 0 4 
z
" style="stroke: #f4f9fe"/>
    </defs>
    <g clip-path="url(#pf9f84d4977)">
     <use xlink:href="#m8abada2a0b" x="94.411888" y="156.52" style="fill: #f4f9fe; stroke: #f4f9fe"/>
    </g>
   </g>
   <g id="line2d_138">
    <defs>
     <path id="m41187864aa" d="M 0 4 
C 1.060812 4 2.078319 3.578535 2.828427 2.828427 
C 3.578535 2.078319 4 1.060812 4 0 
C 4 -1.060812 3.578535 -2.078319 2.828427 -2.828427 
C 2.078319 -3.578535 1.060812 -4 0 -4 
C -1.060812 -4 -2.078319 -3.578535 -2.828427 -2.828427 
C -3.578535 -2.078319 -4 -1.060812 -4 0 
C -4 1.060812 -3.578535 2.078319 -2.828427 2.828427 
C -2.078319 3.578535 -1.060812 4 0 4 
z
" style="stroke: #e5eff9"/>
    </defs>
    <g clip-path="url(#pf9f84d4977)">
     <use xlink:href="#m41187864aa" x="108.069231" y="130.386667" style="fill: #e5eff9; stroke: #e5eff9"/>
    </g>
   </g>
   <g id="line2d_139">
    <defs>
     <path id="m31cf23088c" d="M 0 4 
C 1.060812 4 2.078319 3.578535 2.828427 2.828427 
C 3.578535 2.078319 4 1.060812 4 0 
C 4 -1.060812 3.578535 -2.078319 2.828427 -2.828427 
C 2.078319 -3.578535 1.060812 -4 0 -4 
C -1.060812 -4 -2.078319 -3.578535 -2.828427 -2.828427 
C -3.578535 -2.078319 -4 -1.060812 -4 0 
C -4 1.060812 -3.578535 2.078319 -2.828427 2.828427 
C -2.078319 3.578535 -1.060812 4 0 4 
z
" style="stroke: #bdd7ec"/>
    </defs>
    <g clip-path="url(#pf9f84d4977)">
     <use xlink:href="#m31cf23088c" x="121.726573" y="104.253333" style="fill: #bdd7ec; stroke: #bdd7ec"/>
    </g>
   </g>
   <g id="line2d_140">
    <defs>
     <path id="m6bac24517d" d="M 0 4 
C 1.060812 4 2.078319 3.578535 2.828427 2.828427 
C 3.578535 2.078319 4 1.060812 4 0 
C 4 -1.060812 3.578535 -2.078319 2.828427 -2.828427 
C 2.078319 -3.578535 1.060812 -4 0 -4 
C -1.060812 -4 -2.078319 -3.578535 -2.828427 -2.828427 
C -3.578535 -2.078319 -4 -1.060812 -4 0 
C -4 1.060812 -3.578535 2.078319 -2.828427 2.828427 
C -2.078319 3.578535 -1.060812 4 0 4 
z
" style="stroke: #68acd5"/>
    </defs>
    <g clip-path="url(#pf9f84d4977)">
     <use xlink:href="#m6bac24517d" x="135.383916" y="104.253333" style="fill: #68acd5; stroke: #68acd5"/>
    </g>
   </g>
   <g id="line2d_141">
    <defs>
     <path id="med739871ab" d="M 0 4 
C 1.060812 4 2.078319 3.578535 2.828427 2.828427 
C 3.578535 2.078319 4 1.060812 4 0 
C 4 -1.060812 3.578535 -2.078319 2.828427 -2.828427 
C 2.078319 -3.578535 1.060812 -4 0 -4 
C -1.060812 -4 -2.078319 -3.578535 -2.828427 -2.828427 
C -3.578535 -2.078319 -4 -1.060812 -4 0 
C -4 1.060812 -3.578535 2.078319 -2.828427 2.828427 
C -2.078319 3.578535 -1.060812 4 0 4 
z
" style="stroke: #2b7bba"/>
    </defs>
    <g clip-path="url(#pf9f84d4977)">
     <use xlink:href="#med739871ab" x="149.041259" y="91.186667" style="fill: #2b7bba; stroke: #2b7bba"/>
    </g>
   </g>
   <g id="line2d_142">
    <defs>
     <path id="m74192a5e94" d="M 0 4 
C 1.060812 4 2.078319 3.578535 2.828427 2.828427 
C 3.578535 2.078319 4 1.060812 4 0 
C 4 -1.060812 3.578535 -2.078319 2.828427 -2.828427 
C 2.078319 -3.578535 1.060812 -4 0 -4 
C -1.060812 -4 -2.078319 -3.578535 -2.828427 -2.828427 
C -3.578535 -2.078319 -4 -1.060812 -4 0 
C -4 1.060812 -3.578535 2.078319 -2.828427 2.828427 
C -2.078319 3.578535 -1.060812 4 0 4 
z
" style="stroke: #2373b6"/>
    </defs>
    <g clip-path="url(#pf9f84d4977)">
     <use xlink:href="#m74192a5e94" x="162.698601" y="91.186667" style="fill: #2373b6; stroke: #2373b6"/>
    </g>
   </g>
   <g id="line2d_143">
    <defs>
     <path id="m0d3eae0f66" d="M 0 4 
C 1.060812 4 2.078319 3.578535 2.828427 2.828427 
C 3.578535 2.078319 4 1.060812 4 0 
C 4 -1.060812 3.578535 -2.078319 2.828427 -2.828427 
C 2.078319 -3.578535 1.060812 -4 0 -4 
C -1.060812 -4 -2.078319 -3.578535 -2.828427 -2.828427 
C -3.578535 -2.078319 -4 -1.060812 -4 0 
C -4 1.060812 -3.578535 2.078319 -2.828427 2.828427 
C -2.078319 3.578535 -1.060812 4 0 4 
z
" style="stroke: #3787c0"/>
    </defs>
    <g clip-path="url(#pf9f84d4977)">
     <use xlink:href="#m0d3eae0f66" x="176.355944" y="91.186667" style="fill: #3787c0; stroke: #3787c0"/>
    </g>
   </g>
   <g id="line2d_144">
    <defs>
     <path id="md8e8dffef0" d="M 0 4 
C 1.060812 4 2.078319 3.578535 2.828427 2.828427 
C 3.578535 2.078319 4 1.060812 4 0 
C 4 -1.060812 3.578535 -2.078319 2.828427 -2.828427 
C 2.078319 -3.578535 1.060812 -4 0 -4 
C -1.060812 -4 -2.078319 -3.578535 -2.828427 -2.828427 
C -3.578535 -2.078319 -4 -1.060812 -4 0 
C -4 1.060812 -3.578535 2.078319 -2.828427 2.828427 
C -2.078319 3.578535 -1.060812 4 0 4 
z
" style="stroke: #3a8ac2"/>
    </defs>
    <g clip-path="url(#pf9f84d4977)">
     <use xlink:href="#md8e8dffef0" x="190.013287" y="91.186667" style="fill: #3a8ac2; stroke: #3a8ac2"/>
    </g>
   </g>
   <g id="line2d_145">
    <defs>
     <path id="m094f9d0384" d="M 0 4 
C 1.060812 4 2.078319 3.578535 2.828427 2.828427 
C 3.578535 2.078319 4 1.060812 4 0 
C 4 -1.060812 3.578535 -2.078319 2.828427 -2.828427 
C 2.078319 -3.578535 1.060812 -4 0 -4 
C -1.060812 -4 -2.078319 -3.578535 -2.828427 -2.828427 
C -3.578535 -2.078319 -4 -1.060812 -4 0 
C -4 1.060812 -3.578535 2.078319 -2.828427 2.828427 
C -2.078319 3.578535 -1.060812 4 0 4 
z
" style="stroke: #549fcd"/>
    </defs>
    <g clip-path="url(#pf9f84d4977)">
     <use xlink:href="#m094f9d0384" x="203.670629" y="91.186667" style="fill: #549fcd; stroke: #549fcd"/>
    </g>
   </g>
   <g id="line2d_146">
    <defs>
     <path id="ma337544544" d="M 0 4 
C 1.060812 4 2.078319 3.578535 2.828427 2.828427 
C 3.578535 2.078319 4 1.060812 4 0 
C 4 -1.060812 3.578535 -2.078319 2.828427 -2.828427 
C 2.078319 -3.578535 1.060812 -4 0 -4 
C -1.060812 -4 -2.078319 -3.578535 -2.828427 -2.828427 
C -3.578535 -2.078319 -4 -1.060812 -4 0 
C -4 1.060812 -3.578535 2.078319 -2.828427 2.828427 
C -2.078319 3.578535 -1.060812 4 0 4 
z
" style="stroke: #56a0ce"/>
    </defs>
    <g clip-path="url(#pf9f84d4977)">
     <use xlink:href="#ma337544544" x="217.327972" y="91.186667" style="fill: #56a0ce; stroke: #56a0ce"/>
    </g>
   </g>
   <g id="line2d_147">
    <g clip-path="url(#pf9f84d4977)">
     <use xlink:href="#m094f9d0384" x="230.985315" y="91.186667" style="fill: #549fcd; stroke: #549fcd"/>
    </g>
   </g>
   <g id="line2d_148">
    <defs>
     <path id="mf3e85bf10a" d="M 0 4 
C 1.060812 4 2.078319 3.578535 2.828427 2.828427 
C 3.578535 2.078319 4 1.060812 4 0 
C 4 -1.060812 3.578535 -2.078319 2.828427 -2.828427 
C 2.078319 -3.578535 1.060812 -4 0 -4 
C -1.060812 -4 -2.078319 -3.578535 -2.828427 -2.828427 
C -3.578535 -2.078319 -4 -1.060812 -4 0 
C -4 1.060812 -3.578535 2.078319 -2.828427 2.828427 
C -2.078319 3.578535 -1.060812 4 0 4 
z
" style="stroke: #4090c5"/>
    </defs>
    <g clip-path="url(#pf9f84d4977)">
     <use xlink:href="#mf3e85bf10a" x="244.642657" y="91.186667" style="fill: #4090c5; stroke: #4090c5"/>
    </g>
   </g>
   <g id="line2d_149">
    <defs>
     <path id="mfc515482e8" d="M 0 4 
C 1.060812 4 2.078319 3.578535 2.828427 2.828427 
C 3.578535 2.078319 4 1.060812 4 0 
C 4 -1.060812 3.578535 -2.078319 2.828427 -2.828427 
C 2.078319 -3.578535 1.060812 -4 0 -4 
C -1.060812 -4 -2.078319 -3.578535 -2.828427 -2.828427 
C -3.578535 -2.078319 -4 -1.060812 -4 0 
C -4 1.060812 -3.578535 2.078319 -2.828427 2.828427 
C -2.078319 3.578535 -1.060812 4 0 4 
z
" style="stroke: #4e9acb"/>
    </defs>
    <g clip-path="url(#pf9f84d4977)">
     <use xlink:href="#mfc515482e8" x="258.3" y="91.186667" style="fill: #4e9acb; stroke: #4e9acb"/>
    </g>
   </g>
   <g id="line2d_150">
    <defs>
     <path id="m6475e87e64" d="M 0 4 
C 1.060812 4 2.078319 3.578535 2.828427 2.828427 
C 3.578535 2.078319 4 1.060812 4 0 
C 4 -1.060812 3.578535 -2.078319 2.828427 -2.828427 
C 2.078319 -3.578535 1.060812 -4 0 -4 
C -1.060812 -4 -2.078319 -3.578535 -2.828427 -2.828427 
C -3.578535 -2.078319 -4 -1.060812 -4 0 
C -4 1.060812 -3.578535 2.078319 -2.828427 2.828427 
C -2.078319 3.578535 -1.060812 4 0 4 
z
" style="stroke: #5aa2cf"/>
    </defs>
    <g clip-path="url(#pf9f84d4977)">
     <use xlink:href="#m6475e87e64" x="271.957343" y="91.186667" style="fill: #5aa2cf; stroke: #5aa2cf"/>
    </g>
   </g>
   <g id="line2d_151">
    <defs>
     <path id="meb8dbb1326" d="M 0 4 
C 1.060812 4 2.078319 3.578535 2.828427 2.828427 
C 3.578535 2.078319 4 1.060812 4 0 
C 4 -1.060812 3.578535 -2.078319 2.828427 -2.828427 
C 2.078319 -3.578535 1.060812 -4 0 -4 
C -1.060812 -4 -2.078319 -3.578535 -2.828427 -2.828427 
C -3.578535 -2.078319 -4 -1.060812 -4 0 
C -4 1.060812 -3.578535 2.078319 -2.828427 2.828427 
C -2.078319 3.578535 -1.060812 4 0 4 
z
" style="stroke: #66abd4"/>
    </defs>
    <g clip-path="url(#pf9f84d4977)">
     <use xlink:href="#meb8dbb1326" x="285.614685" y="91.186667" style="fill: #66abd4; stroke: #66abd4"/>
    </g>
   </g>
   <g id="line2d_152">
    <defs>
     <path id="m6fe12c5c24" d="M 0 4 
C 1.060812 4 2.078319 3.578535 2.828427 2.828427 
C 3.578535 2.078319 4 1.060812 4 0 
C 4 -1.060812 3.578535 -2.078319 2.828427 -2.828427 
C 2.078319 -3.578535 1.060812 -4 0 -4 
C -1.060812 -4 -2.078319 -3.578535 -2.828427 -2.828427 
C -3.578535 -2.078319 -4 -1.060812 -4 0 
C -4 1.060812 -3.578535 2.078319 -2.828427 2.828427 
C -2.078319 3.578535 -1.060812 4 0 4 
z
" style="stroke: #519ccc"/>
    </defs>
    <g clip-path="url(#pf9f84d4977)">
     <use xlink:href="#m6fe12c5c24" x="299.272028" y="104.253333" style="fill: #519ccc; stroke: #519ccc"/>
    </g>
   </g>
   <g id="line2d_153">
    <g clip-path="url(#pf9f84d4977)">
     <use xlink:href="#m0d3eae0f66" x="312.929371" y="117.32" style="fill: #3787c0; stroke: #3787c0"/>
    </g>
   </g>
   <g id="line2d_154">
    <defs>
     <path id="me460f2c1e5" d="M 0 4 
C 1.060812 4 2.078319 3.578535 2.828427 2.828427 
C 3.578535 2.078319 4 1.060812 4 0 
C 4 -1.060812 3.578535 -2.078319 2.828427 -2.828427 
C 2.078319 -3.578535 1.060812 -4 0 -4 
C -1.060812 -4 -2.078319 -3.578535 -2.828427 -2.828427 
C -3.578535 -2.078319 -4 -1.060812 -4 0 
C -4 1.060812 -3.578535 2.078319 -2.828427 2.828427 
C -2.078319 3.578535 -1.060812 4 0 4 
z
" style="stroke: #08306b"/>
    </defs>
    <g clip-path="url(#pf9f84d4977)">
     <use xlink:href="#me460f2c1e5" x="326.586713" y="130.386667" style="fill: #08306b; stroke: #08306b"/>
    </g>
   </g>
   <g id="line2d_155">
    <g clip-path="url(#pf9f84d4977)">
     <use xlink:href="#me460f2c1e5" x="340.244056" y="143.453333" style="fill: #08306b; stroke: #08306b"/>
    </g>
   </g>
   <g id="line2d_156">
    <g clip-path="url(#pf9f84d4977)">
     <use xlink:href="#me460f2c1e5" x="353.901399" y="169.586667" style="fill: #08306b; stroke: #08306b"/>
    </g>
   </g>
   <g id="line2d_157">
    <g clip-path="url(#pf9f84d4977)">
     <use xlink:href="#me460f2c1e5" x="367.558741" y="195.72" style="fill: #08306b; stroke: #08306b"/>
    </g>
   </g>
   <g id="line2d_158">
    <g clip-path="url(#pf9f84d4977)">
     <use xlink:href="#me460f2c1e5" x="381.216084" y="234.92" style="fill: #08306b; stroke: #08306b"/>
    </g>
   </g>
   <g id="line2d_159">
    <g clip-path="url(#pf9f84d4977)">
     <use xlink:href="#me460f2c1e5" x="394.873427" y="274.12" style="fill: #08306b; stroke: #08306b"/>
    </g>
   </g>
   <g id="line2d_160">
    <g clip-path="url(#pf9f84d4977)">
     <use xlink:href="#me460f2c1e5" x="408.530769" y="313.32" style="fill: #08306b; stroke: #08306b"/>
    </g>
   </g>
   <g id="line2d_161">
    <g clip-path="url(#pf9f84d4977)">
     <use xlink:href="#me460f2c1e5" x="422.188112" y="378.653333" style="fill: #08306b; stroke: #08306b"/>
    </g>
   </g>
   <g id="line2d_162">
    <defs>
     <path id="m23f2310d41" d="M 0 4 
C 1.060812 4 2.078319 3.578535 2.828427 2.828427 
C 3.578535 2.078319 4 1.060812 4 0 
C 4 -1.060812 3.578535 -2.078319 2.828427 -2.828427 
C 2.078319 -3.578535 1.060812 -4 0 -4 
C -1.060812 -4 -2.078319 -3.578535 -2.828427 -2.828427 
C -3.578535 -2.078319 -4 -1.060812 -4 0 
C -4 1.060812 -3.578535 2.078319 -2.828427 2.828427 
C -2.078319 3.578535 -1.060812 4 0 4 
z
" style="stroke: #d8e7f5"/>
    </defs>
    <g clip-path="url(#pf9f84d4977)">
     <use xlink:href="#m23f2310d41" x="435.845455" y="430.92" style="fill: #d8e7f5; stroke: #d8e7f5"/>
    </g>
   </g>
   <g id="line2d_163">
    <g clip-path="url(#pf9f84d4977)"/>
   </g>
   <g id="line2d_164">
    <g clip-path="url(#pf9f84d4977)"/>
   </g>
   <g id="line2d_165">
    <g clip-path="url(#pf9f84d4977)"/>
   </g>
   <g id="line2d_166">
    <g clip-path="url(#pf9f84d4977)"/>
   </g>
   <g id="line2d_167">
    <g clip-path="url(#pf9f84d4977)"/>
   </g>
   <g id="line2d_168">
    <g clip-path="url(#pf9f84d4977)"/>
   </g>
   <g id="line2d_169">
    <g clip-path="url(#pf9f84d4977)"/>
   </g>
   <g id="line2d_170">
    <g clip-path="url(#pf9f84d4977)"/>
   </g>
   <g id="patch_3">
    <path d="M 63 448.56 
L 63 60.48 
" style="fill: none; stroke: #000000; stroke-width: 0.8; stroke-linejoin: miter; stroke-linecap: square"/>
   </g>
   <g id="patch_4">
    <path d="M 63 448.56 
L 453.6 448.56 
" style="fill: none; stroke: #000000; stroke-width: 0.8; stroke-linejoin: miter; stroke-linecap: square"/>
   </g>
  </g>
 </g>
 <defs>
  <clipPath id="pf9f84d4977">
   <rect x="63" y="60.48" width="390.6" height="388.08"/>
  </clipPath>
 </defs>
</svg>
