<?xml version="1.0" encoding="utf-8" standalone="no"?>
<!DOCTYPE svg PUBLIC "-//W3C//DTD SVG 1.1//EN"
  "http://www.w3.org/Graphics/SVG/1.1/DTD/svg11.dtd">
<svg xmlns:xlink="http://www.w3.org/1999/xlink" width="504pt" height="504pt" viewBox="0 0 504 504" xmlns="http://www.w3.org/2000/svg" version="1.1">
 <metadata>
  <rdf:RDF xmlns:dc="http://purl.org/dc/elements/1.1/" xmlns:cc="http://creativecommons.org/ns#" xmlns:rdf="http://www.w3.org/1999/02/22-rdf-syntax-ns#">
   <cc:Work>
    <dc:type rdf:resource="http://purl.org/dc/dcmitype/StillImage"/>
    <dc:date>2026-02-16T16:41:50.273659</dc:date>
    <dc:format>image/svg+xml</dc:format>
    <dc:creator>
     <cc:Agent>
      <dc:title>Matplotlib v3.10.8, https://matplotlib.org/</dc:title>
     </cc:Agent>
    </dc:creator>
   </cc:Work>
  </rdf:RDF>
 </metadata>
 <defs>
  <style type="text/css">*{stroke-linejoin: round; stroke-linecap: butt}</style>
 </defs>
 <g id="figure_1">
  <g id="patch_1">
   <path d="M 0 504 
L 504 504 
L 504 0 
L 0 0 
L 0 504 
z
" style="fill: none"/>
  </g>
  <g id="axes_1">
   <g id="patch_2">
    <path d="M 63 448.56 
L 453.6 448.56 
L 453.6 60.48 
L 63 60.48 
L 63 448.56 
z
" style="fill: none"/>
   </g>
   <g id="matplotlib.axis_1">
    <g id="xtick_1">
     <g id="line2d_1">
      <defs>
       <path id="mb0b0c12983" d="M 0 0 
L 0 3.5 
" style="stroke: #000000; stroke-width: 0.8"/>
      </defs>
      <g>
       <use xlink:href="#mb0b0c12983" x="89.209091" y="448.56" style="stroke: #000000; stroke-width: 0.8"/>
      </g>
     </g>
     <g id="text_1">
      <text style="font-size: 16px; font-family: 'Arial', sans-serif; text-anchor: middle" x="89.209091" y="467.06" transform="rotate(-0 89.209091 467.06)">1 May</text>
     </g>
    </g>
    <g id="xtick_2">
     <g id="line2d_2">
      <g>
       <use xlink:href="#mb0b0c12983" x="147.451515" y="448.56" style="stroke: #000000; stroke-width: 0.8"/>
      </g>
     </g>
     <g id="text_2">
      <text style="font-size: 16px; font-family: 'Arial', sans-serif; text-anchor: middle" x="147.451515" y="467.0125" transform="rotate(-0 147.451515 467.0125)">1 Jun</text>
     </g>
    </g>
    <g id="xtick_3">
     <g id="line2d_3">
      <g>
       <use xlink:href="#mb0b0c12983" x="203.815152" y="448.56" style="stroke: #000000; stroke-width: 0.8"/>
      </g>
     </g>
     <g id="text_3">
      <text style="font-size: 16px; font-family: 'Arial', sans-serif; text-anchor: middle" x="203.815152" y="467.0125" transform="rotate(-0 203.815152 467.0125)">1 Jul</text>
     </g>
    </g>
    <g id="xtick_4">
     <g id="line2d_4">
      <g>
       <use xlink:href="#mb0b0c12983" x="262.057576" y="448.56" style="stroke: #000000; stroke-width: 0.8"/>
      </g>
     </g>
     <g id="text_4">
      <text style="font-size: 16px; font-family: 'Arial', sans-serif; text-anchor: middle" x="262.057576" y="467.06" transform="rotate(-0 262.057576 467.06)">1 Aug</text>
     </g>
    </g>
    <g id="xtick_5">
     <g id="line2d_5">
      <g>
       <use xlink:href="#mb0b0c12983" x="320.3" y="448.56" style="stroke: #000000; stroke-width: 0.8"/>
      </g>
     </g>
     <g id="text_5">
      <text style="font-size: 16px; font-family: 'Arial', sans-serif; text-anchor: middle" x="320.3" y="467.2075" transform="rotate(-0 320.3 467.2075)">1 Sep</text>
     </g>
    </g>
    <g id="xtick_6">
     <g id="line2d_6">
      <g>
       <use xlink:href="#mb0b0c12983" x="376.663636" y="448.56" style="stroke: #000000; stroke-width: 0.8"/>
      </g>
     </g>
     <g id="text_6">
      <text style="font-size: 16px; font-family: 'Arial', sans-serif; text-anchor: middle" x="376.663636" y="467.0125" transform="rotate(-0 376.663636 467.0125)">1 Oct</text>
     </g>
    </g>
    <g id="xtick_7">
     <g id="line2d_7">
      <g>
       <use xlink:href="#mb0b0c12983" x="434.906061" y="448.56" style="stroke: #000000; stroke-width: 0.8"/>
      </g>
     </g>
     <g id="text_7">
      <text style="font-size: 16px; font-family: 'Arial', sans-serif; text-anchor: middle" x="434.906061" y="467.0125" transform="rotate(-0 434.906061 467.0125)">1 Nov</text>
     </g>
    </g>
    <g id="text_8">
     <text style="font-size: 16px; font-family: 'Arial', sans-serif; text-anchor: middle" x="258.3" y="485.88" transform="rotate(-0 258.3 485.88)">Week of final case</text>
    </g>
   </g>
   <g id="matplotlib.axis_2">
    <g id="ytick_1">
     <g id="line2d_8">
      <defs>
       <path id="m0b73cdb2b4" d="M 0 0 
L -3.5 0 
" style="stroke: #000000; stroke-width: 0.8"/>
      </defs>
      <g>
       <use xlink:href="#m0b73cdb2b4" x="63" y="446.25913" style="stroke: #000000; stroke-width: 0.8"/>
      </g>
     </g>
     <g id="text_9">
      <text style="font-size: 16px; font-family: 'Arial', sans-serif; text-anchor: end" x="56" y="451.98538" transform="rotate(-0 56 451.98538)">0</text>
     </g>
    </g>
    <g id="ytick_2">
     <g id="line2d_9">
      <g>
       <use xlink:href="#m0b73cdb2b4" x="63" y="369.563478" style="stroke: #000000; stroke-width: 0.8"/>
      </g>
     </g>
     <g id="text_10">
      <text style="font-size: 16px; font-family: 'Arial', sans-serif; text-anchor: end" x="56" y="375.289728" transform="rotate(-0 56 375.289728)">5</text>
     </g>
    </g>
    <g id="ytick_3">
     <g id="line2d_10">
      <g>
       <use xlink:href="#m0b73cdb2b4" x="63" y="292.867826" style="stroke: #000000; stroke-width: 0.8"/>
      </g>
     </g>
     <g id="text_11">
      <text style="font-size: 16px; font-family: 'Arial', sans-serif; text-anchor: end" x="56" y="298.594076" transform="rotate(-0 56 298.594076)">10</text>
     </g>
    </g>
    <g id="ytick_4">
     <g id="line2d_11">
      <g>
       <use xlink:href="#m0b73cdb2b4" x="63" y="216.172174" style="stroke: #000000; stroke-width: 0.8"/>
      </g>
     </g>
     <g id="text_12">
      <text style="font-size: 16px; font-family: 'Arial', sans-serif; text-anchor: end" x="56" y="221.898424" transform="rotate(-0 56 221.898424)">15</text>
     </g>
    </g>
    <g id="ytick_5">
     <g id="line2d_12">
      <g>
       <use xlink:href="#m0b73cdb2b4" x="63" y="139.476522" style="stroke: #000000; stroke-width: 0.8"/>
      </g>
     </g>
     <g id="text_13">
      <text style="font-size: 16px; font-family: 'Arial', sans-serif; text-anchor: end" x="56" y="145.202772" transform="rotate(-0 56 145.202772)">20</text>
     </g>
    </g>
    <g id="ytick_6">
     <g id="line2d_13">
      <g>
       <use xlink:href="#m0b73cdb2b4" x="63" y="62.78087" style="stroke: #000000; stroke-width: 0.8"/>
      </g>
     </g>
     <g id="text_14">
      <text style="font-size: 16px; font-family: 'Arial', sans-serif; text-anchor: end" x="56" y="68.50712" transform="rotate(-0 56 68.50712)">25</text>
     </g>
    </g>
    <g id="text_15">
     <text style="font-size: 16px; font-family: 'Arial', sans-serif; text-anchor: middle" x="30.8375" y="254.52" transform="rotate(-90 30.8375 254.52)">Days from final case until declaration</text>
    </g>
   </g>
   <g id="LineCollection_1">
    <path clip-path="url(#pbe2301f1d8)" style="fill: none; stroke: #f7fbff; stroke-width: 2"/>
   </g>
   <g id="line2d_14">
    <defs>
     <path id="m4814ea9bfa" d="M 3 0 
L -3 -0 
" style="stroke: #f7fbff"/>
    </defs>
    <g clip-path="url(#pbe2301f1d8)"/>
   </g>
   <g id="line2d_15">
    <g clip-path="url(#pbe2301f1d8)"/>
   </g>
   <g id="LineCollection_2">
    <path clip-path="url(#pbe2301f1d8)" style="fill: none; stroke: #f7fbff; stroke-width: 2"/>
   </g>
   <g id="line2d_16">
    <g clip-path="url(#pbe2301f1d8)"/>
   </g>
   <g id="line2d_17">
    <g clip-path="url(#pbe2301f1d8)"/>
   </g>
   <g id="LineCollection_3">
    <path clip-path="url(#pbe2301f1d8)" style="fill: none; stroke: #f7fbff; stroke-width: 2"/>
   </g>
   <g id="line2d_18">
    <g clip-path="url(#pbe2301f1d8)"/>
   </g>
   <g id="line2d_19">
    <g clip-path="url(#pbe2301f1d8)"/>
   </g>
   <g id="LineCollection_4">
    <path clip-path="url(#pbe2301f1d8)" style="fill: none; stroke: #f7fbff; stroke-width: 2"/>
   </g>
   <g id="line2d_20">
    <g clip-path="url(#pbe2301f1d8)"/>
   </g>
   <g id="line2d_21">
    <g clip-path="url(#pbe2301f1d8)"/>
   </g>
   <g id="LineCollection_5">
    <path clip-path="url(#pbe2301f1d8)" style="fill: none; stroke: #f7fbff; stroke-width: 2"/>
   </g>
   <g id="line2d_22">
    <g clip-path="url(#pbe2301f1d8)"/>
   </g>
   <g id="line2d_23">
    <g clip-path="url(#pbe2301f1d8)"/>
   </g>
   <g id="LineCollection_6">
    <path clip-path="url(#pbe2301f1d8)" style="fill: none; stroke: #f7fbff; stroke-width: 2"/>
   </g>
   <g id="line2d_24">
    <g clip-path="url(#pbe2301f1d8)"/>
   </g>
   <g id="line2d_25">
    <g clip-path="url(#pbe2301f1d8)"/>
   </g>
   <g id="LineCollection_7">
    <path clip-path="url(#pbe2301f1d8)" style="fill: none; stroke: #f7fbff; stroke-width: 2"/>
   </g>
   <g id="line2d_26">
    <g clip-path="url(#pbe2301f1d8)"/>
   </g>
   <g id="line2d_27">
    <g clip-path="url(#pbe2301f1d8)"/>
   </g>
   <g id="LineCollection_8">
    <path clip-path="url(#pbe2301f1d8)" style="fill: none; stroke: #f7fbff; stroke-width: 2"/>
   </g>
   <g id="line2d_28">
    <g clip-path="url(#pbe2301f1d8)"/>
   </g>
   <g id="line2d_29">
    <g clip-path="url(#pbe2301f1d8)"/>
   </g>
   <g id="LineCollection_9">
    <path clip-path="url(#pbe2301f1d8)" style="fill: none; stroke: #f7fbff; stroke-width: 2"/>
   </g>
   <g id="line2d_30">
    <g clip-path="url(#pbe2301f1d8)"/>
   </g>
   <g id="line2d_31">
    <g clip-path="url(#pbe2301f1d8)"/>
   </g>
   <g id="LineCollection_10">
    <path clip-path="url(#pbe2301f1d8)" style="fill: none; stroke: #f7fbff; stroke-width: 2"/>
   </g>
   <g id="line2d_32">
    <g clip-path="url(#pbe2301f1d8)"/>
   </g>
   <g id="line2d_33">
    <g clip-path="url(#pbe2301f1d8)"/>
   </g>
   <g id="LineCollection_11">
    <path clip-path="url(#pbe2301f1d8)" style="fill: none; stroke: #f7fbff; stroke-width: 2"/>
   </g>
   <g id="line2d_34">
    <g clip-path="url(#pbe2301f1d8)"/>
   </g>
   <g id="line2d_35">
    <g clip-path="url(#pbe2301f1d8)"/>
   </g>
   <g id="LineCollection_12">
    <path clip-path="url(#pbe2301f1d8)" style="fill: none; stroke: #f7fbff; stroke-width: 2"/>
   </g>
   <g id="line2d_36">
    <g clip-path="url(#pbe2301f1d8)"/>
   </g>
   <g id="line2d_37">
    <g clip-path="url(#pbe2301f1d8)"/>
   </g>
   <g id="LineCollection_13">
    <path clip-path="url(#pbe2301f1d8)" style="fill: none; stroke: #f7fbff; stroke-width: 2"/>
   </g>
   <g id="line2d_38">
    <g clip-path="url(#pbe2301f1d8)"/>
   </g>
   <g id="line2d_39">
    <g clip-path="url(#pbe2301f1d8)"/>
   </g>
   <g id="LineCollection_14">
    <path clip-path="url(#pbe2301f1d8)" style="fill: none; stroke: #f7fbff; stroke-width: 2"/>
   </g>
   <g id="line2d_40">
    <g clip-path="url(#pbe2301f1d8)"/>
   </g>
   <g id="line2d_41">
    <g clip-path="url(#pbe2301f1d8)"/>
   </g>
   <g id="LineCollection_15">
    <path clip-path="url(#pbe2301f1d8)" style="fill: none; stroke: #f7fbff; stroke-width: 2"/>
   </g>
   <g id="line2d_42">
    <g clip-path="url(#pbe2301f1d8)"/>
   </g>
   <g id="line2d_43">
    <g clip-path="url(#pbe2301f1d8)"/>
   </g>
   <g id="LineCollection_16">
    <path clip-path="url(#pbe2301f1d8)" style="fill: none; stroke: #f7fbff; stroke-width: 2"/>
   </g>
   <g id="line2d_44">
    <g clip-path="url(#pbe2301f1d8)"/>
   </g>
   <g id="line2d_45">
    <g clip-path="url(#pbe2301f1d8)"/>
   </g>
   <g id="LineCollection_17">
    <path d="M 80.754545 430.92 
L 80.754545 430.92 
" clip-path="url(#pbe2301f1d8)" style="fill: none; stroke: #f6faff; stroke-width: 2"/>
   </g>
   <g id="line2d_46">
    <defs>
     <path id="m19b165ab6a" d="M 3 0 
L -3 -0 
" style="stroke: #f6faff"/>
    </defs>
    <g clip-path="url(#pbe2301f1d8)">
     <use xlink:href="#m19b165ab6a" x="80.754545" y="430.92" style="fill: #f6faff; stroke: #f6faff"/>
    </g>
   </g>
   <g id="line2d_47">
    <g clip-path="url(#pbe2301f1d8)">
     <use xlink:href="#m19b165ab6a" x="80.754545" y="430.92" style="fill: #f6faff; stroke: #f6faff"/>
    </g>
   </g>
   <g id="LineCollection_18">
    <path d="M 93.906061 335.050435 
L 93.906061 200.833043 
" clip-path="url(#pbe2301f1d8)" style="fill: none; stroke: #f5fafe; stroke-width: 2"/>
   </g>
   <g id="line2d_48">
    <defs>
     <path id="m99bb77831d" d="M 3 0 
L -3 -0 
" style="stroke: #f5fafe"/>
    </defs>
    <g clip-path="url(#pbe2301f1d8)">
     <use xlink:href="#m99bb77831d" x="93.906061" y="335.050435" style="fill: #f5fafe; stroke: #f5fafe"/>
    </g>
   </g>
   <g id="line2d_49">
    <g clip-path="url(#pbe2301f1d8)">
     <use xlink:href="#m99bb77831d" x="93.906061" y="200.833043" style="fill: #f5fafe; stroke: #f5fafe"/>
    </g>
   </g>
   <g id="LineCollection_19">
    <path d="M 107.057576 185.493913 
L 107.057576 139.476522 
" clip-path="url(#pbe2301f1d8)" style="fill: none; stroke: #e3eef9; stroke-width: 2"/>
   </g>
   <g id="line2d_50">
    <defs>
     <path id="m8f37b32e56" d="M 3 0 
L -3 -0 
" style="stroke: #e3eef9"/>
    </defs>
    <g clip-path="url(#pbe2301f1d8)">
     <use xlink:href="#m8f37b32e56" x="107.057576" y="185.493913" style="fill: #e3eef9; stroke: #e3eef9"/>
    </g>
   </g>
   <g id="line2d_51">
    <g clip-path="url(#pbe2301f1d8)">
     <use xlink:href="#m8f37b32e56" x="107.057576" y="139.476522" style="fill: #e3eef9; stroke: #e3eef9"/>
    </g>
   </g>
   <g id="LineCollection_20">
    <path d="M 120.209091 139.476522 
L 120.209091 114.166957 
" clip-path="url(#pbe2301f1d8)" style="fill: none; stroke: #b8d5ea; stroke-width: 2"/>
   </g>
   <g id="line2d_52">
    <defs>
     <path id="m9f43b9c799" d="M 3 0 
L -3 -0 
" style="stroke: #b8d5ea"/>
    </defs>
    <g clip-path="url(#pbe2301f1d8)">
     <use xlink:href="#m9f43b9c799" x="120.209091" y="139.476522" style="fill: #b8d5ea; stroke: #b8d5ea"/>
    </g>
   </g>
   <g id="line2d_53">
    <g clip-path="url(#pbe2301f1d8)">
     <use xlink:href="#m9f43b9c799" x="120.209091" y="114.166957" style="fill: #b8d5ea; stroke: #b8d5ea"/>
    </g>
   </g>
   <g id="LineCollection_21">
    <path d="M 133.360606 124.137391 
L 133.360606 93.45913 
" clip-path="url(#pbe2301f1d8)" style="fill: none; stroke: #58a1cf; stroke-width: 2"/>
   </g>
   <g id="line2d_54">
    <defs>
     <path id="m8f9e47a620" d="M 3 0 
L -3 -0 
" style="stroke: #58a1cf"/>
    </defs>
    <g clip-path="url(#pbe2301f1d8)">
     <use xlink:href="#m8f9e47a620" x="133.360606" y="124.137391" style="fill: #58a1cf; stroke: #58a1cf"/>
    </g>
   </g>
   <g id="line2d_55">
    <g clip-path="url(#pbe2301f1d8)">
     <use xlink:href="#m8f9e47a620" x="133.360606" y="93.45913" style="fill: #58a1cf; stroke: #58a1cf"/>
    </g>
   </g>
   <g id="LineCollection_22">
    <path d="M 146.512121 108.798261 
L 146.512121 93.45913 
" clip-path="url(#pbe2301f1d8)" style="fill: none; stroke: #2474b7; stroke-width: 2"/>
   </g>
   <g id="line2d_56">
    <defs>
     <path id="m90a89a4b08" d="M 3 0 
L -3 -0 
" style="stroke: #2474b7"/>
    </defs>
    <g clip-path="url(#pbe2301f1d8)">
     <use xlink:href="#m90a89a4b08" x="146.512121" y="108.798261" style="fill: #2474b7; stroke: #2474b7"/>
    </g>
   </g>
   <g id="line2d_57">
    <g clip-path="url(#pbe2301f1d8)">
     <use xlink:href="#m90a89a4b08" x="146.512121" y="93.45913" style="fill: #2474b7; stroke: #2474b7"/>
    </g>
   </g>
   <g id="LineCollection_23">
    <path d="M 159.663636 93.45913 
L 159.663636 78.12 
" clip-path="url(#pbe2301f1d8)" style="fill: none; stroke: #2474b7; stroke-width: 2"/>
   </g>
   <g id="line2d_58">
    <g clip-path="url(#pbe2301f1d8)">
     <use xlink:href="#m90a89a4b08" x="159.663636" y="93.45913" style="fill: #2474b7; stroke: #2474b7"/>
    </g>
   </g>
   <g id="line2d_59">
    <g clip-path="url(#pbe2301f1d8)">
     <use xlink:href="#m90a89a4b08" x="159.663636" y="78.12" style="fill: #2474b7; stroke: #2474b7"/>
    </g>
   </g>
   <g id="LineCollection_24">
    <path d="M 172.815152 93.45913 
L 172.815152 78.12 
" clip-path="url(#pbe2301f1d8)" style="fill: none; stroke: #2b7bba; stroke-width: 2"/>
   </g>
   <g id="line2d_60">
    <defs>
     <path id="m2ba9a5e3ce" d="M 3 0 
L -3 -0 
" style="stroke: #2b7bba"/>
    </defs>
    <g clip-path="url(#pbe2301f1d8)">
     <use xlink:href="#m2ba9a5e3ce" x="172.815152" y="93.45913" style="fill: #2b7bba; stroke: #2b7bba"/>
    </g>
   </g>
   <g id="line2d_61">
    <g clip-path="url(#pbe2301f1d8)">
     <use xlink:href="#m2ba9a5e3ce" x="172.815152" y="78.12" style="fill: #2b7bba; stroke: #2b7bba"/>
    </g>
   </g>
   <g id="LineCollection_25">
    <path d="M 185.966667 93.45913 
L 185.966667 78.12 
" clip-path="url(#pbe2301f1d8)" style="fill: none; stroke: #539ecd; stroke-width: 2"/>
   </g>
   <g id="line2d_62">
    <defs>
     <path id="m28e7704339" d="M 3 0 
L -3 -0 
" style="stroke: #539ecd"/>
    </defs>
    <g clip-path="url(#pbe2301f1d8)">
     <use xlink:href="#m28e7704339" x="185.966667" y="93.45913" style="fill: #539ecd; stroke: #539ecd"/>
    </g>
   </g>
   <g id="line2d_63">
    <g clip-path="url(#pbe2301f1d8)">
     <use xlink:href="#m28e7704339" x="185.966667" y="78.12" style="fill: #539ecd; stroke: #539ecd"/>
    </g>
   </g>
   <g id="LineCollection_26">
    <path d="M 199.118182 93.45913 
L 199.118182 78.12 
" clip-path="url(#pbe2301f1d8)" style="fill: none; stroke: #4d99ca; stroke-width: 2"/>
   </g>
   <g id="line2d_64">
    <defs>
     <path id="mdbb566f0f0" d="M 3 0 
L -3 -0 
" style="stroke: #4d99ca"/>
    </defs>
    <g clip-path="url(#pbe2301f1d8)">
     <use xlink:href="#mdbb566f0f0" x="199.118182" y="93.45913" style="fill: #4d99ca; stroke: #4d99ca"/>
    </g>
   </g>
   <g id="line2d_65">
    <g clip-path="url(#pbe2301f1d8)">
     <use xlink:href="#mdbb566f0f0" x="199.118182" y="78.12" style="fill: #4d99ca; stroke: #4d99ca"/>
    </g>
   </g>
   <g id="LineCollection_27">
    <path d="M 212.269697 93.45913 
L 212.269697 78.12 
" clip-path="url(#pbe2301f1d8)" style="fill: none; stroke: #4a98c9; stroke-width: 2"/>
   </g>
   <g id="line2d_66">
    <defs>
     <path id="m07b294f277" d="M 3 0 
L -3 -0 
" style="stroke: #4a98c9"/>
    </defs>
    <g clip-path="url(#pbe2301f1d8)">
     <use xlink:href="#m07b294f277" x="212.269697" y="93.45913" style="fill: #4a98c9; stroke: #4a98c9"/>
    </g>
   </g>
   <g id="line2d_67">
    <g clip-path="url(#pbe2301f1d8)">
     <use xlink:href="#m07b294f277" x="212.269697" y="78.12" style="fill: #4a98c9; stroke: #4a98c9"/>
    </g>
   </g>
   <g id="LineCollection_28">
    <path d="M 225.421212 93.45913 
L 225.421212 78.12 
" clip-path="url(#pbe2301f1d8)" style="fill: none; stroke: #4e9acb; stroke-width: 2"/>
   </g>
   <g id="line2d_68">
    <defs>
     <path id="m0813f6bc27" d="M 3 0 
L -3 -0 
" style="stroke: #4e9acb"/>
    </defs>
    <g clip-path="url(#pbe2301f1d8)">
     <use xlink:href="#m0813f6bc27" x="225.421212" y="93.45913" style="fill: #4e9acb; stroke: #4e9acb"/>
    </g>
   </g>
   <g id="line2d_69">
    <g clip-path="url(#pbe2301f1d8)">
     <use xlink:href="#m0813f6bc27" x="225.421212" y="78.12" style="fill: #4e9acb; stroke: #4e9acb"/>
    </g>
   </g>
   <g id="LineCollection_29">
    <path d="M 238.572727 93.45913 
L 238.572727 78.12 
" clip-path="url(#pbe2301f1d8)" style="fill: none; stroke: #4b98ca; stroke-width: 2"/>
   </g>
   <g id="line2d_70">
    <defs>
     <path id="m04dd644fc4" d="M 3 0 
L -3 -0 
" style="stroke: #4b98ca"/>
    </defs>
    <g clip-path="url(#pbe2301f1d8)">
     <use xlink:href="#m04dd644fc4" x="238.572727" y="93.45913" style="fill: #4b98ca; stroke: #4b98ca"/>
    </g>
   </g>
   <g id="line2d_71">
    <g clip-path="url(#pbe2301f1d8)">
     <use xlink:href="#m04dd644fc4" x="238.572727" y="78.12" style="fill: #4b98ca; stroke: #4b98ca"/>
    </g>
   </g>
   <g id="LineCollection_30">
    <path d="M 251.724242 93.45913 
L 251.724242 78.12 
" clip-path="url(#pbe2301f1d8)" style="fill: none; stroke: #4896c8; stroke-width: 2"/>
   </g>
   <g id="line2d_72">
    <defs>
     <path id="m0d710315e7" d="M 3 0 
L -3 -0 
" style="stroke: #4896c8"/>
    </defs>
    <g clip-path="url(#pbe2301f1d8)">
     <use xlink:href="#m0d710315e7" x="251.724242" y="93.45913" style="fill: #4896c8; stroke: #4896c8"/>
    </g>
   </g>
   <g id="line2d_73">
    <g clip-path="url(#pbe2301f1d8)">
     <use xlink:href="#m0d710315e7" x="251.724242" y="78.12" style="fill: #4896c8; stroke: #4896c8"/>
    </g>
   </g>
   <g id="LineCollection_31">
    <path d="M 264.875758 93.45913 
L 264.875758 78.12 
" clip-path="url(#pbe2301f1d8)" style="fill: none; stroke: #529dcc; stroke-width: 2"/>
   </g>
   <g id="line2d_74">
    <defs>
     <path id="m87d349a2d1" d="M 3 0 
L -3 -0 
" style="stroke: #529dcc"/>
    </defs>
    <g clip-path="url(#pbe2301f1d8)">
     <use xlink:href="#m87d349a2d1" x="264.875758" y="93.45913" style="fill: #529dcc; stroke: #529dcc"/>
    </g>
   </g>
   <g id="line2d_75">
    <g clip-path="url(#pbe2301f1d8)">
     <use xlink:href="#m87d349a2d1" x="264.875758" y="78.12" style="fill: #529dcc; stroke: #529dcc"/>
    </g>
   </g>
   <g id="LineCollection_32">
    <path d="M 278.027273 93.45913 
L 278.027273 78.12 
" clip-path="url(#pbe2301f1d8)" style="fill: none; stroke: #5aa2cf; stroke-width: 2"/>
   </g>
   <g id="line2d_76">
    <defs>
     <path id="md98a95a4db" d="M 3 0 
L -3 -0 
" style="stroke: #5aa2cf"/>
    </defs>
    <g clip-path="url(#pbe2301f1d8)">
     <use xlink:href="#md98a95a4db" x="278.027273" y="93.45913" style="fill: #5aa2cf; stroke: #5aa2cf"/>
    </g>
   </g>
   <g id="line2d_77">
    <g clip-path="url(#pbe2301f1d8)">
     <use xlink:href="#md98a95a4db" x="278.027273" y="78.12" style="fill: #5aa2cf; stroke: #5aa2cf"/>
    </g>
   </g>
   <g id="LineCollection_33">
    <path d="M 291.178788 108.798261 
L 291.178788 86.556522 
" clip-path="url(#pbe2301f1d8)" style="fill: none; stroke: #4f9bcb; stroke-width: 2"/>
   </g>
   <g id="line2d_78">
    <defs>
     <path id="me27d5a2977" d="M 3 0 
L -3 -0 
" style="stroke: #4f9bcb"/>
    </defs>
    <g clip-path="url(#pbe2301f1d8)">
     <use xlink:href="#me27d5a2977" x="291.178788" y="108.798261" style="fill: #4f9bcb; stroke: #4f9bcb"/>
    </g>
   </g>
   <g id="line2d_79">
    <g clip-path="url(#pbe2301f1d8)">
     <use xlink:href="#me27d5a2977" x="291.178788" y="86.556522" style="fill: #4f9bcb; stroke: #4f9bcb"/>
    </g>
   </g>
   <g id="LineCollection_34">
    <path d="M 304.330303 124.137391 
L 304.330303 93.45913 
" clip-path="url(#pbe2301f1d8)" style="fill: none; stroke: #1c6ab0; stroke-width: 2"/>
   </g>
   <g id="line2d_80">
    <defs>
     <path id="m0cffffbe1b" d="M 3 0 
L -3 -0 
" style="stroke: #1c6ab0"/>
    </defs>
    <g clip-path="url(#pbe2301f1d8)">
     <use xlink:href="#m0cffffbe1b" x="304.330303" y="124.137391" style="fill: #1c6ab0; stroke: #1c6ab0"/>
    </g>
   </g>
   <g id="line2d_81">
    <g clip-path="url(#pbe2301f1d8)">
     <use xlink:href="#m0cffffbe1b" x="304.330303" y="93.45913" style="fill: #1c6ab0; stroke: #1c6ab0"/>
    </g>
   </g>
   <g id="LineCollection_35">
    <path d="M 317.481818 139.476522 
L 317.481818 108.798261 
" clip-path="url(#pbe2301f1d8)" style="fill: none; stroke: #08306b; stroke-width: 2"/>
   </g>
   <g id="line2d_82">
    <defs>
     <path id="mf41a022ede" d="M 3 0 
L -3 -0 
" style="stroke: #08306b"/>
    </defs>
    <g clip-path="url(#pbe2301f1d8)">
     <use xlink:href="#mf41a022ede" x="317.481818" y="139.476522" style="fill: #08306b; stroke: #08306b"/>
    </g>
   </g>
   <g id="line2d_83">
    <g clip-path="url(#pbe2301f1d8)">
     <use xlink:href="#mf41a022ede" x="317.481818" y="108.798261" style="fill: #08306b; stroke: #08306b"/>
    </g>
   </g>
   <g id="LineCollection_36">
    <path d="M 330.633333 170.154783 
L 330.633333 139.476522 
" clip-path="url(#pbe2301f1d8)" style="fill: none; stroke: #08306b; stroke-width: 2"/>
   </g>
   <g id="line2d_84">
    <g clip-path="url(#pbe2301f1d8)">
     <use xlink:href="#mf41a022ede" x="330.633333" y="170.154783" style="fill: #08306b; stroke: #08306b"/>
    </g>
   </g>
   <g id="line2d_85">
    <g clip-path="url(#pbe2301f1d8)">
     <use xlink:href="#mf41a022ede" x="330.633333" y="139.476522" style="fill: #08306b; stroke: #08306b"/>
    </g>
   </g>
   <g id="LineCollection_37">
    <path d="M 343.784848 216.172174 
L 343.784848 154.815652 
" clip-path="url(#pbe2301f1d8)" style="fill: none; stroke: #08306b; stroke-width: 2"/>
   </g>
   <g id="line2d_86">
    <g clip-path="url(#pbe2301f1d8)">
     <use xlink:href="#mf41a022ede" x="343.784848" y="216.172174" style="fill: #08306b; stroke: #08306b"/>
    </g>
   </g>
   <g id="line2d_87">
    <g clip-path="url(#pbe2301f1d8)">
     <use xlink:href="#mf41a022ede" x="343.784848" y="154.815652" style="fill: #08306b; stroke: #08306b"/>
    </g>
   </g>
   <g id="LineCollection_38">
    <path d="M 356.936364 262.189565 
L 356.936364 185.493913 
" clip-path="url(#pbe2301f1d8)" style="fill: none; stroke: #08306b; stroke-width: 2"/>
   </g>
   <g id="line2d_88">
    <g clip-path="url(#pbe2301f1d8)">
     <use xlink:href="#mf41a022ede" x="356.936364" y="262.189565" style="fill: #08306b; stroke: #08306b"/>
    </g>
   </g>
   <g id="line2d_89">
    <g clip-path="url(#pbe2301f1d8)">
     <use xlink:href="#mf41a022ede" x="356.936364" y="185.493913" style="fill: #08306b; stroke: #08306b"/>
    </g>
   </g>
   <g id="LineCollection_39">
    <path d="M 370.087879 338.885217 
L 370.087879 216.172174 
" clip-path="url(#pbe2301f1d8)" style="fill: none; stroke: #08306b; stroke-width: 2"/>
   </g>
   <g id="line2d_90">
    <g clip-path="url(#pbe2301f1d8)">
     <use xlink:href="#mf41a022ede" x="370.087879" y="338.885217" style="fill: #08306b; stroke: #08306b"/>
    </g>
   </g>
   <g id="line2d_91">
    <g clip-path="url(#pbe2301f1d8)">
     <use xlink:href="#mf41a022ede" x="370.087879" y="216.172174" style="fill: #08306b; stroke: #08306b"/>
    </g>
   </g>
   <g id="LineCollection_40">
    <path d="M 383.239394 430.92 
L 383.239394 262.189565 
" clip-path="url(#pbe2301f1d8)" style="fill: none; stroke: #08306b; stroke-width: 2"/>
   </g>
   <g id="line2d_92">
    <g clip-path="url(#pbe2301f1d8)">
     <use xlink:href="#mf41a022ede" x="383.239394" y="430.92" style="fill: #08306b; stroke: #08306b"/>
    </g>
   </g>
   <g id="line2d_93">
    <g clip-path="url(#pbe2301f1d8)">
     <use xlink:href="#mf41a022ede" x="383.239394" y="262.189565" style="fill: #08306b; stroke: #08306b"/>
    </g>
   </g>
   <g id="LineCollection_41">
    <path d="M 396.390909 430.92 
L 396.390909 292.867826 
" clip-path="url(#pbe2301f1d8)" style="fill: none; stroke: #08306b; stroke-width: 2"/>
   </g>
   <g id="line2d_94">
    <g clip-path="url(#pbe2301f1d8)">
     <use xlink:href="#mf41a022ede" x="396.390909" y="430.92" style="fill: #08306b; stroke: #08306b"/>
    </g>
   </g>
   <g id="line2d_95">
    <g clip-path="url(#pbe2301f1d8)">
     <use xlink:href="#mf41a022ede" x="396.390909" y="292.867826" style="fill: #08306b; stroke: #08306b"/>
    </g>
   </g>
   <g id="LineCollection_42">
    <path d="M 409.542424 430.92 
L 409.542424 369.563478 
" clip-path="url(#pbe2301f1d8)" style="fill: none; stroke: #08306b; stroke-width: 2"/>
   </g>
   <g id="line2d_96">
    <g clip-path="url(#pbe2301f1d8)">
     <use xlink:href="#mf41a022ede" x="409.542424" y="430.92" style="fill: #08306b; stroke: #08306b"/>
    </g>
   </g>
   <g id="line2d_97">
    <g clip-path="url(#pbe2301f1d8)">
     <use xlink:href="#mf41a022ede" x="409.542424" y="369.563478" style="fill: #08306b; stroke: #08306b"/>
    </g>
   </g>
   <g id="LineCollection_43">
    <path d="M 422.693939 430.92 
L 422.693939 430.92 
" clip-path="url(#pbe2301f1d8)" style="fill: none; stroke: #e7f0fa; stroke-width: 2"/>
   </g>
   <g id="line2d_98">
    <defs>
     <path id="mf92444648c" d="M 3 0 
L -3 -0 
" style="stroke: #e7f0fa"/>
    </defs>
    <g clip-path="url(#pbe2301f1d8)">
     <use xlink:href="#mf92444648c" x="422.693939" y="430.92" style="fill: #e7f0fa; stroke: #e7f0fa"/>
    </g>
   </g>
   <g id="line2d_99">
    <g clip-path="url(#pbe2301f1d8)">
     <use xlink:href="#mf92444648c" x="422.693939" y="430.92" style="fill: #e7f0fa; stroke: #e7f0fa"/>
    </g>
   </g>
   <g id="LineCollection_44">
    <path d="M 435.845455 430.92 
L 435.845455 430.92 
" clip-path="url(#pbe2301f1d8)" style="fill: none; stroke: #f7fbff; stroke-width: 2"/>
   </g>
   <g id="line2d_100">
    <g clip-path="url(#pbe2301f1d8)">
     <use xlink:href="#m4814ea9bfa" x="435.845455" y="430.92" style="fill: #f7fbff; stroke: #f7fbff"/>
    </g>
   </g>
   <g id="line2d_101">
    <g clip-path="url(#pbe2301f1d8)">
     <use xlink:href="#m4814ea9bfa" x="435.845455" y="430.92" style="fill: #f7fbff; stroke: #f7fbff"/>
    </g>
   </g>
   <g id="LineCollection_45">
    <path clip-path="url(#pbe2301f1d8)" style="fill: none; stroke: #f7fbff; stroke-width: 2"/>
   </g>
   <g id="line2d_102">
    <g clip-path="url(#pbe2301f1d8)"/>
   </g>
   <g id="line2d_103">
    <g clip-path="url(#pbe2301f1d8)"/>
   </g>
   <g id="LineCollection_46">
    <path clip-path="url(#pbe2301f1d8)" style="fill: none; stroke: #f7fbff; stroke-width: 2"/>
   </g>
   <g id="line2d_104">
    <g clip-path="url(#pbe2301f1d8)"/>
   </g>
   <g id="line2d_105">
    <g clip-path="url(#pbe2301f1d8)"/>
   </g>
   <g id="LineCollection_47">
    <path clip-path="url(#pbe2301f1d8)" style="fill: none; stroke: #f7fbff; stroke-width: 2"/>
   </g>
   <g id="line2d_106">
    <g clip-path="url(#pbe2301f1d8)"/>
   </g>
   <g id="line2d_107">
    <g clip-path="url(#pbe2301f1d8)"/>
   </g>
   <g id="LineCollection_48">
    <path clip-path="url(#pbe2301f1d8)" style="fill: none; stroke: #f7fbff; stroke-width: 2"/>
   </g>
   <g id="line2d_108">
    <g clip-path="url(#pbe2301f1d8)"/>
   </g>
   <g id="line2d_109">
    <g clip-path="url(#pbe2301f1d8)"/>
   </g>
   <g id="LineCollection_49">
    <path clip-path="url(#pbe2301f1d8)" style="fill: none; stroke: #f7fbff; stroke-width: 2"/>
   </g>
   <g id="line2d_110">
    <g clip-path="url(#pbe2301f1d8)"/>
   </g>
   <g id="line2d_111">
    <g clip-path="url(#pbe2301f1d8)"/>
   </g>
   <g id="LineCollection_50">
    <path clip-path="url(#pbe2301f1d8)" style="fill: none; stroke: #f7fbff; stroke-width: 2"/>
   </g>
   <g id="line2d_112">
    <g clip-path="url(#pbe2301f1d8)"/>
   </g>
   <g id="line2d_113">
    <g clip-path="url(#pbe2301f1d8)"/>
   </g>
   <g id="LineCollection_51">
    <path clip-path="url(#pbe2301f1d8)" style="fill: none; stroke: #f7fbff; stroke-width: 2"/>
   </g>
   <g id="line2d_114">
    <g clip-path="url(#pbe2301f1d8)"/>
   </g>
   <g id="line2d_115">
    <g clip-path="url(#pbe2301f1d8)"/>
   </g>
   <g id="LineCollection_52">
    <path clip-path="url(#pbe2301f1d8)" style="fill: none; stroke: #f7fbff; stroke-width: 2"/>
   </g>
   <g id="line2d_116">
    <g clip-path="url(#pbe2301f1d8)"/>
   </g>
   <g id="line2d_117">
    <g clip-path="url(#pbe2301f1d8)"/>
   </g>
   <g id="line2d_118">
    <defs>
     <path id="m39cf53854a" d="M 0 4 
C 1.060812 4 2.078319 3.578535 2.828427 2.828427 
C 3.578535 2.078319 4 1.060812 4 0 
C 4 -1.060812 3.578535 -2.078319 2.828427 -2.828427 
C 2.078319 -3.578535 1.060812 -4 0 -4 
C -1.060812 -4 -2.078319 -3.578535 -2.828427 -2.828427 
C -3.578535 -2.078319 -4 -1.060812 -4 0 
C -4 1.060812 -3.578535 2.078319 -2.828427 2.828427 
C -2.078319 3.578535 -1.060812 4 0 4 
z
" style="stroke: #f7fbff"/>
    </defs>
    <g clip-path="url(#pbe2301f1d8)"/>
   </g>
   <g id="line2d_119">
    <g clip-path="url(#pbe2301f1d8)"/>
   </g>
   <g id="line2d_120">
    <g clip-path="url(#pbe2301f1d8)"/>
   </g>
   <g id="line2d_121">
    <g clip-path="url(#pbe2301f1d8)"/>
   </g>
   <g id="line2d_122">
    <g clip-path="url(#pbe2301f1d8)"/>
   </g>
   <g id="line2d_123">
    <g clip-path="url(#pbe2301f1d8)"/>
   </g>
   <g id="line2d_124">
    <g clip-path="url(#pbe2301f1d8)"/>
   </g>
   <g id="line2d_125">
    <g clip-path="url(#pbe2301f1d8)"/>
   </g>
   <g id="line2d_126">
    <g clip-path="url(#pbe2301f1d8)"/>
   </g>
   <g id="line2d_127">
    <g clip-path="url(#pbe2301f1d8)"/>
   </g>
   <g id="line2d_128">
    <g clip-path="url(#pbe2301f1d8)"/>
   </g>
   <g id="line2d_129">
    <g clip-path="url(#pbe2301f1d8)"/>
   </g>
   <g id="line2d_130">
    <g clip-path="url(#pbe2301f1d8)"/>
   </g>
   <g id="line2d_131">
    <g clip-path="url(#pbe2301f1d8)"/>
   </g>
   <g id="line2d_132">
    <g clip-path="url(#pbe2301f1d8)"/>
   </g>
   <g id="line2d_133">
    <g clip-path="url(#pbe2301f1d8)"/>
   </g>
   <g id="line2d_134">
    <defs>
     <path id="mab8982564c" d="M 0 4 
C 1.060812 4 2.078319 3.578535 2.828427 2.828427 
C 3.578535 2.078319 4 1.060812 4 0 
C 4 -1.060812 3.578535 -2.078319 2.828427 -2.828427 
C 2.078319 -3.578535 1.060812 -4 0 -4 
C -1.060812 -4 -2.078319 -3.578535 -2.828427 -2.828427 
C -3.578535 -2.078319 -4 -1.060812 -4 0 
C -4 1.060812 -3.578535 2.078319 -2.828427 2.828427 
C -2.078319 3.578535 -1.060812 4 0 4 
z
" style="stroke: #f6faff"/>
    </defs>
    <g clip-path="url(#pbe2301f1d8)">
     <use xlink:href="#mab8982564c" x="80.754545" y="430.92" style="fill: #f6faff; stroke: #f6faff"/>
    </g>
   </g>
   <g id="line2d_135">
    <defs>
     <path id="m43c33cbbcc" d="M 0 4 
C 1.060812 4 2.078319 3.578535 2.828427 2.828427 
C 3.578535 2.078319 4 1.060812 4 0 
C 4 -1.060812 3.578535 -2.078319 2.828427 -2.828427 
C 2.078319 -3.578535 1.060812 -4 0 -4 
C -1.060812 -4 -2.078319 -3.578535 -2.828427 -2.828427 
C -3.578535 -2.078319 -4 -1.060812 -4 0 
C -4 1.060812 -3.578535 2.078319 -2.828427 2.828427 
C -2.078319 3.578535 -1.060812 4 0 4 
z
" style="stroke: #f5fafe"/>
    </defs>
    <g clip-path="url(#pbe2301f1d8)">
     <use xlink:href="#m43c33cbbcc" x="93.906061" y="231.511304" style="fill: #f5fafe; stroke: #f5fafe"/>
    </g>
   </g>
   <g id="line2d_136">
    <defs>
     <path id="m70363568e2" d="M 0 4 
C 1.060812 4 2.078319 3.578535 2.828427 2.828427 
C 3.578535 2.078319 4 1.060812 4 0 
C 4 -1.060812 3.578535 -2.078319 2.828427 -2.828427 
C 2.078319 -3.578535 1.060812 -4 0 -4 
C -1.060812 -4 -2.078319 -3.578535 -2.828427 -2.828427 
C -3.578535 -2.078319 -4 -1.060812 -4 0 
C -4 1.060812 -3.578535 2.078319 -2.828427 2.828427 
C -2.078319 3.578535 -1.060812 4 0 4 
z
" style="stroke: #e3eef9"/>
    </defs>
    <g clip-path="url(#pbe2301f1d8)">
     <use xlink:href="#m70363568e2" x="107.057576" y="154.815652" style="fill: #e3eef9; stroke: #e3eef9"/>
    </g>
   </g>
   <g id="line2d_137">
    <defs>
     <path id="mbdbd50da24" d="M 0 4 
C 1.060812 4 2.078319 3.578535 2.828427 2.828427 
C 3.578535 2.078319 4 1.060812 4 0 
C 4 -1.060812 3.578535 -2.078319 2.828427 -2.828427 
C 2.078319 -3.578535 1.060812 -4 0 -4 
C -1.060812 -4 -2.078319 -3.578535 -2.828427 -2.828427 
C -3.578535 -2.078319 -4 -1.060812 -4 0 
C -4 1.060812 -3.578535 2.078319 -2.828427 2.828427 
C -2.078319 3.578535 -1.060812 4 0 4 
z
" style="stroke: #b8d5ea"/>
    </defs>
    <g clip-path="url(#pbe2301f1d8)">
     <use xlink:href="#mbdbd50da24" x="120.209091" y="124.137391" style="fill: #b8d5ea; stroke: #b8d5ea"/>
    </g>
   </g>
   <g id="line2d_138">
    <defs>
     <path id="m84f88f56d0" d="M 0 4 
C 1.060812 4 2.078319 3.578535 2.828427 2.828427 
C 3.578535 2.078319 4 1.060812 4 0 
C 4 -1.060812 3.578535 -2.078319 2.828427 -2.828427 
C 2.078319 -3.578535 1.060812 -4 0 -4 
C -1.060812 -4 -2.078319 -3.578535 -2.828427 -2.828427 
C -3.578535 -2.078319 -4 -1.060812 -4 0 
C -4 1.060812 -3.578535 2.078319 -2.828427 2.828427 
C -2.078319 3.578535 -1.060812 4 0 4 
z
" style="stroke: #58a1cf"/>
    </defs>
    <g clip-path="url(#pbe2301f1d8)">
     <use xlink:href="#m84f88f56d0" x="133.360606" y="108.798261" style="fill: #58a1cf; stroke: #58a1cf"/>
    </g>
   </g>
   <g id="line2d_139">
    <defs>
     <path id="m8c965ca209" d="M 0 4 
C 1.060812 4 2.078319 3.578535 2.828427 2.828427 
C 3.578535 2.078319 4 1.060812 4 0 
C 4 -1.060812 3.578535 -2.078319 2.828427 -2.828427 
C 2.078319 -3.578535 1.060812 -4 0 -4 
C -1.060812 -4 -2.078319 -3.578535 -2.828427 -2.828427 
C -3.578535 -2.078319 -4 -1.060812 -4 0 
C -4 1.060812 -3.578535 2.078319 -2.828427 2.828427 
C -2.078319 3.578535 -1.060812 4 0 4 
z
" style="stroke: #2474b7"/>
    </defs>
    <g clip-path="url(#pbe2301f1d8)">
     <use xlink:href="#m8c965ca209" x="146.512121" y="93.45913" style="fill: #2474b7; stroke: #2474b7"/>
    </g>
   </g>
   <g id="line2d_140">
    <g clip-path="url(#pbe2301f1d8)">
     <use xlink:href="#m8c965ca209" x="159.663636" y="93.45913" style="fill: #2474b7; stroke: #2474b7"/>
    </g>
   </g>
   <g id="line2d_141">
    <defs>
     <path id="m0ff098c9f3" d="M 0 4 
C 1.060812 4 2.078319 3.578535 2.828427 2.828427 
C 3.578535 2.078319 4 1.060812 4 0 
C 4 -1.060812 3.578535 -2.078319 2.828427 -2.828427 
C 2.078319 -3.578535 1.060812 -4 0 -4 
C -1.060812 -4 -2.078319 -3.578535 -2.828427 -2.828427 
C -3.578535 -2.078319 -4 -1.060812 -4 0 
C -4 1.060812 -3.578535 2.078319 -2.828427 2.828427 
C -2.078319 3.578535 -1.060812 4 0 4 
z
" style="stroke: #2b7bba"/>
    </defs>
    <g clip-path="url(#pbe2301f1d8)">
     <use xlink:href="#m0ff098c9f3" x="172.815152" y="93.45913" style="fill: #2b7bba; stroke: #2b7bba"/>
    </g>
   </g>
   <g id="line2d_142">
    <defs>
     <path id="md1adc18e42" d="M 0 4 
C 1.060812 4 2.078319 3.578535 2.828427 2.828427 
C 3.578535 2.078319 4 1.060812 4 0 
C 4 -1.060812 3.578535 -2.078319 2.828427 -2.828427 
C 2.078319 -3.578535 1.060812 -4 0 -4 
C -1.060812 -4 -2.078319 -3.578535 -2.828427 -2.828427 
C -3.578535 -2.078319 -4 -1.060812 -4 0 
C -4 1.060812 -3.578535 2.078319 -2.828427 2.828427 
C -2.078319 3.578535 -1.060812 4 0 4 
z
" style="stroke: #539ecd"/>
    </defs>
    <g clip-path="url(#pbe2301f1d8)">
     <use xlink:href="#md1adc18e42" x="185.966667" y="93.45913" style="fill: #539ecd; stroke: #539ecd"/>
    </g>
   </g>
   <g id="line2d_143">
    <defs>
     <path id="m9b3160b356" d="M 0 4 
C 1.060812 4 2.078319 3.578535 2.828427 2.828427 
C 3.578535 2.078319 4 1.060812 4 0 
C 4 -1.060812 3.578535 -2.078319 2.828427 -2.828427 
C 2.078319 -3.578535 1.060812 -4 0 -4 
C -1.060812 -4 -2.078319 -3.578535 -2.828427 -2.828427 
C -3.578535 -2.078319 -4 -1.060812 -4 0 
C -4 1.060812 -3.578535 2.078319 -2.828427 2.828427 
C -2.078319 3.578535 -1.060812 4 0 4 
z
" style="stroke: #4d99ca"/>
    </defs>
    <g clip-path="url(#pbe2301f1d8)">
     <use xlink:href="#m9b3160b356" x="199.118182" y="93.45913" style="fill: #4d99ca; stroke: #4d99ca"/>
    </g>
   </g>
   <g id="line2d_144">
    <defs>
     <path id="m832ab992c1" d="M 0 4 
C 1.060812 4 2.078319 3.578535 2.828427 2.828427 
C 3.578535 2.078319 4 1.060812 4 0 
C 4 -1.060812 3.578535 -2.078319 2.828427 -2.828427 
C 2.078319 -3.578535 1.060812 -4 0 -4 
C -1.060812 -4 -2.078319 -3.578535 -2.828427 -2.828427 
C -3.578535 -2.078319 -4 -1.060812 -4 0 
C -4 1.060812 -3.578535 2.078319 -2.828427 2.828427 
C -2.078319 3.578535 -1.060812 4 0 4 
z
" style="stroke: #4a98c9"/>
    </defs>
    <g clip-path="url(#pbe2301f1d8)">
     <use xlink:href="#m832ab992c1" x="212.269697" y="93.45913" style="fill: #4a98c9; stroke: #4a98c9"/>
    </g>
   </g>
   <g id="line2d_145">
    <defs>
     <path id="m53c296d474" d="M 0 4 
C 1.060812 4 2.078319 3.578535 2.828427 2.828427 
C 3.578535 2.078319 4 1.060812 4 0 
C 4 -1.060812 3.578535 -2.078319 2.828427 -2.828427 
C 2.078319 -3.578535 1.060812 -4 0 -4 
C -1.060812 -4 -2.078319 -3.578535 -2.828427 -2.828427 
C -3.578535 -2.078319 -4 -1.060812 -4 0 
C -4 1.060812 -3.578535 2.078319 -2.828427 2.828427 
C -2.078319 3.578535 -1.060812 4 0 4 
z
" style="stroke: #4e9acb"/>
    </defs>
    <g clip-path="url(#pbe2301f1d8)">
     <use xlink:href="#m53c296d474" x="225.421212" y="93.45913" style="fill: #4e9acb; stroke: #4e9acb"/>
    </g>
   </g>
   <g id="line2d_146">
    <defs>
     <path id="mded78dacf3" d="M 0 4 
C 1.060812 4 2.078319 3.578535 2.828427 2.828427 
C 3.578535 2.078319 4 1.060812 4 0 
C 4 -1.060812 3.578535 -2.078319 2.828427 -2.828427 
C 2.078319 -3.578535 1.060812 -4 0 -4 
C -1.060812 -4 -2.078319 -3.578535 -2.828427 -2.828427 
C -3.578535 -2.078319 -4 -1.060812 -4 0 
C -4 1.060812 -3.578535 2.078319 -2.828427 2.828427 
C -2.078319 3.578535 -1.060812 4 0 4 
z
" style="stroke: #4b98ca"/>
    </defs>
    <g clip-path="url(#pbe2301f1d8)">
     <use xlink:href="#mded78dacf3" x="238.572727" y="93.45913" style="fill: #4b98ca; stroke: #4b98ca"/>
    </g>
   </g>
   <g id="line2d_147">
    <defs>
     <path id="m451a6274fe" d="M 0 4 
C 1.060812 4 2.078319 3.578535 2.828427 2.828427 
C 3.578535 2.078319 4 1.060812 4 0 
C 4 -1.060812 3.578535 -2.078319 2.828427 -2.828427 
C 2.078319 -3.578535 1.060812 -4 0 -4 
C -1.060812 -4 -2.078319 -3.578535 -2.828427 -2.828427 
C -3.578535 -2.078319 -4 -1.060812 -4 0 
C -4 1.060812 -3.578535 2.078319 -2.828427 2.828427 
C -2.078319 3.578535 -1.060812 4 0 4 
z
" style="stroke: #4896c8"/>
    </defs>
    <g clip-path="url(#pbe2301f1d8)">
     <use xlink:href="#m451a6274fe" x="251.724242" y="93.45913" style="fill: #4896c8; stroke: #4896c8"/>
    </g>
   </g>
   <g id="line2d_148">
    <defs>
     <path id="m51aa4f4495" d="M 0 4 
C 1.060812 4 2.078319 3.578535 2.828427 2.828427 
C 3.578535 2.078319 4 1.060812 4 0 
C 4 -1.060812 3.578535 -2.078319 2.828427 -2.828427 
C 2.078319 -3.578535 1.060812 -4 0 -4 
C -1.060812 -4 -2.078319 -3.578535 -2.828427 -2.828427 
C -3.578535 -2.078319 -4 -1.060812 -4 0 
C -4 1.060812 -3.578535 2.078319 -2.828427 2.828427 
C -2.078319 3.578535 -1.060812 4 0 4 
z
" style="stroke: #529dcc"/>
    </defs>
    <g clip-path="url(#pbe2301f1d8)">
     <use xlink:href="#m51aa4f4495" x="264.875758" y="93.45913" style="fill: #529dcc; stroke: #529dcc"/>
    </g>
   </g>
   <g id="line2d_149">
    <defs>
     <path id="m77db08fdc2" d="M 0 4 
C 1.060812 4 2.078319 3.578535 2.828427 2.828427 
C 3.578535 2.078319 4 1.060812 4 0 
C 4 -1.060812 3.578535 -2.078319 2.828427 -2.828427 
C 2.078319 -3.578535 1.060812 -4 0 -4 
C -1.060812 -4 -2.078319 -3.578535 -2.828427 -2.828427 
C -3.578535 -2.078319 -4 -1.060812 -4 0 
C -4 1.060812 -3.578535 2.078319 -2.828427 2.828427 
C -2.078319 3.578535 -1.060812 4 0 4 
z
" style="stroke: #5aa2cf"/>
    </defs>
    <g clip-path="url(#pbe2301f1d8)">
     <use xlink:href="#m77db08fdc2" x="278.027273" y="93.45913" style="fill: #5aa2cf; stroke: #5aa2cf"/>
    </g>
   </g>
   <g id="line2d_150">
    <defs>
     <path id="mf11158cb04" d="M 0 4 
C 1.060812 4 2.078319 3.578535 2.828427 2.828427 
C 3.578535 2.078319 4 1.060812 4 0 
C 4 -1.060812 3.578535 -2.078319 2.828427 -2.828427 
C 2.078319 -3.578535 1.060812 -4 0 -4 
C -1.060812 -4 -2.078319 -3.578535 -2.828427 -2.828427 
C -3.578535 -2.078319 -4 -1.060812 -4 0 
C -4 1.060812 -3.578535 2.078319 -2.828427 2.828427 
C -2.078319 3.578535 -1.060812 4 0 4 
z
" style="stroke: #4f9bcb"/>
    </defs>
    <g clip-path="url(#pbe2301f1d8)">
     <use xlink:href="#mf11158cb04" x="291.178788" y="108.798261" style="fill: #4f9bcb; stroke: #4f9bcb"/>
    </g>
   </g>
   <g id="line2d_151">
    <defs>
     <path id="mecc2801a20" d="M 0 4 
C 1.060812 4 2.078319 3.578535 2.828427 2.828427 
C 3.578535 2.078319 4 1.060812 4 0 
C 4 -1.060812 3.578535 -2.078319 2.828427 -2.828427 
C 2.078319 -3.578535 1.060812 -4 0 -4 
C -1.060812 -4 -2.078319 -3.578535 -2.828427 -2.828427 
C -3.578535 -2.078319 -4 -1.060812 -4 0 
C -4 1.060812 -3.578535 2.078319 -2.828427 2.828427 
C -2.078319 3.578535 -1.060812 4 0 4 
z
" style="stroke: #1c6ab0"/>
    </defs>
    <g clip-path="url(#pbe2301f1d8)">
     <use xlink:href="#mecc2801a20" x="304.330303" y="124.137391" style="fill: #1c6ab0; stroke: #1c6ab0"/>
    </g>
   </g>
   <g id="line2d_152">
    <defs>
     <path id="m713a48dbc5" d="M 0 4 
C 1.060812 4 2.078319 3.578535 2.828427 2.828427 
C 3.578535 2.078319 4 1.060812 4 0 
C 4 -1.060812 3.578535 -2.078319 2.828427 -2.828427 
C 2.078319 -3.578535 1.060812 -4 0 -4 
C -1.060812 -4 -2.078319 -3.578535 -2.828427 -2.828427 
C -3.578535 -2.078319 -4 -1.060812 -4 0 
C -4 1.060812 -3.578535 2.078319 -2.828427 2.828427 
C -2.078319 3.578535 -1.060812 4 0 4 
z
" style="stroke: #08306b"/>
    </defs>
    <g clip-path="url(#pbe2301f1d8)">
     <use xlink:href="#m713a48dbc5" x="317.481818" y="139.476522" style="fill: #08306b; stroke: #08306b"/>
    </g>
   </g>
   <g id="line2d_153">
    <g clip-path="url(#pbe2301f1d8)">
     <use xlink:href="#m713a48dbc5" x="330.633333" y="154.815652" style="fill: #08306b; stroke: #08306b"/>
    </g>
   </g>
   <g id="line2d_154">
    <g clip-path="url(#pbe2301f1d8)">
     <use xlink:href="#m713a48dbc5" x="343.784848" y="185.493913" style="fill: #08306b; stroke: #08306b"/>
    </g>
   </g>
   <g id="line2d_155">
    <g clip-path="url(#pbe2301f1d8)">
     <use xlink:href="#m713a48dbc5" x="356.936364" y="216.172174" style="fill: #08306b; stroke: #08306b"/>
    </g>
   </g>
   <g id="line2d_156">
    <g clip-path="url(#pbe2301f1d8)">
     <use xlink:href="#m713a48dbc5" x="370.087879" y="262.189565" style="fill: #08306b; stroke: #08306b"/>
    </g>
   </g>
   <g id="line2d_157">
    <g clip-path="url(#pbe2301f1d8)">
     <use xlink:href="#m713a48dbc5" x="383.239394" y="308.206957" style="fill: #08306b; stroke: #08306b"/>
    </g>
   </g>
   <g id="line2d_158">
    <g clip-path="url(#pbe2301f1d8)">
     <use xlink:href="#m713a48dbc5" x="396.390909" y="354.224348" style="fill: #08306b; stroke: #08306b"/>
    </g>
   </g>
   <g id="line2d_159">
    <g clip-path="url(#pbe2301f1d8)">
     <use xlink:href="#m713a48dbc5" x="409.542424" y="430.92" style="fill: #08306b; stroke: #08306b"/>
    </g>
   </g>
   <g id="line2d_160">
    <defs>
     <path id="m4f47b15d00" d="M 0 4 
C 1.060812 4 2.078319 3.578535 2.828427 2.828427 
C 3.578535 2.078319 4 1.060812 4 0 
C 4 -1.060812 3.578535 -2.078319 2.828427 -2.828427 
C 2.078319 -3.578535 1.060812 -4 0 -4 
C -1.060812 -4 -2.078319 -3.578535 -2.828427 -2.828427 
C -3.578535 -2.078319 -4 -1.060812 -4 0 
C -4 1.060812 -3.578535 2.078319 -2.828427 2.828427 
C -2.078319 3.578535 -1.060812 4 0 4 
z
" style="stroke: #e7f0fa"/>
    </defs>
    <g clip-path="url(#pbe2301f1d8)">
     <use xlink:href="#m4f47b15d00" x="422.693939" y="430.92" style="fill: #e7f0fa; stroke: #e7f0fa"/>
    </g>
   </g>
   <g id="line2d_161">
    <g clip-path="url(#pbe2301f1d8)">
     <use xlink:href="#m39cf53854a" x="435.845455" y="430.92" style="fill: #f7fbff; stroke: #f7fbff"/>
    </g>
   </g>
   <g id="line2d_162">
    <g clip-path="url(#pbe2301f1d8)"/>
   </g>
   <g id="line2d_163">
    <g clip-path="url(#pbe2301f1d8)"/>
   </g>
   <g id="line2d_164">
    <g clip-path="url(#pbe2301f1d8)"/>
   </g>
   <g id="line2d_165">
    <g clip-path="url(#pbe2301f1d8)"/>
   </g>
   <g id="line2d_166">
    <g clip-path="url(#pbe2301f1d8)"/>
   </g>
   <g id="line2d_167">
    <g clip-path="url(#pbe2301f1d8)"/>
   </g>
   <g id="line2d_168">
    <g clip-path="url(#pbe2301f1d8)"/>
   </g>
   <g id="line2d_169">
    <g clip-path="url(#pbe2301f1d8)"/>
   </g>
   <g id="patch_3">
    <path d="M 63 448.56 
L 63 60.48 
" style="fill: none; stroke: #000000; stroke-width: 0.8; stroke-linejoin: miter; stroke-linecap: square"/>
   </g>
   <g id="patch_4">
    <path d="M 63 448.56 
L 453.6 448.56 
" style="fill: none; stroke: #000000; stroke-width: 0.8; stroke-linejoin: miter; stroke-linecap: square"/>
   </g>
  </g>
 </g>
 <defs>
  <clipPath id="pbe2301f1d8">
   <rect x="63" y="60.48" width="390.6" height="388.08"/>
  </clipPath>
 </defs>
</svg>
