<?xml version="1.0" encoding="utf-8" standalone="no"?>
<!DOCTYPE svg PUBLIC "-//W3C//DTD SVG 1.1//EN"
  "http://www.w3.org/Graphics/SVG/1.1/DTD/svg11.dtd">
<svg xmlns:xlink="http://www.w3.org/1999/xlink" width="504pt" height="504pt" viewBox="0 0 504 504" xmlns="http://www.w3.org/2000/svg" version="1.1">
 <metadata>
  <rdf:RDF xmlns:dc="http://purl.org/dc/elements/1.1/" xmlns:cc="http://creativecommons.org/ns#" xmlns:rdf="http://www.w3.org/1999/02/22-rdf-syntax-ns#">
   <cc:Work>
    <dc:type rdf:resource="http://purl.org/dc/dcmitype/StillImage"/>
    <dc:date>2026-07-04T09:14:13.626344</dc:date>
    <dc:format>image/svg+xml</dc:format>
    <dc:creator>
     <cc:Agent>
      <dc:title>Matplotlib v3.11.0, https://matplotlib.org/</dc:title>
     </cc:Agent>
    </dc:creator>
   </cc:Work>
  </rdf:RDF>
 </metadata>
 <defs>
  <style type="text/css">*{stroke-linejoin: round; stroke-linecap: butt}</style>
 </defs>
 <g id="figure_1">
  <g id="patch_1">
   <path d="M 0 504 
L 504 504 
L 504 0 
L 0 0 
L 0 504 
z
" style="fill: none"/>
  </g>
  <g id="axes_1">
   <g id="patch_2">
    <path d="M 63 448.56 
L 453.6 448.56 
L 453.6 60.48 
L 63 60.48 
L 63 448.56 
z
" style="fill: none"/>
   </g>
   <g id="matplotlib.axis_1">
    <g id="xtick_1">
     <g id="line2d_1">
      <defs>
       <path id="m5c87f6d91a" d="M 0 0 
L 0 3.5 
" style="stroke: #000000; stroke-width: 0.8"/>
      </defs>
      <g>
       <use xlink:href="#m5c87f6d91a" x="75.876923" y="448.56" style="stroke: #000000; stroke-width: 0.8"/>
      </g>
     </g>
     <g id="text_1">
      <text style="font-size: 16px; font-family: 'Arial', sans-serif; text-anchor: middle" x="75.876923" y="467.71625" transform="rotate(-0 75.876923 467.71625)">1 May</text>
     </g>
    </g>
    <g id="xtick_2">
     <g id="line2d_2">
      <g>
       <use xlink:href="#m5c87f6d91a" x="136.359441" y="448.56" style="stroke: #000000; stroke-width: 0.8"/>
      </g>
     </g>
     <g id="text_2">
      <text style="font-size: 16px; font-family: 'Arial', sans-serif; text-anchor: middle" x="136.359441" y="467.71625" transform="rotate(-0 136.359441 467.71625)">1 Jun</text>
     </g>
    </g>
    <g id="xtick_3">
     <g id="line2d_3">
      <g>
       <use xlink:href="#m5c87f6d91a" x="194.890909" y="448.56" style="stroke: #000000; stroke-width: 0.8"/>
      </g>
     </g>
     <g id="text_3">
      <text style="font-size: 16px; font-family: 'Arial', sans-serif; text-anchor: middle" x="194.890909" y="467.7175" transform="rotate(-0 194.890909 467.7175)">1 Jul</text>
     </g>
    </g>
    <g id="xtick_4">
     <g id="line2d_4">
      <g>
       <use xlink:href="#m5c87f6d91a" x="255.373427" y="448.56" style="stroke: #000000; stroke-width: 0.8"/>
      </g>
     </g>
     <g id="text_4">
      <text style="font-size: 16px; font-family: 'Arial', sans-serif; text-anchor: middle" x="255.373427" y="467.71625" transform="rotate(-0 255.373427 467.71625)">1 Aug</text>
     </g>
    </g>
    <g id="xtick_5">
     <g id="line2d_5">
      <g>
       <use xlink:href="#m5c87f6d91a" x="315.855944" y="448.56" style="stroke: #000000; stroke-width: 0.8"/>
      </g>
     </g>
     <g id="text_5">
      <text style="font-size: 16px; font-family: 'Arial', sans-serif; text-anchor: middle" x="315.855944" y="467.71625" transform="rotate(-0 315.855944 467.71625)">1 Sep</text>
     </g>
    </g>
    <g id="xtick_6">
     <g id="line2d_6">
      <g>
       <use xlink:href="#m5c87f6d91a" x="374.387413" y="448.56" style="stroke: #000000; stroke-width: 0.8"/>
      </g>
     </g>
     <g id="text_6">
      <text style="font-size: 16px; font-family: 'Arial', sans-serif; text-anchor: middle" x="374.387413" y="467.71625" transform="rotate(-0 374.387413 467.71625)">1 Oct</text>
     </g>
    </g>
    <g id="xtick_7">
     <g id="line2d_7">
      <g>
       <use xlink:href="#m5c87f6d91a" x="434.86993" y="448.56" style="stroke: #000000; stroke-width: 0.8"/>
      </g>
     </g>
     <g id="text_7">
      <text style="font-size: 16px; font-family: 'Arial', sans-serif; text-anchor: middle" x="434.86993" y="467.71625" transform="rotate(-0 434.86993 467.71625)">1 Nov</text>
     </g>
    </g>
    <g id="text_8">
     <text style="font-size: 16px; font-family: 'Arial', sans-serif; text-anchor: middle" x="258.3" y="487.71875" transform="rotate(-0 258.3 487.71875)">Week of last observed case</text>
    </g>
   </g>
   <g id="matplotlib.axis_2">
    <g id="ytick_1">
     <g id="line2d_8">
      <defs>
       <path id="m0a1c6e315c" d="M 0 0 
L -3.5 0 
" style="stroke: #000000; stroke-width: 0.8"/>
      </defs>
      <g>
       <use xlink:href="#m0a1c6e315c" x="63" y="443.986667" style="stroke: #000000; stroke-width: 0.8"/>
      </g>
     </g>
     <g id="text_9">
      <text style="font-size: 16px; font-family: 'Arial', sans-serif; text-anchor: end" x="56" y="450.064792" transform="rotate(-0 56 450.064792)">0</text>
     </g>
    </g>
    <g id="ytick_2">
     <g id="line2d_9">
      <g>
       <use xlink:href="#m0a1c6e315c" x="63" y="378.653333" style="stroke: #000000; stroke-width: 0.8"/>
      </g>
     </g>
     <g id="text_10">
      <text style="font-size: 16px; font-family: 'Arial', sans-serif; text-anchor: end" x="56" y="384.731458" transform="rotate(-0 56 384.731458)">5</text>
     </g>
    </g>
    <g id="ytick_3">
     <g id="line2d_10">
      <g>
       <use xlink:href="#m0a1c6e315c" x="63" y="313.32" style="stroke: #000000; stroke-width: 0.8"/>
      </g>
     </g>
     <g id="text_11">
      <text style="font-size: 16px; font-family: 'Arial', sans-serif; text-anchor: end" x="56" y="319.398125" transform="rotate(-0 56 319.398125)">10</text>
     </g>
    </g>
    <g id="ytick_4">
     <g id="line2d_11">
      <g>
       <use xlink:href="#m0a1c6e315c" x="63" y="247.986667" style="stroke: #000000; stroke-width: 0.8"/>
      </g>
     </g>
     <g id="text_12">
      <text style="font-size: 16px; font-family: 'Arial', sans-serif; text-anchor: end" x="56" y="254.064792" transform="rotate(-0 56 254.064792)">15</text>
     </g>
    </g>
    <g id="ytick_5">
     <g id="line2d_12">
      <g>
       <use xlink:href="#m0a1c6e315c" x="63" y="182.653333" style="stroke: #000000; stroke-width: 0.8"/>
      </g>
     </g>
     <g id="text_13">
      <text style="font-size: 16px; font-family: 'Arial', sans-serif; text-anchor: end" x="56" y="188.731458" transform="rotate(-0 56 188.731458)">20</text>
     </g>
    </g>
    <g id="ytick_6">
     <g id="line2d_13">
      <g>
       <use xlink:href="#m0a1c6e315c" x="63" y="117.32" style="stroke: #000000; stroke-width: 0.8"/>
      </g>
     </g>
     <g id="text_14">
      <text style="font-size: 16px; font-family: 'Arial', sans-serif; text-anchor: end" x="56" y="123.398125" transform="rotate(-0 56 123.398125)">25</text>
     </g>
    </g>
    <g id="text_15">
     <text style="font-size: 16px; font-family: 'Arial', sans-serif" transform="translate(6.990312 373.18) rotate(-90)">Days from last observed case</text>
     <text style="font-size: 16px; font-family: 'Arial', sans-serif" transform="translate(26.194687 374.39) rotate(-90)">until risk falls below threshold</text>
    </g>
   </g>
   <g id="LineCollection_1">
    <path clip-path="url(#p2ad17c720f)" style="fill: none; stroke: #f7fbff; stroke-width: 2"/>
   </g>
   <g id="line2d_14">
    <defs>
     <path id="m43e558d163" d="M 3 0 
L -3 -0 
" style="stroke: #f7fbff"/>
    </defs>
    <g clip-path="url(#p2ad17c720f)"/>
   </g>
   <g id="line2d_15">
    <g clip-path="url(#p2ad17c720f)"/>
   </g>
   <g id="LineCollection_2">
    <path clip-path="url(#p2ad17c720f)" style="fill: none; stroke: #f7fbff; stroke-width: 2"/>
   </g>
   <g id="line2d_16">
    <g clip-path="url(#p2ad17c720f)"/>
   </g>
   <g id="line2d_17">
    <g clip-path="url(#p2ad17c720f)"/>
   </g>
   <g id="LineCollection_3">
    <path clip-path="url(#p2ad17c720f)" style="fill: none; stroke: #f7fbff; stroke-width: 2"/>
   </g>
   <g id="line2d_18">
    <g clip-path="url(#p2ad17c720f)"/>
   </g>
   <g id="line2d_19">
    <g clip-path="url(#p2ad17c720f)"/>
   </g>
   <g id="LineCollection_4">
    <path clip-path="url(#p2ad17c720f)" style="fill: none; stroke: #f7fbff; stroke-width: 2"/>
   </g>
   <g id="line2d_20">
    <g clip-path="url(#p2ad17c720f)"/>
   </g>
   <g id="line2d_21">
    <g clip-path="url(#p2ad17c720f)"/>
   </g>
   <g id="LineCollection_5">
    <path clip-path="url(#p2ad17c720f)" style="fill: none; stroke: #f7fbff; stroke-width: 2"/>
   </g>
   <g id="line2d_22">
    <g clip-path="url(#p2ad17c720f)"/>
   </g>
   <g id="line2d_23">
    <g clip-path="url(#p2ad17c720f)"/>
   </g>
   <g id="LineCollection_6">
    <path clip-path="url(#p2ad17c720f)" style="fill: none; stroke: #f7fbff; stroke-width: 2"/>
   </g>
   <g id="line2d_24">
    <g clip-path="url(#p2ad17c720f)"/>
   </g>
   <g id="line2d_25">
    <g clip-path="url(#p2ad17c720f)"/>
   </g>
   <g id="LineCollection_7">
    <path clip-path="url(#p2ad17c720f)" style="fill: none; stroke: #f7fbff; stroke-width: 2"/>
   </g>
   <g id="line2d_26">
    <g clip-path="url(#p2ad17c720f)"/>
   </g>
   <g id="line2d_27">
    <g clip-path="url(#p2ad17c720f)"/>
   </g>
   <g id="LineCollection_8">
    <path clip-path="url(#p2ad17c720f)" style="fill: none; stroke: #f7fbff; stroke-width: 2"/>
   </g>
   <g id="line2d_28">
    <g clip-path="url(#p2ad17c720f)"/>
   </g>
   <g id="line2d_29">
    <g clip-path="url(#p2ad17c720f)"/>
   </g>
   <g id="LineCollection_9">
    <path clip-path="url(#p2ad17c720f)" style="fill: none; stroke: #f7fbff; stroke-width: 2"/>
   </g>
   <g id="line2d_30">
    <g clip-path="url(#p2ad17c720f)"/>
   </g>
   <g id="line2d_31">
    <g clip-path="url(#p2ad17c720f)"/>
   </g>
   <g id="LineCollection_10">
    <path clip-path="url(#p2ad17c720f)" style="fill: none; stroke: #f7fbff; stroke-width: 2"/>
   </g>
   <g id="line2d_32">
    <g clip-path="url(#p2ad17c720f)"/>
   </g>
   <g id="line2d_33">
    <g clip-path="url(#p2ad17c720f)"/>
   </g>
   <g id="LineCollection_11">
    <path clip-path="url(#p2ad17c720f)" style="fill: none; stroke: #f7fbff; stroke-width: 2"/>
   </g>
   <g id="line2d_34">
    <g clip-path="url(#p2ad17c720f)"/>
   </g>
   <g id="line2d_35">
    <g clip-path="url(#p2ad17c720f)"/>
   </g>
   <g id="LineCollection_12">
    <path clip-path="url(#p2ad17c720f)" style="fill: none; stroke: #f7fbff; stroke-width: 2"/>
   </g>
   <g id="line2d_36">
    <g clip-path="url(#p2ad17c720f)"/>
   </g>
   <g id="line2d_37">
    <g clip-path="url(#p2ad17c720f)"/>
   </g>
   <g id="LineCollection_13">
    <path clip-path="url(#p2ad17c720f)" style="fill: none; stroke: #f7fbff; stroke-width: 2"/>
   </g>
   <g id="line2d_38">
    <g clip-path="url(#p2ad17c720f)"/>
   </g>
   <g id="line2d_39">
    <g clip-path="url(#p2ad17c720f)"/>
   </g>
   <g id="LineCollection_14">
    <path clip-path="url(#p2ad17c720f)" style="fill: none; stroke: #f7fbff; stroke-width: 2"/>
   </g>
   <g id="line2d_40">
    <g clip-path="url(#p2ad17c720f)"/>
   </g>
   <g id="line2d_41">
    <g clip-path="url(#p2ad17c720f)"/>
   </g>
   <g id="LineCollection_15">
    <path clip-path="url(#p2ad17c720f)" style="fill: none; stroke: #f7fbff; stroke-width: 2"/>
   </g>
   <g id="line2d_42">
    <g clip-path="url(#p2ad17c720f)"/>
   </g>
   <g id="line2d_43">
    <g clip-path="url(#p2ad17c720f)"/>
   </g>
   <g id="LineCollection_16">
    <path clip-path="url(#p2ad17c720f)" style="fill: none; stroke: #f7fbff; stroke-width: 2"/>
   </g>
   <g id="line2d_44">
    <g clip-path="url(#p2ad17c720f)"/>
   </g>
   <g id="line2d_45">
    <g clip-path="url(#p2ad17c720f)"/>
   </g>
   <g id="LineCollection_17">
    <path clip-path="url(#p2ad17c720f)" style="fill: none; stroke: #f7fbff; stroke-width: 2"/>
   </g>
   <g id="line2d_46">
    <g clip-path="url(#p2ad17c720f)"/>
   </g>
   <g id="line2d_47">
    <g clip-path="url(#p2ad17c720f)"/>
   </g>
   <g id="LineCollection_18">
    <path d="M 80.754545 287.186667 
L 80.754545 197.68 
" clip-path="url(#p2ad17c720f)" style="fill: none; stroke: #f6faff; stroke-width: 2"/>
   </g>
   <g id="line2d_48">
    <defs>
     <path id="me10a05e752" d="M 3 0 
L -3 -0 
" style="stroke: #f6faff"/>
    </defs>
    <g clip-path="url(#p2ad17c720f)">
     <use xlink:href="#me10a05e752" x="80.754545" y="287.186667" style="fill: #f6faff; stroke: #f6faff"/>
    </g>
   </g>
   <g id="line2d_49">
    <g clip-path="url(#p2ad17c720f)">
     <use xlink:href="#me10a05e752" x="80.754545" y="197.68" style="fill: #f6faff; stroke: #f6faff"/>
    </g>
   </g>
   <g id="LineCollection_19">
    <path d="M 94.411888 190.82 
L 94.411888 143.453333 
" clip-path="url(#p2ad17c720f)" style="fill: none; stroke: #f4f9fe; stroke-width: 2"/>
   </g>
   <g id="line2d_50">
    <defs>
     <path id="m9d4335e5d9" d="M 3 0 
L -3 -0 
" style="stroke: #f4f9fe"/>
    </defs>
    <g clip-path="url(#p2ad17c720f)">
     <use xlink:href="#m9d4335e5d9" x="94.411888" y="190.82" style="fill: #f4f9fe; stroke: #f4f9fe"/>
    </g>
   </g>
   <g id="line2d_51">
    <g clip-path="url(#p2ad17c720f)">
     <use xlink:href="#m9d4335e5d9" x="94.411888" y="143.453333" style="fill: #f4f9fe; stroke: #f4f9fe"/>
    </g>
   </g>
   <g id="LineCollection_20">
    <path d="M 108.069231 143.453333 
L 108.069231 117.32 
" clip-path="url(#p2ad17c720f)" style="fill: none; stroke: #e5eff9; stroke-width: 2"/>
   </g>
   <g id="line2d_52">
    <defs>
     <path id="mb8dc06bf06" d="M 3 0 
L -3 -0 
" style="stroke: #e5eff9"/>
    </defs>
    <g clip-path="url(#p2ad17c720f)">
     <use xlink:href="#mb8dc06bf06" x="108.069231" y="143.453333" style="fill: #e5eff9; stroke: #e5eff9"/>
    </g>
   </g>
   <g id="line2d_53">
    <g clip-path="url(#p2ad17c720f)">
     <use xlink:href="#mb8dc06bf06" x="108.069231" y="117.32" style="fill: #e5eff9; stroke: #e5eff9"/>
    </g>
   </g>
   <g id="LineCollection_21">
    <path d="M 121.726573 117.32 
L 121.726573 104.253333 
" clip-path="url(#p2ad17c720f)" style="fill: none; stroke: #bdd7ec; stroke-width: 2"/>
   </g>
   <g id="line2d_54">
    <defs>
     <path id="m6bea43325b" d="M 3 0 
L -3 -0 
" style="stroke: #bdd7ec"/>
    </defs>
    <g clip-path="url(#p2ad17c720f)">
     <use xlink:href="#m6bea43325b" x="121.726573" y="117.32" style="fill: #bdd7ec; stroke: #bdd7ec"/>
    </g>
   </g>
   <g id="line2d_55">
    <g clip-path="url(#p2ad17c720f)">
     <use xlink:href="#m6bea43325b" x="121.726573" y="104.253333" style="fill: #bdd7ec; stroke: #bdd7ec"/>
    </g>
   </g>
   <g id="LineCollection_22">
    <path d="M 135.383916 104.253333 
L 135.383916 91.186667 
" clip-path="url(#p2ad17c720f)" style="fill: none; stroke: #68acd5; stroke-width: 2"/>
   </g>
   <g id="line2d_56">
    <defs>
     <path id="mcd6d0e99d3" d="M 3 0 
L -3 -0 
" style="stroke: #68acd5"/>
    </defs>
    <g clip-path="url(#p2ad17c720f)">
     <use xlink:href="#mcd6d0e99d3" x="135.383916" y="104.253333" style="fill: #68acd5; stroke: #68acd5"/>
    </g>
   </g>
   <g id="line2d_57">
    <g clip-path="url(#p2ad17c720f)">
     <use xlink:href="#mcd6d0e99d3" x="135.383916" y="91.186667" style="fill: #68acd5; stroke: #68acd5"/>
    </g>
   </g>
   <g id="LineCollection_23">
    <path d="M 149.041259 91.186667 
L 149.041259 91.186667 
" clip-path="url(#p2ad17c720f)" style="fill: none; stroke: #2b7bba; stroke-width: 2"/>
   </g>
   <g id="line2d_58">
    <defs>
     <path id="m4c7510fc79" d="M 3 0 
L -3 -0 
" style="stroke: #2b7bba"/>
    </defs>
    <g clip-path="url(#p2ad17c720f)">
     <use xlink:href="#m4c7510fc79" x="149.041259" y="91.186667" style="fill: #2b7bba; stroke: #2b7bba"/>
    </g>
   </g>
   <g id="line2d_59">
    <g clip-path="url(#p2ad17c720f)">
     <use xlink:href="#m4c7510fc79" x="149.041259" y="91.186667" style="fill: #2b7bba; stroke: #2b7bba"/>
    </g>
   </g>
   <g id="LineCollection_24">
    <path d="M 162.698601 91.186667 
L 162.698601 78.12 
" clip-path="url(#p2ad17c720f)" style="fill: none; stroke: #2373b6; stroke-width: 2"/>
   </g>
   <g id="line2d_60">
    <defs>
     <path id="mc2f8f160a6" d="M 3 0 
L -3 -0 
" style="stroke: #2373b6"/>
    </defs>
    <g clip-path="url(#p2ad17c720f)">
     <use xlink:href="#mc2f8f160a6" x="162.698601" y="91.186667" style="fill: #2373b6; stroke: #2373b6"/>
    </g>
   </g>
   <g id="line2d_61">
    <g clip-path="url(#p2ad17c720f)">
     <use xlink:href="#mc2f8f160a6" x="162.698601" y="78.12" style="fill: #2373b6; stroke: #2373b6"/>
    </g>
   </g>
   <g id="LineCollection_25">
    <path d="M 176.355944 91.186667 
L 176.355944 78.12 
" clip-path="url(#p2ad17c720f)" style="fill: none; stroke: #3787c0; stroke-width: 2"/>
   </g>
   <g id="line2d_62">
    <defs>
     <path id="m917fb491d1" d="M 3 0 
L -3 -0 
" style="stroke: #3787c0"/>
    </defs>
    <g clip-path="url(#p2ad17c720f)">
     <use xlink:href="#m917fb491d1" x="176.355944" y="91.186667" style="fill: #3787c0; stroke: #3787c0"/>
    </g>
   </g>
   <g id="line2d_63">
    <g clip-path="url(#p2ad17c720f)">
     <use xlink:href="#m917fb491d1" x="176.355944" y="78.12" style="fill: #3787c0; stroke: #3787c0"/>
    </g>
   </g>
   <g id="LineCollection_26">
    <path d="M 190.013287 91.186667 
L 190.013287 78.12 
" clip-path="url(#p2ad17c720f)" style="fill: none; stroke: #3a8ac2; stroke-width: 2"/>
   </g>
   <g id="line2d_64">
    <defs>
     <path id="mdd663cf61e" d="M 3 0 
L -3 -0 
" style="stroke: #3a8ac2"/>
    </defs>
    <g clip-path="url(#p2ad17c720f)">
     <use xlink:href="#mdd663cf61e" x="190.013287" y="91.186667" style="fill: #3a8ac2; stroke: #3a8ac2"/>
    </g>
   </g>
   <g id="line2d_65">
    <g clip-path="url(#p2ad17c720f)">
     <use xlink:href="#mdd663cf61e" x="190.013287" y="78.12" style="fill: #3a8ac2; stroke: #3a8ac2"/>
    </g>
   </g>
   <g id="LineCollection_27">
    <path d="M 203.670629 91.186667 
L 203.670629 78.12 
" clip-path="url(#p2ad17c720f)" style="fill: none; stroke: #549fcd; stroke-width: 2"/>
   </g>
   <g id="line2d_66">
    <defs>
     <path id="m7094ac9926" d="M 3 0 
L -3 -0 
" style="stroke: #549fcd"/>
    </defs>
    <g clip-path="url(#p2ad17c720f)">
     <use xlink:href="#m7094ac9926" x="203.670629" y="91.186667" style="fill: #549fcd; stroke: #549fcd"/>
    </g>
   </g>
   <g id="line2d_67">
    <g clip-path="url(#p2ad17c720f)">
     <use xlink:href="#m7094ac9926" x="203.670629" y="78.12" style="fill: #549fcd; stroke: #549fcd"/>
    </g>
   </g>
   <g id="LineCollection_28">
    <path d="M 217.327972 91.186667 
L 217.327972 78.12 
" clip-path="url(#p2ad17c720f)" style="fill: none; stroke: #56a0ce; stroke-width: 2"/>
   </g>
   <g id="line2d_68">
    <defs>
     <path id="mc1a90ba18f" d="M 3 0 
L -3 -0 
" style="stroke: #56a0ce"/>
    </defs>
    <g clip-path="url(#p2ad17c720f)">
     <use xlink:href="#mc1a90ba18f" x="217.327972" y="91.186667" style="fill: #56a0ce; stroke: #56a0ce"/>
    </g>
   </g>
   <g id="line2d_69">
    <g clip-path="url(#p2ad17c720f)">
     <use xlink:href="#mc1a90ba18f" x="217.327972" y="78.12" style="fill: #56a0ce; stroke: #56a0ce"/>
    </g>
   </g>
   <g id="LineCollection_29">
    <path d="M 230.985315 91.186667 
L 230.985315 78.12 
" clip-path="url(#p2ad17c720f)" style="fill: none; stroke: #549fcd; stroke-width: 2"/>
   </g>
   <g id="line2d_70">
    <g clip-path="url(#p2ad17c720f)">
     <use xlink:href="#m7094ac9926" x="230.985315" y="91.186667" style="fill: #549fcd; stroke: #549fcd"/>
    </g>
   </g>
   <g id="line2d_71">
    <g clip-path="url(#p2ad17c720f)">
     <use xlink:href="#m7094ac9926" x="230.985315" y="78.12" style="fill: #549fcd; stroke: #549fcd"/>
    </g>
   </g>
   <g id="LineCollection_30">
    <path d="M 244.642657 91.186667 
L 244.642657 78.12 
" clip-path="url(#p2ad17c720f)" style="fill: none; stroke: #4090c5; stroke-width: 2"/>
   </g>
   <g id="line2d_72">
    <defs>
     <path id="m97fec3af8a" d="M 3 0 
L -3 -0 
" style="stroke: #4090c5"/>
    </defs>
    <g clip-path="url(#p2ad17c720f)">
     <use xlink:href="#m97fec3af8a" x="244.642657" y="91.186667" style="fill: #4090c5; stroke: #4090c5"/>
    </g>
   </g>
   <g id="line2d_73">
    <g clip-path="url(#p2ad17c720f)">
     <use xlink:href="#m97fec3af8a" x="244.642657" y="78.12" style="fill: #4090c5; stroke: #4090c5"/>
    </g>
   </g>
   <g id="LineCollection_31">
    <path d="M 258.3 91.186667 
L 258.3 78.12 
" clip-path="url(#p2ad17c720f)" style="fill: none; stroke: #4e9acb; stroke-width: 2"/>
   </g>
   <g id="line2d_74">
    <defs>
     <path id="m7689a5bf5c" d="M 3 0 
L -3 -0 
" style="stroke: #4e9acb"/>
    </defs>
    <g clip-path="url(#p2ad17c720f)">
     <use xlink:href="#m7689a5bf5c" x="258.3" y="91.186667" style="fill: #4e9acb; stroke: #4e9acb"/>
    </g>
   </g>
   <g id="line2d_75">
    <g clip-path="url(#p2ad17c720f)">
     <use xlink:href="#m7689a5bf5c" x="258.3" y="78.12" style="fill: #4e9acb; stroke: #4e9acb"/>
    </g>
   </g>
   <g id="LineCollection_32">
    <path d="M 271.957343 91.186667 
L 271.957343 78.12 
" clip-path="url(#p2ad17c720f)" style="fill: none; stroke: #5aa2cf; stroke-width: 2"/>
   </g>
   <g id="line2d_76">
    <defs>
     <path id="m30c1075170" d="M 3 0 
L -3 -0 
" style="stroke: #5aa2cf"/>
    </defs>
    <g clip-path="url(#p2ad17c720f)">
     <use xlink:href="#m30c1075170" x="271.957343" y="91.186667" style="fill: #5aa2cf; stroke: #5aa2cf"/>
    </g>
   </g>
   <g id="line2d_77">
    <g clip-path="url(#p2ad17c720f)">
     <use xlink:href="#m30c1075170" x="271.957343" y="78.12" style="fill: #5aa2cf; stroke: #5aa2cf"/>
    </g>
   </g>
   <g id="LineCollection_33">
    <path d="M 285.614685 91.186667 
L 285.614685 78.12 
" clip-path="url(#p2ad17c720f)" style="fill: none; stroke: #66abd4; stroke-width: 2"/>
   </g>
   <g id="line2d_78">
    <defs>
     <path id="ma038573668" d="M 3 0 
L -3 -0 
" style="stroke: #66abd4"/>
    </defs>
    <g clip-path="url(#p2ad17c720f)">
     <use xlink:href="#ma038573668" x="285.614685" y="91.186667" style="fill: #66abd4; stroke: #66abd4"/>
    </g>
   </g>
   <g id="line2d_79">
    <g clip-path="url(#p2ad17c720f)">
     <use xlink:href="#ma038573668" x="285.614685" y="78.12" style="fill: #66abd4; stroke: #66abd4"/>
    </g>
   </g>
   <g id="LineCollection_34">
    <path d="M 299.272028 104.253333 
L 299.272028 91.186667 
" clip-path="url(#p2ad17c720f)" style="fill: none; stroke: #519ccc; stroke-width: 2"/>
   </g>
   <g id="line2d_80">
    <defs>
     <path id="mf27ba021c0" d="M 3 0 
L -3 -0 
" style="stroke: #519ccc"/>
    </defs>
    <g clip-path="url(#p2ad17c720f)">
     <use xlink:href="#mf27ba021c0" x="299.272028" y="104.253333" style="fill: #519ccc; stroke: #519ccc"/>
    </g>
   </g>
   <g id="line2d_81">
    <g clip-path="url(#p2ad17c720f)">
     <use xlink:href="#mf27ba021c0" x="299.272028" y="91.186667" style="fill: #519ccc; stroke: #519ccc"/>
    </g>
   </g>
   <g id="LineCollection_35">
    <path d="M 312.929371 117.32 
L 312.929371 104.253333 
" clip-path="url(#p2ad17c720f)" style="fill: none; stroke: #3787c0; stroke-width: 2"/>
   </g>
   <g id="line2d_82">
    <g clip-path="url(#p2ad17c720f)">
     <use xlink:href="#m917fb491d1" x="312.929371" y="117.32" style="fill: #3787c0; stroke: #3787c0"/>
    </g>
   </g>
   <g id="line2d_83">
    <g clip-path="url(#p2ad17c720f)">
     <use xlink:href="#m917fb491d1" x="312.929371" y="104.253333" style="fill: #3787c0; stroke: #3787c0"/>
    </g>
   </g>
   <g id="LineCollection_36">
    <path d="M 326.586713 143.453333 
L 326.586713 117.32 
" clip-path="url(#p2ad17c720f)" style="fill: none; stroke: #08306b; stroke-width: 2"/>
   </g>
   <g id="line2d_84">
    <defs>
     <path id="m215207f8af" d="M 3 0 
L -3 -0 
" style="stroke: #08306b"/>
    </defs>
    <g clip-path="url(#p2ad17c720f)">
     <use xlink:href="#m215207f8af" x="326.586713" y="143.453333" style="fill: #08306b; stroke: #08306b"/>
    </g>
   </g>
   <g id="line2d_85">
    <g clip-path="url(#p2ad17c720f)">
     <use xlink:href="#m215207f8af" x="326.586713" y="117.32" style="fill: #08306b; stroke: #08306b"/>
    </g>
   </g>
   <g id="LineCollection_37">
    <path d="M 340.244056 156.52 
L 340.244056 130.386667 
" clip-path="url(#p2ad17c720f)" style="fill: none; stroke: #08306b; stroke-width: 2"/>
   </g>
   <g id="line2d_86">
    <g clip-path="url(#p2ad17c720f)">
     <use xlink:href="#m215207f8af" x="340.244056" y="156.52" style="fill: #08306b; stroke: #08306b"/>
    </g>
   </g>
   <g id="line2d_87">
    <g clip-path="url(#p2ad17c720f)">
     <use xlink:href="#m215207f8af" x="340.244056" y="130.386667" style="fill: #08306b; stroke: #08306b"/>
    </g>
   </g>
   <g id="LineCollection_38">
    <path d="M 353.901399 182.653333 
L 353.901399 143.453333 
" clip-path="url(#p2ad17c720f)" style="fill: none; stroke: #08306b; stroke-width: 2"/>
   </g>
   <g id="line2d_88">
    <g clip-path="url(#p2ad17c720f)">
     <use xlink:href="#m215207f8af" x="353.901399" y="182.653333" style="fill: #08306b; stroke: #08306b"/>
    </g>
   </g>
   <g id="line2d_89">
    <g clip-path="url(#p2ad17c720f)">
     <use xlink:href="#m215207f8af" x="353.901399" y="143.453333" style="fill: #08306b; stroke: #08306b"/>
    </g>
   </g>
   <g id="LineCollection_39">
    <path d="M 367.558741 221.853333 
L 367.558741 169.586667 
" clip-path="url(#p2ad17c720f)" style="fill: none; stroke: #08306b; stroke-width: 2"/>
   </g>
   <g id="line2d_90">
    <g clip-path="url(#p2ad17c720f)">
     <use xlink:href="#m215207f8af" x="367.558741" y="221.853333" style="fill: #08306b; stroke: #08306b"/>
    </g>
   </g>
   <g id="line2d_91">
    <g clip-path="url(#p2ad17c720f)">
     <use xlink:href="#m215207f8af" x="367.558741" y="169.586667" style="fill: #08306b; stroke: #08306b"/>
    </g>
   </g>
   <g id="LineCollection_40">
    <path d="M 381.216084 274.12 
L 381.216084 208.786667 
" clip-path="url(#p2ad17c720f)" style="fill: none; stroke: #08306b; stroke-width: 2"/>
   </g>
   <g id="line2d_92">
    <g clip-path="url(#p2ad17c720f)">
     <use xlink:href="#m215207f8af" x="381.216084" y="274.12" style="fill: #08306b; stroke: #08306b"/>
    </g>
   </g>
   <g id="line2d_93">
    <g clip-path="url(#p2ad17c720f)">
     <use xlink:href="#m215207f8af" x="381.216084" y="208.786667" style="fill: #08306b; stroke: #08306b"/>
    </g>
   </g>
   <g id="LineCollection_41">
    <path d="M 394.873427 326.386667 
L 394.873427 234.92 
" clip-path="url(#p2ad17c720f)" style="fill: none; stroke: #08306b; stroke-width: 2"/>
   </g>
   <g id="line2d_94">
    <g clip-path="url(#p2ad17c720f)">
     <use xlink:href="#m215207f8af" x="394.873427" y="326.386667" style="fill: #08306b; stroke: #08306b"/>
    </g>
   </g>
   <g id="line2d_95">
    <g clip-path="url(#p2ad17c720f)">
     <use xlink:href="#m215207f8af" x="394.873427" y="234.92" style="fill: #08306b; stroke: #08306b"/>
    </g>
   </g>
   <g id="LineCollection_42">
    <path d="M 408.530769 404.786667 
L 408.530769 274.12 
" clip-path="url(#p2ad17c720f)" style="fill: none; stroke: #08306b; stroke-width: 2"/>
   </g>
   <g id="line2d_96">
    <g clip-path="url(#p2ad17c720f)">
     <use xlink:href="#m215207f8af" x="408.530769" y="404.786667" style="fill: #08306b; stroke: #08306b"/>
    </g>
   </g>
   <g id="line2d_97">
    <g clip-path="url(#p2ad17c720f)">
     <use xlink:href="#m215207f8af" x="408.530769" y="274.12" style="fill: #08306b; stroke: #08306b"/>
    </g>
   </g>
   <g id="LineCollection_43">
    <path d="M 422.188112 430.92 
L 422.188112 339.453333 
" clip-path="url(#p2ad17c720f)" style="fill: none; stroke: #08306b; stroke-width: 2"/>
   </g>
   <g id="line2d_98">
    <g clip-path="url(#p2ad17c720f)">
     <use xlink:href="#m215207f8af" x="422.188112" y="430.92" style="fill: #08306b; stroke: #08306b"/>
    </g>
   </g>
   <g id="line2d_99">
    <g clip-path="url(#p2ad17c720f)">
     <use xlink:href="#m215207f8af" x="422.188112" y="339.453333" style="fill: #08306b; stroke: #08306b"/>
    </g>
   </g>
   <g id="LineCollection_44">
    <path d="M 435.845455 430.92 
L 435.845455 417.853333 
" clip-path="url(#p2ad17c720f)" style="fill: none; stroke: #d8e7f5; stroke-width: 2"/>
   </g>
   <g id="line2d_100">
    <defs>
     <path id="m5548f44ec9" d="M 3 0 
L -3 -0 
" style="stroke: #d8e7f5"/>
    </defs>
    <g clip-path="url(#p2ad17c720f)">
     <use xlink:href="#m5548f44ec9" x="435.845455" y="430.92" style="fill: #d8e7f5; stroke: #d8e7f5"/>
    </g>
   </g>
   <g id="line2d_101">
    <g clip-path="url(#p2ad17c720f)">
     <use xlink:href="#m5548f44ec9" x="435.845455" y="417.853333" style="fill: #d8e7f5; stroke: #d8e7f5"/>
    </g>
   </g>
   <g id="LineCollection_45">
    <path clip-path="url(#p2ad17c720f)" style="fill: none; stroke: #f7fbff; stroke-width: 2"/>
   </g>
   <g id="line2d_102">
    <g clip-path="url(#p2ad17c720f)"/>
   </g>
   <g id="line2d_103">
    <g clip-path="url(#p2ad17c720f)"/>
   </g>
   <g id="LineCollection_46">
    <path clip-path="url(#p2ad17c720f)" style="fill: none; stroke: #f7fbff; stroke-width: 2"/>
   </g>
   <g id="line2d_104">
    <g clip-path="url(#p2ad17c720f)"/>
   </g>
   <g id="line2d_105">
    <g clip-path="url(#p2ad17c720f)"/>
   </g>
   <g id="LineCollection_47">
    <path clip-path="url(#p2ad17c720f)" style="fill: none; stroke: #f7fbff; stroke-width: 2"/>
   </g>
   <g id="line2d_106">
    <g clip-path="url(#p2ad17c720f)"/>
   </g>
   <g id="line2d_107">
    <g clip-path="url(#p2ad17c720f)"/>
   </g>
   <g id="LineCollection_48">
    <path clip-path="url(#p2ad17c720f)" style="fill: none; stroke: #f7fbff; stroke-width: 2"/>
   </g>
   <g id="line2d_108">
    <g clip-path="url(#p2ad17c720f)"/>
   </g>
   <g id="line2d_109">
    <g clip-path="url(#p2ad17c720f)"/>
   </g>
   <g id="LineCollection_49">
    <path clip-path="url(#p2ad17c720f)" style="fill: none; stroke: #f7fbff; stroke-width: 2"/>
   </g>
   <g id="line2d_110">
    <g clip-path="url(#p2ad17c720f)"/>
   </g>
   <g id="line2d_111">
    <g clip-path="url(#p2ad17c720f)"/>
   </g>
   <g id="LineCollection_50">
    <path clip-path="url(#p2ad17c720f)" style="fill: none; stroke: #f7fbff; stroke-width: 2"/>
   </g>
   <g id="line2d_112">
    <g clip-path="url(#p2ad17c720f)"/>
   </g>
   <g id="line2d_113">
    <g clip-path="url(#p2ad17c720f)"/>
   </g>
   <g id="LineCollection_51">
    <path clip-path="url(#p2ad17c720f)" style="fill: none; stroke: #f7fbff; stroke-width: 2"/>
   </g>
   <g id="line2d_114">
    <g clip-path="url(#p2ad17c720f)"/>
   </g>
   <g id="line2d_115">
    <g clip-path="url(#p2ad17c720f)"/>
   </g>
   <g id="LineCollection_52">
    <path clip-path="url(#p2ad17c720f)" style="fill: none; stroke: #f7fbff; stroke-width: 2"/>
   </g>
   <g id="line2d_116">
    <g clip-path="url(#p2ad17c720f)"/>
   </g>
   <g id="line2d_117">
    <g clip-path="url(#p2ad17c720f)"/>
   </g>
   <g id="line2d_118">
    <path d="M 408.530769 326.386667 
" clip-path="url(#p2ad17c720f)" style="fill: none; stroke: #0000ff; stroke-width: 2; stroke-linecap: square"/>
    <defs>
     <path id="m6dc1ff5071" d="M -4 4 
L 4 -4 
M -4 -4 
L 4 4 
" style="stroke: #0000ff"/>
    </defs>
    <g clip-path="url(#p2ad17c720f)">
     <use xlink:href="#m6dc1ff5071" x="408.530769" y="326.386667" style="fill: #0000ff; stroke: #0000ff"/>
    </g>
   </g>
   <g id="line2d_119">
    <defs>
     <path id="me1fcd7b14f" d="M 0 4 
C 1.060812 4 2.078319 3.578535 2.828427 2.828427 
C 3.578535 2.078319 4 1.060812 4 0 
C 4 -1.060812 3.578535 -2.078319 2.828427 -2.828427 
C 2.078319 -3.578535 1.060812 -4 0 -4 
C -1.060812 -4 -2.078319 -3.578535 -2.828427 -2.828427 
C -3.578535 -2.078319 -4 -1.060812 -4 0 
C -4 1.060812 -3.578535 2.078319 -2.828427 2.828427 
C -2.078319 3.578535 -1.060812 4 0 4 
z
" style="stroke: #f7fbff"/>
    </defs>
    <g clip-path="url(#p2ad17c720f)"/>
   </g>
   <g id="line2d_120">
    <g clip-path="url(#p2ad17c720f)"/>
   </g>
   <g id="line2d_121">
    <g clip-path="url(#p2ad17c720f)"/>
   </g>
   <g id="line2d_122">
    <g clip-path="url(#p2ad17c720f)"/>
   </g>
   <g id="line2d_123">
    <g clip-path="url(#p2ad17c720f)"/>
   </g>
   <g id="line2d_124">
    <g clip-path="url(#p2ad17c720f)"/>
   </g>
   <g id="line2d_125">
    <g clip-path="url(#p2ad17c720f)"/>
   </g>
   <g id="line2d_126">
    <g clip-path="url(#p2ad17c720f)"/>
   </g>
   <g id="line2d_127">
    <g clip-path="url(#p2ad17c720f)"/>
   </g>
   <g id="line2d_128">
    <g clip-path="url(#p2ad17c720f)"/>
   </g>
   <g id="line2d_129">
    <g clip-path="url(#p2ad17c720f)"/>
   </g>
   <g id="line2d_130">
    <g clip-path="url(#p2ad17c720f)"/>
   </g>
   <g id="line2d_131">
    <g clip-path="url(#p2ad17c720f)"/>
   </g>
   <g id="line2d_132">
    <g clip-path="url(#p2ad17c720f)"/>
   </g>
   <g id="line2d_133">
    <g clip-path="url(#p2ad17c720f)"/>
   </g>
   <g id="line2d_134">
    <g clip-path="url(#p2ad17c720f)"/>
   </g>
   <g id="line2d_135">
    <g clip-path="url(#p2ad17c720f)"/>
   </g>
   <g id="line2d_136">
    <defs>
     <path id="m23115b0e03" d="M 0 4 
C 1.060812 4 2.078319 3.578535 2.828427 2.828427 
C 3.578535 2.078319 4 1.060812 4 0 
C 4 -1.060812 3.578535 -2.078319 2.828427 -2.828427 
C 2.078319 -3.578535 1.060812 -4 0 -4 
C -1.060812 -4 -2.078319 -3.578535 -2.828427 -2.828427 
C -3.578535 -2.078319 -4 -1.060812 -4 0 
C -4 1.060812 -3.578535 2.078319 -2.828427 2.828427 
C -2.078319 3.578535 -1.060812 4 0 4 
z
" style="stroke: #f6faff"/>
    </defs>
    <g clip-path="url(#p2ad17c720f)">
     <use xlink:href="#m23115b0e03" x="80.754545" y="254.52" style="fill: #f6faff; stroke: #f6faff"/>
    </g>
   </g>
   <g id="line2d_137">
    <defs>
     <path id="m7e3218ee57" d="M 0 4 
C 1.060812 4 2.078319 3.578535 2.828427 2.828427 
C 3.578535 2.078319 4 1.060812 4 0 
C 4 -1.060812 3.578535 -2.078319 2.828427 -2.828427 
C 2.078319 -3.578535 1.060812 -4 0 -4 
C -1.060812 -4 -2.078319 -3.578535 -2.828427 -2.828427 
C -3.578535 -2.078319 -4 -1.060812 -4 0 
C -4 1.060812 -3.578535 2.078319 -2.828427 2.828427 
C -2.078319 3.578535 -1.060812 4 0 4 
z
" style="stroke: #f4f9fe"/>
    </defs>
    <g clip-path="url(#p2ad17c720f)">
     <use xlink:href="#m7e3218ee57" x="94.411888" y="156.52" style="fill: #f4f9fe; stroke: #f4f9fe"/>
    </g>
   </g>
   <g id="line2d_138">
    <defs>
     <path id="m88c5e9773f" d="M 0 4 
C 1.060812 4 2.078319 3.578535 2.828427 2.828427 
C 3.578535 2.078319 4 1.060812 4 0 
C 4 -1.060812 3.578535 -2.078319 2.828427 -2.828427 
C 2.078319 -3.578535 1.060812 -4 0 -4 
C -1.060812 -4 -2.078319 -3.578535 -2.828427 -2.828427 
C -3.578535 -2.078319 -4 -1.060812 -4 0 
C -4 1.060812 -3.578535 2.078319 -2.828427 2.828427 
C -2.078319 3.578535 -1.060812 4 0 4 
z
" style="stroke: #e5eff9"/>
    </defs>
    <g clip-path="url(#p2ad17c720f)">
     <use xlink:href="#m88c5e9773f" x="108.069231" y="130.386667" style="fill: #e5eff9; stroke: #e5eff9"/>
    </g>
   </g>
   <g id="line2d_139">
    <defs>
     <path id="mcdafcbd929" d="M 0 4 
C 1.060812 4 2.078319 3.578535 2.828427 2.828427 
C 3.578535 2.078319 4 1.060812 4 0 
C 4 -1.060812 3.578535 -2.078319 2.828427 -2.828427 
C 2.078319 -3.578535 1.060812 -4 0 -4 
C -1.060812 -4 -2.078319 -3.578535 -2.828427 -2.828427 
C -3.578535 -2.078319 -4 -1.060812 -4 0 
C -4 1.060812 -3.578535 2.078319 -2.828427 2.828427 
C -2.078319 3.578535 -1.060812 4 0 4 
z
" style="stroke: #bdd7ec"/>
    </defs>
    <g clip-path="url(#p2ad17c720f)">
     <use xlink:href="#mcdafcbd929" x="121.726573" y="104.253333" style="fill: #bdd7ec; stroke: #bdd7ec"/>
    </g>
   </g>
   <g id="line2d_140">
    <defs>
     <path id="m8ed5c556b0" d="M 0 4 
C 1.060812 4 2.078319 3.578535 2.828427 2.828427 
C 3.578535 2.078319 4 1.060812 4 0 
C 4 -1.060812 3.578535 -2.078319 2.828427 -2.828427 
C 2.078319 -3.578535 1.060812 -4 0 -4 
C -1.060812 -4 -2.078319 -3.578535 -2.828427 -2.828427 
C -3.578535 -2.078319 -4 -1.060812 -4 0 
C -4 1.060812 -3.578535 2.078319 -2.828427 2.828427 
C -2.078319 3.578535 -1.060812 4 0 4 
z
" style="stroke: #68acd5"/>
    </defs>
    <g clip-path="url(#p2ad17c720f)">
     <use xlink:href="#m8ed5c556b0" x="135.383916" y="104.253333" style="fill: #68acd5; stroke: #68acd5"/>
    </g>
   </g>
   <g id="line2d_141">
    <defs>
     <path id="me0cb400c57" d="M 0 4 
C 1.060812 4 2.078319 3.578535 2.828427 2.828427 
C 3.578535 2.078319 4 1.060812 4 0 
C 4 -1.060812 3.578535 -2.078319 2.828427 -2.828427 
C 2.078319 -3.578535 1.060812 -4 0 -4 
C -1.060812 -4 -2.078319 -3.578535 -2.828427 -2.828427 
C -3.578535 -2.078319 -4 -1.060812 -4 0 
C -4 1.060812 -3.578535 2.078319 -2.828427 2.828427 
C -2.078319 3.578535 -1.060812 4 0 4 
z
" style="stroke: #2b7bba"/>
    </defs>
    <g clip-path="url(#p2ad17c720f)">
     <use xlink:href="#me0cb400c57" x="149.041259" y="91.186667" style="fill: #2b7bba; stroke: #2b7bba"/>
    </g>
   </g>
   <g id="line2d_142">
    <defs>
     <path id="mdcc83478b5" d="M 0 4 
C 1.060812 4 2.078319 3.578535 2.828427 2.828427 
C 3.578535 2.078319 4 1.060812 4 0 
C 4 -1.060812 3.578535 -2.078319 2.828427 -2.828427 
C 2.078319 -3.578535 1.060812 -4 0 -4 
C -1.060812 -4 -2.078319 -3.578535 -2.828427 -2.828427 
C -3.578535 -2.078319 -4 -1.060812 -4 0 
C -4 1.060812 -3.578535 2.078319 -2.828427 2.828427 
C -2.078319 3.578535 -1.060812 4 0 4 
z
" style="stroke: #2373b6"/>
    </defs>
    <g clip-path="url(#p2ad17c720f)">
     <use xlink:href="#mdcc83478b5" x="162.698601" y="91.186667" style="fill: #2373b6; stroke: #2373b6"/>
    </g>
   </g>
   <g id="line2d_143">
    <defs>
     <path id="m771c031531" d="M 0 4 
C 1.060812 4 2.078319 3.578535 2.828427 2.828427 
C 3.578535 2.078319 4 1.060812 4 0 
C 4 -1.060812 3.578535 -2.078319 2.828427 -2.828427 
C 2.078319 -3.578535 1.060812 -4 0 -4 
C -1.060812 -4 -2.078319 -3.578535 -2.828427 -2.828427 
C -3.578535 -2.078319 -4 -1.060812 -4 0 
C -4 1.060812 -3.578535 2.078319 -2.828427 2.828427 
C -2.078319 3.578535 -1.060812 4 0 4 
z
" style="stroke: #3787c0"/>
    </defs>
    <g clip-path="url(#p2ad17c720f)">
     <use xlink:href="#m771c031531" x="176.355944" y="91.186667" style="fill: #3787c0; stroke: #3787c0"/>
    </g>
   </g>
   <g id="line2d_144">
    <defs>
     <path id="m65aa62d7c3" d="M 0 4 
C 1.060812 4 2.078319 3.578535 2.828427 2.828427 
C 3.578535 2.078319 4 1.060812 4 0 
C 4 -1.060812 3.578535 -2.078319 2.828427 -2.828427 
C 2.078319 -3.578535 1.060812 -4 0 -4 
C -1.060812 -4 -2.078319 -3.578535 -2.828427 -2.828427 
C -3.578535 -2.078319 -4 -1.060812 -4 0 
C -4 1.060812 -3.578535 2.078319 -2.828427 2.828427 
C -2.078319 3.578535 -1.060812 4 0 4 
z
" style="stroke: #3a8ac2"/>
    </defs>
    <g clip-path="url(#p2ad17c720f)">
     <use xlink:href="#m65aa62d7c3" x="190.013287" y="91.186667" style="fill: #3a8ac2; stroke: #3a8ac2"/>
    </g>
   </g>
   <g id="line2d_145">
    <defs>
     <path id="ma37ed631ad" d="M 0 4 
C 1.060812 4 2.078319 3.578535 2.828427 2.828427 
C 3.578535 2.078319 4 1.060812 4 0 
C 4 -1.060812 3.578535 -2.078319 2.828427 -2.828427 
C 2.078319 -3.578535 1.060812 -4 0 -4 
C -1.060812 -4 -2.078319 -3.578535 -2.828427 -2.828427 
C -3.578535 -2.078319 -4 -1.060812 -4 0 
C -4 1.060812 -3.578535 2.078319 -2.828427 2.828427 
C -2.078319 3.578535 -1.060812 4 0 4 
z
" style="stroke: #549fcd"/>
    </defs>
    <g clip-path="url(#p2ad17c720f)">
     <use xlink:href="#ma37ed631ad" x="203.670629" y="91.186667" style="fill: #549fcd; stroke: #549fcd"/>
    </g>
   </g>
   <g id="line2d_146">
    <defs>
     <path id="m062036e40b" d="M 0 4 
C 1.060812 4 2.078319 3.578535 2.828427 2.828427 
C 3.578535 2.078319 4 1.060812 4 0 
C 4 -1.060812 3.578535 -2.078319 2.828427 -2.828427 
C 2.078319 -3.578535 1.060812 -4 0 -4 
C -1.060812 -4 -2.078319 -3.578535 -2.828427 -2.828427 
C -3.578535 -2.078319 -4 -1.060812 -4 0 
C -4 1.060812 -3.578535 2.078319 -2.828427 2.828427 
C -2.078319 3.578535 -1.060812 4 0 4 
z
" style="stroke: #56a0ce"/>
    </defs>
    <g clip-path="url(#p2ad17c720f)">
     <use xlink:href="#m062036e40b" x="217.327972" y="91.186667" style="fill: #56a0ce; stroke: #56a0ce"/>
    </g>
   </g>
   <g id="line2d_147">
    <g clip-path="url(#p2ad17c720f)">
     <use xlink:href="#ma37ed631ad" x="230.985315" y="91.186667" style="fill: #549fcd; stroke: #549fcd"/>
    </g>
   </g>
   <g id="line2d_148">
    <defs>
     <path id="mde3d17e1aa" d="M 0 4 
C 1.060812 4 2.078319 3.578535 2.828427 2.828427 
C 3.578535 2.078319 4 1.060812 4 0 
C 4 -1.060812 3.578535 -2.078319 2.828427 -2.828427 
C 2.078319 -3.578535 1.060812 -4 0 -4 
C -1.060812 -4 -2.078319 -3.578535 -2.828427 -2.828427 
C -3.578535 -2.078319 -4 -1.060812 -4 0 
C -4 1.060812 -3.578535 2.078319 -2.828427 2.828427 
C -2.078319 3.578535 -1.060812 4 0 4 
z
" style="stroke: #4090c5"/>
    </defs>
    <g clip-path="url(#p2ad17c720f)">
     <use xlink:href="#mde3d17e1aa" x="244.642657" y="91.186667" style="fill: #4090c5; stroke: #4090c5"/>
    </g>
   </g>
   <g id="line2d_149">
    <defs>
     <path id="m27386e324c" d="M 0 4 
C 1.060812 4 2.078319 3.578535 2.828427 2.828427 
C 3.578535 2.078319 4 1.060812 4 0 
C 4 -1.060812 3.578535 -2.078319 2.828427 -2.828427 
C 2.078319 -3.578535 1.060812 -4 0 -4 
C -1.060812 -4 -2.078319 -3.578535 -2.828427 -2.828427 
C -3.578535 -2.078319 -4 -1.060812 -4 0 
C -4 1.060812 -3.578535 2.078319 -2.828427 2.828427 
C -2.078319 3.578535 -1.060812 4 0 4 
z
" style="stroke: #4e9acb"/>
    </defs>
    <g clip-path="url(#p2ad17c720f)">
     <use xlink:href="#m27386e324c" x="258.3" y="91.186667" style="fill: #4e9acb; stroke: #4e9acb"/>
    </g>
   </g>
   <g id="line2d_150">
    <defs>
     <path id="m2ea8afd4df" d="M 0 4 
C 1.060812 4 2.078319 3.578535 2.828427 2.828427 
C 3.578535 2.078319 4 1.060812 4 0 
C 4 -1.060812 3.578535 -2.078319 2.828427 -2.828427 
C 2.078319 -3.578535 1.060812 -4 0 -4 
C -1.060812 -4 -2.078319 -3.578535 -2.828427 -2.828427 
C -3.578535 -2.078319 -4 -1.060812 -4 0 
C -4 1.060812 -3.578535 2.078319 -2.828427 2.828427 
C -2.078319 3.578535 -1.060812 4 0 4 
z
" style="stroke: #5aa2cf"/>
    </defs>
    <g clip-path="url(#p2ad17c720f)">
     <use xlink:href="#m2ea8afd4df" x="271.957343" y="91.186667" style="fill: #5aa2cf; stroke: #5aa2cf"/>
    </g>
   </g>
   <g id="line2d_151">
    <defs>
     <path id="m9170bfb6cf" d="M 0 4 
C 1.060812 4 2.078319 3.578535 2.828427 2.828427 
C 3.578535 2.078319 4 1.060812 4 0 
C 4 -1.060812 3.578535 -2.078319 2.828427 -2.828427 
C 2.078319 -3.578535 1.060812 -4 0 -4 
C -1.060812 -4 -2.078319 -3.578535 -2.828427 -2.828427 
C -3.578535 -2.078319 -4 -1.060812 -4 0 
C -4 1.060812 -3.578535 2.078319 -2.828427 2.828427 
C -2.078319 3.578535 -1.060812 4 0 4 
z
" style="stroke: #66abd4"/>
    </defs>
    <g clip-path="url(#p2ad17c720f)">
     <use xlink:href="#m9170bfb6cf" x="285.614685" y="91.186667" style="fill: #66abd4; stroke: #66abd4"/>
    </g>
   </g>
   <g id="line2d_152">
    <defs>
     <path id="m1e3d82ba24" d="M 0 4 
C 1.060812 4 2.078319 3.578535 2.828427 2.828427 
C 3.578535 2.078319 4 1.060812 4 0 
C 4 -1.060812 3.578535 -2.078319 2.828427 -2.828427 
C 2.078319 -3.578535 1.060812 -4 0 -4 
C -1.060812 -4 -2.078319 -3.578535 -2.828427 -2.828427 
C -3.578535 -2.078319 -4 -1.060812 -4 0 
C -4 1.060812 -3.578535 2.078319 -2.828427 2.828427 
C -2.078319 3.578535 -1.060812 4 0 4 
z
" style="stroke: #519ccc"/>
    </defs>
    <g clip-path="url(#p2ad17c720f)">
     <use xlink:href="#m1e3d82ba24" x="299.272028" y="104.253333" style="fill: #519ccc; stroke: #519ccc"/>
    </g>
   </g>
   <g id="line2d_153">
    <g clip-path="url(#p2ad17c720f)">
     <use xlink:href="#m771c031531" x="312.929371" y="117.32" style="fill: #3787c0; stroke: #3787c0"/>
    </g>
   </g>
   <g id="line2d_154">
    <defs>
     <path id="mcdd6b7fba8" d="M 0 4 
C 1.060812 4 2.078319 3.578535 2.828427 2.828427 
C 3.578535 2.078319 4 1.060812 4 0 
C 4 -1.060812 3.578535 -2.078319 2.828427 -2.828427 
C 2.078319 -3.578535 1.060812 -4 0 -4 
C -1.060812 -4 -2.078319 -3.578535 -2.828427 -2.828427 
C -3.578535 -2.078319 -4 -1.060812 -4 0 
C -4 1.060812 -3.578535 2.078319 -2.828427 2.828427 
C -2.078319 3.578535 -1.060812 4 0 4 
z
" style="stroke: #08306b"/>
    </defs>
    <g clip-path="url(#p2ad17c720f)">
     <use xlink:href="#mcdd6b7fba8" x="326.586713" y="130.386667" style="fill: #08306b; stroke: #08306b"/>
    </g>
   </g>
   <g id="line2d_155">
    <g clip-path="url(#p2ad17c720f)">
     <use xlink:href="#mcdd6b7fba8" x="340.244056" y="143.453333" style="fill: #08306b; stroke: #08306b"/>
    </g>
   </g>
   <g id="line2d_156">
    <g clip-path="url(#p2ad17c720f)">
     <use xlink:href="#mcdd6b7fba8" x="353.901399" y="169.586667" style="fill: #08306b; stroke: #08306b"/>
    </g>
   </g>
   <g id="line2d_157">
    <g clip-path="url(#p2ad17c720f)">
     <use xlink:href="#mcdd6b7fba8" x="367.558741" y="195.72" style="fill: #08306b; stroke: #08306b"/>
    </g>
   </g>
   <g id="line2d_158">
    <g clip-path="url(#p2ad17c720f)">
     <use xlink:href="#mcdd6b7fba8" x="381.216084" y="234.92" style="fill: #08306b; stroke: #08306b"/>
    </g>
   </g>
   <g id="line2d_159">
    <g clip-path="url(#p2ad17c720f)">
     <use xlink:href="#mcdd6b7fba8" x="394.873427" y="274.12" style="fill: #08306b; stroke: #08306b"/>
    </g>
   </g>
   <g id="line2d_160">
    <g clip-path="url(#p2ad17c720f)">
     <use xlink:href="#mcdd6b7fba8" x="408.530769" y="313.32" style="fill: #08306b; stroke: #08306b"/>
    </g>
   </g>
   <g id="line2d_161">
    <g clip-path="url(#p2ad17c720f)">
     <use xlink:href="#mcdd6b7fba8" x="422.188112" y="378.653333" style="fill: #08306b; stroke: #08306b"/>
    </g>
   </g>
   <g id="line2d_162">
    <defs>
     <path id="m85130e9280" d="M 0 4 
C 1.060812 4 2.078319 3.578535 2.828427 2.828427 
C 3.578535 2.078319 4 1.060812 4 0 
C 4 -1.060812 3.578535 -2.078319 2.828427 -2.828427 
C 2.078319 -3.578535 1.060812 -4 0 -4 
C -1.060812 -4 -2.078319 -3.578535 -2.828427 -2.828427 
C -3.578535 -2.078319 -4 -1.060812 -4 0 
C -4 1.060812 -3.578535 2.078319 -2.828427 2.828427 
C -2.078319 3.578535 -1.060812 4 0 4 
z
" style="stroke: #d8e7f5"/>
    </defs>
    <g clip-path="url(#p2ad17c720f)">
     <use xlink:href="#m85130e9280" x="435.845455" y="430.92" style="fill: #d8e7f5; stroke: #d8e7f5"/>
    </g>
   </g>
   <g id="line2d_163">
    <g clip-path="url(#p2ad17c720f)"/>
   </g>
   <g id="line2d_164">
    <g clip-path="url(#p2ad17c720f)"/>
   </g>
   <g id="line2d_165">
    <g clip-path="url(#p2ad17c720f)"/>
   </g>
   <g id="line2d_166">
    <g clip-path="url(#p2ad17c720f)"/>
   </g>
   <g id="line2d_167">
    <g clip-path="url(#p2ad17c720f)"/>
   </g>
   <g id="line2d_168">
    <g clip-path="url(#p2ad17c720f)"/>
   </g>
   <g id="line2d_169">
    <g clip-path="url(#p2ad17c720f)"/>
   </g>
   <g id="line2d_170">
    <g clip-path="url(#p2ad17c720f)"/>
   </g>
   <g id="patch_3">
    <path d="M 63 448.56 
L 63 60.48 
" style="fill: none; stroke: #000000; stroke-width: 0.8; stroke-linejoin: miter; stroke-linecap: square"/>
   </g>
   <g id="patch_4">
    <path d="M 63 448.56 
L 453.6 448.56 
" style="fill: none; stroke: #000000; stroke-width: 0.8; stroke-linejoin: miter; stroke-linecap: square"/>
   </g>
  </g>
 </g>
 <defs>
  <clipPath id="p2ad17c720f">
   <rect x="63" y="60.48" width="390.6" height="388.08"/>
  </clipPath>
 </defs>
</svg>
