<?xml version="1.0" encoding="utf-8" standalone="no"?>
<!DOCTYPE svg PUBLIC "-//W3C//DTD SVG 1.1//EN"
  "http://www.w3.org/Graphics/SVG/1.1/DTD/svg11.dtd">
<svg xmlns:xlink="http://www.w3.org/1999/xlink" width="504pt" height="504pt" viewBox="0 0 504 504" xmlns="http://www.w3.org/2000/svg" version="1.1">
 <metadata>
  <rdf:RDF xmlns:dc="http://purl.org/dc/elements/1.1/" xmlns:cc="http://creativecommons.org/ns#" xmlns:rdf="http://www.w3.org/1999/02/22-rdf-syntax-ns#">
   <cc:Work>
    <dc:type rdf:resource="http://purl.org/dc/dcmitype/StillImage"/>
    <dc:date>2026-04-17T16:37:56.324383</dc:date>
    <dc:format>image/svg+xml</dc:format>
    <dc:creator>
     <cc:Agent>
      <dc:title>Matplotlib v3.10.8, https://matplotlib.org/</dc:title>
     </cc:Agent>
    </dc:creator>
   </cc:Work>
  </rdf:RDF>
 </metadata>
 <defs>
  <style type="text/css">*{stroke-linejoin: round; stroke-linecap: butt}</style>
 </defs>
 <g id="figure_1">
  <g id="patch_1">
   <path d="M 0 504 
L 504 504 
L 504 0 
L 0 0 
L 0 504 
z
" style="fill: none"/>
  </g>
  <g id="axes_1">
   <g id="patch_2">
    <path d="M 63 448.56 
L 453.6 448.56 
L 453.6 60.48 
L 63 60.48 
L 63 448.56 
z
" style="fill: none"/>
   </g>
   <g id="matplotlib.axis_1">
    <g id="xtick_1">
     <g id="line2d_1">
      <defs>
       <path id="mbecdb5dbd9" d="M 0 0 
L 0 3.5 
" style="stroke: #000000; stroke-width: 0.8"/>
      </defs>
      <g>
       <use xlink:href="#mbecdb5dbd9" x="115.459497" y="448.56" style="stroke: #000000; stroke-width: 0.8"/>
      </g>
     </g>
     <g id="text_1">
      <text style="font-size: 16px; font-family: 'Arial', sans-serif; text-anchor: middle" x="115.459497" y="467.0125" transform="rotate(-0 115.459497 467.0125)">1 Jul</text>
     </g>
    </g>
    <g id="xtick_2">
     <g id="line2d_2">
      <g>
       <use xlink:href="#mbecdb5dbd9" x="181.060321" y="448.56" style="stroke: #000000; stroke-width: 0.8"/>
      </g>
     </g>
     <g id="text_2">
      <text style="font-size: 16px; font-family: 'Arial', sans-serif; text-anchor: middle" x="181.060321" y="467.06" transform="rotate(-0 181.060321 467.06)">1 Aug</text>
     </g>
    </g>
    <g id="xtick_3">
     <g id="line2d_3">
      <g>
       <use xlink:href="#mbecdb5dbd9" x="246.661144" y="448.56" style="stroke: #000000; stroke-width: 0.8"/>
      </g>
     </g>
     <g id="text_3">
      <text style="font-size: 16px; font-family: 'Arial', sans-serif; text-anchor: middle" x="246.661144" y="467.2075" transform="rotate(-0 246.661144 467.2075)">1 Sep</text>
     </g>
    </g>
    <g id="xtick_4">
     <g id="line2d_4">
      <g>
       <use xlink:href="#mbecdb5dbd9" x="310.145812" y="448.56" style="stroke: #000000; stroke-width: 0.8"/>
      </g>
     </g>
     <g id="text_4">
      <text style="font-size: 16px; font-family: 'Arial', sans-serif; text-anchor: middle" x="310.145812" y="467.0125" transform="rotate(-0 310.145812 467.0125)">1 Oct</text>
     </g>
    </g>
    <g id="xtick_5">
     <g id="line2d_5">
      <g>
       <use xlink:href="#mbecdb5dbd9" x="375.746636" y="448.56" style="stroke: #000000; stroke-width: 0.8"/>
      </g>
     </g>
     <g id="text_5">
      <text style="font-size: 16px; font-family: 'Arial', sans-serif; text-anchor: middle" x="375.746636" y="467.0125" transform="rotate(-0 375.746636 467.0125)">1 Nov</text>
     </g>
    </g>
    <g id="xtick_6">
     <g id="line2d_6">
      <g>
       <use xlink:href="#mbecdb5dbd9" x="439.231303" y="448.56" style="stroke: #000000; stroke-width: 0.8"/>
      </g>
     </g>
     <g id="text_6">
      <text style="font-size: 16px; font-family: 'Arial', sans-serif; text-anchor: middle" x="439.231303" y="467.0125" transform="rotate(-0 439.231303 467.0125)">1 Dec</text>
     </g>
    </g>
   </g>
   <g id="matplotlib.axis_2">
    <g id="ytick_1">
     <g id="line2d_7">
      <defs>
       <path id="mf8254bd421" d="M 0 0 
L -3.5 0 
" style="stroke: #000000; stroke-width: 0.8"/>
      </defs>
      <g>
       <use xlink:href="#mf8254bd421" x="63" y="448.56" style="stroke: #000000; stroke-width: 0.8"/>
      </g>
     </g>
     <g id="text_7">
      <text style="font-size: 16px; font-family: 'Arial', sans-serif; text-anchor: end" x="56" y="454.28625" transform="rotate(-0 56 454.28625)">0.0</text>
     </g>
    </g>
    <g id="ytick_2">
     <g id="line2d_8">
      <g>
       <use xlink:href="#mf8254bd421" x="63" y="371.712475" style="stroke: #000000; stroke-width: 0.8"/>
      </g>
     </g>
     <g id="text_8">
      <text style="font-size: 16px; font-family: 'Arial', sans-serif; text-anchor: end" x="56" y="377.438725" transform="rotate(-0 56 377.438725)">0.2</text>
     </g>
    </g>
    <g id="ytick_3">
     <g id="line2d_9">
      <g>
       <use xlink:href="#mf8254bd421" x="63" y="294.86495" style="stroke: #000000; stroke-width: 0.8"/>
      </g>
     </g>
     <g id="text_9">
      <text style="font-size: 16px; font-family: 'Arial', sans-serif; text-anchor: end" x="56" y="300.5912" transform="rotate(-0 56 300.5912)">0.4</text>
     </g>
    </g>
    <g id="ytick_4">
     <g id="line2d_10">
      <g>
       <use xlink:href="#mf8254bd421" x="63" y="218.017426" style="stroke: #000000; stroke-width: 0.8"/>
      </g>
     </g>
     <g id="text_10">
      <text style="font-size: 16px; font-family: 'Arial', sans-serif; text-anchor: end" x="56" y="223.743676" transform="rotate(-0 56 223.743676)">0.6</text>
     </g>
    </g>
    <g id="ytick_5">
     <g id="line2d_11">
      <g>
       <use xlink:href="#mf8254bd421" x="63" y="141.169901" style="stroke: #000000; stroke-width: 0.8"/>
      </g>
     </g>
     <g id="text_11">
      <text style="font-size: 16px; font-family: 'Arial', sans-serif; text-anchor: end" x="56" y="146.896151" transform="rotate(-0 56 146.896151)">0.8</text>
     </g>
    </g>
    <g id="ytick_6">
     <g id="line2d_12">
      <g>
       <use xlink:href="#mf8254bd421" x="63" y="64.322376" style="stroke: #000000; stroke-width: 0.8"/>
      </g>
     </g>
     <g id="text_12">
      <text style="font-size: 16px; font-family: 'Arial', sans-serif; text-anchor: end" x="56" y="70.048626" transform="rotate(-0 56 70.048626)">1.0</text>
     </g>
    </g>
    <g id="text_13">
     <text style="font-size: 16px; font-family: 'Arial', sans-serif; text-anchor: middle" x="26.3925" y="254.52" transform="rotate(-90 26.3925 254.52)">Probability of additional cases</text>
    </g>
   </g>
   <g id="line2d_13">
    <path d="M 81.601008 64.322376 
L 83.717163 152.870063 
L 87.949474 152.886477 
L 90.06563 153.017357 
L 92.181786 153.568131 
L 94.297941 155.099464 
L 96.414097 158.348185 
L 98.530252 164.084147 
L 100.646408 172.985281 
L 102.762564 185.561161 
L 104.878719 85.609451 
L 106.994875 88.757497 
L 109.11103 68.471487 
L 111.227186 65.011428 
L 117.575653 65.374885 
L 119.691808 64.500314 
L 121.807964 64.354337 
L 128.156431 64.437778 
L 132.388742 64.713249 
L 134.504898 65.102788 
L 136.621053 65.935735 
L 138.737209 64.79708 
L 140.853364 65.304352 
L 142.96952 64.3621 
L 147.201831 64.454707 
L 149.317987 64.354646 
L 157.782609 64.360389 
L 168.363387 64.323124 
L 322.842746 64.381986 
L 324.958901 64.65552 
L 327.075057 65.673721 
L 329.191212 68.682893 
L 331.307368 75.532667 
L 333.423524 87.60441 
L 335.539679 108.893865 
L 337.655835 140.196482 
L 339.77199 179.167916 
L 346.120457 303.837056 
L 348.236613 338.920255 
L 350.352768 367.39239 
L 352.468924 390.814076 
L 354.58508 408.714211 
L 356.701235 421.837993 
L 358.817391 431.106173 
L 360.933546 437.465099 
L 363.049702 441.673668 
L 365.165858 444.38632 
L 367.282013 446.093862 
L 369.398169 447.143931 
L 371.514324 447.771839 
L 373.63048 448.136288 
L 377.862791 448.451067 
L 384.211258 448.550118 
L 426.53437 448.56 
L 434.998992 448.56 
L 434.998992 448.56 
" clip-path="url(#p27367302be)" style="fill: none; stroke: #1f77b4; stroke-width: 2; stroke-linecap: square"/>
   </g>
   <g id="line2d_14">
    <path d="M 63 429.348119 
L 453.6 429.348119 
" clip-path="url(#p27367302be)" style="fill: none; stroke-dasharray: 7.4,3.2; stroke-dashoffset: 0; stroke: #d62728; stroke-width: 2"/>
   </g>
   <g id="patch_3">
    <path d="M 63 448.56 
L 63 60.48 
" style="fill: none; stroke: #000000; stroke-width: 0.8; stroke-linejoin: miter; stroke-linecap: square"/>
   </g>
   <g id="patch_4">
    <path d="M 63 448.56 
L 453.6 448.56 
" style="fill: none; stroke: #000000; stroke-width: 0.8; stroke-linejoin: miter; stroke-linecap: square"/>
   </g>
  </g>
  <g id="axes_2">
   <g id="patch_5">
    <path d="M 80.754545 448.56 
L 82.44747 448.56 
L 82.44747 409.752 
L 80.754545 409.752 
z
" clip-path="url(#p27367302be)" style="fill: #7f7f7f; opacity: 0.5"/>
   </g>
   <g id="patch_6">
    <path d="M 82.870701 448.56 
L 84.563626 448.56 
L 84.563626 448.56 
L 82.870701 448.56 
z
" clip-path="url(#p27367302be)" style="fill: #7f7f7f; opacity: 0.5"/>
   </g>
   <g id="patch_7">
    <path d="M 84.986857 448.56 
L 86.679781 448.56 
L 86.679781 448.56 
L 84.986857 448.56 
z
" clip-path="url(#p27367302be)" style="fill: #7f7f7f; opacity: 0.5"/>
   </g>
   <g id="patch_8">
    <path d="M 87.103012 448.56 
L 88.795937 448.56 
L 88.795937 448.56 
L 87.103012 448.56 
z
" clip-path="url(#p27367302be)" style="fill: #7f7f7f; opacity: 0.5"/>
   </g>
   <g id="patch_9">
    <path d="M 89.219168 448.56 
L 90.912092 448.56 
L 90.912092 448.56 
L 89.219168 448.56 
z
" clip-path="url(#p27367302be)" style="fill: #7f7f7f; opacity: 0.5"/>
   </g>
   <g id="patch_10">
    <path d="M 91.335323 448.56 
L 93.028248 448.56 
L 93.028248 448.56 
L 91.335323 448.56 
z
" clip-path="url(#p27367302be)" style="fill: #7f7f7f; opacity: 0.5"/>
   </g>
   <g id="patch_11">
    <path d="M 93.451479 448.56 
L 95.144404 448.56 
L 95.144404 448.56 
L 93.451479 448.56 
z
" clip-path="url(#p27367302be)" style="fill: #7f7f7f; opacity: 0.5"/>
   </g>
   <g id="patch_12">
    <path d="M 95.567635 448.56 
L 97.260559 448.56 
L 97.260559 448.56 
L 95.567635 448.56 
z
" clip-path="url(#p27367302be)" style="fill: #7f7f7f; opacity: 0.5"/>
   </g>
   <g id="patch_13">
    <path d="M 97.68379 448.56 
L 99.376715 448.56 
L 99.376715 448.56 
L 97.68379 448.56 
z
" clip-path="url(#p27367302be)" style="fill: #7f7f7f; opacity: 0.5"/>
   </g>
   <g id="patch_14">
    <path d="M 99.799946 448.56 
L 101.49287 448.56 
L 101.49287 448.56 
L 99.799946 448.56 
z
" clip-path="url(#p27367302be)" style="fill: #7f7f7f; opacity: 0.5"/>
   </g>
   <g id="patch_15">
    <path d="M 101.916101 448.56 
L 103.609026 448.56 
L 103.609026 409.752 
L 101.916101 409.752 
z
" clip-path="url(#p27367302be)" style="fill: #7f7f7f; opacity: 0.5"/>
   </g>
   <g id="patch_16">
    <path d="M 104.032257 448.56 
L 105.725181 448.56 
L 105.725181 448.56 
L 104.032257 448.56 
z
" clip-path="url(#p27367302be)" style="fill: #7f7f7f; opacity: 0.5"/>
   </g>
   <g id="patch_17">
    <path d="M 106.148413 448.56 
L 107.841337 448.56 
L 107.841337 409.752 
L 106.148413 409.752 
z
" clip-path="url(#p27367302be)" style="fill: #7f7f7f; opacity: 0.5"/>
   </g>
   <g id="patch_18">
    <path d="M 108.264568 448.56 
L 109.957493 448.56 
L 109.957493 409.752 
L 108.264568 409.752 
z
" clip-path="url(#p27367302be)" style="fill: #7f7f7f; opacity: 0.5"/>
   </g>
   <g id="patch_19">
    <path d="M 110.380724 448.56 
L 112.073648 448.56 
L 112.073648 448.56 
L 110.380724 448.56 
z
" clip-path="url(#p27367302be)" style="fill: #7f7f7f; opacity: 0.5"/>
   </g>
   <g id="patch_20">
    <path d="M 112.496879 448.56 
L 114.189804 448.56 
L 114.189804 448.56 
L 112.496879 448.56 
z
" clip-path="url(#p27367302be)" style="fill: #7f7f7f; opacity: 0.5"/>
   </g>
   <g id="patch_21">
    <path d="M 114.613035 448.56 
L 116.305959 448.56 
L 116.305959 448.56 
L 114.613035 448.56 
z
" clip-path="url(#p27367302be)" style="fill: #7f7f7f; opacity: 0.5"/>
   </g>
   <g id="patch_22">
    <path d="M 116.729191 448.56 
L 118.422115 448.56 
L 118.422115 409.752 
L 116.729191 409.752 
z
" clip-path="url(#p27367302be)" style="fill: #7f7f7f; opacity: 0.5"/>
   </g>
   <g id="patch_23">
    <path d="M 118.845346 448.56 
L 120.538271 448.56 
L 120.538271 409.752 
L 118.845346 409.752 
z
" clip-path="url(#p27367302be)" style="fill: #7f7f7f; opacity: 0.5"/>
   </g>
   <g id="patch_24">
    <path d="M 120.961502 448.56 
L 122.654426 448.56 
L 122.654426 448.56 
L 120.961502 448.56 
z
" clip-path="url(#p27367302be)" style="fill: #7f7f7f; opacity: 0.5"/>
   </g>
   <g id="patch_25">
    <path d="M 123.077657 448.56 
L 124.770582 448.56 
L 124.770582 448.56 
L 123.077657 448.56 
z
" clip-path="url(#p27367302be)" style="fill: #7f7f7f; opacity: 0.5"/>
   </g>
   <g id="patch_26">
    <path d="M 125.193813 448.56 
L 126.886737 448.56 
L 126.886737 448.56 
L 125.193813 448.56 
z
" clip-path="url(#p27367302be)" style="fill: #7f7f7f; opacity: 0.5"/>
   </g>
   <g id="patch_27">
    <path d="M 127.309969 448.56 
L 129.002893 448.56 
L 129.002893 448.56 
L 127.309969 448.56 
z
" clip-path="url(#p27367302be)" style="fill: #7f7f7f; opacity: 0.5"/>
   </g>
   <g id="patch_28">
    <path d="M 129.426124 448.56 
L 131.119049 448.56 
L 131.119049 448.56 
L 129.426124 448.56 
z
" clip-path="url(#p27367302be)" style="fill: #7f7f7f; opacity: 0.5"/>
   </g>
   <g id="patch_29">
    <path d="M 131.54228 448.56 
L 133.235204 448.56 
L 133.235204 448.56 
L 131.54228 448.56 
z
" clip-path="url(#p27367302be)" style="fill: #7f7f7f; opacity: 0.5"/>
   </g>
   <g id="patch_30">
    <path d="M 133.658435 448.56 
L 135.35136 448.56 
L 135.35136 448.56 
L 133.658435 448.56 
z
" clip-path="url(#p27367302be)" style="fill: #7f7f7f; opacity: 0.5"/>
   </g>
   <g id="patch_31">
    <path d="M 135.774591 448.56 
L 137.467515 448.56 
L 137.467515 409.752 
L 135.774591 409.752 
z
" clip-path="url(#p27367302be)" style="fill: #7f7f7f; opacity: 0.5"/>
   </g>
   <g id="patch_32">
    <path d="M 137.890747 448.56 
L 139.583671 448.56 
L 139.583671 448.56 
L 137.890747 448.56 
z
" clip-path="url(#p27367302be)" style="fill: #7f7f7f; opacity: 0.5"/>
   </g>
   <g id="patch_33">
    <path d="M 140.006902 448.56 
L 141.699827 448.56 
L 141.699827 370.944 
L 140.006902 370.944 
z
" clip-path="url(#p27367302be)" style="fill: #7f7f7f; opacity: 0.5"/>
   </g>
   <g id="patch_34">
    <path d="M 142.123058 448.56 
L 143.815982 448.56 
L 143.815982 448.56 
L 142.123058 448.56 
z
" clip-path="url(#p27367302be)" style="fill: #7f7f7f; opacity: 0.5"/>
   </g>
   <g id="patch_35">
    <path d="M 144.239213 448.56 
L 145.932138 448.56 
L 145.932138 448.56 
L 144.239213 448.56 
z
" clip-path="url(#p27367302be)" style="fill: #7f7f7f; opacity: 0.5"/>
   </g>
   <g id="patch_36">
    <path d="M 146.355369 448.56 
L 148.048293 448.56 
L 148.048293 409.752 
L 146.355369 409.752 
z
" clip-path="url(#p27367302be)" style="fill: #7f7f7f; opacity: 0.5"/>
   </g>
   <g id="patch_37">
    <path d="M 148.471525 448.56 
L 150.164449 448.56 
L 150.164449 448.56 
L 148.471525 448.56 
z
" clip-path="url(#p27367302be)" style="fill: #7f7f7f; opacity: 0.5"/>
   </g>
   <g id="patch_38">
    <path d="M 150.58768 448.56 
L 152.280605 448.56 
L 152.280605 448.56 
L 150.58768 448.56 
z
" clip-path="url(#p27367302be)" style="fill: #7f7f7f; opacity: 0.5"/>
   </g>
   <g id="patch_39">
    <path d="M 152.703836 448.56 
L 154.39676 448.56 
L 154.39676 448.56 
L 152.703836 448.56 
z
" clip-path="url(#p27367302be)" style="fill: #7f7f7f; opacity: 0.5"/>
   </g>
   <g id="patch_40">
    <path d="M 154.819991 448.56 
L 156.512916 448.56 
L 156.512916 409.752 
L 154.819991 409.752 
z
" clip-path="url(#p27367302be)" style="fill: #7f7f7f; opacity: 0.5"/>
   </g>
   <g id="patch_41">
    <path d="M 156.936147 448.56 
L 158.629071 448.56 
L 158.629071 409.752 
L 156.936147 409.752 
z
" clip-path="url(#p27367302be)" style="fill: #7f7f7f; opacity: 0.5"/>
   </g>
   <g id="patch_42">
    <path d="M 159.052303 448.56 
L 160.745227 448.56 
L 160.745227 448.56 
L 159.052303 448.56 
z
" clip-path="url(#p27367302be)" style="fill: #7f7f7f; opacity: 0.5"/>
   </g>
   <g id="patch_43">
    <path d="M 161.168458 448.56 
L 162.861383 448.56 
L 162.861383 409.752 
L 161.168458 409.752 
z
" clip-path="url(#p27367302be)" style="fill: #7f7f7f; opacity: 0.5"/>
   </g>
   <g id="patch_44">
    <path d="M 163.284614 448.56 
L 164.977538 448.56 
L 164.977538 409.752 
L 163.284614 409.752 
z
" clip-path="url(#p27367302be)" style="fill: #7f7f7f; opacity: 0.5"/>
   </g>
   <g id="patch_45">
    <path d="M 165.400769 448.56 
L 167.093694 448.56 
L 167.093694 409.752 
L 165.400769 409.752 
z
" clip-path="url(#p27367302be)" style="fill: #7f7f7f; opacity: 0.5"/>
   </g>
   <g id="patch_46">
    <path d="M 167.516925 448.56 
L 169.209849 448.56 
L 169.209849 448.56 
L 167.516925 448.56 
z
" clip-path="url(#p27367302be)" style="fill: #7f7f7f; opacity: 0.5"/>
   </g>
   <g id="patch_47">
    <path d="M 169.633081 448.56 
L 171.326005 448.56 
L 171.326005 409.752 
L 169.633081 409.752 
z
" clip-path="url(#p27367302be)" style="fill: #7f7f7f; opacity: 0.5"/>
   </g>
   <g id="patch_48">
    <path d="M 171.749236 448.56 
L 173.442161 448.56 
L 173.442161 409.752 
L 171.749236 409.752 
z
" clip-path="url(#p27367302be)" style="fill: #7f7f7f; opacity: 0.5"/>
   </g>
   <g id="patch_49">
    <path d="M 173.865392 448.56 
L 175.558316 448.56 
L 175.558316 448.56 
L 173.865392 448.56 
z
" clip-path="url(#p27367302be)" style="fill: #7f7f7f; opacity: 0.5"/>
   </g>
   <g id="patch_50">
    <path d="M 175.981547 448.56 
L 177.674472 448.56 
L 177.674472 448.56 
L 175.981547 448.56 
z
" clip-path="url(#p27367302be)" style="fill: #7f7f7f; opacity: 0.5"/>
   </g>
   <g id="patch_51">
    <path d="M 178.097703 448.56 
L 179.790627 448.56 
L 179.790627 448.56 
L 178.097703 448.56 
z
" clip-path="url(#p27367302be)" style="fill: #7f7f7f; opacity: 0.5"/>
   </g>
   <g id="patch_52">
    <path d="M 180.213858 448.56 
L 181.906783 448.56 
L 181.906783 409.752 
L 180.213858 409.752 
z
" clip-path="url(#p27367302be)" style="fill: #7f7f7f; opacity: 0.5"/>
   </g>
   <g id="patch_53">
    <path d="M 182.330014 448.56 
L 184.022939 448.56 
L 184.022939 409.752 
L 182.330014 409.752 
z
" clip-path="url(#p27367302be)" style="fill: #7f7f7f; opacity: 0.5"/>
   </g>
   <g id="patch_54">
    <path d="M 184.44617 448.56 
L 186.139094 448.56 
L 186.139094 409.752 
L 184.44617 409.752 
z
" clip-path="url(#p27367302be)" style="fill: #7f7f7f; opacity: 0.5"/>
   </g>
   <g id="patch_55">
    <path d="M 186.562325 448.56 
L 188.25525 448.56 
L 188.25525 448.56 
L 186.562325 448.56 
z
" clip-path="url(#p27367302be)" style="fill: #7f7f7f; opacity: 0.5"/>
   </g>
   <g id="patch_56">
    <path d="M 188.678481 448.56 
L 190.371405 448.56 
L 190.371405 409.752 
L 188.678481 409.752 
z
" clip-path="url(#p27367302be)" style="fill: #7f7f7f; opacity: 0.5"/>
   </g>
   <g id="patch_57">
    <path d="M 190.794636 448.56 
L 192.487561 448.56 
L 192.487561 448.56 
L 190.794636 448.56 
z
" clip-path="url(#p27367302be)" style="fill: #7f7f7f; opacity: 0.5"/>
   </g>
   <g id="patch_58">
    <path d="M 192.910792 448.56 
L 194.603717 448.56 
L 194.603717 448.56 
L 192.910792 448.56 
z
" clip-path="url(#p27367302be)" style="fill: #7f7f7f; opacity: 0.5"/>
   </g>
   <g id="patch_59">
    <path d="M 195.026948 448.56 
L 196.719872 448.56 
L 196.719872 448.56 
L 195.026948 448.56 
z
" clip-path="url(#p27367302be)" style="fill: #7f7f7f; opacity: 0.5"/>
   </g>
   <g id="patch_60">
    <path d="M 197.143103 448.56 
L 198.836028 448.56 
L 198.836028 370.944 
L 197.143103 370.944 
z
" clip-path="url(#p27367302be)" style="fill: #7f7f7f; opacity: 0.5"/>
   </g>
   <g id="patch_61">
    <path d="M 199.259259 448.56 
L 200.952183 448.56 
L 200.952183 409.752 
L 199.259259 409.752 
z
" clip-path="url(#p27367302be)" style="fill: #7f7f7f; opacity: 0.5"/>
   </g>
   <g id="patch_62">
    <path d="M 201.375414 448.56 
L 203.068339 448.56 
L 203.068339 370.944 
L 201.375414 370.944 
z
" clip-path="url(#p27367302be)" style="fill: #7f7f7f; opacity: 0.5"/>
   </g>
   <g id="patch_63">
    <path d="M 203.49157 448.56 
L 205.184495 448.56 
L 205.184495 448.56 
L 203.49157 448.56 
z
" clip-path="url(#p27367302be)" style="fill: #7f7f7f; opacity: 0.5"/>
   </g>
   <g id="patch_64">
    <path d="M 205.607726 448.56 
L 207.30065 448.56 
L 207.30065 370.944 
L 205.607726 370.944 
z
" clip-path="url(#p27367302be)" style="fill: #7f7f7f; opacity: 0.5"/>
   </g>
   <g id="patch_65">
    <path d="M 207.723881 448.56 
L 209.416806 448.56 
L 209.416806 409.752 
L 207.723881 409.752 
z
" clip-path="url(#p27367302be)" style="fill: #7f7f7f; opacity: 0.5"/>
   </g>
   <g id="patch_66">
    <path d="M 209.840037 448.56 
L 211.532961 448.56 
L 211.532961 409.752 
L 209.840037 409.752 
z
" clip-path="url(#p27367302be)" style="fill: #7f7f7f; opacity: 0.5"/>
   </g>
   <g id="patch_67">
    <path d="M 211.956192 448.56 
L 213.649117 448.56 
L 213.649117 409.752 
L 211.956192 409.752 
z
" clip-path="url(#p27367302be)" style="fill: #7f7f7f; opacity: 0.5"/>
   </g>
   <g id="patch_68">
    <path d="M 214.072348 448.56 
L 215.765273 448.56 
L 215.765273 370.944 
L 214.072348 370.944 
z
" clip-path="url(#p27367302be)" style="fill: #7f7f7f; opacity: 0.5"/>
   </g>
   <g id="patch_69">
    <path d="M 216.188504 448.56 
L 217.881428 448.56 
L 217.881428 370.944 
L 216.188504 370.944 
z
" clip-path="url(#p27367302be)" style="fill: #7f7f7f; opacity: 0.5"/>
   </g>
   <g id="patch_70">
    <path d="M 218.304659 448.56 
L 219.997584 448.56 
L 219.997584 409.752 
L 218.304659 409.752 
z
" clip-path="url(#p27367302be)" style="fill: #7f7f7f; opacity: 0.5"/>
   </g>
   <g id="patch_71">
    <path d="M 220.420815 448.56 
L 222.113739 448.56 
L 222.113739 370.944 
L 220.420815 370.944 
z
" clip-path="url(#p27367302be)" style="fill: #7f7f7f; opacity: 0.5"/>
   </g>
   <g id="patch_72">
    <path d="M 222.53697 448.56 
L 224.229895 448.56 
L 224.229895 138.096 
L 222.53697 138.096 
z
" clip-path="url(#p27367302be)" style="fill: #7f7f7f; opacity: 0.5"/>
   </g>
   <g id="patch_73">
    <path d="M 224.653126 448.56 
L 226.34605 448.56 
L 226.34605 370.944 
L 224.653126 370.944 
z
" clip-path="url(#p27367302be)" style="fill: #7f7f7f; opacity: 0.5"/>
   </g>
   <g id="patch_74">
    <path d="M 226.769282 448.56 
L 228.462206 448.56 
L 228.462206 409.752 
L 226.769282 409.752 
z
" clip-path="url(#p27367302be)" style="fill: #7f7f7f; opacity: 0.5"/>
   </g>
   <g id="patch_75">
    <path d="M 228.885437 448.56 
L 230.578362 448.56 
L 230.578362 409.752 
L 228.885437 409.752 
z
" clip-path="url(#p27367302be)" style="fill: #7f7f7f; opacity: 0.5"/>
   </g>
   <g id="patch_76">
    <path d="M 231.001593 448.56 
L 232.694517 448.56 
L 232.694517 448.56 
L 231.001593 448.56 
z
" clip-path="url(#p27367302be)" style="fill: #7f7f7f; opacity: 0.5"/>
   </g>
   <g id="patch_77">
    <path d="M 233.117748 448.56 
L 234.810673 448.56 
L 234.810673 332.136 
L 233.117748 332.136 
z
" clip-path="url(#p27367302be)" style="fill: #7f7f7f; opacity: 0.5"/>
   </g>
   <g id="patch_78">
    <path d="M 235.233904 448.56 
L 236.926828 448.56 
L 236.926828 448.56 
L 235.233904 448.56 
z
" clip-path="url(#p27367302be)" style="fill: #7f7f7f; opacity: 0.5"/>
   </g>
   <g id="patch_79">
    <path d="M 237.35006 448.56 
L 239.042984 448.56 
L 239.042984 370.944 
L 237.35006 370.944 
z
" clip-path="url(#p27367302be)" style="fill: #7f7f7f; opacity: 0.5"/>
   </g>
   <g id="patch_80">
    <path d="M 239.466215 448.56 
L 241.15914 448.56 
L 241.15914 293.328 
L 239.466215 293.328 
z
" clip-path="url(#p27367302be)" style="fill: #7f7f7f; opacity: 0.5"/>
   </g>
   <g id="patch_81">
    <path d="M 241.582371 448.56 
L 243.275295 448.56 
L 243.275295 409.752 
L 241.582371 409.752 
z
" clip-path="url(#p27367302be)" style="fill: #7f7f7f; opacity: 0.5"/>
   </g>
   <g id="patch_82">
    <path d="M 243.698526 448.56 
L 245.391451 448.56 
L 245.391451 370.944 
L 243.698526 370.944 
z
" clip-path="url(#p27367302be)" style="fill: #7f7f7f; opacity: 0.5"/>
   </g>
   <g id="patch_83">
    <path d="M 245.814682 448.56 
L 247.507606 448.56 
L 247.507606 293.328 
L 245.814682 293.328 
z
" clip-path="url(#p27367302be)" style="fill: #7f7f7f; opacity: 0.5"/>
   </g>
   <g id="patch_84">
    <path d="M 247.930838 448.56 
L 249.623762 448.56 
L 249.623762 370.944 
L 247.930838 370.944 
z
" clip-path="url(#p27367302be)" style="fill: #7f7f7f; opacity: 0.5"/>
   </g>
   <g id="patch_85">
    <path d="M 250.046993 448.56 
L 251.739918 448.56 
L 251.739918 215.712 
L 250.046993 215.712 
z
" clip-path="url(#p27367302be)" style="fill: #7f7f7f; opacity: 0.5"/>
   </g>
   <g id="patch_86">
    <path d="M 252.163149 448.56 
L 253.856073 448.56 
L 253.856073 254.52 
L 252.163149 254.52 
z
" clip-path="url(#p27367302be)" style="fill: #7f7f7f; opacity: 0.5"/>
   </g>
   <g id="patch_87">
    <path d="M 254.279304 448.56 
L 255.972229 448.56 
L 255.972229 176.904 
L 254.279304 176.904 
z
" clip-path="url(#p27367302be)" style="fill: #7f7f7f; opacity: 0.5"/>
   </g>
   <g id="patch_88">
    <path d="M 256.39546 448.56 
L 258.088384 448.56 
L 258.088384 254.52 
L 256.39546 254.52 
z
" clip-path="url(#p27367302be)" style="fill: #7f7f7f; opacity: 0.5"/>
   </g>
   <g id="patch_89">
    <path d="M 258.511616 448.56 
L 260.20454 448.56 
L 260.20454 176.904 
L 258.511616 176.904 
z
" clip-path="url(#p27367302be)" style="fill: #7f7f7f; opacity: 0.5"/>
   </g>
   <g id="patch_90">
    <path d="M 260.627771 448.56 
L 262.320696 448.56 
L 262.320696 176.904 
L 260.627771 176.904 
z
" clip-path="url(#p27367302be)" style="fill: #7f7f7f; opacity: 0.5"/>
   </g>
   <g id="patch_91">
    <path d="M 262.743927 448.56 
L 264.436851 448.56 
L 264.436851 254.52 
L 262.743927 254.52 
z
" clip-path="url(#p27367302be)" style="fill: #7f7f7f; opacity: 0.5"/>
   </g>
   <g id="patch_92">
    <path d="M 264.860082 448.56 
L 266.553007 448.56 
L 266.553007 370.944 
L 264.860082 370.944 
z
" clip-path="url(#p27367302be)" style="fill: #7f7f7f; opacity: 0.5"/>
   </g>
   <g id="patch_93">
    <path d="M 266.976238 448.56 
L 268.669162 448.56 
L 268.669162 332.136 
L 266.976238 332.136 
z
" clip-path="url(#p27367302be)" style="fill: #7f7f7f; opacity: 0.5"/>
   </g>
   <g id="patch_94">
    <path d="M 269.092394 448.56 
L 270.785318 448.56 
L 270.785318 176.904 
L 269.092394 176.904 
z
" clip-path="url(#p27367302be)" style="fill: #7f7f7f; opacity: 0.5"/>
   </g>
   <g id="patch_95">
    <path d="M 271.208549 448.56 
L 272.901474 448.56 
L 272.901474 215.712 
L 271.208549 215.712 
z
" clip-path="url(#p27367302be)" style="fill: #7f7f7f; opacity: 0.5"/>
   </g>
   <g id="patch_96">
    <path d="M 273.324705 448.56 
L 275.017629 448.56 
L 275.017629 176.904 
L 273.324705 176.904 
z
" clip-path="url(#p27367302be)" style="fill: #7f7f7f; opacity: 0.5"/>
   </g>
   <g id="patch_97">
    <path d="M 275.44086 448.56 
L 277.133785 448.56 
L 277.133785 293.328 
L 275.44086 293.328 
z
" clip-path="url(#p27367302be)" style="fill: #7f7f7f; opacity: 0.5"/>
   </g>
   <g id="patch_98">
    <path d="M 277.557016 448.56 
L 279.24994 448.56 
L 279.24994 215.712 
L 277.557016 215.712 
z
" clip-path="url(#p27367302be)" style="fill: #7f7f7f; opacity: 0.5"/>
   </g>
   <g id="patch_99">
    <path d="M 279.673172 448.56 
L 281.366096 448.56 
L 281.366096 60.48 
L 279.673172 60.48 
z
" clip-path="url(#p27367302be)" style="fill: #7f7f7f; opacity: 0.5"/>
   </g>
   <g id="patch_100">
    <path d="M 281.789327 448.56 
L 283.482252 448.56 
L 283.482252 99.288 
L 281.789327 99.288 
z
" clip-path="url(#p27367302be)" style="fill: #7f7f7f; opacity: 0.5"/>
   </g>
   <g id="patch_101">
    <path d="M 283.905483 448.56 
L 285.598407 448.56 
L 285.598407 138.096 
L 283.905483 138.096 
z
" clip-path="url(#p27367302be)" style="fill: #7f7f7f; opacity: 0.5"/>
   </g>
   <g id="patch_102">
    <path d="M 286.021638 448.56 
L 287.714563 448.56 
L 287.714563 176.904 
L 286.021638 176.904 
z
" clip-path="url(#p27367302be)" style="fill: #7f7f7f; opacity: 0.5"/>
   </g>
   <g id="patch_103">
    <path d="M 288.137794 448.56 
L 289.830718 448.56 
L 289.830718 138.096 
L 288.137794 138.096 
z
" clip-path="url(#p27367302be)" style="fill: #7f7f7f; opacity: 0.5"/>
   </g>
   <g id="patch_104">
    <path d="M 290.25395 448.56 
L 291.946874 448.56 
L 291.946874 215.712 
L 290.25395 215.712 
z
" clip-path="url(#p27367302be)" style="fill: #7f7f7f; opacity: 0.5"/>
   </g>
   <g id="patch_105">
    <path d="M 292.370105 448.56 
L 294.06303 448.56 
L 294.06303 99.288 
L 292.370105 99.288 
z
" clip-path="url(#p27367302be)" style="fill: #7f7f7f; opacity: 0.5"/>
   </g>
   <g id="patch_106">
    <path d="M 294.486261 448.56 
L 296.179185 448.56 
L 296.179185 215.712 
L 294.486261 215.712 
z
" clip-path="url(#p27367302be)" style="fill: #7f7f7f; opacity: 0.5"/>
   </g>
   <g id="patch_107">
    <path d="M 296.602416 448.56 
L 298.295341 448.56 
L 298.295341 293.328 
L 296.602416 293.328 
z
" clip-path="url(#p27367302be)" style="fill: #7f7f7f; opacity: 0.5"/>
   </g>
   <g id="patch_108">
    <path d="M 298.718572 448.56 
L 300.411496 448.56 
L 300.411496 332.136 
L 298.718572 332.136 
z
" clip-path="url(#p27367302be)" style="fill: #7f7f7f; opacity: 0.5"/>
   </g>
   <g id="patch_109">
    <path d="M 300.834727 448.56 
L 302.527652 448.56 
L 302.527652 293.328 
L 300.834727 293.328 
z
" clip-path="url(#p27367302be)" style="fill: #7f7f7f; opacity: 0.5"/>
   </g>
   <g id="patch_110">
    <path d="M 302.950883 448.56 
L 304.643808 448.56 
L 304.643808 332.136 
L 302.950883 332.136 
z
" clip-path="url(#p27367302be)" style="fill: #7f7f7f; opacity: 0.5"/>
   </g>
   <g id="patch_111">
    <path d="M 305.067039 448.56 
L 306.759963 448.56 
L 306.759963 215.712 
L 305.067039 215.712 
z
" clip-path="url(#p27367302be)" style="fill: #7f7f7f; opacity: 0.5"/>
   </g>
   <g id="patch_112">
    <path d="M 307.183194 448.56 
L 308.876119 448.56 
L 308.876119 293.328 
L 307.183194 293.328 
z
" clip-path="url(#p27367302be)" style="fill: #7f7f7f; opacity: 0.5"/>
   </g>
   <g id="patch_113">
    <path d="M 309.29935 448.56 
L 310.992274 448.56 
L 310.992274 254.52 
L 309.29935 254.52 
z
" clip-path="url(#p27367302be)" style="fill: #7f7f7f; opacity: 0.5"/>
   </g>
   <g id="patch_114">
    <path d="M 311.415505 448.56 
L 313.10843 448.56 
L 313.10843 293.328 
L 311.415505 293.328 
z
" clip-path="url(#p27367302be)" style="fill: #7f7f7f; opacity: 0.5"/>
   </g>
   <g id="patch_115">
    <path d="M 313.531661 448.56 
L 315.224586 448.56 
L 315.224586 293.328 
L 313.531661 293.328 
z
" clip-path="url(#p27367302be)" style="fill: #7f7f7f; opacity: 0.5"/>
   </g>
   <g id="patch_116">
    <path d="M 315.647817 448.56 
L 317.340741 448.56 
L 317.340741 293.328 
L 315.647817 293.328 
z
" clip-path="url(#p27367302be)" style="fill: #7f7f7f; opacity: 0.5"/>
   </g>
   <g id="patch_117">
    <path d="M 317.763972 448.56 
L 319.456897 448.56 
L 319.456897 409.752 
L 317.763972 409.752 
z
" clip-path="url(#p27367302be)" style="fill: #7f7f7f; opacity: 0.5"/>
   </g>
   <g id="patch_118">
    <path d="M 319.880128 448.56 
L 321.573052 448.56 
L 321.573052 332.136 
L 319.880128 332.136 
z
" clip-path="url(#p27367302be)" style="fill: #7f7f7f; opacity: 0.5"/>
   </g>
   <g id="patch_119">
    <path d="M 321.996283 448.56 
L 323.689208 448.56 
L 323.689208 448.56 
L 321.996283 448.56 
z
" clip-path="url(#p27367302be)" style="fill: #7f7f7f; opacity: 0.5"/>
   </g>
   <g id="patch_120">
    <path d="M 324.112439 448.56 
L 325.805364 448.56 
L 325.805364 409.752 
L 324.112439 409.752 
z
" clip-path="url(#p27367302be)" style="fill: #7f7f7f; opacity: 0.5"/>
   </g>
   <g id="patch_121">
    <path d="M 326.228595 448.56 
L 327.921519 448.56 
L 327.921519 409.752 
L 326.228595 409.752 
z
" clip-path="url(#p27367302be)" style="fill: #7f7f7f; opacity: 0.5"/>
   </g>
   <g id="patch_122">
    <path d="M 328.34475 448.56 
L 330.037675 448.56 
L 330.037675 370.944 
L 328.34475 370.944 
z
" clip-path="url(#p27367302be)" style="fill: #7f7f7f; opacity: 0.5"/>
   </g>
   <g id="patch_123">
    <path d="M 330.460906 448.56 
L 332.15383 448.56 
L 332.15383 293.328 
L 330.460906 293.328 
z
" clip-path="url(#p27367302be)" style="fill: #7f7f7f; opacity: 0.5"/>
   </g>
   <g id="patch_124">
    <path d="M 332.577061 448.56 
L 334.269986 448.56 
L 334.269986 409.752 
L 332.577061 409.752 
z
" clip-path="url(#p27367302be)" style="fill: #7f7f7f; opacity: 0.5"/>
   </g>
   <g id="patch_125">
    <path d="M 334.693217 448.56 
L 336.386142 448.56 
L 336.386142 448.56 
L 334.693217 448.56 
z
" clip-path="url(#p27367302be)" style="fill: #7f7f7f; opacity: 0.5"/>
   </g>
   <g id="patch_126">
    <path d="M 336.809373 448.56 
L 338.502297 448.56 
L 338.502297 448.56 
L 336.809373 448.56 
z
" clip-path="url(#p27367302be)" style="fill: #7f7f7f; opacity: 0.5"/>
   </g>
   <g id="patch_127">
    <path d="M 338.925528 448.56 
L 340.618453 448.56 
L 340.618453 409.752 
L 338.925528 409.752 
z
" clip-path="url(#p27367302be)" style="fill: #7f7f7f; opacity: 0.5"/>
   </g>
   <g id="patch_128">
    <path d="M 341.041684 448.56 
L 342.734608 448.56 
L 342.734608 448.56 
L 341.041684 448.56 
z
" clip-path="url(#p27367302be)" style="fill: #7f7f7f; opacity: 0.5"/>
   </g>
   <g id="patch_129">
    <path d="M 343.157839 448.56 
L 344.850764 448.56 
L 344.850764 448.56 
L 343.157839 448.56 
z
" clip-path="url(#p27367302be)" style="fill: #7f7f7f; opacity: 0.5"/>
   </g>
   <g id="patch_130">
    <path d="M 345.273995 448.56 
L 346.966919 448.56 
L 346.966919 448.56 
L 345.273995 448.56 
z
" clip-path="url(#p27367302be)" style="fill: #7f7f7f; opacity: 0.5"/>
   </g>
   <g id="patch_131">
    <path d="M 347.390151 448.56 
L 349.083075 448.56 
L 349.083075 409.752 
L 347.390151 409.752 
z
" clip-path="url(#p27367302be)" style="fill: #7f7f7f; opacity: 0.5"/>
   </g>
   <g id="patch_132">
    <path d="M 349.506306 448.56 
L 351.199231 448.56 
L 351.199231 448.56 
L 349.506306 448.56 
z
" clip-path="url(#p27367302be)" style="fill: #7f7f7f; opacity: 0.5"/>
   </g>
   <g id="patch_133">
    <path d="M 351.622462 448.56 
L 353.315386 448.56 
L 353.315386 448.56 
L 351.622462 448.56 
z
" clip-path="url(#p27367302be)" style="fill: #7f7f7f; opacity: 0.5"/>
   </g>
   <g id="patch_134">
    <path d="M 353.738617 448.56 
L 355.431542 448.56 
L 355.431542 448.56 
L 353.738617 448.56 
z
" clip-path="url(#p27367302be)" style="fill: #7f7f7f; opacity: 0.5"/>
   </g>
   <g id="patch_135">
    <path d="M 355.854773 448.56 
L 357.547697 448.56 
L 357.547697 448.56 
L 355.854773 448.56 
z
" clip-path="url(#p27367302be)" style="fill: #7f7f7f; opacity: 0.5"/>
   </g>
   <g id="patch_136">
    <path d="M 357.970929 448.56 
L 359.663853 448.56 
L 359.663853 448.56 
L 357.970929 448.56 
z
" clip-path="url(#p27367302be)" style="fill: #7f7f7f; opacity: 0.5"/>
   </g>
   <g id="patch_137">
    <path d="M 360.087084 448.56 
L 361.780009 448.56 
L 361.780009 448.56 
L 360.087084 448.56 
z
" clip-path="url(#p27367302be)" style="fill: #7f7f7f; opacity: 0.5"/>
   </g>
   <g id="patch_138">
    <path d="M 362.20324 448.56 
L 363.896164 448.56 
L 363.896164 448.56 
L 362.20324 448.56 
z
" clip-path="url(#p27367302be)" style="fill: #7f7f7f; opacity: 0.5"/>
   </g>
   <g id="patch_139">
    <path d="M 364.319395 448.56 
L 366.01232 448.56 
L 366.01232 448.56 
L 364.319395 448.56 
z
" clip-path="url(#p27367302be)" style="fill: #7f7f7f; opacity: 0.5"/>
   </g>
   <g id="patch_140">
    <path d="M 366.435551 448.56 
L 368.128475 448.56 
L 368.128475 448.56 
L 366.435551 448.56 
z
" clip-path="url(#p27367302be)" style="fill: #7f7f7f; opacity: 0.5"/>
   </g>
   <g id="patch_141">
    <path d="M 368.551707 448.56 
L 370.244631 448.56 
L 370.244631 448.56 
L 368.551707 448.56 
z
" clip-path="url(#p27367302be)" style="fill: #7f7f7f; opacity: 0.5"/>
   </g>
   <g id="patch_142">
    <path d="M 370.667862 448.56 
L 372.360787 448.56 
L 372.360787 448.56 
L 370.667862 448.56 
z
" clip-path="url(#p27367302be)" style="fill: #7f7f7f; opacity: 0.5"/>
   </g>
   <g id="patch_143">
    <path d="M 372.784018 448.56 
L 374.476942 448.56 
L 374.476942 448.56 
L 372.784018 448.56 
z
" clip-path="url(#p27367302be)" style="fill: #7f7f7f; opacity: 0.5"/>
   </g>
   <g id="patch_144">
    <path d="M 374.900173 448.56 
L 376.593098 448.56 
L 376.593098 448.56 
L 374.900173 448.56 
z
" clip-path="url(#p27367302be)" style="fill: #7f7f7f; opacity: 0.5"/>
   </g>
   <g id="patch_145">
    <path d="M 377.016329 448.56 
L 378.709253 448.56 
L 378.709253 448.56 
L 377.016329 448.56 
z
" clip-path="url(#p27367302be)" style="fill: #7f7f7f; opacity: 0.5"/>
   </g>
   <g id="patch_146">
    <path d="M 379.132485 448.56 
L 380.825409 448.56 
L 380.825409 448.56 
L 379.132485 448.56 
z
" clip-path="url(#p27367302be)" style="fill: #7f7f7f; opacity: 0.5"/>
   </g>
   <g id="patch_147">
    <path d="M 381.24864 448.56 
L 382.941565 448.56 
L 382.941565 448.56 
L 381.24864 448.56 
z
" clip-path="url(#p27367302be)" style="fill: #7f7f7f; opacity: 0.5"/>
   </g>
   <g id="patch_148">
    <path d="M 383.364796 448.56 
L 385.05772 448.56 
L 385.05772 448.56 
L 383.364796 448.56 
z
" clip-path="url(#p27367302be)" style="fill: #7f7f7f; opacity: 0.5"/>
   </g>
   <g id="patch_149">
    <path d="M 385.480951 448.56 
L 387.173876 448.56 
L 387.173876 448.56 
L 385.480951 448.56 
z
" clip-path="url(#p27367302be)" style="fill: #7f7f7f; opacity: 0.5"/>
   </g>
   <g id="patch_150">
    <path d="M 387.597107 448.56 
L 389.290031 448.56 
L 389.290031 448.56 
L 387.597107 448.56 
z
" clip-path="url(#p27367302be)" style="fill: #7f7f7f; opacity: 0.5"/>
   </g>
   <g id="patch_151">
    <path d="M 389.713263 448.56 
L 391.406187 448.56 
L 391.406187 448.56 
L 389.713263 448.56 
z
" clip-path="url(#p27367302be)" style="fill: #7f7f7f; opacity: 0.5"/>
   </g>
   <g id="patch_152">
    <path d="M 391.829418 448.56 
L 393.522343 448.56 
L 393.522343 448.56 
L 391.829418 448.56 
z
" clip-path="url(#p27367302be)" style="fill: #7f7f7f; opacity: 0.5"/>
   </g>
   <g id="patch_153">
    <path d="M 393.945574 448.56 
L 395.638498 448.56 
L 395.638498 448.56 
L 393.945574 448.56 
z
" clip-path="url(#p27367302be)" style="fill: #7f7f7f; opacity: 0.5"/>
   </g>
   <g id="patch_154">
    <path d="M 396.061729 448.56 
L 397.754654 448.56 
L 397.754654 448.56 
L 396.061729 448.56 
z
" clip-path="url(#p27367302be)" style="fill: #7f7f7f; opacity: 0.5"/>
   </g>
   <g id="patch_155">
    <path d="M 398.177885 448.56 
L 399.870809 448.56 
L 399.870809 448.56 
L 398.177885 448.56 
z
" clip-path="url(#p27367302be)" style="fill: #7f7f7f; opacity: 0.5"/>
   </g>
   <g id="patch_156">
    <path d="M 400.294041 448.56 
L 401.986965 448.56 
L 401.986965 448.56 
L 400.294041 448.56 
z
" clip-path="url(#p27367302be)" style="fill: #7f7f7f; opacity: 0.5"/>
   </g>
   <g id="patch_157">
    <path d="M 402.410196 448.56 
L 404.103121 448.56 
L 404.103121 448.56 
L 402.410196 448.56 
z
" clip-path="url(#p27367302be)" style="fill: #7f7f7f; opacity: 0.5"/>
   </g>
   <g id="patch_158">
    <path d="M 404.526352 448.56 
L 406.219276 448.56 
L 406.219276 448.56 
L 404.526352 448.56 
z
" clip-path="url(#p27367302be)" style="fill: #7f7f7f; opacity: 0.5"/>
   </g>
   <g id="patch_159">
    <path d="M 406.642507 448.56 
L 408.335432 448.56 
L 408.335432 448.56 
L 406.642507 448.56 
z
" clip-path="url(#p27367302be)" style="fill: #7f7f7f; opacity: 0.5"/>
   </g>
   <g id="patch_160">
    <path d="M 408.758663 448.56 
L 410.451587 448.56 
L 410.451587 448.56 
L 408.758663 448.56 
z
" clip-path="url(#p27367302be)" style="fill: #7f7f7f; opacity: 0.5"/>
   </g>
   <g id="patch_161">
    <path d="M 410.874819 448.56 
L 412.567743 448.56 
L 412.567743 448.56 
L 410.874819 448.56 
z
" clip-path="url(#p27367302be)" style="fill: #7f7f7f; opacity: 0.5"/>
   </g>
   <g id="patch_162">
    <path d="M 412.990974 448.56 
L 414.683899 448.56 
L 414.683899 448.56 
L 412.990974 448.56 
z
" clip-path="url(#p27367302be)" style="fill: #7f7f7f; opacity: 0.5"/>
   </g>
   <g id="patch_163">
    <path d="M 415.10713 448.56 
L 416.800054 448.56 
L 416.800054 448.56 
L 415.10713 448.56 
z
" clip-path="url(#p27367302be)" style="fill: #7f7f7f; opacity: 0.5"/>
   </g>
   <g id="patch_164">
    <path d="M 417.223285 448.56 
L 418.91621 448.56 
L 418.91621 448.56 
L 417.223285 448.56 
z
" clip-path="url(#p27367302be)" style="fill: #7f7f7f; opacity: 0.5"/>
   </g>
   <g id="patch_165">
    <path d="M 419.339441 448.56 
L 421.032365 448.56 
L 421.032365 448.56 
L 419.339441 448.56 
z
" clip-path="url(#p27367302be)" style="fill: #7f7f7f; opacity: 0.5"/>
   </g>
   <g id="patch_166">
    <path d="M 421.455596 448.56 
L 423.148521 448.56 
L 423.148521 448.56 
L 421.455596 448.56 
z
" clip-path="url(#p27367302be)" style="fill: #7f7f7f; opacity: 0.5"/>
   </g>
   <g id="patch_167">
    <path d="M 423.571752 448.56 
L 425.264677 448.56 
L 425.264677 448.56 
L 423.571752 448.56 
z
" clip-path="url(#p27367302be)" style="fill: #7f7f7f; opacity: 0.5"/>
   </g>
   <g id="patch_168">
    <path d="M 425.687908 448.56 
L 427.380832 448.56 
L 427.380832 448.56 
L 425.687908 448.56 
z
" clip-path="url(#p27367302be)" style="fill: #7f7f7f; opacity: 0.5"/>
   </g>
   <g id="patch_169">
    <path d="M 427.804063 448.56 
L 429.496988 448.56 
L 429.496988 448.56 
L 427.804063 448.56 
z
" clip-path="url(#p27367302be)" style="fill: #7f7f7f; opacity: 0.5"/>
   </g>
   <g id="patch_170">
    <path d="M 429.920219 448.56 
L 431.613143 448.56 
L 431.613143 448.56 
L 429.920219 448.56 
z
" clip-path="url(#p27367302be)" style="fill: #7f7f7f; opacity: 0.5"/>
   </g>
   <g id="patch_171">
    <path d="M 432.036374 448.56 
L 433.729299 448.56 
L 433.729299 448.56 
L 432.036374 448.56 
z
" clip-path="url(#p27367302be)" style="fill: #7f7f7f; opacity: 0.5"/>
   </g>
   <g id="patch_172">
    <path d="M 434.15253 448.56 
L 435.845455 448.56 
L 435.845455 448.56 
L 434.15253 448.56 
z
" clip-path="url(#p27367302be)" style="fill: #7f7f7f; opacity: 0.5"/>
   </g>
   <g id="matplotlib.axis_3">
    <g id="ytick_7">
     <g id="line2d_15">
      <defs>
       <path id="m047c23e92b" d="M 0 0 
L 3.5 0 
" style="stroke: #7f7f7f; stroke-width: 0.8"/>
      </defs>
      <g>
       <use xlink:href="#m047c23e92b" x="453.6" y="448.56" style="fill: #7f7f7f; stroke: #7f7f7f; stroke-width: 0.8"/>
      </g>
     </g>
     <g id="text_14">
      <text style="font-size: 16px; font-family: 'Arial', sans-serif; text-anchor: start; fill: #7f7f7f" x="460.6" y="454.28625" transform="rotate(-0 460.6 454.28625)">0</text>
     </g>
    </g>
    <g id="ytick_8">
     <g id="line2d_16">
      <g>
       <use xlink:href="#m047c23e92b" x="453.6" y="370.944" style="fill: #7f7f7f; stroke: #7f7f7f; stroke-width: 0.8"/>
      </g>
     </g>
     <g id="text_15">
      <text style="font-size: 16px; font-family: 'Arial', sans-serif; text-anchor: start; fill: #7f7f7f" x="460.6" y="376.67025" transform="rotate(-0 460.6 376.67025)">2</text>
     </g>
    </g>
    <g id="ytick_9">
     <g id="line2d_17">
      <g>
       <use xlink:href="#m047c23e92b" x="453.6" y="293.328" style="fill: #7f7f7f; stroke: #7f7f7f; stroke-width: 0.8"/>
      </g>
     </g>
     <g id="text_16">
      <text style="font-size: 16px; font-family: 'Arial', sans-serif; text-anchor: start; fill: #7f7f7f" x="460.6" y="299.05425" transform="rotate(-0 460.6 299.05425)">4</text>
     </g>
    </g>
    <g id="ytick_10">
     <g id="line2d_18">
      <g>
       <use xlink:href="#m047c23e92b" x="453.6" y="215.712" style="fill: #7f7f7f; stroke: #7f7f7f; stroke-width: 0.8"/>
      </g>
     </g>
     <g id="text_17">
      <text style="font-size: 16px; font-family: 'Arial', sans-serif; text-anchor: start; fill: #7f7f7f" x="460.6" y="221.43825" transform="rotate(-0 460.6 221.43825)">6</text>
     </g>
    </g>
    <g id="ytick_11">
     <g id="line2d_19">
      <g>
       <use xlink:href="#m047c23e92b" x="453.6" y="138.096" style="fill: #7f7f7f; stroke: #7f7f7f; stroke-width: 0.8"/>
      </g>
     </g>
     <g id="text_18">
      <text style="font-size: 16px; font-family: 'Arial', sans-serif; text-anchor: start; fill: #7f7f7f" x="460.6" y="143.82225" transform="rotate(-0 460.6 143.82225)">8</text>
     </g>
    </g>
    <g id="ytick_12">
     <g id="line2d_20">
      <g>
       <use xlink:href="#m047c23e92b" x="453.6" y="60.48" style="fill: #7f7f7f; stroke: #7f7f7f; stroke-width: 0.8"/>
      </g>
     </g>
     <g id="text_19">
      <text style="font-size: 16px; font-family: 'Arial', sans-serif; text-anchor: start; fill: #7f7f7f" x="460.6" y="66.20625" transform="rotate(-0 460.6 66.20625)">10</text>
     </g>
    </g>
    <g id="text_20">
     <text style="font-size: 16px; font-family: 'Arial', sans-serif; text-anchor: middle; fill: #7f7f7f" x="493.8475" y="254.52" transform="rotate(-90 493.8475 254.52)">Number of cases</text>
    </g>
   </g>
   <g id="patch_173">
    <path d="M 453.6 448.56 
L 453.6 60.48 
" style="fill: none; stroke: #7f7f7f; stroke-width: 0.8; stroke-linejoin: miter; stroke-linecap: square"/>
   </g>
  </g>
 </g>
 <defs>
  <clipPath id="p27367302be">
   <rect x="63" y="60.48" width="390.6" height="388.08"/>
  </clipPath>
 </defs>
</svg>
