<?xml version="1.0" encoding="utf-8" standalone="no"?>
<!DOCTYPE svg PUBLIC "-//W3C//DTD SVG 1.1//EN"
  "http://www.w3.org/Graphics/SVG/1.1/DTD/svg11.dtd">
<svg xmlns:xlink="http://www.w3.org/1999/xlink" width="504pt" height="504pt" viewBox="0 0 504 504" xmlns="http://www.w3.org/2000/svg" version="1.1">
 <metadata>
  <rdf:RDF xmlns:dc="http://purl.org/dc/elements/1.1/" xmlns:cc="http://creativecommons.org/ns#" xmlns:rdf="http://www.w3.org/1999/02/22-rdf-syntax-ns#">
   <cc:Work>
    <dc:type rdf:resource="http://purl.org/dc/dcmitype/StillImage"/>
    <dc:date>2026-02-16T16:41:50.049888</dc:date>
    <dc:format>image/svg+xml</dc:format>
    <dc:creator>
     <cc:Agent>
      <dc:title>Matplotlib v3.10.8, https://matplotlib.org/</dc:title>
     </cc:Agent>
    </dc:creator>
   </cc:Work>
  </rdf:RDF>
 </metadata>
 <defs>
  <style type="text/css">*{stroke-linejoin: round; stroke-linecap: butt}</style>
 </defs>
 <g id="figure_1">
  <g id="patch_1">
   <path d="M 0 504 
L 504 504 
L 504 0 
L 0 0 
L 0 504 
z
" style="fill: none"/>
  </g>
  <g id="axes_1">
   <g id="patch_2">
    <path d="M 63 448.56 
L 453.6 448.56 
L 453.6 60.48 
L 63 60.48 
L 63 448.56 
z
" style="fill: none"/>
   </g>
   <g id="matplotlib.axis_1">
    <g id="xtick_1">
     <g id="line2d_1">
      <defs>
       <path id="m03f576654b" d="M 0 0 
L 0 3.5 
" style="stroke: #000000; stroke-width: 0.8"/>
      </defs>
      <g>
       <use xlink:href="#m03f576654b" x="80.754545" y="448.56" style="stroke: #000000; stroke-width: 0.8"/>
      </g>
     </g>
     <g id="text_1">
      <text style="font-size: 16px; font-family: 'Arial', sans-serif; text-anchor: middle" x="80.754545" y="467.0125" transform="rotate(-0 80.754545 467.0125)">1 Jan</text>
     </g>
    </g>
    <g id="xtick_2">
     <g id="line2d_2">
      <g>
       <use xlink:href="#m03f576654b" x="110.995804" y="448.56" style="stroke: #000000; stroke-width: 0.8"/>
      </g>
     </g>
    </g>
    <g id="xtick_3">
     <g id="line2d_3">
      <g>
       <use xlink:href="#m03f576654b" x="138.31049" y="448.56" style="stroke: #000000; stroke-width: 0.8"/>
      </g>
     </g>
     <g id="text_2">
      <text style="font-size: 16px; font-family: 'Arial', sans-serif; text-anchor: middle" x="138.31049" y="467.0125" transform="rotate(-0 138.31049 467.0125)">1 Mar</text>
     </g>
    </g>
    <g id="xtick_4">
     <g id="line2d_4">
      <g>
       <use xlink:href="#m03f576654b" x="168.551748" y="448.56" style="stroke: #000000; stroke-width: 0.8"/>
      </g>
     </g>
    </g>
    <g id="xtick_5">
     <g id="line2d_5">
      <g>
       <use xlink:href="#m03f576654b" x="197.817483" y="448.56" style="stroke: #000000; stroke-width: 0.8"/>
      </g>
     </g>
     <g id="text_3">
      <text style="font-size: 16px; font-family: 'Arial', sans-serif; text-anchor: middle" x="197.817483" y="467.06" transform="rotate(-0 197.817483 467.06)">1 May</text>
     </g>
    </g>
    <g id="xtick_6">
     <g id="line2d_6">
      <g>
       <use xlink:href="#m03f576654b" x="228.058741" y="448.56" style="stroke: #000000; stroke-width: 0.8"/>
      </g>
     </g>
    </g>
    <g id="xtick_7">
     <g id="line2d_7">
      <g>
       <use xlink:href="#m03f576654b" x="257.324476" y="448.56" style="stroke: #000000; stroke-width: 0.8"/>
      </g>
     </g>
     <g id="text_4">
      <text style="font-size: 16px; font-family: 'Arial', sans-serif; text-anchor: middle" x="257.324476" y="467.0125" transform="rotate(-0 257.324476 467.0125)">1 Jul</text>
     </g>
    </g>
    <g id="xtick_8">
     <g id="line2d_8">
      <g>
       <use xlink:href="#m03f576654b" x="287.565734" y="448.56" style="stroke: #000000; stroke-width: 0.8"/>
      </g>
     </g>
    </g>
    <g id="xtick_9">
     <g id="line2d_9">
      <g>
       <use xlink:href="#m03f576654b" x="317.806993" y="448.56" style="stroke: #000000; stroke-width: 0.8"/>
      </g>
     </g>
     <g id="text_5">
      <text style="font-size: 16px; font-family: 'Arial', sans-serif; text-anchor: middle" x="317.806993" y="467.2075" transform="rotate(-0 317.806993 467.2075)">1 Sep</text>
     </g>
    </g>
    <g id="xtick_10">
     <g id="line2d_10">
      <g>
       <use xlink:href="#m03f576654b" x="347.072727" y="448.56" style="stroke: #000000; stroke-width: 0.8"/>
      </g>
     </g>
    </g>
    <g id="xtick_11">
     <g id="line2d_11">
      <g>
       <use xlink:href="#m03f576654b" x="377.313986" y="448.56" style="stroke: #000000; stroke-width: 0.8"/>
      </g>
     </g>
     <g id="text_6">
      <text style="font-size: 16px; font-family: 'Arial', sans-serif; text-anchor: middle" x="377.313986" y="467.0125" transform="rotate(-0 377.313986 467.0125)">1 Nov</text>
     </g>
    </g>
    <g id="xtick_12">
     <g id="line2d_12">
      <g>
       <use xlink:href="#m03f576654b" x="406.57972" y="448.56" style="stroke: #000000; stroke-width: 0.8"/>
      </g>
     </g>
    </g>
    <g id="xtick_13">
     <g id="line2d_13">
      <g>
       <use xlink:href="#m03f576654b" x="436.820979" y="448.56" style="stroke: #000000; stroke-width: 0.8"/>
      </g>
     </g>
     <g id="text_7">
      <text style="font-size: 16px; font-family: 'Arial', sans-serif; text-anchor: middle" x="436.820979" y="467.0125" transform="rotate(-0 436.820979 467.0125)">1 Jan</text>
     </g>
    </g>
   </g>
   <g id="matplotlib.axis_2">
    <g id="ytick_1">
     <g id="line2d_14">
      <defs>
       <path id="m8164521b87" d="M 0 0 
L -3.5 0 
" style="stroke: #000000; stroke-width: 0.8"/>
      </defs>
      <g>
       <use xlink:href="#m8164521b87" x="63" y="448.56" style="stroke: #000000; stroke-width: 0.8"/>
      </g>
     </g>
     <g id="text_8">
      <text style="font-size: 16px; font-family: 'Arial', sans-serif; text-anchor: end" x="56" y="454.28625" transform="rotate(-0 56 454.28625)">0.00</text>
     </g>
    </g>
    <g id="ytick_2">
     <g id="line2d_15">
      <g>
       <use xlink:href="#m8164521b87" x="63" y="400.05" style="stroke: #000000; stroke-width: 0.8"/>
      </g>
     </g>
     <g id="text_9">
      <text style="font-size: 16px; font-family: 'Arial', sans-serif; text-anchor: end" x="56" y="405.77625" transform="rotate(-0 56 405.77625)">0.25</text>
     </g>
    </g>
    <g id="ytick_3">
     <g id="line2d_16">
      <g>
       <use xlink:href="#m8164521b87" x="63" y="351.54" style="stroke: #000000; stroke-width: 0.8"/>
      </g>
     </g>
     <g id="text_10">
      <text style="font-size: 16px; font-family: 'Arial', sans-serif; text-anchor: end" x="56" y="357.26625" transform="rotate(-0 56 357.26625)">0.50</text>
     </g>
    </g>
    <g id="ytick_4">
     <g id="line2d_17">
      <g>
       <use xlink:href="#m8164521b87" x="63" y="303.03" style="stroke: #000000; stroke-width: 0.8"/>
      </g>
     </g>
     <g id="text_11">
      <text style="font-size: 16px; font-family: 'Arial', sans-serif; text-anchor: end" x="56" y="308.75625" transform="rotate(-0 56 308.75625)">0.75</text>
     </g>
    </g>
    <g id="ytick_5">
     <g id="line2d_18">
      <g>
       <use xlink:href="#m8164521b87" x="63" y="254.52" style="stroke: #000000; stroke-width: 0.8"/>
      </g>
     </g>
     <g id="text_12">
      <text style="font-size: 16px; font-family: 'Arial', sans-serif; text-anchor: end" x="56" y="260.24625" transform="rotate(-0 56 260.24625)">1.00</text>
     </g>
    </g>
    <g id="ytick_6">
     <g id="line2d_19">
      <g>
       <use xlink:href="#m8164521b87" x="63" y="206.01" style="stroke: #000000; stroke-width: 0.8"/>
      </g>
     </g>
     <g id="text_13">
      <text style="font-size: 16px; font-family: 'Arial', sans-serif; text-anchor: end" x="56" y="211.73625" transform="rotate(-0 56 211.73625)">1.25</text>
     </g>
    </g>
    <g id="ytick_7">
     <g id="line2d_20">
      <g>
       <use xlink:href="#m8164521b87" x="63" y="157.5" style="stroke: #000000; stroke-width: 0.8"/>
      </g>
     </g>
     <g id="text_14">
      <text style="font-size: 16px; font-family: 'Arial', sans-serif; text-anchor: end" x="56" y="163.22625" transform="rotate(-0 56 163.22625)">1.50</text>
     </g>
    </g>
    <g id="ytick_8">
     <g id="line2d_21">
      <g>
       <use xlink:href="#m8164521b87" x="63" y="108.99" style="stroke: #000000; stroke-width: 0.8"/>
      </g>
     </g>
     <g id="text_15">
      <text style="font-size: 16px; font-family: 'Arial', sans-serif; text-anchor: end" x="56" y="114.71625" transform="rotate(-0 56 114.71625)">1.75</text>
     </g>
    </g>
    <g id="ytick_9">
     <g id="line2d_22">
      <g>
       <use xlink:href="#m8164521b87" x="63" y="60.48" style="stroke: #000000; stroke-width: 0.8"/>
      </g>
     </g>
     <g id="text_16">
      <text style="font-size: 16px; font-family: 'Arial', sans-serif; text-anchor: end" x="56" y="66.20625" transform="rotate(-0 56 66.20625)">2.00</text>
     </g>
    </g>
    <g id="text_17">
     <text style="font-size: 16px; font-family: 'Arial', sans-serif; text-anchor: middle" x="17.6825" y="254.52" transform="rotate(-90 17.6825 254.52)">Time-dependent reproduction number</text>
    </g>
   </g>
   <g id="line2d_23">
    <path d="M 80.754545 448.56 
L 193.915385 448.48284 
L 197.817483 448.25237 
L 200.744056 447.826315 
L 202.695105 447.324088 
L 204.646154 446.556381 
L 206.597203 445.416059 
L 207.572727 444.675712 
L 208.548252 443.79266 
L 209.523776 442.746885 
L 211.474825 440.110484 
L 212.45035 438.482951 
L 213.425874 436.606781 
L 215.376923 432.039516 
L 216.352448 429.30362 
L 217.327972 426.216531 
L 219.279021 418.885922 
L 221.23007 409.8952 
L 223.181119 399.015195 
L 225.132168 386.152164 
L 227.083217 371.343342 
L 229.034266 354.622121 
L 230.985315 335.844025 
L 232.936364 315.232006 
L 235.862937 281.833714 
L 238.78951 246.308604 
L 242.691608 198.624633 
L 245.618182 164.467717 
L 247.569231 143.857761 
L 249.52028 125.510401 
L 251.471329 108.751771 
L 253.422378 94.730474 
L 255.373427 82.94827 
L 257.324476 73.747667 
L 258.3 70.073624 
L 259.275524 67.061892 
L 260.251049 64.714671 
L 261.226573 63.068778 
L 262.202098 61.835535 
L 263.177622 60.797412 
L 264.153147 60.577652 
L 265.128671 60.502805 
L 266.104196 60.802191 
L 267.07972 61.375126 
L 268.055245 62.151375 
L 270.006294 64.910781 
L 272.932867 69.559586 
L 275.859441 75.059795 
L 279.761538 80.67706 
L 280.737063 81.888208 
L 282.688112 83.818656 
L 283.663636 84.546646 
L 284.639161 85.070556 
L 285.614685 85.389596 
L 286.59021 85.503088 
L 287.565734 85.410467 
L 288.541259 85.111278 
L 289.516783 84.605183 
L 290.492308 83.891954 
L 292.443357 81.969555 
L 293.418881 80.758011 
L 297.320979 75.064703 
L 298.296503 73.326433 
L 300.247552 69.470157 
L 304.14965 63.236637 
L 305.125175 62.001118 
L 306.100699 61.191367 
L 307.076224 60.670371 
L 308.051748 60.522285 
L 309.027273 60.651412 
L 310.002797 61.08496 
L 311.953846 63.654366 
L 312.929371 65.763692 
L 313.904895 68.6304 
L 314.88042 72.163409 
L 315.855944 76.542802 
L 316.831469 81.441012 
L 317.806993 87.123412 
L 319.758042 100.635017 
L 320.733566 108.339802 
L 322.684615 126.175469 
L 324.635664 145.941372 
L 327.562238 180.30777 
L 332.43986 244.433707 
L 335.366434 283.205807 
L 338.293007 319.632627 
L 340.244056 341.903167 
L 342.195105 361.885397 
L 344.146154 379.532938 
L 346.097203 394.821129 
L 348.048252 407.707155 
L 349.999301 418.168369 
L 351.95035 426.537617 
L 352.925874 429.993897 
L 354.876923 435.611897 
L 355.852448 437.91227 
L 356.827972 439.848795 
L 357.803497 441.491883 
L 358.779021 442.90117 
L 359.754545 444.078085 
L 360.73007 445.04541 
L 362.681119 446.461661 
L 364.632168 447.372493 
L 366.583217 447.922212 
L 368.534266 448.241626 
L 371.460839 448.465839 
L 376.338462 448.554401 
L 413.408392 448.56 
L 435.845455 448.56 
L 435.845455 448.56 
" clip-path="url(#p325d6e0b13)" style="fill: none; stroke: #0173b2; stroke-width: 2; stroke-linecap: square"/>
   </g>
   <g id="line2d_24">
    <defs>
     <path id="m60bb804470" d="M 0 4 
C 1.060812 4 2.078319 3.578535 2.828427 2.828427 
C 3.578535 2.078319 4 1.060812 4 0 
C 4 -1.060812 3.578535 -2.078319 2.828427 -2.828427 
C 2.078319 -3.578535 1.060812 -4 0 -4 
C -1.060812 -4 -2.078319 -3.578535 -2.828427 -2.828427 
C -3.578535 -2.078319 -4 -1.060812 -4 0 
C -4 1.060812 -3.578535 2.078319 -2.828427 2.828427 
C -2.078319 3.578535 -1.060812 4 0 4 
z
" style="stroke: #de8f05"/>
    </defs>
    <g clip-path="url(#p325d6e0b13)">
     <use xlink:href="#m60bb804470" x="241.716084" y="210.206488" style="fill: #de8f05; stroke: #de8f05"/>
     <use xlink:href="#m60bb804470" x="329.513287" y="205.469558" style="fill: #de8f05; stroke: #de8f05"/>
    </g>
   </g>
   <g id="patch_3">
    <path d="M 63 448.56 
L 63 60.48 
" style="fill: none; stroke: #000000; stroke-width: 0.8; stroke-linejoin: miter; stroke-linecap: square"/>
   </g>
   <g id="patch_4">
    <path d="M 63 448.56 
L 453.6 448.56 
" style="fill: none; stroke: #000000; stroke-width: 0.8; stroke-linejoin: miter; stroke-linecap: square"/>
   </g>
  </g>
 </g>
 <defs>
  <clipPath id="p325d6e0b13">
   <rect x="63" y="60.48" width="390.6" height="388.08"/>
  </clipPath>
 </defs>
</svg>
