<?xml version="1.0" encoding="utf-8" standalone="no"?>
<!DOCTYPE svg PUBLIC "-//W3C//DTD SVG 1.1//EN"
  "http://www.w3.org/Graphics/SVG/1.1/DTD/svg11.dtd">
<svg xmlns:xlink="http://www.w3.org/1999/xlink" width="504pt" height="504pt" viewBox="0 0 504 504" xmlns="http://www.w3.org/2000/svg" version="1.1">
 <metadata>
  <rdf:RDF xmlns:dc="http://purl.org/dc/elements/1.1/" xmlns:cc="http://creativecommons.org/ns#" xmlns:rdf="http://www.w3.org/1999/02/22-rdf-syntax-ns#">
   <cc:Work>
    <dc:type rdf:resource="http://purl.org/dc/dcmitype/StillImage"/>
    <dc:date>2026-07-08T17:33:02.074063</dc:date>
    <dc:format>image/svg+xml</dc:format>
    <dc:creator>
     <cc:Agent>
      <dc:title>Matplotlib v3.11.0, https://matplotlib.org/</dc:title>
     </cc:Agent>
    </dc:creator>
   </cc:Work>
  </rdf:RDF>
 </metadata>
 <defs>
  <style type="text/css">*{stroke-linejoin: round; stroke-linecap: butt}</style>
 </defs>
 <g id="figure_1">
  <g id="patch_1">
   <path d="M 0 504 
L 504 504 
L 504 0 
L 0 0 
L 0 504 
z
" style="fill: none"/>
  </g>
  <g id="axes_1">
   <g id="patch_2">
    <path d="M 63 448.56 
L 453.6 448.56 
L 453.6 60.48 
L 63 60.48 
L 63 448.56 
z
" style="fill: none"/>
   </g>
   <g id="matplotlib.axis_1">
    <g id="ytick_1">
     <g id="line2d_1">
      <defs>
       <path id="mb6cc2d16a5" d="M 0 0 
L 3.5 0 
" style="stroke: #7f7f7f; stroke-width: 0.8"/>
      </defs>
      <g>
       <use xlink:href="#mb6cc2d16a5" x="453.6" y="448.56" style="fill: #7f7f7f; stroke: #7f7f7f; stroke-width: 0.8"/>
      </g>
     </g>
     <g id="text_1">
      <text style="font-size: 16px; font-family: 'Arial', sans-serif; text-anchor: start; fill: #7f7f7f" x="460.6" y="454.638125" transform="rotate(-0 460.6 454.638125)">0</text>
     </g>
    </g>
    <g id="ytick_2">
     <g id="line2d_2">
      <g>
       <use xlink:href="#mb6cc2d16a5" x="453.6" y="396.816" style="fill: #7f7f7f; stroke: #7f7f7f; stroke-width: 0.8"/>
      </g>
     </g>
     <g id="text_2">
      <text style="font-size: 16px; font-family: 'Arial', sans-serif; text-anchor: start; fill: #7f7f7f" x="460.6" y="402.894125" transform="rotate(-0 460.6 402.894125)">2</text>
     </g>
    </g>
    <g id="ytick_3">
     <g id="line2d_3">
      <g>
       <use xlink:href="#mb6cc2d16a5" x="453.6" y="345.072" style="fill: #7f7f7f; stroke: #7f7f7f; stroke-width: 0.8"/>
      </g>
     </g>
     <g id="text_3">
      <text style="font-size: 16px; font-family: 'Arial', sans-serif; text-anchor: start; fill: #7f7f7f" x="460.6" y="351.150125" transform="rotate(-0 460.6 351.150125)">4</text>
     </g>
    </g>
    <g id="ytick_4">
     <g id="line2d_4">
      <g>
       <use xlink:href="#mb6cc2d16a5" x="453.6" y="293.328" style="fill: #7f7f7f; stroke: #7f7f7f; stroke-width: 0.8"/>
      </g>
     </g>
     <g id="text_4">
      <text style="font-size: 16px; font-family: 'Arial', sans-serif; text-anchor: start; fill: #7f7f7f" x="460.6" y="299.406125" transform="rotate(-0 460.6 299.406125)">6</text>
     </g>
    </g>
    <g id="ytick_5">
     <g id="line2d_5">
      <g>
       <use xlink:href="#mb6cc2d16a5" x="453.6" y="241.584" style="fill: #7f7f7f; stroke: #7f7f7f; stroke-width: 0.8"/>
      </g>
     </g>
     <g id="text_5">
      <text style="font-size: 16px; font-family: 'Arial', sans-serif; text-anchor: start; fill: #7f7f7f" x="460.6" y="247.662125" transform="rotate(-0 460.6 247.662125)">8</text>
     </g>
    </g>
    <g id="ytick_6">
     <g id="line2d_6">
      <g>
       <use xlink:href="#mb6cc2d16a5" x="453.6" y="189.84" style="fill: #7f7f7f; stroke: #7f7f7f; stroke-width: 0.8"/>
      </g>
     </g>
     <g id="text_6">
      <text style="font-size: 16px; font-family: 'Arial', sans-serif; text-anchor: start; fill: #7f7f7f" x="460.6" y="195.918125" transform="rotate(-0 460.6 195.918125)">10</text>
     </g>
    </g>
    <g id="ytick_7">
     <g id="line2d_7">
      <g>
       <use xlink:href="#mb6cc2d16a5" x="453.6" y="138.096" style="fill: #7f7f7f; stroke: #7f7f7f; stroke-width: 0.8"/>
      </g>
     </g>
     <g id="text_7">
      <text style="font-size: 16px; font-family: 'Arial', sans-serif; text-anchor: start; fill: #7f7f7f" x="460.6" y="144.174125" transform="rotate(-0 460.6 144.174125)">12</text>
     </g>
    </g>
    <g id="ytick_8">
     <g id="line2d_8">
      <g>
       <use xlink:href="#mb6cc2d16a5" x="453.6" y="86.352" style="fill: #7f7f7f; stroke: #7f7f7f; stroke-width: 0.8"/>
      </g>
     </g>
     <g id="text_8">
      <text style="font-size: 16px; font-family: 'Arial', sans-serif; text-anchor: start; fill: #7f7f7f" x="460.6" y="92.430125" transform="rotate(-0 460.6 92.430125)">14</text>
     </g>
    </g>
    <g id="text_9">
     <text style="font-size: 16px; font-family: 'Arial', sans-serif; text-anchor: middle; fill: #7f7f7f" x="497.1175" y="254.52" transform="rotate(-90 497.1175 254.52)">Number of cases</text>
    </g>
   </g>
   <g id="patch_3">
    <path d="M 80.754545 448.56 
L 82.389026 448.56 
L 82.389026 396.816 
L 80.754545 396.816 
z
" clip-path="url(#peb633ac6f1)" style="fill: #7f7f7f; opacity: 0.5"/>
   </g>
   <g id="patch_4">
    <path d="M 82.797646 448.56 
L 84.432127 448.56 
L 84.432127 396.816 
L 82.797646 396.816 
z
" clip-path="url(#peb633ac6f1)" style="fill: #7f7f7f; opacity: 0.5"/>
   </g>
   <g id="patch_5">
    <path d="M 84.840747 448.56 
L 86.475228 448.56 
L 86.475228 396.816 
L 84.840747 396.816 
z
" clip-path="url(#peb633ac6f1)" style="fill: #7f7f7f; opacity: 0.5"/>
   </g>
   <g id="patch_6">
    <path d="M 86.883848 448.56 
L 88.518328 448.56 
L 88.518328 448.56 
L 86.883848 448.56 
z
" clip-path="url(#peb633ac6f1)" style="fill: #7f7f7f; opacity: 0.5"/>
   </g>
   <g id="patch_7">
    <path d="M 88.926948 448.56 
L 90.561429 448.56 
L 90.561429 448.56 
L 88.926948 448.56 
z
" clip-path="url(#peb633ac6f1)" style="fill: #7f7f7f; opacity: 0.5"/>
   </g>
   <g id="patch_8">
    <path d="M 90.970049 448.56 
L 92.60453 448.56 
L 92.60453 448.56 
L 90.970049 448.56 
z
" clip-path="url(#peb633ac6f1)" style="fill: #7f7f7f; opacity: 0.5"/>
   </g>
   <g id="patch_9">
    <path d="M 93.01315 448.56 
L 94.647631 448.56 
L 94.647631 448.56 
L 93.01315 448.56 
z
" clip-path="url(#peb633ac6f1)" style="fill: #7f7f7f; opacity: 0.5"/>
   </g>
   <g id="patch_10">
    <path d="M 95.056251 448.56 
L 96.690731 448.56 
L 96.690731 448.56 
L 95.056251 448.56 
z
" clip-path="url(#peb633ac6f1)" style="fill: #7f7f7f; opacity: 0.5"/>
   </g>
   <g id="patch_11">
    <path d="M 97.099351 448.56 
L 98.733832 448.56 
L 98.733832 448.56 
L 97.099351 448.56 
z
" clip-path="url(#peb633ac6f1)" style="fill: #7f7f7f; opacity: 0.5"/>
   </g>
   <g id="patch_12">
    <path d="M 99.142452 448.56 
L 100.776933 448.56 
L 100.776933 422.688 
L 99.142452 422.688 
z
" clip-path="url(#peb633ac6f1)" style="fill: #7f7f7f; opacity: 0.5"/>
   </g>
   <g id="patch_13">
    <path d="M 101.185553 448.56 
L 102.820033 448.56 
L 102.820033 448.56 
L 101.185553 448.56 
z
" clip-path="url(#peb633ac6f1)" style="fill: #7f7f7f; opacity: 0.5"/>
   </g>
   <g id="patch_14">
    <path d="M 103.228654 448.56 
L 104.863134 448.56 
L 104.863134 448.56 
L 103.228654 448.56 
z
" clip-path="url(#peb633ac6f1)" style="fill: #7f7f7f; opacity: 0.5"/>
   </g>
   <g id="patch_15">
    <path d="M 105.271754 448.56 
L 106.906235 448.56 
L 106.906235 448.56 
L 105.271754 448.56 
z
" clip-path="url(#peb633ac6f1)" style="fill: #7f7f7f; opacity: 0.5"/>
   </g>
   <g id="patch_16">
    <path d="M 107.314855 448.56 
L 108.949336 448.56 
L 108.949336 448.56 
L 107.314855 448.56 
z
" clip-path="url(#peb633ac6f1)" style="fill: #7f7f7f; opacity: 0.5"/>
   </g>
   <g id="patch_17">
    <path d="M 109.357956 448.56 
L 110.992436 448.56 
L 110.992436 448.56 
L 109.357956 448.56 
z
" clip-path="url(#peb633ac6f1)" style="fill: #7f7f7f; opacity: 0.5"/>
   </g>
   <g id="patch_18">
    <path d="M 111.401057 448.56 
L 113.035537 448.56 
L 113.035537 448.56 
L 111.401057 448.56 
z
" clip-path="url(#peb633ac6f1)" style="fill: #7f7f7f; opacity: 0.5"/>
   </g>
   <g id="patch_19">
    <path d="M 113.444157 448.56 
L 115.078638 448.56 
L 115.078638 448.56 
L 113.444157 448.56 
z
" clip-path="url(#peb633ac6f1)" style="fill: #7f7f7f; opacity: 0.5"/>
   </g>
   <g id="patch_20">
    <path d="M 115.487258 448.56 
L 117.121739 448.56 
L 117.121739 448.56 
L 115.487258 448.56 
z
" clip-path="url(#peb633ac6f1)" style="fill: #7f7f7f; opacity: 0.5"/>
   </g>
   <g id="patch_21">
    <path d="M 117.530359 448.56 
L 119.164839 448.56 
L 119.164839 448.56 
L 117.530359 448.56 
z
" clip-path="url(#peb633ac6f1)" style="fill: #7f7f7f; opacity: 0.5"/>
   </g>
   <g id="patch_22">
    <path d="M 119.57346 448.56 
L 121.20794 448.56 
L 121.20794 422.688 
L 119.57346 422.688 
z
" clip-path="url(#peb633ac6f1)" style="fill: #7f7f7f; opacity: 0.5"/>
   </g>
   <g id="patch_23">
    <path d="M 121.61656 448.56 
L 123.251041 448.56 
L 123.251041 448.56 
L 121.61656 448.56 
z
" clip-path="url(#peb633ac6f1)" style="fill: #7f7f7f; opacity: 0.5"/>
   </g>
   <g id="patch_24">
    <path d="M 123.659661 448.56 
L 125.294142 448.56 
L 125.294142 448.56 
L 123.659661 448.56 
z
" clip-path="url(#peb633ac6f1)" style="fill: #7f7f7f; opacity: 0.5"/>
   </g>
   <g id="patch_25">
    <path d="M 125.702762 448.56 
L 127.337242 448.56 
L 127.337242 422.688 
L 125.702762 422.688 
z
" clip-path="url(#peb633ac6f1)" style="fill: #7f7f7f; opacity: 0.5"/>
   </g>
   <g id="patch_26">
    <path d="M 127.745863 448.56 
L 129.380343 448.56 
L 129.380343 448.56 
L 127.745863 448.56 
z
" clip-path="url(#peb633ac6f1)" style="fill: #7f7f7f; opacity: 0.5"/>
   </g>
   <g id="patch_27">
    <path d="M 129.788963 448.56 
L 131.423444 448.56 
L 131.423444 422.688 
L 129.788963 422.688 
z
" clip-path="url(#peb633ac6f1)" style="fill: #7f7f7f; opacity: 0.5"/>
   </g>
   <g id="patch_28">
    <path d="M 131.832064 448.56 
L 133.466545 448.56 
L 133.466545 448.56 
L 131.832064 448.56 
z
" clip-path="url(#peb633ac6f1)" style="fill: #7f7f7f; opacity: 0.5"/>
   </g>
   <g id="patch_29">
    <path d="M 133.875165 448.56 
L 135.509645 448.56 
L 135.509645 422.688 
L 133.875165 422.688 
z
" clip-path="url(#peb633ac6f1)" style="fill: #7f7f7f; opacity: 0.5"/>
   </g>
   <g id="patch_30">
    <path d="M 135.918266 448.56 
L 137.552746 448.56 
L 137.552746 448.56 
L 135.918266 448.56 
z
" clip-path="url(#peb633ac6f1)" style="fill: #7f7f7f; opacity: 0.5"/>
   </g>
   <g id="patch_31">
    <path d="M 137.961366 448.56 
L 139.595847 448.56 
L 139.595847 422.688 
L 137.961366 422.688 
z
" clip-path="url(#peb633ac6f1)" style="fill: #7f7f7f; opacity: 0.5"/>
   </g>
   <g id="patch_32">
    <path d="M 140.004467 448.56 
L 141.638948 448.56 
L 141.638948 422.688 
L 140.004467 422.688 
z
" clip-path="url(#peb633ac6f1)" style="fill: #7f7f7f; opacity: 0.5"/>
   </g>
   <g id="patch_33">
    <path d="M 142.047568 448.56 
L 143.682048 448.56 
L 143.682048 448.56 
L 142.047568 448.56 
z
" clip-path="url(#peb633ac6f1)" style="fill: #7f7f7f; opacity: 0.5"/>
   </g>
   <g id="patch_34">
    <path d="M 144.090668 448.56 
L 145.725149 448.56 
L 145.725149 422.688 
L 144.090668 422.688 
z
" clip-path="url(#peb633ac6f1)" style="fill: #7f7f7f; opacity: 0.5"/>
   </g>
   <g id="patch_35">
    <path d="M 146.133769 448.56 
L 147.76825 448.56 
L 147.76825 422.688 
L 146.133769 422.688 
z
" clip-path="url(#peb633ac6f1)" style="fill: #7f7f7f; opacity: 0.5"/>
   </g>
   <g id="patch_36">
    <path d="M 148.17687 448.56 
L 149.811351 448.56 
L 149.811351 448.56 
L 148.17687 448.56 
z
" clip-path="url(#peb633ac6f1)" style="fill: #7f7f7f; opacity: 0.5"/>
   </g>
   <g id="patch_37">
    <path d="M 150.219971 448.56 
L 151.854451 448.56 
L 151.854451 422.688 
L 150.219971 422.688 
z
" clip-path="url(#peb633ac6f1)" style="fill: #7f7f7f; opacity: 0.5"/>
   </g>
   <g id="patch_38">
    <path d="M 152.263071 448.56 
L 153.897552 448.56 
L 153.897552 448.56 
L 152.263071 448.56 
z
" clip-path="url(#peb633ac6f1)" style="fill: #7f7f7f; opacity: 0.5"/>
   </g>
   <g id="patch_39">
    <path d="M 154.306172 448.56 
L 155.940653 448.56 
L 155.940653 448.56 
L 154.306172 448.56 
z
" clip-path="url(#peb633ac6f1)" style="fill: #7f7f7f; opacity: 0.5"/>
   </g>
   <g id="patch_40">
    <path d="M 156.349273 448.56 
L 157.983754 448.56 
L 157.983754 370.944 
L 156.349273 370.944 
z
" clip-path="url(#peb633ac6f1)" style="fill: #7f7f7f; opacity: 0.5"/>
   </g>
   <g id="patch_41">
    <path d="M 158.392374 448.56 
L 160.026854 448.56 
L 160.026854 396.816 
L 158.392374 396.816 
z
" clip-path="url(#peb633ac6f1)" style="fill: #7f7f7f; opacity: 0.5"/>
   </g>
   <g id="patch_42">
    <path d="M 160.435474 448.56 
L 162.069955 448.56 
L 162.069955 422.688 
L 160.435474 422.688 
z
" clip-path="url(#peb633ac6f1)" style="fill: #7f7f7f; opacity: 0.5"/>
   </g>
   <g id="patch_43">
    <path d="M 162.478575 448.56 
L 164.113056 448.56 
L 164.113056 422.688 
L 162.478575 422.688 
z
" clip-path="url(#peb633ac6f1)" style="fill: #7f7f7f; opacity: 0.5"/>
   </g>
   <g id="patch_44">
    <path d="M 164.521676 448.56 
L 166.156157 448.56 
L 166.156157 422.688 
L 164.521676 422.688 
z
" clip-path="url(#peb633ac6f1)" style="fill: #7f7f7f; opacity: 0.5"/>
   </g>
   <g id="patch_45">
    <path d="M 166.564777 448.56 
L 168.199257 448.56 
L 168.199257 422.688 
L 166.564777 422.688 
z
" clip-path="url(#peb633ac6f1)" style="fill: #7f7f7f; opacity: 0.5"/>
   </g>
   <g id="patch_46">
    <path d="M 168.607877 448.56 
L 170.242358 448.56 
L 170.242358 370.944 
L 168.607877 370.944 
z
" clip-path="url(#peb633ac6f1)" style="fill: #7f7f7f; opacity: 0.5"/>
   </g>
   <g id="patch_47">
    <path d="M 170.650978 448.56 
L 172.285459 448.56 
L 172.285459 448.56 
L 170.650978 448.56 
z
" clip-path="url(#peb633ac6f1)" style="fill: #7f7f7f; opacity: 0.5"/>
   </g>
   <g id="patch_48">
    <path d="M 172.694079 448.56 
L 174.328559 448.56 
L 174.328559 422.688 
L 172.694079 422.688 
z
" clip-path="url(#peb633ac6f1)" style="fill: #7f7f7f; opacity: 0.5"/>
   </g>
   <g id="patch_49">
    <path d="M 174.73718 448.56 
L 176.37166 448.56 
L 176.37166 422.688 
L 174.73718 422.688 
z
" clip-path="url(#peb633ac6f1)" style="fill: #7f7f7f; opacity: 0.5"/>
   </g>
   <g id="patch_50">
    <path d="M 176.78028 448.56 
L 178.414761 448.56 
L 178.414761 345.072 
L 176.78028 345.072 
z
" clip-path="url(#peb633ac6f1)" style="fill: #7f7f7f; opacity: 0.5"/>
   </g>
   <g id="patch_51">
    <path d="M 178.823381 448.56 
L 180.457862 448.56 
L 180.457862 370.944 
L 178.823381 370.944 
z
" clip-path="url(#peb633ac6f1)" style="fill: #7f7f7f; opacity: 0.5"/>
   </g>
   <g id="patch_52">
    <path d="M 180.866482 448.56 
L 182.500962 448.56 
L 182.500962 370.944 
L 180.866482 370.944 
z
" clip-path="url(#peb633ac6f1)" style="fill: #7f7f7f; opacity: 0.5"/>
   </g>
   <g id="patch_53">
    <path d="M 182.909583 448.56 
L 184.544063 448.56 
L 184.544063 396.816 
L 182.909583 396.816 
z
" clip-path="url(#peb633ac6f1)" style="fill: #7f7f7f; opacity: 0.5"/>
   </g>
   <g id="patch_54">
    <path d="M 184.952683 448.56 
L 186.587164 448.56 
L 186.587164 345.072 
L 184.952683 345.072 
z
" clip-path="url(#peb633ac6f1)" style="fill: #7f7f7f; opacity: 0.5"/>
   </g>
   <g id="patch_55">
    <path d="M 186.995784 448.56 
L 188.630265 448.56 
L 188.630265 345.072 
L 186.995784 345.072 
z
" clip-path="url(#peb633ac6f1)" style="fill: #7f7f7f; opacity: 0.5"/>
   </g>
   <g id="patch_56">
    <path d="M 189.038885 448.56 
L 190.673365 448.56 
L 190.673365 241.584 
L 189.038885 241.584 
z
" clip-path="url(#peb633ac6f1)" style="fill: #7f7f7f; opacity: 0.5"/>
   </g>
   <g id="patch_57">
    <path d="M 191.081986 448.56 
L 192.716466 448.56 
L 192.716466 319.2 
L 191.081986 319.2 
z
" clip-path="url(#peb633ac6f1)" style="fill: #7f7f7f; opacity: 0.5"/>
   </g>
   <g id="patch_58">
    <path d="M 193.125086 448.56 
L 194.759567 448.56 
L 194.759567 241.584 
L 193.125086 241.584 
z
" clip-path="url(#peb633ac6f1)" style="fill: #7f7f7f; opacity: 0.5"/>
   </g>
   <g id="patch_59">
    <path d="M 195.168187 448.56 
L 196.802668 448.56 
L 196.802668 319.2 
L 195.168187 319.2 
z
" clip-path="url(#peb633ac6f1)" style="fill: #7f7f7f; opacity: 0.5"/>
   </g>
   <g id="patch_60">
    <path d="M 197.211288 448.56 
L 198.845768 448.56 
L 198.845768 345.072 
L 197.211288 345.072 
z
" clip-path="url(#peb633ac6f1)" style="fill: #7f7f7f; opacity: 0.5"/>
   </g>
   <g id="patch_61">
    <path d="M 199.254389 448.56 
L 200.888869 448.56 
L 200.888869 319.2 
L 199.254389 319.2 
z
" clip-path="url(#peb633ac6f1)" style="fill: #7f7f7f; opacity: 0.5"/>
   </g>
   <g id="patch_62">
    <path d="M 201.297489 448.56 
L 202.93197 448.56 
L 202.93197 267.456 
L 201.297489 267.456 
z
" clip-path="url(#peb633ac6f1)" style="fill: #7f7f7f; opacity: 0.5"/>
   </g>
   <g id="patch_63">
    <path d="M 203.34059 448.56 
L 204.975071 448.56 
L 204.975071 396.816 
L 203.34059 396.816 
z
" clip-path="url(#peb633ac6f1)" style="fill: #7f7f7f; opacity: 0.5"/>
   </g>
   <g id="patch_64">
    <path d="M 205.383691 448.56 
L 207.018171 448.56 
L 207.018171 422.688 
L 205.383691 422.688 
z
" clip-path="url(#peb633ac6f1)" style="fill: #7f7f7f; opacity: 0.5"/>
   </g>
   <g id="patch_65">
    <path d="M 207.426792 448.56 
L 209.061272 448.56 
L 209.061272 241.584 
L 207.426792 241.584 
z
" clip-path="url(#peb633ac6f1)" style="fill: #7f7f7f; opacity: 0.5"/>
   </g>
   <g id="patch_66">
    <path d="M 209.469892 448.56 
L 211.104373 448.56 
L 211.104373 396.816 
L 209.469892 396.816 
z
" clip-path="url(#peb633ac6f1)" style="fill: #7f7f7f; opacity: 0.5"/>
   </g>
   <g id="patch_67">
    <path d="M 211.512993 448.56 
L 213.147474 448.56 
L 213.147474 345.072 
L 211.512993 345.072 
z
" clip-path="url(#peb633ac6f1)" style="fill: #7f7f7f; opacity: 0.5"/>
   </g>
   <g id="patch_68">
    <path d="M 213.556094 448.56 
L 215.190574 448.56 
L 215.190574 396.816 
L 213.556094 396.816 
z
" clip-path="url(#peb633ac6f1)" style="fill: #7f7f7f; opacity: 0.5"/>
   </g>
   <g id="patch_69">
    <path d="M 215.599194 448.56 
L 217.233675 448.56 
L 217.233675 215.712 
L 215.599194 215.712 
z
" clip-path="url(#peb633ac6f1)" style="fill: #7f7f7f; opacity: 0.5"/>
   </g>
   <g id="patch_70">
    <path d="M 217.642295 448.56 
L 219.276776 448.56 
L 219.276776 241.584 
L 217.642295 241.584 
z
" clip-path="url(#peb633ac6f1)" style="fill: #7f7f7f; opacity: 0.5"/>
   </g>
   <g id="patch_71">
    <path d="M 219.685396 448.56 
L 221.319877 448.56 
L 221.319877 241.584 
L 219.685396 241.584 
z
" clip-path="url(#peb633ac6f1)" style="fill: #7f7f7f; opacity: 0.5"/>
   </g>
   <g id="patch_72">
    <path d="M 221.728497 448.56 
L 223.362977 448.56 
L 223.362977 267.456 
L 221.728497 267.456 
z
" clip-path="url(#peb633ac6f1)" style="fill: #7f7f7f; opacity: 0.5"/>
   </g>
   <g id="patch_73">
    <path d="M 223.771597 448.56 
L 225.406078 448.56 
L 225.406078 215.712 
L 223.771597 215.712 
z
" clip-path="url(#peb633ac6f1)" style="fill: #7f7f7f; opacity: 0.5"/>
   </g>
   <g id="patch_74">
    <path d="M 225.814698 448.56 
L 227.449179 448.56 
L 227.449179 138.096 
L 225.814698 138.096 
z
" clip-path="url(#peb633ac6f1)" style="fill: #7f7f7f; opacity: 0.5"/>
   </g>
   <g id="patch_75">
    <path d="M 227.857799 448.56 
L 229.49228 448.56 
L 229.49228 138.096 
L 227.857799 138.096 
z
" clip-path="url(#peb633ac6f1)" style="fill: #7f7f7f; opacity: 0.5"/>
   </g>
   <g id="patch_76">
    <path d="M 229.9009 448.56 
L 231.53538 448.56 
L 231.53538 267.456 
L 229.9009 267.456 
z
" clip-path="url(#peb633ac6f1)" style="fill: #7f7f7f; opacity: 0.5"/>
   </g>
   <g id="patch_77">
    <path d="M 231.944 448.56 
L 233.578481 448.56 
L 233.578481 138.096 
L 231.944 138.096 
z
" clip-path="url(#peb633ac6f1)" style="fill: #7f7f7f; opacity: 0.5"/>
   </g>
   <g id="patch_78">
    <path d="M 233.987101 448.56 
L 235.621582 448.56 
L 235.621582 396.816 
L 233.987101 396.816 
z
" clip-path="url(#peb633ac6f1)" style="fill: #7f7f7f; opacity: 0.5"/>
   </g>
   <g id="patch_79">
    <path d="M 236.030202 448.56 
L 237.664682 448.56 
L 237.664682 60.48 
L 236.030202 60.48 
z
" clip-path="url(#peb633ac6f1)" style="fill: #7f7f7f; opacity: 0.5"/>
   </g>
   <g id="patch_80">
    <path d="M 238.073303 448.56 
L 239.707783 448.56 
L 239.707783 163.968 
L 238.073303 163.968 
z
" clip-path="url(#peb633ac6f1)" style="fill: #7f7f7f; opacity: 0.5"/>
   </g>
   <g id="patch_81">
    <path d="M 240.116403 448.56 
L 241.750884 448.56 
L 241.750884 319.2 
L 240.116403 319.2 
z
" clip-path="url(#peb633ac6f1)" style="fill: #7f7f7f; opacity: 0.5"/>
   </g>
   <g id="patch_82">
    <path d="M 242.159504 448.56 
L 243.793985 448.56 
L 243.793985 345.072 
L 242.159504 345.072 
z
" clip-path="url(#peb633ac6f1)" style="fill: #7f7f7f; opacity: 0.5"/>
   </g>
   <g id="patch_83">
    <path d="M 244.202605 448.56 
L 245.837085 448.56 
L 245.837085 396.816 
L 244.202605 396.816 
z
" clip-path="url(#peb633ac6f1)" style="fill: #7f7f7f; opacity: 0.5"/>
   </g>
   <g id="patch_84">
    <path d="M 246.245706 448.56 
L 247.880186 448.56 
L 247.880186 345.072 
L 246.245706 345.072 
z
" clip-path="url(#peb633ac6f1)" style="fill: #7f7f7f; opacity: 0.5"/>
   </g>
   <g id="patch_85">
    <path d="M 248.288806 448.56 
L 249.923287 448.56 
L 249.923287 267.456 
L 248.288806 267.456 
z
" clip-path="url(#peb633ac6f1)" style="fill: #7f7f7f; opacity: 0.5"/>
   </g>
   <g id="patch_86">
    <path d="M 250.331907 448.56 
L 251.966388 448.56 
L 251.966388 112.224 
L 250.331907 112.224 
z
" clip-path="url(#peb633ac6f1)" style="fill: #7f7f7f; opacity: 0.5"/>
   </g>
   <g id="patch_87">
    <path d="M 252.375008 448.56 
L 254.009488 448.56 
L 254.009488 293.328 
L 252.375008 293.328 
z
" clip-path="url(#peb633ac6f1)" style="fill: #7f7f7f; opacity: 0.5"/>
   </g>
   <g id="patch_88">
    <path d="M 254.418109 448.56 
L 256.052589 448.56 
L 256.052589 241.584 
L 254.418109 241.584 
z
" clip-path="url(#peb633ac6f1)" style="fill: #7f7f7f; opacity: 0.5"/>
   </g>
   <g id="patch_89">
    <path d="M 256.461209 448.56 
L 258.09569 448.56 
L 258.09569 345.072 
L 256.461209 345.072 
z
" clip-path="url(#peb633ac6f1)" style="fill: #7f7f7f; opacity: 0.5"/>
   </g>
   <g id="patch_90">
    <path d="M 258.50431 448.56 
L 260.138791 448.56 
L 260.138791 319.2 
L 258.50431 319.2 
z
" clip-path="url(#peb633ac6f1)" style="fill: #7f7f7f; opacity: 0.5"/>
   </g>
   <g id="patch_91">
    <path d="M 260.547411 448.56 
L 262.181891 448.56 
L 262.181891 370.944 
L 260.547411 370.944 
z
" clip-path="url(#peb633ac6f1)" style="fill: #7f7f7f; opacity: 0.5"/>
   </g>
   <g id="patch_92">
    <path d="M 262.590512 448.56 
L 264.224992 448.56 
L 264.224992 396.816 
L 262.590512 396.816 
z
" clip-path="url(#peb633ac6f1)" style="fill: #7f7f7f; opacity: 0.5"/>
   </g>
   <g id="patch_93">
    <path d="M 264.633612 448.56 
L 266.268093 448.56 
L 266.268093 396.816 
L 264.633612 396.816 
z
" clip-path="url(#peb633ac6f1)" style="fill: #7f7f7f; opacity: 0.5"/>
   </g>
   <g id="patch_94">
    <path d="M 266.676713 448.56 
L 268.311194 448.56 
L 268.311194 448.56 
L 266.676713 448.56 
z
" clip-path="url(#peb633ac6f1)" style="fill: #7f7f7f; opacity: 0.5"/>
   </g>
   <g id="patch_95">
    <path d="M 268.719814 448.56 
L 270.354294 448.56 
L 270.354294 422.688 
L 268.719814 422.688 
z
" clip-path="url(#peb633ac6f1)" style="fill: #7f7f7f; opacity: 0.5"/>
   </g>
   <g id="patch_96">
    <path d="M 270.762915 448.56 
L 272.397395 448.56 
L 272.397395 396.816 
L 270.762915 396.816 
z
" clip-path="url(#peb633ac6f1)" style="fill: #7f7f7f; opacity: 0.5"/>
   </g>
   <g id="patch_97">
    <path d="M 272.806015 448.56 
L 274.440496 448.56 
L 274.440496 370.944 
L 272.806015 370.944 
z
" clip-path="url(#peb633ac6f1)" style="fill: #7f7f7f; opacity: 0.5"/>
   </g>
   <g id="patch_98">
    <path d="M 274.849116 448.56 
L 276.483597 448.56 
L 276.483597 422.688 
L 274.849116 422.688 
z
" clip-path="url(#peb633ac6f1)" style="fill: #7f7f7f; opacity: 0.5"/>
   </g>
   <g id="patch_99">
    <path d="M 276.892217 448.56 
L 278.526697 448.56 
L 278.526697 370.944 
L 276.892217 370.944 
z
" clip-path="url(#peb633ac6f1)" style="fill: #7f7f7f; opacity: 0.5"/>
   </g>
   <g id="patch_100">
    <path d="M 278.935318 448.56 
L 280.569798 448.56 
L 280.569798 396.816 
L 278.935318 396.816 
z
" clip-path="url(#peb633ac6f1)" style="fill: #7f7f7f; opacity: 0.5"/>
   </g>
   <g id="patch_101">
    <path d="M 280.978418 448.56 
L 282.612899 448.56 
L 282.612899 448.56 
L 280.978418 448.56 
z
" clip-path="url(#peb633ac6f1)" style="fill: #7f7f7f; opacity: 0.5"/>
   </g>
   <g id="patch_102">
    <path d="M 283.021519 448.56 
L 284.656 448.56 
L 284.656 448.56 
L 283.021519 448.56 
z
" clip-path="url(#peb633ac6f1)" style="fill: #7f7f7f; opacity: 0.5"/>
   </g>
   <g id="patch_103">
    <path d="M 285.06462 448.56 
L 286.6991 448.56 
L 286.6991 422.688 
L 285.06462 422.688 
z
" clip-path="url(#peb633ac6f1)" style="fill: #7f7f7f; opacity: 0.5"/>
   </g>
   <g id="patch_104">
    <path d="M 287.10772 448.56 
L 288.742201 448.56 
L 288.742201 396.816 
L 287.10772 396.816 
z
" clip-path="url(#peb633ac6f1)" style="fill: #7f7f7f; opacity: 0.5"/>
   </g>
   <g id="patch_105">
    <path d="M 289.150821 448.56 
L 290.785302 448.56 
L 290.785302 422.688 
L 289.150821 422.688 
z
" clip-path="url(#peb633ac6f1)" style="fill: #7f7f7f; opacity: 0.5"/>
   </g>
   <g id="patch_106">
    <path d="M 291.193922 448.56 
L 292.828403 448.56 
L 292.828403 448.56 
L 291.193922 448.56 
z
" clip-path="url(#peb633ac6f1)" style="fill: #7f7f7f; opacity: 0.5"/>
   </g>
   <g id="patch_107">
    <path d="M 293.237023 448.56 
L 294.871503 448.56 
L 294.871503 422.688 
L 293.237023 422.688 
z
" clip-path="url(#peb633ac6f1)" style="fill: #7f7f7f; opacity: 0.5"/>
   </g>
   <g id="patch_108">
    <path d="M 295.280123 448.56 
L 296.914604 448.56 
L 296.914604 448.56 
L 295.280123 448.56 
z
" clip-path="url(#peb633ac6f1)" style="fill: #7f7f7f; opacity: 0.5"/>
   </g>
   <g id="patch_109">
    <path d="M 297.323224 448.56 
L 298.957705 448.56 
L 298.957705 422.688 
L 297.323224 422.688 
z
" clip-path="url(#peb633ac6f1)" style="fill: #7f7f7f; opacity: 0.5"/>
   </g>
   <g id="patch_110">
    <path d="M 299.366325 448.56 
L 301.000806 448.56 
L 301.000806 448.56 
L 299.366325 448.56 
z
" clip-path="url(#peb633ac6f1)" style="fill: #7f7f7f; opacity: 0.5"/>
   </g>
   <g id="patch_111">
    <path d="M 301.409426 448.56 
L 303.043906 448.56 
L 303.043906 448.56 
L 301.409426 448.56 
z
" clip-path="url(#peb633ac6f1)" style="fill: #7f7f7f; opacity: 0.5"/>
   </g>
   <g id="patch_112">
    <path d="M 303.452526 448.56 
L 305.087007 448.56 
L 305.087007 448.56 
L 303.452526 448.56 
z
" clip-path="url(#peb633ac6f1)" style="fill: #7f7f7f; opacity: 0.5"/>
   </g>
   <g id="patch_113">
    <path d="M 305.495627 448.56 
L 307.130108 448.56 
L 307.130108 422.688 
L 305.495627 422.688 
z
" clip-path="url(#peb633ac6f1)" style="fill: #7f7f7f; opacity: 0.5"/>
   </g>
   <g id="patch_114">
    <path d="M 307.538728 448.56 
L 309.173208 448.56 
L 309.173208 422.688 
L 307.538728 422.688 
z
" clip-path="url(#peb633ac6f1)" style="fill: #7f7f7f; opacity: 0.5"/>
   </g>
   <g id="patch_115">
    <path d="M 309.581829 448.56 
L 311.216309 448.56 
L 311.216309 448.56 
L 309.581829 448.56 
z
" clip-path="url(#peb633ac6f1)" style="fill: #7f7f7f; opacity: 0.5"/>
   </g>
   <g id="patch_116">
    <path d="M 311.624929 448.56 
L 313.25941 448.56 
L 313.25941 448.56 
L 311.624929 448.56 
z
" clip-path="url(#peb633ac6f1)" style="fill: #7f7f7f; opacity: 0.5"/>
   </g>
   <g id="patch_117">
    <path d="M 313.66803 448.56 
L 315.302511 448.56 
L 315.302511 448.56 
L 313.66803 448.56 
z
" clip-path="url(#peb633ac6f1)" style="fill: #7f7f7f; opacity: 0.5"/>
   </g>
   <g id="patch_118">
    <path d="M 315.711131 448.56 
L 317.345611 448.56 
L 317.345611 422.688 
L 315.711131 422.688 
z
" clip-path="url(#peb633ac6f1)" style="fill: #7f7f7f; opacity: 0.5"/>
   </g>
   <g id="patch_119">
    <path d="M 317.754232 448.56 
L 319.388712 448.56 
L 319.388712 448.56 
L 317.754232 448.56 
z
" clip-path="url(#peb633ac6f1)" style="fill: #7f7f7f; opacity: 0.5"/>
   </g>
   <g id="patch_120">
    <path d="M 319.797332 448.56 
L 321.431813 448.56 
L 321.431813 448.56 
L 319.797332 448.56 
z
" clip-path="url(#peb633ac6f1)" style="fill: #7f7f7f; opacity: 0.5"/>
   </g>
   <g id="patch_121">
    <path d="M 321.840433 448.56 
L 323.474914 448.56 
L 323.474914 448.56 
L 321.840433 448.56 
z
" clip-path="url(#peb633ac6f1)" style="fill: #7f7f7f; opacity: 0.5"/>
   </g>
   <g id="patch_122">
    <path d="M 323.883534 448.56 
L 325.518014 448.56 
L 325.518014 448.56 
L 323.883534 448.56 
z
" clip-path="url(#peb633ac6f1)" style="fill: #7f7f7f; opacity: 0.5"/>
   </g>
   <g id="patch_123">
    <path d="M 325.926635 448.56 
L 327.561115 448.56 
L 327.561115 448.56 
L 325.926635 448.56 
z
" clip-path="url(#peb633ac6f1)" style="fill: #7f7f7f; opacity: 0.5"/>
   </g>
   <g id="patch_124">
    <path d="M 327.969735 448.56 
L 329.604216 448.56 
L 329.604216 448.56 
L 327.969735 448.56 
z
" clip-path="url(#peb633ac6f1)" style="fill: #7f7f7f; opacity: 0.5"/>
   </g>
   <g id="patch_125">
    <path d="M 330.012836 448.56 
L 331.647317 448.56 
L 331.647317 448.56 
L 330.012836 448.56 
z
" clip-path="url(#peb633ac6f1)" style="fill: #7f7f7f; opacity: 0.5"/>
   </g>
   <g id="patch_126">
    <path d="M 332.055937 448.56 
L 333.690417 448.56 
L 333.690417 448.56 
L 332.055937 448.56 
z
" clip-path="url(#peb633ac6f1)" style="fill: #7f7f7f; opacity: 0.5"/>
   </g>
   <g id="patch_127">
    <path d="M 334.099038 448.56 
L 335.733518 448.56 
L 335.733518 448.56 
L 334.099038 448.56 
z
" clip-path="url(#peb633ac6f1)" style="fill: #7f7f7f; opacity: 0.5"/>
   </g>
   <g id="patch_128">
    <path d="M 336.142138 448.56 
L 337.776619 448.56 
L 337.776619 422.688 
L 336.142138 422.688 
z
" clip-path="url(#peb633ac6f1)" style="fill: #7f7f7f; opacity: 0.5"/>
   </g>
   <g id="patch_129">
    <path d="M 338.185239 448.56 
L 339.81972 448.56 
L 339.81972 448.56 
L 338.185239 448.56 
z
" clip-path="url(#peb633ac6f1)" style="fill: #7f7f7f; opacity: 0.5"/>
   </g>
   <g id="patch_130">
    <path d="M 340.22834 448.56 
L 341.86282 448.56 
L 341.86282 448.56 
L 340.22834 448.56 
z
" clip-path="url(#peb633ac6f1)" style="fill: #7f7f7f; opacity: 0.5"/>
   </g>
   <g id="patch_131">
    <path d="M 342.271441 448.56 
L 343.905921 448.56 
L 343.905921 448.56 
L 342.271441 448.56 
z
" clip-path="url(#peb633ac6f1)" style="fill: #7f7f7f; opacity: 0.5"/>
   </g>
   <g id="patch_132">
    <path d="M 344.314541 448.56 
L 345.949022 448.56 
L 345.949022 448.56 
L 344.314541 448.56 
z
" clip-path="url(#peb633ac6f1)" style="fill: #7f7f7f; opacity: 0.5"/>
   </g>
   <g id="patch_133">
    <path d="M 346.357642 448.56 
L 347.992123 448.56 
L 347.992123 448.56 
L 346.357642 448.56 
z
" clip-path="url(#peb633ac6f1)" style="fill: #7f7f7f; opacity: 0.5"/>
   </g>
   <g id="patch_134">
    <path d="M 348.400743 448.56 
L 350.035223 448.56 
L 350.035223 448.56 
L 348.400743 448.56 
z
" clip-path="url(#peb633ac6f1)" style="fill: #7f7f7f; opacity: 0.5"/>
   </g>
   <g id="patch_135">
    <path d="M 350.443843 448.56 
L 352.078324 448.56 
L 352.078324 422.688 
L 350.443843 422.688 
z
" clip-path="url(#peb633ac6f1)" style="fill: #7f7f7f; opacity: 0.5"/>
   </g>
   <g id="patch_136">
    <path d="M 352.486944 448.56 
L 354.121425 448.56 
L 354.121425 448.56 
L 352.486944 448.56 
z
" clip-path="url(#peb633ac6f1)" style="fill: #7f7f7f; opacity: 0.5"/>
   </g>
   <g id="patch_137">
    <path d="M 354.530045 448.56 
L 356.164526 448.56 
L 356.164526 448.56 
L 354.530045 448.56 
z
" clip-path="url(#peb633ac6f1)" style="fill: #7f7f7f; opacity: 0.5"/>
   </g>
   <g id="patch_138">
    <path d="M 356.573146 448.56 
L 358.207626 448.56 
L 358.207626 448.56 
L 356.573146 448.56 
z
" clip-path="url(#peb633ac6f1)" style="fill: #7f7f7f; opacity: 0.5"/>
   </g>
   <g id="patch_139">
    <path d="M 358.616246 448.56 
L 360.250727 448.56 
L 360.250727 448.56 
L 358.616246 448.56 
z
" clip-path="url(#peb633ac6f1)" style="fill: #7f7f7f; opacity: 0.5"/>
   </g>
   <g id="patch_140">
    <path d="M 360.659347 448.56 
L 362.293828 448.56 
L 362.293828 448.56 
L 360.659347 448.56 
z
" clip-path="url(#peb633ac6f1)" style="fill: #7f7f7f; opacity: 0.5"/>
   </g>
   <g id="patch_141">
    <path d="M 362.702448 448.56 
L 364.336929 448.56 
L 364.336929 448.56 
L 362.702448 448.56 
z
" clip-path="url(#peb633ac6f1)" style="fill: #7f7f7f; opacity: 0.5"/>
   </g>
   <g id="patch_142">
    <path d="M 364.745549 448.56 
L 366.380029 448.56 
L 366.380029 448.56 
L 364.745549 448.56 
z
" clip-path="url(#peb633ac6f1)" style="fill: #7f7f7f; opacity: 0.5"/>
   </g>
   <g id="patch_143">
    <path d="M 366.788649 448.56 
L 368.42313 448.56 
L 368.42313 448.56 
L 366.788649 448.56 
z
" clip-path="url(#peb633ac6f1)" style="fill: #7f7f7f; opacity: 0.5"/>
   </g>
   <g id="patch_144">
    <path d="M 368.83175 448.56 
L 370.466231 448.56 
L 370.466231 448.56 
L 368.83175 448.56 
z
" clip-path="url(#peb633ac6f1)" style="fill: #7f7f7f; opacity: 0.5"/>
   </g>
   <g id="patch_145">
    <path d="M 370.874851 448.56 
L 372.509332 448.56 
L 372.509332 448.56 
L 370.874851 448.56 
z
" clip-path="url(#peb633ac6f1)" style="fill: #7f7f7f; opacity: 0.5"/>
   </g>
   <g id="patch_146">
    <path d="M 372.917952 448.56 
L 374.552432 448.56 
L 374.552432 448.56 
L 372.917952 448.56 
z
" clip-path="url(#peb633ac6f1)" style="fill: #7f7f7f; opacity: 0.5"/>
   </g>
   <g id="patch_147">
    <path d="M 374.961052 448.56 
L 376.595533 448.56 
L 376.595533 448.56 
L 374.961052 448.56 
z
" clip-path="url(#peb633ac6f1)" style="fill: #7f7f7f; opacity: 0.5"/>
   </g>
   <g id="patch_148">
    <path d="M 377.004153 448.56 
L 378.638634 448.56 
L 378.638634 448.56 
L 377.004153 448.56 
z
" clip-path="url(#peb633ac6f1)" style="fill: #7f7f7f; opacity: 0.5"/>
   </g>
   <g id="patch_149">
    <path d="M 379.047254 448.56 
L 380.681734 448.56 
L 380.681734 448.56 
L 379.047254 448.56 
z
" clip-path="url(#peb633ac6f1)" style="fill: #7f7f7f; opacity: 0.5"/>
   </g>
   <g id="patch_150">
    <path d="M 381.090355 448.56 
L 382.724835 448.56 
L 382.724835 448.56 
L 381.090355 448.56 
z
" clip-path="url(#peb633ac6f1)" style="fill: #7f7f7f; opacity: 0.5"/>
   </g>
   <g id="patch_151">
    <path d="M 383.133455 448.56 
L 384.767936 448.56 
L 384.767936 448.56 
L 383.133455 448.56 
z
" clip-path="url(#peb633ac6f1)" style="fill: #7f7f7f; opacity: 0.5"/>
   </g>
   <g id="patch_152">
    <path d="M 385.176556 448.56 
L 386.811037 448.56 
L 386.811037 448.56 
L 385.176556 448.56 
z
" clip-path="url(#peb633ac6f1)" style="fill: #7f7f7f; opacity: 0.5"/>
   </g>
   <g id="patch_153">
    <path d="M 387.219657 448.56 
L 388.854137 448.56 
L 388.854137 448.56 
L 387.219657 448.56 
z
" clip-path="url(#peb633ac6f1)" style="fill: #7f7f7f; opacity: 0.5"/>
   </g>
   <g id="patch_154">
    <path d="M 389.262758 448.56 
L 390.897238 448.56 
L 390.897238 448.56 
L 389.262758 448.56 
z
" clip-path="url(#peb633ac6f1)" style="fill: #7f7f7f; opacity: 0.5"/>
   </g>
   <g id="patch_155">
    <path d="M 391.305858 448.56 
L 392.940339 448.56 
L 392.940339 448.56 
L 391.305858 448.56 
z
" clip-path="url(#peb633ac6f1)" style="fill: #7f7f7f; opacity: 0.5"/>
   </g>
   <g id="patch_156">
    <path d="M 393.348959 448.56 
L 394.98344 448.56 
L 394.98344 448.56 
L 393.348959 448.56 
z
" clip-path="url(#peb633ac6f1)" style="fill: #7f7f7f; opacity: 0.5"/>
   </g>
   <g id="patch_157">
    <path d="M 395.39206 448.56 
L 397.02654 448.56 
L 397.02654 448.56 
L 395.39206 448.56 
z
" clip-path="url(#peb633ac6f1)" style="fill: #7f7f7f; opacity: 0.5"/>
   </g>
   <g id="patch_158">
    <path d="M 397.435161 448.56 
L 399.069641 448.56 
L 399.069641 448.56 
L 397.435161 448.56 
z
" clip-path="url(#peb633ac6f1)" style="fill: #7f7f7f; opacity: 0.5"/>
   </g>
   <g id="patch_159">
    <path d="M 399.478261 448.56 
L 401.112742 448.56 
L 401.112742 448.56 
L 399.478261 448.56 
z
" clip-path="url(#peb633ac6f1)" style="fill: #7f7f7f; opacity: 0.5"/>
   </g>
   <g id="patch_160">
    <path d="M 401.521362 448.56 
L 403.155843 448.56 
L 403.155843 448.56 
L 401.521362 448.56 
z
" clip-path="url(#peb633ac6f1)" style="fill: #7f7f7f; opacity: 0.5"/>
   </g>
   <g id="patch_161">
    <path d="M 403.564463 448.56 
L 405.198943 448.56 
L 405.198943 448.56 
L 403.564463 448.56 
z
" clip-path="url(#peb633ac6f1)" style="fill: #7f7f7f; opacity: 0.5"/>
   </g>
   <g id="patch_162">
    <path d="M 405.607564 448.56 
L 407.242044 448.56 
L 407.242044 448.56 
L 405.607564 448.56 
z
" clip-path="url(#peb633ac6f1)" style="fill: #7f7f7f; opacity: 0.5"/>
   </g>
   <g id="patch_163">
    <path d="M 407.650664 448.56 
L 409.285145 448.56 
L 409.285145 448.56 
L 407.650664 448.56 
z
" clip-path="url(#peb633ac6f1)" style="fill: #7f7f7f; opacity: 0.5"/>
   </g>
   <g id="patch_164">
    <path d="M 409.693765 448.56 
L 411.328246 448.56 
L 411.328246 448.56 
L 409.693765 448.56 
z
" clip-path="url(#peb633ac6f1)" style="fill: #7f7f7f; opacity: 0.5"/>
   </g>
   <g id="patch_165">
    <path d="M 411.736866 448.56 
L 413.371346 448.56 
L 413.371346 448.56 
L 411.736866 448.56 
z
" clip-path="url(#peb633ac6f1)" style="fill: #7f7f7f; opacity: 0.5"/>
   </g>
   <g id="patch_166">
    <path d="M 413.779967 448.56 
L 415.414447 448.56 
L 415.414447 448.56 
L 413.779967 448.56 
z
" clip-path="url(#peb633ac6f1)" style="fill: #7f7f7f; opacity: 0.5"/>
   </g>
   <g id="patch_167">
    <path d="M 415.823067 448.56 
L 417.457548 448.56 
L 417.457548 448.56 
L 415.823067 448.56 
z
" clip-path="url(#peb633ac6f1)" style="fill: #7f7f7f; opacity: 0.5"/>
   </g>
   <g id="patch_168">
    <path d="M 417.866168 448.56 
L 419.500649 448.56 
L 419.500649 448.56 
L 417.866168 448.56 
z
" clip-path="url(#peb633ac6f1)" style="fill: #7f7f7f; opacity: 0.5"/>
   </g>
   <g id="patch_169">
    <path d="M 419.909269 448.56 
L 421.543749 448.56 
L 421.543749 448.56 
L 419.909269 448.56 
z
" clip-path="url(#peb633ac6f1)" style="fill: #7f7f7f; opacity: 0.5"/>
   </g>
   <g id="patch_170">
    <path d="M 421.952369 448.56 
L 423.58685 448.56 
L 423.58685 448.56 
L 421.952369 448.56 
z
" clip-path="url(#peb633ac6f1)" style="fill: #7f7f7f; opacity: 0.5"/>
   </g>
   <g id="patch_171">
    <path d="M 423.99547 448.56 
L 425.629951 448.56 
L 425.629951 448.56 
L 423.99547 448.56 
z
" clip-path="url(#peb633ac6f1)" style="fill: #7f7f7f; opacity: 0.5"/>
   </g>
   <g id="patch_172">
    <path d="M 426.038571 448.56 
L 427.673052 448.56 
L 427.673052 448.56 
L 426.038571 448.56 
z
" clip-path="url(#peb633ac6f1)" style="fill: #7f7f7f; opacity: 0.5"/>
   </g>
   <g id="patch_173">
    <path d="M 428.081672 448.56 
L 429.716152 448.56 
L 429.716152 448.56 
L 428.081672 448.56 
z
" clip-path="url(#peb633ac6f1)" style="fill: #7f7f7f; opacity: 0.5"/>
   </g>
   <g id="patch_174">
    <path d="M 430.124772 448.56 
L 431.759253 448.56 
L 431.759253 448.56 
L 430.124772 448.56 
z
" clip-path="url(#peb633ac6f1)" style="fill: #7f7f7f; opacity: 0.5"/>
   </g>
   <g id="patch_175">
    <path d="M 432.167873 448.56 
L 433.802354 448.56 
L 433.802354 448.56 
L 432.167873 448.56 
z
" clip-path="url(#peb633ac6f1)" style="fill: #7f7f7f; opacity: 0.5"/>
   </g>
   <g id="patch_176">
    <path d="M 434.210974 448.56 
L 435.845455 448.56 
L 435.845455 448.56 
L 434.210974 448.56 
z
" clip-path="url(#peb633ac6f1)" style="fill: #7f7f7f; opacity: 0.5"/>
   </g>
   <g id="patch_177">
    <path d="M 453.6 448.56 
L 453.6 60.48 
" style="fill: none; stroke: #7f7f7f; stroke-width: 0.8; stroke-linejoin: miter; stroke-linecap: square"/>
   </g>
  </g>
  <g id="axes_2">
   <g id="matplotlib.axis_2">
    <g id="xtick_1">
     <g id="line2d_9">
      <defs>
       <path id="m0b64d973be" d="M 0 0 
L 0 3.5 
" style="stroke: #000000; stroke-width: 0.8"/>
      </defs>
      <g>
       <use xlink:href="#m0b64d973be" x="91.787289" y="448.56" style="stroke: #000000; stroke-width: 0.8"/>
      </g>
     </g>
     <g id="text_10">
      <text style="font-size: 16px; font-family: 'Arial', sans-serif; text-anchor: middle" x="91.787289" y="467.7175" transform="rotate(-0 91.787289 467.7175)">1 Jul</text>
     </g>
    </g>
    <g id="xtick_2">
     <g id="line2d_10">
      <g>
       <use xlink:href="#m0b64d973be" x="155.123412" y="448.56" style="stroke: #000000; stroke-width: 0.8"/>
      </g>
     </g>
     <g id="text_11">
      <text style="font-size: 16px; font-family: 'Arial', sans-serif; text-anchor: middle" x="155.123412" y="467.71625" transform="rotate(-0 155.123412 467.71625)">1 Aug</text>
     </g>
    </g>
    <g id="xtick_3">
     <g id="line2d_11">
      <g>
       <use xlink:href="#m0b64d973be" x="218.459536" y="448.56" style="stroke: #000000; stroke-width: 0.8"/>
      </g>
     </g>
     <g id="text_12">
      <text style="font-size: 16px; font-family: 'Arial', sans-serif; text-anchor: middle" x="218.459536" y="467.71625" transform="rotate(-0 218.459536 467.71625)">1 Sep</text>
     </g>
    </g>
    <g id="xtick_4">
     <g id="line2d_12">
      <g>
       <use xlink:href="#m0b64d973be" x="279.752558" y="448.56" style="stroke: #000000; stroke-width: 0.8"/>
      </g>
     </g>
     <g id="text_13">
      <text style="font-size: 16px; font-family: 'Arial', sans-serif; text-anchor: middle" x="279.752558" y="467.71625" transform="rotate(-0 279.752558 467.71625)">1 Oct</text>
     </g>
    </g>
    <g id="xtick_5">
     <g id="line2d_13">
      <g>
       <use xlink:href="#m0b64d973be" x="343.088681" y="448.56" style="stroke: #000000; stroke-width: 0.8"/>
      </g>
     </g>
     <g id="text_14">
      <text style="font-size: 16px; font-family: 'Arial', sans-serif; text-anchor: middle" x="343.088681" y="467.71625" transform="rotate(-0 343.088681 467.71625)">1 Nov</text>
     </g>
    </g>
    <g id="xtick_6">
     <g id="line2d_14">
      <g>
       <use xlink:href="#m0b64d973be" x="404.381703" y="448.56" style="stroke: #000000; stroke-width: 0.8"/>
      </g>
     </g>
     <g id="text_15">
      <text style="font-size: 16px; font-family: 'Arial', sans-serif; text-anchor: middle" x="404.381703" y="467.71625" transform="rotate(-0 404.381703 467.71625)">1 Dec</text>
     </g>
    </g>
    <g id="text_16">
     <text style="font-size: 16px; font-family: 'Arial', sans-serif; text-anchor: middle" x="258.3" y="487.7175" transform="rotate(-0 258.3 487.7175)">Date (2017)</text>
    </g>
   </g>
   <g id="matplotlib.axis_3">
    <g id="ytick_9">
     <g id="line2d_15">
      <defs>
       <path id="m59b010e0dd" d="M 0 0 
L -3.5 0 
" style="stroke: #000000; stroke-width: 0.8"/>
      </defs>
      <g>
       <use xlink:href="#m59b010e0dd" x="63" y="448.56" style="stroke: #000000; stroke-width: 0.8"/>
      </g>
     </g>
     <g id="text_17">
      <text style="font-size: 16px; font-family: 'Arial', sans-serif; text-anchor: end" x="56" y="454.638125" transform="rotate(-0 56 454.638125)">0.0</text>
     </g>
    </g>
    <g id="ytick_10">
     <g id="line2d_16">
      <g>
       <use xlink:href="#m59b010e0dd" x="63" y="371.712475" style="stroke: #000000; stroke-width: 0.8"/>
      </g>
     </g>
     <g id="text_18">
      <text style="font-size: 16px; font-family: 'Arial', sans-serif; text-anchor: end" x="56" y="377.7906" transform="rotate(-0 56 377.7906)">0.2</text>
     </g>
    </g>
    <g id="ytick_11">
     <g id="line2d_17">
      <g>
       <use xlink:href="#m59b010e0dd" x="63" y="294.86495" style="stroke: #000000; stroke-width: 0.8"/>
      </g>
     </g>
     <g id="text_19">
      <text style="font-size: 16px; font-family: 'Arial', sans-serif; text-anchor: end" x="56" y="300.943075" transform="rotate(-0 56 300.943075)">0.4</text>
     </g>
    </g>
    <g id="ytick_12">
     <g id="line2d_18">
      <g>
       <use xlink:href="#m59b010e0dd" x="63" y="218.017426" style="stroke: #000000; stroke-width: 0.8"/>
      </g>
     </g>
     <g id="text_20">
      <text style="font-size: 16px; font-family: 'Arial', sans-serif; text-anchor: end" x="56" y="224.095551" transform="rotate(-0 56 224.095551)">0.6</text>
     </g>
    </g>
    <g id="ytick_13">
     <g id="line2d_19">
      <g>
       <use xlink:href="#m59b010e0dd" x="63" y="141.169901" style="stroke: #000000; stroke-width: 0.8"/>
      </g>
     </g>
     <g id="text_21">
      <text style="font-size: 16px; font-family: 'Arial', sans-serif; text-anchor: end" x="56" y="147.248026" transform="rotate(-0 56 147.248026)">0.8</text>
     </g>
    </g>
    <g id="ytick_14">
     <g id="line2d_20">
      <g>
       <use xlink:href="#m59b010e0dd" x="63" y="64.322376" style="stroke: #000000; stroke-width: 0.8"/>
      </g>
     </g>
     <g id="text_22">
      <text style="font-size: 16px; font-family: 'Arial', sans-serif; text-anchor: end" x="56" y="70.400501" transform="rotate(-0 56 70.400501)">1.0</text>
     </g>
    </g>
    <g id="text_23">
     <text style="font-size: 16px; font-family: 'Arial', sans-serif; text-anchor: middle" x="22.71125" y="254.52" transform="rotate(-90 22.71125 254.52)">Probability of additional cases</text>
    </g>
   </g>
   <g id="line2d_21">
    <path d="M 81.571786 64.322376 
L 83.614886 104.974484 
L 85.657987 70.504195 
L 87.701088 65.482473 
L 93.83039 65.578409 
L 95.873491 65.727644 
L 97.916592 66.020606 
L 99.959692 66.555466 
L 102.002793 65.331876 
L 104.045894 65.843237 
L 106.088995 66.698745 
L 108.132095 68.075977 
L 110.175196 70.213959 
L 112.218297 73.439052 
L 114.261398 78.090194 
L 116.304498 84.690667 
L 118.347599 93.852419 
L 120.3907 106.308184 
L 122.433801 73.811228 
L 124.476901 76.973165 
L 126.520002 80.72893 
L 128.563103 67.771114 
L 130.606204 68.523871 
L 132.649304 65.196037 
L 134.692405 65.358657 
L 136.735506 64.538076 
L 138.778607 64.586047 
L 140.821707 64.378848 
L 146.95101 64.326624 
L 218.459536 64.322376 
L 277.709457 64.399371 
L 279.752558 64.509763 
L 281.795659 64.770455 
L 283.838759 65.47788 
L 285.88186 66.950049 
L 287.924961 69.209021 
L 289.968062 71.790969 
L 292.011162 76.031158 
L 294.054263 83.340259 
L 296.097364 90.229799 
L 298.140464 101.751215 
L 300.183565 110.471266 
L 302.226666 125.440551 
L 304.269767 142.636653 
L 306.312867 162.31626 
L 308.355968 170.670514 
L 310.399069 177.146394 
L 316.528371 235.003581 
L 318.571472 230.398254 
L 322.657673 261.011282 
L 336.959379 361.309943 
L 339.002479 340.31199 
L 341.04558 351.730738 
L 343.088681 361.822992 
L 345.131782 370.693211 
L 347.174882 378.394711 
L 351.261084 391.85471 
L 353.304185 369.435936 
L 357.390386 380.665505 
L 361.476588 391.160694 
L 367.60589 406.443226 
L 373.735192 422.04946 
L 375.778293 426.803029 
L 377.821393 431.114454 
L 379.864494 434.874143 
L 381.907595 438.050483 
L 383.950696 440.643921 
L 385.993796 442.714929 
L 388.036897 444.320108 
L 390.079998 445.536692 
L 392.123099 446.433207 
L 394.166199 447.085183 
L 396.2093 447.554153 
L 400.295502 448.110632 
L 404.381703 448.368103 
L 410.511005 448.509684 
L 426.855811 448.558989 
L 435.028214 448.56 
L 435.028214 448.56 
" clip-path="url(#peb633ac6f1)" style="fill: none; stroke: #0173b2; stroke-width: 2; stroke-linecap: square"/>
   </g>
   <g id="line2d_22">
    <path d="M 81.571786 64.322376 
L 83.614886 104.629141 
L 85.657987 70.605403 
L 87.701088 65.559324 
L 93.83039 65.674127 
L 95.873491 65.845682 
L 97.916592 66.180621 
L 99.959692 66.788996 
L 102.002793 65.470196 
L 104.045894 66.039236 
L 106.088995 66.974493 
L 108.132095 68.428451 
L 110.175196 70.626759 
L 112.218297 73.853461 
L 114.261398 78.514799 
L 116.304498 85.093208 
L 118.347599 94.198569 
L 120.3907 106.653659 
L 122.433801 73.523128 
L 124.476901 76.629112 
L 126.520002 80.345455 
L 128.563103 67.611732 
L 130.606204 68.359593 
L 132.649304 65.150649 
L 134.692405 65.31162 
L 136.735506 64.528763 
L 138.778607 64.577279 
L 140.821707 64.378299 
L 146.95101 64.327007 
L 214.373334 64.322376 
L 281.795659 64.424606 
L 283.838759 64.59554 
L 285.88186 64.975637 
L 287.924961 65.477371 
L 289.968062 65.838986 
L 292.011162 66.607423 
L 294.054263 68.326398 
L 296.097364 69.613566 
L 298.140464 72.715987 
L 300.183565 74.365164 
L 302.226666 79.118173 
L 304.269767 85.481874 
L 306.312867 93.96504 
L 308.355968 95.019838 
L 310.399069 95.264263 
L 312.44217 104.714841 
L 314.48527 115.75675 
L 316.528371 128.497289 
L 318.571472 120.826347 
L 320.614573 131.769057 
L 322.657673 143.552367 
L 324.700774 156.291603 
L 326.743875 170.182216 
L 328.786976 185.370694 
L 330.830076 202.106079 
L 332.873177 220.527903 
L 334.916278 240.762966 
L 336.959379 262.621405 
L 339.002479 209.8133 
L 343.088681 238.169624 
L 345.131782 251.132975 
L 349.217983 274.383892 
L 351.261084 285.71861 
L 353.304185 214.901469 
L 355.347285 222.556379 
L 359.433487 239.363869 
L 361.476588 248.440587 
L 363.519688 258.128398 
L 365.562789 268.737748 
L 367.60589 280.504648 
L 369.64899 293.672519 
L 371.692091 308.172784 
L 375.778293 339.815944 
L 379.864494 371.437085 
L 381.907595 385.732574 
L 383.950696 398.561718 
L 385.993796 409.587775 
L 388.036897 418.822992 
L 390.079998 426.326917 
L 392.123099 432.212517 
L 394.166199 436.74123 
L 396.2093 440.14928 
L 398.252401 442.656786 
L 400.295502 444.472444 
L 402.338602 445.763118 
L 404.381703 446.66879 
L 406.424804 447.291993 
L 408.467905 447.718204 
L 412.554106 448.199195 
L 416.640308 448.410421 
L 424.812711 448.536994 
L 435.028214 448.56 
L 435.028214 448.56 
" clip-path="url(#peb633ac6f1)" style="fill: none; stroke: #de8f05; stroke-width: 2; stroke-linecap: square"/>
   </g>
   <g id="line2d_23">
    <path d="M 404.381703 448.56 
L 404.381703 60.48 
" clip-path="url(#peb633ac6f1)" style="fill: none; stroke-dasharray: 7.4,3.2; stroke-dashoffset: 0; stroke: #d55e00; stroke-width: 2"/>
   </g>
   <g id="line2d_24">
    <path d="M 443.200617 448.56 
L 443.200617 60.48 
" clip-path="url(#peb633ac6f1)" style="fill: none; stroke-dasharray: 7.4,3.2; stroke-dashoffset: 0; stroke: #cc78bc; stroke-width: 2"/>
   </g>
   <g id="patch_178">
    <path d="M 63 448.56 
L 63 60.48 
" style="fill: none; stroke: #000000; stroke-width: 0.8; stroke-linejoin: miter; stroke-linecap: square"/>
   </g>
   <g id="patch_179">
    <path d="M 63 448.56 
L 453.6 448.56 
" style="fill: none; stroke: #000000; stroke-width: 0.8; stroke-linejoin: miter; stroke-linecap: square"/>
   </g>
   <g id="legend_1">
    <g id="patch_180">
     <path d="M 72.8 217.979738 
L 234.716563 217.979738 
Q 237.516563 217.979738 237.516563 215.179738 
L 237.516563 112.9688 
Q 237.516563 110.1688 234.716563 110.1688 
L 72.8 110.1688 
Q 70 110.1688 70 112.9688 
L 70 215.179738 
Q 70 217.979738 72.8 217.979738 
z
" style="fill: #ffffff; opacity: 0.8; stroke: #cccccc; stroke-linejoin: miter"/>
    </g>
    <g id="line2d_25">
     <path d="M 75.6 121.506613 
L 89.6 121.506613 
L 103.6 121.506613 
" style="fill: none; stroke: #0173b2; stroke-width: 2; stroke-linecap: square"/>
    </g>
    <g id="text_24">
     <text style="font-size: 14px; font-family: 'Arial', sans-serif; text-anchor: start" x="114.8" y="126.406613" transform="rotate(-0 114.8 126.406613)">Suitability-based</text>
    </g>
    <g id="line2d_26">
     <path d="M 75.6 142.507706 
L 89.6 142.507706 
L 103.6 142.507706 
" style="fill: none; stroke: #de8f05; stroke-width: 2; stroke-linecap: square"/>
    </g>
    <g id="text_25">
     <text style="font-size: 14px; font-family: 'Arial', sans-serif; text-anchor: start" x="114.8" y="147.407706" transform="rotate(-0 114.8 147.407706)">Autoregressive</text>
    </g>
    <g id="line2d_27">
     <path d="M 75.6 174.993722 
L 89.6 174.993722 
L 103.6 174.993722 
" style="fill: none; stroke-dasharray: 7.4,3.2; stroke-dashoffset: 0; stroke: #d55e00; stroke-width: 2"/>
    </g>
    <g id="text_26">
     <text style="font-size: 14px; font-family: 'Arial', sans-serif" transform="translate(114.8 169.810167)">Blood measures</text>
     <text style="font-size: 14px; font-family: 'Arial', sans-serif" transform="translate(114.8 186.613995)">lifted</text>
    </g>
    <g id="line2d_28">
     <path d="M 75.6 204.116456 
L 89.6 204.116456 
L 103.6 204.116456 
" style="fill: none; stroke-dasharray: 7.4,3.2; stroke-dashoffset: 0; stroke: #cc78bc; stroke-width: 2"/>
    </g>
    <g id="text_27">
     <text style="font-size: 14px; font-family: 'Arial', sans-serif; text-anchor: start" x="114.8" y="209.016456" transform="rotate(-0 114.8 209.016456)">45-day rule</text>
    </g>
   </g>
  </g>
 </g>
 <defs>
  <clipPath id="peb633ac6f1">
   <rect x="63" y="60.48" width="390.6" height="388.08"/>
  </clipPath>
 </defs>
</svg>
