<?xml version="1.0" encoding="utf-8" standalone="no"?>
<!DOCTYPE svg PUBLIC "-//W3C//DTD SVG 1.1//EN"
  "http://www.w3.org/Graphics/SVG/1.1/DTD/svg11.dtd">
<svg xmlns:xlink="http://www.w3.org/1999/xlink" width="504pt" height="504pt" viewBox="0 0 504 504" xmlns="http://www.w3.org/2000/svg" version="1.1">
 <metadata>
  <rdf:RDF xmlns:dc="http://purl.org/dc/elements/1.1/" xmlns:cc="http://creativecommons.org/ns#" xmlns:rdf="http://www.w3.org/1999/02/22-rdf-syntax-ns#">
   <cc:Work>
    <dc:type rdf:resource="http://purl.org/dc/dcmitype/StillImage"/>
    <dc:date>2026-02-18T11:56:46.293161</dc:date>
    <dc:format>image/svg+xml</dc:format>
    <dc:creator>
     <cc:Agent>
      <dc:title>Matplotlib v3.10.8, https://matplotlib.org/</dc:title>
     </cc:Agent>
    </dc:creator>
   </cc:Work>
  </rdf:RDF>
 </metadata>
 <defs>
  <style type="text/css">*{stroke-linejoin: round; stroke-linecap: butt}</style>
 </defs>
 <g id="figure_1">
  <g id="patch_1">
   <path d="M 0 504 
L 504 504 
L 504 0 
L 0 0 
L 0 504 
z
" style="fill: none"/>
  </g>
  <g id="axes_1">
   <g id="patch_2">
    <path d="M 63 448.56 
L 453.6 448.56 
L 453.6 60.48 
L 63 60.48 
L 63 448.56 
z
" style="fill: none"/>
   </g>
   <g id="matplotlib.axis_1">
    <g id="xtick_1">
     <g id="line2d_1">
      <defs>
       <path id="md487038d62" d="M 0 0 
L 0 3.5 
" style="stroke: #000000; stroke-width: 0.8"/>
      </defs>
      <g>
       <use xlink:href="#md487038d62" x="63" y="448.56" style="stroke: #000000; stroke-width: 0.8"/>
      </g>
     </g>
     <g id="text_1">
      <text style="font-size: 16px; font-family: 'Arial', sans-serif; text-anchor: middle" x="63" y="467.0125" transform="rotate(-0 63 467.0125)">0.1</text>
     </g>
    </g>
    <g id="xtick_2">
     <g id="line2d_2">
      <g>
       <use xlink:href="#md487038d62" x="137.963636" y="448.56" style="stroke: #000000; stroke-width: 0.8"/>
      </g>
     </g>
     <g id="text_2">
      <text style="font-size: 16px; font-family: 'Arial', sans-serif; text-anchor: middle" x="137.963636" y="467.0125" transform="rotate(-0 137.963636 467.0125)">2.0</text>
     </g>
    </g>
    <g id="xtick_3">
     <g id="line2d_3">
      <g>
       <use xlink:href="#md487038d62" x="216.872727" y="448.56" style="stroke: #000000; stroke-width: 0.8"/>
      </g>
     </g>
     <g id="text_3">
      <text style="font-size: 16px; font-family: 'Arial', sans-serif; text-anchor: middle" x="216.872727" y="467.0125" transform="rotate(-0 216.872727 467.0125)">4.0</text>
     </g>
    </g>
    <g id="xtick_4">
     <g id="line2d_4">
      <g>
       <use xlink:href="#md487038d62" x="295.781818" y="448.56" style="stroke: #000000; stroke-width: 0.8"/>
      </g>
     </g>
     <g id="text_4">
      <text style="font-size: 16px; font-family: 'Arial', sans-serif; text-anchor: middle" x="295.781818" y="467.0125" transform="rotate(-0 295.781818 467.0125)">6.0</text>
     </g>
    </g>
    <g id="xtick_5">
     <g id="line2d_5">
      <g>
       <use xlink:href="#md487038d62" x="374.690909" y="448.56" style="stroke: #000000; stroke-width: 0.8"/>
      </g>
     </g>
     <g id="text_5">
      <text style="font-size: 16px; font-family: 'Arial', sans-serif; text-anchor: middle" x="374.690909" y="467.0125" transform="rotate(-0 374.690909 467.0125)">8.0</text>
     </g>
    </g>
    <g id="xtick_6">
     <g id="line2d_6">
      <g>
       <use xlink:href="#md487038d62" x="453.6" y="448.56" style="stroke: #000000; stroke-width: 0.8"/>
      </g>
     </g>
     <g id="text_6">
      <text style="font-size: 16px; font-family: 'Arial', sans-serif; text-anchor: middle" x="453.6" y="467.0125" transform="rotate(-0 453.6 467.0125)">10.0</text>
     </g>
    </g>
    <g id="text_7">
     <text style="font-size: 16px; font-family: 'Arial', sans-serif; text-anchor: middle" x="258.3" y="485.84" transform="rotate(-0 258.3 485.84)">Risk threshold (%)</text>
    </g>
   </g>
   <g id="matplotlib.axis_2">
    <g id="ytick_1">
     <g id="line2d_7">
      <defs>
       <path id="mee7b3fe4d2" d="M 0 0 
L -3.5 0 
" style="stroke: #000000; stroke-width: 0.8"/>
      </defs>
      <g>
       <use xlink:href="#mee7b3fe4d2" x="63" y="448.56" style="stroke: #000000; stroke-width: 0.8"/>
      </g>
     </g>
     <g id="text_8">
      <text style="font-size: 16px; font-family: 'Arial', sans-serif; text-anchor: end" x="56" y="454.28625" transform="rotate(-0 56 454.28625)">0</text>
     </g>
    </g>
    <g id="ytick_2">
     <g id="line2d_8">
      <g>
       <use xlink:href="#mee7b3fe4d2" x="63" y="385.966452" style="stroke: #000000; stroke-width: 0.8"/>
      </g>
     </g>
     <g id="text_9">
      <text style="font-size: 16px; font-family: 'Arial', sans-serif; text-anchor: end" x="56" y="391.692702" transform="rotate(-0 56 391.692702)">5</text>
     </g>
    </g>
    <g id="ytick_3">
     <g id="line2d_9">
      <g>
       <use xlink:href="#mee7b3fe4d2" x="63" y="323.372903" style="stroke: #000000; stroke-width: 0.8"/>
      </g>
     </g>
     <g id="text_10">
      <text style="font-size: 16px; font-family: 'Arial', sans-serif; text-anchor: end" x="56" y="329.099153" transform="rotate(-0 56 329.099153)">10</text>
     </g>
    </g>
    <g id="ytick_4">
     <g id="line2d_10">
      <g>
       <use xlink:href="#mee7b3fe4d2" x="63" y="260.779355" style="stroke: #000000; stroke-width: 0.8"/>
      </g>
     </g>
     <g id="text_11">
      <text style="font-size: 16px; font-family: 'Arial', sans-serif; text-anchor: end" x="56" y="266.505605" transform="rotate(-0 56 266.505605)">15</text>
     </g>
    </g>
    <g id="ytick_5">
     <g id="line2d_11">
      <g>
       <use xlink:href="#mee7b3fe4d2" x="63" y="198.185806" style="stroke: #000000; stroke-width: 0.8"/>
      </g>
     </g>
     <g id="text_12">
      <text style="font-size: 16px; font-family: 'Arial', sans-serif; text-anchor: end" x="56" y="203.912056" transform="rotate(-0 56 203.912056)">20</text>
     </g>
    </g>
    <g id="ytick_6">
     <g id="line2d_12">
      <g>
       <use xlink:href="#mee7b3fe4d2" x="63" y="135.592258" style="stroke: #000000; stroke-width: 0.8"/>
      </g>
     </g>
     <g id="text_13">
      <text style="font-size: 16px; font-family: 'Arial', sans-serif; text-anchor: end" x="56" y="141.318508" transform="rotate(-0 56 141.318508)">25</text>
     </g>
    </g>
    <g id="ytick_7">
     <g id="line2d_13">
      <g>
       <use xlink:href="#mee7b3fe4d2" x="63" y="72.99871" style="stroke: #000000; stroke-width: 0.8"/>
      </g>
     </g>
     <g id="text_14">
      <text style="font-size: 16px; font-family: 'Arial', sans-serif; text-anchor: end" x="56" y="78.72496" transform="rotate(-0 56 78.72496)">30</text>
     </g>
    </g>
    <g id="text_15">
     <text style="font-size: 16px; font-family: 'Arial', sans-serif; text-anchor: middle" x="30.8375" y="254.52" transform="rotate(-90 30.8375 254.52)">Days from final case to declaration</text>
    </g>
   </g>
   <g id="line2d_14">
    <path d="M 63 135.592258 
L 66.906 160.629677 
L 70.812 173.148387 
L 74.718 173.148387 
L 78.624 185.667097 
L 82.53 185.667097 
L 86.436 198.185806 
L 90.342 198.185806 
L 94.248 210.704516 
L 98.154 210.704516 
L 102.06 210.704516 
L 105.966 210.704516 
L 109.872 223.223226 
L 113.778 223.223226 
L 117.684 223.223226 
L 121.59 223.223226 
L 125.496 235.741935 
L 129.402 235.741935 
L 133.308 235.741935 
L 137.214 235.741935 
L 141.12 235.741935 
L 145.026 235.741935 
L 148.932 248.260645 
L 152.838 248.260645 
L 156.744 248.260645 
L 160.65 248.260645 
L 164.556 248.260645 
L 168.462 248.260645 
L 172.368 248.260645 
L 176.274 248.260645 
L 180.18 260.779355 
L 184.086 260.779355 
L 187.992 260.779355 
L 191.898 260.779355 
L 195.804 260.779355 
L 199.71 260.779355 
L 203.616 260.779355 
L 207.522 260.779355 
L 211.428 260.779355 
L 215.334 273.298065 
L 219.24 273.298065 
L 223.146 273.298065 
L 227.052 273.298065 
L 230.958 273.298065 
L 234.864 273.298065 
L 238.77 273.298065 
L 242.676 273.298065 
L 246.582 273.298065 
L 250.488 273.298065 
L 254.394 273.298065 
L 258.3 285.816774 
L 262.206 285.816774 
L 266.112 285.816774 
L 270.018 285.816774 
L 273.924 285.816774 
L 277.83 285.816774 
L 281.736 285.816774 
L 285.642 285.816774 
L 289.548 285.816774 
L 293.454 285.816774 
L 297.36 285.816774 
L 301.266 285.816774 
L 305.172 285.816774 
L 309.078 298.335484 
L 312.984 298.335484 
L 316.89 298.335484 
L 320.796 298.335484 
L 324.702 298.335484 
L 328.608 298.335484 
L 332.514 298.335484 
L 336.42 298.335484 
L 340.326 298.335484 
L 344.232 298.335484 
L 348.138 298.335484 
L 352.044 298.335484 
L 355.95 298.335484 
L 359.856 298.335484 
L 363.762 310.854194 
L 367.668 310.854194 
L 371.574 310.854194 
L 375.48 310.854194 
L 379.386 310.854194 
L 383.292 310.854194 
L 387.198 310.854194 
L 391.104 310.854194 
L 395.01 310.854194 
L 398.916 310.854194 
L 402.822 310.854194 
L 406.728 310.854194 
L 410.634 310.854194 
L 414.54 310.854194 
L 418.446 310.854194 
L 422.352 323.372903 
L 426.258 323.372903 
L 430.164 323.372903 
L 434.07 323.372903 
L 437.976 323.372903 
L 441.882 323.372903 
L 445.788 323.372903 
L 449.694 323.372903 
L 453.6 323.372903 
" clip-path="url(#p5dafd7c709)" style="fill: none; stroke: #0173b2; stroke-width: 2; stroke-linecap: square"/>
   </g>
   <g id="line2d_15">
    <path d="M 63 72.99871 
L 66.906 85.517419 
L 70.812 98.036129 
L 74.718 110.554839 
L 78.624 123.073548 
L 82.53 123.073548 
L 86.436 123.073548 
L 90.342 135.592258 
L 94.248 135.592258 
L 98.154 135.592258 
L 102.06 148.110968 
L 105.966 148.110968 
L 109.872 148.110968 
L 113.778 148.110968 
L 117.684 148.110968 
L 121.59 160.629677 
L 125.496 160.629677 
L 129.402 160.629677 
L 133.308 160.629677 
L 137.214 160.629677 
L 141.12 160.629677 
L 145.026 173.148387 
L 148.932 173.148387 
L 152.838 173.148387 
L 156.744 173.148387 
L 160.65 173.148387 
L 164.556 173.148387 
L 168.462 173.148387 
L 172.368 173.148387 
L 176.274 173.148387 
L 180.18 185.667097 
L 184.086 185.667097 
L 187.992 185.667097 
L 191.898 185.667097 
L 195.804 185.667097 
L 199.71 185.667097 
L 203.616 185.667097 
L 207.522 185.667097 
L 211.428 185.667097 
L 215.334 185.667097 
L 219.24 185.667097 
L 223.146 185.667097 
L 227.052 198.185806 
L 230.958 198.185806 
L 234.864 198.185806 
L 238.77 198.185806 
L 242.676 198.185806 
L 246.582 198.185806 
L 250.488 198.185806 
L 254.394 198.185806 
L 258.3 198.185806 
L 262.206 198.185806 
L 266.112 198.185806 
L 270.018 198.185806 
L 273.924 198.185806 
L 277.83 198.185806 
L 281.736 198.185806 
L 285.642 210.704516 
L 289.548 210.704516 
L 293.454 210.704516 
L 297.36 210.704516 
L 301.266 210.704516 
L 305.172 210.704516 
L 309.078 210.704516 
L 312.984 210.704516 
L 316.89 210.704516 
L 320.796 210.704516 
L 324.702 210.704516 
L 328.608 210.704516 
L 332.514 210.704516 
L 336.42 210.704516 
L 340.326 210.704516 
L 344.232 210.704516 
L 348.138 210.704516 
L 352.044 210.704516 
L 355.95 210.704516 
L 359.856 210.704516 
L 363.762 223.223226 
L 367.668 223.223226 
L 371.574 223.223226 
L 375.48 223.223226 
L 379.386 223.223226 
L 383.292 223.223226 
L 387.198 223.223226 
L 391.104 223.223226 
L 395.01 223.223226 
L 398.916 223.223226 
L 402.822 223.223226 
L 406.728 223.223226 
L 410.634 223.223226 
L 414.54 223.223226 
L 418.446 223.223226 
L 422.352 223.223226 
L 426.258 223.223226 
L 430.164 223.223226 
L 434.07 223.223226 
L 437.976 223.223226 
L 441.882 223.223226 
L 445.788 223.223226 
L 449.694 223.223226 
L 453.6 235.741935 
" clip-path="url(#p5dafd7c709)" style="fill: none; stroke: #de8f05; stroke-width: 2; stroke-linecap: square"/>
   </g>
   <g id="line2d_16">
    <path d="M 63 298.335484 
L 453.6 298.335484 
" clip-path="url(#p5dafd7c709)" style="fill: none; stroke-dasharray: 7.4,3.2; stroke-dashoffset: 0; stroke: #029e73; stroke-width: 2"/>
   </g>
   <g id="line2d_17">
    <path d="M 63 123.073548 
L 453.6 123.073548 
" clip-path="url(#p5dafd7c709)" style="fill: none; stroke-dasharray: 7.4,3.2; stroke-dashoffset: 0; stroke: #d55e00; stroke-width: 2"/>
   </g>
   <g id="patch_3">
    <path d="M 63 448.56 
L 63 60.48 
" style="fill: none; stroke: #000000; stroke-width: 0.8; stroke-linejoin: miter; stroke-linecap: square"/>
   </g>
   <g id="patch_4">
    <path d="M 63 448.56 
L 453.6 448.56 
" style="fill: none; stroke: #000000; stroke-width: 0.8; stroke-linejoin: miter; stroke-linecap: square"/>
   </g>
   <g id="legend_1">
    <g id="patch_5">
     <path d="M 72.8 441.56 
L 302.774063 441.56 
Q 305.574063 441.56 305.574063 438.76 
L 305.574063 359.778125 
Q 305.574063 356.978125 302.774063 356.978125 
L 72.8 356.978125 
Q 70 356.978125 70 359.778125 
L 70 438.76 
Q 70 441.56 72.8 441.56 
z
" style="fill: #ffffff; opacity: 0.8; stroke: #cccccc; stroke-linejoin: miter"/>
    </g>
    <g id="line2d_18">
     <path d="M 75.6 367.869688 
L 89.6 367.869688 
L 103.6 367.869688 
" style="fill: none; stroke: #0173b2; stroke-width: 2; stroke-linecap: square"/>
    </g>
    <g id="text_16">
     <text style="font-size: 14px; font-family: 'Arial', sans-serif; text-anchor: start" x="114.8" y="372.769688" transform="rotate(-0 114.8 372.769688)">Suitability-based</text>
    </g>
    <g id="line2d_19">
     <path d="M 75.6 387.837188 
L 89.6 387.837188 
L 103.6 387.837188 
" style="fill: none; stroke: #de8f05; stroke-width: 2; stroke-linecap: square"/>
    </g>
    <g id="text_17">
     <text style="font-size: 14px; font-family: 'Arial', sans-serif; text-anchor: start" x="114.8" y="392.737188" transform="rotate(-0 114.8 392.737188)">Autoregressive</text>
    </g>
    <g id="line2d_20">
     <path d="M 75.6 407.975313 
L 89.6 407.975313 
L 103.6 407.975313 
" style="fill: none; stroke-dasharray: 7.4,3.2; stroke-dashoffset: 0; stroke: #029e73; stroke-width: 2"/>
    </g>
    <g id="text_18">
     <text style="font-size: 14px; font-family: 'Arial', sans-serif; text-anchor: start" x="114.8" y="412.875313" transform="rotate(-0 114.8 412.875313)">Blood measures lifted (Rome)</text>
    </g>
    <g id="line2d_21">
     <path d="M 75.6 428.113438 
L 89.6 428.113438 
L 103.6 428.113438 
" style="fill: none; stroke-dasharray: 7.4,3.2; stroke-dashoffset: 0; stroke: #d55e00; stroke-width: 2"/>
    </g>
    <g id="text_19">
     <text style="font-size: 14px; font-family: 'Arial', sans-serif; text-anchor: start" x="114.8" y="433.013438" transform="rotate(-0 114.8 433.013438)">Blood measures lifted (Anzio)</text>
    </g>
   </g>
  </g>
 </g>
 <defs>
  <clipPath id="p5dafd7c709">
   <rect x="63" y="60.48" width="390.6" height="388.08"/>
  </clipPath>
 </defs>
</svg>
