<?xml version="1.0" encoding="utf-8" standalone="no"?>
<!DOCTYPE svg PUBLIC "-//W3C//DTD SVG 1.1//EN"
  "http://www.w3.org/Graphics/SVG/1.1/DTD/svg11.dtd">
<svg xmlns:xlink="http://www.w3.org/1999/xlink" width="504pt" height="504pt" viewBox="0 0 504 504" xmlns="http://www.w3.org/2000/svg" version="1.1">
 <metadata>
  <rdf:RDF xmlns:dc="http://purl.org/dc/elements/1.1/" xmlns:cc="http://creativecommons.org/ns#" xmlns:rdf="http://www.w3.org/1999/02/22-rdf-syntax-ns#">
   <cc:Work>
    <dc:type rdf:resource="http://purl.org/dc/dcmitype/StillImage"/>
    <dc:date>2026-02-13T14:45:27.927763</dc:date>
    <dc:format>image/svg+xml</dc:format>
    <dc:creator>
     <cc:Agent>
      <dc:title>Matplotlib v3.10.8, https://matplotlib.org/</dc:title>
     </cc:Agent>
    </dc:creator>
   </cc:Work>
  </rdf:RDF>
 </metadata>
 <defs>
  <style type="text/css">*{stroke-linejoin: round; stroke-linecap: butt}</style>
 </defs>
 <g id="figure_1">
  <g id="patch_1">
   <path d="M 0 504 
L 504 504 
L 504 0 
L 0 0 
L 0 504 
z
" style="fill: none"/>
  </g>
  <g id="axes_1">
   <g id="patch_2">
    <path d="M 63 448.56 
L 453.6 448.56 
L 453.6 60.48 
L 63 60.48 
L 63 448.56 
z
" style="fill: none"/>
   </g>
   <g id="FillBetweenPolyCollection_1">
    <defs>
     <path id="md35c76a287" d="M 81.571786 -421.279806 
L 81.571786 -93.204265 
L 83.614886 -94.660341 
L 85.657987 -94.096241 
L 87.701088 -91.863166 
L 89.744189 -87.642268 
L 91.787289 -86.140188 
L 93.83039 -84.911049 
L 95.873491 -83.426475 
L 97.916592 -82.079675 
L 99.959692 -80.677648 
L 102.002793 -78.845621 
L 104.045894 -77.581826 
L 106.088995 -77.411369 
L 108.132095 -77.22533 
L 110.175196 -77.432145 
L 112.218297 -77.694984 
L 114.261398 -78.20457 
L 116.304498 -79.510942 
L 118.347599 -80.868365 
L 120.3907 -83.246985 
L 122.433801 -85.070263 
L 124.476901 -87.035664 
L 126.520002 -88.725459 
L 128.563103 -91.407659 
L 130.606204 -93.460908 
L 132.649304 -95.31683 
L 134.692405 -97.291509 
L 136.735506 -98.282725 
L 138.778607 -100.42737 
L 140.821707 -102.116879 
L 142.864808 -103.113095 
L 144.907909 -105.247812 
L 146.95101 -105.910939 
L 148.99411 -104.855926 
L 151.037211 -106.970475 
L 153.080312 -108.240333 
L 155.123412 -111.493112 
L 157.166513 -114.621068 
L 159.209614 -115.884184 
L 161.252715 -114.933059 
L 163.295815 -115.65847 
L 165.338916 -115.424618 
L 167.382017 -116.617944 
L 169.425118 -119.349149 
L 171.468218 -117.657497 
L 173.511319 -119.257337 
L 175.55442 -124.14012 
L 177.597521 -132.315307 
L 179.640621 -135.972105 
L 181.683722 -138.97655 
L 183.726823 -142.976455 
L 185.769924 -151.200795 
L 187.813024 -157.409194 
L 189.856125 -166.737167 
L 191.899226 -163.35827 
L 193.942327 -158.421983 
L 195.985427 -144.956426 
L 198.028528 -132.188008 
L 200.071629 -123.080816 
L 202.11473 -114.685078 
L 204.15783 -104.316692 
L 206.200931 -98.371145 
L 208.244032 -97.789152 
L 210.287133 -94.437494 
L 212.330233 -93.761694 
L 214.373334 -94.890432 
L 216.416435 -102.350957 
L 218.459536 -106.736854 
L 220.502636 -110.607064 
L 222.545737 -114.186487 
L 224.588838 -119.460666 
L 226.631938 -125.913262 
L 228.675039 -125.151891 
L 230.71814 -118.711564 
L 232.761241 -115.452244 
L 234.804341 -107.013341 
L 236.847442 -109.852119 
L 238.890543 -101.362403 
L 240.933644 -90.284696 
L 242.976744 -83.634811 
L 245.019845 -80.380865 
L 247.062946 -80.967802 
L 249.106047 -82.919908 
L 251.149147 -84.386687 
L 253.192248 -81.26725 
L 255.235349 -78.291236 
L 257.27845 -74.489244 
L 259.32155 -71.713978 
L 261.364651 -68.898376 
L 263.407752 -66.848153 
L 265.450853 -65.485236 
L 267.493953 -64.232057 
L 269.537054 -63.962239 
L 271.580155 -63.874037 
L 273.623256 -63.776679 
L 275.666356 -63.491935 
L 277.709457 -63.597713 
L 279.752558 -63.05026 
L 281.795659 -62.528524 
L 283.838759 -62.294782 
L 285.88186 -62.252541 
L 287.924961 -62.373961 
L 289.968062 -62.180441 
L 292.011162 -61.819611 
L 294.054263 -61.834708 
L 296.097364 -61.716249 
L 298.140464 -61.582833 
L 300.183565 -61.47739 
L 302.226666 -61.530821 
L 304.269767 -61.580354 
L 306.312867 -61.792797 
L 308.355968 -61.854746 
L 310.399069 -61.724878 
L 312.44217 -61.541037 
L 314.48527 -61.619031 
L 316.528371 -61.686049 
L 318.571472 -61.653851 
L 320.614573 -61.510659 
L 322.657673 -61.681115 
L 324.700774 -61.428958 
L 326.743875 -61.396617 
L 328.786976 -61.555882 
L 330.830076 -61.767998 
L 332.873177 -61.99126 
L 334.916278 -61.829504 
L 336.959379 -62.057405 
L 339.002479 -62.137134 
L 341.04558 -62.010667 
L 343.088681 -62.223258 
L 345.131782 -62.235219 
L 347.174882 -62.218663 
L 349.217983 -62.239528 
L 351.261084 -62.304414 
L 353.304185 -62.125078 
L 355.347285 -62.042217 
L 357.390386 -61.857217 
L 359.433487 -61.970035 
L 361.476588 -61.901015 
L 363.519688 -61.559336 
L 365.562789 -61.674465 
L 367.60589 -61.574139 
L 369.64899 -61.749589 
L 371.692091 -61.751612 
L 373.735192 -61.560757 
L 375.778293 -61.580077 
L 377.821393 -61.714047 
L 379.864494 -61.5622 
L 381.907595 -61.61236 
L 383.950696 -61.501023 
L 385.993796 -61.635431 
L 388.036897 -61.640657 
L 390.079998 -61.405622 
L 392.123099 -61.436487 
L 394.166199 -61.684393 
L 396.2093 -61.60958 
L 398.252401 -61.603919 
L 400.295502 -61.742018 
L 402.338602 -61.89053 
L 404.381703 -61.691905 
L 406.424804 -61.91155 
L 408.467905 -61.794649 
L 410.511005 -61.871943 
L 412.554106 -62.075205 
L 414.597207 -62.078973 
L 416.640308 -61.943774 
L 418.683408 -61.946492 
L 420.726509 -61.850904 
L 422.76961 -61.852628 
L 424.812711 -62.027904 
L 426.855811 -61.968803 
L 428.898912 -61.975218 
L 430.942013 -61.869208 
L 432.985114 -61.877499 
L 435.028214 -62.295066 
L 435.028214 -213.60736 
L 435.028214 -213.60736 
L 432.985114 -207.762771 
L 430.942013 -206.614128 
L 428.898912 -204.114815 
L 426.855811 -199.305998 
L 424.812711 -198.695257 
L 422.76961 -194.522814 
L 420.726509 -194.065559 
L 418.683408 -189.457347 
L 416.640308 -182.811636 
L 414.597207 -181.275635 
L 412.554106 -181.423193 
L 410.511005 -177.157634 
L 408.467905 -175.141208 
L 406.424804 -172.770468 
L 404.381703 -164.187989 
L 402.338602 -161.069836 
L 400.295502 -158.315224 
L 398.252401 -155.420134 
L 396.2093 -150.580296 
L 394.166199 -150.510366 
L 392.123099 -146.000399 
L 390.079998 -143.327151 
L 388.036897 -139.871555 
L 385.993796 -135.695552 
L 383.950696 -135.061329 
L 381.907595 -132.309958 
L 379.864494 -129.539295 
L 377.821393 -128.134956 
L 375.778293 -124.38263 
L 373.735192 -121.104712 
L 371.692091 -121.91948 
L 369.64899 -118.555421 
L 367.60589 -118.061956 
L 365.562789 -116.556395 
L 363.519688 -115.132686 
L 361.476588 -116.554834 
L 359.433487 -115.552516 
L 357.390386 -116.038069 
L 355.347285 -115.556563 
L 353.304185 -115.408157 
L 351.261084 -114.866053 
L 349.217983 -112.054375 
L 347.174882 -109.809037 
L 345.131782 -107.701631 
L 343.088681 -106.860346 
L 341.04558 -104.245964 
L 339.002479 -103.212613 
L 336.959379 -102.212083 
L 334.916278 -98.585428 
L 332.873177 -97.582161 
L 330.830076 -95.14609 
L 328.786976 -93.463852 
L 326.743875 -91.275874 
L 324.700774 -90.113183 
L 322.657673 -89.106085 
L 320.614573 -88.43275 
L 318.571472 -87.314587 
L 316.528371 -87.687093 
L 314.48527 -86.162513 
L 312.44217 -84.854038 
L 310.399069 -83.786994 
L 308.355968 -83.830069 
L 306.312867 -82.947535 
L 304.269767 -81.329413 
L 302.226666 -81.249984 
L 300.183565 -80.208275 
L 298.140464 -79.801538 
L 296.097364 -78.984431 
L 294.054263 -78.917197 
L 292.011162 -78.365736 
L 289.968062 -78.482948 
L 287.924961 -78.345378 
L 285.88186 -77.522891 
L 283.838759 -77.230883 
L 281.795659 -77.093363 
L 279.752558 -78.165967 
L 277.709457 -78.460867 
L 275.666356 -78.024315 
L 273.623256 -78.378538 
L 271.580155 -78.278041 
L 269.537054 -78.323594 
L 267.493953 -78.825285 
L 265.450853 -81.108061 
L 263.407752 -83.498242 
L 261.364651 -87.881585 
L 259.32155 -92.524186 
L 257.27845 -97.243676 
L 255.235349 -104.263435 
L 253.192248 -108.523696 
L 251.149147 -114.609173 
L 249.106047 -111.150947 
L 247.062946 -107.673392 
L 245.019845 -108.088476 
L 242.976744 -115.016826 
L 240.933644 -127.359416 
L 238.890543 -149.315692 
L 236.847442 -164.094003 
L 234.804341 -158.016826 
L 232.761241 -175.476131 
L 230.71814 -181.419155 
L 228.675039 -191.903834 
L 226.631938 -193.010242 
L 224.588838 -182.108147 
L 222.545737 -172.637255 
L 220.502636 -165.906832 
L 218.459536 -160.553001 
L 216.416435 -156.501478 
L 214.373334 -141.817291 
L 212.330233 -139.399851 
L 210.287133 -141.409148 
L 208.244032 -150.100779 
L 206.200931 -151.321844 
L 204.15783 -165.573881 
L 202.11473 -191.389294 
L 200.071629 -208.200676 
L 198.028528 -226.659168 
L 195.985427 -254.896906 
L 193.942327 -285.116437 
L 191.899226 -295.972201 
L 189.856125 -309.82818 
L 187.813024 -297.860977 
L 185.769924 -280.307109 
L 183.726823 -264.986656 
L 181.683722 -264.992702 
L 179.640621 -257.885677 
L 177.597521 -255.751947 
L 175.55442 -240.398709 
L 173.511319 -232.440073 
L 171.468218 -232.76857 
L 169.425118 -240.681931 
L 167.382017 -240.684445 
L 165.338916 -238.322719 
L 163.295815 -241.187817 
L 161.252715 -240.972861 
L 159.209614 -247.483386 
L 157.166513 -248.53955 
L 155.123412 -241.854377 
L 153.080312 -235.726345 
L 151.037211 -239.785115 
L 148.99411 -242.952281 
L 146.95101 -246.218147 
L 144.907909 -248.383054 
L 142.864808 -255.716134 
L 140.821707 -258.309335 
L 138.778607 -260.510329 
L 136.735506 -255.792838 
L 134.692405 -253.819911 
L 132.649304 -242.198923 
L 130.606204 -233.505916 
L 128.563103 -223.588121 
L 126.520002 -212.243513 
L 124.476901 -199.775383 
L 122.433801 -189.352494 
L 120.3907 -176.418321 
L 118.347599 -167.698765 
L 116.304498 -160.011271 
L 114.261398 -154.409639 
L 112.218297 -150.452829 
L 110.175196 -149.804371 
L 108.132095 -149.811809 
L 106.088995 -154.36084 
L 104.045894 -159.590137 
L 102.002793 -170.108353 
L 99.959692 -184.022886 
L 97.916592 -196.286695 
L 95.873491 -216.750295 
L 93.83039 -238.650534 
L 91.787289 -270.075347 
L 89.744189 -309.918333 
L 87.701088 -352.698972 
L 85.657987 -393.394449 
L 83.614886 -426.561763 
L 81.571786 -421.279806 
z
" style="stroke: #0173b2; stroke-opacity: 0.3"/>
    </defs>
    <g clip-path="url(#pc738878839)">
     <use xlink:href="#md35c76a287" x="0" y="504" style="fill: #0173b2; fill-opacity: 0.3; stroke: #0173b2; stroke-opacity: 0.3"/>
    </g>
   </g>
   <g id="FillBetweenPolyCollection_2">
    <defs>
     <path id="md9fd2a3273" d="M 81.571786 -400.242818 
L 81.571786 -90.61668 
L 83.614886 -93.961413 
L 85.657987 -93.575614 
L 87.701088 -90.613906 
L 89.744189 -87.899048 
L 91.787289 -85.780921 
L 93.83039 -84.546318 
L 95.873491 -83.21391 
L 97.916592 -81.511891 
L 99.959692 -80.449749 
L 102.002793 -79.316918 
L 104.045894 -78.621367 
L 106.088995 -77.667862 
L 108.132095 -77.017171 
L 110.175196 -77.709413 
L 112.218297 -78.377209 
L 114.261398 -78.91374 
L 116.304498 -80.10895 
L 118.347599 -81.689262 
L 120.3907 -84.155842 
L 122.433801 -85.056556 
L 124.476901 -87.603283 
L 126.520002 -89.609619 
L 128.563103 -92.035912 
L 130.606204 -95.411247 
L 132.649304 -95.746563 
L 134.692405 -98.620609 
L 136.735506 -99.827717 
L 138.778607 -102.283969 
L 140.821707 -103.364649 
L 142.864808 -104.080072 
L 144.907909 -105.253029 
L 146.95101 -104.623451 
L 148.99411 -104.294352 
L 151.037211 -105.760563 
L 153.080312 -107.336855 
L 155.123412 -109.63828 
L 157.166513 -115.06335 
L 159.209614 -114.975894 
L 161.252715 -115.499524 
L 163.295815 -114.76772 
L 165.338916 -115.308318 
L 167.382017 -116.420673 
L 169.425118 -119.116453 
L 171.468218 -117.443422 
L 173.511319 -119.464595 
L 175.55442 -124.907299 
L 177.597521 -131.722208 
L 179.640621 -137.036485 
L 181.683722 -140.118207 
L 183.726823 -142.921457 
L 185.769924 -152.21512 
L 187.813024 -160.660953 
L 189.856125 -167.108791 
L 191.899226 -163.476534 
L 193.942327 -160.611522 
L 195.985427 -144.930074 
L 198.028528 -132.961435 
L 200.071629 -123.744033 
L 202.11473 -115.650292 
L 204.15783 -104.147583 
L 206.200931 -98.655376 
L 208.244032 -98.428432 
L 210.287133 -94.628725 
L 212.330233 -94.750148 
L 214.373334 -95.826464 
L 216.416435 -103.399023 
L 218.459536 -107.717994 
L 220.502636 -111.085068 
L 222.545737 -114.849596 
L 224.588838 -120.284275 
L 226.631938 -125.723453 
L 228.675039 -126.397386 
L 230.71814 -118.640104 
L 232.761241 -116.79602 
L 234.804341 -108.080361 
L 236.847442 -110.746651 
L 238.890543 -102.59352 
L 240.933644 -90.25942 
L 242.976744 -83.840619 
L 245.019845 -80.520851 
L 247.062946 -80.757553 
L 249.106047 -82.943521 
L 251.149147 -84.719983 
L 253.192248 -81.242409 
L 255.235349 -78.492543 
L 257.27845 -74.650756 
L 259.32155 -71.99293 
L 261.364651 -69.067394 
L 263.407752 -67.068784 
L 265.450853 -65.337099 
L 267.493953 -64.265715 
L 269.537054 -63.699844 
L 271.580155 -63.612873 
L 273.623256 -63.320715 
L 275.666356 -62.747555 
L 277.709457 -62.517949 
L 279.752558 -61.998632 
L 281.795659 -61.251047 
L 283.838759 -60.813745 
L 285.88186 -60.607212 
L 287.924961 -60.479577 
L 289.968062 -59.997011 
L 292.011162 -59.559209 
L 294.054263 -59.199756 
L 296.097364 -58.96156 
L 298.140464 -58.765906 
L 300.183565 -58.452154 
L 302.226666 -58.232639 
L 304.269767 -58.330727 
L 306.312867 -58.494195 
L 308.355968 -58.463673 
L 310.399069 -58.229262 
L 312.44217 -58.026324 
L 314.48527 -57.772578 
L 316.528371 -57.838815 
L 318.571472 -57.55451 
L 320.614573 -57.289748 
L 322.657673 -57.166839 
L 324.700774 -56.926416 
L 326.743875 -56.898227 
L 328.786976 -56.912592 
L 330.830076 -57.034207 
L 332.873177 -57.169579 
L 334.916278 -57.34048 
L 336.959379 -57.451521 
L 339.002479 -57.290426 
L 341.04558 -57.264081 
L 343.088681 -57.112319 
L 345.131782 -56.877769 
L 347.174882 -56.883089 
L 349.217983 -57.061071 
L 351.261084 -57.109101 
L 353.304185 -56.544603 
L 355.347285 -56.010665 
L 357.390386 -55.572834 
L 359.433487 -55.440002 
L 361.476588 -55.440002 
L 363.519688 -55.440001 
L 365.562789 -55.440001 
L 367.60589 -55.440001 
L 369.64899 -55.440001 
L 371.692091 -55.440001 
L 373.735192 -55.440001 
L 375.778293 -55.440001 
L 377.821393 -55.440001 
L 379.864494 -55.440001 
L 381.907595 -55.44 
L 383.950696 -55.44 
L 385.993796 -55.44 
L 388.036897 -55.44 
L 390.079998 -55.44 
L 392.123099 -55.44 
L 394.166199 -55.44 
L 396.2093 -55.44 
L 398.252401 -55.44 
L 400.295502 -55.44 
L 402.338602 -55.44 
L 404.381703 -55.44 
L 406.424804 -55.44 
L 408.467905 -55.44 
L 410.511005 -55.44 
L 412.554106 -55.44 
L 414.597207 -55.44 
L 416.640308 -55.44 
L 418.683408 -55.44 
L 420.726509 -55.44 
L 422.76961 -55.44 
L 424.812711 -55.44 
L 426.855811 -55.44 
L 428.898912 -55.44 
L 430.942013 -55.44 
L 432.985114 -55.44 
L 435.028214 -55.44 
L 435.028214 -71.0234 
L 435.028214 -71.0234 
L 432.985114 -71.610803 
L 430.942013 -72.252765 
L 428.898912 -71.642046 
L 426.855811 -72.251112 
L 424.812711 -71.000246 
L 422.76961 -72.028365 
L 420.726509 -71.843582 
L 418.683408 -71.647077 
L 416.640308 -72.268286 
L 414.597207 -72.962548 
L 412.554106 -72.620665 
L 410.511005 -73.775663 
L 408.467905 -73.464834 
L 406.424804 -74.493234 
L 404.381703 -74.5117 
L 402.338602 -73.899625 
L 400.295502 -74.668447 
L 398.252401 -75.413605 
L 396.2093 -75.347723 
L 394.166199 -75.186495 
L 392.123099 -75.965541 
L 390.079998 -75.544539 
L 388.036897 -75.908899 
L 385.993796 -76.606103 
L 383.950696 -77.197744 
L 381.907595 -78.558042 
L 379.864494 -78.906784 
L 377.821393 -79.075929 
L 375.778293 -77.894774 
L 373.735192 -78.712547 
L 371.692091 -79.013786 
L 369.64899 -80.112275 
L 367.60589 -78.750473 
L 365.562789 -79.896685 
L 363.519688 -80.433052 
L 361.476588 -82.524647 
L 359.433487 -82.703431 
L 357.390386 -84.302548 
L 355.347285 -83.95357 
L 353.304185 -85.752369 
L 351.261084 -86.716451 
L 349.217983 -87.152893 
L 347.174882 -87.359502 
L 345.131782 -86.124076 
L 343.088681 -84.678882 
L 341.04558 -85.547467 
L 339.002479 -84.251961 
L 336.959379 -84.190261 
L 334.916278 -83.055948 
L 332.873177 -82.2471 
L 330.830076 -81.317772 
L 328.786976 -80.016255 
L 326.743875 -79.028451 
L 324.700774 -78.497721 
L 322.657673 -78.410726 
L 320.614573 -77.414567 
L 318.571472 -77.340334 
L 316.528371 -77.385622 
L 314.48527 -77.145219 
L 312.44217 -76.519122 
L 310.399069 -76.74787 
L 308.355968 -76.484979 
L 306.312867 -76.566101 
L 304.269767 -75.280947 
L 302.226666 -75.104239 
L 300.183565 -74.801408 
L 298.140464 -74.830719 
L 296.097364 -74.624569 
L 294.054263 -74.75667 
L 292.011162 -74.930752 
L 289.968062 -75.677794 
L 287.924961 -75.444469 
L 285.88186 -75.226296 
L 283.838759 -74.525544 
L 281.795659 -75.092192 
L 279.752558 -76.663956 
L 277.709457 -77.768834 
L 275.666356 -77.606674 
L 273.623256 -78.377675 
L 271.580155 -77.681947 
L 269.537054 -77.835036 
L 267.493953 -78.34967 
L 265.450853 -80.655531 
L 263.407752 -83.403946 
L 261.364651 -87.534673 
L 259.32155 -92.498113 
L 257.27845 -97.303006 
L 255.235349 -105.538874 
L 253.192248 -110.147142 
L 251.149147 -116.567453 
L 249.106047 -112.915164 
L 247.062946 -108.719206 
L 245.019845 -109.186767 
L 242.976744 -115.352303 
L 240.933644 -128.434848 
L 238.890543 -147.888061 
L 236.847442 -164.137207 
L 234.804341 -159.29777 
L 232.761241 -176.756655 
L 230.71814 -181.208745 
L 228.675039 -194.816282 
L 226.631938 -192.761031 
L 224.588838 -183.003105 
L 222.545737 -172.105011 
L 220.502636 -166.612719 
L 218.459536 -163.036074 
L 216.416435 -153.424312 
L 214.373334 -140.640166 
L 212.330233 -137.696999 
L 210.287133 -139.476341 
L 208.244032 -150.466274 
L 206.200931 -151.65923 
L 204.15783 -163.714194 
L 202.11473 -188.172708 
L 200.071629 -206.506324 
L 198.028528 -226.136073 
L 195.985427 -256.12144 
L 193.942327 -285.574961 
L 191.899226 -297.641987 
L 189.856125 -306.790095 
L 187.813024 -295.775022 
L 185.769924 -281.619309 
L 183.726823 -267.446542 
L 181.683722 -261.769871 
L 179.640621 -255.192142 
L 177.597521 -252.834415 
L 175.55442 -237.604802 
L 173.511319 -232.020434 
L 171.468218 -231.320936 
L 169.425118 -235.635034 
L 167.382017 -232.611101 
L 165.338916 -233.95348 
L 163.295815 -234.600781 
L 161.252715 -237.326125 
L 159.209614 -247.598608 
L 157.166513 -247.486828 
L 155.123412 -234.989256 
L 153.080312 -230.774718 
L 151.037211 -236.594271 
L 148.99411 -235.523965 
L 146.95101 -244.035592 
L 144.907909 -246.018024 
L 142.864808 -247.267761 
L 140.821707 -251.475592 
L 138.778607 -253.024613 
L 136.735506 -248.287693 
L 134.692405 -245.468525 
L 132.649304 -237.832521 
L 130.606204 -232.733596 
L 128.563103 -222.98652 
L 126.520002 -210.02661 
L 124.476901 -201.926432 
L 122.433801 -187.278515 
L 120.3907 -180.358643 
L 118.347599 -170.582808 
L 116.304498 -163.815023 
L 114.261398 -158.874502 
L 112.218297 -155.506791 
L 110.175196 -153.453298 
L 108.132095 -154.316332 
L 106.088995 -155.180523 
L 104.045894 -162.846488 
L 102.002793 -173.3314 
L 99.959692 -188.57042 
L 97.916592 -197.624527 
L 95.873491 -225.768478 
L 93.83039 -242.574773 
L 91.787289 -273.392489 
L 89.744189 -311.618045 
L 87.701088 -340.438345 
L 85.657987 -385.068642 
L 83.614886 -408.754428 
L 81.571786 -400.242818 
z
" style="stroke: #de8f05; stroke-opacity: 0.3"/>
    </defs>
    <g clip-path="url(#pc738878839)">
     <use xlink:href="#md9fd2a3273" x="0" y="504" style="fill: #de8f05; fill-opacity: 0.3; stroke: #de8f05; stroke-opacity: 0.3"/>
    </g>
   </g>
   <g id="matplotlib.axis_1">
    <g id="xtick_1">
     <g id="line2d_1">
      <defs>
       <path id="mddcb69a555" d="M 0 0 
L 0 3.5 
" style="stroke: #000000; stroke-width: 0.8"/>
      </defs>
      <g>
       <use xlink:href="#mddcb69a555" x="91.787289" y="448.56" style="stroke: #000000; stroke-width: 0.8"/>
      </g>
     </g>
     <g id="text_1">
      <text style="font-size: 16px; font-family: 'Arial', sans-serif; text-anchor: middle" x="91.787289" y="467.0125" transform="rotate(-0 91.787289 467.0125)">1 Jul</text>
     </g>
    </g>
    <g id="xtick_2">
     <g id="line2d_2">
      <g>
       <use xlink:href="#mddcb69a555" x="155.123412" y="448.56" style="stroke: #000000; stroke-width: 0.8"/>
      </g>
     </g>
     <g id="text_2">
      <text style="font-size: 16px; font-family: 'Arial', sans-serif; text-anchor: middle" x="155.123412" y="467.06" transform="rotate(-0 155.123412 467.06)">1 Aug</text>
     </g>
    </g>
    <g id="xtick_3">
     <g id="line2d_3">
      <g>
       <use xlink:href="#mddcb69a555" x="218.459536" y="448.56" style="stroke: #000000; stroke-width: 0.8"/>
      </g>
     </g>
     <g id="text_3">
      <text style="font-size: 16px; font-family: 'Arial', sans-serif; text-anchor: middle" x="218.459536" y="467.2075" transform="rotate(-0 218.459536 467.2075)">1 Sep</text>
     </g>
    </g>
    <g id="xtick_4">
     <g id="line2d_4">
      <g>
       <use xlink:href="#mddcb69a555" x="279.752558" y="448.56" style="stroke: #000000; stroke-width: 0.8"/>
      </g>
     </g>
     <g id="text_4">
      <text style="font-size: 16px; font-family: 'Arial', sans-serif; text-anchor: middle" x="279.752558" y="467.0125" transform="rotate(-0 279.752558 467.0125)">1 Oct</text>
     </g>
    </g>
    <g id="xtick_5">
     <g id="line2d_5">
      <g>
       <use xlink:href="#mddcb69a555" x="343.088681" y="448.56" style="stroke: #000000; stroke-width: 0.8"/>
      </g>
     </g>
     <g id="text_5">
      <text style="font-size: 16px; font-family: 'Arial', sans-serif; text-anchor: middle" x="343.088681" y="467.0125" transform="rotate(-0 343.088681 467.0125)">1 Nov</text>
     </g>
    </g>
    <g id="xtick_6">
     <g id="line2d_6">
      <g>
       <use xlink:href="#mddcb69a555" x="404.381703" y="448.56" style="stroke: #000000; stroke-width: 0.8"/>
      </g>
     </g>
     <g id="text_6">
      <text style="font-size: 16px; font-family: 'Arial', sans-serif; text-anchor: middle" x="404.381703" y="467.0125" transform="rotate(-0 404.381703 467.0125)">1 Dec</text>
     </g>
    </g>
   </g>
   <g id="matplotlib.axis_2">
    <g id="ytick_1">
     <g id="line2d_7">
      <defs>
       <path id="mf8bee51329" d="M 0 0 
L -3.5 0 
" style="stroke: #000000; stroke-width: 0.8"/>
      </defs>
      <g>
       <use xlink:href="#mf8bee51329" x="63" y="448.56" style="stroke: #000000; stroke-width: 0.8"/>
      </g>
     </g>
     <g id="text_7">
      <text style="font-size: 16px; font-family: 'Arial', sans-serif; text-anchor: end" x="56" y="454.28625" transform="rotate(-0 56 454.28625)">0</text>
     </g>
    </g>
    <g id="ytick_2">
     <g id="line2d_8">
      <g>
       <use xlink:href="#mf8bee51329" x="63" y="400.05" style="stroke: #000000; stroke-width: 0.8"/>
      </g>
     </g>
     <g id="text_8">
      <text style="font-size: 16px; font-family: 'Arial', sans-serif; text-anchor: end" x="56" y="405.77625" transform="rotate(-0 56 405.77625)">1</text>
     </g>
    </g>
    <g id="ytick_3">
     <g id="line2d_9">
      <g>
       <use xlink:href="#mf8bee51329" x="63" y="351.54" style="stroke: #000000; stroke-width: 0.8"/>
      </g>
     </g>
     <g id="text_9">
      <text style="font-size: 16px; font-family: 'Arial', sans-serif; text-anchor: end" x="56" y="357.26625" transform="rotate(-0 56 357.26625)">2</text>
     </g>
    </g>
    <g id="ytick_4">
     <g id="line2d_10">
      <g>
       <use xlink:href="#mf8bee51329" x="63" y="303.03" style="stroke: #000000; stroke-width: 0.8"/>
      </g>
     </g>
     <g id="text_10">
      <text style="font-size: 16px; font-family: 'Arial', sans-serif; text-anchor: end" x="56" y="308.75625" transform="rotate(-0 56 308.75625)">3</text>
     </g>
    </g>
    <g id="ytick_5">
     <g id="line2d_11">
      <g>
       <use xlink:href="#mf8bee51329" x="63" y="254.52" style="stroke: #000000; stroke-width: 0.8"/>
      </g>
     </g>
     <g id="text_11">
      <text style="font-size: 16px; font-family: 'Arial', sans-serif; text-anchor: end" x="56" y="260.24625" transform="rotate(-0 56 260.24625)">4</text>
     </g>
    </g>
    <g id="ytick_6">
     <g id="line2d_12">
      <g>
       <use xlink:href="#mf8bee51329" x="63" y="206.01" style="stroke: #000000; stroke-width: 0.8"/>
      </g>
     </g>
     <g id="text_12">
      <text style="font-size: 16px; font-family: 'Arial', sans-serif; text-anchor: end" x="56" y="211.73625" transform="rotate(-0 56 211.73625)">5</text>
     </g>
    </g>
    <g id="ytick_7">
     <g id="line2d_13">
      <g>
       <use xlink:href="#mf8bee51329" x="63" y="157.5" style="stroke: #000000; stroke-width: 0.8"/>
      </g>
     </g>
     <g id="text_13">
      <text style="font-size: 16px; font-family: 'Arial', sans-serif; text-anchor: end" x="56" y="163.22625" transform="rotate(-0 56 163.22625)">6</text>
     </g>
    </g>
    <g id="ytick_8">
     <g id="line2d_14">
      <g>
       <use xlink:href="#mf8bee51329" x="63" y="108.99" style="stroke: #000000; stroke-width: 0.8"/>
      </g>
     </g>
     <g id="text_14">
      <text style="font-size: 16px; font-family: 'Arial', sans-serif; text-anchor: end" x="56" y="114.71625" transform="rotate(-0 56 114.71625)">7</text>
     </g>
    </g>
    <g id="ytick_9">
     <g id="line2d_15">
      <g>
       <use xlink:href="#mf8bee51329" x="63" y="60.48" style="stroke: #000000; stroke-width: 0.8"/>
      </g>
     </g>
     <g id="text_15">
      <text style="font-size: 16px; font-family: 'Arial', sans-serif; text-anchor: end" x="56" y="66.20625" transform="rotate(-0 56 66.20625)">8</text>
     </g>
    </g>
    <g id="text_16">
     <text style="font-size: 16px; font-family: 'Arial', sans-serif; text-anchor: middle" x="39.9225" y="254.52" transform="rotate(-90 39.9225 254.52)">Time-dependent reproduction number</text>
    </g>
   </g>
   <g id="line2d_16">
    <path d="M 81.571786 307.101881 
L 83.614886 304.628106 
L 85.657987 311.677781 
L 87.701088 327.283537 
L 89.744189 341.319935 
L 91.787289 354.070373 
L 93.83039 364.145863 
L 95.873491 372.567054 
L 97.916592 379.826769 
L 99.959692 384.951442 
L 102.002793 390.543626 
L 104.045894 394.668173 
L 106.088995 396.988024 
L 108.132095 398.458473 
L 110.175196 398.475708 
L 112.218297 397.922215 
L 114.261398 396.348044 
L 116.304498 393.595786 
L 118.347599 389.809726 
L 120.3907 384.862508 
L 122.433801 380.604828 
L 124.476901 375.414055 
L 126.520002 369.000074 
L 128.563103 363.908266 
L 130.606204 358.257081 
L 132.649304 353.899872 
L 134.692405 349.145842 
L 136.735506 347.137459 
L 138.778607 343.728361 
L 140.821707 342.719749 
L 142.864808 343.825428 
L 144.907909 342.947915 
L 146.95101 343.458563 
L 148.99411 345.570782 
L 151.037211 344.9091 
L 153.080312 344.725617 
L 155.123412 341.460202 
L 157.166513 334.613893 
L 159.209614 334.586047 
L 161.252715 337.223079 
L 163.295815 338.22464 
L 165.338916 338.977795 
L 167.382017 337.74089 
L 169.425118 335.301244 
L 171.468218 339.086928 
L 173.511319 336.956025 
L 175.55442 331.356147 
L 177.597521 320.547424 
L 179.640621 315.874003 
L 181.683722 311.869459 
L 183.726823 307.505317 
L 189.856125 275.784571 
L 193.942327 290.171536 
L 195.985427 310.9932 
L 198.028528 330.191975 
L 202.11473 356.052025 
L 204.15783 373.630767 
L 206.200931 382.38437 
L 208.244032 382.877108 
L 210.287133 389.618998 
L 212.330233 390.309242 
L 214.373334 388.41672 
L 216.416435 378.623695 
L 218.459536 373.081547 
L 222.545737 364.160618 
L 226.631938 348.169703 
L 228.675039 348.760036 
L 230.71814 357.789085 
L 232.761241 361.441454 
L 234.804341 373.842608 
L 236.847442 370.123305 
L 238.890543 382.040086 
L 240.933644 397.445889 
L 242.976744 406.358821 
L 245.019845 411.413099 
L 247.062946 411.235284 
L 251.149147 405.907156 
L 253.192248 410.715361 
L 255.235349 414.374795 
L 257.27845 419.642553 
L 261.364651 427.001804 
L 263.407752 429.963294 
L 265.450853 431.994736 
L 267.493953 433.586959 
L 269.537054 434.003058 
L 273.623256 433.839658 
L 275.666356 434.187523 
L 277.709457 434.183834 
L 279.752558 434.714937 
L 281.795659 435.557667 
L 283.838759 435.794271 
L 287.924961 435.202858 
L 292.011162 435.513108 
L 294.054263 435.395111 
L 296.097364 435.513514 
L 298.140464 435.353104 
L 300.183565 435.307881 
L 302.226666 435.148638 
L 304.269767 434.732091 
L 306.312867 434.143257 
L 308.355968 433.804744 
L 310.399069 433.809982 
L 314.48527 433.298806 
L 316.528371 432.848326 
L 320.614573 432.623143 
L 324.700774 432.087455 
L 328.786976 431.113127 
L 332.873177 429.833274 
L 334.916278 429.003408 
L 336.959379 427.981129 
L 339.002479 427.642768 
L 341.04558 427.163877 
L 349.217983 424.766856 
L 351.261084 423.997566 
L 355.347285 424.273678 
L 365.562789 424.273113 
L 369.64899 424.024748 
L 379.864494 421.856288 
L 381.907595 421.175919 
L 385.993796 420.076777 
L 394.166199 417.060215 
L 402.338602 414.489255 
L 404.381703 413.725204 
L 406.424804 412.81886 
L 412.554106 410.738874 
L 428.898912 406.25657 
L 432.985114 405.001831 
L 435.028214 404.45825 
L 435.028214 404.45825 
" clip-path="url(#pc738878839)" style="fill: none; stroke: #0173b2; stroke-width: 2; stroke-linecap: square"/>
   </g>
   <g id="line2d_17">
    <path d="M 81.571786 314.345498 
L 83.614886 309.461126 
L 85.657987 315.061511 
L 87.701088 329.087306 
L 91.787289 352.936013 
L 93.83039 362.406933 
L 95.873491 370.754763 
L 97.916592 377.972344 
L 99.959692 383.176446 
L 102.002793 389.070528 
L 104.045894 393.184143 
L 106.088995 395.603654 
L 108.132095 397.024022 
L 110.175196 397.191609 
L 112.218297 396.168419 
L 114.261398 394.332195 
L 116.304498 391.616597 
L 118.347599 388.030152 
L 120.3907 382.940689 
L 122.433801 379.181395 
L 124.476901 373.911685 
L 126.520002 368.016222 
L 128.563103 363.434377 
L 130.606204 357.480318 
L 132.649304 353.93764 
L 134.692405 349.370659 
L 136.735506 347.376941 
L 138.778607 344.163838 
L 140.821707 343.571257 
L 142.864808 344.425891 
L 144.907909 343.883806 
L 146.95101 345.194885 
L 148.99411 347.138213 
L 151.037211 345.997146 
L 153.080312 346.401483 
L 155.123412 343.314717 
L 157.166513 335.998563 
L 159.209614 335.016599 
L 161.252715 337.667236 
L 163.295815 339.411766 
L 165.338916 339.212744 
L 167.382017 338.656182 
L 169.425118 336.702583 
L 171.468218 339.891563 
L 173.511319 337.226969 
L 175.55442 331.118356 
L 177.597521 320.001883 
L 183.726823 307.22557 
L 185.769924 296.141082 
L 187.813024 285.922913 
L 189.856125 274.392943 
L 191.899226 281.920653 
L 193.942327 290.151564 
L 195.985427 311.477869 
L 198.028528 330.167801 
L 200.071629 343.757472 
L 202.11473 356.569104 
L 204.15783 373.952094 
L 206.200931 382.427864 
L 208.244032 382.806682 
L 210.287133 389.450723 
L 212.330233 390.265114 
L 214.373334 388.235997 
L 216.416435 377.938831 
L 218.459536 372.319084 
L 222.545737 363.224593 
L 226.631938 347.303223 
L 228.675039 347.484721 
L 230.71814 357.027917 
L 232.761241 360.610561 
L 234.804341 373.441656 
L 236.847442 369.613455 
L 238.890543 381.377446 
L 240.933644 396.70112 
L 242.976744 406.017309 
L 245.019845 411.042757 
L 247.062946 410.926382 
L 251.149147 405.210516 
L 253.192248 410.260745 
L 255.235349 414.098387 
L 257.27845 419.413083 
L 261.364651 427.091891 
L 263.407752 430.083253 
L 265.450853 432.246149 
L 267.493953 433.936618 
L 269.537054 434.461109 
L 273.623256 434.442476 
L 275.666356 435.078668 
L 277.709457 435.222798 
L 279.752558 436.118532 
L 281.795659 437.196172 
L 283.838759 437.695274 
L 287.924961 437.545937 
L 289.968062 437.983013 
L 292.011162 438.544893 
L 294.054263 438.726286 
L 296.097364 439.063895 
L 298.140464 439.109868 
L 300.183565 439.376333 
L 302.226666 439.448967 
L 304.269767 439.305596 
L 306.312867 438.838571 
L 308.355968 438.791823 
L 312.44217 439.189852 
L 316.528371 439.00225 
L 318.571472 439.346629 
L 320.614573 439.518868 
L 324.700774 439.607507 
L 326.743875 439.510906 
L 330.830076 439.065077 
L 336.959379 437.808053 
L 343.088681 438.166517 
L 351.261084 438.17072 
L 353.304185 438.82266 
L 359.433487 440.33239 
L 365.562789 441.553951 
L 369.64899 442.133097 
L 373.735192 442.600755 
L 383.950696 443.586772 
L 420.726509 445.302797 
L 435.028214 445.715264 
L 435.028214 445.715264 
" clip-path="url(#pc738878839)" style="fill: none; stroke: #de8f05; stroke-width: 2; stroke-linecap: square"/>
   </g>
   <g id="patch_3">
    <path d="M 63 448.56 
L 63 60.48 
" style="fill: none; stroke: #000000; stroke-width: 0.8; stroke-linejoin: miter; stroke-linecap: square"/>
   </g>
   <g id="patch_4">
    <path d="M 63 448.56 
L 453.6 448.56 
" style="fill: none; stroke: #000000; stroke-width: 0.8; stroke-linejoin: miter; stroke-linecap: square"/>
   </g>
   <g id="legend_1">
    <g id="patch_5">
     <path d="M 263.609063 111.785625 
L 443.8 111.785625 
Q 446.6 111.785625 446.6 108.985625 
L 446.6 70.28 
Q 446.6 67.48 443.8 67.48 
L 263.609063 67.48 
Q 260.809063 67.48 260.809063 70.28 
L 260.809063 108.985625 
Q 260.809063 111.785625 263.609063 111.785625 
z
" style="fill: #ffffff; opacity: 0.8; stroke: #cccccc; stroke-linejoin: miter"/>
    </g>
    <g id="line2d_18">
     <path d="M 266.409063 78.200938 
L 280.409063 78.200938 
L 294.409063 78.200938 
" style="fill: none; stroke: #0173b2; stroke-width: 2; stroke-linecap: square"/>
    </g>
    <g id="text_17">
     <text style="font-size: 14px; font-family: 'Arial', sans-serif; text-anchor: start" x="305.609063" y="83.100938" transform="rotate(-0 305.609063 83.100938)">Autoregressive model</text>
    </g>
    <g id="line2d_19">
     <path d="M 266.409063 98.339063 
L 280.409063 98.339063 
L 294.409063 98.339063 
" style="fill: none; stroke: #de8f05; stroke-width: 2; stroke-linecap: square"/>
    </g>
    <g id="text_18">
     <text style="font-size: 14px; font-family: 'Arial', sans-serif; text-anchor: start" x="305.609063" y="103.239063" transform="rotate(-0 305.609063 103.239063)">Suitability model</text>
    </g>
   </g>
  </g>
  <g id="axes_2">
   <g id="patch_6">
    <path d="M 80.754545 448.56 
L 82.389026 448.56 
L 82.389026 396.816 
L 80.754545 396.816 
z
" clip-path="url(#pc738878839)" style="fill: #7f7f7f; opacity: 0.5"/>
   </g>
   <g id="patch_7">
    <path d="M 82.797646 448.56 
L 84.432127 448.56 
L 84.432127 396.816 
L 82.797646 396.816 
z
" clip-path="url(#pc738878839)" style="fill: #7f7f7f; opacity: 0.5"/>
   </g>
   <g id="patch_8">
    <path d="M 84.840747 448.56 
L 86.475228 448.56 
L 86.475228 396.816 
L 84.840747 396.816 
z
" clip-path="url(#pc738878839)" style="fill: #7f7f7f; opacity: 0.5"/>
   </g>
   <g id="patch_9">
    <path d="M 86.883848 448.56 
L 88.518328 448.56 
L 88.518328 448.56 
L 86.883848 448.56 
z
" clip-path="url(#pc738878839)" style="fill: #7f7f7f; opacity: 0.5"/>
   </g>
   <g id="patch_10">
    <path d="M 88.926948 448.56 
L 90.561429 448.56 
L 90.561429 448.56 
L 88.926948 448.56 
z
" clip-path="url(#pc738878839)" style="fill: #7f7f7f; opacity: 0.5"/>
   </g>
   <g id="patch_11">
    <path d="M 90.970049 448.56 
L 92.60453 448.56 
L 92.60453 448.56 
L 90.970049 448.56 
z
" clip-path="url(#pc738878839)" style="fill: #7f7f7f; opacity: 0.5"/>
   </g>
   <g id="patch_12">
    <path d="M 93.01315 448.56 
L 94.647631 448.56 
L 94.647631 448.56 
L 93.01315 448.56 
z
" clip-path="url(#pc738878839)" style="fill: #7f7f7f; opacity: 0.5"/>
   </g>
   <g id="patch_13">
    <path d="M 95.056251 448.56 
L 96.690731 448.56 
L 96.690731 448.56 
L 95.056251 448.56 
z
" clip-path="url(#pc738878839)" style="fill: #7f7f7f; opacity: 0.5"/>
   </g>
   <g id="patch_14">
    <path d="M 97.099351 448.56 
L 98.733832 448.56 
L 98.733832 448.56 
L 97.099351 448.56 
z
" clip-path="url(#pc738878839)" style="fill: #7f7f7f; opacity: 0.5"/>
   </g>
   <g id="patch_15">
    <path d="M 99.142452 448.56 
L 100.776933 448.56 
L 100.776933 422.688 
L 99.142452 422.688 
z
" clip-path="url(#pc738878839)" style="fill: #7f7f7f; opacity: 0.5"/>
   </g>
   <g id="patch_16">
    <path d="M 101.185553 448.56 
L 102.820033 448.56 
L 102.820033 448.56 
L 101.185553 448.56 
z
" clip-path="url(#pc738878839)" style="fill: #7f7f7f; opacity: 0.5"/>
   </g>
   <g id="patch_17">
    <path d="M 103.228654 448.56 
L 104.863134 448.56 
L 104.863134 448.56 
L 103.228654 448.56 
z
" clip-path="url(#pc738878839)" style="fill: #7f7f7f; opacity: 0.5"/>
   </g>
   <g id="patch_18">
    <path d="M 105.271754 448.56 
L 106.906235 448.56 
L 106.906235 448.56 
L 105.271754 448.56 
z
" clip-path="url(#pc738878839)" style="fill: #7f7f7f; opacity: 0.5"/>
   </g>
   <g id="patch_19">
    <path d="M 107.314855 448.56 
L 108.949336 448.56 
L 108.949336 448.56 
L 107.314855 448.56 
z
" clip-path="url(#pc738878839)" style="fill: #7f7f7f; opacity: 0.5"/>
   </g>
   <g id="patch_20">
    <path d="M 109.357956 448.56 
L 110.992436 448.56 
L 110.992436 448.56 
L 109.357956 448.56 
z
" clip-path="url(#pc738878839)" style="fill: #7f7f7f; opacity: 0.5"/>
   </g>
   <g id="patch_21">
    <path d="M 111.401057 448.56 
L 113.035537 448.56 
L 113.035537 448.56 
L 111.401057 448.56 
z
" clip-path="url(#pc738878839)" style="fill: #7f7f7f; opacity: 0.5"/>
   </g>
   <g id="patch_22">
    <path d="M 113.444157 448.56 
L 115.078638 448.56 
L 115.078638 448.56 
L 113.444157 448.56 
z
" clip-path="url(#pc738878839)" style="fill: #7f7f7f; opacity: 0.5"/>
   </g>
   <g id="patch_23">
    <path d="M 115.487258 448.56 
L 117.121739 448.56 
L 117.121739 448.56 
L 115.487258 448.56 
z
" clip-path="url(#pc738878839)" style="fill: #7f7f7f; opacity: 0.5"/>
   </g>
   <g id="patch_24">
    <path d="M 117.530359 448.56 
L 119.164839 448.56 
L 119.164839 448.56 
L 117.530359 448.56 
z
" clip-path="url(#pc738878839)" style="fill: #7f7f7f; opacity: 0.5"/>
   </g>
   <g id="patch_25">
    <path d="M 119.57346 448.56 
L 121.20794 448.56 
L 121.20794 422.688 
L 119.57346 422.688 
z
" clip-path="url(#pc738878839)" style="fill: #7f7f7f; opacity: 0.5"/>
   </g>
   <g id="patch_26">
    <path d="M 121.61656 448.56 
L 123.251041 448.56 
L 123.251041 448.56 
L 121.61656 448.56 
z
" clip-path="url(#pc738878839)" style="fill: #7f7f7f; opacity: 0.5"/>
   </g>
   <g id="patch_27">
    <path d="M 123.659661 448.56 
L 125.294142 448.56 
L 125.294142 448.56 
L 123.659661 448.56 
z
" clip-path="url(#pc738878839)" style="fill: #7f7f7f; opacity: 0.5"/>
   </g>
   <g id="patch_28">
    <path d="M 125.702762 448.56 
L 127.337242 448.56 
L 127.337242 422.688 
L 125.702762 422.688 
z
" clip-path="url(#pc738878839)" style="fill: #7f7f7f; opacity: 0.5"/>
   </g>
   <g id="patch_29">
    <path d="M 127.745863 448.56 
L 129.380343 448.56 
L 129.380343 448.56 
L 127.745863 448.56 
z
" clip-path="url(#pc738878839)" style="fill: #7f7f7f; opacity: 0.5"/>
   </g>
   <g id="patch_30">
    <path d="M 129.788963 448.56 
L 131.423444 448.56 
L 131.423444 422.688 
L 129.788963 422.688 
z
" clip-path="url(#pc738878839)" style="fill: #7f7f7f; opacity: 0.5"/>
   </g>
   <g id="patch_31">
    <path d="M 131.832064 448.56 
L 133.466545 448.56 
L 133.466545 448.56 
L 131.832064 448.56 
z
" clip-path="url(#pc738878839)" style="fill: #7f7f7f; opacity: 0.5"/>
   </g>
   <g id="patch_32">
    <path d="M 133.875165 448.56 
L 135.509645 448.56 
L 135.509645 422.688 
L 133.875165 422.688 
z
" clip-path="url(#pc738878839)" style="fill: #7f7f7f; opacity: 0.5"/>
   </g>
   <g id="patch_33">
    <path d="M 135.918266 448.56 
L 137.552746 448.56 
L 137.552746 448.56 
L 135.918266 448.56 
z
" clip-path="url(#pc738878839)" style="fill: #7f7f7f; opacity: 0.5"/>
   </g>
   <g id="patch_34">
    <path d="M 137.961366 448.56 
L 139.595847 448.56 
L 139.595847 422.688 
L 137.961366 422.688 
z
" clip-path="url(#pc738878839)" style="fill: #7f7f7f; opacity: 0.5"/>
   </g>
   <g id="patch_35">
    <path d="M 140.004467 448.56 
L 141.638948 448.56 
L 141.638948 422.688 
L 140.004467 422.688 
z
" clip-path="url(#pc738878839)" style="fill: #7f7f7f; opacity: 0.5"/>
   </g>
   <g id="patch_36">
    <path d="M 142.047568 448.56 
L 143.682048 448.56 
L 143.682048 448.56 
L 142.047568 448.56 
z
" clip-path="url(#pc738878839)" style="fill: #7f7f7f; opacity: 0.5"/>
   </g>
   <g id="patch_37">
    <path d="M 144.090668 448.56 
L 145.725149 448.56 
L 145.725149 422.688 
L 144.090668 422.688 
z
" clip-path="url(#pc738878839)" style="fill: #7f7f7f; opacity: 0.5"/>
   </g>
   <g id="patch_38">
    <path d="M 146.133769 448.56 
L 147.76825 448.56 
L 147.76825 422.688 
L 146.133769 422.688 
z
" clip-path="url(#pc738878839)" style="fill: #7f7f7f; opacity: 0.5"/>
   </g>
   <g id="patch_39">
    <path d="M 148.17687 448.56 
L 149.811351 448.56 
L 149.811351 448.56 
L 148.17687 448.56 
z
" clip-path="url(#pc738878839)" style="fill: #7f7f7f; opacity: 0.5"/>
   </g>
   <g id="patch_40">
    <path d="M 150.219971 448.56 
L 151.854451 448.56 
L 151.854451 422.688 
L 150.219971 422.688 
z
" clip-path="url(#pc738878839)" style="fill: #7f7f7f; opacity: 0.5"/>
   </g>
   <g id="patch_41">
    <path d="M 152.263071 448.56 
L 153.897552 448.56 
L 153.897552 448.56 
L 152.263071 448.56 
z
" clip-path="url(#pc738878839)" style="fill: #7f7f7f; opacity: 0.5"/>
   </g>
   <g id="patch_42">
    <path d="M 154.306172 448.56 
L 155.940653 448.56 
L 155.940653 448.56 
L 154.306172 448.56 
z
" clip-path="url(#pc738878839)" style="fill: #7f7f7f; opacity: 0.5"/>
   </g>
   <g id="patch_43">
    <path d="M 156.349273 448.56 
L 157.983754 448.56 
L 157.983754 370.944 
L 156.349273 370.944 
z
" clip-path="url(#pc738878839)" style="fill: #7f7f7f; opacity: 0.5"/>
   </g>
   <g id="patch_44">
    <path d="M 158.392374 448.56 
L 160.026854 448.56 
L 160.026854 396.816 
L 158.392374 396.816 
z
" clip-path="url(#pc738878839)" style="fill: #7f7f7f; opacity: 0.5"/>
   </g>
   <g id="patch_45">
    <path d="M 160.435474 448.56 
L 162.069955 448.56 
L 162.069955 422.688 
L 160.435474 422.688 
z
" clip-path="url(#pc738878839)" style="fill: #7f7f7f; opacity: 0.5"/>
   </g>
   <g id="patch_46">
    <path d="M 162.478575 448.56 
L 164.113056 448.56 
L 164.113056 422.688 
L 162.478575 422.688 
z
" clip-path="url(#pc738878839)" style="fill: #7f7f7f; opacity: 0.5"/>
   </g>
   <g id="patch_47">
    <path d="M 164.521676 448.56 
L 166.156157 448.56 
L 166.156157 422.688 
L 164.521676 422.688 
z
" clip-path="url(#pc738878839)" style="fill: #7f7f7f; opacity: 0.5"/>
   </g>
   <g id="patch_48">
    <path d="M 166.564777 448.56 
L 168.199257 448.56 
L 168.199257 422.688 
L 166.564777 422.688 
z
" clip-path="url(#pc738878839)" style="fill: #7f7f7f; opacity: 0.5"/>
   </g>
   <g id="patch_49">
    <path d="M 168.607877 448.56 
L 170.242358 448.56 
L 170.242358 370.944 
L 168.607877 370.944 
z
" clip-path="url(#pc738878839)" style="fill: #7f7f7f; opacity: 0.5"/>
   </g>
   <g id="patch_50">
    <path d="M 170.650978 448.56 
L 172.285459 448.56 
L 172.285459 448.56 
L 170.650978 448.56 
z
" clip-path="url(#pc738878839)" style="fill: #7f7f7f; opacity: 0.5"/>
   </g>
   <g id="patch_51">
    <path d="M 172.694079 448.56 
L 174.328559 448.56 
L 174.328559 422.688 
L 172.694079 422.688 
z
" clip-path="url(#pc738878839)" style="fill: #7f7f7f; opacity: 0.5"/>
   </g>
   <g id="patch_52">
    <path d="M 174.73718 448.56 
L 176.37166 448.56 
L 176.37166 422.688 
L 174.73718 422.688 
z
" clip-path="url(#pc738878839)" style="fill: #7f7f7f; opacity: 0.5"/>
   </g>
   <g id="patch_53">
    <path d="M 176.78028 448.56 
L 178.414761 448.56 
L 178.414761 345.072 
L 176.78028 345.072 
z
" clip-path="url(#pc738878839)" style="fill: #7f7f7f; opacity: 0.5"/>
   </g>
   <g id="patch_54">
    <path d="M 178.823381 448.56 
L 180.457862 448.56 
L 180.457862 370.944 
L 178.823381 370.944 
z
" clip-path="url(#pc738878839)" style="fill: #7f7f7f; opacity: 0.5"/>
   </g>
   <g id="patch_55">
    <path d="M 180.866482 448.56 
L 182.500962 448.56 
L 182.500962 370.944 
L 180.866482 370.944 
z
" clip-path="url(#pc738878839)" style="fill: #7f7f7f; opacity: 0.5"/>
   </g>
   <g id="patch_56">
    <path d="M 182.909583 448.56 
L 184.544063 448.56 
L 184.544063 396.816 
L 182.909583 396.816 
z
" clip-path="url(#pc738878839)" style="fill: #7f7f7f; opacity: 0.5"/>
   </g>
   <g id="patch_57">
    <path d="M 184.952683 448.56 
L 186.587164 448.56 
L 186.587164 345.072 
L 184.952683 345.072 
z
" clip-path="url(#pc738878839)" style="fill: #7f7f7f; opacity: 0.5"/>
   </g>
   <g id="patch_58">
    <path d="M 186.995784 448.56 
L 188.630265 448.56 
L 188.630265 345.072 
L 186.995784 345.072 
z
" clip-path="url(#pc738878839)" style="fill: #7f7f7f; opacity: 0.5"/>
   </g>
   <g id="patch_59">
    <path d="M 189.038885 448.56 
L 190.673365 448.56 
L 190.673365 241.584 
L 189.038885 241.584 
z
" clip-path="url(#pc738878839)" style="fill: #7f7f7f; opacity: 0.5"/>
   </g>
   <g id="patch_60">
    <path d="M 191.081986 448.56 
L 192.716466 448.56 
L 192.716466 319.2 
L 191.081986 319.2 
z
" clip-path="url(#pc738878839)" style="fill: #7f7f7f; opacity: 0.5"/>
   </g>
   <g id="patch_61">
    <path d="M 193.125086 448.56 
L 194.759567 448.56 
L 194.759567 241.584 
L 193.125086 241.584 
z
" clip-path="url(#pc738878839)" style="fill: #7f7f7f; opacity: 0.5"/>
   </g>
   <g id="patch_62">
    <path d="M 195.168187 448.56 
L 196.802668 448.56 
L 196.802668 319.2 
L 195.168187 319.2 
z
" clip-path="url(#pc738878839)" style="fill: #7f7f7f; opacity: 0.5"/>
   </g>
   <g id="patch_63">
    <path d="M 197.211288 448.56 
L 198.845768 448.56 
L 198.845768 345.072 
L 197.211288 345.072 
z
" clip-path="url(#pc738878839)" style="fill: #7f7f7f; opacity: 0.5"/>
   </g>
   <g id="patch_64">
    <path d="M 199.254389 448.56 
L 200.888869 448.56 
L 200.888869 319.2 
L 199.254389 319.2 
z
" clip-path="url(#pc738878839)" style="fill: #7f7f7f; opacity: 0.5"/>
   </g>
   <g id="patch_65">
    <path d="M 201.297489 448.56 
L 202.93197 448.56 
L 202.93197 267.456 
L 201.297489 267.456 
z
" clip-path="url(#pc738878839)" style="fill: #7f7f7f; opacity: 0.5"/>
   </g>
   <g id="patch_66">
    <path d="M 203.34059 448.56 
L 204.975071 448.56 
L 204.975071 396.816 
L 203.34059 396.816 
z
" clip-path="url(#pc738878839)" style="fill: #7f7f7f; opacity: 0.5"/>
   </g>
   <g id="patch_67">
    <path d="M 205.383691 448.56 
L 207.018171 448.56 
L 207.018171 422.688 
L 205.383691 422.688 
z
" clip-path="url(#pc738878839)" style="fill: #7f7f7f; opacity: 0.5"/>
   </g>
   <g id="patch_68">
    <path d="M 207.426792 448.56 
L 209.061272 448.56 
L 209.061272 241.584 
L 207.426792 241.584 
z
" clip-path="url(#pc738878839)" style="fill: #7f7f7f; opacity: 0.5"/>
   </g>
   <g id="patch_69">
    <path d="M 209.469892 448.56 
L 211.104373 448.56 
L 211.104373 396.816 
L 209.469892 396.816 
z
" clip-path="url(#pc738878839)" style="fill: #7f7f7f; opacity: 0.5"/>
   </g>
   <g id="patch_70">
    <path d="M 211.512993 448.56 
L 213.147474 448.56 
L 213.147474 345.072 
L 211.512993 345.072 
z
" clip-path="url(#pc738878839)" style="fill: #7f7f7f; opacity: 0.5"/>
   </g>
   <g id="patch_71">
    <path d="M 213.556094 448.56 
L 215.190574 448.56 
L 215.190574 396.816 
L 213.556094 396.816 
z
" clip-path="url(#pc738878839)" style="fill: #7f7f7f; opacity: 0.5"/>
   </g>
   <g id="patch_72">
    <path d="M 215.599194 448.56 
L 217.233675 448.56 
L 217.233675 215.712 
L 215.599194 215.712 
z
" clip-path="url(#pc738878839)" style="fill: #7f7f7f; opacity: 0.5"/>
   </g>
   <g id="patch_73">
    <path d="M 217.642295 448.56 
L 219.276776 448.56 
L 219.276776 241.584 
L 217.642295 241.584 
z
" clip-path="url(#pc738878839)" style="fill: #7f7f7f; opacity: 0.5"/>
   </g>
   <g id="patch_74">
    <path d="M 219.685396 448.56 
L 221.319877 448.56 
L 221.319877 241.584 
L 219.685396 241.584 
z
" clip-path="url(#pc738878839)" style="fill: #7f7f7f; opacity: 0.5"/>
   </g>
   <g id="patch_75">
    <path d="M 221.728497 448.56 
L 223.362977 448.56 
L 223.362977 267.456 
L 221.728497 267.456 
z
" clip-path="url(#pc738878839)" style="fill: #7f7f7f; opacity: 0.5"/>
   </g>
   <g id="patch_76">
    <path d="M 223.771597 448.56 
L 225.406078 448.56 
L 225.406078 215.712 
L 223.771597 215.712 
z
" clip-path="url(#pc738878839)" style="fill: #7f7f7f; opacity: 0.5"/>
   </g>
   <g id="patch_77">
    <path d="M 225.814698 448.56 
L 227.449179 448.56 
L 227.449179 138.096 
L 225.814698 138.096 
z
" clip-path="url(#pc738878839)" style="fill: #7f7f7f; opacity: 0.5"/>
   </g>
   <g id="patch_78">
    <path d="M 227.857799 448.56 
L 229.49228 448.56 
L 229.49228 138.096 
L 227.857799 138.096 
z
" clip-path="url(#pc738878839)" style="fill: #7f7f7f; opacity: 0.5"/>
   </g>
   <g id="patch_79">
    <path d="M 229.9009 448.56 
L 231.53538 448.56 
L 231.53538 267.456 
L 229.9009 267.456 
z
" clip-path="url(#pc738878839)" style="fill: #7f7f7f; opacity: 0.5"/>
   </g>
   <g id="patch_80">
    <path d="M 231.944 448.56 
L 233.578481 448.56 
L 233.578481 138.096 
L 231.944 138.096 
z
" clip-path="url(#pc738878839)" style="fill: #7f7f7f; opacity: 0.5"/>
   </g>
   <g id="patch_81">
    <path d="M 233.987101 448.56 
L 235.621582 448.56 
L 235.621582 396.816 
L 233.987101 396.816 
z
" clip-path="url(#pc738878839)" style="fill: #7f7f7f; opacity: 0.5"/>
   </g>
   <g id="patch_82">
    <path d="M 236.030202 448.56 
L 237.664682 448.56 
L 237.664682 60.48 
L 236.030202 60.48 
z
" clip-path="url(#pc738878839)" style="fill: #7f7f7f; opacity: 0.5"/>
   </g>
   <g id="patch_83">
    <path d="M 238.073303 448.56 
L 239.707783 448.56 
L 239.707783 163.968 
L 238.073303 163.968 
z
" clip-path="url(#pc738878839)" style="fill: #7f7f7f; opacity: 0.5"/>
   </g>
   <g id="patch_84">
    <path d="M 240.116403 448.56 
L 241.750884 448.56 
L 241.750884 319.2 
L 240.116403 319.2 
z
" clip-path="url(#pc738878839)" style="fill: #7f7f7f; opacity: 0.5"/>
   </g>
   <g id="patch_85">
    <path d="M 242.159504 448.56 
L 243.793985 448.56 
L 243.793985 345.072 
L 242.159504 345.072 
z
" clip-path="url(#pc738878839)" style="fill: #7f7f7f; opacity: 0.5"/>
   </g>
   <g id="patch_86">
    <path d="M 244.202605 448.56 
L 245.837085 448.56 
L 245.837085 396.816 
L 244.202605 396.816 
z
" clip-path="url(#pc738878839)" style="fill: #7f7f7f; opacity: 0.5"/>
   </g>
   <g id="patch_87">
    <path d="M 246.245706 448.56 
L 247.880186 448.56 
L 247.880186 345.072 
L 246.245706 345.072 
z
" clip-path="url(#pc738878839)" style="fill: #7f7f7f; opacity: 0.5"/>
   </g>
   <g id="patch_88">
    <path d="M 248.288806 448.56 
L 249.923287 448.56 
L 249.923287 267.456 
L 248.288806 267.456 
z
" clip-path="url(#pc738878839)" style="fill: #7f7f7f; opacity: 0.5"/>
   </g>
   <g id="patch_89">
    <path d="M 250.331907 448.56 
L 251.966388 448.56 
L 251.966388 112.224 
L 250.331907 112.224 
z
" clip-path="url(#pc738878839)" style="fill: #7f7f7f; opacity: 0.5"/>
   </g>
   <g id="patch_90">
    <path d="M 252.375008 448.56 
L 254.009488 448.56 
L 254.009488 293.328 
L 252.375008 293.328 
z
" clip-path="url(#pc738878839)" style="fill: #7f7f7f; opacity: 0.5"/>
   </g>
   <g id="patch_91">
    <path d="M 254.418109 448.56 
L 256.052589 448.56 
L 256.052589 241.584 
L 254.418109 241.584 
z
" clip-path="url(#pc738878839)" style="fill: #7f7f7f; opacity: 0.5"/>
   </g>
   <g id="patch_92">
    <path d="M 256.461209 448.56 
L 258.09569 448.56 
L 258.09569 345.072 
L 256.461209 345.072 
z
" clip-path="url(#pc738878839)" style="fill: #7f7f7f; opacity: 0.5"/>
   </g>
   <g id="patch_93">
    <path d="M 258.50431 448.56 
L 260.138791 448.56 
L 260.138791 319.2 
L 258.50431 319.2 
z
" clip-path="url(#pc738878839)" style="fill: #7f7f7f; opacity: 0.5"/>
   </g>
   <g id="patch_94">
    <path d="M 260.547411 448.56 
L 262.181891 448.56 
L 262.181891 370.944 
L 260.547411 370.944 
z
" clip-path="url(#pc738878839)" style="fill: #7f7f7f; opacity: 0.5"/>
   </g>
   <g id="patch_95">
    <path d="M 262.590512 448.56 
L 264.224992 448.56 
L 264.224992 396.816 
L 262.590512 396.816 
z
" clip-path="url(#pc738878839)" style="fill: #7f7f7f; opacity: 0.5"/>
   </g>
   <g id="patch_96">
    <path d="M 264.633612 448.56 
L 266.268093 448.56 
L 266.268093 396.816 
L 264.633612 396.816 
z
" clip-path="url(#pc738878839)" style="fill: #7f7f7f; opacity: 0.5"/>
   </g>
   <g id="patch_97">
    <path d="M 266.676713 448.56 
L 268.311194 448.56 
L 268.311194 448.56 
L 266.676713 448.56 
z
" clip-path="url(#pc738878839)" style="fill: #7f7f7f; opacity: 0.5"/>
   </g>
   <g id="patch_98">
    <path d="M 268.719814 448.56 
L 270.354294 448.56 
L 270.354294 422.688 
L 268.719814 422.688 
z
" clip-path="url(#pc738878839)" style="fill: #7f7f7f; opacity: 0.5"/>
   </g>
   <g id="patch_99">
    <path d="M 270.762915 448.56 
L 272.397395 448.56 
L 272.397395 396.816 
L 270.762915 396.816 
z
" clip-path="url(#pc738878839)" style="fill: #7f7f7f; opacity: 0.5"/>
   </g>
   <g id="patch_100">
    <path d="M 272.806015 448.56 
L 274.440496 448.56 
L 274.440496 370.944 
L 272.806015 370.944 
z
" clip-path="url(#pc738878839)" style="fill: #7f7f7f; opacity: 0.5"/>
   </g>
   <g id="patch_101">
    <path d="M 274.849116 448.56 
L 276.483597 448.56 
L 276.483597 422.688 
L 274.849116 422.688 
z
" clip-path="url(#pc738878839)" style="fill: #7f7f7f; opacity: 0.5"/>
   </g>
   <g id="patch_102">
    <path d="M 276.892217 448.56 
L 278.526697 448.56 
L 278.526697 370.944 
L 276.892217 370.944 
z
" clip-path="url(#pc738878839)" style="fill: #7f7f7f; opacity: 0.5"/>
   </g>
   <g id="patch_103">
    <path d="M 278.935318 448.56 
L 280.569798 448.56 
L 280.569798 396.816 
L 278.935318 396.816 
z
" clip-path="url(#pc738878839)" style="fill: #7f7f7f; opacity: 0.5"/>
   </g>
   <g id="patch_104">
    <path d="M 280.978418 448.56 
L 282.612899 448.56 
L 282.612899 448.56 
L 280.978418 448.56 
z
" clip-path="url(#pc738878839)" style="fill: #7f7f7f; opacity: 0.5"/>
   </g>
   <g id="patch_105">
    <path d="M 283.021519 448.56 
L 284.656 448.56 
L 284.656 448.56 
L 283.021519 448.56 
z
" clip-path="url(#pc738878839)" style="fill: #7f7f7f; opacity: 0.5"/>
   </g>
   <g id="patch_106">
    <path d="M 285.06462 448.56 
L 286.6991 448.56 
L 286.6991 422.688 
L 285.06462 422.688 
z
" clip-path="url(#pc738878839)" style="fill: #7f7f7f; opacity: 0.5"/>
   </g>
   <g id="patch_107">
    <path d="M 287.10772 448.56 
L 288.742201 448.56 
L 288.742201 396.816 
L 287.10772 396.816 
z
" clip-path="url(#pc738878839)" style="fill: #7f7f7f; opacity: 0.5"/>
   </g>
   <g id="patch_108">
    <path d="M 289.150821 448.56 
L 290.785302 448.56 
L 290.785302 422.688 
L 289.150821 422.688 
z
" clip-path="url(#pc738878839)" style="fill: #7f7f7f; opacity: 0.5"/>
   </g>
   <g id="patch_109">
    <path d="M 291.193922 448.56 
L 292.828403 448.56 
L 292.828403 448.56 
L 291.193922 448.56 
z
" clip-path="url(#pc738878839)" style="fill: #7f7f7f; opacity: 0.5"/>
   </g>
   <g id="patch_110">
    <path d="M 293.237023 448.56 
L 294.871503 448.56 
L 294.871503 422.688 
L 293.237023 422.688 
z
" clip-path="url(#pc738878839)" style="fill: #7f7f7f; opacity: 0.5"/>
   </g>
   <g id="patch_111">
    <path d="M 295.280123 448.56 
L 296.914604 448.56 
L 296.914604 448.56 
L 295.280123 448.56 
z
" clip-path="url(#pc738878839)" style="fill: #7f7f7f; opacity: 0.5"/>
   </g>
   <g id="patch_112">
    <path d="M 297.323224 448.56 
L 298.957705 448.56 
L 298.957705 422.688 
L 297.323224 422.688 
z
" clip-path="url(#pc738878839)" style="fill: #7f7f7f; opacity: 0.5"/>
   </g>
   <g id="patch_113">
    <path d="M 299.366325 448.56 
L 301.000806 448.56 
L 301.000806 448.56 
L 299.366325 448.56 
z
" clip-path="url(#pc738878839)" style="fill: #7f7f7f; opacity: 0.5"/>
   </g>
   <g id="patch_114">
    <path d="M 301.409426 448.56 
L 303.043906 448.56 
L 303.043906 448.56 
L 301.409426 448.56 
z
" clip-path="url(#pc738878839)" style="fill: #7f7f7f; opacity: 0.5"/>
   </g>
   <g id="patch_115">
    <path d="M 303.452526 448.56 
L 305.087007 448.56 
L 305.087007 448.56 
L 303.452526 448.56 
z
" clip-path="url(#pc738878839)" style="fill: #7f7f7f; opacity: 0.5"/>
   </g>
   <g id="patch_116">
    <path d="M 305.495627 448.56 
L 307.130108 448.56 
L 307.130108 422.688 
L 305.495627 422.688 
z
" clip-path="url(#pc738878839)" style="fill: #7f7f7f; opacity: 0.5"/>
   </g>
   <g id="patch_117">
    <path d="M 307.538728 448.56 
L 309.173208 448.56 
L 309.173208 422.688 
L 307.538728 422.688 
z
" clip-path="url(#pc738878839)" style="fill: #7f7f7f; opacity: 0.5"/>
   </g>
   <g id="patch_118">
    <path d="M 309.581829 448.56 
L 311.216309 448.56 
L 311.216309 448.56 
L 309.581829 448.56 
z
" clip-path="url(#pc738878839)" style="fill: #7f7f7f; opacity: 0.5"/>
   </g>
   <g id="patch_119">
    <path d="M 311.624929 448.56 
L 313.25941 448.56 
L 313.25941 448.56 
L 311.624929 448.56 
z
" clip-path="url(#pc738878839)" style="fill: #7f7f7f; opacity: 0.5"/>
   </g>
   <g id="patch_120">
    <path d="M 313.66803 448.56 
L 315.302511 448.56 
L 315.302511 448.56 
L 313.66803 448.56 
z
" clip-path="url(#pc738878839)" style="fill: #7f7f7f; opacity: 0.5"/>
   </g>
   <g id="patch_121">
    <path d="M 315.711131 448.56 
L 317.345611 448.56 
L 317.345611 422.688 
L 315.711131 422.688 
z
" clip-path="url(#pc738878839)" style="fill: #7f7f7f; opacity: 0.5"/>
   </g>
   <g id="patch_122">
    <path d="M 317.754232 448.56 
L 319.388712 448.56 
L 319.388712 448.56 
L 317.754232 448.56 
z
" clip-path="url(#pc738878839)" style="fill: #7f7f7f; opacity: 0.5"/>
   </g>
   <g id="patch_123">
    <path d="M 319.797332 448.56 
L 321.431813 448.56 
L 321.431813 448.56 
L 319.797332 448.56 
z
" clip-path="url(#pc738878839)" style="fill: #7f7f7f; opacity: 0.5"/>
   </g>
   <g id="patch_124">
    <path d="M 321.840433 448.56 
L 323.474914 448.56 
L 323.474914 448.56 
L 321.840433 448.56 
z
" clip-path="url(#pc738878839)" style="fill: #7f7f7f; opacity: 0.5"/>
   </g>
   <g id="patch_125">
    <path d="M 323.883534 448.56 
L 325.518014 448.56 
L 325.518014 448.56 
L 323.883534 448.56 
z
" clip-path="url(#pc738878839)" style="fill: #7f7f7f; opacity: 0.5"/>
   </g>
   <g id="patch_126">
    <path d="M 325.926635 448.56 
L 327.561115 448.56 
L 327.561115 448.56 
L 325.926635 448.56 
z
" clip-path="url(#pc738878839)" style="fill: #7f7f7f; opacity: 0.5"/>
   </g>
   <g id="patch_127">
    <path d="M 327.969735 448.56 
L 329.604216 448.56 
L 329.604216 448.56 
L 327.969735 448.56 
z
" clip-path="url(#pc738878839)" style="fill: #7f7f7f; opacity: 0.5"/>
   </g>
   <g id="patch_128">
    <path d="M 330.012836 448.56 
L 331.647317 448.56 
L 331.647317 448.56 
L 330.012836 448.56 
z
" clip-path="url(#pc738878839)" style="fill: #7f7f7f; opacity: 0.5"/>
   </g>
   <g id="patch_129">
    <path d="M 332.055937 448.56 
L 333.690417 448.56 
L 333.690417 448.56 
L 332.055937 448.56 
z
" clip-path="url(#pc738878839)" style="fill: #7f7f7f; opacity: 0.5"/>
   </g>
   <g id="patch_130">
    <path d="M 334.099038 448.56 
L 335.733518 448.56 
L 335.733518 448.56 
L 334.099038 448.56 
z
" clip-path="url(#pc738878839)" style="fill: #7f7f7f; opacity: 0.5"/>
   </g>
   <g id="patch_131">
    <path d="M 336.142138 448.56 
L 337.776619 448.56 
L 337.776619 422.688 
L 336.142138 422.688 
z
" clip-path="url(#pc738878839)" style="fill: #7f7f7f; opacity: 0.5"/>
   </g>
   <g id="patch_132">
    <path d="M 338.185239 448.56 
L 339.81972 448.56 
L 339.81972 448.56 
L 338.185239 448.56 
z
" clip-path="url(#pc738878839)" style="fill: #7f7f7f; opacity: 0.5"/>
   </g>
   <g id="patch_133">
    <path d="M 340.22834 448.56 
L 341.86282 448.56 
L 341.86282 448.56 
L 340.22834 448.56 
z
" clip-path="url(#pc738878839)" style="fill: #7f7f7f; opacity: 0.5"/>
   </g>
   <g id="patch_134">
    <path d="M 342.271441 448.56 
L 343.905921 448.56 
L 343.905921 448.56 
L 342.271441 448.56 
z
" clip-path="url(#pc738878839)" style="fill: #7f7f7f; opacity: 0.5"/>
   </g>
   <g id="patch_135">
    <path d="M 344.314541 448.56 
L 345.949022 448.56 
L 345.949022 448.56 
L 344.314541 448.56 
z
" clip-path="url(#pc738878839)" style="fill: #7f7f7f; opacity: 0.5"/>
   </g>
   <g id="patch_136">
    <path d="M 346.357642 448.56 
L 347.992123 448.56 
L 347.992123 448.56 
L 346.357642 448.56 
z
" clip-path="url(#pc738878839)" style="fill: #7f7f7f; opacity: 0.5"/>
   </g>
   <g id="patch_137">
    <path d="M 348.400743 448.56 
L 350.035223 448.56 
L 350.035223 448.56 
L 348.400743 448.56 
z
" clip-path="url(#pc738878839)" style="fill: #7f7f7f; opacity: 0.5"/>
   </g>
   <g id="patch_138">
    <path d="M 350.443843 448.56 
L 352.078324 448.56 
L 352.078324 422.688 
L 350.443843 422.688 
z
" clip-path="url(#pc738878839)" style="fill: #7f7f7f; opacity: 0.5"/>
   </g>
   <g id="patch_139">
    <path d="M 352.486944 448.56 
L 354.121425 448.56 
L 354.121425 448.56 
L 352.486944 448.56 
z
" clip-path="url(#pc738878839)" style="fill: #7f7f7f; opacity: 0.5"/>
   </g>
   <g id="patch_140">
    <path d="M 354.530045 448.56 
L 356.164526 448.56 
L 356.164526 448.56 
L 354.530045 448.56 
z
" clip-path="url(#pc738878839)" style="fill: #7f7f7f; opacity: 0.5"/>
   </g>
   <g id="patch_141">
    <path d="M 356.573146 448.56 
L 358.207626 448.56 
L 358.207626 448.56 
L 356.573146 448.56 
z
" clip-path="url(#pc738878839)" style="fill: #7f7f7f; opacity: 0.5"/>
   </g>
   <g id="patch_142">
    <path d="M 358.616246 448.56 
L 360.250727 448.56 
L 360.250727 448.56 
L 358.616246 448.56 
z
" clip-path="url(#pc738878839)" style="fill: #7f7f7f; opacity: 0.5"/>
   </g>
   <g id="patch_143">
    <path d="M 360.659347 448.56 
L 362.293828 448.56 
L 362.293828 448.56 
L 360.659347 448.56 
z
" clip-path="url(#pc738878839)" style="fill: #7f7f7f; opacity: 0.5"/>
   </g>
   <g id="patch_144">
    <path d="M 362.702448 448.56 
L 364.336929 448.56 
L 364.336929 448.56 
L 362.702448 448.56 
z
" clip-path="url(#pc738878839)" style="fill: #7f7f7f; opacity: 0.5"/>
   </g>
   <g id="patch_145">
    <path d="M 364.745549 448.56 
L 366.380029 448.56 
L 366.380029 448.56 
L 364.745549 448.56 
z
" clip-path="url(#pc738878839)" style="fill: #7f7f7f; opacity: 0.5"/>
   </g>
   <g id="patch_146">
    <path d="M 366.788649 448.56 
L 368.42313 448.56 
L 368.42313 448.56 
L 366.788649 448.56 
z
" clip-path="url(#pc738878839)" style="fill: #7f7f7f; opacity: 0.5"/>
   </g>
   <g id="patch_147">
    <path d="M 368.83175 448.56 
L 370.466231 448.56 
L 370.466231 448.56 
L 368.83175 448.56 
z
" clip-path="url(#pc738878839)" style="fill: #7f7f7f; opacity: 0.5"/>
   </g>
   <g id="patch_148">
    <path d="M 370.874851 448.56 
L 372.509332 448.56 
L 372.509332 448.56 
L 370.874851 448.56 
z
" clip-path="url(#pc738878839)" style="fill: #7f7f7f; opacity: 0.5"/>
   </g>
   <g id="patch_149">
    <path d="M 372.917952 448.56 
L 374.552432 448.56 
L 374.552432 448.56 
L 372.917952 448.56 
z
" clip-path="url(#pc738878839)" style="fill: #7f7f7f; opacity: 0.5"/>
   </g>
   <g id="patch_150">
    <path d="M 374.961052 448.56 
L 376.595533 448.56 
L 376.595533 448.56 
L 374.961052 448.56 
z
" clip-path="url(#pc738878839)" style="fill: #7f7f7f; opacity: 0.5"/>
   </g>
   <g id="patch_151">
    <path d="M 377.004153 448.56 
L 378.638634 448.56 
L 378.638634 448.56 
L 377.004153 448.56 
z
" clip-path="url(#pc738878839)" style="fill: #7f7f7f; opacity: 0.5"/>
   </g>
   <g id="patch_152">
    <path d="M 379.047254 448.56 
L 380.681734 448.56 
L 380.681734 448.56 
L 379.047254 448.56 
z
" clip-path="url(#pc738878839)" style="fill: #7f7f7f; opacity: 0.5"/>
   </g>
   <g id="patch_153">
    <path d="M 381.090355 448.56 
L 382.724835 448.56 
L 382.724835 448.56 
L 381.090355 448.56 
z
" clip-path="url(#pc738878839)" style="fill: #7f7f7f; opacity: 0.5"/>
   </g>
   <g id="patch_154">
    <path d="M 383.133455 448.56 
L 384.767936 448.56 
L 384.767936 448.56 
L 383.133455 448.56 
z
" clip-path="url(#pc738878839)" style="fill: #7f7f7f; opacity: 0.5"/>
   </g>
   <g id="patch_155">
    <path d="M 385.176556 448.56 
L 386.811037 448.56 
L 386.811037 448.56 
L 385.176556 448.56 
z
" clip-path="url(#pc738878839)" style="fill: #7f7f7f; opacity: 0.5"/>
   </g>
   <g id="patch_156">
    <path d="M 387.219657 448.56 
L 388.854137 448.56 
L 388.854137 448.56 
L 387.219657 448.56 
z
" clip-path="url(#pc738878839)" style="fill: #7f7f7f; opacity: 0.5"/>
   </g>
   <g id="patch_157">
    <path d="M 389.262758 448.56 
L 390.897238 448.56 
L 390.897238 448.56 
L 389.262758 448.56 
z
" clip-path="url(#pc738878839)" style="fill: #7f7f7f; opacity: 0.5"/>
   </g>
   <g id="patch_158">
    <path d="M 391.305858 448.56 
L 392.940339 448.56 
L 392.940339 448.56 
L 391.305858 448.56 
z
" clip-path="url(#pc738878839)" style="fill: #7f7f7f; opacity: 0.5"/>
   </g>
   <g id="patch_159">
    <path d="M 393.348959 448.56 
L 394.98344 448.56 
L 394.98344 448.56 
L 393.348959 448.56 
z
" clip-path="url(#pc738878839)" style="fill: #7f7f7f; opacity: 0.5"/>
   </g>
   <g id="patch_160">
    <path d="M 395.39206 448.56 
L 397.02654 448.56 
L 397.02654 448.56 
L 395.39206 448.56 
z
" clip-path="url(#pc738878839)" style="fill: #7f7f7f; opacity: 0.5"/>
   </g>
   <g id="patch_161">
    <path d="M 397.435161 448.56 
L 399.069641 448.56 
L 399.069641 448.56 
L 397.435161 448.56 
z
" clip-path="url(#pc738878839)" style="fill: #7f7f7f; opacity: 0.5"/>
   </g>
   <g id="patch_162">
    <path d="M 399.478261 448.56 
L 401.112742 448.56 
L 401.112742 448.56 
L 399.478261 448.56 
z
" clip-path="url(#pc738878839)" style="fill: #7f7f7f; opacity: 0.5"/>
   </g>
   <g id="patch_163">
    <path d="M 401.521362 448.56 
L 403.155843 448.56 
L 403.155843 448.56 
L 401.521362 448.56 
z
" clip-path="url(#pc738878839)" style="fill: #7f7f7f; opacity: 0.5"/>
   </g>
   <g id="patch_164">
    <path d="M 403.564463 448.56 
L 405.198943 448.56 
L 405.198943 448.56 
L 403.564463 448.56 
z
" clip-path="url(#pc738878839)" style="fill: #7f7f7f; opacity: 0.5"/>
   </g>
   <g id="patch_165">
    <path d="M 405.607564 448.56 
L 407.242044 448.56 
L 407.242044 448.56 
L 405.607564 448.56 
z
" clip-path="url(#pc738878839)" style="fill: #7f7f7f; opacity: 0.5"/>
   </g>
   <g id="patch_166">
    <path d="M 407.650664 448.56 
L 409.285145 448.56 
L 409.285145 448.56 
L 407.650664 448.56 
z
" clip-path="url(#pc738878839)" style="fill: #7f7f7f; opacity: 0.5"/>
   </g>
   <g id="patch_167">
    <path d="M 409.693765 448.56 
L 411.328246 448.56 
L 411.328246 448.56 
L 409.693765 448.56 
z
" clip-path="url(#pc738878839)" style="fill: #7f7f7f; opacity: 0.5"/>
   </g>
   <g id="patch_168">
    <path d="M 411.736866 448.56 
L 413.371346 448.56 
L 413.371346 448.56 
L 411.736866 448.56 
z
" clip-path="url(#pc738878839)" style="fill: #7f7f7f; opacity: 0.5"/>
   </g>
   <g id="patch_169">
    <path d="M 413.779967 448.56 
L 415.414447 448.56 
L 415.414447 448.56 
L 413.779967 448.56 
z
" clip-path="url(#pc738878839)" style="fill: #7f7f7f; opacity: 0.5"/>
   </g>
   <g id="patch_170">
    <path d="M 415.823067 448.56 
L 417.457548 448.56 
L 417.457548 448.56 
L 415.823067 448.56 
z
" clip-path="url(#pc738878839)" style="fill: #7f7f7f; opacity: 0.5"/>
   </g>
   <g id="patch_171">
    <path d="M 417.866168 448.56 
L 419.500649 448.56 
L 419.500649 448.56 
L 417.866168 448.56 
z
" clip-path="url(#pc738878839)" style="fill: #7f7f7f; opacity: 0.5"/>
   </g>
   <g id="patch_172">
    <path d="M 419.909269 448.56 
L 421.543749 448.56 
L 421.543749 448.56 
L 419.909269 448.56 
z
" clip-path="url(#pc738878839)" style="fill: #7f7f7f; opacity: 0.5"/>
   </g>
   <g id="patch_173">
    <path d="M 421.952369 448.56 
L 423.58685 448.56 
L 423.58685 448.56 
L 421.952369 448.56 
z
" clip-path="url(#pc738878839)" style="fill: #7f7f7f; opacity: 0.5"/>
   </g>
   <g id="patch_174">
    <path d="M 423.99547 448.56 
L 425.629951 448.56 
L 425.629951 448.56 
L 423.99547 448.56 
z
" clip-path="url(#pc738878839)" style="fill: #7f7f7f; opacity: 0.5"/>
   </g>
   <g id="patch_175">
    <path d="M 426.038571 448.56 
L 427.673052 448.56 
L 427.673052 448.56 
L 426.038571 448.56 
z
" clip-path="url(#pc738878839)" style="fill: #7f7f7f; opacity: 0.5"/>
   </g>
   <g id="patch_176">
    <path d="M 428.081672 448.56 
L 429.716152 448.56 
L 429.716152 448.56 
L 428.081672 448.56 
z
" clip-path="url(#pc738878839)" style="fill: #7f7f7f; opacity: 0.5"/>
   </g>
   <g id="patch_177">
    <path d="M 430.124772 448.56 
L 431.759253 448.56 
L 431.759253 448.56 
L 430.124772 448.56 
z
" clip-path="url(#pc738878839)" style="fill: #7f7f7f; opacity: 0.5"/>
   </g>
   <g id="patch_178">
    <path d="M 432.167873 448.56 
L 433.802354 448.56 
L 433.802354 448.56 
L 432.167873 448.56 
z
" clip-path="url(#pc738878839)" style="fill: #7f7f7f; opacity: 0.5"/>
   </g>
   <g id="patch_179">
    <path d="M 434.210974 448.56 
L 435.845455 448.56 
L 435.845455 448.56 
L 434.210974 448.56 
z
" clip-path="url(#pc738878839)" style="fill: #7f7f7f; opacity: 0.5"/>
   </g>
   <g id="matplotlib.axis_3">
    <g id="ytick_10">
     <g id="line2d_20">
      <defs>
       <path id="mac3f6f8cde" d="M 0 0 
L 3.5 0 
" style="stroke: #7f7f7f; stroke-width: 0.8"/>
      </defs>
      <g>
       <use xlink:href="#mac3f6f8cde" x="453.6" y="448.56" style="fill: #7f7f7f; stroke: #7f7f7f; stroke-width: 0.8"/>
      </g>
     </g>
     <g id="text_19">
      <text style="font-size: 16px; font-family: 'Arial', sans-serif; text-anchor: start; fill: #7f7f7f" x="460.6" y="454.28625" transform="rotate(-0 460.6 454.28625)">0</text>
     </g>
    </g>
    <g id="ytick_11">
     <g id="line2d_21">
      <g>
       <use xlink:href="#mac3f6f8cde" x="453.6" y="396.816" style="fill: #7f7f7f; stroke: #7f7f7f; stroke-width: 0.8"/>
      </g>
     </g>
     <g id="text_20">
      <text style="font-size: 16px; font-family: 'Arial', sans-serif; text-anchor: start; fill: #7f7f7f" x="460.6" y="402.54225" transform="rotate(-0 460.6 402.54225)">2</text>
     </g>
    </g>
    <g id="ytick_12">
     <g id="line2d_22">
      <g>
       <use xlink:href="#mac3f6f8cde" x="453.6" y="345.072" style="fill: #7f7f7f; stroke: #7f7f7f; stroke-width: 0.8"/>
      </g>
     </g>
     <g id="text_21">
      <text style="font-size: 16px; font-family: 'Arial', sans-serif; text-anchor: start; fill: #7f7f7f" x="460.6" y="350.79825" transform="rotate(-0 460.6 350.79825)">4</text>
     </g>
    </g>
    <g id="ytick_13">
     <g id="line2d_23">
      <g>
       <use xlink:href="#mac3f6f8cde" x="453.6" y="293.328" style="fill: #7f7f7f; stroke: #7f7f7f; stroke-width: 0.8"/>
      </g>
     </g>
     <g id="text_22">
      <text style="font-size: 16px; font-family: 'Arial', sans-serif; text-anchor: start; fill: #7f7f7f" x="460.6" y="299.05425" transform="rotate(-0 460.6 299.05425)">6</text>
     </g>
    </g>
    <g id="ytick_14">
     <g id="line2d_24">
      <g>
       <use xlink:href="#mac3f6f8cde" x="453.6" y="241.584" style="fill: #7f7f7f; stroke: #7f7f7f; stroke-width: 0.8"/>
      </g>
     </g>
     <g id="text_23">
      <text style="font-size: 16px; font-family: 'Arial', sans-serif; text-anchor: start; fill: #7f7f7f" x="460.6" y="247.31025" transform="rotate(-0 460.6 247.31025)">8</text>
     </g>
    </g>
    <g id="ytick_15">
     <g id="line2d_25">
      <g>
       <use xlink:href="#mac3f6f8cde" x="453.6" y="189.84" style="fill: #7f7f7f; stroke: #7f7f7f; stroke-width: 0.8"/>
      </g>
     </g>
     <g id="text_24">
      <text style="font-size: 16px; font-family: 'Arial', sans-serif; text-anchor: start; fill: #7f7f7f" x="460.6" y="195.56625" transform="rotate(-0 460.6 195.56625)">10</text>
     </g>
    </g>
    <g id="ytick_16">
     <g id="line2d_26">
      <g>
       <use xlink:href="#mac3f6f8cde" x="453.6" y="138.096" style="fill: #7f7f7f; stroke: #7f7f7f; stroke-width: 0.8"/>
      </g>
     </g>
     <g id="text_25">
      <text style="font-size: 16px; font-family: 'Arial', sans-serif; text-anchor: start; fill: #7f7f7f" x="460.6" y="143.82225" transform="rotate(-0 460.6 143.82225)">12</text>
     </g>
    </g>
    <g id="ytick_17">
     <g id="line2d_27">
      <g>
       <use xlink:href="#mac3f6f8cde" x="453.6" y="86.352" style="fill: #7f7f7f; stroke: #7f7f7f; stroke-width: 0.8"/>
      </g>
     </g>
     <g id="text_26">
      <text style="font-size: 16px; font-family: 'Arial', sans-serif; text-anchor: start; fill: #7f7f7f" x="460.6" y="92.07825" transform="rotate(-0 460.6 92.07825)">14</text>
     </g>
    </g>
    <g id="text_27">
     <text style="font-size: 16px; font-family: 'Arial', sans-serif; text-anchor: middle; fill: #7f7f7f" x="493.8475" y="254.52" transform="rotate(-90 493.8475 254.52)">Number of cases</text>
    </g>
   </g>
   <g id="patch_180">
    <path d="M 453.6 448.56 
L 453.6 60.48 
" style="fill: none; stroke: #7f7f7f; stroke-width: 0.8; stroke-linejoin: miter; stroke-linecap: square"/>
   </g>
  </g>
 </g>
 <defs>
  <clipPath id="pc738878839">
   <rect x="63" y="60.48" width="390.6" height="388.08"/>
  </clipPath>
 </defs>
</svg>
