<?xml version="1.0" encoding="utf-8" standalone="no"?>
<!DOCTYPE svg PUBLIC "-//W3C//DTD SVG 1.1//EN"
  "http://www.w3.org/Graphics/SVG/1.1/DTD/svg11.dtd">
<svg xmlns:xlink="http://www.w3.org/1999/xlink" width="504pt" height="504pt" viewBox="0 0 504 504" xmlns="http://www.w3.org/2000/svg" version="1.1">
 <metadata>
  <rdf:RDF xmlns:dc="http://purl.org/dc/elements/1.1/" xmlns:cc="http://creativecommons.org/ns#" xmlns:rdf="http://www.w3.org/1999/02/22-rdf-syntax-ns#">
   <cc:Work>
    <dc:type rdf:resource="http://purl.org/dc/dcmitype/StillImage"/>
    <dc:date>2026-07-17T10:21:21.319888</dc:date>
    <dc:format>image/svg+xml</dc:format>
    <dc:creator>
     <cc:Agent>
      <dc:title>Matplotlib v3.11.0, https://matplotlib.org/</dc:title>
     </cc:Agent>
    </dc:creator>
   </cc:Work>
  </rdf:RDF>
 </metadata>
 <defs>
  <style type="text/css">*{stroke-linejoin: round; stroke-linecap: butt}</style>
 </defs>
 <g id="figure_1">
  <g id="patch_1">
   <path d="M 0 504 
L 504 504 
L 504 0 
L 0 0 
L 0 504 
z
" style="fill: none"/>
  </g>
  <g id="axes_1">
   <g id="patch_2">
    <path d="M 63 448.56 
L 453.6 448.56 
L 453.6 60.48 
L 63 60.48 
L 63 448.56 
z
" style="fill: none"/>
   </g>
   <g id="matplotlib.axis_1">
    <g id="ytick_1">
     <g id="line2d_1">
      <defs>
       <path id="m212b2aac9f" d="M 0 0 
L 3.5 0 
" style="stroke: #7f7f7f; stroke-width: 0.8"/>
      </defs>
      <g>
       <use xlink:href="#m212b2aac9f" x="453.6" y="448.56" style="fill: #7f7f7f; stroke: #7f7f7f; stroke-width: 0.8"/>
      </g>
     </g>
     <g id="text_1">
      <text style="font-size: 16px; font-family: 'Arial', sans-serif; text-anchor: start; fill: #7f7f7f" x="460.6" y="454.384219" transform="rotate(-0 460.6 454.384219)">0</text>
     </g>
    </g>
    <g id="ytick_2">
     <g id="line2d_2">
      <g>
       <use xlink:href="#m212b2aac9f" x="453.6" y="396.816" style="fill: #7f7f7f; stroke: #7f7f7f; stroke-width: 0.8"/>
      </g>
     </g>
     <g id="text_2">
      <text style="font-size: 16px; font-family: 'Arial', sans-serif; text-anchor: start; fill: #7f7f7f" x="460.6" y="402.640219" transform="rotate(-0 460.6 402.640219)">2</text>
     </g>
    </g>
    <g id="ytick_3">
     <g id="line2d_3">
      <g>
       <use xlink:href="#m212b2aac9f" x="453.6" y="345.072" style="fill: #7f7f7f; stroke: #7f7f7f; stroke-width: 0.8"/>
      </g>
     </g>
     <g id="text_3">
      <text style="font-size: 16px; font-family: 'Arial', sans-serif; text-anchor: start; fill: #7f7f7f" x="460.6" y="350.896219" transform="rotate(-0 460.6 350.896219)">4</text>
     </g>
    </g>
    <g id="ytick_4">
     <g id="line2d_4">
      <g>
       <use xlink:href="#m212b2aac9f" x="453.6" y="293.328" style="fill: #7f7f7f; stroke: #7f7f7f; stroke-width: 0.8"/>
      </g>
     </g>
     <g id="text_4">
      <text style="font-size: 16px; font-family: 'Arial', sans-serif; text-anchor: start; fill: #7f7f7f" x="460.6" y="299.152219" transform="rotate(-0 460.6 299.152219)">6</text>
     </g>
    </g>
    <g id="ytick_5">
     <g id="line2d_5">
      <g>
       <use xlink:href="#m212b2aac9f" x="453.6" y="241.584" style="fill: #7f7f7f; stroke: #7f7f7f; stroke-width: 0.8"/>
      </g>
     </g>
     <g id="text_5">
      <text style="font-size: 16px; font-family: 'Arial', sans-serif; text-anchor: start; fill: #7f7f7f" x="460.6" y="247.408219" transform="rotate(-0 460.6 247.408219)">8</text>
     </g>
    </g>
    <g id="ytick_6">
     <g id="line2d_6">
      <g>
       <use xlink:href="#m212b2aac9f" x="453.6" y="189.84" style="fill: #7f7f7f; stroke: #7f7f7f; stroke-width: 0.8"/>
      </g>
     </g>
     <g id="text_6">
      <text style="font-size: 16px; font-family: 'Arial', sans-serif; text-anchor: start; fill: #7f7f7f" x="460.6" y="195.664219" transform="rotate(-0 460.6 195.664219)">10</text>
     </g>
    </g>
    <g id="ytick_7">
     <g id="line2d_7">
      <g>
       <use xlink:href="#m212b2aac9f" x="453.6" y="138.096" style="fill: #7f7f7f; stroke: #7f7f7f; stroke-width: 0.8"/>
      </g>
     </g>
     <g id="text_7">
      <text style="font-size: 16px; font-family: 'Arial', sans-serif; text-anchor: start; fill: #7f7f7f" x="460.6" y="143.920219" transform="rotate(-0 460.6 143.920219)">12</text>
     </g>
    </g>
    <g id="ytick_8">
     <g id="line2d_8">
      <g>
       <use xlink:href="#m212b2aac9f" x="453.6" y="86.352" style="fill: #7f7f7f; stroke: #7f7f7f; stroke-width: 0.8"/>
      </g>
     </g>
     <g id="text_8">
      <text style="font-size: 16px; font-family: 'Arial', sans-serif; text-anchor: start; fill: #7f7f7f" x="460.6" y="92.176219" transform="rotate(-0 460.6 92.176219)">14</text>
     </g>
    </g>
    <g id="text_9">
     <text style="font-size: 16px; font-family: 'Arial', sans-serif; text-anchor: middle; fill: #7f7f7f" x="494.043438" y="254.52" transform="rotate(-90 494.043438 254.52)">Number of cases</text>
    </g>
   </g>
   <g id="patch_3">
    <path d="M 80.754545 448.56 
L 82.379675 448.56 
L 82.379675 396.816 
L 80.754545 396.816 
z
" clip-path="url(#p7ee44f37bf)" style="fill: #7f7f7f; opacity: 0.5"/>
   </g>
   <g id="patch_4">
    <path d="M 82.785958 448.56 
L 84.411088 448.56 
L 84.411088 396.816 
L 82.785958 396.816 
z
" clip-path="url(#p7ee44f37bf)" style="fill: #7f7f7f; opacity: 0.5"/>
   </g>
   <g id="patch_5">
    <path d="M 84.817371 448.56 
L 86.442501 448.56 
L 86.442501 396.816 
L 84.817371 396.816 
z
" clip-path="url(#p7ee44f37bf)" style="fill: #7f7f7f; opacity: 0.5"/>
   </g>
   <g id="patch_6">
    <path d="M 86.848783 448.56 
L 88.473913 448.56 
L 88.473913 448.56 
L 86.848783 448.56 
z
" clip-path="url(#p7ee44f37bf)" style="fill: #7f7f7f; opacity: 0.5"/>
   </g>
   <g id="patch_7">
    <path d="M 88.880196 448.56 
L 90.505326 448.56 
L 90.505326 448.56 
L 88.880196 448.56 
z
" clip-path="url(#p7ee44f37bf)" style="fill: #7f7f7f; opacity: 0.5"/>
   </g>
   <g id="patch_8">
    <path d="M 90.911608 448.56 
L 92.536738 448.56 
L 92.536738 448.56 
L 90.911608 448.56 
z
" clip-path="url(#p7ee44f37bf)" style="fill: #7f7f7f; opacity: 0.5"/>
   </g>
   <g id="patch_9">
    <path d="M 92.943021 448.56 
L 94.568151 448.56 
L 94.568151 448.56 
L 92.943021 448.56 
z
" clip-path="url(#p7ee44f37bf)" style="fill: #7f7f7f; opacity: 0.5"/>
   </g>
   <g id="patch_10">
    <path d="M 94.974433 448.56 
L 96.599563 448.56 
L 96.599563 448.56 
L 94.974433 448.56 
z
" clip-path="url(#p7ee44f37bf)" style="fill: #7f7f7f; opacity: 0.5"/>
   </g>
   <g id="patch_11">
    <path d="M 97.005846 448.56 
L 98.630976 448.56 
L 98.630976 448.56 
L 97.005846 448.56 
z
" clip-path="url(#p7ee44f37bf)" style="fill: #7f7f7f; opacity: 0.5"/>
   </g>
   <g id="patch_12">
    <path d="M 99.037258 448.56 
L 100.662388 448.56 
L 100.662388 422.688 
L 99.037258 422.688 
z
" clip-path="url(#p7ee44f37bf)" style="fill: #7f7f7f; opacity: 0.5"/>
   </g>
   <g id="patch_13">
    <path d="M 101.068671 448.56 
L 102.693801 448.56 
L 102.693801 448.56 
L 101.068671 448.56 
z
" clip-path="url(#p7ee44f37bf)" style="fill: #7f7f7f; opacity: 0.5"/>
   </g>
   <g id="patch_14">
    <path d="M 103.100083 448.56 
L 104.725213 448.56 
L 104.725213 448.56 
L 103.100083 448.56 
z
" clip-path="url(#p7ee44f37bf)" style="fill: #7f7f7f; opacity: 0.5"/>
   </g>
   <g id="patch_15">
    <path d="M 105.131496 448.56 
L 106.756626 448.56 
L 106.756626 448.56 
L 105.131496 448.56 
z
" clip-path="url(#p7ee44f37bf)" style="fill: #7f7f7f; opacity: 0.5"/>
   </g>
   <g id="patch_16">
    <path d="M 107.162908 448.56 
L 108.788038 448.56 
L 108.788038 448.56 
L 107.162908 448.56 
z
" clip-path="url(#p7ee44f37bf)" style="fill: #7f7f7f; opacity: 0.5"/>
   </g>
   <g id="patch_17">
    <path d="M 109.194321 448.56 
L 110.819451 448.56 
L 110.819451 448.56 
L 109.194321 448.56 
z
" clip-path="url(#p7ee44f37bf)" style="fill: #7f7f7f; opacity: 0.5"/>
   </g>
   <g id="patch_18">
    <path d="M 111.225733 448.56 
L 112.850863 448.56 
L 112.850863 448.56 
L 111.225733 448.56 
z
" clip-path="url(#p7ee44f37bf)" style="fill: #7f7f7f; opacity: 0.5"/>
   </g>
   <g id="patch_19">
    <path d="M 113.257146 448.56 
L 114.882276 448.56 
L 114.882276 448.56 
L 113.257146 448.56 
z
" clip-path="url(#p7ee44f37bf)" style="fill: #7f7f7f; opacity: 0.5"/>
   </g>
   <g id="patch_20">
    <path d="M 115.288558 448.56 
L 116.913688 448.56 
L 116.913688 448.56 
L 115.288558 448.56 
z
" clip-path="url(#p7ee44f37bf)" style="fill: #7f7f7f; opacity: 0.5"/>
   </g>
   <g id="patch_21">
    <path d="M 117.319971 448.56 
L 118.945101 448.56 
L 118.945101 448.56 
L 117.319971 448.56 
z
" clip-path="url(#p7ee44f37bf)" style="fill: #7f7f7f; opacity: 0.5"/>
   </g>
   <g id="patch_22">
    <path d="M 119.351383 448.56 
L 120.976513 448.56 
L 120.976513 422.688 
L 119.351383 422.688 
z
" clip-path="url(#p7ee44f37bf)" style="fill: #7f7f7f; opacity: 0.5"/>
   </g>
   <g id="patch_23">
    <path d="M 121.382796 448.56 
L 123.007926 448.56 
L 123.007926 448.56 
L 121.382796 448.56 
z
" clip-path="url(#p7ee44f37bf)" style="fill: #7f7f7f; opacity: 0.5"/>
   </g>
   <g id="patch_24">
    <path d="M 123.414208 448.56 
L 125.039338 448.56 
L 125.039338 448.56 
L 123.414208 448.56 
z
" clip-path="url(#p7ee44f37bf)" style="fill: #7f7f7f; opacity: 0.5"/>
   </g>
   <g id="patch_25">
    <path d="M 125.445621 448.56 
L 127.070751 448.56 
L 127.070751 422.688 
L 125.445621 422.688 
z
" clip-path="url(#p7ee44f37bf)" style="fill: #7f7f7f; opacity: 0.5"/>
   </g>
   <g id="patch_26">
    <path d="M 127.477033 448.56 
L 129.102164 448.56 
L 129.102164 448.56 
L 127.477033 448.56 
z
" clip-path="url(#p7ee44f37bf)" style="fill: #7f7f7f; opacity: 0.5"/>
   </g>
   <g id="patch_27">
    <path d="M 129.508446 448.56 
L 131.133576 448.56 
L 131.133576 422.688 
L 129.508446 422.688 
z
" clip-path="url(#p7ee44f37bf)" style="fill: #7f7f7f; opacity: 0.5"/>
   </g>
   <g id="patch_28">
    <path d="M 131.539859 448.56 
L 133.164989 448.56 
L 133.164989 448.56 
L 131.539859 448.56 
z
" clip-path="url(#p7ee44f37bf)" style="fill: #7f7f7f; opacity: 0.5"/>
   </g>
   <g id="patch_29">
    <path d="M 133.571271 448.56 
L 135.196401 448.56 
L 135.196401 422.688 
L 133.571271 422.688 
z
" clip-path="url(#p7ee44f37bf)" style="fill: #7f7f7f; opacity: 0.5"/>
   </g>
   <g id="patch_30">
    <path d="M 135.602684 448.56 
L 137.227814 448.56 
L 137.227814 448.56 
L 135.602684 448.56 
z
" clip-path="url(#p7ee44f37bf)" style="fill: #7f7f7f; opacity: 0.5"/>
   </g>
   <g id="patch_31">
    <path d="M 137.634096 448.56 
L 139.259226 448.56 
L 139.259226 422.688 
L 137.634096 422.688 
z
" clip-path="url(#p7ee44f37bf)" style="fill: #7f7f7f; opacity: 0.5"/>
   </g>
   <g id="patch_32">
    <path d="M 139.665509 448.56 
L 141.290639 448.56 
L 141.290639 422.688 
L 139.665509 422.688 
z
" clip-path="url(#p7ee44f37bf)" style="fill: #7f7f7f; opacity: 0.5"/>
   </g>
   <g id="patch_33">
    <path d="M 141.696921 448.56 
L 143.322051 448.56 
L 143.322051 448.56 
L 141.696921 448.56 
z
" clip-path="url(#p7ee44f37bf)" style="fill: #7f7f7f; opacity: 0.5"/>
   </g>
   <g id="patch_34">
    <path d="M 143.728334 448.56 
L 145.353464 448.56 
L 145.353464 422.688 
L 143.728334 422.688 
z
" clip-path="url(#p7ee44f37bf)" style="fill: #7f7f7f; opacity: 0.5"/>
   </g>
   <g id="patch_35">
    <path d="M 145.759746 448.56 
L 147.384876 448.56 
L 147.384876 422.688 
L 145.759746 422.688 
z
" clip-path="url(#p7ee44f37bf)" style="fill: #7f7f7f; opacity: 0.5"/>
   </g>
   <g id="patch_36">
    <path d="M 147.791159 448.56 
L 149.416289 448.56 
L 149.416289 448.56 
L 147.791159 448.56 
z
" clip-path="url(#p7ee44f37bf)" style="fill: #7f7f7f; opacity: 0.5"/>
   </g>
   <g id="patch_37">
    <path d="M 149.822571 448.56 
L 151.447701 448.56 
L 151.447701 422.688 
L 149.822571 422.688 
z
" clip-path="url(#p7ee44f37bf)" style="fill: #7f7f7f; opacity: 0.5"/>
   </g>
   <g id="patch_38">
    <path d="M 151.853984 448.56 
L 153.479114 448.56 
L 153.479114 448.56 
L 151.853984 448.56 
z
" clip-path="url(#p7ee44f37bf)" style="fill: #7f7f7f; opacity: 0.5"/>
   </g>
   <g id="patch_39">
    <path d="M 153.885396 448.56 
L 155.510526 448.56 
L 155.510526 448.56 
L 153.885396 448.56 
z
" clip-path="url(#p7ee44f37bf)" style="fill: #7f7f7f; opacity: 0.5"/>
   </g>
   <g id="patch_40">
    <path d="M 155.916809 448.56 
L 157.541939 448.56 
L 157.541939 370.944 
L 155.916809 370.944 
z
" clip-path="url(#p7ee44f37bf)" style="fill: #7f7f7f; opacity: 0.5"/>
   </g>
   <g id="patch_41">
    <path d="M 157.948221 448.56 
L 159.573351 448.56 
L 159.573351 396.816 
L 157.948221 396.816 
z
" clip-path="url(#p7ee44f37bf)" style="fill: #7f7f7f; opacity: 0.5"/>
   </g>
   <g id="patch_42">
    <path d="M 159.979634 448.56 
L 161.604764 448.56 
L 161.604764 422.688 
L 159.979634 422.688 
z
" clip-path="url(#p7ee44f37bf)" style="fill: #7f7f7f; opacity: 0.5"/>
   </g>
   <g id="patch_43">
    <path d="M 162.011046 448.56 
L 163.636176 448.56 
L 163.636176 422.688 
L 162.011046 422.688 
z
" clip-path="url(#p7ee44f37bf)" style="fill: #7f7f7f; opacity: 0.5"/>
   </g>
   <g id="patch_44">
    <path d="M 164.042459 448.56 
L 165.667589 448.56 
L 165.667589 422.688 
L 164.042459 422.688 
z
" clip-path="url(#p7ee44f37bf)" style="fill: #7f7f7f; opacity: 0.5"/>
   </g>
   <g id="patch_45">
    <path d="M 166.073871 448.56 
L 167.699001 448.56 
L 167.699001 422.688 
L 166.073871 422.688 
z
" clip-path="url(#p7ee44f37bf)" style="fill: #7f7f7f; opacity: 0.5"/>
   </g>
   <g id="patch_46">
    <path d="M 168.105284 448.56 
L 169.730414 448.56 
L 169.730414 370.944 
L 168.105284 370.944 
z
" clip-path="url(#p7ee44f37bf)" style="fill: #7f7f7f; opacity: 0.5"/>
   </g>
   <g id="patch_47">
    <path d="M 170.136696 448.56 
L 171.761827 448.56 
L 171.761827 448.56 
L 170.136696 448.56 
z
" clip-path="url(#p7ee44f37bf)" style="fill: #7f7f7f; opacity: 0.5"/>
   </g>
   <g id="patch_48">
    <path d="M 172.168109 448.56 
L 173.793239 448.56 
L 173.793239 422.688 
L 172.168109 422.688 
z
" clip-path="url(#p7ee44f37bf)" style="fill: #7f7f7f; opacity: 0.5"/>
   </g>
   <g id="patch_49">
    <path d="M 174.199522 448.56 
L 175.824652 448.56 
L 175.824652 422.688 
L 174.199522 422.688 
z
" clip-path="url(#p7ee44f37bf)" style="fill: #7f7f7f; opacity: 0.5"/>
   </g>
   <g id="patch_50">
    <path d="M 176.230934 448.56 
L 177.856064 448.56 
L 177.856064 345.072 
L 176.230934 345.072 
z
" clip-path="url(#p7ee44f37bf)" style="fill: #7f7f7f; opacity: 0.5"/>
   </g>
   <g id="patch_51">
    <path d="M 178.262347 448.56 
L 179.887477 448.56 
L 179.887477 370.944 
L 178.262347 370.944 
z
" clip-path="url(#p7ee44f37bf)" style="fill: #7f7f7f; opacity: 0.5"/>
   </g>
   <g id="patch_52">
    <path d="M 180.293759 448.56 
L 181.918889 448.56 
L 181.918889 370.944 
L 180.293759 370.944 
z
" clip-path="url(#p7ee44f37bf)" style="fill: #7f7f7f; opacity: 0.5"/>
   </g>
   <g id="patch_53">
    <path d="M 182.325172 448.56 
L 183.950302 448.56 
L 183.950302 396.816 
L 182.325172 396.816 
z
" clip-path="url(#p7ee44f37bf)" style="fill: #7f7f7f; opacity: 0.5"/>
   </g>
   <g id="patch_54">
    <path d="M 184.356584 448.56 
L 185.981714 448.56 
L 185.981714 345.072 
L 184.356584 345.072 
z
" clip-path="url(#p7ee44f37bf)" style="fill: #7f7f7f; opacity: 0.5"/>
   </g>
   <g id="patch_55">
    <path d="M 186.387997 448.56 
L 188.013127 448.56 
L 188.013127 345.072 
L 186.387997 345.072 
z
" clip-path="url(#p7ee44f37bf)" style="fill: #7f7f7f; opacity: 0.5"/>
   </g>
   <g id="patch_56">
    <path d="M 188.419409 448.56 
L 190.044539 448.56 
L 190.044539 241.584 
L 188.419409 241.584 
z
" clip-path="url(#p7ee44f37bf)" style="fill: #7f7f7f; opacity: 0.5"/>
   </g>
   <g id="patch_57">
    <path d="M 190.450822 448.56 
L 192.075952 448.56 
L 192.075952 319.2 
L 190.450822 319.2 
z
" clip-path="url(#p7ee44f37bf)" style="fill: #7f7f7f; opacity: 0.5"/>
   </g>
   <g id="patch_58">
    <path d="M 192.482234 448.56 
L 194.107364 448.56 
L 194.107364 241.584 
L 192.482234 241.584 
z
" clip-path="url(#p7ee44f37bf)" style="fill: #7f7f7f; opacity: 0.5"/>
   </g>
   <g id="patch_59">
    <path d="M 194.513647 448.56 
L 196.138777 448.56 
L 196.138777 319.2 
L 194.513647 319.2 
z
" clip-path="url(#p7ee44f37bf)" style="fill: #7f7f7f; opacity: 0.5"/>
   </g>
   <g id="patch_60">
    <path d="M 196.545059 448.56 
L 198.170189 448.56 
L 198.170189 345.072 
L 196.545059 345.072 
z
" clip-path="url(#p7ee44f37bf)" style="fill: #7f7f7f; opacity: 0.5"/>
   </g>
   <g id="patch_61">
    <path d="M 198.576472 448.56 
L 200.201602 448.56 
L 200.201602 319.2 
L 198.576472 319.2 
z
" clip-path="url(#p7ee44f37bf)" style="fill: #7f7f7f; opacity: 0.5"/>
   </g>
   <g id="patch_62">
    <path d="M 200.607884 448.56 
L 202.233014 448.56 
L 202.233014 267.456 
L 200.607884 267.456 
z
" clip-path="url(#p7ee44f37bf)" style="fill: #7f7f7f; opacity: 0.5"/>
   </g>
   <g id="patch_63">
    <path d="M 202.639297 448.56 
L 204.264427 448.56 
L 204.264427 396.816 
L 202.639297 396.816 
z
" clip-path="url(#p7ee44f37bf)" style="fill: #7f7f7f; opacity: 0.5"/>
   </g>
   <g id="patch_64">
    <path d="M 204.670709 448.56 
L 206.295839 448.56 
L 206.295839 422.688 
L 204.670709 422.688 
z
" clip-path="url(#p7ee44f37bf)" style="fill: #7f7f7f; opacity: 0.5"/>
   </g>
   <g id="patch_65">
    <path d="M 206.702122 448.56 
L 208.327252 448.56 
L 208.327252 241.584 
L 206.702122 241.584 
z
" clip-path="url(#p7ee44f37bf)" style="fill: #7f7f7f; opacity: 0.5"/>
   </g>
   <g id="patch_66">
    <path d="M 208.733534 448.56 
L 210.358664 448.56 
L 210.358664 396.816 
L 208.733534 396.816 
z
" clip-path="url(#p7ee44f37bf)" style="fill: #7f7f7f; opacity: 0.5"/>
   </g>
   <g id="patch_67">
    <path d="M 210.764947 448.56 
L 212.390077 448.56 
L 212.390077 345.072 
L 210.764947 345.072 
z
" clip-path="url(#p7ee44f37bf)" style="fill: #7f7f7f; opacity: 0.5"/>
   </g>
   <g id="patch_68">
    <path d="M 212.796359 448.56 
L 214.421489 448.56 
L 214.421489 396.816 
L 212.796359 396.816 
z
" clip-path="url(#p7ee44f37bf)" style="fill: #7f7f7f; opacity: 0.5"/>
   </g>
   <g id="patch_69">
    <path d="M 214.827772 448.56 
L 216.452902 448.56 
L 216.452902 215.712 
L 214.827772 215.712 
z
" clip-path="url(#p7ee44f37bf)" style="fill: #7f7f7f; opacity: 0.5"/>
   </g>
   <g id="patch_70">
    <path d="M 216.859185 448.56 
L 218.484315 448.56 
L 218.484315 241.584 
L 216.859185 241.584 
z
" clip-path="url(#p7ee44f37bf)" style="fill: #7f7f7f; opacity: 0.5"/>
   </g>
   <g id="patch_71">
    <path d="M 218.890597 448.56 
L 220.515727 448.56 
L 220.515727 241.584 
L 218.890597 241.584 
z
" clip-path="url(#p7ee44f37bf)" style="fill: #7f7f7f; opacity: 0.5"/>
   </g>
   <g id="patch_72">
    <path d="M 220.92201 448.56 
L 222.54714 448.56 
L 222.54714 267.456 
L 220.92201 267.456 
z
" clip-path="url(#p7ee44f37bf)" style="fill: #7f7f7f; opacity: 0.5"/>
   </g>
   <g id="patch_73">
    <path d="M 222.953422 448.56 
L 224.578552 448.56 
L 224.578552 215.712 
L 222.953422 215.712 
z
" clip-path="url(#p7ee44f37bf)" style="fill: #7f7f7f; opacity: 0.5"/>
   </g>
   <g id="patch_74">
    <path d="M 224.984835 448.56 
L 226.609965 448.56 
L 226.609965 138.096 
L 224.984835 138.096 
z
" clip-path="url(#p7ee44f37bf)" style="fill: #7f7f7f; opacity: 0.5"/>
   </g>
   <g id="patch_75">
    <path d="M 227.016247 448.56 
L 228.641377 448.56 
L 228.641377 138.096 
L 227.016247 138.096 
z
" clip-path="url(#p7ee44f37bf)" style="fill: #7f7f7f; opacity: 0.5"/>
   </g>
   <g id="patch_76">
    <path d="M 229.04766 448.56 
L 230.67279 448.56 
L 230.67279 267.456 
L 229.04766 267.456 
z
" clip-path="url(#p7ee44f37bf)" style="fill: #7f7f7f; opacity: 0.5"/>
   </g>
   <g id="patch_77">
    <path d="M 231.079072 448.56 
L 232.704202 448.56 
L 232.704202 138.096 
L 231.079072 138.096 
z
" clip-path="url(#p7ee44f37bf)" style="fill: #7f7f7f; opacity: 0.5"/>
   </g>
   <g id="patch_78">
    <path d="M 233.110485 448.56 
L 234.735615 448.56 
L 234.735615 396.816 
L 233.110485 396.816 
z
" clip-path="url(#p7ee44f37bf)" style="fill: #7f7f7f; opacity: 0.5"/>
   </g>
   <g id="patch_79">
    <path d="M 235.141897 448.56 
L 236.767027 448.56 
L 236.767027 60.48 
L 235.141897 60.48 
z
" clip-path="url(#p7ee44f37bf)" style="fill: #7f7f7f; opacity: 0.5"/>
   </g>
   <g id="patch_80">
    <path d="M 237.17331 448.56 
L 238.79844 448.56 
L 238.79844 163.968 
L 237.17331 163.968 
z
" clip-path="url(#p7ee44f37bf)" style="fill: #7f7f7f; opacity: 0.5"/>
   </g>
   <g id="patch_81">
    <path d="M 239.204722 448.56 
L 240.829852 448.56 
L 240.829852 319.2 
L 239.204722 319.2 
z
" clip-path="url(#p7ee44f37bf)" style="fill: #7f7f7f; opacity: 0.5"/>
   </g>
   <g id="patch_82">
    <path d="M 241.236135 448.56 
L 242.861265 448.56 
L 242.861265 345.072 
L 241.236135 345.072 
z
" clip-path="url(#p7ee44f37bf)" style="fill: #7f7f7f; opacity: 0.5"/>
   </g>
   <g id="patch_83">
    <path d="M 243.267547 448.56 
L 244.892677 448.56 
L 244.892677 396.816 
L 243.267547 396.816 
z
" clip-path="url(#p7ee44f37bf)" style="fill: #7f7f7f; opacity: 0.5"/>
   </g>
   <g id="patch_84">
    <path d="M 245.29896 448.56 
L 246.92409 448.56 
L 246.92409 345.072 
L 245.29896 345.072 
z
" clip-path="url(#p7ee44f37bf)" style="fill: #7f7f7f; opacity: 0.5"/>
   </g>
   <g id="patch_85">
    <path d="M 247.330372 448.56 
L 248.955502 448.56 
L 248.955502 267.456 
L 247.330372 267.456 
z
" clip-path="url(#p7ee44f37bf)" style="fill: #7f7f7f; opacity: 0.5"/>
   </g>
   <g id="patch_86">
    <path d="M 249.361785 448.56 
L 250.986915 448.56 
L 250.986915 112.224 
L 249.361785 112.224 
z
" clip-path="url(#p7ee44f37bf)" style="fill: #7f7f7f; opacity: 0.5"/>
   </g>
   <g id="patch_87">
    <path d="M 251.393197 448.56 
L 253.018327 448.56 
L 253.018327 293.328 
L 251.393197 293.328 
z
" clip-path="url(#p7ee44f37bf)" style="fill: #7f7f7f; opacity: 0.5"/>
   </g>
   <g id="patch_88">
    <path d="M 253.42461 448.56 
L 255.04974 448.56 
L 255.04974 241.584 
L 253.42461 241.584 
z
" clip-path="url(#p7ee44f37bf)" style="fill: #7f7f7f; opacity: 0.5"/>
   </g>
   <g id="patch_89">
    <path d="M 255.456022 448.56 
L 257.081152 448.56 
L 257.081152 345.072 
L 255.456022 345.072 
z
" clip-path="url(#p7ee44f37bf)" style="fill: #7f7f7f; opacity: 0.5"/>
   </g>
   <g id="patch_90">
    <path d="M 257.487435 448.56 
L 259.112565 448.56 
L 259.112565 319.2 
L 257.487435 319.2 
z
" clip-path="url(#p7ee44f37bf)" style="fill: #7f7f7f; opacity: 0.5"/>
   </g>
   <g id="patch_91">
    <path d="M 259.518848 448.56 
L 261.143978 448.56 
L 261.143978 370.944 
L 259.518848 370.944 
z
" clip-path="url(#p7ee44f37bf)" style="fill: #7f7f7f; opacity: 0.5"/>
   </g>
   <g id="patch_92">
    <path d="M 261.55026 448.56 
L 263.17539 448.56 
L 263.17539 396.816 
L 261.55026 396.816 
z
" clip-path="url(#p7ee44f37bf)" style="fill: #7f7f7f; opacity: 0.5"/>
   </g>
   <g id="patch_93">
    <path d="M 263.581673 448.56 
L 265.206803 448.56 
L 265.206803 396.816 
L 263.581673 396.816 
z
" clip-path="url(#p7ee44f37bf)" style="fill: #7f7f7f; opacity: 0.5"/>
   </g>
   <g id="patch_94">
    <path d="M 265.613085 448.56 
L 267.238215 448.56 
L 267.238215 448.56 
L 265.613085 448.56 
z
" clip-path="url(#p7ee44f37bf)" style="fill: #7f7f7f; opacity: 0.5"/>
   </g>
   <g id="patch_95">
    <path d="M 267.644498 448.56 
L 269.269628 448.56 
L 269.269628 422.688 
L 267.644498 422.688 
z
" clip-path="url(#p7ee44f37bf)" style="fill: #7f7f7f; opacity: 0.5"/>
   </g>
   <g id="patch_96">
    <path d="M 269.67591 448.56 
L 271.30104 448.56 
L 271.30104 396.816 
L 269.67591 396.816 
z
" clip-path="url(#p7ee44f37bf)" style="fill: #7f7f7f; opacity: 0.5"/>
   </g>
   <g id="patch_97">
    <path d="M 271.707323 448.56 
L 273.332453 448.56 
L 273.332453 370.944 
L 271.707323 370.944 
z
" clip-path="url(#p7ee44f37bf)" style="fill: #7f7f7f; opacity: 0.5"/>
   </g>
   <g id="patch_98">
    <path d="M 273.738735 448.56 
L 275.363865 448.56 
L 275.363865 422.688 
L 273.738735 422.688 
z
" clip-path="url(#p7ee44f37bf)" style="fill: #7f7f7f; opacity: 0.5"/>
   </g>
   <g id="patch_99">
    <path d="M 275.770148 448.56 
L 277.395278 448.56 
L 277.395278 370.944 
L 275.770148 370.944 
z
" clip-path="url(#p7ee44f37bf)" style="fill: #7f7f7f; opacity: 0.5"/>
   </g>
   <g id="patch_100">
    <path d="M 277.80156 448.56 
L 279.42669 448.56 
L 279.42669 396.816 
L 277.80156 396.816 
z
" clip-path="url(#p7ee44f37bf)" style="fill: #7f7f7f; opacity: 0.5"/>
   </g>
   <g id="patch_101">
    <path d="M 279.832973 448.56 
L 281.458103 448.56 
L 281.458103 448.56 
L 279.832973 448.56 
z
" clip-path="url(#p7ee44f37bf)" style="fill: #7f7f7f; opacity: 0.5"/>
   </g>
   <g id="patch_102">
    <path d="M 281.864385 448.56 
L 283.489515 448.56 
L 283.489515 448.56 
L 281.864385 448.56 
z
" clip-path="url(#p7ee44f37bf)" style="fill: #7f7f7f; opacity: 0.5"/>
   </g>
   <g id="patch_103">
    <path d="M 283.895798 448.56 
L 285.520928 448.56 
L 285.520928 422.688 
L 283.895798 422.688 
z
" clip-path="url(#p7ee44f37bf)" style="fill: #7f7f7f; opacity: 0.5"/>
   </g>
   <g id="patch_104">
    <path d="M 285.92721 448.56 
L 287.55234 448.56 
L 287.55234 396.816 
L 285.92721 396.816 
z
" clip-path="url(#p7ee44f37bf)" style="fill: #7f7f7f; opacity: 0.5"/>
   </g>
   <g id="patch_105">
    <path d="M 287.958623 448.56 
L 289.583753 448.56 
L 289.583753 422.688 
L 287.958623 422.688 
z
" clip-path="url(#p7ee44f37bf)" style="fill: #7f7f7f; opacity: 0.5"/>
   </g>
   <g id="patch_106">
    <path d="M 289.990035 448.56 
L 291.615165 448.56 
L 291.615165 448.56 
L 289.990035 448.56 
z
" clip-path="url(#p7ee44f37bf)" style="fill: #7f7f7f; opacity: 0.5"/>
   </g>
   <g id="patch_107">
    <path d="M 292.021448 448.56 
L 293.646578 448.56 
L 293.646578 422.688 
L 292.021448 422.688 
z
" clip-path="url(#p7ee44f37bf)" style="fill: #7f7f7f; opacity: 0.5"/>
   </g>
   <g id="patch_108">
    <path d="M 294.05286 448.56 
L 295.67799 448.56 
L 295.67799 448.56 
L 294.05286 448.56 
z
" clip-path="url(#p7ee44f37bf)" style="fill: #7f7f7f; opacity: 0.5"/>
   </g>
   <g id="patch_109">
    <path d="M 296.084273 448.56 
L 297.709403 448.56 
L 297.709403 422.688 
L 296.084273 422.688 
z
" clip-path="url(#p7ee44f37bf)" style="fill: #7f7f7f; opacity: 0.5"/>
   </g>
   <g id="patch_110">
    <path d="M 298.115685 448.56 
L 299.740815 448.56 
L 299.740815 448.56 
L 298.115685 448.56 
z
" clip-path="url(#p7ee44f37bf)" style="fill: #7f7f7f; opacity: 0.5"/>
   </g>
   <g id="patch_111">
    <path d="M 300.147098 448.56 
L 301.772228 448.56 
L 301.772228 448.56 
L 300.147098 448.56 
z
" clip-path="url(#p7ee44f37bf)" style="fill: #7f7f7f; opacity: 0.5"/>
   </g>
   <g id="patch_112">
    <path d="M 302.178511 448.56 
L 303.803641 448.56 
L 303.803641 448.56 
L 302.178511 448.56 
z
" clip-path="url(#p7ee44f37bf)" style="fill: #7f7f7f; opacity: 0.5"/>
   </g>
   <g id="patch_113">
    <path d="M 304.209923 448.56 
L 305.835053 448.56 
L 305.835053 422.688 
L 304.209923 422.688 
z
" clip-path="url(#p7ee44f37bf)" style="fill: #7f7f7f; opacity: 0.5"/>
   </g>
   <g id="patch_114">
    <path d="M 306.241336 448.56 
L 307.866466 448.56 
L 307.866466 422.688 
L 306.241336 422.688 
z
" clip-path="url(#p7ee44f37bf)" style="fill: #7f7f7f; opacity: 0.5"/>
   </g>
   <g id="patch_115">
    <path d="M 308.272748 448.56 
L 309.897878 448.56 
L 309.897878 448.56 
L 308.272748 448.56 
z
" clip-path="url(#p7ee44f37bf)" style="fill: #7f7f7f; opacity: 0.5"/>
   </g>
   <g id="patch_116">
    <path d="M 310.304161 448.56 
L 311.929291 448.56 
L 311.929291 448.56 
L 310.304161 448.56 
z
" clip-path="url(#p7ee44f37bf)" style="fill: #7f7f7f; opacity: 0.5"/>
   </g>
   <g id="patch_117">
    <path d="M 312.335573 448.56 
L 313.960703 448.56 
L 313.960703 448.56 
L 312.335573 448.56 
z
" clip-path="url(#p7ee44f37bf)" style="fill: #7f7f7f; opacity: 0.5"/>
   </g>
   <g id="patch_118">
    <path d="M 314.366986 448.56 
L 315.992116 448.56 
L 315.992116 422.688 
L 314.366986 422.688 
z
" clip-path="url(#p7ee44f37bf)" style="fill: #7f7f7f; opacity: 0.5"/>
   </g>
   <g id="patch_119">
    <path d="M 316.398398 448.56 
L 318.023528 448.56 
L 318.023528 448.56 
L 316.398398 448.56 
z
" clip-path="url(#p7ee44f37bf)" style="fill: #7f7f7f; opacity: 0.5"/>
   </g>
   <g id="patch_120">
    <path d="M 318.429811 448.56 
L 320.054941 448.56 
L 320.054941 448.56 
L 318.429811 448.56 
z
" clip-path="url(#p7ee44f37bf)" style="fill: #7f7f7f; opacity: 0.5"/>
   </g>
   <g id="patch_121">
    <path d="M 320.461223 448.56 
L 322.086353 448.56 
L 322.086353 448.56 
L 320.461223 448.56 
z
" clip-path="url(#p7ee44f37bf)" style="fill: #7f7f7f; opacity: 0.5"/>
   </g>
   <g id="patch_122">
    <path d="M 322.492636 448.56 
L 324.117766 448.56 
L 324.117766 448.56 
L 322.492636 448.56 
z
" clip-path="url(#p7ee44f37bf)" style="fill: #7f7f7f; opacity: 0.5"/>
   </g>
   <g id="patch_123">
    <path d="M 324.524048 448.56 
L 326.149178 448.56 
L 326.149178 448.56 
L 324.524048 448.56 
z
" clip-path="url(#p7ee44f37bf)" style="fill: #7f7f7f; opacity: 0.5"/>
   </g>
   <g id="patch_124">
    <path d="M 326.555461 448.56 
L 328.180591 448.56 
L 328.180591 448.56 
L 326.555461 448.56 
z
" clip-path="url(#p7ee44f37bf)" style="fill: #7f7f7f; opacity: 0.5"/>
   </g>
   <g id="patch_125">
    <path d="M 328.586873 448.56 
L 330.212003 448.56 
L 330.212003 448.56 
L 328.586873 448.56 
z
" clip-path="url(#p7ee44f37bf)" style="fill: #7f7f7f; opacity: 0.5"/>
   </g>
   <g id="patch_126">
    <path d="M 330.618286 448.56 
L 332.243416 448.56 
L 332.243416 448.56 
L 330.618286 448.56 
z
" clip-path="url(#p7ee44f37bf)" style="fill: #7f7f7f; opacity: 0.5"/>
   </g>
   <g id="patch_127">
    <path d="M 332.649698 448.56 
L 334.274828 448.56 
L 334.274828 448.56 
L 332.649698 448.56 
z
" clip-path="url(#p7ee44f37bf)" style="fill: #7f7f7f; opacity: 0.5"/>
   </g>
   <g id="patch_128">
    <path d="M 334.681111 448.56 
L 336.306241 448.56 
L 336.306241 422.688 
L 334.681111 422.688 
z
" clip-path="url(#p7ee44f37bf)" style="fill: #7f7f7f; opacity: 0.5"/>
   </g>
   <g id="patch_129">
    <path d="M 336.712523 448.56 
L 338.337653 448.56 
L 338.337653 448.56 
L 336.712523 448.56 
z
" clip-path="url(#p7ee44f37bf)" style="fill: #7f7f7f; opacity: 0.5"/>
   </g>
   <g id="patch_130">
    <path d="M 338.743936 448.56 
L 340.369066 448.56 
L 340.369066 448.56 
L 338.743936 448.56 
z
" clip-path="url(#p7ee44f37bf)" style="fill: #7f7f7f; opacity: 0.5"/>
   </g>
   <g id="patch_131">
    <path d="M 340.775348 448.56 
L 342.400478 448.56 
L 342.400478 448.56 
L 340.775348 448.56 
z
" clip-path="url(#p7ee44f37bf)" style="fill: #7f7f7f; opacity: 0.5"/>
   </g>
   <g id="patch_132">
    <path d="M 342.806761 448.56 
L 344.431891 448.56 
L 344.431891 448.56 
L 342.806761 448.56 
z
" clip-path="url(#p7ee44f37bf)" style="fill: #7f7f7f; opacity: 0.5"/>
   </g>
   <g id="patch_133">
    <path d="M 344.838173 448.56 
L 346.463304 448.56 
L 346.463304 448.56 
L 344.838173 448.56 
z
" clip-path="url(#p7ee44f37bf)" style="fill: #7f7f7f; opacity: 0.5"/>
   </g>
   <g id="patch_134">
    <path d="M 346.869586 448.56 
L 348.494716 448.56 
L 348.494716 448.56 
L 346.869586 448.56 
z
" clip-path="url(#p7ee44f37bf)" style="fill: #7f7f7f; opacity: 0.5"/>
   </g>
   <g id="patch_135">
    <path d="M 348.900999 448.56 
L 350.526129 448.56 
L 350.526129 422.688 
L 348.900999 422.688 
z
" clip-path="url(#p7ee44f37bf)" style="fill: #7f7f7f; opacity: 0.5"/>
   </g>
   <g id="patch_136">
    <path d="M 350.932411 448.56 
L 352.557541 448.56 
L 352.557541 448.56 
L 350.932411 448.56 
z
" clip-path="url(#p7ee44f37bf)" style="fill: #7f7f7f; opacity: 0.5"/>
   </g>
   <g id="patch_137">
    <path d="M 352.963824 448.56 
L 354.588954 448.56 
L 354.588954 448.56 
L 352.963824 448.56 
z
" clip-path="url(#p7ee44f37bf)" style="fill: #7f7f7f; opacity: 0.5"/>
   </g>
   <g id="patch_138">
    <path d="M 354.995236 448.56 
L 356.620366 448.56 
L 356.620366 448.56 
L 354.995236 448.56 
z
" clip-path="url(#p7ee44f37bf)" style="fill: #7f7f7f; opacity: 0.5"/>
   </g>
   <g id="patch_139">
    <path d="M 357.026649 448.56 
L 358.651779 448.56 
L 358.651779 448.56 
L 357.026649 448.56 
z
" clip-path="url(#p7ee44f37bf)" style="fill: #7f7f7f; opacity: 0.5"/>
   </g>
   <g id="patch_140">
    <path d="M 359.058061 448.56 
L 360.683191 448.56 
L 360.683191 448.56 
L 359.058061 448.56 
z
" clip-path="url(#p7ee44f37bf)" style="fill: #7f7f7f; opacity: 0.5"/>
   </g>
   <g id="patch_141">
    <path d="M 361.089474 448.56 
L 362.714604 448.56 
L 362.714604 448.56 
L 361.089474 448.56 
z
" clip-path="url(#p7ee44f37bf)" style="fill: #7f7f7f; opacity: 0.5"/>
   </g>
   <g id="patch_142">
    <path d="M 363.120886 448.56 
L 364.746016 448.56 
L 364.746016 448.56 
L 363.120886 448.56 
z
" clip-path="url(#p7ee44f37bf)" style="fill: #7f7f7f; opacity: 0.5"/>
   </g>
   <g id="patch_143">
    <path d="M 365.152299 448.56 
L 366.777429 448.56 
L 366.777429 448.56 
L 365.152299 448.56 
z
" clip-path="url(#p7ee44f37bf)" style="fill: #7f7f7f; opacity: 0.5"/>
   </g>
   <g id="patch_144">
    <path d="M 367.183711 448.56 
L 368.808841 448.56 
L 368.808841 448.56 
L 367.183711 448.56 
z
" clip-path="url(#p7ee44f37bf)" style="fill: #7f7f7f; opacity: 0.5"/>
   </g>
   <g id="patch_145">
    <path d="M 369.215124 448.56 
L 370.840254 448.56 
L 370.840254 448.56 
L 369.215124 448.56 
z
" clip-path="url(#p7ee44f37bf)" style="fill: #7f7f7f; opacity: 0.5"/>
   </g>
   <g id="patch_146">
    <path d="M 371.246536 448.56 
L 372.871666 448.56 
L 372.871666 448.56 
L 371.246536 448.56 
z
" clip-path="url(#p7ee44f37bf)" style="fill: #7f7f7f; opacity: 0.5"/>
   </g>
   <g id="patch_147">
    <path d="M 373.277949 448.56 
L 374.903079 448.56 
L 374.903079 448.56 
L 373.277949 448.56 
z
" clip-path="url(#p7ee44f37bf)" style="fill: #7f7f7f; opacity: 0.5"/>
   </g>
   <g id="patch_148">
    <path d="M 375.309361 448.56 
L 376.934491 448.56 
L 376.934491 448.56 
L 375.309361 448.56 
z
" clip-path="url(#p7ee44f37bf)" style="fill: #7f7f7f; opacity: 0.5"/>
   </g>
   <g id="patch_149">
    <path d="M 377.340774 448.56 
L 378.965904 448.56 
L 378.965904 448.56 
L 377.340774 448.56 
z
" clip-path="url(#p7ee44f37bf)" style="fill: #7f7f7f; opacity: 0.5"/>
   </g>
   <g id="patch_150">
    <path d="M 379.372186 448.56 
L 380.997316 448.56 
L 380.997316 448.56 
L 379.372186 448.56 
z
" clip-path="url(#p7ee44f37bf)" style="fill: #7f7f7f; opacity: 0.5"/>
   </g>
   <g id="patch_151">
    <path d="M 381.403599 448.56 
L 383.028729 448.56 
L 383.028729 448.56 
L 381.403599 448.56 
z
" clip-path="url(#p7ee44f37bf)" style="fill: #7f7f7f; opacity: 0.5"/>
   </g>
   <g id="patch_152">
    <path d="M 383.435011 448.56 
L 385.060141 448.56 
L 385.060141 448.56 
L 383.435011 448.56 
z
" clip-path="url(#p7ee44f37bf)" style="fill: #7f7f7f; opacity: 0.5"/>
   </g>
   <g id="patch_153">
    <path d="M 385.466424 448.56 
L 387.091554 448.56 
L 387.091554 448.56 
L 385.466424 448.56 
z
" clip-path="url(#p7ee44f37bf)" style="fill: #7f7f7f; opacity: 0.5"/>
   </g>
   <g id="patch_154">
    <path d="M 387.497836 448.56 
L 389.122967 448.56 
L 389.122967 448.56 
L 387.497836 448.56 
z
" clip-path="url(#p7ee44f37bf)" style="fill: #7f7f7f; opacity: 0.5"/>
   </g>
   <g id="patch_155">
    <path d="M 389.529249 448.56 
L 391.154379 448.56 
L 391.154379 448.56 
L 389.529249 448.56 
z
" clip-path="url(#p7ee44f37bf)" style="fill: #7f7f7f; opacity: 0.5"/>
   </g>
   <g id="patch_156">
    <path d="M 391.560662 448.56 
L 393.185792 448.56 
L 393.185792 448.56 
L 391.560662 448.56 
z
" clip-path="url(#p7ee44f37bf)" style="fill: #7f7f7f; opacity: 0.5"/>
   </g>
   <g id="patch_157">
    <path d="M 393.592074 448.56 
L 395.217204 448.56 
L 395.217204 448.56 
L 393.592074 448.56 
z
" clip-path="url(#p7ee44f37bf)" style="fill: #7f7f7f; opacity: 0.5"/>
   </g>
   <g id="patch_158">
    <path d="M 395.623487 448.56 
L 397.248617 448.56 
L 397.248617 448.56 
L 395.623487 448.56 
z
" clip-path="url(#p7ee44f37bf)" style="fill: #7f7f7f; opacity: 0.5"/>
   </g>
   <g id="patch_159">
    <path d="M 397.654899 448.56 
L 399.280029 448.56 
L 399.280029 448.56 
L 397.654899 448.56 
z
" clip-path="url(#p7ee44f37bf)" style="fill: #7f7f7f; opacity: 0.5"/>
   </g>
   <g id="patch_160">
    <path d="M 399.686312 448.56 
L 401.311442 448.56 
L 401.311442 448.56 
L 399.686312 448.56 
z
" clip-path="url(#p7ee44f37bf)" style="fill: #7f7f7f; opacity: 0.5"/>
   </g>
   <g id="patch_161">
    <path d="M 401.717724 448.56 
L 403.342854 448.56 
L 403.342854 448.56 
L 401.717724 448.56 
z
" clip-path="url(#p7ee44f37bf)" style="fill: #7f7f7f; opacity: 0.5"/>
   </g>
   <g id="patch_162">
    <path d="M 403.749137 448.56 
L 405.374267 448.56 
L 405.374267 448.56 
L 403.749137 448.56 
z
" clip-path="url(#p7ee44f37bf)" style="fill: #7f7f7f; opacity: 0.5"/>
   </g>
   <g id="patch_163">
    <path d="M 405.780549 448.56 
L 407.405679 448.56 
L 407.405679 448.56 
L 405.780549 448.56 
z
" clip-path="url(#p7ee44f37bf)" style="fill: #7f7f7f; opacity: 0.5"/>
   </g>
   <g id="patch_164">
    <path d="M 407.811962 448.56 
L 409.437092 448.56 
L 409.437092 448.56 
L 407.811962 448.56 
z
" clip-path="url(#p7ee44f37bf)" style="fill: #7f7f7f; opacity: 0.5"/>
   </g>
   <g id="patch_165">
    <path d="M 409.843374 448.56 
L 411.468504 448.56 
L 411.468504 448.56 
L 409.843374 448.56 
z
" clip-path="url(#p7ee44f37bf)" style="fill: #7f7f7f; opacity: 0.5"/>
   </g>
   <g id="patch_166">
    <path d="M 411.874787 448.56 
L 413.499917 448.56 
L 413.499917 448.56 
L 411.874787 448.56 
z
" clip-path="url(#p7ee44f37bf)" style="fill: #7f7f7f; opacity: 0.5"/>
   </g>
   <g id="patch_167">
    <path d="M 413.906199 448.56 
L 415.531329 448.56 
L 415.531329 448.56 
L 413.906199 448.56 
z
" clip-path="url(#p7ee44f37bf)" style="fill: #7f7f7f; opacity: 0.5"/>
   </g>
   <g id="patch_168">
    <path d="M 415.937612 448.56 
L 417.562742 448.56 
L 417.562742 448.56 
L 415.937612 448.56 
z
" clip-path="url(#p7ee44f37bf)" style="fill: #7f7f7f; opacity: 0.5"/>
   </g>
   <g id="patch_169">
    <path d="M 417.969024 448.56 
L 419.594154 448.56 
L 419.594154 448.56 
L 417.969024 448.56 
z
" clip-path="url(#p7ee44f37bf)" style="fill: #7f7f7f; opacity: 0.5"/>
   </g>
   <g id="patch_170">
    <path d="M 420.000437 448.56 
L 421.625567 448.56 
L 421.625567 448.56 
L 420.000437 448.56 
z
" clip-path="url(#p7ee44f37bf)" style="fill: #7f7f7f; opacity: 0.5"/>
   </g>
   <g id="patch_171">
    <path d="M 422.031849 448.56 
L 423.656979 448.56 
L 423.656979 448.56 
L 422.031849 448.56 
z
" clip-path="url(#p7ee44f37bf)" style="fill: #7f7f7f; opacity: 0.5"/>
   </g>
   <g id="patch_172">
    <path d="M 424.063262 448.56 
L 425.688392 448.56 
L 425.688392 448.56 
L 424.063262 448.56 
z
" clip-path="url(#p7ee44f37bf)" style="fill: #7f7f7f; opacity: 0.5"/>
   </g>
   <g id="patch_173">
    <path d="M 426.094674 448.56 
L 427.719804 448.56 
L 427.719804 448.56 
L 426.094674 448.56 
z
" clip-path="url(#p7ee44f37bf)" style="fill: #7f7f7f; opacity: 0.5"/>
   </g>
   <g id="patch_174">
    <path d="M 428.126087 448.56 
L 429.751217 448.56 
L 429.751217 448.56 
L 428.126087 448.56 
z
" clip-path="url(#p7ee44f37bf)" style="fill: #7f7f7f; opacity: 0.5"/>
   </g>
   <g id="patch_175">
    <path d="M 430.157499 448.56 
L 431.782629 448.56 
L 431.782629 448.56 
L 430.157499 448.56 
z
" clip-path="url(#p7ee44f37bf)" style="fill: #7f7f7f; opacity: 0.5"/>
   </g>
   <g id="patch_176">
    <path d="M 432.188912 448.56 
L 433.814042 448.56 
L 433.814042 448.56 
L 432.188912 448.56 
z
" clip-path="url(#p7ee44f37bf)" style="fill: #7f7f7f; opacity: 0.5"/>
   </g>
   <g id="patch_177">
    <path d="M 434.220325 448.56 
L 435.845455 448.56 
L 435.845455 448.56 
L 434.220325 448.56 
z
" clip-path="url(#p7ee44f37bf)" style="fill: #7f7f7f; opacity: 0.5"/>
   </g>
   <g id="patch_178">
    <path d="M 453.6 448.56 
L 453.6 60.48 
" style="fill: none; stroke: #7f7f7f; stroke-width: 0.8; stroke-linejoin: miter; stroke-linecap: square"/>
   </g>
  </g>
  <g id="axes_2">
   <g id="FillBetweenPolyCollection_1">
    <defs>
     <path id="ma8dff966df" d="M 81.56711 -338.663557 
L 81.56711 -84.900152 
L 83.598523 -86.233548 
L 85.629936 -87.831046 
L 87.661348 -86.411273 
L 89.692761 -84.367621 
L 91.724173 -83.314641 
L 93.755586 -81.853212 
L 95.786998 -81.527667 
L 97.818411 -80.499974 
L 99.849823 -80.130319 
L 101.881236 -78.979949 
L 103.912648 -78.308696 
L 105.944061 -78.087636 
L 107.975473 -77.890849 
L 110.006886 -78.609036 
L 112.038298 -78.882849 
L 114.069711 -79.913666 
L 116.101123 -81.545488 
L 118.132536 -82.832853 
L 120.163948 -84.447618 
L 122.195361 -86.945181 
L 124.226773 -88.370167 
L 126.258186 -90.988879 
L 128.289599 -92.927897 
L 130.321011 -95.366809 
L 132.352424 -96.061749 
L 134.383836 -97.59558 
L 136.415249 -99.622448 
L 138.446661 -102.279489 
L 140.478074 -102.960323 
L 142.509486 -103.912027 
L 144.540899 -105.673577 
L 146.572311 -105.77617 
L 148.603724 -105.408251 
L 150.635136 -106.581378 
L 152.666549 -107.400066 
L 154.697961 -109.410836 
L 156.729374 -114.397276 
L 158.760786 -115.670224 
L 160.792199 -113.985313 
L 162.823611 -113.961761 
L 164.855024 -114.276942 
L 166.886436 -114.806818 
L 168.917849 -118.176488 
L 170.949261 -116.993124 
L 172.980674 -119.035463 
L 175.012087 -123.476601 
L 177.043499 -131.865201 
L 179.074912 -135.990742 
L 181.106324 -138.226446 
L 183.137737 -143.345 
L 185.169149 -152.121452 
L 187.200562 -159.827082 
L 189.231974 -167.981356 
L 191.263387 -163.239617 
L 193.294799 -159.17674 
L 195.326212 -145.322615 
L 197.357624 -134.905935 
L 199.389037 -124.541629 
L 201.420449 -115.567646 
L 203.451862 -104.06165 
L 205.483274 -97.916434 
L 207.514687 -97.739736 
L 209.546099 -94.312713 
L 211.577512 -94.092238 
L 213.608924 -95.456891 
L 215.640337 -103.142638 
L 217.67175 -107.842761 
L 219.703162 -111.083315 
L 221.734575 -114.493149 
L 223.765987 -120.363111 
L 225.7974 -126.904435 
L 227.828812 -124.847285 
L 229.860225 -119.248777 
L 231.891637 -116.972555 
L 233.92305 -108.146115 
L 235.954462 -109.316228 
L 237.985875 -102.522712 
L 240.017287 -90.964141 
L 242.0487 -84.465735 
L 244.080112 -80.924485 
L 246.111525 -80.691512 
L 248.142937 -83.083523 
L 250.17435 -84.916614 
L 252.205762 -81.485425 
L 254.237175 -78.880349 
L 256.268587 -74.553356 
L 258.3 -71.769662 
L 260.331413 -69.122104 
L 262.362825 -67.285841 
L 264.394238 -65.576003 
L 266.42565 -64.686947 
L 268.457063 -64.191314 
L 270.488475 -64.109645 
L 272.519888 -64.052757 
L 274.5513 -63.689095 
L 276.582713 -63.505978 
L 278.614125 -62.896557 
L 280.645538 -62.320608 
L 282.67695 -61.834062 
L 284.708363 -61.744186 
L 286.739775 -61.573293 
L 288.771188 -61.07265 
L 290.8026 -60.554916 
L 292.834013 -60.268259 
L 294.865425 -59.922698 
L 296.896838 -59.67524 
L 298.92825 -59.250795 
L 300.959663 -58.956232 
L 302.991076 -58.787073 
L 305.022488 -58.663275 
L 307.053901 -58.328609 
L 309.085313 -58.041268 
L 311.116726 -57.79908 
L 313.148138 -57.65857 
L 315.179551 -57.490973 
L 317.210963 -57.254252 
L 319.242376 -56.806087 
L 321.273788 -56.661511 
L 323.305201 -56.603301 
L 325.336613 -56.498789 
L 327.368026 -56.509543 
L 329.399438 -56.476348 
L 331.430851 -56.693132 
L 333.462263 -56.735289 
L 335.493676 -56.865875 
L 337.525088 -56.859724 
L 339.556501 -56.688875 
L 341.587913 -56.677334 
L 343.619326 -56.570336 
L 345.650739 -56.463274 
L 347.682151 -56.582129 
L 349.713564 -56.576966 
L 351.744976 -56.275285 
L 353.776389 -55.970476 
L 355.807801 -55.615949 
L 357.839214 -55.448791 
L 359.870626 -55.440175 
L 361.902039 -55.440007 
L 363.933451 -55.440002 
L 365.964864 -55.440002 
L 367.996276 -55.440001 
L 370.027689 -55.440001 
L 372.059101 -55.440001 
L 374.090514 -55.440001 
L 376.121926 -55.440001 
L 378.153339 -55.440001 
L 380.184751 -55.440001 
L 382.216164 -55.440001 
L 384.247576 -55.440001 
L 386.278989 -55.44 
L 388.310401 -55.44 
L 390.341814 -55.44 
L 392.373227 -55.44 
L 394.404639 -55.44 
L 396.436052 -55.44 
L 398.467464 -55.44 
L 400.498877 -55.44 
L 402.530289 -55.44 
L 404.561702 -55.44 
L 406.593114 -55.44 
L 408.624527 -55.44 
L 410.655939 -55.44 
L 412.687352 -55.44 
L 414.718764 -55.44 
L 416.750177 -55.44 
L 418.781589 -55.44 
L 420.813002 -55.44 
L 422.844414 -55.44 
L 424.875827 -55.44 
L 426.907239 -55.44 
L 428.938652 -55.44 
L 430.970064 -55.44 
L 433.001477 -55.44 
L 435.03289 -55.44 
L 435.03289 -70.215398 
L 435.03289 -70.215398 
L 433.001477 -70.315605 
L 430.970064 -70.525542 
L 428.938652 -71.100688 
L 426.907239 -71.029308 
L 424.875827 -71.181863 
L 422.844414 -71.697214 
L 420.813002 -72.578947 
L 418.781589 -72.971715 
L 416.750177 -73.676398 
L 414.718764 -72.909219 
L 412.687352 -72.951828 
L 410.655939 -74.322272 
L 408.624527 -73.846975 
L 406.593114 -73.927883 
L 404.561702 -73.610794 
L 402.530289 -74.373401 
L 400.498877 -73.787936 
L 398.467464 -74.352394 
L 396.436052 -74.292051 
L 394.404639 -74.423626 
L 392.373227 -74.962492 
L 390.341814 -75.513522 
L 388.310401 -74.830623 
L 386.278989 -74.887448 
L 384.247576 -75.1767 
L 382.216164 -74.556139 
L 380.184751 -75.184235 
L 378.153339 -75.193222 
L 376.121926 -75.356697 
L 374.090514 -75.820932 
L 372.059101 -75.944069 
L 370.027689 -77.147642 
L 367.996276 -77.363685 
L 365.964864 -78.20638 
L 363.933451 -78.007109 
L 361.902039 -79.384111 
L 359.870626 -79.615753 
L 357.839214 -80.884083 
L 355.807801 -82.151116 
L 353.776389 -83.344828 
L 351.744976 -84.514378 
L 349.713564 -83.768309 
L 347.682151 -83.304067 
L 345.650739 -81.873389 
L 343.619326 -82.699288 
L 341.587913 -82.364361 
L 339.556501 -82.133248 
L 337.525088 -79.902668 
L 335.493676 -80.516477 
L 333.462263 -78.583487 
L 331.430851 -77.317645 
L 329.399438 -77.221652 
L 327.368026 -76.375628 
L 325.336613 -75.533175 
L 323.305201 -75.279111 
L 321.273788 -75.273258 
L 319.242376 -74.196613 
L 317.210963 -74.478844 
L 315.179551 -75.059722 
L 313.148138 -74.601347 
L 311.116726 -74.269823 
L 309.085313 -73.890788 
L 307.053901 -74.69206 
L 305.022488 -74.434248 
L 302.991076 -74.10679 
L 300.959663 -73.908451 
L 298.92825 -73.71744 
L 296.896838 -73.935023 
L 294.865425 -74.391003 
L 292.834013 -74.796146 
L 290.8026 -75.434108 
L 288.771188 -75.904378 
L 286.739775 -76.383101 
L 284.708363 -75.659009 
L 282.67695 -75.752832 
L 280.645538 -76.526795 
L 278.614125 -77.330388 
L 276.582713 -78.281014 
L 274.5513 -77.913024 
L 272.519888 -78.747035 
L 270.488475 -78.805139 
L 268.457063 -78.334159 
L 266.42565 -78.767109 
L 264.394238 -81.349477 
L 262.362825 -84.381271 
L 260.331413 -88.381473 
L 258.3 -93.287562 
L 256.268587 -98.45625 
L 254.237175 -104.966995 
L 252.205762 -109.922786 
L 250.17435 -116.418248 
L 248.142937 -112.84807 
L 246.111525 -109.387392 
L 244.080112 -108.836836 
L 242.0487 -115.728539 
L 240.017287 -128.678896 
L 237.985875 -147.847746 
L 235.954462 -165.570122 
L 233.92305 -158.870624 
L 231.891637 -175.440334 
L 229.860225 -180.473653 
L 227.828812 -193.646806 
L 225.7974 -193.424805 
L 223.765987 -183.782615 
L 221.734575 -172.101412 
L 219.703162 -165.810803 
L 217.67175 -162.382811 
L 215.640337 -156.52629 
L 213.608924 -141.779652 
L 211.577512 -138.057062 
L 209.546099 -142.329463 
L 207.514687 -151.176694 
L 205.483274 -152.194614 
L 203.451862 -163.789681 
L 201.420449 -189.029178 
L 199.389037 -206.846005 
L 197.357624 -225.067545 
L 195.326212 -255.818869 
L 193.294799 -288.768892 
L 191.263387 -298.919426 
L 189.231974 -306.656046 
L 187.200562 -294.556878 
L 185.169149 -277.653757 
L 183.137737 -264.824634 
L 181.106324 -263.230417 
L 179.074912 -257.024711 
L 177.043499 -251.99955 
L 175.012087 -240.484342 
L 172.980674 -230.810377 
L 170.949261 -227.110391 
L 168.917849 -238.939358 
L 166.886436 -239.438875 
L 164.855024 -234.85979 
L 162.823611 -238.235241 
L 160.792199 -241.39226 
L 158.760786 -246.127225 
L 156.729374 -245.539285 
L 154.697961 -240.122424 
L 152.666549 -236.334423 
L 150.635136 -235.208683 
L 148.603724 -236.02276 
L 146.572311 -245.078867 
L 144.540899 -250.725719 
L 142.509486 -250.197976 
L 140.478074 -254.222806 
L 138.446661 -254.32088 
L 136.415249 -256.213888 
L 134.383836 -251.744414 
L 132.352424 -242.456204 
L 130.321011 -234.451699 
L 128.289599 -221.052818 
L 126.258186 -208.656992 
L 124.226773 -197.537002 
L 122.195361 -187.072341 
L 120.163948 -177.810451 
L 118.132536 -167.802541 
L 116.101123 -161.63958 
L 114.069711 -158.456676 
L 112.038298 -154.093797 
L 110.006886 -151.340495 
L 107.975473 -152.754538 
L 105.944061 -154.020417 
L 103.912648 -159.494127 
L 101.881236 -169.32424 
L 99.849823 -178.029182 
L 97.818411 -192.197719 
L 95.786998 -208.316014 
L 93.755586 -229.419266 
L 91.724173 -252.103792 
L 89.692761 -271.363501 
L 87.661348 -298.56883 
L 85.629936 -327.306535 
L 83.598523 -345.172414 
L 81.56711 -338.663557 
z
" style="stroke: #0173b2; stroke-opacity: 0.3"/>
    </defs>
    <g clip-path="url(#p7ee44f37bf)">
     <use xlink:href="#ma8dff966df" x="0" y="504" style="fill: #0173b2; fill-opacity: 0.3; stroke: #0173b2; stroke-opacity: 0.3"/>
    </g>
   </g>
   <g id="FillBetweenPolyCollection_2">
    <defs>
     <path id="mfa4844cd92" d="M 81.56711 -412.888886 
L 81.56711 -95.724212 
L 83.598523 -98.13679 
L 85.629936 -97.667686 
L 87.661348 -93.677398 
L 89.692761 -91.040711 
L 91.724173 -87.870734 
L 93.755586 -85.744216 
L 95.786998 -83.802664 
L 97.818411 -81.901366 
L 99.849823 -81.395796 
L 101.881236 -79.980562 
L 103.912648 -78.452563 
L 105.944061 -77.549367 
L 107.975473 -76.895269 
L 110.006886 -77.189302 
L 112.038298 -77.729175 
L 114.069711 -78.798153 
L 116.101123 -79.16485 
L 118.132536 -80.875023 
L 120.163948 -82.97973 
L 122.195361 -84.122972 
L 124.226773 -86.895985 
L 126.258186 -88.553877 
L 128.289599 -91.703259 
L 130.321011 -94.675444 
L 132.352424 -96.381143 
L 134.383836 -97.586433 
L 136.415249 -99.490329 
L 138.446661 -100.278809 
L 140.478074 -102.735905 
L 142.509486 -102.421129 
L 144.540899 -104.37852 
L 146.572311 -105.902665 
L 148.603724 -105.875657 
L 150.635136 -108.047693 
L 152.666549 -109.511504 
L 154.697961 -111.144567 
L 156.729374 -116.281472 
L 158.760786 -117.008165 
L 160.792199 -115.187723 
L 162.823611 -115.275048 
L 164.855024 -115.760293 
L 166.886436 -116.004236 
L 168.917849 -117.806141 
L 170.949261 -116.851577 
L 172.980674 -118.804323 
L 175.012087 -123.952307 
L 177.043499 -132.629624 
L 179.074912 -135.214374 
L 181.106324 -138.992155 
L 183.137737 -144.384247 
L 185.169149 -152.175274 
L 187.200562 -158.843973 
L 189.231974 -167.844327 
L 191.263387 -165.132462 
L 193.294799 -158.629757 
L 195.326212 -143.788795 
L 197.357624 -132.847288 
L 199.389037 -124.25958 
L 201.420449 -115.674163 
L 203.451862 -104.545476 
L 205.483274 -98.884957 
L 207.514687 -98.761982 
L 209.546099 -94.25346 
L 211.577512 -94.591986 
L 213.608924 -95.831963 
L 215.640337 -103.080652 
L 217.67175 -107.338891 
L 219.703162 -110.336448 
L 221.734575 -113.49062 
L 223.765987 -120.19102 
L 225.7974 -125.5028 
L 227.828812 -126.004132 
L 229.860225 -119.291735 
L 231.891637 -116.158197 
L 233.92305 -107.043714 
L 235.954462 -109.808359 
L 237.985875 -101.207525 
L 240.017287 -90.979326 
L 242.0487 -83.987183 
L 244.080112 -80.022528 
L 246.111525 -80.21001 
L 248.142937 -82.230712 
L 250.17435 -83.832821 
L 252.205762 -80.796682 
L 254.237175 -78.18259 
L 256.268587 -74.25787 
L 258.3 -71.517277 
L 260.331413 -68.990177 
L 262.362825 -66.982995 
L 264.394238 -65.611808 
L 266.42565 -64.457306 
L 268.457063 -63.928489 
L 270.488475 -63.855933 
L 272.519888 -63.962302 
L 274.5513 -63.589088 
L 276.582713 -63.470777 
L 278.614125 -63.079444 
L 280.645538 -62.520789 
L 282.67695 -62.363565 
L 284.708363 -62.34308 
L 286.739775 -62.426609 
L 288.771188 -62.144073 
L 290.8026 -62.024273 
L 292.834013 -61.962947 
L 294.865425 -61.727366 
L 296.896838 -61.816234 
L 298.92825 -61.558594 
L 300.959663 -61.509552 
L 302.991076 -61.670049 
L 305.022488 -61.751795 
L 307.053901 -61.734431 
L 309.085313 -61.386836 
L 311.116726 -61.473872 
L 313.148138 -61.387072 
L 315.179551 -61.546866 
L 317.210963 -61.388205 
L 319.242376 -61.481849 
L 321.273788 -61.253933 
L 323.305201 -61.513775 
L 325.336613 -61.441749 
L 327.368026 -61.54323 
L 329.399438 -61.470767 
L 331.430851 -61.490113 
L 333.462263 -61.56524 
L 335.493676 -61.61137 
L 337.525088 -61.756281 
L 339.556501 -61.791385 
L 341.587913 -61.70736 
L 343.619326 -61.771924 
L 345.650739 -61.672976 
L 347.682151 -62.076486 
L 349.713564 -62.076546 
L 351.744976 -61.900245 
L 353.776389 -61.735238 
L 355.807801 -61.504232 
L 357.839214 -61.298114 
L 359.870626 -61.358955 
L 361.902039 -61.353043 
L 363.933451 -61.306403 
L 365.964864 -61.459448 
L 367.996276 -61.490814 
L 370.027689 -61.320715 
L 372.059101 -61.179707 
L 374.090514 -61.314841 
L 376.121926 -61.25633 
L 378.153339 -61.161129 
L 380.184751 -61.159552 
L 382.216164 -61.246472 
L 384.247576 -61.507502 
L 386.278989 -61.517086 
L 388.310401 -61.489231 
L 390.341814 -61.353588 
L 392.373227 -61.342627 
L 394.404639 -61.24054 
L 396.436052 -61.291525 
L 398.467464 -61.39629 
L 400.498877 -61.399026 
L 402.530289 -61.239669 
L 404.561702 -61.360012 
L 406.593114 -61.844273 
L 408.624527 -61.966397 
L 410.655939 -62.026031 
L 412.687352 -62.118206 
L 414.718764 -62.117063 
L 416.750177 -62.041687 
L 418.781589 -62.025801 
L 420.813002 -62.065946 
L 422.844414 -62.2289 
L 424.875827 -62.182408 
L 426.907239 -62.054536 
L 428.938652 -61.912505 
L 430.970064 -62.077649 
L 433.001477 -62.085979 
L 435.03289 -62.421588 
L 435.03289 -201.729173 
L 435.03289 -201.729173 
L 433.001477 -199.6729 
L 430.970064 -193.548685 
L 428.938652 -193.48535 
L 426.907239 -188.476404 
L 424.875827 -190.978363 
L 422.844414 -183.814901 
L 420.813002 -184.571232 
L 418.781589 -182.753473 
L 416.750177 -182.104341 
L 414.718764 -178.074878 
L 412.687352 -176.193601 
L 410.655939 -170.753406 
L 408.624527 -166.43027 
L 406.593114 -164.46567 
L 404.561702 -165.484781 
L 402.530289 -160.419979 
L 400.498877 -156.582182 
L 398.467464 -151.74811 
L 396.436052 -149.716053 
L 394.404639 -148.117853 
L 392.373227 -146.755678 
L 390.341814 -141.58482 
L 388.310401 -137.595945 
L 386.278989 -135.599997 
L 384.247576 -132.674263 
L 382.216164 -133.137225 
L 380.184751 -130.280525 
L 378.153339 -127.828781 
L 376.121926 -125.046316 
L 374.090514 -123.517262 
L 372.059101 -123.826111 
L 370.027689 -121.384559 
L 367.996276 -120.743136 
L 365.964864 -119.128659 
L 363.933451 -120.104129 
L 361.902039 -118.439582 
L 359.870626 -116.825103 
L 357.839214 -115.483504 
L 355.807801 -116.769464 
L 353.776389 -114.192872 
L 351.744976 -111.841737 
L 349.713564 -115.67091 
L 347.682151 -113.009679 
L 345.650739 -110.01734 
L 343.619326 -108.230032 
L 341.587913 -105.592468 
L 339.556501 -103.708868 
L 337.525088 -103.26853 
L 335.493676 -101.863244 
L 333.462263 -99.092127 
L 331.430851 -96.282131 
L 329.399438 -95.337416 
L 327.368026 -92.723152 
L 325.336613 -90.915057 
L 323.305201 -90.334289 
L 321.273788 -89.867517 
L 319.242376 -88.264404 
L 317.210963 -87.15882 
L 315.179551 -86.82898 
L 313.148138 -86.021799 
L 311.116726 -85.365293 
L 309.085313 -84.720302 
L 307.053901 -84.424233 
L 305.022488 -83.34068 
L 302.991076 -81.480702 
L 300.959663 -80.186997 
L 298.92825 -79.79424 
L 296.896838 -79.125693 
L 294.865425 -79.046823 
L 292.834013 -78.927905 
L 290.8026 -78.521439 
L 288.771188 -78.708209 
L 286.739775 -78.64273 
L 284.708363 -77.875785 
L 282.67695 -77.261536 
L 280.645538 -77.413928 
L 278.614125 -78.185503 
L 276.582713 -79.148284 
L 274.5513 -78.52236 
L 272.519888 -78.537698 
L 270.488475 -78.845955 
L 268.457063 -78.281648 
L 266.42565 -78.607182 
L 264.394238 -80.891335 
L 262.362825 -83.451686 
L 260.331413 -87.491233 
L 258.3 -92.626423 
L 256.268587 -97.682679 
L 254.237175 -104.538828 
L 252.205762 -109.65848 
L 250.17435 -116.710776 
L 248.142937 -111.717192 
L 246.111525 -107.68865 
L 244.080112 -108.077719 
L 242.0487 -115.783065 
L 240.017287 -127.394798 
L 237.985875 -147.466301 
L 235.954462 -164.676811 
L 233.92305 -160.295086 
L 231.891637 -175.751473 
L 229.860225 -181.22863 
L 227.828812 -193.137777 
L 225.7974 -192.558969 
L 223.765987 -181.149702 
L 221.734575 -173.283855 
L 219.703162 -166.743928 
L 217.67175 -161.304379 
L 215.640337 -154.647493 
L 213.608924 -140.037409 
L 211.577512 -139.199594 
L 209.546099 -140.422871 
L 207.514687 -149.268377 
L 205.483274 -151.116031 
L 203.451862 -162.242696 
L 201.420449 -188.688754 
L 199.389037 -207.805143 
L 197.357624 -228.119057 
L 195.326212 -256.294067 
L 193.294799 -289.654747 
L 191.263387 -298.660189 
L 189.231974 -310.283123 
L 187.200562 -296.338319 
L 185.169149 -280.069825 
L 183.137737 -265.190835 
L 181.106324 -261.749742 
L 179.074912 -257.297385 
L 177.043499 -250.317476 
L 175.012087 -241.112042 
L 172.980674 -231.083227 
L 170.949261 -229.395266 
L 168.917849 -235.890759 
L 166.886436 -236.573149 
L 164.855024 -231.439292 
L 162.823611 -240.255644 
L 160.792199 -239.016989 
L 158.760786 -243.335629 
L 156.729374 -247.848189 
L 154.697961 -236.866158 
L 152.666549 -233.66907 
L 150.635136 -241.281358 
L 148.603724 -244.878917 
L 146.572311 -244.70176 
L 144.540899 -250.821604 
L 142.509486 -253.201289 
L 140.478074 -262.456444 
L 138.446661 -261.325073 
L 136.415249 -252.350427 
L 134.383836 -251.317327 
L 132.352424 -241.174495 
L 130.321011 -231.077742 
L 128.289599 -222.701954 
L 126.258186 -213.115453 
L 124.226773 -200.347388 
L 122.195361 -189.019593 
L 120.163948 -180.153798 
L 118.132536 -168.262561 
L 116.101123 -162.141194 
L 114.069711 -157.099979 
L 112.038298 -152.891443 
L 110.006886 -153.625879 
L 107.975473 -156.199201 
L 105.944061 -156.854336 
L 103.912648 -162.877791 
L 101.881236 -170.299498 
L 99.849823 -186.547692 
L 97.818411 -202.247263 
L 95.786998 -216.30977 
L 93.755586 -240.248386 
L 91.724173 -275.392044 
L 89.692761 -311.105009 
L 87.661348 -350.382463 
L 85.629936 -405.484796 
L 83.598523 -425.04 
L 81.56711 -412.888886 
z
" style="stroke: #de8f05; stroke-opacity: 0.3"/>
    </defs>
    <g clip-path="url(#p7ee44f37bf)">
     <use xlink:href="#mfa4844cd92" x="0" y="504" style="fill: #de8f05; fill-opacity: 0.3; stroke: #de8f05; stroke-opacity: 0.3"/>
    </g>
   </g>
   <g id="matplotlib.axis_2">
    <g id="xtick_1">
     <g id="line2d_9">
      <defs>
       <path id="mc44b89a758" d="M 0 0 
L 0 3.5 
" style="stroke: #000000; stroke-width: 0.8"/>
      </defs>
      <g>
       <use xlink:href="#mc44b89a758" x="91.724173" y="448.56" style="stroke: #000000; stroke-width: 0.8"/>
      </g>
     </g>
     <g id="text_10">
      <text style="font-size: 16px; font-family: 'Arial', sans-serif; text-anchor: middle" x="91.724173" y="467.208438" transform="rotate(-0 91.724173 467.208438)">1 Jul</text>
     </g>
    </g>
    <g id="xtick_2">
     <g id="line2d_10">
      <g>
       <use xlink:href="#mc44b89a758" x="154.697961" y="448.56" style="stroke: #000000; stroke-width: 0.8"/>
      </g>
     </g>
     <g id="text_11">
      <text style="font-size: 16px; font-family: 'Arial', sans-serif; text-anchor: middle" x="154.697961" y="467.208438" transform="rotate(-0 154.697961 467.208438)">1 Aug</text>
     </g>
    </g>
    <g id="xtick_3">
     <g id="line2d_11">
      <g>
       <use xlink:href="#mc44b89a758" x="217.67175" y="448.56" style="stroke: #000000; stroke-width: 0.8"/>
      </g>
     </g>
     <g id="text_12">
      <text style="font-size: 16px; font-family: 'Arial', sans-serif; text-anchor: middle" x="217.67175" y="467.208438" transform="rotate(-0 217.67175 467.208438)">1 Sep</text>
     </g>
    </g>
    <g id="xtick_4">
     <g id="line2d_12">
      <g>
       <use xlink:href="#mc44b89a758" x="278.614125" y="448.56" style="stroke: #000000; stroke-width: 0.8"/>
      </g>
     </g>
     <g id="text_13">
      <text style="font-size: 16px; font-family: 'Arial', sans-serif; text-anchor: middle" x="278.614125" y="467.2175" transform="rotate(-0 278.614125 467.2175)">1 Oct</text>
     </g>
    </g>
    <g id="xtick_5">
     <g id="line2d_13">
      <g>
       <use xlink:href="#mc44b89a758" x="341.587913" y="448.56" style="stroke: #000000; stroke-width: 0.8"/>
      </g>
     </g>
     <g id="text_14">
      <text style="font-size: 16px; font-family: 'Arial', sans-serif; text-anchor: middle" x="341.587913" y="467.208438" transform="rotate(-0 341.587913 467.208438)">1 Nov</text>
     </g>
    </g>
    <g id="xtick_6">
     <g id="line2d_14">
      <g>
       <use xlink:href="#mc44b89a758" x="402.530289" y="448.56" style="stroke: #000000; stroke-width: 0.8"/>
      </g>
     </g>
     <g id="text_15">
      <text style="font-size: 16px; font-family: 'Arial', sans-serif; text-anchor: middle" x="402.530289" y="467.208438" transform="rotate(-0 402.530289 467.208438)">1 Dec</text>
     </g>
    </g>
    <g id="text_16">
     <text style="font-size: 16px; font-family: 'Arial', sans-serif; text-anchor: middle" x="258.3" y="486.233125" transform="rotate(-0 258.3 486.233125)">Date (2017)</text>
    </g>
   </g>
   <g id="matplotlib.axis_3">
    <g id="ytick_9">
     <g id="line2d_15">
      <defs>
       <path id="m7f0833f35d" d="M 0 0 
L -3.5 0 
" style="stroke: #000000; stroke-width: 0.8"/>
      </defs>
      <g>
       <use xlink:href="#m7f0833f35d" x="63" y="448.56" style="stroke: #000000; stroke-width: 0.8"/>
      </g>
     </g>
     <g id="text_17">
      <text style="font-size: 16px; font-family: 'Arial', sans-serif; text-anchor: end" x="56" y="454.384219" transform="rotate(-0 56 454.384219)">0</text>
     </g>
    </g>
    <g id="ytick_10">
     <g id="line2d_16">
      <g>
       <use xlink:href="#m7f0833f35d" x="63" y="400.03028" style="stroke: #000000; stroke-width: 0.8"/>
      </g>
     </g>
     <g id="text_18">
      <text style="font-size: 16px; font-family: 'Arial', sans-serif; text-anchor: end" x="56" y="405.854499" transform="rotate(-0 56 405.854499)">1</text>
     </g>
    </g>
    <g id="ytick_11">
     <g id="line2d_17">
      <g>
       <use xlink:href="#m7f0833f35d" x="63" y="351.50056" style="stroke: #000000; stroke-width: 0.8"/>
      </g>
     </g>
     <g id="text_19">
      <text style="font-size: 16px; font-family: 'Arial', sans-serif; text-anchor: end" x="56" y="357.324779" transform="rotate(-0 56 357.324779)">2</text>
     </g>
    </g>
    <g id="ytick_12">
     <g id="line2d_18">
      <g>
       <use xlink:href="#m7f0833f35d" x="63" y="302.97084" style="stroke: #000000; stroke-width: 0.8"/>
      </g>
     </g>
     <g id="text_20">
      <text style="font-size: 16px; font-family: 'Arial', sans-serif; text-anchor: end" x="56" y="308.795059" transform="rotate(-0 56 308.795059)">3</text>
     </g>
    </g>
    <g id="ytick_13">
     <g id="line2d_19">
      <g>
       <use xlink:href="#m7f0833f35d" x="63" y="254.44112" style="stroke: #000000; stroke-width: 0.8"/>
      </g>
     </g>
     <g id="text_21">
      <text style="font-size: 16px; font-family: 'Arial', sans-serif; text-anchor: end" x="56" y="260.265339" transform="rotate(-0 56 260.265339)">4</text>
     </g>
    </g>
    <g id="ytick_14">
     <g id="line2d_20">
      <g>
       <use xlink:href="#m7f0833f35d" x="63" y="205.9114" style="stroke: #000000; stroke-width: 0.8"/>
      </g>
     </g>
     <g id="text_22">
      <text style="font-size: 16px; font-family: 'Arial', sans-serif; text-anchor: end" x="56" y="211.735619" transform="rotate(-0 56 211.735619)">5</text>
     </g>
    </g>
    <g id="ytick_15">
     <g id="line2d_21">
      <g>
       <use xlink:href="#m7f0833f35d" x="63" y="157.381681" style="stroke: #000000; stroke-width: 0.8"/>
      </g>
     </g>
     <g id="text_23">
      <text style="font-size: 16px; font-family: 'Arial', sans-serif; text-anchor: end" x="56" y="163.205899" transform="rotate(-0 56 163.205899)">6</text>
     </g>
    </g>
    <g id="ytick_16">
     <g id="line2d_22">
      <g>
       <use xlink:href="#m7f0833f35d" x="63" y="108.851961" style="stroke: #000000; stroke-width: 0.8"/>
      </g>
     </g>
     <g id="text_24">
      <text style="font-size: 16px; font-family: 'Arial', sans-serif; text-anchor: end" x="56" y="114.676179" transform="rotate(-0 56 114.676179)">7</text>
     </g>
    </g>
    <g id="text_25">
     <text style="font-size: 16px; font-family: 'Arial', sans-serif; text-anchor: middle" x="39.735312" y="254.52" transform="rotate(-90 39.735312 254.52)">Time-dependent reproduction number</text>
    </g>
   </g>
   <g id="line2d_23">
    <path d="M 81.56711 340.21569 
L 83.598523 334.174389 
L 85.629936 336.976163 
L 87.661348 346.709272 
L 89.692761 355.247566 
L 91.724173 363.179731 
L 93.755586 370.256051 
L 95.786998 376.534856 
L 97.818411 382.03066 
L 101.881236 391.038192 
L 103.912648 394.488184 
L 105.944061 396.440208 
L 107.975473 397.458561 
L 110.006886 397.548189 
L 112.038298 396.496451 
L 114.069711 394.586803 
L 116.101123 392.053519 
L 118.132536 388.216247 
L 120.163948 383.056269 
L 122.195361 379.097725 
L 124.226773 373.886789 
L 126.258186 367.15019 
L 128.289599 361.982356 
L 130.321011 355.895722 
L 132.352424 352.038391 
L 134.383836 347.349999 
L 136.415249 345.024726 
L 138.446661 341.899207 
L 140.478074 341.308639 
L 142.509486 342.363065 
L 144.540899 342.169046 
L 146.572311 342.990079 
L 148.603724 345.319605 
L 150.635136 344.849267 
L 152.666549 345.004149 
L 154.697961 342.036195 
L 156.729374 335.40109 
L 158.760786 335.416268 
L 160.792199 337.887832 
L 162.823611 339.064187 
L 164.855024 339.739241 
L 166.886436 338.690617 
L 168.917849 336.636368 
L 170.949261 340.299332 
L 172.980674 337.763661 
L 175.012087 331.899835 
L 177.043499 320.883203 
L 179.074912 316.102104 
L 183.137737 307.826699 
L 185.169149 297.09455 
L 187.200562 287.264613 
L 189.231974 275.576547 
L 193.294799 289.983133 
L 195.326212 311.252566 
L 197.357624 330.156059 
L 201.420449 356.646415 
L 203.451862 373.977683 
L 205.483274 382.410612 
L 207.514687 382.845179 
L 209.546099 389.540185 
L 211.577512 390.367503 
L 213.608924 388.498384 
L 215.640337 378.170053 
L 217.67175 372.457651 
L 221.734575 363.640767 
L 223.765987 355.369288 
L 225.7974 347.751554 
L 227.828812 348.035902 
L 229.860225 357.238078 
L 231.891637 360.729881 
L 233.92305 373.07415 
L 235.954462 369.326073 
L 237.985875 381.369946 
L 240.017287 396.500963 
L 242.0487 405.746293 
L 244.080112 410.76283 
L 246.111525 410.653901 
L 250.17435 405.004969 
L 252.205762 410.094938 
L 254.237175 413.833776 
L 256.268587 419.091319 
L 260.331413 426.593921 
L 262.362825 429.546628 
L 264.394238 431.667852 
L 266.42565 433.334922 
L 268.457063 433.818438 
L 272.519888 433.735921 
L 274.5513 434.246298 
L 276.582713 434.342508 
L 278.614125 435.108393 
L 280.645538 436.085622 
L 282.67695 436.507047 
L 286.739775 436.500397 
L 294.865425 438.411055 
L 296.896838 438.747828 
L 298.92825 439.225658 
L 300.959663 439.484306 
L 302.991076 439.572478 
L 305.022488 439.547681 
L 307.053901 439.73255 
L 309.085313 440.142779 
L 313.148138 440.566531 
L 315.179551 440.570278 
L 319.242376 441.198966 
L 323.305201 441.319331 
L 327.368026 441.151371 
L 331.430851 440.663363 
L 335.493676 439.90395 
L 339.556501 439.977105 
L 343.619326 439.957311 
L 349.713564 439.726513 
L 359.870626 441.804564 
L 363.933451 442.415341 
L 372.059101 443.344472 
L 376.121926 443.60644 
L 380.184751 443.8772 
L 386.278989 444.192349 
L 394.404639 444.513815 
L 400.498877 444.796522 
L 408.624527 445.04517 
L 412.687352 445.136431 
L 424.875827 445.588692 
L 435.03289 445.901264 
L 435.03289 445.901264 
" clip-path="url(#p7ee44f37bf)" style="fill: none; stroke: #0173b2; stroke-width: 2; stroke-linecap: square"/>
   </g>
   <g id="line2d_24">
    <path d="M 81.56711 306.710603 
L 83.598523 303.647738 
L 85.629936 310.535647 
L 87.661348 326.501498 
L 89.692761 339.974943 
L 91.724173 352.229207 
L 93.755586 362.966764 
L 95.786998 371.587344 
L 97.818411 378.338032 
L 99.849823 383.851538 
L 101.881236 389.709857 
L 103.912648 393.727861 
L 105.944061 396.10112 
L 107.975473 397.389802 
L 110.006886 397.626652 
L 112.038298 397.001922 
L 114.069711 395.283485 
L 116.101123 392.430808 
L 118.132536 388.767997 
L 120.163948 383.629104 
L 122.195361 379.663259 
L 124.226773 374.585706 
L 126.258186 368.147276 
L 128.289599 363.402076 
L 130.321011 357.284394 
L 132.352424 353.264901 
L 134.383836 348.685514 
L 136.415249 346.741044 
L 138.446661 343.241319 
L 140.478074 342.453869 
L 142.509486 344.153663 
L 144.540899 343.340778 
L 146.572311 343.560832 
L 148.603724 345.323298 
L 150.635136 344.638703 
L 152.666549 345.098685 
L 154.697961 341.452348 
L 156.729374 334.568637 
L 158.760786 334.311326 
L 160.792199 337.159061 
L 162.823611 338.857459 
L 164.855024 339.551992 
L 166.886436 338.240427 
L 168.917849 336.429342 
L 170.949261 339.978614 
L 172.980674 337.287333 
L 175.012087 331.420045 
L 177.043499 321.40334 
L 179.074912 315.881633 
L 183.137737 308.281274 
L 185.169149 296.912024 
L 187.200562 286.411091 
L 189.231974 274.448587 
L 191.263387 281.806495 
L 193.294799 289.636923 
L 195.326212 310.847006 
L 197.357624 330.136378 
L 201.420449 356.718812 
L 203.451862 373.836467 
L 205.483274 382.256541 
L 207.514687 382.74582 
L 209.546099 389.517233 
L 211.577512 390.309427 
L 213.608924 388.564119 
L 215.640337 378.596161 
L 217.67175 373.140942 
L 221.734575 364.220932 
L 225.7974 348.010557 
L 227.828812 348.597041 
L 229.860225 357.592184 
L 231.891637 361.179254 
L 233.92305 373.869189 
L 235.954462 370.227665 
L 237.985875 382.034965 
L 240.017287 397.26997 
L 242.0487 406.31172 
L 244.080112 411.313156 
L 246.111525 411.410127 
L 250.17435 405.747984 
L 252.205762 410.773924 
L 254.237175 414.356934 
L 256.268587 419.61847 
L 258.3 423.197362 
L 260.331413 427.018098 
L 262.362825 429.948578 
L 264.394238 431.994058 
L 266.42565 433.658964 
L 268.457063 434.020162 
L 272.519888 433.84592 
L 274.5513 434.215122 
L 276.582713 434.085485 
L 278.614125 434.673666 
L 280.645538 435.388961 
L 282.67695 435.570975 
L 286.739775 434.982253 
L 290.8026 435.388436 
L 296.896838 435.216579 
L 298.92825 435.249288 
L 300.959663 435.067711 
L 302.991076 434.666055 
L 305.022488 434.055656 
L 307.053901 433.71948 
L 309.085313 433.762099 
L 311.116726 433.636396 
L 315.179551 432.895335 
L 317.210963 432.968378 
L 321.273788 432.631085 
L 325.336613 431.967467 
L 329.399438 430.840905 
L 331.430851 430.166502 
L 335.493676 428.496971 
L 337.525088 428.215127 
L 343.619326 426.655084 
L 347.682151 425.490721 
L 349.713564 424.754919 
L 353.776389 424.991257 
L 355.807801 424.869504 
L 361.902039 424.959663 
L 363.933451 424.723842 
L 367.996276 424.571989 
L 370.027689 424.303558 
L 376.121926 423.095892 
L 378.153339 422.727076 
L 384.247576 421.020991 
L 388.310401 419.772248 
L 390.341814 418.866922 
L 392.373227 418.213614 
L 394.404639 417.759225 
L 408.624527 412.968832 
L 410.655939 412.111816 
L 416.750177 410.195919 
L 420.813002 409.265181 
L 422.844414 408.72671 
L 424.875827 408.017441 
L 428.938652 406.986981 
L 433.001477 405.636846 
L 435.03289 405.091091 
L 435.03289 405.091091 
" clip-path="url(#p7ee44f37bf)" style="fill: none; stroke: #de8f05; stroke-width: 2; stroke-linecap: square"/>
   </g>
   <g id="patch_179">
    <path d="M 63 448.56 
L 63 60.48 
" style="fill: none; stroke: #000000; stroke-width: 0.8; stroke-linejoin: miter; stroke-linecap: square"/>
   </g>
   <g id="patch_180">
    <path d="M 63 448.56 
L 453.6 448.56 
" style="fill: none; stroke: #000000; stroke-width: 0.8; stroke-linejoin: miter; stroke-linecap: square"/>
   </g>
   <g id="legend_1">
    <g id="patch_181">
     <path d="M 296.281563 111.957891 
L 443.8 111.957891 
Q 446.6 111.957891 446.6 109.157891 
L 446.6 70.28 
Q 446.6 67.48 443.8 67.48 
L 296.281563 67.48 
Q 293.481562 67.48 293.481562 70.28 
L 293.481562 109.157891 
Q 293.481562 111.957891 296.281563 111.957891 
z
" style="fill: #ffffff; opacity: 0.8; stroke: #cccccc; stroke-linejoin: miter"/>
    </g>
    <g id="line2d_25">
     <path d="M 299.081563 78.372383 
L 313.081563 78.372383 
L 327.081563 78.372383 
" style="fill: none; stroke: #0173b2; stroke-width: 2; stroke-linecap: square"/>
    </g>
    <g id="text_26">
     <text style="font-size: 14px; font-family: 'Arial', sans-serif; text-anchor: start" x="338.281563" y="83.272383" transform="rotate(-0 338.281563 83.272383)">Suitability-based</text>
    </g>
    <g id="line2d_26">
     <path d="M 299.081563 98.511328 
L 313.081563 98.511328 
L 327.081563 98.511328 
" style="fill: none; stroke: #de8f05; stroke-width: 2; stroke-linecap: square"/>
    </g>
    <g id="text_27">
     <text style="font-size: 14px; font-family: 'Arial', sans-serif; text-anchor: start" x="338.281563" y="103.411328" transform="rotate(-0 338.281563 103.411328)">Autoregressive</text>
    </g>
   </g>
  </g>
 </g>
 <defs>
  <clipPath id="p7ee44f37bf">
   <rect x="63" y="60.48" width="390.6" height="388.08"/>
  </clipPath>
 </defs>
</svg>
