<?xml version="1.0" encoding="utf-8" standalone="no"?>
<!DOCTYPE svg PUBLIC "-//W3C//DTD SVG 1.1//EN"
  "http://www.w3.org/Graphics/SVG/1.1/DTD/svg11.dtd">
<svg xmlns:xlink="http://www.w3.org/1999/xlink" width="504pt" height="504pt" viewBox="0 0 504 504" xmlns="http://www.w3.org/2000/svg" version="1.1">
 <metadata>
  <rdf:RDF xmlns:dc="http://purl.org/dc/elements/1.1/" xmlns:cc="http://creativecommons.org/ns#" xmlns:rdf="http://www.w3.org/1999/02/22-rdf-syntax-ns#">
   <cc:Work>
    <dc:type rdf:resource="http://purl.org/dc/dcmitype/StillImage"/>
    <dc:date>2026-07-23T18:07:02.589195</dc:date>
    <dc:format>image/svg+xml</dc:format>
    <dc:creator>
     <cc:Agent>
      <dc:title>Matplotlib v3.11.0, https://matplotlib.org/</dc:title>
     </cc:Agent>
    </dc:creator>
   </cc:Work>
  </rdf:RDF>
 </metadata>
 <defs>
  <style type="text/css">*{stroke-linejoin: round; stroke-linecap: butt}</style>
 </defs>
 <g id="figure_1">
  <g id="patch_1">
   <path d="M 0 504 
L 504 504 
L 504 0 
L 0 0 
L 0 504 
z
" style="fill: none"/>
  </g>
  <g id="axes_1">
   <g id="patch_2">
    <path d="M 63 448.56 
L 453.6 448.56 
L 453.6 60.48 
L 63 60.48 
L 63 448.56 
z
" style="fill: none"/>
   </g>
   <g id="matplotlib.axis_1">
    <g id="ytick_1">
     <g id="line2d_1">
      <defs>
       <path id="m0b02045fd4" d="M 0 0 
L 3.5 0 
" style="stroke: #7f7f7f; stroke-width: 0.8"/>
      </defs>
      <g>
       <use xlink:href="#m0b02045fd4" x="453.6" y="448.56" style="fill: #7f7f7f; stroke: #7f7f7f; stroke-width: 0.8"/>
      </g>
     </g>
     <g id="text_1">
      <text style="font-size: 16px; font-family: 'Arial', sans-serif; text-anchor: start; fill: #7f7f7f" x="460.6" y="454.384219" transform="rotate(-0 460.6 454.384219)">0</text>
     </g>
    </g>
    <g id="ytick_2">
     <g id="line2d_2">
      <g>
       <use xlink:href="#m0b02045fd4" x="453.6" y="396.816" style="fill: #7f7f7f; stroke: #7f7f7f; stroke-width: 0.8"/>
      </g>
     </g>
     <g id="text_2">
      <text style="font-size: 16px; font-family: 'Arial', sans-serif; text-anchor: start; fill: #7f7f7f" x="460.6" y="402.640219" transform="rotate(-0 460.6 402.640219)">2</text>
     </g>
    </g>
    <g id="ytick_3">
     <g id="line2d_3">
      <g>
       <use xlink:href="#m0b02045fd4" x="453.6" y="345.072" style="fill: #7f7f7f; stroke: #7f7f7f; stroke-width: 0.8"/>
      </g>
     </g>
     <g id="text_3">
      <text style="font-size: 16px; font-family: 'Arial', sans-serif; text-anchor: start; fill: #7f7f7f" x="460.6" y="350.896219" transform="rotate(-0 460.6 350.896219)">4</text>
     </g>
    </g>
    <g id="ytick_4">
     <g id="line2d_4">
      <g>
       <use xlink:href="#m0b02045fd4" x="453.6" y="293.328" style="fill: #7f7f7f; stroke: #7f7f7f; stroke-width: 0.8"/>
      </g>
     </g>
     <g id="text_4">
      <text style="font-size: 16px; font-family: 'Arial', sans-serif; text-anchor: start; fill: #7f7f7f" x="460.6" y="299.152219" transform="rotate(-0 460.6 299.152219)">6</text>
     </g>
    </g>
    <g id="ytick_5">
     <g id="line2d_5">
      <g>
       <use xlink:href="#m0b02045fd4" x="453.6" y="241.584" style="fill: #7f7f7f; stroke: #7f7f7f; stroke-width: 0.8"/>
      </g>
     </g>
     <g id="text_5">
      <text style="font-size: 16px; font-family: 'Arial', sans-serif; text-anchor: start; fill: #7f7f7f" x="460.6" y="247.408219" transform="rotate(-0 460.6 247.408219)">8</text>
     </g>
    </g>
    <g id="ytick_6">
     <g id="line2d_6">
      <g>
       <use xlink:href="#m0b02045fd4" x="453.6" y="189.84" style="fill: #7f7f7f; stroke: #7f7f7f; stroke-width: 0.8"/>
      </g>
     </g>
     <g id="text_6">
      <text style="font-size: 16px; font-family: 'Arial', sans-serif; text-anchor: start; fill: #7f7f7f" x="460.6" y="195.664219" transform="rotate(-0 460.6 195.664219)">10</text>
     </g>
    </g>
    <g id="ytick_7">
     <g id="line2d_7">
      <g>
       <use xlink:href="#m0b02045fd4" x="453.6" y="138.096" style="fill: #7f7f7f; stroke: #7f7f7f; stroke-width: 0.8"/>
      </g>
     </g>
     <g id="text_7">
      <text style="font-size: 16px; font-family: 'Arial', sans-serif; text-anchor: start; fill: #7f7f7f" x="460.6" y="143.920219" transform="rotate(-0 460.6 143.920219)">12</text>
     </g>
    </g>
    <g id="ytick_8">
     <g id="line2d_8">
      <g>
       <use xlink:href="#m0b02045fd4" x="453.6" y="86.352" style="fill: #7f7f7f; stroke: #7f7f7f; stroke-width: 0.8"/>
      </g>
     </g>
     <g id="text_8">
      <text style="font-size: 16px; font-family: 'Arial', sans-serif; text-anchor: start; fill: #7f7f7f" x="460.6" y="92.176219" transform="rotate(-0 460.6 92.176219)">14</text>
     </g>
    </g>
    <g id="text_9">
     <text style="font-size: 16px; font-family: 'Arial', sans-serif; text-anchor: middle; fill: #7f7f7f" x="494.043438" y="254.52" transform="rotate(-90 494.043438 254.52)">Number of cases</text>
    </g>
   </g>
   <g id="patch_3">
    <path d="M 82.107042 448.56 
L 83.684507 448.56 
L 83.684507 396.816 
L 82.107042 396.816 
z
" clip-path="url(#p2c425ff713)" style="fill: #7f7f7f; opacity: 0.5"/>
   </g>
   <g id="patch_4">
    <path d="M 84.078873 448.56 
L 85.656338 448.56 
L 85.656338 396.816 
L 84.078873 396.816 
z
" clip-path="url(#p2c425ff713)" style="fill: #7f7f7f; opacity: 0.5"/>
   </g>
   <g id="patch_5">
    <path d="M 86.050704 448.56 
L 87.628169 448.56 
L 87.628169 396.816 
L 86.050704 396.816 
z
" clip-path="url(#p2c425ff713)" style="fill: #7f7f7f; opacity: 0.5"/>
   </g>
   <g id="patch_6">
    <path d="M 88.022535 448.56 
L 89.6 448.56 
L 89.6 448.56 
L 88.022535 448.56 
z
" clip-path="url(#p2c425ff713)" style="fill: #7f7f7f; opacity: 0.5"/>
   </g>
   <g id="patch_7">
    <path d="M 89.994366 448.56 
L 91.571831 448.56 
L 91.571831 448.56 
L 89.994366 448.56 
z
" clip-path="url(#p2c425ff713)" style="fill: #7f7f7f; opacity: 0.5"/>
   </g>
   <g id="patch_8">
    <path d="M 91.966197 448.56 
L 93.543662 448.56 
L 93.543662 448.56 
L 91.966197 448.56 
z
" clip-path="url(#p2c425ff713)" style="fill: #7f7f7f; opacity: 0.5"/>
   </g>
   <g id="patch_9">
    <path d="M 93.938028 448.56 
L 95.515493 448.56 
L 95.515493 448.56 
L 93.938028 448.56 
z
" clip-path="url(#p2c425ff713)" style="fill: #7f7f7f; opacity: 0.5"/>
   </g>
   <g id="patch_10">
    <path d="M 95.909859 448.56 
L 97.487324 448.56 
L 97.487324 448.56 
L 95.909859 448.56 
z
" clip-path="url(#p2c425ff713)" style="fill: #7f7f7f; opacity: 0.5"/>
   </g>
   <g id="patch_11">
    <path d="M 97.88169 448.56 
L 99.459155 448.56 
L 99.459155 448.56 
L 97.88169 448.56 
z
" clip-path="url(#p2c425ff713)" style="fill: #7f7f7f; opacity: 0.5"/>
   </g>
   <g id="patch_12">
    <path d="M 99.853521 448.56 
L 101.430986 448.56 
L 101.430986 422.688 
L 99.853521 422.688 
z
" clip-path="url(#p2c425ff713)" style="fill: #7f7f7f; opacity: 0.5"/>
   </g>
   <g id="patch_13">
    <path d="M 101.825352 448.56 
L 103.402817 448.56 
L 103.402817 448.56 
L 101.825352 448.56 
z
" clip-path="url(#p2c425ff713)" style="fill: #7f7f7f; opacity: 0.5"/>
   </g>
   <g id="patch_14">
    <path d="M 103.797183 448.56 
L 105.374648 448.56 
L 105.374648 448.56 
L 103.797183 448.56 
z
" clip-path="url(#p2c425ff713)" style="fill: #7f7f7f; opacity: 0.5"/>
   </g>
   <g id="patch_15">
    <path d="M 105.769014 448.56 
L 107.346479 448.56 
L 107.346479 448.56 
L 105.769014 448.56 
z
" clip-path="url(#p2c425ff713)" style="fill: #7f7f7f; opacity: 0.5"/>
   </g>
   <g id="patch_16">
    <path d="M 107.740845 448.56 
L 109.31831 448.56 
L 109.31831 448.56 
L 107.740845 448.56 
z
" clip-path="url(#p2c425ff713)" style="fill: #7f7f7f; opacity: 0.5"/>
   </g>
   <g id="patch_17">
    <path d="M 109.712676 448.56 
L 111.290141 448.56 
L 111.290141 448.56 
L 109.712676 448.56 
z
" clip-path="url(#p2c425ff713)" style="fill: #7f7f7f; opacity: 0.5"/>
   </g>
   <g id="patch_18">
    <path d="M 111.684507 448.56 
L 113.261972 448.56 
L 113.261972 448.56 
L 111.684507 448.56 
z
" clip-path="url(#p2c425ff713)" style="fill: #7f7f7f; opacity: 0.5"/>
   </g>
   <g id="patch_19">
    <path d="M 113.656338 448.56 
L 115.233803 448.56 
L 115.233803 448.56 
L 113.656338 448.56 
z
" clip-path="url(#p2c425ff713)" style="fill: #7f7f7f; opacity: 0.5"/>
   </g>
   <g id="patch_20">
    <path d="M 115.628169 448.56 
L 117.205634 448.56 
L 117.205634 448.56 
L 115.628169 448.56 
z
" clip-path="url(#p2c425ff713)" style="fill: #7f7f7f; opacity: 0.5"/>
   </g>
   <g id="patch_21">
    <path d="M 117.6 448.56 
L 119.177465 448.56 
L 119.177465 448.56 
L 117.6 448.56 
z
" clip-path="url(#p2c425ff713)" style="fill: #7f7f7f; opacity: 0.5"/>
   </g>
   <g id="patch_22">
    <path d="M 119.571831 448.56 
L 121.149296 448.56 
L 121.149296 422.688 
L 119.571831 422.688 
z
" clip-path="url(#p2c425ff713)" style="fill: #7f7f7f; opacity: 0.5"/>
   </g>
   <g id="patch_23">
    <path d="M 121.543662 448.56 
L 123.121127 448.56 
L 123.121127 448.56 
L 121.543662 448.56 
z
" clip-path="url(#p2c425ff713)" style="fill: #7f7f7f; opacity: 0.5"/>
   </g>
   <g id="patch_24">
    <path d="M 123.515493 448.56 
L 125.092958 448.56 
L 125.092958 448.56 
L 123.515493 448.56 
z
" clip-path="url(#p2c425ff713)" style="fill: #7f7f7f; opacity: 0.5"/>
   </g>
   <g id="patch_25">
    <path d="M 125.487324 448.56 
L 127.064789 448.56 
L 127.064789 422.688 
L 125.487324 422.688 
z
" clip-path="url(#p2c425ff713)" style="fill: #7f7f7f; opacity: 0.5"/>
   </g>
   <g id="patch_26">
    <path d="M 127.459155 448.56 
L 129.03662 448.56 
L 129.03662 448.56 
L 127.459155 448.56 
z
" clip-path="url(#p2c425ff713)" style="fill: #7f7f7f; opacity: 0.5"/>
   </g>
   <g id="patch_27">
    <path d="M 129.430986 448.56 
L 131.008451 448.56 
L 131.008451 422.688 
L 129.430986 422.688 
z
" clip-path="url(#p2c425ff713)" style="fill: #7f7f7f; opacity: 0.5"/>
   </g>
   <g id="patch_28">
    <path d="M 131.402817 448.56 
L 132.980282 448.56 
L 132.980282 448.56 
L 131.402817 448.56 
z
" clip-path="url(#p2c425ff713)" style="fill: #7f7f7f; opacity: 0.5"/>
   </g>
   <g id="patch_29">
    <path d="M 133.374648 448.56 
L 134.952113 448.56 
L 134.952113 422.688 
L 133.374648 422.688 
z
" clip-path="url(#p2c425ff713)" style="fill: #7f7f7f; opacity: 0.5"/>
   </g>
   <g id="patch_30">
    <path d="M 135.346479 448.56 
L 136.923944 448.56 
L 136.923944 448.56 
L 135.346479 448.56 
z
" clip-path="url(#p2c425ff713)" style="fill: #7f7f7f; opacity: 0.5"/>
   </g>
   <g id="patch_31">
    <path d="M 137.31831 448.56 
L 138.895775 448.56 
L 138.895775 422.688 
L 137.31831 422.688 
z
" clip-path="url(#p2c425ff713)" style="fill: #7f7f7f; opacity: 0.5"/>
   </g>
   <g id="patch_32">
    <path d="M 139.290141 448.56 
L 140.867606 448.56 
L 140.867606 422.688 
L 139.290141 422.688 
z
" clip-path="url(#p2c425ff713)" style="fill: #7f7f7f; opacity: 0.5"/>
   </g>
   <g id="patch_33">
    <path d="M 141.261972 448.56 
L 142.839437 448.56 
L 142.839437 448.56 
L 141.261972 448.56 
z
" clip-path="url(#p2c425ff713)" style="fill: #7f7f7f; opacity: 0.5"/>
   </g>
   <g id="patch_34">
    <path d="M 143.233803 448.56 
L 144.811268 448.56 
L 144.811268 422.688 
L 143.233803 422.688 
z
" clip-path="url(#p2c425ff713)" style="fill: #7f7f7f; opacity: 0.5"/>
   </g>
   <g id="patch_35">
    <path d="M 145.205634 448.56 
L 146.783099 448.56 
L 146.783099 422.688 
L 145.205634 422.688 
z
" clip-path="url(#p2c425ff713)" style="fill: #7f7f7f; opacity: 0.5"/>
   </g>
   <g id="patch_36">
    <path d="M 147.177465 448.56 
L 148.75493 448.56 
L 148.75493 448.56 
L 147.177465 448.56 
z
" clip-path="url(#p2c425ff713)" style="fill: #7f7f7f; opacity: 0.5"/>
   </g>
   <g id="patch_37">
    <path d="M 149.149296 448.56 
L 150.726761 448.56 
L 150.726761 422.688 
L 149.149296 422.688 
z
" clip-path="url(#p2c425ff713)" style="fill: #7f7f7f; opacity: 0.5"/>
   </g>
   <g id="patch_38">
    <path d="M 151.121127 448.56 
L 152.698592 448.56 
L 152.698592 448.56 
L 151.121127 448.56 
z
" clip-path="url(#p2c425ff713)" style="fill: #7f7f7f; opacity: 0.5"/>
   </g>
   <g id="patch_39">
    <path d="M 153.092958 448.56 
L 154.670423 448.56 
L 154.670423 448.56 
L 153.092958 448.56 
z
" clip-path="url(#p2c425ff713)" style="fill: #7f7f7f; opacity: 0.5"/>
   </g>
   <g id="patch_40">
    <path d="M 155.064789 448.56 
L 156.642254 448.56 
L 156.642254 370.944 
L 155.064789 370.944 
z
" clip-path="url(#p2c425ff713)" style="fill: #7f7f7f; opacity: 0.5"/>
   </g>
   <g id="patch_41">
    <path d="M 157.03662 448.56 
L 158.614085 448.56 
L 158.614085 396.816 
L 157.03662 396.816 
z
" clip-path="url(#p2c425ff713)" style="fill: #7f7f7f; opacity: 0.5"/>
   </g>
   <g id="patch_42">
    <path d="M 159.008451 448.56 
L 160.585915 448.56 
L 160.585915 422.688 
L 159.008451 422.688 
z
" clip-path="url(#p2c425ff713)" style="fill: #7f7f7f; opacity: 0.5"/>
   </g>
   <g id="patch_43">
    <path d="M 160.980282 448.56 
L 162.557746 448.56 
L 162.557746 422.688 
L 160.980282 422.688 
z
" clip-path="url(#p2c425ff713)" style="fill: #7f7f7f; opacity: 0.5"/>
   </g>
   <g id="patch_44">
    <path d="M 162.952113 448.56 
L 164.529577 448.56 
L 164.529577 422.688 
L 162.952113 422.688 
z
" clip-path="url(#p2c425ff713)" style="fill: #7f7f7f; opacity: 0.5"/>
   </g>
   <g id="patch_45">
    <path d="M 164.923944 448.56 
L 166.501408 448.56 
L 166.501408 422.688 
L 164.923944 422.688 
z
" clip-path="url(#p2c425ff713)" style="fill: #7f7f7f; opacity: 0.5"/>
   </g>
   <g id="patch_46">
    <path d="M 166.895775 448.56 
L 168.473239 448.56 
L 168.473239 370.944 
L 166.895775 370.944 
z
" clip-path="url(#p2c425ff713)" style="fill: #7f7f7f; opacity: 0.5"/>
   </g>
   <g id="patch_47">
    <path d="M 168.867606 448.56 
L 170.44507 448.56 
L 170.44507 448.56 
L 168.867606 448.56 
z
" clip-path="url(#p2c425ff713)" style="fill: #7f7f7f; opacity: 0.5"/>
   </g>
   <g id="patch_48">
    <path d="M 170.839437 448.56 
L 172.416901 448.56 
L 172.416901 422.688 
L 170.839437 422.688 
z
" clip-path="url(#p2c425ff713)" style="fill: #7f7f7f; opacity: 0.5"/>
   </g>
   <g id="patch_49">
    <path d="M 172.811268 448.56 
L 174.388732 448.56 
L 174.388732 422.688 
L 172.811268 422.688 
z
" clip-path="url(#p2c425ff713)" style="fill: #7f7f7f; opacity: 0.5"/>
   </g>
   <g id="patch_50">
    <path d="M 174.783099 448.56 
L 176.360563 448.56 
L 176.360563 345.072 
L 174.783099 345.072 
z
" clip-path="url(#p2c425ff713)" style="fill: #7f7f7f; opacity: 0.5"/>
   </g>
   <g id="patch_51">
    <path d="M 176.75493 448.56 
L 178.332394 448.56 
L 178.332394 370.944 
L 176.75493 370.944 
z
" clip-path="url(#p2c425ff713)" style="fill: #7f7f7f; opacity: 0.5"/>
   </g>
   <g id="patch_52">
    <path d="M 178.726761 448.56 
L 180.304225 448.56 
L 180.304225 370.944 
L 178.726761 370.944 
z
" clip-path="url(#p2c425ff713)" style="fill: #7f7f7f; opacity: 0.5"/>
   </g>
   <g id="patch_53">
    <path d="M 180.698592 448.56 
L 182.276056 448.56 
L 182.276056 396.816 
L 180.698592 396.816 
z
" clip-path="url(#p2c425ff713)" style="fill: #7f7f7f; opacity: 0.5"/>
   </g>
   <g id="patch_54">
    <path d="M 182.670423 448.56 
L 184.247887 448.56 
L 184.247887 345.072 
L 182.670423 345.072 
z
" clip-path="url(#p2c425ff713)" style="fill: #7f7f7f; opacity: 0.5"/>
   </g>
   <g id="patch_55">
    <path d="M 184.642254 448.56 
L 186.219718 448.56 
L 186.219718 345.072 
L 184.642254 345.072 
z
" clip-path="url(#p2c425ff713)" style="fill: #7f7f7f; opacity: 0.5"/>
   </g>
   <g id="patch_56">
    <path d="M 186.614085 448.56 
L 188.191549 448.56 
L 188.191549 241.584 
L 186.614085 241.584 
z
" clip-path="url(#p2c425ff713)" style="fill: #7f7f7f; opacity: 0.5"/>
   </g>
   <g id="patch_57">
    <path d="M 188.585915 448.56 
L 190.16338 448.56 
L 190.16338 319.2 
L 188.585915 319.2 
z
" clip-path="url(#p2c425ff713)" style="fill: #7f7f7f; opacity: 0.5"/>
   </g>
   <g id="patch_58">
    <path d="M 190.557746 448.56 
L 192.135211 448.56 
L 192.135211 241.584 
L 190.557746 241.584 
z
" clip-path="url(#p2c425ff713)" style="fill: #7f7f7f; opacity: 0.5"/>
   </g>
   <g id="patch_59">
    <path d="M 192.529577 448.56 
L 194.107042 448.56 
L 194.107042 319.2 
L 192.529577 319.2 
z
" clip-path="url(#p2c425ff713)" style="fill: #7f7f7f; opacity: 0.5"/>
   </g>
   <g id="patch_60">
    <path d="M 194.501408 448.56 
L 196.078873 448.56 
L 196.078873 345.072 
L 194.501408 345.072 
z
" clip-path="url(#p2c425ff713)" style="fill: #7f7f7f; opacity: 0.5"/>
   </g>
   <g id="patch_61">
    <path d="M 196.473239 448.56 
L 198.050704 448.56 
L 198.050704 319.2 
L 196.473239 319.2 
z
" clip-path="url(#p2c425ff713)" style="fill: #7f7f7f; opacity: 0.5"/>
   </g>
   <g id="patch_62">
    <path d="M 198.44507 448.56 
L 200.022535 448.56 
L 200.022535 267.456 
L 198.44507 267.456 
z
" clip-path="url(#p2c425ff713)" style="fill: #7f7f7f; opacity: 0.5"/>
   </g>
   <g id="patch_63">
    <path d="M 200.416901 448.56 
L 201.994366 448.56 
L 201.994366 396.816 
L 200.416901 396.816 
z
" clip-path="url(#p2c425ff713)" style="fill: #7f7f7f; opacity: 0.5"/>
   </g>
   <g id="patch_64">
    <path d="M 202.388732 448.56 
L 203.966197 448.56 
L 203.966197 422.688 
L 202.388732 422.688 
z
" clip-path="url(#p2c425ff713)" style="fill: #7f7f7f; opacity: 0.5"/>
   </g>
   <g id="patch_65">
    <path d="M 204.360563 448.56 
L 205.938028 448.56 
L 205.938028 241.584 
L 204.360563 241.584 
z
" clip-path="url(#p2c425ff713)" style="fill: #7f7f7f; opacity: 0.5"/>
   </g>
   <g id="patch_66">
    <path d="M 206.332394 448.56 
L 207.909859 448.56 
L 207.909859 396.816 
L 206.332394 396.816 
z
" clip-path="url(#p2c425ff713)" style="fill: #7f7f7f; opacity: 0.5"/>
   </g>
   <g id="patch_67">
    <path d="M 208.304225 448.56 
L 209.88169 448.56 
L 209.88169 345.072 
L 208.304225 345.072 
z
" clip-path="url(#p2c425ff713)" style="fill: #7f7f7f; opacity: 0.5"/>
   </g>
   <g id="patch_68">
    <path d="M 210.276056 448.56 
L 211.853521 448.56 
L 211.853521 396.816 
L 210.276056 396.816 
z
" clip-path="url(#p2c425ff713)" style="fill: #7f7f7f; opacity: 0.5"/>
   </g>
   <g id="patch_69">
    <path d="M 212.247887 448.56 
L 213.825352 448.56 
L 213.825352 215.712 
L 212.247887 215.712 
z
" clip-path="url(#p2c425ff713)" style="fill: #7f7f7f; opacity: 0.5"/>
   </g>
   <g id="patch_70">
    <path d="M 214.219718 448.56 
L 215.797183 448.56 
L 215.797183 241.584 
L 214.219718 241.584 
z
" clip-path="url(#p2c425ff713)" style="fill: #7f7f7f; opacity: 0.5"/>
   </g>
   <g id="patch_71">
    <path d="M 216.191549 448.56 
L 217.769014 448.56 
L 217.769014 241.584 
L 216.191549 241.584 
z
" clip-path="url(#p2c425ff713)" style="fill: #7f7f7f; opacity: 0.5"/>
   </g>
   <g id="patch_72">
    <path d="M 218.16338 448.56 
L 219.740845 448.56 
L 219.740845 267.456 
L 218.16338 267.456 
z
" clip-path="url(#p2c425ff713)" style="fill: #7f7f7f; opacity: 0.5"/>
   </g>
   <g id="patch_73">
    <path d="M 220.135211 448.56 
L 221.712676 448.56 
L 221.712676 215.712 
L 220.135211 215.712 
z
" clip-path="url(#p2c425ff713)" style="fill: #7f7f7f; opacity: 0.5"/>
   </g>
   <g id="patch_74">
    <path d="M 222.107042 448.56 
L 223.684507 448.56 
L 223.684507 138.096 
L 222.107042 138.096 
z
" clip-path="url(#p2c425ff713)" style="fill: #7f7f7f; opacity: 0.5"/>
   </g>
   <g id="patch_75">
    <path d="M 224.078873 448.56 
L 225.656338 448.56 
L 225.656338 138.096 
L 224.078873 138.096 
z
" clip-path="url(#p2c425ff713)" style="fill: #7f7f7f; opacity: 0.5"/>
   </g>
   <g id="patch_76">
    <path d="M 226.050704 448.56 
L 227.628169 448.56 
L 227.628169 267.456 
L 226.050704 267.456 
z
" clip-path="url(#p2c425ff713)" style="fill: #7f7f7f; opacity: 0.5"/>
   </g>
   <g id="patch_77">
    <path d="M 228.022535 448.56 
L 229.6 448.56 
L 229.6 138.096 
L 228.022535 138.096 
z
" clip-path="url(#p2c425ff713)" style="fill: #7f7f7f; opacity: 0.5"/>
   </g>
   <g id="patch_78">
    <path d="M 229.994366 448.56 
L 231.571831 448.56 
L 231.571831 396.816 
L 229.994366 396.816 
z
" clip-path="url(#p2c425ff713)" style="fill: #7f7f7f; opacity: 0.5"/>
   </g>
   <g id="patch_79">
    <path d="M 231.966197 448.56 
L 233.543662 448.56 
L 233.543662 60.48 
L 231.966197 60.48 
z
" clip-path="url(#p2c425ff713)" style="fill: #7f7f7f; opacity: 0.5"/>
   </g>
   <g id="patch_80">
    <path d="M 233.938028 448.56 
L 235.515493 448.56 
L 235.515493 163.968 
L 233.938028 163.968 
z
" clip-path="url(#p2c425ff713)" style="fill: #7f7f7f; opacity: 0.5"/>
   </g>
   <g id="patch_81">
    <path d="M 235.909859 448.56 
L 237.487324 448.56 
L 237.487324 319.2 
L 235.909859 319.2 
z
" clip-path="url(#p2c425ff713)" style="fill: #7f7f7f; opacity: 0.5"/>
   </g>
   <g id="patch_82">
    <path d="M 237.88169 448.56 
L 239.459155 448.56 
L 239.459155 345.072 
L 237.88169 345.072 
z
" clip-path="url(#p2c425ff713)" style="fill: #7f7f7f; opacity: 0.5"/>
   </g>
   <g id="patch_83">
    <path d="M 239.853521 448.56 
L 241.430986 448.56 
L 241.430986 396.816 
L 239.853521 396.816 
z
" clip-path="url(#p2c425ff713)" style="fill: #7f7f7f; opacity: 0.5"/>
   </g>
   <g id="patch_84">
    <path d="M 241.825352 448.56 
L 243.402817 448.56 
L 243.402817 345.072 
L 241.825352 345.072 
z
" clip-path="url(#p2c425ff713)" style="fill: #7f7f7f; opacity: 0.5"/>
   </g>
   <g id="patch_85">
    <path d="M 243.797183 448.56 
L 245.374648 448.56 
L 245.374648 267.456 
L 243.797183 267.456 
z
" clip-path="url(#p2c425ff713)" style="fill: #7f7f7f; opacity: 0.5"/>
   </g>
   <g id="patch_86">
    <path d="M 245.769014 448.56 
L 247.346479 448.56 
L 247.346479 112.224 
L 245.769014 112.224 
z
" clip-path="url(#p2c425ff713)" style="fill: #7f7f7f; opacity: 0.5"/>
   </g>
   <g id="patch_87">
    <path d="M 247.740845 448.56 
L 249.31831 448.56 
L 249.31831 293.328 
L 247.740845 293.328 
z
" clip-path="url(#p2c425ff713)" style="fill: #7f7f7f; opacity: 0.5"/>
   </g>
   <g id="patch_88">
    <path d="M 249.712676 448.56 
L 251.290141 448.56 
L 251.290141 241.584 
L 249.712676 241.584 
z
" clip-path="url(#p2c425ff713)" style="fill: #7f7f7f; opacity: 0.5"/>
   </g>
   <g id="patch_89">
    <path d="M 251.684507 448.56 
L 253.261972 448.56 
L 253.261972 345.072 
L 251.684507 345.072 
z
" clip-path="url(#p2c425ff713)" style="fill: #7f7f7f; opacity: 0.5"/>
   </g>
   <g id="patch_90">
    <path d="M 253.656338 448.56 
L 255.233803 448.56 
L 255.233803 319.2 
L 253.656338 319.2 
z
" clip-path="url(#p2c425ff713)" style="fill: #7f7f7f; opacity: 0.5"/>
   </g>
   <g id="patch_91">
    <path d="M 255.628169 448.56 
L 257.205634 448.56 
L 257.205634 370.944 
L 255.628169 370.944 
z
" clip-path="url(#p2c425ff713)" style="fill: #7f7f7f; opacity: 0.5"/>
   </g>
   <g id="patch_92">
    <path d="M 257.6 448.56 
L 259.177465 448.56 
L 259.177465 396.816 
L 257.6 396.816 
z
" clip-path="url(#p2c425ff713)" style="fill: #7f7f7f; opacity: 0.5"/>
   </g>
   <g id="patch_93">
    <path d="M 259.571831 448.56 
L 261.149296 448.56 
L 261.149296 396.816 
L 259.571831 396.816 
z
" clip-path="url(#p2c425ff713)" style="fill: #7f7f7f; opacity: 0.5"/>
   </g>
   <g id="patch_94">
    <path d="M 261.543662 448.56 
L 263.121127 448.56 
L 263.121127 448.56 
L 261.543662 448.56 
z
" clip-path="url(#p2c425ff713)" style="fill: #7f7f7f; opacity: 0.5"/>
   </g>
   <g id="patch_95">
    <path d="M 263.515493 448.56 
L 265.092958 448.56 
L 265.092958 422.688 
L 263.515493 422.688 
z
" clip-path="url(#p2c425ff713)" style="fill: #7f7f7f; opacity: 0.5"/>
   </g>
   <g id="patch_96">
    <path d="M 265.487324 448.56 
L 267.064789 448.56 
L 267.064789 396.816 
L 265.487324 396.816 
z
" clip-path="url(#p2c425ff713)" style="fill: #7f7f7f; opacity: 0.5"/>
   </g>
   <g id="patch_97">
    <path d="M 267.459155 448.56 
L 269.03662 448.56 
L 269.03662 370.944 
L 267.459155 370.944 
z
" clip-path="url(#p2c425ff713)" style="fill: #7f7f7f; opacity: 0.5"/>
   </g>
   <g id="patch_98">
    <path d="M 269.430986 448.56 
L 271.008451 448.56 
L 271.008451 422.688 
L 269.430986 422.688 
z
" clip-path="url(#p2c425ff713)" style="fill: #7f7f7f; opacity: 0.5"/>
   </g>
   <g id="patch_99">
    <path d="M 271.402817 448.56 
L 272.980282 448.56 
L 272.980282 370.944 
L 271.402817 370.944 
z
" clip-path="url(#p2c425ff713)" style="fill: #7f7f7f; opacity: 0.5"/>
   </g>
   <g id="patch_100">
    <path d="M 273.374648 448.56 
L 274.952113 448.56 
L 274.952113 396.816 
L 273.374648 396.816 
z
" clip-path="url(#p2c425ff713)" style="fill: #7f7f7f; opacity: 0.5"/>
   </g>
   <g id="patch_101">
    <path d="M 275.346479 448.56 
L 276.923944 448.56 
L 276.923944 448.56 
L 275.346479 448.56 
z
" clip-path="url(#p2c425ff713)" style="fill: #7f7f7f; opacity: 0.5"/>
   </g>
   <g id="patch_102">
    <path d="M 277.31831 448.56 
L 278.895775 448.56 
L 278.895775 448.56 
L 277.31831 448.56 
z
" clip-path="url(#p2c425ff713)" style="fill: #7f7f7f; opacity: 0.5"/>
   </g>
   <g id="patch_103">
    <path d="M 279.290141 448.56 
L 280.867606 448.56 
L 280.867606 422.688 
L 279.290141 422.688 
z
" clip-path="url(#p2c425ff713)" style="fill: #7f7f7f; opacity: 0.5"/>
   </g>
   <g id="patch_104">
    <path d="M 281.261972 448.56 
L 282.839437 448.56 
L 282.839437 396.816 
L 281.261972 396.816 
z
" clip-path="url(#p2c425ff713)" style="fill: #7f7f7f; opacity: 0.5"/>
   </g>
   <g id="patch_105">
    <path d="M 283.233803 448.56 
L 284.811268 448.56 
L 284.811268 422.688 
L 283.233803 422.688 
z
" clip-path="url(#p2c425ff713)" style="fill: #7f7f7f; opacity: 0.5"/>
   </g>
   <g id="patch_106">
    <path d="M 285.205634 448.56 
L 286.783099 448.56 
L 286.783099 448.56 
L 285.205634 448.56 
z
" clip-path="url(#p2c425ff713)" style="fill: #7f7f7f; opacity: 0.5"/>
   </g>
   <g id="patch_107">
    <path d="M 287.177465 448.56 
L 288.75493 448.56 
L 288.75493 422.688 
L 287.177465 422.688 
z
" clip-path="url(#p2c425ff713)" style="fill: #7f7f7f; opacity: 0.5"/>
   </g>
   <g id="patch_108">
    <path d="M 289.149296 448.56 
L 290.726761 448.56 
L 290.726761 448.56 
L 289.149296 448.56 
z
" clip-path="url(#p2c425ff713)" style="fill: #7f7f7f; opacity: 0.5"/>
   </g>
   <g id="patch_109">
    <path d="M 291.121127 448.56 
L 292.698592 448.56 
L 292.698592 422.688 
L 291.121127 422.688 
z
" clip-path="url(#p2c425ff713)" style="fill: #7f7f7f; opacity: 0.5"/>
   </g>
   <g id="patch_110">
    <path d="M 293.092958 448.56 
L 294.670423 448.56 
L 294.670423 448.56 
L 293.092958 448.56 
z
" clip-path="url(#p2c425ff713)" style="fill: #7f7f7f; opacity: 0.5"/>
   </g>
   <g id="patch_111">
    <path d="M 295.064789 448.56 
L 296.642254 448.56 
L 296.642254 448.56 
L 295.064789 448.56 
z
" clip-path="url(#p2c425ff713)" style="fill: #7f7f7f; opacity: 0.5"/>
   </g>
   <g id="patch_112">
    <path d="M 297.03662 448.56 
L 298.614085 448.56 
L 298.614085 448.56 
L 297.03662 448.56 
z
" clip-path="url(#p2c425ff713)" style="fill: #7f7f7f; opacity: 0.5"/>
   </g>
   <g id="patch_113">
    <path d="M 299.008451 448.56 
L 300.585915 448.56 
L 300.585915 422.688 
L 299.008451 422.688 
z
" clip-path="url(#p2c425ff713)" style="fill: #7f7f7f; opacity: 0.5"/>
   </g>
   <g id="patch_114">
    <path d="M 300.980282 448.56 
L 302.557746 448.56 
L 302.557746 422.688 
L 300.980282 422.688 
z
" clip-path="url(#p2c425ff713)" style="fill: #7f7f7f; opacity: 0.5"/>
   </g>
   <g id="patch_115">
    <path d="M 302.952113 448.56 
L 304.529577 448.56 
L 304.529577 448.56 
L 302.952113 448.56 
z
" clip-path="url(#p2c425ff713)" style="fill: #7f7f7f; opacity: 0.5"/>
   </g>
   <g id="patch_116">
    <path d="M 304.923944 448.56 
L 306.501408 448.56 
L 306.501408 448.56 
L 304.923944 448.56 
z
" clip-path="url(#p2c425ff713)" style="fill: #7f7f7f; opacity: 0.5"/>
   </g>
   <g id="patch_117">
    <path d="M 306.895775 448.56 
L 308.473239 448.56 
L 308.473239 448.56 
L 306.895775 448.56 
z
" clip-path="url(#p2c425ff713)" style="fill: #7f7f7f; opacity: 0.5"/>
   </g>
   <g id="patch_118">
    <path d="M 308.867606 448.56 
L 310.44507 448.56 
L 310.44507 422.688 
L 308.867606 422.688 
z
" clip-path="url(#p2c425ff713)" style="fill: #7f7f7f; opacity: 0.5"/>
   </g>
   <g id="patch_119">
    <path d="M 310.839437 448.56 
L 312.416901 448.56 
L 312.416901 448.56 
L 310.839437 448.56 
z
" clip-path="url(#p2c425ff713)" style="fill: #7f7f7f; opacity: 0.5"/>
   </g>
   <g id="patch_120">
    <path d="M 312.811268 448.56 
L 314.388732 448.56 
L 314.388732 448.56 
L 312.811268 448.56 
z
" clip-path="url(#p2c425ff713)" style="fill: #7f7f7f; opacity: 0.5"/>
   </g>
   <g id="patch_121">
    <path d="M 314.783099 448.56 
L 316.360563 448.56 
L 316.360563 448.56 
L 314.783099 448.56 
z
" clip-path="url(#p2c425ff713)" style="fill: #7f7f7f; opacity: 0.5"/>
   </g>
   <g id="patch_122">
    <path d="M 316.75493 448.56 
L 318.332394 448.56 
L 318.332394 448.56 
L 316.75493 448.56 
z
" clip-path="url(#p2c425ff713)" style="fill: #7f7f7f; opacity: 0.5"/>
   </g>
   <g id="patch_123">
    <path d="M 318.726761 448.56 
L 320.304225 448.56 
L 320.304225 448.56 
L 318.726761 448.56 
z
" clip-path="url(#p2c425ff713)" style="fill: #7f7f7f; opacity: 0.5"/>
   </g>
   <g id="patch_124">
    <path d="M 320.698592 448.56 
L 322.276056 448.56 
L 322.276056 448.56 
L 320.698592 448.56 
z
" clip-path="url(#p2c425ff713)" style="fill: #7f7f7f; opacity: 0.5"/>
   </g>
   <g id="patch_125">
    <path d="M 322.670423 448.56 
L 324.247887 448.56 
L 324.247887 448.56 
L 322.670423 448.56 
z
" clip-path="url(#p2c425ff713)" style="fill: #7f7f7f; opacity: 0.5"/>
   </g>
   <g id="patch_126">
    <path d="M 324.642254 448.56 
L 326.219718 448.56 
L 326.219718 448.56 
L 324.642254 448.56 
z
" clip-path="url(#p2c425ff713)" style="fill: #7f7f7f; opacity: 0.5"/>
   </g>
   <g id="patch_127">
    <path d="M 326.614085 448.56 
L 328.191549 448.56 
L 328.191549 448.56 
L 326.614085 448.56 
z
" clip-path="url(#p2c425ff713)" style="fill: #7f7f7f; opacity: 0.5"/>
   </g>
   <g id="patch_128">
    <path d="M 328.585915 448.56 
L 330.16338 448.56 
L 330.16338 422.688 
L 328.585915 422.688 
z
" clip-path="url(#p2c425ff713)" style="fill: #7f7f7f; opacity: 0.5"/>
   </g>
   <g id="patch_129">
    <path d="M 330.557746 448.56 
L 332.135211 448.56 
L 332.135211 448.56 
L 330.557746 448.56 
z
" clip-path="url(#p2c425ff713)" style="fill: #7f7f7f; opacity: 0.5"/>
   </g>
   <g id="patch_130">
    <path d="M 332.529577 448.56 
L 334.107042 448.56 
L 334.107042 448.56 
L 332.529577 448.56 
z
" clip-path="url(#p2c425ff713)" style="fill: #7f7f7f; opacity: 0.5"/>
   </g>
   <g id="patch_131">
    <path d="M 334.501408 448.56 
L 336.078873 448.56 
L 336.078873 448.56 
L 334.501408 448.56 
z
" clip-path="url(#p2c425ff713)" style="fill: #7f7f7f; opacity: 0.5"/>
   </g>
   <g id="patch_132">
    <path d="M 336.473239 448.56 
L 338.050704 448.56 
L 338.050704 448.56 
L 336.473239 448.56 
z
" clip-path="url(#p2c425ff713)" style="fill: #7f7f7f; opacity: 0.5"/>
   </g>
   <g id="patch_133">
    <path d="M 338.44507 448.56 
L 340.022535 448.56 
L 340.022535 448.56 
L 338.44507 448.56 
z
" clip-path="url(#p2c425ff713)" style="fill: #7f7f7f; opacity: 0.5"/>
   </g>
   <g id="patch_134">
    <path d="M 340.416901 448.56 
L 341.994366 448.56 
L 341.994366 448.56 
L 340.416901 448.56 
z
" clip-path="url(#p2c425ff713)" style="fill: #7f7f7f; opacity: 0.5"/>
   </g>
   <g id="patch_135">
    <path d="M 342.388732 448.56 
L 343.966197 448.56 
L 343.966197 422.688 
L 342.388732 422.688 
z
" clip-path="url(#p2c425ff713)" style="fill: #7f7f7f; opacity: 0.5"/>
   </g>
   <g id="patch_136">
    <path d="M 344.360563 448.56 
L 345.938028 448.56 
L 345.938028 448.56 
L 344.360563 448.56 
z
" clip-path="url(#p2c425ff713)" style="fill: #7f7f7f; opacity: 0.5"/>
   </g>
   <g id="patch_137">
    <path d="M 346.332394 448.56 
L 347.909859 448.56 
L 347.909859 448.56 
L 346.332394 448.56 
z
" clip-path="url(#p2c425ff713)" style="fill: #7f7f7f; opacity: 0.5"/>
   </g>
   <g id="patch_138">
    <path d="M 348.304225 448.56 
L 349.88169 448.56 
L 349.88169 448.56 
L 348.304225 448.56 
z
" clip-path="url(#p2c425ff713)" style="fill: #7f7f7f; opacity: 0.5"/>
   </g>
   <g id="patch_139">
    <path d="M 350.276056 448.56 
L 351.853521 448.56 
L 351.853521 448.56 
L 350.276056 448.56 
z
" clip-path="url(#p2c425ff713)" style="fill: #7f7f7f; opacity: 0.5"/>
   </g>
   <g id="patch_140">
    <path d="M 352.247887 448.56 
L 353.825352 448.56 
L 353.825352 448.56 
L 352.247887 448.56 
z
" clip-path="url(#p2c425ff713)" style="fill: #7f7f7f; opacity: 0.5"/>
   </g>
   <g id="patch_141">
    <path d="M 354.219718 448.56 
L 355.797183 448.56 
L 355.797183 448.56 
L 354.219718 448.56 
z
" clip-path="url(#p2c425ff713)" style="fill: #7f7f7f; opacity: 0.5"/>
   </g>
   <g id="patch_142">
    <path d="M 356.191549 448.56 
L 357.769014 448.56 
L 357.769014 448.56 
L 356.191549 448.56 
z
" clip-path="url(#p2c425ff713)" style="fill: #7f7f7f; opacity: 0.5"/>
   </g>
   <g id="patch_143">
    <path d="M 358.16338 448.56 
L 359.740845 448.56 
L 359.740845 448.56 
L 358.16338 448.56 
z
" clip-path="url(#p2c425ff713)" style="fill: #7f7f7f; opacity: 0.5"/>
   </g>
   <g id="patch_144">
    <path d="M 360.135211 448.56 
L 361.712676 448.56 
L 361.712676 448.56 
L 360.135211 448.56 
z
" clip-path="url(#p2c425ff713)" style="fill: #7f7f7f; opacity: 0.5"/>
   </g>
   <g id="patch_145">
    <path d="M 362.107042 448.56 
L 363.684507 448.56 
L 363.684507 448.56 
L 362.107042 448.56 
z
" clip-path="url(#p2c425ff713)" style="fill: #7f7f7f; opacity: 0.5"/>
   </g>
   <g id="patch_146">
    <path d="M 364.078873 448.56 
L 365.656338 448.56 
L 365.656338 448.56 
L 364.078873 448.56 
z
" clip-path="url(#p2c425ff713)" style="fill: #7f7f7f; opacity: 0.5"/>
   </g>
   <g id="patch_147">
    <path d="M 366.050704 448.56 
L 367.628169 448.56 
L 367.628169 448.56 
L 366.050704 448.56 
z
" clip-path="url(#p2c425ff713)" style="fill: #7f7f7f; opacity: 0.5"/>
   </g>
   <g id="patch_148">
    <path d="M 368.022535 448.56 
L 369.6 448.56 
L 369.6 448.56 
L 368.022535 448.56 
z
" clip-path="url(#p2c425ff713)" style="fill: #7f7f7f; opacity: 0.5"/>
   </g>
   <g id="patch_149">
    <path d="M 369.994366 448.56 
L 371.571831 448.56 
L 371.571831 448.56 
L 369.994366 448.56 
z
" clip-path="url(#p2c425ff713)" style="fill: #7f7f7f; opacity: 0.5"/>
   </g>
   <g id="patch_150">
    <path d="M 371.966197 448.56 
L 373.543662 448.56 
L 373.543662 448.56 
L 371.966197 448.56 
z
" clip-path="url(#p2c425ff713)" style="fill: #7f7f7f; opacity: 0.5"/>
   </g>
   <g id="patch_151">
    <path d="M 373.938028 448.56 
L 375.515493 448.56 
L 375.515493 448.56 
L 373.938028 448.56 
z
" clip-path="url(#p2c425ff713)" style="fill: #7f7f7f; opacity: 0.5"/>
   </g>
   <g id="patch_152">
    <path d="M 375.909859 448.56 
L 377.487324 448.56 
L 377.487324 448.56 
L 375.909859 448.56 
z
" clip-path="url(#p2c425ff713)" style="fill: #7f7f7f; opacity: 0.5"/>
   </g>
   <g id="patch_153">
    <path d="M 377.88169 448.56 
L 379.459155 448.56 
L 379.459155 448.56 
L 377.88169 448.56 
z
" clip-path="url(#p2c425ff713)" style="fill: #7f7f7f; opacity: 0.5"/>
   </g>
   <g id="patch_154">
    <path d="M 379.853521 448.56 
L 381.430986 448.56 
L 381.430986 448.56 
L 379.853521 448.56 
z
" clip-path="url(#p2c425ff713)" style="fill: #7f7f7f; opacity: 0.5"/>
   </g>
   <g id="patch_155">
    <path d="M 381.825352 448.56 
L 383.402817 448.56 
L 383.402817 448.56 
L 381.825352 448.56 
z
" clip-path="url(#p2c425ff713)" style="fill: #7f7f7f; opacity: 0.5"/>
   </g>
   <g id="patch_156">
    <path d="M 383.797183 448.56 
L 385.374648 448.56 
L 385.374648 448.56 
L 383.797183 448.56 
z
" clip-path="url(#p2c425ff713)" style="fill: #7f7f7f; opacity: 0.5"/>
   </g>
   <g id="patch_157">
    <path d="M 385.769014 448.56 
L 387.346479 448.56 
L 387.346479 448.56 
L 385.769014 448.56 
z
" clip-path="url(#p2c425ff713)" style="fill: #7f7f7f; opacity: 0.5"/>
   </g>
   <g id="patch_158">
    <path d="M 387.740845 448.56 
L 389.31831 448.56 
L 389.31831 448.56 
L 387.740845 448.56 
z
" clip-path="url(#p2c425ff713)" style="fill: #7f7f7f; opacity: 0.5"/>
   </g>
   <g id="patch_159">
    <path d="M 389.712676 448.56 
L 391.290141 448.56 
L 391.290141 448.56 
L 389.712676 448.56 
z
" clip-path="url(#p2c425ff713)" style="fill: #7f7f7f; opacity: 0.5"/>
   </g>
   <g id="patch_160">
    <path d="M 391.684507 448.56 
L 393.261972 448.56 
L 393.261972 448.56 
L 391.684507 448.56 
z
" clip-path="url(#p2c425ff713)" style="fill: #7f7f7f; opacity: 0.5"/>
   </g>
   <g id="patch_161">
    <path d="M 393.656338 448.56 
L 395.233803 448.56 
L 395.233803 448.56 
L 393.656338 448.56 
z
" clip-path="url(#p2c425ff713)" style="fill: #7f7f7f; opacity: 0.5"/>
   </g>
   <g id="patch_162">
    <path d="M 395.628169 448.56 
L 397.205634 448.56 
L 397.205634 448.56 
L 395.628169 448.56 
z
" clip-path="url(#p2c425ff713)" style="fill: #7f7f7f; opacity: 0.5"/>
   </g>
   <g id="patch_163">
    <path d="M 397.6 448.56 
L 399.177465 448.56 
L 399.177465 448.56 
L 397.6 448.56 
z
" clip-path="url(#p2c425ff713)" style="fill: #7f7f7f; opacity: 0.5"/>
   </g>
   <g id="patch_164">
    <path d="M 399.571831 448.56 
L 401.149296 448.56 
L 401.149296 448.56 
L 399.571831 448.56 
z
" clip-path="url(#p2c425ff713)" style="fill: #7f7f7f; opacity: 0.5"/>
   </g>
   <g id="patch_165">
    <path d="M 401.543662 448.56 
L 403.121127 448.56 
L 403.121127 448.56 
L 401.543662 448.56 
z
" clip-path="url(#p2c425ff713)" style="fill: #7f7f7f; opacity: 0.5"/>
   </g>
   <g id="patch_166">
    <path d="M 403.515493 448.56 
L 405.092958 448.56 
L 405.092958 448.56 
L 403.515493 448.56 
z
" clip-path="url(#p2c425ff713)" style="fill: #7f7f7f; opacity: 0.5"/>
   </g>
   <g id="patch_167">
    <path d="M 405.487324 448.56 
L 407.064789 448.56 
L 407.064789 448.56 
L 405.487324 448.56 
z
" clip-path="url(#p2c425ff713)" style="fill: #7f7f7f; opacity: 0.5"/>
   </g>
   <g id="patch_168">
    <path d="M 407.459155 448.56 
L 409.03662 448.56 
L 409.03662 448.56 
L 407.459155 448.56 
z
" clip-path="url(#p2c425ff713)" style="fill: #7f7f7f; opacity: 0.5"/>
   </g>
   <g id="patch_169">
    <path d="M 409.430986 448.56 
L 411.008451 448.56 
L 411.008451 448.56 
L 409.430986 448.56 
z
" clip-path="url(#p2c425ff713)" style="fill: #7f7f7f; opacity: 0.5"/>
   </g>
   <g id="patch_170">
    <path d="M 411.402817 448.56 
L 412.980282 448.56 
L 412.980282 448.56 
L 411.402817 448.56 
z
" clip-path="url(#p2c425ff713)" style="fill: #7f7f7f; opacity: 0.5"/>
   </g>
   <g id="patch_171">
    <path d="M 413.374648 448.56 
L 414.952113 448.56 
L 414.952113 448.56 
L 413.374648 448.56 
z
" clip-path="url(#p2c425ff713)" style="fill: #7f7f7f; opacity: 0.5"/>
   </g>
   <g id="patch_172">
    <path d="M 415.346479 448.56 
L 416.923944 448.56 
L 416.923944 448.56 
L 415.346479 448.56 
z
" clip-path="url(#p2c425ff713)" style="fill: #7f7f7f; opacity: 0.5"/>
   </g>
   <g id="patch_173">
    <path d="M 417.31831 448.56 
L 418.895775 448.56 
L 418.895775 448.56 
L 417.31831 448.56 
z
" clip-path="url(#p2c425ff713)" style="fill: #7f7f7f; opacity: 0.5"/>
   </g>
   <g id="patch_174">
    <path d="M 419.290141 448.56 
L 420.867606 448.56 
L 420.867606 448.56 
L 419.290141 448.56 
z
" clip-path="url(#p2c425ff713)" style="fill: #7f7f7f; opacity: 0.5"/>
   </g>
   <g id="patch_175">
    <path d="M 421.261972 448.56 
L 422.839437 448.56 
L 422.839437 448.56 
L 421.261972 448.56 
z
" clip-path="url(#p2c425ff713)" style="fill: #7f7f7f; opacity: 0.5"/>
   </g>
   <g id="patch_176">
    <path d="M 423.233803 448.56 
L 424.811268 448.56 
L 424.811268 448.56 
L 423.233803 448.56 
z
" clip-path="url(#p2c425ff713)" style="fill: #7f7f7f; opacity: 0.5"/>
   </g>
   <g id="patch_177">
    <path d="M 425.205634 448.56 
L 426.783099 448.56 
L 426.783099 448.56 
L 425.205634 448.56 
z
" clip-path="url(#p2c425ff713)" style="fill: #7f7f7f; opacity: 0.5"/>
   </g>
   <g id="patch_178">
    <path d="M 427.177465 448.56 
L 428.75493 448.56 
L 428.75493 448.56 
L 427.177465 448.56 
z
" clip-path="url(#p2c425ff713)" style="fill: #7f7f7f; opacity: 0.5"/>
   </g>
   <g id="patch_179">
    <path d="M 429.149296 448.56 
L 430.726761 448.56 
L 430.726761 448.56 
L 429.149296 448.56 
z
" clip-path="url(#p2c425ff713)" style="fill: #7f7f7f; opacity: 0.5"/>
   </g>
   <g id="patch_180">
    <path d="M 431.121127 448.56 
L 432.698592 448.56 
L 432.698592 448.56 
L 431.121127 448.56 
z
" clip-path="url(#p2c425ff713)" style="fill: #7f7f7f; opacity: 0.5"/>
   </g>
   <g id="patch_181">
    <path d="M 433.092958 448.56 
L 434.670423 448.56 
L 434.670423 448.56 
L 433.092958 448.56 
z
" clip-path="url(#p2c425ff713)" style="fill: #7f7f7f; opacity: 0.5"/>
   </g>
   <g id="patch_182">
    <path d="M 435.064789 448.56 
L 436.642254 448.56 
L 436.642254 448.56 
L 435.064789 448.56 
z
" clip-path="url(#p2c425ff713)" style="fill: #7f7f7f; opacity: 0.5"/>
   </g>
   <g id="patch_183">
    <path d="M 437.03662 448.56 
L 438.614085 448.56 
L 438.614085 448.56 
L 437.03662 448.56 
z
" clip-path="url(#p2c425ff713)" style="fill: #7f7f7f; opacity: 0.5"/>
   </g>
   <g id="patch_184">
    <path d="M 439.008451 448.56 
L 440.585915 448.56 
L 440.585915 448.56 
L 439.008451 448.56 
z
" clip-path="url(#p2c425ff713)" style="fill: #7f7f7f; opacity: 0.5"/>
   </g>
   <g id="patch_185">
    <path d="M 440.980282 448.56 
L 442.557746 448.56 
L 442.557746 448.56 
L 440.980282 448.56 
z
" clip-path="url(#p2c425ff713)" style="fill: #7f7f7f; opacity: 0.5"/>
   </g>
   <g id="patch_186">
    <path d="M 442.952113 448.56 
L 444.529577 448.56 
L 444.529577 448.56 
L 442.952113 448.56 
z
" clip-path="url(#p2c425ff713)" style="fill: #7f7f7f; opacity: 0.5"/>
   </g>
   <g id="patch_187">
    <path d="M 444.923944 448.56 
L 446.501408 448.56 
L 446.501408 448.56 
L 444.923944 448.56 
z
" clip-path="url(#p2c425ff713)" style="fill: #7f7f7f; opacity: 0.5"/>
   </g>
   <g id="patch_188">
    <path d="M 446.895775 448.56 
L 448.473239 448.56 
L 448.473239 448.56 
L 446.895775 448.56 
z
" clip-path="url(#p2c425ff713)" style="fill: #7f7f7f; opacity: 0.5"/>
   </g>
   <g id="patch_189">
    <path d="M 448.867606 448.56 
L 450.44507 448.56 
L 450.44507 448.56 
L 448.867606 448.56 
z
" clip-path="url(#p2c425ff713)" style="fill: #7f7f7f; opacity: 0.5"/>
   </g>
   <g id="patch_190">
    <path d="M 450.839437 448.56 
L 452.416901 448.56 
L 452.416901 448.56 
L 450.839437 448.56 
z
" clip-path="url(#p2c425ff713)" style="fill: #7f7f7f; opacity: 0.5"/>
   </g>
   <g id="patch_191">
    <path d="M 452.811268 448.56 
L 454.388732 448.56 
L 454.388732 448.56 
L 452.811268 448.56 
z
" clip-path="url(#p2c425ff713)" style="fill: #7f7f7f; opacity: 0.5"/>
   </g>
   <g id="patch_192">
    <path d="M 454.783099 448.56 
L 456.360563 448.56 
L 456.360563 448.56 
L 454.783099 448.56 
z
" clip-path="url(#p2c425ff713)" style="fill: #7f7f7f; opacity: 0.5"/>
   </g>
   <g id="patch_193">
    <path d="M 456.75493 448.56 
L 458.332394 448.56 
L 458.332394 448.56 
L 456.75493 448.56 
z
" clip-path="url(#p2c425ff713)" style="fill: #7f7f7f; opacity: 0.5"/>
   </g>
   <g id="patch_194">
    <path d="M 458.726761 448.56 
L 460.304225 448.56 
L 460.304225 448.56 
L 458.726761 448.56 
z
" clip-path="url(#p2c425ff713)" style="fill: #7f7f7f; opacity: 0.5"/>
   </g>
   <g id="patch_195">
    <path d="M 460.698592 448.56 
L 462.276056 448.56 
L 462.276056 448.56 
L 460.698592 448.56 
z
" clip-path="url(#p2c425ff713)" style="fill: #7f7f7f; opacity: 0.5"/>
   </g>
   <g id="patch_196">
    <path d="M 462.670423 448.56 
L 464.247887 448.56 
L 464.247887 448.56 
L 462.670423 448.56 
z
" clip-path="url(#p2c425ff713)" style="fill: #7f7f7f; opacity: 0.5"/>
   </g>
   <g id="patch_197">
    <path d="M 453.6 448.56 
L 453.6 60.48 
" style="fill: none; stroke: #7f7f7f; stroke-width: 0.8; stroke-linejoin: miter; stroke-linecap: square"/>
   </g>
  </g>
  <g id="axes_2">
   <g id="FillBetweenPolyCollection_1">
    <defs>
     <path id="m3e599eca2f" d="M 82.895775 -338.601211 
L 82.895775 -82.63282 
L 84.867606 -85.58928 
L 86.839437 -87.764174 
L 88.811268 -85.71896 
L 90.783099 -84.787385 
L 92.75493 -83.537995 
L 94.726761 -82.132348 
L 96.698592 -81.351123 
L 98.670423 -81.02283 
L 100.642254 -80.135788 
L 102.614085 -78.609694 
L 104.585915 -77.409579 
L 106.557746 -77.527335 
L 108.529577 -77.055056 
L 110.501408 -77.089131 
L 112.473239 -77.485629 
L 114.44507 -78.533403 
L 116.416901 -80.28566 
L 118.388732 -81.270326 
L 120.360563 -83.124352 
L 122.332394 -85.475879 
L 124.304225 -87.069406 
L 126.276056 -89.82096 
L 128.247887 -91.630367 
L 130.219718 -94.243792 
L 132.191549 -96.853908 
L 134.16338 -99.087021 
L 136.135211 -99.416083 
L 138.107042 -101.346373 
L 140.078873 -102.109516 
L 142.050704 -102.082894 
L 144.022535 -103.033887 
L 145.994366 -104.714289 
L 147.966197 -103.621958 
L 149.938028 -105.99185 
L 151.909859 -106.213052 
L 153.88169 -110.566615 
L 155.853521 -113.622153 
L 157.825352 -113.7248 
L 159.797183 -115.107106 
L 161.769014 -113.615864 
L 163.740845 -115.489383 
L 165.712676 -114.95762 
L 167.684507 -117.488859 
L 169.656338 -117.143451 
L 171.628169 -118.176766 
L 173.6 -122.663461 
L 175.571831 -130.561911 
L 177.543662 -134.493232 
L 179.515493 -137.933313 
L 181.487324 -141.840198 
L 183.459155 -150.814061 
L 185.430986 -157.877536 
L 187.402817 -165.779308 
L 189.374648 -161.763756 
L 191.346479 -156.899592 
L 193.31831 -142.138342 
L 195.290141 -130.042123 
L 197.261972 -122.554113 
L 199.233803 -115.254519 
L 201.205634 -103.382308 
L 203.177465 -98.209695 
L 205.149296 -98.005399 
L 207.121127 -93.549149 
L 209.092958 -93.841651 
L 211.064789 -94.442773 
L 213.03662 -102.445811 
L 215.008451 -107.229244 
L 216.980282 -110.214334 
L 218.952113 -113.820064 
L 220.923944 -119.922107 
L 222.895775 -125.441182 
L 224.867606 -124.912431 
L 226.839437 -119.373405 
L 228.811268 -116.298844 
L 230.783099 -107.34919 
L 232.75493 -109.985655 
L 234.726761 -101.683924 
L 236.698592 -90.576173 
L 238.670423 -83.931297 
L 240.642254 -80.51902 
L 242.614085 -80.423467 
L 244.585915 -82.743039 
L 246.557746 -84.591661 
L 248.529577 -80.782311 
L 250.501408 -78.256142 
L 252.473239 -74.163707 
L 254.44507 -71.645078 
L 256.416901 -69.228409 
L 258.388732 -67.01323 
L 260.360563 -65.6345 
L 262.332394 -64.553159 
L 264.304225 -64.091844 
L 266.276056 -63.91558 
L 268.247887 -63.876155 
L 270.219718 -63.407596 
L 272.191549 -63.217977 
L 274.16338 -62.601607 
L 276.135211 -62.044665 
L 278.107042 -61.650803 
L 280.078873 -61.445785 
L 282.050704 -61.433875 
L 284.022535 -60.979077 
L 285.994366 -60.619044 
L 287.966197 -60.011466 
L 289.938028 -59.714117 
L 291.909859 -59.410301 
L 293.88169 -58.960619 
L 295.853521 -58.789824 
L 297.825352 -58.626439 
L 299.797183 -58.500575 
L 301.769014 -58.38365 
L 303.740845 -58.0796 
L 305.712676 -57.820004 
L 307.684507 -57.654134 
L 309.656338 -57.643374 
L 311.628169 -57.169988 
L 313.6 -57.052894 
L 315.571831 -56.768645 
L 317.543662 -56.628244 
L 319.515493 -56.583279 
L 321.487324 -56.527321 
L 323.459155 -56.604557 
L 325.430986 -56.619647 
L 327.402817 -56.819027 
L 329.374648 -57.025969 
L 331.346479 -56.793078 
L 333.31831 -56.682905 
L 335.290141 -56.577164 
L 337.261972 -56.535123 
L 339.233803 -56.612133 
L 341.205634 -56.568856 
L 343.177465 -56.610875 
L 345.149296 -56.317719 
L 347.121127 -55.952347 
L 349.092958 -55.543427 
L 351.064789 -55.452344 
L 353.03662 -55.440185 
L 355.008451 -55.440003 
L 356.980282 -55.440002 
L 358.952113 -55.440001 
L 360.923944 -55.440001 
L 362.895775 -55.440001 
L 364.867606 -55.440001 
L 366.839437 -55.440001 
L 368.811268 -55.440001 
L 370.783099 -55.440001 
L 372.75493 -55.440001 
L 374.726761 -55.440001 
L 376.698592 -55.440001 
L 378.670423 -55.44 
L 380.642254 -55.44 
L 382.614085 -55.44 
L 384.585915 -55.44 
L 386.557746 -55.44 
L 388.529577 -55.44 
L 390.501408 -55.44 
L 392.473239 -55.44 
L 394.44507 -55.44 
L 396.416901 -55.44 
L 398.388732 -55.44 
L 400.360563 -55.44 
L 402.332394 -55.44 
L 404.304225 -55.44 
L 406.276056 -55.44 
L 408.247887 -55.44 
L 410.219718 -55.44 
L 412.191549 -55.44 
L 414.16338 -55.44 
L 416.135211 -55.44 
L 418.107042 -55.44 
L 420.078873 -55.44 
L 422.050704 -55.44 
L 424.022535 -55.44 
L 425.994366 -55.44 
L 427.966197 -55.44 
L 429.938028 -55.44 
L 431.909859 -55.44 
L 433.88169 -55.44 
L 435.853521 -55.44 
L 437.825352 -55.44 
L 439.797183 -55.44 
L 441.769014 -55.44 
L 443.740845 -55.44 
L 445.712676 -55.44 
L 447.684507 -55.44 
L 449.656338 -55.44 
L 451.628169 -55.44 
L 453.6 -55.44 
L 455.571831 -55.44 
L 457.543662 -55.44 
L 459.515493 -55.44 
L 461.487324 -55.44 
L 463.459155 -55.44 
L 463.459155 -66.972361 
L 463.459155 -66.972361 
L 461.487324 -67.627161 
L 459.515493 -67.70701 
L 457.543662 -67.37523 
L 455.571831 -67.644985 
L 453.6 -67.413802 
L 451.628169 -67.68373 
L 449.656338 -67.741529 
L 447.684507 -68.500446 
L 445.712676 -68.432556 
L 443.740845 -67.88495 
L 441.769014 -67.936187 
L 439.797183 -68.346316 
L 437.825352 -69.112519 
L 435.853521 -69.006959 
L 433.88169 -69.540293 
L 431.909859 -69.635564 
L 429.938028 -70.125736 
L 427.966197 -69.879605 
L 425.994366 -70.281963 
L 424.022535 -70.493302 
L 422.050704 -70.550761 
L 420.078873 -71.201307 
L 418.107042 -71.163032 
L 416.135211 -71.76769 
L 414.16338 -72.010709 
L 412.191549 -72.427783 
L 410.219718 -72.066121 
L 408.247887 -72.66782 
L 406.276056 -71.579442 
L 404.304225 -72.29316 
L 402.332394 -72.793237 
L 400.360563 -72.386811 
L 398.388732 -72.368456 
L 396.416901 -72.91269 
L 394.44507 -73.13832 
L 392.473239 -73.409956 
L 390.501408 -72.638493 
L 388.529577 -73.059217 
L 386.557746 -72.711843 
L 384.585915 -73.458223 
L 382.614085 -74.060017 
L 380.642254 -74.072956 
L 378.670423 -73.958088 
L 376.698592 -74.272493 
L 374.726761 -73.961735 
L 372.75493 -74.763866 
L 370.783099 -75.047808 
L 368.811268 -75.611446 
L 366.839437 -75.766543 
L 364.867606 -76.537479 
L 362.895775 -77.049644 
L 360.923944 -76.356357 
L 358.952113 -77.015984 
L 356.980282 -77.024824 
L 355.008451 -78.391536 
L 353.03662 -78.986408 
L 351.064789 -79.50479 
L 349.092958 -80.996299 
L 347.121127 -81.383311 
L 345.149296 -82.143368 
L 343.177465 -83.493576 
L 341.205634 -83.202134 
L 339.233803 -82.2154 
L 337.261972 -81.151218 
L 335.290141 -80.703107 
L 333.31831 -80.502163 
L 331.346479 -80.442531 
L 329.374648 -79.689592 
L 327.402817 -78.714063 
L 325.430986 -77.286262 
L 323.459155 -76.517838 
L 321.487324 -75.504881 
L 319.515493 -75.434295 
L 317.543662 -75.182948 
L 315.571831 -74.431453 
L 313.6 -74.013305 
L 311.628169 -74.198073 
L 309.656338 -74.582157 
L 307.684507 -74.51333 
L 305.712676 -74.250477 
L 303.740845 -74.041545 
L 301.769014 -74.723473 
L 299.797183 -74.639575 
L 297.825352 -74.06726 
L 295.853521 -74.117302 
L 293.88169 -74.959152 
L 291.909859 -75.293147 
L 289.938028 -74.959105 
L 287.966197 -75.379576 
L 285.994366 -74.936191 
L 284.022535 -75.594581 
L 282.050704 -76.04649 
L 280.078873 -75.888153 
L 278.107042 -75.585197 
L 276.135211 -75.906006 
L 274.16338 -76.933571 
L 272.191549 -78.286234 
L 270.219718 -78.411099 
L 268.247887 -78.947576 
L 266.276056 -78.762304 
L 264.304225 -78.142427 
L 262.332394 -78.305961 
L 260.360563 -80.544579 
L 258.388732 -83.721916 
L 256.416901 -87.365567 
L 254.44507 -92.192774 
L 252.473239 -97.117071 
L 250.501408 -103.985816 
L 248.529577 -109.530383 
L 246.557746 -115.906631 
L 244.585915 -111.051963 
L 242.614085 -107.92865 
L 240.642254 -108.277183 
L 238.670423 -115.164446 
L 236.698592 -127.221017 
L 234.726761 -146.896363 
L 232.75493 -162.290082 
L 230.783099 -158.205326 
L 228.811268 -174.870744 
L 226.839437 -177.414533 
L 224.867606 -191.122194 
L 222.895775 -191.725889 
L 220.923944 -183.051823 
L 218.952113 -173.261194 
L 216.980282 -165.962351 
L 215.008451 -159.638362 
L 213.03662 -153.663391 
L 211.064789 -141.167228 
L 209.092958 -138.37787 
L 207.121127 -139.143943 
L 205.149296 -148.866284 
L 203.177465 -150.138778 
L 201.205634 -162.75587 
L 199.233803 -188.14579 
L 197.261972 -206.433305 
L 195.290141 -224.221308 
L 193.31831 -253.293669 
L 191.346479 -285.104159 
L 189.374648 -290.104653 
L 187.402817 -303.630424 
L 185.430986 -290.966669 
L 183.459155 -276.51031 
L 181.487324 -262.365125 
L 179.515493 -260.174942 
L 177.543662 -255.645202 
L 175.571831 -254.815852 
L 173.6 -238.379957 
L 171.628169 -231.981747 
L 169.656338 -228.078978 
L 167.684507 -236.657833 
L 165.712676 -228.462986 
L 163.740845 -232.718905 
L 161.769014 -232.79359 
L 159.797183 -236.794514 
L 157.825352 -247.210499 
L 155.853521 -245.322336 
L 153.88169 -232.656282 
L 151.909859 -232.203485 
L 149.938028 -234.903523 
L 147.966197 -238.000521 
L 145.994366 -244.44926 
L 144.022535 -251.202299 
L 142.050704 -252.698875 
L 140.078873 -255.632105 
L 138.107042 -251.798822 
L 136.135211 -249.607129 
L 134.16338 -247.034645 
L 132.191549 -232.024741 
L 130.219718 -230.609036 
L 128.247887 -220.872456 
L 126.276056 -210.572345 
L 124.304225 -197.518976 
L 122.332394 -189.733289 
L 120.360563 -181.464182 
L 118.388732 -169.885085 
L 116.416901 -161.075314 
L 114.44507 -159.173399 
L 112.473239 -154.393131 
L 110.501408 -153.837788 
L 108.529577 -151.892321 
L 106.557746 -155.003332 
L 104.585915 -159.115132 
L 102.614085 -167.082641 
L 100.642254 -180.453144 
L 98.670423 -191.290507 
L 96.698592 -206.60447 
L 94.726761 -220.386012 
L 92.75493 -244.151855 
L 90.783099 -269.193751 
L 88.811268 -293.366424 
L 86.839437 -318.667188 
L 84.867606 -341.522359 
L 82.895775 -338.601211 
z
" style="stroke: #0173b2; stroke-opacity: 0.3"/>
    </defs>
    <g clip-path="url(#p2c425ff713)">
     <use xlink:href="#m3e599eca2f" x="0" y="504" style="fill: #0173b2; fill-opacity: 0.3; stroke: #0173b2; stroke-opacity: 0.3"/>
    </g>
   </g>
   <g id="FillBetweenPolyCollection_2">
    <defs>
     <path id="m2099645910" d="M 82.895775 -425.04 
L 82.895775 -93.521653 
L 84.867606 -95.000671 
L 86.839437 -94.638121 
L 88.811268 -91.995849 
L 90.783099 -89.614807 
L 92.75493 -87.054632 
L 94.726761 -84.596615 
L 96.698592 -83.821186 
L 98.670423 -81.758002 
L 100.642254 -80.697959 
L 102.614085 -79.371183 
L 104.585915 -77.492882 
L 106.557746 -77.207208 
L 108.529577 -77.227583 
L 110.501408 -76.318978 
L 112.473239 -76.972786 
L 114.44507 -77.915868 
L 116.416901 -78.96221 
L 118.388732 -81.00061 
L 120.360563 -82.71378 
L 122.332394 -84.95126 
L 124.304225 -86.286939 
L 126.276056 -88.901869 
L 128.247887 -91.947724 
L 130.219718 -94.234125 
L 132.191549 -95.112607 
L 134.16338 -97.667639 
L 136.135211 -99.339596 
L 138.107042 -102.330764 
L 140.078873 -102.761025 
L 142.050704 -104.072599 
L 144.022535 -104.791249 
L 145.994366 -105.00654 
L 147.966197 -105.672736 
L 149.938028 -105.470947 
L 151.909859 -106.710795 
L 153.88169 -110.086228 
L 155.853521 -114.735317 
L 157.825352 -115.836953 
L 159.797183 -114.363852 
L 161.769014 -113.992877 
L 163.740845 -114.378369 
L 165.712676 -114.479432 
L 167.684507 -117.130071 
L 169.656338 -116.787387 
L 171.628169 -119.604331 
L 173.6 -123.736357 
L 175.571831 -131.067584 
L 177.543662 -135.58937 
L 179.515493 -138.919187 
L 181.487324 -142.481866 
L 183.459155 -151.239633 
L 185.430986 -158.12001 
L 187.402817 -164.835338 
L 189.374648 -160.258648 
L 191.346479 -156.192763 
L 193.31831 -143.308484 
L 195.290141 -131.390008 
L 197.261972 -122.859592 
L 199.233803 -114.8396 
L 201.205634 -103.913532 
L 203.177465 -98.25278 
L 205.149296 -98.079883 
L 207.121127 -93.880382 
L 209.092958 -93.725744 
L 211.064789 -95.390668 
L 213.03662 -102.273468 
L 215.008451 -106.338375 
L 216.980282 -109.379744 
L 218.952113 -112.761783 
L 220.923944 -118.816072 
L 222.895775 -124.658707 
L 224.867606 -125.334776 
L 226.839437 -117.917118 
L 228.811268 -114.991561 
L 230.783099 -106.68072 
L 232.75493 -109.808695 
L 234.726761 -100.696947 
L 236.698592 -90.298727 
L 238.670423 -84.029658 
L 240.642254 -80.147 
L 242.614085 -80.598118 
L 244.585915 -82.456313 
L 246.557746 -84.01736 
L 248.529577 -80.346414 
L 250.501408 -77.627774 
L 252.473239 -74.227745 
L 254.44507 -71.479884 
L 256.416901 -68.761324 
L 258.388732 -66.833959 
L 260.360563 -65.224053 
L 262.332394 -64.250206 
L 264.304225 -63.907712 
L 266.276056 -64.006729 
L 268.247887 -63.972628 
L 270.219718 -63.643117 
L 272.191549 -63.528298 
L 274.16338 -63.063233 
L 276.135211 -62.511434 
L 278.107042 -62.158775 
L 280.078873 -62.223639 
L 282.050704 -62.295013 
L 284.022535 -62.134817 
L 285.994366 -61.743531 
L 287.966197 -61.684625 
L 289.938028 -61.57692 
L 291.909859 -61.618664 
L 293.88169 -61.460094 
L 295.853521 -61.319181 
L 297.825352 -61.530098 
L 299.797183 -61.549616 
L 301.769014 -61.52835 
L 303.740845 -61.467717 
L 305.712676 -61.488375 
L 307.684507 -61.496091 
L 309.656338 -61.468263 
L 311.628169 -61.383691 
L 313.6 -61.175284 
L 315.571831 -61.050402 
L 317.543662 -61.101578 
L 319.515493 -60.911923 
L 321.487324 -61.057588 
L 323.459155 -61.127482 
L 325.430986 -61.227685 
L 327.402817 -61.371979 
L 329.374648 -61.48998 
L 331.346479 -61.583556 
L 333.31831 -61.598084 
L 335.290141 -61.820152 
L 337.261972 -61.896893 
L 339.233803 -61.58421 
L 341.205634 -61.800717 
L 343.177465 -61.842801 
L 345.149296 -61.82141 
L 347.121127 -61.809017 
L 349.092958 -61.738104 
L 351.064789 -61.677552 
L 353.03662 -61.533444 
L 355.008451 -61.612702 
L 356.980282 -61.602962 
L 358.952113 -61.614476 
L 360.923944 -61.598527 
L 362.895775 -61.645511 
L 364.867606 -61.332567 
L 366.839437 -61.392005 
L 368.811268 -61.557819 
L 370.783099 -61.590534 
L 372.75493 -61.562979 
L 374.726761 -61.737165 
L 376.698592 -61.719321 
L 378.670423 -61.662456 
L 380.642254 -61.849048 
L 382.614085 -62.064635 
L 384.585915 -62.067732 
L 386.557746 -61.963137 
L 388.529577 -62.017808 
L 390.501408 -62.014593 
L 392.473239 -62.078482 
L 394.44507 -62.01357 
L 396.416901 -61.977104 
L 398.388732 -61.976877 
L 400.360563 -62.112633 
L 402.332394 -62.021568 
L 404.304225 -62.167074 
L 406.276056 -62.20453 
L 408.247887 -62.207033 
L 410.219718 -62.16219 
L 412.191549 -62.245029 
L 414.16338 -62.356293 
L 416.135211 -62.080061 
L 418.107042 -62.474777 
L 420.078873 -62.533958 
L 422.050704 -62.620841 
L 424.022535 -62.779171 
L 425.994366 -62.548405 
L 427.966197 -62.705632 
L 429.938028 -62.673046 
L 431.909859 -62.825806 
L 433.88169 -62.723407 
L 435.853521 -62.719756 
L 437.825352 -62.659233 
L 439.797183 -62.714472 
L 441.769014 -62.644787 
L 443.740845 -62.513309 
L 445.712676 -62.660855 
L 447.684507 -62.492232 
L 449.656338 -62.699313 
L 451.628169 -62.666229 
L 453.6 -62.823821 
L 455.571831 -62.876366 
L 457.543662 -63.050656 
L 459.515493 -63.168625 
L 461.487324 -62.976148 
L 463.459155 -63.18899 
L 463.459155 -230.020784 
L 463.459155 -230.020784 
L 461.487324 -232.984517 
L 459.515493 -230.856212 
L 457.543662 -224.613261 
L 455.571831 -228.533419 
L 453.6 -221.021336 
L 451.628169 -222.424809 
L 449.656338 -221.206706 
L 447.684507 -213.442379 
L 445.712676 -218.807577 
L 443.740845 -220.780418 
L 441.769014 -216.708998 
L 439.797183 -211.083435 
L 437.825352 -207.287193 
L 435.853521 -203.227104 
L 433.88169 -202.706557 
L 431.909859 -200.575605 
L 429.938028 -200.440931 
L 427.966197 -198.410516 
L 425.994366 -190.859681 
L 424.022535 -185.08516 
L 422.050704 -184.211435 
L 420.078873 -184.163312 
L 418.107042 -182.150727 
L 416.135211 -184.702473 
L 414.16338 -185.503459 
L 412.191549 -183.181793 
L 410.219718 -179.589966 
L 408.247887 -175.721958 
L 406.276056 -174.041158 
L 404.304225 -170.782535 
L 402.332394 -171.327789 
L 400.360563 -165.066717 
L 398.388732 -162.438285 
L 396.416901 -162.360394 
L 394.44507 -154.746522 
L 392.473239 -148.736365 
L 390.501408 -147.752875 
L 388.529577 -144.796909 
L 386.557746 -142.317127 
L 384.585915 -140.454874 
L 382.614085 -135.864379 
L 380.642254 -132.584603 
L 378.670423 -132.146737 
L 376.698592 -131.286349 
L 374.726761 -127.382768 
L 372.75493 -124.95111 
L 370.783099 -123.731655 
L 368.811268 -121.00878 
L 366.839437 -120.860791 
L 364.867606 -119.234339 
L 362.895775 -117.340889 
L 360.923944 -114.034801 
L 358.952113 -112.538473 
L 356.980282 -113.770445 
L 355.008451 -112.658611 
L 353.03662 -113.00075 
L 351.064789 -112.208679 
L 349.092958 -112.827306 
L 347.121127 -112.591253 
L 345.149296 -112.499368 
L 343.177465 -114.034668 
L 341.205634 -112.744721 
L 339.233803 -109.776834 
L 337.261972 -107.088358 
L 335.290141 -105.768779 
L 333.31831 -105.222475 
L 331.346479 -102.892097 
L 329.374648 -102.112688 
L 327.402817 -99.214034 
L 325.430986 -97.865244 
L 323.459155 -95.828673 
L 321.487324 -93.262595 
L 319.515493 -91.700991 
L 317.543662 -90.266173 
L 315.571831 -88.628962 
L 313.6 -87.446026 
L 311.628169 -86.825351 
L 309.656338 -87.333582 
L 307.684507 -85.731971 
L 305.712676 -84.251592 
L 303.740845 -84.109272 
L 301.769014 -83.960915 
L 299.797183 -83.209189 
L 297.825352 -80.92072 
L 295.853521 -80.271076 
L 293.88169 -79.880281 
L 291.909859 -79.578463 
L 289.938028 -79.450601 
L 287.966197 -79.047359 
L 285.994366 -78.798358 
L 284.022535 -78.530438 
L 282.050704 -78.469717 
L 280.078873 -77.517704 
L 278.107042 -76.686658 
L 276.135211 -76.896432 
L 274.16338 -77.968233 
L 272.191549 -78.193078 
L 270.219718 -77.815262 
L 268.247887 -78.68352 
L 266.276056 -78.226558 
L 264.304225 -77.782687 
L 262.332394 -78.573578 
L 260.360563 -80.45376 
L 258.388732 -83.509476 
L 256.416901 -86.816466 
L 254.44507 -92.348622 
L 252.473239 -97.47878 
L 250.501408 -104.438139 
L 248.529577 -108.254772 
L 246.557746 -114.682762 
L 244.585915 -110.574324 
L 242.614085 -107.66448 
L 240.642254 -107.199561 
L 238.670423 -114.429501 
L 236.698592 -126.973274 
L 234.726761 -146.92848 
L 232.75493 -160.453576 
L 230.783099 -157.116884 
L 228.811268 -174.623746 
L 226.839437 -179.544447 
L 224.867606 -192.049682 
L 222.895775 -189.441937 
L 220.923944 -182.014969 
L 218.952113 -172.93589 
L 216.980282 -165.931961 
L 215.008451 -159.88102 
L 213.03662 -153.498801 
L 211.064789 -138.873573 
L 209.092958 -138.729003 
L 207.121127 -138.828187 
L 205.149296 -149.7373 
L 203.177465 -150.656422 
L 201.205634 -163.180114 
L 199.233803 -188.118427 
L 197.261972 -205.00822 
L 195.290141 -223.924587 
L 193.31831 -251.146385 
L 191.346479 -287.127577 
L 189.374648 -297.868486 
L 187.402817 -307.772081 
L 185.430986 -290.524368 
L 183.459155 -281.505123 
L 181.487324 -265.136087 
L 179.515493 -259.264769 
L 177.543662 -258.407381 
L 175.571831 -250.009644 
L 173.6 -233.515694 
L 171.628169 -230.672552 
L 169.656338 -225.746869 
L 167.684507 -235.663715 
L 165.712676 -231.544152 
L 163.740845 -237.41019 
L 161.769014 -235.663315 
L 159.797183 -243.64319 
L 157.825352 -246.008804 
L 155.853521 -245.694123 
L 153.88169 -237.366579 
L 151.909859 -232.019445 
L 149.938028 -234.796227 
L 147.966197 -237.362616 
L 145.994366 -241.674888 
L 144.022535 -245.795266 
L 142.050704 -244.798891 
L 140.078873 -247.58424 
L 138.107042 -250.548623 
L 136.135211 -246.498771 
L 134.16338 -244.48744 
L 132.191549 -239.760041 
L 130.219718 -231.635068 
L 128.247887 -217.861669 
L 126.276056 -209.797025 
L 124.304225 -200.627802 
L 122.332394 -184.658537 
L 120.360563 -180.791454 
L 118.388732 -168.920477 
L 116.416901 -160.688909 
L 114.44507 -155.754639 
L 112.473239 -153.351813 
L 110.501408 -149.264807 
L 108.529577 -148.575325 
L 106.557746 -153.61611 
L 104.585915 -159.100355 
L 102.614085 -167.379831 
L 100.642254 -183.936051 
L 98.670423 -194.758686 
L 96.698592 -214.068677 
L 94.726761 -245.134111 
L 92.75493 -270.936071 
L 90.783099 -300.04835 
L 88.811268 -344.139142 
L 86.839437 -388.334571 
L 84.867606 -412.291161 
L 82.895775 -425.04 
z
" style="stroke: #de8f05; stroke-opacity: 0.3"/>
    </defs>
    <g clip-path="url(#p2c425ff713)">
     <use xlink:href="#m2099645910" x="0" y="504" style="fill: #de8f05; fill-opacity: 0.3; stroke: #de8f05; stroke-opacity: 0.3"/>
    </g>
   </g>
   <g id="matplotlib.axis_2">
    <g id="xtick_1">
     <g id="line2d_9">
      <defs>
       <path id="m33dd242c29" d="M 0 0 
L 0 3.5 
" style="stroke: #000000; stroke-width: 0.8"/>
      </defs>
      <g>
       <use xlink:href="#m33dd242c29" x="92.75493" y="448.56" style="stroke: #000000; stroke-width: 0.8"/>
      </g>
     </g>
     <g id="text_10">
      <text style="font-size: 16px; font-family: 'Arial', sans-serif; text-anchor: middle" x="92.75493" y="467.208438" transform="rotate(-0 92.75493 467.208438)">1 Jul</text>
     </g>
    </g>
    <g id="xtick_2">
     <g id="line2d_10">
      <g>
       <use xlink:href="#m33dd242c29" x="153.88169" y="448.56" style="stroke: #000000; stroke-width: 0.8"/>
      </g>
     </g>
     <g id="text_11">
      <text style="font-size: 16px; font-family: 'Arial', sans-serif; text-anchor: middle" x="153.88169" y="467.208438" transform="rotate(-0 153.88169 467.208438)">1 Aug</text>
     </g>
    </g>
    <g id="xtick_3">
     <g id="line2d_11">
      <g>
       <use xlink:href="#m33dd242c29" x="215.008451" y="448.56" style="stroke: #000000; stroke-width: 0.8"/>
      </g>
     </g>
     <g id="text_12">
      <text style="font-size: 16px; font-family: 'Arial', sans-serif; text-anchor: middle" x="215.008451" y="467.208438" transform="rotate(-0 215.008451 467.208438)">1 Sep</text>
     </g>
    </g>
    <g id="xtick_4">
     <g id="line2d_12">
      <g>
       <use xlink:href="#m33dd242c29" x="274.16338" y="448.56" style="stroke: #000000; stroke-width: 0.8"/>
      </g>
     </g>
     <g id="text_13">
      <text style="font-size: 16px; font-family: 'Arial', sans-serif; text-anchor: middle" x="274.16338" y="467.2175" transform="rotate(-0 274.16338 467.2175)">1 Oct</text>
     </g>
    </g>
    <g id="xtick_5">
     <g id="line2d_13">
      <g>
       <use xlink:href="#m33dd242c29" x="335.290141" y="448.56" style="stroke: #000000; stroke-width: 0.8"/>
      </g>
     </g>
     <g id="text_14">
      <text style="font-size: 16px; font-family: 'Arial', sans-serif; text-anchor: middle" x="335.290141" y="467.208438" transform="rotate(-0 335.290141 467.208438)">1 Nov</text>
     </g>
    </g>
    <g id="xtick_6">
     <g id="line2d_14">
      <g>
       <use xlink:href="#m33dd242c29" x="394.44507" y="448.56" style="stroke: #000000; stroke-width: 0.8"/>
      </g>
     </g>
     <g id="text_15">
      <text style="font-size: 16px; font-family: 'Arial', sans-serif; text-anchor: middle" x="394.44507" y="467.208438" transform="rotate(-0 394.44507 467.208438)">1 Dec</text>
     </g>
    </g>
    <g id="text_16">
     <text style="font-size: 16px; font-family: 'Arial', sans-serif; text-anchor: middle" x="258.3" y="486.233125" transform="rotate(-0 258.3 486.233125)">Date (2017)</text>
    </g>
   </g>
   <g id="matplotlib.axis_3">
    <g id="ytick_9">
     <g id="line2d_15">
      <defs>
       <path id="m42f9d1788b" d="M 0 0 
L -3.5 0 
" style="stroke: #000000; stroke-width: 0.8"/>
      </defs>
      <g>
       <use xlink:href="#m42f9d1788b" x="63" y="448.56" style="stroke: #000000; stroke-width: 0.8"/>
      </g>
     </g>
     <g id="text_17">
      <text style="font-size: 16px; font-family: 'Arial', sans-serif; text-anchor: end" x="56" y="454.384219" transform="rotate(-0 56 454.384219)">0</text>
     </g>
    </g>
    <g id="ytick_10">
     <g id="line2d_16">
      <g>
       <use xlink:href="#m42f9d1788b" x="63" y="400.560519" style="stroke: #000000; stroke-width: 0.8"/>
      </g>
     </g>
     <g id="text_18">
      <text style="font-size: 16px; font-family: 'Arial', sans-serif; text-anchor: end" x="56" y="406.384738" transform="rotate(-0 56 406.384738)">1</text>
     </g>
    </g>
    <g id="ytick_11">
     <g id="line2d_17">
      <g>
       <use xlink:href="#m42f9d1788b" x="63" y="352.561038" style="stroke: #000000; stroke-width: 0.8"/>
      </g>
     </g>
     <g id="text_19">
      <text style="font-size: 16px; font-family: 'Arial', sans-serif; text-anchor: end" x="56" y="358.385257" transform="rotate(-0 56 358.385257)">2</text>
     </g>
    </g>
    <g id="ytick_12">
     <g id="line2d_18">
      <g>
       <use xlink:href="#m42f9d1788b" x="63" y="304.561558" style="stroke: #000000; stroke-width: 0.8"/>
      </g>
     </g>
     <g id="text_20">
      <text style="font-size: 16px; font-family: 'Arial', sans-serif; text-anchor: end" x="56" y="310.385776" transform="rotate(-0 56 310.385776)">3</text>
     </g>
    </g>
    <g id="ytick_13">
     <g id="line2d_19">
      <g>
       <use xlink:href="#m42f9d1788b" x="63" y="256.562077" style="stroke: #000000; stroke-width: 0.8"/>
      </g>
     </g>
     <g id="text_21">
      <text style="font-size: 16px; font-family: 'Arial', sans-serif; text-anchor: end" x="56" y="262.386296" transform="rotate(-0 56 262.386296)">4</text>
     </g>
    </g>
    <g id="ytick_14">
     <g id="line2d_20">
      <g>
       <use xlink:href="#m42f9d1788b" x="63" y="208.562596" style="stroke: #000000; stroke-width: 0.8"/>
      </g>
     </g>
     <g id="text_22">
      <text style="font-size: 16px; font-family: 'Arial', sans-serif; text-anchor: end" x="56" y="214.386815" transform="rotate(-0 56 214.386815)">5</text>
     </g>
    </g>
    <g id="ytick_15">
     <g id="line2d_21">
      <g>
       <use xlink:href="#m42f9d1788b" x="63" y="160.563115" style="stroke: #000000; stroke-width: 0.8"/>
      </g>
     </g>
     <g id="text_23">
      <text style="font-size: 16px; font-family: 'Arial', sans-serif; text-anchor: end" x="56" y="166.387334" transform="rotate(-0 56 166.387334)">6</text>
     </g>
    </g>
    <g id="ytick_16">
     <g id="line2d_22">
      <g>
       <use xlink:href="#m42f9d1788b" x="63" y="112.563635" style="stroke: #000000; stroke-width: 0.8"/>
      </g>
     </g>
     <g id="text_24">
      <text style="font-size: 16px; font-family: 'Arial', sans-serif; text-anchor: end" x="56" y="118.387853" transform="rotate(-0 56 118.387853)">7</text>
     </g>
    </g>
    <g id="ytick_17">
     <g id="line2d_23">
      <g>
       <use xlink:href="#m42f9d1788b" x="63" y="64.564154" style="stroke: #000000; stroke-width: 0.8"/>
      </g>
     </g>
     <g id="text_25">
      <text style="font-size: 16px; font-family: 'Arial', sans-serif; text-anchor: end" x="56" y="70.388373" transform="rotate(-0 56 70.388373)">8</text>
     </g>
    </g>
    <g id="text_26">
     <text style="font-size: 16px; font-family: 'Arial', sans-serif; text-anchor: middle" x="39.735312" y="254.52" transform="rotate(-90 39.735312 254.52)">Time-dependent reproduction number</text>
    </g>
   </g>
   <g id="line2d_24">
    <path d="M 82.895775 342.410662 
L 84.867606 336.285659 
L 86.839437 338.530296 
L 90.783099 356.096304 
L 92.75493 364.298564 
L 94.726761 371.26922 
L 96.698592 377.370505 
L 98.670423 382.438286 
L 100.642254 386.343226 
L 102.614085 391.117704 
L 104.585915 394.786459 
L 106.557746 396.740265 
L 108.529577 397.832328 
L 110.501408 397.900592 
L 112.473239 396.998933 
L 114.44507 394.971616 
L 116.416901 392.551255 
L 118.388732 388.779522 
L 120.360563 383.677151 
L 122.332394 379.88135 
L 124.304225 375.050043 
L 126.276056 368.692481 
L 128.247887 364.046052 
L 130.219718 358.275037 
L 132.191549 354.384759 
L 134.16338 349.452131 
L 136.135211 347.408884 
L 138.107042 343.965808 
L 140.078873 343.219486 
L 142.050704 344.39106 
L 144.022535 343.525518 
L 145.994366 344.822715 
L 147.966197 346.454762 
L 149.938028 346.22049 
L 151.909859 346.650131 
L 153.88169 343.707086 
L 155.853521 336.454582 
L 157.825352 336.468918 
L 159.797183 338.829418 
L 161.769014 340.232788 
L 163.740845 341.019773 
L 165.712676 340.142682 
L 167.684507 338.215728 
L 169.656338 341.415602 
L 171.628169 338.588072 
L 173.6 332.916445 
L 175.571831 322.352786 
L 177.543662 317.807143 
L 179.515493 313.832271 
L 181.487324 309.596363 
L 187.402817 277.436539 
L 189.374648 284.64935 
L 191.346479 292.310846 
L 193.31831 313.082884 
L 195.290141 331.789378 
L 199.233803 357.674489 
L 201.205634 374.648715 
L 203.177465 383.055994 
L 205.149296 383.646387 
L 207.121127 390.378302 
L 209.092958 390.987656 
L 211.064789 388.989978 
L 213.03662 379.108245 
L 215.008451 373.309722 
L 218.952113 364.369023 
L 222.895775 348.604335 
L 224.867606 349.253537 
L 226.839437 358.300812 
L 228.811268 361.711901 
L 230.783099 373.986313 
L 232.75493 370.318768 
L 234.726761 381.763429 
L 236.698592 397.096157 
L 238.670423 406.158208 
L 240.642254 411.211351 
L 242.614085 411.236254 
L 246.557746 405.73427 
L 248.529577 410.629241 
L 250.501408 414.337672 
L 252.473239 419.535253 
L 256.416901 426.895949 
L 258.388732 429.81198 
L 260.360563 431.974795 
L 262.332394 433.57477 
L 264.304225 433.94763 
L 268.247887 433.812326 
L 270.219718 434.36259 
L 272.191549 434.411652 
L 274.16338 435.273163 
L 276.135211 436.282707 
L 278.107042 436.675143 
L 282.050704 436.657573 
L 285.994366 437.709923 
L 287.966197 437.983861 
L 289.938028 438.482353 
L 291.909859 438.755077 
L 293.88169 439.194409 
L 295.853521 439.494528 
L 297.825352 439.646998 
L 299.797183 439.575585 
L 301.769014 439.749385 
L 303.740845 440.18865 
L 307.684507 440.568983 
L 309.656338 440.596098 
L 311.628169 440.966819 
L 313.6 441.160917 
L 319.515493 441.294923 
L 323.459155 441.015804 
L 327.402817 440.411196 
L 329.374648 440.017067 
L 335.290141 440.148098 
L 339.233803 440.063389 
L 343.177465 439.890507 
L 351.064789 441.535032 
L 356.980282 442.527827 
L 360.923944 442.937982 
L 376.698592 444.227469 
L 406.276056 445.432718 
L 412.191549 445.549401 
L 431.909859 446.007758 
L 435.853521 446.118514 
L 441.769014 446.242438 
L 457.543662 446.474656 
L 463.459155 446.504422 
L 463.459155 446.504422 
" clip-path="url(#p2c425ff713)" style="fill: none; stroke: #0173b2; stroke-width: 2; stroke-linecap: square"/>
   </g>
   <g id="line2d_25">
    <path d="M 82.895775 307.326596 
L 84.867606 305.289913 
L 86.839437 312.529591 
L 88.811268 328.294677 
L 90.783099 342.41589 
L 92.75493 353.826571 
L 94.726761 363.920625 
L 96.698592 372.347279 
L 98.670423 379.577404 
L 100.642254 384.934453 
L 102.614085 390.719113 
L 104.585915 394.771762 
L 106.557746 397.283254 
L 108.529577 398.825448 
L 110.501408 398.81966 
L 112.473239 398.019225 
L 114.44507 396.31321 
L 116.416901 393.507494 
L 118.388732 389.658513 
L 120.360563 384.693269 
L 122.332394 381.085707 
L 124.304225 376.054679 
L 126.276056 369.793975 
L 128.247887 365.193046 
L 130.219718 359.199693 
L 132.191549 355.642413 
L 134.16338 351.015377 
L 136.135211 348.646466 
L 138.107042 345.697618 
L 140.078873 344.901779 
L 142.050704 346.138648 
L 144.022535 344.900802 
L 145.994366 345.756399 
L 147.966197 347.275764 
L 149.938028 346.903096 
L 151.909859 347.099963 
L 153.88169 343.394477 
L 155.853521 336.601436 
L 157.825352 336.358048 
L 159.797183 338.987467 
L 161.769014 340.555389 
L 163.740845 340.932635 
L 165.712676 340.128329 
L 167.684507 337.625082 
L 169.656338 340.941877 
L 171.628169 337.892382 
L 173.6 332.32014 
L 175.571831 321.720239 
L 177.543662 317.408929 
L 181.487324 309.577635 
L 183.459155 298.196585 
L 185.430986 288.400009 
L 187.402817 277.383541 
L 189.374648 284.348792 
L 191.346479 291.808075 
L 193.31831 313.275369 
L 195.290141 331.567247 
L 197.261972 345.151633 
L 199.233803 357.877865 
L 201.205634 374.598551 
L 203.177465 383.34864 
L 205.149296 383.735325 
L 207.121127 390.448636 
L 209.092958 391.080624 
L 211.064789 389.246913 
L 213.03662 379.213959 
L 215.008451 373.900204 
L 218.952113 364.813871 
L 222.895775 348.98818 
L 224.867606 349.569675 
L 226.839437 358.732057 
L 228.811268 362.212795 
L 230.783099 374.83937 
L 232.75493 371.46437 
L 234.726761 382.976016 
L 236.698592 397.868483 
L 238.670423 406.763859 
L 240.642254 411.675684 
L 242.614085 411.586241 
L 246.557746 406.163373 
L 248.529577 411.070974 
L 250.501408 414.6943 
L 252.473239 419.785696 
L 256.416901 427.30407 
L 258.388732 430.150518 
L 260.360563 432.166586 
L 262.332394 433.713666 
L 264.304225 434.152322 
L 266.276056 434.13331 
L 268.247887 433.931503 
L 270.219718 434.339217 
L 272.191549 434.338682 
L 274.16338 434.875107 
L 276.135211 435.667704 
L 278.107042 435.827315 
L 282.050704 435.19876 
L 285.994366 435.577583 
L 287.966197 435.483286 
L 289.938028 435.519611 
L 291.909859 435.36649 
L 293.88169 435.460842 
L 295.853521 435.296484 
L 297.825352 434.956705 
L 299.797183 434.363424 
L 301.769014 434.079811 
L 305.712676 433.952917 
L 309.656338 433.21829 
L 311.628169 433.210815 
L 315.571831 432.876426 
L 317.543662 432.555132 
L 321.487324 431.528646 
L 325.430986 430.241253 
L 327.402817 429.533038 
L 329.374648 428.671499 
L 331.346479 428.350311 
L 337.261972 426.90399 
L 343.177465 425.09663 
L 353.03662 425.655309 
L 355.008451 425.641241 
L 360.923944 425.28029 
L 372.75493 423.202943 
L 378.670423 421.212402 
L 382.614085 420.237087 
L 384.585915 419.584411 
L 386.557746 418.782028 
L 390.501408 417.626523 
L 392.473239 416.902277 
L 396.416901 415.086591 
L 398.388732 414.607279 
L 400.360563 413.997248 
L 402.332394 413.259144 
L 404.304225 412.720311 
L 406.276056 411.859283 
L 408.247887 411.357837 
L 410.219718 410.699341 
L 414.16338 409.24273 
L 416.135211 408.90896 
L 418.107042 408.803857 
L 420.078873 408.123876 
L 424.022535 407.308551 
L 429.938028 405.531943 
L 431.909859 405.270475 
L 435.853521 404.174846 
L 437.825352 403.880325 
L 447.684507 401.392618 
L 453.6 400.263154 
L 455.571831 399.643492 
L 457.543662 399.208494 
L 459.515493 398.589015 
L 461.487324 397.833079 
L 463.459155 397.736962 
L 463.459155 397.736962 
" clip-path="url(#p2c425ff713)" style="fill: none; stroke: #de8f05; stroke-width: 2; stroke-linecap: square"/>
   </g>
   <g id="patch_198">
    <path d="M 63 448.56 
L 63 60.48 
" style="fill: none; stroke: #000000; stroke-width: 0.8; stroke-linejoin: miter; stroke-linecap: square"/>
   </g>
   <g id="patch_199">
    <path d="M 63 448.56 
L 453.6 448.56 
" style="fill: none; stroke: #000000; stroke-width: 0.8; stroke-linejoin: miter; stroke-linecap: square"/>
   </g>
   <g id="legend_1">
    <g id="patch_200">
     <path d="M 296.281563 111.957891 
L 443.8 111.957891 
Q 446.6 111.957891 446.6 109.157891 
L 446.6 70.28 
Q 446.6 67.48 443.8 67.48 
L 296.281563 67.48 
Q 293.481562 67.48 293.481562 70.28 
L 293.481562 109.157891 
Q 293.481562 111.957891 296.281563 111.957891 
z
" style="fill: #ffffff; opacity: 0.8; stroke: #cccccc; stroke-linejoin: miter"/>
    </g>
    <g id="line2d_26">
     <path d="M 299.081563 78.372383 
L 313.081563 78.372383 
L 327.081563 78.372383 
" style="fill: none; stroke: #0173b2; stroke-width: 2; stroke-linecap: square"/>
    </g>
    <g id="text_27">
     <text style="font-size: 14px; font-family: 'Arial', sans-serif; text-anchor: start" x="338.281563" y="83.272383" transform="rotate(-0 338.281563 83.272383)">Suitability-based</text>
    </g>
    <g id="line2d_27">
     <path d="M 299.081563 98.511328 
L 313.081563 98.511328 
L 327.081563 98.511328 
" style="fill: none; stroke: #de8f05; stroke-width: 2; stroke-linecap: square"/>
    </g>
    <g id="text_28">
     <text style="font-size: 14px; font-family: 'Arial', sans-serif; text-anchor: start" x="338.281563" y="103.411328" transform="rotate(-0 338.281563 103.411328)">Autoregressive</text>
    </g>
   </g>
  </g>
 </g>
 <defs>
  <clipPath id="p2c425ff713">
   <rect x="63" y="60.48" width="390.6" height="388.08"/>
  </clipPath>
 </defs>
</svg>
