<?xml version="1.0" encoding="utf-8" standalone="no"?>
<!DOCTYPE svg PUBLIC "-//W3C//DTD SVG 1.1//EN"
  "http://www.w3.org/Graphics/SVG/1.1/DTD/svg11.dtd">
<svg xmlns:xlink="http://www.w3.org/1999/xlink" width="504pt" height="504pt" viewBox="0 0 504 504" xmlns="http://www.w3.org/2000/svg" version="1.1">
 <metadata>
  <rdf:RDF xmlns:dc="http://purl.org/dc/elements/1.1/" xmlns:cc="http://creativecommons.org/ns#" xmlns:rdf="http://www.w3.org/1999/02/22-rdf-syntax-ns#">
   <cc:Work>
    <dc:type rdf:resource="http://purl.org/dc/dcmitype/StillImage"/>
    <dc:date>2026-02-20T16:21:03.962049</dc:date>
    <dc:format>image/svg+xml</dc:format>
    <dc:creator>
     <cc:Agent>
      <dc:title>Matplotlib v3.10.8, https://matplotlib.org/</dc:title>
     </cc:Agent>
    </dc:creator>
   </cc:Work>
  </rdf:RDF>
 </metadata>
 <defs>
  <style type="text/css">*{stroke-linejoin: round; stroke-linecap: butt}</style>
 </defs>
 <g id="figure_1">
  <g id="patch_1">
   <path d="M 0 504 
L 504 504 
L 504 0 
L 0 0 
L 0 504 
z
" style="fill: none"/>
  </g>
  <g id="axes_1">
   <g id="patch_2">
    <path d="M 63 448.56 
L 453.6 448.56 
L 453.6 60.48 
L 63 60.48 
L 63 448.56 
z
" style="fill: none"/>
   </g>
   <g id="FillBetweenPolyCollection_1">
    <defs>
     <path id="m37442dc4ea" d="M 81.571786 -392.143754 
L 81.571786 -89.790416 
L 83.614886 -93.056584 
L 85.657987 -92.679848 
L 87.701088 -89.787707 
L 89.744189 -87.136618 
L 91.787289 -85.068244 
L 93.83039 -83.862641 
L 95.873491 -82.56153 
L 97.916592 -80.899489 
L 99.959692 -79.862296 
L 102.002793 -78.756074 
L 104.045894 -78.07686 
L 106.088995 -77.145752 
L 108.132095 -76.510346 
L 110.175196 -77.186328 
L 112.218297 -77.838438 
L 114.261398 -78.362366 
L 116.304498 -79.529502 
L 118.347599 -81.072694 
L 120.3907 -83.481336 
L 122.433801 -84.360893 
L 124.476901 -86.847801 
L 126.520002 -88.807009 
L 128.563103 -91.176312 
L 130.606204 -94.472364 
L 132.649304 -94.799803 
L 134.692405 -97.606341 
L 136.735506 -98.785095 
L 138.778607 -101.183652 
L 140.821707 -102.238948 
L 142.864808 -102.937567 
L 144.907909 -104.082972 
L 146.95101 -103.468182 
L 148.99411 -103.146814 
L 151.037211 -104.578585 
L 153.080312 -106.117851 
L 155.123412 -108.365218 
L 157.166513 -113.662859 
L 159.209614 -113.577457 
L 161.252715 -114.088788 
L 163.295815 -113.374173 
L 165.338916 -113.902073 
L 167.382017 -114.9883 
L 169.425118 -117.620759 
L 171.468218 -115.987026 
L 173.511319 -117.960723 
L 175.55442 -123.275583 
L 177.597521 -129.930417 
L 179.640621 -135.119867 
L 181.683722 -138.129203 
L 183.726823 -140.866608 
L 185.769924 -149.941971 
L 187.813024 -158.189421 
L 189.856125 -164.485805 
L 191.899226 -160.938867 
L 193.942327 -158.141151 
L 195.985427 -142.828044 
L 198.028528 -131.140536 
L 200.071629 -122.139641 
L 202.11473 -114.236014 
L 204.15783 -103.003492 
L 206.200931 -97.640292 
L 208.244032 -97.418678 
L 210.287133 -93.708222 
L 212.330233 -93.826793 
L 214.373334 -94.877827 
L 216.416435 -102.272515 
L 218.459536 -106.490037 
L 220.502636 -109.778022 
L 222.545737 -113.454125 
L 224.588838 -118.76115 
L 226.631938 -124.072567 
L 228.675039 -124.730669 
L 230.71814 -117.155598 
L 232.761241 -115.35483 
L 234.804341 -106.843893 
L 236.847442 -109.447555 
L 238.890543 -101.485932 
L 240.933644 -89.441548 
L 242.976744 -83.173517 
L 245.019845 -79.931728 
L 247.062946 -80.16287 
L 249.106047 -82.297491 
L 251.149147 -84.032226 
L 253.192248 -80.636337 
L 255.235349 -77.951063 
L 257.27845 -74.199515 
L 259.32155 -71.604119 
L 261.364651 -68.7473 
L 263.407752 -66.795636 
L 265.450853 -65.104627 
L 267.493953 -64.058408 
L 269.537054 -63.505829 
L 271.580155 -63.4209 
L 273.623256 -63.135605 
L 275.666356 -62.575908 
L 277.709457 -62.351695 
L 279.752558 -61.844577 
L 281.795659 -61.114552 
L 283.838759 -60.687521 
L 285.88186 -60.485839 
L 287.924961 -60.361202 
L 289.968062 -59.889972 
L 292.011162 -59.462453 
L 294.054263 -59.111443 
L 296.097364 -58.878842 
L 298.140464 -58.687784 
L 300.183565 -58.381401 
L 302.226666 -58.167043 
L 304.269767 -58.262827 
L 306.312867 -58.422455 
L 308.355968 -58.39265 
L 310.399069 -58.163746 
L 312.44217 -57.965574 
L 314.48527 -57.717788 
L 316.528371 -57.782469 
L 318.571472 -57.504842 
L 320.614573 -57.246299 
L 322.657673 -57.126277 
L 324.700774 -56.891501 
L 326.743875 -56.863975 
L 328.786976 -56.878002 
L 330.830076 -56.996761 
L 332.873177 -57.128953 
L 334.916278 -57.29584 
L 336.959379 -57.404273 
L 339.002479 -57.246961 
L 341.04558 -57.221235 
L 343.088681 -57.073037 
L 345.131782 -56.843997 
L 347.174882 -56.849192 
L 349.217983 -57.022994 
L 351.261084 -57.069895 
L 353.304185 -56.518657 
L 355.347285 -55.997261 
L 357.390386 -55.569713 
L 359.433487 -55.440002 
L 361.476588 -55.440002 
L 363.519688 -55.440001 
L 365.562789 -55.440001 
L 367.60589 -55.440001 
L 369.64899 -55.440001 
L 371.692091 -55.440001 
L 373.735192 -55.440001 
L 375.778293 -55.440001 
L 377.821393 -55.440001 
L 379.864494 -55.44 
L 381.907595 -55.44 
L 383.950696 -55.44 
L 385.993796 -55.44 
L 388.036897 -55.44 
L 390.079998 -55.44 
L 392.123099 -55.44 
L 394.166199 -55.44 
L 396.2093 -55.44 
L 398.252401 -55.44 
L 400.295502 -55.44 
L 402.338602 -55.44 
L 404.381703 -55.44 
L 406.424804 -55.44 
L 408.467905 -55.44 
L 410.511005 -55.44 
L 412.554106 -55.44 
L 414.597207 -55.44 
L 416.640308 -55.44 
L 418.683408 -55.44 
L 420.726509 -55.44 
L 422.76961 -55.44 
L 424.812711 -55.44 
L 426.855811 -55.44 
L 428.898912 -55.44 
L 430.942013 -55.44 
L 432.985114 -55.44 
L 435.028214 -55.44 
L 435.028214 -70.657362 
L 435.028214 -70.657362 
L 432.985114 -71.230967 
L 430.942013 -71.85785 
L 428.898912 -71.261477 
L 426.855811 -71.856236 
L 424.812711 -70.634752 
L 422.76961 -71.638721 
L 420.726509 -71.458279 
L 418.683408 -71.266389 
L 416.640308 -71.873007 
L 414.597207 -72.550961 
L 412.554106 -72.217109 
L 410.511005 -73.344977 
L 408.467905 -73.041449 
L 406.424804 -74.045693 
L 404.381703 -74.063725 
L 402.338602 -73.466028 
L 400.295502 -74.21679 
L 398.252401 -74.944445 
L 396.2093 -74.880111 
L 394.166199 -74.72267 
L 392.123099 -75.483417 
L 390.079998 -75.072304 
L 388.036897 -75.428106 
L 385.993796 -76.108933 
L 383.950696 -76.686677 
L 381.907595 -78.015023 
L 379.864494 -78.355573 
L 377.821393 -78.520745 
L 375.778293 -77.367334 
L 373.735192 -78.165899 
L 371.692091 -78.460062 
L 369.64899 -79.532749 
L 367.60589 -78.202933 
L 365.562789 -79.322223 
L 363.519688 -79.845991 
L 361.476588 -81.888456 
L 359.433487 -82.063041 
L 357.390386 -83.624596 
L 355.347285 -83.283816 
L 353.304185 -85.040363 
L 351.261084 -85.981799 
L 349.217983 -86.40799 
L 347.174882 -86.609746 
L 345.131782 -85.403339 
L 343.088681 -83.992091 
L 341.04558 -84.840274 
L 339.002479 -83.575198 
L 336.959379 -83.514947 
L 334.916278 -82.407278 
L 332.873177 -81.617429 
L 330.830076 -80.70993 
L 328.786976 -79.438984 
L 326.743875 -78.474383 
L 324.700774 -77.956118 
L 322.657673 -77.871167 
L 320.614573 -76.898407 
L 318.571472 -76.825917 
L 316.528371 -76.870142 
L 314.48527 -76.635385 
L 312.44217 -76.023995 
L 310.399069 -76.24737 
L 308.355968 -75.990654 
L 306.312867 -76.069871 
L 304.269767 -74.814904 
L 302.226666 -74.642346 
L 300.183565 -74.346628 
L 298.140464 -74.375251 
L 296.097364 -74.173943 
L 294.054263 -74.302941 
L 292.011162 -74.472934 
L 289.968062 -75.202429 
L 287.924961 -74.974584 
L 285.88186 -74.761536 
L 283.838759 -74.077245 
L 281.795659 -74.630582 
L 279.752558 -76.165427 
L 277.709457 -77.244353 
L 275.666356 -77.086002 
L 273.623256 -77.838892 
L 271.580155 -77.159507 
L 269.537054 -77.308999 
L 267.493953 -77.811545 
L 265.450853 -80.063244 
L 263.407752 -82.747102 
L 261.364651 -86.780802 
L 259.32155 -91.627656 
L 257.27845 -96.319687 
L 255.235349 -104.362103 
L 253.192248 -108.862128 
L 251.149147 -115.131632 
L 249.106047 -111.565131 
L 247.062946 -107.467732 
L 245.019845 -107.92431 
L 242.976744 -113.945025 
L 240.933644 -126.720274 
L 238.890543 -145.716551 
L 236.847442 -161.584021 
L 234.804341 -156.858257 
L 232.761241 -173.907051 
L 230.71814 -178.254566 
L 228.675039 -191.542476 
L 226.631938 -189.535501 
L 224.588838 -180.006779 
L 222.545737 -169.36467 
L 220.502636 -164.001386 
L 218.459536 -160.508753 
L 216.416435 -151.122761 
L 214.373334 -138.638902 
L 212.330233 -135.764867 
L 210.287133 -137.502414 
L 208.244032 -148.234204 
L 206.200931 -149.39914 
L 204.15783 -161.170945 
L 202.11473 -185.054953 
L 200.071629 -202.957932 
L 198.028528 -222.126597 
L 195.985427 -251.407639 
L 193.942327 -280.169327 
L 191.899226 -291.952911 
L 189.856125 -300.886139 
L 187.813024 -290.1298 
L 185.769924 -276.306589 
L 183.726823 -262.466726 
L 181.683722 -256.923394 
L 179.640621 -250.50017 
L 177.597521 -248.197823 
L 175.55442 -233.325938 
L 173.511319 -227.872741 
L 171.468218 -227.189674 
L 169.425118 -231.402438 
L 167.382017 -228.449533 
L 165.338916 -229.760382 
L 163.295815 -230.392478 
L 161.252715 -233.053807 
L 159.209614 -243.085 
L 157.166513 -242.975845 
L 155.123412 -230.771828 
L 153.080312 -226.656286 
L 151.037211 -232.339143 
L 148.99411 -231.293977 
L 146.95101 -239.605675 
L 144.907909 -241.541542 
L 142.864808 -242.761924 
L 140.821707 -246.870917 
L 138.778607 -248.383553 
L 136.735506 -243.757899 
L 134.692405 -241.00495 
L 132.649304 -233.548308 
L 130.606204 -228.569152 
L 128.563103 -219.051024 
L 126.520002 -206.39553 
L 124.476901 -198.485616 
L 122.433801 -184.181764 
L 120.3907 -177.424432 
L 118.347599 -167.878222 
L 116.304498 -161.269405 
L 114.261398 -156.444931 
L 112.218297 -153.156325 
L 110.175196 -151.151066 
L 108.132095 -151.993828 
L 106.088995 -152.837721 
L 104.045894 -160.32362 
L 102.002793 -170.562252 
L 99.959692 -185.443323 
L 97.916592 -194.284758 
L 95.873491 -221.767637 
L 93.83039 -238.179169 
L 91.787289 -268.273009 
L 89.744189 -305.600685 
L 87.701088 -333.744026 
L 85.657987 -377.326004 
L 83.614886 -400.455435 
L 81.571786 -392.143754 
z
" style="stroke: #0173b2; stroke-opacity: 0.3"/>
    </defs>
    <g clip-path="url(#pb1e67d3a24)">
     <use xlink:href="#m37442dc4ea" x="0" y="504" style="fill: #0173b2; fill-opacity: 0.3; stroke: #0173b2; stroke-opacity: 0.3"/>
    </g>
   </g>
   <g id="FillBetweenPolyCollection_2">
    <defs>
     <path id="m0dd41dc568" d="M 81.571786 -416.708511 
L 81.571786 -94.227242 
L 83.614886 -96.600983 
L 85.657987 -96.045426 
L 87.701088 -91.568555 
L 89.744189 -88.779658 
L 91.787289 -85.837012 
L 93.83039 -84.28808 
L 95.873491 -82.553747 
L 97.916592 -81.043631 
L 99.959692 -80.491572 
L 102.002793 -78.708755 
L 104.045894 -77.739635 
L 106.088995 -77.226155 
L 108.132095 -77.181927 
L 110.175196 -77.005087 
L 112.218297 -77.478656 
L 114.261398 -78.145175 
L 116.304498 -79.229915 
L 118.347599 -80.726078 
L 120.3907 -82.833613 
L 122.433801 -84.997885 
L 124.476901 -86.695169 
L 126.520002 -88.563147 
L 128.563103 -90.9891 
L 130.606204 -93.552943 
L 132.649304 -95.270939 
L 134.692405 -96.778666 
L 136.735506 -98.337233 
L 138.778607 -100.435036 
L 140.821707 -101.944854 
L 142.864808 -101.911709 
L 144.907909 -103.156884 
L 146.95101 -105.265404 
L 148.99411 -105.808605 
L 151.037211 -106.704248 
L 153.080312 -107.188058 
L 155.123412 -109.335445 
L 157.166513 -113.123659 
L 159.209614 -114.625804 
L 161.252715 -114.358432 
L 163.295815 -114.273655 
L 165.338916 -114.126218 
L 167.382017 -115.121743 
L 169.425118 -117.469435 
L 171.468218 -117.087302 
L 173.511319 -119.042162 
L 175.55442 -123.842667 
L 177.597521 -131.642579 
L 179.640621 -134.853233 
L 181.683722 -137.562333 
L 183.726823 -141.624274 
L 185.769924 -149.117619 
L 187.813024 -155.479314 
L 189.856125 -163.710733 
L 191.899226 -159.185863 
L 193.942327 -155.449206 
L 195.985427 -141.757463 
L 198.028528 -130.504679 
L 200.071629 -122.127629 
L 202.11473 -114.795401 
L 204.15783 -103.872151 
L 206.200931 -97.904864 
L 208.244032 -97.092872 
L 210.287133 -93.183413 
L 212.330233 -92.97376 
L 214.373334 -93.874252 
L 216.416435 -100.760926 
L 218.459536 -105.198001 
L 220.502636 -109.000428 
L 222.545737 -112.539855 
L 224.588838 -117.630596 
L 226.631938 -123.925888 
L 228.675039 -124.144193 
L 230.71814 -117.534129 
L 232.761241 -114.764143 
L 234.804341 -106.417744 
L 236.847442 -108.315207 
L 238.890543 -99.806951 
L 240.933644 -89.657259 
L 242.976744 -82.908555 
L 245.019845 -80.091346 
L 247.062946 -80.021557 
L 249.106047 -81.993335 
L 251.149147 -83.829655 
L 253.192248 -80.39655 
L 255.235349 -77.474046 
L 257.27845 -73.967041 
L 259.32155 -71.322846 
L 261.364651 -68.717421 
L 263.407752 -66.782533 
L 265.450853 -65.324335 
L 267.493953 -64.305358 
L 269.537054 -64.068157 
L 271.580155 -63.997103 
L 273.623256 -63.799273 
L 275.666356 -63.541621 
L 277.709457 -63.227553 
L 279.752558 -62.810186 
L 281.795659 -62.42292 
L 283.838759 -62.22415 
L 285.88186 -62.312769 
L 287.924961 -62.20126 
L 289.968062 -62.017727 
L 292.011162 -61.76316 
L 294.054263 -61.763158 
L 296.097364 -61.587809 
L 298.140464 -61.496607 
L 300.183565 -61.439402 
L 302.226666 -61.352027 
L 304.269767 -61.384474 
L 306.312867 -61.621581 
L 308.355968 -61.667613 
L 310.399069 -61.66232 
L 312.44217 -61.55673 
L 314.48527 -61.489972 
L 316.528371 -61.379108 
L 318.571472 -61.367791 
L 320.614573 -61.252643 
L 322.657673 -61.260934 
L 324.700774 -61.36963 
L 326.743875 -61.273477 
L 328.786976 -61.420838 
L 330.830076 -61.512832 
L 332.873177 -61.382477 
L 334.916278 -61.573429 
L 336.959379 -61.860769 
L 339.002479 -61.779516 
L 341.04558 -61.84238 
L 343.088681 -61.907437 
L 345.131782 -61.760125 
L 347.174882 -61.890772 
L 349.217983 -62.231622 
L 351.261084 -62.192337 
L 353.304185 -61.960059 
L 355.347285 -61.980399 
L 357.390386 -61.98228 
L 359.433487 -61.808197 
L 361.476588 -61.691039 
L 363.519688 -61.584252 
L 365.562789 -61.56575 
L 367.60589 -61.502129 
L 369.64899 -61.417099 
L 371.692091 -61.384043 
L 373.735192 -61.300561 
L 375.778293 -61.47383 
L 377.821393 -61.289901 
L 379.864494 -61.346033 
L 381.907595 -61.156235 
L 383.950696 -61.186083 
L 385.993796 -61.277553 
L 388.036897 -61.307126 
L 390.079998 -61.463022 
L 392.123099 -61.483734 
L 394.166199 -61.336518 
L 396.2093 -61.164906 
L 398.252401 -61.298945 
L 400.295502 -61.53653 
L 402.338602 -61.546073 
L 404.381703 -61.606378 
L 406.424804 -61.67983 
L 408.467905 -61.696757 
L 410.511005 -61.617976 
L 412.554106 -61.741193 
L 414.597207 -61.883507 
L 416.640308 -61.971741 
L 418.683408 -62.021236 
L 420.726509 -61.9968 
L 422.76961 -61.843673 
L 424.812711 -61.833653 
L 426.855811 -61.949207 
L 428.898912 -61.897112 
L 430.942013 -62.060316 
L 432.985114 -62.289936 
L 435.028214 -62.064376 
L 435.028214 -204.183193 
L 435.028214 -204.183193 
L 432.985114 -201.651816 
L 430.942013 -191.512652 
L 428.898912 -195.720603 
L 426.855811 -193.941948 
L 424.812711 -192.903715 
L 422.76961 -190.665539 
L 420.726509 -184.280829 
L 418.683408 -186.077051 
L 416.640308 -182.943502 
L 414.597207 -179.229837 
L 412.554106 -172.954565 
L 410.511005 -170.499635 
L 408.467905 -167.906227 
L 406.424804 -164.30062 
L 404.381703 -159.781302 
L 402.338602 -157.830716 
L 400.295502 -151.012246 
L 398.252401 -148.141684 
L 396.2093 -144.926728 
L 394.166199 -147.00003 
L 392.123099 -143.616318 
L 390.079998 -138.869583 
L 388.036897 -138.666726 
L 385.993796 -133.590514 
L 383.950696 -130.429391 
L 381.907595 -127.183783 
L 379.864494 -124.947365 
L 377.821393 -121.348464 
L 375.778293 -119.780028 
L 373.735192 -117.041255 
L 371.692091 -117.942439 
L 369.64899 -116.806932 
L 367.60589 -118.170499 
L 365.562789 -116.389738 
L 363.519688 -115.320968 
L 361.476588 -114.417807 
L 359.433487 -112.584465 
L 357.390386 -113.238071 
L 355.347285 -114.031731 
L 353.304185 -113.761284 
L 351.261084 -111.8995 
L 349.217983 -110.344033 
L 347.174882 -108.318116 
L 345.131782 -106.132762 
L 343.088681 -105.767321 
L 341.04558 -104.38004 
L 339.002479 -102.602439 
L 336.959379 -101.678032 
L 334.916278 -98.532962 
L 332.873177 -96.48418 
L 330.830076 -94.853936 
L 328.786976 -93.118438 
L 326.743875 -92.230796 
L 324.700774 -90.380017 
L 322.657673 -89.595979 
L 320.614573 -87.662087 
L 318.571472 -86.853752 
L 316.528371 -86.346243 
L 314.48527 -85.619551 
L 312.44217 -84.355863 
L 310.399069 -83.46425 
L 308.355968 -83.047505 
L 306.312867 -82.571831 
L 304.269767 -81.028508 
L 302.226666 -80.071981 
L 300.183565 -79.477943 
L 298.140464 -79.253809 
L 296.097364 -78.739368 
L 294.054263 -78.372692 
L 292.011162 -78.365156 
L 289.968062 -78.482482 
L 287.924961 -78.325367 
L 285.88186 -77.776086 
L 283.838759 -76.883597 
L 281.795659 -76.936228 
L 279.752558 -77.579811 
L 277.709457 -78.339848 
L 275.666356 -78.165568 
L 273.623256 -78.318168 
L 271.580155 -77.939544 
L 269.537054 -77.637498 
L 267.493953 -78.120949 
L 265.450853 -80.110818 
L 263.407752 -82.694736 
L 261.364651 -86.648853 
L 259.32155 -91.737315 
L 257.27845 -96.629402 
L 255.235349 -103.316494 
L 253.192248 -108.230269 
L 251.149147 -113.834102 
L 249.106047 -110.297156 
L 247.062946 -106.707846 
L 245.019845 -107.658426 
L 242.976744 -114.329051 
L 240.933644 -125.124569 
L 238.890543 -144.850107 
L 236.847442 -160.126812 
L 234.804341 -156.233869 
L 232.761241 -172.934614 
L 230.71814 -176.851262 
L 228.675039 -188.406382 
L 226.631938 -188.980045 
L 224.588838 -179.116676 
L 222.545737 -169.419499 
L 220.502636 -165.476397 
L 218.459536 -158.906532 
L 216.416435 -152.764459 
L 214.373334 -139.121182 
L 212.330233 -136.932525 
L 210.287133 -137.720266 
L 208.244032 -148.396084 
L 206.200931 -147.772453 
L 204.15783 -160.700598 
L 202.11473 -187.403371 
L 200.071629 -204.699075 
L 198.028528 -222.940779 
L 195.985427 -247.74772 
L 193.942327 -281.897965 
L 191.899226 -291.054687 
L 189.856125 -300.026786 
L 187.813024 -286.137939 
L 185.769924 -276.779782 
L 183.726823 -262.962102 
L 181.683722 -258.754579 
L 179.640621 -253.534056 
L 177.597521 -249.394207 
L 175.55442 -235.639004 
L 173.511319 -227.559491 
L 171.468218 -227.505199 
L 169.425118 -230.344176 
L 167.382017 -231.753425 
L 165.338916 -231.390303 
L 163.295815 -234.113914 
L 161.252715 -243.080206 
L 159.209614 -245.187756 
L 157.166513 -246.106079 
L 155.123412 -234.719355 
L 153.080312 -230.305979 
L 151.037211 -229.255276 
L 148.99411 -232.914431 
L 146.95101 -242.796236 
L 144.907909 -243.291724 
L 142.864808 -244.056002 
L 140.821707 -249.76921 
L 138.778607 -251.143708 
L 136.735506 -246.062982 
L 134.692405 -239.912453 
L 132.649304 -234.279842 
L 130.606204 -224.803238 
L 128.563103 -216.390122 
L 126.520002 -207.515801 
L 124.476901 -196.645327 
L 122.433801 -185.727629 
L 120.3907 -177.931966 
L 118.347599 -165.57836 
L 116.304498 -160.607002 
L 114.261398 -155.192897 
L 112.218297 -151.159484 
L 110.175196 -147.312824 
L 108.132095 -150.047533 
L 106.088995 -152.682434 
L 104.045894 -156.879731 
L 102.002793 -165.756835 
L 99.959692 -180.690281 
L 97.916592 -193.940555 
L 95.873491 -215.42757 
L 93.83039 -239.494933 
L 91.787289 -271.080697 
L 89.744189 -301.106841 
L 87.701088 -345.372356 
L 85.657987 -396.202433 
L 83.614886 -425.04 
L 81.571786 -416.708511 
z
" style="stroke: #de8f05; stroke-opacity: 0.3"/>
    </defs>
    <g clip-path="url(#pb1e67d3a24)">
     <use xlink:href="#m0dd41dc568" x="0" y="504" style="fill: #de8f05; fill-opacity: 0.3; stroke: #de8f05; stroke-opacity: 0.3"/>
    </g>
   </g>
   <g id="matplotlib.axis_1">
    <g id="xtick_1">
     <g id="line2d_1">
      <defs>
       <path id="m21c7f249a0" d="M 0 0 
L 0 3.5 
" style="stroke: #000000; stroke-width: 0.8"/>
      </defs>
      <g>
       <use xlink:href="#m21c7f249a0" x="91.787289" y="448.56" style="stroke: #000000; stroke-width: 0.8"/>
      </g>
     </g>
     <g id="text_1">
      <text style="font-size: 16px; font-family: 'Arial', sans-serif; text-anchor: middle" x="91.787289" y="467.0125" transform="rotate(-0 91.787289 467.0125)">1 Jul</text>
     </g>
    </g>
    <g id="xtick_2">
     <g id="line2d_2">
      <g>
       <use xlink:href="#m21c7f249a0" x="155.123412" y="448.56" style="stroke: #000000; stroke-width: 0.8"/>
      </g>
     </g>
     <g id="text_2">
      <text style="font-size: 16px; font-family: 'Arial', sans-serif; text-anchor: middle" x="155.123412" y="467.06" transform="rotate(-0 155.123412 467.06)">1 Aug</text>
     </g>
    </g>
    <g id="xtick_3">
     <g id="line2d_3">
      <g>
       <use xlink:href="#m21c7f249a0" x="218.459536" y="448.56" style="stroke: #000000; stroke-width: 0.8"/>
      </g>
     </g>
     <g id="text_3">
      <text style="font-size: 16px; font-family: 'Arial', sans-serif; text-anchor: middle" x="218.459536" y="467.2075" transform="rotate(-0 218.459536 467.2075)">1 Sep</text>
     </g>
    </g>
    <g id="xtick_4">
     <g id="line2d_4">
      <g>
       <use xlink:href="#m21c7f249a0" x="279.752558" y="448.56" style="stroke: #000000; stroke-width: 0.8"/>
      </g>
     </g>
     <g id="text_4">
      <text style="font-size: 16px; font-family: 'Arial', sans-serif; text-anchor: middle" x="279.752558" y="467.0125" transform="rotate(-0 279.752558 467.0125)">1 Oct</text>
     </g>
    </g>
    <g id="xtick_5">
     <g id="line2d_5">
      <g>
       <use xlink:href="#m21c7f249a0" x="343.088681" y="448.56" style="stroke: #000000; stroke-width: 0.8"/>
      </g>
     </g>
     <g id="text_5">
      <text style="font-size: 16px; font-family: 'Arial', sans-serif; text-anchor: middle" x="343.088681" y="467.0125" transform="rotate(-0 343.088681 467.0125)">1 Nov</text>
     </g>
    </g>
    <g id="xtick_6">
     <g id="line2d_6">
      <g>
       <use xlink:href="#m21c7f249a0" x="404.381703" y="448.56" style="stroke: #000000; stroke-width: 0.8"/>
      </g>
     </g>
     <g id="text_6">
      <text style="font-size: 16px; font-family: 'Arial', sans-serif; text-anchor: middle" x="404.381703" y="467.0125" transform="rotate(-0 404.381703 467.0125)">1 Dec</text>
     </g>
    </g>
   </g>
   <g id="matplotlib.axis_2">
    <g id="ytick_1">
     <g id="line2d_7">
      <defs>
       <path id="mc25e1fe595" d="M 0 0 
L -3.5 0 
" style="stroke: #000000; stroke-width: 0.8"/>
      </defs>
      <g>
       <use xlink:href="#mc25e1fe595" x="63" y="448.56" style="stroke: #000000; stroke-width: 0.8"/>
      </g>
     </g>
     <g id="text_7">
      <text style="font-size: 16px; font-family: 'Arial', sans-serif; text-anchor: end" x="56" y="454.28625" transform="rotate(-0 56 454.28625)">0</text>
     </g>
    </g>
    <g id="ytick_2">
     <g id="line2d_8">
      <g>
       <use xlink:href="#mc25e1fe595" x="63" y="401.18945" style="stroke: #000000; stroke-width: 0.8"/>
      </g>
     </g>
     <g id="text_8">
      <text style="font-size: 16px; font-family: 'Arial', sans-serif; text-anchor: end" x="56" y="406.9157" transform="rotate(-0 56 406.9157)">1</text>
     </g>
    </g>
    <g id="ytick_3">
     <g id="line2d_9">
      <g>
       <use xlink:href="#mc25e1fe595" x="63" y="353.8189" style="stroke: #000000; stroke-width: 0.8"/>
      </g>
     </g>
     <g id="text_9">
      <text style="font-size: 16px; font-family: 'Arial', sans-serif; text-anchor: end" x="56" y="359.54515" transform="rotate(-0 56 359.54515)">2</text>
     </g>
    </g>
    <g id="ytick_4">
     <g id="line2d_10">
      <g>
       <use xlink:href="#mc25e1fe595" x="63" y="306.44835" style="stroke: #000000; stroke-width: 0.8"/>
      </g>
     </g>
     <g id="text_10">
      <text style="font-size: 16px; font-family: 'Arial', sans-serif; text-anchor: end" x="56" y="312.1746" transform="rotate(-0 56 312.1746)">3</text>
     </g>
    </g>
    <g id="ytick_5">
     <g id="line2d_11">
      <g>
       <use xlink:href="#mc25e1fe595" x="63" y="259.0778" style="stroke: #000000; stroke-width: 0.8"/>
      </g>
     </g>
     <g id="text_11">
      <text style="font-size: 16px; font-family: 'Arial', sans-serif; text-anchor: end" x="56" y="264.80405" transform="rotate(-0 56 264.80405)">4</text>
     </g>
    </g>
    <g id="ytick_6">
     <g id="line2d_12">
      <g>
       <use xlink:href="#mc25e1fe595" x="63" y="211.70725" style="stroke: #000000; stroke-width: 0.8"/>
      </g>
     </g>
     <g id="text_12">
      <text style="font-size: 16px; font-family: 'Arial', sans-serif; text-anchor: end" x="56" y="217.4335" transform="rotate(-0 56 217.4335)">5</text>
     </g>
    </g>
    <g id="ytick_7">
     <g id="line2d_13">
      <g>
       <use xlink:href="#mc25e1fe595" x="63" y="164.3367" style="stroke: #000000; stroke-width: 0.8"/>
      </g>
     </g>
     <g id="text_13">
      <text style="font-size: 16px; font-family: 'Arial', sans-serif; text-anchor: end" x="56" y="170.06295" transform="rotate(-0 56 170.06295)">6</text>
     </g>
    </g>
    <g id="ytick_8">
     <g id="line2d_14">
      <g>
       <use xlink:href="#mc25e1fe595" x="63" y="116.966151" style="stroke: #000000; stroke-width: 0.8"/>
      </g>
     </g>
     <g id="text_14">
      <text style="font-size: 16px; font-family: 'Arial', sans-serif; text-anchor: end" x="56" y="122.692401" transform="rotate(-0 56 122.692401)">7</text>
     </g>
    </g>
    <g id="ytick_9">
     <g id="line2d_15">
      <g>
       <use xlink:href="#mc25e1fe595" x="63" y="69.595601" style="stroke: #000000; stroke-width: 0.8"/>
      </g>
     </g>
     <g id="text_15">
      <text style="font-size: 16px; font-family: 'Arial', sans-serif; text-anchor: end" x="56" y="75.321851" transform="rotate(-0 56 75.321851)">8</text>
     </g>
    </g>
    <g id="text_16">
     <text style="font-size: 16px; font-family: 'Arial', sans-serif; text-anchor: middle" x="39.9225" y="254.52" transform="rotate(-90 39.9225 254.52)">Time-dependent reproduction number</text>
    </g>
   </g>
   <g id="line2d_16">
    <path d="M 81.571786 317.498059 
L 83.614886 312.728415 
L 85.657987 318.197254 
L 87.701088 331.893597 
L 91.787289 355.182122 
L 93.83039 364.43058 
L 95.873491 372.582329 
L 97.916592 379.630375 
L 99.959692 384.712238 
L 102.002793 390.467874 
L 104.045894 394.484865 
L 106.088995 396.847544 
L 108.132095 398.234549 
L 110.175196 398.3982 
L 112.218297 397.399044 
L 114.261398 395.605951 
L 116.304498 392.954139 
L 118.347599 389.451936 
L 120.3907 384.482019 
L 122.433801 380.811028 
L 124.476901 375.665097 
L 126.520002 369.908113 
L 128.563103 365.433891 
L 130.606204 359.619686 
L 132.649304 356.160222 
L 134.692405 351.700514 
L 136.735506 349.753627 
L 138.778607 346.615997 
L 140.821707 346.037335 
L 142.864808 346.871895 
L 144.907909 346.342542 
L 146.95101 347.622825 
L 148.99411 349.520507 
L 151.037211 348.406242 
L 153.080312 348.801082 
L 155.123412 345.78682 
L 157.166513 338.642515 
L 159.209614 337.683616 
L 161.252715 340.271993 
L 163.295815 341.975546 
L 165.338916 341.781199 
L 167.382017 341.23771 
L 169.425118 339.329999 
L 171.468218 342.444073 
L 173.511319 339.842068 
L 175.55442 333.87694 
L 177.597521 323.021581 
L 183.726823 310.545371 
L 185.769924 299.721246 
L 187.813024 289.743092 
L 189.856125 278.483948 
L 191.899226 285.834841 
L 193.942327 293.872415 
L 195.985427 314.697787 
L 198.028528 332.948712 
L 200.071629 346.219176 
L 202.11473 358.729875 
L 204.15783 375.704557 
L 206.200931 383.98124 
L 208.244032 384.35116 
L 210.287133 390.839139 
L 212.330233 391.634401 
L 214.373334 389.652946 
L 216.416435 379.597649 
L 218.459536 374.109905 
L 222.545737 365.229034 
L 226.631938 349.681641 
L 228.675039 349.858875 
L 230.71814 359.177911 
L 232.761241 362.676403 
L 234.804341 375.206108 
L 236.847442 371.467828 
L 238.890543 382.955495 
L 240.933644 397.919232 
L 242.976744 407.016593 
L 245.019845 411.923999 
L 247.062946 411.810357 
L 251.149147 406.228751 
L 253.192248 411.160355 
L 255.235349 414.907855 
L 257.27845 420.097714 
L 261.364651 427.596155 
L 263.407752 430.517253 
L 265.450853 432.629345 
L 267.493953 434.280106 
L 269.537054 434.792277 
L 273.623256 434.774082 
L 275.666356 435.39533 
L 277.709457 435.536075 
L 279.752558 436.410769 
L 281.795659 437.463096 
L 283.838759 437.950475 
L 287.924961 437.804646 
L 289.968062 438.231456 
L 292.011162 438.780138 
L 294.054263 438.95727 
L 296.097364 439.286949 
L 298.140464 439.331842 
L 300.183565 439.592048 
L 302.226666 439.662976 
L 304.269767 439.522973 
L 306.312867 439.066917 
L 308.355968 439.021267 
L 312.44217 439.409947 
L 316.528371 439.226751 
L 318.571472 439.563042 
L 320.614573 439.731235 
L 324.700774 439.817792 
L 326.743875 439.72346 
L 330.830076 439.288103 
L 336.959379 438.060606 
L 343.088681 438.41065 
L 351.261084 438.414754 
L 355.347285 439.573238 
L 365.562789 441.718516 
L 369.64899 442.284058 
L 373.735192 442.740731 
L 383.950696 443.703588 
L 420.726509 445.379305 
L 435.028214 445.782084 
L 435.028214 445.782084 
" clip-path="url(#pb1e67d3a24)" style="fill: none; stroke: #0173b2; stroke-width: 2; stroke-linecap: square"/>
   </g>
   <g id="line2d_17">
    <path d="M 81.571786 307.865943 
L 83.614886 306.000948 
L 85.657987 313.370311 
L 87.701088 329.237094 
L 89.744189 342.668522 
L 91.787289 354.58376 
L 93.83039 364.817678 
L 95.873491 373.514449 
L 97.916592 380.537978 
L 102.002793 391.609121 
L 104.045894 395.266642 
L 106.088995 397.787417 
L 108.132095 398.847902 
L 110.175196 399.12748 
L 112.218297 398.317081 
L 114.261398 396.622143 
L 116.304498 393.858557 
L 118.347599 390.090774 
L 120.3907 385.134663 
L 122.433801 381.171772 
L 124.476901 376.093855 
L 126.520002 369.611217 
L 128.563103 364.983858 
L 130.606204 359.133979 
L 132.649304 355.523902 
L 134.692405 351.024432 
L 136.735506 348.450956 
L 138.778607 345.102443 
L 140.821707 344.210975 
L 142.864808 345.529029 
L 144.907909 344.911003 
L 146.95101 345.672098 
L 148.99411 348.042817 
L 151.037211 346.977442 
L 153.080312 347.500579 
L 155.123412 343.853198 
L 157.166513 336.644365 
L 159.209614 336.723587 
L 161.252715 338.999058 
L 163.295815 341.080992 
L 165.338916 341.604996 
L 167.382017 340.860487 
L 169.425118 338.937349 
L 171.468218 341.876763 
L 173.511319 338.981505 
L 175.55442 333.358074 
L 177.597521 323.167246 
L 183.726823 310.928936 
L 185.769924 300.298053 
L 187.813024 290.626266 
L 189.856125 279.812581 
L 193.942327 293.774817 
L 195.985427 315.415319 
L 198.028528 333.285272 
L 202.11473 358.787 
L 204.15783 375.844858 
L 206.200931 384.353627 
L 208.244032 384.739342 
L 210.287133 391.217333 
L 212.330233 391.781523 
L 214.373334 390.211859 
L 216.416435 380.407784 
L 218.459536 375.008508 
L 222.545737 366.341275 
L 226.631938 350.714892 
L 228.675039 350.860184 
L 230.71814 360.008889 
L 232.761241 363.369154 
L 234.804341 375.500066 
L 236.847442 372.182682 
L 238.890543 383.906395 
L 240.933644 398.33352 
L 242.976744 407.10156 
L 245.019845 412.040577 
L 247.062946 412.102171 
L 251.149147 406.734843 
L 253.192248 411.467132 
L 255.235349 415.109914 
L 257.27845 420.230088 
L 261.364651 427.59187 
L 263.407752 430.357838 
L 265.450853 432.402273 
L 267.493953 433.909513 
L 269.537054 434.31981 
L 273.623256 434.101573 
L 275.666356 434.489784 
L 277.709457 434.397854 
L 279.752558 434.958486 
L 281.795659 435.671428 
L 283.838759 435.878304 
L 287.924961 435.220353 
L 289.968062 435.341758 
L 292.011162 435.611984 
L 294.054263 435.568921 
L 296.097364 435.638995 
L 298.140464 435.418547 
L 300.183565 435.464851 
L 302.226666 435.292941 
L 304.269767 434.91588 
L 306.312867 434.367099 
L 308.355968 434.13222 
L 312.44217 433.976636 
L 316.528371 433.308088 
L 320.614573 433.227182 
L 326.743875 432.164256 
L 328.786976 431.682227 
L 332.873177 430.328681 
L 334.916278 429.596679 
L 336.959379 428.630341 
L 339.002479 428.365974 
L 343.088681 427.349976 
L 347.174882 426.494371 
L 351.261084 425.12573 
L 353.304185 425.092808 
L 357.390386 425.302295 
L 361.476588 425.325938 
L 369.64899 424.659343 
L 375.778293 423.74853 
L 377.821393 423.308365 
L 381.907595 422.127775 
L 388.036897 420.056731 
L 398.252401 416.788486 
L 410.511005 412.514769 
L 416.640308 410.318296 
L 420.726509 409.187362 
L 422.76961 408.946926 
L 424.812711 408.067069 
L 432.985114 406.189383 
L 435.028214 405.189103 
L 435.028214 405.189103 
" clip-path="url(#pb1e67d3a24)" style="fill: none; stroke: #de8f05; stroke-width: 2; stroke-linecap: square"/>
   </g>
   <g id="patch_3">
    <path d="M 63 448.56 
L 63 60.48 
" style="fill: none; stroke: #000000; stroke-width: 0.8; stroke-linejoin: miter; stroke-linecap: square"/>
   </g>
   <g id="patch_4">
    <path d="M 63 448.56 
L 453.6 448.56 
" style="fill: none; stroke: #000000; stroke-width: 0.8; stroke-linejoin: miter; stroke-linecap: square"/>
   </g>
   <g id="legend_1">
    <g id="patch_5">
     <path d="M 296.281563 111.785625 
L 443.8 111.785625 
Q 446.6 111.785625 446.6 108.985625 
L 446.6 70.28 
Q 446.6 67.48 443.8 67.48 
L 296.281563 67.48 
Q 293.481562 67.48 293.481562 70.28 
L 293.481562 108.985625 
Q 293.481562 111.785625 296.281563 111.785625 
z
" style="fill: #ffffff; opacity: 0.8; stroke: #cccccc; stroke-linejoin: miter"/>
    </g>
    <g id="line2d_18">
     <path d="M 299.081563 78.371563 
L 313.081563 78.371563 
L 327.081563 78.371563 
" style="fill: none; stroke: #0173b2; stroke-width: 2; stroke-linecap: square"/>
    </g>
    <g id="text_17">
     <text style="font-size: 14px; font-family: 'Arial', sans-serif; text-anchor: start" x="338.281563" y="83.271563" transform="rotate(-0 338.281563 83.271563)">Suitability-based</text>
    </g>
    <g id="line2d_19">
     <path d="M 299.081563 98.339063 
L 313.081563 98.339063 
L 327.081563 98.339063 
" style="fill: none; stroke: #de8f05; stroke-width: 2; stroke-linecap: square"/>
    </g>
    <g id="text_18">
     <text style="font-size: 14px; font-family: 'Arial', sans-serif; text-anchor: start" x="338.281563" y="103.239063" transform="rotate(-0 338.281563 103.239063)">Autoregressive</text>
    </g>
   </g>
  </g>
  <g id="axes_2">
   <g id="patch_6">
    <path d="M 80.754545 448.56 
L 82.389026 448.56 
L 82.389026 396.816 
L 80.754545 396.816 
z
" clip-path="url(#pb1e67d3a24)" style="fill: #7f7f7f; opacity: 0.5"/>
   </g>
   <g id="patch_7">
    <path d="M 82.797646 448.56 
L 84.432127 448.56 
L 84.432127 396.816 
L 82.797646 396.816 
z
" clip-path="url(#pb1e67d3a24)" style="fill: #7f7f7f; opacity: 0.5"/>
   </g>
   <g id="patch_8">
    <path d="M 84.840747 448.56 
L 86.475228 448.56 
L 86.475228 396.816 
L 84.840747 396.816 
z
" clip-path="url(#pb1e67d3a24)" style="fill: #7f7f7f; opacity: 0.5"/>
   </g>
   <g id="patch_9">
    <path d="M 86.883848 448.56 
L 88.518328 448.56 
L 88.518328 448.56 
L 86.883848 448.56 
z
" clip-path="url(#pb1e67d3a24)" style="fill: #7f7f7f; opacity: 0.5"/>
   </g>
   <g id="patch_10">
    <path d="M 88.926948 448.56 
L 90.561429 448.56 
L 90.561429 448.56 
L 88.926948 448.56 
z
" clip-path="url(#pb1e67d3a24)" style="fill: #7f7f7f; opacity: 0.5"/>
   </g>
   <g id="patch_11">
    <path d="M 90.970049 448.56 
L 92.60453 448.56 
L 92.60453 448.56 
L 90.970049 448.56 
z
" clip-path="url(#pb1e67d3a24)" style="fill: #7f7f7f; opacity: 0.5"/>
   </g>
   <g id="patch_12">
    <path d="M 93.01315 448.56 
L 94.647631 448.56 
L 94.647631 448.56 
L 93.01315 448.56 
z
" clip-path="url(#pb1e67d3a24)" style="fill: #7f7f7f; opacity: 0.5"/>
   </g>
   <g id="patch_13">
    <path d="M 95.056251 448.56 
L 96.690731 448.56 
L 96.690731 448.56 
L 95.056251 448.56 
z
" clip-path="url(#pb1e67d3a24)" style="fill: #7f7f7f; opacity: 0.5"/>
   </g>
   <g id="patch_14">
    <path d="M 97.099351 448.56 
L 98.733832 448.56 
L 98.733832 448.56 
L 97.099351 448.56 
z
" clip-path="url(#pb1e67d3a24)" style="fill: #7f7f7f; opacity: 0.5"/>
   </g>
   <g id="patch_15">
    <path d="M 99.142452 448.56 
L 100.776933 448.56 
L 100.776933 422.688 
L 99.142452 422.688 
z
" clip-path="url(#pb1e67d3a24)" style="fill: #7f7f7f; opacity: 0.5"/>
   </g>
   <g id="patch_16">
    <path d="M 101.185553 448.56 
L 102.820033 448.56 
L 102.820033 448.56 
L 101.185553 448.56 
z
" clip-path="url(#pb1e67d3a24)" style="fill: #7f7f7f; opacity: 0.5"/>
   </g>
   <g id="patch_17">
    <path d="M 103.228654 448.56 
L 104.863134 448.56 
L 104.863134 448.56 
L 103.228654 448.56 
z
" clip-path="url(#pb1e67d3a24)" style="fill: #7f7f7f; opacity: 0.5"/>
   </g>
   <g id="patch_18">
    <path d="M 105.271754 448.56 
L 106.906235 448.56 
L 106.906235 448.56 
L 105.271754 448.56 
z
" clip-path="url(#pb1e67d3a24)" style="fill: #7f7f7f; opacity: 0.5"/>
   </g>
   <g id="patch_19">
    <path d="M 107.314855 448.56 
L 108.949336 448.56 
L 108.949336 448.56 
L 107.314855 448.56 
z
" clip-path="url(#pb1e67d3a24)" style="fill: #7f7f7f; opacity: 0.5"/>
   </g>
   <g id="patch_20">
    <path d="M 109.357956 448.56 
L 110.992436 448.56 
L 110.992436 448.56 
L 109.357956 448.56 
z
" clip-path="url(#pb1e67d3a24)" style="fill: #7f7f7f; opacity: 0.5"/>
   </g>
   <g id="patch_21">
    <path d="M 111.401057 448.56 
L 113.035537 448.56 
L 113.035537 448.56 
L 111.401057 448.56 
z
" clip-path="url(#pb1e67d3a24)" style="fill: #7f7f7f; opacity: 0.5"/>
   </g>
   <g id="patch_22">
    <path d="M 113.444157 448.56 
L 115.078638 448.56 
L 115.078638 448.56 
L 113.444157 448.56 
z
" clip-path="url(#pb1e67d3a24)" style="fill: #7f7f7f; opacity: 0.5"/>
   </g>
   <g id="patch_23">
    <path d="M 115.487258 448.56 
L 117.121739 448.56 
L 117.121739 448.56 
L 115.487258 448.56 
z
" clip-path="url(#pb1e67d3a24)" style="fill: #7f7f7f; opacity: 0.5"/>
   </g>
   <g id="patch_24">
    <path d="M 117.530359 448.56 
L 119.164839 448.56 
L 119.164839 448.56 
L 117.530359 448.56 
z
" clip-path="url(#pb1e67d3a24)" style="fill: #7f7f7f; opacity: 0.5"/>
   </g>
   <g id="patch_25">
    <path d="M 119.57346 448.56 
L 121.20794 448.56 
L 121.20794 422.688 
L 119.57346 422.688 
z
" clip-path="url(#pb1e67d3a24)" style="fill: #7f7f7f; opacity: 0.5"/>
   </g>
   <g id="patch_26">
    <path d="M 121.61656 448.56 
L 123.251041 448.56 
L 123.251041 448.56 
L 121.61656 448.56 
z
" clip-path="url(#pb1e67d3a24)" style="fill: #7f7f7f; opacity: 0.5"/>
   </g>
   <g id="patch_27">
    <path d="M 123.659661 448.56 
L 125.294142 448.56 
L 125.294142 448.56 
L 123.659661 448.56 
z
" clip-path="url(#pb1e67d3a24)" style="fill: #7f7f7f; opacity: 0.5"/>
   </g>
   <g id="patch_28">
    <path d="M 125.702762 448.56 
L 127.337242 448.56 
L 127.337242 422.688 
L 125.702762 422.688 
z
" clip-path="url(#pb1e67d3a24)" style="fill: #7f7f7f; opacity: 0.5"/>
   </g>
   <g id="patch_29">
    <path d="M 127.745863 448.56 
L 129.380343 448.56 
L 129.380343 448.56 
L 127.745863 448.56 
z
" clip-path="url(#pb1e67d3a24)" style="fill: #7f7f7f; opacity: 0.5"/>
   </g>
   <g id="patch_30">
    <path d="M 129.788963 448.56 
L 131.423444 448.56 
L 131.423444 422.688 
L 129.788963 422.688 
z
" clip-path="url(#pb1e67d3a24)" style="fill: #7f7f7f; opacity: 0.5"/>
   </g>
   <g id="patch_31">
    <path d="M 131.832064 448.56 
L 133.466545 448.56 
L 133.466545 448.56 
L 131.832064 448.56 
z
" clip-path="url(#pb1e67d3a24)" style="fill: #7f7f7f; opacity: 0.5"/>
   </g>
   <g id="patch_32">
    <path d="M 133.875165 448.56 
L 135.509645 448.56 
L 135.509645 422.688 
L 133.875165 422.688 
z
" clip-path="url(#pb1e67d3a24)" style="fill: #7f7f7f; opacity: 0.5"/>
   </g>
   <g id="patch_33">
    <path d="M 135.918266 448.56 
L 137.552746 448.56 
L 137.552746 448.56 
L 135.918266 448.56 
z
" clip-path="url(#pb1e67d3a24)" style="fill: #7f7f7f; opacity: 0.5"/>
   </g>
   <g id="patch_34">
    <path d="M 137.961366 448.56 
L 139.595847 448.56 
L 139.595847 422.688 
L 137.961366 422.688 
z
" clip-path="url(#pb1e67d3a24)" style="fill: #7f7f7f; opacity: 0.5"/>
   </g>
   <g id="patch_35">
    <path d="M 140.004467 448.56 
L 141.638948 448.56 
L 141.638948 422.688 
L 140.004467 422.688 
z
" clip-path="url(#pb1e67d3a24)" style="fill: #7f7f7f; opacity: 0.5"/>
   </g>
   <g id="patch_36">
    <path d="M 142.047568 448.56 
L 143.682048 448.56 
L 143.682048 448.56 
L 142.047568 448.56 
z
" clip-path="url(#pb1e67d3a24)" style="fill: #7f7f7f; opacity: 0.5"/>
   </g>
   <g id="patch_37">
    <path d="M 144.090668 448.56 
L 145.725149 448.56 
L 145.725149 422.688 
L 144.090668 422.688 
z
" clip-path="url(#pb1e67d3a24)" style="fill: #7f7f7f; opacity: 0.5"/>
   </g>
   <g id="patch_38">
    <path d="M 146.133769 448.56 
L 147.76825 448.56 
L 147.76825 422.688 
L 146.133769 422.688 
z
" clip-path="url(#pb1e67d3a24)" style="fill: #7f7f7f; opacity: 0.5"/>
   </g>
   <g id="patch_39">
    <path d="M 148.17687 448.56 
L 149.811351 448.56 
L 149.811351 448.56 
L 148.17687 448.56 
z
" clip-path="url(#pb1e67d3a24)" style="fill: #7f7f7f; opacity: 0.5"/>
   </g>
   <g id="patch_40">
    <path d="M 150.219971 448.56 
L 151.854451 448.56 
L 151.854451 422.688 
L 150.219971 422.688 
z
" clip-path="url(#pb1e67d3a24)" style="fill: #7f7f7f; opacity: 0.5"/>
   </g>
   <g id="patch_41">
    <path d="M 152.263071 448.56 
L 153.897552 448.56 
L 153.897552 448.56 
L 152.263071 448.56 
z
" clip-path="url(#pb1e67d3a24)" style="fill: #7f7f7f; opacity: 0.5"/>
   </g>
   <g id="patch_42">
    <path d="M 154.306172 448.56 
L 155.940653 448.56 
L 155.940653 448.56 
L 154.306172 448.56 
z
" clip-path="url(#pb1e67d3a24)" style="fill: #7f7f7f; opacity: 0.5"/>
   </g>
   <g id="patch_43">
    <path d="M 156.349273 448.56 
L 157.983754 448.56 
L 157.983754 370.944 
L 156.349273 370.944 
z
" clip-path="url(#pb1e67d3a24)" style="fill: #7f7f7f; opacity: 0.5"/>
   </g>
   <g id="patch_44">
    <path d="M 158.392374 448.56 
L 160.026854 448.56 
L 160.026854 396.816 
L 158.392374 396.816 
z
" clip-path="url(#pb1e67d3a24)" style="fill: #7f7f7f; opacity: 0.5"/>
   </g>
   <g id="patch_45">
    <path d="M 160.435474 448.56 
L 162.069955 448.56 
L 162.069955 422.688 
L 160.435474 422.688 
z
" clip-path="url(#pb1e67d3a24)" style="fill: #7f7f7f; opacity: 0.5"/>
   </g>
   <g id="patch_46">
    <path d="M 162.478575 448.56 
L 164.113056 448.56 
L 164.113056 422.688 
L 162.478575 422.688 
z
" clip-path="url(#pb1e67d3a24)" style="fill: #7f7f7f; opacity: 0.5"/>
   </g>
   <g id="patch_47">
    <path d="M 164.521676 448.56 
L 166.156157 448.56 
L 166.156157 422.688 
L 164.521676 422.688 
z
" clip-path="url(#pb1e67d3a24)" style="fill: #7f7f7f; opacity: 0.5"/>
   </g>
   <g id="patch_48">
    <path d="M 166.564777 448.56 
L 168.199257 448.56 
L 168.199257 422.688 
L 166.564777 422.688 
z
" clip-path="url(#pb1e67d3a24)" style="fill: #7f7f7f; opacity: 0.5"/>
   </g>
   <g id="patch_49">
    <path d="M 168.607877 448.56 
L 170.242358 448.56 
L 170.242358 370.944 
L 168.607877 370.944 
z
" clip-path="url(#pb1e67d3a24)" style="fill: #7f7f7f; opacity: 0.5"/>
   </g>
   <g id="patch_50">
    <path d="M 170.650978 448.56 
L 172.285459 448.56 
L 172.285459 448.56 
L 170.650978 448.56 
z
" clip-path="url(#pb1e67d3a24)" style="fill: #7f7f7f; opacity: 0.5"/>
   </g>
   <g id="patch_51">
    <path d="M 172.694079 448.56 
L 174.328559 448.56 
L 174.328559 422.688 
L 172.694079 422.688 
z
" clip-path="url(#pb1e67d3a24)" style="fill: #7f7f7f; opacity: 0.5"/>
   </g>
   <g id="patch_52">
    <path d="M 174.73718 448.56 
L 176.37166 448.56 
L 176.37166 422.688 
L 174.73718 422.688 
z
" clip-path="url(#pb1e67d3a24)" style="fill: #7f7f7f; opacity: 0.5"/>
   </g>
   <g id="patch_53">
    <path d="M 176.78028 448.56 
L 178.414761 448.56 
L 178.414761 345.072 
L 176.78028 345.072 
z
" clip-path="url(#pb1e67d3a24)" style="fill: #7f7f7f; opacity: 0.5"/>
   </g>
   <g id="patch_54">
    <path d="M 178.823381 448.56 
L 180.457862 448.56 
L 180.457862 370.944 
L 178.823381 370.944 
z
" clip-path="url(#pb1e67d3a24)" style="fill: #7f7f7f; opacity: 0.5"/>
   </g>
   <g id="patch_55">
    <path d="M 180.866482 448.56 
L 182.500962 448.56 
L 182.500962 370.944 
L 180.866482 370.944 
z
" clip-path="url(#pb1e67d3a24)" style="fill: #7f7f7f; opacity: 0.5"/>
   </g>
   <g id="patch_56">
    <path d="M 182.909583 448.56 
L 184.544063 448.56 
L 184.544063 396.816 
L 182.909583 396.816 
z
" clip-path="url(#pb1e67d3a24)" style="fill: #7f7f7f; opacity: 0.5"/>
   </g>
   <g id="patch_57">
    <path d="M 184.952683 448.56 
L 186.587164 448.56 
L 186.587164 345.072 
L 184.952683 345.072 
z
" clip-path="url(#pb1e67d3a24)" style="fill: #7f7f7f; opacity: 0.5"/>
   </g>
   <g id="patch_58">
    <path d="M 186.995784 448.56 
L 188.630265 448.56 
L 188.630265 345.072 
L 186.995784 345.072 
z
" clip-path="url(#pb1e67d3a24)" style="fill: #7f7f7f; opacity: 0.5"/>
   </g>
   <g id="patch_59">
    <path d="M 189.038885 448.56 
L 190.673365 448.56 
L 190.673365 241.584 
L 189.038885 241.584 
z
" clip-path="url(#pb1e67d3a24)" style="fill: #7f7f7f; opacity: 0.5"/>
   </g>
   <g id="patch_60">
    <path d="M 191.081986 448.56 
L 192.716466 448.56 
L 192.716466 319.2 
L 191.081986 319.2 
z
" clip-path="url(#pb1e67d3a24)" style="fill: #7f7f7f; opacity: 0.5"/>
   </g>
   <g id="patch_61">
    <path d="M 193.125086 448.56 
L 194.759567 448.56 
L 194.759567 241.584 
L 193.125086 241.584 
z
" clip-path="url(#pb1e67d3a24)" style="fill: #7f7f7f; opacity: 0.5"/>
   </g>
   <g id="patch_62">
    <path d="M 195.168187 448.56 
L 196.802668 448.56 
L 196.802668 319.2 
L 195.168187 319.2 
z
" clip-path="url(#pb1e67d3a24)" style="fill: #7f7f7f; opacity: 0.5"/>
   </g>
   <g id="patch_63">
    <path d="M 197.211288 448.56 
L 198.845768 448.56 
L 198.845768 345.072 
L 197.211288 345.072 
z
" clip-path="url(#pb1e67d3a24)" style="fill: #7f7f7f; opacity: 0.5"/>
   </g>
   <g id="patch_64">
    <path d="M 199.254389 448.56 
L 200.888869 448.56 
L 200.888869 319.2 
L 199.254389 319.2 
z
" clip-path="url(#pb1e67d3a24)" style="fill: #7f7f7f; opacity: 0.5"/>
   </g>
   <g id="patch_65">
    <path d="M 201.297489 448.56 
L 202.93197 448.56 
L 202.93197 267.456 
L 201.297489 267.456 
z
" clip-path="url(#pb1e67d3a24)" style="fill: #7f7f7f; opacity: 0.5"/>
   </g>
   <g id="patch_66">
    <path d="M 203.34059 448.56 
L 204.975071 448.56 
L 204.975071 396.816 
L 203.34059 396.816 
z
" clip-path="url(#pb1e67d3a24)" style="fill: #7f7f7f; opacity: 0.5"/>
   </g>
   <g id="patch_67">
    <path d="M 205.383691 448.56 
L 207.018171 448.56 
L 207.018171 422.688 
L 205.383691 422.688 
z
" clip-path="url(#pb1e67d3a24)" style="fill: #7f7f7f; opacity: 0.5"/>
   </g>
   <g id="patch_68">
    <path d="M 207.426792 448.56 
L 209.061272 448.56 
L 209.061272 241.584 
L 207.426792 241.584 
z
" clip-path="url(#pb1e67d3a24)" style="fill: #7f7f7f; opacity: 0.5"/>
   </g>
   <g id="patch_69">
    <path d="M 209.469892 448.56 
L 211.104373 448.56 
L 211.104373 396.816 
L 209.469892 396.816 
z
" clip-path="url(#pb1e67d3a24)" style="fill: #7f7f7f; opacity: 0.5"/>
   </g>
   <g id="patch_70">
    <path d="M 211.512993 448.56 
L 213.147474 448.56 
L 213.147474 345.072 
L 211.512993 345.072 
z
" clip-path="url(#pb1e67d3a24)" style="fill: #7f7f7f; opacity: 0.5"/>
   </g>
   <g id="patch_71">
    <path d="M 213.556094 448.56 
L 215.190574 448.56 
L 215.190574 396.816 
L 213.556094 396.816 
z
" clip-path="url(#pb1e67d3a24)" style="fill: #7f7f7f; opacity: 0.5"/>
   </g>
   <g id="patch_72">
    <path d="M 215.599194 448.56 
L 217.233675 448.56 
L 217.233675 215.712 
L 215.599194 215.712 
z
" clip-path="url(#pb1e67d3a24)" style="fill: #7f7f7f; opacity: 0.5"/>
   </g>
   <g id="patch_73">
    <path d="M 217.642295 448.56 
L 219.276776 448.56 
L 219.276776 241.584 
L 217.642295 241.584 
z
" clip-path="url(#pb1e67d3a24)" style="fill: #7f7f7f; opacity: 0.5"/>
   </g>
   <g id="patch_74">
    <path d="M 219.685396 448.56 
L 221.319877 448.56 
L 221.319877 241.584 
L 219.685396 241.584 
z
" clip-path="url(#pb1e67d3a24)" style="fill: #7f7f7f; opacity: 0.5"/>
   </g>
   <g id="patch_75">
    <path d="M 221.728497 448.56 
L 223.362977 448.56 
L 223.362977 267.456 
L 221.728497 267.456 
z
" clip-path="url(#pb1e67d3a24)" style="fill: #7f7f7f; opacity: 0.5"/>
   </g>
   <g id="patch_76">
    <path d="M 223.771597 448.56 
L 225.406078 448.56 
L 225.406078 215.712 
L 223.771597 215.712 
z
" clip-path="url(#pb1e67d3a24)" style="fill: #7f7f7f; opacity: 0.5"/>
   </g>
   <g id="patch_77">
    <path d="M 225.814698 448.56 
L 227.449179 448.56 
L 227.449179 138.096 
L 225.814698 138.096 
z
" clip-path="url(#pb1e67d3a24)" style="fill: #7f7f7f; opacity: 0.5"/>
   </g>
   <g id="patch_78">
    <path d="M 227.857799 448.56 
L 229.49228 448.56 
L 229.49228 138.096 
L 227.857799 138.096 
z
" clip-path="url(#pb1e67d3a24)" style="fill: #7f7f7f; opacity: 0.5"/>
   </g>
   <g id="patch_79">
    <path d="M 229.9009 448.56 
L 231.53538 448.56 
L 231.53538 267.456 
L 229.9009 267.456 
z
" clip-path="url(#pb1e67d3a24)" style="fill: #7f7f7f; opacity: 0.5"/>
   </g>
   <g id="patch_80">
    <path d="M 231.944 448.56 
L 233.578481 448.56 
L 233.578481 138.096 
L 231.944 138.096 
z
" clip-path="url(#pb1e67d3a24)" style="fill: #7f7f7f; opacity: 0.5"/>
   </g>
   <g id="patch_81">
    <path d="M 233.987101 448.56 
L 235.621582 448.56 
L 235.621582 396.816 
L 233.987101 396.816 
z
" clip-path="url(#pb1e67d3a24)" style="fill: #7f7f7f; opacity: 0.5"/>
   </g>
   <g id="patch_82">
    <path d="M 236.030202 448.56 
L 237.664682 448.56 
L 237.664682 60.48 
L 236.030202 60.48 
z
" clip-path="url(#pb1e67d3a24)" style="fill: #7f7f7f; opacity: 0.5"/>
   </g>
   <g id="patch_83">
    <path d="M 238.073303 448.56 
L 239.707783 448.56 
L 239.707783 163.968 
L 238.073303 163.968 
z
" clip-path="url(#pb1e67d3a24)" style="fill: #7f7f7f; opacity: 0.5"/>
   </g>
   <g id="patch_84">
    <path d="M 240.116403 448.56 
L 241.750884 448.56 
L 241.750884 319.2 
L 240.116403 319.2 
z
" clip-path="url(#pb1e67d3a24)" style="fill: #7f7f7f; opacity: 0.5"/>
   </g>
   <g id="patch_85">
    <path d="M 242.159504 448.56 
L 243.793985 448.56 
L 243.793985 345.072 
L 242.159504 345.072 
z
" clip-path="url(#pb1e67d3a24)" style="fill: #7f7f7f; opacity: 0.5"/>
   </g>
   <g id="patch_86">
    <path d="M 244.202605 448.56 
L 245.837085 448.56 
L 245.837085 396.816 
L 244.202605 396.816 
z
" clip-path="url(#pb1e67d3a24)" style="fill: #7f7f7f; opacity: 0.5"/>
   </g>
   <g id="patch_87">
    <path d="M 246.245706 448.56 
L 247.880186 448.56 
L 247.880186 345.072 
L 246.245706 345.072 
z
" clip-path="url(#pb1e67d3a24)" style="fill: #7f7f7f; opacity: 0.5"/>
   </g>
   <g id="patch_88">
    <path d="M 248.288806 448.56 
L 249.923287 448.56 
L 249.923287 267.456 
L 248.288806 267.456 
z
" clip-path="url(#pb1e67d3a24)" style="fill: #7f7f7f; opacity: 0.5"/>
   </g>
   <g id="patch_89">
    <path d="M 250.331907 448.56 
L 251.966388 448.56 
L 251.966388 112.224 
L 250.331907 112.224 
z
" clip-path="url(#pb1e67d3a24)" style="fill: #7f7f7f; opacity: 0.5"/>
   </g>
   <g id="patch_90">
    <path d="M 252.375008 448.56 
L 254.009488 448.56 
L 254.009488 293.328 
L 252.375008 293.328 
z
" clip-path="url(#pb1e67d3a24)" style="fill: #7f7f7f; opacity: 0.5"/>
   </g>
   <g id="patch_91">
    <path d="M 254.418109 448.56 
L 256.052589 448.56 
L 256.052589 241.584 
L 254.418109 241.584 
z
" clip-path="url(#pb1e67d3a24)" style="fill: #7f7f7f; opacity: 0.5"/>
   </g>
   <g id="patch_92">
    <path d="M 256.461209 448.56 
L 258.09569 448.56 
L 258.09569 345.072 
L 256.461209 345.072 
z
" clip-path="url(#pb1e67d3a24)" style="fill: #7f7f7f; opacity: 0.5"/>
   </g>
   <g id="patch_93">
    <path d="M 258.50431 448.56 
L 260.138791 448.56 
L 260.138791 319.2 
L 258.50431 319.2 
z
" clip-path="url(#pb1e67d3a24)" style="fill: #7f7f7f; opacity: 0.5"/>
   </g>
   <g id="patch_94">
    <path d="M 260.547411 448.56 
L 262.181891 448.56 
L 262.181891 370.944 
L 260.547411 370.944 
z
" clip-path="url(#pb1e67d3a24)" style="fill: #7f7f7f; opacity: 0.5"/>
   </g>
   <g id="patch_95">
    <path d="M 262.590512 448.56 
L 264.224992 448.56 
L 264.224992 396.816 
L 262.590512 396.816 
z
" clip-path="url(#pb1e67d3a24)" style="fill: #7f7f7f; opacity: 0.5"/>
   </g>
   <g id="patch_96">
    <path d="M 264.633612 448.56 
L 266.268093 448.56 
L 266.268093 396.816 
L 264.633612 396.816 
z
" clip-path="url(#pb1e67d3a24)" style="fill: #7f7f7f; opacity: 0.5"/>
   </g>
   <g id="patch_97">
    <path d="M 266.676713 448.56 
L 268.311194 448.56 
L 268.311194 448.56 
L 266.676713 448.56 
z
" clip-path="url(#pb1e67d3a24)" style="fill: #7f7f7f; opacity: 0.5"/>
   </g>
   <g id="patch_98">
    <path d="M 268.719814 448.56 
L 270.354294 448.56 
L 270.354294 422.688 
L 268.719814 422.688 
z
" clip-path="url(#pb1e67d3a24)" style="fill: #7f7f7f; opacity: 0.5"/>
   </g>
   <g id="patch_99">
    <path d="M 270.762915 448.56 
L 272.397395 448.56 
L 272.397395 396.816 
L 270.762915 396.816 
z
" clip-path="url(#pb1e67d3a24)" style="fill: #7f7f7f; opacity: 0.5"/>
   </g>
   <g id="patch_100">
    <path d="M 272.806015 448.56 
L 274.440496 448.56 
L 274.440496 370.944 
L 272.806015 370.944 
z
" clip-path="url(#pb1e67d3a24)" style="fill: #7f7f7f; opacity: 0.5"/>
   </g>
   <g id="patch_101">
    <path d="M 274.849116 448.56 
L 276.483597 448.56 
L 276.483597 422.688 
L 274.849116 422.688 
z
" clip-path="url(#pb1e67d3a24)" style="fill: #7f7f7f; opacity: 0.5"/>
   </g>
   <g id="patch_102">
    <path d="M 276.892217 448.56 
L 278.526697 448.56 
L 278.526697 370.944 
L 276.892217 370.944 
z
" clip-path="url(#pb1e67d3a24)" style="fill: #7f7f7f; opacity: 0.5"/>
   </g>
   <g id="patch_103">
    <path d="M 278.935318 448.56 
L 280.569798 448.56 
L 280.569798 396.816 
L 278.935318 396.816 
z
" clip-path="url(#pb1e67d3a24)" style="fill: #7f7f7f; opacity: 0.5"/>
   </g>
   <g id="patch_104">
    <path d="M 280.978418 448.56 
L 282.612899 448.56 
L 282.612899 448.56 
L 280.978418 448.56 
z
" clip-path="url(#pb1e67d3a24)" style="fill: #7f7f7f; opacity: 0.5"/>
   </g>
   <g id="patch_105">
    <path d="M 283.021519 448.56 
L 284.656 448.56 
L 284.656 448.56 
L 283.021519 448.56 
z
" clip-path="url(#pb1e67d3a24)" style="fill: #7f7f7f; opacity: 0.5"/>
   </g>
   <g id="patch_106">
    <path d="M 285.06462 448.56 
L 286.6991 448.56 
L 286.6991 422.688 
L 285.06462 422.688 
z
" clip-path="url(#pb1e67d3a24)" style="fill: #7f7f7f; opacity: 0.5"/>
   </g>
   <g id="patch_107">
    <path d="M 287.10772 448.56 
L 288.742201 448.56 
L 288.742201 396.816 
L 287.10772 396.816 
z
" clip-path="url(#pb1e67d3a24)" style="fill: #7f7f7f; opacity: 0.5"/>
   </g>
   <g id="patch_108">
    <path d="M 289.150821 448.56 
L 290.785302 448.56 
L 290.785302 422.688 
L 289.150821 422.688 
z
" clip-path="url(#pb1e67d3a24)" style="fill: #7f7f7f; opacity: 0.5"/>
   </g>
   <g id="patch_109">
    <path d="M 291.193922 448.56 
L 292.828403 448.56 
L 292.828403 448.56 
L 291.193922 448.56 
z
" clip-path="url(#pb1e67d3a24)" style="fill: #7f7f7f; opacity: 0.5"/>
   </g>
   <g id="patch_110">
    <path d="M 293.237023 448.56 
L 294.871503 448.56 
L 294.871503 422.688 
L 293.237023 422.688 
z
" clip-path="url(#pb1e67d3a24)" style="fill: #7f7f7f; opacity: 0.5"/>
   </g>
   <g id="patch_111">
    <path d="M 295.280123 448.56 
L 296.914604 448.56 
L 296.914604 448.56 
L 295.280123 448.56 
z
" clip-path="url(#pb1e67d3a24)" style="fill: #7f7f7f; opacity: 0.5"/>
   </g>
   <g id="patch_112">
    <path d="M 297.323224 448.56 
L 298.957705 448.56 
L 298.957705 422.688 
L 297.323224 422.688 
z
" clip-path="url(#pb1e67d3a24)" style="fill: #7f7f7f; opacity: 0.5"/>
   </g>
   <g id="patch_113">
    <path d="M 299.366325 448.56 
L 301.000806 448.56 
L 301.000806 448.56 
L 299.366325 448.56 
z
" clip-path="url(#pb1e67d3a24)" style="fill: #7f7f7f; opacity: 0.5"/>
   </g>
   <g id="patch_114">
    <path d="M 301.409426 448.56 
L 303.043906 448.56 
L 303.043906 448.56 
L 301.409426 448.56 
z
" clip-path="url(#pb1e67d3a24)" style="fill: #7f7f7f; opacity: 0.5"/>
   </g>
   <g id="patch_115">
    <path d="M 303.452526 448.56 
L 305.087007 448.56 
L 305.087007 448.56 
L 303.452526 448.56 
z
" clip-path="url(#pb1e67d3a24)" style="fill: #7f7f7f; opacity: 0.5"/>
   </g>
   <g id="patch_116">
    <path d="M 305.495627 448.56 
L 307.130108 448.56 
L 307.130108 422.688 
L 305.495627 422.688 
z
" clip-path="url(#pb1e67d3a24)" style="fill: #7f7f7f; opacity: 0.5"/>
   </g>
   <g id="patch_117">
    <path d="M 307.538728 448.56 
L 309.173208 448.56 
L 309.173208 422.688 
L 307.538728 422.688 
z
" clip-path="url(#pb1e67d3a24)" style="fill: #7f7f7f; opacity: 0.5"/>
   </g>
   <g id="patch_118">
    <path d="M 309.581829 448.56 
L 311.216309 448.56 
L 311.216309 448.56 
L 309.581829 448.56 
z
" clip-path="url(#pb1e67d3a24)" style="fill: #7f7f7f; opacity: 0.5"/>
   </g>
   <g id="patch_119">
    <path d="M 311.624929 448.56 
L 313.25941 448.56 
L 313.25941 448.56 
L 311.624929 448.56 
z
" clip-path="url(#pb1e67d3a24)" style="fill: #7f7f7f; opacity: 0.5"/>
   </g>
   <g id="patch_120">
    <path d="M 313.66803 448.56 
L 315.302511 448.56 
L 315.302511 448.56 
L 313.66803 448.56 
z
" clip-path="url(#pb1e67d3a24)" style="fill: #7f7f7f; opacity: 0.5"/>
   </g>
   <g id="patch_121">
    <path d="M 315.711131 448.56 
L 317.345611 448.56 
L 317.345611 422.688 
L 315.711131 422.688 
z
" clip-path="url(#pb1e67d3a24)" style="fill: #7f7f7f; opacity: 0.5"/>
   </g>
   <g id="patch_122">
    <path d="M 317.754232 448.56 
L 319.388712 448.56 
L 319.388712 448.56 
L 317.754232 448.56 
z
" clip-path="url(#pb1e67d3a24)" style="fill: #7f7f7f; opacity: 0.5"/>
   </g>
   <g id="patch_123">
    <path d="M 319.797332 448.56 
L 321.431813 448.56 
L 321.431813 448.56 
L 319.797332 448.56 
z
" clip-path="url(#pb1e67d3a24)" style="fill: #7f7f7f; opacity: 0.5"/>
   </g>
   <g id="patch_124">
    <path d="M 321.840433 448.56 
L 323.474914 448.56 
L 323.474914 448.56 
L 321.840433 448.56 
z
" clip-path="url(#pb1e67d3a24)" style="fill: #7f7f7f; opacity: 0.5"/>
   </g>
   <g id="patch_125">
    <path d="M 323.883534 448.56 
L 325.518014 448.56 
L 325.518014 448.56 
L 323.883534 448.56 
z
" clip-path="url(#pb1e67d3a24)" style="fill: #7f7f7f; opacity: 0.5"/>
   </g>
   <g id="patch_126">
    <path d="M 325.926635 448.56 
L 327.561115 448.56 
L 327.561115 448.56 
L 325.926635 448.56 
z
" clip-path="url(#pb1e67d3a24)" style="fill: #7f7f7f; opacity: 0.5"/>
   </g>
   <g id="patch_127">
    <path d="M 327.969735 448.56 
L 329.604216 448.56 
L 329.604216 448.56 
L 327.969735 448.56 
z
" clip-path="url(#pb1e67d3a24)" style="fill: #7f7f7f; opacity: 0.5"/>
   </g>
   <g id="patch_128">
    <path d="M 330.012836 448.56 
L 331.647317 448.56 
L 331.647317 448.56 
L 330.012836 448.56 
z
" clip-path="url(#pb1e67d3a24)" style="fill: #7f7f7f; opacity: 0.5"/>
   </g>
   <g id="patch_129">
    <path d="M 332.055937 448.56 
L 333.690417 448.56 
L 333.690417 448.56 
L 332.055937 448.56 
z
" clip-path="url(#pb1e67d3a24)" style="fill: #7f7f7f; opacity: 0.5"/>
   </g>
   <g id="patch_130">
    <path d="M 334.099038 448.56 
L 335.733518 448.56 
L 335.733518 448.56 
L 334.099038 448.56 
z
" clip-path="url(#pb1e67d3a24)" style="fill: #7f7f7f; opacity: 0.5"/>
   </g>
   <g id="patch_131">
    <path d="M 336.142138 448.56 
L 337.776619 448.56 
L 337.776619 422.688 
L 336.142138 422.688 
z
" clip-path="url(#pb1e67d3a24)" style="fill: #7f7f7f; opacity: 0.5"/>
   </g>
   <g id="patch_132">
    <path d="M 338.185239 448.56 
L 339.81972 448.56 
L 339.81972 448.56 
L 338.185239 448.56 
z
" clip-path="url(#pb1e67d3a24)" style="fill: #7f7f7f; opacity: 0.5"/>
   </g>
   <g id="patch_133">
    <path d="M 340.22834 448.56 
L 341.86282 448.56 
L 341.86282 448.56 
L 340.22834 448.56 
z
" clip-path="url(#pb1e67d3a24)" style="fill: #7f7f7f; opacity: 0.5"/>
   </g>
   <g id="patch_134">
    <path d="M 342.271441 448.56 
L 343.905921 448.56 
L 343.905921 448.56 
L 342.271441 448.56 
z
" clip-path="url(#pb1e67d3a24)" style="fill: #7f7f7f; opacity: 0.5"/>
   </g>
   <g id="patch_135">
    <path d="M 344.314541 448.56 
L 345.949022 448.56 
L 345.949022 448.56 
L 344.314541 448.56 
z
" clip-path="url(#pb1e67d3a24)" style="fill: #7f7f7f; opacity: 0.5"/>
   </g>
   <g id="patch_136">
    <path d="M 346.357642 448.56 
L 347.992123 448.56 
L 347.992123 448.56 
L 346.357642 448.56 
z
" clip-path="url(#pb1e67d3a24)" style="fill: #7f7f7f; opacity: 0.5"/>
   </g>
   <g id="patch_137">
    <path d="M 348.400743 448.56 
L 350.035223 448.56 
L 350.035223 448.56 
L 348.400743 448.56 
z
" clip-path="url(#pb1e67d3a24)" style="fill: #7f7f7f; opacity: 0.5"/>
   </g>
   <g id="patch_138">
    <path d="M 350.443843 448.56 
L 352.078324 448.56 
L 352.078324 422.688 
L 350.443843 422.688 
z
" clip-path="url(#pb1e67d3a24)" style="fill: #7f7f7f; opacity: 0.5"/>
   </g>
   <g id="patch_139">
    <path d="M 352.486944 448.56 
L 354.121425 448.56 
L 354.121425 448.56 
L 352.486944 448.56 
z
" clip-path="url(#pb1e67d3a24)" style="fill: #7f7f7f; opacity: 0.5"/>
   </g>
   <g id="patch_140">
    <path d="M 354.530045 448.56 
L 356.164526 448.56 
L 356.164526 448.56 
L 354.530045 448.56 
z
" clip-path="url(#pb1e67d3a24)" style="fill: #7f7f7f; opacity: 0.5"/>
   </g>
   <g id="patch_141">
    <path d="M 356.573146 448.56 
L 358.207626 448.56 
L 358.207626 448.56 
L 356.573146 448.56 
z
" clip-path="url(#pb1e67d3a24)" style="fill: #7f7f7f; opacity: 0.5"/>
   </g>
   <g id="patch_142">
    <path d="M 358.616246 448.56 
L 360.250727 448.56 
L 360.250727 448.56 
L 358.616246 448.56 
z
" clip-path="url(#pb1e67d3a24)" style="fill: #7f7f7f; opacity: 0.5"/>
   </g>
   <g id="patch_143">
    <path d="M 360.659347 448.56 
L 362.293828 448.56 
L 362.293828 448.56 
L 360.659347 448.56 
z
" clip-path="url(#pb1e67d3a24)" style="fill: #7f7f7f; opacity: 0.5"/>
   </g>
   <g id="patch_144">
    <path d="M 362.702448 448.56 
L 364.336929 448.56 
L 364.336929 448.56 
L 362.702448 448.56 
z
" clip-path="url(#pb1e67d3a24)" style="fill: #7f7f7f; opacity: 0.5"/>
   </g>
   <g id="patch_145">
    <path d="M 364.745549 448.56 
L 366.380029 448.56 
L 366.380029 448.56 
L 364.745549 448.56 
z
" clip-path="url(#pb1e67d3a24)" style="fill: #7f7f7f; opacity: 0.5"/>
   </g>
   <g id="patch_146">
    <path d="M 366.788649 448.56 
L 368.42313 448.56 
L 368.42313 448.56 
L 366.788649 448.56 
z
" clip-path="url(#pb1e67d3a24)" style="fill: #7f7f7f; opacity: 0.5"/>
   </g>
   <g id="patch_147">
    <path d="M 368.83175 448.56 
L 370.466231 448.56 
L 370.466231 448.56 
L 368.83175 448.56 
z
" clip-path="url(#pb1e67d3a24)" style="fill: #7f7f7f; opacity: 0.5"/>
   </g>
   <g id="patch_148">
    <path d="M 370.874851 448.56 
L 372.509332 448.56 
L 372.509332 448.56 
L 370.874851 448.56 
z
" clip-path="url(#pb1e67d3a24)" style="fill: #7f7f7f; opacity: 0.5"/>
   </g>
   <g id="patch_149">
    <path d="M 372.917952 448.56 
L 374.552432 448.56 
L 374.552432 448.56 
L 372.917952 448.56 
z
" clip-path="url(#pb1e67d3a24)" style="fill: #7f7f7f; opacity: 0.5"/>
   </g>
   <g id="patch_150">
    <path d="M 374.961052 448.56 
L 376.595533 448.56 
L 376.595533 448.56 
L 374.961052 448.56 
z
" clip-path="url(#pb1e67d3a24)" style="fill: #7f7f7f; opacity: 0.5"/>
   </g>
   <g id="patch_151">
    <path d="M 377.004153 448.56 
L 378.638634 448.56 
L 378.638634 448.56 
L 377.004153 448.56 
z
" clip-path="url(#pb1e67d3a24)" style="fill: #7f7f7f; opacity: 0.5"/>
   </g>
   <g id="patch_152">
    <path d="M 379.047254 448.56 
L 380.681734 448.56 
L 380.681734 448.56 
L 379.047254 448.56 
z
" clip-path="url(#pb1e67d3a24)" style="fill: #7f7f7f; opacity: 0.5"/>
   </g>
   <g id="patch_153">
    <path d="M 381.090355 448.56 
L 382.724835 448.56 
L 382.724835 448.56 
L 381.090355 448.56 
z
" clip-path="url(#pb1e67d3a24)" style="fill: #7f7f7f; opacity: 0.5"/>
   </g>
   <g id="patch_154">
    <path d="M 383.133455 448.56 
L 384.767936 448.56 
L 384.767936 448.56 
L 383.133455 448.56 
z
" clip-path="url(#pb1e67d3a24)" style="fill: #7f7f7f; opacity: 0.5"/>
   </g>
   <g id="patch_155">
    <path d="M 385.176556 448.56 
L 386.811037 448.56 
L 386.811037 448.56 
L 385.176556 448.56 
z
" clip-path="url(#pb1e67d3a24)" style="fill: #7f7f7f; opacity: 0.5"/>
   </g>
   <g id="patch_156">
    <path d="M 387.219657 448.56 
L 388.854137 448.56 
L 388.854137 448.56 
L 387.219657 448.56 
z
" clip-path="url(#pb1e67d3a24)" style="fill: #7f7f7f; opacity: 0.5"/>
   </g>
   <g id="patch_157">
    <path d="M 389.262758 448.56 
L 390.897238 448.56 
L 390.897238 448.56 
L 389.262758 448.56 
z
" clip-path="url(#pb1e67d3a24)" style="fill: #7f7f7f; opacity: 0.5"/>
   </g>
   <g id="patch_158">
    <path d="M 391.305858 448.56 
L 392.940339 448.56 
L 392.940339 448.56 
L 391.305858 448.56 
z
" clip-path="url(#pb1e67d3a24)" style="fill: #7f7f7f; opacity: 0.5"/>
   </g>
   <g id="patch_159">
    <path d="M 393.348959 448.56 
L 394.98344 448.56 
L 394.98344 448.56 
L 393.348959 448.56 
z
" clip-path="url(#pb1e67d3a24)" style="fill: #7f7f7f; opacity: 0.5"/>
   </g>
   <g id="patch_160">
    <path d="M 395.39206 448.56 
L 397.02654 448.56 
L 397.02654 448.56 
L 395.39206 448.56 
z
" clip-path="url(#pb1e67d3a24)" style="fill: #7f7f7f; opacity: 0.5"/>
   </g>
   <g id="patch_161">
    <path d="M 397.435161 448.56 
L 399.069641 448.56 
L 399.069641 448.56 
L 397.435161 448.56 
z
" clip-path="url(#pb1e67d3a24)" style="fill: #7f7f7f; opacity: 0.5"/>
   </g>
   <g id="patch_162">
    <path d="M 399.478261 448.56 
L 401.112742 448.56 
L 401.112742 448.56 
L 399.478261 448.56 
z
" clip-path="url(#pb1e67d3a24)" style="fill: #7f7f7f; opacity: 0.5"/>
   </g>
   <g id="patch_163">
    <path d="M 401.521362 448.56 
L 403.155843 448.56 
L 403.155843 448.56 
L 401.521362 448.56 
z
" clip-path="url(#pb1e67d3a24)" style="fill: #7f7f7f; opacity: 0.5"/>
   </g>
   <g id="patch_164">
    <path d="M 403.564463 448.56 
L 405.198943 448.56 
L 405.198943 448.56 
L 403.564463 448.56 
z
" clip-path="url(#pb1e67d3a24)" style="fill: #7f7f7f; opacity: 0.5"/>
   </g>
   <g id="patch_165">
    <path d="M 405.607564 448.56 
L 407.242044 448.56 
L 407.242044 448.56 
L 405.607564 448.56 
z
" clip-path="url(#pb1e67d3a24)" style="fill: #7f7f7f; opacity: 0.5"/>
   </g>
   <g id="patch_166">
    <path d="M 407.650664 448.56 
L 409.285145 448.56 
L 409.285145 448.56 
L 407.650664 448.56 
z
" clip-path="url(#pb1e67d3a24)" style="fill: #7f7f7f; opacity: 0.5"/>
   </g>
   <g id="patch_167">
    <path d="M 409.693765 448.56 
L 411.328246 448.56 
L 411.328246 448.56 
L 409.693765 448.56 
z
" clip-path="url(#pb1e67d3a24)" style="fill: #7f7f7f; opacity: 0.5"/>
   </g>
   <g id="patch_168">
    <path d="M 411.736866 448.56 
L 413.371346 448.56 
L 413.371346 448.56 
L 411.736866 448.56 
z
" clip-path="url(#pb1e67d3a24)" style="fill: #7f7f7f; opacity: 0.5"/>
   </g>
   <g id="patch_169">
    <path d="M 413.779967 448.56 
L 415.414447 448.56 
L 415.414447 448.56 
L 413.779967 448.56 
z
" clip-path="url(#pb1e67d3a24)" style="fill: #7f7f7f; opacity: 0.5"/>
   </g>
   <g id="patch_170">
    <path d="M 415.823067 448.56 
L 417.457548 448.56 
L 417.457548 448.56 
L 415.823067 448.56 
z
" clip-path="url(#pb1e67d3a24)" style="fill: #7f7f7f; opacity: 0.5"/>
   </g>
   <g id="patch_171">
    <path d="M 417.866168 448.56 
L 419.500649 448.56 
L 419.500649 448.56 
L 417.866168 448.56 
z
" clip-path="url(#pb1e67d3a24)" style="fill: #7f7f7f; opacity: 0.5"/>
   </g>
   <g id="patch_172">
    <path d="M 419.909269 448.56 
L 421.543749 448.56 
L 421.543749 448.56 
L 419.909269 448.56 
z
" clip-path="url(#pb1e67d3a24)" style="fill: #7f7f7f; opacity: 0.5"/>
   </g>
   <g id="patch_173">
    <path d="M 421.952369 448.56 
L 423.58685 448.56 
L 423.58685 448.56 
L 421.952369 448.56 
z
" clip-path="url(#pb1e67d3a24)" style="fill: #7f7f7f; opacity: 0.5"/>
   </g>
   <g id="patch_174">
    <path d="M 423.99547 448.56 
L 425.629951 448.56 
L 425.629951 448.56 
L 423.99547 448.56 
z
" clip-path="url(#pb1e67d3a24)" style="fill: #7f7f7f; opacity: 0.5"/>
   </g>
   <g id="patch_175">
    <path d="M 426.038571 448.56 
L 427.673052 448.56 
L 427.673052 448.56 
L 426.038571 448.56 
z
" clip-path="url(#pb1e67d3a24)" style="fill: #7f7f7f; opacity: 0.5"/>
   </g>
   <g id="patch_176">
    <path d="M 428.081672 448.56 
L 429.716152 448.56 
L 429.716152 448.56 
L 428.081672 448.56 
z
" clip-path="url(#pb1e67d3a24)" style="fill: #7f7f7f; opacity: 0.5"/>
   </g>
   <g id="patch_177">
    <path d="M 430.124772 448.56 
L 431.759253 448.56 
L 431.759253 448.56 
L 430.124772 448.56 
z
" clip-path="url(#pb1e67d3a24)" style="fill: #7f7f7f; opacity: 0.5"/>
   </g>
   <g id="patch_178">
    <path d="M 432.167873 448.56 
L 433.802354 448.56 
L 433.802354 448.56 
L 432.167873 448.56 
z
" clip-path="url(#pb1e67d3a24)" style="fill: #7f7f7f; opacity: 0.5"/>
   </g>
   <g id="patch_179">
    <path d="M 434.210974 448.56 
L 435.845455 448.56 
L 435.845455 448.56 
L 434.210974 448.56 
z
" clip-path="url(#pb1e67d3a24)" style="fill: #7f7f7f; opacity: 0.5"/>
   </g>
   <g id="matplotlib.axis_3">
    <g id="ytick_10">
     <g id="line2d_20">
      <defs>
       <path id="mdbbcab5475" d="M 0 0 
L 3.5 0 
" style="stroke: #7f7f7f; stroke-width: 0.8"/>
      </defs>
      <g>
       <use xlink:href="#mdbbcab5475" x="453.6" y="448.56" style="fill: #7f7f7f; stroke: #7f7f7f; stroke-width: 0.8"/>
      </g>
     </g>
     <g id="text_19">
      <text style="font-size: 16px; font-family: 'Arial', sans-serif; text-anchor: start; fill: #7f7f7f" x="460.6" y="454.28625" transform="rotate(-0 460.6 454.28625)">0</text>
     </g>
    </g>
    <g id="ytick_11">
     <g id="line2d_21">
      <g>
       <use xlink:href="#mdbbcab5475" x="453.6" y="396.816" style="fill: #7f7f7f; stroke: #7f7f7f; stroke-width: 0.8"/>
      </g>
     </g>
     <g id="text_20">
      <text style="font-size: 16px; font-family: 'Arial', sans-serif; text-anchor: start; fill: #7f7f7f" x="460.6" y="402.54225" transform="rotate(-0 460.6 402.54225)">2</text>
     </g>
    </g>
    <g id="ytick_12">
     <g id="line2d_22">
      <g>
       <use xlink:href="#mdbbcab5475" x="453.6" y="345.072" style="fill: #7f7f7f; stroke: #7f7f7f; stroke-width: 0.8"/>
      </g>
     </g>
     <g id="text_21">
      <text style="font-size: 16px; font-family: 'Arial', sans-serif; text-anchor: start; fill: #7f7f7f" x="460.6" y="350.79825" transform="rotate(-0 460.6 350.79825)">4</text>
     </g>
    </g>
    <g id="ytick_13">
     <g id="line2d_23">
      <g>
       <use xlink:href="#mdbbcab5475" x="453.6" y="293.328" style="fill: #7f7f7f; stroke: #7f7f7f; stroke-width: 0.8"/>
      </g>
     </g>
     <g id="text_22">
      <text style="font-size: 16px; font-family: 'Arial', sans-serif; text-anchor: start; fill: #7f7f7f" x="460.6" y="299.05425" transform="rotate(-0 460.6 299.05425)">6</text>
     </g>
    </g>
    <g id="ytick_14">
     <g id="line2d_24">
      <g>
       <use xlink:href="#mdbbcab5475" x="453.6" y="241.584" style="fill: #7f7f7f; stroke: #7f7f7f; stroke-width: 0.8"/>
      </g>
     </g>
     <g id="text_23">
      <text style="font-size: 16px; font-family: 'Arial', sans-serif; text-anchor: start; fill: #7f7f7f" x="460.6" y="247.31025" transform="rotate(-0 460.6 247.31025)">8</text>
     </g>
    </g>
    <g id="ytick_15">
     <g id="line2d_25">
      <g>
       <use xlink:href="#mdbbcab5475" x="453.6" y="189.84" style="fill: #7f7f7f; stroke: #7f7f7f; stroke-width: 0.8"/>
      </g>
     </g>
     <g id="text_24">
      <text style="font-size: 16px; font-family: 'Arial', sans-serif; text-anchor: start; fill: #7f7f7f" x="460.6" y="195.56625" transform="rotate(-0 460.6 195.56625)">10</text>
     </g>
    </g>
    <g id="ytick_16">
     <g id="line2d_26">
      <g>
       <use xlink:href="#mdbbcab5475" x="453.6" y="138.096" style="fill: #7f7f7f; stroke: #7f7f7f; stroke-width: 0.8"/>
      </g>
     </g>
     <g id="text_25">
      <text style="font-size: 16px; font-family: 'Arial', sans-serif; text-anchor: start; fill: #7f7f7f" x="460.6" y="143.82225" transform="rotate(-0 460.6 143.82225)">12</text>
     </g>
    </g>
    <g id="ytick_17">
     <g id="line2d_27">
      <g>
       <use xlink:href="#mdbbcab5475" x="453.6" y="86.352" style="fill: #7f7f7f; stroke: #7f7f7f; stroke-width: 0.8"/>
      </g>
     </g>
     <g id="text_26">
      <text style="font-size: 16px; font-family: 'Arial', sans-serif; text-anchor: start; fill: #7f7f7f" x="460.6" y="92.07825" transform="rotate(-0 460.6 92.07825)">14</text>
     </g>
    </g>
    <g id="text_27">
     <text style="font-size: 16px; font-family: 'Arial', sans-serif; text-anchor: middle; fill: #7f7f7f" x="493.8475" y="254.52" transform="rotate(-90 493.8475 254.52)">Number of cases</text>
    </g>
   </g>
   <g id="patch_180">
    <path d="M 453.6 448.56 
L 453.6 60.48 
" style="fill: none; stroke: #7f7f7f; stroke-width: 0.8; stroke-linejoin: miter; stroke-linecap: square"/>
   </g>
  </g>
 </g>
 <defs>
  <clipPath id="pb1e67d3a24">
   <rect x="63" y="60.48" width="390.6" height="388.08"/>
  </clipPath>
 </defs>
</svg>
