<?xml version="1.0" encoding="utf-8" standalone="no"?>
<!DOCTYPE svg PUBLIC "-//W3C//DTD SVG 1.1//EN"
  "http://www.w3.org/Graphics/SVG/1.1/DTD/svg11.dtd">
<svg xmlns:xlink="http://www.w3.org/1999/xlink" width="460.8pt" height="345.6pt" viewBox="0 0 460.8 345.6" xmlns="http://www.w3.org/2000/svg" version="1.1">
 <metadata>
  <rdf:RDF xmlns:dc="http://purl.org/dc/elements/1.1/" xmlns:cc="http://creativecommons.org/ns#" xmlns:rdf="http://www.w3.org/1999/02/22-rdf-syntax-ns#">
   <cc:Work>
    <dc:type rdf:resource="http://purl.org/dc/dcmitype/StillImage"/>
    <dc:date>2026-01-23T14:47:59.327069</dc:date>
    <dc:format>image/svg+xml</dc:format>
    <dc:creator>
     <cc:Agent>
      <dc:title>Matplotlib v3.10.8, https://matplotlib.org/</dc:title>
     </cc:Agent>
    </dc:creator>
   </cc:Work>
  </rdf:RDF>
 </metadata>
 <defs>
  <style type="text/css">*{stroke-linejoin: round; stroke-linecap: butt}</style>
 </defs>
 <g id="figure_1">
  <g id="patch_1">
   <path d="M 0 345.6 
L 460.8 345.6 
L 460.8 0 
L 0 0 
z
" style="fill: #ffffff"/>
  </g>
  <g id="axes_1">
   <g id="patch_2">
    <path d="M 57.6 307.584 
L 414.72 307.584 
L 414.72 41.472 
L 57.6 41.472 
z
" style="fill: #ffffff"/>
   </g>
   <g id="FillBetweenPolyCollection_1">
    <defs>
     <path id="md74246f55a" d="M 74.579918 -167.198335 
L 74.579918 -62.61708 
L 76.447896 -63.019902 
L 78.315874 -63.456048 
L 80.183852 -62.555012 
L 82.05183 -61.517866 
L 83.919808 -60.337118 
L 85.787785 -60.062741 
L 87.655763 -59.631403 
L 89.523741 -59.364533 
L 91.391719 -59.029042 
L 93.259697 -58.943099 
L 95.127674 -58.546797 
L 96.995652 -58.639359 
L 98.86363 -58.33624 
L 100.731608 -58.254125 
L 102.599586 -58.653586 
L 104.467564 -59.727041 
L 106.335541 -60.641835 
L 108.203519 -61.332004 
L 110.071497 -62.396589 
L 111.939475 -62.911746 
L 113.807453 -64.243765 
L 115.67543 -66.058224 
L 117.543408 -67.032162 
L 119.411386 -67.975753 
L 121.279364 -68.765717 
L 123.147342 -70.088357 
L 125.01532 -71.202352 
L 126.883297 -72.382876 
L 128.751275 -73.485258 
L 130.619253 -74.08316 
L 132.487231 -74.453232 
L 134.355209 -75.186019 
L 136.223187 -76.364857 
L 138.091164 -77.054367 
L 139.959142 -78.029893 
L 141.82712 -79.411645 
L 143.695098 -81.846538 
L 145.563076 -82.485167 
L 147.431053 -81.972782 
L 149.299031 -82.450695 
L 151.167009 -83.208956 
L 153.034987 -84.189785 
L 154.902965 -85.054071 
L 156.770943 -85.785683 
L 158.63892 -87.647538 
L 160.506898 -90.342629 
L 162.374876 -94.176212 
L 164.242854 -96.385268 
L 166.110832 -98.098535 
L 167.978809 -99.709491 
L 169.846787 -103.473078 
L 171.714765 -105.233802 
L 173.582743 -109.215981 
L 175.450721 -107.636168 
L 177.318699 -104.105749 
L 179.186676 -98.493389 
L 181.054654 -93.099496 
L 182.922632 -87.352651 
L 184.79061 -82.418921 
L 186.658588 -76.705786 
L 188.526566 -73.333513 
L 190.394543 -73.175297 
L 192.262521 -70.551915 
L 194.130499 -70.23919 
L 195.998477 -71.12138 
L 197.866455 -74.052433 
L 199.734432 -75.945933 
L 201.60241 -77.825529 
L 203.470388 -80.288596 
L 205.338366 -82.521161 
L 207.206344 -84.595493 
L 209.074322 -84.147092 
L 210.942299 -81.040642 
L 212.810277 -79.3345 
L 214.678255 -75.218653 
L 216.546233 -74.442051 
L 218.414211 -69.882761 
L 220.282189 -64.206336 
L 222.150166 -60.985638 
L 224.018144 -58.376896 
L 225.886122 -57.632803 
L 227.7541 -57.986901 
L 229.622078 -57.696681 
L 231.490055 -55.996123 
L 233.358033 -54.293415 
L 235.226011 -52.108964 
L 237.093989 -50.542004 
L 238.961967 -49.026094 
L 240.829945 -47.639976 
L 242.697922 -46.805411 
L 244.5659 -45.980766 
L 246.433878 -45.6935 
L 248.301856 -45.487568 
L 250.169834 -45.492161 
L 252.037811 -45.074174 
L 253.905789 -44.996218 
L 255.773767 -44.725058 
L 257.641745 -44.37521 
L 259.509723 -44.280864 
L 261.377701 -44.268549 
L 263.245678 -44.221294 
L 265.113656 -44.054532 
L 266.981634 -44.008005 
L 268.849612 -43.91195 
L 270.71759 -43.764267 
L 272.585568 -43.778702 
L 274.453545 -43.744193 
L 276.321523 -43.743701 
L 278.189501 -43.711558 
L 280.057479 -43.770994 
L 281.925457 -43.884134 
L 283.793434 -43.856375 
L 285.661412 -43.797818 
L 287.52939 -43.717787 
L 289.397368 -43.906613 
L 291.265346 -43.911078 
L 293.133324 -43.880947 
L 295.001301 -43.962002 
L 296.869279 -43.948751 
L 298.737257 -44.028214 
L 300.605235 -44.048341 
L 302.473213 -44.151053 
L 304.341191 -44.227756 
L 306.209168 -44.252771 
L 308.077146 -44.416297 
L 309.945124 -44.353222 
L 311.813102 -44.360237 
L 313.68108 -44.526046 
L 315.549057 -44.632018 
L 317.417035 -44.734651 
L 319.285013 -44.844583 
L 321.152991 -44.876009 
L 323.020969 -44.976294 
L 324.888947 -44.958219 
L 326.756924 -44.739297 
L 328.624902 -44.798439 
L 330.49288 -44.702328 
L 332.360858 -44.860168 
L 334.228836 -44.756694 
L 336.096813 -44.851237 
L 337.964791 -44.997598 
L 339.832769 -44.934814 
L 341.700747 -44.949749 
L 343.568725 -44.872456 
L 345.436703 -44.967797 
L 347.30468 -44.894637 
L 349.172658 -45.185721 
L 351.040636 -45.000531 
L 352.908614 -44.922116 
L 354.776592 -44.86344 
L 356.64457 -45.033645 
L 358.512547 -45.177739 
L 360.380525 -45.297955 
L 362.248503 -45.341687 
L 364.116481 -45.477491 
L 365.984459 -45.562996 
L 367.852436 -45.477901 
L 369.720414 -45.383933 
L 371.588392 -45.544522 
L 373.45637 -45.646079 
L 375.324348 -45.666775 
L 377.192326 -45.651145 
L 379.060303 -45.656681 
L 380.928281 -45.883746 
L 382.796259 -45.737749 
L 384.664237 -45.832591 
L 386.532215 -45.941956 
L 388.400192 -45.771566 
L 390.26817 -45.916884 
L 392.136148 -45.949646 
L 394.004126 -46.383801 
L 395.872104 -46.255574 
L 397.740082 -46.495075 
L 397.740082 -106.626465 
L 397.740082 -106.626465 
L 395.872104 -106.009827 
L 394.004126 -105.909717 
L 392.136148 -104.94422 
L 390.26817 -102.296946 
L 388.400192 -102.472848 
L 386.532215 -102.130862 
L 384.664237 -101.516681 
L 382.796259 -100.443108 
L 380.928281 -99.74723 
L 379.060303 -99.28182 
L 377.192326 -97.699546 
L 375.324348 -96.484355 
L 373.45637 -95.512503 
L 371.588392 -94.77758 
L 369.720414 -93.429142 
L 367.852436 -92.248841 
L 365.984459 -90.565162 
L 364.116481 -92.362768 
L 362.248503 -90.280897 
L 360.380525 -88.534541 
L 358.512547 -88.642552 
L 356.64457 -86.632303 
L 354.776592 -86.788294 
L 352.908614 -85.908914 
L 351.040636 -83.670617 
L 349.172658 -83.369327 
L 347.30468 -82.281635 
L 345.436703 -81.471415 
L 343.568725 -80.91558 
L 341.700747 -79.850491 
L 339.832769 -80.241108 
L 337.964791 -78.021086 
L 336.096813 -76.854579 
L 334.228836 -76.124753 
L 332.360858 -76.058496 
L 330.49288 -75.11426 
L 328.624902 -74.636551 
L 326.756924 -73.924668 
L 324.888947 -73.121816 
L 323.020969 -73.620414 
L 321.152991 -73.316046 
L 319.285013 -72.012621 
L 317.417035 -71.195663 
L 315.549057 -70.741188 
L 313.68108 -69.169861 
L 311.813102 -68.486361 
L 309.945124 -67.957894 
L 308.077146 -66.993381 
L 306.209168 -65.826293 
L 304.341191 -65.171805 
L 302.473213 -63.679621 
L 300.605235 -62.781782 
L 298.737257 -62.201985 
L 296.869279 -61.400159 
L 295.001301 -60.738056 
L 293.133324 -60.219153 
L 291.265346 -59.733949 
L 289.397368 -59.398558 
L 287.52939 -58.396866 
L 285.661412 -57.924348 
L 283.793434 -57.661617 
L 281.925457 -57.564342 
L 280.057479 -56.555903 
L 278.189501 -55.83672 
L 276.321523 -55.46133 
L 274.453545 -54.955446 
L 272.585568 -54.527759 
L 270.71759 -54.281224 
L 268.849612 -54.207543 
L 266.981634 -54.188145 
L 265.113656 -54.13648 
L 263.245678 -53.985212 
L 261.377701 -53.534497 
L 259.509723 -53.224976 
L 257.641745 -53.004951 
L 255.773767 -53.330229 
L 253.905789 -53.76329 
L 252.037811 -53.911633 
L 250.169834 -54.318531 
L 248.301856 -54.453063 
L 246.433878 -54.400151 
L 244.5659 -54.887786 
L 242.697922 -56.385582 
L 240.829945 -57.638951 
L 238.961967 -59.981985 
L 237.093989 -62.373439 
L 235.226011 -65.19229 
L 233.358033 -68.741919 
L 231.490055 -71.470221 
L 229.622078 -74.814657 
L 227.7541 -74.904059 
L 225.886122 -74.710789 
L 224.018144 -75.66882 
L 222.150166 -79.846814 
L 220.282189 -86.178495 
L 218.414211 -95.039442 
L 216.546233 -103.146543 
L 214.678255 -104.324061 
L 212.810277 -111.612099 
L 210.942299 -114.619647 
L 209.074322 -120.566085 
L 207.206344 -121.211681 
L 205.338366 -117.374116 
L 203.470388 -113.498022 
L 201.60241 -110.0828 
L 199.734432 -108.433697 
L 197.866455 -104.385278 
L 195.998477 -99.30647 
L 194.130499 -98.845367 
L 192.262521 -99.994838 
L 190.394543 -104.329497 
L 188.526566 -106.780299 
L 186.658588 -113.716614 
L 184.79061 -125.189363 
L 182.922632 -135.460325 
L 181.054654 -146.524198 
L 179.186676 -157.573969 
L 177.318699 -170.016023 
L 175.450721 -176.338853 
L 173.582743 -180.995112 
L 171.714765 -179.651971 
L 169.846787 -174.749926 
L 167.978809 -168.727231 
L 166.110832 -167.400819 
L 164.242854 -165.835584 
L 162.374876 -162.747236 
L 160.506898 -158.317193 
L 158.63892 -154.415922 
L 156.770943 -153.337923 
L 154.902965 -154.259633 
L 153.034987 -151.388102 
L 151.167009 -151.93611 
L 149.299031 -151.866028 
L 147.431053 -151.350901 
L 145.563076 -151.881272 
L 143.695098 -152.660422 
L 141.82712 -148.789282 
L 139.959142 -147.748423 
L 138.091164 -148.746745 
L 136.223187 -147.925666 
L 134.355209 -149.235135 
L 132.487231 -148.101603 
L 130.619253 -150.455057 
L 128.751275 -150.110907 
L 126.883297 -149.488142 
L 125.01532 -148.687497 
L 123.147342 -147.406368 
L 121.279364 -143.608037 
L 119.411386 -139.939822 
L 117.543408 -133.336065 
L 115.67543 -129.955817 
L 113.807453 -125.146289 
L 111.939475 -121.352385 
L 110.071497 -116.987098 
L 108.203519 -114.205063 
L 106.335541 -111.628693 
L 104.467564 -107.687413 
L 102.599586 -106.55492 
L 100.731608 -105.953727 
L 98.86363 -105.287916 
L 96.995652 -106.514353 
L 95.127674 -108.824414 
L 93.259697 -111.111401 
L 91.391719 -115.0185 
L 89.523741 -120.374528 
L 87.655763 -125.30541 
L 85.787785 -130.419242 
L 83.919808 -137.698171 
L 82.05183 -145.823948 
L 80.183852 -156.373933 
L 78.315874 -164.904714 
L 76.447896 -169.050083 
L 74.579918 -167.198335 
z
" style="stroke: #1f77b4; stroke-opacity: 0.3"/>
    </defs>
    <g clip-path="url(#p08ae47194d)">
     <use xlink:href="#md74246f55a" x="0" y="345.6" style="fill: #1f77b4; fill-opacity: 0.3; stroke: #1f77b4; stroke-opacity: 0.3"/>
    </g>
   </g>
   <g id="FillBetweenPolyCollection_2">
    <defs>
     <path id="m57ce44c04c" d="M 74.579918 -287.56508 
L 74.579918 -72.283752 
L 76.447896 -73.067095 
L 78.315874 -72.746403 
L 80.183852 -69.419002 
L 82.05183 -67.86062 
L 83.919808 -65.663658 
L 85.787785 -64.325339 
L 87.655763 -63.133228 
L 89.523741 -61.148394 
L 91.391719 -60.310157 
L 93.259697 -58.916782 
L 95.127674 -58.321473 
L 96.995652 -57.639146 
L 98.86363 -57.150106 
L 100.731608 -57.057867 
L 102.599586 -57.238495 
L 104.467564 -57.839787 
L 106.335541 -58.640737 
L 108.203519 -59.123417 
L 110.071497 -61.040765 
L 111.939475 -61.724629 
L 113.807453 -62.770627 
L 115.67543 -64.402751 
L 117.543408 -65.831479 
L 119.411386 -67.368449 
L 121.279364 -68.566563 
L 123.147342 -69.725654 
L 125.01532 -69.908945 
L 126.883297 -71.287619 
L 128.751275 -71.338593 
L 130.619253 -72.648787 
L 132.487231 -74.075778 
L 134.355209 -73.962666 
L 136.223187 -74.099338 
L 138.091164 -74.577676 
L 139.959142 -75.094049 
L 141.82712 -75.988714 
L 143.695098 -79.426303 
L 145.563076 -79.933828 
L 147.431053 -80.340504 
L 149.299031 -80.44483 
L 151.167009 -80.439422 
L 153.034987 -82.052444 
L 154.902965 -83.452874 
L 156.770943 -83.085414 
L 158.63892 -84.561054 
L 160.506898 -87.652205 
L 162.374876 -92.300946 
L 164.242854 -94.269818 
L 166.110832 -96.995359 
L 167.978809 -99.197101 
L 169.846787 -104.004814 
L 171.714765 -108.91129 
L 173.582743 -113.047114 
L 175.450721 -110.555951 
L 177.318699 -107.754151 
L 179.186676 -99.522658 
L 181.054654 -92.052527 
L 182.922632 -86.398498 
L 184.79061 -80.8786 
L 186.658588 -73.955124 
L 188.526566 -69.993659 
L 190.394543 -69.470261 
L 192.262521 -67.245111 
L 194.130499 -66.948206 
L 195.998477 -67.956359 
L 197.866455 -73.044971 
L 199.734432 -74.59783 
L 201.60241 -77.784576 
L 203.470388 -80.003634 
L 205.338366 -83.799071 
L 207.206344 -86.52665 
L 209.074322 -86.530075 
L 210.942299 -82.487602 
L 212.810277 -80.063673 
L 214.678255 -74.619877 
L 216.546233 -75.290029 
L 218.414211 -70.634512 
L 220.282189 -63.550625 
L 222.150166 -59.149767 
L 224.018144 -56.809181 
L 225.886122 -56.58291 
L 227.7541 -57.516373 
L 229.622078 -58.05331 
L 231.490055 -55.934989 
L 233.358033 -54.16625 
L 235.226011 -51.635209 
L 237.093989 -49.693465 
L 238.961967 -47.833691 
L 240.829945 -46.238291 
L 242.697922 -45.142219 
L 244.5659 -44.324446 
L 246.433878 -44.021932 
L 248.301856 -43.751479 
L 250.169834 -43.599089 
L 252.037811 -43.117364 
L 253.905789 -43.006892 
L 255.773767 -42.536086 
L 257.641745 -41.897453 
L 259.509723 -41.686369 
L 261.377701 -41.575596 
L 263.245678 -41.402274 
L 265.113656 -41.162907 
L 266.981634 -40.821374 
L 268.849612 -40.652797 
L 270.71759 -40.420842 
L 272.585568 -40.363897 
L 274.453545 -40.183477 
L 276.321523 -40.224713 
L 278.189501 -40.20387 
L 280.057479 -40.263655 
L 281.925457 -40.24054 
L 283.793434 -39.946306 
L 285.661412 -39.813221 
L 287.52939 -39.797772 
L 289.397368 -39.903259 
L 291.265346 -39.70269 
L 293.133324 -39.514443 
L 295.001301 -39.468374 
L 296.869279 -39.380033 
L 298.737257 -39.267363 
L 300.605235 -39.276786 
L 302.473213 -39.283255 
L 304.341191 -39.360771 
L 306.209168 -39.4769 
L 308.077146 -39.484181 
L 309.945124 -39.337991 
L 311.813102 -39.263414 
L 313.68108 -39.20617 
L 315.549057 -39.120984 
L 317.417035 -39.121137 
L 319.285013 -39.058152 
L 321.152991 -39.191942 
L 323.020969 -38.845426 
L 324.888947 -38.629542 
L 326.756924 -38.336212 
L 328.624902 -38.14557 
L 330.49288 -38.016001 
L 332.360858 -38.016001 
L 334.228836 -38.016001 
L 336.096813 -38.016001 
L 337.964791 -38.016001 
L 339.832769 -38.016 
L 341.700747 -38.016 
L 343.568725 -38.016 
L 345.436703 -38.016 
L 347.30468 -38.016 
L 349.172658 -38.016 
L 351.040636 -38.016 
L 352.908614 -38.016 
L 354.776592 -38.016 
L 356.64457 -38.016 
L 358.512547 -38.016 
L 360.380525 -38.016 
L 362.248503 -38.016 
L 364.116481 -38.016 
L 365.984459 -38.016 
L 367.852436 -38.016 
L 369.720414 -38.016 
L 371.588392 -38.016 
L 373.45637 -38.016 
L 375.324348 -38.016 
L 377.192326 -38.016 
L 379.060303 -38.016 
L 380.928281 -38.016 
L 382.796259 -38.016 
L 384.664237 -38.016 
L 386.532215 -38.016 
L 388.400192 -38.016 
L 390.26817 -38.016 
L 392.136148 -38.016 
L 394.004126 -38.016 
L 395.872104 -38.016 
L 397.740082 -38.016 
L 397.740082 -46.73996 
L 397.740082 -46.73996 
L 395.872104 -47.124025 
L 394.004126 -47.257002 
L 392.136148 -47.193705 
L 390.26817 -47.387926 
L 388.400192 -47.824686 
L 386.532215 -47.644848 
L 384.664237 -47.667215 
L 382.796259 -48.002178 
L 380.928281 -48.063806 
L 379.060303 -48.003145 
L 377.192326 -48.301822 
L 375.324348 -48.087754 
L 373.45637 -48.303644 
L 371.588392 -48.418353 
L 369.720414 -48.382543 
L 367.852436 -48.861711 
L 365.984459 -49.098174 
L 364.116481 -49.424146 
L 362.248503 -49.572387 
L 360.380525 -50.022409 
L 358.512547 -50.171651 
L 356.64457 -50.181104 
L 354.776592 -50.413953 
L 352.908614 -50.529872 
L 351.040636 -50.160597 
L 349.172658 -50.484418 
L 347.30468 -50.559066 
L 345.436703 -51.215477 
L 343.568725 -51.393582 
L 341.700747 -51.41842 
L 339.832769 -51.595264 
L 337.964791 -52.129491 
L 336.096813 -53.167748 
L 334.228836 -52.752475 
L 332.360858 -53.393372 
L 330.49288 -53.187276 
L 328.624902 -53.701018 
L 326.756924 -54.006216 
L 324.888947 -54.722494 
L 323.020969 -55.021396 
L 321.152991 -56.012853 
L 319.285013 -55.920401 
L 317.417035 -55.710856 
L 315.549057 -55.737601 
L 313.68108 -56.330671 
L 311.813102 -56.086723 
L 309.945124 -55.910579 
L 308.077146 -55.191155 
L 306.209168 -54.367788 
L 304.341191 -53.768759 
L 302.473213 -53.158402 
L 300.605235 -52.906935 
L 298.737257 -53.164937 
L 296.869279 -52.694278 
L 295.001301 -52.982463 
L 293.133324 -52.939123 
L 291.265346 -52.704681 
L 289.397368 -52.631829 
L 287.52939 -51.904273 
L 285.661412 -52.030734 
L 283.793434 -52.008296 
L 281.925457 -51.932851 
L 280.057479 -51.584081 
L 278.189501 -50.926905 
L 276.321523 -50.751963 
L 274.453545 -50.357755 
L 272.585568 -50.484399 
L 270.71759 -50.21123 
L 268.849612 -50.176107 
L 266.981634 -50.164763 
L 265.113656 -50.538634 
L 263.245678 -50.751005 
L 261.377701 -50.713905 
L 259.509723 -50.412824 
L 257.641745 -50.545791 
L 255.773767 -51.584568 
L 253.905789 -52.416924 
L 252.037811 -52.335725 
L 250.169834 -53.096361 
L 248.301856 -53.439347 
L 246.433878 -53.16772 
L 244.5659 -53.839874 
L 242.697922 -55.499018 
L 240.829945 -57.464883 
L 238.961967 -60.195309 
L 237.093989 -63.487754 
L 235.226011 -66.279859 
L 233.358033 -71.250867 
L 231.490055 -74.023481 
L 229.622078 -77.843389 
L 227.7541 -76.368431 
L 225.886122 -75.531138 
L 224.018144 -75.673197 
L 222.150166 -80.459303 
L 220.282189 -89.113865 
L 218.414211 -99.87549 
L 216.546233 -110.166517 
L 214.678255 -108.424703 
L 212.810277 -118.415767 
L 210.942299 -121.773321 
L 209.074322 -129.39626 
L 207.206344 -128.986099 
L 205.338366 -122.973478 
L 203.470388 -116.576304 
L 201.60241 -113.410813 
L 199.734432 -109.963352 
L 197.866455 -105.451324 
L 195.998477 -98.077975 
L 194.130499 -97.13991 
L 192.262521 -98.008597 
L 190.394543 -103.565719 
L 188.526566 -105.91583 
L 186.658588 -113.594878 
L 184.79061 -128.878743 
L 182.922632 -138.848364 
L 181.054654 -152.139369 
L 179.186676 -167.63304 
L 177.318699 -185.295611 
L 175.450721 -190.757706 
L 173.582743 -196.620774 
L 171.714765 -193.632592 
L 169.846787 -184.492107 
L 167.978809 -177.391939 
L 166.110832 -175.973652 
L 164.242854 -172.688972 
L 162.374876 -169.134966 
L 160.506898 -162.163443 
L 158.63892 -157.958299 
L 156.770943 -155.430796 
L 154.902965 -157.960466 
L 153.034987 -158.518242 
L 151.167009 -157.131869 
L 149.299031 -157.042627 
L 147.431053 -156.699456 
L 145.563076 -160.756965 
L 143.695098 -161.757282 
L 141.82712 -158.690585 
L 139.959142 -157.166772 
L 138.091164 -157.753803 
L 136.223187 -161.193193 
L 134.355209 -160.882127 
L 132.487231 -164.453929 
L 130.619253 -164.759066 
L 128.751275 -165.118861 
L 126.883297 -162.678949 
L 125.01532 -164.352104 
L 123.147342 -159.441109 
L 121.279364 -155.185075 
L 119.411386 -152.046252 
L 117.543408 -148.901327 
L 115.67543 -143.325685 
L 113.807453 -137.617116 
L 111.939475 -131.509625 
L 110.071497 -125.443808 
L 108.203519 -120.13768 
L 106.335541 -115.031599 
L 104.467564 -111.992869 
L 102.599586 -109.64134 
L 100.731608 -108.82947 
L 98.86363 -110.619278 
L 96.995652 -113.678989 
L 95.127674 -117.160223 
L 93.259697 -124.968509 
L 91.391719 -131.826782 
L 89.523741 -142.657672 
L 87.655763 -156.447182 
L 85.787785 -172.271007 
L 83.919808 -193.491292 
L 82.05183 -212.192211 
L 80.183852 -236.019762 
L 78.315874 -265.338878 
L 76.447896 -285.908608 
L 74.579918 -287.56508 
z
" style="stroke: #ff7f0e; stroke-opacity: 0.3"/>
    </defs>
    <g clip-path="url(#p08ae47194d)">
     <use xlink:href="#m57ce44c04c" x="0" y="345.6" style="fill: #ff7f0e; fill-opacity: 0.3; stroke: #ff7f0e; stroke-opacity: 0.3"/>
    </g>
   </g>
   <g id="matplotlib.axis_1">
    <g id="xtick_1">
     <g id="line2d_1">
      <defs>
       <path id="m481c833bff" d="M 0 0 
L 0 3.5 
" style="stroke: #000000; stroke-width: 0.8"/>
      </defs>
      <g>
       <use xlink:href="#m481c833bff" x="83.919808" y="307.584" style="stroke: #000000; stroke-width: 0.8"/>
      </g>
     </g>
     <g id="text_1">
      <!-- 1 Jul -->
      <g transform="translate(73.116683 322.182437) scale(0.1 -0.1)">
       <defs>
        <path id="DejaVuSans-31" d="M 794 531 
L 1825 531 
L 1825 4091 
L 703 3866 
L 703 4441 
L 1819 4666 
L 2450 4666 
L 2450 531 
L 3481 531 
L 3481 0 
L 794 0 
L 794 531 
z
" transform="scale(0.015625)"/>
        <path id="DejaVuSans-20" transform="scale(0.015625)"/>
        <path id="DejaVuSans-4a" d="M 628 4666 
L 1259 4666 
L 1259 325 
Q 1259 -519 939 -900 
Q 619 -1281 -91 -1281 
L -331 -1281 
L -331 -750 
L -134 -750 
Q 284 -750 456 -515 
Q 628 -281 628 325 
L 628 4666 
z
" transform="scale(0.015625)"/>
        <path id="DejaVuSans-75" d="M 544 1381 
L 544 3500 
L 1119 3500 
L 1119 1403 
Q 1119 906 1312 657 
Q 1506 409 1894 409 
Q 2359 409 2629 706 
Q 2900 1003 2900 1516 
L 2900 3500 
L 3475 3500 
L 3475 0 
L 2900 0 
L 2900 538 
Q 2691 219 2414 64 
Q 2138 -91 1772 -91 
Q 1169 -91 856 284 
Q 544 659 544 1381 
z
M 1991 3584 
L 1991 3584 
z
" transform="scale(0.015625)"/>
        <path id="DejaVuSans-6c" d="M 603 4863 
L 1178 4863 
L 1178 0 
L 603 0 
L 603 4863 
z
" transform="scale(0.015625)"/>
       </defs>
       <use xlink:href="#DejaVuSans-31"/>
       <use xlink:href="#DejaVuSans-20" transform="translate(63.623047 0)"/>
       <use xlink:href="#DejaVuSans-4a" transform="translate(95.410156 0)"/>
       <use xlink:href="#DejaVuSans-75" transform="translate(124.902344 0)"/>
       <use xlink:href="#DejaVuSans-6c" transform="translate(188.28125 0)"/>
      </g>
     </g>
    </g>
    <g id="xtick_2">
     <g id="line2d_2">
      <g>
       <use xlink:href="#m481c833bff" x="141.82712" y="307.584" style="stroke: #000000; stroke-width: 0.8"/>
      </g>
     </g>
     <g id="text_2">
      <!-- 1 Aug -->
      <g transform="translate(127.293526 322.182437) scale(0.1 -0.1)">
       <defs>
        <path id="DejaVuSans-41" d="M 2188 4044 
L 1331 1722 
L 3047 1722 
L 2188 4044 
z
M 1831 4666 
L 2547 4666 
L 4325 0 
L 3669 0 
L 3244 1197 
L 1141 1197 
L 716 0 
L 50 0 
L 1831 4666 
z
" transform="scale(0.015625)"/>
        <path id="DejaVuSans-67" d="M 2906 1791 
Q 2906 2416 2648 2759 
Q 2391 3103 1925 3103 
Q 1463 3103 1205 2759 
Q 947 2416 947 1791 
Q 947 1169 1205 825 
Q 1463 481 1925 481 
Q 2391 481 2648 825 
Q 2906 1169 2906 1791 
z
M 3481 434 
Q 3481 -459 3084 -895 
Q 2688 -1331 1869 -1331 
Q 1566 -1331 1297 -1286 
Q 1028 -1241 775 -1147 
L 775 -588 
Q 1028 -725 1275 -790 
Q 1522 -856 1778 -856 
Q 2344 -856 2625 -561 
Q 2906 -266 2906 331 
L 2906 616 
Q 2728 306 2450 153 
Q 2172 0 1784 0 
Q 1141 0 747 490 
Q 353 981 353 1791 
Q 353 2603 747 3093 
Q 1141 3584 1784 3584 
Q 2172 3584 2450 3431 
Q 2728 3278 2906 2969 
L 2906 3500 
L 3481 3500 
L 3481 434 
z
" transform="scale(0.015625)"/>
       </defs>
       <use xlink:href="#DejaVuSans-31"/>
       <use xlink:href="#DejaVuSans-20" transform="translate(63.623047 0)"/>
       <use xlink:href="#DejaVuSans-41" transform="translate(95.410156 0)"/>
       <use xlink:href="#DejaVuSans-75" transform="translate(163.818359 0)"/>
       <use xlink:href="#DejaVuSans-67" transform="translate(227.197266 0)"/>
      </g>
     </g>
    </g>
    <g id="xtick_3">
     <g id="line2d_3">
      <g>
       <use xlink:href="#m481c833bff" x="199.734432" y="307.584" style="stroke: #000000; stroke-width: 0.8"/>
      </g>
     </g>
     <g id="text_3">
      <!-- 1 Sep -->
      <g transform="translate(185.53912 322.182437) scale(0.1 -0.1)">
       <defs>
        <path id="DejaVuSans-53" d="M 3425 4513 
L 3425 3897 
Q 3066 4069 2747 4153 
Q 2428 4238 2131 4238 
Q 1616 4238 1336 4038 
Q 1056 3838 1056 3469 
Q 1056 3159 1242 3001 
Q 1428 2844 1947 2747 
L 2328 2669 
Q 3034 2534 3370 2195 
Q 3706 1856 3706 1288 
Q 3706 609 3251 259 
Q 2797 -91 1919 -91 
Q 1588 -91 1214 -16 
Q 841 59 441 206 
L 441 856 
Q 825 641 1194 531 
Q 1563 422 1919 422 
Q 2459 422 2753 634 
Q 3047 847 3047 1241 
Q 3047 1584 2836 1778 
Q 2625 1972 2144 2069 
L 1759 2144 
Q 1053 2284 737 2584 
Q 422 2884 422 3419 
Q 422 4038 858 4394 
Q 1294 4750 2059 4750 
Q 2388 4750 2728 4690 
Q 3069 4631 3425 4513 
z
" transform="scale(0.015625)"/>
        <path id="DejaVuSans-65" d="M 3597 1894 
L 3597 1613 
L 953 1613 
Q 991 1019 1311 708 
Q 1631 397 2203 397 
Q 2534 397 2845 478 
Q 3156 559 3463 722 
L 3463 178 
Q 3153 47 2828 -22 
Q 2503 -91 2169 -91 
Q 1331 -91 842 396 
Q 353 884 353 1716 
Q 353 2575 817 3079 
Q 1281 3584 2069 3584 
Q 2775 3584 3186 3129 
Q 3597 2675 3597 1894 
z
M 3022 2063 
Q 3016 2534 2758 2815 
Q 2500 3097 2075 3097 
Q 1594 3097 1305 2825 
Q 1016 2553 972 2059 
L 3022 2063 
z
" transform="scale(0.015625)"/>
        <path id="DejaVuSans-70" d="M 1159 525 
L 1159 -1331 
L 581 -1331 
L 581 3500 
L 1159 3500 
L 1159 2969 
Q 1341 3281 1617 3432 
Q 1894 3584 2278 3584 
Q 2916 3584 3314 3078 
Q 3713 2572 3713 1747 
Q 3713 922 3314 415 
Q 2916 -91 2278 -91 
Q 1894 -91 1617 61 
Q 1341 213 1159 525 
z
M 3116 1747 
Q 3116 2381 2855 2742 
Q 2594 3103 2138 3103 
Q 1681 3103 1420 2742 
Q 1159 2381 1159 1747 
Q 1159 1113 1420 752 
Q 1681 391 2138 391 
Q 2594 391 2855 752 
Q 3116 1113 3116 1747 
z
" transform="scale(0.015625)"/>
       </defs>
       <use xlink:href="#DejaVuSans-31"/>
       <use xlink:href="#DejaVuSans-20" transform="translate(63.623047 0)"/>
       <use xlink:href="#DejaVuSans-53" transform="translate(95.410156 0)"/>
       <use xlink:href="#DejaVuSans-65" transform="translate(158.886719 0)"/>
       <use xlink:href="#DejaVuSans-70" transform="translate(220.410156 0)"/>
      </g>
     </g>
    </g>
    <g id="xtick_4">
     <g id="line2d_4">
      <g>
       <use xlink:href="#m481c833bff" x="255.773767" y="307.584" style="stroke: #000000; stroke-width: 0.8"/>
      </g>
     </g>
     <g id="text_4">
      <!-- 1 Oct -->
      <g transform="translate(242.358142 322.182437) scale(0.1 -0.1)">
       <defs>
        <path id="DejaVuSans-4f" d="M 2522 4238 
Q 1834 4238 1429 3725 
Q 1025 3213 1025 2328 
Q 1025 1447 1429 934 
Q 1834 422 2522 422 
Q 3209 422 3611 934 
Q 4013 1447 4013 2328 
Q 4013 3213 3611 3725 
Q 3209 4238 2522 4238 
z
M 2522 4750 
Q 3503 4750 4090 4092 
Q 4678 3434 4678 2328 
Q 4678 1225 4090 567 
Q 3503 -91 2522 -91 
Q 1538 -91 948 565 
Q 359 1222 359 2328 
Q 359 3434 948 4092 
Q 1538 4750 2522 4750 
z
" transform="scale(0.015625)"/>
        <path id="DejaVuSans-63" d="M 3122 3366 
L 3122 2828 
Q 2878 2963 2633 3030 
Q 2388 3097 2138 3097 
Q 1578 3097 1268 2742 
Q 959 2388 959 1747 
Q 959 1106 1268 751 
Q 1578 397 2138 397 
Q 2388 397 2633 464 
Q 2878 531 3122 666 
L 3122 134 
Q 2881 22 2623 -34 
Q 2366 -91 2075 -91 
Q 1284 -91 818 406 
Q 353 903 353 1747 
Q 353 2603 823 3093 
Q 1294 3584 2113 3584 
Q 2378 3584 2631 3529 
Q 2884 3475 3122 3366 
z
" transform="scale(0.015625)"/>
        <path id="DejaVuSans-74" d="M 1172 4494 
L 1172 3500 
L 2356 3500 
L 2356 3053 
L 1172 3053 
L 1172 1153 
Q 1172 725 1289 603 
Q 1406 481 1766 481 
L 2356 481 
L 2356 0 
L 1766 0 
Q 1100 0 847 248 
Q 594 497 594 1153 
L 594 3053 
L 172 3053 
L 172 3500 
L 594 3500 
L 594 4494 
L 1172 4494 
z
" transform="scale(0.015625)"/>
       </defs>
       <use xlink:href="#DejaVuSans-31"/>
       <use xlink:href="#DejaVuSans-20" transform="translate(63.623047 0)"/>
       <use xlink:href="#DejaVuSans-4f" transform="translate(95.410156 0)"/>
       <use xlink:href="#DejaVuSans-63" transform="translate(174.121094 0)"/>
       <use xlink:href="#DejaVuSans-74" transform="translate(229.101562 0)"/>
      </g>
     </g>
    </g>
    <g id="xtick_5">
     <g id="line2d_5">
      <g>
       <use xlink:href="#m481c833bff" x="313.68108" y="307.584" style="stroke: #000000; stroke-width: 0.8"/>
      </g>
     </g>
     <g id="text_5">
      <!-- 1 Nov -->
      <g transform="translate(299.151392 322.182437) scale(0.1 -0.1)">
       <defs>
        <path id="DejaVuSans-4e" d="M 628 4666 
L 1478 4666 
L 3547 763 
L 3547 4666 
L 4159 4666 
L 4159 0 
L 3309 0 
L 1241 3903 
L 1241 0 
L 628 0 
L 628 4666 
z
" transform="scale(0.015625)"/>
        <path id="DejaVuSans-6f" d="M 1959 3097 
Q 1497 3097 1228 2736 
Q 959 2375 959 1747 
Q 959 1119 1226 758 
Q 1494 397 1959 397 
Q 2419 397 2687 759 
Q 2956 1122 2956 1747 
Q 2956 2369 2687 2733 
Q 2419 3097 1959 3097 
z
M 1959 3584 
Q 2709 3584 3137 3096 
Q 3566 2609 3566 1747 
Q 3566 888 3137 398 
Q 2709 -91 1959 -91 
Q 1206 -91 779 398 
Q 353 888 353 1747 
Q 353 2609 779 3096 
Q 1206 3584 1959 3584 
z
" transform="scale(0.015625)"/>
        <path id="DejaVuSans-76" d="M 191 3500 
L 800 3500 
L 1894 563 
L 2988 3500 
L 3597 3500 
L 2284 0 
L 1503 0 
L 191 3500 
z
" transform="scale(0.015625)"/>
       </defs>
       <use xlink:href="#DejaVuSans-31"/>
       <use xlink:href="#DejaVuSans-20" transform="translate(63.623047 0)"/>
       <use xlink:href="#DejaVuSans-4e" transform="translate(95.410156 0)"/>
       <use xlink:href="#DejaVuSans-6f" transform="translate(170.214844 0)"/>
       <use xlink:href="#DejaVuSans-76" transform="translate(231.396484 0)"/>
      </g>
     </g>
    </g>
    <g id="xtick_6">
     <g id="line2d_6">
      <g>
       <use xlink:href="#m481c833bff" x="369.720414" y="307.584" style="stroke: #000000; stroke-width: 0.8"/>
      </g>
     </g>
     <g id="text_6">
      <!-- 1 Dec -->
      <g transform="translate(355.274321 322.182437) scale(0.1 -0.1)">
       <defs>
        <path id="DejaVuSans-44" d="M 1259 4147 
L 1259 519 
L 2022 519 
Q 2988 519 3436 956 
Q 3884 1394 3884 2338 
Q 3884 3275 3436 3711 
Q 2988 4147 2022 4147 
L 1259 4147 
z
M 628 4666 
L 1925 4666 
Q 3281 4666 3915 4102 
Q 4550 3538 4550 2338 
Q 4550 1131 3912 565 
Q 3275 0 1925 0 
L 628 0 
L 628 4666 
z
" transform="scale(0.015625)"/>
       </defs>
       <use xlink:href="#DejaVuSans-31"/>
       <use xlink:href="#DejaVuSans-20" transform="translate(63.623047 0)"/>
       <use xlink:href="#DejaVuSans-44" transform="translate(95.410156 0)"/>
       <use xlink:href="#DejaVuSans-65" transform="translate(172.412109 0)"/>
       <use xlink:href="#DejaVuSans-63" transform="translate(233.935547 0)"/>
      </g>
     </g>
    </g>
   </g>
   <g id="matplotlib.axis_2">
    <g id="ytick_1">
     <g id="line2d_7">
      <defs>
       <path id="m624804bebe" d="M 0 0 
L -3.5 0 
" style="stroke: #000000; stroke-width: 0.8"/>
      </defs>
      <g>
       <use xlink:href="#m624804bebe" x="57.6" y="307.584" style="stroke: #000000; stroke-width: 0.8"/>
      </g>
     </g>
     <g id="text_7">
      <!-- 0 -->
      <g transform="translate(44.2375 311.383219) scale(0.1 -0.1)">
       <defs>
        <path id="DejaVuSans-30" d="M 2034 4250 
Q 1547 4250 1301 3770 
Q 1056 3291 1056 2328 
Q 1056 1369 1301 889 
Q 1547 409 2034 409 
Q 2525 409 2770 889 
Q 3016 1369 3016 2328 
Q 3016 3291 2770 3770 
Q 2525 4250 2034 4250 
z
M 2034 4750 
Q 2819 4750 3233 4129 
Q 3647 3509 3647 2328 
Q 3647 1150 3233 529 
Q 2819 -91 2034 -91 
Q 1250 -91 836 529 
Q 422 1150 422 2328 
Q 422 3509 836 4129 
Q 1250 4750 2034 4750 
z
" transform="scale(0.015625)"/>
       </defs>
       <use xlink:href="#DejaVuSans-30"/>
      </g>
     </g>
    </g>
    <g id="ytick_2">
     <g id="line2d_8">
      <g>
       <use xlink:href="#m624804bebe" x="57.6" y="274.32" style="stroke: #000000; stroke-width: 0.8"/>
      </g>
     </g>
     <g id="text_8">
      <!-- 1 -->
      <g transform="translate(44.2375 278.119219) scale(0.1 -0.1)">
       <use xlink:href="#DejaVuSans-31"/>
      </g>
     </g>
    </g>
    <g id="ytick_3">
     <g id="line2d_9">
      <g>
       <use xlink:href="#m624804bebe" x="57.6" y="241.056" style="stroke: #000000; stroke-width: 0.8"/>
      </g>
     </g>
     <g id="text_9">
      <!-- 2 -->
      <g transform="translate(44.2375 244.855219) scale(0.1 -0.1)">
       <defs>
        <path id="DejaVuSans-32" d="M 1228 531 
L 3431 531 
L 3431 0 
L 469 0 
L 469 531 
Q 828 903 1448 1529 
Q 2069 2156 2228 2338 
Q 2531 2678 2651 2914 
Q 2772 3150 2772 3378 
Q 2772 3750 2511 3984 
Q 2250 4219 1831 4219 
Q 1534 4219 1204 4116 
Q 875 4013 500 3803 
L 500 4441 
Q 881 4594 1212 4672 
Q 1544 4750 1819 4750 
Q 2544 4750 2975 4387 
Q 3406 4025 3406 3419 
Q 3406 3131 3298 2873 
Q 3191 2616 2906 2266 
Q 2828 2175 2409 1742 
Q 1991 1309 1228 531 
z
" transform="scale(0.015625)"/>
       </defs>
       <use xlink:href="#DejaVuSans-32"/>
      </g>
     </g>
    </g>
    <g id="ytick_4">
     <g id="line2d_10">
      <g>
       <use xlink:href="#m624804bebe" x="57.6" y="207.792" style="stroke: #000000; stroke-width: 0.8"/>
      </g>
     </g>
     <g id="text_10">
      <!-- 3 -->
      <g transform="translate(44.2375 211.591219) scale(0.1 -0.1)">
       <defs>
        <path id="DejaVuSans-33" d="M 2597 2516 
Q 3050 2419 3304 2112 
Q 3559 1806 3559 1356 
Q 3559 666 3084 287 
Q 2609 -91 1734 -91 
Q 1441 -91 1130 -33 
Q 819 25 488 141 
L 488 750 
Q 750 597 1062 519 
Q 1375 441 1716 441 
Q 2309 441 2620 675 
Q 2931 909 2931 1356 
Q 2931 1769 2642 2001 
Q 2353 2234 1838 2234 
L 1294 2234 
L 1294 2753 
L 1863 2753 
Q 2328 2753 2575 2939 
Q 2822 3125 2822 3475 
Q 2822 3834 2567 4026 
Q 2313 4219 1838 4219 
Q 1578 4219 1281 4162 
Q 984 4106 628 3988 
L 628 4550 
Q 988 4650 1302 4700 
Q 1616 4750 1894 4750 
Q 2613 4750 3031 4423 
Q 3450 4097 3450 3541 
Q 3450 3153 3228 2886 
Q 3006 2619 2597 2516 
z
" transform="scale(0.015625)"/>
       </defs>
       <use xlink:href="#DejaVuSans-33"/>
      </g>
     </g>
    </g>
    <g id="ytick_5">
     <g id="line2d_11">
      <g>
       <use xlink:href="#m624804bebe" x="57.6" y="174.528" style="stroke: #000000; stroke-width: 0.8"/>
      </g>
     </g>
     <g id="text_11">
      <!-- 4 -->
      <g transform="translate(44.2375 178.327219) scale(0.1 -0.1)">
       <defs>
        <path id="DejaVuSans-34" d="M 2419 4116 
L 825 1625 
L 2419 1625 
L 2419 4116 
z
M 2253 4666 
L 3047 4666 
L 3047 1625 
L 3713 1625 
L 3713 1100 
L 3047 1100 
L 3047 0 
L 2419 0 
L 2419 1100 
L 313 1100 
L 313 1709 
L 2253 4666 
z
" transform="scale(0.015625)"/>
       </defs>
       <use xlink:href="#DejaVuSans-34"/>
      </g>
     </g>
    </g>
    <g id="ytick_6">
     <g id="line2d_12">
      <g>
       <use xlink:href="#m624804bebe" x="57.6" y="141.264" style="stroke: #000000; stroke-width: 0.8"/>
      </g>
     </g>
     <g id="text_12">
      <!-- 5 -->
      <g transform="translate(44.2375 145.063219) scale(0.1 -0.1)">
       <defs>
        <path id="DejaVuSans-35" d="M 691 4666 
L 3169 4666 
L 3169 4134 
L 1269 4134 
L 1269 2991 
Q 1406 3038 1543 3061 
Q 1681 3084 1819 3084 
Q 2600 3084 3056 2656 
Q 3513 2228 3513 1497 
Q 3513 744 3044 326 
Q 2575 -91 1722 -91 
Q 1428 -91 1123 -41 
Q 819 9 494 109 
L 494 744 
Q 775 591 1075 516 
Q 1375 441 1709 441 
Q 2250 441 2565 725 
Q 2881 1009 2881 1497 
Q 2881 1984 2565 2268 
Q 2250 2553 1709 2553 
Q 1456 2553 1204 2497 
Q 953 2441 691 2322 
L 691 4666 
z
" transform="scale(0.015625)"/>
       </defs>
       <use xlink:href="#DejaVuSans-35"/>
      </g>
     </g>
    </g>
    <g id="ytick_7">
     <g id="line2d_13">
      <g>
       <use xlink:href="#m624804bebe" x="57.6" y="108" style="stroke: #000000; stroke-width: 0.8"/>
      </g>
     </g>
     <g id="text_13">
      <!-- 6 -->
      <g transform="translate(44.2375 111.799219) scale(0.1 -0.1)">
       <defs>
        <path id="DejaVuSans-36" d="M 2113 2584 
Q 1688 2584 1439 2293 
Q 1191 2003 1191 1497 
Q 1191 994 1439 701 
Q 1688 409 2113 409 
Q 2538 409 2786 701 
Q 3034 994 3034 1497 
Q 3034 2003 2786 2293 
Q 2538 2584 2113 2584 
z
M 3366 4563 
L 3366 3988 
Q 3128 4100 2886 4159 
Q 2644 4219 2406 4219 
Q 1781 4219 1451 3797 
Q 1122 3375 1075 2522 
Q 1259 2794 1537 2939 
Q 1816 3084 2150 3084 
Q 2853 3084 3261 2657 
Q 3669 2231 3669 1497 
Q 3669 778 3244 343 
Q 2819 -91 2113 -91 
Q 1303 -91 875 529 
Q 447 1150 447 2328 
Q 447 3434 972 4092 
Q 1497 4750 2381 4750 
Q 2619 4750 2861 4703 
Q 3103 4656 3366 4563 
z
" transform="scale(0.015625)"/>
       </defs>
       <use xlink:href="#DejaVuSans-36"/>
      </g>
     </g>
    </g>
    <g id="ytick_8">
     <g id="line2d_14">
      <g>
       <use xlink:href="#m624804bebe" x="57.6" y="74.736" style="stroke: #000000; stroke-width: 0.8"/>
      </g>
     </g>
     <g id="text_14">
      <!-- 7 -->
      <g transform="translate(44.2375 78.535219) scale(0.1 -0.1)">
       <defs>
        <path id="DejaVuSans-37" d="M 525 4666 
L 3525 4666 
L 3525 4397 
L 1831 0 
L 1172 0 
L 2766 4134 
L 525 4134 
L 525 4666 
z
" transform="scale(0.015625)"/>
       </defs>
       <use xlink:href="#DejaVuSans-37"/>
      </g>
     </g>
    </g>
    <g id="ytick_9">
     <g id="line2d_15">
      <g>
       <use xlink:href="#m624804bebe" x="57.6" y="41.472" style="stroke: #000000; stroke-width: 0.8"/>
      </g>
     </g>
     <g id="text_15">
      <!-- 8 -->
      <g transform="translate(44.2375 45.271219) scale(0.1 -0.1)">
       <defs>
        <path id="DejaVuSans-38" d="M 2034 2216 
Q 1584 2216 1326 1975 
Q 1069 1734 1069 1313 
Q 1069 891 1326 650 
Q 1584 409 2034 409 
Q 2484 409 2743 651 
Q 3003 894 3003 1313 
Q 3003 1734 2745 1975 
Q 2488 2216 2034 2216 
z
M 1403 2484 
Q 997 2584 770 2862 
Q 544 3141 544 3541 
Q 544 4100 942 4425 
Q 1341 4750 2034 4750 
Q 2731 4750 3128 4425 
Q 3525 4100 3525 3541 
Q 3525 3141 3298 2862 
Q 3072 2584 2669 2484 
Q 3125 2378 3379 2068 
Q 3634 1759 3634 1313 
Q 3634 634 3220 271 
Q 2806 -91 2034 -91 
Q 1263 -91 848 271 
Q 434 634 434 1313 
Q 434 1759 690 2068 
Q 947 2378 1403 2484 
z
M 1172 3481 
Q 1172 3119 1398 2916 
Q 1625 2713 2034 2713 
Q 2441 2713 2670 2916 
Q 2900 3119 2900 3481 
Q 2900 3844 2670 4047 
Q 2441 4250 2034 4250 
Q 1625 4250 1398 4047 
Q 1172 3844 1172 3481 
z
" transform="scale(0.015625)"/>
       </defs>
       <use xlink:href="#DejaVuSans-38"/>
      </g>
     </g>
    </g>
    <g id="text_16">
     <!-- Time-dependent reproduction number -->
     <g transform="translate(38.157812 270.173313) rotate(-90) scale(0.1 -0.1)">
      <defs>
       <path id="DejaVuSans-54" d="M -19 4666 
L 3928 4666 
L 3928 4134 
L 2272 4134 
L 2272 0 
L 1638 0 
L 1638 4134 
L -19 4134 
L -19 4666 
z
" transform="scale(0.015625)"/>
       <path id="DejaVuSans-69" d="M 603 3500 
L 1178 3500 
L 1178 0 
L 603 0 
L 603 3500 
z
M 603 4863 
L 1178 4863 
L 1178 4134 
L 603 4134 
L 603 4863 
z
" transform="scale(0.015625)"/>
       <path id="DejaVuSans-6d" d="M 3328 2828 
Q 3544 3216 3844 3400 
Q 4144 3584 4550 3584 
Q 5097 3584 5394 3201 
Q 5691 2819 5691 2113 
L 5691 0 
L 5113 0 
L 5113 2094 
Q 5113 2597 4934 2840 
Q 4756 3084 4391 3084 
Q 3944 3084 3684 2787 
Q 3425 2491 3425 1978 
L 3425 0 
L 2847 0 
L 2847 2094 
Q 2847 2600 2669 2842 
Q 2491 3084 2119 3084 
Q 1678 3084 1418 2786 
Q 1159 2488 1159 1978 
L 1159 0 
L 581 0 
L 581 3500 
L 1159 3500 
L 1159 2956 
Q 1356 3278 1631 3431 
Q 1906 3584 2284 3584 
Q 2666 3584 2933 3390 
Q 3200 3197 3328 2828 
z
" transform="scale(0.015625)"/>
       <path id="DejaVuSans-2d" d="M 313 2009 
L 1997 2009 
L 1997 1497 
L 313 1497 
L 313 2009 
z
" transform="scale(0.015625)"/>
       <path id="DejaVuSans-64" d="M 2906 2969 
L 2906 4863 
L 3481 4863 
L 3481 0 
L 2906 0 
L 2906 525 
Q 2725 213 2448 61 
Q 2172 -91 1784 -91 
Q 1150 -91 751 415 
Q 353 922 353 1747 
Q 353 2572 751 3078 
Q 1150 3584 1784 3584 
Q 2172 3584 2448 3432 
Q 2725 3281 2906 2969 
z
M 947 1747 
Q 947 1113 1208 752 
Q 1469 391 1925 391 
Q 2381 391 2643 752 
Q 2906 1113 2906 1747 
Q 2906 2381 2643 2742 
Q 2381 3103 1925 3103 
Q 1469 3103 1208 2742 
Q 947 2381 947 1747 
z
" transform="scale(0.015625)"/>
       <path id="DejaVuSans-6e" d="M 3513 2113 
L 3513 0 
L 2938 0 
L 2938 2094 
Q 2938 2591 2744 2837 
Q 2550 3084 2163 3084 
Q 1697 3084 1428 2787 
Q 1159 2491 1159 1978 
L 1159 0 
L 581 0 
L 581 3500 
L 1159 3500 
L 1159 2956 
Q 1366 3272 1645 3428 
Q 1925 3584 2291 3584 
Q 2894 3584 3203 3211 
Q 3513 2838 3513 2113 
z
" transform="scale(0.015625)"/>
       <path id="DejaVuSans-72" d="M 2631 2963 
Q 2534 3019 2420 3045 
Q 2306 3072 2169 3072 
Q 1681 3072 1420 2755 
Q 1159 2438 1159 1844 
L 1159 0 
L 581 0 
L 581 3500 
L 1159 3500 
L 1159 2956 
Q 1341 3275 1631 3429 
Q 1922 3584 2338 3584 
Q 2397 3584 2469 3576 
Q 2541 3569 2628 3553 
L 2631 2963 
z
" transform="scale(0.015625)"/>
       <path id="DejaVuSans-62" d="M 3116 1747 
Q 3116 2381 2855 2742 
Q 2594 3103 2138 3103 
Q 1681 3103 1420 2742 
Q 1159 2381 1159 1747 
Q 1159 1113 1420 752 
Q 1681 391 2138 391 
Q 2594 391 2855 752 
Q 3116 1113 3116 1747 
z
M 1159 2969 
Q 1341 3281 1617 3432 
Q 1894 3584 2278 3584 
Q 2916 3584 3314 3078 
Q 3713 2572 3713 1747 
Q 3713 922 3314 415 
Q 2916 -91 2278 -91 
Q 1894 -91 1617 61 
Q 1341 213 1159 525 
L 1159 0 
L 581 0 
L 581 4863 
L 1159 4863 
L 1159 2969 
z
" transform="scale(0.015625)"/>
      </defs>
      <use xlink:href="#DejaVuSans-54"/>
      <use xlink:href="#DejaVuSans-69" transform="translate(57.958984 0)"/>
      <use xlink:href="#DejaVuSans-6d" transform="translate(85.742188 0)"/>
      <use xlink:href="#DejaVuSans-65" transform="translate(183.154297 0)"/>
      <use xlink:href="#DejaVuSans-2d" transform="translate(244.677734 0)"/>
      <use xlink:href="#DejaVuSans-64" transform="translate(280.761719 0)"/>
      <use xlink:href="#DejaVuSans-65" transform="translate(344.238281 0)"/>
      <use xlink:href="#DejaVuSans-70" transform="translate(405.761719 0)"/>
      <use xlink:href="#DejaVuSans-65" transform="translate(469.238281 0)"/>
      <use xlink:href="#DejaVuSans-6e" transform="translate(530.761719 0)"/>
      <use xlink:href="#DejaVuSans-64" transform="translate(594.140625 0)"/>
      <use xlink:href="#DejaVuSans-65" transform="translate(657.617188 0)"/>
      <use xlink:href="#DejaVuSans-6e" transform="translate(719.140625 0)"/>
      <use xlink:href="#DejaVuSans-74" transform="translate(782.519531 0)"/>
      <use xlink:href="#DejaVuSans-20" transform="translate(821.728516 0)"/>
      <use xlink:href="#DejaVuSans-72" transform="translate(853.515625 0)"/>
      <use xlink:href="#DejaVuSans-65" transform="translate(892.378906 0)"/>
      <use xlink:href="#DejaVuSans-70" transform="translate(953.902344 0)"/>
      <use xlink:href="#DejaVuSans-72" transform="translate(1017.378906 0)"/>
      <use xlink:href="#DejaVuSans-6f" transform="translate(1056.242188 0)"/>
      <use xlink:href="#DejaVuSans-64" transform="translate(1117.423828 0)"/>
      <use xlink:href="#DejaVuSans-75" transform="translate(1180.900391 0)"/>
      <use xlink:href="#DejaVuSans-63" transform="translate(1244.279297 0)"/>
      <use xlink:href="#DejaVuSans-74" transform="translate(1299.259766 0)"/>
      <use xlink:href="#DejaVuSans-69" transform="translate(1338.46875 0)"/>
      <use xlink:href="#DejaVuSans-6f" transform="translate(1366.251953 0)"/>
      <use xlink:href="#DejaVuSans-6e" transform="translate(1427.433594 0)"/>
      <use xlink:href="#DejaVuSans-20" transform="translate(1490.8125 0)"/>
      <use xlink:href="#DejaVuSans-6e" transform="translate(1522.599609 0)"/>
      <use xlink:href="#DejaVuSans-75" transform="translate(1585.978516 0)"/>
      <use xlink:href="#DejaVuSans-6d" transform="translate(1649.357422 0)"/>
      <use xlink:href="#DejaVuSans-62" transform="translate(1746.769531 0)"/>
      <use xlink:href="#DejaVuSans-65" transform="translate(1810.246094 0)"/>
      <use xlink:href="#DejaVuSans-72" transform="translate(1871.769531 0)"/>
     </g>
    </g>
   </g>
   <g id="line2d_16">
    <path d="M 74.579918 245.560184 
L 76.447896 244.801759 
L 78.315874 246.229467 
L 80.183852 249.595194 
L 82.05183 252.584503 
L 85.787785 257.934104 
L 87.655763 260.160693 
L 89.523741 262.159472 
L 91.391719 263.819451 
L 93.259697 265.720676 
L 95.127674 266.902818 
L 96.995652 267.807815 
L 98.86363 268.169247 
L 100.731608 267.989672 
L 102.599586 267.436523 
L 104.467564 266.299954 
L 106.335541 264.971039 
L 108.203519 263.196956 
L 110.071497 261.088302 
L 111.939475 259.253953 
L 113.807453 256.915867 
L 115.67543 254.045396 
L 117.543408 251.991572 
L 119.411386 249.302943 
L 121.279364 247.356654 
L 123.147342 245.187005 
L 125.01532 243.782089 
L 126.883297 242.226145 
L 128.751275 241.334561 
L 130.619253 240.949445 
L 134.355209 239.477253 
L 136.223187 239.539072 
L 139.959142 238.187862 
L 141.82712 236.739815 
L 143.695098 233.820172 
L 145.563076 232.98796 
L 147.431053 233.270888 
L 149.299031 233.348947 
L 151.167009 232.663469 
L 153.034987 231.776275 
L 154.902965 230.594223 
L 156.770943 230.907224 
L 158.63892 229.108667 
L 160.506898 226.200021 
L 162.374876 221.81811 
L 166.110832 217.293907 
L 167.978809 214.950116 
L 169.846787 210.878104 
L 173.582743 204.32834 
L 175.450721 207.599065 
L 177.318699 212.004962 
L 181.054654 229.557461 
L 184.79061 243.972904 
L 186.658588 252.300433 
L 188.526566 257.148551 
L 190.394543 258.579027 
L 192.262521 262.036678 
L 194.130499 262.684101 
L 195.998477 261.937054 
L 197.866455 257.833273 
L 201.60241 252.725377 
L 203.470388 250.550896 
L 205.338366 247.268676 
L 207.206344 244.506053 
L 209.074322 244.952466 
L 210.942299 249.00077 
L 212.810277 251.615905 
L 214.678255 257.400219 
L 216.546233 258.152115 
L 218.414211 264.234899 
L 220.282189 271.352192 
L 222.150166 276.207846 
L 224.018144 279.405612 
L 225.886122 280.333459 
L 227.7541 280.147074 
L 229.622078 280.149411 
L 231.490055 282.74317 
L 233.358033 284.923007 
L 235.226011 287.626151 
L 238.961967 291.751216 
L 240.829945 293.413244 
L 242.697922 294.649991 
L 244.5659 295.63125 
L 246.433878 296.070046 
L 253.905789 296.780594 
L 259.509723 297.540448 
L 265.113656 297.337761 
L 266.981634 297.416098 
L 274.453545 297.183769 
L 278.189501 296.824203 
L 281.925457 296.259211 
L 285.661412 296.002654 
L 289.397368 295.513716 
L 293.133324 295.326979 
L 296.869279 294.987755 
L 300.605235 294.424354 
L 304.341191 293.665288 
L 308.077146 292.739736 
L 311.813102 292.246503 
L 319.285013 290.839356 
L 321.152991 290.489302 
L 324.888947 290.294855 
L 337.964791 289.246843 
L 339.832769 288.970645 
L 343.568725 288.58413 
L 360.380525 285.78146 
L 365.984459 284.798906 
L 380.928281 282.366423 
L 397.740082 279.860369 
L 397.740082 279.860369 
" clip-path="url(#p08ae47194d)" style="fill: none; stroke: #1f77b4; stroke-width: 1.5; stroke-linecap: square"/>
   </g>
   <g id="line2d_17">
    <path d="M 74.579918 203.474907 
L 76.447896 202.960967 
L 78.315874 208.066989 
L 80.183852 217.697509 
L 82.05183 226.345866 
L 83.919808 234.267387 
L 85.787785 241.497492 
L 87.655763 247.422245 
L 89.523741 252.565969 
L 93.259697 260.594417 
L 95.127674 263.638536 
L 96.995652 265.52315 
L 98.86363 266.75684 
L 100.731608 267.19807 
L 102.599586 266.961817 
L 104.467564 266.006383 
L 106.335541 264.601106 
L 108.203519 262.43301 
L 110.071497 259.683338 
L 111.939475 257.378038 
L 113.807453 254.65893 
L 115.67543 251.239475 
L 119.411386 245.495907 
L 121.279364 243.417318 
L 123.147342 240.991903 
L 125.01532 239.932195 
L 126.883297 238.049074 
L 128.751275 237.220822 
L 130.619253 237.372213 
L 132.487231 237.207602 
L 134.355209 237.524477 
L 136.223187 238.148057 
L 138.091164 237.738032 
L 139.959142 237.763747 
L 141.82712 235.698745 
L 143.695098 232.045181 
L 145.563076 231.554261 
L 147.431053 232.65042 
L 149.299031 233.11084 
L 151.167009 232.790062 
L 153.034987 232.005915 
L 154.902965 230.414781 
L 156.770943 231.778282 
L 158.63892 229.775928 
L 160.506898 226.139912 
L 162.374876 219.936283 
L 164.242854 216.868202 
L 167.978809 211.835374 
L 169.846787 205.879768 
L 171.714765 200.550432 
L 173.582743 194.642688 
L 175.450721 198.89558 
L 177.318699 203.55327 
L 179.186676 215.931686 
L 181.054654 227.088527 
L 184.79061 244.106389 
L 186.658588 254.458562 
L 188.526566 260.023406 
L 190.394543 260.786535 
L 192.262521 264.759027 
L 194.130499 265.205011 
L 195.998477 264.002725 
L 197.866455 258.306933 
L 199.734432 254.811469 
L 201.60241 251.703837 
L 203.470388 249.004673 
L 207.206344 240.101525 
L 209.074322 240.305278 
L 210.942299 245.661069 
L 212.810277 248.184605 
L 214.678255 255.548706 
L 216.546233 254.649781 
L 218.414211 261.962149 
L 220.282189 271.038793 
L 222.150166 277.032639 
L 224.018144 280.385876 
L 225.886122 280.823782 
L 229.622078 278.614286 
L 231.490055 281.620608 
L 233.358033 284.067253 
L 235.226011 287.525013 
L 237.093989 289.884192 
L 238.961967 292.431264 
L 240.829945 294.520751 
L 244.5659 297.129281 
L 246.433878 297.690855 
L 250.169834 298.015198 
L 252.037811 298.572313 
L 253.905789 298.74514 
L 255.773767 299.350907 
L 257.641745 300.119463 
L 259.509723 300.360187 
L 263.245678 300.480159 
L 270.71759 301.362285 
L 272.585568 301.388786 
L 274.453545 301.531591 
L 278.189501 301.341785 
L 280.057479 301.105289 
L 281.925457 301.030687 
L 285.661412 301.291354 
L 289.397368 301.13317 
L 295.001301 301.517438 
L 298.737257 301.494638 
L 304.341191 301.240429 
L 308.077146 300.806809 
L 313.68108 301.045772 
L 319.285013 301.196195 
L 321.152991 301.19705 
L 323.020969 301.634434 
L 328.624902 302.4556 
L 334.228836 303.099728 
L 341.700747 303.816275 
L 356.64457 304.654066 
L 360.380525 304.752455 
L 379.060303 305.4028 
L 397.740082 305.788164 
L 397.740082 305.788164 
" clip-path="url(#p08ae47194d)" style="fill: none; stroke: #ff7f0e; stroke-width: 1.5; stroke-linecap: square"/>
   </g>
   <g id="patch_3">
    <path d="M 57.6 307.584 
L 57.6 41.472 
" style="fill: none; stroke: #000000; stroke-width: 0.8; stroke-linejoin: miter; stroke-linecap: square"/>
   </g>
   <g id="patch_4">
    <path d="M 414.72 307.584 
L 414.72 41.472 
" style="fill: none; stroke: #000000; stroke-width: 0.8; stroke-linejoin: miter; stroke-linecap: square"/>
   </g>
   <g id="patch_5">
    <path d="M 57.6 307.584 
L 414.72 307.584 
" style="fill: none; stroke: #000000; stroke-width: 0.8; stroke-linejoin: miter; stroke-linecap: square"/>
   </g>
   <g id="patch_6">
    <path d="M 57.6 41.472 
L 414.72 41.472 
" style="fill: none; stroke: #000000; stroke-width: 0.8; stroke-linejoin: miter; stroke-linecap: square"/>
   </g>
   <g id="legend_1">
    <g id="patch_7">
     <path d="M 266.490313 78.82825 
L 407.72 78.82825 
Q 409.72 78.82825 409.72 76.82825 
L 409.72 48.472 
Q 409.72 46.472 407.72 46.472 
L 266.490313 46.472 
Q 264.490313 46.472 264.490313 48.472 
L 264.490313 76.82825 
Q 264.490313 78.82825 266.490313 78.82825 
z
" style="fill: #ffffff; opacity: 0.8; stroke: #cccccc; stroke-linejoin: miter"/>
    </g>
    <g id="line2d_18">
     <path d="M 268.490313 54.570437 
L 278.490313 54.570437 
L 288.490313 54.570437 
" style="fill: none; stroke: #1f77b4; stroke-width: 1.5; stroke-linecap: square"/>
    </g>
    <g id="text_17">
     <!-- Autoregressive model -->
     <g transform="translate(296.490313 58.070437) scale(0.1 -0.1)">
      <defs>
       <path id="DejaVuSans-73" d="M 2834 3397 
L 2834 2853 
Q 2591 2978 2328 3040 
Q 2066 3103 1784 3103 
Q 1356 3103 1142 2972 
Q 928 2841 928 2578 
Q 928 2378 1081 2264 
Q 1234 2150 1697 2047 
L 1894 2003 
Q 2506 1872 2764 1633 
Q 3022 1394 3022 966 
Q 3022 478 2636 193 
Q 2250 -91 1575 -91 
Q 1294 -91 989 -36 
Q 684 19 347 128 
L 347 722 
Q 666 556 975 473 
Q 1284 391 1588 391 
Q 1994 391 2212 530 
Q 2431 669 2431 922 
Q 2431 1156 2273 1281 
Q 2116 1406 1581 1522 
L 1381 1569 
Q 847 1681 609 1914 
Q 372 2147 372 2553 
Q 372 3047 722 3315 
Q 1072 3584 1716 3584 
Q 2034 3584 2315 3537 
Q 2597 3491 2834 3397 
z
" transform="scale(0.015625)"/>
      </defs>
      <use xlink:href="#DejaVuSans-41"/>
      <use xlink:href="#DejaVuSans-75" transform="translate(68.408203 0)"/>
      <use xlink:href="#DejaVuSans-74" transform="translate(131.787109 0)"/>
      <use xlink:href="#DejaVuSans-6f" transform="translate(170.996094 0)"/>
      <use xlink:href="#DejaVuSans-72" transform="translate(232.177734 0)"/>
      <use xlink:href="#DejaVuSans-65" transform="translate(271.041016 0)"/>
      <use xlink:href="#DejaVuSans-67" transform="translate(332.564453 0)"/>
      <use xlink:href="#DejaVuSans-72" transform="translate(396.041016 0)"/>
      <use xlink:href="#DejaVuSans-65" transform="translate(434.904297 0)"/>
      <use xlink:href="#DejaVuSans-73" transform="translate(496.427734 0)"/>
      <use xlink:href="#DejaVuSans-73" transform="translate(548.527344 0)"/>
      <use xlink:href="#DejaVuSans-69" transform="translate(600.626953 0)"/>
      <use xlink:href="#DejaVuSans-76" transform="translate(628.410156 0)"/>
      <use xlink:href="#DejaVuSans-65" transform="translate(687.589844 0)"/>
      <use xlink:href="#DejaVuSans-20" transform="translate(749.113281 0)"/>
      <use xlink:href="#DejaVuSans-6d" transform="translate(780.900391 0)"/>
      <use xlink:href="#DejaVuSans-6f" transform="translate(878.3125 0)"/>
      <use xlink:href="#DejaVuSans-64" transform="translate(939.494141 0)"/>
      <use xlink:href="#DejaVuSans-65" transform="translate(1002.970703 0)"/>
      <use xlink:href="#DejaVuSans-6c" transform="translate(1064.494141 0)"/>
     </g>
    </g>
    <g id="line2d_19">
     <path d="M 268.490313 69.248562 
L 278.490313 69.248562 
L 288.490313 69.248562 
" style="fill: none; stroke: #ff7f0e; stroke-width: 1.5; stroke-linecap: square"/>
    </g>
    <g id="text_18">
     <!-- Suitability model -->
     <g transform="translate(296.490313 72.748562) scale(0.1 -0.1)">
      <defs>
       <path id="DejaVuSans-61" d="M 2194 1759 
Q 1497 1759 1228 1600 
Q 959 1441 959 1056 
Q 959 750 1161 570 
Q 1363 391 1709 391 
Q 2188 391 2477 730 
Q 2766 1069 2766 1631 
L 2766 1759 
L 2194 1759 
z
M 3341 1997 
L 3341 0 
L 2766 0 
L 2766 531 
Q 2569 213 2275 61 
Q 1981 -91 1556 -91 
Q 1019 -91 701 211 
Q 384 513 384 1019 
Q 384 1609 779 1909 
Q 1175 2209 1959 2209 
L 2766 2209 
L 2766 2266 
Q 2766 2663 2505 2880 
Q 2244 3097 1772 3097 
Q 1472 3097 1187 3025 
Q 903 2953 641 2809 
L 641 3341 
Q 956 3463 1253 3523 
Q 1550 3584 1831 3584 
Q 2591 3584 2966 3190 
Q 3341 2797 3341 1997 
z
" transform="scale(0.015625)"/>
       <path id="DejaVuSans-79" d="M 2059 -325 
Q 1816 -950 1584 -1140 
Q 1353 -1331 966 -1331 
L 506 -1331 
L 506 -850 
L 844 -850 
Q 1081 -850 1212 -737 
Q 1344 -625 1503 -206 
L 1606 56 
L 191 3500 
L 800 3500 
L 1894 763 
L 2988 3500 
L 3597 3500 
L 2059 -325 
z
" transform="scale(0.015625)"/>
      </defs>
      <use xlink:href="#DejaVuSans-53"/>
      <use xlink:href="#DejaVuSans-75" transform="translate(63.476562 0)"/>
      <use xlink:href="#DejaVuSans-69" transform="translate(126.855469 0)"/>
      <use xlink:href="#DejaVuSans-74" transform="translate(154.638672 0)"/>
      <use xlink:href="#DejaVuSans-61" transform="translate(193.847656 0)"/>
      <use xlink:href="#DejaVuSans-62" transform="translate(255.126953 0)"/>
      <use xlink:href="#DejaVuSans-69" transform="translate(318.603516 0)"/>
      <use xlink:href="#DejaVuSans-6c" transform="translate(346.386719 0)"/>
      <use xlink:href="#DejaVuSans-69" transform="translate(374.169922 0)"/>
      <use xlink:href="#DejaVuSans-74" transform="translate(401.953125 0)"/>
      <use xlink:href="#DejaVuSans-79" transform="translate(441.162109 0)"/>
      <use xlink:href="#DejaVuSans-20" transform="translate(500.341797 0)"/>
      <use xlink:href="#DejaVuSans-6d" transform="translate(532.128906 0)"/>
      <use xlink:href="#DejaVuSans-6f" transform="translate(629.541016 0)"/>
      <use xlink:href="#DejaVuSans-64" transform="translate(690.722656 0)"/>
      <use xlink:href="#DejaVuSans-65" transform="translate(754.199219 0)"/>
      <use xlink:href="#DejaVuSans-6c" transform="translate(815.722656 0)"/>
     </g>
    </g>
   </g>
  </g>
  <g id="axes_2">
   <g id="patch_8">
    <path d="M 73.832727 307.584 
L 75.32711 307.584 
L 75.32711 272.1024 
L 73.832727 272.1024 
z
" clip-path="url(#p08ae47194d)" style="fill: #7f7f7f; opacity: 0.5"/>
   </g>
   <g id="patch_9">
    <path d="M 75.700705 307.584 
L 77.195087 307.584 
L 77.195087 272.1024 
L 75.700705 272.1024 
z
" clip-path="url(#p08ae47194d)" style="fill: #7f7f7f; opacity: 0.5"/>
   </g>
   <g id="patch_10">
    <path d="M 77.568683 307.584 
L 79.063065 307.584 
L 79.063065 272.1024 
L 77.568683 272.1024 
z
" clip-path="url(#p08ae47194d)" style="fill: #7f7f7f; opacity: 0.5"/>
   </g>
   <g id="patch_11">
    <path d="M 79.436661 307.584 
L 80.931043 307.584 
L 80.931043 307.584 
L 79.436661 307.584 
z
" clip-path="url(#p08ae47194d)" style="fill: #7f7f7f; opacity: 0.5"/>
   </g>
   <g id="patch_12">
    <path d="M 81.304639 307.584 
L 82.799021 307.584 
L 82.799021 307.584 
L 81.304639 307.584 
z
" clip-path="url(#p08ae47194d)" style="fill: #7f7f7f; opacity: 0.5"/>
   </g>
   <g id="patch_13">
    <path d="M 83.172616 307.584 
L 84.666999 307.584 
L 84.666999 307.584 
L 83.172616 307.584 
z
" clip-path="url(#p08ae47194d)" style="fill: #7f7f7f; opacity: 0.5"/>
   </g>
   <g id="patch_14">
    <path d="M 85.040594 307.584 
L 86.534976 307.584 
L 86.534976 307.584 
L 85.040594 307.584 
z
" clip-path="url(#p08ae47194d)" style="fill: #7f7f7f; opacity: 0.5"/>
   </g>
   <g id="patch_15">
    <path d="M 86.908572 307.584 
L 88.402954 307.584 
L 88.402954 307.584 
L 86.908572 307.584 
z
" clip-path="url(#p08ae47194d)" style="fill: #7f7f7f; opacity: 0.5"/>
   </g>
   <g id="patch_16">
    <path d="M 88.77655 307.584 
L 90.270932 307.584 
L 90.270932 307.584 
L 88.77655 307.584 
z
" clip-path="url(#p08ae47194d)" style="fill: #7f7f7f; opacity: 0.5"/>
   </g>
   <g id="patch_17">
    <path d="M 90.644528 307.584 
L 92.13891 307.584 
L 92.13891 289.8432 
L 90.644528 289.8432 
z
" clip-path="url(#p08ae47194d)" style="fill: #7f7f7f; opacity: 0.5"/>
   </g>
   <g id="patch_18">
    <path d="M 92.512505 307.584 
L 94.006888 307.584 
L 94.006888 307.584 
L 92.512505 307.584 
z
" clip-path="url(#p08ae47194d)" style="fill: #7f7f7f; opacity: 0.5"/>
   </g>
   <g id="patch_19">
    <path d="M 94.380483 307.584 
L 95.874866 307.584 
L 95.874866 307.584 
L 94.380483 307.584 
z
" clip-path="url(#p08ae47194d)" style="fill: #7f7f7f; opacity: 0.5"/>
   </g>
   <g id="patch_20">
    <path d="M 96.248461 307.584 
L 97.742843 307.584 
L 97.742843 307.584 
L 96.248461 307.584 
z
" clip-path="url(#p08ae47194d)" style="fill: #7f7f7f; opacity: 0.5"/>
   </g>
   <g id="patch_21">
    <path d="M 98.116439 307.584 
L 99.610821 307.584 
L 99.610821 307.584 
L 98.116439 307.584 
z
" clip-path="url(#p08ae47194d)" style="fill: #7f7f7f; opacity: 0.5"/>
   </g>
   <g id="patch_22">
    <path d="M 99.984417 307.584 
L 101.478799 307.584 
L 101.478799 307.584 
L 99.984417 307.584 
z
" clip-path="url(#p08ae47194d)" style="fill: #7f7f7f; opacity: 0.5"/>
   </g>
   <g id="patch_23">
    <path d="M 101.852395 307.584 
L 103.346777 307.584 
L 103.346777 307.584 
L 101.852395 307.584 
z
" clip-path="url(#p08ae47194d)" style="fill: #7f7f7f; opacity: 0.5"/>
   </g>
   <g id="patch_24">
    <path d="M 103.720372 307.584 
L 105.214755 307.584 
L 105.214755 307.584 
L 103.720372 307.584 
z
" clip-path="url(#p08ae47194d)" style="fill: #7f7f7f; opacity: 0.5"/>
   </g>
   <g id="patch_25">
    <path d="M 105.58835 307.584 
L 107.082733 307.584 
L 107.082733 307.584 
L 105.58835 307.584 
z
" clip-path="url(#p08ae47194d)" style="fill: #7f7f7f; opacity: 0.5"/>
   </g>
   <g id="patch_26">
    <path d="M 107.456328 307.584 
L 108.95071 307.584 
L 108.95071 307.584 
L 107.456328 307.584 
z
" clip-path="url(#p08ae47194d)" style="fill: #7f7f7f; opacity: 0.5"/>
   </g>
   <g id="patch_27">
    <path d="M 109.324306 307.584 
L 110.818688 307.584 
L 110.818688 289.8432 
L 109.324306 289.8432 
z
" clip-path="url(#p08ae47194d)" style="fill: #7f7f7f; opacity: 0.5"/>
   </g>
   <g id="patch_28">
    <path d="M 111.192284 307.584 
L 112.686666 307.584 
L 112.686666 307.584 
L 111.192284 307.584 
z
" clip-path="url(#p08ae47194d)" style="fill: #7f7f7f; opacity: 0.5"/>
   </g>
   <g id="patch_29">
    <path d="M 113.060262 307.584 
L 114.554644 307.584 
L 114.554644 307.584 
L 113.060262 307.584 
z
" clip-path="url(#p08ae47194d)" style="fill: #7f7f7f; opacity: 0.5"/>
   </g>
   <g id="patch_30">
    <path d="M 114.928239 307.584 
L 116.422622 307.584 
L 116.422622 289.8432 
L 114.928239 289.8432 
z
" clip-path="url(#p08ae47194d)" style="fill: #7f7f7f; opacity: 0.5"/>
   </g>
   <g id="patch_31">
    <path d="M 116.796217 307.584 
L 118.290599 307.584 
L 118.290599 307.584 
L 116.796217 307.584 
z
" clip-path="url(#p08ae47194d)" style="fill: #7f7f7f; opacity: 0.5"/>
   </g>
   <g id="patch_32">
    <path d="M 118.664195 307.584 
L 120.158577 307.584 
L 120.158577 289.8432 
L 118.664195 289.8432 
z
" clip-path="url(#p08ae47194d)" style="fill: #7f7f7f; opacity: 0.5"/>
   </g>
   <g id="patch_33">
    <path d="M 120.532173 307.584 
L 122.026555 307.584 
L 122.026555 307.584 
L 120.532173 307.584 
z
" clip-path="url(#p08ae47194d)" style="fill: #7f7f7f; opacity: 0.5"/>
   </g>
   <g id="patch_34">
    <path d="M 122.400151 307.584 
L 123.894533 307.584 
L 123.894533 289.8432 
L 122.400151 289.8432 
z
" clip-path="url(#p08ae47194d)" style="fill: #7f7f7f; opacity: 0.5"/>
   </g>
   <g id="patch_35">
    <path d="M 124.268128 307.584 
L 125.762511 307.584 
L 125.762511 307.584 
L 124.268128 307.584 
z
" clip-path="url(#p08ae47194d)" style="fill: #7f7f7f; opacity: 0.5"/>
   </g>
   <g id="patch_36">
    <path d="M 126.136106 307.584 
L 127.630489 307.584 
L 127.630489 289.8432 
L 126.136106 289.8432 
z
" clip-path="url(#p08ae47194d)" style="fill: #7f7f7f; opacity: 0.5"/>
   </g>
   <g id="patch_37">
    <path d="M 128.004084 307.584 
L 129.498466 307.584 
L 129.498466 289.8432 
L 128.004084 289.8432 
z
" clip-path="url(#p08ae47194d)" style="fill: #7f7f7f; opacity: 0.5"/>
   </g>
   <g id="patch_38">
    <path d="M 129.872062 307.584 
L 131.366444 307.584 
L 131.366444 307.584 
L 129.872062 307.584 
z
" clip-path="url(#p08ae47194d)" style="fill: #7f7f7f; opacity: 0.5"/>
   </g>
   <g id="patch_39">
    <path d="M 131.74004 307.584 
L 133.234422 307.584 
L 133.234422 289.8432 
L 131.74004 289.8432 
z
" clip-path="url(#p08ae47194d)" style="fill: #7f7f7f; opacity: 0.5"/>
   </g>
   <g id="patch_40">
    <path d="M 133.608018 307.584 
L 135.1024 307.584 
L 135.1024 289.8432 
L 133.608018 289.8432 
z
" clip-path="url(#p08ae47194d)" style="fill: #7f7f7f; opacity: 0.5"/>
   </g>
   <g id="patch_41">
    <path d="M 135.475995 307.584 
L 136.970378 307.584 
L 136.970378 307.584 
L 135.475995 307.584 
z
" clip-path="url(#p08ae47194d)" style="fill: #7f7f7f; opacity: 0.5"/>
   </g>
   <g id="patch_42">
    <path d="M 137.343973 307.584 
L 138.838355 307.584 
L 138.838355 289.8432 
L 137.343973 289.8432 
z
" clip-path="url(#p08ae47194d)" style="fill: #7f7f7f; opacity: 0.5"/>
   </g>
   <g id="patch_43">
    <path d="M 139.211951 307.584 
L 140.706333 307.584 
L 140.706333 307.584 
L 139.211951 307.584 
z
" clip-path="url(#p08ae47194d)" style="fill: #7f7f7f; opacity: 0.5"/>
   </g>
   <g id="patch_44">
    <path d="M 141.079929 307.584 
L 142.574311 307.584 
L 142.574311 307.584 
L 141.079929 307.584 
z
" clip-path="url(#p08ae47194d)" style="fill: #7f7f7f; opacity: 0.5"/>
   </g>
   <g id="patch_45">
    <path d="M 142.947907 307.584 
L 144.442289 307.584 
L 144.442289 254.3616 
L 142.947907 254.3616 
z
" clip-path="url(#p08ae47194d)" style="fill: #7f7f7f; opacity: 0.5"/>
   </g>
   <g id="patch_46">
    <path d="M 144.815885 307.584 
L 146.310267 307.584 
L 146.310267 272.1024 
L 144.815885 272.1024 
z
" clip-path="url(#p08ae47194d)" style="fill: #7f7f7f; opacity: 0.5"/>
   </g>
   <g id="patch_47">
    <path d="M 146.683862 307.584 
L 148.178245 307.584 
L 148.178245 289.8432 
L 146.683862 289.8432 
z
" clip-path="url(#p08ae47194d)" style="fill: #7f7f7f; opacity: 0.5"/>
   </g>
   <g id="patch_48">
    <path d="M 148.55184 307.584 
L 150.046222 307.584 
L 150.046222 289.8432 
L 148.55184 289.8432 
z
" clip-path="url(#p08ae47194d)" style="fill: #7f7f7f; opacity: 0.5"/>
   </g>
   <g id="patch_49">
    <path d="M 150.419818 307.584 
L 151.9142 307.584 
L 151.9142 289.8432 
L 150.419818 289.8432 
z
" clip-path="url(#p08ae47194d)" style="fill: #7f7f7f; opacity: 0.5"/>
   </g>
   <g id="patch_50">
    <path d="M 152.287796 307.584 
L 153.782178 307.584 
L 153.782178 289.8432 
L 152.287796 289.8432 
z
" clip-path="url(#p08ae47194d)" style="fill: #7f7f7f; opacity: 0.5"/>
   </g>
   <g id="patch_51">
    <path d="M 154.155774 307.584 
L 155.650156 307.584 
L 155.650156 254.3616 
L 154.155774 254.3616 
z
" clip-path="url(#p08ae47194d)" style="fill: #7f7f7f; opacity: 0.5"/>
   </g>
   <g id="patch_52">
    <path d="M 156.023751 307.584 
L 157.518134 307.584 
L 157.518134 307.584 
L 156.023751 307.584 
z
" clip-path="url(#p08ae47194d)" style="fill: #7f7f7f; opacity: 0.5"/>
   </g>
   <g id="patch_53">
    <path d="M 157.891729 307.584 
L 159.386112 307.584 
L 159.386112 289.8432 
L 157.891729 289.8432 
z
" clip-path="url(#p08ae47194d)" style="fill: #7f7f7f; opacity: 0.5"/>
   </g>
   <g id="patch_54">
    <path d="M 159.759707 307.584 
L 161.254089 307.584 
L 161.254089 289.8432 
L 159.759707 289.8432 
z
" clip-path="url(#p08ae47194d)" style="fill: #7f7f7f; opacity: 0.5"/>
   </g>
   <g id="patch_55">
    <path d="M 161.627685 307.584 
L 163.122067 307.584 
L 163.122067 236.6208 
L 161.627685 236.6208 
z
" clip-path="url(#p08ae47194d)" style="fill: #7f7f7f; opacity: 0.5"/>
   </g>
   <g id="patch_56">
    <path d="M 163.495663 307.584 
L 164.990045 307.584 
L 164.990045 254.3616 
L 163.495663 254.3616 
z
" clip-path="url(#p08ae47194d)" style="fill: #7f7f7f; opacity: 0.5"/>
   </g>
   <g id="patch_57">
    <path d="M 165.363641 307.584 
L 166.858023 307.584 
L 166.858023 254.3616 
L 165.363641 254.3616 
z
" clip-path="url(#p08ae47194d)" style="fill: #7f7f7f; opacity: 0.5"/>
   </g>
   <g id="patch_58">
    <path d="M 167.231618 307.584 
L 168.726001 307.584 
L 168.726001 272.1024 
L 167.231618 272.1024 
z
" clip-path="url(#p08ae47194d)" style="fill: #7f7f7f; opacity: 0.5"/>
   </g>
   <g id="patch_59">
    <path d="M 169.099596 307.584 
L 170.593978 307.584 
L 170.593978 236.6208 
L 169.099596 236.6208 
z
" clip-path="url(#p08ae47194d)" style="fill: #7f7f7f; opacity: 0.5"/>
   </g>
   <g id="patch_60">
    <path d="M 170.967574 307.584 
L 172.461956 307.584 
L 172.461956 236.6208 
L 170.967574 236.6208 
z
" clip-path="url(#p08ae47194d)" style="fill: #7f7f7f; opacity: 0.5"/>
   </g>
   <g id="patch_61">
    <path d="M 172.835552 307.584 
L 174.329934 307.584 
L 174.329934 165.6576 
L 172.835552 165.6576 
z
" clip-path="url(#p08ae47194d)" style="fill: #7f7f7f; opacity: 0.5"/>
   </g>
   <g id="patch_62">
    <path d="M 174.70353 307.584 
L 176.197912 307.584 
L 176.197912 218.88 
L 174.70353 218.88 
z
" clip-path="url(#p08ae47194d)" style="fill: #7f7f7f; opacity: 0.5"/>
   </g>
   <g id="patch_63">
    <path d="M 176.571507 307.584 
L 178.06589 307.584 
L 178.06589 165.6576 
L 176.571507 165.6576 
z
" clip-path="url(#p08ae47194d)" style="fill: #7f7f7f; opacity: 0.5"/>
   </g>
   <g id="patch_64">
    <path d="M 178.439485 307.584 
L 179.933868 307.584 
L 179.933868 218.88 
L 178.439485 218.88 
z
" clip-path="url(#p08ae47194d)" style="fill: #7f7f7f; opacity: 0.5"/>
   </g>
   <g id="patch_65">
    <path d="M 180.307463 307.584 
L 181.801845 307.584 
L 181.801845 236.6208 
L 180.307463 236.6208 
z
" clip-path="url(#p08ae47194d)" style="fill: #7f7f7f; opacity: 0.5"/>
   </g>
   <g id="patch_66">
    <path d="M 182.175441 307.584 
L 183.669823 307.584 
L 183.669823 218.88 
L 182.175441 218.88 
z
" clip-path="url(#p08ae47194d)" style="fill: #7f7f7f; opacity: 0.5"/>
   </g>
   <g id="patch_67">
    <path d="M 184.043419 307.584 
L 185.537801 307.584 
L 185.537801 183.3984 
L 184.043419 183.3984 
z
" clip-path="url(#p08ae47194d)" style="fill: #7f7f7f; opacity: 0.5"/>
   </g>
   <g id="patch_68">
    <path d="M 185.911397 307.584 
L 187.405779 307.584 
L 187.405779 272.1024 
L 185.911397 272.1024 
z
" clip-path="url(#p08ae47194d)" style="fill: #7f7f7f; opacity: 0.5"/>
   </g>
   <g id="patch_69">
    <path d="M 187.779374 307.584 
L 189.273757 307.584 
L 189.273757 289.8432 
L 187.779374 289.8432 
z
" clip-path="url(#p08ae47194d)" style="fill: #7f7f7f; opacity: 0.5"/>
   </g>
   <g id="patch_70">
    <path d="M 189.647352 307.584 
L 191.141734 307.584 
L 191.141734 165.6576 
L 189.647352 165.6576 
z
" clip-path="url(#p08ae47194d)" style="fill: #7f7f7f; opacity: 0.5"/>
   </g>
   <g id="patch_71">
    <path d="M 191.51533 307.584 
L 193.009712 307.584 
L 193.009712 272.1024 
L 191.51533 272.1024 
z
" clip-path="url(#p08ae47194d)" style="fill: #7f7f7f; opacity: 0.5"/>
   </g>
   <g id="patch_72">
    <path d="M 193.383308 307.584 
L 194.87769 307.584 
L 194.87769 236.6208 
L 193.383308 236.6208 
z
" clip-path="url(#p08ae47194d)" style="fill: #7f7f7f; opacity: 0.5"/>
   </g>
   <g id="patch_73">
    <path d="M 195.251286 307.584 
L 196.745668 307.584 
L 196.745668 272.1024 
L 195.251286 272.1024 
z
" clip-path="url(#p08ae47194d)" style="fill: #7f7f7f; opacity: 0.5"/>
   </g>
   <g id="patch_74">
    <path d="M 197.119264 307.584 
L 198.613646 307.584 
L 198.613646 147.9168 
L 197.119264 147.9168 
z
" clip-path="url(#p08ae47194d)" style="fill: #7f7f7f; opacity: 0.5"/>
   </g>
   <g id="patch_75">
    <path d="M 198.987241 307.584 
L 200.481624 307.584 
L 200.481624 165.6576 
L 198.987241 165.6576 
z
" clip-path="url(#p08ae47194d)" style="fill: #7f7f7f; opacity: 0.5"/>
   </g>
   <g id="patch_76">
    <path d="M 200.855219 307.584 
L 202.349601 307.584 
L 202.349601 165.6576 
L 200.855219 165.6576 
z
" clip-path="url(#p08ae47194d)" style="fill: #7f7f7f; opacity: 0.5"/>
   </g>
   <g id="patch_77">
    <path d="M 202.723197 307.584 
L 204.217579 307.584 
L 204.217579 183.3984 
L 202.723197 183.3984 
z
" clip-path="url(#p08ae47194d)" style="fill: #7f7f7f; opacity: 0.5"/>
   </g>
   <g id="patch_78">
    <path d="M 204.591175 307.584 
L 206.085557 307.584 
L 206.085557 147.9168 
L 204.591175 147.9168 
z
" clip-path="url(#p08ae47194d)" style="fill: #7f7f7f; opacity: 0.5"/>
   </g>
   <g id="patch_79">
    <path d="M 206.459153 307.584 
L 207.953535 307.584 
L 207.953535 94.6944 
L 206.459153 94.6944 
z
" clip-path="url(#p08ae47194d)" style="fill: #7f7f7f; opacity: 0.5"/>
   </g>
   <g id="patch_80">
    <path d="M 208.32713 307.584 
L 209.821513 307.584 
L 209.821513 94.6944 
L 208.32713 94.6944 
z
" clip-path="url(#p08ae47194d)" style="fill: #7f7f7f; opacity: 0.5"/>
   </g>
   <g id="patch_81">
    <path d="M 210.195108 307.584 
L 211.689491 307.584 
L 211.689491 183.3984 
L 210.195108 183.3984 
z
" clip-path="url(#p08ae47194d)" style="fill: #7f7f7f; opacity: 0.5"/>
   </g>
   <g id="patch_82">
    <path d="M 212.063086 307.584 
L 213.557468 307.584 
L 213.557468 94.6944 
L 212.063086 94.6944 
z
" clip-path="url(#p08ae47194d)" style="fill: #7f7f7f; opacity: 0.5"/>
   </g>
   <g id="patch_83">
    <path d="M 213.931064 307.584 
L 215.425446 307.584 
L 215.425446 272.1024 
L 213.931064 272.1024 
z
" clip-path="url(#p08ae47194d)" style="fill: #7f7f7f; opacity: 0.5"/>
   </g>
   <g id="patch_84">
    <path d="M 215.799042 307.584 
L 217.293424 307.584 
L 217.293424 41.472 
L 215.799042 41.472 
z
" clip-path="url(#p08ae47194d)" style="fill: #7f7f7f; opacity: 0.5"/>
   </g>
   <g id="patch_85">
    <path d="M 217.66702 307.584 
L 219.161402 307.584 
L 219.161402 112.4352 
L 217.66702 112.4352 
z
" clip-path="url(#p08ae47194d)" style="fill: #7f7f7f; opacity: 0.5"/>
   </g>
   <g id="patch_86">
    <path d="M 219.534997 307.584 
L 221.02938 307.584 
L 221.02938 218.88 
L 219.534997 218.88 
z
" clip-path="url(#p08ae47194d)" style="fill: #7f7f7f; opacity: 0.5"/>
   </g>
   <g id="patch_87">
    <path d="M 221.402975 307.584 
L 222.897357 307.584 
L 222.897357 236.6208 
L 221.402975 236.6208 
z
" clip-path="url(#p08ae47194d)" style="fill: #7f7f7f; opacity: 0.5"/>
   </g>
   <g id="patch_88">
    <path d="M 223.270953 307.584 
L 224.765335 307.584 
L 224.765335 272.1024 
L 223.270953 272.1024 
z
" clip-path="url(#p08ae47194d)" style="fill: #7f7f7f; opacity: 0.5"/>
   </g>
   <g id="patch_89">
    <path d="M 225.138931 307.584 
L 226.633313 307.584 
L 226.633313 236.6208 
L 225.138931 236.6208 
z
" clip-path="url(#p08ae47194d)" style="fill: #7f7f7f; opacity: 0.5"/>
   </g>
   <g id="patch_90">
    <path d="M 227.006909 307.584 
L 228.501291 307.584 
L 228.501291 183.3984 
L 227.006909 183.3984 
z
" clip-path="url(#p08ae47194d)" style="fill: #7f7f7f; opacity: 0.5"/>
   </g>
   <g id="patch_91">
    <path d="M 228.874886 307.584 
L 230.369269 307.584 
L 230.369269 76.9536 
L 228.874886 76.9536 
z
" clip-path="url(#p08ae47194d)" style="fill: #7f7f7f; opacity: 0.5"/>
   </g>
   <g id="patch_92">
    <path d="M 230.742864 307.584 
L 232.237247 307.584 
L 232.237247 201.1392 
L 230.742864 201.1392 
z
" clip-path="url(#p08ae47194d)" style="fill: #7f7f7f; opacity: 0.5"/>
   </g>
   <g id="patch_93">
    <path d="M 232.610842 307.584 
L 234.105224 307.584 
L 234.105224 165.6576 
L 232.610842 165.6576 
z
" clip-path="url(#p08ae47194d)" style="fill: #7f7f7f; opacity: 0.5"/>
   </g>
   <g id="patch_94">
    <path d="M 234.47882 307.584 
L 235.973202 307.584 
L 235.973202 236.6208 
L 234.47882 236.6208 
z
" clip-path="url(#p08ae47194d)" style="fill: #7f7f7f; opacity: 0.5"/>
   </g>
   <g id="patch_95">
    <path d="M 236.346798 307.584 
L 237.84118 307.584 
L 237.84118 218.88 
L 236.346798 218.88 
z
" clip-path="url(#p08ae47194d)" style="fill: #7f7f7f; opacity: 0.5"/>
   </g>
   <g id="patch_96">
    <path d="M 238.214776 307.584 
L 239.709158 307.584 
L 239.709158 254.3616 
L 238.214776 254.3616 
z
" clip-path="url(#p08ae47194d)" style="fill: #7f7f7f; opacity: 0.5"/>
   </g>
   <g id="patch_97">
    <path d="M 240.082753 307.584 
L 241.577136 307.584 
L 241.577136 272.1024 
L 240.082753 272.1024 
z
" clip-path="url(#p08ae47194d)" style="fill: #7f7f7f; opacity: 0.5"/>
   </g>
   <g id="patch_98">
    <path d="M 241.950731 307.584 
L 243.445114 307.584 
L 243.445114 272.1024 
L 241.950731 272.1024 
z
" clip-path="url(#p08ae47194d)" style="fill: #7f7f7f; opacity: 0.5"/>
   </g>
   <g id="patch_99">
    <path d="M 243.818709 307.584 
L 245.313091 307.584 
L 245.313091 307.584 
L 243.818709 307.584 
z
" clip-path="url(#p08ae47194d)" style="fill: #7f7f7f; opacity: 0.5"/>
   </g>
   <g id="patch_100">
    <path d="M 245.686687 307.584 
L 247.181069 307.584 
L 247.181069 289.8432 
L 245.686687 289.8432 
z
" clip-path="url(#p08ae47194d)" style="fill: #7f7f7f; opacity: 0.5"/>
   </g>
   <g id="patch_101">
    <path d="M 247.554665 307.584 
L 249.049047 307.584 
L 249.049047 272.1024 
L 247.554665 272.1024 
z
" clip-path="url(#p08ae47194d)" style="fill: #7f7f7f; opacity: 0.5"/>
   </g>
   <g id="patch_102">
    <path d="M 249.422643 307.584 
L 250.917025 307.584 
L 250.917025 254.3616 
L 249.422643 254.3616 
z
" clip-path="url(#p08ae47194d)" style="fill: #7f7f7f; opacity: 0.5"/>
   </g>
   <g id="patch_103">
    <path d="M 251.29062 307.584 
L 252.785003 307.584 
L 252.785003 289.8432 
L 251.29062 289.8432 
z
" clip-path="url(#p08ae47194d)" style="fill: #7f7f7f; opacity: 0.5"/>
   </g>
   <g id="patch_104">
    <path d="M 253.158598 307.584 
L 254.65298 307.584 
L 254.65298 254.3616 
L 253.158598 254.3616 
z
" clip-path="url(#p08ae47194d)" style="fill: #7f7f7f; opacity: 0.5"/>
   </g>
   <g id="patch_105">
    <path d="M 255.026576 307.584 
L 256.520958 307.584 
L 256.520958 272.1024 
L 255.026576 272.1024 
z
" clip-path="url(#p08ae47194d)" style="fill: #7f7f7f; opacity: 0.5"/>
   </g>
   <g id="patch_106">
    <path d="M 256.894554 307.584 
L 258.388936 307.584 
L 258.388936 307.584 
L 256.894554 307.584 
z
" clip-path="url(#p08ae47194d)" style="fill: #7f7f7f; opacity: 0.5"/>
   </g>
   <g id="patch_107">
    <path d="M 258.762532 307.584 
L 260.256914 307.584 
L 260.256914 307.584 
L 258.762532 307.584 
z
" clip-path="url(#p08ae47194d)" style="fill: #7f7f7f; opacity: 0.5"/>
   </g>
   <g id="patch_108">
    <path d="M 260.630509 307.584 
L 262.124892 307.584 
L 262.124892 289.8432 
L 260.630509 289.8432 
z
" clip-path="url(#p08ae47194d)" style="fill: #7f7f7f; opacity: 0.5"/>
   </g>
   <g id="patch_109">
    <path d="M 262.498487 307.584 
L 263.99287 307.584 
L 263.99287 272.1024 
L 262.498487 272.1024 
z
" clip-path="url(#p08ae47194d)" style="fill: #7f7f7f; opacity: 0.5"/>
   </g>
   <g id="patch_110">
    <path d="M 264.366465 307.584 
L 265.860847 307.584 
L 265.860847 289.8432 
L 264.366465 289.8432 
z
" clip-path="url(#p08ae47194d)" style="fill: #7f7f7f; opacity: 0.5"/>
   </g>
   <g id="patch_111">
    <path d="M 266.234443 307.584 
L 267.728825 307.584 
L 267.728825 307.584 
L 266.234443 307.584 
z
" clip-path="url(#p08ae47194d)" style="fill: #7f7f7f; opacity: 0.5"/>
   </g>
   <g id="patch_112">
    <path d="M 268.102421 307.584 
L 269.596803 307.584 
L 269.596803 289.8432 
L 268.102421 289.8432 
z
" clip-path="url(#p08ae47194d)" style="fill: #7f7f7f; opacity: 0.5"/>
   </g>
   <g id="patch_113">
    <path d="M 269.970399 307.584 
L 271.464781 307.584 
L 271.464781 307.584 
L 269.970399 307.584 
z
" clip-path="url(#p08ae47194d)" style="fill: #7f7f7f; opacity: 0.5"/>
   </g>
   <g id="patch_114">
    <path d="M 271.838376 307.584 
L 273.332759 307.584 
L 273.332759 289.8432 
L 271.838376 289.8432 
z
" clip-path="url(#p08ae47194d)" style="fill: #7f7f7f; opacity: 0.5"/>
   </g>
   <g id="patch_115">
    <path d="M 273.706354 307.584 
L 275.200736 307.584 
L 275.200736 307.584 
L 273.706354 307.584 
z
" clip-path="url(#p08ae47194d)" style="fill: #7f7f7f; opacity: 0.5"/>
   </g>
   <g id="patch_116">
    <path d="M 275.574332 307.584 
L 277.068714 307.584 
L 277.068714 307.584 
L 275.574332 307.584 
z
" clip-path="url(#p08ae47194d)" style="fill: #7f7f7f; opacity: 0.5"/>
   </g>
   <g id="patch_117">
    <path d="M 277.44231 307.584 
L 278.936692 307.584 
L 278.936692 307.584 
L 277.44231 307.584 
z
" clip-path="url(#p08ae47194d)" style="fill: #7f7f7f; opacity: 0.5"/>
   </g>
   <g id="patch_118">
    <path d="M 279.310288 307.584 
L 280.80467 307.584 
L 280.80467 289.8432 
L 279.310288 289.8432 
z
" clip-path="url(#p08ae47194d)" style="fill: #7f7f7f; opacity: 0.5"/>
   </g>
   <g id="patch_119">
    <path d="M 281.178266 307.584 
L 282.672648 307.584 
L 282.672648 289.8432 
L 281.178266 289.8432 
z
" clip-path="url(#p08ae47194d)" style="fill: #7f7f7f; opacity: 0.5"/>
   </g>
   <g id="patch_120">
    <path d="M 283.046243 307.584 
L 284.540626 307.584 
L 284.540626 307.584 
L 283.046243 307.584 
z
" clip-path="url(#p08ae47194d)" style="fill: #7f7f7f; opacity: 0.5"/>
   </g>
   <g id="patch_121">
    <path d="M 284.914221 307.584 
L 286.408603 307.584 
L 286.408603 307.584 
L 284.914221 307.584 
z
" clip-path="url(#p08ae47194d)" style="fill: #7f7f7f; opacity: 0.5"/>
   </g>
   <g id="patch_122">
    <path d="M 286.782199 307.584 
L 288.276581 307.584 
L 288.276581 307.584 
L 286.782199 307.584 
z
" clip-path="url(#p08ae47194d)" style="fill: #7f7f7f; opacity: 0.5"/>
   </g>
   <g id="patch_123">
    <path d="M 288.650177 307.584 
L 290.144559 307.584 
L 290.144559 289.8432 
L 288.650177 289.8432 
z
" clip-path="url(#p08ae47194d)" style="fill: #7f7f7f; opacity: 0.5"/>
   </g>
   <g id="patch_124">
    <path d="M 290.518155 307.584 
L 292.012537 307.584 
L 292.012537 307.584 
L 290.518155 307.584 
z
" clip-path="url(#p08ae47194d)" style="fill: #7f7f7f; opacity: 0.5"/>
   </g>
   <g id="patch_125">
    <path d="M 292.386132 307.584 
L 293.880515 307.584 
L 293.880515 307.584 
L 292.386132 307.584 
z
" clip-path="url(#p08ae47194d)" style="fill: #7f7f7f; opacity: 0.5"/>
   </g>
   <g id="patch_126">
    <path d="M 294.25411 307.584 
L 295.748493 307.584 
L 295.748493 307.584 
L 294.25411 307.584 
z
" clip-path="url(#p08ae47194d)" style="fill: #7f7f7f; opacity: 0.5"/>
   </g>
   <g id="patch_127">
    <path d="M 296.122088 307.584 
L 297.61647 307.584 
L 297.61647 307.584 
L 296.122088 307.584 
z
" clip-path="url(#p08ae47194d)" style="fill: #7f7f7f; opacity: 0.5"/>
   </g>
   <g id="patch_128">
    <path d="M 297.990066 307.584 
L 299.484448 307.584 
L 299.484448 307.584 
L 297.990066 307.584 
z
" clip-path="url(#p08ae47194d)" style="fill: #7f7f7f; opacity: 0.5"/>
   </g>
   <g id="patch_129">
    <path d="M 299.858044 307.584 
L 301.352426 307.584 
L 301.352426 307.584 
L 299.858044 307.584 
z
" clip-path="url(#p08ae47194d)" style="fill: #7f7f7f; opacity: 0.5"/>
   </g>
   <g id="patch_130">
    <path d="M 301.726022 307.584 
L 303.220404 307.584 
L 303.220404 307.584 
L 301.726022 307.584 
z
" clip-path="url(#p08ae47194d)" style="fill: #7f7f7f; opacity: 0.5"/>
   </g>
   <g id="patch_131">
    <path d="M 303.593999 307.584 
L 305.088382 307.584 
L 305.088382 307.584 
L 303.593999 307.584 
z
" clip-path="url(#p08ae47194d)" style="fill: #7f7f7f; opacity: 0.5"/>
   </g>
   <g id="patch_132">
    <path d="M 305.461977 307.584 
L 306.956359 307.584 
L 306.956359 307.584 
L 305.461977 307.584 
z
" clip-path="url(#p08ae47194d)" style="fill: #7f7f7f; opacity: 0.5"/>
   </g>
   <g id="patch_133">
    <path d="M 307.329955 307.584 
L 308.824337 307.584 
L 308.824337 289.8432 
L 307.329955 289.8432 
z
" clip-path="url(#p08ae47194d)" style="fill: #7f7f7f; opacity: 0.5"/>
   </g>
   <g id="patch_134">
    <path d="M 309.197933 307.584 
L 310.692315 307.584 
L 310.692315 307.584 
L 309.197933 307.584 
z
" clip-path="url(#p08ae47194d)" style="fill: #7f7f7f; opacity: 0.5"/>
   </g>
   <g id="patch_135">
    <path d="M 311.065911 307.584 
L 312.560293 307.584 
L 312.560293 307.584 
L 311.065911 307.584 
z
" clip-path="url(#p08ae47194d)" style="fill: #7f7f7f; opacity: 0.5"/>
   </g>
   <g id="patch_136">
    <path d="M 312.933888 307.584 
L 314.428271 307.584 
L 314.428271 307.584 
L 312.933888 307.584 
z
" clip-path="url(#p08ae47194d)" style="fill: #7f7f7f; opacity: 0.5"/>
   </g>
   <g id="patch_137">
    <path d="M 314.801866 307.584 
L 316.296249 307.584 
L 316.296249 307.584 
L 314.801866 307.584 
z
" clip-path="url(#p08ae47194d)" style="fill: #7f7f7f; opacity: 0.5"/>
   </g>
   <g id="patch_138">
    <path d="M 316.669844 307.584 
L 318.164226 307.584 
L 318.164226 307.584 
L 316.669844 307.584 
z
" clip-path="url(#p08ae47194d)" style="fill: #7f7f7f; opacity: 0.5"/>
   </g>
   <g id="patch_139">
    <path d="M 318.537822 307.584 
L 320.032204 307.584 
L 320.032204 307.584 
L 318.537822 307.584 
z
" clip-path="url(#p08ae47194d)" style="fill: #7f7f7f; opacity: 0.5"/>
   </g>
   <g id="patch_140">
    <path d="M 320.4058 307.584 
L 321.900182 307.584 
L 321.900182 289.8432 
L 320.4058 289.8432 
z
" clip-path="url(#p08ae47194d)" style="fill: #7f7f7f; opacity: 0.5"/>
   </g>
   <g id="patch_141">
    <path d="M 322.273778 307.584 
L 323.76816 307.584 
L 323.76816 307.584 
L 322.273778 307.584 
z
" clip-path="url(#p08ae47194d)" style="fill: #7f7f7f; opacity: 0.5"/>
   </g>
   <g id="patch_142">
    <path d="M 324.141755 307.584 
L 325.636138 307.584 
L 325.636138 307.584 
L 324.141755 307.584 
z
" clip-path="url(#p08ae47194d)" style="fill: #7f7f7f; opacity: 0.5"/>
   </g>
   <g id="patch_143">
    <path d="M 326.009733 307.584 
L 327.504115 307.584 
L 327.504115 307.584 
L 326.009733 307.584 
z
" clip-path="url(#p08ae47194d)" style="fill: #7f7f7f; opacity: 0.5"/>
   </g>
   <g id="patch_144">
    <path d="M 327.877711 307.584 
L 329.372093 307.584 
L 329.372093 307.584 
L 327.877711 307.584 
z
" clip-path="url(#p08ae47194d)" style="fill: #7f7f7f; opacity: 0.5"/>
   </g>
   <g id="patch_145">
    <path d="M 329.745689 307.584 
L 331.240071 307.584 
L 331.240071 307.584 
L 329.745689 307.584 
z
" clip-path="url(#p08ae47194d)" style="fill: #7f7f7f; opacity: 0.5"/>
   </g>
   <g id="patch_146">
    <path d="M 331.613667 307.584 
L 333.108049 307.584 
L 333.108049 307.584 
L 331.613667 307.584 
z
" clip-path="url(#p08ae47194d)" style="fill: #7f7f7f; opacity: 0.5"/>
   </g>
   <g id="patch_147">
    <path d="M 333.481645 307.584 
L 334.976027 307.584 
L 334.976027 307.584 
L 333.481645 307.584 
z
" clip-path="url(#p08ae47194d)" style="fill: #7f7f7f; opacity: 0.5"/>
   </g>
   <g id="patch_148">
    <path d="M 335.349622 307.584 
L 336.844005 307.584 
L 336.844005 307.584 
L 335.349622 307.584 
z
" clip-path="url(#p08ae47194d)" style="fill: #7f7f7f; opacity: 0.5"/>
   </g>
   <g id="patch_149">
    <path d="M 337.2176 307.584 
L 338.711982 307.584 
L 338.711982 307.584 
L 337.2176 307.584 
z
" clip-path="url(#p08ae47194d)" style="fill: #7f7f7f; opacity: 0.5"/>
   </g>
   <g id="patch_150">
    <path d="M 339.085578 307.584 
L 340.57996 307.584 
L 340.57996 307.584 
L 339.085578 307.584 
z
" clip-path="url(#p08ae47194d)" style="fill: #7f7f7f; opacity: 0.5"/>
   </g>
   <g id="patch_151">
    <path d="M 340.953556 307.584 
L 342.447938 307.584 
L 342.447938 307.584 
L 340.953556 307.584 
z
" clip-path="url(#p08ae47194d)" style="fill: #7f7f7f; opacity: 0.5"/>
   </g>
   <g id="patch_152">
    <path d="M 342.821534 307.584 
L 344.315916 307.584 
L 344.315916 307.584 
L 342.821534 307.584 
z
" clip-path="url(#p08ae47194d)" style="fill: #7f7f7f; opacity: 0.5"/>
   </g>
   <g id="patch_153">
    <path d="M 344.689511 307.584 
L 346.183894 307.584 
L 346.183894 307.584 
L 344.689511 307.584 
z
" clip-path="url(#p08ae47194d)" style="fill: #7f7f7f; opacity: 0.5"/>
   </g>
   <g id="patch_154">
    <path d="M 346.557489 307.584 
L 348.051872 307.584 
L 348.051872 307.584 
L 346.557489 307.584 
z
" clip-path="url(#p08ae47194d)" style="fill: #7f7f7f; opacity: 0.5"/>
   </g>
   <g id="patch_155">
    <path d="M 348.425467 307.584 
L 349.919849 307.584 
L 349.919849 307.584 
L 348.425467 307.584 
z
" clip-path="url(#p08ae47194d)" style="fill: #7f7f7f; opacity: 0.5"/>
   </g>
   <g id="patch_156">
    <path d="M 350.293445 307.584 
L 351.787827 307.584 
L 351.787827 307.584 
L 350.293445 307.584 
z
" clip-path="url(#p08ae47194d)" style="fill: #7f7f7f; opacity: 0.5"/>
   </g>
   <g id="patch_157">
    <path d="M 352.161423 307.584 
L 353.655805 307.584 
L 353.655805 307.584 
L 352.161423 307.584 
z
" clip-path="url(#p08ae47194d)" style="fill: #7f7f7f; opacity: 0.5"/>
   </g>
   <g id="patch_158">
    <path d="M 354.029401 307.584 
L 355.523783 307.584 
L 355.523783 307.584 
L 354.029401 307.584 
z
" clip-path="url(#p08ae47194d)" style="fill: #7f7f7f; opacity: 0.5"/>
   </g>
   <g id="patch_159">
    <path d="M 355.897378 307.584 
L 357.391761 307.584 
L 357.391761 307.584 
L 355.897378 307.584 
z
" clip-path="url(#p08ae47194d)" style="fill: #7f7f7f; opacity: 0.5"/>
   </g>
   <g id="patch_160">
    <path d="M 357.765356 307.584 
L 359.259738 307.584 
L 359.259738 307.584 
L 357.765356 307.584 
z
" clip-path="url(#p08ae47194d)" style="fill: #7f7f7f; opacity: 0.5"/>
   </g>
   <g id="patch_161">
    <path d="M 359.633334 307.584 
L 361.127716 307.584 
L 361.127716 307.584 
L 359.633334 307.584 
z
" clip-path="url(#p08ae47194d)" style="fill: #7f7f7f; opacity: 0.5"/>
   </g>
   <g id="patch_162">
    <path d="M 361.501312 307.584 
L 362.995694 307.584 
L 362.995694 307.584 
L 361.501312 307.584 
z
" clip-path="url(#p08ae47194d)" style="fill: #7f7f7f; opacity: 0.5"/>
   </g>
   <g id="patch_163">
    <path d="M 363.36929 307.584 
L 364.863672 307.584 
L 364.863672 307.584 
L 363.36929 307.584 
z
" clip-path="url(#p08ae47194d)" style="fill: #7f7f7f; opacity: 0.5"/>
   </g>
   <g id="patch_164">
    <path d="M 365.237267 307.584 
L 366.73165 307.584 
L 366.73165 307.584 
L 365.237267 307.584 
z
" clip-path="url(#p08ae47194d)" style="fill: #7f7f7f; opacity: 0.5"/>
   </g>
   <g id="patch_165">
    <path d="M 367.105245 307.584 
L 368.599628 307.584 
L 368.599628 307.584 
L 367.105245 307.584 
z
" clip-path="url(#p08ae47194d)" style="fill: #7f7f7f; opacity: 0.5"/>
   </g>
   <g id="patch_166">
    <path d="M 368.973223 307.584 
L 370.467605 307.584 
L 370.467605 307.584 
L 368.973223 307.584 
z
" clip-path="url(#p08ae47194d)" style="fill: #7f7f7f; opacity: 0.5"/>
   </g>
   <g id="patch_167">
    <path d="M 370.841201 307.584 
L 372.335583 307.584 
L 372.335583 307.584 
L 370.841201 307.584 
z
" clip-path="url(#p08ae47194d)" style="fill: #7f7f7f; opacity: 0.5"/>
   </g>
   <g id="patch_168">
    <path d="M 372.709179 307.584 
L 374.203561 307.584 
L 374.203561 307.584 
L 372.709179 307.584 
z
" clip-path="url(#p08ae47194d)" style="fill: #7f7f7f; opacity: 0.5"/>
   </g>
   <g id="patch_169">
    <path d="M 374.577157 307.584 
L 376.071539 307.584 
L 376.071539 307.584 
L 374.577157 307.584 
z
" clip-path="url(#p08ae47194d)" style="fill: #7f7f7f; opacity: 0.5"/>
   </g>
   <g id="patch_170">
    <path d="M 376.445134 307.584 
L 377.939517 307.584 
L 377.939517 307.584 
L 376.445134 307.584 
z
" clip-path="url(#p08ae47194d)" style="fill: #7f7f7f; opacity: 0.5"/>
   </g>
   <g id="patch_171">
    <path d="M 378.313112 307.584 
L 379.807495 307.584 
L 379.807495 307.584 
L 378.313112 307.584 
z
" clip-path="url(#p08ae47194d)" style="fill: #7f7f7f; opacity: 0.5"/>
   </g>
   <g id="patch_172">
    <path d="M 380.18109 307.584 
L 381.675472 307.584 
L 381.675472 307.584 
L 380.18109 307.584 
z
" clip-path="url(#p08ae47194d)" style="fill: #7f7f7f; opacity: 0.5"/>
   </g>
   <g id="patch_173">
    <path d="M 382.049068 307.584 
L 383.54345 307.584 
L 383.54345 307.584 
L 382.049068 307.584 
z
" clip-path="url(#p08ae47194d)" style="fill: #7f7f7f; opacity: 0.5"/>
   </g>
   <g id="patch_174">
    <path d="M 383.917046 307.584 
L 385.411428 307.584 
L 385.411428 307.584 
L 383.917046 307.584 
z
" clip-path="url(#p08ae47194d)" style="fill: #7f7f7f; opacity: 0.5"/>
   </g>
   <g id="patch_175">
    <path d="M 385.785024 307.584 
L 387.279406 307.584 
L 387.279406 307.584 
L 385.785024 307.584 
z
" clip-path="url(#p08ae47194d)" style="fill: #7f7f7f; opacity: 0.5"/>
   </g>
   <g id="patch_176">
    <path d="M 387.653001 307.584 
L 389.147384 307.584 
L 389.147384 307.584 
L 387.653001 307.584 
z
" clip-path="url(#p08ae47194d)" style="fill: #7f7f7f; opacity: 0.5"/>
   </g>
   <g id="patch_177">
    <path d="M 389.520979 307.584 
L 391.015361 307.584 
L 391.015361 307.584 
L 389.520979 307.584 
z
" clip-path="url(#p08ae47194d)" style="fill: #7f7f7f; opacity: 0.5"/>
   </g>
   <g id="patch_178">
    <path d="M 391.388957 307.584 
L 392.883339 307.584 
L 392.883339 307.584 
L 391.388957 307.584 
z
" clip-path="url(#p08ae47194d)" style="fill: #7f7f7f; opacity: 0.5"/>
   </g>
   <g id="patch_179">
    <path d="M 393.256935 307.584 
L 394.751317 307.584 
L 394.751317 307.584 
L 393.256935 307.584 
z
" clip-path="url(#p08ae47194d)" style="fill: #7f7f7f; opacity: 0.5"/>
   </g>
   <g id="patch_180">
    <path d="M 395.124913 307.584 
L 396.619295 307.584 
L 396.619295 307.584 
L 395.124913 307.584 
z
" clip-path="url(#p08ae47194d)" style="fill: #7f7f7f; opacity: 0.5"/>
   </g>
   <g id="patch_181">
    <path d="M 396.99289 307.584 
L 398.487273 307.584 
L 398.487273 307.584 
L 396.99289 307.584 
z
" clip-path="url(#p08ae47194d)" style="fill: #7f7f7f; opacity: 0.5"/>
   </g>
   <g id="matplotlib.axis_3">
    <g id="ytick_10">
     <g id="line2d_20">
      <defs>
       <path id="mc0bf49c670" d="M 0 0 
L 3.5 0 
" style="stroke: #7f7f7f; stroke-width: 0.8"/>
      </defs>
      <g>
       <use xlink:href="#mc0bf49c670" x="414.72" y="307.584" style="fill: #7f7f7f; stroke: #7f7f7f; stroke-width: 0.8"/>
      </g>
     </g>
     <g id="text_19">
      <!-- 0 -->
      <g style="fill: #7f7f7f" transform="translate(421.72 311.383219) scale(0.1 -0.1)">
       <use xlink:href="#DejaVuSans-30"/>
      </g>
     </g>
    </g>
    <g id="ytick_11">
     <g id="line2d_21">
      <g>
       <use xlink:href="#mc0bf49c670" x="414.72" y="272.1024" style="fill: #7f7f7f; stroke: #7f7f7f; stroke-width: 0.8"/>
      </g>
     </g>
     <g id="text_20">
      <!-- 2 -->
      <g style="fill: #7f7f7f" transform="translate(421.72 275.901619) scale(0.1 -0.1)">
       <use xlink:href="#DejaVuSans-32"/>
      </g>
     </g>
    </g>
    <g id="ytick_12">
     <g id="line2d_22">
      <g>
       <use xlink:href="#mc0bf49c670" x="414.72" y="236.6208" style="fill: #7f7f7f; stroke: #7f7f7f; stroke-width: 0.8"/>
      </g>
     </g>
     <g id="text_21">
      <!-- 4 -->
      <g style="fill: #7f7f7f" transform="translate(421.72 240.420019) scale(0.1 -0.1)">
       <use xlink:href="#DejaVuSans-34"/>
      </g>
     </g>
    </g>
    <g id="ytick_13">
     <g id="line2d_23">
      <g>
       <use xlink:href="#mc0bf49c670" x="414.72" y="201.1392" style="fill: #7f7f7f; stroke: #7f7f7f; stroke-width: 0.8"/>
      </g>
     </g>
     <g id="text_22">
      <!-- 6 -->
      <g style="fill: #7f7f7f" transform="translate(421.72 204.938419) scale(0.1 -0.1)">
       <use xlink:href="#DejaVuSans-36"/>
      </g>
     </g>
    </g>
    <g id="ytick_14">
     <g id="line2d_24">
      <g>
       <use xlink:href="#mc0bf49c670" x="414.72" y="165.6576" style="fill: #7f7f7f; stroke: #7f7f7f; stroke-width: 0.8"/>
      </g>
     </g>
     <g id="text_23">
      <!-- 8 -->
      <g style="fill: #7f7f7f" transform="translate(421.72 169.456819) scale(0.1 -0.1)">
       <use xlink:href="#DejaVuSans-38"/>
      </g>
     </g>
    </g>
    <g id="ytick_15">
     <g id="line2d_25">
      <g>
       <use xlink:href="#mc0bf49c670" x="414.72" y="130.176" style="fill: #7f7f7f; stroke: #7f7f7f; stroke-width: 0.8"/>
      </g>
     </g>
     <g id="text_24">
      <!-- 10 -->
      <g style="fill: #7f7f7f" transform="translate(421.72 133.975219) scale(0.1 -0.1)">
       <use xlink:href="#DejaVuSans-31"/>
       <use xlink:href="#DejaVuSans-30" transform="translate(63.623047 0)"/>
      </g>
     </g>
    </g>
    <g id="ytick_16">
     <g id="line2d_26">
      <g>
       <use xlink:href="#mc0bf49c670" x="414.72" y="94.6944" style="fill: #7f7f7f; stroke: #7f7f7f; stroke-width: 0.8"/>
      </g>
     </g>
     <g id="text_25">
      <!-- 12 -->
      <g style="fill: #7f7f7f" transform="translate(421.72 98.493619) scale(0.1 -0.1)">
       <use xlink:href="#DejaVuSans-31"/>
       <use xlink:href="#DejaVuSans-32" transform="translate(63.623047 0)"/>
      </g>
     </g>
    </g>
    <g id="ytick_17">
     <g id="line2d_27">
      <g>
       <use xlink:href="#mc0bf49c670" x="414.72" y="59.2128" style="fill: #7f7f7f; stroke: #7f7f7f; stroke-width: 0.8"/>
      </g>
     </g>
     <g id="text_26">
      <!-- 14 -->
      <g style="fill: #7f7f7f" transform="translate(421.72 63.012019) scale(0.1 -0.1)">
       <use xlink:href="#DejaVuSans-31"/>
       <use xlink:href="#DejaVuSans-34" transform="translate(63.623047 0)"/>
      </g>
     </g>
    </g>
    <g id="text_27">
     <!-- Number of cases -->
     <g style="fill: #7f7f7f" transform="translate(446.043438 216.710813) rotate(-90) scale(0.1 -0.1)">
      <defs>
       <path id="DejaVuSans-66" d="M 2375 4863 
L 2375 4384 
L 1825 4384 
Q 1516 4384 1395 4259 
Q 1275 4134 1275 3809 
L 1275 3500 
L 2222 3500 
L 2222 3053 
L 1275 3053 
L 1275 0 
L 697 0 
L 697 3053 
L 147 3053 
L 147 3500 
L 697 3500 
L 697 3744 
Q 697 4328 969 4595 
Q 1241 4863 1831 4863 
L 2375 4863 
z
" transform="scale(0.015625)"/>
      </defs>
      <use xlink:href="#DejaVuSans-4e"/>
      <use xlink:href="#DejaVuSans-75" transform="translate(74.804688 0)"/>
      <use xlink:href="#DejaVuSans-6d" transform="translate(138.183594 0)"/>
      <use xlink:href="#DejaVuSans-62" transform="translate(235.595703 0)"/>
      <use xlink:href="#DejaVuSans-65" transform="translate(299.072266 0)"/>
      <use xlink:href="#DejaVuSans-72" transform="translate(360.595703 0)"/>
      <use xlink:href="#DejaVuSans-20" transform="translate(401.708984 0)"/>
      <use xlink:href="#DejaVuSans-6f" transform="translate(433.496094 0)"/>
      <use xlink:href="#DejaVuSans-66" transform="translate(494.677734 0)"/>
      <use xlink:href="#DejaVuSans-20" transform="translate(529.882812 0)"/>
      <use xlink:href="#DejaVuSans-63" transform="translate(561.669922 0)"/>
      <use xlink:href="#DejaVuSans-61" transform="translate(616.650391 0)"/>
      <use xlink:href="#DejaVuSans-73" transform="translate(677.929688 0)"/>
      <use xlink:href="#DejaVuSans-65" transform="translate(730.029297 0)"/>
      <use xlink:href="#DejaVuSans-73" transform="translate(791.552734 0)"/>
     </g>
    </g>
   </g>
   <g id="patch_182">
    <path d="M 57.6 307.584 
L 57.6 41.472 
" style="fill: none; stroke: #000000; stroke-width: 0.8; stroke-linejoin: miter; stroke-linecap: square"/>
   </g>
   <g id="patch_183">
    <path d="M 414.72 307.584 
L 414.72 41.472 
" style="fill: none; stroke: #000000; stroke-width: 0.8; stroke-linejoin: miter; stroke-linecap: square"/>
   </g>
   <g id="patch_184">
    <path d="M 57.6 307.584 
L 414.72 307.584 
" style="fill: none; stroke: #000000; stroke-width: 0.8; stroke-linejoin: miter; stroke-linecap: square"/>
   </g>
   <g id="patch_185">
    <path d="M 57.6 41.472 
L 414.72 41.472 
" style="fill: none; stroke: #000000; stroke-width: 0.8; stroke-linejoin: miter; stroke-linecap: square"/>
   </g>
  </g>
 </g>
 <defs>
  <clipPath id="p08ae47194d">
   <rect x="57.6" y="41.472" width="357.12" height="266.112"/>
  </clipPath>
 </defs>
</svg>
