<?xml version="1.0" encoding="utf-8" standalone="no"?>
<!DOCTYPE svg PUBLIC "-//W3C//DTD SVG 1.1//EN"
  "http://www.w3.org/Graphics/SVG/1.1/DTD/svg11.dtd">
<svg xmlns:xlink="http://www.w3.org/1999/xlink" width="504pt" height="504pt" viewBox="0 0 504 504" xmlns="http://www.w3.org/2000/svg" version="1.1">
 <metadata>
  <rdf:RDF xmlns:dc="http://purl.org/dc/elements/1.1/" xmlns:cc="http://creativecommons.org/ns#" xmlns:rdf="http://www.w3.org/1999/02/22-rdf-syntax-ns#">
   <cc:Work>
    <dc:type rdf:resource="http://purl.org/dc/dcmitype/StillImage"/>
    <dc:date>2026-02-18T11:56:46.009646</dc:date>
    <dc:format>image/svg+xml</dc:format>
    <dc:creator>
     <cc:Agent>
      <dc:title>Matplotlib v3.10.8, https://matplotlib.org/</dc:title>
     </cc:Agent>
    </dc:creator>
   </cc:Work>
  </rdf:RDF>
 </metadata>
 <defs>
  <style type="text/css">*{stroke-linejoin: round; stroke-linecap: butt}</style>
 </defs>
 <g id="figure_1">
  <g id="patch_1">
   <path d="M 0 504 
L 504 504 
L 504 0 
L 0 0 
L 0 504 
z
" style="fill: none"/>
  </g>
  <g id="axes_1">
   <g id="patch_2">
    <path d="M 63 448.56 
L 453.6 448.56 
L 453.6 60.48 
L 63 60.48 
L 63 448.56 
z
" style="fill: none"/>
   </g>
   <g id="FillBetweenPolyCollection_1">
    <defs>
     <path id="m372043700e" d="M 81.571786 -414.173383 
L 81.571786 -90.59843 
L 83.614886 -94.142731 
L 85.657987 -93.454155 
L 87.701088 -91.189281 
L 89.744189 -89.390452 
L 91.787289 -87.117963 
L 93.83039 -85.825378 
L 95.873491 -84.157053 
L 97.916592 -82.502974 
L 99.959692 -81.38386 
L 102.002793 -79.638314 
L 104.045894 -78.744 
L 106.088995 -78.10309 
L 108.132095 -77.825434 
L 110.175196 -77.261081 
L 112.218297 -78.113306 
L 114.261398 -78.298745 
L 116.304498 -79.382425 
L 118.347599 -81.148352 
L 120.3907 -83.100447 
L 122.433801 -84.932071 
L 124.476901 -86.431274 
L 126.520002 -89.059729 
L 128.563103 -91.225803 
L 130.606204 -94.730606 
L 132.649304 -96.236289 
L 134.692405 -98.580137 
L 136.735506 -99.835882 
L 138.778607 -101.637256 
L 140.821707 -103.30202 
L 142.864808 -102.687727 
L 144.907909 -103.257483 
L 146.95101 -104.518447 
L 148.99411 -104.704969 
L 151.037211 -106.565293 
L 153.080312 -106.970225 
L 155.123412 -109.624196 
L 157.166513 -113.576722 
L 159.209614 -115.278688 
L 161.252715 -114.87993 
L 163.295815 -114.789232 
L 165.338916 -115.600632 
L 167.382017 -116.968152 
L 169.425118 -119.910742 
L 171.468218 -117.677688 
L 173.511319 -119.641578 
L 175.55442 -125.718492 
L 177.597521 -131.14818 
L 179.640621 -135.954386 
L 181.683722 -139.572309 
L 183.726823 -143.337773 
L 185.769924 -152.608783 
L 187.813024 -159.585819 
L 189.856125 -170.331023 
L 191.899226 -165.169873 
L 193.942327 -160.174911 
L 195.985427 -145.522095 
L 198.028528 -132.88311 
L 200.071629 -123.681635 
L 202.11473 -115.174097 
L 204.15783 -103.587884 
L 206.200931 -98.199185 
L 208.244032 -98.770116 
L 210.287133 -94.184198 
L 212.330233 -94.015598 
L 214.373334 -96.289314 
L 216.416435 -103.182183 
L 218.459536 -108.441113 
L 220.502636 -111.612285 
L 222.545737 -114.993783 
L 224.588838 -120.687718 
L 226.631938 -125.914316 
L 228.675039 -125.855391 
L 230.71814 -118.982669 
L 232.761241 -116.074075 
L 234.804341 -107.690049 
L 236.847442 -111.341438 
L 238.890543 -101.513393 
L 240.933644 -90.981984 
L 242.976744 -84.177782 
L 245.019845 -80.839694 
L 247.062946 -81.050695 
L 249.106047 -83.290483 
L 251.149147 -84.848642 
L 253.192248 -81.50575 
L 255.235349 -78.689078 
L 257.27845 -74.927142 
L 259.32155 -71.962423 
L 261.364651 -69.265774 
L 263.407752 -67.023742 
L 265.450853 -65.42454 
L 267.493953 -64.010568 
L 269.537054 -63.700616 
L 271.580155 -63.481864 
L 273.623256 -63.477183 
L 275.666356 -63.02288 
L 277.709457 -62.737601 
L 279.752558 -62.098817 
L 281.795659 -61.184192 
L 283.838759 -60.905238 
L 285.88186 -60.810278 
L 287.924961 -60.5468 
L 289.968062 -60.175069 
L 292.011162 -59.625798 
L 294.054263 -59.251877 
L 296.097364 -59.065793 
L 298.140464 -58.8862 
L 300.183565 -58.597031 
L 302.226666 -58.517316 
L 304.269767 -58.433262 
L 306.312867 -58.666986 
L 308.355968 -58.483549 
L 310.399069 -58.191532 
L 312.44217 -57.98638 
L 314.48527 -57.905969 
L 316.528371 -57.911574 
L 318.571472 -57.447071 
L 320.614573 -57.327536 
L 322.657673 -57.067294 
L 324.700774 -56.782896 
L 326.743875 -56.759725 
L 328.786976 -56.736693 
L 330.830076 -56.88363 
L 332.873177 -56.958116 
L 334.916278 -57.278291 
L 336.959379 -57.506323 
L 339.002479 -57.297686 
L 341.04558 -57.116094 
L 343.088681 -57.03463 
L 345.131782 -56.855752 
L 347.174882 -56.918304 
L 349.217983 -56.87906 
L 351.261084 -56.896486 
L 353.304185 -56.508586 
L 355.347285 -56.090934 
L 357.390386 -55.814949 
L 359.433487 -55.440005 
L 361.476588 -55.440002 
L 363.519688 -55.440001 
L 365.562789 -55.440001 
L 367.60589 -55.440001 
L 369.64899 -55.440001 
L 371.692091 -55.440001 
L 373.735192 -55.440001 
L 375.778293 -55.440001 
L 377.821393 -55.440001 
L 379.864494 -55.440001 
L 381.907595 -55.440001 
L 383.950696 -55.44 
L 385.993796 -55.44 
L 388.036897 -55.44 
L 390.079998 -55.44 
L 392.123099 -55.44 
L 394.166199 -55.44 
L 396.2093 -55.44 
L 398.252401 -55.44 
L 400.295502 -55.44 
L 402.338602 -55.44 
L 404.381703 -55.44 
L 406.424804 -55.44 
L 408.467905 -55.44 
L 410.511005 -55.44 
L 412.554106 -55.44 
L 414.597207 -55.44 
L 416.640308 -55.44 
L 418.683408 -55.44 
L 420.726509 -55.44 
L 422.76961 -55.44 
L 424.812711 -55.44 
L 426.855811 -55.44 
L 428.898912 -55.44 
L 430.942013 -55.44 
L 432.985114 -55.44 
L 435.028214 -55.44 
L 435.028214 -70.812787 
L 435.028214 -70.812787 
L 432.985114 -70.584523 
L 430.942013 -71.206502 
L 428.898912 -71.332774 
L 426.855811 -71.937487 
L 424.812711 -72.826804 
L 422.76961 -72.619235 
L 420.726509 -72.59904 
L 418.683408 -73.447008 
L 416.640308 -73.524404 
L 414.597207 -74.63008 
L 412.554106 -74.178399 
L 410.511005 -74.562626 
L 408.467905 -75.197022 
L 406.424804 -74.534037 
L 404.381703 -74.364177 
L 402.338602 -74.714389 
L 400.295502 -75.808271 
L 398.252401 -75.446639 
L 396.2093 -75.680397 
L 394.166199 -75.624923 
L 392.123099 -75.967071 
L 390.079998 -76.916113 
L 388.036897 -76.554375 
L 385.993796 -76.368748 
L 383.950696 -77.107918 
L 381.907595 -78.0504 
L 379.864494 -76.996842 
L 377.821393 -77.891044 
L 375.778293 -78.044002 
L 373.735192 -78.024882 
L 371.692091 -78.801268 
L 369.64899 -79.040459 
L 367.60589 -80.049353 
L 365.562789 -80.939022 
L 363.519688 -80.366278 
L 361.476588 -81.343273 
L 359.433487 -81.917452 
L 357.390386 -83.111145 
L 355.347285 -84.444017 
L 353.304185 -85.99477 
L 351.261084 -85.284964 
L 349.217983 -84.577497 
L 347.174882 -84.564676 
L 345.131782 -85.488225 
L 343.088681 -84.247963 
L 341.04558 -83.107341 
L 339.002479 -83.656146 
L 336.959379 -83.720362 
L 334.916278 -82.370205 
L 332.873177 -80.715091 
L 330.830076 -80.00621 
L 328.786976 -79.169596 
L 326.743875 -78.526438 
L 324.700774 -77.924212 
L 322.657673 -78.223789 
L 320.614573 -77.498321 
L 318.571472 -77.413989 
L 316.528371 -77.99125 
L 314.48527 -77.546358 
L 312.44217 -76.692514 
L 310.399069 -76.359024 
L 308.355968 -76.541152 
L 306.312867 -76.274066 
L 304.269767 -75.263445 
L 302.226666 -74.594462 
L 300.183565 -74.201011 
L 298.140464 -74.64727 
L 296.097364 -74.341851 
L 294.054263 -74.520905 
L 292.011162 -74.47195 
L 289.968062 -75.400106 
L 287.924961 -75.284132 
L 285.88186 -74.75255 
L 283.838759 -74.517813 
L 281.795659 -74.940491 
L 279.752558 -76.408303 
L 277.709457 -77.376595 
L 275.666356 -77.420789 
L 273.623256 -78.251304 
L 271.580155 -78.104473 
L 269.537054 -77.685594 
L 267.493953 -78.485192 
L 265.450853 -80.835176 
L 263.407752 -83.578752 
L 261.364651 -87.231618 
L 259.32155 -92.259108 
L 257.27845 -97.823523 
L 255.235349 -104.301081 
L 253.192248 -109.578932 
L 251.149147 -116.816738 
L 249.106047 -112.28816 
L 247.062946 -109.372024 
L 245.019845 -109.772959 
L 242.976744 -115.187769 
L 240.933644 -129.31195 
L 238.890543 -149.388951 
L 236.847442 -164.738271 
L 234.804341 -160.009458 
L 232.761241 -176.90049 
L 230.71814 -180.538139 
L 228.675039 -194.246892 
L 226.631938 -194.08836 
L 224.588838 -185.36703 
L 222.545737 -172.531131 
L 220.502636 -168.100111 
L 218.459536 -163.217167 
L 216.416435 -154.88219 
L 214.373334 -141.626811 
L 212.330233 -138.887871 
L 210.287133 -141.540515 
L 208.244032 -152.499561 
L 206.200931 -153.005582 
L 204.15783 -165.796483 
L 202.11473 -188.603345 
L 200.071629 -206.148836 
L 198.028528 -225.561612 
L 195.985427 -254.969905 
L 193.942327 -284.757087 
L 191.899226 -293.900593 
L 189.856125 -308.842408 
L 187.813024 -292.8797 
L 185.769924 -280.913636 
L 183.726823 -266.792288 
L 181.683722 -262.765136 
L 179.640621 -256.035912 
L 177.597521 -254.298126 
L 175.55442 -236.832075 
L 173.511319 -231.169935 
L 171.468218 -229.411347 
L 169.425118 -234.282182 
L 167.382017 -233.173568 
L 165.338916 -235.966915 
L 163.295815 -233.919374 
L 161.252715 -236.624342 
L 159.209614 -240.69937 
L 157.166513 -242.838009 
L 155.123412 -231.563762 
L 153.080312 -232.137902 
L 151.037211 -234.626887 
L 148.99411 -235.979491 
L 146.95101 -239.644859 
L 144.907909 -245.923646 
L 142.864808 -249.592141 
L 140.821707 -251.89188 
L 138.778607 -252.937152 
L 136.735506 -256.596468 
L 134.692405 -248.729057 
L 132.649304 -239.041415 
L 130.606204 -236.594298 
L 128.563103 -221.489716 
L 126.520002 -213.195971 
L 124.476901 -199.613136 
L 122.433801 -190.59901 
L 120.3907 -180.401612 
L 118.347599 -168.953238 
L 116.304498 -161.440407 
L 114.261398 -154.229694 
L 112.218297 -152.45768 
L 110.175196 -152.008988 
L 108.132095 -149.580768 
L 106.088995 -154.200413 
L 104.045894 -159.959054 
L 102.002793 -167.474819 
L 99.959692 -182.127219 
L 97.916592 -197.084427 
L 95.873491 -220.38641 
L 93.83039 -245.331097 
L 91.787289 -268.18348 
L 89.744189 -299.65824 
L 87.701088 -337.305895 
L 85.657987 -385.958113 
L 83.614886 -416.633543 
L 81.571786 -414.173383 
z
" style="stroke: #0173b2; stroke-opacity: 0.3"/>
    </defs>
    <g clip-path="url(#pa7c539e3d0)">
     <use xlink:href="#m372043700e" x="0" y="504" style="fill: #0173b2; fill-opacity: 0.3; stroke: #0173b2; stroke-opacity: 0.3"/>
    </g>
   </g>
   <g id="FillBetweenPolyCollection_2">
    <defs>
     <path id="m324a740ea4" d="M 81.571786 -436.974029 
L 81.571786 -94.643855 
L 83.614886 -97.019865 
L 85.657987 -96.323213 
L 87.701088 -92.40401 
L 89.744189 -88.988326 
L 91.787289 -86.594443 
L 93.83039 -85.302826 
L 95.873491 -83.667201 
L 97.916592 -81.899091 
L 99.959692 -80.496886 
L 102.002793 -79.391695 
L 104.045894 -77.678305 
L 106.088995 -77.734558 
L 108.132095 -77.465592 
L 110.175196 -77.652405 
L 112.218297 -77.490225 
L 114.261398 -78.986125 
L 116.304498 -79.446424 
L 118.347599 -80.466643 
L 120.3907 -83.021781 
L 122.433801 -84.532364 
L 124.476901 -86.239217 
L 126.520002 -89.228715 
L 128.563103 -91.098158 
L 130.606204 -93.12356 
L 132.649304 -96.077688 
L 134.692405 -97.910315 
L 136.735506 -98.892752 
L 138.778607 -102.24125 
L 140.821707 -102.637032 
L 142.864808 -103.679362 
L 144.907909 -103.780123 
L 146.95101 -105.231834 
L 148.99411 -105.459852 
L 151.037211 -106.195218 
L 153.080312 -107.180408 
L 155.123412 -109.238803 
L 157.166513 -113.807981 
L 159.209614 -115.033365 
L 161.252715 -114.100755 
L 163.295815 -114.405659 
L 165.338916 -114.676863 
L 167.382017 -116.3542 
L 169.425118 -119.740335 
L 171.468218 -118.340833 
L 173.511319 -120.683458 
L 175.55442 -123.77689 
L 177.597521 -132.561175 
L 179.640621 -137.51277 
L 181.683722 -141.210647 
L 183.726823 -143.581502 
L 185.769924 -150.96202 
L 187.813024 -156.544817 
L 189.856125 -167.744893 
L 191.899226 -162.367257 
L 193.942327 -157.924792 
L 195.985427 -144.786268 
L 198.028528 -130.853229 
L 200.071629 -124.273394 
L 202.11473 -115.554234 
L 204.15783 -104.22615 
L 206.200931 -98.395879 
L 208.244032 -98.402179 
L 210.287133 -94.003797 
L 212.330233 -93.940439 
L 214.373334 -95.553473 
L 216.416435 -102.919481 
L 218.459536 -106.872404 
L 220.502636 -110.276625 
L 222.545737 -113.826052 
L 224.588838 -119.946523 
L 226.631938 -126.224549 
L 228.675039 -126.516501 
L 230.71814 -118.601643 
L 232.761241 -116.22019 
L 234.804341 -107.307274 
L 236.847442 -109.37312 
L 238.890543 -101.047633 
L 240.933644 -90.499317 
L 242.976744 -83.850436 
L 245.019845 -80.465945 
L 247.062946 -80.593609 
L 249.106047 -82.298251 
L 251.149147 -84.53938 
L 253.192248 -81.071847 
L 255.235349 -78.38969 
L 257.27845 -74.38436 
L 259.32155 -71.542836 
L 261.364651 -68.719529 
L 263.407752 -66.691493 
L 265.450853 -65.293546 
L 267.493953 -64.22889 
L 269.537054 -63.82313 
L 271.580155 -63.846807 
L 273.623256 -63.873007 
L 275.666356 -63.690163 
L 277.709457 -63.677076 
L 279.752558 -63.048732 
L 281.795659 -62.544158 
L 283.838759 -62.328384 
L 285.88186 -62.451112 
L 287.924961 -62.45458 
L 289.968062 -62.258608 
L 292.011162 -62.059716 
L 294.054263 -61.95341 
L 296.097364 -61.68164 
L 298.140464 -61.786645 
L 300.183565 -61.657811 
L 302.226666 -61.556728 
L 304.269767 -61.626026 
L 306.312867 -61.72748 
L 308.355968 -61.668112 
L 310.399069 -61.561934 
L 312.44217 -61.72923 
L 314.48527 -61.702439 
L 316.528371 -61.536777 
L 318.571472 -61.405751 
L 320.614573 -61.333434 
L 322.657673 -61.34705 
L 324.700774 -61.283899 
L 326.743875 -61.311552 
L 328.786976 -61.48635 
L 330.830076 -61.486805 
L 332.873177 -61.7187 
L 334.916278 -61.785986 
L 336.959379 -61.993605 
L 339.002479 -61.824623 
L 341.04558 -61.834859 
L 343.088681 -61.910415 
L 345.131782 -61.972534 
L 347.174882 -62.137742 
L 349.217983 -61.845378 
L 351.261084 -61.943677 
L 353.304185 -61.899849 
L 355.347285 -61.885049 
L 357.390386 -61.841361 
L 359.433487 -61.664049 
L 361.476588 -61.561536 
L 363.519688 -61.550563 
L 365.562789 -61.512037 
L 367.60589 -61.602303 
L 369.64899 -61.370321 
L 371.692091 -61.445171 
L 373.735192 -61.554464 
L 375.778293 -61.416396 
L 377.821393 -61.441205 
L 379.864494 -61.370668 
L 381.907595 -61.452329 
L 383.950696 -61.264929 
L 385.993796 -61.473629 
L 388.036897 -61.336752 
L 390.079998 -61.507079 
L 392.123099 -61.424204 
L 394.166199 -61.556661 
L 396.2093 -61.66075 
L 398.252401 -61.654037 
L 400.295502 -61.642079 
L 402.338602 -61.700671 
L 404.381703 -61.63106 
L 406.424804 -61.736086 
L 408.467905 -61.862399 
L 410.511005 -61.756119 
L 412.554106 -61.74646 
L 414.597207 -61.956526 
L 416.640308 -61.829973 
L 418.683408 -61.763682 
L 420.726509 -61.886046 
L 422.76961 -62.126347 
L 424.812711 -61.943869 
L 426.855811 -62.065586 
L 428.898912 -62.224837 
L 430.942013 -62.241515 
L 432.985114 -62.22561 
L 435.028214 -62.175415 
L 435.028214 -202.416079 
L 435.028214 -202.416079 
L 432.985114 -195.459781 
L 430.942013 -193.499902 
L 428.898912 -190.918579 
L 426.855811 -190.019679 
L 424.812711 -189.800069 
L 422.76961 -184.263814 
L 420.726509 -176.360038 
L 418.683408 -177.582544 
L 416.640308 -175.604692 
L 414.597207 -174.138344 
L 412.554106 -166.635671 
L 410.511005 -164.421788 
L 408.467905 -162.530317 
L 406.424804 -162.596356 
L 404.381703 -159.568028 
L 402.338602 -156.542307 
L 400.295502 -154.022431 
L 398.252401 -148.212578 
L 396.2093 -146.089589 
L 394.166199 -142.204914 
L 392.123099 -141.261109 
L 390.079998 -139.720286 
L 388.036897 -136.788652 
L 385.993796 -134.383716 
L 383.950696 -131.039588 
L 381.907595 -129.852872 
L 379.864494 -126.544843 
L 377.821393 -124.18236 
L 375.778293 -121.624715 
L 373.735192 -121.119782 
L 371.692091 -120.443846 
L 369.64899 -119.609114 
L 367.60589 -119.214451 
L 365.562789 -115.681769 
L 363.519688 -117.46058 
L 361.476588 -114.796438 
L 359.433487 -115.00003 
L 357.390386 -114.535021 
L 355.347285 -114.099384 
L 353.304185 -113.371832 
L 351.261084 -112.453005 
L 349.217983 -110.682989 
L 347.174882 -108.482906 
L 345.131782 -107.69581 
L 343.088681 -105.222408 
L 341.04558 -103.208673 
L 339.002479 -104.068568 
L 336.959379 -102.553808 
L 334.916278 -98.582885 
L 332.873177 -95.973872 
L 330.830076 -94.220461 
L 328.786976 -93.511911 
L 326.743875 -91.515896 
L 324.700774 -90.839802 
L 322.657673 -89.305425 
L 320.614573 -87.960122 
L 318.571472 -87.196907 
L 316.528371 -86.572865 
L 314.48527 -85.369433 
L 312.44217 -84.852874 
L 310.399069 -84.692874 
L 308.355968 -84.50235 
L 306.312867 -83.163613 
L 304.269767 -81.759172 
L 302.226666 -80.705608 
L 300.183565 -80.032793 
L 298.140464 -79.312812 
L 296.097364 -78.859513 
L 294.054263 -78.8456 
L 292.011162 -78.265194 
L 289.968062 -78.084606 
L 287.924961 -78.472606 
L 285.88186 -77.935264 
L 283.838759 -76.992963 
L 281.795659 -77.238418 
L 279.752558 -78.024499 
L 277.709457 -78.599907 
L 275.666356 -78.437338 
L 273.623256 -78.638221 
L 271.580155 -78.350259 
L 269.537054 -78.001785 
L 267.493953 -78.852306 
L 265.450853 -80.888449 
L 263.407752 -83.851737 
L 261.364651 -88.156907 
L 259.32155 -92.694372 
L 257.27845 -97.74492 
L 255.235349 -104.288245 
L 253.192248 -108.318702 
L 251.149147 -114.613829 
L 249.106047 -111.857862 
L 247.062946 -108.426289 
L 245.019845 -108.251478 
L 242.976744 -115.344972 
L 240.933644 -127.340116 
L 238.890543 -147.922474 
L 236.847442 -163.909618 
L 234.804341 -159.285504 
L 232.761241 -175.925328 
L 230.71814 -179.403988 
L 228.675039 -192.224224 
L 226.631938 -193.434274 
L 224.588838 -184.110979 
L 222.545737 -173.055208 
L 220.502636 -164.911986 
L 218.459536 -161.457148 
L 216.416435 -154.070085 
L 214.373334 -140.363651 
L 212.330233 -138.35905 
L 210.287133 -139.548016 
L 208.244032 -148.992512 
L 206.200931 -151.379163 
L 204.15783 -163.560269 
L 202.11473 -185.793125 
L 200.071629 -206.322202 
L 198.028528 -224.18583 
L 195.985427 -254.998384 
L 193.942327 -289.536489 
L 191.899226 -299.421227 
L 189.856125 -311.002867 
L 187.813024 -294.78746 
L 185.769924 -282.039264 
L 183.726823 -267.855451 
L 181.683722 -263.52473 
L 179.640621 -257.891073 
L 177.597521 -253.794097 
L 175.55442 -238.256975 
L 173.511319 -233.211119 
L 171.468218 -232.013577 
L 169.425118 -238.77525 
L 167.382017 -231.721032 
L 165.338916 -234.741198 
L 163.295815 -236.439165 
L 161.252715 -240.926618 
L 159.209614 -244.685981 
L 157.166513 -246.862221 
L 155.123412 -238.626308 
L 153.080312 -234.07055 
L 151.037211 -237.15871 
L 148.99411 -240.057422 
L 146.95101 -247.539586 
L 144.907909 -251.613277 
L 142.864808 -249.532556 
L 140.821707 -255.427475 
L 138.778607 -253.881392 
L 136.735506 -253.249558 
L 134.692405 -251.917009 
L 132.649304 -241.760058 
L 130.606204 -230.879913 
L 128.563103 -220.99396 
L 126.520002 -207.491404 
L 124.476901 -197.328236 
L 122.433801 -186.491426 
L 120.3907 -179.489536 
L 118.347599 -170.307769 
L 116.304498 -160.518833 
L 114.261398 -153.936883 
L 112.218297 -151.285397 
L 110.175196 -150.844421 
L 108.132095 -151.771487 
L 106.088995 -154.068787 
L 104.045894 -158.783765 
L 102.002793 -166.71446 
L 99.959692 -179.042859 
L 97.916592 -193.389291 
L 95.873491 -212.541585 
L 93.83039 -237.929341 
L 91.787289 -270.743345 
L 89.744189 -300.640518 
L 87.701088 -348.013277 
L 85.657987 -394.004497 
L 83.614886 -426.277916 
L 81.571786 -436.974029 
z
" style="stroke: #de8f05; stroke-opacity: 0.3"/>
    </defs>
    <g clip-path="url(#pa7c539e3d0)">
     <use xlink:href="#m324a740ea4" x="0" y="504" style="fill: #de8f05; fill-opacity: 0.3; stroke: #de8f05; stroke-opacity: 0.3"/>
    </g>
   </g>
   <g id="matplotlib.axis_1">
    <g id="xtick_1">
     <g id="line2d_1">
      <defs>
       <path id="md4057cee5b" d="M 0 0 
L 0 3.5 
" style="stroke: #000000; stroke-width: 0.8"/>
      </defs>
      <g>
       <use xlink:href="#md4057cee5b" x="91.787289" y="448.56" style="stroke: #000000; stroke-width: 0.8"/>
      </g>
     </g>
     <g id="text_1">
      <text style="font-size: 16px; font-family: 'Arial', sans-serif; text-anchor: middle" x="91.787289" y="467.0125" transform="rotate(-0 91.787289 467.0125)">1 Jul</text>
     </g>
    </g>
    <g id="xtick_2">
     <g id="line2d_2">
      <g>
       <use xlink:href="#md4057cee5b" x="155.123412" y="448.56" style="stroke: #000000; stroke-width: 0.8"/>
      </g>
     </g>
     <g id="text_2">
      <text style="font-size: 16px; font-family: 'Arial', sans-serif; text-anchor: middle" x="155.123412" y="467.06" transform="rotate(-0 155.123412 467.06)">1 Aug</text>
     </g>
    </g>
    <g id="xtick_3">
     <g id="line2d_3">
      <g>
       <use xlink:href="#md4057cee5b" x="218.459536" y="448.56" style="stroke: #000000; stroke-width: 0.8"/>
      </g>
     </g>
     <g id="text_3">
      <text style="font-size: 16px; font-family: 'Arial', sans-serif; text-anchor: middle" x="218.459536" y="467.2075" transform="rotate(-0 218.459536 467.2075)">1 Sep</text>
     </g>
    </g>
    <g id="xtick_4">
     <g id="line2d_4">
      <g>
       <use xlink:href="#md4057cee5b" x="279.752558" y="448.56" style="stroke: #000000; stroke-width: 0.8"/>
      </g>
     </g>
     <g id="text_4">
      <text style="font-size: 16px; font-family: 'Arial', sans-serif; text-anchor: middle" x="279.752558" y="467.0125" transform="rotate(-0 279.752558 467.0125)">1 Oct</text>
     </g>
    </g>
    <g id="xtick_5">
     <g id="line2d_5">
      <g>
       <use xlink:href="#md4057cee5b" x="343.088681" y="448.56" style="stroke: #000000; stroke-width: 0.8"/>
      </g>
     </g>
     <g id="text_5">
      <text style="font-size: 16px; font-family: 'Arial', sans-serif; text-anchor: middle" x="343.088681" y="467.0125" transform="rotate(-0 343.088681 467.0125)">1 Nov</text>
     </g>
    </g>
    <g id="xtick_6">
     <g id="line2d_6">
      <g>
       <use xlink:href="#md4057cee5b" x="404.381703" y="448.56" style="stroke: #000000; stroke-width: 0.8"/>
      </g>
     </g>
     <g id="text_6">
      <text style="font-size: 16px; font-family: 'Arial', sans-serif; text-anchor: middle" x="404.381703" y="467.0125" transform="rotate(-0 404.381703 467.0125)">1 Dec</text>
     </g>
    </g>
   </g>
   <g id="matplotlib.axis_2">
    <g id="ytick_1">
     <g id="line2d_7">
      <defs>
       <path id="m498c5b111f" d="M 0 0 
L -3.5 0 
" style="stroke: #000000; stroke-width: 0.8"/>
      </defs>
      <g>
       <use xlink:href="#m498c5b111f" x="63" y="448.56" style="stroke: #000000; stroke-width: 0.8"/>
      </g>
     </g>
     <g id="text_7">
      <text style="font-size: 16px; font-family: 'Arial', sans-serif; text-anchor: end" x="56" y="454.28625" transform="rotate(-0 56 454.28625)">0</text>
     </g>
    </g>
    <g id="ytick_2">
     <g id="line2d_8">
      <g>
       <use xlink:href="#m498c5b111f" x="63" y="400.05" style="stroke: #000000; stroke-width: 0.8"/>
      </g>
     </g>
     <g id="text_8">
      <text style="font-size: 16px; font-family: 'Arial', sans-serif; text-anchor: end" x="56" y="405.77625" transform="rotate(-0 56 405.77625)">1</text>
     </g>
    </g>
    <g id="ytick_3">
     <g id="line2d_9">
      <g>
       <use xlink:href="#m498c5b111f" x="63" y="351.54" style="stroke: #000000; stroke-width: 0.8"/>
      </g>
     </g>
     <g id="text_9">
      <text style="font-size: 16px; font-family: 'Arial', sans-serif; text-anchor: end" x="56" y="357.26625" transform="rotate(-0 56 357.26625)">2</text>
     </g>
    </g>
    <g id="ytick_4">
     <g id="line2d_10">
      <g>
       <use xlink:href="#m498c5b111f" x="63" y="303.03" style="stroke: #000000; stroke-width: 0.8"/>
      </g>
     </g>
     <g id="text_10">
      <text style="font-size: 16px; font-family: 'Arial', sans-serif; text-anchor: end" x="56" y="308.75625" transform="rotate(-0 56 308.75625)">3</text>
     </g>
    </g>
    <g id="ytick_5">
     <g id="line2d_11">
      <g>
       <use xlink:href="#m498c5b111f" x="63" y="254.52" style="stroke: #000000; stroke-width: 0.8"/>
      </g>
     </g>
     <g id="text_11">
      <text style="font-size: 16px; font-family: 'Arial', sans-serif; text-anchor: end" x="56" y="260.24625" transform="rotate(-0 56 260.24625)">4</text>
     </g>
    </g>
    <g id="ytick_6">
     <g id="line2d_12">
      <g>
       <use xlink:href="#m498c5b111f" x="63" y="206.01" style="stroke: #000000; stroke-width: 0.8"/>
      </g>
     </g>
     <g id="text_12">
      <text style="font-size: 16px; font-family: 'Arial', sans-serif; text-anchor: end" x="56" y="211.73625" transform="rotate(-0 56 211.73625)">5</text>
     </g>
    </g>
    <g id="ytick_7">
     <g id="line2d_13">
      <g>
       <use xlink:href="#m498c5b111f" x="63" y="157.5" style="stroke: #000000; stroke-width: 0.8"/>
      </g>
     </g>
     <g id="text_13">
      <text style="font-size: 16px; font-family: 'Arial', sans-serif; text-anchor: end" x="56" y="163.22625" transform="rotate(-0 56 163.22625)">6</text>
     </g>
    </g>
    <g id="ytick_8">
     <g id="line2d_14">
      <g>
       <use xlink:href="#m498c5b111f" x="63" y="108.99" style="stroke: #000000; stroke-width: 0.8"/>
      </g>
     </g>
     <g id="text_14">
      <text style="font-size: 16px; font-family: 'Arial', sans-serif; text-anchor: end" x="56" y="114.71625" transform="rotate(-0 56 114.71625)">7</text>
     </g>
    </g>
    <g id="ytick_9">
     <g id="line2d_15">
      <g>
       <use xlink:href="#m498c5b111f" x="63" y="60.48" style="stroke: #000000; stroke-width: 0.8"/>
      </g>
     </g>
     <g id="text_15">
      <text style="font-size: 16px; font-family: 'Arial', sans-serif; text-anchor: end" x="56" y="66.20625" transform="rotate(-0 56 66.20625)">8</text>
     </g>
    </g>
    <g id="text_16">
     <text style="font-size: 16px; font-family: 'Arial', sans-serif; text-anchor: middle" x="39.9225" y="254.52" transform="rotate(-90 39.9225 254.52)">Time-dependent reproduction number</text>
    </g>
   </g>
   <g id="line2d_16">
    <path d="M 81.571786 316.041402 
L 83.614886 311.507211 
L 85.657987 316.982134 
L 87.701088 331.525225 
L 89.744189 343.540083 
L 91.787289 354.554139 
L 93.83039 364.159535 
L 95.873491 372.480676 
L 97.916592 379.177114 
L 102.002793 389.7146 
L 104.045894 393.74713 
L 106.088995 396.313844 
L 108.132095 397.848003 
L 110.175196 398.045033 
L 112.218297 397.355172 
L 114.261398 395.899669 
L 116.304498 392.829428 
L 118.347599 389.098481 
L 120.3907 383.981429 
L 122.433801 379.820364 
L 124.476901 374.631006 
L 126.520002 368.123152 
L 128.563103 363.358923 
L 130.606204 358.110026 
L 132.649304 354.311383 
L 134.692405 349.835457 
L 136.735506 347.828277 
L 138.778607 344.943308 
L 140.821707 344.100639 
L 142.864808 345.510028 
L 144.907909 344.727541 
L 146.95101 345.957248 
L 148.99411 347.751256 
L 151.037211 347.008525 
L 153.080312 347.322049 
L 155.123412 344.516038 
L 157.166513 337.405109 
L 159.209614 336.763428 
L 161.252715 339.505749 
L 163.295815 340.262307 
L 165.338916 340.484913 
L 167.382017 339.376587 
L 169.425118 336.784873 
L 171.468218 340.203549 
L 173.511319 337.513244 
L 175.55442 331.270019 
L 177.597521 320.101394 
L 179.640621 315.310876 
L 181.683722 311.400286 
L 183.726823 307.216385 
L 185.769924 296.366297 
L 187.813024 286.138636 
L 189.856125 274.723859 
L 191.899226 282.902765 
L 193.942327 290.274569 
L 195.985427 311.442854 
L 198.028528 329.861343 
L 200.071629 344.205571 
L 202.11473 356.585628 
L 204.15783 373.401448 
L 206.200931 381.893402 
L 208.244032 382.1084 
L 210.287133 389.121052 
L 212.330233 389.937049 
L 214.373334 387.993103 
L 216.416435 377.694045 
L 218.459536 371.862312 
L 220.502636 367.063248 
L 222.545737 363.014877 
L 226.631938 347.025527 
L 228.675039 347.994075 
L 230.71814 357.161767 
L 232.761241 360.380016 
L 234.804341 373.134712 
L 236.847442 369.255303 
L 238.890543 381.263249 
L 240.933644 396.617665 
L 242.976744 405.940311 
L 245.019845 410.723211 
L 247.062946 410.667923 
L 251.149147 405.265907 
L 253.192248 410.2555 
L 255.235349 413.990313 
L 257.27845 419.229548 
L 261.364651 426.884902 
L 263.407752 429.95539 
L 265.450853 432.14121 
L 267.493953 433.960542 
L 269.537054 434.473621 
L 273.623256 434.474142 
L 275.666356 435.0583 
L 277.709457 435.276246 
L 279.752558 436.13346 
L 281.795659 437.158661 
L 283.838759 437.634967 
L 287.924961 437.553953 
L 292.011162 438.580738 
L 294.054263 438.804468 
L 296.097364 439.188254 
L 298.140464 439.201667 
L 300.183565 439.516799 
L 302.226666 439.554122 
L 304.269767 439.377016 
L 306.312867 438.968596 
L 308.355968 438.864136 
L 310.399069 439.169105 
L 312.44217 439.339312 
L 314.48527 439.307433 
L 316.528371 439.139375 
L 318.571472 439.44344 
L 320.614573 439.622358 
L 324.700774 439.725225 
L 328.786976 439.486694 
L 330.830076 439.312222 
L 334.916278 438.591273 
L 336.959379 438.054215 
L 341.04558 438.404499 
L 345.131782 438.448287 
L 349.217983 438.419808 
L 351.261084 438.364532 
L 359.433487 440.53776 
L 363.519688 441.32353 
L 371.692091 442.479928 
L 381.907595 443.414466 
L 394.166199 444.180157 
L 400.295502 444.419027 
L 418.683408 445.12102 
L 432.985114 445.612203 
L 435.028214 445.621454 
L 435.028214 445.621454 
" clip-path="url(#pa7c539e3d0)" style="fill: none; stroke: #0173b2; stroke-width: 2; stroke-linecap: square"/>
   </g>
   <g id="line2d_17">
    <path d="M 81.571786 302.976269 
L 83.614886 301.425139 
L 85.657987 309.797504 
L 87.701088 325.977809 
L 89.744189 340.259794 
L 91.787289 352.520226 
L 93.83039 363.090759 
L 95.873491 371.997624 
L 97.916592 379.232263 
L 99.959692 384.42637 
L 102.002793 390.083847 
L 104.045894 393.96052 
L 106.088995 396.553265 
L 108.132095 397.856949 
L 110.175196 398.167046 
L 112.218297 397.659058 
L 114.261398 395.976337 
L 116.304498 393.516053 
L 118.347599 389.638153 
L 120.3907 384.584729 
L 122.433801 380.794352 
L 124.476901 375.527786 
L 126.520002 369.158294 
L 128.563103 364.159845 
L 130.606204 358.363261 
L 132.649304 354.255103 
L 134.692405 349.59275 
L 138.778607 344.233052 
L 140.821707 343.324356 
L 142.864808 344.402778 
L 144.907909 343.856396 
L 146.95101 344.429098 
L 148.99411 346.901663 
L 151.037211 346.032816 
L 153.080312 346.060078 
L 155.123412 342.798523 
L 157.166513 335.255042 
L 159.209614 334.576616 
L 161.252715 337.389482 
L 163.295815 338.999948 
L 165.338916 339.183474 
L 167.382017 338.096522 
L 169.425118 335.964711 
L 171.468218 339.125186 
L 173.511319 336.808472 
L 175.55442 330.717996 
L 177.597521 320.608857 
L 179.640621 315.687331 
L 181.683722 311.831851 
L 183.726823 307.476729 
L 185.769924 297.692311 
L 187.813024 286.881701 
L 189.856125 274.932772 
L 191.899226 282.155586 
L 193.942327 289.978504 
L 195.985427 311.275733 
L 198.028528 330.159807 
L 202.11473 357.080688 
L 204.15783 374.106401 
L 206.200931 382.783993 
L 208.244032 383.166411 
L 210.287133 389.725333 
L 212.330233 390.642452 
L 214.373334 388.726607 
L 216.416435 378.70095 
L 218.459536 373.075307 
L 220.502636 368.677868 
L 222.545737 364.006484 
L 226.631938 347.956093 
L 228.675039 348.619326 
L 230.71814 357.76797 
L 232.761241 361.231027 
L 234.804341 373.848362 
L 236.847442 370.238718 
L 238.890543 381.963611 
L 240.933644 397.262449 
L 242.976744 406.355139 
L 245.019845 411.31133 
L 247.062946 411.207723 
L 251.149147 405.873655 
L 253.192248 410.797246 
L 255.235349 414.286411 
L 257.27845 419.520785 
L 259.32155 423.149523 
L 261.364651 427.008288 
L 263.407752 429.945881 
L 265.450853 431.969636 
L 267.493953 433.608732 
L 269.537054 434.050372 
L 273.623256 433.770557 
L 275.666356 434.188436 
L 277.709457 434.147496 
L 279.752558 434.688514 
L 281.795659 435.455323 
L 283.838759 435.719175 
L 287.924961 435.060304 
L 292.011162 435.443573 
L 300.183565 435.303103 
L 302.226666 435.164661 
L 304.269767 434.803873 
L 306.312867 434.171653 
L 308.355968 433.863887 
L 310.399069 433.890733 
L 314.48527 433.508163 
L 316.528371 433.081412 
L 318.571472 433.112357 
L 322.657673 432.815495 
L 326.743875 432.142975 
L 330.830076 431.046594 
L 332.873177 430.368495 
L 334.916278 429.491735 
L 336.959379 428.461041 
L 343.088681 427.442019 
L 347.174882 426.232011 
L 349.217983 425.635007 
L 351.261084 424.893509 
L 353.304185 425.048015 
L 359.433487 425.006232 
L 365.562789 424.831777 
L 367.60589 424.457211 
L 369.64899 424.264319 
L 373.735192 423.661962 
L 375.778293 423.526613 
L 379.864494 422.783798 
L 381.907595 422.35074 
L 383.950696 421.677603 
L 385.993796 421.170563 
L 390.079998 419.800858 
L 394.166199 418.660345 
L 396.2093 418.030174 
L 398.252401 417.212945 
L 400.295502 416.124546 
L 402.338602 415.626831 
L 406.424804 414.343569 
L 410.511005 413.250048 
L 414.597207 411.940317 
L 416.640308 411.678303 
L 420.726509 410.673853 
L 424.812711 409.320807 
L 430.942013 407.32044 
L 432.985114 406.476857 
L 435.028214 405.915685 
L 435.028214 405.915685 
" clip-path="url(#pa7c539e3d0)" style="fill: none; stroke: #de8f05; stroke-width: 2; stroke-linecap: square"/>
   </g>
   <g id="patch_3">
    <path d="M 63 448.56 
L 63 60.48 
" style="fill: none; stroke: #000000; stroke-width: 0.8; stroke-linejoin: miter; stroke-linecap: square"/>
   </g>
   <g id="patch_4">
    <path d="M 63 448.56 
L 453.6 448.56 
" style="fill: none; stroke: #000000; stroke-width: 0.8; stroke-linejoin: miter; stroke-linecap: square"/>
   </g>
   <g id="legend_1">
    <g id="patch_5">
     <path d="M 296.281563 111.785625 
L 443.8 111.785625 
Q 446.6 111.785625 446.6 108.985625 
L 446.6 70.28 
Q 446.6 67.48 443.8 67.48 
L 296.281563 67.48 
Q 293.481562 67.48 293.481562 70.28 
L 293.481562 108.985625 
Q 293.481562 111.785625 296.281563 111.785625 
z
" style="fill: #ffffff; opacity: 0.8; stroke: #cccccc; stroke-linejoin: miter"/>
    </g>
    <g id="line2d_18">
     <path d="M 299.081563 78.371563 
L 313.081563 78.371563 
L 327.081563 78.371563 
" style="fill: none; stroke: #0173b2; stroke-width: 2; stroke-linecap: square"/>
    </g>
    <g id="text_17">
     <text style="font-size: 14px; font-family: 'Arial', sans-serif; text-anchor: start" x="338.281563" y="83.271563" transform="rotate(-0 338.281563 83.271563)">Suitability-based</text>
    </g>
    <g id="line2d_19">
     <path d="M 299.081563 98.339063 
L 313.081563 98.339063 
L 327.081563 98.339063 
" style="fill: none; stroke: #de8f05; stroke-width: 2; stroke-linecap: square"/>
    </g>
    <g id="text_18">
     <text style="font-size: 14px; font-family: 'Arial', sans-serif; text-anchor: start" x="338.281563" y="103.239063" transform="rotate(-0 338.281563 103.239063)">Autoregressive</text>
    </g>
   </g>
  </g>
  <g id="axes_2">
   <g id="patch_6">
    <path d="M 80.754545 448.56 
L 82.389026 448.56 
L 82.389026 396.816 
L 80.754545 396.816 
z
" clip-path="url(#pa7c539e3d0)" style="fill: #7f7f7f; opacity: 0.5"/>
   </g>
   <g id="patch_7">
    <path d="M 82.797646 448.56 
L 84.432127 448.56 
L 84.432127 396.816 
L 82.797646 396.816 
z
" clip-path="url(#pa7c539e3d0)" style="fill: #7f7f7f; opacity: 0.5"/>
   </g>
   <g id="patch_8">
    <path d="M 84.840747 448.56 
L 86.475228 448.56 
L 86.475228 396.816 
L 84.840747 396.816 
z
" clip-path="url(#pa7c539e3d0)" style="fill: #7f7f7f; opacity: 0.5"/>
   </g>
   <g id="patch_9">
    <path d="M 86.883848 448.56 
L 88.518328 448.56 
L 88.518328 448.56 
L 86.883848 448.56 
z
" clip-path="url(#pa7c539e3d0)" style="fill: #7f7f7f; opacity: 0.5"/>
   </g>
   <g id="patch_10">
    <path d="M 88.926948 448.56 
L 90.561429 448.56 
L 90.561429 448.56 
L 88.926948 448.56 
z
" clip-path="url(#pa7c539e3d0)" style="fill: #7f7f7f; opacity: 0.5"/>
   </g>
   <g id="patch_11">
    <path d="M 90.970049 448.56 
L 92.60453 448.56 
L 92.60453 448.56 
L 90.970049 448.56 
z
" clip-path="url(#pa7c539e3d0)" style="fill: #7f7f7f; opacity: 0.5"/>
   </g>
   <g id="patch_12">
    <path d="M 93.01315 448.56 
L 94.647631 448.56 
L 94.647631 448.56 
L 93.01315 448.56 
z
" clip-path="url(#pa7c539e3d0)" style="fill: #7f7f7f; opacity: 0.5"/>
   </g>
   <g id="patch_13">
    <path d="M 95.056251 448.56 
L 96.690731 448.56 
L 96.690731 448.56 
L 95.056251 448.56 
z
" clip-path="url(#pa7c539e3d0)" style="fill: #7f7f7f; opacity: 0.5"/>
   </g>
   <g id="patch_14">
    <path d="M 97.099351 448.56 
L 98.733832 448.56 
L 98.733832 448.56 
L 97.099351 448.56 
z
" clip-path="url(#pa7c539e3d0)" style="fill: #7f7f7f; opacity: 0.5"/>
   </g>
   <g id="patch_15">
    <path d="M 99.142452 448.56 
L 100.776933 448.56 
L 100.776933 422.688 
L 99.142452 422.688 
z
" clip-path="url(#pa7c539e3d0)" style="fill: #7f7f7f; opacity: 0.5"/>
   </g>
   <g id="patch_16">
    <path d="M 101.185553 448.56 
L 102.820033 448.56 
L 102.820033 448.56 
L 101.185553 448.56 
z
" clip-path="url(#pa7c539e3d0)" style="fill: #7f7f7f; opacity: 0.5"/>
   </g>
   <g id="patch_17">
    <path d="M 103.228654 448.56 
L 104.863134 448.56 
L 104.863134 448.56 
L 103.228654 448.56 
z
" clip-path="url(#pa7c539e3d0)" style="fill: #7f7f7f; opacity: 0.5"/>
   </g>
   <g id="patch_18">
    <path d="M 105.271754 448.56 
L 106.906235 448.56 
L 106.906235 448.56 
L 105.271754 448.56 
z
" clip-path="url(#pa7c539e3d0)" style="fill: #7f7f7f; opacity: 0.5"/>
   </g>
   <g id="patch_19">
    <path d="M 107.314855 448.56 
L 108.949336 448.56 
L 108.949336 448.56 
L 107.314855 448.56 
z
" clip-path="url(#pa7c539e3d0)" style="fill: #7f7f7f; opacity: 0.5"/>
   </g>
   <g id="patch_20">
    <path d="M 109.357956 448.56 
L 110.992436 448.56 
L 110.992436 448.56 
L 109.357956 448.56 
z
" clip-path="url(#pa7c539e3d0)" style="fill: #7f7f7f; opacity: 0.5"/>
   </g>
   <g id="patch_21">
    <path d="M 111.401057 448.56 
L 113.035537 448.56 
L 113.035537 448.56 
L 111.401057 448.56 
z
" clip-path="url(#pa7c539e3d0)" style="fill: #7f7f7f; opacity: 0.5"/>
   </g>
   <g id="patch_22">
    <path d="M 113.444157 448.56 
L 115.078638 448.56 
L 115.078638 448.56 
L 113.444157 448.56 
z
" clip-path="url(#pa7c539e3d0)" style="fill: #7f7f7f; opacity: 0.5"/>
   </g>
   <g id="patch_23">
    <path d="M 115.487258 448.56 
L 117.121739 448.56 
L 117.121739 448.56 
L 115.487258 448.56 
z
" clip-path="url(#pa7c539e3d0)" style="fill: #7f7f7f; opacity: 0.5"/>
   </g>
   <g id="patch_24">
    <path d="M 117.530359 448.56 
L 119.164839 448.56 
L 119.164839 448.56 
L 117.530359 448.56 
z
" clip-path="url(#pa7c539e3d0)" style="fill: #7f7f7f; opacity: 0.5"/>
   </g>
   <g id="patch_25">
    <path d="M 119.57346 448.56 
L 121.20794 448.56 
L 121.20794 422.688 
L 119.57346 422.688 
z
" clip-path="url(#pa7c539e3d0)" style="fill: #7f7f7f; opacity: 0.5"/>
   </g>
   <g id="patch_26">
    <path d="M 121.61656 448.56 
L 123.251041 448.56 
L 123.251041 448.56 
L 121.61656 448.56 
z
" clip-path="url(#pa7c539e3d0)" style="fill: #7f7f7f; opacity: 0.5"/>
   </g>
   <g id="patch_27">
    <path d="M 123.659661 448.56 
L 125.294142 448.56 
L 125.294142 448.56 
L 123.659661 448.56 
z
" clip-path="url(#pa7c539e3d0)" style="fill: #7f7f7f; opacity: 0.5"/>
   </g>
   <g id="patch_28">
    <path d="M 125.702762 448.56 
L 127.337242 448.56 
L 127.337242 422.688 
L 125.702762 422.688 
z
" clip-path="url(#pa7c539e3d0)" style="fill: #7f7f7f; opacity: 0.5"/>
   </g>
   <g id="patch_29">
    <path d="M 127.745863 448.56 
L 129.380343 448.56 
L 129.380343 448.56 
L 127.745863 448.56 
z
" clip-path="url(#pa7c539e3d0)" style="fill: #7f7f7f; opacity: 0.5"/>
   </g>
   <g id="patch_30">
    <path d="M 129.788963 448.56 
L 131.423444 448.56 
L 131.423444 422.688 
L 129.788963 422.688 
z
" clip-path="url(#pa7c539e3d0)" style="fill: #7f7f7f; opacity: 0.5"/>
   </g>
   <g id="patch_31">
    <path d="M 131.832064 448.56 
L 133.466545 448.56 
L 133.466545 448.56 
L 131.832064 448.56 
z
" clip-path="url(#pa7c539e3d0)" style="fill: #7f7f7f; opacity: 0.5"/>
   </g>
   <g id="patch_32">
    <path d="M 133.875165 448.56 
L 135.509645 448.56 
L 135.509645 422.688 
L 133.875165 422.688 
z
" clip-path="url(#pa7c539e3d0)" style="fill: #7f7f7f; opacity: 0.5"/>
   </g>
   <g id="patch_33">
    <path d="M 135.918266 448.56 
L 137.552746 448.56 
L 137.552746 448.56 
L 135.918266 448.56 
z
" clip-path="url(#pa7c539e3d0)" style="fill: #7f7f7f; opacity: 0.5"/>
   </g>
   <g id="patch_34">
    <path d="M 137.961366 448.56 
L 139.595847 448.56 
L 139.595847 422.688 
L 137.961366 422.688 
z
" clip-path="url(#pa7c539e3d0)" style="fill: #7f7f7f; opacity: 0.5"/>
   </g>
   <g id="patch_35">
    <path d="M 140.004467 448.56 
L 141.638948 448.56 
L 141.638948 422.688 
L 140.004467 422.688 
z
" clip-path="url(#pa7c539e3d0)" style="fill: #7f7f7f; opacity: 0.5"/>
   </g>
   <g id="patch_36">
    <path d="M 142.047568 448.56 
L 143.682048 448.56 
L 143.682048 448.56 
L 142.047568 448.56 
z
" clip-path="url(#pa7c539e3d0)" style="fill: #7f7f7f; opacity: 0.5"/>
   </g>
   <g id="patch_37">
    <path d="M 144.090668 448.56 
L 145.725149 448.56 
L 145.725149 422.688 
L 144.090668 422.688 
z
" clip-path="url(#pa7c539e3d0)" style="fill: #7f7f7f; opacity: 0.5"/>
   </g>
   <g id="patch_38">
    <path d="M 146.133769 448.56 
L 147.76825 448.56 
L 147.76825 422.688 
L 146.133769 422.688 
z
" clip-path="url(#pa7c539e3d0)" style="fill: #7f7f7f; opacity: 0.5"/>
   </g>
   <g id="patch_39">
    <path d="M 148.17687 448.56 
L 149.811351 448.56 
L 149.811351 448.56 
L 148.17687 448.56 
z
" clip-path="url(#pa7c539e3d0)" style="fill: #7f7f7f; opacity: 0.5"/>
   </g>
   <g id="patch_40">
    <path d="M 150.219971 448.56 
L 151.854451 448.56 
L 151.854451 422.688 
L 150.219971 422.688 
z
" clip-path="url(#pa7c539e3d0)" style="fill: #7f7f7f; opacity: 0.5"/>
   </g>
   <g id="patch_41">
    <path d="M 152.263071 448.56 
L 153.897552 448.56 
L 153.897552 448.56 
L 152.263071 448.56 
z
" clip-path="url(#pa7c539e3d0)" style="fill: #7f7f7f; opacity: 0.5"/>
   </g>
   <g id="patch_42">
    <path d="M 154.306172 448.56 
L 155.940653 448.56 
L 155.940653 448.56 
L 154.306172 448.56 
z
" clip-path="url(#pa7c539e3d0)" style="fill: #7f7f7f; opacity: 0.5"/>
   </g>
   <g id="patch_43">
    <path d="M 156.349273 448.56 
L 157.983754 448.56 
L 157.983754 370.944 
L 156.349273 370.944 
z
" clip-path="url(#pa7c539e3d0)" style="fill: #7f7f7f; opacity: 0.5"/>
   </g>
   <g id="patch_44">
    <path d="M 158.392374 448.56 
L 160.026854 448.56 
L 160.026854 396.816 
L 158.392374 396.816 
z
" clip-path="url(#pa7c539e3d0)" style="fill: #7f7f7f; opacity: 0.5"/>
   </g>
   <g id="patch_45">
    <path d="M 160.435474 448.56 
L 162.069955 448.56 
L 162.069955 422.688 
L 160.435474 422.688 
z
" clip-path="url(#pa7c539e3d0)" style="fill: #7f7f7f; opacity: 0.5"/>
   </g>
   <g id="patch_46">
    <path d="M 162.478575 448.56 
L 164.113056 448.56 
L 164.113056 422.688 
L 162.478575 422.688 
z
" clip-path="url(#pa7c539e3d0)" style="fill: #7f7f7f; opacity: 0.5"/>
   </g>
   <g id="patch_47">
    <path d="M 164.521676 448.56 
L 166.156157 448.56 
L 166.156157 422.688 
L 164.521676 422.688 
z
" clip-path="url(#pa7c539e3d0)" style="fill: #7f7f7f; opacity: 0.5"/>
   </g>
   <g id="patch_48">
    <path d="M 166.564777 448.56 
L 168.199257 448.56 
L 168.199257 422.688 
L 166.564777 422.688 
z
" clip-path="url(#pa7c539e3d0)" style="fill: #7f7f7f; opacity: 0.5"/>
   </g>
   <g id="patch_49">
    <path d="M 168.607877 448.56 
L 170.242358 448.56 
L 170.242358 370.944 
L 168.607877 370.944 
z
" clip-path="url(#pa7c539e3d0)" style="fill: #7f7f7f; opacity: 0.5"/>
   </g>
   <g id="patch_50">
    <path d="M 170.650978 448.56 
L 172.285459 448.56 
L 172.285459 448.56 
L 170.650978 448.56 
z
" clip-path="url(#pa7c539e3d0)" style="fill: #7f7f7f; opacity: 0.5"/>
   </g>
   <g id="patch_51">
    <path d="M 172.694079 448.56 
L 174.328559 448.56 
L 174.328559 422.688 
L 172.694079 422.688 
z
" clip-path="url(#pa7c539e3d0)" style="fill: #7f7f7f; opacity: 0.5"/>
   </g>
   <g id="patch_52">
    <path d="M 174.73718 448.56 
L 176.37166 448.56 
L 176.37166 422.688 
L 174.73718 422.688 
z
" clip-path="url(#pa7c539e3d0)" style="fill: #7f7f7f; opacity: 0.5"/>
   </g>
   <g id="patch_53">
    <path d="M 176.78028 448.56 
L 178.414761 448.56 
L 178.414761 345.072 
L 176.78028 345.072 
z
" clip-path="url(#pa7c539e3d0)" style="fill: #7f7f7f; opacity: 0.5"/>
   </g>
   <g id="patch_54">
    <path d="M 178.823381 448.56 
L 180.457862 448.56 
L 180.457862 370.944 
L 178.823381 370.944 
z
" clip-path="url(#pa7c539e3d0)" style="fill: #7f7f7f; opacity: 0.5"/>
   </g>
   <g id="patch_55">
    <path d="M 180.866482 448.56 
L 182.500962 448.56 
L 182.500962 370.944 
L 180.866482 370.944 
z
" clip-path="url(#pa7c539e3d0)" style="fill: #7f7f7f; opacity: 0.5"/>
   </g>
   <g id="patch_56">
    <path d="M 182.909583 448.56 
L 184.544063 448.56 
L 184.544063 396.816 
L 182.909583 396.816 
z
" clip-path="url(#pa7c539e3d0)" style="fill: #7f7f7f; opacity: 0.5"/>
   </g>
   <g id="patch_57">
    <path d="M 184.952683 448.56 
L 186.587164 448.56 
L 186.587164 345.072 
L 184.952683 345.072 
z
" clip-path="url(#pa7c539e3d0)" style="fill: #7f7f7f; opacity: 0.5"/>
   </g>
   <g id="patch_58">
    <path d="M 186.995784 448.56 
L 188.630265 448.56 
L 188.630265 345.072 
L 186.995784 345.072 
z
" clip-path="url(#pa7c539e3d0)" style="fill: #7f7f7f; opacity: 0.5"/>
   </g>
   <g id="patch_59">
    <path d="M 189.038885 448.56 
L 190.673365 448.56 
L 190.673365 241.584 
L 189.038885 241.584 
z
" clip-path="url(#pa7c539e3d0)" style="fill: #7f7f7f; opacity: 0.5"/>
   </g>
   <g id="patch_60">
    <path d="M 191.081986 448.56 
L 192.716466 448.56 
L 192.716466 319.2 
L 191.081986 319.2 
z
" clip-path="url(#pa7c539e3d0)" style="fill: #7f7f7f; opacity: 0.5"/>
   </g>
   <g id="patch_61">
    <path d="M 193.125086 448.56 
L 194.759567 448.56 
L 194.759567 241.584 
L 193.125086 241.584 
z
" clip-path="url(#pa7c539e3d0)" style="fill: #7f7f7f; opacity: 0.5"/>
   </g>
   <g id="patch_62">
    <path d="M 195.168187 448.56 
L 196.802668 448.56 
L 196.802668 319.2 
L 195.168187 319.2 
z
" clip-path="url(#pa7c539e3d0)" style="fill: #7f7f7f; opacity: 0.5"/>
   </g>
   <g id="patch_63">
    <path d="M 197.211288 448.56 
L 198.845768 448.56 
L 198.845768 345.072 
L 197.211288 345.072 
z
" clip-path="url(#pa7c539e3d0)" style="fill: #7f7f7f; opacity: 0.5"/>
   </g>
   <g id="patch_64">
    <path d="M 199.254389 448.56 
L 200.888869 448.56 
L 200.888869 319.2 
L 199.254389 319.2 
z
" clip-path="url(#pa7c539e3d0)" style="fill: #7f7f7f; opacity: 0.5"/>
   </g>
   <g id="patch_65">
    <path d="M 201.297489 448.56 
L 202.93197 448.56 
L 202.93197 267.456 
L 201.297489 267.456 
z
" clip-path="url(#pa7c539e3d0)" style="fill: #7f7f7f; opacity: 0.5"/>
   </g>
   <g id="patch_66">
    <path d="M 203.34059 448.56 
L 204.975071 448.56 
L 204.975071 396.816 
L 203.34059 396.816 
z
" clip-path="url(#pa7c539e3d0)" style="fill: #7f7f7f; opacity: 0.5"/>
   </g>
   <g id="patch_67">
    <path d="M 205.383691 448.56 
L 207.018171 448.56 
L 207.018171 422.688 
L 205.383691 422.688 
z
" clip-path="url(#pa7c539e3d0)" style="fill: #7f7f7f; opacity: 0.5"/>
   </g>
   <g id="patch_68">
    <path d="M 207.426792 448.56 
L 209.061272 448.56 
L 209.061272 241.584 
L 207.426792 241.584 
z
" clip-path="url(#pa7c539e3d0)" style="fill: #7f7f7f; opacity: 0.5"/>
   </g>
   <g id="patch_69">
    <path d="M 209.469892 448.56 
L 211.104373 448.56 
L 211.104373 396.816 
L 209.469892 396.816 
z
" clip-path="url(#pa7c539e3d0)" style="fill: #7f7f7f; opacity: 0.5"/>
   </g>
   <g id="patch_70">
    <path d="M 211.512993 448.56 
L 213.147474 448.56 
L 213.147474 345.072 
L 211.512993 345.072 
z
" clip-path="url(#pa7c539e3d0)" style="fill: #7f7f7f; opacity: 0.5"/>
   </g>
   <g id="patch_71">
    <path d="M 213.556094 448.56 
L 215.190574 448.56 
L 215.190574 396.816 
L 213.556094 396.816 
z
" clip-path="url(#pa7c539e3d0)" style="fill: #7f7f7f; opacity: 0.5"/>
   </g>
   <g id="patch_72">
    <path d="M 215.599194 448.56 
L 217.233675 448.56 
L 217.233675 215.712 
L 215.599194 215.712 
z
" clip-path="url(#pa7c539e3d0)" style="fill: #7f7f7f; opacity: 0.5"/>
   </g>
   <g id="patch_73">
    <path d="M 217.642295 448.56 
L 219.276776 448.56 
L 219.276776 241.584 
L 217.642295 241.584 
z
" clip-path="url(#pa7c539e3d0)" style="fill: #7f7f7f; opacity: 0.5"/>
   </g>
   <g id="patch_74">
    <path d="M 219.685396 448.56 
L 221.319877 448.56 
L 221.319877 241.584 
L 219.685396 241.584 
z
" clip-path="url(#pa7c539e3d0)" style="fill: #7f7f7f; opacity: 0.5"/>
   </g>
   <g id="patch_75">
    <path d="M 221.728497 448.56 
L 223.362977 448.56 
L 223.362977 267.456 
L 221.728497 267.456 
z
" clip-path="url(#pa7c539e3d0)" style="fill: #7f7f7f; opacity: 0.5"/>
   </g>
   <g id="patch_76">
    <path d="M 223.771597 448.56 
L 225.406078 448.56 
L 225.406078 215.712 
L 223.771597 215.712 
z
" clip-path="url(#pa7c539e3d0)" style="fill: #7f7f7f; opacity: 0.5"/>
   </g>
   <g id="patch_77">
    <path d="M 225.814698 448.56 
L 227.449179 448.56 
L 227.449179 138.096 
L 225.814698 138.096 
z
" clip-path="url(#pa7c539e3d0)" style="fill: #7f7f7f; opacity: 0.5"/>
   </g>
   <g id="patch_78">
    <path d="M 227.857799 448.56 
L 229.49228 448.56 
L 229.49228 138.096 
L 227.857799 138.096 
z
" clip-path="url(#pa7c539e3d0)" style="fill: #7f7f7f; opacity: 0.5"/>
   </g>
   <g id="patch_79">
    <path d="M 229.9009 448.56 
L 231.53538 448.56 
L 231.53538 267.456 
L 229.9009 267.456 
z
" clip-path="url(#pa7c539e3d0)" style="fill: #7f7f7f; opacity: 0.5"/>
   </g>
   <g id="patch_80">
    <path d="M 231.944 448.56 
L 233.578481 448.56 
L 233.578481 138.096 
L 231.944 138.096 
z
" clip-path="url(#pa7c539e3d0)" style="fill: #7f7f7f; opacity: 0.5"/>
   </g>
   <g id="patch_81">
    <path d="M 233.987101 448.56 
L 235.621582 448.56 
L 235.621582 396.816 
L 233.987101 396.816 
z
" clip-path="url(#pa7c539e3d0)" style="fill: #7f7f7f; opacity: 0.5"/>
   </g>
   <g id="patch_82">
    <path d="M 236.030202 448.56 
L 237.664682 448.56 
L 237.664682 60.48 
L 236.030202 60.48 
z
" clip-path="url(#pa7c539e3d0)" style="fill: #7f7f7f; opacity: 0.5"/>
   </g>
   <g id="patch_83">
    <path d="M 238.073303 448.56 
L 239.707783 448.56 
L 239.707783 163.968 
L 238.073303 163.968 
z
" clip-path="url(#pa7c539e3d0)" style="fill: #7f7f7f; opacity: 0.5"/>
   </g>
   <g id="patch_84">
    <path d="M 240.116403 448.56 
L 241.750884 448.56 
L 241.750884 319.2 
L 240.116403 319.2 
z
" clip-path="url(#pa7c539e3d0)" style="fill: #7f7f7f; opacity: 0.5"/>
   </g>
   <g id="patch_85">
    <path d="M 242.159504 448.56 
L 243.793985 448.56 
L 243.793985 345.072 
L 242.159504 345.072 
z
" clip-path="url(#pa7c539e3d0)" style="fill: #7f7f7f; opacity: 0.5"/>
   </g>
   <g id="patch_86">
    <path d="M 244.202605 448.56 
L 245.837085 448.56 
L 245.837085 396.816 
L 244.202605 396.816 
z
" clip-path="url(#pa7c539e3d0)" style="fill: #7f7f7f; opacity: 0.5"/>
   </g>
   <g id="patch_87">
    <path d="M 246.245706 448.56 
L 247.880186 448.56 
L 247.880186 345.072 
L 246.245706 345.072 
z
" clip-path="url(#pa7c539e3d0)" style="fill: #7f7f7f; opacity: 0.5"/>
   </g>
   <g id="patch_88">
    <path d="M 248.288806 448.56 
L 249.923287 448.56 
L 249.923287 267.456 
L 248.288806 267.456 
z
" clip-path="url(#pa7c539e3d0)" style="fill: #7f7f7f; opacity: 0.5"/>
   </g>
   <g id="patch_89">
    <path d="M 250.331907 448.56 
L 251.966388 448.56 
L 251.966388 112.224 
L 250.331907 112.224 
z
" clip-path="url(#pa7c539e3d0)" style="fill: #7f7f7f; opacity: 0.5"/>
   </g>
   <g id="patch_90">
    <path d="M 252.375008 448.56 
L 254.009488 448.56 
L 254.009488 293.328 
L 252.375008 293.328 
z
" clip-path="url(#pa7c539e3d0)" style="fill: #7f7f7f; opacity: 0.5"/>
   </g>
   <g id="patch_91">
    <path d="M 254.418109 448.56 
L 256.052589 448.56 
L 256.052589 241.584 
L 254.418109 241.584 
z
" clip-path="url(#pa7c539e3d0)" style="fill: #7f7f7f; opacity: 0.5"/>
   </g>
   <g id="patch_92">
    <path d="M 256.461209 448.56 
L 258.09569 448.56 
L 258.09569 345.072 
L 256.461209 345.072 
z
" clip-path="url(#pa7c539e3d0)" style="fill: #7f7f7f; opacity: 0.5"/>
   </g>
   <g id="patch_93">
    <path d="M 258.50431 448.56 
L 260.138791 448.56 
L 260.138791 319.2 
L 258.50431 319.2 
z
" clip-path="url(#pa7c539e3d0)" style="fill: #7f7f7f; opacity: 0.5"/>
   </g>
   <g id="patch_94">
    <path d="M 260.547411 448.56 
L 262.181891 448.56 
L 262.181891 370.944 
L 260.547411 370.944 
z
" clip-path="url(#pa7c539e3d0)" style="fill: #7f7f7f; opacity: 0.5"/>
   </g>
   <g id="patch_95">
    <path d="M 262.590512 448.56 
L 264.224992 448.56 
L 264.224992 396.816 
L 262.590512 396.816 
z
" clip-path="url(#pa7c539e3d0)" style="fill: #7f7f7f; opacity: 0.5"/>
   </g>
   <g id="patch_96">
    <path d="M 264.633612 448.56 
L 266.268093 448.56 
L 266.268093 396.816 
L 264.633612 396.816 
z
" clip-path="url(#pa7c539e3d0)" style="fill: #7f7f7f; opacity: 0.5"/>
   </g>
   <g id="patch_97">
    <path d="M 266.676713 448.56 
L 268.311194 448.56 
L 268.311194 448.56 
L 266.676713 448.56 
z
" clip-path="url(#pa7c539e3d0)" style="fill: #7f7f7f; opacity: 0.5"/>
   </g>
   <g id="patch_98">
    <path d="M 268.719814 448.56 
L 270.354294 448.56 
L 270.354294 422.688 
L 268.719814 422.688 
z
" clip-path="url(#pa7c539e3d0)" style="fill: #7f7f7f; opacity: 0.5"/>
   </g>
   <g id="patch_99">
    <path d="M 270.762915 448.56 
L 272.397395 448.56 
L 272.397395 396.816 
L 270.762915 396.816 
z
" clip-path="url(#pa7c539e3d0)" style="fill: #7f7f7f; opacity: 0.5"/>
   </g>
   <g id="patch_100">
    <path d="M 272.806015 448.56 
L 274.440496 448.56 
L 274.440496 370.944 
L 272.806015 370.944 
z
" clip-path="url(#pa7c539e3d0)" style="fill: #7f7f7f; opacity: 0.5"/>
   </g>
   <g id="patch_101">
    <path d="M 274.849116 448.56 
L 276.483597 448.56 
L 276.483597 422.688 
L 274.849116 422.688 
z
" clip-path="url(#pa7c539e3d0)" style="fill: #7f7f7f; opacity: 0.5"/>
   </g>
   <g id="patch_102">
    <path d="M 276.892217 448.56 
L 278.526697 448.56 
L 278.526697 370.944 
L 276.892217 370.944 
z
" clip-path="url(#pa7c539e3d0)" style="fill: #7f7f7f; opacity: 0.5"/>
   </g>
   <g id="patch_103">
    <path d="M 278.935318 448.56 
L 280.569798 448.56 
L 280.569798 396.816 
L 278.935318 396.816 
z
" clip-path="url(#pa7c539e3d0)" style="fill: #7f7f7f; opacity: 0.5"/>
   </g>
   <g id="patch_104">
    <path d="M 280.978418 448.56 
L 282.612899 448.56 
L 282.612899 448.56 
L 280.978418 448.56 
z
" clip-path="url(#pa7c539e3d0)" style="fill: #7f7f7f; opacity: 0.5"/>
   </g>
   <g id="patch_105">
    <path d="M 283.021519 448.56 
L 284.656 448.56 
L 284.656 448.56 
L 283.021519 448.56 
z
" clip-path="url(#pa7c539e3d0)" style="fill: #7f7f7f; opacity: 0.5"/>
   </g>
   <g id="patch_106">
    <path d="M 285.06462 448.56 
L 286.6991 448.56 
L 286.6991 422.688 
L 285.06462 422.688 
z
" clip-path="url(#pa7c539e3d0)" style="fill: #7f7f7f; opacity: 0.5"/>
   </g>
   <g id="patch_107">
    <path d="M 287.10772 448.56 
L 288.742201 448.56 
L 288.742201 396.816 
L 287.10772 396.816 
z
" clip-path="url(#pa7c539e3d0)" style="fill: #7f7f7f; opacity: 0.5"/>
   </g>
   <g id="patch_108">
    <path d="M 289.150821 448.56 
L 290.785302 448.56 
L 290.785302 422.688 
L 289.150821 422.688 
z
" clip-path="url(#pa7c539e3d0)" style="fill: #7f7f7f; opacity: 0.5"/>
   </g>
   <g id="patch_109">
    <path d="M 291.193922 448.56 
L 292.828403 448.56 
L 292.828403 448.56 
L 291.193922 448.56 
z
" clip-path="url(#pa7c539e3d0)" style="fill: #7f7f7f; opacity: 0.5"/>
   </g>
   <g id="patch_110">
    <path d="M 293.237023 448.56 
L 294.871503 448.56 
L 294.871503 422.688 
L 293.237023 422.688 
z
" clip-path="url(#pa7c539e3d0)" style="fill: #7f7f7f; opacity: 0.5"/>
   </g>
   <g id="patch_111">
    <path d="M 295.280123 448.56 
L 296.914604 448.56 
L 296.914604 448.56 
L 295.280123 448.56 
z
" clip-path="url(#pa7c539e3d0)" style="fill: #7f7f7f; opacity: 0.5"/>
   </g>
   <g id="patch_112">
    <path d="M 297.323224 448.56 
L 298.957705 448.56 
L 298.957705 422.688 
L 297.323224 422.688 
z
" clip-path="url(#pa7c539e3d0)" style="fill: #7f7f7f; opacity: 0.5"/>
   </g>
   <g id="patch_113">
    <path d="M 299.366325 448.56 
L 301.000806 448.56 
L 301.000806 448.56 
L 299.366325 448.56 
z
" clip-path="url(#pa7c539e3d0)" style="fill: #7f7f7f; opacity: 0.5"/>
   </g>
   <g id="patch_114">
    <path d="M 301.409426 448.56 
L 303.043906 448.56 
L 303.043906 448.56 
L 301.409426 448.56 
z
" clip-path="url(#pa7c539e3d0)" style="fill: #7f7f7f; opacity: 0.5"/>
   </g>
   <g id="patch_115">
    <path d="M 303.452526 448.56 
L 305.087007 448.56 
L 305.087007 448.56 
L 303.452526 448.56 
z
" clip-path="url(#pa7c539e3d0)" style="fill: #7f7f7f; opacity: 0.5"/>
   </g>
   <g id="patch_116">
    <path d="M 305.495627 448.56 
L 307.130108 448.56 
L 307.130108 422.688 
L 305.495627 422.688 
z
" clip-path="url(#pa7c539e3d0)" style="fill: #7f7f7f; opacity: 0.5"/>
   </g>
   <g id="patch_117">
    <path d="M 307.538728 448.56 
L 309.173208 448.56 
L 309.173208 422.688 
L 307.538728 422.688 
z
" clip-path="url(#pa7c539e3d0)" style="fill: #7f7f7f; opacity: 0.5"/>
   </g>
   <g id="patch_118">
    <path d="M 309.581829 448.56 
L 311.216309 448.56 
L 311.216309 448.56 
L 309.581829 448.56 
z
" clip-path="url(#pa7c539e3d0)" style="fill: #7f7f7f; opacity: 0.5"/>
   </g>
   <g id="patch_119">
    <path d="M 311.624929 448.56 
L 313.25941 448.56 
L 313.25941 448.56 
L 311.624929 448.56 
z
" clip-path="url(#pa7c539e3d0)" style="fill: #7f7f7f; opacity: 0.5"/>
   </g>
   <g id="patch_120">
    <path d="M 313.66803 448.56 
L 315.302511 448.56 
L 315.302511 448.56 
L 313.66803 448.56 
z
" clip-path="url(#pa7c539e3d0)" style="fill: #7f7f7f; opacity: 0.5"/>
   </g>
   <g id="patch_121">
    <path d="M 315.711131 448.56 
L 317.345611 448.56 
L 317.345611 422.688 
L 315.711131 422.688 
z
" clip-path="url(#pa7c539e3d0)" style="fill: #7f7f7f; opacity: 0.5"/>
   </g>
   <g id="patch_122">
    <path d="M 317.754232 448.56 
L 319.388712 448.56 
L 319.388712 448.56 
L 317.754232 448.56 
z
" clip-path="url(#pa7c539e3d0)" style="fill: #7f7f7f; opacity: 0.5"/>
   </g>
   <g id="patch_123">
    <path d="M 319.797332 448.56 
L 321.431813 448.56 
L 321.431813 448.56 
L 319.797332 448.56 
z
" clip-path="url(#pa7c539e3d0)" style="fill: #7f7f7f; opacity: 0.5"/>
   </g>
   <g id="patch_124">
    <path d="M 321.840433 448.56 
L 323.474914 448.56 
L 323.474914 448.56 
L 321.840433 448.56 
z
" clip-path="url(#pa7c539e3d0)" style="fill: #7f7f7f; opacity: 0.5"/>
   </g>
   <g id="patch_125">
    <path d="M 323.883534 448.56 
L 325.518014 448.56 
L 325.518014 448.56 
L 323.883534 448.56 
z
" clip-path="url(#pa7c539e3d0)" style="fill: #7f7f7f; opacity: 0.5"/>
   </g>
   <g id="patch_126">
    <path d="M 325.926635 448.56 
L 327.561115 448.56 
L 327.561115 448.56 
L 325.926635 448.56 
z
" clip-path="url(#pa7c539e3d0)" style="fill: #7f7f7f; opacity: 0.5"/>
   </g>
   <g id="patch_127">
    <path d="M 327.969735 448.56 
L 329.604216 448.56 
L 329.604216 448.56 
L 327.969735 448.56 
z
" clip-path="url(#pa7c539e3d0)" style="fill: #7f7f7f; opacity: 0.5"/>
   </g>
   <g id="patch_128">
    <path d="M 330.012836 448.56 
L 331.647317 448.56 
L 331.647317 448.56 
L 330.012836 448.56 
z
" clip-path="url(#pa7c539e3d0)" style="fill: #7f7f7f; opacity: 0.5"/>
   </g>
   <g id="patch_129">
    <path d="M 332.055937 448.56 
L 333.690417 448.56 
L 333.690417 448.56 
L 332.055937 448.56 
z
" clip-path="url(#pa7c539e3d0)" style="fill: #7f7f7f; opacity: 0.5"/>
   </g>
   <g id="patch_130">
    <path d="M 334.099038 448.56 
L 335.733518 448.56 
L 335.733518 448.56 
L 334.099038 448.56 
z
" clip-path="url(#pa7c539e3d0)" style="fill: #7f7f7f; opacity: 0.5"/>
   </g>
   <g id="patch_131">
    <path d="M 336.142138 448.56 
L 337.776619 448.56 
L 337.776619 422.688 
L 336.142138 422.688 
z
" clip-path="url(#pa7c539e3d0)" style="fill: #7f7f7f; opacity: 0.5"/>
   </g>
   <g id="patch_132">
    <path d="M 338.185239 448.56 
L 339.81972 448.56 
L 339.81972 448.56 
L 338.185239 448.56 
z
" clip-path="url(#pa7c539e3d0)" style="fill: #7f7f7f; opacity: 0.5"/>
   </g>
   <g id="patch_133">
    <path d="M 340.22834 448.56 
L 341.86282 448.56 
L 341.86282 448.56 
L 340.22834 448.56 
z
" clip-path="url(#pa7c539e3d0)" style="fill: #7f7f7f; opacity: 0.5"/>
   </g>
   <g id="patch_134">
    <path d="M 342.271441 448.56 
L 343.905921 448.56 
L 343.905921 448.56 
L 342.271441 448.56 
z
" clip-path="url(#pa7c539e3d0)" style="fill: #7f7f7f; opacity: 0.5"/>
   </g>
   <g id="patch_135">
    <path d="M 344.314541 448.56 
L 345.949022 448.56 
L 345.949022 448.56 
L 344.314541 448.56 
z
" clip-path="url(#pa7c539e3d0)" style="fill: #7f7f7f; opacity: 0.5"/>
   </g>
   <g id="patch_136">
    <path d="M 346.357642 448.56 
L 347.992123 448.56 
L 347.992123 448.56 
L 346.357642 448.56 
z
" clip-path="url(#pa7c539e3d0)" style="fill: #7f7f7f; opacity: 0.5"/>
   </g>
   <g id="patch_137">
    <path d="M 348.400743 448.56 
L 350.035223 448.56 
L 350.035223 448.56 
L 348.400743 448.56 
z
" clip-path="url(#pa7c539e3d0)" style="fill: #7f7f7f; opacity: 0.5"/>
   </g>
   <g id="patch_138">
    <path d="M 350.443843 448.56 
L 352.078324 448.56 
L 352.078324 422.688 
L 350.443843 422.688 
z
" clip-path="url(#pa7c539e3d0)" style="fill: #7f7f7f; opacity: 0.5"/>
   </g>
   <g id="patch_139">
    <path d="M 352.486944 448.56 
L 354.121425 448.56 
L 354.121425 448.56 
L 352.486944 448.56 
z
" clip-path="url(#pa7c539e3d0)" style="fill: #7f7f7f; opacity: 0.5"/>
   </g>
   <g id="patch_140">
    <path d="M 354.530045 448.56 
L 356.164526 448.56 
L 356.164526 448.56 
L 354.530045 448.56 
z
" clip-path="url(#pa7c539e3d0)" style="fill: #7f7f7f; opacity: 0.5"/>
   </g>
   <g id="patch_141">
    <path d="M 356.573146 448.56 
L 358.207626 448.56 
L 358.207626 448.56 
L 356.573146 448.56 
z
" clip-path="url(#pa7c539e3d0)" style="fill: #7f7f7f; opacity: 0.5"/>
   </g>
   <g id="patch_142">
    <path d="M 358.616246 448.56 
L 360.250727 448.56 
L 360.250727 448.56 
L 358.616246 448.56 
z
" clip-path="url(#pa7c539e3d0)" style="fill: #7f7f7f; opacity: 0.5"/>
   </g>
   <g id="patch_143">
    <path d="M 360.659347 448.56 
L 362.293828 448.56 
L 362.293828 448.56 
L 360.659347 448.56 
z
" clip-path="url(#pa7c539e3d0)" style="fill: #7f7f7f; opacity: 0.5"/>
   </g>
   <g id="patch_144">
    <path d="M 362.702448 448.56 
L 364.336929 448.56 
L 364.336929 448.56 
L 362.702448 448.56 
z
" clip-path="url(#pa7c539e3d0)" style="fill: #7f7f7f; opacity: 0.5"/>
   </g>
   <g id="patch_145">
    <path d="M 364.745549 448.56 
L 366.380029 448.56 
L 366.380029 448.56 
L 364.745549 448.56 
z
" clip-path="url(#pa7c539e3d0)" style="fill: #7f7f7f; opacity: 0.5"/>
   </g>
   <g id="patch_146">
    <path d="M 366.788649 448.56 
L 368.42313 448.56 
L 368.42313 448.56 
L 366.788649 448.56 
z
" clip-path="url(#pa7c539e3d0)" style="fill: #7f7f7f; opacity: 0.5"/>
   </g>
   <g id="patch_147">
    <path d="M 368.83175 448.56 
L 370.466231 448.56 
L 370.466231 448.56 
L 368.83175 448.56 
z
" clip-path="url(#pa7c539e3d0)" style="fill: #7f7f7f; opacity: 0.5"/>
   </g>
   <g id="patch_148">
    <path d="M 370.874851 448.56 
L 372.509332 448.56 
L 372.509332 448.56 
L 370.874851 448.56 
z
" clip-path="url(#pa7c539e3d0)" style="fill: #7f7f7f; opacity: 0.5"/>
   </g>
   <g id="patch_149">
    <path d="M 372.917952 448.56 
L 374.552432 448.56 
L 374.552432 448.56 
L 372.917952 448.56 
z
" clip-path="url(#pa7c539e3d0)" style="fill: #7f7f7f; opacity: 0.5"/>
   </g>
   <g id="patch_150">
    <path d="M 374.961052 448.56 
L 376.595533 448.56 
L 376.595533 448.56 
L 374.961052 448.56 
z
" clip-path="url(#pa7c539e3d0)" style="fill: #7f7f7f; opacity: 0.5"/>
   </g>
   <g id="patch_151">
    <path d="M 377.004153 448.56 
L 378.638634 448.56 
L 378.638634 448.56 
L 377.004153 448.56 
z
" clip-path="url(#pa7c539e3d0)" style="fill: #7f7f7f; opacity: 0.5"/>
   </g>
   <g id="patch_152">
    <path d="M 379.047254 448.56 
L 380.681734 448.56 
L 380.681734 448.56 
L 379.047254 448.56 
z
" clip-path="url(#pa7c539e3d0)" style="fill: #7f7f7f; opacity: 0.5"/>
   </g>
   <g id="patch_153">
    <path d="M 381.090355 448.56 
L 382.724835 448.56 
L 382.724835 448.56 
L 381.090355 448.56 
z
" clip-path="url(#pa7c539e3d0)" style="fill: #7f7f7f; opacity: 0.5"/>
   </g>
   <g id="patch_154">
    <path d="M 383.133455 448.56 
L 384.767936 448.56 
L 384.767936 448.56 
L 383.133455 448.56 
z
" clip-path="url(#pa7c539e3d0)" style="fill: #7f7f7f; opacity: 0.5"/>
   </g>
   <g id="patch_155">
    <path d="M 385.176556 448.56 
L 386.811037 448.56 
L 386.811037 448.56 
L 385.176556 448.56 
z
" clip-path="url(#pa7c539e3d0)" style="fill: #7f7f7f; opacity: 0.5"/>
   </g>
   <g id="patch_156">
    <path d="M 387.219657 448.56 
L 388.854137 448.56 
L 388.854137 448.56 
L 387.219657 448.56 
z
" clip-path="url(#pa7c539e3d0)" style="fill: #7f7f7f; opacity: 0.5"/>
   </g>
   <g id="patch_157">
    <path d="M 389.262758 448.56 
L 390.897238 448.56 
L 390.897238 448.56 
L 389.262758 448.56 
z
" clip-path="url(#pa7c539e3d0)" style="fill: #7f7f7f; opacity: 0.5"/>
   </g>
   <g id="patch_158">
    <path d="M 391.305858 448.56 
L 392.940339 448.56 
L 392.940339 448.56 
L 391.305858 448.56 
z
" clip-path="url(#pa7c539e3d0)" style="fill: #7f7f7f; opacity: 0.5"/>
   </g>
   <g id="patch_159">
    <path d="M 393.348959 448.56 
L 394.98344 448.56 
L 394.98344 448.56 
L 393.348959 448.56 
z
" clip-path="url(#pa7c539e3d0)" style="fill: #7f7f7f; opacity: 0.5"/>
   </g>
   <g id="patch_160">
    <path d="M 395.39206 448.56 
L 397.02654 448.56 
L 397.02654 448.56 
L 395.39206 448.56 
z
" clip-path="url(#pa7c539e3d0)" style="fill: #7f7f7f; opacity: 0.5"/>
   </g>
   <g id="patch_161">
    <path d="M 397.435161 448.56 
L 399.069641 448.56 
L 399.069641 448.56 
L 397.435161 448.56 
z
" clip-path="url(#pa7c539e3d0)" style="fill: #7f7f7f; opacity: 0.5"/>
   </g>
   <g id="patch_162">
    <path d="M 399.478261 448.56 
L 401.112742 448.56 
L 401.112742 448.56 
L 399.478261 448.56 
z
" clip-path="url(#pa7c539e3d0)" style="fill: #7f7f7f; opacity: 0.5"/>
   </g>
   <g id="patch_163">
    <path d="M 401.521362 448.56 
L 403.155843 448.56 
L 403.155843 448.56 
L 401.521362 448.56 
z
" clip-path="url(#pa7c539e3d0)" style="fill: #7f7f7f; opacity: 0.5"/>
   </g>
   <g id="patch_164">
    <path d="M 403.564463 448.56 
L 405.198943 448.56 
L 405.198943 448.56 
L 403.564463 448.56 
z
" clip-path="url(#pa7c539e3d0)" style="fill: #7f7f7f; opacity: 0.5"/>
   </g>
   <g id="patch_165">
    <path d="M 405.607564 448.56 
L 407.242044 448.56 
L 407.242044 448.56 
L 405.607564 448.56 
z
" clip-path="url(#pa7c539e3d0)" style="fill: #7f7f7f; opacity: 0.5"/>
   </g>
   <g id="patch_166">
    <path d="M 407.650664 448.56 
L 409.285145 448.56 
L 409.285145 448.56 
L 407.650664 448.56 
z
" clip-path="url(#pa7c539e3d0)" style="fill: #7f7f7f; opacity: 0.5"/>
   </g>
   <g id="patch_167">
    <path d="M 409.693765 448.56 
L 411.328246 448.56 
L 411.328246 448.56 
L 409.693765 448.56 
z
" clip-path="url(#pa7c539e3d0)" style="fill: #7f7f7f; opacity: 0.5"/>
   </g>
   <g id="patch_168">
    <path d="M 411.736866 448.56 
L 413.371346 448.56 
L 413.371346 448.56 
L 411.736866 448.56 
z
" clip-path="url(#pa7c539e3d0)" style="fill: #7f7f7f; opacity: 0.5"/>
   </g>
   <g id="patch_169">
    <path d="M 413.779967 448.56 
L 415.414447 448.56 
L 415.414447 448.56 
L 413.779967 448.56 
z
" clip-path="url(#pa7c539e3d0)" style="fill: #7f7f7f; opacity: 0.5"/>
   </g>
   <g id="patch_170">
    <path d="M 415.823067 448.56 
L 417.457548 448.56 
L 417.457548 448.56 
L 415.823067 448.56 
z
" clip-path="url(#pa7c539e3d0)" style="fill: #7f7f7f; opacity: 0.5"/>
   </g>
   <g id="patch_171">
    <path d="M 417.866168 448.56 
L 419.500649 448.56 
L 419.500649 448.56 
L 417.866168 448.56 
z
" clip-path="url(#pa7c539e3d0)" style="fill: #7f7f7f; opacity: 0.5"/>
   </g>
   <g id="patch_172">
    <path d="M 419.909269 448.56 
L 421.543749 448.56 
L 421.543749 448.56 
L 419.909269 448.56 
z
" clip-path="url(#pa7c539e3d0)" style="fill: #7f7f7f; opacity: 0.5"/>
   </g>
   <g id="patch_173">
    <path d="M 421.952369 448.56 
L 423.58685 448.56 
L 423.58685 448.56 
L 421.952369 448.56 
z
" clip-path="url(#pa7c539e3d0)" style="fill: #7f7f7f; opacity: 0.5"/>
   </g>
   <g id="patch_174">
    <path d="M 423.99547 448.56 
L 425.629951 448.56 
L 425.629951 448.56 
L 423.99547 448.56 
z
" clip-path="url(#pa7c539e3d0)" style="fill: #7f7f7f; opacity: 0.5"/>
   </g>
   <g id="patch_175">
    <path d="M 426.038571 448.56 
L 427.673052 448.56 
L 427.673052 448.56 
L 426.038571 448.56 
z
" clip-path="url(#pa7c539e3d0)" style="fill: #7f7f7f; opacity: 0.5"/>
   </g>
   <g id="patch_176">
    <path d="M 428.081672 448.56 
L 429.716152 448.56 
L 429.716152 448.56 
L 428.081672 448.56 
z
" clip-path="url(#pa7c539e3d0)" style="fill: #7f7f7f; opacity: 0.5"/>
   </g>
   <g id="patch_177">
    <path d="M 430.124772 448.56 
L 431.759253 448.56 
L 431.759253 448.56 
L 430.124772 448.56 
z
" clip-path="url(#pa7c539e3d0)" style="fill: #7f7f7f; opacity: 0.5"/>
   </g>
   <g id="patch_178">
    <path d="M 432.167873 448.56 
L 433.802354 448.56 
L 433.802354 448.56 
L 432.167873 448.56 
z
" clip-path="url(#pa7c539e3d0)" style="fill: #7f7f7f; opacity: 0.5"/>
   </g>
   <g id="patch_179">
    <path d="M 434.210974 448.56 
L 435.845455 448.56 
L 435.845455 448.56 
L 434.210974 448.56 
z
" clip-path="url(#pa7c539e3d0)" style="fill: #7f7f7f; opacity: 0.5"/>
   </g>
   <g id="matplotlib.axis_3">
    <g id="ytick_10">
     <g id="line2d_20">
      <defs>
       <path id="mc32f5bb1df" d="M 0 0 
L 3.5 0 
" style="stroke: #7f7f7f; stroke-width: 0.8"/>
      </defs>
      <g>
       <use xlink:href="#mc32f5bb1df" x="453.6" y="448.56" style="fill: #7f7f7f; stroke: #7f7f7f; stroke-width: 0.8"/>
      </g>
     </g>
     <g id="text_19">
      <text style="font-size: 16px; font-family: 'Arial', sans-serif; text-anchor: start; fill: #7f7f7f" x="460.6" y="454.28625" transform="rotate(-0 460.6 454.28625)">0</text>
     </g>
    </g>
    <g id="ytick_11">
     <g id="line2d_21">
      <g>
       <use xlink:href="#mc32f5bb1df" x="453.6" y="396.816" style="fill: #7f7f7f; stroke: #7f7f7f; stroke-width: 0.8"/>
      </g>
     </g>
     <g id="text_20">
      <text style="font-size: 16px; font-family: 'Arial', sans-serif; text-anchor: start; fill: #7f7f7f" x="460.6" y="402.54225" transform="rotate(-0 460.6 402.54225)">2</text>
     </g>
    </g>
    <g id="ytick_12">
     <g id="line2d_22">
      <g>
       <use xlink:href="#mc32f5bb1df" x="453.6" y="345.072" style="fill: #7f7f7f; stroke: #7f7f7f; stroke-width: 0.8"/>
      </g>
     </g>
     <g id="text_21">
      <text style="font-size: 16px; font-family: 'Arial', sans-serif; text-anchor: start; fill: #7f7f7f" x="460.6" y="350.79825" transform="rotate(-0 460.6 350.79825)">4</text>
     </g>
    </g>
    <g id="ytick_13">
     <g id="line2d_23">
      <g>
       <use xlink:href="#mc32f5bb1df" x="453.6" y="293.328" style="fill: #7f7f7f; stroke: #7f7f7f; stroke-width: 0.8"/>
      </g>
     </g>
     <g id="text_22">
      <text style="font-size: 16px; font-family: 'Arial', sans-serif; text-anchor: start; fill: #7f7f7f" x="460.6" y="299.05425" transform="rotate(-0 460.6 299.05425)">6</text>
     </g>
    </g>
    <g id="ytick_14">
     <g id="line2d_24">
      <g>
       <use xlink:href="#mc32f5bb1df" x="453.6" y="241.584" style="fill: #7f7f7f; stroke: #7f7f7f; stroke-width: 0.8"/>
      </g>
     </g>
     <g id="text_23">
      <text style="font-size: 16px; font-family: 'Arial', sans-serif; text-anchor: start; fill: #7f7f7f" x="460.6" y="247.31025" transform="rotate(-0 460.6 247.31025)">8</text>
     </g>
    </g>
    <g id="ytick_15">
     <g id="line2d_25">
      <g>
       <use xlink:href="#mc32f5bb1df" x="453.6" y="189.84" style="fill: #7f7f7f; stroke: #7f7f7f; stroke-width: 0.8"/>
      </g>
     </g>
     <g id="text_24">
      <text style="font-size: 16px; font-family: 'Arial', sans-serif; text-anchor: start; fill: #7f7f7f" x="460.6" y="195.56625" transform="rotate(-0 460.6 195.56625)">10</text>
     </g>
    </g>
    <g id="ytick_16">
     <g id="line2d_26">
      <g>
       <use xlink:href="#mc32f5bb1df" x="453.6" y="138.096" style="fill: #7f7f7f; stroke: #7f7f7f; stroke-width: 0.8"/>
      </g>
     </g>
     <g id="text_25">
      <text style="font-size: 16px; font-family: 'Arial', sans-serif; text-anchor: start; fill: #7f7f7f" x="460.6" y="143.82225" transform="rotate(-0 460.6 143.82225)">12</text>
     </g>
    </g>
    <g id="ytick_17">
     <g id="line2d_27">
      <g>
       <use xlink:href="#mc32f5bb1df" x="453.6" y="86.352" style="fill: #7f7f7f; stroke: #7f7f7f; stroke-width: 0.8"/>
      </g>
     </g>
     <g id="text_26">
      <text style="font-size: 16px; font-family: 'Arial', sans-serif; text-anchor: start; fill: #7f7f7f" x="460.6" y="92.07825" transform="rotate(-0 460.6 92.07825)">14</text>
     </g>
    </g>
    <g id="text_27">
     <text style="font-size: 16px; font-family: 'Arial', sans-serif; text-anchor: middle; fill: #7f7f7f" x="493.8475" y="254.52" transform="rotate(-90 493.8475 254.52)">Number of cases</text>
    </g>
   </g>
   <g id="patch_180">
    <path d="M 453.6 448.56 
L 453.6 60.48 
" style="fill: none; stroke: #7f7f7f; stroke-width: 0.8; stroke-linejoin: miter; stroke-linecap: square"/>
   </g>
  </g>
 </g>
 <defs>
  <clipPath id="pa7c539e3d0">
   <rect x="63" y="60.48" width="390.6" height="388.08"/>
  </clipPath>
 </defs>
</svg>
