<?xml version="1.0" encoding="utf-8" standalone="no"?>
<!DOCTYPE svg PUBLIC "-//W3C//DTD SVG 1.1//EN"
  "http://www.w3.org/Graphics/SVG/1.1/DTD/svg11.dtd">
<svg xmlns:xlink="http://www.w3.org/1999/xlink" width="460.8pt" height="345.6pt" viewBox="0 0 460.8 345.6" xmlns="http://www.w3.org/2000/svg" version="1.1">
 <metadata>
  <rdf:RDF xmlns:dc="http://purl.org/dc/elements/1.1/" xmlns:cc="http://creativecommons.org/ns#" xmlns:rdf="http://www.w3.org/1999/02/22-rdf-syntax-ns#">
   <cc:Work>
    <dc:type rdf:resource="http://purl.org/dc/dcmitype/StillImage"/>
    <dc:date>2026-01-30T17:36:12.850074</dc:date>
    <dc:format>image/svg+xml</dc:format>
    <dc:creator>
     <cc:Agent>
      <dc:title>Matplotlib v3.10.8, https://matplotlib.org/</dc:title>
     </cc:Agent>
    </dc:creator>
   </cc:Work>
  </rdf:RDF>
 </metadata>
 <defs>
  <style type="text/css">*{stroke-linejoin: round; stroke-linecap: butt}</style>
 </defs>
 <g id="figure_1">
  <g id="patch_1">
   <path d="M 0 345.6 
L 460.8 345.6 
L 460.8 0 
L 0 0 
z
" style="fill: #ffffff"/>
  </g>
  <g id="axes_1">
   <g id="patch_2">
    <path d="M 57.6 307.584 
L 414.72 307.584 
L 414.72 41.472 
L 57.6 41.472 
z
" style="fill: #ffffff"/>
   </g>
   <g id="matplotlib.axis_1">
    <g id="xtick_1">
     <g id="line2d_1">
      <defs>
       <path id="mbc190c37f2" d="M 0 0 
L 0 3.5 
" style="stroke: #000000; stroke-width: 0.8"/>
      </defs>
      <g>
       <use xlink:href="#mbc190c37f2" x="83.715109" y="307.584" style="stroke: #000000; stroke-width: 0.8"/>
      </g>
     </g>
     <g id="text_1">
      <!-- 1 Jul -->
      <g transform="translate(72.911984 322.182437) scale(0.1 -0.1)">
       <defs>
        <path id="DejaVuSans-31" d="M 794 531 
L 1825 531 
L 1825 4091 
L 703 3866 
L 703 4441 
L 1819 4666 
L 2450 4666 
L 2450 531 
L 3481 531 
L 3481 0 
L 794 0 
L 794 531 
z
" transform="scale(0.015625)"/>
        <path id="DejaVuSans-20" transform="scale(0.015625)"/>
        <path id="DejaVuSans-4a" d="M 628 4666 
L 1259 4666 
L 1259 325 
Q 1259 -519 939 -900 
Q 619 -1281 -91 -1281 
L -331 -1281 
L -331 -750 
L -134 -750 
Q 284 -750 456 -515 
Q 628 -281 628 325 
L 628 4666 
z
" transform="scale(0.015625)"/>
        <path id="DejaVuSans-75" d="M 544 1381 
L 544 3500 
L 1119 3500 
L 1119 1403 
Q 1119 906 1312 657 
Q 1506 409 1894 409 
Q 2359 409 2629 706 
Q 2900 1003 2900 1516 
L 2900 3500 
L 3475 3500 
L 3475 0 
L 2900 0 
L 2900 538 
Q 2691 219 2414 64 
Q 2138 -91 1772 -91 
Q 1169 -91 856 284 
Q 544 659 544 1381 
z
M 1991 3584 
L 1991 3584 
z
" transform="scale(0.015625)"/>
        <path id="DejaVuSans-6c" d="M 603 4863 
L 1178 4863 
L 1178 0 
L 603 0 
L 603 4863 
z
" transform="scale(0.015625)"/>
       </defs>
       <use xlink:href="#DejaVuSans-31"/>
       <use xlink:href="#DejaVuSans-20" transform="translate(63.623047 0)"/>
       <use xlink:href="#DejaVuSans-4a" transform="translate(95.410156 0)"/>
       <use xlink:href="#DejaVuSans-75" transform="translate(124.902344 0)"/>
       <use xlink:href="#DejaVuSans-6c" transform="translate(188.28125 0)"/>
      </g>
     </g>
    </g>
    <g id="xtick_2">
     <g id="line2d_2">
      <g>
       <use xlink:href="#mbc190c37f2" x="140.447301" y="307.584" style="stroke: #000000; stroke-width: 0.8"/>
      </g>
     </g>
     <g id="text_2">
      <!-- 1 Aug -->
      <g transform="translate(125.913708 322.182437) scale(0.1 -0.1)">
       <defs>
        <path id="DejaVuSans-41" d="M 2188 4044 
L 1331 1722 
L 3047 1722 
L 2188 4044 
z
M 1831 4666 
L 2547 4666 
L 4325 0 
L 3669 0 
L 3244 1197 
L 1141 1197 
L 716 0 
L 50 0 
L 1831 4666 
z
" transform="scale(0.015625)"/>
        <path id="DejaVuSans-67" d="M 2906 1791 
Q 2906 2416 2648 2759 
Q 2391 3103 1925 3103 
Q 1463 3103 1205 2759 
Q 947 2416 947 1791 
Q 947 1169 1205 825 
Q 1463 481 1925 481 
Q 2391 481 2648 825 
Q 2906 1169 2906 1791 
z
M 3481 434 
Q 3481 -459 3084 -895 
Q 2688 -1331 1869 -1331 
Q 1566 -1331 1297 -1286 
Q 1028 -1241 775 -1147 
L 775 -588 
Q 1028 -725 1275 -790 
Q 1522 -856 1778 -856 
Q 2344 -856 2625 -561 
Q 2906 -266 2906 331 
L 2906 616 
Q 2728 306 2450 153 
Q 2172 0 1784 0 
Q 1141 0 747 490 
Q 353 981 353 1791 
Q 353 2603 747 3093 
Q 1141 3584 1784 3584 
Q 2172 3584 2450 3431 
Q 2728 3278 2906 2969 
L 2906 3500 
L 3481 3500 
L 3481 434 
z
" transform="scale(0.015625)"/>
       </defs>
       <use xlink:href="#DejaVuSans-31"/>
       <use xlink:href="#DejaVuSans-20" transform="translate(63.623047 0)"/>
       <use xlink:href="#DejaVuSans-41" transform="translate(95.410156 0)"/>
       <use xlink:href="#DejaVuSans-75" transform="translate(163.818359 0)"/>
       <use xlink:href="#DejaVuSans-67" transform="translate(227.197266 0)"/>
      </g>
     </g>
    </g>
    <g id="xtick_3">
     <g id="line2d_3">
      <g>
       <use xlink:href="#mbc190c37f2" x="197.179494" y="307.584" style="stroke: #000000; stroke-width: 0.8"/>
      </g>
     </g>
     <g id="text_3">
      <!-- 1 Sep -->
      <g transform="translate(182.984181 322.182437) scale(0.1 -0.1)">
       <defs>
        <path id="DejaVuSans-53" d="M 3425 4513 
L 3425 3897 
Q 3066 4069 2747 4153 
Q 2428 4238 2131 4238 
Q 1616 4238 1336 4038 
Q 1056 3838 1056 3469 
Q 1056 3159 1242 3001 
Q 1428 2844 1947 2747 
L 2328 2669 
Q 3034 2534 3370 2195 
Q 3706 1856 3706 1288 
Q 3706 609 3251 259 
Q 2797 -91 1919 -91 
Q 1588 -91 1214 -16 
Q 841 59 441 206 
L 441 856 
Q 825 641 1194 531 
Q 1563 422 1919 422 
Q 2459 422 2753 634 
Q 3047 847 3047 1241 
Q 3047 1584 2836 1778 
Q 2625 1972 2144 2069 
L 1759 2144 
Q 1053 2284 737 2584 
Q 422 2884 422 3419 
Q 422 4038 858 4394 
Q 1294 4750 2059 4750 
Q 2388 4750 2728 4690 
Q 3069 4631 3425 4513 
z
" transform="scale(0.015625)"/>
        <path id="DejaVuSans-65" d="M 3597 1894 
L 3597 1613 
L 953 1613 
Q 991 1019 1311 708 
Q 1631 397 2203 397 
Q 2534 397 2845 478 
Q 3156 559 3463 722 
L 3463 178 
Q 3153 47 2828 -22 
Q 2503 -91 2169 -91 
Q 1331 -91 842 396 
Q 353 884 353 1716 
Q 353 2575 817 3079 
Q 1281 3584 2069 3584 
Q 2775 3584 3186 3129 
Q 3597 2675 3597 1894 
z
M 3022 2063 
Q 3016 2534 2758 2815 
Q 2500 3097 2075 3097 
Q 1594 3097 1305 2825 
Q 1016 2553 972 2059 
L 3022 2063 
z
" transform="scale(0.015625)"/>
        <path id="DejaVuSans-70" d="M 1159 525 
L 1159 -1331 
L 581 -1331 
L 581 3500 
L 1159 3500 
L 1159 2969 
Q 1341 3281 1617 3432 
Q 1894 3584 2278 3584 
Q 2916 3584 3314 3078 
Q 3713 2572 3713 1747 
Q 3713 922 3314 415 
Q 2916 -91 2278 -91 
Q 1894 -91 1617 61 
Q 1341 213 1159 525 
z
M 3116 1747 
Q 3116 2381 2855 2742 
Q 2594 3103 2138 3103 
Q 1681 3103 1420 2742 
Q 1159 2381 1159 1747 
Q 1159 1113 1420 752 
Q 1681 391 2138 391 
Q 2594 391 2855 752 
Q 3116 1113 3116 1747 
z
" transform="scale(0.015625)"/>
       </defs>
       <use xlink:href="#DejaVuSans-31"/>
       <use xlink:href="#DejaVuSans-20" transform="translate(63.623047 0)"/>
       <use xlink:href="#DejaVuSans-53" transform="translate(95.410156 0)"/>
       <use xlink:href="#DejaVuSans-65" transform="translate(158.886719 0)"/>
       <use xlink:href="#DejaVuSans-70" transform="translate(220.410156 0)"/>
      </g>
     </g>
    </g>
    <g id="xtick_4">
     <g id="line2d_4">
      <g>
       <use xlink:href="#mbc190c37f2" x="252.081615" y="307.584" style="stroke: #000000; stroke-width: 0.8"/>
      </g>
     </g>
     <g id="text_4">
      <!-- 1 Oct -->
      <g transform="translate(238.66599 322.182437) scale(0.1 -0.1)">
       <defs>
        <path id="DejaVuSans-4f" d="M 2522 4238 
Q 1834 4238 1429 3725 
Q 1025 3213 1025 2328 
Q 1025 1447 1429 934 
Q 1834 422 2522 422 
Q 3209 422 3611 934 
Q 4013 1447 4013 2328 
Q 4013 3213 3611 3725 
Q 3209 4238 2522 4238 
z
M 2522 4750 
Q 3503 4750 4090 4092 
Q 4678 3434 4678 2328 
Q 4678 1225 4090 567 
Q 3503 -91 2522 -91 
Q 1538 -91 948 565 
Q 359 1222 359 2328 
Q 359 3434 948 4092 
Q 1538 4750 2522 4750 
z
" transform="scale(0.015625)"/>
        <path id="DejaVuSans-63" d="M 3122 3366 
L 3122 2828 
Q 2878 2963 2633 3030 
Q 2388 3097 2138 3097 
Q 1578 3097 1268 2742 
Q 959 2388 959 1747 
Q 959 1106 1268 751 
Q 1578 397 2138 397 
Q 2388 397 2633 464 
Q 2878 531 3122 666 
L 3122 134 
Q 2881 22 2623 -34 
Q 2366 -91 2075 -91 
Q 1284 -91 818 406 
Q 353 903 353 1747 
Q 353 2603 823 3093 
Q 1294 3584 2113 3584 
Q 2378 3584 2631 3529 
Q 2884 3475 3122 3366 
z
" transform="scale(0.015625)"/>
        <path id="DejaVuSans-74" d="M 1172 4494 
L 1172 3500 
L 2356 3500 
L 2356 3053 
L 1172 3053 
L 1172 1153 
Q 1172 725 1289 603 
Q 1406 481 1766 481 
L 2356 481 
L 2356 0 
L 1766 0 
Q 1100 0 847 248 
Q 594 497 594 1153 
L 594 3053 
L 172 3053 
L 172 3500 
L 594 3500 
L 594 4494 
L 1172 4494 
z
" transform="scale(0.015625)"/>
       </defs>
       <use xlink:href="#DejaVuSans-31"/>
       <use xlink:href="#DejaVuSans-20" transform="translate(63.623047 0)"/>
       <use xlink:href="#DejaVuSans-4f" transform="translate(95.410156 0)"/>
       <use xlink:href="#DejaVuSans-63" transform="translate(174.121094 0)"/>
       <use xlink:href="#DejaVuSans-74" transform="translate(229.101562 0)"/>
      </g>
     </g>
    </g>
    <g id="xtick_5">
     <g id="line2d_5">
      <g>
       <use xlink:href="#mbc190c37f2" x="308.813808" y="307.584" style="stroke: #000000; stroke-width: 0.8"/>
      </g>
     </g>
     <g id="text_5">
      <!-- 1 Nov -->
      <g transform="translate(294.28412 322.182437) scale(0.1 -0.1)">
       <defs>
        <path id="DejaVuSans-4e" d="M 628 4666 
L 1478 4666 
L 3547 763 
L 3547 4666 
L 4159 4666 
L 4159 0 
L 3309 0 
L 1241 3903 
L 1241 0 
L 628 0 
L 628 4666 
z
" transform="scale(0.015625)"/>
        <path id="DejaVuSans-6f" d="M 1959 3097 
Q 1497 3097 1228 2736 
Q 959 2375 959 1747 
Q 959 1119 1226 758 
Q 1494 397 1959 397 
Q 2419 397 2687 759 
Q 2956 1122 2956 1747 
Q 2956 2369 2687 2733 
Q 2419 3097 1959 3097 
z
M 1959 3584 
Q 2709 3584 3137 3096 
Q 3566 2609 3566 1747 
Q 3566 888 3137 398 
Q 2709 -91 1959 -91 
Q 1206 -91 779 398 
Q 353 888 353 1747 
Q 353 2609 779 3096 
Q 1206 3584 1959 3584 
z
" transform="scale(0.015625)"/>
        <path id="DejaVuSans-76" d="M 191 3500 
L 800 3500 
L 1894 563 
L 2988 3500 
L 3597 3500 
L 2284 0 
L 1503 0 
L 191 3500 
z
" transform="scale(0.015625)"/>
       </defs>
       <use xlink:href="#DejaVuSans-31"/>
       <use xlink:href="#DejaVuSans-20" transform="translate(63.623047 0)"/>
       <use xlink:href="#DejaVuSans-4e" transform="translate(95.410156 0)"/>
       <use xlink:href="#DejaVuSans-6f" transform="translate(170.214844 0)"/>
       <use xlink:href="#DejaVuSans-76" transform="translate(231.396484 0)"/>
      </g>
     </g>
    </g>
    <g id="xtick_6">
     <g id="line2d_6">
      <g>
       <use xlink:href="#mbc190c37f2" x="363.715929" y="307.584" style="stroke: #000000; stroke-width: 0.8"/>
      </g>
     </g>
     <g id="text_6">
      <!-- 1 Dec -->
      <g transform="translate(349.269835 322.182437) scale(0.1 -0.1)">
       <defs>
        <path id="DejaVuSans-44" d="M 1259 4147 
L 1259 519 
L 2022 519 
Q 2988 519 3436 956 
Q 3884 1394 3884 2338 
Q 3884 3275 3436 3711 
Q 2988 4147 2022 4147 
L 1259 4147 
z
M 628 4666 
L 1925 4666 
Q 3281 4666 3915 4102 
Q 4550 3538 4550 2338 
Q 4550 1131 3912 565 
Q 3275 0 1925 0 
L 628 0 
L 628 4666 
z
" transform="scale(0.015625)"/>
       </defs>
       <use xlink:href="#DejaVuSans-31"/>
       <use xlink:href="#DejaVuSans-20" transform="translate(63.623047 0)"/>
       <use xlink:href="#DejaVuSans-44" transform="translate(95.410156 0)"/>
       <use xlink:href="#DejaVuSans-65" transform="translate(172.412109 0)"/>
       <use xlink:href="#DejaVuSans-63" transform="translate(233.935547 0)"/>
      </g>
     </g>
    </g>
   </g>
   <g id="matplotlib.axis_2">
    <g id="ytick_1">
     <g id="line2d_7">
      <defs>
       <path id="m7f53f7fd2f" d="M 0 0 
L -3.5 0 
" style="stroke: #000000; stroke-width: 0.8"/>
      </defs>
      <g>
       <use xlink:href="#m7f53f7fd2f" x="57.6" y="307.584" style="stroke: #000000; stroke-width: 0.8"/>
      </g>
     </g>
     <g id="text_7">
      <!-- 0.0 -->
      <g transform="translate(34.696875 311.383219) scale(0.1 -0.1)">
       <defs>
        <path id="DejaVuSans-30" d="M 2034 4250 
Q 1547 4250 1301 3770 
Q 1056 3291 1056 2328 
Q 1056 1369 1301 889 
Q 1547 409 2034 409 
Q 2525 409 2770 889 
Q 3016 1369 3016 2328 
Q 3016 3291 2770 3770 
Q 2525 4250 2034 4250 
z
M 2034 4750 
Q 2819 4750 3233 4129 
Q 3647 3509 3647 2328 
Q 3647 1150 3233 529 
Q 2819 -91 2034 -91 
Q 1250 -91 836 529 
Q 422 1150 422 2328 
Q 422 3509 836 4129 
Q 1250 4750 2034 4750 
z
" transform="scale(0.015625)"/>
        <path id="DejaVuSans-2e" d="M 684 794 
L 1344 794 
L 1344 0 
L 684 0 
L 684 794 
z
" transform="scale(0.015625)"/>
       </defs>
       <use xlink:href="#DejaVuSans-30"/>
       <use xlink:href="#DejaVuSans-2e" transform="translate(63.623047 0)"/>
       <use xlink:href="#DejaVuSans-30" transform="translate(95.410156 0)"/>
      </g>
     </g>
    </g>
    <g id="ytick_2">
     <g id="line2d_8">
      <g>
       <use xlink:href="#m7f53f7fd2f" x="57.6" y="254.3616" style="stroke: #000000; stroke-width: 0.8"/>
      </g>
     </g>
     <g id="text_8">
      <!-- 0.2 -->
      <g transform="translate(34.696875 258.160819) scale(0.1 -0.1)">
       <defs>
        <path id="DejaVuSans-32" d="M 1228 531 
L 3431 531 
L 3431 0 
L 469 0 
L 469 531 
Q 828 903 1448 1529 
Q 2069 2156 2228 2338 
Q 2531 2678 2651 2914 
Q 2772 3150 2772 3378 
Q 2772 3750 2511 3984 
Q 2250 4219 1831 4219 
Q 1534 4219 1204 4116 
Q 875 4013 500 3803 
L 500 4441 
Q 881 4594 1212 4672 
Q 1544 4750 1819 4750 
Q 2544 4750 2975 4387 
Q 3406 4025 3406 3419 
Q 3406 3131 3298 2873 
Q 3191 2616 2906 2266 
Q 2828 2175 2409 1742 
Q 1991 1309 1228 531 
z
" transform="scale(0.015625)"/>
       </defs>
       <use xlink:href="#DejaVuSans-30"/>
       <use xlink:href="#DejaVuSans-2e" transform="translate(63.623047 0)"/>
       <use xlink:href="#DejaVuSans-32" transform="translate(95.410156 0)"/>
      </g>
     </g>
    </g>
    <g id="ytick_3">
     <g id="line2d_9">
      <g>
       <use xlink:href="#m7f53f7fd2f" x="57.6" y="201.1392" style="stroke: #000000; stroke-width: 0.8"/>
      </g>
     </g>
     <g id="text_9">
      <!-- 0.4 -->
      <g transform="translate(34.696875 204.938419) scale(0.1 -0.1)">
       <defs>
        <path id="DejaVuSans-34" d="M 2419 4116 
L 825 1625 
L 2419 1625 
L 2419 4116 
z
M 2253 4666 
L 3047 4666 
L 3047 1625 
L 3713 1625 
L 3713 1100 
L 3047 1100 
L 3047 0 
L 2419 0 
L 2419 1100 
L 313 1100 
L 313 1709 
L 2253 4666 
z
" transform="scale(0.015625)"/>
       </defs>
       <use xlink:href="#DejaVuSans-30"/>
       <use xlink:href="#DejaVuSans-2e" transform="translate(63.623047 0)"/>
       <use xlink:href="#DejaVuSans-34" transform="translate(95.410156 0)"/>
      </g>
     </g>
    </g>
    <g id="ytick_4">
     <g id="line2d_10">
      <g>
       <use xlink:href="#m7f53f7fd2f" x="57.6" y="147.9168" style="stroke: #000000; stroke-width: 0.8"/>
      </g>
     </g>
     <g id="text_10">
      <!-- 0.6 -->
      <g transform="translate(34.696875 151.716019) scale(0.1 -0.1)">
       <defs>
        <path id="DejaVuSans-36" d="M 2113 2584 
Q 1688 2584 1439 2293 
Q 1191 2003 1191 1497 
Q 1191 994 1439 701 
Q 1688 409 2113 409 
Q 2538 409 2786 701 
Q 3034 994 3034 1497 
Q 3034 2003 2786 2293 
Q 2538 2584 2113 2584 
z
M 3366 4563 
L 3366 3988 
Q 3128 4100 2886 4159 
Q 2644 4219 2406 4219 
Q 1781 4219 1451 3797 
Q 1122 3375 1075 2522 
Q 1259 2794 1537 2939 
Q 1816 3084 2150 3084 
Q 2853 3084 3261 2657 
Q 3669 2231 3669 1497 
Q 3669 778 3244 343 
Q 2819 -91 2113 -91 
Q 1303 -91 875 529 
Q 447 1150 447 2328 
Q 447 3434 972 4092 
Q 1497 4750 2381 4750 
Q 2619 4750 2861 4703 
Q 3103 4656 3366 4563 
z
" transform="scale(0.015625)"/>
       </defs>
       <use xlink:href="#DejaVuSans-30"/>
       <use xlink:href="#DejaVuSans-2e" transform="translate(63.623047 0)"/>
       <use xlink:href="#DejaVuSans-36" transform="translate(95.410156 0)"/>
      </g>
     </g>
    </g>
    <g id="ytick_5">
     <g id="line2d_11">
      <g>
       <use xlink:href="#m7f53f7fd2f" x="57.6" y="94.6944" style="stroke: #000000; stroke-width: 0.8"/>
      </g>
     </g>
     <g id="text_11">
      <!-- 0.8 -->
      <g transform="translate(34.696875 98.493619) scale(0.1 -0.1)">
       <defs>
        <path id="DejaVuSans-38" d="M 2034 2216 
Q 1584 2216 1326 1975 
Q 1069 1734 1069 1313 
Q 1069 891 1326 650 
Q 1584 409 2034 409 
Q 2484 409 2743 651 
Q 3003 894 3003 1313 
Q 3003 1734 2745 1975 
Q 2488 2216 2034 2216 
z
M 1403 2484 
Q 997 2584 770 2862 
Q 544 3141 544 3541 
Q 544 4100 942 4425 
Q 1341 4750 2034 4750 
Q 2731 4750 3128 4425 
Q 3525 4100 3525 3541 
Q 3525 3141 3298 2862 
Q 3072 2584 2669 2484 
Q 3125 2378 3379 2068 
Q 3634 1759 3634 1313 
Q 3634 634 3220 271 
Q 2806 -91 2034 -91 
Q 1263 -91 848 271 
Q 434 634 434 1313 
Q 434 1759 690 2068 
Q 947 2378 1403 2484 
z
M 1172 3481 
Q 1172 3119 1398 2916 
Q 1625 2713 2034 2713 
Q 2441 2713 2670 2916 
Q 2900 3119 2900 3481 
Q 2900 3844 2670 4047 
Q 2441 4250 2034 4250 
Q 1625 4250 1398 4047 
Q 1172 3844 1172 3481 
z
" transform="scale(0.015625)"/>
       </defs>
       <use xlink:href="#DejaVuSans-30"/>
       <use xlink:href="#DejaVuSans-2e" transform="translate(63.623047 0)"/>
       <use xlink:href="#DejaVuSans-38" transform="translate(95.410156 0)"/>
      </g>
     </g>
    </g>
    <g id="ytick_6">
     <g id="line2d_12">
      <g>
       <use xlink:href="#m7f53f7fd2f" x="57.6" y="41.472" style="stroke: #000000; stroke-width: 0.8"/>
      </g>
     </g>
     <g id="text_12">
      <!-- 1.0 -->
      <g transform="translate(34.696875 45.271219) scale(0.1 -0.1)">
       <use xlink:href="#DejaVuSans-31"/>
       <use xlink:href="#DejaVuSans-2e" transform="translate(63.623047 0)"/>
       <use xlink:href="#DejaVuSans-30" transform="translate(95.410156 0)"/>
      </g>
     </g>
    </g>
    <g id="text_13">
     <!-- Risk of additional cases -->
     <g transform="translate(28.617187 233.40925) rotate(-90) scale(0.1 -0.1)">
      <defs>
       <path id="DejaVuSans-52" d="M 2841 2188 
Q 3044 2119 3236 1894 
Q 3428 1669 3622 1275 
L 4263 0 
L 3584 0 
L 2988 1197 
Q 2756 1666 2539 1819 
Q 2322 1972 1947 1972 
L 1259 1972 
L 1259 0 
L 628 0 
L 628 4666 
L 2053 4666 
Q 2853 4666 3247 4331 
Q 3641 3997 3641 3322 
Q 3641 2881 3436 2590 
Q 3231 2300 2841 2188 
z
M 1259 4147 
L 1259 2491 
L 2053 2491 
Q 2509 2491 2742 2702 
Q 2975 2913 2975 3322 
Q 2975 3731 2742 3939 
Q 2509 4147 2053 4147 
L 1259 4147 
z
" transform="scale(0.015625)"/>
       <path id="DejaVuSans-69" d="M 603 3500 
L 1178 3500 
L 1178 0 
L 603 0 
L 603 3500 
z
M 603 4863 
L 1178 4863 
L 1178 4134 
L 603 4134 
L 603 4863 
z
" transform="scale(0.015625)"/>
       <path id="DejaVuSans-73" d="M 2834 3397 
L 2834 2853 
Q 2591 2978 2328 3040 
Q 2066 3103 1784 3103 
Q 1356 3103 1142 2972 
Q 928 2841 928 2578 
Q 928 2378 1081 2264 
Q 1234 2150 1697 2047 
L 1894 2003 
Q 2506 1872 2764 1633 
Q 3022 1394 3022 966 
Q 3022 478 2636 193 
Q 2250 -91 1575 -91 
Q 1294 -91 989 -36 
Q 684 19 347 128 
L 347 722 
Q 666 556 975 473 
Q 1284 391 1588 391 
Q 1994 391 2212 530 
Q 2431 669 2431 922 
Q 2431 1156 2273 1281 
Q 2116 1406 1581 1522 
L 1381 1569 
Q 847 1681 609 1914 
Q 372 2147 372 2553 
Q 372 3047 722 3315 
Q 1072 3584 1716 3584 
Q 2034 3584 2315 3537 
Q 2597 3491 2834 3397 
z
" transform="scale(0.015625)"/>
       <path id="DejaVuSans-6b" d="M 581 4863 
L 1159 4863 
L 1159 1991 
L 2875 3500 
L 3609 3500 
L 1753 1863 
L 3688 0 
L 2938 0 
L 1159 1709 
L 1159 0 
L 581 0 
L 581 4863 
z
" transform="scale(0.015625)"/>
       <path id="DejaVuSans-66" d="M 2375 4863 
L 2375 4384 
L 1825 4384 
Q 1516 4384 1395 4259 
Q 1275 4134 1275 3809 
L 1275 3500 
L 2222 3500 
L 2222 3053 
L 1275 3053 
L 1275 0 
L 697 0 
L 697 3053 
L 147 3053 
L 147 3500 
L 697 3500 
L 697 3744 
Q 697 4328 969 4595 
Q 1241 4863 1831 4863 
L 2375 4863 
z
" transform="scale(0.015625)"/>
       <path id="DejaVuSans-61" d="M 2194 1759 
Q 1497 1759 1228 1600 
Q 959 1441 959 1056 
Q 959 750 1161 570 
Q 1363 391 1709 391 
Q 2188 391 2477 730 
Q 2766 1069 2766 1631 
L 2766 1759 
L 2194 1759 
z
M 3341 1997 
L 3341 0 
L 2766 0 
L 2766 531 
Q 2569 213 2275 61 
Q 1981 -91 1556 -91 
Q 1019 -91 701 211 
Q 384 513 384 1019 
Q 384 1609 779 1909 
Q 1175 2209 1959 2209 
L 2766 2209 
L 2766 2266 
Q 2766 2663 2505 2880 
Q 2244 3097 1772 3097 
Q 1472 3097 1187 3025 
Q 903 2953 641 2809 
L 641 3341 
Q 956 3463 1253 3523 
Q 1550 3584 1831 3584 
Q 2591 3584 2966 3190 
Q 3341 2797 3341 1997 
z
" transform="scale(0.015625)"/>
       <path id="DejaVuSans-64" d="M 2906 2969 
L 2906 4863 
L 3481 4863 
L 3481 0 
L 2906 0 
L 2906 525 
Q 2725 213 2448 61 
Q 2172 -91 1784 -91 
Q 1150 -91 751 415 
Q 353 922 353 1747 
Q 353 2572 751 3078 
Q 1150 3584 1784 3584 
Q 2172 3584 2448 3432 
Q 2725 3281 2906 2969 
z
M 947 1747 
Q 947 1113 1208 752 
Q 1469 391 1925 391 
Q 2381 391 2643 752 
Q 2906 1113 2906 1747 
Q 2906 2381 2643 2742 
Q 2381 3103 1925 3103 
Q 1469 3103 1208 2742 
Q 947 2381 947 1747 
z
" transform="scale(0.015625)"/>
       <path id="DejaVuSans-6e" d="M 3513 2113 
L 3513 0 
L 2938 0 
L 2938 2094 
Q 2938 2591 2744 2837 
Q 2550 3084 2163 3084 
Q 1697 3084 1428 2787 
Q 1159 2491 1159 1978 
L 1159 0 
L 581 0 
L 581 3500 
L 1159 3500 
L 1159 2956 
Q 1366 3272 1645 3428 
Q 1925 3584 2291 3584 
Q 2894 3584 3203 3211 
Q 3513 2838 3513 2113 
z
" transform="scale(0.015625)"/>
      </defs>
      <use xlink:href="#DejaVuSans-52"/>
      <use xlink:href="#DejaVuSans-69" transform="translate(69.482422 0)"/>
      <use xlink:href="#DejaVuSans-73" transform="translate(97.265625 0)"/>
      <use xlink:href="#DejaVuSans-6b" transform="translate(149.365234 0)"/>
      <use xlink:href="#DejaVuSans-20" transform="translate(207.275391 0)"/>
      <use xlink:href="#DejaVuSans-6f" transform="translate(239.0625 0)"/>
      <use xlink:href="#DejaVuSans-66" transform="translate(300.244141 0)"/>
      <use xlink:href="#DejaVuSans-20" transform="translate(335.449219 0)"/>
      <use xlink:href="#DejaVuSans-61" transform="translate(367.236328 0)"/>
      <use xlink:href="#DejaVuSans-64" transform="translate(428.515625 0)"/>
      <use xlink:href="#DejaVuSans-64" transform="translate(491.992188 0)"/>
      <use xlink:href="#DejaVuSans-69" transform="translate(555.46875 0)"/>
      <use xlink:href="#DejaVuSans-74" transform="translate(583.251953 0)"/>
      <use xlink:href="#DejaVuSans-69" transform="translate(622.460938 0)"/>
      <use xlink:href="#DejaVuSans-6f" transform="translate(650.244141 0)"/>
      <use xlink:href="#DejaVuSans-6e" transform="translate(711.425781 0)"/>
      <use xlink:href="#DejaVuSans-61" transform="translate(774.804688 0)"/>
      <use xlink:href="#DejaVuSans-6c" transform="translate(836.083984 0)"/>
      <use xlink:href="#DejaVuSans-20" transform="translate(863.867188 0)"/>
      <use xlink:href="#DejaVuSans-63" transform="translate(895.654297 0)"/>
      <use xlink:href="#DejaVuSans-61" transform="translate(950.634766 0)"/>
      <use xlink:href="#DejaVuSans-73" transform="translate(1011.914062 0)"/>
      <use xlink:href="#DejaVuSans-65" transform="translate(1064.013672 0)"/>
      <use xlink:href="#DejaVuSans-73" transform="translate(1125.537109 0)"/>
     </g>
    </g>
   </g>
   <g id="line2d_13">
    <path d="M 74.564756 41.472 
L 76.394826 66.084072 
L 78.224897 44.691735 
L 80.054968 41.99756 
L 87.375251 42.102141 
L 89.205321 42.232832 
L 91.035392 42.479548 
L 92.865463 41.938413 
L 94.695533 42.189392 
L 96.525604 42.628204 
L 98.355675 43.380101 
L 100.185746 44.628825 
L 102.015816 46.634883 
L 103.845887 49.746249 
L 105.675958 54.403731 
L 107.506028 61.141635 
L 109.336099 70.585613 
L 111.16617 48.537214 
L 112.996241 51.092902 
L 114.826311 54.12148 
L 116.656382 44.144368 
L 118.486453 44.736867 
L 120.316524 42.134609 
L 122.146594 42.257088 
L 123.976665 41.629842 
L 125.806736 41.664205 
L 127.636806 41.511583 
L 134.957089 41.472638 
L 255.741757 41.529557 
L 261.231969 41.887612 
L 263.06204 42.139324 
L 264.89211 42.759915 
L 266.722181 43.247105 
L 268.552252 44.538724 
L 270.382322 45.256561 
L 272.212393 47.471026 
L 274.042464 50.672869 
L 275.872535 55.178476 
L 277.702605 55.724573 
L 279.532676 55.824492 
L 281.362747 61.076411 
L 283.192817 67.517962 
L 285.022888 75.253264 
L 286.852959 70.88084 
L 288.68303 77.842543 
L 290.5131 85.672631 
L 292.343171 94.402674 
L 294.173242 104.197068 
L 296.003312 115.141579 
L 297.833383 127.412893 
L 299.663454 141.077414 
L 301.493525 156.105183 
L 303.323595 172.31987 
L 305.153666 133.564274 
L 308.813808 153.578293 
L 310.643878 162.727065 
L 314.30402 179.18536 
L 316.13409 187.199995 
L 317.964161 134.680311 
L 319.794232 139.904031 
L 321.624303 145.550432 
L 323.454373 151.596929 
L 325.284444 158.063809 
L 327.114515 165.059237 
L 328.944585 172.793012 
L 330.774656 181.487294 
L 332.604727 191.274214 
L 334.434798 202.136085 
L 338.094939 226.069658 
L 341.75508 250.155881 
L 343.585151 261.073741 
L 345.415222 270.786499 
L 347.245293 279.092788 
L 349.075363 285.986152 
L 350.905434 291.529686 
L 352.735505 295.862111 
L 354.565575 299.166318 
L 356.395646 301.62931 
L 358.225717 303.4346 
L 360.055788 304.728262 
L 361.885858 305.641357 
L 363.715929 306.275487 
L 365.546 306.71186 
L 369.206141 307.206061 
L 372.866283 307.425789 
L 380.186566 307.559302 
L 391.16699 307.584 
L 391.16699 307.584 
" clip-path="url(#pe229a085ea)" style="fill: none; stroke: #1f77b4; stroke-width: 1.5; stroke-linecap: square"/>
   </g>
   <g id="line2d_14">
    <path d="M 74.564756 41.472 
L 76.394826 61.805608 
L 78.224897 43.926401 
L 80.054968 41.865341 
L 87.375251 41.968708 
L 89.205321 42.0948 
L 91.035392 42.33403 
L 92.865463 41.885235 
L 94.695533 42.132413 
L 96.525604 42.568938 
L 98.355675 43.312699 
L 100.185746 44.530492 
L 102.015816 46.452427 
L 103.845887 49.379345 
L 105.675958 53.706856 
L 107.506028 59.945048 
L 109.336099 68.687585 
L 111.16617 47.784121 
L 112.996241 50.068267 
L 114.826311 52.807713 
L 116.656382 43.837641 
L 118.486453 44.375489 
L 120.316524 42.067161 
L 122.146594 42.179622 
L 123.976665 41.61742 
L 125.806736 41.649766 
L 129.466877 41.480476 
L 186.199069 41.472 
L 250.251545 41.582952 
L 252.081615 41.726582 
L 253.911686 42.031567 
L 255.741757 42.790452 
L 257.571827 44.215684 
L 261.231969 47.921739 
L 263.06204 50.817334 
L 264.89211 55.763379 
L 266.722181 59.776088 
L 268.552252 66.86982 
L 270.382322 71.382992 
L 272.212393 80.213615 
L 274.042464 90.47076 
L 275.872535 102.333256 
L 277.702605 106.239801 
L 279.532676 109.274207 
L 283.192817 133.801198 
L 285.022888 146.673638 
L 286.852959 143.744664 
L 292.343171 176.430984 
L 299.663454 219.830265 
L 303.323595 242.228438 
L 305.153666 227.635375 
L 306.983737 236.196019 
L 308.813808 243.796545 
L 310.643878 250.448341 
L 312.473949 256.217628 
L 316.13409 266.130758 
L 317.964161 249.724974 
L 321.624303 257.852025 
L 327.114515 269.302854 
L 332.604727 280.703981 
L 336.264868 288.230131 
L 338.094939 291.69988 
L 339.92501 294.85716 
L 341.75508 297.603779 
L 343.585151 299.917662 
L 345.415222 301.814925 
L 347.245293 303.335097 
L 349.075363 304.515555 
L 350.905434 305.404151 
L 352.735505 306.058995 
L 354.565575 306.532253 
L 358.225717 307.102523 
L 361.885858 307.375156 
L 367.376071 307.528155 
L 382.016636 307.582819 
L 391.16699 307.584 
L 391.16699 307.584 
" clip-path="url(#pe229a085ea)" style="fill: none; stroke: #ff7f0e; stroke-width: 1.5; stroke-linecap: square"/>
   </g>
   <g id="LineCollection_1">
    <path d="M 338.094939 307.584 
L 338.094939 41.472 
" clip-path="url(#pe229a085ea)" style="fill: none; stroke-dasharray: 5.55,2.4; stroke-dashoffset: 0; stroke: #2ca02c; stroke-width: 1.5"/>
   </g>
   <g id="LineCollection_2">
    <path d="M 363.715929 307.584 
L 363.715929 41.472 
" clip-path="url(#pe229a085ea)" style="fill: none; stroke-dasharray: 5.55,2.4; stroke-dashoffset: 0; stroke: #d62728; stroke-width: 1.5"/>
   </g>
   <g id="LineCollection_3">
    <path d="M 398.487273 307.584 
L 398.487273 41.472 
" clip-path="url(#pe229a085ea)" style="fill: none; stroke-dasharray: 5.55,2.4; stroke-dashoffset: 0; stroke: #9467bd; stroke-width: 1.5"/>
   </g>
   <g id="patch_3">
    <path d="M 57.6 307.584 
L 57.6 41.472 
" style="fill: none; stroke: #000000; stroke-width: 0.8; stroke-linejoin: miter; stroke-linecap: square"/>
   </g>
   <g id="patch_4">
    <path d="M 414.72 307.584 
L 414.72 41.472 
" style="fill: none; stroke: #000000; stroke-width: 0.8; stroke-linejoin: miter; stroke-linecap: square"/>
   </g>
   <g id="patch_5">
    <path d="M 57.6 307.584 
L 414.72 307.584 
" style="fill: none; stroke: #000000; stroke-width: 0.8; stroke-linejoin: miter; stroke-linecap: square"/>
   </g>
   <g id="patch_6">
    <path d="M 57.6 41.472 
L 414.72 41.472 
" style="fill: none; stroke: #000000; stroke-width: 0.8; stroke-linejoin: miter; stroke-linecap: square"/>
   </g>
   <g id="legend_1">
    <g id="patch_7">
     <path d="M 64.6 122.862625 
L 244.814063 122.862625 
Q 246.814063 122.862625 246.814063 120.862625 
L 246.814063 48.472 
Q 246.814063 46.472 244.814063 46.472 
L 64.6 46.472 
Q 62.6 46.472 62.6 48.472 
L 62.6 120.862625 
Q 62.6 122.862625 64.6 122.862625 
z
" style="fill: #ffffff; opacity: 0.8; stroke: #cccccc; stroke-linejoin: miter"/>
    </g>
    <g id="line2d_15">
     <path d="M 66.6 54.570438 
L 76.6 54.570438 
L 86.6 54.570438 
" style="fill: none; stroke: #1f77b4; stroke-width: 1.5; stroke-linecap: square"/>
    </g>
    <g id="text_14">
     <!-- Autoregressive model -->
     <g transform="translate(94.6 58.070438) scale(0.1 -0.1)">
      <defs>
       <path id="DejaVuSans-72" d="M 2631 2963 
Q 2534 3019 2420 3045 
Q 2306 3072 2169 3072 
Q 1681 3072 1420 2755 
Q 1159 2438 1159 1844 
L 1159 0 
L 581 0 
L 581 3500 
L 1159 3500 
L 1159 2956 
Q 1341 3275 1631 3429 
Q 1922 3584 2338 3584 
Q 2397 3584 2469 3576 
Q 2541 3569 2628 3553 
L 2631 2963 
z
" transform="scale(0.015625)"/>
       <path id="DejaVuSans-6d" d="M 3328 2828 
Q 3544 3216 3844 3400 
Q 4144 3584 4550 3584 
Q 5097 3584 5394 3201 
Q 5691 2819 5691 2113 
L 5691 0 
L 5113 0 
L 5113 2094 
Q 5113 2597 4934 2840 
Q 4756 3084 4391 3084 
Q 3944 3084 3684 2787 
Q 3425 2491 3425 1978 
L 3425 0 
L 2847 0 
L 2847 2094 
Q 2847 2600 2669 2842 
Q 2491 3084 2119 3084 
Q 1678 3084 1418 2786 
Q 1159 2488 1159 1978 
L 1159 0 
L 581 0 
L 581 3500 
L 1159 3500 
L 1159 2956 
Q 1356 3278 1631 3431 
Q 1906 3584 2284 3584 
Q 2666 3584 2933 3390 
Q 3200 3197 3328 2828 
z
" transform="scale(0.015625)"/>
      </defs>
      <use xlink:href="#DejaVuSans-41"/>
      <use xlink:href="#DejaVuSans-75" transform="translate(68.408203 0)"/>
      <use xlink:href="#DejaVuSans-74" transform="translate(131.787109 0)"/>
      <use xlink:href="#DejaVuSans-6f" transform="translate(170.996094 0)"/>
      <use xlink:href="#DejaVuSans-72" transform="translate(232.177734 0)"/>
      <use xlink:href="#DejaVuSans-65" transform="translate(271.041016 0)"/>
      <use xlink:href="#DejaVuSans-67" transform="translate(332.564453 0)"/>
      <use xlink:href="#DejaVuSans-72" transform="translate(396.041016 0)"/>
      <use xlink:href="#DejaVuSans-65" transform="translate(434.904297 0)"/>
      <use xlink:href="#DejaVuSans-73" transform="translate(496.427734 0)"/>
      <use xlink:href="#DejaVuSans-73" transform="translate(548.527344 0)"/>
      <use xlink:href="#DejaVuSans-69" transform="translate(600.626953 0)"/>
      <use xlink:href="#DejaVuSans-76" transform="translate(628.410156 0)"/>
      <use xlink:href="#DejaVuSans-65" transform="translate(687.589844 0)"/>
      <use xlink:href="#DejaVuSans-20" transform="translate(749.113281 0)"/>
      <use xlink:href="#DejaVuSans-6d" transform="translate(780.900391 0)"/>
      <use xlink:href="#DejaVuSans-6f" transform="translate(878.3125 0)"/>
      <use xlink:href="#DejaVuSans-64" transform="translate(939.494141 0)"/>
      <use xlink:href="#DejaVuSans-65" transform="translate(1002.970703 0)"/>
      <use xlink:href="#DejaVuSans-6c" transform="translate(1064.494141 0)"/>
     </g>
    </g>
    <g id="line2d_16">
     <path d="M 66.6 69.248563 
L 76.6 69.248563 
L 86.6 69.248563 
" style="fill: none; stroke: #ff7f0e; stroke-width: 1.5; stroke-linecap: square"/>
    </g>
    <g id="text_15">
     <!-- Suitability model -->
     <g transform="translate(94.6 72.748563) scale(0.1 -0.1)">
      <defs>
       <path id="DejaVuSans-62" d="M 3116 1747 
Q 3116 2381 2855 2742 
Q 2594 3103 2138 3103 
Q 1681 3103 1420 2742 
Q 1159 2381 1159 1747 
Q 1159 1113 1420 752 
Q 1681 391 2138 391 
Q 2594 391 2855 752 
Q 3116 1113 3116 1747 
z
M 1159 2969 
Q 1341 3281 1617 3432 
Q 1894 3584 2278 3584 
Q 2916 3584 3314 3078 
Q 3713 2572 3713 1747 
Q 3713 922 3314 415 
Q 2916 -91 2278 -91 
Q 1894 -91 1617 61 
Q 1341 213 1159 525 
L 1159 0 
L 581 0 
L 581 4863 
L 1159 4863 
L 1159 2969 
z
" transform="scale(0.015625)"/>
       <path id="DejaVuSans-79" d="M 2059 -325 
Q 1816 -950 1584 -1140 
Q 1353 -1331 966 -1331 
L 506 -1331 
L 506 -850 
L 844 -850 
Q 1081 -850 1212 -737 
Q 1344 -625 1503 -206 
L 1606 56 
L 191 3500 
L 800 3500 
L 1894 763 
L 2988 3500 
L 3597 3500 
L 2059 -325 
z
" transform="scale(0.015625)"/>
      </defs>
      <use xlink:href="#DejaVuSans-53"/>
      <use xlink:href="#DejaVuSans-75" transform="translate(63.476562 0)"/>
      <use xlink:href="#DejaVuSans-69" transform="translate(126.855469 0)"/>
      <use xlink:href="#DejaVuSans-74" transform="translate(154.638672 0)"/>
      <use xlink:href="#DejaVuSans-61" transform="translate(193.847656 0)"/>
      <use xlink:href="#DejaVuSans-62" transform="translate(255.126953 0)"/>
      <use xlink:href="#DejaVuSans-69" transform="translate(318.603516 0)"/>
      <use xlink:href="#DejaVuSans-6c" transform="translate(346.386719 0)"/>
      <use xlink:href="#DejaVuSans-69" transform="translate(374.169922 0)"/>
      <use xlink:href="#DejaVuSans-74" transform="translate(401.953125 0)"/>
      <use xlink:href="#DejaVuSans-79" transform="translate(441.162109 0)"/>
      <use xlink:href="#DejaVuSans-20" transform="translate(500.341797 0)"/>
      <use xlink:href="#DejaVuSans-6d" transform="translate(532.128906 0)"/>
      <use xlink:href="#DejaVuSans-6f" transform="translate(629.541016 0)"/>
      <use xlink:href="#DejaVuSans-64" transform="translate(690.722656 0)"/>
      <use xlink:href="#DejaVuSans-65" transform="translate(754.199219 0)"/>
      <use xlink:href="#DejaVuSans-6c" transform="translate(815.722656 0)"/>
     </g>
    </g>
    <g id="line2d_17">
     <path d="M 66.6 83.926688 
L 86.6 83.926688 
" style="fill: none; stroke-dasharray: 5.55,2.4; stroke-dashoffset: 0; stroke: #2ca02c; stroke-width: 1.5"/>
    </g>
    <g id="text_16">
     <!-- Blood measures lifted (Rome) -->
     <g transform="translate(94.6 87.426688) scale(0.1 -0.1)">
      <defs>
       <path id="DejaVuSans-42" d="M 1259 2228 
L 1259 519 
L 2272 519 
Q 2781 519 3026 730 
Q 3272 941 3272 1375 
Q 3272 1813 3026 2020 
Q 2781 2228 2272 2228 
L 1259 2228 
z
M 1259 4147 
L 1259 2741 
L 2194 2741 
Q 2656 2741 2882 2914 
Q 3109 3088 3109 3444 
Q 3109 3797 2882 3972 
Q 2656 4147 2194 4147 
L 1259 4147 
z
M 628 4666 
L 2241 4666 
Q 2963 4666 3353 4366 
Q 3744 4066 3744 3513 
Q 3744 3084 3544 2831 
Q 3344 2578 2956 2516 
Q 3422 2416 3680 2098 
Q 3938 1781 3938 1306 
Q 3938 681 3513 340 
Q 3088 0 2303 0 
L 628 0 
L 628 4666 
z
" transform="scale(0.015625)"/>
       <path id="DejaVuSans-28" d="M 1984 4856 
Q 1566 4138 1362 3434 
Q 1159 2731 1159 2009 
Q 1159 1288 1364 580 
Q 1569 -128 1984 -844 
L 1484 -844 
Q 1016 -109 783 600 
Q 550 1309 550 2009 
Q 550 2706 781 3412 
Q 1013 4119 1484 4856 
L 1984 4856 
z
" transform="scale(0.015625)"/>
       <path id="DejaVuSans-29" d="M 513 4856 
L 1013 4856 
Q 1481 4119 1714 3412 
Q 1947 2706 1947 2009 
Q 1947 1309 1714 600 
Q 1481 -109 1013 -844 
L 513 -844 
Q 928 -128 1133 580 
Q 1338 1288 1338 2009 
Q 1338 2731 1133 3434 
Q 928 4138 513 4856 
z
" transform="scale(0.015625)"/>
      </defs>
      <use xlink:href="#DejaVuSans-42"/>
      <use xlink:href="#DejaVuSans-6c" transform="translate(68.603516 0)"/>
      <use xlink:href="#DejaVuSans-6f" transform="translate(96.386719 0)"/>
      <use xlink:href="#DejaVuSans-6f" transform="translate(157.568359 0)"/>
      <use xlink:href="#DejaVuSans-64" transform="translate(218.75 0)"/>
      <use xlink:href="#DejaVuSans-20" transform="translate(282.226562 0)"/>
      <use xlink:href="#DejaVuSans-6d" transform="translate(314.013672 0)"/>
      <use xlink:href="#DejaVuSans-65" transform="translate(411.425781 0)"/>
      <use xlink:href="#DejaVuSans-61" transform="translate(472.949219 0)"/>
      <use xlink:href="#DejaVuSans-73" transform="translate(534.228516 0)"/>
      <use xlink:href="#DejaVuSans-75" transform="translate(586.328125 0)"/>
      <use xlink:href="#DejaVuSans-72" transform="translate(649.707031 0)"/>
      <use xlink:href="#DejaVuSans-65" transform="translate(688.570312 0)"/>
      <use xlink:href="#DejaVuSans-73" transform="translate(750.09375 0)"/>
      <use xlink:href="#DejaVuSans-20" transform="translate(802.193359 0)"/>
      <use xlink:href="#DejaVuSans-6c" transform="translate(833.980469 0)"/>
      <use xlink:href="#DejaVuSans-69" transform="translate(861.763672 0)"/>
      <use xlink:href="#DejaVuSans-66" transform="translate(889.546875 0)"/>
      <use xlink:href="#DejaVuSans-74" transform="translate(923.001953 0)"/>
      <use xlink:href="#DejaVuSans-65" transform="translate(962.210938 0)"/>
      <use xlink:href="#DejaVuSans-64" transform="translate(1023.734375 0)"/>
      <use xlink:href="#DejaVuSans-20" transform="translate(1087.210938 0)"/>
      <use xlink:href="#DejaVuSans-28" transform="translate(1118.998047 0)"/>
      <use xlink:href="#DejaVuSans-52" transform="translate(1158.011719 0)"/>
      <use xlink:href="#DejaVuSans-6f" transform="translate(1222.994141 0)"/>
      <use xlink:href="#DejaVuSans-6d" transform="translate(1284.175781 0)"/>
      <use xlink:href="#DejaVuSans-65" transform="translate(1381.587891 0)"/>
      <use xlink:href="#DejaVuSans-29" transform="translate(1443.111328 0)"/>
     </g>
    </g>
    <g id="line2d_18">
     <path d="M 66.6 98.604813 
L 86.6 98.604813 
" style="fill: none; stroke-dasharray: 5.55,2.4; stroke-dashoffset: 0; stroke: #d62728; stroke-width: 1.5"/>
    </g>
    <g id="text_17">
     <!-- Blood measures lifted (Anzio) -->
     <g transform="translate(94.6 102.104813) scale(0.1 -0.1)">
      <defs>
       <path id="DejaVuSans-7a" d="M 353 3500 
L 3084 3500 
L 3084 2975 
L 922 459 
L 3084 459 
L 3084 0 
L 275 0 
L 275 525 
L 2438 3041 
L 353 3041 
L 353 3500 
z
" transform="scale(0.015625)"/>
      </defs>
      <use xlink:href="#DejaVuSans-42"/>
      <use xlink:href="#DejaVuSans-6c" transform="translate(68.603516 0)"/>
      <use xlink:href="#DejaVuSans-6f" transform="translate(96.386719 0)"/>
      <use xlink:href="#DejaVuSans-6f" transform="translate(157.568359 0)"/>
      <use xlink:href="#DejaVuSans-64" transform="translate(218.75 0)"/>
      <use xlink:href="#DejaVuSans-20" transform="translate(282.226562 0)"/>
      <use xlink:href="#DejaVuSans-6d" transform="translate(314.013672 0)"/>
      <use xlink:href="#DejaVuSans-65" transform="translate(411.425781 0)"/>
      <use xlink:href="#DejaVuSans-61" transform="translate(472.949219 0)"/>
      <use xlink:href="#DejaVuSans-73" transform="translate(534.228516 0)"/>
      <use xlink:href="#DejaVuSans-75" transform="translate(586.328125 0)"/>
      <use xlink:href="#DejaVuSans-72" transform="translate(649.707031 0)"/>
      <use xlink:href="#DejaVuSans-65" transform="translate(688.570312 0)"/>
      <use xlink:href="#DejaVuSans-73" transform="translate(750.09375 0)"/>
      <use xlink:href="#DejaVuSans-20" transform="translate(802.193359 0)"/>
      <use xlink:href="#DejaVuSans-6c" transform="translate(833.980469 0)"/>
      <use xlink:href="#DejaVuSans-69" transform="translate(861.763672 0)"/>
      <use xlink:href="#DejaVuSans-66" transform="translate(889.546875 0)"/>
      <use xlink:href="#DejaVuSans-74" transform="translate(923.001953 0)"/>
      <use xlink:href="#DejaVuSans-65" transform="translate(962.210938 0)"/>
      <use xlink:href="#DejaVuSans-64" transform="translate(1023.734375 0)"/>
      <use xlink:href="#DejaVuSans-20" transform="translate(1087.210938 0)"/>
      <use xlink:href="#DejaVuSans-28" transform="translate(1118.998047 0)"/>
      <use xlink:href="#DejaVuSans-41" transform="translate(1158.011719 0)"/>
      <use xlink:href="#DejaVuSans-6e" transform="translate(1226.419922 0)"/>
      <use xlink:href="#DejaVuSans-7a" transform="translate(1289.798828 0)"/>
      <use xlink:href="#DejaVuSans-69" transform="translate(1342.289062 0)"/>
      <use xlink:href="#DejaVuSans-6f" transform="translate(1370.072266 0)"/>
      <use xlink:href="#DejaVuSans-29" transform="translate(1431.253906 0)"/>
     </g>
    </g>
    <g id="line2d_19">
     <path d="M 66.6 113.282938 
L 86.6 113.282938 
" style="fill: none; stroke-dasharray: 5.55,2.4; stroke-dashoffset: 0; stroke: #9467bd; stroke-width: 1.5"/>
    </g>
    <g id="text_18">
     <!-- 45-day rule -->
     <g transform="translate(94.6 116.782938) scale(0.1 -0.1)">
      <defs>
       <path id="DejaVuSans-35" d="M 691 4666 
L 3169 4666 
L 3169 4134 
L 1269 4134 
L 1269 2991 
Q 1406 3038 1543 3061 
Q 1681 3084 1819 3084 
Q 2600 3084 3056 2656 
Q 3513 2228 3513 1497 
Q 3513 744 3044 326 
Q 2575 -91 1722 -91 
Q 1428 -91 1123 -41 
Q 819 9 494 109 
L 494 744 
Q 775 591 1075 516 
Q 1375 441 1709 441 
Q 2250 441 2565 725 
Q 2881 1009 2881 1497 
Q 2881 1984 2565 2268 
Q 2250 2553 1709 2553 
Q 1456 2553 1204 2497 
Q 953 2441 691 2322 
L 691 4666 
z
" transform="scale(0.015625)"/>
       <path id="DejaVuSans-2d" d="M 313 2009 
L 1997 2009 
L 1997 1497 
L 313 1497 
L 313 2009 
z
" transform="scale(0.015625)"/>
      </defs>
      <use xlink:href="#DejaVuSans-34"/>
      <use xlink:href="#DejaVuSans-35" transform="translate(63.623047 0)"/>
      <use xlink:href="#DejaVuSans-2d" transform="translate(127.246094 0)"/>
      <use xlink:href="#DejaVuSans-64" transform="translate(163.330078 0)"/>
      <use xlink:href="#DejaVuSans-61" transform="translate(226.806641 0)"/>
      <use xlink:href="#DejaVuSans-79" transform="translate(288.085938 0)"/>
      <use xlink:href="#DejaVuSans-20" transform="translate(347.265625 0)"/>
      <use xlink:href="#DejaVuSans-72" transform="translate(379.052734 0)"/>
      <use xlink:href="#DejaVuSans-75" transform="translate(420.166016 0)"/>
      <use xlink:href="#DejaVuSans-6c" transform="translate(483.544922 0)"/>
      <use xlink:href="#DejaVuSans-65" transform="translate(511.328125 0)"/>
     </g>
    </g>
   </g>
  </g>
  <g id="axes_2">
   <g id="patch_8">
    <path d="M 73.832727 307.584 
L 75.296784 307.584 
L 75.296784 272.1024 
L 73.832727 272.1024 
z
" clip-path="url(#pe229a085ea)" style="fill: #7f7f7f; opacity: 0.5"/>
   </g>
   <g id="patch_9">
    <path d="M 75.662798 307.584 
L 77.126855 307.584 
L 77.126855 272.1024 
L 75.662798 272.1024 
z
" clip-path="url(#pe229a085ea)" style="fill: #7f7f7f; opacity: 0.5"/>
   </g>
   <g id="patch_10">
    <path d="M 77.492869 307.584 
L 78.956925 307.584 
L 78.956925 272.1024 
L 77.492869 272.1024 
z
" clip-path="url(#pe229a085ea)" style="fill: #7f7f7f; opacity: 0.5"/>
   </g>
   <g id="patch_11">
    <path d="M 79.322939 307.584 
L 80.786996 307.584 
L 80.786996 307.584 
L 79.322939 307.584 
z
" clip-path="url(#pe229a085ea)" style="fill: #7f7f7f; opacity: 0.5"/>
   </g>
   <g id="patch_12">
    <path d="M 81.15301 307.584 
L 82.617067 307.584 
L 82.617067 307.584 
L 81.15301 307.584 
z
" clip-path="url(#pe229a085ea)" style="fill: #7f7f7f; opacity: 0.5"/>
   </g>
   <g id="patch_13">
    <path d="M 82.983081 307.584 
L 84.447137 307.584 
L 84.447137 307.584 
L 82.983081 307.584 
z
" clip-path="url(#pe229a085ea)" style="fill: #7f7f7f; opacity: 0.5"/>
   </g>
   <g id="patch_14">
    <path d="M 84.813152 307.584 
L 86.277208 307.584 
L 86.277208 307.584 
L 84.813152 307.584 
z
" clip-path="url(#pe229a085ea)" style="fill: #7f7f7f; opacity: 0.5"/>
   </g>
   <g id="patch_15">
    <path d="M 86.643222 307.584 
L 88.107279 307.584 
L 88.107279 307.584 
L 86.643222 307.584 
z
" clip-path="url(#pe229a085ea)" style="fill: #7f7f7f; opacity: 0.5"/>
   </g>
   <g id="patch_16">
    <path d="M 88.473293 307.584 
L 89.93735 307.584 
L 89.93735 307.584 
L 88.473293 307.584 
z
" clip-path="url(#pe229a085ea)" style="fill: #7f7f7f; opacity: 0.5"/>
   </g>
   <g id="patch_17">
    <path d="M 90.303364 307.584 
L 91.76742 307.584 
L 91.76742 289.8432 
L 90.303364 289.8432 
z
" clip-path="url(#pe229a085ea)" style="fill: #7f7f7f; opacity: 0.5"/>
   </g>
   <g id="patch_18">
    <path d="M 92.133434 307.584 
L 93.597491 307.584 
L 93.597491 307.584 
L 92.133434 307.584 
z
" clip-path="url(#pe229a085ea)" style="fill: #7f7f7f; opacity: 0.5"/>
   </g>
   <g id="patch_19">
    <path d="M 93.963505 307.584 
L 95.427562 307.584 
L 95.427562 307.584 
L 93.963505 307.584 
z
" clip-path="url(#pe229a085ea)" style="fill: #7f7f7f; opacity: 0.5"/>
   </g>
   <g id="patch_20">
    <path d="M 95.793576 307.584 
L 97.257632 307.584 
L 97.257632 307.584 
L 95.793576 307.584 
z
" clip-path="url(#pe229a085ea)" style="fill: #7f7f7f; opacity: 0.5"/>
   </g>
   <g id="patch_21">
    <path d="M 97.623647 307.584 
L 99.087703 307.584 
L 99.087703 307.584 
L 97.623647 307.584 
z
" clip-path="url(#pe229a085ea)" style="fill: #7f7f7f; opacity: 0.5"/>
   </g>
   <g id="patch_22">
    <path d="M 99.453717 307.584 
L 100.917774 307.584 
L 100.917774 307.584 
L 99.453717 307.584 
z
" clip-path="url(#pe229a085ea)" style="fill: #7f7f7f; opacity: 0.5"/>
   </g>
   <g id="patch_23">
    <path d="M 101.283788 307.584 
L 102.747845 307.584 
L 102.747845 307.584 
L 101.283788 307.584 
z
" clip-path="url(#pe229a085ea)" style="fill: #7f7f7f; opacity: 0.5"/>
   </g>
   <g id="patch_24">
    <path d="M 103.113859 307.584 
L 104.577915 307.584 
L 104.577915 307.584 
L 103.113859 307.584 
z
" clip-path="url(#pe229a085ea)" style="fill: #7f7f7f; opacity: 0.5"/>
   </g>
   <g id="patch_25">
    <path d="M 104.943929 307.584 
L 106.407986 307.584 
L 106.407986 307.584 
L 104.943929 307.584 
z
" clip-path="url(#pe229a085ea)" style="fill: #7f7f7f; opacity: 0.5"/>
   </g>
   <g id="patch_26">
    <path d="M 106.774 307.584 
L 108.238057 307.584 
L 108.238057 307.584 
L 106.774 307.584 
z
" clip-path="url(#pe229a085ea)" style="fill: #7f7f7f; opacity: 0.5"/>
   </g>
   <g id="patch_27">
    <path d="M 108.604071 307.584 
L 110.068127 307.584 
L 110.068127 289.8432 
L 108.604071 289.8432 
z
" clip-path="url(#pe229a085ea)" style="fill: #7f7f7f; opacity: 0.5"/>
   </g>
   <g id="patch_28">
    <path d="M 110.434142 307.584 
L 111.898198 307.584 
L 111.898198 307.584 
L 110.434142 307.584 
z
" clip-path="url(#pe229a085ea)" style="fill: #7f7f7f; opacity: 0.5"/>
   </g>
   <g id="patch_29">
    <path d="M 112.264212 307.584 
L 113.728269 307.584 
L 113.728269 307.584 
L 112.264212 307.584 
z
" clip-path="url(#pe229a085ea)" style="fill: #7f7f7f; opacity: 0.5"/>
   </g>
   <g id="patch_30">
    <path d="M 114.094283 307.584 
L 115.55834 307.584 
L 115.55834 289.8432 
L 114.094283 289.8432 
z
" clip-path="url(#pe229a085ea)" style="fill: #7f7f7f; opacity: 0.5"/>
   </g>
   <g id="patch_31">
    <path d="M 115.924354 307.584 
L 117.38841 307.584 
L 117.38841 307.584 
L 115.924354 307.584 
z
" clip-path="url(#pe229a085ea)" style="fill: #7f7f7f; opacity: 0.5"/>
   </g>
   <g id="patch_32">
    <path d="M 117.754425 307.584 
L 119.218481 307.584 
L 119.218481 289.8432 
L 117.754425 289.8432 
z
" clip-path="url(#pe229a085ea)" style="fill: #7f7f7f; opacity: 0.5"/>
   </g>
   <g id="patch_33">
    <path d="M 119.584495 307.584 
L 121.048552 307.584 
L 121.048552 307.584 
L 119.584495 307.584 
z
" clip-path="url(#pe229a085ea)" style="fill: #7f7f7f; opacity: 0.5"/>
   </g>
   <g id="patch_34">
    <path d="M 121.414566 307.584 
L 122.878623 307.584 
L 122.878623 289.8432 
L 121.414566 289.8432 
z
" clip-path="url(#pe229a085ea)" style="fill: #7f7f7f; opacity: 0.5"/>
   </g>
   <g id="patch_35">
    <path d="M 123.244637 307.584 
L 124.708693 307.584 
L 124.708693 307.584 
L 123.244637 307.584 
z
" clip-path="url(#pe229a085ea)" style="fill: #7f7f7f; opacity: 0.5"/>
   </g>
   <g id="patch_36">
    <path d="M 125.074707 307.584 
L 126.538764 307.584 
L 126.538764 289.8432 
L 125.074707 289.8432 
z
" clip-path="url(#pe229a085ea)" style="fill: #7f7f7f; opacity: 0.5"/>
   </g>
   <g id="patch_37">
    <path d="M 126.904778 307.584 
L 128.368835 307.584 
L 128.368835 289.8432 
L 126.904778 289.8432 
z
" clip-path="url(#pe229a085ea)" style="fill: #7f7f7f; opacity: 0.5"/>
   </g>
   <g id="patch_38">
    <path d="M 128.734849 307.584 
L 130.198905 307.584 
L 130.198905 307.584 
L 128.734849 307.584 
z
" clip-path="url(#pe229a085ea)" style="fill: #7f7f7f; opacity: 0.5"/>
   </g>
   <g id="patch_39">
    <path d="M 130.56492 307.584 
L 132.028976 307.584 
L 132.028976 289.8432 
L 130.56492 289.8432 
z
" clip-path="url(#pe229a085ea)" style="fill: #7f7f7f; opacity: 0.5"/>
   </g>
   <g id="patch_40">
    <path d="M 132.39499 307.584 
L 133.859047 307.584 
L 133.859047 289.8432 
L 132.39499 289.8432 
z
" clip-path="url(#pe229a085ea)" style="fill: #7f7f7f; opacity: 0.5"/>
   </g>
   <g id="patch_41">
    <path d="M 134.225061 307.584 
L 135.689118 307.584 
L 135.689118 307.584 
L 134.225061 307.584 
z
" clip-path="url(#pe229a085ea)" style="fill: #7f7f7f; opacity: 0.5"/>
   </g>
   <g id="patch_42">
    <path d="M 136.055132 307.584 
L 137.519188 307.584 
L 137.519188 289.8432 
L 136.055132 289.8432 
z
" clip-path="url(#pe229a085ea)" style="fill: #7f7f7f; opacity: 0.5"/>
   </g>
   <g id="patch_43">
    <path d="M 137.885202 307.584 
L 139.349259 307.584 
L 139.349259 307.584 
L 137.885202 307.584 
z
" clip-path="url(#pe229a085ea)" style="fill: #7f7f7f; opacity: 0.5"/>
   </g>
   <g id="patch_44">
    <path d="M 139.715273 307.584 
L 141.17933 307.584 
L 141.17933 307.584 
L 139.715273 307.584 
z
" clip-path="url(#pe229a085ea)" style="fill: #7f7f7f; opacity: 0.5"/>
   </g>
   <g id="patch_45">
    <path d="M 141.545344 307.584 
L 143.0094 307.584 
L 143.0094 254.3616 
L 141.545344 254.3616 
z
" clip-path="url(#pe229a085ea)" style="fill: #7f7f7f; opacity: 0.5"/>
   </g>
   <g id="patch_46">
    <path d="M 143.375415 307.584 
L 144.839471 307.584 
L 144.839471 272.1024 
L 143.375415 272.1024 
z
" clip-path="url(#pe229a085ea)" style="fill: #7f7f7f; opacity: 0.5"/>
   </g>
   <g id="patch_47">
    <path d="M 145.205485 307.584 
L 146.669542 307.584 
L 146.669542 289.8432 
L 145.205485 289.8432 
z
" clip-path="url(#pe229a085ea)" style="fill: #7f7f7f; opacity: 0.5"/>
   </g>
   <g id="patch_48">
    <path d="M 147.035556 307.584 
L 148.499613 307.584 
L 148.499613 289.8432 
L 147.035556 289.8432 
z
" clip-path="url(#pe229a085ea)" style="fill: #7f7f7f; opacity: 0.5"/>
   </g>
   <g id="patch_49">
    <path d="M 148.865627 307.584 
L 150.329683 307.584 
L 150.329683 289.8432 
L 148.865627 289.8432 
z
" clip-path="url(#pe229a085ea)" style="fill: #7f7f7f; opacity: 0.5"/>
   </g>
   <g id="patch_50">
    <path d="M 150.695697 307.584 
L 152.159754 307.584 
L 152.159754 289.8432 
L 150.695697 289.8432 
z
" clip-path="url(#pe229a085ea)" style="fill: #7f7f7f; opacity: 0.5"/>
   </g>
   <g id="patch_51">
    <path d="M 152.525768 307.584 
L 153.989825 307.584 
L 153.989825 254.3616 
L 152.525768 254.3616 
z
" clip-path="url(#pe229a085ea)" style="fill: #7f7f7f; opacity: 0.5"/>
   </g>
   <g id="patch_52">
    <path d="M 154.355839 307.584 
L 155.819895 307.584 
L 155.819895 307.584 
L 154.355839 307.584 
z
" clip-path="url(#pe229a085ea)" style="fill: #7f7f7f; opacity: 0.5"/>
   </g>
   <g id="patch_53">
    <path d="M 156.18591 307.584 
L 157.649966 307.584 
L 157.649966 289.8432 
L 156.18591 289.8432 
z
" clip-path="url(#pe229a085ea)" style="fill: #7f7f7f; opacity: 0.5"/>
   </g>
   <g id="patch_54">
    <path d="M 158.01598 307.584 
L 159.480037 307.584 
L 159.480037 289.8432 
L 158.01598 289.8432 
z
" clip-path="url(#pe229a085ea)" style="fill: #7f7f7f; opacity: 0.5"/>
   </g>
   <g id="patch_55">
    <path d="M 159.846051 307.584 
L 161.310108 307.584 
L 161.310108 236.6208 
L 159.846051 236.6208 
z
" clip-path="url(#pe229a085ea)" style="fill: #7f7f7f; opacity: 0.5"/>
   </g>
   <g id="patch_56">
    <path d="M 161.676122 307.584 
L 163.140178 307.584 
L 163.140178 254.3616 
L 161.676122 254.3616 
z
" clip-path="url(#pe229a085ea)" style="fill: #7f7f7f; opacity: 0.5"/>
   </g>
   <g id="patch_57">
    <path d="M 163.506192 307.584 
L 164.970249 307.584 
L 164.970249 254.3616 
L 163.506192 254.3616 
z
" clip-path="url(#pe229a085ea)" style="fill: #7f7f7f; opacity: 0.5"/>
   </g>
   <g id="patch_58">
    <path d="M 165.336263 307.584 
L 166.80032 307.584 
L 166.80032 272.1024 
L 165.336263 272.1024 
z
" clip-path="url(#pe229a085ea)" style="fill: #7f7f7f; opacity: 0.5"/>
   </g>
   <g id="patch_59">
    <path d="M 167.166334 307.584 
L 168.63039 307.584 
L 168.63039 236.6208 
L 167.166334 236.6208 
z
" clip-path="url(#pe229a085ea)" style="fill: #7f7f7f; opacity: 0.5"/>
   </g>
   <g id="patch_60">
    <path d="M 168.996405 307.584 
L 170.460461 307.584 
L 170.460461 236.6208 
L 168.996405 236.6208 
z
" clip-path="url(#pe229a085ea)" style="fill: #7f7f7f; opacity: 0.5"/>
   </g>
   <g id="patch_61">
    <path d="M 170.826475 307.584 
L 172.290532 307.584 
L 172.290532 165.6576 
L 170.826475 165.6576 
z
" clip-path="url(#pe229a085ea)" style="fill: #7f7f7f; opacity: 0.5"/>
   </g>
   <g id="patch_62">
    <path d="M 172.656546 307.584 
L 174.120603 307.584 
L 174.120603 218.88 
L 172.656546 218.88 
z
" clip-path="url(#pe229a085ea)" style="fill: #7f7f7f; opacity: 0.5"/>
   </g>
   <g id="patch_63">
    <path d="M 174.486617 307.584 
L 175.950673 307.584 
L 175.950673 165.6576 
L 174.486617 165.6576 
z
" clip-path="url(#pe229a085ea)" style="fill: #7f7f7f; opacity: 0.5"/>
   </g>
   <g id="patch_64">
    <path d="M 176.316688 307.584 
L 177.780744 307.584 
L 177.780744 218.88 
L 176.316688 218.88 
z
" clip-path="url(#pe229a085ea)" style="fill: #7f7f7f; opacity: 0.5"/>
   </g>
   <g id="patch_65">
    <path d="M 178.146758 307.584 
L 179.610815 307.584 
L 179.610815 236.6208 
L 178.146758 236.6208 
z
" clip-path="url(#pe229a085ea)" style="fill: #7f7f7f; opacity: 0.5"/>
   </g>
   <g id="patch_66">
    <path d="M 179.976829 307.584 
L 181.440886 307.584 
L 181.440886 218.88 
L 179.976829 218.88 
z
" clip-path="url(#pe229a085ea)" style="fill: #7f7f7f; opacity: 0.5"/>
   </g>
   <g id="patch_67">
    <path d="M 181.8069 307.584 
L 183.270956 307.584 
L 183.270956 183.3984 
L 181.8069 183.3984 
z
" clip-path="url(#pe229a085ea)" style="fill: #7f7f7f; opacity: 0.5"/>
   </g>
   <g id="patch_68">
    <path d="M 183.63697 307.584 
L 185.101027 307.584 
L 185.101027 272.1024 
L 183.63697 272.1024 
z
" clip-path="url(#pe229a085ea)" style="fill: #7f7f7f; opacity: 0.5"/>
   </g>
   <g id="patch_69">
    <path d="M 185.467041 307.584 
L 186.931098 307.584 
L 186.931098 289.8432 
L 185.467041 289.8432 
z
" clip-path="url(#pe229a085ea)" style="fill: #7f7f7f; opacity: 0.5"/>
   </g>
   <g id="patch_70">
    <path d="M 187.297112 307.584 
L 188.761168 307.584 
L 188.761168 165.6576 
L 187.297112 165.6576 
z
" clip-path="url(#pe229a085ea)" style="fill: #7f7f7f; opacity: 0.5"/>
   </g>
   <g id="patch_71">
    <path d="M 189.127183 307.584 
L 190.591239 307.584 
L 190.591239 272.1024 
L 189.127183 272.1024 
z
" clip-path="url(#pe229a085ea)" style="fill: #7f7f7f; opacity: 0.5"/>
   </g>
   <g id="patch_72">
    <path d="M 190.957253 307.584 
L 192.42131 307.584 
L 192.42131 236.6208 
L 190.957253 236.6208 
z
" clip-path="url(#pe229a085ea)" style="fill: #7f7f7f; opacity: 0.5"/>
   </g>
   <g id="patch_73">
    <path d="M 192.787324 307.584 
L 194.251381 307.584 
L 194.251381 272.1024 
L 192.787324 272.1024 
z
" clip-path="url(#pe229a085ea)" style="fill: #7f7f7f; opacity: 0.5"/>
   </g>
   <g id="patch_74">
    <path d="M 194.617395 307.584 
L 196.081451 307.584 
L 196.081451 147.9168 
L 194.617395 147.9168 
z
" clip-path="url(#pe229a085ea)" style="fill: #7f7f7f; opacity: 0.5"/>
   </g>
   <g id="patch_75">
    <path d="M 196.447465 307.584 
L 197.911522 307.584 
L 197.911522 165.6576 
L 196.447465 165.6576 
z
" clip-path="url(#pe229a085ea)" style="fill: #7f7f7f; opacity: 0.5"/>
   </g>
   <g id="patch_76">
    <path d="M 198.277536 307.584 
L 199.741593 307.584 
L 199.741593 165.6576 
L 198.277536 165.6576 
z
" clip-path="url(#pe229a085ea)" style="fill: #7f7f7f; opacity: 0.5"/>
   </g>
   <g id="patch_77">
    <path d="M 200.107607 307.584 
L 201.571663 307.584 
L 201.571663 183.3984 
L 200.107607 183.3984 
z
" clip-path="url(#pe229a085ea)" style="fill: #7f7f7f; opacity: 0.5"/>
   </g>
   <g id="patch_78">
    <path d="M 201.937678 307.584 
L 203.401734 307.584 
L 203.401734 147.9168 
L 201.937678 147.9168 
z
" clip-path="url(#pe229a085ea)" style="fill: #7f7f7f; opacity: 0.5"/>
   </g>
   <g id="patch_79">
    <path d="M 203.767748 307.584 
L 205.231805 307.584 
L 205.231805 94.6944 
L 203.767748 94.6944 
z
" clip-path="url(#pe229a085ea)" style="fill: #7f7f7f; opacity: 0.5"/>
   </g>
   <g id="patch_80">
    <path d="M 205.597819 307.584 
L 207.061876 307.584 
L 207.061876 94.6944 
L 205.597819 94.6944 
z
" clip-path="url(#pe229a085ea)" style="fill: #7f7f7f; opacity: 0.5"/>
   </g>
   <g id="patch_81">
    <path d="M 207.42789 307.584 
L 208.891946 307.584 
L 208.891946 183.3984 
L 207.42789 183.3984 
z
" clip-path="url(#pe229a085ea)" style="fill: #7f7f7f; opacity: 0.5"/>
   </g>
   <g id="patch_82">
    <path d="M 209.25796 307.584 
L 210.722017 307.584 
L 210.722017 94.6944 
L 209.25796 94.6944 
z
" clip-path="url(#pe229a085ea)" style="fill: #7f7f7f; opacity: 0.5"/>
   </g>
   <g id="patch_83">
    <path d="M 211.088031 307.584 
L 212.552088 307.584 
L 212.552088 272.1024 
L 211.088031 272.1024 
z
" clip-path="url(#pe229a085ea)" style="fill: #7f7f7f; opacity: 0.5"/>
   </g>
   <g id="patch_84">
    <path d="M 212.918102 307.584 
L 214.382158 307.584 
L 214.382158 41.472 
L 212.918102 41.472 
z
" clip-path="url(#pe229a085ea)" style="fill: #7f7f7f; opacity: 0.5"/>
   </g>
   <g id="patch_85">
    <path d="M 214.748173 307.584 
L 216.212229 307.584 
L 216.212229 112.4352 
L 214.748173 112.4352 
z
" clip-path="url(#pe229a085ea)" style="fill: #7f7f7f; opacity: 0.5"/>
   </g>
   <g id="patch_86">
    <path d="M 216.578243 307.584 
L 218.0423 307.584 
L 218.0423 218.88 
L 216.578243 218.88 
z
" clip-path="url(#pe229a085ea)" style="fill: #7f7f7f; opacity: 0.5"/>
   </g>
   <g id="patch_87">
    <path d="M 218.408314 307.584 
L 219.872371 307.584 
L 219.872371 236.6208 
L 218.408314 236.6208 
z
" clip-path="url(#pe229a085ea)" style="fill: #7f7f7f; opacity: 0.5"/>
   </g>
   <g id="patch_88">
    <path d="M 220.238385 307.584 
L 221.702441 307.584 
L 221.702441 272.1024 
L 220.238385 272.1024 
z
" clip-path="url(#pe229a085ea)" style="fill: #7f7f7f; opacity: 0.5"/>
   </g>
   <g id="patch_89">
    <path d="M 222.068455 307.584 
L 223.532512 307.584 
L 223.532512 236.6208 
L 222.068455 236.6208 
z
" clip-path="url(#pe229a085ea)" style="fill: #7f7f7f; opacity: 0.5"/>
   </g>
   <g id="patch_90">
    <path d="M 223.898526 307.584 
L 225.362583 307.584 
L 225.362583 183.3984 
L 223.898526 183.3984 
z
" clip-path="url(#pe229a085ea)" style="fill: #7f7f7f; opacity: 0.5"/>
   </g>
   <g id="patch_91">
    <path d="M 225.728597 307.584 
L 227.192653 307.584 
L 227.192653 76.9536 
L 225.728597 76.9536 
z
" clip-path="url(#pe229a085ea)" style="fill: #7f7f7f; opacity: 0.5"/>
   </g>
   <g id="patch_92">
    <path d="M 227.558668 307.584 
L 229.022724 307.584 
L 229.022724 201.1392 
L 227.558668 201.1392 
z
" clip-path="url(#pe229a085ea)" style="fill: #7f7f7f; opacity: 0.5"/>
   </g>
   <g id="patch_93">
    <path d="M 229.388738 307.584 
L 230.852795 307.584 
L 230.852795 165.6576 
L 229.388738 165.6576 
z
" clip-path="url(#pe229a085ea)" style="fill: #7f7f7f; opacity: 0.5"/>
   </g>
   <g id="patch_94">
    <path d="M 231.218809 307.584 
L 232.682866 307.584 
L 232.682866 236.6208 
L 231.218809 236.6208 
z
" clip-path="url(#pe229a085ea)" style="fill: #7f7f7f; opacity: 0.5"/>
   </g>
   <g id="patch_95">
    <path d="M 233.04888 307.584 
L 234.512936 307.584 
L 234.512936 218.88 
L 233.04888 218.88 
z
" clip-path="url(#pe229a085ea)" style="fill: #7f7f7f; opacity: 0.5"/>
   </g>
   <g id="patch_96">
    <path d="M 234.87895 307.584 
L 236.343007 307.584 
L 236.343007 254.3616 
L 234.87895 254.3616 
z
" clip-path="url(#pe229a085ea)" style="fill: #7f7f7f; opacity: 0.5"/>
   </g>
   <g id="patch_97">
    <path d="M 236.709021 307.584 
L 238.173078 307.584 
L 238.173078 272.1024 
L 236.709021 272.1024 
z
" clip-path="url(#pe229a085ea)" style="fill: #7f7f7f; opacity: 0.5"/>
   </g>
   <g id="patch_98">
    <path d="M 238.539092 307.584 
L 240.003149 307.584 
L 240.003149 272.1024 
L 238.539092 272.1024 
z
" clip-path="url(#pe229a085ea)" style="fill: #7f7f7f; opacity: 0.5"/>
   </g>
   <g id="patch_99">
    <path d="M 240.369163 307.584 
L 241.833219 307.584 
L 241.833219 307.584 
L 240.369163 307.584 
z
" clip-path="url(#pe229a085ea)" style="fill: #7f7f7f; opacity: 0.5"/>
   </g>
   <g id="patch_100">
    <path d="M 242.199233 307.584 
L 243.66329 307.584 
L 243.66329 289.8432 
L 242.199233 289.8432 
z
" clip-path="url(#pe229a085ea)" style="fill: #7f7f7f; opacity: 0.5"/>
   </g>
   <g id="patch_101">
    <path d="M 244.029304 307.584 
L 245.493361 307.584 
L 245.493361 272.1024 
L 244.029304 272.1024 
z
" clip-path="url(#pe229a085ea)" style="fill: #7f7f7f; opacity: 0.5"/>
   </g>
   <g id="patch_102">
    <path d="M 245.859375 307.584 
L 247.323431 307.584 
L 247.323431 254.3616 
L 245.859375 254.3616 
z
" clip-path="url(#pe229a085ea)" style="fill: #7f7f7f; opacity: 0.5"/>
   </g>
   <g id="patch_103">
    <path d="M 247.689446 307.584 
L 249.153502 307.584 
L 249.153502 289.8432 
L 247.689446 289.8432 
z
" clip-path="url(#pe229a085ea)" style="fill: #7f7f7f; opacity: 0.5"/>
   </g>
   <g id="patch_104">
    <path d="M 249.519516 307.584 
L 250.983573 307.584 
L 250.983573 254.3616 
L 249.519516 254.3616 
z
" clip-path="url(#pe229a085ea)" style="fill: #7f7f7f; opacity: 0.5"/>
   </g>
   <g id="patch_105">
    <path d="M 251.349587 307.584 
L 252.813644 307.584 
L 252.813644 272.1024 
L 251.349587 272.1024 
z
" clip-path="url(#pe229a085ea)" style="fill: #7f7f7f; opacity: 0.5"/>
   </g>
   <g id="patch_106">
    <path d="M 253.179658 307.584 
L 254.643714 307.584 
L 254.643714 307.584 
L 253.179658 307.584 
z
" clip-path="url(#pe229a085ea)" style="fill: #7f7f7f; opacity: 0.5"/>
   </g>
   <g id="patch_107">
    <path d="M 255.009728 307.584 
L 256.473785 307.584 
L 256.473785 307.584 
L 255.009728 307.584 
z
" clip-path="url(#pe229a085ea)" style="fill: #7f7f7f; opacity: 0.5"/>
   </g>
   <g id="patch_108">
    <path d="M 256.839799 307.584 
L 258.303856 307.584 
L 258.303856 289.8432 
L 256.839799 289.8432 
z
" clip-path="url(#pe229a085ea)" style="fill: #7f7f7f; opacity: 0.5"/>
   </g>
   <g id="patch_109">
    <path d="M 258.66987 307.584 
L 260.133926 307.584 
L 260.133926 272.1024 
L 258.66987 272.1024 
z
" clip-path="url(#pe229a085ea)" style="fill: #7f7f7f; opacity: 0.5"/>
   </g>
   <g id="patch_110">
    <path d="M 260.499941 307.584 
L 261.963997 307.584 
L 261.963997 289.8432 
L 260.499941 289.8432 
z
" clip-path="url(#pe229a085ea)" style="fill: #7f7f7f; opacity: 0.5"/>
   </g>
   <g id="patch_111">
    <path d="M 262.330011 307.584 
L 263.794068 307.584 
L 263.794068 307.584 
L 262.330011 307.584 
z
" clip-path="url(#pe229a085ea)" style="fill: #7f7f7f; opacity: 0.5"/>
   </g>
   <g id="patch_112">
    <path d="M 264.160082 307.584 
L 265.624139 307.584 
L 265.624139 289.8432 
L 264.160082 289.8432 
z
" clip-path="url(#pe229a085ea)" style="fill: #7f7f7f; opacity: 0.5"/>
   </g>
   <g id="patch_113">
    <path d="M 265.990153 307.584 
L 267.454209 307.584 
L 267.454209 307.584 
L 265.990153 307.584 
z
" clip-path="url(#pe229a085ea)" style="fill: #7f7f7f; opacity: 0.5"/>
   </g>
   <g id="patch_114">
    <path d="M 267.820223 307.584 
L 269.28428 307.584 
L 269.28428 289.8432 
L 267.820223 289.8432 
z
" clip-path="url(#pe229a085ea)" style="fill: #7f7f7f; opacity: 0.5"/>
   </g>
   <g id="patch_115">
    <path d="M 269.650294 307.584 
L 271.114351 307.584 
L 271.114351 307.584 
L 269.650294 307.584 
z
" clip-path="url(#pe229a085ea)" style="fill: #7f7f7f; opacity: 0.5"/>
   </g>
   <g id="patch_116">
    <path d="M 271.480365 307.584 
L 272.944421 307.584 
L 272.944421 307.584 
L 271.480365 307.584 
z
" clip-path="url(#pe229a085ea)" style="fill: #7f7f7f; opacity: 0.5"/>
   </g>
   <g id="patch_117">
    <path d="M 273.310436 307.584 
L 274.774492 307.584 
L 274.774492 307.584 
L 273.310436 307.584 
z
" clip-path="url(#pe229a085ea)" style="fill: #7f7f7f; opacity: 0.5"/>
   </g>
   <g id="patch_118">
    <path d="M 275.140506 307.584 
L 276.604563 307.584 
L 276.604563 289.8432 
L 275.140506 289.8432 
z
" clip-path="url(#pe229a085ea)" style="fill: #7f7f7f; opacity: 0.5"/>
   </g>
   <g id="patch_119">
    <path d="M 276.970577 307.584 
L 278.434634 307.584 
L 278.434634 289.8432 
L 276.970577 289.8432 
z
" clip-path="url(#pe229a085ea)" style="fill: #7f7f7f; opacity: 0.5"/>
   </g>
   <g id="patch_120">
    <path d="M 278.800648 307.584 
L 280.264704 307.584 
L 280.264704 307.584 
L 278.800648 307.584 
z
" clip-path="url(#pe229a085ea)" style="fill: #7f7f7f; opacity: 0.5"/>
   </g>
   <g id="patch_121">
    <path d="M 280.630718 307.584 
L 282.094775 307.584 
L 282.094775 307.584 
L 280.630718 307.584 
z
" clip-path="url(#pe229a085ea)" style="fill: #7f7f7f; opacity: 0.5"/>
   </g>
   <g id="patch_122">
    <path d="M 282.460789 307.584 
L 283.924846 307.584 
L 283.924846 307.584 
L 282.460789 307.584 
z
" clip-path="url(#pe229a085ea)" style="fill: #7f7f7f; opacity: 0.5"/>
   </g>
   <g id="patch_123">
    <path d="M 284.29086 307.584 
L 285.754916 307.584 
L 285.754916 289.8432 
L 284.29086 289.8432 
z
" clip-path="url(#pe229a085ea)" style="fill: #7f7f7f; opacity: 0.5"/>
   </g>
   <g id="patch_124">
    <path d="M 286.120931 307.584 
L 287.584987 307.584 
L 287.584987 307.584 
L 286.120931 307.584 
z
" clip-path="url(#pe229a085ea)" style="fill: #7f7f7f; opacity: 0.5"/>
   </g>
   <g id="patch_125">
    <path d="M 287.951001 307.584 
L 289.415058 307.584 
L 289.415058 307.584 
L 287.951001 307.584 
z
" clip-path="url(#pe229a085ea)" style="fill: #7f7f7f; opacity: 0.5"/>
   </g>
   <g id="patch_126">
    <path d="M 289.781072 307.584 
L 291.245129 307.584 
L 291.245129 307.584 
L 289.781072 307.584 
z
" clip-path="url(#pe229a085ea)" style="fill: #7f7f7f; opacity: 0.5"/>
   </g>
   <g id="patch_127">
    <path d="M 291.611143 307.584 
L 293.075199 307.584 
L 293.075199 307.584 
L 291.611143 307.584 
z
" clip-path="url(#pe229a085ea)" style="fill: #7f7f7f; opacity: 0.5"/>
   </g>
   <g id="patch_128">
    <path d="M 293.441213 307.584 
L 294.90527 307.584 
L 294.90527 307.584 
L 293.441213 307.584 
z
" clip-path="url(#pe229a085ea)" style="fill: #7f7f7f; opacity: 0.5"/>
   </g>
   <g id="patch_129">
    <path d="M 295.271284 307.584 
L 296.735341 307.584 
L 296.735341 307.584 
L 295.271284 307.584 
z
" clip-path="url(#pe229a085ea)" style="fill: #7f7f7f; opacity: 0.5"/>
   </g>
   <g id="patch_130">
    <path d="M 297.101355 307.584 
L 298.565411 307.584 
L 298.565411 307.584 
L 297.101355 307.584 
z
" clip-path="url(#pe229a085ea)" style="fill: #7f7f7f; opacity: 0.5"/>
   </g>
   <g id="patch_131">
    <path d="M 298.931426 307.584 
L 300.395482 307.584 
L 300.395482 307.584 
L 298.931426 307.584 
z
" clip-path="url(#pe229a085ea)" style="fill: #7f7f7f; opacity: 0.5"/>
   </g>
   <g id="patch_132">
    <path d="M 300.761496 307.584 
L 302.225553 307.584 
L 302.225553 307.584 
L 300.761496 307.584 
z
" clip-path="url(#pe229a085ea)" style="fill: #7f7f7f; opacity: 0.5"/>
   </g>
   <g id="patch_133">
    <path d="M 302.591567 307.584 
L 304.055624 307.584 
L 304.055624 289.8432 
L 302.591567 289.8432 
z
" clip-path="url(#pe229a085ea)" style="fill: #7f7f7f; opacity: 0.5"/>
   </g>
   <g id="patch_134">
    <path d="M 304.421638 307.584 
L 305.885694 307.584 
L 305.885694 307.584 
L 304.421638 307.584 
z
" clip-path="url(#pe229a085ea)" style="fill: #7f7f7f; opacity: 0.5"/>
   </g>
   <g id="patch_135">
    <path d="M 306.251709 307.584 
L 307.715765 307.584 
L 307.715765 307.584 
L 306.251709 307.584 
z
" clip-path="url(#pe229a085ea)" style="fill: #7f7f7f; opacity: 0.5"/>
   </g>
   <g id="patch_136">
    <path d="M 308.081779 307.584 
L 309.545836 307.584 
L 309.545836 307.584 
L 308.081779 307.584 
z
" clip-path="url(#pe229a085ea)" style="fill: #7f7f7f; opacity: 0.5"/>
   </g>
   <g id="patch_137">
    <path d="M 309.91185 307.584 
L 311.375907 307.584 
L 311.375907 307.584 
L 309.91185 307.584 
z
" clip-path="url(#pe229a085ea)" style="fill: #7f7f7f; opacity: 0.5"/>
   </g>
   <g id="patch_138">
    <path d="M 311.741921 307.584 
L 313.205977 307.584 
L 313.205977 307.584 
L 311.741921 307.584 
z
" clip-path="url(#pe229a085ea)" style="fill: #7f7f7f; opacity: 0.5"/>
   </g>
   <g id="patch_139">
    <path d="M 313.571991 307.584 
L 315.036048 307.584 
L 315.036048 307.584 
L 313.571991 307.584 
z
" clip-path="url(#pe229a085ea)" style="fill: #7f7f7f; opacity: 0.5"/>
   </g>
   <g id="patch_140">
    <path d="M 315.402062 307.584 
L 316.866119 307.584 
L 316.866119 289.8432 
L 315.402062 289.8432 
z
" clip-path="url(#pe229a085ea)" style="fill: #7f7f7f; opacity: 0.5"/>
   </g>
   <g id="patch_141">
    <path d="M 317.232133 307.584 
L 318.696189 307.584 
L 318.696189 307.584 
L 317.232133 307.584 
z
" clip-path="url(#pe229a085ea)" style="fill: #7f7f7f; opacity: 0.5"/>
   </g>
   <g id="patch_142">
    <path d="M 319.062204 307.584 
L 320.52626 307.584 
L 320.52626 307.584 
L 319.062204 307.584 
z
" clip-path="url(#pe229a085ea)" style="fill: #7f7f7f; opacity: 0.5"/>
   </g>
   <g id="patch_143">
    <path d="M 320.892274 307.584 
L 322.356331 307.584 
L 322.356331 307.584 
L 320.892274 307.584 
z
" clip-path="url(#pe229a085ea)" style="fill: #7f7f7f; opacity: 0.5"/>
   </g>
   <g id="patch_144">
    <path d="M 322.722345 307.584 
L 324.186402 307.584 
L 324.186402 307.584 
L 322.722345 307.584 
z
" clip-path="url(#pe229a085ea)" style="fill: #7f7f7f; opacity: 0.5"/>
   </g>
   <g id="patch_145">
    <path d="M 324.552416 307.584 
L 326.016472 307.584 
L 326.016472 307.584 
L 324.552416 307.584 
z
" clip-path="url(#pe229a085ea)" style="fill: #7f7f7f; opacity: 0.5"/>
   </g>
   <g id="patch_146">
    <path d="M 326.382486 307.584 
L 327.846543 307.584 
L 327.846543 307.584 
L 326.382486 307.584 
z
" clip-path="url(#pe229a085ea)" style="fill: #7f7f7f; opacity: 0.5"/>
   </g>
   <g id="patch_147">
    <path d="M 328.212557 307.584 
L 329.676614 307.584 
L 329.676614 307.584 
L 328.212557 307.584 
z
" clip-path="url(#pe229a085ea)" style="fill: #7f7f7f; opacity: 0.5"/>
   </g>
   <g id="patch_148">
    <path d="M 330.042628 307.584 
L 331.506684 307.584 
L 331.506684 307.584 
L 330.042628 307.584 
z
" clip-path="url(#pe229a085ea)" style="fill: #7f7f7f; opacity: 0.5"/>
   </g>
   <g id="patch_149">
    <path d="M 331.872699 307.584 
L 333.336755 307.584 
L 333.336755 307.584 
L 331.872699 307.584 
z
" clip-path="url(#pe229a085ea)" style="fill: #7f7f7f; opacity: 0.5"/>
   </g>
   <g id="patch_150">
    <path d="M 333.702769 307.584 
L 335.166826 307.584 
L 335.166826 307.584 
L 333.702769 307.584 
z
" clip-path="url(#pe229a085ea)" style="fill: #7f7f7f; opacity: 0.5"/>
   </g>
   <g id="patch_151">
    <path d="M 335.53284 307.584 
L 336.996897 307.584 
L 336.996897 307.584 
L 335.53284 307.584 
z
" clip-path="url(#pe229a085ea)" style="fill: #7f7f7f; opacity: 0.5"/>
   </g>
   <g id="patch_152">
    <path d="M 337.362911 307.584 
L 338.826967 307.584 
L 338.826967 307.584 
L 337.362911 307.584 
z
" clip-path="url(#pe229a085ea)" style="fill: #7f7f7f; opacity: 0.5"/>
   </g>
   <g id="patch_153">
    <path d="M 339.192981 307.584 
L 340.657038 307.584 
L 340.657038 307.584 
L 339.192981 307.584 
z
" clip-path="url(#pe229a085ea)" style="fill: #7f7f7f; opacity: 0.5"/>
   </g>
   <g id="patch_154">
    <path d="M 341.023052 307.584 
L 342.487109 307.584 
L 342.487109 307.584 
L 341.023052 307.584 
z
" clip-path="url(#pe229a085ea)" style="fill: #7f7f7f; opacity: 0.5"/>
   </g>
   <g id="patch_155">
    <path d="M 342.853123 307.584 
L 344.317179 307.584 
L 344.317179 307.584 
L 342.853123 307.584 
z
" clip-path="url(#pe229a085ea)" style="fill: #7f7f7f; opacity: 0.5"/>
   </g>
   <g id="patch_156">
    <path d="M 344.683194 307.584 
L 346.14725 307.584 
L 346.14725 307.584 
L 344.683194 307.584 
z
" clip-path="url(#pe229a085ea)" style="fill: #7f7f7f; opacity: 0.5"/>
   </g>
   <g id="patch_157">
    <path d="M 346.513264 307.584 
L 347.977321 307.584 
L 347.977321 307.584 
L 346.513264 307.584 
z
" clip-path="url(#pe229a085ea)" style="fill: #7f7f7f; opacity: 0.5"/>
   </g>
   <g id="patch_158">
    <path d="M 348.343335 307.584 
L 349.807392 307.584 
L 349.807392 307.584 
L 348.343335 307.584 
z
" clip-path="url(#pe229a085ea)" style="fill: #7f7f7f; opacity: 0.5"/>
   </g>
   <g id="patch_159">
    <path d="M 350.173406 307.584 
L 351.637462 307.584 
L 351.637462 307.584 
L 350.173406 307.584 
z
" clip-path="url(#pe229a085ea)" style="fill: #7f7f7f; opacity: 0.5"/>
   </g>
   <g id="patch_160">
    <path d="M 352.003476 307.584 
L 353.467533 307.584 
L 353.467533 307.584 
L 352.003476 307.584 
z
" clip-path="url(#pe229a085ea)" style="fill: #7f7f7f; opacity: 0.5"/>
   </g>
   <g id="patch_161">
    <path d="M 353.833547 307.584 
L 355.297604 307.584 
L 355.297604 307.584 
L 353.833547 307.584 
z
" clip-path="url(#pe229a085ea)" style="fill: #7f7f7f; opacity: 0.5"/>
   </g>
   <g id="patch_162">
    <path d="M 355.663618 307.584 
L 357.127674 307.584 
L 357.127674 307.584 
L 355.663618 307.584 
z
" clip-path="url(#pe229a085ea)" style="fill: #7f7f7f; opacity: 0.5"/>
   </g>
   <g id="patch_163">
    <path d="M 357.493689 307.584 
L 358.957745 307.584 
L 358.957745 307.584 
L 357.493689 307.584 
z
" clip-path="url(#pe229a085ea)" style="fill: #7f7f7f; opacity: 0.5"/>
   </g>
   <g id="patch_164">
    <path d="M 359.323759 307.584 
L 360.787816 307.584 
L 360.787816 307.584 
L 359.323759 307.584 
z
" clip-path="url(#pe229a085ea)" style="fill: #7f7f7f; opacity: 0.5"/>
   </g>
   <g id="patch_165">
    <path d="M 361.15383 307.584 
L 362.617887 307.584 
L 362.617887 307.584 
L 361.15383 307.584 
z
" clip-path="url(#pe229a085ea)" style="fill: #7f7f7f; opacity: 0.5"/>
   </g>
   <g id="patch_166">
    <path d="M 362.983901 307.584 
L 364.447957 307.584 
L 364.447957 307.584 
L 362.983901 307.584 
z
" clip-path="url(#pe229a085ea)" style="fill: #7f7f7f; opacity: 0.5"/>
   </g>
   <g id="patch_167">
    <path d="M 364.813972 307.584 
L 366.278028 307.584 
L 366.278028 307.584 
L 364.813972 307.584 
z
" clip-path="url(#pe229a085ea)" style="fill: #7f7f7f; opacity: 0.5"/>
   </g>
   <g id="patch_168">
    <path d="M 366.644042 307.584 
L 368.108099 307.584 
L 368.108099 307.584 
L 366.644042 307.584 
z
" clip-path="url(#pe229a085ea)" style="fill: #7f7f7f; opacity: 0.5"/>
   </g>
   <g id="patch_169">
    <path d="M 368.474113 307.584 
L 369.93817 307.584 
L 369.93817 307.584 
L 368.474113 307.584 
z
" clip-path="url(#pe229a085ea)" style="fill: #7f7f7f; opacity: 0.5"/>
   </g>
   <g id="patch_170">
    <path d="M 370.304184 307.584 
L 371.76824 307.584 
L 371.76824 307.584 
L 370.304184 307.584 
z
" clip-path="url(#pe229a085ea)" style="fill: #7f7f7f; opacity: 0.5"/>
   </g>
   <g id="patch_171">
    <path d="M 372.134254 307.584 
L 373.598311 307.584 
L 373.598311 307.584 
L 372.134254 307.584 
z
" clip-path="url(#pe229a085ea)" style="fill: #7f7f7f; opacity: 0.5"/>
   </g>
   <g id="patch_172">
    <path d="M 373.964325 307.584 
L 375.428382 307.584 
L 375.428382 307.584 
L 373.964325 307.584 
z
" clip-path="url(#pe229a085ea)" style="fill: #7f7f7f; opacity: 0.5"/>
   </g>
   <g id="patch_173">
    <path d="M 375.794396 307.584 
L 377.258452 307.584 
L 377.258452 307.584 
L 375.794396 307.584 
z
" clip-path="url(#pe229a085ea)" style="fill: #7f7f7f; opacity: 0.5"/>
   </g>
   <g id="patch_174">
    <path d="M 377.624467 307.584 
L 379.088523 307.584 
L 379.088523 307.584 
L 377.624467 307.584 
z
" clip-path="url(#pe229a085ea)" style="fill: #7f7f7f; opacity: 0.5"/>
   </g>
   <g id="patch_175">
    <path d="M 379.454537 307.584 
L 380.918594 307.584 
L 380.918594 307.584 
L 379.454537 307.584 
z
" clip-path="url(#pe229a085ea)" style="fill: #7f7f7f; opacity: 0.5"/>
   </g>
   <g id="patch_176">
    <path d="M 381.284608 307.584 
L 382.748665 307.584 
L 382.748665 307.584 
L 381.284608 307.584 
z
" clip-path="url(#pe229a085ea)" style="fill: #7f7f7f; opacity: 0.5"/>
   </g>
   <g id="patch_177">
    <path d="M 383.114679 307.584 
L 384.578735 307.584 
L 384.578735 307.584 
L 383.114679 307.584 
z
" clip-path="url(#pe229a085ea)" style="fill: #7f7f7f; opacity: 0.5"/>
   </g>
   <g id="patch_178">
    <path d="M 384.944749 307.584 
L 386.408806 307.584 
L 386.408806 307.584 
L 384.944749 307.584 
z
" clip-path="url(#pe229a085ea)" style="fill: #7f7f7f; opacity: 0.5"/>
   </g>
   <g id="patch_179">
    <path d="M 386.77482 307.584 
L 388.238877 307.584 
L 388.238877 307.584 
L 386.77482 307.584 
z
" clip-path="url(#pe229a085ea)" style="fill: #7f7f7f; opacity: 0.5"/>
   </g>
   <g id="patch_180">
    <path d="M 388.604891 307.584 
L 390.068947 307.584 
L 390.068947 307.584 
L 388.604891 307.584 
z
" clip-path="url(#pe229a085ea)" style="fill: #7f7f7f; opacity: 0.5"/>
   </g>
   <g id="patch_181">
    <path d="M 390.434962 307.584 
L 391.899018 307.584 
L 391.899018 307.584 
L 390.434962 307.584 
z
" clip-path="url(#pe229a085ea)" style="fill: #7f7f7f; opacity: 0.5"/>
   </g>
   <g id="matplotlib.axis_3">
    <g id="ytick_7">
     <g id="line2d_20">
      <defs>
       <path id="m061fafc0d9" d="M 0 0 
L 3.5 0 
" style="stroke: #7f7f7f; stroke-width: 0.8"/>
      </defs>
      <g>
       <use xlink:href="#m061fafc0d9" x="414.72" y="307.584" style="fill: #7f7f7f; stroke: #7f7f7f; stroke-width: 0.8"/>
      </g>
     </g>
     <g id="text_19">
      <!-- 0 -->
      <g style="fill: #7f7f7f" transform="translate(421.72 311.383219) scale(0.1 -0.1)">
       <use xlink:href="#DejaVuSans-30"/>
      </g>
     </g>
    </g>
    <g id="ytick_8">
     <g id="line2d_21">
      <g>
       <use xlink:href="#m061fafc0d9" x="414.72" y="272.1024" style="fill: #7f7f7f; stroke: #7f7f7f; stroke-width: 0.8"/>
      </g>
     </g>
     <g id="text_20">
      <!-- 2 -->
      <g style="fill: #7f7f7f" transform="translate(421.72 275.901619) scale(0.1 -0.1)">
       <use xlink:href="#DejaVuSans-32"/>
      </g>
     </g>
    </g>
    <g id="ytick_9">
     <g id="line2d_22">
      <g>
       <use xlink:href="#m061fafc0d9" x="414.72" y="236.6208" style="fill: #7f7f7f; stroke: #7f7f7f; stroke-width: 0.8"/>
      </g>
     </g>
     <g id="text_21">
      <!-- 4 -->
      <g style="fill: #7f7f7f" transform="translate(421.72 240.420019) scale(0.1 -0.1)">
       <use xlink:href="#DejaVuSans-34"/>
      </g>
     </g>
    </g>
    <g id="ytick_10">
     <g id="line2d_23">
      <g>
       <use xlink:href="#m061fafc0d9" x="414.72" y="201.1392" style="fill: #7f7f7f; stroke: #7f7f7f; stroke-width: 0.8"/>
      </g>
     </g>
     <g id="text_22">
      <!-- 6 -->
      <g style="fill: #7f7f7f" transform="translate(421.72 204.938419) scale(0.1 -0.1)">
       <use xlink:href="#DejaVuSans-36"/>
      </g>
     </g>
    </g>
    <g id="ytick_11">
     <g id="line2d_24">
      <g>
       <use xlink:href="#m061fafc0d9" x="414.72" y="165.6576" style="fill: #7f7f7f; stroke: #7f7f7f; stroke-width: 0.8"/>
      </g>
     </g>
     <g id="text_23">
      <!-- 8 -->
      <g style="fill: #7f7f7f" transform="translate(421.72 169.456819) scale(0.1 -0.1)">
       <use xlink:href="#DejaVuSans-38"/>
      </g>
     </g>
    </g>
    <g id="ytick_12">
     <g id="line2d_25">
      <g>
       <use xlink:href="#m061fafc0d9" x="414.72" y="130.176" style="fill: #7f7f7f; stroke: #7f7f7f; stroke-width: 0.8"/>
      </g>
     </g>
     <g id="text_24">
      <!-- 10 -->
      <g style="fill: #7f7f7f" transform="translate(421.72 133.975219) scale(0.1 -0.1)">
       <use xlink:href="#DejaVuSans-31"/>
       <use xlink:href="#DejaVuSans-30" transform="translate(63.623047 0)"/>
      </g>
     </g>
    </g>
    <g id="ytick_13">
     <g id="line2d_26">
      <g>
       <use xlink:href="#m061fafc0d9" x="414.72" y="94.6944" style="fill: #7f7f7f; stroke: #7f7f7f; stroke-width: 0.8"/>
      </g>
     </g>
     <g id="text_25">
      <!-- 12 -->
      <g style="fill: #7f7f7f" transform="translate(421.72 98.493619) scale(0.1 -0.1)">
       <use xlink:href="#DejaVuSans-31"/>
       <use xlink:href="#DejaVuSans-32" transform="translate(63.623047 0)"/>
      </g>
     </g>
    </g>
    <g id="ytick_14">
     <g id="line2d_27">
      <g>
       <use xlink:href="#m061fafc0d9" x="414.72" y="59.2128" style="fill: #7f7f7f; stroke: #7f7f7f; stroke-width: 0.8"/>
      </g>
     </g>
     <g id="text_26">
      <!-- 14 -->
      <g style="fill: #7f7f7f" transform="translate(421.72 63.012019) scale(0.1 -0.1)">
       <use xlink:href="#DejaVuSans-31"/>
       <use xlink:href="#DejaVuSans-34" transform="translate(63.623047 0)"/>
      </g>
     </g>
    </g>
    <g id="text_27">
     <!-- Number of cases -->
     <g style="fill: #7f7f7f" transform="translate(446.043438 216.710813) rotate(-90) scale(0.1 -0.1)">
      <use xlink:href="#DejaVuSans-4e"/>
      <use xlink:href="#DejaVuSans-75" transform="translate(74.804688 0)"/>
      <use xlink:href="#DejaVuSans-6d" transform="translate(138.183594 0)"/>
      <use xlink:href="#DejaVuSans-62" transform="translate(235.595703 0)"/>
      <use xlink:href="#DejaVuSans-65" transform="translate(299.072266 0)"/>
      <use xlink:href="#DejaVuSans-72" transform="translate(360.595703 0)"/>
      <use xlink:href="#DejaVuSans-20" transform="translate(401.708984 0)"/>
      <use xlink:href="#DejaVuSans-6f" transform="translate(433.496094 0)"/>
      <use xlink:href="#DejaVuSans-66" transform="translate(494.677734 0)"/>
      <use xlink:href="#DejaVuSans-20" transform="translate(529.882812 0)"/>
      <use xlink:href="#DejaVuSans-63" transform="translate(561.669922 0)"/>
      <use xlink:href="#DejaVuSans-61" transform="translate(616.650391 0)"/>
      <use xlink:href="#DejaVuSans-73" transform="translate(677.929688 0)"/>
      <use xlink:href="#DejaVuSans-65" transform="translate(730.029297 0)"/>
      <use xlink:href="#DejaVuSans-73" transform="translate(791.552734 0)"/>
     </g>
    </g>
   </g>
   <g id="patch_182">
    <path d="M 57.6 307.584 
L 57.6 41.472 
" style="fill: none; stroke: #000000; stroke-width: 0.8; stroke-linejoin: miter; stroke-linecap: square"/>
   </g>
   <g id="patch_183">
    <path d="M 414.72 307.584 
L 414.72 41.472 
" style="fill: none; stroke: #000000; stroke-width: 0.8; stroke-linejoin: miter; stroke-linecap: square"/>
   </g>
   <g id="patch_184">
    <path d="M 57.6 307.584 
L 414.72 307.584 
" style="fill: none; stroke: #000000; stroke-width: 0.8; stroke-linejoin: miter; stroke-linecap: square"/>
   </g>
   <g id="patch_185">
    <path d="M 57.6 41.472 
L 414.72 41.472 
" style="fill: none; stroke: #000000; stroke-width: 0.8; stroke-linejoin: miter; stroke-linecap: square"/>
   </g>
  </g>
 </g>
 <defs>
  <clipPath id="pe229a085ea">
   <rect x="57.6" y="41.472" width="357.12" height="266.112"/>
  </clipPath>
 </defs>
</svg>
