<?xml version="1.0" encoding="utf-8" standalone="no"?>
<!DOCTYPE svg PUBLIC "-//W3C//DTD SVG 1.1//EN"
  "http://www.w3.org/Graphics/SVG/1.1/DTD/svg11.dtd">
<svg xmlns:xlink="http://www.w3.org/1999/xlink" width="504pt" height="504pt" viewBox="0 0 504 504" xmlns="http://www.w3.org/2000/svg" version="1.1">
 <metadata>
  <rdf:RDF xmlns:dc="http://purl.org/dc/elements/1.1/" xmlns:cc="http://creativecommons.org/ns#" xmlns:rdf="http://www.w3.org/1999/02/22-rdf-syntax-ns#">
   <cc:Work>
    <dc:type rdf:resource="http://purl.org/dc/dcmitype/StillImage"/>
    <dc:date>2026-03-26T11:06:59.854060</dc:date>
    <dc:format>image/svg+xml</dc:format>
    <dc:creator>
     <cc:Agent>
      <dc:title>Matplotlib v3.10.8, https://matplotlib.org/</dc:title>
     </cc:Agent>
    </dc:creator>
   </cc:Work>
  </rdf:RDF>
 </metadata>
 <defs>
  <style type="text/css">*{stroke-linejoin: round; stroke-linecap: butt}</style>
 </defs>
 <g id="figure_1">
  <g id="patch_1">
   <path d="M 0 504 
L 504 504 
L 504 0 
L 0 0 
L 0 504 
z
" style="fill: none"/>
  </g>
  <g id="axes_1">
   <g id="patch_2">
    <path d="M 63 448.56 
L 453.6 448.56 
L 453.6 60.48 
L 63 60.48 
L 63 448.56 
z
" style="fill: none"/>
   </g>
   <g id="FillBetweenPolyCollection_1">
    <defs>
     <path id="mfeb6a51a7c" d="M 81.571786 -425.566388 
L 81.571786 -91.679226 
L 83.614886 -93.247108 
L 85.657987 -93.716102 
L 87.701088 -90.35619 
L 89.744189 -87.126932 
L 91.787289 -84.768267 
L 93.83039 -83.830989 
L 95.873491 -81.633971 
L 97.916592 -80.534852 
L 99.959692 -78.694715 
L 102.002793 -77.278683 
L 104.045894 -76.37401 
L 106.088995 -75.782446 
L 108.132095 -75.445034 
L 110.175196 -76.060389 
L 112.218297 -76.309664 
L 114.261398 -77.054322 
L 116.304498 -78.628159 
L 118.347599 -79.637784 
L 120.3907 -81.292564 
L 122.433801 -81.502143 
L 124.476901 -83.979188 
L 126.520002 -86.972009 
L 128.563103 -88.751596 
L 130.606204 -90.992734 
L 132.649304 -92.107795 
L 134.692405 -95.035798 
L 136.735506 -96.475263 
L 138.778607 -98.366107 
L 140.821707 -99.416464 
L 142.864808 -99.212632 
L 144.907909 -101.328575 
L 146.95101 -101.5122 
L 148.99411 -100.335249 
L 151.037211 -101.762013 
L 153.080312 -104.391442 
L 155.123412 -106.574601 
L 157.166513 -110.052725 
L 159.209614 -112.605412 
L 161.252715 -111.127155 
L 163.295815 -112.103362 
L 165.338916 -112.673228 
L 167.382017 -114.089568 
L 169.425118 -116.416901 
L 171.468218 -114.810014 
L 173.511319 -116.834078 
L 175.55442 -122.075338 
L 177.597521 -129.092571 
L 179.640621 -133.122017 
L 181.683722 -136.351003 
L 183.726823 -137.742548 
L 185.769924 -147.277858 
L 187.813024 -152.417721 
L 189.856125 -162.441463 
L 191.899226 -157.485017 
L 193.942327 -151.64718 
L 195.985427 -139.975734 
L 198.028528 -126.348695 
L 200.071629 -117.971585 
L 202.11473 -110.500891 
L 204.15783 -100.215769 
L 206.200931 -94.93236 
L 208.244032 -94.594141 
L 210.287133 -90.410103 
L 212.330233 -90.462251 
L 214.373334 -92.126742 
L 216.416435 -99.126451 
L 218.459536 -102.915373 
L 220.502636 -107.125874 
L 222.545737 -109.342075 
L 224.588838 -114.934093 
L 226.631938 -121.028547 
L 228.675039 -121.067678 
L 230.71814 -114.931405 
L 232.761241 -113.438457 
L 234.804341 -105.355058 
L 236.847442 -108.798514 
L 238.890543 -100.998861 
L 240.933644 -90.964678 
L 242.976744 -85.209361 
L 245.019845 -82.169124 
L 247.062946 -83.014605 
L 249.106047 -85.158818 
L 251.149147 -89.565903 
L 253.192248 -86.599057 
L 255.235349 -85.229257 
L 257.27845 -81.013294 
L 259.32155 -78.516821 
L 261.364651 -75.516311 
L 263.407752 -73.072405 
L 265.450853 -72.057395 
L 267.493953 -71.448288 
L 269.537054 -71.107345 
L 271.580155 -72.308111 
L 273.623256 -73.035061 
L 275.666356 -73.649113 
L 277.709457 -74.832848 
L 279.752558 -74.461628 
L 281.795659 -74.303331 
L 283.838759 -74.675154 
L 285.88186 -76.073141 
L 287.924961 -76.532598 
L 289.968062 -76.93204 
L 292.011162 -76.967442 
L 294.054263 -77.695766 
L 296.097364 -78.122453 
L 298.140464 -78.979234 
L 300.183565 -79.006353 
L 302.226666 -79.288902 
L 304.269767 -79.972852 
L 306.312867 -82.0705 
L 308.355968 -81.889826 
L 310.399069 -81.858044 
L 312.44217 -82.046303 
L 314.48527 -82.275082 
L 316.528371 -82.969792 
L 318.571472 -82.196627 
L 320.614573 -81.790153 
L 322.657673 -80.947872 
L 324.700774 -80.38636 
L 326.743875 -80.904787 
L 328.786976 -81.428652 
L 330.830076 -82.164797 
L 332.873177 -82.29422 
L 334.916278 -82.342587 
L 336.959379 -81.877623 
L 339.002479 -82.063578 
L 341.04558 -81.353882 
L 343.088681 -81.036959 
L 345.131782 -80.998603 
L 347.174882 -80.54999 
L 349.217983 -80.112086 
L 351.261084 -80.795242 
L 353.304185 -79.500829 
L 355.347285 -78.454953 
L 357.390386 -77.679185 
L 359.433487 -77.465466 
L 361.476588 -76.800283 
L 363.519688 -74.893366 
L 365.562789 -73.976999 
L 367.60589 -74.148887 
L 369.64899 -73.713748 
L 371.692091 -73.044986 
L 373.735192 -73.140033 
L 375.778293 -72.302161 
L 377.821393 -72.060216 
L 379.864494 -71.433788 
L 381.907595 -70.384514 
L 383.950696 -69.942494 
L 385.993796 -69.730334 
L 388.036897 -70.273583 
L 390.079998 -69.768756 
L 392.123099 -69.499059 
L 394.166199 -69.346394 
L 396.2093 -69.078312 
L 398.252401 -68.533171 
L 400.295502 -68.215997 
L 402.338602 -68.073999 
L 404.381703 -67.842254 
L 406.424804 -67.905245 
L 408.467905 -67.677119 
L 410.511005 -67.411634 
L 412.554106 -67.173537 
L 414.597207 -66.841875 
L 416.640308 -67.024935 
L 418.683408 -66.918044 
L 420.726509 -67.135197 
L 422.76961 -67.303107 
L 424.812711 -66.699977 
L 426.855811 -66.997741 
L 428.898912 -66.909313 
L 430.942013 -66.809944 
L 432.985114 -66.494144 
L 435.028214 -66.536659 
L 435.028214 -312.194178 
L 435.028214 -312.194178 
L 432.985114 -309.9034 
L 430.942013 -317.889665 
L 428.898912 -310.21187 
L 426.855811 -314.324371 
L 424.812711 -312.628404 
L 422.76961 -309.942484 
L 420.726509 -312.794623 
L 418.683408 -311.602168 
L 416.640308 -309.535173 
L 414.597207 -310.79669 
L 412.554106 -320.709993 
L 410.511005 -325.151008 
L 408.467905 -321.354891 
L 406.424804 -316.866602 
L 404.381703 -317.519602 
L 402.338602 -329.650534 
L 400.295502 -328.031107 
L 398.252401 -332.737109 
L 396.2093 -330.900044 
L 394.166199 -330.900329 
L 392.123099 -336.501543 
L 390.079998 -344.499836 
L 388.036897 -339.425675 
L 385.993796 -346.11177 
L 383.950696 -341.259313 
L 381.907595 -339.5581 
L 379.864494 -343.987437 
L 377.821393 -342.097959 
L 375.778293 -338.1216 
L 373.735192 -343.116089 
L 371.692091 -339.041589 
L 369.64899 -338.795806 
L 367.60589 -350.353874 
L 365.562789 -339.533256 
L 363.519688 -337.003293 
L 361.476588 -343.899814 
L 359.433487 -344.244916 
L 357.390386 -349.752934 
L 355.347285 -359.219332 
L 353.304185 -357.661003 
L 351.261084 -376.014785 
L 349.217983 -369.779949 
L 347.174882 -366.407812 
L 345.131782 -368.24072 
L 343.088681 -356.019684 
L 341.04558 -348.308325 
L 339.002479 -339.327322 
L 336.959379 -336.666949 
L 334.916278 -328.556854 
L 332.873177 -325.664656 
L 330.830076 -318.160119 
L 328.786976 -307.892193 
L 326.743875 -304.884128 
L 324.700774 -290.969248 
L 322.657673 -287.95557 
L 320.614573 -279.454184 
L 318.571472 -275.70937 
L 316.528371 -273.713554 
L 314.48527 -262.213112 
L 312.44217 -249.544821 
L 310.399069 -237.805353 
L 308.355968 -235.577955 
L 306.312867 -221.770276 
L 304.269767 -202.760704 
L 302.226666 -191.913352 
L 300.183565 -184.13183 
L 298.140464 -178.417519 
L 296.097364 -168.013899 
L 294.054263 -160.09013 
L 292.011162 -154.845782 
L 289.968062 -148.310192 
L 287.924961 -140.630696 
L 285.88186 -132.331556 
L 283.838759 -126.068288 
L 281.795659 -121.826344 
L 279.752558 -118.58718 
L 277.709457 -115.492593 
L 275.666356 -110.585636 
L 273.623256 -108.946619 
L 271.580155 -104.607529 
L 269.537054 -100.333669 
L 267.493953 -97.964782 
L 265.450853 -99.573111 
L 263.407752 -101.466682 
L 261.364651 -104.604559 
L 259.32155 -109.416226 
L 257.27845 -112.230352 
L 255.235349 -118.971988 
L 253.192248 -123.5578 
L 251.149147 -128.02041 
L 249.106047 -121.621784 
L 247.062946 -115.76726 
L 245.019845 -113.206105 
L 242.976744 -118.208968 
L 240.933644 -130.72738 
L 238.890543 -149.812869 
L 236.847442 -162.814299 
L 234.804341 -157.11191 
L 232.761241 -172.121312 
L 230.71814 -175.343753 
L 228.675039 -185.46053 
L 226.631938 -183.757443 
L 224.588838 -173.928323 
L 222.545737 -163.63656 
L 220.502636 -158.716068 
L 218.459536 -153.306543 
L 216.416435 -145.818144 
L 214.373334 -134.437355 
L 212.330233 -133.536022 
L 210.287133 -134.013555 
L 208.244032 -142.41242 
L 206.200931 -143.527686 
L 204.15783 -156.390026 
L 202.11473 -179.572574 
L 200.071629 -197.675699 
L 198.028528 -215.844382 
L 195.985427 -240.545113 
L 193.942327 -269.906816 
L 191.899226 -281.276827 
L 189.856125 -291.441105 
L 187.813024 -279.39096 
L 185.769924 -268.711293 
L 183.726823 -257.001126 
L 181.683722 -254.639677 
L 179.640621 -250.313935 
L 177.597521 -246.164874 
L 175.55442 -235.47681 
L 173.511319 -228.483741 
L 171.468218 -224.848578 
L 169.425118 -230.090345 
L 167.382017 -225.44235 
L 165.338916 -225.471268 
L 163.295815 -230.09441 
L 161.252715 -233.260294 
L 159.209614 -237.893266 
L 157.166513 -239.283937 
L 155.123412 -227.527101 
L 153.080312 -224.063998 
L 151.037211 -225.77194 
L 148.99411 -225.182599 
L 146.95101 -231.898862 
L 144.907909 -238.576078 
L 142.864808 -235.879365 
L 140.821707 -240.06468 
L 138.778607 -235.756473 
L 136.735506 -234.235204 
L 134.692405 -236.124229 
L 132.649304 -230.175586 
L 130.606204 -219.394351 
L 128.563103 -210.942129 
L 126.520002 -199.994419 
L 124.476901 -185.142748 
L 122.433801 -177.203148 
L 120.3907 -168.218547 
L 118.347599 -159.049998 
L 116.304498 -151.902813 
L 114.261398 -147.743655 
L 112.218297 -146.951908 
L 110.175196 -144.959976 
L 108.132095 -145.754454 
L 106.088995 -149.168059 
L 104.045894 -154.985975 
L 102.002793 -164.71983 
L 99.959692 -176.574022 
L 97.916592 -190.694965 
L 95.873491 -210.211063 
L 93.83039 -236.153257 
L 91.787289 -260.495377 
L 89.744189 -296.801782 
L 87.701088 -346.015598 
L 85.657987 -392.648541 
L 83.614886 -416.458611 
L 81.571786 -425.566388 
z
" style="stroke: #1f77b4; stroke-opacity: 0.3"/>
    </defs>
    <g clip-path="url(#p6c67dee18b)">
     <use xlink:href="#mfeb6a51a7c" x="0" y="504" style="fill: #1f77b4; fill-opacity: 0.3; stroke: #1f77b4; stroke-opacity: 0.3"/>
    </g>
   </g>
   <g id="matplotlib.axis_1">
    <g id="xtick_1">
     <g id="line2d_1">
      <defs>
       <path id="me411cbd50a" d="M 0 0 
L 0 3.5 
" style="stroke: #000000; stroke-width: 0.8"/>
      </defs>
      <g>
       <use xlink:href="#me411cbd50a" x="91.787289" y="448.56" style="stroke: #000000; stroke-width: 0.8"/>
      </g>
     </g>
     <g id="text_1">
      <text style="font-size: 16px; font-family: 'Arial', sans-serif; text-anchor: middle" x="91.787289" y="467.0125" transform="rotate(-0 91.787289 467.0125)">1 Jul</text>
     </g>
    </g>
    <g id="xtick_2">
     <g id="line2d_2">
      <g>
       <use xlink:href="#me411cbd50a" x="155.123412" y="448.56" style="stroke: #000000; stroke-width: 0.8"/>
      </g>
     </g>
     <g id="text_2">
      <text style="font-size: 16px; font-family: 'Arial', sans-serif; text-anchor: middle" x="155.123412" y="467.06" transform="rotate(-0 155.123412 467.06)">1 Aug</text>
     </g>
    </g>
    <g id="xtick_3">
     <g id="line2d_3">
      <g>
       <use xlink:href="#me411cbd50a" x="218.459536" y="448.56" style="stroke: #000000; stroke-width: 0.8"/>
      </g>
     </g>
     <g id="text_3">
      <text style="font-size: 16px; font-family: 'Arial', sans-serif; text-anchor: middle" x="218.459536" y="467.2075" transform="rotate(-0 218.459536 467.2075)">1 Sep</text>
     </g>
    </g>
    <g id="xtick_4">
     <g id="line2d_4">
      <g>
       <use xlink:href="#me411cbd50a" x="279.752558" y="448.56" style="stroke: #000000; stroke-width: 0.8"/>
      </g>
     </g>
     <g id="text_4">
      <text style="font-size: 16px; font-family: 'Arial', sans-serif; text-anchor: middle" x="279.752558" y="467.0125" transform="rotate(-0 279.752558 467.0125)">1 Oct</text>
     </g>
    </g>
    <g id="xtick_5">
     <g id="line2d_5">
      <g>
       <use xlink:href="#me411cbd50a" x="343.088681" y="448.56" style="stroke: #000000; stroke-width: 0.8"/>
      </g>
     </g>
     <g id="text_5">
      <text style="font-size: 16px; font-family: 'Arial', sans-serif; text-anchor: middle" x="343.088681" y="467.0125" transform="rotate(-0 343.088681 467.0125)">1 Nov</text>
     </g>
    </g>
    <g id="xtick_6">
     <g id="line2d_6">
      <g>
       <use xlink:href="#me411cbd50a" x="404.381703" y="448.56" style="stroke: #000000; stroke-width: 0.8"/>
      </g>
     </g>
     <g id="text_6">
      <text style="font-size: 16px; font-family: 'Arial', sans-serif; text-anchor: middle" x="404.381703" y="467.0125" transform="rotate(-0 404.381703 467.0125)">1 Dec</text>
     </g>
    </g>
   </g>
   <g id="matplotlib.axis_2">
    <g id="ytick_1">
     <g id="line2d_7">
      <defs>
       <path id="m276a57abca" d="M 0 0 
L -3.5 0 
" style="stroke: #000000; stroke-width: 0.8"/>
      </defs>
      <g>
       <use xlink:href="#m276a57abca" x="63" y="448.56" style="stroke: #000000; stroke-width: 0.8"/>
      </g>
     </g>
     <g id="text_7">
      <text style="font-size: 16px; font-family: 'Arial', sans-serif; text-anchor: end" x="56" y="454.28625" transform="rotate(-0 56 454.28625)">0</text>
     </g>
    </g>
    <g id="ytick_2">
     <g id="line2d_8">
      <g>
       <use xlink:href="#m276a57abca" x="63" y="404.394468" style="stroke: #000000; stroke-width: 0.8"/>
      </g>
     </g>
     <g id="text_8">
      <text style="font-size: 16px; font-family: 'Arial', sans-serif; text-anchor: end" x="56" y="410.120718" transform="rotate(-0 56 410.120718)">1</text>
     </g>
    </g>
    <g id="ytick_3">
     <g id="line2d_9">
      <g>
       <use xlink:href="#m276a57abca" x="63" y="360.228936" style="stroke: #000000; stroke-width: 0.8"/>
      </g>
     </g>
     <g id="text_9">
      <text style="font-size: 16px; font-family: 'Arial', sans-serif; text-anchor: end" x="56" y="365.955186" transform="rotate(-0 56 365.955186)">2</text>
     </g>
    </g>
    <g id="ytick_4">
     <g id="line2d_10">
      <g>
       <use xlink:href="#m276a57abca" x="63" y="316.063405" style="stroke: #000000; stroke-width: 0.8"/>
      </g>
     </g>
     <g id="text_10">
      <text style="font-size: 16px; font-family: 'Arial', sans-serif; text-anchor: end" x="56" y="321.789655" transform="rotate(-0 56 321.789655)">3</text>
     </g>
    </g>
    <g id="ytick_5">
     <g id="line2d_11">
      <g>
       <use xlink:href="#m276a57abca" x="63" y="271.897873" style="stroke: #000000; stroke-width: 0.8"/>
      </g>
     </g>
     <g id="text_11">
      <text style="font-size: 16px; font-family: 'Arial', sans-serif; text-anchor: end" x="56" y="277.624123" transform="rotate(-0 56 277.624123)">4</text>
     </g>
    </g>
    <g id="ytick_6">
     <g id="line2d_12">
      <g>
       <use xlink:href="#m276a57abca" x="63" y="227.732341" style="stroke: #000000; stroke-width: 0.8"/>
      </g>
     </g>
     <g id="text_12">
      <text style="font-size: 16px; font-family: 'Arial', sans-serif; text-anchor: end" x="56" y="233.458591" transform="rotate(-0 56 233.458591)">5</text>
     </g>
    </g>
    <g id="ytick_7">
     <g id="line2d_13">
      <g>
       <use xlink:href="#m276a57abca" x="63" y="183.566809" style="stroke: #000000; stroke-width: 0.8"/>
      </g>
     </g>
     <g id="text_13">
      <text style="font-size: 16px; font-family: 'Arial', sans-serif; text-anchor: end" x="56" y="189.293059" transform="rotate(-0 56 189.293059)">6</text>
     </g>
    </g>
    <g id="ytick_8">
     <g id="line2d_14">
      <g>
       <use xlink:href="#m276a57abca" x="63" y="139.401277" style="stroke: #000000; stroke-width: 0.8"/>
      </g>
     </g>
     <g id="text_14">
      <text style="font-size: 16px; font-family: 'Arial', sans-serif; text-anchor: end" x="56" y="145.127527" transform="rotate(-0 56 145.127527)">7</text>
     </g>
    </g>
    <g id="ytick_9">
     <g id="line2d_15">
      <g>
       <use xlink:href="#m276a57abca" x="63" y="95.235746" style="stroke: #000000; stroke-width: 0.8"/>
      </g>
     </g>
     <g id="text_15">
      <text style="font-size: 16px; font-family: 'Arial', sans-serif; text-anchor: end" x="56" y="100.961996" transform="rotate(-0 56 100.961996)">8</text>
     </g>
    </g>
    <g id="text_16">
     <text style="font-size: 16px; font-family: 'Arial', sans-serif; text-anchor: middle" x="39.735" y="254.52" transform="rotate(-90 39.735 254.52)">Reproduction number scaling factor</text>
    </g>
   </g>
   <g id="line2d_16">
    <path d="M 81.571786 312.291378 
L 83.614886 310.622809 
L 85.657987 317.299543 
L 89.744189 346.236569 
L 91.787289 357.963709 
L 93.83039 367.589519 
L 95.873491 376.01548 
L 97.916592 382.726278 
L 99.959692 387.742791 
L 102.002793 393.432995 
L 104.045894 397.423813 
L 106.088995 400.055938 
L 108.132095 401.277663 
L 110.175196 401.60323 
L 112.218297 400.837744 
L 114.261398 399.324519 
L 116.304498 396.887696 
L 118.347599 393.745947 
L 120.3907 389.122611 
L 122.433801 385.148509 
L 124.476901 380.643133 
L 126.520002 374.86849 
L 128.563103 370.256852 
L 130.606204 364.441072 
L 134.692405 355.835041 
L 136.735506 354.036261 
L 138.778607 350.6748 
L 140.821707 349.769692 
L 142.864808 350.526954 
L 144.907909 349.753731 
L 146.95101 350.199065 
L 148.99411 352.342294 
L 153.080312 351.28999 
L 155.123412 348.013598 
L 157.166513 341.023272 
L 159.209614 340.308126 
L 161.252715 342.586407 
L 163.295815 343.924748 
L 165.338916 344.295093 
L 167.382017 343.767083 
L 169.425118 341.517342 
L 171.468218 344.333011 
L 173.511319 341.401599 
L 175.55442 336.26858 
L 177.597521 325.869513 
L 179.640621 321.6464 
L 183.726823 314.923743 
L 185.769924 305.0823 
L 187.813024 296.306371 
L 189.856125 285.302446 
L 191.899226 292.208383 
L 193.942327 300.097695 
L 195.985427 320.549282 
L 198.028528 338.365446 
L 202.11473 363.581094 
L 204.15783 379.680831 
L 206.200931 387.711772 
L 208.244032 388.246964 
L 210.287133 394.327454 
L 212.330233 394.751669 
L 214.373334 393.175408 
L 216.416435 384.248526 
L 218.459536 378.696828 
L 220.502636 374.466623 
L 222.545737 370.786863 
L 224.588838 363.086401 
L 226.631938 354.902043 
L 228.675039 354.555422 
L 230.71814 362.585583 
L 232.761241 365.302998 
L 234.804341 376.174134 
L 236.847442 371.361885 
L 238.890543 381.795954 
L 240.933644 395.731227 
L 242.976744 403.961007 
L 245.019845 408.224706 
L 247.062946 406.888705 
L 249.106047 402.401811 
L 251.149147 397.334809 
L 253.192248 401.448493 
L 255.235349 403.923699 
L 257.27845 409.158123 
L 259.32155 412.462861 
L 261.364651 416.256134 
L 263.407752 418.99227 
L 265.450853 420.784908 
L 267.493953 421.735881 
L 269.537054 420.641676 
L 271.580155 418.651152 
L 273.623256 416.319208 
L 275.666356 415.112194 
L 277.709457 412.664178 
L 279.752558 411.799065 
L 281.795659 411.593427 
L 283.838759 409.600818 
L 287.924961 402.494168 
L 289.968062 400.157889 
L 292.011162 398.428678 
L 294.054263 395.490102 
L 296.097364 393.070205 
L 298.140464 389.88329 
L 300.183565 387.634284 
L 302.226666 384.059363 
L 304.269767 379.915156 
L 306.312867 374.259108 
L 308.355968 370.758074 
L 310.399069 369.368048 
L 312.44217 367.391875 
L 314.48527 364.774824 
L 316.528371 361.41363 
L 318.571472 361.2872 
L 320.614573 360.272243 
L 324.700774 357.051417 
L 326.743875 354.372672 
L 328.786976 352.349474 
L 330.830076 349.768629 
L 334.916278 345.466829 
L 336.959379 342.441475 
L 339.002479 342.04385 
L 341.04558 341.01484 
L 343.088681 340.288659 
L 347.174882 338.195666 
L 349.217983 337.454253 
L 351.261084 336.241997 
L 353.304185 339.646057 
L 357.390386 344.895782 
L 363.519688 349.956082 
L 365.562789 350.924175 
L 367.60589 351.763896 
L 369.64899 353.943492 
L 371.692091 355.274926 
L 375.778293 356.794795 
L 377.821393 357.863635 
L 379.864494 359.13416 
L 381.907595 360.064321 
L 383.950696 361.223388 
L 385.993796 361.425498 
L 388.036897 362.244091 
L 390.079998 362.915593 
L 392.123099 363.390337 
L 394.166199 364.002483 
L 396.2093 364.038071 
L 398.252401 364.953228 
L 400.295502 366.137358 
L 402.338602 366.535495 
L 404.381703 367.093139 
L 406.424804 367.347379 
L 408.467905 368.097973 
L 410.511005 368.360731 
L 412.554106 369.295551 
L 414.597207 369.818421 
L 416.640308 370.754087 
L 418.683408 370.910862 
L 422.76961 372.645772 
L 424.812711 372.822621 
L 426.855811 373.209446 
L 430.942013 373.569574 
L 432.985114 373.917868 
L 435.028214 374.099706 
L 435.028214 374.099706 
" clip-path="url(#p6c67dee18b)" style="fill: none; stroke: #1f77b4; stroke-width: 2; stroke-linecap: square"/>
   </g>
   <g id="patch_3">
    <path d="M 63 448.56 
L 63 60.48 
" style="fill: none; stroke: #000000; stroke-width: 0.8; stroke-linejoin: miter; stroke-linecap: square"/>
   </g>
   <g id="patch_4">
    <path d="M 63 448.56 
L 453.6 448.56 
" style="fill: none; stroke: #000000; stroke-width: 0.8; stroke-linejoin: miter; stroke-linecap: square"/>
   </g>
  </g>
  <g id="axes_2">
   <g id="patch_5">
    <path d="M 80.754545 448.56 
L 82.389026 448.56 
L 82.389026 396.816 
L 80.754545 396.816 
z
" clip-path="url(#p6c67dee18b)" style="fill: #7f7f7f; opacity: 0.5"/>
   </g>
   <g id="patch_6">
    <path d="M 82.797646 448.56 
L 84.432127 448.56 
L 84.432127 396.816 
L 82.797646 396.816 
z
" clip-path="url(#p6c67dee18b)" style="fill: #7f7f7f; opacity: 0.5"/>
   </g>
   <g id="patch_7">
    <path d="M 84.840747 448.56 
L 86.475228 448.56 
L 86.475228 396.816 
L 84.840747 396.816 
z
" clip-path="url(#p6c67dee18b)" style="fill: #7f7f7f; opacity: 0.5"/>
   </g>
   <g id="patch_8">
    <path d="M 86.883848 448.56 
L 88.518328 448.56 
L 88.518328 448.56 
L 86.883848 448.56 
z
" clip-path="url(#p6c67dee18b)" style="fill: #7f7f7f; opacity: 0.5"/>
   </g>
   <g id="patch_9">
    <path d="M 88.926948 448.56 
L 90.561429 448.56 
L 90.561429 448.56 
L 88.926948 448.56 
z
" clip-path="url(#p6c67dee18b)" style="fill: #7f7f7f; opacity: 0.5"/>
   </g>
   <g id="patch_10">
    <path d="M 90.970049 448.56 
L 92.60453 448.56 
L 92.60453 448.56 
L 90.970049 448.56 
z
" clip-path="url(#p6c67dee18b)" style="fill: #7f7f7f; opacity: 0.5"/>
   </g>
   <g id="patch_11">
    <path d="M 93.01315 448.56 
L 94.647631 448.56 
L 94.647631 448.56 
L 93.01315 448.56 
z
" clip-path="url(#p6c67dee18b)" style="fill: #7f7f7f; opacity: 0.5"/>
   </g>
   <g id="patch_12">
    <path d="M 95.056251 448.56 
L 96.690731 448.56 
L 96.690731 448.56 
L 95.056251 448.56 
z
" clip-path="url(#p6c67dee18b)" style="fill: #7f7f7f; opacity: 0.5"/>
   </g>
   <g id="patch_13">
    <path d="M 97.099351 448.56 
L 98.733832 448.56 
L 98.733832 448.56 
L 97.099351 448.56 
z
" clip-path="url(#p6c67dee18b)" style="fill: #7f7f7f; opacity: 0.5"/>
   </g>
   <g id="patch_14">
    <path d="M 99.142452 448.56 
L 100.776933 448.56 
L 100.776933 422.688 
L 99.142452 422.688 
z
" clip-path="url(#p6c67dee18b)" style="fill: #7f7f7f; opacity: 0.5"/>
   </g>
   <g id="patch_15">
    <path d="M 101.185553 448.56 
L 102.820033 448.56 
L 102.820033 448.56 
L 101.185553 448.56 
z
" clip-path="url(#p6c67dee18b)" style="fill: #7f7f7f; opacity: 0.5"/>
   </g>
   <g id="patch_16">
    <path d="M 103.228654 448.56 
L 104.863134 448.56 
L 104.863134 448.56 
L 103.228654 448.56 
z
" clip-path="url(#p6c67dee18b)" style="fill: #7f7f7f; opacity: 0.5"/>
   </g>
   <g id="patch_17">
    <path d="M 105.271754 448.56 
L 106.906235 448.56 
L 106.906235 448.56 
L 105.271754 448.56 
z
" clip-path="url(#p6c67dee18b)" style="fill: #7f7f7f; opacity: 0.5"/>
   </g>
   <g id="patch_18">
    <path d="M 107.314855 448.56 
L 108.949336 448.56 
L 108.949336 448.56 
L 107.314855 448.56 
z
" clip-path="url(#p6c67dee18b)" style="fill: #7f7f7f; opacity: 0.5"/>
   </g>
   <g id="patch_19">
    <path d="M 109.357956 448.56 
L 110.992436 448.56 
L 110.992436 448.56 
L 109.357956 448.56 
z
" clip-path="url(#p6c67dee18b)" style="fill: #7f7f7f; opacity: 0.5"/>
   </g>
   <g id="patch_20">
    <path d="M 111.401057 448.56 
L 113.035537 448.56 
L 113.035537 448.56 
L 111.401057 448.56 
z
" clip-path="url(#p6c67dee18b)" style="fill: #7f7f7f; opacity: 0.5"/>
   </g>
   <g id="patch_21">
    <path d="M 113.444157 448.56 
L 115.078638 448.56 
L 115.078638 448.56 
L 113.444157 448.56 
z
" clip-path="url(#p6c67dee18b)" style="fill: #7f7f7f; opacity: 0.5"/>
   </g>
   <g id="patch_22">
    <path d="M 115.487258 448.56 
L 117.121739 448.56 
L 117.121739 448.56 
L 115.487258 448.56 
z
" clip-path="url(#p6c67dee18b)" style="fill: #7f7f7f; opacity: 0.5"/>
   </g>
   <g id="patch_23">
    <path d="M 117.530359 448.56 
L 119.164839 448.56 
L 119.164839 448.56 
L 117.530359 448.56 
z
" clip-path="url(#p6c67dee18b)" style="fill: #7f7f7f; opacity: 0.5"/>
   </g>
   <g id="patch_24">
    <path d="M 119.57346 448.56 
L 121.20794 448.56 
L 121.20794 422.688 
L 119.57346 422.688 
z
" clip-path="url(#p6c67dee18b)" style="fill: #7f7f7f; opacity: 0.5"/>
   </g>
   <g id="patch_25">
    <path d="M 121.61656 448.56 
L 123.251041 448.56 
L 123.251041 448.56 
L 121.61656 448.56 
z
" clip-path="url(#p6c67dee18b)" style="fill: #7f7f7f; opacity: 0.5"/>
   </g>
   <g id="patch_26">
    <path d="M 123.659661 448.56 
L 125.294142 448.56 
L 125.294142 448.56 
L 123.659661 448.56 
z
" clip-path="url(#p6c67dee18b)" style="fill: #7f7f7f; opacity: 0.5"/>
   </g>
   <g id="patch_27">
    <path d="M 125.702762 448.56 
L 127.337242 448.56 
L 127.337242 422.688 
L 125.702762 422.688 
z
" clip-path="url(#p6c67dee18b)" style="fill: #7f7f7f; opacity: 0.5"/>
   </g>
   <g id="patch_28">
    <path d="M 127.745863 448.56 
L 129.380343 448.56 
L 129.380343 448.56 
L 127.745863 448.56 
z
" clip-path="url(#p6c67dee18b)" style="fill: #7f7f7f; opacity: 0.5"/>
   </g>
   <g id="patch_29">
    <path d="M 129.788963 448.56 
L 131.423444 448.56 
L 131.423444 422.688 
L 129.788963 422.688 
z
" clip-path="url(#p6c67dee18b)" style="fill: #7f7f7f; opacity: 0.5"/>
   </g>
   <g id="patch_30">
    <path d="M 131.832064 448.56 
L 133.466545 448.56 
L 133.466545 448.56 
L 131.832064 448.56 
z
" clip-path="url(#p6c67dee18b)" style="fill: #7f7f7f; opacity: 0.5"/>
   </g>
   <g id="patch_31">
    <path d="M 133.875165 448.56 
L 135.509645 448.56 
L 135.509645 422.688 
L 133.875165 422.688 
z
" clip-path="url(#p6c67dee18b)" style="fill: #7f7f7f; opacity: 0.5"/>
   </g>
   <g id="patch_32">
    <path d="M 135.918266 448.56 
L 137.552746 448.56 
L 137.552746 448.56 
L 135.918266 448.56 
z
" clip-path="url(#p6c67dee18b)" style="fill: #7f7f7f; opacity: 0.5"/>
   </g>
   <g id="patch_33">
    <path d="M 137.961366 448.56 
L 139.595847 448.56 
L 139.595847 422.688 
L 137.961366 422.688 
z
" clip-path="url(#p6c67dee18b)" style="fill: #7f7f7f; opacity: 0.5"/>
   </g>
   <g id="patch_34">
    <path d="M 140.004467 448.56 
L 141.638948 448.56 
L 141.638948 422.688 
L 140.004467 422.688 
z
" clip-path="url(#p6c67dee18b)" style="fill: #7f7f7f; opacity: 0.5"/>
   </g>
   <g id="patch_35">
    <path d="M 142.047568 448.56 
L 143.682048 448.56 
L 143.682048 448.56 
L 142.047568 448.56 
z
" clip-path="url(#p6c67dee18b)" style="fill: #7f7f7f; opacity: 0.5"/>
   </g>
   <g id="patch_36">
    <path d="M 144.090668 448.56 
L 145.725149 448.56 
L 145.725149 422.688 
L 144.090668 422.688 
z
" clip-path="url(#p6c67dee18b)" style="fill: #7f7f7f; opacity: 0.5"/>
   </g>
   <g id="patch_37">
    <path d="M 146.133769 448.56 
L 147.76825 448.56 
L 147.76825 422.688 
L 146.133769 422.688 
z
" clip-path="url(#p6c67dee18b)" style="fill: #7f7f7f; opacity: 0.5"/>
   </g>
   <g id="patch_38">
    <path d="M 148.17687 448.56 
L 149.811351 448.56 
L 149.811351 448.56 
L 148.17687 448.56 
z
" clip-path="url(#p6c67dee18b)" style="fill: #7f7f7f; opacity: 0.5"/>
   </g>
   <g id="patch_39">
    <path d="M 150.219971 448.56 
L 151.854451 448.56 
L 151.854451 422.688 
L 150.219971 422.688 
z
" clip-path="url(#p6c67dee18b)" style="fill: #7f7f7f; opacity: 0.5"/>
   </g>
   <g id="patch_40">
    <path d="M 152.263071 448.56 
L 153.897552 448.56 
L 153.897552 448.56 
L 152.263071 448.56 
z
" clip-path="url(#p6c67dee18b)" style="fill: #7f7f7f; opacity: 0.5"/>
   </g>
   <g id="patch_41">
    <path d="M 154.306172 448.56 
L 155.940653 448.56 
L 155.940653 448.56 
L 154.306172 448.56 
z
" clip-path="url(#p6c67dee18b)" style="fill: #7f7f7f; opacity: 0.5"/>
   </g>
   <g id="patch_42">
    <path d="M 156.349273 448.56 
L 157.983754 448.56 
L 157.983754 370.944 
L 156.349273 370.944 
z
" clip-path="url(#p6c67dee18b)" style="fill: #7f7f7f; opacity: 0.5"/>
   </g>
   <g id="patch_43">
    <path d="M 158.392374 448.56 
L 160.026854 448.56 
L 160.026854 396.816 
L 158.392374 396.816 
z
" clip-path="url(#p6c67dee18b)" style="fill: #7f7f7f; opacity: 0.5"/>
   </g>
   <g id="patch_44">
    <path d="M 160.435474 448.56 
L 162.069955 448.56 
L 162.069955 422.688 
L 160.435474 422.688 
z
" clip-path="url(#p6c67dee18b)" style="fill: #7f7f7f; opacity: 0.5"/>
   </g>
   <g id="patch_45">
    <path d="M 162.478575 448.56 
L 164.113056 448.56 
L 164.113056 422.688 
L 162.478575 422.688 
z
" clip-path="url(#p6c67dee18b)" style="fill: #7f7f7f; opacity: 0.5"/>
   </g>
   <g id="patch_46">
    <path d="M 164.521676 448.56 
L 166.156157 448.56 
L 166.156157 422.688 
L 164.521676 422.688 
z
" clip-path="url(#p6c67dee18b)" style="fill: #7f7f7f; opacity: 0.5"/>
   </g>
   <g id="patch_47">
    <path d="M 166.564777 448.56 
L 168.199257 448.56 
L 168.199257 422.688 
L 166.564777 422.688 
z
" clip-path="url(#p6c67dee18b)" style="fill: #7f7f7f; opacity: 0.5"/>
   </g>
   <g id="patch_48">
    <path d="M 168.607877 448.56 
L 170.242358 448.56 
L 170.242358 370.944 
L 168.607877 370.944 
z
" clip-path="url(#p6c67dee18b)" style="fill: #7f7f7f; opacity: 0.5"/>
   </g>
   <g id="patch_49">
    <path d="M 170.650978 448.56 
L 172.285459 448.56 
L 172.285459 448.56 
L 170.650978 448.56 
z
" clip-path="url(#p6c67dee18b)" style="fill: #7f7f7f; opacity: 0.5"/>
   </g>
   <g id="patch_50">
    <path d="M 172.694079 448.56 
L 174.328559 448.56 
L 174.328559 422.688 
L 172.694079 422.688 
z
" clip-path="url(#p6c67dee18b)" style="fill: #7f7f7f; opacity: 0.5"/>
   </g>
   <g id="patch_51">
    <path d="M 174.73718 448.56 
L 176.37166 448.56 
L 176.37166 422.688 
L 174.73718 422.688 
z
" clip-path="url(#p6c67dee18b)" style="fill: #7f7f7f; opacity: 0.5"/>
   </g>
   <g id="patch_52">
    <path d="M 176.78028 448.56 
L 178.414761 448.56 
L 178.414761 345.072 
L 176.78028 345.072 
z
" clip-path="url(#p6c67dee18b)" style="fill: #7f7f7f; opacity: 0.5"/>
   </g>
   <g id="patch_53">
    <path d="M 178.823381 448.56 
L 180.457862 448.56 
L 180.457862 370.944 
L 178.823381 370.944 
z
" clip-path="url(#p6c67dee18b)" style="fill: #7f7f7f; opacity: 0.5"/>
   </g>
   <g id="patch_54">
    <path d="M 180.866482 448.56 
L 182.500962 448.56 
L 182.500962 370.944 
L 180.866482 370.944 
z
" clip-path="url(#p6c67dee18b)" style="fill: #7f7f7f; opacity: 0.5"/>
   </g>
   <g id="patch_55">
    <path d="M 182.909583 448.56 
L 184.544063 448.56 
L 184.544063 396.816 
L 182.909583 396.816 
z
" clip-path="url(#p6c67dee18b)" style="fill: #7f7f7f; opacity: 0.5"/>
   </g>
   <g id="patch_56">
    <path d="M 184.952683 448.56 
L 186.587164 448.56 
L 186.587164 345.072 
L 184.952683 345.072 
z
" clip-path="url(#p6c67dee18b)" style="fill: #7f7f7f; opacity: 0.5"/>
   </g>
   <g id="patch_57">
    <path d="M 186.995784 448.56 
L 188.630265 448.56 
L 188.630265 345.072 
L 186.995784 345.072 
z
" clip-path="url(#p6c67dee18b)" style="fill: #7f7f7f; opacity: 0.5"/>
   </g>
   <g id="patch_58">
    <path d="M 189.038885 448.56 
L 190.673365 448.56 
L 190.673365 241.584 
L 189.038885 241.584 
z
" clip-path="url(#p6c67dee18b)" style="fill: #7f7f7f; opacity: 0.5"/>
   </g>
   <g id="patch_59">
    <path d="M 191.081986 448.56 
L 192.716466 448.56 
L 192.716466 319.2 
L 191.081986 319.2 
z
" clip-path="url(#p6c67dee18b)" style="fill: #7f7f7f; opacity: 0.5"/>
   </g>
   <g id="patch_60">
    <path d="M 193.125086 448.56 
L 194.759567 448.56 
L 194.759567 241.584 
L 193.125086 241.584 
z
" clip-path="url(#p6c67dee18b)" style="fill: #7f7f7f; opacity: 0.5"/>
   </g>
   <g id="patch_61">
    <path d="M 195.168187 448.56 
L 196.802668 448.56 
L 196.802668 319.2 
L 195.168187 319.2 
z
" clip-path="url(#p6c67dee18b)" style="fill: #7f7f7f; opacity: 0.5"/>
   </g>
   <g id="patch_62">
    <path d="M 197.211288 448.56 
L 198.845768 448.56 
L 198.845768 345.072 
L 197.211288 345.072 
z
" clip-path="url(#p6c67dee18b)" style="fill: #7f7f7f; opacity: 0.5"/>
   </g>
   <g id="patch_63">
    <path d="M 199.254389 448.56 
L 200.888869 448.56 
L 200.888869 319.2 
L 199.254389 319.2 
z
" clip-path="url(#p6c67dee18b)" style="fill: #7f7f7f; opacity: 0.5"/>
   </g>
   <g id="patch_64">
    <path d="M 201.297489 448.56 
L 202.93197 448.56 
L 202.93197 267.456 
L 201.297489 267.456 
z
" clip-path="url(#p6c67dee18b)" style="fill: #7f7f7f; opacity: 0.5"/>
   </g>
   <g id="patch_65">
    <path d="M 203.34059 448.56 
L 204.975071 448.56 
L 204.975071 396.816 
L 203.34059 396.816 
z
" clip-path="url(#p6c67dee18b)" style="fill: #7f7f7f; opacity: 0.5"/>
   </g>
   <g id="patch_66">
    <path d="M 205.383691 448.56 
L 207.018171 448.56 
L 207.018171 422.688 
L 205.383691 422.688 
z
" clip-path="url(#p6c67dee18b)" style="fill: #7f7f7f; opacity: 0.5"/>
   </g>
   <g id="patch_67">
    <path d="M 207.426792 448.56 
L 209.061272 448.56 
L 209.061272 241.584 
L 207.426792 241.584 
z
" clip-path="url(#p6c67dee18b)" style="fill: #7f7f7f; opacity: 0.5"/>
   </g>
   <g id="patch_68">
    <path d="M 209.469892 448.56 
L 211.104373 448.56 
L 211.104373 396.816 
L 209.469892 396.816 
z
" clip-path="url(#p6c67dee18b)" style="fill: #7f7f7f; opacity: 0.5"/>
   </g>
   <g id="patch_69">
    <path d="M 211.512993 448.56 
L 213.147474 448.56 
L 213.147474 345.072 
L 211.512993 345.072 
z
" clip-path="url(#p6c67dee18b)" style="fill: #7f7f7f; opacity: 0.5"/>
   </g>
   <g id="patch_70">
    <path d="M 213.556094 448.56 
L 215.190574 448.56 
L 215.190574 396.816 
L 213.556094 396.816 
z
" clip-path="url(#p6c67dee18b)" style="fill: #7f7f7f; opacity: 0.5"/>
   </g>
   <g id="patch_71">
    <path d="M 215.599194 448.56 
L 217.233675 448.56 
L 217.233675 215.712 
L 215.599194 215.712 
z
" clip-path="url(#p6c67dee18b)" style="fill: #7f7f7f; opacity: 0.5"/>
   </g>
   <g id="patch_72">
    <path d="M 217.642295 448.56 
L 219.276776 448.56 
L 219.276776 241.584 
L 217.642295 241.584 
z
" clip-path="url(#p6c67dee18b)" style="fill: #7f7f7f; opacity: 0.5"/>
   </g>
   <g id="patch_73">
    <path d="M 219.685396 448.56 
L 221.319877 448.56 
L 221.319877 241.584 
L 219.685396 241.584 
z
" clip-path="url(#p6c67dee18b)" style="fill: #7f7f7f; opacity: 0.5"/>
   </g>
   <g id="patch_74">
    <path d="M 221.728497 448.56 
L 223.362977 448.56 
L 223.362977 267.456 
L 221.728497 267.456 
z
" clip-path="url(#p6c67dee18b)" style="fill: #7f7f7f; opacity: 0.5"/>
   </g>
   <g id="patch_75">
    <path d="M 223.771597 448.56 
L 225.406078 448.56 
L 225.406078 215.712 
L 223.771597 215.712 
z
" clip-path="url(#p6c67dee18b)" style="fill: #7f7f7f; opacity: 0.5"/>
   </g>
   <g id="patch_76">
    <path d="M 225.814698 448.56 
L 227.449179 448.56 
L 227.449179 138.096 
L 225.814698 138.096 
z
" clip-path="url(#p6c67dee18b)" style="fill: #7f7f7f; opacity: 0.5"/>
   </g>
   <g id="patch_77">
    <path d="M 227.857799 448.56 
L 229.49228 448.56 
L 229.49228 138.096 
L 227.857799 138.096 
z
" clip-path="url(#p6c67dee18b)" style="fill: #7f7f7f; opacity: 0.5"/>
   </g>
   <g id="patch_78">
    <path d="M 229.9009 448.56 
L 231.53538 448.56 
L 231.53538 267.456 
L 229.9009 267.456 
z
" clip-path="url(#p6c67dee18b)" style="fill: #7f7f7f; opacity: 0.5"/>
   </g>
   <g id="patch_79">
    <path d="M 231.944 448.56 
L 233.578481 448.56 
L 233.578481 138.096 
L 231.944 138.096 
z
" clip-path="url(#p6c67dee18b)" style="fill: #7f7f7f; opacity: 0.5"/>
   </g>
   <g id="patch_80">
    <path d="M 233.987101 448.56 
L 235.621582 448.56 
L 235.621582 396.816 
L 233.987101 396.816 
z
" clip-path="url(#p6c67dee18b)" style="fill: #7f7f7f; opacity: 0.5"/>
   </g>
   <g id="patch_81">
    <path d="M 236.030202 448.56 
L 237.664682 448.56 
L 237.664682 60.48 
L 236.030202 60.48 
z
" clip-path="url(#p6c67dee18b)" style="fill: #7f7f7f; opacity: 0.5"/>
   </g>
   <g id="patch_82">
    <path d="M 238.073303 448.56 
L 239.707783 448.56 
L 239.707783 163.968 
L 238.073303 163.968 
z
" clip-path="url(#p6c67dee18b)" style="fill: #7f7f7f; opacity: 0.5"/>
   </g>
   <g id="patch_83">
    <path d="M 240.116403 448.56 
L 241.750884 448.56 
L 241.750884 319.2 
L 240.116403 319.2 
z
" clip-path="url(#p6c67dee18b)" style="fill: #7f7f7f; opacity: 0.5"/>
   </g>
   <g id="patch_84">
    <path d="M 242.159504 448.56 
L 243.793985 448.56 
L 243.793985 345.072 
L 242.159504 345.072 
z
" clip-path="url(#p6c67dee18b)" style="fill: #7f7f7f; opacity: 0.5"/>
   </g>
   <g id="patch_85">
    <path d="M 244.202605 448.56 
L 245.837085 448.56 
L 245.837085 396.816 
L 244.202605 396.816 
z
" clip-path="url(#p6c67dee18b)" style="fill: #7f7f7f; opacity: 0.5"/>
   </g>
   <g id="patch_86">
    <path d="M 246.245706 448.56 
L 247.880186 448.56 
L 247.880186 345.072 
L 246.245706 345.072 
z
" clip-path="url(#p6c67dee18b)" style="fill: #7f7f7f; opacity: 0.5"/>
   </g>
   <g id="patch_87">
    <path d="M 248.288806 448.56 
L 249.923287 448.56 
L 249.923287 267.456 
L 248.288806 267.456 
z
" clip-path="url(#p6c67dee18b)" style="fill: #7f7f7f; opacity: 0.5"/>
   </g>
   <g id="patch_88">
    <path d="M 250.331907 448.56 
L 251.966388 448.56 
L 251.966388 112.224 
L 250.331907 112.224 
z
" clip-path="url(#p6c67dee18b)" style="fill: #7f7f7f; opacity: 0.5"/>
   </g>
   <g id="patch_89">
    <path d="M 252.375008 448.56 
L 254.009488 448.56 
L 254.009488 293.328 
L 252.375008 293.328 
z
" clip-path="url(#p6c67dee18b)" style="fill: #7f7f7f; opacity: 0.5"/>
   </g>
   <g id="patch_90">
    <path d="M 254.418109 448.56 
L 256.052589 448.56 
L 256.052589 241.584 
L 254.418109 241.584 
z
" clip-path="url(#p6c67dee18b)" style="fill: #7f7f7f; opacity: 0.5"/>
   </g>
   <g id="patch_91">
    <path d="M 256.461209 448.56 
L 258.09569 448.56 
L 258.09569 345.072 
L 256.461209 345.072 
z
" clip-path="url(#p6c67dee18b)" style="fill: #7f7f7f; opacity: 0.5"/>
   </g>
   <g id="patch_92">
    <path d="M 258.50431 448.56 
L 260.138791 448.56 
L 260.138791 319.2 
L 258.50431 319.2 
z
" clip-path="url(#p6c67dee18b)" style="fill: #7f7f7f; opacity: 0.5"/>
   </g>
   <g id="patch_93">
    <path d="M 260.547411 448.56 
L 262.181891 448.56 
L 262.181891 370.944 
L 260.547411 370.944 
z
" clip-path="url(#p6c67dee18b)" style="fill: #7f7f7f; opacity: 0.5"/>
   </g>
   <g id="patch_94">
    <path d="M 262.590512 448.56 
L 264.224992 448.56 
L 264.224992 396.816 
L 262.590512 396.816 
z
" clip-path="url(#p6c67dee18b)" style="fill: #7f7f7f; opacity: 0.5"/>
   </g>
   <g id="patch_95">
    <path d="M 264.633612 448.56 
L 266.268093 448.56 
L 266.268093 396.816 
L 264.633612 396.816 
z
" clip-path="url(#p6c67dee18b)" style="fill: #7f7f7f; opacity: 0.5"/>
   </g>
   <g id="patch_96">
    <path d="M 266.676713 448.56 
L 268.311194 448.56 
L 268.311194 448.56 
L 266.676713 448.56 
z
" clip-path="url(#p6c67dee18b)" style="fill: #7f7f7f; opacity: 0.5"/>
   </g>
   <g id="patch_97">
    <path d="M 268.719814 448.56 
L 270.354294 448.56 
L 270.354294 422.688 
L 268.719814 422.688 
z
" clip-path="url(#p6c67dee18b)" style="fill: #7f7f7f; opacity: 0.5"/>
   </g>
   <g id="patch_98">
    <path d="M 270.762915 448.56 
L 272.397395 448.56 
L 272.397395 396.816 
L 270.762915 396.816 
z
" clip-path="url(#p6c67dee18b)" style="fill: #7f7f7f; opacity: 0.5"/>
   </g>
   <g id="patch_99">
    <path d="M 272.806015 448.56 
L 274.440496 448.56 
L 274.440496 370.944 
L 272.806015 370.944 
z
" clip-path="url(#p6c67dee18b)" style="fill: #7f7f7f; opacity: 0.5"/>
   </g>
   <g id="patch_100">
    <path d="M 274.849116 448.56 
L 276.483597 448.56 
L 276.483597 422.688 
L 274.849116 422.688 
z
" clip-path="url(#p6c67dee18b)" style="fill: #7f7f7f; opacity: 0.5"/>
   </g>
   <g id="patch_101">
    <path d="M 276.892217 448.56 
L 278.526697 448.56 
L 278.526697 370.944 
L 276.892217 370.944 
z
" clip-path="url(#p6c67dee18b)" style="fill: #7f7f7f; opacity: 0.5"/>
   </g>
   <g id="patch_102">
    <path d="M 278.935318 448.56 
L 280.569798 448.56 
L 280.569798 396.816 
L 278.935318 396.816 
z
" clip-path="url(#p6c67dee18b)" style="fill: #7f7f7f; opacity: 0.5"/>
   </g>
   <g id="patch_103">
    <path d="M 280.978418 448.56 
L 282.612899 448.56 
L 282.612899 448.56 
L 280.978418 448.56 
z
" clip-path="url(#p6c67dee18b)" style="fill: #7f7f7f; opacity: 0.5"/>
   </g>
   <g id="patch_104">
    <path d="M 283.021519 448.56 
L 284.656 448.56 
L 284.656 448.56 
L 283.021519 448.56 
z
" clip-path="url(#p6c67dee18b)" style="fill: #7f7f7f; opacity: 0.5"/>
   </g>
   <g id="patch_105">
    <path d="M 285.06462 448.56 
L 286.6991 448.56 
L 286.6991 422.688 
L 285.06462 422.688 
z
" clip-path="url(#p6c67dee18b)" style="fill: #7f7f7f; opacity: 0.5"/>
   </g>
   <g id="patch_106">
    <path d="M 287.10772 448.56 
L 288.742201 448.56 
L 288.742201 396.816 
L 287.10772 396.816 
z
" clip-path="url(#p6c67dee18b)" style="fill: #7f7f7f; opacity: 0.5"/>
   </g>
   <g id="patch_107">
    <path d="M 289.150821 448.56 
L 290.785302 448.56 
L 290.785302 422.688 
L 289.150821 422.688 
z
" clip-path="url(#p6c67dee18b)" style="fill: #7f7f7f; opacity: 0.5"/>
   </g>
   <g id="patch_108">
    <path d="M 291.193922 448.56 
L 292.828403 448.56 
L 292.828403 448.56 
L 291.193922 448.56 
z
" clip-path="url(#p6c67dee18b)" style="fill: #7f7f7f; opacity: 0.5"/>
   </g>
   <g id="patch_109">
    <path d="M 293.237023 448.56 
L 294.871503 448.56 
L 294.871503 422.688 
L 293.237023 422.688 
z
" clip-path="url(#p6c67dee18b)" style="fill: #7f7f7f; opacity: 0.5"/>
   </g>
   <g id="patch_110">
    <path d="M 295.280123 448.56 
L 296.914604 448.56 
L 296.914604 448.56 
L 295.280123 448.56 
z
" clip-path="url(#p6c67dee18b)" style="fill: #7f7f7f; opacity: 0.5"/>
   </g>
   <g id="patch_111">
    <path d="M 297.323224 448.56 
L 298.957705 448.56 
L 298.957705 422.688 
L 297.323224 422.688 
z
" clip-path="url(#p6c67dee18b)" style="fill: #7f7f7f; opacity: 0.5"/>
   </g>
   <g id="patch_112">
    <path d="M 299.366325 448.56 
L 301.000806 448.56 
L 301.000806 448.56 
L 299.366325 448.56 
z
" clip-path="url(#p6c67dee18b)" style="fill: #7f7f7f; opacity: 0.5"/>
   </g>
   <g id="patch_113">
    <path d="M 301.409426 448.56 
L 303.043906 448.56 
L 303.043906 448.56 
L 301.409426 448.56 
z
" clip-path="url(#p6c67dee18b)" style="fill: #7f7f7f; opacity: 0.5"/>
   </g>
   <g id="patch_114">
    <path d="M 303.452526 448.56 
L 305.087007 448.56 
L 305.087007 448.56 
L 303.452526 448.56 
z
" clip-path="url(#p6c67dee18b)" style="fill: #7f7f7f; opacity: 0.5"/>
   </g>
   <g id="patch_115">
    <path d="M 305.495627 448.56 
L 307.130108 448.56 
L 307.130108 422.688 
L 305.495627 422.688 
z
" clip-path="url(#p6c67dee18b)" style="fill: #7f7f7f; opacity: 0.5"/>
   </g>
   <g id="patch_116">
    <path d="M 307.538728 448.56 
L 309.173208 448.56 
L 309.173208 422.688 
L 307.538728 422.688 
z
" clip-path="url(#p6c67dee18b)" style="fill: #7f7f7f; opacity: 0.5"/>
   </g>
   <g id="patch_117">
    <path d="M 309.581829 448.56 
L 311.216309 448.56 
L 311.216309 448.56 
L 309.581829 448.56 
z
" clip-path="url(#p6c67dee18b)" style="fill: #7f7f7f; opacity: 0.5"/>
   </g>
   <g id="patch_118">
    <path d="M 311.624929 448.56 
L 313.25941 448.56 
L 313.25941 448.56 
L 311.624929 448.56 
z
" clip-path="url(#p6c67dee18b)" style="fill: #7f7f7f; opacity: 0.5"/>
   </g>
   <g id="patch_119">
    <path d="M 313.66803 448.56 
L 315.302511 448.56 
L 315.302511 448.56 
L 313.66803 448.56 
z
" clip-path="url(#p6c67dee18b)" style="fill: #7f7f7f; opacity: 0.5"/>
   </g>
   <g id="patch_120">
    <path d="M 315.711131 448.56 
L 317.345611 448.56 
L 317.345611 422.688 
L 315.711131 422.688 
z
" clip-path="url(#p6c67dee18b)" style="fill: #7f7f7f; opacity: 0.5"/>
   </g>
   <g id="patch_121">
    <path d="M 317.754232 448.56 
L 319.388712 448.56 
L 319.388712 448.56 
L 317.754232 448.56 
z
" clip-path="url(#p6c67dee18b)" style="fill: #7f7f7f; opacity: 0.5"/>
   </g>
   <g id="patch_122">
    <path d="M 319.797332 448.56 
L 321.431813 448.56 
L 321.431813 448.56 
L 319.797332 448.56 
z
" clip-path="url(#p6c67dee18b)" style="fill: #7f7f7f; opacity: 0.5"/>
   </g>
   <g id="patch_123">
    <path d="M 321.840433 448.56 
L 323.474914 448.56 
L 323.474914 448.56 
L 321.840433 448.56 
z
" clip-path="url(#p6c67dee18b)" style="fill: #7f7f7f; opacity: 0.5"/>
   </g>
   <g id="patch_124">
    <path d="M 323.883534 448.56 
L 325.518014 448.56 
L 325.518014 448.56 
L 323.883534 448.56 
z
" clip-path="url(#p6c67dee18b)" style="fill: #7f7f7f; opacity: 0.5"/>
   </g>
   <g id="patch_125">
    <path d="M 325.926635 448.56 
L 327.561115 448.56 
L 327.561115 448.56 
L 325.926635 448.56 
z
" clip-path="url(#p6c67dee18b)" style="fill: #7f7f7f; opacity: 0.5"/>
   </g>
   <g id="patch_126">
    <path d="M 327.969735 448.56 
L 329.604216 448.56 
L 329.604216 448.56 
L 327.969735 448.56 
z
" clip-path="url(#p6c67dee18b)" style="fill: #7f7f7f; opacity: 0.5"/>
   </g>
   <g id="patch_127">
    <path d="M 330.012836 448.56 
L 331.647317 448.56 
L 331.647317 448.56 
L 330.012836 448.56 
z
" clip-path="url(#p6c67dee18b)" style="fill: #7f7f7f; opacity: 0.5"/>
   </g>
   <g id="patch_128">
    <path d="M 332.055937 448.56 
L 333.690417 448.56 
L 333.690417 448.56 
L 332.055937 448.56 
z
" clip-path="url(#p6c67dee18b)" style="fill: #7f7f7f; opacity: 0.5"/>
   </g>
   <g id="patch_129">
    <path d="M 334.099038 448.56 
L 335.733518 448.56 
L 335.733518 448.56 
L 334.099038 448.56 
z
" clip-path="url(#p6c67dee18b)" style="fill: #7f7f7f; opacity: 0.5"/>
   </g>
   <g id="patch_130">
    <path d="M 336.142138 448.56 
L 337.776619 448.56 
L 337.776619 422.688 
L 336.142138 422.688 
z
" clip-path="url(#p6c67dee18b)" style="fill: #7f7f7f; opacity: 0.5"/>
   </g>
   <g id="patch_131">
    <path d="M 338.185239 448.56 
L 339.81972 448.56 
L 339.81972 448.56 
L 338.185239 448.56 
z
" clip-path="url(#p6c67dee18b)" style="fill: #7f7f7f; opacity: 0.5"/>
   </g>
   <g id="patch_132">
    <path d="M 340.22834 448.56 
L 341.86282 448.56 
L 341.86282 448.56 
L 340.22834 448.56 
z
" clip-path="url(#p6c67dee18b)" style="fill: #7f7f7f; opacity: 0.5"/>
   </g>
   <g id="patch_133">
    <path d="M 342.271441 448.56 
L 343.905921 448.56 
L 343.905921 448.56 
L 342.271441 448.56 
z
" clip-path="url(#p6c67dee18b)" style="fill: #7f7f7f; opacity: 0.5"/>
   </g>
   <g id="patch_134">
    <path d="M 344.314541 448.56 
L 345.949022 448.56 
L 345.949022 448.56 
L 344.314541 448.56 
z
" clip-path="url(#p6c67dee18b)" style="fill: #7f7f7f; opacity: 0.5"/>
   </g>
   <g id="patch_135">
    <path d="M 346.357642 448.56 
L 347.992123 448.56 
L 347.992123 448.56 
L 346.357642 448.56 
z
" clip-path="url(#p6c67dee18b)" style="fill: #7f7f7f; opacity: 0.5"/>
   </g>
   <g id="patch_136">
    <path d="M 348.400743 448.56 
L 350.035223 448.56 
L 350.035223 448.56 
L 348.400743 448.56 
z
" clip-path="url(#p6c67dee18b)" style="fill: #7f7f7f; opacity: 0.5"/>
   </g>
   <g id="patch_137">
    <path d="M 350.443843 448.56 
L 352.078324 448.56 
L 352.078324 422.688 
L 350.443843 422.688 
z
" clip-path="url(#p6c67dee18b)" style="fill: #7f7f7f; opacity: 0.5"/>
   </g>
   <g id="patch_138">
    <path d="M 352.486944 448.56 
L 354.121425 448.56 
L 354.121425 448.56 
L 352.486944 448.56 
z
" clip-path="url(#p6c67dee18b)" style="fill: #7f7f7f; opacity: 0.5"/>
   </g>
   <g id="patch_139">
    <path d="M 354.530045 448.56 
L 356.164526 448.56 
L 356.164526 448.56 
L 354.530045 448.56 
z
" clip-path="url(#p6c67dee18b)" style="fill: #7f7f7f; opacity: 0.5"/>
   </g>
   <g id="patch_140">
    <path d="M 356.573146 448.56 
L 358.207626 448.56 
L 358.207626 448.56 
L 356.573146 448.56 
z
" clip-path="url(#p6c67dee18b)" style="fill: #7f7f7f; opacity: 0.5"/>
   </g>
   <g id="patch_141">
    <path d="M 358.616246 448.56 
L 360.250727 448.56 
L 360.250727 448.56 
L 358.616246 448.56 
z
" clip-path="url(#p6c67dee18b)" style="fill: #7f7f7f; opacity: 0.5"/>
   </g>
   <g id="patch_142">
    <path d="M 360.659347 448.56 
L 362.293828 448.56 
L 362.293828 448.56 
L 360.659347 448.56 
z
" clip-path="url(#p6c67dee18b)" style="fill: #7f7f7f; opacity: 0.5"/>
   </g>
   <g id="patch_143">
    <path d="M 362.702448 448.56 
L 364.336929 448.56 
L 364.336929 448.56 
L 362.702448 448.56 
z
" clip-path="url(#p6c67dee18b)" style="fill: #7f7f7f; opacity: 0.5"/>
   </g>
   <g id="patch_144">
    <path d="M 364.745549 448.56 
L 366.380029 448.56 
L 366.380029 448.56 
L 364.745549 448.56 
z
" clip-path="url(#p6c67dee18b)" style="fill: #7f7f7f; opacity: 0.5"/>
   </g>
   <g id="patch_145">
    <path d="M 366.788649 448.56 
L 368.42313 448.56 
L 368.42313 448.56 
L 366.788649 448.56 
z
" clip-path="url(#p6c67dee18b)" style="fill: #7f7f7f; opacity: 0.5"/>
   </g>
   <g id="patch_146">
    <path d="M 368.83175 448.56 
L 370.466231 448.56 
L 370.466231 448.56 
L 368.83175 448.56 
z
" clip-path="url(#p6c67dee18b)" style="fill: #7f7f7f; opacity: 0.5"/>
   </g>
   <g id="patch_147">
    <path d="M 370.874851 448.56 
L 372.509332 448.56 
L 372.509332 448.56 
L 370.874851 448.56 
z
" clip-path="url(#p6c67dee18b)" style="fill: #7f7f7f; opacity: 0.5"/>
   </g>
   <g id="patch_148">
    <path d="M 372.917952 448.56 
L 374.552432 448.56 
L 374.552432 448.56 
L 372.917952 448.56 
z
" clip-path="url(#p6c67dee18b)" style="fill: #7f7f7f; opacity: 0.5"/>
   </g>
   <g id="patch_149">
    <path d="M 374.961052 448.56 
L 376.595533 448.56 
L 376.595533 448.56 
L 374.961052 448.56 
z
" clip-path="url(#p6c67dee18b)" style="fill: #7f7f7f; opacity: 0.5"/>
   </g>
   <g id="patch_150">
    <path d="M 377.004153 448.56 
L 378.638634 448.56 
L 378.638634 448.56 
L 377.004153 448.56 
z
" clip-path="url(#p6c67dee18b)" style="fill: #7f7f7f; opacity: 0.5"/>
   </g>
   <g id="patch_151">
    <path d="M 379.047254 448.56 
L 380.681734 448.56 
L 380.681734 448.56 
L 379.047254 448.56 
z
" clip-path="url(#p6c67dee18b)" style="fill: #7f7f7f; opacity: 0.5"/>
   </g>
   <g id="patch_152">
    <path d="M 381.090355 448.56 
L 382.724835 448.56 
L 382.724835 448.56 
L 381.090355 448.56 
z
" clip-path="url(#p6c67dee18b)" style="fill: #7f7f7f; opacity: 0.5"/>
   </g>
   <g id="patch_153">
    <path d="M 383.133455 448.56 
L 384.767936 448.56 
L 384.767936 448.56 
L 383.133455 448.56 
z
" clip-path="url(#p6c67dee18b)" style="fill: #7f7f7f; opacity: 0.5"/>
   </g>
   <g id="patch_154">
    <path d="M 385.176556 448.56 
L 386.811037 448.56 
L 386.811037 448.56 
L 385.176556 448.56 
z
" clip-path="url(#p6c67dee18b)" style="fill: #7f7f7f; opacity: 0.5"/>
   </g>
   <g id="patch_155">
    <path d="M 387.219657 448.56 
L 388.854137 448.56 
L 388.854137 448.56 
L 387.219657 448.56 
z
" clip-path="url(#p6c67dee18b)" style="fill: #7f7f7f; opacity: 0.5"/>
   </g>
   <g id="patch_156">
    <path d="M 389.262758 448.56 
L 390.897238 448.56 
L 390.897238 448.56 
L 389.262758 448.56 
z
" clip-path="url(#p6c67dee18b)" style="fill: #7f7f7f; opacity: 0.5"/>
   </g>
   <g id="patch_157">
    <path d="M 391.305858 448.56 
L 392.940339 448.56 
L 392.940339 448.56 
L 391.305858 448.56 
z
" clip-path="url(#p6c67dee18b)" style="fill: #7f7f7f; opacity: 0.5"/>
   </g>
   <g id="patch_158">
    <path d="M 393.348959 448.56 
L 394.98344 448.56 
L 394.98344 448.56 
L 393.348959 448.56 
z
" clip-path="url(#p6c67dee18b)" style="fill: #7f7f7f; opacity: 0.5"/>
   </g>
   <g id="patch_159">
    <path d="M 395.39206 448.56 
L 397.02654 448.56 
L 397.02654 448.56 
L 395.39206 448.56 
z
" clip-path="url(#p6c67dee18b)" style="fill: #7f7f7f; opacity: 0.5"/>
   </g>
   <g id="patch_160">
    <path d="M 397.435161 448.56 
L 399.069641 448.56 
L 399.069641 448.56 
L 397.435161 448.56 
z
" clip-path="url(#p6c67dee18b)" style="fill: #7f7f7f; opacity: 0.5"/>
   </g>
   <g id="patch_161">
    <path d="M 399.478261 448.56 
L 401.112742 448.56 
L 401.112742 448.56 
L 399.478261 448.56 
z
" clip-path="url(#p6c67dee18b)" style="fill: #7f7f7f; opacity: 0.5"/>
   </g>
   <g id="patch_162">
    <path d="M 401.521362 448.56 
L 403.155843 448.56 
L 403.155843 448.56 
L 401.521362 448.56 
z
" clip-path="url(#p6c67dee18b)" style="fill: #7f7f7f; opacity: 0.5"/>
   </g>
   <g id="patch_163">
    <path d="M 403.564463 448.56 
L 405.198943 448.56 
L 405.198943 448.56 
L 403.564463 448.56 
z
" clip-path="url(#p6c67dee18b)" style="fill: #7f7f7f; opacity: 0.5"/>
   </g>
   <g id="patch_164">
    <path d="M 405.607564 448.56 
L 407.242044 448.56 
L 407.242044 448.56 
L 405.607564 448.56 
z
" clip-path="url(#p6c67dee18b)" style="fill: #7f7f7f; opacity: 0.5"/>
   </g>
   <g id="patch_165">
    <path d="M 407.650664 448.56 
L 409.285145 448.56 
L 409.285145 448.56 
L 407.650664 448.56 
z
" clip-path="url(#p6c67dee18b)" style="fill: #7f7f7f; opacity: 0.5"/>
   </g>
   <g id="patch_166">
    <path d="M 409.693765 448.56 
L 411.328246 448.56 
L 411.328246 448.56 
L 409.693765 448.56 
z
" clip-path="url(#p6c67dee18b)" style="fill: #7f7f7f; opacity: 0.5"/>
   </g>
   <g id="patch_167">
    <path d="M 411.736866 448.56 
L 413.371346 448.56 
L 413.371346 448.56 
L 411.736866 448.56 
z
" clip-path="url(#p6c67dee18b)" style="fill: #7f7f7f; opacity: 0.5"/>
   </g>
   <g id="patch_168">
    <path d="M 413.779967 448.56 
L 415.414447 448.56 
L 415.414447 448.56 
L 413.779967 448.56 
z
" clip-path="url(#p6c67dee18b)" style="fill: #7f7f7f; opacity: 0.5"/>
   </g>
   <g id="patch_169">
    <path d="M 415.823067 448.56 
L 417.457548 448.56 
L 417.457548 448.56 
L 415.823067 448.56 
z
" clip-path="url(#p6c67dee18b)" style="fill: #7f7f7f; opacity: 0.5"/>
   </g>
   <g id="patch_170">
    <path d="M 417.866168 448.56 
L 419.500649 448.56 
L 419.500649 448.56 
L 417.866168 448.56 
z
" clip-path="url(#p6c67dee18b)" style="fill: #7f7f7f; opacity: 0.5"/>
   </g>
   <g id="patch_171">
    <path d="M 419.909269 448.56 
L 421.543749 448.56 
L 421.543749 448.56 
L 419.909269 448.56 
z
" clip-path="url(#p6c67dee18b)" style="fill: #7f7f7f; opacity: 0.5"/>
   </g>
   <g id="patch_172">
    <path d="M 421.952369 448.56 
L 423.58685 448.56 
L 423.58685 448.56 
L 421.952369 448.56 
z
" clip-path="url(#p6c67dee18b)" style="fill: #7f7f7f; opacity: 0.5"/>
   </g>
   <g id="patch_173">
    <path d="M 423.99547 448.56 
L 425.629951 448.56 
L 425.629951 448.56 
L 423.99547 448.56 
z
" clip-path="url(#p6c67dee18b)" style="fill: #7f7f7f; opacity: 0.5"/>
   </g>
   <g id="patch_174">
    <path d="M 426.038571 448.56 
L 427.673052 448.56 
L 427.673052 448.56 
L 426.038571 448.56 
z
" clip-path="url(#p6c67dee18b)" style="fill: #7f7f7f; opacity: 0.5"/>
   </g>
   <g id="patch_175">
    <path d="M 428.081672 448.56 
L 429.716152 448.56 
L 429.716152 448.56 
L 428.081672 448.56 
z
" clip-path="url(#p6c67dee18b)" style="fill: #7f7f7f; opacity: 0.5"/>
   </g>
   <g id="patch_176">
    <path d="M 430.124772 448.56 
L 431.759253 448.56 
L 431.759253 448.56 
L 430.124772 448.56 
z
" clip-path="url(#p6c67dee18b)" style="fill: #7f7f7f; opacity: 0.5"/>
   </g>
   <g id="patch_177">
    <path d="M 432.167873 448.56 
L 433.802354 448.56 
L 433.802354 448.56 
L 432.167873 448.56 
z
" clip-path="url(#p6c67dee18b)" style="fill: #7f7f7f; opacity: 0.5"/>
   </g>
   <g id="patch_178">
    <path d="M 434.210974 448.56 
L 435.845455 448.56 
L 435.845455 448.56 
L 434.210974 448.56 
z
" clip-path="url(#p6c67dee18b)" style="fill: #7f7f7f; opacity: 0.5"/>
   </g>
   <g id="matplotlib.axis_3">
    <g id="ytick_10">
     <g id="line2d_17">
      <defs>
       <path id="m89d7d1a764" d="M 0 0 
L 3.5 0 
" style="stroke: #7f7f7f; stroke-width: 0.8"/>
      </defs>
      <g>
       <use xlink:href="#m89d7d1a764" x="453.6" y="448.56" style="fill: #7f7f7f; stroke: #7f7f7f; stroke-width: 0.8"/>
      </g>
     </g>
     <g id="text_17">
      <text style="font-size: 16px; font-family: 'Arial', sans-serif; text-anchor: start; fill: #7f7f7f" x="460.6" y="454.28625" transform="rotate(-0 460.6 454.28625)">0</text>
     </g>
    </g>
    <g id="ytick_11">
     <g id="line2d_18">
      <g>
       <use xlink:href="#m89d7d1a764" x="453.6" y="396.816" style="fill: #7f7f7f; stroke: #7f7f7f; stroke-width: 0.8"/>
      </g>
     </g>
     <g id="text_18">
      <text style="font-size: 16px; font-family: 'Arial', sans-serif; text-anchor: start; fill: #7f7f7f" x="460.6" y="402.54225" transform="rotate(-0 460.6 402.54225)">2</text>
     </g>
    </g>
    <g id="ytick_12">
     <g id="line2d_19">
      <g>
       <use xlink:href="#m89d7d1a764" x="453.6" y="345.072" style="fill: #7f7f7f; stroke: #7f7f7f; stroke-width: 0.8"/>
      </g>
     </g>
     <g id="text_19">
      <text style="font-size: 16px; font-family: 'Arial', sans-serif; text-anchor: start; fill: #7f7f7f" x="460.6" y="350.79825" transform="rotate(-0 460.6 350.79825)">4</text>
     </g>
    </g>
    <g id="ytick_13">
     <g id="line2d_20">
      <g>
       <use xlink:href="#m89d7d1a764" x="453.6" y="293.328" style="fill: #7f7f7f; stroke: #7f7f7f; stroke-width: 0.8"/>
      </g>
     </g>
     <g id="text_20">
      <text style="font-size: 16px; font-family: 'Arial', sans-serif; text-anchor: start; fill: #7f7f7f" x="460.6" y="299.05425" transform="rotate(-0 460.6 299.05425)">6</text>
     </g>
    </g>
    <g id="ytick_14">
     <g id="line2d_21">
      <g>
       <use xlink:href="#m89d7d1a764" x="453.6" y="241.584" style="fill: #7f7f7f; stroke: #7f7f7f; stroke-width: 0.8"/>
      </g>
     </g>
     <g id="text_21">
      <text style="font-size: 16px; font-family: 'Arial', sans-serif; text-anchor: start; fill: #7f7f7f" x="460.6" y="247.31025" transform="rotate(-0 460.6 247.31025)">8</text>
     </g>
    </g>
    <g id="ytick_15">
     <g id="line2d_22">
      <g>
       <use xlink:href="#m89d7d1a764" x="453.6" y="189.84" style="fill: #7f7f7f; stroke: #7f7f7f; stroke-width: 0.8"/>
      </g>
     </g>
     <g id="text_22">
      <text style="font-size: 16px; font-family: 'Arial', sans-serif; text-anchor: start; fill: #7f7f7f" x="460.6" y="195.56625" transform="rotate(-0 460.6 195.56625)">10</text>
     </g>
    </g>
    <g id="ytick_16">
     <g id="line2d_23">
      <g>
       <use xlink:href="#m89d7d1a764" x="453.6" y="138.096" style="fill: #7f7f7f; stroke: #7f7f7f; stroke-width: 0.8"/>
      </g>
     </g>
     <g id="text_23">
      <text style="font-size: 16px; font-family: 'Arial', sans-serif; text-anchor: start; fill: #7f7f7f" x="460.6" y="143.82225" transform="rotate(-0 460.6 143.82225)">12</text>
     </g>
    </g>
    <g id="ytick_17">
     <g id="line2d_24">
      <g>
       <use xlink:href="#m89d7d1a764" x="453.6" y="86.352" style="fill: #7f7f7f; stroke: #7f7f7f; stroke-width: 0.8"/>
      </g>
     </g>
     <g id="text_24">
      <text style="font-size: 16px; font-family: 'Arial', sans-serif; text-anchor: start; fill: #7f7f7f" x="460.6" y="92.07825" transform="rotate(-0 460.6 92.07825)">14</text>
     </g>
    </g>
    <g id="text_25">
     <text style="font-size: 16px; font-family: 'Arial', sans-serif; text-anchor: middle; fill: #7f7f7f" x="493.8475" y="254.52" transform="rotate(-90 493.8475 254.52)">Number of cases</text>
    </g>
   </g>
   <g id="patch_179">
    <path d="M 453.6 448.56 
L 453.6 60.48 
" style="fill: none; stroke: #7f7f7f; stroke-width: 0.8; stroke-linejoin: miter; stroke-linecap: square"/>
   </g>
  </g>
 </g>
 <defs>
  <clipPath id="p6c67dee18b">
   <rect x="63" y="60.48" width="390.6" height="388.08"/>
  </clipPath>
 </defs>
</svg>
