<?xml version="1.0" encoding="utf-8" standalone="no"?>
<!DOCTYPE svg PUBLIC "-//W3C//DTD SVG 1.1//EN"
  "http://www.w3.org/Graphics/SVG/1.1/DTD/svg11.dtd">
<svg xmlns:xlink="http://www.w3.org/1999/xlink" width="460.8pt" height="345.6pt" viewBox="0 0 460.8 345.6" xmlns="http://www.w3.org/2000/svg" version="1.1">
 <metadata>
  <rdf:RDF xmlns:dc="http://purl.org/dc/elements/1.1/" xmlns:cc="http://creativecommons.org/ns#" xmlns:rdf="http://www.w3.org/1999/02/22-rdf-syntax-ns#">
   <cc:Work>
    <dc:type rdf:resource="http://purl.org/dc/dcmitype/StillImage"/>
    <dc:date>2026-01-30T18:27:29.297141</dc:date>
    <dc:format>image/svg+xml</dc:format>
    <dc:creator>
     <cc:Agent>
      <dc:title>Matplotlib v3.10.8, https://matplotlib.org/</dc:title>
     </cc:Agent>
    </dc:creator>
   </cc:Work>
  </rdf:RDF>
 </metadata>
 <defs>
  <style type="text/css">*{stroke-linejoin: round; stroke-linecap: butt}</style>
 </defs>
 <g id="figure_1">
  <g id="patch_1">
   <path d="M 0 345.6 
L 460.8 345.6 
L 460.8 0 
L 0 0 
z
" style="fill: #ffffff"/>
  </g>
  <g id="axes_1">
   <g id="patch_2">
    <path d="M 57.6 307.584 
L 414.72 307.584 
L 414.72 41.472 
L 57.6 41.472 
z
" style="fill: #ffffff"/>
   </g>
   <g id="FillBetweenPolyCollection_1">
    <defs>
     <path id="m65fd607cfc" d="M 74.579918 -340.722911 
L 74.579918 -81.098594 
L 76.447896 -81.823805 
L 78.315874 -80.802002 
L 80.183852 -77.507978 
L 82.05183 -74.849536 
L 83.919808 -71.301335 
L 85.787785 -69.030512 
L 87.655763 -67.09656 
L 89.523741 -65.606549 
L 91.391719 -63.856996 
L 93.259697 -63.065391 
L 95.127674 -61.816606 
L 96.995652 -60.790883 
L 98.86363 -60.234438 
L 100.731608 -60.081952 
L 102.599586 -59.989938 
L 104.467564 -60.785723 
L 106.335541 -61.677178 
L 108.203519 -62.500176 
L 110.071497 -64.330614 
L 111.939475 -65.572712 
L 113.807453 -66.921132 
L 115.67543 -68.916012 
L 117.543408 -69.834007 
L 119.411386 -71.424779 
L 121.279364 -73.094626 
L 123.147342 -74.223884 
L 125.01532 -75.429155 
L 126.883297 -77.55268 
L 128.751275 -78.860591 
L 130.619253 -79.495579 
L 132.487231 -81.296879 
L 134.355209 -80.93201 
L 136.223187 -80.366058 
L 138.091164 -82.188243 
L 139.959142 -83.947724 
L 141.82712 -85.508125 
L 143.695098 -88.618294 
L 145.563076 -89.541972 
L 147.431053 -89.555457 
L 149.299031 -88.131975 
L 151.167009 -89.530505 
L 153.034987 -89.786512 
L 154.902965 -91.399854 
L 156.770943 -92.004644 
L 158.63892 -93.186779 
L 160.506898 -96.914047 
L 162.374876 -102.202835 
L 164.242854 -105.149662 
L 166.110832 -108.114312 
L 167.978809 -109.870219 
L 169.846787 -115.753412 
L 171.714765 -119.325393 
L 173.582743 -126.119113 
L 175.450721 -121.802385 
L 177.318699 -119.256741 
L 179.186676 -110.037595 
L 181.054654 -100.1488 
L 182.922632 -93.690791 
L 184.79061 -86.937648 
L 186.658588 -79.122884 
L 188.526566 -75.22171 
L 190.394543 -75.006685 
L 192.262521 -71.962595 
L 194.130499 -72.442732 
L 195.998477 -73.255969 
L 197.866455 -78.651007 
L 199.734432 -82.222262 
L 201.60241 -85.463217 
L 203.470388 -88.749281 
L 205.338366 -94.426623 
L 207.206344 -99.689913 
L 209.074322 -100.473904 
L 210.942299 -97.300188 
L 212.810277 -95.988774 
L 214.678255 -90.091163 
L 216.546233 -93.244236 
L 218.414211 -87.763675 
L 220.282189 -79.680571 
L 222.150166 -74.512071 
L 224.018144 -71.53896 
L 225.886122 -72.778135 
L 227.7541 -76.362236 
L 229.622078 -80.19566 
L 231.490055 -77.066142 
L 233.358033 -76.169641 
L 235.226011 -72.291207 
L 237.093989 -69.446917 
L 238.961967 -66.633699 
L 240.829945 -64.637971 
L 242.697922 -63.322151 
L 244.5659 -62.809862 
L 246.433878 -62.831556 
L 248.301856 -64.557976 
L 250.169834 -65.555616 
L 252.037811 -65.811717 
L 253.905789 -66.877583 
L 255.773767 -66.900449 
L 257.641745 -66.65033 
L 259.509723 -66.386524 
L 261.377701 -68.133973 
L 263.245678 -68.743143 
L 265.113656 -68.229913 
L 266.981634 -67.974089 
L 268.849612 -68.605581 
L 270.71759 -69.008368 
L 272.585568 -68.788797 
L 274.453545 -68.520058 
L 276.321523 -68.911611 
L 278.189501 -68.773263 
L 280.057479 -69.660113 
L 281.925457 -69.352955 
L 283.793434 -68.419854 
L 285.661412 -68.568267 
L 287.52939 -67.9637 
L 289.397368 -67.714081 
L 291.265346 -67.686904 
L 293.133324 -66.790319 
L 295.001301 -66.202694 
L 296.869279 -66.72441 
L 298.737257 -65.617247 
L 300.605235 -65.951249 
L 302.473213 -65.48778 
L 304.341191 -65.653705 
L 306.209168 -65.722892 
L 308.077146 -66.038877 
L 309.945124 -65.000305 
L 311.813102 -63.211076 
L 313.68108 -63.422602 
L 315.549057 -64.667701 
L 317.417035 -64.223753 
L 319.285013 -63.202709 
L 321.152991 -63.602284 
L 323.020969 -63.649737 
L 324.888947 -62.456071 
L 326.756924 -61.887292 
L 328.624902 -60.586442 
L 330.49288 -60.719048 
L 332.360858 -59.779123 
L 334.228836 -58.790371 
L 336.096813 -58.206075 
L 337.964791 -58.037858 
L 339.832769 -57.820675 
L 341.700747 -57.735947 
L 343.568725 -56.766106 
L 345.436703 -56.32448 
L 347.30468 -56.215986 
L 349.172658 -55.737936 
L 351.040636 -54.983652 
L 352.908614 -54.995739 
L 354.776592 -54.498852 
L 356.64457 -54.592244 
L 358.512547 -53.848366 
L 360.380525 -53.546757 
L 362.248503 -53.182915 
L 364.116481 -53.133213 
L 365.984459 -52.632667 
L 367.852436 -52.611229 
L 369.720414 -52.337165 
L 371.588392 -51.849371 
L 373.45637 -51.900248 
L 375.324348 -51.70477 
L 377.192326 -51.444293 
L 379.060303 -51.506284 
L 380.928281 -50.614073 
L 382.796259 -51.005717 
L 384.664237 -50.944958 
L 386.532215 -51.024356 
L 388.400192 -51.05611 
L 390.26817 -51.126844 
L 392.136148 -51.421966 
L 394.004126 -51.460571 
L 395.872104 -51.199446 
L 397.740082 -50.905614 
L 397.740082 -228.921977 
L 397.740082 -228.921977 
L 395.872104 -225.989217 
L 394.004126 -229.387378 
L 392.136148 -238.730334 
L 390.26817 -233.553587 
L 388.400192 -243.760406 
L 386.532215 -240.1932 
L 384.664237 -234.827234 
L 382.796259 -240.992513 
L 380.928281 -238.712646 
L 379.060303 -240.749122 
L 377.192326 -236.490955 
L 375.324348 -237.598642 
L 373.45637 -241.050608 
L 371.588392 -237.187524 
L 369.720414 -243.03673 
L 367.852436 -239.903972 
L 365.984459 -240.599158 
L 364.116481 -240.608647 
L 362.248503 -240.935943 
L 360.380525 -245.885094 
L 358.512547 -244.215736 
L 356.64457 -241.638215 
L 354.776592 -241.88542 
L 352.908614 -239.793634 
L 351.040636 -246.588622 
L 349.172658 -241.817005 
L 347.30468 -245.259995 
L 345.436703 -247.752913 
L 343.568725 -250.364686 
L 341.700747 -257.510967 
L 339.832769 -247.818154 
L 337.964791 -254.983818 
L 336.096813 -259.973807 
L 334.228836 -267.831156 
L 332.360858 -266.82578 
L 330.49288 -273.136492 
L 328.624902 -274.034681 
L 326.756924 -275.527502 
L 324.888947 -281.852419 
L 323.020969 -281.011611 
L 321.152991 -285.179251 
L 319.285013 -284.265104 
L 317.417035 -285.420982 
L 315.549057 -286.096541 
L 313.68108 -282.306035 
L 311.813102 -282.711724 
L 309.945124 -278.507771 
L 308.077146 -274.764227 
L 306.209168 -263.976922 
L 304.341191 -258.056947 
L 302.473213 -254.046687 
L 300.605235 -243.174087 
L 298.737257 -242.4084 
L 296.869279 -239.608984 
L 295.001301 -240.243629 
L 293.133324 -237.003777 
L 291.265346 -239.010732 
L 289.397368 -238.953906 
L 287.52939 -234.686656 
L 285.661412 -237.454535 
L 283.793434 -233.148709 
L 281.925457 -227.392513 
L 280.057479 -220.917899 
L 278.189501 -213.179476 
L 276.321523 -208.863141 
L 274.453545 -200.236974 
L 272.585568 -195.686305 
L 270.71759 -189.233051 
L 268.849612 -186.406352 
L 266.981634 -177.710396 
L 265.113656 -172.612992 
L 263.245678 -168.473971 
L 261.377701 -159.683831 
L 259.509723 -147.682923 
L 257.641745 -143.079015 
L 255.773767 -141.402494 
L 253.905789 -137.382375 
L 252.037811 -129.5046 
L 250.169834 -123.282286 
L 248.301856 -115.633275 
L 246.433878 -110.056597 
L 244.5659 -106.532321 
L 242.697922 -105.952205 
L 240.829945 -107.398854 
L 238.961967 -110.628316 
L 237.093989 -114.841904 
L 235.226011 -116.617223 
L 233.358033 -122.661683 
L 231.490055 -123.700825 
L 229.622078 -126.641029 
L 227.7541 -117.387527 
L 225.886122 -110.217914 
L 224.018144 -108.595542 
L 222.150166 -112.056961 
L 220.282189 -122.197384 
L 218.414211 -137.280142 
L 216.546233 -147.819569 
L 214.678255 -142.112315 
L 212.810277 -152.314734 
L 210.942299 -152.601314 
L 209.074322 -159.195109 
L 207.206344 -157.031057 
L 205.338366 -148.06635 
L 203.470388 -136.727823 
L 201.60241 -131.074254 
L 199.734432 -125.833163 
L 197.866455 -118.912275 
L 195.998477 -108.901821 
L 194.130499 -106.742611 
L 192.262521 -108.258265 
L 190.394543 -114.424606 
L 188.526566 -115.933012 
L 186.658588 -125.097018 
L 184.79061 -141.100978 
L 182.922632 -154.969873 
L 181.054654 -169.282957 
L 179.186676 -187.590468 
L 177.318699 -205.736191 
L 175.450721 -216.328021 
L 173.582743 -223.706987 
L 171.714765 -216.29225 
L 169.846787 -206.851014 
L 167.978809 -201.153633 
L 166.110832 -200.2326 
L 164.242854 -199.115384 
L 162.374876 -193.268983 
L 160.506898 -184.233782 
L 158.63892 -180.701288 
L 156.770943 -177.473869 
L 154.902965 -181.986123 
L 153.034987 -181.389153 
L 151.167009 -181.018576 
L 149.299031 -184.264762 
L 147.431053 -185.762684 
L 145.563076 -189.751781 
L 143.695098 -188.158538 
L 141.82712 -184.200213 
L 139.959142 -182.136621 
L 138.091164 -182.071729 
L 136.223187 -182.301016 
L 134.355209 -188.717947 
L 132.487231 -189.885456 
L 130.619253 -190.753667 
L 128.751275 -190.906738 
L 126.883297 -189.650477 
L 125.01532 -188.496054 
L 123.147342 -187.14104 
L 121.279364 -181.52859 
L 119.411386 -175.948743 
L 117.543408 -167.429349 
L 115.67543 -160.708781 
L 113.807453 -152.36282 
L 111.939475 -148.340082 
L 110.071497 -139.889981 
L 108.203519 -135.084716 
L 106.335541 -129.043819 
L 104.467564 -123.383432 
L 102.599586 -121.267899 
L 100.731608 -121.073309 
L 98.86363 -122.880144 
L 96.995652 -124.104771 
L 95.127674 -130.439118 
L 93.259697 -137.598652 
L 91.391719 -147.572126 
L 89.523741 -158.78307 
L 87.655763 -174.111273 
L 85.787785 -195.339897 
L 83.919808 -218.573197 
L 82.05183 -251.95225 
L 80.183852 -282.508799 
L 78.315874 -311.339216 
L 76.447896 -329.363807 
L 74.579918 -340.722911 
z
" style="stroke: #1f77b4; stroke-opacity: 0.3"/>
    </defs>
    <g clip-path="url(#pfac6f032f3)">
     <use xlink:href="#m65fd607cfc" x="0" y="345.6" style="fill: #1f77b4; fill-opacity: 0.3; stroke: #1f77b4; stroke-opacity: 0.3"/>
    </g>
   </g>
   <g id="matplotlib.axis_1">
    <g id="xtick_1">
     <g id="line2d_1">
      <defs>
       <path id="ma6e7889c20" d="M 0 0 
L 0 3.5 
" style="stroke: #000000; stroke-width: 0.8"/>
      </defs>
      <g>
       <use xlink:href="#ma6e7889c20" x="83.919808" y="307.584" style="stroke: #000000; stroke-width: 0.8"/>
      </g>
     </g>
     <g id="text_1">
      <!-- 1 Jul -->
      <g transform="translate(73.116683 322.182437) scale(0.1 -0.1)">
       <defs>
        <path id="DejaVuSans-31" d="M 794 531 
L 1825 531 
L 1825 4091 
L 703 3866 
L 703 4441 
L 1819 4666 
L 2450 4666 
L 2450 531 
L 3481 531 
L 3481 0 
L 794 0 
L 794 531 
z
" transform="scale(0.015625)"/>
        <path id="DejaVuSans-20" transform="scale(0.015625)"/>
        <path id="DejaVuSans-4a" d="M 628 4666 
L 1259 4666 
L 1259 325 
Q 1259 -519 939 -900 
Q 619 -1281 -91 -1281 
L -331 -1281 
L -331 -750 
L -134 -750 
Q 284 -750 456 -515 
Q 628 -281 628 325 
L 628 4666 
z
" transform="scale(0.015625)"/>
        <path id="DejaVuSans-75" d="M 544 1381 
L 544 3500 
L 1119 3500 
L 1119 1403 
Q 1119 906 1312 657 
Q 1506 409 1894 409 
Q 2359 409 2629 706 
Q 2900 1003 2900 1516 
L 2900 3500 
L 3475 3500 
L 3475 0 
L 2900 0 
L 2900 538 
Q 2691 219 2414 64 
Q 2138 -91 1772 -91 
Q 1169 -91 856 284 
Q 544 659 544 1381 
z
M 1991 3584 
L 1991 3584 
z
" transform="scale(0.015625)"/>
        <path id="DejaVuSans-6c" d="M 603 4863 
L 1178 4863 
L 1178 0 
L 603 0 
L 603 4863 
z
" transform="scale(0.015625)"/>
       </defs>
       <use xlink:href="#DejaVuSans-31"/>
       <use xlink:href="#DejaVuSans-20" transform="translate(63.623047 0)"/>
       <use xlink:href="#DejaVuSans-4a" transform="translate(95.410156 0)"/>
       <use xlink:href="#DejaVuSans-75" transform="translate(124.902344 0)"/>
       <use xlink:href="#DejaVuSans-6c" transform="translate(188.28125 0)"/>
      </g>
     </g>
    </g>
    <g id="xtick_2">
     <g id="line2d_2">
      <g>
       <use xlink:href="#ma6e7889c20" x="141.82712" y="307.584" style="stroke: #000000; stroke-width: 0.8"/>
      </g>
     </g>
     <g id="text_2">
      <!-- 1 Aug -->
      <g transform="translate(127.293526 322.182437) scale(0.1 -0.1)">
       <defs>
        <path id="DejaVuSans-41" d="M 2188 4044 
L 1331 1722 
L 3047 1722 
L 2188 4044 
z
M 1831 4666 
L 2547 4666 
L 4325 0 
L 3669 0 
L 3244 1197 
L 1141 1197 
L 716 0 
L 50 0 
L 1831 4666 
z
" transform="scale(0.015625)"/>
        <path id="DejaVuSans-67" d="M 2906 1791 
Q 2906 2416 2648 2759 
Q 2391 3103 1925 3103 
Q 1463 3103 1205 2759 
Q 947 2416 947 1791 
Q 947 1169 1205 825 
Q 1463 481 1925 481 
Q 2391 481 2648 825 
Q 2906 1169 2906 1791 
z
M 3481 434 
Q 3481 -459 3084 -895 
Q 2688 -1331 1869 -1331 
Q 1566 -1331 1297 -1286 
Q 1028 -1241 775 -1147 
L 775 -588 
Q 1028 -725 1275 -790 
Q 1522 -856 1778 -856 
Q 2344 -856 2625 -561 
Q 2906 -266 2906 331 
L 2906 616 
Q 2728 306 2450 153 
Q 2172 0 1784 0 
Q 1141 0 747 490 
Q 353 981 353 1791 
Q 353 2603 747 3093 
Q 1141 3584 1784 3584 
Q 2172 3584 2450 3431 
Q 2728 3278 2906 2969 
L 2906 3500 
L 3481 3500 
L 3481 434 
z
" transform="scale(0.015625)"/>
       </defs>
       <use xlink:href="#DejaVuSans-31"/>
       <use xlink:href="#DejaVuSans-20" transform="translate(63.623047 0)"/>
       <use xlink:href="#DejaVuSans-41" transform="translate(95.410156 0)"/>
       <use xlink:href="#DejaVuSans-75" transform="translate(163.818359 0)"/>
       <use xlink:href="#DejaVuSans-67" transform="translate(227.197266 0)"/>
      </g>
     </g>
    </g>
    <g id="xtick_3">
     <g id="line2d_3">
      <g>
       <use xlink:href="#ma6e7889c20" x="199.734432" y="307.584" style="stroke: #000000; stroke-width: 0.8"/>
      </g>
     </g>
     <g id="text_3">
      <!-- 1 Sep -->
      <g transform="translate(185.53912 322.182437) scale(0.1 -0.1)">
       <defs>
        <path id="DejaVuSans-53" d="M 3425 4513 
L 3425 3897 
Q 3066 4069 2747 4153 
Q 2428 4238 2131 4238 
Q 1616 4238 1336 4038 
Q 1056 3838 1056 3469 
Q 1056 3159 1242 3001 
Q 1428 2844 1947 2747 
L 2328 2669 
Q 3034 2534 3370 2195 
Q 3706 1856 3706 1288 
Q 3706 609 3251 259 
Q 2797 -91 1919 -91 
Q 1588 -91 1214 -16 
Q 841 59 441 206 
L 441 856 
Q 825 641 1194 531 
Q 1563 422 1919 422 
Q 2459 422 2753 634 
Q 3047 847 3047 1241 
Q 3047 1584 2836 1778 
Q 2625 1972 2144 2069 
L 1759 2144 
Q 1053 2284 737 2584 
Q 422 2884 422 3419 
Q 422 4038 858 4394 
Q 1294 4750 2059 4750 
Q 2388 4750 2728 4690 
Q 3069 4631 3425 4513 
z
" transform="scale(0.015625)"/>
        <path id="DejaVuSans-65" d="M 3597 1894 
L 3597 1613 
L 953 1613 
Q 991 1019 1311 708 
Q 1631 397 2203 397 
Q 2534 397 2845 478 
Q 3156 559 3463 722 
L 3463 178 
Q 3153 47 2828 -22 
Q 2503 -91 2169 -91 
Q 1331 -91 842 396 
Q 353 884 353 1716 
Q 353 2575 817 3079 
Q 1281 3584 2069 3584 
Q 2775 3584 3186 3129 
Q 3597 2675 3597 1894 
z
M 3022 2063 
Q 3016 2534 2758 2815 
Q 2500 3097 2075 3097 
Q 1594 3097 1305 2825 
Q 1016 2553 972 2059 
L 3022 2063 
z
" transform="scale(0.015625)"/>
        <path id="DejaVuSans-70" d="M 1159 525 
L 1159 -1331 
L 581 -1331 
L 581 3500 
L 1159 3500 
L 1159 2969 
Q 1341 3281 1617 3432 
Q 1894 3584 2278 3584 
Q 2916 3584 3314 3078 
Q 3713 2572 3713 1747 
Q 3713 922 3314 415 
Q 2916 -91 2278 -91 
Q 1894 -91 1617 61 
Q 1341 213 1159 525 
z
M 3116 1747 
Q 3116 2381 2855 2742 
Q 2594 3103 2138 3103 
Q 1681 3103 1420 2742 
Q 1159 2381 1159 1747 
Q 1159 1113 1420 752 
Q 1681 391 2138 391 
Q 2594 391 2855 752 
Q 3116 1113 3116 1747 
z
" transform="scale(0.015625)"/>
       </defs>
       <use xlink:href="#DejaVuSans-31"/>
       <use xlink:href="#DejaVuSans-20" transform="translate(63.623047 0)"/>
       <use xlink:href="#DejaVuSans-53" transform="translate(95.410156 0)"/>
       <use xlink:href="#DejaVuSans-65" transform="translate(158.886719 0)"/>
       <use xlink:href="#DejaVuSans-70" transform="translate(220.410156 0)"/>
      </g>
     </g>
    </g>
    <g id="xtick_4">
     <g id="line2d_4">
      <g>
       <use xlink:href="#ma6e7889c20" x="255.773767" y="307.584" style="stroke: #000000; stroke-width: 0.8"/>
      </g>
     </g>
     <g id="text_4">
      <!-- 1 Oct -->
      <g transform="translate(242.358142 322.182437) scale(0.1 -0.1)">
       <defs>
        <path id="DejaVuSans-4f" d="M 2522 4238 
Q 1834 4238 1429 3725 
Q 1025 3213 1025 2328 
Q 1025 1447 1429 934 
Q 1834 422 2522 422 
Q 3209 422 3611 934 
Q 4013 1447 4013 2328 
Q 4013 3213 3611 3725 
Q 3209 4238 2522 4238 
z
M 2522 4750 
Q 3503 4750 4090 4092 
Q 4678 3434 4678 2328 
Q 4678 1225 4090 567 
Q 3503 -91 2522 -91 
Q 1538 -91 948 565 
Q 359 1222 359 2328 
Q 359 3434 948 4092 
Q 1538 4750 2522 4750 
z
" transform="scale(0.015625)"/>
        <path id="DejaVuSans-63" d="M 3122 3366 
L 3122 2828 
Q 2878 2963 2633 3030 
Q 2388 3097 2138 3097 
Q 1578 3097 1268 2742 
Q 959 2388 959 1747 
Q 959 1106 1268 751 
Q 1578 397 2138 397 
Q 2388 397 2633 464 
Q 2878 531 3122 666 
L 3122 134 
Q 2881 22 2623 -34 
Q 2366 -91 2075 -91 
Q 1284 -91 818 406 
Q 353 903 353 1747 
Q 353 2603 823 3093 
Q 1294 3584 2113 3584 
Q 2378 3584 2631 3529 
Q 2884 3475 3122 3366 
z
" transform="scale(0.015625)"/>
        <path id="DejaVuSans-74" d="M 1172 4494 
L 1172 3500 
L 2356 3500 
L 2356 3053 
L 1172 3053 
L 1172 1153 
Q 1172 725 1289 603 
Q 1406 481 1766 481 
L 2356 481 
L 2356 0 
L 1766 0 
Q 1100 0 847 248 
Q 594 497 594 1153 
L 594 3053 
L 172 3053 
L 172 3500 
L 594 3500 
L 594 4494 
L 1172 4494 
z
" transform="scale(0.015625)"/>
       </defs>
       <use xlink:href="#DejaVuSans-31"/>
       <use xlink:href="#DejaVuSans-20" transform="translate(63.623047 0)"/>
       <use xlink:href="#DejaVuSans-4f" transform="translate(95.410156 0)"/>
       <use xlink:href="#DejaVuSans-63" transform="translate(174.121094 0)"/>
       <use xlink:href="#DejaVuSans-74" transform="translate(229.101562 0)"/>
      </g>
     </g>
    </g>
    <g id="xtick_5">
     <g id="line2d_5">
      <g>
       <use xlink:href="#ma6e7889c20" x="313.68108" y="307.584" style="stroke: #000000; stroke-width: 0.8"/>
      </g>
     </g>
     <g id="text_5">
      <!-- 1 Nov -->
      <g transform="translate(299.151392 322.182437) scale(0.1 -0.1)">
       <defs>
        <path id="DejaVuSans-4e" d="M 628 4666 
L 1478 4666 
L 3547 763 
L 3547 4666 
L 4159 4666 
L 4159 0 
L 3309 0 
L 1241 3903 
L 1241 0 
L 628 0 
L 628 4666 
z
" transform="scale(0.015625)"/>
        <path id="DejaVuSans-6f" d="M 1959 3097 
Q 1497 3097 1228 2736 
Q 959 2375 959 1747 
Q 959 1119 1226 758 
Q 1494 397 1959 397 
Q 2419 397 2687 759 
Q 2956 1122 2956 1747 
Q 2956 2369 2687 2733 
Q 2419 3097 1959 3097 
z
M 1959 3584 
Q 2709 3584 3137 3096 
Q 3566 2609 3566 1747 
Q 3566 888 3137 398 
Q 2709 -91 1959 -91 
Q 1206 -91 779 398 
Q 353 888 353 1747 
Q 353 2609 779 3096 
Q 1206 3584 1959 3584 
z
" transform="scale(0.015625)"/>
        <path id="DejaVuSans-76" d="M 191 3500 
L 800 3500 
L 1894 563 
L 2988 3500 
L 3597 3500 
L 2284 0 
L 1503 0 
L 191 3500 
z
" transform="scale(0.015625)"/>
       </defs>
       <use xlink:href="#DejaVuSans-31"/>
       <use xlink:href="#DejaVuSans-20" transform="translate(63.623047 0)"/>
       <use xlink:href="#DejaVuSans-4e" transform="translate(95.410156 0)"/>
       <use xlink:href="#DejaVuSans-6f" transform="translate(170.214844 0)"/>
       <use xlink:href="#DejaVuSans-76" transform="translate(231.396484 0)"/>
      </g>
     </g>
    </g>
    <g id="xtick_6">
     <g id="line2d_6">
      <g>
       <use xlink:href="#ma6e7889c20" x="369.720414" y="307.584" style="stroke: #000000; stroke-width: 0.8"/>
      </g>
     </g>
     <g id="text_6">
      <!-- 1 Dec -->
      <g transform="translate(355.274321 322.182437) scale(0.1 -0.1)">
       <defs>
        <path id="DejaVuSans-44" d="M 1259 4147 
L 1259 519 
L 2022 519 
Q 2988 519 3436 956 
Q 3884 1394 3884 2338 
Q 3884 3275 3436 3711 
Q 2988 4147 2022 4147 
L 1259 4147 
z
M 628 4666 
L 1925 4666 
Q 3281 4666 3915 4102 
Q 4550 3538 4550 2338 
Q 4550 1131 3912 565 
Q 3275 0 1925 0 
L 628 0 
L 628 4666 
z
" transform="scale(0.015625)"/>
       </defs>
       <use xlink:href="#DejaVuSans-31"/>
       <use xlink:href="#DejaVuSans-20" transform="translate(63.623047 0)"/>
       <use xlink:href="#DejaVuSans-44" transform="translate(95.410156 0)"/>
       <use xlink:href="#DejaVuSans-65" transform="translate(172.412109 0)"/>
       <use xlink:href="#DejaVuSans-63" transform="translate(233.935547 0)"/>
      </g>
     </g>
    </g>
   </g>
   <g id="matplotlib.axis_2">
    <g id="ytick_1">
     <g id="line2d_7">
      <defs>
       <path id="mee095071bb" d="M 0 0 
L -3.5 0 
" style="stroke: #000000; stroke-width: 0.8"/>
      </defs>
      <g>
       <use xlink:href="#mee095071bb" x="57.6" y="307.584" style="stroke: #000000; stroke-width: 0.8"/>
      </g>
     </g>
     <g id="text_7">
      <!-- 0 -->
      <g transform="translate(44.2375 311.383219) scale(0.1 -0.1)">
       <defs>
        <path id="DejaVuSans-30" d="M 2034 4250 
Q 1547 4250 1301 3770 
Q 1056 3291 1056 2328 
Q 1056 1369 1301 889 
Q 1547 409 2034 409 
Q 2525 409 2770 889 
Q 3016 1369 3016 2328 
Q 3016 3291 2770 3770 
Q 2525 4250 2034 4250 
z
M 2034 4750 
Q 2819 4750 3233 4129 
Q 3647 3509 3647 2328 
Q 3647 1150 3233 529 
Q 2819 -91 2034 -91 
Q 1250 -91 836 529 
Q 422 1150 422 2328 
Q 422 3509 836 4129 
Q 1250 4750 2034 4750 
z
" transform="scale(0.015625)"/>
       </defs>
       <use xlink:href="#DejaVuSans-30"/>
      </g>
     </g>
    </g>
    <g id="ytick_2">
     <g id="line2d_8">
      <g>
       <use xlink:href="#mee095071bb" x="57.6" y="269.568" style="stroke: #000000; stroke-width: 0.8"/>
      </g>
     </g>
     <g id="text_8">
      <!-- 1 -->
      <g transform="translate(44.2375 273.367219) scale(0.1 -0.1)">
       <use xlink:href="#DejaVuSans-31"/>
      </g>
     </g>
    </g>
    <g id="ytick_3">
     <g id="line2d_9">
      <g>
       <use xlink:href="#mee095071bb" x="57.6" y="231.552" style="stroke: #000000; stroke-width: 0.8"/>
      </g>
     </g>
     <g id="text_9">
      <!-- 2 -->
      <g transform="translate(44.2375 235.351219) scale(0.1 -0.1)">
       <defs>
        <path id="DejaVuSans-32" d="M 1228 531 
L 3431 531 
L 3431 0 
L 469 0 
L 469 531 
Q 828 903 1448 1529 
Q 2069 2156 2228 2338 
Q 2531 2678 2651 2914 
Q 2772 3150 2772 3378 
Q 2772 3750 2511 3984 
Q 2250 4219 1831 4219 
Q 1534 4219 1204 4116 
Q 875 4013 500 3803 
L 500 4441 
Q 881 4594 1212 4672 
Q 1544 4750 1819 4750 
Q 2544 4750 2975 4387 
Q 3406 4025 3406 3419 
Q 3406 3131 3298 2873 
Q 3191 2616 2906 2266 
Q 2828 2175 2409 1742 
Q 1991 1309 1228 531 
z
" transform="scale(0.015625)"/>
       </defs>
       <use xlink:href="#DejaVuSans-32"/>
      </g>
     </g>
    </g>
    <g id="ytick_4">
     <g id="line2d_10">
      <g>
       <use xlink:href="#mee095071bb" x="57.6" y="193.536" style="stroke: #000000; stroke-width: 0.8"/>
      </g>
     </g>
     <g id="text_10">
      <!-- 3 -->
      <g transform="translate(44.2375 197.335219) scale(0.1 -0.1)">
       <defs>
        <path id="DejaVuSans-33" d="M 2597 2516 
Q 3050 2419 3304 2112 
Q 3559 1806 3559 1356 
Q 3559 666 3084 287 
Q 2609 -91 1734 -91 
Q 1441 -91 1130 -33 
Q 819 25 488 141 
L 488 750 
Q 750 597 1062 519 
Q 1375 441 1716 441 
Q 2309 441 2620 675 
Q 2931 909 2931 1356 
Q 2931 1769 2642 2001 
Q 2353 2234 1838 2234 
L 1294 2234 
L 1294 2753 
L 1863 2753 
Q 2328 2753 2575 2939 
Q 2822 3125 2822 3475 
Q 2822 3834 2567 4026 
Q 2313 4219 1838 4219 
Q 1578 4219 1281 4162 
Q 984 4106 628 3988 
L 628 4550 
Q 988 4650 1302 4700 
Q 1616 4750 1894 4750 
Q 2613 4750 3031 4423 
Q 3450 4097 3450 3541 
Q 3450 3153 3228 2886 
Q 3006 2619 2597 2516 
z
" transform="scale(0.015625)"/>
       </defs>
       <use xlink:href="#DejaVuSans-33"/>
      </g>
     </g>
    </g>
    <g id="ytick_5">
     <g id="line2d_11">
      <g>
       <use xlink:href="#mee095071bb" x="57.6" y="155.52" style="stroke: #000000; stroke-width: 0.8"/>
      </g>
     </g>
     <g id="text_11">
      <!-- 4 -->
      <g transform="translate(44.2375 159.319219) scale(0.1 -0.1)">
       <defs>
        <path id="DejaVuSans-34" d="M 2419 4116 
L 825 1625 
L 2419 1625 
L 2419 4116 
z
M 2253 4666 
L 3047 4666 
L 3047 1625 
L 3713 1625 
L 3713 1100 
L 3047 1100 
L 3047 0 
L 2419 0 
L 2419 1100 
L 313 1100 
L 313 1709 
L 2253 4666 
z
" transform="scale(0.015625)"/>
       </defs>
       <use xlink:href="#DejaVuSans-34"/>
      </g>
     </g>
    </g>
    <g id="ytick_6">
     <g id="line2d_12">
      <g>
       <use xlink:href="#mee095071bb" x="57.6" y="117.504" style="stroke: #000000; stroke-width: 0.8"/>
      </g>
     </g>
     <g id="text_12">
      <!-- 5 -->
      <g transform="translate(44.2375 121.303219) scale(0.1 -0.1)">
       <defs>
        <path id="DejaVuSans-35" d="M 691 4666 
L 3169 4666 
L 3169 4134 
L 1269 4134 
L 1269 2991 
Q 1406 3038 1543 3061 
Q 1681 3084 1819 3084 
Q 2600 3084 3056 2656 
Q 3513 2228 3513 1497 
Q 3513 744 3044 326 
Q 2575 -91 1722 -91 
Q 1428 -91 1123 -41 
Q 819 9 494 109 
L 494 744 
Q 775 591 1075 516 
Q 1375 441 1709 441 
Q 2250 441 2565 725 
Q 2881 1009 2881 1497 
Q 2881 1984 2565 2268 
Q 2250 2553 1709 2553 
Q 1456 2553 1204 2497 
Q 953 2441 691 2322 
L 691 4666 
z
" transform="scale(0.015625)"/>
       </defs>
       <use xlink:href="#DejaVuSans-35"/>
      </g>
     </g>
    </g>
    <g id="ytick_7">
     <g id="line2d_13">
      <g>
       <use xlink:href="#mee095071bb" x="57.6" y="79.488" style="stroke: #000000; stroke-width: 0.8"/>
      </g>
     </g>
     <g id="text_13">
      <!-- 6 -->
      <g transform="translate(44.2375 83.287219) scale(0.1 -0.1)">
       <defs>
        <path id="DejaVuSans-36" d="M 2113 2584 
Q 1688 2584 1439 2293 
Q 1191 2003 1191 1497 
Q 1191 994 1439 701 
Q 1688 409 2113 409 
Q 2538 409 2786 701 
Q 3034 994 3034 1497 
Q 3034 2003 2786 2293 
Q 2538 2584 2113 2584 
z
M 3366 4563 
L 3366 3988 
Q 3128 4100 2886 4159 
Q 2644 4219 2406 4219 
Q 1781 4219 1451 3797 
Q 1122 3375 1075 2522 
Q 1259 2794 1537 2939 
Q 1816 3084 2150 3084 
Q 2853 3084 3261 2657 
Q 3669 2231 3669 1497 
Q 3669 778 3244 343 
Q 2819 -91 2113 -91 
Q 1303 -91 875 529 
Q 447 1150 447 2328 
Q 447 3434 972 4092 
Q 1497 4750 2381 4750 
Q 2619 4750 2861 4703 
Q 3103 4656 3366 4563 
z
" transform="scale(0.015625)"/>
       </defs>
       <use xlink:href="#DejaVuSans-36"/>
      </g>
     </g>
    </g>
    <g id="ytick_8">
     <g id="line2d_14">
      <g>
       <use xlink:href="#mee095071bb" x="57.6" y="41.472" style="stroke: #000000; stroke-width: 0.8"/>
      </g>
     </g>
     <g id="text_14">
      <!-- 7 -->
      <g transform="translate(44.2375 45.271219) scale(0.1 -0.1)">
       <defs>
        <path id="DejaVuSans-37" d="M 525 4666 
L 3525 4666 
L 3525 4397 
L 1831 0 
L 1172 0 
L 2766 4134 
L 525 4134 
L 525 4666 
z
" transform="scale(0.015625)"/>
       </defs>
       <use xlink:href="#DejaVuSans-37"/>
      </g>
     </g>
    </g>
    <g id="text_15">
     <!-- Reproduction number scaling factor -->
     <g transform="translate(38.157812 264.168625) rotate(-90) scale(0.1 -0.1)">
      <defs>
       <path id="DejaVuSans-52" d="M 2841 2188 
Q 3044 2119 3236 1894 
Q 3428 1669 3622 1275 
L 4263 0 
L 3584 0 
L 2988 1197 
Q 2756 1666 2539 1819 
Q 2322 1972 1947 1972 
L 1259 1972 
L 1259 0 
L 628 0 
L 628 4666 
L 2053 4666 
Q 2853 4666 3247 4331 
Q 3641 3997 3641 3322 
Q 3641 2881 3436 2590 
Q 3231 2300 2841 2188 
z
M 1259 4147 
L 1259 2491 
L 2053 2491 
Q 2509 2491 2742 2702 
Q 2975 2913 2975 3322 
Q 2975 3731 2742 3939 
Q 2509 4147 2053 4147 
L 1259 4147 
z
" transform="scale(0.015625)"/>
       <path id="DejaVuSans-72" d="M 2631 2963 
Q 2534 3019 2420 3045 
Q 2306 3072 2169 3072 
Q 1681 3072 1420 2755 
Q 1159 2438 1159 1844 
L 1159 0 
L 581 0 
L 581 3500 
L 1159 3500 
L 1159 2956 
Q 1341 3275 1631 3429 
Q 1922 3584 2338 3584 
Q 2397 3584 2469 3576 
Q 2541 3569 2628 3553 
L 2631 2963 
z
" transform="scale(0.015625)"/>
       <path id="DejaVuSans-64" d="M 2906 2969 
L 2906 4863 
L 3481 4863 
L 3481 0 
L 2906 0 
L 2906 525 
Q 2725 213 2448 61 
Q 2172 -91 1784 -91 
Q 1150 -91 751 415 
Q 353 922 353 1747 
Q 353 2572 751 3078 
Q 1150 3584 1784 3584 
Q 2172 3584 2448 3432 
Q 2725 3281 2906 2969 
z
M 947 1747 
Q 947 1113 1208 752 
Q 1469 391 1925 391 
Q 2381 391 2643 752 
Q 2906 1113 2906 1747 
Q 2906 2381 2643 2742 
Q 2381 3103 1925 3103 
Q 1469 3103 1208 2742 
Q 947 2381 947 1747 
z
" transform="scale(0.015625)"/>
       <path id="DejaVuSans-69" d="M 603 3500 
L 1178 3500 
L 1178 0 
L 603 0 
L 603 3500 
z
M 603 4863 
L 1178 4863 
L 1178 4134 
L 603 4134 
L 603 4863 
z
" transform="scale(0.015625)"/>
       <path id="DejaVuSans-6e" d="M 3513 2113 
L 3513 0 
L 2938 0 
L 2938 2094 
Q 2938 2591 2744 2837 
Q 2550 3084 2163 3084 
Q 1697 3084 1428 2787 
Q 1159 2491 1159 1978 
L 1159 0 
L 581 0 
L 581 3500 
L 1159 3500 
L 1159 2956 
Q 1366 3272 1645 3428 
Q 1925 3584 2291 3584 
Q 2894 3584 3203 3211 
Q 3513 2838 3513 2113 
z
" transform="scale(0.015625)"/>
       <path id="DejaVuSans-6d" d="M 3328 2828 
Q 3544 3216 3844 3400 
Q 4144 3584 4550 3584 
Q 5097 3584 5394 3201 
Q 5691 2819 5691 2113 
L 5691 0 
L 5113 0 
L 5113 2094 
Q 5113 2597 4934 2840 
Q 4756 3084 4391 3084 
Q 3944 3084 3684 2787 
Q 3425 2491 3425 1978 
L 3425 0 
L 2847 0 
L 2847 2094 
Q 2847 2600 2669 2842 
Q 2491 3084 2119 3084 
Q 1678 3084 1418 2786 
Q 1159 2488 1159 1978 
L 1159 0 
L 581 0 
L 581 3500 
L 1159 3500 
L 1159 2956 
Q 1356 3278 1631 3431 
Q 1906 3584 2284 3584 
Q 2666 3584 2933 3390 
Q 3200 3197 3328 2828 
z
" transform="scale(0.015625)"/>
       <path id="DejaVuSans-62" d="M 3116 1747 
Q 3116 2381 2855 2742 
Q 2594 3103 2138 3103 
Q 1681 3103 1420 2742 
Q 1159 2381 1159 1747 
Q 1159 1113 1420 752 
Q 1681 391 2138 391 
Q 2594 391 2855 752 
Q 3116 1113 3116 1747 
z
M 1159 2969 
Q 1341 3281 1617 3432 
Q 1894 3584 2278 3584 
Q 2916 3584 3314 3078 
Q 3713 2572 3713 1747 
Q 3713 922 3314 415 
Q 2916 -91 2278 -91 
Q 1894 -91 1617 61 
Q 1341 213 1159 525 
L 1159 0 
L 581 0 
L 581 4863 
L 1159 4863 
L 1159 2969 
z
" transform="scale(0.015625)"/>
       <path id="DejaVuSans-73" d="M 2834 3397 
L 2834 2853 
Q 2591 2978 2328 3040 
Q 2066 3103 1784 3103 
Q 1356 3103 1142 2972 
Q 928 2841 928 2578 
Q 928 2378 1081 2264 
Q 1234 2150 1697 2047 
L 1894 2003 
Q 2506 1872 2764 1633 
Q 3022 1394 3022 966 
Q 3022 478 2636 193 
Q 2250 -91 1575 -91 
Q 1294 -91 989 -36 
Q 684 19 347 128 
L 347 722 
Q 666 556 975 473 
Q 1284 391 1588 391 
Q 1994 391 2212 530 
Q 2431 669 2431 922 
Q 2431 1156 2273 1281 
Q 2116 1406 1581 1522 
L 1381 1569 
Q 847 1681 609 1914 
Q 372 2147 372 2553 
Q 372 3047 722 3315 
Q 1072 3584 1716 3584 
Q 2034 3584 2315 3537 
Q 2597 3491 2834 3397 
z
" transform="scale(0.015625)"/>
       <path id="DejaVuSans-61" d="M 2194 1759 
Q 1497 1759 1228 1600 
Q 959 1441 959 1056 
Q 959 750 1161 570 
Q 1363 391 1709 391 
Q 2188 391 2477 730 
Q 2766 1069 2766 1631 
L 2766 1759 
L 2194 1759 
z
M 3341 1997 
L 3341 0 
L 2766 0 
L 2766 531 
Q 2569 213 2275 61 
Q 1981 -91 1556 -91 
Q 1019 -91 701 211 
Q 384 513 384 1019 
Q 384 1609 779 1909 
Q 1175 2209 1959 2209 
L 2766 2209 
L 2766 2266 
Q 2766 2663 2505 2880 
Q 2244 3097 1772 3097 
Q 1472 3097 1187 3025 
Q 903 2953 641 2809 
L 641 3341 
Q 956 3463 1253 3523 
Q 1550 3584 1831 3584 
Q 2591 3584 2966 3190 
Q 3341 2797 3341 1997 
z
" transform="scale(0.015625)"/>
       <path id="DejaVuSans-66" d="M 2375 4863 
L 2375 4384 
L 1825 4384 
Q 1516 4384 1395 4259 
Q 1275 4134 1275 3809 
L 1275 3500 
L 2222 3500 
L 2222 3053 
L 1275 3053 
L 1275 0 
L 697 0 
L 697 3053 
L 147 3053 
L 147 3500 
L 697 3500 
L 697 3744 
Q 697 4328 969 4595 
Q 1241 4863 1831 4863 
L 2375 4863 
z
" transform="scale(0.015625)"/>
      </defs>
      <use xlink:href="#DejaVuSans-52"/>
      <use xlink:href="#DejaVuSans-65" transform="translate(64.982422 0)"/>
      <use xlink:href="#DejaVuSans-70" transform="translate(126.505859 0)"/>
      <use xlink:href="#DejaVuSans-72" transform="translate(189.982422 0)"/>
      <use xlink:href="#DejaVuSans-6f" transform="translate(228.845703 0)"/>
      <use xlink:href="#DejaVuSans-64" transform="translate(290.027344 0)"/>
      <use xlink:href="#DejaVuSans-75" transform="translate(353.503906 0)"/>
      <use xlink:href="#DejaVuSans-63" transform="translate(416.882812 0)"/>
      <use xlink:href="#DejaVuSans-74" transform="translate(471.863281 0)"/>
      <use xlink:href="#DejaVuSans-69" transform="translate(511.072266 0)"/>
      <use xlink:href="#DejaVuSans-6f" transform="translate(538.855469 0)"/>
      <use xlink:href="#DejaVuSans-6e" transform="translate(600.037109 0)"/>
      <use xlink:href="#DejaVuSans-20" transform="translate(663.416016 0)"/>
      <use xlink:href="#DejaVuSans-6e" transform="translate(695.203125 0)"/>
      <use xlink:href="#DejaVuSans-75" transform="translate(758.582031 0)"/>
      <use xlink:href="#DejaVuSans-6d" transform="translate(821.960938 0)"/>
      <use xlink:href="#DejaVuSans-62" transform="translate(919.373047 0)"/>
      <use xlink:href="#DejaVuSans-65" transform="translate(982.849609 0)"/>
      <use xlink:href="#DejaVuSans-72" transform="translate(1044.373047 0)"/>
      <use xlink:href="#DejaVuSans-20" transform="translate(1085.486328 0)"/>
      <use xlink:href="#DejaVuSans-73" transform="translate(1117.273438 0)"/>
      <use xlink:href="#DejaVuSans-63" transform="translate(1169.373047 0)"/>
      <use xlink:href="#DejaVuSans-61" transform="translate(1224.353516 0)"/>
      <use xlink:href="#DejaVuSans-6c" transform="translate(1285.632812 0)"/>
      <use xlink:href="#DejaVuSans-69" transform="translate(1313.416016 0)"/>
      <use xlink:href="#DejaVuSans-6e" transform="translate(1341.199219 0)"/>
      <use xlink:href="#DejaVuSans-67" transform="translate(1404.578125 0)"/>
      <use xlink:href="#DejaVuSans-20" transform="translate(1468.054688 0)"/>
      <use xlink:href="#DejaVuSans-66" transform="translate(1499.841797 0)"/>
      <use xlink:href="#DejaVuSans-61" transform="translate(1535.046875 0)"/>
      <use xlink:href="#DejaVuSans-63" transform="translate(1596.326172 0)"/>
      <use xlink:href="#DejaVuSans-74" transform="translate(1651.306641 0)"/>
      <use xlink:href="#DejaVuSans-6f" transform="translate(1690.515625 0)"/>
      <use xlink:href="#DejaVuSans-72" transform="translate(1751.697266 0)"/>
     </g>
    </g>
   </g>
   <g id="line2d_15">
    <path d="M 74.579918 176.847692 
L 76.447896 178.550228 
L 78.315874 185.88211 
L 80.183852 198.779875 
L 82.05183 210.601118 
L 83.919808 221.172606 
L 85.787785 230.108765 
L 87.655763 237.930664 
L 89.523741 243.957933 
L 93.259697 253.340945 
L 95.127674 256.667075 
L 96.995652 259.144243 
L 98.86363 260.500491 
L 100.731608 261.076212 
L 102.599586 260.593166 
L 104.467564 259.454132 
L 106.335541 257.482261 
L 108.203519 254.836666 
L 110.071497 251.481815 
L 111.939475 248.808794 
L 113.807453 245.398959 
L 115.67543 241.256514 
L 117.543408 237.739969 
L 119.411386 233.81713 
L 121.279364 231.316152 
L 123.147342 228.131989 
L 125.01532 226.484115 
L 126.883297 224.077529 
L 128.751275 223.332366 
L 130.619253 223.069428 
L 132.487231 222.242193 
L 134.355209 222.237987 
L 136.223187 223.533546 
L 138.091164 223.063536 
L 139.959142 222.750986 
L 141.82712 220.730555 
L 143.695098 216.081543 
L 145.563076 215.428955 
L 147.431053 216.630652 
L 149.299031 217.371397 
L 151.167009 217.76665 
L 153.034987 217.179974 
L 154.902965 215.599082 
L 156.770943 217.475481 
L 158.63892 215.530773 
L 160.506898 211.51228 
L 162.374876 204.614042 
L 164.242854 201.382495 
L 166.110832 198.6263 
L 167.978809 196.180201 
L 169.846787 189.113614 
L 171.714765 183.525947 
L 173.582743 177.398496 
L 175.450721 182.027761 
L 177.318699 187.788151 
L 179.186676 201.972725 
L 181.054654 215.301099 
L 184.79061 234.536415 
L 186.658588 246.199626 
L 188.526566 252.419835 
L 190.394543 253.246279 
L 192.262521 257.834863 
L 194.130499 257.922392 
L 195.998477 256.53566 
L 197.866455 249.437221 
L 199.734432 244.537824 
L 203.470388 235.635347 
L 207.206344 220.715914 
L 209.074322 218.936663 
L 210.942299 223.589105 
L 212.810277 224.432613 
L 214.678255 232.142695 
L 216.546233 227.952535 
L 218.414211 235.808028 
L 220.282189 247.509585 
L 222.150166 254.713276 
L 224.018144 257.992858 
L 225.886122 256.058493 
L 227.7541 251.025114 
L 229.622078 245.303983 
L 231.490055 248.02528 
L 233.358033 249.843135 
L 235.226011 254.163662 
L 237.093989 257.063577 
L 238.961967 260.536898 
L 240.829945 263.431127 
L 242.697922 264.715034 
L 244.5659 265.401137 
L 246.433878 263.712628 
L 248.301856 260.814573 
L 250.169834 257.26164 
L 252.037811 254.958711 
L 253.905789 251.849201 
L 255.773767 250.633486 
L 257.641745 250.116247 
L 259.509723 247.929249 
L 261.377701 244.049615 
L 263.245678 239.818747 
L 265.113656 238.197064 
L 266.981634 237.239361 
L 268.849612 235.144952 
L 270.71759 233.646858 
L 272.585568 231.395063 
L 274.453545 230.581121 
L 278.189501 226.37648 
L 280.057479 223.49587 
L 281.925457 221.665453 
L 283.793434 221.542682 
L 287.52939 220.736528 
L 289.397368 218.879414 
L 291.265346 219.56708 
L 293.133324 219.946523 
L 296.869279 219.64843 
L 298.737257 219.47629 
L 300.605235 218.773787 
L 302.473213 217.628328 
L 304.341191 216.07533 
L 306.209168 214.958194 
L 308.077146 212.731645 
L 309.945124 213.477775 
L 311.813102 213.776818 
L 313.68108 213.788489 
L 315.549057 213.561968 
L 317.417035 213.630209 
L 319.285013 213.407028 
L 321.152991 213.309107 
L 323.020969 214.916099 
L 324.888947 217.47033 
L 326.756924 219.209012 
L 328.624902 220.568112 
L 332.360858 224.043147 
L 334.228836 225.316915 
L 337.964791 228.316063 
L 339.832769 229.042139 
L 341.700747 230.33661 
L 343.568725 230.996196 
L 347.30468 232.897959 
L 349.172658 233.478984 
L 351.040636 233.900555 
L 356.64457 235.943271 
L 358.512547 236.242738 
L 360.380525 236.838164 
L 362.248503 237.221738 
L 367.852436 238.857648 
L 369.720414 239.648014 
L 371.588392 239.771796 
L 373.45637 240.304678 
L 375.324348 240.516056 
L 377.192326 240.900976 
L 379.060303 241.409091 
L 380.928281 241.416256 
L 386.532215 242.877833 
L 388.400192 242.971219 
L 390.26817 243.29636 
L 392.136148 243.742615 
L 395.872104 245.120096 
L 397.740082 245.432686 
L 397.740082 245.432686 
" clip-path="url(#pfac6f032f3)" style="fill: none; stroke: #1f77b4; stroke-width: 1.5; stroke-linecap: square"/>
   </g>
   <g id="patch_3">
    <path d="M 57.6 307.584 
L 57.6 41.472 
" style="fill: none; stroke: #000000; stroke-width: 0.8; stroke-linejoin: miter; stroke-linecap: square"/>
   </g>
   <g id="patch_4">
    <path d="M 414.72 307.584 
L 414.72 41.472 
" style="fill: none; stroke: #000000; stroke-width: 0.8; stroke-linejoin: miter; stroke-linecap: square"/>
   </g>
   <g id="patch_5">
    <path d="M 57.6 307.584 
L 414.72 307.584 
" style="fill: none; stroke: #000000; stroke-width: 0.8; stroke-linejoin: miter; stroke-linecap: square"/>
   </g>
   <g id="patch_6">
    <path d="M 57.6 41.472 
L 414.72 41.472 
" style="fill: none; stroke: #000000; stroke-width: 0.8; stroke-linejoin: miter; stroke-linecap: square"/>
   </g>
  </g>
  <g id="axes_2">
   <g id="patch_7">
    <path d="M 73.832727 307.584 
L 75.32711 307.584 
L 75.32711 272.1024 
L 73.832727 272.1024 
z
" clip-path="url(#pfac6f032f3)" style="fill: #7f7f7f; opacity: 0.5"/>
   </g>
   <g id="patch_8">
    <path d="M 75.700705 307.584 
L 77.195087 307.584 
L 77.195087 272.1024 
L 75.700705 272.1024 
z
" clip-path="url(#pfac6f032f3)" style="fill: #7f7f7f; opacity: 0.5"/>
   </g>
   <g id="patch_9">
    <path d="M 77.568683 307.584 
L 79.063065 307.584 
L 79.063065 272.1024 
L 77.568683 272.1024 
z
" clip-path="url(#pfac6f032f3)" style="fill: #7f7f7f; opacity: 0.5"/>
   </g>
   <g id="patch_10">
    <path d="M 79.436661 307.584 
L 80.931043 307.584 
L 80.931043 307.584 
L 79.436661 307.584 
z
" clip-path="url(#pfac6f032f3)" style="fill: #7f7f7f; opacity: 0.5"/>
   </g>
   <g id="patch_11">
    <path d="M 81.304639 307.584 
L 82.799021 307.584 
L 82.799021 307.584 
L 81.304639 307.584 
z
" clip-path="url(#pfac6f032f3)" style="fill: #7f7f7f; opacity: 0.5"/>
   </g>
   <g id="patch_12">
    <path d="M 83.172616 307.584 
L 84.666999 307.584 
L 84.666999 307.584 
L 83.172616 307.584 
z
" clip-path="url(#pfac6f032f3)" style="fill: #7f7f7f; opacity: 0.5"/>
   </g>
   <g id="patch_13">
    <path d="M 85.040594 307.584 
L 86.534976 307.584 
L 86.534976 307.584 
L 85.040594 307.584 
z
" clip-path="url(#pfac6f032f3)" style="fill: #7f7f7f; opacity: 0.5"/>
   </g>
   <g id="patch_14">
    <path d="M 86.908572 307.584 
L 88.402954 307.584 
L 88.402954 307.584 
L 86.908572 307.584 
z
" clip-path="url(#pfac6f032f3)" style="fill: #7f7f7f; opacity: 0.5"/>
   </g>
   <g id="patch_15">
    <path d="M 88.77655 307.584 
L 90.270932 307.584 
L 90.270932 307.584 
L 88.77655 307.584 
z
" clip-path="url(#pfac6f032f3)" style="fill: #7f7f7f; opacity: 0.5"/>
   </g>
   <g id="patch_16">
    <path d="M 90.644528 307.584 
L 92.13891 307.584 
L 92.13891 289.8432 
L 90.644528 289.8432 
z
" clip-path="url(#pfac6f032f3)" style="fill: #7f7f7f; opacity: 0.5"/>
   </g>
   <g id="patch_17">
    <path d="M 92.512505 307.584 
L 94.006888 307.584 
L 94.006888 307.584 
L 92.512505 307.584 
z
" clip-path="url(#pfac6f032f3)" style="fill: #7f7f7f; opacity: 0.5"/>
   </g>
   <g id="patch_18">
    <path d="M 94.380483 307.584 
L 95.874866 307.584 
L 95.874866 307.584 
L 94.380483 307.584 
z
" clip-path="url(#pfac6f032f3)" style="fill: #7f7f7f; opacity: 0.5"/>
   </g>
   <g id="patch_19">
    <path d="M 96.248461 307.584 
L 97.742843 307.584 
L 97.742843 307.584 
L 96.248461 307.584 
z
" clip-path="url(#pfac6f032f3)" style="fill: #7f7f7f; opacity: 0.5"/>
   </g>
   <g id="patch_20">
    <path d="M 98.116439 307.584 
L 99.610821 307.584 
L 99.610821 307.584 
L 98.116439 307.584 
z
" clip-path="url(#pfac6f032f3)" style="fill: #7f7f7f; opacity: 0.5"/>
   </g>
   <g id="patch_21">
    <path d="M 99.984417 307.584 
L 101.478799 307.584 
L 101.478799 307.584 
L 99.984417 307.584 
z
" clip-path="url(#pfac6f032f3)" style="fill: #7f7f7f; opacity: 0.5"/>
   </g>
   <g id="patch_22">
    <path d="M 101.852395 307.584 
L 103.346777 307.584 
L 103.346777 307.584 
L 101.852395 307.584 
z
" clip-path="url(#pfac6f032f3)" style="fill: #7f7f7f; opacity: 0.5"/>
   </g>
   <g id="patch_23">
    <path d="M 103.720372 307.584 
L 105.214755 307.584 
L 105.214755 307.584 
L 103.720372 307.584 
z
" clip-path="url(#pfac6f032f3)" style="fill: #7f7f7f; opacity: 0.5"/>
   </g>
   <g id="patch_24">
    <path d="M 105.58835 307.584 
L 107.082733 307.584 
L 107.082733 307.584 
L 105.58835 307.584 
z
" clip-path="url(#pfac6f032f3)" style="fill: #7f7f7f; opacity: 0.5"/>
   </g>
   <g id="patch_25">
    <path d="M 107.456328 307.584 
L 108.95071 307.584 
L 108.95071 307.584 
L 107.456328 307.584 
z
" clip-path="url(#pfac6f032f3)" style="fill: #7f7f7f; opacity: 0.5"/>
   </g>
   <g id="patch_26">
    <path d="M 109.324306 307.584 
L 110.818688 307.584 
L 110.818688 289.8432 
L 109.324306 289.8432 
z
" clip-path="url(#pfac6f032f3)" style="fill: #7f7f7f; opacity: 0.5"/>
   </g>
   <g id="patch_27">
    <path d="M 111.192284 307.584 
L 112.686666 307.584 
L 112.686666 307.584 
L 111.192284 307.584 
z
" clip-path="url(#pfac6f032f3)" style="fill: #7f7f7f; opacity: 0.5"/>
   </g>
   <g id="patch_28">
    <path d="M 113.060262 307.584 
L 114.554644 307.584 
L 114.554644 307.584 
L 113.060262 307.584 
z
" clip-path="url(#pfac6f032f3)" style="fill: #7f7f7f; opacity: 0.5"/>
   </g>
   <g id="patch_29">
    <path d="M 114.928239 307.584 
L 116.422622 307.584 
L 116.422622 289.8432 
L 114.928239 289.8432 
z
" clip-path="url(#pfac6f032f3)" style="fill: #7f7f7f; opacity: 0.5"/>
   </g>
   <g id="patch_30">
    <path d="M 116.796217 307.584 
L 118.290599 307.584 
L 118.290599 307.584 
L 116.796217 307.584 
z
" clip-path="url(#pfac6f032f3)" style="fill: #7f7f7f; opacity: 0.5"/>
   </g>
   <g id="patch_31">
    <path d="M 118.664195 307.584 
L 120.158577 307.584 
L 120.158577 289.8432 
L 118.664195 289.8432 
z
" clip-path="url(#pfac6f032f3)" style="fill: #7f7f7f; opacity: 0.5"/>
   </g>
   <g id="patch_32">
    <path d="M 120.532173 307.584 
L 122.026555 307.584 
L 122.026555 307.584 
L 120.532173 307.584 
z
" clip-path="url(#pfac6f032f3)" style="fill: #7f7f7f; opacity: 0.5"/>
   </g>
   <g id="patch_33">
    <path d="M 122.400151 307.584 
L 123.894533 307.584 
L 123.894533 289.8432 
L 122.400151 289.8432 
z
" clip-path="url(#pfac6f032f3)" style="fill: #7f7f7f; opacity: 0.5"/>
   </g>
   <g id="patch_34">
    <path d="M 124.268128 307.584 
L 125.762511 307.584 
L 125.762511 307.584 
L 124.268128 307.584 
z
" clip-path="url(#pfac6f032f3)" style="fill: #7f7f7f; opacity: 0.5"/>
   </g>
   <g id="patch_35">
    <path d="M 126.136106 307.584 
L 127.630489 307.584 
L 127.630489 289.8432 
L 126.136106 289.8432 
z
" clip-path="url(#pfac6f032f3)" style="fill: #7f7f7f; opacity: 0.5"/>
   </g>
   <g id="patch_36">
    <path d="M 128.004084 307.584 
L 129.498466 307.584 
L 129.498466 289.8432 
L 128.004084 289.8432 
z
" clip-path="url(#pfac6f032f3)" style="fill: #7f7f7f; opacity: 0.5"/>
   </g>
   <g id="patch_37">
    <path d="M 129.872062 307.584 
L 131.366444 307.584 
L 131.366444 307.584 
L 129.872062 307.584 
z
" clip-path="url(#pfac6f032f3)" style="fill: #7f7f7f; opacity: 0.5"/>
   </g>
   <g id="patch_38">
    <path d="M 131.74004 307.584 
L 133.234422 307.584 
L 133.234422 289.8432 
L 131.74004 289.8432 
z
" clip-path="url(#pfac6f032f3)" style="fill: #7f7f7f; opacity: 0.5"/>
   </g>
   <g id="patch_39">
    <path d="M 133.608018 307.584 
L 135.1024 307.584 
L 135.1024 289.8432 
L 133.608018 289.8432 
z
" clip-path="url(#pfac6f032f3)" style="fill: #7f7f7f; opacity: 0.5"/>
   </g>
   <g id="patch_40">
    <path d="M 135.475995 307.584 
L 136.970378 307.584 
L 136.970378 307.584 
L 135.475995 307.584 
z
" clip-path="url(#pfac6f032f3)" style="fill: #7f7f7f; opacity: 0.5"/>
   </g>
   <g id="patch_41">
    <path d="M 137.343973 307.584 
L 138.838355 307.584 
L 138.838355 289.8432 
L 137.343973 289.8432 
z
" clip-path="url(#pfac6f032f3)" style="fill: #7f7f7f; opacity: 0.5"/>
   </g>
   <g id="patch_42">
    <path d="M 139.211951 307.584 
L 140.706333 307.584 
L 140.706333 307.584 
L 139.211951 307.584 
z
" clip-path="url(#pfac6f032f3)" style="fill: #7f7f7f; opacity: 0.5"/>
   </g>
   <g id="patch_43">
    <path d="M 141.079929 307.584 
L 142.574311 307.584 
L 142.574311 307.584 
L 141.079929 307.584 
z
" clip-path="url(#pfac6f032f3)" style="fill: #7f7f7f; opacity: 0.5"/>
   </g>
   <g id="patch_44">
    <path d="M 142.947907 307.584 
L 144.442289 307.584 
L 144.442289 254.3616 
L 142.947907 254.3616 
z
" clip-path="url(#pfac6f032f3)" style="fill: #7f7f7f; opacity: 0.5"/>
   </g>
   <g id="patch_45">
    <path d="M 144.815885 307.584 
L 146.310267 307.584 
L 146.310267 272.1024 
L 144.815885 272.1024 
z
" clip-path="url(#pfac6f032f3)" style="fill: #7f7f7f; opacity: 0.5"/>
   </g>
   <g id="patch_46">
    <path d="M 146.683862 307.584 
L 148.178245 307.584 
L 148.178245 289.8432 
L 146.683862 289.8432 
z
" clip-path="url(#pfac6f032f3)" style="fill: #7f7f7f; opacity: 0.5"/>
   </g>
   <g id="patch_47">
    <path d="M 148.55184 307.584 
L 150.046222 307.584 
L 150.046222 289.8432 
L 148.55184 289.8432 
z
" clip-path="url(#pfac6f032f3)" style="fill: #7f7f7f; opacity: 0.5"/>
   </g>
   <g id="patch_48">
    <path d="M 150.419818 307.584 
L 151.9142 307.584 
L 151.9142 289.8432 
L 150.419818 289.8432 
z
" clip-path="url(#pfac6f032f3)" style="fill: #7f7f7f; opacity: 0.5"/>
   </g>
   <g id="patch_49">
    <path d="M 152.287796 307.584 
L 153.782178 307.584 
L 153.782178 289.8432 
L 152.287796 289.8432 
z
" clip-path="url(#pfac6f032f3)" style="fill: #7f7f7f; opacity: 0.5"/>
   </g>
   <g id="patch_50">
    <path d="M 154.155774 307.584 
L 155.650156 307.584 
L 155.650156 254.3616 
L 154.155774 254.3616 
z
" clip-path="url(#pfac6f032f3)" style="fill: #7f7f7f; opacity: 0.5"/>
   </g>
   <g id="patch_51">
    <path d="M 156.023751 307.584 
L 157.518134 307.584 
L 157.518134 307.584 
L 156.023751 307.584 
z
" clip-path="url(#pfac6f032f3)" style="fill: #7f7f7f; opacity: 0.5"/>
   </g>
   <g id="patch_52">
    <path d="M 157.891729 307.584 
L 159.386112 307.584 
L 159.386112 289.8432 
L 157.891729 289.8432 
z
" clip-path="url(#pfac6f032f3)" style="fill: #7f7f7f; opacity: 0.5"/>
   </g>
   <g id="patch_53">
    <path d="M 159.759707 307.584 
L 161.254089 307.584 
L 161.254089 289.8432 
L 159.759707 289.8432 
z
" clip-path="url(#pfac6f032f3)" style="fill: #7f7f7f; opacity: 0.5"/>
   </g>
   <g id="patch_54">
    <path d="M 161.627685 307.584 
L 163.122067 307.584 
L 163.122067 236.6208 
L 161.627685 236.6208 
z
" clip-path="url(#pfac6f032f3)" style="fill: #7f7f7f; opacity: 0.5"/>
   </g>
   <g id="patch_55">
    <path d="M 163.495663 307.584 
L 164.990045 307.584 
L 164.990045 254.3616 
L 163.495663 254.3616 
z
" clip-path="url(#pfac6f032f3)" style="fill: #7f7f7f; opacity: 0.5"/>
   </g>
   <g id="patch_56">
    <path d="M 165.363641 307.584 
L 166.858023 307.584 
L 166.858023 254.3616 
L 165.363641 254.3616 
z
" clip-path="url(#pfac6f032f3)" style="fill: #7f7f7f; opacity: 0.5"/>
   </g>
   <g id="patch_57">
    <path d="M 167.231618 307.584 
L 168.726001 307.584 
L 168.726001 272.1024 
L 167.231618 272.1024 
z
" clip-path="url(#pfac6f032f3)" style="fill: #7f7f7f; opacity: 0.5"/>
   </g>
   <g id="patch_58">
    <path d="M 169.099596 307.584 
L 170.593978 307.584 
L 170.593978 236.6208 
L 169.099596 236.6208 
z
" clip-path="url(#pfac6f032f3)" style="fill: #7f7f7f; opacity: 0.5"/>
   </g>
   <g id="patch_59">
    <path d="M 170.967574 307.584 
L 172.461956 307.584 
L 172.461956 236.6208 
L 170.967574 236.6208 
z
" clip-path="url(#pfac6f032f3)" style="fill: #7f7f7f; opacity: 0.5"/>
   </g>
   <g id="patch_60">
    <path d="M 172.835552 307.584 
L 174.329934 307.584 
L 174.329934 165.6576 
L 172.835552 165.6576 
z
" clip-path="url(#pfac6f032f3)" style="fill: #7f7f7f; opacity: 0.5"/>
   </g>
   <g id="patch_61">
    <path d="M 174.70353 307.584 
L 176.197912 307.584 
L 176.197912 218.88 
L 174.70353 218.88 
z
" clip-path="url(#pfac6f032f3)" style="fill: #7f7f7f; opacity: 0.5"/>
   </g>
   <g id="patch_62">
    <path d="M 176.571507 307.584 
L 178.06589 307.584 
L 178.06589 165.6576 
L 176.571507 165.6576 
z
" clip-path="url(#pfac6f032f3)" style="fill: #7f7f7f; opacity: 0.5"/>
   </g>
   <g id="patch_63">
    <path d="M 178.439485 307.584 
L 179.933868 307.584 
L 179.933868 218.88 
L 178.439485 218.88 
z
" clip-path="url(#pfac6f032f3)" style="fill: #7f7f7f; opacity: 0.5"/>
   </g>
   <g id="patch_64">
    <path d="M 180.307463 307.584 
L 181.801845 307.584 
L 181.801845 236.6208 
L 180.307463 236.6208 
z
" clip-path="url(#pfac6f032f3)" style="fill: #7f7f7f; opacity: 0.5"/>
   </g>
   <g id="patch_65">
    <path d="M 182.175441 307.584 
L 183.669823 307.584 
L 183.669823 218.88 
L 182.175441 218.88 
z
" clip-path="url(#pfac6f032f3)" style="fill: #7f7f7f; opacity: 0.5"/>
   </g>
   <g id="patch_66">
    <path d="M 184.043419 307.584 
L 185.537801 307.584 
L 185.537801 183.3984 
L 184.043419 183.3984 
z
" clip-path="url(#pfac6f032f3)" style="fill: #7f7f7f; opacity: 0.5"/>
   </g>
   <g id="patch_67">
    <path d="M 185.911397 307.584 
L 187.405779 307.584 
L 187.405779 272.1024 
L 185.911397 272.1024 
z
" clip-path="url(#pfac6f032f3)" style="fill: #7f7f7f; opacity: 0.5"/>
   </g>
   <g id="patch_68">
    <path d="M 187.779374 307.584 
L 189.273757 307.584 
L 189.273757 289.8432 
L 187.779374 289.8432 
z
" clip-path="url(#pfac6f032f3)" style="fill: #7f7f7f; opacity: 0.5"/>
   </g>
   <g id="patch_69">
    <path d="M 189.647352 307.584 
L 191.141734 307.584 
L 191.141734 165.6576 
L 189.647352 165.6576 
z
" clip-path="url(#pfac6f032f3)" style="fill: #7f7f7f; opacity: 0.5"/>
   </g>
   <g id="patch_70">
    <path d="M 191.51533 307.584 
L 193.009712 307.584 
L 193.009712 272.1024 
L 191.51533 272.1024 
z
" clip-path="url(#pfac6f032f3)" style="fill: #7f7f7f; opacity: 0.5"/>
   </g>
   <g id="patch_71">
    <path d="M 193.383308 307.584 
L 194.87769 307.584 
L 194.87769 236.6208 
L 193.383308 236.6208 
z
" clip-path="url(#pfac6f032f3)" style="fill: #7f7f7f; opacity: 0.5"/>
   </g>
   <g id="patch_72">
    <path d="M 195.251286 307.584 
L 196.745668 307.584 
L 196.745668 272.1024 
L 195.251286 272.1024 
z
" clip-path="url(#pfac6f032f3)" style="fill: #7f7f7f; opacity: 0.5"/>
   </g>
   <g id="patch_73">
    <path d="M 197.119264 307.584 
L 198.613646 307.584 
L 198.613646 147.9168 
L 197.119264 147.9168 
z
" clip-path="url(#pfac6f032f3)" style="fill: #7f7f7f; opacity: 0.5"/>
   </g>
   <g id="patch_74">
    <path d="M 198.987241 307.584 
L 200.481624 307.584 
L 200.481624 165.6576 
L 198.987241 165.6576 
z
" clip-path="url(#pfac6f032f3)" style="fill: #7f7f7f; opacity: 0.5"/>
   </g>
   <g id="patch_75">
    <path d="M 200.855219 307.584 
L 202.349601 307.584 
L 202.349601 165.6576 
L 200.855219 165.6576 
z
" clip-path="url(#pfac6f032f3)" style="fill: #7f7f7f; opacity: 0.5"/>
   </g>
   <g id="patch_76">
    <path d="M 202.723197 307.584 
L 204.217579 307.584 
L 204.217579 183.3984 
L 202.723197 183.3984 
z
" clip-path="url(#pfac6f032f3)" style="fill: #7f7f7f; opacity: 0.5"/>
   </g>
   <g id="patch_77">
    <path d="M 204.591175 307.584 
L 206.085557 307.584 
L 206.085557 147.9168 
L 204.591175 147.9168 
z
" clip-path="url(#pfac6f032f3)" style="fill: #7f7f7f; opacity: 0.5"/>
   </g>
   <g id="patch_78">
    <path d="M 206.459153 307.584 
L 207.953535 307.584 
L 207.953535 94.6944 
L 206.459153 94.6944 
z
" clip-path="url(#pfac6f032f3)" style="fill: #7f7f7f; opacity: 0.5"/>
   </g>
   <g id="patch_79">
    <path d="M 208.32713 307.584 
L 209.821513 307.584 
L 209.821513 94.6944 
L 208.32713 94.6944 
z
" clip-path="url(#pfac6f032f3)" style="fill: #7f7f7f; opacity: 0.5"/>
   </g>
   <g id="patch_80">
    <path d="M 210.195108 307.584 
L 211.689491 307.584 
L 211.689491 183.3984 
L 210.195108 183.3984 
z
" clip-path="url(#pfac6f032f3)" style="fill: #7f7f7f; opacity: 0.5"/>
   </g>
   <g id="patch_81">
    <path d="M 212.063086 307.584 
L 213.557468 307.584 
L 213.557468 94.6944 
L 212.063086 94.6944 
z
" clip-path="url(#pfac6f032f3)" style="fill: #7f7f7f; opacity: 0.5"/>
   </g>
   <g id="patch_82">
    <path d="M 213.931064 307.584 
L 215.425446 307.584 
L 215.425446 272.1024 
L 213.931064 272.1024 
z
" clip-path="url(#pfac6f032f3)" style="fill: #7f7f7f; opacity: 0.5"/>
   </g>
   <g id="patch_83">
    <path d="M 215.799042 307.584 
L 217.293424 307.584 
L 217.293424 41.472 
L 215.799042 41.472 
z
" clip-path="url(#pfac6f032f3)" style="fill: #7f7f7f; opacity: 0.5"/>
   </g>
   <g id="patch_84">
    <path d="M 217.66702 307.584 
L 219.161402 307.584 
L 219.161402 112.4352 
L 217.66702 112.4352 
z
" clip-path="url(#pfac6f032f3)" style="fill: #7f7f7f; opacity: 0.5"/>
   </g>
   <g id="patch_85">
    <path d="M 219.534997 307.584 
L 221.02938 307.584 
L 221.02938 218.88 
L 219.534997 218.88 
z
" clip-path="url(#pfac6f032f3)" style="fill: #7f7f7f; opacity: 0.5"/>
   </g>
   <g id="patch_86">
    <path d="M 221.402975 307.584 
L 222.897357 307.584 
L 222.897357 236.6208 
L 221.402975 236.6208 
z
" clip-path="url(#pfac6f032f3)" style="fill: #7f7f7f; opacity: 0.5"/>
   </g>
   <g id="patch_87">
    <path d="M 223.270953 307.584 
L 224.765335 307.584 
L 224.765335 272.1024 
L 223.270953 272.1024 
z
" clip-path="url(#pfac6f032f3)" style="fill: #7f7f7f; opacity: 0.5"/>
   </g>
   <g id="patch_88">
    <path d="M 225.138931 307.584 
L 226.633313 307.584 
L 226.633313 236.6208 
L 225.138931 236.6208 
z
" clip-path="url(#pfac6f032f3)" style="fill: #7f7f7f; opacity: 0.5"/>
   </g>
   <g id="patch_89">
    <path d="M 227.006909 307.584 
L 228.501291 307.584 
L 228.501291 183.3984 
L 227.006909 183.3984 
z
" clip-path="url(#pfac6f032f3)" style="fill: #7f7f7f; opacity: 0.5"/>
   </g>
   <g id="patch_90">
    <path d="M 228.874886 307.584 
L 230.369269 307.584 
L 230.369269 76.9536 
L 228.874886 76.9536 
z
" clip-path="url(#pfac6f032f3)" style="fill: #7f7f7f; opacity: 0.5"/>
   </g>
   <g id="patch_91">
    <path d="M 230.742864 307.584 
L 232.237247 307.584 
L 232.237247 201.1392 
L 230.742864 201.1392 
z
" clip-path="url(#pfac6f032f3)" style="fill: #7f7f7f; opacity: 0.5"/>
   </g>
   <g id="patch_92">
    <path d="M 232.610842 307.584 
L 234.105224 307.584 
L 234.105224 165.6576 
L 232.610842 165.6576 
z
" clip-path="url(#pfac6f032f3)" style="fill: #7f7f7f; opacity: 0.5"/>
   </g>
   <g id="patch_93">
    <path d="M 234.47882 307.584 
L 235.973202 307.584 
L 235.973202 236.6208 
L 234.47882 236.6208 
z
" clip-path="url(#pfac6f032f3)" style="fill: #7f7f7f; opacity: 0.5"/>
   </g>
   <g id="patch_94">
    <path d="M 236.346798 307.584 
L 237.84118 307.584 
L 237.84118 218.88 
L 236.346798 218.88 
z
" clip-path="url(#pfac6f032f3)" style="fill: #7f7f7f; opacity: 0.5"/>
   </g>
   <g id="patch_95">
    <path d="M 238.214776 307.584 
L 239.709158 307.584 
L 239.709158 254.3616 
L 238.214776 254.3616 
z
" clip-path="url(#pfac6f032f3)" style="fill: #7f7f7f; opacity: 0.5"/>
   </g>
   <g id="patch_96">
    <path d="M 240.082753 307.584 
L 241.577136 307.584 
L 241.577136 272.1024 
L 240.082753 272.1024 
z
" clip-path="url(#pfac6f032f3)" style="fill: #7f7f7f; opacity: 0.5"/>
   </g>
   <g id="patch_97">
    <path d="M 241.950731 307.584 
L 243.445114 307.584 
L 243.445114 272.1024 
L 241.950731 272.1024 
z
" clip-path="url(#pfac6f032f3)" style="fill: #7f7f7f; opacity: 0.5"/>
   </g>
   <g id="patch_98">
    <path d="M 243.818709 307.584 
L 245.313091 307.584 
L 245.313091 307.584 
L 243.818709 307.584 
z
" clip-path="url(#pfac6f032f3)" style="fill: #7f7f7f; opacity: 0.5"/>
   </g>
   <g id="patch_99">
    <path d="M 245.686687 307.584 
L 247.181069 307.584 
L 247.181069 289.8432 
L 245.686687 289.8432 
z
" clip-path="url(#pfac6f032f3)" style="fill: #7f7f7f; opacity: 0.5"/>
   </g>
   <g id="patch_100">
    <path d="M 247.554665 307.584 
L 249.049047 307.584 
L 249.049047 272.1024 
L 247.554665 272.1024 
z
" clip-path="url(#pfac6f032f3)" style="fill: #7f7f7f; opacity: 0.5"/>
   </g>
   <g id="patch_101">
    <path d="M 249.422643 307.584 
L 250.917025 307.584 
L 250.917025 254.3616 
L 249.422643 254.3616 
z
" clip-path="url(#pfac6f032f3)" style="fill: #7f7f7f; opacity: 0.5"/>
   </g>
   <g id="patch_102">
    <path d="M 251.29062 307.584 
L 252.785003 307.584 
L 252.785003 289.8432 
L 251.29062 289.8432 
z
" clip-path="url(#pfac6f032f3)" style="fill: #7f7f7f; opacity: 0.5"/>
   </g>
   <g id="patch_103">
    <path d="M 253.158598 307.584 
L 254.65298 307.584 
L 254.65298 254.3616 
L 253.158598 254.3616 
z
" clip-path="url(#pfac6f032f3)" style="fill: #7f7f7f; opacity: 0.5"/>
   </g>
   <g id="patch_104">
    <path d="M 255.026576 307.584 
L 256.520958 307.584 
L 256.520958 272.1024 
L 255.026576 272.1024 
z
" clip-path="url(#pfac6f032f3)" style="fill: #7f7f7f; opacity: 0.5"/>
   </g>
   <g id="patch_105">
    <path d="M 256.894554 307.584 
L 258.388936 307.584 
L 258.388936 307.584 
L 256.894554 307.584 
z
" clip-path="url(#pfac6f032f3)" style="fill: #7f7f7f; opacity: 0.5"/>
   </g>
   <g id="patch_106">
    <path d="M 258.762532 307.584 
L 260.256914 307.584 
L 260.256914 307.584 
L 258.762532 307.584 
z
" clip-path="url(#pfac6f032f3)" style="fill: #7f7f7f; opacity: 0.5"/>
   </g>
   <g id="patch_107">
    <path d="M 260.630509 307.584 
L 262.124892 307.584 
L 262.124892 289.8432 
L 260.630509 289.8432 
z
" clip-path="url(#pfac6f032f3)" style="fill: #7f7f7f; opacity: 0.5"/>
   </g>
   <g id="patch_108">
    <path d="M 262.498487 307.584 
L 263.99287 307.584 
L 263.99287 272.1024 
L 262.498487 272.1024 
z
" clip-path="url(#pfac6f032f3)" style="fill: #7f7f7f; opacity: 0.5"/>
   </g>
   <g id="patch_109">
    <path d="M 264.366465 307.584 
L 265.860847 307.584 
L 265.860847 289.8432 
L 264.366465 289.8432 
z
" clip-path="url(#pfac6f032f3)" style="fill: #7f7f7f; opacity: 0.5"/>
   </g>
   <g id="patch_110">
    <path d="M 266.234443 307.584 
L 267.728825 307.584 
L 267.728825 307.584 
L 266.234443 307.584 
z
" clip-path="url(#pfac6f032f3)" style="fill: #7f7f7f; opacity: 0.5"/>
   </g>
   <g id="patch_111">
    <path d="M 268.102421 307.584 
L 269.596803 307.584 
L 269.596803 289.8432 
L 268.102421 289.8432 
z
" clip-path="url(#pfac6f032f3)" style="fill: #7f7f7f; opacity: 0.5"/>
   </g>
   <g id="patch_112">
    <path d="M 269.970399 307.584 
L 271.464781 307.584 
L 271.464781 307.584 
L 269.970399 307.584 
z
" clip-path="url(#pfac6f032f3)" style="fill: #7f7f7f; opacity: 0.5"/>
   </g>
   <g id="patch_113">
    <path d="M 271.838376 307.584 
L 273.332759 307.584 
L 273.332759 289.8432 
L 271.838376 289.8432 
z
" clip-path="url(#pfac6f032f3)" style="fill: #7f7f7f; opacity: 0.5"/>
   </g>
   <g id="patch_114">
    <path d="M 273.706354 307.584 
L 275.200736 307.584 
L 275.200736 307.584 
L 273.706354 307.584 
z
" clip-path="url(#pfac6f032f3)" style="fill: #7f7f7f; opacity: 0.5"/>
   </g>
   <g id="patch_115">
    <path d="M 275.574332 307.584 
L 277.068714 307.584 
L 277.068714 307.584 
L 275.574332 307.584 
z
" clip-path="url(#pfac6f032f3)" style="fill: #7f7f7f; opacity: 0.5"/>
   </g>
   <g id="patch_116">
    <path d="M 277.44231 307.584 
L 278.936692 307.584 
L 278.936692 307.584 
L 277.44231 307.584 
z
" clip-path="url(#pfac6f032f3)" style="fill: #7f7f7f; opacity: 0.5"/>
   </g>
   <g id="patch_117">
    <path d="M 279.310288 307.584 
L 280.80467 307.584 
L 280.80467 289.8432 
L 279.310288 289.8432 
z
" clip-path="url(#pfac6f032f3)" style="fill: #7f7f7f; opacity: 0.5"/>
   </g>
   <g id="patch_118">
    <path d="M 281.178266 307.584 
L 282.672648 307.584 
L 282.672648 289.8432 
L 281.178266 289.8432 
z
" clip-path="url(#pfac6f032f3)" style="fill: #7f7f7f; opacity: 0.5"/>
   </g>
   <g id="patch_119">
    <path d="M 283.046243 307.584 
L 284.540626 307.584 
L 284.540626 307.584 
L 283.046243 307.584 
z
" clip-path="url(#pfac6f032f3)" style="fill: #7f7f7f; opacity: 0.5"/>
   </g>
   <g id="patch_120">
    <path d="M 284.914221 307.584 
L 286.408603 307.584 
L 286.408603 307.584 
L 284.914221 307.584 
z
" clip-path="url(#pfac6f032f3)" style="fill: #7f7f7f; opacity: 0.5"/>
   </g>
   <g id="patch_121">
    <path d="M 286.782199 307.584 
L 288.276581 307.584 
L 288.276581 307.584 
L 286.782199 307.584 
z
" clip-path="url(#pfac6f032f3)" style="fill: #7f7f7f; opacity: 0.5"/>
   </g>
   <g id="patch_122">
    <path d="M 288.650177 307.584 
L 290.144559 307.584 
L 290.144559 289.8432 
L 288.650177 289.8432 
z
" clip-path="url(#pfac6f032f3)" style="fill: #7f7f7f; opacity: 0.5"/>
   </g>
   <g id="patch_123">
    <path d="M 290.518155 307.584 
L 292.012537 307.584 
L 292.012537 307.584 
L 290.518155 307.584 
z
" clip-path="url(#pfac6f032f3)" style="fill: #7f7f7f; opacity: 0.5"/>
   </g>
   <g id="patch_124">
    <path d="M 292.386132 307.584 
L 293.880515 307.584 
L 293.880515 307.584 
L 292.386132 307.584 
z
" clip-path="url(#pfac6f032f3)" style="fill: #7f7f7f; opacity: 0.5"/>
   </g>
   <g id="patch_125">
    <path d="M 294.25411 307.584 
L 295.748493 307.584 
L 295.748493 307.584 
L 294.25411 307.584 
z
" clip-path="url(#pfac6f032f3)" style="fill: #7f7f7f; opacity: 0.5"/>
   </g>
   <g id="patch_126">
    <path d="M 296.122088 307.584 
L 297.61647 307.584 
L 297.61647 307.584 
L 296.122088 307.584 
z
" clip-path="url(#pfac6f032f3)" style="fill: #7f7f7f; opacity: 0.5"/>
   </g>
   <g id="patch_127">
    <path d="M 297.990066 307.584 
L 299.484448 307.584 
L 299.484448 307.584 
L 297.990066 307.584 
z
" clip-path="url(#pfac6f032f3)" style="fill: #7f7f7f; opacity: 0.5"/>
   </g>
   <g id="patch_128">
    <path d="M 299.858044 307.584 
L 301.352426 307.584 
L 301.352426 307.584 
L 299.858044 307.584 
z
" clip-path="url(#pfac6f032f3)" style="fill: #7f7f7f; opacity: 0.5"/>
   </g>
   <g id="patch_129">
    <path d="M 301.726022 307.584 
L 303.220404 307.584 
L 303.220404 307.584 
L 301.726022 307.584 
z
" clip-path="url(#pfac6f032f3)" style="fill: #7f7f7f; opacity: 0.5"/>
   </g>
   <g id="patch_130">
    <path d="M 303.593999 307.584 
L 305.088382 307.584 
L 305.088382 307.584 
L 303.593999 307.584 
z
" clip-path="url(#pfac6f032f3)" style="fill: #7f7f7f; opacity: 0.5"/>
   </g>
   <g id="patch_131">
    <path d="M 305.461977 307.584 
L 306.956359 307.584 
L 306.956359 307.584 
L 305.461977 307.584 
z
" clip-path="url(#pfac6f032f3)" style="fill: #7f7f7f; opacity: 0.5"/>
   </g>
   <g id="patch_132">
    <path d="M 307.329955 307.584 
L 308.824337 307.584 
L 308.824337 289.8432 
L 307.329955 289.8432 
z
" clip-path="url(#pfac6f032f3)" style="fill: #7f7f7f; opacity: 0.5"/>
   </g>
   <g id="patch_133">
    <path d="M 309.197933 307.584 
L 310.692315 307.584 
L 310.692315 307.584 
L 309.197933 307.584 
z
" clip-path="url(#pfac6f032f3)" style="fill: #7f7f7f; opacity: 0.5"/>
   </g>
   <g id="patch_134">
    <path d="M 311.065911 307.584 
L 312.560293 307.584 
L 312.560293 307.584 
L 311.065911 307.584 
z
" clip-path="url(#pfac6f032f3)" style="fill: #7f7f7f; opacity: 0.5"/>
   </g>
   <g id="patch_135">
    <path d="M 312.933888 307.584 
L 314.428271 307.584 
L 314.428271 307.584 
L 312.933888 307.584 
z
" clip-path="url(#pfac6f032f3)" style="fill: #7f7f7f; opacity: 0.5"/>
   </g>
   <g id="patch_136">
    <path d="M 314.801866 307.584 
L 316.296249 307.584 
L 316.296249 307.584 
L 314.801866 307.584 
z
" clip-path="url(#pfac6f032f3)" style="fill: #7f7f7f; opacity: 0.5"/>
   </g>
   <g id="patch_137">
    <path d="M 316.669844 307.584 
L 318.164226 307.584 
L 318.164226 307.584 
L 316.669844 307.584 
z
" clip-path="url(#pfac6f032f3)" style="fill: #7f7f7f; opacity: 0.5"/>
   </g>
   <g id="patch_138">
    <path d="M 318.537822 307.584 
L 320.032204 307.584 
L 320.032204 307.584 
L 318.537822 307.584 
z
" clip-path="url(#pfac6f032f3)" style="fill: #7f7f7f; opacity: 0.5"/>
   </g>
   <g id="patch_139">
    <path d="M 320.4058 307.584 
L 321.900182 307.584 
L 321.900182 289.8432 
L 320.4058 289.8432 
z
" clip-path="url(#pfac6f032f3)" style="fill: #7f7f7f; opacity: 0.5"/>
   </g>
   <g id="patch_140">
    <path d="M 322.273778 307.584 
L 323.76816 307.584 
L 323.76816 307.584 
L 322.273778 307.584 
z
" clip-path="url(#pfac6f032f3)" style="fill: #7f7f7f; opacity: 0.5"/>
   </g>
   <g id="patch_141">
    <path d="M 324.141755 307.584 
L 325.636138 307.584 
L 325.636138 307.584 
L 324.141755 307.584 
z
" clip-path="url(#pfac6f032f3)" style="fill: #7f7f7f; opacity: 0.5"/>
   </g>
   <g id="patch_142">
    <path d="M 326.009733 307.584 
L 327.504115 307.584 
L 327.504115 307.584 
L 326.009733 307.584 
z
" clip-path="url(#pfac6f032f3)" style="fill: #7f7f7f; opacity: 0.5"/>
   </g>
   <g id="patch_143">
    <path d="M 327.877711 307.584 
L 329.372093 307.584 
L 329.372093 307.584 
L 327.877711 307.584 
z
" clip-path="url(#pfac6f032f3)" style="fill: #7f7f7f; opacity: 0.5"/>
   </g>
   <g id="patch_144">
    <path d="M 329.745689 307.584 
L 331.240071 307.584 
L 331.240071 307.584 
L 329.745689 307.584 
z
" clip-path="url(#pfac6f032f3)" style="fill: #7f7f7f; opacity: 0.5"/>
   </g>
   <g id="patch_145">
    <path d="M 331.613667 307.584 
L 333.108049 307.584 
L 333.108049 307.584 
L 331.613667 307.584 
z
" clip-path="url(#pfac6f032f3)" style="fill: #7f7f7f; opacity: 0.5"/>
   </g>
   <g id="patch_146">
    <path d="M 333.481645 307.584 
L 334.976027 307.584 
L 334.976027 307.584 
L 333.481645 307.584 
z
" clip-path="url(#pfac6f032f3)" style="fill: #7f7f7f; opacity: 0.5"/>
   </g>
   <g id="patch_147">
    <path d="M 335.349622 307.584 
L 336.844005 307.584 
L 336.844005 307.584 
L 335.349622 307.584 
z
" clip-path="url(#pfac6f032f3)" style="fill: #7f7f7f; opacity: 0.5"/>
   </g>
   <g id="patch_148">
    <path d="M 337.2176 307.584 
L 338.711982 307.584 
L 338.711982 307.584 
L 337.2176 307.584 
z
" clip-path="url(#pfac6f032f3)" style="fill: #7f7f7f; opacity: 0.5"/>
   </g>
   <g id="patch_149">
    <path d="M 339.085578 307.584 
L 340.57996 307.584 
L 340.57996 307.584 
L 339.085578 307.584 
z
" clip-path="url(#pfac6f032f3)" style="fill: #7f7f7f; opacity: 0.5"/>
   </g>
   <g id="patch_150">
    <path d="M 340.953556 307.584 
L 342.447938 307.584 
L 342.447938 307.584 
L 340.953556 307.584 
z
" clip-path="url(#pfac6f032f3)" style="fill: #7f7f7f; opacity: 0.5"/>
   </g>
   <g id="patch_151">
    <path d="M 342.821534 307.584 
L 344.315916 307.584 
L 344.315916 307.584 
L 342.821534 307.584 
z
" clip-path="url(#pfac6f032f3)" style="fill: #7f7f7f; opacity: 0.5"/>
   </g>
   <g id="patch_152">
    <path d="M 344.689511 307.584 
L 346.183894 307.584 
L 346.183894 307.584 
L 344.689511 307.584 
z
" clip-path="url(#pfac6f032f3)" style="fill: #7f7f7f; opacity: 0.5"/>
   </g>
   <g id="patch_153">
    <path d="M 346.557489 307.584 
L 348.051872 307.584 
L 348.051872 307.584 
L 346.557489 307.584 
z
" clip-path="url(#pfac6f032f3)" style="fill: #7f7f7f; opacity: 0.5"/>
   </g>
   <g id="patch_154">
    <path d="M 348.425467 307.584 
L 349.919849 307.584 
L 349.919849 307.584 
L 348.425467 307.584 
z
" clip-path="url(#pfac6f032f3)" style="fill: #7f7f7f; opacity: 0.5"/>
   </g>
   <g id="patch_155">
    <path d="M 350.293445 307.584 
L 351.787827 307.584 
L 351.787827 307.584 
L 350.293445 307.584 
z
" clip-path="url(#pfac6f032f3)" style="fill: #7f7f7f; opacity: 0.5"/>
   </g>
   <g id="patch_156">
    <path d="M 352.161423 307.584 
L 353.655805 307.584 
L 353.655805 307.584 
L 352.161423 307.584 
z
" clip-path="url(#pfac6f032f3)" style="fill: #7f7f7f; opacity: 0.5"/>
   </g>
   <g id="patch_157">
    <path d="M 354.029401 307.584 
L 355.523783 307.584 
L 355.523783 307.584 
L 354.029401 307.584 
z
" clip-path="url(#pfac6f032f3)" style="fill: #7f7f7f; opacity: 0.5"/>
   </g>
   <g id="patch_158">
    <path d="M 355.897378 307.584 
L 357.391761 307.584 
L 357.391761 307.584 
L 355.897378 307.584 
z
" clip-path="url(#pfac6f032f3)" style="fill: #7f7f7f; opacity: 0.5"/>
   </g>
   <g id="patch_159">
    <path d="M 357.765356 307.584 
L 359.259738 307.584 
L 359.259738 307.584 
L 357.765356 307.584 
z
" clip-path="url(#pfac6f032f3)" style="fill: #7f7f7f; opacity: 0.5"/>
   </g>
   <g id="patch_160">
    <path d="M 359.633334 307.584 
L 361.127716 307.584 
L 361.127716 307.584 
L 359.633334 307.584 
z
" clip-path="url(#pfac6f032f3)" style="fill: #7f7f7f; opacity: 0.5"/>
   </g>
   <g id="patch_161">
    <path d="M 361.501312 307.584 
L 362.995694 307.584 
L 362.995694 307.584 
L 361.501312 307.584 
z
" clip-path="url(#pfac6f032f3)" style="fill: #7f7f7f; opacity: 0.5"/>
   </g>
   <g id="patch_162">
    <path d="M 363.36929 307.584 
L 364.863672 307.584 
L 364.863672 307.584 
L 363.36929 307.584 
z
" clip-path="url(#pfac6f032f3)" style="fill: #7f7f7f; opacity: 0.5"/>
   </g>
   <g id="patch_163">
    <path d="M 365.237267 307.584 
L 366.73165 307.584 
L 366.73165 307.584 
L 365.237267 307.584 
z
" clip-path="url(#pfac6f032f3)" style="fill: #7f7f7f; opacity: 0.5"/>
   </g>
   <g id="patch_164">
    <path d="M 367.105245 307.584 
L 368.599628 307.584 
L 368.599628 307.584 
L 367.105245 307.584 
z
" clip-path="url(#pfac6f032f3)" style="fill: #7f7f7f; opacity: 0.5"/>
   </g>
   <g id="patch_165">
    <path d="M 368.973223 307.584 
L 370.467605 307.584 
L 370.467605 307.584 
L 368.973223 307.584 
z
" clip-path="url(#pfac6f032f3)" style="fill: #7f7f7f; opacity: 0.5"/>
   </g>
   <g id="patch_166">
    <path d="M 370.841201 307.584 
L 372.335583 307.584 
L 372.335583 307.584 
L 370.841201 307.584 
z
" clip-path="url(#pfac6f032f3)" style="fill: #7f7f7f; opacity: 0.5"/>
   </g>
   <g id="patch_167">
    <path d="M 372.709179 307.584 
L 374.203561 307.584 
L 374.203561 307.584 
L 372.709179 307.584 
z
" clip-path="url(#pfac6f032f3)" style="fill: #7f7f7f; opacity: 0.5"/>
   </g>
   <g id="patch_168">
    <path d="M 374.577157 307.584 
L 376.071539 307.584 
L 376.071539 307.584 
L 374.577157 307.584 
z
" clip-path="url(#pfac6f032f3)" style="fill: #7f7f7f; opacity: 0.5"/>
   </g>
   <g id="patch_169">
    <path d="M 376.445134 307.584 
L 377.939517 307.584 
L 377.939517 307.584 
L 376.445134 307.584 
z
" clip-path="url(#pfac6f032f3)" style="fill: #7f7f7f; opacity: 0.5"/>
   </g>
   <g id="patch_170">
    <path d="M 378.313112 307.584 
L 379.807495 307.584 
L 379.807495 307.584 
L 378.313112 307.584 
z
" clip-path="url(#pfac6f032f3)" style="fill: #7f7f7f; opacity: 0.5"/>
   </g>
   <g id="patch_171">
    <path d="M 380.18109 307.584 
L 381.675472 307.584 
L 381.675472 307.584 
L 380.18109 307.584 
z
" clip-path="url(#pfac6f032f3)" style="fill: #7f7f7f; opacity: 0.5"/>
   </g>
   <g id="patch_172">
    <path d="M 382.049068 307.584 
L 383.54345 307.584 
L 383.54345 307.584 
L 382.049068 307.584 
z
" clip-path="url(#pfac6f032f3)" style="fill: #7f7f7f; opacity: 0.5"/>
   </g>
   <g id="patch_173">
    <path d="M 383.917046 307.584 
L 385.411428 307.584 
L 385.411428 307.584 
L 383.917046 307.584 
z
" clip-path="url(#pfac6f032f3)" style="fill: #7f7f7f; opacity: 0.5"/>
   </g>
   <g id="patch_174">
    <path d="M 385.785024 307.584 
L 387.279406 307.584 
L 387.279406 307.584 
L 385.785024 307.584 
z
" clip-path="url(#pfac6f032f3)" style="fill: #7f7f7f; opacity: 0.5"/>
   </g>
   <g id="patch_175">
    <path d="M 387.653001 307.584 
L 389.147384 307.584 
L 389.147384 307.584 
L 387.653001 307.584 
z
" clip-path="url(#pfac6f032f3)" style="fill: #7f7f7f; opacity: 0.5"/>
   </g>
   <g id="patch_176">
    <path d="M 389.520979 307.584 
L 391.015361 307.584 
L 391.015361 307.584 
L 389.520979 307.584 
z
" clip-path="url(#pfac6f032f3)" style="fill: #7f7f7f; opacity: 0.5"/>
   </g>
   <g id="patch_177">
    <path d="M 391.388957 307.584 
L 392.883339 307.584 
L 392.883339 307.584 
L 391.388957 307.584 
z
" clip-path="url(#pfac6f032f3)" style="fill: #7f7f7f; opacity: 0.5"/>
   </g>
   <g id="patch_178">
    <path d="M 393.256935 307.584 
L 394.751317 307.584 
L 394.751317 307.584 
L 393.256935 307.584 
z
" clip-path="url(#pfac6f032f3)" style="fill: #7f7f7f; opacity: 0.5"/>
   </g>
   <g id="patch_179">
    <path d="M 395.124913 307.584 
L 396.619295 307.584 
L 396.619295 307.584 
L 395.124913 307.584 
z
" clip-path="url(#pfac6f032f3)" style="fill: #7f7f7f; opacity: 0.5"/>
   </g>
   <g id="patch_180">
    <path d="M 396.99289 307.584 
L 398.487273 307.584 
L 398.487273 307.584 
L 396.99289 307.584 
z
" clip-path="url(#pfac6f032f3)" style="fill: #7f7f7f; opacity: 0.5"/>
   </g>
   <g id="matplotlib.axis_3">
    <g id="ytick_9">
     <g id="line2d_16">
      <defs>
       <path id="md32d914159" d="M 0 0 
L 3.5 0 
" style="stroke: #7f7f7f; stroke-width: 0.8"/>
      </defs>
      <g>
       <use xlink:href="#md32d914159" x="414.72" y="307.584" style="fill: #7f7f7f; stroke: #7f7f7f; stroke-width: 0.8"/>
      </g>
     </g>
     <g id="text_16">
      <!-- 0 -->
      <g style="fill: #7f7f7f" transform="translate(421.72 311.383219) scale(0.1 -0.1)">
       <use xlink:href="#DejaVuSans-30"/>
      </g>
     </g>
    </g>
    <g id="ytick_10">
     <g id="line2d_17">
      <g>
       <use xlink:href="#md32d914159" x="414.72" y="272.1024" style="fill: #7f7f7f; stroke: #7f7f7f; stroke-width: 0.8"/>
      </g>
     </g>
     <g id="text_17">
      <!-- 2 -->
      <g style="fill: #7f7f7f" transform="translate(421.72 275.901619) scale(0.1 -0.1)">
       <use xlink:href="#DejaVuSans-32"/>
      </g>
     </g>
    </g>
    <g id="ytick_11">
     <g id="line2d_18">
      <g>
       <use xlink:href="#md32d914159" x="414.72" y="236.6208" style="fill: #7f7f7f; stroke: #7f7f7f; stroke-width: 0.8"/>
      </g>
     </g>
     <g id="text_18">
      <!-- 4 -->
      <g style="fill: #7f7f7f" transform="translate(421.72 240.420019) scale(0.1 -0.1)">
       <use xlink:href="#DejaVuSans-34"/>
      </g>
     </g>
    </g>
    <g id="ytick_12">
     <g id="line2d_19">
      <g>
       <use xlink:href="#md32d914159" x="414.72" y="201.1392" style="fill: #7f7f7f; stroke: #7f7f7f; stroke-width: 0.8"/>
      </g>
     </g>
     <g id="text_19">
      <!-- 6 -->
      <g style="fill: #7f7f7f" transform="translate(421.72 204.938419) scale(0.1 -0.1)">
       <use xlink:href="#DejaVuSans-36"/>
      </g>
     </g>
    </g>
    <g id="ytick_13">
     <g id="line2d_20">
      <g>
       <use xlink:href="#md32d914159" x="414.72" y="165.6576" style="fill: #7f7f7f; stroke: #7f7f7f; stroke-width: 0.8"/>
      </g>
     </g>
     <g id="text_20">
      <!-- 8 -->
      <g style="fill: #7f7f7f" transform="translate(421.72 169.456819) scale(0.1 -0.1)">
       <defs>
        <path id="DejaVuSans-38" d="M 2034 2216 
Q 1584 2216 1326 1975 
Q 1069 1734 1069 1313 
Q 1069 891 1326 650 
Q 1584 409 2034 409 
Q 2484 409 2743 651 
Q 3003 894 3003 1313 
Q 3003 1734 2745 1975 
Q 2488 2216 2034 2216 
z
M 1403 2484 
Q 997 2584 770 2862 
Q 544 3141 544 3541 
Q 544 4100 942 4425 
Q 1341 4750 2034 4750 
Q 2731 4750 3128 4425 
Q 3525 4100 3525 3541 
Q 3525 3141 3298 2862 
Q 3072 2584 2669 2484 
Q 3125 2378 3379 2068 
Q 3634 1759 3634 1313 
Q 3634 634 3220 271 
Q 2806 -91 2034 -91 
Q 1263 -91 848 271 
Q 434 634 434 1313 
Q 434 1759 690 2068 
Q 947 2378 1403 2484 
z
M 1172 3481 
Q 1172 3119 1398 2916 
Q 1625 2713 2034 2713 
Q 2441 2713 2670 2916 
Q 2900 3119 2900 3481 
Q 2900 3844 2670 4047 
Q 2441 4250 2034 4250 
Q 1625 4250 1398 4047 
Q 1172 3844 1172 3481 
z
" transform="scale(0.015625)"/>
       </defs>
       <use xlink:href="#DejaVuSans-38"/>
      </g>
     </g>
    </g>
    <g id="ytick_14">
     <g id="line2d_21">
      <g>
       <use xlink:href="#md32d914159" x="414.72" y="130.176" style="fill: #7f7f7f; stroke: #7f7f7f; stroke-width: 0.8"/>
      </g>
     </g>
     <g id="text_21">
      <!-- 10 -->
      <g style="fill: #7f7f7f" transform="translate(421.72 133.975219) scale(0.1 -0.1)">
       <use xlink:href="#DejaVuSans-31"/>
       <use xlink:href="#DejaVuSans-30" transform="translate(63.623047 0)"/>
      </g>
     </g>
    </g>
    <g id="ytick_15">
     <g id="line2d_22">
      <g>
       <use xlink:href="#md32d914159" x="414.72" y="94.6944" style="fill: #7f7f7f; stroke: #7f7f7f; stroke-width: 0.8"/>
      </g>
     </g>
     <g id="text_22">
      <!-- 12 -->
      <g style="fill: #7f7f7f" transform="translate(421.72 98.493619) scale(0.1 -0.1)">
       <use xlink:href="#DejaVuSans-31"/>
       <use xlink:href="#DejaVuSans-32" transform="translate(63.623047 0)"/>
      </g>
     </g>
    </g>
    <g id="ytick_16">
     <g id="line2d_23">
      <g>
       <use xlink:href="#md32d914159" x="414.72" y="59.2128" style="fill: #7f7f7f; stroke: #7f7f7f; stroke-width: 0.8"/>
      </g>
     </g>
     <g id="text_23">
      <!-- 14 -->
      <g style="fill: #7f7f7f" transform="translate(421.72 63.012019) scale(0.1 -0.1)">
       <use xlink:href="#DejaVuSans-31"/>
       <use xlink:href="#DejaVuSans-34" transform="translate(63.623047 0)"/>
      </g>
     </g>
    </g>
    <g id="text_24">
     <!-- Number of cases -->
     <g style="fill: #7f7f7f" transform="translate(446.043438 216.710813) rotate(-90) scale(0.1 -0.1)">
      <use xlink:href="#DejaVuSans-4e"/>
      <use xlink:href="#DejaVuSans-75" transform="translate(74.804688 0)"/>
      <use xlink:href="#DejaVuSans-6d" transform="translate(138.183594 0)"/>
      <use xlink:href="#DejaVuSans-62" transform="translate(235.595703 0)"/>
      <use xlink:href="#DejaVuSans-65" transform="translate(299.072266 0)"/>
      <use xlink:href="#DejaVuSans-72" transform="translate(360.595703 0)"/>
      <use xlink:href="#DejaVuSans-20" transform="translate(401.708984 0)"/>
      <use xlink:href="#DejaVuSans-6f" transform="translate(433.496094 0)"/>
      <use xlink:href="#DejaVuSans-66" transform="translate(494.677734 0)"/>
      <use xlink:href="#DejaVuSans-20" transform="translate(529.882812 0)"/>
      <use xlink:href="#DejaVuSans-63" transform="translate(561.669922 0)"/>
      <use xlink:href="#DejaVuSans-61" transform="translate(616.650391 0)"/>
      <use xlink:href="#DejaVuSans-73" transform="translate(677.929688 0)"/>
      <use xlink:href="#DejaVuSans-65" transform="translate(730.029297 0)"/>
      <use xlink:href="#DejaVuSans-73" transform="translate(791.552734 0)"/>
     </g>
    </g>
   </g>
   <g id="patch_181">
    <path d="M 57.6 307.584 
L 57.6 41.472 
" style="fill: none; stroke: #000000; stroke-width: 0.8; stroke-linejoin: miter; stroke-linecap: square"/>
   </g>
   <g id="patch_182">
    <path d="M 414.72 307.584 
L 414.72 41.472 
" style="fill: none; stroke: #000000; stroke-width: 0.8; stroke-linejoin: miter; stroke-linecap: square"/>
   </g>
   <g id="patch_183">
    <path d="M 57.6 307.584 
L 414.72 307.584 
" style="fill: none; stroke: #000000; stroke-width: 0.8; stroke-linejoin: miter; stroke-linecap: square"/>
   </g>
   <g id="patch_184">
    <path d="M 57.6 41.472 
L 414.72 41.472 
" style="fill: none; stroke: #000000; stroke-width: 0.8; stroke-linejoin: miter; stroke-linecap: square"/>
   </g>
  </g>
 </g>
 <defs>
  <clipPath id="pfac6f032f3">
   <rect x="57.6" y="41.472" width="357.12" height="266.112"/>
  </clipPath>
 </defs>
</svg>
