<?xml version="1.0" encoding="utf-8" standalone="no"?>
<!DOCTYPE svg PUBLIC "-//W3C//DTD SVG 1.1//EN"
  "http://www.w3.org/Graphics/SVG/1.1/DTD/svg11.dtd">
<svg xmlns:xlink="http://www.w3.org/1999/xlink" width="504pt" height="504pt" viewBox="0 0 504 504" xmlns="http://www.w3.org/2000/svg" version="1.1">
 <metadata>
  <rdf:RDF xmlns:dc="http://purl.org/dc/elements/1.1/" xmlns:cc="http://creativecommons.org/ns#" xmlns:rdf="http://www.w3.org/1999/02/22-rdf-syntax-ns#">
   <cc:Work>
    <dc:type rdf:resource="http://purl.org/dc/dcmitype/StillImage"/>
    <dc:date>2026-07-13T19:15:07.898253</dc:date>
    <dc:format>image/svg+xml</dc:format>
    <dc:creator>
     <cc:Agent>
      <dc:title>Matplotlib v3.11.0, https://matplotlib.org/</dc:title>
     </cc:Agent>
    </dc:creator>
   </cc:Work>
  </rdf:RDF>
 </metadata>
 <defs>
  <style type="text/css">*{stroke-linejoin: round; stroke-linecap: butt}</style>
 </defs>
 <g id="figure_1">
  <g id="patch_1">
   <path d="M 0 504 
L 504 504 
L 504 0 
L 0 0 
L 0 504 
z
" style="fill: none"/>
  </g>
  <g id="axes_1">
   <g id="patch_2">
    <path d="M 63 448.56 
L 453.6 448.56 
L 453.6 60.48 
L 63 60.48 
L 63 448.56 
z
" style="fill: none"/>
   </g>
   <g id="matplotlib.axis_1">
    <g id="ytick_1">
     <g id="line2d_1">
      <defs>
       <path id="m3cd5f16a9f" d="M 0 0 
L 3.5 0 
" style="stroke: #7f7f7f; stroke-width: 0.8"/>
      </defs>
      <g>
       <use xlink:href="#m3cd5f16a9f" x="453.6" y="448.56" style="fill: #7f7f7f; stroke: #7f7f7f; stroke-width: 0.8"/>
      </g>
     </g>
     <g id="text_1">
      <text style="font-size: 16px; font-family: 'Arial', sans-serif; text-anchor: start; fill: #7f7f7f" x="460.6" y="454.638125" transform="rotate(-0 460.6 454.638125)">0</text>
     </g>
    </g>
    <g id="ytick_2">
     <g id="line2d_2">
      <g>
       <use xlink:href="#m3cd5f16a9f" x="453.6" y="396.816" style="fill: #7f7f7f; stroke: #7f7f7f; stroke-width: 0.8"/>
      </g>
     </g>
     <g id="text_2">
      <text style="font-size: 16px; font-family: 'Arial', sans-serif; text-anchor: start; fill: #7f7f7f" x="460.6" y="402.894125" transform="rotate(-0 460.6 402.894125)">2</text>
     </g>
    </g>
    <g id="ytick_3">
     <g id="line2d_3">
      <g>
       <use xlink:href="#m3cd5f16a9f" x="453.6" y="345.072" style="fill: #7f7f7f; stroke: #7f7f7f; stroke-width: 0.8"/>
      </g>
     </g>
     <g id="text_3">
      <text style="font-size: 16px; font-family: 'Arial', sans-serif; text-anchor: start; fill: #7f7f7f" x="460.6" y="351.150125" transform="rotate(-0 460.6 351.150125)">4</text>
     </g>
    </g>
    <g id="ytick_4">
     <g id="line2d_4">
      <g>
       <use xlink:href="#m3cd5f16a9f" x="453.6" y="293.328" style="fill: #7f7f7f; stroke: #7f7f7f; stroke-width: 0.8"/>
      </g>
     </g>
     <g id="text_4">
      <text style="font-size: 16px; font-family: 'Arial', sans-serif; text-anchor: start; fill: #7f7f7f" x="460.6" y="299.406125" transform="rotate(-0 460.6 299.406125)">6</text>
     </g>
    </g>
    <g id="ytick_5">
     <g id="line2d_5">
      <g>
       <use xlink:href="#m3cd5f16a9f" x="453.6" y="241.584" style="fill: #7f7f7f; stroke: #7f7f7f; stroke-width: 0.8"/>
      </g>
     </g>
     <g id="text_5">
      <text style="font-size: 16px; font-family: 'Arial', sans-serif; text-anchor: start; fill: #7f7f7f" x="460.6" y="247.662125" transform="rotate(-0 460.6 247.662125)">8</text>
     </g>
    </g>
    <g id="ytick_6">
     <g id="line2d_6">
      <g>
       <use xlink:href="#m3cd5f16a9f" x="453.6" y="189.84" style="fill: #7f7f7f; stroke: #7f7f7f; stroke-width: 0.8"/>
      </g>
     </g>
     <g id="text_6">
      <text style="font-size: 16px; font-family: 'Arial', sans-serif; text-anchor: start; fill: #7f7f7f" x="460.6" y="195.918125" transform="rotate(-0 460.6 195.918125)">10</text>
     </g>
    </g>
    <g id="ytick_7">
     <g id="line2d_7">
      <g>
       <use xlink:href="#m3cd5f16a9f" x="453.6" y="138.096" style="fill: #7f7f7f; stroke: #7f7f7f; stroke-width: 0.8"/>
      </g>
     </g>
     <g id="text_7">
      <text style="font-size: 16px; font-family: 'Arial', sans-serif; text-anchor: start; fill: #7f7f7f" x="460.6" y="144.174125" transform="rotate(-0 460.6 144.174125)">12</text>
     </g>
    </g>
    <g id="ytick_8">
     <g id="line2d_8">
      <g>
       <use xlink:href="#m3cd5f16a9f" x="453.6" y="86.352" style="fill: #7f7f7f; stroke: #7f7f7f; stroke-width: 0.8"/>
      </g>
     </g>
     <g id="text_8">
      <text style="font-size: 16px; font-family: 'Arial', sans-serif; text-anchor: start; fill: #7f7f7f" x="460.6" y="92.430125" transform="rotate(-0 460.6 92.430125)">14</text>
     </g>
    </g>
    <g id="text_9">
     <text style="font-size: 16px; font-family: 'Arial', sans-serif; text-anchor: middle; fill: #7f7f7f" x="497.1175" y="254.52" transform="rotate(-90 497.1175 254.52)">Number of cases</text>
    </g>
   </g>
   <g id="patch_3">
    <path d="M 80.754545 448.56 
L 82.379675 448.56 
L 82.379675 396.816 
L 80.754545 396.816 
z
" clip-path="url(#pbbc6cd87b9)" style="fill: #7f7f7f; opacity: 0.5"/>
   </g>
   <g id="patch_4">
    <path d="M 82.785958 448.56 
L 84.411088 448.56 
L 84.411088 396.816 
L 82.785958 396.816 
z
" clip-path="url(#pbbc6cd87b9)" style="fill: #7f7f7f; opacity: 0.5"/>
   </g>
   <g id="patch_5">
    <path d="M 84.817371 448.56 
L 86.442501 448.56 
L 86.442501 396.816 
L 84.817371 396.816 
z
" clip-path="url(#pbbc6cd87b9)" style="fill: #7f7f7f; opacity: 0.5"/>
   </g>
   <g id="patch_6">
    <path d="M 86.848783 448.56 
L 88.473913 448.56 
L 88.473913 448.56 
L 86.848783 448.56 
z
" clip-path="url(#pbbc6cd87b9)" style="fill: #7f7f7f; opacity: 0.5"/>
   </g>
   <g id="patch_7">
    <path d="M 88.880196 448.56 
L 90.505326 448.56 
L 90.505326 448.56 
L 88.880196 448.56 
z
" clip-path="url(#pbbc6cd87b9)" style="fill: #7f7f7f; opacity: 0.5"/>
   </g>
   <g id="patch_8">
    <path d="M 90.911608 448.56 
L 92.536738 448.56 
L 92.536738 448.56 
L 90.911608 448.56 
z
" clip-path="url(#pbbc6cd87b9)" style="fill: #7f7f7f; opacity: 0.5"/>
   </g>
   <g id="patch_9">
    <path d="M 92.943021 448.56 
L 94.568151 448.56 
L 94.568151 448.56 
L 92.943021 448.56 
z
" clip-path="url(#pbbc6cd87b9)" style="fill: #7f7f7f; opacity: 0.5"/>
   </g>
   <g id="patch_10">
    <path d="M 94.974433 448.56 
L 96.599563 448.56 
L 96.599563 448.56 
L 94.974433 448.56 
z
" clip-path="url(#pbbc6cd87b9)" style="fill: #7f7f7f; opacity: 0.5"/>
   </g>
   <g id="patch_11">
    <path d="M 97.005846 448.56 
L 98.630976 448.56 
L 98.630976 448.56 
L 97.005846 448.56 
z
" clip-path="url(#pbbc6cd87b9)" style="fill: #7f7f7f; opacity: 0.5"/>
   </g>
   <g id="patch_12">
    <path d="M 99.037258 448.56 
L 100.662388 448.56 
L 100.662388 422.688 
L 99.037258 422.688 
z
" clip-path="url(#pbbc6cd87b9)" style="fill: #7f7f7f; opacity: 0.5"/>
   </g>
   <g id="patch_13">
    <path d="M 101.068671 448.56 
L 102.693801 448.56 
L 102.693801 448.56 
L 101.068671 448.56 
z
" clip-path="url(#pbbc6cd87b9)" style="fill: #7f7f7f; opacity: 0.5"/>
   </g>
   <g id="patch_14">
    <path d="M 103.100083 448.56 
L 104.725213 448.56 
L 104.725213 448.56 
L 103.100083 448.56 
z
" clip-path="url(#pbbc6cd87b9)" style="fill: #7f7f7f; opacity: 0.5"/>
   </g>
   <g id="patch_15">
    <path d="M 105.131496 448.56 
L 106.756626 448.56 
L 106.756626 448.56 
L 105.131496 448.56 
z
" clip-path="url(#pbbc6cd87b9)" style="fill: #7f7f7f; opacity: 0.5"/>
   </g>
   <g id="patch_16">
    <path d="M 107.162908 448.56 
L 108.788038 448.56 
L 108.788038 448.56 
L 107.162908 448.56 
z
" clip-path="url(#pbbc6cd87b9)" style="fill: #7f7f7f; opacity: 0.5"/>
   </g>
   <g id="patch_17">
    <path d="M 109.194321 448.56 
L 110.819451 448.56 
L 110.819451 448.56 
L 109.194321 448.56 
z
" clip-path="url(#pbbc6cd87b9)" style="fill: #7f7f7f; opacity: 0.5"/>
   </g>
   <g id="patch_18">
    <path d="M 111.225733 448.56 
L 112.850863 448.56 
L 112.850863 448.56 
L 111.225733 448.56 
z
" clip-path="url(#pbbc6cd87b9)" style="fill: #7f7f7f; opacity: 0.5"/>
   </g>
   <g id="patch_19">
    <path d="M 113.257146 448.56 
L 114.882276 448.56 
L 114.882276 448.56 
L 113.257146 448.56 
z
" clip-path="url(#pbbc6cd87b9)" style="fill: #7f7f7f; opacity: 0.5"/>
   </g>
   <g id="patch_20">
    <path d="M 115.288558 448.56 
L 116.913688 448.56 
L 116.913688 448.56 
L 115.288558 448.56 
z
" clip-path="url(#pbbc6cd87b9)" style="fill: #7f7f7f; opacity: 0.5"/>
   </g>
   <g id="patch_21">
    <path d="M 117.319971 448.56 
L 118.945101 448.56 
L 118.945101 448.56 
L 117.319971 448.56 
z
" clip-path="url(#pbbc6cd87b9)" style="fill: #7f7f7f; opacity: 0.5"/>
   </g>
   <g id="patch_22">
    <path d="M 119.351383 448.56 
L 120.976513 448.56 
L 120.976513 422.688 
L 119.351383 422.688 
z
" clip-path="url(#pbbc6cd87b9)" style="fill: #7f7f7f; opacity: 0.5"/>
   </g>
   <g id="patch_23">
    <path d="M 121.382796 448.56 
L 123.007926 448.56 
L 123.007926 448.56 
L 121.382796 448.56 
z
" clip-path="url(#pbbc6cd87b9)" style="fill: #7f7f7f; opacity: 0.5"/>
   </g>
   <g id="patch_24">
    <path d="M 123.414208 448.56 
L 125.039338 448.56 
L 125.039338 448.56 
L 123.414208 448.56 
z
" clip-path="url(#pbbc6cd87b9)" style="fill: #7f7f7f; opacity: 0.5"/>
   </g>
   <g id="patch_25">
    <path d="M 125.445621 448.56 
L 127.070751 448.56 
L 127.070751 422.688 
L 125.445621 422.688 
z
" clip-path="url(#pbbc6cd87b9)" style="fill: #7f7f7f; opacity: 0.5"/>
   </g>
   <g id="patch_26">
    <path d="M 127.477033 448.56 
L 129.102164 448.56 
L 129.102164 448.56 
L 127.477033 448.56 
z
" clip-path="url(#pbbc6cd87b9)" style="fill: #7f7f7f; opacity: 0.5"/>
   </g>
   <g id="patch_27">
    <path d="M 129.508446 448.56 
L 131.133576 448.56 
L 131.133576 422.688 
L 129.508446 422.688 
z
" clip-path="url(#pbbc6cd87b9)" style="fill: #7f7f7f; opacity: 0.5"/>
   </g>
   <g id="patch_28">
    <path d="M 131.539859 448.56 
L 133.164989 448.56 
L 133.164989 448.56 
L 131.539859 448.56 
z
" clip-path="url(#pbbc6cd87b9)" style="fill: #7f7f7f; opacity: 0.5"/>
   </g>
   <g id="patch_29">
    <path d="M 133.571271 448.56 
L 135.196401 448.56 
L 135.196401 422.688 
L 133.571271 422.688 
z
" clip-path="url(#pbbc6cd87b9)" style="fill: #7f7f7f; opacity: 0.5"/>
   </g>
   <g id="patch_30">
    <path d="M 135.602684 448.56 
L 137.227814 448.56 
L 137.227814 448.56 
L 135.602684 448.56 
z
" clip-path="url(#pbbc6cd87b9)" style="fill: #7f7f7f; opacity: 0.5"/>
   </g>
   <g id="patch_31">
    <path d="M 137.634096 448.56 
L 139.259226 448.56 
L 139.259226 422.688 
L 137.634096 422.688 
z
" clip-path="url(#pbbc6cd87b9)" style="fill: #7f7f7f; opacity: 0.5"/>
   </g>
   <g id="patch_32">
    <path d="M 139.665509 448.56 
L 141.290639 448.56 
L 141.290639 422.688 
L 139.665509 422.688 
z
" clip-path="url(#pbbc6cd87b9)" style="fill: #7f7f7f; opacity: 0.5"/>
   </g>
   <g id="patch_33">
    <path d="M 141.696921 448.56 
L 143.322051 448.56 
L 143.322051 448.56 
L 141.696921 448.56 
z
" clip-path="url(#pbbc6cd87b9)" style="fill: #7f7f7f; opacity: 0.5"/>
   </g>
   <g id="patch_34">
    <path d="M 143.728334 448.56 
L 145.353464 448.56 
L 145.353464 422.688 
L 143.728334 422.688 
z
" clip-path="url(#pbbc6cd87b9)" style="fill: #7f7f7f; opacity: 0.5"/>
   </g>
   <g id="patch_35">
    <path d="M 145.759746 448.56 
L 147.384876 448.56 
L 147.384876 422.688 
L 145.759746 422.688 
z
" clip-path="url(#pbbc6cd87b9)" style="fill: #7f7f7f; opacity: 0.5"/>
   </g>
   <g id="patch_36">
    <path d="M 147.791159 448.56 
L 149.416289 448.56 
L 149.416289 448.56 
L 147.791159 448.56 
z
" clip-path="url(#pbbc6cd87b9)" style="fill: #7f7f7f; opacity: 0.5"/>
   </g>
   <g id="patch_37">
    <path d="M 149.822571 448.56 
L 151.447701 448.56 
L 151.447701 422.688 
L 149.822571 422.688 
z
" clip-path="url(#pbbc6cd87b9)" style="fill: #7f7f7f; opacity: 0.5"/>
   </g>
   <g id="patch_38">
    <path d="M 151.853984 448.56 
L 153.479114 448.56 
L 153.479114 448.56 
L 151.853984 448.56 
z
" clip-path="url(#pbbc6cd87b9)" style="fill: #7f7f7f; opacity: 0.5"/>
   </g>
   <g id="patch_39">
    <path d="M 153.885396 448.56 
L 155.510526 448.56 
L 155.510526 448.56 
L 153.885396 448.56 
z
" clip-path="url(#pbbc6cd87b9)" style="fill: #7f7f7f; opacity: 0.5"/>
   </g>
   <g id="patch_40">
    <path d="M 155.916809 448.56 
L 157.541939 448.56 
L 157.541939 370.944 
L 155.916809 370.944 
z
" clip-path="url(#pbbc6cd87b9)" style="fill: #7f7f7f; opacity: 0.5"/>
   </g>
   <g id="patch_41">
    <path d="M 157.948221 448.56 
L 159.573351 448.56 
L 159.573351 396.816 
L 157.948221 396.816 
z
" clip-path="url(#pbbc6cd87b9)" style="fill: #7f7f7f; opacity: 0.5"/>
   </g>
   <g id="patch_42">
    <path d="M 159.979634 448.56 
L 161.604764 448.56 
L 161.604764 422.688 
L 159.979634 422.688 
z
" clip-path="url(#pbbc6cd87b9)" style="fill: #7f7f7f; opacity: 0.5"/>
   </g>
   <g id="patch_43">
    <path d="M 162.011046 448.56 
L 163.636176 448.56 
L 163.636176 422.688 
L 162.011046 422.688 
z
" clip-path="url(#pbbc6cd87b9)" style="fill: #7f7f7f; opacity: 0.5"/>
   </g>
   <g id="patch_44">
    <path d="M 164.042459 448.56 
L 165.667589 448.56 
L 165.667589 422.688 
L 164.042459 422.688 
z
" clip-path="url(#pbbc6cd87b9)" style="fill: #7f7f7f; opacity: 0.5"/>
   </g>
   <g id="patch_45">
    <path d="M 166.073871 448.56 
L 167.699001 448.56 
L 167.699001 422.688 
L 166.073871 422.688 
z
" clip-path="url(#pbbc6cd87b9)" style="fill: #7f7f7f; opacity: 0.5"/>
   </g>
   <g id="patch_46">
    <path d="M 168.105284 448.56 
L 169.730414 448.56 
L 169.730414 370.944 
L 168.105284 370.944 
z
" clip-path="url(#pbbc6cd87b9)" style="fill: #7f7f7f; opacity: 0.5"/>
   </g>
   <g id="patch_47">
    <path d="M 170.136696 448.56 
L 171.761827 448.56 
L 171.761827 448.56 
L 170.136696 448.56 
z
" clip-path="url(#pbbc6cd87b9)" style="fill: #7f7f7f; opacity: 0.5"/>
   </g>
   <g id="patch_48">
    <path d="M 172.168109 448.56 
L 173.793239 448.56 
L 173.793239 422.688 
L 172.168109 422.688 
z
" clip-path="url(#pbbc6cd87b9)" style="fill: #7f7f7f; opacity: 0.5"/>
   </g>
   <g id="patch_49">
    <path d="M 174.199522 448.56 
L 175.824652 448.56 
L 175.824652 422.688 
L 174.199522 422.688 
z
" clip-path="url(#pbbc6cd87b9)" style="fill: #7f7f7f; opacity: 0.5"/>
   </g>
   <g id="patch_50">
    <path d="M 176.230934 448.56 
L 177.856064 448.56 
L 177.856064 345.072 
L 176.230934 345.072 
z
" clip-path="url(#pbbc6cd87b9)" style="fill: #7f7f7f; opacity: 0.5"/>
   </g>
   <g id="patch_51">
    <path d="M 178.262347 448.56 
L 179.887477 448.56 
L 179.887477 370.944 
L 178.262347 370.944 
z
" clip-path="url(#pbbc6cd87b9)" style="fill: #7f7f7f; opacity: 0.5"/>
   </g>
   <g id="patch_52">
    <path d="M 180.293759 448.56 
L 181.918889 448.56 
L 181.918889 370.944 
L 180.293759 370.944 
z
" clip-path="url(#pbbc6cd87b9)" style="fill: #7f7f7f; opacity: 0.5"/>
   </g>
   <g id="patch_53">
    <path d="M 182.325172 448.56 
L 183.950302 448.56 
L 183.950302 396.816 
L 182.325172 396.816 
z
" clip-path="url(#pbbc6cd87b9)" style="fill: #7f7f7f; opacity: 0.5"/>
   </g>
   <g id="patch_54">
    <path d="M 184.356584 448.56 
L 185.981714 448.56 
L 185.981714 345.072 
L 184.356584 345.072 
z
" clip-path="url(#pbbc6cd87b9)" style="fill: #7f7f7f; opacity: 0.5"/>
   </g>
   <g id="patch_55">
    <path d="M 186.387997 448.56 
L 188.013127 448.56 
L 188.013127 345.072 
L 186.387997 345.072 
z
" clip-path="url(#pbbc6cd87b9)" style="fill: #7f7f7f; opacity: 0.5"/>
   </g>
   <g id="patch_56">
    <path d="M 188.419409 448.56 
L 190.044539 448.56 
L 190.044539 241.584 
L 188.419409 241.584 
z
" clip-path="url(#pbbc6cd87b9)" style="fill: #7f7f7f; opacity: 0.5"/>
   </g>
   <g id="patch_57">
    <path d="M 190.450822 448.56 
L 192.075952 448.56 
L 192.075952 319.2 
L 190.450822 319.2 
z
" clip-path="url(#pbbc6cd87b9)" style="fill: #7f7f7f; opacity: 0.5"/>
   </g>
   <g id="patch_58">
    <path d="M 192.482234 448.56 
L 194.107364 448.56 
L 194.107364 241.584 
L 192.482234 241.584 
z
" clip-path="url(#pbbc6cd87b9)" style="fill: #7f7f7f; opacity: 0.5"/>
   </g>
   <g id="patch_59">
    <path d="M 194.513647 448.56 
L 196.138777 448.56 
L 196.138777 319.2 
L 194.513647 319.2 
z
" clip-path="url(#pbbc6cd87b9)" style="fill: #7f7f7f; opacity: 0.5"/>
   </g>
   <g id="patch_60">
    <path d="M 196.545059 448.56 
L 198.170189 448.56 
L 198.170189 345.072 
L 196.545059 345.072 
z
" clip-path="url(#pbbc6cd87b9)" style="fill: #7f7f7f; opacity: 0.5"/>
   </g>
   <g id="patch_61">
    <path d="M 198.576472 448.56 
L 200.201602 448.56 
L 200.201602 319.2 
L 198.576472 319.2 
z
" clip-path="url(#pbbc6cd87b9)" style="fill: #7f7f7f; opacity: 0.5"/>
   </g>
   <g id="patch_62">
    <path d="M 200.607884 448.56 
L 202.233014 448.56 
L 202.233014 267.456 
L 200.607884 267.456 
z
" clip-path="url(#pbbc6cd87b9)" style="fill: #7f7f7f; opacity: 0.5"/>
   </g>
   <g id="patch_63">
    <path d="M 202.639297 448.56 
L 204.264427 448.56 
L 204.264427 396.816 
L 202.639297 396.816 
z
" clip-path="url(#pbbc6cd87b9)" style="fill: #7f7f7f; opacity: 0.5"/>
   </g>
   <g id="patch_64">
    <path d="M 204.670709 448.56 
L 206.295839 448.56 
L 206.295839 422.688 
L 204.670709 422.688 
z
" clip-path="url(#pbbc6cd87b9)" style="fill: #7f7f7f; opacity: 0.5"/>
   </g>
   <g id="patch_65">
    <path d="M 206.702122 448.56 
L 208.327252 448.56 
L 208.327252 241.584 
L 206.702122 241.584 
z
" clip-path="url(#pbbc6cd87b9)" style="fill: #7f7f7f; opacity: 0.5"/>
   </g>
   <g id="patch_66">
    <path d="M 208.733534 448.56 
L 210.358664 448.56 
L 210.358664 396.816 
L 208.733534 396.816 
z
" clip-path="url(#pbbc6cd87b9)" style="fill: #7f7f7f; opacity: 0.5"/>
   </g>
   <g id="patch_67">
    <path d="M 210.764947 448.56 
L 212.390077 448.56 
L 212.390077 345.072 
L 210.764947 345.072 
z
" clip-path="url(#pbbc6cd87b9)" style="fill: #7f7f7f; opacity: 0.5"/>
   </g>
   <g id="patch_68">
    <path d="M 212.796359 448.56 
L 214.421489 448.56 
L 214.421489 396.816 
L 212.796359 396.816 
z
" clip-path="url(#pbbc6cd87b9)" style="fill: #7f7f7f; opacity: 0.5"/>
   </g>
   <g id="patch_69">
    <path d="M 214.827772 448.56 
L 216.452902 448.56 
L 216.452902 215.712 
L 214.827772 215.712 
z
" clip-path="url(#pbbc6cd87b9)" style="fill: #7f7f7f; opacity: 0.5"/>
   </g>
   <g id="patch_70">
    <path d="M 216.859185 448.56 
L 218.484315 448.56 
L 218.484315 241.584 
L 216.859185 241.584 
z
" clip-path="url(#pbbc6cd87b9)" style="fill: #7f7f7f; opacity: 0.5"/>
   </g>
   <g id="patch_71">
    <path d="M 218.890597 448.56 
L 220.515727 448.56 
L 220.515727 241.584 
L 218.890597 241.584 
z
" clip-path="url(#pbbc6cd87b9)" style="fill: #7f7f7f; opacity: 0.5"/>
   </g>
   <g id="patch_72">
    <path d="M 220.92201 448.56 
L 222.54714 448.56 
L 222.54714 267.456 
L 220.92201 267.456 
z
" clip-path="url(#pbbc6cd87b9)" style="fill: #7f7f7f; opacity: 0.5"/>
   </g>
   <g id="patch_73">
    <path d="M 222.953422 448.56 
L 224.578552 448.56 
L 224.578552 215.712 
L 222.953422 215.712 
z
" clip-path="url(#pbbc6cd87b9)" style="fill: #7f7f7f; opacity: 0.5"/>
   </g>
   <g id="patch_74">
    <path d="M 224.984835 448.56 
L 226.609965 448.56 
L 226.609965 138.096 
L 224.984835 138.096 
z
" clip-path="url(#pbbc6cd87b9)" style="fill: #7f7f7f; opacity: 0.5"/>
   </g>
   <g id="patch_75">
    <path d="M 227.016247 448.56 
L 228.641377 448.56 
L 228.641377 138.096 
L 227.016247 138.096 
z
" clip-path="url(#pbbc6cd87b9)" style="fill: #7f7f7f; opacity: 0.5"/>
   </g>
   <g id="patch_76">
    <path d="M 229.04766 448.56 
L 230.67279 448.56 
L 230.67279 267.456 
L 229.04766 267.456 
z
" clip-path="url(#pbbc6cd87b9)" style="fill: #7f7f7f; opacity: 0.5"/>
   </g>
   <g id="patch_77">
    <path d="M 231.079072 448.56 
L 232.704202 448.56 
L 232.704202 138.096 
L 231.079072 138.096 
z
" clip-path="url(#pbbc6cd87b9)" style="fill: #7f7f7f; opacity: 0.5"/>
   </g>
   <g id="patch_78">
    <path d="M 233.110485 448.56 
L 234.735615 448.56 
L 234.735615 396.816 
L 233.110485 396.816 
z
" clip-path="url(#pbbc6cd87b9)" style="fill: #7f7f7f; opacity: 0.5"/>
   </g>
   <g id="patch_79">
    <path d="M 235.141897 448.56 
L 236.767027 448.56 
L 236.767027 60.48 
L 235.141897 60.48 
z
" clip-path="url(#pbbc6cd87b9)" style="fill: #7f7f7f; opacity: 0.5"/>
   </g>
   <g id="patch_80">
    <path d="M 237.17331 448.56 
L 238.79844 448.56 
L 238.79844 163.968 
L 237.17331 163.968 
z
" clip-path="url(#pbbc6cd87b9)" style="fill: #7f7f7f; opacity: 0.5"/>
   </g>
   <g id="patch_81">
    <path d="M 239.204722 448.56 
L 240.829852 448.56 
L 240.829852 319.2 
L 239.204722 319.2 
z
" clip-path="url(#pbbc6cd87b9)" style="fill: #7f7f7f; opacity: 0.5"/>
   </g>
   <g id="patch_82">
    <path d="M 241.236135 448.56 
L 242.861265 448.56 
L 242.861265 345.072 
L 241.236135 345.072 
z
" clip-path="url(#pbbc6cd87b9)" style="fill: #7f7f7f; opacity: 0.5"/>
   </g>
   <g id="patch_83">
    <path d="M 243.267547 448.56 
L 244.892677 448.56 
L 244.892677 396.816 
L 243.267547 396.816 
z
" clip-path="url(#pbbc6cd87b9)" style="fill: #7f7f7f; opacity: 0.5"/>
   </g>
   <g id="patch_84">
    <path d="M 245.29896 448.56 
L 246.92409 448.56 
L 246.92409 345.072 
L 245.29896 345.072 
z
" clip-path="url(#pbbc6cd87b9)" style="fill: #7f7f7f; opacity: 0.5"/>
   </g>
   <g id="patch_85">
    <path d="M 247.330372 448.56 
L 248.955502 448.56 
L 248.955502 267.456 
L 247.330372 267.456 
z
" clip-path="url(#pbbc6cd87b9)" style="fill: #7f7f7f; opacity: 0.5"/>
   </g>
   <g id="patch_86">
    <path d="M 249.361785 448.56 
L 250.986915 448.56 
L 250.986915 112.224 
L 249.361785 112.224 
z
" clip-path="url(#pbbc6cd87b9)" style="fill: #7f7f7f; opacity: 0.5"/>
   </g>
   <g id="patch_87">
    <path d="M 251.393197 448.56 
L 253.018327 448.56 
L 253.018327 293.328 
L 251.393197 293.328 
z
" clip-path="url(#pbbc6cd87b9)" style="fill: #7f7f7f; opacity: 0.5"/>
   </g>
   <g id="patch_88">
    <path d="M 253.42461 448.56 
L 255.04974 448.56 
L 255.04974 241.584 
L 253.42461 241.584 
z
" clip-path="url(#pbbc6cd87b9)" style="fill: #7f7f7f; opacity: 0.5"/>
   </g>
   <g id="patch_89">
    <path d="M 255.456022 448.56 
L 257.081152 448.56 
L 257.081152 345.072 
L 255.456022 345.072 
z
" clip-path="url(#pbbc6cd87b9)" style="fill: #7f7f7f; opacity: 0.5"/>
   </g>
   <g id="patch_90">
    <path d="M 257.487435 448.56 
L 259.112565 448.56 
L 259.112565 319.2 
L 257.487435 319.2 
z
" clip-path="url(#pbbc6cd87b9)" style="fill: #7f7f7f; opacity: 0.5"/>
   </g>
   <g id="patch_91">
    <path d="M 259.518848 448.56 
L 261.143978 448.56 
L 261.143978 370.944 
L 259.518848 370.944 
z
" clip-path="url(#pbbc6cd87b9)" style="fill: #7f7f7f; opacity: 0.5"/>
   </g>
   <g id="patch_92">
    <path d="M 261.55026 448.56 
L 263.17539 448.56 
L 263.17539 396.816 
L 261.55026 396.816 
z
" clip-path="url(#pbbc6cd87b9)" style="fill: #7f7f7f; opacity: 0.5"/>
   </g>
   <g id="patch_93">
    <path d="M 263.581673 448.56 
L 265.206803 448.56 
L 265.206803 396.816 
L 263.581673 396.816 
z
" clip-path="url(#pbbc6cd87b9)" style="fill: #7f7f7f; opacity: 0.5"/>
   </g>
   <g id="patch_94">
    <path d="M 265.613085 448.56 
L 267.238215 448.56 
L 267.238215 448.56 
L 265.613085 448.56 
z
" clip-path="url(#pbbc6cd87b9)" style="fill: #7f7f7f; opacity: 0.5"/>
   </g>
   <g id="patch_95">
    <path d="M 267.644498 448.56 
L 269.269628 448.56 
L 269.269628 422.688 
L 267.644498 422.688 
z
" clip-path="url(#pbbc6cd87b9)" style="fill: #7f7f7f; opacity: 0.5"/>
   </g>
   <g id="patch_96">
    <path d="M 269.67591 448.56 
L 271.30104 448.56 
L 271.30104 396.816 
L 269.67591 396.816 
z
" clip-path="url(#pbbc6cd87b9)" style="fill: #7f7f7f; opacity: 0.5"/>
   </g>
   <g id="patch_97">
    <path d="M 271.707323 448.56 
L 273.332453 448.56 
L 273.332453 370.944 
L 271.707323 370.944 
z
" clip-path="url(#pbbc6cd87b9)" style="fill: #7f7f7f; opacity: 0.5"/>
   </g>
   <g id="patch_98">
    <path d="M 273.738735 448.56 
L 275.363865 448.56 
L 275.363865 422.688 
L 273.738735 422.688 
z
" clip-path="url(#pbbc6cd87b9)" style="fill: #7f7f7f; opacity: 0.5"/>
   </g>
   <g id="patch_99">
    <path d="M 275.770148 448.56 
L 277.395278 448.56 
L 277.395278 370.944 
L 275.770148 370.944 
z
" clip-path="url(#pbbc6cd87b9)" style="fill: #7f7f7f; opacity: 0.5"/>
   </g>
   <g id="patch_100">
    <path d="M 277.80156 448.56 
L 279.42669 448.56 
L 279.42669 396.816 
L 277.80156 396.816 
z
" clip-path="url(#pbbc6cd87b9)" style="fill: #7f7f7f; opacity: 0.5"/>
   </g>
   <g id="patch_101">
    <path d="M 279.832973 448.56 
L 281.458103 448.56 
L 281.458103 448.56 
L 279.832973 448.56 
z
" clip-path="url(#pbbc6cd87b9)" style="fill: #7f7f7f; opacity: 0.5"/>
   </g>
   <g id="patch_102">
    <path d="M 281.864385 448.56 
L 283.489515 448.56 
L 283.489515 448.56 
L 281.864385 448.56 
z
" clip-path="url(#pbbc6cd87b9)" style="fill: #7f7f7f; opacity: 0.5"/>
   </g>
   <g id="patch_103">
    <path d="M 283.895798 448.56 
L 285.520928 448.56 
L 285.520928 422.688 
L 283.895798 422.688 
z
" clip-path="url(#pbbc6cd87b9)" style="fill: #7f7f7f; opacity: 0.5"/>
   </g>
   <g id="patch_104">
    <path d="M 285.92721 448.56 
L 287.55234 448.56 
L 287.55234 396.816 
L 285.92721 396.816 
z
" clip-path="url(#pbbc6cd87b9)" style="fill: #7f7f7f; opacity: 0.5"/>
   </g>
   <g id="patch_105">
    <path d="M 287.958623 448.56 
L 289.583753 448.56 
L 289.583753 422.688 
L 287.958623 422.688 
z
" clip-path="url(#pbbc6cd87b9)" style="fill: #7f7f7f; opacity: 0.5"/>
   </g>
   <g id="patch_106">
    <path d="M 289.990035 448.56 
L 291.615165 448.56 
L 291.615165 448.56 
L 289.990035 448.56 
z
" clip-path="url(#pbbc6cd87b9)" style="fill: #7f7f7f; opacity: 0.5"/>
   </g>
   <g id="patch_107">
    <path d="M 292.021448 448.56 
L 293.646578 448.56 
L 293.646578 422.688 
L 292.021448 422.688 
z
" clip-path="url(#pbbc6cd87b9)" style="fill: #7f7f7f; opacity: 0.5"/>
   </g>
   <g id="patch_108">
    <path d="M 294.05286 448.56 
L 295.67799 448.56 
L 295.67799 448.56 
L 294.05286 448.56 
z
" clip-path="url(#pbbc6cd87b9)" style="fill: #7f7f7f; opacity: 0.5"/>
   </g>
   <g id="patch_109">
    <path d="M 296.084273 448.56 
L 297.709403 448.56 
L 297.709403 422.688 
L 296.084273 422.688 
z
" clip-path="url(#pbbc6cd87b9)" style="fill: #7f7f7f; opacity: 0.5"/>
   </g>
   <g id="patch_110">
    <path d="M 298.115685 448.56 
L 299.740815 448.56 
L 299.740815 448.56 
L 298.115685 448.56 
z
" clip-path="url(#pbbc6cd87b9)" style="fill: #7f7f7f; opacity: 0.5"/>
   </g>
   <g id="patch_111">
    <path d="M 300.147098 448.56 
L 301.772228 448.56 
L 301.772228 448.56 
L 300.147098 448.56 
z
" clip-path="url(#pbbc6cd87b9)" style="fill: #7f7f7f; opacity: 0.5"/>
   </g>
   <g id="patch_112">
    <path d="M 302.178511 448.56 
L 303.803641 448.56 
L 303.803641 448.56 
L 302.178511 448.56 
z
" clip-path="url(#pbbc6cd87b9)" style="fill: #7f7f7f; opacity: 0.5"/>
   </g>
   <g id="patch_113">
    <path d="M 304.209923 448.56 
L 305.835053 448.56 
L 305.835053 422.688 
L 304.209923 422.688 
z
" clip-path="url(#pbbc6cd87b9)" style="fill: #7f7f7f; opacity: 0.5"/>
   </g>
   <g id="patch_114">
    <path d="M 306.241336 448.56 
L 307.866466 448.56 
L 307.866466 422.688 
L 306.241336 422.688 
z
" clip-path="url(#pbbc6cd87b9)" style="fill: #7f7f7f; opacity: 0.5"/>
   </g>
   <g id="patch_115">
    <path d="M 308.272748 448.56 
L 309.897878 448.56 
L 309.897878 448.56 
L 308.272748 448.56 
z
" clip-path="url(#pbbc6cd87b9)" style="fill: #7f7f7f; opacity: 0.5"/>
   </g>
   <g id="patch_116">
    <path d="M 310.304161 448.56 
L 311.929291 448.56 
L 311.929291 448.56 
L 310.304161 448.56 
z
" clip-path="url(#pbbc6cd87b9)" style="fill: #7f7f7f; opacity: 0.5"/>
   </g>
   <g id="patch_117">
    <path d="M 312.335573 448.56 
L 313.960703 448.56 
L 313.960703 448.56 
L 312.335573 448.56 
z
" clip-path="url(#pbbc6cd87b9)" style="fill: #7f7f7f; opacity: 0.5"/>
   </g>
   <g id="patch_118">
    <path d="M 314.366986 448.56 
L 315.992116 448.56 
L 315.992116 422.688 
L 314.366986 422.688 
z
" clip-path="url(#pbbc6cd87b9)" style="fill: #7f7f7f; opacity: 0.5"/>
   </g>
   <g id="patch_119">
    <path d="M 316.398398 448.56 
L 318.023528 448.56 
L 318.023528 448.56 
L 316.398398 448.56 
z
" clip-path="url(#pbbc6cd87b9)" style="fill: #7f7f7f; opacity: 0.5"/>
   </g>
   <g id="patch_120">
    <path d="M 318.429811 448.56 
L 320.054941 448.56 
L 320.054941 448.56 
L 318.429811 448.56 
z
" clip-path="url(#pbbc6cd87b9)" style="fill: #7f7f7f; opacity: 0.5"/>
   </g>
   <g id="patch_121">
    <path d="M 320.461223 448.56 
L 322.086353 448.56 
L 322.086353 448.56 
L 320.461223 448.56 
z
" clip-path="url(#pbbc6cd87b9)" style="fill: #7f7f7f; opacity: 0.5"/>
   </g>
   <g id="patch_122">
    <path d="M 322.492636 448.56 
L 324.117766 448.56 
L 324.117766 448.56 
L 322.492636 448.56 
z
" clip-path="url(#pbbc6cd87b9)" style="fill: #7f7f7f; opacity: 0.5"/>
   </g>
   <g id="patch_123">
    <path d="M 324.524048 448.56 
L 326.149178 448.56 
L 326.149178 448.56 
L 324.524048 448.56 
z
" clip-path="url(#pbbc6cd87b9)" style="fill: #7f7f7f; opacity: 0.5"/>
   </g>
   <g id="patch_124">
    <path d="M 326.555461 448.56 
L 328.180591 448.56 
L 328.180591 448.56 
L 326.555461 448.56 
z
" clip-path="url(#pbbc6cd87b9)" style="fill: #7f7f7f; opacity: 0.5"/>
   </g>
   <g id="patch_125">
    <path d="M 328.586873 448.56 
L 330.212003 448.56 
L 330.212003 448.56 
L 328.586873 448.56 
z
" clip-path="url(#pbbc6cd87b9)" style="fill: #7f7f7f; opacity: 0.5"/>
   </g>
   <g id="patch_126">
    <path d="M 330.618286 448.56 
L 332.243416 448.56 
L 332.243416 448.56 
L 330.618286 448.56 
z
" clip-path="url(#pbbc6cd87b9)" style="fill: #7f7f7f; opacity: 0.5"/>
   </g>
   <g id="patch_127">
    <path d="M 332.649698 448.56 
L 334.274828 448.56 
L 334.274828 448.56 
L 332.649698 448.56 
z
" clip-path="url(#pbbc6cd87b9)" style="fill: #7f7f7f; opacity: 0.5"/>
   </g>
   <g id="patch_128">
    <path d="M 334.681111 448.56 
L 336.306241 448.56 
L 336.306241 422.688 
L 334.681111 422.688 
z
" clip-path="url(#pbbc6cd87b9)" style="fill: #7f7f7f; opacity: 0.5"/>
   </g>
   <g id="patch_129">
    <path d="M 336.712523 448.56 
L 338.337653 448.56 
L 338.337653 448.56 
L 336.712523 448.56 
z
" clip-path="url(#pbbc6cd87b9)" style="fill: #7f7f7f; opacity: 0.5"/>
   </g>
   <g id="patch_130">
    <path d="M 338.743936 448.56 
L 340.369066 448.56 
L 340.369066 448.56 
L 338.743936 448.56 
z
" clip-path="url(#pbbc6cd87b9)" style="fill: #7f7f7f; opacity: 0.5"/>
   </g>
   <g id="patch_131">
    <path d="M 340.775348 448.56 
L 342.400478 448.56 
L 342.400478 448.56 
L 340.775348 448.56 
z
" clip-path="url(#pbbc6cd87b9)" style="fill: #7f7f7f; opacity: 0.5"/>
   </g>
   <g id="patch_132">
    <path d="M 342.806761 448.56 
L 344.431891 448.56 
L 344.431891 448.56 
L 342.806761 448.56 
z
" clip-path="url(#pbbc6cd87b9)" style="fill: #7f7f7f; opacity: 0.5"/>
   </g>
   <g id="patch_133">
    <path d="M 344.838173 448.56 
L 346.463304 448.56 
L 346.463304 448.56 
L 344.838173 448.56 
z
" clip-path="url(#pbbc6cd87b9)" style="fill: #7f7f7f; opacity: 0.5"/>
   </g>
   <g id="patch_134">
    <path d="M 346.869586 448.56 
L 348.494716 448.56 
L 348.494716 448.56 
L 346.869586 448.56 
z
" clip-path="url(#pbbc6cd87b9)" style="fill: #7f7f7f; opacity: 0.5"/>
   </g>
   <g id="patch_135">
    <path d="M 348.900999 448.56 
L 350.526129 448.56 
L 350.526129 422.688 
L 348.900999 422.688 
z
" clip-path="url(#pbbc6cd87b9)" style="fill: #7f7f7f; opacity: 0.5"/>
   </g>
   <g id="patch_136">
    <path d="M 350.932411 448.56 
L 352.557541 448.56 
L 352.557541 448.56 
L 350.932411 448.56 
z
" clip-path="url(#pbbc6cd87b9)" style="fill: #7f7f7f; opacity: 0.5"/>
   </g>
   <g id="patch_137">
    <path d="M 352.963824 448.56 
L 354.588954 448.56 
L 354.588954 448.56 
L 352.963824 448.56 
z
" clip-path="url(#pbbc6cd87b9)" style="fill: #7f7f7f; opacity: 0.5"/>
   </g>
   <g id="patch_138">
    <path d="M 354.995236 448.56 
L 356.620366 448.56 
L 356.620366 448.56 
L 354.995236 448.56 
z
" clip-path="url(#pbbc6cd87b9)" style="fill: #7f7f7f; opacity: 0.5"/>
   </g>
   <g id="patch_139">
    <path d="M 357.026649 448.56 
L 358.651779 448.56 
L 358.651779 448.56 
L 357.026649 448.56 
z
" clip-path="url(#pbbc6cd87b9)" style="fill: #7f7f7f; opacity: 0.5"/>
   </g>
   <g id="patch_140">
    <path d="M 359.058061 448.56 
L 360.683191 448.56 
L 360.683191 448.56 
L 359.058061 448.56 
z
" clip-path="url(#pbbc6cd87b9)" style="fill: #7f7f7f; opacity: 0.5"/>
   </g>
   <g id="patch_141">
    <path d="M 361.089474 448.56 
L 362.714604 448.56 
L 362.714604 448.56 
L 361.089474 448.56 
z
" clip-path="url(#pbbc6cd87b9)" style="fill: #7f7f7f; opacity: 0.5"/>
   </g>
   <g id="patch_142">
    <path d="M 363.120886 448.56 
L 364.746016 448.56 
L 364.746016 448.56 
L 363.120886 448.56 
z
" clip-path="url(#pbbc6cd87b9)" style="fill: #7f7f7f; opacity: 0.5"/>
   </g>
   <g id="patch_143">
    <path d="M 365.152299 448.56 
L 366.777429 448.56 
L 366.777429 448.56 
L 365.152299 448.56 
z
" clip-path="url(#pbbc6cd87b9)" style="fill: #7f7f7f; opacity: 0.5"/>
   </g>
   <g id="patch_144">
    <path d="M 367.183711 448.56 
L 368.808841 448.56 
L 368.808841 448.56 
L 367.183711 448.56 
z
" clip-path="url(#pbbc6cd87b9)" style="fill: #7f7f7f; opacity: 0.5"/>
   </g>
   <g id="patch_145">
    <path d="M 369.215124 448.56 
L 370.840254 448.56 
L 370.840254 448.56 
L 369.215124 448.56 
z
" clip-path="url(#pbbc6cd87b9)" style="fill: #7f7f7f; opacity: 0.5"/>
   </g>
   <g id="patch_146">
    <path d="M 371.246536 448.56 
L 372.871666 448.56 
L 372.871666 448.56 
L 371.246536 448.56 
z
" clip-path="url(#pbbc6cd87b9)" style="fill: #7f7f7f; opacity: 0.5"/>
   </g>
   <g id="patch_147">
    <path d="M 373.277949 448.56 
L 374.903079 448.56 
L 374.903079 448.56 
L 373.277949 448.56 
z
" clip-path="url(#pbbc6cd87b9)" style="fill: #7f7f7f; opacity: 0.5"/>
   </g>
   <g id="patch_148">
    <path d="M 375.309361 448.56 
L 376.934491 448.56 
L 376.934491 448.56 
L 375.309361 448.56 
z
" clip-path="url(#pbbc6cd87b9)" style="fill: #7f7f7f; opacity: 0.5"/>
   </g>
   <g id="patch_149">
    <path d="M 377.340774 448.56 
L 378.965904 448.56 
L 378.965904 448.56 
L 377.340774 448.56 
z
" clip-path="url(#pbbc6cd87b9)" style="fill: #7f7f7f; opacity: 0.5"/>
   </g>
   <g id="patch_150">
    <path d="M 379.372186 448.56 
L 380.997316 448.56 
L 380.997316 448.56 
L 379.372186 448.56 
z
" clip-path="url(#pbbc6cd87b9)" style="fill: #7f7f7f; opacity: 0.5"/>
   </g>
   <g id="patch_151">
    <path d="M 381.403599 448.56 
L 383.028729 448.56 
L 383.028729 448.56 
L 381.403599 448.56 
z
" clip-path="url(#pbbc6cd87b9)" style="fill: #7f7f7f; opacity: 0.5"/>
   </g>
   <g id="patch_152">
    <path d="M 383.435011 448.56 
L 385.060141 448.56 
L 385.060141 448.56 
L 383.435011 448.56 
z
" clip-path="url(#pbbc6cd87b9)" style="fill: #7f7f7f; opacity: 0.5"/>
   </g>
   <g id="patch_153">
    <path d="M 385.466424 448.56 
L 387.091554 448.56 
L 387.091554 448.56 
L 385.466424 448.56 
z
" clip-path="url(#pbbc6cd87b9)" style="fill: #7f7f7f; opacity: 0.5"/>
   </g>
   <g id="patch_154">
    <path d="M 387.497836 448.56 
L 389.122967 448.56 
L 389.122967 448.56 
L 387.497836 448.56 
z
" clip-path="url(#pbbc6cd87b9)" style="fill: #7f7f7f; opacity: 0.5"/>
   </g>
   <g id="patch_155">
    <path d="M 389.529249 448.56 
L 391.154379 448.56 
L 391.154379 448.56 
L 389.529249 448.56 
z
" clip-path="url(#pbbc6cd87b9)" style="fill: #7f7f7f; opacity: 0.5"/>
   </g>
   <g id="patch_156">
    <path d="M 391.560662 448.56 
L 393.185792 448.56 
L 393.185792 448.56 
L 391.560662 448.56 
z
" clip-path="url(#pbbc6cd87b9)" style="fill: #7f7f7f; opacity: 0.5"/>
   </g>
   <g id="patch_157">
    <path d="M 393.592074 448.56 
L 395.217204 448.56 
L 395.217204 448.56 
L 393.592074 448.56 
z
" clip-path="url(#pbbc6cd87b9)" style="fill: #7f7f7f; opacity: 0.5"/>
   </g>
   <g id="patch_158">
    <path d="M 395.623487 448.56 
L 397.248617 448.56 
L 397.248617 448.56 
L 395.623487 448.56 
z
" clip-path="url(#pbbc6cd87b9)" style="fill: #7f7f7f; opacity: 0.5"/>
   </g>
   <g id="patch_159">
    <path d="M 397.654899 448.56 
L 399.280029 448.56 
L 399.280029 448.56 
L 397.654899 448.56 
z
" clip-path="url(#pbbc6cd87b9)" style="fill: #7f7f7f; opacity: 0.5"/>
   </g>
   <g id="patch_160">
    <path d="M 399.686312 448.56 
L 401.311442 448.56 
L 401.311442 448.56 
L 399.686312 448.56 
z
" clip-path="url(#pbbc6cd87b9)" style="fill: #7f7f7f; opacity: 0.5"/>
   </g>
   <g id="patch_161">
    <path d="M 401.717724 448.56 
L 403.342854 448.56 
L 403.342854 448.56 
L 401.717724 448.56 
z
" clip-path="url(#pbbc6cd87b9)" style="fill: #7f7f7f; opacity: 0.5"/>
   </g>
   <g id="patch_162">
    <path d="M 403.749137 448.56 
L 405.374267 448.56 
L 405.374267 448.56 
L 403.749137 448.56 
z
" clip-path="url(#pbbc6cd87b9)" style="fill: #7f7f7f; opacity: 0.5"/>
   </g>
   <g id="patch_163">
    <path d="M 405.780549 448.56 
L 407.405679 448.56 
L 407.405679 448.56 
L 405.780549 448.56 
z
" clip-path="url(#pbbc6cd87b9)" style="fill: #7f7f7f; opacity: 0.5"/>
   </g>
   <g id="patch_164">
    <path d="M 407.811962 448.56 
L 409.437092 448.56 
L 409.437092 448.56 
L 407.811962 448.56 
z
" clip-path="url(#pbbc6cd87b9)" style="fill: #7f7f7f; opacity: 0.5"/>
   </g>
   <g id="patch_165">
    <path d="M 409.843374 448.56 
L 411.468504 448.56 
L 411.468504 448.56 
L 409.843374 448.56 
z
" clip-path="url(#pbbc6cd87b9)" style="fill: #7f7f7f; opacity: 0.5"/>
   </g>
   <g id="patch_166">
    <path d="M 411.874787 448.56 
L 413.499917 448.56 
L 413.499917 448.56 
L 411.874787 448.56 
z
" clip-path="url(#pbbc6cd87b9)" style="fill: #7f7f7f; opacity: 0.5"/>
   </g>
   <g id="patch_167">
    <path d="M 413.906199 448.56 
L 415.531329 448.56 
L 415.531329 448.56 
L 413.906199 448.56 
z
" clip-path="url(#pbbc6cd87b9)" style="fill: #7f7f7f; opacity: 0.5"/>
   </g>
   <g id="patch_168">
    <path d="M 415.937612 448.56 
L 417.562742 448.56 
L 417.562742 448.56 
L 415.937612 448.56 
z
" clip-path="url(#pbbc6cd87b9)" style="fill: #7f7f7f; opacity: 0.5"/>
   </g>
   <g id="patch_169">
    <path d="M 417.969024 448.56 
L 419.594154 448.56 
L 419.594154 448.56 
L 417.969024 448.56 
z
" clip-path="url(#pbbc6cd87b9)" style="fill: #7f7f7f; opacity: 0.5"/>
   </g>
   <g id="patch_170">
    <path d="M 420.000437 448.56 
L 421.625567 448.56 
L 421.625567 448.56 
L 420.000437 448.56 
z
" clip-path="url(#pbbc6cd87b9)" style="fill: #7f7f7f; opacity: 0.5"/>
   </g>
   <g id="patch_171">
    <path d="M 422.031849 448.56 
L 423.656979 448.56 
L 423.656979 448.56 
L 422.031849 448.56 
z
" clip-path="url(#pbbc6cd87b9)" style="fill: #7f7f7f; opacity: 0.5"/>
   </g>
   <g id="patch_172">
    <path d="M 424.063262 448.56 
L 425.688392 448.56 
L 425.688392 448.56 
L 424.063262 448.56 
z
" clip-path="url(#pbbc6cd87b9)" style="fill: #7f7f7f; opacity: 0.5"/>
   </g>
   <g id="patch_173">
    <path d="M 426.094674 448.56 
L 427.719804 448.56 
L 427.719804 448.56 
L 426.094674 448.56 
z
" clip-path="url(#pbbc6cd87b9)" style="fill: #7f7f7f; opacity: 0.5"/>
   </g>
   <g id="patch_174">
    <path d="M 428.126087 448.56 
L 429.751217 448.56 
L 429.751217 448.56 
L 428.126087 448.56 
z
" clip-path="url(#pbbc6cd87b9)" style="fill: #7f7f7f; opacity: 0.5"/>
   </g>
   <g id="patch_175">
    <path d="M 430.157499 448.56 
L 431.782629 448.56 
L 431.782629 448.56 
L 430.157499 448.56 
z
" clip-path="url(#pbbc6cd87b9)" style="fill: #7f7f7f; opacity: 0.5"/>
   </g>
   <g id="patch_176">
    <path d="M 432.188912 448.56 
L 433.814042 448.56 
L 433.814042 448.56 
L 432.188912 448.56 
z
" clip-path="url(#pbbc6cd87b9)" style="fill: #7f7f7f; opacity: 0.5"/>
   </g>
   <g id="patch_177">
    <path d="M 434.220325 448.56 
L 435.845455 448.56 
L 435.845455 448.56 
L 434.220325 448.56 
z
" clip-path="url(#pbbc6cd87b9)" style="fill: #7f7f7f; opacity: 0.5"/>
   </g>
   <g id="patch_178">
    <path d="M 453.6 448.56 
L 453.6 60.48 
" style="fill: none; stroke: #7f7f7f; stroke-width: 0.8; stroke-linejoin: miter; stroke-linecap: square"/>
   </g>
  </g>
  <g id="axes_2">
   <g id="FillBetweenPolyCollection_1">
    <defs>
     <path id="m718779ed62" d="M 81.56711 -425.571232 
L 81.56711 -93.798795 
L 83.598523 -94.739814 
L 85.629936 -94.825014 
L 87.661348 -92.06183 
L 89.692761 -88.936051 
L 91.724173 -86.558694 
L 93.755586 -84.494316 
L 95.786998 -82.872026 
L 97.818411 -81.505448 
L 99.849823 -80.467047 
L 101.881236 -78.97977 
L 103.912648 -78.098706 
L 105.944061 -77.468212 
L 107.975473 -77.162674 
L 110.006886 -77.555814 
L 112.038298 -78.062469 
L 114.069711 -78.949009 
L 116.101123 -80.317381 
L 118.132536 -81.657408 
L 120.163948 -82.946959 
L 122.195361 -85.110199 
L 124.226773 -86.852005 
L 126.258186 -89.333013 
L 128.289599 -91.279765 
L 130.321011 -93.185936 
L 132.352424 -94.192238 
L 134.383836 -96.157312 
L 136.415249 -98.123468 
L 138.446661 -100.282894 
L 140.478074 -100.98871 
L 142.509486 -101.875181 
L 144.540899 -104.252639 
L 146.572311 -104.453181 
L 148.603724 -103.913161 
L 150.635136 -105.454914 
L 152.666549 -105.684601 
L 154.697961 -108.337001 
L 156.729374 -114.066011 
L 158.760786 -115.156382 
L 160.792199 -112.887661 
L 162.823611 -113.189374 
L 164.855024 -113.26129 
L 166.886436 -114.460605 
L 168.917849 -116.738714 
L 170.949261 -116.36752 
L 172.980674 -118.698311 
L 175.012087 -121.961424 
L 177.043499 -130.720387 
L 179.074912 -133.622518 
L 181.106324 -136.421377 
L 183.137737 -140.942853 
L 185.169149 -149.268527 
L 187.200562 -155.305123 
L 189.231974 -163.687586 
L 191.263387 -158.698351 
L 193.294799 -155.284686 
L 195.326212 -141.600269 
L 197.357624 -130.871508 
L 199.389037 -121.33367 
L 201.420449 -112.434582 
L 203.451862 -101.447457 
L 205.483274 -95.636921 
L 207.514687 -95.515732 
L 209.546099 -92.057017 
L 211.577512 -92.107394 
L 213.608924 -93.225783 
L 215.640337 -100.431513 
L 217.67175 -104.888713 
L 219.703162 -108.058418 
L 221.734575 -111.083286 
L 223.765987 -116.898557 
L 225.7974 -123.303062 
L 227.828812 -122.045134 
L 229.860225 -116.493454 
L 231.891637 -114.848716 
L 233.92305 -107.063543 
L 235.954462 -108.977125 
L 237.985875 -102.904686 
L 240.017287 -91.850287 
L 242.0487 -86.002507 
L 244.080112 -82.998344 
L 246.111525 -83.578364 
L 248.142937 -87.481857 
L 250.17435 -90.646906 
L 252.205762 -87.450059 
L 254.237175 -85.706838 
L 256.268587 -81.190165 
L 258.3 -78.507301 
L 260.331413 -75.724225 
L 262.362825 -73.810047 
L 264.394238 -72.345968 
L 266.42565 -71.645708 
L 268.457063 -71.708671 
L 270.488475 -72.849499 
L 272.519888 -73.640951 
L 274.5513 -74.191332 
L 276.582713 -75.179023 
L 278.614125 -75.076667 
L 280.645538 -75.1719 
L 282.67695 -75.835451 
L 284.708363 -77.131484 
L 286.739775 -78.044597 
L 288.771188 -77.90725 
L 290.8026 -78.121485 
L 292.834013 -78.68614 
L 294.865425 -79.450213 
L 296.896838 -80.450356 
L 298.92825 -80.920193 
L 300.959663 -80.935912 
L 302.991076 -81.676288 
L 305.022488 -82.922865 
L 307.053901 -83.785347 
L 309.085313 -83.865973 
L 311.116726 -83.689675 
L 313.148138 -84.02726 
L 315.179551 -83.681663 
L 317.210963 -83.920087 
L 319.242376 -82.999357 
L 321.273788 -82.996757 
L 323.305201 -82.784018 
L 325.336613 -82.437583 
L 327.368026 -82.060345 
L 329.399438 -81.9634 
L 331.430851 -82.100882 
L 333.462263 -83.001084 
L 335.493676 -82.903837 
L 337.525088 -82.177574 
L 339.556501 -80.805795 
L 341.587913 -80.830639 
L 343.619326 -80.103351 
L 345.650739 -79.732395 
L 347.682151 -79.60382 
L 349.713564 -79.648561 
L 351.744976 -78.412689 
L 353.776389 -77.629126 
L 355.807801 -77.224375 
L 357.839214 -76.918531 
L 359.870626 -76.96719 
L 361.902039 -76.169866 
L 363.933451 -75.280171 
L 365.964864 -75.03449 
L 367.996276 -74.248604 
L 370.027689 -73.508592 
L 372.059101 -73.881073 
L 374.090514 -73.663996 
L 376.121926 -73.513855 
L 378.153339 -72.174092 
L 380.184751 -71.833151 
L 382.216164 -71.459668 
L 384.247576 -71.276719 
L 386.278989 -71.196882 
L 388.310401 -70.35861 
L 390.341814 -70.144072 
L 392.373227 -70.331664 
L 394.404639 -69.721796 
L 396.436052 -70.083706 
L 398.467464 -70.139918 
L 400.498877 -69.771198 
L 402.530289 -69.395128 
L 404.561702 -69.672819 
L 406.593114 -68.794047 
L 408.624527 -68.905411 
L 410.655939 -69.104891 
L 412.687352 -68.857653 
L 414.718764 -69.006204 
L 416.750177 -68.726027 
L 418.781589 -68.216162 
L 420.813002 -68.143579 
L 422.844414 -67.513645 
L 424.875827 -67.522912 
L 426.907239 -67.291089 
L 428.938652 -67.140423 
L 430.970064 -67.018694 
L 433.001477 -66.767054 
L 435.03289 -66.595869 
L 435.03289 -344.148328 
L 435.03289 -344.148328 
L 433.001477 -345.718568 
L 430.970064 -349.841792 
L 428.938652 -346.230645 
L 426.907239 -347.214042 
L 424.875827 -347.12404 
L 422.844414 -351.643704 
L 420.813002 -345.455185 
L 418.781589 -348.54424 
L 416.750177 -343.51979 
L 414.718764 -338.38675 
L 412.687352 -344.183598 
L 410.655939 -349.499354 
L 408.624527 -342.081217 
L 406.593114 -344.431289 
L 404.561702 -347.047203 
L 402.530289 -354.637716 
L 400.498877 -353.897098 
L 398.467464 -353.734015 
L 396.436052 -357.288015 
L 394.404639 -361.245731 
L 392.373227 -363.084665 
L 390.341814 -365.556469 
L 388.310401 -364.564838 
L 386.278989 -368.270581 
L 384.247576 -365.450423 
L 382.216164 -367.087501 
L 380.184751 -369.385546 
L 378.153339 -370.828499 
L 376.121926 -368.918857 
L 374.090514 -374.236059 
L 372.059101 -371.592999 
L 370.027689 -375.556864 
L 367.996276 -374.412318 
L 365.964864 -373.096732 
L 363.933451 -384.69894 
L 361.902039 -389.239467 
L 359.870626 -399.674002 
L 357.839214 -407.527558 
L 355.807801 -417.393265 
L 353.776389 -418.38129 
L 351.744976 -423.912346 
L 349.713564 -415.930833 
L 347.682151 -415.785481 
L 345.650739 -400.701618 
L 343.619326 -395.039926 
L 341.587913 -388.518978 
L 339.556501 -390.497778 
L 337.525088 -383.004005 
L 335.493676 -372.896576 
L 333.462263 -348.783419 
L 331.430851 -337.811468 
L 329.399438 -323.702004 
L 327.368026 -313.310913 
L 325.336613 -299.208853 
L 323.305201 -287.673623 
L 321.273788 -281.344728 
L 319.242376 -277.585383 
L 317.210963 -274.550952 
L 315.179551 -265.256424 
L 313.148138 -256.539328 
L 311.116726 -245.397319 
L 309.085313 -236.805 
L 307.053901 -232.36977 
L 305.022488 -220.632108 
L 302.991076 -209.924933 
L 300.959663 -197.833129 
L 298.92825 -186.053227 
L 296.896838 -181.452892 
L 294.865425 -170.007673 
L 292.834013 -164.487613 
L 290.8026 -155.029454 
L 288.771188 -150.723312 
L 286.739775 -141.255245 
L 284.708363 -133.188564 
L 282.67695 -125.74243 
L 280.645538 -122.070516 
L 278.614125 -119.895532 
L 276.582713 -116.725989 
L 274.5513 -110.94409 
L 272.519888 -108.701502 
L 270.488475 -104.511055 
L 268.457063 -100.337022 
L 266.42565 -99.276004 
L 264.394238 -99.995358 
L 262.362825 -102.68874 
L 260.331413 -105.53511 
L 258.3 -110.808511 
L 256.268587 -114.957876 
L 254.237175 -120.864174 
L 252.205762 -124.406647 
L 250.17435 -130.002887 
L 248.142937 -123.209879 
L 246.111525 -116.842308 
L 244.080112 -114.463996 
L 242.0487 -121.205463 
L 240.017287 -132.322277 
L 237.985875 -151.040791 
L 235.954462 -166.974549 
L 233.92305 -159.114397 
L 231.891637 -173.559085 
L 229.860225 -176.048985 
L 227.828812 -188.572648 
L 225.7974 -187.345506 
L 223.765987 -178.488409 
L 221.734575 -167.066172 
L 219.703162 -161.011043 
L 217.67175 -156.589279 
L 215.640337 -151.241439 
L 213.608924 -137.077403 
L 211.577512 -133.694429 
L 209.546099 -137.680808 
L 207.514687 -146.186534 
L 205.483274 -146.929987 
L 203.451862 -158.502125 
L 201.420449 -182.183904 
L 199.389037 -200.816678 
L 197.357624 -216.984624 
L 195.326212 -246.932928 
L 193.294799 -278.930037 
L 191.263387 -291.339189 
L 189.231974 -300.439016 
L 187.200562 -287.373273 
L 185.169149 -274.276043 
L 183.137737 -261.684161 
L 181.106324 -261.061004 
L 179.074912 -255.29283 
L 177.043499 -249.408387 
L 175.012087 -240.298777 
L 172.980674 -228.509387 
L 170.949261 -227.206585 
L 168.917849 -238.434977 
L 166.886436 -239.776148 
L 164.855024 -234.18205 
L 162.823611 -235.177575 
L 160.792199 -238.721415 
L 158.760786 -243.4324 
L 156.729374 -243.492704 
L 154.697961 -234.552231 
L 152.666549 -232.38771 
L 150.635136 -230.388842 
L 148.603724 -231.435361 
L 146.572311 -240.270125 
L 144.540899 -245.318456 
L 142.509486 -244.753896 
L 140.478074 -247.264079 
L 138.446661 -245.727382 
L 136.415249 -247.063944 
L 134.383836 -243.254613 
L 132.352424 -232.391702 
L 130.321011 -225.792454 
L 128.289599 -213.150276 
L 126.258186 -200.908652 
L 124.226773 -191.132595 
L 122.195361 -180.863518 
L 120.163948 -171.984636 
L 118.132536 -162.730324 
L 116.101123 -156.854522 
L 114.069711 -155.509776 
L 112.038298 -150.117958 
L 110.006886 -147.946541 
L 107.975473 -150.039541 
L 105.944061 -153.211996 
L 103.912648 -157.664496 
L 101.881236 -168.033016 
L 99.849823 -182.0381 
L 97.818411 -199.2833 
L 95.786998 -221.100585 
L 93.755586 -243.842572 
L 91.724173 -271.897607 
L 89.692761 -305.292303 
L 87.661348 -339.376265 
L 85.629936 -389.810998 
L 83.598523 -423.05171 
L 81.56711 -425.571232 
z
" style="stroke: #1f77b4; stroke-opacity: 0.3"/>
    </defs>
    <g clip-path="url(#pbbc6cd87b9)">
     <use xlink:href="#m718779ed62" x="0" y="504" style="fill: #1f77b4; fill-opacity: 0.3; stroke: #1f77b4; stroke-opacity: 0.3"/>
    </g>
   </g>
   <g id="matplotlib.axis_2">
    <g id="xtick_1">
     <g id="line2d_9">
      <defs>
       <path id="m494c5505f3" d="M 0 0 
L 0 3.5 
" style="stroke: #000000; stroke-width: 0.8"/>
      </defs>
      <g>
       <use xlink:href="#m494c5505f3" x="91.724173" y="448.56" style="stroke: #000000; stroke-width: 0.8"/>
      </g>
     </g>
     <g id="text_10">
      <text style="font-size: 16px; font-family: 'Arial', sans-serif; text-anchor: middle" x="91.724173" y="467.7175" transform="rotate(-0 91.724173 467.7175)">1 Jul</text>
     </g>
    </g>
    <g id="xtick_2">
     <g id="line2d_10">
      <g>
       <use xlink:href="#m494c5505f3" x="154.697961" y="448.56" style="stroke: #000000; stroke-width: 0.8"/>
      </g>
     </g>
     <g id="text_11">
      <text style="font-size: 16px; font-family: 'Arial', sans-serif; text-anchor: middle" x="154.697961" y="467.71625" transform="rotate(-0 154.697961 467.71625)">1 Aug</text>
     </g>
    </g>
    <g id="xtick_3">
     <g id="line2d_11">
      <g>
       <use xlink:href="#m494c5505f3" x="217.67175" y="448.56" style="stroke: #000000; stroke-width: 0.8"/>
      </g>
     </g>
     <g id="text_12">
      <text style="font-size: 16px; font-family: 'Arial', sans-serif; text-anchor: middle" x="217.67175" y="467.71625" transform="rotate(-0 217.67175 467.71625)">1 Sep</text>
     </g>
    </g>
    <g id="xtick_4">
     <g id="line2d_12">
      <g>
       <use xlink:href="#m494c5505f3" x="278.614125" y="448.56" style="stroke: #000000; stroke-width: 0.8"/>
      </g>
     </g>
     <g id="text_13">
      <text style="font-size: 16px; font-family: 'Arial', sans-serif; text-anchor: middle" x="278.614125" y="467.71625" transform="rotate(-0 278.614125 467.71625)">1 Oct</text>
     </g>
    </g>
    <g id="xtick_5">
     <g id="line2d_13">
      <g>
       <use xlink:href="#m494c5505f3" x="341.587913" y="448.56" style="stroke: #000000; stroke-width: 0.8"/>
      </g>
     </g>
     <g id="text_14">
      <text style="font-size: 16px; font-family: 'Arial', sans-serif; text-anchor: middle" x="341.587913" y="467.71625" transform="rotate(-0 341.587913 467.71625)">1 Nov</text>
     </g>
    </g>
    <g id="xtick_6">
     <g id="line2d_14">
      <g>
       <use xlink:href="#m494c5505f3" x="402.530289" y="448.56" style="stroke: #000000; stroke-width: 0.8"/>
      </g>
     </g>
     <g id="text_15">
      <text style="font-size: 16px; font-family: 'Arial', sans-serif; text-anchor: middle" x="402.530289" y="467.71625" transform="rotate(-0 402.530289 467.71625)">1 Dec</text>
     </g>
    </g>
    <g id="text_16">
     <text style="font-size: 16px; font-family: 'Arial', sans-serif; text-anchor: middle" x="258.3" y="487.7175" transform="rotate(-0 258.3 487.7175)">Date (2017)</text>
    </g>
   </g>
   <g id="matplotlib.axis_3">
    <g id="ytick_9">
     <g id="line2d_15">
      <defs>
       <path id="m0a62a7c359" d="M 0 0 
L -3.5 0 
" style="stroke: #000000; stroke-width: 0.8"/>
      </defs>
      <g>
       <use xlink:href="#m0a62a7c359" x="63" y="448.56" style="stroke: #000000; stroke-width: 0.8"/>
      </g>
     </g>
     <g id="text_17">
      <text style="font-size: 16px; font-family: 'Arial', sans-serif; text-anchor: end" x="56" y="454.638125" transform="rotate(-0 56 454.638125)">0</text>
     </g>
    </g>
    <g id="ytick_10">
     <g id="line2d_16">
      <g>
       <use xlink:href="#m0a62a7c359" x="63" y="403.167344" style="stroke: #000000; stroke-width: 0.8"/>
      </g>
     </g>
     <g id="text_18">
      <text style="font-size: 16px; font-family: 'Arial', sans-serif; text-anchor: end" x="56" y="409.245469" transform="rotate(-0 56 409.245469)">1</text>
     </g>
    </g>
    <g id="ytick_11">
     <g id="line2d_17">
      <g>
       <use xlink:href="#m0a62a7c359" x="63" y="357.774688" style="stroke: #000000; stroke-width: 0.8"/>
      </g>
     </g>
     <g id="text_19">
      <text style="font-size: 16px; font-family: 'Arial', sans-serif; text-anchor: end" x="56" y="363.852813" transform="rotate(-0 56 363.852813)">2</text>
     </g>
    </g>
    <g id="ytick_12">
     <g id="line2d_18">
      <g>
       <use xlink:href="#m0a62a7c359" x="63" y="312.382033" style="stroke: #000000; stroke-width: 0.8"/>
      </g>
     </g>
     <g id="text_20">
      <text style="font-size: 16px; font-family: 'Arial', sans-serif; text-anchor: end" x="56" y="318.460158" transform="rotate(-0 56 318.460158)">3</text>
     </g>
    </g>
    <g id="ytick_13">
     <g id="line2d_19">
      <g>
       <use xlink:href="#m0a62a7c359" x="63" y="266.989377" style="stroke: #000000; stroke-width: 0.8"/>
      </g>
     </g>
     <g id="text_21">
      <text style="font-size: 16px; font-family: 'Arial', sans-serif; text-anchor: end" x="56" y="273.067502" transform="rotate(-0 56 273.067502)">4</text>
     </g>
    </g>
    <g id="ytick_14">
     <g id="line2d_20">
      <g>
       <use xlink:href="#m0a62a7c359" x="63" y="221.596721" style="stroke: #000000; stroke-width: 0.8"/>
      </g>
     </g>
     <g id="text_22">
      <text style="font-size: 16px; font-family: 'Arial', sans-serif; text-anchor: end" x="56" y="227.674846" transform="rotate(-0 56 227.674846)">5</text>
     </g>
    </g>
    <g id="ytick_15">
     <g id="line2d_21">
      <g>
       <use xlink:href="#m0a62a7c359" x="63" y="176.204065" style="stroke: #000000; stroke-width: 0.8"/>
      </g>
     </g>
     <g id="text_23">
      <text style="font-size: 16px; font-family: 'Arial', sans-serif; text-anchor: end" x="56" y="182.28219" transform="rotate(-0 56 182.28219)">6</text>
     </g>
    </g>
    <g id="ytick_16">
     <g id="line2d_22">
      <g>
       <use xlink:href="#m0a62a7c359" x="63" y="130.811409" style="stroke: #000000; stroke-width: 0.8"/>
      </g>
     </g>
     <g id="text_24">
      <text style="font-size: 16px; font-family: 'Arial', sans-serif; text-anchor: end" x="56" y="136.889534" transform="rotate(-0 56 136.889534)">7</text>
     </g>
    </g>
    <g id="ytick_17">
     <g id="line2d_23">
      <g>
       <use xlink:href="#m0a62a7c359" x="63" y="85.418754" style="stroke: #000000; stroke-width: 0.8"/>
      </g>
     </g>
     <g id="text_25">
      <text style="font-size: 16px; font-family: 'Arial', sans-serif; text-anchor: end" x="56" y="91.496879" transform="rotate(-0 56 91.496879)">8</text>
     </g>
    </g>
    <g id="text_26">
     <text style="font-size: 16px; font-family: 'Arial', sans-serif; text-anchor: middle" x="37.97625" y="254.52" transform="rotate(-90 37.97625 254.52)">Reproduction number scaling factor</text>
    </g>
   </g>
   <g id="line2d_24">
    <path d="M 81.56711 306.475799 
L 83.598523 304.238387 
L 85.629936 312.611819 
L 87.661348 328.562634 
L 89.692761 341.867611 
L 91.724173 353.589063 
L 93.755586 363.637608 
L 95.786998 372.229443 
L 97.818411 379.484592 
L 101.881236 390.868686 
L 103.912648 395.031398 
L 105.944061 397.49656 
L 107.975473 398.909021 
L 110.006886 399.329731 
L 112.038298 398.571537 
L 114.069711 396.933036 
L 116.101123 394.65302 
L 118.132536 391.092718 
L 120.163948 386.288958 
L 122.195361 382.541079 
L 124.226773 377.597036 
L 126.258186 371.160127 
L 128.289599 366.22788 
L 130.321011 360.400301 
L 132.352424 356.608178 
L 134.383836 351.966262 
L 136.415249 349.559967 
L 138.446661 346.314732 
L 140.478074 345.48678 
L 142.509486 346.190687 
L 144.540899 345.627242 
L 146.572311 346.122723 
L 148.603724 348.108582 
L 150.635136 347.381108 
L 152.666549 347.25497 
L 154.697961 344.115272 
L 156.729374 337.298719 
L 158.760786 337.062743 
L 160.792199 339.283715 
L 162.823611 340.29122 
L 164.855024 340.851262 
L 166.886436 339.753001 
L 168.917849 337.713879 
L 170.949261 341.371565 
L 172.980674 338.995654 
L 175.012087 333.319808 
L 177.043499 322.746699 
L 179.074912 318.347568 
L 183.137737 310.975548 
L 185.169149 301.007408 
L 187.200562 292.005391 
L 189.231974 281.164774 
L 193.294799 296.08919 
L 195.326212 316.9148 
L 197.357624 335.371859 
L 201.420449 361.046721 
L 203.451862 377.658217 
L 205.483274 385.761798 
L 207.514687 386.266106 
L 209.546099 392.665518 
L 211.577512 393.490856 
L 213.608924 391.745497 
L 215.640337 381.993195 
L 217.67175 376.571498 
L 219.703162 372.439799 
L 221.734575 368.044273 
L 223.765987 360.034306 
L 225.7974 352.494437 
L 227.828812 352.290953 
L 229.860225 360.498441 
L 231.891637 363.07614 
L 233.92305 374.162888 
L 235.954462 369.298393 
L 237.985875 380.092051 
L 240.017287 394.336286 
L 242.0487 402.855677 
L 244.080112 407.090912 
L 246.111525 405.763108 
L 248.142937 401.086645 
L 250.17435 396.042305 
L 252.205762 400.390091 
L 254.237175 403.211596 
L 256.268587 408.247283 
L 258.3 411.559393 
L 260.331413 415.38889 
L 262.362825 418.207217 
L 264.394238 419.919087 
L 266.42565 421.088602 
L 268.457063 420.203264 
L 270.488475 418.16489 
L 272.519888 415.884228 
L 274.5513 414.602168 
L 276.582713 412.118995 
L 278.614125 411.143521 
L 280.645538 410.865724 
L 282.67695 408.839554 
L 284.708363 405.303901 
L 286.739775 401.501879 
L 288.771188 399.033346 
L 290.8026 396.929467 
L 292.834013 393.588783 
L 294.865425 391.28482 
L 296.896838 387.933633 
L 298.92825 385.619971 
L 300.959663 382.156436 
L 302.991076 377.829107 
L 305.022488 372.847177 
L 307.053901 369.284859 
L 309.085313 367.509563 
L 311.116726 365.023121 
L 313.148138 362.335862 
L 315.179551 358.955793 
L 317.210963 358.233657 
L 319.242376 357.018017 
L 321.273788 354.935056 
L 323.305201 353.209591 
L 325.336613 351.04618 
L 327.368026 348.426001 
L 329.399438 345.489018 
L 331.430851 342.084957 
L 333.462263 339.240598 
L 335.493676 334.793255 
L 337.525088 334.086179 
L 339.556501 333.029325 
L 341.587913 332.290336 
L 347.682151 329.050267 
L 349.713564 327.683199 
L 351.744976 329.772465 
L 353.776389 332.055039 
L 355.807801 334.113193 
L 357.839214 336.341587 
L 361.902039 341.382662 
L 363.933451 343.221722 
L 365.964864 344.501807 
L 367.996276 345.425361 
L 370.027689 346.557466 
L 372.059101 348.651587 
L 374.090514 348.984242 
L 376.121926 350.249404 
L 378.153339 351.18712 
L 380.184751 351.396271 
L 382.216164 352.927472 
L 384.247576 353.370615 
L 386.278989 354.050682 
L 388.310401 354.417537 
L 390.341814 355.60973 
L 394.404639 356.898416 
L 396.436052 357.532022 
L 398.467464 359.131255 
L 400.498877 359.628517 
L 404.561702 361.438514 
L 406.593114 361.860662 
L 412.687352 363.753885 
L 414.718764 364.606848 
L 416.750177 364.701195 
L 418.781589 365.435712 
L 420.813002 366.554026 
L 422.844414 366.841165 
L 424.875827 366.919739 
L 426.907239 367.573066 
L 433.001477 368.595795 
L 435.03289 369.119131 
L 435.03289 369.119131 
" clip-path="url(#pbbc6cd87b9)" style="fill: none; stroke: #1f77b4; stroke-width: 2; stroke-linecap: square"/>
   </g>
   <g id="patch_179">
    <path d="M 63 448.56 
L 63 60.48 
" style="fill: none; stroke: #000000; stroke-width: 0.8; stroke-linejoin: miter; stroke-linecap: square"/>
   </g>
   <g id="patch_180">
    <path d="M 63 448.56 
L 453.6 448.56 
" style="fill: none; stroke: #000000; stroke-width: 0.8; stroke-linejoin: miter; stroke-linecap: square"/>
   </g>
  </g>
 </g>
 <defs>
  <clipPath id="pbbc6cd87b9">
   <rect x="63" y="60.48" width="390.6" height="388.08"/>
  </clipPath>
 </defs>
</svg>
