<?xml version="1.0" encoding="utf-8" standalone="no"?>
<!DOCTYPE svg PUBLIC "-//W3C//DTD SVG 1.1//EN"
  "http://www.w3.org/Graphics/SVG/1.1/DTD/svg11.dtd">
<svg xmlns:xlink="http://www.w3.org/1999/xlink" width="504pt" height="504pt" viewBox="0 0 504 504" xmlns="http://www.w3.org/2000/svg" version="1.1">
 <metadata>
  <rdf:RDF xmlns:dc="http://purl.org/dc/elements/1.1/" xmlns:cc="http://creativecommons.org/ns#" xmlns:rdf="http://www.w3.org/1999/02/22-rdf-syntax-ns#">
   <cc:Work>
    <dc:type rdf:resource="http://purl.org/dc/dcmitype/StillImage"/>
    <dc:date>2026-04-17T16:36:07.769080</dc:date>
    <dc:format>image/svg+xml</dc:format>
    <dc:creator>
     <cc:Agent>
      <dc:title>Matplotlib v3.10.8, https://matplotlib.org/</dc:title>
     </cc:Agent>
    </dc:creator>
   </cc:Work>
  </rdf:RDF>
 </metadata>
 <defs>
  <style type="text/css">*{stroke-linejoin: round; stroke-linecap: butt}</style>
 </defs>
 <g id="figure_1">
  <g id="patch_1">
   <path d="M 0 504 
L 504 504 
L 504 0 
L 0 0 
L 0 504 
z
" style="fill: none"/>
  </g>
  <g id="axes_1">
   <g id="patch_2">
    <path d="M 63 448.56 
L 453.6 448.56 
L 453.6 60.48 
L 63 60.48 
L 63 448.56 
z
" style="fill: none"/>
   </g>
   <g id="FillBetweenPolyCollection_1">
    <defs>
     <path id="md4126a8da5" d="M 81.571786 -425.619334 
L 81.571786 -93.22481 
L 83.614886 -94.978577 
L 85.657987 -96.168616 
L 87.701088 -92.509442 
L 89.744189 -90.199224 
L 91.787289 -87.597713 
L 93.83039 -85.517526 
L 95.873491 -82.691856 
L 97.916592 -81.655035 
L 99.959692 -80.308741 
L 102.002793 -78.517088 
L 104.045894 -78.092601 
L 106.088995 -77.392484 
L 108.132095 -77.317397 
L 110.175196 -76.671599 
L 112.218297 -76.871915 
L 114.261398 -77.662367 
L 116.304498 -79.359574 
L 118.347599 -80.767659 
L 120.3907 -82.268489 
L 122.433801 -84.039854 
L 124.476901 -85.821009 
L 126.520002 -88.077607 
L 128.563103 -89.112495 
L 130.606204 -91.880767 
L 132.649304 -93.905087 
L 134.692405 -96.388036 
L 136.735506 -97.67385 
L 138.778607 -99.339618 
L 140.821707 -100.164525 
L 142.864808 -101.00626 
L 144.907909 -101.495817 
L 146.95101 -101.842721 
L 148.99411 -103.210352 
L 151.037211 -104.279533 
L 153.080312 -106.368764 
L 155.123412 -108.74426 
L 157.166513 -112.106549 
L 159.209614 -112.516174 
L 161.252715 -113.370085 
L 163.295815 -113.167682 
L 165.338916 -112.653692 
L 167.382017 -114.396042 
L 169.425118 -116.933864 
L 171.468218 -116.034717 
L 173.511319 -118.895906 
L 175.55442 -123.916486 
L 177.597521 -130.295708 
L 179.640621 -135.535182 
L 181.683722 -136.098002 
L 183.726823 -140.218058 
L 185.769924 -148.293403 
L 187.813024 -154.699699 
L 189.856125 -162.252916 
L 191.899226 -159.000277 
L 193.942327 -155.278085 
L 195.985427 -140.724699 
L 198.028528 -129.842335 
L 200.071629 -120.642664 
L 202.11473 -112.273254 
L 204.15783 -101.27592 
L 206.200931 -95.869295 
L 208.244032 -96.298203 
L 210.287133 -92.198342 
L 212.330233 -92.049008 
L 214.373334 -93.329181 
L 216.416435 -100.767095 
L 218.459536 -105.354794 
L 220.502636 -107.876766 
L 222.545737 -111.359942 
L 224.588838 -116.868649 
L 226.631938 -123.032416 
L 228.675039 -122.614 
L 230.71814 -117.059123 
L 232.761241 -115.67009 
L 234.804341 -108.309405 
L 236.847442 -111.050147 
L 238.890543 -102.797007 
L 240.933644 -92.310209 
L 242.976744 -86.337749 
L 245.019845 -83.308619 
L 247.062946 -84.079151 
L 249.106047 -87.818623 
L 251.149147 -91.263496 
L 253.192248 -88.106216 
L 255.235349 -85.112341 
L 257.27845 -81.427491 
L 259.32155 -79.021632 
L 261.364651 -76.311789 
L 263.407752 -73.759687 
L 265.450853 -72.698508 
L 267.493953 -71.680169 
L 269.537054 -71.79538 
L 271.580155 -72.90086 
L 273.623256 -73.616573 
L 275.666356 -74.196752 
L 277.709457 -74.954869 
L 279.752558 -75.330367 
L 281.795659 -74.69207 
L 283.838759 -75.421082 
L 285.88186 -76.729212 
L 287.924961 -78.026467 
L 289.968062 -78.577823 
L 292.011162 -78.898704 
L 294.054263 -79.02932 
L 296.097364 -79.300758 
L 298.140464 -79.870634 
L 300.183565 -80.153482 
L 302.226666 -80.617359 
L 304.269767 -81.524068 
L 306.312867 -82.736101 
L 308.355968 -82.568166 
L 310.399069 -82.529168 
L 312.44217 -82.6821 
L 314.48527 -83.521087 
L 316.528371 -82.494583 
L 318.571472 -82.191575 
L 320.614573 -82.235799 
L 322.657673 -82.303034 
L 324.700774 -82.255355 
L 326.743875 -82.121325 
L 328.786976 -82.457705 
L 330.830076 -82.515903 
L 332.873177 -82.145822 
L 334.916278 -83.194526 
L 336.959379 -82.856513 
L 339.002479 -83.724881 
L 341.04558 -83.09861 
L 343.088681 -82.873774 
L 345.131782 -83.211282 
L 347.174882 -83.70464 
L 349.217983 -83.082124 
L 351.261084 -82.959779 
L 353.304185 -82.342322 
L 355.347285 -81.424808 
L 357.390386 -80.005092 
L 359.433487 -79.047939 
L 361.476588 -78.264134 
L 363.519688 -78.302104 
L 365.562789 -77.549492 
L 367.60589 -76.356074 
L 369.64899 -75.99488 
L 371.692091 -75.113593 
L 373.735192 -74.251962 
L 375.778293 -74.832181 
L 377.821393 -73.633728 
L 379.864494 -73.863281 
L 381.907595 -73.172866 
L 383.950696 -73.303168 
L 385.993796 -72.548652 
L 388.036897 -72.266856 
L 390.079998 -71.926599 
L 392.123099 -71.307592 
L 394.166199 -71.570358 
L 396.2093 -70.98938 
L 398.252401 -70.887673 
L 400.295502 -70.791502 
L 402.338602 -70.615775 
L 404.381703 -70.118162 
L 406.424804 -69.911325 
L 408.467905 -70.293345 
L 410.511005 -70.23327 
L 412.554106 -69.578686 
L 414.597207 -68.721582 
L 416.640308 -69.039189 
L 418.683408 -68.918093 
L 420.726509 -68.765916 
L 422.76961 -68.540037 
L 424.812711 -68.394953 
L 426.855811 -68.033925 
L 428.898912 -68.057393 
L 430.942013 -67.60602 
L 432.985114 -67.629049 
L 435.028214 -67.781185 
L 435.028214 -338.85957 
L 435.028214 -338.85957 
L 432.985114 -325.861332 
L 430.942013 -328.805315 
L 428.898912 -327.443615 
L 426.855811 -326.887428 
L 424.812711 -336.645757 
L 422.76961 -340.554977 
L 420.726509 -341.194352 
L 418.683408 -350.393913 
L 416.640308 -349.818877 
L 414.597207 -356.859238 
L 412.554106 -350.717481 
L 410.511005 -350.507874 
L 408.467905 -366.723234 
L 406.424804 -352.226652 
L 404.381703 -354.562632 
L 402.338602 -354.489109 
L 400.295502 -344.286119 
L 398.252401 -348.369026 
L 396.2093 -353.21826 
L 394.166199 -356.303486 
L 392.123099 -352.644885 
L 390.079998 -364.086877 
L 388.036897 -360.617327 
L 385.993796 -354.25458 
L 383.950696 -357.129328 
L 381.907595 -367.100032 
L 379.864494 -368.827793 
L 377.821393 -366.567039 
L 375.778293 -376.709103 
L 373.735192 -374.505618 
L 371.692091 -365.240884 
L 369.64899 -381.09738 
L 367.60589 -374.237208 
L 365.562789 -370.565429 
L 363.519688 -371.584232 
L 361.476588 -387.141263 
L 359.433487 -390.750733 
L 357.390386 -385.17532 
L 355.347285 -391.153008 
L 353.304185 -396.910798 
L 351.261084 -399.504829 
L 349.217983 -394.604518 
L 347.174882 -399.969396 
L 345.131782 -385.888882 
L 343.088681 -378.161626 
L 341.04558 -382.742786 
L 339.002479 -373.088623 
L 336.959379 -370.036032 
L 334.916278 -348.061025 
L 332.873177 -331.674573 
L 330.830076 -322.439463 
L 328.786976 -322.412261 
L 326.743875 -314.918046 
L 324.700774 -309.577908 
L 322.657673 -291.182278 
L 320.614573 -289.970676 
L 318.571472 -275.852824 
L 316.528371 -269.779792 
L 314.48527 -260.630231 
L 312.44217 -247.96314 
L 310.399069 -244.373002 
L 308.355968 -237.354367 
L 306.312867 -224.832993 
L 304.269767 -208.824901 
L 302.226666 -199.714895 
L 300.183565 -188.819515 
L 298.140464 -182.614317 
L 296.097364 -174.187046 
L 294.054263 -165.352467 
L 292.011162 -157.944066 
L 289.968062 -152.530292 
L 287.924961 -146.897544 
L 285.88186 -136.935633 
L 283.838759 -128.547017 
L 281.795659 -122.70051 
L 279.752558 -121.58348 
L 277.709457 -118.796056 
L 275.666356 -114.287852 
L 273.623256 -110.424784 
L 271.580155 -106.349784 
L 269.537054 -102.107539 
L 267.493953 -99.816368 
L 265.450853 -101.230767 
L 263.407752 -103.376439 
L 261.364651 -106.6493 
L 259.32155 -110.891427 
L 257.27845 -115.71665 
L 255.235349 -122.86544 
L 253.192248 -125.270251 
L 251.149147 -130.951 
L 249.106047 -124.378781 
L 247.062946 -118.264339 
L 245.019845 -115.3899 
L 242.976744 -121.368145 
L 240.933644 -132.531933 
L 238.890543 -152.489756 
L 236.847442 -166.493773 
L 234.804341 -161.853922 
L 232.761241 -176.381465 
L 230.71814 -178.668551 
L 228.675039 -189.850554 
L 226.631938 -190.155974 
L 224.588838 -178.559912 
L 222.545737 -169.647723 
L 220.502636 -161.987762 
L 218.459536 -156.75156 
L 216.416435 -151.681626 
L 214.373334 -136.731349 
L 212.330233 -136.514503 
L 210.287133 -136.013721 
L 208.244032 -145.919525 
L 206.200931 -147.206273 
L 204.15783 -160.787804 
L 202.11473 -185.291793 
L 200.071629 -199.696597 
L 198.028528 -220.388763 
L 195.985427 -248.744486 
L 193.942327 -276.420761 
L 191.899226 -288.089124 
L 189.856125 -306.559202 
L 187.813024 -290.154736 
L 185.769924 -278.245765 
L 183.726823 -262.963001 
L 181.683722 -261.058759 
L 179.640621 -260.437821 
L 177.597521 -255.818516 
L 175.55442 -239.330919 
L 173.511319 -231.660363 
L 171.468218 -228.586467 
L 169.425118 -236.400671 
L 167.382017 -238.000982 
L 165.338916 -238.845297 
L 163.295815 -241.322172 
L 161.252715 -241.179972 
L 159.209614 -247.719763 
L 157.166513 -249.71094 
L 155.123412 -236.78565 
L 153.080312 -234.100517 
L 151.037211 -237.953724 
L 148.99411 -236.44202 
L 146.95101 -242.6709 
L 144.907909 -246.785635 
L 142.864808 -247.394191 
L 140.821707 -251.569009 
L 138.778607 -254.93506 
L 136.735506 -244.769401 
L 134.692405 -243.612441 
L 132.649304 -241.7374 
L 130.606204 -233.745299 
L 128.563103 -223.448884 
L 126.520002 -213.07695 
L 124.476901 -200.064084 
L 122.433801 -186.394197 
L 120.3907 -178.531424 
L 118.347599 -166.678535 
L 116.304498 -158.390872 
L 114.261398 -155.102553 
L 112.218297 -154.189462 
L 110.175196 -150.668973 
L 108.132095 -152.499817 
L 106.088995 -156.441116 
L 104.045894 -164.160591 
L 102.002793 -171.520931 
L 99.959692 -185.165291 
L 97.916592 -203.09142 
L 95.873491 -219.797633 
L 93.83039 -244.012472 
L 91.787289 -271.063574 
L 89.744189 -307.730247 
L 87.701088 -341.324984 
L 85.657987 -393.984178 
L 83.614886 -421.460182 
L 81.571786 -425.619334 
z
" style="stroke: #1f77b4; stroke-opacity: 0.3"/>
    </defs>
    <g clip-path="url(#p50f76e5a76)">
     <use xlink:href="#md4126a8da5" x="0" y="504" style="fill: #1f77b4; fill-opacity: 0.3; stroke: #1f77b4; stroke-opacity: 0.3"/>
    </g>
   </g>
   <g id="matplotlib.axis_1">
    <g id="xtick_1">
     <g id="line2d_1">
      <defs>
       <path id="m79d071184a" d="M 0 0 
L 0 3.5 
" style="stroke: #000000; stroke-width: 0.8"/>
      </defs>
      <g>
       <use xlink:href="#m79d071184a" x="91.787289" y="448.56" style="stroke: #000000; stroke-width: 0.8"/>
      </g>
     </g>
     <g id="text_1">
      <text style="font-size: 16px; font-family: 'Arial', sans-serif; text-anchor: middle" x="91.787289" y="467.0125" transform="rotate(-0 91.787289 467.0125)">1 Jul</text>
     </g>
    </g>
    <g id="xtick_2">
     <g id="line2d_2">
      <g>
       <use xlink:href="#m79d071184a" x="155.123412" y="448.56" style="stroke: #000000; stroke-width: 0.8"/>
      </g>
     </g>
     <g id="text_2">
      <text style="font-size: 16px; font-family: 'Arial', sans-serif; text-anchor: middle" x="155.123412" y="467.06" transform="rotate(-0 155.123412 467.06)">1 Aug</text>
     </g>
    </g>
    <g id="xtick_3">
     <g id="line2d_3">
      <g>
       <use xlink:href="#m79d071184a" x="218.459536" y="448.56" style="stroke: #000000; stroke-width: 0.8"/>
      </g>
     </g>
     <g id="text_3">
      <text style="font-size: 16px; font-family: 'Arial', sans-serif; text-anchor: middle" x="218.459536" y="467.2075" transform="rotate(-0 218.459536 467.2075)">1 Sep</text>
     </g>
    </g>
    <g id="xtick_4">
     <g id="line2d_4">
      <g>
       <use xlink:href="#m79d071184a" x="279.752558" y="448.56" style="stroke: #000000; stroke-width: 0.8"/>
      </g>
     </g>
     <g id="text_4">
      <text style="font-size: 16px; font-family: 'Arial', sans-serif; text-anchor: middle" x="279.752558" y="467.0125" transform="rotate(-0 279.752558 467.0125)">1 Oct</text>
     </g>
    </g>
    <g id="xtick_5">
     <g id="line2d_5">
      <g>
       <use xlink:href="#m79d071184a" x="343.088681" y="448.56" style="stroke: #000000; stroke-width: 0.8"/>
      </g>
     </g>
     <g id="text_5">
      <text style="font-size: 16px; font-family: 'Arial', sans-serif; text-anchor: middle" x="343.088681" y="467.0125" transform="rotate(-0 343.088681 467.0125)">1 Nov</text>
     </g>
    </g>
    <g id="xtick_6">
     <g id="line2d_6">
      <g>
       <use xlink:href="#m79d071184a" x="404.381703" y="448.56" style="stroke: #000000; stroke-width: 0.8"/>
      </g>
     </g>
     <g id="text_6">
      <text style="font-size: 16px; font-family: 'Arial', sans-serif; text-anchor: middle" x="404.381703" y="467.0125" transform="rotate(-0 404.381703 467.0125)">1 Dec</text>
     </g>
    </g>
   </g>
   <g id="matplotlib.axis_2">
    <g id="ytick_1">
     <g id="line2d_7">
      <defs>
       <path id="m6b1fdcacff" d="M 0 0 
L -3.5 0 
" style="stroke: #000000; stroke-width: 0.8"/>
      </defs>
      <g>
       <use xlink:href="#m6b1fdcacff" x="63" y="448.56" style="stroke: #000000; stroke-width: 0.8"/>
      </g>
     </g>
     <g id="text_7">
      <text style="font-size: 16px; font-family: 'Arial', sans-serif; text-anchor: end" x="56" y="454.28625" transform="rotate(-0 56 454.28625)">0</text>
     </g>
    </g>
    <g id="ytick_2">
     <g id="line2d_8">
      <g>
       <use xlink:href="#m6b1fdcacff" x="63" y="402.681579" style="stroke: #000000; stroke-width: 0.8"/>
      </g>
     </g>
     <g id="text_8">
      <text style="font-size: 16px; font-family: 'Arial', sans-serif; text-anchor: end" x="56" y="408.407829" transform="rotate(-0 56 408.407829)">1</text>
     </g>
    </g>
    <g id="ytick_3">
     <g id="line2d_9">
      <g>
       <use xlink:href="#m6b1fdcacff" x="63" y="356.803159" style="stroke: #000000; stroke-width: 0.8"/>
      </g>
     </g>
     <g id="text_9">
      <text style="font-size: 16px; font-family: 'Arial', sans-serif; text-anchor: end" x="56" y="362.529409" transform="rotate(-0 56 362.529409)">2</text>
     </g>
    </g>
    <g id="ytick_4">
     <g id="line2d_10">
      <g>
       <use xlink:href="#m6b1fdcacff" x="63" y="310.924738" style="stroke: #000000; stroke-width: 0.8"/>
      </g>
     </g>
     <g id="text_10">
      <text style="font-size: 16px; font-family: 'Arial', sans-serif; text-anchor: end" x="56" y="316.650988" transform="rotate(-0 56 316.650988)">3</text>
     </g>
    </g>
    <g id="ytick_5">
     <g id="line2d_11">
      <g>
       <use xlink:href="#m6b1fdcacff" x="63" y="265.046317" style="stroke: #000000; stroke-width: 0.8"/>
      </g>
     </g>
     <g id="text_11">
      <text style="font-size: 16px; font-family: 'Arial', sans-serif; text-anchor: end" x="56" y="270.772567" transform="rotate(-0 56 270.772567)">4</text>
     </g>
    </g>
    <g id="ytick_6">
     <g id="line2d_12">
      <g>
       <use xlink:href="#m6b1fdcacff" x="63" y="219.167897" style="stroke: #000000; stroke-width: 0.8"/>
      </g>
     </g>
     <g id="text_12">
      <text style="font-size: 16px; font-family: 'Arial', sans-serif; text-anchor: end" x="56" y="224.894147" transform="rotate(-0 56 224.894147)">5</text>
     </g>
    </g>
    <g id="ytick_7">
     <g id="line2d_13">
      <g>
       <use xlink:href="#m6b1fdcacff" x="63" y="173.289476" style="stroke: #000000; stroke-width: 0.8"/>
      </g>
     </g>
     <g id="text_13">
      <text style="font-size: 16px; font-family: 'Arial', sans-serif; text-anchor: end" x="56" y="179.015726" transform="rotate(-0 56 179.015726)">6</text>
     </g>
    </g>
    <g id="ytick_8">
     <g id="line2d_14">
      <g>
       <use xlink:href="#m6b1fdcacff" x="63" y="127.411055" style="stroke: #000000; stroke-width: 0.8"/>
      </g>
     </g>
     <g id="text_14">
      <text style="font-size: 16px; font-family: 'Arial', sans-serif; text-anchor: end" x="56" y="133.137305" transform="rotate(-0 56 133.137305)">7</text>
     </g>
    </g>
    <g id="ytick_9">
     <g id="line2d_15">
      <g>
       <use xlink:href="#m6b1fdcacff" x="63" y="81.532635" style="stroke: #000000; stroke-width: 0.8"/>
      </g>
     </g>
     <g id="text_15">
      <text style="font-size: 16px; font-family: 'Arial', sans-serif; text-anchor: end" x="56" y="87.258885" transform="rotate(-0 56 87.258885)">8</text>
     </g>
    </g>
    <g id="text_16">
     <text style="font-size: 16px; font-family: 'Arial', sans-serif; text-anchor: middle" x="39.735" y="254.52" transform="rotate(-90 39.735 254.52)">Reproduction number scaling factor</text>
    </g>
   </g>
   <g id="line2d_16">
    <path d="M 81.571786 305.646083 
L 83.614886 302.468442 
L 85.657987 310.266507 
L 87.701088 325.886782 
L 89.744189 340.323999 
L 91.787289 352.578438 
L 93.83039 362.808197 
L 95.873491 371.722665 
L 97.916592 378.498157 
L 99.959692 383.915627 
L 102.002793 389.749869 
L 104.045894 393.843598 
L 106.088995 396.879916 
L 108.132095 398.338163 
L 110.175196 398.780387 
L 112.218297 398.026905 
L 114.261398 396.456607 
L 116.304498 393.913002 
L 118.347599 389.911392 
L 120.3907 384.776662 
L 122.433801 381.374661 
L 124.476901 376.040208 
L 126.520002 369.809619 
L 128.563103 365.457098 
L 130.606204 359.422498 
L 132.649304 355.929313 
L 134.692405 351.290146 
L 136.735506 349.491948 
L 138.778607 346.316597 
L 140.821707 345.248874 
L 142.864808 346.081791 
L 144.907909 345.115525 
L 146.95101 345.584809 
L 148.99411 347.493647 
L 151.037211 346.318286 
L 153.080312 346.293353 
L 155.123412 342.92913 
L 157.166513 335.662154 
L 159.209614 335.488199 
L 161.252715 338.005597 
L 163.295815 339.220786 
L 165.338916 340.105779 
L 167.382017 339.086859 
L 169.425118 337.35349 
L 171.468218 340.429173 
L 173.511319 337.565733 
L 175.55442 332.118986 
L 177.597521 321.365826 
L 179.640621 316.9681 
L 181.683722 313.776585 
L 183.726823 310.301965 
L 185.769924 299.840371 
L 187.813024 290.566718 
L 189.856125 279.517237 
L 191.899226 286.718419 
L 193.942327 294.719135 
L 195.985427 316.003785 
L 198.028528 334.550863 
L 200.071629 347.926364 
L 202.11473 360.306423 
L 204.15783 376.970214 
L 206.200931 385.544169 
L 208.244032 385.90734 
L 210.287133 392.292408 
L 212.330233 392.679223 
L 214.373334 391.116763 
L 216.416435 381.567376 
L 218.459536 376.026599 
L 222.545737 367.146502 
L 224.588838 359.393859 
L 226.631938 350.945819 
L 228.675039 351.113754 
L 230.71814 359.568468 
L 232.761241 361.951737 
L 234.804341 373.089265 
L 236.847442 368.506256 
L 238.890543 379.273455 
L 240.933644 393.764464 
L 242.976744 402.346966 
L 245.019845 406.595404 
L 247.062946 405.289552 
L 249.106047 400.746608 
L 251.149147 395.600455 
L 253.192248 399.945899 
L 255.235349 402.610774 
L 257.27845 407.812375 
L 259.32155 411.186799 
L 261.364651 415.023158 
L 263.407752 417.755584 
L 265.450853 419.47508 
L 267.493953 420.658855 
L 269.537054 419.584694 
L 271.580155 417.611002 
L 273.623256 415.216425 
L 275.666356 413.632965 
L 277.709457 411.369431 
L 279.752558 410.380062 
L 281.795659 410.295638 
L 283.838759 408.290629 
L 285.88186 404.505215 
L 287.924961 400.461369 
L 292.011162 396.311723 
L 294.054263 393.23673 
L 296.097364 390.568055 
L 298.140464 387.191125 
L 300.183565 384.869656 
L 302.226666 381.584852 
L 304.269767 377.259125 
L 306.312867 371.765084 
L 308.355968 368.079417 
L 310.399069 366.725864 
L 312.44217 364.92248 
L 314.48527 361.973155 
L 316.528371 358.45285 
L 318.571472 357.806207 
L 320.614573 355.978954 
L 322.657673 354.395969 
L 324.700774 352.403092 
L 326.743875 350.839004 
L 328.786976 348.341598 
L 330.830076 345.419609 
L 332.873177 342.721411 
L 334.916278 338.955182 
L 336.959379 334.41652 
L 343.088681 331.794293 
L 345.131782 330.385519 
L 349.217983 328.272652 
L 351.261084 326.999094 
L 355.347285 332.618001 
L 361.476588 339.556265 
L 363.519688 341.640713 
L 369.64899 346.411808 
L 371.692091 347.076652 
L 373.735192 348.543783 
L 375.778293 349.089888 
L 381.907595 351.37972 
L 383.950696 352.432074 
L 385.993796 353.962408 
L 388.036897 354.573062 
L 390.079998 354.977932 
L 394.166199 356.916701 
L 398.252401 357.592479 
L 400.295502 358.601282 
L 402.338602 359.047165 
L 406.424804 360.216666 
L 408.467905 360.154422 
L 410.511005 360.958836 
L 412.554106 361.546453 
L 414.597207 361.804558 
L 416.640308 362.667008 
L 418.683408 363.311003 
L 420.726509 363.835129 
L 422.76961 364.715647 
L 424.812711 365.364993 
L 426.855811 366.560163 
L 430.942013 367.312234 
L 432.985114 367.569839 
L 435.028214 367.94204 
L 435.028214 367.94204 
" clip-path="url(#p50f76e5a76)" style="fill: none; stroke: #1f77b4; stroke-width: 2; stroke-linecap: square"/>
   </g>
   <g id="patch_3">
    <path d="M 63 448.56 
L 63 60.48 
" style="fill: none; stroke: #000000; stroke-width: 0.8; stroke-linejoin: miter; stroke-linecap: square"/>
   </g>
   <g id="patch_4">
    <path d="M 63 448.56 
L 453.6 448.56 
" style="fill: none; stroke: #000000; stroke-width: 0.8; stroke-linejoin: miter; stroke-linecap: square"/>
   </g>
  </g>
  <g id="axes_2">
   <g id="patch_5">
    <path d="M 80.754545 448.56 
L 82.389026 448.56 
L 82.389026 396.816 
L 80.754545 396.816 
z
" clip-path="url(#p50f76e5a76)" style="fill: #7f7f7f; opacity: 0.5"/>
   </g>
   <g id="patch_6">
    <path d="M 82.797646 448.56 
L 84.432127 448.56 
L 84.432127 396.816 
L 82.797646 396.816 
z
" clip-path="url(#p50f76e5a76)" style="fill: #7f7f7f; opacity: 0.5"/>
   </g>
   <g id="patch_7">
    <path d="M 84.840747 448.56 
L 86.475228 448.56 
L 86.475228 396.816 
L 84.840747 396.816 
z
" clip-path="url(#p50f76e5a76)" style="fill: #7f7f7f; opacity: 0.5"/>
   </g>
   <g id="patch_8">
    <path d="M 86.883848 448.56 
L 88.518328 448.56 
L 88.518328 448.56 
L 86.883848 448.56 
z
" clip-path="url(#p50f76e5a76)" style="fill: #7f7f7f; opacity: 0.5"/>
   </g>
   <g id="patch_9">
    <path d="M 88.926948 448.56 
L 90.561429 448.56 
L 90.561429 448.56 
L 88.926948 448.56 
z
" clip-path="url(#p50f76e5a76)" style="fill: #7f7f7f; opacity: 0.5"/>
   </g>
   <g id="patch_10">
    <path d="M 90.970049 448.56 
L 92.60453 448.56 
L 92.60453 448.56 
L 90.970049 448.56 
z
" clip-path="url(#p50f76e5a76)" style="fill: #7f7f7f; opacity: 0.5"/>
   </g>
   <g id="patch_11">
    <path d="M 93.01315 448.56 
L 94.647631 448.56 
L 94.647631 448.56 
L 93.01315 448.56 
z
" clip-path="url(#p50f76e5a76)" style="fill: #7f7f7f; opacity: 0.5"/>
   </g>
   <g id="patch_12">
    <path d="M 95.056251 448.56 
L 96.690731 448.56 
L 96.690731 448.56 
L 95.056251 448.56 
z
" clip-path="url(#p50f76e5a76)" style="fill: #7f7f7f; opacity: 0.5"/>
   </g>
   <g id="patch_13">
    <path d="M 97.099351 448.56 
L 98.733832 448.56 
L 98.733832 448.56 
L 97.099351 448.56 
z
" clip-path="url(#p50f76e5a76)" style="fill: #7f7f7f; opacity: 0.5"/>
   </g>
   <g id="patch_14">
    <path d="M 99.142452 448.56 
L 100.776933 448.56 
L 100.776933 422.688 
L 99.142452 422.688 
z
" clip-path="url(#p50f76e5a76)" style="fill: #7f7f7f; opacity: 0.5"/>
   </g>
   <g id="patch_15">
    <path d="M 101.185553 448.56 
L 102.820033 448.56 
L 102.820033 448.56 
L 101.185553 448.56 
z
" clip-path="url(#p50f76e5a76)" style="fill: #7f7f7f; opacity: 0.5"/>
   </g>
   <g id="patch_16">
    <path d="M 103.228654 448.56 
L 104.863134 448.56 
L 104.863134 448.56 
L 103.228654 448.56 
z
" clip-path="url(#p50f76e5a76)" style="fill: #7f7f7f; opacity: 0.5"/>
   </g>
   <g id="patch_17">
    <path d="M 105.271754 448.56 
L 106.906235 448.56 
L 106.906235 448.56 
L 105.271754 448.56 
z
" clip-path="url(#p50f76e5a76)" style="fill: #7f7f7f; opacity: 0.5"/>
   </g>
   <g id="patch_18">
    <path d="M 107.314855 448.56 
L 108.949336 448.56 
L 108.949336 448.56 
L 107.314855 448.56 
z
" clip-path="url(#p50f76e5a76)" style="fill: #7f7f7f; opacity: 0.5"/>
   </g>
   <g id="patch_19">
    <path d="M 109.357956 448.56 
L 110.992436 448.56 
L 110.992436 448.56 
L 109.357956 448.56 
z
" clip-path="url(#p50f76e5a76)" style="fill: #7f7f7f; opacity: 0.5"/>
   </g>
   <g id="patch_20">
    <path d="M 111.401057 448.56 
L 113.035537 448.56 
L 113.035537 448.56 
L 111.401057 448.56 
z
" clip-path="url(#p50f76e5a76)" style="fill: #7f7f7f; opacity: 0.5"/>
   </g>
   <g id="patch_21">
    <path d="M 113.444157 448.56 
L 115.078638 448.56 
L 115.078638 448.56 
L 113.444157 448.56 
z
" clip-path="url(#p50f76e5a76)" style="fill: #7f7f7f; opacity: 0.5"/>
   </g>
   <g id="patch_22">
    <path d="M 115.487258 448.56 
L 117.121739 448.56 
L 117.121739 448.56 
L 115.487258 448.56 
z
" clip-path="url(#p50f76e5a76)" style="fill: #7f7f7f; opacity: 0.5"/>
   </g>
   <g id="patch_23">
    <path d="M 117.530359 448.56 
L 119.164839 448.56 
L 119.164839 448.56 
L 117.530359 448.56 
z
" clip-path="url(#p50f76e5a76)" style="fill: #7f7f7f; opacity: 0.5"/>
   </g>
   <g id="patch_24">
    <path d="M 119.57346 448.56 
L 121.20794 448.56 
L 121.20794 422.688 
L 119.57346 422.688 
z
" clip-path="url(#p50f76e5a76)" style="fill: #7f7f7f; opacity: 0.5"/>
   </g>
   <g id="patch_25">
    <path d="M 121.61656 448.56 
L 123.251041 448.56 
L 123.251041 448.56 
L 121.61656 448.56 
z
" clip-path="url(#p50f76e5a76)" style="fill: #7f7f7f; opacity: 0.5"/>
   </g>
   <g id="patch_26">
    <path d="M 123.659661 448.56 
L 125.294142 448.56 
L 125.294142 448.56 
L 123.659661 448.56 
z
" clip-path="url(#p50f76e5a76)" style="fill: #7f7f7f; opacity: 0.5"/>
   </g>
   <g id="patch_27">
    <path d="M 125.702762 448.56 
L 127.337242 448.56 
L 127.337242 422.688 
L 125.702762 422.688 
z
" clip-path="url(#p50f76e5a76)" style="fill: #7f7f7f; opacity: 0.5"/>
   </g>
   <g id="patch_28">
    <path d="M 127.745863 448.56 
L 129.380343 448.56 
L 129.380343 448.56 
L 127.745863 448.56 
z
" clip-path="url(#p50f76e5a76)" style="fill: #7f7f7f; opacity: 0.5"/>
   </g>
   <g id="patch_29">
    <path d="M 129.788963 448.56 
L 131.423444 448.56 
L 131.423444 422.688 
L 129.788963 422.688 
z
" clip-path="url(#p50f76e5a76)" style="fill: #7f7f7f; opacity: 0.5"/>
   </g>
   <g id="patch_30">
    <path d="M 131.832064 448.56 
L 133.466545 448.56 
L 133.466545 448.56 
L 131.832064 448.56 
z
" clip-path="url(#p50f76e5a76)" style="fill: #7f7f7f; opacity: 0.5"/>
   </g>
   <g id="patch_31">
    <path d="M 133.875165 448.56 
L 135.509645 448.56 
L 135.509645 422.688 
L 133.875165 422.688 
z
" clip-path="url(#p50f76e5a76)" style="fill: #7f7f7f; opacity: 0.5"/>
   </g>
   <g id="patch_32">
    <path d="M 135.918266 448.56 
L 137.552746 448.56 
L 137.552746 448.56 
L 135.918266 448.56 
z
" clip-path="url(#p50f76e5a76)" style="fill: #7f7f7f; opacity: 0.5"/>
   </g>
   <g id="patch_33">
    <path d="M 137.961366 448.56 
L 139.595847 448.56 
L 139.595847 422.688 
L 137.961366 422.688 
z
" clip-path="url(#p50f76e5a76)" style="fill: #7f7f7f; opacity: 0.5"/>
   </g>
   <g id="patch_34">
    <path d="M 140.004467 448.56 
L 141.638948 448.56 
L 141.638948 422.688 
L 140.004467 422.688 
z
" clip-path="url(#p50f76e5a76)" style="fill: #7f7f7f; opacity: 0.5"/>
   </g>
   <g id="patch_35">
    <path d="M 142.047568 448.56 
L 143.682048 448.56 
L 143.682048 448.56 
L 142.047568 448.56 
z
" clip-path="url(#p50f76e5a76)" style="fill: #7f7f7f; opacity: 0.5"/>
   </g>
   <g id="patch_36">
    <path d="M 144.090668 448.56 
L 145.725149 448.56 
L 145.725149 422.688 
L 144.090668 422.688 
z
" clip-path="url(#p50f76e5a76)" style="fill: #7f7f7f; opacity: 0.5"/>
   </g>
   <g id="patch_37">
    <path d="M 146.133769 448.56 
L 147.76825 448.56 
L 147.76825 422.688 
L 146.133769 422.688 
z
" clip-path="url(#p50f76e5a76)" style="fill: #7f7f7f; opacity: 0.5"/>
   </g>
   <g id="patch_38">
    <path d="M 148.17687 448.56 
L 149.811351 448.56 
L 149.811351 448.56 
L 148.17687 448.56 
z
" clip-path="url(#p50f76e5a76)" style="fill: #7f7f7f; opacity: 0.5"/>
   </g>
   <g id="patch_39">
    <path d="M 150.219971 448.56 
L 151.854451 448.56 
L 151.854451 422.688 
L 150.219971 422.688 
z
" clip-path="url(#p50f76e5a76)" style="fill: #7f7f7f; opacity: 0.5"/>
   </g>
   <g id="patch_40">
    <path d="M 152.263071 448.56 
L 153.897552 448.56 
L 153.897552 448.56 
L 152.263071 448.56 
z
" clip-path="url(#p50f76e5a76)" style="fill: #7f7f7f; opacity: 0.5"/>
   </g>
   <g id="patch_41">
    <path d="M 154.306172 448.56 
L 155.940653 448.56 
L 155.940653 448.56 
L 154.306172 448.56 
z
" clip-path="url(#p50f76e5a76)" style="fill: #7f7f7f; opacity: 0.5"/>
   </g>
   <g id="patch_42">
    <path d="M 156.349273 448.56 
L 157.983754 448.56 
L 157.983754 370.944 
L 156.349273 370.944 
z
" clip-path="url(#p50f76e5a76)" style="fill: #7f7f7f; opacity: 0.5"/>
   </g>
   <g id="patch_43">
    <path d="M 158.392374 448.56 
L 160.026854 448.56 
L 160.026854 396.816 
L 158.392374 396.816 
z
" clip-path="url(#p50f76e5a76)" style="fill: #7f7f7f; opacity: 0.5"/>
   </g>
   <g id="patch_44">
    <path d="M 160.435474 448.56 
L 162.069955 448.56 
L 162.069955 422.688 
L 160.435474 422.688 
z
" clip-path="url(#p50f76e5a76)" style="fill: #7f7f7f; opacity: 0.5"/>
   </g>
   <g id="patch_45">
    <path d="M 162.478575 448.56 
L 164.113056 448.56 
L 164.113056 422.688 
L 162.478575 422.688 
z
" clip-path="url(#p50f76e5a76)" style="fill: #7f7f7f; opacity: 0.5"/>
   </g>
   <g id="patch_46">
    <path d="M 164.521676 448.56 
L 166.156157 448.56 
L 166.156157 422.688 
L 164.521676 422.688 
z
" clip-path="url(#p50f76e5a76)" style="fill: #7f7f7f; opacity: 0.5"/>
   </g>
   <g id="patch_47">
    <path d="M 166.564777 448.56 
L 168.199257 448.56 
L 168.199257 422.688 
L 166.564777 422.688 
z
" clip-path="url(#p50f76e5a76)" style="fill: #7f7f7f; opacity: 0.5"/>
   </g>
   <g id="patch_48">
    <path d="M 168.607877 448.56 
L 170.242358 448.56 
L 170.242358 370.944 
L 168.607877 370.944 
z
" clip-path="url(#p50f76e5a76)" style="fill: #7f7f7f; opacity: 0.5"/>
   </g>
   <g id="patch_49">
    <path d="M 170.650978 448.56 
L 172.285459 448.56 
L 172.285459 448.56 
L 170.650978 448.56 
z
" clip-path="url(#p50f76e5a76)" style="fill: #7f7f7f; opacity: 0.5"/>
   </g>
   <g id="patch_50">
    <path d="M 172.694079 448.56 
L 174.328559 448.56 
L 174.328559 422.688 
L 172.694079 422.688 
z
" clip-path="url(#p50f76e5a76)" style="fill: #7f7f7f; opacity: 0.5"/>
   </g>
   <g id="patch_51">
    <path d="M 174.73718 448.56 
L 176.37166 448.56 
L 176.37166 422.688 
L 174.73718 422.688 
z
" clip-path="url(#p50f76e5a76)" style="fill: #7f7f7f; opacity: 0.5"/>
   </g>
   <g id="patch_52">
    <path d="M 176.78028 448.56 
L 178.414761 448.56 
L 178.414761 345.072 
L 176.78028 345.072 
z
" clip-path="url(#p50f76e5a76)" style="fill: #7f7f7f; opacity: 0.5"/>
   </g>
   <g id="patch_53">
    <path d="M 178.823381 448.56 
L 180.457862 448.56 
L 180.457862 370.944 
L 178.823381 370.944 
z
" clip-path="url(#p50f76e5a76)" style="fill: #7f7f7f; opacity: 0.5"/>
   </g>
   <g id="patch_54">
    <path d="M 180.866482 448.56 
L 182.500962 448.56 
L 182.500962 370.944 
L 180.866482 370.944 
z
" clip-path="url(#p50f76e5a76)" style="fill: #7f7f7f; opacity: 0.5"/>
   </g>
   <g id="patch_55">
    <path d="M 182.909583 448.56 
L 184.544063 448.56 
L 184.544063 396.816 
L 182.909583 396.816 
z
" clip-path="url(#p50f76e5a76)" style="fill: #7f7f7f; opacity: 0.5"/>
   </g>
   <g id="patch_56">
    <path d="M 184.952683 448.56 
L 186.587164 448.56 
L 186.587164 345.072 
L 184.952683 345.072 
z
" clip-path="url(#p50f76e5a76)" style="fill: #7f7f7f; opacity: 0.5"/>
   </g>
   <g id="patch_57">
    <path d="M 186.995784 448.56 
L 188.630265 448.56 
L 188.630265 345.072 
L 186.995784 345.072 
z
" clip-path="url(#p50f76e5a76)" style="fill: #7f7f7f; opacity: 0.5"/>
   </g>
   <g id="patch_58">
    <path d="M 189.038885 448.56 
L 190.673365 448.56 
L 190.673365 241.584 
L 189.038885 241.584 
z
" clip-path="url(#p50f76e5a76)" style="fill: #7f7f7f; opacity: 0.5"/>
   </g>
   <g id="patch_59">
    <path d="M 191.081986 448.56 
L 192.716466 448.56 
L 192.716466 319.2 
L 191.081986 319.2 
z
" clip-path="url(#p50f76e5a76)" style="fill: #7f7f7f; opacity: 0.5"/>
   </g>
   <g id="patch_60">
    <path d="M 193.125086 448.56 
L 194.759567 448.56 
L 194.759567 241.584 
L 193.125086 241.584 
z
" clip-path="url(#p50f76e5a76)" style="fill: #7f7f7f; opacity: 0.5"/>
   </g>
   <g id="patch_61">
    <path d="M 195.168187 448.56 
L 196.802668 448.56 
L 196.802668 319.2 
L 195.168187 319.2 
z
" clip-path="url(#p50f76e5a76)" style="fill: #7f7f7f; opacity: 0.5"/>
   </g>
   <g id="patch_62">
    <path d="M 197.211288 448.56 
L 198.845768 448.56 
L 198.845768 345.072 
L 197.211288 345.072 
z
" clip-path="url(#p50f76e5a76)" style="fill: #7f7f7f; opacity: 0.5"/>
   </g>
   <g id="patch_63">
    <path d="M 199.254389 448.56 
L 200.888869 448.56 
L 200.888869 319.2 
L 199.254389 319.2 
z
" clip-path="url(#p50f76e5a76)" style="fill: #7f7f7f; opacity: 0.5"/>
   </g>
   <g id="patch_64">
    <path d="M 201.297489 448.56 
L 202.93197 448.56 
L 202.93197 267.456 
L 201.297489 267.456 
z
" clip-path="url(#p50f76e5a76)" style="fill: #7f7f7f; opacity: 0.5"/>
   </g>
   <g id="patch_65">
    <path d="M 203.34059 448.56 
L 204.975071 448.56 
L 204.975071 396.816 
L 203.34059 396.816 
z
" clip-path="url(#p50f76e5a76)" style="fill: #7f7f7f; opacity: 0.5"/>
   </g>
   <g id="patch_66">
    <path d="M 205.383691 448.56 
L 207.018171 448.56 
L 207.018171 422.688 
L 205.383691 422.688 
z
" clip-path="url(#p50f76e5a76)" style="fill: #7f7f7f; opacity: 0.5"/>
   </g>
   <g id="patch_67">
    <path d="M 207.426792 448.56 
L 209.061272 448.56 
L 209.061272 241.584 
L 207.426792 241.584 
z
" clip-path="url(#p50f76e5a76)" style="fill: #7f7f7f; opacity: 0.5"/>
   </g>
   <g id="patch_68">
    <path d="M 209.469892 448.56 
L 211.104373 448.56 
L 211.104373 396.816 
L 209.469892 396.816 
z
" clip-path="url(#p50f76e5a76)" style="fill: #7f7f7f; opacity: 0.5"/>
   </g>
   <g id="patch_69">
    <path d="M 211.512993 448.56 
L 213.147474 448.56 
L 213.147474 345.072 
L 211.512993 345.072 
z
" clip-path="url(#p50f76e5a76)" style="fill: #7f7f7f; opacity: 0.5"/>
   </g>
   <g id="patch_70">
    <path d="M 213.556094 448.56 
L 215.190574 448.56 
L 215.190574 396.816 
L 213.556094 396.816 
z
" clip-path="url(#p50f76e5a76)" style="fill: #7f7f7f; opacity: 0.5"/>
   </g>
   <g id="patch_71">
    <path d="M 215.599194 448.56 
L 217.233675 448.56 
L 217.233675 215.712 
L 215.599194 215.712 
z
" clip-path="url(#p50f76e5a76)" style="fill: #7f7f7f; opacity: 0.5"/>
   </g>
   <g id="patch_72">
    <path d="M 217.642295 448.56 
L 219.276776 448.56 
L 219.276776 241.584 
L 217.642295 241.584 
z
" clip-path="url(#p50f76e5a76)" style="fill: #7f7f7f; opacity: 0.5"/>
   </g>
   <g id="patch_73">
    <path d="M 219.685396 448.56 
L 221.319877 448.56 
L 221.319877 241.584 
L 219.685396 241.584 
z
" clip-path="url(#p50f76e5a76)" style="fill: #7f7f7f; opacity: 0.5"/>
   </g>
   <g id="patch_74">
    <path d="M 221.728497 448.56 
L 223.362977 448.56 
L 223.362977 267.456 
L 221.728497 267.456 
z
" clip-path="url(#p50f76e5a76)" style="fill: #7f7f7f; opacity: 0.5"/>
   </g>
   <g id="patch_75">
    <path d="M 223.771597 448.56 
L 225.406078 448.56 
L 225.406078 215.712 
L 223.771597 215.712 
z
" clip-path="url(#p50f76e5a76)" style="fill: #7f7f7f; opacity: 0.5"/>
   </g>
   <g id="patch_76">
    <path d="M 225.814698 448.56 
L 227.449179 448.56 
L 227.449179 138.096 
L 225.814698 138.096 
z
" clip-path="url(#p50f76e5a76)" style="fill: #7f7f7f; opacity: 0.5"/>
   </g>
   <g id="patch_77">
    <path d="M 227.857799 448.56 
L 229.49228 448.56 
L 229.49228 138.096 
L 227.857799 138.096 
z
" clip-path="url(#p50f76e5a76)" style="fill: #7f7f7f; opacity: 0.5"/>
   </g>
   <g id="patch_78">
    <path d="M 229.9009 448.56 
L 231.53538 448.56 
L 231.53538 267.456 
L 229.9009 267.456 
z
" clip-path="url(#p50f76e5a76)" style="fill: #7f7f7f; opacity: 0.5"/>
   </g>
   <g id="patch_79">
    <path d="M 231.944 448.56 
L 233.578481 448.56 
L 233.578481 138.096 
L 231.944 138.096 
z
" clip-path="url(#p50f76e5a76)" style="fill: #7f7f7f; opacity: 0.5"/>
   </g>
   <g id="patch_80">
    <path d="M 233.987101 448.56 
L 235.621582 448.56 
L 235.621582 396.816 
L 233.987101 396.816 
z
" clip-path="url(#p50f76e5a76)" style="fill: #7f7f7f; opacity: 0.5"/>
   </g>
   <g id="patch_81">
    <path d="M 236.030202 448.56 
L 237.664682 448.56 
L 237.664682 60.48 
L 236.030202 60.48 
z
" clip-path="url(#p50f76e5a76)" style="fill: #7f7f7f; opacity: 0.5"/>
   </g>
   <g id="patch_82">
    <path d="M 238.073303 448.56 
L 239.707783 448.56 
L 239.707783 163.968 
L 238.073303 163.968 
z
" clip-path="url(#p50f76e5a76)" style="fill: #7f7f7f; opacity: 0.5"/>
   </g>
   <g id="patch_83">
    <path d="M 240.116403 448.56 
L 241.750884 448.56 
L 241.750884 319.2 
L 240.116403 319.2 
z
" clip-path="url(#p50f76e5a76)" style="fill: #7f7f7f; opacity: 0.5"/>
   </g>
   <g id="patch_84">
    <path d="M 242.159504 448.56 
L 243.793985 448.56 
L 243.793985 345.072 
L 242.159504 345.072 
z
" clip-path="url(#p50f76e5a76)" style="fill: #7f7f7f; opacity: 0.5"/>
   </g>
   <g id="patch_85">
    <path d="M 244.202605 448.56 
L 245.837085 448.56 
L 245.837085 396.816 
L 244.202605 396.816 
z
" clip-path="url(#p50f76e5a76)" style="fill: #7f7f7f; opacity: 0.5"/>
   </g>
   <g id="patch_86">
    <path d="M 246.245706 448.56 
L 247.880186 448.56 
L 247.880186 345.072 
L 246.245706 345.072 
z
" clip-path="url(#p50f76e5a76)" style="fill: #7f7f7f; opacity: 0.5"/>
   </g>
   <g id="patch_87">
    <path d="M 248.288806 448.56 
L 249.923287 448.56 
L 249.923287 267.456 
L 248.288806 267.456 
z
" clip-path="url(#p50f76e5a76)" style="fill: #7f7f7f; opacity: 0.5"/>
   </g>
   <g id="patch_88">
    <path d="M 250.331907 448.56 
L 251.966388 448.56 
L 251.966388 112.224 
L 250.331907 112.224 
z
" clip-path="url(#p50f76e5a76)" style="fill: #7f7f7f; opacity: 0.5"/>
   </g>
   <g id="patch_89">
    <path d="M 252.375008 448.56 
L 254.009488 448.56 
L 254.009488 293.328 
L 252.375008 293.328 
z
" clip-path="url(#p50f76e5a76)" style="fill: #7f7f7f; opacity: 0.5"/>
   </g>
   <g id="patch_90">
    <path d="M 254.418109 448.56 
L 256.052589 448.56 
L 256.052589 241.584 
L 254.418109 241.584 
z
" clip-path="url(#p50f76e5a76)" style="fill: #7f7f7f; opacity: 0.5"/>
   </g>
   <g id="patch_91">
    <path d="M 256.461209 448.56 
L 258.09569 448.56 
L 258.09569 345.072 
L 256.461209 345.072 
z
" clip-path="url(#p50f76e5a76)" style="fill: #7f7f7f; opacity: 0.5"/>
   </g>
   <g id="patch_92">
    <path d="M 258.50431 448.56 
L 260.138791 448.56 
L 260.138791 319.2 
L 258.50431 319.2 
z
" clip-path="url(#p50f76e5a76)" style="fill: #7f7f7f; opacity: 0.5"/>
   </g>
   <g id="patch_93">
    <path d="M 260.547411 448.56 
L 262.181891 448.56 
L 262.181891 370.944 
L 260.547411 370.944 
z
" clip-path="url(#p50f76e5a76)" style="fill: #7f7f7f; opacity: 0.5"/>
   </g>
   <g id="patch_94">
    <path d="M 262.590512 448.56 
L 264.224992 448.56 
L 264.224992 396.816 
L 262.590512 396.816 
z
" clip-path="url(#p50f76e5a76)" style="fill: #7f7f7f; opacity: 0.5"/>
   </g>
   <g id="patch_95">
    <path d="M 264.633612 448.56 
L 266.268093 448.56 
L 266.268093 396.816 
L 264.633612 396.816 
z
" clip-path="url(#p50f76e5a76)" style="fill: #7f7f7f; opacity: 0.5"/>
   </g>
   <g id="patch_96">
    <path d="M 266.676713 448.56 
L 268.311194 448.56 
L 268.311194 448.56 
L 266.676713 448.56 
z
" clip-path="url(#p50f76e5a76)" style="fill: #7f7f7f; opacity: 0.5"/>
   </g>
   <g id="patch_97">
    <path d="M 268.719814 448.56 
L 270.354294 448.56 
L 270.354294 422.688 
L 268.719814 422.688 
z
" clip-path="url(#p50f76e5a76)" style="fill: #7f7f7f; opacity: 0.5"/>
   </g>
   <g id="patch_98">
    <path d="M 270.762915 448.56 
L 272.397395 448.56 
L 272.397395 396.816 
L 270.762915 396.816 
z
" clip-path="url(#p50f76e5a76)" style="fill: #7f7f7f; opacity: 0.5"/>
   </g>
   <g id="patch_99">
    <path d="M 272.806015 448.56 
L 274.440496 448.56 
L 274.440496 370.944 
L 272.806015 370.944 
z
" clip-path="url(#p50f76e5a76)" style="fill: #7f7f7f; opacity: 0.5"/>
   </g>
   <g id="patch_100">
    <path d="M 274.849116 448.56 
L 276.483597 448.56 
L 276.483597 422.688 
L 274.849116 422.688 
z
" clip-path="url(#p50f76e5a76)" style="fill: #7f7f7f; opacity: 0.5"/>
   </g>
   <g id="patch_101">
    <path d="M 276.892217 448.56 
L 278.526697 448.56 
L 278.526697 370.944 
L 276.892217 370.944 
z
" clip-path="url(#p50f76e5a76)" style="fill: #7f7f7f; opacity: 0.5"/>
   </g>
   <g id="patch_102">
    <path d="M 278.935318 448.56 
L 280.569798 448.56 
L 280.569798 396.816 
L 278.935318 396.816 
z
" clip-path="url(#p50f76e5a76)" style="fill: #7f7f7f; opacity: 0.5"/>
   </g>
   <g id="patch_103">
    <path d="M 280.978418 448.56 
L 282.612899 448.56 
L 282.612899 448.56 
L 280.978418 448.56 
z
" clip-path="url(#p50f76e5a76)" style="fill: #7f7f7f; opacity: 0.5"/>
   </g>
   <g id="patch_104">
    <path d="M 283.021519 448.56 
L 284.656 448.56 
L 284.656 448.56 
L 283.021519 448.56 
z
" clip-path="url(#p50f76e5a76)" style="fill: #7f7f7f; opacity: 0.5"/>
   </g>
   <g id="patch_105">
    <path d="M 285.06462 448.56 
L 286.6991 448.56 
L 286.6991 422.688 
L 285.06462 422.688 
z
" clip-path="url(#p50f76e5a76)" style="fill: #7f7f7f; opacity: 0.5"/>
   </g>
   <g id="patch_106">
    <path d="M 287.10772 448.56 
L 288.742201 448.56 
L 288.742201 396.816 
L 287.10772 396.816 
z
" clip-path="url(#p50f76e5a76)" style="fill: #7f7f7f; opacity: 0.5"/>
   </g>
   <g id="patch_107">
    <path d="M 289.150821 448.56 
L 290.785302 448.56 
L 290.785302 422.688 
L 289.150821 422.688 
z
" clip-path="url(#p50f76e5a76)" style="fill: #7f7f7f; opacity: 0.5"/>
   </g>
   <g id="patch_108">
    <path d="M 291.193922 448.56 
L 292.828403 448.56 
L 292.828403 448.56 
L 291.193922 448.56 
z
" clip-path="url(#p50f76e5a76)" style="fill: #7f7f7f; opacity: 0.5"/>
   </g>
   <g id="patch_109">
    <path d="M 293.237023 448.56 
L 294.871503 448.56 
L 294.871503 422.688 
L 293.237023 422.688 
z
" clip-path="url(#p50f76e5a76)" style="fill: #7f7f7f; opacity: 0.5"/>
   </g>
   <g id="patch_110">
    <path d="M 295.280123 448.56 
L 296.914604 448.56 
L 296.914604 448.56 
L 295.280123 448.56 
z
" clip-path="url(#p50f76e5a76)" style="fill: #7f7f7f; opacity: 0.5"/>
   </g>
   <g id="patch_111">
    <path d="M 297.323224 448.56 
L 298.957705 448.56 
L 298.957705 422.688 
L 297.323224 422.688 
z
" clip-path="url(#p50f76e5a76)" style="fill: #7f7f7f; opacity: 0.5"/>
   </g>
   <g id="patch_112">
    <path d="M 299.366325 448.56 
L 301.000806 448.56 
L 301.000806 448.56 
L 299.366325 448.56 
z
" clip-path="url(#p50f76e5a76)" style="fill: #7f7f7f; opacity: 0.5"/>
   </g>
   <g id="patch_113">
    <path d="M 301.409426 448.56 
L 303.043906 448.56 
L 303.043906 448.56 
L 301.409426 448.56 
z
" clip-path="url(#p50f76e5a76)" style="fill: #7f7f7f; opacity: 0.5"/>
   </g>
   <g id="patch_114">
    <path d="M 303.452526 448.56 
L 305.087007 448.56 
L 305.087007 448.56 
L 303.452526 448.56 
z
" clip-path="url(#p50f76e5a76)" style="fill: #7f7f7f; opacity: 0.5"/>
   </g>
   <g id="patch_115">
    <path d="M 305.495627 448.56 
L 307.130108 448.56 
L 307.130108 422.688 
L 305.495627 422.688 
z
" clip-path="url(#p50f76e5a76)" style="fill: #7f7f7f; opacity: 0.5"/>
   </g>
   <g id="patch_116">
    <path d="M 307.538728 448.56 
L 309.173208 448.56 
L 309.173208 422.688 
L 307.538728 422.688 
z
" clip-path="url(#p50f76e5a76)" style="fill: #7f7f7f; opacity: 0.5"/>
   </g>
   <g id="patch_117">
    <path d="M 309.581829 448.56 
L 311.216309 448.56 
L 311.216309 448.56 
L 309.581829 448.56 
z
" clip-path="url(#p50f76e5a76)" style="fill: #7f7f7f; opacity: 0.5"/>
   </g>
   <g id="patch_118">
    <path d="M 311.624929 448.56 
L 313.25941 448.56 
L 313.25941 448.56 
L 311.624929 448.56 
z
" clip-path="url(#p50f76e5a76)" style="fill: #7f7f7f; opacity: 0.5"/>
   </g>
   <g id="patch_119">
    <path d="M 313.66803 448.56 
L 315.302511 448.56 
L 315.302511 448.56 
L 313.66803 448.56 
z
" clip-path="url(#p50f76e5a76)" style="fill: #7f7f7f; opacity: 0.5"/>
   </g>
   <g id="patch_120">
    <path d="M 315.711131 448.56 
L 317.345611 448.56 
L 317.345611 422.688 
L 315.711131 422.688 
z
" clip-path="url(#p50f76e5a76)" style="fill: #7f7f7f; opacity: 0.5"/>
   </g>
   <g id="patch_121">
    <path d="M 317.754232 448.56 
L 319.388712 448.56 
L 319.388712 448.56 
L 317.754232 448.56 
z
" clip-path="url(#p50f76e5a76)" style="fill: #7f7f7f; opacity: 0.5"/>
   </g>
   <g id="patch_122">
    <path d="M 319.797332 448.56 
L 321.431813 448.56 
L 321.431813 448.56 
L 319.797332 448.56 
z
" clip-path="url(#p50f76e5a76)" style="fill: #7f7f7f; opacity: 0.5"/>
   </g>
   <g id="patch_123">
    <path d="M 321.840433 448.56 
L 323.474914 448.56 
L 323.474914 448.56 
L 321.840433 448.56 
z
" clip-path="url(#p50f76e5a76)" style="fill: #7f7f7f; opacity: 0.5"/>
   </g>
   <g id="patch_124">
    <path d="M 323.883534 448.56 
L 325.518014 448.56 
L 325.518014 448.56 
L 323.883534 448.56 
z
" clip-path="url(#p50f76e5a76)" style="fill: #7f7f7f; opacity: 0.5"/>
   </g>
   <g id="patch_125">
    <path d="M 325.926635 448.56 
L 327.561115 448.56 
L 327.561115 448.56 
L 325.926635 448.56 
z
" clip-path="url(#p50f76e5a76)" style="fill: #7f7f7f; opacity: 0.5"/>
   </g>
   <g id="patch_126">
    <path d="M 327.969735 448.56 
L 329.604216 448.56 
L 329.604216 448.56 
L 327.969735 448.56 
z
" clip-path="url(#p50f76e5a76)" style="fill: #7f7f7f; opacity: 0.5"/>
   </g>
   <g id="patch_127">
    <path d="M 330.012836 448.56 
L 331.647317 448.56 
L 331.647317 448.56 
L 330.012836 448.56 
z
" clip-path="url(#p50f76e5a76)" style="fill: #7f7f7f; opacity: 0.5"/>
   </g>
   <g id="patch_128">
    <path d="M 332.055937 448.56 
L 333.690417 448.56 
L 333.690417 448.56 
L 332.055937 448.56 
z
" clip-path="url(#p50f76e5a76)" style="fill: #7f7f7f; opacity: 0.5"/>
   </g>
   <g id="patch_129">
    <path d="M 334.099038 448.56 
L 335.733518 448.56 
L 335.733518 448.56 
L 334.099038 448.56 
z
" clip-path="url(#p50f76e5a76)" style="fill: #7f7f7f; opacity: 0.5"/>
   </g>
   <g id="patch_130">
    <path d="M 336.142138 448.56 
L 337.776619 448.56 
L 337.776619 422.688 
L 336.142138 422.688 
z
" clip-path="url(#p50f76e5a76)" style="fill: #7f7f7f; opacity: 0.5"/>
   </g>
   <g id="patch_131">
    <path d="M 338.185239 448.56 
L 339.81972 448.56 
L 339.81972 448.56 
L 338.185239 448.56 
z
" clip-path="url(#p50f76e5a76)" style="fill: #7f7f7f; opacity: 0.5"/>
   </g>
   <g id="patch_132">
    <path d="M 340.22834 448.56 
L 341.86282 448.56 
L 341.86282 448.56 
L 340.22834 448.56 
z
" clip-path="url(#p50f76e5a76)" style="fill: #7f7f7f; opacity: 0.5"/>
   </g>
   <g id="patch_133">
    <path d="M 342.271441 448.56 
L 343.905921 448.56 
L 343.905921 448.56 
L 342.271441 448.56 
z
" clip-path="url(#p50f76e5a76)" style="fill: #7f7f7f; opacity: 0.5"/>
   </g>
   <g id="patch_134">
    <path d="M 344.314541 448.56 
L 345.949022 448.56 
L 345.949022 448.56 
L 344.314541 448.56 
z
" clip-path="url(#p50f76e5a76)" style="fill: #7f7f7f; opacity: 0.5"/>
   </g>
   <g id="patch_135">
    <path d="M 346.357642 448.56 
L 347.992123 448.56 
L 347.992123 448.56 
L 346.357642 448.56 
z
" clip-path="url(#p50f76e5a76)" style="fill: #7f7f7f; opacity: 0.5"/>
   </g>
   <g id="patch_136">
    <path d="M 348.400743 448.56 
L 350.035223 448.56 
L 350.035223 448.56 
L 348.400743 448.56 
z
" clip-path="url(#p50f76e5a76)" style="fill: #7f7f7f; opacity: 0.5"/>
   </g>
   <g id="patch_137">
    <path d="M 350.443843 448.56 
L 352.078324 448.56 
L 352.078324 422.688 
L 350.443843 422.688 
z
" clip-path="url(#p50f76e5a76)" style="fill: #7f7f7f; opacity: 0.5"/>
   </g>
   <g id="patch_138">
    <path d="M 352.486944 448.56 
L 354.121425 448.56 
L 354.121425 448.56 
L 352.486944 448.56 
z
" clip-path="url(#p50f76e5a76)" style="fill: #7f7f7f; opacity: 0.5"/>
   </g>
   <g id="patch_139">
    <path d="M 354.530045 448.56 
L 356.164526 448.56 
L 356.164526 448.56 
L 354.530045 448.56 
z
" clip-path="url(#p50f76e5a76)" style="fill: #7f7f7f; opacity: 0.5"/>
   </g>
   <g id="patch_140">
    <path d="M 356.573146 448.56 
L 358.207626 448.56 
L 358.207626 448.56 
L 356.573146 448.56 
z
" clip-path="url(#p50f76e5a76)" style="fill: #7f7f7f; opacity: 0.5"/>
   </g>
   <g id="patch_141">
    <path d="M 358.616246 448.56 
L 360.250727 448.56 
L 360.250727 448.56 
L 358.616246 448.56 
z
" clip-path="url(#p50f76e5a76)" style="fill: #7f7f7f; opacity: 0.5"/>
   </g>
   <g id="patch_142">
    <path d="M 360.659347 448.56 
L 362.293828 448.56 
L 362.293828 448.56 
L 360.659347 448.56 
z
" clip-path="url(#p50f76e5a76)" style="fill: #7f7f7f; opacity: 0.5"/>
   </g>
   <g id="patch_143">
    <path d="M 362.702448 448.56 
L 364.336929 448.56 
L 364.336929 448.56 
L 362.702448 448.56 
z
" clip-path="url(#p50f76e5a76)" style="fill: #7f7f7f; opacity: 0.5"/>
   </g>
   <g id="patch_144">
    <path d="M 364.745549 448.56 
L 366.380029 448.56 
L 366.380029 448.56 
L 364.745549 448.56 
z
" clip-path="url(#p50f76e5a76)" style="fill: #7f7f7f; opacity: 0.5"/>
   </g>
   <g id="patch_145">
    <path d="M 366.788649 448.56 
L 368.42313 448.56 
L 368.42313 448.56 
L 366.788649 448.56 
z
" clip-path="url(#p50f76e5a76)" style="fill: #7f7f7f; opacity: 0.5"/>
   </g>
   <g id="patch_146">
    <path d="M 368.83175 448.56 
L 370.466231 448.56 
L 370.466231 448.56 
L 368.83175 448.56 
z
" clip-path="url(#p50f76e5a76)" style="fill: #7f7f7f; opacity: 0.5"/>
   </g>
   <g id="patch_147">
    <path d="M 370.874851 448.56 
L 372.509332 448.56 
L 372.509332 448.56 
L 370.874851 448.56 
z
" clip-path="url(#p50f76e5a76)" style="fill: #7f7f7f; opacity: 0.5"/>
   </g>
   <g id="patch_148">
    <path d="M 372.917952 448.56 
L 374.552432 448.56 
L 374.552432 448.56 
L 372.917952 448.56 
z
" clip-path="url(#p50f76e5a76)" style="fill: #7f7f7f; opacity: 0.5"/>
   </g>
   <g id="patch_149">
    <path d="M 374.961052 448.56 
L 376.595533 448.56 
L 376.595533 448.56 
L 374.961052 448.56 
z
" clip-path="url(#p50f76e5a76)" style="fill: #7f7f7f; opacity: 0.5"/>
   </g>
   <g id="patch_150">
    <path d="M 377.004153 448.56 
L 378.638634 448.56 
L 378.638634 448.56 
L 377.004153 448.56 
z
" clip-path="url(#p50f76e5a76)" style="fill: #7f7f7f; opacity: 0.5"/>
   </g>
   <g id="patch_151">
    <path d="M 379.047254 448.56 
L 380.681734 448.56 
L 380.681734 448.56 
L 379.047254 448.56 
z
" clip-path="url(#p50f76e5a76)" style="fill: #7f7f7f; opacity: 0.5"/>
   </g>
   <g id="patch_152">
    <path d="M 381.090355 448.56 
L 382.724835 448.56 
L 382.724835 448.56 
L 381.090355 448.56 
z
" clip-path="url(#p50f76e5a76)" style="fill: #7f7f7f; opacity: 0.5"/>
   </g>
   <g id="patch_153">
    <path d="M 383.133455 448.56 
L 384.767936 448.56 
L 384.767936 448.56 
L 383.133455 448.56 
z
" clip-path="url(#p50f76e5a76)" style="fill: #7f7f7f; opacity: 0.5"/>
   </g>
   <g id="patch_154">
    <path d="M 385.176556 448.56 
L 386.811037 448.56 
L 386.811037 448.56 
L 385.176556 448.56 
z
" clip-path="url(#p50f76e5a76)" style="fill: #7f7f7f; opacity: 0.5"/>
   </g>
   <g id="patch_155">
    <path d="M 387.219657 448.56 
L 388.854137 448.56 
L 388.854137 448.56 
L 387.219657 448.56 
z
" clip-path="url(#p50f76e5a76)" style="fill: #7f7f7f; opacity: 0.5"/>
   </g>
   <g id="patch_156">
    <path d="M 389.262758 448.56 
L 390.897238 448.56 
L 390.897238 448.56 
L 389.262758 448.56 
z
" clip-path="url(#p50f76e5a76)" style="fill: #7f7f7f; opacity: 0.5"/>
   </g>
   <g id="patch_157">
    <path d="M 391.305858 448.56 
L 392.940339 448.56 
L 392.940339 448.56 
L 391.305858 448.56 
z
" clip-path="url(#p50f76e5a76)" style="fill: #7f7f7f; opacity: 0.5"/>
   </g>
   <g id="patch_158">
    <path d="M 393.348959 448.56 
L 394.98344 448.56 
L 394.98344 448.56 
L 393.348959 448.56 
z
" clip-path="url(#p50f76e5a76)" style="fill: #7f7f7f; opacity: 0.5"/>
   </g>
   <g id="patch_159">
    <path d="M 395.39206 448.56 
L 397.02654 448.56 
L 397.02654 448.56 
L 395.39206 448.56 
z
" clip-path="url(#p50f76e5a76)" style="fill: #7f7f7f; opacity: 0.5"/>
   </g>
   <g id="patch_160">
    <path d="M 397.435161 448.56 
L 399.069641 448.56 
L 399.069641 448.56 
L 397.435161 448.56 
z
" clip-path="url(#p50f76e5a76)" style="fill: #7f7f7f; opacity: 0.5"/>
   </g>
   <g id="patch_161">
    <path d="M 399.478261 448.56 
L 401.112742 448.56 
L 401.112742 448.56 
L 399.478261 448.56 
z
" clip-path="url(#p50f76e5a76)" style="fill: #7f7f7f; opacity: 0.5"/>
   </g>
   <g id="patch_162">
    <path d="M 401.521362 448.56 
L 403.155843 448.56 
L 403.155843 448.56 
L 401.521362 448.56 
z
" clip-path="url(#p50f76e5a76)" style="fill: #7f7f7f; opacity: 0.5"/>
   </g>
   <g id="patch_163">
    <path d="M 403.564463 448.56 
L 405.198943 448.56 
L 405.198943 448.56 
L 403.564463 448.56 
z
" clip-path="url(#p50f76e5a76)" style="fill: #7f7f7f; opacity: 0.5"/>
   </g>
   <g id="patch_164">
    <path d="M 405.607564 448.56 
L 407.242044 448.56 
L 407.242044 448.56 
L 405.607564 448.56 
z
" clip-path="url(#p50f76e5a76)" style="fill: #7f7f7f; opacity: 0.5"/>
   </g>
   <g id="patch_165">
    <path d="M 407.650664 448.56 
L 409.285145 448.56 
L 409.285145 448.56 
L 407.650664 448.56 
z
" clip-path="url(#p50f76e5a76)" style="fill: #7f7f7f; opacity: 0.5"/>
   </g>
   <g id="patch_166">
    <path d="M 409.693765 448.56 
L 411.328246 448.56 
L 411.328246 448.56 
L 409.693765 448.56 
z
" clip-path="url(#p50f76e5a76)" style="fill: #7f7f7f; opacity: 0.5"/>
   </g>
   <g id="patch_167">
    <path d="M 411.736866 448.56 
L 413.371346 448.56 
L 413.371346 448.56 
L 411.736866 448.56 
z
" clip-path="url(#p50f76e5a76)" style="fill: #7f7f7f; opacity: 0.5"/>
   </g>
   <g id="patch_168">
    <path d="M 413.779967 448.56 
L 415.414447 448.56 
L 415.414447 448.56 
L 413.779967 448.56 
z
" clip-path="url(#p50f76e5a76)" style="fill: #7f7f7f; opacity: 0.5"/>
   </g>
   <g id="patch_169">
    <path d="M 415.823067 448.56 
L 417.457548 448.56 
L 417.457548 448.56 
L 415.823067 448.56 
z
" clip-path="url(#p50f76e5a76)" style="fill: #7f7f7f; opacity: 0.5"/>
   </g>
   <g id="patch_170">
    <path d="M 417.866168 448.56 
L 419.500649 448.56 
L 419.500649 448.56 
L 417.866168 448.56 
z
" clip-path="url(#p50f76e5a76)" style="fill: #7f7f7f; opacity: 0.5"/>
   </g>
   <g id="patch_171">
    <path d="M 419.909269 448.56 
L 421.543749 448.56 
L 421.543749 448.56 
L 419.909269 448.56 
z
" clip-path="url(#p50f76e5a76)" style="fill: #7f7f7f; opacity: 0.5"/>
   </g>
   <g id="patch_172">
    <path d="M 421.952369 448.56 
L 423.58685 448.56 
L 423.58685 448.56 
L 421.952369 448.56 
z
" clip-path="url(#p50f76e5a76)" style="fill: #7f7f7f; opacity: 0.5"/>
   </g>
   <g id="patch_173">
    <path d="M 423.99547 448.56 
L 425.629951 448.56 
L 425.629951 448.56 
L 423.99547 448.56 
z
" clip-path="url(#p50f76e5a76)" style="fill: #7f7f7f; opacity: 0.5"/>
   </g>
   <g id="patch_174">
    <path d="M 426.038571 448.56 
L 427.673052 448.56 
L 427.673052 448.56 
L 426.038571 448.56 
z
" clip-path="url(#p50f76e5a76)" style="fill: #7f7f7f; opacity: 0.5"/>
   </g>
   <g id="patch_175">
    <path d="M 428.081672 448.56 
L 429.716152 448.56 
L 429.716152 448.56 
L 428.081672 448.56 
z
" clip-path="url(#p50f76e5a76)" style="fill: #7f7f7f; opacity: 0.5"/>
   </g>
   <g id="patch_176">
    <path d="M 430.124772 448.56 
L 431.759253 448.56 
L 431.759253 448.56 
L 430.124772 448.56 
z
" clip-path="url(#p50f76e5a76)" style="fill: #7f7f7f; opacity: 0.5"/>
   </g>
   <g id="patch_177">
    <path d="M 432.167873 448.56 
L 433.802354 448.56 
L 433.802354 448.56 
L 432.167873 448.56 
z
" clip-path="url(#p50f76e5a76)" style="fill: #7f7f7f; opacity: 0.5"/>
   </g>
   <g id="patch_178">
    <path d="M 434.210974 448.56 
L 435.845455 448.56 
L 435.845455 448.56 
L 434.210974 448.56 
z
" clip-path="url(#p50f76e5a76)" style="fill: #7f7f7f; opacity: 0.5"/>
   </g>
   <g id="matplotlib.axis_3">
    <g id="ytick_10">
     <g id="line2d_17">
      <defs>
       <path id="mfcd3f9661c" d="M 0 0 
L 3.5 0 
" style="stroke: #7f7f7f; stroke-width: 0.8"/>
      </defs>
      <g>
       <use xlink:href="#mfcd3f9661c" x="453.6" y="448.56" style="fill: #7f7f7f; stroke: #7f7f7f; stroke-width: 0.8"/>
      </g>
     </g>
     <g id="text_17">
      <text style="font-size: 16px; font-family: 'Arial', sans-serif; text-anchor: start; fill: #7f7f7f" x="460.6" y="454.28625" transform="rotate(-0 460.6 454.28625)">0</text>
     </g>
    </g>
    <g id="ytick_11">
     <g id="line2d_18">
      <g>
       <use xlink:href="#mfcd3f9661c" x="453.6" y="396.816" style="fill: #7f7f7f; stroke: #7f7f7f; stroke-width: 0.8"/>
      </g>
     </g>
     <g id="text_18">
      <text style="font-size: 16px; font-family: 'Arial', sans-serif; text-anchor: start; fill: #7f7f7f" x="460.6" y="402.54225" transform="rotate(-0 460.6 402.54225)">2</text>
     </g>
    </g>
    <g id="ytick_12">
     <g id="line2d_19">
      <g>
       <use xlink:href="#mfcd3f9661c" x="453.6" y="345.072" style="fill: #7f7f7f; stroke: #7f7f7f; stroke-width: 0.8"/>
      </g>
     </g>
     <g id="text_19">
      <text style="font-size: 16px; font-family: 'Arial', sans-serif; text-anchor: start; fill: #7f7f7f" x="460.6" y="350.79825" transform="rotate(-0 460.6 350.79825)">4</text>
     </g>
    </g>
    <g id="ytick_13">
     <g id="line2d_20">
      <g>
       <use xlink:href="#mfcd3f9661c" x="453.6" y="293.328" style="fill: #7f7f7f; stroke: #7f7f7f; stroke-width: 0.8"/>
      </g>
     </g>
     <g id="text_20">
      <text style="font-size: 16px; font-family: 'Arial', sans-serif; text-anchor: start; fill: #7f7f7f" x="460.6" y="299.05425" transform="rotate(-0 460.6 299.05425)">6</text>
     </g>
    </g>
    <g id="ytick_14">
     <g id="line2d_21">
      <g>
       <use xlink:href="#mfcd3f9661c" x="453.6" y="241.584" style="fill: #7f7f7f; stroke: #7f7f7f; stroke-width: 0.8"/>
      </g>
     </g>
     <g id="text_21">
      <text style="font-size: 16px; font-family: 'Arial', sans-serif; text-anchor: start; fill: #7f7f7f" x="460.6" y="247.31025" transform="rotate(-0 460.6 247.31025)">8</text>
     </g>
    </g>
    <g id="ytick_15">
     <g id="line2d_22">
      <g>
       <use xlink:href="#mfcd3f9661c" x="453.6" y="189.84" style="fill: #7f7f7f; stroke: #7f7f7f; stroke-width: 0.8"/>
      </g>
     </g>
     <g id="text_22">
      <text style="font-size: 16px; font-family: 'Arial', sans-serif; text-anchor: start; fill: #7f7f7f" x="460.6" y="195.56625" transform="rotate(-0 460.6 195.56625)">10</text>
     </g>
    </g>
    <g id="ytick_16">
     <g id="line2d_23">
      <g>
       <use xlink:href="#mfcd3f9661c" x="453.6" y="138.096" style="fill: #7f7f7f; stroke: #7f7f7f; stroke-width: 0.8"/>
      </g>
     </g>
     <g id="text_23">
      <text style="font-size: 16px; font-family: 'Arial', sans-serif; text-anchor: start; fill: #7f7f7f" x="460.6" y="143.82225" transform="rotate(-0 460.6 143.82225)">12</text>
     </g>
    </g>
    <g id="ytick_17">
     <g id="line2d_24">
      <g>
       <use xlink:href="#mfcd3f9661c" x="453.6" y="86.352" style="fill: #7f7f7f; stroke: #7f7f7f; stroke-width: 0.8"/>
      </g>
     </g>
     <g id="text_24">
      <text style="font-size: 16px; font-family: 'Arial', sans-serif; text-anchor: start; fill: #7f7f7f" x="460.6" y="92.07825" transform="rotate(-0 460.6 92.07825)">14</text>
     </g>
    </g>
    <g id="text_25">
     <text style="font-size: 16px; font-family: 'Arial', sans-serif; text-anchor: middle; fill: #7f7f7f" x="493.8475" y="254.52" transform="rotate(-90 493.8475 254.52)">Number of cases</text>
    </g>
   </g>
   <g id="patch_179">
    <path d="M 453.6 448.56 
L 453.6 60.48 
" style="fill: none; stroke: #7f7f7f; stroke-width: 0.8; stroke-linejoin: miter; stroke-linecap: square"/>
   </g>
  </g>
 </g>
 <defs>
  <clipPath id="p50f76e5a76">
   <rect x="63" y="60.48" width="390.6" height="388.08"/>
  </clipPath>
 </defs>
</svg>
