<?xml version="1.0" encoding="utf-8" standalone="no"?>
<!DOCTYPE svg PUBLIC "-//W3C//DTD SVG 1.1//EN"
  "http://www.w3.org/Graphics/SVG/1.1/DTD/svg11.dtd">
<svg xmlns:xlink="http://www.w3.org/1999/xlink" width="460.8pt" height="345.6pt" viewBox="0 0 460.8 345.6" xmlns="http://www.w3.org/2000/svg" version="1.1">
 <metadata>
  <rdf:RDF xmlns:dc="http://purl.org/dc/elements/1.1/" xmlns:cc="http://creativecommons.org/ns#" xmlns:rdf="http://www.w3.org/1999/02/22-rdf-syntax-ns#">
   <cc:Work>
    <dc:type rdf:resource="http://purl.org/dc/dcmitype/StillImage"/>
    <dc:date>2026-01-23T14:47:59.840421</dc:date>
    <dc:format>image/svg+xml</dc:format>
    <dc:creator>
     <cc:Agent>
      <dc:title>Matplotlib v3.10.8, https://matplotlib.org/</dc:title>
     </cc:Agent>
    </dc:creator>
   </cc:Work>
  </rdf:RDF>
 </metadata>
 <defs>
  <style type="text/css">*{stroke-linejoin: round; stroke-linecap: butt}</style>
 </defs>
 <g id="figure_1">
  <g id="patch_1">
   <path d="M 0 345.6 
L 460.8 345.6 
L 460.8 0 
L 0 0 
z
" style="fill: #ffffff"/>
  </g>
  <g id="axes_1">
   <g id="patch_2">
    <path d="M 57.6 307.584 
L 414.72 307.584 
L 414.72 41.472 
L 57.6 41.472 
z
" style="fill: #ffffff"/>
   </g>
   <g id="FillBetweenPolyCollection_1">
    <defs>
     <path id="m295233ac82" d="M 74.579918 -350.722947 
L 74.579918 -81.387731 
L 76.447896 -82.367161 
L 78.315874 -80.654785 
L 80.183852 -76.090094 
L 82.05183 -74.053932 
L 83.919808 -71.026715 
L 85.787785 -68.882639 
L 87.655763 -67.309606 
L 89.523741 -64.936465 
L 91.391719 -64.079903 
L 93.259697 -62.399196 
L 95.127674 -61.63371 
L 96.995652 -60.823057 
L 98.86363 -60.207473 
L 100.731608 -60.060968 
L 102.599586 -60.397608 
L 104.467564 -61.175169 
L 106.335541 -61.991163 
L 108.203519 -62.845237 
L 110.071497 -65.121023 
L 111.939475 -65.746719 
L 113.807453 -66.982228 
L 115.67543 -68.982372 
L 117.543408 -71.134569 
L 119.411386 -73.195308 
L 121.279364 -74.546178 
L 123.147342 -75.914211 
L 125.01532 -77.050537 
L 126.883297 -77.989235 
L 128.751275 -78.855925 
L 130.619253 -80.042213 
L 132.487231 -81.838551 
L 134.355209 -81.94201 
L 136.223187 -81.817816 
L 138.091164 -83.088627 
L 139.959142 -83.516477 
L 141.82712 -84.795045 
L 143.695098 -88.810317 
L 145.563076 -89.620249 
L 147.431053 -89.424272 
L 149.299031 -89.549912 
L 151.167009 -89.392955 
L 153.034987 -91.237735 
L 154.902965 -92.975563 
L 156.770943 -92.265793 
L 158.63892 -93.795269 
L 160.506898 -96.642982 
L 162.374876 -102.092285 
L 164.242854 -104.966342 
L 166.110832 -106.995786 
L 167.978809 -109.26986 
L 169.846787 -114.235188 
L 171.714765 -120.27644 
L 173.582743 -125.028971 
L 175.450721 -121.678577 
L 177.318699 -118.682204 
L 179.186676 -109.079145 
L 181.054654 -100.306184 
L 182.922632 -93.80005 
L 184.79061 -87.608555 
L 186.658588 -79.517837 
L 188.526566 -74.989872 
L 190.394543 -74.311345 
L 192.262521 -72.048445 
L 194.130499 -71.669011 
L 195.998477 -73.330028 
L 197.866455 -79.377425 
L 199.734432 -81.914096 
L 201.60241 -86.199708 
L 203.470388 -89.509884 
L 205.338366 -95.570417 
L 207.206344 -100.367851 
L 209.074322 -101.838971 
L 210.942299 -98.148473 
L 212.810277 -97.17402 
L 214.678255 -92.154846 
L 216.546233 -95.338118 
L 218.414211 -90.05955 
L 220.282189 -80.719832 
L 222.150166 -75.187746 
L 224.018144 -72.73642 
L 225.886122 -74.030565 
L 227.7541 -78.14861 
L 229.622078 -81.765638 
L 231.490055 -80.043544 
L 233.358033 -78.772176 
L 235.226011 -74.602286 
L 237.093989 -72.168074 
L 238.961967 -68.867839 
L 240.829945 -66.709801 
L 242.697922 -65.086644 
L 244.5659 -64.295124 
L 246.433878 -65.290711 
L 248.301856 -66.771335 
L 250.169834 -68.118006 
L 252.037811 -68.505092 
L 253.905789 -69.637327 
L 255.773767 -69.53283 
L 257.641745 -68.871 
L 259.509723 -69.237575 
L 261.377701 -70.93372 
L 263.245678 -71.426252 
L 265.113656 -71.626724 
L 266.981634 -71.480751 
L 268.849612 -71.447372 
L 270.71759 -70.294512 
L 272.585568 -72.164384 
L 274.453545 -72.083635 
L 276.321523 -71.305586 
L 278.189501 -71.117597 
L 280.057479 -72.286574 
L 281.925457 -71.883401 
L 283.793434 -71.216648 
L 285.661412 -70.132941 
L 287.52939 -70.728024 
L 289.397368 -69.997338 
L 291.265346 -69.749073 
L 293.133324 -69.456242 
L 295.001301 -69.05167 
L 296.869279 -68.611772 
L 298.737257 -68.065314 
L 300.605235 -67.296205 
L 302.473213 -67.790588 
L 304.341191 -67.441935 
L 306.209168 -67.677691 
L 308.077146 -68.306701 
L 309.945124 -67.5434 
L 311.813102 -67.483663 
L 313.68108 -66.149806 
L 315.549057 -66.42666 
L 317.417035 -65.275997 
L 319.285013 -64.5897 
L 321.152991 -64.820489 
L 323.020969 -64.022496 
L 324.888947 -63.091786 
L 326.756924 -62.61465 
L 328.624902 -62.515256 
L 330.49288 -61.570502 
L 332.360858 -60.218803 
L 334.228836 -59.358933 
L 336.096813 -59.196208 
L 337.964791 -58.946264 
L 339.832769 -57.961889 
L 341.700747 -57.246812 
L 343.568725 -57.203405 
L 345.436703 -56.748792 
L 347.30468 -56.221386 
L 349.172658 -55.998217 
L 351.040636 -55.838114 
L 352.908614 -55.143848 
L 354.776592 -55.044761 
L 356.64457 -54.596439 
L 358.512547 -54.082381 
L 360.380525 -53.655572 
L 362.248503 -53.554644 
L 364.116481 -53.056828 
L 365.984459 -52.78097 
L 367.852436 -52.433125 
L 369.720414 -52.993316 
L 371.588392 -52.759711 
L 373.45637 -52.605246 
L 375.324348 -52.159586 
L 377.192326 -52.145962 
L 379.060303 -51.742951 
L 380.928281 -51.521135 
L 382.796259 -51.427726 
L 384.664237 -51.212169 
L 386.532215 -51.382824 
L 388.400192 -51.098604 
L 390.26817 -51.064753 
L 392.136148 -50.619306 
L 394.004126 -50.818497 
L 395.872104 -50.473621 
L 397.740082 -50.538891 
L 397.740082 -217.178309 
L 397.740082 -217.178309 
L 395.872104 -219.681182 
L 394.004126 -220.74002 
L 392.136148 -225.42685 
L 390.26817 -225.520842 
L 388.400192 -225.530849 
L 386.532215 -227.314918 
L 384.664237 -233.326224 
L 382.796259 -233.815854 
L 380.928281 -234.436293 
L 379.060303 -230.304042 
L 377.192326 -233.194409 
L 375.324348 -233.029631 
L 373.45637 -242.795214 
L 371.588392 -245.330409 
L 369.720414 -243.218137 
L 367.852436 -248.560218 
L 365.984459 -243.118338 
L 364.116481 -247.994432 
L 362.248503 -247.172738 
L 360.380525 -251.224062 
L 358.512547 -246.749656 
L 356.64457 -250.751825 
L 354.776592 -253.759272 
L 352.908614 -257.004775 
L 351.040636 -260.934078 
L 349.172658 -263.277563 
L 347.30468 -256.583297 
L 345.436703 -265.019138 
L 343.568725 -261.504208 
L 341.700747 -262.299779 
L 339.832769 -263.25503 
L 337.964791 -265.261579 
L 336.096813 -269.517498 
L 334.228836 -268.281704 
L 332.360858 -266.858055 
L 330.49288 -266.456757 
L 328.624902 -275.349466 
L 326.756924 -283.42854 
L 324.888947 -280.121552 
L 323.020969 -278.214854 
L 321.152991 -291.255033 
L 319.285013 -282.202427 
L 317.417035 -281.424944 
L 315.549057 -276.365927 
L 313.68108 -281.546234 
L 311.813102 -280.796095 
L 309.945124 -279.484763 
L 308.077146 -275.032292 
L 306.209168 -269.166442 
L 304.341191 -270.456068 
L 302.473213 -269.66237 
L 300.605235 -270.086589 
L 298.737257 -264.534123 
L 296.869279 -252.651359 
L 295.001301 -252.921854 
L 293.133324 -253.829929 
L 291.265346 -258.118086 
L 289.397368 -258.001713 
L 287.52939 -251.43306 
L 285.661412 -248.021363 
L 283.793434 -250.55405 
L 281.925457 -247.139341 
L 280.057479 -240.053369 
L 278.189501 -232.77808 
L 276.321523 -226.207199 
L 274.453545 -218.358806 
L 272.585568 -212.934581 
L 270.71759 -207.576474 
L 268.849612 -205.233663 
L 266.981634 -195.266753 
L 265.113656 -190.767316 
L 263.245678 -182.256578 
L 261.377701 -170.391422 
L 259.509723 -161.206638 
L 257.641745 -156.836625 
L 255.773767 -151.389934 
L 253.905789 -150.830181 
L 252.037811 -140.563393 
L 250.169834 -135.312105 
L 248.301856 -127.213703 
L 246.433878 -118.536837 
L 244.5659 -114.877937 
L 242.697922 -113.508453 
L 240.829945 -115.959666 
L 238.961967 -117.477906 
L 237.093989 -121.137812 
L 235.226011 -123.192376 
L 233.358033 -129.933367 
L 231.490055 -129.558644 
L 229.622078 -133.025774 
L 227.7541 -123.141852 
L 225.886122 -115.643054 
L 224.018144 -111.993381 
L 222.150166 -116.967053 
L 220.282189 -127.392609 
L 218.414211 -142.203923 
L 216.546233 -152.607915 
L 214.678255 -145.069938 
L 212.810277 -155.339131 
L 210.942299 -155.063608 
L 209.074322 -161.515884 
L 207.206344 -156.506929 
L 205.338366 -147.245258 
L 203.470388 -136.712577 
L 201.60241 -131.445048 
L 199.734432 -124.467772 
L 197.866455 -119.124922 
L 195.998477 -109.730296 
L 194.130499 -107.748583 
L 192.262521 -108.382813 
L 190.394543 -114.800349 
L 188.526566 -117.26334 
L 186.658588 -125.515567 
L 184.79061 -143.285956 
L 182.922632 -154.707543 
L 181.054654 -169.954234 
L 179.186676 -187.78818 
L 177.318699 -209.647318 
L 175.450721 -215.315428 
L 173.582743 -223.618584 
L 171.714765 -219.432849 
L 169.846787 -209.738373 
L 167.978809 -201.305497 
L 166.110832 -200.900685 
L 164.242854 -197.327517 
L 162.374876 -195.179801 
L 160.506898 -186.257547 
L 158.63892 -183.332308 
L 156.770943 -181.400124 
L 154.902965 -185.552401 
L 153.034987 -185.048447 
L 151.167009 -184.020204 
L 149.299031 -185.368336 
L 147.431053 -183.809133 
L 145.563076 -191.576595 
L 143.695098 -192.106801 
L 141.82712 -188.575248 
L 139.959142 -186.545426 
L 138.091164 -186.802761 
L 136.223187 -188.08916 
L 134.355209 -190.90824 
L 132.487231 -192.465056 
L 130.619253 -192.448847 
L 128.751275 -194.973561 
L 126.883297 -192.353222 
L 125.01532 -189.382454 
L 123.147342 -185.204382 
L 121.279364 -179.894637 
L 119.411386 -175.101871 
L 117.543408 -170.361317 
L 115.67543 -163.831593 
L 113.807453 -157.200026 
L 111.939475 -149.796867 
L 110.071497 -141.325629 
L 108.203519 -134.620909 
L 106.335541 -128.641921 
L 104.467564 -124.74807 
L 102.599586 -121.609174 
L 100.731608 -120.504539 
L 98.86363 -122.616295 
L 96.995652 -126.315702 
L 95.127674 -131.397616 
L 93.259697 -138.246863 
L 91.391719 -148.19544 
L 89.523741 -161.170034 
L 87.655763 -177.066616 
L 85.787785 -195.740445 
L 83.919808 -221.957636 
L 82.05183 -247.299114 
L 80.183852 -277.986607 
L 78.315874 -318.876725 
L 76.447896 -343.625476 
L 74.579918 -350.722947 
z
" style="stroke: #1f77b4; stroke-opacity: 0.3"/>
    </defs>
    <g clip-path="url(#p942ae71a4c)">
     <use xlink:href="#m295233ac82" x="0" y="345.6" style="fill: #1f77b4; fill-opacity: 0.3; stroke: #1f77b4; stroke-opacity: 0.3"/>
    </g>
   </g>
   <g id="matplotlib.axis_1">
    <g id="xtick_1">
     <g id="line2d_1">
      <defs>
       <path id="mac501458b6" d="M 0 0 
L 0 3.5 
" style="stroke: #000000; stroke-width: 0.8"/>
      </defs>
      <g>
       <use xlink:href="#mac501458b6" x="83.919808" y="307.584" style="stroke: #000000; stroke-width: 0.8"/>
      </g>
     </g>
     <g id="text_1">
      <!-- 1 Jul -->
      <g transform="translate(73.116683 322.182437) scale(0.1 -0.1)">
       <defs>
        <path id="DejaVuSans-31" d="M 794 531 
L 1825 531 
L 1825 4091 
L 703 3866 
L 703 4441 
L 1819 4666 
L 2450 4666 
L 2450 531 
L 3481 531 
L 3481 0 
L 794 0 
L 794 531 
z
" transform="scale(0.015625)"/>
        <path id="DejaVuSans-20" transform="scale(0.015625)"/>
        <path id="DejaVuSans-4a" d="M 628 4666 
L 1259 4666 
L 1259 325 
Q 1259 -519 939 -900 
Q 619 -1281 -91 -1281 
L -331 -1281 
L -331 -750 
L -134 -750 
Q 284 -750 456 -515 
Q 628 -281 628 325 
L 628 4666 
z
" transform="scale(0.015625)"/>
        <path id="DejaVuSans-75" d="M 544 1381 
L 544 3500 
L 1119 3500 
L 1119 1403 
Q 1119 906 1312 657 
Q 1506 409 1894 409 
Q 2359 409 2629 706 
Q 2900 1003 2900 1516 
L 2900 3500 
L 3475 3500 
L 3475 0 
L 2900 0 
L 2900 538 
Q 2691 219 2414 64 
Q 2138 -91 1772 -91 
Q 1169 -91 856 284 
Q 544 659 544 1381 
z
M 1991 3584 
L 1991 3584 
z
" transform="scale(0.015625)"/>
        <path id="DejaVuSans-6c" d="M 603 4863 
L 1178 4863 
L 1178 0 
L 603 0 
L 603 4863 
z
" transform="scale(0.015625)"/>
       </defs>
       <use xlink:href="#DejaVuSans-31"/>
       <use xlink:href="#DejaVuSans-20" transform="translate(63.623047 0)"/>
       <use xlink:href="#DejaVuSans-4a" transform="translate(95.410156 0)"/>
       <use xlink:href="#DejaVuSans-75" transform="translate(124.902344 0)"/>
       <use xlink:href="#DejaVuSans-6c" transform="translate(188.28125 0)"/>
      </g>
     </g>
    </g>
    <g id="xtick_2">
     <g id="line2d_2">
      <g>
       <use xlink:href="#mac501458b6" x="141.82712" y="307.584" style="stroke: #000000; stroke-width: 0.8"/>
      </g>
     </g>
     <g id="text_2">
      <!-- 1 Aug -->
      <g transform="translate(127.293526 322.182437) scale(0.1 -0.1)">
       <defs>
        <path id="DejaVuSans-41" d="M 2188 4044 
L 1331 1722 
L 3047 1722 
L 2188 4044 
z
M 1831 4666 
L 2547 4666 
L 4325 0 
L 3669 0 
L 3244 1197 
L 1141 1197 
L 716 0 
L 50 0 
L 1831 4666 
z
" transform="scale(0.015625)"/>
        <path id="DejaVuSans-67" d="M 2906 1791 
Q 2906 2416 2648 2759 
Q 2391 3103 1925 3103 
Q 1463 3103 1205 2759 
Q 947 2416 947 1791 
Q 947 1169 1205 825 
Q 1463 481 1925 481 
Q 2391 481 2648 825 
Q 2906 1169 2906 1791 
z
M 3481 434 
Q 3481 -459 3084 -895 
Q 2688 -1331 1869 -1331 
Q 1566 -1331 1297 -1286 
Q 1028 -1241 775 -1147 
L 775 -588 
Q 1028 -725 1275 -790 
Q 1522 -856 1778 -856 
Q 2344 -856 2625 -561 
Q 2906 -266 2906 331 
L 2906 616 
Q 2728 306 2450 153 
Q 2172 0 1784 0 
Q 1141 0 747 490 
Q 353 981 353 1791 
Q 353 2603 747 3093 
Q 1141 3584 1784 3584 
Q 2172 3584 2450 3431 
Q 2728 3278 2906 2969 
L 2906 3500 
L 3481 3500 
L 3481 434 
z
" transform="scale(0.015625)"/>
       </defs>
       <use xlink:href="#DejaVuSans-31"/>
       <use xlink:href="#DejaVuSans-20" transform="translate(63.623047 0)"/>
       <use xlink:href="#DejaVuSans-41" transform="translate(95.410156 0)"/>
       <use xlink:href="#DejaVuSans-75" transform="translate(163.818359 0)"/>
       <use xlink:href="#DejaVuSans-67" transform="translate(227.197266 0)"/>
      </g>
     </g>
    </g>
    <g id="xtick_3">
     <g id="line2d_3">
      <g>
       <use xlink:href="#mac501458b6" x="199.734432" y="307.584" style="stroke: #000000; stroke-width: 0.8"/>
      </g>
     </g>
     <g id="text_3">
      <!-- 1 Sep -->
      <g transform="translate(185.53912 322.182437) scale(0.1 -0.1)">
       <defs>
        <path id="DejaVuSans-53" d="M 3425 4513 
L 3425 3897 
Q 3066 4069 2747 4153 
Q 2428 4238 2131 4238 
Q 1616 4238 1336 4038 
Q 1056 3838 1056 3469 
Q 1056 3159 1242 3001 
Q 1428 2844 1947 2747 
L 2328 2669 
Q 3034 2534 3370 2195 
Q 3706 1856 3706 1288 
Q 3706 609 3251 259 
Q 2797 -91 1919 -91 
Q 1588 -91 1214 -16 
Q 841 59 441 206 
L 441 856 
Q 825 641 1194 531 
Q 1563 422 1919 422 
Q 2459 422 2753 634 
Q 3047 847 3047 1241 
Q 3047 1584 2836 1778 
Q 2625 1972 2144 2069 
L 1759 2144 
Q 1053 2284 737 2584 
Q 422 2884 422 3419 
Q 422 4038 858 4394 
Q 1294 4750 2059 4750 
Q 2388 4750 2728 4690 
Q 3069 4631 3425 4513 
z
" transform="scale(0.015625)"/>
        <path id="DejaVuSans-65" d="M 3597 1894 
L 3597 1613 
L 953 1613 
Q 991 1019 1311 708 
Q 1631 397 2203 397 
Q 2534 397 2845 478 
Q 3156 559 3463 722 
L 3463 178 
Q 3153 47 2828 -22 
Q 2503 -91 2169 -91 
Q 1331 -91 842 396 
Q 353 884 353 1716 
Q 353 2575 817 3079 
Q 1281 3584 2069 3584 
Q 2775 3584 3186 3129 
Q 3597 2675 3597 1894 
z
M 3022 2063 
Q 3016 2534 2758 2815 
Q 2500 3097 2075 3097 
Q 1594 3097 1305 2825 
Q 1016 2553 972 2059 
L 3022 2063 
z
" transform="scale(0.015625)"/>
        <path id="DejaVuSans-70" d="M 1159 525 
L 1159 -1331 
L 581 -1331 
L 581 3500 
L 1159 3500 
L 1159 2969 
Q 1341 3281 1617 3432 
Q 1894 3584 2278 3584 
Q 2916 3584 3314 3078 
Q 3713 2572 3713 1747 
Q 3713 922 3314 415 
Q 2916 -91 2278 -91 
Q 1894 -91 1617 61 
Q 1341 213 1159 525 
z
M 3116 1747 
Q 3116 2381 2855 2742 
Q 2594 3103 2138 3103 
Q 1681 3103 1420 2742 
Q 1159 2381 1159 1747 
Q 1159 1113 1420 752 
Q 1681 391 2138 391 
Q 2594 391 2855 752 
Q 3116 1113 3116 1747 
z
" transform="scale(0.015625)"/>
       </defs>
       <use xlink:href="#DejaVuSans-31"/>
       <use xlink:href="#DejaVuSans-20" transform="translate(63.623047 0)"/>
       <use xlink:href="#DejaVuSans-53" transform="translate(95.410156 0)"/>
       <use xlink:href="#DejaVuSans-65" transform="translate(158.886719 0)"/>
       <use xlink:href="#DejaVuSans-70" transform="translate(220.410156 0)"/>
      </g>
     </g>
    </g>
    <g id="xtick_4">
     <g id="line2d_4">
      <g>
       <use xlink:href="#mac501458b6" x="255.773767" y="307.584" style="stroke: #000000; stroke-width: 0.8"/>
      </g>
     </g>
     <g id="text_4">
      <!-- 1 Oct -->
      <g transform="translate(242.358142 322.182437) scale(0.1 -0.1)">
       <defs>
        <path id="DejaVuSans-4f" d="M 2522 4238 
Q 1834 4238 1429 3725 
Q 1025 3213 1025 2328 
Q 1025 1447 1429 934 
Q 1834 422 2522 422 
Q 3209 422 3611 934 
Q 4013 1447 4013 2328 
Q 4013 3213 3611 3725 
Q 3209 4238 2522 4238 
z
M 2522 4750 
Q 3503 4750 4090 4092 
Q 4678 3434 4678 2328 
Q 4678 1225 4090 567 
Q 3503 -91 2522 -91 
Q 1538 -91 948 565 
Q 359 1222 359 2328 
Q 359 3434 948 4092 
Q 1538 4750 2522 4750 
z
" transform="scale(0.015625)"/>
        <path id="DejaVuSans-63" d="M 3122 3366 
L 3122 2828 
Q 2878 2963 2633 3030 
Q 2388 3097 2138 3097 
Q 1578 3097 1268 2742 
Q 959 2388 959 1747 
Q 959 1106 1268 751 
Q 1578 397 2138 397 
Q 2388 397 2633 464 
Q 2878 531 3122 666 
L 3122 134 
Q 2881 22 2623 -34 
Q 2366 -91 2075 -91 
Q 1284 -91 818 406 
Q 353 903 353 1747 
Q 353 2603 823 3093 
Q 1294 3584 2113 3584 
Q 2378 3584 2631 3529 
Q 2884 3475 3122 3366 
z
" transform="scale(0.015625)"/>
        <path id="DejaVuSans-74" d="M 1172 4494 
L 1172 3500 
L 2356 3500 
L 2356 3053 
L 1172 3053 
L 1172 1153 
Q 1172 725 1289 603 
Q 1406 481 1766 481 
L 2356 481 
L 2356 0 
L 1766 0 
Q 1100 0 847 248 
Q 594 497 594 1153 
L 594 3053 
L 172 3053 
L 172 3500 
L 594 3500 
L 594 4494 
L 1172 4494 
z
" transform="scale(0.015625)"/>
       </defs>
       <use xlink:href="#DejaVuSans-31"/>
       <use xlink:href="#DejaVuSans-20" transform="translate(63.623047 0)"/>
       <use xlink:href="#DejaVuSans-4f" transform="translate(95.410156 0)"/>
       <use xlink:href="#DejaVuSans-63" transform="translate(174.121094 0)"/>
       <use xlink:href="#DejaVuSans-74" transform="translate(229.101562 0)"/>
      </g>
     </g>
    </g>
    <g id="xtick_5">
     <g id="line2d_5">
      <g>
       <use xlink:href="#mac501458b6" x="313.68108" y="307.584" style="stroke: #000000; stroke-width: 0.8"/>
      </g>
     </g>
     <g id="text_5">
      <!-- 1 Nov -->
      <g transform="translate(299.151392 322.182437) scale(0.1 -0.1)">
       <defs>
        <path id="DejaVuSans-4e" d="M 628 4666 
L 1478 4666 
L 3547 763 
L 3547 4666 
L 4159 4666 
L 4159 0 
L 3309 0 
L 1241 3903 
L 1241 0 
L 628 0 
L 628 4666 
z
" transform="scale(0.015625)"/>
        <path id="DejaVuSans-6f" d="M 1959 3097 
Q 1497 3097 1228 2736 
Q 959 2375 959 1747 
Q 959 1119 1226 758 
Q 1494 397 1959 397 
Q 2419 397 2687 759 
Q 2956 1122 2956 1747 
Q 2956 2369 2687 2733 
Q 2419 3097 1959 3097 
z
M 1959 3584 
Q 2709 3584 3137 3096 
Q 3566 2609 3566 1747 
Q 3566 888 3137 398 
Q 2709 -91 1959 -91 
Q 1206 -91 779 398 
Q 353 888 353 1747 
Q 353 2609 779 3096 
Q 1206 3584 1959 3584 
z
" transform="scale(0.015625)"/>
        <path id="DejaVuSans-76" d="M 191 3500 
L 800 3500 
L 1894 563 
L 2988 3500 
L 3597 3500 
L 2284 0 
L 1503 0 
L 191 3500 
z
" transform="scale(0.015625)"/>
       </defs>
       <use xlink:href="#DejaVuSans-31"/>
       <use xlink:href="#DejaVuSans-20" transform="translate(63.623047 0)"/>
       <use xlink:href="#DejaVuSans-4e" transform="translate(95.410156 0)"/>
       <use xlink:href="#DejaVuSans-6f" transform="translate(170.214844 0)"/>
       <use xlink:href="#DejaVuSans-76" transform="translate(231.396484 0)"/>
      </g>
     </g>
    </g>
    <g id="xtick_6">
     <g id="line2d_6">
      <g>
       <use xlink:href="#mac501458b6" x="369.720414" y="307.584" style="stroke: #000000; stroke-width: 0.8"/>
      </g>
     </g>
     <g id="text_6">
      <!-- 1 Dec -->
      <g transform="translate(355.274321 322.182437) scale(0.1 -0.1)">
       <defs>
        <path id="DejaVuSans-44" d="M 1259 4147 
L 1259 519 
L 2022 519 
Q 2988 519 3436 956 
Q 3884 1394 3884 2338 
Q 3884 3275 3436 3711 
Q 2988 4147 2022 4147 
L 1259 4147 
z
M 628 4666 
L 1925 4666 
Q 3281 4666 3915 4102 
Q 4550 3538 4550 2338 
Q 4550 1131 3912 565 
Q 3275 0 1925 0 
L 628 0 
L 628 4666 
z
" transform="scale(0.015625)"/>
       </defs>
       <use xlink:href="#DejaVuSans-31"/>
       <use xlink:href="#DejaVuSans-20" transform="translate(63.623047 0)"/>
       <use xlink:href="#DejaVuSans-44" transform="translate(95.410156 0)"/>
       <use xlink:href="#DejaVuSans-65" transform="translate(172.412109 0)"/>
       <use xlink:href="#DejaVuSans-63" transform="translate(233.935547 0)"/>
      </g>
     </g>
    </g>
   </g>
   <g id="matplotlib.axis_2">
    <g id="ytick_1">
     <g id="line2d_7">
      <defs>
       <path id="m1f6078601b" d="M 0 0 
L -3.5 0 
" style="stroke: #000000; stroke-width: 0.8"/>
      </defs>
      <g>
       <use xlink:href="#m1f6078601b" x="57.6" y="307.584" style="stroke: #000000; stroke-width: 0.8"/>
      </g>
     </g>
     <g id="text_7">
      <!-- 0 -->
      <g transform="translate(44.2375 311.383219) scale(0.1 -0.1)">
       <defs>
        <path id="DejaVuSans-30" d="M 2034 4250 
Q 1547 4250 1301 3770 
Q 1056 3291 1056 2328 
Q 1056 1369 1301 889 
Q 1547 409 2034 409 
Q 2525 409 2770 889 
Q 3016 1369 3016 2328 
Q 3016 3291 2770 3770 
Q 2525 4250 2034 4250 
z
M 2034 4750 
Q 2819 4750 3233 4129 
Q 3647 3509 3647 2328 
Q 3647 1150 3233 529 
Q 2819 -91 2034 -91 
Q 1250 -91 836 529 
Q 422 1150 422 2328 
Q 422 3509 836 4129 
Q 1250 4750 2034 4750 
z
" transform="scale(0.015625)"/>
       </defs>
       <use xlink:href="#DejaVuSans-30"/>
      </g>
     </g>
    </g>
    <g id="ytick_2">
     <g id="line2d_8">
      <g>
       <use xlink:href="#m1f6078601b" x="57.6" y="269.568" style="stroke: #000000; stroke-width: 0.8"/>
      </g>
     </g>
     <g id="text_8">
      <!-- 1 -->
      <g transform="translate(44.2375 273.367219) scale(0.1 -0.1)">
       <use xlink:href="#DejaVuSans-31"/>
      </g>
     </g>
    </g>
    <g id="ytick_3">
     <g id="line2d_9">
      <g>
       <use xlink:href="#m1f6078601b" x="57.6" y="231.552" style="stroke: #000000; stroke-width: 0.8"/>
      </g>
     </g>
     <g id="text_9">
      <!-- 2 -->
      <g transform="translate(44.2375 235.351219) scale(0.1 -0.1)">
       <defs>
        <path id="DejaVuSans-32" d="M 1228 531 
L 3431 531 
L 3431 0 
L 469 0 
L 469 531 
Q 828 903 1448 1529 
Q 2069 2156 2228 2338 
Q 2531 2678 2651 2914 
Q 2772 3150 2772 3378 
Q 2772 3750 2511 3984 
Q 2250 4219 1831 4219 
Q 1534 4219 1204 4116 
Q 875 4013 500 3803 
L 500 4441 
Q 881 4594 1212 4672 
Q 1544 4750 1819 4750 
Q 2544 4750 2975 4387 
Q 3406 4025 3406 3419 
Q 3406 3131 3298 2873 
Q 3191 2616 2906 2266 
Q 2828 2175 2409 1742 
Q 1991 1309 1228 531 
z
" transform="scale(0.015625)"/>
       </defs>
       <use xlink:href="#DejaVuSans-32"/>
      </g>
     </g>
    </g>
    <g id="ytick_4">
     <g id="line2d_10">
      <g>
       <use xlink:href="#m1f6078601b" x="57.6" y="193.536" style="stroke: #000000; stroke-width: 0.8"/>
      </g>
     </g>
     <g id="text_10">
      <!-- 3 -->
      <g transform="translate(44.2375 197.335219) scale(0.1 -0.1)">
       <defs>
        <path id="DejaVuSans-33" d="M 2597 2516 
Q 3050 2419 3304 2112 
Q 3559 1806 3559 1356 
Q 3559 666 3084 287 
Q 2609 -91 1734 -91 
Q 1441 -91 1130 -33 
Q 819 25 488 141 
L 488 750 
Q 750 597 1062 519 
Q 1375 441 1716 441 
Q 2309 441 2620 675 
Q 2931 909 2931 1356 
Q 2931 1769 2642 2001 
Q 2353 2234 1838 2234 
L 1294 2234 
L 1294 2753 
L 1863 2753 
Q 2328 2753 2575 2939 
Q 2822 3125 2822 3475 
Q 2822 3834 2567 4026 
Q 2313 4219 1838 4219 
Q 1578 4219 1281 4162 
Q 984 4106 628 3988 
L 628 4550 
Q 988 4650 1302 4700 
Q 1616 4750 1894 4750 
Q 2613 4750 3031 4423 
Q 3450 4097 3450 3541 
Q 3450 3153 3228 2886 
Q 3006 2619 2597 2516 
z
" transform="scale(0.015625)"/>
       </defs>
       <use xlink:href="#DejaVuSans-33"/>
      </g>
     </g>
    </g>
    <g id="ytick_5">
     <g id="line2d_11">
      <g>
       <use xlink:href="#m1f6078601b" x="57.6" y="155.52" style="stroke: #000000; stroke-width: 0.8"/>
      </g>
     </g>
     <g id="text_11">
      <!-- 4 -->
      <g transform="translate(44.2375 159.319219) scale(0.1 -0.1)">
       <defs>
        <path id="DejaVuSans-34" d="M 2419 4116 
L 825 1625 
L 2419 1625 
L 2419 4116 
z
M 2253 4666 
L 3047 4666 
L 3047 1625 
L 3713 1625 
L 3713 1100 
L 3047 1100 
L 3047 0 
L 2419 0 
L 2419 1100 
L 313 1100 
L 313 1709 
L 2253 4666 
z
" transform="scale(0.015625)"/>
       </defs>
       <use xlink:href="#DejaVuSans-34"/>
      </g>
     </g>
    </g>
    <g id="ytick_6">
     <g id="line2d_12">
      <g>
       <use xlink:href="#m1f6078601b" x="57.6" y="117.504" style="stroke: #000000; stroke-width: 0.8"/>
      </g>
     </g>
     <g id="text_12">
      <!-- 5 -->
      <g transform="translate(44.2375 121.303219) scale(0.1 -0.1)">
       <defs>
        <path id="DejaVuSans-35" d="M 691 4666 
L 3169 4666 
L 3169 4134 
L 1269 4134 
L 1269 2991 
Q 1406 3038 1543 3061 
Q 1681 3084 1819 3084 
Q 2600 3084 3056 2656 
Q 3513 2228 3513 1497 
Q 3513 744 3044 326 
Q 2575 -91 1722 -91 
Q 1428 -91 1123 -41 
Q 819 9 494 109 
L 494 744 
Q 775 591 1075 516 
Q 1375 441 1709 441 
Q 2250 441 2565 725 
Q 2881 1009 2881 1497 
Q 2881 1984 2565 2268 
Q 2250 2553 1709 2553 
Q 1456 2553 1204 2497 
Q 953 2441 691 2322 
L 691 4666 
z
" transform="scale(0.015625)"/>
       </defs>
       <use xlink:href="#DejaVuSans-35"/>
      </g>
     </g>
    </g>
    <g id="ytick_7">
     <g id="line2d_13">
      <g>
       <use xlink:href="#m1f6078601b" x="57.6" y="79.488" style="stroke: #000000; stroke-width: 0.8"/>
      </g>
     </g>
     <g id="text_13">
      <!-- 6 -->
      <g transform="translate(44.2375 83.287219) scale(0.1 -0.1)">
       <defs>
        <path id="DejaVuSans-36" d="M 2113 2584 
Q 1688 2584 1439 2293 
Q 1191 2003 1191 1497 
Q 1191 994 1439 701 
Q 1688 409 2113 409 
Q 2538 409 2786 701 
Q 3034 994 3034 1497 
Q 3034 2003 2786 2293 
Q 2538 2584 2113 2584 
z
M 3366 4563 
L 3366 3988 
Q 3128 4100 2886 4159 
Q 2644 4219 2406 4219 
Q 1781 4219 1451 3797 
Q 1122 3375 1075 2522 
Q 1259 2794 1537 2939 
Q 1816 3084 2150 3084 
Q 2853 3084 3261 2657 
Q 3669 2231 3669 1497 
Q 3669 778 3244 343 
Q 2819 -91 2113 -91 
Q 1303 -91 875 529 
Q 447 1150 447 2328 
Q 447 3434 972 4092 
Q 1497 4750 2381 4750 
Q 2619 4750 2861 4703 
Q 3103 4656 3366 4563 
z
" transform="scale(0.015625)"/>
       </defs>
       <use xlink:href="#DejaVuSans-36"/>
      </g>
     </g>
    </g>
    <g id="ytick_8">
     <g id="line2d_14">
      <g>
       <use xlink:href="#m1f6078601b" x="57.6" y="41.472" style="stroke: #000000; stroke-width: 0.8"/>
      </g>
     </g>
     <g id="text_14">
      <!-- 7 -->
      <g transform="translate(44.2375 45.271219) scale(0.1 -0.1)">
       <defs>
        <path id="DejaVuSans-37" d="M 525 4666 
L 3525 4666 
L 3525 4397 
L 1831 0 
L 1172 0 
L 2766 4134 
L 525 4134 
L 525 4666 
z
" transform="scale(0.015625)"/>
       </defs>
       <use xlink:href="#DejaVuSans-37"/>
      </g>
     </g>
    </g>
    <g id="text_15">
     <!-- Reproduction number scaling factor -->
     <g transform="translate(38.157812 264.168625) rotate(-90) scale(0.1 -0.1)">
      <defs>
       <path id="DejaVuSans-52" d="M 2841 2188 
Q 3044 2119 3236 1894 
Q 3428 1669 3622 1275 
L 4263 0 
L 3584 0 
L 2988 1197 
Q 2756 1666 2539 1819 
Q 2322 1972 1947 1972 
L 1259 1972 
L 1259 0 
L 628 0 
L 628 4666 
L 2053 4666 
Q 2853 4666 3247 4331 
Q 3641 3997 3641 3322 
Q 3641 2881 3436 2590 
Q 3231 2300 2841 2188 
z
M 1259 4147 
L 1259 2491 
L 2053 2491 
Q 2509 2491 2742 2702 
Q 2975 2913 2975 3322 
Q 2975 3731 2742 3939 
Q 2509 4147 2053 4147 
L 1259 4147 
z
" transform="scale(0.015625)"/>
       <path id="DejaVuSans-72" d="M 2631 2963 
Q 2534 3019 2420 3045 
Q 2306 3072 2169 3072 
Q 1681 3072 1420 2755 
Q 1159 2438 1159 1844 
L 1159 0 
L 581 0 
L 581 3500 
L 1159 3500 
L 1159 2956 
Q 1341 3275 1631 3429 
Q 1922 3584 2338 3584 
Q 2397 3584 2469 3576 
Q 2541 3569 2628 3553 
L 2631 2963 
z
" transform="scale(0.015625)"/>
       <path id="DejaVuSans-64" d="M 2906 2969 
L 2906 4863 
L 3481 4863 
L 3481 0 
L 2906 0 
L 2906 525 
Q 2725 213 2448 61 
Q 2172 -91 1784 -91 
Q 1150 -91 751 415 
Q 353 922 353 1747 
Q 353 2572 751 3078 
Q 1150 3584 1784 3584 
Q 2172 3584 2448 3432 
Q 2725 3281 2906 2969 
z
M 947 1747 
Q 947 1113 1208 752 
Q 1469 391 1925 391 
Q 2381 391 2643 752 
Q 2906 1113 2906 1747 
Q 2906 2381 2643 2742 
Q 2381 3103 1925 3103 
Q 1469 3103 1208 2742 
Q 947 2381 947 1747 
z
" transform="scale(0.015625)"/>
       <path id="DejaVuSans-69" d="M 603 3500 
L 1178 3500 
L 1178 0 
L 603 0 
L 603 3500 
z
M 603 4863 
L 1178 4863 
L 1178 4134 
L 603 4134 
L 603 4863 
z
" transform="scale(0.015625)"/>
       <path id="DejaVuSans-6e" d="M 3513 2113 
L 3513 0 
L 2938 0 
L 2938 2094 
Q 2938 2591 2744 2837 
Q 2550 3084 2163 3084 
Q 1697 3084 1428 2787 
Q 1159 2491 1159 1978 
L 1159 0 
L 581 0 
L 581 3500 
L 1159 3500 
L 1159 2956 
Q 1366 3272 1645 3428 
Q 1925 3584 2291 3584 
Q 2894 3584 3203 3211 
Q 3513 2838 3513 2113 
z
" transform="scale(0.015625)"/>
       <path id="DejaVuSans-6d" d="M 3328 2828 
Q 3544 3216 3844 3400 
Q 4144 3584 4550 3584 
Q 5097 3584 5394 3201 
Q 5691 2819 5691 2113 
L 5691 0 
L 5113 0 
L 5113 2094 
Q 5113 2597 4934 2840 
Q 4756 3084 4391 3084 
Q 3944 3084 3684 2787 
Q 3425 2491 3425 1978 
L 3425 0 
L 2847 0 
L 2847 2094 
Q 2847 2600 2669 2842 
Q 2491 3084 2119 3084 
Q 1678 3084 1418 2786 
Q 1159 2488 1159 1978 
L 1159 0 
L 581 0 
L 581 3500 
L 1159 3500 
L 1159 2956 
Q 1356 3278 1631 3431 
Q 1906 3584 2284 3584 
Q 2666 3584 2933 3390 
Q 3200 3197 3328 2828 
z
" transform="scale(0.015625)"/>
       <path id="DejaVuSans-62" d="M 3116 1747 
Q 3116 2381 2855 2742 
Q 2594 3103 2138 3103 
Q 1681 3103 1420 2742 
Q 1159 2381 1159 1747 
Q 1159 1113 1420 752 
Q 1681 391 2138 391 
Q 2594 391 2855 752 
Q 3116 1113 3116 1747 
z
M 1159 2969 
Q 1341 3281 1617 3432 
Q 1894 3584 2278 3584 
Q 2916 3584 3314 3078 
Q 3713 2572 3713 1747 
Q 3713 922 3314 415 
Q 2916 -91 2278 -91 
Q 1894 -91 1617 61 
Q 1341 213 1159 525 
L 1159 0 
L 581 0 
L 581 4863 
L 1159 4863 
L 1159 2969 
z
" transform="scale(0.015625)"/>
       <path id="DejaVuSans-73" d="M 2834 3397 
L 2834 2853 
Q 2591 2978 2328 3040 
Q 2066 3103 1784 3103 
Q 1356 3103 1142 2972 
Q 928 2841 928 2578 
Q 928 2378 1081 2264 
Q 1234 2150 1697 2047 
L 1894 2003 
Q 2506 1872 2764 1633 
Q 3022 1394 3022 966 
Q 3022 478 2636 193 
Q 2250 -91 1575 -91 
Q 1294 -91 989 -36 
Q 684 19 347 128 
L 347 722 
Q 666 556 975 473 
Q 1284 391 1588 391 
Q 1994 391 2212 530 
Q 2431 669 2431 922 
Q 2431 1156 2273 1281 
Q 2116 1406 1581 1522 
L 1381 1569 
Q 847 1681 609 1914 
Q 372 2147 372 2553 
Q 372 3047 722 3315 
Q 1072 3584 1716 3584 
Q 2034 3584 2315 3537 
Q 2597 3491 2834 3397 
z
" transform="scale(0.015625)"/>
       <path id="DejaVuSans-61" d="M 2194 1759 
Q 1497 1759 1228 1600 
Q 959 1441 959 1056 
Q 959 750 1161 570 
Q 1363 391 1709 391 
Q 2188 391 2477 730 
Q 2766 1069 2766 1631 
L 2766 1759 
L 2194 1759 
z
M 3341 1997 
L 3341 0 
L 2766 0 
L 2766 531 
Q 2569 213 2275 61 
Q 1981 -91 1556 -91 
Q 1019 -91 701 211 
Q 384 513 384 1019 
Q 384 1609 779 1909 
Q 1175 2209 1959 2209 
L 2766 2209 
L 2766 2266 
Q 2766 2663 2505 2880 
Q 2244 3097 1772 3097 
Q 1472 3097 1187 3025 
Q 903 2953 641 2809 
L 641 3341 
Q 956 3463 1253 3523 
Q 1550 3584 1831 3584 
Q 2591 3584 2966 3190 
Q 3341 2797 3341 1997 
z
" transform="scale(0.015625)"/>
       <path id="DejaVuSans-66" d="M 2375 4863 
L 2375 4384 
L 1825 4384 
Q 1516 4384 1395 4259 
Q 1275 4134 1275 3809 
L 1275 3500 
L 2222 3500 
L 2222 3053 
L 1275 3053 
L 1275 0 
L 697 0 
L 697 3053 
L 147 3053 
L 147 3500 
L 697 3500 
L 697 3744 
Q 697 4328 969 4595 
Q 1241 4863 1831 4863 
L 2375 4863 
z
" transform="scale(0.015625)"/>
      </defs>
      <use xlink:href="#DejaVuSans-52"/>
      <use xlink:href="#DejaVuSans-65" transform="translate(64.982422 0)"/>
      <use xlink:href="#DejaVuSans-70" transform="translate(126.505859 0)"/>
      <use xlink:href="#DejaVuSans-72" transform="translate(189.982422 0)"/>
      <use xlink:href="#DejaVuSans-6f" transform="translate(228.845703 0)"/>
      <use xlink:href="#DejaVuSans-64" transform="translate(290.027344 0)"/>
      <use xlink:href="#DejaVuSans-75" transform="translate(353.503906 0)"/>
      <use xlink:href="#DejaVuSans-63" transform="translate(416.882812 0)"/>
      <use xlink:href="#DejaVuSans-74" transform="translate(471.863281 0)"/>
      <use xlink:href="#DejaVuSans-69" transform="translate(511.072266 0)"/>
      <use xlink:href="#DejaVuSans-6f" transform="translate(538.855469 0)"/>
      <use xlink:href="#DejaVuSans-6e" transform="translate(600.037109 0)"/>
      <use xlink:href="#DejaVuSans-20" transform="translate(663.416016 0)"/>
      <use xlink:href="#DejaVuSans-6e" transform="translate(695.203125 0)"/>
      <use xlink:href="#DejaVuSans-75" transform="translate(758.582031 0)"/>
      <use xlink:href="#DejaVuSans-6d" transform="translate(821.960938 0)"/>
      <use xlink:href="#DejaVuSans-62" transform="translate(919.373047 0)"/>
      <use xlink:href="#DejaVuSans-65" transform="translate(982.849609 0)"/>
      <use xlink:href="#DejaVuSans-72" transform="translate(1044.373047 0)"/>
      <use xlink:href="#DejaVuSans-20" transform="translate(1085.486328 0)"/>
      <use xlink:href="#DejaVuSans-73" transform="translate(1117.273438 0)"/>
      <use xlink:href="#DejaVuSans-63" transform="translate(1169.373047 0)"/>
      <use xlink:href="#DejaVuSans-61" transform="translate(1224.353516 0)"/>
      <use xlink:href="#DejaVuSans-6c" transform="translate(1285.632812 0)"/>
      <use xlink:href="#DejaVuSans-69" transform="translate(1313.416016 0)"/>
      <use xlink:href="#DejaVuSans-6e" transform="translate(1341.199219 0)"/>
      <use xlink:href="#DejaVuSans-67" transform="translate(1404.578125 0)"/>
      <use xlink:href="#DejaVuSans-20" transform="translate(1468.054688 0)"/>
      <use xlink:href="#DejaVuSans-66" transform="translate(1499.841797 0)"/>
      <use xlink:href="#DejaVuSans-61" transform="translate(1535.046875 0)"/>
      <use xlink:href="#DejaVuSans-63" transform="translate(1596.326172 0)"/>
      <use xlink:href="#DejaVuSans-74" transform="translate(1651.306641 0)"/>
      <use xlink:href="#DejaVuSans-6f" transform="translate(1690.515625 0)"/>
      <use xlink:href="#DejaVuSans-72" transform="translate(1751.697266 0)"/>
     </g>
    </g>
   </g>
   <g id="line2d_15">
    <path d="M 74.579918 175.134235 
L 76.447896 177.306611 
L 78.315874 185.658549 
L 80.183852 198.741898 
L 82.05183 210.251029 
L 83.919808 220.561572 
L 85.787785 229.779575 
L 87.655763 237.023149 
L 89.523741 243.197052 
L 93.259697 252.816295 
L 95.127674 256.445886 
L 96.995652 258.706257 
L 98.86363 260.083915 
L 100.731608 260.509484 
L 102.599586 260.158715 
L 104.467564 258.956959 
L 106.335541 257.23644 
L 108.203519 254.610846 
L 110.071497 251.297954 
L 111.939475 248.38574 
L 113.807453 244.887576 
L 115.67543 240.527487 
L 119.411386 233.018397 
L 121.279364 230.200129 
L 123.147342 226.966886 
L 125.01532 225.378028 
L 126.883297 222.846604 
L 128.751275 221.599971 
L 130.619253 221.591406 
L 132.487231 221.223815 
L 134.355209 221.472367 
L 136.223187 222.107605 
L 138.091164 221.564538 
L 139.959142 221.599658 
L 141.82712 219.063092 
L 143.695098 214.682618 
L 145.563076 214.250172 
L 147.431053 215.761353 
L 149.299031 216.569595 
L 151.167009 216.468144 
L 153.034987 215.805799 
L 154.902965 214.202099 
L 156.770943 216.216888 
L 158.63892 214.234893 
L 160.506898 210.372129 
L 162.374876 203.496161 
L 164.242854 200.37177 
L 167.978809 195.576493 
L 169.846787 188.987239 
L 171.714765 183.040127 
L 173.582743 176.405113 
L 175.450721 181.528657 
L 177.318699 187.084609 
L 179.186676 201.581554 
L 181.054654 214.600039 
L 182.922632 224.726667 
L 184.79061 234.191472 
L 186.658588 246.056255 
L 188.526566 252.421558 
L 190.394543 253.217631 
L 192.262521 257.748941 
L 194.130499 257.967683 
L 195.998477 256.179641 
L 197.866455 248.956878 
L 203.470388 234.717445 
L 207.206344 219.643956 
L 209.074322 217.528779 
L 210.942299 221.843491 
L 212.810277 222.353137 
L 214.678255 230.078593 
L 216.546233 225.55267 
L 218.414211 233.514296 
L 220.282189 245.212116 
L 222.150166 252.594345 
L 224.018144 255.834836 
L 225.886122 253.627368 
L 227.7541 247.722729 
L 229.622078 241.351012 
L 231.490055 243.977195 
L 233.358033 245.448209 
L 235.226011 250.090547 
L 237.093989 252.674914 
L 238.961967 256.254979 
L 240.829945 258.888649 
L 242.697922 260.066562 
L 244.5659 260.937168 
L 246.433878 258.756801 
L 248.301856 255.415057 
L 250.169834 251.510591 
L 252.037811 248.967526 
L 253.905789 245.313038 
L 255.773767 244.070769 
L 257.641745 243.576711 
L 259.509723 241.065829 
L 263.245678 232.715031 
L 265.113656 231.028735 
L 266.981634 229.86053 
L 268.849612 227.363247 
L 270.71759 226.260578 
L 272.585568 224.104349 
L 274.453545 223.134706 
L 276.321523 220.886148 
L 278.189501 218.314529 
L 280.057479 215.257828 
L 281.925457 213.42676 
L 283.793434 213.867285 
L 285.661412 213.929927 
L 287.52939 213.149039 
L 289.397368 211.839325 
L 291.265346 212.730395 
L 293.133324 213.298407 
L 295.001301 214.026222 
L 296.869279 214.166182 
L 302.473213 211.913537 
L 304.341191 210.835999 
L 306.209168 209.542452 
L 308.077146 207.865884 
L 309.945124 208.217379 
L 311.813102 208.194379 
L 313.68108 208.558956 
L 315.549057 208.674436 
L 317.417035 209.008404 
L 321.152991 209.182829 
L 323.020969 212.169208 
L 324.888947 214.15526 
L 326.756924 215.901521 
L 330.49288 219.96242 
L 336.096813 223.574011 
L 341.700747 227.5598 
L 343.568725 228.108861 
L 347.30468 230.229567 
L 349.172658 231.226741 
L 351.040636 232.507973 
L 352.908614 233.522293 
L 354.776592 234.052937 
L 356.64457 234.761384 
L 360.380525 235.750151 
L 362.248503 236.254689 
L 365.984459 237.62836 
L 367.852436 238.027057 
L 369.720414 239.288511 
L 371.588392 239.700922 
L 373.45637 240.643084 
L 375.324348 241.171544 
L 377.192326 241.507151 
L 379.060303 242.063273 
L 380.928281 242.217078 
L 384.664237 243.275023 
L 386.532215 244.077257 
L 390.26817 245.049684 
L 392.136148 245.323254 
L 394.004126 245.842246 
L 397.740082 246.627633 
L 397.740082 246.627633 
" clip-path="url(#p942ae71a4c)" style="fill: none; stroke: #1f77b4; stroke-width: 1.5; stroke-linecap: square"/>
   </g>
   <g id="patch_3">
    <path d="M 57.6 307.584 
L 57.6 41.472 
" style="fill: none; stroke: #000000; stroke-width: 0.8; stroke-linejoin: miter; stroke-linecap: square"/>
   </g>
   <g id="patch_4">
    <path d="M 414.72 307.584 
L 414.72 41.472 
" style="fill: none; stroke: #000000; stroke-width: 0.8; stroke-linejoin: miter; stroke-linecap: square"/>
   </g>
   <g id="patch_5">
    <path d="M 57.6 307.584 
L 414.72 307.584 
" style="fill: none; stroke: #000000; stroke-width: 0.8; stroke-linejoin: miter; stroke-linecap: square"/>
   </g>
   <g id="patch_6">
    <path d="M 57.6 41.472 
L 414.72 41.472 
" style="fill: none; stroke: #000000; stroke-width: 0.8; stroke-linejoin: miter; stroke-linecap: square"/>
   </g>
  </g>
  <g id="axes_2">
   <g id="patch_7">
    <path d="M 73.832727 307.584 
L 75.32711 307.584 
L 75.32711 272.1024 
L 73.832727 272.1024 
z
" clip-path="url(#p942ae71a4c)" style="fill: #7f7f7f; opacity: 0.5"/>
   </g>
   <g id="patch_8">
    <path d="M 75.700705 307.584 
L 77.195087 307.584 
L 77.195087 272.1024 
L 75.700705 272.1024 
z
" clip-path="url(#p942ae71a4c)" style="fill: #7f7f7f; opacity: 0.5"/>
   </g>
   <g id="patch_9">
    <path d="M 77.568683 307.584 
L 79.063065 307.584 
L 79.063065 272.1024 
L 77.568683 272.1024 
z
" clip-path="url(#p942ae71a4c)" style="fill: #7f7f7f; opacity: 0.5"/>
   </g>
   <g id="patch_10">
    <path d="M 79.436661 307.584 
L 80.931043 307.584 
L 80.931043 307.584 
L 79.436661 307.584 
z
" clip-path="url(#p942ae71a4c)" style="fill: #7f7f7f; opacity: 0.5"/>
   </g>
   <g id="patch_11">
    <path d="M 81.304639 307.584 
L 82.799021 307.584 
L 82.799021 307.584 
L 81.304639 307.584 
z
" clip-path="url(#p942ae71a4c)" style="fill: #7f7f7f; opacity: 0.5"/>
   </g>
   <g id="patch_12">
    <path d="M 83.172616 307.584 
L 84.666999 307.584 
L 84.666999 307.584 
L 83.172616 307.584 
z
" clip-path="url(#p942ae71a4c)" style="fill: #7f7f7f; opacity: 0.5"/>
   </g>
   <g id="patch_13">
    <path d="M 85.040594 307.584 
L 86.534976 307.584 
L 86.534976 307.584 
L 85.040594 307.584 
z
" clip-path="url(#p942ae71a4c)" style="fill: #7f7f7f; opacity: 0.5"/>
   </g>
   <g id="patch_14">
    <path d="M 86.908572 307.584 
L 88.402954 307.584 
L 88.402954 307.584 
L 86.908572 307.584 
z
" clip-path="url(#p942ae71a4c)" style="fill: #7f7f7f; opacity: 0.5"/>
   </g>
   <g id="patch_15">
    <path d="M 88.77655 307.584 
L 90.270932 307.584 
L 90.270932 307.584 
L 88.77655 307.584 
z
" clip-path="url(#p942ae71a4c)" style="fill: #7f7f7f; opacity: 0.5"/>
   </g>
   <g id="patch_16">
    <path d="M 90.644528 307.584 
L 92.13891 307.584 
L 92.13891 289.8432 
L 90.644528 289.8432 
z
" clip-path="url(#p942ae71a4c)" style="fill: #7f7f7f; opacity: 0.5"/>
   </g>
   <g id="patch_17">
    <path d="M 92.512505 307.584 
L 94.006888 307.584 
L 94.006888 307.584 
L 92.512505 307.584 
z
" clip-path="url(#p942ae71a4c)" style="fill: #7f7f7f; opacity: 0.5"/>
   </g>
   <g id="patch_18">
    <path d="M 94.380483 307.584 
L 95.874866 307.584 
L 95.874866 307.584 
L 94.380483 307.584 
z
" clip-path="url(#p942ae71a4c)" style="fill: #7f7f7f; opacity: 0.5"/>
   </g>
   <g id="patch_19">
    <path d="M 96.248461 307.584 
L 97.742843 307.584 
L 97.742843 307.584 
L 96.248461 307.584 
z
" clip-path="url(#p942ae71a4c)" style="fill: #7f7f7f; opacity: 0.5"/>
   </g>
   <g id="patch_20">
    <path d="M 98.116439 307.584 
L 99.610821 307.584 
L 99.610821 307.584 
L 98.116439 307.584 
z
" clip-path="url(#p942ae71a4c)" style="fill: #7f7f7f; opacity: 0.5"/>
   </g>
   <g id="patch_21">
    <path d="M 99.984417 307.584 
L 101.478799 307.584 
L 101.478799 307.584 
L 99.984417 307.584 
z
" clip-path="url(#p942ae71a4c)" style="fill: #7f7f7f; opacity: 0.5"/>
   </g>
   <g id="patch_22">
    <path d="M 101.852395 307.584 
L 103.346777 307.584 
L 103.346777 307.584 
L 101.852395 307.584 
z
" clip-path="url(#p942ae71a4c)" style="fill: #7f7f7f; opacity: 0.5"/>
   </g>
   <g id="patch_23">
    <path d="M 103.720372 307.584 
L 105.214755 307.584 
L 105.214755 307.584 
L 103.720372 307.584 
z
" clip-path="url(#p942ae71a4c)" style="fill: #7f7f7f; opacity: 0.5"/>
   </g>
   <g id="patch_24">
    <path d="M 105.58835 307.584 
L 107.082733 307.584 
L 107.082733 307.584 
L 105.58835 307.584 
z
" clip-path="url(#p942ae71a4c)" style="fill: #7f7f7f; opacity: 0.5"/>
   </g>
   <g id="patch_25">
    <path d="M 107.456328 307.584 
L 108.95071 307.584 
L 108.95071 307.584 
L 107.456328 307.584 
z
" clip-path="url(#p942ae71a4c)" style="fill: #7f7f7f; opacity: 0.5"/>
   </g>
   <g id="patch_26">
    <path d="M 109.324306 307.584 
L 110.818688 307.584 
L 110.818688 289.8432 
L 109.324306 289.8432 
z
" clip-path="url(#p942ae71a4c)" style="fill: #7f7f7f; opacity: 0.5"/>
   </g>
   <g id="patch_27">
    <path d="M 111.192284 307.584 
L 112.686666 307.584 
L 112.686666 307.584 
L 111.192284 307.584 
z
" clip-path="url(#p942ae71a4c)" style="fill: #7f7f7f; opacity: 0.5"/>
   </g>
   <g id="patch_28">
    <path d="M 113.060262 307.584 
L 114.554644 307.584 
L 114.554644 307.584 
L 113.060262 307.584 
z
" clip-path="url(#p942ae71a4c)" style="fill: #7f7f7f; opacity: 0.5"/>
   </g>
   <g id="patch_29">
    <path d="M 114.928239 307.584 
L 116.422622 307.584 
L 116.422622 289.8432 
L 114.928239 289.8432 
z
" clip-path="url(#p942ae71a4c)" style="fill: #7f7f7f; opacity: 0.5"/>
   </g>
   <g id="patch_30">
    <path d="M 116.796217 307.584 
L 118.290599 307.584 
L 118.290599 307.584 
L 116.796217 307.584 
z
" clip-path="url(#p942ae71a4c)" style="fill: #7f7f7f; opacity: 0.5"/>
   </g>
   <g id="patch_31">
    <path d="M 118.664195 307.584 
L 120.158577 307.584 
L 120.158577 289.8432 
L 118.664195 289.8432 
z
" clip-path="url(#p942ae71a4c)" style="fill: #7f7f7f; opacity: 0.5"/>
   </g>
   <g id="patch_32">
    <path d="M 120.532173 307.584 
L 122.026555 307.584 
L 122.026555 307.584 
L 120.532173 307.584 
z
" clip-path="url(#p942ae71a4c)" style="fill: #7f7f7f; opacity: 0.5"/>
   </g>
   <g id="patch_33">
    <path d="M 122.400151 307.584 
L 123.894533 307.584 
L 123.894533 289.8432 
L 122.400151 289.8432 
z
" clip-path="url(#p942ae71a4c)" style="fill: #7f7f7f; opacity: 0.5"/>
   </g>
   <g id="patch_34">
    <path d="M 124.268128 307.584 
L 125.762511 307.584 
L 125.762511 307.584 
L 124.268128 307.584 
z
" clip-path="url(#p942ae71a4c)" style="fill: #7f7f7f; opacity: 0.5"/>
   </g>
   <g id="patch_35">
    <path d="M 126.136106 307.584 
L 127.630489 307.584 
L 127.630489 289.8432 
L 126.136106 289.8432 
z
" clip-path="url(#p942ae71a4c)" style="fill: #7f7f7f; opacity: 0.5"/>
   </g>
   <g id="patch_36">
    <path d="M 128.004084 307.584 
L 129.498466 307.584 
L 129.498466 289.8432 
L 128.004084 289.8432 
z
" clip-path="url(#p942ae71a4c)" style="fill: #7f7f7f; opacity: 0.5"/>
   </g>
   <g id="patch_37">
    <path d="M 129.872062 307.584 
L 131.366444 307.584 
L 131.366444 307.584 
L 129.872062 307.584 
z
" clip-path="url(#p942ae71a4c)" style="fill: #7f7f7f; opacity: 0.5"/>
   </g>
   <g id="patch_38">
    <path d="M 131.74004 307.584 
L 133.234422 307.584 
L 133.234422 289.8432 
L 131.74004 289.8432 
z
" clip-path="url(#p942ae71a4c)" style="fill: #7f7f7f; opacity: 0.5"/>
   </g>
   <g id="patch_39">
    <path d="M 133.608018 307.584 
L 135.1024 307.584 
L 135.1024 289.8432 
L 133.608018 289.8432 
z
" clip-path="url(#p942ae71a4c)" style="fill: #7f7f7f; opacity: 0.5"/>
   </g>
   <g id="patch_40">
    <path d="M 135.475995 307.584 
L 136.970378 307.584 
L 136.970378 307.584 
L 135.475995 307.584 
z
" clip-path="url(#p942ae71a4c)" style="fill: #7f7f7f; opacity: 0.5"/>
   </g>
   <g id="patch_41">
    <path d="M 137.343973 307.584 
L 138.838355 307.584 
L 138.838355 289.8432 
L 137.343973 289.8432 
z
" clip-path="url(#p942ae71a4c)" style="fill: #7f7f7f; opacity: 0.5"/>
   </g>
   <g id="patch_42">
    <path d="M 139.211951 307.584 
L 140.706333 307.584 
L 140.706333 307.584 
L 139.211951 307.584 
z
" clip-path="url(#p942ae71a4c)" style="fill: #7f7f7f; opacity: 0.5"/>
   </g>
   <g id="patch_43">
    <path d="M 141.079929 307.584 
L 142.574311 307.584 
L 142.574311 307.584 
L 141.079929 307.584 
z
" clip-path="url(#p942ae71a4c)" style="fill: #7f7f7f; opacity: 0.5"/>
   </g>
   <g id="patch_44">
    <path d="M 142.947907 307.584 
L 144.442289 307.584 
L 144.442289 254.3616 
L 142.947907 254.3616 
z
" clip-path="url(#p942ae71a4c)" style="fill: #7f7f7f; opacity: 0.5"/>
   </g>
   <g id="patch_45">
    <path d="M 144.815885 307.584 
L 146.310267 307.584 
L 146.310267 272.1024 
L 144.815885 272.1024 
z
" clip-path="url(#p942ae71a4c)" style="fill: #7f7f7f; opacity: 0.5"/>
   </g>
   <g id="patch_46">
    <path d="M 146.683862 307.584 
L 148.178245 307.584 
L 148.178245 289.8432 
L 146.683862 289.8432 
z
" clip-path="url(#p942ae71a4c)" style="fill: #7f7f7f; opacity: 0.5"/>
   </g>
   <g id="patch_47">
    <path d="M 148.55184 307.584 
L 150.046222 307.584 
L 150.046222 289.8432 
L 148.55184 289.8432 
z
" clip-path="url(#p942ae71a4c)" style="fill: #7f7f7f; opacity: 0.5"/>
   </g>
   <g id="patch_48">
    <path d="M 150.419818 307.584 
L 151.9142 307.584 
L 151.9142 289.8432 
L 150.419818 289.8432 
z
" clip-path="url(#p942ae71a4c)" style="fill: #7f7f7f; opacity: 0.5"/>
   </g>
   <g id="patch_49">
    <path d="M 152.287796 307.584 
L 153.782178 307.584 
L 153.782178 289.8432 
L 152.287796 289.8432 
z
" clip-path="url(#p942ae71a4c)" style="fill: #7f7f7f; opacity: 0.5"/>
   </g>
   <g id="patch_50">
    <path d="M 154.155774 307.584 
L 155.650156 307.584 
L 155.650156 254.3616 
L 154.155774 254.3616 
z
" clip-path="url(#p942ae71a4c)" style="fill: #7f7f7f; opacity: 0.5"/>
   </g>
   <g id="patch_51">
    <path d="M 156.023751 307.584 
L 157.518134 307.584 
L 157.518134 307.584 
L 156.023751 307.584 
z
" clip-path="url(#p942ae71a4c)" style="fill: #7f7f7f; opacity: 0.5"/>
   </g>
   <g id="patch_52">
    <path d="M 157.891729 307.584 
L 159.386112 307.584 
L 159.386112 289.8432 
L 157.891729 289.8432 
z
" clip-path="url(#p942ae71a4c)" style="fill: #7f7f7f; opacity: 0.5"/>
   </g>
   <g id="patch_53">
    <path d="M 159.759707 307.584 
L 161.254089 307.584 
L 161.254089 289.8432 
L 159.759707 289.8432 
z
" clip-path="url(#p942ae71a4c)" style="fill: #7f7f7f; opacity: 0.5"/>
   </g>
   <g id="patch_54">
    <path d="M 161.627685 307.584 
L 163.122067 307.584 
L 163.122067 236.6208 
L 161.627685 236.6208 
z
" clip-path="url(#p942ae71a4c)" style="fill: #7f7f7f; opacity: 0.5"/>
   </g>
   <g id="patch_55">
    <path d="M 163.495663 307.584 
L 164.990045 307.584 
L 164.990045 254.3616 
L 163.495663 254.3616 
z
" clip-path="url(#p942ae71a4c)" style="fill: #7f7f7f; opacity: 0.5"/>
   </g>
   <g id="patch_56">
    <path d="M 165.363641 307.584 
L 166.858023 307.584 
L 166.858023 254.3616 
L 165.363641 254.3616 
z
" clip-path="url(#p942ae71a4c)" style="fill: #7f7f7f; opacity: 0.5"/>
   </g>
   <g id="patch_57">
    <path d="M 167.231618 307.584 
L 168.726001 307.584 
L 168.726001 272.1024 
L 167.231618 272.1024 
z
" clip-path="url(#p942ae71a4c)" style="fill: #7f7f7f; opacity: 0.5"/>
   </g>
   <g id="patch_58">
    <path d="M 169.099596 307.584 
L 170.593978 307.584 
L 170.593978 236.6208 
L 169.099596 236.6208 
z
" clip-path="url(#p942ae71a4c)" style="fill: #7f7f7f; opacity: 0.5"/>
   </g>
   <g id="patch_59">
    <path d="M 170.967574 307.584 
L 172.461956 307.584 
L 172.461956 236.6208 
L 170.967574 236.6208 
z
" clip-path="url(#p942ae71a4c)" style="fill: #7f7f7f; opacity: 0.5"/>
   </g>
   <g id="patch_60">
    <path d="M 172.835552 307.584 
L 174.329934 307.584 
L 174.329934 165.6576 
L 172.835552 165.6576 
z
" clip-path="url(#p942ae71a4c)" style="fill: #7f7f7f; opacity: 0.5"/>
   </g>
   <g id="patch_61">
    <path d="M 174.70353 307.584 
L 176.197912 307.584 
L 176.197912 218.88 
L 174.70353 218.88 
z
" clip-path="url(#p942ae71a4c)" style="fill: #7f7f7f; opacity: 0.5"/>
   </g>
   <g id="patch_62">
    <path d="M 176.571507 307.584 
L 178.06589 307.584 
L 178.06589 165.6576 
L 176.571507 165.6576 
z
" clip-path="url(#p942ae71a4c)" style="fill: #7f7f7f; opacity: 0.5"/>
   </g>
   <g id="patch_63">
    <path d="M 178.439485 307.584 
L 179.933868 307.584 
L 179.933868 218.88 
L 178.439485 218.88 
z
" clip-path="url(#p942ae71a4c)" style="fill: #7f7f7f; opacity: 0.5"/>
   </g>
   <g id="patch_64">
    <path d="M 180.307463 307.584 
L 181.801845 307.584 
L 181.801845 236.6208 
L 180.307463 236.6208 
z
" clip-path="url(#p942ae71a4c)" style="fill: #7f7f7f; opacity: 0.5"/>
   </g>
   <g id="patch_65">
    <path d="M 182.175441 307.584 
L 183.669823 307.584 
L 183.669823 218.88 
L 182.175441 218.88 
z
" clip-path="url(#p942ae71a4c)" style="fill: #7f7f7f; opacity: 0.5"/>
   </g>
   <g id="patch_66">
    <path d="M 184.043419 307.584 
L 185.537801 307.584 
L 185.537801 183.3984 
L 184.043419 183.3984 
z
" clip-path="url(#p942ae71a4c)" style="fill: #7f7f7f; opacity: 0.5"/>
   </g>
   <g id="patch_67">
    <path d="M 185.911397 307.584 
L 187.405779 307.584 
L 187.405779 272.1024 
L 185.911397 272.1024 
z
" clip-path="url(#p942ae71a4c)" style="fill: #7f7f7f; opacity: 0.5"/>
   </g>
   <g id="patch_68">
    <path d="M 187.779374 307.584 
L 189.273757 307.584 
L 189.273757 289.8432 
L 187.779374 289.8432 
z
" clip-path="url(#p942ae71a4c)" style="fill: #7f7f7f; opacity: 0.5"/>
   </g>
   <g id="patch_69">
    <path d="M 189.647352 307.584 
L 191.141734 307.584 
L 191.141734 165.6576 
L 189.647352 165.6576 
z
" clip-path="url(#p942ae71a4c)" style="fill: #7f7f7f; opacity: 0.5"/>
   </g>
   <g id="patch_70">
    <path d="M 191.51533 307.584 
L 193.009712 307.584 
L 193.009712 272.1024 
L 191.51533 272.1024 
z
" clip-path="url(#p942ae71a4c)" style="fill: #7f7f7f; opacity: 0.5"/>
   </g>
   <g id="patch_71">
    <path d="M 193.383308 307.584 
L 194.87769 307.584 
L 194.87769 236.6208 
L 193.383308 236.6208 
z
" clip-path="url(#p942ae71a4c)" style="fill: #7f7f7f; opacity: 0.5"/>
   </g>
   <g id="patch_72">
    <path d="M 195.251286 307.584 
L 196.745668 307.584 
L 196.745668 272.1024 
L 195.251286 272.1024 
z
" clip-path="url(#p942ae71a4c)" style="fill: #7f7f7f; opacity: 0.5"/>
   </g>
   <g id="patch_73">
    <path d="M 197.119264 307.584 
L 198.613646 307.584 
L 198.613646 147.9168 
L 197.119264 147.9168 
z
" clip-path="url(#p942ae71a4c)" style="fill: #7f7f7f; opacity: 0.5"/>
   </g>
   <g id="patch_74">
    <path d="M 198.987241 307.584 
L 200.481624 307.584 
L 200.481624 165.6576 
L 198.987241 165.6576 
z
" clip-path="url(#p942ae71a4c)" style="fill: #7f7f7f; opacity: 0.5"/>
   </g>
   <g id="patch_75">
    <path d="M 200.855219 307.584 
L 202.349601 307.584 
L 202.349601 165.6576 
L 200.855219 165.6576 
z
" clip-path="url(#p942ae71a4c)" style="fill: #7f7f7f; opacity: 0.5"/>
   </g>
   <g id="patch_76">
    <path d="M 202.723197 307.584 
L 204.217579 307.584 
L 204.217579 183.3984 
L 202.723197 183.3984 
z
" clip-path="url(#p942ae71a4c)" style="fill: #7f7f7f; opacity: 0.5"/>
   </g>
   <g id="patch_77">
    <path d="M 204.591175 307.584 
L 206.085557 307.584 
L 206.085557 147.9168 
L 204.591175 147.9168 
z
" clip-path="url(#p942ae71a4c)" style="fill: #7f7f7f; opacity: 0.5"/>
   </g>
   <g id="patch_78">
    <path d="M 206.459153 307.584 
L 207.953535 307.584 
L 207.953535 94.6944 
L 206.459153 94.6944 
z
" clip-path="url(#p942ae71a4c)" style="fill: #7f7f7f; opacity: 0.5"/>
   </g>
   <g id="patch_79">
    <path d="M 208.32713 307.584 
L 209.821513 307.584 
L 209.821513 94.6944 
L 208.32713 94.6944 
z
" clip-path="url(#p942ae71a4c)" style="fill: #7f7f7f; opacity: 0.5"/>
   </g>
   <g id="patch_80">
    <path d="M 210.195108 307.584 
L 211.689491 307.584 
L 211.689491 183.3984 
L 210.195108 183.3984 
z
" clip-path="url(#p942ae71a4c)" style="fill: #7f7f7f; opacity: 0.5"/>
   </g>
   <g id="patch_81">
    <path d="M 212.063086 307.584 
L 213.557468 307.584 
L 213.557468 94.6944 
L 212.063086 94.6944 
z
" clip-path="url(#p942ae71a4c)" style="fill: #7f7f7f; opacity: 0.5"/>
   </g>
   <g id="patch_82">
    <path d="M 213.931064 307.584 
L 215.425446 307.584 
L 215.425446 272.1024 
L 213.931064 272.1024 
z
" clip-path="url(#p942ae71a4c)" style="fill: #7f7f7f; opacity: 0.5"/>
   </g>
   <g id="patch_83">
    <path d="M 215.799042 307.584 
L 217.293424 307.584 
L 217.293424 41.472 
L 215.799042 41.472 
z
" clip-path="url(#p942ae71a4c)" style="fill: #7f7f7f; opacity: 0.5"/>
   </g>
   <g id="patch_84">
    <path d="M 217.66702 307.584 
L 219.161402 307.584 
L 219.161402 112.4352 
L 217.66702 112.4352 
z
" clip-path="url(#p942ae71a4c)" style="fill: #7f7f7f; opacity: 0.5"/>
   </g>
   <g id="patch_85">
    <path d="M 219.534997 307.584 
L 221.02938 307.584 
L 221.02938 218.88 
L 219.534997 218.88 
z
" clip-path="url(#p942ae71a4c)" style="fill: #7f7f7f; opacity: 0.5"/>
   </g>
   <g id="patch_86">
    <path d="M 221.402975 307.584 
L 222.897357 307.584 
L 222.897357 236.6208 
L 221.402975 236.6208 
z
" clip-path="url(#p942ae71a4c)" style="fill: #7f7f7f; opacity: 0.5"/>
   </g>
   <g id="patch_87">
    <path d="M 223.270953 307.584 
L 224.765335 307.584 
L 224.765335 272.1024 
L 223.270953 272.1024 
z
" clip-path="url(#p942ae71a4c)" style="fill: #7f7f7f; opacity: 0.5"/>
   </g>
   <g id="patch_88">
    <path d="M 225.138931 307.584 
L 226.633313 307.584 
L 226.633313 236.6208 
L 225.138931 236.6208 
z
" clip-path="url(#p942ae71a4c)" style="fill: #7f7f7f; opacity: 0.5"/>
   </g>
   <g id="patch_89">
    <path d="M 227.006909 307.584 
L 228.501291 307.584 
L 228.501291 183.3984 
L 227.006909 183.3984 
z
" clip-path="url(#p942ae71a4c)" style="fill: #7f7f7f; opacity: 0.5"/>
   </g>
   <g id="patch_90">
    <path d="M 228.874886 307.584 
L 230.369269 307.584 
L 230.369269 76.9536 
L 228.874886 76.9536 
z
" clip-path="url(#p942ae71a4c)" style="fill: #7f7f7f; opacity: 0.5"/>
   </g>
   <g id="patch_91">
    <path d="M 230.742864 307.584 
L 232.237247 307.584 
L 232.237247 201.1392 
L 230.742864 201.1392 
z
" clip-path="url(#p942ae71a4c)" style="fill: #7f7f7f; opacity: 0.5"/>
   </g>
   <g id="patch_92">
    <path d="M 232.610842 307.584 
L 234.105224 307.584 
L 234.105224 165.6576 
L 232.610842 165.6576 
z
" clip-path="url(#p942ae71a4c)" style="fill: #7f7f7f; opacity: 0.5"/>
   </g>
   <g id="patch_93">
    <path d="M 234.47882 307.584 
L 235.973202 307.584 
L 235.973202 236.6208 
L 234.47882 236.6208 
z
" clip-path="url(#p942ae71a4c)" style="fill: #7f7f7f; opacity: 0.5"/>
   </g>
   <g id="patch_94">
    <path d="M 236.346798 307.584 
L 237.84118 307.584 
L 237.84118 218.88 
L 236.346798 218.88 
z
" clip-path="url(#p942ae71a4c)" style="fill: #7f7f7f; opacity: 0.5"/>
   </g>
   <g id="patch_95">
    <path d="M 238.214776 307.584 
L 239.709158 307.584 
L 239.709158 254.3616 
L 238.214776 254.3616 
z
" clip-path="url(#p942ae71a4c)" style="fill: #7f7f7f; opacity: 0.5"/>
   </g>
   <g id="patch_96">
    <path d="M 240.082753 307.584 
L 241.577136 307.584 
L 241.577136 272.1024 
L 240.082753 272.1024 
z
" clip-path="url(#p942ae71a4c)" style="fill: #7f7f7f; opacity: 0.5"/>
   </g>
   <g id="patch_97">
    <path d="M 241.950731 307.584 
L 243.445114 307.584 
L 243.445114 272.1024 
L 241.950731 272.1024 
z
" clip-path="url(#p942ae71a4c)" style="fill: #7f7f7f; opacity: 0.5"/>
   </g>
   <g id="patch_98">
    <path d="M 243.818709 307.584 
L 245.313091 307.584 
L 245.313091 307.584 
L 243.818709 307.584 
z
" clip-path="url(#p942ae71a4c)" style="fill: #7f7f7f; opacity: 0.5"/>
   </g>
   <g id="patch_99">
    <path d="M 245.686687 307.584 
L 247.181069 307.584 
L 247.181069 289.8432 
L 245.686687 289.8432 
z
" clip-path="url(#p942ae71a4c)" style="fill: #7f7f7f; opacity: 0.5"/>
   </g>
   <g id="patch_100">
    <path d="M 247.554665 307.584 
L 249.049047 307.584 
L 249.049047 272.1024 
L 247.554665 272.1024 
z
" clip-path="url(#p942ae71a4c)" style="fill: #7f7f7f; opacity: 0.5"/>
   </g>
   <g id="patch_101">
    <path d="M 249.422643 307.584 
L 250.917025 307.584 
L 250.917025 254.3616 
L 249.422643 254.3616 
z
" clip-path="url(#p942ae71a4c)" style="fill: #7f7f7f; opacity: 0.5"/>
   </g>
   <g id="patch_102">
    <path d="M 251.29062 307.584 
L 252.785003 307.584 
L 252.785003 289.8432 
L 251.29062 289.8432 
z
" clip-path="url(#p942ae71a4c)" style="fill: #7f7f7f; opacity: 0.5"/>
   </g>
   <g id="patch_103">
    <path d="M 253.158598 307.584 
L 254.65298 307.584 
L 254.65298 254.3616 
L 253.158598 254.3616 
z
" clip-path="url(#p942ae71a4c)" style="fill: #7f7f7f; opacity: 0.5"/>
   </g>
   <g id="patch_104">
    <path d="M 255.026576 307.584 
L 256.520958 307.584 
L 256.520958 272.1024 
L 255.026576 272.1024 
z
" clip-path="url(#p942ae71a4c)" style="fill: #7f7f7f; opacity: 0.5"/>
   </g>
   <g id="patch_105">
    <path d="M 256.894554 307.584 
L 258.388936 307.584 
L 258.388936 307.584 
L 256.894554 307.584 
z
" clip-path="url(#p942ae71a4c)" style="fill: #7f7f7f; opacity: 0.5"/>
   </g>
   <g id="patch_106">
    <path d="M 258.762532 307.584 
L 260.256914 307.584 
L 260.256914 307.584 
L 258.762532 307.584 
z
" clip-path="url(#p942ae71a4c)" style="fill: #7f7f7f; opacity: 0.5"/>
   </g>
   <g id="patch_107">
    <path d="M 260.630509 307.584 
L 262.124892 307.584 
L 262.124892 289.8432 
L 260.630509 289.8432 
z
" clip-path="url(#p942ae71a4c)" style="fill: #7f7f7f; opacity: 0.5"/>
   </g>
   <g id="patch_108">
    <path d="M 262.498487 307.584 
L 263.99287 307.584 
L 263.99287 272.1024 
L 262.498487 272.1024 
z
" clip-path="url(#p942ae71a4c)" style="fill: #7f7f7f; opacity: 0.5"/>
   </g>
   <g id="patch_109">
    <path d="M 264.366465 307.584 
L 265.860847 307.584 
L 265.860847 289.8432 
L 264.366465 289.8432 
z
" clip-path="url(#p942ae71a4c)" style="fill: #7f7f7f; opacity: 0.5"/>
   </g>
   <g id="patch_110">
    <path d="M 266.234443 307.584 
L 267.728825 307.584 
L 267.728825 307.584 
L 266.234443 307.584 
z
" clip-path="url(#p942ae71a4c)" style="fill: #7f7f7f; opacity: 0.5"/>
   </g>
   <g id="patch_111">
    <path d="M 268.102421 307.584 
L 269.596803 307.584 
L 269.596803 289.8432 
L 268.102421 289.8432 
z
" clip-path="url(#p942ae71a4c)" style="fill: #7f7f7f; opacity: 0.5"/>
   </g>
   <g id="patch_112">
    <path d="M 269.970399 307.584 
L 271.464781 307.584 
L 271.464781 307.584 
L 269.970399 307.584 
z
" clip-path="url(#p942ae71a4c)" style="fill: #7f7f7f; opacity: 0.5"/>
   </g>
   <g id="patch_113">
    <path d="M 271.838376 307.584 
L 273.332759 307.584 
L 273.332759 289.8432 
L 271.838376 289.8432 
z
" clip-path="url(#p942ae71a4c)" style="fill: #7f7f7f; opacity: 0.5"/>
   </g>
   <g id="patch_114">
    <path d="M 273.706354 307.584 
L 275.200736 307.584 
L 275.200736 307.584 
L 273.706354 307.584 
z
" clip-path="url(#p942ae71a4c)" style="fill: #7f7f7f; opacity: 0.5"/>
   </g>
   <g id="patch_115">
    <path d="M 275.574332 307.584 
L 277.068714 307.584 
L 277.068714 307.584 
L 275.574332 307.584 
z
" clip-path="url(#p942ae71a4c)" style="fill: #7f7f7f; opacity: 0.5"/>
   </g>
   <g id="patch_116">
    <path d="M 277.44231 307.584 
L 278.936692 307.584 
L 278.936692 307.584 
L 277.44231 307.584 
z
" clip-path="url(#p942ae71a4c)" style="fill: #7f7f7f; opacity: 0.5"/>
   </g>
   <g id="patch_117">
    <path d="M 279.310288 307.584 
L 280.80467 307.584 
L 280.80467 289.8432 
L 279.310288 289.8432 
z
" clip-path="url(#p942ae71a4c)" style="fill: #7f7f7f; opacity: 0.5"/>
   </g>
   <g id="patch_118">
    <path d="M 281.178266 307.584 
L 282.672648 307.584 
L 282.672648 289.8432 
L 281.178266 289.8432 
z
" clip-path="url(#p942ae71a4c)" style="fill: #7f7f7f; opacity: 0.5"/>
   </g>
   <g id="patch_119">
    <path d="M 283.046243 307.584 
L 284.540626 307.584 
L 284.540626 307.584 
L 283.046243 307.584 
z
" clip-path="url(#p942ae71a4c)" style="fill: #7f7f7f; opacity: 0.5"/>
   </g>
   <g id="patch_120">
    <path d="M 284.914221 307.584 
L 286.408603 307.584 
L 286.408603 307.584 
L 284.914221 307.584 
z
" clip-path="url(#p942ae71a4c)" style="fill: #7f7f7f; opacity: 0.5"/>
   </g>
   <g id="patch_121">
    <path d="M 286.782199 307.584 
L 288.276581 307.584 
L 288.276581 307.584 
L 286.782199 307.584 
z
" clip-path="url(#p942ae71a4c)" style="fill: #7f7f7f; opacity: 0.5"/>
   </g>
   <g id="patch_122">
    <path d="M 288.650177 307.584 
L 290.144559 307.584 
L 290.144559 289.8432 
L 288.650177 289.8432 
z
" clip-path="url(#p942ae71a4c)" style="fill: #7f7f7f; opacity: 0.5"/>
   </g>
   <g id="patch_123">
    <path d="M 290.518155 307.584 
L 292.012537 307.584 
L 292.012537 307.584 
L 290.518155 307.584 
z
" clip-path="url(#p942ae71a4c)" style="fill: #7f7f7f; opacity: 0.5"/>
   </g>
   <g id="patch_124">
    <path d="M 292.386132 307.584 
L 293.880515 307.584 
L 293.880515 307.584 
L 292.386132 307.584 
z
" clip-path="url(#p942ae71a4c)" style="fill: #7f7f7f; opacity: 0.5"/>
   </g>
   <g id="patch_125">
    <path d="M 294.25411 307.584 
L 295.748493 307.584 
L 295.748493 307.584 
L 294.25411 307.584 
z
" clip-path="url(#p942ae71a4c)" style="fill: #7f7f7f; opacity: 0.5"/>
   </g>
   <g id="patch_126">
    <path d="M 296.122088 307.584 
L 297.61647 307.584 
L 297.61647 307.584 
L 296.122088 307.584 
z
" clip-path="url(#p942ae71a4c)" style="fill: #7f7f7f; opacity: 0.5"/>
   </g>
   <g id="patch_127">
    <path d="M 297.990066 307.584 
L 299.484448 307.584 
L 299.484448 307.584 
L 297.990066 307.584 
z
" clip-path="url(#p942ae71a4c)" style="fill: #7f7f7f; opacity: 0.5"/>
   </g>
   <g id="patch_128">
    <path d="M 299.858044 307.584 
L 301.352426 307.584 
L 301.352426 307.584 
L 299.858044 307.584 
z
" clip-path="url(#p942ae71a4c)" style="fill: #7f7f7f; opacity: 0.5"/>
   </g>
   <g id="patch_129">
    <path d="M 301.726022 307.584 
L 303.220404 307.584 
L 303.220404 307.584 
L 301.726022 307.584 
z
" clip-path="url(#p942ae71a4c)" style="fill: #7f7f7f; opacity: 0.5"/>
   </g>
   <g id="patch_130">
    <path d="M 303.593999 307.584 
L 305.088382 307.584 
L 305.088382 307.584 
L 303.593999 307.584 
z
" clip-path="url(#p942ae71a4c)" style="fill: #7f7f7f; opacity: 0.5"/>
   </g>
   <g id="patch_131">
    <path d="M 305.461977 307.584 
L 306.956359 307.584 
L 306.956359 307.584 
L 305.461977 307.584 
z
" clip-path="url(#p942ae71a4c)" style="fill: #7f7f7f; opacity: 0.5"/>
   </g>
   <g id="patch_132">
    <path d="M 307.329955 307.584 
L 308.824337 307.584 
L 308.824337 289.8432 
L 307.329955 289.8432 
z
" clip-path="url(#p942ae71a4c)" style="fill: #7f7f7f; opacity: 0.5"/>
   </g>
   <g id="patch_133">
    <path d="M 309.197933 307.584 
L 310.692315 307.584 
L 310.692315 307.584 
L 309.197933 307.584 
z
" clip-path="url(#p942ae71a4c)" style="fill: #7f7f7f; opacity: 0.5"/>
   </g>
   <g id="patch_134">
    <path d="M 311.065911 307.584 
L 312.560293 307.584 
L 312.560293 307.584 
L 311.065911 307.584 
z
" clip-path="url(#p942ae71a4c)" style="fill: #7f7f7f; opacity: 0.5"/>
   </g>
   <g id="patch_135">
    <path d="M 312.933888 307.584 
L 314.428271 307.584 
L 314.428271 307.584 
L 312.933888 307.584 
z
" clip-path="url(#p942ae71a4c)" style="fill: #7f7f7f; opacity: 0.5"/>
   </g>
   <g id="patch_136">
    <path d="M 314.801866 307.584 
L 316.296249 307.584 
L 316.296249 307.584 
L 314.801866 307.584 
z
" clip-path="url(#p942ae71a4c)" style="fill: #7f7f7f; opacity: 0.5"/>
   </g>
   <g id="patch_137">
    <path d="M 316.669844 307.584 
L 318.164226 307.584 
L 318.164226 307.584 
L 316.669844 307.584 
z
" clip-path="url(#p942ae71a4c)" style="fill: #7f7f7f; opacity: 0.5"/>
   </g>
   <g id="patch_138">
    <path d="M 318.537822 307.584 
L 320.032204 307.584 
L 320.032204 307.584 
L 318.537822 307.584 
z
" clip-path="url(#p942ae71a4c)" style="fill: #7f7f7f; opacity: 0.5"/>
   </g>
   <g id="patch_139">
    <path d="M 320.4058 307.584 
L 321.900182 307.584 
L 321.900182 289.8432 
L 320.4058 289.8432 
z
" clip-path="url(#p942ae71a4c)" style="fill: #7f7f7f; opacity: 0.5"/>
   </g>
   <g id="patch_140">
    <path d="M 322.273778 307.584 
L 323.76816 307.584 
L 323.76816 307.584 
L 322.273778 307.584 
z
" clip-path="url(#p942ae71a4c)" style="fill: #7f7f7f; opacity: 0.5"/>
   </g>
   <g id="patch_141">
    <path d="M 324.141755 307.584 
L 325.636138 307.584 
L 325.636138 307.584 
L 324.141755 307.584 
z
" clip-path="url(#p942ae71a4c)" style="fill: #7f7f7f; opacity: 0.5"/>
   </g>
   <g id="patch_142">
    <path d="M 326.009733 307.584 
L 327.504115 307.584 
L 327.504115 307.584 
L 326.009733 307.584 
z
" clip-path="url(#p942ae71a4c)" style="fill: #7f7f7f; opacity: 0.5"/>
   </g>
   <g id="patch_143">
    <path d="M 327.877711 307.584 
L 329.372093 307.584 
L 329.372093 307.584 
L 327.877711 307.584 
z
" clip-path="url(#p942ae71a4c)" style="fill: #7f7f7f; opacity: 0.5"/>
   </g>
   <g id="patch_144">
    <path d="M 329.745689 307.584 
L 331.240071 307.584 
L 331.240071 307.584 
L 329.745689 307.584 
z
" clip-path="url(#p942ae71a4c)" style="fill: #7f7f7f; opacity: 0.5"/>
   </g>
   <g id="patch_145">
    <path d="M 331.613667 307.584 
L 333.108049 307.584 
L 333.108049 307.584 
L 331.613667 307.584 
z
" clip-path="url(#p942ae71a4c)" style="fill: #7f7f7f; opacity: 0.5"/>
   </g>
   <g id="patch_146">
    <path d="M 333.481645 307.584 
L 334.976027 307.584 
L 334.976027 307.584 
L 333.481645 307.584 
z
" clip-path="url(#p942ae71a4c)" style="fill: #7f7f7f; opacity: 0.5"/>
   </g>
   <g id="patch_147">
    <path d="M 335.349622 307.584 
L 336.844005 307.584 
L 336.844005 307.584 
L 335.349622 307.584 
z
" clip-path="url(#p942ae71a4c)" style="fill: #7f7f7f; opacity: 0.5"/>
   </g>
   <g id="patch_148">
    <path d="M 337.2176 307.584 
L 338.711982 307.584 
L 338.711982 307.584 
L 337.2176 307.584 
z
" clip-path="url(#p942ae71a4c)" style="fill: #7f7f7f; opacity: 0.5"/>
   </g>
   <g id="patch_149">
    <path d="M 339.085578 307.584 
L 340.57996 307.584 
L 340.57996 307.584 
L 339.085578 307.584 
z
" clip-path="url(#p942ae71a4c)" style="fill: #7f7f7f; opacity: 0.5"/>
   </g>
   <g id="patch_150">
    <path d="M 340.953556 307.584 
L 342.447938 307.584 
L 342.447938 307.584 
L 340.953556 307.584 
z
" clip-path="url(#p942ae71a4c)" style="fill: #7f7f7f; opacity: 0.5"/>
   </g>
   <g id="patch_151">
    <path d="M 342.821534 307.584 
L 344.315916 307.584 
L 344.315916 307.584 
L 342.821534 307.584 
z
" clip-path="url(#p942ae71a4c)" style="fill: #7f7f7f; opacity: 0.5"/>
   </g>
   <g id="patch_152">
    <path d="M 344.689511 307.584 
L 346.183894 307.584 
L 346.183894 307.584 
L 344.689511 307.584 
z
" clip-path="url(#p942ae71a4c)" style="fill: #7f7f7f; opacity: 0.5"/>
   </g>
   <g id="patch_153">
    <path d="M 346.557489 307.584 
L 348.051872 307.584 
L 348.051872 307.584 
L 346.557489 307.584 
z
" clip-path="url(#p942ae71a4c)" style="fill: #7f7f7f; opacity: 0.5"/>
   </g>
   <g id="patch_154">
    <path d="M 348.425467 307.584 
L 349.919849 307.584 
L 349.919849 307.584 
L 348.425467 307.584 
z
" clip-path="url(#p942ae71a4c)" style="fill: #7f7f7f; opacity: 0.5"/>
   </g>
   <g id="patch_155">
    <path d="M 350.293445 307.584 
L 351.787827 307.584 
L 351.787827 307.584 
L 350.293445 307.584 
z
" clip-path="url(#p942ae71a4c)" style="fill: #7f7f7f; opacity: 0.5"/>
   </g>
   <g id="patch_156">
    <path d="M 352.161423 307.584 
L 353.655805 307.584 
L 353.655805 307.584 
L 352.161423 307.584 
z
" clip-path="url(#p942ae71a4c)" style="fill: #7f7f7f; opacity: 0.5"/>
   </g>
   <g id="patch_157">
    <path d="M 354.029401 307.584 
L 355.523783 307.584 
L 355.523783 307.584 
L 354.029401 307.584 
z
" clip-path="url(#p942ae71a4c)" style="fill: #7f7f7f; opacity: 0.5"/>
   </g>
   <g id="patch_158">
    <path d="M 355.897378 307.584 
L 357.391761 307.584 
L 357.391761 307.584 
L 355.897378 307.584 
z
" clip-path="url(#p942ae71a4c)" style="fill: #7f7f7f; opacity: 0.5"/>
   </g>
   <g id="patch_159">
    <path d="M 357.765356 307.584 
L 359.259738 307.584 
L 359.259738 307.584 
L 357.765356 307.584 
z
" clip-path="url(#p942ae71a4c)" style="fill: #7f7f7f; opacity: 0.5"/>
   </g>
   <g id="patch_160">
    <path d="M 359.633334 307.584 
L 361.127716 307.584 
L 361.127716 307.584 
L 359.633334 307.584 
z
" clip-path="url(#p942ae71a4c)" style="fill: #7f7f7f; opacity: 0.5"/>
   </g>
   <g id="patch_161">
    <path d="M 361.501312 307.584 
L 362.995694 307.584 
L 362.995694 307.584 
L 361.501312 307.584 
z
" clip-path="url(#p942ae71a4c)" style="fill: #7f7f7f; opacity: 0.5"/>
   </g>
   <g id="patch_162">
    <path d="M 363.36929 307.584 
L 364.863672 307.584 
L 364.863672 307.584 
L 363.36929 307.584 
z
" clip-path="url(#p942ae71a4c)" style="fill: #7f7f7f; opacity: 0.5"/>
   </g>
   <g id="patch_163">
    <path d="M 365.237267 307.584 
L 366.73165 307.584 
L 366.73165 307.584 
L 365.237267 307.584 
z
" clip-path="url(#p942ae71a4c)" style="fill: #7f7f7f; opacity: 0.5"/>
   </g>
   <g id="patch_164">
    <path d="M 367.105245 307.584 
L 368.599628 307.584 
L 368.599628 307.584 
L 367.105245 307.584 
z
" clip-path="url(#p942ae71a4c)" style="fill: #7f7f7f; opacity: 0.5"/>
   </g>
   <g id="patch_165">
    <path d="M 368.973223 307.584 
L 370.467605 307.584 
L 370.467605 307.584 
L 368.973223 307.584 
z
" clip-path="url(#p942ae71a4c)" style="fill: #7f7f7f; opacity: 0.5"/>
   </g>
   <g id="patch_166">
    <path d="M 370.841201 307.584 
L 372.335583 307.584 
L 372.335583 307.584 
L 370.841201 307.584 
z
" clip-path="url(#p942ae71a4c)" style="fill: #7f7f7f; opacity: 0.5"/>
   </g>
   <g id="patch_167">
    <path d="M 372.709179 307.584 
L 374.203561 307.584 
L 374.203561 307.584 
L 372.709179 307.584 
z
" clip-path="url(#p942ae71a4c)" style="fill: #7f7f7f; opacity: 0.5"/>
   </g>
   <g id="patch_168">
    <path d="M 374.577157 307.584 
L 376.071539 307.584 
L 376.071539 307.584 
L 374.577157 307.584 
z
" clip-path="url(#p942ae71a4c)" style="fill: #7f7f7f; opacity: 0.5"/>
   </g>
   <g id="patch_169">
    <path d="M 376.445134 307.584 
L 377.939517 307.584 
L 377.939517 307.584 
L 376.445134 307.584 
z
" clip-path="url(#p942ae71a4c)" style="fill: #7f7f7f; opacity: 0.5"/>
   </g>
   <g id="patch_170">
    <path d="M 378.313112 307.584 
L 379.807495 307.584 
L 379.807495 307.584 
L 378.313112 307.584 
z
" clip-path="url(#p942ae71a4c)" style="fill: #7f7f7f; opacity: 0.5"/>
   </g>
   <g id="patch_171">
    <path d="M 380.18109 307.584 
L 381.675472 307.584 
L 381.675472 307.584 
L 380.18109 307.584 
z
" clip-path="url(#p942ae71a4c)" style="fill: #7f7f7f; opacity: 0.5"/>
   </g>
   <g id="patch_172">
    <path d="M 382.049068 307.584 
L 383.54345 307.584 
L 383.54345 307.584 
L 382.049068 307.584 
z
" clip-path="url(#p942ae71a4c)" style="fill: #7f7f7f; opacity: 0.5"/>
   </g>
   <g id="patch_173">
    <path d="M 383.917046 307.584 
L 385.411428 307.584 
L 385.411428 307.584 
L 383.917046 307.584 
z
" clip-path="url(#p942ae71a4c)" style="fill: #7f7f7f; opacity: 0.5"/>
   </g>
   <g id="patch_174">
    <path d="M 385.785024 307.584 
L 387.279406 307.584 
L 387.279406 307.584 
L 385.785024 307.584 
z
" clip-path="url(#p942ae71a4c)" style="fill: #7f7f7f; opacity: 0.5"/>
   </g>
   <g id="patch_175">
    <path d="M 387.653001 307.584 
L 389.147384 307.584 
L 389.147384 307.584 
L 387.653001 307.584 
z
" clip-path="url(#p942ae71a4c)" style="fill: #7f7f7f; opacity: 0.5"/>
   </g>
   <g id="patch_176">
    <path d="M 389.520979 307.584 
L 391.015361 307.584 
L 391.015361 307.584 
L 389.520979 307.584 
z
" clip-path="url(#p942ae71a4c)" style="fill: #7f7f7f; opacity: 0.5"/>
   </g>
   <g id="patch_177">
    <path d="M 391.388957 307.584 
L 392.883339 307.584 
L 392.883339 307.584 
L 391.388957 307.584 
z
" clip-path="url(#p942ae71a4c)" style="fill: #7f7f7f; opacity: 0.5"/>
   </g>
   <g id="patch_178">
    <path d="M 393.256935 307.584 
L 394.751317 307.584 
L 394.751317 307.584 
L 393.256935 307.584 
z
" clip-path="url(#p942ae71a4c)" style="fill: #7f7f7f; opacity: 0.5"/>
   </g>
   <g id="patch_179">
    <path d="M 395.124913 307.584 
L 396.619295 307.584 
L 396.619295 307.584 
L 395.124913 307.584 
z
" clip-path="url(#p942ae71a4c)" style="fill: #7f7f7f; opacity: 0.5"/>
   </g>
   <g id="patch_180">
    <path d="M 396.99289 307.584 
L 398.487273 307.584 
L 398.487273 307.584 
L 396.99289 307.584 
z
" clip-path="url(#p942ae71a4c)" style="fill: #7f7f7f; opacity: 0.5"/>
   </g>
   <g id="matplotlib.axis_3">
    <g id="ytick_9">
     <g id="line2d_16">
      <defs>
       <path id="ma9095916ad" d="M 0 0 
L 3.5 0 
" style="stroke: #7f7f7f; stroke-width: 0.8"/>
      </defs>
      <g>
       <use xlink:href="#ma9095916ad" x="414.72" y="307.584" style="fill: #7f7f7f; stroke: #7f7f7f; stroke-width: 0.8"/>
      </g>
     </g>
     <g id="text_16">
      <!-- 0 -->
      <g style="fill: #7f7f7f" transform="translate(421.72 311.383219) scale(0.1 -0.1)">
       <use xlink:href="#DejaVuSans-30"/>
      </g>
     </g>
    </g>
    <g id="ytick_10">
     <g id="line2d_17">
      <g>
       <use xlink:href="#ma9095916ad" x="414.72" y="272.1024" style="fill: #7f7f7f; stroke: #7f7f7f; stroke-width: 0.8"/>
      </g>
     </g>
     <g id="text_17">
      <!-- 2 -->
      <g style="fill: #7f7f7f" transform="translate(421.72 275.901619) scale(0.1 -0.1)">
       <use xlink:href="#DejaVuSans-32"/>
      </g>
     </g>
    </g>
    <g id="ytick_11">
     <g id="line2d_18">
      <g>
       <use xlink:href="#ma9095916ad" x="414.72" y="236.6208" style="fill: #7f7f7f; stroke: #7f7f7f; stroke-width: 0.8"/>
      </g>
     </g>
     <g id="text_18">
      <!-- 4 -->
      <g style="fill: #7f7f7f" transform="translate(421.72 240.420019) scale(0.1 -0.1)">
       <use xlink:href="#DejaVuSans-34"/>
      </g>
     </g>
    </g>
    <g id="ytick_12">
     <g id="line2d_19">
      <g>
       <use xlink:href="#ma9095916ad" x="414.72" y="201.1392" style="fill: #7f7f7f; stroke: #7f7f7f; stroke-width: 0.8"/>
      </g>
     </g>
     <g id="text_19">
      <!-- 6 -->
      <g style="fill: #7f7f7f" transform="translate(421.72 204.938419) scale(0.1 -0.1)">
       <use xlink:href="#DejaVuSans-36"/>
      </g>
     </g>
    </g>
    <g id="ytick_13">
     <g id="line2d_20">
      <g>
       <use xlink:href="#ma9095916ad" x="414.72" y="165.6576" style="fill: #7f7f7f; stroke: #7f7f7f; stroke-width: 0.8"/>
      </g>
     </g>
     <g id="text_20">
      <!-- 8 -->
      <g style="fill: #7f7f7f" transform="translate(421.72 169.456819) scale(0.1 -0.1)">
       <defs>
        <path id="DejaVuSans-38" d="M 2034 2216 
Q 1584 2216 1326 1975 
Q 1069 1734 1069 1313 
Q 1069 891 1326 650 
Q 1584 409 2034 409 
Q 2484 409 2743 651 
Q 3003 894 3003 1313 
Q 3003 1734 2745 1975 
Q 2488 2216 2034 2216 
z
M 1403 2484 
Q 997 2584 770 2862 
Q 544 3141 544 3541 
Q 544 4100 942 4425 
Q 1341 4750 2034 4750 
Q 2731 4750 3128 4425 
Q 3525 4100 3525 3541 
Q 3525 3141 3298 2862 
Q 3072 2584 2669 2484 
Q 3125 2378 3379 2068 
Q 3634 1759 3634 1313 
Q 3634 634 3220 271 
Q 2806 -91 2034 -91 
Q 1263 -91 848 271 
Q 434 634 434 1313 
Q 434 1759 690 2068 
Q 947 2378 1403 2484 
z
M 1172 3481 
Q 1172 3119 1398 2916 
Q 1625 2713 2034 2713 
Q 2441 2713 2670 2916 
Q 2900 3119 2900 3481 
Q 2900 3844 2670 4047 
Q 2441 4250 2034 4250 
Q 1625 4250 1398 4047 
Q 1172 3844 1172 3481 
z
" transform="scale(0.015625)"/>
       </defs>
       <use xlink:href="#DejaVuSans-38"/>
      </g>
     </g>
    </g>
    <g id="ytick_14">
     <g id="line2d_21">
      <g>
       <use xlink:href="#ma9095916ad" x="414.72" y="130.176" style="fill: #7f7f7f; stroke: #7f7f7f; stroke-width: 0.8"/>
      </g>
     </g>
     <g id="text_21">
      <!-- 10 -->
      <g style="fill: #7f7f7f" transform="translate(421.72 133.975219) scale(0.1 -0.1)">
       <use xlink:href="#DejaVuSans-31"/>
       <use xlink:href="#DejaVuSans-30" transform="translate(63.623047 0)"/>
      </g>
     </g>
    </g>
    <g id="ytick_15">
     <g id="line2d_22">
      <g>
       <use xlink:href="#ma9095916ad" x="414.72" y="94.6944" style="fill: #7f7f7f; stroke: #7f7f7f; stroke-width: 0.8"/>
      </g>
     </g>
     <g id="text_22">
      <!-- 12 -->
      <g style="fill: #7f7f7f" transform="translate(421.72 98.493619) scale(0.1 -0.1)">
       <use xlink:href="#DejaVuSans-31"/>
       <use xlink:href="#DejaVuSans-32" transform="translate(63.623047 0)"/>
      </g>
     </g>
    </g>
    <g id="ytick_16">
     <g id="line2d_23">
      <g>
       <use xlink:href="#ma9095916ad" x="414.72" y="59.2128" style="fill: #7f7f7f; stroke: #7f7f7f; stroke-width: 0.8"/>
      </g>
     </g>
     <g id="text_23">
      <!-- 14 -->
      <g style="fill: #7f7f7f" transform="translate(421.72 63.012019) scale(0.1 -0.1)">
       <use xlink:href="#DejaVuSans-31"/>
       <use xlink:href="#DejaVuSans-34" transform="translate(63.623047 0)"/>
      </g>
     </g>
    </g>
    <g id="text_24">
     <!-- Number of cases -->
     <g style="fill: #7f7f7f" transform="translate(446.043438 216.710813) rotate(-90) scale(0.1 -0.1)">
      <use xlink:href="#DejaVuSans-4e"/>
      <use xlink:href="#DejaVuSans-75" transform="translate(74.804688 0)"/>
      <use xlink:href="#DejaVuSans-6d" transform="translate(138.183594 0)"/>
      <use xlink:href="#DejaVuSans-62" transform="translate(235.595703 0)"/>
      <use xlink:href="#DejaVuSans-65" transform="translate(299.072266 0)"/>
      <use xlink:href="#DejaVuSans-72" transform="translate(360.595703 0)"/>
      <use xlink:href="#DejaVuSans-20" transform="translate(401.708984 0)"/>
      <use xlink:href="#DejaVuSans-6f" transform="translate(433.496094 0)"/>
      <use xlink:href="#DejaVuSans-66" transform="translate(494.677734 0)"/>
      <use xlink:href="#DejaVuSans-20" transform="translate(529.882812 0)"/>
      <use xlink:href="#DejaVuSans-63" transform="translate(561.669922 0)"/>
      <use xlink:href="#DejaVuSans-61" transform="translate(616.650391 0)"/>
      <use xlink:href="#DejaVuSans-73" transform="translate(677.929688 0)"/>
      <use xlink:href="#DejaVuSans-65" transform="translate(730.029297 0)"/>
      <use xlink:href="#DejaVuSans-73" transform="translate(791.552734 0)"/>
     </g>
    </g>
   </g>
   <g id="patch_181">
    <path d="M 57.6 307.584 
L 57.6 41.472 
" style="fill: none; stroke: #000000; stroke-width: 0.8; stroke-linejoin: miter; stroke-linecap: square"/>
   </g>
   <g id="patch_182">
    <path d="M 414.72 307.584 
L 414.72 41.472 
" style="fill: none; stroke: #000000; stroke-width: 0.8; stroke-linejoin: miter; stroke-linecap: square"/>
   </g>
   <g id="patch_183">
    <path d="M 57.6 307.584 
L 414.72 307.584 
" style="fill: none; stroke: #000000; stroke-width: 0.8; stroke-linejoin: miter; stroke-linecap: square"/>
   </g>
   <g id="patch_184">
    <path d="M 57.6 41.472 
L 414.72 41.472 
" style="fill: none; stroke: #000000; stroke-width: 0.8; stroke-linejoin: miter; stroke-linecap: square"/>
   </g>
  </g>
 </g>
 <defs>
  <clipPath id="p942ae71a4c">
   <rect x="57.6" y="41.472" width="357.12" height="266.112"/>
  </clipPath>
 </defs>
</svg>
