<?xml version="1.0" encoding="utf-8" standalone="no"?>
<!DOCTYPE svg PUBLIC "-//W3C//DTD SVG 1.1//EN"
  "http://www.w3.org/Graphics/SVG/1.1/DTD/svg11.dtd">
<svg xmlns:xlink="http://www.w3.org/1999/xlink" width="504pt" height="504pt" viewBox="0 0 504 504" xmlns="http://www.w3.org/2000/svg" version="1.1">
 <metadata>
  <rdf:RDF xmlns:dc="http://purl.org/dc/elements/1.1/" xmlns:cc="http://creativecommons.org/ns#" xmlns:rdf="http://www.w3.org/1999/02/22-rdf-syntax-ns#">
   <cc:Work>
    <dc:type rdf:resource="http://purl.org/dc/dcmitype/StillImage"/>
    <dc:date>2026-07-17T10:21:21.552282</dc:date>
    <dc:format>image/svg+xml</dc:format>
    <dc:creator>
     <cc:Agent>
      <dc:title>Matplotlib v3.11.0, https://matplotlib.org/</dc:title>
     </cc:Agent>
    </dc:creator>
   </cc:Work>
  </rdf:RDF>
 </metadata>
 <defs>
  <style type="text/css">*{stroke-linejoin: round; stroke-linecap: butt}</style>
 </defs>
 <g id="figure_1">
  <g id="patch_1">
   <path d="M 0 504 
L 504 504 
L 504 0 
L 0 0 
L 0 504 
z
" style="fill: none"/>
  </g>
  <g id="axes_1">
   <g id="patch_2">
    <path d="M 63 448.56 
L 453.6 448.56 
L 453.6 60.48 
L 63 60.48 
L 63 448.56 
z
" style="fill: none"/>
   </g>
   <g id="matplotlib.axis_1">
    <g id="ytick_1">
     <g id="line2d_1">
      <defs>
       <path id="me0bfce8ba0" d="M 0 0 
L 3.5 0 
" style="stroke: #7f7f7f; stroke-width: 0.8"/>
      </defs>
      <g>
       <use xlink:href="#me0bfce8ba0" x="453.6" y="448.56" style="fill: #7f7f7f; stroke: #7f7f7f; stroke-width: 0.8"/>
      </g>
     </g>
     <g id="text_1">
      <text style="font-size: 16px; font-family: 'Arial', sans-serif; text-anchor: start; fill: #7f7f7f" x="460.6" y="454.384219" transform="rotate(-0 460.6 454.384219)">0</text>
     </g>
    </g>
    <g id="ytick_2">
     <g id="line2d_2">
      <g>
       <use xlink:href="#me0bfce8ba0" x="453.6" y="396.816" style="fill: #7f7f7f; stroke: #7f7f7f; stroke-width: 0.8"/>
      </g>
     </g>
     <g id="text_2">
      <text style="font-size: 16px; font-family: 'Arial', sans-serif; text-anchor: start; fill: #7f7f7f" x="460.6" y="402.640219" transform="rotate(-0 460.6 402.640219)">2</text>
     </g>
    </g>
    <g id="ytick_3">
     <g id="line2d_3">
      <g>
       <use xlink:href="#me0bfce8ba0" x="453.6" y="345.072" style="fill: #7f7f7f; stroke: #7f7f7f; stroke-width: 0.8"/>
      </g>
     </g>
     <g id="text_3">
      <text style="font-size: 16px; font-family: 'Arial', sans-serif; text-anchor: start; fill: #7f7f7f" x="460.6" y="350.896219" transform="rotate(-0 460.6 350.896219)">4</text>
     </g>
    </g>
    <g id="ytick_4">
     <g id="line2d_4">
      <g>
       <use xlink:href="#me0bfce8ba0" x="453.6" y="293.328" style="fill: #7f7f7f; stroke: #7f7f7f; stroke-width: 0.8"/>
      </g>
     </g>
     <g id="text_4">
      <text style="font-size: 16px; font-family: 'Arial', sans-serif; text-anchor: start; fill: #7f7f7f" x="460.6" y="299.152219" transform="rotate(-0 460.6 299.152219)">6</text>
     </g>
    </g>
    <g id="ytick_5">
     <g id="line2d_5">
      <g>
       <use xlink:href="#me0bfce8ba0" x="453.6" y="241.584" style="fill: #7f7f7f; stroke: #7f7f7f; stroke-width: 0.8"/>
      </g>
     </g>
     <g id="text_5">
      <text style="font-size: 16px; font-family: 'Arial', sans-serif; text-anchor: start; fill: #7f7f7f" x="460.6" y="247.408219" transform="rotate(-0 460.6 247.408219)">8</text>
     </g>
    </g>
    <g id="ytick_6">
     <g id="line2d_6">
      <g>
       <use xlink:href="#me0bfce8ba0" x="453.6" y="189.84" style="fill: #7f7f7f; stroke: #7f7f7f; stroke-width: 0.8"/>
      </g>
     </g>
     <g id="text_6">
      <text style="font-size: 16px; font-family: 'Arial', sans-serif; text-anchor: start; fill: #7f7f7f" x="460.6" y="195.664219" transform="rotate(-0 460.6 195.664219)">10</text>
     </g>
    </g>
    <g id="ytick_7">
     <g id="line2d_7">
      <g>
       <use xlink:href="#me0bfce8ba0" x="453.6" y="138.096" style="fill: #7f7f7f; stroke: #7f7f7f; stroke-width: 0.8"/>
      </g>
     </g>
     <g id="text_7">
      <text style="font-size: 16px; font-family: 'Arial', sans-serif; text-anchor: start; fill: #7f7f7f" x="460.6" y="143.920219" transform="rotate(-0 460.6 143.920219)">12</text>
     </g>
    </g>
    <g id="ytick_8">
     <g id="line2d_8">
      <g>
       <use xlink:href="#me0bfce8ba0" x="453.6" y="86.352" style="fill: #7f7f7f; stroke: #7f7f7f; stroke-width: 0.8"/>
      </g>
     </g>
     <g id="text_8">
      <text style="font-size: 16px; font-family: 'Arial', sans-serif; text-anchor: start; fill: #7f7f7f" x="460.6" y="92.176219" transform="rotate(-0 460.6 92.176219)">14</text>
     </g>
    </g>
    <g id="text_9">
     <text style="font-size: 16px; font-family: 'Arial', sans-serif; text-anchor: middle; fill: #7f7f7f" x="494.043438" y="254.52" transform="rotate(-90 494.043438 254.52)">Number of cases</text>
    </g>
   </g>
   <g id="patch_3">
    <path d="M 80.754545 448.56 
L 82.379675 448.56 
L 82.379675 396.816 
L 80.754545 396.816 
z
" clip-path="url(#p05b6dd7f72)" style="fill: #7f7f7f; opacity: 0.5"/>
   </g>
   <g id="patch_4">
    <path d="M 82.785958 448.56 
L 84.411088 448.56 
L 84.411088 396.816 
L 82.785958 396.816 
z
" clip-path="url(#p05b6dd7f72)" style="fill: #7f7f7f; opacity: 0.5"/>
   </g>
   <g id="patch_5">
    <path d="M 84.817371 448.56 
L 86.442501 448.56 
L 86.442501 396.816 
L 84.817371 396.816 
z
" clip-path="url(#p05b6dd7f72)" style="fill: #7f7f7f; opacity: 0.5"/>
   </g>
   <g id="patch_6">
    <path d="M 86.848783 448.56 
L 88.473913 448.56 
L 88.473913 448.56 
L 86.848783 448.56 
z
" clip-path="url(#p05b6dd7f72)" style="fill: #7f7f7f; opacity: 0.5"/>
   </g>
   <g id="patch_7">
    <path d="M 88.880196 448.56 
L 90.505326 448.56 
L 90.505326 448.56 
L 88.880196 448.56 
z
" clip-path="url(#p05b6dd7f72)" style="fill: #7f7f7f; opacity: 0.5"/>
   </g>
   <g id="patch_8">
    <path d="M 90.911608 448.56 
L 92.536738 448.56 
L 92.536738 448.56 
L 90.911608 448.56 
z
" clip-path="url(#p05b6dd7f72)" style="fill: #7f7f7f; opacity: 0.5"/>
   </g>
   <g id="patch_9">
    <path d="M 92.943021 448.56 
L 94.568151 448.56 
L 94.568151 448.56 
L 92.943021 448.56 
z
" clip-path="url(#p05b6dd7f72)" style="fill: #7f7f7f; opacity: 0.5"/>
   </g>
   <g id="patch_10">
    <path d="M 94.974433 448.56 
L 96.599563 448.56 
L 96.599563 448.56 
L 94.974433 448.56 
z
" clip-path="url(#p05b6dd7f72)" style="fill: #7f7f7f; opacity: 0.5"/>
   </g>
   <g id="patch_11">
    <path d="M 97.005846 448.56 
L 98.630976 448.56 
L 98.630976 448.56 
L 97.005846 448.56 
z
" clip-path="url(#p05b6dd7f72)" style="fill: #7f7f7f; opacity: 0.5"/>
   </g>
   <g id="patch_12">
    <path d="M 99.037258 448.56 
L 100.662388 448.56 
L 100.662388 422.688 
L 99.037258 422.688 
z
" clip-path="url(#p05b6dd7f72)" style="fill: #7f7f7f; opacity: 0.5"/>
   </g>
   <g id="patch_13">
    <path d="M 101.068671 448.56 
L 102.693801 448.56 
L 102.693801 448.56 
L 101.068671 448.56 
z
" clip-path="url(#p05b6dd7f72)" style="fill: #7f7f7f; opacity: 0.5"/>
   </g>
   <g id="patch_14">
    <path d="M 103.100083 448.56 
L 104.725213 448.56 
L 104.725213 448.56 
L 103.100083 448.56 
z
" clip-path="url(#p05b6dd7f72)" style="fill: #7f7f7f; opacity: 0.5"/>
   </g>
   <g id="patch_15">
    <path d="M 105.131496 448.56 
L 106.756626 448.56 
L 106.756626 448.56 
L 105.131496 448.56 
z
" clip-path="url(#p05b6dd7f72)" style="fill: #7f7f7f; opacity: 0.5"/>
   </g>
   <g id="patch_16">
    <path d="M 107.162908 448.56 
L 108.788038 448.56 
L 108.788038 448.56 
L 107.162908 448.56 
z
" clip-path="url(#p05b6dd7f72)" style="fill: #7f7f7f; opacity: 0.5"/>
   </g>
   <g id="patch_17">
    <path d="M 109.194321 448.56 
L 110.819451 448.56 
L 110.819451 448.56 
L 109.194321 448.56 
z
" clip-path="url(#p05b6dd7f72)" style="fill: #7f7f7f; opacity: 0.5"/>
   </g>
   <g id="patch_18">
    <path d="M 111.225733 448.56 
L 112.850863 448.56 
L 112.850863 448.56 
L 111.225733 448.56 
z
" clip-path="url(#p05b6dd7f72)" style="fill: #7f7f7f; opacity: 0.5"/>
   </g>
   <g id="patch_19">
    <path d="M 113.257146 448.56 
L 114.882276 448.56 
L 114.882276 448.56 
L 113.257146 448.56 
z
" clip-path="url(#p05b6dd7f72)" style="fill: #7f7f7f; opacity: 0.5"/>
   </g>
   <g id="patch_20">
    <path d="M 115.288558 448.56 
L 116.913688 448.56 
L 116.913688 448.56 
L 115.288558 448.56 
z
" clip-path="url(#p05b6dd7f72)" style="fill: #7f7f7f; opacity: 0.5"/>
   </g>
   <g id="patch_21">
    <path d="M 117.319971 448.56 
L 118.945101 448.56 
L 118.945101 448.56 
L 117.319971 448.56 
z
" clip-path="url(#p05b6dd7f72)" style="fill: #7f7f7f; opacity: 0.5"/>
   </g>
   <g id="patch_22">
    <path d="M 119.351383 448.56 
L 120.976513 448.56 
L 120.976513 422.688 
L 119.351383 422.688 
z
" clip-path="url(#p05b6dd7f72)" style="fill: #7f7f7f; opacity: 0.5"/>
   </g>
   <g id="patch_23">
    <path d="M 121.382796 448.56 
L 123.007926 448.56 
L 123.007926 448.56 
L 121.382796 448.56 
z
" clip-path="url(#p05b6dd7f72)" style="fill: #7f7f7f; opacity: 0.5"/>
   </g>
   <g id="patch_24">
    <path d="M 123.414208 448.56 
L 125.039338 448.56 
L 125.039338 448.56 
L 123.414208 448.56 
z
" clip-path="url(#p05b6dd7f72)" style="fill: #7f7f7f; opacity: 0.5"/>
   </g>
   <g id="patch_25">
    <path d="M 125.445621 448.56 
L 127.070751 448.56 
L 127.070751 422.688 
L 125.445621 422.688 
z
" clip-path="url(#p05b6dd7f72)" style="fill: #7f7f7f; opacity: 0.5"/>
   </g>
   <g id="patch_26">
    <path d="M 127.477033 448.56 
L 129.102164 448.56 
L 129.102164 448.56 
L 127.477033 448.56 
z
" clip-path="url(#p05b6dd7f72)" style="fill: #7f7f7f; opacity: 0.5"/>
   </g>
   <g id="patch_27">
    <path d="M 129.508446 448.56 
L 131.133576 448.56 
L 131.133576 422.688 
L 129.508446 422.688 
z
" clip-path="url(#p05b6dd7f72)" style="fill: #7f7f7f; opacity: 0.5"/>
   </g>
   <g id="patch_28">
    <path d="M 131.539859 448.56 
L 133.164989 448.56 
L 133.164989 448.56 
L 131.539859 448.56 
z
" clip-path="url(#p05b6dd7f72)" style="fill: #7f7f7f; opacity: 0.5"/>
   </g>
   <g id="patch_29">
    <path d="M 133.571271 448.56 
L 135.196401 448.56 
L 135.196401 422.688 
L 133.571271 422.688 
z
" clip-path="url(#p05b6dd7f72)" style="fill: #7f7f7f; opacity: 0.5"/>
   </g>
   <g id="patch_30">
    <path d="M 135.602684 448.56 
L 137.227814 448.56 
L 137.227814 448.56 
L 135.602684 448.56 
z
" clip-path="url(#p05b6dd7f72)" style="fill: #7f7f7f; opacity: 0.5"/>
   </g>
   <g id="patch_31">
    <path d="M 137.634096 448.56 
L 139.259226 448.56 
L 139.259226 422.688 
L 137.634096 422.688 
z
" clip-path="url(#p05b6dd7f72)" style="fill: #7f7f7f; opacity: 0.5"/>
   </g>
   <g id="patch_32">
    <path d="M 139.665509 448.56 
L 141.290639 448.56 
L 141.290639 422.688 
L 139.665509 422.688 
z
" clip-path="url(#p05b6dd7f72)" style="fill: #7f7f7f; opacity: 0.5"/>
   </g>
   <g id="patch_33">
    <path d="M 141.696921 448.56 
L 143.322051 448.56 
L 143.322051 448.56 
L 141.696921 448.56 
z
" clip-path="url(#p05b6dd7f72)" style="fill: #7f7f7f; opacity: 0.5"/>
   </g>
   <g id="patch_34">
    <path d="M 143.728334 448.56 
L 145.353464 448.56 
L 145.353464 422.688 
L 143.728334 422.688 
z
" clip-path="url(#p05b6dd7f72)" style="fill: #7f7f7f; opacity: 0.5"/>
   </g>
   <g id="patch_35">
    <path d="M 145.759746 448.56 
L 147.384876 448.56 
L 147.384876 422.688 
L 145.759746 422.688 
z
" clip-path="url(#p05b6dd7f72)" style="fill: #7f7f7f; opacity: 0.5"/>
   </g>
   <g id="patch_36">
    <path d="M 147.791159 448.56 
L 149.416289 448.56 
L 149.416289 448.56 
L 147.791159 448.56 
z
" clip-path="url(#p05b6dd7f72)" style="fill: #7f7f7f; opacity: 0.5"/>
   </g>
   <g id="patch_37">
    <path d="M 149.822571 448.56 
L 151.447701 448.56 
L 151.447701 422.688 
L 149.822571 422.688 
z
" clip-path="url(#p05b6dd7f72)" style="fill: #7f7f7f; opacity: 0.5"/>
   </g>
   <g id="patch_38">
    <path d="M 151.853984 448.56 
L 153.479114 448.56 
L 153.479114 448.56 
L 151.853984 448.56 
z
" clip-path="url(#p05b6dd7f72)" style="fill: #7f7f7f; opacity: 0.5"/>
   </g>
   <g id="patch_39">
    <path d="M 153.885396 448.56 
L 155.510526 448.56 
L 155.510526 448.56 
L 153.885396 448.56 
z
" clip-path="url(#p05b6dd7f72)" style="fill: #7f7f7f; opacity: 0.5"/>
   </g>
   <g id="patch_40">
    <path d="M 155.916809 448.56 
L 157.541939 448.56 
L 157.541939 370.944 
L 155.916809 370.944 
z
" clip-path="url(#p05b6dd7f72)" style="fill: #7f7f7f; opacity: 0.5"/>
   </g>
   <g id="patch_41">
    <path d="M 157.948221 448.56 
L 159.573351 448.56 
L 159.573351 396.816 
L 157.948221 396.816 
z
" clip-path="url(#p05b6dd7f72)" style="fill: #7f7f7f; opacity: 0.5"/>
   </g>
   <g id="patch_42">
    <path d="M 159.979634 448.56 
L 161.604764 448.56 
L 161.604764 422.688 
L 159.979634 422.688 
z
" clip-path="url(#p05b6dd7f72)" style="fill: #7f7f7f; opacity: 0.5"/>
   </g>
   <g id="patch_43">
    <path d="M 162.011046 448.56 
L 163.636176 448.56 
L 163.636176 422.688 
L 162.011046 422.688 
z
" clip-path="url(#p05b6dd7f72)" style="fill: #7f7f7f; opacity: 0.5"/>
   </g>
   <g id="patch_44">
    <path d="M 164.042459 448.56 
L 165.667589 448.56 
L 165.667589 422.688 
L 164.042459 422.688 
z
" clip-path="url(#p05b6dd7f72)" style="fill: #7f7f7f; opacity: 0.5"/>
   </g>
   <g id="patch_45">
    <path d="M 166.073871 448.56 
L 167.699001 448.56 
L 167.699001 422.688 
L 166.073871 422.688 
z
" clip-path="url(#p05b6dd7f72)" style="fill: #7f7f7f; opacity: 0.5"/>
   </g>
   <g id="patch_46">
    <path d="M 168.105284 448.56 
L 169.730414 448.56 
L 169.730414 370.944 
L 168.105284 370.944 
z
" clip-path="url(#p05b6dd7f72)" style="fill: #7f7f7f; opacity: 0.5"/>
   </g>
   <g id="patch_47">
    <path d="M 170.136696 448.56 
L 171.761827 448.56 
L 171.761827 448.56 
L 170.136696 448.56 
z
" clip-path="url(#p05b6dd7f72)" style="fill: #7f7f7f; opacity: 0.5"/>
   </g>
   <g id="patch_48">
    <path d="M 172.168109 448.56 
L 173.793239 448.56 
L 173.793239 422.688 
L 172.168109 422.688 
z
" clip-path="url(#p05b6dd7f72)" style="fill: #7f7f7f; opacity: 0.5"/>
   </g>
   <g id="patch_49">
    <path d="M 174.199522 448.56 
L 175.824652 448.56 
L 175.824652 422.688 
L 174.199522 422.688 
z
" clip-path="url(#p05b6dd7f72)" style="fill: #7f7f7f; opacity: 0.5"/>
   </g>
   <g id="patch_50">
    <path d="M 176.230934 448.56 
L 177.856064 448.56 
L 177.856064 345.072 
L 176.230934 345.072 
z
" clip-path="url(#p05b6dd7f72)" style="fill: #7f7f7f; opacity: 0.5"/>
   </g>
   <g id="patch_51">
    <path d="M 178.262347 448.56 
L 179.887477 448.56 
L 179.887477 370.944 
L 178.262347 370.944 
z
" clip-path="url(#p05b6dd7f72)" style="fill: #7f7f7f; opacity: 0.5"/>
   </g>
   <g id="patch_52">
    <path d="M 180.293759 448.56 
L 181.918889 448.56 
L 181.918889 370.944 
L 180.293759 370.944 
z
" clip-path="url(#p05b6dd7f72)" style="fill: #7f7f7f; opacity: 0.5"/>
   </g>
   <g id="patch_53">
    <path d="M 182.325172 448.56 
L 183.950302 448.56 
L 183.950302 396.816 
L 182.325172 396.816 
z
" clip-path="url(#p05b6dd7f72)" style="fill: #7f7f7f; opacity: 0.5"/>
   </g>
   <g id="patch_54">
    <path d="M 184.356584 448.56 
L 185.981714 448.56 
L 185.981714 345.072 
L 184.356584 345.072 
z
" clip-path="url(#p05b6dd7f72)" style="fill: #7f7f7f; opacity: 0.5"/>
   </g>
   <g id="patch_55">
    <path d="M 186.387997 448.56 
L 188.013127 448.56 
L 188.013127 345.072 
L 186.387997 345.072 
z
" clip-path="url(#p05b6dd7f72)" style="fill: #7f7f7f; opacity: 0.5"/>
   </g>
   <g id="patch_56">
    <path d="M 188.419409 448.56 
L 190.044539 448.56 
L 190.044539 241.584 
L 188.419409 241.584 
z
" clip-path="url(#p05b6dd7f72)" style="fill: #7f7f7f; opacity: 0.5"/>
   </g>
   <g id="patch_57">
    <path d="M 190.450822 448.56 
L 192.075952 448.56 
L 192.075952 319.2 
L 190.450822 319.2 
z
" clip-path="url(#p05b6dd7f72)" style="fill: #7f7f7f; opacity: 0.5"/>
   </g>
   <g id="patch_58">
    <path d="M 192.482234 448.56 
L 194.107364 448.56 
L 194.107364 241.584 
L 192.482234 241.584 
z
" clip-path="url(#p05b6dd7f72)" style="fill: #7f7f7f; opacity: 0.5"/>
   </g>
   <g id="patch_59">
    <path d="M 194.513647 448.56 
L 196.138777 448.56 
L 196.138777 319.2 
L 194.513647 319.2 
z
" clip-path="url(#p05b6dd7f72)" style="fill: #7f7f7f; opacity: 0.5"/>
   </g>
   <g id="patch_60">
    <path d="M 196.545059 448.56 
L 198.170189 448.56 
L 198.170189 345.072 
L 196.545059 345.072 
z
" clip-path="url(#p05b6dd7f72)" style="fill: #7f7f7f; opacity: 0.5"/>
   </g>
   <g id="patch_61">
    <path d="M 198.576472 448.56 
L 200.201602 448.56 
L 200.201602 319.2 
L 198.576472 319.2 
z
" clip-path="url(#p05b6dd7f72)" style="fill: #7f7f7f; opacity: 0.5"/>
   </g>
   <g id="patch_62">
    <path d="M 200.607884 448.56 
L 202.233014 448.56 
L 202.233014 267.456 
L 200.607884 267.456 
z
" clip-path="url(#p05b6dd7f72)" style="fill: #7f7f7f; opacity: 0.5"/>
   </g>
   <g id="patch_63">
    <path d="M 202.639297 448.56 
L 204.264427 448.56 
L 204.264427 396.816 
L 202.639297 396.816 
z
" clip-path="url(#p05b6dd7f72)" style="fill: #7f7f7f; opacity: 0.5"/>
   </g>
   <g id="patch_64">
    <path d="M 204.670709 448.56 
L 206.295839 448.56 
L 206.295839 422.688 
L 204.670709 422.688 
z
" clip-path="url(#p05b6dd7f72)" style="fill: #7f7f7f; opacity: 0.5"/>
   </g>
   <g id="patch_65">
    <path d="M 206.702122 448.56 
L 208.327252 448.56 
L 208.327252 241.584 
L 206.702122 241.584 
z
" clip-path="url(#p05b6dd7f72)" style="fill: #7f7f7f; opacity: 0.5"/>
   </g>
   <g id="patch_66">
    <path d="M 208.733534 448.56 
L 210.358664 448.56 
L 210.358664 396.816 
L 208.733534 396.816 
z
" clip-path="url(#p05b6dd7f72)" style="fill: #7f7f7f; opacity: 0.5"/>
   </g>
   <g id="patch_67">
    <path d="M 210.764947 448.56 
L 212.390077 448.56 
L 212.390077 345.072 
L 210.764947 345.072 
z
" clip-path="url(#p05b6dd7f72)" style="fill: #7f7f7f; opacity: 0.5"/>
   </g>
   <g id="patch_68">
    <path d="M 212.796359 448.56 
L 214.421489 448.56 
L 214.421489 396.816 
L 212.796359 396.816 
z
" clip-path="url(#p05b6dd7f72)" style="fill: #7f7f7f; opacity: 0.5"/>
   </g>
   <g id="patch_69">
    <path d="M 214.827772 448.56 
L 216.452902 448.56 
L 216.452902 215.712 
L 214.827772 215.712 
z
" clip-path="url(#p05b6dd7f72)" style="fill: #7f7f7f; opacity: 0.5"/>
   </g>
   <g id="patch_70">
    <path d="M 216.859185 448.56 
L 218.484315 448.56 
L 218.484315 241.584 
L 216.859185 241.584 
z
" clip-path="url(#p05b6dd7f72)" style="fill: #7f7f7f; opacity: 0.5"/>
   </g>
   <g id="patch_71">
    <path d="M 218.890597 448.56 
L 220.515727 448.56 
L 220.515727 241.584 
L 218.890597 241.584 
z
" clip-path="url(#p05b6dd7f72)" style="fill: #7f7f7f; opacity: 0.5"/>
   </g>
   <g id="patch_72">
    <path d="M 220.92201 448.56 
L 222.54714 448.56 
L 222.54714 267.456 
L 220.92201 267.456 
z
" clip-path="url(#p05b6dd7f72)" style="fill: #7f7f7f; opacity: 0.5"/>
   </g>
   <g id="patch_73">
    <path d="M 222.953422 448.56 
L 224.578552 448.56 
L 224.578552 215.712 
L 222.953422 215.712 
z
" clip-path="url(#p05b6dd7f72)" style="fill: #7f7f7f; opacity: 0.5"/>
   </g>
   <g id="patch_74">
    <path d="M 224.984835 448.56 
L 226.609965 448.56 
L 226.609965 138.096 
L 224.984835 138.096 
z
" clip-path="url(#p05b6dd7f72)" style="fill: #7f7f7f; opacity: 0.5"/>
   </g>
   <g id="patch_75">
    <path d="M 227.016247 448.56 
L 228.641377 448.56 
L 228.641377 138.096 
L 227.016247 138.096 
z
" clip-path="url(#p05b6dd7f72)" style="fill: #7f7f7f; opacity: 0.5"/>
   </g>
   <g id="patch_76">
    <path d="M 229.04766 448.56 
L 230.67279 448.56 
L 230.67279 267.456 
L 229.04766 267.456 
z
" clip-path="url(#p05b6dd7f72)" style="fill: #7f7f7f; opacity: 0.5"/>
   </g>
   <g id="patch_77">
    <path d="M 231.079072 448.56 
L 232.704202 448.56 
L 232.704202 138.096 
L 231.079072 138.096 
z
" clip-path="url(#p05b6dd7f72)" style="fill: #7f7f7f; opacity: 0.5"/>
   </g>
   <g id="patch_78">
    <path d="M 233.110485 448.56 
L 234.735615 448.56 
L 234.735615 396.816 
L 233.110485 396.816 
z
" clip-path="url(#p05b6dd7f72)" style="fill: #7f7f7f; opacity: 0.5"/>
   </g>
   <g id="patch_79">
    <path d="M 235.141897 448.56 
L 236.767027 448.56 
L 236.767027 60.48 
L 235.141897 60.48 
z
" clip-path="url(#p05b6dd7f72)" style="fill: #7f7f7f; opacity: 0.5"/>
   </g>
   <g id="patch_80">
    <path d="M 237.17331 448.56 
L 238.79844 448.56 
L 238.79844 163.968 
L 237.17331 163.968 
z
" clip-path="url(#p05b6dd7f72)" style="fill: #7f7f7f; opacity: 0.5"/>
   </g>
   <g id="patch_81">
    <path d="M 239.204722 448.56 
L 240.829852 448.56 
L 240.829852 319.2 
L 239.204722 319.2 
z
" clip-path="url(#p05b6dd7f72)" style="fill: #7f7f7f; opacity: 0.5"/>
   </g>
   <g id="patch_82">
    <path d="M 241.236135 448.56 
L 242.861265 448.56 
L 242.861265 345.072 
L 241.236135 345.072 
z
" clip-path="url(#p05b6dd7f72)" style="fill: #7f7f7f; opacity: 0.5"/>
   </g>
   <g id="patch_83">
    <path d="M 243.267547 448.56 
L 244.892677 448.56 
L 244.892677 396.816 
L 243.267547 396.816 
z
" clip-path="url(#p05b6dd7f72)" style="fill: #7f7f7f; opacity: 0.5"/>
   </g>
   <g id="patch_84">
    <path d="M 245.29896 448.56 
L 246.92409 448.56 
L 246.92409 345.072 
L 245.29896 345.072 
z
" clip-path="url(#p05b6dd7f72)" style="fill: #7f7f7f; opacity: 0.5"/>
   </g>
   <g id="patch_85">
    <path d="M 247.330372 448.56 
L 248.955502 448.56 
L 248.955502 267.456 
L 247.330372 267.456 
z
" clip-path="url(#p05b6dd7f72)" style="fill: #7f7f7f; opacity: 0.5"/>
   </g>
   <g id="patch_86">
    <path d="M 249.361785 448.56 
L 250.986915 448.56 
L 250.986915 112.224 
L 249.361785 112.224 
z
" clip-path="url(#p05b6dd7f72)" style="fill: #7f7f7f; opacity: 0.5"/>
   </g>
   <g id="patch_87">
    <path d="M 251.393197 448.56 
L 253.018327 448.56 
L 253.018327 293.328 
L 251.393197 293.328 
z
" clip-path="url(#p05b6dd7f72)" style="fill: #7f7f7f; opacity: 0.5"/>
   </g>
   <g id="patch_88">
    <path d="M 253.42461 448.56 
L 255.04974 448.56 
L 255.04974 241.584 
L 253.42461 241.584 
z
" clip-path="url(#p05b6dd7f72)" style="fill: #7f7f7f; opacity: 0.5"/>
   </g>
   <g id="patch_89">
    <path d="M 255.456022 448.56 
L 257.081152 448.56 
L 257.081152 345.072 
L 255.456022 345.072 
z
" clip-path="url(#p05b6dd7f72)" style="fill: #7f7f7f; opacity: 0.5"/>
   </g>
   <g id="patch_90">
    <path d="M 257.487435 448.56 
L 259.112565 448.56 
L 259.112565 319.2 
L 257.487435 319.2 
z
" clip-path="url(#p05b6dd7f72)" style="fill: #7f7f7f; opacity: 0.5"/>
   </g>
   <g id="patch_91">
    <path d="M 259.518848 448.56 
L 261.143978 448.56 
L 261.143978 370.944 
L 259.518848 370.944 
z
" clip-path="url(#p05b6dd7f72)" style="fill: #7f7f7f; opacity: 0.5"/>
   </g>
   <g id="patch_92">
    <path d="M 261.55026 448.56 
L 263.17539 448.56 
L 263.17539 396.816 
L 261.55026 396.816 
z
" clip-path="url(#p05b6dd7f72)" style="fill: #7f7f7f; opacity: 0.5"/>
   </g>
   <g id="patch_93">
    <path d="M 263.581673 448.56 
L 265.206803 448.56 
L 265.206803 396.816 
L 263.581673 396.816 
z
" clip-path="url(#p05b6dd7f72)" style="fill: #7f7f7f; opacity: 0.5"/>
   </g>
   <g id="patch_94">
    <path d="M 265.613085 448.56 
L 267.238215 448.56 
L 267.238215 448.56 
L 265.613085 448.56 
z
" clip-path="url(#p05b6dd7f72)" style="fill: #7f7f7f; opacity: 0.5"/>
   </g>
   <g id="patch_95">
    <path d="M 267.644498 448.56 
L 269.269628 448.56 
L 269.269628 422.688 
L 267.644498 422.688 
z
" clip-path="url(#p05b6dd7f72)" style="fill: #7f7f7f; opacity: 0.5"/>
   </g>
   <g id="patch_96">
    <path d="M 269.67591 448.56 
L 271.30104 448.56 
L 271.30104 396.816 
L 269.67591 396.816 
z
" clip-path="url(#p05b6dd7f72)" style="fill: #7f7f7f; opacity: 0.5"/>
   </g>
   <g id="patch_97">
    <path d="M 271.707323 448.56 
L 273.332453 448.56 
L 273.332453 370.944 
L 271.707323 370.944 
z
" clip-path="url(#p05b6dd7f72)" style="fill: #7f7f7f; opacity: 0.5"/>
   </g>
   <g id="patch_98">
    <path d="M 273.738735 448.56 
L 275.363865 448.56 
L 275.363865 422.688 
L 273.738735 422.688 
z
" clip-path="url(#p05b6dd7f72)" style="fill: #7f7f7f; opacity: 0.5"/>
   </g>
   <g id="patch_99">
    <path d="M 275.770148 448.56 
L 277.395278 448.56 
L 277.395278 370.944 
L 275.770148 370.944 
z
" clip-path="url(#p05b6dd7f72)" style="fill: #7f7f7f; opacity: 0.5"/>
   </g>
   <g id="patch_100">
    <path d="M 277.80156 448.56 
L 279.42669 448.56 
L 279.42669 396.816 
L 277.80156 396.816 
z
" clip-path="url(#p05b6dd7f72)" style="fill: #7f7f7f; opacity: 0.5"/>
   </g>
   <g id="patch_101">
    <path d="M 279.832973 448.56 
L 281.458103 448.56 
L 281.458103 448.56 
L 279.832973 448.56 
z
" clip-path="url(#p05b6dd7f72)" style="fill: #7f7f7f; opacity: 0.5"/>
   </g>
   <g id="patch_102">
    <path d="M 281.864385 448.56 
L 283.489515 448.56 
L 283.489515 448.56 
L 281.864385 448.56 
z
" clip-path="url(#p05b6dd7f72)" style="fill: #7f7f7f; opacity: 0.5"/>
   </g>
   <g id="patch_103">
    <path d="M 283.895798 448.56 
L 285.520928 448.56 
L 285.520928 422.688 
L 283.895798 422.688 
z
" clip-path="url(#p05b6dd7f72)" style="fill: #7f7f7f; opacity: 0.5"/>
   </g>
   <g id="patch_104">
    <path d="M 285.92721 448.56 
L 287.55234 448.56 
L 287.55234 396.816 
L 285.92721 396.816 
z
" clip-path="url(#p05b6dd7f72)" style="fill: #7f7f7f; opacity: 0.5"/>
   </g>
   <g id="patch_105">
    <path d="M 287.958623 448.56 
L 289.583753 448.56 
L 289.583753 422.688 
L 287.958623 422.688 
z
" clip-path="url(#p05b6dd7f72)" style="fill: #7f7f7f; opacity: 0.5"/>
   </g>
   <g id="patch_106">
    <path d="M 289.990035 448.56 
L 291.615165 448.56 
L 291.615165 448.56 
L 289.990035 448.56 
z
" clip-path="url(#p05b6dd7f72)" style="fill: #7f7f7f; opacity: 0.5"/>
   </g>
   <g id="patch_107">
    <path d="M 292.021448 448.56 
L 293.646578 448.56 
L 293.646578 422.688 
L 292.021448 422.688 
z
" clip-path="url(#p05b6dd7f72)" style="fill: #7f7f7f; opacity: 0.5"/>
   </g>
   <g id="patch_108">
    <path d="M 294.05286 448.56 
L 295.67799 448.56 
L 295.67799 448.56 
L 294.05286 448.56 
z
" clip-path="url(#p05b6dd7f72)" style="fill: #7f7f7f; opacity: 0.5"/>
   </g>
   <g id="patch_109">
    <path d="M 296.084273 448.56 
L 297.709403 448.56 
L 297.709403 422.688 
L 296.084273 422.688 
z
" clip-path="url(#p05b6dd7f72)" style="fill: #7f7f7f; opacity: 0.5"/>
   </g>
   <g id="patch_110">
    <path d="M 298.115685 448.56 
L 299.740815 448.56 
L 299.740815 448.56 
L 298.115685 448.56 
z
" clip-path="url(#p05b6dd7f72)" style="fill: #7f7f7f; opacity: 0.5"/>
   </g>
   <g id="patch_111">
    <path d="M 300.147098 448.56 
L 301.772228 448.56 
L 301.772228 448.56 
L 300.147098 448.56 
z
" clip-path="url(#p05b6dd7f72)" style="fill: #7f7f7f; opacity: 0.5"/>
   </g>
   <g id="patch_112">
    <path d="M 302.178511 448.56 
L 303.803641 448.56 
L 303.803641 448.56 
L 302.178511 448.56 
z
" clip-path="url(#p05b6dd7f72)" style="fill: #7f7f7f; opacity: 0.5"/>
   </g>
   <g id="patch_113">
    <path d="M 304.209923 448.56 
L 305.835053 448.56 
L 305.835053 422.688 
L 304.209923 422.688 
z
" clip-path="url(#p05b6dd7f72)" style="fill: #7f7f7f; opacity: 0.5"/>
   </g>
   <g id="patch_114">
    <path d="M 306.241336 448.56 
L 307.866466 448.56 
L 307.866466 422.688 
L 306.241336 422.688 
z
" clip-path="url(#p05b6dd7f72)" style="fill: #7f7f7f; opacity: 0.5"/>
   </g>
   <g id="patch_115">
    <path d="M 308.272748 448.56 
L 309.897878 448.56 
L 309.897878 448.56 
L 308.272748 448.56 
z
" clip-path="url(#p05b6dd7f72)" style="fill: #7f7f7f; opacity: 0.5"/>
   </g>
   <g id="patch_116">
    <path d="M 310.304161 448.56 
L 311.929291 448.56 
L 311.929291 448.56 
L 310.304161 448.56 
z
" clip-path="url(#p05b6dd7f72)" style="fill: #7f7f7f; opacity: 0.5"/>
   </g>
   <g id="patch_117">
    <path d="M 312.335573 448.56 
L 313.960703 448.56 
L 313.960703 448.56 
L 312.335573 448.56 
z
" clip-path="url(#p05b6dd7f72)" style="fill: #7f7f7f; opacity: 0.5"/>
   </g>
   <g id="patch_118">
    <path d="M 314.366986 448.56 
L 315.992116 448.56 
L 315.992116 422.688 
L 314.366986 422.688 
z
" clip-path="url(#p05b6dd7f72)" style="fill: #7f7f7f; opacity: 0.5"/>
   </g>
   <g id="patch_119">
    <path d="M 316.398398 448.56 
L 318.023528 448.56 
L 318.023528 448.56 
L 316.398398 448.56 
z
" clip-path="url(#p05b6dd7f72)" style="fill: #7f7f7f; opacity: 0.5"/>
   </g>
   <g id="patch_120">
    <path d="M 318.429811 448.56 
L 320.054941 448.56 
L 320.054941 448.56 
L 318.429811 448.56 
z
" clip-path="url(#p05b6dd7f72)" style="fill: #7f7f7f; opacity: 0.5"/>
   </g>
   <g id="patch_121">
    <path d="M 320.461223 448.56 
L 322.086353 448.56 
L 322.086353 448.56 
L 320.461223 448.56 
z
" clip-path="url(#p05b6dd7f72)" style="fill: #7f7f7f; opacity: 0.5"/>
   </g>
   <g id="patch_122">
    <path d="M 322.492636 448.56 
L 324.117766 448.56 
L 324.117766 448.56 
L 322.492636 448.56 
z
" clip-path="url(#p05b6dd7f72)" style="fill: #7f7f7f; opacity: 0.5"/>
   </g>
   <g id="patch_123">
    <path d="M 324.524048 448.56 
L 326.149178 448.56 
L 326.149178 448.56 
L 324.524048 448.56 
z
" clip-path="url(#p05b6dd7f72)" style="fill: #7f7f7f; opacity: 0.5"/>
   </g>
   <g id="patch_124">
    <path d="M 326.555461 448.56 
L 328.180591 448.56 
L 328.180591 448.56 
L 326.555461 448.56 
z
" clip-path="url(#p05b6dd7f72)" style="fill: #7f7f7f; opacity: 0.5"/>
   </g>
   <g id="patch_125">
    <path d="M 328.586873 448.56 
L 330.212003 448.56 
L 330.212003 448.56 
L 328.586873 448.56 
z
" clip-path="url(#p05b6dd7f72)" style="fill: #7f7f7f; opacity: 0.5"/>
   </g>
   <g id="patch_126">
    <path d="M 330.618286 448.56 
L 332.243416 448.56 
L 332.243416 448.56 
L 330.618286 448.56 
z
" clip-path="url(#p05b6dd7f72)" style="fill: #7f7f7f; opacity: 0.5"/>
   </g>
   <g id="patch_127">
    <path d="M 332.649698 448.56 
L 334.274828 448.56 
L 334.274828 448.56 
L 332.649698 448.56 
z
" clip-path="url(#p05b6dd7f72)" style="fill: #7f7f7f; opacity: 0.5"/>
   </g>
   <g id="patch_128">
    <path d="M 334.681111 448.56 
L 336.306241 448.56 
L 336.306241 422.688 
L 334.681111 422.688 
z
" clip-path="url(#p05b6dd7f72)" style="fill: #7f7f7f; opacity: 0.5"/>
   </g>
   <g id="patch_129">
    <path d="M 336.712523 448.56 
L 338.337653 448.56 
L 338.337653 448.56 
L 336.712523 448.56 
z
" clip-path="url(#p05b6dd7f72)" style="fill: #7f7f7f; opacity: 0.5"/>
   </g>
   <g id="patch_130">
    <path d="M 338.743936 448.56 
L 340.369066 448.56 
L 340.369066 448.56 
L 338.743936 448.56 
z
" clip-path="url(#p05b6dd7f72)" style="fill: #7f7f7f; opacity: 0.5"/>
   </g>
   <g id="patch_131">
    <path d="M 340.775348 448.56 
L 342.400478 448.56 
L 342.400478 448.56 
L 340.775348 448.56 
z
" clip-path="url(#p05b6dd7f72)" style="fill: #7f7f7f; opacity: 0.5"/>
   </g>
   <g id="patch_132">
    <path d="M 342.806761 448.56 
L 344.431891 448.56 
L 344.431891 448.56 
L 342.806761 448.56 
z
" clip-path="url(#p05b6dd7f72)" style="fill: #7f7f7f; opacity: 0.5"/>
   </g>
   <g id="patch_133">
    <path d="M 344.838173 448.56 
L 346.463304 448.56 
L 346.463304 448.56 
L 344.838173 448.56 
z
" clip-path="url(#p05b6dd7f72)" style="fill: #7f7f7f; opacity: 0.5"/>
   </g>
   <g id="patch_134">
    <path d="M 346.869586 448.56 
L 348.494716 448.56 
L 348.494716 448.56 
L 346.869586 448.56 
z
" clip-path="url(#p05b6dd7f72)" style="fill: #7f7f7f; opacity: 0.5"/>
   </g>
   <g id="patch_135">
    <path d="M 348.900999 448.56 
L 350.526129 448.56 
L 350.526129 422.688 
L 348.900999 422.688 
z
" clip-path="url(#p05b6dd7f72)" style="fill: #7f7f7f; opacity: 0.5"/>
   </g>
   <g id="patch_136">
    <path d="M 350.932411 448.56 
L 352.557541 448.56 
L 352.557541 448.56 
L 350.932411 448.56 
z
" clip-path="url(#p05b6dd7f72)" style="fill: #7f7f7f; opacity: 0.5"/>
   </g>
   <g id="patch_137">
    <path d="M 352.963824 448.56 
L 354.588954 448.56 
L 354.588954 448.56 
L 352.963824 448.56 
z
" clip-path="url(#p05b6dd7f72)" style="fill: #7f7f7f; opacity: 0.5"/>
   </g>
   <g id="patch_138">
    <path d="M 354.995236 448.56 
L 356.620366 448.56 
L 356.620366 448.56 
L 354.995236 448.56 
z
" clip-path="url(#p05b6dd7f72)" style="fill: #7f7f7f; opacity: 0.5"/>
   </g>
   <g id="patch_139">
    <path d="M 357.026649 448.56 
L 358.651779 448.56 
L 358.651779 448.56 
L 357.026649 448.56 
z
" clip-path="url(#p05b6dd7f72)" style="fill: #7f7f7f; opacity: 0.5"/>
   </g>
   <g id="patch_140">
    <path d="M 359.058061 448.56 
L 360.683191 448.56 
L 360.683191 448.56 
L 359.058061 448.56 
z
" clip-path="url(#p05b6dd7f72)" style="fill: #7f7f7f; opacity: 0.5"/>
   </g>
   <g id="patch_141">
    <path d="M 361.089474 448.56 
L 362.714604 448.56 
L 362.714604 448.56 
L 361.089474 448.56 
z
" clip-path="url(#p05b6dd7f72)" style="fill: #7f7f7f; opacity: 0.5"/>
   </g>
   <g id="patch_142">
    <path d="M 363.120886 448.56 
L 364.746016 448.56 
L 364.746016 448.56 
L 363.120886 448.56 
z
" clip-path="url(#p05b6dd7f72)" style="fill: #7f7f7f; opacity: 0.5"/>
   </g>
   <g id="patch_143">
    <path d="M 365.152299 448.56 
L 366.777429 448.56 
L 366.777429 448.56 
L 365.152299 448.56 
z
" clip-path="url(#p05b6dd7f72)" style="fill: #7f7f7f; opacity: 0.5"/>
   </g>
   <g id="patch_144">
    <path d="M 367.183711 448.56 
L 368.808841 448.56 
L 368.808841 448.56 
L 367.183711 448.56 
z
" clip-path="url(#p05b6dd7f72)" style="fill: #7f7f7f; opacity: 0.5"/>
   </g>
   <g id="patch_145">
    <path d="M 369.215124 448.56 
L 370.840254 448.56 
L 370.840254 448.56 
L 369.215124 448.56 
z
" clip-path="url(#p05b6dd7f72)" style="fill: #7f7f7f; opacity: 0.5"/>
   </g>
   <g id="patch_146">
    <path d="M 371.246536 448.56 
L 372.871666 448.56 
L 372.871666 448.56 
L 371.246536 448.56 
z
" clip-path="url(#p05b6dd7f72)" style="fill: #7f7f7f; opacity: 0.5"/>
   </g>
   <g id="patch_147">
    <path d="M 373.277949 448.56 
L 374.903079 448.56 
L 374.903079 448.56 
L 373.277949 448.56 
z
" clip-path="url(#p05b6dd7f72)" style="fill: #7f7f7f; opacity: 0.5"/>
   </g>
   <g id="patch_148">
    <path d="M 375.309361 448.56 
L 376.934491 448.56 
L 376.934491 448.56 
L 375.309361 448.56 
z
" clip-path="url(#p05b6dd7f72)" style="fill: #7f7f7f; opacity: 0.5"/>
   </g>
   <g id="patch_149">
    <path d="M 377.340774 448.56 
L 378.965904 448.56 
L 378.965904 448.56 
L 377.340774 448.56 
z
" clip-path="url(#p05b6dd7f72)" style="fill: #7f7f7f; opacity: 0.5"/>
   </g>
   <g id="patch_150">
    <path d="M 379.372186 448.56 
L 380.997316 448.56 
L 380.997316 448.56 
L 379.372186 448.56 
z
" clip-path="url(#p05b6dd7f72)" style="fill: #7f7f7f; opacity: 0.5"/>
   </g>
   <g id="patch_151">
    <path d="M 381.403599 448.56 
L 383.028729 448.56 
L 383.028729 448.56 
L 381.403599 448.56 
z
" clip-path="url(#p05b6dd7f72)" style="fill: #7f7f7f; opacity: 0.5"/>
   </g>
   <g id="patch_152">
    <path d="M 383.435011 448.56 
L 385.060141 448.56 
L 385.060141 448.56 
L 383.435011 448.56 
z
" clip-path="url(#p05b6dd7f72)" style="fill: #7f7f7f; opacity: 0.5"/>
   </g>
   <g id="patch_153">
    <path d="M 385.466424 448.56 
L 387.091554 448.56 
L 387.091554 448.56 
L 385.466424 448.56 
z
" clip-path="url(#p05b6dd7f72)" style="fill: #7f7f7f; opacity: 0.5"/>
   </g>
   <g id="patch_154">
    <path d="M 387.497836 448.56 
L 389.122967 448.56 
L 389.122967 448.56 
L 387.497836 448.56 
z
" clip-path="url(#p05b6dd7f72)" style="fill: #7f7f7f; opacity: 0.5"/>
   </g>
   <g id="patch_155">
    <path d="M 389.529249 448.56 
L 391.154379 448.56 
L 391.154379 448.56 
L 389.529249 448.56 
z
" clip-path="url(#p05b6dd7f72)" style="fill: #7f7f7f; opacity: 0.5"/>
   </g>
   <g id="patch_156">
    <path d="M 391.560662 448.56 
L 393.185792 448.56 
L 393.185792 448.56 
L 391.560662 448.56 
z
" clip-path="url(#p05b6dd7f72)" style="fill: #7f7f7f; opacity: 0.5"/>
   </g>
   <g id="patch_157">
    <path d="M 393.592074 448.56 
L 395.217204 448.56 
L 395.217204 448.56 
L 393.592074 448.56 
z
" clip-path="url(#p05b6dd7f72)" style="fill: #7f7f7f; opacity: 0.5"/>
   </g>
   <g id="patch_158">
    <path d="M 395.623487 448.56 
L 397.248617 448.56 
L 397.248617 448.56 
L 395.623487 448.56 
z
" clip-path="url(#p05b6dd7f72)" style="fill: #7f7f7f; opacity: 0.5"/>
   </g>
   <g id="patch_159">
    <path d="M 397.654899 448.56 
L 399.280029 448.56 
L 399.280029 448.56 
L 397.654899 448.56 
z
" clip-path="url(#p05b6dd7f72)" style="fill: #7f7f7f; opacity: 0.5"/>
   </g>
   <g id="patch_160">
    <path d="M 399.686312 448.56 
L 401.311442 448.56 
L 401.311442 448.56 
L 399.686312 448.56 
z
" clip-path="url(#p05b6dd7f72)" style="fill: #7f7f7f; opacity: 0.5"/>
   </g>
   <g id="patch_161">
    <path d="M 401.717724 448.56 
L 403.342854 448.56 
L 403.342854 448.56 
L 401.717724 448.56 
z
" clip-path="url(#p05b6dd7f72)" style="fill: #7f7f7f; opacity: 0.5"/>
   </g>
   <g id="patch_162">
    <path d="M 403.749137 448.56 
L 405.374267 448.56 
L 405.374267 448.56 
L 403.749137 448.56 
z
" clip-path="url(#p05b6dd7f72)" style="fill: #7f7f7f; opacity: 0.5"/>
   </g>
   <g id="patch_163">
    <path d="M 405.780549 448.56 
L 407.405679 448.56 
L 407.405679 448.56 
L 405.780549 448.56 
z
" clip-path="url(#p05b6dd7f72)" style="fill: #7f7f7f; opacity: 0.5"/>
   </g>
   <g id="patch_164">
    <path d="M 407.811962 448.56 
L 409.437092 448.56 
L 409.437092 448.56 
L 407.811962 448.56 
z
" clip-path="url(#p05b6dd7f72)" style="fill: #7f7f7f; opacity: 0.5"/>
   </g>
   <g id="patch_165">
    <path d="M 409.843374 448.56 
L 411.468504 448.56 
L 411.468504 448.56 
L 409.843374 448.56 
z
" clip-path="url(#p05b6dd7f72)" style="fill: #7f7f7f; opacity: 0.5"/>
   </g>
   <g id="patch_166">
    <path d="M 411.874787 448.56 
L 413.499917 448.56 
L 413.499917 448.56 
L 411.874787 448.56 
z
" clip-path="url(#p05b6dd7f72)" style="fill: #7f7f7f; opacity: 0.5"/>
   </g>
   <g id="patch_167">
    <path d="M 413.906199 448.56 
L 415.531329 448.56 
L 415.531329 448.56 
L 413.906199 448.56 
z
" clip-path="url(#p05b6dd7f72)" style="fill: #7f7f7f; opacity: 0.5"/>
   </g>
   <g id="patch_168">
    <path d="M 415.937612 448.56 
L 417.562742 448.56 
L 417.562742 448.56 
L 415.937612 448.56 
z
" clip-path="url(#p05b6dd7f72)" style="fill: #7f7f7f; opacity: 0.5"/>
   </g>
   <g id="patch_169">
    <path d="M 417.969024 448.56 
L 419.594154 448.56 
L 419.594154 448.56 
L 417.969024 448.56 
z
" clip-path="url(#p05b6dd7f72)" style="fill: #7f7f7f; opacity: 0.5"/>
   </g>
   <g id="patch_170">
    <path d="M 420.000437 448.56 
L 421.625567 448.56 
L 421.625567 448.56 
L 420.000437 448.56 
z
" clip-path="url(#p05b6dd7f72)" style="fill: #7f7f7f; opacity: 0.5"/>
   </g>
   <g id="patch_171">
    <path d="M 422.031849 448.56 
L 423.656979 448.56 
L 423.656979 448.56 
L 422.031849 448.56 
z
" clip-path="url(#p05b6dd7f72)" style="fill: #7f7f7f; opacity: 0.5"/>
   </g>
   <g id="patch_172">
    <path d="M 424.063262 448.56 
L 425.688392 448.56 
L 425.688392 448.56 
L 424.063262 448.56 
z
" clip-path="url(#p05b6dd7f72)" style="fill: #7f7f7f; opacity: 0.5"/>
   </g>
   <g id="patch_173">
    <path d="M 426.094674 448.56 
L 427.719804 448.56 
L 427.719804 448.56 
L 426.094674 448.56 
z
" clip-path="url(#p05b6dd7f72)" style="fill: #7f7f7f; opacity: 0.5"/>
   </g>
   <g id="patch_174">
    <path d="M 428.126087 448.56 
L 429.751217 448.56 
L 429.751217 448.56 
L 428.126087 448.56 
z
" clip-path="url(#p05b6dd7f72)" style="fill: #7f7f7f; opacity: 0.5"/>
   </g>
   <g id="patch_175">
    <path d="M 430.157499 448.56 
L 431.782629 448.56 
L 431.782629 448.56 
L 430.157499 448.56 
z
" clip-path="url(#p05b6dd7f72)" style="fill: #7f7f7f; opacity: 0.5"/>
   </g>
   <g id="patch_176">
    <path d="M 432.188912 448.56 
L 433.814042 448.56 
L 433.814042 448.56 
L 432.188912 448.56 
z
" clip-path="url(#p05b6dd7f72)" style="fill: #7f7f7f; opacity: 0.5"/>
   </g>
   <g id="patch_177">
    <path d="M 434.220325 448.56 
L 435.845455 448.56 
L 435.845455 448.56 
L 434.220325 448.56 
z
" clip-path="url(#p05b6dd7f72)" style="fill: #7f7f7f; opacity: 0.5"/>
   </g>
   <g id="patch_178">
    <path d="M 453.6 448.56 
L 453.6 60.48 
" style="fill: none; stroke: #7f7f7f; stroke-width: 0.8; stroke-linejoin: miter; stroke-linecap: square"/>
   </g>
  </g>
  <g id="axes_2">
   <g id="FillBetweenPolyCollection_1">
    <defs>
     <path id="m86920f2cce" d="M 81.56711 -369.482596 
L 81.56711 -290.910184 
L 83.598523 -301.413472 
L 85.629936 -313.167651 
L 87.661348 -323.160524 
L 89.692761 -332.146613 
L 91.724173 -341.136313 
L 93.755586 -350.040291 
L 95.786998 -357.179204 
L 97.818411 -364.542148 
L 99.849823 -371.110032 
L 101.881236 -376.511648 
L 103.912648 -382.182809 
L 105.944061 -386.253456 
L 107.975473 -392.053301 
L 110.006886 -395.932881 
L 112.038298 -398.614136 
L 114.069711 -400.829288 
L 116.101123 -402.320358 
L 118.132536 -403.554787 
L 120.163948 -405.11535 
L 122.195361 -406.092978 
L 124.226773 -406.167227 
L 126.258186 -406.466664 
L 128.289599 -405.396078 
L 130.321011 -405.356766 
L 132.352424 -403.851803 
L 134.383836 -402.855886 
L 136.415249 -401.90614 
L 138.446661 -399.687499 
L 140.478074 -398.699135 
L 142.509486 -397.339501 
L 144.540899 -394.804708 
L 146.572311 -392.742151 
L 148.603724 -390.943126 
L 150.635136 -389.313739 
L 152.666549 -388.4546 
L 154.697961 -386.959555 
L 156.729374 -385.63065 
L 158.760786 -385.130928 
L 160.792199 -384.43718 
L 162.823611 -383.860619 
L 164.855024 -382.957041 
L 166.886436 -383.581248 
L 168.917849 -383.327251 
L 170.949261 -384.089108 
L 172.980674 -384.14007 
L 175.012087 -383.900563 
L 177.043499 -386.088483 
L 179.074912 -386.501521 
L 181.106324 -388.063364 
L 183.137737 -389.960378 
L 185.169149 -391.326317 
L 187.200562 -393.195383 
L 189.231974 -394.287977 
L 191.263387 -395.689816 
L 193.294799 -397.512018 
L 195.326212 -401.062824 
L 197.357624 -402.378926 
L 199.389037 -403.531106 
L 201.420449 -404.198514 
L 203.451862 -405.517048 
L 205.483274 -406.703143 
L 207.514687 -407.888556 
L 209.546099 -409.257736 
L 211.577512 -409.409686 
L 213.608924 -410.04872 
L 215.640337 -410.718745 
L 217.67175 -410.951187 
L 219.703162 -409.584037 
L 221.734575 -407.63494 
L 223.765987 -406.177376 
L 225.7974 -404.020092 
L 227.828812 -400.619209 
L 229.860225 -397.246414 
L 231.891637 -392.197923 
L 233.92305 -386.063132 
L 235.954462 -379.870187 
L 237.985875 -372.358137 
L 240.017287 -364.820168 
L 242.0487 -356.4105 
L 244.080112 -347.408292 
L 246.111525 -338.967034 
L 248.142937 -330.270705 
L 250.17435 -319.683481 
L 252.205762 -308.19856 
L 254.237175 -296.994689 
L 256.268587 -284.473869 
L 258.3 -272.743106 
L 260.331413 -259.817632 
L 262.362825 -247.872141 
L 264.394238 -234.655021 
L 266.42565 -221.21453 
L 268.457063 -208.98295 
L 270.488475 -197.099466 
L 272.519888 -185.526352 
L 274.5513 -175.006887 
L 276.582713 -163.612256 
L 278.614125 -153.096127 
L 280.645538 -142.944288 
L 282.67695 -133.98403 
L 284.708363 -126.552477 
L 286.739775 -119.454465 
L 288.771188 -111.957487 
L 290.8026 -104.559892 
L 292.834013 -98.524572 
L 294.865425 -93.380653 
L 296.896838 -88.745228 
L 298.92825 -83.934796 
L 300.959663 -80.550584 
L 302.991076 -78.551227 
L 305.022488 -75.566561 
L 307.053901 -73.153016 
L 309.085313 -70.539074 
L 311.116726 -68.382045 
L 313.148138 -67.273107 
L 315.179551 -66.004965 
L 317.210963 -64.266563 
L 319.242376 -61.774036 
L 321.273788 -61.218801 
L 323.305201 -60.682332 
L 325.336613 -60.07962 
L 327.368026 -59.9747 
L 329.399438 -60.427669 
L 331.430851 -61.557699 
L 333.462263 -62.091898 
L 335.493676 -63.532487 
L 337.525088 -63.156338 
L 339.556501 -62.524491 
L 341.587913 -61.566411 
L 343.619326 -62.167111 
L 345.650739 -61.397371 
L 347.682151 -61.845842 
L 349.713564 -62.532609 
L 351.744976 -60.537536 
L 353.776389 -58.318881 
L 355.807801 -56.347217 
L 357.839214 -55.474384 
L 359.870626 -55.440477 
L 361.902039 -55.440024 
L 363.933451 -55.440004 
L 365.964864 -55.440004 
L 367.996276 -55.440004 
L 370.027689 -55.440004 
L 372.059101 -55.440004 
L 374.090514 -55.440004 
L 376.121926 -55.440004 
L 378.153339 -55.440004 
L 380.184751 -55.440004 
L 382.216164 -55.440004 
L 384.247576 -55.440004 
L 386.278989 -55.440004 
L 388.310401 -55.440004 
L 390.341814 -55.440004 
L 392.373227 -55.440004 
L 394.404639 -55.440004 
L 396.436052 -55.440004 
L 398.467464 -55.440004 
L 400.498877 -55.440004 
L 402.530289 -55.440004 
L 404.561702 -55.440004 
L 406.593114 -55.440004 
L 408.624527 -55.440004 
L 410.655939 -55.440004 
L 412.687352 -55.440004 
L 414.718764 -55.440004 
L 416.750177 -55.440004 
L 418.781589 -55.440004 
L 420.813002 -55.440004 
L 422.844414 -55.440004 
L 424.875827 -55.440004 
L 426.907239 -55.440004 
L 428.938652 -55.440004 
L 430.970064 -55.440004 
L 433.001477 -55.440004 
L 435.03289 -55.440004 
L 435.03289 -101.226789 
L 435.03289 -101.226789 
L 433.001477 -102.267485 
L 430.970064 -101.76488 
L 428.938652 -102.26285 
L 426.907239 -102.057432 
L 424.875827 -102.492056 
L 422.844414 -102.848102 
L 420.813002 -102.553656 
L 418.781589 -102.186482 
L 416.750177 -102.396986 
L 414.718764 -101.974527 
L 412.687352 -102.715732 
L 410.655939 -103.757031 
L 408.624527 -104.009301 
L 406.593114 -103.525484 
L 404.561702 -103.303289 
L 402.530289 -104.107566 
L 400.498877 -104.431842 
L 398.467464 -104.6086 
L 396.436052 -103.65514 
L 394.404639 -104.274668 
L 392.373227 -105.344704 
L 390.341814 -104.632692 
L 388.310401 -104.97665 
L 386.278989 -105.031726 
L 384.247576 -104.779836 
L 382.216164 -104.044627 
L 380.184751 -104.81059 
L 378.153339 -104.227391 
L 376.121926 -104.831194 
L 374.090514 -103.881057 
L 372.059101 -104.595011 
L 370.027689 -105.631253 
L 367.996276 -106.020419 
L 365.964864 -106.682522 
L 363.933451 -107.100629 
L 361.902039 -107.752822 
L 359.870626 -107.717866 
L 357.839214 -108.665073 
L 355.807801 -108.542357 
L 353.776389 -108.303083 
L 351.744976 -108.048605 
L 349.713564 -108.817656 
L 347.682151 -108.758468 
L 345.650739 -108.592019 
L 343.619326 -108.117829 
L 341.587913 -108.663903 
L 339.556501 -108.934158 
L 337.525088 -110.126473 
L 335.493676 -111.313709 
L 333.462263 -110.829631 
L 331.430851 -110.444002 
L 329.399438 -110.736279 
L 327.368026 -110.584788 
L 325.336613 -110.715796 
L 323.305201 -111.668946 
L 321.273788 -112.977373 
L 319.242376 -114.573524 
L 317.210963 -115.602875 
L 315.179551 -117.394711 
L 313.148138 -119.248232 
L 311.116726 -121.637611 
L 309.085313 -124.141497 
L 307.053901 -127.108198 
L 305.022488 -129.983998 
L 302.991076 -133.344424 
L 300.959663 -137.129997 
L 298.92825 -141.338673 
L 296.896838 -146.877735 
L 294.865425 -152.209894 
L 292.834013 -158.636216 
L 290.8026 -165.614905 
L 288.771188 -173.198743 
L 286.739775 -180.978872 
L 284.708363 -189.714202 
L 282.67695 -199.131682 
L 280.645538 -209.556262 
L 278.614125 -219.217441 
L 276.582713 -231.340883 
L 274.5513 -242.103247 
L 272.519888 -253.80087 
L 270.488475 -265.009697 
L 268.457063 -277.642755 
L 266.42565 -290.581935 
L 264.394238 -302.702357 
L 262.362825 -315.819621 
L 260.331413 -328.535174 
L 258.3 -340.885371 
L 256.268587 -353.954931 
L 254.237175 -366.080599 
L 252.205762 -378.161463 
L 250.17435 -389.05424 
L 248.142937 -399.522909 
L 246.111525 -409.968673 
L 244.080112 -420.163902 
L 242.0487 -429.136565 
L 240.017287 -437.047555 
L 237.985875 -439.677619 
L 235.954462 -439.677624 
L 233.92305 -439.677624 
L 231.891637 -439.677624 
L 229.860225 -439.677624 
L 227.828812 -439.677624 
L 225.7974 -439.677624 
L 223.765987 -439.677624 
L 221.734575 -439.677624 
L 219.703162 -439.677624 
L 217.67175 -439.677624 
L 215.640337 -439.677624 
L 213.608924 -439.677624 
L 211.577512 -439.677624 
L 209.546099 -439.677624 
L 207.514687 -439.677624 
L 205.483274 -439.677624 
L 203.451862 -439.677624 
L 201.420449 -439.677624 
L 199.389037 -439.677624 
L 197.357624 -439.677624 
L 195.326212 -439.677624 
L 193.294799 -439.677624 
L 191.263387 -439.677624 
L 189.231974 -439.677624 
L 187.200562 -439.677624 
L 185.169149 -439.677624 
L 183.137737 -439.677624 
L 181.106324 -439.677624 
L 179.074912 -439.677624 
L 177.043499 -439.677624 
L 175.012087 -439.677624 
L 172.980674 -439.677624 
L 170.949261 -439.677624 
L 168.917849 -439.677624 
L 166.886436 -439.677624 
L 164.855024 -439.677624 
L 162.823611 -439.677624 
L 160.792199 -439.677624 
L 158.760786 -439.677624 
L 156.729374 -439.677624 
L 154.697961 -439.677624 
L 152.666549 -439.677624 
L 150.635136 -439.677624 
L 148.603724 -439.677624 
L 146.572311 -439.677624 
L 144.540899 -439.677624 
L 142.509486 -439.677624 
L 140.478074 -439.677624 
L 138.446661 -439.677624 
L 136.415249 -439.677624 
L 134.383836 -439.677624 
L 132.352424 -439.677624 
L 130.321011 -439.677624 
L 128.289599 -439.677624 
L 126.258186 -439.677624 
L 124.226773 -439.677624 
L 122.195361 -439.677624 
L 120.163948 -439.677624 
L 118.132536 -439.677624 
L 116.101123 -439.677624 
L 114.069711 -439.677624 
L 112.038298 -439.677624 
L 110.006886 -439.677624 
L 107.975473 -439.677624 
L 105.944061 -439.677624 
L 103.912648 -439.677624 
L 101.881236 -439.677624 
L 99.849823 -439.677624 
L 97.818411 -439.673483 
L 95.786998 -433.603105 
L 93.755586 -426.353962 
L 91.724173 -418.87707 
L 89.692761 -409.892838 
L 87.661348 -399.411652 
L 85.629936 -390.024467 
L 83.598523 -379.970314 
L 81.56711 -369.482596 
z
" style="stroke: #1f77b4; stroke-opacity: 0.3"/>
    </defs>
    <g clip-path="url(#p05b6dd7f72)">
     <use xlink:href="#m86920f2cce" x="0" y="504" style="fill: #1f77b4; fill-opacity: 0.3; stroke: #1f77b4; stroke-opacity: 0.3"/>
    </g>
   </g>
   <g id="matplotlib.axis_2">
    <g id="xtick_1">
     <g id="line2d_9">
      <defs>
       <path id="mb157f25f8d" d="M 0 0 
L 0 3.5 
" style="stroke: #000000; stroke-width: 0.8"/>
      </defs>
      <g>
       <use xlink:href="#mb157f25f8d" x="91.724173" y="448.56" style="stroke: #000000; stroke-width: 0.8"/>
      </g>
     </g>
     <g id="text_10">
      <text style="font-size: 16px; font-family: 'Arial', sans-serif; text-anchor: middle" x="91.724173" y="467.208438" transform="rotate(-0 91.724173 467.208438)">1 Jul</text>
     </g>
    </g>
    <g id="xtick_2">
     <g id="line2d_10">
      <g>
       <use xlink:href="#mb157f25f8d" x="154.697961" y="448.56" style="stroke: #000000; stroke-width: 0.8"/>
      </g>
     </g>
     <g id="text_11">
      <text style="font-size: 16px; font-family: 'Arial', sans-serif; text-anchor: middle" x="154.697961" y="467.208438" transform="rotate(-0 154.697961 467.208438)">1 Aug</text>
     </g>
    </g>
    <g id="xtick_3">
     <g id="line2d_11">
      <g>
       <use xlink:href="#mb157f25f8d" x="217.67175" y="448.56" style="stroke: #000000; stroke-width: 0.8"/>
      </g>
     </g>
     <g id="text_12">
      <text style="font-size: 16px; font-family: 'Arial', sans-serif; text-anchor: middle" x="217.67175" y="467.208438" transform="rotate(-0 217.67175 467.208438)">1 Sep</text>
     </g>
    </g>
    <g id="xtick_4">
     <g id="line2d_12">
      <g>
       <use xlink:href="#mb157f25f8d" x="278.614125" y="448.56" style="stroke: #000000; stroke-width: 0.8"/>
      </g>
     </g>
     <g id="text_13">
      <text style="font-size: 16px; font-family: 'Arial', sans-serif; text-anchor: middle" x="278.614125" y="467.2175" transform="rotate(-0 278.614125 467.2175)">1 Oct</text>
     </g>
    </g>
    <g id="xtick_5">
     <g id="line2d_13">
      <g>
       <use xlink:href="#mb157f25f8d" x="341.587913" y="448.56" style="stroke: #000000; stroke-width: 0.8"/>
      </g>
     </g>
     <g id="text_14">
      <text style="font-size: 16px; font-family: 'Arial', sans-serif; text-anchor: middle" x="341.587913" y="467.208438" transform="rotate(-0 341.587913 467.208438)">1 Nov</text>
     </g>
    </g>
    <g id="xtick_6">
     <g id="line2d_14">
      <g>
       <use xlink:href="#mb157f25f8d" x="402.530289" y="448.56" style="stroke: #000000; stroke-width: 0.8"/>
      </g>
     </g>
     <g id="text_15">
      <text style="font-size: 16px; font-family: 'Arial', sans-serif; text-anchor: middle" x="402.530289" y="467.208438" transform="rotate(-0 402.530289 467.208438)">1 Dec</text>
     </g>
    </g>
    <g id="text_16">
     <text style="font-size: 16px; font-family: 'Arial', sans-serif; text-anchor: middle" x="258.3" y="486.233125" transform="rotate(-0 258.3 486.233125)">Date (2017)</text>
    </g>
   </g>
   <g id="matplotlib.axis_3">
    <g id="ytick_9">
     <g id="line2d_15">
      <defs>
       <path id="mc3334b2d42" d="M 0 0 
L -3.5 0 
" style="stroke: #000000; stroke-width: 0.8"/>
      </defs>
      <g>
       <use xlink:href="#mc3334b2d42" x="63" y="448.56" style="stroke: #000000; stroke-width: 0.8"/>
      </g>
     </g>
     <g id="text_17">
      <text style="font-size: 16px; font-family: 'Arial', sans-serif; text-anchor: end" x="56" y="454.384219" transform="rotate(-0 56 454.384219)">0.0</text>
     </g>
    </g>
    <g id="ytick_10">
     <g id="line2d_16">
      <g>
       <use xlink:href="#mc3334b2d42" x="63" y="371.712475" style="stroke: #000000; stroke-width: 0.8"/>
      </g>
     </g>
     <g id="text_18">
      <text style="font-size: 16px; font-family: 'Arial', sans-serif; text-anchor: end" x="56" y="377.536694" transform="rotate(-0 56 377.536694)">0.2</text>
     </g>
    </g>
    <g id="ytick_11">
     <g id="line2d_17">
      <g>
       <use xlink:href="#mc3334b2d42" x="63" y="294.86495" style="stroke: #000000; stroke-width: 0.8"/>
      </g>
     </g>
     <g id="text_19">
      <text style="font-size: 16px; font-family: 'Arial', sans-serif; text-anchor: end" x="56" y="300.689169" transform="rotate(-0 56 300.689169)">0.4</text>
     </g>
    </g>
    <g id="ytick_12">
     <g id="line2d_18">
      <g>
       <use xlink:href="#mc3334b2d42" x="63" y="218.017426" style="stroke: #000000; stroke-width: 0.8"/>
      </g>
     </g>
     <g id="text_20">
      <text style="font-size: 16px; font-family: 'Arial', sans-serif; text-anchor: end" x="56" y="223.841644" transform="rotate(-0 56 223.841644)">0.6</text>
     </g>
    </g>
    <g id="ytick_13">
     <g id="line2d_19">
      <g>
       <use xlink:href="#mc3334b2d42" x="63" y="141.169901" style="stroke: #000000; stroke-width: 0.8"/>
      </g>
     </g>
     <g id="text_21">
      <text style="font-size: 16px; font-family: 'Arial', sans-serif; text-anchor: end" x="56" y="146.99412" transform="rotate(-0 56 146.99412)">0.8</text>
     </g>
    </g>
    <g id="ytick_14">
     <g id="line2d_20">
      <g>
       <use xlink:href="#mc3334b2d42" x="63" y="64.322376" style="stroke: #000000; stroke-width: 0.8"/>
      </g>
     </g>
     <g id="text_22">
      <text style="font-size: 16px; font-family: 'Arial', sans-serif; text-anchor: end" x="56" y="70.146595" transform="rotate(-0 56 70.146595)">1.0</text>
     </g>
    </g>
    <g id="text_23">
     <text style="font-size: 16px; font-family: 'Arial', sans-serif; text-anchor: middle" x="26.3925" y="254.52" transform="rotate(-90 26.3925 254.52)">Temperature suitability for transmission</text>
    </g>
   </g>
   <g id="line2d_21">
    <path d="M 81.56711 174.268214 
L 83.598523 163.295618 
L 87.661348 143.067748 
L 89.692761 133.8299 
L 93.755586 116.68975 
L 95.786998 108.885308 
L 97.818411 101.772689 
L 99.849823 95.487389 
L 101.881236 89.85823 
L 103.912648 85.132501 
L 105.944061 81.271755 
L 107.975473 78.053476 
L 110.006886 75.611149 
L 112.038298 73.779917 
L 114.069711 72.417141 
L 116.101123 71.526098 
L 120.163948 70.28549 
L 124.226773 70.08041 
L 130.321011 70.511069 
L 132.352424 71.041378 
L 136.415249 72.41247 
L 140.478074 74.180448 
L 142.509486 75.211887 
L 144.540899 76.507839 
L 148.603724 78.643507 
L 150.635136 79.589858 
L 152.666549 80.702341 
L 158.760786 83.322226 
L 160.792199 84.044216 
L 164.855024 85.034929 
L 166.886436 85.172765 
L 168.917849 85.141085 
L 170.949261 84.953267 
L 172.980674 84.569233 
L 175.012087 83.996866 
L 181.106324 81.38081 
L 183.137737 80.330913 
L 185.169149 79.128253 
L 187.200562 77.764942 
L 193.294799 74.446395 
L 197.357624 72.268125 
L 199.389037 71.467242 
L 203.451862 70.275375 
L 209.546099 68.865356 
L 213.608924 68.452137 
L 215.640337 68.368345 
L 217.67175 68.469678 
L 219.703162 68.762501 
L 221.734575 69.247625 
L 223.765987 69.932585 
L 225.7974 71.116188 
L 227.828812 72.901463 
L 229.860225 75.485428 
L 231.891637 78.749647 
L 233.92305 83.251316 
L 235.954462 88.542548 
L 237.985875 95.06589 
L 240.017287 102.593331 
L 242.0487 110.99887 
L 246.111525 129.295795 
L 248.142937 138.956928 
L 252.205762 160.600832 
L 256.268587 184.765585 
L 262.362825 222.207813 
L 266.42565 247.932836 
L 270.488475 272.077605 
L 274.5513 295.310594 
L 278.614125 317.4026 
L 282.67695 337.374741 
L 284.708363 346.08169 
L 288.771188 362.148919 
L 290.8026 369.461088 
L 292.834013 376.076455 
L 294.865425 382.186744 
L 296.896838 387.607323 
L 298.92825 392.569483 
L 300.959663 396.786853 
L 302.991076 400.311189 
L 307.053901 406.014786 
L 309.085313 408.630917 
L 311.116726 410.994573 
L 313.148138 412.897095 
L 315.179551 414.211224 
L 317.210963 415.948708 
L 319.242376 417.278542 
L 321.273788 418.301511 
L 323.305201 419.0786 
L 325.336613 419.638313 
L 327.368026 419.931301 
L 329.399438 419.976992 
L 331.430851 419.908196 
L 333.462263 419.72308 
L 335.493676 419.393982 
L 339.556501 420.194153 
L 341.587913 420.506728 
L 345.650739 420.790406 
L 349.713564 420.902696 
L 355.807801 423.341717 
L 359.870626 424.751763 
L 365.964864 426.691652 
L 372.059101 428.353326 
L 382.216164 430.359638 
L 390.341814 431.526872 
L 392.373227 431.726803 
L 396.436052 432.343517 
L 402.530289 433.018949 
L 408.624527 433.559272 
L 412.687352 433.898669 
L 416.750177 434.333562 
L 422.844414 434.915086 
L 428.938652 435.22705 
L 435.03289 435.816529 
L 435.03289 435.816529 
" clip-path="url(#p05b6dd7f72)" style="fill: none; stroke: #1f77b4; stroke-width: 2; stroke-linecap: square"/>
   </g>
   <g id="line2d_22">
    <path d="M 81.56711 178.128047 
L 85.629936 156.957833 
L 87.661348 146.874615 
L 91.724173 128.708912 
L 93.755586 120.134184 
L 95.786998 112.116209 
L 97.818411 104.844046 
L 99.849823 98.233736 
L 101.881236 92.054952 
L 103.912648 86.568188 
L 105.944061 81.763052 
L 107.975473 77.458681 
L 110.006886 73.821014 
L 112.038298 70.839101 
L 114.069711 68.51512 
L 116.101123 66.885523 
L 118.132536 65.66449 
L 120.163948 64.636645 
L 122.195361 64.419061 
L 124.226773 64.344955 
L 126.258186 64.641377 
L 128.289599 65.20864 
L 130.321011 65.977203 
L 134.383836 68.709289 
L 140.478074 73.312065 
L 146.572311 78.757817 
L 152.666549 82.94073 
L 154.697961 84.319466 
L 156.729374 85.518622 
L 158.760786 86.5371 
L 160.792199 87.429957 
L 162.823611 88.150739 
L 164.855024 88.669461 
L 166.886436 88.985342 
L 168.917849 89.097711 
L 170.949261 89.006007 
L 172.980674 88.709781 
L 175.012087 88.208696 
L 177.043499 87.502529 
L 179.074912 86.612582 
L 181.106324 85.599163 
L 183.137737 84.399615 
L 191.263387 78.762676 
L 193.294799 77.041617 
L 197.357624 73.223522 
L 203.451862 68.496415 
L 205.483274 67.05172 
L 207.514687 65.828434 
L 209.546099 65.0267 
L 211.577512 64.510862 
L 213.608924 64.364242 
L 215.640337 64.492091 
L 217.67175 64.921346 
L 221.734575 67.465313 
L 223.765987 69.553755 
L 225.7974 72.39208 
L 227.828812 75.890108 
L 229.860225 80.22614 
L 231.891637 85.075853 
L 233.92305 90.701992 
L 235.954462 97.097462 
L 237.985875 104.079818 
L 240.017287 111.708319 
L 242.0487 120.215428 
L 246.111525 138.853355 
L 248.142937 148.937596 
L 252.205762 171.114639 
L 256.268587 195.418147 
L 262.362825 233.262769 
L 268.457063 272.344074 
L 274.5513 309.249448 
L 278.614125 332.298761 
L 282.67695 353.240184 
L 286.739775 371.772277 
L 288.771188 380.216374 
L 290.8026 388.087184 
L 292.834013 395.353197 
L 294.865425 402.019824 
L 296.896838 408.111639 
L 298.92825 413.572529 
L 300.959663 418.469276 
L 302.991076 422.824363 
L 305.022488 426.755661 
L 307.053901 430.17772 
L 309.085313 433.130832 
L 311.116726 435.740096 
L 313.148138 438.017693 
L 315.179551 439.935044 
L 317.210963 441.561864 
L 319.242376 442.957198 
L 321.273788 444.122461 
L 323.305201 445.080207 
L 325.336613 445.847326 
L 327.368026 446.482437 
L 331.430851 447.38425 
L 335.493676 447.928527 
L 339.556501 448.244779 
L 345.650739 448.466771 
L 355.807801 448.554457 
L 433.001477 448.56 
L 435.03289 448.56 
L 435.03289 448.56 
" clip-path="url(#p05b6dd7f72)" style="fill: none; stroke-dasharray: 7.4,3.2; stroke-dashoffset: 0; stroke: #000000; stroke-width: 2"/>
   </g>
   <g id="patch_179">
    <path d="M 63 448.56 
L 63 60.48 
" style="fill: none; stroke: #000000; stroke-width: 0.8; stroke-linejoin: miter; stroke-linecap: square"/>
   </g>
   <g id="patch_180">
    <path d="M 63 448.56 
L 453.6 448.56 
" style="fill: none; stroke: #000000; stroke-width: 0.8; stroke-linejoin: miter; stroke-linecap: square"/>
   </g>
   <g id="legend_1">
    <g id="patch_181">
     <path d="M 308.730625 111.957344 
L 443.8 111.957344 
Q 446.6 111.957344 446.6 109.157344 
L 446.6 70.28 
Q 446.6 67.48 443.8 67.48 
L 308.730625 67.48 
Q 305.930625 67.48 305.930625 70.28 
L 305.930625 109.157344 
Q 305.930625 111.957344 308.730625 111.957344 
z
" style="fill: #ffffff; opacity: 0.8; stroke: #cccccc; stroke-linejoin: miter"/>
    </g>
    <g id="line2d_23">
     <path d="M 311.530625 78.372383 
L 325.530625 78.372383 
L 339.530625 78.372383 
" style="fill: none; stroke-dasharray: 7.4,3.2; stroke-dashoffset: 0; stroke: #000000; stroke-width: 2"/>
    </g>
    <g id="text_24">
     <text style="font-size: 14px; font-family: 'Arial', sans-serif; text-anchor: start" x="350.730625" y="83.272383" transform="rotate(-0 350.730625 83.272383)">Seasonal prior</text>
    </g>
    <g id="line2d_24">
     <path d="M 311.530625 98.511055 
L 325.530625 98.511055 
L 339.530625 98.511055 
" style="fill: none; stroke: #1f77b4; stroke-width: 2; stroke-linecap: square"/>
    </g>
    <g id="text_25">
     <text style="font-size: 14px; font-family: 'Arial', sans-serif; text-anchor: start" x="350.730625" y="103.411055" transform="rotate(-0 350.730625 103.411055)">Posterior</text>
    </g>
   </g>
  </g>
 </g>
 <defs>
  <clipPath id="p05b6dd7f72">
   <rect x="63" y="60.48" width="390.6" height="388.08"/>
  </clipPath>
 </defs>
</svg>
