<?xml version="1.0" encoding="utf-8" standalone="no"?>
<!DOCTYPE svg PUBLIC "-//W3C//DTD SVG 1.1//EN"
  "http://www.w3.org/Graphics/SVG/1.1/DTD/svg11.dtd">
<svg xmlns:xlink="http://www.w3.org/1999/xlink" width="460.8pt" height="345.6pt" viewBox="0 0 460.8 345.6" xmlns="http://www.w3.org/2000/svg" version="1.1">
 <metadata>
  <rdf:RDF xmlns:dc="http://purl.org/dc/elements/1.1/" xmlns:cc="http://creativecommons.org/ns#" xmlns:rdf="http://www.w3.org/1999/02/22-rdf-syntax-ns#">
   <cc:Work>
    <dc:type rdf:resource="http://purl.org/dc/dcmitype/StillImage"/>
    <dc:date>2026-01-30T17:36:13.200502</dc:date>
    <dc:format>image/svg+xml</dc:format>
    <dc:creator>
     <cc:Agent>
      <dc:title>Matplotlib v3.10.8, https://matplotlib.org/</dc:title>
     </cc:Agent>
    </dc:creator>
   </cc:Work>
  </rdf:RDF>
 </metadata>
 <defs>
  <style type="text/css">*{stroke-linejoin: round; stroke-linecap: butt}</style>
 </defs>
 <g id="figure_1">
  <g id="patch_1">
   <path d="M 0 345.6 
L 460.8 345.6 
L 460.8 0 
L 0 0 
z
" style="fill: #ffffff"/>
  </g>
  <g id="axes_1">
   <g id="patch_2">
    <path d="M 57.6 307.584 
L 414.72 307.584 
L 414.72 41.472 
L 57.6 41.472 
z
" style="fill: #ffffff"/>
   </g>
   <g id="FillBetweenPolyCollection_1">
    <defs>
     <path id="m510ae3ba74" d="M 74.579918 -304.128 
L 74.579918 -252.498366 
L 76.447896 -256.513767 
L 78.315874 -260.764397 
L 80.183852 -264.731285 
L 82.05183 -268.34415 
L 83.919808 -271.472227 
L 85.787785 -273.560586 
L 87.655763 -275.253505 
L 89.523741 -277.321018 
L 91.391719 -277.917734 
L 93.259697 -278.707388 
L 95.127674 -279.79483 
L 96.995652 -280.267205 
L 98.86363 -280.303538 
L 100.731608 -280.199315 
L 102.599586 -279.640583 
L 104.467564 -278.895548 
L 106.335541 -278.388145 
L 108.203519 -277.072374 
L 110.071497 -275.952548 
L 111.939475 -275.606941 
L 113.807453 -274.770678 
L 115.67543 -273.255741 
L 117.543408 -272.439432 
L 119.411386 -270.781061 
L 121.279364 -270.077972 
L 123.147342 -269.356449 
L 125.01532 -268.231501 
L 126.883297 -267.498056 
L 128.751275 -266.992698 
L 130.619253 -266.717677 
L 132.487231 -265.606591 
L 134.355209 -264.935467 
L 136.223187 -265.179267 
L 138.091164 -264.685793 
L 139.959142 -264.796062 
L 141.82712 -264.787226 
L 143.695098 -264.977151 
L 145.563076 -265.425984 
L 147.431053 -266.033585 
L 149.299031 -266.72534 
L 151.167009 -267.460022 
L 153.034987 -268.650292 
L 154.902965 -269.429317 
L 156.770943 -270.675404 
L 158.63892 -271.99361 
L 160.506898 -272.534359 
L 162.374876 -274.364868 
L 164.242854 -275.151449 
L 166.110832 -276.977679 
L 167.978809 -277.569608 
L 169.846787 -279.628899 
L 171.714765 -281.68546 
L 173.582743 -282.209972 
L 175.450721 -283.498111 
L 177.318699 -283.734153 
L 179.186676 -284.489223 
L 181.054654 -284.571541 
L 182.922632 -284.418854 
L 184.79061 -284.192026 
L 186.658588 -282.76427 
L 188.526566 -281.88656 
L 190.394543 -280.904291 
L 192.262521 -279.169344 
L 194.130499 -276.870293 
L 195.998477 -274.189225 
L 197.866455 -271.240858 
L 199.734432 -267.427578 
L 201.60241 -263.634658 
L 203.470388 -259.344631 
L 205.338366 -254.335164 
L 207.206344 -249.093874 
L 209.074322 -243.129937 
L 210.942299 -236.661332 
L 212.810277 -229.96353 
L 214.678255 -222.01347 
L 216.546233 -214.170862 
L 218.414211 -206.476137 
L 220.282189 -197.996579 
L 222.150166 -189.539688 
L 224.018144 -180.315275 
L 225.886122 -171.909638 
L 227.7541 -163.615559 
L 229.622078 -155.171588 
L 231.490055 -146.395823 
L 233.358033 -138.355776 
L 235.226011 -130.340033 
L 237.093989 -121.547314 
L 238.961967 -113.690331 
L 240.829945 -106.553064 
L 242.697922 -99.520208 
L 244.5659 -92.845517 
L 246.433878 -87.393296 
L 248.301856 -82.138638 
L 250.169834 -78.039418 
L 252.037811 -73.346163 
L 253.905789 -69.60815 
L 255.773767 -65.281151 
L 257.641745 -62.255461 
L 259.509723 -58.620625 
L 261.377701 -57.057266 
L 263.245678 -55.432062 
L 265.113656 -53.978323 
L 266.981634 -52.010047 
L 268.849612 -50.940406 
L 270.71759 -49.248151 
L 272.585568 -48.545504 
L 274.453545 -47.082331 
L 276.321523 -46.830669 
L 278.189501 -46.548644 
L 280.057479 -46.568513 
L 281.925457 -46.395671 
L 283.793434 -45.68576 
L 285.661412 -45.227067 
L 287.52939 -45.322949 
L 289.397368 -45.060722 
L 291.265346 -44.117851 
L 293.133324 -43.348023 
L 295.001301 -43.288187 
L 296.869279 -42.742476 
L 298.737257 -42.753635 
L 300.605235 -42.592859 
L 302.473213 -42.865744 
L 304.341191 -43.031294 
L 306.209168 -43.669728 
L 308.077146 -44.935349 
L 309.945124 -44.168991 
L 311.813102 -43.64721 
L 313.68108 -43.109416 
L 315.549057 -43.27312 
L 317.417035 -43.132715 
L 319.285013 -42.955481 
L 321.152991 -43.465085 
L 323.020969 -42.218454 
L 324.888947 -41.002211 
L 326.756924 -39.57431 
L 328.624902 -38.539782 
L 330.49288 -38.016003 
L 332.360858 -38.016003 
L 334.228836 -38.016003 
L 336.096813 -38.016003 
L 337.964791 -38.016003 
L 339.832769 -38.016003 
L 341.700747 -38.016003 
L 343.568725 -38.016003 
L 345.436703 -38.016003 
L 347.30468 -38.016003 
L 349.172658 -38.016003 
L 351.040636 -38.016003 
L 352.908614 -38.016003 
L 354.776592 -38.016003 
L 356.64457 -38.016003 
L 358.512547 -38.016003 
L 360.380525 -38.016003 
L 362.248503 -38.016003 
L 364.116481 -38.016003 
L 365.984459 -38.016003 
L 367.852436 -38.016003 
L 369.720414 -38.016003 
L 371.588392 -38.016003 
L 373.45637 -38.016003 
L 375.324348 -38.016003 
L 377.192326 -38.016003 
L 379.060303 -38.016003 
L 380.928281 -38.016003 
L 382.796259 -38.016003 
L 384.664237 -38.016003 
L 386.532215 -38.016003 
L 388.400192 -38.016003 
L 390.26817 -38.016003 
L 392.136148 -38.016003 
L 394.004126 -38.016003 
L 395.872104 -38.016003 
L 397.740082 -38.016003 
L 397.740082 -70.676057 
L 397.740082 -70.676057 
L 395.872104 -70.789276 
L 394.004126 -70.792488 
L 392.136148 -70.561974 
L 390.26817 -70.565536 
L 388.400192 -70.599076 
L 386.532215 -70.289757 
L 384.664237 -71.006676 
L 382.796259 -71.056424 
L 380.928281 -71.376348 
L 379.060303 -71.767008 
L 377.192326 -71.668724 
L 375.324348 -71.697983 
L 373.45637 -71.6949 
L 371.588392 -72.179467 
L 369.720414 -72.390123 
L 367.852436 -72.810401 
L 365.984459 -72.520871 
L 364.116481 -72.784229 
L 362.248503 -72.863133 
L 360.380525 -73.525646 
L 358.512547 -73.314931 
L 356.64457 -73.958458 
L 354.776592 -73.449468 
L 352.908614 -73.864974 
L 351.040636 -74.459055 
L 349.172658 -74.379766 
L 347.30468 -75.043818 
L 345.436703 -74.872099 
L 343.568725 -74.860459 
L 341.700747 -75.036542 
L 339.832769 -75.263195 
L 337.964791 -75.454045 
L 336.096813 -75.426788 
L 334.228836 -75.620512 
L 332.360858 -75.557804 
L 330.49288 -75.964908 
L 328.624902 -76.435576 
L 326.756924 -76.706071 
L 324.888947 -77.400323 
L 323.020969 -77.035433 
L 321.152991 -77.722169 
L 319.285013 -77.562452 
L 317.417035 -77.659311 
L 315.549057 -77.380041 
L 313.68108 -77.724146 
L 311.813102 -78.005681 
L 309.945124 -77.740054 
L 308.077146 -78.123095 
L 306.209168 -77.766293 
L 304.341191 -77.369397 
L 302.473213 -77.655478 
L 300.605235 -77.721211 
L 298.737257 -77.916974 
L 296.869279 -77.639545 
L 295.001301 -78.394916 
L 293.133324 -78.363618 
L 291.265346 -78.798156 
L 289.397368 -79.061834 
L 287.52939 -78.887651 
L 285.661412 -79.418033 
L 283.793434 -79.469713 
L 281.925457 -80.034238 
L 280.057479 -80.548778 
L 278.189501 -80.999184 
L 276.321523 -81.548496 
L 274.453545 -82.620601 
L 272.585568 -83.795394 
L 270.71759 -85.740427 
L 268.849612 -87.217287 
L 266.981634 -88.886881 
L 265.113656 -91.289144 
L 263.245678 -93.3271 
L 261.377701 -96.612673 
L 259.509723 -98.913199 
L 257.641745 -102.302165 
L 255.773767 -106.450692 
L 253.905789 -111.091677 
L 252.037811 -115.581087 
L 250.169834 -121.184205 
L 248.301856 -126.502956 
L 246.433878 -132.52938 
L 244.5659 -138.840748 
L 242.697922 -145.683448 
L 240.829945 -153.339846 
L 238.961967 -161.526054 
L 237.093989 -169.484697 
L 235.226011 -177.842717 
L 233.358033 -186.657595 
L 231.490055 -195.404149 
L 229.622078 -203.861494 
L 227.7541 -212.596996 
L 225.886122 -221.510905 
L 224.018144 -229.651955 
L 222.150166 -238.670366 
L 220.282189 -247.432776 
L 218.414211 -255.875595 
L 216.546233 -264.447648 
L 214.678255 -271.869681 
L 212.810277 -279.762406 
L 210.942299 -286.933079 
L 209.074322 -293.524664 
L 207.206344 -299.372101 
L 205.338366 -304.128 
L 203.470388 -304.128 
L 201.60241 -304.128 
L 199.734432 -304.128 
L 197.866455 -304.128 
L 195.998477 -304.128 
L 194.130499 -304.128 
L 192.262521 -304.128 
L 190.394543 -304.128 
L 188.526566 -304.128 
L 186.658588 -304.128 
L 184.79061 -304.128 
L 182.922632 -304.128 
L 181.054654 -304.128 
L 179.186676 -304.128 
L 177.318699 -304.128 
L 175.450721 -304.128 
L 173.582743 -304.128 
L 171.714765 -304.128 
L 169.846787 -304.128 
L 167.978809 -304.128 
L 166.110832 -304.128 
L 164.242854 -304.128 
L 162.374876 -304.128 
L 160.506898 -304.128 
L 158.63892 -304.128 
L 156.770943 -304.128 
L 154.902965 -304.128 
L 153.034987 -304.128 
L 151.167009 -304.128 
L 149.299031 -304.128 
L 147.431053 -304.128 
L 145.563076 -304.128 
L 143.695098 -304.128 
L 141.82712 -304.128 
L 139.959142 -304.128 
L 138.091164 -304.128 
L 136.223187 -304.128 
L 134.355209 -304.128 
L 132.487231 -304.128 
L 130.619253 -304.128 
L 128.751275 -304.128 
L 126.883297 -304.128 
L 125.01532 -304.128 
L 123.147342 -304.128 
L 121.279364 -304.128 
L 119.411386 -304.128 
L 117.543408 -304.128 
L 115.67543 -304.128 
L 113.807453 -304.128 
L 111.939475 -304.128 
L 110.071497 -304.128 
L 108.203519 -304.128 
L 106.335541 -304.128 
L 104.467564 -304.128 
L 102.599586 -304.128 
L 100.731608 -304.128 
L 98.86363 -304.128 
L 96.995652 -304.128 
L 95.127674 -304.128 
L 93.259697 -304.128 
L 91.391719 -304.128 
L 89.523741 -304.128 
L 87.655763 -304.128 
L 85.787785 -304.128 
L 83.919808 -304.128 
L 82.05183 -304.128 
L 80.183852 -304.128 
L 78.315874 -304.128 
L 76.447896 -304.128 
L 74.579918 -304.128 
z
" style="stroke: #1f77b4; stroke-opacity: 0.3"/>
    </defs>
    <g clip-path="url(#p43630d292c)">
     <use xlink:href="#m510ae3ba74" x="0" y="345.6" style="fill: #1f77b4; fill-opacity: 0.3; stroke: #1f77b4; stroke-opacity: 0.3"/>
    </g>
   </g>
   <g id="matplotlib.axis_1">
    <g id="xtick_1">
     <g id="line2d_1">
      <defs>
       <path id="m4029de6a6a" d="M 0 0 
L 0 3.5 
" style="stroke: #000000; stroke-width: 0.8"/>
      </defs>
      <g>
       <use xlink:href="#m4029de6a6a" x="83.919808" y="307.584" style="stroke: #000000; stroke-width: 0.8"/>
      </g>
     </g>
     <g id="text_1">
      <!-- 1 Jul -->
      <g transform="translate(73.116683 322.182437) scale(0.1 -0.1)">
       <defs>
        <path id="DejaVuSans-31" d="M 794 531 
L 1825 531 
L 1825 4091 
L 703 3866 
L 703 4441 
L 1819 4666 
L 2450 4666 
L 2450 531 
L 3481 531 
L 3481 0 
L 794 0 
L 794 531 
z
" transform="scale(0.015625)"/>
        <path id="DejaVuSans-20" transform="scale(0.015625)"/>
        <path id="DejaVuSans-4a" d="M 628 4666 
L 1259 4666 
L 1259 325 
Q 1259 -519 939 -900 
Q 619 -1281 -91 -1281 
L -331 -1281 
L -331 -750 
L -134 -750 
Q 284 -750 456 -515 
Q 628 -281 628 325 
L 628 4666 
z
" transform="scale(0.015625)"/>
        <path id="DejaVuSans-75" d="M 544 1381 
L 544 3500 
L 1119 3500 
L 1119 1403 
Q 1119 906 1312 657 
Q 1506 409 1894 409 
Q 2359 409 2629 706 
Q 2900 1003 2900 1516 
L 2900 3500 
L 3475 3500 
L 3475 0 
L 2900 0 
L 2900 538 
Q 2691 219 2414 64 
Q 2138 -91 1772 -91 
Q 1169 -91 856 284 
Q 544 659 544 1381 
z
M 1991 3584 
L 1991 3584 
z
" transform="scale(0.015625)"/>
        <path id="DejaVuSans-6c" d="M 603 4863 
L 1178 4863 
L 1178 0 
L 603 0 
L 603 4863 
z
" transform="scale(0.015625)"/>
       </defs>
       <use xlink:href="#DejaVuSans-31"/>
       <use xlink:href="#DejaVuSans-20" transform="translate(63.623047 0)"/>
       <use xlink:href="#DejaVuSans-4a" transform="translate(95.410156 0)"/>
       <use xlink:href="#DejaVuSans-75" transform="translate(124.902344 0)"/>
       <use xlink:href="#DejaVuSans-6c" transform="translate(188.28125 0)"/>
      </g>
     </g>
    </g>
    <g id="xtick_2">
     <g id="line2d_2">
      <g>
       <use xlink:href="#m4029de6a6a" x="141.82712" y="307.584" style="stroke: #000000; stroke-width: 0.8"/>
      </g>
     </g>
     <g id="text_2">
      <!-- 1 Aug -->
      <g transform="translate(127.293526 322.182437) scale(0.1 -0.1)">
       <defs>
        <path id="DejaVuSans-41" d="M 2188 4044 
L 1331 1722 
L 3047 1722 
L 2188 4044 
z
M 1831 4666 
L 2547 4666 
L 4325 0 
L 3669 0 
L 3244 1197 
L 1141 1197 
L 716 0 
L 50 0 
L 1831 4666 
z
" transform="scale(0.015625)"/>
        <path id="DejaVuSans-67" d="M 2906 1791 
Q 2906 2416 2648 2759 
Q 2391 3103 1925 3103 
Q 1463 3103 1205 2759 
Q 947 2416 947 1791 
Q 947 1169 1205 825 
Q 1463 481 1925 481 
Q 2391 481 2648 825 
Q 2906 1169 2906 1791 
z
M 3481 434 
Q 3481 -459 3084 -895 
Q 2688 -1331 1869 -1331 
Q 1566 -1331 1297 -1286 
Q 1028 -1241 775 -1147 
L 775 -588 
Q 1028 -725 1275 -790 
Q 1522 -856 1778 -856 
Q 2344 -856 2625 -561 
Q 2906 -266 2906 331 
L 2906 616 
Q 2728 306 2450 153 
Q 2172 0 1784 0 
Q 1141 0 747 490 
Q 353 981 353 1791 
Q 353 2603 747 3093 
Q 1141 3584 1784 3584 
Q 2172 3584 2450 3431 
Q 2728 3278 2906 2969 
L 2906 3500 
L 3481 3500 
L 3481 434 
z
" transform="scale(0.015625)"/>
       </defs>
       <use xlink:href="#DejaVuSans-31"/>
       <use xlink:href="#DejaVuSans-20" transform="translate(63.623047 0)"/>
       <use xlink:href="#DejaVuSans-41" transform="translate(95.410156 0)"/>
       <use xlink:href="#DejaVuSans-75" transform="translate(163.818359 0)"/>
       <use xlink:href="#DejaVuSans-67" transform="translate(227.197266 0)"/>
      </g>
     </g>
    </g>
    <g id="xtick_3">
     <g id="line2d_3">
      <g>
       <use xlink:href="#m4029de6a6a" x="199.734432" y="307.584" style="stroke: #000000; stroke-width: 0.8"/>
      </g>
     </g>
     <g id="text_3">
      <!-- 1 Sep -->
      <g transform="translate(185.53912 322.182437) scale(0.1 -0.1)">
       <defs>
        <path id="DejaVuSans-53" d="M 3425 4513 
L 3425 3897 
Q 3066 4069 2747 4153 
Q 2428 4238 2131 4238 
Q 1616 4238 1336 4038 
Q 1056 3838 1056 3469 
Q 1056 3159 1242 3001 
Q 1428 2844 1947 2747 
L 2328 2669 
Q 3034 2534 3370 2195 
Q 3706 1856 3706 1288 
Q 3706 609 3251 259 
Q 2797 -91 1919 -91 
Q 1588 -91 1214 -16 
Q 841 59 441 206 
L 441 856 
Q 825 641 1194 531 
Q 1563 422 1919 422 
Q 2459 422 2753 634 
Q 3047 847 3047 1241 
Q 3047 1584 2836 1778 
Q 2625 1972 2144 2069 
L 1759 2144 
Q 1053 2284 737 2584 
Q 422 2884 422 3419 
Q 422 4038 858 4394 
Q 1294 4750 2059 4750 
Q 2388 4750 2728 4690 
Q 3069 4631 3425 4513 
z
" transform="scale(0.015625)"/>
        <path id="DejaVuSans-65" d="M 3597 1894 
L 3597 1613 
L 953 1613 
Q 991 1019 1311 708 
Q 1631 397 2203 397 
Q 2534 397 2845 478 
Q 3156 559 3463 722 
L 3463 178 
Q 3153 47 2828 -22 
Q 2503 -91 2169 -91 
Q 1331 -91 842 396 
Q 353 884 353 1716 
Q 353 2575 817 3079 
Q 1281 3584 2069 3584 
Q 2775 3584 3186 3129 
Q 3597 2675 3597 1894 
z
M 3022 2063 
Q 3016 2534 2758 2815 
Q 2500 3097 2075 3097 
Q 1594 3097 1305 2825 
Q 1016 2553 972 2059 
L 3022 2063 
z
" transform="scale(0.015625)"/>
        <path id="DejaVuSans-70" d="M 1159 525 
L 1159 -1331 
L 581 -1331 
L 581 3500 
L 1159 3500 
L 1159 2969 
Q 1341 3281 1617 3432 
Q 1894 3584 2278 3584 
Q 2916 3584 3314 3078 
Q 3713 2572 3713 1747 
Q 3713 922 3314 415 
Q 2916 -91 2278 -91 
Q 1894 -91 1617 61 
Q 1341 213 1159 525 
z
M 3116 1747 
Q 3116 2381 2855 2742 
Q 2594 3103 2138 3103 
Q 1681 3103 1420 2742 
Q 1159 2381 1159 1747 
Q 1159 1113 1420 752 
Q 1681 391 2138 391 
Q 2594 391 2855 752 
Q 3116 1113 3116 1747 
z
" transform="scale(0.015625)"/>
       </defs>
       <use xlink:href="#DejaVuSans-31"/>
       <use xlink:href="#DejaVuSans-20" transform="translate(63.623047 0)"/>
       <use xlink:href="#DejaVuSans-53" transform="translate(95.410156 0)"/>
       <use xlink:href="#DejaVuSans-65" transform="translate(158.886719 0)"/>
       <use xlink:href="#DejaVuSans-70" transform="translate(220.410156 0)"/>
      </g>
     </g>
    </g>
    <g id="xtick_4">
     <g id="line2d_4">
      <g>
       <use xlink:href="#m4029de6a6a" x="255.773767" y="307.584" style="stroke: #000000; stroke-width: 0.8"/>
      </g>
     </g>
     <g id="text_4">
      <!-- 1 Oct -->
      <g transform="translate(242.358142 322.182437) scale(0.1 -0.1)">
       <defs>
        <path id="DejaVuSans-4f" d="M 2522 4238 
Q 1834 4238 1429 3725 
Q 1025 3213 1025 2328 
Q 1025 1447 1429 934 
Q 1834 422 2522 422 
Q 3209 422 3611 934 
Q 4013 1447 4013 2328 
Q 4013 3213 3611 3725 
Q 3209 4238 2522 4238 
z
M 2522 4750 
Q 3503 4750 4090 4092 
Q 4678 3434 4678 2328 
Q 4678 1225 4090 567 
Q 3503 -91 2522 -91 
Q 1538 -91 948 565 
Q 359 1222 359 2328 
Q 359 3434 948 4092 
Q 1538 4750 2522 4750 
z
" transform="scale(0.015625)"/>
        <path id="DejaVuSans-63" d="M 3122 3366 
L 3122 2828 
Q 2878 2963 2633 3030 
Q 2388 3097 2138 3097 
Q 1578 3097 1268 2742 
Q 959 2388 959 1747 
Q 959 1106 1268 751 
Q 1578 397 2138 397 
Q 2388 397 2633 464 
Q 2878 531 3122 666 
L 3122 134 
Q 2881 22 2623 -34 
Q 2366 -91 2075 -91 
Q 1284 -91 818 406 
Q 353 903 353 1747 
Q 353 2603 823 3093 
Q 1294 3584 2113 3584 
Q 2378 3584 2631 3529 
Q 2884 3475 3122 3366 
z
" transform="scale(0.015625)"/>
        <path id="DejaVuSans-74" d="M 1172 4494 
L 1172 3500 
L 2356 3500 
L 2356 3053 
L 1172 3053 
L 1172 1153 
Q 1172 725 1289 603 
Q 1406 481 1766 481 
L 2356 481 
L 2356 0 
L 1766 0 
Q 1100 0 847 248 
Q 594 497 594 1153 
L 594 3053 
L 172 3053 
L 172 3500 
L 594 3500 
L 594 4494 
L 1172 4494 
z
" transform="scale(0.015625)"/>
       </defs>
       <use xlink:href="#DejaVuSans-31"/>
       <use xlink:href="#DejaVuSans-20" transform="translate(63.623047 0)"/>
       <use xlink:href="#DejaVuSans-4f" transform="translate(95.410156 0)"/>
       <use xlink:href="#DejaVuSans-63" transform="translate(174.121094 0)"/>
       <use xlink:href="#DejaVuSans-74" transform="translate(229.101562 0)"/>
      </g>
     </g>
    </g>
    <g id="xtick_5">
     <g id="line2d_5">
      <g>
       <use xlink:href="#m4029de6a6a" x="313.68108" y="307.584" style="stroke: #000000; stroke-width: 0.8"/>
      </g>
     </g>
     <g id="text_5">
      <!-- 1 Nov -->
      <g transform="translate(299.151392 322.182437) scale(0.1 -0.1)">
       <defs>
        <path id="DejaVuSans-4e" d="M 628 4666 
L 1478 4666 
L 3547 763 
L 3547 4666 
L 4159 4666 
L 4159 0 
L 3309 0 
L 1241 3903 
L 1241 0 
L 628 0 
L 628 4666 
z
" transform="scale(0.015625)"/>
        <path id="DejaVuSans-6f" d="M 1959 3097 
Q 1497 3097 1228 2736 
Q 959 2375 959 1747 
Q 959 1119 1226 758 
Q 1494 397 1959 397 
Q 2419 397 2687 759 
Q 2956 1122 2956 1747 
Q 2956 2369 2687 2733 
Q 2419 3097 1959 3097 
z
M 1959 3584 
Q 2709 3584 3137 3096 
Q 3566 2609 3566 1747 
Q 3566 888 3137 398 
Q 2709 -91 1959 -91 
Q 1206 -91 779 398 
Q 353 888 353 1747 
Q 353 2609 779 3096 
Q 1206 3584 1959 3584 
z
" transform="scale(0.015625)"/>
        <path id="DejaVuSans-76" d="M 191 3500 
L 800 3500 
L 1894 563 
L 2988 3500 
L 3597 3500 
L 2284 0 
L 1503 0 
L 191 3500 
z
" transform="scale(0.015625)"/>
       </defs>
       <use xlink:href="#DejaVuSans-31"/>
       <use xlink:href="#DejaVuSans-20" transform="translate(63.623047 0)"/>
       <use xlink:href="#DejaVuSans-4e" transform="translate(95.410156 0)"/>
       <use xlink:href="#DejaVuSans-6f" transform="translate(170.214844 0)"/>
       <use xlink:href="#DejaVuSans-76" transform="translate(231.396484 0)"/>
      </g>
     </g>
    </g>
    <g id="xtick_6">
     <g id="line2d_6">
      <g>
       <use xlink:href="#m4029de6a6a" x="369.720414" y="307.584" style="stroke: #000000; stroke-width: 0.8"/>
      </g>
     </g>
     <g id="text_6">
      <!-- 1 Dec -->
      <g transform="translate(355.274321 322.182437) scale(0.1 -0.1)">
       <defs>
        <path id="DejaVuSans-44" d="M 1259 4147 
L 1259 519 
L 2022 519 
Q 2988 519 3436 956 
Q 3884 1394 3884 2338 
Q 3884 3275 3436 3711 
Q 2988 4147 2022 4147 
L 1259 4147 
z
M 628 4666 
L 1925 4666 
Q 3281 4666 3915 4102 
Q 4550 3538 4550 2338 
Q 4550 1131 3912 565 
Q 3275 0 1925 0 
L 628 0 
L 628 4666 
z
" transform="scale(0.015625)"/>
       </defs>
       <use xlink:href="#DejaVuSans-31"/>
       <use xlink:href="#DejaVuSans-20" transform="translate(63.623047 0)"/>
       <use xlink:href="#DejaVuSans-44" transform="translate(95.410156 0)"/>
       <use xlink:href="#DejaVuSans-65" transform="translate(172.412109 0)"/>
       <use xlink:href="#DejaVuSans-63" transform="translate(233.935547 0)"/>
      </g>
     </g>
    </g>
   </g>
   <g id="matplotlib.axis_2">
    <g id="ytick_1">
     <g id="line2d_7">
      <defs>
       <path id="mf191922673" d="M 0 0 
L -3.5 0 
" style="stroke: #000000; stroke-width: 0.8"/>
      </defs>
      <g>
       <use xlink:href="#mf191922673" x="57.6" y="307.584" style="stroke: #000000; stroke-width: 0.8"/>
      </g>
     </g>
     <g id="text_7">
      <!-- 0.0 -->
      <g transform="translate(34.696875 311.383219) scale(0.1 -0.1)">
       <defs>
        <path id="DejaVuSans-30" d="M 2034 4250 
Q 1547 4250 1301 3770 
Q 1056 3291 1056 2328 
Q 1056 1369 1301 889 
Q 1547 409 2034 409 
Q 2525 409 2770 889 
Q 3016 1369 3016 2328 
Q 3016 3291 2770 3770 
Q 2525 4250 2034 4250 
z
M 2034 4750 
Q 2819 4750 3233 4129 
Q 3647 3509 3647 2328 
Q 3647 1150 3233 529 
Q 2819 -91 2034 -91 
Q 1250 -91 836 529 
Q 422 1150 422 2328 
Q 422 3509 836 4129 
Q 1250 4750 2034 4750 
z
" transform="scale(0.015625)"/>
        <path id="DejaVuSans-2e" d="M 684 794 
L 1344 794 
L 1344 0 
L 684 0 
L 684 794 
z
" transform="scale(0.015625)"/>
       </defs>
       <use xlink:href="#DejaVuSans-30"/>
       <use xlink:href="#DejaVuSans-2e" transform="translate(63.623047 0)"/>
       <use xlink:href="#DejaVuSans-30" transform="translate(95.410156 0)"/>
      </g>
     </g>
    </g>
    <g id="ytick_2">
     <g id="line2d_8">
      <g>
       <use xlink:href="#mf191922673" x="57.6" y="254.3616" style="stroke: #000000; stroke-width: 0.8"/>
      </g>
     </g>
     <g id="text_8">
      <!-- 0.2 -->
      <g transform="translate(34.696875 258.160819) scale(0.1 -0.1)">
       <defs>
        <path id="DejaVuSans-32" d="M 1228 531 
L 3431 531 
L 3431 0 
L 469 0 
L 469 531 
Q 828 903 1448 1529 
Q 2069 2156 2228 2338 
Q 2531 2678 2651 2914 
Q 2772 3150 2772 3378 
Q 2772 3750 2511 3984 
Q 2250 4219 1831 4219 
Q 1534 4219 1204 4116 
Q 875 4013 500 3803 
L 500 4441 
Q 881 4594 1212 4672 
Q 1544 4750 1819 4750 
Q 2544 4750 2975 4387 
Q 3406 4025 3406 3419 
Q 3406 3131 3298 2873 
Q 3191 2616 2906 2266 
Q 2828 2175 2409 1742 
Q 1991 1309 1228 531 
z
" transform="scale(0.015625)"/>
       </defs>
       <use xlink:href="#DejaVuSans-30"/>
       <use xlink:href="#DejaVuSans-2e" transform="translate(63.623047 0)"/>
       <use xlink:href="#DejaVuSans-32" transform="translate(95.410156 0)"/>
      </g>
     </g>
    </g>
    <g id="ytick_3">
     <g id="line2d_9">
      <g>
       <use xlink:href="#mf191922673" x="57.6" y="201.1392" style="stroke: #000000; stroke-width: 0.8"/>
      </g>
     </g>
     <g id="text_9">
      <!-- 0.4 -->
      <g transform="translate(34.696875 204.938419) scale(0.1 -0.1)">
       <defs>
        <path id="DejaVuSans-34" d="M 2419 4116 
L 825 1625 
L 2419 1625 
L 2419 4116 
z
M 2253 4666 
L 3047 4666 
L 3047 1625 
L 3713 1625 
L 3713 1100 
L 3047 1100 
L 3047 0 
L 2419 0 
L 2419 1100 
L 313 1100 
L 313 1709 
L 2253 4666 
z
" transform="scale(0.015625)"/>
       </defs>
       <use xlink:href="#DejaVuSans-30"/>
       <use xlink:href="#DejaVuSans-2e" transform="translate(63.623047 0)"/>
       <use xlink:href="#DejaVuSans-34" transform="translate(95.410156 0)"/>
      </g>
     </g>
    </g>
    <g id="ytick_4">
     <g id="line2d_10">
      <g>
       <use xlink:href="#mf191922673" x="57.6" y="147.9168" style="stroke: #000000; stroke-width: 0.8"/>
      </g>
     </g>
     <g id="text_10">
      <!-- 0.6 -->
      <g transform="translate(34.696875 151.716019) scale(0.1 -0.1)">
       <defs>
        <path id="DejaVuSans-36" d="M 2113 2584 
Q 1688 2584 1439 2293 
Q 1191 2003 1191 1497 
Q 1191 994 1439 701 
Q 1688 409 2113 409 
Q 2538 409 2786 701 
Q 3034 994 3034 1497 
Q 3034 2003 2786 2293 
Q 2538 2584 2113 2584 
z
M 3366 4563 
L 3366 3988 
Q 3128 4100 2886 4159 
Q 2644 4219 2406 4219 
Q 1781 4219 1451 3797 
Q 1122 3375 1075 2522 
Q 1259 2794 1537 2939 
Q 1816 3084 2150 3084 
Q 2853 3084 3261 2657 
Q 3669 2231 3669 1497 
Q 3669 778 3244 343 
Q 2819 -91 2113 -91 
Q 1303 -91 875 529 
Q 447 1150 447 2328 
Q 447 3434 972 4092 
Q 1497 4750 2381 4750 
Q 2619 4750 2861 4703 
Q 3103 4656 3366 4563 
z
" transform="scale(0.015625)"/>
       </defs>
       <use xlink:href="#DejaVuSans-30"/>
       <use xlink:href="#DejaVuSans-2e" transform="translate(63.623047 0)"/>
       <use xlink:href="#DejaVuSans-36" transform="translate(95.410156 0)"/>
      </g>
     </g>
    </g>
    <g id="ytick_5">
     <g id="line2d_11">
      <g>
       <use xlink:href="#mf191922673" x="57.6" y="94.6944" style="stroke: #000000; stroke-width: 0.8"/>
      </g>
     </g>
     <g id="text_11">
      <!-- 0.8 -->
      <g transform="translate(34.696875 98.493619) scale(0.1 -0.1)">
       <defs>
        <path id="DejaVuSans-38" d="M 2034 2216 
Q 1584 2216 1326 1975 
Q 1069 1734 1069 1313 
Q 1069 891 1326 650 
Q 1584 409 2034 409 
Q 2484 409 2743 651 
Q 3003 894 3003 1313 
Q 3003 1734 2745 1975 
Q 2488 2216 2034 2216 
z
M 1403 2484 
Q 997 2584 770 2862 
Q 544 3141 544 3541 
Q 544 4100 942 4425 
Q 1341 4750 2034 4750 
Q 2731 4750 3128 4425 
Q 3525 4100 3525 3541 
Q 3525 3141 3298 2862 
Q 3072 2584 2669 2484 
Q 3125 2378 3379 2068 
Q 3634 1759 3634 1313 
Q 3634 634 3220 271 
Q 2806 -91 2034 -91 
Q 1263 -91 848 271 
Q 434 634 434 1313 
Q 434 1759 690 2068 
Q 947 2378 1403 2484 
z
M 1172 3481 
Q 1172 3119 1398 2916 
Q 1625 2713 2034 2713 
Q 2441 2713 2670 2916 
Q 2900 3119 2900 3481 
Q 2900 3844 2670 4047 
Q 2441 4250 2034 4250 
Q 1625 4250 1398 4047 
Q 1172 3844 1172 3481 
z
" transform="scale(0.015625)"/>
       </defs>
       <use xlink:href="#DejaVuSans-30"/>
       <use xlink:href="#DejaVuSans-2e" transform="translate(63.623047 0)"/>
       <use xlink:href="#DejaVuSans-38" transform="translate(95.410156 0)"/>
      </g>
     </g>
    </g>
    <g id="ytick_6">
     <g id="line2d_12">
      <g>
       <use xlink:href="#mf191922673" x="57.6" y="41.472" style="stroke: #000000; stroke-width: 0.8"/>
      </g>
     </g>
     <g id="text_12">
      <!-- 1.0 -->
      <g transform="translate(34.696875 45.271219) scale(0.1 -0.1)">
       <use xlink:href="#DejaVuSans-31"/>
       <use xlink:href="#DejaVuSans-2e" transform="translate(63.623047 0)"/>
       <use xlink:href="#DejaVuSans-30" transform="translate(95.410156 0)"/>
      </g>
     </g>
    </g>
    <g id="text_13">
     <!-- Suitability -->
     <g transform="translate(28.617187 199.545187) rotate(-90) scale(0.1 -0.1)">
      <defs>
       <path id="DejaVuSans-69" d="M 603 3500 
L 1178 3500 
L 1178 0 
L 603 0 
L 603 3500 
z
M 603 4863 
L 1178 4863 
L 1178 4134 
L 603 4134 
L 603 4863 
z
" transform="scale(0.015625)"/>
       <path id="DejaVuSans-61" d="M 2194 1759 
Q 1497 1759 1228 1600 
Q 959 1441 959 1056 
Q 959 750 1161 570 
Q 1363 391 1709 391 
Q 2188 391 2477 730 
Q 2766 1069 2766 1631 
L 2766 1759 
L 2194 1759 
z
M 3341 1997 
L 3341 0 
L 2766 0 
L 2766 531 
Q 2569 213 2275 61 
Q 1981 -91 1556 -91 
Q 1019 -91 701 211 
Q 384 513 384 1019 
Q 384 1609 779 1909 
Q 1175 2209 1959 2209 
L 2766 2209 
L 2766 2266 
Q 2766 2663 2505 2880 
Q 2244 3097 1772 3097 
Q 1472 3097 1187 3025 
Q 903 2953 641 2809 
L 641 3341 
Q 956 3463 1253 3523 
Q 1550 3584 1831 3584 
Q 2591 3584 2966 3190 
Q 3341 2797 3341 1997 
z
" transform="scale(0.015625)"/>
       <path id="DejaVuSans-62" d="M 3116 1747 
Q 3116 2381 2855 2742 
Q 2594 3103 2138 3103 
Q 1681 3103 1420 2742 
Q 1159 2381 1159 1747 
Q 1159 1113 1420 752 
Q 1681 391 2138 391 
Q 2594 391 2855 752 
Q 3116 1113 3116 1747 
z
M 1159 2969 
Q 1341 3281 1617 3432 
Q 1894 3584 2278 3584 
Q 2916 3584 3314 3078 
Q 3713 2572 3713 1747 
Q 3713 922 3314 415 
Q 2916 -91 2278 -91 
Q 1894 -91 1617 61 
Q 1341 213 1159 525 
L 1159 0 
L 581 0 
L 581 4863 
L 1159 4863 
L 1159 2969 
z
" transform="scale(0.015625)"/>
       <path id="DejaVuSans-79" d="M 2059 -325 
Q 1816 -950 1584 -1140 
Q 1353 -1331 966 -1331 
L 506 -1331 
L 506 -850 
L 844 -850 
Q 1081 -850 1212 -737 
Q 1344 -625 1503 -206 
L 1606 56 
L 191 3500 
L 800 3500 
L 1894 763 
L 2988 3500 
L 3597 3500 
L 2059 -325 
z
" transform="scale(0.015625)"/>
      </defs>
      <use xlink:href="#DejaVuSans-53"/>
      <use xlink:href="#DejaVuSans-75" transform="translate(63.476562 0)"/>
      <use xlink:href="#DejaVuSans-69" transform="translate(126.855469 0)"/>
      <use xlink:href="#DejaVuSans-74" transform="translate(154.638672 0)"/>
      <use xlink:href="#DejaVuSans-61" transform="translate(193.847656 0)"/>
      <use xlink:href="#DejaVuSans-62" transform="translate(255.126953 0)"/>
      <use xlink:href="#DejaVuSans-69" transform="translate(318.603516 0)"/>
      <use xlink:href="#DejaVuSans-6c" transform="translate(346.386719 0)"/>
      <use xlink:href="#DejaVuSans-69" transform="translate(374.169922 0)"/>
      <use xlink:href="#DejaVuSans-74" transform="translate(401.953125 0)"/>
      <use xlink:href="#DejaVuSans-79" transform="translate(441.162109 0)"/>
     </g>
    </g>
   </g>
   <g id="line2d_13">
    <path d="M 74.579918 66.744211 
L 76.447896 62.299191 
L 78.315874 58.448143 
L 80.183852 55.240478 
L 82.05183 52.619351 
L 83.919808 50.459921 
L 85.787785 48.916082 
L 87.655763 47.789163 
L 89.523741 47.036533 
L 91.391719 46.520713 
L 95.127674 45.840068 
L 98.86363 45.787176 
L 100.731608 45.828434 
L 104.467564 46.172898 
L 106.335541 46.540609 
L 111.939475 48.042428 
L 113.807453 48.597373 
L 121.279364 51.429859 
L 123.147342 51.917881 
L 128.751275 53.861051 
L 130.619253 54.398905 
L 134.355209 55.175364 
L 138.091164 55.555884 
L 139.959142 55.604446 
L 143.695098 55.242087 
L 147.431053 54.467137 
L 149.299031 53.965383 
L 153.034987 52.655167 
L 166.110832 47.191729 
L 171.714765 45.354489 
L 173.582743 44.873265 
L 175.450721 44.547232 
L 179.186676 44.222338 
L 181.054654 44.172907 
L 184.79061 44.352716 
L 188.526566 44.987694 
L 190.394543 45.486255 
L 192.262521 46.299106 
L 194.130499 47.428386 
L 195.998477 49.02456 
L 197.866455 51.038231 
L 199.734432 53.715226 
L 201.60241 57.145032 
L 203.470388 61.234853 
L 205.338366 65.935863 
L 207.206344 71.391608 
L 210.942299 84.079443 
L 212.810277 90.899106 
L 216.546233 105.974894 
L 218.414211 114.19256 
L 227.7541 157.476166 
L 238.961967 208.240936 
L 240.829945 216.122114 
L 244.5659 230.159778 
L 246.433878 236.165789 
L 248.301856 241.743791 
L 252.037811 251.847422 
L 253.905789 256.322717 
L 255.773767 260.504629 
L 257.641745 264.399265 
L 259.509723 267.661542 
L 261.377701 270.195562 
L 266.981634 276.771511 
L 270.71759 279.82355 
L 274.453545 282.069554 
L 276.321523 282.943409 
L 278.189501 283.520682 
L 281.925457 284.033892 
L 283.793434 284.593489 
L 285.661412 284.937476 
L 287.52939 285.156418 
L 289.397368 285.18891 
L 291.265346 285.631374 
L 293.133324 285.953184 
L 296.869279 286.26694 
L 300.605235 286.467315 
L 304.341191 286.250023 
L 306.209168 286.086069 
L 308.077146 285.80518 
L 309.945124 286.06943 
L 321.152991 286.858545 
L 330.49288 289.644336 
L 334.228836 290.622181 
L 341.700747 292.304129 
L 352.908614 293.96743 
L 365.984459 295.57832 
L 367.852436 295.732947 
L 371.588392 296.274362 
L 375.324348 296.544759 
L 380.928281 296.929503 
L 397.740082 298.192279 
L 397.740082 298.192279 
" clip-path="url(#p43630d292c)" style="fill: none; stroke: #1f77b4; stroke-width: 1.5; stroke-linecap: square"/>
   </g>
   <g id="line2d_14">
    <path d="M 74.579918 69.53615 
L 76.447896 64.958039 
L 78.315874 60.67879 
L 80.183852 56.878813 
L 82.05183 53.550914 
L 83.919808 50.569829 
L 85.787785 48.050485 
L 87.655763 45.985297 
L 89.523741 44.375775 
L 91.391719 43.247162 
L 93.259697 42.40151 
L 95.127674 41.689654 
L 98.86363 41.487638 
L 100.731608 41.692931 
L 102.599586 42.085801 
L 104.467564 42.618086 
L 108.203519 44.51025 
L 113.807453 47.698002 
L 119.411386 51.469574 
L 126.883297 55.321413 
L 128.751275 56.151914 
L 132.487231 57.47565 
L 134.355209 57.974843 
L 136.223187 58.334095 
L 138.091164 58.552866 
L 139.959142 58.630689 
L 141.82712 58.567177 
L 143.695098 58.362019 
L 145.563076 58.014982 
L 147.431053 57.525911 
L 151.167009 56.207695 
L 153.034987 55.376922 
L 160.506898 51.472939 
L 162.374876 50.280983 
L 166.110832 47.636679 
L 171.714765 44.36282 
L 173.582743 43.362265 
L 175.450721 42.515052 
L 177.318699 41.959795 
L 179.186676 41.60254 
L 181.054654 41.500995 
L 182.922632 41.589539 
L 184.79061 41.88683 
L 188.526566 43.648708 
L 190.394543 45.095103 
L 192.262521 47.060846 
L 194.130499 49.48348 
L 195.998477 52.486493 
L 197.866455 55.845265 
L 199.734432 59.741768 
L 201.60241 64.171088 
L 203.470388 69.006869 
L 205.338366 74.29015 
L 207.206344 80.181931 
L 210.942299 93.090026 
L 212.810277 100.074084 
L 216.546233 115.43327 
L 220.282189 132.265185 
L 225.886122 158.475289 
L 231.490055 185.541885 
L 237.093989 211.101492 
L 240.829945 227.064787 
L 244.5659 241.568219 
L 248.301856 254.403017 
L 250.169834 260.251157 
L 252.037811 265.702256 
L 253.905789 270.734489 
L 255.773767 275.351604 
L 257.641745 279.570621 
L 259.509723 283.352678 
L 261.377701 286.744024 
L 263.245678 289.760233 
L 265.113656 292.482938 
L 266.981634 294.852958 
L 268.849612 296.898199 
L 270.71759 298.705301 
L 272.585568 300.2827 
L 274.453545 301.610602 
L 276.321523 302.737291 
L 278.189501 303.703659 
L 280.057479 304.510687 
L 281.925457 305.173995 
L 285.661412 306.145139 
L 289.397368 306.769709 
L 293.133324 307.14666 
L 298.737257 307.434 
L 306.209168 307.559869 
L 328.624902 307.584 
L 397.740082 307.584 
L 397.740082 307.584 
" clip-path="url(#p43630d292c)" style="fill: none; stroke-dasharray: 5.55,2.4; stroke-dashoffset: 0; stroke: #000000; stroke-width: 1.5"/>
   </g>
   <g id="patch_3">
    <path d="M 57.6 307.584 
L 57.6 41.472 
" style="fill: none; stroke: #000000; stroke-width: 0.8; stroke-linejoin: miter; stroke-linecap: square"/>
   </g>
   <g id="patch_4">
    <path d="M 414.72 307.584 
L 414.72 41.472 
" style="fill: none; stroke: #000000; stroke-width: 0.8; stroke-linejoin: miter; stroke-linecap: square"/>
   </g>
   <g id="patch_5">
    <path d="M 57.6 307.584 
L 414.72 307.584 
" style="fill: none; stroke: #000000; stroke-width: 0.8; stroke-linejoin: miter; stroke-linecap: square"/>
   </g>
   <g id="patch_6">
    <path d="M 57.6 41.472 
L 414.72 41.472 
" style="fill: none; stroke: #000000; stroke-width: 0.8; stroke-linejoin: miter; stroke-linecap: square"/>
   </g>
  </g>
  <g id="axes_2">
   <g id="patch_7">
    <path d="M 73.832727 307.584 
L 75.32711 307.584 
L 75.32711 272.1024 
L 73.832727 272.1024 
z
" clip-path="url(#p43630d292c)" style="fill: #7f7f7f; opacity: 0.5"/>
   </g>
   <g id="patch_8">
    <path d="M 75.700705 307.584 
L 77.195087 307.584 
L 77.195087 272.1024 
L 75.700705 272.1024 
z
" clip-path="url(#p43630d292c)" style="fill: #7f7f7f; opacity: 0.5"/>
   </g>
   <g id="patch_9">
    <path d="M 77.568683 307.584 
L 79.063065 307.584 
L 79.063065 272.1024 
L 77.568683 272.1024 
z
" clip-path="url(#p43630d292c)" style="fill: #7f7f7f; opacity: 0.5"/>
   </g>
   <g id="patch_10">
    <path d="M 79.436661 307.584 
L 80.931043 307.584 
L 80.931043 307.584 
L 79.436661 307.584 
z
" clip-path="url(#p43630d292c)" style="fill: #7f7f7f; opacity: 0.5"/>
   </g>
   <g id="patch_11">
    <path d="M 81.304639 307.584 
L 82.799021 307.584 
L 82.799021 307.584 
L 81.304639 307.584 
z
" clip-path="url(#p43630d292c)" style="fill: #7f7f7f; opacity: 0.5"/>
   </g>
   <g id="patch_12">
    <path d="M 83.172616 307.584 
L 84.666999 307.584 
L 84.666999 307.584 
L 83.172616 307.584 
z
" clip-path="url(#p43630d292c)" style="fill: #7f7f7f; opacity: 0.5"/>
   </g>
   <g id="patch_13">
    <path d="M 85.040594 307.584 
L 86.534976 307.584 
L 86.534976 307.584 
L 85.040594 307.584 
z
" clip-path="url(#p43630d292c)" style="fill: #7f7f7f; opacity: 0.5"/>
   </g>
   <g id="patch_14">
    <path d="M 86.908572 307.584 
L 88.402954 307.584 
L 88.402954 307.584 
L 86.908572 307.584 
z
" clip-path="url(#p43630d292c)" style="fill: #7f7f7f; opacity: 0.5"/>
   </g>
   <g id="patch_15">
    <path d="M 88.77655 307.584 
L 90.270932 307.584 
L 90.270932 307.584 
L 88.77655 307.584 
z
" clip-path="url(#p43630d292c)" style="fill: #7f7f7f; opacity: 0.5"/>
   </g>
   <g id="patch_16">
    <path d="M 90.644528 307.584 
L 92.13891 307.584 
L 92.13891 289.8432 
L 90.644528 289.8432 
z
" clip-path="url(#p43630d292c)" style="fill: #7f7f7f; opacity: 0.5"/>
   </g>
   <g id="patch_17">
    <path d="M 92.512505 307.584 
L 94.006888 307.584 
L 94.006888 307.584 
L 92.512505 307.584 
z
" clip-path="url(#p43630d292c)" style="fill: #7f7f7f; opacity: 0.5"/>
   </g>
   <g id="patch_18">
    <path d="M 94.380483 307.584 
L 95.874866 307.584 
L 95.874866 307.584 
L 94.380483 307.584 
z
" clip-path="url(#p43630d292c)" style="fill: #7f7f7f; opacity: 0.5"/>
   </g>
   <g id="patch_19">
    <path d="M 96.248461 307.584 
L 97.742843 307.584 
L 97.742843 307.584 
L 96.248461 307.584 
z
" clip-path="url(#p43630d292c)" style="fill: #7f7f7f; opacity: 0.5"/>
   </g>
   <g id="patch_20">
    <path d="M 98.116439 307.584 
L 99.610821 307.584 
L 99.610821 307.584 
L 98.116439 307.584 
z
" clip-path="url(#p43630d292c)" style="fill: #7f7f7f; opacity: 0.5"/>
   </g>
   <g id="patch_21">
    <path d="M 99.984417 307.584 
L 101.478799 307.584 
L 101.478799 307.584 
L 99.984417 307.584 
z
" clip-path="url(#p43630d292c)" style="fill: #7f7f7f; opacity: 0.5"/>
   </g>
   <g id="patch_22">
    <path d="M 101.852395 307.584 
L 103.346777 307.584 
L 103.346777 307.584 
L 101.852395 307.584 
z
" clip-path="url(#p43630d292c)" style="fill: #7f7f7f; opacity: 0.5"/>
   </g>
   <g id="patch_23">
    <path d="M 103.720372 307.584 
L 105.214755 307.584 
L 105.214755 307.584 
L 103.720372 307.584 
z
" clip-path="url(#p43630d292c)" style="fill: #7f7f7f; opacity: 0.5"/>
   </g>
   <g id="patch_24">
    <path d="M 105.58835 307.584 
L 107.082733 307.584 
L 107.082733 307.584 
L 105.58835 307.584 
z
" clip-path="url(#p43630d292c)" style="fill: #7f7f7f; opacity: 0.5"/>
   </g>
   <g id="patch_25">
    <path d="M 107.456328 307.584 
L 108.95071 307.584 
L 108.95071 307.584 
L 107.456328 307.584 
z
" clip-path="url(#p43630d292c)" style="fill: #7f7f7f; opacity: 0.5"/>
   </g>
   <g id="patch_26">
    <path d="M 109.324306 307.584 
L 110.818688 307.584 
L 110.818688 289.8432 
L 109.324306 289.8432 
z
" clip-path="url(#p43630d292c)" style="fill: #7f7f7f; opacity: 0.5"/>
   </g>
   <g id="patch_27">
    <path d="M 111.192284 307.584 
L 112.686666 307.584 
L 112.686666 307.584 
L 111.192284 307.584 
z
" clip-path="url(#p43630d292c)" style="fill: #7f7f7f; opacity: 0.5"/>
   </g>
   <g id="patch_28">
    <path d="M 113.060262 307.584 
L 114.554644 307.584 
L 114.554644 307.584 
L 113.060262 307.584 
z
" clip-path="url(#p43630d292c)" style="fill: #7f7f7f; opacity: 0.5"/>
   </g>
   <g id="patch_29">
    <path d="M 114.928239 307.584 
L 116.422622 307.584 
L 116.422622 289.8432 
L 114.928239 289.8432 
z
" clip-path="url(#p43630d292c)" style="fill: #7f7f7f; opacity: 0.5"/>
   </g>
   <g id="patch_30">
    <path d="M 116.796217 307.584 
L 118.290599 307.584 
L 118.290599 307.584 
L 116.796217 307.584 
z
" clip-path="url(#p43630d292c)" style="fill: #7f7f7f; opacity: 0.5"/>
   </g>
   <g id="patch_31">
    <path d="M 118.664195 307.584 
L 120.158577 307.584 
L 120.158577 289.8432 
L 118.664195 289.8432 
z
" clip-path="url(#p43630d292c)" style="fill: #7f7f7f; opacity: 0.5"/>
   </g>
   <g id="patch_32">
    <path d="M 120.532173 307.584 
L 122.026555 307.584 
L 122.026555 307.584 
L 120.532173 307.584 
z
" clip-path="url(#p43630d292c)" style="fill: #7f7f7f; opacity: 0.5"/>
   </g>
   <g id="patch_33">
    <path d="M 122.400151 307.584 
L 123.894533 307.584 
L 123.894533 289.8432 
L 122.400151 289.8432 
z
" clip-path="url(#p43630d292c)" style="fill: #7f7f7f; opacity: 0.5"/>
   </g>
   <g id="patch_34">
    <path d="M 124.268128 307.584 
L 125.762511 307.584 
L 125.762511 307.584 
L 124.268128 307.584 
z
" clip-path="url(#p43630d292c)" style="fill: #7f7f7f; opacity: 0.5"/>
   </g>
   <g id="patch_35">
    <path d="M 126.136106 307.584 
L 127.630489 307.584 
L 127.630489 289.8432 
L 126.136106 289.8432 
z
" clip-path="url(#p43630d292c)" style="fill: #7f7f7f; opacity: 0.5"/>
   </g>
   <g id="patch_36">
    <path d="M 128.004084 307.584 
L 129.498466 307.584 
L 129.498466 289.8432 
L 128.004084 289.8432 
z
" clip-path="url(#p43630d292c)" style="fill: #7f7f7f; opacity: 0.5"/>
   </g>
   <g id="patch_37">
    <path d="M 129.872062 307.584 
L 131.366444 307.584 
L 131.366444 307.584 
L 129.872062 307.584 
z
" clip-path="url(#p43630d292c)" style="fill: #7f7f7f; opacity: 0.5"/>
   </g>
   <g id="patch_38">
    <path d="M 131.74004 307.584 
L 133.234422 307.584 
L 133.234422 289.8432 
L 131.74004 289.8432 
z
" clip-path="url(#p43630d292c)" style="fill: #7f7f7f; opacity: 0.5"/>
   </g>
   <g id="patch_39">
    <path d="M 133.608018 307.584 
L 135.1024 307.584 
L 135.1024 289.8432 
L 133.608018 289.8432 
z
" clip-path="url(#p43630d292c)" style="fill: #7f7f7f; opacity: 0.5"/>
   </g>
   <g id="patch_40">
    <path d="M 135.475995 307.584 
L 136.970378 307.584 
L 136.970378 307.584 
L 135.475995 307.584 
z
" clip-path="url(#p43630d292c)" style="fill: #7f7f7f; opacity: 0.5"/>
   </g>
   <g id="patch_41">
    <path d="M 137.343973 307.584 
L 138.838355 307.584 
L 138.838355 289.8432 
L 137.343973 289.8432 
z
" clip-path="url(#p43630d292c)" style="fill: #7f7f7f; opacity: 0.5"/>
   </g>
   <g id="patch_42">
    <path d="M 139.211951 307.584 
L 140.706333 307.584 
L 140.706333 307.584 
L 139.211951 307.584 
z
" clip-path="url(#p43630d292c)" style="fill: #7f7f7f; opacity: 0.5"/>
   </g>
   <g id="patch_43">
    <path d="M 141.079929 307.584 
L 142.574311 307.584 
L 142.574311 307.584 
L 141.079929 307.584 
z
" clip-path="url(#p43630d292c)" style="fill: #7f7f7f; opacity: 0.5"/>
   </g>
   <g id="patch_44">
    <path d="M 142.947907 307.584 
L 144.442289 307.584 
L 144.442289 254.3616 
L 142.947907 254.3616 
z
" clip-path="url(#p43630d292c)" style="fill: #7f7f7f; opacity: 0.5"/>
   </g>
   <g id="patch_45">
    <path d="M 144.815885 307.584 
L 146.310267 307.584 
L 146.310267 272.1024 
L 144.815885 272.1024 
z
" clip-path="url(#p43630d292c)" style="fill: #7f7f7f; opacity: 0.5"/>
   </g>
   <g id="patch_46">
    <path d="M 146.683862 307.584 
L 148.178245 307.584 
L 148.178245 289.8432 
L 146.683862 289.8432 
z
" clip-path="url(#p43630d292c)" style="fill: #7f7f7f; opacity: 0.5"/>
   </g>
   <g id="patch_47">
    <path d="M 148.55184 307.584 
L 150.046222 307.584 
L 150.046222 289.8432 
L 148.55184 289.8432 
z
" clip-path="url(#p43630d292c)" style="fill: #7f7f7f; opacity: 0.5"/>
   </g>
   <g id="patch_48">
    <path d="M 150.419818 307.584 
L 151.9142 307.584 
L 151.9142 289.8432 
L 150.419818 289.8432 
z
" clip-path="url(#p43630d292c)" style="fill: #7f7f7f; opacity: 0.5"/>
   </g>
   <g id="patch_49">
    <path d="M 152.287796 307.584 
L 153.782178 307.584 
L 153.782178 289.8432 
L 152.287796 289.8432 
z
" clip-path="url(#p43630d292c)" style="fill: #7f7f7f; opacity: 0.5"/>
   </g>
   <g id="patch_50">
    <path d="M 154.155774 307.584 
L 155.650156 307.584 
L 155.650156 254.3616 
L 154.155774 254.3616 
z
" clip-path="url(#p43630d292c)" style="fill: #7f7f7f; opacity: 0.5"/>
   </g>
   <g id="patch_51">
    <path d="M 156.023751 307.584 
L 157.518134 307.584 
L 157.518134 307.584 
L 156.023751 307.584 
z
" clip-path="url(#p43630d292c)" style="fill: #7f7f7f; opacity: 0.5"/>
   </g>
   <g id="patch_52">
    <path d="M 157.891729 307.584 
L 159.386112 307.584 
L 159.386112 289.8432 
L 157.891729 289.8432 
z
" clip-path="url(#p43630d292c)" style="fill: #7f7f7f; opacity: 0.5"/>
   </g>
   <g id="patch_53">
    <path d="M 159.759707 307.584 
L 161.254089 307.584 
L 161.254089 289.8432 
L 159.759707 289.8432 
z
" clip-path="url(#p43630d292c)" style="fill: #7f7f7f; opacity: 0.5"/>
   </g>
   <g id="patch_54">
    <path d="M 161.627685 307.584 
L 163.122067 307.584 
L 163.122067 236.6208 
L 161.627685 236.6208 
z
" clip-path="url(#p43630d292c)" style="fill: #7f7f7f; opacity: 0.5"/>
   </g>
   <g id="patch_55">
    <path d="M 163.495663 307.584 
L 164.990045 307.584 
L 164.990045 254.3616 
L 163.495663 254.3616 
z
" clip-path="url(#p43630d292c)" style="fill: #7f7f7f; opacity: 0.5"/>
   </g>
   <g id="patch_56">
    <path d="M 165.363641 307.584 
L 166.858023 307.584 
L 166.858023 254.3616 
L 165.363641 254.3616 
z
" clip-path="url(#p43630d292c)" style="fill: #7f7f7f; opacity: 0.5"/>
   </g>
   <g id="patch_57">
    <path d="M 167.231618 307.584 
L 168.726001 307.584 
L 168.726001 272.1024 
L 167.231618 272.1024 
z
" clip-path="url(#p43630d292c)" style="fill: #7f7f7f; opacity: 0.5"/>
   </g>
   <g id="patch_58">
    <path d="M 169.099596 307.584 
L 170.593978 307.584 
L 170.593978 236.6208 
L 169.099596 236.6208 
z
" clip-path="url(#p43630d292c)" style="fill: #7f7f7f; opacity: 0.5"/>
   </g>
   <g id="patch_59">
    <path d="M 170.967574 307.584 
L 172.461956 307.584 
L 172.461956 236.6208 
L 170.967574 236.6208 
z
" clip-path="url(#p43630d292c)" style="fill: #7f7f7f; opacity: 0.5"/>
   </g>
   <g id="patch_60">
    <path d="M 172.835552 307.584 
L 174.329934 307.584 
L 174.329934 165.6576 
L 172.835552 165.6576 
z
" clip-path="url(#p43630d292c)" style="fill: #7f7f7f; opacity: 0.5"/>
   </g>
   <g id="patch_61">
    <path d="M 174.70353 307.584 
L 176.197912 307.584 
L 176.197912 218.88 
L 174.70353 218.88 
z
" clip-path="url(#p43630d292c)" style="fill: #7f7f7f; opacity: 0.5"/>
   </g>
   <g id="patch_62">
    <path d="M 176.571507 307.584 
L 178.06589 307.584 
L 178.06589 165.6576 
L 176.571507 165.6576 
z
" clip-path="url(#p43630d292c)" style="fill: #7f7f7f; opacity: 0.5"/>
   </g>
   <g id="patch_63">
    <path d="M 178.439485 307.584 
L 179.933868 307.584 
L 179.933868 218.88 
L 178.439485 218.88 
z
" clip-path="url(#p43630d292c)" style="fill: #7f7f7f; opacity: 0.5"/>
   </g>
   <g id="patch_64">
    <path d="M 180.307463 307.584 
L 181.801845 307.584 
L 181.801845 236.6208 
L 180.307463 236.6208 
z
" clip-path="url(#p43630d292c)" style="fill: #7f7f7f; opacity: 0.5"/>
   </g>
   <g id="patch_65">
    <path d="M 182.175441 307.584 
L 183.669823 307.584 
L 183.669823 218.88 
L 182.175441 218.88 
z
" clip-path="url(#p43630d292c)" style="fill: #7f7f7f; opacity: 0.5"/>
   </g>
   <g id="patch_66">
    <path d="M 184.043419 307.584 
L 185.537801 307.584 
L 185.537801 183.3984 
L 184.043419 183.3984 
z
" clip-path="url(#p43630d292c)" style="fill: #7f7f7f; opacity: 0.5"/>
   </g>
   <g id="patch_67">
    <path d="M 185.911397 307.584 
L 187.405779 307.584 
L 187.405779 272.1024 
L 185.911397 272.1024 
z
" clip-path="url(#p43630d292c)" style="fill: #7f7f7f; opacity: 0.5"/>
   </g>
   <g id="patch_68">
    <path d="M 187.779374 307.584 
L 189.273757 307.584 
L 189.273757 289.8432 
L 187.779374 289.8432 
z
" clip-path="url(#p43630d292c)" style="fill: #7f7f7f; opacity: 0.5"/>
   </g>
   <g id="patch_69">
    <path d="M 189.647352 307.584 
L 191.141734 307.584 
L 191.141734 165.6576 
L 189.647352 165.6576 
z
" clip-path="url(#p43630d292c)" style="fill: #7f7f7f; opacity: 0.5"/>
   </g>
   <g id="patch_70">
    <path d="M 191.51533 307.584 
L 193.009712 307.584 
L 193.009712 272.1024 
L 191.51533 272.1024 
z
" clip-path="url(#p43630d292c)" style="fill: #7f7f7f; opacity: 0.5"/>
   </g>
   <g id="patch_71">
    <path d="M 193.383308 307.584 
L 194.87769 307.584 
L 194.87769 236.6208 
L 193.383308 236.6208 
z
" clip-path="url(#p43630d292c)" style="fill: #7f7f7f; opacity: 0.5"/>
   </g>
   <g id="patch_72">
    <path d="M 195.251286 307.584 
L 196.745668 307.584 
L 196.745668 272.1024 
L 195.251286 272.1024 
z
" clip-path="url(#p43630d292c)" style="fill: #7f7f7f; opacity: 0.5"/>
   </g>
   <g id="patch_73">
    <path d="M 197.119264 307.584 
L 198.613646 307.584 
L 198.613646 147.9168 
L 197.119264 147.9168 
z
" clip-path="url(#p43630d292c)" style="fill: #7f7f7f; opacity: 0.5"/>
   </g>
   <g id="patch_74">
    <path d="M 198.987241 307.584 
L 200.481624 307.584 
L 200.481624 165.6576 
L 198.987241 165.6576 
z
" clip-path="url(#p43630d292c)" style="fill: #7f7f7f; opacity: 0.5"/>
   </g>
   <g id="patch_75">
    <path d="M 200.855219 307.584 
L 202.349601 307.584 
L 202.349601 165.6576 
L 200.855219 165.6576 
z
" clip-path="url(#p43630d292c)" style="fill: #7f7f7f; opacity: 0.5"/>
   </g>
   <g id="patch_76">
    <path d="M 202.723197 307.584 
L 204.217579 307.584 
L 204.217579 183.3984 
L 202.723197 183.3984 
z
" clip-path="url(#p43630d292c)" style="fill: #7f7f7f; opacity: 0.5"/>
   </g>
   <g id="patch_77">
    <path d="M 204.591175 307.584 
L 206.085557 307.584 
L 206.085557 147.9168 
L 204.591175 147.9168 
z
" clip-path="url(#p43630d292c)" style="fill: #7f7f7f; opacity: 0.5"/>
   </g>
   <g id="patch_78">
    <path d="M 206.459153 307.584 
L 207.953535 307.584 
L 207.953535 94.6944 
L 206.459153 94.6944 
z
" clip-path="url(#p43630d292c)" style="fill: #7f7f7f; opacity: 0.5"/>
   </g>
   <g id="patch_79">
    <path d="M 208.32713 307.584 
L 209.821513 307.584 
L 209.821513 94.6944 
L 208.32713 94.6944 
z
" clip-path="url(#p43630d292c)" style="fill: #7f7f7f; opacity: 0.5"/>
   </g>
   <g id="patch_80">
    <path d="M 210.195108 307.584 
L 211.689491 307.584 
L 211.689491 183.3984 
L 210.195108 183.3984 
z
" clip-path="url(#p43630d292c)" style="fill: #7f7f7f; opacity: 0.5"/>
   </g>
   <g id="patch_81">
    <path d="M 212.063086 307.584 
L 213.557468 307.584 
L 213.557468 94.6944 
L 212.063086 94.6944 
z
" clip-path="url(#p43630d292c)" style="fill: #7f7f7f; opacity: 0.5"/>
   </g>
   <g id="patch_82">
    <path d="M 213.931064 307.584 
L 215.425446 307.584 
L 215.425446 272.1024 
L 213.931064 272.1024 
z
" clip-path="url(#p43630d292c)" style="fill: #7f7f7f; opacity: 0.5"/>
   </g>
   <g id="patch_83">
    <path d="M 215.799042 307.584 
L 217.293424 307.584 
L 217.293424 41.472 
L 215.799042 41.472 
z
" clip-path="url(#p43630d292c)" style="fill: #7f7f7f; opacity: 0.5"/>
   </g>
   <g id="patch_84">
    <path d="M 217.66702 307.584 
L 219.161402 307.584 
L 219.161402 112.4352 
L 217.66702 112.4352 
z
" clip-path="url(#p43630d292c)" style="fill: #7f7f7f; opacity: 0.5"/>
   </g>
   <g id="patch_85">
    <path d="M 219.534997 307.584 
L 221.02938 307.584 
L 221.02938 218.88 
L 219.534997 218.88 
z
" clip-path="url(#p43630d292c)" style="fill: #7f7f7f; opacity: 0.5"/>
   </g>
   <g id="patch_86">
    <path d="M 221.402975 307.584 
L 222.897357 307.584 
L 222.897357 236.6208 
L 221.402975 236.6208 
z
" clip-path="url(#p43630d292c)" style="fill: #7f7f7f; opacity: 0.5"/>
   </g>
   <g id="patch_87">
    <path d="M 223.270953 307.584 
L 224.765335 307.584 
L 224.765335 272.1024 
L 223.270953 272.1024 
z
" clip-path="url(#p43630d292c)" style="fill: #7f7f7f; opacity: 0.5"/>
   </g>
   <g id="patch_88">
    <path d="M 225.138931 307.584 
L 226.633313 307.584 
L 226.633313 236.6208 
L 225.138931 236.6208 
z
" clip-path="url(#p43630d292c)" style="fill: #7f7f7f; opacity: 0.5"/>
   </g>
   <g id="patch_89">
    <path d="M 227.006909 307.584 
L 228.501291 307.584 
L 228.501291 183.3984 
L 227.006909 183.3984 
z
" clip-path="url(#p43630d292c)" style="fill: #7f7f7f; opacity: 0.5"/>
   </g>
   <g id="patch_90">
    <path d="M 228.874886 307.584 
L 230.369269 307.584 
L 230.369269 76.9536 
L 228.874886 76.9536 
z
" clip-path="url(#p43630d292c)" style="fill: #7f7f7f; opacity: 0.5"/>
   </g>
   <g id="patch_91">
    <path d="M 230.742864 307.584 
L 232.237247 307.584 
L 232.237247 201.1392 
L 230.742864 201.1392 
z
" clip-path="url(#p43630d292c)" style="fill: #7f7f7f; opacity: 0.5"/>
   </g>
   <g id="patch_92">
    <path d="M 232.610842 307.584 
L 234.105224 307.584 
L 234.105224 165.6576 
L 232.610842 165.6576 
z
" clip-path="url(#p43630d292c)" style="fill: #7f7f7f; opacity: 0.5"/>
   </g>
   <g id="patch_93">
    <path d="M 234.47882 307.584 
L 235.973202 307.584 
L 235.973202 236.6208 
L 234.47882 236.6208 
z
" clip-path="url(#p43630d292c)" style="fill: #7f7f7f; opacity: 0.5"/>
   </g>
   <g id="patch_94">
    <path d="M 236.346798 307.584 
L 237.84118 307.584 
L 237.84118 218.88 
L 236.346798 218.88 
z
" clip-path="url(#p43630d292c)" style="fill: #7f7f7f; opacity: 0.5"/>
   </g>
   <g id="patch_95">
    <path d="M 238.214776 307.584 
L 239.709158 307.584 
L 239.709158 254.3616 
L 238.214776 254.3616 
z
" clip-path="url(#p43630d292c)" style="fill: #7f7f7f; opacity: 0.5"/>
   </g>
   <g id="patch_96">
    <path d="M 240.082753 307.584 
L 241.577136 307.584 
L 241.577136 272.1024 
L 240.082753 272.1024 
z
" clip-path="url(#p43630d292c)" style="fill: #7f7f7f; opacity: 0.5"/>
   </g>
   <g id="patch_97">
    <path d="M 241.950731 307.584 
L 243.445114 307.584 
L 243.445114 272.1024 
L 241.950731 272.1024 
z
" clip-path="url(#p43630d292c)" style="fill: #7f7f7f; opacity: 0.5"/>
   </g>
   <g id="patch_98">
    <path d="M 243.818709 307.584 
L 245.313091 307.584 
L 245.313091 307.584 
L 243.818709 307.584 
z
" clip-path="url(#p43630d292c)" style="fill: #7f7f7f; opacity: 0.5"/>
   </g>
   <g id="patch_99">
    <path d="M 245.686687 307.584 
L 247.181069 307.584 
L 247.181069 289.8432 
L 245.686687 289.8432 
z
" clip-path="url(#p43630d292c)" style="fill: #7f7f7f; opacity: 0.5"/>
   </g>
   <g id="patch_100">
    <path d="M 247.554665 307.584 
L 249.049047 307.584 
L 249.049047 272.1024 
L 247.554665 272.1024 
z
" clip-path="url(#p43630d292c)" style="fill: #7f7f7f; opacity: 0.5"/>
   </g>
   <g id="patch_101">
    <path d="M 249.422643 307.584 
L 250.917025 307.584 
L 250.917025 254.3616 
L 249.422643 254.3616 
z
" clip-path="url(#p43630d292c)" style="fill: #7f7f7f; opacity: 0.5"/>
   </g>
   <g id="patch_102">
    <path d="M 251.29062 307.584 
L 252.785003 307.584 
L 252.785003 289.8432 
L 251.29062 289.8432 
z
" clip-path="url(#p43630d292c)" style="fill: #7f7f7f; opacity: 0.5"/>
   </g>
   <g id="patch_103">
    <path d="M 253.158598 307.584 
L 254.65298 307.584 
L 254.65298 254.3616 
L 253.158598 254.3616 
z
" clip-path="url(#p43630d292c)" style="fill: #7f7f7f; opacity: 0.5"/>
   </g>
   <g id="patch_104">
    <path d="M 255.026576 307.584 
L 256.520958 307.584 
L 256.520958 272.1024 
L 255.026576 272.1024 
z
" clip-path="url(#p43630d292c)" style="fill: #7f7f7f; opacity: 0.5"/>
   </g>
   <g id="patch_105">
    <path d="M 256.894554 307.584 
L 258.388936 307.584 
L 258.388936 307.584 
L 256.894554 307.584 
z
" clip-path="url(#p43630d292c)" style="fill: #7f7f7f; opacity: 0.5"/>
   </g>
   <g id="patch_106">
    <path d="M 258.762532 307.584 
L 260.256914 307.584 
L 260.256914 307.584 
L 258.762532 307.584 
z
" clip-path="url(#p43630d292c)" style="fill: #7f7f7f; opacity: 0.5"/>
   </g>
   <g id="patch_107">
    <path d="M 260.630509 307.584 
L 262.124892 307.584 
L 262.124892 289.8432 
L 260.630509 289.8432 
z
" clip-path="url(#p43630d292c)" style="fill: #7f7f7f; opacity: 0.5"/>
   </g>
   <g id="patch_108">
    <path d="M 262.498487 307.584 
L 263.99287 307.584 
L 263.99287 272.1024 
L 262.498487 272.1024 
z
" clip-path="url(#p43630d292c)" style="fill: #7f7f7f; opacity: 0.5"/>
   </g>
   <g id="patch_109">
    <path d="M 264.366465 307.584 
L 265.860847 307.584 
L 265.860847 289.8432 
L 264.366465 289.8432 
z
" clip-path="url(#p43630d292c)" style="fill: #7f7f7f; opacity: 0.5"/>
   </g>
   <g id="patch_110">
    <path d="M 266.234443 307.584 
L 267.728825 307.584 
L 267.728825 307.584 
L 266.234443 307.584 
z
" clip-path="url(#p43630d292c)" style="fill: #7f7f7f; opacity: 0.5"/>
   </g>
   <g id="patch_111">
    <path d="M 268.102421 307.584 
L 269.596803 307.584 
L 269.596803 289.8432 
L 268.102421 289.8432 
z
" clip-path="url(#p43630d292c)" style="fill: #7f7f7f; opacity: 0.5"/>
   </g>
   <g id="patch_112">
    <path d="M 269.970399 307.584 
L 271.464781 307.584 
L 271.464781 307.584 
L 269.970399 307.584 
z
" clip-path="url(#p43630d292c)" style="fill: #7f7f7f; opacity: 0.5"/>
   </g>
   <g id="patch_113">
    <path d="M 271.838376 307.584 
L 273.332759 307.584 
L 273.332759 289.8432 
L 271.838376 289.8432 
z
" clip-path="url(#p43630d292c)" style="fill: #7f7f7f; opacity: 0.5"/>
   </g>
   <g id="patch_114">
    <path d="M 273.706354 307.584 
L 275.200736 307.584 
L 275.200736 307.584 
L 273.706354 307.584 
z
" clip-path="url(#p43630d292c)" style="fill: #7f7f7f; opacity: 0.5"/>
   </g>
   <g id="patch_115">
    <path d="M 275.574332 307.584 
L 277.068714 307.584 
L 277.068714 307.584 
L 275.574332 307.584 
z
" clip-path="url(#p43630d292c)" style="fill: #7f7f7f; opacity: 0.5"/>
   </g>
   <g id="patch_116">
    <path d="M 277.44231 307.584 
L 278.936692 307.584 
L 278.936692 307.584 
L 277.44231 307.584 
z
" clip-path="url(#p43630d292c)" style="fill: #7f7f7f; opacity: 0.5"/>
   </g>
   <g id="patch_117">
    <path d="M 279.310288 307.584 
L 280.80467 307.584 
L 280.80467 289.8432 
L 279.310288 289.8432 
z
" clip-path="url(#p43630d292c)" style="fill: #7f7f7f; opacity: 0.5"/>
   </g>
   <g id="patch_118">
    <path d="M 281.178266 307.584 
L 282.672648 307.584 
L 282.672648 289.8432 
L 281.178266 289.8432 
z
" clip-path="url(#p43630d292c)" style="fill: #7f7f7f; opacity: 0.5"/>
   </g>
   <g id="patch_119">
    <path d="M 283.046243 307.584 
L 284.540626 307.584 
L 284.540626 307.584 
L 283.046243 307.584 
z
" clip-path="url(#p43630d292c)" style="fill: #7f7f7f; opacity: 0.5"/>
   </g>
   <g id="patch_120">
    <path d="M 284.914221 307.584 
L 286.408603 307.584 
L 286.408603 307.584 
L 284.914221 307.584 
z
" clip-path="url(#p43630d292c)" style="fill: #7f7f7f; opacity: 0.5"/>
   </g>
   <g id="patch_121">
    <path d="M 286.782199 307.584 
L 288.276581 307.584 
L 288.276581 307.584 
L 286.782199 307.584 
z
" clip-path="url(#p43630d292c)" style="fill: #7f7f7f; opacity: 0.5"/>
   </g>
   <g id="patch_122">
    <path d="M 288.650177 307.584 
L 290.144559 307.584 
L 290.144559 289.8432 
L 288.650177 289.8432 
z
" clip-path="url(#p43630d292c)" style="fill: #7f7f7f; opacity: 0.5"/>
   </g>
   <g id="patch_123">
    <path d="M 290.518155 307.584 
L 292.012537 307.584 
L 292.012537 307.584 
L 290.518155 307.584 
z
" clip-path="url(#p43630d292c)" style="fill: #7f7f7f; opacity: 0.5"/>
   </g>
   <g id="patch_124">
    <path d="M 292.386132 307.584 
L 293.880515 307.584 
L 293.880515 307.584 
L 292.386132 307.584 
z
" clip-path="url(#p43630d292c)" style="fill: #7f7f7f; opacity: 0.5"/>
   </g>
   <g id="patch_125">
    <path d="M 294.25411 307.584 
L 295.748493 307.584 
L 295.748493 307.584 
L 294.25411 307.584 
z
" clip-path="url(#p43630d292c)" style="fill: #7f7f7f; opacity: 0.5"/>
   </g>
   <g id="patch_126">
    <path d="M 296.122088 307.584 
L 297.61647 307.584 
L 297.61647 307.584 
L 296.122088 307.584 
z
" clip-path="url(#p43630d292c)" style="fill: #7f7f7f; opacity: 0.5"/>
   </g>
   <g id="patch_127">
    <path d="M 297.990066 307.584 
L 299.484448 307.584 
L 299.484448 307.584 
L 297.990066 307.584 
z
" clip-path="url(#p43630d292c)" style="fill: #7f7f7f; opacity: 0.5"/>
   </g>
   <g id="patch_128">
    <path d="M 299.858044 307.584 
L 301.352426 307.584 
L 301.352426 307.584 
L 299.858044 307.584 
z
" clip-path="url(#p43630d292c)" style="fill: #7f7f7f; opacity: 0.5"/>
   </g>
   <g id="patch_129">
    <path d="M 301.726022 307.584 
L 303.220404 307.584 
L 303.220404 307.584 
L 301.726022 307.584 
z
" clip-path="url(#p43630d292c)" style="fill: #7f7f7f; opacity: 0.5"/>
   </g>
   <g id="patch_130">
    <path d="M 303.593999 307.584 
L 305.088382 307.584 
L 305.088382 307.584 
L 303.593999 307.584 
z
" clip-path="url(#p43630d292c)" style="fill: #7f7f7f; opacity: 0.5"/>
   </g>
   <g id="patch_131">
    <path d="M 305.461977 307.584 
L 306.956359 307.584 
L 306.956359 307.584 
L 305.461977 307.584 
z
" clip-path="url(#p43630d292c)" style="fill: #7f7f7f; opacity: 0.5"/>
   </g>
   <g id="patch_132">
    <path d="M 307.329955 307.584 
L 308.824337 307.584 
L 308.824337 289.8432 
L 307.329955 289.8432 
z
" clip-path="url(#p43630d292c)" style="fill: #7f7f7f; opacity: 0.5"/>
   </g>
   <g id="patch_133">
    <path d="M 309.197933 307.584 
L 310.692315 307.584 
L 310.692315 307.584 
L 309.197933 307.584 
z
" clip-path="url(#p43630d292c)" style="fill: #7f7f7f; opacity: 0.5"/>
   </g>
   <g id="patch_134">
    <path d="M 311.065911 307.584 
L 312.560293 307.584 
L 312.560293 307.584 
L 311.065911 307.584 
z
" clip-path="url(#p43630d292c)" style="fill: #7f7f7f; opacity: 0.5"/>
   </g>
   <g id="patch_135">
    <path d="M 312.933888 307.584 
L 314.428271 307.584 
L 314.428271 307.584 
L 312.933888 307.584 
z
" clip-path="url(#p43630d292c)" style="fill: #7f7f7f; opacity: 0.5"/>
   </g>
   <g id="patch_136">
    <path d="M 314.801866 307.584 
L 316.296249 307.584 
L 316.296249 307.584 
L 314.801866 307.584 
z
" clip-path="url(#p43630d292c)" style="fill: #7f7f7f; opacity: 0.5"/>
   </g>
   <g id="patch_137">
    <path d="M 316.669844 307.584 
L 318.164226 307.584 
L 318.164226 307.584 
L 316.669844 307.584 
z
" clip-path="url(#p43630d292c)" style="fill: #7f7f7f; opacity: 0.5"/>
   </g>
   <g id="patch_138">
    <path d="M 318.537822 307.584 
L 320.032204 307.584 
L 320.032204 307.584 
L 318.537822 307.584 
z
" clip-path="url(#p43630d292c)" style="fill: #7f7f7f; opacity: 0.5"/>
   </g>
   <g id="patch_139">
    <path d="M 320.4058 307.584 
L 321.900182 307.584 
L 321.900182 289.8432 
L 320.4058 289.8432 
z
" clip-path="url(#p43630d292c)" style="fill: #7f7f7f; opacity: 0.5"/>
   </g>
   <g id="patch_140">
    <path d="M 322.273778 307.584 
L 323.76816 307.584 
L 323.76816 307.584 
L 322.273778 307.584 
z
" clip-path="url(#p43630d292c)" style="fill: #7f7f7f; opacity: 0.5"/>
   </g>
   <g id="patch_141">
    <path d="M 324.141755 307.584 
L 325.636138 307.584 
L 325.636138 307.584 
L 324.141755 307.584 
z
" clip-path="url(#p43630d292c)" style="fill: #7f7f7f; opacity: 0.5"/>
   </g>
   <g id="patch_142">
    <path d="M 326.009733 307.584 
L 327.504115 307.584 
L 327.504115 307.584 
L 326.009733 307.584 
z
" clip-path="url(#p43630d292c)" style="fill: #7f7f7f; opacity: 0.5"/>
   </g>
   <g id="patch_143">
    <path d="M 327.877711 307.584 
L 329.372093 307.584 
L 329.372093 307.584 
L 327.877711 307.584 
z
" clip-path="url(#p43630d292c)" style="fill: #7f7f7f; opacity: 0.5"/>
   </g>
   <g id="patch_144">
    <path d="M 329.745689 307.584 
L 331.240071 307.584 
L 331.240071 307.584 
L 329.745689 307.584 
z
" clip-path="url(#p43630d292c)" style="fill: #7f7f7f; opacity: 0.5"/>
   </g>
   <g id="patch_145">
    <path d="M 331.613667 307.584 
L 333.108049 307.584 
L 333.108049 307.584 
L 331.613667 307.584 
z
" clip-path="url(#p43630d292c)" style="fill: #7f7f7f; opacity: 0.5"/>
   </g>
   <g id="patch_146">
    <path d="M 333.481645 307.584 
L 334.976027 307.584 
L 334.976027 307.584 
L 333.481645 307.584 
z
" clip-path="url(#p43630d292c)" style="fill: #7f7f7f; opacity: 0.5"/>
   </g>
   <g id="patch_147">
    <path d="M 335.349622 307.584 
L 336.844005 307.584 
L 336.844005 307.584 
L 335.349622 307.584 
z
" clip-path="url(#p43630d292c)" style="fill: #7f7f7f; opacity: 0.5"/>
   </g>
   <g id="patch_148">
    <path d="M 337.2176 307.584 
L 338.711982 307.584 
L 338.711982 307.584 
L 337.2176 307.584 
z
" clip-path="url(#p43630d292c)" style="fill: #7f7f7f; opacity: 0.5"/>
   </g>
   <g id="patch_149">
    <path d="M 339.085578 307.584 
L 340.57996 307.584 
L 340.57996 307.584 
L 339.085578 307.584 
z
" clip-path="url(#p43630d292c)" style="fill: #7f7f7f; opacity: 0.5"/>
   </g>
   <g id="patch_150">
    <path d="M 340.953556 307.584 
L 342.447938 307.584 
L 342.447938 307.584 
L 340.953556 307.584 
z
" clip-path="url(#p43630d292c)" style="fill: #7f7f7f; opacity: 0.5"/>
   </g>
   <g id="patch_151">
    <path d="M 342.821534 307.584 
L 344.315916 307.584 
L 344.315916 307.584 
L 342.821534 307.584 
z
" clip-path="url(#p43630d292c)" style="fill: #7f7f7f; opacity: 0.5"/>
   </g>
   <g id="patch_152">
    <path d="M 344.689511 307.584 
L 346.183894 307.584 
L 346.183894 307.584 
L 344.689511 307.584 
z
" clip-path="url(#p43630d292c)" style="fill: #7f7f7f; opacity: 0.5"/>
   </g>
   <g id="patch_153">
    <path d="M 346.557489 307.584 
L 348.051872 307.584 
L 348.051872 307.584 
L 346.557489 307.584 
z
" clip-path="url(#p43630d292c)" style="fill: #7f7f7f; opacity: 0.5"/>
   </g>
   <g id="patch_154">
    <path d="M 348.425467 307.584 
L 349.919849 307.584 
L 349.919849 307.584 
L 348.425467 307.584 
z
" clip-path="url(#p43630d292c)" style="fill: #7f7f7f; opacity: 0.5"/>
   </g>
   <g id="patch_155">
    <path d="M 350.293445 307.584 
L 351.787827 307.584 
L 351.787827 307.584 
L 350.293445 307.584 
z
" clip-path="url(#p43630d292c)" style="fill: #7f7f7f; opacity: 0.5"/>
   </g>
   <g id="patch_156">
    <path d="M 352.161423 307.584 
L 353.655805 307.584 
L 353.655805 307.584 
L 352.161423 307.584 
z
" clip-path="url(#p43630d292c)" style="fill: #7f7f7f; opacity: 0.5"/>
   </g>
   <g id="patch_157">
    <path d="M 354.029401 307.584 
L 355.523783 307.584 
L 355.523783 307.584 
L 354.029401 307.584 
z
" clip-path="url(#p43630d292c)" style="fill: #7f7f7f; opacity: 0.5"/>
   </g>
   <g id="patch_158">
    <path d="M 355.897378 307.584 
L 357.391761 307.584 
L 357.391761 307.584 
L 355.897378 307.584 
z
" clip-path="url(#p43630d292c)" style="fill: #7f7f7f; opacity: 0.5"/>
   </g>
   <g id="patch_159">
    <path d="M 357.765356 307.584 
L 359.259738 307.584 
L 359.259738 307.584 
L 357.765356 307.584 
z
" clip-path="url(#p43630d292c)" style="fill: #7f7f7f; opacity: 0.5"/>
   </g>
   <g id="patch_160">
    <path d="M 359.633334 307.584 
L 361.127716 307.584 
L 361.127716 307.584 
L 359.633334 307.584 
z
" clip-path="url(#p43630d292c)" style="fill: #7f7f7f; opacity: 0.5"/>
   </g>
   <g id="patch_161">
    <path d="M 361.501312 307.584 
L 362.995694 307.584 
L 362.995694 307.584 
L 361.501312 307.584 
z
" clip-path="url(#p43630d292c)" style="fill: #7f7f7f; opacity: 0.5"/>
   </g>
   <g id="patch_162">
    <path d="M 363.36929 307.584 
L 364.863672 307.584 
L 364.863672 307.584 
L 363.36929 307.584 
z
" clip-path="url(#p43630d292c)" style="fill: #7f7f7f; opacity: 0.5"/>
   </g>
   <g id="patch_163">
    <path d="M 365.237267 307.584 
L 366.73165 307.584 
L 366.73165 307.584 
L 365.237267 307.584 
z
" clip-path="url(#p43630d292c)" style="fill: #7f7f7f; opacity: 0.5"/>
   </g>
   <g id="patch_164">
    <path d="M 367.105245 307.584 
L 368.599628 307.584 
L 368.599628 307.584 
L 367.105245 307.584 
z
" clip-path="url(#p43630d292c)" style="fill: #7f7f7f; opacity: 0.5"/>
   </g>
   <g id="patch_165">
    <path d="M 368.973223 307.584 
L 370.467605 307.584 
L 370.467605 307.584 
L 368.973223 307.584 
z
" clip-path="url(#p43630d292c)" style="fill: #7f7f7f; opacity: 0.5"/>
   </g>
   <g id="patch_166">
    <path d="M 370.841201 307.584 
L 372.335583 307.584 
L 372.335583 307.584 
L 370.841201 307.584 
z
" clip-path="url(#p43630d292c)" style="fill: #7f7f7f; opacity: 0.5"/>
   </g>
   <g id="patch_167">
    <path d="M 372.709179 307.584 
L 374.203561 307.584 
L 374.203561 307.584 
L 372.709179 307.584 
z
" clip-path="url(#p43630d292c)" style="fill: #7f7f7f; opacity: 0.5"/>
   </g>
   <g id="patch_168">
    <path d="M 374.577157 307.584 
L 376.071539 307.584 
L 376.071539 307.584 
L 374.577157 307.584 
z
" clip-path="url(#p43630d292c)" style="fill: #7f7f7f; opacity: 0.5"/>
   </g>
   <g id="patch_169">
    <path d="M 376.445134 307.584 
L 377.939517 307.584 
L 377.939517 307.584 
L 376.445134 307.584 
z
" clip-path="url(#p43630d292c)" style="fill: #7f7f7f; opacity: 0.5"/>
   </g>
   <g id="patch_170">
    <path d="M 378.313112 307.584 
L 379.807495 307.584 
L 379.807495 307.584 
L 378.313112 307.584 
z
" clip-path="url(#p43630d292c)" style="fill: #7f7f7f; opacity: 0.5"/>
   </g>
   <g id="patch_171">
    <path d="M 380.18109 307.584 
L 381.675472 307.584 
L 381.675472 307.584 
L 380.18109 307.584 
z
" clip-path="url(#p43630d292c)" style="fill: #7f7f7f; opacity: 0.5"/>
   </g>
   <g id="patch_172">
    <path d="M 382.049068 307.584 
L 383.54345 307.584 
L 383.54345 307.584 
L 382.049068 307.584 
z
" clip-path="url(#p43630d292c)" style="fill: #7f7f7f; opacity: 0.5"/>
   </g>
   <g id="patch_173">
    <path d="M 383.917046 307.584 
L 385.411428 307.584 
L 385.411428 307.584 
L 383.917046 307.584 
z
" clip-path="url(#p43630d292c)" style="fill: #7f7f7f; opacity: 0.5"/>
   </g>
   <g id="patch_174">
    <path d="M 385.785024 307.584 
L 387.279406 307.584 
L 387.279406 307.584 
L 385.785024 307.584 
z
" clip-path="url(#p43630d292c)" style="fill: #7f7f7f; opacity: 0.5"/>
   </g>
   <g id="patch_175">
    <path d="M 387.653001 307.584 
L 389.147384 307.584 
L 389.147384 307.584 
L 387.653001 307.584 
z
" clip-path="url(#p43630d292c)" style="fill: #7f7f7f; opacity: 0.5"/>
   </g>
   <g id="patch_176">
    <path d="M 389.520979 307.584 
L 391.015361 307.584 
L 391.015361 307.584 
L 389.520979 307.584 
z
" clip-path="url(#p43630d292c)" style="fill: #7f7f7f; opacity: 0.5"/>
   </g>
   <g id="patch_177">
    <path d="M 391.388957 307.584 
L 392.883339 307.584 
L 392.883339 307.584 
L 391.388957 307.584 
z
" clip-path="url(#p43630d292c)" style="fill: #7f7f7f; opacity: 0.5"/>
   </g>
   <g id="patch_178">
    <path d="M 393.256935 307.584 
L 394.751317 307.584 
L 394.751317 307.584 
L 393.256935 307.584 
z
" clip-path="url(#p43630d292c)" style="fill: #7f7f7f; opacity: 0.5"/>
   </g>
   <g id="patch_179">
    <path d="M 395.124913 307.584 
L 396.619295 307.584 
L 396.619295 307.584 
L 395.124913 307.584 
z
" clip-path="url(#p43630d292c)" style="fill: #7f7f7f; opacity: 0.5"/>
   </g>
   <g id="patch_180">
    <path d="M 396.99289 307.584 
L 398.487273 307.584 
L 398.487273 307.584 
L 396.99289 307.584 
z
" clip-path="url(#p43630d292c)" style="fill: #7f7f7f; opacity: 0.5"/>
   </g>
   <g id="matplotlib.axis_3">
    <g id="ytick_7">
     <g id="line2d_15">
      <defs>
       <path id="m463abe8efd" d="M 0 0 
L 3.5 0 
" style="stroke: #7f7f7f; stroke-width: 0.8"/>
      </defs>
      <g>
       <use xlink:href="#m463abe8efd" x="414.72" y="307.584" style="fill: #7f7f7f; stroke: #7f7f7f; stroke-width: 0.8"/>
      </g>
     </g>
     <g id="text_14">
      <!-- 0 -->
      <g style="fill: #7f7f7f" transform="translate(421.72 311.383219) scale(0.1 -0.1)">
       <use xlink:href="#DejaVuSans-30"/>
      </g>
     </g>
    </g>
    <g id="ytick_8">
     <g id="line2d_16">
      <g>
       <use xlink:href="#m463abe8efd" x="414.72" y="272.1024" style="fill: #7f7f7f; stroke: #7f7f7f; stroke-width: 0.8"/>
      </g>
     </g>
     <g id="text_15">
      <!-- 2 -->
      <g style="fill: #7f7f7f" transform="translate(421.72 275.901619) scale(0.1 -0.1)">
       <use xlink:href="#DejaVuSans-32"/>
      </g>
     </g>
    </g>
    <g id="ytick_9">
     <g id="line2d_17">
      <g>
       <use xlink:href="#m463abe8efd" x="414.72" y="236.6208" style="fill: #7f7f7f; stroke: #7f7f7f; stroke-width: 0.8"/>
      </g>
     </g>
     <g id="text_16">
      <!-- 4 -->
      <g style="fill: #7f7f7f" transform="translate(421.72 240.420019) scale(0.1 -0.1)">
       <use xlink:href="#DejaVuSans-34"/>
      </g>
     </g>
    </g>
    <g id="ytick_10">
     <g id="line2d_18">
      <g>
       <use xlink:href="#m463abe8efd" x="414.72" y="201.1392" style="fill: #7f7f7f; stroke: #7f7f7f; stroke-width: 0.8"/>
      </g>
     </g>
     <g id="text_17">
      <!-- 6 -->
      <g style="fill: #7f7f7f" transform="translate(421.72 204.938419) scale(0.1 -0.1)">
       <use xlink:href="#DejaVuSans-36"/>
      </g>
     </g>
    </g>
    <g id="ytick_11">
     <g id="line2d_19">
      <g>
       <use xlink:href="#m463abe8efd" x="414.72" y="165.6576" style="fill: #7f7f7f; stroke: #7f7f7f; stroke-width: 0.8"/>
      </g>
     </g>
     <g id="text_18">
      <!-- 8 -->
      <g style="fill: #7f7f7f" transform="translate(421.72 169.456819) scale(0.1 -0.1)">
       <use xlink:href="#DejaVuSans-38"/>
      </g>
     </g>
    </g>
    <g id="ytick_12">
     <g id="line2d_20">
      <g>
       <use xlink:href="#m463abe8efd" x="414.72" y="130.176" style="fill: #7f7f7f; stroke: #7f7f7f; stroke-width: 0.8"/>
      </g>
     </g>
     <g id="text_19">
      <!-- 10 -->
      <g style="fill: #7f7f7f" transform="translate(421.72 133.975219) scale(0.1 -0.1)">
       <use xlink:href="#DejaVuSans-31"/>
       <use xlink:href="#DejaVuSans-30" transform="translate(63.623047 0)"/>
      </g>
     </g>
    </g>
    <g id="ytick_13">
     <g id="line2d_21">
      <g>
       <use xlink:href="#m463abe8efd" x="414.72" y="94.6944" style="fill: #7f7f7f; stroke: #7f7f7f; stroke-width: 0.8"/>
      </g>
     </g>
     <g id="text_20">
      <!-- 12 -->
      <g style="fill: #7f7f7f" transform="translate(421.72 98.493619) scale(0.1 -0.1)">
       <use xlink:href="#DejaVuSans-31"/>
       <use xlink:href="#DejaVuSans-32" transform="translate(63.623047 0)"/>
      </g>
     </g>
    </g>
    <g id="ytick_14">
     <g id="line2d_22">
      <g>
       <use xlink:href="#m463abe8efd" x="414.72" y="59.2128" style="fill: #7f7f7f; stroke: #7f7f7f; stroke-width: 0.8"/>
      </g>
     </g>
     <g id="text_21">
      <!-- 14 -->
      <g style="fill: #7f7f7f" transform="translate(421.72 63.012019) scale(0.1 -0.1)">
       <use xlink:href="#DejaVuSans-31"/>
       <use xlink:href="#DejaVuSans-34" transform="translate(63.623047 0)"/>
      </g>
     </g>
    </g>
    <g id="text_22">
     <!-- Number of cases -->
     <g style="fill: #7f7f7f" transform="translate(446.043438 216.710813) rotate(-90) scale(0.1 -0.1)">
      <defs>
       <path id="DejaVuSans-6d" d="M 3328 2828 
Q 3544 3216 3844 3400 
Q 4144 3584 4550 3584 
Q 5097 3584 5394 3201 
Q 5691 2819 5691 2113 
L 5691 0 
L 5113 0 
L 5113 2094 
Q 5113 2597 4934 2840 
Q 4756 3084 4391 3084 
Q 3944 3084 3684 2787 
Q 3425 2491 3425 1978 
L 3425 0 
L 2847 0 
L 2847 2094 
Q 2847 2600 2669 2842 
Q 2491 3084 2119 3084 
Q 1678 3084 1418 2786 
Q 1159 2488 1159 1978 
L 1159 0 
L 581 0 
L 581 3500 
L 1159 3500 
L 1159 2956 
Q 1356 3278 1631 3431 
Q 1906 3584 2284 3584 
Q 2666 3584 2933 3390 
Q 3200 3197 3328 2828 
z
" transform="scale(0.015625)"/>
       <path id="DejaVuSans-72" d="M 2631 2963 
Q 2534 3019 2420 3045 
Q 2306 3072 2169 3072 
Q 1681 3072 1420 2755 
Q 1159 2438 1159 1844 
L 1159 0 
L 581 0 
L 581 3500 
L 1159 3500 
L 1159 2956 
Q 1341 3275 1631 3429 
Q 1922 3584 2338 3584 
Q 2397 3584 2469 3576 
Q 2541 3569 2628 3553 
L 2631 2963 
z
" transform="scale(0.015625)"/>
       <path id="DejaVuSans-66" d="M 2375 4863 
L 2375 4384 
L 1825 4384 
Q 1516 4384 1395 4259 
Q 1275 4134 1275 3809 
L 1275 3500 
L 2222 3500 
L 2222 3053 
L 1275 3053 
L 1275 0 
L 697 0 
L 697 3053 
L 147 3053 
L 147 3500 
L 697 3500 
L 697 3744 
Q 697 4328 969 4595 
Q 1241 4863 1831 4863 
L 2375 4863 
z
" transform="scale(0.015625)"/>
       <path id="DejaVuSans-73" d="M 2834 3397 
L 2834 2853 
Q 2591 2978 2328 3040 
Q 2066 3103 1784 3103 
Q 1356 3103 1142 2972 
Q 928 2841 928 2578 
Q 928 2378 1081 2264 
Q 1234 2150 1697 2047 
L 1894 2003 
Q 2506 1872 2764 1633 
Q 3022 1394 3022 966 
Q 3022 478 2636 193 
Q 2250 -91 1575 -91 
Q 1294 -91 989 -36 
Q 684 19 347 128 
L 347 722 
Q 666 556 975 473 
Q 1284 391 1588 391 
Q 1994 391 2212 530 
Q 2431 669 2431 922 
Q 2431 1156 2273 1281 
Q 2116 1406 1581 1522 
L 1381 1569 
Q 847 1681 609 1914 
Q 372 2147 372 2553 
Q 372 3047 722 3315 
Q 1072 3584 1716 3584 
Q 2034 3584 2315 3537 
Q 2597 3491 2834 3397 
z
" transform="scale(0.015625)"/>
      </defs>
      <use xlink:href="#DejaVuSans-4e"/>
      <use xlink:href="#DejaVuSans-75" transform="translate(74.804688 0)"/>
      <use xlink:href="#DejaVuSans-6d" transform="translate(138.183594 0)"/>
      <use xlink:href="#DejaVuSans-62" transform="translate(235.595703 0)"/>
      <use xlink:href="#DejaVuSans-65" transform="translate(299.072266 0)"/>
      <use xlink:href="#DejaVuSans-72" transform="translate(360.595703 0)"/>
      <use xlink:href="#DejaVuSans-20" transform="translate(401.708984 0)"/>
      <use xlink:href="#DejaVuSans-6f" transform="translate(433.496094 0)"/>
      <use xlink:href="#DejaVuSans-66" transform="translate(494.677734 0)"/>
      <use xlink:href="#DejaVuSans-20" transform="translate(529.882812 0)"/>
      <use xlink:href="#DejaVuSans-63" transform="translate(561.669922 0)"/>
      <use xlink:href="#DejaVuSans-61" transform="translate(616.650391 0)"/>
      <use xlink:href="#DejaVuSans-73" transform="translate(677.929688 0)"/>
      <use xlink:href="#DejaVuSans-65" transform="translate(730.029297 0)"/>
      <use xlink:href="#DejaVuSans-73" transform="translate(791.552734 0)"/>
     </g>
    </g>
   </g>
   <g id="patch_181">
    <path d="M 57.6 307.584 
L 57.6 41.472 
" style="fill: none; stroke: #000000; stroke-width: 0.8; stroke-linejoin: miter; stroke-linecap: square"/>
   </g>
   <g id="patch_182">
    <path d="M 414.72 307.584 
L 414.72 41.472 
" style="fill: none; stroke: #000000; stroke-width: 0.8; stroke-linejoin: miter; stroke-linecap: square"/>
   </g>
   <g id="patch_183">
    <path d="M 57.6 307.584 
L 414.72 307.584 
" style="fill: none; stroke: #000000; stroke-width: 0.8; stroke-linejoin: miter; stroke-linecap: square"/>
   </g>
   <g id="patch_184">
    <path d="M 57.6 41.472 
L 414.72 41.472 
" style="fill: none; stroke: #000000; stroke-width: 0.8; stroke-linejoin: miter; stroke-linecap: square"/>
   </g>
  </g>
 </g>
 <defs>
  <clipPath id="p43630d292c">
   <rect x="57.6" y="41.472" width="357.12" height="266.112"/>
  </clipPath>
 </defs>
</svg>
