<?xml version="1.0" encoding="utf-8" standalone="no"?>
<!DOCTYPE svg PUBLIC "-//W3C//DTD SVG 1.1//EN"
  "http://www.w3.org/Graphics/SVG/1.1/DTD/svg11.dtd">
<svg xmlns:xlink="http://www.w3.org/1999/xlink" width="936pt" height="648pt" viewBox="0 0 936 648" xmlns="http://www.w3.org/2000/svg" version="1.1">
 <metadata>
  <rdf:RDF xmlns:dc="http://purl.org/dc/elements/1.1/" xmlns:cc="http://creativecommons.org/ns#" xmlns:rdf="http://www.w3.org/1999/02/22-rdf-syntax-ns#">
   <cc:Work>
    <dc:type rdf:resource="http://purl.org/dc/dcmitype/StillImage"/>
    <dc:date>2026-05-19T16:29:30.083729</dc:date>
    <dc:format>image/svg+xml</dc:format>
    <dc:creator>
     <cc:Agent>
      <dc:title>Matplotlib v3.10.9, https://matplotlib.org/</dc:title>
     </cc:Agent>
    </dc:creator>
   </cc:Work>
  </rdf:RDF>
 </metadata>
 <defs>
  <style type="text/css">*{stroke-linejoin: round; stroke-linecap: butt}</style>
 </defs>
 <g id="figure_1">
  <g id="patch_1">
   <path d="M 0 648 
L 936 648 
L 936 0 
L 0 0 
L 0 648 
z
" style="fill: none"/>
  </g>
  <g id="axes_1">
   <g id="patch_2">
    <path d="M 74.88 228.42 
L 493.272 228.42 
L 493.272 64.8 
L 74.88 64.8 
L 74.88 228.42 
z
" style="fill: none"/>
   </g>
   <g id="patch_3">
    <path d="M 75.737361 228.42 
L 77.452082 228.42 
L 77.452082 215.814453 
L 75.737361 215.814453 
z
" clip-path="url(#p3739f4ba09)" style="fill: #7e57c2"/>
   </g>
   <g id="patch_4">
    <path d="M 77.452082 228.42 
L 79.166803 228.42 
L 79.166803 228.42 
L 77.452082 228.42 
z
" clip-path="url(#p3739f4ba09)" style="fill: #7e57c2"/>
   </g>
   <g id="patch_5">
    <path d="M 79.166803 228.42 
L 80.881525 228.42 
L 80.881525 228.42 
L 79.166803 228.42 
z
" clip-path="url(#p3739f4ba09)" style="fill: #7e57c2"/>
   </g>
   <g id="patch_6">
    <path d="M 80.881525 228.42 
L 82.596246 228.42 
L 82.596246 228.42 
L 80.881525 228.42 
z
" clip-path="url(#p3739f4ba09)" style="fill: #7e57c2"/>
   </g>
   <g id="patch_7">
    <path d="M 82.596246 228.42 
L 84.310967 228.42 
L 84.310967 228.42 
L 82.596246 228.42 
z
" clip-path="url(#p3739f4ba09)" style="fill: #7e57c2"/>
   </g>
   <g id="patch_8">
    <path d="M 84.310967 228.42 
L 86.025689 228.42 
L 86.025689 228.42 
L 84.310967 228.42 
z
" clip-path="url(#p3739f4ba09)" style="fill: #7e57c2"/>
   </g>
   <g id="patch_9">
    <path d="M 86.025689 228.42 
L 87.74041 228.42 
L 87.74041 228.42 
L 86.025689 228.42 
z
" clip-path="url(#p3739f4ba09)" style="fill: #7e57c2"/>
   </g>
   <g id="patch_10">
    <path d="M 87.74041 228.42 
L 89.455131 228.42 
L 89.455131 228.42 
L 87.74041 228.42 
z
" clip-path="url(#p3739f4ba09)" style="fill: #7e57c2"/>
   </g>
   <g id="patch_11">
    <path d="M 89.455131 228.42 
L 91.169852 228.42 
L 91.169852 228.42 
L 89.455131 228.42 
z
" clip-path="url(#p3739f4ba09)" style="fill: #7e57c2"/>
   </g>
   <g id="patch_12">
    <path d="M 91.169852 228.42 
L 92.884574 228.42 
L 92.884574 215.814453 
L 91.169852 215.814453 
z
" clip-path="url(#p3739f4ba09)" style="fill: #7e57c2"/>
   </g>
   <g id="patch_13">
    <path d="M 92.884574 228.42 
L 94.599295 228.42 
L 94.599295 228.42 
L 92.884574 228.42 
z
" clip-path="url(#p3739f4ba09)" style="fill: #7e57c2"/>
   </g>
   <g id="patch_14">
    <path d="M 94.599295 228.42 
L 96.314016 228.42 
L 96.314016 228.42 
L 94.599295 228.42 
z
" clip-path="url(#p3739f4ba09)" style="fill: #7e57c2"/>
   </g>
   <g id="patch_15">
    <path d="M 96.314016 228.42 
L 98.028738 228.42 
L 98.028738 228.42 
L 96.314016 228.42 
z
" clip-path="url(#p3739f4ba09)" style="fill: #7e57c2"/>
   </g>
   <g id="patch_16">
    <path d="M 98.028738 228.42 
L 99.743459 228.42 
L 99.743459 228.42 
L 98.028738 228.42 
z
" clip-path="url(#p3739f4ba09)" style="fill: #7e57c2"/>
   </g>
   <g id="patch_17">
    <path d="M 99.743459 228.42 
L 101.45818 228.42 
L 101.45818 228.42 
L 99.743459 228.42 
z
" clip-path="url(#p3739f4ba09)" style="fill: #7e57c2"/>
   </g>
   <g id="patch_18">
    <path d="M 101.45818 228.42 
L 103.172902 228.42 
L 103.172902 228.42 
L 101.45818 228.42 
z
" clip-path="url(#p3739f4ba09)" style="fill: #7e57c2"/>
   </g>
   <g id="patch_19">
    <path d="M 103.172902 228.42 
L 104.887623 228.42 
L 104.887623 228.42 
L 103.172902 228.42 
z
" clip-path="url(#p3739f4ba09)" style="fill: #7e57c2"/>
   </g>
   <g id="patch_20">
    <path d="M 104.887623 228.42 
L 106.602344 228.42 
L 106.602344 228.42 
L 104.887623 228.42 
z
" clip-path="url(#p3739f4ba09)" style="fill: #7e57c2"/>
   </g>
   <g id="patch_21">
    <path d="M 106.602344 228.42 
L 108.317066 228.42 
L 108.317066 215.814453 
L 106.602344 215.814453 
z
" clip-path="url(#p3739f4ba09)" style="fill: #7e57c2"/>
   </g>
   <g id="patch_22">
    <path d="M 108.317066 228.42 
L 110.031787 228.42 
L 110.031787 228.42 
L 108.317066 228.42 
z
" clip-path="url(#p3739f4ba09)" style="fill: #7e57c2"/>
   </g>
   <g id="patch_23">
    <path d="M 110.031787 228.42 
L 111.746508 228.42 
L 111.746508 228.42 
L 110.031787 228.42 
z
" clip-path="url(#p3739f4ba09)" style="fill: #7e57c2"/>
   </g>
   <g id="patch_24">
    <path d="M 111.746508 228.42 
L 113.46123 228.42 
L 113.46123 228.42 
L 111.746508 228.42 
z
" clip-path="url(#p3739f4ba09)" style="fill: #7e57c2"/>
   </g>
   <g id="patch_25">
    <path d="M 113.46123 228.42 
L 115.175951 228.42 
L 115.175951 228.42 
L 113.46123 228.42 
z
" clip-path="url(#p3739f4ba09)" style="fill: #7e57c2"/>
   </g>
   <g id="patch_26">
    <path d="M 115.175951 228.42 
L 116.890672 228.42 
L 116.890672 228.42 
L 115.175951 228.42 
z
" clip-path="url(#p3739f4ba09)" style="fill: #7e57c2"/>
   </g>
   <g id="patch_27">
    <path d="M 116.890672 228.42 
L 118.605393 228.42 
L 118.605393 228.42 
L 116.890672 228.42 
z
" clip-path="url(#p3739f4ba09)" style="fill: #7e57c2"/>
   </g>
   <g id="patch_28">
    <path d="M 118.605393 228.42 
L 120.320115 228.42 
L 120.320115 228.42 
L 118.605393 228.42 
z
" clip-path="url(#p3739f4ba09)" style="fill: #7e57c2"/>
   </g>
   <g id="patch_29">
    <path d="M 120.320115 228.42 
L 122.034836 228.42 
L 122.034836 228.42 
L 120.320115 228.42 
z
" clip-path="url(#p3739f4ba09)" style="fill: #7e57c2"/>
   </g>
   <g id="patch_30">
    <path d="M 122.034836 228.42 
L 123.749557 228.42 
L 123.749557 215.814453 
L 122.034836 215.814453 
z
" clip-path="url(#p3739f4ba09)" style="fill: #7e57c2"/>
   </g>
   <g id="patch_31">
    <path d="M 123.749557 228.42 
L 125.464279 228.42 
L 125.464279 228.42 
L 123.749557 228.42 
z
" clip-path="url(#p3739f4ba09)" style="fill: #7e57c2"/>
   </g>
   <g id="patch_32">
    <path d="M 125.464279 228.42 
L 127.179 228.42 
L 127.179 228.42 
L 125.464279 228.42 
z
" clip-path="url(#p3739f4ba09)" style="fill: #7e57c2"/>
   </g>
   <g id="patch_33">
    <path d="M 127.179 228.42 
L 128.893721 228.42 
L 128.893721 228.42 
L 127.179 228.42 
z
" clip-path="url(#p3739f4ba09)" style="fill: #7e57c2"/>
   </g>
   <g id="patch_34">
    <path d="M 128.893721 228.42 
L 130.608443 228.42 
L 130.608443 228.42 
L 128.893721 228.42 
z
" clip-path="url(#p3739f4ba09)" style="fill: #7e57c2"/>
   </g>
   <g id="patch_35">
    <path d="M 130.608443 228.42 
L 132.323164 228.42 
L 132.323164 228.42 
L 130.608443 228.42 
z
" clip-path="url(#p3739f4ba09)" style="fill: #7e57c2"/>
   </g>
   <g id="patch_36">
    <path d="M 132.323164 228.42 
L 134.037885 228.42 
L 134.037885 215.814453 
L 132.323164 215.814453 
z
" clip-path="url(#p3739f4ba09)" style="fill: #7e57c2"/>
   </g>
   <g id="patch_37">
    <path d="M 134.037885 228.42 
L 135.752607 228.42 
L 135.752607 228.42 
L 134.037885 228.42 
z
" clip-path="url(#p3739f4ba09)" style="fill: #7e57c2"/>
   </g>
   <g id="patch_38">
    <path d="M 135.752607 228.42 
L 137.467328 228.42 
L 137.467328 228.42 
L 135.752607 228.42 
z
" clip-path="url(#p3739f4ba09)" style="fill: #7e57c2"/>
   </g>
   <g id="patch_39">
    <path d="M 137.467328 228.42 
L 139.182049 228.42 
L 139.182049 228.42 
L 137.467328 228.42 
z
" clip-path="url(#p3739f4ba09)" style="fill: #7e57c2"/>
   </g>
   <g id="patch_40">
    <path d="M 139.182049 228.42 
L 140.89677 228.42 
L 140.89677 228.42 
L 139.182049 228.42 
z
" clip-path="url(#p3739f4ba09)" style="fill: #7e57c2"/>
   </g>
   <g id="patch_41">
    <path d="M 140.89677 228.42 
L 142.611492 228.42 
L 142.611492 228.42 
L 140.89677 228.42 
z
" clip-path="url(#p3739f4ba09)" style="fill: #7e57c2"/>
   </g>
   <g id="patch_42">
    <path d="M 142.611492 228.42 
L 144.326213 228.42 
L 144.326213 228.42 
L 142.611492 228.42 
z
" clip-path="url(#p3739f4ba09)" style="fill: #7e57c2"/>
   </g>
   <g id="patch_43">
    <path d="M 144.326213 228.42 
L 146.040934 228.42 
L 146.040934 228.42 
L 144.326213 228.42 
z
" clip-path="url(#p3739f4ba09)" style="fill: #7e57c2"/>
   </g>
   <g id="patch_44">
    <path d="M 146.040934 228.42 
L 147.755656 228.42 
L 147.755656 228.42 
L 146.040934 228.42 
z
" clip-path="url(#p3739f4ba09)" style="fill: #7e57c2"/>
   </g>
   <g id="patch_45">
    <path d="M 147.755656 228.42 
L 149.470377 228.42 
L 149.470377 228.42 
L 147.755656 228.42 
z
" clip-path="url(#p3739f4ba09)" style="fill: #7e57c2"/>
   </g>
   <g id="patch_46">
    <path d="M 149.470377 228.42 
L 151.185098 228.42 
L 151.185098 228.42 
L 149.470377 228.42 
z
" clip-path="url(#p3739f4ba09)" style="fill: #7e57c2"/>
   </g>
   <g id="patch_47">
    <path d="M 151.185098 228.42 
L 152.89982 228.42 
L 152.89982 228.42 
L 151.185098 228.42 
z
" clip-path="url(#p3739f4ba09)" style="fill: #7e57c2"/>
   </g>
   <g id="patch_48">
    <path d="M 152.89982 228.42 
L 154.614541 228.42 
L 154.614541 228.42 
L 152.89982 228.42 
z
" clip-path="url(#p3739f4ba09)" style="fill: #7e57c2"/>
   </g>
   <g id="patch_49">
    <path d="M 154.614541 228.42 
L 156.329262 228.42 
L 156.329262 215.814453 
L 154.614541 215.814453 
z
" clip-path="url(#p3739f4ba09)" style="fill: #7e57c2"/>
   </g>
   <g id="patch_50">
    <path d="M 156.329262 228.42 
L 158.043984 228.42 
L 158.043984 228.42 
L 156.329262 228.42 
z
" clip-path="url(#p3739f4ba09)" style="fill: #7e57c2"/>
   </g>
   <g id="patch_51">
    <path d="M 158.043984 228.42 
L 159.758705 228.42 
L 159.758705 228.42 
L 158.043984 228.42 
z
" clip-path="url(#p3739f4ba09)" style="fill: #7e57c2"/>
   </g>
   <g id="patch_52">
    <path d="M 159.758705 228.42 
L 161.473426 228.42 
L 161.473426 228.42 
L 159.758705 228.42 
z
" clip-path="url(#p3739f4ba09)" style="fill: #7e57c2"/>
   </g>
   <g id="patch_53">
    <path d="M 161.473426 228.42 
L 163.188148 228.42 
L 163.188148 228.42 
L 161.473426 228.42 
z
" clip-path="url(#p3739f4ba09)" style="fill: #7e57c2"/>
   </g>
   <g id="patch_54">
    <path d="M 163.188148 228.42 
L 164.902869 228.42 
L 164.902869 228.42 
L 163.188148 228.42 
z
" clip-path="url(#p3739f4ba09)" style="fill: #7e57c2"/>
   </g>
   <g id="patch_55">
    <path d="M 164.902869 228.42 
L 166.61759 228.42 
L 166.61759 228.42 
L 164.902869 228.42 
z
" clip-path="url(#p3739f4ba09)" style="fill: #7e57c2"/>
   </g>
   <g id="patch_56">
    <path d="M 166.61759 228.42 
L 168.332311 228.42 
L 168.332311 228.42 
L 166.61759 228.42 
z
" clip-path="url(#p3739f4ba09)" style="fill: #7e57c2"/>
   </g>
   <g id="patch_57">
    <path d="M 168.332311 228.42 
L 170.047033 228.42 
L 170.047033 228.42 
L 168.332311 228.42 
z
" clip-path="url(#p3739f4ba09)" style="fill: #7e57c2"/>
   </g>
   <g id="patch_58">
    <path d="M 170.047033 228.42 
L 171.761754 228.42 
L 171.761754 228.42 
L 170.047033 228.42 
z
" clip-path="url(#p3739f4ba09)" style="fill: #7e57c2"/>
   </g>
   <g id="patch_59">
    <path d="M 171.761754 228.42 
L 173.476475 228.42 
L 173.476475 228.42 
L 171.761754 228.42 
z
" clip-path="url(#p3739f4ba09)" style="fill: #7e57c2"/>
   </g>
   <g id="patch_60">
    <path d="M 173.476475 228.42 
L 175.191197 228.42 
L 175.191197 215.814453 
L 173.476475 215.814453 
z
" clip-path="url(#p3739f4ba09)" style="fill: #7e57c2"/>
   </g>
   <g id="patch_61">
    <path d="M 175.191197 228.42 
L 176.905918 228.42 
L 176.905918 228.42 
L 175.191197 228.42 
z
" clip-path="url(#p3739f4ba09)" style="fill: #7e57c2"/>
   </g>
   <g id="patch_62">
    <path d="M 176.905918 228.42 
L 178.620639 228.42 
L 178.620639 228.42 
L 176.905918 228.42 
z
" clip-path="url(#p3739f4ba09)" style="fill: #7e57c2"/>
   </g>
   <g id="patch_63">
    <path d="M 178.620639 228.42 
L 180.335361 228.42 
L 180.335361 228.42 
L 178.620639 228.42 
z
" clip-path="url(#p3739f4ba09)" style="fill: #7e57c2"/>
   </g>
   <g id="patch_64">
    <path d="M 180.335361 228.42 
L 182.050082 228.42 
L 182.050082 228.42 
L 180.335361 228.42 
z
" clip-path="url(#p3739f4ba09)" style="fill: #7e57c2"/>
   </g>
   <g id="patch_65">
    <path d="M 182.050082 228.42 
L 183.764803 228.42 
L 183.764803 228.42 
L 182.050082 228.42 
z
" clip-path="url(#p3739f4ba09)" style="fill: #7e57c2"/>
   </g>
   <g id="patch_66">
    <path d="M 183.764803 228.42 
L 185.479525 228.42 
L 185.479525 228.42 
L 183.764803 228.42 
z
" clip-path="url(#p3739f4ba09)" style="fill: #7e57c2"/>
   </g>
   <g id="patch_67">
    <path d="M 185.479525 228.42 
L 187.194246 228.42 
L 187.194246 228.42 
L 185.479525 228.42 
z
" clip-path="url(#p3739f4ba09)" style="fill: #7e57c2"/>
   </g>
   <g id="patch_68">
    <path d="M 187.194246 228.42 
L 188.908967 228.42 
L 188.908967 228.42 
L 187.194246 228.42 
z
" clip-path="url(#p3739f4ba09)" style="fill: #7e57c2"/>
   </g>
   <g id="patch_69">
    <path d="M 188.908967 228.42 
L 190.623689 228.42 
L 190.623689 228.42 
L 188.908967 228.42 
z
" clip-path="url(#p3739f4ba09)" style="fill: #7e57c2"/>
   </g>
   <g id="patch_70">
    <path d="M 190.623689 228.42 
L 192.33841 228.42 
L 192.33841 228.42 
L 190.623689 228.42 
z
" clip-path="url(#p3739f4ba09)" style="fill: #7e57c2"/>
   </g>
   <g id="patch_71">
    <path d="M 192.33841 228.42 
L 194.053131 228.42 
L 194.053131 228.42 
L 192.33841 228.42 
z
" clip-path="url(#p3739f4ba09)" style="fill: #7e57c2"/>
   </g>
   <g id="patch_72">
    <path d="M 194.053131 228.42 
L 195.767852 228.42 
L 195.767852 228.42 
L 194.053131 228.42 
z
" clip-path="url(#p3739f4ba09)" style="fill: #7e57c2"/>
   </g>
   <g id="patch_73">
    <path d="M 195.767852 228.42 
L 197.482574 228.42 
L 197.482574 215.814453 
L 195.767852 215.814453 
z
" clip-path="url(#p3739f4ba09)" style="fill: #7e57c2"/>
   </g>
   <g id="patch_74">
    <path d="M 197.482574 228.42 
L 199.197295 228.42 
L 199.197295 215.814453 
L 197.482574 215.814453 
z
" clip-path="url(#p3739f4ba09)" style="fill: #7e57c2"/>
   </g>
   <g id="patch_75">
    <path d="M 199.197295 228.42 
L 200.912016 228.42 
L 200.912016 228.42 
L 199.197295 228.42 
z
" clip-path="url(#p3739f4ba09)" style="fill: #7e57c2"/>
   </g>
   <g id="patch_76">
    <path d="M 200.912016 228.42 
L 202.626738 228.42 
L 202.626738 228.42 
L 200.912016 228.42 
z
" clip-path="url(#p3739f4ba09)" style="fill: #7e57c2"/>
   </g>
   <g id="patch_77">
    <path d="M 202.626738 228.42 
L 204.341459 228.42 
L 204.341459 228.42 
L 202.626738 228.42 
z
" clip-path="url(#p3739f4ba09)" style="fill: #7e57c2"/>
   </g>
   <g id="patch_78">
    <path d="M 204.341459 228.42 
L 206.05618 228.42 
L 206.05618 228.42 
L 204.341459 228.42 
z
" clip-path="url(#p3739f4ba09)" style="fill: #7e57c2"/>
   </g>
   <g id="patch_79">
    <path d="M 206.05618 228.42 
L 207.770902 228.42 
L 207.770902 228.42 
L 206.05618 228.42 
z
" clip-path="url(#p3739f4ba09)" style="fill: #7e57c2"/>
   </g>
   <g id="patch_80">
    <path d="M 207.770902 228.42 
L 209.485623 228.42 
L 209.485623 228.42 
L 207.770902 228.42 
z
" clip-path="url(#p3739f4ba09)" style="fill: #7e57c2"/>
   </g>
   <g id="patch_81">
    <path d="M 209.485623 228.42 
L 211.200344 228.42 
L 211.200344 228.42 
L 209.485623 228.42 
z
" clip-path="url(#p3739f4ba09)" style="fill: #7e57c2"/>
   </g>
   <g id="patch_82">
    <path d="M 211.200344 228.42 
L 212.915066 228.42 
L 212.915066 215.814453 
L 211.200344 215.814453 
z
" clip-path="url(#p3739f4ba09)" style="fill: #7e57c2"/>
   </g>
   <g id="patch_83">
    <path d="M 212.915066 228.42 
L 214.629787 228.42 
L 214.629787 228.42 
L 212.915066 228.42 
z
" clip-path="url(#p3739f4ba09)" style="fill: #7e57c2"/>
   </g>
   <g id="patch_84">
    <path d="M 214.629787 228.42 
L 216.344508 228.42 
L 216.344508 228.42 
L 214.629787 228.42 
z
" clip-path="url(#p3739f4ba09)" style="fill: #7e57c2"/>
   </g>
   <g id="patch_85">
    <path d="M 216.344508 228.42 
L 218.05923 228.42 
L 218.05923 228.42 
L 216.344508 228.42 
z
" clip-path="url(#p3739f4ba09)" style="fill: #7e57c2"/>
   </g>
   <g id="patch_86">
    <path d="M 218.05923 228.42 
L 219.773951 228.42 
L 219.773951 228.42 
L 218.05923 228.42 
z
" clip-path="url(#p3739f4ba09)" style="fill: #7e57c2"/>
   </g>
   <g id="patch_87">
    <path d="M 219.773951 228.42 
L 221.488672 228.42 
L 221.488672 228.42 
L 219.773951 228.42 
z
" clip-path="url(#p3739f4ba09)" style="fill: #7e57c2"/>
   </g>
   <g id="patch_88">
    <path d="M 221.488672 228.42 
L 223.203393 228.42 
L 223.203393 215.814453 
L 221.488672 215.814453 
z
" clip-path="url(#p3739f4ba09)" style="fill: #7e57c2"/>
   </g>
   <g id="patch_89">
    <path d="M 223.203393 228.42 
L 224.918115 228.42 
L 224.918115 228.42 
L 223.203393 228.42 
z
" clip-path="url(#p3739f4ba09)" style="fill: #7e57c2"/>
   </g>
   <g id="patch_90">
    <path d="M 224.918115 228.42 
L 226.632836 228.42 
L 226.632836 228.42 
L 224.918115 228.42 
z
" clip-path="url(#p3739f4ba09)" style="fill: #7e57c2"/>
   </g>
   <g id="patch_91">
    <path d="M 226.632836 228.42 
L 228.347557 228.42 
L 228.347557 228.42 
L 226.632836 228.42 
z
" clip-path="url(#p3739f4ba09)" style="fill: #7e57c2"/>
   </g>
   <g id="patch_92">
    <path d="M 228.347557 228.42 
L 230.062279 228.42 
L 230.062279 228.42 
L 228.347557 228.42 
z
" clip-path="url(#p3739f4ba09)" style="fill: #7e57c2"/>
   </g>
   <g id="patch_93">
    <path d="M 230.062279 228.42 
L 231.777 228.42 
L 231.777 228.42 
L 230.062279 228.42 
z
" clip-path="url(#p3739f4ba09)" style="fill: #7e57c2"/>
   </g>
   <g id="patch_94">
    <path d="M 231.777 228.42 
L 233.491721 228.42 
L 233.491721 215.814453 
L 231.777 215.814453 
z
" clip-path="url(#p3739f4ba09)" style="fill: #7e57c2"/>
   </g>
   <g id="patch_95">
    <path d="M 233.491721 228.42 
L 235.206443 228.42 
L 235.206443 228.42 
L 233.491721 228.42 
z
" clip-path="url(#p3739f4ba09)" style="fill: #7e57c2"/>
   </g>
   <g id="patch_96">
    <path d="M 235.206443 228.42 
L 236.921164 228.42 
L 236.921164 215.814453 
L 235.206443 215.814453 
z
" clip-path="url(#p3739f4ba09)" style="fill: #7e57c2"/>
   </g>
   <g id="patch_97">
    <path d="M 236.921164 228.42 
L 238.635885 228.42 
L 238.635885 228.42 
L 236.921164 228.42 
z
" clip-path="url(#p3739f4ba09)" style="fill: #7e57c2"/>
   </g>
   <g id="patch_98">
    <path d="M 238.635885 228.42 
L 240.350607 228.42 
L 240.350607 228.42 
L 238.635885 228.42 
z
" clip-path="url(#p3739f4ba09)" style="fill: #7e57c2"/>
   </g>
   <g id="patch_99">
    <path d="M 240.350607 228.42 
L 242.065328 228.42 
L 242.065328 228.42 
L 240.350607 228.42 
z
" clip-path="url(#p3739f4ba09)" style="fill: #7e57c2"/>
   </g>
   <g id="patch_100">
    <path d="M 242.065328 228.42 
L 243.780049 228.42 
L 243.780049 228.42 
L 242.065328 228.42 
z
" clip-path="url(#p3739f4ba09)" style="fill: #7e57c2"/>
   </g>
   <g id="patch_101">
    <path d="M 243.780049 228.42 
L 245.49477 228.42 
L 245.49477 190.603359 
L 243.780049 190.603359 
z
" clip-path="url(#p3739f4ba09)" style="fill: #7e57c2"/>
   </g>
   <g id="patch_102">
    <path d="M 245.49477 228.42 
L 247.209492 228.42 
L 247.209492 215.814453 
L 245.49477 215.814453 
z
" clip-path="url(#p3739f4ba09)" style="fill: #7e57c2"/>
   </g>
   <g id="patch_103">
    <path d="M 247.209492 228.42 
L 248.924213 228.42 
L 248.924213 215.814453 
L 247.209492 215.814453 
z
" clip-path="url(#p3739f4ba09)" style="fill: #7e57c2"/>
   </g>
   <g id="patch_104">
    <path d="M 248.924213 228.42 
L 250.638934 228.42 
L 250.638934 228.42 
L 248.924213 228.42 
z
" clip-path="url(#p3739f4ba09)" style="fill: #7e57c2"/>
   </g>
   <g id="patch_105">
    <path d="M 250.638934 228.42 
L 252.353656 228.42 
L 252.353656 215.814453 
L 250.638934 215.814453 
z
" clip-path="url(#p3739f4ba09)" style="fill: #7e57c2"/>
   </g>
   <g id="patch_106">
    <path d="M 252.353656 228.42 
L 254.068377 228.42 
L 254.068377 203.208906 
L 252.353656 203.208906 
z
" clip-path="url(#p3739f4ba09)" style="fill: #7e57c2"/>
   </g>
   <g id="patch_107">
    <path d="M 254.068377 228.42 
L 255.783098 228.42 
L 255.783098 215.814453 
L 254.068377 215.814453 
z
" clip-path="url(#p3739f4ba09)" style="fill: #7e57c2"/>
   </g>
   <g id="patch_108">
    <path d="M 255.783098 228.42 
L 257.49782 228.42 
L 257.49782 190.603359 
L 255.783098 190.603359 
z
" clip-path="url(#p3739f4ba09)" style="fill: #7e57c2"/>
   </g>
   <g id="patch_109">
    <path d="M 257.49782 228.42 
L 259.212541 228.42 
L 259.212541 215.814453 
L 257.49782 215.814453 
z
" clip-path="url(#p3739f4ba09)" style="fill: #7e57c2"/>
   </g>
   <g id="patch_110">
    <path d="M 259.212541 228.42 
L 260.927262 228.42 
L 260.927262 190.603359 
L 259.212541 190.603359 
z
" clip-path="url(#p3739f4ba09)" style="fill: #7e57c2"/>
   </g>
   <g id="patch_111">
    <path d="M 260.927262 228.42 
L 262.641984 228.42 
L 262.641984 228.42 
L 260.927262 228.42 
z
" clip-path="url(#p3739f4ba09)" style="fill: #7e57c2"/>
   </g>
   <g id="patch_112">
    <path d="M 262.641984 228.42 
L 264.356705 228.42 
L 264.356705 203.208906 
L 262.641984 203.208906 
z
" clip-path="url(#p3739f4ba09)" style="fill: #7e57c2"/>
   </g>
   <g id="patch_113">
    <path d="M 264.356705 228.42 
L 266.071426 228.42 
L 266.071426 203.208906 
L 264.356705 203.208906 
z
" clip-path="url(#p3739f4ba09)" style="fill: #7e57c2"/>
   </g>
   <g id="patch_114">
    <path d="M 266.071426 228.42 
L 267.786148 228.42 
L 267.786148 203.208906 
L 266.071426 203.208906 
z
" clip-path="url(#p3739f4ba09)" style="fill: #7e57c2"/>
   </g>
   <g id="patch_115">
    <path d="M 267.786148 228.42 
L 269.500869 228.42 
L 269.500869 215.814453 
L 267.786148 215.814453 
z
" clip-path="url(#p3739f4ba09)" style="fill: #7e57c2"/>
   </g>
   <g id="patch_116">
    <path d="M 269.500869 228.42 
L 271.21559 228.42 
L 271.21559 190.603359 
L 269.500869 190.603359 
z
" clip-path="url(#p3739f4ba09)" style="fill: #7e57c2"/>
   </g>
   <g id="patch_117">
    <path d="M 271.21559 228.42 
L 272.930311 228.42 
L 272.930311 215.814453 
L 271.21559 215.814453 
z
" clip-path="url(#p3739f4ba09)" style="fill: #7e57c2"/>
   </g>
   <g id="patch_118">
    <path d="M 272.930311 228.42 
L 274.645033 228.42 
L 274.645033 177.997812 
L 272.930311 177.997812 
z
" clip-path="url(#p3739f4ba09)" style="fill: #7e57c2"/>
   </g>
   <g id="patch_119">
    <path d="M 274.645033 228.42 
L 276.359754 228.42 
L 276.359754 177.997812 
L 274.645033 177.997812 
z
" clip-path="url(#p3739f4ba09)" style="fill: #7e57c2"/>
   </g>
   <g id="patch_120">
    <path d="M 276.359754 228.42 
L 278.074475 228.42 
L 278.074475 152.786718 
L 276.359754 152.786718 
z
" clip-path="url(#p3739f4ba09)" style="fill: #7e57c2"/>
   </g>
   <g id="patch_121">
    <path d="M 278.074475 228.42 
L 279.789197 228.42 
L 279.789197 215.814453 
L 278.074475 215.814453 
z
" clip-path="url(#p3739f4ba09)" style="fill: #7e57c2"/>
   </g>
   <g id="patch_122">
    <path d="M 279.789197 228.42 
L 281.503918 228.42 
L 281.503918 203.208906 
L 279.789197 203.208906 
z
" clip-path="url(#p3739f4ba09)" style="fill: #7e57c2"/>
   </g>
   <g id="patch_123">
    <path d="M 281.503918 228.42 
L 283.218639 228.42 
L 283.218639 190.603359 
L 281.503918 190.603359 
z
" clip-path="url(#p3739f4ba09)" style="fill: #7e57c2"/>
   </g>
   <g id="patch_124">
    <path d="M 283.218639 228.42 
L 284.933361 228.42 
L 284.933361 190.603359 
L 283.218639 190.603359 
z
" clip-path="url(#p3739f4ba09)" style="fill: #7e57c2"/>
   </g>
   <g id="patch_125">
    <path d="M 284.933361 228.42 
L 286.648082 228.42 
L 286.648082 177.997812 
L 284.933361 177.997812 
z
" clip-path="url(#p3739f4ba09)" style="fill: #7e57c2"/>
   </g>
   <g id="patch_126">
    <path d="M 286.648082 228.42 
L 288.362803 228.42 
L 288.362803 215.814453 
L 286.648082 215.814453 
z
" clip-path="url(#p3739f4ba09)" style="fill: #7e57c2"/>
   </g>
   <g id="patch_127">
    <path d="M 288.362803 228.42 
L 290.077525 228.42 
L 290.077525 165.392265 
L 288.362803 165.392265 
z
" clip-path="url(#p3739f4ba09)" style="fill: #7e57c2"/>
   </g>
   <g id="patch_128">
    <path d="M 290.077525 228.42 
L 291.792246 228.42 
L 291.792246 190.603359 
L 290.077525 190.603359 
z
" clip-path="url(#p3739f4ba09)" style="fill: #7e57c2"/>
   </g>
   <g id="patch_129">
    <path d="M 291.792246 228.42 
L 293.506967 228.42 
L 293.506967 177.997812 
L 291.792246 177.997812 
z
" clip-path="url(#p3739f4ba09)" style="fill: #7e57c2"/>
   </g>
   <g id="patch_130">
    <path d="M 293.506967 228.42 
L 295.221689 228.42 
L 295.221689 190.603359 
L 293.506967 190.603359 
z
" clip-path="url(#p3739f4ba09)" style="fill: #7e57c2"/>
   </g>
   <g id="patch_131">
    <path d="M 295.221689 228.42 
L 296.93641 228.42 
L 296.93641 177.997812 
L 295.221689 177.997812 
z
" clip-path="url(#p3739f4ba09)" style="fill: #7e57c2"/>
   </g>
   <g id="patch_132">
    <path d="M 296.93641 228.42 
L 298.651131 228.42 
L 298.651131 165.392265 
L 296.93641 165.392265 
z
" clip-path="url(#p3739f4ba09)" style="fill: #7e57c2"/>
   </g>
   <g id="patch_133">
    <path d="M 298.651131 228.42 
L 300.365852 228.42 
L 300.365852 177.997812 
L 298.651131 177.997812 
z
" clip-path="url(#p3739f4ba09)" style="fill: #7e57c2"/>
   </g>
   <g id="patch_134">
    <path d="M 300.365852 228.42 
L 302.080574 228.42 
L 302.080574 152.786718 
L 300.365852 152.786718 
z
" clip-path="url(#p3739f4ba09)" style="fill: #7e57c2"/>
   </g>
   <g id="patch_135">
    <path d="M 302.080574 228.42 
L 303.795295 228.42 
L 303.795295 127.575624 
L 302.080574 127.575624 
z
" clip-path="url(#p3739f4ba09)" style="fill: #7e57c2"/>
   </g>
   <g id="patch_136">
    <path d="M 303.795295 228.42 
L 305.510016 228.42 
L 305.510016 140.181171 
L 303.795295 140.181171 
z
" clip-path="url(#p3739f4ba09)" style="fill: #7e57c2"/>
   </g>
   <g id="patch_137">
    <path d="M 305.510016 228.42 
L 307.224738 228.42 
L 307.224738 203.208906 
L 305.510016 203.208906 
z
" clip-path="url(#p3739f4ba09)" style="fill: #7e57c2"/>
   </g>
   <g id="patch_138">
    <path d="M 307.224738 228.42 
L 308.939459 228.42 
L 308.939459 177.997812 
L 307.224738 177.997812 
z
" clip-path="url(#p3739f4ba09)" style="fill: #7e57c2"/>
   </g>
   <g id="patch_139">
    <path d="M 308.939459 228.42 
L 310.65418 228.42 
L 310.65418 127.575624 
L 308.939459 127.575624 
z
" clip-path="url(#p3739f4ba09)" style="fill: #7e57c2"/>
   </g>
   <g id="patch_140">
    <path d="M 310.65418 228.42 
L 312.368902 228.42 
L 312.368902 152.786718 
L 310.65418 152.786718 
z
" clip-path="url(#p3739f4ba09)" style="fill: #7e57c2"/>
   </g>
   <g id="patch_141">
    <path d="M 312.368902 228.42 
L 314.083623 228.42 
L 314.083623 177.997812 
L 312.368902 177.997812 
z
" clip-path="url(#p3739f4ba09)" style="fill: #7e57c2"/>
   </g>
   <g id="patch_142">
    <path d="M 314.083623 228.42 
L 315.798344 228.42 
L 315.798344 89.758983 
L 314.083623 89.758983 
z
" clip-path="url(#p3739f4ba09)" style="fill: #7e57c2"/>
   </g>
   <g id="patch_143">
    <path d="M 315.798344 228.42 
L 317.513066 228.42 
L 317.513066 152.786718 
L 315.798344 152.786718 
z
" clip-path="url(#p3739f4ba09)" style="fill: #7e57c2"/>
   </g>
   <g id="patch_144">
    <path d="M 317.513066 228.42 
L 319.227787 228.42 
L 319.227787 177.997812 
L 317.513066 177.997812 
z
" clip-path="url(#p3739f4ba09)" style="fill: #7e57c2"/>
   </g>
   <g id="patch_145">
    <path d="M 319.227787 228.42 
L 320.942508 228.42 
L 320.942508 140.181171 
L 319.227787 140.181171 
z
" clip-path="url(#p3739f4ba09)" style="fill: #7e57c2"/>
   </g>
   <g id="patch_146">
    <path d="M 320.942508 228.42 
L 322.65723 228.42 
L 322.65723 165.392265 
L 320.942508 165.392265 
z
" clip-path="url(#p3739f4ba09)" style="fill: #7e57c2"/>
   </g>
   <g id="patch_147">
    <path d="M 322.65723 228.42 
L 324.371951 228.42 
L 324.371951 140.181171 
L 322.65723 140.181171 
z
" clip-path="url(#p3739f4ba09)" style="fill: #7e57c2"/>
   </g>
   <g id="patch_148">
    <path d="M 324.371951 228.42 
L 326.086672 228.42 
L 326.086672 89.758983 
L 324.371951 89.758983 
z
" clip-path="url(#p3739f4ba09)" style="fill: #7e57c2"/>
   </g>
   <g id="patch_149">
    <path d="M 326.086672 228.42 
L 327.801393 228.42 
L 327.801393 177.997812 
L 326.086672 177.997812 
z
" clip-path="url(#p3739f4ba09)" style="fill: #7e57c2"/>
   </g>
   <g id="patch_150">
    <path d="M 327.801393 228.42 
L 329.516115 228.42 
L 329.516115 140.181171 
L 327.801393 140.181171 
z
" clip-path="url(#p3739f4ba09)" style="fill: #7e57c2"/>
   </g>
   <g id="patch_151">
    <path d="M 329.516115 228.42 
L 331.230836 228.42 
L 331.230836 127.575624 
L 329.516115 127.575624 
z
" clip-path="url(#p3739f4ba09)" style="fill: #7e57c2"/>
   </g>
   <g id="patch_152">
    <path d="M 331.230836 228.42 
L 332.945557 228.42 
L 332.945557 89.758983 
L 331.230836 89.758983 
z
" clip-path="url(#p3739f4ba09)" style="fill: #7e57c2"/>
   </g>
   <g id="patch_153">
    <path d="M 332.945557 228.42 
L 334.660279 228.42 
L 334.660279 165.392265 
L 332.945557 165.392265 
z
" clip-path="url(#p3739f4ba09)" style="fill: #7e57c2"/>
   </g>
   <g id="patch_154">
    <path d="M 334.660279 228.42 
L 336.375 228.42 
L 336.375 152.786718 
L 334.660279 152.786718 
z
" clip-path="url(#p3739f4ba09)" style="fill: #7e57c2"/>
   </g>
   <g id="patch_155">
    <path d="M 336.375 228.42 
L 338.089721 228.42 
L 338.089721 127.575624 
L 336.375 127.575624 
z
" clip-path="url(#p3739f4ba09)" style="fill: #7e57c2"/>
   </g>
   <g id="patch_156">
    <path d="M 338.089721 228.42 
L 339.804443 228.42 
L 339.804443 152.786718 
L 338.089721 152.786718 
z
" clip-path="url(#p3739f4ba09)" style="fill: #7e57c2"/>
   </g>
   <g id="patch_157">
    <path d="M 339.804443 228.42 
L 341.519164 228.42 
L 341.519164 140.181171 
L 339.804443 140.181171 
z
" clip-path="url(#p3739f4ba09)" style="fill: #7e57c2"/>
   </g>
   <g id="patch_158">
    <path d="M 341.519164 228.42 
L 343.233885 228.42 
L 343.233885 127.575624 
L 341.519164 127.575624 
z
" clip-path="url(#p3739f4ba09)" style="fill: #7e57c2"/>
   </g>
   <g id="patch_159">
    <path d="M 343.233885 228.42 
L 344.948607 228.42 
L 344.948607 140.181171 
L 343.233885 140.181171 
z
" clip-path="url(#p3739f4ba09)" style="fill: #7e57c2"/>
   </g>
   <g id="patch_160">
    <path d="M 344.948607 228.42 
L 346.663328 228.42 
L 346.663328 165.392265 
L 344.948607 165.392265 
z
" clip-path="url(#p3739f4ba09)" style="fill: #7e57c2"/>
   </g>
   <g id="patch_161">
    <path d="M 346.663328 228.42 
L 348.378049 228.42 
L 348.378049 190.603359 
L 346.663328 190.603359 
z
" clip-path="url(#p3739f4ba09)" style="fill: #7e57c2"/>
   </g>
   <g id="patch_162">
    <path d="M 348.378049 228.42 
L 350.09277 228.42 
L 350.09277 152.786718 
L 348.378049 152.786718 
z
" clip-path="url(#p3739f4ba09)" style="fill: #7e57c2"/>
   </g>
   <g id="patch_163">
    <path d="M 350.09277 228.42 
L 351.807492 228.42 
L 351.807492 127.575624 
L 350.09277 127.575624 
z
" clip-path="url(#p3739f4ba09)" style="fill: #7e57c2"/>
   </g>
   <g id="patch_164">
    <path d="M 351.807492 228.42 
L 353.522213 228.42 
L 353.522213 152.786718 
L 351.807492 152.786718 
z
" clip-path="url(#p3739f4ba09)" style="fill: #7e57c2"/>
   </g>
   <g id="patch_165">
    <path d="M 353.522213 228.42 
L 355.236934 228.42 
L 355.236934 203.208906 
L 353.522213 203.208906 
z
" clip-path="url(#p3739f4ba09)" style="fill: #7e57c2"/>
   </g>
   <g id="patch_166">
    <path d="M 355.236934 228.42 
L 356.951656 228.42 
L 356.951656 152.786718 
L 355.236934 152.786718 
z
" clip-path="url(#p3739f4ba09)" style="fill: #7e57c2"/>
   </g>
   <g id="patch_167">
    <path d="M 356.951656 228.42 
L 358.666377 228.42 
L 358.666377 177.997812 
L 356.951656 177.997812 
z
" clip-path="url(#p3739f4ba09)" style="fill: #7e57c2"/>
   </g>
   <g id="patch_168">
    <path d="M 358.666377 228.42 
L 360.381098 228.42 
L 360.381098 203.208906 
L 358.666377 203.208906 
z
" clip-path="url(#p3739f4ba09)" style="fill: #7e57c2"/>
   </g>
   <g id="patch_169">
    <path d="M 360.381098 228.42 
L 362.09582 228.42 
L 362.09582 177.997812 
L 360.381098 177.997812 
z
" clip-path="url(#p3739f4ba09)" style="fill: #7e57c2"/>
   </g>
   <g id="patch_170">
    <path d="M 362.09582 228.42 
L 363.810541 228.42 
L 363.810541 215.814453 
L 362.09582 215.814453 
z
" clip-path="url(#p3739f4ba09)" style="fill: #7e57c2"/>
   </g>
   <g id="patch_171">
    <path d="M 363.810541 228.42 
L 365.525262 228.42 
L 365.525262 203.208906 
L 363.810541 203.208906 
z
" clip-path="url(#p3739f4ba09)" style="fill: #7e57c2"/>
   </g>
   <g id="patch_172">
    <path d="M 365.525262 228.42 
L 367.239984 228.42 
L 367.239984 177.997812 
L 365.525262 177.997812 
z
" clip-path="url(#p3739f4ba09)" style="fill: #7e57c2"/>
   </g>
   <g id="patch_173">
    <path d="M 367.239984 228.42 
L 368.954705 228.42 
L 368.954705 215.814453 
L 367.239984 215.814453 
z
" clip-path="url(#p3739f4ba09)" style="fill: #7e57c2"/>
   </g>
   <g id="patch_174">
    <path d="M 368.954705 228.42 
L 370.669426 228.42 
L 370.669426 140.181171 
L 368.954705 140.181171 
z
" clip-path="url(#p3739f4ba09)" style="fill: #7e57c2"/>
   </g>
   <g id="patch_175">
    <path d="M 370.669426 228.42 
L 372.384148 228.42 
L 372.384148 203.208906 
L 370.669426 203.208906 
z
" clip-path="url(#p3739f4ba09)" style="fill: #7e57c2"/>
   </g>
   <g id="patch_176">
    <path d="M 372.384148 228.42 
L 374.098869 228.42 
L 374.098869 177.997812 
L 372.384148 177.997812 
z
" clip-path="url(#p3739f4ba09)" style="fill: #7e57c2"/>
   </g>
   <g id="patch_177">
    <path d="M 374.098869 228.42 
L 375.81359 228.42 
L 375.81359 215.814453 
L 374.098869 215.814453 
z
" clip-path="url(#p3739f4ba09)" style="fill: #7e57c2"/>
   </g>
   <g id="patch_178">
    <path d="M 375.81359 228.42 
L 377.528311 228.42 
L 377.528311 190.603359 
L 375.81359 190.603359 
z
" clip-path="url(#p3739f4ba09)" style="fill: #7e57c2"/>
   </g>
   <g id="patch_179">
    <path d="M 377.528311 228.42 
L 379.243033 228.42 
L 379.243033 165.392265 
L 377.528311 165.392265 
z
" clip-path="url(#p3739f4ba09)" style="fill: #7e57c2"/>
   </g>
   <g id="patch_180">
    <path d="M 379.243033 228.42 
L 380.957754 228.42 
L 380.957754 215.814453 
L 379.243033 215.814453 
z
" clip-path="url(#p3739f4ba09)" style="fill: #7e57c2"/>
   </g>
   <g id="patch_181">
    <path d="M 380.957754 228.42 
L 382.672475 228.42 
L 382.672475 203.208906 
L 380.957754 203.208906 
z
" clip-path="url(#p3739f4ba09)" style="fill: #7e57c2"/>
   </g>
   <g id="patch_182">
    <path d="M 382.672475 228.42 
L 384.387197 228.42 
L 384.387197 228.42 
L 382.672475 228.42 
z
" clip-path="url(#p3739f4ba09)" style="fill: #7e57c2"/>
   </g>
   <g id="patch_183">
    <path d="M 384.387197 228.42 
L 386.101918 228.42 
L 386.101918 215.814453 
L 384.387197 215.814453 
z
" clip-path="url(#p3739f4ba09)" style="fill: #7e57c2"/>
   </g>
   <g id="patch_184">
    <path d="M 386.101918 228.42 
L 387.816639 228.42 
L 387.816639 228.42 
L 386.101918 228.42 
z
" clip-path="url(#p3739f4ba09)" style="fill: #7e57c2"/>
   </g>
   <g id="patch_185">
    <path d="M 387.816639 228.42 
L 389.531361 228.42 
L 389.531361 228.42 
L 387.816639 228.42 
z
" clip-path="url(#p3739f4ba09)" style="fill: #7e57c2"/>
   </g>
   <g id="patch_186">
    <path d="M 389.531361 228.42 
L 391.246082 228.42 
L 391.246082 203.208906 
L 389.531361 203.208906 
z
" clip-path="url(#p3739f4ba09)" style="fill: #7e57c2"/>
   </g>
   <g id="patch_187">
    <path d="M 391.246082 228.42 
L 392.960803 228.42 
L 392.960803 215.814453 
L 391.246082 215.814453 
z
" clip-path="url(#p3739f4ba09)" style="fill: #7e57c2"/>
   </g>
   <g id="patch_188">
    <path d="M 392.960803 228.42 
L 394.675525 228.42 
L 394.675525 215.814453 
L 392.960803 215.814453 
z
" clip-path="url(#p3739f4ba09)" style="fill: #7e57c2"/>
   </g>
   <g id="patch_189">
    <path d="M 394.675525 228.42 
L 396.390246 228.42 
L 396.390246 215.814453 
L 394.675525 215.814453 
z
" clip-path="url(#p3739f4ba09)" style="fill: #7e57c2"/>
   </g>
   <g id="patch_190">
    <path d="M 396.390246 228.42 
L 398.104967 228.42 
L 398.104967 215.814453 
L 396.390246 215.814453 
z
" clip-path="url(#p3739f4ba09)" style="fill: #7e57c2"/>
   </g>
   <g id="patch_191">
    <path d="M 398.104967 228.42 
L 399.819689 228.42 
L 399.819689 228.42 
L 398.104967 228.42 
z
" clip-path="url(#p3739f4ba09)" style="fill: #7e57c2"/>
   </g>
   <g id="patch_192">
    <path d="M 399.819689 228.42 
L 401.53441 228.42 
L 401.53441 215.814453 
L 399.819689 215.814453 
z
" clip-path="url(#p3739f4ba09)" style="fill: #7e57c2"/>
   </g>
   <g id="patch_193">
    <path d="M 401.53441 228.42 
L 403.249131 228.42 
L 403.249131 228.42 
L 401.53441 228.42 
z
" clip-path="url(#p3739f4ba09)" style="fill: #7e57c2"/>
   </g>
   <g id="patch_194">
    <path d="M 403.249131 228.42 
L 404.963852 228.42 
L 404.963852 228.42 
L 403.249131 228.42 
z
" clip-path="url(#p3739f4ba09)" style="fill: #7e57c2"/>
   </g>
   <g id="patch_195">
    <path d="M 404.963852 228.42 
L 406.678574 228.42 
L 406.678574 228.42 
L 404.963852 228.42 
z
" clip-path="url(#p3739f4ba09)" style="fill: #7e57c2"/>
   </g>
   <g id="patch_196">
    <path d="M 406.678574 228.42 
L 408.393295 228.42 
L 408.393295 215.814453 
L 406.678574 215.814453 
z
" clip-path="url(#p3739f4ba09)" style="fill: #7e57c2"/>
   </g>
   <g id="patch_197">
    <path d="M 408.393295 228.42 
L 410.108016 228.42 
L 410.108016 215.814453 
L 408.393295 215.814453 
z
" clip-path="url(#p3739f4ba09)" style="fill: #7e57c2"/>
   </g>
   <g id="patch_198">
    <path d="M 410.108016 228.42 
L 411.822738 228.42 
L 411.822738 228.42 
L 410.108016 228.42 
z
" clip-path="url(#p3739f4ba09)" style="fill: #7e57c2"/>
   </g>
   <g id="patch_199">
    <path d="M 411.822738 228.42 
L 413.537459 228.42 
L 413.537459 215.814453 
L 411.822738 215.814453 
z
" clip-path="url(#p3739f4ba09)" style="fill: #7e57c2"/>
   </g>
   <g id="patch_200">
    <path d="M 413.537459 228.42 
L 415.25218 228.42 
L 415.25218 228.42 
L 413.537459 228.42 
z
" clip-path="url(#p3739f4ba09)" style="fill: #7e57c2"/>
   </g>
   <g id="patch_201">
    <path d="M 415.25218 228.42 
L 416.966902 228.42 
L 416.966902 228.42 
L 415.25218 228.42 
z
" clip-path="url(#p3739f4ba09)" style="fill: #7e57c2"/>
   </g>
   <g id="patch_202">
    <path d="M 416.966902 228.42 
L 418.681623 228.42 
L 418.681623 215.814453 
L 416.966902 215.814453 
z
" clip-path="url(#p3739f4ba09)" style="fill: #7e57c2"/>
   </g>
   <g id="patch_203">
    <path d="M 418.681623 228.42 
L 420.396344 228.42 
L 420.396344 228.42 
L 418.681623 228.42 
z
" clip-path="url(#p3739f4ba09)" style="fill: #7e57c2"/>
   </g>
   <g id="patch_204">
    <path d="M 420.396344 228.42 
L 422.111066 228.42 
L 422.111066 228.42 
L 420.396344 228.42 
z
" clip-path="url(#p3739f4ba09)" style="fill: #7e57c2"/>
   </g>
   <g id="patch_205">
    <path d="M 422.111066 228.42 
L 423.825787 228.42 
L 423.825787 228.42 
L 422.111066 228.42 
z
" clip-path="url(#p3739f4ba09)" style="fill: #7e57c2"/>
   </g>
   <g id="patch_206">
    <path d="M 423.825787 228.42 
L 425.540508 228.42 
L 425.540508 228.42 
L 423.825787 228.42 
z
" clip-path="url(#p3739f4ba09)" style="fill: #7e57c2"/>
   </g>
   <g id="patch_207">
    <path d="M 425.540508 228.42 
L 427.25523 228.42 
L 427.25523 228.42 
L 425.540508 228.42 
z
" clip-path="url(#p3739f4ba09)" style="fill: #7e57c2"/>
   </g>
   <g id="patch_208">
    <path d="M 427.25523 228.42 
L 428.969951 228.42 
L 428.969951 228.42 
L 427.25523 228.42 
z
" clip-path="url(#p3739f4ba09)" style="fill: #7e57c2"/>
   </g>
   <g id="patch_209">
    <path d="M 428.969951 228.42 
L 430.684672 228.42 
L 430.684672 215.814453 
L 428.969951 215.814453 
z
" clip-path="url(#p3739f4ba09)" style="fill: #7e57c2"/>
   </g>
   <g id="patch_210">
    <path d="M 430.684672 228.42 
L 432.399393 228.42 
L 432.399393 228.42 
L 430.684672 228.42 
z
" clip-path="url(#p3739f4ba09)" style="fill: #7e57c2"/>
   </g>
   <g id="patch_211">
    <path d="M 432.399393 228.42 
L 434.114115 228.42 
L 434.114115 215.814453 
L 432.399393 215.814453 
z
" clip-path="url(#p3739f4ba09)" style="fill: #7e57c2"/>
   </g>
   <g id="patch_212">
    <path d="M 434.114115 228.42 
L 435.828836 228.42 
L 435.828836 228.42 
L 434.114115 228.42 
z
" clip-path="url(#p3739f4ba09)" style="fill: #7e57c2"/>
   </g>
   <g id="patch_213">
    <path d="M 435.828836 228.42 
L 437.543557 228.42 
L 437.543557 228.42 
L 435.828836 228.42 
z
" clip-path="url(#p3739f4ba09)" style="fill: #7e57c2"/>
   </g>
   <g id="patch_214">
    <path d="M 437.543557 228.42 
L 439.258279 228.42 
L 439.258279 228.42 
L 437.543557 228.42 
z
" clip-path="url(#p3739f4ba09)" style="fill: #7e57c2"/>
   </g>
   <g id="patch_215">
    <path d="M 439.258279 228.42 
L 440.973 228.42 
L 440.973 228.42 
L 439.258279 228.42 
z
" clip-path="url(#p3739f4ba09)" style="fill: #7e57c2"/>
   </g>
   <g id="patch_216">
    <path d="M 440.973 228.42 
L 442.687721 228.42 
L 442.687721 228.42 
L 440.973 228.42 
z
" clip-path="url(#p3739f4ba09)" style="fill: #7e57c2"/>
   </g>
   <g id="patch_217">
    <path d="M 442.687721 228.42 
L 444.402443 228.42 
L 444.402443 228.42 
L 442.687721 228.42 
z
" clip-path="url(#p3739f4ba09)" style="fill: #7e57c2"/>
   </g>
   <g id="patch_218">
    <path d="M 444.402443 228.42 
L 446.117164 228.42 
L 446.117164 228.42 
L 444.402443 228.42 
z
" clip-path="url(#p3739f4ba09)" style="fill: #7e57c2"/>
   </g>
   <g id="patch_219">
    <path d="M 446.117164 228.42 
L 447.831885 228.42 
L 447.831885 228.42 
L 446.117164 228.42 
z
" clip-path="url(#p3739f4ba09)" style="fill: #7e57c2"/>
   </g>
   <g id="patch_220">
    <path d="M 447.831885 228.42 
L 449.546607 228.42 
L 449.546607 228.42 
L 447.831885 228.42 
z
" clip-path="url(#p3739f4ba09)" style="fill: #7e57c2"/>
   </g>
   <g id="patch_221">
    <path d="M 449.546607 228.42 
L 451.261328 228.42 
L 451.261328 228.42 
L 449.546607 228.42 
z
" clip-path="url(#p3739f4ba09)" style="fill: #7e57c2"/>
   </g>
   <g id="patch_222">
    <path d="M 451.261328 228.42 
L 452.976049 228.42 
L 452.976049 228.42 
L 451.261328 228.42 
z
" clip-path="url(#p3739f4ba09)" style="fill: #7e57c2"/>
   </g>
   <g id="patch_223">
    <path d="M 452.976049 228.42 
L 454.69077 228.42 
L 454.69077 228.42 
L 452.976049 228.42 
z
" clip-path="url(#p3739f4ba09)" style="fill: #7e57c2"/>
   </g>
   <g id="patch_224">
    <path d="M 454.69077 228.42 
L 456.405492 228.42 
L 456.405492 228.42 
L 454.69077 228.42 
z
" clip-path="url(#p3739f4ba09)" style="fill: #7e57c2"/>
   </g>
   <g id="patch_225">
    <path d="M 456.405492 228.42 
L 458.120213 228.42 
L 458.120213 228.42 
L 456.405492 228.42 
z
" clip-path="url(#p3739f4ba09)" style="fill: #7e57c2"/>
   </g>
   <g id="patch_226">
    <path d="M 458.120213 228.42 
L 459.834934 228.42 
L 459.834934 228.42 
L 458.120213 228.42 
z
" clip-path="url(#p3739f4ba09)" style="fill: #7e57c2"/>
   </g>
   <g id="patch_227">
    <path d="M 459.834934 228.42 
L 461.549656 228.42 
L 461.549656 228.42 
L 459.834934 228.42 
z
" clip-path="url(#p3739f4ba09)" style="fill: #7e57c2"/>
   </g>
   <g id="patch_228">
    <path d="M 461.549656 228.42 
L 463.264377 228.42 
L 463.264377 228.42 
L 461.549656 228.42 
z
" clip-path="url(#p3739f4ba09)" style="fill: #7e57c2"/>
   </g>
   <g id="patch_229">
    <path d="M 463.264377 228.42 
L 464.979098 228.42 
L 464.979098 228.42 
L 463.264377 228.42 
z
" clip-path="url(#p3739f4ba09)" style="fill: #7e57c2"/>
   </g>
   <g id="patch_230">
    <path d="M 464.979098 228.42 
L 466.69382 228.42 
L 466.69382 228.42 
L 464.979098 228.42 
z
" clip-path="url(#p3739f4ba09)" style="fill: #7e57c2"/>
   </g>
   <g id="patch_231">
    <path d="M 466.69382 228.42 
L 468.408541 228.42 
L 468.408541 228.42 
L 466.69382 228.42 
z
" clip-path="url(#p3739f4ba09)" style="fill: #7e57c2"/>
   </g>
   <g id="patch_232">
    <path d="M 468.408541 228.42 
L 470.123262 228.42 
L 470.123262 228.42 
L 468.408541 228.42 
z
" clip-path="url(#p3739f4ba09)" style="fill: #7e57c2"/>
   </g>
   <g id="patch_233">
    <path d="M 470.123262 228.42 
L 471.837984 228.42 
L 471.837984 228.42 
L 470.123262 228.42 
z
" clip-path="url(#p3739f4ba09)" style="fill: #7e57c2"/>
   </g>
   <g id="patch_234">
    <path d="M 471.837984 228.42 
L 473.552705 228.42 
L 473.552705 228.42 
L 471.837984 228.42 
z
" clip-path="url(#p3739f4ba09)" style="fill: #7e57c2"/>
   </g>
   <g id="patch_235">
    <path d="M 473.552705 228.42 
L 475.267426 228.42 
L 475.267426 228.42 
L 473.552705 228.42 
z
" clip-path="url(#p3739f4ba09)" style="fill: #7e57c2"/>
   </g>
   <g id="patch_236">
    <path d="M 475.267426 228.42 
L 476.982148 228.42 
L 476.982148 228.42 
L 475.267426 228.42 
z
" clip-path="url(#p3739f4ba09)" style="fill: #7e57c2"/>
   </g>
   <g id="patch_237">
    <path d="M 476.982148 228.42 
L 478.696869 228.42 
L 478.696869 228.42 
L 476.982148 228.42 
z
" clip-path="url(#p3739f4ba09)" style="fill: #7e57c2"/>
   </g>
   <g id="patch_238">
    <path d="M 478.696869 228.42 
L 480.41159 228.42 
L 480.41159 228.42 
L 478.696869 228.42 
z
" clip-path="url(#p3739f4ba09)" style="fill: #7e57c2"/>
   </g>
   <g id="patch_239">
    <path d="M 480.41159 228.42 
L 482.126311 228.42 
L 482.126311 228.42 
L 480.41159 228.42 
z
" clip-path="url(#p3739f4ba09)" style="fill: #7e57c2"/>
   </g>
   <g id="patch_240">
    <path d="M 482.126311 228.42 
L 483.841033 228.42 
L 483.841033 228.42 
L 482.126311 228.42 
z
" clip-path="url(#p3739f4ba09)" style="fill: #7e57c2"/>
   </g>
   <g id="patch_241">
    <path d="M 483.841033 228.42 
L 485.555754 228.42 
L 485.555754 228.42 
L 483.841033 228.42 
z
" clip-path="url(#p3739f4ba09)" style="fill: #7e57c2"/>
   </g>
   <g id="patch_242">
    <path d="M 485.555754 228.42 
L 487.270475 228.42 
L 487.270475 228.42 
L 485.555754 228.42 
z
" clip-path="url(#p3739f4ba09)" style="fill: #7e57c2"/>
   </g>
   <g id="patch_243">
    <path d="M 487.270475 228.42 
L 488.985197 228.42 
L 488.985197 228.42 
L 487.270475 228.42 
z
" clip-path="url(#p3739f4ba09)" style="fill: #7e57c2"/>
   </g>
   <g id="patch_244">
    <path d="M 488.985197 228.42 
L 490.699918 228.42 
L 490.699918 228.42 
L 488.985197 228.42 
z
" clip-path="url(#p3739f4ba09)" style="fill: #7e57c2"/>
   </g>
   <g id="patch_245">
    <path d="M 490.699918 228.42 
L 492.414639 228.42 
L 492.414639 228.42 
L 490.699918 228.42 
z
" clip-path="url(#p3739f4ba09)" style="fill: #7e57c2"/>
   </g>
   <g id="patch_246">
    <path d="M 492.414639 228.42 
L 494.129361 228.42 
L 494.129361 228.42 
L 492.414639 228.42 
z
" clip-path="url(#p3739f4ba09)" style="fill: #7e57c2"/>
   </g>
   <g id="matplotlib.axis_1">
    <g id="xtick_1">
     <g id="line2d_1">
      <defs>
       <path id="mba5c877602" d="M 0 0 
L 0 3.5 
" style="stroke: #000000; stroke-width: 0.8"/>
      </defs>
      <g>
       <use xlink:href="#mba5c877602" x="74.88" y="228.42" style="stroke: #000000; stroke-width: 0.8"/>
      </g>
     </g>
     <g id="text_1">
      <text style="font-size: 12px; font-family: 'Arial', sans-serif; text-anchor: middle" x="74.88" y="244.045" transform="rotate(-0 74.88 244.045)">1 Apr</text>
     </g>
    </g>
    <g id="xtick_2">
     <g id="line2d_2">
      <g>
       <use xlink:href="#mba5c877602" x="126.321639" y="228.42" style="stroke: #000000; stroke-width: 0.8"/>
      </g>
     </g>
     <g id="text_2">
      <text style="font-size: 12px; font-family: 'Arial', sans-serif; text-anchor: middle" x="126.321639" y="244.045" transform="rotate(-0 126.321639 244.045)">1 May</text>
     </g>
    </g>
    <g id="xtick_3">
     <g id="line2d_3">
      <g>
       <use xlink:href="#mba5c877602" x="179.478" y="228.42" style="stroke: #000000; stroke-width: 0.8"/>
      </g>
     </g>
     <g id="text_3">
      <text style="font-size: 12px; font-family: 'Arial', sans-serif; text-anchor: middle" x="179.478" y="244.009375" transform="rotate(-0 179.478 244.009375)">1 Jun</text>
     </g>
    </g>
    <g id="xtick_4">
     <g id="line2d_4">
      <g>
       <use xlink:href="#mba5c877602" x="230.919639" y="228.42" style="stroke: #000000; stroke-width: 0.8"/>
      </g>
     </g>
     <g id="text_4">
      <text style="font-size: 12px; font-family: 'Arial', sans-serif; text-anchor: middle" x="230.919639" y="244.009375" transform="rotate(-0 230.919639 244.009375)">1 Jul</text>
     </g>
    </g>
    <g id="xtick_5">
     <g id="line2d_5">
      <g>
       <use xlink:href="#mba5c877602" x="284.076" y="228.42" style="stroke: #000000; stroke-width: 0.8"/>
      </g>
     </g>
     <g id="text_5">
      <text style="font-size: 12px; font-family: 'Arial', sans-serif; text-anchor: middle" x="284.076" y="244.045" transform="rotate(-0 284.076 244.045)">1 Aug</text>
     </g>
    </g>
    <g id="xtick_6">
     <g id="line2d_6">
      <g>
       <use xlink:href="#mba5c877602" x="337.232361" y="228.42" style="stroke: #000000; stroke-width: 0.8"/>
      </g>
     </g>
     <g id="text_6">
      <text style="font-size: 12px; font-family: 'Arial', sans-serif; text-anchor: middle" x="337.232361" y="244.155625" transform="rotate(-0 337.232361 244.155625)">1 Sep</text>
     </g>
    </g>
    <g id="xtick_7">
     <g id="line2d_7">
      <g>
       <use xlink:href="#mba5c877602" x="388.674" y="228.42" style="stroke: #000000; stroke-width: 0.8"/>
      </g>
     </g>
     <g id="text_7">
      <text style="font-size: 12px; font-family: 'Arial', sans-serif; text-anchor: middle" x="388.674" y="244.009375" transform="rotate(-0 388.674 244.009375)">1 Oct</text>
     </g>
    </g>
    <g id="xtick_8">
     <g id="line2d_8">
      <g>
       <use xlink:href="#mba5c877602" x="441.830361" y="228.42" style="stroke: #000000; stroke-width: 0.8"/>
      </g>
     </g>
     <g id="text_8">
      <text style="font-size: 12px; font-family: 'Arial', sans-serif; text-anchor: middle" x="441.830361" y="244.009375" transform="rotate(-0 441.830361 244.009375)">1 Nov</text>
     </g>
    </g>
    <g id="xtick_9">
     <g id="line2d_9">
      <g>
       <use xlink:href="#mba5c877602" x="493.272" y="228.42" style="stroke: #000000; stroke-width: 0.8"/>
      </g>
     </g>
     <g id="text_9">
      <text style="font-size: 12px; font-family: 'Arial', sans-serif; text-anchor: middle" x="493.272" y="244.009375" transform="rotate(-0 493.272 244.009375)">1 Dec</text>
     </g>
    </g>
    <g id="text_10">
     <text style="font-size: 16px; font-family: 'Arial', sans-serif; text-anchor: middle" x="284.076" y="262.023125" transform="rotate(-0 284.076 262.023125)">Date</text>
    </g>
   </g>
   <g id="matplotlib.axis_2">
    <g id="text_11">
     <text style="font-size: 16px; font-family: 'Arial', sans-serif; text-anchor: middle" x="67.7" y="146.61" transform="rotate(-90 67.7 146.61)">Number of cases</text>
    </g>
   </g>
   <g id="line2d_10">
    <path d="M 458.977574 228.42 
L 458.977574 64.8 
" clip-path="url(#p3739f4ba09)" style="fill: none; stroke-dasharray: 5.55,2.4; stroke-dashoffset: 0; stroke: #000000; stroke-width: 1.5"/>
   </g>
   <g id="patch_247">
    <path d="M 74.88 228.42 
L 74.88 64.8 
" style="fill: none; stroke: #000000; stroke-width: 0.8; stroke-linejoin: miter; stroke-linecap: square"/>
   </g>
   <g id="patch_248">
    <path d="M 74.88 228.42 
L 493.272 228.42 
" style="fill: none; stroke: #000000; stroke-width: 0.8; stroke-linejoin: miter; stroke-linecap: square"/>
   </g>
   <g id="text_12">
    <text style="font-size: 12px; font-family: 'Arial', sans-serif; text-anchor: end" x="453.83341" y="84.989025" transform="rotate(-0 453.83341 84.989025)">Current day</text>
   </g>
  </g>
  <g id="axes_2">
   <g id="patch_249">
    <path d="M 619.632 228.42 
L 875.16 228.42 
L 875.16 64.8 
L 619.632 64.8 
L 619.632 228.42 
z
" style="fill: none"/>
   </g>
   <g id="patch_250">
    <path d="M 619.632 228.42 
L 626.73 228.42 
L 626.73 217.197266 
L 619.632 217.197266 
z
" clip-path="url(#pde2cf2d765)" style="fill: #2e9e5c"/>
   </g>
   <g id="patch_251">
    <path d="M 626.73 228.42 
L 633.828 228.42 
L 633.828 181.72497 
L 626.73 181.72497 
z
" clip-path="url(#pde2cf2d765)" style="fill: #2e9e5c"/>
   </g>
   <g id="patch_252">
    <path d="M 633.828 228.42 
L 640.926 228.42 
L 640.926 147.968546 
L 633.828 147.968546 
z
" clip-path="url(#pde2cf2d765)" style="fill: #2e9e5c"/>
   </g>
   <g id="patch_253">
    <path d="M 640.926 228.42 
L 648.024 228.42 
L 648.024 121.70731 
L 640.926 121.70731 
z
" clip-path="url(#pde2cf2d765)" style="fill: #2e9e5c"/>
   </g>
   <g id="patch_254">
    <path d="M 648.024 228.42 
L 655.122 228.42 
L 655.122 103.847297 
L 648.024 103.847297 
z
" clip-path="url(#pde2cf2d765)" style="fill: #2e9e5c"/>
   </g>
   <g id="patch_255">
    <path d="M 655.122 228.42 
L 662.22 228.42 
L 662.22 93.636023 
L 655.122 93.636023 
z
" clip-path="url(#pde2cf2d765)" style="fill: #2e9e5c"/>
   </g>
   <g id="patch_256">
    <path d="M 662.22 228.42 
L 669.318 228.42 
L 669.318 89.758983 
L 662.22 89.758983 
z
" clip-path="url(#pde2cf2d765)" style="fill: #2e9e5c"/>
   </g>
   <g id="patch_257">
    <path d="M 669.318 228.42 
L 676.416 228.42 
L 676.416 90.804816 
L 669.318 90.804816 
z
" clip-path="url(#pde2cf2d765)" style="fill: #2e9e5c"/>
   </g>
   <g id="patch_258">
    <path d="M 676.416 228.42 
L 683.514 228.42 
L 683.514 95.468585 
L 676.416 95.468585 
z
" clip-path="url(#pde2cf2d765)" style="fill: #2e9e5c"/>
   </g>
   <g id="patch_259">
    <path d="M 683.514 228.42 
L 690.612 228.42 
L 690.612 102.631743 
L 683.514 102.631743 
z
" clip-path="url(#pde2cf2d765)" style="fill: #2e9e5c"/>
   </g>
   <g id="patch_260">
    <path d="M 690.612 228.42 
L 697.71 228.42 
L 697.71 111.381498 
L 690.612 111.381498 
z
" clip-path="url(#pde2cf2d765)" style="fill: #2e9e5c"/>
   </g>
   <g id="patch_261">
    <path d="M 697.71 228.42 
L 704.808 228.42 
L 704.808 121.000857 
L 697.71 121.000857 
z
" clip-path="url(#pde2cf2d765)" style="fill: #2e9e5c"/>
   </g>
   <g id="patch_262">
    <path d="M 704.808 228.42 
L 711.906 228.42 
L 711.906 130.945715 
L 704.808 130.945715 
z
" clip-path="url(#pde2cf2d765)" style="fill: #2e9e5c"/>
   </g>
   <g id="patch_263">
    <path d="M 711.906 228.42 
L 719.004 228.42 
L 719.004 140.81764 
L 711.906 140.81764 
z
" clip-path="url(#pde2cf2d765)" style="fill: #2e9e5c"/>
   </g>
   <g id="patch_264">
    <path d="M 719.004 228.42 
L 726.102 228.42 
L 726.102 150.33686 
L 719.004 150.33686 
z
" clip-path="url(#pde2cf2d765)" style="fill: #2e9e5c"/>
   </g>
   <g id="patch_265">
    <path d="M 726.102 228.42 
L 733.2 228.42 
L 733.2 159.317632 
L 726.102 159.317632 
z
" clip-path="url(#pde2cf2d765)" style="fill: #2e9e5c"/>
   </g>
   <g id="patch_266">
    <path d="M 733.2 228.42 
L 740.298 228.42 
L 740.298 167.646897 
L 733.2 167.646897 
z
" clip-path="url(#pde2cf2d765)" style="fill: #2e9e5c"/>
   </g>
   <g id="patch_267">
    <path d="M 740.298 228.42 
L 747.396 228.42 
L 747.396 175.2664 
L 740.298 175.2664 
z
" clip-path="url(#pde2cf2d765)" style="fill: #2e9e5c"/>
   </g>
   <g id="patch_268">
    <path d="M 747.396 228.42 
L 754.494 228.42 
L 754.494 182.158115 
L 747.396 182.158115 
z
" clip-path="url(#pde2cf2d765)" style="fill: #2e9e5c"/>
   </g>
   <g id="patch_269">
    <path d="M 754.494 228.42 
L 761.592 228.42 
L 761.592 188.332612 
L 754.494 188.332612 
z
" clip-path="url(#pde2cf2d765)" style="fill: #2e9e5c"/>
   </g>
   <g id="patch_270">
    <path d="M 761.592 228.42 
L 768.69 228.42 
L 768.69 193.819948 
L 761.592 193.819948 
z
" clip-path="url(#pde2cf2d765)" style="fill: #2e9e5c"/>
   </g>
   <g id="patch_271">
    <path d="M 768.69 228.42 
L 775.788 228.42 
L 775.788 198.662684 
L 768.69 198.662684 
z
" clip-path="url(#pde2cf2d765)" style="fill: #2e9e5c"/>
   </g>
   <g id="patch_272">
    <path d="M 775.788 228.42 
L 782.886 228.42 
L 782.886 202.910616 
L 775.788 202.910616 
z
" clip-path="url(#pde2cf2d765)" style="fill: #2e9e5c"/>
   </g>
   <g id="patch_273">
    <path d="M 782.886 228.42 
L 789.984 228.42 
L 789.984 206.616908 
L 782.886 206.616908 
z
" clip-path="url(#pde2cf2d765)" style="fill: #2e9e5c"/>
   </g>
   <g id="patch_274">
    <path d="M 789.984 228.42 
L 797.082 228.42 
L 797.082 209.8353 
L 789.984 209.8353 
z
" clip-path="url(#pde2cf2d765)" style="fill: #2e9e5c"/>
   </g>
   <g id="patch_275">
    <path d="M 797.082 228.42 
L 804.18 228.42 
L 804.18 212.618191 
L 797.082 212.618191 
z
" clip-path="url(#pde2cf2d765)" style="fill: #2e9e5c"/>
   </g>
   <g id="patch_276">
    <path d="M 804.18 228.42 
L 811.278 228.42 
L 811.278 215.015351 
L 804.18 215.015351 
z
" clip-path="url(#pde2cf2d765)" style="fill: #2e9e5c"/>
   </g>
   <g id="patch_277">
    <path d="M 811.278 228.42 
L 818.376 228.42 
L 818.376 217.073137 
L 811.278 217.073137 
z
" clip-path="url(#pde2cf2d765)" style="fill: #2e9e5c"/>
   </g>
   <g id="patch_278">
    <path d="M 818.376 228.42 
L 825.474 228.42 
L 825.474 218.834072 
L 818.376 218.834072 
z
" clip-path="url(#pde2cf2d765)" style="fill: #2e9e5c"/>
   </g>
   <g id="patch_279">
    <path d="M 825.474 228.42 
L 832.572 228.42 
L 832.572 220.336675 
L 825.474 220.336675 
z
" clip-path="url(#pde2cf2d765)" style="fill: #2e9e5c"/>
   </g>
   <g id="patch_280">
    <path d="M 832.572 228.42 
L 839.67 228.42 
L 839.67 221.61549 
L 832.572 221.61549 
z
" clip-path="url(#pde2cf2d765)" style="fill: #2e9e5c"/>
   </g>
   <g id="patch_281">
    <path d="M 839.67 228.42 
L 846.768 228.42 
L 846.768 222.701224 
L 839.67 222.701224 
z
" clip-path="url(#pde2cf2d765)" style="fill: #2e9e5c"/>
   </g>
   <g id="patch_282">
    <path d="M 846.768 228.42 
L 853.866 228.42 
L 853.866 223.620982 
L 846.768 223.620982 
z
" clip-path="url(#pde2cf2d765)" style="fill: #2e9e5c"/>
   </g>
   <g id="patch_283">
    <path d="M 853.866 228.42 
L 860.964 228.42 
L 860.964 224.398532 
L 853.866 224.398532 
z
" clip-path="url(#pde2cf2d765)" style="fill: #2e9e5c"/>
   </g>
   <g id="patch_284">
    <path d="M 860.964 228.42 
L 868.062 228.42 
L 868.062 225.054604 
L 860.964 225.054604 
z
" clip-path="url(#pde2cf2d765)" style="fill: #2e9e5c"/>
   </g>
   <g id="patch_285">
    <path d="M 868.062 228.42 
L 875.16 228.42 
L 875.16 225.607191 
L 868.062 225.607191 
z
" clip-path="url(#pde2cf2d765)" style="fill: #2e9e5c"/>
   </g>
   <g id="matplotlib.axis_3">
    <g id="text_13">
     <text style="font-size: 16px; font-family: 'Arial', sans-serif; text-anchor: middle" x="747.396" y="254.0675" transform="rotate(-0 747.396 254.0675)">Serial interval (days)</text>
    </g>
   </g>
   <g id="matplotlib.axis_4">
    <g id="text_14">
     <text style="font-size: 16px; font-family: 'Arial', sans-serif; text-anchor: middle" x="612.2645" y="146.61" transform="rotate(-90 612.2645 146.61)">Probability</text>
    </g>
   </g>
   <g id="patch_286">
    <path d="M 619.632 228.42 
L 619.632 64.8 
" style="fill: none; stroke: #000000; stroke-width: 0.8; stroke-linejoin: miter; stroke-linecap: square"/>
   </g>
   <g id="patch_287">
    <path d="M 619.632 228.42 
L 875.16 228.42 
" style="fill: none; stroke: #000000; stroke-width: 0.8; stroke-linejoin: miter; stroke-linecap: square"/>
   </g>
  </g>
  <g id="axes_3">
   <g id="patch_288">
    <path d="M 74.88 567 
L 493.272 567 
L 493.272 403.38 
L 74.88 403.38 
L 74.88 567 
z
" style="fill: none"/>
   </g>
   <g id="FillBetweenPolyCollection_1">
    <defs>
     <path id="m4f479412af" d="M 76.594721 -133.2516 
L 76.594721 -81.000003 
L 78.309443 -81.000153 
L 80.024164 -81.370148 
L 81.738885 -83.13724 
L 83.453607 -84.327032 
L 85.168328 -85.960899 
L 86.883049 -88.079326 
L 88.59777 -89.798156 
L 90.312492 -91.722158 
L 92.027213 -93.834253 
L 93.741934 -94.682213 
L 95.456656 -96.039876 
L 97.171377 -96.996732 
L 98.886098 -97.986453 
L 100.60082 -98.557617 
L 102.315541 -99.958066 
L 104.030262 -101.467342 
L 105.744984 -102.92864 
L 107.459705 -104.217531 
L 109.174426 -105.491835 
L 110.889148 -106.269294 
L 112.603869 -107.401042 
L 114.31859 -108.144918 
L 116.033311 -109.799591 
L 117.748033 -110.043406 
L 119.462754 -111.804865 
L 121.177475 -114.237316 
L 122.892197 -116.095573 
L 124.606918 -116.6652 
L 126.321639 -117.979017 
L 128.036361 -119.490405 
L 129.751082 -121.279216 
L 131.465803 -122.283392 
L 133.180525 -123.727536 
L 134.895246 -124.022815 
L 136.609967 -125.038685 
L 138.324689 -126.71015 
L 140.03941 -128.634248 
L 141.754131 -130.030245 
L 143.468852 -131.347351 
L 145.183574 -133.181748 
L 146.898295 -134.880489 
L 148.613016 -136.907576 
L 150.327738 -138.30547 
L 152.042459 -139.429119 
L 153.75718 -141.202617 
L 155.471902 -143.233822 
L 157.186623 -144.401045 
L 158.901344 -146.459404 
L 160.616066 -147.519223 
L 162.330787 -149.215686 
L 164.045508 -151.272814 
L 165.76023 -152.453057 
L 167.474951 -154.450699 
L 169.189672 -155.442282 
L 170.904393 -157.230831 
L 172.619115 -159.524691 
L 174.333836 -161.720973 
L 176.048557 -163.915439 
L 177.763279 -164.706074 
L 179.478 -165.489314 
L 181.192721 -166.76793 
L 182.907443 -168.64698 
L 184.622164 -169.923458 
L 186.336885 -171.269652 
L 188.051607 -173.043102 
L 189.766328 -174.419988 
L 191.481049 -175.500401 
L 193.19577 -176.13842 
L 194.910492 -177.443196 
L 196.625213 -179.530928 
L 198.339934 -181.102034 
L 200.054656 -181.747917 
L 201.769377 -182.865372 
L 203.484098 -183.044738 
L 205.19882 -183.738381 
L 206.913541 -185.353141 
L 208.628262 -185.434834 
L 210.342984 -186.277975 
L 212.057705 -186.911545 
L 213.772426 -187.974673 
L 215.487148 -187.673889 
L 217.201869 -187.795788 
L 218.91659 -188.825478 
L 220.631311 -190.218898 
L 222.346033 -189.940979 
L 224.060754 -190.759937 
L 225.775475 -190.647291 
L 227.490197 -190.732322 
L 229.204918 -190.898635 
L 230.919639 -190.953382 
L 232.634361 -191.223695 
L 234.349082 -191.07337 
L 236.063803 -191.728879 
L 237.778525 -191.790513 
L 239.493246 -192.370752 
L 241.207967 -192.900598 
L 242.922689 -191.938711 
L 244.63741 -191.60813 
L 246.352131 -191.504946 
L 248.066852 -190.934499 
L 249.781574 -190.351623 
L 251.496295 -189.794826 
L 253.211016 -188.626319 
L 254.925738 -188.46203 
L 256.640459 -188.392411 
L 258.35518 -186.136761 
L 260.069902 -185.210841 
L 261.784623 -183.410881 
L 263.499344 -181.401644 
L 265.214066 -180.085649 
L 266.928787 -179.538204 
L 268.643508 -178.070892 
L 270.35823 -176.698624 
L 272.072951 -175.409364 
L 273.787672 -174.068101 
L 275.502393 -173.177398 
L 277.217115 -171.189179 
L 278.931836 -169.526003 
L 280.646557 -167.490645 
L 282.361279 -165.817378 
L 284.076 -164.798035 
L 285.790721 -162.684762 
L 287.505443 -161.304168 
L 289.220164 -161.31142 
L 290.934885 -159.796466 
L 292.649607 -158.835744 
L 294.364328 -158.187045 
L 296.079049 -157.736246 
L 297.79377 -157.213676 
L 299.508492 -156.629312 
L 301.223213 -155.940096 
L 302.937934 -155.800162 
L 304.652656 -154.023353 
L 306.367377 -151.810079 
L 308.082098 -150.930099 
L 309.79682 -149.837205 
L 311.511541 -149.058169 
L 313.226262 -148.083404 
L 314.940984 -147.461171 
L 316.655705 -145.873429 
L 318.370426 -144.074696 
L 320.085148 -143.072569 
L 321.799869 -141.450128 
L 323.51459 -141.234828 
L 325.229311 -140.155038 
L 326.944033 -138.364716 
L 328.658754 -137.334491 
L 330.373475 -136.606039 
L 332.088197 -135.386563 
L 333.802918 -132.295787 
L 335.517639 -129.749539 
L 337.232361 -128.715723 
L 338.947082 -127.116827 
L 340.661803 -125.54783 
L 342.376525 -124.021104 
L 344.091246 -121.100615 
L 345.805967 -118.239123 
L 347.520689 -116.200188 
L 349.23541 -115.783608 
L 350.950131 -114.724563 
L 352.664852 -112.104521 
L 354.379574 -109.21818 
L 356.094295 -108.389078 
L 357.809016 -106.037013 
L 359.523738 -103.064438 
L 361.238459 -102.35918 
L 362.95318 -100.256964 
L 364.667902 -100.714789 
L 366.382623 -102.063322 
L 368.097344 -102.522896 
L 369.812066 -104.304597 
L 371.526787 -102.936021 
L 373.241508 -102.364928 
L 374.95623 -100.62029 
L 376.670951 -100.424972 
L 378.385672 -99.794854 
L 380.100393 -95.896427 
L 381.815115 -93.240677 
L 383.529836 -90.179706 
L 385.244557 -88.853706 
L 386.959279 -86.782048 
L 388.674 -87.819939 
L 390.388721 -90.469751 
L 392.103443 -90.503096 
L 393.818164 -89.766959 
L 395.532885 -89.472686 
L 397.247607 -88.838511 
L 398.962328 -87.268474 
L 400.677049 -87.075844 
L 402.39177 -85.657584 
L 404.106492 -85.398436 
L 405.821213 -86.08495 
L 407.535934 -87.998405 
L 409.250656 -88.52235 
L 410.965377 -87.796063 
L 412.680098 -87.923782 
L 414.39482 -86.079716 
L 416.109541 -85.74275 
L 417.824262 -86.478682 
L 419.538984 -84.376543 
L 421.253705 -83.186862 
L 422.968426 -82.261004 
L 424.683148 -82.34584 
L 426.397869 -82.90374 
L 428.11259 -84.13572 
L 429.827311 -86.387577 
L 431.542033 -85.376116 
L 433.256754 -85.697426 
L 434.971475 -82.026104 
L 436.686197 -81.000002 
L 438.400918 -81.000001 
L 440.115639 -81.000001 
L 441.830361 -81.000001 
L 443.545082 -81.000001 
L 445.259803 -81.000001 
L 446.974525 -81.000001 
L 448.689246 -81.000001 
L 450.403967 -81.000001 
L 452.118689 -81.000001 
L 453.83341 -81.000001 
L 455.548131 -81.000001 
L 457.262852 -81.000001 
L 458.977574 -81.000001 
L 460.692295 -81.000001 
L 462.407016 -81.000001 
L 464.121738 -81.000001 
L 465.836459 -81.000001 
L 467.55118 -81.000001 
L 469.265902 -81.000001 
L 470.980623 -81.000001 
L 472.695344 -81.000001 
L 474.410066 -81.000001 
L 476.124787 -81.000001 
L 477.839508 -81.000001 
L 479.55423 -81.000001 
L 481.268951 -81.000001 
L 482.983672 -81.000001 
L 484.698393 -81.000001 
L 486.413115 -81.000001 
L 488.127836 -81.000001 
L 489.842557 -81.000001 
L 491.557279 -81.000001 
L 493.272 -81.000001 
L 493.272 -110.618288 
L 493.272 -110.618288 
L 491.557279 -110.086273 
L 489.842557 -109.870988 
L 488.127836 -110.034593 
L 486.413115 -109.338871 
L 484.698393 -109.835807 
L 482.983672 -109.623757 
L 481.268951 -110.677854 
L 479.55423 -110.399747 
L 477.839508 -110.147868 
L 476.124787 -110.146943 
L 474.410066 -110.020621 
L 472.695344 -110.191375 
L 470.980623 -110.65937 
L 469.265902 -110.24677 
L 467.55118 -111.129372 
L 465.836459 -110.407571 
L 464.121738 -110.948173 
L 462.407016 -112.281258 
L 460.692295 -112.047775 
L 458.977574 -111.911234 
L 457.262852 -111.773652 
L 455.548131 -111.789567 
L 453.83341 -111.053621 
L 452.118689 -111.135404 
L 450.403967 -111.653876 
L 448.689246 -111.516153 
L 446.974525 -112.755568 
L 445.259803 -113.181024 
L 443.545082 -113.315639 
L 441.830361 -113.552899 
L 440.115639 -114.150832 
L 438.400918 -114.836495 
L 436.686197 -115.368247 
L 434.971475 -115.955865 
L 433.256754 -116.943998 
L 431.542033 -116.911401 
L 429.827311 -117.055773 
L 428.11259 -116.972723 
L 426.397869 -117.116265 
L 424.683148 -117.060057 
L 422.968426 -117.396254 
L 421.253705 -117.316351 
L 419.538984 -116.877803 
L 417.824262 -117.645868 
L 416.109541 -117.119819 
L 414.39482 -117.369627 
L 412.680098 -118.311647 
L 410.965377 -117.528621 
L 409.250656 -117.454556 
L 407.535934 -117.195832 
L 405.821213 -116.21483 
L 404.106492 -116.039178 
L 402.39177 -115.372967 
L 400.677049 -115.208129 
L 398.962328 -115.134859 
L 397.247607 -115.694127 
L 395.532885 -115.839928 
L 393.818164 -115.840727 
L 392.103443 -115.431495 
L 390.388721 -115.719676 
L 388.674 -115.157579 
L 386.959279 -115.322205 
L 385.244557 -115.852844 
L 383.529836 -117.281032 
L 381.815115 -119.306534 
L 380.100393 -122.025615 
L 378.385672 -124.669206 
L 376.670951 -125.573302 
L 374.95623 -126.11604 
L 373.241508 -127.36952 
L 371.526787 -127.773689 
L 369.812066 -128.705696 
L 368.097344 -127.263557 
L 366.382623 -127.715288 
L 364.667902 -127.014583 
L 362.95318 -127.245568 
L 361.238459 -128.266328 
L 359.523738 -129.336988 
L 357.809016 -131.262052 
L 356.094295 -133.556378 
L 354.379574 -135.184576 
L 352.664852 -137.698465 
L 350.950131 -140.308205 
L 349.23541 -141.799455 
L 347.520689 -143.197411 
L 345.805967 -145.369203 
L 344.091246 -147.993911 
L 342.376525 -150.621815 
L 340.661803 -152.826948 
L 338.947082 -154.775301 
L 337.232361 -157.34451 
L 335.517639 -159.04447 
L 333.802918 -161.000915 
L 332.088197 -163.676245 
L 330.373475 -165.622843 
L 328.658754 -167.287035 
L 326.944033 -168.477974 
L 325.229311 -170.603389 
L 323.51459 -172.021456 
L 321.799869 -172.927261 
L 320.085148 -174.100142 
L 318.370426 -176.17979 
L 316.655705 -178.316842 
L 314.940984 -180.863971 
L 313.226262 -182.468335 
L 311.511541 -184.165051 
L 309.79682 -185.540769 
L 308.082098 -186.525685 
L 306.367377 -187.790095 
L 304.652656 -190.731238 
L 302.937934 -192.79227 
L 301.223213 -194.218623 
L 299.508492 -194.894497 
L 297.79377 -196.183241 
L 296.079049 -196.242775 
L 294.364328 -197.489305 
L 292.649607 -199.680998 
L 290.934885 -200.510733 
L 289.220164 -203.189625 
L 287.505443 -203.878083 
L 285.790721 -206.051481 
L 284.076 -208.754526 
L 282.361279 -210.180069 
L 280.646557 -212.475705 
L 278.931836 -214.644155 
L 277.217115 -217.455751 
L 275.502393 -219.33403 
L 273.787672 -220.962032 
L 272.072951 -222.400956 
L 270.35823 -223.81633 
L 268.643508 -225.306036 
L 266.928787 -226.366013 
L 265.214066 -227.594204 
L 263.499344 -228.628531 
L 261.784623 -229.864133 
L 260.069902 -231.263814 
L 258.35518 -232.85929 
L 256.640459 -233.254063 
L 254.925738 -234.084181 
L 253.211016 -234.714014 
L 251.496295 -235.385711 
L 249.781574 -235.86283 
L 248.066852 -236.236331 
L 246.352131 -236.18648 
L 244.63741 -236.610432 
L 242.922689 -236.503196 
L 241.207967 -236.523565 
L 239.493246 -236.51563 
L 237.778525 -236.58888 
L 236.063803 -236.803381 
L 234.349082 -236.828571 
L 232.634361 -236.463171 
L 230.919639 -236.537019 
L 229.204918 -236.263589 
L 227.490197 -235.925403 
L 225.775475 -236.018214 
L 224.060754 -236.102085 
L 222.346033 -236.433447 
L 220.631311 -235.94375 
L 218.91659 -235.833481 
L 217.201869 -235.522071 
L 215.487148 -235.495113 
L 213.772426 -235.288068 
L 212.057705 -235.128314 
L 210.342984 -234.691977 
L 208.628262 -234.612143 
L 206.913541 -234.421979 
L 205.19882 -234.166313 
L 203.484098 -234.36903 
L 201.769377 -234.347926 
L 200.054656 -233.706592 
L 198.339934 -233.901218 
L 196.625213 -233.352547 
L 194.910492 -232.613283 
L 193.19577 -232.003405 
L 191.481049 -230.920373 
L 189.766328 -230.403732 
L 188.051607 -229.583242 
L 186.336885 -228.805778 
L 184.622164 -228.08378 
L 182.907443 -227.558604 
L 181.192721 -225.711394 
L 179.478 -224.65833 
L 177.763279 -223.091831 
L 176.048557 -221.672325 
L 174.333836 -220.567357 
L 172.619115 -218.550927 
L 170.904393 -216.185678 
L 169.189672 -214.979423 
L 167.474951 -213.287308 
L 165.76023 -211.716613 
L 164.045508 -209.813894 
L 162.330787 -207.721776 
L 160.616066 -206.284181 
L 158.901344 -204.51239 
L 157.186623 -202.317078 
L 155.471902 -199.804954 
L 153.75718 -198.319737 
L 152.042459 -196.302995 
L 150.327738 -193.698647 
L 148.613016 -191.860976 
L 146.898295 -191.130123 
L 145.183574 -189.34433 
L 143.468852 -186.666565 
L 141.754131 -184.685707 
L 140.03941 -183.551975 
L 138.324689 -182.053617 
L 136.609967 -180.951364 
L 134.895246 -177.955328 
L 133.180525 -178.130976 
L 131.465803 -176.157504 
L 129.751082 -174.174925 
L 128.036361 -172.21296 
L 126.321639 -171.550661 
L 124.606918 -169.995511 
L 122.892197 -168.340775 
L 121.177475 -167.012661 
L 119.462754 -165.158134 
L 117.748033 -163.367074 
L 116.033311 -161.352845 
L 114.31859 -160.71513 
L 112.603869 -159.51906 
L 110.889148 -157.793271 
L 109.174426 -155.82027 
L 107.459705 -154.493357 
L 105.744984 -153.419741 
L 104.030262 -151.964944 
L 102.315541 -149.842931 
L 100.60082 -149.12453 
L 98.886098 -147.403044 
L 97.171377 -146.070151 
L 95.456656 -144.910601 
L 93.741934 -144.550139 
L 92.027213 -142.771198 
L 90.312492 -141.740982 
L 88.59777 -140.102446 
L 86.883049 -139.203278 
L 85.168328 -138.222618 
L 83.453607 -137.401658 
L 81.738885 -135.846208 
L 80.024164 -135.035521 
L 78.309443 -134.349523 
L 76.594721 -133.2516 
z
"/>
    </defs>
    <g clip-path="url(#pcdbde4a5ce)">
     <use xlink:href="#m4f479412af" x="0" y="648" style="fill: #1e88e5; fill-opacity: 0.35"/>
    </g>
   </g>
   <g id="matplotlib.axis_5">
    <g id="xtick_10">
     <g id="line2d_11">
      <g>
       <use xlink:href="#mba5c877602" x="74.88" y="567" style="stroke: #000000; stroke-width: 0.8"/>
      </g>
     </g>
     <g id="text_15">
      <text style="font-size: 12px; font-family: 'Arial', sans-serif; text-anchor: middle" x="74.88" y="582.625" transform="rotate(-0 74.88 582.625)">1 Apr</text>
     </g>
    </g>
    <g id="xtick_11">
     <g id="line2d_12">
      <g>
       <use xlink:href="#mba5c877602" x="126.321639" y="567" style="stroke: #000000; stroke-width: 0.8"/>
      </g>
     </g>
     <g id="text_16">
      <text style="font-size: 12px; font-family: 'Arial', sans-serif; text-anchor: middle" x="126.321639" y="582.625" transform="rotate(-0 126.321639 582.625)">1 May</text>
     </g>
    </g>
    <g id="xtick_12">
     <g id="line2d_13">
      <g>
       <use xlink:href="#mba5c877602" x="179.478" y="567" style="stroke: #000000; stroke-width: 0.8"/>
      </g>
     </g>
     <g id="text_17">
      <text style="font-size: 12px; font-family: 'Arial', sans-serif; text-anchor: middle" x="179.478" y="582.589375" transform="rotate(-0 179.478 582.589375)">1 Jun</text>
     </g>
    </g>
    <g id="xtick_13">
     <g id="line2d_14">
      <g>
       <use xlink:href="#mba5c877602" x="230.919639" y="567" style="stroke: #000000; stroke-width: 0.8"/>
      </g>
     </g>
     <g id="text_18">
      <text style="font-size: 12px; font-family: 'Arial', sans-serif; text-anchor: middle" x="230.919639" y="582.589375" transform="rotate(-0 230.919639 582.589375)">1 Jul</text>
     </g>
    </g>
    <g id="xtick_14">
     <g id="line2d_15">
      <g>
       <use xlink:href="#mba5c877602" x="284.076" y="567" style="stroke: #000000; stroke-width: 0.8"/>
      </g>
     </g>
     <g id="text_19">
      <text style="font-size: 12px; font-family: 'Arial', sans-serif; text-anchor: middle" x="284.076" y="582.625" transform="rotate(-0 284.076 582.625)">1 Aug</text>
     </g>
    </g>
    <g id="xtick_15">
     <g id="line2d_16">
      <g>
       <use xlink:href="#mba5c877602" x="337.232361" y="567" style="stroke: #000000; stroke-width: 0.8"/>
      </g>
     </g>
     <g id="text_20">
      <text style="font-size: 12px; font-family: 'Arial', sans-serif; text-anchor: middle" x="337.232361" y="582.735625" transform="rotate(-0 337.232361 582.735625)">1 Sep</text>
     </g>
    </g>
    <g id="xtick_16">
     <g id="line2d_17">
      <g>
       <use xlink:href="#mba5c877602" x="388.674" y="567" style="stroke: #000000; stroke-width: 0.8"/>
      </g>
     </g>
     <g id="text_21">
      <text style="font-size: 12px; font-family: 'Arial', sans-serif; text-anchor: middle" x="388.674" y="582.589375" transform="rotate(-0 388.674 582.589375)">1 Oct</text>
     </g>
    </g>
    <g id="xtick_17">
     <g id="line2d_18">
      <g>
       <use xlink:href="#mba5c877602" x="441.830361" y="567" style="stroke: #000000; stroke-width: 0.8"/>
      </g>
     </g>
     <g id="text_22">
      <text style="font-size: 12px; font-family: 'Arial', sans-serif; text-anchor: middle" x="441.830361" y="582.589375" transform="rotate(-0 441.830361 582.589375)">1 Nov</text>
     </g>
    </g>
    <g id="xtick_18">
     <g id="line2d_19">
      <g>
       <use xlink:href="#mba5c877602" x="493.272" y="567" style="stroke: #000000; stroke-width: 0.8"/>
      </g>
     </g>
     <g id="text_23">
      <text style="font-size: 12px; font-family: 'Arial', sans-serif; text-anchor: middle" x="493.272" y="582.589375" transform="rotate(-0 493.272 582.589375)">1 Dec</text>
     </g>
    </g>
    <g id="text_24">
     <text style="font-size: 16px; font-family: 'Arial', sans-serif; text-anchor: middle" x="284.076" y="600.603125" transform="rotate(-0 284.076 600.603125)">Date</text>
    </g>
   </g>
   <g id="matplotlib.axis_6">
    <g id="text_25">
     <text style="font-size: 16px; font-family: 'Arial', sans-serif" transform="translate(50.777 543.1425) rotate(-90)">Time-dependent</text>
     <text style="font-size: 16px; font-family: 'Arial', sans-serif" transform="translate(67.7 559.00375) rotate(-90)">reproduction number</text>
    </g>
   </g>
   <g id="line2d_20">
    <path d="M 74.88 545.02072 
L 80.024164 542.112628 
L 85.168328 538.939566 
L 90.312492 535.496452 
L 95.456656 531.781219 
L 100.60082 527.79523 
L 105.744984 523.54365 
L 110.889148 519.035785 
L 116.033311 514.285367 
L 122.892197 507.606605 
L 129.751082 500.586589 
L 138.324689 491.442566 
L 152.042459 476.380607 
L 162.330787 465.189022 
L 169.189672 458.007004 
L 174.333836 452.858664 
L 179.478 447.975309 
L 184.622164 443.410685 
L 189.766328 439.21657 
L 193.19577 436.650601 
L 196.625213 434.284638 
L 200.054656 432.131346 
L 203.484098 430.202387 
L 206.913541 428.508321 
L 210.342984 427.058504 
L 213.772426 425.861009 
L 217.201869 424.922543 
L 220.631311 424.248393 
L 224.060754 423.842368 
L 227.490197 423.70677 
L 230.919639 423.842368 
L 234.349082 424.248393 
L 237.778525 424.922543 
L 241.207967 425.861009 
L 244.63741 427.058504 
L 248.066852 428.508321 
L 251.496295 430.202387 
L 254.925738 432.131346 
L 258.35518 434.284638 
L 261.784623 436.650601 
L 265.214066 439.21657 
L 270.35823 443.410685 
L 275.502393 447.975309 
L 280.646557 452.858664 
L 285.790721 458.007004 
L 292.649607 465.189022 
L 302.937934 476.380607 
L 320.085148 495.140302 
L 328.658754 504.135114 
L 335.517639 510.992545 
L 342.376525 517.478452 
L 347.520689 522.068919 
L 352.664852 526.407176 
L 357.809016 530.482467 
L 362.95318 534.288283 
L 368.097344 537.822035 
L 373.241508 541.08469 
L 378.385672 544.080372 
L 383.529836 546.815942 
L 388.674 549.300575 
L 393.818164 551.545336 
L 398.962328 553.56277 
L 404.106492 555.36652 
L 409.250656 556.970961 
L 414.39482 558.39088 
L 421.253705 560.022822 
L 428.11259 561.388079 
L 434.971475 562.520248 
L 441.830361 563.450992 
L 450.403967 564.375493 
L 458.977574 565.081999 
L 469.265902 565.703937 
L 481.268951 566.197068 
L 493.272 566.513976 
L 493.272 566.513976 
" clip-path="url(#pcdbde4a5ce)" style="fill: none; stroke: #000000; stroke-width: 2; stroke-linecap: square"/>
   </g>
   <g id="line2d_21">
    <path d="M 76.594721 541.599449 
L 78.309443 540.590978 
L 80.024164 539.399566 
L 81.738885 538.403951 
L 86.883049 534.605354 
L 90.312492 531.773635 
L 92.027213 530.12281 
L 97.171377 527.226486 
L 100.60082 524.709498 
L 105.744984 520.594604 
L 107.459705 519.031401 
L 110.889148 516.93037 
L 112.603869 515.774479 
L 119.462754 510.224307 
L 122.892197 506.903854 
L 126.321639 504.177204 
L 129.751082 501.195086 
L 140.03941 492.285538 
L 141.754131 490.809973 
L 145.183574 487.43173 
L 158.901344 472.867336 
L 174.333836 457.232505 
L 177.763279 454.246495 
L 179.478 452.715739 
L 181.192721 451.390357 
L 184.622164 448.439519 
L 189.766328 444.518504 
L 191.481049 443.175331 
L 193.19577 442.070038 
L 196.625213 439.676664 
L 198.339934 438.682643 
L 203.484098 436.881716 
L 212.057705 434.278099 
L 217.201869 433.218068 
L 218.91659 432.792637 
L 220.631311 432.546034 
L 222.346033 432.143702 
L 229.204918 431.764393 
L 236.063803 431.266607 
L 241.207967 431.369196 
L 242.922689 431.574044 
L 244.63741 431.544186 
L 246.352131 431.928207 
L 248.066852 432.557645 
L 251.496295 433.587267 
L 253.211016 434.25381 
L 256.640459 436.17719 
L 260.069902 438.738897 
L 261.784623 440.411237 
L 263.499344 441.722612 
L 266.928787 444.796084 
L 268.643508 446.456122 
L 273.787672 450.575438 
L 275.502393 452.208454 
L 277.217115 454.051182 
L 278.931836 456.707112 
L 280.646557 458.845149 
L 282.361279 460.723583 
L 287.505443 465.866889 
L 289.220164 466.970784 
L 290.934885 468.452861 
L 292.649607 469.469157 
L 294.364328 470.617263 
L 296.079049 471.457261 
L 297.79377 472.075424 
L 299.508492 472.90411 
L 301.223213 473.52266 
L 302.937934 474.476358 
L 304.652656 476.189179 
L 306.367377 478.348595 
L 308.082098 479.496814 
L 309.79682 480.346496 
L 313.226262 483.259369 
L 314.940984 484.151624 
L 318.370426 488.569217 
L 320.085148 489.788985 
L 321.799869 491.162356 
L 325.229311 492.879276 
L 326.944033 495.01341 
L 330.373475 497.478112 
L 332.088197 498.993626 
L 333.802918 501.645993 
L 335.517639 503.635807 
L 337.232361 505.414198 
L 338.947082 507.603297 
L 342.376525 511.035344 
L 347.520689 518.570551 
L 350.950131 520.791286 
L 352.664852 523.181478 
L 354.379574 526.057422 
L 356.094295 527.509646 
L 359.523738 532.030561 
L 361.238459 533.189318 
L 362.95318 534.684572 
L 364.667902 534.559129 
L 366.382623 533.73624 
L 368.097344 533.517309 
L 369.812066 532.076272 
L 371.526787 532.980598 
L 373.241508 533.464996 
L 374.95623 534.913867 
L 376.670951 535.373999 
L 378.385672 536.38561 
L 380.100393 539.578248 
L 381.815115 541.978025 
L 383.529836 544.749596 
L 385.244557 546.083533 
L 386.959279 547.192343 
L 388.674 547.178616 
L 390.388721 545.997231 
L 392.103443 545.92894 
L 395.532885 546.234199 
L 397.247607 546.623914 
L 398.962328 547.50335 
L 400.677049 547.635572 
L 402.39177 548.419112 
L 404.106492 548.370203 
L 405.821213 547.784524 
L 407.535934 546.676342 
L 409.250656 546.372919 
L 410.965377 546.623577 
L 412.680098 546.50693 
L 414.39482 547.154185 
L 416.109541 547.306977 
L 417.824262 547.242036 
L 419.538984 548.065198 
L 421.253705 548.70812 
L 422.968426 548.962865 
L 424.683148 549.031557 
L 426.397869 548.924437 
L 428.11259 548.574057 
L 429.827311 547.912744 
L 433.256754 548.782602 
L 434.971475 550.51559 
L 436.686197 552.043022 
L 438.400918 553.396282 
L 440.115639 554.457234 
L 443.545082 556.043498 
L 445.259803 556.739597 
L 448.689246 557.825349 
L 452.118689 558.52522 
L 458.977574 559.32701 
L 464.121738 559.805372 
L 489.842557 560.723386 
L 493.272 560.65758 
L 493.272 560.65758 
" clip-path="url(#pcdbde4a5ce)" style="fill: none; stroke: #1e88e5; stroke-width: 2; stroke-linecap: square"/>
   </g>
   <g id="patch_289">
    <path d="M 74.88 567 
L 74.88 403.38 
" style="fill: none; stroke: #000000; stroke-width: 0.8; stroke-linejoin: miter; stroke-linecap: square"/>
   </g>
   <g id="patch_290">
    <path d="M 74.88 567 
L 493.272 567 
" style="fill: none; stroke: #000000; stroke-width: 0.8; stroke-linejoin: miter; stroke-linecap: square"/>
   </g>
   <g id="legend_1">
    <g id="patch_291">
     <path d="M 344.271844 458.859531 
L 485.572 458.859531 
Q 487.772 458.859531 487.772 456.659531 
L 487.772 411.08 
Q 487.772 408.88 485.572 408.88 
L 344.271844 408.88 
Q 342.071844 408.88 342.071844 411.08 
L 342.071844 456.659531 
Q 342.071844 458.859531 344.271844 458.859531 
z
" style="fill: #ffffff; opacity: 0.9; stroke: #cccccc; stroke-linejoin: miter"/>
    </g>
    <g id="line2d_22">
     <path d="M 346.471844 417.303594 
L 357.471844 417.303594 
L 368.471844 417.303594 
" style="fill: none; stroke: #000000; stroke-width: 2; stroke-linecap: square"/>
    </g>
    <g id="text_26">
     <text style="font-size: 11px; font-family: 'Arial', sans-serif; text-anchor: start" x="377.271844" y="421.153594" transform="rotate(-0 377.271844 421.153594)">Seasonal</text>
    </g>
    <g id="line2d_23">
     <path d="M 346.471844 432.863438 
L 357.471844 432.863438 
L 368.471844 432.863438 
" style="fill: none; stroke: #1e88e5; stroke-width: 2; stroke-linecap: square"/>
    </g>
    <g id="text_27">
     <text style="font-size: 11px; font-family: 'Arial', sans-serif; text-anchor: start" x="377.271844" y="436.713438" transform="rotate(-0 377.271844 436.713438)">Seasonal + case data</text>
    </g>
    <g id="patch_292">
     <path d="M 346.471844 452.273281 
L 368.471844 452.273281 
L 368.471844 444.573281 
L 346.471844 444.573281 
z
" style="fill: #1e88e5; fill-opacity: 0.35"/>
    </g>
    <g id="text_28">
     <text style="font-size: 11px; font-family: 'Arial', sans-serif; text-anchor: start" x="377.271844" y="452.273281" transform="rotate(-0 377.271844 452.273281)">95% credible interval</text>
    </g>
   </g>
  </g>
  <g id="text_29">
   <text style="font-size: 17px; font-family: 'Arial', sans-serif" transform="translate(645.404437 481.730203)">Probability that additional</text>
   <text style="font-size: 17px; font-family: 'Arial', sans-serif" transform="translate(659.127953 499.910109)">cases will occur on or</text>
   <text style="font-size: 17px; font-family: 'Arial', sans-serif" transform="translate(664.314281 518.139422)">after the current day</text>
   <text style="font-size: 17px; font-family: 'Arial', sans-serif" transform="translate(711.781469 536.319328)">= 0.072</text>
  </g>
  <g id="text_30">
   <text style="font-style: italic; font-size: 14px; font-family: 'Arial', sans-serif; text-anchor: end; fill: #696969" x="263.016" y="322.7625" transform="rotate(-0 263.016 322.7625)">Inference (optional)</text>
  </g>
  <g id="patch_293">
   <path d="M 523.350369 469.815 
Q 538.929776 469.815 554.509183 469.815 
L 554.509183 461.565 
Q 565.010598 468.315 575.512013 475.065 
Q 565.010598 481.815 554.509183 488.565 
L 554.509183 480.315 
Q 538.929776 480.315 523.350369 480.315 
L 523.350369 469.815 
z
" style="fill: #696969"/>
  </g>
  <g id="patch_294">
   <path d="M 810.7716 285.496919 
Q 810.7716 308.63979 810.7716 331.782662 
L 819.0216 331.782662 
Q 812.2716 342.281243 805.5216 352.779823 
Q 798.7716 342.281243 792.0216 331.782662 
L 800.2716 331.782662 
Q 800.2716 308.63979 800.2716 285.496919 
L 810.7716 285.496919 
z
" style="fill: #696969"/>
  </g>
  <g id="patch_295">
   <path d="M 526.714957 281.823658 
Q 547.057963 307.643626 567.400968 333.463595 
L 573.881275 328.357899 
Q 575.077336 340.782913 576.273398 353.207928 
Q 564.473199 349.137688 552.673 345.067449 
L 559.153306 339.961753 
Q 538.8103 314.141785 518.467295 288.321816 
L 526.714957 281.823658 
z
" style="fill: #696969"/>
  </g>
  <g id="patch_296">
   <path d="M 277.056 285.496919 
Q 277.056 301.318448 277.056 317.139978 
" style="fill: none; stroke-dasharray: 7.4,3.2; stroke-dashoffset: 0; stroke: #696969; stroke-width: 2; stroke-linecap: round"/>
  </g>
  <g id="patch_297">
   <path d="M 740.376 285.496919 
Q 740.376 301.318448 740.376 317.139978 
" style="fill: none; stroke-dasharray: 7.4,3.2; stroke-dashoffset: 0; stroke: #696969; stroke-width: 2; stroke-linecap: round"/>
  </g>
  <g id="patch_298">
   <path d="M 279.053191 319.14 
Q 508.713265 319.14 738.37334 319.14 
" style="fill: none; stroke-dasharray: 7.4,3.2; stroke-dashoffset: 0; stroke: #696969; stroke-width: 2; stroke-linecap: round"/>
  </g>
  <g id="patch_299">
   <path d="M 277.056 321.136919 
Q 277.056 336.958448 277.056 350.54391 
" style="fill: none; stroke-dasharray: 7.4,3.2; stroke-dashoffset: 0; stroke: #696969; stroke-width: 2; stroke-linecap: round"/>
   <path d="M 280.656 343.34391 
L 277.056 350.54391 
L 273.456 343.34391 
z
" style="fill: #696969; stroke-dasharray: 7.4,3.2; stroke-dashoffset: 0; stroke: #696969; stroke-width: 2; stroke-linecap: round"/>
  </g>
  <g id="patch_300">
   <path d="M 42.12 16.2 
L 511.992 16.2 
Q 521.352 16.2 521.352 25.56 
L 521.352 48.6 
Q 521.352 48.6 521.352 48.6 
L 32.76 48.6 
Q 32.76 48.6 32.76 48.6 
L 32.76 25.56 
Q 32.76 16.2 42.12 16.2 
z
" style="fill: #7e57c2"/>
  </g>
  <g id="patch_301">
   <path d="M 586.872 16.2 
L 893.88 16.2 
Q 903.24 16.2 903.24 25.56 
L 903.24 48.6 
Q 903.24 48.6 903.24 48.6 
L 577.512 48.6 
Q 577.512 48.6 577.512 48.6 
L 577.512 25.56 
Q 577.512 16.2 586.872 16.2 
z
" style="fill: #2e9e5c"/>
  </g>
  <g id="patch_302">
   <path d="M 42.12 354.78 
L 511.992 354.78 
Q 521.352 354.78 521.352 364.14 
L 521.352 387.18 
Q 521.352 387.18 521.352 387.18 
L 32.76 387.18 
Q 32.76 387.18 32.76 387.18 
L 32.76 364.14 
Q 32.76 354.78 42.12 354.78 
z
" style="fill: #1e88e5"/>
  </g>
  <g id="patch_303">
   <path d="M 586.872 354.78 
L 893.88 354.78 
Q 903.24 354.78 903.24 364.14 
L 903.24 387.18 
Q 903.24 387.18 903.24 387.18 
L 577.512 387.18 
Q 577.512 387.18 577.512 387.18 
L 577.512 364.14 
Q 577.512 354.78 586.872 354.78 
z
" style="fill: #f57c00"/>
  </g>
  <g id="patch_304">
   <path d="M 42.12 16.2 
L 511.992 16.2 
Q 521.352 16.2 521.352 25.56 
L 521.352 274.14 
Q 521.352 283.5 511.992 283.5 
L 42.12 283.5 
Q 32.76 283.5 32.76 274.14 
L 32.76 25.56 
Q 32.76 16.2 42.12 16.2 
L 42.12 16.2 
z
" style="fill: none; stroke: #7e57c2; stroke-width: 2; stroke-linejoin: miter"/>
  </g>
  <g id="patch_305">
   <path d="M 586.872 16.2 
L 893.88 16.2 
Q 903.24 16.2 903.24 25.56 
L 903.24 274.14 
Q 903.24 283.5 893.88 283.5 
L 586.872 283.5 
Q 577.512 283.5 577.512 274.14 
L 577.512 25.56 
Q 577.512 16.2 586.872 16.2 
L 586.872 16.2 
z
" style="fill: none; stroke: #2e9e5c; stroke-width: 2; stroke-linejoin: miter"/>
  </g>
  <g id="patch_306">
   <path d="M 42.12 354.78 
L 511.992 354.78 
Q 521.352 354.78 521.352 364.14 
L 521.352 612.72 
Q 521.352 622.08 511.992 622.08 
L 42.12 622.08 
Q 32.76 622.08 32.76 612.72 
L 32.76 364.14 
Q 32.76 354.78 42.12 354.78 
L 42.12 354.78 
z
" style="fill: none; stroke: #1e88e5; stroke-width: 2; stroke-linejoin: miter"/>
  </g>
  <g id="patch_307">
   <path d="M 586.872 354.78 
L 893.88 354.78 
Q 903.24 354.78 903.24 364.14 
L 903.24 612.72 
Q 903.24 622.08 893.88 622.08 
L 586.872 622.08 
Q 577.512 622.08 577.512 612.72 
L 577.512 364.14 
Q 577.512 354.78 586.872 354.78 
L 586.872 354.78 
z
" style="fill: none; stroke: #f57c00; stroke-width: 2; stroke-linejoin: miter"/>
  </g>
  <g id="text_31">
   <text style="font-weight: 700; font-size: 15px; font-family: 'Arial', sans-serif; text-anchor: middle; fill: #ffffff" x="277.056" y="36.310547" transform="rotate(-0 277.056 36.310547)">A. Input 1: disease incidence time series</text>
  </g>
  <g id="text_32">
   <text style="font-weight: 700; font-size: 15px; font-family: 'Arial', sans-serif; text-anchor: middle; fill: #ffffff" x="740.376" y="36.310547" transform="rotate(-0 740.376 36.310547)">B. Input 2: serial interval distribution</text>
  </g>
  <g id="text_33">
   <text style="font-weight: 700; font-size: 15px; font-family: 'Arial', sans-serif; text-anchor: middle; fill: #ffffff" x="277.056" y="374.959688" transform="rotate(-0 277.056 374.959688)">C. Input 3: seasonal time-dependent reproduction number</text>
  </g>
  <g id="text_34">
   <text style="font-weight: 700; font-size: 15px; font-family: 'Arial', sans-serif; text-anchor: middle; fill: #ffffff" x="740.376" y="374.86125" transform="rotate(-0 740.376 374.86125)">D. Output: probability of additional cases</text>
  </g>
 </g>
 <defs>
  <clipPath id="p3739f4ba09">
   <rect x="74.88" y="64.8" width="418.392" height="163.62"/>
  </clipPath>
  <clipPath id="pde2cf2d765">
   <rect x="619.632" y="64.8" width="255.528" height="163.62"/>
  </clipPath>
  <clipPath id="pcdbde4a5ce">
   <rect x="74.88" y="403.38" width="418.392" height="163.62"/>
  </clipPath>
 </defs>
</svg>
