<?xml version='1.0' encoding='ASCII' standalone='yes'?>
<svg xmlns="http://www.w3.org/2000/svg" xmlns:xlink="http://www.w3.org/1999/xlink" version="1.1" width="1000px" height="450px">
  <g>
    <g transform="translate(0, -40) scale(1 1) "><metadata>
  <rdf:RDF xmlns:dc="http://purl.org/dc/elements/1.1/" xmlns:cc="http://creativecommons.org/ns#" xmlns:rdf="http://www.w3.org/1999/02/22-rdf-syntax-ns#">
   <cc:Work>
    <dc:type rdf:resource="http://purl.org/dc/dcmitype/StillImage"/>
    <dc:date>2026-02-20T16:21:04.056131</dc:date>
    <dc:format>image/svg+xml</dc:format>
    <dc:creator>
     <cc:Agent>
      <dc:title>Matplotlib v3.10.8, https://matplotlib.org/</dc:title>
     </cc:Agent>
    </dc:creator>
   </cc:Work>
  </rdf:RDF>
 </metadata>
 <defs>
  <style type="text/css">*{stroke-linejoin: round; stroke-linecap: butt}</style>
 </defs>
 <g id="figure_1">
  <g id="patch_1">
   <path d="M 0 504  L 504 504  L 504 0  L 0 0  L 0 504  z " style="fill: none"/>
  </g>
  <g id="axes_1">
   <g id="patch_2">
    <path d="M 63 448.56  L 453.6 448.56  L 453.6 60.48  L 63 60.48  L 63 448.56  z " style="fill: none"/>
   </g>
   <g id="matplotlib.axis_1">
    <g id="xtick_1">
     <g id="line2d_1">
      <defs>
       <path id="m971d1f4542" d="M 0 0  L 0 3.5  " style="stroke: #000000; stroke-width: 0.8"/>
      </defs>
      <g>
       <use xlink:href="#m971d1f4542" x="91.787289" y="448.56" style="stroke: #000000; stroke-width: 0.8"/>
      </g>
     </g>
     <g id="text_1">
      <text style="font-size: 16px; font-family: 'Arial', sans-serif; text-anchor: middle" x="91.787289" y="467.0125" transform="rotate(-0 91.787289 467.0125)">1 Jul</text>
     </g>
    </g>
    <g id="xtick_2">
     <g id="line2d_2">
      <g>
       <use xlink:href="#m971d1f4542" x="155.123412" y="448.56" style="stroke: #000000; stroke-width: 0.8"/>
      </g>
     </g>
     <g id="text_2">
      <text style="font-size: 16px; font-family: 'Arial', sans-serif; text-anchor: middle" x="155.123412" y="467.06" transform="rotate(-0 155.123412 467.06)">1 Aug</text>
     </g>
    </g>
    <g id="xtick_3">
     <g id="line2d_3">
      <g>
       <use xlink:href="#m971d1f4542" x="218.459536" y="448.56" style="stroke: #000000; stroke-width: 0.8"/>
      </g>
     </g>
     <g id="text_3">
      <text style="font-size: 16px; font-family: 'Arial', sans-serif; text-anchor: middle" x="218.459536" y="467.2075" transform="rotate(-0 218.459536 467.2075)">1 Sep</text>
     </g>
    </g>
    <g id="xtick_4">
     <g id="line2d_4">
      <g>
       <use xlink:href="#m971d1f4542" x="279.752558" y="448.56" style="stroke: #000000; stroke-width: 0.8"/>
      </g>
     </g>
     <g id="text_4">
      <text style="font-size: 16px; font-family: 'Arial', sans-serif; text-anchor: middle" x="279.752558" y="467.0125" transform="rotate(-0 279.752558 467.0125)">1 Oct</text>
     </g>
    </g>
    <g id="xtick_5">
     <g id="line2d_5">
      <g>
       <use xlink:href="#m971d1f4542" x="343.088681" y="448.56" style="stroke: #000000; stroke-width: 0.8"/>
      </g>
     </g>
     <g id="text_5">
      <text style="font-size: 16px; font-family: 'Arial', sans-serif; text-anchor: middle" x="343.088681" y="467.0125" transform="rotate(-0 343.088681 467.0125)">1 Nov</text>
     </g>
    </g>
    <g id="xtick_6">
     <g id="line2d_6">
      <g>
       <use xlink:href="#m971d1f4542" x="404.381703" y="448.56" style="stroke: #000000; stroke-width: 0.8"/>
      </g>
     </g>
     <g id="text_6">
      <text style="font-size: 16px; font-family: 'Arial', sans-serif; text-anchor: middle" x="404.381703" y="467.0125" transform="rotate(-0 404.381703 467.0125)">1 Dec</text>
     </g>
    </g>
   </g>
   <g id="matplotlib.axis_2">
    <g id="ytick_1">
     <g id="line2d_7">
      <defs>
       <path id="m7412597f34" d="M 0 0  L -3.5 0  " style="stroke: #000000; stroke-width: 0.8"/>
      </defs>
      <g>
       <use xlink:href="#m7412597f34" x="63" y="448.56" style="stroke: #000000; stroke-width: 0.8"/>
      </g>
     </g>
     <g id="text_7">
      <text style="font-size: 16px; font-family: 'Arial', sans-serif; text-anchor: end" x="56" y="454.28625" transform="rotate(-0 56 454.28625)">0.0</text>
     </g>
    </g>
    <g id="ytick_2">
     <g id="line2d_8">
      <g>
       <use xlink:href="#m7412597f34" x="63" y="371.712475" style="stroke: #000000; stroke-width: 0.8"/>
      </g>
     </g>
     <g id="text_8">
      <text style="font-size: 16px; font-family: 'Arial', sans-serif; text-anchor: end" x="56" y="377.438725" transform="rotate(-0 56 377.438725)">0.2</text>
     </g>
    </g>
    <g id="ytick_3">
     <g id="line2d_9">
      <g>
       <use xlink:href="#m7412597f34" x="63" y="294.86495" style="stroke: #000000; stroke-width: 0.8"/>
      </g>
     </g>
     <g id="text_9">
      <text style="font-size: 16px; font-family: 'Arial', sans-serif; text-anchor: end" x="56" y="300.5912" transform="rotate(-0 56 300.5912)">0.4</text>
     </g>
    </g>
    <g id="ytick_4">
     <g id="line2d_10">
      <g>
       <use xlink:href="#m7412597f34" x="63" y="218.017426" style="stroke: #000000; stroke-width: 0.8"/>
      </g>
     </g>
     <g id="text_10">
      <text style="font-size: 16px; font-family: 'Arial', sans-serif; text-anchor: end" x="56" y="223.743676" transform="rotate(-0 56 223.743676)">0.6</text>
     </g>
    </g>
    <g id="ytick_5">
     <g id="line2d_11">
      <g>
       <use xlink:href="#m7412597f34" x="63" y="141.169901" style="stroke: #000000; stroke-width: 0.8"/>
      </g>
     </g>
     <g id="text_11">
      <text style="font-size: 16px; font-family: 'Arial', sans-serif; text-anchor: end" x="56" y="146.896151" transform="rotate(-0 56 146.896151)">0.8</text>
     </g>
    </g>
    <g id="ytick_6">
     <g id="line2d_12">
      <g>
       <use xlink:href="#m7412597f34" x="63" y="64.322376" style="stroke: #000000; stroke-width: 0.8"/>
      </g>
     </g>
     <g id="text_12">
      <text style="font-size: 16px; font-family: 'Arial', sans-serif; text-anchor: end" x="56" y="70.048626" transform="rotate(-0 56 70.048626)">1.0</text>
     </g>
    </g>
    <g id="text_13">
     <text style="font-size: 16px; font-family: 'Arial', sans-serif; text-anchor: middle" x="26.58" y="254.52" transform="rotate(-90 26.58 254.52)">Risk of additional cases</text>
    </g>
   </g>
   <g id="line2d_13">
    <path d="M 81.571786 64.322376  L 83.614886 103.445125  L 85.657987 70.370514  L 87.701088 65.526785  L 93.83039 65.630434  L 95.873491 65.789327  L 97.916592 66.098284  L 99.959692 66.667681  L 102.002793 65.423032  L 104.045894 65.960752  L 106.088995 66.849015  L 108.132095 68.25871  L 110.175196 70.412219  L 112.218297 73.615742  L 114.261398 78.260729  L 116.304498 84.836562  L 118.347599 93.991888  L 120.3907 106.412166  L 122.433801 73.757416  L 124.476901 76.917102  L 126.520002 80.698351  L 128.563103 67.722676  L 130.606204 68.479144  L 132.649304 65.178903  L 134.692405 65.343438  L 136.735506 64.534854  L 138.778607 64.58392  L 140.821707 64.378828  L 146.95101 64.326704  L 218.459536 64.322376  L 275.666356 64.371145  L 279.752558 64.675645  L 281.795659 65.098752  L 283.838759 66.147396  L 285.88186 68.092121  L 289.968062 73.010371  L 292.011162 76.833932  L 294.054263 83.357597  L 296.097364 88.461233  L 298.140464 97.778201  L 300.183565 103.472592  L 302.226666 115.097041  L 304.269767 128.667897  L 306.312867 144.635176  L 308.355968 149.769091  L 310.399069 153.714796  L 314.48527 188.062696  L 316.528371 206.394598  L 318.571472 201.326587  L 324.700774 247.084151  L 328.786976 277.52801  L 332.873177 309.599003  L 336.959379 343.811638  L 339.002479 322.201081  L 341.04558 335.582147  L 343.088681 347.526959  L 345.131782 357.918175  L 347.174882 367.01219  L 349.217983 375.225461  L 351.261084 382.936068  L 353.304185 359.075398  L 357.390386 371.898785  L 361.476588 383.964158  L 375.778293 424.25465  L 377.821393 429.121457  L 379.864494 433.35363  L 381.907595 436.931752  L 383.950696 439.853713  L 385.993796 442.142935  L 388.036897 443.925317  L 390.079998 445.275326  L 392.123099 446.26008  L 394.166199 446.975448  L 396.2093 447.482971  L 400.295502 448.080371  L 404.381703 448.355491  L 410.511005 448.507155  L 426.855811 448.558945  L 435.028214 448.56  L 435.028214 448.56  " clip-path="url(#p6a9efb9afe)" style="fill: none; stroke: #0173b2; stroke-width: 2; stroke-linecap: square"/>
   </g>
   <g id="line2d_14">
    <path d="M 81.571786 64.322376  L 83.614886 104.437263  L 85.657987 70.560358  L 87.701088 65.536434  L 93.83039 65.648325  L 95.873491 65.816104  L 97.916592 66.142675  L 99.959692 66.741995  L 102.002793 65.43399  L 104.045894 65.989858  L 106.088995 66.901678  L 108.132095 68.343512  L 110.175196 70.547575  L 112.218297 73.82306  L 114.261398 78.52323  L 116.304498 85.103649  L 118.347599 94.174549  L 120.3907 106.486753  L 122.433801 73.494212  L 124.476901 76.556631  L 126.520002 80.197613  L 128.563103 67.549068  L 130.606204 68.267745  L 132.649304 65.121911  L 134.692405 65.27539  L 136.735506 64.517447  L 138.778607 64.562542  L 140.821707 64.373018  L 148.99411 64.323261  L 281.795659 64.421604  L 283.838759 64.586176  L 285.88186 64.949616  L 287.924961 65.436488  L 289.968062 65.801985  L 292.011162 66.571173  L 294.054263 68.263767  L 296.097364 69.511009  L 298.140464 72.561749  L 300.183565 74.158831  L 302.226666 78.825517  L 304.269767 85.114347  L 306.312867 93.517341  L 308.355968 94.454244  L 310.399069 94.568787  L 312.44217 103.816215  L 314.48527 114.689615  L 316.528371 127.254134  L 318.571472 119.529893  L 320.614573 130.431401  L 322.657673 142.157781  L 324.700774 154.973431  L 326.743875 168.964888  L 328.786976 184.24537  L 330.830076 201.086659  L 332.873177 219.654295  L 334.916278 240.023492  L 336.959379 262.013649  L 339.002479 208.831694  L 343.088681 237.134888  L 345.131782 250.137126  L 347.174882 262.125116  L 351.261084 284.742359  L 353.304185 213.278877  L 355.347285 220.919678  L 359.433487 237.574894  L 361.476588 246.578914  L 363.519688 256.210233  L 365.562789 266.800324  L 367.60589 278.640026  L 369.64899 291.907443  L 371.692091 306.481834  L 375.778293 338.289549  L 379.864494 370.04579  L 381.907595 384.518861  L 383.950696 397.491644  L 385.993796 408.738367  L 388.036897 418.150817  L 390.079998 425.805848  L 392.123099 431.840282  L 394.166199 436.475444  L 396.2093 439.952351  L 398.252401 442.50508  L 400.295502 444.361826  L 402.338602 445.681861  L 404.381703 446.610951  L 406.424804 447.251785  L 408.467905 447.689829  L 412.554106 448.185242  L 416.640308 448.404206  L 424.812711 448.536024  L 435.028214 448.56  L 435.028214 448.56  " clip-path="url(#p6a9efb9afe)" style="fill: none; stroke: #de8f05; stroke-width: 2; stroke-linecap: square"/>
   </g>
   <g id="line2d_15">
    <path d="M 375.778293 448.56  L 375.778293 60.48  " clip-path="url(#p6a9efb9afe)" style="fill: none; stroke-dasharray: 7.4,3.2; stroke-dashoffset: 0; stroke: #029e73; stroke-width: 2"/>
   </g>
   <g id="line2d_16">
    <path d="M 404.381703 448.56  L 404.381703 60.48  " clip-path="url(#p6a9efb9afe)" style="fill: none; stroke-dasharray: 7.4,3.2; stroke-dashoffset: 0; stroke: #d55e00; stroke-width: 2"/>
   </g>
   <g id="line2d_17">
    <path d="M 443.200617 448.56  L 443.200617 60.48  " clip-path="url(#p6a9efb9afe)" style="fill: none; stroke-dasharray: 7.4,3.2; stroke-dashoffset: 0; stroke: #cc78bc; stroke-width: 2"/>
   </g>
   <g id="patch_3">
    <path d="M 63 448.56  L 63 60.48  " style="fill: none; stroke: #000000; stroke-width: 0.8; stroke-linejoin: miter; stroke-linecap: square"/>
   </g>
   <g id="patch_4">
    <path d="M 63 448.56  L 453.6 448.56  " style="fill: none; stroke: #000000; stroke-width: 0.8; stroke-linejoin: miter; stroke-linecap: square"/>
   </g>
   <g id="legend_1">
    <g id="patch_5">
     <path d="M 72.8 172.029375  L 302.774063 172.029375  Q 305.574063 172.029375 305.574063 169.229375  L 305.574063 70.28  Q 305.574063 67.48 302.774063 67.48  L 72.8 67.48  Q 70 67.48 70 70.28  L 70 169.229375  Q 70 172.029375 72.8 172.029375  z " style="fill: #ffffff; opacity: 0.8; stroke: #cccccc; stroke-linejoin: miter"/>
    </g>
    <g id="line2d_18">
     <path d="M 75.6 78.371563  L 89.6 78.371563  L 103.6 78.371563  " style="fill: none; stroke: #0173b2; stroke-width: 2; stroke-linecap: square"/>
    </g>
    <g id="text_14">
     <text style="font-size: 14px; font-family: 'Arial', sans-serif; text-anchor: start" x="114.8" y="83.271563" transform="rotate(-0 114.8 83.271563)">Suitability-based</text>
    </g>
    <g id="line2d_19">
     <path d="M 75.6 98.339063  L 89.6 98.339063  L 103.6 98.339063  " style="fill: none; stroke: #de8f05; stroke-width: 2; stroke-linecap: square"/>
    </g>
    <g id="text_15">
     <text style="font-size: 14px; font-family: 'Arial', sans-serif; text-anchor: start" x="114.8" y="103.239063" transform="rotate(-0 114.8 103.239063)">Autoregressive</text>
    </g>
    <g id="line2d_20">
     <path d="M 75.6 118.477187  L 89.6 118.477187  L 103.6 118.477187  " style="fill: none; stroke-dasharray: 7.4,3.2; stroke-dashoffset: 0; stroke: #029e73; stroke-width: 2"/>
    </g>
    <g id="text_16">
     <text style="font-size: 14px; font-family: 'Arial', sans-serif; text-anchor: start" x="114.8" y="123.377187" transform="rotate(-0 114.8 123.377187)">Blood measures lifted (Rome)</text>
    </g>
    <g id="line2d_21">
     <path d="M 75.6 138.615313  L 89.6 138.615313  L 103.6 138.615313  " style="fill: none; stroke-dasharray: 7.4,3.2; stroke-dashoffset: 0; stroke: #d55e00; stroke-width: 2"/>
    </g>
    <g id="text_17">
     <text style="font-size: 14px; font-family: 'Arial', sans-serif; text-anchor: start" x="114.8" y="143.515313" transform="rotate(-0 114.8 143.515313)">Blood measures lifted (Anzio)</text>
    </g>
    <g id="line2d_22">
     <path d="M 75.6 158.582813  L 89.6 158.582813  L 103.6 158.582813  " style="fill: none; stroke-dasharray: 7.4,3.2; stroke-dashoffset: 0; stroke: #cc78bc; stroke-width: 2"/>
    </g>
    <g id="text_18">
     <text style="font-size: 14px; font-family: 'Arial', sans-serif; text-anchor: start" x="114.8" y="163.482813" transform="rotate(-0 114.8 163.482813)">45-day rule</text>
    </g>
   </g>
  </g>
  <g id="axes_2">
   <g id="patch_6">
    <path d="M 80.754545 448.56  L 82.389026 448.56  L 82.389026 396.816  L 80.754545 396.816  z " clip-path="url(#p6a9efb9afe)" style="fill: #7f7f7f; opacity: 0.5"/>
   </g>
   <g id="patch_7">
    <path d="M 82.797646 448.56  L 84.432127 448.56  L 84.432127 396.816  L 82.797646 396.816  z " clip-path="url(#p6a9efb9afe)" style="fill: #7f7f7f; opacity: 0.5"/>
   </g>
   <g id="patch_8">
    <path d="M 84.840747 448.56  L 86.475228 448.56  L 86.475228 396.816  L 84.840747 396.816  z " clip-path="url(#p6a9efb9afe)" style="fill: #7f7f7f; opacity: 0.5"/>
   </g>
   <g id="patch_9">
    <path d="M 86.883848 448.56  L 88.518328 448.56  L 88.518328 448.56  L 86.883848 448.56  z " clip-path="url(#p6a9efb9afe)" style="fill: #7f7f7f; opacity: 0.5"/>
   </g>
   <g id="patch_10">
    <path d="M 88.926948 448.56  L 90.561429 448.56  L 90.561429 448.56  L 88.926948 448.56  z " clip-path="url(#p6a9efb9afe)" style="fill: #7f7f7f; opacity: 0.5"/>
   </g>
   <g id="patch_11">
    <path d="M 90.970049 448.56  L 92.60453 448.56  L 92.60453 448.56  L 90.970049 448.56  z " clip-path="url(#p6a9efb9afe)" style="fill: #7f7f7f; opacity: 0.5"/>
   </g>
   <g id="patch_12">
    <path d="M 93.01315 448.56  L 94.647631 448.56  L 94.647631 448.56  L 93.01315 448.56  z " clip-path="url(#p6a9efb9afe)" style="fill: #7f7f7f; opacity: 0.5"/>
   </g>
   <g id="patch_13">
    <path d="M 95.056251 448.56  L 96.690731 448.56  L 96.690731 448.56  L 95.056251 448.56  z " clip-path="url(#p6a9efb9afe)" style="fill: #7f7f7f; opacity: 0.5"/>
   </g>
   <g id="patch_14">
    <path d="M 97.099351 448.56  L 98.733832 448.56  L 98.733832 448.56  L 97.099351 448.56  z " clip-path="url(#p6a9efb9afe)" style="fill: #7f7f7f; opacity: 0.5"/>
   </g>
   <g id="patch_15">
    <path d="M 99.142452 448.56  L 100.776933 448.56  L 100.776933 422.688  L 99.142452 422.688  z " clip-path="url(#p6a9efb9afe)" style="fill: #7f7f7f; opacity: 0.5"/>
   </g>
   <g id="patch_16">
    <path d="M 101.185553 448.56  L 102.820033 448.56  L 102.820033 448.56  L 101.185553 448.56  z " clip-path="url(#p6a9efb9afe)" style="fill: #7f7f7f; opacity: 0.5"/>
   </g>
   <g id="patch_17">
    <path d="M 103.228654 448.56  L 104.863134 448.56  L 104.863134 448.56  L 103.228654 448.56  z " clip-path="url(#p6a9efb9afe)" style="fill: #7f7f7f; opacity: 0.5"/>
   </g>
   <g id="patch_18">
    <path d="M 105.271754 448.56  L 106.906235 448.56  L 106.906235 448.56  L 105.271754 448.56  z " clip-path="url(#p6a9efb9afe)" style="fill: #7f7f7f; opacity: 0.5"/>
   </g>
   <g id="patch_19">
    <path d="M 107.314855 448.56  L 108.949336 448.56  L 108.949336 448.56  L 107.314855 448.56  z " clip-path="url(#p6a9efb9afe)" style="fill: #7f7f7f; opacity: 0.5"/>
   </g>
   <g id="patch_20">
    <path d="M 109.357956 448.56  L 110.992436 448.56  L 110.992436 448.56  L 109.357956 448.56  z " clip-path="url(#p6a9efb9afe)" style="fill: #7f7f7f; opacity: 0.5"/>
   </g>
   <g id="patch_21">
    <path d="M 111.401057 448.56  L 113.035537 448.56  L 113.035537 448.56  L 111.401057 448.56  z " clip-path="url(#p6a9efb9afe)" style="fill: #7f7f7f; opacity: 0.5"/>
   </g>
   <g id="patch_22">
    <path d="M 113.444157 448.56  L 115.078638 448.56  L 115.078638 448.56  L 113.444157 448.56  z " clip-path="url(#p6a9efb9afe)" style="fill: #7f7f7f; opacity: 0.5"/>
   </g>
   <g id="patch_23">
    <path d="M 115.487258 448.56  L 117.121739 448.56  L 117.121739 448.56  L 115.487258 448.56  z " clip-path="url(#p6a9efb9afe)" style="fill: #7f7f7f; opacity: 0.5"/>
   </g>
   <g id="patch_24">
    <path d="M 117.530359 448.56  L 119.164839 448.56  L 119.164839 448.56  L 117.530359 448.56  z " clip-path="url(#p6a9efb9afe)" style="fill: #7f7f7f; opacity: 0.5"/>
   </g>
   <g id="patch_25">
    <path d="M 119.57346 448.56  L 121.20794 448.56  L 121.20794 422.688  L 119.57346 422.688  z " clip-path="url(#p6a9efb9afe)" style="fill: #7f7f7f; opacity: 0.5"/>
   </g>
   <g id="patch_26">
    <path d="M 121.61656 448.56  L 123.251041 448.56  L 123.251041 448.56  L 121.61656 448.56  z " clip-path="url(#p6a9efb9afe)" style="fill: #7f7f7f; opacity: 0.5"/>
   </g>
   <g id="patch_27">
    <path d="M 123.659661 448.56  L 125.294142 448.56  L 125.294142 448.56  L 123.659661 448.56  z " clip-path="url(#p6a9efb9afe)" style="fill: #7f7f7f; opacity: 0.5"/>
   </g>
   <g id="patch_28">
    <path d="M 125.702762 448.56  L 127.337242 448.56  L 127.337242 422.688  L 125.702762 422.688  z " clip-path="url(#p6a9efb9afe)" style="fill: #7f7f7f; opacity: 0.5"/>
   </g>
   <g id="patch_29">
    <path d="M 127.745863 448.56  L 129.380343 448.56  L 129.380343 448.56  L 127.745863 448.56  z " clip-path="url(#p6a9efb9afe)" style="fill: #7f7f7f; opacity: 0.5"/>
   </g>
   <g id="patch_30">
    <path d="M 129.788963 448.56  L 131.423444 448.56  L 131.423444 422.688  L 129.788963 422.688  z " clip-path="url(#p6a9efb9afe)" style="fill: #7f7f7f; opacity: 0.5"/>
   </g>
   <g id="patch_31">
    <path d="M 131.832064 448.56  L 133.466545 448.56  L 133.466545 448.56  L 131.832064 448.56  z " clip-path="url(#p6a9efb9afe)" style="fill: #7f7f7f; opacity: 0.5"/>
   </g>
   <g id="patch_32">
    <path d="M 133.875165 448.56  L 135.509645 448.56  L 135.509645 422.688  L 133.875165 422.688  z " clip-path="url(#p6a9efb9afe)" style="fill: #7f7f7f; opacity: 0.5"/>
   </g>
   <g id="patch_33">
    <path d="M 135.918266 448.56  L 137.552746 448.56  L 137.552746 448.56  L 135.918266 448.56  z " clip-path="url(#p6a9efb9afe)" style="fill: #7f7f7f; opacity: 0.5"/>
   </g>
   <g id="patch_34">
    <path d="M 137.961366 448.56  L 139.595847 448.56  L 139.595847 422.688  L 137.961366 422.688  z " clip-path="url(#p6a9efb9afe)" style="fill: #7f7f7f; opacity: 0.5"/>
   </g>
   <g id="patch_35">
    <path d="M 140.004467 448.56  L 141.638948 448.56  L 141.638948 422.688  L 140.004467 422.688  z " clip-path="url(#p6a9efb9afe)" style="fill: #7f7f7f; opacity: 0.5"/>
   </g>
   <g id="patch_36">
    <path d="M 142.047568 448.56  L 143.682048 448.56  L 143.682048 448.56  L 142.047568 448.56  z " clip-path="url(#p6a9efb9afe)" style="fill: #7f7f7f; opacity: 0.5"/>
   </g>
   <g id="patch_37">
    <path d="M 144.090668 448.56  L 145.725149 448.56  L 145.725149 422.688  L 144.090668 422.688  z " clip-path="url(#p6a9efb9afe)" style="fill: #7f7f7f; opacity: 0.5"/>
   </g>
   <g id="patch_38">
    <path d="M 146.133769 448.56  L 147.76825 448.56  L 147.76825 422.688  L 146.133769 422.688  z " clip-path="url(#p6a9efb9afe)" style="fill: #7f7f7f; opacity: 0.5"/>
   </g>
   <g id="patch_39">
    <path d="M 148.17687 448.56  L 149.811351 448.56  L 149.811351 448.56  L 148.17687 448.56  z " clip-path="url(#p6a9efb9afe)" style="fill: #7f7f7f; opacity: 0.5"/>
   </g>
   <g id="patch_40">
    <path d="M 150.219971 448.56  L 151.854451 448.56  L 151.854451 422.688  L 150.219971 422.688  z " clip-path="url(#p6a9efb9afe)" style="fill: #7f7f7f; opacity: 0.5"/>
   </g>
   <g id="patch_41">
    <path d="M 152.263071 448.56  L 153.897552 448.56  L 153.897552 448.56  L 152.263071 448.56  z " clip-path="url(#p6a9efb9afe)" style="fill: #7f7f7f; opacity: 0.5"/>
   </g>
   <g id="patch_42">
    <path d="M 154.306172 448.56  L 155.940653 448.56  L 155.940653 448.56  L 154.306172 448.56  z " clip-path="url(#p6a9efb9afe)" style="fill: #7f7f7f; opacity: 0.5"/>
   </g>
   <g id="patch_43">
    <path d="M 156.349273 448.56  L 157.983754 448.56  L 157.983754 370.944  L 156.349273 370.944  z " clip-path="url(#p6a9efb9afe)" style="fill: #7f7f7f; opacity: 0.5"/>
   </g>
   <g id="patch_44">
    <path d="M 158.392374 448.56  L 160.026854 448.56  L 160.026854 396.816  L 158.392374 396.816  z " clip-path="url(#p6a9efb9afe)" style="fill: #7f7f7f; opacity: 0.5"/>
   </g>
   <g id="patch_45">
    <path d="M 160.435474 448.56  L 162.069955 448.56  L 162.069955 422.688  L 160.435474 422.688  z " clip-path="url(#p6a9efb9afe)" style="fill: #7f7f7f; opacity: 0.5"/>
   </g>
   <g id="patch_46">
    <path d="M 162.478575 448.56  L 164.113056 448.56  L 164.113056 422.688  L 162.478575 422.688  z " clip-path="url(#p6a9efb9afe)" style="fill: #7f7f7f; opacity: 0.5"/>
   </g>
   <g id="patch_47">
    <path d="M 164.521676 448.56  L 166.156157 448.56  L 166.156157 422.688  L 164.521676 422.688  z " clip-path="url(#p6a9efb9afe)" style="fill: #7f7f7f; opacity: 0.5"/>
   </g>
   <g id="patch_48">
    <path d="M 166.564777 448.56  L 168.199257 448.56  L 168.199257 422.688  L 166.564777 422.688  z " clip-path="url(#p6a9efb9afe)" style="fill: #7f7f7f; opacity: 0.5"/>
   </g>
   <g id="patch_49">
    <path d="M 168.607877 448.56  L 170.242358 448.56  L 170.242358 370.944  L 168.607877 370.944  z " clip-path="url(#p6a9efb9afe)" style="fill: #7f7f7f; opacity: 0.5"/>
   </g>
   <g id="patch_50">
    <path d="M 170.650978 448.56  L 172.285459 448.56  L 172.285459 448.56  L 170.650978 448.56  z " clip-path="url(#p6a9efb9afe)" style="fill: #7f7f7f; opacity: 0.5"/>
   </g>
   <g id="patch_51">
    <path d="M 172.694079 448.56  L 174.328559 448.56  L 174.328559 422.688  L 172.694079 422.688  z " clip-path="url(#p6a9efb9afe)" style="fill: #7f7f7f; opacity: 0.5"/>
   </g>
   <g id="patch_52">
    <path d="M 174.73718 448.56  L 176.37166 448.56  L 176.37166 422.688  L 174.73718 422.688  z " clip-path="url(#p6a9efb9afe)" style="fill: #7f7f7f; opacity: 0.5"/>
   </g>
   <g id="patch_53">
    <path d="M 176.78028 448.56  L 178.414761 448.56  L 178.414761 345.072  L 176.78028 345.072  z " clip-path="url(#p6a9efb9afe)" style="fill: #7f7f7f; opacity: 0.5"/>
   </g>
   <g id="patch_54">
    <path d="M 178.823381 448.56  L 180.457862 448.56  L 180.457862 370.944  L 178.823381 370.944  z " clip-path="url(#p6a9efb9afe)" style="fill: #7f7f7f; opacity: 0.5"/>
   </g>
   <g id="patch_55">
    <path d="M 180.866482 448.56  L 182.500962 448.56  L 182.500962 370.944  L 180.866482 370.944  z " clip-path="url(#p6a9efb9afe)" style="fill: #7f7f7f; opacity: 0.5"/>
   </g>
   <g id="patch_56">
    <path d="M 182.909583 448.56  L 184.544063 448.56  L 184.544063 396.816  L 182.909583 396.816  z " clip-path="url(#p6a9efb9afe)" style="fill: #7f7f7f; opacity: 0.5"/>
   </g>
   <g id="patch_57">
    <path d="M 184.952683 448.56  L 186.587164 448.56  L 186.587164 345.072  L 184.952683 345.072  z " clip-path="url(#p6a9efb9afe)" style="fill: #7f7f7f; opacity: 0.5"/>
   </g>
   <g id="patch_58">
    <path d="M 186.995784 448.56  L 188.630265 448.56  L 188.630265 345.072  L 186.995784 345.072  z " clip-path="url(#p6a9efb9afe)" style="fill: #7f7f7f; opacity: 0.5"/>
   </g>
   <g id="patch_59">
    <path d="M 189.038885 448.56  L 190.673365 448.56  L 190.673365 241.584  L 189.038885 241.584  z " clip-path="url(#p6a9efb9afe)" style="fill: #7f7f7f; opacity: 0.5"/>
   </g>
   <g id="patch_60">
    <path d="M 191.081986 448.56  L 192.716466 448.56  L 192.716466 319.2  L 191.081986 319.2  z " clip-path="url(#p6a9efb9afe)" style="fill: #7f7f7f; opacity: 0.5"/>
   </g>
   <g id="patch_61">
    <path d="M 193.125086 448.56  L 194.759567 448.56  L 194.759567 241.584  L 193.125086 241.584  z " clip-path="url(#p6a9efb9afe)" style="fill: #7f7f7f; opacity: 0.5"/>
   </g>
   <g id="patch_62">
    <path d="M 195.168187 448.56  L 196.802668 448.56  L 196.802668 319.2  L 195.168187 319.2  z " clip-path="url(#p6a9efb9afe)" style="fill: #7f7f7f; opacity: 0.5"/>
   </g>
   <g id="patch_63">
    <path d="M 197.211288 448.56  L 198.845768 448.56  L 198.845768 345.072  L 197.211288 345.072  z " clip-path="url(#p6a9efb9afe)" style="fill: #7f7f7f; opacity: 0.5"/>
   </g>
   <g id="patch_64">
    <path d="M 199.254389 448.56  L 200.888869 448.56  L 200.888869 319.2  L 199.254389 319.2  z " clip-path="url(#p6a9efb9afe)" style="fill: #7f7f7f; opacity: 0.5"/>
   </g>
   <g id="patch_65">
    <path d="M 201.297489 448.56  L 202.93197 448.56  L 202.93197 267.456  L 201.297489 267.456  z " clip-path="url(#p6a9efb9afe)" style="fill: #7f7f7f; opacity: 0.5"/>
   </g>
   <g id="patch_66">
    <path d="M 203.34059 448.56  L 204.975071 448.56  L 204.975071 396.816  L 203.34059 396.816  z " clip-path="url(#p6a9efb9afe)" style="fill: #7f7f7f; opacity: 0.5"/>
   </g>
   <g id="patch_67">
    <path d="M 205.383691 448.56  L 207.018171 448.56  L 207.018171 422.688  L 205.383691 422.688  z " clip-path="url(#p6a9efb9afe)" style="fill: #7f7f7f; opacity: 0.5"/>
   </g>
   <g id="patch_68">
    <path d="M 207.426792 448.56  L 209.061272 448.56  L 209.061272 241.584  L 207.426792 241.584  z " clip-path="url(#p6a9efb9afe)" style="fill: #7f7f7f; opacity: 0.5"/>
   </g>
   <g id="patch_69">
    <path d="M 209.469892 448.56  L 211.104373 448.56  L 211.104373 396.816  L 209.469892 396.816  z " clip-path="url(#p6a9efb9afe)" style="fill: #7f7f7f; opacity: 0.5"/>
   </g>
   <g id="patch_70">
    <path d="M 211.512993 448.56  L 213.147474 448.56  L 213.147474 345.072  L 211.512993 345.072  z " clip-path="url(#p6a9efb9afe)" style="fill: #7f7f7f; opacity: 0.5"/>
   </g>
   <g id="patch_71">
    <path d="M 213.556094 448.56  L 215.190574 448.56  L 215.190574 396.816  L 213.556094 396.816  z " clip-path="url(#p6a9efb9afe)" style="fill: #7f7f7f; opacity: 0.5"/>
   </g>
   <g id="patch_72">
    <path d="M 215.599194 448.56  L 217.233675 448.56  L 217.233675 215.712  L 215.599194 215.712  z " clip-path="url(#p6a9efb9afe)" style="fill: #7f7f7f; opacity: 0.5"/>
   </g>
   <g id="patch_73">
    <path d="M 217.642295 448.56  L 219.276776 448.56  L 219.276776 241.584  L 217.642295 241.584  z " clip-path="url(#p6a9efb9afe)" style="fill: #7f7f7f; opacity: 0.5"/>
   </g>
   <g id="patch_74">
    <path d="M 219.685396 448.56  L 221.319877 448.56  L 221.319877 241.584  L 219.685396 241.584  z " clip-path="url(#p6a9efb9afe)" style="fill: #7f7f7f; opacity: 0.5"/>
   </g>
   <g id="patch_75">
    <path d="M 221.728497 448.56  L 223.362977 448.56  L 223.362977 267.456  L 221.728497 267.456  z " clip-path="url(#p6a9efb9afe)" style="fill: #7f7f7f; opacity: 0.5"/>
   </g>
   <g id="patch_76">
    <path d="M 223.771597 448.56  L 225.406078 448.56  L 225.406078 215.712  L 223.771597 215.712  z " clip-path="url(#p6a9efb9afe)" style="fill: #7f7f7f; opacity: 0.5"/>
   </g>
   <g id="patch_77">
    <path d="M 225.814698 448.56  L 227.449179 448.56  L 227.449179 138.096  L 225.814698 138.096  z " clip-path="url(#p6a9efb9afe)" style="fill: #7f7f7f; opacity: 0.5"/>
   </g>
   <g id="patch_78">
    <path d="M 227.857799 448.56  L 229.49228 448.56  L 229.49228 138.096  L 227.857799 138.096  z " clip-path="url(#p6a9efb9afe)" style="fill: #7f7f7f; opacity: 0.5"/>
   </g>
   <g id="patch_79">
    <path d="M 229.9009 448.56  L 231.53538 448.56  L 231.53538 267.456  L 229.9009 267.456  z " clip-path="url(#p6a9efb9afe)" style="fill: #7f7f7f; opacity: 0.5"/>
   </g>
   <g id="patch_80">
    <path d="M 231.944 448.56  L 233.578481 448.56  L 233.578481 138.096  L 231.944 138.096  z " clip-path="url(#p6a9efb9afe)" style="fill: #7f7f7f; opacity: 0.5"/>
   </g>
   <g id="patch_81">
    <path d="M 233.987101 448.56  L 235.621582 448.56  L 235.621582 396.816  L 233.987101 396.816  z " clip-path="url(#p6a9efb9afe)" style="fill: #7f7f7f; opacity: 0.5"/>
   </g>
   <g id="patch_82">
    <path d="M 236.030202 448.56  L 237.664682 448.56  L 237.664682 60.48  L 236.030202 60.48  z " clip-path="url(#p6a9efb9afe)" style="fill: #7f7f7f; opacity: 0.5"/>
   </g>
   <g id="patch_83">
    <path d="M 238.073303 448.56  L 239.707783 448.56  L 239.707783 163.968  L 238.073303 163.968  z " clip-path="url(#p6a9efb9afe)" style="fill: #7f7f7f; opacity: 0.5"/>
   </g>
   <g id="patch_84">
    <path d="M 240.116403 448.56  L 241.750884 448.56  L 241.750884 319.2  L 240.116403 319.2  z " clip-path="url(#p6a9efb9afe)" style="fill: #7f7f7f; opacity: 0.5"/>
   </g>
   <g id="patch_85">
    <path d="M 242.159504 448.56  L 243.793985 448.56  L 243.793985 345.072  L 242.159504 345.072  z " clip-path="url(#p6a9efb9afe)" style="fill: #7f7f7f; opacity: 0.5"/>
   </g>
   <g id="patch_86">
    <path d="M 244.202605 448.56  L 245.837085 448.56  L 245.837085 396.816  L 244.202605 396.816  z " clip-path="url(#p6a9efb9afe)" style="fill: #7f7f7f; opacity: 0.5"/>
   </g>
   <g id="patch_87">
    <path d="M 246.245706 448.56  L 247.880186 448.56  L 247.880186 345.072  L 246.245706 345.072  z " clip-path="url(#p6a9efb9afe)" style="fill: #7f7f7f; opacity: 0.5"/>
   </g>
   <g id="patch_88">
    <path d="M 248.288806 448.56  L 249.923287 448.56  L 249.923287 267.456  L 248.288806 267.456  z " clip-path="url(#p6a9efb9afe)" style="fill: #7f7f7f; opacity: 0.5"/>
   </g>
   <g id="patch_89">
    <path d="M 250.331907 448.56  L 251.966388 448.56  L 251.966388 112.224  L 250.331907 112.224  z " clip-path="url(#p6a9efb9afe)" style="fill: #7f7f7f; opacity: 0.5"/>
   </g>
   <g id="patch_90">
    <path d="M 252.375008 448.56  L 254.009488 448.56  L 254.009488 293.328  L 252.375008 293.328  z " clip-path="url(#p6a9efb9afe)" style="fill: #7f7f7f; opacity: 0.5"/>
   </g>
   <g id="patch_91">
    <path d="M 254.418109 448.56  L 256.052589 448.56  L 256.052589 241.584  L 254.418109 241.584  z " clip-path="url(#p6a9efb9afe)" style="fill: #7f7f7f; opacity: 0.5"/>
   </g>
   <g id="patch_92">
    <path d="M 256.461209 448.56  L 258.09569 448.56  L 258.09569 345.072  L 256.461209 345.072  z " clip-path="url(#p6a9efb9afe)" style="fill: #7f7f7f; opacity: 0.5"/>
   </g>
   <g id="patch_93">
    <path d="M 258.50431 448.56  L 260.138791 448.56  L 260.138791 319.2  L 258.50431 319.2  z " clip-path="url(#p6a9efb9afe)" style="fill: #7f7f7f; opacity: 0.5"/>
   </g>
   <g id="patch_94">
    <path d="M 260.547411 448.56  L 262.181891 448.56  L 262.181891 370.944  L 260.547411 370.944  z " clip-path="url(#p6a9efb9afe)" style="fill: #7f7f7f; opacity: 0.5"/>
   </g>
   <g id="patch_95">
    <path d="M 262.590512 448.56  L 264.224992 448.56  L 264.224992 396.816  L 262.590512 396.816  z " clip-path="url(#p6a9efb9afe)" style="fill: #7f7f7f; opacity: 0.5"/>
   </g>
   <g id="patch_96">
    <path d="M 264.633612 448.56  L 266.268093 448.56  L 266.268093 396.816  L 264.633612 396.816  z " clip-path="url(#p6a9efb9afe)" style="fill: #7f7f7f; opacity: 0.5"/>
   </g>
   <g id="patch_97">
    <path d="M 266.676713 448.56  L 268.311194 448.56  L 268.311194 448.56  L 266.676713 448.56  z " clip-path="url(#p6a9efb9afe)" style="fill: #7f7f7f; opacity: 0.5"/>
   </g>
   <g id="patch_98">
    <path d="M 268.719814 448.56  L 270.354294 448.56  L 270.354294 422.688  L 268.719814 422.688  z " clip-path="url(#p6a9efb9afe)" style="fill: #7f7f7f; opacity: 0.5"/>
   </g>
   <g id="patch_99">
    <path d="M 270.762915 448.56  L 272.397395 448.56  L 272.397395 396.816  L 270.762915 396.816  z " clip-path="url(#p6a9efb9afe)" style="fill: #7f7f7f; opacity: 0.5"/>
   </g>
   <g id="patch_100">
    <path d="M 272.806015 448.56  L 274.440496 448.56  L 274.440496 370.944  L 272.806015 370.944  z " clip-path="url(#p6a9efb9afe)" style="fill: #7f7f7f; opacity: 0.5"/>
   </g>
   <g id="patch_101">
    <path d="M 274.849116 448.56  L 276.483597 448.56  L 276.483597 422.688  L 274.849116 422.688  z " clip-path="url(#p6a9efb9afe)" style="fill: #7f7f7f; opacity: 0.5"/>
   </g>
   <g id="patch_102">
    <path d="M 276.892217 448.56  L 278.526697 448.56  L 278.526697 370.944  L 276.892217 370.944  z " clip-path="url(#p6a9efb9afe)" style="fill: #7f7f7f; opacity: 0.5"/>
   </g>
   <g id="patch_103">
    <path d="M 278.935318 448.56  L 280.569798 448.56  L 280.569798 396.816  L 278.935318 396.816  z " clip-path="url(#p6a9efb9afe)" style="fill: #7f7f7f; opacity: 0.5"/>
   </g>
   <g id="patch_104">
    <path d="M 280.978418 448.56  L 282.612899 448.56  L 282.612899 448.56  L 280.978418 448.56  z " clip-path="url(#p6a9efb9afe)" style="fill: #7f7f7f; opacity: 0.5"/>
   </g>
   <g id="patch_105">
    <path d="M 283.021519 448.56  L 284.656 448.56  L 284.656 448.56  L 283.021519 448.56  z " clip-path="url(#p6a9efb9afe)" style="fill: #7f7f7f; opacity: 0.5"/>
   </g>
   <g id="patch_106">
    <path d="M 285.06462 448.56  L 286.6991 448.56  L 286.6991 422.688  L 285.06462 422.688  z " clip-path="url(#p6a9efb9afe)" style="fill: #7f7f7f; opacity: 0.5"/>
   </g>
   <g id="patch_107">
    <path d="M 287.10772 448.56  L 288.742201 448.56  L 288.742201 396.816  L 287.10772 396.816  z " clip-path="url(#p6a9efb9afe)" style="fill: #7f7f7f; opacity: 0.5"/>
   </g>
   <g id="patch_108">
    <path d="M 289.150821 448.56  L 290.785302 448.56  L 290.785302 422.688  L 289.150821 422.688  z " clip-path="url(#p6a9efb9afe)" style="fill: #7f7f7f; opacity: 0.5"/>
   </g>
   <g id="patch_109">
    <path d="M 291.193922 448.56  L 292.828403 448.56  L 292.828403 448.56  L 291.193922 448.56  z " clip-path="url(#p6a9efb9afe)" style="fill: #7f7f7f; opacity: 0.5"/>
   </g>
   <g id="patch_110">
    <path d="M 293.237023 448.56  L 294.871503 448.56  L 294.871503 422.688  L 293.237023 422.688  z " clip-path="url(#p6a9efb9afe)" style="fill: #7f7f7f; opacity: 0.5"/>
   </g>
   <g id="patch_111">
    <path d="M 295.280123 448.56  L 296.914604 448.56  L 296.914604 448.56  L 295.280123 448.56  z " clip-path="url(#p6a9efb9afe)" style="fill: #7f7f7f; opacity: 0.5"/>
   </g>
   <g id="patch_112">
    <path d="M 297.323224 448.56  L 298.957705 448.56  L 298.957705 422.688  L 297.323224 422.688  z " clip-path="url(#p6a9efb9afe)" style="fill: #7f7f7f; opacity: 0.5"/>
   </g>
   <g id="patch_113">
    <path d="M 299.366325 448.56  L 301.000806 448.56  L 301.000806 448.56  L 299.366325 448.56  z " clip-path="url(#p6a9efb9afe)" style="fill: #7f7f7f; opacity: 0.5"/>
   </g>
   <g id="patch_114">
    <path d="M 301.409426 448.56  L 303.043906 448.56  L 303.043906 448.56  L 301.409426 448.56  z " clip-path="url(#p6a9efb9afe)" style="fill: #7f7f7f; opacity: 0.5"/>
   </g>
   <g id="patch_115">
    <path d="M 303.452526 448.56  L 305.087007 448.56  L 305.087007 448.56  L 303.452526 448.56  z " clip-path="url(#p6a9efb9afe)" style="fill: #7f7f7f; opacity: 0.5"/>
   </g>
   <g id="patch_116">
    <path d="M 305.495627 448.56  L 307.130108 448.56  L 307.130108 422.688  L 305.495627 422.688  z " clip-path="url(#p6a9efb9afe)" style="fill: #7f7f7f; opacity: 0.5"/>
   </g>
   <g id="patch_117">
    <path d="M 307.538728 448.56  L 309.173208 448.56  L 309.173208 422.688  L 307.538728 422.688  z " clip-path="url(#p6a9efb9afe)" style="fill: #7f7f7f; opacity: 0.5"/>
   </g>
   <g id="patch_118">
    <path d="M 309.581829 448.56  L 311.216309 448.56  L 311.216309 448.56  L 309.581829 448.56  z " clip-path="url(#p6a9efb9afe)" style="fill: #7f7f7f; opacity: 0.5"/>
   </g>
   <g id="patch_119">
    <path d="M 311.624929 448.56  L 313.25941 448.56  L 313.25941 448.56  L 311.624929 448.56  z " clip-path="url(#p6a9efb9afe)" style="fill: #7f7f7f; opacity: 0.5"/>
   </g>
   <g id="patch_120">
    <path d="M 313.66803 448.56  L 315.302511 448.56  L 315.302511 448.56  L 313.66803 448.56  z " clip-path="url(#p6a9efb9afe)" style="fill: #7f7f7f; opacity: 0.5"/>
   </g>
   <g id="patch_121">
    <path d="M 315.711131 448.56  L 317.345611 448.56  L 317.345611 422.688  L 315.711131 422.688  z " clip-path="url(#p6a9efb9afe)" style="fill: #7f7f7f; opacity: 0.5"/>
   </g>
   <g id="patch_122">
    <path d="M 317.754232 448.56  L 319.388712 448.56  L 319.388712 448.56  L 317.754232 448.56  z " clip-path="url(#p6a9efb9afe)" style="fill: #7f7f7f; opacity: 0.5"/>
   </g>
   <g id="patch_123">
    <path d="M 319.797332 448.56  L 321.431813 448.56  L 321.431813 448.56  L 319.797332 448.56  z " clip-path="url(#p6a9efb9afe)" style="fill: #7f7f7f; opacity: 0.5"/>
   </g>
   <g id="patch_124">
    <path d="M 321.840433 448.56  L 323.474914 448.56  L 323.474914 448.56  L 321.840433 448.56  z " clip-path="url(#p6a9efb9afe)" style="fill: #7f7f7f; opacity: 0.5"/>
   </g>
   <g id="patch_125">
    <path d="M 323.883534 448.56  L 325.518014 448.56  L 325.518014 448.56  L 323.883534 448.56  z " clip-path="url(#p6a9efb9afe)" style="fill: #7f7f7f; opacity: 0.5"/>
   </g>
   <g id="patch_126">
    <path d="M 325.926635 448.56  L 327.561115 448.56  L 327.561115 448.56  L 325.926635 448.56  z " clip-path="url(#p6a9efb9afe)" style="fill: #7f7f7f; opacity: 0.5"/>
   </g>
   <g id="patch_127">
    <path d="M 327.969735 448.56  L 329.604216 448.56  L 329.604216 448.56  L 327.969735 448.56  z " clip-path="url(#p6a9efb9afe)" style="fill: #7f7f7f; opacity: 0.5"/>
   </g>
   <g id="patch_128">
    <path d="M 330.012836 448.56  L 331.647317 448.56  L 331.647317 448.56  L 330.012836 448.56  z " clip-path="url(#p6a9efb9afe)" style="fill: #7f7f7f; opacity: 0.5"/>
   </g>
   <g id="patch_129">
    <path d="M 332.055937 448.56  L 333.690417 448.56  L 333.690417 448.56  L 332.055937 448.56  z " clip-path="url(#p6a9efb9afe)" style="fill: #7f7f7f; opacity: 0.5"/>
   </g>
   <g id="patch_130">
    <path d="M 334.099038 448.56  L 335.733518 448.56  L 335.733518 448.56  L 334.099038 448.56  z " clip-path="url(#p6a9efb9afe)" style="fill: #7f7f7f; opacity: 0.5"/>
   </g>
   <g id="patch_131">
    <path d="M 336.142138 448.56  L 337.776619 448.56  L 337.776619 422.688  L 336.142138 422.688  z " clip-path="url(#p6a9efb9afe)" style="fill: #7f7f7f; opacity: 0.5"/>
   </g>
   <g id="patch_132">
    <path d="M 338.185239 448.56  L 339.81972 448.56  L 339.81972 448.56  L 338.185239 448.56  z " clip-path="url(#p6a9efb9afe)" style="fill: #7f7f7f; opacity: 0.5"/>
   </g>
   <g id="patch_133">
    <path d="M 340.22834 448.56  L 341.86282 448.56  L 341.86282 448.56  L 340.22834 448.56  z " clip-path="url(#p6a9efb9afe)" style="fill: #7f7f7f; opacity: 0.5"/>
   </g>
   <g id="patch_134">
    <path d="M 342.271441 448.56  L 343.905921 448.56  L 343.905921 448.56  L 342.271441 448.56  z " clip-path="url(#p6a9efb9afe)" style="fill: #7f7f7f; opacity: 0.5"/>
   </g>
   <g id="patch_135">
    <path d="M 344.314541 448.56  L 345.949022 448.56  L 345.949022 448.56  L 344.314541 448.56  z " clip-path="url(#p6a9efb9afe)" style="fill: #7f7f7f; opacity: 0.5"/>
   </g>
   <g id="patch_136">
    <path d="M 346.357642 448.56  L 347.992123 448.56  L 347.992123 448.56  L 346.357642 448.56  z " clip-path="url(#p6a9efb9afe)" style="fill: #7f7f7f; opacity: 0.5"/>
   </g>
   <g id="patch_137">
    <path d="M 348.400743 448.56  L 350.035223 448.56  L 350.035223 448.56  L 348.400743 448.56  z " clip-path="url(#p6a9efb9afe)" style="fill: #7f7f7f; opacity: 0.5"/>
   </g>
   <g id="patch_138">
    <path d="M 350.443843 448.56  L 352.078324 448.56  L 352.078324 422.688  L 350.443843 422.688  z " clip-path="url(#p6a9efb9afe)" style="fill: #7f7f7f; opacity: 0.5"/>
   </g>
   <g id="patch_139">
    <path d="M 352.486944 448.56  L 354.121425 448.56  L 354.121425 448.56  L 352.486944 448.56  z " clip-path="url(#p6a9efb9afe)" style="fill: #7f7f7f; opacity: 0.5"/>
   </g>
   <g id="patch_140">
    <path d="M 354.530045 448.56  L 356.164526 448.56  L 356.164526 448.56  L 354.530045 448.56  z " clip-path="url(#p6a9efb9afe)" style="fill: #7f7f7f; opacity: 0.5"/>
   </g>
   <g id="patch_141">
    <path d="M 356.573146 448.56  L 358.207626 448.56  L 358.207626 448.56  L 356.573146 448.56  z " clip-path="url(#p6a9efb9afe)" style="fill: #7f7f7f; opacity: 0.5"/>
   </g>
   <g id="patch_142">
    <path d="M 358.616246 448.56  L 360.250727 448.56  L 360.250727 448.56  L 358.616246 448.56  z " clip-path="url(#p6a9efb9afe)" style="fill: #7f7f7f; opacity: 0.5"/>
   </g>
   <g id="patch_143">
    <path d="M 360.659347 448.56  L 362.293828 448.56  L 362.293828 448.56  L 360.659347 448.56  z " clip-path="url(#p6a9efb9afe)" style="fill: #7f7f7f; opacity: 0.5"/>
   </g>
   <g id="patch_144">
    <path d="M 362.702448 448.56  L 364.336929 448.56  L 364.336929 448.56  L 362.702448 448.56  z " clip-path="url(#p6a9efb9afe)" style="fill: #7f7f7f; opacity: 0.5"/>
   </g>
   <g id="patch_145">
    <path d="M 364.745549 448.56  L 366.380029 448.56  L 366.380029 448.56  L 364.745549 448.56  z " clip-path="url(#p6a9efb9afe)" style="fill: #7f7f7f; opacity: 0.5"/>
   </g>
   <g id="patch_146">
    <path d="M 366.788649 448.56  L 368.42313 448.56  L 368.42313 448.56  L 366.788649 448.56  z " clip-path="url(#p6a9efb9afe)" style="fill: #7f7f7f; opacity: 0.5"/>
   </g>
   <g id="patch_147">
    <path d="M 368.83175 448.56  L 370.466231 448.56  L 370.466231 448.56  L 368.83175 448.56  z " clip-path="url(#p6a9efb9afe)" style="fill: #7f7f7f; opacity: 0.5"/>
   </g>
   <g id="patch_148">
    <path d="M 370.874851 448.56  L 372.509332 448.56  L 372.509332 448.56  L 370.874851 448.56  z " clip-path="url(#p6a9efb9afe)" style="fill: #7f7f7f; opacity: 0.5"/>
   </g>
   <g id="patch_149">
    <path d="M 372.917952 448.56  L 374.552432 448.56  L 374.552432 448.56  L 372.917952 448.56  z " clip-path="url(#p6a9efb9afe)" style="fill: #7f7f7f; opacity: 0.5"/>
   </g>
   <g id="patch_150">
    <path d="M 374.961052 448.56  L 376.595533 448.56  L 376.595533 448.56  L 374.961052 448.56  z " clip-path="url(#p6a9efb9afe)" style="fill: #7f7f7f; opacity: 0.5"/>
   </g>
   <g id="patch_151">
    <path d="M 377.004153 448.56  L 378.638634 448.56  L 378.638634 448.56  L 377.004153 448.56  z " clip-path="url(#p6a9efb9afe)" style="fill: #7f7f7f; opacity: 0.5"/>
   </g>
   <g id="patch_152">
    <path d="M 379.047254 448.56  L 380.681734 448.56  L 380.681734 448.56  L 379.047254 448.56  z " clip-path="url(#p6a9efb9afe)" style="fill: #7f7f7f; opacity: 0.5"/>
   </g>
   <g id="patch_153">
    <path d="M 381.090355 448.56  L 382.724835 448.56  L 382.724835 448.56  L 381.090355 448.56  z " clip-path="url(#p6a9efb9afe)" style="fill: #7f7f7f; opacity: 0.5"/>
   </g>
   <g id="patch_154">
    <path d="M 383.133455 448.56  L 384.767936 448.56  L 384.767936 448.56  L 383.133455 448.56  z " clip-path="url(#p6a9efb9afe)" style="fill: #7f7f7f; opacity: 0.5"/>
   </g>
   <g id="patch_155">
    <path d="M 385.176556 448.56  L 386.811037 448.56  L 386.811037 448.56  L 385.176556 448.56  z " clip-path="url(#p6a9efb9afe)" style="fill: #7f7f7f; opacity: 0.5"/>
   </g>
   <g id="patch_156">
    <path d="M 387.219657 448.56  L 388.854137 448.56  L 388.854137 448.56  L 387.219657 448.56  z " clip-path="url(#p6a9efb9afe)" style="fill: #7f7f7f; opacity: 0.5"/>
   </g>
   <g id="patch_157">
    <path d="M 389.262758 448.56  L 390.897238 448.56  L 390.897238 448.56  L 389.262758 448.56  z " clip-path="url(#p6a9efb9afe)" style="fill: #7f7f7f; opacity: 0.5"/>
   </g>
   <g id="patch_158">
    <path d="M 391.305858 448.56  L 392.940339 448.56  L 392.940339 448.56  L 391.305858 448.56  z " clip-path="url(#p6a9efb9afe)" style="fill: #7f7f7f; opacity: 0.5"/>
   </g>
   <g id="patch_159">
    <path d="M 393.348959 448.56  L 394.98344 448.56  L 394.98344 448.56  L 393.348959 448.56  z " clip-path="url(#p6a9efb9afe)" style="fill: #7f7f7f; opacity: 0.5"/>
   </g>
   <g id="patch_160">
    <path d="M 395.39206 448.56  L 397.02654 448.56  L 397.02654 448.56  L 395.39206 448.56  z " clip-path="url(#p6a9efb9afe)" style="fill: #7f7f7f; opacity: 0.5"/>
   </g>
   <g id="patch_161">
    <path d="M 397.435161 448.56  L 399.069641 448.56  L 399.069641 448.56  L 397.435161 448.56  z " clip-path="url(#p6a9efb9afe)" style="fill: #7f7f7f; opacity: 0.5"/>
   </g>
   <g id="patch_162">
    <path d="M 399.478261 448.56  L 401.112742 448.56  L 401.112742 448.56  L 399.478261 448.56  z " clip-path="url(#p6a9efb9afe)" style="fill: #7f7f7f; opacity: 0.5"/>
   </g>
   <g id="patch_163">
    <path d="M 401.521362 448.56  L 403.155843 448.56  L 403.155843 448.56  L 401.521362 448.56  z " clip-path="url(#p6a9efb9afe)" style="fill: #7f7f7f; opacity: 0.5"/>
   </g>
   <g id="patch_164">
    <path d="M 403.564463 448.56  L 405.198943 448.56  L 405.198943 448.56  L 403.564463 448.56  z " clip-path="url(#p6a9efb9afe)" style="fill: #7f7f7f; opacity: 0.5"/>
   </g>
   <g id="patch_165">
    <path d="M 405.607564 448.56  L 407.242044 448.56  L 407.242044 448.56  L 405.607564 448.56  z " clip-path="url(#p6a9efb9afe)" style="fill: #7f7f7f; opacity: 0.5"/>
   </g>
   <g id="patch_166">
    <path d="M 407.650664 448.56  L 409.285145 448.56  L 409.285145 448.56  L 407.650664 448.56  z " clip-path="url(#p6a9efb9afe)" style="fill: #7f7f7f; opacity: 0.5"/>
   </g>
   <g id="patch_167">
    <path d="M 409.693765 448.56  L 411.328246 448.56  L 411.328246 448.56  L 409.693765 448.56  z " clip-path="url(#p6a9efb9afe)" style="fill: #7f7f7f; opacity: 0.5"/>
   </g>
   <g id="patch_168">
    <path d="M 411.736866 448.56  L 413.371346 448.56  L 413.371346 448.56  L 411.736866 448.56  z " clip-path="url(#p6a9efb9afe)" style="fill: #7f7f7f; opacity: 0.5"/>
   </g>
   <g id="patch_169">
    <path d="M 413.779967 448.56  L 415.414447 448.56  L 415.414447 448.56  L 413.779967 448.56  z " clip-path="url(#p6a9efb9afe)" style="fill: #7f7f7f; opacity: 0.5"/>
   </g>
   <g id="patch_170">
    <path d="M 415.823067 448.56  L 417.457548 448.56  L 417.457548 448.56  L 415.823067 448.56  z " clip-path="url(#p6a9efb9afe)" style="fill: #7f7f7f; opacity: 0.5"/>
   </g>
   <g id="patch_171">
    <path d="M 417.866168 448.56  L 419.500649 448.56  L 419.500649 448.56  L 417.866168 448.56  z " clip-path="url(#p6a9efb9afe)" style="fill: #7f7f7f; opacity: 0.5"/>
   </g>
   <g id="patch_172">
    <path d="M 419.909269 448.56  L 421.543749 448.56  L 421.543749 448.56  L 419.909269 448.56  z " clip-path="url(#p6a9efb9afe)" style="fill: #7f7f7f; opacity: 0.5"/>
   </g>
   <g id="patch_173">
    <path d="M 421.952369 448.56  L 423.58685 448.56  L 423.58685 448.56  L 421.952369 448.56  z " clip-path="url(#p6a9efb9afe)" style="fill: #7f7f7f; opacity: 0.5"/>
   </g>
   <g id="patch_174">
    <path d="M 423.99547 448.56  L 425.629951 448.56  L 425.629951 448.56  L 423.99547 448.56  z " clip-path="url(#p6a9efb9afe)" style="fill: #7f7f7f; opacity: 0.5"/>
   </g>
   <g id="patch_175">
    <path d="M 426.038571 448.56  L 427.673052 448.56  L 427.673052 448.56  L 426.038571 448.56  z " clip-path="url(#p6a9efb9afe)" style="fill: #7f7f7f; opacity: 0.5"/>
   </g>
   <g id="patch_176">
    <path d="M 428.081672 448.56  L 429.716152 448.56  L 429.716152 448.56  L 428.081672 448.56  z " clip-path="url(#p6a9efb9afe)" style="fill: #7f7f7f; opacity: 0.5"/>
   </g>
   <g id="patch_177">
    <path d="M 430.124772 448.56  L 431.759253 448.56  L 431.759253 448.56  L 430.124772 448.56  z " clip-path="url(#p6a9efb9afe)" style="fill: #7f7f7f; opacity: 0.5"/>
   </g>
   <g id="patch_178">
    <path d="M 432.167873 448.56  L 433.802354 448.56  L 433.802354 448.56  L 432.167873 448.56  z " clip-path="url(#p6a9efb9afe)" style="fill: #7f7f7f; opacity: 0.5"/>
   </g>
   <g id="patch_179">
    <path d="M 434.210974 448.56  L 435.845455 448.56  L 435.845455 448.56  L 434.210974 448.56  z " clip-path="url(#p6a9efb9afe)" style="fill: #7f7f7f; opacity: 0.5"/>
   </g>
   <g id="matplotlib.axis_3">
    <g id="ytick_7">
     <g id="line2d_23">
      <defs>
       <path id="ma87d0b8ebc" d="M 0 0  L 3.5 0  " style="stroke: #7f7f7f; stroke-width: 0.8"/>
      </defs>
      <g>
       <use xlink:href="#ma87d0b8ebc" x="453.6" y="448.56" style="fill: #7f7f7f; stroke: #7f7f7f; stroke-width: 0.8"/>
      </g>
     </g>
     <g id="text_19">
      <text style="font-size: 16px; font-family: 'Arial', sans-serif; text-anchor: start; fill: #7f7f7f" x="460.6" y="454.28625" transform="rotate(-0 460.6 454.28625)">0</text>
     </g>
    </g>
    <g id="ytick_8">
     <g id="line2d_24">
      <g>
       <use xlink:href="#ma87d0b8ebc" x="453.6" y="396.816" style="fill: #7f7f7f; stroke: #7f7f7f; stroke-width: 0.8"/>
      </g>
     </g>
     <g id="text_20">
      <text style="font-size: 16px; font-family: 'Arial', sans-serif; text-anchor: start; fill: #7f7f7f" x="460.6" y="402.54225" transform="rotate(-0 460.6 402.54225)">2</text>
     </g>
    </g>
    <g id="ytick_9">
     <g id="line2d_25">
      <g>
       <use xlink:href="#ma87d0b8ebc" x="453.6" y="345.072" style="fill: #7f7f7f; stroke: #7f7f7f; stroke-width: 0.8"/>
      </g>
     </g>
     <g id="text_21">
      <text style="font-size: 16px; font-family: 'Arial', sans-serif; text-anchor: start; fill: #7f7f7f" x="460.6" y="350.79825" transform="rotate(-0 460.6 350.79825)">4</text>
     </g>
    </g>
    <g id="ytick_10">
     <g id="line2d_26">
      <g>
       <use xlink:href="#ma87d0b8ebc" x="453.6" y="293.328" style="fill: #7f7f7f; stroke: #7f7f7f; stroke-width: 0.8"/>
      </g>
     </g>
     <g id="text_22">
      <text style="font-size: 16px; font-family: 'Arial', sans-serif; text-anchor: start; fill: #7f7f7f" x="460.6" y="299.05425" transform="rotate(-0 460.6 299.05425)">6</text>
     </g>
    </g>
    <g id="ytick_11">
     <g id="line2d_27">
      <g>
       <use xlink:href="#ma87d0b8ebc" x="453.6" y="241.584" style="fill: #7f7f7f; stroke: #7f7f7f; stroke-width: 0.8"/>
      </g>
     </g>
     <g id="text_23">
      <text style="font-size: 16px; font-family: 'Arial', sans-serif; text-anchor: start; fill: #7f7f7f" x="460.6" y="247.31025" transform="rotate(-0 460.6 247.31025)">8</text>
     </g>
    </g>
    <g id="ytick_12">
     <g id="line2d_28">
      <g>
       <use xlink:href="#ma87d0b8ebc" x="453.6" y="189.84" style="fill: #7f7f7f; stroke: #7f7f7f; stroke-width: 0.8"/>
      </g>
     </g>
     <g id="text_24">
      <text style="font-size: 16px; font-family: 'Arial', sans-serif; text-anchor: start; fill: #7f7f7f" x="460.6" y="195.56625" transform="rotate(-0 460.6 195.56625)">10</text>
     </g>
    </g>
    <g id="ytick_13">
     <g id="line2d_29">
      <g>
       <use xlink:href="#ma87d0b8ebc" x="453.6" y="138.096" style="fill: #7f7f7f; stroke: #7f7f7f; stroke-width: 0.8"/>
      </g>
     </g>
     <g id="text_25">
      <text style="font-size: 16px; font-family: 'Arial', sans-serif; text-anchor: start; fill: #7f7f7f" x="460.6" y="143.82225" transform="rotate(-0 460.6 143.82225)">12</text>
     </g>
    </g>
    <g id="ytick_14">
     <g id="line2d_30">
      <g>
       <use xlink:href="#ma87d0b8ebc" x="453.6" y="86.352" style="fill: #7f7f7f; stroke: #7f7f7f; stroke-width: 0.8"/>
      </g>
     </g>
     <g id="text_26">
      <text style="font-size: 16px; font-family: 'Arial', sans-serif; text-anchor: start; fill: #7f7f7f" x="460.6" y="92.07825" transform="rotate(-0 460.6 92.07825)">14</text>
     </g>
    </g>
    <g id="text_27">
     <text style="font-size: 16px; font-family: 'Arial', sans-serif; text-anchor: middle; fill: #7f7f7f" x="493.8475" y="254.52" transform="rotate(-90 493.8475 254.52)">Number of cases</text>
    </g>
   </g>
   <g id="patch_180">
    <path d="M 453.6 448.56  L 453.6 60.48  " style="fill: none; stroke: #7f7f7f; stroke-width: 0.8; stroke-linejoin: miter; stroke-linecap: square"/>
   </g>
  </g>
 </g>
 <defs>
  <clipPath id="p6a9efb9afe">
   <rect x="63" y="60.48" width="390.6" height="388.08"/>
  </clipPath>
 </defs>
</g>
    <g transform="translate(500, -40) scale(1 1) "><metadata>
  <rdf:RDF xmlns:dc="http://purl.org/dc/elements/1.1/" xmlns:cc="http://creativecommons.org/ns#" xmlns:rdf="http://www.w3.org/1999/02/22-rdf-syntax-ns#">
   <cc:Work>
    <dc:type rdf:resource="http://purl.org/dc/dcmitype/StillImage"/>
    <dc:date>2026-02-20T16:21:04.113764</dc:date>
    <dc:format>image/svg+xml</dc:format>
    <dc:creator>
     <cc:Agent>
      <dc:title>Matplotlib v3.10.8, https://matplotlib.org/</dc:title>
     </cc:Agent>
    </dc:creator>
   </cc:Work>
  </rdf:RDF>
 </metadata>
 <defs>
  <style type="text/css">*{stroke-linejoin: round; stroke-linecap: butt}</style>
 </defs>
 <g id="figure_1">
  <g id="patch_1">
   <path d="M 0 504  L 504 504  L 504 0  L 0 0  L 0 504  z " style="fill: none"/>
  </g>
  <g id="axes_1">
   <g id="patch_2">
    <path d="M 63 448.56  L 453.6 448.56  L 453.6 60.48  L 63 60.48  L 63 448.56  z " style="fill: none"/>
   </g>
   <g id="matplotlib.axis_1">
    <g id="xtick_1">
     <g id="line2d_1">
      <defs>
       <path id="m616cdaba6a" d="M 0 0  L 0 3.5  " style="stroke: #000000; stroke-width: 0.8"/>
      </defs>
      <g>
       <use xlink:href="#m616cdaba6a" x="63" y="448.56" style="stroke: #000000; stroke-width: 0.8"/>
      </g>
     </g>
     <g id="text_1">
      <text style="font-size: 16px; font-family: 'Arial', sans-serif; text-anchor: middle" x="63" y="467.0125" transform="rotate(-0 63 467.0125)">0.1</text>
     </g>
    </g>
    <g id="xtick_2">
     <g id="line2d_2">
      <g>
       <use xlink:href="#m616cdaba6a" x="137.963636" y="448.56" style="stroke: #000000; stroke-width: 0.8"/>
      </g>
     </g>
     <g id="text_2">
      <text style="font-size: 16px; font-family: 'Arial', sans-serif; text-anchor: middle" x="137.963636" y="467.0125" transform="rotate(-0 137.963636 467.0125)">2.0</text>
     </g>
    </g>
    <g id="xtick_3">
     <g id="line2d_3">
      <g>
       <use xlink:href="#m616cdaba6a" x="216.872727" y="448.56" style="stroke: #000000; stroke-width: 0.8"/>
      </g>
     </g>
     <g id="text_3">
      <text style="font-size: 16px; font-family: 'Arial', sans-serif; text-anchor: middle" x="216.872727" y="467.0125" transform="rotate(-0 216.872727 467.0125)">4.0</text>
     </g>
    </g>
    <g id="xtick_4">
     <g id="line2d_4">
      <g>
       <use xlink:href="#m616cdaba6a" x="295.781818" y="448.56" style="stroke: #000000; stroke-width: 0.8"/>
      </g>
     </g>
     <g id="text_4">
      <text style="font-size: 16px; font-family: 'Arial', sans-serif; text-anchor: middle" x="295.781818" y="467.0125" transform="rotate(-0 295.781818 467.0125)">6.0</text>
     </g>
    </g>
    <g id="xtick_5">
     <g id="line2d_5">
      <g>
       <use xlink:href="#m616cdaba6a" x="374.690909" y="448.56" style="stroke: #000000; stroke-width: 0.8"/>
      </g>
     </g>
     <g id="text_5">
      <text style="font-size: 16px; font-family: 'Arial', sans-serif; text-anchor: middle" x="374.690909" y="467.0125" transform="rotate(-0 374.690909 467.0125)">8.0</text>
     </g>
    </g>
    <g id="xtick_6">
     <g id="line2d_6">
      <g>
       <use xlink:href="#m616cdaba6a" x="453.6" y="448.56" style="stroke: #000000; stroke-width: 0.8"/>
      </g>
     </g>
     <g id="text_6">
      <text style="font-size: 16px; font-family: 'Arial', sans-serif; text-anchor: middle" x="453.6" y="467.0125" transform="rotate(-0 453.6 467.0125)">10.0</text>
     </g>
    </g>
    <g id="text_7">
     <text style="font-size: 16px; font-family: 'Arial', sans-serif; text-anchor: middle" x="258.3" y="485.84" transform="rotate(-0 258.3 485.84)">Risk threshold (%)</text>
    </g>
   </g>
   <g id="matplotlib.axis_2">
    <g id="ytick_1">
     <g id="line2d_7">
      <defs>
       <path id="me988436807" d="M 0 0  L -3.5 0  " style="stroke: #000000; stroke-width: 0.8"/>
      </defs>
      <g>
       <use xlink:href="#me988436807" x="63" y="448.56" style="stroke: #000000; stroke-width: 0.8"/>
      </g>
     </g>
     <g id="text_8">
      <text style="font-size: 16px; font-family: 'Arial', sans-serif; text-anchor: end" x="56" y="454.28625" transform="rotate(-0 56 454.28625)">0</text>
     </g>
    </g>
    <g id="ytick_2">
     <g id="line2d_8">
      <g>
       <use xlink:href="#me988436807" x="63" y="385.966452" style="stroke: #000000; stroke-width: 0.8"/>
      </g>
     </g>
     <g id="text_9">
      <text style="font-size: 16px; font-family: 'Arial', sans-serif; text-anchor: end" x="56" y="391.692702" transform="rotate(-0 56 391.692702)">5</text>
     </g>
    </g>
    <g id="ytick_3">
     <g id="line2d_9">
      <g>
       <use xlink:href="#me988436807" x="63" y="323.372903" style="stroke: #000000; stroke-width: 0.8"/>
      </g>
     </g>
     <g id="text_10">
      <text style="font-size: 16px; font-family: 'Arial', sans-serif; text-anchor: end" x="56" y="329.099153" transform="rotate(-0 56 329.099153)">10</text>
     </g>
    </g>
    <g id="ytick_4">
     <g id="line2d_10">
      <g>
       <use xlink:href="#me988436807" x="63" y="260.779355" style="stroke: #000000; stroke-width: 0.8"/>
      </g>
     </g>
     <g id="text_11">
      <text style="font-size: 16px; font-family: 'Arial', sans-serif; text-anchor: end" x="56" y="266.505605" transform="rotate(-0 56 266.505605)">15</text>
     </g>
    </g>
    <g id="ytick_5">
     <g id="line2d_11">
      <g>
       <use xlink:href="#me988436807" x="63" y="198.185806" style="stroke: #000000; stroke-width: 0.8"/>
      </g>
     </g>
     <g id="text_12">
      <text style="font-size: 16px; font-family: 'Arial', sans-serif; text-anchor: end" x="56" y="203.912056" transform="rotate(-0 56 203.912056)">20</text>
     </g>
    </g>
    <g id="ytick_6">
     <g id="line2d_12">
      <g>
       <use xlink:href="#me988436807" x="63" y="135.592258" style="stroke: #000000; stroke-width: 0.8"/>
      </g>
     </g>
     <g id="text_13">
      <text style="font-size: 16px; font-family: 'Arial', sans-serif; text-anchor: end" x="56" y="141.318508" transform="rotate(-0 56 141.318508)">25</text>
     </g>
    </g>
    <g id="ytick_7">
     <g id="line2d_13">
      <g>
       <use xlink:href="#me988436807" x="63" y="72.99871" style="stroke: #000000; stroke-width: 0.8"/>
      </g>
     </g>
     <g id="text_14">
      <text style="font-size: 16px; font-family: 'Arial', sans-serif; text-anchor: end" x="56" y="78.72496" transform="rotate(-0 56 78.72496)">30</text>
     </g>
    </g>
    <g id="text_15">
     <text style="font-size: 16px; font-family: 'Arial', sans-serif; text-anchor: middle" x="30.8375" y="254.52" transform="rotate(-90 30.8375 254.52)">Days from final case to declaration</text>
    </g>
   </g>
   <g id="line2d_14">
    <path d="M 63 135.592258  L 66.906 160.629677  L 70.812 173.148387  L 74.718 173.148387  L 78.624 185.667097  L 82.53 185.667097  L 86.436 198.185806  L 90.342 198.185806  L 94.248 210.704516  L 98.154 210.704516  L 102.06 210.704516  L 105.966 210.704516  L 109.872 223.223226  L 113.778 223.223226  L 117.684 223.223226  L 121.59 223.223226  L 125.496 235.741935  L 129.402 235.741935  L 133.308 235.741935  L 137.214 235.741935  L 141.12 235.741935  L 145.026 235.741935  L 148.932 248.260645  L 152.838 248.260645  L 156.744 248.260645  L 160.65 248.260645  L 164.556 248.260645  L 168.462 248.260645  L 172.368 248.260645  L 176.274 248.260645  L 180.18 260.779355  L 184.086 260.779355  L 187.992 260.779355  L 191.898 260.779355  L 195.804 260.779355  L 199.71 260.779355  L 203.616 260.779355  L 207.522 260.779355  L 211.428 260.779355  L 215.334 273.298065  L 219.24 273.298065  L 223.146 273.298065  L 227.052 273.298065  L 230.958 273.298065  L 234.864 273.298065  L 238.77 273.298065  L 242.676 273.298065  L 246.582 273.298065  L 250.488 273.298065  L 254.394 273.298065  L 258.3 273.298065  L 262.206 285.816774  L 266.112 285.816774  L 270.018 285.816774  L 273.924 285.816774  L 277.83 285.816774  L 281.736 285.816774  L 285.642 285.816774  L 289.548 285.816774  L 293.454 285.816774  L 297.36 285.816774  L 301.266 285.816774  L 305.172 285.816774  L 309.078 298.335484  L 312.984 298.335484  L 316.89 298.335484  L 320.796 298.335484  L 324.702 298.335484  L 328.608 298.335484  L 332.514 298.335484  L 336.42 298.335484  L 340.326 298.335484  L 344.232 298.335484  L 348.138 298.335484  L 352.044 298.335484  L 355.95 298.335484  L 359.856 298.335484  L 363.762 298.335484  L 367.668 310.854194  L 371.574 310.854194  L 375.48 310.854194  L 379.386 310.854194  L 383.292 310.854194  L 387.198 310.854194  L 391.104 310.854194  L 395.01 310.854194  L 398.916 310.854194  L 402.822 310.854194  L 406.728 310.854194  L 410.634 310.854194  L 414.54 310.854194  L 418.446 310.854194  L 422.352 310.854194  L 426.258 323.372903  L 430.164 323.372903  L 434.07 323.372903  L 437.976 323.372903  L 441.882 323.372903  L 445.788 323.372903  L 449.694 323.372903  L 453.6 323.372903  " clip-path="url(#pfef496c60e)" style="fill: none; stroke: #0173b2; stroke-width: 2; stroke-linecap: square"/>
   </g>
   <g id="line2d_15">
    <path d="M 63 72.99871  L 66.906 85.517419  L 70.812 98.036129  L 74.718 110.554839  L 78.624 110.554839  L 82.53 123.073548  L 86.436 123.073548  L 90.342 135.592258  L 94.248 135.592258  L 98.154 135.592258  L 102.06 135.592258  L 105.966 148.110968  L 109.872 148.110968  L 113.778 148.110968  L 117.684 148.110968  L 121.59 160.629677  L 125.496 160.629677  L 129.402 160.629677  L 133.308 160.629677  L 137.214 160.629677  L 141.12 160.629677  L 145.026 160.629677  L 148.932 173.148387  L 152.838 173.148387  L 156.744 173.148387  L 160.65 173.148387  L 164.556 173.148387  L 168.462 173.148387  L 172.368 173.148387  L 176.274 173.148387  L 180.18 173.148387  L 184.086 185.667097  L 187.992 185.667097  L 191.898 185.667097  L 195.804 185.667097  L 199.71 185.667097  L 203.616 185.667097  L 207.522 185.667097  L 211.428 185.667097  L 215.334 185.667097  L 219.24 185.667097  L 223.146 185.667097  L 227.052 185.667097  L 230.958 198.185806  L 234.864 198.185806  L 238.77 198.185806  L 242.676 198.185806  L 246.582 198.185806  L 250.488 198.185806  L 254.394 198.185806  L 258.3 198.185806  L 262.206 198.185806  L 266.112 198.185806  L 270.018 198.185806  L 273.924 198.185806  L 277.83 198.185806  L 281.736 198.185806  L 285.642 198.185806  L 289.548 198.185806  L 293.454 210.704516  L 297.36 210.704516  L 301.266 210.704516  L 305.172 210.704516  L 309.078 210.704516  L 312.984 210.704516  L 316.89 210.704516  L 320.796 210.704516  L 324.702 210.704516  L 328.608 210.704516  L 332.514 210.704516  L 336.42 210.704516  L 340.326 210.704516  L 344.232 210.704516  L 348.138 210.704516  L 352.044 210.704516  L 355.95 210.704516  L 359.856 210.704516  L 363.762 210.704516  L 367.668 210.704516  L 371.574 223.223226  L 375.48 223.223226  L 379.386 223.223226  L 383.292 223.223226  L 387.198 223.223226  L 391.104 223.223226  L 395.01 223.223226  L 398.916 223.223226  L 402.822 223.223226  L 406.728 223.223226  L 410.634 223.223226  L 414.54 223.223226  L 418.446 223.223226  L 422.352 223.223226  L 426.258 223.223226  L 430.164 223.223226  L 434.07 223.223226  L 437.976 223.223226  L 441.882 223.223226  L 445.788 223.223226  L 449.694 223.223226  L 453.6 223.223226  " clip-path="url(#pfef496c60e)" style="fill: none; stroke: #de8f05; stroke-width: 2; stroke-linecap: square"/>
   </g>
   <g id="line2d_16">
    <path d="M 63 298.335484  L 453.6 298.335484  " clip-path="url(#pfef496c60e)" style="fill: none; stroke-dasharray: 7.4,3.2; stroke-dashoffset: 0; stroke: #029e73; stroke-width: 2"/>
   </g>
   <g id="line2d_17">
    <path d="M 63 123.073548  L 453.6 123.073548  " clip-path="url(#pfef496c60e)" style="fill: none; stroke-dasharray: 7.4,3.2; stroke-dashoffset: 0; stroke: #d55e00; stroke-width: 2"/>
   </g>
   <g id="patch_3">
    <path d="M 63 448.56  L 63 60.48  " style="fill: none; stroke: #000000; stroke-width: 0.8; stroke-linejoin: miter; stroke-linecap: square"/>
   </g>
   <g id="patch_4">
    <path d="M 63 448.56  L 453.6 448.56  " style="fill: none; stroke: #000000; stroke-width: 0.8; stroke-linejoin: miter; stroke-linecap: square"/>
   </g>
   <g id="legend_1">
    <g id="patch_5">
     <path d="M 72.8 441.56  L 302.774063 441.56  Q 305.574063 441.56 305.574063 438.76  L 305.574063 359.778125  Q 305.574063 356.978125 302.774063 356.978125  L 72.8 356.978125  Q 70 356.978125 70 359.778125  L 70 438.76  Q 70 441.56 72.8 441.56  z " style="fill: #ffffff; opacity: 0.8; stroke: #cccccc; stroke-linejoin: miter"/>
    </g>
    <g id="line2d_18">
     <path d="M 75.6 367.869688  L 89.6 367.869688  L 103.6 367.869688  " style="fill: none; stroke: #0173b2; stroke-width: 2; stroke-linecap: square"/>
    </g>
    <g id="text_16">
     <text style="font-size: 14px; font-family: 'Arial', sans-serif; text-anchor: start" x="114.8" y="372.769688" transform="rotate(-0 114.8 372.769688)">Suitability-based</text>
    </g>
    <g id="line2d_19">
     <path d="M 75.6 387.837188  L 89.6 387.837188  L 103.6 387.837188  " style="fill: none; stroke: #de8f05; stroke-width: 2; stroke-linecap: square"/>
    </g>
    <g id="text_17">
     <text style="font-size: 14px; font-family: 'Arial', sans-serif; text-anchor: start" x="114.8" y="392.737188" transform="rotate(-0 114.8 392.737188)">Autoregressive</text>
    </g>
    <g id="line2d_20">
     <path d="M 75.6 407.975313  L 89.6 407.975313  L 103.6 407.975313  " style="fill: none; stroke-dasharray: 7.4,3.2; stroke-dashoffset: 0; stroke: #029e73; stroke-width: 2"/>
    </g>
    <g id="text_18">
     <text style="font-size: 14px; font-family: 'Arial', sans-serif; text-anchor: start" x="114.8" y="412.875313" transform="rotate(-0 114.8 412.875313)">Blood measures lifted (Rome)</text>
    </g>
    <g id="line2d_21">
     <path d="M 75.6 428.113438  L 89.6 428.113438  L 103.6 428.113438  " style="fill: none; stroke-dasharray: 7.4,3.2; stroke-dashoffset: 0; stroke: #d55e00; stroke-width: 2"/>
    </g>
    <g id="text_19">
     <text style="font-size: 14px; font-family: 'Arial', sans-serif; text-anchor: start" x="114.8" y="433.013438" transform="rotate(-0 114.8 433.013438)">Blood measures lifted (Anzio)</text>
    </g>
   </g>
  </g>
 </g>
 <defs>
  <clipPath id="pfef496c60e">
   <rect x="63" y="60.48" width="390.6" height="388.08"/>
  </clipPath>
 </defs>
</g>
    <text x="5" y="20" font-size="20" font-family="Arial" font-weight="normal" letter-spacing="0" text-anchor="start" fill="black">A.</text>
    <text x="505" y="20" font-size="20" font-family="Arial" font-weight="normal" letter-spacing="0" text-anchor="start" fill="black">B.</text>
  </g>
</svg>
