<?xml version="1.0" encoding="utf-8" standalone="no"?>
<!DOCTYPE svg PUBLIC "-//W3C//DTD SVG 1.1//EN"
  "http://www.w3.org/Graphics/SVG/1.1/DTD/svg11.dtd">
<svg xmlns:xlink="http://www.w3.org/1999/xlink" width="504pt" height="504pt" viewBox="0 0 504 504" xmlns="http://www.w3.org/2000/svg" version="1.1">
 <metadata>
  <rdf:RDF xmlns:dc="http://purl.org/dc/elements/1.1/" xmlns:cc="http://creativecommons.org/ns#" xmlns:rdf="http://www.w3.org/1999/02/22-rdf-syntax-ns#">
   <cc:Work>
    <dc:type rdf:resource="http://purl.org/dc/dcmitype/StillImage"/>
    <dc:date>2026-02-20T17:15:08.245315</dc:date>
    <dc:format>image/svg+xml</dc:format>
    <dc:creator>
     <cc:Agent>
      <dc:title>Matplotlib v3.10.8, https://matplotlib.org/</dc:title>
     </cc:Agent>
    </dc:creator>
   </cc:Work>
  </rdf:RDF>
 </metadata>
 <defs>
  <style type="text/css">*{stroke-linejoin: round; stroke-linecap: butt}</style>
 </defs>
 <g id="figure_1">
  <g id="patch_1">
   <path d="M 0 504 
L 504 504 
L 504 0 
L 0 0 
L 0 504 
z
" style="fill: none"/>
  </g>
  <g id="axes_1">
   <g id="patch_2">
    <path d="M 63 448.56 
L 453.6 448.56 
L 453.6 60.48 
L 63 60.48 
L 63 448.56 
z
" style="fill: none"/>
   </g>
   <g id="matplotlib.axis_1">
    <g id="xtick_1">
     <g id="line2d_1">
      <defs>
       <path id="m84b5dfbcea" d="M 0 0 
L 0 3.5 
" style="stroke: #000000; stroke-width: 0.8"/>
      </defs>
      <g>
       <use xlink:href="#m84b5dfbcea" x="80.754545" y="448.56" style="stroke: #000000; stroke-width: 0.8"/>
      </g>
     </g>
     <g id="text_1">
      <text style="font-size: 16px; font-family: 'Arial', sans-serif; text-anchor: middle" x="80.754545" y="467.0125" transform="rotate(-0 80.754545 467.0125)">1 Jan</text>
     </g>
    </g>
    <g id="xtick_2">
     <g id="line2d_2">
      <g>
       <use xlink:href="#m84b5dfbcea" x="110.995804" y="448.56" style="stroke: #000000; stroke-width: 0.8"/>
      </g>
     </g>
    </g>
    <g id="xtick_3">
     <g id="line2d_3">
      <g>
       <use xlink:href="#m84b5dfbcea" x="138.31049" y="448.56" style="stroke: #000000; stroke-width: 0.8"/>
      </g>
     </g>
     <g id="text_2">
      <text style="font-size: 16px; font-family: 'Arial', sans-serif; text-anchor: middle" x="138.31049" y="467.0125" transform="rotate(-0 138.31049 467.0125)">1 Mar</text>
     </g>
    </g>
    <g id="xtick_4">
     <g id="line2d_4">
      <g>
       <use xlink:href="#m84b5dfbcea" x="168.551748" y="448.56" style="stroke: #000000; stroke-width: 0.8"/>
      </g>
     </g>
    </g>
    <g id="xtick_5">
     <g id="line2d_5">
      <g>
       <use xlink:href="#m84b5dfbcea" x="197.817483" y="448.56" style="stroke: #000000; stroke-width: 0.8"/>
      </g>
     </g>
     <g id="text_3">
      <text style="font-size: 16px; font-family: 'Arial', sans-serif; text-anchor: middle" x="197.817483" y="467.06" transform="rotate(-0 197.817483 467.06)">1 May</text>
     </g>
    </g>
    <g id="xtick_6">
     <g id="line2d_6">
      <g>
       <use xlink:href="#m84b5dfbcea" x="228.058741" y="448.56" style="stroke: #000000; stroke-width: 0.8"/>
      </g>
     </g>
    </g>
    <g id="xtick_7">
     <g id="line2d_7">
      <g>
       <use xlink:href="#m84b5dfbcea" x="257.324476" y="448.56" style="stroke: #000000; stroke-width: 0.8"/>
      </g>
     </g>
     <g id="text_4">
      <text style="font-size: 16px; font-family: 'Arial', sans-serif; text-anchor: middle" x="257.324476" y="467.0125" transform="rotate(-0 257.324476 467.0125)">1 Jul</text>
     </g>
    </g>
    <g id="xtick_8">
     <g id="line2d_8">
      <g>
       <use xlink:href="#m84b5dfbcea" x="287.565734" y="448.56" style="stroke: #000000; stroke-width: 0.8"/>
      </g>
     </g>
    </g>
    <g id="xtick_9">
     <g id="line2d_9">
      <g>
       <use xlink:href="#m84b5dfbcea" x="317.806993" y="448.56" style="stroke: #000000; stroke-width: 0.8"/>
      </g>
     </g>
     <g id="text_5">
      <text style="font-size: 16px; font-family: 'Arial', sans-serif; text-anchor: middle" x="317.806993" y="467.2075" transform="rotate(-0 317.806993 467.2075)">1 Sep</text>
     </g>
    </g>
    <g id="xtick_10">
     <g id="line2d_10">
      <g>
       <use xlink:href="#m84b5dfbcea" x="347.072727" y="448.56" style="stroke: #000000; stroke-width: 0.8"/>
      </g>
     </g>
    </g>
    <g id="xtick_11">
     <g id="line2d_11">
      <g>
       <use xlink:href="#m84b5dfbcea" x="377.313986" y="448.56" style="stroke: #000000; stroke-width: 0.8"/>
      </g>
     </g>
     <g id="text_6">
      <text style="font-size: 16px; font-family: 'Arial', sans-serif; text-anchor: middle" x="377.313986" y="467.0125" transform="rotate(-0 377.313986 467.0125)">1 Nov</text>
     </g>
    </g>
    <g id="xtick_12">
     <g id="line2d_12">
      <g>
       <use xlink:href="#m84b5dfbcea" x="406.57972" y="448.56" style="stroke: #000000; stroke-width: 0.8"/>
      </g>
     </g>
    </g>
    <g id="xtick_13">
     <g id="line2d_13">
      <g>
       <use xlink:href="#m84b5dfbcea" x="436.820979" y="448.56" style="stroke: #000000; stroke-width: 0.8"/>
      </g>
     </g>
     <g id="text_7">
      <text style="font-size: 16px; font-family: 'Arial', sans-serif; text-anchor: middle" x="436.820979" y="467.0125" transform="rotate(-0 436.820979 467.0125)">1 Jan</text>
     </g>
    </g>
   </g>
   <g id="matplotlib.axis_2">
    <g id="ytick_1">
     <g id="line2d_14">
      <defs>
       <path id="m09162bd245" d="M 0 0 
L -3.5 0 
" style="stroke: #000000; stroke-width: 0.8"/>
      </defs>
      <g>
       <use xlink:href="#m09162bd245" x="63" y="448.56" style="stroke: #000000; stroke-width: 0.8"/>
      </g>
     </g>
     <g id="text_8">
      <text style="font-size: 16px; font-family: 'Arial', sans-serif; text-anchor: end" x="56" y="454.28625" transform="rotate(-0 56 454.28625)">0.0</text>
     </g>
    </g>
    <g id="ytick_2">
     <g id="line2d_15">
      <g>
       <use xlink:href="#m09162bd245" x="63" y="371.712475" style="stroke: #000000; stroke-width: 0.8"/>
      </g>
     </g>
     <g id="text_9">
      <text style="font-size: 16px; font-family: 'Arial', sans-serif; text-anchor: end" x="56" y="377.438725" transform="rotate(-0 56 377.438725)">0.2</text>
     </g>
    </g>
    <g id="ytick_3">
     <g id="line2d_16">
      <g>
       <use xlink:href="#m09162bd245" x="63" y="294.86495" style="stroke: #000000; stroke-width: 0.8"/>
      </g>
     </g>
     <g id="text_10">
      <text style="font-size: 16px; font-family: 'Arial', sans-serif; text-anchor: end" x="56" y="300.5912" transform="rotate(-0 56 300.5912)">0.4</text>
     </g>
    </g>
    <g id="ytick_4">
     <g id="line2d_17">
      <g>
       <use xlink:href="#m09162bd245" x="63" y="218.017426" style="stroke: #000000; stroke-width: 0.8"/>
      </g>
     </g>
     <g id="text_11">
      <text style="font-size: 16px; font-family: 'Arial', sans-serif; text-anchor: end" x="56" y="223.743676" transform="rotate(-0 56 223.743676)">0.6</text>
     </g>
    </g>
    <g id="ytick_5">
     <g id="line2d_18">
      <g>
       <use xlink:href="#m09162bd245" x="63" y="141.169901" style="stroke: #000000; stroke-width: 0.8"/>
      </g>
     </g>
     <g id="text_12">
      <text style="font-size: 16px; font-family: 'Arial', sans-serif; text-anchor: end" x="56" y="146.896151" transform="rotate(-0 56 146.896151)">0.8</text>
     </g>
    </g>
    <g id="ytick_6">
     <g id="line2d_19">
      <g>
       <use xlink:href="#m09162bd245" x="63" y="64.322376" style="stroke: #000000; stroke-width: 0.8"/>
      </g>
     </g>
     <g id="text_13">
      <text style="font-size: 16px; font-family: 'Arial', sans-serif; text-anchor: end" x="56" y="70.048626" transform="rotate(-0 56 70.048626)">1.0</text>
     </g>
    </g>
    <g id="text_14">
     <text style="font-size: 16px; font-family: 'Arial', sans-serif; text-anchor: middle" x="26.3925" y="254.52" transform="rotate(-90 26.3925 254.52)">Temperature suitability for transmission</text>
    </g>
   </g>
   <g id="line2d_20">
    <path d="M 80.754545 448.56 
L 193.915385 448.483604 
L 197.817483 448.255416 
L 200.744056 447.833579 
L 202.695105 447.336325 
L 204.646154 446.576218 
L 206.597203 445.447187 
L 207.572727 444.71417 
L 208.548252 443.839862 
L 209.523776 442.80444 
L 211.474825 440.194142 
L 212.45035 438.582723 
L 213.425874 436.725129 
L 215.376923 432.203085 
L 216.352448 429.494278 
L 217.327972 426.437754 
L 219.279021 419.179725 
L 221.23007 410.278019 
L 223.181119 399.505737 
L 225.132168 386.770063 
L 227.083217 372.107863 
L 229.034266 355.552199 
L 230.985315 336.960025 
L 232.936364 316.552086 
L 235.862937 283.484469 
L 238.78951 248.311093 
L 242.691608 201.099241 
L 245.618182 167.280512 
L 247.569231 146.874615 
L 249.52028 128.708912 
L 251.471329 112.116209 
L 253.422378 98.233736 
L 255.373427 86.568188 
L 257.324476 77.458681 
L 258.3 73.821014 
L 259.275524 70.839101 
L 260.251049 68.51512 
L 261.226573 66.885523 
L 262.202098 65.66449 
L 263.177622 64.636645 
L 264.153147 64.419061 
L 265.128671 64.344955 
L 266.104196 64.641377 
L 267.07972 65.20864 
L 268.055245 65.977203 
L 270.006294 68.709289 
L 272.932867 73.312065 
L 275.859441 78.757817 
L 279.761538 84.319466 
L 280.737063 85.518622 
L 282.688112 87.429957 
L 283.663636 88.150739 
L 284.639161 88.669461 
L 285.614685 88.985342 
L 286.59021 89.097711 
L 287.565734 89.006007 
L 288.541259 88.709781 
L 289.516783 88.208696 
L 290.492308 87.502529 
L 292.443357 85.599163 
L 293.418881 84.399615 
L 297.320979 78.762676 
L 298.296503 77.041617 
L 300.247552 73.223522 
L 304.14965 67.05172 
L 305.125175 65.828434 
L 306.100699 65.0267 
L 307.076224 64.510862 
L 308.051748 64.364242 
L 309.027273 64.492091 
L 310.002797 64.921346 
L 311.953846 67.465313 
L 312.929371 69.553755 
L 313.904895 72.39208 
L 314.88042 75.890108 
L 315.855944 80.22614 
L 316.831469 85.075853 
L 317.806993 90.701992 
L 319.758042 104.079818 
L 320.733566 111.708319 
L 322.684615 129.367396 
L 324.635664 148.937596 
L 327.562238 182.963733 
L 332.43986 246.454759 
L 335.366434 284.842978 
L 338.293007 320.909135 
L 340.244056 342.959175 
L 342.195105 362.743562 
L 344.146154 380.216374 
L 346.097203 395.353197 
L 348.048252 408.111639 
L 349.999301 418.469276 
L 351.95035 426.755661 
L 352.925874 430.17772 
L 354.876923 435.740096 
L 355.852448 438.017693 
L 356.827972 439.935044 
L 357.803497 441.561864 
L 358.779021 442.957198 
L 359.754545 444.122461 
L 360.73007 445.080207 
L 362.681119 446.482437 
L 364.632168 447.38425 
L 366.583217 447.928527 
L 368.534266 448.244779 
L 371.460839 448.466771 
L 376.338462 448.554457 
L 413.408392 448.56 
L 435.845455 448.56 
L 435.845455 448.56 
" clip-path="url(#p3e2ec4caa2)" style="fill: none; stroke: #0173b2; stroke-width: 2; stroke-linecap: square"/>
   </g>
   <g id="patch_3">
    <path d="M 63 448.56 
L 63 60.48 
" style="fill: none; stroke: #000000; stroke-width: 0.8; stroke-linejoin: miter; stroke-linecap: square"/>
   </g>
   <g id="patch_4">
    <path d="M 63 448.56 
L 453.6 448.56 
" style="fill: none; stroke: #000000; stroke-width: 0.8; stroke-linejoin: miter; stroke-linecap: square"/>
   </g>
  </g>
 </g>
 <defs>
  <clipPath id="p3e2ec4caa2">
   <rect x="63" y="60.48" width="390.6" height="388.08"/>
  </clipPath>
 </defs>
</svg>
