<?xml version="1.0" encoding="utf-8" standalone="no"?>
<!DOCTYPE svg PUBLIC "-//W3C//DTD SVG 1.1//EN"
  "http://www.w3.org/Graphics/SVG/1.1/DTD/svg11.dtd">
<svg xmlns:xlink="http://www.w3.org/1999/xlink" width="504pt" height="504pt" viewBox="0 0 504 504" xmlns="http://www.w3.org/2000/svg" version="1.1">
 <metadata>
  <rdf:RDF xmlns:dc="http://purl.org/dc/elements/1.1/" xmlns:cc="http://creativecommons.org/ns#" xmlns:rdf="http://www.w3.org/1999/02/22-rdf-syntax-ns#">
   <cc:Work>
    <dc:type rdf:resource="http://purl.org/dc/dcmitype/StillImage"/>
    <dc:date>2026-02-13T14:46:50.650913</dc:date>
    <dc:format>image/svg+xml</dc:format>
    <dc:creator>
     <cc:Agent>
      <dc:title>Matplotlib v3.10.8, https://matplotlib.org/</dc:title>
     </cc:Agent>
    </dc:creator>
   </cc:Work>
  </rdf:RDF>
 </metadata>
 <defs>
  <style type="text/css">*{stroke-linejoin: round; stroke-linecap: butt}</style>
 </defs>
 <g id="figure_1">
  <g id="patch_1">
   <path d="M 0 504 
L 504 504 
L 504 0 
L 0 0 
L 0 504 
z
" style="fill: none"/>
  </g>
  <g id="axes_1">
   <g id="patch_2">
    <path d="M 63 448.56 
L 453.6 448.56 
L 453.6 60.48 
L 63 60.48 
L 63 448.56 
z
" style="fill: none"/>
   </g>
   <g id="matplotlib.axis_1">
    <g id="xtick_1">
     <g id="line2d_1">
      <defs>
       <path id="m23044e5ec7" d="M 0 0 
L 0 3.5 
" style="stroke: #000000; stroke-width: 0.8"/>
      </defs>
      <g>
       <use xlink:href="#m23044e5ec7" x="80.754545" y="448.56" style="stroke: #000000; stroke-width: 0.8"/>
      </g>
     </g>
     <g id="text_1">
      <text style="font-size: 16px; font-family: 'Arial', sans-serif; text-anchor: middle" x="80.754545" y="467.0125" transform="rotate(-0 80.754545 467.0125)">1 Jan</text>
     </g>
    </g>
    <g id="xtick_2">
     <g id="line2d_2">
      <g>
       <use xlink:href="#m23044e5ec7" x="110.995804" y="448.56" style="stroke: #000000; stroke-width: 0.8"/>
      </g>
     </g>
    </g>
    <g id="xtick_3">
     <g id="line2d_3">
      <g>
       <use xlink:href="#m23044e5ec7" x="138.31049" y="448.56" style="stroke: #000000; stroke-width: 0.8"/>
      </g>
     </g>
     <g id="text_2">
      <text style="font-size: 16px; font-family: 'Arial', sans-serif; text-anchor: middle" x="138.31049" y="467.0125" transform="rotate(-0 138.31049 467.0125)">1 Mar</text>
     </g>
    </g>
    <g id="xtick_4">
     <g id="line2d_4">
      <g>
       <use xlink:href="#m23044e5ec7" x="168.551748" y="448.56" style="stroke: #000000; stroke-width: 0.8"/>
      </g>
     </g>
    </g>
    <g id="xtick_5">
     <g id="line2d_5">
      <g>
       <use xlink:href="#m23044e5ec7" x="197.817483" y="448.56" style="stroke: #000000; stroke-width: 0.8"/>
      </g>
     </g>
     <g id="text_3">
      <text style="font-size: 16px; font-family: 'Arial', sans-serif; text-anchor: middle" x="197.817483" y="467.06" transform="rotate(-0 197.817483 467.06)">1 May</text>
     </g>
    </g>
    <g id="xtick_6">
     <g id="line2d_6">
      <g>
       <use xlink:href="#m23044e5ec7" x="228.058741" y="448.56" style="stroke: #000000; stroke-width: 0.8"/>
      </g>
     </g>
    </g>
    <g id="xtick_7">
     <g id="line2d_7">
      <g>
       <use xlink:href="#m23044e5ec7" x="257.324476" y="448.56" style="stroke: #000000; stroke-width: 0.8"/>
      </g>
     </g>
     <g id="text_4">
      <text style="font-size: 16px; font-family: 'Arial', sans-serif; text-anchor: middle" x="257.324476" y="467.0125" transform="rotate(-0 257.324476 467.0125)">1 Jul</text>
     </g>
    </g>
    <g id="xtick_8">
     <g id="line2d_8">
      <g>
       <use xlink:href="#m23044e5ec7" x="287.565734" y="448.56" style="stroke: #000000; stroke-width: 0.8"/>
      </g>
     </g>
    </g>
    <g id="xtick_9">
     <g id="line2d_9">
      <g>
       <use xlink:href="#m23044e5ec7" x="317.806993" y="448.56" style="stroke: #000000; stroke-width: 0.8"/>
      </g>
     </g>
     <g id="text_5">
      <text style="font-size: 16px; font-family: 'Arial', sans-serif; text-anchor: middle" x="317.806993" y="467.2075" transform="rotate(-0 317.806993 467.2075)">1 Sep</text>
     </g>
    </g>
    <g id="xtick_10">
     <g id="line2d_10">
      <g>
       <use xlink:href="#m23044e5ec7" x="347.072727" y="448.56" style="stroke: #000000; stroke-width: 0.8"/>
      </g>
     </g>
    </g>
    <g id="xtick_11">
     <g id="line2d_11">
      <g>
       <use xlink:href="#m23044e5ec7" x="377.313986" y="448.56" style="stroke: #000000; stroke-width: 0.8"/>
      </g>
     </g>
     <g id="text_6">
      <text style="font-size: 16px; font-family: 'Arial', sans-serif; text-anchor: middle" x="377.313986" y="467.0125" transform="rotate(-0 377.313986 467.0125)">1 Nov</text>
     </g>
    </g>
    <g id="xtick_12">
     <g id="line2d_12">
      <g>
       <use xlink:href="#m23044e5ec7" x="406.57972" y="448.56" style="stroke: #000000; stroke-width: 0.8"/>
      </g>
     </g>
    </g>
    <g id="xtick_13">
     <g id="line2d_13">
      <g>
       <use xlink:href="#m23044e5ec7" x="436.820979" y="448.56" style="stroke: #000000; stroke-width: 0.8"/>
      </g>
     </g>
     <g id="text_7">
      <text style="font-size: 16px; font-family: 'Arial', sans-serif; text-anchor: middle" x="436.820979" y="467.0125" transform="rotate(-0 436.820979 467.0125)">1 Jan</text>
     </g>
    </g>
   </g>
   <g id="matplotlib.axis_2">
    <g id="ytick_1">
     <g id="line2d_14">
      <defs>
       <path id="m9e4fd5779f" d="M 0 0 
L -3.5 0 
" style="stroke: #000000; stroke-width: 0.8"/>
      </defs>
      <g>
       <use xlink:href="#m9e4fd5779f" x="63" y="430.92" style="stroke: #000000; stroke-width: 0.8"/>
      </g>
     </g>
     <g id="text_8">
      <text style="font-size: 16px; font-family: 'Arial', sans-serif; text-anchor: end" x="56" y="436.64625" transform="rotate(-0 56 436.64625)">0.0</text>
     </g>
    </g>
    <g id="ytick_2">
     <g id="line2d_15">
      <g>
       <use xlink:href="#m9e4fd5779f" x="63" y="360.355853" style="stroke: #000000; stroke-width: 0.8"/>
      </g>
     </g>
     <g id="text_9">
      <text style="font-size: 16px; font-family: 'Arial', sans-serif; text-anchor: end" x="56" y="366.082103" transform="rotate(-0 56 366.082103)">0.2</text>
     </g>
    </g>
    <g id="ytick_3">
     <g id="line2d_16">
      <g>
       <use xlink:href="#m9e4fd5779f" x="63" y="289.791707" style="stroke: #000000; stroke-width: 0.8"/>
      </g>
     </g>
     <g id="text_10">
      <text style="font-size: 16px; font-family: 'Arial', sans-serif; text-anchor: end" x="56" y="295.517957" transform="rotate(-0 56 295.517957)">0.4</text>
     </g>
    </g>
    <g id="ytick_4">
     <g id="line2d_17">
      <g>
       <use xlink:href="#m9e4fd5779f" x="63" y="219.22756" style="stroke: #000000; stroke-width: 0.8"/>
      </g>
     </g>
     <g id="text_11">
      <text style="font-size: 16px; font-family: 'Arial', sans-serif; text-anchor: end" x="56" y="224.95381" transform="rotate(-0 56 224.95381)">0.6</text>
     </g>
    </g>
    <g id="ytick_5">
     <g id="line2d_18">
      <g>
       <use xlink:href="#m9e4fd5779f" x="63" y="148.663414" style="stroke: #000000; stroke-width: 0.8"/>
      </g>
     </g>
     <g id="text_12">
      <text style="font-size: 16px; font-family: 'Arial', sans-serif; text-anchor: end" x="56" y="154.389664" transform="rotate(-0 56 154.389664)">0.8</text>
     </g>
    </g>
    <g id="ytick_6">
     <g id="line2d_19">
      <g>
       <use xlink:href="#m9e4fd5779f" x="63" y="78.099267" style="stroke: #000000; stroke-width: 0.8"/>
      </g>
     </g>
     <g id="text_13">
      <text style="font-size: 16px; font-family: 'Arial', sans-serif; text-anchor: end" x="56" y="83.825517" transform="rotate(-0 56 83.825517)">1.0</text>
     </g>
    </g>
    <g id="text_14">
     <text style="font-size: 16px; font-family: 'Arial', sans-serif; text-anchor: middle" x="26.58" y="254.52" transform="rotate(-90 26.58 254.52)">Relative reproduction number</text>
    </g>
   </g>
   <g id="line2d_20">
    <path d="M 80.754545 430.92 
L 194.890909 430.817651 
L 198.793007 430.540511 
L 201.71958 430.051291 
L 203.670629 429.484635 
L 205.621678 428.627051 
L 207.572727 427.388622 
L 208.548252 426.5858 
L 209.523776 425.635039 
L 211.474825 423.23817 
L 212.45035 421.758508 
L 213.425874 420.052798 
L 215.376923 415.900495 
L 216.352448 413.413172 
L 217.327972 410.606562 
L 219.279021 403.94198 
L 221.23007 395.768116 
L 223.181119 385.876621 
L 225.132168 374.182269 
L 227.083217 360.718913 
L 229.034266 345.516909 
L 230.985315 328.44491 
L 232.936364 309.70561 
L 235.862937 279.341742 
L 238.78951 247.044289 
L 242.691608 203.692677 
L 245.618182 172.639111 
L 247.569231 153.901686 
L 249.52028 137.221288 
L 251.471329 121.985275 
L 253.422378 109.237891 
L 255.373427 98.526167 
L 257.324476 90.161492 
L 258.3 86.821256 
L 259.275524 84.083157 
L 260.251049 81.949195 
L 261.226573 80.45284 
L 262.202098 79.331644 
L 263.177622 78.38784 
L 264.153147 78.188047 
L 265.128671 78.12 
L 266.104196 78.392185 
L 267.07972 78.913066 
L 268.055245 79.618788 
L 270.006294 82.127487 
L 272.932867 86.353921 
L 275.859441 91.354405 
L 279.761538 96.46131 
L 281.712587 98.497621 
L 282.688112 99.317474 
L 283.663636 99.979322 
L 284.639161 100.455631 
L 285.614685 100.745685 
L 286.59021 100.848866 
L 287.565734 100.76466 
L 288.541259 100.492654 
L 289.516783 100.03254 
L 290.492308 99.384112 
L 292.443357 97.636374 
L 293.418881 96.534906 
L 297.320979 91.358867 
L 298.296503 89.778529 
L 300.247552 86.272618 
L 304.14965 80.605448 
L 305.125175 79.482183 
L 306.100699 78.746003 
L 307.076224 78.272342 
L 308.051748 78.13771 
L 309.027273 78.255105 
L 310.002797 78.649263 
L 311.953846 80.985224 
L 312.929371 82.902906 
L 313.904895 85.509157 
L 314.88042 88.721172 
L 315.855944 92.702672 
L 316.831469 97.155852 
L 317.806993 102.321974 
L 319.758042 114.605973 
L 320.733566 121.610735 
L 322.684615 137.825931 
L 324.635664 155.795989 
L 327.562238 187.040005 
L 332.43986 245.339737 
L 335.366434 280.589173 
L 338.293007 313.706409 
L 340.244056 333.953545 
L 342.195105 352.120276 
L 344.146154 368.164438 
L 346.097203 382.06361 
L 348.048252 393.778867 
L 349.999301 403.289621 
L 351.95035 410.898475 
L 352.925874 414.040733 
L 354.876923 419.148306 
L 355.852448 421.239677 
L 356.827972 423.000257 
L 357.803497 424.494062 
L 358.779021 425.775307 
L 359.754545 426.845293 
L 360.73007 427.72473 
L 362.681119 429.012307 
L 364.632168 429.840385 
L 366.583217 430.340159 
L 368.534266 430.630552 
L 371.460839 430.834394 
L 377.313986 430.917681 
L 435.845455 430.92 
L 435.845455 430.92 
" clip-path="url(#p2b44dd5469)" style="fill: none; stroke: #0173b2; stroke-width: 2; stroke-linecap: square"/>
   </g>
   <g id="patch_3">
    <path d="M 63 448.56 
L 63 60.48 
" style="fill: none; stroke: #000000; stroke-width: 0.8; stroke-linejoin: miter; stroke-linecap: square"/>
   </g>
   <g id="patch_4">
    <path d="M 63 448.56 
L 453.6 448.56 
" style="fill: none; stroke: #000000; stroke-width: 0.8; stroke-linejoin: miter; stroke-linecap: square"/>
   </g>
  </g>
 </g>
 <defs>
  <clipPath id="p2b44dd5469">
   <rect x="63" y="60.48" width="390.6" height="388.08"/>
  </clipPath>
 </defs>
</svg>
