<?xml version="1.0" encoding="utf-8" standalone="no"?>
<!DOCTYPE svg PUBLIC "-//W3C//DTD SVG 1.1//EN"
  "http://www.w3.org/Graphics/SVG/1.1/DTD/svg11.dtd">
<svg xmlns:xlink="http://www.w3.org/1999/xlink" width="504pt" height="504pt" viewBox="0 0 504 504" xmlns="http://www.w3.org/2000/svg" version="1.1">
 <metadata>
  <rdf:RDF xmlns:dc="http://purl.org/dc/elements/1.1/" xmlns:cc="http://creativecommons.org/ns#" xmlns:rdf="http://www.w3.org/1999/02/22-rdf-syntax-ns#">
   <cc:Work>
    <dc:type rdf:resource="http://purl.org/dc/dcmitype/StillImage"/>
    <dc:date>2026-07-08T17:29:09.172220</dc:date>
    <dc:format>image/svg+xml</dc:format>
    <dc:creator>
     <cc:Agent>
      <dc:title>Matplotlib v3.11.0, https://matplotlib.org/</dc:title>
     </cc:Agent>
    </dc:creator>
   </cc:Work>
  </rdf:RDF>
 </metadata>
 <defs>
  <style type="text/css">*{stroke-linejoin: round; stroke-linecap: butt}</style>
 </defs>
 <g id="figure_1">
  <g id="patch_1">
   <path d="M 0 504 
L 504 504 
L 504 0 
L 0 0 
L 0 504 
z
" style="fill: none"/>
  </g>
  <g id="axes_1">
   <g id="patch_2">
    <path d="M 63 448.56 
L 453.6 448.56 
L 453.6 60.48 
L 63 60.48 
L 63 448.56 
z
" style="fill: none"/>
   </g>
   <g id="patch_3">
    <path d="M 60.632727 448.56 
L 65.367273 448.56 
L 65.367273 448.539453 
L 60.632727 448.539453 
z
" clip-path="url(#p19ae51dd76)" style="fill: #7f7f7f; opacity: 0.6"/>
   </g>
   <g id="patch_4">
    <path d="M 66.550909 448.56 
L 71.285455 448.56 
L 71.285455 447.860986 
L 66.550909 447.860986 
z
" clip-path="url(#p19ae51dd76)" style="fill: #7f7f7f; opacity: 0.6"/>
   </g>
   <g id="patch_5">
    <path d="M 72.469091 448.56 
L 77.203636 448.56 
L 77.203636 444.278006 
L 72.469091 444.278006 
z
" clip-path="url(#p19ae51dd76)" style="fill: #7f7f7f; opacity: 0.6"/>
   </g>
   <g id="patch_6">
    <path d="M 78.387273 448.56 
L 83.121818 448.56 
L 83.121818 435.534036 
L 78.387273 435.534036 
z
" clip-path="url(#p19ae51dd76)" style="fill: #7f7f7f; opacity: 0.6"/>
   </g>
   <g id="patch_7">
    <path d="M 84.305455 448.56 
L 89.04 448.56 
L 89.04 420.578869 
L 84.305455 420.578869 
z
" clip-path="url(#p19ae51dd76)" style="fill: #7f7f7f; opacity: 0.6"/>
   </g>
   <g id="patch_8">
    <path d="M 90.223636 448.56 
L 94.958182 448.56 
L 94.958182 399.470533 
L 90.223636 399.470533 
z
" clip-path="url(#p19ae51dd76)" style="fill: #7f7f7f; opacity: 0.6"/>
   </g>
   <g id="patch_9">
    <path d="M 96.141818 448.56 
L 100.876364 448.56 
L 100.876364 373.043713 
L 96.141818 373.043713 
z
" clip-path="url(#p19ae51dd76)" style="fill: #7f7f7f; opacity: 0.6"/>
   </g>
   <g id="patch_10">
    <path d="M 102.06 448.56 
L 106.794545 448.56 
L 106.794545 342.589722 
L 102.06 342.589722 
z
" clip-path="url(#p19ae51dd76)" style="fill: #7f7f7f; opacity: 0.6"/>
   </g>
   <g id="patch_11">
    <path d="M 107.978182 448.56 
L 112.712727 448.56 
L 112.712727 309.59894 
L 107.978182 309.59894 
z
" clip-path="url(#p19ae51dd76)" style="fill: #7f7f7f; opacity: 0.6"/>
   </g>
   <g id="patch_12">
    <path d="M 113.896364 448.56 
L 118.630909 448.56 
L 118.630909 275.572789 
L 113.896364 275.572789 
z
" clip-path="url(#p19ae51dd76)" style="fill: #7f7f7f; opacity: 0.6"/>
   </g>
   <g id="patch_13">
    <path d="M 119.814545 448.56 
L 124.549091 448.56 
L 124.549091 241.897803 
L 119.814545 241.897803 
z
" clip-path="url(#p19ae51dd76)" style="fill: #7f7f7f; opacity: 0.6"/>
   </g>
   <g id="patch_14">
    <path d="M 125.732727 448.56 
L 130.467273 448.56 
L 130.467273 209.770009 
L 125.732727 209.770009 
z
" clip-path="url(#p19ae51dd76)" style="fill: #7f7f7f; opacity: 0.6"/>
   </g>
   <g id="patch_15">
    <path d="M 131.650909 448.56 
L 136.385455 448.56 
L 136.385455 180.157616 
L 131.650909 180.157616 
z
" clip-path="url(#p19ae51dd76)" style="fill: #7f7f7f; opacity: 0.6"/>
   </g>
   <g id="patch_16">
    <path d="M 137.569091 448.56 
L 142.303636 448.56 
L 142.303636 153.791314 
L 137.569091 153.791314 
z
" clip-path="url(#p19ae51dd76)" style="fill: #7f7f7f; opacity: 0.6"/>
   </g>
   <g id="patch_17">
    <path d="M 143.487273 448.56 
L 148.221818 448.56 
L 148.221818 131.173363 
L 143.487273 131.173363 
z
" clip-path="url(#p19ae51dd76)" style="fill: #7f7f7f; opacity: 0.6"/>
   </g>
   <g id="patch_18">
    <path d="M 149.405455 448.56 
L 154.14 448.56 
L 154.14 112.598521 
L 149.405455 112.598521 
z
" clip-path="url(#p19ae51dd76)" style="fill: #7f7f7f; opacity: 0.6"/>
   </g>
   <g id="patch_19">
    <path d="M 155.323636 448.56 
L 160.058182 448.56 
L 160.058182 98.181548 
L 155.323636 98.181548 
z
" clip-path="url(#p19ae51dd76)" style="fill: #7f7f7f; opacity: 0.6"/>
   </g>
   <g id="patch_20">
    <path d="M 161.241818 448.56 
L 165.976364 448.56 
L 165.976364 87.887477 
L 161.241818 87.887477 
z
" clip-path="url(#p19ae51dd76)" style="fill: #7f7f7f; opacity: 0.6"/>
   </g>
   <g id="patch_21">
    <path d="M 167.16 448.56 
L 171.894545 448.56 
L 171.894545 81.561966 
L 167.16 81.561966 
z
" clip-path="url(#p19ae51dd76)" style="fill: #7f7f7f; opacity: 0.6"/>
   </g>
   <g id="patch_22">
    <path d="M 173.078182 448.56 
L 177.812727 448.56 
L 177.812727 78.96 
L 173.078182 78.96 
z
" clip-path="url(#p19ae51dd76)" style="fill: #7f7f7f; opacity: 0.6"/>
   </g>
   <g id="patch_23">
    <path d="M 178.996364 448.56 
L 183.730909 448.56 
L 183.730909 79.771835 
L 178.996364 79.771835 
z
" clip-path="url(#p19ae51dd76)" style="fill: #7f7f7f; opacity: 0.6"/>
   </g>
   <g id="patch_24">
    <path d="M 184.914545 448.56 
L 189.649091 448.56 
L 189.649091 83.645662 
L 184.914545 83.645662 
z
" clip-path="url(#p19ae51dd76)" style="fill: #7f7f7f; opacity: 0.6"/>
   </g>
   <g id="patch_25">
    <path d="M 190.832727 448.56 
L 195.567273 448.56 
L 195.567273 90.206756 
L 190.832727 90.206756 
z
" clip-path="url(#p19ae51dd76)" style="fill: #7f7f7f; opacity: 0.6"/>
   </g>
   <g id="patch_26">
    <path d="M 196.750909 448.56 
L 201.485455 448.56 
L 201.485455 99.073191 
L 196.750909 99.073191 
z
" clip-path="url(#p19ae51dd76)" style="fill: #7f7f7f; opacity: 0.6"/>
   </g>
   <g id="patch_27">
    <path d="M 202.669091 448.56 
L 207.403636 448.56 
L 207.403636 109.86831 
L 202.669091 109.86831 
z
" clip-path="url(#p19ae51dd76)" style="fill: #7f7f7f; opacity: 0.6"/>
   </g>
   <g id="patch_28">
    <path d="M 208.587273 448.56 
L 213.321818 448.56 
L 213.321818 122.23027 
L 208.587273 122.23027 
z
" clip-path="url(#p19ae51dd76)" style="fill: #7f7f7f; opacity: 0.6"/>
   </g>
   <g id="patch_29">
    <path d="M 214.505455 448.56 
L 219.24 448.56 
L 219.24 135.819016 
L 214.505455 135.819016 
z
" clip-path="url(#p19ae51dd76)" style="fill: #7f7f7f; opacity: 0.6"/>
   </g>
   <g id="patch_30">
    <path d="M 220.423636 448.56 
L 225.158182 448.56 
L 225.158182 150.321054 
L 220.423636 150.321054 
z
" clip-path="url(#p19ae51dd76)" style="fill: #7f7f7f; opacity: 0.6"/>
   </g>
   <g id="patch_31">
    <path d="M 226.341818 448.56 
L 231.076364 448.56 
L 231.076364 165.452391 
L 226.341818 165.452391 
z
" clip-path="url(#p19ae51dd76)" style="fill: #7f7f7f; opacity: 0.6"/>
   </g>
   <g id="patch_32">
    <path d="M 232.26 448.56 
L 236.994545 448.56 
L 236.994545 180.959975 
L 232.26 180.959975 
z
" clip-path="url(#p19ae51dd76)" style="fill: #7f7f7f; opacity: 0.6"/>
   </g>
   <g id="patch_33">
    <path d="M 238.178182 448.56 
L 242.912727 448.56 
L 242.912727 196.62195 
L 238.178182 196.62195 
z
" clip-path="url(#p19ae51dd76)" style="fill: #7f7f7f; opacity: 0.6"/>
   </g>
   <g id="patch_34">
    <path d="M 244.096364 448.56 
L 248.830909 448.56 
L 248.830909 212.246998 
L 244.096364 212.246998 
z
" clip-path="url(#p19ae51dd76)" style="fill: #7f7f7f; opacity: 0.6"/>
   </g>
   <g id="patch_35">
    <path d="M 250.014545 448.56 
L 254.749091 448.56 
L 254.749091 227.672992 
L 250.014545 227.672992 
z
" clip-path="url(#p19ae51dd76)" style="fill: #7f7f7f; opacity: 0.6"/>
   </g>
   <g id="patch_36">
    <path d="M 255.932727 448.56 
L 260.667273 448.56 
L 260.667273 242.765186 
L 255.932727 242.765186 
z
" clip-path="url(#p19ae51dd76)" style="fill: #7f7f7f; opacity: 0.6"/>
   </g>
   <g id="patch_37">
    <path d="M 261.850909 448.56 
L 266.585455 448.56 
L 266.585455 257.414069 
L 261.850909 257.414069 
z
" clip-path="url(#p19ae51dd76)" style="fill: #7f7f7f; opacity: 0.6"/>
   </g>
   <g id="patch_38">
    <path d="M 267.769091 448.56 
L 272.503636 448.56 
L 272.503636 271.533052 
L 267.769091 271.533052 
z
" clip-path="url(#p19ae51dd76)" style="fill: #7f7f7f; opacity: 0.6"/>
   </g>
   <g id="patch_39">
    <path d="M 273.687273 448.56 
L 278.421818 448.56 
L 278.421818 285.056076 
L 273.687273 285.056076 
z
" clip-path="url(#p19ae51dd76)" style="fill: #7f7f7f; opacity: 0.6"/>
   </g>
   <g id="patch_40">
    <path d="M 279.605455 448.56 
L 284.34 448.56 
L 284.34 297.935223 
L 279.605455 297.935223 
z
" clip-path="url(#p19ae51dd76)" style="fill: #7f7f7f; opacity: 0.6"/>
   </g>
   <g id="patch_41">
    <path d="M 285.523636 448.56 
L 290.258182 448.56 
L 290.258182 310.138401 
L 285.523636 310.138401 
z
" clip-path="url(#p19ae51dd76)" style="fill: #7f7f7f; opacity: 0.6"/>
   </g>
   <g id="patch_42">
    <path d="M 291.441818 448.56 
L 296.176364 448.56 
L 296.176364 321.647141 
L 291.441818 321.647141 
z
" clip-path="url(#p19ae51dd76)" style="fill: #7f7f7f; opacity: 0.6"/>
   </g>
   <g id="patch_43">
    <path d="M 297.36 448.56 
L 302.094545 448.56 
L 302.094545 332.45454 
L 297.36 332.45454 
z
" clip-path="url(#p19ae51dd76)" style="fill: #7f7f7f; opacity: 0.6"/>
   </g>
   <g id="patch_44">
    <path d="M 303.278182 448.56 
L 308.012727 448.56 
L 308.012727 342.56337 
L 303.278182 342.56337 
z
" clip-path="url(#p19ae51dd76)" style="fill: #7f7f7f; opacity: 0.6"/>
   </g>
   <g id="patch_45">
    <path d="M 309.196364 448.56 
L 313.930909 448.56 
L 313.930909 351.984353 
L 309.196364 351.984353 
z
" clip-path="url(#p19ae51dd76)" style="fill: #7f7f7f; opacity: 0.6"/>
   </g>
   <g id="patch_46">
    <path d="M 315.114545 448.56 
L 319.849091 448.56 
L 319.849091 360.734628 
L 315.114545 360.734628 
z
" clip-path="url(#p19ae51dd76)" style="fill: #7f7f7f; opacity: 0.6"/>
   </g>
   <g id="patch_47">
    <path d="M 321.032727 448.56 
L 325.767273 448.56 
L 325.767273 368.836376 
L 321.032727 368.836376 
z
" clip-path="url(#p19ae51dd76)" style="fill: #7f7f7f; opacity: 0.6"/>
   </g>
   <g id="patch_48">
    <path d="M 326.950909 448.56 
L 331.685455 448.56 
L 331.685455 376.315626 
L 326.950909 376.315626 
z
" clip-path="url(#p19ae51dd76)" style="fill: #7f7f7f; opacity: 0.6"/>
   </g>
   <g id="patch_49">
    <path d="M 332.869091 448.56 
L 337.603636 448.56 
L 337.603636 383.201216 
L 332.869091 383.201216 
z
" clip-path="url(#p19ae51dd76)" style="fill: #7f7f7f; opacity: 0.6"/>
   </g>
   <g id="patch_50">
    <path d="M 338.787273 448.56 
L 343.521818 448.56 
L 343.521818 389.523896 
L 338.787273 389.523896 
z
" clip-path="url(#p19ae51dd76)" style="fill: #7f7f7f; opacity: 0.6"/>
   </g>
   <g id="patch_51">
    <path d="M 344.705455 448.56 
L 349.44 448.56 
L 349.44 395.315581 
L 344.705455 395.315581 
z
" clip-path="url(#p19ae51dd76)" style="fill: #7f7f7f; opacity: 0.6"/>
   </g>
   <g id="patch_52">
    <path d="M 350.623636 448.56 
L 355.358182 448.56 
L 355.358182 400.60871 
L 350.623636 400.60871 
z
" clip-path="url(#p19ae51dd76)" style="fill: #7f7f7f; opacity: 0.6"/>
   </g>
   <g id="patch_53">
    <path d="M 356.541818 448.56 
L 361.276364 448.56 
L 361.276364 405.43573 
L 356.541818 405.43573 
z
" clip-path="url(#p19ae51dd76)" style="fill: #7f7f7f; opacity: 0.6"/>
   </g>
   <g id="patch_54">
    <path d="M 362.46 448.56 
L 367.194545 448.56 
L 367.194545 409.828668 
L 362.46 409.828668 
z
" clip-path="url(#p19ae51dd76)" style="fill: #7f7f7f; opacity: 0.6"/>
   </g>
   <g id="patch_55">
    <path d="M 368.378182 448.56 
L 373.112727 448.56 
L 373.112727 413.818793 
L 368.378182 413.818793 
z
" clip-path="url(#p19ae51dd76)" style="fill: #7f7f7f; opacity: 0.6"/>
   </g>
   <g id="patch_56">
    <path d="M 374.296364 448.56 
L 379.030909 448.56 
L 379.030909 417.436358 
L 374.296364 417.436358 
z
" clip-path="url(#p19ae51dd76)" style="fill: #7f7f7f; opacity: 0.6"/>
   </g>
   <g id="patch_57">
    <path d="M 380.214545 448.56 
L 384.949091 448.56 
L 384.949091 420.710395 
L 380.214545 420.710395 
z
" clip-path="url(#p19ae51dd76)" style="fill: #7f7f7f; opacity: 0.6"/>
   </g>
   <g id="patch_58">
    <path d="M 386.132727 448.56 
L 390.867273 448.56 
L 390.867273 423.668575 
L 386.132727 423.668575 
z
" clip-path="url(#p19ae51dd76)" style="fill: #7f7f7f; opacity: 0.6"/>
   </g>
   <g id="patch_59">
    <path d="M 392.050909 448.56 
L 396.785455 448.56 
L 396.785455 426.33711 
L 392.050909 426.33711 
z
" clip-path="url(#p19ae51dd76)" style="fill: #7f7f7f; opacity: 0.6"/>
   </g>
   <g id="patch_60">
    <path d="M 397.969091 448.56 
L 402.703636 448.56 
L 402.703636 428.740699 
L 397.969091 428.740699 
z
" clip-path="url(#p19ae51dd76)" style="fill: #7f7f7f; opacity: 0.6"/>
   </g>
   <g id="patch_61">
    <path d="M 403.887273 448.56 
L 408.621818 448.56 
L 408.621818 430.902497 
L 403.887273 430.902497 
z
" clip-path="url(#p19ae51dd76)" style="fill: #7f7f7f; opacity: 0.6"/>
   </g>
   <g id="patch_62">
    <path d="M 409.805455 448.56 
L 414.54 448.56 
L 414.54 432.844121 
L 409.805455 432.844121 
z
" clip-path="url(#p19ae51dd76)" style="fill: #7f7f7f; opacity: 0.6"/>
   </g>
   <g id="patch_63">
    <path d="M 415.723636 448.56 
L 420.458182 448.56 
L 420.458182 434.585671 
L 415.723636 434.585671 
z
" clip-path="url(#p19ae51dd76)" style="fill: #7f7f7f; opacity: 0.6"/>
   </g>
   <g id="patch_64">
    <path d="M 421.641818 448.56 
L 426.376364 448.56 
L 426.376364 436.145764 
L 421.641818 436.145764 
z
" clip-path="url(#p19ae51dd76)" style="fill: #7f7f7f; opacity: 0.6"/>
   </g>
   <g id="patch_65">
    <path d="M 427.56 448.56 
L 432.294545 448.56 
L 432.294545 437.541591 
L 427.56 437.541591 
z
" clip-path="url(#p19ae51dd76)" style="fill: #7f7f7f; opacity: 0.6"/>
   </g>
   <g id="patch_66">
    <path d="M 433.478182 448.56 
L 438.212727 448.56 
L 438.212727 438.788976 
L 433.478182 438.788976 
z
" clip-path="url(#p19ae51dd76)" style="fill: #7f7f7f; opacity: 0.6"/>
   </g>
   <g id="patch_67">
    <path d="M 439.396364 448.56 
L 444.130909 448.56 
L 444.130909 439.90244 
L 439.396364 439.90244 
z
" clip-path="url(#p19ae51dd76)" style="fill: #7f7f7f; opacity: 0.6"/>
   </g>
   <g id="patch_68">
    <path d="M 445.314545 448.56 
L 450.049091 448.56 
L 450.049091 440.895276 
L 445.314545 440.895276 
z
" clip-path="url(#p19ae51dd76)" style="fill: #7f7f7f; opacity: 0.6"/>
   </g>
   <g id="patch_69">
    <path d="M 451.232727 448.56 
L 455.967273 448.56 
L 455.967273 441.779622 
L 451.232727 441.779622 
z
" clip-path="url(#p19ae51dd76)" style="fill: #7f7f7f; opacity: 0.6"/>
   </g>
   <g id="patch_70">
    <path d="M 457.150909 448.56 
L 461.885455 448.56 
L 461.885455 442.566534 
L 457.150909 442.566534 
z
" clip-path="url(#p19ae51dd76)" style="fill: #7f7f7f; opacity: 0.6"/>
   </g>
   <g id="patch_71">
    <path d="M 463.069091 448.56 
L 467.803636 448.56 
L 467.803636 443.266063 
L 463.069091 443.266063 
z
" clip-path="url(#p19ae51dd76)" style="fill: #7f7f7f; opacity: 0.6"/>
   </g>
   <g id="patch_72">
    <path d="M 468.987273 448.56 
L 473.721818 448.56 
L 473.721818 443.887325 
L 468.987273 443.887325 
z
" clip-path="url(#p19ae51dd76)" style="fill: #7f7f7f; opacity: 0.6"/>
   </g>
   <g id="patch_73">
    <path d="M 474.905455 448.56 
L 479.64 448.56 
L 479.64 444.438574 
L 474.905455 444.438574 
z
" clip-path="url(#p19ae51dd76)" style="fill: #7f7f7f; opacity: 0.6"/>
   </g>
   <g id="patch_74">
    <path d="M 480.823636 448.56 
L 485.558182 448.56 
L 485.558182 444.92727 
L 480.823636 444.92727 
z
" clip-path="url(#p19ae51dd76)" style="fill: #7f7f7f; opacity: 0.6"/>
   </g>
   <g id="patch_75">
    <path d="M 486.741818 448.56 
L 491.476364 448.56 
L 491.476364 445.360142 
L 486.741818 445.360142 
z
" clip-path="url(#p19ae51dd76)" style="fill: #7f7f7f; opacity: 0.6"/>
   </g>
   <g id="patch_76">
    <path d="M 492.66 448.56 
L 497.394545 448.56 
L 497.394545 445.74325 
L 492.66 445.74325 
z
" clip-path="url(#p19ae51dd76)" style="fill: #7f7f7f; opacity: 0.6"/>
   </g>
   <g id="patch_77">
    <path d="M 498.578182 448.56 
L 503.312727 448.56 
L 503.312727 446.082044 
L 498.578182 446.082044 
z
" clip-path="url(#p19ae51dd76)" style="fill: #7f7f7f; opacity: 0.6"/>
   </g>
   <g id="patch_78">
    <path d="M 504.496364 448.56 
L 509.230909 448.56 
L 509.230909 446.381419 
L 504.496364 446.381419 
z
" clip-path="url(#p19ae51dd76)" style="fill: #7f7f7f; opacity: 0.6"/>
   </g>
   <g id="patch_79">
    <path d="M 510.414545 448.56 
L 515.149091 448.56 
L 515.149091 446.645762 
L 510.414545 446.645762 
z
" clip-path="url(#p19ae51dd76)" style="fill: #7f7f7f; opacity: 0.6"/>
   </g>
   <g id="patch_80">
    <path d="M 516.332727 448.56 
L 521.067273 448.56 
L 521.067273 446.879004 
L 516.332727 446.879004 
z
" clip-path="url(#p19ae51dd76)" style="fill: #7f7f7f; opacity: 0.6"/>
   </g>
   <g id="patch_81">
    <path d="M 522.250909 448.56 
L 526.985455 448.56 
L 526.985455 447.084659 
L 522.250909 447.084659 
z
" clip-path="url(#p19ae51dd76)" style="fill: #7f7f7f; opacity: 0.6"/>
   </g>
   <g id="patch_82">
    <path d="M 528.169091 448.56 
L 532.903636 448.56 
L 532.903636 447.265864 
L 528.169091 447.265864 
z
" clip-path="url(#p19ae51dd76)" style="fill: #7f7f7f; opacity: 0.6"/>
   </g>
   <g id="patch_83">
    <path d="M 534.087273 448.56 
L 538.821818 448.56 
L 538.821818 447.425421 
L 534.087273 447.425421 
z
" clip-path="url(#p19ae51dd76)" style="fill: #7f7f7f; opacity: 0.6"/>
   </g>
   <g id="patch_84">
    <path d="M 540.005455 448.56 
L 544.74 448.56 
L 544.74 447.565826 
L 540.005455 447.565826 
z
" clip-path="url(#p19ae51dd76)" style="fill: #7f7f7f; opacity: 0.6"/>
   </g>
   <g id="patch_85">
    <path d="M 545.923636 448.56 
L 550.658182 448.56 
L 550.658182 447.689299 
L 545.923636 447.689299 
z
" clip-path="url(#p19ae51dd76)" style="fill: #7f7f7f; opacity: 0.6"/>
   </g>
   <g id="patch_86">
    <path d="M 551.841818 448.56 
L 556.576364 448.56 
L 556.576364 447.797815 
L 551.841818 447.797815 
z
" clip-path="url(#p19ae51dd76)" style="fill: #7f7f7f; opacity: 0.6"/>
   </g>
   <g id="patch_87">
    <path d="M 557.76 448.56 
L 562.494545 448.56 
L 562.494545 447.893131 
L 557.76 447.893131 
z
" clip-path="url(#p19ae51dd76)" style="fill: #7f7f7f; opacity: 0.6"/>
   </g>
   <g id="patch_88">
    <path d="M 563.678182 448.56 
L 568.412727 448.56 
L 568.412727 447.976804 
L 563.678182 447.976804 
z
" clip-path="url(#p19ae51dd76)" style="fill: #7f7f7f; opacity: 0.6"/>
   </g>
   <g id="patch_89">
    <path d="M 569.596364 448.56 
L 574.330909 448.56 
L 574.330909 448.050214 
L 569.596364 448.050214 
z
" clip-path="url(#p19ae51dd76)" style="fill: #7f7f7f; opacity: 0.6"/>
   </g>
   <g id="patch_90">
    <path d="M 575.514545 448.56 
L 580.249091 448.56 
L 580.249091 448.114584 
L 575.514545 448.114584 
z
" clip-path="url(#p19ae51dd76)" style="fill: #7f7f7f; opacity: 0.6"/>
   </g>
   <g id="patch_91">
    <path d="M 581.432727 448.56 
L 586.167273 448.56 
L 586.167273 448.170999 
L 581.432727 448.170999 
z
" clip-path="url(#p19ae51dd76)" style="fill: #7f7f7f; opacity: 0.6"/>
   </g>
   <g id="patch_92">
    <path d="M 587.350909 448.56 
L 592.085455 448.56 
L 592.085455 448.220415 
L 587.350909 448.220415 
z
" clip-path="url(#p19ae51dd76)" style="fill: #7f7f7f; opacity: 0.6"/>
   </g>
   <g id="patch_93">
    <path d="M 593.269091 448.56 
L 598.003636 448.56 
L 598.003636 448.263678 
L 593.269091 448.263678 
z
" clip-path="url(#p19ae51dd76)" style="fill: #7f7f7f; opacity: 0.6"/>
   </g>
   <g id="patch_94">
    <path d="M 599.187273 448.56 
L 603.921818 448.56 
L 603.921818 448.301536 
L 599.187273 448.301536 
z
" clip-path="url(#p19ae51dd76)" style="fill: #7f7f7f; opacity: 0.6"/>
   </g>
   <g id="patch_95">
    <path d="M 605.105455 448.56 
L 609.84 448.56 
L 609.84 448.334649 
L 605.105455 448.334649 
z
" clip-path="url(#p19ae51dd76)" style="fill: #7f7f7f; opacity: 0.6"/>
   </g>
   <g id="patch_96">
    <path d="M 611.023636 448.56 
L 615.758182 448.56 
L 615.758182 448.363597 
L 611.023636 448.363597 
z
" clip-path="url(#p19ae51dd76)" style="fill: #7f7f7f; opacity: 0.6"/>
   </g>
   <g id="patch_97">
    <path d="M 616.941818 448.56 
L 621.676364 448.56 
L 621.676364 448.388892 
L 616.941818 448.388892 
z
" clip-path="url(#p19ae51dd76)" style="fill: #7f7f7f; opacity: 0.6"/>
   </g>
   <g id="patch_98">
    <path d="M 622.86 448.56 
L 627.594545 448.56 
L 627.594545 448.410986 
L 622.86 448.410986 
z
" clip-path="url(#p19ae51dd76)" style="fill: #7f7f7f; opacity: 0.6"/>
   </g>
   <g id="patch_99">
    <path d="M 628.778182 448.56 
L 633.512727 448.56 
L 633.512727 448.430275 
L 628.778182 448.430275 
z
" clip-path="url(#p19ae51dd76)" style="fill: #7f7f7f; opacity: 0.6"/>
   </g>
   <g id="patch_100">
    <path d="M 634.696364 448.56 
L 639.430909 448.56 
L 639.430909 448.447109 
L 634.696364 448.447109 
z
" clip-path="url(#p19ae51dd76)" style="fill: #7f7f7f; opacity: 0.6"/>
   </g>
   <g id="patch_101">
    <path d="M 640.614545 448.56 
L 645.349091 448.56 
L 645.349091 448.461792 
L 640.614545 448.461792 
z
" clip-path="url(#p19ae51dd76)" style="fill: #7f7f7f; opacity: 0.6"/>
   </g>
   <g id="patch_102">
    <path d="M 646.532727 448.56 
L 651.267273 448.56 
L 651.267273 448.474596 
L 646.532727 448.474596 
z
" clip-path="url(#p19ae51dd76)" style="fill: #7f7f7f; opacity: 0.6"/>
   </g>
   <g id="patch_103">
    <path d="M 652.450909 448.56 
L 657.185455 448.56 
L 657.185455 448.000094 
L 652.450909 448.000094 
z
" clip-path="url(#p19ae51dd76)" style="fill: #7f7f7f; opacity: 0.6"/>
   </g>
   <g id="matplotlib.axis_1">
    <g id="xtick_1">
     <g id="line2d_1">
      <defs>
       <path id="m3df5a92c4d" d="M 0 0 
L 0 3.5 
" style="stroke: #000000; stroke-width: 0.8"/>
      </defs>
      <g>
       <use xlink:href="#m3df5a92c4d" x="63" y="448.56" style="stroke: #000000; stroke-width: 0.8"/>
      </g>
     </g>
     <g id="text_1">
      <text style="font-size: 16px; font-family: 'Arial', sans-serif; text-anchor: middle" x="63" y="467.71625" transform="rotate(-0 63 467.71625)">0</text>
     </g>
    </g>
    <g id="xtick_2">
     <g id="line2d_2">
      <g>
       <use xlink:href="#m3df5a92c4d" x="122.181818" y="448.56" style="stroke: #000000; stroke-width: 0.8"/>
      </g>
     </g>
     <g id="text_2">
      <text style="font-size: 16px; font-family: 'Arial', sans-serif; text-anchor: middle" x="122.181818" y="467.71625" transform="rotate(-0 122.181818 467.71625)">10</text>
     </g>
    </g>
    <g id="xtick_3">
     <g id="line2d_3">
      <g>
       <use xlink:href="#m3df5a92c4d" x="181.363636" y="448.56" style="stroke: #000000; stroke-width: 0.8"/>
      </g>
     </g>
     <g id="text_3">
      <text style="font-size: 16px; font-family: 'Arial', sans-serif; text-anchor: middle" x="181.363636" y="467.71625" transform="rotate(-0 181.363636 467.71625)">20</text>
     </g>
    </g>
    <g id="xtick_4">
     <g id="line2d_4">
      <g>
       <use xlink:href="#m3df5a92c4d" x="240.545455" y="448.56" style="stroke: #000000; stroke-width: 0.8"/>
      </g>
     </g>
     <g id="text_4">
      <text style="font-size: 16px; font-family: 'Arial', sans-serif; text-anchor: middle" x="240.545455" y="467.71625" transform="rotate(-0 240.545455 467.71625)">30</text>
     </g>
    </g>
    <g id="xtick_5">
     <g id="line2d_5">
      <g>
       <use xlink:href="#m3df5a92c4d" x="299.727273" y="448.56" style="stroke: #000000; stroke-width: 0.8"/>
      </g>
     </g>
     <g id="text_5">
      <text style="font-size: 16px; font-family: 'Arial', sans-serif; text-anchor: middle" x="299.727273" y="467.71625" transform="rotate(-0 299.727273 467.71625)">40</text>
     </g>
    </g>
    <g id="xtick_6">
     <g id="line2d_6">
      <g>
       <use xlink:href="#m3df5a92c4d" x="358.909091" y="448.56" style="stroke: #000000; stroke-width: 0.8"/>
      </g>
     </g>
     <g id="text_6">
      <text style="font-size: 16px; font-family: 'Arial', sans-serif; text-anchor: middle" x="358.909091" y="467.71625" transform="rotate(-0 358.909091 467.71625)">50</text>
     </g>
    </g>
    <g id="xtick_7">
     <g id="line2d_7">
      <g>
       <use xlink:href="#m3df5a92c4d" x="418.090909" y="448.56" style="stroke: #000000; stroke-width: 0.8"/>
      </g>
     </g>
     <g id="text_7">
      <text style="font-size: 16px; font-family: 'Arial', sans-serif; text-anchor: middle" x="418.090909" y="467.71625" transform="rotate(-0 418.090909 467.71625)">60</text>
     </g>
    </g>
    <g id="text_8">
     <text style="font-size: 16px; font-family: 'Arial', sans-serif; text-anchor: middle" x="258.3" y="487.7175" transform="rotate(-0 258.3 487.7175)">Onset-to-report delay (days)</text>
    </g>
   </g>
   <g id="matplotlib.axis_2">
    <g id="ytick_1">
     <g id="line2d_8">
      <defs>
       <path id="mc32a13e5c5" d="M 0 0 
L -3.5 0 
" style="stroke: #000000; stroke-width: 0.8"/>
      </defs>
      <g>
       <use xlink:href="#mc32a13e5c5" x="63" y="448.56" style="stroke: #000000; stroke-width: 0.8"/>
      </g>
     </g>
     <g id="text_9">
      <text style="font-size: 16px; font-family: 'Arial', sans-serif; text-anchor: end" x="56" y="454.638125" transform="rotate(-0 56 454.638125)">0.000</text>
     </g>
    </g>
    <g id="ytick_2">
     <g id="line2d_9">
      <g>
       <use xlink:href="#mc32a13e5c5" x="63" y="398.515382" style="stroke: #000000; stroke-width: 0.8"/>
      </g>
     </g>
     <g id="text_10">
      <text style="font-size: 16px; font-family: 'Arial', sans-serif; text-anchor: end" x="56" y="404.593507" transform="rotate(-0 56 404.593507)">0.005</text>
     </g>
    </g>
    <g id="ytick_3">
     <g id="line2d_10">
      <g>
       <use xlink:href="#mc32a13e5c5" x="63" y="348.470764" style="stroke: #000000; stroke-width: 0.8"/>
      </g>
     </g>
     <g id="text_11">
      <text style="font-size: 16px; font-family: 'Arial', sans-serif; text-anchor: end" x="56" y="354.548889" transform="rotate(-0 56 354.548889)">0.010</text>
     </g>
    </g>
    <g id="ytick_4">
     <g id="line2d_11">
      <g>
       <use xlink:href="#mc32a13e5c5" x="63" y="298.426146" style="stroke: #000000; stroke-width: 0.8"/>
      </g>
     </g>
     <g id="text_12">
      <text style="font-size: 16px; font-family: 'Arial', sans-serif; text-anchor: end" x="56" y="304.504271" transform="rotate(-0 56 304.504271)">0.015</text>
     </g>
    </g>
    <g id="ytick_5">
     <g id="line2d_12">
      <g>
       <use xlink:href="#mc32a13e5c5" x="63" y="248.381528" style="stroke: #000000; stroke-width: 0.8"/>
      </g>
     </g>
     <g id="text_13">
      <text style="font-size: 16px; font-family: 'Arial', sans-serif; text-anchor: end" x="56" y="254.459653" transform="rotate(-0 56 254.459653)">0.020</text>
     </g>
    </g>
    <g id="ytick_6">
     <g id="line2d_13">
      <g>
       <use xlink:href="#mc32a13e5c5" x="63" y="198.33691" style="stroke: #000000; stroke-width: 0.8"/>
      </g>
     </g>
     <g id="text_14">
      <text style="font-size: 16px; font-family: 'Arial', sans-serif; text-anchor: end" x="56" y="204.415035" transform="rotate(-0 56 204.415035)">0.025</text>
     </g>
    </g>
    <g id="ytick_7">
     <g id="line2d_14">
      <g>
       <use xlink:href="#mc32a13e5c5" x="63" y="148.292292" style="stroke: #000000; stroke-width: 0.8"/>
      </g>
     </g>
     <g id="text_15">
      <text style="font-size: 16px; font-family: 'Arial', sans-serif; text-anchor: end" x="56" y="154.370417" transform="rotate(-0 56 154.370417)">0.030</text>
     </g>
    </g>
    <g id="ytick_8">
     <g id="line2d_15">
      <g>
       <use xlink:href="#mc32a13e5c5" x="63" y="98.247675" style="stroke: #000000; stroke-width: 0.8"/>
      </g>
     </g>
     <g id="text_16">
      <text style="font-size: 16px; font-family: 'Arial', sans-serif; text-anchor: end" x="56" y="104.3258" transform="rotate(-0 56 104.3258)">0.035</text>
     </g>
    </g>
    <g id="text_17">
     <text style="font-size: 16px; font-family: 'Arial', sans-serif; text-anchor: middle" x="2.35125" y="254.52" transform="rotate(-90 2.35125 254.52)">Probability</text>
    </g>
   </g>
   <g id="patch_104">
    <path d="M 63 448.56 
L 63 60.48 
" style="fill: none; stroke: #000000; stroke-width: 0.8; stroke-linejoin: miter; stroke-linecap: square"/>
   </g>
   <g id="patch_105">
    <path d="M 63 448.56 
L 453.6 448.56 
" style="fill: none; stroke: #000000; stroke-width: 0.8; stroke-linejoin: miter; stroke-linecap: square"/>
   </g>
  </g>
 </g>
 <defs>
  <clipPath id="p19ae51dd76">
   <rect x="63" y="60.48" width="390.6" height="388.08"/>
  </clipPath>
 </defs>
</svg>
