<?xml version="1.0" encoding="utf-8" standalone="no"?>
<!DOCTYPE svg PUBLIC "-//W3C//DTD SVG 1.1//EN"
  "http://www.w3.org/Graphics/SVG/1.1/DTD/svg11.dtd">
<svg xmlns:xlink="http://www.w3.org/1999/xlink" width="504pt" height="504pt" viewBox="0 0 504 504" xmlns="http://www.w3.org/2000/svg" version="1.1">
 <metadata>
  <rdf:RDF xmlns:dc="http://purl.org/dc/elements/1.1/" xmlns:cc="http://creativecommons.org/ns#" xmlns:rdf="http://www.w3.org/1999/02/22-rdf-syntax-ns#">
   <cc:Work>
    <dc:type rdf:resource="http://purl.org/dc/dcmitype/StillImage"/>
    <dc:date>2026-07-21T19:56:54.654720</dc:date>
    <dc:format>image/svg+xml</dc:format>
    <dc:creator>
     <cc:Agent>
      <dc:title>Matplotlib v3.11.0, https://matplotlib.org/</dc:title>
     </cc:Agent>
    </dc:creator>
   </cc:Work>
  </rdf:RDF>
 </metadata>
 <defs>
  <style type="text/css">*{stroke-linejoin: round; stroke-linecap: butt}</style>
 </defs>
 <g id="figure_1">
  <g id="patch_1">
   <path d="M 0 504 
L 504 504 
L 504 0 
L 0 0 
L 0 504 
z
" style="fill: none"/>
  </g>
  <g id="axes_1">
   <g id="patch_2">
    <path d="M 63 448.56 
L 453.6 448.56 
L 453.6 60.48 
L 63 60.48 
L 63 448.56 
z
" style="fill: none"/>
   </g>
   <g id="patch_3">
    <path d="M 62.168936 448.56 
L 63.831064 448.56 
L 63.831064 420.129231 
L 62.168936 420.129231 
z
" clip-path="url(#p3341829fd8)" style="fill: #7f7f7f; opacity: 0.5"/>
   </g>
   <g id="patch_4">
    <path d="M 64.246596 448.56 
L 65.908723 448.56 
L 65.908723 420.129231 
L 64.246596 420.129231 
z
" clip-path="url(#p3341829fd8)" style="fill: #7f7f7f; opacity: 0.5"/>
   </g>
   <g id="patch_5">
    <path d="M 66.324255 448.56 
L 67.986383 448.56 
L 67.986383 420.129231 
L 66.324255 420.129231 
z
" clip-path="url(#p3341829fd8)" style="fill: #7f7f7f; opacity: 0.5"/>
   </g>
   <g id="patch_6">
    <path d="M 68.401915 448.56 
L 70.064043 448.56 
L 70.064043 448.56 
L 68.401915 448.56 
z
" clip-path="url(#p3341829fd8)" style="fill: #7f7f7f; opacity: 0.5"/>
   </g>
   <g id="patch_7">
    <path d="M 70.479574 448.56 
L 72.141702 448.56 
L 72.141702 448.56 
L 70.479574 448.56 
z
" clip-path="url(#p3341829fd8)" style="fill: #7f7f7f; opacity: 0.5"/>
   </g>
   <g id="patch_8">
    <path d="M 72.557234 448.56 
L 74.219362 448.56 
L 74.219362 448.56 
L 72.557234 448.56 
z
" clip-path="url(#p3341829fd8)" style="fill: #7f7f7f; opacity: 0.5"/>
   </g>
   <g id="patch_9">
    <path d="M 74.634894 448.56 
L 76.297021 448.56 
L 76.297021 448.56 
L 74.634894 448.56 
z
" clip-path="url(#p3341829fd8)" style="fill: #7f7f7f; opacity: 0.5"/>
   </g>
   <g id="patch_10">
    <path d="M 76.712553 448.56 
L 78.374681 448.56 
L 78.374681 448.56 
L 76.712553 448.56 
z
" clip-path="url(#p3341829fd8)" style="fill: #7f7f7f; opacity: 0.5"/>
   </g>
   <g id="patch_11">
    <path d="M 78.790213 448.56 
L 80.45234 448.56 
L 80.45234 448.56 
L 78.790213 448.56 
z
" clip-path="url(#p3341829fd8)" style="fill: #7f7f7f; opacity: 0.5"/>
   </g>
   <g id="patch_12">
    <path d="M 80.867872 448.56 
L 82.53 448.56 
L 82.53 434.344615 
L 80.867872 434.344615 
z
" clip-path="url(#p3341829fd8)" style="fill: #7f7f7f; opacity: 0.5"/>
   </g>
   <g id="patch_13">
    <path d="M 82.945532 448.56 
L 84.60766 448.56 
L 84.60766 448.56 
L 82.945532 448.56 
z
" clip-path="url(#p3341829fd8)" style="fill: #7f7f7f; opacity: 0.5"/>
   </g>
   <g id="patch_14">
    <path d="M 85.023191 448.56 
L 86.685319 448.56 
L 86.685319 448.56 
L 85.023191 448.56 
z
" clip-path="url(#p3341829fd8)" style="fill: #7f7f7f; opacity: 0.5"/>
   </g>
   <g id="patch_15">
    <path d="M 87.100851 448.56 
L 88.762979 448.56 
L 88.762979 448.56 
L 87.100851 448.56 
z
" clip-path="url(#p3341829fd8)" style="fill: #7f7f7f; opacity: 0.5"/>
   </g>
   <g id="patch_16">
    <path d="M 89.178511 448.56 
L 90.840638 448.56 
L 90.840638 448.56 
L 89.178511 448.56 
z
" clip-path="url(#p3341829fd8)" style="fill: #7f7f7f; opacity: 0.5"/>
   </g>
   <g id="patch_17">
    <path d="M 91.25617 448.56 
L 92.918298 448.56 
L 92.918298 448.56 
L 91.25617 448.56 
z
" clip-path="url(#p3341829fd8)" style="fill: #7f7f7f; opacity: 0.5"/>
   </g>
   <g id="patch_18">
    <path d="M 93.33383 448.56 
L 94.995957 448.56 
L 94.995957 448.56 
L 93.33383 448.56 
z
" clip-path="url(#p3341829fd8)" style="fill: #7f7f7f; opacity: 0.5"/>
   </g>
   <g id="patch_19">
    <path d="M 95.411489 448.56 
L 97.073617 448.56 
L 97.073617 448.56 
L 95.411489 448.56 
z
" clip-path="url(#p3341829fd8)" style="fill: #7f7f7f; opacity: 0.5"/>
   </g>
   <g id="patch_20">
    <path d="M 97.489149 448.56 
L 99.151277 448.56 
L 99.151277 448.56 
L 97.489149 448.56 
z
" clip-path="url(#p3341829fd8)" style="fill: #7f7f7f; opacity: 0.5"/>
   </g>
   <g id="patch_21">
    <path d="M 99.566809 448.56 
L 101.228936 448.56 
L 101.228936 448.56 
L 99.566809 448.56 
z
" clip-path="url(#p3341829fd8)" style="fill: #7f7f7f; opacity: 0.5"/>
   </g>
   <g id="patch_22">
    <path d="M 101.644468 448.56 
L 103.306596 448.56 
L 103.306596 434.344615 
L 101.644468 434.344615 
z
" clip-path="url(#p3341829fd8)" style="fill: #7f7f7f; opacity: 0.5"/>
   </g>
   <g id="patch_23">
    <path d="M 103.722128 448.56 
L 105.384255 448.56 
L 105.384255 448.56 
L 103.722128 448.56 
z
" clip-path="url(#p3341829fd8)" style="fill: #7f7f7f; opacity: 0.5"/>
   </g>
   <g id="patch_24">
    <path d="M 105.799787 448.56 
L 107.461915 448.56 
L 107.461915 448.56 
L 105.799787 448.56 
z
" clip-path="url(#p3341829fd8)" style="fill: #7f7f7f; opacity: 0.5"/>
   </g>
   <g id="patch_25">
    <path d="M 107.877447 448.56 
L 109.539574 448.56 
L 109.539574 434.344615 
L 107.877447 434.344615 
z
" clip-path="url(#p3341829fd8)" style="fill: #7f7f7f; opacity: 0.5"/>
   </g>
   <g id="patch_26">
    <path d="M 109.955106 448.56 
L 111.617234 448.56 
L 111.617234 448.56 
L 109.955106 448.56 
z
" clip-path="url(#p3341829fd8)" style="fill: #7f7f7f; opacity: 0.5"/>
   </g>
   <g id="patch_27">
    <path d="M 112.032766 448.56 
L 113.694894 448.56 
L 113.694894 434.344615 
L 112.032766 434.344615 
z
" clip-path="url(#p3341829fd8)" style="fill: #7f7f7f; opacity: 0.5"/>
   </g>
   <g id="patch_28">
    <path d="M 114.110426 448.56 
L 115.772553 448.56 
L 115.772553 448.56 
L 114.110426 448.56 
z
" clip-path="url(#p3341829fd8)" style="fill: #7f7f7f; opacity: 0.5"/>
   </g>
   <g id="patch_29">
    <path d="M 116.188085 448.56 
L 117.850213 448.56 
L 117.850213 434.344615 
L 116.188085 434.344615 
z
" clip-path="url(#p3341829fd8)" style="fill: #7f7f7f; opacity: 0.5"/>
   </g>
   <g id="patch_30">
    <path d="M 118.265745 448.56 
L 119.927872 448.56 
L 119.927872 448.56 
L 118.265745 448.56 
z
" clip-path="url(#p3341829fd8)" style="fill: #7f7f7f; opacity: 0.5"/>
   </g>
   <g id="patch_31">
    <path d="M 120.343404 448.56 
L 122.005532 448.56 
L 122.005532 434.344615 
L 120.343404 434.344615 
z
" clip-path="url(#p3341829fd8)" style="fill: #7f7f7f; opacity: 0.5"/>
   </g>
   <g id="patch_32">
    <path d="M 122.421064 448.56 
L 124.083191 448.56 
L 124.083191 434.344615 
L 122.421064 434.344615 
z
" clip-path="url(#p3341829fd8)" style="fill: #7f7f7f; opacity: 0.5"/>
   </g>
   <g id="patch_33">
    <path d="M 124.498723 448.56 
L 126.160851 448.56 
L 126.160851 448.56 
L 124.498723 448.56 
z
" clip-path="url(#p3341829fd8)" style="fill: #7f7f7f; opacity: 0.5"/>
   </g>
   <g id="patch_34">
    <path d="M 126.576383 448.56 
L 128.238511 448.56 
L 128.238511 434.344615 
L 126.576383 434.344615 
z
" clip-path="url(#p3341829fd8)" style="fill: #7f7f7f; opacity: 0.5"/>
   </g>
   <g id="patch_35">
    <path d="M 128.654043 448.56 
L 130.31617 448.56 
L 130.31617 434.344615 
L 128.654043 434.344615 
z
" clip-path="url(#p3341829fd8)" style="fill: #7f7f7f; opacity: 0.5"/>
   </g>
   <g id="patch_36">
    <path d="M 130.731702 448.56 
L 132.39383 448.56 
L 132.39383 448.56 
L 130.731702 448.56 
z
" clip-path="url(#p3341829fd8)" style="fill: #7f7f7f; opacity: 0.5"/>
   </g>
   <g id="patch_37">
    <path d="M 132.809362 448.56 
L 134.471489 448.56 
L 134.471489 434.344615 
L 132.809362 434.344615 
z
" clip-path="url(#p3341829fd8)" style="fill: #7f7f7f; opacity: 0.5"/>
   </g>
   <g id="patch_38">
    <path d="M 134.887021 448.56 
L 136.549149 448.56 
L 136.549149 448.56 
L 134.887021 448.56 
z
" clip-path="url(#p3341829fd8)" style="fill: #7f7f7f; opacity: 0.5"/>
   </g>
   <g id="patch_39">
    <path d="M 136.964681 448.56 
L 138.626809 448.56 
L 138.626809 448.56 
L 136.964681 448.56 
z
" clip-path="url(#p3341829fd8)" style="fill: #7f7f7f; opacity: 0.5"/>
   </g>
   <g id="patch_40">
    <path d="M 139.04234 448.56 
L 140.704468 448.56 
L 140.704468 405.913846 
L 139.04234 405.913846 
z
" clip-path="url(#p3341829fd8)" style="fill: #7f7f7f; opacity: 0.5"/>
   </g>
   <g id="patch_41">
    <path d="M 141.12 448.56 
L 142.782128 448.56 
L 142.782128 420.129231 
L 141.12 420.129231 
z
" clip-path="url(#p3341829fd8)" style="fill: #7f7f7f; opacity: 0.5"/>
   </g>
   <g id="patch_42">
    <path d="M 143.19766 448.56 
L 144.859787 448.56 
L 144.859787 434.344615 
L 143.19766 434.344615 
z
" clip-path="url(#p3341829fd8)" style="fill: #7f7f7f; opacity: 0.5"/>
   </g>
   <g id="patch_43">
    <path d="M 145.275319 448.56 
L 146.937447 448.56 
L 146.937447 434.344615 
L 145.275319 434.344615 
z
" clip-path="url(#p3341829fd8)" style="fill: #7f7f7f; opacity: 0.5"/>
   </g>
   <g id="patch_44">
    <path d="M 147.352979 448.56 
L 149.015106 448.56 
L 149.015106 434.344615 
L 147.352979 434.344615 
z
" clip-path="url(#p3341829fd8)" style="fill: #7f7f7f; opacity: 0.5"/>
   </g>
   <g id="patch_45">
    <path d="M 149.430638 448.56 
L 151.092766 448.56 
L 151.092766 434.344615 
L 149.430638 434.344615 
z
" clip-path="url(#p3341829fd8)" style="fill: #7f7f7f; opacity: 0.5"/>
   </g>
   <g id="patch_46">
    <path d="M 151.508298 448.56 
L 153.170426 448.56 
L 153.170426 405.913846 
L 151.508298 405.913846 
z
" clip-path="url(#p3341829fd8)" style="fill: #7f7f7f; opacity: 0.5"/>
   </g>
   <g id="patch_47">
    <path d="M 153.585957 448.56 
L 155.248085 448.56 
L 155.248085 448.56 
L 153.585957 448.56 
z
" clip-path="url(#p3341829fd8)" style="fill: #7f7f7f; opacity: 0.5"/>
   </g>
   <g id="patch_48">
    <path d="M 155.663617 448.56 
L 157.325745 448.56 
L 157.325745 434.344615 
L 155.663617 434.344615 
z
" clip-path="url(#p3341829fd8)" style="fill: #7f7f7f; opacity: 0.5"/>
   </g>
   <g id="patch_49">
    <path d="M 157.741277 448.56 
L 159.403404 448.56 
L 159.403404 434.344615 
L 157.741277 434.344615 
z
" clip-path="url(#p3341829fd8)" style="fill: #7f7f7f; opacity: 0.5"/>
   </g>
   <g id="patch_50">
    <path d="M 159.818936 448.56 
L 161.481064 448.56 
L 161.481064 391.698462 
L 159.818936 391.698462 
z
" clip-path="url(#p3341829fd8)" style="fill: #7f7f7f; opacity: 0.5"/>
   </g>
   <g id="patch_51">
    <path d="M 161.896596 448.56 
L 163.558723 448.56 
L 163.558723 405.913846 
L 161.896596 405.913846 
z
" clip-path="url(#p3341829fd8)" style="fill: #7f7f7f; opacity: 0.5"/>
   </g>
   <g id="patch_52">
    <path d="M 163.974255 448.56 
L 165.636383 448.56 
L 165.636383 405.913846 
L 163.974255 405.913846 
z
" clip-path="url(#p3341829fd8)" style="fill: #7f7f7f; opacity: 0.5"/>
   </g>
   <g id="patch_53">
    <path d="M 166.051915 448.56 
L 167.714043 448.56 
L 167.714043 420.129231 
L 166.051915 420.129231 
z
" clip-path="url(#p3341829fd8)" style="fill: #7f7f7f; opacity: 0.5"/>
   </g>
   <g id="patch_54">
    <path d="M 168.129574 448.56 
L 169.791702 448.56 
L 169.791702 391.698462 
L 168.129574 391.698462 
z
" clip-path="url(#p3341829fd8)" style="fill: #7f7f7f; opacity: 0.5"/>
   </g>
   <g id="patch_55">
    <path d="M 170.207234 448.56 
L 171.869362 448.56 
L 171.869362 391.698462 
L 170.207234 391.698462 
z
" clip-path="url(#p3341829fd8)" style="fill: #7f7f7f; opacity: 0.5"/>
   </g>
   <g id="patch_56">
    <path d="M 172.284894 448.56 
L 173.947021 448.56 
L 173.947021 334.836923 
L 172.284894 334.836923 
z
" clip-path="url(#p3341829fd8)" style="fill: #7f7f7f; opacity: 0.5"/>
   </g>
   <g id="patch_57">
    <path d="M 174.362553 448.56 
L 176.024681 448.56 
L 176.024681 377.483077 
L 174.362553 377.483077 
z
" clip-path="url(#p3341829fd8)" style="fill: #7f7f7f; opacity: 0.5"/>
   </g>
   <g id="patch_58">
    <path d="M 176.440213 448.56 
L 178.10234 448.56 
L 178.10234 334.836923 
L 176.440213 334.836923 
z
" clip-path="url(#p3341829fd8)" style="fill: #7f7f7f; opacity: 0.5"/>
   </g>
   <g id="patch_59">
    <path d="M 178.517872 448.56 
L 180.18 448.56 
L 180.18 377.483077 
L 178.517872 377.483077 
z
" clip-path="url(#p3341829fd8)" style="fill: #7f7f7f; opacity: 0.5"/>
   </g>
   <g id="patch_60">
    <path d="M 180.595532 448.56 
L 182.25766 448.56 
L 182.25766 391.698462 
L 180.595532 391.698462 
z
" clip-path="url(#p3341829fd8)" style="fill: #7f7f7f; opacity: 0.5"/>
   </g>
   <g id="patch_61">
    <path d="M 182.673191 448.56 
L 184.335319 448.56 
L 184.335319 377.483077 
L 182.673191 377.483077 
z
" clip-path="url(#p3341829fd8)" style="fill: #7f7f7f; opacity: 0.5"/>
   </g>
   <g id="patch_62">
    <path d="M 184.750851 448.56 
L 186.412979 448.56 
L 186.412979 349.052308 
L 184.750851 349.052308 
z
" clip-path="url(#p3341829fd8)" style="fill: #7f7f7f; opacity: 0.5"/>
   </g>
   <g id="patch_63">
    <path d="M 186.828511 448.56 
L 188.490638 448.56 
L 188.490638 420.129231 
L 186.828511 420.129231 
z
" clip-path="url(#p3341829fd8)" style="fill: #7f7f7f; opacity: 0.5"/>
   </g>
   <g id="patch_64">
    <path d="M 188.90617 448.56 
L 190.568298 448.56 
L 190.568298 434.344615 
L 188.90617 434.344615 
z
" clip-path="url(#p3341829fd8)" style="fill: #7f7f7f; opacity: 0.5"/>
   </g>
   <g id="patch_65">
    <path d="M 190.98383 448.56 
L 192.645957 448.56 
L 192.645957 334.836923 
L 190.98383 334.836923 
z
" clip-path="url(#p3341829fd8)" style="fill: #7f7f7f; opacity: 0.5"/>
   </g>
   <g id="patch_66">
    <path d="M 193.061489 448.56 
L 194.723617 448.56 
L 194.723617 420.129231 
L 193.061489 420.129231 
z
" clip-path="url(#p3341829fd8)" style="fill: #7f7f7f; opacity: 0.5"/>
   </g>
   <g id="patch_67">
    <path d="M 195.139149 448.56 
L 196.801277 448.56 
L 196.801277 391.698462 
L 195.139149 391.698462 
z
" clip-path="url(#p3341829fd8)" style="fill: #7f7f7f; opacity: 0.5"/>
   </g>
   <g id="patch_68">
    <path d="M 197.216809 448.56 
L 198.878936 448.56 
L 198.878936 420.129231 
L 197.216809 420.129231 
z
" clip-path="url(#p3341829fd8)" style="fill: #7f7f7f; opacity: 0.5"/>
   </g>
   <g id="patch_69">
    <path d="M 199.294468 448.56 
L 200.956596 448.56 
L 200.956596 320.621538 
L 199.294468 320.621538 
z
" clip-path="url(#p3341829fd8)" style="fill: #7f7f7f; opacity: 0.5"/>
   </g>
   <g id="patch_70">
    <path d="M 201.372128 448.56 
L 203.034255 448.56 
L 203.034255 334.836923 
L 201.372128 334.836923 
z
" clip-path="url(#p3341829fd8)" style="fill: #7f7f7f; opacity: 0.5"/>
   </g>
   <g id="patch_71">
    <path d="M 203.449787 448.56 
L 205.111915 448.56 
L 205.111915 334.836923 
L 203.449787 334.836923 
z
" clip-path="url(#p3341829fd8)" style="fill: #7f7f7f; opacity: 0.5"/>
   </g>
   <g id="patch_72">
    <path d="M 205.527447 448.56 
L 207.189574 448.56 
L 207.189574 349.052308 
L 205.527447 349.052308 
z
" clip-path="url(#p3341829fd8)" style="fill: #7f7f7f; opacity: 0.5"/>
   </g>
   <g id="patch_73">
    <path d="M 207.605106 448.56 
L 209.267234 448.56 
L 209.267234 320.621538 
L 207.605106 320.621538 
z
" clip-path="url(#p3341829fd8)" style="fill: #7f7f7f; opacity: 0.5"/>
   </g>
   <g id="patch_74">
    <path d="M 209.682766 448.56 
L 211.344894 448.56 
L 211.344894 277.975385 
L 209.682766 277.975385 
z
" clip-path="url(#p3341829fd8)" style="fill: #7f7f7f; opacity: 0.5"/>
   </g>
   <g id="patch_75">
    <path d="M 211.760426 448.56 
L 213.422553 448.56 
L 213.422553 277.975385 
L 211.760426 277.975385 
z
" clip-path="url(#p3341829fd8)" style="fill: #7f7f7f; opacity: 0.5"/>
   </g>
   <g id="patch_76">
    <path d="M 213.838085 448.56 
L 215.500213 448.56 
L 215.500213 349.052308 
L 213.838085 349.052308 
z
" clip-path="url(#p3341829fd8)" style="fill: #7f7f7f; opacity: 0.5"/>
   </g>
   <g id="patch_77">
    <path d="M 215.915745 448.56 
L 217.577872 448.56 
L 217.577872 277.975385 
L 215.915745 277.975385 
z
" clip-path="url(#p3341829fd8)" style="fill: #7f7f7f; opacity: 0.5"/>
   </g>
   <g id="patch_78">
    <path d="M 217.993404 448.56 
L 219.655532 448.56 
L 219.655532 420.129231 
L 217.993404 420.129231 
z
" clip-path="url(#p3341829fd8)" style="fill: #7f7f7f; opacity: 0.5"/>
   </g>
   <g id="patch_79">
    <path d="M 220.071064 448.56 
L 221.733191 448.56 
L 221.733191 235.329231 
L 220.071064 235.329231 
z
" clip-path="url(#p3341829fd8)" style="fill: #7f7f7f; opacity: 0.5"/>
   </g>
   <g id="patch_80">
    <path d="M 222.148723 448.56 
L 223.810851 448.56 
L 223.810851 292.190769 
L 222.148723 292.190769 
z
" clip-path="url(#p3341829fd8)" style="fill: #7f7f7f; opacity: 0.5"/>
   </g>
   <g id="patch_81">
    <path d="M 224.226383 448.56 
L 225.888511 448.56 
L 225.888511 377.483077 
L 224.226383 377.483077 
z
" clip-path="url(#p3341829fd8)" style="fill: #7f7f7f; opacity: 0.5"/>
   </g>
   <g id="patch_82">
    <path d="M 226.304043 448.56 
L 227.96617 448.56 
L 227.96617 391.698462 
L 226.304043 391.698462 
z
" clip-path="url(#p3341829fd8)" style="fill: #7f7f7f; opacity: 0.5"/>
   </g>
   <g id="patch_83">
    <path d="M 228.381702 448.56 
L 230.04383 448.56 
L 230.04383 420.129231 
L 228.381702 420.129231 
z
" clip-path="url(#p3341829fd8)" style="fill: #7f7f7f; opacity: 0.5"/>
   </g>
   <g id="patch_84">
    <path d="M 230.459362 448.56 
L 232.121489 448.56 
L 232.121489 391.698462 
L 230.459362 391.698462 
z
" clip-path="url(#p3341829fd8)" style="fill: #7f7f7f; opacity: 0.5"/>
   </g>
   <g id="patch_85">
    <path d="M 232.537021 448.56 
L 234.199149 448.56 
L 234.199149 349.052308 
L 232.537021 349.052308 
z
" clip-path="url(#p3341829fd8)" style="fill: #7f7f7f; opacity: 0.5"/>
   </g>
   <g id="patch_86">
    <path d="M 234.614681 448.56 
L 236.276809 448.56 
L 236.276809 263.76 
L 234.614681 263.76 
z
" clip-path="url(#p3341829fd8)" style="fill: #7f7f7f; opacity: 0.5"/>
   </g>
   <g id="patch_87">
    <path d="M 236.69234 448.56 
L 238.354468 448.56 
L 238.354468 363.267692 
L 236.69234 363.267692 
z
" clip-path="url(#p3341829fd8)" style="fill: #7f7f7f; opacity: 0.5"/>
   </g>
   <g id="patch_88">
    <path d="M 238.77 448.56 
L 240.432128 448.56 
L 240.432128 334.836923 
L 238.77 334.836923 
z
" clip-path="url(#p3341829fd8)" style="fill: #7f7f7f; opacity: 0.5"/>
   </g>
   <g id="patch_89">
    <path d="M 240.84766 448.56 
L 242.509787 448.56 
L 242.509787 391.698462 
L 240.84766 391.698462 
z
" clip-path="url(#p3341829fd8)" style="fill: #7f7f7f; opacity: 0.5"/>
   </g>
   <g id="patch_90">
    <path d="M 242.925319 448.56 
L 244.587447 448.56 
L 244.587447 377.483077 
L 242.925319 377.483077 
z
" clip-path="url(#p3341829fd8)" style="fill: #7f7f7f; opacity: 0.5"/>
   </g>
   <g id="patch_91">
    <path d="M 245.002979 448.56 
L 246.665106 448.56 
L 246.665106 405.913846 
L 245.002979 405.913846 
z
" clip-path="url(#p3341829fd8)" style="fill: #7f7f7f; opacity: 0.5"/>
   </g>
   <g id="patch_92">
    <path d="M 247.080638 448.56 
L 248.742766 448.56 
L 248.742766 420.129231 
L 247.080638 420.129231 
z
" clip-path="url(#p3341829fd8)" style="fill: #7f7f7f; opacity: 0.5"/>
   </g>
   <g id="patch_93">
    <path d="M 249.158298 448.56 
L 250.820426 448.56 
L 250.820426 420.129231 
L 249.158298 420.129231 
z
" clip-path="url(#p3341829fd8)" style="fill: #7f7f7f; opacity: 0.5"/>
   </g>
   <g id="patch_94">
    <path d="M 251.235957 448.56 
L 252.898085 448.56 
L 252.898085 448.56 
L 251.235957 448.56 
z
" clip-path="url(#p3341829fd8)" style="fill: #7f7f7f; opacity: 0.5"/>
   </g>
   <g id="patch_95">
    <path d="M 253.313617 448.56 
L 254.975745 448.56 
L 254.975745 434.344615 
L 253.313617 434.344615 
z
" clip-path="url(#p3341829fd8)" style="fill: #7f7f7f; opacity: 0.5"/>
   </g>
   <g id="patch_96">
    <path d="M 255.391277 448.56 
L 257.053404 448.56 
L 257.053404 420.129231 
L 255.391277 420.129231 
z
" clip-path="url(#p3341829fd8)" style="fill: #7f7f7f; opacity: 0.5"/>
   </g>
   <g id="patch_97">
    <path d="M 257.468936 448.56 
L 259.131064 448.56 
L 259.131064 405.913846 
L 257.468936 405.913846 
z
" clip-path="url(#p3341829fd8)" style="fill: #7f7f7f; opacity: 0.5"/>
   </g>
   <g id="patch_98">
    <path d="M 259.546596 448.56 
L 261.208723 448.56 
L 261.208723 434.344615 
L 259.546596 434.344615 
z
" clip-path="url(#p3341829fd8)" style="fill: #7f7f7f; opacity: 0.5"/>
   </g>
   <g id="patch_99">
    <path d="M 261.624255 448.56 
L 263.286383 448.56 
L 263.286383 405.913846 
L 261.624255 405.913846 
z
" clip-path="url(#p3341829fd8)" style="fill: #7f7f7f; opacity: 0.5"/>
   </g>
   <g id="patch_100">
    <path d="M 263.701915 448.56 
L 265.364043 448.56 
L 265.364043 420.129231 
L 263.701915 420.129231 
z
" clip-path="url(#p3341829fd8)" style="fill: #7f7f7f; opacity: 0.5"/>
   </g>
   <g id="patch_101">
    <path d="M 265.779574 448.56 
L 267.441702 448.56 
L 267.441702 448.56 
L 265.779574 448.56 
z
" clip-path="url(#p3341829fd8)" style="fill: #7f7f7f; opacity: 0.5"/>
   </g>
   <g id="patch_102">
    <path d="M 267.857234 448.56 
L 269.519362 448.56 
L 269.519362 448.56 
L 267.857234 448.56 
z
" clip-path="url(#p3341829fd8)" style="fill: #7f7f7f; opacity: 0.5"/>
   </g>
   <g id="patch_103">
    <path d="M 269.934894 448.56 
L 271.597021 448.56 
L 271.597021 434.344615 
L 269.934894 434.344615 
z
" clip-path="url(#p3341829fd8)" style="fill: #7f7f7f; opacity: 0.5"/>
   </g>
   <g id="patch_104">
    <path d="M 272.012553 448.56 
L 273.674681 448.56 
L 273.674681 420.129231 
L 272.012553 420.129231 
z
" clip-path="url(#p3341829fd8)" style="fill: #7f7f7f; opacity: 0.5"/>
   </g>
   <g id="patch_105">
    <path d="M 274.090213 448.56 
L 275.75234 448.56 
L 275.75234 434.344615 
L 274.090213 434.344615 
z
" clip-path="url(#p3341829fd8)" style="fill: #7f7f7f; opacity: 0.5"/>
   </g>
   <g id="patch_106">
    <path d="M 276.167872 448.56 
L 277.83 448.56 
L 277.83 448.56 
L 276.167872 448.56 
z
" clip-path="url(#p3341829fd8)" style="fill: #7f7f7f; opacity: 0.5"/>
   </g>
   <g id="patch_107">
    <path d="M 278.245532 448.56 
L 279.90766 448.56 
L 279.90766 434.344615 
L 278.245532 434.344615 
z
" clip-path="url(#p3341829fd8)" style="fill: #7f7f7f; opacity: 0.5"/>
   </g>
   <g id="patch_108">
    <path d="M 280.323191 448.56 
L 281.985319 448.56 
L 281.985319 448.56 
L 280.323191 448.56 
z
" clip-path="url(#p3341829fd8)" style="fill: #7f7f7f; opacity: 0.5"/>
   </g>
   <g id="patch_109">
    <path d="M 282.400851 448.56 
L 284.062979 448.56 
L 284.062979 434.344615 
L 282.400851 434.344615 
z
" clip-path="url(#p3341829fd8)" style="fill: #7f7f7f; opacity: 0.5"/>
   </g>
   <g id="patch_110">
    <path d="M 284.478511 448.56 
L 286.140638 448.56 
L 286.140638 448.56 
L 284.478511 448.56 
z
" clip-path="url(#p3341829fd8)" style="fill: #7f7f7f; opacity: 0.5"/>
   </g>
   <g id="patch_111">
    <path d="M 286.55617 448.56 
L 288.218298 448.56 
L 288.218298 448.56 
L 286.55617 448.56 
z
" clip-path="url(#p3341829fd8)" style="fill: #7f7f7f; opacity: 0.5"/>
   </g>
   <g id="patch_112">
    <path d="M 288.63383 448.56 
L 290.295957 448.56 
L 290.295957 448.56 
L 288.63383 448.56 
z
" clip-path="url(#p3341829fd8)" style="fill: #7f7f7f; opacity: 0.5"/>
   </g>
   <g id="patch_113">
    <path d="M 290.711489 448.56 
L 292.373617 448.56 
L 292.373617 434.344615 
L 290.711489 434.344615 
z
" clip-path="url(#p3341829fd8)" style="fill: #7f7f7f; opacity: 0.5"/>
   </g>
   <g id="patch_114">
    <path d="M 292.789149 448.56 
L 294.451277 448.56 
L 294.451277 434.344615 
L 292.789149 434.344615 
z
" clip-path="url(#p3341829fd8)" style="fill: #7f7f7f; opacity: 0.5"/>
   </g>
   <g id="patch_115">
    <path d="M 294.866809 448.56 
L 296.528936 448.56 
L 296.528936 448.56 
L 294.866809 448.56 
z
" clip-path="url(#p3341829fd8)" style="fill: #7f7f7f; opacity: 0.5"/>
   </g>
   <g id="patch_116">
    <path d="M 296.944468 448.56 
L 298.606596 448.56 
L 298.606596 448.56 
L 296.944468 448.56 
z
" clip-path="url(#p3341829fd8)" style="fill: #7f7f7f; opacity: 0.5"/>
   </g>
   <g id="patch_117">
    <path d="M 299.022128 448.56 
L 300.684255 448.56 
L 300.684255 448.56 
L 299.022128 448.56 
z
" clip-path="url(#p3341829fd8)" style="fill: #7f7f7f; opacity: 0.5"/>
   </g>
   <g id="patch_118">
    <path d="M 301.099787 448.56 
L 302.761915 448.56 
L 302.761915 434.344615 
L 301.099787 434.344615 
z
" clip-path="url(#p3341829fd8)" style="fill: #7f7f7f; opacity: 0.5"/>
   </g>
   <g id="patch_119">
    <path d="M 303.177447 448.56 
L 304.839574 448.56 
L 304.839574 448.56 
L 303.177447 448.56 
z
" clip-path="url(#p3341829fd8)" style="fill: #7f7f7f; opacity: 0.5"/>
   </g>
   <g id="patch_120">
    <path d="M 305.255106 448.56 
L 306.917234 448.56 
L 306.917234 448.56 
L 305.255106 448.56 
z
" clip-path="url(#p3341829fd8)" style="fill: #7f7f7f; opacity: 0.5"/>
   </g>
   <g id="patch_121">
    <path d="M 307.332766 448.56 
L 308.994894 448.56 
L 308.994894 448.56 
L 307.332766 448.56 
z
" clip-path="url(#p3341829fd8)" style="fill: #7f7f7f; opacity: 0.5"/>
   </g>
   <g id="patch_122">
    <path d="M 309.410426 448.56 
L 311.072553 448.56 
L 311.072553 448.56 
L 309.410426 448.56 
z
" clip-path="url(#p3341829fd8)" style="fill: #7f7f7f; opacity: 0.5"/>
   </g>
   <g id="patch_123">
    <path d="M 311.488085 448.56 
L 313.150213 448.56 
L 313.150213 448.56 
L 311.488085 448.56 
z
" clip-path="url(#p3341829fd8)" style="fill: #7f7f7f; opacity: 0.5"/>
   </g>
   <g id="patch_124">
    <path d="M 313.565745 448.56 
L 315.227872 448.56 
L 315.227872 448.56 
L 313.565745 448.56 
z
" clip-path="url(#p3341829fd8)" style="fill: #7f7f7f; opacity: 0.5"/>
   </g>
   <g id="patch_125">
    <path d="M 315.643404 448.56 
L 317.305532 448.56 
L 317.305532 448.56 
L 315.643404 448.56 
z
" clip-path="url(#p3341829fd8)" style="fill: #7f7f7f; opacity: 0.5"/>
   </g>
   <g id="patch_126">
    <path d="M 317.721064 448.56 
L 319.383191 448.56 
L 319.383191 448.56 
L 317.721064 448.56 
z
" clip-path="url(#p3341829fd8)" style="fill: #7f7f7f; opacity: 0.5"/>
   </g>
   <g id="patch_127">
    <path d="M 319.798723 448.56 
L 321.460851 448.56 
L 321.460851 448.56 
L 319.798723 448.56 
z
" clip-path="url(#p3341829fd8)" style="fill: #7f7f7f; opacity: 0.5"/>
   </g>
   <g id="patch_128">
    <path d="M 321.876383 448.56 
L 323.538511 448.56 
L 323.538511 434.344615 
L 321.876383 434.344615 
z
" clip-path="url(#p3341829fd8)" style="fill: #7f7f7f; opacity: 0.5"/>
   </g>
   <g id="patch_129">
    <path d="M 323.954043 448.56 
L 325.61617 448.56 
L 325.61617 448.56 
L 323.954043 448.56 
z
" clip-path="url(#p3341829fd8)" style="fill: #7f7f7f; opacity: 0.5"/>
   </g>
   <g id="patch_130">
    <path d="M 326.031702 448.56 
L 327.69383 448.56 
L 327.69383 448.56 
L 326.031702 448.56 
z
" clip-path="url(#p3341829fd8)" style="fill: #7f7f7f; opacity: 0.5"/>
   </g>
   <g id="patch_131">
    <path d="M 328.109362 448.56 
L 329.771489 448.56 
L 329.771489 448.56 
L 328.109362 448.56 
z
" clip-path="url(#p3341829fd8)" style="fill: #7f7f7f; opacity: 0.5"/>
   </g>
   <g id="patch_132">
    <path d="M 330.187021 448.56 
L 331.849149 448.56 
L 331.849149 448.56 
L 330.187021 448.56 
z
" clip-path="url(#p3341829fd8)" style="fill: #7f7f7f; opacity: 0.5"/>
   </g>
   <g id="patch_133">
    <path d="M 332.264681 448.56 
L 333.926809 448.56 
L 333.926809 448.56 
L 332.264681 448.56 
z
" clip-path="url(#p3341829fd8)" style="fill: #7f7f7f; opacity: 0.5"/>
   </g>
   <g id="patch_134">
    <path d="M 334.34234 448.56 
L 336.004468 448.56 
L 336.004468 448.56 
L 334.34234 448.56 
z
" clip-path="url(#p3341829fd8)" style="fill: #7f7f7f; opacity: 0.5"/>
   </g>
   <g id="patch_135">
    <path d="M 336.42 448.56 
L 338.082128 448.56 
L 338.082128 434.344615 
L 336.42 434.344615 
z
" clip-path="url(#p3341829fd8)" style="fill: #7f7f7f; opacity: 0.5"/>
   </g>
   <g id="patch_136">
    <path d="M 338.49766 448.56 
L 340.159787 448.56 
L 340.159787 448.56 
L 338.49766 448.56 
z
" clip-path="url(#p3341829fd8)" style="fill: #7f7f7f; opacity: 0.5"/>
   </g>
   <g id="patch_137">
    <path d="M 340.575319 448.56 
L 342.237447 448.56 
L 342.237447 448.56 
L 340.575319 448.56 
z
" clip-path="url(#p3341829fd8)" style="fill: #7f7f7f; opacity: 0.5"/>
   </g>
   <g id="patch_138">
    <path d="M 342.652979 448.56 
L 344.315106 448.56 
L 344.315106 448.56 
L 342.652979 448.56 
z
" clip-path="url(#p3341829fd8)" style="fill: #7f7f7f; opacity: 0.5"/>
   </g>
   <g id="patch_139">
    <path d="M 344.730638 448.56 
L 346.392766 448.56 
L 346.392766 448.56 
L 344.730638 448.56 
z
" clip-path="url(#p3341829fd8)" style="fill: #7f7f7f; opacity: 0.5"/>
   </g>
   <g id="patch_140">
    <path d="M 346.808298 448.56 
L 348.470426 448.56 
L 348.470426 448.56 
L 346.808298 448.56 
z
" clip-path="url(#p3341829fd8)" style="fill: #7f7f7f; opacity: 0.5"/>
   </g>
   <g id="patch_141">
    <path d="M 348.885957 448.56 
L 350.548085 448.56 
L 350.548085 448.56 
L 348.885957 448.56 
z
" clip-path="url(#p3341829fd8)" style="fill: #7f7f7f; opacity: 0.5"/>
   </g>
   <g id="patch_142">
    <path d="M 350.963617 448.56 
L 352.625745 448.56 
L 352.625745 448.56 
L 350.963617 448.56 
z
" clip-path="url(#p3341829fd8)" style="fill: #7f7f7f; opacity: 0.5"/>
   </g>
   <g id="patch_143">
    <path d="M 353.041277 448.56 
L 354.703404 448.56 
L 354.703404 448.56 
L 353.041277 448.56 
z
" clip-path="url(#p3341829fd8)" style="fill: #7f7f7f; opacity: 0.5"/>
   </g>
   <g id="patch_144">
    <path d="M 355.118936 448.56 
L 356.781064 448.56 
L 356.781064 448.56 
L 355.118936 448.56 
z
" clip-path="url(#p3341829fd8)" style="fill: #7f7f7f; opacity: 0.5"/>
   </g>
   <g id="patch_145">
    <path d="M 357.196596 448.56 
L 358.858723 448.56 
L 358.858723 448.56 
L 357.196596 448.56 
z
" clip-path="url(#p3341829fd8)" style="fill: #7f7f7f; opacity: 0.5"/>
   </g>
   <g id="patch_146">
    <path d="M 359.274255 448.56 
L 360.936383 448.56 
L 360.936383 448.56 
L 359.274255 448.56 
z
" clip-path="url(#p3341829fd8)" style="fill: #7f7f7f; opacity: 0.5"/>
   </g>
   <g id="patch_147">
    <path d="M 361.351915 448.56 
L 363.014043 448.56 
L 363.014043 448.56 
L 361.351915 448.56 
z
" clip-path="url(#p3341829fd8)" style="fill: #7f7f7f; opacity: 0.5"/>
   </g>
   <g id="patch_148">
    <path d="M 363.429574 448.56 
L 365.091702 448.56 
L 365.091702 448.56 
L 363.429574 448.56 
z
" clip-path="url(#p3341829fd8)" style="fill: #7f7f7f; opacity: 0.5"/>
   </g>
   <g id="patch_149">
    <path d="M 365.507234 448.56 
L 367.169362 448.56 
L 367.169362 448.56 
L 365.507234 448.56 
z
" clip-path="url(#p3341829fd8)" style="fill: #7f7f7f; opacity: 0.5"/>
   </g>
   <g id="patch_150">
    <path d="M 367.584894 448.56 
L 369.247021 448.56 
L 369.247021 448.56 
L 367.584894 448.56 
z
" clip-path="url(#p3341829fd8)" style="fill: #7f7f7f; opacity: 0.5"/>
   </g>
   <g id="patch_151">
    <path d="M 369.662553 448.56 
L 371.324681 448.56 
L 371.324681 448.56 
L 369.662553 448.56 
z
" clip-path="url(#p3341829fd8)" style="fill: #7f7f7f; opacity: 0.5"/>
   </g>
   <g id="patch_152">
    <path d="M 371.740213 448.56 
L 373.40234 448.56 
L 373.40234 448.56 
L 371.740213 448.56 
z
" clip-path="url(#p3341829fd8)" style="fill: #7f7f7f; opacity: 0.5"/>
   </g>
   <g id="patch_153">
    <path d="M 373.817872 448.56 
L 375.48 448.56 
L 375.48 448.56 
L 373.817872 448.56 
z
" clip-path="url(#p3341829fd8)" style="fill: #7f7f7f; opacity: 0.5"/>
   </g>
   <g id="patch_154">
    <path d="M 375.895532 448.56 
L 377.55766 448.56 
L 377.55766 448.56 
L 375.895532 448.56 
z
" clip-path="url(#p3341829fd8)" style="fill: #7f7f7f; opacity: 0.5"/>
   </g>
   <g id="patch_155">
    <path d="M 377.973191 448.56 
L 379.635319 448.56 
L 379.635319 448.56 
L 377.973191 448.56 
z
" clip-path="url(#p3341829fd8)" style="fill: #7f7f7f; opacity: 0.5"/>
   </g>
   <g id="patch_156">
    <path d="M 380.050851 448.56 
L 381.712979 448.56 
L 381.712979 448.56 
L 380.050851 448.56 
z
" clip-path="url(#p3341829fd8)" style="fill: #7f7f7f; opacity: 0.5"/>
   </g>
   <g id="patch_157">
    <path d="M 382.128511 448.56 
L 383.790638 448.56 
L 383.790638 448.56 
L 382.128511 448.56 
z
" clip-path="url(#p3341829fd8)" style="fill: #7f7f7f; opacity: 0.5"/>
   </g>
   <g id="patch_158">
    <path d="M 384.20617 448.56 
L 385.868298 448.56 
L 385.868298 448.56 
L 384.20617 448.56 
z
" clip-path="url(#p3341829fd8)" style="fill: #7f7f7f; opacity: 0.5"/>
   </g>
   <g id="patch_159">
    <path d="M 386.28383 448.56 
L 387.945957 448.56 
L 387.945957 448.56 
L 386.28383 448.56 
z
" clip-path="url(#p3341829fd8)" style="fill: #7f7f7f; opacity: 0.5"/>
   </g>
   <g id="patch_160">
    <path d="M 388.361489 448.56 
L 390.023617 448.56 
L 390.023617 448.56 
L 388.361489 448.56 
z
" clip-path="url(#p3341829fd8)" style="fill: #7f7f7f; opacity: 0.5"/>
   </g>
   <g id="patch_161">
    <path d="M 390.439149 448.56 
L 392.101277 448.56 
L 392.101277 448.56 
L 390.439149 448.56 
z
" clip-path="url(#p3341829fd8)" style="fill: #7f7f7f; opacity: 0.5"/>
   </g>
   <g id="patch_162">
    <path d="M 392.516809 448.56 
L 394.178936 448.56 
L 394.178936 448.56 
L 392.516809 448.56 
z
" clip-path="url(#p3341829fd8)" style="fill: #7f7f7f; opacity: 0.5"/>
   </g>
   <g id="patch_163">
    <path d="M 394.594468 448.56 
L 396.256596 448.56 
L 396.256596 448.56 
L 394.594468 448.56 
z
" clip-path="url(#p3341829fd8)" style="fill: #7f7f7f; opacity: 0.5"/>
   </g>
   <g id="patch_164">
    <path d="M 396.672128 448.56 
L 398.334255 448.56 
L 398.334255 448.56 
L 396.672128 448.56 
z
" clip-path="url(#p3341829fd8)" style="fill: #7f7f7f; opacity: 0.5"/>
   </g>
   <g id="patch_165">
    <path d="M 398.749787 448.56 
L 400.411915 448.56 
L 400.411915 448.56 
L 398.749787 448.56 
z
" clip-path="url(#p3341829fd8)" style="fill: #7f7f7f; opacity: 0.5"/>
   </g>
   <g id="patch_166">
    <path d="M 400.827447 448.56 
L 402.489574 448.56 
L 402.489574 448.56 
L 400.827447 448.56 
z
" clip-path="url(#p3341829fd8)" style="fill: #7f7f7f; opacity: 0.5"/>
   </g>
   <g id="patch_167">
    <path d="M 402.905106 448.56 
L 404.567234 448.56 
L 404.567234 448.56 
L 402.905106 448.56 
z
" clip-path="url(#p3341829fd8)" style="fill: #7f7f7f; opacity: 0.5"/>
   </g>
   <g id="patch_168">
    <path d="M 404.982766 448.56 
L 406.644894 448.56 
L 406.644894 448.56 
L 404.982766 448.56 
z
" clip-path="url(#p3341829fd8)" style="fill: #7f7f7f; opacity: 0.5"/>
   </g>
   <g id="patch_169">
    <path d="M 407.060426 448.56 
L 408.722553 448.56 
L 408.722553 448.56 
L 407.060426 448.56 
z
" clip-path="url(#p3341829fd8)" style="fill: #7f7f7f; opacity: 0.5"/>
   </g>
   <g id="patch_170">
    <path d="M 409.138085 448.56 
L 410.800213 448.56 
L 410.800213 448.56 
L 409.138085 448.56 
z
" clip-path="url(#p3341829fd8)" style="fill: #7f7f7f; opacity: 0.5"/>
   </g>
   <g id="patch_171">
    <path d="M 411.215745 448.56 
L 412.877872 448.56 
L 412.877872 448.56 
L 411.215745 448.56 
z
" clip-path="url(#p3341829fd8)" style="fill: #7f7f7f; opacity: 0.5"/>
   </g>
   <g id="patch_172">
    <path d="M 413.293404 448.56 
L 414.955532 448.56 
L 414.955532 448.56 
L 413.293404 448.56 
z
" clip-path="url(#p3341829fd8)" style="fill: #7f7f7f; opacity: 0.5"/>
   </g>
   <g id="patch_173">
    <path d="M 415.371064 448.56 
L 417.033191 448.56 
L 417.033191 448.56 
L 415.371064 448.56 
z
" clip-path="url(#p3341829fd8)" style="fill: #7f7f7f; opacity: 0.5"/>
   </g>
   <g id="patch_174">
    <path d="M 417.448723 448.56 
L 419.110851 448.56 
L 419.110851 448.56 
L 417.448723 448.56 
z
" clip-path="url(#p3341829fd8)" style="fill: #7f7f7f; opacity: 0.5"/>
   </g>
   <g id="patch_175">
    <path d="M 419.526383 448.56 
L 421.188511 448.56 
L 421.188511 448.56 
L 419.526383 448.56 
z
" clip-path="url(#p3341829fd8)" style="fill: #7f7f7f; opacity: 0.5"/>
   </g>
   <g id="patch_176">
    <path d="M 421.604043 448.56 
L 423.26617 448.56 
L 423.26617 448.56 
L 421.604043 448.56 
z
" clip-path="url(#p3341829fd8)" style="fill: #7f7f7f; opacity: 0.5"/>
   </g>
   <g id="patch_177">
    <path d="M 423.681702 448.56 
L 425.34383 448.56 
L 425.34383 448.56 
L 423.681702 448.56 
z
" clip-path="url(#p3341829fd8)" style="fill: #7f7f7f; opacity: 0.5"/>
   </g>
   <g id="patch_178">
    <path d="M 425.759362 448.56 
L 427.421489 448.56 
L 427.421489 448.56 
L 425.759362 448.56 
z
" clip-path="url(#p3341829fd8)" style="fill: #7f7f7f; opacity: 0.5"/>
   </g>
   <g id="patch_179">
    <path d="M 427.837021 448.56 
L 429.499149 448.56 
L 429.499149 448.56 
L 427.837021 448.56 
z
" clip-path="url(#p3341829fd8)" style="fill: #7f7f7f; opacity: 0.5"/>
   </g>
   <g id="patch_180">
    <path d="M 429.914681 448.56 
L 431.576809 448.56 
L 431.576809 448.56 
L 429.914681 448.56 
z
" clip-path="url(#p3341829fd8)" style="fill: #7f7f7f; opacity: 0.5"/>
   </g>
   <g id="patch_181">
    <path d="M 431.99234 448.56 
L 433.654468 448.56 
L 433.654468 448.56 
L 431.99234 448.56 
z
" clip-path="url(#p3341829fd8)" style="fill: #7f7f7f; opacity: 0.5"/>
   </g>
   <g id="patch_182">
    <path d="M 434.07 448.56 
L 435.732128 448.56 
L 435.732128 448.56 
L 434.07 448.56 
z
" clip-path="url(#p3341829fd8)" style="fill: #7f7f7f; opacity: 0.5"/>
   </g>
   <g id="patch_183">
    <path d="M 436.14766 448.56 
L 437.809787 448.56 
L 437.809787 448.56 
L 436.14766 448.56 
z
" clip-path="url(#p3341829fd8)" style="fill: #7f7f7f; opacity: 0.5"/>
   </g>
   <g id="patch_184">
    <path d="M 438.225319 448.56 
L 439.887447 448.56 
L 439.887447 448.56 
L 438.225319 448.56 
z
" clip-path="url(#p3341829fd8)" style="fill: #7f7f7f; opacity: 0.5"/>
   </g>
   <g id="patch_185">
    <path d="M 440.302979 448.56 
L 441.965106 448.56 
L 441.965106 448.56 
L 440.302979 448.56 
z
" clip-path="url(#p3341829fd8)" style="fill: #7f7f7f; opacity: 0.5"/>
   </g>
   <g id="patch_186">
    <path d="M 442.380638 448.56 
L 444.042766 448.56 
L 444.042766 448.56 
L 442.380638 448.56 
z
" clip-path="url(#p3341829fd8)" style="fill: #7f7f7f; opacity: 0.5"/>
   </g>
   <g id="patch_187">
    <path d="M 444.458298 448.56 
L 446.120426 448.56 
L 446.120426 448.56 
L 444.458298 448.56 
z
" clip-path="url(#p3341829fd8)" style="fill: #7f7f7f; opacity: 0.5"/>
   </g>
   <g id="patch_188">
    <path d="M 446.535957 448.56 
L 448.198085 448.56 
L 448.198085 448.56 
L 446.535957 448.56 
z
" clip-path="url(#p3341829fd8)" style="fill: #7f7f7f; opacity: 0.5"/>
   </g>
   <g id="patch_189">
    <path d="M 448.613617 448.56 
L 450.275745 448.56 
L 450.275745 448.56 
L 448.613617 448.56 
z
" clip-path="url(#p3341829fd8)" style="fill: #7f7f7f; opacity: 0.5"/>
   </g>
   <g id="patch_190">
    <path d="M 450.691277 448.56 
L 452.353404 448.56 
L 452.353404 448.56 
L 450.691277 448.56 
z
" clip-path="url(#p3341829fd8)" style="fill: #7f7f7f; opacity: 0.5"/>
   </g>
   <g id="patch_191">
    <path d="M 452.768936 448.56 
L 454.431064 448.56 
L 454.431064 448.56 
L 452.768936 448.56 
z
" clip-path="url(#p3341829fd8)" style="fill: #7f7f7f; opacity: 0.5"/>
   </g>
   <g id="FillBetweenPolyCollection_1">
    <defs>
     <path id="m3e46d2b500" d="M 63 -83.870769 
L 63 -83.870769 
L 65.07766 -83.870769 
L 67.155319 -83.870769 
L 69.232979 -55.44 
L 71.310638 -55.44 
L 73.388298 -55.44 
L 75.465957 -55.44 
L 77.543617 -55.44 
L 79.621277 -55.44 
L 81.698936 -69.655385 
L 83.776596 -55.44 
L 85.854255 -55.44 
L 87.931915 -55.44 
L 90.009574 -55.44 
L 92.087234 -55.44 
L 94.164894 -55.44 
L 96.242553 -55.44 
L 98.320213 -55.44 
L 100.397872 -55.44 
L 102.475532 -69.655385 
L 104.553191 -55.44 
L 106.630851 -55.44 
L 108.708511 -69.655385 
L 110.78617 -55.44 
L 112.86383 -69.655385 
L 114.941489 -55.44 
L 117.019149 -69.655385 
L 119.096809 -55.44 
L 121.174468 -69.655385 
L 123.252128 -69.655385 
L 125.329787 -55.44 
L 127.407447 -69.655385 
L 129.485106 -69.655385 
L 131.562766 -55.44 
L 133.640426 -69.655385 
L 135.718085 -55.44 
L 137.795745 -55.44 
L 139.873404 -98.086154 
L 141.951064 -83.870769 
L 144.028723 -69.655385 
L 146.106383 -69.655385 
L 148.184043 -69.655385 
L 150.261702 -69.655385 
L 152.339362 -98.086154 
L 154.417021 -55.44 
L 156.494681 -69.655385 
L 158.57234 -69.655385 
L 160.65 -112.301538 
L 162.72766 -98.086154 
L 164.805319 -98.086154 
L 166.882979 -83.870769 
L 168.960638 -112.301538 
L 171.038298 -112.301538 
L 173.115957 -169.163077 
L 175.193617 -126.516923 
L 177.271277 -169.163077 
L 179.348936 -126.516923 
L 181.426596 -112.301538 
L 183.504255 -126.516923 
L 185.581915 -154.947692 
L 187.659574 -83.870769 
L 189.737234 -69.655385 
L 191.814894 -169.163077 
L 193.892553 -83.870769 
L 195.970213 -112.301538 
L 198.047872 -83.870769 
L 200.125532 -197.593846 
L 202.203191 -183.378462 
L 204.280851 -183.378462 
L 206.358511 -169.163077 
L 208.43617 -197.593846 
L 210.51383 -254.455385 
L 212.591489 -254.455385 
L 214.669149 -169.163077 
L 216.746809 -254.455385 
L 218.824468 -98.086154 
L 220.902128 -282.886154 
L 222.979787 -226.024615 
L 225.057447 -140.732308 
L 227.135106 -126.516923 
L 229.212766 -83.870769 
L 231.290426 -112.301538 
L 233.368085 -169.163077 
L 235.445745 -254.455385 
L 237.523404 -154.947692 
L 239.601064 -183.378462 
L 241.678723 -112.301538 
L 243.756383 -126.516923 
L 245.834043 -98.086154 
L 247.911702 -83.870769 
L 249.989362 -83.870769 
L 252.067021 -55.44 
L 254.144681 -69.655385 
L 256.22234 -83.870769 
L 258.3 -98.086154 
L 260.37766 -69.655385 
L 262.455319 -98.086154 
L 264.532979 -83.870769 
L 266.610638 -55.44 
L 268.688298 -55.44 
L 270.765957 -69.655385 
L 272.843617 -83.870769 
L 274.921277 -69.655385 
L 276.998936 -55.44 
L 279.076596 -69.655385 
L 281.154255 -55.44 
L 283.231915 -69.655385 
L 285.309574 -55.44 
L 287.387234 -55.44 
L 289.464894 -55.44 
L 291.542553 -69.655385 
L 293.620213 -69.655385 
L 295.697872 -55.44 
L 297.775532 -55.44 
L 299.853191 -55.44 
L 301.930851 -69.655385 
L 304.008511 -55.44 
L 306.08617 -55.44 
L 308.16383 -55.44 
L 310.241489 -55.44 
L 312.319149 -55.44 
L 314.396809 -55.44 
L 316.474468 -55.44 
L 318.552128 -55.44 
L 320.629787 -55.44 
L 322.707447 -69.655385 
L 324.785106 -55.44 
L 326.862766 -55.44 
L 328.940426 -55.44 
L 331.018085 -55.44 
L 333.095745 -55.44 
L 335.173404 -55.44 
L 337.251064 -69.655385 
L 339.328723 -55.44 
L 341.406383 -55.44 
L 343.484043 -55.44 
L 345.561702 -55.44 
L 347.639362 -55.44 
L 349.717021 -55.44 
L 351.794681 -55.44 
L 353.87234 -55.44 
L 355.95 -55.44 
L 358.02766 -55.44 
L 360.105319 -55.44 
L 362.182979 -55.44 
L 364.260638 -55.44 
L 366.338298 -55.44 
L 368.415957 -55.44 
L 370.493617 -55.44 
L 372.571277 -55.44 
L 374.648936 -55.44 
L 376.726596 -55.44 
L 378.804255 -55.44 
L 380.881915 -55.44 
L 382.959574 -55.44 
L 385.037234 -55.44 
L 387.114894 -55.44 
L 389.192553 -55.44 
L 391.270213 -55.44 
L 393.347872 -55.44 
L 395.425532 -55.44 
L 397.503191 -55.44 
L 399.580851 -55.44 
L 401.658511 -55.44 
L 403.73617 -55.44 
L 405.81383 -55.44 
L 407.891489 -55.44 
L 409.969149 -55.44 
L 412.046809 -55.44 
L 414.124468 -55.44 
L 416.202128 -55.44 
L 418.279787 -55.44 
L 420.357447 -55.44 
L 422.435106 -55.44 
L 424.512766 -55.44 
L 426.590426 -55.44 
L 428.668085 -55.44 
L 430.745745 -55.44 
L 432.823404 -55.44 
L 434.901064 -55.44 
L 436.978723 -55.44 
L 439.056383 -55.44 
L 441.134043 -55.44 
L 443.211702 -55.44 
L 445.289362 -55.44 
L 447.367021 -55.44 
L 449.444681 -55.44 
L 451.52234 -55.44 
L 453.6 -55.44 
L 453.6 -55.44 
L 453.6 -55.44 
L 451.52234 -55.44 
L 449.444681 -55.44 
L 447.367021 -55.44 
L 445.289362 -55.44 
L 443.211702 -55.44 
L 441.134043 -55.44 
L 439.056383 -55.44 
L 436.978723 -55.44 
L 434.901064 -55.44 
L 432.823404 -55.44 
L 430.745745 -55.44 
L 428.668085 -55.44 
L 426.590426 -55.44 
L 424.512766 -55.44 
L 422.435106 -55.44 
L 420.357447 -55.44 
L 418.279787 -55.44 
L 416.202128 -55.44 
L 414.124468 -55.44 
L 412.046809 -55.44 
L 409.969149 -55.44 
L 407.891489 -55.44 
L 405.81383 -55.44 
L 403.73617 -55.44 
L 401.658511 -55.44 
L 399.580851 -55.44 
L 397.503191 -55.44 
L 395.425532 -55.44 
L 393.347872 -55.44 
L 391.270213 -55.44 
L 389.192553 -55.44 
L 387.114894 -55.44 
L 385.037234 -55.44 
L 382.959574 -55.44 
L 380.881915 -55.44 
L 378.804255 -55.44 
L 376.726596 -55.44 
L 374.648936 -55.44 
L 372.571277 -55.44 
L 370.493617 -55.44 
L 368.415957 -55.44 
L 366.338298 -55.44 
L 364.260638 -55.44 
L 362.182979 -55.44 
L 360.105319 -55.44 
L 358.02766 -55.44 
L 355.95 -55.44 
L 353.87234 -55.44 
L 351.794681 -55.44 
L 349.717021 -55.44 
L 347.639362 -55.44 
L 345.561702 -55.44 
L 343.484043 -55.44 
L 341.406383 -55.44 
L 339.328723 -55.44 
L 337.251064 -69.655385 
L 335.173404 -55.44 
L 333.095745 -55.44 
L 331.018085 -55.44 
L 328.940426 -55.44 
L 326.862766 -69.655385 
L 324.785106 -69.655385 
L 322.707447 -83.870769 
L 320.629787 -69.655385 
L 318.552128 -69.655385 
L 316.474468 -69.655385 
L 314.396809 -69.655385 
L 312.319149 -69.655385 
L 310.241489 -69.655385 
L 308.16383 -69.655385 
L 306.08617 -69.655385 
L 304.008511 -69.655385 
L 301.930851 -83.870769 
L 299.853191 -69.655385 
L 297.775532 -69.655385 
L 295.697872 -69.655385 
L 293.620213 -83.870769 
L 291.542553 -83.870769 
L 289.464894 -69.655385 
L 287.387234 -83.870769 
L 285.309574 -83.870769 
L 283.231915 -98.086154 
L 281.154255 -83.870769 
L 279.076596 -98.086154 
L 276.998936 -83.870769 
L 274.921277 -98.086154 
L 272.843617 -126.516923 
L 270.765957 -112.301538 
L 268.688298 -98.086154 
L 266.610638 -98.086154 
L 264.532979 -126.516923 
L 262.455319 -154.947692 
L 260.37766 -126.516923 
L 258.3 -154.947692 
L 256.22234 -140.732308 
L 254.144681 -126.516923 
L 252.067021 -112.301538 
L 249.989362 -154.947692 
L 247.911702 -154.947692 
L 245.834043 -183.378462 
L 243.756383 -226.024615 
L 241.678723 -226.024615 
L 239.601064 -297.101538 
L 237.523404 -269.026154 
L 235.445745 -382.393846 
L 233.368085 -282.886154 
L 231.290426 -240.24 
L 229.212766 -197.593846 
L 227.135106 -240.24 
L 225.057447 -254.455385 
L 222.979787 -368.178462 
L 220.902128 -425.04 
L 218.824468 -240.24 
L 216.746809 -396.609231 
L 214.669149 -311.316923 
L 212.591489 -396.609231 
L 210.51383 -396.609231 
L 208.43617 -353.963077 
L 206.358511 -311.316923 
L 204.280851 -311.316923 
L 202.203191 -311.316923 
L 200.125532 -325.532308 
L 198.047872 -197.593846 
L 195.970213 -226.024615 
L 193.892553 -197.593846 
L 191.814894 -282.886154 
L 189.737234 -169.163077 
L 187.659574 -183.378462 
L 185.581915 -268.670769 
L 183.504255 -226.024615 
L 181.426596 -211.809231 
L 179.348936 -240.24 
L 177.271277 -268.670769 
L 175.193617 -226.024615 
L 173.115957 -268.670769 
L 171.038298 -197.593846 
L 168.960638 -197.593846 
L 166.882979 -154.947692 
L 164.805319 -169.163077 
L 162.72766 -169.163077 
L 160.65 -183.378462 
L 158.57234 -140.732308 
L 156.494681 -126.516923 
L 154.417021 -112.301538 
L 152.339362 -154.947692 
L 150.261702 -126.516923 
L 148.184043 -112.301538 
L 146.106383 -112.301538 
L 144.028723 -112.301538 
L 141.951064 -126.516923 
L 139.873404 -140.732308 
L 137.795745 -98.086154 
L 135.718085 -98.086154 
L 133.640426 -98.086154 
L 131.562766 -83.870769 
L 129.485106 -98.086154 
L 127.407447 -98.086154 
L 125.329787 -83.870769 
L 123.252128 -98.086154 
L 121.174468 -98.086154 
L 119.096809 -83.870769 
L 117.019149 -98.086154 
L 114.941489 -83.870769 
L 112.86383 -98.086154 
L 110.78617 -83.870769 
L 108.708511 -98.086154 
L 106.630851 -83.870769 
L 104.553191 -83.870769 
L 102.475532 -98.086154 
L 100.397872 -83.870769 
L 98.320213 -83.870769 
L 96.242553 -83.870769 
L 94.164894 -83.870769 
L 92.087234 -83.870769 
L 90.009574 -83.870769 
L 87.931915 -83.870769 
L 85.854255 -83.870769 
L 83.776596 -83.870769 
L 81.698936 -83.870769 
L 79.621277 -69.655385 
L 77.543617 -69.655385 
L 75.465957 -69.655385 
L 73.388298 -69.655385 
L 71.310638 -55.44 
L 69.232979 -55.44 
L 67.155319 -83.870769 
L 65.07766 -83.870769 
L 63 -83.870769 
z
" style="stroke: #0173b2; stroke-opacity: 0.3"/>
    </defs>
    <g clip-path="url(#p3341829fd8)">
     <use xlink:href="#m3e46d2b500" x="0" y="504" style="fill: #0173b2; fill-opacity: 0.3; stroke: #0173b2; stroke-opacity: 0.3"/>
    </g>
   </g>
   <g id="matplotlib.axis_1">
    <g id="xtick_1">
     <g id="line2d_1">
      <defs>
       <path id="md557975649" d="M 0 0 
L 0 3.5 
" style="stroke: #000000; stroke-width: 0.8"/>
      </defs>
      <g>
       <use xlink:href="#md557975649" x="73.388298" y="448.56" style="stroke: #000000; stroke-width: 0.8"/>
      </g>
     </g>
     <g id="text_1">
      <text style="font-size: 16px; font-family: 'Arial', sans-serif; text-anchor: middle" x="73.388298" y="467.7175" transform="rotate(-0 73.388298 467.7175)">1 Jul</text>
     </g>
    </g>
    <g id="xtick_2">
     <g id="line2d_2">
      <g>
       <use xlink:href="#md557975649" x="137.795745" y="448.56" style="stroke: #000000; stroke-width: 0.8"/>
      </g>
     </g>
     <g id="text_2">
      <text style="font-size: 16px; font-family: 'Arial', sans-serif; text-anchor: middle" x="137.795745" y="467.71625" transform="rotate(-0 137.795745 467.71625)">1 Aug</text>
     </g>
    </g>
    <g id="xtick_3">
     <g id="line2d_3">
      <g>
       <use xlink:href="#md557975649" x="202.203191" y="448.56" style="stroke: #000000; stroke-width: 0.8"/>
      </g>
     </g>
     <g id="text_3">
      <text style="font-size: 16px; font-family: 'Arial', sans-serif; text-anchor: middle" x="202.203191" y="467.71625" transform="rotate(-0 202.203191 467.71625)">1 Sep</text>
     </g>
    </g>
    <g id="xtick_4">
     <g id="line2d_4">
      <g>
       <use xlink:href="#md557975649" x="264.532979" y="448.56" style="stroke: #000000; stroke-width: 0.8"/>
      </g>
     </g>
     <g id="text_4">
      <text style="font-size: 16px; font-family: 'Arial', sans-serif; text-anchor: middle" x="264.532979" y="467.71625" transform="rotate(-0 264.532979 467.71625)">1 Oct</text>
     </g>
    </g>
    <g id="xtick_5">
     <g id="line2d_5">
      <g>
       <use xlink:href="#md557975649" x="328.940426" y="448.56" style="stroke: #000000; stroke-width: 0.8"/>
      </g>
     </g>
     <g id="text_5">
      <text style="font-size: 16px; font-family: 'Arial', sans-serif; text-anchor: middle" x="328.940426" y="467.71625" transform="rotate(-0 328.940426 467.71625)">1 Nov</text>
     </g>
    </g>
    <g id="xtick_6">
     <g id="line2d_6">
      <g>
       <use xlink:href="#md557975649" x="391.270213" y="448.56" style="stroke: #000000; stroke-width: 0.8"/>
      </g>
     </g>
     <g id="text_6">
      <text style="font-size: 16px; font-family: 'Arial', sans-serif; text-anchor: middle" x="391.270213" y="467.71625" transform="rotate(-0 391.270213 467.71625)">1 Dec</text>
     </g>
    </g>
    <g id="text_7">
     <text style="font-size: 16px; font-family: 'Arial', sans-serif; text-anchor: middle" x="258.3" y="487.7175" transform="rotate(-0 258.3 487.7175)">Date (2017)</text>
    </g>
   </g>
   <g id="matplotlib.axis_2">
    <g id="ytick_1">
     <g id="line2d_7">
      <defs>
       <path id="mca16cfcb4f" d="M 0 0 
L -3.5 0 
" style="stroke: #000000; stroke-width: 0.8"/>
      </defs>
      <g>
       <use xlink:href="#mca16cfcb4f" x="63" y="448.56" style="stroke: #000000; stroke-width: 0.8"/>
      </g>
     </g>
     <g id="text_8">
      <text style="font-size: 16px; font-family: 'Arial', sans-serif; text-anchor: end" x="56" y="454.638125" transform="rotate(-0 56 454.638125)">0</text>
     </g>
    </g>
    <g id="ytick_2">
     <g id="line2d_8">
      <g>
       <use xlink:href="#mca16cfcb4f" x="63" y="377.483077" style="stroke: #000000; stroke-width: 0.8"/>
      </g>
     </g>
     <g id="text_9">
      <text style="font-size: 16px; font-family: 'Arial', sans-serif; text-anchor: end" x="56" y="383.561202" transform="rotate(-0 56 383.561202)">5</text>
     </g>
    </g>
    <g id="ytick_3">
     <g id="line2d_9">
      <g>
       <use xlink:href="#mca16cfcb4f" x="63" y="306.406154" style="stroke: #000000; stroke-width: 0.8"/>
      </g>
     </g>
     <g id="text_10">
      <text style="font-size: 16px; font-family: 'Arial', sans-serif; text-anchor: end" x="56" y="312.484279" transform="rotate(-0 56 312.484279)">10</text>
     </g>
    </g>
    <g id="ytick_4">
     <g id="line2d_10">
      <g>
       <use xlink:href="#mca16cfcb4f" x="63" y="235.329231" style="stroke: #000000; stroke-width: 0.8"/>
      </g>
     </g>
     <g id="text_11">
      <text style="font-size: 16px; font-family: 'Arial', sans-serif; text-anchor: end" x="56" y="241.407356" transform="rotate(-0 56 241.407356)">15</text>
     </g>
    </g>
    <g id="ytick_5">
     <g id="line2d_11">
      <g>
       <use xlink:href="#mca16cfcb4f" x="63" y="164.252308" style="stroke: #000000; stroke-width: 0.8"/>
      </g>
     </g>
     <g id="text_12">
      <text style="font-size: 16px; font-family: 'Arial', sans-serif; text-anchor: end" x="56" y="170.330433" transform="rotate(-0 56 170.330433)">20</text>
     </g>
    </g>
    <g id="ytick_6">
     <g id="line2d_12">
      <g>
       <use xlink:href="#mca16cfcb4f" x="63" y="93.175385" style="stroke: #000000; stroke-width: 0.8"/>
      </g>
     </g>
     <g id="text_13">
      <text style="font-size: 16px; font-family: 'Arial', sans-serif; text-anchor: end" x="56" y="99.25351" transform="rotate(-0 56 99.25351)">25</text>
     </g>
    </g>
    <g id="text_14">
     <text style="font-size: 16px; font-family: 'Arial', sans-serif; text-anchor: middle" x="27.79625" y="254.52" transform="rotate(-90 27.79625 254.52)">Number of cases</text>
    </g>
   </g>
   <g id="line2d_13">
    <path d="M 63 420.129231 
L 67.155319 420.128342 
L 69.232979 448.519131 
L 71.310638 448.430729 
L 73.388298 448.137981 
L 75.465957 447.702635 
L 79.621277 445.922158 
L 81.698936 430.793435 
L 83.776596 444.564588 
L 85.854255 443.630371 
L 90.009574 443.621931 
L 92.087234 443.458898 
L 94.164894 443.83916 
L 98.320213 444.250073 
L 100.397872 444.697858 
L 102.475532 430.260802 
L 104.553191 444.899094 
L 106.630851 445.074121 
L 108.708511 430.790325 
L 110.78617 445.013262 
L 112.86383 430.749456 
L 114.941489 444.831571 
L 117.019149 430.38341 
L 119.096809 443.924452 
L 121.174468 429.323031 
L 123.252128 428.894792 
L 125.329787 442.524237 
L 127.407447 428.285308 
L 129.485106 427.92326 
L 131.562766 441.885433 
L 133.640426 427.118758 
L 135.718085 440.30486 
L 137.795745 439.679383 
L 139.873404 395.149246 
L 144.028723 421.342869 
L 146.106383 420.94084 
L 148.184043 420.271385 
L 150.261702 418.715244 
L 152.339362 388.801188 
L 154.417021 430.662387 
L 156.494681 414.873092 
L 158.57234 412.500456 
L 160.65 367.397706 
L 162.72766 379.977433 
L 164.805319 378.643852 
L 166.882979 391.304873 
L 168.960638 359.514387 
L 171.038298 355.17514 
L 173.115957 293.176962 
L 175.193617 333.533106 
L 177.271277 287.79866 
L 179.348936 330.398169 
L 181.426596 345.851181 
L 183.504255 330.47591 
L 185.581915 301.350363 
L 187.659574 375.524463 
L 189.737234 389.416004 
L 191.814894 285.367829 
L 193.892553 371.402446 
L 195.970213 340.734975 
L 198.047872 365.727398 
L 200.125532 256.779802 
L 202.203191 265.090027 
L 204.280851 262.149663 
L 206.358511 273.640581 
L 208.43617 238.065692 
L 210.51383 190.118088 
L 212.591489 189.491279 
L 214.669149 266.561763 
L 216.746809 194.455558 
L 218.824468 344.997369 
L 220.902128 151.203029 
L 222.979787 215.540527 
L 225.057447 313.8639 
L 227.135106 336.125192 
L 229.212766 367.650917 
L 231.290426 335.708504 
L 233.368085 287.563217 
L 235.445745 194.899788 
L 237.523404 300.869262 
L 239.601064 278.464927 
L 241.678723 344.250617 
L 243.756383 337.020762 
L 245.834043 372.4224 
L 247.911702 392.121369 
L 249.989362 396.276704 
L 252.067021 426.986821 
L 254.144681 414.066369 
L 258.3 386.260633 
L 260.37766 416.245321 
L 262.455319 388.855385 
L 264.532979 405.370108 
L 266.610638 436.060679 
L 268.688298 437.392483 
L 270.765957 424.615517 
L 272.843617 411.120675 
L 274.921277 426.959279 
L 276.998936 441.892096 
L 279.076596 428.795729 
L 281.154255 443.436687 
L 283.231915 430.088885 
L 285.309574 444.78315 
L 289.464894 445.4646 
L 291.542553 431.562842 
L 293.620213 431.470442 
L 295.697872 446.178923 
L 299.853191 446.672908 
L 301.930851 432.555698 
L 304.008511 447.029181 
L 308.16383 447.432987 
L 320.629787 447.92475 
L 322.707447 433.797767 
L 324.785106 448.086894 
L 328.940426 448.219719 
L 335.173404 448.344992 
L 337.251064 434.135827 
L 339.328723 448.358763 
L 349.717021 448.468488 
L 355.95 448.43295 
L 364.260638 448.49381 
L 370.493617 448.501806 
L 376.726596 448.543119 
L 453.6 448.56 
L 453.6 448.56 
" clip-path="url(#p3341829fd8)" style="fill: none; stroke: #0173b2; stroke-width: 2; stroke-linecap: square"/>
   </g>
   <g id="patch_192">
    <path d="M 63 448.56 
L 63 60.48 
" style="fill: none; stroke: #000000; stroke-width: 0.8; stroke-linejoin: miter; stroke-linecap: square"/>
   </g>
   <g id="patch_193">
    <path d="M 63 448.56 
L 453.6 448.56 
" style="fill: none; stroke: #000000; stroke-width: 0.8; stroke-linejoin: miter; stroke-linecap: square"/>
   </g>
   <g id="legend_1">
    <g id="patch_194">
     <path d="M 272.55375 133.28875 
L 443.8 133.28875 
Q 446.6 133.28875 446.6 130.48875 
L 446.6 70.28 
Q 446.6 67.48 443.8 67.48 
L 272.55375 67.48 
Q 269.75375 67.48 269.75375 70.28 
L 269.75375 130.48875 
Q 269.75375 133.28875 272.55375 133.28875 
z
" style="fill: #ffffff; opacity: 0.8; stroke: #cccccc; stroke-linejoin: miter"/>
    </g>
    <g id="line2d_14">
     <path d="M 275.35375 90.302734 
L 289.35375 90.302734 
L 303.35375 90.302734 
" style="fill: none; stroke: #0173b2; stroke-width: 2; stroke-linecap: square"/>
    </g>
    <g id="text_15">
     <text style="font-size: 14px; font-family: 'Arial', sans-serif" transform="translate(314.55375 85.11918)">Estimated true</text>
     <text style="font-size: 14px; font-family: 'Arial', sans-serif" transform="translate(314.55375 101.923008)">(suitability-based)</text>
    </g>
    <g id="patch_195">
     <path d="M 275.35375 124.325469 
L 303.35375 124.325469 
L 303.35375 114.525469 
L 275.35375 114.525469 
z
" style="fill: #7f7f7f; opacity: 0.5"/>
    </g>
    <g id="text_16">
     <text style="font-size: 14px; font-family: 'Arial', sans-serif; text-anchor: start" x="314.55375" y="124.325469" transform="rotate(-0 314.55375 124.325469)">Reported</text>
    </g>
   </g>
  </g>
 </g>
 <defs>
  <clipPath id="p3341829fd8">
   <rect x="63" y="60.48" width="390.6" height="388.08"/>
  </clipPath>
 </defs>
</svg>
