<?xml version="1.0" encoding="utf-8" standalone="no"?>
<!DOCTYPE svg PUBLIC "-//W3C//DTD SVG 1.1//EN"
  "http://www.w3.org/Graphics/SVG/1.1/DTD/svg11.dtd">
<svg xmlns:xlink="http://www.w3.org/1999/xlink" width="504pt" height="504pt" viewBox="0 0 504 504" xmlns="http://www.w3.org/2000/svg" version="1.1">
 <metadata>
  <rdf:RDF xmlns:dc="http://purl.org/dc/elements/1.1/" xmlns:cc="http://creativecommons.org/ns#" xmlns:rdf="http://www.w3.org/1999/02/22-rdf-syntax-ns#">
   <cc:Work>
    <dc:type rdf:resource="http://purl.org/dc/dcmitype/StillImage"/>
    <dc:date>2026-07-10T11:33:21.687197</dc:date>
    <dc:format>image/svg+xml</dc:format>
    <dc:creator>
     <cc:Agent>
      <dc:title>Matplotlib v3.11.0, https://matplotlib.org/</dc:title>
     </cc:Agent>
    </dc:creator>
   </cc:Work>
  </rdf:RDF>
 </metadata>
 <defs>
  <style type="text/css">*{stroke-linejoin: round; stroke-linecap: butt}</style>
 </defs>
 <g id="figure_1">
  <g id="patch_1">
   <path d="M 0 504 
L 504 504 
L 504 0 
L 0 0 
L 0 504 
z
" style="fill: none"/>
  </g>
  <g id="axes_1">
   <g id="patch_2">
    <path d="M 63 448.56 
L 453.6 448.56 
L 453.6 60.48 
L 63 60.48 
L 63 448.56 
z
" style="fill: none"/>
   </g>
   <g id="patch_3">
    <path d="M 80.754545 448.56 
L 82.26718 448.56 
L 82.26718 421.182222 
L 80.754545 421.182222 
z
" clip-path="url(#p4aaae4715f)" style="fill: #7f7f7f; opacity: 0.5"/>
   </g>
   <g id="patch_4">
    <path d="M 82.645338 448.56 
L 84.157973 448.56 
L 84.157973 421.182222 
L 82.645338 421.182222 
z
" clip-path="url(#p4aaae4715f)" style="fill: #7f7f7f; opacity: 0.5"/>
   </g>
   <g id="patch_5">
    <path d="M 84.536131 448.56 
L 86.048766 448.56 
L 86.048766 421.182222 
L 84.536131 421.182222 
z
" clip-path="url(#p4aaae4715f)" style="fill: #7f7f7f; opacity: 0.5"/>
   </g>
   <g id="patch_6">
    <path d="M 86.426924 448.56 
L 87.939559 448.56 
L 87.939559 448.56 
L 86.426924 448.56 
z
" clip-path="url(#p4aaae4715f)" style="fill: #7f7f7f; opacity: 0.5"/>
   </g>
   <g id="patch_7">
    <path d="M 88.317717 448.56 
L 89.830351 448.56 
L 89.830351 448.56 
L 88.317717 448.56 
z
" clip-path="url(#p4aaae4715f)" style="fill: #7f7f7f; opacity: 0.5"/>
   </g>
   <g id="patch_8">
    <path d="M 90.20851 448.56 
L 91.721144 448.56 
L 91.721144 448.56 
L 90.20851 448.56 
z
" clip-path="url(#p4aaae4715f)" style="fill: #7f7f7f; opacity: 0.5"/>
   </g>
   <g id="patch_9">
    <path d="M 92.099303 448.56 
L 93.611937 448.56 
L 93.611937 448.56 
L 92.099303 448.56 
z
" clip-path="url(#p4aaae4715f)" style="fill: #7f7f7f; opacity: 0.5"/>
   </g>
   <g id="patch_10">
    <path d="M 93.990096 448.56 
L 95.50273 448.56 
L 95.50273 448.56 
L 93.990096 448.56 
z
" clip-path="url(#p4aaae4715f)" style="fill: #7f7f7f; opacity: 0.5"/>
   </g>
   <g id="patch_11">
    <path d="M 95.880889 448.56 
L 97.393523 448.56 
L 97.393523 448.56 
L 95.880889 448.56 
z
" clip-path="url(#p4aaae4715f)" style="fill: #7f7f7f; opacity: 0.5"/>
   </g>
   <g id="patch_12">
    <path d="M 97.771682 448.56 
L 99.284316 448.56 
L 99.284316 434.871111 
L 97.771682 434.871111 
z
" clip-path="url(#p4aaae4715f)" style="fill: #7f7f7f; opacity: 0.5"/>
   </g>
   <g id="patch_13">
    <path d="M 99.662475 448.56 
L 101.175109 448.56 
L 101.175109 448.56 
L 99.662475 448.56 
z
" clip-path="url(#p4aaae4715f)" style="fill: #7f7f7f; opacity: 0.5"/>
   </g>
   <g id="patch_14">
    <path d="M 101.553267 448.56 
L 103.065902 448.56 
L 103.065902 448.56 
L 101.553267 448.56 
z
" clip-path="url(#p4aaae4715f)" style="fill: #7f7f7f; opacity: 0.5"/>
   </g>
   <g id="patch_15">
    <path d="M 103.44406 448.56 
L 104.956695 448.56 
L 104.956695 448.56 
L 103.44406 448.56 
z
" clip-path="url(#p4aaae4715f)" style="fill: #7f7f7f; opacity: 0.5"/>
   </g>
   <g id="patch_16">
    <path d="M 105.334853 448.56 
L 106.847488 448.56 
L 106.847488 448.56 
L 105.334853 448.56 
z
" clip-path="url(#p4aaae4715f)" style="fill: #7f7f7f; opacity: 0.5"/>
   </g>
   <g id="patch_17">
    <path d="M 107.225646 448.56 
L 108.738281 448.56 
L 108.738281 448.56 
L 107.225646 448.56 
z
" clip-path="url(#p4aaae4715f)" style="fill: #7f7f7f; opacity: 0.5"/>
   </g>
   <g id="patch_18">
    <path d="M 109.116439 448.56 
L 110.629073 448.56 
L 110.629073 448.56 
L 109.116439 448.56 
z
" clip-path="url(#p4aaae4715f)" style="fill: #7f7f7f; opacity: 0.5"/>
   </g>
   <g id="patch_19">
    <path d="M 111.007232 448.56 
L 112.519866 448.56 
L 112.519866 448.56 
L 111.007232 448.56 
z
" clip-path="url(#p4aaae4715f)" style="fill: #7f7f7f; opacity: 0.5"/>
   </g>
   <g id="patch_20">
    <path d="M 112.898025 448.56 
L 114.410659 448.56 
L 114.410659 448.56 
L 112.898025 448.56 
z
" clip-path="url(#p4aaae4715f)" style="fill: #7f7f7f; opacity: 0.5"/>
   </g>
   <g id="patch_21">
    <path d="M 114.788818 448.56 
L 116.301452 448.56 
L 116.301452 448.56 
L 114.788818 448.56 
z
" clip-path="url(#p4aaae4715f)" style="fill: #7f7f7f; opacity: 0.5"/>
   </g>
   <g id="patch_22">
    <path d="M 116.679611 448.56 
L 118.192245 448.56 
L 118.192245 434.871111 
L 116.679611 434.871111 
z
" clip-path="url(#p4aaae4715f)" style="fill: #7f7f7f; opacity: 0.5"/>
   </g>
   <g id="patch_23">
    <path d="M 118.570404 448.56 
L 120.083038 448.56 
L 120.083038 448.56 
L 118.570404 448.56 
z
" clip-path="url(#p4aaae4715f)" style="fill: #7f7f7f; opacity: 0.5"/>
   </g>
   <g id="patch_24">
    <path d="M 120.461197 448.56 
L 121.973831 448.56 
L 121.973831 448.56 
L 120.461197 448.56 
z
" clip-path="url(#p4aaae4715f)" style="fill: #7f7f7f; opacity: 0.5"/>
   </g>
   <g id="patch_25">
    <path d="M 122.35199 448.56 
L 123.864624 448.56 
L 123.864624 434.871111 
L 122.35199 434.871111 
z
" clip-path="url(#p4aaae4715f)" style="fill: #7f7f7f; opacity: 0.5"/>
   </g>
   <g id="patch_26">
    <path d="M 124.242782 448.56 
L 125.755417 448.56 
L 125.755417 448.56 
L 124.242782 448.56 
z
" clip-path="url(#p4aaae4715f)" style="fill: #7f7f7f; opacity: 0.5"/>
   </g>
   <g id="patch_27">
    <path d="M 126.133575 448.56 
L 127.64621 448.56 
L 127.64621 434.871111 
L 126.133575 434.871111 
z
" clip-path="url(#p4aaae4715f)" style="fill: #7f7f7f; opacity: 0.5"/>
   </g>
   <g id="patch_28">
    <path d="M 128.024368 448.56 
L 129.537003 448.56 
L 129.537003 448.56 
L 128.024368 448.56 
z
" clip-path="url(#p4aaae4715f)" style="fill: #7f7f7f; opacity: 0.5"/>
   </g>
   <g id="patch_29">
    <path d="M 129.915161 448.56 
L 131.427796 448.56 
L 131.427796 434.871111 
L 129.915161 434.871111 
z
" clip-path="url(#p4aaae4715f)" style="fill: #7f7f7f; opacity: 0.5"/>
   </g>
   <g id="patch_30">
    <path d="M 131.805954 448.56 
L 133.318588 448.56 
L 133.318588 448.56 
L 131.805954 448.56 
z
" clip-path="url(#p4aaae4715f)" style="fill: #7f7f7f; opacity: 0.5"/>
   </g>
   <g id="patch_31">
    <path d="M 133.696747 448.56 
L 135.209381 448.56 
L 135.209381 434.871111 
L 133.696747 434.871111 
z
" clip-path="url(#p4aaae4715f)" style="fill: #7f7f7f; opacity: 0.5"/>
   </g>
   <g id="patch_32">
    <path d="M 135.58754 448.56 
L 137.100174 448.56 
L 137.100174 434.871111 
L 135.58754 434.871111 
z
" clip-path="url(#p4aaae4715f)" style="fill: #7f7f7f; opacity: 0.5"/>
   </g>
   <g id="patch_33">
    <path d="M 137.478333 448.56 
L 138.990967 448.56 
L 138.990967 448.56 
L 137.478333 448.56 
z
" clip-path="url(#p4aaae4715f)" style="fill: #7f7f7f; opacity: 0.5"/>
   </g>
   <g id="patch_34">
    <path d="M 139.369126 448.56 
L 140.88176 448.56 
L 140.88176 434.871111 
L 139.369126 434.871111 
z
" clip-path="url(#p4aaae4715f)" style="fill: #7f7f7f; opacity: 0.5"/>
   </g>
   <g id="patch_35">
    <path d="M 141.259919 448.56 
L 142.772553 448.56 
L 142.772553 434.871111 
L 141.259919 434.871111 
z
" clip-path="url(#p4aaae4715f)" style="fill: #7f7f7f; opacity: 0.5"/>
   </g>
   <g id="patch_36">
    <path d="M 143.150712 448.56 
L 144.663346 448.56 
L 144.663346 448.56 
L 143.150712 448.56 
z
" clip-path="url(#p4aaae4715f)" style="fill: #7f7f7f; opacity: 0.5"/>
   </g>
   <g id="patch_37">
    <path d="M 145.041505 448.56 
L 146.554139 448.56 
L 146.554139 434.871111 
L 145.041505 434.871111 
z
" clip-path="url(#p4aaae4715f)" style="fill: #7f7f7f; opacity: 0.5"/>
   </g>
   <g id="patch_38">
    <path d="M 146.932297 448.56 
L 148.444932 448.56 
L 148.444932 448.56 
L 146.932297 448.56 
z
" clip-path="url(#p4aaae4715f)" style="fill: #7f7f7f; opacity: 0.5"/>
   </g>
   <g id="patch_39">
    <path d="M 148.82309 448.56 
L 150.335725 448.56 
L 150.335725 448.56 
L 148.82309 448.56 
z
" clip-path="url(#p4aaae4715f)" style="fill: #7f7f7f; opacity: 0.5"/>
   </g>
   <g id="patch_40">
    <path d="M 150.713883 448.56 
L 152.226518 448.56 
L 152.226518 407.493333 
L 150.713883 407.493333 
z
" clip-path="url(#p4aaae4715f)" style="fill: #7f7f7f; opacity: 0.5"/>
   </g>
   <g id="patch_41">
    <path d="M 152.604676 448.56 
L 154.11731 448.56 
L 154.11731 421.182222 
L 152.604676 421.182222 
z
" clip-path="url(#p4aaae4715f)" style="fill: #7f7f7f; opacity: 0.5"/>
   </g>
   <g id="patch_42">
    <path d="M 154.495469 448.56 
L 156.008103 448.56 
L 156.008103 434.871111 
L 154.495469 434.871111 
z
" clip-path="url(#p4aaae4715f)" style="fill: #7f7f7f; opacity: 0.5"/>
   </g>
   <g id="patch_43">
    <path d="M 156.386262 448.56 
L 157.898896 448.56 
L 157.898896 434.871111 
L 156.386262 434.871111 
z
" clip-path="url(#p4aaae4715f)" style="fill: #7f7f7f; opacity: 0.5"/>
   </g>
   <g id="patch_44">
    <path d="M 158.277055 448.56 
L 159.789689 448.56 
L 159.789689 434.871111 
L 158.277055 434.871111 
z
" clip-path="url(#p4aaae4715f)" style="fill: #7f7f7f; opacity: 0.5"/>
   </g>
   <g id="patch_45">
    <path d="M 160.167848 448.56 
L 161.680482 448.56 
L 161.680482 434.871111 
L 160.167848 434.871111 
z
" clip-path="url(#p4aaae4715f)" style="fill: #7f7f7f; opacity: 0.5"/>
   </g>
   <g id="patch_46">
    <path d="M 162.058641 448.56 
L 163.571275 448.56 
L 163.571275 407.493333 
L 162.058641 407.493333 
z
" clip-path="url(#p4aaae4715f)" style="fill: #7f7f7f; opacity: 0.5"/>
   </g>
   <g id="patch_47">
    <path d="M 163.949434 448.56 
L 165.462068 448.56 
L 165.462068 448.56 
L 163.949434 448.56 
z
" clip-path="url(#p4aaae4715f)" style="fill: #7f7f7f; opacity: 0.5"/>
   </g>
   <g id="patch_48">
    <path d="M 165.840227 448.56 
L 167.352861 448.56 
L 167.352861 434.871111 
L 165.840227 434.871111 
z
" clip-path="url(#p4aaae4715f)" style="fill: #7f7f7f; opacity: 0.5"/>
   </g>
   <g id="patch_49">
    <path d="M 167.731019 448.56 
L 169.243654 448.56 
L 169.243654 434.871111 
L 167.731019 434.871111 
z
" clip-path="url(#p4aaae4715f)" style="fill: #7f7f7f; opacity: 0.5"/>
   </g>
   <g id="patch_50">
    <path d="M 169.621812 448.56 
L 171.134447 448.56 
L 171.134447 393.804444 
L 169.621812 393.804444 
z
" clip-path="url(#p4aaae4715f)" style="fill: #7f7f7f; opacity: 0.5"/>
   </g>
   <g id="patch_51">
    <path d="M 171.512605 448.56 
L 173.02524 448.56 
L 173.02524 407.493333 
L 171.512605 407.493333 
z
" clip-path="url(#p4aaae4715f)" style="fill: #7f7f7f; opacity: 0.5"/>
   </g>
   <g id="patch_52">
    <path d="M 173.403398 448.56 
L 174.916033 448.56 
L 174.916033 407.493333 
L 173.403398 407.493333 
z
" clip-path="url(#p4aaae4715f)" style="fill: #7f7f7f; opacity: 0.5"/>
   </g>
   <g id="patch_53">
    <path d="M 175.294191 448.56 
L 176.806825 448.56 
L 176.806825 421.182222 
L 175.294191 421.182222 
z
" clip-path="url(#p4aaae4715f)" style="fill: #7f7f7f; opacity: 0.5"/>
   </g>
   <g id="patch_54">
    <path d="M 177.184984 448.56 
L 178.697618 448.56 
L 178.697618 393.804444 
L 177.184984 393.804444 
z
" clip-path="url(#p4aaae4715f)" style="fill: #7f7f7f; opacity: 0.5"/>
   </g>
   <g id="patch_55">
    <path d="M 179.075777 448.56 
L 180.588411 448.56 
L 180.588411 393.804444 
L 179.075777 393.804444 
z
" clip-path="url(#p4aaae4715f)" style="fill: #7f7f7f; opacity: 0.5"/>
   </g>
   <g id="patch_56">
    <path d="M 180.96657 448.56 
L 182.479204 448.56 
L 182.479204 339.048889 
L 180.96657 339.048889 
z
" clip-path="url(#p4aaae4715f)" style="fill: #7f7f7f; opacity: 0.5"/>
   </g>
   <g id="patch_57">
    <path d="M 182.857363 448.56 
L 184.369997 448.56 
L 184.369997 380.115556 
L 182.857363 380.115556 
z
" clip-path="url(#p4aaae4715f)" style="fill: #7f7f7f; opacity: 0.5"/>
   </g>
   <g id="patch_58">
    <path d="M 184.748156 448.56 
L 186.26079 448.56 
L 186.26079 339.048889 
L 184.748156 339.048889 
z
" clip-path="url(#p4aaae4715f)" style="fill: #7f7f7f; opacity: 0.5"/>
   </g>
   <g id="patch_59">
    <path d="M 186.638949 448.56 
L 188.151583 448.56 
L 188.151583 380.115556 
L 186.638949 380.115556 
z
" clip-path="url(#p4aaae4715f)" style="fill: #7f7f7f; opacity: 0.5"/>
   </g>
   <g id="patch_60">
    <path d="M 188.529742 448.56 
L 190.042376 448.56 
L 190.042376 393.804444 
L 188.529742 393.804444 
z
" clip-path="url(#p4aaae4715f)" style="fill: #7f7f7f; opacity: 0.5"/>
   </g>
   <g id="patch_61">
    <path d="M 190.420534 448.56 
L 191.933169 448.56 
L 191.933169 380.115556 
L 190.420534 380.115556 
z
" clip-path="url(#p4aaae4715f)" style="fill: #7f7f7f; opacity: 0.5"/>
   </g>
   <g id="patch_62">
    <path d="M 192.311327 448.56 
L 193.823962 448.56 
L 193.823962 352.737778 
L 192.311327 352.737778 
z
" clip-path="url(#p4aaae4715f)" style="fill: #7f7f7f; opacity: 0.5"/>
   </g>
   <g id="patch_63">
    <path d="M 194.20212 448.56 
L 195.714755 448.56 
L 195.714755 421.182222 
L 194.20212 421.182222 
z
" clip-path="url(#p4aaae4715f)" style="fill: #7f7f7f; opacity: 0.5"/>
   </g>
   <g id="patch_64">
    <path d="M 196.092913 448.56 
L 197.605547 448.56 
L 197.605547 434.871111 
L 196.092913 434.871111 
z
" clip-path="url(#p4aaae4715f)" style="fill: #7f7f7f; opacity: 0.5"/>
   </g>
   <g id="patch_65">
    <path d="M 197.983706 448.56 
L 199.49634 448.56 
L 199.49634 339.048889 
L 197.983706 339.048889 
z
" clip-path="url(#p4aaae4715f)" style="fill: #7f7f7f; opacity: 0.5"/>
   </g>
   <g id="patch_66">
    <path d="M 199.874499 448.56 
L 201.387133 448.56 
L 201.387133 421.182222 
L 199.874499 421.182222 
z
" clip-path="url(#p4aaae4715f)" style="fill: #7f7f7f; opacity: 0.5"/>
   </g>
   <g id="patch_67">
    <path d="M 201.765292 448.56 
L 203.277926 448.56 
L 203.277926 393.804444 
L 201.765292 393.804444 
z
" clip-path="url(#p4aaae4715f)" style="fill: #7f7f7f; opacity: 0.5"/>
   </g>
   <g id="patch_68">
    <path d="M 203.656085 448.56 
L 205.168719 448.56 
L 205.168719 421.182222 
L 203.656085 421.182222 
z
" clip-path="url(#p4aaae4715f)" style="fill: #7f7f7f; opacity: 0.5"/>
   </g>
   <g id="patch_69">
    <path d="M 205.546878 448.56 
L 207.059512 448.56 
L 207.059512 325.36 
L 205.546878 325.36 
z
" clip-path="url(#p4aaae4715f)" style="fill: #7f7f7f; opacity: 0.5"/>
   </g>
   <g id="patch_70">
    <path d="M 207.437671 448.56 
L 208.950305 448.56 
L 208.950305 339.048889 
L 207.437671 339.048889 
z
" clip-path="url(#p4aaae4715f)" style="fill: #7f7f7f; opacity: 0.5"/>
   </g>
   <g id="patch_71">
    <path d="M 209.328464 448.56 
L 210.841098 448.56 
L 210.841098 339.048889 
L 209.328464 339.048889 
z
" clip-path="url(#p4aaae4715f)" style="fill: #7f7f7f; opacity: 0.5"/>
   </g>
   <g id="patch_72">
    <path d="M 211.219256 448.56 
L 212.731891 448.56 
L 212.731891 352.737778 
L 211.219256 352.737778 
z
" clip-path="url(#p4aaae4715f)" style="fill: #7f7f7f; opacity: 0.5"/>
   </g>
   <g id="patch_73">
    <path d="M 213.110049 448.56 
L 214.622684 448.56 
L 214.622684 325.36 
L 213.110049 325.36 
z
" clip-path="url(#p4aaae4715f)" style="fill: #7f7f7f; opacity: 0.5"/>
   </g>
   <g id="patch_74">
    <path d="M 215.000842 448.56 
L 216.513477 448.56 
L 216.513477 284.293333 
L 215.000842 284.293333 
z
" clip-path="url(#p4aaae4715f)" style="fill: #7f7f7f; opacity: 0.5"/>
   </g>
   <g id="patch_75">
    <path d="M 216.891635 448.56 
L 218.40427 448.56 
L 218.40427 284.293333 
L 216.891635 284.293333 
z
" clip-path="url(#p4aaae4715f)" style="fill: #7f7f7f; opacity: 0.5"/>
   </g>
   <g id="patch_76">
    <path d="M 218.782428 448.56 
L 220.295062 448.56 
L 220.295062 352.737778 
L 218.782428 352.737778 
z
" clip-path="url(#p4aaae4715f)" style="fill: #7f7f7f; opacity: 0.5"/>
   </g>
   <g id="patch_77">
    <path d="M 220.673221 448.56 
L 222.185855 448.56 
L 222.185855 284.293333 
L 220.673221 284.293333 
z
" clip-path="url(#p4aaae4715f)" style="fill: #7f7f7f; opacity: 0.5"/>
   </g>
   <g id="patch_78">
    <path d="M 222.564014 448.56 
L 224.076648 448.56 
L 224.076648 421.182222 
L 222.564014 421.182222 
z
" clip-path="url(#p4aaae4715f)" style="fill: #7f7f7f; opacity: 0.5"/>
   </g>
   <g id="patch_79">
    <path d="M 224.454807 448.56 
L 225.967441 448.56 
L 225.967441 243.226667 
L 224.454807 243.226667 
z
" clip-path="url(#p4aaae4715f)" style="fill: #7f7f7f; opacity: 0.5"/>
   </g>
   <g id="patch_80">
    <path d="M 226.3456 448.56 
L 227.858234 448.56 
L 227.858234 297.982222 
L 226.3456 297.982222 
z
" clip-path="url(#p4aaae4715f)" style="fill: #7f7f7f; opacity: 0.5"/>
   </g>
   <g id="patch_81">
    <path d="M 228.236393 448.56 
L 229.749027 448.56 
L 229.749027 380.115556 
L 228.236393 380.115556 
z
" clip-path="url(#p4aaae4715f)" style="fill: #7f7f7f; opacity: 0.5"/>
   </g>
   <g id="patch_82">
    <path d="M 230.127186 448.56 
L 231.63982 448.56 
L 231.63982 393.804444 
L 230.127186 393.804444 
z
" clip-path="url(#p4aaae4715f)" style="fill: #7f7f7f; opacity: 0.5"/>
   </g>
   <g id="patch_83">
    <path d="M 232.017979 448.56 
L 233.530613 448.56 
L 233.530613 421.182222 
L 232.017979 421.182222 
z
" clip-path="url(#p4aaae4715f)" style="fill: #7f7f7f; opacity: 0.5"/>
   </g>
   <g id="patch_84">
    <path d="M 233.908771 448.56 
L 235.421406 448.56 
L 235.421406 393.804444 
L 233.908771 393.804444 
z
" clip-path="url(#p4aaae4715f)" style="fill: #7f7f7f; opacity: 0.5"/>
   </g>
   <g id="patch_85">
    <path d="M 235.799564 448.56 
L 237.312199 448.56 
L 237.312199 352.737778 
L 235.799564 352.737778 
z
" clip-path="url(#p4aaae4715f)" style="fill: #7f7f7f; opacity: 0.5"/>
   </g>
   <g id="patch_86">
    <path d="M 237.690357 448.56 
L 239.202992 448.56 
L 239.202992 270.604444 
L 237.690357 270.604444 
z
" clip-path="url(#p4aaae4715f)" style="fill: #7f7f7f; opacity: 0.5"/>
   </g>
   <g id="patch_87">
    <path d="M 239.58115 448.56 
L 241.093784 448.56 
L 241.093784 366.426667 
L 239.58115 366.426667 
z
" clip-path="url(#p4aaae4715f)" style="fill: #7f7f7f; opacity: 0.5"/>
   </g>
   <g id="patch_88">
    <path d="M 241.471943 448.56 
L 242.984577 448.56 
L 242.984577 339.048889 
L 241.471943 339.048889 
z
" clip-path="url(#p4aaae4715f)" style="fill: #7f7f7f; opacity: 0.5"/>
   </g>
   <g id="patch_89">
    <path d="M 243.362736 448.56 
L 244.87537 448.56 
L 244.87537 393.804444 
L 243.362736 393.804444 
z
" clip-path="url(#p4aaae4715f)" style="fill: #7f7f7f; opacity: 0.5"/>
   </g>
   <g id="patch_90">
    <path d="M 245.253529 448.56 
L 246.766163 448.56 
L 246.766163 380.115556 
L 245.253529 380.115556 
z
" clip-path="url(#p4aaae4715f)" style="fill: #7f7f7f; opacity: 0.5"/>
   </g>
   <g id="patch_91">
    <path d="M 247.144322 448.56 
L 248.656956 448.56 
L 248.656956 407.493333 
L 247.144322 407.493333 
z
" clip-path="url(#p4aaae4715f)" style="fill: #7f7f7f; opacity: 0.5"/>
   </g>
   <g id="patch_92">
    <path d="M 249.035115 448.56 
L 250.547749 448.56 
L 250.547749 421.182222 
L 249.035115 421.182222 
z
" clip-path="url(#p4aaae4715f)" style="fill: #7f7f7f; opacity: 0.5"/>
   </g>
   <g id="patch_93">
    <path d="M 250.925908 448.56 
L 252.438542 448.56 
L 252.438542 421.182222 
L 250.925908 421.182222 
z
" clip-path="url(#p4aaae4715f)" style="fill: #7f7f7f; opacity: 0.5"/>
   </g>
   <g id="patch_94">
    <path d="M 252.816701 448.56 
L 254.329335 448.56 
L 254.329335 448.56 
L 252.816701 448.56 
z
" clip-path="url(#p4aaae4715f)" style="fill: #7f7f7f; opacity: 0.5"/>
   </g>
   <g id="patch_95">
    <path d="M 254.707493 448.56 
L 256.220128 448.56 
L 256.220128 434.871111 
L 254.707493 434.871111 
z
" clip-path="url(#p4aaae4715f)" style="fill: #7f7f7f; opacity: 0.5"/>
   </g>
   <g id="patch_96">
    <path d="M 256.598286 448.56 
L 258.110921 448.56 
L 258.110921 421.182222 
L 256.598286 421.182222 
z
" clip-path="url(#p4aaae4715f)" style="fill: #7f7f7f; opacity: 0.5"/>
   </g>
   <g id="patch_97">
    <path d="M 258.489079 448.56 
L 260.001714 448.56 
L 260.001714 407.493333 
L 258.489079 407.493333 
z
" clip-path="url(#p4aaae4715f)" style="fill: #7f7f7f; opacity: 0.5"/>
   </g>
   <g id="patch_98">
    <path d="M 260.379872 448.56 
L 261.892507 448.56 
L 261.892507 434.871111 
L 260.379872 434.871111 
z
" clip-path="url(#p4aaae4715f)" style="fill: #7f7f7f; opacity: 0.5"/>
   </g>
   <g id="patch_99">
    <path d="M 262.270665 448.56 
L 263.783299 448.56 
L 263.783299 407.493333 
L 262.270665 407.493333 
z
" clip-path="url(#p4aaae4715f)" style="fill: #7f7f7f; opacity: 0.5"/>
   </g>
   <g id="patch_100">
    <path d="M 264.161458 448.56 
L 265.674092 448.56 
L 265.674092 421.182222 
L 264.161458 421.182222 
z
" clip-path="url(#p4aaae4715f)" style="fill: #7f7f7f; opacity: 0.5"/>
   </g>
   <g id="patch_101">
    <path d="M 266.052251 448.56 
L 267.564885 448.56 
L 267.564885 448.56 
L 266.052251 448.56 
z
" clip-path="url(#p4aaae4715f)" style="fill: #7f7f7f; opacity: 0.5"/>
   </g>
   <g id="patch_102">
    <path d="M 267.943044 448.56 
L 269.455678 448.56 
L 269.455678 448.56 
L 267.943044 448.56 
z
" clip-path="url(#p4aaae4715f)" style="fill: #7f7f7f; opacity: 0.5"/>
   </g>
   <g id="patch_103">
    <path d="M 269.833837 448.56 
L 271.346471 448.56 
L 271.346471 434.871111 
L 269.833837 434.871111 
z
" clip-path="url(#p4aaae4715f)" style="fill: #7f7f7f; opacity: 0.5"/>
   </g>
   <g id="patch_104">
    <path d="M 271.72463 448.56 
L 273.237264 448.56 
L 273.237264 421.182222 
L 271.72463 421.182222 
z
" clip-path="url(#p4aaae4715f)" style="fill: #7f7f7f; opacity: 0.5"/>
   </g>
   <g id="patch_105">
    <path d="M 273.615423 448.56 
L 275.128057 448.56 
L 275.128057 434.871111 
L 273.615423 434.871111 
z
" clip-path="url(#p4aaae4715f)" style="fill: #7f7f7f; opacity: 0.5"/>
   </g>
   <g id="patch_106">
    <path d="M 275.506216 448.56 
L 277.01885 448.56 
L 277.01885 448.56 
L 275.506216 448.56 
z
" clip-path="url(#p4aaae4715f)" style="fill: #7f7f7f; opacity: 0.5"/>
   </g>
   <g id="patch_107">
    <path d="M 277.397008 448.56 
L 278.909643 448.56 
L 278.909643 434.871111 
L 277.397008 434.871111 
z
" clip-path="url(#p4aaae4715f)" style="fill: #7f7f7f; opacity: 0.5"/>
   </g>
   <g id="patch_108">
    <path d="M 279.287801 448.56 
L 280.800436 448.56 
L 280.800436 448.56 
L 279.287801 448.56 
z
" clip-path="url(#p4aaae4715f)" style="fill: #7f7f7f; opacity: 0.5"/>
   </g>
   <g id="patch_109">
    <path d="M 281.178594 448.56 
L 282.691229 448.56 
L 282.691229 434.871111 
L 281.178594 434.871111 
z
" clip-path="url(#p4aaae4715f)" style="fill: #7f7f7f; opacity: 0.5"/>
   </g>
   <g id="patch_110">
    <path d="M 283.069387 448.56 
L 284.582021 448.56 
L 284.582021 448.56 
L 283.069387 448.56 
z
" clip-path="url(#p4aaae4715f)" style="fill: #7f7f7f; opacity: 0.5"/>
   </g>
   <g id="patch_111">
    <path d="M 284.96018 448.56 
L 286.472814 448.56 
L 286.472814 448.56 
L 284.96018 448.56 
z
" clip-path="url(#p4aaae4715f)" style="fill: #7f7f7f; opacity: 0.5"/>
   </g>
   <g id="patch_112">
    <path d="M 286.850973 448.56 
L 288.363607 448.56 
L 288.363607 448.56 
L 286.850973 448.56 
z
" clip-path="url(#p4aaae4715f)" style="fill: #7f7f7f; opacity: 0.5"/>
   </g>
   <g id="patch_113">
    <path d="M 288.741766 448.56 
L 290.2544 448.56 
L 290.2544 434.871111 
L 288.741766 434.871111 
z
" clip-path="url(#p4aaae4715f)" style="fill: #7f7f7f; opacity: 0.5"/>
   </g>
   <g id="patch_114">
    <path d="M 290.632559 448.56 
L 292.145193 448.56 
L 292.145193 434.871111 
L 290.632559 434.871111 
z
" clip-path="url(#p4aaae4715f)" style="fill: #7f7f7f; opacity: 0.5"/>
   </g>
   <g id="patch_115">
    <path d="M 292.523352 448.56 
L 294.035986 448.56 
L 294.035986 448.56 
L 292.523352 448.56 
z
" clip-path="url(#p4aaae4715f)" style="fill: #7f7f7f; opacity: 0.5"/>
   </g>
   <g id="patch_116">
    <path d="M 294.414145 448.56 
L 295.926779 448.56 
L 295.926779 448.56 
L 294.414145 448.56 
z
" clip-path="url(#p4aaae4715f)" style="fill: #7f7f7f; opacity: 0.5"/>
   </g>
   <g id="patch_117">
    <path d="M 296.304938 448.56 
L 297.817572 448.56 
L 297.817572 448.56 
L 296.304938 448.56 
z
" clip-path="url(#p4aaae4715f)" style="fill: #7f7f7f; opacity: 0.5"/>
   </g>
   <g id="patch_118">
    <path d="M 298.19573 448.56 
L 299.708365 448.56 
L 299.708365 434.871111 
L 298.19573 434.871111 
z
" clip-path="url(#p4aaae4715f)" style="fill: #7f7f7f; opacity: 0.5"/>
   </g>
   <g id="patch_119">
    <path d="M 300.086523 448.56 
L 301.599158 448.56 
L 301.599158 448.56 
L 300.086523 448.56 
z
" clip-path="url(#p4aaae4715f)" style="fill: #7f7f7f; opacity: 0.5"/>
   </g>
   <g id="patch_120">
    <path d="M 301.977316 448.56 
L 303.489951 448.56 
L 303.489951 448.56 
L 301.977316 448.56 
z
" clip-path="url(#p4aaae4715f)" style="fill: #7f7f7f; opacity: 0.5"/>
   </g>
   <g id="patch_121">
    <path d="M 303.868109 448.56 
L 305.380744 448.56 
L 305.380744 448.56 
L 303.868109 448.56 
z
" clip-path="url(#p4aaae4715f)" style="fill: #7f7f7f; opacity: 0.5"/>
   </g>
   <g id="patch_122">
    <path d="M 305.758902 448.56 
L 307.271536 448.56 
L 307.271536 448.56 
L 305.758902 448.56 
z
" clip-path="url(#p4aaae4715f)" style="fill: #7f7f7f; opacity: 0.5"/>
   </g>
   <g id="patch_123">
    <path d="M 307.649695 448.56 
L 309.162329 448.56 
L 309.162329 448.56 
L 307.649695 448.56 
z
" clip-path="url(#p4aaae4715f)" style="fill: #7f7f7f; opacity: 0.5"/>
   </g>
   <g id="patch_124">
    <path d="M 309.540488 448.56 
L 311.053122 448.56 
L 311.053122 448.56 
L 309.540488 448.56 
z
" clip-path="url(#p4aaae4715f)" style="fill: #7f7f7f; opacity: 0.5"/>
   </g>
   <g id="patch_125">
    <path d="M 311.431281 448.56 
L 312.943915 448.56 
L 312.943915 448.56 
L 311.431281 448.56 
z
" clip-path="url(#p4aaae4715f)" style="fill: #7f7f7f; opacity: 0.5"/>
   </g>
   <g id="patch_126">
    <path d="M 313.322074 448.56 
L 314.834708 448.56 
L 314.834708 448.56 
L 313.322074 448.56 
z
" clip-path="url(#p4aaae4715f)" style="fill: #7f7f7f; opacity: 0.5"/>
   </g>
   <g id="patch_127">
    <path d="M 315.212867 448.56 
L 316.725501 448.56 
L 316.725501 448.56 
L 315.212867 448.56 
z
" clip-path="url(#p4aaae4715f)" style="fill: #7f7f7f; opacity: 0.5"/>
   </g>
   <g id="patch_128">
    <path d="M 317.10366 448.56 
L 318.616294 448.56 
L 318.616294 434.871111 
L 317.10366 434.871111 
z
" clip-path="url(#p4aaae4715f)" style="fill: #7f7f7f; opacity: 0.5"/>
   </g>
   <g id="patch_129">
    <path d="M 318.994453 448.56 
L 320.507087 448.56 
L 320.507087 448.56 
L 318.994453 448.56 
z
" clip-path="url(#p4aaae4715f)" style="fill: #7f7f7f; opacity: 0.5"/>
   </g>
   <g id="patch_130">
    <path d="M 320.885245 448.56 
L 322.39788 448.56 
L 322.39788 448.56 
L 320.885245 448.56 
z
" clip-path="url(#p4aaae4715f)" style="fill: #7f7f7f; opacity: 0.5"/>
   </g>
   <g id="patch_131">
    <path d="M 322.776038 448.56 
L 324.288673 448.56 
L 324.288673 448.56 
L 322.776038 448.56 
z
" clip-path="url(#p4aaae4715f)" style="fill: #7f7f7f; opacity: 0.5"/>
   </g>
   <g id="patch_132">
    <path d="M 324.666831 448.56 
L 326.179466 448.56 
L 326.179466 448.56 
L 324.666831 448.56 
z
" clip-path="url(#p4aaae4715f)" style="fill: #7f7f7f; opacity: 0.5"/>
   </g>
   <g id="patch_133">
    <path d="M 326.557624 448.56 
L 328.070258 448.56 
L 328.070258 448.56 
L 326.557624 448.56 
z
" clip-path="url(#p4aaae4715f)" style="fill: #7f7f7f; opacity: 0.5"/>
   </g>
   <g id="patch_134">
    <path d="M 328.448417 448.56 
L 329.961051 448.56 
L 329.961051 448.56 
L 328.448417 448.56 
z
" clip-path="url(#p4aaae4715f)" style="fill: #7f7f7f; opacity: 0.5"/>
   </g>
   <g id="patch_135">
    <path d="M 330.33921 448.56 
L 331.851844 448.56 
L 331.851844 434.871111 
L 330.33921 434.871111 
z
" clip-path="url(#p4aaae4715f)" style="fill: #7f7f7f; opacity: 0.5"/>
   </g>
   <g id="patch_136">
    <path d="M 332.230003 448.56 
L 333.742637 448.56 
L 333.742637 448.56 
L 332.230003 448.56 
z
" clip-path="url(#p4aaae4715f)" style="fill: #7f7f7f; opacity: 0.5"/>
   </g>
   <g id="patch_137">
    <path d="M 334.120796 448.56 
L 335.63343 448.56 
L 335.63343 448.56 
L 334.120796 448.56 
z
" clip-path="url(#p4aaae4715f)" style="fill: #7f7f7f; opacity: 0.5"/>
   </g>
   <g id="patch_138">
    <path d="M 336.011589 448.56 
L 337.524223 448.56 
L 337.524223 448.56 
L 336.011589 448.56 
z
" clip-path="url(#p4aaae4715f)" style="fill: #7f7f7f; opacity: 0.5"/>
   </g>
   <g id="patch_139">
    <path d="M 337.902382 448.56 
L 339.415016 448.56 
L 339.415016 448.56 
L 337.902382 448.56 
z
" clip-path="url(#p4aaae4715f)" style="fill: #7f7f7f; opacity: 0.5"/>
   </g>
   <g id="patch_140">
    <path d="M 339.793175 448.56 
L 341.305809 448.56 
L 341.305809 448.56 
L 339.793175 448.56 
z
" clip-path="url(#p4aaae4715f)" style="fill: #7f7f7f; opacity: 0.5"/>
   </g>
   <g id="patch_141">
    <path d="M 341.683967 448.56 
L 343.196602 448.56 
L 343.196602 448.56 
L 341.683967 448.56 
z
" clip-path="url(#p4aaae4715f)" style="fill: #7f7f7f; opacity: 0.5"/>
   </g>
   <g id="patch_142">
    <path d="M 343.57476 448.56 
L 345.087395 448.56 
L 345.087395 448.56 
L 343.57476 448.56 
z
" clip-path="url(#p4aaae4715f)" style="fill: #7f7f7f; opacity: 0.5"/>
   </g>
   <g id="patch_143">
    <path d="M 345.465553 448.56 
L 346.978188 448.56 
L 346.978188 448.56 
L 345.465553 448.56 
z
" clip-path="url(#p4aaae4715f)" style="fill: #7f7f7f; opacity: 0.5"/>
   </g>
   <g id="patch_144">
    <path d="M 347.356346 448.56 
L 348.868981 448.56 
L 348.868981 448.56 
L 347.356346 448.56 
z
" clip-path="url(#p4aaae4715f)" style="fill: #7f7f7f; opacity: 0.5"/>
   </g>
   <g id="patch_145">
    <path d="M 349.247139 448.56 
L 350.759773 448.56 
L 350.759773 448.56 
L 349.247139 448.56 
z
" clip-path="url(#p4aaae4715f)" style="fill: #7f7f7f; opacity: 0.5"/>
   </g>
   <g id="patch_146">
    <path d="M 351.137932 448.56 
L 352.650566 448.56 
L 352.650566 448.56 
L 351.137932 448.56 
z
" clip-path="url(#p4aaae4715f)" style="fill: #7f7f7f; opacity: 0.5"/>
   </g>
   <g id="patch_147">
    <path d="M 353.028725 448.56 
L 354.541359 448.56 
L 354.541359 448.56 
L 353.028725 448.56 
z
" clip-path="url(#p4aaae4715f)" style="fill: #7f7f7f; opacity: 0.5"/>
   </g>
   <g id="patch_148">
    <path d="M 354.919518 448.56 
L 356.432152 448.56 
L 356.432152 448.56 
L 354.919518 448.56 
z
" clip-path="url(#p4aaae4715f)" style="fill: #7f7f7f; opacity: 0.5"/>
   </g>
   <g id="patch_149">
    <path d="M 356.810311 448.56 
L 358.322945 448.56 
L 358.322945 448.56 
L 356.810311 448.56 
z
" clip-path="url(#p4aaae4715f)" style="fill: #7f7f7f; opacity: 0.5"/>
   </g>
   <g id="patch_150">
    <path d="M 358.701104 448.56 
L 360.213738 448.56 
L 360.213738 448.56 
L 358.701104 448.56 
z
" clip-path="url(#p4aaae4715f)" style="fill: #7f7f7f; opacity: 0.5"/>
   </g>
   <g id="patch_151">
    <path d="M 360.591897 448.56 
L 362.104531 448.56 
L 362.104531 448.56 
L 360.591897 448.56 
z
" clip-path="url(#p4aaae4715f)" style="fill: #7f7f7f; opacity: 0.5"/>
   </g>
   <g id="patch_152">
    <path d="M 362.48269 448.56 
L 363.995324 448.56 
L 363.995324 448.56 
L 362.48269 448.56 
z
" clip-path="url(#p4aaae4715f)" style="fill: #7f7f7f; opacity: 0.5"/>
   </g>
   <g id="patch_153">
    <path d="M 364.373482 448.56 
L 365.886117 448.56 
L 365.886117 448.56 
L 364.373482 448.56 
z
" clip-path="url(#p4aaae4715f)" style="fill: #7f7f7f; opacity: 0.5"/>
   </g>
   <g id="patch_154">
    <path d="M 366.264275 448.56 
L 367.77691 448.56 
L 367.77691 448.56 
L 366.264275 448.56 
z
" clip-path="url(#p4aaae4715f)" style="fill: #7f7f7f; opacity: 0.5"/>
   </g>
   <g id="patch_155">
    <path d="M 368.155068 448.56 
L 369.667703 448.56 
L 369.667703 448.56 
L 368.155068 448.56 
z
" clip-path="url(#p4aaae4715f)" style="fill: #7f7f7f; opacity: 0.5"/>
   </g>
   <g id="patch_156">
    <path d="M 370.045861 448.56 
L 371.558495 448.56 
L 371.558495 448.56 
L 370.045861 448.56 
z
" clip-path="url(#p4aaae4715f)" style="fill: #7f7f7f; opacity: 0.5"/>
   </g>
   <g id="patch_157">
    <path d="M 371.936654 448.56 
L 373.449288 448.56 
L 373.449288 448.56 
L 371.936654 448.56 
z
" clip-path="url(#p4aaae4715f)" style="fill: #7f7f7f; opacity: 0.5"/>
   </g>
   <g id="patch_158">
    <path d="M 373.827447 448.56 
L 375.340081 448.56 
L 375.340081 448.56 
L 373.827447 448.56 
z
" clip-path="url(#p4aaae4715f)" style="fill: #7f7f7f; opacity: 0.5"/>
   </g>
   <g id="patch_159">
    <path d="M 375.71824 448.56 
L 377.230874 448.56 
L 377.230874 448.56 
L 375.71824 448.56 
z
" clip-path="url(#p4aaae4715f)" style="fill: #7f7f7f; opacity: 0.5"/>
   </g>
   <g id="patch_160">
    <path d="M 377.609033 448.56 
L 379.121667 448.56 
L 379.121667 448.56 
L 377.609033 448.56 
z
" clip-path="url(#p4aaae4715f)" style="fill: #7f7f7f; opacity: 0.5"/>
   </g>
   <g id="patch_161">
    <path d="M 379.499826 448.56 
L 381.01246 448.56 
L 381.01246 448.56 
L 379.499826 448.56 
z
" clip-path="url(#p4aaae4715f)" style="fill: #7f7f7f; opacity: 0.5"/>
   </g>
   <g id="patch_162">
    <path d="M 381.390619 448.56 
L 382.903253 448.56 
L 382.903253 448.56 
L 381.390619 448.56 
z
" clip-path="url(#p4aaae4715f)" style="fill: #7f7f7f; opacity: 0.5"/>
   </g>
   <g id="patch_163">
    <path d="M 383.281412 448.56 
L 384.794046 448.56 
L 384.794046 448.56 
L 383.281412 448.56 
z
" clip-path="url(#p4aaae4715f)" style="fill: #7f7f7f; opacity: 0.5"/>
   </g>
   <g id="patch_164">
    <path d="M 385.172204 448.56 
L 386.684839 448.56 
L 386.684839 448.56 
L 385.172204 448.56 
z
" clip-path="url(#p4aaae4715f)" style="fill: #7f7f7f; opacity: 0.5"/>
   </g>
   <g id="patch_165">
    <path d="M 387.062997 448.56 
L 388.575632 448.56 
L 388.575632 448.56 
L 387.062997 448.56 
z
" clip-path="url(#p4aaae4715f)" style="fill: #7f7f7f; opacity: 0.5"/>
   </g>
   <g id="patch_166">
    <path d="M 388.95379 448.56 
L 390.466425 448.56 
L 390.466425 448.56 
L 388.95379 448.56 
z
" clip-path="url(#p4aaae4715f)" style="fill: #7f7f7f; opacity: 0.5"/>
   </g>
   <g id="patch_167">
    <path d="M 390.844583 448.56 
L 392.357218 448.56 
L 392.357218 448.56 
L 390.844583 448.56 
z
" clip-path="url(#p4aaae4715f)" style="fill: #7f7f7f; opacity: 0.5"/>
   </g>
   <g id="patch_168">
    <path d="M 392.735376 448.56 
L 394.24801 448.56 
L 394.24801 448.56 
L 392.735376 448.56 
z
" clip-path="url(#p4aaae4715f)" style="fill: #7f7f7f; opacity: 0.5"/>
   </g>
   <g id="patch_169">
    <path d="M 394.626169 448.56 
L 396.138803 448.56 
L 396.138803 448.56 
L 394.626169 448.56 
z
" clip-path="url(#p4aaae4715f)" style="fill: #7f7f7f; opacity: 0.5"/>
   </g>
   <g id="patch_170">
    <path d="M 396.516962 448.56 
L 398.029596 448.56 
L 398.029596 448.56 
L 396.516962 448.56 
z
" clip-path="url(#p4aaae4715f)" style="fill: #7f7f7f; opacity: 0.5"/>
   </g>
   <g id="patch_171">
    <path d="M 398.407755 448.56 
L 399.920389 448.56 
L 399.920389 448.56 
L 398.407755 448.56 
z
" clip-path="url(#p4aaae4715f)" style="fill: #7f7f7f; opacity: 0.5"/>
   </g>
   <g id="patch_172">
    <path d="M 400.298548 448.56 
L 401.811182 448.56 
L 401.811182 448.56 
L 400.298548 448.56 
z
" clip-path="url(#p4aaae4715f)" style="fill: #7f7f7f; opacity: 0.5"/>
   </g>
   <g id="patch_173">
    <path d="M 402.189341 448.56 
L 403.701975 448.56 
L 403.701975 448.56 
L 402.189341 448.56 
z
" clip-path="url(#p4aaae4715f)" style="fill: #7f7f7f; opacity: 0.5"/>
   </g>
   <g id="patch_174">
    <path d="M 404.080134 448.56 
L 405.592768 448.56 
L 405.592768 448.56 
L 404.080134 448.56 
z
" clip-path="url(#p4aaae4715f)" style="fill: #7f7f7f; opacity: 0.5"/>
   </g>
   <g id="patch_175">
    <path d="M 405.970927 448.56 
L 407.483561 448.56 
L 407.483561 448.56 
L 405.970927 448.56 
z
" clip-path="url(#p4aaae4715f)" style="fill: #7f7f7f; opacity: 0.5"/>
   </g>
   <g id="patch_176">
    <path d="M 407.861719 448.56 
L 409.374354 448.56 
L 409.374354 448.56 
L 407.861719 448.56 
z
" clip-path="url(#p4aaae4715f)" style="fill: #7f7f7f; opacity: 0.5"/>
   </g>
   <g id="patch_177">
    <path d="M 409.752512 448.56 
L 411.265147 448.56 
L 411.265147 448.56 
L 409.752512 448.56 
z
" clip-path="url(#p4aaae4715f)" style="fill: #7f7f7f; opacity: 0.5"/>
   </g>
   <g id="patch_178">
    <path d="M 411.643305 448.56 
L 413.15594 448.56 
L 413.15594 448.56 
L 411.643305 448.56 
z
" clip-path="url(#p4aaae4715f)" style="fill: #7f7f7f; opacity: 0.5"/>
   </g>
   <g id="patch_179">
    <path d="M 413.534098 448.56 
L 415.046733 448.56 
L 415.046733 448.56 
L 413.534098 448.56 
z
" clip-path="url(#p4aaae4715f)" style="fill: #7f7f7f; opacity: 0.5"/>
   </g>
   <g id="patch_180">
    <path d="M 415.424891 448.56 
L 416.937525 448.56 
L 416.937525 448.56 
L 415.424891 448.56 
z
" clip-path="url(#p4aaae4715f)" style="fill: #7f7f7f; opacity: 0.5"/>
   </g>
   <g id="patch_181">
    <path d="M 417.315684 448.56 
L 418.828318 448.56 
L 418.828318 448.56 
L 417.315684 448.56 
z
" clip-path="url(#p4aaae4715f)" style="fill: #7f7f7f; opacity: 0.5"/>
   </g>
   <g id="patch_182">
    <path d="M 419.206477 448.56 
L 420.719111 448.56 
L 420.719111 448.56 
L 419.206477 448.56 
z
" clip-path="url(#p4aaae4715f)" style="fill: #7f7f7f; opacity: 0.5"/>
   </g>
   <g id="patch_183">
    <path d="M 421.09727 448.56 
L 422.609904 448.56 
L 422.609904 448.56 
L 421.09727 448.56 
z
" clip-path="url(#p4aaae4715f)" style="fill: #7f7f7f; opacity: 0.5"/>
   </g>
   <g id="patch_184">
    <path d="M 422.988063 448.56 
L 424.500697 448.56 
L 424.500697 448.56 
L 422.988063 448.56 
z
" clip-path="url(#p4aaae4715f)" style="fill: #7f7f7f; opacity: 0.5"/>
   </g>
   <g id="patch_185">
    <path d="M 424.878856 448.56 
L 426.39149 448.56 
L 426.39149 448.56 
L 424.878856 448.56 
z
" clip-path="url(#p4aaae4715f)" style="fill: #7f7f7f; opacity: 0.5"/>
   </g>
   <g id="patch_186">
    <path d="M 426.769649 448.56 
L 428.282283 448.56 
L 428.282283 448.56 
L 426.769649 448.56 
z
" clip-path="url(#p4aaae4715f)" style="fill: #7f7f7f; opacity: 0.5"/>
   </g>
   <g id="patch_187">
    <path d="M 428.660441 448.56 
L 430.173076 448.56 
L 430.173076 448.56 
L 428.660441 448.56 
z
" clip-path="url(#p4aaae4715f)" style="fill: #7f7f7f; opacity: 0.5"/>
   </g>
   <g id="patch_188">
    <path d="M 430.551234 448.56 
L 432.063869 448.56 
L 432.063869 448.56 
L 430.551234 448.56 
z
" clip-path="url(#p4aaae4715f)" style="fill: #7f7f7f; opacity: 0.5"/>
   </g>
   <g id="patch_189">
    <path d="M 432.442027 448.56 
L 433.954662 448.56 
L 433.954662 448.56 
L 432.442027 448.56 
z
" clip-path="url(#p4aaae4715f)" style="fill: #7f7f7f; opacity: 0.5"/>
   </g>
   <g id="patch_190">
    <path d="M 434.33282 448.56 
L 435.845455 448.56 
L 435.845455 448.56 
L 434.33282 448.56 
z
" clip-path="url(#p4aaae4715f)" style="fill: #7f7f7f; opacity: 0.5"/>
   </g>
   <g id="FillBetweenPolyCollection_1">
    <defs>
     <path id="m274a986ea2" d="M 81.510863 -82.817778 
L 81.510863 -82.817778 
L 83.401656 -82.817778 
L 85.292448 -82.817778 
L 87.183241 -55.44 
L 89.074034 -55.44 
L 90.964827 -55.44 
L 92.85562 -55.44 
L 94.746413 -55.44 
L 96.637206 -55.44 
L 98.527999 -69.128889 
L 100.418792 -55.44 
L 102.309585 -55.44 
L 104.200378 -55.44 
L 106.09117 -55.44 
L 107.981963 -55.44 
L 109.872756 -55.44 
L 111.763549 -55.44 
L 113.654342 -55.44 
L 115.545135 -55.44 
L 117.435928 -69.128889 
L 119.326721 -55.44 
L 121.217514 -55.44 
L 123.108307 -69.128889 
L 124.9991 -55.44 
L 126.889893 -69.128889 
L 128.780685 -55.44 
L 130.671478 -69.128889 
L 132.562271 -55.44 
L 134.453064 -69.128889 
L 136.343857 -69.128889 
L 138.23465 -55.44 
L 140.125443 -69.128889 
L 142.016236 -69.128889 
L 143.907029 -55.44 
L 145.797822 -69.128889 
L 147.688615 -55.44 
L 149.579407 -55.44 
L 151.4702 -96.506667 
L 153.360993 -82.817778 
L 155.251786 -69.128889 
L 157.142579 -69.128889 
L 159.033372 -69.128889 
L 160.924165 -69.128889 
L 162.814958 -96.506667 
L 164.705751 -55.44 
L 166.596544 -69.128889 
L 168.487337 -69.128889 
L 170.37813 -110.195556 
L 172.268922 -96.506667 
L 174.159715 -96.506667 
L 176.050508 -82.817778 
L 177.941301 -110.195556 
L 179.832094 -110.195556 
L 181.722887 -164.951111 
L 183.61368 -123.884444 
L 185.504473 -164.951111 
L 187.395266 -123.884444 
L 189.286059 -110.195556 
L 191.176852 -123.884444 
L 193.067644 -151.262222 
L 194.958437 -82.817778 
L 196.84923 -69.128889 
L 198.740023 -164.951111 
L 200.630816 -82.817778 
L 202.521609 -110.195556 
L 204.412402 -82.817778 
L 206.303195 -192.328889 
L 208.193988 -178.64 
L 210.084781 -178.64 
L 211.975574 -164.951111 
L 213.866367 -192.328889 
L 215.757159 -233.395556 
L 217.647952 -247.084444 
L 219.538745 -164.951111 
L 221.429538 -233.395556 
L 223.320331 -96.506667 
L 225.211124 -274.462222 
L 227.101917 -219.706667 
L 228.99271 -137.573333 
L 230.883503 -123.884444 
L 232.774296 -82.817778 
L 234.665089 -123.884444 
L 236.555881 -164.951111 
L 238.446674 -247.084444 
L 240.337467 -151.262222 
L 242.22826 -178.64 
L 244.119053 -110.195556 
L 246.009846 -123.884444 
L 247.900639 -96.506667 
L 249.791432 -82.817778 
L 251.682225 -82.817778 
L 253.573018 -55.44 
L 255.463811 -69.128889 
L 257.354604 -82.817778 
L 259.245396 -96.506667 
L 261.136189 -69.128889 
L 263.026982 -96.506667 
L 264.917775 -82.817778 
L 266.808568 -55.44 
L 268.699361 -55.44 
L 270.590154 -69.128889 
L 272.480947 -82.817778 
L 274.37174 -69.128889 
L 276.262533 -55.44 
L 278.153326 -69.128889 
L 280.044119 -55.44 
L 281.934911 -69.128889 
L 283.825704 -55.44 
L 285.716497 -55.44 
L 287.60729 -55.44 
L 289.498083 -69.128889 
L 291.388876 -69.128889 
L 293.279669 -55.44 
L 295.170462 -55.44 
L 297.061255 -55.44 
L 298.952048 -69.128889 
L 300.842841 -55.44 
L 302.733633 -55.44 
L 304.624426 -55.44 
L 306.515219 -55.44 
L 308.406012 -55.44 
L 310.296805 -55.44 
L 312.187598 -55.44 
L 314.078391 -55.44 
L 315.969184 -55.44 
L 317.859977 -69.128889 
L 319.75077 -55.44 
L 321.641563 -55.44 
L 323.532356 -55.44 
L 325.423148 -55.44 
L 327.313941 -55.44 
L 329.204734 -55.44 
L 331.095527 -69.128889 
L 332.98632 -55.44 
L 334.877113 -55.44 
L 336.767906 -55.44 
L 338.658699 -55.44 
L 340.549492 -55.44 
L 342.440285 -55.44 
L 344.331078 -55.44 
L 346.22187 -55.44 
L 348.112663 -55.44 
L 350.003456 -55.44 
L 351.894249 -55.44 
L 353.785042 -55.44 
L 355.675835 -55.44 
L 357.566628 -55.44 
L 359.457421 -55.44 
L 361.348214 -55.44 
L 363.239007 -55.44 
L 365.1298 -55.44 
L 367.020593 -55.44 
L 368.911385 -55.44 
L 370.802178 -55.44 
L 372.692971 -55.44 
L 374.583764 -55.44 
L 376.474557 -55.44 
L 378.36535 -55.44 
L 380.256143 -55.44 
L 382.146936 -55.44 
L 384.037729 -55.44 
L 385.928522 -55.44 
L 387.819315 -55.44 
L 389.710107 -55.44 
L 391.6009 -55.44 
L 393.491693 -55.44 
L 395.382486 -55.44 
L 397.273279 -55.44 
L 399.164072 -55.44 
L 401.054865 -55.44 
L 402.945658 -55.44 
L 404.836451 -55.44 
L 406.727244 -55.44 
L 408.618037 -55.44 
L 410.50883 -55.44 
L 412.399622 -55.44 
L 414.290415 -55.44 
L 416.181208 -55.44 
L 418.072001 -55.44 
L 419.962794 -55.44 
L 421.853587 -55.44 
L 423.74438 -55.44 
L 425.635173 -55.44 
L 427.525966 -55.44 
L 429.416759 -55.44 
L 431.307552 -55.44 
L 433.198344 -55.44 
L 435.089137 -55.44 
L 435.089137 -55.44 
L 435.089137 -55.44 
L 433.198344 -55.44 
L 431.307552 -55.44 
L 429.416759 -55.44 
L 427.525966 -55.44 
L 425.635173 -55.44 
L 423.74438 -55.44 
L 421.853587 -55.44 
L 419.962794 -55.44 
L 418.072001 -55.44 
L 416.181208 -55.44 
L 414.290415 -55.44 
L 412.399622 -55.44 
L 410.50883 -55.44 
L 408.618037 -55.44 
L 406.727244 -55.44 
L 404.836451 -55.44 
L 402.945658 -55.44 
L 401.054865 -55.44 
L 399.164072 -55.44 
L 397.273279 -55.44 
L 395.382486 -55.44 
L 393.491693 -55.44 
L 391.6009 -55.44 
L 389.710107 -55.44 
L 387.819315 -55.44 
L 385.928522 -55.44 
L 384.037729 -55.44 
L 382.146936 -55.44 
L 380.256143 -55.44 
L 378.36535 -55.44 
L 376.474557 -55.44 
L 374.583764 -55.44 
L 372.692971 -55.44 
L 370.802178 -55.44 
L 368.911385 -55.44 
L 367.020593 -55.44 
L 365.1298 -55.44 
L 363.239007 -55.44 
L 361.348214 -55.44 
L 359.457421 -55.44 
L 357.566628 -55.44 
L 355.675835 -55.44 
L 353.785042 -55.44 
L 351.894249 -55.44 
L 350.003456 -55.44 
L 348.112663 -55.44 
L 346.22187 -55.44 
L 344.331078 -55.44 
L 342.440285 -55.44 
L 340.549492 -55.44 
L 338.658699 -55.44 
L 336.767906 -55.44 
L 334.877113 -55.44 
L 332.98632 -55.44 
L 331.095527 -69.128889 
L 329.204734 -55.44 
L 327.313941 -55.44 
L 325.423148 -55.44 
L 323.532356 -55.44 
L 321.641563 -69.128889 
L 319.75077 -69.128889 
L 317.859977 -82.817778 
L 315.969184 -69.128889 
L 314.078391 -69.128889 
L 312.187598 -69.128889 
L 310.296805 -69.128889 
L 308.406012 -69.128889 
L 306.515219 -69.128889 
L 304.624426 -69.128889 
L 302.733633 -69.128889 
L 300.842841 -69.128889 
L 298.952048 -82.817778 
L 297.061255 -69.128889 
L 295.170462 -69.128889 
L 293.279669 -69.128889 
L 291.388876 -82.817778 
L 289.498083 -82.817778 
L 287.60729 -69.128889 
L 285.716497 -82.817778 
L 283.825704 -82.817778 
L 281.934911 -96.506667 
L 280.044119 -82.817778 
L 278.153326 -96.506667 
L 276.262533 -82.817778 
L 274.37174 -96.506667 
L 272.480947 -123.884444 
L 270.590154 -110.195556 
L 268.699361 -96.506667 
L 266.808568 -96.506667 
L 264.917775 -123.884444 
L 263.026982 -151.262222 
L 261.136189 -123.884444 
L 259.245396 -151.262222 
L 257.354604 -137.573333 
L 255.463811 -124.226667 
L 253.573018 -110.195556 
L 251.682225 -151.262222 
L 249.791432 -151.262222 
L 247.900639 -178.64 
L 246.009846 -219.706667 
L 244.119053 -206.017778 
L 242.22826 -288.151111 
L 240.337467 -274.462222 
L 238.446674 -370.284444 
L 236.555881 -274.462222 
L 234.665089 -219.706667 
L 232.774296 -192.328889 
L 230.883503 -233.395556 
L 228.99271 -247.084444 
L 227.101917 -356.595556 
L 225.211124 -425.04 
L 223.320331 -233.395556 
L 221.429538 -370.284444 
L 219.538745 -302.182222 
L 217.647952 -383.973333 
L 215.757159 -383.973333 
L 213.866367 -342.906667 
L 211.975574 -301.84 
L 210.084781 -301.84 
L 208.193988 -301.84 
L 206.303195 -315.528889 
L 204.412402 -192.328889 
L 202.521609 -219.706667 
L 200.630816 -192.328889 
L 198.740023 -274.462222 
L 196.84923 -164.951111 
L 194.958437 -178.64 
L 193.067644 -260.773333 
L 191.176852 -233.395556 
L 189.286059 -206.017778 
L 187.395266 -219.706667 
L 185.504473 -274.462222 
L 183.61368 -233.395556 
L 181.722887 -260.773333 
L 179.832094 -206.017778 
L 177.941301 -192.328889 
L 176.050508 -151.262222 
L 174.159715 -178.64 
L 172.268922 -164.951111 
L 170.37813 -178.64 
L 168.487337 -137.573333 
L 166.596544 -123.884444 
L 164.705751 -110.195556 
L 162.814958 -151.262222 
L 160.924165 -123.884444 
L 159.033372 -123.884444 
L 157.142579 -110.195556 
L 155.251786 -110.195556 
L 153.360993 -123.884444 
L 151.4702 -137.573333 
L 149.579407 -96.506667 
L 147.688615 -82.817778 
L 145.797822 -96.506667 
L 143.907029 -82.817778 
L 142.016236 -96.506667 
L 140.125443 -96.506667 
L 138.23465 -82.817778 
L 136.343857 -96.506667 
L 134.453064 -96.506667 
L 132.562271 -82.817778 
L 130.671478 -96.506667 
L 128.780685 -82.817778 
L 126.889893 -96.506667 
L 124.9991 -82.817778 
L 123.108307 -82.817778 
L 121.217514 -82.817778 
L 119.326721 -82.817778 
L 117.435928 -96.506667 
L 115.545135 -82.817778 
L 113.654342 -82.817778 
L 111.763549 -82.817778 
L 109.872756 -82.817778 
L 107.981963 -82.817778 
L 106.09117 -82.817778 
L 104.200378 -82.817778 
L 102.309585 -82.817778 
L 100.418792 -82.817778 
L 98.527999 -96.506667 
L 96.637206 -69.128889 
L 94.746413 -69.128889 
L 92.85562 -69.128889 
L 90.964827 -69.128889 
L 89.074034 -55.44 
L 87.183241 -55.44 
L 85.292448 -82.817778 
L 83.401656 -82.817778 
L 81.510863 -82.817778 
z
" style="stroke: #0173b2; stroke-opacity: 0.3"/>
    </defs>
    <g clip-path="url(#p4aaae4715f)">
     <use xlink:href="#m274a986ea2" x="0" y="504" style="fill: #0173b2; fill-opacity: 0.3; stroke: #0173b2; stroke-opacity: 0.3"/>
    </g>
   </g>
   <g id="matplotlib.axis_1">
    <g id="xtick_1">
     <g id="line2d_1">
      <defs>
       <path id="m0f67557de0" d="M 0 0 
L 0 3.5 
" style="stroke: #000000; stroke-width: 0.8"/>
      </defs>
      <g>
       <use xlink:href="#m0f67557de0" x="90.964827" y="448.56" style="stroke: #000000; stroke-width: 0.8"/>
      </g>
     </g>
     <g id="text_1">
      <text style="font-size: 16px; font-family: 'Arial', sans-serif; text-anchor: middle" x="90.964827" y="467.208438" transform="rotate(-0 90.964827 467.208438)">1 Jul</text>
     </g>
    </g>
    <g id="xtick_2">
     <g id="line2d_2">
      <g>
       <use xlink:href="#m0f67557de0" x="149.579407" y="448.56" style="stroke: #000000; stroke-width: 0.8"/>
      </g>
     </g>
     <g id="text_2">
      <text style="font-size: 16px; font-family: 'Arial', sans-serif; text-anchor: middle" x="149.579407" y="467.208438" transform="rotate(-0 149.579407 467.208438)">1 Aug</text>
     </g>
    </g>
    <g id="xtick_3">
     <g id="line2d_3">
      <g>
       <use xlink:href="#m0f67557de0" x="208.193988" y="448.56" style="stroke: #000000; stroke-width: 0.8"/>
      </g>
     </g>
     <g id="text_3">
      <text style="font-size: 16px; font-family: 'Arial', sans-serif; text-anchor: middle" x="208.193988" y="467.208438" transform="rotate(-0 208.193988 467.208438)">1 Sep</text>
     </g>
    </g>
    <g id="xtick_4">
     <g id="line2d_4">
      <g>
       <use xlink:href="#m0f67557de0" x="264.917775" y="448.56" style="stroke: #000000; stroke-width: 0.8"/>
      </g>
     </g>
     <g id="text_4">
      <text style="font-size: 16px; font-family: 'Arial', sans-serif; text-anchor: middle" x="264.917775" y="467.2175" transform="rotate(-0 264.917775 467.2175)">1 Oct</text>
     </g>
    </g>
    <g id="xtick_5">
     <g id="line2d_5">
      <g>
       <use xlink:href="#m0f67557de0" x="323.532356" y="448.56" style="stroke: #000000; stroke-width: 0.8"/>
      </g>
     </g>
     <g id="text_5">
      <text style="font-size: 16px; font-family: 'Arial', sans-serif; text-anchor: middle" x="323.532356" y="467.208438" transform="rotate(-0 323.532356 467.208438)">1 Nov</text>
     </g>
    </g>
    <g id="xtick_6">
     <g id="line2d_6">
      <g>
       <use xlink:href="#m0f67557de0" x="380.256143" y="448.56" style="stroke: #000000; stroke-width: 0.8"/>
      </g>
     </g>
     <g id="text_6">
      <text style="font-size: 16px; font-family: 'Arial', sans-serif; text-anchor: middle" x="380.256143" y="467.208438" transform="rotate(-0 380.256143 467.208438)">1 Dec</text>
     </g>
    </g>
    <g id="xtick_7">
     <g id="line2d_7">
      <g>
       <use xlink:href="#m0f67557de0" x="438.870723" y="448.56" style="stroke: #000000; stroke-width: 0.8"/>
      </g>
     </g>
     <g id="text_7">
      <text style="font-size: 16px; font-family: 'Arial', sans-serif; text-anchor: middle" x="438.870723" y="467.208438" transform="rotate(-0 438.870723 467.208438)">1 Jan</text>
     </g>
    </g>
    <g id="text_8">
     <text style="font-size: 16px; font-family: 'Arial', sans-serif; text-anchor: middle" x="258.3" y="486.233125" transform="rotate(-0 258.3 486.233125)">Date (2017)</text>
    </g>
   </g>
   <g id="matplotlib.axis_2">
    <g id="ytick_1">
     <g id="line2d_8">
      <defs>
       <path id="mca3c54ccc6" d="M 0 0 
L -3.5 0 
" style="stroke: #000000; stroke-width: 0.8"/>
      </defs>
      <g>
       <use xlink:href="#mca3c54ccc6" x="63" y="448.56" style="stroke: #000000; stroke-width: 0.8"/>
      </g>
     </g>
     <g id="text_9">
      <text style="font-size: 16px; font-family: 'Arial', sans-serif; text-anchor: end" x="56" y="454.384219" transform="rotate(-0 56 454.384219)">0</text>
     </g>
    </g>
    <g id="ytick_2">
     <g id="line2d_9">
      <g>
       <use xlink:href="#mca3c54ccc6" x="63" y="380.115556" style="stroke: #000000; stroke-width: 0.8"/>
      </g>
     </g>
     <g id="text_10">
      <text style="font-size: 16px; font-family: 'Arial', sans-serif; text-anchor: end" x="56" y="385.939774" transform="rotate(-0 56 385.939774)">5</text>
     </g>
    </g>
    <g id="ytick_3">
     <g id="line2d_10">
      <g>
       <use xlink:href="#mca3c54ccc6" x="63" y="311.671111" style="stroke: #000000; stroke-width: 0.8"/>
      </g>
     </g>
     <g id="text_11">
      <text style="font-size: 16px; font-family: 'Arial', sans-serif; text-anchor: end" x="56" y="317.49533" transform="rotate(-0 56 317.49533)">10</text>
     </g>
    </g>
    <g id="ytick_4">
     <g id="line2d_11">
      <g>
       <use xlink:href="#mca3c54ccc6" x="63" y="243.226667" style="stroke: #000000; stroke-width: 0.8"/>
      </g>
     </g>
     <g id="text_12">
      <text style="font-size: 16px; font-family: 'Arial', sans-serif; text-anchor: end" x="56" y="249.050885" transform="rotate(-0 56 249.050885)">15</text>
     </g>
    </g>
    <g id="ytick_5">
     <g id="line2d_12">
      <g>
       <use xlink:href="#mca3c54ccc6" x="63" y="174.782222" style="stroke: #000000; stroke-width: 0.8"/>
      </g>
     </g>
     <g id="text_13">
      <text style="font-size: 16px; font-family: 'Arial', sans-serif; text-anchor: end" x="56" y="180.606441" transform="rotate(-0 56 180.606441)">20</text>
     </g>
    </g>
    <g id="ytick_6">
     <g id="line2d_13">
      <g>
       <use xlink:href="#mca3c54ccc6" x="63" y="106.337778" style="stroke: #000000; stroke-width: 0.8"/>
      </g>
     </g>
     <g id="text_14">
      <text style="font-size: 16px; font-family: 'Arial', sans-serif; text-anchor: end" x="56" y="112.161997" transform="rotate(-0 56 112.161997)">25</text>
     </g>
    </g>
    <g id="text_15">
     <text style="font-size: 16px; font-family: 'Arial', sans-serif; text-anchor: middle" x="30.8375" y="254.52" transform="rotate(-90 30.8375 254.52)">Cases per day</text>
    </g>
   </g>
   <g id="line2d_14">
    <path d="M 81.510863 421.182222 
L 85.292448 421.177089 
L 87.183241 448.530911 
L 89.074034 448.428244 
L 94.746413 447.102133 
L 96.637206 445.8342 
L 98.527999 431.339378 
L 100.418792 444.523489 
L 102.309585 443.534467 
L 104.200378 443.469444 
L 106.09117 444.191533 
L 107.981963 443.984489 
L 109.872756 443.94 
L 111.763549 444.420822 
L 113.654342 444.619311 
L 115.545135 444.677489 
L 117.435928 431.1734 
L 119.326721 445.0642 
L 121.217514 445.308889 
L 123.108307 431.197356 
L 124.9991 444.917044 
L 126.889893 431.479689 
L 128.780685 444.574822 
L 130.671478 430.949244 
L 132.562271 444.362644 
L 134.453064 430.269933 
L 136.343857 429.3408 
L 138.23465 442.986911 
L 140.125443 429.429778 
L 142.016236 428.651222 
L 143.907029 442.093711 
L 145.797822 427.766578 
L 147.688615 440.7676 
L 149.579407 439.573244 
L 151.4702 397.355 
L 155.251786 422.135311 
L 157.142579 421.106933 
L 159.033372 420.218867 
L 160.924165 419.868089 
L 162.814958 390.383933 
L 164.705751 431.325689 
L 166.596544 415.227556 
L 168.487337 413.112622 
L 170.37813 369.546022 
L 172.268922 382.218511 
L 174.159715 379.665533 
L 176.050508 393.417733 
L 177.941301 362.232733 
L 179.832094 358.635978 
L 181.722887 297.573267 
L 183.61368 336.714933 
L 185.504473 293.141489 
L 187.395266 335.731044 
L 189.286059 349.3224 
L 191.176852 334.928533 
L 193.067644 306.613067 
L 194.958437 377.959556 
L 196.84923 392.581 
L 198.740023 292.438222 
L 200.630816 375.314178 
L 202.521609 345.169533 
L 204.412402 370.196244 
L 206.303195 264.281889 
L 208.193988 273.539 
L 210.084781 269.882356 
L 211.975574 279.892356 
L 213.866367 246.024333 
L 215.757159 201.345511 
L 217.647952 199.011556 
L 219.538745 274.452733 
L 221.429538 206.607178 
L 223.320331 348.728644 
L 225.211124 164.043289 
L 227.101917 223.509533 
L 228.99271 318.435133 
L 230.883503 341.370867 
L 232.774296 370.793422 
L 234.665089 340.424622 
L 236.555881 293.742089 
L 238.446674 204.281778 
L 240.337467 306.676378 
L 242.22826 284.536311 
L 244.119053 349.450733 
L 246.009846 341.393111 
L 247.900639 374.313178 
L 249.791432 394.603533 
L 251.682225 398.145533 
L 253.573018 428.079711 
L 257.354604 401.785067 
L 259.245396 388.460644 
L 261.136189 417.215867 
L 263.026982 390.428422 
L 264.917775 407.234956 
L 266.808568 435.774578 
L 268.699361 438.178689 
L 270.590154 425.492511 
L 272.480947 412.0004 
L 276.262533 442.121089 
L 278.153326 429.019111 
L 280.044119 443.842467 
L 281.934911 430.367467 
L 283.825704 444.600489 
L 285.716497 444.973511 
L 287.60729 445.731533 
L 289.498083 431.868111 
L 291.388876 432.321556 
L 293.279669 446.130222 
L 297.061255 446.871133 
L 298.952048 433.149733 
L 300.842841 446.954978 
L 302.733633 447.257844 
L 304.624426 447.131222 
L 308.406012 447.673644 
L 310.296805 447.559 
L 312.187598 447.767756 
L 314.078391 447.6822 
L 315.969184 447.921756 
L 317.859977 434.374889 
L 319.75077 448.0518 
L 321.641563 448.1134 
L 323.532356 448.286222 
L 329.204734 448.334133 
L 331.095527 434.621289 
L 332.98632 448.305044 
L 338.658699 448.429956 
L 342.440285 448.402578 
L 344.331078 448.455622 
L 346.22187 448.364933 
L 348.112663 448.460756 
L 353.785042 448.443644 
L 355.675835 448.530911 
L 359.457421 448.493267 
L 363.239007 448.489844 
L 368.911385 448.518933 
L 374.583764 448.56 
L 414.290415 448.56 
L 435.089137 448.56 
L 435.089137 448.56 
" clip-path="url(#p4aaae4715f)" style="fill: none; stroke: #0173b2; stroke-width: 2; stroke-linecap: square"/>
   </g>
   <g id="patch_191">
    <path d="M 63 448.56 
L 63 60.48 
" style="fill: none; stroke: #000000; stroke-width: 0.8; stroke-linejoin: miter; stroke-linecap: square"/>
   </g>
   <g id="patch_192">
    <path d="M 63 448.56 
L 453.6 448.56 
" style="fill: none; stroke: #000000; stroke-width: 0.8; stroke-linejoin: miter; stroke-linecap: square"/>
   </g>
   <g id="legend_1">
    <g id="patch_193">
     <path d="M 237.954063 111.957617 
L 443.8 111.957617 
Q 446.6 111.957617 446.6 109.157617 
L 446.6 70.28 
Q 446.6 67.48 443.8 67.48 
L 237.954063 67.48 
Q 235.154063 67.48 235.154063 70.28 
L 235.154063 109.157617 
Q 235.154063 111.957617 237.954063 111.957617 
z
" style="fill: #ffffff; opacity: 0.8; stroke: #cccccc; stroke-linejoin: miter"/>
    </g>
    <g id="line2d_15">
     <path d="M 240.754063 78.372383 
L 254.754063 78.372383 
L 268.754063 78.372383 
" style="fill: none; stroke: #0173b2; stroke-width: 2; stroke-linecap: square"/>
    </g>
    <g id="text_16">
     <text style="font-size: 14px; font-family: 'Arial', sans-serif; text-anchor: start" x="279.954063" y="83.272383" transform="rotate(-0 279.954063 83.272383)">Estimated true (suitability)</text>
    </g>
    <g id="patch_194">
     <path d="M 240.754063 103.411328 
L 268.754063 103.411328 
L 268.754063 93.611328 
L 240.754063 93.611328 
z
" style="fill: #7f7f7f; opacity: 0.5"/>
    </g>
    <g id="text_17">
     <text style="font-size: 14px; font-family: 'Arial', sans-serif; text-anchor: start" x="279.954063" y="103.411328" transform="rotate(-0 279.954063 103.411328)">Reported</text>
    </g>
   </g>
  </g>
 </g>
 <defs>
  <clipPath id="p4aaae4715f">
   <rect x="63" y="60.48" width="390.6" height="388.08"/>
  </clipPath>
 </defs>
</svg>
