<?xml version="1.0" encoding="utf-8" standalone="no"?>
<!DOCTYPE svg PUBLIC "-//W3C//DTD SVG 1.1//EN"
  "http://www.w3.org/Graphics/SVG/1.1/DTD/svg11.dtd">
<svg xmlns:xlink="http://www.w3.org/1999/xlink" width="504pt" height="504pt" viewBox="0 0 504 504" xmlns="http://www.w3.org/2000/svg" version="1.1">
 <metadata>
  <rdf:RDF xmlns:dc="http://purl.org/dc/elements/1.1/" xmlns:cc="http://creativecommons.org/ns#" xmlns:rdf="http://www.w3.org/1999/02/22-rdf-syntax-ns#">
   <cc:Work>
    <dc:type rdf:resource="http://purl.org/dc/dcmitype/StillImage"/>
    <dc:date>2026-07-05T10:24:56.860504</dc:date>
    <dc:format>image/svg+xml</dc:format>
    <dc:creator>
     <cc:Agent>
      <dc:title>Matplotlib v3.11.0, https://matplotlib.org/</dc:title>
     </cc:Agent>
    </dc:creator>
   </cc:Work>
  </rdf:RDF>
 </metadata>
 <defs>
  <style type="text/css">*{stroke-linejoin: round; stroke-linecap: butt}</style>
 </defs>
 <g id="figure_1">
  <g id="patch_1">
   <path d="M 0 504 
L 504 504 
L 504 0 
L 0 0 
L 0 504 
z
" style="fill: none"/>
  </g>
  <g id="axes_1">
   <g id="patch_2">
    <path d="M 63 448.56 
L 453.6 448.56 
L 453.6 60.48 
L 63 60.48 
L 63 448.56 
z
" style="fill: none"/>
   </g>
   <g id="matplotlib.axis_1">
    <g id="xtick_1">
     <g id="line2d_1">
      <defs>
       <path id="mae31a4a050" d="M 0 0 
L 0 3.5 
" style="stroke: #000000; stroke-width: 0.8"/>
      </defs>
      <g>
       <use xlink:href="#mae31a4a050" x="63" y="448.56" style="stroke: #000000; stroke-width: 0.8"/>
      </g>
     </g>
     <g id="text_1">
      <text style="font-size: 16px; font-family: 'Arial', sans-serif; text-anchor: middle" x="63" y="467.208438" transform="rotate(-0 63 467.208438)">0.1</text>
     </g>
    </g>
    <g id="xtick_2">
     <g id="line2d_2">
      <g>
       <use xlink:href="#mae31a4a050" x="137.963636" y="448.56" style="stroke: #000000; stroke-width: 0.8"/>
      </g>
     </g>
     <g id="text_2">
      <text style="font-size: 16px; font-family: 'Arial', sans-serif; text-anchor: middle" x="137.963636" y="467.208438" transform="rotate(-0 137.963636 467.208438)">2.0</text>
     </g>
    </g>
    <g id="xtick_3">
     <g id="line2d_3">
      <g>
       <use xlink:href="#mae31a4a050" x="216.872727" y="448.56" style="stroke: #000000; stroke-width: 0.8"/>
      </g>
     </g>
     <g id="text_3">
      <text style="font-size: 16px; font-family: 'Arial', sans-serif; text-anchor: middle" x="216.872727" y="467.208438" transform="rotate(-0 216.872727 467.208438)">4.0</text>
     </g>
    </g>
    <g id="xtick_4">
     <g id="line2d_4">
      <g>
       <use xlink:href="#mae31a4a050" x="295.781818" y="448.56" style="stroke: #000000; stroke-width: 0.8"/>
      </g>
     </g>
     <g id="text_4">
      <text style="font-size: 16px; font-family: 'Arial', sans-serif; text-anchor: middle" x="295.781818" y="467.208438" transform="rotate(-0 295.781818 467.208438)">6.0</text>
     </g>
    </g>
    <g id="xtick_5">
     <g id="line2d_5">
      <g>
       <use xlink:href="#mae31a4a050" x="374.690909" y="448.56" style="stroke: #000000; stroke-width: 0.8"/>
      </g>
     </g>
     <g id="text_5">
      <text style="font-size: 16px; font-family: 'Arial', sans-serif; text-anchor: middle" x="374.690909" y="467.208438" transform="rotate(-0 374.690909 467.208438)">8.0</text>
     </g>
    </g>
    <g id="xtick_6">
     <g id="line2d_6">
      <g>
       <use xlink:href="#mae31a4a050" x="453.6" y="448.56" style="stroke: #000000; stroke-width: 0.8"/>
      </g>
     </g>
     <g id="text_6">
      <text style="font-size: 16px; font-family: 'Arial', sans-serif; text-anchor: middle" x="453.6" y="467.208438" transform="rotate(-0 453.6 467.208438)">10.0</text>
     </g>
    </g>
    <g id="text_7">
     <text style="font-size: 16px; font-family: 'Arial', sans-serif; text-anchor: middle" x="258.3" y="486.224063" transform="rotate(-0 258.3 486.224063)">Risk threshold (%)</text>
    </g>
   </g>
   <g id="matplotlib.axis_2">
    <g id="ytick_1">
     <g id="line2d_7">
      <defs>
       <path id="m3af4e66c50" d="M 0 0 
L -3.5 0 
" style="stroke: #000000; stroke-width: 0.8"/>
      </defs>
      <g>
       <use xlink:href="#m3af4e66c50" x="63" y="448.56" style="stroke: #000000; stroke-width: 0.8"/>
      </g>
     </g>
     <g id="text_8">
      <text style="font-size: 16px; font-family: 'Arial', sans-serif; text-anchor: end" x="56" y="454.384219" transform="rotate(-0 56 454.384219)">0</text>
     </g>
    </g>
    <g id="ytick_2">
     <g id="line2d_8">
      <g>
       <use xlink:href="#m3af4e66c50" x="63" y="378.255652" style="stroke: #000000; stroke-width: 0.8"/>
      </g>
     </g>
     <g id="text_9">
      <text style="font-size: 16px; font-family: 'Arial', sans-serif; text-anchor: end" x="56" y="384.079871" transform="rotate(-0 56 384.079871)">10</text>
     </g>
    </g>
    <g id="ytick_3">
     <g id="line2d_9">
      <g>
       <use xlink:href="#m3af4e66c50" x="63" y="307.951304" style="stroke: #000000; stroke-width: 0.8"/>
      </g>
     </g>
     <g id="text_10">
      <text style="font-size: 16px; font-family: 'Arial', sans-serif; text-anchor: end" x="56" y="313.775523" transform="rotate(-0 56 313.775523)">20</text>
     </g>
    </g>
    <g id="ytick_4">
     <g id="line2d_10">
      <g>
       <use xlink:href="#m3af4e66c50" x="63" y="237.646957" style="stroke: #000000; stroke-width: 0.8"/>
      </g>
     </g>
     <g id="text_11">
      <text style="font-size: 16px; font-family: 'Arial', sans-serif; text-anchor: end" x="56" y="243.471175" transform="rotate(-0 56 243.471175)">30</text>
     </g>
    </g>
    <g id="ytick_5">
     <g id="line2d_11">
      <g>
       <use xlink:href="#m3af4e66c50" x="63" y="167.342609" style="stroke: #000000; stroke-width: 0.8"/>
      </g>
     </g>
     <g id="text_12">
      <text style="font-size: 16px; font-family: 'Arial', sans-serif; text-anchor: end" x="56" y="173.166827" transform="rotate(-0 56 173.166827)">40</text>
     </g>
    </g>
    <g id="ytick_6">
     <g id="line2d_12">
      <g>
       <use xlink:href="#m3af4e66c50" x="63" y="97.038261" style="stroke: #000000; stroke-width: 0.8"/>
      </g>
     </g>
     <g id="text_13">
      <text style="font-size: 16px; font-family: 'Arial', sans-serif; text-anchor: end" x="56" y="102.86248" transform="rotate(-0 56 102.86248)">50</text>
     </g>
    </g>
    <g id="text_14">
     <text style="font-size: 16px; font-family: 'Arial', sans-serif" transform="translate(12.224219 359.88875) rotate(-90)">Days from last observed case</text>
     <text style="font-size: 16px; font-family: 'Arial', sans-serif" transform="translate(29.638594 358.56125) rotate(-90)">until risk falls below threshold</text>
    </g>
   </g>
   <g id="line2d_13">
    <path d="M 63 202.494783 
L 66.906 223.586087 
L 70.812 237.646957 
L 74.718 251.707826 
L 78.624 258.738261 
L 82.53 265.768696 
L 86.436 272.79913 
L 90.342 279.829565 
L 94.248 279.829565 
L 98.154 286.86 
L 102.06 293.890435 
L 105.966 293.890435 
L 109.872 293.890435 
L 113.778 300.92087 
L 117.684 300.92087 
L 121.59 307.951304 
L 125.496 307.951304 
L 129.402 307.951304 
L 133.308 307.951304 
L 137.214 314.981739 
L 141.12 314.981739 
L 145.026 314.981739 
L 148.932 314.981739 
L 152.838 322.012174 
L 156.744 322.012174 
L 160.65 322.012174 
L 164.556 322.012174 
L 168.462 322.012174 
L 172.368 329.042609 
L 176.274 329.042609 
L 180.18 329.042609 
L 184.086 329.042609 
L 187.992 329.042609 
L 191.898 329.042609 
L 195.804 329.042609 
L 199.71 336.073043 
L 203.616 336.073043 
L 207.522 336.073043 
L 211.428 336.073043 
L 215.334 336.073043 
L 219.24 336.073043 
L 223.146 336.073043 
L 227.052 336.073043 
L 230.958 336.073043 
L 234.864 343.103478 
L 238.77 343.103478 
L 242.676 343.103478 
L 246.582 343.103478 
L 250.488 343.103478 
L 254.394 343.103478 
L 258.3 343.103478 
L 262.206 343.103478 
L 266.112 343.103478 
L 270.018 343.103478 
L 273.924 350.133913 
L 277.83 350.133913 
L 281.736 350.133913 
L 285.642 350.133913 
L 289.548 350.133913 
L 293.454 350.133913 
L 297.36 350.133913 
L 301.266 350.133913 
L 305.172 350.133913 
L 309.078 350.133913 
L 312.984 350.133913 
L 316.89 350.133913 
L 320.796 357.164348 
L 324.702 357.164348 
L 328.608 357.164348 
L 332.514 357.164348 
L 336.42 357.164348 
L 340.326 357.164348 
L 344.232 357.164348 
L 348.138 357.164348 
L 352.044 357.164348 
L 355.95 357.164348 
L 359.856 357.164348 
L 363.762 357.164348 
L 367.668 357.164348 
L 371.574 364.194783 
L 375.48 364.194783 
L 379.386 364.194783 
L 383.292 364.194783 
L 387.198 364.194783 
L 391.104 364.194783 
L 395.01 364.194783 
L 398.916 364.194783 
L 402.822 364.194783 
L 406.728 364.194783 
L 410.634 364.194783 
L 414.54 364.194783 
L 418.446 364.194783 
L 422.352 364.194783 
L 426.258 364.194783 
L 430.164 371.225217 
L 434.07 371.225217 
L 437.976 371.225217 
L 441.882 371.225217 
L 445.788 371.225217 
L 449.694 371.225217 
L 453.6 371.225217 
" clip-path="url(#p9e1af03c86)" style="fill: none; stroke: #0173b2; stroke-width: 2; stroke-linecap: square"/>
   </g>
   <g id="line2d_14">
    <path d="M 63 272.79913 
L 66.906 286.86 
L 70.812 293.890435 
L 74.718 300.92087 
L 78.624 300.92087 
L 82.53 307.951304 
L 86.436 307.951304 
L 90.342 314.981739 
L 94.248 314.981739 
L 98.154 314.981739 
L 102.06 314.981739 
L 105.966 322.012174 
L 109.872 322.012174 
L 113.778 322.012174 
L 117.684 322.012174 
L 121.59 329.042609 
L 125.496 329.042609 
L 129.402 329.042609 
L 133.308 329.042609 
L 137.214 329.042609 
L 141.12 336.073043 
L 145.026 336.073043 
L 148.932 336.073043 
L 152.838 336.073043 
L 156.744 336.073043 
L 160.65 336.073043 
L 164.556 336.073043 
L 168.462 343.103478 
L 172.368 343.103478 
L 176.274 343.103478 
L 180.18 343.103478 
L 184.086 343.103478 
L 187.992 343.103478 
L 191.898 343.103478 
L 195.804 343.103478 
L 199.71 350.133913 
L 203.616 350.133913 
L 207.522 350.133913 
L 211.428 350.133913 
L 215.334 350.133913 
L 219.24 350.133913 
L 223.146 350.133913 
L 227.052 350.133913 
L 230.958 350.133913 
L 234.864 350.133913 
L 238.77 357.164348 
L 242.676 357.164348 
L 246.582 357.164348 
L 250.488 357.164348 
L 254.394 357.164348 
L 258.3 357.164348 
L 262.206 357.164348 
L 266.112 357.164348 
L 270.018 357.164348 
L 273.924 357.164348 
L 277.83 357.164348 
L 281.736 357.164348 
L 285.642 364.194783 
L 289.548 364.194783 
L 293.454 364.194783 
L 297.36 364.194783 
L 301.266 364.194783 
L 305.172 364.194783 
L 309.078 364.194783 
L 312.984 364.194783 
L 316.89 364.194783 
L 320.796 364.194783 
L 324.702 364.194783 
L 328.608 364.194783 
L 332.514 371.225217 
L 336.42 371.225217 
L 340.326 371.225217 
L 344.232 371.225217 
L 348.138 371.225217 
L 352.044 371.225217 
L 355.95 371.225217 
L 359.856 371.225217 
L 363.762 371.225217 
L 367.668 371.225217 
L 371.574 371.225217 
L 375.48 371.225217 
L 379.386 371.225217 
L 383.292 371.225217 
L 387.198 378.255652 
L 391.104 378.255652 
L 395.01 378.255652 
L 398.916 378.255652 
L 402.822 378.255652 
L 406.728 378.255652 
L 410.634 378.255652 
L 414.54 378.255652 
L 418.446 378.255652 
L 422.352 378.255652 
L 426.258 378.255652 
L 430.164 378.255652 
L 434.07 378.255652 
L 437.976 385.286087 
L 441.882 385.286087 
L 445.788 385.286087 
L 449.694 385.286087 
L 453.6 385.286087 
" clip-path="url(#p9e1af03c86)" style="fill: none; stroke-dasharray: 7.4,3.2; stroke-dashoffset: 0; stroke: #0173b2; stroke-width: 2"/>
   </g>
   <g id="line2d_15">
    <path d="M 63 75.946957 
L 66.906 111.09913 
L 70.812 132.190435 
L 74.718 139.22087 
L 78.624 153.281739 
L 82.53 160.312174 
L 86.436 167.342609 
L 90.342 174.373043 
L 94.248 181.403478 
L 98.154 188.433913 
L 102.06 188.433913 
L 105.966 195.464348 
L 109.872 195.464348 
L 113.778 202.494783 
L 117.684 202.494783 
L 121.59 209.525217 
L 125.496 209.525217 
L 129.402 216.555652 
L 133.308 216.555652 
L 137.214 216.555652 
L 141.12 223.586087 
L 145.026 223.586087 
L 148.932 223.586087 
L 152.838 230.616522 
L 156.744 230.616522 
L 160.65 230.616522 
L 164.556 230.616522 
L 168.462 237.646957 
L 172.368 237.646957 
L 176.274 237.646957 
L 180.18 237.646957 
L 184.086 244.677391 
L 187.992 244.677391 
L 191.898 244.677391 
L 195.804 244.677391 
L 199.71 251.707826 
L 203.616 251.707826 
L 207.522 251.707826 
L 211.428 251.707826 
L 215.334 251.707826 
L 219.24 258.738261 
L 223.146 258.738261 
L 227.052 258.738261 
L 230.958 258.738261 
L 234.864 258.738261 
L 238.77 258.738261 
L 242.676 265.768696 
L 246.582 265.768696 
L 250.488 265.768696 
L 254.394 265.768696 
L 258.3 265.768696 
L 262.206 265.768696 
L 266.112 265.768696 
L 270.018 272.79913 
L 273.924 272.79913 
L 277.83 272.79913 
L 281.736 272.79913 
L 285.642 272.79913 
L 289.548 272.79913 
L 293.454 272.79913 
L 297.36 279.829565 
L 301.266 279.829565 
L 305.172 279.829565 
L 309.078 279.829565 
L 312.984 279.829565 
L 316.89 279.829565 
L 320.796 279.829565 
L 324.702 279.829565 
L 328.608 279.829565 
L 332.514 286.86 
L 336.42 286.86 
L 340.326 286.86 
L 344.232 286.86 
L 348.138 286.86 
L 352.044 286.86 
L 355.95 286.86 
L 359.856 286.86 
L 363.762 286.86 
L 367.668 286.86 
L 371.574 286.86 
L 375.48 286.86 
L 379.386 293.890435 
L 383.292 293.890435 
L 387.198 293.890435 
L 391.104 293.890435 
L 395.01 293.890435 
L 398.916 293.890435 
L 402.822 293.890435 
L 406.728 293.890435 
L 410.634 293.890435 
L 414.54 293.890435 
L 418.446 293.890435 
L 422.352 293.890435 
L 426.258 293.890435 
L 430.164 300.92087 
L 434.07 300.92087 
L 437.976 300.92087 
L 441.882 300.92087 
L 445.788 300.92087 
L 449.694 300.92087 
L 453.6 300.92087 
" clip-path="url(#p9e1af03c86)" style="fill: none; stroke: #de8f05; stroke-width: 2; stroke-linecap: square"/>
   </g>
   <g id="line2d_16">
    <path d="M 63 237.646957 
L 66.906 244.677391 
L 70.812 251.707826 
L 74.718 258.738261 
L 78.624 265.768696 
L 82.53 265.768696 
L 86.436 265.768696 
L 90.342 272.79913 
L 94.248 272.79913 
L 98.154 272.79913 
L 102.06 279.829565 
L 105.966 279.829565 
L 109.872 279.829565 
L 113.778 279.829565 
L 117.684 279.829565 
L 121.59 286.86 
L 125.496 286.86 
L 129.402 286.86 
L 133.308 286.86 
L 137.214 286.86 
L 141.12 286.86 
L 145.026 286.86 
L 148.932 293.890435 
L 152.838 293.890435 
L 156.744 293.890435 
L 160.65 293.890435 
L 164.556 293.890435 
L 168.462 293.890435 
L 172.368 293.890435 
L 176.274 293.890435 
L 180.18 293.890435 
L 184.086 300.92087 
L 187.992 300.92087 
L 191.898 300.92087 
L 195.804 300.92087 
L 199.71 300.92087 
L 203.616 300.92087 
L 207.522 300.92087 
L 211.428 300.92087 
L 215.334 300.92087 
L 219.24 300.92087 
L 223.146 300.92087 
L 227.052 307.951304 
L 230.958 307.951304 
L 234.864 307.951304 
L 238.77 307.951304 
L 242.676 307.951304 
L 246.582 307.951304 
L 250.488 307.951304 
L 254.394 307.951304 
L 258.3 307.951304 
L 262.206 307.951304 
L 266.112 307.951304 
L 270.018 307.951304 
L 273.924 307.951304 
L 277.83 307.951304 
L 281.736 307.951304 
L 285.642 307.951304 
L 289.548 314.981739 
L 293.454 314.981739 
L 297.36 314.981739 
L 301.266 314.981739 
L 305.172 314.981739 
L 309.078 314.981739 
L 312.984 314.981739 
L 316.89 314.981739 
L 320.796 314.981739 
L 324.702 314.981739 
L 328.608 314.981739 
L 332.514 314.981739 
L 336.42 314.981739 
L 340.326 314.981739 
L 344.232 314.981739 
L 348.138 314.981739 
L 352.044 314.981739 
L 355.95 314.981739 
L 359.856 314.981739 
L 363.762 314.981739 
L 367.668 322.012174 
L 371.574 322.012174 
L 375.48 322.012174 
L 379.386 322.012174 
L 383.292 322.012174 
L 387.198 322.012174 
L 391.104 322.012174 
L 395.01 322.012174 
L 398.916 322.012174 
L 402.822 322.012174 
L 406.728 322.012174 
L 410.634 322.012174 
L 414.54 322.012174 
L 418.446 322.012174 
L 422.352 322.012174 
L 426.258 322.012174 
L 430.164 322.012174 
L 434.07 322.012174 
L 437.976 322.012174 
L 441.882 322.012174 
L 445.788 322.012174 
L 449.694 322.012174 
L 453.6 322.012174 
" clip-path="url(#p9e1af03c86)" style="fill: none; stroke-dasharray: 7.4,3.2; stroke-dashoffset: 0; stroke: #de8f05; stroke-width: 2"/>
   </g>
   <g id="line2d_17"/>
   <g id="line2d_18">
    <path d="M 63 265.768696 
L 453.6 265.768696 
" clip-path="url(#p9e1af03c86)" style="fill: none; stroke-dasharray: 2,3.3; stroke-dashoffset: 0; stroke: #d55e00; stroke-width: 2"/>
   </g>
   <g id="line2d_19">
    <path d="M 63 132.190435 
L 453.6 132.190435 
" clip-path="url(#p9e1af03c86)" style="fill: none; stroke-dasharray: 2,3.3; stroke-dashoffset: 0; stroke: #cc78bc; stroke-width: 2"/>
   </g>
   <g id="patch_3">
    <path d="M 63 448.56 
L 63 60.48 
" style="fill: none; stroke: #000000; stroke-width: 0.8; stroke-linejoin: miter; stroke-linecap: square"/>
   </g>
   <g id="patch_4">
    <path d="M 63 448.56 
L 453.6 448.56 
" style="fill: none; stroke: #000000; stroke-width: 0.8; stroke-linejoin: miter; stroke-linecap: square"/>
   </g>
   <g id="legend_1">
    <g id="patch_5">
     <path d="M 264.38125 172.374453 
L 443.8 172.374453 
Q 446.6 172.374453 446.6 169.574453 
L 446.6 70.28 
Q 446.6 67.48 443.8 67.48 
L 264.38125 67.48 
Q 261.58125 67.48 261.58125 70.28 
L 261.58125 169.574453 
Q 261.58125 172.374453 264.38125 172.374453 
z
" style="fill: #ffffff; opacity: 0.8; stroke: #cccccc; stroke-linejoin: miter"/>
    </g>
    <g id="line2d_20">
     <path d="M 267.18125 78.372383 
L 281.18125 78.372383 
L 295.18125 78.372383 
" style="fill: none; stroke: #0173b2; stroke-width: 2; stroke-linecap: square"/>
    </g>
    <g id="text_15">
     <text style="font-size: 14px; font-family: 'Arial', sans-serif; text-anchor: start" x="306.38125" y="83.272383" transform="rotate(-0 306.38125 83.272383)">Suitability-based</text>
    </g>
    <g id="line2d_21">
     <path d="M 267.18125 98.511328 
L 281.18125 98.511328 
L 295.18125 98.511328 
" style="fill: none; stroke: #de8f05; stroke-width: 2; stroke-linecap: square"/>
    </g>
    <g id="text_16">
     <text style="font-size: 14px; font-family: 'Arial', sans-serif; text-anchor: start" x="306.38125" y="103.411328" transform="rotate(-0 306.38125 103.411328)">Autoregressive</text>
    </g>
    <g id="line2d_22">
     <path d="M 267.18125 118.650273 
L 281.18125 118.650273 
L 295.18125 118.650273 
" style="fill: none; stroke-dasharray: 7.4,3.2; stroke-dashoffset: 0; stroke: #7f7f7f; stroke-width: 2"/>
    </g>
    <g id="text_17">
     <text style="font-size: 14px; font-family: 'Arial', sans-serif; text-anchor: start" x="306.38125" y="123.550273" transform="rotate(-0 306.38125 123.550273)">Full reporting</text>
    </g>
    <g id="line2d_23">
     <path d="M 267.18125 138.789219 
L 281.18125 138.789219 
L 295.18125 138.789219 
" style="fill: none; stroke-dasharray: 2,3.3; stroke-dashoffset: 0; stroke: #d55e00; stroke-width: 2"/>
    </g>
    <g id="text_18">
     <text style="font-size: 14px; font-family: 'Arial', sans-serif; text-anchor: start" x="306.38125" y="143.689219" transform="rotate(-0 306.38125 143.689219)">Blood measures lifted</text>
    </g>
    <g id="line2d_24">
     <path d="M 267.18125 158.927891 
L 281.18125 158.927891 
L 295.18125 158.927891 
" style="fill: none; stroke-dasharray: 2,3.3; stroke-dashoffset: 0; stroke: #cc78bc; stroke-width: 2"/>
    </g>
    <g id="text_19">
     <text style="font-size: 14px; font-family: 'Arial', sans-serif; text-anchor: start" x="306.38125" y="163.827891" transform="rotate(-0 306.38125 163.827891)">45-day rule</text>
    </g>
   </g>
  </g>
 </g>
 <defs>
  <clipPath id="p9e1af03c86">
   <rect x="63" y="60.48" width="390.6" height="388.08"/>
  </clipPath>
 </defs>
</svg>
