<?xml version="1.0" encoding="utf-8" standalone="no"?>
<!DOCTYPE svg PUBLIC "-//W3C//DTD SVG 1.1//EN"
  "http://www.w3.org/Graphics/SVG/1.1/DTD/svg11.dtd">
<svg xmlns:xlink="http://www.w3.org/1999/xlink" width="504pt" height="504pt" viewBox="0 0 504 504" xmlns="http://www.w3.org/2000/svg" version="1.1">
 <metadata>
  <rdf:RDF xmlns:dc="http://purl.org/dc/elements/1.1/" xmlns:cc="http://creativecommons.org/ns#" xmlns:rdf="http://www.w3.org/1999/02/22-rdf-syntax-ns#">
   <cc:Work>
    <dc:type rdf:resource="http://purl.org/dc/dcmitype/StillImage"/>
    <dc:date>2026-07-17T10:21:21.629289</dc:date>
    <dc:format>image/svg+xml</dc:format>
    <dc:creator>
     <cc:Agent>
      <dc:title>Matplotlib v3.11.0, https://matplotlib.org/</dc:title>
     </cc:Agent>
    </dc:creator>
   </cc:Work>
  </rdf:RDF>
 </metadata>
 <defs>
  <style type="text/css">*{stroke-linejoin: round; stroke-linecap: butt}</style>
 </defs>
 <g id="figure_1">
  <g id="patch_1">
   <path d="M 0 504 
L 504 504 
L 504 0 
L 0 0 
L 0 504 
z
" style="fill: none"/>
  </g>
  <g id="axes_1">
   <g id="patch_2">
    <path d="M 63 448.56 
L 453.6 448.56 
L 453.6 60.48 
L 63 60.48 
L 63 448.56 
z
" style="fill: none"/>
   </g>
   <g id="matplotlib.axis_1">
    <g id="xtick_1">
     <g id="line2d_1">
      <defs>
       <path id="m14ca783898" d="M 0 0 
L 0 3.5 
" style="stroke: #000000; stroke-width: 0.8"/>
      </defs>
      <g>
       <use xlink:href="#m14ca783898" x="63" y="448.56" style="stroke: #000000; stroke-width: 0.8"/>
      </g>
     </g>
     <g id="text_1">
      <text style="font-size: 16px; font-family: 'Arial', sans-serif; text-anchor: middle" x="63" y="467.208438" transform="rotate(-0 63 467.208438)">0.1</text>
     </g>
    </g>
    <g id="xtick_2">
     <g id="line2d_2">
      <g>
       <use xlink:href="#m14ca783898" x="137.963636" y="448.56" style="stroke: #000000; stroke-width: 0.8"/>
      </g>
     </g>
     <g id="text_2">
      <text style="font-size: 16px; font-family: 'Arial', sans-serif; text-anchor: middle" x="137.963636" y="467.208438" transform="rotate(-0 137.963636 467.208438)">2.0</text>
     </g>
    </g>
    <g id="xtick_3">
     <g id="line2d_3">
      <g>
       <use xlink:href="#m14ca783898" x="216.872727" y="448.56" style="stroke: #000000; stroke-width: 0.8"/>
      </g>
     </g>
     <g id="text_3">
      <text style="font-size: 16px; font-family: 'Arial', sans-serif; text-anchor: middle" x="216.872727" y="467.208438" transform="rotate(-0 216.872727 467.208438)">4.0</text>
     </g>
    </g>
    <g id="xtick_4">
     <g id="line2d_4">
      <g>
       <use xlink:href="#m14ca783898" x="295.781818" y="448.56" style="stroke: #000000; stroke-width: 0.8"/>
      </g>
     </g>
     <g id="text_4">
      <text style="font-size: 16px; font-family: 'Arial', sans-serif; text-anchor: middle" x="295.781818" y="467.208438" transform="rotate(-0 295.781818 467.208438)">6.0</text>
     </g>
    </g>
    <g id="xtick_5">
     <g id="line2d_5">
      <g>
       <use xlink:href="#m14ca783898" x="374.690909" y="448.56" style="stroke: #000000; stroke-width: 0.8"/>
      </g>
     </g>
     <g id="text_5">
      <text style="font-size: 16px; font-family: 'Arial', sans-serif; text-anchor: middle" x="374.690909" y="467.208438" transform="rotate(-0 374.690909 467.208438)">8.0</text>
     </g>
    </g>
    <g id="xtick_6">
     <g id="line2d_6">
      <g>
       <use xlink:href="#m14ca783898" x="453.6" y="448.56" style="stroke: #000000; stroke-width: 0.8"/>
      </g>
     </g>
     <g id="text_6">
      <text style="font-size: 16px; font-family: 'Arial', sans-serif; text-anchor: middle" x="453.6" y="467.208438" transform="rotate(-0 453.6 467.208438)">10.0</text>
     </g>
    </g>
    <g id="text_7">
     <text style="font-size: 16px; font-family: 'Arial', sans-serif; text-anchor: middle" x="258.3" y="486.224063" transform="rotate(-0 258.3 486.224063)">Risk threshold (%)</text>
    </g>
   </g>
   <g id="matplotlib.axis_2">
    <g id="ytick_1">
     <g id="line2d_7">
      <defs>
       <path id="m863f787977" d="M 0 0 
L -3.5 0 
" style="stroke: #000000; stroke-width: 0.8"/>
      </defs>
      <g>
       <use xlink:href="#m863f787977" x="63" y="448.56" style="stroke: #000000; stroke-width: 0.8"/>
      </g>
     </g>
     <g id="text_8">
      <text style="font-size: 16px; font-family: 'Arial', sans-serif; text-anchor: end" x="56" y="454.384219" transform="rotate(-0 56 454.384219)">0</text>
     </g>
    </g>
    <g id="ytick_2">
     <g id="line2d_8">
      <g>
       <use xlink:href="#m863f787977" x="63" y="379.568" style="stroke: #000000; stroke-width: 0.8"/>
      </g>
     </g>
     <g id="text_9">
      <text style="font-size: 16px; font-family: 'Arial', sans-serif; text-anchor: end" x="56" y="385.392219" transform="rotate(-0 56 385.392219)">10</text>
     </g>
    </g>
    <g id="ytick_3">
     <g id="line2d_9">
      <g>
       <use xlink:href="#m863f787977" x="63" y="310.576" style="stroke: #000000; stroke-width: 0.8"/>
      </g>
     </g>
     <g id="text_10">
      <text style="font-size: 16px; font-family: 'Arial', sans-serif; text-anchor: end" x="56" y="316.400219" transform="rotate(-0 56 316.400219)">20</text>
     </g>
    </g>
    <g id="ytick_4">
     <g id="line2d_10">
      <g>
       <use xlink:href="#m863f787977" x="63" y="241.584" style="stroke: #000000; stroke-width: 0.8"/>
      </g>
     </g>
     <g id="text_11">
      <text style="font-size: 16px; font-family: 'Arial', sans-serif; text-anchor: end" x="56" y="247.408219" transform="rotate(-0 56 247.408219)">30</text>
     </g>
    </g>
    <g id="ytick_5">
     <g id="line2d_11">
      <g>
       <use xlink:href="#m863f787977" x="63" y="172.592" style="stroke: #000000; stroke-width: 0.8"/>
      </g>
     </g>
     <g id="text_12">
      <text style="font-size: 16px; font-family: 'Arial', sans-serif; text-anchor: end" x="56" y="178.416219" transform="rotate(-0 56 178.416219)">40</text>
     </g>
    </g>
    <g id="ytick_6">
     <g id="line2d_12">
      <g>
       <use xlink:href="#m863f787977" x="63" y="103.6" style="stroke: #000000; stroke-width: 0.8"/>
      </g>
     </g>
     <g id="text_13">
      <text style="font-size: 16px; font-family: 'Arial', sans-serif; text-anchor: end" x="56" y="109.424219" transform="rotate(-0 56 109.424219)">50</text>
     </g>
    </g>
    <g id="text_14">
     <text style="font-size: 16px; font-family: 'Arial', sans-serif" transform="translate(12.224219 359.88875) rotate(-90)">Days from last observed case</text>
     <text style="font-size: 16px; font-family: 'Arial', sans-serif" transform="translate(29.638594 358.56125) rotate(-90)">until risk falls below threshold</text>
    </g>
   </g>
   <g id="line2d_13">
    <path d="M 63 213.9872 
L 66.906 234.6848 
L 70.812 248.4832 
L 74.718 262.2816 
L 78.624 269.1808 
L 82.53 276.08 
L 86.436 282.9792 
L 90.342 289.8784 
L 94.248 289.8784 
L 98.154 296.7776 
L 102.06 296.7776 
L 105.966 303.6768 
L 109.872 303.6768 
L 113.778 303.6768 
L 117.684 310.576 
L 121.59 310.576 
L 125.496 310.576 
L 129.402 317.4752 
L 133.308 317.4752 
L 137.214 317.4752 
L 141.12 317.4752 
L 145.026 324.3744 
L 148.932 324.3744 
L 152.838 324.3744 
L 156.744 324.3744 
L 160.65 324.3744 
L 164.556 331.2736 
L 168.462 331.2736 
L 172.368 331.2736 
L 176.274 331.2736 
L 180.18 331.2736 
L 184.086 331.2736 
L 187.992 331.2736 
L 191.898 338.1728 
L 195.804 338.1728 
L 199.71 338.1728 
L 203.616 338.1728 
L 207.522 338.1728 
L 211.428 338.1728 
L 215.334 338.1728 
L 219.24 338.1728 
L 223.146 345.072 
L 227.052 345.072 
L 230.958 345.072 
L 234.864 345.072 
L 238.77 345.072 
L 242.676 345.072 
L 246.582 345.072 
L 250.488 345.072 
L 254.394 345.072 
L 258.3 345.072 
L 262.206 351.9712 
L 266.112 351.9712 
L 270.018 351.9712 
L 273.924 351.9712 
L 277.83 351.9712 
L 281.736 351.9712 
L 285.642 351.9712 
L 289.548 351.9712 
L 293.454 351.9712 
L 297.36 351.9712 
L 301.266 351.9712 
L 305.172 351.9712 
L 309.078 358.8704 
L 312.984 358.8704 
L 316.89 358.8704 
L 320.796 358.8704 
L 324.702 358.8704 
L 328.608 358.8704 
L 332.514 358.8704 
L 336.42 358.8704 
L 340.326 358.8704 
L 344.232 358.8704 
L 348.138 358.8704 
L 352.044 358.8704 
L 355.95 358.8704 
L 359.856 365.7696 
L 363.762 365.7696 
L 367.668 365.7696 
L 371.574 365.7696 
L 375.48 365.7696 
L 379.386 365.7696 
L 383.292 365.7696 
L 387.198 365.7696 
L 391.104 365.7696 
L 395.01 365.7696 
L 398.916 365.7696 
L 402.822 365.7696 
L 406.728 365.7696 
L 410.634 365.7696 
L 414.54 365.7696 
L 418.446 372.6688 
L 422.352 372.6688 
L 426.258 372.6688 
L 430.164 372.6688 
L 434.07 372.6688 
L 437.976 372.6688 
L 441.882 372.6688 
L 445.788 372.6688 
L 449.694 372.6688 
L 453.6 372.6688 
" clip-path="url(#p322e83ba78)" style="fill: none; stroke: #0173b2; stroke-width: 2; stroke-linecap: square"/>
   </g>
   <g id="line2d_14">
    <path d="M 63 276.08 
L 66.906 289.8784 
L 70.812 296.7776 
L 74.718 303.6768 
L 78.624 303.6768 
L 82.53 310.576 
L 86.436 310.576 
L 90.342 310.576 
L 94.248 317.4752 
L 98.154 317.4752 
L 102.06 317.4752 
L 105.966 324.3744 
L 109.872 324.3744 
L 113.778 324.3744 
L 117.684 324.3744 
L 121.59 331.2736 
L 125.496 331.2736 
L 129.402 331.2736 
L 133.308 331.2736 
L 137.214 331.2736 
L 141.12 331.2736 
L 145.026 338.1728 
L 148.932 338.1728 
L 152.838 338.1728 
L 156.744 338.1728 
L 160.65 338.1728 
L 164.556 338.1728 
L 168.462 338.1728 
L 172.368 345.072 
L 176.274 345.072 
L 180.18 345.072 
L 184.086 345.072 
L 187.992 345.072 
L 191.898 345.072 
L 195.804 345.072 
L 199.71 345.072 
L 203.616 351.9712 
L 207.522 351.9712 
L 211.428 351.9712 
L 215.334 351.9712 
L 219.24 351.9712 
L 223.146 351.9712 
L 227.052 351.9712 
L 230.958 351.9712 
L 234.864 351.9712 
L 238.77 351.9712 
L 242.676 358.8704 
L 246.582 358.8704 
L 250.488 358.8704 
L 254.394 358.8704 
L 258.3 358.8704 
L 262.206 358.8704 
L 266.112 358.8704 
L 270.018 358.8704 
L 273.924 358.8704 
L 277.83 358.8704 
L 281.736 358.8704 
L 285.642 358.8704 
L 289.548 365.7696 
L 293.454 365.7696 
L 297.36 365.7696 
L 301.266 365.7696 
L 305.172 365.7696 
L 309.078 365.7696 
L 312.984 365.7696 
L 316.89 365.7696 
L 320.796 365.7696 
L 324.702 365.7696 
L 328.608 365.7696 
L 332.514 365.7696 
L 336.42 372.6688 
L 340.326 372.6688 
L 344.232 372.6688 
L 348.138 372.6688 
L 352.044 372.6688 
L 355.95 372.6688 
L 359.856 372.6688 
L 363.762 372.6688 
L 367.668 372.6688 
L 371.574 372.6688 
L 375.48 372.6688 
L 379.386 372.6688 
L 383.292 372.6688 
L 387.198 372.6688 
L 391.104 379.568 
L 395.01 379.568 
L 398.916 379.568 
L 402.822 379.568 
L 406.728 379.568 
L 410.634 379.568 
L 414.54 379.568 
L 418.446 379.568 
L 422.352 379.568 
L 426.258 379.568 
L 430.164 379.568 
L 434.07 379.568 
L 437.976 379.568 
L 441.882 379.568 
L 445.788 386.4672 
L 449.694 386.4672 
L 453.6 386.4672 
" clip-path="url(#p322e83ba78)" style="fill: none; stroke-dasharray: 7.4,3.2; stroke-dashoffset: 0; stroke: #0173b2; stroke-width: 2"/>
   </g>
   <g id="line2d_15">
    <path d="M 63 76.0032 
L 66.906 124.2976 
L 70.812 138.096 
L 74.718 151.8944 
L 78.624 158.7936 
L 82.53 165.6928 
L 86.436 179.4912 
L 90.342 179.4912 
L 94.248 186.3904 
L 98.154 193.2896 
L 102.06 193.2896 
L 105.966 200.1888 
L 109.872 207.088 
L 113.778 207.088 
L 117.684 207.088 
L 121.59 213.9872 
L 125.496 213.9872 
L 129.402 220.8864 
L 133.308 220.8864 
L 137.214 220.8864 
L 141.12 227.7856 
L 145.026 227.7856 
L 148.932 227.7856 
L 152.838 234.6848 
L 156.744 234.6848 
L 160.65 234.6848 
L 164.556 234.6848 
L 168.462 241.584 
L 172.368 241.584 
L 176.274 241.584 
L 180.18 248.4832 
L 184.086 248.4832 
L 187.992 248.4832 
L 191.898 248.4832 
L 195.804 248.4832 
L 199.71 255.3824 
L 203.616 255.3824 
L 207.522 255.3824 
L 211.428 255.3824 
L 215.334 255.3824 
L 219.24 262.2816 
L 223.146 262.2816 
L 227.052 262.2816 
L 230.958 262.2816 
L 234.864 262.2816 
L 238.77 262.2816 
L 242.676 262.2816 
L 246.582 269.1808 
L 250.488 269.1808 
L 254.394 269.1808 
L 258.3 269.1808 
L 262.206 269.1808 
L 266.112 269.1808 
L 270.018 269.1808 
L 273.924 276.08 
L 277.83 276.08 
L 281.736 276.08 
L 285.642 276.08 
L 289.548 276.08 
L 293.454 276.08 
L 297.36 276.08 
L 301.266 276.08 
L 305.172 282.9792 
L 309.078 282.9792 
L 312.984 282.9792 
L 316.89 282.9792 
L 320.796 282.9792 
L 324.702 282.9792 
L 328.608 282.9792 
L 332.514 282.9792 
L 336.42 282.9792 
L 340.326 289.8784 
L 344.232 289.8784 
L 348.138 289.8784 
L 352.044 289.8784 
L 355.95 289.8784 
L 359.856 289.8784 
L 363.762 289.8784 
L 367.668 289.8784 
L 371.574 289.8784 
L 375.48 289.8784 
L 379.386 289.8784 
L 383.292 289.8784 
L 387.198 296.7776 
L 391.104 296.7776 
L 395.01 296.7776 
L 398.916 296.7776 
L 402.822 296.7776 
L 406.728 296.7776 
L 410.634 296.7776 
L 414.54 296.7776 
L 418.446 296.7776 
L 422.352 296.7776 
L 426.258 296.7776 
L 430.164 296.7776 
L 434.07 296.7776 
L 437.976 303.6768 
L 441.882 303.6768 
L 445.788 303.6768 
L 449.694 303.6768 
L 453.6 303.6768 
" clip-path="url(#p322e83ba78)" style="fill: none; stroke: #de8f05; stroke-width: 2; stroke-linecap: square"/>
   </g>
   <g id="line2d_16">
    <path d="M 63 241.584 
L 66.906 248.4832 
L 70.812 255.3824 
L 74.718 262.2816 
L 78.624 269.1808 
L 82.53 269.1808 
L 86.436 269.1808 
L 90.342 276.08 
L 94.248 276.08 
L 98.154 276.08 
L 102.06 282.9792 
L 105.966 282.9792 
L 109.872 282.9792 
L 113.778 282.9792 
L 117.684 282.9792 
L 121.59 289.8784 
L 125.496 289.8784 
L 129.402 289.8784 
L 133.308 289.8784 
L 137.214 289.8784 
L 141.12 289.8784 
L 145.026 296.7776 
L 148.932 296.7776 
L 152.838 296.7776 
L 156.744 296.7776 
L 160.65 296.7776 
L 164.556 296.7776 
L 168.462 296.7776 
L 172.368 296.7776 
L 176.274 296.7776 
L 180.18 303.6768 
L 184.086 303.6768 
L 187.992 303.6768 
L 191.898 303.6768 
L 195.804 303.6768 
L 199.71 303.6768 
L 203.616 303.6768 
L 207.522 303.6768 
L 211.428 303.6768 
L 215.334 303.6768 
L 219.24 303.6768 
L 223.146 303.6768 
L 227.052 310.576 
L 230.958 310.576 
L 234.864 310.576 
L 238.77 310.576 
L 242.676 310.576 
L 246.582 310.576 
L 250.488 310.576 
L 254.394 310.576 
L 258.3 310.576 
L 262.206 310.576 
L 266.112 310.576 
L 270.018 310.576 
L 273.924 310.576 
L 277.83 310.576 
L 281.736 310.576 
L 285.642 310.576 
L 289.548 317.4752 
L 293.454 317.4752 
L 297.36 317.4752 
L 301.266 317.4752 
L 305.172 317.4752 
L 309.078 317.4752 
L 312.984 317.4752 
L 316.89 317.4752 
L 320.796 317.4752 
L 324.702 317.4752 
L 328.608 317.4752 
L 332.514 317.4752 
L 336.42 317.4752 
L 340.326 317.4752 
L 344.232 317.4752 
L 348.138 317.4752 
L 352.044 317.4752 
L 355.95 317.4752 
L 359.856 317.4752 
L 363.762 324.3744 
L 367.668 324.3744 
L 371.574 324.3744 
L 375.48 324.3744 
L 379.386 324.3744 
L 383.292 324.3744 
L 387.198 324.3744 
L 391.104 324.3744 
L 395.01 324.3744 
L 398.916 324.3744 
L 402.822 324.3744 
L 406.728 324.3744 
L 410.634 324.3744 
L 414.54 324.3744 
L 418.446 324.3744 
L 422.352 324.3744 
L 426.258 324.3744 
L 430.164 324.3744 
L 434.07 324.3744 
L 437.976 324.3744 
L 441.882 324.3744 
L 445.788 324.3744 
L 449.694 324.3744 
L 453.6 324.3744 
" clip-path="url(#p322e83ba78)" style="fill: none; stroke-dasharray: 7.4,3.2; stroke-dashoffset: 0; stroke: #de8f05; stroke-width: 2"/>
   </g>
   <g id="line2d_17">
    <path d="M 63 269.1808 
L 453.6 269.1808 
" clip-path="url(#p322e83ba78)" style="fill: none; stroke-dasharray: 2,3.3; stroke-dashoffset: 0; stroke: #d55e00; stroke-width: 2"/>
   </g>
   <g id="line2d_18">
    <path d="M 63 138.096 
L 453.6 138.096 
" clip-path="url(#p322e83ba78)" style="fill: none; stroke-dasharray: 2,3.3; stroke-dashoffset: 0; stroke: #cc78bc; stroke-width: 2"/>
   </g>
   <g id="patch_3">
    <path d="M 63 448.56 
L 63 60.48 
" style="fill: none; stroke: #000000; stroke-width: 0.8; stroke-linejoin: miter; stroke-linecap: square"/>
   </g>
   <g id="patch_4">
    <path d="M 63 448.56 
L 453.6 448.56 
" style="fill: none; stroke: #000000; stroke-width: 0.8; stroke-linejoin: miter; stroke-linecap: square"/>
   </g>
   <g id="legend_1">
    <g id="patch_5">
     <path d="M 206.034063 192.513398 
L 443.8 192.513398 
Q 446.6 192.513398 446.6 189.713398 
L 446.6 70.28 
Q 446.6 67.48 443.8 67.48 
L 206.034063 67.48 
Q 203.234062 67.48 203.234062 70.28 
L 203.234062 189.713398 
Q 203.234062 192.513398 206.034063 192.513398 
z
" style="fill: #ffffff; opacity: 0.8; stroke: #cccccc; stroke-linejoin: miter"/>
    </g>
    <g id="line2d_19">
     <path d="M 208.834062 78.372383 
L 222.834062 78.372383 
L 236.834062 78.372383 
" style="fill: none; stroke: #0173b2; stroke-width: 2; stroke-linecap: square"/>
    </g>
    <g id="text_15">
     <text style="font-size: 14px; font-family: 'Arial', sans-serif; text-anchor: start" x="248.034063" y="83.272383" transform="rotate(-0 248.034063 83.272383)">Suitability-based</text>
    </g>
    <g id="line2d_20">
     <path d="M 208.834062 98.511328 
L 222.834062 98.511328 
L 236.834062 98.511328 
" style="fill: none; stroke-dasharray: 7.4,3.2; stroke-dashoffset: 0; stroke: #0173b2; stroke-width: 2"/>
    </g>
    <g id="text_16">
     <text style="font-size: 14px; font-family: 'Arial', sans-serif; text-anchor: start" x="248.034063" y="103.411328" transform="rotate(-0 248.034063 103.411328)">Suitability-based (full reporting)</text>
    </g>
    <g id="line2d_21">
     <path d="M 208.834062 118.650273 
L 222.834062 118.650273 
L 236.834062 118.650273 
" style="fill: none; stroke: #de8f05; stroke-width: 2; stroke-linecap: square"/>
    </g>
    <g id="text_17">
     <text style="font-size: 14px; font-family: 'Arial', sans-serif; text-anchor: start" x="248.034063" y="123.550273" transform="rotate(-0 248.034063 123.550273)">Autoregressive</text>
    </g>
    <g id="line2d_22">
     <path d="M 208.834062 138.789219 
L 222.834062 138.789219 
L 236.834062 138.789219 
" style="fill: none; stroke-dasharray: 7.4,3.2; stroke-dashoffset: 0; stroke: #de8f05; stroke-width: 2"/>
    </g>
    <g id="text_18">
     <text style="font-size: 14px; font-family: 'Arial', sans-serif; text-anchor: start" x="248.034063" y="143.689219" transform="rotate(-0 248.034063 143.689219)">Autoregressive (full reporting)</text>
    </g>
    <g id="line2d_23">
     <path d="M 208.834062 158.928164 
L 222.834062 158.928164 
L 236.834062 158.928164 
" style="fill: none; stroke-dasharray: 2,3.3; stroke-dashoffset: 0; stroke: #d55e00; stroke-width: 2"/>
    </g>
    <g id="text_19">
     <text style="font-size: 14px; font-family: 'Arial', sans-serif; text-anchor: start" x="248.034063" y="163.828164" transform="rotate(-0 248.034063 163.828164)">Blood measures lifted</text>
    </g>
    <g id="line2d_24">
     <path d="M 208.834062 179.066836 
L 222.834062 179.066836 
L 236.834062 179.066836 
" style="fill: none; stroke-dasharray: 2,3.3; stroke-dashoffset: 0; stroke: #cc78bc; stroke-width: 2"/>
    </g>
    <g id="text_20">
     <text style="font-size: 14px; font-family: 'Arial', sans-serif; text-anchor: start" x="248.034063" y="183.966836" transform="rotate(-0 248.034063 183.966836)">45-day rule</text>
    </g>
   </g>
  </g>
 </g>
 <defs>
  <clipPath id="p322e83ba78">
   <rect x="63" y="60.48" width="390.6" height="388.08"/>
  </clipPath>
 </defs>
</svg>
