<?xml version="1.0" encoding="utf-8" standalone="no"?>
<!DOCTYPE svg PUBLIC "-//W3C//DTD SVG 1.1//EN"
  "http://www.w3.org/Graphics/SVG/1.1/DTD/svg11.dtd">
<svg xmlns:xlink="http://www.w3.org/1999/xlink" width="504pt" height="504pt" viewBox="0 0 504 504" xmlns="http://www.w3.org/2000/svg" version="1.1">
 <metadata>
  <rdf:RDF xmlns:dc="http://purl.org/dc/elements/1.1/" xmlns:cc="http://creativecommons.org/ns#" xmlns:rdf="http://www.w3.org/1999/02/22-rdf-syntax-ns#">
   <cc:Work>
    <dc:type rdf:resource="http://purl.org/dc/dcmitype/StillImage"/>
    <dc:date>2026-07-13T19:48:27.356495</dc:date>
    <dc:format>image/svg+xml</dc:format>
    <dc:creator>
     <cc:Agent>
      <dc:title>Matplotlib v3.11.0, https://matplotlib.org/</dc:title>
     </cc:Agent>
    </dc:creator>
   </cc:Work>
  </rdf:RDF>
 </metadata>
 <defs>
  <style type="text/css">*{stroke-linejoin: round; stroke-linecap: butt}</style>
 </defs>
 <g id="figure_1">
  <g id="patch_1">
   <path d="M 0 504 
L 504 504 
L 504 0 
L 0 0 
L 0 504 
z
" style="fill: none"/>
  </g>
  <g id="axes_1">
   <g id="patch_2">
    <path d="M 63 448.56 
L 453.6 448.56 
L 453.6 60.48 
L 63 60.48 
L 63 448.56 
z
" style="fill: none"/>
   </g>
   <g id="matplotlib.axis_1">
    <g id="ytick_1">
     <g id="line2d_1">
      <defs>
       <path id="mb98ea8d65b" d="M 0 0 
L 3.5 0 
" style="stroke: #7f7f7f; stroke-width: 0.8"/>
      </defs>
      <g>
       <use xlink:href="#mb98ea8d65b" x="453.6" y="448.56" style="fill: #7f7f7f; stroke: #7f7f7f; stroke-width: 0.8"/>
      </g>
     </g>
     <g id="text_1">
      <text style="font-size: 16px; font-family: 'Arial', sans-serif; text-anchor: start; fill: #7f7f7f" x="460.6" y="454.638125" transform="rotate(-0 460.6 454.638125)">0</text>
     </g>
    </g>
    <g id="ytick_2">
     <g id="line2d_2">
      <g>
       <use xlink:href="#mb98ea8d65b" x="453.6" y="396.816" style="fill: #7f7f7f; stroke: #7f7f7f; stroke-width: 0.8"/>
      </g>
     </g>
     <g id="text_2">
      <text style="font-size: 16px; font-family: 'Arial', sans-serif; text-anchor: start; fill: #7f7f7f" x="460.6" y="402.894125" transform="rotate(-0 460.6 402.894125)">2</text>
     </g>
    </g>
    <g id="ytick_3">
     <g id="line2d_3">
      <g>
       <use xlink:href="#mb98ea8d65b" x="453.6" y="345.072" style="fill: #7f7f7f; stroke: #7f7f7f; stroke-width: 0.8"/>
      </g>
     </g>
     <g id="text_3">
      <text style="font-size: 16px; font-family: 'Arial', sans-serif; text-anchor: start; fill: #7f7f7f" x="460.6" y="351.150125" transform="rotate(-0 460.6 351.150125)">4</text>
     </g>
    </g>
    <g id="ytick_4">
     <g id="line2d_4">
      <g>
       <use xlink:href="#mb98ea8d65b" x="453.6" y="293.328" style="fill: #7f7f7f; stroke: #7f7f7f; stroke-width: 0.8"/>
      </g>
     </g>
     <g id="text_4">
      <text style="font-size: 16px; font-family: 'Arial', sans-serif; text-anchor: start; fill: #7f7f7f" x="460.6" y="299.406125" transform="rotate(-0 460.6 299.406125)">6</text>
     </g>
    </g>
    <g id="ytick_5">
     <g id="line2d_5">
      <g>
       <use xlink:href="#mb98ea8d65b" x="453.6" y="241.584" style="fill: #7f7f7f; stroke: #7f7f7f; stroke-width: 0.8"/>
      </g>
     </g>
     <g id="text_5">
      <text style="font-size: 16px; font-family: 'Arial', sans-serif; text-anchor: start; fill: #7f7f7f" x="460.6" y="247.662125" transform="rotate(-0 460.6 247.662125)">8</text>
     </g>
    </g>
    <g id="ytick_6">
     <g id="line2d_6">
      <g>
       <use xlink:href="#mb98ea8d65b" x="453.6" y="189.84" style="fill: #7f7f7f; stroke: #7f7f7f; stroke-width: 0.8"/>
      </g>
     </g>
     <g id="text_6">
      <text style="font-size: 16px; font-family: 'Arial', sans-serif; text-anchor: start; fill: #7f7f7f" x="460.6" y="195.918125" transform="rotate(-0 460.6 195.918125)">10</text>
     </g>
    </g>
    <g id="ytick_7">
     <g id="line2d_7">
      <g>
       <use xlink:href="#mb98ea8d65b" x="453.6" y="138.096" style="fill: #7f7f7f; stroke: #7f7f7f; stroke-width: 0.8"/>
      </g>
     </g>
     <g id="text_7">
      <text style="font-size: 16px; font-family: 'Arial', sans-serif; text-anchor: start; fill: #7f7f7f" x="460.6" y="144.174125" transform="rotate(-0 460.6 144.174125)">12</text>
     </g>
    </g>
    <g id="ytick_8">
     <g id="line2d_8">
      <g>
       <use xlink:href="#mb98ea8d65b" x="453.6" y="86.352" style="fill: #7f7f7f; stroke: #7f7f7f; stroke-width: 0.8"/>
      </g>
     </g>
     <g id="text_8">
      <text style="font-size: 16px; font-family: 'Arial', sans-serif; text-anchor: start; fill: #7f7f7f" x="460.6" y="92.430125" transform="rotate(-0 460.6 92.430125)">14</text>
     </g>
    </g>
    <g id="text_9">
     <text style="font-size: 16px; font-family: 'Arial', sans-serif; text-anchor: middle; fill: #7f7f7f" x="497.1175" y="254.52" transform="rotate(-90 497.1175 254.52)">Number of cases</text>
    </g>
   </g>
   <g id="patch_3">
    <path d="M 62.102069 448.56 
L 63.897931 448.56 
L 63.897931 396.816 
L 62.102069 396.816 
z
" clip-path="url(#pd08c67a955)" style="fill: #7f7f7f; opacity: 0.5"/>
   </g>
   <g id="patch_4">
    <path d="M 64.346897 448.56 
L 66.142759 448.56 
L 66.142759 396.816 
L 64.346897 396.816 
z
" clip-path="url(#pd08c67a955)" style="fill: #7f7f7f; opacity: 0.5"/>
   </g>
   <g id="patch_5">
    <path d="M 66.591724 448.56 
L 68.387586 448.56 
L 68.387586 396.816 
L 66.591724 396.816 
z
" clip-path="url(#pd08c67a955)" style="fill: #7f7f7f; opacity: 0.5"/>
   </g>
   <g id="patch_6">
    <path d="M 68.836552 448.56 
L 70.632414 448.56 
L 70.632414 448.56 
L 68.836552 448.56 
z
" clip-path="url(#pd08c67a955)" style="fill: #7f7f7f; opacity: 0.5"/>
   </g>
   <g id="patch_7">
    <path d="M 71.081379 448.56 
L 72.877241 448.56 
L 72.877241 448.56 
L 71.081379 448.56 
z
" clip-path="url(#pd08c67a955)" style="fill: #7f7f7f; opacity: 0.5"/>
   </g>
   <g id="patch_8">
    <path d="M 73.326207 448.56 
L 75.122069 448.56 
L 75.122069 448.56 
L 73.326207 448.56 
z
" clip-path="url(#pd08c67a955)" style="fill: #7f7f7f; opacity: 0.5"/>
   </g>
   <g id="patch_9">
    <path d="M 75.571034 448.56 
L 77.366897 448.56 
L 77.366897 448.56 
L 75.571034 448.56 
z
" clip-path="url(#pd08c67a955)" style="fill: #7f7f7f; opacity: 0.5"/>
   </g>
   <g id="patch_10">
    <path d="M 77.815862 448.56 
L 79.611724 448.56 
L 79.611724 448.56 
L 77.815862 448.56 
z
" clip-path="url(#pd08c67a955)" style="fill: #7f7f7f; opacity: 0.5"/>
   </g>
   <g id="patch_11">
    <path d="M 80.06069 448.56 
L 81.856552 448.56 
L 81.856552 448.56 
L 80.06069 448.56 
z
" clip-path="url(#pd08c67a955)" style="fill: #7f7f7f; opacity: 0.5"/>
   </g>
   <g id="patch_12">
    <path d="M 82.305517 448.56 
L 84.101379 448.56 
L 84.101379 422.688 
L 82.305517 422.688 
z
" clip-path="url(#pd08c67a955)" style="fill: #7f7f7f; opacity: 0.5"/>
   </g>
   <g id="patch_13">
    <path d="M 84.550345 448.56 
L 86.346207 448.56 
L 86.346207 448.56 
L 84.550345 448.56 
z
" clip-path="url(#pd08c67a955)" style="fill: #7f7f7f; opacity: 0.5"/>
   </g>
   <g id="patch_14">
    <path d="M 86.795172 448.56 
L 88.591034 448.56 
L 88.591034 448.56 
L 86.795172 448.56 
z
" clip-path="url(#pd08c67a955)" style="fill: #7f7f7f; opacity: 0.5"/>
   </g>
   <g id="patch_15">
    <path d="M 89.04 448.56 
L 90.835862 448.56 
L 90.835862 448.56 
L 89.04 448.56 
z
" clip-path="url(#pd08c67a955)" style="fill: #7f7f7f; opacity: 0.5"/>
   </g>
   <g id="patch_16">
    <path d="M 91.284828 448.56 
L 93.08069 448.56 
L 93.08069 448.56 
L 91.284828 448.56 
z
" clip-path="url(#pd08c67a955)" style="fill: #7f7f7f; opacity: 0.5"/>
   </g>
   <g id="patch_17">
    <path d="M 93.529655 448.56 
L 95.325517 448.56 
L 95.325517 448.56 
L 93.529655 448.56 
z
" clip-path="url(#pd08c67a955)" style="fill: #7f7f7f; opacity: 0.5"/>
   </g>
   <g id="patch_18">
    <path d="M 95.774483 448.56 
L 97.570345 448.56 
L 97.570345 448.56 
L 95.774483 448.56 
z
" clip-path="url(#pd08c67a955)" style="fill: #7f7f7f; opacity: 0.5"/>
   </g>
   <g id="patch_19">
    <path d="M 98.01931 448.56 
L 99.815172 448.56 
L 99.815172 448.56 
L 98.01931 448.56 
z
" clip-path="url(#pd08c67a955)" style="fill: #7f7f7f; opacity: 0.5"/>
   </g>
   <g id="patch_20">
    <path d="M 100.264138 448.56 
L 102.06 448.56 
L 102.06 448.56 
L 100.264138 448.56 
z
" clip-path="url(#pd08c67a955)" style="fill: #7f7f7f; opacity: 0.5"/>
   </g>
   <g id="patch_21">
    <path d="M 102.508966 448.56 
L 104.304828 448.56 
L 104.304828 448.56 
L 102.508966 448.56 
z
" clip-path="url(#pd08c67a955)" style="fill: #7f7f7f; opacity: 0.5"/>
   </g>
   <g id="patch_22">
    <path d="M 104.753793 448.56 
L 106.549655 448.56 
L 106.549655 422.688 
L 104.753793 422.688 
z
" clip-path="url(#pd08c67a955)" style="fill: #7f7f7f; opacity: 0.5"/>
   </g>
   <g id="patch_23">
    <path d="M 106.998621 448.56 
L 108.794483 448.56 
L 108.794483 448.56 
L 106.998621 448.56 
z
" clip-path="url(#pd08c67a955)" style="fill: #7f7f7f; opacity: 0.5"/>
   </g>
   <g id="patch_24">
    <path d="M 109.243448 448.56 
L 111.03931 448.56 
L 111.03931 448.56 
L 109.243448 448.56 
z
" clip-path="url(#pd08c67a955)" style="fill: #7f7f7f; opacity: 0.5"/>
   </g>
   <g id="patch_25">
    <path d="M 111.488276 448.56 
L 113.284138 448.56 
L 113.284138 422.688 
L 111.488276 422.688 
z
" clip-path="url(#pd08c67a955)" style="fill: #7f7f7f; opacity: 0.5"/>
   </g>
   <g id="patch_26">
    <path d="M 113.733103 448.56 
L 115.528966 448.56 
L 115.528966 448.56 
L 113.733103 448.56 
z
" clip-path="url(#pd08c67a955)" style="fill: #7f7f7f; opacity: 0.5"/>
   </g>
   <g id="patch_27">
    <path d="M 115.977931 448.56 
L 117.773793 448.56 
L 117.773793 422.688 
L 115.977931 422.688 
z
" clip-path="url(#pd08c67a955)" style="fill: #7f7f7f; opacity: 0.5"/>
   </g>
   <g id="patch_28">
    <path d="M 118.222759 448.56 
L 120.018621 448.56 
L 120.018621 448.56 
L 118.222759 448.56 
z
" clip-path="url(#pd08c67a955)" style="fill: #7f7f7f; opacity: 0.5"/>
   </g>
   <g id="patch_29">
    <path d="M 120.467586 448.56 
L 122.263448 448.56 
L 122.263448 422.688 
L 120.467586 422.688 
z
" clip-path="url(#pd08c67a955)" style="fill: #7f7f7f; opacity: 0.5"/>
   </g>
   <g id="patch_30">
    <path d="M 122.712414 448.56 
L 124.508276 448.56 
L 124.508276 448.56 
L 122.712414 448.56 
z
" clip-path="url(#pd08c67a955)" style="fill: #7f7f7f; opacity: 0.5"/>
   </g>
   <g id="patch_31">
    <path d="M 124.957241 448.56 
L 126.753103 448.56 
L 126.753103 422.688 
L 124.957241 422.688 
z
" clip-path="url(#pd08c67a955)" style="fill: #7f7f7f; opacity: 0.5"/>
   </g>
   <g id="patch_32">
    <path d="M 127.202069 448.56 
L 128.997931 448.56 
L 128.997931 422.688 
L 127.202069 422.688 
z
" clip-path="url(#pd08c67a955)" style="fill: #7f7f7f; opacity: 0.5"/>
   </g>
   <g id="patch_33">
    <path d="M 129.446897 448.56 
L 131.242759 448.56 
L 131.242759 448.56 
L 129.446897 448.56 
z
" clip-path="url(#pd08c67a955)" style="fill: #7f7f7f; opacity: 0.5"/>
   </g>
   <g id="patch_34">
    <path d="M 131.691724 448.56 
L 133.487586 448.56 
L 133.487586 422.688 
L 131.691724 422.688 
z
" clip-path="url(#pd08c67a955)" style="fill: #7f7f7f; opacity: 0.5"/>
   </g>
   <g id="patch_35">
    <path d="M 133.936552 448.56 
L 135.732414 448.56 
L 135.732414 422.688 
L 133.936552 422.688 
z
" clip-path="url(#pd08c67a955)" style="fill: #7f7f7f; opacity: 0.5"/>
   </g>
   <g id="patch_36">
    <path d="M 136.181379 448.56 
L 137.977241 448.56 
L 137.977241 448.56 
L 136.181379 448.56 
z
" clip-path="url(#pd08c67a955)" style="fill: #7f7f7f; opacity: 0.5"/>
   </g>
   <g id="patch_37">
    <path d="M 138.426207 448.56 
L 140.222069 448.56 
L 140.222069 422.688 
L 138.426207 422.688 
z
" clip-path="url(#pd08c67a955)" style="fill: #7f7f7f; opacity: 0.5"/>
   </g>
   <g id="patch_38">
    <path d="M 140.671034 448.56 
L 142.466897 448.56 
L 142.466897 448.56 
L 140.671034 448.56 
z
" clip-path="url(#pd08c67a955)" style="fill: #7f7f7f; opacity: 0.5"/>
   </g>
   <g id="patch_39">
    <path d="M 142.915862 448.56 
L 144.711724 448.56 
L 144.711724 448.56 
L 142.915862 448.56 
z
" clip-path="url(#pd08c67a955)" style="fill: #7f7f7f; opacity: 0.5"/>
   </g>
   <g id="patch_40">
    <path d="M 145.16069 448.56 
L 146.956552 448.56 
L 146.956552 370.944 
L 145.16069 370.944 
z
" clip-path="url(#pd08c67a955)" style="fill: #7f7f7f; opacity: 0.5"/>
   </g>
   <g id="patch_41">
    <path d="M 147.405517 448.56 
L 149.201379 448.56 
L 149.201379 396.816 
L 147.405517 396.816 
z
" clip-path="url(#pd08c67a955)" style="fill: #7f7f7f; opacity: 0.5"/>
   </g>
   <g id="patch_42">
    <path d="M 149.650345 448.56 
L 151.446207 448.56 
L 151.446207 422.688 
L 149.650345 422.688 
z
" clip-path="url(#pd08c67a955)" style="fill: #7f7f7f; opacity: 0.5"/>
   </g>
   <g id="patch_43">
    <path d="M 151.895172 448.56 
L 153.691034 448.56 
L 153.691034 422.688 
L 151.895172 422.688 
z
" clip-path="url(#pd08c67a955)" style="fill: #7f7f7f; opacity: 0.5"/>
   </g>
   <g id="patch_44">
    <path d="M 154.14 448.56 
L 155.935862 448.56 
L 155.935862 422.688 
L 154.14 422.688 
z
" clip-path="url(#pd08c67a955)" style="fill: #7f7f7f; opacity: 0.5"/>
   </g>
   <g id="patch_45">
    <path d="M 156.384828 448.56 
L 158.18069 448.56 
L 158.18069 422.688 
L 156.384828 422.688 
z
" clip-path="url(#pd08c67a955)" style="fill: #7f7f7f; opacity: 0.5"/>
   </g>
   <g id="patch_46">
    <path d="M 158.629655 448.56 
L 160.425517 448.56 
L 160.425517 370.944 
L 158.629655 370.944 
z
" clip-path="url(#pd08c67a955)" style="fill: #7f7f7f; opacity: 0.5"/>
   </g>
   <g id="patch_47">
    <path d="M 160.874483 448.56 
L 162.670345 448.56 
L 162.670345 448.56 
L 160.874483 448.56 
z
" clip-path="url(#pd08c67a955)" style="fill: #7f7f7f; opacity: 0.5"/>
   </g>
   <g id="patch_48">
    <path d="M 163.11931 448.56 
L 164.915172 448.56 
L 164.915172 422.688 
L 163.11931 422.688 
z
" clip-path="url(#pd08c67a955)" style="fill: #7f7f7f; opacity: 0.5"/>
   </g>
   <g id="patch_49">
    <path d="M 165.364138 448.56 
L 167.16 448.56 
L 167.16 422.688 
L 165.364138 422.688 
z
" clip-path="url(#pd08c67a955)" style="fill: #7f7f7f; opacity: 0.5"/>
   </g>
   <g id="patch_50">
    <path d="M 167.608966 448.56 
L 169.404828 448.56 
L 169.404828 345.072 
L 167.608966 345.072 
z
" clip-path="url(#pd08c67a955)" style="fill: #7f7f7f; opacity: 0.5"/>
   </g>
   <g id="patch_51">
    <path d="M 169.853793 448.56 
L 171.649655 448.56 
L 171.649655 370.944 
L 169.853793 370.944 
z
" clip-path="url(#pd08c67a955)" style="fill: #7f7f7f; opacity: 0.5"/>
   </g>
   <g id="patch_52">
    <path d="M 172.098621 448.56 
L 173.894483 448.56 
L 173.894483 370.944 
L 172.098621 370.944 
z
" clip-path="url(#pd08c67a955)" style="fill: #7f7f7f; opacity: 0.5"/>
   </g>
   <g id="patch_53">
    <path d="M 174.343448 448.56 
L 176.13931 448.56 
L 176.13931 396.816 
L 174.343448 396.816 
z
" clip-path="url(#pd08c67a955)" style="fill: #7f7f7f; opacity: 0.5"/>
   </g>
   <g id="patch_54">
    <path d="M 176.588276 448.56 
L 178.384138 448.56 
L 178.384138 345.072 
L 176.588276 345.072 
z
" clip-path="url(#pd08c67a955)" style="fill: #7f7f7f; opacity: 0.5"/>
   </g>
   <g id="patch_55">
    <path d="M 178.833103 448.56 
L 180.628966 448.56 
L 180.628966 345.072 
L 178.833103 345.072 
z
" clip-path="url(#pd08c67a955)" style="fill: #7f7f7f; opacity: 0.5"/>
   </g>
   <g id="patch_56">
    <path d="M 181.077931 448.56 
L 182.873793 448.56 
L 182.873793 241.584 
L 181.077931 241.584 
z
" clip-path="url(#pd08c67a955)" style="fill: #7f7f7f; opacity: 0.5"/>
   </g>
   <g id="patch_57">
    <path d="M 183.322759 448.56 
L 185.118621 448.56 
L 185.118621 319.2 
L 183.322759 319.2 
z
" clip-path="url(#pd08c67a955)" style="fill: #7f7f7f; opacity: 0.5"/>
   </g>
   <g id="patch_58">
    <path d="M 185.567586 448.56 
L 187.363448 448.56 
L 187.363448 241.584 
L 185.567586 241.584 
z
" clip-path="url(#pd08c67a955)" style="fill: #7f7f7f; opacity: 0.5"/>
   </g>
   <g id="patch_59">
    <path d="M 187.812414 448.56 
L 189.608276 448.56 
L 189.608276 319.2 
L 187.812414 319.2 
z
" clip-path="url(#pd08c67a955)" style="fill: #7f7f7f; opacity: 0.5"/>
   </g>
   <g id="patch_60">
    <path d="M 190.057241 448.56 
L 191.853103 448.56 
L 191.853103 345.072 
L 190.057241 345.072 
z
" clip-path="url(#pd08c67a955)" style="fill: #7f7f7f; opacity: 0.5"/>
   </g>
   <g id="patch_61">
    <path d="M 192.302069 448.56 
L 194.097931 448.56 
L 194.097931 319.2 
L 192.302069 319.2 
z
" clip-path="url(#pd08c67a955)" style="fill: #7f7f7f; opacity: 0.5"/>
   </g>
   <g id="patch_62">
    <path d="M 194.546897 448.56 
L 196.342759 448.56 
L 196.342759 267.456 
L 194.546897 267.456 
z
" clip-path="url(#pd08c67a955)" style="fill: #7f7f7f; opacity: 0.5"/>
   </g>
   <g id="patch_63">
    <path d="M 196.791724 448.56 
L 198.587586 448.56 
L 198.587586 396.816 
L 196.791724 396.816 
z
" clip-path="url(#pd08c67a955)" style="fill: #7f7f7f; opacity: 0.5"/>
   </g>
   <g id="patch_64">
    <path d="M 199.036552 448.56 
L 200.832414 448.56 
L 200.832414 422.688 
L 199.036552 422.688 
z
" clip-path="url(#pd08c67a955)" style="fill: #7f7f7f; opacity: 0.5"/>
   </g>
   <g id="patch_65">
    <path d="M 201.281379 448.56 
L 203.077241 448.56 
L 203.077241 241.584 
L 201.281379 241.584 
z
" clip-path="url(#pd08c67a955)" style="fill: #7f7f7f; opacity: 0.5"/>
   </g>
   <g id="patch_66">
    <path d="M 203.526207 448.56 
L 205.322069 448.56 
L 205.322069 396.816 
L 203.526207 396.816 
z
" clip-path="url(#pd08c67a955)" style="fill: #7f7f7f; opacity: 0.5"/>
   </g>
   <g id="patch_67">
    <path d="M 205.771034 448.56 
L 207.566897 448.56 
L 207.566897 345.072 
L 205.771034 345.072 
z
" clip-path="url(#pd08c67a955)" style="fill: #7f7f7f; opacity: 0.5"/>
   </g>
   <g id="patch_68">
    <path d="M 208.015862 448.56 
L 209.811724 448.56 
L 209.811724 396.816 
L 208.015862 396.816 
z
" clip-path="url(#pd08c67a955)" style="fill: #7f7f7f; opacity: 0.5"/>
   </g>
   <g id="patch_69">
    <path d="M 210.26069 448.56 
L 212.056552 448.56 
L 212.056552 215.712 
L 210.26069 215.712 
z
" clip-path="url(#pd08c67a955)" style="fill: #7f7f7f; opacity: 0.5"/>
   </g>
   <g id="patch_70">
    <path d="M 212.505517 448.56 
L 214.301379 448.56 
L 214.301379 241.584 
L 212.505517 241.584 
z
" clip-path="url(#pd08c67a955)" style="fill: #7f7f7f; opacity: 0.5"/>
   </g>
   <g id="patch_71">
    <path d="M 214.750345 448.56 
L 216.546207 448.56 
L 216.546207 241.584 
L 214.750345 241.584 
z
" clip-path="url(#pd08c67a955)" style="fill: #7f7f7f; opacity: 0.5"/>
   </g>
   <g id="patch_72">
    <path d="M 216.995172 448.56 
L 218.791034 448.56 
L 218.791034 267.456 
L 216.995172 267.456 
z
" clip-path="url(#pd08c67a955)" style="fill: #7f7f7f; opacity: 0.5"/>
   </g>
   <g id="patch_73">
    <path d="M 219.24 448.56 
L 221.035862 448.56 
L 221.035862 215.712 
L 219.24 215.712 
z
" clip-path="url(#pd08c67a955)" style="fill: #7f7f7f; opacity: 0.5"/>
   </g>
   <g id="patch_74">
    <path d="M 221.484828 448.56 
L 223.28069 448.56 
L 223.28069 138.096 
L 221.484828 138.096 
z
" clip-path="url(#pd08c67a955)" style="fill: #7f7f7f; opacity: 0.5"/>
   </g>
   <g id="patch_75">
    <path d="M 223.729655 448.56 
L 225.525517 448.56 
L 225.525517 138.096 
L 223.729655 138.096 
z
" clip-path="url(#pd08c67a955)" style="fill: #7f7f7f; opacity: 0.5"/>
   </g>
   <g id="patch_76">
    <path d="M 225.974483 448.56 
L 227.770345 448.56 
L 227.770345 267.456 
L 225.974483 267.456 
z
" clip-path="url(#pd08c67a955)" style="fill: #7f7f7f; opacity: 0.5"/>
   </g>
   <g id="patch_77">
    <path d="M 228.21931 448.56 
L 230.015172 448.56 
L 230.015172 138.096 
L 228.21931 138.096 
z
" clip-path="url(#pd08c67a955)" style="fill: #7f7f7f; opacity: 0.5"/>
   </g>
   <g id="patch_78">
    <path d="M 230.464138 448.56 
L 232.26 448.56 
L 232.26 396.816 
L 230.464138 396.816 
z
" clip-path="url(#pd08c67a955)" style="fill: #7f7f7f; opacity: 0.5"/>
   </g>
   <g id="patch_79">
    <path d="M 232.708966 448.56 
L 234.504828 448.56 
L 234.504828 60.48 
L 232.708966 60.48 
z
" clip-path="url(#pd08c67a955)" style="fill: #7f7f7f; opacity: 0.5"/>
   </g>
   <g id="patch_80">
    <path d="M 234.953793 448.56 
L 236.749655 448.56 
L 236.749655 163.968 
L 234.953793 163.968 
z
" clip-path="url(#pd08c67a955)" style="fill: #7f7f7f; opacity: 0.5"/>
   </g>
   <g id="patch_81">
    <path d="M 237.198621 448.56 
L 238.994483 448.56 
L 238.994483 319.2 
L 237.198621 319.2 
z
" clip-path="url(#pd08c67a955)" style="fill: #7f7f7f; opacity: 0.5"/>
   </g>
   <g id="patch_82">
    <path d="M 239.443448 448.56 
L 241.23931 448.56 
L 241.23931 345.072 
L 239.443448 345.072 
z
" clip-path="url(#pd08c67a955)" style="fill: #7f7f7f; opacity: 0.5"/>
   </g>
   <g id="patch_83">
    <path d="M 241.688276 448.56 
L 243.484138 448.56 
L 243.484138 396.816 
L 241.688276 396.816 
z
" clip-path="url(#pd08c67a955)" style="fill: #7f7f7f; opacity: 0.5"/>
   </g>
   <g id="patch_84">
    <path d="M 243.933103 448.56 
L 245.728966 448.56 
L 245.728966 345.072 
L 243.933103 345.072 
z
" clip-path="url(#pd08c67a955)" style="fill: #7f7f7f; opacity: 0.5"/>
   </g>
   <g id="patch_85">
    <path d="M 246.177931 448.56 
L 247.973793 448.56 
L 247.973793 267.456 
L 246.177931 267.456 
z
" clip-path="url(#pd08c67a955)" style="fill: #7f7f7f; opacity: 0.5"/>
   </g>
   <g id="patch_86">
    <path d="M 248.422759 448.56 
L 250.218621 448.56 
L 250.218621 112.224 
L 248.422759 112.224 
z
" clip-path="url(#pd08c67a955)" style="fill: #7f7f7f; opacity: 0.5"/>
   </g>
   <g id="patch_87">
    <path d="M 250.667586 448.56 
L 252.463448 448.56 
L 252.463448 293.328 
L 250.667586 293.328 
z
" clip-path="url(#pd08c67a955)" style="fill: #7f7f7f; opacity: 0.5"/>
   </g>
   <g id="patch_88">
    <path d="M 252.912414 448.56 
L 254.708276 448.56 
L 254.708276 241.584 
L 252.912414 241.584 
z
" clip-path="url(#pd08c67a955)" style="fill: #7f7f7f; opacity: 0.5"/>
   </g>
   <g id="patch_89">
    <path d="M 255.157241 448.56 
L 256.953103 448.56 
L 256.953103 345.072 
L 255.157241 345.072 
z
" clip-path="url(#pd08c67a955)" style="fill: #7f7f7f; opacity: 0.5"/>
   </g>
   <g id="patch_90">
    <path d="M 257.402069 448.56 
L 259.197931 448.56 
L 259.197931 319.2 
L 257.402069 319.2 
z
" clip-path="url(#pd08c67a955)" style="fill: #7f7f7f; opacity: 0.5"/>
   </g>
   <g id="patch_91">
    <path d="M 259.646897 448.56 
L 261.442759 448.56 
L 261.442759 370.944 
L 259.646897 370.944 
z
" clip-path="url(#pd08c67a955)" style="fill: #7f7f7f; opacity: 0.5"/>
   </g>
   <g id="patch_92">
    <path d="M 261.891724 448.56 
L 263.687586 448.56 
L 263.687586 396.816 
L 261.891724 396.816 
z
" clip-path="url(#pd08c67a955)" style="fill: #7f7f7f; opacity: 0.5"/>
   </g>
   <g id="patch_93">
    <path d="M 264.136552 448.56 
L 265.932414 448.56 
L 265.932414 396.816 
L 264.136552 396.816 
z
" clip-path="url(#pd08c67a955)" style="fill: #7f7f7f; opacity: 0.5"/>
   </g>
   <g id="patch_94">
    <path d="M 266.381379 448.56 
L 268.177241 448.56 
L 268.177241 448.56 
L 266.381379 448.56 
z
" clip-path="url(#pd08c67a955)" style="fill: #7f7f7f; opacity: 0.5"/>
   </g>
   <g id="patch_95">
    <path d="M 268.626207 448.56 
L 270.422069 448.56 
L 270.422069 422.688 
L 268.626207 422.688 
z
" clip-path="url(#pd08c67a955)" style="fill: #7f7f7f; opacity: 0.5"/>
   </g>
   <g id="patch_96">
    <path d="M 270.871034 448.56 
L 272.666897 448.56 
L 272.666897 396.816 
L 270.871034 396.816 
z
" clip-path="url(#pd08c67a955)" style="fill: #7f7f7f; opacity: 0.5"/>
   </g>
   <g id="patch_97">
    <path d="M 273.115862 448.56 
L 274.911724 448.56 
L 274.911724 370.944 
L 273.115862 370.944 
z
" clip-path="url(#pd08c67a955)" style="fill: #7f7f7f; opacity: 0.5"/>
   </g>
   <g id="patch_98">
    <path d="M 275.36069 448.56 
L 277.156552 448.56 
L 277.156552 422.688 
L 275.36069 422.688 
z
" clip-path="url(#pd08c67a955)" style="fill: #7f7f7f; opacity: 0.5"/>
   </g>
   <g id="patch_99">
    <path d="M 277.605517 448.56 
L 279.401379 448.56 
L 279.401379 370.944 
L 277.605517 370.944 
z
" clip-path="url(#pd08c67a955)" style="fill: #7f7f7f; opacity: 0.5"/>
   </g>
   <g id="patch_100">
    <path d="M 279.850345 448.56 
L 281.646207 448.56 
L 281.646207 396.816 
L 279.850345 396.816 
z
" clip-path="url(#pd08c67a955)" style="fill: #7f7f7f; opacity: 0.5"/>
   </g>
   <g id="patch_101">
    <path d="M 282.095172 448.56 
L 283.891034 448.56 
L 283.891034 448.56 
L 282.095172 448.56 
z
" clip-path="url(#pd08c67a955)" style="fill: #7f7f7f; opacity: 0.5"/>
   </g>
   <g id="patch_102">
    <path d="M 284.34 448.56 
L 286.135862 448.56 
L 286.135862 448.56 
L 284.34 448.56 
z
" clip-path="url(#pd08c67a955)" style="fill: #7f7f7f; opacity: 0.5"/>
   </g>
   <g id="patch_103">
    <path d="M 286.584828 448.56 
L 288.38069 448.56 
L 288.38069 422.688 
L 286.584828 422.688 
z
" clip-path="url(#pd08c67a955)" style="fill: #7f7f7f; opacity: 0.5"/>
   </g>
   <g id="patch_104">
    <path d="M 288.829655 448.56 
L 290.625517 448.56 
L 290.625517 396.816 
L 288.829655 396.816 
z
" clip-path="url(#pd08c67a955)" style="fill: #7f7f7f; opacity: 0.5"/>
   </g>
   <g id="patch_105">
    <path d="M 291.074483 448.56 
L 292.870345 448.56 
L 292.870345 422.688 
L 291.074483 422.688 
z
" clip-path="url(#pd08c67a955)" style="fill: #7f7f7f; opacity: 0.5"/>
   </g>
   <g id="patch_106">
    <path d="M 293.31931 448.56 
L 295.115172 448.56 
L 295.115172 448.56 
L 293.31931 448.56 
z
" clip-path="url(#pd08c67a955)" style="fill: #7f7f7f; opacity: 0.5"/>
   </g>
   <g id="patch_107">
    <path d="M 295.564138 448.56 
L 297.36 448.56 
L 297.36 422.688 
L 295.564138 422.688 
z
" clip-path="url(#pd08c67a955)" style="fill: #7f7f7f; opacity: 0.5"/>
   </g>
   <g id="patch_108">
    <path d="M 297.808966 448.56 
L 299.604828 448.56 
L 299.604828 448.56 
L 297.808966 448.56 
z
" clip-path="url(#pd08c67a955)" style="fill: #7f7f7f; opacity: 0.5"/>
   </g>
   <g id="patch_109">
    <path d="M 300.053793 448.56 
L 301.849655 448.56 
L 301.849655 422.688 
L 300.053793 422.688 
z
" clip-path="url(#pd08c67a955)" style="fill: #7f7f7f; opacity: 0.5"/>
   </g>
   <g id="patch_110">
    <path d="M 302.298621 448.56 
L 304.094483 448.56 
L 304.094483 448.56 
L 302.298621 448.56 
z
" clip-path="url(#pd08c67a955)" style="fill: #7f7f7f; opacity: 0.5"/>
   </g>
   <g id="patch_111">
    <path d="M 304.543448 448.56 
L 306.33931 448.56 
L 306.33931 448.56 
L 304.543448 448.56 
z
" clip-path="url(#pd08c67a955)" style="fill: #7f7f7f; opacity: 0.5"/>
   </g>
   <g id="patch_112">
    <path d="M 306.788276 448.56 
L 308.584138 448.56 
L 308.584138 448.56 
L 306.788276 448.56 
z
" clip-path="url(#pd08c67a955)" style="fill: #7f7f7f; opacity: 0.5"/>
   </g>
   <g id="patch_113">
    <path d="M 309.033103 448.56 
L 310.828966 448.56 
L 310.828966 422.688 
L 309.033103 422.688 
z
" clip-path="url(#pd08c67a955)" style="fill: #7f7f7f; opacity: 0.5"/>
   </g>
   <g id="patch_114">
    <path d="M 311.277931 448.56 
L 313.073793 448.56 
L 313.073793 422.688 
L 311.277931 422.688 
z
" clip-path="url(#pd08c67a955)" style="fill: #7f7f7f; opacity: 0.5"/>
   </g>
   <g id="patch_115">
    <path d="M 313.522759 448.56 
L 315.318621 448.56 
L 315.318621 448.56 
L 313.522759 448.56 
z
" clip-path="url(#pd08c67a955)" style="fill: #7f7f7f; opacity: 0.5"/>
   </g>
   <g id="patch_116">
    <path d="M 315.767586 448.56 
L 317.563448 448.56 
L 317.563448 448.56 
L 315.767586 448.56 
z
" clip-path="url(#pd08c67a955)" style="fill: #7f7f7f; opacity: 0.5"/>
   </g>
   <g id="patch_117">
    <path d="M 318.012414 448.56 
L 319.808276 448.56 
L 319.808276 448.56 
L 318.012414 448.56 
z
" clip-path="url(#pd08c67a955)" style="fill: #7f7f7f; opacity: 0.5"/>
   </g>
   <g id="patch_118">
    <path d="M 320.257241 448.56 
L 322.053103 448.56 
L 322.053103 422.688 
L 320.257241 422.688 
z
" clip-path="url(#pd08c67a955)" style="fill: #7f7f7f; opacity: 0.5"/>
   </g>
   <g id="patch_119">
    <path d="M 322.502069 448.56 
L 324.297931 448.56 
L 324.297931 448.56 
L 322.502069 448.56 
z
" clip-path="url(#pd08c67a955)" style="fill: #7f7f7f; opacity: 0.5"/>
   </g>
   <g id="patch_120">
    <path d="M 324.746897 448.56 
L 326.542759 448.56 
L 326.542759 448.56 
L 324.746897 448.56 
z
" clip-path="url(#pd08c67a955)" style="fill: #7f7f7f; opacity: 0.5"/>
   </g>
   <g id="patch_121">
    <path d="M 326.991724 448.56 
L 328.787586 448.56 
L 328.787586 448.56 
L 326.991724 448.56 
z
" clip-path="url(#pd08c67a955)" style="fill: #7f7f7f; opacity: 0.5"/>
   </g>
   <g id="patch_122">
    <path d="M 329.236552 448.56 
L 331.032414 448.56 
L 331.032414 448.56 
L 329.236552 448.56 
z
" clip-path="url(#pd08c67a955)" style="fill: #7f7f7f; opacity: 0.5"/>
   </g>
   <g id="patch_123">
    <path d="M 331.481379 448.56 
L 333.277241 448.56 
L 333.277241 448.56 
L 331.481379 448.56 
z
" clip-path="url(#pd08c67a955)" style="fill: #7f7f7f; opacity: 0.5"/>
   </g>
   <g id="patch_124">
    <path d="M 333.726207 448.56 
L 335.522069 448.56 
L 335.522069 448.56 
L 333.726207 448.56 
z
" clip-path="url(#pd08c67a955)" style="fill: #7f7f7f; opacity: 0.5"/>
   </g>
   <g id="patch_125">
    <path d="M 335.971034 448.56 
L 337.766897 448.56 
L 337.766897 448.56 
L 335.971034 448.56 
z
" clip-path="url(#pd08c67a955)" style="fill: #7f7f7f; opacity: 0.5"/>
   </g>
   <g id="patch_126">
    <path d="M 338.215862 448.56 
L 340.011724 448.56 
L 340.011724 448.56 
L 338.215862 448.56 
z
" clip-path="url(#pd08c67a955)" style="fill: #7f7f7f; opacity: 0.5"/>
   </g>
   <g id="patch_127">
    <path d="M 340.46069 448.56 
L 342.256552 448.56 
L 342.256552 448.56 
L 340.46069 448.56 
z
" clip-path="url(#pd08c67a955)" style="fill: #7f7f7f; opacity: 0.5"/>
   </g>
   <g id="patch_128">
    <path d="M 342.705517 448.56 
L 344.501379 448.56 
L 344.501379 422.688 
L 342.705517 422.688 
z
" clip-path="url(#pd08c67a955)" style="fill: #7f7f7f; opacity: 0.5"/>
   </g>
   <g id="patch_129">
    <path d="M 344.950345 448.56 
L 346.746207 448.56 
L 346.746207 448.56 
L 344.950345 448.56 
z
" clip-path="url(#pd08c67a955)" style="fill: #7f7f7f; opacity: 0.5"/>
   </g>
   <g id="patch_130">
    <path d="M 347.195172 448.56 
L 348.991034 448.56 
L 348.991034 448.56 
L 347.195172 448.56 
z
" clip-path="url(#pd08c67a955)" style="fill: #7f7f7f; opacity: 0.5"/>
   </g>
   <g id="patch_131">
    <path d="M 349.44 448.56 
L 351.235862 448.56 
L 351.235862 448.56 
L 349.44 448.56 
z
" clip-path="url(#pd08c67a955)" style="fill: #7f7f7f; opacity: 0.5"/>
   </g>
   <g id="patch_132">
    <path d="M 351.684828 448.56 
L 353.48069 448.56 
L 353.48069 448.56 
L 351.684828 448.56 
z
" clip-path="url(#pd08c67a955)" style="fill: #7f7f7f; opacity: 0.5"/>
   </g>
   <g id="patch_133">
    <path d="M 353.929655 448.56 
L 355.725517 448.56 
L 355.725517 448.56 
L 353.929655 448.56 
z
" clip-path="url(#pd08c67a955)" style="fill: #7f7f7f; opacity: 0.5"/>
   </g>
   <g id="patch_134">
    <path d="M 356.174483 448.56 
L 357.970345 448.56 
L 357.970345 448.56 
L 356.174483 448.56 
z
" clip-path="url(#pd08c67a955)" style="fill: #7f7f7f; opacity: 0.5"/>
   </g>
   <g id="patch_135">
    <path d="M 358.41931 448.56 
L 360.215172 448.56 
L 360.215172 422.688 
L 358.41931 422.688 
z
" clip-path="url(#pd08c67a955)" style="fill: #7f7f7f; opacity: 0.5"/>
   </g>
   <g id="patch_136">
    <path d="M 360.664138 448.56 
L 362.46 448.56 
L 362.46 448.56 
L 360.664138 448.56 
z
" clip-path="url(#pd08c67a955)" style="fill: #7f7f7f; opacity: 0.5"/>
   </g>
   <g id="patch_137">
    <path d="M 362.908966 448.56 
L 364.704828 448.56 
L 364.704828 448.56 
L 362.908966 448.56 
z
" clip-path="url(#pd08c67a955)" style="fill: #7f7f7f; opacity: 0.5"/>
   </g>
   <g id="patch_138">
    <path d="M 365.153793 448.56 
L 366.949655 448.56 
L 366.949655 448.56 
L 365.153793 448.56 
z
" clip-path="url(#pd08c67a955)" style="fill: #7f7f7f; opacity: 0.5"/>
   </g>
   <g id="patch_139">
    <path d="M 367.398621 448.56 
L 369.194483 448.56 
L 369.194483 448.56 
L 367.398621 448.56 
z
" clip-path="url(#pd08c67a955)" style="fill: #7f7f7f; opacity: 0.5"/>
   </g>
   <g id="patch_140">
    <path d="M 369.643448 448.56 
L 371.43931 448.56 
L 371.43931 448.56 
L 369.643448 448.56 
z
" clip-path="url(#pd08c67a955)" style="fill: #7f7f7f; opacity: 0.5"/>
   </g>
   <g id="patch_141">
    <path d="M 371.888276 448.56 
L 373.684138 448.56 
L 373.684138 448.56 
L 371.888276 448.56 
z
" clip-path="url(#pd08c67a955)" style="fill: #7f7f7f; opacity: 0.5"/>
   </g>
   <g id="patch_142">
    <path d="M 374.133103 448.56 
L 375.928966 448.56 
L 375.928966 448.56 
L 374.133103 448.56 
z
" clip-path="url(#pd08c67a955)" style="fill: #7f7f7f; opacity: 0.5"/>
   </g>
   <g id="patch_143">
    <path d="M 376.377931 448.56 
L 378.173793 448.56 
L 378.173793 448.56 
L 376.377931 448.56 
z
" clip-path="url(#pd08c67a955)" style="fill: #7f7f7f; opacity: 0.5"/>
   </g>
   <g id="patch_144">
    <path d="M 378.622759 448.56 
L 380.418621 448.56 
L 380.418621 448.56 
L 378.622759 448.56 
z
" clip-path="url(#pd08c67a955)" style="fill: #7f7f7f; opacity: 0.5"/>
   </g>
   <g id="patch_145">
    <path d="M 380.867586 448.56 
L 382.663448 448.56 
L 382.663448 448.56 
L 380.867586 448.56 
z
" clip-path="url(#pd08c67a955)" style="fill: #7f7f7f; opacity: 0.5"/>
   </g>
   <g id="patch_146">
    <path d="M 383.112414 448.56 
L 384.908276 448.56 
L 384.908276 448.56 
L 383.112414 448.56 
z
" clip-path="url(#pd08c67a955)" style="fill: #7f7f7f; opacity: 0.5"/>
   </g>
   <g id="patch_147">
    <path d="M 385.357241 448.56 
L 387.153103 448.56 
L 387.153103 448.56 
L 385.357241 448.56 
z
" clip-path="url(#pd08c67a955)" style="fill: #7f7f7f; opacity: 0.5"/>
   </g>
   <g id="patch_148">
    <path d="M 387.602069 448.56 
L 389.397931 448.56 
L 389.397931 448.56 
L 387.602069 448.56 
z
" clip-path="url(#pd08c67a955)" style="fill: #7f7f7f; opacity: 0.5"/>
   </g>
   <g id="patch_149">
    <path d="M 389.846897 448.56 
L 391.642759 448.56 
L 391.642759 448.56 
L 389.846897 448.56 
z
" clip-path="url(#pd08c67a955)" style="fill: #7f7f7f; opacity: 0.5"/>
   </g>
   <g id="patch_150">
    <path d="M 392.091724 448.56 
L 393.887586 448.56 
L 393.887586 448.56 
L 392.091724 448.56 
z
" clip-path="url(#pd08c67a955)" style="fill: #7f7f7f; opacity: 0.5"/>
   </g>
   <g id="patch_151">
    <path d="M 394.336552 448.56 
L 396.132414 448.56 
L 396.132414 448.56 
L 394.336552 448.56 
z
" clip-path="url(#pd08c67a955)" style="fill: #7f7f7f; opacity: 0.5"/>
   </g>
   <g id="patch_152">
    <path d="M 396.581379 448.56 
L 398.377241 448.56 
L 398.377241 448.56 
L 396.581379 448.56 
z
" clip-path="url(#pd08c67a955)" style="fill: #7f7f7f; opacity: 0.5"/>
   </g>
   <g id="patch_153">
    <path d="M 398.826207 448.56 
L 400.622069 448.56 
L 400.622069 448.56 
L 398.826207 448.56 
z
" clip-path="url(#pd08c67a955)" style="fill: #7f7f7f; opacity: 0.5"/>
   </g>
   <g id="patch_154">
    <path d="M 401.071034 448.56 
L 402.866897 448.56 
L 402.866897 448.56 
L 401.071034 448.56 
z
" clip-path="url(#pd08c67a955)" style="fill: #7f7f7f; opacity: 0.5"/>
   </g>
   <g id="patch_155">
    <path d="M 403.315862 448.56 
L 405.111724 448.56 
L 405.111724 448.56 
L 403.315862 448.56 
z
" clip-path="url(#pd08c67a955)" style="fill: #7f7f7f; opacity: 0.5"/>
   </g>
   <g id="patch_156">
    <path d="M 405.56069 448.56 
L 407.356552 448.56 
L 407.356552 448.56 
L 405.56069 448.56 
z
" clip-path="url(#pd08c67a955)" style="fill: #7f7f7f; opacity: 0.5"/>
   </g>
   <g id="patch_157">
    <path d="M 407.805517 448.56 
L 409.601379 448.56 
L 409.601379 448.56 
L 407.805517 448.56 
z
" clip-path="url(#pd08c67a955)" style="fill: #7f7f7f; opacity: 0.5"/>
   </g>
   <g id="patch_158">
    <path d="M 410.050345 448.56 
L 411.846207 448.56 
L 411.846207 448.56 
L 410.050345 448.56 
z
" clip-path="url(#pd08c67a955)" style="fill: #7f7f7f; opacity: 0.5"/>
   </g>
   <g id="patch_159">
    <path d="M 412.295172 448.56 
L 414.091034 448.56 
L 414.091034 448.56 
L 412.295172 448.56 
z
" clip-path="url(#pd08c67a955)" style="fill: #7f7f7f; opacity: 0.5"/>
   </g>
   <g id="patch_160">
    <path d="M 414.54 448.56 
L 416.335862 448.56 
L 416.335862 448.56 
L 414.54 448.56 
z
" clip-path="url(#pd08c67a955)" style="fill: #7f7f7f; opacity: 0.5"/>
   </g>
   <g id="patch_161">
    <path d="M 416.784828 448.56 
L 418.58069 448.56 
L 418.58069 448.56 
L 416.784828 448.56 
z
" clip-path="url(#pd08c67a955)" style="fill: #7f7f7f; opacity: 0.5"/>
   </g>
   <g id="patch_162">
    <path d="M 419.029655 448.56 
L 420.825517 448.56 
L 420.825517 448.56 
L 419.029655 448.56 
z
" clip-path="url(#pd08c67a955)" style="fill: #7f7f7f; opacity: 0.5"/>
   </g>
   <g id="patch_163">
    <path d="M 421.274483 448.56 
L 423.070345 448.56 
L 423.070345 448.56 
L 421.274483 448.56 
z
" clip-path="url(#pd08c67a955)" style="fill: #7f7f7f; opacity: 0.5"/>
   </g>
   <g id="patch_164">
    <path d="M 423.51931 448.56 
L 425.315172 448.56 
L 425.315172 448.56 
L 423.51931 448.56 
z
" clip-path="url(#pd08c67a955)" style="fill: #7f7f7f; opacity: 0.5"/>
   </g>
   <g id="patch_165">
    <path d="M 425.764138 448.56 
L 427.56 448.56 
L 427.56 448.56 
L 425.764138 448.56 
z
" clip-path="url(#pd08c67a955)" style="fill: #7f7f7f; opacity: 0.5"/>
   </g>
   <g id="patch_166">
    <path d="M 428.008966 448.56 
L 429.804828 448.56 
L 429.804828 448.56 
L 428.008966 448.56 
z
" clip-path="url(#pd08c67a955)" style="fill: #7f7f7f; opacity: 0.5"/>
   </g>
   <g id="patch_167">
    <path d="M 430.253793 448.56 
L 432.049655 448.56 
L 432.049655 448.56 
L 430.253793 448.56 
z
" clip-path="url(#pd08c67a955)" style="fill: #7f7f7f; opacity: 0.5"/>
   </g>
   <g id="patch_168">
    <path d="M 432.498621 448.56 
L 434.294483 448.56 
L 434.294483 448.56 
L 432.498621 448.56 
z
" clip-path="url(#pd08c67a955)" style="fill: #7f7f7f; opacity: 0.5"/>
   </g>
   <g id="patch_169">
    <path d="M 434.743448 448.56 
L 436.53931 448.56 
L 436.53931 448.56 
L 434.743448 448.56 
z
" clip-path="url(#pd08c67a955)" style="fill: #7f7f7f; opacity: 0.5"/>
   </g>
   <g id="patch_170">
    <path d="M 436.988276 448.56 
L 438.784138 448.56 
L 438.784138 448.56 
L 436.988276 448.56 
z
" clip-path="url(#pd08c67a955)" style="fill: #7f7f7f; opacity: 0.5"/>
   </g>
   <g id="patch_171">
    <path d="M 439.233103 448.56 
L 441.028966 448.56 
L 441.028966 448.56 
L 439.233103 448.56 
z
" clip-path="url(#pd08c67a955)" style="fill: #7f7f7f; opacity: 0.5"/>
   </g>
   <g id="patch_172">
    <path d="M 441.477931 448.56 
L 443.273793 448.56 
L 443.273793 448.56 
L 441.477931 448.56 
z
" clip-path="url(#pd08c67a955)" style="fill: #7f7f7f; opacity: 0.5"/>
   </g>
   <g id="patch_173">
    <path d="M 443.722759 448.56 
L 445.518621 448.56 
L 445.518621 448.56 
L 443.722759 448.56 
z
" clip-path="url(#pd08c67a955)" style="fill: #7f7f7f; opacity: 0.5"/>
   </g>
   <g id="patch_174">
    <path d="M 445.967586 448.56 
L 447.763448 448.56 
L 447.763448 448.56 
L 445.967586 448.56 
z
" clip-path="url(#pd08c67a955)" style="fill: #7f7f7f; opacity: 0.5"/>
   </g>
   <g id="patch_175">
    <path d="M 448.212414 448.56 
L 450.008276 448.56 
L 450.008276 448.56 
L 448.212414 448.56 
z
" clip-path="url(#pd08c67a955)" style="fill: #7f7f7f; opacity: 0.5"/>
   </g>
   <g id="patch_176">
    <path d="M 450.457241 448.56 
L 452.253103 448.56 
L 452.253103 448.56 
L 450.457241 448.56 
z
" clip-path="url(#pd08c67a955)" style="fill: #7f7f7f; opacity: 0.5"/>
   </g>
   <g id="patch_177">
    <path d="M 452.702069 448.56 
L 454.497931 448.56 
L 454.497931 448.56 
L 452.702069 448.56 
z
" clip-path="url(#pd08c67a955)" style="fill: #7f7f7f; opacity: 0.5"/>
   </g>
   <g id="patch_178">
    <path d="M 453.6 448.56 
L 453.6 60.48 
" style="fill: none; stroke: #7f7f7f; stroke-width: 0.8; stroke-linejoin: miter; stroke-linecap: square"/>
   </g>
  </g>
  <g id="axes_2">
   <g id="FillBetweenPolyCollection_1">
    <defs>
     <path id="mb0e84596dc" d="M 63 -430.322911 
L 63 -94.39401 
L 65.244828 -97.536453 
L 67.489655 -96.391513 
L 69.734483 -93.881235 
L 71.97931 -91.2127 
L 74.224138 -89.074047 
L 76.468966 -87.5764 
L 78.713793 -85.596117 
L 80.958621 -84.548343 
L 83.203448 -83.521081 
L 85.448276 -82.137231 
L 87.693103 -80.84406 
L 89.937931 -80.020366 
L 92.182759 -79.268755 
L 94.427586 -78.792722 
L 96.672414 -78.42864 
L 98.917241 -79.001148 
L 101.162069 -79.50677 
L 103.406897 -80.577135 
L 105.651724 -81.499747 
L 107.896552 -81.922351 
L 110.141379 -82.907458 
L 112.386207 -83.69334 
L 114.631034 -84.807608 
L 116.875862 -86.230146 
L 119.12069 -87.051599 
L 121.365517 -88.068582 
L 123.610345 -89.102533 
L 125.855172 -90.665841 
L 128.1 -91.504752 
L 130.344828 -91.870904 
L 132.589655 -92.790856 
L 134.834483 -93.24625 
L 137.07931 -93.873648 
L 139.324138 -95.043231 
L 141.568966 -95.9314 
L 143.813793 -98.437056 
L 146.058621 -103.265431 
L 148.303448 -104.158959 
L 150.548276 -104.430527 
L 152.793103 -105.065505 
L 155.037931 -105.548096 
L 157.282759 -106.264036 
L 159.527586 -107.986775 
L 161.772414 -106.197445 
L 164.017241 -107.717512 
L 166.262069 -110.397583 
L 168.506897 -115.700777 
L 170.751724 -117.783897 
L 172.996552 -119.39136 
L 175.241379 -120.483313 
L 177.486207 -125.506166 
L 179.731034 -130.444192 
L 181.975862 -136.323792 
L 184.22069 -134.171758 
L 186.465517 -131.775523 
L 188.710345 -121.972015 
L 190.955172 -114.107479 
L 193.2 -107.961063 
L 195.444828 -102.724289 
L 197.689655 -94.80267 
L 199.934483 -91.128574 
L 202.17931 -91.004095 
L 204.424138 -87.930652 
L 206.668966 -87.522295 
L 208.913793 -88.790926 
L 211.158621 -94.038945 
L 213.403448 -96.779496 
L 215.648276 -99.261366 
L 217.893103 -100.966501 
L 220.137931 -104.821101 
L 222.382759 -108.769642 
L 224.627586 -108.162879 
L 226.872414 -102.892884 
L 229.117241 -100.847536 
L 231.362069 -94.809786 
L 233.606897 -96.692719 
L 235.851724 -90.564267 
L 238.096552 -82.390172 
L 240.341379 -77.406004 
L 242.586207 -74.919718 
L 244.831034 -75.16744 
L 247.075862 -76.870833 
L 249.32069 -78.456608 
L 251.565517 -75.541045 
L 253.810345 -73.62321 
L 256.055172 -70.506248 
L 258.3 -68.332953 
L 260.544828 -66.251177 
L 262.789655 -64.577949 
L 265.034483 -63.498172 
L 267.27931 -62.523383 
L 269.524138 -62.257758 
L 271.768966 -62.292243 
L 274.013793 -62.260476 
L 276.258621 -61.966828 
L 278.503448 -61.925921 
L 280.748276 -61.528936 
L 282.993103 -61.097547 
L 285.237931 -60.913819 
L 287.482759 -60.919953 
L 289.727586 -60.928332 
L 291.972414 -60.805538 
L 294.217241 -60.578721 
L 296.462069 -60.465037 
L 298.706897 -60.334715 
L 300.951724 -60.311616 
L 303.196552 -60.23971 
L 305.441379 -60.235815 
L 307.686207 -60.2489 
L 309.931034 -60.364875 
L 312.175862 -60.385912 
L 314.42069 -60.306221 
L 316.665517 -60.264199 
L 318.910345 -60.234764 
L 321.155172 -60.3323 
L 323.4 -60.199558 
L 325.644828 -60.162044 
L 327.889655 -60.066415 
L 330.134483 -60.086528 
L 332.37931 -60.150363 
L 334.624138 -60.137029 
L 336.868966 -60.192844 
L 339.113793 -60.294983 
L 341.358621 -60.41265 
L 343.603448 -60.608178 
L 345.848276 -60.556638 
L 348.093103 -60.502283 
L 350.337931 -60.49755 
L 352.582759 -60.421926 
L 354.827586 -60.494822 
L 357.072414 -60.47937 
L 359.317241 -60.561972 
L 361.562069 -60.388692 
L 363.806897 -60.239114 
L 366.051724 -60.214878 
L 368.296552 -60.196207 
L 370.541379 -60.126048 
L 372.786207 -60.081118 
L 375.031034 -60.049947 
L 377.275862 -60.002856 
L 379.52069 -60.002524 
L 381.765517 -59.957405 
L 384.010345 -59.981332 
L 386.255172 -59.975249 
L 388.5 -59.961725 
L 390.744828 -60.003877 
L 392.989655 -59.997368 
L 395.234483 -59.941825 
L 397.47931 -60.0312 
L 399.724138 -60.06465 
L 401.968966 -60.080787 
L 404.213793 -60.09744 
L 406.458621 -60.13138 
L 408.703448 -60.206089 
L 410.948276 -60.18819 
L 413.193103 -60.214734 
L 415.437931 -60.201839 
L 417.682759 -60.150589 
L 419.927586 -60.241857 
L 422.172414 -60.18313 
L 424.417241 -60.295758 
L 426.662069 -60.469954 
L 428.906897 -60.432117 
L 431.151724 -60.406623 
L 433.396552 -60.404747 
L 435.641379 -60.453143 
L 437.886207 -60.442898 
L 440.131034 -60.56612 
L 442.375862 -60.582188 
L 444.62069 -60.690445 
L 446.865517 -60.71977 
L 449.110345 -60.736551 
L 451.355172 -60.832853 
L 453.6 -60.806041 
L 453.6 -163.966461 
L 453.6 -163.966461 
L 451.355172 -162.11331 
L 449.110345 -159.224824 
L 446.865517 -157.264211 
L 444.62069 -154.614211 
L 442.375862 -152.376217 
L 440.131034 -147.579864 
L 437.886207 -145.425817 
L 435.641379 -143.878057 
L 433.396552 -142.003047 
L 431.151724 -141.249969 
L 428.906897 -138.224552 
L 426.662069 -137.398485 
L 424.417241 -134.717451 
L 422.172414 -132.671211 
L 419.927586 -130.305221 
L 417.682759 -128.666542 
L 415.437931 -125.696448 
L 413.193103 -123.654055 
L 410.948276 -121.513482 
L 408.703448 -118.705112 
L 406.458621 -116.650056 
L 404.213793 -115.215575 
L 401.968966 -112.862858 
L 399.724138 -111.580281 
L 397.47931 -108.812 
L 395.234483 -107.442752 
L 392.989655 -107.543423 
L 390.744828 -105.00321 
L 388.5 -103.465885 
L 386.255172 -102.192196 
L 384.010345 -100.804264 
L 381.765517 -99.493762 
L 379.52069 -98.723251 
L 377.275862 -97.789896 
L 375.031034 -96.721487 
L 372.786207 -96.317148 
L 370.541379 -96.160919 
L 368.296552 -96.027921 
L 366.051724 -95.671495 
L 363.806897 -95.8322 
L 361.562069 -95.286326 
L 359.317241 -95.504006 
L 357.072414 -93.969592 
L 354.827586 -92.490906 
L 352.582759 -91.589393 
L 350.337931 -90.698476 
L 348.093103 -89.850369 
L 345.848276 -88.872201 
L 343.603448 -87.88808 
L 341.358621 -86.612606 
L 339.113793 -85.094348 
L 336.868966 -84.25977 
L 334.624138 -82.931735 
L 332.37931 -81.993819 
L 330.134483 -81.395369 
L 327.889655 -80.727788 
L 325.644828 -80.284997 
L 323.4 -79.726839 
L 321.155172 -79.236989 
L 318.910345 -78.391974 
L 316.665517 -77.813548 
L 314.42069 -77.177472 
L 312.175862 -77.334762 
L 309.931034 -76.475839 
L 307.686207 -75.610018 
L 305.441379 -74.798683 
L 303.196552 -74.156852 
L 300.951724 -73.985258 
L 298.706897 -73.608421 
L 296.462069 -73.533368 
L 294.217241 -73.262574 
L 291.972414 -73.48489 
L 289.727586 -73.479363 
L 287.482759 -72.957209 
L 285.237931 -72.240571 
L 282.993103 -72.33205 
L 280.748276 -73.365999 
L 278.503448 -73.865337 
L 276.258621 -73.644625 
L 274.013793 -74.222475 
L 271.768966 -73.805403 
L 269.524138 -73.559868 
L 267.27931 -73.733591 
L 265.034483 -75.58643 
L 262.789655 -77.869992 
L 260.544828 -81.299594 
L 258.3 -85.556689 
L 256.055172 -89.252246 
L 253.810345 -95.114935 
L 251.565517 -98.905299 
L 249.32069 -103.941847 
L 247.075862 -101.095818 
L 244.831034 -97.750558 
L 242.586207 -97.594935 
L 240.341379 -102.893261 
L 238.096552 -112.219617 
L 235.851724 -128.690995 
L 233.606897 -141.13853 
L 231.362069 -136.721164 
L 229.117241 -149.901741 
L 226.872414 -153.849205 
L 224.627586 -164.612447 
L 222.382759 -166.026002 
L 220.137931 -158.1223 
L 217.893103 -151.392947 
L 215.648276 -148.216393 
L 213.403448 -144.878488 
L 211.158621 -138.970425 
L 208.913793 -128.713986 
L 206.668966 -127.168789 
L 204.424138 -129.3788 
L 202.17931 -137.665724 
L 199.934483 -137.894554 
L 197.689655 -147.07961 
L 195.444828 -166.617653 
L 193.2 -180.834896 
L 190.955172 -195.002046 
L 188.710345 -215.191428 
L 186.465517 -238.461346 
L 184.22069 -247.145272 
L 181.975862 -255.917443 
L 179.731034 -243.238253 
L 177.486207 -234.513329 
L 175.241379 -224.760718 
L 172.996552 -225.752431 
L 170.751724 -225.173445 
L 168.506897 -222.2492 
L 166.262069 -212.002289 
L 164.017241 -206.771439 
L 161.772414 -206.570723 
L 159.527586 -212.564238 
L 157.282759 -210.38861 
L 155.037931 -210.687774 
L 152.793103 -210.819987 
L 150.548276 -214.525371 
L 148.303448 -217.920581 
L 146.058621 -215.645692 
L 143.813793 -205.832248 
L 141.568966 -199.322216 
L 139.324138 -198.868392 
L 137.07931 -196.593908 
L 134.834483 -199.698435 
L 132.589655 -198.944553 
L 130.344828 -197.88168 
L 128.1 -198.905659 
L 125.855172 -196.663579 
L 123.610345 -192.00115 
L 121.365517 -189.327209 
L 119.12069 -184.690502 
L 116.875862 -183.085586 
L 114.631034 -177.818018 
L 112.386207 -173.502495 
L 110.141379 -168.092532 
L 107.896552 -163.407012 
L 105.651724 -160.381121 
L 103.406897 -155.393327 
L 101.162069 -151.761744 
L 98.917241 -149.624273 
L 96.672414 -149.814075 
L 94.427586 -151.38675 
L 92.182759 -153.450337 
L 89.937931 -156.95326 
L 87.693103 -164.078584 
L 85.448276 -175.195071 
L 83.203448 -188.393583 
L 80.958621 -203.09284 
L 78.713793 -221.570036 
L 76.468966 -248.296763 
L 74.224138 -276.484772 
L 71.97931 -312.907327 
L 69.734483 -354.578293 
L 67.489655 -398.742772 
L 65.244828 -423.94257 
L 63 -430.322911 
z
" style="stroke: #de8f05; stroke-opacity: 0.2"/>
    </defs>
    <g clip-path="url(#pd08c67a955)">
     <use xlink:href="#mb0e84596dc" x="0" y="504" style="fill: #de8f05; fill-opacity: 0.2; stroke: #de8f05; stroke-opacity: 0.2"/>
    </g>
   </g>
   <g id="FillBetweenPolyCollection_2">
    <defs>
     <path id="m0e68cb78c5" d="M 63 -341.28291 
L 63 -87.654274 
L 65.244828 -89.583552 
L 67.489655 -89.208421 
L 69.734483 -86.017488 
L 71.97931 -83.908996 
L 74.224138 -81.374045 
L 76.468966 -79.673521 
L 78.713793 -78.120911 
L 80.958621 -76.600491 
L 83.203448 -76.196199 
L 85.448276 -75.064472 
L 87.693103 -73.842569 
L 89.937931 -73.120306 
L 92.182759 -72.59724 
L 94.427586 -72.832371 
L 96.672414 -73.264094 
L 98.917241 -74.118929 
L 101.162069 -74.412167 
L 103.406897 -75.77975 
L 105.651724 -77.462831 
L 107.896552 -78.377054 
L 110.141379 -80.594563 
L 112.386207 -81.920337 
L 114.631034 -84.438819 
L 116.875862 -86.815601 
L 119.12069 -88.179605 
L 121.365517 -89.143445 
L 123.610345 -90.665943 
L 125.855172 -91.296471 
L 128.1 -93.261349 
L 130.344828 -93.009631 
L 132.589655 -94.574908 
L 134.834483 -95.793727 
L 137.07931 -95.77213 
L 139.324138 -97.509053 
L 141.568966 -98.679626 
L 143.813793 -99.985546 
L 146.058621 -104.0934 
L 148.303448 -104.674518 
L 150.548276 -103.218756 
L 152.793103 -103.288587 
L 155.037931 -103.676625 
L 157.282759 -103.8717 
L 159.527586 -105.312639 
L 161.772414 -104.549298 
L 164.017241 -106.11086 
L 166.262069 -110.227574 
L 168.506897 -117.166607 
L 170.751724 -119.233567 
L 172.996552 -122.254563 
L 175.241379 -126.566484 
L 177.486207 -132.796773 
L 179.731034 -138.129564 
L 181.975862 -145.326922 
L 184.22069 -143.158311 
L 186.465517 -137.958261 
L 188.710345 -126.090316 
L 190.955172 -117.340667 
L 193.2 -110.473293 
L 195.444828 -103.607749 
L 197.689655 -94.708417 
L 199.934483 -90.181843 
L 202.17931 -90.083503 
L 204.424138 -86.478151 
L 206.668966 -86.748862 
L 208.913793 -87.74044 
L 211.158621 -93.537035 
L 213.403448 -96.942241 
L 215.648276 -99.339313 
L 217.893103 -101.861625 
L 220.137931 -107.219767 
L 222.382759 -111.467464 
L 224.627586 -111.868367 
L 226.872414 -106.500631 
L 229.117241 -103.994819 
L 231.362069 -96.706196 
L 233.606897 -98.917013 
L 235.851724 -92.039142 
L 238.096552 -83.859908 
L 240.341379 -78.268466 
L 242.586207 -75.098031 
L 244.831034 -75.247956 
L 247.075862 -76.863861 
L 249.32069 -78.145027 
L 251.565517 -75.717103 
L 253.810345 -73.626679 
L 256.055172 -70.488179 
L 258.3 -68.296595 
L 260.544828 -66.275736 
L 262.789655 -64.670643 
L 265.034483 -63.57414 
L 267.27931 -62.650914 
L 269.524138 -62.228032 
L 271.768966 -62.170011 
L 274.013793 -62.255071 
L 276.258621 -61.956622 
L 278.503448 -61.862011 
L 280.748276 -61.549072 
L 282.993103 -61.102329 
L 285.237931 -60.976601 
L 287.482759 -60.96022 
L 289.727586 -61.027016 
L 291.972414 -60.801079 
L 294.217241 -60.705278 
L 296.462069 -60.656237 
L 298.706897 -60.467849 
L 300.951724 -60.538914 
L 303.196552 -60.332886 
L 305.441379 -60.293669 
L 307.686207 -60.422014 
L 309.931034 -60.487384 
L 312.175862 -60.473498 
L 314.42069 -60.195535 
L 316.665517 -60.265136 
L 318.910345 -60.195724 
L 321.155172 -60.323507 
L 323.4 -60.19663 
L 325.644828 -60.271515 
L 327.889655 -60.089256 
L 330.134483 -60.297045 
L 332.37931 -60.239448 
L 334.624138 -60.3206 
L 336.868966 -60.262653 
L 339.113793 -60.278123 
L 341.358621 -60.338201 
L 343.603448 -60.37509 
L 345.848276 -60.490972 
L 348.093103 -60.519043 
L 350.337931 -60.45185 
L 352.582759 -60.503481 
L 354.827586 -60.424355 
L 357.072414 -60.747031 
L 359.317241 -60.747079 
L 361.562069 -60.606096 
L 363.806897 -60.474144 
L 366.051724 -60.289415 
L 368.296552 -60.124587 
L 370.541379 -60.17324 
L 372.786207 -60.168512 
L 375.031034 -60.131215 
L 377.275862 -60.253601 
L 379.52069 -60.278684 
L 381.765517 -60.142661 
L 384.010345 -60.0299 
L 386.255172 -60.137963 
L 388.5 -60.091173 
L 390.744828 -60.015043 
L 392.989655 -60.013782 
L 395.234483 -60.08329 
L 397.47931 -60.292029 
L 399.724138 -60.299693 
L 401.968966 -60.277418 
L 404.213793 -60.168948 
L 406.458621 -60.160183 
L 408.703448 -60.078547 
L 410.948276 -60.119318 
L 413.193103 -60.203096 
L 415.437931 -60.205284 
L 417.682759 -60.07785 
L 419.927586 -60.174085 
L 422.172414 -60.561336 
L 424.417241 -60.658996 
L 426.662069 -60.706683 
L 428.906897 -60.780393 
L 431.151724 -60.77948 
L 433.396552 -60.719204 
L 435.641379 -60.7065 
L 437.886207 -60.738603 
L 440.131034 -60.868913 
L 442.375862 -60.831734 
L 444.62069 -60.729478 
L 446.865517 -60.6159 
L 449.110345 -60.747962 
L 451.355172 -60.754623 
L 453.6 -61.023001 
L 453.6 -172.423783 
L 453.6 -172.423783 
L 451.355172 -170.779433 
L 449.110345 -165.882052 
L 446.865517 -165.831405 
L 444.62069 -161.825876 
L 442.375862 -163.82663 
L 440.131034 -158.098189 
L 437.886207 -158.703008 
L 435.641379 -157.249392 
L 433.396552 -156.730297 
L 431.151724 -153.508037 
L 428.906897 -152.003627 
L 426.662069 -147.653239 
L 424.417241 -144.196135 
L 422.172414 -142.625094 
L 419.927586 -143.440052 
L 417.682759 -139.389856 
L 415.437931 -136.320867 
L 413.193103 -132.455181 
L 410.948276 -130.830195 
L 408.703448 -129.552155 
L 406.458621 -128.462858 
L 404.213793 -124.327852 
L 401.968966 -121.138049 
L 399.724138 -119.541939 
L 397.47931 -117.202303 
L 395.234483 -117.572522 
L 392.989655 -115.288091 
L 390.744828 -113.327493 
L 388.5 -111.102425 
L 386.255172 -109.87968 
L 384.010345 -110.126658 
L 381.765517 -108.17421 
L 379.52069 -107.66128 
L 377.275862 -106.370224 
L 375.031034 -107.150282 
L 372.786207 -105.819186 
L 370.541379 -104.528128 
L 368.296552 -103.455284 
L 366.051724 -104.483635 
L 363.806897 -102.423199 
L 361.562069 -100.543055 
L 359.317241 -103.605149 
L 357.072414 -101.477028 
L 354.827586 -99.08413 
L 352.582759 -97.654865 
L 350.337931 -95.545671 
L 348.093103 -94.039404 
L 345.848276 -93.687276 
L 343.603448 -92.563504 
L 341.358621 -90.347512 
L 339.113793 -88.100428 
L 336.868966 -87.344963 
L 334.624138 -85.254402 
L 332.37931 -83.808513 
L 330.134483 -83.344088 
L 327.889655 -82.970822 
L 325.644828 -81.688853 
L 323.4 -80.804745 
L 321.155172 -80.54098 
L 318.910345 -79.895498 
L 316.665517 -79.370506 
L 314.42069 -78.854723 
L 312.175862 -78.617965 
L 309.931034 -77.751474 
L 307.686207 -76.264096 
L 305.441379 -75.229553 
L 303.196552 -74.915475 
L 300.951724 -74.380854 
L 298.706897 -74.317784 
L 296.462069 -74.222688 
L 294.217241 -73.897648 
L 291.972414 -74.047003 
L 289.727586 -73.994641 
L 287.482759 -73.381335 
L 285.237931 -72.890135 
L 282.993103 -73.011999 
L 280.748276 -73.629008 
L 278.503448 -74.39892 
L 276.258621 -73.898385 
L 274.013793 -73.91065 
L 271.768966 -74.157156 
L 269.524138 -73.705893 
L 267.27931 -73.966215 
L 265.034483 -75.792794 
L 262.789655 -77.840243 
L 260.544828 -81.070567 
L 258.3 -85.17705 
L 256.055172 -89.220411 
L 253.810345 -94.703101 
L 251.565517 -98.797159 
L 249.32069 -104.436703 
L 247.075862 -100.443459 
L 244.831034 -97.221935 
L 242.586207 -97.533064 
L 240.341379 -103.694836 
L 238.096552 -112.980448 
L 235.851724 -129.031125 
L 233.606897 -142.793938 
L 231.362069 -139.289982 
L 229.117241 -151.650068 
L 226.872414 -156.030013 
L 224.627586 -165.553459 
L 222.382759 -165.090601 
L 220.137931 -155.966896 
L 217.893103 -149.676775 
L 215.648276 -144.44696 
L 213.403448 -140.097089 
L 211.158621 -134.773744 
L 208.913793 -123.090427 
L 206.668966 -122.420447 
L 204.424138 -123.39867 
L 202.17931 -130.4722 
L 199.934483 -131.949723 
L 197.689655 -140.847438 
L 195.444828 -161.995687 
L 193.2 -177.282584 
L 190.955172 -193.527111 
L 188.710345 -216.05796 
L 186.465517 -242.73566 
L 184.22069 -249.937086 
L 181.975862 -259.231655 
L 179.731034 -248.080344 
L 177.486207 -235.070838 
L 175.241379 -223.172482 
L 172.996552 -220.420727 
L 170.751724 -216.860289 
L 168.506897 -211.27863 
L 166.262069 -203.917276 
L 164.017241 -195.897484 
L 161.772414 -194.547664 
L 159.527586 -199.741946 
L 157.282759 -200.287637 
L 155.037931 -196.18222 
L 152.793103 -203.232436 
L 150.548276 -202.241915 
L 148.303448 -205.695423 
L 146.058621 -209.304003 
L 143.813793 -200.521949 
L 141.568966 -197.965318 
L 139.324138 -204.052674 
L 137.07931 -206.929551 
L 134.834483 -206.787883 
L 132.589655 -211.681769 
L 130.344828 -213.584744 
L 128.1 -220.985859 
L 125.855172 -220.081129 
L 123.610345 -212.904331 
L 121.365517 -212.078187 
L 119.12069 -203.967218 
L 116.875862 -195.893098 
L 114.631034 -189.19519 
L 112.386207 -181.529106 
L 110.141379 -171.318804 
L 107.896552 -162.260251 
L 105.651724 -155.170497 
L 103.406897 -145.661373 
L 101.162069 -140.766269 
L 98.917241 -136.734936 
L 96.672414 -133.369475 
L 94.427586 -133.956786 
L 92.182759 -136.014606 
L 89.937931 -136.538501 
L 87.693103 -141.355307 
L 85.448276 -147.29026 
L 83.203448 -160.283533 
L 80.958621 -172.838087 
L 78.713793 -184.08352 
L 76.468966 -203.226632 
L 74.224138 -231.330134 
L 71.97931 -259.888896 
L 69.734483 -291.298091 
L 67.489655 -335.362045 
L 65.244828 -350.999851 
L 63 -341.28291 
z
" style="stroke: #e377c2; stroke-opacity: 0.2"/>
    </defs>
    <g clip-path="url(#pd08c67a955)">
     <use xlink:href="#m0e68cb78c5" x="0" y="504" style="fill: #e377c2; fill-opacity: 0.2; stroke: #e377c2; stroke-opacity: 0.2"/>
    </g>
   </g>
   <g id="matplotlib.axis_2">
    <g id="xtick_1">
     <g id="line2d_9">
      <defs>
       <path id="md55fc4c341" d="M 0 0 
L 0 3.5 
" style="stroke: #000000; stroke-width: 0.8"/>
      </defs>
      <g>
       <use xlink:href="#md55fc4c341" x="74.224138" y="448.56" style="stroke: #000000; stroke-width: 0.8"/>
      </g>
     </g>
     <g id="text_10">
      <text style="font-size: 16px; font-family: 'Arial', sans-serif; text-anchor: middle" x="74.224138" y="467.7175" transform="rotate(-0 74.224138 467.7175)">1 Jul</text>
     </g>
    </g>
    <g id="xtick_2">
     <g id="line2d_10">
      <g>
       <use xlink:href="#md55fc4c341" x="143.813793" y="448.56" style="stroke: #000000; stroke-width: 0.8"/>
      </g>
     </g>
     <g id="text_11">
      <text style="font-size: 16px; font-family: 'Arial', sans-serif; text-anchor: middle" x="143.813793" y="467.71625" transform="rotate(-0 143.813793 467.71625)">1 Aug</text>
     </g>
    </g>
    <g id="xtick_3">
     <g id="line2d_11">
      <g>
       <use xlink:href="#md55fc4c341" x="213.403448" y="448.56" style="stroke: #000000; stroke-width: 0.8"/>
      </g>
     </g>
     <g id="text_12">
      <text style="font-size: 16px; font-family: 'Arial', sans-serif; text-anchor: middle" x="213.403448" y="467.71625" transform="rotate(-0 213.403448 467.71625)">1 Sep</text>
     </g>
    </g>
    <g id="xtick_4">
     <g id="line2d_12">
      <g>
       <use xlink:href="#md55fc4c341" x="280.748276" y="448.56" style="stroke: #000000; stroke-width: 0.8"/>
      </g>
     </g>
     <g id="text_13">
      <text style="font-size: 16px; font-family: 'Arial', sans-serif; text-anchor: middle" x="280.748276" y="467.71625" transform="rotate(-0 280.748276 467.71625)">1 Oct</text>
     </g>
    </g>
    <g id="xtick_5">
     <g id="line2d_13">
      <g>
       <use xlink:href="#md55fc4c341" x="350.337931" y="448.56" style="stroke: #000000; stroke-width: 0.8"/>
      </g>
     </g>
     <g id="text_14">
      <text style="font-size: 16px; font-family: 'Arial', sans-serif; text-anchor: middle" x="350.337931" y="467.71625" transform="rotate(-0 350.337931 467.71625)">1 Nov</text>
     </g>
    </g>
    <g id="xtick_6">
     <g id="line2d_14">
      <g>
       <use xlink:href="#md55fc4c341" x="417.682759" y="448.56" style="stroke: #000000; stroke-width: 0.8"/>
      </g>
     </g>
     <g id="text_15">
      <text style="font-size: 16px; font-family: 'Arial', sans-serif; text-anchor: middle" x="417.682759" y="467.71625" transform="rotate(-0 417.682759 467.71625)">1 Dec</text>
     </g>
    </g>
    <g id="text_16">
     <text style="font-size: 16px; font-family: 'Arial', sans-serif; text-anchor: middle" x="258.3" y="487.7175" transform="rotate(-0 258.3 487.7175)">Date (2017)</text>
    </g>
   </g>
   <g id="matplotlib.axis_3">
    <g id="ytick_9">
     <g id="line2d_15">
      <defs>
       <path id="mcdee15dafe" d="M 0 0 
L -3.5 0 
" style="stroke: #000000; stroke-width: 0.8"/>
      </defs>
      <g>
       <use xlink:href="#mcdee15dafe" x="63" y="448.56" style="stroke: #000000; stroke-width: 0.8"/>
      </g>
     </g>
     <g id="text_17">
      <text style="font-size: 16px; font-family: 'Arial', sans-serif; text-anchor: end" x="56" y="454.638125" transform="rotate(-0 56 454.638125)">0</text>
     </g>
    </g>
    <g id="ytick_10">
     <g id="line2d_16">
      <g>
       <use xlink:href="#mcdee15dafe" x="63" y="370.944" style="stroke: #000000; stroke-width: 0.8"/>
      </g>
     </g>
     <g id="text_18">
      <text style="font-size: 16px; font-family: 'Arial', sans-serif; text-anchor: end" x="56" y="377.022125" transform="rotate(-0 56 377.022125)">2</text>
     </g>
    </g>
    <g id="ytick_11">
     <g id="line2d_17">
      <g>
       <use xlink:href="#mcdee15dafe" x="63" y="293.328" style="stroke: #000000; stroke-width: 0.8"/>
      </g>
     </g>
     <g id="text_19">
      <text style="font-size: 16px; font-family: 'Arial', sans-serif; text-anchor: end" x="56" y="299.406125" transform="rotate(-0 56 299.406125)">4</text>
     </g>
    </g>
    <g id="ytick_12">
     <g id="line2d_18">
      <g>
       <use xlink:href="#mcdee15dafe" x="63" y="215.712" style="stroke: #000000; stroke-width: 0.8"/>
      </g>
     </g>
     <g id="text_20">
      <text style="font-size: 16px; font-family: 'Arial', sans-serif; text-anchor: end" x="56" y="221.790125" transform="rotate(-0 56 221.790125)">6</text>
     </g>
    </g>
    <g id="ytick_13">
     <g id="line2d_19">
      <g>
       <use xlink:href="#mcdee15dafe" x="63" y="138.096" style="stroke: #000000; stroke-width: 0.8"/>
      </g>
     </g>
     <g id="text_21">
      <text style="font-size: 16px; font-family: 'Arial', sans-serif; text-anchor: end" x="56" y="144.174125" transform="rotate(-0 56 144.174125)">8</text>
     </g>
    </g>
    <g id="ytick_14">
     <g id="line2d_20">
      <g>
       <use xlink:href="#mcdee15dafe" x="63" y="60.48" style="stroke: #000000; stroke-width: 0.8"/>
      </g>
     </g>
     <g id="text_22">
      <text style="font-size: 16px; font-family: 'Arial', sans-serif; text-anchor: end" x="56" y="66.558125" transform="rotate(-0 56 66.558125)">10</text>
     </g>
    </g>
    <g id="text_23">
     <text style="font-size: 16px; font-family: 'Arial', sans-serif" transform="translate(6.990312 407.56375) rotate(-90)">Time-dependent reproduction number</text>
     <text style="font-size: 16px; font-family: 'Arial', sans-serif" transform="translate(26.194688 347.58375) rotate(-90)">(autoregressive model)</text>
    </g>
   </g>
   <g id="line2d_21">
    <path d="M 63 303.670842 
L 65.244828 301.15931 
L 67.489655 308.008975 
L 69.734483 323.322383 
L 71.97931 336.559591 
L 74.224138 348.800731 
L 76.468966 359.119988 
L 78.713793 367.860628 
L 80.958621 374.844086 
L 83.203448 380.122549 
L 85.448276 385.988172 
L 87.693103 390.582476 
L 89.937931 393.786877 
L 92.182759 395.717851 
L 94.427586 396.779676 
L 96.672414 397.217204 
L 98.917241 397.017315 
L 101.162069 396.107901 
L 103.406897 394.459696 
L 105.651724 392.203377 
L 107.896552 390.842081 
L 110.141379 388.864019 
L 112.386207 385.782391 
L 114.631034 383.824342 
L 116.875862 380.971952 
L 119.12069 379.457422 
L 121.365517 376.903744 
L 123.610345 375.732335 
L 125.855172 373.205804 
L 128.1 371.866565 
L 130.344828 371.791166 
L 132.589655 370.341056 
L 134.834483 369.754399 
L 137.07931 369.983006 
L 139.324138 368.25526 
L 141.568966 366.933283 
L 143.813793 362.825963 
L 146.058621 355.898566 
L 148.303448 354.435193 
L 150.548276 355.4452 
L 152.793103 356.077346 
L 155.037931 356.004867 
L 157.282759 355.260765 
L 159.527586 353.406105 
L 161.772414 356.449041 
L 164.017241 355.06137 
L 166.262069 351.565956 
L 168.506897 344.034946 
L 170.751724 341.991322 
L 172.996552 340.511925 
L 175.241379 339.331374 
L 179.731034 325.842389 
L 181.975862 317.321983 
L 184.22069 322.557415 
L 186.465517 327.128672 
L 188.710345 342.019864 
L 190.955172 355.143557 
L 195.444828 373.491742 
L 197.689655 386.69086 
L 199.934483 392.946647 
L 202.17931 392.890411 
L 204.424138 398.421183 
L 206.668966 399.030647 
L 208.913793 397.703945 
L 211.158621 390.036433 
L 213.403448 386.113969 
L 215.648276 383.34048 
L 217.893103 380.831979 
L 222.382759 370.119955 
L 224.627586 371.185208 
L 226.872414 378.539787 
L 229.117241 381.187612 
L 231.362069 390.859416 
L 233.606897 387.931975 
L 235.851724 396.762372 
L 238.096552 408.489202 
L 240.341379 415.431682 
L 242.586207 419.185108 
L 244.831034 418.956948 
L 249.32069 414.326818 
L 251.565517 418.197503 
L 253.810345 421.082298 
L 256.055172 425.312176 
L 260.544828 431.325595 
L 262.789655 433.715303 
L 265.034483 435.388953 
L 267.27931 436.665743 
L 269.524138 436.97831 
L 274.013793 436.784442 
L 276.258621 437.096305 
L 278.503448 437.07867 
L 280.748276 437.581868 
L 282.993103 438.233867 
L 285.237931 438.389042 
L 289.727586 437.973712 
L 294.217241 438.333134 
L 296.462069 438.287914 
L 298.706897 438.390037 
L 300.951724 438.265865 
L 303.196552 438.290793 
L 305.441379 438.11551 
L 307.686207 437.818477 
L 309.931034 437.398256 
L 312.175862 437.187302 
L 314.42069 437.229579 
L 318.910345 436.941068 
L 321.155172 436.626357 
L 325.644828 436.565194 
L 330.134483 436.240369 
L 334.624138 435.670199 
L 341.358621 434.325307 
L 343.603448 433.690908 
L 348.093103 433.332358 
L 354.827586 432.384411 
L 359.317241 431.482718 
L 366.051724 431.682914 
L 370.541379 431.662991 
L 377.275862 431.352898 
L 381.765517 430.994825 
L 386.255172 430.456051 
L 390.744828 429.840855 
L 399.724138 428.344578 
L 417.682759 424.315313 
L 433.396552 420.78717 
L 444.62069 418.113674 
L 451.355172 416.666439 
L 453.6 416.286483 
L 453.6 416.286483 
" clip-path="url(#pd08c67a955)" style="fill: none; stroke: #de8f05; stroke-width: 2; stroke-linecap: square"/>
   </g>
   <g id="line2d_22">
    <path d="M 63 335.126595 
L 65.244828 332.677298 
L 67.489655 338.185386 
L 69.734483 350.952877 
L 71.97931 361.727253 
L 74.224138 371.526681 
L 76.468966 380.113235 
L 78.713793 387.006897 
L 80.958621 392.405253 
L 83.203448 396.814266 
L 85.448276 401.499017 
L 87.693103 404.712113 
L 89.937931 406.609949 
L 92.182759 407.640476 
L 94.427586 407.829879 
L 96.672414 407.330298 
L 98.917241 405.956107 
L 101.162069 403.674892 
L 103.406897 400.745835 
L 105.651724 396.63639 
L 107.896552 393.465004 
L 110.141379 389.404612 
L 112.386207 384.255961 
L 114.631034 380.461343 
L 116.875862 375.569187 
L 119.12069 372.354899 
L 121.365517 368.692878 
L 123.610345 367.137934 
L 125.855172 364.339292 
L 128.1 363.709588 
L 130.344828 365.068871 
L 132.589655 364.418826 
L 134.834483 364.594798 
L 137.07931 366.004198 
L 139.324138 365.456745 
L 141.568966 365.824581 
L 143.813793 362.908696 
L 146.058621 357.403966 
L 148.303448 357.1982 
L 150.548276 359.475463 
L 152.793103 360.833629 
L 155.037931 361.389029 
L 157.282759 360.340204 
L 159.527586 358.891924 
L 161.772414 361.730188 
L 164.017241 359.578039 
L 166.262069 354.886115 
L 168.506897 346.876008 
L 170.751724 342.460437 
L 175.241379 336.382621 
L 177.486207 327.290917 
L 179.731034 318.893584 
L 181.975862 309.327469 
L 184.22069 315.211404 
L 186.465517 321.4732 
L 188.710345 338.434372 
L 190.955172 353.859599 
L 195.444828 375.116905 
L 197.689655 388.805464 
L 199.934483 395.538787 
L 202.17931 395.930051 
L 204.424138 401.34498 
L 206.668966 401.978478 
L 208.913793 400.582798 
L 211.158621 392.611673 
L 213.403448 388.249271 
L 217.893103 381.116162 
L 222.382759 368.153132 
L 224.627586 368.622129 
L 226.872414 375.815319 
L 229.117241 378.683809 
L 231.362069 388.831631 
L 233.606897 385.919596 
L 235.851724 395.361598 
L 238.096552 407.544649 
L 240.341379 414.77511 
L 242.586207 418.774633 
L 244.831034 418.852179 
L 249.32069 414.324304 
L 251.565517 418.343423 
L 253.810345 421.208666 
L 256.055172 425.416184 
L 258.3 428.278135 
L 260.544828 431.333481 
L 262.789655 433.676912 
L 265.034483 435.312631 
L 267.27931 436.644015 
L 269.524138 436.932856 
L 274.013793 436.793519 
L 276.258621 437.08876 
L 278.503448 436.985093 
L 282.993103 438.02745 
L 285.237931 438.173003 
L 289.727586 437.702216 
L 294.217241 438.027031 
L 300.951724 437.889601 
L 303.196552 437.915758 
L 305.441379 437.770555 
L 307.686207 437.449361 
L 309.931034 436.96124 
L 312.175862 436.692408 
L 314.42069 436.72649 
L 316.665517 436.625968 
L 321.155172 436.03336 
L 323.4 436.091771 
L 327.889655 435.822046 
L 332.37931 435.291368 
L 336.868966 434.390484 
L 339.113793 433.851181 
L 343.603448 432.516099 
L 345.848276 432.290715 
L 352.582759 431.043188 
L 357.072414 430.112076 
L 359.317241 429.523674 
L 363.806897 429.712667 
L 366.051724 429.615305 
L 372.786207 429.687403 
L 375.031034 429.498822 
L 379.52069 429.37739 
L 381.765517 429.162731 
L 392.989655 427.471218 
L 404.213793 424.81519 
L 406.458621 424.292756 
L 408.703448 423.929393 
L 424.417241 420.098636 
L 426.662069 419.413302 
L 433.396552 417.881206 
L 437.886207 417.136919 
L 440.131034 416.706317 
L 442.375862 416.139132 
L 446.865517 415.315099 
L 451.355172 414.23543 
L 453.6 413.799004 
L 453.6 413.799004 
" clip-path="url(#pd08c67a955)" style="fill: none; stroke-dasharray: 7.4,3.2; stroke-dashoffset: 0; stroke: #e377c2; stroke-width: 2"/>
   </g>
   <g id="patch_179">
    <path d="M 63 448.56 
L 63 60.48 
" style="fill: none; stroke: #000000; stroke-width: 0.8; stroke-linejoin: miter; stroke-linecap: square"/>
   </g>
   <g id="patch_180">
    <path d="M 63 448.56 
L 453.6 448.56 
" style="fill: none; stroke: #000000; stroke-width: 0.8; stroke-linejoin: miter; stroke-linecap: square"/>
   </g>
   <g id="legend_1">
    <g id="patch_181">
     <path d="M 288.05875 113.682187 
L 443.8 113.682187 
Q 446.6 113.682187 446.6 110.882187 
L 446.6 70.28 
Q 446.6 67.48 443.8 67.48 
L 288.05875 67.48 
Q 285.25875 67.48 285.25875 70.28 
L 285.25875 110.882187 
Q 285.25875 113.682187 288.05875 113.682187 
z
" style="fill: #ffffff; opacity: 0.8; stroke: #cccccc; stroke-linejoin: miter"/>
    </g>
    <g id="line2d_23">
     <path d="M 290.85875 78.817812 
L 304.85875 78.817812 
L 318.85875 78.817812 
" style="fill: none; stroke: #de8f05; stroke-width: 2; stroke-linecap: square"/>
    </g>
    <g id="text_24">
     <text style="font-size: 14px; font-family: 'Arial', sans-serif; text-anchor: start" x="330.05875" y="83.717812" transform="rotate(-0 330.05875 83.717812)">Under-reporting</text>
    </g>
    <g id="line2d_24">
     <path d="M 290.85875 99.818906 
L 304.85875 99.818906 
L 318.85875 99.818906 
" style="fill: none; stroke-dasharray: 7.4,3.2; stroke-dashoffset: 0; stroke: #e377c2; stroke-width: 2"/>
    </g>
    <g id="text_25">
     <text style="font-size: 14px; font-family: 'Arial', sans-serif; text-anchor: start" x="330.05875" y="104.718906" transform="rotate(-0 330.05875 104.718906)">Full reporting</text>
    </g>
   </g>
  </g>
 </g>
 <defs>
  <clipPath id="pd08c67a955">
   <rect x="63" y="60.48" width="390.6" height="388.08"/>
  </clipPath>
 </defs>
</svg>
