<?xml version="1.0" encoding="utf-8" standalone="no"?>
<!DOCTYPE svg PUBLIC "-//W3C//DTD SVG 1.1//EN"
  "http://www.w3.org/Graphics/SVG/1.1/DTD/svg11.dtd">
<svg xmlns:xlink="http://www.w3.org/1999/xlink" width="504pt" height="504pt" viewBox="0 0 504 504" xmlns="http://www.w3.org/2000/svg" version="1.1">
 <metadata>
  <rdf:RDF xmlns:dc="http://purl.org/dc/elements/1.1/" xmlns:cc="http://creativecommons.org/ns#" xmlns:rdf="http://www.w3.org/1999/02/22-rdf-syntax-ns#">
   <cc:Work>
    <dc:type rdf:resource="http://purl.org/dc/dcmitype/StillImage"/>
    <dc:date>2026-07-21T19:56:55.499988</dc:date>
    <dc:format>image/svg+xml</dc:format>
    <dc:creator>
     <cc:Agent>
      <dc:title>Matplotlib v3.11.0, https://matplotlib.org/</dc:title>
     </cc:Agent>
    </dc:creator>
   </cc:Work>
  </rdf:RDF>
 </metadata>
 <defs>
  <style type="text/css">*{stroke-linejoin: round; stroke-linecap: butt}</style>
 </defs>
 <g id="figure_1">
  <g id="patch_1">
   <path d="M 0 504 
L 504 504 
L 504 0 
L 0 0 
L 0 504 
z
" style="fill: none"/>
  </g>
  <g id="axes_1">
   <g id="patch_2">
    <path d="M 63 448.56 
L 453.6 448.56 
L 453.6 60.48 
L 63 60.48 
L 63 448.56 
z
" style="fill: none"/>
   </g>
   <g id="matplotlib.axis_1">
    <g id="ytick_1">
     <g id="line2d_1">
      <defs>
       <path id="mdbda725140" d="M 0 0 
L 3.5 0 
" style="stroke: #7f7f7f; stroke-width: 0.8"/>
      </defs>
      <g>
       <use xlink:href="#mdbda725140" x="453.6" y="448.56" style="fill: #7f7f7f; stroke: #7f7f7f; stroke-width: 0.8"/>
      </g>
     </g>
     <g id="text_1">
      <text style="font-size: 16px; font-family: 'Arial', sans-serif; text-anchor: start; fill: #7f7f7f" x="460.6" y="454.638125" transform="rotate(-0 460.6 454.638125)">0</text>
     </g>
    </g>
    <g id="ytick_2">
     <g id="line2d_2">
      <g>
       <use xlink:href="#mdbda725140" x="453.6" y="396.816" style="fill: #7f7f7f; stroke: #7f7f7f; stroke-width: 0.8"/>
      </g>
     </g>
     <g id="text_2">
      <text style="font-size: 16px; font-family: 'Arial', sans-serif; text-anchor: start; fill: #7f7f7f" x="460.6" y="402.894125" transform="rotate(-0 460.6 402.894125)">2</text>
     </g>
    </g>
    <g id="ytick_3">
     <g id="line2d_3">
      <g>
       <use xlink:href="#mdbda725140" x="453.6" y="345.072" style="fill: #7f7f7f; stroke: #7f7f7f; stroke-width: 0.8"/>
      </g>
     </g>
     <g id="text_3">
      <text style="font-size: 16px; font-family: 'Arial', sans-serif; text-anchor: start; fill: #7f7f7f" x="460.6" y="351.150125" transform="rotate(-0 460.6 351.150125)">4</text>
     </g>
    </g>
    <g id="ytick_4">
     <g id="line2d_4">
      <g>
       <use xlink:href="#mdbda725140" x="453.6" y="293.328" style="fill: #7f7f7f; stroke: #7f7f7f; stroke-width: 0.8"/>
      </g>
     </g>
     <g id="text_4">
      <text style="font-size: 16px; font-family: 'Arial', sans-serif; text-anchor: start; fill: #7f7f7f" x="460.6" y="299.406125" transform="rotate(-0 460.6 299.406125)">6</text>
     </g>
    </g>
    <g id="ytick_5">
     <g id="line2d_5">
      <g>
       <use xlink:href="#mdbda725140" x="453.6" y="241.584" style="fill: #7f7f7f; stroke: #7f7f7f; stroke-width: 0.8"/>
      </g>
     </g>
     <g id="text_5">
      <text style="font-size: 16px; font-family: 'Arial', sans-serif; text-anchor: start; fill: #7f7f7f" x="460.6" y="247.662125" transform="rotate(-0 460.6 247.662125)">8</text>
     </g>
    </g>
    <g id="ytick_6">
     <g id="line2d_6">
      <g>
       <use xlink:href="#mdbda725140" x="453.6" y="189.84" style="fill: #7f7f7f; stroke: #7f7f7f; stroke-width: 0.8"/>
      </g>
     </g>
     <g id="text_6">
      <text style="font-size: 16px; font-family: 'Arial', sans-serif; text-anchor: start; fill: #7f7f7f" x="460.6" y="195.918125" transform="rotate(-0 460.6 195.918125)">10</text>
     </g>
    </g>
    <g id="ytick_7">
     <g id="line2d_7">
      <g>
       <use xlink:href="#mdbda725140" x="453.6" y="138.096" style="fill: #7f7f7f; stroke: #7f7f7f; stroke-width: 0.8"/>
      </g>
     </g>
     <g id="text_7">
      <text style="font-size: 16px; font-family: 'Arial', sans-serif; text-anchor: start; fill: #7f7f7f" x="460.6" y="144.174125" transform="rotate(-0 460.6 144.174125)">12</text>
     </g>
    </g>
    <g id="ytick_8">
     <g id="line2d_8">
      <g>
       <use xlink:href="#mdbda725140" x="453.6" y="86.352" style="fill: #7f7f7f; stroke: #7f7f7f; stroke-width: 0.8"/>
      </g>
     </g>
     <g id="text_8">
      <text style="font-size: 16px; font-family: 'Arial', sans-serif; text-anchor: start; fill: #7f7f7f" x="460.6" y="92.430125" transform="rotate(-0 460.6 92.430125)">14</text>
     </g>
    </g>
    <g id="text_9">
     <text style="font-size: 16px; font-family: 'Arial', sans-serif; text-anchor: middle; fill: #7f7f7f" x="497.1175" y="254.52" transform="rotate(-90 497.1175 254.52)">Number of cases</text>
    </g>
   </g>
   <g id="patch_3">
    <path d="M 62.168936 448.56 
L 63.831064 448.56 
L 63.831064 396.816 
L 62.168936 396.816 
z
" clip-path="url(#pcecef7f50f)" style="fill: #7f7f7f; opacity: 0.5"/>
   </g>
   <g id="patch_4">
    <path d="M 64.246596 448.56 
L 65.908723 448.56 
L 65.908723 396.816 
L 64.246596 396.816 
z
" clip-path="url(#pcecef7f50f)" style="fill: #7f7f7f; opacity: 0.5"/>
   </g>
   <g id="patch_5">
    <path d="M 66.324255 448.56 
L 67.986383 448.56 
L 67.986383 396.816 
L 66.324255 396.816 
z
" clip-path="url(#pcecef7f50f)" style="fill: #7f7f7f; opacity: 0.5"/>
   </g>
   <g id="patch_6">
    <path d="M 68.401915 448.56 
L 70.064043 448.56 
L 70.064043 448.56 
L 68.401915 448.56 
z
" clip-path="url(#pcecef7f50f)" style="fill: #7f7f7f; opacity: 0.5"/>
   </g>
   <g id="patch_7">
    <path d="M 70.479574 448.56 
L 72.141702 448.56 
L 72.141702 448.56 
L 70.479574 448.56 
z
" clip-path="url(#pcecef7f50f)" style="fill: #7f7f7f; opacity: 0.5"/>
   </g>
   <g id="patch_8">
    <path d="M 72.557234 448.56 
L 74.219362 448.56 
L 74.219362 448.56 
L 72.557234 448.56 
z
" clip-path="url(#pcecef7f50f)" style="fill: #7f7f7f; opacity: 0.5"/>
   </g>
   <g id="patch_9">
    <path d="M 74.634894 448.56 
L 76.297021 448.56 
L 76.297021 448.56 
L 74.634894 448.56 
z
" clip-path="url(#pcecef7f50f)" style="fill: #7f7f7f; opacity: 0.5"/>
   </g>
   <g id="patch_10">
    <path d="M 76.712553 448.56 
L 78.374681 448.56 
L 78.374681 448.56 
L 76.712553 448.56 
z
" clip-path="url(#pcecef7f50f)" style="fill: #7f7f7f; opacity: 0.5"/>
   </g>
   <g id="patch_11">
    <path d="M 78.790213 448.56 
L 80.45234 448.56 
L 80.45234 448.56 
L 78.790213 448.56 
z
" clip-path="url(#pcecef7f50f)" style="fill: #7f7f7f; opacity: 0.5"/>
   </g>
   <g id="patch_12">
    <path d="M 80.867872 448.56 
L 82.53 448.56 
L 82.53 422.688 
L 80.867872 422.688 
z
" clip-path="url(#pcecef7f50f)" style="fill: #7f7f7f; opacity: 0.5"/>
   </g>
   <g id="patch_13">
    <path d="M 82.945532 448.56 
L 84.60766 448.56 
L 84.60766 448.56 
L 82.945532 448.56 
z
" clip-path="url(#pcecef7f50f)" style="fill: #7f7f7f; opacity: 0.5"/>
   </g>
   <g id="patch_14">
    <path d="M 85.023191 448.56 
L 86.685319 448.56 
L 86.685319 448.56 
L 85.023191 448.56 
z
" clip-path="url(#pcecef7f50f)" style="fill: #7f7f7f; opacity: 0.5"/>
   </g>
   <g id="patch_15">
    <path d="M 87.100851 448.56 
L 88.762979 448.56 
L 88.762979 448.56 
L 87.100851 448.56 
z
" clip-path="url(#pcecef7f50f)" style="fill: #7f7f7f; opacity: 0.5"/>
   </g>
   <g id="patch_16">
    <path d="M 89.178511 448.56 
L 90.840638 448.56 
L 90.840638 448.56 
L 89.178511 448.56 
z
" clip-path="url(#pcecef7f50f)" style="fill: #7f7f7f; opacity: 0.5"/>
   </g>
   <g id="patch_17">
    <path d="M 91.25617 448.56 
L 92.918298 448.56 
L 92.918298 448.56 
L 91.25617 448.56 
z
" clip-path="url(#pcecef7f50f)" style="fill: #7f7f7f; opacity: 0.5"/>
   </g>
   <g id="patch_18">
    <path d="M 93.33383 448.56 
L 94.995957 448.56 
L 94.995957 448.56 
L 93.33383 448.56 
z
" clip-path="url(#pcecef7f50f)" style="fill: #7f7f7f; opacity: 0.5"/>
   </g>
   <g id="patch_19">
    <path d="M 95.411489 448.56 
L 97.073617 448.56 
L 97.073617 448.56 
L 95.411489 448.56 
z
" clip-path="url(#pcecef7f50f)" style="fill: #7f7f7f; opacity: 0.5"/>
   </g>
   <g id="patch_20">
    <path d="M 97.489149 448.56 
L 99.151277 448.56 
L 99.151277 448.56 
L 97.489149 448.56 
z
" clip-path="url(#pcecef7f50f)" style="fill: #7f7f7f; opacity: 0.5"/>
   </g>
   <g id="patch_21">
    <path d="M 99.566809 448.56 
L 101.228936 448.56 
L 101.228936 448.56 
L 99.566809 448.56 
z
" clip-path="url(#pcecef7f50f)" style="fill: #7f7f7f; opacity: 0.5"/>
   </g>
   <g id="patch_22">
    <path d="M 101.644468 448.56 
L 103.306596 448.56 
L 103.306596 422.688 
L 101.644468 422.688 
z
" clip-path="url(#pcecef7f50f)" style="fill: #7f7f7f; opacity: 0.5"/>
   </g>
   <g id="patch_23">
    <path d="M 103.722128 448.56 
L 105.384255 448.56 
L 105.384255 448.56 
L 103.722128 448.56 
z
" clip-path="url(#pcecef7f50f)" style="fill: #7f7f7f; opacity: 0.5"/>
   </g>
   <g id="patch_24">
    <path d="M 105.799787 448.56 
L 107.461915 448.56 
L 107.461915 448.56 
L 105.799787 448.56 
z
" clip-path="url(#pcecef7f50f)" style="fill: #7f7f7f; opacity: 0.5"/>
   </g>
   <g id="patch_25">
    <path d="M 107.877447 448.56 
L 109.539574 448.56 
L 109.539574 422.688 
L 107.877447 422.688 
z
" clip-path="url(#pcecef7f50f)" style="fill: #7f7f7f; opacity: 0.5"/>
   </g>
   <g id="patch_26">
    <path d="M 109.955106 448.56 
L 111.617234 448.56 
L 111.617234 448.56 
L 109.955106 448.56 
z
" clip-path="url(#pcecef7f50f)" style="fill: #7f7f7f; opacity: 0.5"/>
   </g>
   <g id="patch_27">
    <path d="M 112.032766 448.56 
L 113.694894 448.56 
L 113.694894 422.688 
L 112.032766 422.688 
z
" clip-path="url(#pcecef7f50f)" style="fill: #7f7f7f; opacity: 0.5"/>
   </g>
   <g id="patch_28">
    <path d="M 114.110426 448.56 
L 115.772553 448.56 
L 115.772553 448.56 
L 114.110426 448.56 
z
" clip-path="url(#pcecef7f50f)" style="fill: #7f7f7f; opacity: 0.5"/>
   </g>
   <g id="patch_29">
    <path d="M 116.188085 448.56 
L 117.850213 448.56 
L 117.850213 422.688 
L 116.188085 422.688 
z
" clip-path="url(#pcecef7f50f)" style="fill: #7f7f7f; opacity: 0.5"/>
   </g>
   <g id="patch_30">
    <path d="M 118.265745 448.56 
L 119.927872 448.56 
L 119.927872 448.56 
L 118.265745 448.56 
z
" clip-path="url(#pcecef7f50f)" style="fill: #7f7f7f; opacity: 0.5"/>
   </g>
   <g id="patch_31">
    <path d="M 120.343404 448.56 
L 122.005532 448.56 
L 122.005532 422.688 
L 120.343404 422.688 
z
" clip-path="url(#pcecef7f50f)" style="fill: #7f7f7f; opacity: 0.5"/>
   </g>
   <g id="patch_32">
    <path d="M 122.421064 448.56 
L 124.083191 448.56 
L 124.083191 422.688 
L 122.421064 422.688 
z
" clip-path="url(#pcecef7f50f)" style="fill: #7f7f7f; opacity: 0.5"/>
   </g>
   <g id="patch_33">
    <path d="M 124.498723 448.56 
L 126.160851 448.56 
L 126.160851 448.56 
L 124.498723 448.56 
z
" clip-path="url(#pcecef7f50f)" style="fill: #7f7f7f; opacity: 0.5"/>
   </g>
   <g id="patch_34">
    <path d="M 126.576383 448.56 
L 128.238511 448.56 
L 128.238511 422.688 
L 126.576383 422.688 
z
" clip-path="url(#pcecef7f50f)" style="fill: #7f7f7f; opacity: 0.5"/>
   </g>
   <g id="patch_35">
    <path d="M 128.654043 448.56 
L 130.31617 448.56 
L 130.31617 422.688 
L 128.654043 422.688 
z
" clip-path="url(#pcecef7f50f)" style="fill: #7f7f7f; opacity: 0.5"/>
   </g>
   <g id="patch_36">
    <path d="M 130.731702 448.56 
L 132.39383 448.56 
L 132.39383 448.56 
L 130.731702 448.56 
z
" clip-path="url(#pcecef7f50f)" style="fill: #7f7f7f; opacity: 0.5"/>
   </g>
   <g id="patch_37">
    <path d="M 132.809362 448.56 
L 134.471489 448.56 
L 134.471489 422.688 
L 132.809362 422.688 
z
" clip-path="url(#pcecef7f50f)" style="fill: #7f7f7f; opacity: 0.5"/>
   </g>
   <g id="patch_38">
    <path d="M 134.887021 448.56 
L 136.549149 448.56 
L 136.549149 448.56 
L 134.887021 448.56 
z
" clip-path="url(#pcecef7f50f)" style="fill: #7f7f7f; opacity: 0.5"/>
   </g>
   <g id="patch_39">
    <path d="M 136.964681 448.56 
L 138.626809 448.56 
L 138.626809 448.56 
L 136.964681 448.56 
z
" clip-path="url(#pcecef7f50f)" style="fill: #7f7f7f; opacity: 0.5"/>
   </g>
   <g id="patch_40">
    <path d="M 139.04234 448.56 
L 140.704468 448.56 
L 140.704468 370.944 
L 139.04234 370.944 
z
" clip-path="url(#pcecef7f50f)" style="fill: #7f7f7f; opacity: 0.5"/>
   </g>
   <g id="patch_41">
    <path d="M 141.12 448.56 
L 142.782128 448.56 
L 142.782128 396.816 
L 141.12 396.816 
z
" clip-path="url(#pcecef7f50f)" style="fill: #7f7f7f; opacity: 0.5"/>
   </g>
   <g id="patch_42">
    <path d="M 143.19766 448.56 
L 144.859787 448.56 
L 144.859787 422.688 
L 143.19766 422.688 
z
" clip-path="url(#pcecef7f50f)" style="fill: #7f7f7f; opacity: 0.5"/>
   </g>
   <g id="patch_43">
    <path d="M 145.275319 448.56 
L 146.937447 448.56 
L 146.937447 422.688 
L 145.275319 422.688 
z
" clip-path="url(#pcecef7f50f)" style="fill: #7f7f7f; opacity: 0.5"/>
   </g>
   <g id="patch_44">
    <path d="M 147.352979 448.56 
L 149.015106 448.56 
L 149.015106 422.688 
L 147.352979 422.688 
z
" clip-path="url(#pcecef7f50f)" style="fill: #7f7f7f; opacity: 0.5"/>
   </g>
   <g id="patch_45">
    <path d="M 149.430638 448.56 
L 151.092766 448.56 
L 151.092766 422.688 
L 149.430638 422.688 
z
" clip-path="url(#pcecef7f50f)" style="fill: #7f7f7f; opacity: 0.5"/>
   </g>
   <g id="patch_46">
    <path d="M 151.508298 448.56 
L 153.170426 448.56 
L 153.170426 370.944 
L 151.508298 370.944 
z
" clip-path="url(#pcecef7f50f)" style="fill: #7f7f7f; opacity: 0.5"/>
   </g>
   <g id="patch_47">
    <path d="M 153.585957 448.56 
L 155.248085 448.56 
L 155.248085 448.56 
L 153.585957 448.56 
z
" clip-path="url(#pcecef7f50f)" style="fill: #7f7f7f; opacity: 0.5"/>
   </g>
   <g id="patch_48">
    <path d="M 155.663617 448.56 
L 157.325745 448.56 
L 157.325745 422.688 
L 155.663617 422.688 
z
" clip-path="url(#pcecef7f50f)" style="fill: #7f7f7f; opacity: 0.5"/>
   </g>
   <g id="patch_49">
    <path d="M 157.741277 448.56 
L 159.403404 448.56 
L 159.403404 422.688 
L 157.741277 422.688 
z
" clip-path="url(#pcecef7f50f)" style="fill: #7f7f7f; opacity: 0.5"/>
   </g>
   <g id="patch_50">
    <path d="M 159.818936 448.56 
L 161.481064 448.56 
L 161.481064 345.072 
L 159.818936 345.072 
z
" clip-path="url(#pcecef7f50f)" style="fill: #7f7f7f; opacity: 0.5"/>
   </g>
   <g id="patch_51">
    <path d="M 161.896596 448.56 
L 163.558723 448.56 
L 163.558723 370.944 
L 161.896596 370.944 
z
" clip-path="url(#pcecef7f50f)" style="fill: #7f7f7f; opacity: 0.5"/>
   </g>
   <g id="patch_52">
    <path d="M 163.974255 448.56 
L 165.636383 448.56 
L 165.636383 370.944 
L 163.974255 370.944 
z
" clip-path="url(#pcecef7f50f)" style="fill: #7f7f7f; opacity: 0.5"/>
   </g>
   <g id="patch_53">
    <path d="M 166.051915 448.56 
L 167.714043 448.56 
L 167.714043 396.816 
L 166.051915 396.816 
z
" clip-path="url(#pcecef7f50f)" style="fill: #7f7f7f; opacity: 0.5"/>
   </g>
   <g id="patch_54">
    <path d="M 168.129574 448.56 
L 169.791702 448.56 
L 169.791702 345.072 
L 168.129574 345.072 
z
" clip-path="url(#pcecef7f50f)" style="fill: #7f7f7f; opacity: 0.5"/>
   </g>
   <g id="patch_55">
    <path d="M 170.207234 448.56 
L 171.869362 448.56 
L 171.869362 345.072 
L 170.207234 345.072 
z
" clip-path="url(#pcecef7f50f)" style="fill: #7f7f7f; opacity: 0.5"/>
   </g>
   <g id="patch_56">
    <path d="M 172.284894 448.56 
L 173.947021 448.56 
L 173.947021 241.584 
L 172.284894 241.584 
z
" clip-path="url(#pcecef7f50f)" style="fill: #7f7f7f; opacity: 0.5"/>
   </g>
   <g id="patch_57">
    <path d="M 174.362553 448.56 
L 176.024681 448.56 
L 176.024681 319.2 
L 174.362553 319.2 
z
" clip-path="url(#pcecef7f50f)" style="fill: #7f7f7f; opacity: 0.5"/>
   </g>
   <g id="patch_58">
    <path d="M 176.440213 448.56 
L 178.10234 448.56 
L 178.10234 241.584 
L 176.440213 241.584 
z
" clip-path="url(#pcecef7f50f)" style="fill: #7f7f7f; opacity: 0.5"/>
   </g>
   <g id="patch_59">
    <path d="M 178.517872 448.56 
L 180.18 448.56 
L 180.18 319.2 
L 178.517872 319.2 
z
" clip-path="url(#pcecef7f50f)" style="fill: #7f7f7f; opacity: 0.5"/>
   </g>
   <g id="patch_60">
    <path d="M 180.595532 448.56 
L 182.25766 448.56 
L 182.25766 345.072 
L 180.595532 345.072 
z
" clip-path="url(#pcecef7f50f)" style="fill: #7f7f7f; opacity: 0.5"/>
   </g>
   <g id="patch_61">
    <path d="M 182.673191 448.56 
L 184.335319 448.56 
L 184.335319 319.2 
L 182.673191 319.2 
z
" clip-path="url(#pcecef7f50f)" style="fill: #7f7f7f; opacity: 0.5"/>
   </g>
   <g id="patch_62">
    <path d="M 184.750851 448.56 
L 186.412979 448.56 
L 186.412979 267.456 
L 184.750851 267.456 
z
" clip-path="url(#pcecef7f50f)" style="fill: #7f7f7f; opacity: 0.5"/>
   </g>
   <g id="patch_63">
    <path d="M 186.828511 448.56 
L 188.490638 448.56 
L 188.490638 396.816 
L 186.828511 396.816 
z
" clip-path="url(#pcecef7f50f)" style="fill: #7f7f7f; opacity: 0.5"/>
   </g>
   <g id="patch_64">
    <path d="M 188.90617 448.56 
L 190.568298 448.56 
L 190.568298 422.688 
L 188.90617 422.688 
z
" clip-path="url(#pcecef7f50f)" style="fill: #7f7f7f; opacity: 0.5"/>
   </g>
   <g id="patch_65">
    <path d="M 190.98383 448.56 
L 192.645957 448.56 
L 192.645957 241.584 
L 190.98383 241.584 
z
" clip-path="url(#pcecef7f50f)" style="fill: #7f7f7f; opacity: 0.5"/>
   </g>
   <g id="patch_66">
    <path d="M 193.061489 448.56 
L 194.723617 448.56 
L 194.723617 396.816 
L 193.061489 396.816 
z
" clip-path="url(#pcecef7f50f)" style="fill: #7f7f7f; opacity: 0.5"/>
   </g>
   <g id="patch_67">
    <path d="M 195.139149 448.56 
L 196.801277 448.56 
L 196.801277 345.072 
L 195.139149 345.072 
z
" clip-path="url(#pcecef7f50f)" style="fill: #7f7f7f; opacity: 0.5"/>
   </g>
   <g id="patch_68">
    <path d="M 197.216809 448.56 
L 198.878936 448.56 
L 198.878936 396.816 
L 197.216809 396.816 
z
" clip-path="url(#pcecef7f50f)" style="fill: #7f7f7f; opacity: 0.5"/>
   </g>
   <g id="patch_69">
    <path d="M 199.294468 448.56 
L 200.956596 448.56 
L 200.956596 215.712 
L 199.294468 215.712 
z
" clip-path="url(#pcecef7f50f)" style="fill: #7f7f7f; opacity: 0.5"/>
   </g>
   <g id="patch_70">
    <path d="M 201.372128 448.56 
L 203.034255 448.56 
L 203.034255 241.584 
L 201.372128 241.584 
z
" clip-path="url(#pcecef7f50f)" style="fill: #7f7f7f; opacity: 0.5"/>
   </g>
   <g id="patch_71">
    <path d="M 203.449787 448.56 
L 205.111915 448.56 
L 205.111915 241.584 
L 203.449787 241.584 
z
" clip-path="url(#pcecef7f50f)" style="fill: #7f7f7f; opacity: 0.5"/>
   </g>
   <g id="patch_72">
    <path d="M 205.527447 448.56 
L 207.189574 448.56 
L 207.189574 267.456 
L 205.527447 267.456 
z
" clip-path="url(#pcecef7f50f)" style="fill: #7f7f7f; opacity: 0.5"/>
   </g>
   <g id="patch_73">
    <path d="M 207.605106 448.56 
L 209.267234 448.56 
L 209.267234 215.712 
L 207.605106 215.712 
z
" clip-path="url(#pcecef7f50f)" style="fill: #7f7f7f; opacity: 0.5"/>
   </g>
   <g id="patch_74">
    <path d="M 209.682766 448.56 
L 211.344894 448.56 
L 211.344894 138.096 
L 209.682766 138.096 
z
" clip-path="url(#pcecef7f50f)" style="fill: #7f7f7f; opacity: 0.5"/>
   </g>
   <g id="patch_75">
    <path d="M 211.760426 448.56 
L 213.422553 448.56 
L 213.422553 138.096 
L 211.760426 138.096 
z
" clip-path="url(#pcecef7f50f)" style="fill: #7f7f7f; opacity: 0.5"/>
   </g>
   <g id="patch_76">
    <path d="M 213.838085 448.56 
L 215.500213 448.56 
L 215.500213 267.456 
L 213.838085 267.456 
z
" clip-path="url(#pcecef7f50f)" style="fill: #7f7f7f; opacity: 0.5"/>
   </g>
   <g id="patch_77">
    <path d="M 215.915745 448.56 
L 217.577872 448.56 
L 217.577872 138.096 
L 215.915745 138.096 
z
" clip-path="url(#pcecef7f50f)" style="fill: #7f7f7f; opacity: 0.5"/>
   </g>
   <g id="patch_78">
    <path d="M 217.993404 448.56 
L 219.655532 448.56 
L 219.655532 396.816 
L 217.993404 396.816 
z
" clip-path="url(#pcecef7f50f)" style="fill: #7f7f7f; opacity: 0.5"/>
   </g>
   <g id="patch_79">
    <path d="M 220.071064 448.56 
L 221.733191 448.56 
L 221.733191 60.48 
L 220.071064 60.48 
z
" clip-path="url(#pcecef7f50f)" style="fill: #7f7f7f; opacity: 0.5"/>
   </g>
   <g id="patch_80">
    <path d="M 222.148723 448.56 
L 223.810851 448.56 
L 223.810851 163.968 
L 222.148723 163.968 
z
" clip-path="url(#pcecef7f50f)" style="fill: #7f7f7f; opacity: 0.5"/>
   </g>
   <g id="patch_81">
    <path d="M 224.226383 448.56 
L 225.888511 448.56 
L 225.888511 319.2 
L 224.226383 319.2 
z
" clip-path="url(#pcecef7f50f)" style="fill: #7f7f7f; opacity: 0.5"/>
   </g>
   <g id="patch_82">
    <path d="M 226.304043 448.56 
L 227.96617 448.56 
L 227.96617 345.072 
L 226.304043 345.072 
z
" clip-path="url(#pcecef7f50f)" style="fill: #7f7f7f; opacity: 0.5"/>
   </g>
   <g id="patch_83">
    <path d="M 228.381702 448.56 
L 230.04383 448.56 
L 230.04383 396.816 
L 228.381702 396.816 
z
" clip-path="url(#pcecef7f50f)" style="fill: #7f7f7f; opacity: 0.5"/>
   </g>
   <g id="patch_84">
    <path d="M 230.459362 448.56 
L 232.121489 448.56 
L 232.121489 345.072 
L 230.459362 345.072 
z
" clip-path="url(#pcecef7f50f)" style="fill: #7f7f7f; opacity: 0.5"/>
   </g>
   <g id="patch_85">
    <path d="M 232.537021 448.56 
L 234.199149 448.56 
L 234.199149 267.456 
L 232.537021 267.456 
z
" clip-path="url(#pcecef7f50f)" style="fill: #7f7f7f; opacity: 0.5"/>
   </g>
   <g id="patch_86">
    <path d="M 234.614681 448.56 
L 236.276809 448.56 
L 236.276809 112.224 
L 234.614681 112.224 
z
" clip-path="url(#pcecef7f50f)" style="fill: #7f7f7f; opacity: 0.5"/>
   </g>
   <g id="patch_87">
    <path d="M 236.69234 448.56 
L 238.354468 448.56 
L 238.354468 293.328 
L 236.69234 293.328 
z
" clip-path="url(#pcecef7f50f)" style="fill: #7f7f7f; opacity: 0.5"/>
   </g>
   <g id="patch_88">
    <path d="M 238.77 448.56 
L 240.432128 448.56 
L 240.432128 241.584 
L 238.77 241.584 
z
" clip-path="url(#pcecef7f50f)" style="fill: #7f7f7f; opacity: 0.5"/>
   </g>
   <g id="patch_89">
    <path d="M 240.84766 448.56 
L 242.509787 448.56 
L 242.509787 345.072 
L 240.84766 345.072 
z
" clip-path="url(#pcecef7f50f)" style="fill: #7f7f7f; opacity: 0.5"/>
   </g>
   <g id="patch_90">
    <path d="M 242.925319 448.56 
L 244.587447 448.56 
L 244.587447 319.2 
L 242.925319 319.2 
z
" clip-path="url(#pcecef7f50f)" style="fill: #7f7f7f; opacity: 0.5"/>
   </g>
   <g id="patch_91">
    <path d="M 245.002979 448.56 
L 246.665106 448.56 
L 246.665106 370.944 
L 245.002979 370.944 
z
" clip-path="url(#pcecef7f50f)" style="fill: #7f7f7f; opacity: 0.5"/>
   </g>
   <g id="patch_92">
    <path d="M 247.080638 448.56 
L 248.742766 448.56 
L 248.742766 396.816 
L 247.080638 396.816 
z
" clip-path="url(#pcecef7f50f)" style="fill: #7f7f7f; opacity: 0.5"/>
   </g>
   <g id="patch_93">
    <path d="M 249.158298 448.56 
L 250.820426 448.56 
L 250.820426 396.816 
L 249.158298 396.816 
z
" clip-path="url(#pcecef7f50f)" style="fill: #7f7f7f; opacity: 0.5"/>
   </g>
   <g id="patch_94">
    <path d="M 251.235957 448.56 
L 252.898085 448.56 
L 252.898085 448.56 
L 251.235957 448.56 
z
" clip-path="url(#pcecef7f50f)" style="fill: #7f7f7f; opacity: 0.5"/>
   </g>
   <g id="patch_95">
    <path d="M 253.313617 448.56 
L 254.975745 448.56 
L 254.975745 422.688 
L 253.313617 422.688 
z
" clip-path="url(#pcecef7f50f)" style="fill: #7f7f7f; opacity: 0.5"/>
   </g>
   <g id="patch_96">
    <path d="M 255.391277 448.56 
L 257.053404 448.56 
L 257.053404 396.816 
L 255.391277 396.816 
z
" clip-path="url(#pcecef7f50f)" style="fill: #7f7f7f; opacity: 0.5"/>
   </g>
   <g id="patch_97">
    <path d="M 257.468936 448.56 
L 259.131064 448.56 
L 259.131064 370.944 
L 257.468936 370.944 
z
" clip-path="url(#pcecef7f50f)" style="fill: #7f7f7f; opacity: 0.5"/>
   </g>
   <g id="patch_98">
    <path d="M 259.546596 448.56 
L 261.208723 448.56 
L 261.208723 422.688 
L 259.546596 422.688 
z
" clip-path="url(#pcecef7f50f)" style="fill: #7f7f7f; opacity: 0.5"/>
   </g>
   <g id="patch_99">
    <path d="M 261.624255 448.56 
L 263.286383 448.56 
L 263.286383 370.944 
L 261.624255 370.944 
z
" clip-path="url(#pcecef7f50f)" style="fill: #7f7f7f; opacity: 0.5"/>
   </g>
   <g id="patch_100">
    <path d="M 263.701915 448.56 
L 265.364043 448.56 
L 265.364043 396.816 
L 263.701915 396.816 
z
" clip-path="url(#pcecef7f50f)" style="fill: #7f7f7f; opacity: 0.5"/>
   </g>
   <g id="patch_101">
    <path d="M 265.779574 448.56 
L 267.441702 448.56 
L 267.441702 448.56 
L 265.779574 448.56 
z
" clip-path="url(#pcecef7f50f)" style="fill: #7f7f7f; opacity: 0.5"/>
   </g>
   <g id="patch_102">
    <path d="M 267.857234 448.56 
L 269.519362 448.56 
L 269.519362 448.56 
L 267.857234 448.56 
z
" clip-path="url(#pcecef7f50f)" style="fill: #7f7f7f; opacity: 0.5"/>
   </g>
   <g id="patch_103">
    <path d="M 269.934894 448.56 
L 271.597021 448.56 
L 271.597021 422.688 
L 269.934894 422.688 
z
" clip-path="url(#pcecef7f50f)" style="fill: #7f7f7f; opacity: 0.5"/>
   </g>
   <g id="patch_104">
    <path d="M 272.012553 448.56 
L 273.674681 448.56 
L 273.674681 396.816 
L 272.012553 396.816 
z
" clip-path="url(#pcecef7f50f)" style="fill: #7f7f7f; opacity: 0.5"/>
   </g>
   <g id="patch_105">
    <path d="M 274.090213 448.56 
L 275.75234 448.56 
L 275.75234 422.688 
L 274.090213 422.688 
z
" clip-path="url(#pcecef7f50f)" style="fill: #7f7f7f; opacity: 0.5"/>
   </g>
   <g id="patch_106">
    <path d="M 276.167872 448.56 
L 277.83 448.56 
L 277.83 448.56 
L 276.167872 448.56 
z
" clip-path="url(#pcecef7f50f)" style="fill: #7f7f7f; opacity: 0.5"/>
   </g>
   <g id="patch_107">
    <path d="M 278.245532 448.56 
L 279.90766 448.56 
L 279.90766 422.688 
L 278.245532 422.688 
z
" clip-path="url(#pcecef7f50f)" style="fill: #7f7f7f; opacity: 0.5"/>
   </g>
   <g id="patch_108">
    <path d="M 280.323191 448.56 
L 281.985319 448.56 
L 281.985319 448.56 
L 280.323191 448.56 
z
" clip-path="url(#pcecef7f50f)" style="fill: #7f7f7f; opacity: 0.5"/>
   </g>
   <g id="patch_109">
    <path d="M 282.400851 448.56 
L 284.062979 448.56 
L 284.062979 422.688 
L 282.400851 422.688 
z
" clip-path="url(#pcecef7f50f)" style="fill: #7f7f7f; opacity: 0.5"/>
   </g>
   <g id="patch_110">
    <path d="M 284.478511 448.56 
L 286.140638 448.56 
L 286.140638 448.56 
L 284.478511 448.56 
z
" clip-path="url(#pcecef7f50f)" style="fill: #7f7f7f; opacity: 0.5"/>
   </g>
   <g id="patch_111">
    <path d="M 286.55617 448.56 
L 288.218298 448.56 
L 288.218298 448.56 
L 286.55617 448.56 
z
" clip-path="url(#pcecef7f50f)" style="fill: #7f7f7f; opacity: 0.5"/>
   </g>
   <g id="patch_112">
    <path d="M 288.63383 448.56 
L 290.295957 448.56 
L 290.295957 448.56 
L 288.63383 448.56 
z
" clip-path="url(#pcecef7f50f)" style="fill: #7f7f7f; opacity: 0.5"/>
   </g>
   <g id="patch_113">
    <path d="M 290.711489 448.56 
L 292.373617 448.56 
L 292.373617 422.688 
L 290.711489 422.688 
z
" clip-path="url(#pcecef7f50f)" style="fill: #7f7f7f; opacity: 0.5"/>
   </g>
   <g id="patch_114">
    <path d="M 292.789149 448.56 
L 294.451277 448.56 
L 294.451277 422.688 
L 292.789149 422.688 
z
" clip-path="url(#pcecef7f50f)" style="fill: #7f7f7f; opacity: 0.5"/>
   </g>
   <g id="patch_115">
    <path d="M 294.866809 448.56 
L 296.528936 448.56 
L 296.528936 448.56 
L 294.866809 448.56 
z
" clip-path="url(#pcecef7f50f)" style="fill: #7f7f7f; opacity: 0.5"/>
   </g>
   <g id="patch_116">
    <path d="M 296.944468 448.56 
L 298.606596 448.56 
L 298.606596 448.56 
L 296.944468 448.56 
z
" clip-path="url(#pcecef7f50f)" style="fill: #7f7f7f; opacity: 0.5"/>
   </g>
   <g id="patch_117">
    <path d="M 299.022128 448.56 
L 300.684255 448.56 
L 300.684255 448.56 
L 299.022128 448.56 
z
" clip-path="url(#pcecef7f50f)" style="fill: #7f7f7f; opacity: 0.5"/>
   </g>
   <g id="patch_118">
    <path d="M 301.099787 448.56 
L 302.761915 448.56 
L 302.761915 422.688 
L 301.099787 422.688 
z
" clip-path="url(#pcecef7f50f)" style="fill: #7f7f7f; opacity: 0.5"/>
   </g>
   <g id="patch_119">
    <path d="M 303.177447 448.56 
L 304.839574 448.56 
L 304.839574 448.56 
L 303.177447 448.56 
z
" clip-path="url(#pcecef7f50f)" style="fill: #7f7f7f; opacity: 0.5"/>
   </g>
   <g id="patch_120">
    <path d="M 305.255106 448.56 
L 306.917234 448.56 
L 306.917234 448.56 
L 305.255106 448.56 
z
" clip-path="url(#pcecef7f50f)" style="fill: #7f7f7f; opacity: 0.5"/>
   </g>
   <g id="patch_121">
    <path d="M 307.332766 448.56 
L 308.994894 448.56 
L 308.994894 448.56 
L 307.332766 448.56 
z
" clip-path="url(#pcecef7f50f)" style="fill: #7f7f7f; opacity: 0.5"/>
   </g>
   <g id="patch_122">
    <path d="M 309.410426 448.56 
L 311.072553 448.56 
L 311.072553 448.56 
L 309.410426 448.56 
z
" clip-path="url(#pcecef7f50f)" style="fill: #7f7f7f; opacity: 0.5"/>
   </g>
   <g id="patch_123">
    <path d="M 311.488085 448.56 
L 313.150213 448.56 
L 313.150213 448.56 
L 311.488085 448.56 
z
" clip-path="url(#pcecef7f50f)" style="fill: #7f7f7f; opacity: 0.5"/>
   </g>
   <g id="patch_124">
    <path d="M 313.565745 448.56 
L 315.227872 448.56 
L 315.227872 448.56 
L 313.565745 448.56 
z
" clip-path="url(#pcecef7f50f)" style="fill: #7f7f7f; opacity: 0.5"/>
   </g>
   <g id="patch_125">
    <path d="M 315.643404 448.56 
L 317.305532 448.56 
L 317.305532 448.56 
L 315.643404 448.56 
z
" clip-path="url(#pcecef7f50f)" style="fill: #7f7f7f; opacity: 0.5"/>
   </g>
   <g id="patch_126">
    <path d="M 317.721064 448.56 
L 319.383191 448.56 
L 319.383191 448.56 
L 317.721064 448.56 
z
" clip-path="url(#pcecef7f50f)" style="fill: #7f7f7f; opacity: 0.5"/>
   </g>
   <g id="patch_127">
    <path d="M 319.798723 448.56 
L 321.460851 448.56 
L 321.460851 448.56 
L 319.798723 448.56 
z
" clip-path="url(#pcecef7f50f)" style="fill: #7f7f7f; opacity: 0.5"/>
   </g>
   <g id="patch_128">
    <path d="M 321.876383 448.56 
L 323.538511 448.56 
L 323.538511 422.688 
L 321.876383 422.688 
z
" clip-path="url(#pcecef7f50f)" style="fill: #7f7f7f; opacity: 0.5"/>
   </g>
   <g id="patch_129">
    <path d="M 323.954043 448.56 
L 325.61617 448.56 
L 325.61617 448.56 
L 323.954043 448.56 
z
" clip-path="url(#pcecef7f50f)" style="fill: #7f7f7f; opacity: 0.5"/>
   </g>
   <g id="patch_130">
    <path d="M 326.031702 448.56 
L 327.69383 448.56 
L 327.69383 448.56 
L 326.031702 448.56 
z
" clip-path="url(#pcecef7f50f)" style="fill: #7f7f7f; opacity: 0.5"/>
   </g>
   <g id="patch_131">
    <path d="M 328.109362 448.56 
L 329.771489 448.56 
L 329.771489 448.56 
L 328.109362 448.56 
z
" clip-path="url(#pcecef7f50f)" style="fill: #7f7f7f; opacity: 0.5"/>
   </g>
   <g id="patch_132">
    <path d="M 330.187021 448.56 
L 331.849149 448.56 
L 331.849149 448.56 
L 330.187021 448.56 
z
" clip-path="url(#pcecef7f50f)" style="fill: #7f7f7f; opacity: 0.5"/>
   </g>
   <g id="patch_133">
    <path d="M 332.264681 448.56 
L 333.926809 448.56 
L 333.926809 448.56 
L 332.264681 448.56 
z
" clip-path="url(#pcecef7f50f)" style="fill: #7f7f7f; opacity: 0.5"/>
   </g>
   <g id="patch_134">
    <path d="M 334.34234 448.56 
L 336.004468 448.56 
L 336.004468 448.56 
L 334.34234 448.56 
z
" clip-path="url(#pcecef7f50f)" style="fill: #7f7f7f; opacity: 0.5"/>
   </g>
   <g id="patch_135">
    <path d="M 336.42 448.56 
L 338.082128 448.56 
L 338.082128 422.688 
L 336.42 422.688 
z
" clip-path="url(#pcecef7f50f)" style="fill: #7f7f7f; opacity: 0.5"/>
   </g>
   <g id="patch_136">
    <path d="M 338.49766 448.56 
L 340.159787 448.56 
L 340.159787 448.56 
L 338.49766 448.56 
z
" clip-path="url(#pcecef7f50f)" style="fill: #7f7f7f; opacity: 0.5"/>
   </g>
   <g id="patch_137">
    <path d="M 340.575319 448.56 
L 342.237447 448.56 
L 342.237447 448.56 
L 340.575319 448.56 
z
" clip-path="url(#pcecef7f50f)" style="fill: #7f7f7f; opacity: 0.5"/>
   </g>
   <g id="patch_138">
    <path d="M 342.652979 448.56 
L 344.315106 448.56 
L 344.315106 448.56 
L 342.652979 448.56 
z
" clip-path="url(#pcecef7f50f)" style="fill: #7f7f7f; opacity: 0.5"/>
   </g>
   <g id="patch_139">
    <path d="M 344.730638 448.56 
L 346.392766 448.56 
L 346.392766 448.56 
L 344.730638 448.56 
z
" clip-path="url(#pcecef7f50f)" style="fill: #7f7f7f; opacity: 0.5"/>
   </g>
   <g id="patch_140">
    <path d="M 346.808298 448.56 
L 348.470426 448.56 
L 348.470426 448.56 
L 346.808298 448.56 
z
" clip-path="url(#pcecef7f50f)" style="fill: #7f7f7f; opacity: 0.5"/>
   </g>
   <g id="patch_141">
    <path d="M 348.885957 448.56 
L 350.548085 448.56 
L 350.548085 448.56 
L 348.885957 448.56 
z
" clip-path="url(#pcecef7f50f)" style="fill: #7f7f7f; opacity: 0.5"/>
   </g>
   <g id="patch_142">
    <path d="M 350.963617 448.56 
L 352.625745 448.56 
L 352.625745 448.56 
L 350.963617 448.56 
z
" clip-path="url(#pcecef7f50f)" style="fill: #7f7f7f; opacity: 0.5"/>
   </g>
   <g id="patch_143">
    <path d="M 353.041277 448.56 
L 354.703404 448.56 
L 354.703404 448.56 
L 353.041277 448.56 
z
" clip-path="url(#pcecef7f50f)" style="fill: #7f7f7f; opacity: 0.5"/>
   </g>
   <g id="patch_144">
    <path d="M 355.118936 448.56 
L 356.781064 448.56 
L 356.781064 448.56 
L 355.118936 448.56 
z
" clip-path="url(#pcecef7f50f)" style="fill: #7f7f7f; opacity: 0.5"/>
   </g>
   <g id="patch_145">
    <path d="M 357.196596 448.56 
L 358.858723 448.56 
L 358.858723 448.56 
L 357.196596 448.56 
z
" clip-path="url(#pcecef7f50f)" style="fill: #7f7f7f; opacity: 0.5"/>
   </g>
   <g id="patch_146">
    <path d="M 359.274255 448.56 
L 360.936383 448.56 
L 360.936383 448.56 
L 359.274255 448.56 
z
" clip-path="url(#pcecef7f50f)" style="fill: #7f7f7f; opacity: 0.5"/>
   </g>
   <g id="patch_147">
    <path d="M 361.351915 448.56 
L 363.014043 448.56 
L 363.014043 448.56 
L 361.351915 448.56 
z
" clip-path="url(#pcecef7f50f)" style="fill: #7f7f7f; opacity: 0.5"/>
   </g>
   <g id="patch_148">
    <path d="M 363.429574 448.56 
L 365.091702 448.56 
L 365.091702 448.56 
L 363.429574 448.56 
z
" clip-path="url(#pcecef7f50f)" style="fill: #7f7f7f; opacity: 0.5"/>
   </g>
   <g id="patch_149">
    <path d="M 365.507234 448.56 
L 367.169362 448.56 
L 367.169362 448.56 
L 365.507234 448.56 
z
" clip-path="url(#pcecef7f50f)" style="fill: #7f7f7f; opacity: 0.5"/>
   </g>
   <g id="patch_150">
    <path d="M 367.584894 448.56 
L 369.247021 448.56 
L 369.247021 448.56 
L 367.584894 448.56 
z
" clip-path="url(#pcecef7f50f)" style="fill: #7f7f7f; opacity: 0.5"/>
   </g>
   <g id="patch_151">
    <path d="M 369.662553 448.56 
L 371.324681 448.56 
L 371.324681 448.56 
L 369.662553 448.56 
z
" clip-path="url(#pcecef7f50f)" style="fill: #7f7f7f; opacity: 0.5"/>
   </g>
   <g id="patch_152">
    <path d="M 371.740213 448.56 
L 373.40234 448.56 
L 373.40234 448.56 
L 371.740213 448.56 
z
" clip-path="url(#pcecef7f50f)" style="fill: #7f7f7f; opacity: 0.5"/>
   </g>
   <g id="patch_153">
    <path d="M 373.817872 448.56 
L 375.48 448.56 
L 375.48 448.56 
L 373.817872 448.56 
z
" clip-path="url(#pcecef7f50f)" style="fill: #7f7f7f; opacity: 0.5"/>
   </g>
   <g id="patch_154">
    <path d="M 375.895532 448.56 
L 377.55766 448.56 
L 377.55766 448.56 
L 375.895532 448.56 
z
" clip-path="url(#pcecef7f50f)" style="fill: #7f7f7f; opacity: 0.5"/>
   </g>
   <g id="patch_155">
    <path d="M 377.973191 448.56 
L 379.635319 448.56 
L 379.635319 448.56 
L 377.973191 448.56 
z
" clip-path="url(#pcecef7f50f)" style="fill: #7f7f7f; opacity: 0.5"/>
   </g>
   <g id="patch_156">
    <path d="M 380.050851 448.56 
L 381.712979 448.56 
L 381.712979 448.56 
L 380.050851 448.56 
z
" clip-path="url(#pcecef7f50f)" style="fill: #7f7f7f; opacity: 0.5"/>
   </g>
   <g id="patch_157">
    <path d="M 382.128511 448.56 
L 383.790638 448.56 
L 383.790638 448.56 
L 382.128511 448.56 
z
" clip-path="url(#pcecef7f50f)" style="fill: #7f7f7f; opacity: 0.5"/>
   </g>
   <g id="patch_158">
    <path d="M 384.20617 448.56 
L 385.868298 448.56 
L 385.868298 448.56 
L 384.20617 448.56 
z
" clip-path="url(#pcecef7f50f)" style="fill: #7f7f7f; opacity: 0.5"/>
   </g>
   <g id="patch_159">
    <path d="M 386.28383 448.56 
L 387.945957 448.56 
L 387.945957 448.56 
L 386.28383 448.56 
z
" clip-path="url(#pcecef7f50f)" style="fill: #7f7f7f; opacity: 0.5"/>
   </g>
   <g id="patch_160">
    <path d="M 388.361489 448.56 
L 390.023617 448.56 
L 390.023617 448.56 
L 388.361489 448.56 
z
" clip-path="url(#pcecef7f50f)" style="fill: #7f7f7f; opacity: 0.5"/>
   </g>
   <g id="patch_161">
    <path d="M 390.439149 448.56 
L 392.101277 448.56 
L 392.101277 448.56 
L 390.439149 448.56 
z
" clip-path="url(#pcecef7f50f)" style="fill: #7f7f7f; opacity: 0.5"/>
   </g>
   <g id="patch_162">
    <path d="M 392.516809 448.56 
L 394.178936 448.56 
L 394.178936 448.56 
L 392.516809 448.56 
z
" clip-path="url(#pcecef7f50f)" style="fill: #7f7f7f; opacity: 0.5"/>
   </g>
   <g id="patch_163">
    <path d="M 394.594468 448.56 
L 396.256596 448.56 
L 396.256596 448.56 
L 394.594468 448.56 
z
" clip-path="url(#pcecef7f50f)" style="fill: #7f7f7f; opacity: 0.5"/>
   </g>
   <g id="patch_164">
    <path d="M 396.672128 448.56 
L 398.334255 448.56 
L 398.334255 448.56 
L 396.672128 448.56 
z
" clip-path="url(#pcecef7f50f)" style="fill: #7f7f7f; opacity: 0.5"/>
   </g>
   <g id="patch_165">
    <path d="M 398.749787 448.56 
L 400.411915 448.56 
L 400.411915 448.56 
L 398.749787 448.56 
z
" clip-path="url(#pcecef7f50f)" style="fill: #7f7f7f; opacity: 0.5"/>
   </g>
   <g id="patch_166">
    <path d="M 400.827447 448.56 
L 402.489574 448.56 
L 402.489574 448.56 
L 400.827447 448.56 
z
" clip-path="url(#pcecef7f50f)" style="fill: #7f7f7f; opacity: 0.5"/>
   </g>
   <g id="patch_167">
    <path d="M 402.905106 448.56 
L 404.567234 448.56 
L 404.567234 448.56 
L 402.905106 448.56 
z
" clip-path="url(#pcecef7f50f)" style="fill: #7f7f7f; opacity: 0.5"/>
   </g>
   <g id="patch_168">
    <path d="M 404.982766 448.56 
L 406.644894 448.56 
L 406.644894 448.56 
L 404.982766 448.56 
z
" clip-path="url(#pcecef7f50f)" style="fill: #7f7f7f; opacity: 0.5"/>
   </g>
   <g id="patch_169">
    <path d="M 407.060426 448.56 
L 408.722553 448.56 
L 408.722553 448.56 
L 407.060426 448.56 
z
" clip-path="url(#pcecef7f50f)" style="fill: #7f7f7f; opacity: 0.5"/>
   </g>
   <g id="patch_170">
    <path d="M 409.138085 448.56 
L 410.800213 448.56 
L 410.800213 448.56 
L 409.138085 448.56 
z
" clip-path="url(#pcecef7f50f)" style="fill: #7f7f7f; opacity: 0.5"/>
   </g>
   <g id="patch_171">
    <path d="M 411.215745 448.56 
L 412.877872 448.56 
L 412.877872 448.56 
L 411.215745 448.56 
z
" clip-path="url(#pcecef7f50f)" style="fill: #7f7f7f; opacity: 0.5"/>
   </g>
   <g id="patch_172">
    <path d="M 413.293404 448.56 
L 414.955532 448.56 
L 414.955532 448.56 
L 413.293404 448.56 
z
" clip-path="url(#pcecef7f50f)" style="fill: #7f7f7f; opacity: 0.5"/>
   </g>
   <g id="patch_173">
    <path d="M 415.371064 448.56 
L 417.033191 448.56 
L 417.033191 448.56 
L 415.371064 448.56 
z
" clip-path="url(#pcecef7f50f)" style="fill: #7f7f7f; opacity: 0.5"/>
   </g>
   <g id="patch_174">
    <path d="M 417.448723 448.56 
L 419.110851 448.56 
L 419.110851 448.56 
L 417.448723 448.56 
z
" clip-path="url(#pcecef7f50f)" style="fill: #7f7f7f; opacity: 0.5"/>
   </g>
   <g id="patch_175">
    <path d="M 419.526383 448.56 
L 421.188511 448.56 
L 421.188511 448.56 
L 419.526383 448.56 
z
" clip-path="url(#pcecef7f50f)" style="fill: #7f7f7f; opacity: 0.5"/>
   </g>
   <g id="patch_176">
    <path d="M 421.604043 448.56 
L 423.26617 448.56 
L 423.26617 448.56 
L 421.604043 448.56 
z
" clip-path="url(#pcecef7f50f)" style="fill: #7f7f7f; opacity: 0.5"/>
   </g>
   <g id="patch_177">
    <path d="M 423.681702 448.56 
L 425.34383 448.56 
L 425.34383 448.56 
L 423.681702 448.56 
z
" clip-path="url(#pcecef7f50f)" style="fill: #7f7f7f; opacity: 0.5"/>
   </g>
   <g id="patch_178">
    <path d="M 425.759362 448.56 
L 427.421489 448.56 
L 427.421489 448.56 
L 425.759362 448.56 
z
" clip-path="url(#pcecef7f50f)" style="fill: #7f7f7f; opacity: 0.5"/>
   </g>
   <g id="patch_179">
    <path d="M 427.837021 448.56 
L 429.499149 448.56 
L 429.499149 448.56 
L 427.837021 448.56 
z
" clip-path="url(#pcecef7f50f)" style="fill: #7f7f7f; opacity: 0.5"/>
   </g>
   <g id="patch_180">
    <path d="M 429.914681 448.56 
L 431.576809 448.56 
L 431.576809 448.56 
L 429.914681 448.56 
z
" clip-path="url(#pcecef7f50f)" style="fill: #7f7f7f; opacity: 0.5"/>
   </g>
   <g id="patch_181">
    <path d="M 431.99234 448.56 
L 433.654468 448.56 
L 433.654468 448.56 
L 431.99234 448.56 
z
" clip-path="url(#pcecef7f50f)" style="fill: #7f7f7f; opacity: 0.5"/>
   </g>
   <g id="patch_182">
    <path d="M 434.07 448.56 
L 435.732128 448.56 
L 435.732128 448.56 
L 434.07 448.56 
z
" clip-path="url(#pcecef7f50f)" style="fill: #7f7f7f; opacity: 0.5"/>
   </g>
   <g id="patch_183">
    <path d="M 436.14766 448.56 
L 437.809787 448.56 
L 437.809787 448.56 
L 436.14766 448.56 
z
" clip-path="url(#pcecef7f50f)" style="fill: #7f7f7f; opacity: 0.5"/>
   </g>
   <g id="patch_184">
    <path d="M 438.225319 448.56 
L 439.887447 448.56 
L 439.887447 448.56 
L 438.225319 448.56 
z
" clip-path="url(#pcecef7f50f)" style="fill: #7f7f7f; opacity: 0.5"/>
   </g>
   <g id="patch_185">
    <path d="M 440.302979 448.56 
L 441.965106 448.56 
L 441.965106 448.56 
L 440.302979 448.56 
z
" clip-path="url(#pcecef7f50f)" style="fill: #7f7f7f; opacity: 0.5"/>
   </g>
   <g id="patch_186">
    <path d="M 442.380638 448.56 
L 444.042766 448.56 
L 444.042766 448.56 
L 442.380638 448.56 
z
" clip-path="url(#pcecef7f50f)" style="fill: #7f7f7f; opacity: 0.5"/>
   </g>
   <g id="patch_187">
    <path d="M 444.458298 448.56 
L 446.120426 448.56 
L 446.120426 448.56 
L 444.458298 448.56 
z
" clip-path="url(#pcecef7f50f)" style="fill: #7f7f7f; opacity: 0.5"/>
   </g>
   <g id="patch_188">
    <path d="M 446.535957 448.56 
L 448.198085 448.56 
L 448.198085 448.56 
L 446.535957 448.56 
z
" clip-path="url(#pcecef7f50f)" style="fill: #7f7f7f; opacity: 0.5"/>
   </g>
   <g id="patch_189">
    <path d="M 448.613617 448.56 
L 450.275745 448.56 
L 450.275745 448.56 
L 448.613617 448.56 
z
" clip-path="url(#pcecef7f50f)" style="fill: #7f7f7f; opacity: 0.5"/>
   </g>
   <g id="patch_190">
    <path d="M 450.691277 448.56 
L 452.353404 448.56 
L 452.353404 448.56 
L 450.691277 448.56 
z
" clip-path="url(#pcecef7f50f)" style="fill: #7f7f7f; opacity: 0.5"/>
   </g>
   <g id="patch_191">
    <path d="M 452.768936 448.56 
L 454.431064 448.56 
L 454.431064 448.56 
L 452.768936 448.56 
z
" clip-path="url(#pcecef7f50f)" style="fill: #7f7f7f; opacity: 0.5"/>
   </g>
   <g id="patch_192">
    <path d="M 453.6 448.56 
L 453.6 60.48 
" style="fill: none; stroke: #7f7f7f; stroke-width: 0.8; stroke-linejoin: miter; stroke-linecap: square"/>
   </g>
  </g>
  <g id="axes_2">
   <g id="FillBetweenPolyCollection_1">
    <defs>
     <path id="m42f2e63c3f" d="M 63 -428.848139 
L 63 -94.531861 
L 65.07766 -97.001773 
L 67.155319 -96.843893 
L 69.232979 -94.454907 
L 71.310638 -91.622326 
L 73.388298 -89.502806 
L 75.465957 -87.612394 
L 77.543617 -85.798596 
L 79.621277 -84.450759 
L 81.698936 -83.531797 
L 83.776596 -81.814575 
L 85.854255 -80.547084 
L 87.931915 -79.959284 
L 90.009574 -79.33901 
L 92.087234 -79.042705 
L 94.164894 -78.96069 
L 96.242553 -78.971666 
L 98.320213 -79.487667 
L 100.397872 -80.154149 
L 102.475532 -81.139362 
L 104.553191 -81.699525 
L 106.630851 -82.752849 
L 108.708511 -84.144439 
L 110.78617 -84.778874 
L 112.86383 -86.428167 
L 114.941489 -87.134055 
L 117.019149 -88.387932 
L 119.096809 -89.051669 
L 121.174468 -90.616867 
L 123.252128 -91.390073 
L 125.329787 -91.5619 
L 127.407447 -92.710189 
L 129.485106 -93.526015 
L 131.562766 -93.710389 
L 133.640426 -95.149181 
L 135.718085 -95.930799 
L 137.795745 -98.712519 
L 139.873404 -102.654275 
L 141.951064 -104.384616 
L 144.028723 -104.27799 
L 146.106383 -104.363142 
L 148.184043 -104.968554 
L 150.261702 -106.047181 
L 152.339362 -107.331198 
L 154.417021 -106.172805 
L 156.494681 -107.651894 
L 158.57234 -110.461705 
L 160.65 -115.641902 
L 162.72766 -117.379793 
L 164.805319 -119.008658 
L 166.882979 -120.566049 
L 168.960638 -125.941477 
L 171.038298 -131.171517 
L 173.115957 -137.210061 
L 175.193617 -134.776853 
L 177.271277 -131.886391 
L 179.348936 -122.987114 
L 181.426596 -114.593432 
L 183.504255 -109.036839 
L 185.581915 -103.24184 
L 187.659574 -94.972445 
L 189.737234 -90.706235 
L 191.814894 -91.154614 
L 193.892553 -87.883907 
L 195.970213 -87.464358 
L 198.047872 -88.751474 
L 200.125532 -94.466478 
L 202.203191 -97.256827 
L 204.280851 -99.256026 
L 206.358511 -101.294386 
L 208.43617 -105.060447 
L 210.51383 -109.093411 
L 212.591489 -108.279544 
L 214.669149 -103.1837 
L 216.746809 -101.076936 
L 218.824468 -94.409404 
L 220.902128 -96.527522 
L 222.979787 -90.281304 
L 225.057447 -82.317756 
L 227.135106 -77.370257 
L 229.212766 -74.89018 
L 231.290426 -75.108945 
L 233.368085 -76.767017 
L 235.445745 -78.406717 
L 237.523404 -75.777073 
L 239.601064 -73.591574 
L 241.678723 -70.631186 
L 243.756383 -68.393378 
L 245.834043 -66.179364 
L 247.911702 -64.57277 
L 249.989362 -63.364284 
L 252.067021 -62.577636 
L 254.144681 -62.29937 
L 256.22234 -62.240152 
L 258.3 -62.22883 
L 260.37766 -61.983274 
L 262.455319 -61.937981 
L 264.532979 -61.555041 
L 266.610638 -61.090695 
L 268.688298 -60.876203 
L 270.765957 -60.867049 
L 272.843617 -60.906511 
L 274.921277 -60.762811 
L 276.998936 -60.563442 
L 279.076596 -60.456152 
L 281.154255 -60.348779 
L 283.231915 -60.290482 
L 285.309574 -60.234078 
L 287.387234 -60.195417 
L 289.464894 -60.278072 
L 291.542553 -60.396712 
L 293.620213 -60.403111 
L 295.697872 -60.31204 
L 297.775532 -60.285172 
L 299.853191 -60.232322 
L 301.930851 -60.266826 
L 304.008511 -60.171424 
L 306.08617 -60.116508 
L 308.16383 -60.120459 
L 310.241489 -60.096743 
L 312.319149 -60.112 
L 314.396809 -60.156237 
L 316.474468 -60.197998 
L 318.552128 -60.314632 
L 320.629787 -60.347712 
L 322.707447 -60.51436 
L 324.785106 -60.440503 
L 326.862766 -60.457127 
L 328.940426 -60.493499 
L 331.018085 -60.504483 
L 333.095745 -60.545459 
L 335.173404 -60.604302 
L 337.251064 -60.666994 
L 339.328723 -60.589011 
L 341.406383 -60.519688 
L 343.484043 -60.430234 
L 345.561702 -60.34131 
L 347.639362 -60.315739 
L 349.717021 -60.193157 
L 351.794681 -60.167388 
L 353.87234 -60.137825 
L 355.95 -60.116752 
L 358.02766 -60.042156 
L 360.105319 -60.039687 
L 362.182979 -60.042108 
L 364.260638 -60.041912 
L 366.338298 -60.107576 
L 368.415957 -60.09975 
L 370.493617 -60.095062 
L 372.571277 -60.092997 
L 374.648936 -60.141183 
L 376.726596 -60.084444 
L 378.804255 -60.143133 
L 380.881915 -60.15875 
L 382.959574 -60.205322 
L 385.037234 -60.153792 
L 387.114894 -60.214563 
L 389.192553 -60.208474 
L 391.270213 -60.19473 
L 393.347872 -60.173392 
L 395.425532 -60.176712 
L 397.503191 -60.196385 
L 399.580851 -60.237019 
L 401.658511 -60.2761 
L 403.73617 -60.333688 
L 405.81383 -60.35509 
L 407.891489 -60.391618 
L 409.969149 -60.468895 
L 412.046809 -60.473675 
L 414.124468 -60.502238 
L 416.202128 -60.482266 
L 418.279787 -60.541078 
L 420.357447 -60.577438 
L 422.435106 -60.552558 
L 424.512766 -60.662534 
L 426.590426 -60.715963 
L 428.668085 -60.730376 
L 430.745745 -60.771509 
L 432.823404 -60.807865 
L 434.901064 -60.864762 
L 436.978723 -60.946383 
L 439.056383 -60.978963 
L 441.134043 -61.120316 
L 443.211702 -61.078976 
L 445.289362 -61.063052 
L 447.367021 -61.071509 
L 449.444681 -61.128797 
L 451.52234 -61.198866 
L 453.6 -61.295041 
L 453.6 -185.807739 
L 453.6 -185.807739 
L 451.52234 -185.832142 
L 449.444681 -183.694639 
L 447.367021 -183.093805 
L 445.289362 -182.631105 
L 443.211702 -180.905068 
L 441.134043 -178.012595 
L 439.056383 -177.651819 
L 436.978723 -174.486422 
L 434.901064 -173.519616 
L 432.823404 -170.450611 
L 430.745745 -169.126291 
L 428.668085 -167.902364 
L 426.590426 -165.140586 
L 424.512766 -161.820042 
L 422.435106 -160.691924 
L 420.357447 -156.957836 
L 418.279787 -154.957422 
L 416.202128 -153.232029 
L 414.124468 -151.559811 
L 412.046809 -150.301461 
L 409.969149 -146.964881 
L 407.891489 -146.154074 
L 405.81383 -143.782926 
L 403.73617 -140.789997 
L 401.658511 -138.314509 
L 399.580851 -136.415457 
L 397.503191 -134.969595 
L 395.425532 -134.347117 
L 393.347872 -131.802206 
L 391.270213 -129.143431 
L 389.192553 -127.277892 
L 387.114894 -125.325856 
L 385.037234 -123.145223 
L 382.959574 -120.885178 
L 380.881915 -118.542719 
L 378.804255 -116.471709 
L 376.726596 -115.012018 
L 374.648936 -112.802763 
L 372.571277 -110.621668 
L 370.493617 -109.03066 
L 368.415957 -107.158454 
L 366.338298 -104.816293 
L 364.260638 -103.926842 
L 362.182979 -102.309216 
L 360.105319 -101.265664 
L 358.02766 -99.956365 
L 355.95 -99.255578 
L 353.87234 -98.590841 
L 351.794681 -97.595179 
L 349.717021 -97.324017 
L 347.639362 -96.909192 
L 345.561702 -96.377113 
L 343.484043 -96.356188 
L 341.406383 -96.179581 
L 339.328723 -95.579746 
L 337.251064 -95.385078 
L 335.173404 -93.727608 
L 333.095745 -92.844969 
L 331.018085 -91.536314 
L 328.940426 -90.311564 
L 326.862766 -89.687722 
L 324.785106 -88.597756 
L 322.707447 -87.970914 
L 320.629787 -86.452153 
L 318.552128 -84.735032 
L 316.474468 -83.734679 
L 314.396809 -82.809387 
L 312.319149 -82.013029 
L 310.241489 -81.158105 
L 308.16383 -80.438354 
L 306.08617 -79.822578 
L 304.008511 -79.292158 
L 301.930851 -79.151654 
L 299.853191 -78.346693 
L 297.775532 -77.887415 
L 295.697872 -77.469381 
L 293.620213 -77.080241 
L 291.542553 -76.377973 
L 289.464894 -75.476518 
L 287.387234 -74.682148 
L 285.309574 -74.153206 
L 283.231915 -74.218616 
L 281.154255 -73.711094 
L 279.076596 -73.676024 
L 276.998936 -73.366133 
L 274.921277 -73.54379 
L 272.843617 -73.681206 
L 270.765957 -73.067937 
L 268.688298 -72.519951 
L 266.610638 -72.623724 
L 264.532979 -73.367594 
L 262.455319 -74.023434 
L 260.37766 -73.849289 
L 258.3 -74.246102 
L 256.22234 -73.936086 
L 254.144681 -73.680737 
L 252.067021 -74.105749 
L 249.989362 -75.82477 
L 247.911702 -78.145309 
L 245.834043 -81.382915 
L 243.756383 -85.661593 
L 241.678723 -89.446806 
L 239.601064 -95.009826 
L 237.523404 -98.763803 
L 235.445745 -104.182411 
L 233.368085 -100.983318 
L 231.290426 -97.611455 
L 229.212766 -97.50048 
L 227.135106 -102.908613 
L 225.057447 -112.389442 
L 222.979787 -128.367403 
L 220.902128 -140.772018 
L 218.824468 -136.709666 
L 216.746809 -149.37503 
L 214.669149 -153.745539 
L 212.591489 -164.087158 
L 210.51383 -165.666338 
L 208.43617 -158.173131 
L 206.358511 -150.867618 
L 204.280851 -147.692479 
L 202.203191 -144.79897 
L 200.125532 -138.970514 
L 198.047872 -129.088208 
L 195.970213 -127.644305 
L 193.892553 -129.229401 
L 191.814894 -137.509312 
L 189.737234 -137.744438 
L 187.659574 -147.700283 
L 185.581915 -166.871204 
L 183.504255 -180.297311 
L 181.426596 -195.047925 
L 179.348936 -214.919915 
L 177.271277 -237.187222 
L 175.193617 -244.279103 
L 173.115957 -254.012871 
L 171.038298 -242.318297 
L 168.960638 -234.677796 
L 166.882979 -225.187413 
L 164.805319 -224.577083 
L 162.72766 -223.891567 
L 160.65 -222.462156 
L 158.57234 -212.637598 
L 156.494681 -207.80966 
L 154.417021 -206.907444 
L 152.339362 -214.52058 
L 150.261702 -213.027127 
L 148.184043 -212.035008 
L 146.106383 -211.664857 
L 144.028723 -213.751661 
L 141.951064 -217.035453 
L 139.873404 -214.849307 
L 137.795745 -204.152241 
L 135.718085 -199.833868 
L 133.640426 -198.097147 
L 131.562766 -196.415038 
L 129.485106 -198.972623 
L 127.407447 -198.505676 
L 125.329787 -197.737102 
L 123.252128 -198.404896 
L 121.174468 -198.124998 
L 119.096809 -193.966905 
L 117.019149 -191.645028 
L 114.941489 -187.408312 
L 112.86383 -183.921801 
L 110.78617 -177.864234 
L 108.708511 -174.374665 
L 106.630851 -168.7407 
L 104.553191 -163.710966 
L 102.475532 -161.132776 
L 100.397872 -155.201987 
L 98.320213 -152.024277 
L 96.242553 -149.197064 
L 94.164894 -149.207672 
L 92.087234 -150.215103 
L 90.009574 -152.82921 
L 87.931915 -157.371001 
L 85.854255 -164.968196 
L 83.776596 -175.776688 
L 81.698936 -189.794753 
L 79.621277 -204.869857 
L 77.543617 -223.591831 
L 75.465957 -249.498264 
L 73.388298 -278.629777 
L 71.310638 -316.865925 
L 69.232979 -356.778997 
L 67.155319 -399.07851 
L 65.07766 -428.672032 
L 63 -428.848139 
z
" style="stroke: #de8f05; stroke-opacity: 0.2"/>
    </defs>
    <g clip-path="url(#pcecef7f50f)">
     <use xlink:href="#m42f2e63c3f" x="0" y="504" style="fill: #de8f05; fill-opacity: 0.2; stroke: #de8f05; stroke-opacity: 0.2"/>
    </g>
   </g>
   <g id="FillBetweenPolyCollection_2">
    <defs>
     <path id="m993b11ba07" d="M 63 -354.264832 
L 63 -86.229349 
L 65.07766 -87.425148 
L 67.155319 -87.132024 
L 69.232979 -84.995723 
L 71.310638 -83.07063 
L 73.388298 -81.000707 
L 75.465957 -79.013378 
L 77.543617 -78.386437 
L 79.621277 -76.718335 
L 81.698936 -75.861281 
L 83.776596 -74.788571 
L 85.854255 -73.269948 
L 87.931915 -73.038978 
L 90.009574 -73.055451 
L 92.087234 -72.320836 
L 94.164894 -72.849446 
L 96.242553 -73.611936 
L 98.320213 -74.457912 
L 100.397872 -76.105977 
L 102.475532 -77.49109 
L 104.553191 -79.300112 
L 106.630851 -80.38002 
L 108.708511 -82.494214 
L 110.78617 -84.956814 
L 112.86383 -86.805389 
L 114.941489 -87.51565 
L 117.019149 -89.581416 
L 119.096809 -90.933208 
L 121.174468 -93.351592 
L 123.252128 -93.699462 
L 125.329787 -94.759882 
L 127.407447 -95.340916 
L 129.485106 -95.514981 
L 131.562766 -96.053606 
L 133.640426 -95.890459 
L 135.718085 -96.892886 
L 137.795745 -99.621953 
L 139.873404 -103.380782 
L 141.951064 -104.271465 
L 144.028723 -103.080449 
L 146.106383 -102.780513 
L 148.184043 -103.092187 
L 150.261702 -103.173897 
L 152.339362 -105.316962 
L 154.417021 -105.039899 
L 156.494681 -107.317422 
L 158.57234 -110.658202 
L 160.65 -116.585563 
L 162.72766 -120.241467 
L 164.805319 -122.933653 
L 166.882979 -125.81411 
L 168.960638 -132.894841 
L 171.038298 -138.457686 
L 173.115957 -143.887088 
L 175.193617 -140.186794 
L 177.271277 -136.89949 
L 179.348936 -126.482437 
L 181.426596 -116.846245 
L 183.504255 -109.949329 
L 185.581915 -103.465096 
L 187.659574 -94.631275 
L 189.737234 -90.054507 
L 191.814894 -89.914718 
L 193.892553 -86.519385 
L 195.970213 -86.394359 
L 198.047872 -87.740464 
L 200.125532 -93.305269 
L 202.203191 -96.591782 
L 204.280851 -99.050755 
L 206.358511 -101.785163 
L 208.43617 -106.680109 
L 210.51383 -111.40393 
L 212.591489 -111.950537 
L 214.669149 -105.953297 
L 216.746809 -103.587958 
L 218.824468 -96.86857 
L 220.902128 -99.397565 
L 222.979787 -92.030637 
L 225.057447 -83.623586 
L 227.135106 -78.554988 
L 229.212766 -75.415825 
L 231.290426 -75.780559 
L 233.368085 -77.282925 
L 235.445745 -78.545045 
L 237.523404 -75.577053 
L 239.601064 -73.379009 
L 241.678723 -70.630056 
L 243.756383 -68.408386 
L 245.834043 -66.210407 
L 247.911702 -64.652116 
L 249.989362 -63.350493 
L 252.067021 -62.563129 
L 254.144681 -62.286219 
L 256.22234 -62.366275 
L 258.3 -62.338705 
L 260.37766 -62.072292 
L 262.455319 -61.97946 
L 264.532979 -61.603451 
L 266.610638 -61.157316 
L 268.688298 -60.872189 
L 270.765957 -60.924631 
L 272.843617 -60.982338 
L 274.921277 -60.852818 
L 276.998936 -60.53646 
L 279.076596 -60.488834 
L 281.154255 -60.401753 
L 283.231915 -60.435504 
L 285.309574 -60.307298 
L 287.387234 -60.19337 
L 289.464894 -60.363898 
L 291.542553 -60.379678 
L 293.620213 -60.362484 
L 295.697872 -60.313462 
L 297.775532 -60.330164 
L 299.853191 -60.336403 
L 301.930851 -60.313904 
L 304.008511 -60.245526 
L 306.08617 -60.077027 
L 308.16383 -59.976059 
L 310.241489 -60.017436 
L 312.319149 -59.864098 
L 314.396809 -59.981869 
L 316.474468 -60.038379 
L 318.552128 -60.119394 
L 320.629787 -60.236057 
L 322.707447 -60.331462 
L 324.785106 -60.407119 
L 326.862766 -60.418865 
L 328.940426 -60.598408 
L 331.018085 -60.660454 
L 333.095745 -60.407647 
L 335.173404 -60.582695 
L 337.251064 -60.61672 
L 339.328723 -60.599426 
L 341.406383 -60.589406 
L 343.484043 -60.532072 
L 345.561702 -60.483115 
L 347.639362 -60.366603 
L 349.717021 -60.430684 
L 351.794681 -60.422808 
L 353.87234 -60.432118 
L 355.95 -60.419223 
L 358.02766 -60.45721 
L 360.105319 -60.204192 
L 362.182979 -60.252248 
L 364.260638 -60.38631 
L 366.338298 -60.41276 
L 368.415957 -60.390482 
L 370.493617 -60.531313 
L 372.571277 -60.516886 
L 374.648936 -60.47091 
L 376.726596 -60.621772 
L 378.804255 -60.796075 
L 380.881915 -60.798579 
L 382.959574 -60.714013 
L 385.037234 -60.758216 
L 387.114894 -60.755616 
L 389.192553 -60.80727 
L 391.270213 -60.754788 
L 393.347872 -60.725305 
L 395.425532 -60.725122 
L 397.503191 -60.834882 
L 399.580851 -60.761255 
L 401.658511 -60.878898 
L 403.73617 -60.909182 
L 405.81383 -60.911205 
L 407.891489 -60.87495 
L 409.969149 -60.941926 
L 412.046809 -61.031884 
L 414.124468 -60.808547 
L 416.202128 -61.127678 
L 418.279787 -61.175527 
L 420.357447 -61.245773 
L 422.435106 -61.373784 
L 424.512766 -61.187207 
L 426.590426 -61.314327 
L 428.668085 -61.287981 
L 430.745745 -61.411489 
L 432.823404 -61.328698 
L 434.901064 -61.325746 
L 436.978723 -61.276813 
L 439.056383 -61.321474 
L 441.134043 -61.265133 
L 443.211702 -61.158832 
L 445.289362 -61.278125 
L 447.367021 -61.141791 
L 449.444681 -61.309218 
L 451.52234 -61.28247 
L 453.6 -61.409884 
L 455.67766 -61.452367 
L 457.755319 -61.593282 
L 459.832979 -61.688661 
L 461.910638 -61.533042 
L 463.988298 -61.705126 
L 463.988298 -196.590091 
L 463.988298 -196.590091 
L 461.910638 -198.986295 
L 459.832979 -197.265542 
L 457.755319 -192.218061 
L 455.67766 -195.387544 
L 453.6 -189.313959 
L 451.52234 -190.448679 
L 449.444681 -189.463831 
L 447.367021 -183.186305 
L 445.289362 -187.524115 
L 443.211702 -189.119174 
L 441.134043 -185.827395 
L 439.056383 -181.279078 
L 436.978723 -178.209784 
L 434.901064 -174.927166 
L 432.823404 -174.506299 
L 430.745745 -172.783406 
L 428.668085 -172.674521 
L 426.590426 -171.032913 
L 424.512766 -164.927997 
L 422.435106 -160.259246 
L 420.357447 -159.552831 
L 418.279787 -159.513924 
L 416.202128 -157.886731 
L 414.124468 -159.94984 
L 412.046809 -160.597444 
L 409.969149 -158.720357 
L 407.891489 -155.816333 
L 405.81383 -152.689015 
L 403.73617 -151.330073 
L 401.658511 -148.695448 
L 399.580851 -149.136291 
L 397.503191 -144.074159 
L 395.425532 -141.949049 
L 393.347872 -141.886074 
L 391.270213 -135.730192 
L 389.192553 -130.870927 
L 387.114894 -130.075767 
L 385.037234 -127.685842 
L 382.959574 -125.680917 
L 380.881915 -124.175269 
L 378.804255 -120.463814 
L 376.726596 -117.812086 
L 374.648936 -117.458067 
L 372.571277 -116.762437 
L 370.493617 -113.606357 
L 368.415957 -111.640341 
L 366.338298 -110.6544 
L 364.260638 -108.452932 
L 362.182979 -108.333281 
L 360.105319 -107.018281 
L 358.02766 -105.48741 
L 355.95 -102.814409 
L 353.87234 -101.604615 
L 351.794681 -102.600675 
L 349.717021 -101.701747 
L 347.639362 -101.97837 
L 345.561702 -101.337973 
L 343.484043 -101.838139 
L 341.406383 -101.647288 
L 339.328723 -101.572998 
L 337.251064 -102.814301 
L 335.173404 -101.771368 
L 333.095745 -99.371805 
L 331.018085 -97.198149 
L 328.940426 -96.131258 
L 326.862766 -95.689567 
L 324.785106 -93.805435 
L 322.707447 -93.175276 
L 320.629787 -90.831689 
L 318.552128 -89.741181 
L 316.474468 -88.094596 
L 314.396809 -86.019899 
L 312.319149 -84.757329 
L 310.241489 -83.597265 
L 308.16383 -82.273566 
L 306.08617 -81.317152 
L 304.008511 -80.81533 
L 301.930851 -81.22624 
L 299.853191 -79.931324 
L 297.775532 -78.734424 
L 295.697872 -78.619357 
L 293.620213 -78.499409 
L 291.542553 -77.891632 
L 289.464894 -76.041385 
L 287.387234 -75.516142 
L 285.309574 -75.200181 
L 283.231915 -74.956158 
L 281.154255 -74.852781 
L 279.076596 -74.526756 
L 276.998936 -74.325437 
L 274.921277 -74.108821 
L 272.843617 -74.059728 
L 270.765957 -73.290016 
L 268.688298 -72.618109 
L 266.610638 -72.787713 
L 264.532979 -73.654273 
L 262.455319 -73.836063 
L 260.37766 -73.530595 
L 258.3 -74.232589 
L 256.22234 -73.863131 
L 254.144681 -73.504258 
L 252.067021 -74.1437 
L 249.989362 -75.663843 
L 247.911702 -78.134417 
L 245.834043 -80.808147 
L 243.756383 -85.280944 
L 241.678723 -89.428721 
L 239.601064 -95.055424 
L 237.523404 -98.141205 
L 235.445745 -103.338291 
L 233.368085 -100.016583 
L 231.290426 -97.663949 
L 229.212766 -97.288058 
L 227.135106 -103.133527 
L 225.057447 -113.275277 
L 222.979787 -129.409236 
L 220.902128 -140.344395 
L 218.824468 -137.64665 
L 216.746809 -151.801101 
L 214.669149 -155.779531 
L 212.591489 -165.890123 
L 210.51383 -163.781738 
L 208.43617 -157.776969 
L 206.358511 -150.436455 
L 204.280851 -144.773717 
L 202.203191 -139.881478 
L 200.125532 -134.721398 
L 198.047872 -122.896773 
L 195.970213 -122.779888 
L 193.892553 -122.860079 
L 191.814894 -131.680192 
L 189.737234 -132.42331 
L 187.659574 -142.548824 
L 185.581915 -162.711668 
L 183.504255 -176.367214 
L 181.426596 -191.661262 
L 179.348936 -213.670324 
L 177.271277 -242.761433 
L 175.193617 -251.445551 
L 173.115957 -259.452694 
L 171.038298 -245.507768 
L 168.960638 -238.215629 
L 166.882979 -224.98112 
L 164.805319 -220.234108 
L 162.72766 -219.540903 
L 160.65 -212.751259 
L 158.57234 -199.415756 
L 156.494681 -197.117051 
L 154.417021 -193.134593 
L 152.339362 -201.15245 
L 150.261702 -197.821747 
L 148.184043 -202.56449 
L 146.106383 -201.152126 
L 144.028723 -207.603926 
L 141.951064 -209.516545 
L 139.873404 -209.262122 
L 137.795745 -202.52923 
L 135.718085 -198.206026 
L 133.640426 -200.451078 
L 131.562766 -202.526026 
L 129.485106 -206.012536 
L 127.407447 -209.343897 
L 125.329787 -208.53832 
L 123.252128 -210.790299 
L 121.174468 -213.187028 
L 119.096809 -209.912687 
L 117.019149 -208.286509 
L 114.941489 -204.464366 
L 112.86383 -197.895253 
L 110.78617 -186.75934 
L 108.708511 -180.239005 
L 106.630851 -172.825608 
L 104.553191 -159.914317 
L 102.475532 -156.787747 
L 100.397872 -147.189958 
L 98.320213 -140.534663 
L 96.242553 -136.545263 
L 94.164894 -134.602557 
L 92.087234 -131.298177 
L 90.009574 -130.740725 
L 87.931915 -134.816244 
L 85.854255 -139.250304 
L 83.776596 -145.944332 
L 81.698936 -159.330181 
L 79.621277 -168.080376 
L 77.543617 -183.692673 
L 75.465957 -208.809348 
L 73.388298 -229.670458 
L 71.310638 -253.207991 
L 69.232979 -288.855781 
L 67.155319 -324.588172 
L 65.07766 -343.957285 
L 63 -354.264832 
z
" style="stroke: #e377c2; stroke-opacity: 0.2"/>
    </defs>
    <g clip-path="url(#pcecef7f50f)">
     <use xlink:href="#m993b11ba07" x="0" y="504" style="fill: #e377c2; fill-opacity: 0.2; stroke: #e377c2; stroke-opacity: 0.2"/>
    </g>
   </g>
   <g id="matplotlib.axis_2">
    <g id="xtick_1">
     <g id="line2d_9">
      <defs>
       <path id="mec295e1a65" d="M 0 0 
L 0 3.5 
" style="stroke: #000000; stroke-width: 0.8"/>
      </defs>
      <g>
       <use xlink:href="#mec295e1a65" x="73.388298" y="448.56" style="stroke: #000000; stroke-width: 0.8"/>
      </g>
     </g>
     <g id="text_10">
      <text style="font-size: 16px; font-family: 'Arial', sans-serif; text-anchor: middle" x="73.388298" y="467.7175" transform="rotate(-0 73.388298 467.7175)">1 Jul</text>
     </g>
    </g>
    <g id="xtick_2">
     <g id="line2d_10">
      <g>
       <use xlink:href="#mec295e1a65" x="137.795745" y="448.56" style="stroke: #000000; stroke-width: 0.8"/>
      </g>
     </g>
     <g id="text_11">
      <text style="font-size: 16px; font-family: 'Arial', sans-serif; text-anchor: middle" x="137.795745" y="467.71625" transform="rotate(-0 137.795745 467.71625)">1 Aug</text>
     </g>
    </g>
    <g id="xtick_3">
     <g id="line2d_11">
      <g>
       <use xlink:href="#mec295e1a65" x="202.203191" y="448.56" style="stroke: #000000; stroke-width: 0.8"/>
      </g>
     </g>
     <g id="text_12">
      <text style="font-size: 16px; font-family: 'Arial', sans-serif; text-anchor: middle" x="202.203191" y="467.71625" transform="rotate(-0 202.203191 467.71625)">1 Sep</text>
     </g>
    </g>
    <g id="xtick_4">
     <g id="line2d_12">
      <g>
       <use xlink:href="#mec295e1a65" x="264.532979" y="448.56" style="stroke: #000000; stroke-width: 0.8"/>
      </g>
     </g>
     <g id="text_13">
      <text style="font-size: 16px; font-family: 'Arial', sans-serif; text-anchor: middle" x="264.532979" y="467.71625" transform="rotate(-0 264.532979 467.71625)">1 Oct</text>
     </g>
    </g>
    <g id="xtick_5">
     <g id="line2d_13">
      <g>
       <use xlink:href="#mec295e1a65" x="328.940426" y="448.56" style="stroke: #000000; stroke-width: 0.8"/>
      </g>
     </g>
     <g id="text_14">
      <text style="font-size: 16px; font-family: 'Arial', sans-serif; text-anchor: middle" x="328.940426" y="467.71625" transform="rotate(-0 328.940426 467.71625)">1 Nov</text>
     </g>
    </g>
    <g id="xtick_6">
     <g id="line2d_14">
      <g>
       <use xlink:href="#mec295e1a65" x="391.270213" y="448.56" style="stroke: #000000; stroke-width: 0.8"/>
      </g>
     </g>
     <g id="text_15">
      <text style="font-size: 16px; font-family: 'Arial', sans-serif; text-anchor: middle" x="391.270213" y="467.71625" transform="rotate(-0 391.270213 467.71625)">1 Dec</text>
     </g>
    </g>
    <g id="text_16">
     <text style="font-size: 16px; font-family: 'Arial', sans-serif; text-anchor: middle" x="258.3" y="487.7175" transform="rotate(-0 258.3 487.7175)">Date (2017)</text>
    </g>
   </g>
   <g id="matplotlib.axis_3">
    <g id="ytick_9">
     <g id="line2d_15">
      <defs>
       <path id="m0933c254f1" d="M 0 0 
L -3.5 0 
" style="stroke: #000000; stroke-width: 0.8"/>
      </defs>
      <g>
       <use xlink:href="#m0933c254f1" x="63" y="448.56" style="stroke: #000000; stroke-width: 0.8"/>
      </g>
     </g>
     <g id="text_17">
      <text style="font-size: 16px; font-family: 'Arial', sans-serif; text-anchor: end" x="56" y="454.638125" transform="rotate(-0 56 454.638125)">0</text>
     </g>
    </g>
    <g id="ytick_10">
     <g id="line2d_16">
      <g>
       <use xlink:href="#m0933c254f1" x="63" y="370.944" style="stroke: #000000; stroke-width: 0.8"/>
      </g>
     </g>
     <g id="text_18">
      <text style="font-size: 16px; font-family: 'Arial', sans-serif; text-anchor: end" x="56" y="377.022125" transform="rotate(-0 56 377.022125)">2</text>
     </g>
    </g>
    <g id="ytick_11">
     <g id="line2d_17">
      <g>
       <use xlink:href="#m0933c254f1" x="63" y="293.328" style="stroke: #000000; stroke-width: 0.8"/>
      </g>
     </g>
     <g id="text_19">
      <text style="font-size: 16px; font-family: 'Arial', sans-serif; text-anchor: end" x="56" y="299.406125" transform="rotate(-0 56 299.406125)">4</text>
     </g>
    </g>
    <g id="ytick_12">
     <g id="line2d_18">
      <g>
       <use xlink:href="#m0933c254f1" x="63" y="215.712" style="stroke: #000000; stroke-width: 0.8"/>
      </g>
     </g>
     <g id="text_20">
      <text style="font-size: 16px; font-family: 'Arial', sans-serif; text-anchor: end" x="56" y="221.790125" transform="rotate(-0 56 221.790125)">6</text>
     </g>
    </g>
    <g id="ytick_13">
     <g id="line2d_19">
      <g>
       <use xlink:href="#m0933c254f1" x="63" y="138.096" style="stroke: #000000; stroke-width: 0.8"/>
      </g>
     </g>
     <g id="text_21">
      <text style="font-size: 16px; font-family: 'Arial', sans-serif; text-anchor: end" x="56" y="144.174125" transform="rotate(-0 56 144.174125)">8</text>
     </g>
    </g>
    <g id="ytick_14">
     <g id="line2d_20">
      <g>
       <use xlink:href="#m0933c254f1" x="63" y="60.48" style="stroke: #000000; stroke-width: 0.8"/>
      </g>
     </g>
     <g id="text_22">
      <text style="font-size: 16px; font-family: 'Arial', sans-serif; text-anchor: end" x="56" y="66.558125" transform="rotate(-0 56 66.558125)">10</text>
     </g>
    </g>
    <g id="text_23">
     <text style="font-size: 16px; font-family: 'Arial', sans-serif" transform="translate(6.990312 407.56375) rotate(-90)">Time-dependent reproduction number</text>
     <text style="font-size: 16px; font-family: 'Arial', sans-serif" transform="translate(26.194688 347.58375) rotate(-90)">(autoregressive model)</text>
    </g>
   </g>
   <g id="line2d_21">
    <path d="M 63 303.151513 
L 65.07766 300.297884 
L 67.155319 307.183842 
L 69.232979 322.569195 
L 71.310638 336.307491 
L 73.388298 348.3396 
L 75.465957 358.820256 
L 77.543617 367.46271 
L 79.621277 374.592943 
L 81.698936 379.900223 
L 83.776596 385.932784 
L 85.854255 390.458199 
L 87.931915 393.727835 
L 90.009574 395.861107 
L 92.087234 397.068184 
L 94.164894 397.500441 
L 96.242553 397.258267 
L 98.320213 396.29651 
L 100.397872 394.602605 
L 102.475532 392.183404 
L 104.553191 390.882578 
L 106.630851 388.695145 
L 108.708511 385.791952 
L 110.78617 384.023399 
L 112.86383 381.082909 
L 114.941489 379.501554 
L 117.019149 376.910538 
L 119.096809 375.494789 
L 121.174468 372.993758 
L 123.252128 371.806125 
L 125.329787 371.952975 
L 127.407447 370.536397 
L 129.485106 369.875196 
L 131.562766 370.274947 
L 133.640426 368.398264 
L 135.718085 367.225337 
L 137.795745 363.356109 
L 139.873404 356.244815 
L 141.951064 354.572393 
L 144.028723 355.681155 
L 146.106383 356.130587 
L 148.184043 355.80236 
L 150.261702 354.89797 
L 152.339362 353.29068 
L 154.417021 356.72239 
L 156.494681 355.326712 
L 158.57234 351.603814 
L 160.65 344.092181 
L 162.72766 342.106164 
L 164.805319 340.871864 
L 166.882979 339.298789 
L 171.038298 325.985967 
L 173.115957 317.522737 
L 175.193617 322.782514 
L 177.271277 327.306334 
L 179.348936 342.028594 
L 181.426596 354.981147 
L 185.581915 373.28641 
L 187.659574 386.36239 
L 189.737234 392.858757 
L 191.814894 392.713092 
L 193.892553 398.29418 
L 195.970213 398.953536 
L 198.047872 397.732636 
L 200.125532 389.829653 
L 202.203191 385.973654 
L 204.280851 383.201551 
L 206.358511 380.815348 
L 210.51383 370.033216 
L 212.591489 371.217991 
L 214.669149 378.628985 
L 216.746809 381.635366 
L 218.824468 390.981841 
L 220.902128 388.041463 
L 222.979787 396.947773 
L 225.057447 408.549395 
L 227.135106 415.497323 
L 229.212766 419.246638 
L 231.290426 419.044889 
L 235.445745 414.332547 
L 237.523404 418.172542 
L 239.601064 421.048073 
L 241.678723 425.296967 
L 245.834043 431.308643 
L 247.911702 433.664055 
L 249.989362 435.331128 
L 252.067021 436.617154 
L 254.144681 436.964278 
L 258.3 436.762991 
L 260.37766 437.106239 
L 262.455319 437.086169 
L 264.532979 437.58175 
L 266.610638 438.22032 
L 268.688298 438.397739 
L 272.843617 437.954632 
L 276.998936 438.362783 
L 279.076596 438.312318 
L 281.154255 438.393789 
L 283.231915 438.264394 
L 285.309574 438.307605 
L 287.387234 438.187294 
L 289.464894 437.898124 
L 291.542553 437.460018 
L 293.620213 437.22015 
L 295.697872 437.22594 
L 299.853191 436.925081 
L 301.930851 436.61611 
L 306.08617 436.570031 
L 310.241489 436.232339 
L 314.396809 435.636879 
L 318.552128 434.785411 
L 322.707447 433.69316 
L 326.862766 433.322759 
L 331.018085 432.690237 
L 335.173404 431.903525 
L 337.251064 431.399112 
L 341.406383 431.519387 
L 349.717021 431.479413 
L 355.95 431.080662 
L 362.182979 430.414022 
L 366.338298 429.798029 
L 378.804255 427.255572 
L 387.114894 425.345981 
L 403.73617 421.378559 
L 405.81383 420.945607 
L 409.969149 419.927311 
L 420.357447 417.491122 
L 428.668085 415.472318 
L 432.823404 414.599124 
L 443.211702 412.380673 
L 449.444681 411.183269 
L 453.6 410.630919 
L 453.6 410.630919 
" clip-path="url(#pcecef7f50f)" style="fill: none; stroke: #de8f05; stroke-width: 2; stroke-linecap: square"/>
   </g>
   <g id="line2d_22">
    <path d="M 63 334.371558 
L 65.07766 332.724882 
L 67.155319 338.578224 
L 69.232979 351.324435 
L 71.310638 362.741559 
L 73.388298 371.967194 
L 75.465957 380.128325 
L 77.543617 386.941348 
L 79.621277 392.786968 
L 81.698936 397.118189 
L 83.776596 401.795137 
L 85.854255 405.071739 
L 87.931915 407.102302 
L 90.009574 408.34918 
L 92.087234 408.3445 
L 94.164894 407.697341 
L 96.242553 406.318013 
L 98.320213 404.049567 
L 100.397872 400.937632 
L 102.475532 396.92319 
L 104.553191 394.006444 
L 106.630851 389.938814 
L 108.708511 384.87698 
L 110.78617 381.157088 
L 112.86383 376.311411 
L 114.941489 373.435318 
L 117.019149 369.694319 
L 119.096809 367.779034 
L 121.174468 365.394865 
L 123.252128 364.751422 
L 125.329787 365.751441 
L 127.407447 364.750632 
L 129.485106 365.44239 
L 131.562766 366.670809 
L 133.640426 366.369504 
L 135.718085 366.528673 
L 137.795745 363.532755 
L 139.873404 358.040522 
L 141.951064 357.843741 
L 144.028723 359.969649 
L 146.106383 361.237327 
L 148.184043 361.542334 
L 150.261702 360.892046 
L 152.339362 358.868149 
L 154.417021 361.549806 
L 156.494681 359.084263 
L 158.57234 354.579056 
L 160.65 346.008944 
L 162.72766 342.523212 
L 166.882979 336.191543 
L 168.960638 326.989864 
L 171.038298 319.069247 
L 173.115957 310.162336 
L 175.193617 315.793802 
L 177.271277 321.824698 
L 179.348936 339.181193 
L 181.426596 353.970336 
L 183.504255 364.953431 
L 185.581915 375.242701 
L 187.659574 388.761521 
L 189.737234 395.836045 
L 191.814894 396.148684 
L 193.892553 401.576454 
L 195.970213 402.087422 
L 198.047872 400.604851 
L 200.125532 392.493119 
L 202.203191 388.196902 
L 206.358511 380.850522 
L 210.51383 368.055313 
L 212.591489 368.525456 
L 214.669149 375.933323 
L 216.746809 378.74753 
L 218.824468 388.956226 
L 220.902128 386.227509 
L 222.979787 395.534775 
L 225.057447 407.575465 
L 227.135106 414.767454 
L 229.212766 418.738708 
L 231.290426 418.666393 
L 235.445745 414.281956 
L 237.523404 418.249794 
L 239.601064 421.179285 
L 241.678723 425.295724 
L 245.834043 431.374395 
L 247.911702 433.675773 
L 249.989362 435.305782 
L 252.067021 436.556609 
L 254.144681 436.911266 
L 256.22234 436.895895 
L 258.3 436.732732 
L 260.37766 437.062372 
L 262.455319 437.06194 
L 264.532979 437.495644 
L 266.610638 438.136466 
L 268.688298 438.265513 
L 272.843617 437.757321 
L 276.998936 438.063602 
L 283.231915 437.892932 
L 285.309574 437.969216 
L 287.387234 437.836331 
L 289.464894 437.561617 
L 291.542553 437.081944 
L 293.620213 436.852641 
L 297.775532 436.750046 
L 301.930851 436.156093 
L 306.08617 436.048955 
L 310.241489 435.619924 
L 314.396809 434.790001 
L 320.629787 433.176535 
L 322.707447 432.479973 
L 324.785106 432.22029 
L 333.095745 430.563812 
L 337.251064 429.58966 
L 347.639362 430.041357 
L 351.794681 429.913092 
L 355.95 429.738151 
L 368.415957 428.058597 
L 374.648936 426.449228 
L 378.804255 425.660677 
L 380.881915 425.132983 
L 382.959574 424.484249 
L 387.114894 423.550013 
L 389.192553 422.964454 
L 393.347872 421.496456 
L 397.503191 420.615713 
L 399.580851 420.01895 
L 401.658511 419.583298 
L 403.73617 418.887149 
L 405.81383 418.481726 
L 412.046809 416.771643 
L 414.124468 416.501788 
L 416.202128 416.416811 
L 418.279787 415.86704 
L 422.435106 415.207843 
L 428.668085 413.771439 
L 430.745745 413.560041 
L 434.901064 412.674214 
L 436.978723 412.436092 
L 447.367021 410.424759 
L 453.6 409.511578 
L 455.67766 409.010575 
L 457.755319 408.658875 
L 461.910638 407.54684 
L 463.988298 407.469129 
L 463.988298 407.469129 
" clip-path="url(#pcecef7f50f)" style="fill: none; stroke-dasharray: 7.4,3.2; stroke-dashoffset: 0; stroke: #e377c2; stroke-width: 2"/>
   </g>
   <g id="patch_193">
    <path d="M 63 448.56 
L 63 60.48 
" style="fill: none; stroke: #000000; stroke-width: 0.8; stroke-linejoin: miter; stroke-linecap: square"/>
   </g>
   <g id="patch_194">
    <path d="M 63 448.56 
L 453.6 448.56 
" style="fill: none; stroke: #000000; stroke-width: 0.8; stroke-linejoin: miter; stroke-linecap: square"/>
   </g>
   <g id="legend_1">
    <g id="patch_195">
     <path d="M 288.05875 113.682187 
L 443.8 113.682187 
Q 446.6 113.682187 446.6 110.882187 
L 446.6 70.28 
Q 446.6 67.48 443.8 67.48 
L 288.05875 67.48 
Q 285.25875 67.48 285.25875 70.28 
L 285.25875 110.882187 
Q 285.25875 113.682187 288.05875 113.682187 
z
" style="fill: #ffffff; opacity: 0.8; stroke: #cccccc; stroke-linejoin: miter"/>
    </g>
    <g id="line2d_23">
     <path d="M 290.85875 78.817812 
L 304.85875 78.817812 
L 318.85875 78.817812 
" style="fill: none; stroke: #de8f05; stroke-width: 2; stroke-linecap: square"/>
    </g>
    <g id="text_24">
     <text style="font-size: 14px; font-family: 'Arial', sans-serif; text-anchor: start" x="330.05875" y="83.717812" transform="rotate(-0 330.05875 83.717812)">Under-reporting</text>
    </g>
    <g id="line2d_24">
     <path d="M 290.85875 99.818906 
L 304.85875 99.818906 
L 318.85875 99.818906 
" style="fill: none; stroke-dasharray: 7.4,3.2; stroke-dashoffset: 0; stroke: #e377c2; stroke-width: 2"/>
    </g>
    <g id="text_25">
     <text style="font-size: 14px; font-family: 'Arial', sans-serif; text-anchor: start" x="330.05875" y="104.718906" transform="rotate(-0 330.05875 104.718906)">Full reporting</text>
    </g>
   </g>
  </g>
 </g>
 <defs>
  <clipPath id="pcecef7f50f">
   <rect x="63" y="60.48" width="390.6" height="388.08"/>
  </clipPath>
 </defs>
</svg>
