<?xml version="1.0" encoding="utf-8" standalone="no"?>
<!DOCTYPE svg PUBLIC "-//W3C//DTD SVG 1.1//EN"
  "http://www.w3.org/Graphics/SVG/1.1/DTD/svg11.dtd">
<svg xmlns:xlink="http://www.w3.org/1999/xlink" width="504pt" height="504pt" viewBox="0 0 504 504" xmlns="http://www.w3.org/2000/svg" version="1.1">
 <metadata>
  <rdf:RDF xmlns:dc="http://purl.org/dc/elements/1.1/" xmlns:cc="http://creativecommons.org/ns#" xmlns:rdf="http://www.w3.org/1999/02/22-rdf-syntax-ns#">
   <cc:Work>
    <dc:type rdf:resource="http://purl.org/dc/dcmitype/StillImage"/>
    <dc:date>2026-07-17T10:21:22.078190</dc:date>
    <dc:format>image/svg+xml</dc:format>
    <dc:creator>
     <cc:Agent>
      <dc:title>Matplotlib v3.11.0, https://matplotlib.org/</dc:title>
     </cc:Agent>
    </dc:creator>
   </cc:Work>
  </rdf:RDF>
 </metadata>
 <defs>
  <style type="text/css">*{stroke-linejoin: round; stroke-linecap: butt}</style>
 </defs>
 <g id="figure_1">
  <g id="patch_1">
   <path d="M 0 504 
L 504 504 
L 504 0 
L 0 0 
L 0 504 
z
" style="fill: none"/>
  </g>
  <g id="axes_1">
   <g id="patch_2">
    <path d="M 63 448.56 
L 453.6 448.56 
L 453.6 60.48 
L 63 60.48 
L 63 448.56 
z
" style="fill: none"/>
   </g>
   <g id="matplotlib.axis_1">
    <g id="ytick_1">
     <g id="line2d_1">
      <defs>
       <path id="m360de5545b" d="M 0 0 
L 3.5 0 
" style="stroke: #7f7f7f; stroke-width: 0.8"/>
      </defs>
      <g>
       <use xlink:href="#m360de5545b" x="453.6" y="448.56" style="fill: #7f7f7f; stroke: #7f7f7f; stroke-width: 0.8"/>
      </g>
     </g>
     <g id="text_1">
      <text style="font-size: 16px; font-family: 'Arial', sans-serif; text-anchor: start; fill: #7f7f7f" x="460.6" y="454.384219" transform="rotate(-0 460.6 454.384219)">0</text>
     </g>
    </g>
    <g id="ytick_2">
     <g id="line2d_2">
      <g>
       <use xlink:href="#m360de5545b" x="453.6" y="396.816" style="fill: #7f7f7f; stroke: #7f7f7f; stroke-width: 0.8"/>
      </g>
     </g>
     <g id="text_2">
      <text style="font-size: 16px; font-family: 'Arial', sans-serif; text-anchor: start; fill: #7f7f7f" x="460.6" y="402.640219" transform="rotate(-0 460.6 402.640219)">2</text>
     </g>
    </g>
    <g id="ytick_3">
     <g id="line2d_3">
      <g>
       <use xlink:href="#m360de5545b" x="453.6" y="345.072" style="fill: #7f7f7f; stroke: #7f7f7f; stroke-width: 0.8"/>
      </g>
     </g>
     <g id="text_3">
      <text style="font-size: 16px; font-family: 'Arial', sans-serif; text-anchor: start; fill: #7f7f7f" x="460.6" y="350.896219" transform="rotate(-0 460.6 350.896219)">4</text>
     </g>
    </g>
    <g id="ytick_4">
     <g id="line2d_4">
      <g>
       <use xlink:href="#m360de5545b" x="453.6" y="293.328" style="fill: #7f7f7f; stroke: #7f7f7f; stroke-width: 0.8"/>
      </g>
     </g>
     <g id="text_4">
      <text style="font-size: 16px; font-family: 'Arial', sans-serif; text-anchor: start; fill: #7f7f7f" x="460.6" y="299.152219" transform="rotate(-0 460.6 299.152219)">6</text>
     </g>
    </g>
    <g id="ytick_5">
     <g id="line2d_5">
      <g>
       <use xlink:href="#m360de5545b" x="453.6" y="241.584" style="fill: #7f7f7f; stroke: #7f7f7f; stroke-width: 0.8"/>
      </g>
     </g>
     <g id="text_5">
      <text style="font-size: 16px; font-family: 'Arial', sans-serif; text-anchor: start; fill: #7f7f7f" x="460.6" y="247.408219" transform="rotate(-0 460.6 247.408219)">8</text>
     </g>
    </g>
    <g id="ytick_6">
     <g id="line2d_6">
      <g>
       <use xlink:href="#m360de5545b" x="453.6" y="189.84" style="fill: #7f7f7f; stroke: #7f7f7f; stroke-width: 0.8"/>
      </g>
     </g>
     <g id="text_6">
      <text style="font-size: 16px; font-family: 'Arial', sans-serif; text-anchor: start; fill: #7f7f7f" x="460.6" y="195.664219" transform="rotate(-0 460.6 195.664219)">10</text>
     </g>
    </g>
    <g id="ytick_7">
     <g id="line2d_7">
      <g>
       <use xlink:href="#m360de5545b" x="453.6" y="138.096" style="fill: #7f7f7f; stroke: #7f7f7f; stroke-width: 0.8"/>
      </g>
     </g>
     <g id="text_7">
      <text style="font-size: 16px; font-family: 'Arial', sans-serif; text-anchor: start; fill: #7f7f7f" x="460.6" y="143.920219" transform="rotate(-0 460.6 143.920219)">12</text>
     </g>
    </g>
    <g id="ytick_8">
     <g id="line2d_8">
      <g>
       <use xlink:href="#m360de5545b" x="453.6" y="86.352" style="fill: #7f7f7f; stroke: #7f7f7f; stroke-width: 0.8"/>
      </g>
     </g>
     <g id="text_8">
      <text style="font-size: 16px; font-family: 'Arial', sans-serif; text-anchor: start; fill: #7f7f7f" x="460.6" y="92.176219" transform="rotate(-0 460.6 92.176219)">14</text>
     </g>
    </g>
    <g id="text_9">
     <text style="font-size: 16px; font-family: 'Arial', sans-serif; text-anchor: middle; fill: #7f7f7f" x="494.043438" y="254.52" transform="rotate(-90 494.043438 254.52)">Number of cases</text>
    </g>
   </g>
   <g id="patch_3">
    <path d="M 62.102069 448.56 
L 63.897931 448.56 
L 63.897931 396.816 
L 62.102069 396.816 
z
" clip-path="url(#p29447f5418)" style="fill: #7f7f7f; opacity: 0.5"/>
   </g>
   <g id="patch_4">
    <path d="M 64.346897 448.56 
L 66.142759 448.56 
L 66.142759 396.816 
L 64.346897 396.816 
z
" clip-path="url(#p29447f5418)" style="fill: #7f7f7f; opacity: 0.5"/>
   </g>
   <g id="patch_5">
    <path d="M 66.591724 448.56 
L 68.387586 448.56 
L 68.387586 396.816 
L 66.591724 396.816 
z
" clip-path="url(#p29447f5418)" style="fill: #7f7f7f; opacity: 0.5"/>
   </g>
   <g id="patch_6">
    <path d="M 68.836552 448.56 
L 70.632414 448.56 
L 70.632414 448.56 
L 68.836552 448.56 
z
" clip-path="url(#p29447f5418)" style="fill: #7f7f7f; opacity: 0.5"/>
   </g>
   <g id="patch_7">
    <path d="M 71.081379 448.56 
L 72.877241 448.56 
L 72.877241 448.56 
L 71.081379 448.56 
z
" clip-path="url(#p29447f5418)" style="fill: #7f7f7f; opacity: 0.5"/>
   </g>
   <g id="patch_8">
    <path d="M 73.326207 448.56 
L 75.122069 448.56 
L 75.122069 448.56 
L 73.326207 448.56 
z
" clip-path="url(#p29447f5418)" style="fill: #7f7f7f; opacity: 0.5"/>
   </g>
   <g id="patch_9">
    <path d="M 75.571034 448.56 
L 77.366897 448.56 
L 77.366897 448.56 
L 75.571034 448.56 
z
" clip-path="url(#p29447f5418)" style="fill: #7f7f7f; opacity: 0.5"/>
   </g>
   <g id="patch_10">
    <path d="M 77.815862 448.56 
L 79.611724 448.56 
L 79.611724 448.56 
L 77.815862 448.56 
z
" clip-path="url(#p29447f5418)" style="fill: #7f7f7f; opacity: 0.5"/>
   </g>
   <g id="patch_11">
    <path d="M 80.06069 448.56 
L 81.856552 448.56 
L 81.856552 448.56 
L 80.06069 448.56 
z
" clip-path="url(#p29447f5418)" style="fill: #7f7f7f; opacity: 0.5"/>
   </g>
   <g id="patch_12">
    <path d="M 82.305517 448.56 
L 84.101379 448.56 
L 84.101379 422.688 
L 82.305517 422.688 
z
" clip-path="url(#p29447f5418)" style="fill: #7f7f7f; opacity: 0.5"/>
   </g>
   <g id="patch_13">
    <path d="M 84.550345 448.56 
L 86.346207 448.56 
L 86.346207 448.56 
L 84.550345 448.56 
z
" clip-path="url(#p29447f5418)" style="fill: #7f7f7f; opacity: 0.5"/>
   </g>
   <g id="patch_14">
    <path d="M 86.795172 448.56 
L 88.591034 448.56 
L 88.591034 448.56 
L 86.795172 448.56 
z
" clip-path="url(#p29447f5418)" style="fill: #7f7f7f; opacity: 0.5"/>
   </g>
   <g id="patch_15">
    <path d="M 89.04 448.56 
L 90.835862 448.56 
L 90.835862 448.56 
L 89.04 448.56 
z
" clip-path="url(#p29447f5418)" style="fill: #7f7f7f; opacity: 0.5"/>
   </g>
   <g id="patch_16">
    <path d="M 91.284828 448.56 
L 93.08069 448.56 
L 93.08069 448.56 
L 91.284828 448.56 
z
" clip-path="url(#p29447f5418)" style="fill: #7f7f7f; opacity: 0.5"/>
   </g>
   <g id="patch_17">
    <path d="M 93.529655 448.56 
L 95.325517 448.56 
L 95.325517 448.56 
L 93.529655 448.56 
z
" clip-path="url(#p29447f5418)" style="fill: #7f7f7f; opacity: 0.5"/>
   </g>
   <g id="patch_18">
    <path d="M 95.774483 448.56 
L 97.570345 448.56 
L 97.570345 448.56 
L 95.774483 448.56 
z
" clip-path="url(#p29447f5418)" style="fill: #7f7f7f; opacity: 0.5"/>
   </g>
   <g id="patch_19">
    <path d="M 98.01931 448.56 
L 99.815172 448.56 
L 99.815172 448.56 
L 98.01931 448.56 
z
" clip-path="url(#p29447f5418)" style="fill: #7f7f7f; opacity: 0.5"/>
   </g>
   <g id="patch_20">
    <path d="M 100.264138 448.56 
L 102.06 448.56 
L 102.06 448.56 
L 100.264138 448.56 
z
" clip-path="url(#p29447f5418)" style="fill: #7f7f7f; opacity: 0.5"/>
   </g>
   <g id="patch_21">
    <path d="M 102.508966 448.56 
L 104.304828 448.56 
L 104.304828 448.56 
L 102.508966 448.56 
z
" clip-path="url(#p29447f5418)" style="fill: #7f7f7f; opacity: 0.5"/>
   </g>
   <g id="patch_22">
    <path d="M 104.753793 448.56 
L 106.549655 448.56 
L 106.549655 422.688 
L 104.753793 422.688 
z
" clip-path="url(#p29447f5418)" style="fill: #7f7f7f; opacity: 0.5"/>
   </g>
   <g id="patch_23">
    <path d="M 106.998621 448.56 
L 108.794483 448.56 
L 108.794483 448.56 
L 106.998621 448.56 
z
" clip-path="url(#p29447f5418)" style="fill: #7f7f7f; opacity: 0.5"/>
   </g>
   <g id="patch_24">
    <path d="M 109.243448 448.56 
L 111.03931 448.56 
L 111.03931 448.56 
L 109.243448 448.56 
z
" clip-path="url(#p29447f5418)" style="fill: #7f7f7f; opacity: 0.5"/>
   </g>
   <g id="patch_25">
    <path d="M 111.488276 448.56 
L 113.284138 448.56 
L 113.284138 422.688 
L 111.488276 422.688 
z
" clip-path="url(#p29447f5418)" style="fill: #7f7f7f; opacity: 0.5"/>
   </g>
   <g id="patch_26">
    <path d="M 113.733103 448.56 
L 115.528966 448.56 
L 115.528966 448.56 
L 113.733103 448.56 
z
" clip-path="url(#p29447f5418)" style="fill: #7f7f7f; opacity: 0.5"/>
   </g>
   <g id="patch_27">
    <path d="M 115.977931 448.56 
L 117.773793 448.56 
L 117.773793 422.688 
L 115.977931 422.688 
z
" clip-path="url(#p29447f5418)" style="fill: #7f7f7f; opacity: 0.5"/>
   </g>
   <g id="patch_28">
    <path d="M 118.222759 448.56 
L 120.018621 448.56 
L 120.018621 448.56 
L 118.222759 448.56 
z
" clip-path="url(#p29447f5418)" style="fill: #7f7f7f; opacity: 0.5"/>
   </g>
   <g id="patch_29">
    <path d="M 120.467586 448.56 
L 122.263448 448.56 
L 122.263448 422.688 
L 120.467586 422.688 
z
" clip-path="url(#p29447f5418)" style="fill: #7f7f7f; opacity: 0.5"/>
   </g>
   <g id="patch_30">
    <path d="M 122.712414 448.56 
L 124.508276 448.56 
L 124.508276 448.56 
L 122.712414 448.56 
z
" clip-path="url(#p29447f5418)" style="fill: #7f7f7f; opacity: 0.5"/>
   </g>
   <g id="patch_31">
    <path d="M 124.957241 448.56 
L 126.753103 448.56 
L 126.753103 422.688 
L 124.957241 422.688 
z
" clip-path="url(#p29447f5418)" style="fill: #7f7f7f; opacity: 0.5"/>
   </g>
   <g id="patch_32">
    <path d="M 127.202069 448.56 
L 128.997931 448.56 
L 128.997931 422.688 
L 127.202069 422.688 
z
" clip-path="url(#p29447f5418)" style="fill: #7f7f7f; opacity: 0.5"/>
   </g>
   <g id="patch_33">
    <path d="M 129.446897 448.56 
L 131.242759 448.56 
L 131.242759 448.56 
L 129.446897 448.56 
z
" clip-path="url(#p29447f5418)" style="fill: #7f7f7f; opacity: 0.5"/>
   </g>
   <g id="patch_34">
    <path d="M 131.691724 448.56 
L 133.487586 448.56 
L 133.487586 422.688 
L 131.691724 422.688 
z
" clip-path="url(#p29447f5418)" style="fill: #7f7f7f; opacity: 0.5"/>
   </g>
   <g id="patch_35">
    <path d="M 133.936552 448.56 
L 135.732414 448.56 
L 135.732414 422.688 
L 133.936552 422.688 
z
" clip-path="url(#p29447f5418)" style="fill: #7f7f7f; opacity: 0.5"/>
   </g>
   <g id="patch_36">
    <path d="M 136.181379 448.56 
L 137.977241 448.56 
L 137.977241 448.56 
L 136.181379 448.56 
z
" clip-path="url(#p29447f5418)" style="fill: #7f7f7f; opacity: 0.5"/>
   </g>
   <g id="patch_37">
    <path d="M 138.426207 448.56 
L 140.222069 448.56 
L 140.222069 422.688 
L 138.426207 422.688 
z
" clip-path="url(#p29447f5418)" style="fill: #7f7f7f; opacity: 0.5"/>
   </g>
   <g id="patch_38">
    <path d="M 140.671034 448.56 
L 142.466897 448.56 
L 142.466897 448.56 
L 140.671034 448.56 
z
" clip-path="url(#p29447f5418)" style="fill: #7f7f7f; opacity: 0.5"/>
   </g>
   <g id="patch_39">
    <path d="M 142.915862 448.56 
L 144.711724 448.56 
L 144.711724 448.56 
L 142.915862 448.56 
z
" clip-path="url(#p29447f5418)" style="fill: #7f7f7f; opacity: 0.5"/>
   </g>
   <g id="patch_40">
    <path d="M 145.16069 448.56 
L 146.956552 448.56 
L 146.956552 370.944 
L 145.16069 370.944 
z
" clip-path="url(#p29447f5418)" style="fill: #7f7f7f; opacity: 0.5"/>
   </g>
   <g id="patch_41">
    <path d="M 147.405517 448.56 
L 149.201379 448.56 
L 149.201379 396.816 
L 147.405517 396.816 
z
" clip-path="url(#p29447f5418)" style="fill: #7f7f7f; opacity: 0.5"/>
   </g>
   <g id="patch_42">
    <path d="M 149.650345 448.56 
L 151.446207 448.56 
L 151.446207 422.688 
L 149.650345 422.688 
z
" clip-path="url(#p29447f5418)" style="fill: #7f7f7f; opacity: 0.5"/>
   </g>
   <g id="patch_43">
    <path d="M 151.895172 448.56 
L 153.691034 448.56 
L 153.691034 422.688 
L 151.895172 422.688 
z
" clip-path="url(#p29447f5418)" style="fill: #7f7f7f; opacity: 0.5"/>
   </g>
   <g id="patch_44">
    <path d="M 154.14 448.56 
L 155.935862 448.56 
L 155.935862 422.688 
L 154.14 422.688 
z
" clip-path="url(#p29447f5418)" style="fill: #7f7f7f; opacity: 0.5"/>
   </g>
   <g id="patch_45">
    <path d="M 156.384828 448.56 
L 158.18069 448.56 
L 158.18069 422.688 
L 156.384828 422.688 
z
" clip-path="url(#p29447f5418)" style="fill: #7f7f7f; opacity: 0.5"/>
   </g>
   <g id="patch_46">
    <path d="M 158.629655 448.56 
L 160.425517 448.56 
L 160.425517 370.944 
L 158.629655 370.944 
z
" clip-path="url(#p29447f5418)" style="fill: #7f7f7f; opacity: 0.5"/>
   </g>
   <g id="patch_47">
    <path d="M 160.874483 448.56 
L 162.670345 448.56 
L 162.670345 448.56 
L 160.874483 448.56 
z
" clip-path="url(#p29447f5418)" style="fill: #7f7f7f; opacity: 0.5"/>
   </g>
   <g id="patch_48">
    <path d="M 163.11931 448.56 
L 164.915172 448.56 
L 164.915172 422.688 
L 163.11931 422.688 
z
" clip-path="url(#p29447f5418)" style="fill: #7f7f7f; opacity: 0.5"/>
   </g>
   <g id="patch_49">
    <path d="M 165.364138 448.56 
L 167.16 448.56 
L 167.16 422.688 
L 165.364138 422.688 
z
" clip-path="url(#p29447f5418)" style="fill: #7f7f7f; opacity: 0.5"/>
   </g>
   <g id="patch_50">
    <path d="M 167.608966 448.56 
L 169.404828 448.56 
L 169.404828 345.072 
L 167.608966 345.072 
z
" clip-path="url(#p29447f5418)" style="fill: #7f7f7f; opacity: 0.5"/>
   </g>
   <g id="patch_51">
    <path d="M 169.853793 448.56 
L 171.649655 448.56 
L 171.649655 370.944 
L 169.853793 370.944 
z
" clip-path="url(#p29447f5418)" style="fill: #7f7f7f; opacity: 0.5"/>
   </g>
   <g id="patch_52">
    <path d="M 172.098621 448.56 
L 173.894483 448.56 
L 173.894483 370.944 
L 172.098621 370.944 
z
" clip-path="url(#p29447f5418)" style="fill: #7f7f7f; opacity: 0.5"/>
   </g>
   <g id="patch_53">
    <path d="M 174.343448 448.56 
L 176.13931 448.56 
L 176.13931 396.816 
L 174.343448 396.816 
z
" clip-path="url(#p29447f5418)" style="fill: #7f7f7f; opacity: 0.5"/>
   </g>
   <g id="patch_54">
    <path d="M 176.588276 448.56 
L 178.384138 448.56 
L 178.384138 345.072 
L 176.588276 345.072 
z
" clip-path="url(#p29447f5418)" style="fill: #7f7f7f; opacity: 0.5"/>
   </g>
   <g id="patch_55">
    <path d="M 178.833103 448.56 
L 180.628966 448.56 
L 180.628966 345.072 
L 178.833103 345.072 
z
" clip-path="url(#p29447f5418)" style="fill: #7f7f7f; opacity: 0.5"/>
   </g>
   <g id="patch_56">
    <path d="M 181.077931 448.56 
L 182.873793 448.56 
L 182.873793 241.584 
L 181.077931 241.584 
z
" clip-path="url(#p29447f5418)" style="fill: #7f7f7f; opacity: 0.5"/>
   </g>
   <g id="patch_57">
    <path d="M 183.322759 448.56 
L 185.118621 448.56 
L 185.118621 319.2 
L 183.322759 319.2 
z
" clip-path="url(#p29447f5418)" style="fill: #7f7f7f; opacity: 0.5"/>
   </g>
   <g id="patch_58">
    <path d="M 185.567586 448.56 
L 187.363448 448.56 
L 187.363448 241.584 
L 185.567586 241.584 
z
" clip-path="url(#p29447f5418)" style="fill: #7f7f7f; opacity: 0.5"/>
   </g>
   <g id="patch_59">
    <path d="M 187.812414 448.56 
L 189.608276 448.56 
L 189.608276 319.2 
L 187.812414 319.2 
z
" clip-path="url(#p29447f5418)" style="fill: #7f7f7f; opacity: 0.5"/>
   </g>
   <g id="patch_60">
    <path d="M 190.057241 448.56 
L 191.853103 448.56 
L 191.853103 345.072 
L 190.057241 345.072 
z
" clip-path="url(#p29447f5418)" style="fill: #7f7f7f; opacity: 0.5"/>
   </g>
   <g id="patch_61">
    <path d="M 192.302069 448.56 
L 194.097931 448.56 
L 194.097931 319.2 
L 192.302069 319.2 
z
" clip-path="url(#p29447f5418)" style="fill: #7f7f7f; opacity: 0.5"/>
   </g>
   <g id="patch_62">
    <path d="M 194.546897 448.56 
L 196.342759 448.56 
L 196.342759 267.456 
L 194.546897 267.456 
z
" clip-path="url(#p29447f5418)" style="fill: #7f7f7f; opacity: 0.5"/>
   </g>
   <g id="patch_63">
    <path d="M 196.791724 448.56 
L 198.587586 448.56 
L 198.587586 396.816 
L 196.791724 396.816 
z
" clip-path="url(#p29447f5418)" style="fill: #7f7f7f; opacity: 0.5"/>
   </g>
   <g id="patch_64">
    <path d="M 199.036552 448.56 
L 200.832414 448.56 
L 200.832414 422.688 
L 199.036552 422.688 
z
" clip-path="url(#p29447f5418)" style="fill: #7f7f7f; opacity: 0.5"/>
   </g>
   <g id="patch_65">
    <path d="M 201.281379 448.56 
L 203.077241 448.56 
L 203.077241 241.584 
L 201.281379 241.584 
z
" clip-path="url(#p29447f5418)" style="fill: #7f7f7f; opacity: 0.5"/>
   </g>
   <g id="patch_66">
    <path d="M 203.526207 448.56 
L 205.322069 448.56 
L 205.322069 396.816 
L 203.526207 396.816 
z
" clip-path="url(#p29447f5418)" style="fill: #7f7f7f; opacity: 0.5"/>
   </g>
   <g id="patch_67">
    <path d="M 205.771034 448.56 
L 207.566897 448.56 
L 207.566897 345.072 
L 205.771034 345.072 
z
" clip-path="url(#p29447f5418)" style="fill: #7f7f7f; opacity: 0.5"/>
   </g>
   <g id="patch_68">
    <path d="M 208.015862 448.56 
L 209.811724 448.56 
L 209.811724 396.816 
L 208.015862 396.816 
z
" clip-path="url(#p29447f5418)" style="fill: #7f7f7f; opacity: 0.5"/>
   </g>
   <g id="patch_69">
    <path d="M 210.26069 448.56 
L 212.056552 448.56 
L 212.056552 215.712 
L 210.26069 215.712 
z
" clip-path="url(#p29447f5418)" style="fill: #7f7f7f; opacity: 0.5"/>
   </g>
   <g id="patch_70">
    <path d="M 212.505517 448.56 
L 214.301379 448.56 
L 214.301379 241.584 
L 212.505517 241.584 
z
" clip-path="url(#p29447f5418)" style="fill: #7f7f7f; opacity: 0.5"/>
   </g>
   <g id="patch_71">
    <path d="M 214.750345 448.56 
L 216.546207 448.56 
L 216.546207 241.584 
L 214.750345 241.584 
z
" clip-path="url(#p29447f5418)" style="fill: #7f7f7f; opacity: 0.5"/>
   </g>
   <g id="patch_72">
    <path d="M 216.995172 448.56 
L 218.791034 448.56 
L 218.791034 267.456 
L 216.995172 267.456 
z
" clip-path="url(#p29447f5418)" style="fill: #7f7f7f; opacity: 0.5"/>
   </g>
   <g id="patch_73">
    <path d="M 219.24 448.56 
L 221.035862 448.56 
L 221.035862 215.712 
L 219.24 215.712 
z
" clip-path="url(#p29447f5418)" style="fill: #7f7f7f; opacity: 0.5"/>
   </g>
   <g id="patch_74">
    <path d="M 221.484828 448.56 
L 223.28069 448.56 
L 223.28069 138.096 
L 221.484828 138.096 
z
" clip-path="url(#p29447f5418)" style="fill: #7f7f7f; opacity: 0.5"/>
   </g>
   <g id="patch_75">
    <path d="M 223.729655 448.56 
L 225.525517 448.56 
L 225.525517 138.096 
L 223.729655 138.096 
z
" clip-path="url(#p29447f5418)" style="fill: #7f7f7f; opacity: 0.5"/>
   </g>
   <g id="patch_76">
    <path d="M 225.974483 448.56 
L 227.770345 448.56 
L 227.770345 267.456 
L 225.974483 267.456 
z
" clip-path="url(#p29447f5418)" style="fill: #7f7f7f; opacity: 0.5"/>
   </g>
   <g id="patch_77">
    <path d="M 228.21931 448.56 
L 230.015172 448.56 
L 230.015172 138.096 
L 228.21931 138.096 
z
" clip-path="url(#p29447f5418)" style="fill: #7f7f7f; opacity: 0.5"/>
   </g>
   <g id="patch_78">
    <path d="M 230.464138 448.56 
L 232.26 448.56 
L 232.26 396.816 
L 230.464138 396.816 
z
" clip-path="url(#p29447f5418)" style="fill: #7f7f7f; opacity: 0.5"/>
   </g>
   <g id="patch_79">
    <path d="M 232.708966 448.56 
L 234.504828 448.56 
L 234.504828 60.48 
L 232.708966 60.48 
z
" clip-path="url(#p29447f5418)" style="fill: #7f7f7f; opacity: 0.5"/>
   </g>
   <g id="patch_80">
    <path d="M 234.953793 448.56 
L 236.749655 448.56 
L 236.749655 163.968 
L 234.953793 163.968 
z
" clip-path="url(#p29447f5418)" style="fill: #7f7f7f; opacity: 0.5"/>
   </g>
   <g id="patch_81">
    <path d="M 237.198621 448.56 
L 238.994483 448.56 
L 238.994483 319.2 
L 237.198621 319.2 
z
" clip-path="url(#p29447f5418)" style="fill: #7f7f7f; opacity: 0.5"/>
   </g>
   <g id="patch_82">
    <path d="M 239.443448 448.56 
L 241.23931 448.56 
L 241.23931 345.072 
L 239.443448 345.072 
z
" clip-path="url(#p29447f5418)" style="fill: #7f7f7f; opacity: 0.5"/>
   </g>
   <g id="patch_83">
    <path d="M 241.688276 448.56 
L 243.484138 448.56 
L 243.484138 396.816 
L 241.688276 396.816 
z
" clip-path="url(#p29447f5418)" style="fill: #7f7f7f; opacity: 0.5"/>
   </g>
   <g id="patch_84">
    <path d="M 243.933103 448.56 
L 245.728966 448.56 
L 245.728966 345.072 
L 243.933103 345.072 
z
" clip-path="url(#p29447f5418)" style="fill: #7f7f7f; opacity: 0.5"/>
   </g>
   <g id="patch_85">
    <path d="M 246.177931 448.56 
L 247.973793 448.56 
L 247.973793 267.456 
L 246.177931 267.456 
z
" clip-path="url(#p29447f5418)" style="fill: #7f7f7f; opacity: 0.5"/>
   </g>
   <g id="patch_86">
    <path d="M 248.422759 448.56 
L 250.218621 448.56 
L 250.218621 112.224 
L 248.422759 112.224 
z
" clip-path="url(#p29447f5418)" style="fill: #7f7f7f; opacity: 0.5"/>
   </g>
   <g id="patch_87">
    <path d="M 250.667586 448.56 
L 252.463448 448.56 
L 252.463448 293.328 
L 250.667586 293.328 
z
" clip-path="url(#p29447f5418)" style="fill: #7f7f7f; opacity: 0.5"/>
   </g>
   <g id="patch_88">
    <path d="M 252.912414 448.56 
L 254.708276 448.56 
L 254.708276 241.584 
L 252.912414 241.584 
z
" clip-path="url(#p29447f5418)" style="fill: #7f7f7f; opacity: 0.5"/>
   </g>
   <g id="patch_89">
    <path d="M 255.157241 448.56 
L 256.953103 448.56 
L 256.953103 345.072 
L 255.157241 345.072 
z
" clip-path="url(#p29447f5418)" style="fill: #7f7f7f; opacity: 0.5"/>
   </g>
   <g id="patch_90">
    <path d="M 257.402069 448.56 
L 259.197931 448.56 
L 259.197931 319.2 
L 257.402069 319.2 
z
" clip-path="url(#p29447f5418)" style="fill: #7f7f7f; opacity: 0.5"/>
   </g>
   <g id="patch_91">
    <path d="M 259.646897 448.56 
L 261.442759 448.56 
L 261.442759 370.944 
L 259.646897 370.944 
z
" clip-path="url(#p29447f5418)" style="fill: #7f7f7f; opacity: 0.5"/>
   </g>
   <g id="patch_92">
    <path d="M 261.891724 448.56 
L 263.687586 448.56 
L 263.687586 396.816 
L 261.891724 396.816 
z
" clip-path="url(#p29447f5418)" style="fill: #7f7f7f; opacity: 0.5"/>
   </g>
   <g id="patch_93">
    <path d="M 264.136552 448.56 
L 265.932414 448.56 
L 265.932414 396.816 
L 264.136552 396.816 
z
" clip-path="url(#p29447f5418)" style="fill: #7f7f7f; opacity: 0.5"/>
   </g>
   <g id="patch_94">
    <path d="M 266.381379 448.56 
L 268.177241 448.56 
L 268.177241 448.56 
L 266.381379 448.56 
z
" clip-path="url(#p29447f5418)" style="fill: #7f7f7f; opacity: 0.5"/>
   </g>
   <g id="patch_95">
    <path d="M 268.626207 448.56 
L 270.422069 448.56 
L 270.422069 422.688 
L 268.626207 422.688 
z
" clip-path="url(#p29447f5418)" style="fill: #7f7f7f; opacity: 0.5"/>
   </g>
   <g id="patch_96">
    <path d="M 270.871034 448.56 
L 272.666897 448.56 
L 272.666897 396.816 
L 270.871034 396.816 
z
" clip-path="url(#p29447f5418)" style="fill: #7f7f7f; opacity: 0.5"/>
   </g>
   <g id="patch_97">
    <path d="M 273.115862 448.56 
L 274.911724 448.56 
L 274.911724 370.944 
L 273.115862 370.944 
z
" clip-path="url(#p29447f5418)" style="fill: #7f7f7f; opacity: 0.5"/>
   </g>
   <g id="patch_98">
    <path d="M 275.36069 448.56 
L 277.156552 448.56 
L 277.156552 422.688 
L 275.36069 422.688 
z
" clip-path="url(#p29447f5418)" style="fill: #7f7f7f; opacity: 0.5"/>
   </g>
   <g id="patch_99">
    <path d="M 277.605517 448.56 
L 279.401379 448.56 
L 279.401379 370.944 
L 277.605517 370.944 
z
" clip-path="url(#p29447f5418)" style="fill: #7f7f7f; opacity: 0.5"/>
   </g>
   <g id="patch_100">
    <path d="M 279.850345 448.56 
L 281.646207 448.56 
L 281.646207 396.816 
L 279.850345 396.816 
z
" clip-path="url(#p29447f5418)" style="fill: #7f7f7f; opacity: 0.5"/>
   </g>
   <g id="patch_101">
    <path d="M 282.095172 448.56 
L 283.891034 448.56 
L 283.891034 448.56 
L 282.095172 448.56 
z
" clip-path="url(#p29447f5418)" style="fill: #7f7f7f; opacity: 0.5"/>
   </g>
   <g id="patch_102">
    <path d="M 284.34 448.56 
L 286.135862 448.56 
L 286.135862 448.56 
L 284.34 448.56 
z
" clip-path="url(#p29447f5418)" style="fill: #7f7f7f; opacity: 0.5"/>
   </g>
   <g id="patch_103">
    <path d="M 286.584828 448.56 
L 288.38069 448.56 
L 288.38069 422.688 
L 286.584828 422.688 
z
" clip-path="url(#p29447f5418)" style="fill: #7f7f7f; opacity: 0.5"/>
   </g>
   <g id="patch_104">
    <path d="M 288.829655 448.56 
L 290.625517 448.56 
L 290.625517 396.816 
L 288.829655 396.816 
z
" clip-path="url(#p29447f5418)" style="fill: #7f7f7f; opacity: 0.5"/>
   </g>
   <g id="patch_105">
    <path d="M 291.074483 448.56 
L 292.870345 448.56 
L 292.870345 422.688 
L 291.074483 422.688 
z
" clip-path="url(#p29447f5418)" style="fill: #7f7f7f; opacity: 0.5"/>
   </g>
   <g id="patch_106">
    <path d="M 293.31931 448.56 
L 295.115172 448.56 
L 295.115172 448.56 
L 293.31931 448.56 
z
" clip-path="url(#p29447f5418)" style="fill: #7f7f7f; opacity: 0.5"/>
   </g>
   <g id="patch_107">
    <path d="M 295.564138 448.56 
L 297.36 448.56 
L 297.36 422.688 
L 295.564138 422.688 
z
" clip-path="url(#p29447f5418)" style="fill: #7f7f7f; opacity: 0.5"/>
   </g>
   <g id="patch_108">
    <path d="M 297.808966 448.56 
L 299.604828 448.56 
L 299.604828 448.56 
L 297.808966 448.56 
z
" clip-path="url(#p29447f5418)" style="fill: #7f7f7f; opacity: 0.5"/>
   </g>
   <g id="patch_109">
    <path d="M 300.053793 448.56 
L 301.849655 448.56 
L 301.849655 422.688 
L 300.053793 422.688 
z
" clip-path="url(#p29447f5418)" style="fill: #7f7f7f; opacity: 0.5"/>
   </g>
   <g id="patch_110">
    <path d="M 302.298621 448.56 
L 304.094483 448.56 
L 304.094483 448.56 
L 302.298621 448.56 
z
" clip-path="url(#p29447f5418)" style="fill: #7f7f7f; opacity: 0.5"/>
   </g>
   <g id="patch_111">
    <path d="M 304.543448 448.56 
L 306.33931 448.56 
L 306.33931 448.56 
L 304.543448 448.56 
z
" clip-path="url(#p29447f5418)" style="fill: #7f7f7f; opacity: 0.5"/>
   </g>
   <g id="patch_112">
    <path d="M 306.788276 448.56 
L 308.584138 448.56 
L 308.584138 448.56 
L 306.788276 448.56 
z
" clip-path="url(#p29447f5418)" style="fill: #7f7f7f; opacity: 0.5"/>
   </g>
   <g id="patch_113">
    <path d="M 309.033103 448.56 
L 310.828966 448.56 
L 310.828966 422.688 
L 309.033103 422.688 
z
" clip-path="url(#p29447f5418)" style="fill: #7f7f7f; opacity: 0.5"/>
   </g>
   <g id="patch_114">
    <path d="M 311.277931 448.56 
L 313.073793 448.56 
L 313.073793 422.688 
L 311.277931 422.688 
z
" clip-path="url(#p29447f5418)" style="fill: #7f7f7f; opacity: 0.5"/>
   </g>
   <g id="patch_115">
    <path d="M 313.522759 448.56 
L 315.318621 448.56 
L 315.318621 448.56 
L 313.522759 448.56 
z
" clip-path="url(#p29447f5418)" style="fill: #7f7f7f; opacity: 0.5"/>
   </g>
   <g id="patch_116">
    <path d="M 315.767586 448.56 
L 317.563448 448.56 
L 317.563448 448.56 
L 315.767586 448.56 
z
" clip-path="url(#p29447f5418)" style="fill: #7f7f7f; opacity: 0.5"/>
   </g>
   <g id="patch_117">
    <path d="M 318.012414 448.56 
L 319.808276 448.56 
L 319.808276 448.56 
L 318.012414 448.56 
z
" clip-path="url(#p29447f5418)" style="fill: #7f7f7f; opacity: 0.5"/>
   </g>
   <g id="patch_118">
    <path d="M 320.257241 448.56 
L 322.053103 448.56 
L 322.053103 422.688 
L 320.257241 422.688 
z
" clip-path="url(#p29447f5418)" style="fill: #7f7f7f; opacity: 0.5"/>
   </g>
   <g id="patch_119">
    <path d="M 322.502069 448.56 
L 324.297931 448.56 
L 324.297931 448.56 
L 322.502069 448.56 
z
" clip-path="url(#p29447f5418)" style="fill: #7f7f7f; opacity: 0.5"/>
   </g>
   <g id="patch_120">
    <path d="M 324.746897 448.56 
L 326.542759 448.56 
L 326.542759 448.56 
L 324.746897 448.56 
z
" clip-path="url(#p29447f5418)" style="fill: #7f7f7f; opacity: 0.5"/>
   </g>
   <g id="patch_121">
    <path d="M 326.991724 448.56 
L 328.787586 448.56 
L 328.787586 448.56 
L 326.991724 448.56 
z
" clip-path="url(#p29447f5418)" style="fill: #7f7f7f; opacity: 0.5"/>
   </g>
   <g id="patch_122">
    <path d="M 329.236552 448.56 
L 331.032414 448.56 
L 331.032414 448.56 
L 329.236552 448.56 
z
" clip-path="url(#p29447f5418)" style="fill: #7f7f7f; opacity: 0.5"/>
   </g>
   <g id="patch_123">
    <path d="M 331.481379 448.56 
L 333.277241 448.56 
L 333.277241 448.56 
L 331.481379 448.56 
z
" clip-path="url(#p29447f5418)" style="fill: #7f7f7f; opacity: 0.5"/>
   </g>
   <g id="patch_124">
    <path d="M 333.726207 448.56 
L 335.522069 448.56 
L 335.522069 448.56 
L 333.726207 448.56 
z
" clip-path="url(#p29447f5418)" style="fill: #7f7f7f; opacity: 0.5"/>
   </g>
   <g id="patch_125">
    <path d="M 335.971034 448.56 
L 337.766897 448.56 
L 337.766897 448.56 
L 335.971034 448.56 
z
" clip-path="url(#p29447f5418)" style="fill: #7f7f7f; opacity: 0.5"/>
   </g>
   <g id="patch_126">
    <path d="M 338.215862 448.56 
L 340.011724 448.56 
L 340.011724 448.56 
L 338.215862 448.56 
z
" clip-path="url(#p29447f5418)" style="fill: #7f7f7f; opacity: 0.5"/>
   </g>
   <g id="patch_127">
    <path d="M 340.46069 448.56 
L 342.256552 448.56 
L 342.256552 448.56 
L 340.46069 448.56 
z
" clip-path="url(#p29447f5418)" style="fill: #7f7f7f; opacity: 0.5"/>
   </g>
   <g id="patch_128">
    <path d="M 342.705517 448.56 
L 344.501379 448.56 
L 344.501379 422.688 
L 342.705517 422.688 
z
" clip-path="url(#p29447f5418)" style="fill: #7f7f7f; opacity: 0.5"/>
   </g>
   <g id="patch_129">
    <path d="M 344.950345 448.56 
L 346.746207 448.56 
L 346.746207 448.56 
L 344.950345 448.56 
z
" clip-path="url(#p29447f5418)" style="fill: #7f7f7f; opacity: 0.5"/>
   </g>
   <g id="patch_130">
    <path d="M 347.195172 448.56 
L 348.991034 448.56 
L 348.991034 448.56 
L 347.195172 448.56 
z
" clip-path="url(#p29447f5418)" style="fill: #7f7f7f; opacity: 0.5"/>
   </g>
   <g id="patch_131">
    <path d="M 349.44 448.56 
L 351.235862 448.56 
L 351.235862 448.56 
L 349.44 448.56 
z
" clip-path="url(#p29447f5418)" style="fill: #7f7f7f; opacity: 0.5"/>
   </g>
   <g id="patch_132">
    <path d="M 351.684828 448.56 
L 353.48069 448.56 
L 353.48069 448.56 
L 351.684828 448.56 
z
" clip-path="url(#p29447f5418)" style="fill: #7f7f7f; opacity: 0.5"/>
   </g>
   <g id="patch_133">
    <path d="M 353.929655 448.56 
L 355.725517 448.56 
L 355.725517 448.56 
L 353.929655 448.56 
z
" clip-path="url(#p29447f5418)" style="fill: #7f7f7f; opacity: 0.5"/>
   </g>
   <g id="patch_134">
    <path d="M 356.174483 448.56 
L 357.970345 448.56 
L 357.970345 448.56 
L 356.174483 448.56 
z
" clip-path="url(#p29447f5418)" style="fill: #7f7f7f; opacity: 0.5"/>
   </g>
   <g id="patch_135">
    <path d="M 358.41931 448.56 
L 360.215172 448.56 
L 360.215172 422.688 
L 358.41931 422.688 
z
" clip-path="url(#p29447f5418)" style="fill: #7f7f7f; opacity: 0.5"/>
   </g>
   <g id="patch_136">
    <path d="M 360.664138 448.56 
L 362.46 448.56 
L 362.46 448.56 
L 360.664138 448.56 
z
" clip-path="url(#p29447f5418)" style="fill: #7f7f7f; opacity: 0.5"/>
   </g>
   <g id="patch_137">
    <path d="M 362.908966 448.56 
L 364.704828 448.56 
L 364.704828 448.56 
L 362.908966 448.56 
z
" clip-path="url(#p29447f5418)" style="fill: #7f7f7f; opacity: 0.5"/>
   </g>
   <g id="patch_138">
    <path d="M 365.153793 448.56 
L 366.949655 448.56 
L 366.949655 448.56 
L 365.153793 448.56 
z
" clip-path="url(#p29447f5418)" style="fill: #7f7f7f; opacity: 0.5"/>
   </g>
   <g id="patch_139">
    <path d="M 367.398621 448.56 
L 369.194483 448.56 
L 369.194483 448.56 
L 367.398621 448.56 
z
" clip-path="url(#p29447f5418)" style="fill: #7f7f7f; opacity: 0.5"/>
   </g>
   <g id="patch_140">
    <path d="M 369.643448 448.56 
L 371.43931 448.56 
L 371.43931 448.56 
L 369.643448 448.56 
z
" clip-path="url(#p29447f5418)" style="fill: #7f7f7f; opacity: 0.5"/>
   </g>
   <g id="patch_141">
    <path d="M 371.888276 448.56 
L 373.684138 448.56 
L 373.684138 448.56 
L 371.888276 448.56 
z
" clip-path="url(#p29447f5418)" style="fill: #7f7f7f; opacity: 0.5"/>
   </g>
   <g id="patch_142">
    <path d="M 374.133103 448.56 
L 375.928966 448.56 
L 375.928966 448.56 
L 374.133103 448.56 
z
" clip-path="url(#p29447f5418)" style="fill: #7f7f7f; opacity: 0.5"/>
   </g>
   <g id="patch_143">
    <path d="M 376.377931 448.56 
L 378.173793 448.56 
L 378.173793 448.56 
L 376.377931 448.56 
z
" clip-path="url(#p29447f5418)" style="fill: #7f7f7f; opacity: 0.5"/>
   </g>
   <g id="patch_144">
    <path d="M 378.622759 448.56 
L 380.418621 448.56 
L 380.418621 448.56 
L 378.622759 448.56 
z
" clip-path="url(#p29447f5418)" style="fill: #7f7f7f; opacity: 0.5"/>
   </g>
   <g id="patch_145">
    <path d="M 380.867586 448.56 
L 382.663448 448.56 
L 382.663448 448.56 
L 380.867586 448.56 
z
" clip-path="url(#p29447f5418)" style="fill: #7f7f7f; opacity: 0.5"/>
   </g>
   <g id="patch_146">
    <path d="M 383.112414 448.56 
L 384.908276 448.56 
L 384.908276 448.56 
L 383.112414 448.56 
z
" clip-path="url(#p29447f5418)" style="fill: #7f7f7f; opacity: 0.5"/>
   </g>
   <g id="patch_147">
    <path d="M 385.357241 448.56 
L 387.153103 448.56 
L 387.153103 448.56 
L 385.357241 448.56 
z
" clip-path="url(#p29447f5418)" style="fill: #7f7f7f; opacity: 0.5"/>
   </g>
   <g id="patch_148">
    <path d="M 387.602069 448.56 
L 389.397931 448.56 
L 389.397931 448.56 
L 387.602069 448.56 
z
" clip-path="url(#p29447f5418)" style="fill: #7f7f7f; opacity: 0.5"/>
   </g>
   <g id="patch_149">
    <path d="M 389.846897 448.56 
L 391.642759 448.56 
L 391.642759 448.56 
L 389.846897 448.56 
z
" clip-path="url(#p29447f5418)" style="fill: #7f7f7f; opacity: 0.5"/>
   </g>
   <g id="patch_150">
    <path d="M 392.091724 448.56 
L 393.887586 448.56 
L 393.887586 448.56 
L 392.091724 448.56 
z
" clip-path="url(#p29447f5418)" style="fill: #7f7f7f; opacity: 0.5"/>
   </g>
   <g id="patch_151">
    <path d="M 394.336552 448.56 
L 396.132414 448.56 
L 396.132414 448.56 
L 394.336552 448.56 
z
" clip-path="url(#p29447f5418)" style="fill: #7f7f7f; opacity: 0.5"/>
   </g>
   <g id="patch_152">
    <path d="M 396.581379 448.56 
L 398.377241 448.56 
L 398.377241 448.56 
L 396.581379 448.56 
z
" clip-path="url(#p29447f5418)" style="fill: #7f7f7f; opacity: 0.5"/>
   </g>
   <g id="patch_153">
    <path d="M 398.826207 448.56 
L 400.622069 448.56 
L 400.622069 448.56 
L 398.826207 448.56 
z
" clip-path="url(#p29447f5418)" style="fill: #7f7f7f; opacity: 0.5"/>
   </g>
   <g id="patch_154">
    <path d="M 401.071034 448.56 
L 402.866897 448.56 
L 402.866897 448.56 
L 401.071034 448.56 
z
" clip-path="url(#p29447f5418)" style="fill: #7f7f7f; opacity: 0.5"/>
   </g>
   <g id="patch_155">
    <path d="M 403.315862 448.56 
L 405.111724 448.56 
L 405.111724 448.56 
L 403.315862 448.56 
z
" clip-path="url(#p29447f5418)" style="fill: #7f7f7f; opacity: 0.5"/>
   </g>
   <g id="patch_156">
    <path d="M 405.56069 448.56 
L 407.356552 448.56 
L 407.356552 448.56 
L 405.56069 448.56 
z
" clip-path="url(#p29447f5418)" style="fill: #7f7f7f; opacity: 0.5"/>
   </g>
   <g id="patch_157">
    <path d="M 407.805517 448.56 
L 409.601379 448.56 
L 409.601379 448.56 
L 407.805517 448.56 
z
" clip-path="url(#p29447f5418)" style="fill: #7f7f7f; opacity: 0.5"/>
   </g>
   <g id="patch_158">
    <path d="M 410.050345 448.56 
L 411.846207 448.56 
L 411.846207 448.56 
L 410.050345 448.56 
z
" clip-path="url(#p29447f5418)" style="fill: #7f7f7f; opacity: 0.5"/>
   </g>
   <g id="patch_159">
    <path d="M 412.295172 448.56 
L 414.091034 448.56 
L 414.091034 448.56 
L 412.295172 448.56 
z
" clip-path="url(#p29447f5418)" style="fill: #7f7f7f; opacity: 0.5"/>
   </g>
   <g id="patch_160">
    <path d="M 414.54 448.56 
L 416.335862 448.56 
L 416.335862 448.56 
L 414.54 448.56 
z
" clip-path="url(#p29447f5418)" style="fill: #7f7f7f; opacity: 0.5"/>
   </g>
   <g id="patch_161">
    <path d="M 416.784828 448.56 
L 418.58069 448.56 
L 418.58069 448.56 
L 416.784828 448.56 
z
" clip-path="url(#p29447f5418)" style="fill: #7f7f7f; opacity: 0.5"/>
   </g>
   <g id="patch_162">
    <path d="M 419.029655 448.56 
L 420.825517 448.56 
L 420.825517 448.56 
L 419.029655 448.56 
z
" clip-path="url(#p29447f5418)" style="fill: #7f7f7f; opacity: 0.5"/>
   </g>
   <g id="patch_163">
    <path d="M 421.274483 448.56 
L 423.070345 448.56 
L 423.070345 448.56 
L 421.274483 448.56 
z
" clip-path="url(#p29447f5418)" style="fill: #7f7f7f; opacity: 0.5"/>
   </g>
   <g id="patch_164">
    <path d="M 423.51931 448.56 
L 425.315172 448.56 
L 425.315172 448.56 
L 423.51931 448.56 
z
" clip-path="url(#p29447f5418)" style="fill: #7f7f7f; opacity: 0.5"/>
   </g>
   <g id="patch_165">
    <path d="M 425.764138 448.56 
L 427.56 448.56 
L 427.56 448.56 
L 425.764138 448.56 
z
" clip-path="url(#p29447f5418)" style="fill: #7f7f7f; opacity: 0.5"/>
   </g>
   <g id="patch_166">
    <path d="M 428.008966 448.56 
L 429.804828 448.56 
L 429.804828 448.56 
L 428.008966 448.56 
z
" clip-path="url(#p29447f5418)" style="fill: #7f7f7f; opacity: 0.5"/>
   </g>
   <g id="patch_167">
    <path d="M 430.253793 448.56 
L 432.049655 448.56 
L 432.049655 448.56 
L 430.253793 448.56 
z
" clip-path="url(#p29447f5418)" style="fill: #7f7f7f; opacity: 0.5"/>
   </g>
   <g id="patch_168">
    <path d="M 432.498621 448.56 
L 434.294483 448.56 
L 434.294483 448.56 
L 432.498621 448.56 
z
" clip-path="url(#p29447f5418)" style="fill: #7f7f7f; opacity: 0.5"/>
   </g>
   <g id="patch_169">
    <path d="M 434.743448 448.56 
L 436.53931 448.56 
L 436.53931 448.56 
L 434.743448 448.56 
z
" clip-path="url(#p29447f5418)" style="fill: #7f7f7f; opacity: 0.5"/>
   </g>
   <g id="patch_170">
    <path d="M 436.988276 448.56 
L 438.784138 448.56 
L 438.784138 448.56 
L 436.988276 448.56 
z
" clip-path="url(#p29447f5418)" style="fill: #7f7f7f; opacity: 0.5"/>
   </g>
   <g id="patch_171">
    <path d="M 439.233103 448.56 
L 441.028966 448.56 
L 441.028966 448.56 
L 439.233103 448.56 
z
" clip-path="url(#p29447f5418)" style="fill: #7f7f7f; opacity: 0.5"/>
   </g>
   <g id="patch_172">
    <path d="M 441.477931 448.56 
L 443.273793 448.56 
L 443.273793 448.56 
L 441.477931 448.56 
z
" clip-path="url(#p29447f5418)" style="fill: #7f7f7f; opacity: 0.5"/>
   </g>
   <g id="patch_173">
    <path d="M 443.722759 448.56 
L 445.518621 448.56 
L 445.518621 448.56 
L 443.722759 448.56 
z
" clip-path="url(#p29447f5418)" style="fill: #7f7f7f; opacity: 0.5"/>
   </g>
   <g id="patch_174">
    <path d="M 445.967586 448.56 
L 447.763448 448.56 
L 447.763448 448.56 
L 445.967586 448.56 
z
" clip-path="url(#p29447f5418)" style="fill: #7f7f7f; opacity: 0.5"/>
   </g>
   <g id="patch_175">
    <path d="M 448.212414 448.56 
L 450.008276 448.56 
L 450.008276 448.56 
L 448.212414 448.56 
z
" clip-path="url(#p29447f5418)" style="fill: #7f7f7f; opacity: 0.5"/>
   </g>
   <g id="patch_176">
    <path d="M 450.457241 448.56 
L 452.253103 448.56 
L 452.253103 448.56 
L 450.457241 448.56 
z
" clip-path="url(#p29447f5418)" style="fill: #7f7f7f; opacity: 0.5"/>
   </g>
   <g id="patch_177">
    <path d="M 452.702069 448.56 
L 454.497931 448.56 
L 454.497931 448.56 
L 452.702069 448.56 
z
" clip-path="url(#p29447f5418)" style="fill: #7f7f7f; opacity: 0.5"/>
   </g>
   <g id="patch_178">
    <path d="M 453.6 448.56 
L 453.6 60.48 
" style="fill: none; stroke: #7f7f7f; stroke-width: 0.8; stroke-linejoin: miter; stroke-linecap: square"/>
   </g>
  </g>
  <g id="axes_2">
   <g id="FillBetweenPolyCollection_1">
    <defs>
     <path id="m16ceece5ea" d="M 63 -418.258988 
L 63 -92.686446 
L 65.244828 -96.443438 
L 67.489655 -98.060485 
L 69.734483 -95.784895 
L 71.97931 -94.960078 
L 74.224138 -93.715813 
L 76.468966 -91.962199 
L 78.713793 -90.637094 
L 80.958621 -89.93713 
L 83.203448 -89.604313 
L 85.448276 -87.835861 
L 87.693103 -86.774037 
L 89.937931 -86.235942 
L 92.182759 -85.605588 
L 94.427586 -85.46564 
L 96.672414 -85.791283 
L 98.917241 -85.771429 
L 101.162069 -86.563315 
L 103.406897 -87.590357 
L 105.651724 -88.721698 
L 107.896552 -89.497721 
L 110.141379 -90.709141 
L 112.386207 -92.693924 
L 114.631034 -94.083447 
L 116.875862 -95.094243 
L 119.12069 -96.264195 
L 121.365517 -98.168362 
L 123.610345 -98.630232 
L 125.855172 -100.05357 
L 128.1 -100.979741 
L 130.344828 -101.653355 
L 132.589655 -102.856113 
L 134.834483 -103.453605 
L 137.07931 -103.54862 
L 139.324138 -105.875846 
L 141.568966 -107.117362 
L 143.813793 -111.225255 
L 146.058621 -116.002998 
L 148.303448 -118.1319 
L 150.548276 -117.661283 
L 152.793103 -118.15119 
L 155.037931 -118.025217 
L 157.282759 -119.177335 
L 159.527586 -120.809908 
L 161.772414 -119.692745 
L 164.017241 -121.990734 
L 166.262069 -124.847302 
L 168.506897 -131.15093 
L 170.751724 -133.945204 
L 172.996552 -135.314517 
L 175.241379 -137.663715 
L 177.486207 -144.274277 
L 179.731034 -149.654879 
L 181.975862 -158.319864 
L 184.22069 -154.24954 
L 186.465517 -151.271024 
L 188.710345 -139.408628 
L 190.955172 -129.746245 
L 193.2 -122.411696 
L 195.444828 -115.859079 
L 197.689655 -105.110761 
L 199.934483 -99.854708 
L 202.17931 -100.030021 
L 204.424138 -95.965819 
L 206.668966 -95.999277 
L 208.913793 -97.16252 
L 211.158621 -104.554655 
L 213.403448 -108.623897 
L 215.648276 -111.239732 
L 217.893103 -113.593578 
L 220.137931 -118.75351 
L 222.382759 -124.1497 
L 224.627586 -123.431616 
L 226.872414 -117.074641 
L 229.117241 -114.14578 
L 231.362069 -106.063369 
L 233.606897 -108.225658 
L 235.851724 -100.815932 
L 238.096552 -90.278158 
L 240.341379 -83.849848 
L 242.586207 -80.553197 
L 244.831034 -80.904382 
L 247.075862 -83.089512 
L 249.32069 -85.206311 
L 251.565517 -81.754555 
L 253.810345 -79.283933 
L 256.055172 -75.305086 
L 258.3 -72.396168 
L 260.544828 -69.64688 
L 262.789655 -67.502802 
L 265.034483 -65.934343 
L 267.27931 -64.806603 
L 269.524138 -64.440731 
L 271.768966 -64.359926 
L 274.013793 -64.273899 
L 276.258621 -63.955729 
L 278.503448 -63.713826 
L 280.748276 -63.10448 
L 282.993103 -62.452607 
L 285.237931 -62.049784 
L 287.482759 -61.9807 
L 289.727586 -61.76668 
L 291.972414 -61.338184 
L 294.217241 -60.811786 
L 296.462069 -60.487578 
L 298.706897 -60.08082 
L 300.951724 -59.797651 
L 303.196552 -59.373314 
L 305.441379 -59.194632 
L 307.686207 -58.975127 
L 309.931034 -58.876095 
L 312.175862 -58.613934 
L 314.42069 -58.261352 
L 316.665517 -58.011708 
L 318.910345 -57.846642 
L 321.155172 -57.714115 
L 323.4 -57.452945 
L 325.644828 -57.104521 
L 327.889655 -56.932935 
L 330.134483 -56.806072 
L 332.37931 -56.70437 
L 334.624138 -56.737381 
L 336.868966 -56.715012 
L 339.113793 -56.865186 
L 341.358621 -57.012593 
L 343.603448 -57.219701 
L 345.848276 -56.995844 
L 348.093103 -56.887316 
L 350.337931 -56.775373 
L 352.582759 -56.723986 
L 354.827586 -56.734379 
L 357.072414 -56.786886 
L 359.317241 -56.817156 
L 361.562069 -56.437438 
L 363.806897 -56.061876 
L 366.051724 -55.680464 
L 368.296552 -55.453827 
L 370.541379 -55.440357 
L 372.786207 -55.440012 
L 375.031034 -55.440003 
L 377.275862 -55.440002 
L 379.52069 -55.440002 
L 381.765517 -55.440001 
L 384.010345 -55.440001 
L 386.255172 -55.440001 
L 388.5 -55.440001 
L 390.744828 -55.440001 
L 392.989655 -55.440001 
L 395.234483 -55.440001 
L 397.47931 -55.440001 
L 399.724138 -55.440001 
L 401.968966 -55.44 
L 404.213793 -55.44 
L 406.458621 -55.44 
L 408.703448 -55.44 
L 410.948276 -55.44 
L 413.193103 -55.44 
L 415.437931 -55.44 
L 417.682759 -55.44 
L 419.927586 -55.44 
L 422.172414 -55.44 
L 424.417241 -55.44 
L 426.662069 -55.44 
L 428.906897 -55.44 
L 431.151724 -55.44 
L 433.396552 -55.44 
L 435.641379 -55.44 
L 437.886207 -55.44 
L 440.131034 -55.44 
L 442.375862 -55.44 
L 444.62069 -55.44 
L 446.865517 -55.44 
L 449.110345 -55.44 
L 451.355172 -55.44 
L 453.6 -55.44 
L 453.6 -71.366783 
L 453.6 -71.366783 
L 451.355172 -71.213886 
L 449.110345 -71.952246 
L 446.865517 -71.698952 
L 444.62069 -72.089702 
L 442.375862 -72.406792 
L 440.131034 -72.524903 
L 437.886207 -72.755525 
L 435.641379 -72.649897 
L 433.396552 -73.179594 
L 431.151724 -73.209609 
L 428.906897 -73.362978 
L 426.662069 -73.046203 
L 424.417241 -73.607041 
L 422.172414 -73.95843 
L 419.927586 -74.352452 
L 417.682759 -74.624162 
L 415.437931 -74.714609 
L 413.193103 -74.571757 
L 410.948276 -74.619066 
L 408.703448 -75.186282 
L 406.458621 -75.05813 
L 404.213793 -75.191136 
L 401.968966 -75.249602 
L 399.724138 -75.400589 
L 397.47931 -75.370171 
L 395.234483 -75.391394 
L 392.989655 -75.721927 
L 390.744828 -76.110203 
L 388.5 -76.17746 
L 386.255172 -76.804156 
L 384.010345 -77.144804 
L 381.765517 -77.471853 
L 379.52069 -77.765221 
L 377.275862 -78.338533 
L 375.031034 -78.824679 
L 372.786207 -79.387513 
L 370.541379 -79.873233 
L 368.296552 -80.589118 
L 366.051724 -81.400642 
L 363.806897 -82.107139 
L 361.562069 -82.554221 
L 359.317241 -83.59088 
L 357.072414 -83.257878 
L 354.827586 -82.734934 
L 352.582759 -82.147468 
L 350.337931 -81.515546 
L 348.093103 -81.089682 
L 345.848276 -81.074247 
L 343.603448 -81.17428 
L 341.358621 -80.116042 
L 339.113793 -78.84726 
L 336.868966 -77.889681 
L 334.624138 -77.025905 
L 332.37931 -76.243591 
L 330.134483 -75.881405 
L 327.889655 -75.60262 
L 325.644828 -75.768491 
L 323.4 -75.753132 
L 321.155172 -75.929259 
L 318.910345 -75.472092 
L 316.665517 -75.362811 
L 314.42069 -75.166243 
L 312.175862 -75.718446 
L 309.931034 -75.620805 
L 307.686207 -75.131828 
L 305.441379 -74.907908 
L 303.196552 -74.935511 
L 300.951724 -75.361863 
L 298.706897 -75.366574 
L 296.462069 -75.935804 
L 294.217241 -76.294358 
L 291.972414 -76.61184 
L 289.727586 -77.492831 
L 287.482759 -77.08152 
L 285.237931 -76.699839 
L 282.993103 -77.260489 
L 280.748276 -78.473089 
L 278.503448 -79.667222 
L 276.258621 -79.508899 
L 274.013793 -80.203998 
L 271.768966 -79.902612 
L 269.524138 -79.516832 
L 267.27931 -79.926267 
L 265.034483 -82.062317 
L 262.789655 -85.231492 
L 260.544828 -89.401792 
L 258.3 -94.645621 
L 256.055172 -99.536308 
L 253.810345 -107.452975 
L 251.565517 -111.785963 
L 249.32069 -118.998285 
L 247.075862 -114.068998 
L 244.831034 -110.367429 
L 242.586207 -110.199366 
L 240.341379 -116.632155 
L 238.096552 -128.609837 
L 235.851724 -149.835577 
L 233.606897 -165.527648 
L 231.362069 -159.354413 
L 229.117241 -175.466201 
L 226.872414 -180.28391 
L 224.627586 -193.733807 
L 222.382759 -196.622096 
L 220.137931 -187.106248 
L 217.893103 -177.898666 
L 215.648276 -173.249013 
L 213.403448 -167.77666 
L 211.158621 -161.832451 
L 208.913793 -148.237251 
L 206.668966 -146.141426 
L 204.424138 -148.510698 
L 202.17931 -158.862039 
L 199.934483 -159.532757 
L 197.689655 -172.434709 
L 195.444828 -196.174401 
L 193.2 -213.838922 
L 190.955172 -231.113091 
L 188.710345 -257.032212 
L 186.465517 -287.453341 
L 184.22069 -295.875091 
L 181.975862 -307.761312 
L 179.731034 -293.388149 
L 177.486207 -284.014895 
L 175.241379 -269.614982 
L 172.996552 -270.185716 
L 170.751724 -270.242759 
L 168.506897 -267.79488 
L 166.262069 -254.280622 
L 164.017241 -247.974843 
L 161.772414 -248.58821 
L 159.527586 -256.023103 
L 157.282759 -253.470803 
L 155.037931 -252.959452 
L 152.793103 -255.278577 
L 150.548276 -258.162036 
L 148.303448 -261.104873 
L 146.058621 -258.405809 
L 143.813793 -245.654368 
L 141.568966 -240.513289 
L 139.324138 -239.161195 
L 137.07931 -237.070245 
L 134.834483 -239.709752 
L 132.589655 -239.650804 
L 130.344828 -240.671045 
L 128.1 -241.470841 
L 125.855172 -239.518682 
L 123.610345 -233.772612 
L 121.365517 -230.018546 
L 119.12069 -226.02275 
L 116.875862 -221.454682 
L 114.631034 -215.24547 
L 112.386207 -209.776913 
L 110.141379 -202.123488 
L 107.896552 -195.210673 
L 105.651724 -191.584533 
L 103.406897 -184.117997 
L 101.162069 -180.135631 
L 98.917241 -178.07815 
L 96.672414 -175.178806 
L 94.427586 -175.99647 
L 92.182759 -179.877382 
L 89.937931 -185.504399 
L 87.693103 -193.418448 
L 85.448276 -204.08359 
L 83.203448 -219.903691 
L 80.958621 -236.689597 
L 78.713793 -258.330047 
L 76.468966 -285.242792 
L 74.224138 -310.708237 
L 71.97931 -348.441977 
L 69.734483 -380.838517 
L 67.489655 -416.390934 
L 65.244828 -425.04 
L 63 -418.258988 
z
" style="stroke: #0173b2; stroke-opacity: 0.2"/>
    </defs>
    <g clip-path="url(#p29447f5418)">
     <use xlink:href="#m16ceece5ea" x="0" y="504" style="fill: #0173b2; fill-opacity: 0.2; stroke: #0173b2; stroke-opacity: 0.2"/>
    </g>
   </g>
   <g id="FillBetweenPolyCollection_2">
    <defs>
     <path id="ma9b4458b8b" d="M 63 -343.145411 
L 63 -85.366343 
L 65.244828 -86.720838 
L 67.489655 -88.343616 
L 69.734483 -86.901376 
L 71.97931 -84.825384 
L 74.224138 -83.755742 
L 76.468966 -82.271186 
L 78.713793 -81.940489 
L 80.958621 -80.896534 
L 83.203448 -80.521029 
L 85.448276 -79.352455 
L 87.693103 -78.67058 
L 89.937931 -78.446022 
L 92.182759 -78.246121 
L 94.427586 -78.975673 
L 96.672414 -79.253819 
L 98.917241 -80.300948 
L 101.162069 -81.958593 
L 103.406897 -83.266329 
L 105.651724 -84.906647 
L 107.896552 -87.443732 
L 110.141379 -88.891269 
L 112.386207 -91.55142 
L 114.631034 -93.521121 
L 116.875862 -95.998629 
L 119.12069 -96.704566 
L 121.365517 -98.262669 
L 123.610345 -100.32161 
L 125.855172 -103.020698 
L 128.1 -103.712306 
L 130.344828 -104.67907 
L 132.589655 -106.468495 
L 134.834483 -106.572711 
L 137.07931 -106.198971 
L 139.324138 -107.390662 
L 141.568966 -108.222305 
L 143.813793 -110.264894 
L 146.058621 -115.330242 
L 148.303448 -116.623334 
L 150.548276 -114.911759 
L 152.793103 -114.887835 
L 155.037931 -115.208004 
L 157.282759 -115.746264 
L 159.527586 -119.169258 
L 161.772414 -117.967167 
L 164.017241 -120.041825 
L 166.262069 -124.553242 
L 168.506897 -133.074587 
L 170.751724 -137.265412 
L 172.996552 -139.536495 
L 175.241379 -144.736048 
L 177.486207 -153.651381 
L 179.731034 -161.478949 
L 181.975862 -169.76226 
L 184.22069 -164.945486 
L 186.465517 -160.818316 
L 188.710345 -146.744957 
L 190.955172 -136.163439 
L 193.2 -125.635123 
L 195.444828 -116.519133 
L 197.689655 -104.83106 
L 199.934483 -98.5886 
L 202.17931 -98.409106 
L 204.424138 -94.927852 
L 206.668966 -94.703888 
L 208.913793 -96.090136 
L 211.158621 -103.897505 
L 213.403448 -108.672005 
L 215.648276 -111.963839 
L 217.893103 -115.427632 
L 220.137931 -121.390483 
L 222.382759 -128.035319 
L 224.627586 -125.945616 
L 226.872414 -120.258515 
L 229.117241 -117.946273 
L 231.362069 -108.980159 
L 233.606897 -110.168789 
L 235.851724 -103.267769 
L 238.096552 -91.52629 
L 240.341379 -84.925051 
L 242.586207 -81.327763 
L 244.831034 -81.091103 
L 247.075862 -83.520966 
L 249.32069 -85.383065 
L 251.565517 -81.897579 
L 253.810345 -79.25128 
L 256.055172 -74.855814 
L 258.3 -72.02807 
L 260.544828 -69.338615 
L 262.789655 -67.473295 
L 265.034483 -65.7364 
L 267.27931 -64.833275 
L 269.524138 -64.329799 
L 271.768966 -64.246837 
L 274.013793 -64.18905 
L 276.258621 -63.819632 
L 278.503448 -63.633618 
L 280.748276 -63.014553 
L 282.993103 -62.42949 
L 285.237931 -61.935245 
L 287.482759 -61.843946 
L 289.727586 -61.670349 
L 291.972414 -61.161784 
L 294.217241 -60.635857 
L 296.462069 -60.344663 
L 298.706897 -59.993634 
L 300.951724 -59.74226 
L 303.196552 -59.311099 
L 305.441379 -59.011875 
L 307.686207 -58.840039 
L 309.931034 -58.714282 
L 312.175862 -58.37432 
L 314.42069 -58.082432 
L 316.665517 -57.836411 
L 318.910345 -57.693678 
L 321.155172 -57.523428 
L 323.4 -57.282962 
L 325.644828 -56.827705 
L 327.889655 -56.680841 
L 330.134483 -56.621709 
L 332.37931 -56.515544 
L 334.624138 -56.526468 
L 336.868966 -56.492747 
L 339.113793 -56.712962 
L 341.358621 -56.755786 
L 343.603448 -56.888439 
L 345.848276 -56.882191 
L 348.093103 -56.708637 
L 350.337931 -56.696914 
L 352.582759 -56.588223 
L 354.827586 -56.479467 
L 357.072414 -56.600202 
L 359.317241 -56.594958 
L 361.562069 -56.288503 
L 363.806897 -55.97887 
L 366.051724 -55.618733 
L 368.296552 -55.44893 
L 370.541379 -55.440178 
L 372.786207 -55.440007 
L 375.031034 -55.440002 
L 377.275862 -55.440002 
L 379.52069 -55.440001 
L 381.765517 -55.440001 
L 384.010345 -55.440001 
L 386.255172 -55.440001 
L 388.5 -55.440001 
L 390.744828 -55.440001 
L 392.989655 -55.440001 
L 395.234483 -55.440001 
L 397.47931 -55.440001 
L 399.724138 -55.44 
L 401.968966 -55.44 
L 404.213793 -55.44 
L 406.458621 -55.44 
L 408.703448 -55.44 
L 410.948276 -55.44 
L 413.193103 -55.44 
L 415.437931 -55.44 
L 417.682759 -55.44 
L 419.927586 -55.44 
L 422.172414 -55.44 
L 424.417241 -55.44 
L 426.662069 -55.44 
L 428.906897 -55.44 
L 431.151724 -55.44 
L 433.396552 -55.44 
L 435.641379 -55.44 
L 437.886207 -55.44 
L 440.131034 -55.44 
L 442.375862 -55.44 
L 444.62069 -55.44 
L 446.865517 -55.44 
L 449.110345 -55.44 
L 451.355172 -55.44 
L 453.6 -55.44 
L 453.6 -70.449211 
L 453.6 -70.449211 
L 451.355172 -70.551003 
L 449.110345 -70.764263 
L 446.865517 -71.34851 
L 444.62069 -71.276 
L 442.375862 -71.43097 
L 440.131034 -71.954475 
L 437.886207 -72.850161 
L 435.641379 -73.249144 
L 433.396552 -73.964979 
L 431.151724 -73.185659 
L 428.906897 -73.228943 
L 426.662069 -74.621073 
L 424.417241 -74.138255 
L 422.172414 -74.220443 
L 419.927586 -73.898336 
L 417.682759 -74.673011 
L 415.437931 -74.078282 
L 413.193103 -74.651672 
L 410.948276 -74.590374 
L 408.703448 -74.724031 
L 406.458621 -75.271425 
L 404.213793 -75.831175 
L 401.968966 -75.137468 
L 399.724138 -75.195193 
L 397.47931 -75.489022 
L 395.234483 -74.858641 
L 392.989655 -75.496676 
L 390.744828 -75.505806 
L 388.5 -75.671868 
L 386.255172 -76.143449 
L 384.010345 -76.268535 
L 381.765517 -77.491154 
L 379.52069 -77.710615 
L 377.275862 -78.566645 
L 375.031034 -78.364221 
L 372.786207 -79.763013 
L 370.541379 -79.998321 
L 368.296552 -81.286721 
L 366.051724 -82.573805 
L 363.806897 -83.786406 
L 361.562069 -84.974464 
L 359.317241 -84.216588 
L 357.072414 -83.745 
L 354.827586 -82.291683 
L 352.582759 -83.13065 
L 350.337931 -82.790424 
L 348.093103 -82.555653 
L 345.848276 -80.289776 
L 343.603448 -80.913299 
L 341.358621 -78.949719 
L 339.113793 -77.663847 
L 336.868966 -77.566334 
L 334.624138 -76.706923 
L 332.37931 -75.851139 
L 330.134483 -75.593054 
L 327.889655 -75.587108 
L 325.644828 -74.493426 
L 323.4 -74.780123 
L 321.155172 -75.370193 
L 318.910345 -74.904565 
L 316.665517 -74.567794 
L 314.42069 -74.182762 
L 312.175862 -74.996713 
L 309.931034 -74.734821 
L 307.686207 -74.402182 
L 305.441379 -74.200704 
L 303.196552 -74.00667 
L 300.951724 -74.227697 
L 298.706897 -74.690892 
L 296.462069 -75.102446 
L 294.217241 -75.750504 
L 291.972414 -76.228215 
L 289.727586 -76.714514 
L 287.482759 -75.978963 
L 285.237931 -76.074271 
L 282.993103 -76.860482 
L 280.748276 -77.676792 
L 278.503448 -78.64246 
L 276.258621 -78.268647 
L 274.013793 -79.115855 
L 271.768966 -79.17488 
L 269.524138 -78.696447 
L 267.27931 -79.136248 
L 265.034483 -81.75948 
L 262.789655 -84.839251 
L 260.544828 -88.902753 
L 258.3 -93.886478 
L 256.055172 -99.136958 
L 253.810345 -105.750732 
L 251.565517 -110.784946 
L 249.32069 -117.383195 
L 247.075862 -113.75652 
L 244.831034 -110.241079 
L 242.586207 -109.681811 
L 240.341379 -116.682572 
L 238.096552 -129.83786 
L 235.851724 -149.310046 
L 233.606897 -167.31287 
L 231.362069 -160.507356 
L 229.117241 -177.339272 
L 226.872414 -182.45224 
L 224.627586 -195.833851 
L 222.382759 -195.608337 
L 220.137931 -185.813565 
L 217.893103 -173.947513 
L 215.648276 -167.557359 
L 213.403448 -164.075121 
L 211.158621 -158.125923 
L 208.913793 -143.145928 
L 206.668966 -139.364431 
L 204.424138 -143.70444 
L 202.17931 -152.691673 
L 199.934483 -153.725701 
L 197.689655 -165.504254 
L 195.444828 -191.143152 
L 193.2 -209.24192 
L 190.955172 -227.751806 
L 188.710345 -258.989752 
L 186.465517 -292.461191 
L 184.22069 -302.772351 
L 181.975862 -310.631399 
L 179.731034 -298.340768 
L 177.486207 -281.170165 
L 175.241379 -268.138028 
L 172.996552 -266.518584 
L 170.751724 -260.214676 
L 168.506897 -255.109994 
L 166.262069 -243.412564 
L 164.017241 -233.585515 
L 161.772414 -229.826978 
L 159.527586 -241.843133 
L 157.282759 -242.350554 
L 155.037931 -237.699007 
L 152.793103 -241.127873 
L 150.548276 -244.33485 
L 148.303448 -249.144743 
L 146.058621 -248.5475 
L 143.813793 -243.04492 
L 141.568966 -239.196976 
L 139.324138 -238.053422 
L 137.07931 -238.88038 
L 134.834483 -248.079795 
L 132.589655 -253.816006 
L 130.344828 -253.279912 
L 128.1 -257.368433 
L 125.855172 -257.468058 
L 123.610345 -259.391022 
L 121.365517 -254.850821 
L 119.12069 -245.41563 
L 116.875862 -237.284458 
L 114.631034 -223.673548 
L 112.386207 -211.081564 
L 110.141379 -199.785607 
L 107.896552 -189.155349 
L 105.651724 -179.746895 
L 103.406897 -169.580615 
L 101.162069 -163.320129 
L 98.917241 -160.086857 
L 96.672414 -155.654938 
L 94.427586 -152.858066 
L 92.182759 -154.294486 
L 89.937931 -155.580397 
L 87.693103 -161.140725 
L 85.448276 -171.126394 
L 83.203448 -179.969087 
L 80.958621 -194.361833 
L 78.713793 -210.735191 
L 76.468966 -232.17239 
L 74.224138 -255.215887 
L 71.97931 -274.780369 
L 69.734483 -302.416207 
L 67.489655 -331.60867 
L 65.244828 -349.757267 
L 63 -343.145411 
z
" style="stroke: #e377c2; stroke-opacity: 0.2"/>
    </defs>
    <g clip-path="url(#p29447f5418)">
     <use xlink:href="#ma9b4458b8b" x="0" y="504" style="fill: #e377c2; fill-opacity: 0.2; stroke: #e377c2; stroke-opacity: 0.2"/>
    </g>
   </g>
   <g id="matplotlib.axis_2">
    <g id="xtick_1">
     <g id="line2d_9">
      <defs>
       <path id="mc22da00a59" d="M 0 0 
L 0 3.5 
" style="stroke: #000000; stroke-width: 0.8"/>
      </defs>
      <g>
       <use xlink:href="#mc22da00a59" x="74.224138" y="448.56" style="stroke: #000000; stroke-width: 0.8"/>
      </g>
     </g>
     <g id="text_10">
      <text style="font-size: 16px; font-family: 'Arial', sans-serif; text-anchor: middle" x="74.224138" y="467.208438" transform="rotate(-0 74.224138 467.208438)">1 Jul</text>
     </g>
    </g>
    <g id="xtick_2">
     <g id="line2d_10">
      <g>
       <use xlink:href="#mc22da00a59" x="143.813793" y="448.56" style="stroke: #000000; stroke-width: 0.8"/>
      </g>
     </g>
     <g id="text_11">
      <text style="font-size: 16px; font-family: 'Arial', sans-serif; text-anchor: middle" x="143.813793" y="467.208438" transform="rotate(-0 143.813793 467.208438)">1 Aug</text>
     </g>
    </g>
    <g id="xtick_3">
     <g id="line2d_11">
      <g>
       <use xlink:href="#mc22da00a59" x="213.403448" y="448.56" style="stroke: #000000; stroke-width: 0.8"/>
      </g>
     </g>
     <g id="text_12">
      <text style="font-size: 16px; font-family: 'Arial', sans-serif; text-anchor: middle" x="213.403448" y="467.208438" transform="rotate(-0 213.403448 467.208438)">1 Sep</text>
     </g>
    </g>
    <g id="xtick_4">
     <g id="line2d_12">
      <g>
       <use xlink:href="#mc22da00a59" x="280.748276" y="448.56" style="stroke: #000000; stroke-width: 0.8"/>
      </g>
     </g>
     <g id="text_13">
      <text style="font-size: 16px; font-family: 'Arial', sans-serif; text-anchor: middle" x="280.748276" y="467.2175" transform="rotate(-0 280.748276 467.2175)">1 Oct</text>
     </g>
    </g>
    <g id="xtick_5">
     <g id="line2d_13">
      <g>
       <use xlink:href="#mc22da00a59" x="350.337931" y="448.56" style="stroke: #000000; stroke-width: 0.8"/>
      </g>
     </g>
     <g id="text_14">
      <text style="font-size: 16px; font-family: 'Arial', sans-serif; text-anchor: middle" x="350.337931" y="467.208438" transform="rotate(-0 350.337931 467.208438)">1 Nov</text>
     </g>
    </g>
    <g id="xtick_6">
     <g id="line2d_14">
      <g>
       <use xlink:href="#mc22da00a59" x="417.682759" y="448.56" style="stroke: #000000; stroke-width: 0.8"/>
      </g>
     </g>
     <g id="text_15">
      <text style="font-size: 16px; font-family: 'Arial', sans-serif; text-anchor: middle" x="417.682759" y="467.208438" transform="rotate(-0 417.682759 467.208438)">1 Dec</text>
     </g>
    </g>
    <g id="text_16">
     <text style="font-size: 16px; font-family: 'Arial', sans-serif; text-anchor: middle" x="258.3" y="486.233125" transform="rotate(-0 258.3 486.233125)">Date (2017)</text>
    </g>
   </g>
   <g id="matplotlib.axis_3">
    <g id="ytick_9">
     <g id="line2d_15">
      <defs>
       <path id="m2408b05735" d="M 0 0 
L -3.5 0 
" style="stroke: #000000; stroke-width: 0.8"/>
      </defs>
      <g>
       <use xlink:href="#m2408b05735" x="63" y="448.56" style="stroke: #000000; stroke-width: 0.8"/>
      </g>
     </g>
     <g id="text_17">
      <text style="font-size: 16px; font-family: 'Arial', sans-serif; text-anchor: end" x="56" y="454.384219" transform="rotate(-0 56 454.384219)">0</text>
     </g>
    </g>
    <g id="ytick_10">
     <g id="line2d_16">
      <g>
       <use xlink:href="#m2408b05735" x="63" y="399.262325" style="stroke: #000000; stroke-width: 0.8"/>
      </g>
     </g>
     <g id="text_18">
      <text style="font-size: 16px; font-family: 'Arial', sans-serif; text-anchor: end" x="56" y="405.086543" transform="rotate(-0 56 405.086543)">1</text>
     </g>
    </g>
    <g id="ytick_11">
     <g id="line2d_17">
      <g>
       <use xlink:href="#m2408b05735" x="63" y="349.964649" style="stroke: #000000; stroke-width: 0.8"/>
      </g>
     </g>
     <g id="text_19">
      <text style="font-size: 16px; font-family: 'Arial', sans-serif; text-anchor: end" x="56" y="355.788868" transform="rotate(-0 56 355.788868)">2</text>
     </g>
    </g>
    <g id="ytick_12">
     <g id="line2d_18">
      <g>
       <use xlink:href="#m2408b05735" x="63" y="300.666974" style="stroke: #000000; stroke-width: 0.8"/>
      </g>
     </g>
     <g id="text_20">
      <text style="font-size: 16px; font-family: 'Arial', sans-serif; text-anchor: end" x="56" y="306.491192" transform="rotate(-0 56 306.491192)">3</text>
     </g>
    </g>
    <g id="ytick_13">
     <g id="line2d_19">
      <g>
       <use xlink:href="#m2408b05735" x="63" y="251.369298" style="stroke: #000000; stroke-width: 0.8"/>
      </g>
     </g>
     <g id="text_21">
      <text style="font-size: 16px; font-family: 'Arial', sans-serif; text-anchor: end" x="56" y="257.193517" transform="rotate(-0 56 257.193517)">4</text>
     </g>
    </g>
    <g id="ytick_14">
     <g id="line2d_20">
      <g>
       <use xlink:href="#m2408b05735" x="63" y="202.071623" style="stroke: #000000; stroke-width: 0.8"/>
      </g>
     </g>
     <g id="text_22">
      <text style="font-size: 16px; font-family: 'Arial', sans-serif; text-anchor: end" x="56" y="207.895841" transform="rotate(-0 56 207.895841)">5</text>
     </g>
    </g>
    <g id="ytick_15">
     <g id="line2d_21">
      <g>
       <use xlink:href="#m2408b05735" x="63" y="152.773947" style="stroke: #000000; stroke-width: 0.8"/>
      </g>
     </g>
     <g id="text_23">
      <text style="font-size: 16px; font-family: 'Arial', sans-serif; text-anchor: end" x="56" y="158.598166" transform="rotate(-0 56 158.598166)">6</text>
     </g>
    </g>
    <g id="ytick_16">
     <g id="line2d_22">
      <g>
       <use xlink:href="#m2408b05735" x="63" y="103.476272" style="stroke: #000000; stroke-width: 0.8"/>
      </g>
     </g>
     <g id="text_24">
      <text style="font-size: 16px; font-family: 'Arial', sans-serif; text-anchor: end" x="56" y="109.30049" transform="rotate(-0 56 109.30049)">7</text>
     </g>
    </g>
    <g id="text_25">
     <text style="font-size: 16px; font-family: 'Arial', sans-serif" transform="translate(21.121719 388.5125) rotate(-90)">Time-dependent reproduction number</text>
     <text style="font-size: 16px; font-family: 'Arial', sans-serif" transform="translate(38.535781 341.2175) rotate(-90)">(suitability-based model)</text>
    </g>
   </g>
   <g id="line2d_23">
    <path d="M 63 309.961148 
L 65.244828 301.927867 
L 67.489655 303.539884 
L 71.97931 325.738329 
L 74.224138 335.79142 
L 76.468966 344.91619 
L 78.713793 352.848324 
L 80.958621 359.368103 
L 83.203448 364.513466 
L 85.448276 370.902106 
L 87.693103 375.713297 
L 89.937931 379.231002 
L 92.182759 381.458579 
L 94.427586 382.745835 
L 96.672414 383.121174 
L 98.917241 382.35746 
L 101.162069 381.019643 
L 103.406897 378.90765 
L 105.651724 375.69328 
L 107.896552 374.091784 
L 110.141379 371.191715 
L 112.386207 366.983223 
L 114.631034 364.533971 
L 116.875862 360.996153 
L 119.12069 359.120661 
L 121.365517 355.972392 
L 123.610345 354.573505 
L 125.855172 351.571418 
L 128.1 349.971856 
L 130.344828 350.329078 
L 132.589655 348.575546 
L 134.834483 348.013055 
L 137.07931 348.386431 
L 139.324138 346.052198 
L 141.568966 344.780347 
L 143.813793 340.169896 
L 146.058621 331.144132 
L 148.303448 329.346601 
L 150.548276 330.677743 
L 152.793103 331.359628 
L 155.037931 331.269339 
L 157.282759 330.438936 
L 159.527586 328.115873 
L 161.772414 332.142205 
L 164.017241 330.381928 
L 166.262069 325.325486 
L 168.506897 315.886442 
L 170.751724 313.211159 
L 172.996552 311.846933 
L 175.241379 310.679458 
L 177.486207 301.876927 
L 179.731034 293.800804 
L 181.975862 283.1384 
L 184.22069 289.703931 
L 186.465517 295.585019 
L 188.710345 314.487549 
L 190.955172 331.073874 
L 195.444828 353.516429 
L 197.689655 370.035967 
L 199.934483 378.43536 
L 202.17931 378.364491 
L 204.424138 385.383758 
L 206.668966 386.134649 
L 208.913793 384.623653 
L 211.158621 374.626737 
L 213.403448 369.590013 
L 215.648276 365.761328 
L 217.893103 362.357489 
L 222.382759 348.072831 
L 224.627586 349.191729 
L 226.872414 358.919278 
L 229.117241 362.409708 
L 231.362069 374.236136 
L 233.606897 370.553378 
L 235.851724 381.819565 
L 238.096552 396.832211 
L 240.341379 405.759272 
L 242.586207 410.595709 
L 244.831034 410.252945 
L 249.32069 404.043886 
L 251.565517 408.95815 
L 253.810345 412.562343 
L 256.055172 418.105774 
L 260.544828 425.832411 
L 262.789655 428.94066 
L 265.034483 431.139252 
L 267.27931 432.818162 
L 269.524138 433.219297 
L 274.013793 433.045425 
L 276.258621 433.581708 
L 278.503448 433.715438 
L 280.748276 434.52602 
L 282.993103 435.54136 
L 285.237931 435.98667 
L 289.727586 435.956215 
L 294.217241 437.12664 
L 296.462069 437.452227 
L 298.706897 437.951335 
L 300.951724 438.211164 
L 303.196552 438.66982 
L 305.441379 438.932596 
L 307.686207 439.022417 
L 309.931034 438.954177 
L 312.175862 439.11553 
L 314.42069 439.52823 
L 318.910345 439.939306 
L 321.155172 439.914359 
L 325.644828 440.449347 
L 330.134483 440.634575 
L 332.37931 440.616579 
L 336.868966 440.27274 
L 341.358621 439.655107 
L 343.603448 439.238334 
L 350.337931 439.514305 
L 354.827586 439.43428 
L 359.317241 439.232428 
L 363.806897 440.250629 
L 370.541379 441.359436 
L 377.275862 442.245074 
L 386.255172 443.082554 
L 401.968966 444.078984 
L 422.172414 444.837344 
L 440.131034 445.382674 
L 453.6 445.657018 
L 453.6 445.657018 
" clip-path="url(#p29447f5418)" style="fill: none; stroke: #0173b2; stroke-width: 2; stroke-linecap: square"/>
   </g>
   <g id="line2d_24">
    <path d="M 63 338.501202 
L 65.244828 332.364301 
L 67.489655 335.210411 
L 69.734483 345.097542 
L 71.97931 353.770949 
L 74.224138 361.828636 
L 76.468966 369.016935 
L 78.713793 375.395099 
L 80.958621 380.97787 
L 85.448276 390.127942 
L 87.693103 393.632528 
L 89.937931 395.615442 
L 92.182759 396.649909 
L 94.427586 396.740955 
L 96.672414 395.672575 
L 98.917241 393.732708 
L 101.162069 391.159336 
L 103.406897 387.261341 
L 105.651724 382.019709 
L 107.896552 377.998523 
L 110.141379 372.705127 
L 112.386207 365.861926 
L 114.631034 360.612313 
L 116.875862 354.429361 
L 119.12069 350.51099 
L 121.365517 345.748407 
L 123.610345 343.386339 
L 125.855172 340.211359 
L 128.1 339.611446 
L 130.344828 340.682558 
L 132.589655 340.485469 
L 134.834483 341.319495 
L 137.07931 343.685883 
L 139.324138 343.208103 
L 141.568966 343.365436 
L 143.813793 340.350516 
L 146.058621 333.610414 
L 148.303448 333.625832 
L 150.548276 336.136507 
L 152.793103 337.331478 
L 155.037931 338.017213 
L 157.282759 336.951996 
L 159.527586 334.86524 
L 161.772414 338.586168 
L 164.017241 336.010371 
L 166.262069 330.053753 
L 168.506897 318.86279 
L 170.751724 314.006032 
L 175.241379 305.599674 
L 177.486207 294.697695 
L 179.731034 284.712204 
L 181.975862 272.839181 
L 186.465517 287.473743 
L 188.710345 309.079753 
L 190.955172 328.282383 
L 195.444828 355.191934 
L 197.689655 372.79746 
L 199.934483 381.363835 
L 202.17931 381.805279 
L 204.424138 388.60623 
L 206.668966 389.44664 
L 208.913793 387.547943 
L 211.158621 377.056172 
L 213.403448 371.253374 
L 217.893103 362.296968 
L 220.137931 353.894597 
L 222.382759 346.156317 
L 224.627586 346.445165 
L 226.872414 355.79296 
L 229.117241 359.340019 
L 231.362069 371.879629 
L 233.606897 368.072241 
L 235.851724 380.306701 
L 238.096552 395.677158 
L 240.341379 405.06879 
L 242.586207 410.164711 
L 244.831034 410.054058 
L 249.32069 404.315735 
L 251.565517 409.48625 
L 253.810345 413.284253 
L 256.055172 418.624994 
L 260.544828 426.24632 
L 262.789655 429.245752 
L 265.034483 431.400543 
L 267.27931 433.093994 
L 269.524138 433.585161 
L 274.013793 433.501338 
L 276.258621 434.019792 
L 278.503448 434.117524 
L 280.748276 434.895529 
L 282.993103 435.888222 
L 285.237931 436.316316 
L 289.727586 436.309561 
L 298.706897 438.250454 
L 300.951724 438.592556 
L 303.196552 439.077947 
L 305.441379 439.340688 
L 307.686207 439.430256 
L 309.931034 439.405066 
L 312.175862 439.59286 
L 314.42069 440.009581 
L 318.910345 440.440039 
L 321.155172 440.443845 
L 325.644828 441.082481 
L 330.134483 441.204751 
L 334.624138 441.034134 
L 339.113793 440.538403 
L 343.603448 439.766973 
L 348.093103 439.841285 
L 352.582759 439.821179 
L 359.317241 439.586728 
L 370.541379 441.697663 
L 375.031034 442.318106 
L 384.010345 443.26194 
L 388.5 443.528053 
L 392.989655 443.803098 
L 399.724138 444.123234 
L 408.703448 444.449787 
L 415.437931 444.736968 
L 424.417241 444.98955 
L 428.906897 445.082255 
L 442.375862 445.541673 
L 453.6 445.859191 
L 453.6 445.859191 
" clip-path="url(#p29447f5418)" style="fill: none; stroke-dasharray: 7.4,3.2; stroke-dashoffset: 0; stroke: #e377c2; stroke-width: 2"/>
   </g>
   <g id="patch_179">
    <path d="M 63 448.56 
L 63 60.48 
" style="fill: none; stroke: #000000; stroke-width: 0.8; stroke-linejoin: miter; stroke-linecap: square"/>
   </g>
   <g id="patch_180">
    <path d="M 63 448.56 
L 453.6 448.56 
" style="fill: none; stroke: #000000; stroke-width: 0.8; stroke-linejoin: miter; stroke-linecap: square"/>
   </g>
   <g id="legend_1">
    <g id="patch_181">
     <path d="M 300.960625 111.957891 
L 443.8 111.957891 
Q 446.6 111.957891 446.6 109.157891 
L 446.6 70.28 
Q 446.6 67.48 443.8 67.48 
L 300.960625 67.48 
Q 298.160625 67.48 298.160625 70.28 
L 298.160625 109.157891 
Q 298.160625 111.957891 300.960625 111.957891 
z
" style="fill: #ffffff; opacity: 0.8; stroke: #cccccc; stroke-linejoin: miter"/>
    </g>
    <g id="line2d_25">
     <path d="M 303.760625 78.372383 
L 317.760625 78.372383 
L 331.760625 78.372383 
" style="fill: none; stroke: #0173b2; stroke-width: 2; stroke-linecap: square"/>
    </g>
    <g id="text_26">
     <text style="font-size: 14px; font-family: 'Arial', sans-serif; text-anchor: start" x="342.960625" y="83.272383" transform="rotate(-0 342.960625 83.272383)">Under-reporting</text>
    </g>
    <g id="line2d_26">
     <path d="M 303.760625 98.511328 
L 317.760625 98.511328 
L 331.760625 98.511328 
" style="fill: none; stroke-dasharray: 7.4,3.2; stroke-dashoffset: 0; stroke: #e377c2; stroke-width: 2"/>
    </g>
    <g id="text_27">
     <text style="font-size: 14px; font-family: 'Arial', sans-serif; text-anchor: start" x="342.960625" y="103.411328" transform="rotate(-0 342.960625 103.411328)">Full reporting</text>
    </g>
   </g>
  </g>
 </g>
 <defs>
  <clipPath id="p29447f5418">
   <rect x="63" y="60.48" width="390.6" height="388.08"/>
  </clipPath>
 </defs>
</svg>
