<?xml version="1.0" encoding="utf-8" standalone="no"?>
<!DOCTYPE svg PUBLIC "-//W3C//DTD SVG 1.1//EN"
  "http://www.w3.org/Graphics/SVG/1.1/DTD/svg11.dtd">
<svg xmlns:xlink="http://www.w3.org/1999/xlink" width="504pt" height="504pt" viewBox="0 0 504 504" xmlns="http://www.w3.org/2000/svg" version="1.1">
 <metadata>
  <rdf:RDF xmlns:dc="http://purl.org/dc/elements/1.1/" xmlns:cc="http://creativecommons.org/ns#" xmlns:rdf="http://www.w3.org/1999/02/22-rdf-syntax-ns#">
   <cc:Work>
    <dc:type rdf:resource="http://purl.org/dc/dcmitype/StillImage"/>
    <dc:date>2026-07-17T10:21:21.983232</dc:date>
    <dc:format>image/svg+xml</dc:format>
    <dc:creator>
     <cc:Agent>
      <dc:title>Matplotlib v3.11.0, https://matplotlib.org/</dc:title>
     </cc:Agent>
    </dc:creator>
   </cc:Work>
  </rdf:RDF>
 </metadata>
 <defs>
  <style type="text/css">*{stroke-linejoin: round; stroke-linecap: butt}</style>
 </defs>
 <g id="figure_1">
  <g id="patch_1">
   <path d="M 0 504 
L 504 504 
L 504 0 
L 0 0 
L 0 504 
z
" style="fill: none"/>
  </g>
  <g id="axes_1">
   <g id="patch_2">
    <path d="M 63 448.56 
L 453.6 448.56 
L 453.6 60.48 
L 63 60.48 
L 63 448.56 
z
" style="fill: none"/>
   </g>
   <g id="matplotlib.axis_1">
    <g id="ytick_1">
     <g id="line2d_1">
      <defs>
       <path id="m9251cc7c58" d="M 0 0 
L 3.5 0 
" style="stroke: #7f7f7f; stroke-width: 0.8"/>
      </defs>
      <g>
       <use xlink:href="#m9251cc7c58" x="453.6" y="448.56" style="fill: #7f7f7f; stroke: #7f7f7f; stroke-width: 0.8"/>
      </g>
     </g>
     <g id="text_1">
      <text style="font-size: 16px; font-family: 'Arial', sans-serif; text-anchor: start; fill: #7f7f7f" x="460.6" y="454.384219" transform="rotate(-0 460.6 454.384219)">0</text>
     </g>
    </g>
    <g id="ytick_2">
     <g id="line2d_2">
      <g>
       <use xlink:href="#m9251cc7c58" x="453.6" y="396.816" style="fill: #7f7f7f; stroke: #7f7f7f; stroke-width: 0.8"/>
      </g>
     </g>
     <g id="text_2">
      <text style="font-size: 16px; font-family: 'Arial', sans-serif; text-anchor: start; fill: #7f7f7f" x="460.6" y="402.640219" transform="rotate(-0 460.6 402.640219)">2</text>
     </g>
    </g>
    <g id="ytick_3">
     <g id="line2d_3">
      <g>
       <use xlink:href="#m9251cc7c58" x="453.6" y="345.072" style="fill: #7f7f7f; stroke: #7f7f7f; stroke-width: 0.8"/>
      </g>
     </g>
     <g id="text_3">
      <text style="font-size: 16px; font-family: 'Arial', sans-serif; text-anchor: start; fill: #7f7f7f" x="460.6" y="350.896219" transform="rotate(-0 460.6 350.896219)">4</text>
     </g>
    </g>
    <g id="ytick_4">
     <g id="line2d_4">
      <g>
       <use xlink:href="#m9251cc7c58" x="453.6" y="293.328" style="fill: #7f7f7f; stroke: #7f7f7f; stroke-width: 0.8"/>
      </g>
     </g>
     <g id="text_4">
      <text style="font-size: 16px; font-family: 'Arial', sans-serif; text-anchor: start; fill: #7f7f7f" x="460.6" y="299.152219" transform="rotate(-0 460.6 299.152219)">6</text>
     </g>
    </g>
    <g id="ytick_5">
     <g id="line2d_5">
      <g>
       <use xlink:href="#m9251cc7c58" x="453.6" y="241.584" style="fill: #7f7f7f; stroke: #7f7f7f; stroke-width: 0.8"/>
      </g>
     </g>
     <g id="text_5">
      <text style="font-size: 16px; font-family: 'Arial', sans-serif; text-anchor: start; fill: #7f7f7f" x="460.6" y="247.408219" transform="rotate(-0 460.6 247.408219)">8</text>
     </g>
    </g>
    <g id="ytick_6">
     <g id="line2d_6">
      <g>
       <use xlink:href="#m9251cc7c58" x="453.6" y="189.84" style="fill: #7f7f7f; stroke: #7f7f7f; stroke-width: 0.8"/>
      </g>
     </g>
     <g id="text_6">
      <text style="font-size: 16px; font-family: 'Arial', sans-serif; text-anchor: start; fill: #7f7f7f" x="460.6" y="195.664219" transform="rotate(-0 460.6 195.664219)">10</text>
     </g>
    </g>
    <g id="ytick_7">
     <g id="line2d_7">
      <g>
       <use xlink:href="#m9251cc7c58" x="453.6" y="138.096" style="fill: #7f7f7f; stroke: #7f7f7f; stroke-width: 0.8"/>
      </g>
     </g>
     <g id="text_7">
      <text style="font-size: 16px; font-family: 'Arial', sans-serif; text-anchor: start; fill: #7f7f7f" x="460.6" y="143.920219" transform="rotate(-0 460.6 143.920219)">12</text>
     </g>
    </g>
    <g id="ytick_8">
     <g id="line2d_8">
      <g>
       <use xlink:href="#m9251cc7c58" x="453.6" y="86.352" style="fill: #7f7f7f; stroke: #7f7f7f; stroke-width: 0.8"/>
      </g>
     </g>
     <g id="text_8">
      <text style="font-size: 16px; font-family: 'Arial', sans-serif; text-anchor: start; fill: #7f7f7f" x="460.6" y="92.176219" transform="rotate(-0 460.6 92.176219)">14</text>
     </g>
    </g>
    <g id="text_9">
     <text style="font-size: 16px; font-family: 'Arial', sans-serif; text-anchor: middle; fill: #7f7f7f" x="494.043438" y="254.52" transform="rotate(-90 494.043438 254.52)">Number of cases</text>
    </g>
   </g>
   <g id="patch_3">
    <path d="M 62.102069 448.56 
L 63.897931 448.56 
L 63.897931 396.816 
L 62.102069 396.816 
z
" clip-path="url(#pe9a5042637)" style="fill: #7f7f7f; opacity: 0.5"/>
   </g>
   <g id="patch_4">
    <path d="M 64.346897 448.56 
L 66.142759 448.56 
L 66.142759 396.816 
L 64.346897 396.816 
z
" clip-path="url(#pe9a5042637)" style="fill: #7f7f7f; opacity: 0.5"/>
   </g>
   <g id="patch_5">
    <path d="M 66.591724 448.56 
L 68.387586 448.56 
L 68.387586 396.816 
L 66.591724 396.816 
z
" clip-path="url(#pe9a5042637)" style="fill: #7f7f7f; opacity: 0.5"/>
   </g>
   <g id="patch_6">
    <path d="M 68.836552 448.56 
L 70.632414 448.56 
L 70.632414 448.56 
L 68.836552 448.56 
z
" clip-path="url(#pe9a5042637)" style="fill: #7f7f7f; opacity: 0.5"/>
   </g>
   <g id="patch_7">
    <path d="M 71.081379 448.56 
L 72.877241 448.56 
L 72.877241 448.56 
L 71.081379 448.56 
z
" clip-path="url(#pe9a5042637)" style="fill: #7f7f7f; opacity: 0.5"/>
   </g>
   <g id="patch_8">
    <path d="M 73.326207 448.56 
L 75.122069 448.56 
L 75.122069 448.56 
L 73.326207 448.56 
z
" clip-path="url(#pe9a5042637)" style="fill: #7f7f7f; opacity: 0.5"/>
   </g>
   <g id="patch_9">
    <path d="M 75.571034 448.56 
L 77.366897 448.56 
L 77.366897 448.56 
L 75.571034 448.56 
z
" clip-path="url(#pe9a5042637)" style="fill: #7f7f7f; opacity: 0.5"/>
   </g>
   <g id="patch_10">
    <path d="M 77.815862 448.56 
L 79.611724 448.56 
L 79.611724 448.56 
L 77.815862 448.56 
z
" clip-path="url(#pe9a5042637)" style="fill: #7f7f7f; opacity: 0.5"/>
   </g>
   <g id="patch_11">
    <path d="M 80.06069 448.56 
L 81.856552 448.56 
L 81.856552 448.56 
L 80.06069 448.56 
z
" clip-path="url(#pe9a5042637)" style="fill: #7f7f7f; opacity: 0.5"/>
   </g>
   <g id="patch_12">
    <path d="M 82.305517 448.56 
L 84.101379 448.56 
L 84.101379 422.688 
L 82.305517 422.688 
z
" clip-path="url(#pe9a5042637)" style="fill: #7f7f7f; opacity: 0.5"/>
   </g>
   <g id="patch_13">
    <path d="M 84.550345 448.56 
L 86.346207 448.56 
L 86.346207 448.56 
L 84.550345 448.56 
z
" clip-path="url(#pe9a5042637)" style="fill: #7f7f7f; opacity: 0.5"/>
   </g>
   <g id="patch_14">
    <path d="M 86.795172 448.56 
L 88.591034 448.56 
L 88.591034 448.56 
L 86.795172 448.56 
z
" clip-path="url(#pe9a5042637)" style="fill: #7f7f7f; opacity: 0.5"/>
   </g>
   <g id="patch_15">
    <path d="M 89.04 448.56 
L 90.835862 448.56 
L 90.835862 448.56 
L 89.04 448.56 
z
" clip-path="url(#pe9a5042637)" style="fill: #7f7f7f; opacity: 0.5"/>
   </g>
   <g id="patch_16">
    <path d="M 91.284828 448.56 
L 93.08069 448.56 
L 93.08069 448.56 
L 91.284828 448.56 
z
" clip-path="url(#pe9a5042637)" style="fill: #7f7f7f; opacity: 0.5"/>
   </g>
   <g id="patch_17">
    <path d="M 93.529655 448.56 
L 95.325517 448.56 
L 95.325517 448.56 
L 93.529655 448.56 
z
" clip-path="url(#pe9a5042637)" style="fill: #7f7f7f; opacity: 0.5"/>
   </g>
   <g id="patch_18">
    <path d="M 95.774483 448.56 
L 97.570345 448.56 
L 97.570345 448.56 
L 95.774483 448.56 
z
" clip-path="url(#pe9a5042637)" style="fill: #7f7f7f; opacity: 0.5"/>
   </g>
   <g id="patch_19">
    <path d="M 98.01931 448.56 
L 99.815172 448.56 
L 99.815172 448.56 
L 98.01931 448.56 
z
" clip-path="url(#pe9a5042637)" style="fill: #7f7f7f; opacity: 0.5"/>
   </g>
   <g id="patch_20">
    <path d="M 100.264138 448.56 
L 102.06 448.56 
L 102.06 448.56 
L 100.264138 448.56 
z
" clip-path="url(#pe9a5042637)" style="fill: #7f7f7f; opacity: 0.5"/>
   </g>
   <g id="patch_21">
    <path d="M 102.508966 448.56 
L 104.304828 448.56 
L 104.304828 448.56 
L 102.508966 448.56 
z
" clip-path="url(#pe9a5042637)" style="fill: #7f7f7f; opacity: 0.5"/>
   </g>
   <g id="patch_22">
    <path d="M 104.753793 448.56 
L 106.549655 448.56 
L 106.549655 422.688 
L 104.753793 422.688 
z
" clip-path="url(#pe9a5042637)" style="fill: #7f7f7f; opacity: 0.5"/>
   </g>
   <g id="patch_23">
    <path d="M 106.998621 448.56 
L 108.794483 448.56 
L 108.794483 448.56 
L 106.998621 448.56 
z
" clip-path="url(#pe9a5042637)" style="fill: #7f7f7f; opacity: 0.5"/>
   </g>
   <g id="patch_24">
    <path d="M 109.243448 448.56 
L 111.03931 448.56 
L 111.03931 448.56 
L 109.243448 448.56 
z
" clip-path="url(#pe9a5042637)" style="fill: #7f7f7f; opacity: 0.5"/>
   </g>
   <g id="patch_25">
    <path d="M 111.488276 448.56 
L 113.284138 448.56 
L 113.284138 422.688 
L 111.488276 422.688 
z
" clip-path="url(#pe9a5042637)" style="fill: #7f7f7f; opacity: 0.5"/>
   </g>
   <g id="patch_26">
    <path d="M 113.733103 448.56 
L 115.528966 448.56 
L 115.528966 448.56 
L 113.733103 448.56 
z
" clip-path="url(#pe9a5042637)" style="fill: #7f7f7f; opacity: 0.5"/>
   </g>
   <g id="patch_27">
    <path d="M 115.977931 448.56 
L 117.773793 448.56 
L 117.773793 422.688 
L 115.977931 422.688 
z
" clip-path="url(#pe9a5042637)" style="fill: #7f7f7f; opacity: 0.5"/>
   </g>
   <g id="patch_28">
    <path d="M 118.222759 448.56 
L 120.018621 448.56 
L 120.018621 448.56 
L 118.222759 448.56 
z
" clip-path="url(#pe9a5042637)" style="fill: #7f7f7f; opacity: 0.5"/>
   </g>
   <g id="patch_29">
    <path d="M 120.467586 448.56 
L 122.263448 448.56 
L 122.263448 422.688 
L 120.467586 422.688 
z
" clip-path="url(#pe9a5042637)" style="fill: #7f7f7f; opacity: 0.5"/>
   </g>
   <g id="patch_30">
    <path d="M 122.712414 448.56 
L 124.508276 448.56 
L 124.508276 448.56 
L 122.712414 448.56 
z
" clip-path="url(#pe9a5042637)" style="fill: #7f7f7f; opacity: 0.5"/>
   </g>
   <g id="patch_31">
    <path d="M 124.957241 448.56 
L 126.753103 448.56 
L 126.753103 422.688 
L 124.957241 422.688 
z
" clip-path="url(#pe9a5042637)" style="fill: #7f7f7f; opacity: 0.5"/>
   </g>
   <g id="patch_32">
    <path d="M 127.202069 448.56 
L 128.997931 448.56 
L 128.997931 422.688 
L 127.202069 422.688 
z
" clip-path="url(#pe9a5042637)" style="fill: #7f7f7f; opacity: 0.5"/>
   </g>
   <g id="patch_33">
    <path d="M 129.446897 448.56 
L 131.242759 448.56 
L 131.242759 448.56 
L 129.446897 448.56 
z
" clip-path="url(#pe9a5042637)" style="fill: #7f7f7f; opacity: 0.5"/>
   </g>
   <g id="patch_34">
    <path d="M 131.691724 448.56 
L 133.487586 448.56 
L 133.487586 422.688 
L 131.691724 422.688 
z
" clip-path="url(#pe9a5042637)" style="fill: #7f7f7f; opacity: 0.5"/>
   </g>
   <g id="patch_35">
    <path d="M 133.936552 448.56 
L 135.732414 448.56 
L 135.732414 422.688 
L 133.936552 422.688 
z
" clip-path="url(#pe9a5042637)" style="fill: #7f7f7f; opacity: 0.5"/>
   </g>
   <g id="patch_36">
    <path d="M 136.181379 448.56 
L 137.977241 448.56 
L 137.977241 448.56 
L 136.181379 448.56 
z
" clip-path="url(#pe9a5042637)" style="fill: #7f7f7f; opacity: 0.5"/>
   </g>
   <g id="patch_37">
    <path d="M 138.426207 448.56 
L 140.222069 448.56 
L 140.222069 422.688 
L 138.426207 422.688 
z
" clip-path="url(#pe9a5042637)" style="fill: #7f7f7f; opacity: 0.5"/>
   </g>
   <g id="patch_38">
    <path d="M 140.671034 448.56 
L 142.466897 448.56 
L 142.466897 448.56 
L 140.671034 448.56 
z
" clip-path="url(#pe9a5042637)" style="fill: #7f7f7f; opacity: 0.5"/>
   </g>
   <g id="patch_39">
    <path d="M 142.915862 448.56 
L 144.711724 448.56 
L 144.711724 448.56 
L 142.915862 448.56 
z
" clip-path="url(#pe9a5042637)" style="fill: #7f7f7f; opacity: 0.5"/>
   </g>
   <g id="patch_40">
    <path d="M 145.16069 448.56 
L 146.956552 448.56 
L 146.956552 370.944 
L 145.16069 370.944 
z
" clip-path="url(#pe9a5042637)" style="fill: #7f7f7f; opacity: 0.5"/>
   </g>
   <g id="patch_41">
    <path d="M 147.405517 448.56 
L 149.201379 448.56 
L 149.201379 396.816 
L 147.405517 396.816 
z
" clip-path="url(#pe9a5042637)" style="fill: #7f7f7f; opacity: 0.5"/>
   </g>
   <g id="patch_42">
    <path d="M 149.650345 448.56 
L 151.446207 448.56 
L 151.446207 422.688 
L 149.650345 422.688 
z
" clip-path="url(#pe9a5042637)" style="fill: #7f7f7f; opacity: 0.5"/>
   </g>
   <g id="patch_43">
    <path d="M 151.895172 448.56 
L 153.691034 448.56 
L 153.691034 422.688 
L 151.895172 422.688 
z
" clip-path="url(#pe9a5042637)" style="fill: #7f7f7f; opacity: 0.5"/>
   </g>
   <g id="patch_44">
    <path d="M 154.14 448.56 
L 155.935862 448.56 
L 155.935862 422.688 
L 154.14 422.688 
z
" clip-path="url(#pe9a5042637)" style="fill: #7f7f7f; opacity: 0.5"/>
   </g>
   <g id="patch_45">
    <path d="M 156.384828 448.56 
L 158.18069 448.56 
L 158.18069 422.688 
L 156.384828 422.688 
z
" clip-path="url(#pe9a5042637)" style="fill: #7f7f7f; opacity: 0.5"/>
   </g>
   <g id="patch_46">
    <path d="M 158.629655 448.56 
L 160.425517 448.56 
L 160.425517 370.944 
L 158.629655 370.944 
z
" clip-path="url(#pe9a5042637)" style="fill: #7f7f7f; opacity: 0.5"/>
   </g>
   <g id="patch_47">
    <path d="M 160.874483 448.56 
L 162.670345 448.56 
L 162.670345 448.56 
L 160.874483 448.56 
z
" clip-path="url(#pe9a5042637)" style="fill: #7f7f7f; opacity: 0.5"/>
   </g>
   <g id="patch_48">
    <path d="M 163.11931 448.56 
L 164.915172 448.56 
L 164.915172 422.688 
L 163.11931 422.688 
z
" clip-path="url(#pe9a5042637)" style="fill: #7f7f7f; opacity: 0.5"/>
   </g>
   <g id="patch_49">
    <path d="M 165.364138 448.56 
L 167.16 448.56 
L 167.16 422.688 
L 165.364138 422.688 
z
" clip-path="url(#pe9a5042637)" style="fill: #7f7f7f; opacity: 0.5"/>
   </g>
   <g id="patch_50">
    <path d="M 167.608966 448.56 
L 169.404828 448.56 
L 169.404828 345.072 
L 167.608966 345.072 
z
" clip-path="url(#pe9a5042637)" style="fill: #7f7f7f; opacity: 0.5"/>
   </g>
   <g id="patch_51">
    <path d="M 169.853793 448.56 
L 171.649655 448.56 
L 171.649655 370.944 
L 169.853793 370.944 
z
" clip-path="url(#pe9a5042637)" style="fill: #7f7f7f; opacity: 0.5"/>
   </g>
   <g id="patch_52">
    <path d="M 172.098621 448.56 
L 173.894483 448.56 
L 173.894483 370.944 
L 172.098621 370.944 
z
" clip-path="url(#pe9a5042637)" style="fill: #7f7f7f; opacity: 0.5"/>
   </g>
   <g id="patch_53">
    <path d="M 174.343448 448.56 
L 176.13931 448.56 
L 176.13931 396.816 
L 174.343448 396.816 
z
" clip-path="url(#pe9a5042637)" style="fill: #7f7f7f; opacity: 0.5"/>
   </g>
   <g id="patch_54">
    <path d="M 176.588276 448.56 
L 178.384138 448.56 
L 178.384138 345.072 
L 176.588276 345.072 
z
" clip-path="url(#pe9a5042637)" style="fill: #7f7f7f; opacity: 0.5"/>
   </g>
   <g id="patch_55">
    <path d="M 178.833103 448.56 
L 180.628966 448.56 
L 180.628966 345.072 
L 178.833103 345.072 
z
" clip-path="url(#pe9a5042637)" style="fill: #7f7f7f; opacity: 0.5"/>
   </g>
   <g id="patch_56">
    <path d="M 181.077931 448.56 
L 182.873793 448.56 
L 182.873793 241.584 
L 181.077931 241.584 
z
" clip-path="url(#pe9a5042637)" style="fill: #7f7f7f; opacity: 0.5"/>
   </g>
   <g id="patch_57">
    <path d="M 183.322759 448.56 
L 185.118621 448.56 
L 185.118621 319.2 
L 183.322759 319.2 
z
" clip-path="url(#pe9a5042637)" style="fill: #7f7f7f; opacity: 0.5"/>
   </g>
   <g id="patch_58">
    <path d="M 185.567586 448.56 
L 187.363448 448.56 
L 187.363448 241.584 
L 185.567586 241.584 
z
" clip-path="url(#pe9a5042637)" style="fill: #7f7f7f; opacity: 0.5"/>
   </g>
   <g id="patch_59">
    <path d="M 187.812414 448.56 
L 189.608276 448.56 
L 189.608276 319.2 
L 187.812414 319.2 
z
" clip-path="url(#pe9a5042637)" style="fill: #7f7f7f; opacity: 0.5"/>
   </g>
   <g id="patch_60">
    <path d="M 190.057241 448.56 
L 191.853103 448.56 
L 191.853103 345.072 
L 190.057241 345.072 
z
" clip-path="url(#pe9a5042637)" style="fill: #7f7f7f; opacity: 0.5"/>
   </g>
   <g id="patch_61">
    <path d="M 192.302069 448.56 
L 194.097931 448.56 
L 194.097931 319.2 
L 192.302069 319.2 
z
" clip-path="url(#pe9a5042637)" style="fill: #7f7f7f; opacity: 0.5"/>
   </g>
   <g id="patch_62">
    <path d="M 194.546897 448.56 
L 196.342759 448.56 
L 196.342759 267.456 
L 194.546897 267.456 
z
" clip-path="url(#pe9a5042637)" style="fill: #7f7f7f; opacity: 0.5"/>
   </g>
   <g id="patch_63">
    <path d="M 196.791724 448.56 
L 198.587586 448.56 
L 198.587586 396.816 
L 196.791724 396.816 
z
" clip-path="url(#pe9a5042637)" style="fill: #7f7f7f; opacity: 0.5"/>
   </g>
   <g id="patch_64">
    <path d="M 199.036552 448.56 
L 200.832414 448.56 
L 200.832414 422.688 
L 199.036552 422.688 
z
" clip-path="url(#pe9a5042637)" style="fill: #7f7f7f; opacity: 0.5"/>
   </g>
   <g id="patch_65">
    <path d="M 201.281379 448.56 
L 203.077241 448.56 
L 203.077241 241.584 
L 201.281379 241.584 
z
" clip-path="url(#pe9a5042637)" style="fill: #7f7f7f; opacity: 0.5"/>
   </g>
   <g id="patch_66">
    <path d="M 203.526207 448.56 
L 205.322069 448.56 
L 205.322069 396.816 
L 203.526207 396.816 
z
" clip-path="url(#pe9a5042637)" style="fill: #7f7f7f; opacity: 0.5"/>
   </g>
   <g id="patch_67">
    <path d="M 205.771034 448.56 
L 207.566897 448.56 
L 207.566897 345.072 
L 205.771034 345.072 
z
" clip-path="url(#pe9a5042637)" style="fill: #7f7f7f; opacity: 0.5"/>
   </g>
   <g id="patch_68">
    <path d="M 208.015862 448.56 
L 209.811724 448.56 
L 209.811724 396.816 
L 208.015862 396.816 
z
" clip-path="url(#pe9a5042637)" style="fill: #7f7f7f; opacity: 0.5"/>
   </g>
   <g id="patch_69">
    <path d="M 210.26069 448.56 
L 212.056552 448.56 
L 212.056552 215.712 
L 210.26069 215.712 
z
" clip-path="url(#pe9a5042637)" style="fill: #7f7f7f; opacity: 0.5"/>
   </g>
   <g id="patch_70">
    <path d="M 212.505517 448.56 
L 214.301379 448.56 
L 214.301379 241.584 
L 212.505517 241.584 
z
" clip-path="url(#pe9a5042637)" style="fill: #7f7f7f; opacity: 0.5"/>
   </g>
   <g id="patch_71">
    <path d="M 214.750345 448.56 
L 216.546207 448.56 
L 216.546207 241.584 
L 214.750345 241.584 
z
" clip-path="url(#pe9a5042637)" style="fill: #7f7f7f; opacity: 0.5"/>
   </g>
   <g id="patch_72">
    <path d="M 216.995172 448.56 
L 218.791034 448.56 
L 218.791034 267.456 
L 216.995172 267.456 
z
" clip-path="url(#pe9a5042637)" style="fill: #7f7f7f; opacity: 0.5"/>
   </g>
   <g id="patch_73">
    <path d="M 219.24 448.56 
L 221.035862 448.56 
L 221.035862 215.712 
L 219.24 215.712 
z
" clip-path="url(#pe9a5042637)" style="fill: #7f7f7f; opacity: 0.5"/>
   </g>
   <g id="patch_74">
    <path d="M 221.484828 448.56 
L 223.28069 448.56 
L 223.28069 138.096 
L 221.484828 138.096 
z
" clip-path="url(#pe9a5042637)" style="fill: #7f7f7f; opacity: 0.5"/>
   </g>
   <g id="patch_75">
    <path d="M 223.729655 448.56 
L 225.525517 448.56 
L 225.525517 138.096 
L 223.729655 138.096 
z
" clip-path="url(#pe9a5042637)" style="fill: #7f7f7f; opacity: 0.5"/>
   </g>
   <g id="patch_76">
    <path d="M 225.974483 448.56 
L 227.770345 448.56 
L 227.770345 267.456 
L 225.974483 267.456 
z
" clip-path="url(#pe9a5042637)" style="fill: #7f7f7f; opacity: 0.5"/>
   </g>
   <g id="patch_77">
    <path d="M 228.21931 448.56 
L 230.015172 448.56 
L 230.015172 138.096 
L 228.21931 138.096 
z
" clip-path="url(#pe9a5042637)" style="fill: #7f7f7f; opacity: 0.5"/>
   </g>
   <g id="patch_78">
    <path d="M 230.464138 448.56 
L 232.26 448.56 
L 232.26 396.816 
L 230.464138 396.816 
z
" clip-path="url(#pe9a5042637)" style="fill: #7f7f7f; opacity: 0.5"/>
   </g>
   <g id="patch_79">
    <path d="M 232.708966 448.56 
L 234.504828 448.56 
L 234.504828 60.48 
L 232.708966 60.48 
z
" clip-path="url(#pe9a5042637)" style="fill: #7f7f7f; opacity: 0.5"/>
   </g>
   <g id="patch_80">
    <path d="M 234.953793 448.56 
L 236.749655 448.56 
L 236.749655 163.968 
L 234.953793 163.968 
z
" clip-path="url(#pe9a5042637)" style="fill: #7f7f7f; opacity: 0.5"/>
   </g>
   <g id="patch_81">
    <path d="M 237.198621 448.56 
L 238.994483 448.56 
L 238.994483 319.2 
L 237.198621 319.2 
z
" clip-path="url(#pe9a5042637)" style="fill: #7f7f7f; opacity: 0.5"/>
   </g>
   <g id="patch_82">
    <path d="M 239.443448 448.56 
L 241.23931 448.56 
L 241.23931 345.072 
L 239.443448 345.072 
z
" clip-path="url(#pe9a5042637)" style="fill: #7f7f7f; opacity: 0.5"/>
   </g>
   <g id="patch_83">
    <path d="M 241.688276 448.56 
L 243.484138 448.56 
L 243.484138 396.816 
L 241.688276 396.816 
z
" clip-path="url(#pe9a5042637)" style="fill: #7f7f7f; opacity: 0.5"/>
   </g>
   <g id="patch_84">
    <path d="M 243.933103 448.56 
L 245.728966 448.56 
L 245.728966 345.072 
L 243.933103 345.072 
z
" clip-path="url(#pe9a5042637)" style="fill: #7f7f7f; opacity: 0.5"/>
   </g>
   <g id="patch_85">
    <path d="M 246.177931 448.56 
L 247.973793 448.56 
L 247.973793 267.456 
L 246.177931 267.456 
z
" clip-path="url(#pe9a5042637)" style="fill: #7f7f7f; opacity: 0.5"/>
   </g>
   <g id="patch_86">
    <path d="M 248.422759 448.56 
L 250.218621 448.56 
L 250.218621 112.224 
L 248.422759 112.224 
z
" clip-path="url(#pe9a5042637)" style="fill: #7f7f7f; opacity: 0.5"/>
   </g>
   <g id="patch_87">
    <path d="M 250.667586 448.56 
L 252.463448 448.56 
L 252.463448 293.328 
L 250.667586 293.328 
z
" clip-path="url(#pe9a5042637)" style="fill: #7f7f7f; opacity: 0.5"/>
   </g>
   <g id="patch_88">
    <path d="M 252.912414 448.56 
L 254.708276 448.56 
L 254.708276 241.584 
L 252.912414 241.584 
z
" clip-path="url(#pe9a5042637)" style="fill: #7f7f7f; opacity: 0.5"/>
   </g>
   <g id="patch_89">
    <path d="M 255.157241 448.56 
L 256.953103 448.56 
L 256.953103 345.072 
L 255.157241 345.072 
z
" clip-path="url(#pe9a5042637)" style="fill: #7f7f7f; opacity: 0.5"/>
   </g>
   <g id="patch_90">
    <path d="M 257.402069 448.56 
L 259.197931 448.56 
L 259.197931 319.2 
L 257.402069 319.2 
z
" clip-path="url(#pe9a5042637)" style="fill: #7f7f7f; opacity: 0.5"/>
   </g>
   <g id="patch_91">
    <path d="M 259.646897 448.56 
L 261.442759 448.56 
L 261.442759 370.944 
L 259.646897 370.944 
z
" clip-path="url(#pe9a5042637)" style="fill: #7f7f7f; opacity: 0.5"/>
   </g>
   <g id="patch_92">
    <path d="M 261.891724 448.56 
L 263.687586 448.56 
L 263.687586 396.816 
L 261.891724 396.816 
z
" clip-path="url(#pe9a5042637)" style="fill: #7f7f7f; opacity: 0.5"/>
   </g>
   <g id="patch_93">
    <path d="M 264.136552 448.56 
L 265.932414 448.56 
L 265.932414 396.816 
L 264.136552 396.816 
z
" clip-path="url(#pe9a5042637)" style="fill: #7f7f7f; opacity: 0.5"/>
   </g>
   <g id="patch_94">
    <path d="M 266.381379 448.56 
L 268.177241 448.56 
L 268.177241 448.56 
L 266.381379 448.56 
z
" clip-path="url(#pe9a5042637)" style="fill: #7f7f7f; opacity: 0.5"/>
   </g>
   <g id="patch_95">
    <path d="M 268.626207 448.56 
L 270.422069 448.56 
L 270.422069 422.688 
L 268.626207 422.688 
z
" clip-path="url(#pe9a5042637)" style="fill: #7f7f7f; opacity: 0.5"/>
   </g>
   <g id="patch_96">
    <path d="M 270.871034 448.56 
L 272.666897 448.56 
L 272.666897 396.816 
L 270.871034 396.816 
z
" clip-path="url(#pe9a5042637)" style="fill: #7f7f7f; opacity: 0.5"/>
   </g>
   <g id="patch_97">
    <path d="M 273.115862 448.56 
L 274.911724 448.56 
L 274.911724 370.944 
L 273.115862 370.944 
z
" clip-path="url(#pe9a5042637)" style="fill: #7f7f7f; opacity: 0.5"/>
   </g>
   <g id="patch_98">
    <path d="M 275.36069 448.56 
L 277.156552 448.56 
L 277.156552 422.688 
L 275.36069 422.688 
z
" clip-path="url(#pe9a5042637)" style="fill: #7f7f7f; opacity: 0.5"/>
   </g>
   <g id="patch_99">
    <path d="M 277.605517 448.56 
L 279.401379 448.56 
L 279.401379 370.944 
L 277.605517 370.944 
z
" clip-path="url(#pe9a5042637)" style="fill: #7f7f7f; opacity: 0.5"/>
   </g>
   <g id="patch_100">
    <path d="M 279.850345 448.56 
L 281.646207 448.56 
L 281.646207 396.816 
L 279.850345 396.816 
z
" clip-path="url(#pe9a5042637)" style="fill: #7f7f7f; opacity: 0.5"/>
   </g>
   <g id="patch_101">
    <path d="M 282.095172 448.56 
L 283.891034 448.56 
L 283.891034 448.56 
L 282.095172 448.56 
z
" clip-path="url(#pe9a5042637)" style="fill: #7f7f7f; opacity: 0.5"/>
   </g>
   <g id="patch_102">
    <path d="M 284.34 448.56 
L 286.135862 448.56 
L 286.135862 448.56 
L 284.34 448.56 
z
" clip-path="url(#pe9a5042637)" style="fill: #7f7f7f; opacity: 0.5"/>
   </g>
   <g id="patch_103">
    <path d="M 286.584828 448.56 
L 288.38069 448.56 
L 288.38069 422.688 
L 286.584828 422.688 
z
" clip-path="url(#pe9a5042637)" style="fill: #7f7f7f; opacity: 0.5"/>
   </g>
   <g id="patch_104">
    <path d="M 288.829655 448.56 
L 290.625517 448.56 
L 290.625517 396.816 
L 288.829655 396.816 
z
" clip-path="url(#pe9a5042637)" style="fill: #7f7f7f; opacity: 0.5"/>
   </g>
   <g id="patch_105">
    <path d="M 291.074483 448.56 
L 292.870345 448.56 
L 292.870345 422.688 
L 291.074483 422.688 
z
" clip-path="url(#pe9a5042637)" style="fill: #7f7f7f; opacity: 0.5"/>
   </g>
   <g id="patch_106">
    <path d="M 293.31931 448.56 
L 295.115172 448.56 
L 295.115172 448.56 
L 293.31931 448.56 
z
" clip-path="url(#pe9a5042637)" style="fill: #7f7f7f; opacity: 0.5"/>
   </g>
   <g id="patch_107">
    <path d="M 295.564138 448.56 
L 297.36 448.56 
L 297.36 422.688 
L 295.564138 422.688 
z
" clip-path="url(#pe9a5042637)" style="fill: #7f7f7f; opacity: 0.5"/>
   </g>
   <g id="patch_108">
    <path d="M 297.808966 448.56 
L 299.604828 448.56 
L 299.604828 448.56 
L 297.808966 448.56 
z
" clip-path="url(#pe9a5042637)" style="fill: #7f7f7f; opacity: 0.5"/>
   </g>
   <g id="patch_109">
    <path d="M 300.053793 448.56 
L 301.849655 448.56 
L 301.849655 422.688 
L 300.053793 422.688 
z
" clip-path="url(#pe9a5042637)" style="fill: #7f7f7f; opacity: 0.5"/>
   </g>
   <g id="patch_110">
    <path d="M 302.298621 448.56 
L 304.094483 448.56 
L 304.094483 448.56 
L 302.298621 448.56 
z
" clip-path="url(#pe9a5042637)" style="fill: #7f7f7f; opacity: 0.5"/>
   </g>
   <g id="patch_111">
    <path d="M 304.543448 448.56 
L 306.33931 448.56 
L 306.33931 448.56 
L 304.543448 448.56 
z
" clip-path="url(#pe9a5042637)" style="fill: #7f7f7f; opacity: 0.5"/>
   </g>
   <g id="patch_112">
    <path d="M 306.788276 448.56 
L 308.584138 448.56 
L 308.584138 448.56 
L 306.788276 448.56 
z
" clip-path="url(#pe9a5042637)" style="fill: #7f7f7f; opacity: 0.5"/>
   </g>
   <g id="patch_113">
    <path d="M 309.033103 448.56 
L 310.828966 448.56 
L 310.828966 422.688 
L 309.033103 422.688 
z
" clip-path="url(#pe9a5042637)" style="fill: #7f7f7f; opacity: 0.5"/>
   </g>
   <g id="patch_114">
    <path d="M 311.277931 448.56 
L 313.073793 448.56 
L 313.073793 422.688 
L 311.277931 422.688 
z
" clip-path="url(#pe9a5042637)" style="fill: #7f7f7f; opacity: 0.5"/>
   </g>
   <g id="patch_115">
    <path d="M 313.522759 448.56 
L 315.318621 448.56 
L 315.318621 448.56 
L 313.522759 448.56 
z
" clip-path="url(#pe9a5042637)" style="fill: #7f7f7f; opacity: 0.5"/>
   </g>
   <g id="patch_116">
    <path d="M 315.767586 448.56 
L 317.563448 448.56 
L 317.563448 448.56 
L 315.767586 448.56 
z
" clip-path="url(#pe9a5042637)" style="fill: #7f7f7f; opacity: 0.5"/>
   </g>
   <g id="patch_117">
    <path d="M 318.012414 448.56 
L 319.808276 448.56 
L 319.808276 448.56 
L 318.012414 448.56 
z
" clip-path="url(#pe9a5042637)" style="fill: #7f7f7f; opacity: 0.5"/>
   </g>
   <g id="patch_118">
    <path d="M 320.257241 448.56 
L 322.053103 448.56 
L 322.053103 422.688 
L 320.257241 422.688 
z
" clip-path="url(#pe9a5042637)" style="fill: #7f7f7f; opacity: 0.5"/>
   </g>
   <g id="patch_119">
    <path d="M 322.502069 448.56 
L 324.297931 448.56 
L 324.297931 448.56 
L 322.502069 448.56 
z
" clip-path="url(#pe9a5042637)" style="fill: #7f7f7f; opacity: 0.5"/>
   </g>
   <g id="patch_120">
    <path d="M 324.746897 448.56 
L 326.542759 448.56 
L 326.542759 448.56 
L 324.746897 448.56 
z
" clip-path="url(#pe9a5042637)" style="fill: #7f7f7f; opacity: 0.5"/>
   </g>
   <g id="patch_121">
    <path d="M 326.991724 448.56 
L 328.787586 448.56 
L 328.787586 448.56 
L 326.991724 448.56 
z
" clip-path="url(#pe9a5042637)" style="fill: #7f7f7f; opacity: 0.5"/>
   </g>
   <g id="patch_122">
    <path d="M 329.236552 448.56 
L 331.032414 448.56 
L 331.032414 448.56 
L 329.236552 448.56 
z
" clip-path="url(#pe9a5042637)" style="fill: #7f7f7f; opacity: 0.5"/>
   </g>
   <g id="patch_123">
    <path d="M 331.481379 448.56 
L 333.277241 448.56 
L 333.277241 448.56 
L 331.481379 448.56 
z
" clip-path="url(#pe9a5042637)" style="fill: #7f7f7f; opacity: 0.5"/>
   </g>
   <g id="patch_124">
    <path d="M 333.726207 448.56 
L 335.522069 448.56 
L 335.522069 448.56 
L 333.726207 448.56 
z
" clip-path="url(#pe9a5042637)" style="fill: #7f7f7f; opacity: 0.5"/>
   </g>
   <g id="patch_125">
    <path d="M 335.971034 448.56 
L 337.766897 448.56 
L 337.766897 448.56 
L 335.971034 448.56 
z
" clip-path="url(#pe9a5042637)" style="fill: #7f7f7f; opacity: 0.5"/>
   </g>
   <g id="patch_126">
    <path d="M 338.215862 448.56 
L 340.011724 448.56 
L 340.011724 448.56 
L 338.215862 448.56 
z
" clip-path="url(#pe9a5042637)" style="fill: #7f7f7f; opacity: 0.5"/>
   </g>
   <g id="patch_127">
    <path d="M 340.46069 448.56 
L 342.256552 448.56 
L 342.256552 448.56 
L 340.46069 448.56 
z
" clip-path="url(#pe9a5042637)" style="fill: #7f7f7f; opacity: 0.5"/>
   </g>
   <g id="patch_128">
    <path d="M 342.705517 448.56 
L 344.501379 448.56 
L 344.501379 422.688 
L 342.705517 422.688 
z
" clip-path="url(#pe9a5042637)" style="fill: #7f7f7f; opacity: 0.5"/>
   </g>
   <g id="patch_129">
    <path d="M 344.950345 448.56 
L 346.746207 448.56 
L 346.746207 448.56 
L 344.950345 448.56 
z
" clip-path="url(#pe9a5042637)" style="fill: #7f7f7f; opacity: 0.5"/>
   </g>
   <g id="patch_130">
    <path d="M 347.195172 448.56 
L 348.991034 448.56 
L 348.991034 448.56 
L 347.195172 448.56 
z
" clip-path="url(#pe9a5042637)" style="fill: #7f7f7f; opacity: 0.5"/>
   </g>
   <g id="patch_131">
    <path d="M 349.44 448.56 
L 351.235862 448.56 
L 351.235862 448.56 
L 349.44 448.56 
z
" clip-path="url(#pe9a5042637)" style="fill: #7f7f7f; opacity: 0.5"/>
   </g>
   <g id="patch_132">
    <path d="M 351.684828 448.56 
L 353.48069 448.56 
L 353.48069 448.56 
L 351.684828 448.56 
z
" clip-path="url(#pe9a5042637)" style="fill: #7f7f7f; opacity: 0.5"/>
   </g>
   <g id="patch_133">
    <path d="M 353.929655 448.56 
L 355.725517 448.56 
L 355.725517 448.56 
L 353.929655 448.56 
z
" clip-path="url(#pe9a5042637)" style="fill: #7f7f7f; opacity: 0.5"/>
   </g>
   <g id="patch_134">
    <path d="M 356.174483 448.56 
L 357.970345 448.56 
L 357.970345 448.56 
L 356.174483 448.56 
z
" clip-path="url(#pe9a5042637)" style="fill: #7f7f7f; opacity: 0.5"/>
   </g>
   <g id="patch_135">
    <path d="M 358.41931 448.56 
L 360.215172 448.56 
L 360.215172 422.688 
L 358.41931 422.688 
z
" clip-path="url(#pe9a5042637)" style="fill: #7f7f7f; opacity: 0.5"/>
   </g>
   <g id="patch_136">
    <path d="M 360.664138 448.56 
L 362.46 448.56 
L 362.46 448.56 
L 360.664138 448.56 
z
" clip-path="url(#pe9a5042637)" style="fill: #7f7f7f; opacity: 0.5"/>
   </g>
   <g id="patch_137">
    <path d="M 362.908966 448.56 
L 364.704828 448.56 
L 364.704828 448.56 
L 362.908966 448.56 
z
" clip-path="url(#pe9a5042637)" style="fill: #7f7f7f; opacity: 0.5"/>
   </g>
   <g id="patch_138">
    <path d="M 365.153793 448.56 
L 366.949655 448.56 
L 366.949655 448.56 
L 365.153793 448.56 
z
" clip-path="url(#pe9a5042637)" style="fill: #7f7f7f; opacity: 0.5"/>
   </g>
   <g id="patch_139">
    <path d="M 367.398621 448.56 
L 369.194483 448.56 
L 369.194483 448.56 
L 367.398621 448.56 
z
" clip-path="url(#pe9a5042637)" style="fill: #7f7f7f; opacity: 0.5"/>
   </g>
   <g id="patch_140">
    <path d="M 369.643448 448.56 
L 371.43931 448.56 
L 371.43931 448.56 
L 369.643448 448.56 
z
" clip-path="url(#pe9a5042637)" style="fill: #7f7f7f; opacity: 0.5"/>
   </g>
   <g id="patch_141">
    <path d="M 371.888276 448.56 
L 373.684138 448.56 
L 373.684138 448.56 
L 371.888276 448.56 
z
" clip-path="url(#pe9a5042637)" style="fill: #7f7f7f; opacity: 0.5"/>
   </g>
   <g id="patch_142">
    <path d="M 374.133103 448.56 
L 375.928966 448.56 
L 375.928966 448.56 
L 374.133103 448.56 
z
" clip-path="url(#pe9a5042637)" style="fill: #7f7f7f; opacity: 0.5"/>
   </g>
   <g id="patch_143">
    <path d="M 376.377931 448.56 
L 378.173793 448.56 
L 378.173793 448.56 
L 376.377931 448.56 
z
" clip-path="url(#pe9a5042637)" style="fill: #7f7f7f; opacity: 0.5"/>
   </g>
   <g id="patch_144">
    <path d="M 378.622759 448.56 
L 380.418621 448.56 
L 380.418621 448.56 
L 378.622759 448.56 
z
" clip-path="url(#pe9a5042637)" style="fill: #7f7f7f; opacity: 0.5"/>
   </g>
   <g id="patch_145">
    <path d="M 380.867586 448.56 
L 382.663448 448.56 
L 382.663448 448.56 
L 380.867586 448.56 
z
" clip-path="url(#pe9a5042637)" style="fill: #7f7f7f; opacity: 0.5"/>
   </g>
   <g id="patch_146">
    <path d="M 383.112414 448.56 
L 384.908276 448.56 
L 384.908276 448.56 
L 383.112414 448.56 
z
" clip-path="url(#pe9a5042637)" style="fill: #7f7f7f; opacity: 0.5"/>
   </g>
   <g id="patch_147">
    <path d="M 385.357241 448.56 
L 387.153103 448.56 
L 387.153103 448.56 
L 385.357241 448.56 
z
" clip-path="url(#pe9a5042637)" style="fill: #7f7f7f; opacity: 0.5"/>
   </g>
   <g id="patch_148">
    <path d="M 387.602069 448.56 
L 389.397931 448.56 
L 389.397931 448.56 
L 387.602069 448.56 
z
" clip-path="url(#pe9a5042637)" style="fill: #7f7f7f; opacity: 0.5"/>
   </g>
   <g id="patch_149">
    <path d="M 389.846897 448.56 
L 391.642759 448.56 
L 391.642759 448.56 
L 389.846897 448.56 
z
" clip-path="url(#pe9a5042637)" style="fill: #7f7f7f; opacity: 0.5"/>
   </g>
   <g id="patch_150">
    <path d="M 392.091724 448.56 
L 393.887586 448.56 
L 393.887586 448.56 
L 392.091724 448.56 
z
" clip-path="url(#pe9a5042637)" style="fill: #7f7f7f; opacity: 0.5"/>
   </g>
   <g id="patch_151">
    <path d="M 394.336552 448.56 
L 396.132414 448.56 
L 396.132414 448.56 
L 394.336552 448.56 
z
" clip-path="url(#pe9a5042637)" style="fill: #7f7f7f; opacity: 0.5"/>
   </g>
   <g id="patch_152">
    <path d="M 396.581379 448.56 
L 398.377241 448.56 
L 398.377241 448.56 
L 396.581379 448.56 
z
" clip-path="url(#pe9a5042637)" style="fill: #7f7f7f; opacity: 0.5"/>
   </g>
   <g id="patch_153">
    <path d="M 398.826207 448.56 
L 400.622069 448.56 
L 400.622069 448.56 
L 398.826207 448.56 
z
" clip-path="url(#pe9a5042637)" style="fill: #7f7f7f; opacity: 0.5"/>
   </g>
   <g id="patch_154">
    <path d="M 401.071034 448.56 
L 402.866897 448.56 
L 402.866897 448.56 
L 401.071034 448.56 
z
" clip-path="url(#pe9a5042637)" style="fill: #7f7f7f; opacity: 0.5"/>
   </g>
   <g id="patch_155">
    <path d="M 403.315862 448.56 
L 405.111724 448.56 
L 405.111724 448.56 
L 403.315862 448.56 
z
" clip-path="url(#pe9a5042637)" style="fill: #7f7f7f; opacity: 0.5"/>
   </g>
   <g id="patch_156">
    <path d="M 405.56069 448.56 
L 407.356552 448.56 
L 407.356552 448.56 
L 405.56069 448.56 
z
" clip-path="url(#pe9a5042637)" style="fill: #7f7f7f; opacity: 0.5"/>
   </g>
   <g id="patch_157">
    <path d="M 407.805517 448.56 
L 409.601379 448.56 
L 409.601379 448.56 
L 407.805517 448.56 
z
" clip-path="url(#pe9a5042637)" style="fill: #7f7f7f; opacity: 0.5"/>
   </g>
   <g id="patch_158">
    <path d="M 410.050345 448.56 
L 411.846207 448.56 
L 411.846207 448.56 
L 410.050345 448.56 
z
" clip-path="url(#pe9a5042637)" style="fill: #7f7f7f; opacity: 0.5"/>
   </g>
   <g id="patch_159">
    <path d="M 412.295172 448.56 
L 414.091034 448.56 
L 414.091034 448.56 
L 412.295172 448.56 
z
" clip-path="url(#pe9a5042637)" style="fill: #7f7f7f; opacity: 0.5"/>
   </g>
   <g id="patch_160">
    <path d="M 414.54 448.56 
L 416.335862 448.56 
L 416.335862 448.56 
L 414.54 448.56 
z
" clip-path="url(#pe9a5042637)" style="fill: #7f7f7f; opacity: 0.5"/>
   </g>
   <g id="patch_161">
    <path d="M 416.784828 448.56 
L 418.58069 448.56 
L 418.58069 448.56 
L 416.784828 448.56 
z
" clip-path="url(#pe9a5042637)" style="fill: #7f7f7f; opacity: 0.5"/>
   </g>
   <g id="patch_162">
    <path d="M 419.029655 448.56 
L 420.825517 448.56 
L 420.825517 448.56 
L 419.029655 448.56 
z
" clip-path="url(#pe9a5042637)" style="fill: #7f7f7f; opacity: 0.5"/>
   </g>
   <g id="patch_163">
    <path d="M 421.274483 448.56 
L 423.070345 448.56 
L 423.070345 448.56 
L 421.274483 448.56 
z
" clip-path="url(#pe9a5042637)" style="fill: #7f7f7f; opacity: 0.5"/>
   </g>
   <g id="patch_164">
    <path d="M 423.51931 448.56 
L 425.315172 448.56 
L 425.315172 448.56 
L 423.51931 448.56 
z
" clip-path="url(#pe9a5042637)" style="fill: #7f7f7f; opacity: 0.5"/>
   </g>
   <g id="patch_165">
    <path d="M 425.764138 448.56 
L 427.56 448.56 
L 427.56 448.56 
L 425.764138 448.56 
z
" clip-path="url(#pe9a5042637)" style="fill: #7f7f7f; opacity: 0.5"/>
   </g>
   <g id="patch_166">
    <path d="M 428.008966 448.56 
L 429.804828 448.56 
L 429.804828 448.56 
L 428.008966 448.56 
z
" clip-path="url(#pe9a5042637)" style="fill: #7f7f7f; opacity: 0.5"/>
   </g>
   <g id="patch_167">
    <path d="M 430.253793 448.56 
L 432.049655 448.56 
L 432.049655 448.56 
L 430.253793 448.56 
z
" clip-path="url(#pe9a5042637)" style="fill: #7f7f7f; opacity: 0.5"/>
   </g>
   <g id="patch_168">
    <path d="M 432.498621 448.56 
L 434.294483 448.56 
L 434.294483 448.56 
L 432.498621 448.56 
z
" clip-path="url(#pe9a5042637)" style="fill: #7f7f7f; opacity: 0.5"/>
   </g>
   <g id="patch_169">
    <path d="M 434.743448 448.56 
L 436.53931 448.56 
L 436.53931 448.56 
L 434.743448 448.56 
z
" clip-path="url(#pe9a5042637)" style="fill: #7f7f7f; opacity: 0.5"/>
   </g>
   <g id="patch_170">
    <path d="M 436.988276 448.56 
L 438.784138 448.56 
L 438.784138 448.56 
L 436.988276 448.56 
z
" clip-path="url(#pe9a5042637)" style="fill: #7f7f7f; opacity: 0.5"/>
   </g>
   <g id="patch_171">
    <path d="M 439.233103 448.56 
L 441.028966 448.56 
L 441.028966 448.56 
L 439.233103 448.56 
z
" clip-path="url(#pe9a5042637)" style="fill: #7f7f7f; opacity: 0.5"/>
   </g>
   <g id="patch_172">
    <path d="M 441.477931 448.56 
L 443.273793 448.56 
L 443.273793 448.56 
L 441.477931 448.56 
z
" clip-path="url(#pe9a5042637)" style="fill: #7f7f7f; opacity: 0.5"/>
   </g>
   <g id="patch_173">
    <path d="M 443.722759 448.56 
L 445.518621 448.56 
L 445.518621 448.56 
L 443.722759 448.56 
z
" clip-path="url(#pe9a5042637)" style="fill: #7f7f7f; opacity: 0.5"/>
   </g>
   <g id="patch_174">
    <path d="M 445.967586 448.56 
L 447.763448 448.56 
L 447.763448 448.56 
L 445.967586 448.56 
z
" clip-path="url(#pe9a5042637)" style="fill: #7f7f7f; opacity: 0.5"/>
   </g>
   <g id="patch_175">
    <path d="M 448.212414 448.56 
L 450.008276 448.56 
L 450.008276 448.56 
L 448.212414 448.56 
z
" clip-path="url(#pe9a5042637)" style="fill: #7f7f7f; opacity: 0.5"/>
   </g>
   <g id="patch_176">
    <path d="M 450.457241 448.56 
L 452.253103 448.56 
L 452.253103 448.56 
L 450.457241 448.56 
z
" clip-path="url(#pe9a5042637)" style="fill: #7f7f7f; opacity: 0.5"/>
   </g>
   <g id="patch_177">
    <path d="M 452.702069 448.56 
L 454.497931 448.56 
L 454.497931 448.56 
L 452.702069 448.56 
z
" clip-path="url(#pe9a5042637)" style="fill: #7f7f7f; opacity: 0.5"/>
   </g>
   <g id="patch_178">
    <path d="M 453.6 448.56 
L 453.6 60.48 
" style="fill: none; stroke: #7f7f7f; stroke-width: 0.8; stroke-linejoin: miter; stroke-linecap: square"/>
   </g>
  </g>
  <g id="axes_2">
   <g id="FillBetweenPolyCollection_1">
    <defs>
     <path id="m6de9e76cd8" d="M 63 -454.626749 
L 63 -96.496119 
L 65.244828 -99.15378 
L 67.489655 -99.373625 
L 69.734483 -95.559382 
L 71.97931 -93.296409 
L 74.224138 -91.174743 
L 76.468966 -88.750779 
L 78.713793 -86.911678 
L 80.958621 -85.728742 
L 83.203448 -84.514891 
L 85.448276 -82.711984 
L 87.693103 -81.568881 
L 89.937931 -80.915153 
L 92.182759 -79.963584 
L 94.427586 -79.847675 
L 96.672414 -79.901572 
L 98.917241 -79.89253 
L 101.162069 -80.38168 
L 103.406897 -81.078947 
L 105.651724 -82.1773 
L 107.896552 -82.621917 
L 110.141379 -83.574439 
L 112.386207 -85.082367 
L 114.631034 -86.261537 
L 116.875862 -87.210908 
L 119.12069 -88.287955 
L 121.365517 -89.593633 
L 123.610345 -90.139731 
L 125.855172 -91.315832 
L 128.1 -92.235549 
L 130.344828 -92.873644 
L 132.589655 -94.066848 
L 134.834483 -94.442903 
L 137.07931 -94.654263 
L 139.324138 -96.741604 
L 141.568966 -97.827376 
L 143.813793 -101.122804 
L 146.058621 -105.29137 
L 148.303448 -106.848435 
L 150.548276 -106.770398 
L 152.793103 -107.499795 
L 155.037931 -107.257024 
L 157.282759 -108.323839 
L 159.527586 -109.761106 
L 161.772414 -108.495804 
L 164.017241 -110.325597 
L 166.262069 -112.597311 
L 168.506897 -117.721097 
L 170.751724 -119.819551 
L 172.996552 -121.056546 
L 175.241379 -122.508069 
L 177.486207 -128.030164 
L 179.731034 -131.778542 
L 181.975862 -138.565063 
L 184.22069 -135.215461 
L 186.465517 -132.741932 
L 188.710345 -123.047104 
L 190.955172 -115.083158 
L 193.2 -109.267594 
L 195.444828 -103.705098 
L 197.689655 -95.313003 
L 199.934483 -90.96232 
L 202.17931 -90.952634 
L 204.424138 -87.726673 
L 206.668966 -87.703913 
L 208.913793 -88.64004 
L 211.158621 -94.413123 
L 213.403448 -97.663877 
L 215.648276 -99.864285 
L 217.893103 -101.82462 
L 220.137931 -106.004139 
L 222.382759 -110.259732 
L 224.627586 -109.881442 
L 226.872414 -105.211014 
L 229.117241 -103.222902 
L 231.362069 -97.097853 
L 233.606897 -99.500431 
L 235.851724 -93.933343 
L 238.096552 -85.684971 
L 240.341379 -80.586249 
L 242.586207 -78.271376 
L 244.831034 -79.152863 
L 247.075862 -82.177259 
L 249.32069 -85.053045 
L 251.565517 -82.577887 
L 253.810345 -80.989079 
L 256.055172 -77.744887 
L 258.3 -75.532408 
L 260.544828 -73.124015 
L 262.789655 -71.287871 
L 265.034483 -69.987537 
L 267.27931 -69.234079 
L 269.524138 -69.536202 
L 271.768966 -70.368215 
L 274.013793 -71.219357 
L 276.258621 -71.625814 
L 278.503448 -72.492085 
L 280.748276 -72.596466 
L 282.993103 -72.324033 
L 285.237931 -72.817833 
L 287.482759 -73.812715 
L 289.727586 -74.762158 
L 291.972414 -75.279749 
L 294.217241 -75.445325 
L 296.462069 -76.174971 
L 298.706897 -76.54241 
L 300.951724 -77.186425 
L 303.196552 -77.010842 
L 305.441379 -77.895457 
L 307.686207 -78.779748 
L 309.931034 -79.797489 
L 312.175862 -80.197844 
L 314.42069 -80.403469 
L 316.665517 -80.34944 
L 318.910345 -80.342282 
L 321.155172 -80.83674 
L 323.4 -80.371523 
L 325.644828 -80.254388 
L 327.889655 -80.079467 
L 330.134483 -80.013413 
L 332.37931 -79.761017 
L 334.624138 -79.741626 
L 336.868966 -79.974623 
L 339.113793 -80.020835 
L 341.358621 -80.167297 
L 343.603448 -80.700402 
L 345.848276 -80.149646 
L 348.093103 -79.635717 
L 350.337931 -79.68458 
L 352.582759 -79.225402 
L 354.827586 -79.089169 
L 357.072414 -78.804308 
L 359.317241 -78.369576 
L 361.562069 -77.719393 
L 363.806897 -77.161142 
L 366.051724 -76.518234 
L 368.296552 -75.641062 
L 370.541379 -75.169822 
L 372.786207 -74.095076 
L 375.031034 -73.666891 
L 377.275862 -73.13448 
L 379.52069 -72.902766 
L 381.765517 -72.444988 
L 384.010345 -71.858833 
L 386.255172 -71.825652 
L 388.5 -71.331328 
L 390.744828 -70.542999 
L 392.989655 -70.362618 
L 395.234483 -70.125159 
L 397.47931 -69.75774 
L 399.724138 -69.499926 
L 401.968966 -69.037681 
L 404.213793 -69.244272 
L 406.458621 -68.997129 
L 408.703448 -68.612762 
L 410.948276 -68.35425 
L 413.193103 -68.245593 
L 415.437931 -68.203637 
L 417.682759 -68.00539 
L 419.927586 -67.721813 
L 422.172414 -67.642442 
L 424.417241 -67.48364 
L 426.662069 -67.427404 
L 428.906897 -67.163058 
L 431.151724 -67.015427 
L 433.396552 -66.77573 
L 435.641379 -66.745358 
L 437.886207 -66.78328 
L 440.131034 -66.728682 
L 442.375862 -66.475108 
L 444.62069 -66.548921 
L 446.865517 -66.456392 
L 449.110345 -66.334175 
L 451.355172 -66.211926 
L 453.6 -66.091843 
L 453.6 -301.262981 
L 453.6 -301.262981 
L 451.355172 -298.863064 
L 449.110345 -300.095987 
L 446.865517 -302.49159 
L 444.62069 -299.770554 
L 442.375862 -301.664034 
L 440.131034 -302.242751 
L 437.886207 -306.98474 
L 435.641379 -305.303524 
L 433.396552 -306.126596 
L 431.151724 -307.082251 
L 428.906897 -303.784308 
L 426.662069 -304.998476 
L 424.417241 -307.22165 
L 422.172414 -309.066248 
L 419.927586 -309.766511 
L 417.682759 -310.394777 
L 415.437931 -309.914831 
L 413.193103 -309.260682 
L 410.948276 -309.787139 
L 408.703448 -313.495707 
L 406.458621 -315.101939 
L 404.213793 -316.896257 
L 401.968966 -315.329543 
L 399.724138 -314.744949 
L 397.47931 -318.541079 
L 395.234483 -323.40615 
L 392.989655 -322.432143 
L 390.744828 -321.350239 
L 388.5 -320.073128 
L 386.255172 -320.843798 
L 384.010345 -324.319104 
L 381.765517 -323.3966 
L 379.52069 -328.091888 
L 377.275862 -331.410311 
L 375.031034 -333.944127 
L 372.786207 -337.985475 
L 370.541379 -338.566038 
L 368.296552 -342.399042 
L 366.051724 -340.555063 
L 363.806897 -348.523287 
L 361.562069 -349.804601 
L 359.317241 -361.090715 
L 357.072414 -355.565228 
L 354.827586 -346.345805 
L 352.582759 -341.758148 
L 350.337931 -334.534885 
L 348.093103 -331.436887 
L 345.848276 -325.949355 
L 343.603448 -325.82921 
L 341.358621 -314.506952 
L 339.113793 -300.188465 
L 336.868966 -295.420239 
L 334.624138 -284.753564 
L 332.37931 -277.459275 
L 330.134483 -273.294459 
L 327.889655 -265.215906 
L 325.644828 -259.581344 
L 323.4 -253.813895 
L 321.155172 -248.331367 
L 318.910345 -236.152416 
L 316.665517 -227.415155 
L 314.42069 -219.042937 
L 312.175862 -212.710301 
L 309.931034 -203.246362 
L 307.686207 -189.370825 
L 305.441379 -178.876497 
L 303.196552 -171.345334 
L 300.951724 -163.989305 
L 298.706897 -154.439981 
L 296.462069 -148.195855 
L 294.217241 -141.254402 
L 291.972414 -136.354429 
L 289.727586 -132.360225 
L 287.482759 -123.417962 
L 285.237931 -117.2372 
L 282.993103 -113.342524 
L 280.748276 -111.617977 
L 278.503448 -109.748488 
L 276.258621 -104.987766 
L 274.013793 -102.618233 
L 271.768966 -98.699637 
L 269.524138 -95.329732 
L 267.27931 -93.463925 
L 265.034483 -94.440799 
L 262.789655 -96.302276 
L 260.544828 -99.432511 
L 258.3 -103.689006 
L 256.055172 -107.374462 
L 253.810345 -113.626383 
L 251.565517 -115.726725 
L 249.32069 -120.844525 
L 247.075862 -113.645353 
L 244.831034 -108.267842 
L 242.586207 -106.346827 
L 240.341379 -111.034003 
L 238.096552 -120.236833 
L 235.851724 -137.172526 
L 233.606897 -148.875188 
L 231.362069 -142.23785 
L 229.117241 -154.468296 
L 226.872414 -157.176458 
L 224.627586 -167.674436 
L 222.382759 -169.177392 
L 220.137931 -161.238343 
L 217.893103 -153.759199 
L 215.648276 -149.596598 
L 213.403448 -145.143081 
L 211.158621 -140.299528 
L 208.913793 -129.675199 
L 206.668966 -128.135766 
L 204.424138 -129.658112 
L 202.17931 -137.989577 
L 199.934483 -139.055736 
L 197.689655 -149.509796 
L 195.444828 -168.862945 
L 193.2 -182.811564 
L 190.955172 -197.357524 
L 188.710345 -219.371156 
L 186.465517 -244.288477 
L 184.22069 -252.034545 
L 181.975862 -261.920954 
L 179.731034 -252.411013 
L 177.486207 -242.501322 
L 175.241379 -232.571824 
L 172.996552 -233.102206 
L 170.751724 -232.945035 
L 168.506897 -232.380807 
L 166.262069 -221.28369 
L 164.017241 -216.615595 
L 161.772414 -217.652412 
L 159.527586 -223.72895 
L 157.282759 -220.965651 
L 155.037931 -221.0512 
L 152.793103 -222.908656 
L 150.548276 -223.171129 
L 148.303448 -226.516822 
L 146.058621 -223.936312 
L 143.813793 -212.944141 
L 141.568966 -208.225156 
L 139.324138 -206.794181 
L 137.07931 -205.282549 
L 134.834483 -206.15926 
L 132.589655 -205.756652 
L 130.344828 -205.99433 
L 128.1 -207.145637 
L 125.855172 -203.928154 
L 123.610345 -199.754855 
L 121.365517 -196.607466 
L 119.12069 -192.492267 
L 116.875862 -188.361316 
L 114.631034 -183.462508 
L 112.386207 -179.310152 
L 110.141379 -173.090381 
L 107.896552 -167.291001 
L 105.651724 -164.472662 
L 103.406897 -158.639835 
L 101.162069 -155.773475 
L 98.917241 -154.24882 
L 96.672414 -152.589754 
L 94.427586 -153.357668 
L 92.182759 -157.624135 
L 89.937931 -162.744976 
L 87.693103 -170.98401 
L 85.448276 -181.596816 
L 83.203448 -196.593822 
L 80.958621 -213.279993 
L 78.713793 -235.229649 
L 76.468966 -262.916424 
L 74.224138 -291.149967 
L 71.97931 -333.846271 
L 69.734483 -375.875594 
L 67.489655 -421.008991 
L 65.244828 -446.542352 
L 63 -454.626749 
z
" style="stroke: #0173b2; stroke-opacity: 0.2"/>
    </defs>
    <g clip-path="url(#pe9a5042637)">
     <use xlink:href="#m6de9e76cd8" x="0" y="504" style="fill: #0173b2; fill-opacity: 0.2; stroke: #0173b2; stroke-opacity: 0.2"/>
    </g>
   </g>
   <g id="FillBetweenPolyCollection_2">
    <defs>
     <path id="me35501e2ab" d="M 63 -371.880019 
L 63 -88.234471 
L 65.244828 -89.038986 
L 67.489655 -89.111826 
L 69.734483 -86.749469 
L 71.97931 -84.077116 
L 74.224138 -82.044618 
L 76.468966 -80.279699 
L 78.713793 -78.892738 
L 80.958621 -77.724395 
L 83.203448 -76.836625 
L 85.448276 -75.565093 
L 87.693103 -74.811836 
L 89.937931 -74.272801 
L 92.182759 -74.011584 
L 94.427586 -74.347695 
L 96.672414 -74.780855 
L 98.917241 -75.538794 
L 101.162069 -76.70867 
L 103.406897 -77.854312 
L 105.651724 -78.956801 
L 107.896552 -80.806242 
L 110.141379 -82.295382 
L 112.386207 -84.416495 
L 114.631034 -86.080851 
L 116.875862 -87.710513 
L 119.12069 -88.570841 
L 121.365517 -90.250862 
L 123.610345 -91.931807 
L 125.855172 -93.777987 
L 128.1 -94.381417 
L 130.344828 -95.139296 
L 132.589655 -97.171881 
L 134.834483 -97.343332 
L 137.07931 -96.881648 
L 139.324138 -98.199754 
L 141.568966 -98.396122 
L 143.813793 -100.663766 
L 146.058621 -105.561725 
L 148.303448 -106.493928 
L 150.548276 -104.554307 
L 152.793103 -104.812253 
L 155.037931 -104.873738 
L 157.282759 -105.899079 
L 159.527586 -107.846726 
L 161.772414 -107.529378 
L 164.017241 -109.522065 
L 166.262069 -112.31183 
L 168.506897 -119.800219 
L 170.751724 -122.281367 
L 172.996552 -124.674223 
L 175.241379 -128.539814 
L 177.486207 -135.657767 
L 179.731034 -140.818695 
L 181.975862 -147.985198 
L 184.22069 -143.719701 
L 186.465517 -140.801222 
L 188.710345 -129.101866 
L 190.955172 -119.929418 
L 193.2 -111.775139 
L 195.444828 -104.166952 
L 197.689655 -94.773618 
L 199.934483 -89.805958 
L 202.17931 -89.702348 
L 204.424138 -86.745355 
L 206.668966 -86.788424 
L 208.913793 -87.74458 
L 211.158621 -93.905047 
L 213.403448 -97.715686 
L 215.648276 -100.425594 
L 217.893103 -103.011675 
L 220.137931 -107.983383 
L 222.382759 -113.45885 
L 224.627586 -112.383398 
L 226.872414 -107.637044 
L 229.117241 -106.230892 
L 231.362069 -99.575035 
L 233.606897 -101.211033 
L 235.851724 -96.019461 
L 238.096552 -86.568613 
L 240.341379 -81.569111 
L 242.586207 -79.000733 
L 244.831034 -79.496614 
L 247.075862 -82.833867 
L 249.32069 -85.539795 
L 251.565517 -82.806682 
L 253.810345 -81.316332 
L 256.055172 -77.454848 
L 258.3 -75.161159 
L 260.544828 -72.781796 
L 262.789655 -71.145289 
L 265.034483 -69.893589 
L 267.27931 -69.294909 
L 269.524138 -69.348738 
L 271.768966 -70.324078 
L 274.013793 -71.000722 
L 276.258621 -71.471265 
L 278.503448 -72.315682 
L 280.748276 -72.228173 
L 282.993103 -72.309592 
L 285.237931 -72.876888 
L 287.482759 -73.984919 
L 289.727586 -74.765576 
L 291.972414 -74.648152 
L 294.217241 -74.83131 
L 296.462069 -75.314056 
L 298.706897 -75.967293 
L 300.951724 -76.822356 
L 303.196552 -77.224037 
L 305.441379 -77.237477 
L 307.686207 -77.870454 
L 309.931034 -78.936202 
L 312.175862 -79.673573 
L 314.42069 -79.742503 
L 316.665517 -79.591779 
L 318.910345 -79.880394 
L 321.155172 -79.584929 
L 323.4 -79.788767 
L 325.644828 -79.001598 
L 327.889655 -78.999376 
L 330.134483 -78.817497 
L 332.37931 -78.521316 
L 334.624138 -78.198799 
L 336.868966 -78.115918 
L 339.113793 -78.233456 
L 341.358621 -79.003075 
L 343.603448 -78.919934 
L 345.848276 -78.299023 
L 348.093103 -77.126235 
L 350.337931 -77.147474 
L 352.582759 -76.525686 
L 354.827586 -76.208541 
L 357.072414 -76.098617 
L 359.317241 -76.136869 
L 361.562069 -75.080272 
L 363.806897 -74.410373 
L 366.051724 -74.064335 
L 368.296552 -73.802857 
L 370.541379 -73.844457 
L 372.786207 -73.162793 
L 375.031034 -72.402157 
L 377.275862 -72.192115 
L 379.52069 -71.520229 
L 381.765517 -70.887564 
L 384.010345 -71.206012 
L 386.255172 -71.020424 
L 388.5 -70.892063 
L 390.744828 -69.746645 
L 392.989655 -69.455162 
L 395.234483 -69.135856 
L 397.47931 -68.979445 
L 399.724138 -68.91119 
L 401.968966 -68.194517 
L 404.213793 -68.011101 
L 406.458621 -68.17148 
L 408.703448 -67.65008 
L 410.948276 -67.959491 
L 413.193103 -68.007549 
L 415.437931 -67.692315 
L 417.682759 -67.370798 
L 419.927586 -67.608207 
L 422.172414 -66.85691 
L 424.417241 -66.952119 
L 426.662069 -67.122663 
L 428.906897 -66.911289 
L 431.151724 -67.038291 
L 433.396552 -66.798756 
L 435.641379 -66.362853 
L 437.886207 -66.300799 
L 440.131034 -65.762243 
L 442.375862 -65.770165 
L 444.62069 -65.571971 
L 446.865517 -65.44316 
L 449.110345 -65.33909 
L 451.355172 -65.123952 
L 453.6 -64.977599 
L 453.6 -302.268316 
L 453.6 -302.268316 
L 451.355172 -303.610777 
L 449.110345 -307.135887 
L 446.865517 -304.048573 
L 444.62069 -304.889318 
L 442.375862 -304.812371 
L 440.131034 -308.676414 
L 437.886207 -303.385601 
L 435.641379 -306.026557 
L 433.396552 -301.730954 
L 431.151724 -297.342512 
L 428.906897 -302.29847 
L 426.662069 -306.843122 
L 424.417241 -300.50106 
L 422.172414 -302.510231 
L 419.927586 -304.74668 
L 417.682759 -311.236114 
L 415.437931 -310.60293 
L 413.193103 -310.463504 
L 410.948276 -313.501961 
L 408.703448 -316.885571 
L 406.458621 -318.457749 
L 404.213793 -320.570993 
L 401.968966 -319.723209 
L 399.724138 -322.891396 
L 397.47931 -320.48033 
L 395.234483 -321.879934 
L 392.989655 -323.844624 
L 390.744828 -325.078263 
L 388.5 -323.445634 
L 386.255172 -327.991523 
L 384.010345 -325.731865 
L 381.765517 -329.120731 
L 379.52069 -328.142214 
L 377.275862 -327.017467 
L 375.031034 -336.936659 
L 372.786207 -340.818538 
L 370.541379 -349.739439 
L 368.296552 -356.453759 
L 366.051724 -364.888347 
L 363.806897 -365.733049 
L 361.562069 -370.461771 
L 359.317241 -363.638055 
L 357.072414 -363.513788 
L 354.827586 -350.617989 
L 352.582759 -345.777582 
L 350.337931 -340.202562 
L 348.093103 -341.894317 
L 345.848276 -335.487591 
L 343.603448 -326.846345 
L 341.358621 -306.231041 
L 339.113793 -296.850681 
L 336.868966 -284.787935 
L 334.624138 -275.904175 
L 332.37931 -263.847758 
L 330.134483 -253.985828 
L 327.889655 -248.575002 
L 325.644828 -245.360987 
L 323.4 -242.766731 
L 321.155172 -234.820467 
L 318.910345 -227.367873 
L 316.665517 -217.842123 
L 314.42069 -210.496204 
L 312.175862 -206.704349 
L 309.931034 -196.669351 
L 307.686207 -187.515358 
L 305.441379 -177.177591 
L 303.196552 -167.106481 
L 300.951724 -163.17347 
L 298.706897 -153.388493 
L 296.462069 -148.669173 
L 294.217241 -140.583014 
L 291.972414 -136.90152 
L 289.727586 -128.806891 
L 287.482759 -121.910362 
L 285.237931 -115.544364 
L 282.993103 -112.405097 
L 280.748276 -110.545617 
L 278.503448 -107.835848 
L 276.258621 -102.89267 
L 274.013793 -100.975392 
L 271.768966 -97.392811 
L 269.524138 -93.824263 
L 267.27931 -92.917156 
L 265.034483 -93.532161 
L 262.789655 -95.834841 
L 260.544828 -98.268317 
L 258.3 -102.776759 
L 256.055172 -106.324216 
L 253.810345 -111.373748 
L 251.565517 -114.40235 
L 249.32069 -119.186799 
L 247.075862 -113.379184 
L 244.831034 -107.935293 
L 242.586207 -105.901979 
L 240.341379 -111.665529 
L 238.096552 -121.169738 
L 235.851724 -137.172946 
L 233.606897 -150.795355 
L 231.362069 -144.075396 
L 229.117241 -156.424738 
L 226.872414 -158.553453 
L 224.627586 -169.260434 
L 222.382759 -168.211301 
L 220.137931 -160.639014 
L 217.893103 -150.873687 
L 215.648276 -145.696914 
L 213.403448 -141.916571 
L 211.158621 -137.344488 
L 208.913793 -125.235087 
L 206.668966 -122.342846 
L 204.424138 -125.750962 
L 202.17931 -133.022847 
L 199.934483 -133.658455 
L 197.689655 -143.55194 
L 195.444828 -163.798441 
L 193.2 -179.728346 
L 190.955172 -193.550971 
L 188.710345 -219.154976 
L 186.465517 -246.510587 
L 184.22069 -257.119667 
L 181.975862 -264.899474 
L 179.731034 -253.729047 
L 177.486207 -242.5317 
L 175.241379 -231.766396 
L 172.996552 -231.233634 
L 170.751724 -226.302191 
L 168.506897 -221.271345 
L 166.262069 -213.483174 
L 164.017241 -203.403952 
L 161.772414 -202.290135 
L 159.527586 -211.889738 
L 157.282759 -213.036358 
L 155.037931 -208.253739 
L 152.793103 -209.104854 
L 150.548276 -212.134625 
L 148.303448 -216.162234 
L 146.058621 -216.213791 
L 143.813793 -208.570222 
L 141.568966 -206.719687 
L 139.324138 -205.010774 
L 137.07931 -205.905485 
L 134.834483 -213.458678 
L 132.589655 -217.774699 
L 130.344828 -217.292034 
L 128.1 -219.43809 
L 125.855172 -218.124307 
L 123.610345 -219.266987 
L 121.365517 -216.010237 
L 119.12069 -206.7231 
L 116.875862 -201.081138 
L 114.631034 -190.272834 
L 112.386207 -179.806979 
L 110.141379 -171.449036 
L 107.896552 -162.66959 
L 105.651724 -155.078679 
L 103.406897 -147.166797 
L 101.162069 -142.143338 
L 98.917241 -140.993661 
L 96.672414 -136.383979 
L 94.427586 -134.527548 
L 92.182759 -136.316937 
L 89.937931 -139.029197 
L 87.693103 -142.835817 
L 85.448276 -151.70028 
L 83.203448 -163.673788 
L 80.958621 -178.4174 
L 78.713793 -197.069871 
L 76.468966 -216.512907 
L 74.224138 -240.49828 
L 71.97931 -269.048743 
L 69.734483 -298.188489 
L 67.489655 -341.307162 
L 65.244828 -369.725978 
L 63 -371.880019 
z
" style="stroke: #e377c2; stroke-opacity: 0.2"/>
    </defs>
    <g clip-path="url(#pe9a5042637)">
     <use xlink:href="#me35501e2ab" x="0" y="504" style="fill: #e377c2; fill-opacity: 0.2; stroke: #e377c2; stroke-opacity: 0.2"/>
    </g>
   </g>
   <g id="matplotlib.axis_2">
    <g id="xtick_1">
     <g id="line2d_9">
      <defs>
       <path id="meb837373fa" d="M 0 0 
L 0 3.5 
" style="stroke: #000000; stroke-width: 0.8"/>
      </defs>
      <g>
       <use xlink:href="#meb837373fa" x="74.224138" y="448.56" style="stroke: #000000; stroke-width: 0.8"/>
      </g>
     </g>
     <g id="text_10">
      <text style="font-size: 16px; font-family: 'Arial', sans-serif; text-anchor: middle" x="74.224138" y="467.208438" transform="rotate(-0 74.224138 467.208438)">1 Jul</text>
     </g>
    </g>
    <g id="xtick_2">
     <g id="line2d_10">
      <g>
       <use xlink:href="#meb837373fa" x="143.813793" y="448.56" style="stroke: #000000; stroke-width: 0.8"/>
      </g>
     </g>
     <g id="text_11">
      <text style="font-size: 16px; font-family: 'Arial', sans-serif; text-anchor: middle" x="143.813793" y="467.208438" transform="rotate(-0 143.813793 467.208438)">1 Aug</text>
     </g>
    </g>
    <g id="xtick_3">
     <g id="line2d_11">
      <g>
       <use xlink:href="#meb837373fa" x="213.403448" y="448.56" style="stroke: #000000; stroke-width: 0.8"/>
      </g>
     </g>
     <g id="text_12">
      <text style="font-size: 16px; font-family: 'Arial', sans-serif; text-anchor: middle" x="213.403448" y="467.208438" transform="rotate(-0 213.403448 467.208438)">1 Sep</text>
     </g>
    </g>
    <g id="xtick_4">
     <g id="line2d_12">
      <g>
       <use xlink:href="#meb837373fa" x="280.748276" y="448.56" style="stroke: #000000; stroke-width: 0.8"/>
      </g>
     </g>
     <g id="text_13">
      <text style="font-size: 16px; font-family: 'Arial', sans-serif; text-anchor: middle" x="280.748276" y="467.2175" transform="rotate(-0 280.748276 467.2175)">1 Oct</text>
     </g>
    </g>
    <g id="xtick_5">
     <g id="line2d_13">
      <g>
       <use xlink:href="#meb837373fa" x="350.337931" y="448.56" style="stroke: #000000; stroke-width: 0.8"/>
      </g>
     </g>
     <g id="text_14">
      <text style="font-size: 16px; font-family: 'Arial', sans-serif; text-anchor: middle" x="350.337931" y="467.208438" transform="rotate(-0 350.337931 467.208438)">1 Nov</text>
     </g>
    </g>
    <g id="xtick_6">
     <g id="line2d_14">
      <g>
       <use xlink:href="#meb837373fa" x="417.682759" y="448.56" style="stroke: #000000; stroke-width: 0.8"/>
      </g>
     </g>
     <g id="text_15">
      <text style="font-size: 16px; font-family: 'Arial', sans-serif; text-anchor: middle" x="417.682759" y="467.208438" transform="rotate(-0 417.682759 467.208438)">1 Dec</text>
     </g>
    </g>
    <g id="text_16">
     <text style="font-size: 16px; font-family: 'Arial', sans-serif; text-anchor: middle" x="258.3" y="486.233125" transform="rotate(-0 258.3 486.233125)">Date (2017)</text>
    </g>
   </g>
   <g id="matplotlib.axis_3">
    <g id="ytick_9">
     <g id="line2d_15">
      <defs>
       <path id="m8a42d83e00" d="M 0 0 
L -3.5 0 
" style="stroke: #000000; stroke-width: 0.8"/>
      </defs>
      <g>
       <use xlink:href="#m8a42d83e00" x="63" y="448.56" style="stroke: #000000; stroke-width: 0.8"/>
      </g>
     </g>
     <g id="text_17">
      <text style="font-size: 16px; font-family: 'Arial', sans-serif; text-anchor: end" x="56" y="454.384219" transform="rotate(-0 56 454.384219)">0</text>
     </g>
    </g>
    <g id="ytick_10">
     <g id="line2d_16">
      <g>
       <use xlink:href="#m8a42d83e00" x="63" y="370.944" style="stroke: #000000; stroke-width: 0.8"/>
      </g>
     </g>
     <g id="text_18">
      <text style="font-size: 16px; font-family: 'Arial', sans-serif; text-anchor: end" x="56" y="376.768219" transform="rotate(-0 56 376.768219)">2</text>
     </g>
    </g>
    <g id="ytick_11">
     <g id="line2d_17">
      <g>
       <use xlink:href="#m8a42d83e00" x="63" y="293.328" style="stroke: #000000; stroke-width: 0.8"/>
      </g>
     </g>
     <g id="text_19">
      <text style="font-size: 16px; font-family: 'Arial', sans-serif; text-anchor: end" x="56" y="299.152219" transform="rotate(-0 56 299.152219)">4</text>
     </g>
    </g>
    <g id="ytick_12">
     <g id="line2d_18">
      <g>
       <use xlink:href="#m8a42d83e00" x="63" y="215.712" style="stroke: #000000; stroke-width: 0.8"/>
      </g>
     </g>
     <g id="text_20">
      <text style="font-size: 16px; font-family: 'Arial', sans-serif; text-anchor: end" x="56" y="221.536219" transform="rotate(-0 56 221.536219)">6</text>
     </g>
    </g>
    <g id="ytick_13">
     <g id="line2d_19">
      <g>
       <use xlink:href="#m8a42d83e00" x="63" y="138.096" style="stroke: #000000; stroke-width: 0.8"/>
      </g>
     </g>
     <g id="text_21">
      <text style="font-size: 16px; font-family: 'Arial', sans-serif; text-anchor: end" x="56" y="143.920219" transform="rotate(-0 56 143.920219)">8</text>
     </g>
    </g>
    <g id="ytick_14">
     <g id="line2d_20">
      <g>
       <use xlink:href="#m8a42d83e00" x="63" y="60.48" style="stroke: #000000; stroke-width: 0.8"/>
      </g>
     </g>
     <g id="text_22">
      <text style="font-size: 16px; font-family: 'Arial', sans-serif; text-anchor: end" x="56" y="66.304219" transform="rotate(-0 56 66.304219)">10</text>
     </g>
    </g>
    <g id="text_23">
     <text style="font-size: 16px; font-family: 'Arial', sans-serif; text-anchor: middle" x="30.837812" y="254.52" transform="rotate(-90 30.837812 254.52)">Reproduction-number factor</text>
    </g>
   </g>
   <g id="line2d_21">
    <path d="M 63 295.850804 
L 65.244828 293.20925 
L 67.489655 300.271114 
L 69.734483 316.236644 
L 71.97931 330.580779 
L 74.224138 343.168616 
L 76.468966 354.167259 
L 78.713793 363.404966 
L 80.958621 370.816999 
L 83.203448 376.599677 
L 85.448276 383.099413 
L 87.693103 387.942726 
L 89.937931 391.482409 
L 92.182759 393.780471 
L 94.427586 395.174621 
L 96.672414 395.735241 
L 98.917241 395.293996 
L 101.162069 394.345335 
L 103.406897 392.743862 
L 105.651724 390.234372 
L 107.896552 388.965456 
L 110.141379 386.663916 
L 112.386207 383.295433 
L 114.631034 381.292781 
L 116.875862 378.405594 
L 119.12069 376.791228 
L 121.365517 374.133234 
L 123.610345 372.847205 
L 125.855172 370.259263 
L 128.1 368.768803 
L 130.344828 368.831839 
L 132.589655 367.154192 
L 134.834483 366.460936 
L 137.07931 366.543168 
L 139.324138 364.421679 
L 141.568966 363.148587 
L 143.813793 359.116581 
L 146.058621 351.453109 
L 148.303448 349.755825 
L 150.548276 350.665249 
L 152.793103 351.075351 
L 155.037931 350.899475 
L 157.282759 350.14416 
L 159.527586 348.215882 
L 161.772414 351.601893 
L 164.017241 350.240192 
L 166.262069 346.216747 
L 168.506897 338.589376 
L 170.751724 336.6174 
L 172.996552 335.765252 
L 175.241379 335.1469 
L 177.486207 328.309671 
L 179.731034 322.100041 
L 181.975862 313.799284 
L 184.22069 319.520864 
L 186.465517 324.707684 
L 188.710345 340.348837 
L 190.955172 353.997649 
L 195.444828 372.38238 
L 197.689655 385.730152 
L 199.934483 392.544754 
L 202.17931 392.574107 
L 204.424138 398.206194 
L 206.668966 398.831497 
L 208.913793 397.640043 
L 211.158621 389.689399 
L 213.403448 385.670095 
L 215.648276 382.553852 
L 217.893103 379.770559 
L 222.382759 367.972638 
L 224.627586 368.504546 
L 226.872414 375.822236 
L 229.117241 378.024836 
L 231.362069 386.956727 
L 233.606897 382.919925 
L 235.851724 391.349741 
L 238.096552 403.241008 
L 240.341379 410.111412 
L 242.586207 413.507876 
L 244.831034 412.165663 
L 247.075862 407.992397 
L 249.32069 403.409346 
L 251.565517 406.839497 
L 253.810345 409.024382 
L 256.055172 413.546138 
L 258.3 416.428427 
L 260.544828 419.700548 
L 262.789655 422.227579 
L 265.034483 423.745834 
L 267.27931 424.694981 
L 269.524138 423.766339 
L 271.768966 421.967632 
L 274.013793 419.84198 
L 276.258621 418.702216 
L 278.503448 416.61663 
L 280.748276 415.796741 
L 282.993103 415.523858 
L 285.237931 413.814085 
L 287.482759 410.684752 
L 289.727586 407.258188 
L 291.972414 405.332047 
L 294.217241 403.645935 
L 296.462069 400.828387 
L 298.706897 398.650316 
L 300.951724 395.440472 
L 303.196552 393.201985 
L 305.441379 390.200918 
L 307.686207 386.315436 
L 309.931034 381.637193 
L 312.175862 378.251422 
L 314.42069 376.552211 
L 316.665517 374.183905 
L 318.910345 371.531991 
L 321.155172 368.324063 
L 327.889655 364.389704 
L 332.37931 361.158125 
L 336.868966 356.382545 
L 339.113793 353.761238 
L 341.358621 350.590168 
L 343.603448 347.18871 
L 345.848276 347.184902 
L 348.093103 346.724338 
L 350.337931 346.474967 
L 352.582759 345.744447 
L 357.072414 343.548112 
L 359.317241 342.338389 
L 361.562069 345.020873 
L 363.806897 347.156589 
L 366.051724 349.079128 
L 368.296552 350.657433 
L 372.786207 354.275518 
L 377.275862 356.848278 
L 381.765517 359.925561 
L 384.010345 361.042036 
L 388.5 362.86646 
L 390.744828 363.914032 
L 392.989655 364.596477 
L 395.234483 365.622442 
L 406.458621 369.785602 
L 408.703448 370.185315 
L 410.948276 370.763435 
L 413.193103 371.215025 
L 415.437931 371.526318 
L 419.927586 372.652235 
L 422.172414 373.126925 
L 424.417241 373.767733 
L 426.662069 374.243958 
L 431.151724 375.387562 
L 435.641379 376.228741 
L 437.886207 376.590105 
L 440.131034 377.093374 
L 444.62069 377.866799 
L 451.355172 379.412119 
L 453.6 379.677086 
L 453.6 379.677086 
" clip-path="url(#pe9a5042637)" style="fill: none; stroke: #0173b2; stroke-width: 2; stroke-linecap: square"/>
   </g>
   <g id="line2d_22">
    <path d="M 63 327.086524 
L 65.244828 325.173672 
L 67.489655 332.332454 
L 69.734483 345.969444 
L 71.97931 357.344403 
L 74.224138 367.365542 
L 76.468966 375.956445 
L 78.713793 383.301949 
L 80.958621 389.504667 
L 85.448276 399.237385 
L 87.693103 402.796254 
L 89.937931 404.90382 
L 92.182759 406.111388 
L 94.427586 406.471071 
L 96.672414 405.82286 
L 98.917241 404.42204 
L 101.162069 402.472763 
L 103.406897 399.428918 
L 105.651724 395.321991 
L 107.896552 392.117779 
L 110.141379 387.890919 
L 112.386207 382.387748 
L 114.631034 378.170972 
L 116.875862 373.188742 
L 119.12069 369.946704 
L 121.365517 365.978144 
L 123.610345 363.920906 
L 125.855172 361.146424 
L 128.1 360.438575 
L 130.344828 361.040373 
L 132.589655 360.558662 
L 134.834483 360.982268 
L 137.07931 362.680059 
L 139.324138 362.058112 
L 141.568966 361.950271 
L 143.813793 359.266017 
L 146.058621 353.438273 
L 148.303448 353.236528 
L 150.548276 355.135326 
L 152.793103 355.996682 
L 155.037931 356.475484 
L 157.282759 355.536537 
L 159.527586 353.79321 
L 161.772414 356.920312 
L 164.017241 354.889051 
L 166.262069 350.036543 
L 168.506897 340.997168 
L 170.751724 337.236175 
L 175.241379 330.93354 
L 177.486207 322.411378 
L 179.731034 314.715193 
L 181.975862 305.447115 
L 186.465517 318.206596 
L 188.710345 336.011244 
L 190.955172 351.790924 
L 195.444828 373.741392 
L 197.689655 387.943225 
L 199.934483 394.871301 
L 202.17931 395.302454 
L 204.424138 400.773568 
L 206.668966 401.479183 
L 208.913793 399.987005 
L 211.158621 391.649372 
L 213.403448 387.014146 
L 215.648276 383.48179 
L 217.893103 379.72388 
L 220.137931 372.875837 
L 222.382759 366.429701 
L 224.627586 366.255735 
L 226.872414 373.272646 
L 229.117241 375.476423 
L 231.362069 384.954928 
L 233.606897 380.796077 
L 235.851724 390.024007 
L 238.096552 402.201975 
L 240.341379 409.485543 
L 242.586207 413.106416 
L 244.831034 411.971222 
L 247.075862 407.973127 
L 249.32069 403.660518 
L 251.565517 407.377615 
L 253.810345 409.789832 
L 256.055172 414.095044 
L 258.3 416.926698 
L 260.544828 420.200689 
L 262.789655 422.61019 
L 265.034483 424.073736 
L 267.27931 425.073602 
L 269.524138 424.31669 
L 271.768966 422.574003 
L 274.013793 420.624174 
L 276.258621 419.528089 
L 278.503448 417.405125 
L 280.748276 416.571153 
L 282.993103 416.333654 
L 285.237931 414.601399 
L 287.482759 411.578628 
L 289.727586 408.328127 
L 291.972414 406.217679 
L 294.217241 404.418989 
L 296.462069 401.562904 
L 298.706897 399.593154 
L 300.951724 396.72809 
L 303.196552 394.750048 
L 305.441379 391.788933 
L 307.686207 388.089326 
L 309.931034 383.830074 
L 312.175862 380.784506 
L 314.42069 379.266735 
L 316.665517 377.140975 
L 318.910345 374.84353 
L 321.155172 371.953774 
L 323.4 371.336391 
L 325.644828 370.297091 
L 327.889655 368.516285 
L 330.134483 367.041115 
L 332.37931 365.191529 
L 334.624138 362.951433 
L 336.868966 360.440489 
L 339.113793 357.53022 
L 341.358621 355.098464 
L 343.603448 351.296252 
L 345.848276 350.691745 
L 348.093103 349.788197 
L 350.337931 349.156406 
L 357.072414 346.386342 
L 359.317241 345.21758 
L 361.562069 347.003778 
L 363.806897 348.955241 
L 366.051724 350.71484 
L 368.296552 352.619983 
L 372.786207 356.9298 
L 375.031034 358.502086 
L 377.275862 359.596482 
L 379.52069 360.386065 
L 381.765517 361.353947 
L 384.010345 363.144295 
L 386.255172 363.428695 
L 388.5 364.510333 
L 390.744828 365.312024 
L 392.989655 365.490835 
L 395.234483 366.799921 
L 397.47931 367.178782 
L 399.724138 367.760198 
L 401.968966 368.073837 
L 404.213793 369.09309 
L 408.703448 370.194839 
L 410.948276 370.736534 
L 413.193103 372.103783 
L 415.437931 372.528913 
L 419.927586 374.076351 
L 422.172414 374.437262 
L 428.906897 376.055855 
L 431.151724 376.785087 
L 433.396552 376.865748 
L 435.641379 377.493716 
L 437.886207 378.449808 
L 440.131034 378.695294 
L 442.375862 378.76247 
L 444.62069 379.321026 
L 451.355172 380.195398 
L 453.6 380.642818 
L 453.6 380.642818 
" clip-path="url(#pe9a5042637)" style="fill: none; stroke-dasharray: 7.4,3.2; stroke-dashoffset: 0; stroke: #e377c2; stroke-width: 2"/>
   </g>
   <g id="patch_179">
    <path d="M 63 448.56 
L 63 60.48 
" style="fill: none; stroke: #000000; stroke-width: 0.8; stroke-linejoin: miter; stroke-linecap: square"/>
   </g>
   <g id="patch_180">
    <path d="M 63 448.56 
L 453.6 448.56 
" style="fill: none; stroke: #000000; stroke-width: 0.8; stroke-linejoin: miter; stroke-linecap: square"/>
   </g>
   <g id="legend_1">
    <g id="patch_181">
     <path d="M 300.960625 111.957891 
L 443.8 111.957891 
Q 446.6 111.957891 446.6 109.157891 
L 446.6 70.28 
Q 446.6 67.48 443.8 67.48 
L 300.960625 67.48 
Q 298.160625 67.48 298.160625 70.28 
L 298.160625 109.157891 
Q 298.160625 111.957891 300.960625 111.957891 
z
" style="fill: #ffffff; opacity: 0.8; stroke: #cccccc; stroke-linejoin: miter"/>
    </g>
    <g id="line2d_23">
     <path d="M 303.760625 78.372383 
L 317.760625 78.372383 
L 331.760625 78.372383 
" style="fill: none; stroke: #0173b2; stroke-width: 2; stroke-linecap: square"/>
    </g>
    <g id="text_24">
     <text style="font-size: 14px; font-family: 'Arial', sans-serif; text-anchor: start" x="342.960625" y="83.272383" transform="rotate(-0 342.960625 83.272383)">Under-reporting</text>
    </g>
    <g id="line2d_24">
     <path d="M 303.760625 98.511328 
L 317.760625 98.511328 
L 331.760625 98.511328 
" style="fill: none; stroke-dasharray: 7.4,3.2; stroke-dashoffset: 0; stroke: #e377c2; stroke-width: 2"/>
    </g>
    <g id="text_25">
     <text style="font-size: 14px; font-family: 'Arial', sans-serif; text-anchor: start" x="342.960625" y="103.411328" transform="rotate(-0 342.960625 103.411328)">Full reporting</text>
    </g>
   </g>
  </g>
 </g>
 <defs>
  <clipPath id="pe9a5042637">
   <rect x="63" y="60.48" width="390.6" height="388.08"/>
  </clipPath>
 </defs>
</svg>
