<?xml version="1.0" encoding="utf-8" standalone="no"?>
<!DOCTYPE svg PUBLIC "-//W3C//DTD SVG 1.1//EN"
  "http://www.w3.org/Graphics/SVG/1.1/DTD/svg11.dtd">
<svg xmlns:xlink="http://www.w3.org/1999/xlink" width="504pt" height="504pt" viewBox="0 0 504 504" xmlns="http://www.w3.org/2000/svg" version="1.1">
 <metadata>
  <rdf:RDF xmlns:dc="http://purl.org/dc/elements/1.1/" xmlns:cc="http://creativecommons.org/ns#" xmlns:rdf="http://www.w3.org/1999/02/22-rdf-syntax-ns#">
   <cc:Work>
    <dc:type rdf:resource="http://purl.org/dc/dcmitype/StillImage"/>
    <dc:date>2026-07-04T17:08:13.591095</dc:date>
    <dc:format>image/svg+xml</dc:format>
    <dc:creator>
     <cc:Agent>
      <dc:title>Matplotlib v3.11.0, https://matplotlib.org/</dc:title>
     </cc:Agent>
    </dc:creator>
   </cc:Work>
  </rdf:RDF>
 </metadata>
 <defs>
  <style type="text/css">*{stroke-linejoin: round; stroke-linecap: butt}</style>
 </defs>
 <g id="figure_1">
  <g id="patch_1">
   <path d="M 0 504 
L 504 504 
L 504 0 
L 0 0 
L 0 504 
z
" style="fill: none"/>
  </g>
  <g id="axes_1">
   <g id="patch_2">
    <path d="M 63 448.56 
L 453.6 448.56 
L 453.6 60.48 
L 63 60.48 
L 63 448.56 
z
" style="fill: none"/>
   </g>
   <g id="patch_3">
    <path d="M 80.754545 448.56 
L 82.26718 448.56 
L 82.26718 396.816 
L 80.754545 396.816 
z
" clip-path="url(#pf113786bf2)" style="fill: #7f7f7f; opacity: 0.5"/>
   </g>
   <g id="patch_4">
    <path d="M 82.645338 448.56 
L 84.157973 448.56 
L 84.157973 396.816 
L 82.645338 396.816 
z
" clip-path="url(#pf113786bf2)" style="fill: #7f7f7f; opacity: 0.5"/>
   </g>
   <g id="patch_5">
    <path d="M 84.536131 448.56 
L 86.048766 448.56 
L 86.048766 396.816 
L 84.536131 396.816 
z
" clip-path="url(#pf113786bf2)" style="fill: #7f7f7f; opacity: 0.5"/>
   </g>
   <g id="patch_6">
    <path d="M 86.426924 448.56 
L 87.939559 448.56 
L 87.939559 448.56 
L 86.426924 448.56 
z
" clip-path="url(#pf113786bf2)" style="fill: #7f7f7f; opacity: 0.5"/>
   </g>
   <g id="patch_7">
    <path d="M 88.317717 448.56 
L 89.830351 448.56 
L 89.830351 448.56 
L 88.317717 448.56 
z
" clip-path="url(#pf113786bf2)" style="fill: #7f7f7f; opacity: 0.5"/>
   </g>
   <g id="patch_8">
    <path d="M 90.20851 448.56 
L 91.721144 448.56 
L 91.721144 448.56 
L 90.20851 448.56 
z
" clip-path="url(#pf113786bf2)" style="fill: #7f7f7f; opacity: 0.5"/>
   </g>
   <g id="patch_9">
    <path d="M 92.099303 448.56 
L 93.611937 448.56 
L 93.611937 448.56 
L 92.099303 448.56 
z
" clip-path="url(#pf113786bf2)" style="fill: #7f7f7f; opacity: 0.5"/>
   </g>
   <g id="patch_10">
    <path d="M 93.990096 448.56 
L 95.50273 448.56 
L 95.50273 448.56 
L 93.990096 448.56 
z
" clip-path="url(#pf113786bf2)" style="fill: #7f7f7f; opacity: 0.5"/>
   </g>
   <g id="patch_11">
    <path d="M 95.880889 448.56 
L 97.393523 448.56 
L 97.393523 448.56 
L 95.880889 448.56 
z
" clip-path="url(#pf113786bf2)" style="fill: #7f7f7f; opacity: 0.5"/>
   </g>
   <g id="patch_12">
    <path d="M 97.771682 448.56 
L 99.284316 448.56 
L 99.284316 422.688 
L 97.771682 422.688 
z
" clip-path="url(#pf113786bf2)" style="fill: #7f7f7f; opacity: 0.5"/>
   </g>
   <g id="patch_13">
    <path d="M 99.662475 448.56 
L 101.175109 448.56 
L 101.175109 448.56 
L 99.662475 448.56 
z
" clip-path="url(#pf113786bf2)" style="fill: #7f7f7f; opacity: 0.5"/>
   </g>
   <g id="patch_14">
    <path d="M 101.553267 448.56 
L 103.065902 448.56 
L 103.065902 448.56 
L 101.553267 448.56 
z
" clip-path="url(#pf113786bf2)" style="fill: #7f7f7f; opacity: 0.5"/>
   </g>
   <g id="patch_15">
    <path d="M 103.44406 448.56 
L 104.956695 448.56 
L 104.956695 448.56 
L 103.44406 448.56 
z
" clip-path="url(#pf113786bf2)" style="fill: #7f7f7f; opacity: 0.5"/>
   </g>
   <g id="patch_16">
    <path d="M 105.334853 448.56 
L 106.847488 448.56 
L 106.847488 448.56 
L 105.334853 448.56 
z
" clip-path="url(#pf113786bf2)" style="fill: #7f7f7f; opacity: 0.5"/>
   </g>
   <g id="patch_17">
    <path d="M 107.225646 448.56 
L 108.738281 448.56 
L 108.738281 448.56 
L 107.225646 448.56 
z
" clip-path="url(#pf113786bf2)" style="fill: #7f7f7f; opacity: 0.5"/>
   </g>
   <g id="patch_18">
    <path d="M 109.116439 448.56 
L 110.629073 448.56 
L 110.629073 448.56 
L 109.116439 448.56 
z
" clip-path="url(#pf113786bf2)" style="fill: #7f7f7f; opacity: 0.5"/>
   </g>
   <g id="patch_19">
    <path d="M 111.007232 448.56 
L 112.519866 448.56 
L 112.519866 448.56 
L 111.007232 448.56 
z
" clip-path="url(#pf113786bf2)" style="fill: #7f7f7f; opacity: 0.5"/>
   </g>
   <g id="patch_20">
    <path d="M 112.898025 448.56 
L 114.410659 448.56 
L 114.410659 448.56 
L 112.898025 448.56 
z
" clip-path="url(#pf113786bf2)" style="fill: #7f7f7f; opacity: 0.5"/>
   </g>
   <g id="patch_21">
    <path d="M 114.788818 448.56 
L 116.301452 448.56 
L 116.301452 448.56 
L 114.788818 448.56 
z
" clip-path="url(#pf113786bf2)" style="fill: #7f7f7f; opacity: 0.5"/>
   </g>
   <g id="patch_22">
    <path d="M 116.679611 448.56 
L 118.192245 448.56 
L 118.192245 422.688 
L 116.679611 422.688 
z
" clip-path="url(#pf113786bf2)" style="fill: #7f7f7f; opacity: 0.5"/>
   </g>
   <g id="patch_23">
    <path d="M 118.570404 448.56 
L 120.083038 448.56 
L 120.083038 448.56 
L 118.570404 448.56 
z
" clip-path="url(#pf113786bf2)" style="fill: #7f7f7f; opacity: 0.5"/>
   </g>
   <g id="patch_24">
    <path d="M 120.461197 448.56 
L 121.973831 448.56 
L 121.973831 448.56 
L 120.461197 448.56 
z
" clip-path="url(#pf113786bf2)" style="fill: #7f7f7f; opacity: 0.5"/>
   </g>
   <g id="patch_25">
    <path d="M 122.35199 448.56 
L 123.864624 448.56 
L 123.864624 422.688 
L 122.35199 422.688 
z
" clip-path="url(#pf113786bf2)" style="fill: #7f7f7f; opacity: 0.5"/>
   </g>
   <g id="patch_26">
    <path d="M 124.242782 448.56 
L 125.755417 448.56 
L 125.755417 448.56 
L 124.242782 448.56 
z
" clip-path="url(#pf113786bf2)" style="fill: #7f7f7f; opacity: 0.5"/>
   </g>
   <g id="patch_27">
    <path d="M 126.133575 448.56 
L 127.64621 448.56 
L 127.64621 422.688 
L 126.133575 422.688 
z
" clip-path="url(#pf113786bf2)" style="fill: #7f7f7f; opacity: 0.5"/>
   </g>
   <g id="patch_28">
    <path d="M 128.024368 448.56 
L 129.537003 448.56 
L 129.537003 448.56 
L 128.024368 448.56 
z
" clip-path="url(#pf113786bf2)" style="fill: #7f7f7f; opacity: 0.5"/>
   </g>
   <g id="patch_29">
    <path d="M 129.915161 448.56 
L 131.427796 448.56 
L 131.427796 422.688 
L 129.915161 422.688 
z
" clip-path="url(#pf113786bf2)" style="fill: #7f7f7f; opacity: 0.5"/>
   </g>
   <g id="patch_30">
    <path d="M 131.805954 448.56 
L 133.318588 448.56 
L 133.318588 448.56 
L 131.805954 448.56 
z
" clip-path="url(#pf113786bf2)" style="fill: #7f7f7f; opacity: 0.5"/>
   </g>
   <g id="patch_31">
    <path d="M 133.696747 448.56 
L 135.209381 448.56 
L 135.209381 422.688 
L 133.696747 422.688 
z
" clip-path="url(#pf113786bf2)" style="fill: #7f7f7f; opacity: 0.5"/>
   </g>
   <g id="patch_32">
    <path d="M 135.58754 448.56 
L 137.100174 448.56 
L 137.100174 422.688 
L 135.58754 422.688 
z
" clip-path="url(#pf113786bf2)" style="fill: #7f7f7f; opacity: 0.5"/>
   </g>
   <g id="patch_33">
    <path d="M 137.478333 448.56 
L 138.990967 448.56 
L 138.990967 448.56 
L 137.478333 448.56 
z
" clip-path="url(#pf113786bf2)" style="fill: #7f7f7f; opacity: 0.5"/>
   </g>
   <g id="patch_34">
    <path d="M 139.369126 448.56 
L 140.88176 448.56 
L 140.88176 422.688 
L 139.369126 422.688 
z
" clip-path="url(#pf113786bf2)" style="fill: #7f7f7f; opacity: 0.5"/>
   </g>
   <g id="patch_35">
    <path d="M 141.259919 448.56 
L 142.772553 448.56 
L 142.772553 422.688 
L 141.259919 422.688 
z
" clip-path="url(#pf113786bf2)" style="fill: #7f7f7f; opacity: 0.5"/>
   </g>
   <g id="patch_36">
    <path d="M 143.150712 448.56 
L 144.663346 448.56 
L 144.663346 448.56 
L 143.150712 448.56 
z
" clip-path="url(#pf113786bf2)" style="fill: #7f7f7f; opacity: 0.5"/>
   </g>
   <g id="patch_37">
    <path d="M 145.041505 448.56 
L 146.554139 448.56 
L 146.554139 422.688 
L 145.041505 422.688 
z
" clip-path="url(#pf113786bf2)" style="fill: #7f7f7f; opacity: 0.5"/>
   </g>
   <g id="patch_38">
    <path d="M 146.932297 448.56 
L 148.444932 448.56 
L 148.444932 448.56 
L 146.932297 448.56 
z
" clip-path="url(#pf113786bf2)" style="fill: #7f7f7f; opacity: 0.5"/>
   </g>
   <g id="patch_39">
    <path d="M 148.82309 448.56 
L 150.335725 448.56 
L 150.335725 448.56 
L 148.82309 448.56 
z
" clip-path="url(#pf113786bf2)" style="fill: #7f7f7f; opacity: 0.5"/>
   </g>
   <g id="patch_40">
    <path d="M 150.713883 448.56 
L 152.226518 448.56 
L 152.226518 370.944 
L 150.713883 370.944 
z
" clip-path="url(#pf113786bf2)" style="fill: #7f7f7f; opacity: 0.5"/>
   </g>
   <g id="patch_41">
    <path d="M 152.604676 448.56 
L 154.11731 448.56 
L 154.11731 396.816 
L 152.604676 396.816 
z
" clip-path="url(#pf113786bf2)" style="fill: #7f7f7f; opacity: 0.5"/>
   </g>
   <g id="patch_42">
    <path d="M 154.495469 448.56 
L 156.008103 448.56 
L 156.008103 422.688 
L 154.495469 422.688 
z
" clip-path="url(#pf113786bf2)" style="fill: #7f7f7f; opacity: 0.5"/>
   </g>
   <g id="patch_43">
    <path d="M 156.386262 448.56 
L 157.898896 448.56 
L 157.898896 422.688 
L 156.386262 422.688 
z
" clip-path="url(#pf113786bf2)" style="fill: #7f7f7f; opacity: 0.5"/>
   </g>
   <g id="patch_44">
    <path d="M 158.277055 448.56 
L 159.789689 448.56 
L 159.789689 422.688 
L 158.277055 422.688 
z
" clip-path="url(#pf113786bf2)" style="fill: #7f7f7f; opacity: 0.5"/>
   </g>
   <g id="patch_45">
    <path d="M 160.167848 448.56 
L 161.680482 448.56 
L 161.680482 422.688 
L 160.167848 422.688 
z
" clip-path="url(#pf113786bf2)" style="fill: #7f7f7f; opacity: 0.5"/>
   </g>
   <g id="patch_46">
    <path d="M 162.058641 448.56 
L 163.571275 448.56 
L 163.571275 370.944 
L 162.058641 370.944 
z
" clip-path="url(#pf113786bf2)" style="fill: #7f7f7f; opacity: 0.5"/>
   </g>
   <g id="patch_47">
    <path d="M 163.949434 448.56 
L 165.462068 448.56 
L 165.462068 448.56 
L 163.949434 448.56 
z
" clip-path="url(#pf113786bf2)" style="fill: #7f7f7f; opacity: 0.5"/>
   </g>
   <g id="patch_48">
    <path d="M 165.840227 448.56 
L 167.352861 448.56 
L 167.352861 422.688 
L 165.840227 422.688 
z
" clip-path="url(#pf113786bf2)" style="fill: #7f7f7f; opacity: 0.5"/>
   </g>
   <g id="patch_49">
    <path d="M 167.731019 448.56 
L 169.243654 448.56 
L 169.243654 422.688 
L 167.731019 422.688 
z
" clip-path="url(#pf113786bf2)" style="fill: #7f7f7f; opacity: 0.5"/>
   </g>
   <g id="patch_50">
    <path d="M 169.621812 448.56 
L 171.134447 448.56 
L 171.134447 345.072 
L 169.621812 345.072 
z
" clip-path="url(#pf113786bf2)" style="fill: #7f7f7f; opacity: 0.5"/>
   </g>
   <g id="patch_51">
    <path d="M 171.512605 448.56 
L 173.02524 448.56 
L 173.02524 370.944 
L 171.512605 370.944 
z
" clip-path="url(#pf113786bf2)" style="fill: #7f7f7f; opacity: 0.5"/>
   </g>
   <g id="patch_52">
    <path d="M 173.403398 448.56 
L 174.916033 448.56 
L 174.916033 370.944 
L 173.403398 370.944 
z
" clip-path="url(#pf113786bf2)" style="fill: #7f7f7f; opacity: 0.5"/>
   </g>
   <g id="patch_53">
    <path d="M 175.294191 448.56 
L 176.806825 448.56 
L 176.806825 396.816 
L 175.294191 396.816 
z
" clip-path="url(#pf113786bf2)" style="fill: #7f7f7f; opacity: 0.5"/>
   </g>
   <g id="patch_54">
    <path d="M 177.184984 448.56 
L 178.697618 448.56 
L 178.697618 345.072 
L 177.184984 345.072 
z
" clip-path="url(#pf113786bf2)" style="fill: #7f7f7f; opacity: 0.5"/>
   </g>
   <g id="patch_55">
    <path d="M 179.075777 448.56 
L 180.588411 448.56 
L 180.588411 345.072 
L 179.075777 345.072 
z
" clip-path="url(#pf113786bf2)" style="fill: #7f7f7f; opacity: 0.5"/>
   </g>
   <g id="patch_56">
    <path d="M 180.96657 448.56 
L 182.479204 448.56 
L 182.479204 241.584 
L 180.96657 241.584 
z
" clip-path="url(#pf113786bf2)" style="fill: #7f7f7f; opacity: 0.5"/>
   </g>
   <g id="patch_57">
    <path d="M 182.857363 448.56 
L 184.369997 448.56 
L 184.369997 319.2 
L 182.857363 319.2 
z
" clip-path="url(#pf113786bf2)" style="fill: #7f7f7f; opacity: 0.5"/>
   </g>
   <g id="patch_58">
    <path d="M 184.748156 448.56 
L 186.26079 448.56 
L 186.26079 241.584 
L 184.748156 241.584 
z
" clip-path="url(#pf113786bf2)" style="fill: #7f7f7f; opacity: 0.5"/>
   </g>
   <g id="patch_59">
    <path d="M 186.638949 448.56 
L 188.151583 448.56 
L 188.151583 319.2 
L 186.638949 319.2 
z
" clip-path="url(#pf113786bf2)" style="fill: #7f7f7f; opacity: 0.5"/>
   </g>
   <g id="patch_60">
    <path d="M 188.529742 448.56 
L 190.042376 448.56 
L 190.042376 345.072 
L 188.529742 345.072 
z
" clip-path="url(#pf113786bf2)" style="fill: #7f7f7f; opacity: 0.5"/>
   </g>
   <g id="patch_61">
    <path d="M 190.420534 448.56 
L 191.933169 448.56 
L 191.933169 319.2 
L 190.420534 319.2 
z
" clip-path="url(#pf113786bf2)" style="fill: #7f7f7f; opacity: 0.5"/>
   </g>
   <g id="patch_62">
    <path d="M 192.311327 448.56 
L 193.823962 448.56 
L 193.823962 267.456 
L 192.311327 267.456 
z
" clip-path="url(#pf113786bf2)" style="fill: #7f7f7f; opacity: 0.5"/>
   </g>
   <g id="patch_63">
    <path d="M 194.20212 448.56 
L 195.714755 448.56 
L 195.714755 396.816 
L 194.20212 396.816 
z
" clip-path="url(#pf113786bf2)" style="fill: #7f7f7f; opacity: 0.5"/>
   </g>
   <g id="patch_64">
    <path d="M 196.092913 448.56 
L 197.605547 448.56 
L 197.605547 422.688 
L 196.092913 422.688 
z
" clip-path="url(#pf113786bf2)" style="fill: #7f7f7f; opacity: 0.5"/>
   </g>
   <g id="patch_65">
    <path d="M 197.983706 448.56 
L 199.49634 448.56 
L 199.49634 241.584 
L 197.983706 241.584 
z
" clip-path="url(#pf113786bf2)" style="fill: #7f7f7f; opacity: 0.5"/>
   </g>
   <g id="patch_66">
    <path d="M 199.874499 448.56 
L 201.387133 448.56 
L 201.387133 396.816 
L 199.874499 396.816 
z
" clip-path="url(#pf113786bf2)" style="fill: #7f7f7f; opacity: 0.5"/>
   </g>
   <g id="patch_67">
    <path d="M 201.765292 448.56 
L 203.277926 448.56 
L 203.277926 345.072 
L 201.765292 345.072 
z
" clip-path="url(#pf113786bf2)" style="fill: #7f7f7f; opacity: 0.5"/>
   </g>
   <g id="patch_68">
    <path d="M 203.656085 448.56 
L 205.168719 448.56 
L 205.168719 396.816 
L 203.656085 396.816 
z
" clip-path="url(#pf113786bf2)" style="fill: #7f7f7f; opacity: 0.5"/>
   </g>
   <g id="patch_69">
    <path d="M 205.546878 448.56 
L 207.059512 448.56 
L 207.059512 215.712 
L 205.546878 215.712 
z
" clip-path="url(#pf113786bf2)" style="fill: #7f7f7f; opacity: 0.5"/>
   </g>
   <g id="patch_70">
    <path d="M 207.437671 448.56 
L 208.950305 448.56 
L 208.950305 241.584 
L 207.437671 241.584 
z
" clip-path="url(#pf113786bf2)" style="fill: #7f7f7f; opacity: 0.5"/>
   </g>
   <g id="patch_71">
    <path d="M 209.328464 448.56 
L 210.841098 448.56 
L 210.841098 241.584 
L 209.328464 241.584 
z
" clip-path="url(#pf113786bf2)" style="fill: #7f7f7f; opacity: 0.5"/>
   </g>
   <g id="patch_72">
    <path d="M 211.219256 448.56 
L 212.731891 448.56 
L 212.731891 267.456 
L 211.219256 267.456 
z
" clip-path="url(#pf113786bf2)" style="fill: #7f7f7f; opacity: 0.5"/>
   </g>
   <g id="patch_73">
    <path d="M 213.110049 448.56 
L 214.622684 448.56 
L 214.622684 215.712 
L 213.110049 215.712 
z
" clip-path="url(#pf113786bf2)" style="fill: #7f7f7f; opacity: 0.5"/>
   </g>
   <g id="patch_74">
    <path d="M 215.000842 448.56 
L 216.513477 448.56 
L 216.513477 138.096 
L 215.000842 138.096 
z
" clip-path="url(#pf113786bf2)" style="fill: #7f7f7f; opacity: 0.5"/>
   </g>
   <g id="patch_75">
    <path d="M 216.891635 448.56 
L 218.40427 448.56 
L 218.40427 138.096 
L 216.891635 138.096 
z
" clip-path="url(#pf113786bf2)" style="fill: #7f7f7f; opacity: 0.5"/>
   </g>
   <g id="patch_76">
    <path d="M 218.782428 448.56 
L 220.295062 448.56 
L 220.295062 267.456 
L 218.782428 267.456 
z
" clip-path="url(#pf113786bf2)" style="fill: #7f7f7f; opacity: 0.5"/>
   </g>
   <g id="patch_77">
    <path d="M 220.673221 448.56 
L 222.185855 448.56 
L 222.185855 138.096 
L 220.673221 138.096 
z
" clip-path="url(#pf113786bf2)" style="fill: #7f7f7f; opacity: 0.5"/>
   </g>
   <g id="patch_78">
    <path d="M 222.564014 448.56 
L 224.076648 448.56 
L 224.076648 396.816 
L 222.564014 396.816 
z
" clip-path="url(#pf113786bf2)" style="fill: #7f7f7f; opacity: 0.5"/>
   </g>
   <g id="patch_79">
    <path d="M 224.454807 448.56 
L 225.967441 448.56 
L 225.967441 60.48 
L 224.454807 60.48 
z
" clip-path="url(#pf113786bf2)" style="fill: #7f7f7f; opacity: 0.5"/>
   </g>
   <g id="patch_80">
    <path d="M 226.3456 448.56 
L 227.858234 448.56 
L 227.858234 163.968 
L 226.3456 163.968 
z
" clip-path="url(#pf113786bf2)" style="fill: #7f7f7f; opacity: 0.5"/>
   </g>
   <g id="patch_81">
    <path d="M 228.236393 448.56 
L 229.749027 448.56 
L 229.749027 319.2 
L 228.236393 319.2 
z
" clip-path="url(#pf113786bf2)" style="fill: #7f7f7f; opacity: 0.5"/>
   </g>
   <g id="patch_82">
    <path d="M 230.127186 448.56 
L 231.63982 448.56 
L 231.63982 345.072 
L 230.127186 345.072 
z
" clip-path="url(#pf113786bf2)" style="fill: #7f7f7f; opacity: 0.5"/>
   </g>
   <g id="patch_83">
    <path d="M 232.017979 448.56 
L 233.530613 448.56 
L 233.530613 396.816 
L 232.017979 396.816 
z
" clip-path="url(#pf113786bf2)" style="fill: #7f7f7f; opacity: 0.5"/>
   </g>
   <g id="patch_84">
    <path d="M 233.908771 448.56 
L 235.421406 448.56 
L 235.421406 345.072 
L 233.908771 345.072 
z
" clip-path="url(#pf113786bf2)" style="fill: #7f7f7f; opacity: 0.5"/>
   </g>
   <g id="patch_85">
    <path d="M 235.799564 448.56 
L 237.312199 448.56 
L 237.312199 267.456 
L 235.799564 267.456 
z
" clip-path="url(#pf113786bf2)" style="fill: #7f7f7f; opacity: 0.5"/>
   </g>
   <g id="patch_86">
    <path d="M 237.690357 448.56 
L 239.202992 448.56 
L 239.202992 112.224 
L 237.690357 112.224 
z
" clip-path="url(#pf113786bf2)" style="fill: #7f7f7f; opacity: 0.5"/>
   </g>
   <g id="patch_87">
    <path d="M 239.58115 448.56 
L 241.093784 448.56 
L 241.093784 293.328 
L 239.58115 293.328 
z
" clip-path="url(#pf113786bf2)" style="fill: #7f7f7f; opacity: 0.5"/>
   </g>
   <g id="patch_88">
    <path d="M 241.471943 448.56 
L 242.984577 448.56 
L 242.984577 241.584 
L 241.471943 241.584 
z
" clip-path="url(#pf113786bf2)" style="fill: #7f7f7f; opacity: 0.5"/>
   </g>
   <g id="patch_89">
    <path d="M 243.362736 448.56 
L 244.87537 448.56 
L 244.87537 345.072 
L 243.362736 345.072 
z
" clip-path="url(#pf113786bf2)" style="fill: #7f7f7f; opacity: 0.5"/>
   </g>
   <g id="patch_90">
    <path d="M 245.253529 448.56 
L 246.766163 448.56 
L 246.766163 319.2 
L 245.253529 319.2 
z
" clip-path="url(#pf113786bf2)" style="fill: #7f7f7f; opacity: 0.5"/>
   </g>
   <g id="patch_91">
    <path d="M 247.144322 448.56 
L 248.656956 448.56 
L 248.656956 370.944 
L 247.144322 370.944 
z
" clip-path="url(#pf113786bf2)" style="fill: #7f7f7f; opacity: 0.5"/>
   </g>
   <g id="patch_92">
    <path d="M 249.035115 448.56 
L 250.547749 448.56 
L 250.547749 396.816 
L 249.035115 396.816 
z
" clip-path="url(#pf113786bf2)" style="fill: #7f7f7f; opacity: 0.5"/>
   </g>
   <g id="patch_93">
    <path d="M 250.925908 448.56 
L 252.438542 448.56 
L 252.438542 396.816 
L 250.925908 396.816 
z
" clip-path="url(#pf113786bf2)" style="fill: #7f7f7f; opacity: 0.5"/>
   </g>
   <g id="patch_94">
    <path d="M 252.816701 448.56 
L 254.329335 448.56 
L 254.329335 448.56 
L 252.816701 448.56 
z
" clip-path="url(#pf113786bf2)" style="fill: #7f7f7f; opacity: 0.5"/>
   </g>
   <g id="patch_95">
    <path d="M 254.707493 448.56 
L 256.220128 448.56 
L 256.220128 422.688 
L 254.707493 422.688 
z
" clip-path="url(#pf113786bf2)" style="fill: #7f7f7f; opacity: 0.5"/>
   </g>
   <g id="patch_96">
    <path d="M 256.598286 448.56 
L 258.110921 448.56 
L 258.110921 396.816 
L 256.598286 396.816 
z
" clip-path="url(#pf113786bf2)" style="fill: #7f7f7f; opacity: 0.5"/>
   </g>
   <g id="patch_97">
    <path d="M 258.489079 448.56 
L 260.001714 448.56 
L 260.001714 370.944 
L 258.489079 370.944 
z
" clip-path="url(#pf113786bf2)" style="fill: #7f7f7f; opacity: 0.5"/>
   </g>
   <g id="patch_98">
    <path d="M 260.379872 448.56 
L 261.892507 448.56 
L 261.892507 422.688 
L 260.379872 422.688 
z
" clip-path="url(#pf113786bf2)" style="fill: #7f7f7f; opacity: 0.5"/>
   </g>
   <g id="patch_99">
    <path d="M 262.270665 448.56 
L 263.783299 448.56 
L 263.783299 370.944 
L 262.270665 370.944 
z
" clip-path="url(#pf113786bf2)" style="fill: #7f7f7f; opacity: 0.5"/>
   </g>
   <g id="patch_100">
    <path d="M 264.161458 448.56 
L 265.674092 448.56 
L 265.674092 396.816 
L 264.161458 396.816 
z
" clip-path="url(#pf113786bf2)" style="fill: #7f7f7f; opacity: 0.5"/>
   </g>
   <g id="patch_101">
    <path d="M 266.052251 448.56 
L 267.564885 448.56 
L 267.564885 448.56 
L 266.052251 448.56 
z
" clip-path="url(#pf113786bf2)" style="fill: #7f7f7f; opacity: 0.5"/>
   </g>
   <g id="patch_102">
    <path d="M 267.943044 448.56 
L 269.455678 448.56 
L 269.455678 448.56 
L 267.943044 448.56 
z
" clip-path="url(#pf113786bf2)" style="fill: #7f7f7f; opacity: 0.5"/>
   </g>
   <g id="patch_103">
    <path d="M 269.833837 448.56 
L 271.346471 448.56 
L 271.346471 422.688 
L 269.833837 422.688 
z
" clip-path="url(#pf113786bf2)" style="fill: #7f7f7f; opacity: 0.5"/>
   </g>
   <g id="patch_104">
    <path d="M 271.72463 448.56 
L 273.237264 448.56 
L 273.237264 396.816 
L 271.72463 396.816 
z
" clip-path="url(#pf113786bf2)" style="fill: #7f7f7f; opacity: 0.5"/>
   </g>
   <g id="patch_105">
    <path d="M 273.615423 448.56 
L 275.128057 448.56 
L 275.128057 422.688 
L 273.615423 422.688 
z
" clip-path="url(#pf113786bf2)" style="fill: #7f7f7f; opacity: 0.5"/>
   </g>
   <g id="patch_106">
    <path d="M 275.506216 448.56 
L 277.01885 448.56 
L 277.01885 448.56 
L 275.506216 448.56 
z
" clip-path="url(#pf113786bf2)" style="fill: #7f7f7f; opacity: 0.5"/>
   </g>
   <g id="patch_107">
    <path d="M 277.397008 448.56 
L 278.909643 448.56 
L 278.909643 422.688 
L 277.397008 422.688 
z
" clip-path="url(#pf113786bf2)" style="fill: #7f7f7f; opacity: 0.5"/>
   </g>
   <g id="patch_108">
    <path d="M 279.287801 448.56 
L 280.800436 448.56 
L 280.800436 448.56 
L 279.287801 448.56 
z
" clip-path="url(#pf113786bf2)" style="fill: #7f7f7f; opacity: 0.5"/>
   </g>
   <g id="patch_109">
    <path d="M 281.178594 448.56 
L 282.691229 448.56 
L 282.691229 422.688 
L 281.178594 422.688 
z
" clip-path="url(#pf113786bf2)" style="fill: #7f7f7f; opacity: 0.5"/>
   </g>
   <g id="patch_110">
    <path d="M 283.069387 448.56 
L 284.582021 448.56 
L 284.582021 448.56 
L 283.069387 448.56 
z
" clip-path="url(#pf113786bf2)" style="fill: #7f7f7f; opacity: 0.5"/>
   </g>
   <g id="patch_111">
    <path d="M 284.96018 448.56 
L 286.472814 448.56 
L 286.472814 448.56 
L 284.96018 448.56 
z
" clip-path="url(#pf113786bf2)" style="fill: #7f7f7f; opacity: 0.5"/>
   </g>
   <g id="patch_112">
    <path d="M 286.850973 448.56 
L 288.363607 448.56 
L 288.363607 448.56 
L 286.850973 448.56 
z
" clip-path="url(#pf113786bf2)" style="fill: #7f7f7f; opacity: 0.5"/>
   </g>
   <g id="patch_113">
    <path d="M 288.741766 448.56 
L 290.2544 448.56 
L 290.2544 422.688 
L 288.741766 422.688 
z
" clip-path="url(#pf113786bf2)" style="fill: #7f7f7f; opacity: 0.5"/>
   </g>
   <g id="patch_114">
    <path d="M 290.632559 448.56 
L 292.145193 448.56 
L 292.145193 422.688 
L 290.632559 422.688 
z
" clip-path="url(#pf113786bf2)" style="fill: #7f7f7f; opacity: 0.5"/>
   </g>
   <g id="patch_115">
    <path d="M 292.523352 448.56 
L 294.035986 448.56 
L 294.035986 448.56 
L 292.523352 448.56 
z
" clip-path="url(#pf113786bf2)" style="fill: #7f7f7f; opacity: 0.5"/>
   </g>
   <g id="patch_116">
    <path d="M 294.414145 448.56 
L 295.926779 448.56 
L 295.926779 448.56 
L 294.414145 448.56 
z
" clip-path="url(#pf113786bf2)" style="fill: #7f7f7f; opacity: 0.5"/>
   </g>
   <g id="patch_117">
    <path d="M 296.304938 448.56 
L 297.817572 448.56 
L 297.817572 448.56 
L 296.304938 448.56 
z
" clip-path="url(#pf113786bf2)" style="fill: #7f7f7f; opacity: 0.5"/>
   </g>
   <g id="patch_118">
    <path d="M 298.19573 448.56 
L 299.708365 448.56 
L 299.708365 422.688 
L 298.19573 422.688 
z
" clip-path="url(#pf113786bf2)" style="fill: #7f7f7f; opacity: 0.5"/>
   </g>
   <g id="patch_119">
    <path d="M 300.086523 448.56 
L 301.599158 448.56 
L 301.599158 448.56 
L 300.086523 448.56 
z
" clip-path="url(#pf113786bf2)" style="fill: #7f7f7f; opacity: 0.5"/>
   </g>
   <g id="patch_120">
    <path d="M 301.977316 448.56 
L 303.489951 448.56 
L 303.489951 448.56 
L 301.977316 448.56 
z
" clip-path="url(#pf113786bf2)" style="fill: #7f7f7f; opacity: 0.5"/>
   </g>
   <g id="patch_121">
    <path d="M 303.868109 448.56 
L 305.380744 448.56 
L 305.380744 448.56 
L 303.868109 448.56 
z
" clip-path="url(#pf113786bf2)" style="fill: #7f7f7f; opacity: 0.5"/>
   </g>
   <g id="patch_122">
    <path d="M 305.758902 448.56 
L 307.271536 448.56 
L 307.271536 448.56 
L 305.758902 448.56 
z
" clip-path="url(#pf113786bf2)" style="fill: #7f7f7f; opacity: 0.5"/>
   </g>
   <g id="patch_123">
    <path d="M 307.649695 448.56 
L 309.162329 448.56 
L 309.162329 448.56 
L 307.649695 448.56 
z
" clip-path="url(#pf113786bf2)" style="fill: #7f7f7f; opacity: 0.5"/>
   </g>
   <g id="patch_124">
    <path d="M 309.540488 448.56 
L 311.053122 448.56 
L 311.053122 448.56 
L 309.540488 448.56 
z
" clip-path="url(#pf113786bf2)" style="fill: #7f7f7f; opacity: 0.5"/>
   </g>
   <g id="patch_125">
    <path d="M 311.431281 448.56 
L 312.943915 448.56 
L 312.943915 448.56 
L 311.431281 448.56 
z
" clip-path="url(#pf113786bf2)" style="fill: #7f7f7f; opacity: 0.5"/>
   </g>
   <g id="patch_126">
    <path d="M 313.322074 448.56 
L 314.834708 448.56 
L 314.834708 448.56 
L 313.322074 448.56 
z
" clip-path="url(#pf113786bf2)" style="fill: #7f7f7f; opacity: 0.5"/>
   </g>
   <g id="patch_127">
    <path d="M 315.212867 448.56 
L 316.725501 448.56 
L 316.725501 448.56 
L 315.212867 448.56 
z
" clip-path="url(#pf113786bf2)" style="fill: #7f7f7f; opacity: 0.5"/>
   </g>
   <g id="patch_128">
    <path d="M 317.10366 448.56 
L 318.616294 448.56 
L 318.616294 422.688 
L 317.10366 422.688 
z
" clip-path="url(#pf113786bf2)" style="fill: #7f7f7f; opacity: 0.5"/>
   </g>
   <g id="patch_129">
    <path d="M 318.994453 448.56 
L 320.507087 448.56 
L 320.507087 448.56 
L 318.994453 448.56 
z
" clip-path="url(#pf113786bf2)" style="fill: #7f7f7f; opacity: 0.5"/>
   </g>
   <g id="patch_130">
    <path d="M 320.885245 448.56 
L 322.39788 448.56 
L 322.39788 448.56 
L 320.885245 448.56 
z
" clip-path="url(#pf113786bf2)" style="fill: #7f7f7f; opacity: 0.5"/>
   </g>
   <g id="patch_131">
    <path d="M 322.776038 448.56 
L 324.288673 448.56 
L 324.288673 448.56 
L 322.776038 448.56 
z
" clip-path="url(#pf113786bf2)" style="fill: #7f7f7f; opacity: 0.5"/>
   </g>
   <g id="patch_132">
    <path d="M 324.666831 448.56 
L 326.179466 448.56 
L 326.179466 448.56 
L 324.666831 448.56 
z
" clip-path="url(#pf113786bf2)" style="fill: #7f7f7f; opacity: 0.5"/>
   </g>
   <g id="patch_133">
    <path d="M 326.557624 448.56 
L 328.070258 448.56 
L 328.070258 448.56 
L 326.557624 448.56 
z
" clip-path="url(#pf113786bf2)" style="fill: #7f7f7f; opacity: 0.5"/>
   </g>
   <g id="patch_134">
    <path d="M 328.448417 448.56 
L 329.961051 448.56 
L 329.961051 448.56 
L 328.448417 448.56 
z
" clip-path="url(#pf113786bf2)" style="fill: #7f7f7f; opacity: 0.5"/>
   </g>
   <g id="patch_135">
    <path d="M 330.33921 448.56 
L 331.851844 448.56 
L 331.851844 422.688 
L 330.33921 422.688 
z
" clip-path="url(#pf113786bf2)" style="fill: #7f7f7f; opacity: 0.5"/>
   </g>
   <g id="patch_136">
    <path d="M 332.230003 448.56 
L 333.742637 448.56 
L 333.742637 448.56 
L 332.230003 448.56 
z
" clip-path="url(#pf113786bf2)" style="fill: #7f7f7f; opacity: 0.5"/>
   </g>
   <g id="patch_137">
    <path d="M 334.120796 448.56 
L 335.63343 448.56 
L 335.63343 448.56 
L 334.120796 448.56 
z
" clip-path="url(#pf113786bf2)" style="fill: #7f7f7f; opacity: 0.5"/>
   </g>
   <g id="patch_138">
    <path d="M 336.011589 448.56 
L 337.524223 448.56 
L 337.524223 448.56 
L 336.011589 448.56 
z
" clip-path="url(#pf113786bf2)" style="fill: #7f7f7f; opacity: 0.5"/>
   </g>
   <g id="patch_139">
    <path d="M 337.902382 448.56 
L 339.415016 448.56 
L 339.415016 448.56 
L 337.902382 448.56 
z
" clip-path="url(#pf113786bf2)" style="fill: #7f7f7f; opacity: 0.5"/>
   </g>
   <g id="patch_140">
    <path d="M 339.793175 448.56 
L 341.305809 448.56 
L 341.305809 448.56 
L 339.793175 448.56 
z
" clip-path="url(#pf113786bf2)" style="fill: #7f7f7f; opacity: 0.5"/>
   </g>
   <g id="patch_141">
    <path d="M 341.683967 448.56 
L 343.196602 448.56 
L 343.196602 448.56 
L 341.683967 448.56 
z
" clip-path="url(#pf113786bf2)" style="fill: #7f7f7f; opacity: 0.5"/>
   </g>
   <g id="patch_142">
    <path d="M 343.57476 448.56 
L 345.087395 448.56 
L 345.087395 448.56 
L 343.57476 448.56 
z
" clip-path="url(#pf113786bf2)" style="fill: #7f7f7f; opacity: 0.5"/>
   </g>
   <g id="patch_143">
    <path d="M 345.465553 448.56 
L 346.978188 448.56 
L 346.978188 448.56 
L 345.465553 448.56 
z
" clip-path="url(#pf113786bf2)" style="fill: #7f7f7f; opacity: 0.5"/>
   </g>
   <g id="patch_144">
    <path d="M 347.356346 448.56 
L 348.868981 448.56 
L 348.868981 448.56 
L 347.356346 448.56 
z
" clip-path="url(#pf113786bf2)" style="fill: #7f7f7f; opacity: 0.5"/>
   </g>
   <g id="patch_145">
    <path d="M 349.247139 448.56 
L 350.759773 448.56 
L 350.759773 448.56 
L 349.247139 448.56 
z
" clip-path="url(#pf113786bf2)" style="fill: #7f7f7f; opacity: 0.5"/>
   </g>
   <g id="patch_146">
    <path d="M 351.137932 448.56 
L 352.650566 448.56 
L 352.650566 448.56 
L 351.137932 448.56 
z
" clip-path="url(#pf113786bf2)" style="fill: #7f7f7f; opacity: 0.5"/>
   </g>
   <g id="patch_147">
    <path d="M 353.028725 448.56 
L 354.541359 448.56 
L 354.541359 448.56 
L 353.028725 448.56 
z
" clip-path="url(#pf113786bf2)" style="fill: #7f7f7f; opacity: 0.5"/>
   </g>
   <g id="patch_148">
    <path d="M 354.919518 448.56 
L 356.432152 448.56 
L 356.432152 448.56 
L 354.919518 448.56 
z
" clip-path="url(#pf113786bf2)" style="fill: #7f7f7f; opacity: 0.5"/>
   </g>
   <g id="patch_149">
    <path d="M 356.810311 448.56 
L 358.322945 448.56 
L 358.322945 448.56 
L 356.810311 448.56 
z
" clip-path="url(#pf113786bf2)" style="fill: #7f7f7f; opacity: 0.5"/>
   </g>
   <g id="patch_150">
    <path d="M 358.701104 448.56 
L 360.213738 448.56 
L 360.213738 448.56 
L 358.701104 448.56 
z
" clip-path="url(#pf113786bf2)" style="fill: #7f7f7f; opacity: 0.5"/>
   </g>
   <g id="patch_151">
    <path d="M 360.591897 448.56 
L 362.104531 448.56 
L 362.104531 448.56 
L 360.591897 448.56 
z
" clip-path="url(#pf113786bf2)" style="fill: #7f7f7f; opacity: 0.5"/>
   </g>
   <g id="patch_152">
    <path d="M 362.48269 448.56 
L 363.995324 448.56 
L 363.995324 448.56 
L 362.48269 448.56 
z
" clip-path="url(#pf113786bf2)" style="fill: #7f7f7f; opacity: 0.5"/>
   </g>
   <g id="patch_153">
    <path d="M 364.373482 448.56 
L 365.886117 448.56 
L 365.886117 448.56 
L 364.373482 448.56 
z
" clip-path="url(#pf113786bf2)" style="fill: #7f7f7f; opacity: 0.5"/>
   </g>
   <g id="patch_154">
    <path d="M 366.264275 448.56 
L 367.77691 448.56 
L 367.77691 448.56 
L 366.264275 448.56 
z
" clip-path="url(#pf113786bf2)" style="fill: #7f7f7f; opacity: 0.5"/>
   </g>
   <g id="patch_155">
    <path d="M 368.155068 448.56 
L 369.667703 448.56 
L 369.667703 448.56 
L 368.155068 448.56 
z
" clip-path="url(#pf113786bf2)" style="fill: #7f7f7f; opacity: 0.5"/>
   </g>
   <g id="patch_156">
    <path d="M 370.045861 448.56 
L 371.558495 448.56 
L 371.558495 448.56 
L 370.045861 448.56 
z
" clip-path="url(#pf113786bf2)" style="fill: #7f7f7f; opacity: 0.5"/>
   </g>
   <g id="patch_157">
    <path d="M 371.936654 448.56 
L 373.449288 448.56 
L 373.449288 448.56 
L 371.936654 448.56 
z
" clip-path="url(#pf113786bf2)" style="fill: #7f7f7f; opacity: 0.5"/>
   </g>
   <g id="patch_158">
    <path d="M 373.827447 448.56 
L 375.340081 448.56 
L 375.340081 448.56 
L 373.827447 448.56 
z
" clip-path="url(#pf113786bf2)" style="fill: #7f7f7f; opacity: 0.5"/>
   </g>
   <g id="patch_159">
    <path d="M 375.71824 448.56 
L 377.230874 448.56 
L 377.230874 448.56 
L 375.71824 448.56 
z
" clip-path="url(#pf113786bf2)" style="fill: #7f7f7f; opacity: 0.5"/>
   </g>
   <g id="patch_160">
    <path d="M 377.609033 448.56 
L 379.121667 448.56 
L 379.121667 448.56 
L 377.609033 448.56 
z
" clip-path="url(#pf113786bf2)" style="fill: #7f7f7f; opacity: 0.5"/>
   </g>
   <g id="patch_161">
    <path d="M 379.499826 448.56 
L 381.01246 448.56 
L 381.01246 448.56 
L 379.499826 448.56 
z
" clip-path="url(#pf113786bf2)" style="fill: #7f7f7f; opacity: 0.5"/>
   </g>
   <g id="patch_162">
    <path d="M 381.390619 448.56 
L 382.903253 448.56 
L 382.903253 448.56 
L 381.390619 448.56 
z
" clip-path="url(#pf113786bf2)" style="fill: #7f7f7f; opacity: 0.5"/>
   </g>
   <g id="patch_163">
    <path d="M 383.281412 448.56 
L 384.794046 448.56 
L 384.794046 448.56 
L 383.281412 448.56 
z
" clip-path="url(#pf113786bf2)" style="fill: #7f7f7f; opacity: 0.5"/>
   </g>
   <g id="patch_164">
    <path d="M 385.172204 448.56 
L 386.684839 448.56 
L 386.684839 448.56 
L 385.172204 448.56 
z
" clip-path="url(#pf113786bf2)" style="fill: #7f7f7f; opacity: 0.5"/>
   </g>
   <g id="patch_165">
    <path d="M 387.062997 448.56 
L 388.575632 448.56 
L 388.575632 448.56 
L 387.062997 448.56 
z
" clip-path="url(#pf113786bf2)" style="fill: #7f7f7f; opacity: 0.5"/>
   </g>
   <g id="patch_166">
    <path d="M 388.95379 448.56 
L 390.466425 448.56 
L 390.466425 448.56 
L 388.95379 448.56 
z
" clip-path="url(#pf113786bf2)" style="fill: #7f7f7f; opacity: 0.5"/>
   </g>
   <g id="patch_167">
    <path d="M 390.844583 448.56 
L 392.357218 448.56 
L 392.357218 448.56 
L 390.844583 448.56 
z
" clip-path="url(#pf113786bf2)" style="fill: #7f7f7f; opacity: 0.5"/>
   </g>
   <g id="patch_168">
    <path d="M 392.735376 448.56 
L 394.24801 448.56 
L 394.24801 448.56 
L 392.735376 448.56 
z
" clip-path="url(#pf113786bf2)" style="fill: #7f7f7f; opacity: 0.5"/>
   </g>
   <g id="patch_169">
    <path d="M 394.626169 448.56 
L 396.138803 448.56 
L 396.138803 448.56 
L 394.626169 448.56 
z
" clip-path="url(#pf113786bf2)" style="fill: #7f7f7f; opacity: 0.5"/>
   </g>
   <g id="patch_170">
    <path d="M 396.516962 448.56 
L 398.029596 448.56 
L 398.029596 448.56 
L 396.516962 448.56 
z
" clip-path="url(#pf113786bf2)" style="fill: #7f7f7f; opacity: 0.5"/>
   </g>
   <g id="patch_171">
    <path d="M 398.407755 448.56 
L 399.920389 448.56 
L 399.920389 448.56 
L 398.407755 448.56 
z
" clip-path="url(#pf113786bf2)" style="fill: #7f7f7f; opacity: 0.5"/>
   </g>
   <g id="patch_172">
    <path d="M 400.298548 448.56 
L 401.811182 448.56 
L 401.811182 448.56 
L 400.298548 448.56 
z
" clip-path="url(#pf113786bf2)" style="fill: #7f7f7f; opacity: 0.5"/>
   </g>
   <g id="patch_173">
    <path d="M 402.189341 448.56 
L 403.701975 448.56 
L 403.701975 448.56 
L 402.189341 448.56 
z
" clip-path="url(#pf113786bf2)" style="fill: #7f7f7f; opacity: 0.5"/>
   </g>
   <g id="patch_174">
    <path d="M 404.080134 448.56 
L 405.592768 448.56 
L 405.592768 448.56 
L 404.080134 448.56 
z
" clip-path="url(#pf113786bf2)" style="fill: #7f7f7f; opacity: 0.5"/>
   </g>
   <g id="patch_175">
    <path d="M 405.970927 448.56 
L 407.483561 448.56 
L 407.483561 448.56 
L 405.970927 448.56 
z
" clip-path="url(#pf113786bf2)" style="fill: #7f7f7f; opacity: 0.5"/>
   </g>
   <g id="patch_176">
    <path d="M 407.861719 448.56 
L 409.374354 448.56 
L 409.374354 448.56 
L 407.861719 448.56 
z
" clip-path="url(#pf113786bf2)" style="fill: #7f7f7f; opacity: 0.5"/>
   </g>
   <g id="patch_177">
    <path d="M 409.752512 448.56 
L 411.265147 448.56 
L 411.265147 448.56 
L 409.752512 448.56 
z
" clip-path="url(#pf113786bf2)" style="fill: #7f7f7f; opacity: 0.5"/>
   </g>
   <g id="patch_178">
    <path d="M 411.643305 448.56 
L 413.15594 448.56 
L 413.15594 448.56 
L 411.643305 448.56 
z
" clip-path="url(#pf113786bf2)" style="fill: #7f7f7f; opacity: 0.5"/>
   </g>
   <g id="patch_179">
    <path d="M 413.534098 448.56 
L 415.046733 448.56 
L 415.046733 448.56 
L 413.534098 448.56 
z
" clip-path="url(#pf113786bf2)" style="fill: #7f7f7f; opacity: 0.5"/>
   </g>
   <g id="patch_180">
    <path d="M 415.424891 448.56 
L 416.937525 448.56 
L 416.937525 448.56 
L 415.424891 448.56 
z
" clip-path="url(#pf113786bf2)" style="fill: #7f7f7f; opacity: 0.5"/>
   </g>
   <g id="patch_181">
    <path d="M 417.315684 448.56 
L 418.828318 448.56 
L 418.828318 448.56 
L 417.315684 448.56 
z
" clip-path="url(#pf113786bf2)" style="fill: #7f7f7f; opacity: 0.5"/>
   </g>
   <g id="patch_182">
    <path d="M 419.206477 448.56 
L 420.719111 448.56 
L 420.719111 448.56 
L 419.206477 448.56 
z
" clip-path="url(#pf113786bf2)" style="fill: #7f7f7f; opacity: 0.5"/>
   </g>
   <g id="patch_183">
    <path d="M 421.09727 448.56 
L 422.609904 448.56 
L 422.609904 448.56 
L 421.09727 448.56 
z
" clip-path="url(#pf113786bf2)" style="fill: #7f7f7f; opacity: 0.5"/>
   </g>
   <g id="patch_184">
    <path d="M 422.988063 448.56 
L 424.500697 448.56 
L 424.500697 448.56 
L 422.988063 448.56 
z
" clip-path="url(#pf113786bf2)" style="fill: #7f7f7f; opacity: 0.5"/>
   </g>
   <g id="patch_185">
    <path d="M 424.878856 448.56 
L 426.39149 448.56 
L 426.39149 448.56 
L 424.878856 448.56 
z
" clip-path="url(#pf113786bf2)" style="fill: #7f7f7f; opacity: 0.5"/>
   </g>
   <g id="patch_186">
    <path d="M 426.769649 448.56 
L 428.282283 448.56 
L 428.282283 448.56 
L 426.769649 448.56 
z
" clip-path="url(#pf113786bf2)" style="fill: #7f7f7f; opacity: 0.5"/>
   </g>
   <g id="patch_187">
    <path d="M 428.660441 448.56 
L 430.173076 448.56 
L 430.173076 448.56 
L 428.660441 448.56 
z
" clip-path="url(#pf113786bf2)" style="fill: #7f7f7f; opacity: 0.5"/>
   </g>
   <g id="patch_188">
    <path d="M 430.551234 448.56 
L 432.063869 448.56 
L 432.063869 448.56 
L 430.551234 448.56 
z
" clip-path="url(#pf113786bf2)" style="fill: #7f7f7f; opacity: 0.5"/>
   </g>
   <g id="patch_189">
    <path d="M 432.442027 448.56 
L 433.954662 448.56 
L 433.954662 448.56 
L 432.442027 448.56 
z
" clip-path="url(#pf113786bf2)" style="fill: #7f7f7f; opacity: 0.5"/>
   </g>
   <g id="patch_190">
    <path d="M 434.33282 448.56 
L 435.845455 448.56 
L 435.845455 448.56 
L 434.33282 448.56 
z
" clip-path="url(#pf113786bf2)" style="fill: #7f7f7f; opacity: 0.5"/>
   </g>
   <g id="matplotlib.axis_1">
    <g id="ytick_1">
     <g id="line2d_1">
      <defs>
       <path id="mc88d4c6ece" d="M 0 0 
L 3.5 0 
" style="stroke: #7f7f7f; stroke-width: 0.8"/>
      </defs>
      <g>
       <use xlink:href="#mc88d4c6ece" x="453.6" y="448.56" style="fill: #7f7f7f; stroke: #7f7f7f; stroke-width: 0.8"/>
      </g>
     </g>
     <g id="text_1">
      <text style="font-size: 16px; font-family: 'Arial', sans-serif; text-anchor: start; fill: #7f7f7f" x="460.6" y="454.384219" transform="rotate(-0 460.6 454.384219)">0</text>
     </g>
    </g>
    <g id="ytick_2">
     <g id="line2d_2">
      <g>
       <use xlink:href="#mc88d4c6ece" x="453.6" y="396.816" style="fill: #7f7f7f; stroke: #7f7f7f; stroke-width: 0.8"/>
      </g>
     </g>
     <g id="text_2">
      <text style="font-size: 16px; font-family: 'Arial', sans-serif; text-anchor: start; fill: #7f7f7f" x="460.6" y="402.640219" transform="rotate(-0 460.6 402.640219)">2</text>
     </g>
    </g>
    <g id="ytick_3">
     <g id="line2d_3">
      <g>
       <use xlink:href="#mc88d4c6ece" x="453.6" y="345.072" style="fill: #7f7f7f; stroke: #7f7f7f; stroke-width: 0.8"/>
      </g>
     </g>
     <g id="text_3">
      <text style="font-size: 16px; font-family: 'Arial', sans-serif; text-anchor: start; fill: #7f7f7f" x="460.6" y="350.896219" transform="rotate(-0 460.6 350.896219)">4</text>
     </g>
    </g>
    <g id="ytick_4">
     <g id="line2d_4">
      <g>
       <use xlink:href="#mc88d4c6ece" x="453.6" y="293.328" style="fill: #7f7f7f; stroke: #7f7f7f; stroke-width: 0.8"/>
      </g>
     </g>
     <g id="text_4">
      <text style="font-size: 16px; font-family: 'Arial', sans-serif; text-anchor: start; fill: #7f7f7f" x="460.6" y="299.152219" transform="rotate(-0 460.6 299.152219)">6</text>
     </g>
    </g>
    <g id="ytick_5">
     <g id="line2d_5">
      <g>
       <use xlink:href="#mc88d4c6ece" x="453.6" y="241.584" style="fill: #7f7f7f; stroke: #7f7f7f; stroke-width: 0.8"/>
      </g>
     </g>
     <g id="text_5">
      <text style="font-size: 16px; font-family: 'Arial', sans-serif; text-anchor: start; fill: #7f7f7f" x="460.6" y="247.408219" transform="rotate(-0 460.6 247.408219)">8</text>
     </g>
    </g>
    <g id="ytick_6">
     <g id="line2d_6">
      <g>
       <use xlink:href="#mc88d4c6ece" x="453.6" y="189.84" style="fill: #7f7f7f; stroke: #7f7f7f; stroke-width: 0.8"/>
      </g>
     </g>
     <g id="text_6">
      <text style="font-size: 16px; font-family: 'Arial', sans-serif; text-anchor: start; fill: #7f7f7f" x="460.6" y="195.664219" transform="rotate(-0 460.6 195.664219)">10</text>
     </g>
    </g>
    <g id="ytick_7">
     <g id="line2d_7">
      <g>
       <use xlink:href="#mc88d4c6ece" x="453.6" y="138.096" style="fill: #7f7f7f; stroke: #7f7f7f; stroke-width: 0.8"/>
      </g>
     </g>
     <g id="text_7">
      <text style="font-size: 16px; font-family: 'Arial', sans-serif; text-anchor: start; fill: #7f7f7f" x="460.6" y="143.920219" transform="rotate(-0 460.6 143.920219)">12</text>
     </g>
    </g>
    <g id="ytick_8">
     <g id="line2d_8">
      <g>
       <use xlink:href="#mc88d4c6ece" x="453.6" y="86.352" style="fill: #7f7f7f; stroke: #7f7f7f; stroke-width: 0.8"/>
      </g>
     </g>
     <g id="text_8">
      <text style="font-size: 16px; font-family: 'Arial', sans-serif; text-anchor: start; fill: #7f7f7f" x="460.6" y="92.176219" transform="rotate(-0 460.6 92.176219)">14</text>
     </g>
    </g>
    <g id="text_9">
     <text style="font-size: 16px; font-family: 'Arial', sans-serif; text-anchor: middle; fill: #7f7f7f" x="494.043438" y="254.52" transform="rotate(-90 494.043438 254.52)">Number of cases</text>
    </g>
   </g>
   <g id="patch_191">
    <path d="M 453.6 448.56 
L 453.6 60.48 
" style="fill: none; stroke: #7f7f7f; stroke-width: 0.8; stroke-linejoin: miter; stroke-linecap: square"/>
   </g>
  </g>
  <g id="axes_2">
   <g id="FillBetweenPolyCollection_1">
    <defs>
     <path id="mdf4e726094" d="M 81.510863 -454.420433 
L 81.510863 -95.409948 
L 83.401656 -97.646818 
L 85.292448 -97.462848 
L 87.183241 -94.511471 
L 89.074034 -91.846958 
L 90.964827 -90.020735 
L 92.85562 -88.371512 
L 94.746413 -86.422838 
L 96.637206 -85.129361 
L 98.527999 -84.381901 
L 100.418792 -82.205489 
L 102.309585 -81.291121 
L 104.200378 -80.759542 
L 106.09117 -79.906836 
L 107.981963 -79.77944 
L 109.872756 -79.82546 
L 111.763549 -79.982574 
L 113.654342 -80.494201 
L 115.545135 -81.112361 
L 117.435928 -82.279796 
L 119.326721 -82.561333 
L 121.217514 -83.573586 
L 123.108307 -84.891744 
L 124.9991 -86.022515 
L 126.889893 -87.207854 
L 128.780685 -88.671254 
L 130.671478 -89.743877 
L 132.562271 -90.63496 
L 134.453064 -91.499315 
L 136.343857 -92.510572 
L 138.23465 -93.205714 
L 140.125443 -94.327371 
L 142.016236 -94.563824 
L 143.907029 -94.827635 
L 145.797822 -97.184436 
L 147.688615 -98.351508 
L 149.579407 -101.462362 
L 151.4702 -105.052923 
L 153.360993 -107.043693 
L 155.251786 -106.937002 
L 157.142579 -106.935767 
L 159.033372 -107.853928 
L 160.924165 -108.913561 
L 162.814958 -110.180188 
L 164.705751 -108.579912 
L 166.596544 -111.066357 
L 168.487337 -113.240313 
L 170.37813 -117.879025 
L 172.268922 -120.043488 
L 174.159715 -121.732649 
L 176.050508 -123.229863 
L 177.941301 -128.126101 
L 179.832094 -131.927955 
L 181.722887 -137.916157 
L 183.61368 -135.160503 
L 185.504473 -131.918655 
L 187.395266 -122.364445 
L 189.286059 -114.9424 
L 191.176852 -108.882619 
L 193.067644 -103.032337 
L 194.958437 -94.976061 
L 196.84923 -90.682489 
L 198.740023 -90.644039 
L 200.630816 -87.645992 
L 202.521609 -87.352395 
L 204.412402 -88.238701 
L 206.303195 -94.103923 
L 208.193988 -97.823188 
L 210.084781 -99.862447 
L 211.975574 -101.951251 
L 213.866367 -106.034957 
L 215.757159 -110.153149 
L 217.647952 -109.8366 
L 219.538745 -105.232925 
L 221.429538 -103.20906 
L 223.320331 -96.88535 
L 225.211124 -99.329811 
L 227.101917 -94.264221 
L 228.99271 -85.88649 
L 230.883503 -80.689836 
L 232.774296 -78.489223 
L 234.665089 -79.307277 
L 236.555881 -82.164814 
L 238.446674 -85.068444 
L 240.337467 -82.687379 
L 242.22826 -80.91856 
L 244.119053 -77.620835 
L 246.009846 -75.346208 
L 247.900639 -73.187567 
L 249.791432 -71.195509 
L 251.682225 -69.904724 
L 253.573018 -69.236194 
L 255.463811 -69.671996 
L 257.354604 -70.452188 
L 259.245396 -71.269622 
L 261.136189 -71.613819 
L 263.026982 -72.561041 
L 264.917775 -72.573737 
L 266.808568 -72.373625 
L 268.699361 -73.162434 
L 270.590154 -74.137954 
L 272.480947 -75.146119 
L 274.37174 -75.363911 
L 276.262533 -75.521852 
L 278.153326 -76.242046 
L 280.044119 -77.014249 
L 281.934911 -77.302824 
L 283.825704 -77.222456 
L 285.716497 -78.070198 
L 287.60729 -79.091321 
L 289.498083 -80.259686 
L 291.388876 -80.476237 
L 293.279669 -80.876525 
L 295.170462 -80.661693 
L 297.061255 -80.677927 
L 298.952048 -81.34515 
L 300.842841 -80.864321 
L 302.733633 -80.612524 
L 304.624426 -80.387123 
L 306.515219 -80.214566 
L 308.406012 -79.998842 
L 310.296805 -79.95489 
L 312.187598 -80.1151 
L 314.078391 -80.331158 
L 315.969184 -80.19238 
L 317.859977 -80.703821 
L 319.75077 -80.58081 
L 321.641563 -80.123246 
L 323.532356 -80.401152 
L 325.423148 -79.768282 
L 327.313941 -79.716813 
L 329.204734 -79.70151 
L 331.095527 -78.99982 
L 332.98632 -78.351764 
L 334.877113 -77.932756 
L 336.767906 -76.70188 
L 338.658699 -76.262336 
L 340.549492 -75.638094 
L 342.440285 -74.934354 
L 344.331078 -74.578604 
L 346.22187 -74.015795 
L 348.112663 -73.466768 
L 350.003456 -72.997698 
L 351.894249 -72.257217 
L 353.785042 -72.257469 
L 355.675835 -71.698594 
L 357.566628 -70.948405 
L 359.457421 -70.806711 
L 361.348214 -70.37075 
L 363.239007 -70.098079 
L 365.1298 -69.545115 
L 367.020593 -69.35478 
L 368.911385 -69.554152 
L 370.802178 -69.240927 
L 372.692971 -68.906163 
L 374.583764 -68.375917 
L 376.474557 -68.107992 
L 378.36535 -68.143804 
L 380.256143 -68.099987 
L 382.146936 -67.799509 
L 384.037729 -67.669034 
L 385.928522 -67.657307 
L 387.819315 -67.664581 
L 389.710107 -67.448286 
L 391.6009 -67.338042 
L 393.491693 -67.011336 
L 395.382486 -66.856555 
L 397.273279 -66.783255 
L 399.164072 -66.868691 
L 401.054865 -66.678219 
L 402.945658 -66.680515 
L 404.836451 -66.429185 
L 406.727244 -66.385761 
L 408.618037 -66.34657 
L 410.50883 -65.907487 
L 412.399622 -65.91091 
L 414.290415 -65.58827 
L 416.181208 -65.858353 
L 418.072001 -65.808802 
L 419.962794 -65.816748 
L 421.853587 -65.712474 
L 423.74438 -65.477214 
L 425.635173 -65.706601 
L 427.525966 -65.516799 
L 429.416759 -65.422244 
L 431.307552 -65.246577 
L 433.198344 -65.103943 
L 435.089137 -65.510028 
L 435.089137 -285.503175 
L 435.089137 -285.503175 
L 433.198344 -286.974328 
L 431.307552 -291.761674 
L 429.416759 -289.469366 
L 427.525966 -290.703153 
L 425.635173 -289.714758 
L 423.74438 -285.603791 
L 421.853587 -285.144189 
L 419.962794 -285.659973 
L 418.072001 -295.197096 
L 416.181208 -297.863089 
L 414.290415 -300.351506 
L 412.399622 -300.426556 
L 410.50883 -305.775009 
L 408.618037 -299.355383 
L 406.727244 -298.875225 
L 404.836451 -306.92305 
L 402.945658 -302.354738 
L 401.054865 -307.255171 
L 399.164072 -304.182714 
L 397.273279 -306.98474 
L 395.382486 -305.417305 
L 393.491693 -306.747446 
L 391.6009 -310.823866 
L 389.710107 -307.725929 
L 387.819315 -307.348417 
L 385.928522 -315.945918 
L 384.037729 -313.551898 
L 382.146936 -318.126506 
L 380.256143 -315.679938 
L 378.36535 -314.788611 
L 376.474557 -310.33253 
L 374.583764 -311.10248 
L 372.692971 -322.591959 
L 370.802178 -320.73169 
L 368.911385 -321.684836 
L 367.020593 -322.989282 
L 365.1298 -317.198393 
L 363.239007 -320.59412 
L 361.348214 -324.447456 
L 359.457421 -325.61898 
L 357.566628 -327.522466 
L 355.675835 -327.243007 
L 353.785042 -330.248613 
L 351.894249 -327.928881 
L 350.003456 -325.944083 
L 348.112663 -329.936568 
L 346.22187 -340.27978 
L 344.331078 -338.997995 
L 342.440285 -347.265573 
L 340.549492 -344.891268 
L 338.658699 -347.767185 
L 336.767906 -345.261732 
L 334.877113 -354.813782 
L 332.98632 -349.955343 
L 331.095527 -363.35972 
L 329.204734 -355.278391 
L 327.313941 -341.774389 
L 325.423148 -337.44912 
L 323.532356 -328.626737 
L 321.641563 -329.638304 
L 319.75077 -324.129061 
L 317.859977 -326.273198 
L 315.969184 -317.681385 
L 314.078391 -302.812805 
L 312.187598 -297.246072 
L 310.296805 -287.974195 
L 308.406012 -280.146018 
L 306.515219 -276.525843 
L 304.624426 -270.508909 
L 302.733633 -264.891987 
L 300.842841 -261.897523 
L 298.952048 -252.391941 
L 297.061255 -239.592496 
L 295.170462 -232.991919 
L 293.279669 -222.50081 
L 291.388876 -214.361722 
L 289.498083 -204.383144 
L 287.60729 -190.53653 
L 285.716497 -179.069572 
L 283.825704 -172.79758 
L 281.934911 -166.106936 
L 280.044119 -154.918328 
L 278.153326 -149.204011 
L 276.262533 -141.651867 
L 274.37174 -137.425197 
L 272.480947 -133.553349 
L 270.590154 -124.417942 
L 268.699361 -117.936001 
L 266.808568 -113.547465 
L 264.917775 -111.787866 
L 263.026982 -110.358456 
L 261.136189 -105.075486 
L 259.245396 -102.848528 
L 257.354604 -98.671793 
L 255.463811 -95.506872 
L 253.573018 -93.515707 
L 251.682225 -94.115429 
L 249.791432 -96.204179 
L 247.900639 -99.302155 
L 246.009846 -103.527273 
L 244.119053 -107.397766 
L 242.22826 -113.262208 
L 240.337467 -115.451171 
L 238.446674 -120.667218 
L 236.555881 -113.58899 
L 234.665089 -108.032329 
L 232.774296 -106.583233 
L 230.883503 -111.430342 
L 228.99271 -120.789044 
L 227.101917 -137.655586 
L 225.211124 -149.218655 
L 223.320331 -142.237872 
L 221.429538 -154.719323 
L 219.538745 -157.270877 
L 217.647952 -167.869728 
L 215.757159 -169.328469 
L 213.866367 -161.263728 
L 211.975574 -153.730658 
L 210.084781 -149.600003 
L 208.193988 -144.768525 
L 206.303195 -140.073682 
L 204.412402 -128.914072 
L 202.521609 -127.957715 
L 200.630816 -128.884846 
L 198.740023 -136.600942 
L 196.84923 -137.899872 
L 194.958437 -149.079024 
L 193.067644 -167.991402 
L 191.176852 -182.758073 
L 189.286059 -197.495447 
L 187.395266 -220.511539 
L 185.504473 -244.431819 
L 183.61368 -252.879452 
L 181.722887 -263.975237 
L 179.832094 -252.926437 
L 177.941301 -243.168583 
L 176.050508 -233.618958 
L 174.159715 -235.879921 
L 172.268922 -233.119524 
L 170.37813 -233.374946 
L 168.487337 -221.28369 
L 166.596544 -217.721253 
L 164.705751 -217.686534 
L 162.814958 -225.1587 
L 160.924165 -221.816139 
L 159.033372 -223.018104 
L 157.142579 -223.637125 
L 155.251786 -223.514905 
L 153.360993 -226.058611 
L 151.4702 -222.671016 
L 149.579407 -212.944141 
L 147.688615 -209.31072 
L 145.797822 -207.622569 
L 143.907029 -205.401958 
L 142.016236 -205.3889 
L 140.125443 -204.249966 
L 138.23465 -204.730567 
L 136.343857 -204.737655 
L 134.453064 -202.585955 
L 132.562271 -199.554497 
L 130.671478 -196.912194 
L 128.780685 -193.280391 
L 126.889893 -189.071337 
L 124.9991 -184.016461 
L 123.108307 -180.180985 
L 121.217514 -173.090381 
L 119.326721 -166.78606 
L 117.435928 -165.640738 
L 115.545135 -159.088619 
L 113.654342 -156.241895 
L 111.763549 -154.133501 
L 109.872756 -153.18734 
L 107.981963 -153.394461 
L 106.09117 -156.580922 
L 104.200378 -161.597034 
L 102.309585 -170.423711 
L 100.418792 -181.216195 
L 98.527999 -196.707817 
L 96.637206 -213.164647 
L 94.746413 -235.760143 
L 92.85562 -263.433641 
L 90.964827 -292.518869 
L 89.074034 -339.902633 
L 87.183241 -378.353124 
L 85.292448 -425.248895 
L 83.401656 -447.946286 
L 81.510863 -454.420433 
z
" style="stroke: #1f77b4; stroke-opacity: 0.3"/>
    </defs>
    <g clip-path="url(#pf113786bf2)">
     <use xlink:href="#mdf4e726094" x="0" y="504" style="fill: #1f77b4; fill-opacity: 0.3; stroke: #1f77b4; stroke-opacity: 0.3"/>
    </g>
   </g>
   <g id="FillBetweenPolyCollection_2">
    <defs>
     <path id="mee3c6cd34d" d="M 81.510863 -375.481321 
L 81.510863 -88.280818 
L 83.401656 -89.957578 
L 85.292448 -89.187484 
L 87.183241 -86.373288 
L 89.074034 -84.52788 
L 90.964827 -83.010021 
L 92.85562 -80.749148 
L 94.746413 -79.164419 
L 96.637206 -77.935237 
L 98.527999 -76.648856 
L 100.418792 -76.173421 
L 102.309585 -75.662833 
L 104.200378 -74.495827 
L 106.09117 -74.374771 
L 107.981963 -74.251096 
L 109.872756 -74.363421 
L 111.763549 -75.318089 
L 113.654342 -76.268845 
L 115.545135 -77.758842 
L 117.435928 -79.009855 
L 119.326721 -79.772416 
L 121.217514 -81.036253 
L 123.108307 -82.969359 
L 124.9991 -85.009172 
L 126.889893 -86.214912 
L 128.780685 -88.566686 
L 130.671478 -90.926114 
L 132.562271 -91.111925 
L 134.453064 -92.338768 
L 136.343857 -93.984192 
L 138.23465 -94.48874 
L 140.125443 -96.374659 
L 142.016236 -96.272867 
L 143.907029 -96.530398 
L 145.797822 -98.316824 
L 147.688615 -98.370944 
L 149.579407 -101.532634 
L 151.4702 -104.955145 
L 153.360993 -106.665748 
L 155.251786 -105.680996 
L 157.142579 -105.730787 
L 159.033372 -104.675974 
L 160.924165 -106.198908 
L 162.814958 -107.268976 
L 164.705751 -107.621013 
L 166.596544 -109.328178 
L 168.487337 -113.474071 
L 170.37813 -119.128369 
L 172.268922 -121.702566 
L 174.159715 -124.384517 
L 176.050508 -127.58104 
L 177.941301 -134.859005 
L 179.832094 -141.806 
L 181.722887 -147.354325 
L 183.61368 -144.865668 
L 185.504473 -141.802781 
L 187.395266 -128.359452 
L 189.286059 -118.689064 
L 191.176852 -111.818973 
L 193.067644 -104.964688 
L 194.958437 -95.104169 
L 196.84923 -90.517296 
L 198.740023 -90.899915 
L 200.630816 -87.108526 
L 202.521609 -86.986829 
L 204.412402 -87.658843 
L 206.303195 -93.136465 
L 208.193988 -97.714009 
L 210.084781 -101.123377 
L 211.975574 -102.674406 
L 213.866367 -107.958094 
L 215.757159 -112.88373 
L 217.647952 -111.869995 
L 219.538745 -107.273534 
L 221.429538 -105.273736 
L 223.320331 -99.206829 
L 225.211124 -101.189288 
L 227.101917 -95.672231 
L 228.99271 -86.135894 
L 230.883503 -80.979999 
L 232.774296 -78.707637 
L 234.665089 -79.665574 
L 236.555881 -82.411612 
L 238.446674 -85.168016 
L 240.337467 -82.414246 
L 242.22826 -80.433664 
L 244.119053 -77.523915 
L 246.009846 -75.042025 
L 247.900639 -72.574242 
L 249.791432 -70.7587 
L 251.682225 -69.55982 
L 253.573018 -68.896127 
L 255.463811 -69.122086 
L 257.354604 -69.927125 
L 259.245396 -70.878407 
L 261.136189 -71.582079 
L 263.026982 -72.45686 
L 264.917775 -72.506665 
L 266.808568 -72.230345 
L 268.699361 -72.184915 
L 270.590154 -73.467692 
L 272.480947 -74.727181 
L 274.37174 -74.969947 
L 276.262533 -75.066037 
L 278.153326 -75.204765 
L 280.044119 -75.216023 
L 281.934911 -76.145394 
L 283.825704 -76.1568 
L 285.716497 -76.854799 
L 287.60729 -77.358121 
L 289.498083 -78.089043 
L 291.388876 -78.642256 
L 293.279669 -77.835724 
L 295.170462 -78.215651 
L 297.061255 -78.385969 
L 298.952048 -78.098752 
L 300.842841 -77.831369 
L 302.733633 -77.413545 
L 304.624426 -77.678761 
L 306.515219 -77.352655 
L 308.406012 -77.874925 
L 310.296805 -78.284821 
L 312.187598 -78.013623 
L 314.078391 -78.241695 
L 315.969184 -78.266742 
L 317.859977 -79.025598 
L 319.75077 -78.144939 
L 321.641563 -77.065022 
L 323.532356 -76.598541 
L 325.423148 -76.732832 
L 327.313941 -76.226525 
L 329.204734 -77.130125 
L 331.095527 -76.950972 
L 332.98632 -75.98679 
L 334.877113 -76.328821 
L 336.767906 -75.048616 
L 338.658699 -74.946968 
L 340.549492 -74.111034 
L 342.440285 -74.265078 
L 344.331078 -73.192249 
L 346.22187 -72.867879 
L 348.112663 -72.577245 
L 350.003456 -72.531629 
L 351.894249 -72.039624 
L 353.785042 -71.482365 
L 355.675835 -70.759381 
L 357.566628 -70.197715 
L 359.457421 -70.293894 
L 361.348214 -69.797013 
L 363.239007 -69.783889 
L 365.1298 -69.72198 
L 367.020593 -69.167122 
L 368.911385 -68.869551 
L 370.802178 -68.423878 
L 372.692971 -68.392201 
L 374.583764 -68.525305 
L 376.474557 -68.330929 
L 378.36535 -68.463005 
L 380.256143 -68.335767 
L 382.146936 -67.518561 
L 384.037729 -67.169383 
L 385.928522 -67.131295 
L 387.819315 -66.620351 
L 389.710107 -66.814423 
L 391.6009 -66.378751 
L 393.491693 -66.400689 
L 395.382486 -66.315084 
L 397.273279 -66.093017 
L 399.164072 -65.590395 
L 401.054865 -65.827751 
L 402.945658 -65.54989 
L 404.836451 -65.570885 
L 406.727244 -65.76472 
L 408.618037 -65.533981 
L 408.618037 -292.84072 
L 408.618037 -292.84072 
L 406.727244 -299.626761 
L 404.836451 -301.882544 
L 402.945658 -306.419431 
L 401.054865 -300.275721 
L 399.164072 -304.116139 
L 397.273279 -302.130996 
L 395.382486 -303.248012 
L 393.491693 -302.080995 
L 391.6009 -300.419796 
L 389.710107 -299.809532 
L 387.819315 -303.952206 
L 385.928522 -295.996145 
L 384.037729 -311.373426 
L 382.146936 -312.722859 
L 380.256143 -306.500978 
L 378.36535 -306.228105 
L 376.474557 -314.336488 
L 374.583764 -302.474783 
L 372.692971 -304.222025 
L 370.802178 -306.905162 
L 368.911385 -306.25494 
L 367.020593 -309.030395 
L 365.1298 -308.071497 
L 363.239007 -307.417808 
L 361.348214 -316.011172 
L 359.457421 -312.21239 
L 357.566628 -323.022154 
L 355.675835 -320.768856 
L 353.785042 -315.488362 
L 351.894249 -321.820363 
L 350.003456 -310.763123 
L 348.112663 -315.832721 
L 346.22187 -315.947496 
L 344.331078 -324.044505 
L 342.440285 -314.788797 
L 340.549492 -314.902005 
L 338.658699 -320.151032 
L 336.767906 -327.108049 
L 334.877113 -340.989104 
L 332.98632 -346.200007 
L 331.095527 -340.536821 
L 329.204734 -328.984736 
L 327.313941 -325.897018 
L 325.423148 -324.815313 
L 323.532356 -340.427513 
L 321.641563 -324.370136 
L 319.75077 -319.883911 
L 317.859977 -313.009007 
L 315.969184 -304.405524 
L 314.078391 -288.4778 
L 312.187598 -277.759565 
L 310.296805 -263.623961 
L 308.406012 -259.335896 
L 306.515219 -257.709178 
L 304.624426 -253.790114 
L 302.733633 -247.282525 
L 300.842841 -245.457556 
L 298.952048 -241.596273 
L 297.061255 -232.796328 
L 295.170462 -221.30326 
L 293.279669 -213.207494 
L 291.388876 -207.839536 
L 289.498083 -199.948585 
L 287.60729 -187.452024 
L 285.716497 -177.466745 
L 283.825704 -168.469497 
L 281.934911 -159.68472 
L 280.044119 -153.691526 
L 278.153326 -146.175355 
L 276.262533 -138.351745 
L 274.37174 -135.817644 
L 272.480947 -130.153656 
L 270.590154 -121.628387 
L 268.699361 -115.666714 
L 266.808568 -109.748356 
L 264.917775 -108.666189 
L 263.026982 -107.398244 
L 261.136189 -102.74932 
L 259.245396 -100.725421 
L 257.354604 -98.656298 
L 255.463811 -94.716468 
L 253.573018 -92.701175 
L 251.682225 -94.234996 
L 249.791432 -95.101691 
L 247.900639 -98.686472 
L 246.009846 -102.560068 
L 244.119053 -106.210159 
L 242.22826 -111.452296 
L 240.337467 -115.132581 
L 238.446674 -119.345415 
L 236.555881 -113.222335 
L 234.665089 -107.663602 
L 232.774296 -106.78853 
L 230.883503 -111.230244 
L 228.99271 -121.737427 
L 227.101917 -137.382414 
L 225.211124 -152.183508 
L 223.320331 -144.942142 
L 221.429538 -157.212999 
L 219.538745 -158.331619 
L 217.647952 -169.324619 
L 215.757159 -168.523579 
L 213.866367 -159.922509 
L 211.975574 -151.511277 
L 210.084781 -145.577192 
L 208.193988 -140.981729 
L 206.303195 -136.252649 
L 204.412402 -125.127832 
L 202.521609 -123.594064 
L 200.630816 -125.077534 
L 198.740023 -133.26691 
L 196.84923 -133.702812 
L 194.958437 -143.872986 
L 193.067644 -165.014976 
L 191.176852 -178.161574 
L 189.286059 -196.12611 
L 187.395266 -219.223921 
L 185.504473 -244.278933 
L 183.61368 -253.790967 
L 181.722887 -267.179202 
L 179.832094 -253.470769 
L 177.941301 -248.581982 
L 176.050508 -236.921701 
L 174.159715 -233.124754 
L 172.268922 -226.602876 
L 170.37813 -224.566087 
L 168.487337 -212.666724 
L 166.596544 -207.396868 
L 164.705751 -203.432434 
L 162.814958 -212.309151 
L 160.924165 -208.822585 
L 159.033372 -208.624942 
L 157.142579 -209.476381 
L 155.251786 -211.884514 
L 153.360993 -215.186348 
L 151.4702 -215.441256 
L 149.579407 -205.620448 
L 147.688615 -203.42807 
L 145.797822 -206.861177 
L 143.907029 -206.793612 
L 142.016236 -212.823859 
L 140.125443 -212.057941 
L 138.23465 -215.534676 
L 136.343857 -222.144515 
L 134.453064 -223.609743 
L 132.562271 -219.120402 
L 130.671478 -215.849515 
L 128.780685 -207.549057 
L 126.889893 -198.665125 
L 124.9991 -191.452225 
L 123.108307 -182.589497 
L 121.217514 -171.073149 
L 119.326721 -161.99525 
L 117.435928 -156.582419 
L 115.545135 -146.970007 
L 113.654342 -140.703216 
L 111.763549 -137.210761 
L 109.872756 -135.117371 
L 107.981963 -135.075209 
L 106.09117 -136.436151 
L 104.200378 -138.786978 
L 102.309585 -142.968761 
L 100.418792 -151.374947 
L 98.527999 -168.60694 
L 96.637206 -179.739275 
L 94.746413 -197.590388 
L 92.85562 -220.96726 
L 90.964827 -249.06235 
L 89.074034 -278.153514 
L 87.183241 -312.917936 
L 85.292448 -353.9875 
L 83.401656 -366.067789 
L 81.510863 -375.481321 
z
" style="stroke: #d62728; stroke-opacity: 0.15"/>
    </defs>
    <g clip-path="url(#pf113786bf2)">
     <use xlink:href="#mee3c6cd34d" x="0" y="504" style="fill: #d62728; fill-opacity: 0.15; stroke: #d62728; stroke-opacity: 0.15"/>
    </g>
   </g>
   <g id="matplotlib.axis_2">
    <g id="xtick_1">
     <g id="line2d_9">
      <defs>
       <path id="me1f4b8c793" d="M 0 0 
L 0 3.5 
" style="stroke: #000000; stroke-width: 0.8"/>
      </defs>
      <g>
       <use xlink:href="#me1f4b8c793" x="90.964827" y="448.56" style="stroke: #000000; stroke-width: 0.8"/>
      </g>
     </g>
     <g id="text_10">
      <text style="font-size: 16px; font-family: 'Arial', sans-serif; text-anchor: middle" x="90.964827" y="467.208438" transform="rotate(-0 90.964827 467.208438)">1 Jul</text>
     </g>
    </g>
    <g id="xtick_2">
     <g id="line2d_10">
      <g>
       <use xlink:href="#me1f4b8c793" x="149.579407" y="448.56" style="stroke: #000000; stroke-width: 0.8"/>
      </g>
     </g>
     <g id="text_11">
      <text style="font-size: 16px; font-family: 'Arial', sans-serif; text-anchor: middle" x="149.579407" y="467.208438" transform="rotate(-0 149.579407 467.208438)">1 Aug</text>
     </g>
    </g>
    <g id="xtick_3">
     <g id="line2d_11">
      <g>
       <use xlink:href="#me1f4b8c793" x="208.193988" y="448.56" style="stroke: #000000; stroke-width: 0.8"/>
      </g>
     </g>
     <g id="text_12">
      <text style="font-size: 16px; font-family: 'Arial', sans-serif; text-anchor: middle" x="208.193988" y="467.208438" transform="rotate(-0 208.193988 467.208438)">1 Sep</text>
     </g>
    </g>
    <g id="xtick_4">
     <g id="line2d_12">
      <g>
       <use xlink:href="#me1f4b8c793" x="264.917775" y="448.56" style="stroke: #000000; stroke-width: 0.8"/>
      </g>
     </g>
     <g id="text_13">
      <text style="font-size: 16px; font-family: 'Arial', sans-serif; text-anchor: middle" x="264.917775" y="467.2175" transform="rotate(-0 264.917775 467.2175)">1 Oct</text>
     </g>
    </g>
    <g id="xtick_5">
     <g id="line2d_13">
      <g>
       <use xlink:href="#me1f4b8c793" x="323.532356" y="448.56" style="stroke: #000000; stroke-width: 0.8"/>
      </g>
     </g>
     <g id="text_14">
      <text style="font-size: 16px; font-family: 'Arial', sans-serif; text-anchor: middle" x="323.532356" y="467.208438" transform="rotate(-0 323.532356 467.208438)">1 Nov</text>
     </g>
    </g>
    <g id="xtick_6">
     <g id="line2d_14">
      <g>
       <use xlink:href="#me1f4b8c793" x="380.256143" y="448.56" style="stroke: #000000; stroke-width: 0.8"/>
      </g>
     </g>
     <g id="text_15">
      <text style="font-size: 16px; font-family: 'Arial', sans-serif; text-anchor: middle" x="380.256143" y="467.208438" transform="rotate(-0 380.256143 467.208438)">1 Dec</text>
     </g>
    </g>
    <g id="xtick_7">
     <g id="line2d_15">
      <g>
       <use xlink:href="#me1f4b8c793" x="438.870723" y="448.56" style="stroke: #000000; stroke-width: 0.8"/>
      </g>
     </g>
     <g id="text_16">
      <text style="font-size: 16px; font-family: 'Arial', sans-serif; text-anchor: middle" x="438.870723" y="467.208438" transform="rotate(-0 438.870723 467.208438)">1 Jan</text>
     </g>
    </g>
    <g id="text_17">
     <text style="font-size: 16px; font-family: 'Arial', sans-serif; text-anchor: middle" x="258.3" y="486.233125" transform="rotate(-0 258.3 486.233125)">Date (2017)</text>
    </g>
   </g>
   <g id="matplotlib.axis_3">
    <g id="ytick_9">
     <g id="line2d_16">
      <defs>
       <path id="m39d0d9a1dd" d="M 0 0 
L -3.5 0 
" style="stroke: #000000; stroke-width: 0.8"/>
      </defs>
      <g>
       <use xlink:href="#m39d0d9a1dd" x="63" y="448.56" style="stroke: #000000; stroke-width: 0.8"/>
      </g>
     </g>
     <g id="text_18">
      <text style="font-size: 16px; font-family: 'Arial', sans-serif; text-anchor: end" x="56" y="454.384219" transform="rotate(-0 56 454.384219)">0</text>
     </g>
    </g>
    <g id="ytick_10">
     <g id="line2d_17">
      <g>
       <use xlink:href="#m39d0d9a1dd" x="63" y="370.944" style="stroke: #000000; stroke-width: 0.8"/>
      </g>
     </g>
     <g id="text_19">
      <text style="font-size: 16px; font-family: 'Arial', sans-serif; text-anchor: end" x="56" y="376.768219" transform="rotate(-0 56 376.768219)">2</text>
     </g>
    </g>
    <g id="ytick_11">
     <g id="line2d_18">
      <g>
       <use xlink:href="#m39d0d9a1dd" x="63" y="293.328" style="stroke: #000000; stroke-width: 0.8"/>
      </g>
     </g>
     <g id="text_20">
      <text style="font-size: 16px; font-family: 'Arial', sans-serif; text-anchor: end" x="56" y="299.152219" transform="rotate(-0 56 299.152219)">4</text>
     </g>
    </g>
    <g id="ytick_12">
     <g id="line2d_19">
      <g>
       <use xlink:href="#m39d0d9a1dd" x="63" y="215.712" style="stroke: #000000; stroke-width: 0.8"/>
      </g>
     </g>
     <g id="text_21">
      <text style="font-size: 16px; font-family: 'Arial', sans-serif; text-anchor: end" x="56" y="221.536219" transform="rotate(-0 56 221.536219)">6</text>
     </g>
    </g>
    <g id="ytick_13">
     <g id="line2d_20">
      <g>
       <use xlink:href="#m39d0d9a1dd" x="63" y="138.096" style="stroke: #000000; stroke-width: 0.8"/>
      </g>
     </g>
     <g id="text_22">
      <text style="font-size: 16px; font-family: 'Arial', sans-serif; text-anchor: end" x="56" y="143.920219" transform="rotate(-0 56 143.920219)">8</text>
     </g>
    </g>
    <g id="ytick_14">
     <g id="line2d_21">
      <g>
       <use xlink:href="#m39d0d9a1dd" x="63" y="60.48" style="stroke: #000000; stroke-width: 0.8"/>
      </g>
     </g>
     <g id="text_23">
      <text style="font-size: 16px; font-family: 'Arial', sans-serif; text-anchor: end" x="56" y="66.304219" transform="rotate(-0 56 66.304219)">10</text>
     </g>
    </g>
    <g id="text_24">
     <text style="font-size: 16px; font-family: 'Arial', sans-serif; text-anchor: middle" x="30.8375" y="254.52" transform="rotate(-90 30.8375 254.52)">Reproduction number scaling factor</text>
    </g>
   </g>
   <g id="line2d_22">
    <path d="M 81.510863 296.044341 
L 83.401656 292.845721 
L 85.292448 299.678785 
L 87.183241 315.930287 
L 89.074034 330.196572 
L 90.964827 342.836839 
L 92.85562 354.046555 
L 94.746413 363.37281 
L 96.637206 370.762696 
L 98.527999 376.694255 
L 100.418792 383.307715 
L 102.309585 388.082105 
L 104.200378 391.669335 
L 106.09117 393.935256 
L 107.981963 395.275532 
L 109.872756 395.796708 
L 111.763549 395.36688 
L 113.654342 394.482289 
L 115.545135 392.58754 
L 117.435928 390.076615 
L 119.326721 388.934616 
L 121.217514 386.709112 
L 123.108307 383.411457 
L 124.9991 381.187919 
L 126.889893 378.325875 
L 128.780685 376.770563 
L 130.671478 374.189082 
L 132.562271 372.828937 
L 134.453064 370.224902 
L 136.343857 368.644256 
L 138.23465 368.688351 
L 140.125443 367.174411 
L 142.016236 366.364965 
L 143.907029 366.694412 
L 145.797822 364.301541 
L 147.688615 362.982249 
L 149.579407 358.911946 
L 151.4702 351.190073 
L 153.360993 349.4853 
L 155.251786 350.306018 
L 157.142579 350.628984 
L 159.033372 350.352476 
L 160.924165 349.673694 
L 162.814958 347.647717 
L 164.705751 351.131153 
L 166.596544 349.622018 
L 168.487337 345.660948 
L 170.37813 337.876104 
L 172.268922 336.007072 
L 174.159715 335.035492 
L 176.050508 334.587729 
L 177.941301 327.726577 
L 179.832094 321.686808 
L 181.722887 313.408093 
L 185.504473 324.605663 
L 187.395266 340.350489 
L 189.286059 354.135556 
L 193.067644 372.976676 
L 194.958437 386.330324 
L 196.84923 393.14275 
L 198.740023 393.052397 
L 200.630816 398.552638 
L 202.521609 399.061197 
L 204.412402 397.899397 
L 206.303195 389.876504 
L 208.193988 385.861067 
L 210.084781 382.70848 
L 211.975574 379.962563 
L 215.757159 368.073356 
L 217.647952 368.555728 
L 219.538745 375.931994 
L 221.429538 378.135286 
L 223.320331 387.05619 
L 225.211124 383.038354 
L 227.101917 391.319058 
L 228.99271 403.106049 
L 230.883503 410.037137 
L 232.774296 413.441017 
L 234.665089 412.136677 
L 236.555881 407.971777 
L 238.446674 403.497553 
L 240.337467 406.989517 
L 242.22826 409.272761 
L 244.119053 413.699789 
L 246.009846 416.52304 
L 247.900639 419.713022 
L 249.791432 422.299015 
L 251.682225 423.826203 
L 253.573018 424.721826 
L 255.463811 423.715476 
L 257.354604 421.882163 
L 259.245396 419.678024 
L 261.136189 418.499747 
L 263.026982 416.382082 
L 264.917775 415.644601 
L 266.808568 415.351794 
L 268.699361 413.588801 
L 270.590154 410.378192 
L 272.480947 406.867253 
L 274.37174 404.803128 
L 276.262533 403.072129 
L 278.153326 400.186725 
L 280.044119 398.035759 
L 281.934911 394.669628 
L 283.825704 392.422662 
L 285.716497 389.346383 
L 287.60729 385.367407 
L 289.498083 380.581178 
L 291.388876 377.051371 
L 293.279669 375.409179 
L 295.170462 373.176897 
L 297.061255 370.261619 
L 298.952048 366.773748 
L 300.842841 365.407992 
L 304.624426 363.135996 
L 308.406012 359.831312 
L 310.296805 357.608298 
L 314.078391 352.498193 
L 315.969184 349.439112 
L 317.859977 345.931703 
L 319.75077 345.896576 
L 323.532356 345.325057 
L 325.423148 344.73472 
L 331.095527 340.72328 
L 332.98632 343.292375 
L 334.877113 345.33984 
L 336.767906 347.179672 
L 338.658699 348.633967 
L 342.440285 352.411011 
L 344.331078 353.816465 
L 346.22187 355.026124 
L 350.003456 358.339004 
L 353.785042 359.755473 
L 357.566628 361.982916 
L 361.348214 363.654886 
L 363.239007 364.746771 
L 365.1298 365.577567 
L 367.020593 365.990825 
L 370.802178 367.934089 
L 372.692971 368.334193 
L 374.583764 369.261016 
L 382.146936 371.209706 
L 384.037729 371.409718 
L 385.928522 372.234107 
L 387.819315 372.81202 
L 389.710107 373.541803 
L 399.164072 375.858749 
L 401.054865 376.277545 
L 402.945658 377.083886 
L 404.836451 377.696544 
L 406.727244 378.138553 
L 408.618037 378.787436 
L 410.50883 378.834973 
L 412.399622 379.10324 
L 414.290415 379.242688 
L 416.181208 379.650511 
L 418.072001 380.280564 
L 419.962794 380.71082 
L 421.853587 381.406541 
L 423.74438 381.752886 
L 425.635173 381.638114 
L 427.525966 382.017298 
L 429.416759 381.861588 
L 431.307552 382.193246 
L 435.089137 383.148064 
L 435.089137 383.148064 
" clip-path="url(#pf113786bf2)" style="fill: none; stroke: #1f77b4; stroke-width: 2; stroke-linecap: square"/>
   </g>
   <g id="line2d_23">
    <path d="M 81.510863 326.971296 
L 83.401656 325.174695 
L 85.292448 330.903084 
L 87.183241 344.540233 
L 89.074034 356.075122 
L 90.964827 366.520436 
L 92.85562 375.394589 
L 94.746413 382.889771 
L 96.637206 389.05117 
L 98.527999 393.605765 
L 100.418792 398.750599 
L 102.309585 402.364151 
L 104.200378 404.614974 
L 106.09117 405.8968 
L 107.981963 406.250862 
L 109.872756 405.901458 
L 111.763549 404.749507 
L 113.654342 402.72699 
L 115.545135 399.586692 
L 117.435928 395.357833 
L 119.326721 392.271541 
L 121.217514 387.957141 
L 123.108307 382.752079 
L 124.9991 378.911253 
L 126.889893 373.936233 
L 128.780685 370.44178 
L 130.671478 366.518348 
L 132.562271 364.791423 
L 134.453064 362.176422 
L 136.343857 361.364744 
L 138.23465 362.353979 
L 140.125443 361.721114 
L 142.016236 362.030417 
L 143.907029 363.226945 
L 145.797822 362.654679 
L 147.688615 362.678088 
L 149.579407 359.831313 
L 151.4702 353.60512 
L 153.360993 353.062161 
L 155.251786 355.128844 
L 157.142579 356.169075 
L 159.033372 356.386723 
L 160.924165 355.688176 
L 162.814958 353.748366 
L 164.705751 356.842268 
L 166.596544 354.453075 
L 168.487337 349.727425 
L 170.37813 340.717289 
L 172.268922 337.116884 
L 176.050508 331.097865 
L 177.941301 322.435206 
L 179.832094 314.56895 
L 181.722887 305.331644 
L 185.504473 318.093885 
L 187.395266 336.00652 
L 189.286059 351.713974 
L 193.067644 373.726268 
L 194.958437 387.616382 
L 196.84923 394.774334 
L 198.740023 395.01542 
L 200.630816 400.63223 
L 202.521609 401.21519 
L 204.412402 399.846004 
L 206.303195 391.806811 
L 208.193988 387.24573 
L 211.975574 379.589932 
L 215.757159 366.279126 
L 217.647952 366.307689 
L 219.538745 373.448448 
L 221.429538 375.668705 
L 223.320331 384.965791 
L 225.211124 380.820636 
L 227.101917 390.038614 
L 228.99271 402.401786 
L 230.883503 409.702136 
L 232.774296 413.303552 
L 234.665089 412.196911 
L 238.446674 403.75433 
L 240.337467 407.387879 
L 242.22826 409.753472 
L 244.119053 414.149804 
L 246.009846 417.033452 
L 247.900639 420.215079 
L 249.791432 422.708487 
L 251.682225 424.075786 
L 253.573018 425.064594 
L 255.463811 424.230897 
L 259.245396 420.579899 
L 261.136189 419.584869 
L 263.026982 417.455539 
L 264.917775 416.711105 
L 266.808568 416.580228 
L 268.699361 414.769072 
L 270.590154 411.713433 
L 272.480947 408.241691 
L 274.37174 406.343209 
L 276.262533 404.776776 
L 278.153326 402.200653 
L 280.044119 400.052114 
L 281.934911 397.257433 
L 283.825704 395.224624 
L 285.716497 392.319502 
L 287.60729 388.730997 
L 289.498083 384.296058 
L 291.388876 381.486619 
L 293.279669 379.85319 
L 295.170462 377.728333 
L 298.952048 372.740521 
L 300.842841 371.997445 
L 302.733633 371.393266 
L 304.624426 369.906739 
L 306.515219 368.240757 
L 308.406012 366.836879 
L 310.296805 364.987059 
L 314.078391 360.482981 
L 315.969184 357.323307 
L 317.859977 353.739823 
L 321.641563 352.977013 
L 323.532356 352.130877 
L 325.423148 351.632427 
L 327.313941 351.566328 
L 329.204734 350.266791 
L 331.095527 348.569575 
L 332.98632 350.449382 
L 334.877113 352.921784 
L 336.767906 355.09344 
L 340.549492 359.093447 
L 342.440285 360.344951 
L 344.331078 361.219215 
L 346.22187 362.368899 
L 348.112663 363.716501 
L 350.003456 364.819044 
L 351.894249 365.544485 
L 353.785042 366.707362 
L 355.675835 367.470708 
L 357.566628 367.804497 
L 359.457421 369.066751 
L 361.348214 369.911549 
L 365.1298 370.593303 
L 367.020593 370.586378 
L 368.911385 371.751521 
L 370.802178 371.590401 
L 372.692971 371.746921 
L 374.583764 372.771141 
L 376.474557 372.945814 
L 380.256143 374.098432 
L 382.146936 374.167421 
L 384.037729 374.411278 
L 385.928522 375.264221 
L 387.819315 375.532715 
L 389.710107 376.153877 
L 391.6009 376.937542 
L 395.382486 377.453038 
L 397.273279 377.932968 
L 399.164072 377.981675 
L 401.054865 378.513314 
L 402.945658 378.56946 
L 404.836451 378.964581 
L 406.727244 379.671293 
L 408.618037 380.521186 
L 408.618037 380.521186 
" clip-path="url(#pf113786bf2)" style="fill: none; stroke-dasharray: 7.4,3.2; stroke-dashoffset: 0; stroke: #d62728; stroke-width: 2"/>
   </g>
   <g id="patch_192">
    <path d="M 63 448.56 
L 63 60.48 
" style="fill: none; stroke: #000000; stroke-width: 0.8; stroke-linejoin: miter; stroke-linecap: square"/>
   </g>
   <g id="patch_193">
    <path d="M 63 448.56 
L 453.6 448.56 
" style="fill: none; stroke: #000000; stroke-width: 0.8; stroke-linejoin: miter; stroke-linecap: square"/>
   </g>
   <g id="legend_1">
    <g id="patch_194">
     <path d="M 300.960625 111.957891 
L 443.8 111.957891 
Q 446.6 111.957891 446.6 109.157891 
L 446.6 70.28 
Q 446.6 67.48 443.8 67.48 
L 300.960625 67.48 
Q 298.160625 67.48 298.160625 70.28 
L 298.160625 109.157891 
Q 298.160625 111.957891 300.960625 111.957891 
z
" style="fill: #ffffff; opacity: 0.8; stroke: #cccccc; stroke-linejoin: miter"/>
    </g>
    <g id="line2d_24">
     <path d="M 303.760625 78.372383 
L 317.760625 78.372383 
L 331.760625 78.372383 
" style="fill: none; stroke: #1f77b4; stroke-width: 2; stroke-linecap: square"/>
    </g>
    <g id="text_25">
     <text style="font-size: 14px; font-family: 'Arial', sans-serif; text-anchor: start" x="342.960625" y="83.272383" transform="rotate(-0 342.960625 83.272383)">Under-reporting</text>
    </g>
    <g id="line2d_25">
     <path d="M 303.760625 98.511328 
L 317.760625 98.511328 
L 331.760625 98.511328 
" style="fill: none; stroke-dasharray: 7.4,3.2; stroke-dashoffset: 0; stroke: #d62728; stroke-width: 2"/>
    </g>
    <g id="text_26">
     <text style="font-size: 14px; font-family: 'Arial', sans-serif; text-anchor: start" x="342.960625" y="103.411328" transform="rotate(-0 342.960625 103.411328)">Full reporting</text>
    </g>
   </g>
  </g>
 </g>
 <defs>
  <clipPath id="pf113786bf2">
   <rect x="63" y="60.48" width="390.6" height="388.08"/>
  </clipPath>
 </defs>
</svg>
