<?xml version="1.0" encoding="utf-8" standalone="no"?>
<!DOCTYPE svg PUBLIC "-//W3C//DTD SVG 1.1//EN"
  "http://www.w3.org/Graphics/SVG/1.1/DTD/svg11.dtd">
<svg xmlns:xlink="http://www.w3.org/1999/xlink" width="504pt" height="504pt" viewBox="0 0 504 504" xmlns="http://www.w3.org/2000/svg" version="1.1">
 <metadata>
  <rdf:RDF xmlns:dc="http://purl.org/dc/elements/1.1/" xmlns:cc="http://creativecommons.org/ns#" xmlns:rdf="http://www.w3.org/1999/02/22-rdf-syntax-ns#">
   <cc:Work>
    <dc:type rdf:resource="http://purl.org/dc/dcmitype/StillImage"/>
    <dc:date>2026-07-23T18:06:55.350639</dc:date>
    <dc:format>image/svg+xml</dc:format>
    <dc:creator>
     <cc:Agent>
      <dc:title>Matplotlib v3.11.0, https://matplotlib.org/</dc:title>
     </cc:Agent>
    </dc:creator>
   </cc:Work>
  </rdf:RDF>
 </metadata>
 <defs>
  <style type="text/css">*{stroke-linejoin: round; stroke-linecap: butt}</style>
 </defs>
 <g id="figure_1">
  <g id="patch_1">
   <path d="M 0 504 
L 504 504 
L 504 0 
L 0 0 
L 0 504 
z
" style="fill: none"/>
  </g>
  <g id="axes_1">
   <g id="patch_2">
    <path d="M 63 448.56 
L 453.6 448.56 
L 453.6 60.48 
L 63 60.48 
L 63 448.56 
z
" style="fill: none"/>
   </g>
   <g id="matplotlib.axis_1">
    <g id="ytick_1">
     <g id="line2d_1">
      <defs>
       <path id="m643fda2646" d="M 0 0 
L 3.5 0 
" style="stroke: #7f7f7f; stroke-width: 0.8"/>
      </defs>
      <g>
       <use xlink:href="#m643fda2646" x="453.6" y="448.56" style="fill: #7f7f7f; stroke: #7f7f7f; stroke-width: 0.8"/>
      </g>
     </g>
     <g id="text_1">
      <text style="font-size: 16px; font-family: 'Arial', sans-serif; text-anchor: start; fill: #7f7f7f" x="460.6" y="454.384219" transform="rotate(-0 460.6 454.384219)">0</text>
     </g>
    </g>
    <g id="ytick_2">
     <g id="line2d_2">
      <g>
       <use xlink:href="#m643fda2646" x="453.6" y="396.816" style="fill: #7f7f7f; stroke: #7f7f7f; stroke-width: 0.8"/>
      </g>
     </g>
     <g id="text_2">
      <text style="font-size: 16px; font-family: 'Arial', sans-serif; text-anchor: start; fill: #7f7f7f" x="460.6" y="402.640219" transform="rotate(-0 460.6 402.640219)">2</text>
     </g>
    </g>
    <g id="ytick_3">
     <g id="line2d_3">
      <g>
       <use xlink:href="#m643fda2646" x="453.6" y="345.072" style="fill: #7f7f7f; stroke: #7f7f7f; stroke-width: 0.8"/>
      </g>
     </g>
     <g id="text_3">
      <text style="font-size: 16px; font-family: 'Arial', sans-serif; text-anchor: start; fill: #7f7f7f" x="460.6" y="350.896219" transform="rotate(-0 460.6 350.896219)">4</text>
     </g>
    </g>
    <g id="ytick_4">
     <g id="line2d_4">
      <g>
       <use xlink:href="#m643fda2646" x="453.6" y="293.328" style="fill: #7f7f7f; stroke: #7f7f7f; stroke-width: 0.8"/>
      </g>
     </g>
     <g id="text_4">
      <text style="font-size: 16px; font-family: 'Arial', sans-serif; text-anchor: start; fill: #7f7f7f" x="460.6" y="299.152219" transform="rotate(-0 460.6 299.152219)">6</text>
     </g>
    </g>
    <g id="ytick_5">
     <g id="line2d_5">
      <g>
       <use xlink:href="#m643fda2646" x="453.6" y="241.584" style="fill: #7f7f7f; stroke: #7f7f7f; stroke-width: 0.8"/>
      </g>
     </g>
     <g id="text_5">
      <text style="font-size: 16px; font-family: 'Arial', sans-serif; text-anchor: start; fill: #7f7f7f" x="460.6" y="247.408219" transform="rotate(-0 460.6 247.408219)">8</text>
     </g>
    </g>
    <g id="ytick_6">
     <g id="line2d_6">
      <g>
       <use xlink:href="#m643fda2646" x="453.6" y="189.84" style="fill: #7f7f7f; stroke: #7f7f7f; stroke-width: 0.8"/>
      </g>
     </g>
     <g id="text_6">
      <text style="font-size: 16px; font-family: 'Arial', sans-serif; text-anchor: start; fill: #7f7f7f" x="460.6" y="195.664219" transform="rotate(-0 460.6 195.664219)">10</text>
     </g>
    </g>
    <g id="ytick_7">
     <g id="line2d_7">
      <g>
       <use xlink:href="#m643fda2646" x="453.6" y="138.096" style="fill: #7f7f7f; stroke: #7f7f7f; stroke-width: 0.8"/>
      </g>
     </g>
     <g id="text_7">
      <text style="font-size: 16px; font-family: 'Arial', sans-serif; text-anchor: start; fill: #7f7f7f" x="460.6" y="143.920219" transform="rotate(-0 460.6 143.920219)">12</text>
     </g>
    </g>
    <g id="ytick_8">
     <g id="line2d_8">
      <g>
       <use xlink:href="#m643fda2646" x="453.6" y="86.352" style="fill: #7f7f7f; stroke: #7f7f7f; stroke-width: 0.8"/>
      </g>
     </g>
     <g id="text_8">
      <text style="font-size: 16px; font-family: 'Arial', sans-serif; text-anchor: start; fill: #7f7f7f" x="460.6" y="92.176219" transform="rotate(-0 460.6 92.176219)">14</text>
     </g>
    </g>
    <g id="text_9">
     <text style="font-size: 16px; font-family: 'Arial', sans-serif; text-anchor: middle; fill: #7f7f7f" x="494.043438" y="254.52" transform="rotate(-90 494.043438 254.52)">Number of cases</text>
    </g>
   </g>
   <g id="patch_3">
    <path d="M 62.168936 448.56 
L 63.831064 448.56 
L 63.831064 396.816 
L 62.168936 396.816 
z
" clip-path="url(#p40bbc06a52)" style="fill: #7f7f7f; opacity: 0.5"/>
   </g>
   <g id="patch_4">
    <path d="M 64.246596 448.56 
L 65.908723 448.56 
L 65.908723 396.816 
L 64.246596 396.816 
z
" clip-path="url(#p40bbc06a52)" style="fill: #7f7f7f; opacity: 0.5"/>
   </g>
   <g id="patch_5">
    <path d="M 66.324255 448.56 
L 67.986383 448.56 
L 67.986383 396.816 
L 66.324255 396.816 
z
" clip-path="url(#p40bbc06a52)" style="fill: #7f7f7f; opacity: 0.5"/>
   </g>
   <g id="patch_6">
    <path d="M 68.401915 448.56 
L 70.064043 448.56 
L 70.064043 448.56 
L 68.401915 448.56 
z
" clip-path="url(#p40bbc06a52)" style="fill: #7f7f7f; opacity: 0.5"/>
   </g>
   <g id="patch_7">
    <path d="M 70.479574 448.56 
L 72.141702 448.56 
L 72.141702 448.56 
L 70.479574 448.56 
z
" clip-path="url(#p40bbc06a52)" style="fill: #7f7f7f; opacity: 0.5"/>
   </g>
   <g id="patch_8">
    <path d="M 72.557234 448.56 
L 74.219362 448.56 
L 74.219362 448.56 
L 72.557234 448.56 
z
" clip-path="url(#p40bbc06a52)" style="fill: #7f7f7f; opacity: 0.5"/>
   </g>
   <g id="patch_9">
    <path d="M 74.634894 448.56 
L 76.297021 448.56 
L 76.297021 448.56 
L 74.634894 448.56 
z
" clip-path="url(#p40bbc06a52)" style="fill: #7f7f7f; opacity: 0.5"/>
   </g>
   <g id="patch_10">
    <path d="M 76.712553 448.56 
L 78.374681 448.56 
L 78.374681 448.56 
L 76.712553 448.56 
z
" clip-path="url(#p40bbc06a52)" style="fill: #7f7f7f; opacity: 0.5"/>
   </g>
   <g id="patch_11">
    <path d="M 78.790213 448.56 
L 80.45234 448.56 
L 80.45234 448.56 
L 78.790213 448.56 
z
" clip-path="url(#p40bbc06a52)" style="fill: #7f7f7f; opacity: 0.5"/>
   </g>
   <g id="patch_12">
    <path d="M 80.867872 448.56 
L 82.53 448.56 
L 82.53 422.688 
L 80.867872 422.688 
z
" clip-path="url(#p40bbc06a52)" style="fill: #7f7f7f; opacity: 0.5"/>
   </g>
   <g id="patch_13">
    <path d="M 82.945532 448.56 
L 84.60766 448.56 
L 84.60766 448.56 
L 82.945532 448.56 
z
" clip-path="url(#p40bbc06a52)" style="fill: #7f7f7f; opacity: 0.5"/>
   </g>
   <g id="patch_14">
    <path d="M 85.023191 448.56 
L 86.685319 448.56 
L 86.685319 448.56 
L 85.023191 448.56 
z
" clip-path="url(#p40bbc06a52)" style="fill: #7f7f7f; opacity: 0.5"/>
   </g>
   <g id="patch_15">
    <path d="M 87.100851 448.56 
L 88.762979 448.56 
L 88.762979 448.56 
L 87.100851 448.56 
z
" clip-path="url(#p40bbc06a52)" style="fill: #7f7f7f; opacity: 0.5"/>
   </g>
   <g id="patch_16">
    <path d="M 89.178511 448.56 
L 90.840638 448.56 
L 90.840638 448.56 
L 89.178511 448.56 
z
" clip-path="url(#p40bbc06a52)" style="fill: #7f7f7f; opacity: 0.5"/>
   </g>
   <g id="patch_17">
    <path d="M 91.25617 448.56 
L 92.918298 448.56 
L 92.918298 448.56 
L 91.25617 448.56 
z
" clip-path="url(#p40bbc06a52)" style="fill: #7f7f7f; opacity: 0.5"/>
   </g>
   <g id="patch_18">
    <path d="M 93.33383 448.56 
L 94.995957 448.56 
L 94.995957 448.56 
L 93.33383 448.56 
z
" clip-path="url(#p40bbc06a52)" style="fill: #7f7f7f; opacity: 0.5"/>
   </g>
   <g id="patch_19">
    <path d="M 95.411489 448.56 
L 97.073617 448.56 
L 97.073617 448.56 
L 95.411489 448.56 
z
" clip-path="url(#p40bbc06a52)" style="fill: #7f7f7f; opacity: 0.5"/>
   </g>
   <g id="patch_20">
    <path d="M 97.489149 448.56 
L 99.151277 448.56 
L 99.151277 448.56 
L 97.489149 448.56 
z
" clip-path="url(#p40bbc06a52)" style="fill: #7f7f7f; opacity: 0.5"/>
   </g>
   <g id="patch_21">
    <path d="M 99.566809 448.56 
L 101.228936 448.56 
L 101.228936 448.56 
L 99.566809 448.56 
z
" clip-path="url(#p40bbc06a52)" style="fill: #7f7f7f; opacity: 0.5"/>
   </g>
   <g id="patch_22">
    <path d="M 101.644468 448.56 
L 103.306596 448.56 
L 103.306596 422.688 
L 101.644468 422.688 
z
" clip-path="url(#p40bbc06a52)" style="fill: #7f7f7f; opacity: 0.5"/>
   </g>
   <g id="patch_23">
    <path d="M 103.722128 448.56 
L 105.384255 448.56 
L 105.384255 448.56 
L 103.722128 448.56 
z
" clip-path="url(#p40bbc06a52)" style="fill: #7f7f7f; opacity: 0.5"/>
   </g>
   <g id="patch_24">
    <path d="M 105.799787 448.56 
L 107.461915 448.56 
L 107.461915 448.56 
L 105.799787 448.56 
z
" clip-path="url(#p40bbc06a52)" style="fill: #7f7f7f; opacity: 0.5"/>
   </g>
   <g id="patch_25">
    <path d="M 107.877447 448.56 
L 109.539574 448.56 
L 109.539574 422.688 
L 107.877447 422.688 
z
" clip-path="url(#p40bbc06a52)" style="fill: #7f7f7f; opacity: 0.5"/>
   </g>
   <g id="patch_26">
    <path d="M 109.955106 448.56 
L 111.617234 448.56 
L 111.617234 448.56 
L 109.955106 448.56 
z
" clip-path="url(#p40bbc06a52)" style="fill: #7f7f7f; opacity: 0.5"/>
   </g>
   <g id="patch_27">
    <path d="M 112.032766 448.56 
L 113.694894 448.56 
L 113.694894 422.688 
L 112.032766 422.688 
z
" clip-path="url(#p40bbc06a52)" style="fill: #7f7f7f; opacity: 0.5"/>
   </g>
   <g id="patch_28">
    <path d="M 114.110426 448.56 
L 115.772553 448.56 
L 115.772553 448.56 
L 114.110426 448.56 
z
" clip-path="url(#p40bbc06a52)" style="fill: #7f7f7f; opacity: 0.5"/>
   </g>
   <g id="patch_29">
    <path d="M 116.188085 448.56 
L 117.850213 448.56 
L 117.850213 422.688 
L 116.188085 422.688 
z
" clip-path="url(#p40bbc06a52)" style="fill: #7f7f7f; opacity: 0.5"/>
   </g>
   <g id="patch_30">
    <path d="M 118.265745 448.56 
L 119.927872 448.56 
L 119.927872 448.56 
L 118.265745 448.56 
z
" clip-path="url(#p40bbc06a52)" style="fill: #7f7f7f; opacity: 0.5"/>
   </g>
   <g id="patch_31">
    <path d="M 120.343404 448.56 
L 122.005532 448.56 
L 122.005532 422.688 
L 120.343404 422.688 
z
" clip-path="url(#p40bbc06a52)" style="fill: #7f7f7f; opacity: 0.5"/>
   </g>
   <g id="patch_32">
    <path d="M 122.421064 448.56 
L 124.083191 448.56 
L 124.083191 422.688 
L 122.421064 422.688 
z
" clip-path="url(#p40bbc06a52)" style="fill: #7f7f7f; opacity: 0.5"/>
   </g>
   <g id="patch_33">
    <path d="M 124.498723 448.56 
L 126.160851 448.56 
L 126.160851 448.56 
L 124.498723 448.56 
z
" clip-path="url(#p40bbc06a52)" style="fill: #7f7f7f; opacity: 0.5"/>
   </g>
   <g id="patch_34">
    <path d="M 126.576383 448.56 
L 128.238511 448.56 
L 128.238511 422.688 
L 126.576383 422.688 
z
" clip-path="url(#p40bbc06a52)" style="fill: #7f7f7f; opacity: 0.5"/>
   </g>
   <g id="patch_35">
    <path d="M 128.654043 448.56 
L 130.31617 448.56 
L 130.31617 422.688 
L 128.654043 422.688 
z
" clip-path="url(#p40bbc06a52)" style="fill: #7f7f7f; opacity: 0.5"/>
   </g>
   <g id="patch_36">
    <path d="M 130.731702 448.56 
L 132.39383 448.56 
L 132.39383 448.56 
L 130.731702 448.56 
z
" clip-path="url(#p40bbc06a52)" style="fill: #7f7f7f; opacity: 0.5"/>
   </g>
   <g id="patch_37">
    <path d="M 132.809362 448.56 
L 134.471489 448.56 
L 134.471489 422.688 
L 132.809362 422.688 
z
" clip-path="url(#p40bbc06a52)" style="fill: #7f7f7f; opacity: 0.5"/>
   </g>
   <g id="patch_38">
    <path d="M 134.887021 448.56 
L 136.549149 448.56 
L 136.549149 448.56 
L 134.887021 448.56 
z
" clip-path="url(#p40bbc06a52)" style="fill: #7f7f7f; opacity: 0.5"/>
   </g>
   <g id="patch_39">
    <path d="M 136.964681 448.56 
L 138.626809 448.56 
L 138.626809 448.56 
L 136.964681 448.56 
z
" clip-path="url(#p40bbc06a52)" style="fill: #7f7f7f; opacity: 0.5"/>
   </g>
   <g id="patch_40">
    <path d="M 139.04234 448.56 
L 140.704468 448.56 
L 140.704468 370.944 
L 139.04234 370.944 
z
" clip-path="url(#p40bbc06a52)" style="fill: #7f7f7f; opacity: 0.5"/>
   </g>
   <g id="patch_41">
    <path d="M 141.12 448.56 
L 142.782128 448.56 
L 142.782128 396.816 
L 141.12 396.816 
z
" clip-path="url(#p40bbc06a52)" style="fill: #7f7f7f; opacity: 0.5"/>
   </g>
   <g id="patch_42">
    <path d="M 143.19766 448.56 
L 144.859787 448.56 
L 144.859787 422.688 
L 143.19766 422.688 
z
" clip-path="url(#p40bbc06a52)" style="fill: #7f7f7f; opacity: 0.5"/>
   </g>
   <g id="patch_43">
    <path d="M 145.275319 448.56 
L 146.937447 448.56 
L 146.937447 422.688 
L 145.275319 422.688 
z
" clip-path="url(#p40bbc06a52)" style="fill: #7f7f7f; opacity: 0.5"/>
   </g>
   <g id="patch_44">
    <path d="M 147.352979 448.56 
L 149.015106 448.56 
L 149.015106 422.688 
L 147.352979 422.688 
z
" clip-path="url(#p40bbc06a52)" style="fill: #7f7f7f; opacity: 0.5"/>
   </g>
   <g id="patch_45">
    <path d="M 149.430638 448.56 
L 151.092766 448.56 
L 151.092766 422.688 
L 149.430638 422.688 
z
" clip-path="url(#p40bbc06a52)" style="fill: #7f7f7f; opacity: 0.5"/>
   </g>
   <g id="patch_46">
    <path d="M 151.508298 448.56 
L 153.170426 448.56 
L 153.170426 370.944 
L 151.508298 370.944 
z
" clip-path="url(#p40bbc06a52)" style="fill: #7f7f7f; opacity: 0.5"/>
   </g>
   <g id="patch_47">
    <path d="M 153.585957 448.56 
L 155.248085 448.56 
L 155.248085 448.56 
L 153.585957 448.56 
z
" clip-path="url(#p40bbc06a52)" style="fill: #7f7f7f; opacity: 0.5"/>
   </g>
   <g id="patch_48">
    <path d="M 155.663617 448.56 
L 157.325745 448.56 
L 157.325745 422.688 
L 155.663617 422.688 
z
" clip-path="url(#p40bbc06a52)" style="fill: #7f7f7f; opacity: 0.5"/>
   </g>
   <g id="patch_49">
    <path d="M 157.741277 448.56 
L 159.403404 448.56 
L 159.403404 422.688 
L 157.741277 422.688 
z
" clip-path="url(#p40bbc06a52)" style="fill: #7f7f7f; opacity: 0.5"/>
   </g>
   <g id="patch_50">
    <path d="M 159.818936 448.56 
L 161.481064 448.56 
L 161.481064 345.072 
L 159.818936 345.072 
z
" clip-path="url(#p40bbc06a52)" style="fill: #7f7f7f; opacity: 0.5"/>
   </g>
   <g id="patch_51">
    <path d="M 161.896596 448.56 
L 163.558723 448.56 
L 163.558723 370.944 
L 161.896596 370.944 
z
" clip-path="url(#p40bbc06a52)" style="fill: #7f7f7f; opacity: 0.5"/>
   </g>
   <g id="patch_52">
    <path d="M 163.974255 448.56 
L 165.636383 448.56 
L 165.636383 370.944 
L 163.974255 370.944 
z
" clip-path="url(#p40bbc06a52)" style="fill: #7f7f7f; opacity: 0.5"/>
   </g>
   <g id="patch_53">
    <path d="M 166.051915 448.56 
L 167.714043 448.56 
L 167.714043 396.816 
L 166.051915 396.816 
z
" clip-path="url(#p40bbc06a52)" style="fill: #7f7f7f; opacity: 0.5"/>
   </g>
   <g id="patch_54">
    <path d="M 168.129574 448.56 
L 169.791702 448.56 
L 169.791702 345.072 
L 168.129574 345.072 
z
" clip-path="url(#p40bbc06a52)" style="fill: #7f7f7f; opacity: 0.5"/>
   </g>
   <g id="patch_55">
    <path d="M 170.207234 448.56 
L 171.869362 448.56 
L 171.869362 345.072 
L 170.207234 345.072 
z
" clip-path="url(#p40bbc06a52)" style="fill: #7f7f7f; opacity: 0.5"/>
   </g>
   <g id="patch_56">
    <path d="M 172.284894 448.56 
L 173.947021 448.56 
L 173.947021 241.584 
L 172.284894 241.584 
z
" clip-path="url(#p40bbc06a52)" style="fill: #7f7f7f; opacity: 0.5"/>
   </g>
   <g id="patch_57">
    <path d="M 174.362553 448.56 
L 176.024681 448.56 
L 176.024681 319.2 
L 174.362553 319.2 
z
" clip-path="url(#p40bbc06a52)" style="fill: #7f7f7f; opacity: 0.5"/>
   </g>
   <g id="patch_58">
    <path d="M 176.440213 448.56 
L 178.10234 448.56 
L 178.10234 241.584 
L 176.440213 241.584 
z
" clip-path="url(#p40bbc06a52)" style="fill: #7f7f7f; opacity: 0.5"/>
   </g>
   <g id="patch_59">
    <path d="M 178.517872 448.56 
L 180.18 448.56 
L 180.18 319.2 
L 178.517872 319.2 
z
" clip-path="url(#p40bbc06a52)" style="fill: #7f7f7f; opacity: 0.5"/>
   </g>
   <g id="patch_60">
    <path d="M 180.595532 448.56 
L 182.25766 448.56 
L 182.25766 345.072 
L 180.595532 345.072 
z
" clip-path="url(#p40bbc06a52)" style="fill: #7f7f7f; opacity: 0.5"/>
   </g>
   <g id="patch_61">
    <path d="M 182.673191 448.56 
L 184.335319 448.56 
L 184.335319 319.2 
L 182.673191 319.2 
z
" clip-path="url(#p40bbc06a52)" style="fill: #7f7f7f; opacity: 0.5"/>
   </g>
   <g id="patch_62">
    <path d="M 184.750851 448.56 
L 186.412979 448.56 
L 186.412979 267.456 
L 184.750851 267.456 
z
" clip-path="url(#p40bbc06a52)" style="fill: #7f7f7f; opacity: 0.5"/>
   </g>
   <g id="patch_63">
    <path d="M 186.828511 448.56 
L 188.490638 448.56 
L 188.490638 396.816 
L 186.828511 396.816 
z
" clip-path="url(#p40bbc06a52)" style="fill: #7f7f7f; opacity: 0.5"/>
   </g>
   <g id="patch_64">
    <path d="M 188.90617 448.56 
L 190.568298 448.56 
L 190.568298 422.688 
L 188.90617 422.688 
z
" clip-path="url(#p40bbc06a52)" style="fill: #7f7f7f; opacity: 0.5"/>
   </g>
   <g id="patch_65">
    <path d="M 190.98383 448.56 
L 192.645957 448.56 
L 192.645957 241.584 
L 190.98383 241.584 
z
" clip-path="url(#p40bbc06a52)" style="fill: #7f7f7f; opacity: 0.5"/>
   </g>
   <g id="patch_66">
    <path d="M 193.061489 448.56 
L 194.723617 448.56 
L 194.723617 396.816 
L 193.061489 396.816 
z
" clip-path="url(#p40bbc06a52)" style="fill: #7f7f7f; opacity: 0.5"/>
   </g>
   <g id="patch_67">
    <path d="M 195.139149 448.56 
L 196.801277 448.56 
L 196.801277 345.072 
L 195.139149 345.072 
z
" clip-path="url(#p40bbc06a52)" style="fill: #7f7f7f; opacity: 0.5"/>
   </g>
   <g id="patch_68">
    <path d="M 197.216809 448.56 
L 198.878936 448.56 
L 198.878936 396.816 
L 197.216809 396.816 
z
" clip-path="url(#p40bbc06a52)" style="fill: #7f7f7f; opacity: 0.5"/>
   </g>
   <g id="patch_69">
    <path d="M 199.294468 448.56 
L 200.956596 448.56 
L 200.956596 215.712 
L 199.294468 215.712 
z
" clip-path="url(#p40bbc06a52)" style="fill: #7f7f7f; opacity: 0.5"/>
   </g>
   <g id="patch_70">
    <path d="M 201.372128 448.56 
L 203.034255 448.56 
L 203.034255 241.584 
L 201.372128 241.584 
z
" clip-path="url(#p40bbc06a52)" style="fill: #7f7f7f; opacity: 0.5"/>
   </g>
   <g id="patch_71">
    <path d="M 203.449787 448.56 
L 205.111915 448.56 
L 205.111915 241.584 
L 203.449787 241.584 
z
" clip-path="url(#p40bbc06a52)" style="fill: #7f7f7f; opacity: 0.5"/>
   </g>
   <g id="patch_72">
    <path d="M 205.527447 448.56 
L 207.189574 448.56 
L 207.189574 267.456 
L 205.527447 267.456 
z
" clip-path="url(#p40bbc06a52)" style="fill: #7f7f7f; opacity: 0.5"/>
   </g>
   <g id="patch_73">
    <path d="M 207.605106 448.56 
L 209.267234 448.56 
L 209.267234 215.712 
L 207.605106 215.712 
z
" clip-path="url(#p40bbc06a52)" style="fill: #7f7f7f; opacity: 0.5"/>
   </g>
   <g id="patch_74">
    <path d="M 209.682766 448.56 
L 211.344894 448.56 
L 211.344894 138.096 
L 209.682766 138.096 
z
" clip-path="url(#p40bbc06a52)" style="fill: #7f7f7f; opacity: 0.5"/>
   </g>
   <g id="patch_75">
    <path d="M 211.760426 448.56 
L 213.422553 448.56 
L 213.422553 138.096 
L 211.760426 138.096 
z
" clip-path="url(#p40bbc06a52)" style="fill: #7f7f7f; opacity: 0.5"/>
   </g>
   <g id="patch_76">
    <path d="M 213.838085 448.56 
L 215.500213 448.56 
L 215.500213 267.456 
L 213.838085 267.456 
z
" clip-path="url(#p40bbc06a52)" style="fill: #7f7f7f; opacity: 0.5"/>
   </g>
   <g id="patch_77">
    <path d="M 215.915745 448.56 
L 217.577872 448.56 
L 217.577872 138.096 
L 215.915745 138.096 
z
" clip-path="url(#p40bbc06a52)" style="fill: #7f7f7f; opacity: 0.5"/>
   </g>
   <g id="patch_78">
    <path d="M 217.993404 448.56 
L 219.655532 448.56 
L 219.655532 396.816 
L 217.993404 396.816 
z
" clip-path="url(#p40bbc06a52)" style="fill: #7f7f7f; opacity: 0.5"/>
   </g>
   <g id="patch_79">
    <path d="M 220.071064 448.56 
L 221.733191 448.56 
L 221.733191 60.48 
L 220.071064 60.48 
z
" clip-path="url(#p40bbc06a52)" style="fill: #7f7f7f; opacity: 0.5"/>
   </g>
   <g id="patch_80">
    <path d="M 222.148723 448.56 
L 223.810851 448.56 
L 223.810851 163.968 
L 222.148723 163.968 
z
" clip-path="url(#p40bbc06a52)" style="fill: #7f7f7f; opacity: 0.5"/>
   </g>
   <g id="patch_81">
    <path d="M 224.226383 448.56 
L 225.888511 448.56 
L 225.888511 319.2 
L 224.226383 319.2 
z
" clip-path="url(#p40bbc06a52)" style="fill: #7f7f7f; opacity: 0.5"/>
   </g>
   <g id="patch_82">
    <path d="M 226.304043 448.56 
L 227.96617 448.56 
L 227.96617 345.072 
L 226.304043 345.072 
z
" clip-path="url(#p40bbc06a52)" style="fill: #7f7f7f; opacity: 0.5"/>
   </g>
   <g id="patch_83">
    <path d="M 228.381702 448.56 
L 230.04383 448.56 
L 230.04383 396.816 
L 228.381702 396.816 
z
" clip-path="url(#p40bbc06a52)" style="fill: #7f7f7f; opacity: 0.5"/>
   </g>
   <g id="patch_84">
    <path d="M 230.459362 448.56 
L 232.121489 448.56 
L 232.121489 345.072 
L 230.459362 345.072 
z
" clip-path="url(#p40bbc06a52)" style="fill: #7f7f7f; opacity: 0.5"/>
   </g>
   <g id="patch_85">
    <path d="M 232.537021 448.56 
L 234.199149 448.56 
L 234.199149 267.456 
L 232.537021 267.456 
z
" clip-path="url(#p40bbc06a52)" style="fill: #7f7f7f; opacity: 0.5"/>
   </g>
   <g id="patch_86">
    <path d="M 234.614681 448.56 
L 236.276809 448.56 
L 236.276809 112.224 
L 234.614681 112.224 
z
" clip-path="url(#p40bbc06a52)" style="fill: #7f7f7f; opacity: 0.5"/>
   </g>
   <g id="patch_87">
    <path d="M 236.69234 448.56 
L 238.354468 448.56 
L 238.354468 293.328 
L 236.69234 293.328 
z
" clip-path="url(#p40bbc06a52)" style="fill: #7f7f7f; opacity: 0.5"/>
   </g>
   <g id="patch_88">
    <path d="M 238.77 448.56 
L 240.432128 448.56 
L 240.432128 241.584 
L 238.77 241.584 
z
" clip-path="url(#p40bbc06a52)" style="fill: #7f7f7f; opacity: 0.5"/>
   </g>
   <g id="patch_89">
    <path d="M 240.84766 448.56 
L 242.509787 448.56 
L 242.509787 345.072 
L 240.84766 345.072 
z
" clip-path="url(#p40bbc06a52)" style="fill: #7f7f7f; opacity: 0.5"/>
   </g>
   <g id="patch_90">
    <path d="M 242.925319 448.56 
L 244.587447 448.56 
L 244.587447 319.2 
L 242.925319 319.2 
z
" clip-path="url(#p40bbc06a52)" style="fill: #7f7f7f; opacity: 0.5"/>
   </g>
   <g id="patch_91">
    <path d="M 245.002979 448.56 
L 246.665106 448.56 
L 246.665106 370.944 
L 245.002979 370.944 
z
" clip-path="url(#p40bbc06a52)" style="fill: #7f7f7f; opacity: 0.5"/>
   </g>
   <g id="patch_92">
    <path d="M 247.080638 448.56 
L 248.742766 448.56 
L 248.742766 396.816 
L 247.080638 396.816 
z
" clip-path="url(#p40bbc06a52)" style="fill: #7f7f7f; opacity: 0.5"/>
   </g>
   <g id="patch_93">
    <path d="M 249.158298 448.56 
L 250.820426 448.56 
L 250.820426 396.816 
L 249.158298 396.816 
z
" clip-path="url(#p40bbc06a52)" style="fill: #7f7f7f; opacity: 0.5"/>
   </g>
   <g id="patch_94">
    <path d="M 251.235957 448.56 
L 252.898085 448.56 
L 252.898085 448.56 
L 251.235957 448.56 
z
" clip-path="url(#p40bbc06a52)" style="fill: #7f7f7f; opacity: 0.5"/>
   </g>
   <g id="patch_95">
    <path d="M 253.313617 448.56 
L 254.975745 448.56 
L 254.975745 422.688 
L 253.313617 422.688 
z
" clip-path="url(#p40bbc06a52)" style="fill: #7f7f7f; opacity: 0.5"/>
   </g>
   <g id="patch_96">
    <path d="M 255.391277 448.56 
L 257.053404 448.56 
L 257.053404 396.816 
L 255.391277 396.816 
z
" clip-path="url(#p40bbc06a52)" style="fill: #7f7f7f; opacity: 0.5"/>
   </g>
   <g id="patch_97">
    <path d="M 257.468936 448.56 
L 259.131064 448.56 
L 259.131064 370.944 
L 257.468936 370.944 
z
" clip-path="url(#p40bbc06a52)" style="fill: #7f7f7f; opacity: 0.5"/>
   </g>
   <g id="patch_98">
    <path d="M 259.546596 448.56 
L 261.208723 448.56 
L 261.208723 422.688 
L 259.546596 422.688 
z
" clip-path="url(#p40bbc06a52)" style="fill: #7f7f7f; opacity: 0.5"/>
   </g>
   <g id="patch_99">
    <path d="M 261.624255 448.56 
L 263.286383 448.56 
L 263.286383 370.944 
L 261.624255 370.944 
z
" clip-path="url(#p40bbc06a52)" style="fill: #7f7f7f; opacity: 0.5"/>
   </g>
   <g id="patch_100">
    <path d="M 263.701915 448.56 
L 265.364043 448.56 
L 265.364043 396.816 
L 263.701915 396.816 
z
" clip-path="url(#p40bbc06a52)" style="fill: #7f7f7f; opacity: 0.5"/>
   </g>
   <g id="patch_101">
    <path d="M 265.779574 448.56 
L 267.441702 448.56 
L 267.441702 448.56 
L 265.779574 448.56 
z
" clip-path="url(#p40bbc06a52)" style="fill: #7f7f7f; opacity: 0.5"/>
   </g>
   <g id="patch_102">
    <path d="M 267.857234 448.56 
L 269.519362 448.56 
L 269.519362 448.56 
L 267.857234 448.56 
z
" clip-path="url(#p40bbc06a52)" style="fill: #7f7f7f; opacity: 0.5"/>
   </g>
   <g id="patch_103">
    <path d="M 269.934894 448.56 
L 271.597021 448.56 
L 271.597021 422.688 
L 269.934894 422.688 
z
" clip-path="url(#p40bbc06a52)" style="fill: #7f7f7f; opacity: 0.5"/>
   </g>
   <g id="patch_104">
    <path d="M 272.012553 448.56 
L 273.674681 448.56 
L 273.674681 396.816 
L 272.012553 396.816 
z
" clip-path="url(#p40bbc06a52)" style="fill: #7f7f7f; opacity: 0.5"/>
   </g>
   <g id="patch_105">
    <path d="M 274.090213 448.56 
L 275.75234 448.56 
L 275.75234 422.688 
L 274.090213 422.688 
z
" clip-path="url(#p40bbc06a52)" style="fill: #7f7f7f; opacity: 0.5"/>
   </g>
   <g id="patch_106">
    <path d="M 276.167872 448.56 
L 277.83 448.56 
L 277.83 448.56 
L 276.167872 448.56 
z
" clip-path="url(#p40bbc06a52)" style="fill: #7f7f7f; opacity: 0.5"/>
   </g>
   <g id="patch_107">
    <path d="M 278.245532 448.56 
L 279.90766 448.56 
L 279.90766 422.688 
L 278.245532 422.688 
z
" clip-path="url(#p40bbc06a52)" style="fill: #7f7f7f; opacity: 0.5"/>
   </g>
   <g id="patch_108">
    <path d="M 280.323191 448.56 
L 281.985319 448.56 
L 281.985319 448.56 
L 280.323191 448.56 
z
" clip-path="url(#p40bbc06a52)" style="fill: #7f7f7f; opacity: 0.5"/>
   </g>
   <g id="patch_109">
    <path d="M 282.400851 448.56 
L 284.062979 448.56 
L 284.062979 422.688 
L 282.400851 422.688 
z
" clip-path="url(#p40bbc06a52)" style="fill: #7f7f7f; opacity: 0.5"/>
   </g>
   <g id="patch_110">
    <path d="M 284.478511 448.56 
L 286.140638 448.56 
L 286.140638 448.56 
L 284.478511 448.56 
z
" clip-path="url(#p40bbc06a52)" style="fill: #7f7f7f; opacity: 0.5"/>
   </g>
   <g id="patch_111">
    <path d="M 286.55617 448.56 
L 288.218298 448.56 
L 288.218298 448.56 
L 286.55617 448.56 
z
" clip-path="url(#p40bbc06a52)" style="fill: #7f7f7f; opacity: 0.5"/>
   </g>
   <g id="patch_112">
    <path d="M 288.63383 448.56 
L 290.295957 448.56 
L 290.295957 448.56 
L 288.63383 448.56 
z
" clip-path="url(#p40bbc06a52)" style="fill: #7f7f7f; opacity: 0.5"/>
   </g>
   <g id="patch_113">
    <path d="M 290.711489 448.56 
L 292.373617 448.56 
L 292.373617 422.688 
L 290.711489 422.688 
z
" clip-path="url(#p40bbc06a52)" style="fill: #7f7f7f; opacity: 0.5"/>
   </g>
   <g id="patch_114">
    <path d="M 292.789149 448.56 
L 294.451277 448.56 
L 294.451277 422.688 
L 292.789149 422.688 
z
" clip-path="url(#p40bbc06a52)" style="fill: #7f7f7f; opacity: 0.5"/>
   </g>
   <g id="patch_115">
    <path d="M 294.866809 448.56 
L 296.528936 448.56 
L 296.528936 448.56 
L 294.866809 448.56 
z
" clip-path="url(#p40bbc06a52)" style="fill: #7f7f7f; opacity: 0.5"/>
   </g>
   <g id="patch_116">
    <path d="M 296.944468 448.56 
L 298.606596 448.56 
L 298.606596 448.56 
L 296.944468 448.56 
z
" clip-path="url(#p40bbc06a52)" style="fill: #7f7f7f; opacity: 0.5"/>
   </g>
   <g id="patch_117">
    <path d="M 299.022128 448.56 
L 300.684255 448.56 
L 300.684255 448.56 
L 299.022128 448.56 
z
" clip-path="url(#p40bbc06a52)" style="fill: #7f7f7f; opacity: 0.5"/>
   </g>
   <g id="patch_118">
    <path d="M 301.099787 448.56 
L 302.761915 448.56 
L 302.761915 422.688 
L 301.099787 422.688 
z
" clip-path="url(#p40bbc06a52)" style="fill: #7f7f7f; opacity: 0.5"/>
   </g>
   <g id="patch_119">
    <path d="M 303.177447 448.56 
L 304.839574 448.56 
L 304.839574 448.56 
L 303.177447 448.56 
z
" clip-path="url(#p40bbc06a52)" style="fill: #7f7f7f; opacity: 0.5"/>
   </g>
   <g id="patch_120">
    <path d="M 305.255106 448.56 
L 306.917234 448.56 
L 306.917234 448.56 
L 305.255106 448.56 
z
" clip-path="url(#p40bbc06a52)" style="fill: #7f7f7f; opacity: 0.5"/>
   </g>
   <g id="patch_121">
    <path d="M 307.332766 448.56 
L 308.994894 448.56 
L 308.994894 448.56 
L 307.332766 448.56 
z
" clip-path="url(#p40bbc06a52)" style="fill: #7f7f7f; opacity: 0.5"/>
   </g>
   <g id="patch_122">
    <path d="M 309.410426 448.56 
L 311.072553 448.56 
L 311.072553 448.56 
L 309.410426 448.56 
z
" clip-path="url(#p40bbc06a52)" style="fill: #7f7f7f; opacity: 0.5"/>
   </g>
   <g id="patch_123">
    <path d="M 311.488085 448.56 
L 313.150213 448.56 
L 313.150213 448.56 
L 311.488085 448.56 
z
" clip-path="url(#p40bbc06a52)" style="fill: #7f7f7f; opacity: 0.5"/>
   </g>
   <g id="patch_124">
    <path d="M 313.565745 448.56 
L 315.227872 448.56 
L 315.227872 448.56 
L 313.565745 448.56 
z
" clip-path="url(#p40bbc06a52)" style="fill: #7f7f7f; opacity: 0.5"/>
   </g>
   <g id="patch_125">
    <path d="M 315.643404 448.56 
L 317.305532 448.56 
L 317.305532 448.56 
L 315.643404 448.56 
z
" clip-path="url(#p40bbc06a52)" style="fill: #7f7f7f; opacity: 0.5"/>
   </g>
   <g id="patch_126">
    <path d="M 317.721064 448.56 
L 319.383191 448.56 
L 319.383191 448.56 
L 317.721064 448.56 
z
" clip-path="url(#p40bbc06a52)" style="fill: #7f7f7f; opacity: 0.5"/>
   </g>
   <g id="patch_127">
    <path d="M 319.798723 448.56 
L 321.460851 448.56 
L 321.460851 448.56 
L 319.798723 448.56 
z
" clip-path="url(#p40bbc06a52)" style="fill: #7f7f7f; opacity: 0.5"/>
   </g>
   <g id="patch_128">
    <path d="M 321.876383 448.56 
L 323.538511 448.56 
L 323.538511 422.688 
L 321.876383 422.688 
z
" clip-path="url(#p40bbc06a52)" style="fill: #7f7f7f; opacity: 0.5"/>
   </g>
   <g id="patch_129">
    <path d="M 323.954043 448.56 
L 325.61617 448.56 
L 325.61617 448.56 
L 323.954043 448.56 
z
" clip-path="url(#p40bbc06a52)" style="fill: #7f7f7f; opacity: 0.5"/>
   </g>
   <g id="patch_130">
    <path d="M 326.031702 448.56 
L 327.69383 448.56 
L 327.69383 448.56 
L 326.031702 448.56 
z
" clip-path="url(#p40bbc06a52)" style="fill: #7f7f7f; opacity: 0.5"/>
   </g>
   <g id="patch_131">
    <path d="M 328.109362 448.56 
L 329.771489 448.56 
L 329.771489 448.56 
L 328.109362 448.56 
z
" clip-path="url(#p40bbc06a52)" style="fill: #7f7f7f; opacity: 0.5"/>
   </g>
   <g id="patch_132">
    <path d="M 330.187021 448.56 
L 331.849149 448.56 
L 331.849149 448.56 
L 330.187021 448.56 
z
" clip-path="url(#p40bbc06a52)" style="fill: #7f7f7f; opacity: 0.5"/>
   </g>
   <g id="patch_133">
    <path d="M 332.264681 448.56 
L 333.926809 448.56 
L 333.926809 448.56 
L 332.264681 448.56 
z
" clip-path="url(#p40bbc06a52)" style="fill: #7f7f7f; opacity: 0.5"/>
   </g>
   <g id="patch_134">
    <path d="M 334.34234 448.56 
L 336.004468 448.56 
L 336.004468 448.56 
L 334.34234 448.56 
z
" clip-path="url(#p40bbc06a52)" style="fill: #7f7f7f; opacity: 0.5"/>
   </g>
   <g id="patch_135">
    <path d="M 336.42 448.56 
L 338.082128 448.56 
L 338.082128 422.688 
L 336.42 422.688 
z
" clip-path="url(#p40bbc06a52)" style="fill: #7f7f7f; opacity: 0.5"/>
   </g>
   <g id="patch_136">
    <path d="M 338.49766 448.56 
L 340.159787 448.56 
L 340.159787 448.56 
L 338.49766 448.56 
z
" clip-path="url(#p40bbc06a52)" style="fill: #7f7f7f; opacity: 0.5"/>
   </g>
   <g id="patch_137">
    <path d="M 340.575319 448.56 
L 342.237447 448.56 
L 342.237447 448.56 
L 340.575319 448.56 
z
" clip-path="url(#p40bbc06a52)" style="fill: #7f7f7f; opacity: 0.5"/>
   </g>
   <g id="patch_138">
    <path d="M 342.652979 448.56 
L 344.315106 448.56 
L 344.315106 448.56 
L 342.652979 448.56 
z
" clip-path="url(#p40bbc06a52)" style="fill: #7f7f7f; opacity: 0.5"/>
   </g>
   <g id="patch_139">
    <path d="M 344.730638 448.56 
L 346.392766 448.56 
L 346.392766 448.56 
L 344.730638 448.56 
z
" clip-path="url(#p40bbc06a52)" style="fill: #7f7f7f; opacity: 0.5"/>
   </g>
   <g id="patch_140">
    <path d="M 346.808298 448.56 
L 348.470426 448.56 
L 348.470426 448.56 
L 346.808298 448.56 
z
" clip-path="url(#p40bbc06a52)" style="fill: #7f7f7f; opacity: 0.5"/>
   </g>
   <g id="patch_141">
    <path d="M 348.885957 448.56 
L 350.548085 448.56 
L 350.548085 448.56 
L 348.885957 448.56 
z
" clip-path="url(#p40bbc06a52)" style="fill: #7f7f7f; opacity: 0.5"/>
   </g>
   <g id="patch_142">
    <path d="M 350.963617 448.56 
L 352.625745 448.56 
L 352.625745 448.56 
L 350.963617 448.56 
z
" clip-path="url(#p40bbc06a52)" style="fill: #7f7f7f; opacity: 0.5"/>
   </g>
   <g id="patch_143">
    <path d="M 353.041277 448.56 
L 354.703404 448.56 
L 354.703404 448.56 
L 353.041277 448.56 
z
" clip-path="url(#p40bbc06a52)" style="fill: #7f7f7f; opacity: 0.5"/>
   </g>
   <g id="patch_144">
    <path d="M 355.118936 448.56 
L 356.781064 448.56 
L 356.781064 448.56 
L 355.118936 448.56 
z
" clip-path="url(#p40bbc06a52)" style="fill: #7f7f7f; opacity: 0.5"/>
   </g>
   <g id="patch_145">
    <path d="M 357.196596 448.56 
L 358.858723 448.56 
L 358.858723 448.56 
L 357.196596 448.56 
z
" clip-path="url(#p40bbc06a52)" style="fill: #7f7f7f; opacity: 0.5"/>
   </g>
   <g id="patch_146">
    <path d="M 359.274255 448.56 
L 360.936383 448.56 
L 360.936383 448.56 
L 359.274255 448.56 
z
" clip-path="url(#p40bbc06a52)" style="fill: #7f7f7f; opacity: 0.5"/>
   </g>
   <g id="patch_147">
    <path d="M 361.351915 448.56 
L 363.014043 448.56 
L 363.014043 448.56 
L 361.351915 448.56 
z
" clip-path="url(#p40bbc06a52)" style="fill: #7f7f7f; opacity: 0.5"/>
   </g>
   <g id="patch_148">
    <path d="M 363.429574 448.56 
L 365.091702 448.56 
L 365.091702 448.56 
L 363.429574 448.56 
z
" clip-path="url(#p40bbc06a52)" style="fill: #7f7f7f; opacity: 0.5"/>
   </g>
   <g id="patch_149">
    <path d="M 365.507234 448.56 
L 367.169362 448.56 
L 367.169362 448.56 
L 365.507234 448.56 
z
" clip-path="url(#p40bbc06a52)" style="fill: #7f7f7f; opacity: 0.5"/>
   </g>
   <g id="patch_150">
    <path d="M 367.584894 448.56 
L 369.247021 448.56 
L 369.247021 448.56 
L 367.584894 448.56 
z
" clip-path="url(#p40bbc06a52)" style="fill: #7f7f7f; opacity: 0.5"/>
   </g>
   <g id="patch_151">
    <path d="M 369.662553 448.56 
L 371.324681 448.56 
L 371.324681 448.56 
L 369.662553 448.56 
z
" clip-path="url(#p40bbc06a52)" style="fill: #7f7f7f; opacity: 0.5"/>
   </g>
   <g id="patch_152">
    <path d="M 371.740213 448.56 
L 373.40234 448.56 
L 373.40234 448.56 
L 371.740213 448.56 
z
" clip-path="url(#p40bbc06a52)" style="fill: #7f7f7f; opacity: 0.5"/>
   </g>
   <g id="patch_153">
    <path d="M 373.817872 448.56 
L 375.48 448.56 
L 375.48 448.56 
L 373.817872 448.56 
z
" clip-path="url(#p40bbc06a52)" style="fill: #7f7f7f; opacity: 0.5"/>
   </g>
   <g id="patch_154">
    <path d="M 375.895532 448.56 
L 377.55766 448.56 
L 377.55766 448.56 
L 375.895532 448.56 
z
" clip-path="url(#p40bbc06a52)" style="fill: #7f7f7f; opacity: 0.5"/>
   </g>
   <g id="patch_155">
    <path d="M 377.973191 448.56 
L 379.635319 448.56 
L 379.635319 448.56 
L 377.973191 448.56 
z
" clip-path="url(#p40bbc06a52)" style="fill: #7f7f7f; opacity: 0.5"/>
   </g>
   <g id="patch_156">
    <path d="M 380.050851 448.56 
L 381.712979 448.56 
L 381.712979 448.56 
L 380.050851 448.56 
z
" clip-path="url(#p40bbc06a52)" style="fill: #7f7f7f; opacity: 0.5"/>
   </g>
   <g id="patch_157">
    <path d="M 382.128511 448.56 
L 383.790638 448.56 
L 383.790638 448.56 
L 382.128511 448.56 
z
" clip-path="url(#p40bbc06a52)" style="fill: #7f7f7f; opacity: 0.5"/>
   </g>
   <g id="patch_158">
    <path d="M 384.20617 448.56 
L 385.868298 448.56 
L 385.868298 448.56 
L 384.20617 448.56 
z
" clip-path="url(#p40bbc06a52)" style="fill: #7f7f7f; opacity: 0.5"/>
   </g>
   <g id="patch_159">
    <path d="M 386.28383 448.56 
L 387.945957 448.56 
L 387.945957 448.56 
L 386.28383 448.56 
z
" clip-path="url(#p40bbc06a52)" style="fill: #7f7f7f; opacity: 0.5"/>
   </g>
   <g id="patch_160">
    <path d="M 388.361489 448.56 
L 390.023617 448.56 
L 390.023617 448.56 
L 388.361489 448.56 
z
" clip-path="url(#p40bbc06a52)" style="fill: #7f7f7f; opacity: 0.5"/>
   </g>
   <g id="patch_161">
    <path d="M 390.439149 448.56 
L 392.101277 448.56 
L 392.101277 448.56 
L 390.439149 448.56 
z
" clip-path="url(#p40bbc06a52)" style="fill: #7f7f7f; opacity: 0.5"/>
   </g>
   <g id="patch_162">
    <path d="M 392.516809 448.56 
L 394.178936 448.56 
L 394.178936 448.56 
L 392.516809 448.56 
z
" clip-path="url(#p40bbc06a52)" style="fill: #7f7f7f; opacity: 0.5"/>
   </g>
   <g id="patch_163">
    <path d="M 394.594468 448.56 
L 396.256596 448.56 
L 396.256596 448.56 
L 394.594468 448.56 
z
" clip-path="url(#p40bbc06a52)" style="fill: #7f7f7f; opacity: 0.5"/>
   </g>
   <g id="patch_164">
    <path d="M 396.672128 448.56 
L 398.334255 448.56 
L 398.334255 448.56 
L 396.672128 448.56 
z
" clip-path="url(#p40bbc06a52)" style="fill: #7f7f7f; opacity: 0.5"/>
   </g>
   <g id="patch_165">
    <path d="M 398.749787 448.56 
L 400.411915 448.56 
L 400.411915 448.56 
L 398.749787 448.56 
z
" clip-path="url(#p40bbc06a52)" style="fill: #7f7f7f; opacity: 0.5"/>
   </g>
   <g id="patch_166">
    <path d="M 400.827447 448.56 
L 402.489574 448.56 
L 402.489574 448.56 
L 400.827447 448.56 
z
" clip-path="url(#p40bbc06a52)" style="fill: #7f7f7f; opacity: 0.5"/>
   </g>
   <g id="patch_167">
    <path d="M 402.905106 448.56 
L 404.567234 448.56 
L 404.567234 448.56 
L 402.905106 448.56 
z
" clip-path="url(#p40bbc06a52)" style="fill: #7f7f7f; opacity: 0.5"/>
   </g>
   <g id="patch_168">
    <path d="M 404.982766 448.56 
L 406.644894 448.56 
L 406.644894 448.56 
L 404.982766 448.56 
z
" clip-path="url(#p40bbc06a52)" style="fill: #7f7f7f; opacity: 0.5"/>
   </g>
   <g id="patch_169">
    <path d="M 407.060426 448.56 
L 408.722553 448.56 
L 408.722553 448.56 
L 407.060426 448.56 
z
" clip-path="url(#p40bbc06a52)" style="fill: #7f7f7f; opacity: 0.5"/>
   </g>
   <g id="patch_170">
    <path d="M 409.138085 448.56 
L 410.800213 448.56 
L 410.800213 448.56 
L 409.138085 448.56 
z
" clip-path="url(#p40bbc06a52)" style="fill: #7f7f7f; opacity: 0.5"/>
   </g>
   <g id="patch_171">
    <path d="M 411.215745 448.56 
L 412.877872 448.56 
L 412.877872 448.56 
L 411.215745 448.56 
z
" clip-path="url(#p40bbc06a52)" style="fill: #7f7f7f; opacity: 0.5"/>
   </g>
   <g id="patch_172">
    <path d="M 413.293404 448.56 
L 414.955532 448.56 
L 414.955532 448.56 
L 413.293404 448.56 
z
" clip-path="url(#p40bbc06a52)" style="fill: #7f7f7f; opacity: 0.5"/>
   </g>
   <g id="patch_173">
    <path d="M 415.371064 448.56 
L 417.033191 448.56 
L 417.033191 448.56 
L 415.371064 448.56 
z
" clip-path="url(#p40bbc06a52)" style="fill: #7f7f7f; opacity: 0.5"/>
   </g>
   <g id="patch_174">
    <path d="M 417.448723 448.56 
L 419.110851 448.56 
L 419.110851 448.56 
L 417.448723 448.56 
z
" clip-path="url(#p40bbc06a52)" style="fill: #7f7f7f; opacity: 0.5"/>
   </g>
   <g id="patch_175">
    <path d="M 419.526383 448.56 
L 421.188511 448.56 
L 421.188511 448.56 
L 419.526383 448.56 
z
" clip-path="url(#p40bbc06a52)" style="fill: #7f7f7f; opacity: 0.5"/>
   </g>
   <g id="patch_176">
    <path d="M 421.604043 448.56 
L 423.26617 448.56 
L 423.26617 448.56 
L 421.604043 448.56 
z
" clip-path="url(#p40bbc06a52)" style="fill: #7f7f7f; opacity: 0.5"/>
   </g>
   <g id="patch_177">
    <path d="M 423.681702 448.56 
L 425.34383 448.56 
L 425.34383 448.56 
L 423.681702 448.56 
z
" clip-path="url(#p40bbc06a52)" style="fill: #7f7f7f; opacity: 0.5"/>
   </g>
   <g id="patch_178">
    <path d="M 425.759362 448.56 
L 427.421489 448.56 
L 427.421489 448.56 
L 425.759362 448.56 
z
" clip-path="url(#p40bbc06a52)" style="fill: #7f7f7f; opacity: 0.5"/>
   </g>
   <g id="patch_179">
    <path d="M 427.837021 448.56 
L 429.499149 448.56 
L 429.499149 448.56 
L 427.837021 448.56 
z
" clip-path="url(#p40bbc06a52)" style="fill: #7f7f7f; opacity: 0.5"/>
   </g>
   <g id="patch_180">
    <path d="M 429.914681 448.56 
L 431.576809 448.56 
L 431.576809 448.56 
L 429.914681 448.56 
z
" clip-path="url(#p40bbc06a52)" style="fill: #7f7f7f; opacity: 0.5"/>
   </g>
   <g id="patch_181">
    <path d="M 431.99234 448.56 
L 433.654468 448.56 
L 433.654468 448.56 
L 431.99234 448.56 
z
" clip-path="url(#p40bbc06a52)" style="fill: #7f7f7f; opacity: 0.5"/>
   </g>
   <g id="patch_182">
    <path d="M 434.07 448.56 
L 435.732128 448.56 
L 435.732128 448.56 
L 434.07 448.56 
z
" clip-path="url(#p40bbc06a52)" style="fill: #7f7f7f; opacity: 0.5"/>
   </g>
   <g id="patch_183">
    <path d="M 436.14766 448.56 
L 437.809787 448.56 
L 437.809787 448.56 
L 436.14766 448.56 
z
" clip-path="url(#p40bbc06a52)" style="fill: #7f7f7f; opacity: 0.5"/>
   </g>
   <g id="patch_184">
    <path d="M 438.225319 448.56 
L 439.887447 448.56 
L 439.887447 448.56 
L 438.225319 448.56 
z
" clip-path="url(#p40bbc06a52)" style="fill: #7f7f7f; opacity: 0.5"/>
   </g>
   <g id="patch_185">
    <path d="M 440.302979 448.56 
L 441.965106 448.56 
L 441.965106 448.56 
L 440.302979 448.56 
z
" clip-path="url(#p40bbc06a52)" style="fill: #7f7f7f; opacity: 0.5"/>
   </g>
   <g id="patch_186">
    <path d="M 442.380638 448.56 
L 444.042766 448.56 
L 444.042766 448.56 
L 442.380638 448.56 
z
" clip-path="url(#p40bbc06a52)" style="fill: #7f7f7f; opacity: 0.5"/>
   </g>
   <g id="patch_187">
    <path d="M 444.458298 448.56 
L 446.120426 448.56 
L 446.120426 448.56 
L 444.458298 448.56 
z
" clip-path="url(#p40bbc06a52)" style="fill: #7f7f7f; opacity: 0.5"/>
   </g>
   <g id="patch_188">
    <path d="M 446.535957 448.56 
L 448.198085 448.56 
L 448.198085 448.56 
L 446.535957 448.56 
z
" clip-path="url(#p40bbc06a52)" style="fill: #7f7f7f; opacity: 0.5"/>
   </g>
   <g id="patch_189">
    <path d="M 448.613617 448.56 
L 450.275745 448.56 
L 450.275745 448.56 
L 448.613617 448.56 
z
" clip-path="url(#p40bbc06a52)" style="fill: #7f7f7f; opacity: 0.5"/>
   </g>
   <g id="patch_190">
    <path d="M 450.691277 448.56 
L 452.353404 448.56 
L 452.353404 448.56 
L 450.691277 448.56 
z
" clip-path="url(#p40bbc06a52)" style="fill: #7f7f7f; opacity: 0.5"/>
   </g>
   <g id="patch_191">
    <path d="M 452.768936 448.56 
L 454.431064 448.56 
L 454.431064 448.56 
L 452.768936 448.56 
z
" clip-path="url(#p40bbc06a52)" style="fill: #7f7f7f; opacity: 0.5"/>
   </g>
   <g id="patch_192">
    <path d="M 453.6 448.56 
L 453.6 60.48 
" style="fill: none; stroke: #7f7f7f; stroke-width: 0.8; stroke-linejoin: miter; stroke-linecap: square"/>
   </g>
  </g>
  <g id="axes_2">
   <g id="FillBetweenPolyCollection_1">
    <defs>
     <path id="m943074a743" d="M 63 -449.680073 
L 63 -96.20113 
L 65.07766 -98.714819 
L 67.155319 -98.395014 
L 69.232979 -95.78529 
L 71.310638 -93.359261 
L 73.388298 -90.787531 
L 75.465957 -88.704728 
L 77.543617 -87.184315 
L 79.621277 -85.551179 
L 81.698936 -84.29009 
L 83.776596 -82.693786 
L 85.854255 -81.709827 
L 87.931915 -80.731462 
L 90.009574 -80.178907 
L 92.087234 -80.060059 
L 94.164894 -79.959331 
L 96.242553 -80.227358 
L 98.320213 -80.656499 
L 100.397872 -81.315465 
L 102.475532 -82.450744 
L 104.553191 -83.025816 
L 106.630851 -83.896056 
L 108.708511 -85.189137 
L 110.78617 -85.801043 
L 112.86383 -87.016811 
L 114.941489 -87.814128 
L 117.019149 -88.949178 
L 119.096809 -89.921682 
L 121.174468 -91.40196 
L 123.252128 -92.222773 
L 125.329787 -92.50775 
L 127.407447 -93.821323 
L 129.485106 -94.844387 
L 131.562766 -95.599401 
L 133.640426 -97.098901 
L 135.718085 -98.527513 
L 137.795745 -101.245091 
L 139.873404 -105.118462 
L 141.951064 -106.78379 
L 144.028723 -106.620443 
L 146.106383 -107.027509 
L 148.184043 -107.362386 
L 150.261702 -108.218677 
L 152.339362 -109.467389 
L 154.417021 -108.332075 
L 156.494681 -109.848644 
L 158.57234 -113.050758 
L 160.65 -118.655125 
L 162.72766 -120.463714 
L 164.805319 -122.180284 
L 166.882979 -123.35972 
L 168.960638 -128.58236 
L 171.038298 -133.183921 
L 173.115957 -139.287652 
L 175.193617 -136.437945 
L 177.271277 -133.699503 
L 179.348936 -123.35784 
L 181.426596 -115.321753 
L 183.504255 -109.328785 
L 185.581915 -103.87596 
L 187.659574 -95.208608 
L 189.737234 -90.985012 
L 191.814894 -91.381039 
L 193.892553 -88.021713 
L 195.970213 -87.823501 
L 198.047872 -89.082156 
L 200.125532 -94.473647 
L 202.203191 -97.65245 
L 204.280851 -99.93642 
L 206.358511 -102.15865 
L 208.43617 -106.350016 
L 210.51383 -110.57995 
L 212.591489 -110.066857 
L 214.669149 -105.145776 
L 216.746809 -103.503682 
L 218.824468 -96.860118 
L 220.902128 -99.551762 
L 222.979787 -93.810245 
L 225.057447 -85.525079 
L 227.135106 -80.731681 
L 229.212766 -78.430851 
L 231.290426 -79.334575 
L 233.368085 -81.95505 
L 235.445745 -84.961867 
L 237.523404 -82.703382 
L 239.601064 -80.851783 
L 241.678723 -77.702874 
L 243.756383 -75.467957 
L 245.834043 -73.052024 
L 247.911702 -71.221506 
L 249.989362 -70.016963 
L 252.067021 -69.148464 
L 254.144681 -69.381866 
L 256.22234 -70.332231 
L 258.3 -71.292967 
L 260.37766 -71.693033 
L 262.455319 -72.675583 
L 264.532979 -72.629661 
L 266.610638 -72.400533 
L 268.688298 -72.791707 
L 270.765957 -73.836043 
L 272.843617 -74.961795 
L 274.921277 -75.375996 
L 276.998936 -75.386167 
L 279.076596 -75.902324 
L 281.154255 -76.223637 
L 283.231915 -76.825112 
L 285.309574 -77.123477 
L 287.387234 -77.611527 
L 289.464894 -78.501309 
L 291.542553 -79.424235 
L 293.620213 -79.914043 
L 295.697872 -79.846904 
L 297.775532 -79.915969 
L 299.853191 -80.150083 
L 301.930851 -80.44853 
L 304.008511 -80.219383 
L 306.08617 -79.679248 
L 308.16383 -79.613684 
L 310.241489 -79.472656 
L 312.319149 -79.417646 
L 314.396809 -79.591295 
L 316.474468 -79.71759 
L 318.552128 -79.630759 
L 320.629787 -79.964151 
L 322.707447 -80.471626 
L 324.785106 -80.096657 
L 326.862766 -79.723529 
L 328.940426 -79.350071 
L 331.018085 -78.918978 
L 333.095745 -78.896145 
L 335.173404 -78.742684 
L 337.251064 -78.255114 
L 339.328723 -77.786622 
L 341.406383 -77.171309 
L 343.484043 -76.393062 
L 345.561702 -75.667708 
L 347.639362 -74.719584 
L 349.717021 -74.20916 
L 351.794681 -73.53098 
L 353.87234 -73.164831 
L 355.95 -72.541456 
L 358.02766 -72.085702 
L 360.105319 -71.927867 
L 362.182979 -71.42076 
L 364.260638 -71.171085 
L 366.338298 -70.643398 
L 368.415957 -70.475251 
L 370.493617 -70.281483 
L 372.571277 -69.845096 
L 374.648936 -69.770398 
L 376.726596 -69.421412 
L 378.804255 -69.20213 
L 380.881915 -68.804394 
L 382.959574 -68.617138 
L 385.037234 -68.4672 
L 387.114894 -68.258828 
L 389.192553 -68.038707 
L 391.270213 -67.912256 
L 393.347872 -67.664441 
L 395.425532 -67.371431 
L 397.503191 -67.224999 
L 399.580851 -67.104763 
L 401.658511 -67.050338 
L 403.73617 -66.90787 
L 405.81383 -66.85109 
L 407.891489 -66.71793 
L 409.969149 -66.520109 
L 412.046809 -66.494179 
L 414.124468 -66.403997 
L 416.202128 -66.257503 
L 418.279787 -65.958521 
L 420.357447 -65.888485 
L 422.435106 -65.91511 
L 424.512766 -65.863298 
L 426.590426 -65.701902 
L 428.668085 -65.758251 
L 430.745745 -65.698751 
L 432.823404 -65.518807 
L 434.901064 -65.506383 
L 436.978723 -65.483164 
L 439.056383 -65.308253 
L 441.134043 -65.329058 
L 443.211702 -65.305673 
L 445.289362 -65.1577 
L 447.367021 -64.989866 
L 449.444681 -64.780071 
L 451.52234 -64.834544 
L 453.6 -64.824762 
L 453.6 -279.986036 
L 453.6 -279.986036 
L 451.52234 -282.56329 
L 449.444681 -286.35884 
L 447.367021 -287.294898 
L 445.289362 -287.362605 
L 443.211702 -287.314386 
L 441.134043 -284.396856 
L 439.056383 -286.92037 
L 436.978723 -288.244442 
L 434.901064 -288.688844 
L 432.823404 -290.596488 
L 430.745745 -289.605456 
L 428.668085 -291.08837 
L 426.590426 -292.468082 
L 424.512766 -296.618319 
L 422.435106 -293.747803 
L 420.357447 -292.638287 
L 418.279787 -292.377997 
L 416.202128 -295.496519 
L 414.124468 -295.390074 
L 412.046809 -295.578797 
L 409.969149 -296.396436 
L 407.891489 -296.851654 
L 405.81383 -298.396779 
L 403.73617 -300.918191 
L 401.658511 -300.12327 
L 399.580851 -297.110258 
L 397.503191 -298.769705 
L 395.425532 -301.195626 
L 393.347872 -298.865255 
L 391.270213 -300.435421 
L 389.192553 -303.150889 
L 387.114894 -304.890405 
L 385.037234 -306.772712 
L 382.959574 -307.621883 
L 380.881915 -310.016522 
L 378.804255 -309.926192 
L 376.726596 -313.650002 
L 374.648936 -312.770452 
L 372.571277 -315.572189 
L 370.493617 -317.844946 
L 368.415957 -320.666411 
L 366.338298 -326.98918 
L 364.260638 -324.971194 
L 362.182979 -323.429011 
L 360.105319 -325.278156 
L 358.02766 -324.746742 
L 355.95 -329.888541 
L 353.87234 -331.197458 
L 351.794681 -331.978441 
L 349.717021 -337.284075 
L 347.639362 -337.386215 
L 345.561702 -338.388496 
L 343.484043 -343.65851 
L 341.406383 -346.064479 
L 339.328723 -349.816505 
L 337.251064 -350.737987 
L 335.173404 -345.072018 
L 333.095745 -342.038521 
L 331.018085 -339.359147 
L 328.940426 -334.533351 
L 326.862766 -329.861867 
L 324.785106 -328.735201 
L 322.707447 -322.39372 
L 320.629787 -310.922286 
L 318.552128 -300.071545 
L 316.474468 -292.796081 
L 314.396809 -283.417746 
L 312.319149 -274.97979 
L 310.241489 -268.01611 
L 308.16383 -262.473685 
L 306.08617 -256.254866 
L 304.008511 -253.247198 
L 301.930851 -245.607025 
L 299.853191 -233.987518 
L 297.775532 -224.780387 
L 295.697872 -218.083624 
L 293.620213 -212.0892 
L 291.542553 -202.099813 
L 289.464894 -188.844186 
L 287.387234 -179.036611 
L 285.309574 -170.246505 
L 283.231915 -163.289347 
L 281.154255 -154.150309 
L 279.076596 -148.222845 
L 276.998936 -141.681415 
L 274.921277 -136.401563 
L 272.843617 -131.294771 
L 270.765957 -123.338055 
L 268.688298 -117.027835 
L 266.610638 -112.865415 
L 264.532979 -111.557231 
L 262.455319 -109.230866 
L 260.37766 -105.031015 
L 258.3 -102.458046 
L 256.22234 -98.464389 
L 254.144681 -95.03455 
L 252.067021 -93.246445 
L 249.989362 -94.278869 
L 247.911702 -96.115898 
L 245.834043 -99.295411 
L 243.756383 -103.830665 
L 241.678723 -107.120779 
L 239.601064 -112.938664 
L 237.523404 -115.363424 
L 235.445745 -120.29953 
L 233.368085 -113.659892 
L 231.290426 -108.058424 
L 229.212766 -106.230779 
L 227.135106 -110.867442 
L 225.057447 -120.325591 
L 222.979787 -136.215167 
L 220.902128 -148.025559 
L 218.824468 -142.967563 
L 216.746809 -155.230573 
L 214.669149 -157.618774 
L 212.591489 -166.949108 
L 210.51383 -168.448754 
L 208.43617 -160.762374 
L 206.358511 -153.039324 
L 204.280851 -149.568979 
L 202.203191 -145.845173 
L 200.125532 -140.568317 
L 198.047872 -129.82175 
L 195.970213 -128.95454 
L 193.892553 -130.249048 
L 191.814894 -138.60365 
L 189.737234 -138.814604 
L 187.659574 -149.039849 
L 185.581915 -169.149194 
L 183.504255 -182.894775 
L 181.426596 -198.980242 
L 179.348936 -218.824777 
L 177.271277 -243.340629 
L 175.193617 -251.050329 
L 173.115957 -260.599697 
L 171.038298 -250.881307 
L 168.960638 -243.277063 
L 166.882979 -234.823083 
L 164.805319 -233.799731 
L 162.72766 -234.277589 
L 160.65 -230.599946 
L 158.57234 -221.014422 
L 156.494681 -216.61311 
L 154.417021 -214.805149 
L 152.339362 -222.746045 
L 150.261702 -220.746111 
L 148.184043 -219.883181 
L 146.106383 -219.718296 
L 144.028723 -220.88994 
L 141.951064 -224.976161 
L 139.873404 -223.776957 
L 137.795745 -212.652323 
L 135.718085 -206.283007 
L 133.640426 -204.778691 
L 131.562766 -203.864542 
L 129.485106 -205.761661 
L 127.407447 -205.789658 
L 125.329787 -204.15563 
L 123.252128 -207.053008 
L 121.174468 -205.143457 
L 119.096809 -200.14714 
L 117.019149 -197.714052 
L 114.941489 -192.338243 
L 112.86383 -188.492662 
L 110.78617 -182.489541 
L 108.708511 -178.409018 
L 106.630851 -171.395514 
L 104.553191 -167.443253 
L 102.475532 -163.968418 
L 100.397872 -159.062698 
L 98.320213 -155.71336 
L 96.242553 -153.20412 
L 94.164894 -152.87075 
L 92.087234 -154.373505 
L 90.009574 -157.7441 
L 87.931915 -162.16064 
L 85.854255 -169.012623 
L 83.776596 -180.638607 
L 81.698936 -195.983344 
L 79.621277 -212.175585 
L 77.543617 -230.551871 
L 75.465957 -260.545887 
L 73.388298 -291.642638 
L 71.310638 -329.355018 
L 69.232979 -375.767798 
L 67.155319 -425.070893 
L 65.07766 -446.121575 
L 63 -449.680073 
z
" style="stroke: #0173b2; stroke-opacity: 0.2"/>
    </defs>
    <g clip-path="url(#p40bbc06a52)">
     <use xlink:href="#m943074a743" x="0" y="504" style="fill: #0173b2; fill-opacity: 0.2; stroke: #0173b2; stroke-opacity: 0.2"/>
    </g>
   </g>
   <g id="FillBetweenPolyCollection_2">
    <defs>
     <path id="m295a26cd5d" d="M 63 -377.477739 
L 63 -85.637919 
L 65.07766 -88.264436 
L 67.155319 -89.029066 
L 69.232979 -86.594219 
L 71.310638 -84.51748 
L 73.388298 -82.627517 
L 75.465957 -80.412094 
L 77.543617 -79.257756 
L 79.621277 -78.588157 
L 81.698936 -77.354429 
L 83.776596 -75.554577 
L 85.854255 -74.183545 
L 87.931915 -73.872351 
L 90.009574 -73.799409 
L 92.087234 -73.324907 
L 94.164894 -73.951542 
L 96.242553 -74.701475 
L 98.320213 -75.793269 
L 100.397872 -76.904406 
L 102.475532 -77.97472 
L 104.553191 -80.315043 
L 106.630851 -81.546071 
L 108.708511 -83.846163 
L 110.78617 -85.332341 
L 112.86383 -87.216651 
L 114.941489 -89.593008 
L 117.019149 -91.298466 
L 119.096809 -92.047308 
L 121.174468 -93.447814 
L 123.252128 -93.915737 
L 125.329787 -93.664117 
L 127.407447 -94.864781 
L 129.485106 -96.435617 
L 131.562766 -95.915994 
L 133.640426 -97.218822 
L 135.718085 -98.372564 
L 137.795745 -101.779069 
L 139.873404 -104.810805 
L 141.951064 -104.820813 
L 144.028723 -105.927714 
L 146.106383 -105.224826 
L 148.184043 -106.481308 
L 150.261702 -106.319946 
L 152.339362 -108.47373 
L 154.417021 -107.779112 
L 156.494681 -109.683548 
L 158.57234 -112.877162 
L 160.65 -118.811879 
L 162.72766 -121.764519 
L 164.805319 -125.133341 
L 166.882979 -128.725748 
L 168.960638 -135.511401 
L 171.038298 -141.429072 
L 173.115957 -147.579781 
L 175.193617 -144.260151 
L 177.271277 -138.613599 
L 179.348936 -127.210087 
L 181.426596 -116.783527 
L 183.504255 -110.333767 
L 185.581915 -104.30956 
L 187.659574 -94.455111 
L 189.737234 -90.509305 
L 191.814894 -90.360957 
L 193.892553 -86.551839 
L 195.970213 -86.723416 
L 198.047872 -87.603983 
L 200.125532 -93.782957 
L 202.203191 -97.718568 
L 204.280851 -100.369479 
L 206.358511 -103.263356 
L 208.43617 -108.202259 
L 210.51383 -112.805341 
L 212.591489 -113.215571 
L 214.669149 -108.460117 
L 216.746809 -106.335893 
L 218.824468 -99.404812 
L 220.902128 -102.334332 
L 222.979787 -95.621117 
L 225.057447 -86.568097 
L 227.135106 -81.253971 
L 229.212766 -79.014857 
L 231.290426 -79.926489 
L 233.368085 -82.523088 
L 235.445745 -85.435413 
L 237.523404 -82.499976 
L 239.601064 -80.668802 
L 241.678723 -77.346267 
L 243.756383 -75.093476 
L 245.834043 -73.105471 
L 247.911702 -70.867794 
L 249.989362 -70.017762 
L 252.067021 -69.068892 
L 254.144681 -69.483065 
L 256.22234 -70.013109 
L 258.3 -70.798041 
L 260.37766 -71.132335 
L 262.455319 -71.856931 
L 264.532979 -72.142868 
L 266.610638 -71.897951 
L 268.688298 -72.226931 
L 270.765957 -73.100709 
L 272.843617 -74.759782 
L 274.921277 -74.798282 
L 276.998936 -75.055724 
L 279.076596 -75.236898 
L 281.154255 -75.215062 
L 283.231915 -76.224814 
L 285.309574 -76.505428 
L 287.387234 -77.024882 
L 289.464894 -77.884236 
L 291.542553 -79.423735 
L 293.620213 -79.912942 
L 295.697872 -80.059137 
L 297.775532 -80.036768 
L 299.853191 -79.948064 
L 301.930851 -79.705818 
L 304.008511 -79.099224 
L 306.08617 -79.203832 
L 308.16383 -78.064887 
L 310.241489 -77.933171 
L 312.319149 -78.160256 
L 314.396809 -78.041971 
L 316.474468 -77.792756 
L 318.552128 -77.773993 
L 320.629787 -77.835177 
L 322.707447 -78.423164 
L 324.785106 -78.194072 
L 326.862766 -77.67588 
L 328.940426 -77.517124 
L 331.018085 -77.14535 
L 333.095745 -76.440515 
L 335.173404 -76.36313 
L 337.251064 -76.399684 
L 339.328723 -75.550706 
L 341.406383 -74.76972 
L 343.484043 -74.186273 
L 345.561702 -74.195998 
L 347.639362 -73.007739 
L 349.717021 -72.692384 
L 351.794681 -71.92426 
L 353.87234 -71.970966 
L 355.95 -71.928444 
L 358.02766 -71.729 
L 360.105319 -71.199168 
L 362.182979 -70.802086 
L 364.260638 -70.442081 
L 366.338298 -69.709316 
L 368.415957 -69.555265 
L 370.493617 -69.422335 
L 372.571277 -69.258523 
L 374.648936 -69.090263 
L 376.726596 -69.041531 
L 378.804255 -68.717071 
L 380.881915 -68.157717 
L 382.959574 -67.719165 
L 385.037234 -67.870679 
L 387.114894 -67.793739 
L 389.192553 -67.357891 
L 391.270213 -67.375327 
L 393.347872 -67.631013 
L 395.425532 -67.065937 
L 397.503191 -67.389297 
L 399.580851 -66.726258 
L 401.658511 -66.679024 
L 403.73617 -67.036121 
L 405.81383 -66.795239 
L 407.891489 -67.223412 
L 409.969149 -66.927733 
L 412.046809 -66.417276 
L 414.124468 -66.492847 
L 416.202128 -66.5806 
L 418.279787 -66.371171 
L 420.357447 -66.502689 
L 422.435106 -66.162679 
L 424.512766 -65.932487 
L 426.590426 -65.552243 
L 428.668085 -65.531438 
L 430.745745 -65.819139 
L 432.823404 -65.803307 
L 434.901064 -65.583612 
L 436.978723 -65.586499 
L 439.056383 -65.661468 
L 441.134043 -65.249565 
L 443.211702 -65.147259 
L 445.289362 -65.295113 
L 447.367021 -64.918393 
L 449.444681 -65.189828 
L 451.52234 -64.939104 
L 453.6 -65.061637 
L 455.67766 -64.876138 
L 457.755319 -64.551679 
L 459.832979 -64.643365 
L 461.910638 -64.941897 
L 463.988298 -64.423053 
L 463.988298 -266.025312 
L 463.988298 -266.025312 
L 461.910638 -264.562545 
L 459.832979 -275.469924 
L 457.755319 -271.621546 
L 455.67766 -274.054599 
L 453.6 -267.427805 
L 451.52234 -270.556464 
L 449.444681 -264.054467 
L 447.367021 -273.408018 
L 445.289362 -279.842202 
L 443.211702 -280.855926 
L 441.134043 -277.975099 
L 439.056383 -274.462549 
L 436.978723 -267.830161 
L 434.901064 -277.180185 
L 432.823404 -278.865773 
L 430.745745 -280.163502 
L 428.668085 -286.697638 
L 426.590426 -284.124679 
L 424.512766 -286.225565 
L 422.435106 -278.016875 
L 420.357447 -276.280555 
L 418.279787 -281.371893 
L 416.202128 -278.603659 
L 414.124468 -283.679572 
L 412.046809 -292.910715 
L 409.969149 -285.42513 
L 407.891489 -287.982865 
L 405.81383 -284.518655 
L 403.73617 -289.793597 
L 401.658511 -292.130056 
L 399.580851 -296.568662 
L 397.503191 -297.102144 
L 395.425532 -304.849695 
L 393.347872 -291.465194 
L 391.270213 -292.089643 
L 389.192553 -303.016616 
L 387.114894 -303.481568 
L 385.037234 -312.43498 
L 382.959574 -306.398114 
L 380.881915 -295.034584 
L 378.804255 -301.812544 
L 376.726596 -310.044372 
L 374.648936 -306.83517 
L 372.571277 -310.780932 
L 370.493617 -308.211105 
L 368.415957 -310.5291 
L 366.338298 -319.889671 
L 364.260638 -312.055816 
L 362.182979 -313.191214 
L 360.105319 -316.122396 
L 358.02766 -315.822161 
L 355.95 -321.771312 
L 353.87234 -315.088126 
L 351.794681 -322.661622 
L 349.717021 -324.746162 
L 347.639362 -336.747687 
L 345.561702 -341.237429 
L 343.484043 -350.492539 
L 341.406383 -349.351337 
L 339.328723 -360.235755 
L 337.251064 -352.006959 
L 335.173404 -344.685403 
L 333.095745 -342.066479 
L 331.018085 -334.416683 
L 328.940426 -334.486063 
L 326.862766 -330.65605 
L 324.785106 -337.922299 
L 322.707447 -328.873928 
L 320.629787 -309.751546 
L 318.552128 -305.276861 
L 316.474468 -293.315041 
L 314.396809 -285.251004 
L 312.319149 -272.974176 
L 310.241489 -260.989165 
L 308.16383 -258.4339 
L 306.08617 -246.295639 
L 304.008511 -242.839812 
L 301.930851 -235.143214 
L 299.853191 -225.41286 
L 297.775532 -218.40937 
L 295.697872 -209.806517 
L 293.620213 -204.177109 
L 291.542553 -195.545914 
L 289.464894 -186.362828 
L 287.387234 -174.870269 
L 285.309574 -167.303759 
L 283.231915 -162.39308 
L 281.154255 -155.033581 
L 279.076596 -149.168776 
L 276.998936 -140.122765 
L 274.921277 -133.778466 
L 272.843617 -127.994784 
L 270.765957 -122.456848 
L 268.688298 -115.788037 
L 266.610638 -111.638724 
L 264.532979 -109.117447 
L 262.455319 -108.221229 
L 260.37766 -104.440263 
L 258.3 -101.7284 
L 256.22234 -97.57835 
L 254.144681 -94.115184 
L 252.067021 -91.727335 
L 249.989362 -92.306511 
L 247.911702 -95.070796 
L 245.834043 -98.371331 
L 243.756383 -102.366176 
L 241.678723 -106.268934 
L 239.601064 -111.546666 
L 237.523404 -114.625003 
L 235.445745 -119.425549 
L 233.368085 -112.448258 
L 231.290426 -107.046142 
L 229.212766 -106.406634 
L 227.135106 -110.861587 
L 225.057447 -120.918754 
L 222.979787 -137.733503 
L 220.902128 -148.1655 
L 218.824468 -143.748797 
L 216.746809 -156.237663 
L 214.669149 -158.222127 
L 212.591489 -167.943804 
L 210.51383 -168.203599 
L 208.43617 -159.932505 
L 206.358511 -151.847386 
L 204.280851 -146.021981 
L 202.203191 -141.028597 
L 200.125532 -135.635977 
L 198.047872 -126.090418 
L 195.970213 -123.331891 
L 193.892553 -123.859677 
L 191.814894 -132.173731 
L 189.737234 -133.536027 
L 187.659574 -143.110635 
L 185.581915 -164.534823 
L 183.504255 -180.045962 
L 181.426596 -196.07259 
L 179.348936 -220.038935 
L 177.271277 -244.701953 
L 175.193617 -252.85227 
L 173.115957 -265.968194 
L 171.038298 -254.776299 
L 168.960638 -242.667512 
L 166.882979 -231.669265 
L 164.805319 -231.569086 
L 162.72766 -226.578308 
L 160.65 -225.83334 
L 158.57234 -213.076001 
L 156.494681 -207.86016 
L 154.417021 -203.362545 
L 152.339362 -210.886033 
L 150.261702 -206.298591 
L 148.184043 -206.520999 
L 146.106383 -208.980916 
L 144.028723 -211.154037 
L 141.951064 -220.147504 
L 139.873404 -218.171733 
L 137.795745 -207.237455 
L 135.718085 -205.91294 
L 133.640426 -206.745968 
L 131.562766 -209.922097 
L 129.485106 -213.040886 
L 127.407447 -217.959793 
L 125.329787 -218.482176 
L 123.252128 -221.47257 
L 121.174468 -221.225767 
L 119.096809 -216.677178 
L 117.019149 -213.562184 
L 114.941489 -199.912637 
L 112.86383 -199.006956 
L 110.78617 -192.093144 
L 108.708511 -182.191972 
L 106.630851 -172.404011 
L 104.553191 -166.199314 
L 102.475532 -159.023582 
L 100.397872 -149.263304 
L 98.320213 -142.527642 
L 96.242553 -141.003104 
L 94.164894 -137.657172 
L 92.087234 -137.135518 
L 90.009574 -136.821828 
L 87.931915 -140.319236 
L 85.854255 -144.448124 
L 83.776596 -154.300624 
L 81.698936 -166.36271 
L 79.621277 -176.29329 
L 77.543617 -192.974136 
L 75.465957 -210.248946 
L 73.388298 -238.274933 
L 71.310638 -265.696154 
L 69.232979 -298.463915 
L 67.155319 -334.690462 
L 65.07766 -371.980031 
L 63 -377.477739 
z
" style="stroke: #e377c2; stroke-opacity: 0.2"/>
    </defs>
    <g clip-path="url(#p40bbc06a52)">
     <use xlink:href="#m295a26cd5d" x="0" y="504" style="fill: #e377c2; fill-opacity: 0.2; stroke: #e377c2; stroke-opacity: 0.2"/>
    </g>
   </g>
   <g id="matplotlib.axis_2">
    <g id="xtick_1">
     <g id="line2d_9">
      <defs>
       <path id="mabbd7e0617" d="M 0 0 
L 0 3.5 
" style="stroke: #000000; stroke-width: 0.8"/>
      </defs>
      <g>
       <use xlink:href="#mabbd7e0617" x="73.388298" y="448.56" style="stroke: #000000; stroke-width: 0.8"/>
      </g>
     </g>
     <g id="text_10">
      <text style="font-size: 16px; font-family: 'Arial', sans-serif; text-anchor: middle" x="73.388298" y="467.208438" transform="rotate(-0 73.388298 467.208438)">1 Jul</text>
     </g>
    </g>
    <g id="xtick_2">
     <g id="line2d_10">
      <g>
       <use xlink:href="#mabbd7e0617" x="137.795745" y="448.56" style="stroke: #000000; stroke-width: 0.8"/>
      </g>
     </g>
     <g id="text_11">
      <text style="font-size: 16px; font-family: 'Arial', sans-serif; text-anchor: middle" x="137.795745" y="467.208438" transform="rotate(-0 137.795745 467.208438)">1 Aug</text>
     </g>
    </g>
    <g id="xtick_3">
     <g id="line2d_11">
      <g>
       <use xlink:href="#mabbd7e0617" x="202.203191" y="448.56" style="stroke: #000000; stroke-width: 0.8"/>
      </g>
     </g>
     <g id="text_12">
      <text style="font-size: 16px; font-family: 'Arial', sans-serif; text-anchor: middle" x="202.203191" y="467.208438" transform="rotate(-0 202.203191 467.208438)">1 Sep</text>
     </g>
    </g>
    <g id="xtick_4">
     <g id="line2d_12">
      <g>
       <use xlink:href="#mabbd7e0617" x="264.532979" y="448.56" style="stroke: #000000; stroke-width: 0.8"/>
      </g>
     </g>
     <g id="text_13">
      <text style="font-size: 16px; font-family: 'Arial', sans-serif; text-anchor: middle" x="264.532979" y="467.2175" transform="rotate(-0 264.532979 467.2175)">1 Oct</text>
     </g>
    </g>
    <g id="xtick_5">
     <g id="line2d_13">
      <g>
       <use xlink:href="#mabbd7e0617" x="328.940426" y="448.56" style="stroke: #000000; stroke-width: 0.8"/>
      </g>
     </g>
     <g id="text_14">
      <text style="font-size: 16px; font-family: 'Arial', sans-serif; text-anchor: middle" x="328.940426" y="467.208438" transform="rotate(-0 328.940426 467.208438)">1 Nov</text>
     </g>
    </g>
    <g id="xtick_6">
     <g id="line2d_14">
      <g>
       <use xlink:href="#mabbd7e0617" x="391.270213" y="448.56" style="stroke: #000000; stroke-width: 0.8"/>
      </g>
     </g>
     <g id="text_15">
      <text style="font-size: 16px; font-family: 'Arial', sans-serif; text-anchor: middle" x="391.270213" y="467.208438" transform="rotate(-0 391.270213 467.208438)">1 Dec</text>
     </g>
    </g>
    <g id="text_16">
     <text style="font-size: 16px; font-family: 'Arial', sans-serif; text-anchor: middle" x="258.3" y="486.233125" transform="rotate(-0 258.3 486.233125)">Date (2017)</text>
    </g>
   </g>
   <g id="matplotlib.axis_3">
    <g id="ytick_9">
     <g id="line2d_15">
      <defs>
       <path id="md023bf750d" d="M 0 0 
L -3.5 0 
" style="stroke: #000000; stroke-width: 0.8"/>
      </defs>
      <g>
       <use xlink:href="#md023bf750d" x="63" y="448.56" style="stroke: #000000; stroke-width: 0.8"/>
      </g>
     </g>
     <g id="text_17">
      <text style="font-size: 16px; font-family: 'Arial', sans-serif; text-anchor: end" x="56" y="454.384219" transform="rotate(-0 56 454.384219)">0</text>
     </g>
    </g>
    <g id="ytick_10">
     <g id="line2d_16">
      <g>
       <use xlink:href="#md023bf750d" x="63" y="370.944" style="stroke: #000000; stroke-width: 0.8"/>
      </g>
     </g>
     <g id="text_18">
      <text style="font-size: 16px; font-family: 'Arial', sans-serif; text-anchor: end" x="56" y="376.768219" transform="rotate(-0 56 376.768219)">2</text>
     </g>
    </g>
    <g id="ytick_11">
     <g id="line2d_17">
      <g>
       <use xlink:href="#md023bf750d" x="63" y="293.328" style="stroke: #000000; stroke-width: 0.8"/>
      </g>
     </g>
     <g id="text_19">
      <text style="font-size: 16px; font-family: 'Arial', sans-serif; text-anchor: end" x="56" y="299.152219" transform="rotate(-0 56 299.152219)">4</text>
     </g>
    </g>
    <g id="ytick_12">
     <g id="line2d_18">
      <g>
       <use xlink:href="#md023bf750d" x="63" y="215.712" style="stroke: #000000; stroke-width: 0.8"/>
      </g>
     </g>
     <g id="text_20">
      <text style="font-size: 16px; font-family: 'Arial', sans-serif; text-anchor: end" x="56" y="221.536219" transform="rotate(-0 56 221.536219)">6</text>
     </g>
    </g>
    <g id="ytick_13">
     <g id="line2d_19">
      <g>
       <use xlink:href="#md023bf750d" x="63" y="138.096" style="stroke: #000000; stroke-width: 0.8"/>
      </g>
     </g>
     <g id="text_21">
      <text style="font-size: 16px; font-family: 'Arial', sans-serif; text-anchor: end" x="56" y="143.920219" transform="rotate(-0 56 143.920219)">8</text>
     </g>
    </g>
    <g id="ytick_14">
     <g id="line2d_20">
      <g>
       <use xlink:href="#md023bf750d" x="63" y="60.48" style="stroke: #000000; stroke-width: 0.8"/>
      </g>
     </g>
     <g id="text_22">
      <text style="font-size: 16px; font-family: 'Arial', sans-serif; text-anchor: end" x="56" y="66.304219" transform="rotate(-0 56 66.304219)">10</text>
     </g>
    </g>
    <g id="text_23">
     <text style="font-size: 16px; font-family: 'Arial', sans-serif; text-anchor: middle" x="30.8375" y="254.52" transform="rotate(-90 30.8375 254.52)">Reproduction number scaling factor</text>
    </g>
   </g>
   <g id="line2d_21">
    <path d="M 63 297.347422 
L 65.07766 294.002825 
L 67.155319 301.045838 
L 69.232979 317.020962 
L 71.310638 331.220249 
L 73.388298 343.73764 
L 75.465957 354.526035 
L 77.543617 363.734103 
L 79.621277 371.181116 
L 81.698936 376.925364 
L 83.776596 383.341021 
L 85.854255 388.103624 
L 87.931915 391.452409 
L 90.009574 393.672949 
L 92.087234 394.972446 
L 94.164894 395.519713 
L 96.242553 395.298644 
L 98.320213 394.321989 
L 100.397872 392.693566 
L 102.475532 390.168244 
L 104.553191 388.777175 
L 106.630851 386.663476 
L 108.708511 383.515032 
L 110.78617 381.534871 
L 112.86383 378.631601 
L 114.941489 376.916555 
L 117.019149 374.234392 
L 119.096809 372.815814 
L 121.174468 370.039908 
L 123.252128 368.764728 
L 125.329787 368.830419 
L 127.407447 367.381008 
L 129.485106 366.670984 
L 131.562766 366.824882 
L 133.640426 364.769728 
L 135.718085 363.326875 
L 137.795745 359.207933 
L 139.873404 351.920723 
L 141.951064 350.032856 
L 144.028723 351.217913 
L 146.106383 351.791427 
L 148.184043 351.576734 
L 150.261702 350.588658 
L 152.339362 348.624925 
L 154.417021 351.988909 
L 156.494681 350.511618 
L 158.57234 346.562383 
L 160.65 338.88275 
L 162.72766 336.552814 
L 164.805319 335.603883 
L 166.882979 334.250626 
L 171.038298 321.135045 
L 173.115957 312.927418 
L 175.193617 318.632194 
L 177.271277 323.849419 
L 179.348936 339.620187 
L 181.426596 353.338648 
L 185.581915 372.324667 
L 187.659574 385.706535 
L 189.737234 392.316765 
L 191.814894 392.177925 
L 193.892553 397.860397 
L 195.970213 398.49057 
L 198.047872 397.285349 
L 200.125532 389.335374 
L 202.203191 385.227725 
L 204.280851 382.317786 
L 206.358511 379.64472 
L 210.51383 368.026853 
L 212.591489 368.703572 
L 214.669149 375.813778 
L 216.746809 377.901625 
L 218.824468 387.127612 
L 220.902128 383.039461 
L 222.979787 391.598157 
L 225.057447 403.332154 
L 227.135106 410.240776 
L 229.212766 413.56306 
L 231.290426 412.238136 
L 233.368085 408.123689 
L 235.445745 403.639524 
L 237.523404 407.134582 
L 239.601064 409.312621 
L 241.678723 413.699423 
L 243.756383 416.48457 
L 245.834043 419.828037 
L 247.911702 422.335566 
L 249.989362 423.86538 
L 252.067021 424.847744 
L 254.144681 423.966105 
L 256.22234 422.095666 
L 258.3 419.981454 
L 260.37766 418.797956 
L 262.455319 416.646257 
L 264.532979 415.916367 
L 266.610638 415.657201 
L 268.688298 414.041092 
L 270.765957 410.935225 
L 272.843617 407.572087 
L 274.921277 405.651092 
L 276.998936 404.019315 
L 279.076596 401.297179 
L 281.154255 399.186443 
L 283.231915 396.09 
L 285.309574 393.871922 
L 287.387234 390.739447 
L 289.464894 386.848456 
L 291.542553 382.135318 
L 293.620213 378.653639 
L 295.697872 376.919716 
L 297.775532 374.699034 
L 299.853191 372.030102 
L 301.930851 368.891699 
L 306.08617 366.691042 
L 308.16383 365.407679 
L 312.319149 361.841319 
L 314.396809 359.908362 
L 318.552128 354.625494 
L 322.707447 348.325827 
L 326.862766 347.78116 
L 331.018085 346.756712 
L 333.095745 345.985515 
L 335.173404 345.066731 
L 337.251064 344.005313 
L 343.484043 350.287082 
L 349.717021 355.074427 
L 355.95 359.348075 
L 358.02766 360.720789 
L 360.105319 361.691696 
L 366.338298 364.244857 
L 372.571277 367.213066 
L 374.648936 368.024517 
L 380.881915 370.11297 
L 385.037234 371.44718 
L 397.503191 374.961667 
L 399.580851 375.489717 
L 401.658511 375.869431 
L 405.81383 376.903132 
L 409.969149 377.661433 
L 420.357447 379.815678 
L 428.668085 380.898058 
L 432.823404 381.642917 
L 436.978723 382.26142 
L 441.134043 383.021072 
L 445.289362 383.513783 
L 451.52234 384.312297 
L 453.6 384.652432 
L 453.6 384.652432 
" clip-path="url(#p40bbc06a52)" style="fill: none; stroke: #0173b2; stroke-width: 2; stroke-linecap: square"/>
   </g>
   <g id="line2d_22">
    <path d="M 63 328.227445 
L 65.07766 326.090853 
L 67.155319 332.690929 
L 69.232979 345.50183 
L 71.310638 357.190754 
L 73.388298 367.556763 
L 75.465957 376.164475 
L 77.543617 383.419291 
L 79.621277 389.272766 
L 81.698936 393.787005 
L 83.776596 398.777901 
L 85.854255 402.562491 
L 87.931915 404.701274 
L 90.009574 406.00264 
L 92.087234 406.33894 
L 94.164894 405.790676 
L 96.242553 404.281068 
L 98.320213 402.399263 
L 100.397872 399.375112 
L 102.475532 395.249492 
L 104.553191 392.154595 
L 106.630851 388.21193 
L 108.708511 382.965027 
L 110.78617 379.120667 
L 112.86383 374.30022 
L 114.941489 370.985601 
L 117.019149 366.776404 
L 119.096809 364.901746 
L 121.174468 361.849495 
L 123.252128 361.019702 
L 125.329787 361.729672 
L 127.407447 360.713602 
L 129.485106 361.509479 
L 131.562766 362.646691 
L 133.640426 362.236343 
L 135.718085 362.346969 
L 137.795745 359.642677 
L 139.873404 353.277197 
L 141.951064 353.092739 
L 144.028723 354.911024 
L 146.106383 356.025624 
L 148.184043 356.59483 
L 150.261702 355.728882 
L 152.339362 354.088241 
L 154.417021 356.848653 
L 156.494681 354.512503 
L 158.57234 349.79721 
L 160.65 341.006896 
L 162.72766 337.355058 
L 166.882979 331.043574 
L 173.115957 305.256616 
L 175.193617 311.666286 
L 177.271277 318.520626 
L 179.348936 336.168511 
L 181.426596 351.973806 
L 185.581915 373.742811 
L 187.659574 387.811066 
L 189.737234 394.817135 
L 191.814894 395.384607 
L 193.892553 400.943394 
L 195.970213 401.468231 
L 198.047872 399.84194 
L 200.125532 391.780932 
L 202.203191 387.024431 
L 206.358511 379.56769 
L 210.51383 366.219973 
L 212.591489 366.372902 
L 214.669149 373.32175 
L 216.746809 375.515549 
L 218.824468 385.044962 
L 220.902128 380.922278 
L 222.979787 389.738322 
L 225.057447 402.252972 
L 227.135106 409.440411 
L 229.212766 413.148007 
L 231.290426 412.149623 
L 233.368085 408.267238 
L 235.445745 403.945449 
L 237.523404 407.506545 
L 239.601064 409.942716 
L 241.678723 414.250756 
L 243.756383 417.053812 
L 245.834043 420.265852 
L 247.911702 422.713725 
L 249.989362 424.295022 
L 252.067021 425.223435 
L 254.144681 424.292805 
L 256.22234 422.506572 
L 258.3 420.493003 
L 260.37766 419.472392 
L 262.455319 417.270083 
L 264.532979 416.66553 
L 266.610638 416.507398 
L 268.688298 414.78335 
L 270.765957 411.756715 
L 272.843617 408.526541 
L 274.921277 406.530761 
L 276.998936 404.787345 
L 279.076596 401.855408 
L 281.154255 399.775947 
L 283.231915 396.825422 
L 285.309574 394.730694 
L 287.387234 392.062898 
L 289.464894 388.637492 
L 291.542553 384.205169 
L 293.620213 381.242674 
L 295.697872 379.776043 
L 299.853191 375.277185 
L 301.930851 372.455138 
L 304.008511 371.937437 
L 306.08617 370.723129 
L 308.16383 368.933254 
L 310.241489 367.671017 
L 312.319149 365.684247 
L 316.474468 360.940162 
L 318.552128 357.62019 
L 320.629787 354.958909 
L 322.707447 351.389341 
L 326.862766 351.096467 
L 328.940426 350.883273 
L 333.095745 349.518983 
L 337.251064 347.67165 
L 339.328723 348.928 
L 341.406383 351.255529 
L 343.484043 352.130114 
L 345.561702 354.285906 
L 347.639362 356.055367 
L 349.717021 358.162182 
L 351.794681 359.679833 
L 355.95 362.172102 
L 362.182979 366.351242 
L 364.260638 366.918299 
L 366.338298 367.989542 
L 368.415957 368.576971 
L 370.493617 369.709927 
L 372.571277 370.332263 
L 374.648936 370.795213 
L 376.726596 371.541228 
L 378.804255 372.027383 
L 380.881915 373.227301 
L 385.037234 373.875798 
L 387.114894 374.781523 
L 389.192553 375.161741 
L 391.270213 376.341816 
L 393.347872 376.960475 
L 395.425532 377.051405 
L 397.503191 377.937849 
L 399.580851 378.061012 
L 401.658511 378.752146 
L 403.73617 379.313039 
L 405.81383 379.377737 
L 407.891489 379.842203 
L 412.046809 380.341628 
L 414.124468 380.937786 
L 418.279787 381.365873 
L 424.512766 382.318932 
L 426.590426 382.236376 
L 430.745745 383.383189 
L 432.823404 384.14712 
L 434.901064 384.560282 
L 436.978723 384.641779 
L 439.056383 384.960485 
L 443.211702 384.929823 
L 447.367021 385.731931 
L 449.444681 386.288147 
L 451.52234 386.581562 
L 453.6 386.697886 
L 457.755319 386.45438 
L 461.910638 387.057958 
L 463.988298 387.067112 
L 463.988298 387.067112 
" clip-path="url(#p40bbc06a52)" style="fill: none; stroke-dasharray: 7.4,3.2; stroke-dashoffset: 0; stroke: #e377c2; stroke-width: 2"/>
   </g>
   <g id="patch_193">
    <path d="M 63 448.56 
L 63 60.48 
" style="fill: none; stroke: #000000; stroke-width: 0.8; stroke-linejoin: miter; stroke-linecap: square"/>
   </g>
   <g id="patch_194">
    <path d="M 63 448.56 
L 453.6 448.56 
" style="fill: none; stroke: #000000; stroke-width: 0.8; stroke-linejoin: miter; stroke-linecap: square"/>
   </g>
   <g id="legend_1">
    <g id="patch_195">
     <path d="M 300.960625 111.957891 
L 443.8 111.957891 
Q 446.6 111.957891 446.6 109.157891 
L 446.6 70.28 
Q 446.6 67.48 443.8 67.48 
L 300.960625 67.48 
Q 298.160625 67.48 298.160625 70.28 
L 298.160625 109.157891 
Q 298.160625 111.957891 300.960625 111.957891 
z
" style="fill: #ffffff; opacity: 0.8; stroke: #cccccc; stroke-linejoin: miter"/>
    </g>
    <g id="line2d_23">
     <path d="M 303.760625 78.372383 
L 317.760625 78.372383 
L 331.760625 78.372383 
" style="fill: none; stroke: #0173b2; stroke-width: 2; stroke-linecap: square"/>
    </g>
    <g id="text_24">
     <text style="font-size: 14px; font-family: 'Arial', sans-serif; text-anchor: start" x="342.960625" y="83.272383" transform="rotate(-0 342.960625 83.272383)">Under-reporting</text>
    </g>
    <g id="line2d_24">
     <path d="M 303.760625 98.511328 
L 317.760625 98.511328 
L 331.760625 98.511328 
" style="fill: none; stroke-dasharray: 7.4,3.2; stroke-dashoffset: 0; stroke: #e377c2; stroke-width: 2"/>
    </g>
    <g id="text_25">
     <text style="font-size: 14px; font-family: 'Arial', sans-serif; text-anchor: start" x="342.960625" y="103.411328" transform="rotate(-0 342.960625 103.411328)">Full reporting</text>
    </g>
   </g>
  </g>
 </g>
 <defs>
  <clipPath id="p40bbc06a52">
   <rect x="63" y="60.48" width="390.6" height="388.08"/>
  </clipPath>
 </defs>
</svg>
