<?xml version="1.0" encoding="utf-8" standalone="no"?>
<!DOCTYPE svg PUBLIC "-//W3C//DTD SVG 1.1//EN"
  "http://www.w3.org/Graphics/SVG/1.1/DTD/svg11.dtd">
<svg xmlns:xlink="http://www.w3.org/1999/xlink" width="504pt" height="504pt" viewBox="0 0 504 504" xmlns="http://www.w3.org/2000/svg" version="1.1">
 <metadata>
  <rdf:RDF xmlns:dc="http://purl.org/dc/elements/1.1/" xmlns:cc="http://creativecommons.org/ns#" xmlns:rdf="http://www.w3.org/1999/02/22-rdf-syntax-ns#">
   <cc:Work>
    <dc:type rdf:resource="http://purl.org/dc/dcmitype/StillImage"/>
    <dc:date>2026-07-10T11:33:21.779844</dc:date>
    <dc:format>image/svg+xml</dc:format>
    <dc:creator>
     <cc:Agent>
      <dc:title>Matplotlib v3.11.0, https://matplotlib.org/</dc:title>
     </cc:Agent>
    </dc:creator>
   </cc:Work>
  </rdf:RDF>
 </metadata>
 <defs>
  <style type="text/css">*{stroke-linejoin: round; stroke-linecap: butt}</style>
 </defs>
 <g id="figure_1">
  <g id="patch_1">
   <path d="M 0 504 
L 504 504 
L 504 0 
L 0 0 
L 0 504 
z
" style="fill: none"/>
  </g>
  <g id="axes_1">
   <g id="patch_2">
    <path d="M 63 448.56 
L 453.6 448.56 
L 453.6 60.48 
L 63 60.48 
L 63 448.56 
z
" style="fill: none"/>
   </g>
   <g id="matplotlib.axis_1">
    <g id="ytick_1">
     <g id="line2d_1">
      <defs>
       <path id="maa25046d83" d="M 0 0 
L 3.5 0 
" style="stroke: #7f7f7f; stroke-width: 0.8"/>
      </defs>
      <g>
       <use xlink:href="#maa25046d83" x="453.6" y="448.56" style="fill: #7f7f7f; stroke: #7f7f7f; stroke-width: 0.8"/>
      </g>
     </g>
     <g id="text_1">
      <text style="font-size: 16px; font-family: 'Arial', sans-serif; text-anchor: start; fill: #7f7f7f" x="460.6" y="454.384219" transform="rotate(-0 460.6 454.384219)">0</text>
     </g>
    </g>
    <g id="ytick_2">
     <g id="line2d_2">
      <g>
       <use xlink:href="#maa25046d83" x="453.6" y="396.816" style="fill: #7f7f7f; stroke: #7f7f7f; stroke-width: 0.8"/>
      </g>
     </g>
     <g id="text_2">
      <text style="font-size: 16px; font-family: 'Arial', sans-serif; text-anchor: start; fill: #7f7f7f" x="460.6" y="402.640219" transform="rotate(-0 460.6 402.640219)">2</text>
     </g>
    </g>
    <g id="ytick_3">
     <g id="line2d_3">
      <g>
       <use xlink:href="#maa25046d83" x="453.6" y="345.072" style="fill: #7f7f7f; stroke: #7f7f7f; stroke-width: 0.8"/>
      </g>
     </g>
     <g id="text_3">
      <text style="font-size: 16px; font-family: 'Arial', sans-serif; text-anchor: start; fill: #7f7f7f" x="460.6" y="350.896219" transform="rotate(-0 460.6 350.896219)">4</text>
     </g>
    </g>
    <g id="ytick_4">
     <g id="line2d_4">
      <g>
       <use xlink:href="#maa25046d83" x="453.6" y="293.328" style="fill: #7f7f7f; stroke: #7f7f7f; stroke-width: 0.8"/>
      </g>
     </g>
     <g id="text_4">
      <text style="font-size: 16px; font-family: 'Arial', sans-serif; text-anchor: start; fill: #7f7f7f" x="460.6" y="299.152219" transform="rotate(-0 460.6 299.152219)">6</text>
     </g>
    </g>
    <g id="ytick_5">
     <g id="line2d_5">
      <g>
       <use xlink:href="#maa25046d83" x="453.6" y="241.584" style="fill: #7f7f7f; stroke: #7f7f7f; stroke-width: 0.8"/>
      </g>
     </g>
     <g id="text_5">
      <text style="font-size: 16px; font-family: 'Arial', sans-serif; text-anchor: start; fill: #7f7f7f" x="460.6" y="247.408219" transform="rotate(-0 460.6 247.408219)">8</text>
     </g>
    </g>
    <g id="ytick_6">
     <g id="line2d_6">
      <g>
       <use xlink:href="#maa25046d83" x="453.6" y="189.84" style="fill: #7f7f7f; stroke: #7f7f7f; stroke-width: 0.8"/>
      </g>
     </g>
     <g id="text_6">
      <text style="font-size: 16px; font-family: 'Arial', sans-serif; text-anchor: start; fill: #7f7f7f" x="460.6" y="195.664219" transform="rotate(-0 460.6 195.664219)">10</text>
     </g>
    </g>
    <g id="ytick_7">
     <g id="line2d_7">
      <g>
       <use xlink:href="#maa25046d83" x="453.6" y="138.096" style="fill: #7f7f7f; stroke: #7f7f7f; stroke-width: 0.8"/>
      </g>
     </g>
     <g id="text_7">
      <text style="font-size: 16px; font-family: 'Arial', sans-serif; text-anchor: start; fill: #7f7f7f" x="460.6" y="143.920219" transform="rotate(-0 460.6 143.920219)">12</text>
     </g>
    </g>
    <g id="ytick_8">
     <g id="line2d_8">
      <g>
       <use xlink:href="#maa25046d83" x="453.6" y="86.352" style="fill: #7f7f7f; stroke: #7f7f7f; stroke-width: 0.8"/>
      </g>
     </g>
     <g id="text_8">
      <text style="font-size: 16px; font-family: 'Arial', sans-serif; text-anchor: start; fill: #7f7f7f" x="460.6" y="92.176219" transform="rotate(-0 460.6 92.176219)">14</text>
     </g>
    </g>
    <g id="text_9">
     <text style="font-size: 16px; font-family: 'Arial', sans-serif; text-anchor: middle; fill: #7f7f7f" x="494.043438" y="254.52" transform="rotate(-90 494.043438 254.52)">Number of cases</text>
    </g>
   </g>
   <g id="patch_3">
    <path d="M 80.754545 448.56 
L 82.26718 448.56 
L 82.26718 396.816 
L 80.754545 396.816 
z
" clip-path="url(#p8675d1e246)" style="fill: #7f7f7f; opacity: 0.5"/>
   </g>
   <g id="patch_4">
    <path d="M 82.645338 448.56 
L 84.157973 448.56 
L 84.157973 396.816 
L 82.645338 396.816 
z
" clip-path="url(#p8675d1e246)" style="fill: #7f7f7f; opacity: 0.5"/>
   </g>
   <g id="patch_5">
    <path d="M 84.536131 448.56 
L 86.048766 448.56 
L 86.048766 396.816 
L 84.536131 396.816 
z
" clip-path="url(#p8675d1e246)" style="fill: #7f7f7f; opacity: 0.5"/>
   </g>
   <g id="patch_6">
    <path d="M 86.426924 448.56 
L 87.939559 448.56 
L 87.939559 448.56 
L 86.426924 448.56 
z
" clip-path="url(#p8675d1e246)" style="fill: #7f7f7f; opacity: 0.5"/>
   </g>
   <g id="patch_7">
    <path d="M 88.317717 448.56 
L 89.830351 448.56 
L 89.830351 448.56 
L 88.317717 448.56 
z
" clip-path="url(#p8675d1e246)" style="fill: #7f7f7f; opacity: 0.5"/>
   </g>
   <g id="patch_8">
    <path d="M 90.20851 448.56 
L 91.721144 448.56 
L 91.721144 448.56 
L 90.20851 448.56 
z
" clip-path="url(#p8675d1e246)" style="fill: #7f7f7f; opacity: 0.5"/>
   </g>
   <g id="patch_9">
    <path d="M 92.099303 448.56 
L 93.611937 448.56 
L 93.611937 448.56 
L 92.099303 448.56 
z
" clip-path="url(#p8675d1e246)" style="fill: #7f7f7f; opacity: 0.5"/>
   </g>
   <g id="patch_10">
    <path d="M 93.990096 448.56 
L 95.50273 448.56 
L 95.50273 448.56 
L 93.990096 448.56 
z
" clip-path="url(#p8675d1e246)" style="fill: #7f7f7f; opacity: 0.5"/>
   </g>
   <g id="patch_11">
    <path d="M 95.880889 448.56 
L 97.393523 448.56 
L 97.393523 448.56 
L 95.880889 448.56 
z
" clip-path="url(#p8675d1e246)" style="fill: #7f7f7f; opacity: 0.5"/>
   </g>
   <g id="patch_12">
    <path d="M 97.771682 448.56 
L 99.284316 448.56 
L 99.284316 422.688 
L 97.771682 422.688 
z
" clip-path="url(#p8675d1e246)" style="fill: #7f7f7f; opacity: 0.5"/>
   </g>
   <g id="patch_13">
    <path d="M 99.662475 448.56 
L 101.175109 448.56 
L 101.175109 448.56 
L 99.662475 448.56 
z
" clip-path="url(#p8675d1e246)" style="fill: #7f7f7f; opacity: 0.5"/>
   </g>
   <g id="patch_14">
    <path d="M 101.553267 448.56 
L 103.065902 448.56 
L 103.065902 448.56 
L 101.553267 448.56 
z
" clip-path="url(#p8675d1e246)" style="fill: #7f7f7f; opacity: 0.5"/>
   </g>
   <g id="patch_15">
    <path d="M 103.44406 448.56 
L 104.956695 448.56 
L 104.956695 448.56 
L 103.44406 448.56 
z
" clip-path="url(#p8675d1e246)" style="fill: #7f7f7f; opacity: 0.5"/>
   </g>
   <g id="patch_16">
    <path d="M 105.334853 448.56 
L 106.847488 448.56 
L 106.847488 448.56 
L 105.334853 448.56 
z
" clip-path="url(#p8675d1e246)" style="fill: #7f7f7f; opacity: 0.5"/>
   </g>
   <g id="patch_17">
    <path d="M 107.225646 448.56 
L 108.738281 448.56 
L 108.738281 448.56 
L 107.225646 448.56 
z
" clip-path="url(#p8675d1e246)" style="fill: #7f7f7f; opacity: 0.5"/>
   </g>
   <g id="patch_18">
    <path d="M 109.116439 448.56 
L 110.629073 448.56 
L 110.629073 448.56 
L 109.116439 448.56 
z
" clip-path="url(#p8675d1e246)" style="fill: #7f7f7f; opacity: 0.5"/>
   </g>
   <g id="patch_19">
    <path d="M 111.007232 448.56 
L 112.519866 448.56 
L 112.519866 448.56 
L 111.007232 448.56 
z
" clip-path="url(#p8675d1e246)" style="fill: #7f7f7f; opacity: 0.5"/>
   </g>
   <g id="patch_20">
    <path d="M 112.898025 448.56 
L 114.410659 448.56 
L 114.410659 448.56 
L 112.898025 448.56 
z
" clip-path="url(#p8675d1e246)" style="fill: #7f7f7f; opacity: 0.5"/>
   </g>
   <g id="patch_21">
    <path d="M 114.788818 448.56 
L 116.301452 448.56 
L 116.301452 448.56 
L 114.788818 448.56 
z
" clip-path="url(#p8675d1e246)" style="fill: #7f7f7f; opacity: 0.5"/>
   </g>
   <g id="patch_22">
    <path d="M 116.679611 448.56 
L 118.192245 448.56 
L 118.192245 422.688 
L 116.679611 422.688 
z
" clip-path="url(#p8675d1e246)" style="fill: #7f7f7f; opacity: 0.5"/>
   </g>
   <g id="patch_23">
    <path d="M 118.570404 448.56 
L 120.083038 448.56 
L 120.083038 448.56 
L 118.570404 448.56 
z
" clip-path="url(#p8675d1e246)" style="fill: #7f7f7f; opacity: 0.5"/>
   </g>
   <g id="patch_24">
    <path d="M 120.461197 448.56 
L 121.973831 448.56 
L 121.973831 448.56 
L 120.461197 448.56 
z
" clip-path="url(#p8675d1e246)" style="fill: #7f7f7f; opacity: 0.5"/>
   </g>
   <g id="patch_25">
    <path d="M 122.35199 448.56 
L 123.864624 448.56 
L 123.864624 422.688 
L 122.35199 422.688 
z
" clip-path="url(#p8675d1e246)" style="fill: #7f7f7f; opacity: 0.5"/>
   </g>
   <g id="patch_26">
    <path d="M 124.242782 448.56 
L 125.755417 448.56 
L 125.755417 448.56 
L 124.242782 448.56 
z
" clip-path="url(#p8675d1e246)" style="fill: #7f7f7f; opacity: 0.5"/>
   </g>
   <g id="patch_27">
    <path d="M 126.133575 448.56 
L 127.64621 448.56 
L 127.64621 422.688 
L 126.133575 422.688 
z
" clip-path="url(#p8675d1e246)" style="fill: #7f7f7f; opacity: 0.5"/>
   </g>
   <g id="patch_28">
    <path d="M 128.024368 448.56 
L 129.537003 448.56 
L 129.537003 448.56 
L 128.024368 448.56 
z
" clip-path="url(#p8675d1e246)" style="fill: #7f7f7f; opacity: 0.5"/>
   </g>
   <g id="patch_29">
    <path d="M 129.915161 448.56 
L 131.427796 448.56 
L 131.427796 422.688 
L 129.915161 422.688 
z
" clip-path="url(#p8675d1e246)" style="fill: #7f7f7f; opacity: 0.5"/>
   </g>
   <g id="patch_30">
    <path d="M 131.805954 448.56 
L 133.318588 448.56 
L 133.318588 448.56 
L 131.805954 448.56 
z
" clip-path="url(#p8675d1e246)" style="fill: #7f7f7f; opacity: 0.5"/>
   </g>
   <g id="patch_31">
    <path d="M 133.696747 448.56 
L 135.209381 448.56 
L 135.209381 422.688 
L 133.696747 422.688 
z
" clip-path="url(#p8675d1e246)" style="fill: #7f7f7f; opacity: 0.5"/>
   </g>
   <g id="patch_32">
    <path d="M 135.58754 448.56 
L 137.100174 448.56 
L 137.100174 422.688 
L 135.58754 422.688 
z
" clip-path="url(#p8675d1e246)" style="fill: #7f7f7f; opacity: 0.5"/>
   </g>
   <g id="patch_33">
    <path d="M 137.478333 448.56 
L 138.990967 448.56 
L 138.990967 448.56 
L 137.478333 448.56 
z
" clip-path="url(#p8675d1e246)" style="fill: #7f7f7f; opacity: 0.5"/>
   </g>
   <g id="patch_34">
    <path d="M 139.369126 448.56 
L 140.88176 448.56 
L 140.88176 422.688 
L 139.369126 422.688 
z
" clip-path="url(#p8675d1e246)" style="fill: #7f7f7f; opacity: 0.5"/>
   </g>
   <g id="patch_35">
    <path d="M 141.259919 448.56 
L 142.772553 448.56 
L 142.772553 422.688 
L 141.259919 422.688 
z
" clip-path="url(#p8675d1e246)" style="fill: #7f7f7f; opacity: 0.5"/>
   </g>
   <g id="patch_36">
    <path d="M 143.150712 448.56 
L 144.663346 448.56 
L 144.663346 448.56 
L 143.150712 448.56 
z
" clip-path="url(#p8675d1e246)" style="fill: #7f7f7f; opacity: 0.5"/>
   </g>
   <g id="patch_37">
    <path d="M 145.041505 448.56 
L 146.554139 448.56 
L 146.554139 422.688 
L 145.041505 422.688 
z
" clip-path="url(#p8675d1e246)" style="fill: #7f7f7f; opacity: 0.5"/>
   </g>
   <g id="patch_38">
    <path d="M 146.932297 448.56 
L 148.444932 448.56 
L 148.444932 448.56 
L 146.932297 448.56 
z
" clip-path="url(#p8675d1e246)" style="fill: #7f7f7f; opacity: 0.5"/>
   </g>
   <g id="patch_39">
    <path d="M 148.82309 448.56 
L 150.335725 448.56 
L 150.335725 448.56 
L 148.82309 448.56 
z
" clip-path="url(#p8675d1e246)" style="fill: #7f7f7f; opacity: 0.5"/>
   </g>
   <g id="patch_40">
    <path d="M 150.713883 448.56 
L 152.226518 448.56 
L 152.226518 370.944 
L 150.713883 370.944 
z
" clip-path="url(#p8675d1e246)" style="fill: #7f7f7f; opacity: 0.5"/>
   </g>
   <g id="patch_41">
    <path d="M 152.604676 448.56 
L 154.11731 448.56 
L 154.11731 396.816 
L 152.604676 396.816 
z
" clip-path="url(#p8675d1e246)" style="fill: #7f7f7f; opacity: 0.5"/>
   </g>
   <g id="patch_42">
    <path d="M 154.495469 448.56 
L 156.008103 448.56 
L 156.008103 422.688 
L 154.495469 422.688 
z
" clip-path="url(#p8675d1e246)" style="fill: #7f7f7f; opacity: 0.5"/>
   </g>
   <g id="patch_43">
    <path d="M 156.386262 448.56 
L 157.898896 448.56 
L 157.898896 422.688 
L 156.386262 422.688 
z
" clip-path="url(#p8675d1e246)" style="fill: #7f7f7f; opacity: 0.5"/>
   </g>
   <g id="patch_44">
    <path d="M 158.277055 448.56 
L 159.789689 448.56 
L 159.789689 422.688 
L 158.277055 422.688 
z
" clip-path="url(#p8675d1e246)" style="fill: #7f7f7f; opacity: 0.5"/>
   </g>
   <g id="patch_45">
    <path d="M 160.167848 448.56 
L 161.680482 448.56 
L 161.680482 422.688 
L 160.167848 422.688 
z
" clip-path="url(#p8675d1e246)" style="fill: #7f7f7f; opacity: 0.5"/>
   </g>
   <g id="patch_46">
    <path d="M 162.058641 448.56 
L 163.571275 448.56 
L 163.571275 370.944 
L 162.058641 370.944 
z
" clip-path="url(#p8675d1e246)" style="fill: #7f7f7f; opacity: 0.5"/>
   </g>
   <g id="patch_47">
    <path d="M 163.949434 448.56 
L 165.462068 448.56 
L 165.462068 448.56 
L 163.949434 448.56 
z
" clip-path="url(#p8675d1e246)" style="fill: #7f7f7f; opacity: 0.5"/>
   </g>
   <g id="patch_48">
    <path d="M 165.840227 448.56 
L 167.352861 448.56 
L 167.352861 422.688 
L 165.840227 422.688 
z
" clip-path="url(#p8675d1e246)" style="fill: #7f7f7f; opacity: 0.5"/>
   </g>
   <g id="patch_49">
    <path d="M 167.731019 448.56 
L 169.243654 448.56 
L 169.243654 422.688 
L 167.731019 422.688 
z
" clip-path="url(#p8675d1e246)" style="fill: #7f7f7f; opacity: 0.5"/>
   </g>
   <g id="patch_50">
    <path d="M 169.621812 448.56 
L 171.134447 448.56 
L 171.134447 345.072 
L 169.621812 345.072 
z
" clip-path="url(#p8675d1e246)" style="fill: #7f7f7f; opacity: 0.5"/>
   </g>
   <g id="patch_51">
    <path d="M 171.512605 448.56 
L 173.02524 448.56 
L 173.02524 370.944 
L 171.512605 370.944 
z
" clip-path="url(#p8675d1e246)" style="fill: #7f7f7f; opacity: 0.5"/>
   </g>
   <g id="patch_52">
    <path d="M 173.403398 448.56 
L 174.916033 448.56 
L 174.916033 370.944 
L 173.403398 370.944 
z
" clip-path="url(#p8675d1e246)" style="fill: #7f7f7f; opacity: 0.5"/>
   </g>
   <g id="patch_53">
    <path d="M 175.294191 448.56 
L 176.806825 448.56 
L 176.806825 396.816 
L 175.294191 396.816 
z
" clip-path="url(#p8675d1e246)" style="fill: #7f7f7f; opacity: 0.5"/>
   </g>
   <g id="patch_54">
    <path d="M 177.184984 448.56 
L 178.697618 448.56 
L 178.697618 345.072 
L 177.184984 345.072 
z
" clip-path="url(#p8675d1e246)" style="fill: #7f7f7f; opacity: 0.5"/>
   </g>
   <g id="patch_55">
    <path d="M 179.075777 448.56 
L 180.588411 448.56 
L 180.588411 345.072 
L 179.075777 345.072 
z
" clip-path="url(#p8675d1e246)" style="fill: #7f7f7f; opacity: 0.5"/>
   </g>
   <g id="patch_56">
    <path d="M 180.96657 448.56 
L 182.479204 448.56 
L 182.479204 241.584 
L 180.96657 241.584 
z
" clip-path="url(#p8675d1e246)" style="fill: #7f7f7f; opacity: 0.5"/>
   </g>
   <g id="patch_57">
    <path d="M 182.857363 448.56 
L 184.369997 448.56 
L 184.369997 319.2 
L 182.857363 319.2 
z
" clip-path="url(#p8675d1e246)" style="fill: #7f7f7f; opacity: 0.5"/>
   </g>
   <g id="patch_58">
    <path d="M 184.748156 448.56 
L 186.26079 448.56 
L 186.26079 241.584 
L 184.748156 241.584 
z
" clip-path="url(#p8675d1e246)" style="fill: #7f7f7f; opacity: 0.5"/>
   </g>
   <g id="patch_59">
    <path d="M 186.638949 448.56 
L 188.151583 448.56 
L 188.151583 319.2 
L 186.638949 319.2 
z
" clip-path="url(#p8675d1e246)" style="fill: #7f7f7f; opacity: 0.5"/>
   </g>
   <g id="patch_60">
    <path d="M 188.529742 448.56 
L 190.042376 448.56 
L 190.042376 345.072 
L 188.529742 345.072 
z
" clip-path="url(#p8675d1e246)" style="fill: #7f7f7f; opacity: 0.5"/>
   </g>
   <g id="patch_61">
    <path d="M 190.420534 448.56 
L 191.933169 448.56 
L 191.933169 319.2 
L 190.420534 319.2 
z
" clip-path="url(#p8675d1e246)" style="fill: #7f7f7f; opacity: 0.5"/>
   </g>
   <g id="patch_62">
    <path d="M 192.311327 448.56 
L 193.823962 448.56 
L 193.823962 267.456 
L 192.311327 267.456 
z
" clip-path="url(#p8675d1e246)" style="fill: #7f7f7f; opacity: 0.5"/>
   </g>
   <g id="patch_63">
    <path d="M 194.20212 448.56 
L 195.714755 448.56 
L 195.714755 396.816 
L 194.20212 396.816 
z
" clip-path="url(#p8675d1e246)" style="fill: #7f7f7f; opacity: 0.5"/>
   </g>
   <g id="patch_64">
    <path d="M 196.092913 448.56 
L 197.605547 448.56 
L 197.605547 422.688 
L 196.092913 422.688 
z
" clip-path="url(#p8675d1e246)" style="fill: #7f7f7f; opacity: 0.5"/>
   </g>
   <g id="patch_65">
    <path d="M 197.983706 448.56 
L 199.49634 448.56 
L 199.49634 241.584 
L 197.983706 241.584 
z
" clip-path="url(#p8675d1e246)" style="fill: #7f7f7f; opacity: 0.5"/>
   </g>
   <g id="patch_66">
    <path d="M 199.874499 448.56 
L 201.387133 448.56 
L 201.387133 396.816 
L 199.874499 396.816 
z
" clip-path="url(#p8675d1e246)" style="fill: #7f7f7f; opacity: 0.5"/>
   </g>
   <g id="patch_67">
    <path d="M 201.765292 448.56 
L 203.277926 448.56 
L 203.277926 345.072 
L 201.765292 345.072 
z
" clip-path="url(#p8675d1e246)" style="fill: #7f7f7f; opacity: 0.5"/>
   </g>
   <g id="patch_68">
    <path d="M 203.656085 448.56 
L 205.168719 448.56 
L 205.168719 396.816 
L 203.656085 396.816 
z
" clip-path="url(#p8675d1e246)" style="fill: #7f7f7f; opacity: 0.5"/>
   </g>
   <g id="patch_69">
    <path d="M 205.546878 448.56 
L 207.059512 448.56 
L 207.059512 215.712 
L 205.546878 215.712 
z
" clip-path="url(#p8675d1e246)" style="fill: #7f7f7f; opacity: 0.5"/>
   </g>
   <g id="patch_70">
    <path d="M 207.437671 448.56 
L 208.950305 448.56 
L 208.950305 241.584 
L 207.437671 241.584 
z
" clip-path="url(#p8675d1e246)" style="fill: #7f7f7f; opacity: 0.5"/>
   </g>
   <g id="patch_71">
    <path d="M 209.328464 448.56 
L 210.841098 448.56 
L 210.841098 241.584 
L 209.328464 241.584 
z
" clip-path="url(#p8675d1e246)" style="fill: #7f7f7f; opacity: 0.5"/>
   </g>
   <g id="patch_72">
    <path d="M 211.219256 448.56 
L 212.731891 448.56 
L 212.731891 267.456 
L 211.219256 267.456 
z
" clip-path="url(#p8675d1e246)" style="fill: #7f7f7f; opacity: 0.5"/>
   </g>
   <g id="patch_73">
    <path d="M 213.110049 448.56 
L 214.622684 448.56 
L 214.622684 215.712 
L 213.110049 215.712 
z
" clip-path="url(#p8675d1e246)" style="fill: #7f7f7f; opacity: 0.5"/>
   </g>
   <g id="patch_74">
    <path d="M 215.000842 448.56 
L 216.513477 448.56 
L 216.513477 138.096 
L 215.000842 138.096 
z
" clip-path="url(#p8675d1e246)" style="fill: #7f7f7f; opacity: 0.5"/>
   </g>
   <g id="patch_75">
    <path d="M 216.891635 448.56 
L 218.40427 448.56 
L 218.40427 138.096 
L 216.891635 138.096 
z
" clip-path="url(#p8675d1e246)" style="fill: #7f7f7f; opacity: 0.5"/>
   </g>
   <g id="patch_76">
    <path d="M 218.782428 448.56 
L 220.295062 448.56 
L 220.295062 267.456 
L 218.782428 267.456 
z
" clip-path="url(#p8675d1e246)" style="fill: #7f7f7f; opacity: 0.5"/>
   </g>
   <g id="patch_77">
    <path d="M 220.673221 448.56 
L 222.185855 448.56 
L 222.185855 138.096 
L 220.673221 138.096 
z
" clip-path="url(#p8675d1e246)" style="fill: #7f7f7f; opacity: 0.5"/>
   </g>
   <g id="patch_78">
    <path d="M 222.564014 448.56 
L 224.076648 448.56 
L 224.076648 396.816 
L 222.564014 396.816 
z
" clip-path="url(#p8675d1e246)" style="fill: #7f7f7f; opacity: 0.5"/>
   </g>
   <g id="patch_79">
    <path d="M 224.454807 448.56 
L 225.967441 448.56 
L 225.967441 60.48 
L 224.454807 60.48 
z
" clip-path="url(#p8675d1e246)" style="fill: #7f7f7f; opacity: 0.5"/>
   </g>
   <g id="patch_80">
    <path d="M 226.3456 448.56 
L 227.858234 448.56 
L 227.858234 163.968 
L 226.3456 163.968 
z
" clip-path="url(#p8675d1e246)" style="fill: #7f7f7f; opacity: 0.5"/>
   </g>
   <g id="patch_81">
    <path d="M 228.236393 448.56 
L 229.749027 448.56 
L 229.749027 319.2 
L 228.236393 319.2 
z
" clip-path="url(#p8675d1e246)" style="fill: #7f7f7f; opacity: 0.5"/>
   </g>
   <g id="patch_82">
    <path d="M 230.127186 448.56 
L 231.63982 448.56 
L 231.63982 345.072 
L 230.127186 345.072 
z
" clip-path="url(#p8675d1e246)" style="fill: #7f7f7f; opacity: 0.5"/>
   </g>
   <g id="patch_83">
    <path d="M 232.017979 448.56 
L 233.530613 448.56 
L 233.530613 396.816 
L 232.017979 396.816 
z
" clip-path="url(#p8675d1e246)" style="fill: #7f7f7f; opacity: 0.5"/>
   </g>
   <g id="patch_84">
    <path d="M 233.908771 448.56 
L 235.421406 448.56 
L 235.421406 345.072 
L 233.908771 345.072 
z
" clip-path="url(#p8675d1e246)" style="fill: #7f7f7f; opacity: 0.5"/>
   </g>
   <g id="patch_85">
    <path d="M 235.799564 448.56 
L 237.312199 448.56 
L 237.312199 267.456 
L 235.799564 267.456 
z
" clip-path="url(#p8675d1e246)" style="fill: #7f7f7f; opacity: 0.5"/>
   </g>
   <g id="patch_86">
    <path d="M 237.690357 448.56 
L 239.202992 448.56 
L 239.202992 112.224 
L 237.690357 112.224 
z
" clip-path="url(#p8675d1e246)" style="fill: #7f7f7f; opacity: 0.5"/>
   </g>
   <g id="patch_87">
    <path d="M 239.58115 448.56 
L 241.093784 448.56 
L 241.093784 293.328 
L 239.58115 293.328 
z
" clip-path="url(#p8675d1e246)" style="fill: #7f7f7f; opacity: 0.5"/>
   </g>
   <g id="patch_88">
    <path d="M 241.471943 448.56 
L 242.984577 448.56 
L 242.984577 241.584 
L 241.471943 241.584 
z
" clip-path="url(#p8675d1e246)" style="fill: #7f7f7f; opacity: 0.5"/>
   </g>
   <g id="patch_89">
    <path d="M 243.362736 448.56 
L 244.87537 448.56 
L 244.87537 345.072 
L 243.362736 345.072 
z
" clip-path="url(#p8675d1e246)" style="fill: #7f7f7f; opacity: 0.5"/>
   </g>
   <g id="patch_90">
    <path d="M 245.253529 448.56 
L 246.766163 448.56 
L 246.766163 319.2 
L 245.253529 319.2 
z
" clip-path="url(#p8675d1e246)" style="fill: #7f7f7f; opacity: 0.5"/>
   </g>
   <g id="patch_91">
    <path d="M 247.144322 448.56 
L 248.656956 448.56 
L 248.656956 370.944 
L 247.144322 370.944 
z
" clip-path="url(#p8675d1e246)" style="fill: #7f7f7f; opacity: 0.5"/>
   </g>
   <g id="patch_92">
    <path d="M 249.035115 448.56 
L 250.547749 448.56 
L 250.547749 396.816 
L 249.035115 396.816 
z
" clip-path="url(#p8675d1e246)" style="fill: #7f7f7f; opacity: 0.5"/>
   </g>
   <g id="patch_93">
    <path d="M 250.925908 448.56 
L 252.438542 448.56 
L 252.438542 396.816 
L 250.925908 396.816 
z
" clip-path="url(#p8675d1e246)" style="fill: #7f7f7f; opacity: 0.5"/>
   </g>
   <g id="patch_94">
    <path d="M 252.816701 448.56 
L 254.329335 448.56 
L 254.329335 448.56 
L 252.816701 448.56 
z
" clip-path="url(#p8675d1e246)" style="fill: #7f7f7f; opacity: 0.5"/>
   </g>
   <g id="patch_95">
    <path d="M 254.707493 448.56 
L 256.220128 448.56 
L 256.220128 422.688 
L 254.707493 422.688 
z
" clip-path="url(#p8675d1e246)" style="fill: #7f7f7f; opacity: 0.5"/>
   </g>
   <g id="patch_96">
    <path d="M 256.598286 448.56 
L 258.110921 448.56 
L 258.110921 396.816 
L 256.598286 396.816 
z
" clip-path="url(#p8675d1e246)" style="fill: #7f7f7f; opacity: 0.5"/>
   </g>
   <g id="patch_97">
    <path d="M 258.489079 448.56 
L 260.001714 448.56 
L 260.001714 370.944 
L 258.489079 370.944 
z
" clip-path="url(#p8675d1e246)" style="fill: #7f7f7f; opacity: 0.5"/>
   </g>
   <g id="patch_98">
    <path d="M 260.379872 448.56 
L 261.892507 448.56 
L 261.892507 422.688 
L 260.379872 422.688 
z
" clip-path="url(#p8675d1e246)" style="fill: #7f7f7f; opacity: 0.5"/>
   </g>
   <g id="patch_99">
    <path d="M 262.270665 448.56 
L 263.783299 448.56 
L 263.783299 370.944 
L 262.270665 370.944 
z
" clip-path="url(#p8675d1e246)" style="fill: #7f7f7f; opacity: 0.5"/>
   </g>
   <g id="patch_100">
    <path d="M 264.161458 448.56 
L 265.674092 448.56 
L 265.674092 396.816 
L 264.161458 396.816 
z
" clip-path="url(#p8675d1e246)" style="fill: #7f7f7f; opacity: 0.5"/>
   </g>
   <g id="patch_101">
    <path d="M 266.052251 448.56 
L 267.564885 448.56 
L 267.564885 448.56 
L 266.052251 448.56 
z
" clip-path="url(#p8675d1e246)" style="fill: #7f7f7f; opacity: 0.5"/>
   </g>
   <g id="patch_102">
    <path d="M 267.943044 448.56 
L 269.455678 448.56 
L 269.455678 448.56 
L 267.943044 448.56 
z
" clip-path="url(#p8675d1e246)" style="fill: #7f7f7f; opacity: 0.5"/>
   </g>
   <g id="patch_103">
    <path d="M 269.833837 448.56 
L 271.346471 448.56 
L 271.346471 422.688 
L 269.833837 422.688 
z
" clip-path="url(#p8675d1e246)" style="fill: #7f7f7f; opacity: 0.5"/>
   </g>
   <g id="patch_104">
    <path d="M 271.72463 448.56 
L 273.237264 448.56 
L 273.237264 396.816 
L 271.72463 396.816 
z
" clip-path="url(#p8675d1e246)" style="fill: #7f7f7f; opacity: 0.5"/>
   </g>
   <g id="patch_105">
    <path d="M 273.615423 448.56 
L 275.128057 448.56 
L 275.128057 422.688 
L 273.615423 422.688 
z
" clip-path="url(#p8675d1e246)" style="fill: #7f7f7f; opacity: 0.5"/>
   </g>
   <g id="patch_106">
    <path d="M 275.506216 448.56 
L 277.01885 448.56 
L 277.01885 448.56 
L 275.506216 448.56 
z
" clip-path="url(#p8675d1e246)" style="fill: #7f7f7f; opacity: 0.5"/>
   </g>
   <g id="patch_107">
    <path d="M 277.397008 448.56 
L 278.909643 448.56 
L 278.909643 422.688 
L 277.397008 422.688 
z
" clip-path="url(#p8675d1e246)" style="fill: #7f7f7f; opacity: 0.5"/>
   </g>
   <g id="patch_108">
    <path d="M 279.287801 448.56 
L 280.800436 448.56 
L 280.800436 448.56 
L 279.287801 448.56 
z
" clip-path="url(#p8675d1e246)" style="fill: #7f7f7f; opacity: 0.5"/>
   </g>
   <g id="patch_109">
    <path d="M 281.178594 448.56 
L 282.691229 448.56 
L 282.691229 422.688 
L 281.178594 422.688 
z
" clip-path="url(#p8675d1e246)" style="fill: #7f7f7f; opacity: 0.5"/>
   </g>
   <g id="patch_110">
    <path d="M 283.069387 448.56 
L 284.582021 448.56 
L 284.582021 448.56 
L 283.069387 448.56 
z
" clip-path="url(#p8675d1e246)" style="fill: #7f7f7f; opacity: 0.5"/>
   </g>
   <g id="patch_111">
    <path d="M 284.96018 448.56 
L 286.472814 448.56 
L 286.472814 448.56 
L 284.96018 448.56 
z
" clip-path="url(#p8675d1e246)" style="fill: #7f7f7f; opacity: 0.5"/>
   </g>
   <g id="patch_112">
    <path d="M 286.850973 448.56 
L 288.363607 448.56 
L 288.363607 448.56 
L 286.850973 448.56 
z
" clip-path="url(#p8675d1e246)" style="fill: #7f7f7f; opacity: 0.5"/>
   </g>
   <g id="patch_113">
    <path d="M 288.741766 448.56 
L 290.2544 448.56 
L 290.2544 422.688 
L 288.741766 422.688 
z
" clip-path="url(#p8675d1e246)" style="fill: #7f7f7f; opacity: 0.5"/>
   </g>
   <g id="patch_114">
    <path d="M 290.632559 448.56 
L 292.145193 448.56 
L 292.145193 422.688 
L 290.632559 422.688 
z
" clip-path="url(#p8675d1e246)" style="fill: #7f7f7f; opacity: 0.5"/>
   </g>
   <g id="patch_115">
    <path d="M 292.523352 448.56 
L 294.035986 448.56 
L 294.035986 448.56 
L 292.523352 448.56 
z
" clip-path="url(#p8675d1e246)" style="fill: #7f7f7f; opacity: 0.5"/>
   </g>
   <g id="patch_116">
    <path d="M 294.414145 448.56 
L 295.926779 448.56 
L 295.926779 448.56 
L 294.414145 448.56 
z
" clip-path="url(#p8675d1e246)" style="fill: #7f7f7f; opacity: 0.5"/>
   </g>
   <g id="patch_117">
    <path d="M 296.304938 448.56 
L 297.817572 448.56 
L 297.817572 448.56 
L 296.304938 448.56 
z
" clip-path="url(#p8675d1e246)" style="fill: #7f7f7f; opacity: 0.5"/>
   </g>
   <g id="patch_118">
    <path d="M 298.19573 448.56 
L 299.708365 448.56 
L 299.708365 422.688 
L 298.19573 422.688 
z
" clip-path="url(#p8675d1e246)" style="fill: #7f7f7f; opacity: 0.5"/>
   </g>
   <g id="patch_119">
    <path d="M 300.086523 448.56 
L 301.599158 448.56 
L 301.599158 448.56 
L 300.086523 448.56 
z
" clip-path="url(#p8675d1e246)" style="fill: #7f7f7f; opacity: 0.5"/>
   </g>
   <g id="patch_120">
    <path d="M 301.977316 448.56 
L 303.489951 448.56 
L 303.489951 448.56 
L 301.977316 448.56 
z
" clip-path="url(#p8675d1e246)" style="fill: #7f7f7f; opacity: 0.5"/>
   </g>
   <g id="patch_121">
    <path d="M 303.868109 448.56 
L 305.380744 448.56 
L 305.380744 448.56 
L 303.868109 448.56 
z
" clip-path="url(#p8675d1e246)" style="fill: #7f7f7f; opacity: 0.5"/>
   </g>
   <g id="patch_122">
    <path d="M 305.758902 448.56 
L 307.271536 448.56 
L 307.271536 448.56 
L 305.758902 448.56 
z
" clip-path="url(#p8675d1e246)" style="fill: #7f7f7f; opacity: 0.5"/>
   </g>
   <g id="patch_123">
    <path d="M 307.649695 448.56 
L 309.162329 448.56 
L 309.162329 448.56 
L 307.649695 448.56 
z
" clip-path="url(#p8675d1e246)" style="fill: #7f7f7f; opacity: 0.5"/>
   </g>
   <g id="patch_124">
    <path d="M 309.540488 448.56 
L 311.053122 448.56 
L 311.053122 448.56 
L 309.540488 448.56 
z
" clip-path="url(#p8675d1e246)" style="fill: #7f7f7f; opacity: 0.5"/>
   </g>
   <g id="patch_125">
    <path d="M 311.431281 448.56 
L 312.943915 448.56 
L 312.943915 448.56 
L 311.431281 448.56 
z
" clip-path="url(#p8675d1e246)" style="fill: #7f7f7f; opacity: 0.5"/>
   </g>
   <g id="patch_126">
    <path d="M 313.322074 448.56 
L 314.834708 448.56 
L 314.834708 448.56 
L 313.322074 448.56 
z
" clip-path="url(#p8675d1e246)" style="fill: #7f7f7f; opacity: 0.5"/>
   </g>
   <g id="patch_127">
    <path d="M 315.212867 448.56 
L 316.725501 448.56 
L 316.725501 448.56 
L 315.212867 448.56 
z
" clip-path="url(#p8675d1e246)" style="fill: #7f7f7f; opacity: 0.5"/>
   </g>
   <g id="patch_128">
    <path d="M 317.10366 448.56 
L 318.616294 448.56 
L 318.616294 422.688 
L 317.10366 422.688 
z
" clip-path="url(#p8675d1e246)" style="fill: #7f7f7f; opacity: 0.5"/>
   </g>
   <g id="patch_129">
    <path d="M 318.994453 448.56 
L 320.507087 448.56 
L 320.507087 448.56 
L 318.994453 448.56 
z
" clip-path="url(#p8675d1e246)" style="fill: #7f7f7f; opacity: 0.5"/>
   </g>
   <g id="patch_130">
    <path d="M 320.885245 448.56 
L 322.39788 448.56 
L 322.39788 448.56 
L 320.885245 448.56 
z
" clip-path="url(#p8675d1e246)" style="fill: #7f7f7f; opacity: 0.5"/>
   </g>
   <g id="patch_131">
    <path d="M 322.776038 448.56 
L 324.288673 448.56 
L 324.288673 448.56 
L 322.776038 448.56 
z
" clip-path="url(#p8675d1e246)" style="fill: #7f7f7f; opacity: 0.5"/>
   </g>
   <g id="patch_132">
    <path d="M 324.666831 448.56 
L 326.179466 448.56 
L 326.179466 448.56 
L 324.666831 448.56 
z
" clip-path="url(#p8675d1e246)" style="fill: #7f7f7f; opacity: 0.5"/>
   </g>
   <g id="patch_133">
    <path d="M 326.557624 448.56 
L 328.070258 448.56 
L 328.070258 448.56 
L 326.557624 448.56 
z
" clip-path="url(#p8675d1e246)" style="fill: #7f7f7f; opacity: 0.5"/>
   </g>
   <g id="patch_134">
    <path d="M 328.448417 448.56 
L 329.961051 448.56 
L 329.961051 448.56 
L 328.448417 448.56 
z
" clip-path="url(#p8675d1e246)" style="fill: #7f7f7f; opacity: 0.5"/>
   </g>
   <g id="patch_135">
    <path d="M 330.33921 448.56 
L 331.851844 448.56 
L 331.851844 422.688 
L 330.33921 422.688 
z
" clip-path="url(#p8675d1e246)" style="fill: #7f7f7f; opacity: 0.5"/>
   </g>
   <g id="patch_136">
    <path d="M 332.230003 448.56 
L 333.742637 448.56 
L 333.742637 448.56 
L 332.230003 448.56 
z
" clip-path="url(#p8675d1e246)" style="fill: #7f7f7f; opacity: 0.5"/>
   </g>
   <g id="patch_137">
    <path d="M 334.120796 448.56 
L 335.63343 448.56 
L 335.63343 448.56 
L 334.120796 448.56 
z
" clip-path="url(#p8675d1e246)" style="fill: #7f7f7f; opacity: 0.5"/>
   </g>
   <g id="patch_138">
    <path d="M 336.011589 448.56 
L 337.524223 448.56 
L 337.524223 448.56 
L 336.011589 448.56 
z
" clip-path="url(#p8675d1e246)" style="fill: #7f7f7f; opacity: 0.5"/>
   </g>
   <g id="patch_139">
    <path d="M 337.902382 448.56 
L 339.415016 448.56 
L 339.415016 448.56 
L 337.902382 448.56 
z
" clip-path="url(#p8675d1e246)" style="fill: #7f7f7f; opacity: 0.5"/>
   </g>
   <g id="patch_140">
    <path d="M 339.793175 448.56 
L 341.305809 448.56 
L 341.305809 448.56 
L 339.793175 448.56 
z
" clip-path="url(#p8675d1e246)" style="fill: #7f7f7f; opacity: 0.5"/>
   </g>
   <g id="patch_141">
    <path d="M 341.683967 448.56 
L 343.196602 448.56 
L 343.196602 448.56 
L 341.683967 448.56 
z
" clip-path="url(#p8675d1e246)" style="fill: #7f7f7f; opacity: 0.5"/>
   </g>
   <g id="patch_142">
    <path d="M 343.57476 448.56 
L 345.087395 448.56 
L 345.087395 448.56 
L 343.57476 448.56 
z
" clip-path="url(#p8675d1e246)" style="fill: #7f7f7f; opacity: 0.5"/>
   </g>
   <g id="patch_143">
    <path d="M 345.465553 448.56 
L 346.978188 448.56 
L 346.978188 448.56 
L 345.465553 448.56 
z
" clip-path="url(#p8675d1e246)" style="fill: #7f7f7f; opacity: 0.5"/>
   </g>
   <g id="patch_144">
    <path d="M 347.356346 448.56 
L 348.868981 448.56 
L 348.868981 448.56 
L 347.356346 448.56 
z
" clip-path="url(#p8675d1e246)" style="fill: #7f7f7f; opacity: 0.5"/>
   </g>
   <g id="patch_145">
    <path d="M 349.247139 448.56 
L 350.759773 448.56 
L 350.759773 448.56 
L 349.247139 448.56 
z
" clip-path="url(#p8675d1e246)" style="fill: #7f7f7f; opacity: 0.5"/>
   </g>
   <g id="patch_146">
    <path d="M 351.137932 448.56 
L 352.650566 448.56 
L 352.650566 448.56 
L 351.137932 448.56 
z
" clip-path="url(#p8675d1e246)" style="fill: #7f7f7f; opacity: 0.5"/>
   </g>
   <g id="patch_147">
    <path d="M 353.028725 448.56 
L 354.541359 448.56 
L 354.541359 448.56 
L 353.028725 448.56 
z
" clip-path="url(#p8675d1e246)" style="fill: #7f7f7f; opacity: 0.5"/>
   </g>
   <g id="patch_148">
    <path d="M 354.919518 448.56 
L 356.432152 448.56 
L 356.432152 448.56 
L 354.919518 448.56 
z
" clip-path="url(#p8675d1e246)" style="fill: #7f7f7f; opacity: 0.5"/>
   </g>
   <g id="patch_149">
    <path d="M 356.810311 448.56 
L 358.322945 448.56 
L 358.322945 448.56 
L 356.810311 448.56 
z
" clip-path="url(#p8675d1e246)" style="fill: #7f7f7f; opacity: 0.5"/>
   </g>
   <g id="patch_150">
    <path d="M 358.701104 448.56 
L 360.213738 448.56 
L 360.213738 448.56 
L 358.701104 448.56 
z
" clip-path="url(#p8675d1e246)" style="fill: #7f7f7f; opacity: 0.5"/>
   </g>
   <g id="patch_151">
    <path d="M 360.591897 448.56 
L 362.104531 448.56 
L 362.104531 448.56 
L 360.591897 448.56 
z
" clip-path="url(#p8675d1e246)" style="fill: #7f7f7f; opacity: 0.5"/>
   </g>
   <g id="patch_152">
    <path d="M 362.48269 448.56 
L 363.995324 448.56 
L 363.995324 448.56 
L 362.48269 448.56 
z
" clip-path="url(#p8675d1e246)" style="fill: #7f7f7f; opacity: 0.5"/>
   </g>
   <g id="patch_153">
    <path d="M 364.373482 448.56 
L 365.886117 448.56 
L 365.886117 448.56 
L 364.373482 448.56 
z
" clip-path="url(#p8675d1e246)" style="fill: #7f7f7f; opacity: 0.5"/>
   </g>
   <g id="patch_154">
    <path d="M 366.264275 448.56 
L 367.77691 448.56 
L 367.77691 448.56 
L 366.264275 448.56 
z
" clip-path="url(#p8675d1e246)" style="fill: #7f7f7f; opacity: 0.5"/>
   </g>
   <g id="patch_155">
    <path d="M 368.155068 448.56 
L 369.667703 448.56 
L 369.667703 448.56 
L 368.155068 448.56 
z
" clip-path="url(#p8675d1e246)" style="fill: #7f7f7f; opacity: 0.5"/>
   </g>
   <g id="patch_156">
    <path d="M 370.045861 448.56 
L 371.558495 448.56 
L 371.558495 448.56 
L 370.045861 448.56 
z
" clip-path="url(#p8675d1e246)" style="fill: #7f7f7f; opacity: 0.5"/>
   </g>
   <g id="patch_157">
    <path d="M 371.936654 448.56 
L 373.449288 448.56 
L 373.449288 448.56 
L 371.936654 448.56 
z
" clip-path="url(#p8675d1e246)" style="fill: #7f7f7f; opacity: 0.5"/>
   </g>
   <g id="patch_158">
    <path d="M 373.827447 448.56 
L 375.340081 448.56 
L 375.340081 448.56 
L 373.827447 448.56 
z
" clip-path="url(#p8675d1e246)" style="fill: #7f7f7f; opacity: 0.5"/>
   </g>
   <g id="patch_159">
    <path d="M 375.71824 448.56 
L 377.230874 448.56 
L 377.230874 448.56 
L 375.71824 448.56 
z
" clip-path="url(#p8675d1e246)" style="fill: #7f7f7f; opacity: 0.5"/>
   </g>
   <g id="patch_160">
    <path d="M 377.609033 448.56 
L 379.121667 448.56 
L 379.121667 448.56 
L 377.609033 448.56 
z
" clip-path="url(#p8675d1e246)" style="fill: #7f7f7f; opacity: 0.5"/>
   </g>
   <g id="patch_161">
    <path d="M 379.499826 448.56 
L 381.01246 448.56 
L 381.01246 448.56 
L 379.499826 448.56 
z
" clip-path="url(#p8675d1e246)" style="fill: #7f7f7f; opacity: 0.5"/>
   </g>
   <g id="patch_162">
    <path d="M 381.390619 448.56 
L 382.903253 448.56 
L 382.903253 448.56 
L 381.390619 448.56 
z
" clip-path="url(#p8675d1e246)" style="fill: #7f7f7f; opacity: 0.5"/>
   </g>
   <g id="patch_163">
    <path d="M 383.281412 448.56 
L 384.794046 448.56 
L 384.794046 448.56 
L 383.281412 448.56 
z
" clip-path="url(#p8675d1e246)" style="fill: #7f7f7f; opacity: 0.5"/>
   </g>
   <g id="patch_164">
    <path d="M 385.172204 448.56 
L 386.684839 448.56 
L 386.684839 448.56 
L 385.172204 448.56 
z
" clip-path="url(#p8675d1e246)" style="fill: #7f7f7f; opacity: 0.5"/>
   </g>
   <g id="patch_165">
    <path d="M 387.062997 448.56 
L 388.575632 448.56 
L 388.575632 448.56 
L 387.062997 448.56 
z
" clip-path="url(#p8675d1e246)" style="fill: #7f7f7f; opacity: 0.5"/>
   </g>
   <g id="patch_166">
    <path d="M 388.95379 448.56 
L 390.466425 448.56 
L 390.466425 448.56 
L 388.95379 448.56 
z
" clip-path="url(#p8675d1e246)" style="fill: #7f7f7f; opacity: 0.5"/>
   </g>
   <g id="patch_167">
    <path d="M 390.844583 448.56 
L 392.357218 448.56 
L 392.357218 448.56 
L 390.844583 448.56 
z
" clip-path="url(#p8675d1e246)" style="fill: #7f7f7f; opacity: 0.5"/>
   </g>
   <g id="patch_168">
    <path d="M 392.735376 448.56 
L 394.24801 448.56 
L 394.24801 448.56 
L 392.735376 448.56 
z
" clip-path="url(#p8675d1e246)" style="fill: #7f7f7f; opacity: 0.5"/>
   </g>
   <g id="patch_169">
    <path d="M 394.626169 448.56 
L 396.138803 448.56 
L 396.138803 448.56 
L 394.626169 448.56 
z
" clip-path="url(#p8675d1e246)" style="fill: #7f7f7f; opacity: 0.5"/>
   </g>
   <g id="patch_170">
    <path d="M 396.516962 448.56 
L 398.029596 448.56 
L 398.029596 448.56 
L 396.516962 448.56 
z
" clip-path="url(#p8675d1e246)" style="fill: #7f7f7f; opacity: 0.5"/>
   </g>
   <g id="patch_171">
    <path d="M 398.407755 448.56 
L 399.920389 448.56 
L 399.920389 448.56 
L 398.407755 448.56 
z
" clip-path="url(#p8675d1e246)" style="fill: #7f7f7f; opacity: 0.5"/>
   </g>
   <g id="patch_172">
    <path d="M 400.298548 448.56 
L 401.811182 448.56 
L 401.811182 448.56 
L 400.298548 448.56 
z
" clip-path="url(#p8675d1e246)" style="fill: #7f7f7f; opacity: 0.5"/>
   </g>
   <g id="patch_173">
    <path d="M 402.189341 448.56 
L 403.701975 448.56 
L 403.701975 448.56 
L 402.189341 448.56 
z
" clip-path="url(#p8675d1e246)" style="fill: #7f7f7f; opacity: 0.5"/>
   </g>
   <g id="patch_174">
    <path d="M 404.080134 448.56 
L 405.592768 448.56 
L 405.592768 448.56 
L 404.080134 448.56 
z
" clip-path="url(#p8675d1e246)" style="fill: #7f7f7f; opacity: 0.5"/>
   </g>
   <g id="patch_175">
    <path d="M 405.970927 448.56 
L 407.483561 448.56 
L 407.483561 448.56 
L 405.970927 448.56 
z
" clip-path="url(#p8675d1e246)" style="fill: #7f7f7f; opacity: 0.5"/>
   </g>
   <g id="patch_176">
    <path d="M 407.861719 448.56 
L 409.374354 448.56 
L 409.374354 448.56 
L 407.861719 448.56 
z
" clip-path="url(#p8675d1e246)" style="fill: #7f7f7f; opacity: 0.5"/>
   </g>
   <g id="patch_177">
    <path d="M 409.752512 448.56 
L 411.265147 448.56 
L 411.265147 448.56 
L 409.752512 448.56 
z
" clip-path="url(#p8675d1e246)" style="fill: #7f7f7f; opacity: 0.5"/>
   </g>
   <g id="patch_178">
    <path d="M 411.643305 448.56 
L 413.15594 448.56 
L 413.15594 448.56 
L 411.643305 448.56 
z
" clip-path="url(#p8675d1e246)" style="fill: #7f7f7f; opacity: 0.5"/>
   </g>
   <g id="patch_179">
    <path d="M 413.534098 448.56 
L 415.046733 448.56 
L 415.046733 448.56 
L 413.534098 448.56 
z
" clip-path="url(#p8675d1e246)" style="fill: #7f7f7f; opacity: 0.5"/>
   </g>
   <g id="patch_180">
    <path d="M 415.424891 448.56 
L 416.937525 448.56 
L 416.937525 448.56 
L 415.424891 448.56 
z
" clip-path="url(#p8675d1e246)" style="fill: #7f7f7f; opacity: 0.5"/>
   </g>
   <g id="patch_181">
    <path d="M 417.315684 448.56 
L 418.828318 448.56 
L 418.828318 448.56 
L 417.315684 448.56 
z
" clip-path="url(#p8675d1e246)" style="fill: #7f7f7f; opacity: 0.5"/>
   </g>
   <g id="patch_182">
    <path d="M 419.206477 448.56 
L 420.719111 448.56 
L 420.719111 448.56 
L 419.206477 448.56 
z
" clip-path="url(#p8675d1e246)" style="fill: #7f7f7f; opacity: 0.5"/>
   </g>
   <g id="patch_183">
    <path d="M 421.09727 448.56 
L 422.609904 448.56 
L 422.609904 448.56 
L 421.09727 448.56 
z
" clip-path="url(#p8675d1e246)" style="fill: #7f7f7f; opacity: 0.5"/>
   </g>
   <g id="patch_184">
    <path d="M 422.988063 448.56 
L 424.500697 448.56 
L 424.500697 448.56 
L 422.988063 448.56 
z
" clip-path="url(#p8675d1e246)" style="fill: #7f7f7f; opacity: 0.5"/>
   </g>
   <g id="patch_185">
    <path d="M 424.878856 448.56 
L 426.39149 448.56 
L 426.39149 448.56 
L 424.878856 448.56 
z
" clip-path="url(#p8675d1e246)" style="fill: #7f7f7f; opacity: 0.5"/>
   </g>
   <g id="patch_186">
    <path d="M 426.769649 448.56 
L 428.282283 448.56 
L 428.282283 448.56 
L 426.769649 448.56 
z
" clip-path="url(#p8675d1e246)" style="fill: #7f7f7f; opacity: 0.5"/>
   </g>
   <g id="patch_187">
    <path d="M 428.660441 448.56 
L 430.173076 448.56 
L 430.173076 448.56 
L 428.660441 448.56 
z
" clip-path="url(#p8675d1e246)" style="fill: #7f7f7f; opacity: 0.5"/>
   </g>
   <g id="patch_188">
    <path d="M 430.551234 448.56 
L 432.063869 448.56 
L 432.063869 448.56 
L 430.551234 448.56 
z
" clip-path="url(#p8675d1e246)" style="fill: #7f7f7f; opacity: 0.5"/>
   </g>
   <g id="patch_189">
    <path d="M 432.442027 448.56 
L 433.954662 448.56 
L 433.954662 448.56 
L 432.442027 448.56 
z
" clip-path="url(#p8675d1e246)" style="fill: #7f7f7f; opacity: 0.5"/>
   </g>
   <g id="patch_190">
    <path d="M 434.33282 448.56 
L 435.845455 448.56 
L 435.845455 448.56 
L 434.33282 448.56 
z
" clip-path="url(#p8675d1e246)" style="fill: #7f7f7f; opacity: 0.5"/>
   </g>
   <g id="patch_191">
    <path d="M 453.6 448.56 
L 453.6 60.48 
" style="fill: none; stroke: #7f7f7f; stroke-width: 0.8; stroke-linejoin: miter; stroke-linecap: square"/>
   </g>
  </g>
  <g id="axes_2">
   <g id="FillBetweenPolyCollection_1">
    <defs>
     <path id="mc21824bdef" d="M 81.510863 -367.481564 
L 81.510863 -293.225497 
L 83.401656 -303.659932 
L 85.292448 -314.173022 
L 87.183241 -324.470839 
L 89.074034 -333.3903 
L 90.964827 -342.341722 
L 92.85562 -350.724616 
L 94.746413 -358.5547 
L 96.637206 -365.875564 
L 98.527999 -372.123261 
L 100.418792 -378.233505 
L 102.309585 -384.046063 
L 104.200378 -388.230474 
L 106.09117 -392.984893 
L 107.981963 -396.303697 
L 109.872756 -399.379694 
L 111.763549 -401.294563 
L 113.654342 -403.343898 
L 115.545135 -404.698766 
L 117.435928 -405.861782 
L 119.326721 -405.754846 
L 121.217514 -405.906711 
L 123.108307 -405.855316 
L 124.9991 -405.157052 
L 126.889893 -404.588071 
L 128.780685 -403.254093 
L 130.671478 -402.728509 
L 132.562271 -401.363477 
L 134.453064 -399.443997 
L 136.343857 -398.072988 
L 138.23465 -396.405597 
L 140.125443 -394.810384 
L 142.016236 -393.241678 
L 143.907029 -392.253823 
L 145.797822 -390.676595 
L 147.688615 -389.699379 
L 149.579407 -388.506005 
L 151.4702 -387.86905 
L 153.360993 -387.066517 
L 155.251786 -385.889754 
L 157.142579 -385.165688 
L 159.033372 -384.42473 
L 160.924165 -384.440267 
L 162.814958 -384.422413 
L 164.705751 -384.474496 
L 166.596544 -384.623105 
L 168.487337 -385.091423 
L 170.37813 -386.125433 
L 172.268922 -386.755166 
L 174.159715 -387.679769 
L 176.050508 -389.55965 
L 177.941301 -391.038593 
L 179.832094 -392.548423 
L 181.722887 -393.42737 
L 183.61368 -395.556942 
L 185.504473 -397.871688 
L 187.395266 -399.414374 
L 189.286059 -401.499451 
L 191.176852 -403.379058 
L 193.067644 -404.142622 
L 194.958437 -405.47844 
L 196.84923 -406.936446 
L 198.740023 -408.045196 
L 200.630816 -408.796987 
L 202.521609 -409.37154 
L 204.412402 -409.353413 
L 206.303195 -409.550754 
L 208.193988 -409.66158 
L 210.084781 -409.417888 
L 211.975574 -408.240511 
L 213.866367 -406.918798 
L 215.757159 -404.310984 
L 217.647952 -400.89924 
L 219.538745 -396.683509 
L 221.429538 -392.063735 
L 223.320331 -386.681795 
L 225.211124 -380.352061 
L 227.101917 -373.784346 
L 228.99271 -365.72382 
L 230.883503 -357.029065 
L 232.774296 -348.29407 
L 234.665089 -339.409777 
L 236.555881 -329.409322 
L 238.446674 -319.031689 
L 240.337467 -307.866029 
L 242.22826 -296.524642 
L 244.119053 -284.611362 
L 246.009846 -272.549375 
L 247.900639 -260.226149 
L 249.791432 -247.348733 
L 251.682225 -234.859137 
L 253.573018 -222.504543 
L 255.463811 -210.351216 
L 257.354604 -198.56246 
L 259.245396 -186.682881 
L 261.136189 -175.553888 
L 263.026982 -165.531734 
L 264.917775 -155.20866 
L 266.808568 -144.499885 
L 268.699361 -135.430821 
L 270.590154 -127.501995 
L 272.480947 -119.464396 
L 274.37174 -112.276943 
L 276.262533 -105.779619 
L 278.153326 -99.318784 
L 280.044119 -93.772471 
L 281.934911 -88.897723 
L 283.825704 -84.171682 
L 285.716497 -81.004921 
L 287.60729 -77.696036 
L 289.498083 -75.794862 
L 291.388876 -73.560541 
L 293.279669 -70.68664 
L 295.170462 -68.647367 
L 297.061255 -67.673169 
L 298.952048 -66.544551 
L 300.842841 -64.815605 
L 302.733633 -63.056027 
L 304.624426 -62.213635 
L 306.515219 -61.237845 
L 308.406012 -60.688711 
L 310.296805 -60.771735 
L 312.187598 -61.200722 
L 314.078391 -62.093921 
L 315.969184 -62.525243 
L 317.859977 -63.60894 
L 319.75077 -63.100359 
L 321.641563 -62.671659 
L 323.532356 -61.944191 
L 325.423148 -61.818024 
L 327.313941 -61.547579 
L 329.204734 -61.956948 
L 331.095527 -62.44127 
L 332.98632 -60.150792 
L 334.877113 -58.055135 
L 336.767906 -56.567484 
L 338.658699 -55.513569 
L 340.549492 -55.441288 
L 342.440285 -55.440028 
L 344.331078 -55.440006 
L 346.22187 -55.440004 
L 348.112663 -55.440004 
L 350.003456 -55.440004 
L 351.894249 -55.440004 
L 353.785042 -55.440004 
L 355.675835 -55.440004 
L 357.566628 -55.440004 
L 359.457421 -55.440004 
L 361.348214 -55.440004 
L 363.239007 -55.440004 
L 365.1298 -55.440004 
L 367.020593 -55.440004 
L 368.911385 -55.440004 
L 370.802178 -55.440004 
L 372.692971 -55.440004 
L 374.583764 -55.440004 
L 376.474557 -55.440004 
L 378.36535 -55.440004 
L 380.256143 -55.440004 
L 382.146936 -55.440004 
L 384.037729 -55.440004 
L 385.928522 -55.440004 
L 387.819315 -55.440004 
L 389.710107 -55.440004 
L 391.6009 -55.440004 
L 393.491693 -55.440004 
L 395.382486 -55.440004 
L 397.273279 -55.440004 
L 399.164072 -55.440004 
L 401.054865 -55.440004 
L 402.945658 -55.440004 
L 404.836451 -55.440004 
L 406.727244 -55.440004 
L 408.618037 -55.440004 
L 410.50883 -55.440004 
L 412.399622 -55.440004 
L 414.290415 -55.440004 
L 416.181208 -55.440004 
L 418.072001 -55.440004 
L 419.962794 -55.440004 
L 421.853587 -55.440004 
L 423.74438 -55.440004 
L 425.635173 -55.440004 
L 427.525966 -55.440004 
L 429.416759 -55.440004 
L 431.307552 -55.440004 
L 433.198344 -55.440004 
L 435.089137 -55.440004 
L 435.089137 -99.084107 
L 435.089137 -99.084107 
L 433.198344 -99.249413 
L 431.307552 -99.237537 
L 429.416759 -99.592534 
L 427.525966 -99.242817 
L 425.635173 -99.281077 
L 423.74438 -99.476124 
L 421.853587 -99.683852 
L 419.962794 -99.775584 
L 418.072001 -100.116504 
L 416.181208 -100.222434 
L 414.290415 -100.593586 
L 412.399622 -100.47894 
L 410.50883 -100.586195 
L 408.618037 -101.252991 
L 406.727244 -101.520321 
L 404.836451 -102.022484 
L 402.945658 -101.287465 
L 401.054865 -102.149138 
L 399.164072 -101.968283 
L 397.273279 -102.330765 
L 395.382486 -102.255622 
L 393.491693 -102.446746 
L 391.6009 -102.898541 
L 389.710107 -103.282559 
L 387.819315 -103.469016 
L 385.928522 -102.870972 
L 384.037729 -103.846907 
L 382.146936 -103.942052 
L 380.256143 -103.507023 
L 378.36535 -103.674567 
L 376.474557 -103.992559 
L 374.583764 -104.519365 
L 372.692971 -104.792185 
L 370.802178 -105.158363 
L 368.911385 -104.983623 
L 367.020593 -105.418945 
L 365.1298 -105.658145 
L 363.239007 -106.196847 
L 361.348214 -106.651344 
L 359.457421 -106.573254 
L 357.566628 -106.748452 
L 355.675835 -106.95981 
L 353.785042 -107.29087 
L 351.894249 -107.598089 
L 350.003456 -108.108962 
L 348.112663 -107.740312 
L 346.22187 -107.510311 
L 344.331078 -108.011151 
L 342.440285 -108.331148 
L 340.549492 -108.91747 
L 338.658699 -109.247222 
L 336.767906 -109.204936 
L 334.877113 -109.355499 
L 332.98632 -109.94972 
L 331.095527 -110.449719 
L 329.204734 -110.940213 
L 327.313941 -111.219354 
L 325.423148 -111.541625 
L 323.532356 -111.113124 
L 321.641563 -111.069951 
L 319.75077 -111.224531 
L 317.859977 -111.586558 
L 315.969184 -111.710926 
L 314.078391 -112.189177 
L 312.187598 -112.168745 
L 310.296805 -112.623812 
L 308.406012 -112.575909 
L 306.515219 -113.088475 
L 304.624426 -113.398374 
L 302.733633 -114.729849 
L 300.842841 -116.094825 
L 298.952048 -118.114591 
L 297.061255 -119.547871 
L 295.170462 -121.663548 
L 293.279669 -123.884675 
L 291.388876 -127.020912 
L 289.498083 -130.11826 
L 287.60729 -133.685638 
L 285.716497 -137.461675 
L 283.825704 -142.11214 
L 281.934911 -147.057438 
L 280.044119 -152.283476 
L 278.153326 -158.671774 
L 276.262533 -165.670124 
L 274.37174 -173.522513 
L 272.480947 -181.86074 
L 270.590154 -189.553109 
L 268.699361 -198.824765 
L 266.808568 -208.767862 
L 264.917775 -219.527981 
L 263.026982 -230.72919 
L 261.136189 -241.803511 
L 259.245396 -253.654075 
L 257.354604 -265.025273 
L 255.463811 -277.760101 
L 253.573018 -290.131018 
L 251.682225 -302.793435 
L 249.791432 -315.537564 
L 247.900639 -328.709128 
L 246.009846 -341.51281 
L 244.119053 -353.881341 
L 242.22826 -366.173305 
L 240.337467 -377.868064 
L 238.446674 -389.321024 
L 236.555881 -399.264019 
L 234.665089 -408.689002 
L 232.774296 -418.210688 
L 230.883503 -427.796681 
L 228.99271 -435.302938 
L 227.101917 -439.677505 
L 225.211124 -439.677624 
L 223.320331 -439.677624 
L 221.429538 -439.677624 
L 219.538745 -439.677624 
L 217.647952 -439.677624 
L 215.757159 -439.677624 
L 213.866367 -439.677624 
L 211.975574 -439.677624 
L 210.084781 -439.677624 
L 208.193988 -439.677624 
L 206.303195 -439.677624 
L 204.412402 -439.677624 
L 202.521609 -439.677624 
L 200.630816 -439.677624 
L 198.740023 -439.677624 
L 196.84923 -439.677624 
L 194.958437 -439.677624 
L 193.067644 -439.677624 
L 191.176852 -439.677624 
L 189.286059 -439.677624 
L 187.395266 -439.677624 
L 185.504473 -439.677624 
L 183.61368 -439.677624 
L 181.722887 -439.677624 
L 179.832094 -439.677624 
L 177.941301 -439.677624 
L 176.050508 -439.677624 
L 174.159715 -439.677624 
L 172.268922 -439.677624 
L 170.37813 -439.677624 
L 168.487337 -439.677624 
L 166.596544 -439.677624 
L 164.705751 -439.677624 
L 162.814958 -439.677624 
L 160.924165 -439.677624 
L 159.033372 -439.677624 
L 157.142579 -439.677624 
L 155.251786 -439.677624 
L 153.360993 -439.677624 
L 151.4702 -439.677624 
L 149.579407 -439.677624 
L 147.688615 -439.677624 
L 145.797822 -439.677624 
L 143.907029 -439.677624 
L 142.016236 -439.677624 
L 140.125443 -439.677624 
L 138.23465 -439.677624 
L 136.343857 -439.677624 
L 134.453064 -439.677624 
L 132.562271 -439.677624 
L 130.671478 -439.677624 
L 128.780685 -439.677624 
L 126.889893 -439.677624 
L 124.9991 -439.677624 
L 123.108307 -439.677624 
L 121.217514 -439.677624 
L 119.326721 -439.677624 
L 117.435928 -439.677624 
L 115.545135 -439.677624 
L 113.654342 -439.677624 
L 111.763549 -439.677624 
L 109.872756 -439.677624 
L 107.981963 -439.677624 
L 106.09117 -439.677624 
L 104.200378 -439.677624 
L 102.309585 -439.677624 
L 100.418792 -439.677624 
L 98.527999 -439.677624 
L 96.637206 -439.668606 
L 94.746413 -433.963978 
L 92.85562 -425.918952 
L 90.964827 -417.44723 
L 89.074034 -408.33511 
L 87.183241 -399.166207 
L 85.292448 -389.328434 
L 83.401656 -378.439286 
L 81.510863 -367.481564 
z
" style="stroke: #1f77b4; stroke-opacity: 0.3"/>
    </defs>
    <g clip-path="url(#p8675d1e246)">
     <use xlink:href="#mc21824bdef" x="0" y="504" style="fill: #1f77b4; fill-opacity: 0.3; stroke: #1f77b4; stroke-opacity: 0.3"/>
    </g>
   </g>
   <g id="FillBetweenPolyCollection_2">
    <defs>
     <path id="m10b10c4a32" d="M 81.510863 -368.8638 
L 81.510863 -292.303485 
L 83.401656 -303.47104 
L 85.292448 -313.970125 
L 87.183241 -322.795713 
L 89.074034 -332.406842 
L 90.964827 -340.905684 
L 92.85562 -349.419443 
L 94.746413 -357.45856 
L 96.637206 -364.624094 
L 98.527999 -371.758322 
L 100.418792 -377.97149 
L 102.309585 -382.89213 
L 104.200378 -387.530701 
L 106.09117 -392.377649 
L 107.981963 -395.985468 
L 109.872756 -398.724707 
L 111.763549 -401.648577 
L 113.654342 -403.703484 
L 115.545135 -405.021233 
L 117.435928 -405.776152 
L 119.326721 -405.638125 
L 121.217514 -405.883735 
L 123.108307 -406.191742 
L 124.9991 -405.293415 
L 126.889893 -404.182244 
L 128.780685 -403.388522 
L 130.671478 -401.362484 
L 132.562271 -400.500859 
L 134.453064 -399.05427 
L 136.343857 -396.814664 
L 138.23465 -395.004637 
L 140.125443 -392.351344 
L 142.016236 -390.392232 
L 143.907029 -390.194616 
L 145.797822 -389.673679 
L 147.688615 -387.918742 
L 149.579407 -387.178749 
L 151.4702 -385.744758 
L 153.360993 -384.674685 
L 155.251786 -383.814987 
L 157.142579 -383.158856 
L 159.033372 -382.555085 
L 160.924165 -382.047525 
L 162.814958 -382.68099 
L 164.705751 -382.896356 
L 166.596544 -383.3807 
L 168.487337 -384.403393 
L 170.37813 -385.497402 
L 172.268922 -386.737223 
L 174.159715 -388.154516 
L 176.050508 -389.330341 
L 177.941301 -390.01825 
L 179.832094 -392.367997 
L 181.722887 -392.720481 
L 183.61368 -394.834829 
L 185.504473 -396.501875 
L 187.395266 -398.805046 
L 189.286059 -400.570194 
L 191.176852 -402.887694 
L 193.067644 -404.121396 
L 194.958437 -406.119685 
L 196.84923 -407.633319 
L 198.740023 -408.982878 
L 200.630816 -409.846935 
L 202.521609 -410.173755 
L 204.412402 -410.965746 
L 206.303195 -411.769774 
L 208.193988 -411.478968 
L 210.084781 -409.867226 
L 211.975574 -409.742108 
L 213.866367 -408.218758 
L 215.757159 -406.051541 
L 217.647952 -402.500199 
L 219.538745 -397.496898 
L 221.429538 -392.390858 
L 223.320331 -387.436439 
L 225.211124 -381.283989 
L 227.101917 -374.006957 
L 228.99271 -366.421915 
L 230.883503 -358.44136 
L 232.774296 -349.60867 
L 234.665089 -340.041124 
L 236.555881 -329.795898 
L 238.446674 -319.890684 
L 240.337467 -308.187217 
L 242.22826 -297.263982 
L 244.119053 -284.626069 
L 246.009846 -272.145194 
L 247.900639 -259.251897 
L 249.791432 -246.971992 
L 251.682225 -234.93244 
L 253.573018 -222.655674 
L 255.463811 -210.851924 
L 257.354604 -199.116443 
L 259.245396 -187.397704 
L 261.136189 -177.128997 
L 263.026982 -166.568783 
L 264.917775 -156.250074 
L 266.808568 -145.88064 
L 268.699361 -137.601708 
L 270.590154 -128.328514 
L 272.480947 -120.996598 
L 274.37174 -113.257349 
L 276.262533 -106.169713 
L 278.153326 -100.313137 
L 280.044119 -94.508824 
L 281.934911 -89.824293 
L 283.825704 -84.358112 
L 285.716497 -80.488895 
L 287.60729 -78.030065 
L 289.498083 -75.984191 
L 291.388876 -73.649849 
L 293.279669 -70.463636 
L 295.170462 -68.236926 
L 297.061255 -66.533923 
L 298.952048 -66.271442 
L 300.842841 -63.72331 
L 302.733633 -62.299451 
L 304.624426 -61.444306 
L 306.515219 -61.257534 
L 308.406012 -60.728601 
L 310.296805 -60.342607 
L 312.187598 -60.685067 
L 314.078391 -61.227408 
L 315.969184 -62.35088 
L 317.859977 -63.671911 
L 319.75077 -62.814671 
L 321.641563 -61.664821 
L 323.532356 -60.954462 
L 325.423148 -60.412324 
L 327.313941 -61.424534 
L 329.204734 -61.924149 
L 331.095527 -62.17298 
L 332.98632 -59.655065 
L 334.877113 -57.552364 
L 336.767906 -55.820158 
L 338.658699 -55.444837 
L 340.549492 -55.440125 
L 342.440285 -55.440014 
L 344.331078 -55.440004 
L 346.22187 -55.440004 
L 348.112663 -55.440004 
L 350.003456 -55.440004 
L 351.894249 -55.440004 
L 353.785042 -55.440004 
L 355.675835 -55.440004 
L 357.566628 -55.440004 
L 359.457421 -55.440004 
L 361.348214 -55.440004 
L 363.239007 -55.440004 
L 365.1298 -55.440004 
L 367.020593 -55.440004 
L 368.911385 -55.440004 
L 370.802178 -55.440004 
L 372.692971 -55.440004 
L 374.583764 -55.440004 
L 376.474557 -55.440004 
L 378.36535 -55.440004 
L 380.256143 -55.440004 
L 382.146936 -55.440004 
L 384.037729 -55.440004 
L 385.928522 -55.440004 
L 387.819315 -55.440004 
L 389.710107 -55.440004 
L 391.6009 -55.440004 
L 393.491693 -55.440004 
L 395.382486 -55.440004 
L 397.273279 -55.440004 
L 399.164072 -55.440004 
L 401.054865 -55.440004 
L 402.945658 -55.440004 
L 404.836451 -55.440004 
L 406.727244 -55.440004 
L 408.618037 -55.440004 
L 408.618037 -101.009418 
L 408.618037 -101.009418 
L 406.727244 -100.772323 
L 404.836451 -101.24818 
L 402.945658 -101.576063 
L 401.054865 -101.880183 
L 399.164072 -101.605506 
L 397.273279 -102.153596 
L 395.382486 -102.994683 
L 393.491693 -103.315009 
L 391.6009 -102.895103 
L 389.710107 -101.93714 
L 387.819315 -101.981339 
L 385.928522 -101.729529 
L 384.037729 -102.199591 
L 382.146936 -102.320132 
L 380.256143 -102.740566 
L 378.36535 -102.833772 
L 376.474557 -103.069644 
L 374.583764 -103.707066 
L 372.692971 -103.754609 
L 370.802178 -103.7761 
L 368.911385 -104.988926 
L 367.020593 -104.546977 
L 365.1298 -105.146203 
L 363.239007 -104.543915 
L 361.348214 -105.175529 
L 359.457421 -105.701114 
L 357.566628 -105.239282 
L 355.675835 -105.443307 
L 353.785042 -106.199505 
L 351.894249 -106.358954 
L 350.003456 -107.394917 
L 348.112663 -107.209043 
L 346.22187 -107.638964 
L 344.331078 -108.236979 
L 342.440285 -109.016742 
L 340.549492 -108.833261 
L 338.658699 -109.300223 
L 336.767906 -109.719941 
L 334.877113 -110.451732 
L 332.98632 -110.15891 
L 331.095527 -110.513649 
L 329.204734 -110.903427 
L 327.313941 -110.783256 
L 325.423148 -111.81109 
L 323.532356 -110.998307 
L 321.641563 -111.892879 
L 319.75077 -111.267542 
L 317.859977 -111.478789 
L 315.969184 -111.090912 
L 314.078391 -110.287839 
L 312.187598 -110.689778 
L 310.296805 -111.798908 
L 308.406012 -112.210039 
L 306.515219 -113.06069 
L 304.624426 -113.700428 
L 302.733633 -114.88518 
L 300.842841 -116.037721 
L 298.952048 -117.303522 
L 297.061255 -118.587907 
L 295.170462 -121.466462 
L 293.279669 -123.314356 
L 291.388876 -126.484155 
L 289.498083 -129.367671 
L 287.60729 -132.551845 
L 285.716497 -137.166763 
L 283.825704 -141.610642 
L 281.934911 -145.487159 
L 280.044119 -150.894103 
L 278.153326 -157.627657 
L 276.262533 -164.350427 
L 274.37174 -171.645179 
L 272.480947 -179.507783 
L 270.590154 -189.153725 
L 268.699361 -198.129696 
L 266.808568 -208.212939 
L 264.917775 -218.59471 
L 263.026982 -229.606475 
L 261.136189 -240.80404 
L 259.245396 -252.732223 
L 257.354604 -264.699084 
L 255.463811 -276.800107 
L 253.573018 -289.459484 
L 251.682225 -302.753609 
L 249.791432 -316.061937 
L 247.900639 -329.755245 
L 246.009846 -342.805176 
L 244.119053 -355.059883 
L 242.22826 -366.486785 
L 240.337467 -378.770143 
L 238.446674 -389.025669 
L 236.555881 -399.841683 
L 234.665089 -409.746135 
L 232.774296 -417.997567 
L 230.883503 -427.045034 
L 228.99271 -435.58072 
L 227.101917 -439.677472 
L 225.211124 -439.677624 
L 223.320331 -439.677624 
L 221.429538 -439.677624 
L 219.538745 -439.677624 
L 217.647952 -439.677624 
L 215.757159 -439.677624 
L 213.866367 -439.677624 
L 211.975574 -439.677624 
L 210.084781 -439.677624 
L 208.193988 -439.677624 
L 206.303195 -439.677624 
L 204.412402 -439.677624 
L 202.521609 -439.677624 
L 200.630816 -439.677624 
L 198.740023 -439.677624 
L 196.84923 -439.677624 
L 194.958437 -439.677624 
L 193.067644 -439.677624 
L 191.176852 -439.677624 
L 189.286059 -439.677624 
L 187.395266 -439.677624 
L 185.504473 -439.677624 
L 183.61368 -439.677624 
L 181.722887 -439.677624 
L 179.832094 -439.677624 
L 177.941301 -439.677624 
L 176.050508 -439.677624 
L 174.159715 -439.677624 
L 172.268922 -439.677624 
L 170.37813 -439.677624 
L 168.487337 -439.677624 
L 166.596544 -439.677624 
L 164.705751 -439.677624 
L 162.814958 -439.677624 
L 160.924165 -439.677624 
L 159.033372 -439.677624 
L 157.142579 -439.677624 
L 155.251786 -439.677624 
L 153.360993 -439.677624 
L 151.4702 -439.677624 
L 149.579407 -439.677624 
L 147.688615 -439.677624 
L 145.797822 -439.677624 
L 143.907029 -439.677624 
L 142.016236 -439.677624 
L 140.125443 -439.677624 
L 138.23465 -439.677624 
L 136.343857 -439.677624 
L 134.453064 -439.677624 
L 132.562271 -439.677624 
L 130.671478 -439.677624 
L 128.780685 -439.677624 
L 126.889893 -439.677624 
L 124.9991 -439.677624 
L 123.108307 -439.677624 
L 121.217514 -439.677624 
L 119.326721 -439.677624 
L 117.435928 -439.677624 
L 115.545135 -439.677624 
L 113.654342 -439.677624 
L 111.763549 -439.677624 
L 109.872756 -439.677624 
L 107.981963 -439.677624 
L 106.09117 -439.677624 
L 104.200378 -439.677624 
L 102.309585 -439.677624 
L 100.418792 -439.677624 
L 98.527999 -439.677624 
L 96.637206 -439.675978 
L 94.746413 -434.816378 
L 92.85562 -426.856811 
L 90.964827 -418.102103 
L 89.074034 -409.789466 
L 87.183241 -400.030723 
L 85.292448 -390.222185 
L 83.401656 -380.880914 
L 81.510863 -368.8638 
z
" style="stroke: #d62728; stroke-opacity: 0.15"/>
    </defs>
    <g clip-path="url(#p8675d1e246)">
     <use xlink:href="#m10b10c4a32" x="0" y="504" style="fill: #d62728; fill-opacity: 0.15; stroke: #d62728; stroke-opacity: 0.15"/>
    </g>
   </g>
   <g id="matplotlib.axis_2">
    <g id="xtick_1">
     <g id="line2d_9">
      <defs>
       <path id="ma9909d985c" d="M 0 0 
L 0 3.5 
" style="stroke: #000000; stroke-width: 0.8"/>
      </defs>
      <g>
       <use xlink:href="#ma9909d985c" x="90.964827" y="448.56" style="stroke: #000000; stroke-width: 0.8"/>
      </g>
     </g>
     <g id="text_10">
      <text style="font-size: 16px; font-family: 'Arial', sans-serif; text-anchor: middle" x="90.964827" y="467.208438" transform="rotate(-0 90.964827 467.208438)">1 Jul</text>
     </g>
    </g>
    <g id="xtick_2">
     <g id="line2d_10">
      <g>
       <use xlink:href="#ma9909d985c" x="149.579407" y="448.56" style="stroke: #000000; stroke-width: 0.8"/>
      </g>
     </g>
     <g id="text_11">
      <text style="font-size: 16px; font-family: 'Arial', sans-serif; text-anchor: middle" x="149.579407" y="467.208438" transform="rotate(-0 149.579407 467.208438)">1 Aug</text>
     </g>
    </g>
    <g id="xtick_3">
     <g id="line2d_11">
      <g>
       <use xlink:href="#ma9909d985c" x="208.193988" y="448.56" style="stroke: #000000; stroke-width: 0.8"/>
      </g>
     </g>
     <g id="text_12">
      <text style="font-size: 16px; font-family: 'Arial', sans-serif; text-anchor: middle" x="208.193988" y="467.208438" transform="rotate(-0 208.193988 467.208438)">1 Sep</text>
     </g>
    </g>
    <g id="xtick_4">
     <g id="line2d_12">
      <g>
       <use xlink:href="#ma9909d985c" x="264.917775" y="448.56" style="stroke: #000000; stroke-width: 0.8"/>
      </g>
     </g>
     <g id="text_13">
      <text style="font-size: 16px; font-family: 'Arial', sans-serif; text-anchor: middle" x="264.917775" y="467.2175" transform="rotate(-0 264.917775 467.2175)">1 Oct</text>
     </g>
    </g>
    <g id="xtick_5">
     <g id="line2d_13">
      <g>
       <use xlink:href="#ma9909d985c" x="323.532356" y="448.56" style="stroke: #000000; stroke-width: 0.8"/>
      </g>
     </g>
     <g id="text_14">
      <text style="font-size: 16px; font-family: 'Arial', sans-serif; text-anchor: middle" x="323.532356" y="467.208438" transform="rotate(-0 323.532356 467.208438)">1 Nov</text>
     </g>
    </g>
    <g id="xtick_6">
     <g id="line2d_14">
      <g>
       <use xlink:href="#ma9909d985c" x="380.256143" y="448.56" style="stroke: #000000; stroke-width: 0.8"/>
      </g>
     </g>
     <g id="text_15">
      <text style="font-size: 16px; font-family: 'Arial', sans-serif; text-anchor: middle" x="380.256143" y="467.208438" transform="rotate(-0 380.256143 467.208438)">1 Dec</text>
     </g>
    </g>
    <g id="xtick_7">
     <g id="line2d_15">
      <g>
       <use xlink:href="#ma9909d985c" x="438.870723" y="448.56" style="stroke: #000000; stroke-width: 0.8"/>
      </g>
     </g>
     <g id="text_16">
      <text style="font-size: 16px; font-family: 'Arial', sans-serif; text-anchor: middle" x="438.870723" y="467.208438" transform="rotate(-0 438.870723 467.208438)">1 Jan</text>
     </g>
    </g>
    <g id="text_17">
     <text style="font-size: 16px; font-family: 'Arial', sans-serif; text-anchor: middle" x="258.3" y="486.233125" transform="rotate(-0 258.3 486.233125)">Date (2017)</text>
    </g>
   </g>
   <g id="matplotlib.axis_3">
    <g id="ytick_9">
     <g id="line2d_16">
      <defs>
       <path id="m6edd0e16e1" d="M 0 0 
L -3.5 0 
" style="stroke: #000000; stroke-width: 0.8"/>
      </defs>
      <g>
       <use xlink:href="#m6edd0e16e1" x="63" y="448.56" style="stroke: #000000; stroke-width: 0.8"/>
      </g>
     </g>
     <g id="text_18">
      <text style="font-size: 16px; font-family: 'Arial', sans-serif; text-anchor: end" x="56" y="454.384219" transform="rotate(-0 56 454.384219)">0.0</text>
     </g>
    </g>
    <g id="ytick_10">
     <g id="line2d_17">
      <g>
       <use xlink:href="#m6edd0e16e1" x="63" y="371.712475" style="stroke: #000000; stroke-width: 0.8"/>
      </g>
     </g>
     <g id="text_19">
      <text style="font-size: 16px; font-family: 'Arial', sans-serif; text-anchor: end" x="56" y="377.536694" transform="rotate(-0 56 377.536694)">0.2</text>
     </g>
    </g>
    <g id="ytick_11">
     <g id="line2d_18">
      <g>
       <use xlink:href="#m6edd0e16e1" x="63" y="294.86495" style="stroke: #000000; stroke-width: 0.8"/>
      </g>
     </g>
     <g id="text_20">
      <text style="font-size: 16px; font-family: 'Arial', sans-serif; text-anchor: end" x="56" y="300.689169" transform="rotate(-0 56 300.689169)">0.4</text>
     </g>
    </g>
    <g id="ytick_12">
     <g id="line2d_19">
      <g>
       <use xlink:href="#m6edd0e16e1" x="63" y="218.017426" style="stroke: #000000; stroke-width: 0.8"/>
      </g>
     </g>
     <g id="text_21">
      <text style="font-size: 16px; font-family: 'Arial', sans-serif; text-anchor: end" x="56" y="223.841644" transform="rotate(-0 56 223.841644)">0.6</text>
     </g>
    </g>
    <g id="ytick_13">
     <g id="line2d_20">
      <g>
       <use xlink:href="#m6edd0e16e1" x="63" y="141.169901" style="stroke: #000000; stroke-width: 0.8"/>
      </g>
     </g>
     <g id="text_22">
      <text style="font-size: 16px; font-family: 'Arial', sans-serif; text-anchor: end" x="56" y="146.99412" transform="rotate(-0 56 146.99412)">0.8</text>
     </g>
    </g>
    <g id="ytick_14">
     <g id="line2d_21">
      <g>
       <use xlink:href="#m6edd0e16e1" x="63" y="64.322376" style="stroke: #000000; stroke-width: 0.8"/>
      </g>
     </g>
     <g id="text_23">
      <text style="font-size: 16px; font-family: 'Arial', sans-serif; text-anchor: end" x="56" y="70.146595" transform="rotate(-0 56 70.146595)">1.0</text>
     </g>
    </g>
    <g id="text_24">
     <text style="font-size: 16px; font-family: 'Arial', sans-serif; text-anchor: middle" x="26.3925" y="254.52" transform="rotate(-90 26.3925 254.52)">Temperature suitability for transmission</text>
    </g>
   </g>
   <g id="line2d_22">
    <path d="M 81.510863 173.556645 
L 85.292448 152.202618 
L 87.183241 142.285576 
L 90.964827 124.308498 
L 92.85562 115.881297 
L 94.746413 108.044253 
L 96.637206 100.957949 
L 98.527999 94.710272 
L 100.418792 89.110627 
L 102.309585 84.425408 
L 104.200378 80.698167 
L 106.09117 77.640501 
L 107.981963 75.351433 
L 109.872756 73.566659 
L 111.763549 72.371604 
L 113.654342 71.500119 
L 115.545135 70.880278 
L 117.435928 70.409925 
L 123.108307 70.165774 
L 126.889893 70.667342 
L 130.671478 71.882936 
L 134.453064 73.409509 
L 136.343857 74.324591 
L 143.907029 78.549681 
L 147.688615 80.412688 
L 149.579407 81.379916 
L 153.360993 82.80321 
L 155.251786 83.526583 
L 157.142579 84.128906 
L 160.924165 84.732736 
L 162.814958 84.733672 
L 164.705751 84.602335 
L 166.596544 84.276148 
L 170.37813 83.011191 
L 172.268922 82.242235 
L 174.159715 81.352254 
L 181.722887 76.732749 
L 183.61368 75.762925 
L 189.286059 72.52249 
L 193.067644 71.047454 
L 196.84923 69.82336 
L 198.740023 69.286047 
L 202.521609 68.806226 
L 206.303195 68.6257 
L 208.193988 68.701468 
L 211.975574 69.438037 
L 213.866367 70.138979 
L 215.757159 71.263669 
L 217.647952 72.933676 
L 219.538745 75.518619 
L 221.429538 78.722847 
L 223.320331 83.116706 
L 225.211124 88.423043 
L 227.101917 94.952448 
L 228.99271 102.518757 
L 230.883503 110.996695 
L 236.555881 138.882237 
L 240.337467 160.465301 
L 244.119053 184.388734 
L 249.791432 221.9491 
L 255.463811 259.993859 
L 261.136189 295.202034 
L 264.917775 317.215004 
L 266.808568 327.524056 
L 268.699361 337.180303 
L 272.480947 354.16712 
L 274.37174 361.975346 
L 276.262533 369.301756 
L 278.153326 375.900444 
L 280.044119 381.963718 
L 281.934911 387.273765 
L 283.825704 392.102659 
L 285.716497 396.257617 
L 287.60729 399.801489 
L 291.388876 405.55445 
L 293.279669 408.257732 
L 295.170462 410.500407 
L 297.061255 412.368576 
L 298.952048 413.741591 
L 300.842841 415.289219 
L 302.733633 416.668073 
L 304.624426 417.657175 
L 306.515219 418.431206 
L 308.406012 418.956785 
L 310.296805 419.263374 
L 312.187598 419.355407 
L 315.969184 419.213088 
L 317.859977 418.960721 
L 323.532356 419.865269 
L 327.313941 420.198282 
L 331.095527 420.323092 
L 334.877113 422.09007 
L 342.440285 424.893952 
L 346.22187 426.109135 
L 351.894249 427.62678 
L 355.675835 428.493043 
L 361.348214 429.723792 
L 368.911385 431.043673 
L 374.583764 431.88125 
L 384.037729 433.274574 
L 387.819315 433.726333 
L 395.382486 434.617682 
L 406.727244 435.390774 
L 410.50883 435.766083 
L 429.416759 436.96324 
L 435.089137 437.294578 
L 435.089137 437.294578 
" clip-path="url(#p8675d1e246)" style="fill: none; stroke: #1f77b4; stroke-width: 2; stroke-linecap: square"/>
   </g>
   <g id="line2d_23">
    <path d="M 81.510863 173.892839 
L 83.401656 162.88658 
L 87.183241 142.610973 
L 90.964827 124.66577 
L 92.85562 116.245363 
L 94.746413 108.454888 
L 96.637206 101.413797 
L 98.527999 95.147709 
L 100.418792 89.617049 
L 102.309585 84.978684 
L 104.200378 81.137177 
L 106.09117 78.032976 
L 107.981963 75.541424 
L 109.872756 73.779166 
L 111.763549 72.430983 
L 113.654342 71.580298 
L 115.545135 70.929771 
L 117.435928 70.41677 
L 119.326721 70.249093 
L 121.217514 70.197335 
L 124.9991 70.417514 
L 126.889893 70.721572 
L 130.671478 71.839646 
L 136.343857 74.245115 
L 142.016236 77.755259 
L 149.579407 81.774169 
L 153.360993 83.39343 
L 155.251786 84.113314 
L 157.142579 84.62361 
L 159.033372 84.969208 
L 160.924165 85.174679 
L 162.814958 85.190908 
L 164.705751 85.026621 
L 166.596544 84.646724 
L 168.487337 84.032676 
L 172.268922 82.506462 
L 176.050508 80.568247 
L 181.722887 76.983162 
L 185.504473 74.861008 
L 187.395266 73.651884 
L 189.286059 72.613011 
L 191.176852 71.740321 
L 194.958437 70.418651 
L 198.740023 69.232505 
L 202.521609 68.670657 
L 206.303195 68.324442 
L 208.193988 68.360524 
L 211.975574 69.073763 
L 213.866367 69.798159 
L 215.757159 70.89661 
L 217.647952 72.61556 
L 219.538745 75.271884 
L 221.429538 78.550082 
L 223.320331 83.001724 
L 225.211124 88.303688 
L 227.101917 94.853339 
L 228.99271 102.431341 
L 230.883503 110.903804 
L 234.665089 129.124286 
L 236.555881 138.777765 
L 240.337467 160.305736 
L 242.22826 171.986495 
L 251.682225 234.877783 
L 255.463811 260.021323 
L 261.136189 295.204575 
L 264.917775 317.119612 
L 268.699361 336.90119 
L 272.480947 353.86003 
L 274.37174 361.764087 
L 276.262533 369.063575 
L 278.153326 375.61887 
L 280.044119 381.647315 
L 281.934911 387.047845 
L 283.825704 392.027802 
L 285.716497 396.338527 
L 287.60729 399.953846 
L 289.498083 402.97746 
L 293.279669 408.502398 
L 295.170462 410.776089 
L 297.061255 412.655394 
L 298.952048 414.007251 
L 300.842841 415.661575 
L 302.733633 416.932342 
L 304.624426 418.000821 
L 306.515219 418.785684 
L 308.406012 419.310235 
L 310.296805 419.64469 
L 312.187598 419.800909 
L 314.078391 419.814174 
L 317.859977 419.297797 
L 319.75077 419.750477 
L 321.641563 420.080542 
L 329.204734 420.519924 
L 331.095527 420.577344 
L 336.767906 423.022102 
L 340.549492 424.425771 
L 344.331078 425.772164 
L 346.22187 426.290479 
L 348.112663 426.941926 
L 359.457421 429.511879 
L 372.692971 431.840803 
L 393.491693 434.298983 
L 401.054865 435.013712 
L 408.618037 435.630016 
L 408.618037 435.630016 
" clip-path="url(#p8675d1e246)" style="fill: none; stroke-dasharray: 7.4,3.2; stroke-dashoffset: 0; stroke: #d62728; stroke-width: 2"/>
   </g>
   <g id="line2d_24">
    <path d="M 81.510863 178.128047 
L 85.292448 156.957833 
L 87.183241 146.874615 
L 90.964827 128.708912 
L 92.85562 120.134184 
L 94.746413 112.116209 
L 96.637206 104.844046 
L 98.527999 98.233736 
L 100.418792 92.054952 
L 102.309585 86.568188 
L 104.200378 81.763052 
L 106.09117 77.458681 
L 107.981963 73.821014 
L 109.872756 70.839101 
L 111.763549 68.51512 
L 113.654342 66.885523 
L 115.545135 65.66449 
L 117.435928 64.636645 
L 119.326721 64.419061 
L 121.217514 64.344955 
L 123.108307 64.641377 
L 124.9991 65.20864 
L 126.889893 65.977203 
L 130.671478 68.709289 
L 136.343857 73.312065 
L 142.016236 78.757817 
L 147.688615 82.94073 
L 149.579407 84.319466 
L 151.4702 85.518622 
L 155.251786 87.429957 
L 157.142579 88.150739 
L 159.033372 88.669461 
L 160.924165 88.985342 
L 162.814958 89.097711 
L 164.705751 89.006007 
L 166.596544 88.709781 
L 168.487337 88.208696 
L 170.37813 87.502529 
L 172.268922 86.612582 
L 174.159715 85.599163 
L 176.050508 84.399615 
L 183.61368 78.762676 
L 185.504473 77.041617 
L 189.286059 73.223522 
L 194.958437 68.496415 
L 196.84923 67.05172 
L 198.740023 65.828434 
L 200.630816 65.0267 
L 202.521609 64.510862 
L 204.412402 64.364242 
L 206.303195 64.492091 
L 208.193988 64.921346 
L 211.975574 67.465313 
L 213.866367 69.553755 
L 215.757159 72.39208 
L 217.647952 75.890108 
L 219.538745 80.22614 
L 221.429538 85.075853 
L 223.320331 90.701992 
L 225.211124 97.097462 
L 227.101917 104.079818 
L 228.99271 111.708319 
L 230.883503 120.215428 
L 234.665089 138.853355 
L 236.555881 148.937596 
L 240.337467 171.114639 
L 244.119053 195.418147 
L 249.791432 233.262769 
L 255.463811 272.344074 
L 261.136189 309.249448 
L 264.917775 332.298761 
L 268.699361 353.240184 
L 272.480947 371.772277 
L 274.37174 380.216374 
L 276.262533 388.087184 
L 278.153326 395.353197 
L 280.044119 402.019824 
L 281.934911 408.111639 
L 283.825704 413.572529 
L 285.716497 418.469276 
L 287.60729 422.824363 
L 289.498083 426.755661 
L 291.388876 430.17772 
L 293.279669 433.130832 
L 295.170462 435.740096 
L 297.061255 438.017693 
L 298.952048 439.935044 
L 300.842841 441.561864 
L 302.733633 442.957198 
L 304.624426 444.122461 
L 306.515219 445.080207 
L 308.406012 445.847326 
L 310.296805 446.482437 
L 314.078391 447.38425 
L 317.859977 447.928527 
L 321.641563 448.244779 
L 327.313941 448.466771 
L 336.767906 448.554457 
L 408.618037 448.56 
L 435.089137 448.56 
L 435.089137 448.56 
" clip-path="url(#p8675d1e246)" style="fill: none; stroke-dasharray: 2,3.3; stroke-dashoffset: 0; stroke: #000000; stroke-width: 2"/>
   </g>
   <g id="patch_192">
    <path d="M 63 448.56 
L 63 60.48 
" style="fill: none; stroke: #000000; stroke-width: 0.8; stroke-linejoin: miter; stroke-linecap: square"/>
   </g>
   <g id="patch_193">
    <path d="M 63 448.56 
L 453.6 448.56 
" style="fill: none; stroke: #000000; stroke-width: 0.8; stroke-linejoin: miter; stroke-linecap: square"/>
   </g>
   <g id="legend_1">
    <g id="patch_194">
     <path d="M 300.960625 132.096563 
L 443.8 132.096563 
Q 446.6 132.096563 446.6 129.296562 
L 446.6 70.28 
Q 446.6 67.48 443.8 67.48 
L 300.960625 67.48 
Q 298.160625 67.48 298.160625 70.28 
L 298.160625 129.296562 
Q 298.160625 132.096563 300.960625 132.096563 
z
" style="fill: #ffffff; opacity: 0.8; stroke: #cccccc; stroke-linejoin: miter"/>
    </g>
    <g id="line2d_25">
     <path d="M 303.760625 78.372383 
L 317.760625 78.372383 
L 331.760625 78.372383 
" style="fill: none; stroke: #1f77b4; stroke-width: 2; stroke-linecap: square"/>
    </g>
    <g id="text_25">
     <text style="font-size: 14px; font-family: 'Arial', sans-serif; text-anchor: start" x="342.960625" y="83.272383" transform="rotate(-0 342.960625 83.272383)">Under-reporting</text>
    </g>
    <g id="line2d_26">
     <path d="M 303.760625 98.511328 
L 317.760625 98.511328 
L 331.760625 98.511328 
" style="fill: none; stroke-dasharray: 7.4,3.2; stroke-dashoffset: 0; stroke: #d62728; stroke-width: 2"/>
    </g>
    <g id="text_26">
     <text style="font-size: 14px; font-family: 'Arial', sans-serif; text-anchor: start" x="342.960625" y="103.411328" transform="rotate(-0 342.960625 103.411328)">Full reporting</text>
    </g>
    <g id="line2d_27">
     <path d="M 303.760625 118.650273 
L 317.760625 118.650273 
L 331.760625 118.650273 
" style="fill: none; stroke-dasharray: 2,3.3; stroke-dashoffset: 0; stroke: #000000; stroke-width: 2"/>
    </g>
    <g id="text_27">
     <text style="font-size: 14px; font-family: 'Arial', sans-serif; text-anchor: start" x="342.960625" y="123.550273" transform="rotate(-0 342.960625 123.550273)">Seasonal prior</text>
    </g>
   </g>
  </g>
 </g>
 <defs>
  <clipPath id="p8675d1e246">
   <rect x="63" y="60.48" width="390.6" height="388.08"/>
  </clipPath>
 </defs>
</svg>
