<?xml version="1.0" encoding="utf-8" standalone="no"?>
<!DOCTYPE svg PUBLIC "-//W3C//DTD SVG 1.1//EN"
  "http://www.w3.org/Graphics/SVG/1.1/DTD/svg11.dtd">
<svg xmlns:xlink="http://www.w3.org/1999/xlink" width="504pt" height="504pt" viewBox="0 0 504 504" xmlns="http://www.w3.org/2000/svg" version="1.1">
 <metadata>
  <rdf:RDF xmlns:dc="http://purl.org/dc/elements/1.1/" xmlns:cc="http://creativecommons.org/ns#" xmlns:rdf="http://www.w3.org/1999/02/22-rdf-syntax-ns#">
   <cc:Work>
    <dc:type rdf:resource="http://purl.org/dc/dcmitype/StillImage"/>
    <dc:date>2026-07-23T18:06:55.155938</dc:date>
    <dc:format>image/svg+xml</dc:format>
    <dc:creator>
     <cc:Agent>
      <dc:title>Matplotlib v3.11.0, https://matplotlib.org/</dc:title>
     </cc:Agent>
    </dc:creator>
   </cc:Work>
  </rdf:RDF>
 </metadata>
 <defs>
  <style type="text/css">*{stroke-linejoin: round; stroke-linecap: butt}</style>
 </defs>
 <g id="figure_1">
  <g id="patch_1">
   <path d="M 0 504 
L 504 504 
L 504 0 
L 0 0 
L 0 504 
z
" style="fill: none"/>
  </g>
  <g id="axes_1">
   <g id="patch_2">
    <path d="M 63 448.56 
L 453.6 448.56 
L 453.6 60.48 
L 63 60.48 
L 63 448.56 
z
" style="fill: none"/>
   </g>
   <g id="matplotlib.axis_1">
    <g id="ytick_1">
     <g id="line2d_1">
      <defs>
       <path id="m6774995e10" d="M 0 0 
L 3.5 0 
" style="stroke: #7f7f7f; stroke-width: 0.8"/>
      </defs>
      <g>
       <use xlink:href="#m6774995e10" x="453.6" y="448.56" style="fill: #7f7f7f; stroke: #7f7f7f; stroke-width: 0.8"/>
      </g>
     </g>
     <g id="text_1">
      <text style="font-size: 16px; font-family: 'Arial', sans-serif; text-anchor: start; fill: #7f7f7f" x="460.6" y="454.384219" transform="rotate(-0 460.6 454.384219)">0</text>
     </g>
    </g>
    <g id="ytick_2">
     <g id="line2d_2">
      <g>
       <use xlink:href="#m6774995e10" x="453.6" y="396.816" style="fill: #7f7f7f; stroke: #7f7f7f; stroke-width: 0.8"/>
      </g>
     </g>
     <g id="text_2">
      <text style="font-size: 16px; font-family: 'Arial', sans-serif; text-anchor: start; fill: #7f7f7f" x="460.6" y="402.640219" transform="rotate(-0 460.6 402.640219)">2</text>
     </g>
    </g>
    <g id="ytick_3">
     <g id="line2d_3">
      <g>
       <use xlink:href="#m6774995e10" x="453.6" y="345.072" style="fill: #7f7f7f; stroke: #7f7f7f; stroke-width: 0.8"/>
      </g>
     </g>
     <g id="text_3">
      <text style="font-size: 16px; font-family: 'Arial', sans-serif; text-anchor: start; fill: #7f7f7f" x="460.6" y="350.896219" transform="rotate(-0 460.6 350.896219)">4</text>
     </g>
    </g>
    <g id="ytick_4">
     <g id="line2d_4">
      <g>
       <use xlink:href="#m6774995e10" x="453.6" y="293.328" style="fill: #7f7f7f; stroke: #7f7f7f; stroke-width: 0.8"/>
      </g>
     </g>
     <g id="text_4">
      <text style="font-size: 16px; font-family: 'Arial', sans-serif; text-anchor: start; fill: #7f7f7f" x="460.6" y="299.152219" transform="rotate(-0 460.6 299.152219)">6</text>
     </g>
    </g>
    <g id="ytick_5">
     <g id="line2d_5">
      <g>
       <use xlink:href="#m6774995e10" x="453.6" y="241.584" style="fill: #7f7f7f; stroke: #7f7f7f; stroke-width: 0.8"/>
      </g>
     </g>
     <g id="text_5">
      <text style="font-size: 16px; font-family: 'Arial', sans-serif; text-anchor: start; fill: #7f7f7f" x="460.6" y="247.408219" transform="rotate(-0 460.6 247.408219)">8</text>
     </g>
    </g>
    <g id="ytick_6">
     <g id="line2d_6">
      <g>
       <use xlink:href="#m6774995e10" x="453.6" y="189.84" style="fill: #7f7f7f; stroke: #7f7f7f; stroke-width: 0.8"/>
      </g>
     </g>
     <g id="text_6">
      <text style="font-size: 16px; font-family: 'Arial', sans-serif; text-anchor: start; fill: #7f7f7f" x="460.6" y="195.664219" transform="rotate(-0 460.6 195.664219)">10</text>
     </g>
    </g>
    <g id="ytick_7">
     <g id="line2d_7">
      <g>
       <use xlink:href="#m6774995e10" x="453.6" y="138.096" style="fill: #7f7f7f; stroke: #7f7f7f; stroke-width: 0.8"/>
      </g>
     </g>
     <g id="text_7">
      <text style="font-size: 16px; font-family: 'Arial', sans-serif; text-anchor: start; fill: #7f7f7f" x="460.6" y="143.920219" transform="rotate(-0 460.6 143.920219)">12</text>
     </g>
    </g>
    <g id="ytick_8">
     <g id="line2d_8">
      <g>
       <use xlink:href="#m6774995e10" x="453.6" y="86.352" style="fill: #7f7f7f; stroke: #7f7f7f; stroke-width: 0.8"/>
      </g>
     </g>
     <g id="text_8">
      <text style="font-size: 16px; font-family: 'Arial', sans-serif; text-anchor: start; fill: #7f7f7f" x="460.6" y="92.176219" transform="rotate(-0 460.6 92.176219)">14</text>
     </g>
    </g>
    <g id="text_9">
     <text style="font-size: 16px; font-family: 'Arial', sans-serif; text-anchor: middle; fill: #7f7f7f" x="494.043438" y="254.52" transform="rotate(-90 494.043438 254.52)">Number of cases</text>
    </g>
   </g>
   <g id="patch_3">
    <path d="M 62.168936 448.56 
L 63.831064 448.56 
L 63.831064 396.816 
L 62.168936 396.816 
z
" clip-path="url(#pff8db198f8)" style="fill: #7f7f7f; opacity: 0.5"/>
   </g>
   <g id="patch_4">
    <path d="M 64.246596 448.56 
L 65.908723 448.56 
L 65.908723 396.816 
L 64.246596 396.816 
z
" clip-path="url(#pff8db198f8)" style="fill: #7f7f7f; opacity: 0.5"/>
   </g>
   <g id="patch_5">
    <path d="M 66.324255 448.56 
L 67.986383 448.56 
L 67.986383 396.816 
L 66.324255 396.816 
z
" clip-path="url(#pff8db198f8)" style="fill: #7f7f7f; opacity: 0.5"/>
   </g>
   <g id="patch_6">
    <path d="M 68.401915 448.56 
L 70.064043 448.56 
L 70.064043 448.56 
L 68.401915 448.56 
z
" clip-path="url(#pff8db198f8)" style="fill: #7f7f7f; opacity: 0.5"/>
   </g>
   <g id="patch_7">
    <path d="M 70.479574 448.56 
L 72.141702 448.56 
L 72.141702 448.56 
L 70.479574 448.56 
z
" clip-path="url(#pff8db198f8)" style="fill: #7f7f7f; opacity: 0.5"/>
   </g>
   <g id="patch_8">
    <path d="M 72.557234 448.56 
L 74.219362 448.56 
L 74.219362 448.56 
L 72.557234 448.56 
z
" clip-path="url(#pff8db198f8)" style="fill: #7f7f7f; opacity: 0.5"/>
   </g>
   <g id="patch_9">
    <path d="M 74.634894 448.56 
L 76.297021 448.56 
L 76.297021 448.56 
L 74.634894 448.56 
z
" clip-path="url(#pff8db198f8)" style="fill: #7f7f7f; opacity: 0.5"/>
   </g>
   <g id="patch_10">
    <path d="M 76.712553 448.56 
L 78.374681 448.56 
L 78.374681 448.56 
L 76.712553 448.56 
z
" clip-path="url(#pff8db198f8)" style="fill: #7f7f7f; opacity: 0.5"/>
   </g>
   <g id="patch_11">
    <path d="M 78.790213 448.56 
L 80.45234 448.56 
L 80.45234 448.56 
L 78.790213 448.56 
z
" clip-path="url(#pff8db198f8)" style="fill: #7f7f7f; opacity: 0.5"/>
   </g>
   <g id="patch_12">
    <path d="M 80.867872 448.56 
L 82.53 448.56 
L 82.53 422.688 
L 80.867872 422.688 
z
" clip-path="url(#pff8db198f8)" style="fill: #7f7f7f; opacity: 0.5"/>
   </g>
   <g id="patch_13">
    <path d="M 82.945532 448.56 
L 84.60766 448.56 
L 84.60766 448.56 
L 82.945532 448.56 
z
" clip-path="url(#pff8db198f8)" style="fill: #7f7f7f; opacity: 0.5"/>
   </g>
   <g id="patch_14">
    <path d="M 85.023191 448.56 
L 86.685319 448.56 
L 86.685319 448.56 
L 85.023191 448.56 
z
" clip-path="url(#pff8db198f8)" style="fill: #7f7f7f; opacity: 0.5"/>
   </g>
   <g id="patch_15">
    <path d="M 87.100851 448.56 
L 88.762979 448.56 
L 88.762979 448.56 
L 87.100851 448.56 
z
" clip-path="url(#pff8db198f8)" style="fill: #7f7f7f; opacity: 0.5"/>
   </g>
   <g id="patch_16">
    <path d="M 89.178511 448.56 
L 90.840638 448.56 
L 90.840638 448.56 
L 89.178511 448.56 
z
" clip-path="url(#pff8db198f8)" style="fill: #7f7f7f; opacity: 0.5"/>
   </g>
   <g id="patch_17">
    <path d="M 91.25617 448.56 
L 92.918298 448.56 
L 92.918298 448.56 
L 91.25617 448.56 
z
" clip-path="url(#pff8db198f8)" style="fill: #7f7f7f; opacity: 0.5"/>
   </g>
   <g id="patch_18">
    <path d="M 93.33383 448.56 
L 94.995957 448.56 
L 94.995957 448.56 
L 93.33383 448.56 
z
" clip-path="url(#pff8db198f8)" style="fill: #7f7f7f; opacity: 0.5"/>
   </g>
   <g id="patch_19">
    <path d="M 95.411489 448.56 
L 97.073617 448.56 
L 97.073617 448.56 
L 95.411489 448.56 
z
" clip-path="url(#pff8db198f8)" style="fill: #7f7f7f; opacity: 0.5"/>
   </g>
   <g id="patch_20">
    <path d="M 97.489149 448.56 
L 99.151277 448.56 
L 99.151277 448.56 
L 97.489149 448.56 
z
" clip-path="url(#pff8db198f8)" style="fill: #7f7f7f; opacity: 0.5"/>
   </g>
   <g id="patch_21">
    <path d="M 99.566809 448.56 
L 101.228936 448.56 
L 101.228936 448.56 
L 99.566809 448.56 
z
" clip-path="url(#pff8db198f8)" style="fill: #7f7f7f; opacity: 0.5"/>
   </g>
   <g id="patch_22">
    <path d="M 101.644468 448.56 
L 103.306596 448.56 
L 103.306596 422.688 
L 101.644468 422.688 
z
" clip-path="url(#pff8db198f8)" style="fill: #7f7f7f; opacity: 0.5"/>
   </g>
   <g id="patch_23">
    <path d="M 103.722128 448.56 
L 105.384255 448.56 
L 105.384255 448.56 
L 103.722128 448.56 
z
" clip-path="url(#pff8db198f8)" style="fill: #7f7f7f; opacity: 0.5"/>
   </g>
   <g id="patch_24">
    <path d="M 105.799787 448.56 
L 107.461915 448.56 
L 107.461915 448.56 
L 105.799787 448.56 
z
" clip-path="url(#pff8db198f8)" style="fill: #7f7f7f; opacity: 0.5"/>
   </g>
   <g id="patch_25">
    <path d="M 107.877447 448.56 
L 109.539574 448.56 
L 109.539574 422.688 
L 107.877447 422.688 
z
" clip-path="url(#pff8db198f8)" style="fill: #7f7f7f; opacity: 0.5"/>
   </g>
   <g id="patch_26">
    <path d="M 109.955106 448.56 
L 111.617234 448.56 
L 111.617234 448.56 
L 109.955106 448.56 
z
" clip-path="url(#pff8db198f8)" style="fill: #7f7f7f; opacity: 0.5"/>
   </g>
   <g id="patch_27">
    <path d="M 112.032766 448.56 
L 113.694894 448.56 
L 113.694894 422.688 
L 112.032766 422.688 
z
" clip-path="url(#pff8db198f8)" style="fill: #7f7f7f; opacity: 0.5"/>
   </g>
   <g id="patch_28">
    <path d="M 114.110426 448.56 
L 115.772553 448.56 
L 115.772553 448.56 
L 114.110426 448.56 
z
" clip-path="url(#pff8db198f8)" style="fill: #7f7f7f; opacity: 0.5"/>
   </g>
   <g id="patch_29">
    <path d="M 116.188085 448.56 
L 117.850213 448.56 
L 117.850213 422.688 
L 116.188085 422.688 
z
" clip-path="url(#pff8db198f8)" style="fill: #7f7f7f; opacity: 0.5"/>
   </g>
   <g id="patch_30">
    <path d="M 118.265745 448.56 
L 119.927872 448.56 
L 119.927872 448.56 
L 118.265745 448.56 
z
" clip-path="url(#pff8db198f8)" style="fill: #7f7f7f; opacity: 0.5"/>
   </g>
   <g id="patch_31">
    <path d="M 120.343404 448.56 
L 122.005532 448.56 
L 122.005532 422.688 
L 120.343404 422.688 
z
" clip-path="url(#pff8db198f8)" style="fill: #7f7f7f; opacity: 0.5"/>
   </g>
   <g id="patch_32">
    <path d="M 122.421064 448.56 
L 124.083191 448.56 
L 124.083191 422.688 
L 122.421064 422.688 
z
" clip-path="url(#pff8db198f8)" style="fill: #7f7f7f; opacity: 0.5"/>
   </g>
   <g id="patch_33">
    <path d="M 124.498723 448.56 
L 126.160851 448.56 
L 126.160851 448.56 
L 124.498723 448.56 
z
" clip-path="url(#pff8db198f8)" style="fill: #7f7f7f; opacity: 0.5"/>
   </g>
   <g id="patch_34">
    <path d="M 126.576383 448.56 
L 128.238511 448.56 
L 128.238511 422.688 
L 126.576383 422.688 
z
" clip-path="url(#pff8db198f8)" style="fill: #7f7f7f; opacity: 0.5"/>
   </g>
   <g id="patch_35">
    <path d="M 128.654043 448.56 
L 130.31617 448.56 
L 130.31617 422.688 
L 128.654043 422.688 
z
" clip-path="url(#pff8db198f8)" style="fill: #7f7f7f; opacity: 0.5"/>
   </g>
   <g id="patch_36">
    <path d="M 130.731702 448.56 
L 132.39383 448.56 
L 132.39383 448.56 
L 130.731702 448.56 
z
" clip-path="url(#pff8db198f8)" style="fill: #7f7f7f; opacity: 0.5"/>
   </g>
   <g id="patch_37">
    <path d="M 132.809362 448.56 
L 134.471489 448.56 
L 134.471489 422.688 
L 132.809362 422.688 
z
" clip-path="url(#pff8db198f8)" style="fill: #7f7f7f; opacity: 0.5"/>
   </g>
   <g id="patch_38">
    <path d="M 134.887021 448.56 
L 136.549149 448.56 
L 136.549149 448.56 
L 134.887021 448.56 
z
" clip-path="url(#pff8db198f8)" style="fill: #7f7f7f; opacity: 0.5"/>
   </g>
   <g id="patch_39">
    <path d="M 136.964681 448.56 
L 138.626809 448.56 
L 138.626809 448.56 
L 136.964681 448.56 
z
" clip-path="url(#pff8db198f8)" style="fill: #7f7f7f; opacity: 0.5"/>
   </g>
   <g id="patch_40">
    <path d="M 139.04234 448.56 
L 140.704468 448.56 
L 140.704468 370.944 
L 139.04234 370.944 
z
" clip-path="url(#pff8db198f8)" style="fill: #7f7f7f; opacity: 0.5"/>
   </g>
   <g id="patch_41">
    <path d="M 141.12 448.56 
L 142.782128 448.56 
L 142.782128 396.816 
L 141.12 396.816 
z
" clip-path="url(#pff8db198f8)" style="fill: #7f7f7f; opacity: 0.5"/>
   </g>
   <g id="patch_42">
    <path d="M 143.19766 448.56 
L 144.859787 448.56 
L 144.859787 422.688 
L 143.19766 422.688 
z
" clip-path="url(#pff8db198f8)" style="fill: #7f7f7f; opacity: 0.5"/>
   </g>
   <g id="patch_43">
    <path d="M 145.275319 448.56 
L 146.937447 448.56 
L 146.937447 422.688 
L 145.275319 422.688 
z
" clip-path="url(#pff8db198f8)" style="fill: #7f7f7f; opacity: 0.5"/>
   </g>
   <g id="patch_44">
    <path d="M 147.352979 448.56 
L 149.015106 448.56 
L 149.015106 422.688 
L 147.352979 422.688 
z
" clip-path="url(#pff8db198f8)" style="fill: #7f7f7f; opacity: 0.5"/>
   </g>
   <g id="patch_45">
    <path d="M 149.430638 448.56 
L 151.092766 448.56 
L 151.092766 422.688 
L 149.430638 422.688 
z
" clip-path="url(#pff8db198f8)" style="fill: #7f7f7f; opacity: 0.5"/>
   </g>
   <g id="patch_46">
    <path d="M 151.508298 448.56 
L 153.170426 448.56 
L 153.170426 370.944 
L 151.508298 370.944 
z
" clip-path="url(#pff8db198f8)" style="fill: #7f7f7f; opacity: 0.5"/>
   </g>
   <g id="patch_47">
    <path d="M 153.585957 448.56 
L 155.248085 448.56 
L 155.248085 448.56 
L 153.585957 448.56 
z
" clip-path="url(#pff8db198f8)" style="fill: #7f7f7f; opacity: 0.5"/>
   </g>
   <g id="patch_48">
    <path d="M 155.663617 448.56 
L 157.325745 448.56 
L 157.325745 422.688 
L 155.663617 422.688 
z
" clip-path="url(#pff8db198f8)" style="fill: #7f7f7f; opacity: 0.5"/>
   </g>
   <g id="patch_49">
    <path d="M 157.741277 448.56 
L 159.403404 448.56 
L 159.403404 422.688 
L 157.741277 422.688 
z
" clip-path="url(#pff8db198f8)" style="fill: #7f7f7f; opacity: 0.5"/>
   </g>
   <g id="patch_50">
    <path d="M 159.818936 448.56 
L 161.481064 448.56 
L 161.481064 345.072 
L 159.818936 345.072 
z
" clip-path="url(#pff8db198f8)" style="fill: #7f7f7f; opacity: 0.5"/>
   </g>
   <g id="patch_51">
    <path d="M 161.896596 448.56 
L 163.558723 448.56 
L 163.558723 370.944 
L 161.896596 370.944 
z
" clip-path="url(#pff8db198f8)" style="fill: #7f7f7f; opacity: 0.5"/>
   </g>
   <g id="patch_52">
    <path d="M 163.974255 448.56 
L 165.636383 448.56 
L 165.636383 370.944 
L 163.974255 370.944 
z
" clip-path="url(#pff8db198f8)" style="fill: #7f7f7f; opacity: 0.5"/>
   </g>
   <g id="patch_53">
    <path d="M 166.051915 448.56 
L 167.714043 448.56 
L 167.714043 396.816 
L 166.051915 396.816 
z
" clip-path="url(#pff8db198f8)" style="fill: #7f7f7f; opacity: 0.5"/>
   </g>
   <g id="patch_54">
    <path d="M 168.129574 448.56 
L 169.791702 448.56 
L 169.791702 345.072 
L 168.129574 345.072 
z
" clip-path="url(#pff8db198f8)" style="fill: #7f7f7f; opacity: 0.5"/>
   </g>
   <g id="patch_55">
    <path d="M 170.207234 448.56 
L 171.869362 448.56 
L 171.869362 345.072 
L 170.207234 345.072 
z
" clip-path="url(#pff8db198f8)" style="fill: #7f7f7f; opacity: 0.5"/>
   </g>
   <g id="patch_56">
    <path d="M 172.284894 448.56 
L 173.947021 448.56 
L 173.947021 241.584 
L 172.284894 241.584 
z
" clip-path="url(#pff8db198f8)" style="fill: #7f7f7f; opacity: 0.5"/>
   </g>
   <g id="patch_57">
    <path d="M 174.362553 448.56 
L 176.024681 448.56 
L 176.024681 319.2 
L 174.362553 319.2 
z
" clip-path="url(#pff8db198f8)" style="fill: #7f7f7f; opacity: 0.5"/>
   </g>
   <g id="patch_58">
    <path d="M 176.440213 448.56 
L 178.10234 448.56 
L 178.10234 241.584 
L 176.440213 241.584 
z
" clip-path="url(#pff8db198f8)" style="fill: #7f7f7f; opacity: 0.5"/>
   </g>
   <g id="patch_59">
    <path d="M 178.517872 448.56 
L 180.18 448.56 
L 180.18 319.2 
L 178.517872 319.2 
z
" clip-path="url(#pff8db198f8)" style="fill: #7f7f7f; opacity: 0.5"/>
   </g>
   <g id="patch_60">
    <path d="M 180.595532 448.56 
L 182.25766 448.56 
L 182.25766 345.072 
L 180.595532 345.072 
z
" clip-path="url(#pff8db198f8)" style="fill: #7f7f7f; opacity: 0.5"/>
   </g>
   <g id="patch_61">
    <path d="M 182.673191 448.56 
L 184.335319 448.56 
L 184.335319 319.2 
L 182.673191 319.2 
z
" clip-path="url(#pff8db198f8)" style="fill: #7f7f7f; opacity: 0.5"/>
   </g>
   <g id="patch_62">
    <path d="M 184.750851 448.56 
L 186.412979 448.56 
L 186.412979 267.456 
L 184.750851 267.456 
z
" clip-path="url(#pff8db198f8)" style="fill: #7f7f7f; opacity: 0.5"/>
   </g>
   <g id="patch_63">
    <path d="M 186.828511 448.56 
L 188.490638 448.56 
L 188.490638 396.816 
L 186.828511 396.816 
z
" clip-path="url(#pff8db198f8)" style="fill: #7f7f7f; opacity: 0.5"/>
   </g>
   <g id="patch_64">
    <path d="M 188.90617 448.56 
L 190.568298 448.56 
L 190.568298 422.688 
L 188.90617 422.688 
z
" clip-path="url(#pff8db198f8)" style="fill: #7f7f7f; opacity: 0.5"/>
   </g>
   <g id="patch_65">
    <path d="M 190.98383 448.56 
L 192.645957 448.56 
L 192.645957 241.584 
L 190.98383 241.584 
z
" clip-path="url(#pff8db198f8)" style="fill: #7f7f7f; opacity: 0.5"/>
   </g>
   <g id="patch_66">
    <path d="M 193.061489 448.56 
L 194.723617 448.56 
L 194.723617 396.816 
L 193.061489 396.816 
z
" clip-path="url(#pff8db198f8)" style="fill: #7f7f7f; opacity: 0.5"/>
   </g>
   <g id="patch_67">
    <path d="M 195.139149 448.56 
L 196.801277 448.56 
L 196.801277 345.072 
L 195.139149 345.072 
z
" clip-path="url(#pff8db198f8)" style="fill: #7f7f7f; opacity: 0.5"/>
   </g>
   <g id="patch_68">
    <path d="M 197.216809 448.56 
L 198.878936 448.56 
L 198.878936 396.816 
L 197.216809 396.816 
z
" clip-path="url(#pff8db198f8)" style="fill: #7f7f7f; opacity: 0.5"/>
   </g>
   <g id="patch_69">
    <path d="M 199.294468 448.56 
L 200.956596 448.56 
L 200.956596 215.712 
L 199.294468 215.712 
z
" clip-path="url(#pff8db198f8)" style="fill: #7f7f7f; opacity: 0.5"/>
   </g>
   <g id="patch_70">
    <path d="M 201.372128 448.56 
L 203.034255 448.56 
L 203.034255 241.584 
L 201.372128 241.584 
z
" clip-path="url(#pff8db198f8)" style="fill: #7f7f7f; opacity: 0.5"/>
   </g>
   <g id="patch_71">
    <path d="M 203.449787 448.56 
L 205.111915 448.56 
L 205.111915 241.584 
L 203.449787 241.584 
z
" clip-path="url(#pff8db198f8)" style="fill: #7f7f7f; opacity: 0.5"/>
   </g>
   <g id="patch_72">
    <path d="M 205.527447 448.56 
L 207.189574 448.56 
L 207.189574 267.456 
L 205.527447 267.456 
z
" clip-path="url(#pff8db198f8)" style="fill: #7f7f7f; opacity: 0.5"/>
   </g>
   <g id="patch_73">
    <path d="M 207.605106 448.56 
L 209.267234 448.56 
L 209.267234 215.712 
L 207.605106 215.712 
z
" clip-path="url(#pff8db198f8)" style="fill: #7f7f7f; opacity: 0.5"/>
   </g>
   <g id="patch_74">
    <path d="M 209.682766 448.56 
L 211.344894 448.56 
L 211.344894 138.096 
L 209.682766 138.096 
z
" clip-path="url(#pff8db198f8)" style="fill: #7f7f7f; opacity: 0.5"/>
   </g>
   <g id="patch_75">
    <path d="M 211.760426 448.56 
L 213.422553 448.56 
L 213.422553 138.096 
L 211.760426 138.096 
z
" clip-path="url(#pff8db198f8)" style="fill: #7f7f7f; opacity: 0.5"/>
   </g>
   <g id="patch_76">
    <path d="M 213.838085 448.56 
L 215.500213 448.56 
L 215.500213 267.456 
L 213.838085 267.456 
z
" clip-path="url(#pff8db198f8)" style="fill: #7f7f7f; opacity: 0.5"/>
   </g>
   <g id="patch_77">
    <path d="M 215.915745 448.56 
L 217.577872 448.56 
L 217.577872 138.096 
L 215.915745 138.096 
z
" clip-path="url(#pff8db198f8)" style="fill: #7f7f7f; opacity: 0.5"/>
   </g>
   <g id="patch_78">
    <path d="M 217.993404 448.56 
L 219.655532 448.56 
L 219.655532 396.816 
L 217.993404 396.816 
z
" clip-path="url(#pff8db198f8)" style="fill: #7f7f7f; opacity: 0.5"/>
   </g>
   <g id="patch_79">
    <path d="M 220.071064 448.56 
L 221.733191 448.56 
L 221.733191 60.48 
L 220.071064 60.48 
z
" clip-path="url(#pff8db198f8)" style="fill: #7f7f7f; opacity: 0.5"/>
   </g>
   <g id="patch_80">
    <path d="M 222.148723 448.56 
L 223.810851 448.56 
L 223.810851 163.968 
L 222.148723 163.968 
z
" clip-path="url(#pff8db198f8)" style="fill: #7f7f7f; opacity: 0.5"/>
   </g>
   <g id="patch_81">
    <path d="M 224.226383 448.56 
L 225.888511 448.56 
L 225.888511 319.2 
L 224.226383 319.2 
z
" clip-path="url(#pff8db198f8)" style="fill: #7f7f7f; opacity: 0.5"/>
   </g>
   <g id="patch_82">
    <path d="M 226.304043 448.56 
L 227.96617 448.56 
L 227.96617 345.072 
L 226.304043 345.072 
z
" clip-path="url(#pff8db198f8)" style="fill: #7f7f7f; opacity: 0.5"/>
   </g>
   <g id="patch_83">
    <path d="M 228.381702 448.56 
L 230.04383 448.56 
L 230.04383 396.816 
L 228.381702 396.816 
z
" clip-path="url(#pff8db198f8)" style="fill: #7f7f7f; opacity: 0.5"/>
   </g>
   <g id="patch_84">
    <path d="M 230.459362 448.56 
L 232.121489 448.56 
L 232.121489 345.072 
L 230.459362 345.072 
z
" clip-path="url(#pff8db198f8)" style="fill: #7f7f7f; opacity: 0.5"/>
   </g>
   <g id="patch_85">
    <path d="M 232.537021 448.56 
L 234.199149 448.56 
L 234.199149 267.456 
L 232.537021 267.456 
z
" clip-path="url(#pff8db198f8)" style="fill: #7f7f7f; opacity: 0.5"/>
   </g>
   <g id="patch_86">
    <path d="M 234.614681 448.56 
L 236.276809 448.56 
L 236.276809 112.224 
L 234.614681 112.224 
z
" clip-path="url(#pff8db198f8)" style="fill: #7f7f7f; opacity: 0.5"/>
   </g>
   <g id="patch_87">
    <path d="M 236.69234 448.56 
L 238.354468 448.56 
L 238.354468 293.328 
L 236.69234 293.328 
z
" clip-path="url(#pff8db198f8)" style="fill: #7f7f7f; opacity: 0.5"/>
   </g>
   <g id="patch_88">
    <path d="M 238.77 448.56 
L 240.432128 448.56 
L 240.432128 241.584 
L 238.77 241.584 
z
" clip-path="url(#pff8db198f8)" style="fill: #7f7f7f; opacity: 0.5"/>
   </g>
   <g id="patch_89">
    <path d="M 240.84766 448.56 
L 242.509787 448.56 
L 242.509787 345.072 
L 240.84766 345.072 
z
" clip-path="url(#pff8db198f8)" style="fill: #7f7f7f; opacity: 0.5"/>
   </g>
   <g id="patch_90">
    <path d="M 242.925319 448.56 
L 244.587447 448.56 
L 244.587447 319.2 
L 242.925319 319.2 
z
" clip-path="url(#pff8db198f8)" style="fill: #7f7f7f; opacity: 0.5"/>
   </g>
   <g id="patch_91">
    <path d="M 245.002979 448.56 
L 246.665106 448.56 
L 246.665106 370.944 
L 245.002979 370.944 
z
" clip-path="url(#pff8db198f8)" style="fill: #7f7f7f; opacity: 0.5"/>
   </g>
   <g id="patch_92">
    <path d="M 247.080638 448.56 
L 248.742766 448.56 
L 248.742766 396.816 
L 247.080638 396.816 
z
" clip-path="url(#pff8db198f8)" style="fill: #7f7f7f; opacity: 0.5"/>
   </g>
   <g id="patch_93">
    <path d="M 249.158298 448.56 
L 250.820426 448.56 
L 250.820426 396.816 
L 249.158298 396.816 
z
" clip-path="url(#pff8db198f8)" style="fill: #7f7f7f; opacity: 0.5"/>
   </g>
   <g id="patch_94">
    <path d="M 251.235957 448.56 
L 252.898085 448.56 
L 252.898085 448.56 
L 251.235957 448.56 
z
" clip-path="url(#pff8db198f8)" style="fill: #7f7f7f; opacity: 0.5"/>
   </g>
   <g id="patch_95">
    <path d="M 253.313617 448.56 
L 254.975745 448.56 
L 254.975745 422.688 
L 253.313617 422.688 
z
" clip-path="url(#pff8db198f8)" style="fill: #7f7f7f; opacity: 0.5"/>
   </g>
   <g id="patch_96">
    <path d="M 255.391277 448.56 
L 257.053404 448.56 
L 257.053404 396.816 
L 255.391277 396.816 
z
" clip-path="url(#pff8db198f8)" style="fill: #7f7f7f; opacity: 0.5"/>
   </g>
   <g id="patch_97">
    <path d="M 257.468936 448.56 
L 259.131064 448.56 
L 259.131064 370.944 
L 257.468936 370.944 
z
" clip-path="url(#pff8db198f8)" style="fill: #7f7f7f; opacity: 0.5"/>
   </g>
   <g id="patch_98">
    <path d="M 259.546596 448.56 
L 261.208723 448.56 
L 261.208723 422.688 
L 259.546596 422.688 
z
" clip-path="url(#pff8db198f8)" style="fill: #7f7f7f; opacity: 0.5"/>
   </g>
   <g id="patch_99">
    <path d="M 261.624255 448.56 
L 263.286383 448.56 
L 263.286383 370.944 
L 261.624255 370.944 
z
" clip-path="url(#pff8db198f8)" style="fill: #7f7f7f; opacity: 0.5"/>
   </g>
   <g id="patch_100">
    <path d="M 263.701915 448.56 
L 265.364043 448.56 
L 265.364043 396.816 
L 263.701915 396.816 
z
" clip-path="url(#pff8db198f8)" style="fill: #7f7f7f; opacity: 0.5"/>
   </g>
   <g id="patch_101">
    <path d="M 265.779574 448.56 
L 267.441702 448.56 
L 267.441702 448.56 
L 265.779574 448.56 
z
" clip-path="url(#pff8db198f8)" style="fill: #7f7f7f; opacity: 0.5"/>
   </g>
   <g id="patch_102">
    <path d="M 267.857234 448.56 
L 269.519362 448.56 
L 269.519362 448.56 
L 267.857234 448.56 
z
" clip-path="url(#pff8db198f8)" style="fill: #7f7f7f; opacity: 0.5"/>
   </g>
   <g id="patch_103">
    <path d="M 269.934894 448.56 
L 271.597021 448.56 
L 271.597021 422.688 
L 269.934894 422.688 
z
" clip-path="url(#pff8db198f8)" style="fill: #7f7f7f; opacity: 0.5"/>
   </g>
   <g id="patch_104">
    <path d="M 272.012553 448.56 
L 273.674681 448.56 
L 273.674681 396.816 
L 272.012553 396.816 
z
" clip-path="url(#pff8db198f8)" style="fill: #7f7f7f; opacity: 0.5"/>
   </g>
   <g id="patch_105">
    <path d="M 274.090213 448.56 
L 275.75234 448.56 
L 275.75234 422.688 
L 274.090213 422.688 
z
" clip-path="url(#pff8db198f8)" style="fill: #7f7f7f; opacity: 0.5"/>
   </g>
   <g id="patch_106">
    <path d="M 276.167872 448.56 
L 277.83 448.56 
L 277.83 448.56 
L 276.167872 448.56 
z
" clip-path="url(#pff8db198f8)" style="fill: #7f7f7f; opacity: 0.5"/>
   </g>
   <g id="patch_107">
    <path d="M 278.245532 448.56 
L 279.90766 448.56 
L 279.90766 422.688 
L 278.245532 422.688 
z
" clip-path="url(#pff8db198f8)" style="fill: #7f7f7f; opacity: 0.5"/>
   </g>
   <g id="patch_108">
    <path d="M 280.323191 448.56 
L 281.985319 448.56 
L 281.985319 448.56 
L 280.323191 448.56 
z
" clip-path="url(#pff8db198f8)" style="fill: #7f7f7f; opacity: 0.5"/>
   </g>
   <g id="patch_109">
    <path d="M 282.400851 448.56 
L 284.062979 448.56 
L 284.062979 422.688 
L 282.400851 422.688 
z
" clip-path="url(#pff8db198f8)" style="fill: #7f7f7f; opacity: 0.5"/>
   </g>
   <g id="patch_110">
    <path d="M 284.478511 448.56 
L 286.140638 448.56 
L 286.140638 448.56 
L 284.478511 448.56 
z
" clip-path="url(#pff8db198f8)" style="fill: #7f7f7f; opacity: 0.5"/>
   </g>
   <g id="patch_111">
    <path d="M 286.55617 448.56 
L 288.218298 448.56 
L 288.218298 448.56 
L 286.55617 448.56 
z
" clip-path="url(#pff8db198f8)" style="fill: #7f7f7f; opacity: 0.5"/>
   </g>
   <g id="patch_112">
    <path d="M 288.63383 448.56 
L 290.295957 448.56 
L 290.295957 448.56 
L 288.63383 448.56 
z
" clip-path="url(#pff8db198f8)" style="fill: #7f7f7f; opacity: 0.5"/>
   </g>
   <g id="patch_113">
    <path d="M 290.711489 448.56 
L 292.373617 448.56 
L 292.373617 422.688 
L 290.711489 422.688 
z
" clip-path="url(#pff8db198f8)" style="fill: #7f7f7f; opacity: 0.5"/>
   </g>
   <g id="patch_114">
    <path d="M 292.789149 448.56 
L 294.451277 448.56 
L 294.451277 422.688 
L 292.789149 422.688 
z
" clip-path="url(#pff8db198f8)" style="fill: #7f7f7f; opacity: 0.5"/>
   </g>
   <g id="patch_115">
    <path d="M 294.866809 448.56 
L 296.528936 448.56 
L 296.528936 448.56 
L 294.866809 448.56 
z
" clip-path="url(#pff8db198f8)" style="fill: #7f7f7f; opacity: 0.5"/>
   </g>
   <g id="patch_116">
    <path d="M 296.944468 448.56 
L 298.606596 448.56 
L 298.606596 448.56 
L 296.944468 448.56 
z
" clip-path="url(#pff8db198f8)" style="fill: #7f7f7f; opacity: 0.5"/>
   </g>
   <g id="patch_117">
    <path d="M 299.022128 448.56 
L 300.684255 448.56 
L 300.684255 448.56 
L 299.022128 448.56 
z
" clip-path="url(#pff8db198f8)" style="fill: #7f7f7f; opacity: 0.5"/>
   </g>
   <g id="patch_118">
    <path d="M 301.099787 448.56 
L 302.761915 448.56 
L 302.761915 422.688 
L 301.099787 422.688 
z
" clip-path="url(#pff8db198f8)" style="fill: #7f7f7f; opacity: 0.5"/>
   </g>
   <g id="patch_119">
    <path d="M 303.177447 448.56 
L 304.839574 448.56 
L 304.839574 448.56 
L 303.177447 448.56 
z
" clip-path="url(#pff8db198f8)" style="fill: #7f7f7f; opacity: 0.5"/>
   </g>
   <g id="patch_120">
    <path d="M 305.255106 448.56 
L 306.917234 448.56 
L 306.917234 448.56 
L 305.255106 448.56 
z
" clip-path="url(#pff8db198f8)" style="fill: #7f7f7f; opacity: 0.5"/>
   </g>
   <g id="patch_121">
    <path d="M 307.332766 448.56 
L 308.994894 448.56 
L 308.994894 448.56 
L 307.332766 448.56 
z
" clip-path="url(#pff8db198f8)" style="fill: #7f7f7f; opacity: 0.5"/>
   </g>
   <g id="patch_122">
    <path d="M 309.410426 448.56 
L 311.072553 448.56 
L 311.072553 448.56 
L 309.410426 448.56 
z
" clip-path="url(#pff8db198f8)" style="fill: #7f7f7f; opacity: 0.5"/>
   </g>
   <g id="patch_123">
    <path d="M 311.488085 448.56 
L 313.150213 448.56 
L 313.150213 448.56 
L 311.488085 448.56 
z
" clip-path="url(#pff8db198f8)" style="fill: #7f7f7f; opacity: 0.5"/>
   </g>
   <g id="patch_124">
    <path d="M 313.565745 448.56 
L 315.227872 448.56 
L 315.227872 448.56 
L 313.565745 448.56 
z
" clip-path="url(#pff8db198f8)" style="fill: #7f7f7f; opacity: 0.5"/>
   </g>
   <g id="patch_125">
    <path d="M 315.643404 448.56 
L 317.305532 448.56 
L 317.305532 448.56 
L 315.643404 448.56 
z
" clip-path="url(#pff8db198f8)" style="fill: #7f7f7f; opacity: 0.5"/>
   </g>
   <g id="patch_126">
    <path d="M 317.721064 448.56 
L 319.383191 448.56 
L 319.383191 448.56 
L 317.721064 448.56 
z
" clip-path="url(#pff8db198f8)" style="fill: #7f7f7f; opacity: 0.5"/>
   </g>
   <g id="patch_127">
    <path d="M 319.798723 448.56 
L 321.460851 448.56 
L 321.460851 448.56 
L 319.798723 448.56 
z
" clip-path="url(#pff8db198f8)" style="fill: #7f7f7f; opacity: 0.5"/>
   </g>
   <g id="patch_128">
    <path d="M 321.876383 448.56 
L 323.538511 448.56 
L 323.538511 422.688 
L 321.876383 422.688 
z
" clip-path="url(#pff8db198f8)" style="fill: #7f7f7f; opacity: 0.5"/>
   </g>
   <g id="patch_129">
    <path d="M 323.954043 448.56 
L 325.61617 448.56 
L 325.61617 448.56 
L 323.954043 448.56 
z
" clip-path="url(#pff8db198f8)" style="fill: #7f7f7f; opacity: 0.5"/>
   </g>
   <g id="patch_130">
    <path d="M 326.031702 448.56 
L 327.69383 448.56 
L 327.69383 448.56 
L 326.031702 448.56 
z
" clip-path="url(#pff8db198f8)" style="fill: #7f7f7f; opacity: 0.5"/>
   </g>
   <g id="patch_131">
    <path d="M 328.109362 448.56 
L 329.771489 448.56 
L 329.771489 448.56 
L 328.109362 448.56 
z
" clip-path="url(#pff8db198f8)" style="fill: #7f7f7f; opacity: 0.5"/>
   </g>
   <g id="patch_132">
    <path d="M 330.187021 448.56 
L 331.849149 448.56 
L 331.849149 448.56 
L 330.187021 448.56 
z
" clip-path="url(#pff8db198f8)" style="fill: #7f7f7f; opacity: 0.5"/>
   </g>
   <g id="patch_133">
    <path d="M 332.264681 448.56 
L 333.926809 448.56 
L 333.926809 448.56 
L 332.264681 448.56 
z
" clip-path="url(#pff8db198f8)" style="fill: #7f7f7f; opacity: 0.5"/>
   </g>
   <g id="patch_134">
    <path d="M 334.34234 448.56 
L 336.004468 448.56 
L 336.004468 448.56 
L 334.34234 448.56 
z
" clip-path="url(#pff8db198f8)" style="fill: #7f7f7f; opacity: 0.5"/>
   </g>
   <g id="patch_135">
    <path d="M 336.42 448.56 
L 338.082128 448.56 
L 338.082128 422.688 
L 336.42 422.688 
z
" clip-path="url(#pff8db198f8)" style="fill: #7f7f7f; opacity: 0.5"/>
   </g>
   <g id="patch_136">
    <path d="M 338.49766 448.56 
L 340.159787 448.56 
L 340.159787 448.56 
L 338.49766 448.56 
z
" clip-path="url(#pff8db198f8)" style="fill: #7f7f7f; opacity: 0.5"/>
   </g>
   <g id="patch_137">
    <path d="M 340.575319 448.56 
L 342.237447 448.56 
L 342.237447 448.56 
L 340.575319 448.56 
z
" clip-path="url(#pff8db198f8)" style="fill: #7f7f7f; opacity: 0.5"/>
   </g>
   <g id="patch_138">
    <path d="M 342.652979 448.56 
L 344.315106 448.56 
L 344.315106 448.56 
L 342.652979 448.56 
z
" clip-path="url(#pff8db198f8)" style="fill: #7f7f7f; opacity: 0.5"/>
   </g>
   <g id="patch_139">
    <path d="M 344.730638 448.56 
L 346.392766 448.56 
L 346.392766 448.56 
L 344.730638 448.56 
z
" clip-path="url(#pff8db198f8)" style="fill: #7f7f7f; opacity: 0.5"/>
   </g>
   <g id="patch_140">
    <path d="M 346.808298 448.56 
L 348.470426 448.56 
L 348.470426 448.56 
L 346.808298 448.56 
z
" clip-path="url(#pff8db198f8)" style="fill: #7f7f7f; opacity: 0.5"/>
   </g>
   <g id="patch_141">
    <path d="M 348.885957 448.56 
L 350.548085 448.56 
L 350.548085 448.56 
L 348.885957 448.56 
z
" clip-path="url(#pff8db198f8)" style="fill: #7f7f7f; opacity: 0.5"/>
   </g>
   <g id="patch_142">
    <path d="M 350.963617 448.56 
L 352.625745 448.56 
L 352.625745 448.56 
L 350.963617 448.56 
z
" clip-path="url(#pff8db198f8)" style="fill: #7f7f7f; opacity: 0.5"/>
   </g>
   <g id="patch_143">
    <path d="M 353.041277 448.56 
L 354.703404 448.56 
L 354.703404 448.56 
L 353.041277 448.56 
z
" clip-path="url(#pff8db198f8)" style="fill: #7f7f7f; opacity: 0.5"/>
   </g>
   <g id="patch_144">
    <path d="M 355.118936 448.56 
L 356.781064 448.56 
L 356.781064 448.56 
L 355.118936 448.56 
z
" clip-path="url(#pff8db198f8)" style="fill: #7f7f7f; opacity: 0.5"/>
   </g>
   <g id="patch_145">
    <path d="M 357.196596 448.56 
L 358.858723 448.56 
L 358.858723 448.56 
L 357.196596 448.56 
z
" clip-path="url(#pff8db198f8)" style="fill: #7f7f7f; opacity: 0.5"/>
   </g>
   <g id="patch_146">
    <path d="M 359.274255 448.56 
L 360.936383 448.56 
L 360.936383 448.56 
L 359.274255 448.56 
z
" clip-path="url(#pff8db198f8)" style="fill: #7f7f7f; opacity: 0.5"/>
   </g>
   <g id="patch_147">
    <path d="M 361.351915 448.56 
L 363.014043 448.56 
L 363.014043 448.56 
L 361.351915 448.56 
z
" clip-path="url(#pff8db198f8)" style="fill: #7f7f7f; opacity: 0.5"/>
   </g>
   <g id="patch_148">
    <path d="M 363.429574 448.56 
L 365.091702 448.56 
L 365.091702 448.56 
L 363.429574 448.56 
z
" clip-path="url(#pff8db198f8)" style="fill: #7f7f7f; opacity: 0.5"/>
   </g>
   <g id="patch_149">
    <path d="M 365.507234 448.56 
L 367.169362 448.56 
L 367.169362 448.56 
L 365.507234 448.56 
z
" clip-path="url(#pff8db198f8)" style="fill: #7f7f7f; opacity: 0.5"/>
   </g>
   <g id="patch_150">
    <path d="M 367.584894 448.56 
L 369.247021 448.56 
L 369.247021 448.56 
L 367.584894 448.56 
z
" clip-path="url(#pff8db198f8)" style="fill: #7f7f7f; opacity: 0.5"/>
   </g>
   <g id="patch_151">
    <path d="M 369.662553 448.56 
L 371.324681 448.56 
L 371.324681 448.56 
L 369.662553 448.56 
z
" clip-path="url(#pff8db198f8)" style="fill: #7f7f7f; opacity: 0.5"/>
   </g>
   <g id="patch_152">
    <path d="M 371.740213 448.56 
L 373.40234 448.56 
L 373.40234 448.56 
L 371.740213 448.56 
z
" clip-path="url(#pff8db198f8)" style="fill: #7f7f7f; opacity: 0.5"/>
   </g>
   <g id="patch_153">
    <path d="M 373.817872 448.56 
L 375.48 448.56 
L 375.48 448.56 
L 373.817872 448.56 
z
" clip-path="url(#pff8db198f8)" style="fill: #7f7f7f; opacity: 0.5"/>
   </g>
   <g id="patch_154">
    <path d="M 375.895532 448.56 
L 377.55766 448.56 
L 377.55766 448.56 
L 375.895532 448.56 
z
" clip-path="url(#pff8db198f8)" style="fill: #7f7f7f; opacity: 0.5"/>
   </g>
   <g id="patch_155">
    <path d="M 377.973191 448.56 
L 379.635319 448.56 
L 379.635319 448.56 
L 377.973191 448.56 
z
" clip-path="url(#pff8db198f8)" style="fill: #7f7f7f; opacity: 0.5"/>
   </g>
   <g id="patch_156">
    <path d="M 380.050851 448.56 
L 381.712979 448.56 
L 381.712979 448.56 
L 380.050851 448.56 
z
" clip-path="url(#pff8db198f8)" style="fill: #7f7f7f; opacity: 0.5"/>
   </g>
   <g id="patch_157">
    <path d="M 382.128511 448.56 
L 383.790638 448.56 
L 383.790638 448.56 
L 382.128511 448.56 
z
" clip-path="url(#pff8db198f8)" style="fill: #7f7f7f; opacity: 0.5"/>
   </g>
   <g id="patch_158">
    <path d="M 384.20617 448.56 
L 385.868298 448.56 
L 385.868298 448.56 
L 384.20617 448.56 
z
" clip-path="url(#pff8db198f8)" style="fill: #7f7f7f; opacity: 0.5"/>
   </g>
   <g id="patch_159">
    <path d="M 386.28383 448.56 
L 387.945957 448.56 
L 387.945957 448.56 
L 386.28383 448.56 
z
" clip-path="url(#pff8db198f8)" style="fill: #7f7f7f; opacity: 0.5"/>
   </g>
   <g id="patch_160">
    <path d="M 388.361489 448.56 
L 390.023617 448.56 
L 390.023617 448.56 
L 388.361489 448.56 
z
" clip-path="url(#pff8db198f8)" style="fill: #7f7f7f; opacity: 0.5"/>
   </g>
   <g id="patch_161">
    <path d="M 390.439149 448.56 
L 392.101277 448.56 
L 392.101277 448.56 
L 390.439149 448.56 
z
" clip-path="url(#pff8db198f8)" style="fill: #7f7f7f; opacity: 0.5"/>
   </g>
   <g id="patch_162">
    <path d="M 392.516809 448.56 
L 394.178936 448.56 
L 394.178936 448.56 
L 392.516809 448.56 
z
" clip-path="url(#pff8db198f8)" style="fill: #7f7f7f; opacity: 0.5"/>
   </g>
   <g id="patch_163">
    <path d="M 394.594468 448.56 
L 396.256596 448.56 
L 396.256596 448.56 
L 394.594468 448.56 
z
" clip-path="url(#pff8db198f8)" style="fill: #7f7f7f; opacity: 0.5"/>
   </g>
   <g id="patch_164">
    <path d="M 396.672128 448.56 
L 398.334255 448.56 
L 398.334255 448.56 
L 396.672128 448.56 
z
" clip-path="url(#pff8db198f8)" style="fill: #7f7f7f; opacity: 0.5"/>
   </g>
   <g id="patch_165">
    <path d="M 398.749787 448.56 
L 400.411915 448.56 
L 400.411915 448.56 
L 398.749787 448.56 
z
" clip-path="url(#pff8db198f8)" style="fill: #7f7f7f; opacity: 0.5"/>
   </g>
   <g id="patch_166">
    <path d="M 400.827447 448.56 
L 402.489574 448.56 
L 402.489574 448.56 
L 400.827447 448.56 
z
" clip-path="url(#pff8db198f8)" style="fill: #7f7f7f; opacity: 0.5"/>
   </g>
   <g id="patch_167">
    <path d="M 402.905106 448.56 
L 404.567234 448.56 
L 404.567234 448.56 
L 402.905106 448.56 
z
" clip-path="url(#pff8db198f8)" style="fill: #7f7f7f; opacity: 0.5"/>
   </g>
   <g id="patch_168">
    <path d="M 404.982766 448.56 
L 406.644894 448.56 
L 406.644894 448.56 
L 404.982766 448.56 
z
" clip-path="url(#pff8db198f8)" style="fill: #7f7f7f; opacity: 0.5"/>
   </g>
   <g id="patch_169">
    <path d="M 407.060426 448.56 
L 408.722553 448.56 
L 408.722553 448.56 
L 407.060426 448.56 
z
" clip-path="url(#pff8db198f8)" style="fill: #7f7f7f; opacity: 0.5"/>
   </g>
   <g id="patch_170">
    <path d="M 409.138085 448.56 
L 410.800213 448.56 
L 410.800213 448.56 
L 409.138085 448.56 
z
" clip-path="url(#pff8db198f8)" style="fill: #7f7f7f; opacity: 0.5"/>
   </g>
   <g id="patch_171">
    <path d="M 411.215745 448.56 
L 412.877872 448.56 
L 412.877872 448.56 
L 411.215745 448.56 
z
" clip-path="url(#pff8db198f8)" style="fill: #7f7f7f; opacity: 0.5"/>
   </g>
   <g id="patch_172">
    <path d="M 413.293404 448.56 
L 414.955532 448.56 
L 414.955532 448.56 
L 413.293404 448.56 
z
" clip-path="url(#pff8db198f8)" style="fill: #7f7f7f; opacity: 0.5"/>
   </g>
   <g id="patch_173">
    <path d="M 415.371064 448.56 
L 417.033191 448.56 
L 417.033191 448.56 
L 415.371064 448.56 
z
" clip-path="url(#pff8db198f8)" style="fill: #7f7f7f; opacity: 0.5"/>
   </g>
   <g id="patch_174">
    <path d="M 417.448723 448.56 
L 419.110851 448.56 
L 419.110851 448.56 
L 417.448723 448.56 
z
" clip-path="url(#pff8db198f8)" style="fill: #7f7f7f; opacity: 0.5"/>
   </g>
   <g id="patch_175">
    <path d="M 419.526383 448.56 
L 421.188511 448.56 
L 421.188511 448.56 
L 419.526383 448.56 
z
" clip-path="url(#pff8db198f8)" style="fill: #7f7f7f; opacity: 0.5"/>
   </g>
   <g id="patch_176">
    <path d="M 421.604043 448.56 
L 423.26617 448.56 
L 423.26617 448.56 
L 421.604043 448.56 
z
" clip-path="url(#pff8db198f8)" style="fill: #7f7f7f; opacity: 0.5"/>
   </g>
   <g id="patch_177">
    <path d="M 423.681702 448.56 
L 425.34383 448.56 
L 425.34383 448.56 
L 423.681702 448.56 
z
" clip-path="url(#pff8db198f8)" style="fill: #7f7f7f; opacity: 0.5"/>
   </g>
   <g id="patch_178">
    <path d="M 425.759362 448.56 
L 427.421489 448.56 
L 427.421489 448.56 
L 425.759362 448.56 
z
" clip-path="url(#pff8db198f8)" style="fill: #7f7f7f; opacity: 0.5"/>
   </g>
   <g id="patch_179">
    <path d="M 427.837021 448.56 
L 429.499149 448.56 
L 429.499149 448.56 
L 427.837021 448.56 
z
" clip-path="url(#pff8db198f8)" style="fill: #7f7f7f; opacity: 0.5"/>
   </g>
   <g id="patch_180">
    <path d="M 429.914681 448.56 
L 431.576809 448.56 
L 431.576809 448.56 
L 429.914681 448.56 
z
" clip-path="url(#pff8db198f8)" style="fill: #7f7f7f; opacity: 0.5"/>
   </g>
   <g id="patch_181">
    <path d="M 431.99234 448.56 
L 433.654468 448.56 
L 433.654468 448.56 
L 431.99234 448.56 
z
" clip-path="url(#pff8db198f8)" style="fill: #7f7f7f; opacity: 0.5"/>
   </g>
   <g id="patch_182">
    <path d="M 434.07 448.56 
L 435.732128 448.56 
L 435.732128 448.56 
L 434.07 448.56 
z
" clip-path="url(#pff8db198f8)" style="fill: #7f7f7f; opacity: 0.5"/>
   </g>
   <g id="patch_183">
    <path d="M 436.14766 448.56 
L 437.809787 448.56 
L 437.809787 448.56 
L 436.14766 448.56 
z
" clip-path="url(#pff8db198f8)" style="fill: #7f7f7f; opacity: 0.5"/>
   </g>
   <g id="patch_184">
    <path d="M 438.225319 448.56 
L 439.887447 448.56 
L 439.887447 448.56 
L 438.225319 448.56 
z
" clip-path="url(#pff8db198f8)" style="fill: #7f7f7f; opacity: 0.5"/>
   </g>
   <g id="patch_185">
    <path d="M 440.302979 448.56 
L 441.965106 448.56 
L 441.965106 448.56 
L 440.302979 448.56 
z
" clip-path="url(#pff8db198f8)" style="fill: #7f7f7f; opacity: 0.5"/>
   </g>
   <g id="patch_186">
    <path d="M 442.380638 448.56 
L 444.042766 448.56 
L 444.042766 448.56 
L 442.380638 448.56 
z
" clip-path="url(#pff8db198f8)" style="fill: #7f7f7f; opacity: 0.5"/>
   </g>
   <g id="patch_187">
    <path d="M 444.458298 448.56 
L 446.120426 448.56 
L 446.120426 448.56 
L 444.458298 448.56 
z
" clip-path="url(#pff8db198f8)" style="fill: #7f7f7f; opacity: 0.5"/>
   </g>
   <g id="patch_188">
    <path d="M 446.535957 448.56 
L 448.198085 448.56 
L 448.198085 448.56 
L 446.535957 448.56 
z
" clip-path="url(#pff8db198f8)" style="fill: #7f7f7f; opacity: 0.5"/>
   </g>
   <g id="patch_189">
    <path d="M 448.613617 448.56 
L 450.275745 448.56 
L 450.275745 448.56 
L 448.613617 448.56 
z
" clip-path="url(#pff8db198f8)" style="fill: #7f7f7f; opacity: 0.5"/>
   </g>
   <g id="patch_190">
    <path d="M 450.691277 448.56 
L 452.353404 448.56 
L 452.353404 448.56 
L 450.691277 448.56 
z
" clip-path="url(#pff8db198f8)" style="fill: #7f7f7f; opacity: 0.5"/>
   </g>
   <g id="patch_191">
    <path d="M 452.768936 448.56 
L 454.431064 448.56 
L 454.431064 448.56 
L 452.768936 448.56 
z
" clip-path="url(#pff8db198f8)" style="fill: #7f7f7f; opacity: 0.5"/>
   </g>
   <g id="patch_192">
    <path d="M 453.6 448.56 
L 453.6 60.48 
" style="fill: none; stroke: #7f7f7f; stroke-width: 0.8; stroke-linejoin: miter; stroke-linecap: square"/>
   </g>
  </g>
  <g id="axes_2">
   <g id="FillBetweenPolyCollection_1">
    <defs>
     <path id="m207e43262c" d="M 63 -367.805967 
L 63 -293.068751 
L 65.07766 -304.560457 
L 67.155319 -314.419578 
L 69.232979 -324.624919 
L 71.310638 -333.535152 
L 73.388298 -341.959379 
L 75.465957 -350.502333 
L 77.543617 -358.527497 
L 79.621277 -365.830681 
L 81.698936 -372.243532 
L 83.776596 -378.262728 
L 85.854255 -383.593286 
L 87.931915 -388.166521 
L 90.009574 -392.50946 
L 92.087234 -396.275579 
L 94.164894 -398.829381 
L 96.242553 -401.36765 
L 98.320213 -402.956062 
L 100.397872 -404.357949 
L 102.475532 -405.283957 
L 104.553191 -405.697841 
L 106.630851 -406.07381 
L 108.708511 -405.593157 
L 110.78617 -404.903676 
L 112.86383 -404.557486 
L 114.941489 -403.32803 
L 117.019149 -402.204858 
L 119.096809 -400.555471 
L 121.174468 -399.011722 
L 123.252128 -397.782333 
L 125.329787 -396.136781 
L 127.407447 -394.358508 
L 129.485106 -392.830972 
L 131.562766 -391.522383 
L 133.640426 -390.509913 
L 135.718085 -389.134603 
L 137.795745 -387.751494 
L 139.873404 -386.932629 
L 141.951064 -386.010232 
L 144.028723 -384.96896 
L 146.106383 -384.380325 
L 148.184043 -383.957645 
L 150.261702 -383.834226 
L 152.339362 -383.708605 
L 154.417021 -383.677299 
L 156.494681 -384.14215 
L 158.57234 -385.223395 
L 160.65 -385.970991 
L 162.72766 -386.965953 
L 164.805319 -388.067549 
L 166.882979 -389.638734 
L 168.960638 -391.290819 
L 171.038298 -392.863432 
L 173.115957 -394.491965 
L 175.193617 -396.069136 
L 177.271277 -397.804409 
L 179.348936 -399.726494 
L 181.426596 -401.457297 
L 183.504255 -402.860381 
L 185.581915 -404.472954 
L 187.659574 -406.034084 
L 189.737234 -407.442347 
L 191.814894 -408.579151 
L 193.892553 -409.682662 
L 195.970213 -410.237864 
L 198.047872 -410.683419 
L 200.125532 -410.927902 
L 202.203191 -410.755986 
L 204.280851 -409.818731 
L 206.358511 -408.602434 
L 208.43617 -407.17892 
L 210.51383 -404.671431 
L 212.591489 -401.57719 
L 214.669149 -397.519051 
L 216.746809 -392.837338 
L 218.824468 -387.116869 
L 220.902128 -380.999994 
L 222.979787 -374.050208 
L 225.057447 -366.218047 
L 227.135106 -357.992372 
L 229.212766 -348.845637 
L 231.290426 -339.992621 
L 233.368085 -330.553399 
L 235.445745 -320.262459 
L 237.523404 -309.164287 
L 239.601064 -297.645306 
L 241.678723 -285.481406 
L 243.756383 -273.281338 
L 245.834043 -261.04837 
L 247.911702 -248.312298 
L 249.989362 -235.333256 
L 252.067021 -222.848524 
L 254.144681 -211.019947 
L 256.22234 -199.162461 
L 258.3 -187.65942 
L 260.37766 -176.424972 
L 262.455319 -165.604562 
L 264.532979 -155.048336 
L 266.610638 -145.052458 
L 268.688298 -135.691616 
L 270.765957 -127.565129 
L 272.843617 -119.594328 
L 274.921277 -112.109521 
L 276.998936 -105.220695 
L 279.076596 -99.070854 
L 281.154255 -93.256279 
L 283.231915 -88.739824 
L 285.309574 -84.510057 
L 287.387234 -80.82352 
L 289.464894 -77.911156 
L 291.542553 -75.921915 
L 293.620213 -73.760081 
L 295.697872 -71.028692 
L 297.775532 -69.064565 
L 299.853191 -67.603587 
L 301.930851 -66.866739 
L 304.008511 -64.82649 
L 306.08617 -63.178597 
L 308.16383 -62.124451 
L 310.241489 -61.49837 
L 312.319149 -60.968037 
L 314.396809 -60.926307 
L 316.474468 -60.98755 
L 318.552128 -61.651314 
L 320.629787 -62.614777 
L 322.707447 -63.593396 
L 324.785106 -62.686446 
L 326.862766 -62.063501 
L 328.940426 -61.694565 
L 331.018085 -61.606579 
L 333.095745 -61.491014 
L 335.173404 -61.773619 
L 337.251064 -62.373908 
L 339.328723 -60.205651 
L 341.406383 -58.099246 
L 343.484043 -56.409383 
L 345.561702 -55.479958 
L 347.639362 -55.440789 
L 349.717021 -55.440047 
L 351.794681 -55.440005 
L 353.87234 -55.440004 
L 355.95 -55.440004 
L 358.02766 -55.440004 
L 360.105319 -55.440004 
L 362.182979 -55.440004 
L 364.260638 -55.440004 
L 366.338298 -55.440004 
L 368.415957 -55.440004 
L 370.493617 -55.440004 
L 372.571277 -55.440004 
L 374.648936 -55.440004 
L 376.726596 -55.440004 
L 378.804255 -55.440004 
L 380.881915 -55.440004 
L 382.959574 -55.440004 
L 385.037234 -55.440004 
L 387.114894 -55.440004 
L 389.192553 -55.440004 
L 391.270213 -55.440004 
L 393.347872 -55.440004 
L 395.425532 -55.440004 
L 397.503191 -55.440004 
L 399.580851 -55.440004 
L 401.658511 -55.440004 
L 403.73617 -55.440004 
L 405.81383 -55.440004 
L 407.891489 -55.440004 
L 409.969149 -55.440004 
L 412.046809 -55.440004 
L 414.124468 -55.440004 
L 416.202128 -55.440004 
L 418.279787 -55.440004 
L 420.357447 -55.440004 
L 422.435106 -55.440004 
L 424.512766 -55.440004 
L 426.590426 -55.440004 
L 428.668085 -55.440004 
L 430.745745 -55.440004 
L 432.823404 -55.440004 
L 434.901064 -55.440004 
L 436.978723 -55.440004 
L 439.056383 -55.440004 
L 441.134043 -55.440004 
L 443.211702 -55.440004 
L 445.289362 -55.440004 
L 447.367021 -55.440004 
L 449.444681 -55.440004 
L 451.52234 -55.440004 
L 453.6 -55.440004 
L 453.6 -98.75332 
L 453.6 -98.75332 
L 451.52234 -99.120467 
L 449.444681 -99.201291 
L 447.367021 -99.062291 
L 445.289362 -99.360359 
L 443.211702 -99.744327 
L 441.134043 -99.586217 
L 439.056383 -99.648702 
L 436.978723 -99.847731 
L 434.901064 -100.028552 
L 432.823404 -100.29951 
L 430.745745 -100.476705 
L 428.668085 -100.583174 
L 426.590426 -101.026706 
L 424.512766 -101.077307 
L 422.435106 -101.073292 
L 420.357447 -101.09555 
L 418.279787 -101.191854 
L 416.202128 -101.132176 
L 414.124468 -101.442423 
L 412.046809 -101.884956 
L 409.969149 -101.972125 
L 407.891489 -102.077072 
L 405.81383 -102.411212 
L 403.73617 -102.5123 
L 401.658511 -102.515957 
L 399.580851 -102.825212 
L 397.503191 -103.25605 
L 395.425532 -103.480682 
L 393.347872 -103.770956 
L 391.270213 -104.078821 
L 389.192553 -104.269696 
L 387.114894 -104.495279 
L 385.037234 -104.922104 
L 382.959574 -105.07169 
L 380.881915 -105.305721 
L 378.804255 -105.383768 
L 376.726596 -105.659997 
L 374.648936 -105.972995 
L 372.571277 -106.077118 
L 370.493617 -106.284254 
L 368.415957 -106.705224 
L 366.338298 -106.901267 
L 364.260638 -107.19244 
L 362.182979 -107.634626 
L 360.105319 -108.177896 
L 358.02766 -108.182738 
L 355.95 -108.212267 
L 353.87234 -108.872265 
L 351.794681 -109.01051 
L 349.717021 -109.32908 
L 347.639362 -109.694956 
L 345.561702 -110.065721 
L 343.484043 -110.508053 
L 341.406383 -110.922627 
L 339.328723 -111.251642 
L 337.251064 -111.548507 
L 335.173404 -111.423346 
L 333.095745 -111.576553 
L 331.018085 -111.68675 
L 328.940426 -111.97881 
L 326.862766 -111.997531 
L 324.785106 -112.091628 
L 322.707447 -112.016582 
L 320.629787 -112.047306 
L 318.552128 -112.155278 
L 316.474468 -112.357573 
L 314.396809 -112.64355 
L 312.319149 -113.038091 
L 310.241489 -113.807435 
L 308.16383 -114.921725 
L 306.08617 -116.010613 
L 304.008511 -117.356533 
L 301.930851 -118.867116 
L 299.853191 -120.601592 
L 297.775532 -122.57377 
L 295.697872 -124.826897 
L 293.620213 -127.578717 
L 291.542553 -130.653304 
L 289.464894 -134.212482 
L 287.387234 -138.215038 
L 285.309574 -142.645637 
L 283.231915 -147.765863 
L 281.154255 -153.407137 
L 279.076596 -159.341196 
L 276.998936 -166.27923 
L 274.921277 -173.840095 
L 272.843617 -181.977177 
L 270.765957 -190.48778 
L 268.688298 -199.526767 
L 266.610638 -209.549139 
L 264.532979 -219.742235 
L 262.455319 -230.897422 
L 260.37766 -242.030079 
L 258.3 -253.802705 
L 256.22234 -265.554005 
L 254.144681 -277.517016 
L 252.067021 -290.201447 
L 249.989362 -302.928366 
L 247.911702 -316.22924 
L 245.834043 -329.164546 
L 243.756383 -341.624695 
L 241.678723 -354.103889 
L 239.601064 -366.402544 
L 237.523404 -377.954581 
L 235.445745 -389.260781 
L 233.368085 -399.694168 
L 231.290426 -409.303016 
L 229.212766 -418.662761 
L 227.135106 -427.701888 
L 225.057447 -436.169638 
L 222.979787 -439.677615 
L 220.902128 -439.677624 
L 218.824468 -439.677624 
L 216.746809 -439.677624 
L 214.669149 -439.677624 
L 212.591489 -439.677624 
L 210.51383 -439.677624 
L 208.43617 -439.677624 
L 206.358511 -439.677624 
L 204.280851 -439.677624 
L 202.203191 -439.677624 
L 200.125532 -439.677624 
L 198.047872 -439.677624 
L 195.970213 -439.677624 
L 193.892553 -439.677624 
L 191.814894 -439.677624 
L 189.737234 -439.677624 
L 187.659574 -439.677624 
L 185.581915 -439.677624 
L 183.504255 -439.677624 
L 181.426596 -439.677624 
L 179.348936 -439.677624 
L 177.271277 -439.677624 
L 175.193617 -439.677624 
L 173.115957 -439.677624 
L 171.038298 -439.677624 
L 168.960638 -439.677624 
L 166.882979 -439.677624 
L 164.805319 -439.677624 
L 162.72766 -439.677624 
L 160.65 -439.677624 
L 158.57234 -439.677624 
L 156.494681 -439.677624 
L 154.417021 -439.677624 
L 152.339362 -439.677624 
L 150.261702 -439.677624 
L 148.184043 -439.677624 
L 146.106383 -439.677624 
L 144.028723 -439.677624 
L 141.951064 -439.677624 
L 139.873404 -439.677624 
L 137.795745 -439.677624 
L 135.718085 -439.677624 
L 133.640426 -439.677624 
L 131.562766 -439.677624 
L 129.485106 -439.677624 
L 127.407447 -439.677624 
L 125.329787 -439.677624 
L 123.252128 -439.677624 
L 121.174468 -439.677624 
L 119.096809 -439.677624 
L 117.019149 -439.677624 
L 114.941489 -439.677624 
L 112.86383 -439.677624 
L 110.78617 -439.677624 
L 108.708511 -439.677624 
L 106.630851 -439.677624 
L 104.553191 -439.677624 
L 102.475532 -439.677624 
L 100.397872 -439.677624 
L 98.320213 -439.677624 
L 96.242553 -439.677624 
L 94.164894 -439.677624 
L 92.087234 -439.677624 
L 90.009574 -439.677624 
L 87.931915 -439.677624 
L 85.854255 -439.677624 
L 83.776596 -439.677624 
L 81.698936 -439.677624 
L 79.621277 -439.66866 
L 77.543617 -433.943986 
L 75.465957 -425.829748 
L 73.388298 -417.124968 
L 71.310638 -408.520239 
L 69.232979 -399.199444 
L 67.155319 -389.313871 
L 65.07766 -379.009236 
L 63 -367.805967 
z
" style="stroke: #0173b2; stroke-opacity: 0.2"/>
    </defs>
    <g clip-path="url(#pff8db198f8)">
     <use xlink:href="#m207e43262c" x="0" y="504" style="fill: #0173b2; fill-opacity: 0.2; stroke: #0173b2; stroke-opacity: 0.2"/>
    </g>
   </g>
   <g id="FillBetweenPolyCollection_2">
    <defs>
     <path id="mb1c9de316d" d="M 63 -368.008391 
L 63 -293.325906 
L 65.07766 -304.042485 
L 67.155319 -314.621375 
L 69.232979 -324.589748 
L 71.310638 -333.14746 
L 73.388298 -341.833695 
L 75.465957 -350.468156 
L 77.543617 -358.273876 
L 79.621277 -365.53109 
L 81.698936 -372.188747 
L 83.776596 -379.257283 
L 85.854255 -383.992534 
L 87.931915 -388.837882 
L 90.009574 -393.031921 
L 92.087234 -396.26965 
L 94.164894 -399.496667 
L 96.242553 -402.138039 
L 98.320213 -403.688407 
L 100.397872 -405.506839 
L 102.475532 -406.730886 
L 104.553191 -407.1496 
L 106.630851 -406.226839 
L 108.708511 -406.110125 
L 110.78617 -405.613718 
L 112.86383 -404.224197 
L 114.941489 -403.464244 
L 117.019149 -401.988108 
L 119.096809 -400.158435 
L 121.174468 -398.36272 
L 123.252128 -397.04808 
L 125.329787 -396.024593 
L 127.407447 -394.905312 
L 129.485106 -391.962941 
L 131.562766 -390.874034 
L 133.640426 -390.119448 
L 135.718085 -388.312175 
L 137.795745 -387.803806 
L 139.873404 -386.341858 
L 141.951064 -386.344196 
L 144.028723 -384.743682 
L 146.106383 -383.749025 
L 148.184043 -383.84773 
L 150.261702 -383.32072 
L 152.339362 -383.107263 
L 154.417021 -383.791202 
L 156.494681 -383.889741 
L 158.57234 -384.788886 
L 160.65 -385.863465 
L 162.72766 -387.709227 
L 164.805319 -387.876624 
L 166.882979 -389.183664 
L 168.960638 -391.261006 
L 171.038298 -391.613101 
L 173.115957 -392.662374 
L 175.193617 -393.880336 
L 177.271277 -396.106611 
L 179.348936 -398.663085 
L 181.426596 -400.568918 
L 183.504255 -402.44583 
L 185.581915 -404.36856 
L 187.659574 -405.789461 
L 189.737234 -406.299652 
L 191.814894 -408.538493 
L 193.892553 -408.88274 
L 195.970213 -410.545108 
L 198.047872 -410.119545 
L 200.125532 -410.424235 
L 202.203191 -410.140948 
L 204.280851 -409.976643 
L 206.358511 -408.642184 
L 208.43617 -407.547696 
L 210.51383 -404.749934 
L 212.591489 -401.19311 
L 214.669149 -397.233066 
L 216.746809 -393.352363 
L 218.824468 -387.764251 
L 220.902128 -381.673344 
L 222.979787 -374.366099 
L 225.057447 -366.617503 
L 227.135106 -358.389506 
L 229.212766 -349.135241 
L 231.290426 -340.518995 
L 233.368085 -330.286371 
L 235.445745 -319.573045 
L 237.523404 -308.089477 
L 239.601064 -296.006302 
L 241.678723 -284.522186 
L 243.756383 -272.235458 
L 245.834043 -259.97956 
L 247.911702 -246.975812 
L 249.989362 -235.049445 
L 252.067021 -222.073822 
L 254.144681 -209.624581 
L 256.22234 -198.268582 
L 258.3 -187.119849 
L 260.37766 -176.413953 
L 262.455319 -165.15534 
L 264.532979 -155.109957 
L 266.610638 -144.930215 
L 268.688298 -134.648631 
L 270.765957 -127.723586 
L 272.843617 -119.320841 
L 274.921277 -112.062038 
L 276.998936 -104.746373 
L 279.076596 -98.682013 
L 281.154255 -92.893032 
L 283.231915 -88.344347 
L 285.309574 -84.591905 
L 287.387234 -80.975531 
L 289.464894 -78.345733 
L 291.542553 -75.718237 
L 293.620213 -73.614927 
L 295.697872 -70.537904 
L 297.775532 -68.525857 
L 299.853191 -67.581785 
L 301.930851 -66.6404 
L 304.008511 -64.172417 
L 306.08617 -63.219566 
L 308.16383 -61.761168 
L 310.241489 -61.07431 
L 312.319149 -60.787047 
L 314.396809 -60.845563 
L 316.474468 -60.398965 
L 318.552128 -61.48357 
L 320.629787 -62.752481 
L 322.707447 -63.425571 
L 324.785106 -62.439881 
L 326.862766 -61.76516 
L 328.940426 -61.712412 
L 331.018085 -61.50601 
L 333.095745 -61.838845 
L 335.173404 -62.005993 
L 337.251064 -62.416888 
L 339.328723 -60.436803 
L 341.406383 -58.010716 
L 343.484043 -55.924477 
L 345.561702 -55.495831 
L 347.639362 -55.44071 
L 349.717021 -55.440006 
L 351.794681 -55.440004 
L 353.87234 -55.440004 
L 355.95 -55.440004 
L 358.02766 -55.440004 
L 360.105319 -55.440004 
L 362.182979 -55.440004 
L 364.260638 -55.440004 
L 366.338298 -55.440004 
L 368.415957 -55.440004 
L 370.493617 -55.440004 
L 372.571277 -55.440004 
L 374.648936 -55.440004 
L 376.726596 -55.440004 
L 378.804255 -55.440004 
L 380.881915 -55.440004 
L 382.959574 -55.440004 
L 385.037234 -55.440004 
L 387.114894 -55.440004 
L 389.192553 -55.440004 
L 391.270213 -55.440004 
L 393.347872 -55.440004 
L 395.425532 -55.440004 
L 397.503191 -55.440004 
L 399.580851 -55.440004 
L 401.658511 -55.440004 
L 403.73617 -55.440004 
L 405.81383 -55.440004 
L 407.891489 -55.440004 
L 409.969149 -55.440004 
L 412.046809 -55.440004 
L 414.124468 -55.440004 
L 416.202128 -55.440004 
L 418.279787 -55.440004 
L 420.357447 -55.440004 
L 422.435106 -55.440004 
L 424.512766 -55.440004 
L 426.590426 -55.440004 
L 428.668085 -55.440004 
L 430.745745 -55.440004 
L 432.823404 -55.440004 
L 434.901064 -55.440004 
L 436.978723 -55.440004 
L 439.056383 -55.440004 
L 441.134043 -55.440004 
L 443.211702 -55.440004 
L 445.289362 -55.440004 
L 447.367021 -55.440004 
L 449.444681 -55.440004 
L 451.52234 -55.440004 
L 453.6 -55.440004 
L 455.67766 -55.440004 
L 457.755319 -55.440004 
L 459.832979 -55.440004 
L 461.910638 -55.440004 
L 463.988298 -55.440004 
L 463.988298 -98.14418 
L 463.988298 -98.14418 
L 461.910638 -98.844317 
L 459.832979 -98.125492 
L 457.755319 -97.773292 
L 455.67766 -97.524933 
L 453.6 -98.274457 
L 451.52234 -98.474801 
L 449.444681 -98.478461 
L 447.367021 -98.149758 
L 445.289362 -98.836757 
L 443.211702 -98.439916 
L 441.134043 -99.280497 
L 439.056383 -98.877694 
L 436.978723 -99.650178 
L 434.901064 -98.775795 
L 432.823404 -98.817434 
L 430.745745 -99.710132 
L 428.668085 -99.682905 
L 426.590426 -99.674899 
L 424.512766 -100.224804 
L 422.435106 -100.834943 
L 420.357447 -100.469646 
L 418.279787 -100.333807 
L 416.202128 -100.170128 
L 414.124468 -101.05202 
L 412.046809 -102.477474 
L 409.969149 -102.253263 
L 407.891489 -102.877479 
L 405.81383 -102.629793 
L 403.73617 -102.588569 
L 401.658511 -103.295491 
L 399.580851 -103.68512 
L 397.503191 -103.343731 
L 395.425532 -103.024249 
L 393.347872 -103.748653 
L 391.270213 -103.87696 
L 389.192553 -104.649778 
L 387.114894 -104.89181 
L 385.037234 -105.134376 
L 382.959574 -105.388284 
L 380.881915 -105.12128 
L 378.804255 -104.816641 
L 376.726596 -105.444126 
L 374.648936 -105.35944 
L 372.571277 -105.624277 
L 370.493617 -105.673653 
L 368.415957 -106.354658 
L 366.338298 -106.71357 
L 364.260638 -106.911271 
L 362.182979 -108.010608 
L 360.105319 -108.50971 
L 358.02766 -108.40778 
L 355.95 -107.846696 
L 353.87234 -107.801666 
L 351.794681 -108.407733 
L 349.717021 -109.073106 
L 347.639362 -109.017615 
L 345.561702 -109.585061 
L 343.484043 -109.324982 
L 341.406383 -109.937983 
L 339.328723 -110.507712 
L 337.251064 -110.861273 
L 335.173404 -110.848476 
L 333.095745 -110.71018 
L 331.018085 -110.622645 
L 328.940426 -110.208435 
L 326.862766 -111.313896 
L 324.785106 -111.432283 
L 322.707447 -111.7398 
L 320.629787 -112.234606 
L 318.552128 -112.341729 
L 316.474468 -112.292933 
L 314.396809 -112.142564 
L 312.319149 -112.439242 
L 310.241489 -113.20895 
L 308.16383 -114.168467 
L 306.08617 -115.105099 
L 304.008511 -117.056674 
L 301.930851 -118.980619 
L 299.853191 -120.896733 
L 297.775532 -122.872892 
L 295.697872 -125.076158 
L 293.620213 -128.357119 
L 291.542553 -131.571434 
L 289.464894 -135.335382 
L 287.387234 -138.754286 
L 285.309574 -143.198895 
L 283.231915 -147.497409 
L 281.154255 -153.242389 
L 279.076596 -160.039348 
L 276.998936 -166.470589 
L 274.921277 -173.764613 
L 272.843617 -181.938134 
L 270.765957 -190.475263 
L 268.688298 -200.217833 
L 266.610638 -209.931968 
L 264.532979 -220.535254 
L 262.455319 -231.101727 
L 260.37766 -243.051702 
L 258.3 -255.094998 
L 256.22234 -266.950553 
L 254.144681 -279.619428 
L 252.067021 -292.74303 
L 249.989362 -305.345179 
L 247.911702 -318.627205 
L 245.834043 -331.76366 
L 243.756383 -344.119043 
L 241.678723 -355.815454 
L 239.601064 -368.140957 
L 237.523404 -379.418238 
L 235.445745 -389.945752 
L 233.368085 -399.803124 
L 231.290426 -410.356112 
L 229.212766 -419.461995 
L 227.135106 -428.618143 
L 225.057447 -436.967229 
L 222.979787 -439.677622 
L 220.902128 -439.677624 
L 218.824468 -439.677624 
L 216.746809 -439.677624 
L 214.669149 -439.677624 
L 212.591489 -439.677624 
L 210.51383 -439.677624 
L 208.43617 -439.677624 
L 206.358511 -439.677624 
L 204.280851 -439.677624 
L 202.203191 -439.677624 
L 200.125532 -439.677624 
L 198.047872 -439.677624 
L 195.970213 -439.677624 
L 193.892553 -439.677624 
L 191.814894 -439.677624 
L 189.737234 -439.677624 
L 187.659574 -439.677624 
L 185.581915 -439.677624 
L 183.504255 -439.677624 
L 181.426596 -439.677624 
L 179.348936 -439.677624 
L 177.271277 -439.677624 
L 175.193617 -439.677624 
L 173.115957 -439.677624 
L 171.038298 -439.677624 
L 168.960638 -439.677624 
L 166.882979 -439.677624 
L 164.805319 -439.677624 
L 162.72766 -439.677624 
L 160.65 -439.677624 
L 158.57234 -439.677624 
L 156.494681 -439.677624 
L 154.417021 -439.677624 
L 152.339362 -439.677624 
L 150.261702 -439.677624 
L 148.184043 -439.677624 
L 146.106383 -439.677624 
L 144.028723 -439.677624 
L 141.951064 -439.677624 
L 139.873404 -439.677624 
L 137.795745 -439.677624 
L 135.718085 -439.677624 
L 133.640426 -439.677624 
L 131.562766 -439.677624 
L 129.485106 -439.677624 
L 127.407447 -439.677624 
L 125.329787 -439.677624 
L 123.252128 -439.677624 
L 121.174468 -439.677624 
L 119.096809 -439.677624 
L 117.019149 -439.677624 
L 114.941489 -439.677624 
L 112.86383 -439.677624 
L 110.78617 -439.677624 
L 108.708511 -439.677624 
L 106.630851 -439.677624 
L 104.553191 -439.677624 
L 102.475532 -439.677624 
L 100.397872 -439.677624 
L 98.320213 -439.677624 
L 96.242553 -439.677624 
L 94.164894 -439.677624 
L 92.087234 -439.677624 
L 90.009574 -439.677624 
L 87.931915 -439.677624 
L 85.854255 -439.677624 
L 83.776596 -439.677624 
L 81.698936 -439.677624 
L 79.621277 -439.431516 
L 77.543617 -432.915538 
L 75.465957 -424.721593 
L 73.388298 -416.893928 
L 71.310638 -408.049155 
L 69.232979 -398.235057 
L 67.155319 -388.520002 
L 65.07766 -379.020167 
L 63 -368.008391 
z
" style="stroke: #e377c2; stroke-opacity: 0.2"/>
    </defs>
    <g clip-path="url(#pff8db198f8)">
     <use xlink:href="#mb1c9de316d" x="0" y="504" style="fill: #e377c2; fill-opacity: 0.2; stroke: #e377c2; stroke-opacity: 0.2"/>
    </g>
   </g>
   <g id="matplotlib.axis_2">
    <g id="xtick_1">
     <g id="line2d_9">
      <defs>
       <path id="m78dad7d6c9" d="M 0 0 
L 0 3.5 
" style="stroke: #000000; stroke-width: 0.8"/>
      </defs>
      <g>
       <use xlink:href="#m78dad7d6c9" x="73.388298" y="448.56" style="stroke: #000000; stroke-width: 0.8"/>
      </g>
     </g>
     <g id="text_10">
      <text style="font-size: 16px; font-family: 'Arial', sans-serif; text-anchor: middle" x="73.388298" y="467.208438" transform="rotate(-0 73.388298 467.208438)">1 Jul</text>
     </g>
    </g>
    <g id="xtick_2">
     <g id="line2d_10">
      <g>
       <use xlink:href="#m78dad7d6c9" x="137.795745" y="448.56" style="stroke: #000000; stroke-width: 0.8"/>
      </g>
     </g>
     <g id="text_11">
      <text style="font-size: 16px; font-family: 'Arial', sans-serif; text-anchor: middle" x="137.795745" y="467.208438" transform="rotate(-0 137.795745 467.208438)">1 Aug</text>
     </g>
    </g>
    <g id="xtick_3">
     <g id="line2d_11">
      <g>
       <use xlink:href="#m78dad7d6c9" x="202.203191" y="448.56" style="stroke: #000000; stroke-width: 0.8"/>
      </g>
     </g>
     <g id="text_12">
      <text style="font-size: 16px; font-family: 'Arial', sans-serif; text-anchor: middle" x="202.203191" y="467.208438" transform="rotate(-0 202.203191 467.208438)">1 Sep</text>
     </g>
    </g>
    <g id="xtick_4">
     <g id="line2d_12">
      <g>
       <use xlink:href="#m78dad7d6c9" x="264.532979" y="448.56" style="stroke: #000000; stroke-width: 0.8"/>
      </g>
     </g>
     <g id="text_13">
      <text style="font-size: 16px; font-family: 'Arial', sans-serif; text-anchor: middle" x="264.532979" y="467.2175" transform="rotate(-0 264.532979 467.2175)">1 Oct</text>
     </g>
    </g>
    <g id="xtick_5">
     <g id="line2d_13">
      <g>
       <use xlink:href="#m78dad7d6c9" x="328.940426" y="448.56" style="stroke: #000000; stroke-width: 0.8"/>
      </g>
     </g>
     <g id="text_14">
      <text style="font-size: 16px; font-family: 'Arial', sans-serif; text-anchor: middle" x="328.940426" y="467.208438" transform="rotate(-0 328.940426 467.208438)">1 Nov</text>
     </g>
    </g>
    <g id="xtick_6">
     <g id="line2d_14">
      <g>
       <use xlink:href="#m78dad7d6c9" x="391.270213" y="448.56" style="stroke: #000000; stroke-width: 0.8"/>
      </g>
     </g>
     <g id="text_15">
      <text style="font-size: 16px; font-family: 'Arial', sans-serif; text-anchor: middle" x="391.270213" y="467.208438" transform="rotate(-0 391.270213 467.208438)">1 Dec</text>
     </g>
    </g>
    <g id="text_16">
     <text style="font-size: 16px; font-family: 'Arial', sans-serif; text-anchor: middle" x="258.3" y="486.233125" transform="rotate(-0 258.3 486.233125)">Date (2017)</text>
    </g>
   </g>
   <g id="matplotlib.axis_3">
    <g id="ytick_9">
     <g id="line2d_15">
      <defs>
       <path id="m9fcf0040ad" d="M 0 0 
L -3.5 0 
" style="stroke: #000000; stroke-width: 0.8"/>
      </defs>
      <g>
       <use xlink:href="#m9fcf0040ad" x="63" y="448.56" style="stroke: #000000; stroke-width: 0.8"/>
      </g>
     </g>
     <g id="text_17">
      <text style="font-size: 16px; font-family: 'Arial', sans-serif; text-anchor: end" x="56" y="454.384219" transform="rotate(-0 56 454.384219)">0.0</text>
     </g>
    </g>
    <g id="ytick_10">
     <g id="line2d_16">
      <g>
       <use xlink:href="#m9fcf0040ad" x="63" y="371.712475" style="stroke: #000000; stroke-width: 0.8"/>
      </g>
     </g>
     <g id="text_18">
      <text style="font-size: 16px; font-family: 'Arial', sans-serif; text-anchor: end" x="56" y="377.536694" transform="rotate(-0 56 377.536694)">0.2</text>
     </g>
    </g>
    <g id="ytick_11">
     <g id="line2d_17">
      <g>
       <use xlink:href="#m9fcf0040ad" x="63" y="294.86495" style="stroke: #000000; stroke-width: 0.8"/>
      </g>
     </g>
     <g id="text_19">
      <text style="font-size: 16px; font-family: 'Arial', sans-serif; text-anchor: end" x="56" y="300.689169" transform="rotate(-0 56 300.689169)">0.4</text>
     </g>
    </g>
    <g id="ytick_12">
     <g id="line2d_18">
      <g>
       <use xlink:href="#m9fcf0040ad" x="63" y="218.017426" style="stroke: #000000; stroke-width: 0.8"/>
      </g>
     </g>
     <g id="text_20">
      <text style="font-size: 16px; font-family: 'Arial', sans-serif; text-anchor: end" x="56" y="223.841644" transform="rotate(-0 56 223.841644)">0.6</text>
     </g>
    </g>
    <g id="ytick_13">
     <g id="line2d_19">
      <g>
       <use xlink:href="#m9fcf0040ad" x="63" y="141.169901" style="stroke: #000000; stroke-width: 0.8"/>
      </g>
     </g>
     <g id="text_21">
      <text style="font-size: 16px; font-family: 'Arial', sans-serif; text-anchor: end" x="56" y="146.99412" transform="rotate(-0 56 146.99412)">0.8</text>
     </g>
    </g>
    <g id="ytick_14">
     <g id="line2d_20">
      <g>
       <use xlink:href="#m9fcf0040ad" x="63" y="64.322376" style="stroke: #000000; stroke-width: 0.8"/>
      </g>
     </g>
     <g id="text_22">
      <text style="font-size: 16px; font-family: 'Arial', sans-serif; text-anchor: end" x="56" y="70.146595" transform="rotate(-0 56 70.146595)">1.0</text>
     </g>
    </g>
    <g id="text_23">
     <text style="font-size: 16px; font-family: 'Arial', sans-serif; text-anchor: middle" x="26.3925" y="254.52" transform="rotate(-90 26.3925 254.52)">Temperature suitability for transmission</text>
    </g>
   </g>
   <g id="line2d_21">
    <path d="M 63 173.487596 
L 65.07766 162.498423 
L 69.232979 142.219958 
L 73.388298 124.359606 
L 75.465957 115.892879 
L 77.543617 108.040047 
L 79.621277 100.998001 
L 81.698936 94.729208 
L 83.776596 89.153184 
L 85.854255 84.505396 
L 87.931915 80.735526 
L 90.009574 77.657062 
L 92.087234 75.290298 
L 94.164894 73.520333 
L 96.242553 72.315792 
L 98.320213 71.476706 
L 102.475532 70.384263 
L 106.630851 70.174182 
L 108.708511 70.27272 
L 112.86383 70.779316 
L 117.019149 71.973519 
L 123.252128 74.364565 
L 131.562766 78.714836 
L 133.640426 79.56582 
L 137.795745 81.543707 
L 139.873404 82.381425 
L 144.028723 83.755773 
L 146.106383 84.306571 
L 148.184043 84.647578 
L 150.261702 84.836952 
L 154.417021 84.736902 
L 156.494681 84.43151 
L 158.57234 83.884008 
L 162.72766 82.317936 
L 164.805319 81.395533 
L 168.960638 79.171926 
L 171.038298 77.923966 
L 177.271277 74.676794 
L 181.426596 72.534661 
L 185.581915 70.960938 
L 189.737234 69.699847 
L 191.814894 69.173225 
L 195.970213 68.662383 
L 200.125532 68.470861 
L 202.203191 68.51391 
L 206.358511 69.267265 
L 208.43617 69.961333 
L 210.51383 71.125141 
L 212.591489 72.828326 
L 214.669149 75.369884 
L 216.746809 78.637842 
L 218.824468 83.083988 
L 220.902128 88.368695 
L 222.979787 94.845006 
L 225.057447 102.433236 
L 227.135106 110.875493 
L 231.290426 129.022106 
L 233.368085 138.661049 
L 235.445745 149.19656 
L 239.601064 171.951545 
L 247.911702 221.858502 
L 252.067021 247.623234 
L 256.22234 271.810525 
L 260.37766 295.06009 
L 264.532979 316.927429 
L 266.610638 327.175922 
L 268.688298 336.828734 
L 272.843617 353.780536 
L 274.921277 361.633481 
L 276.998936 368.963377 
L 279.076596 375.544662 
L 281.154255 381.689224 
L 283.231915 386.995766 
L 285.309574 391.851892 
L 287.387234 396.017065 
L 289.464894 399.552719 
L 293.620213 405.299023 
L 295.697872 408.007903 
L 297.775532 410.252154 
L 299.853191 412.042821 
L 301.930851 413.382632 
L 304.008511 415.045399 
L 306.08617 416.391549 
L 308.16383 417.445406 
L 310.241489 418.218352 
L 312.319149 418.759247 
L 314.396809 419.144219 
L 316.474468 419.320162 
L 318.552128 419.363375 
L 320.629787 419.217234 
L 322.707447 418.923752 
L 326.862766 419.658923 
L 333.095745 420.158666 
L 335.173404 420.284113 
L 337.251064 420.27764 
L 343.484043 422.74325 
L 347.639362 424.194087 
L 353.87234 425.974833 
L 360.105319 427.478191 
L 368.415957 429.220976 
L 374.648936 430.311264 
L 382.959574 431.589972 
L 397.503191 433.419402 
L 418.279787 435.36571 
L 430.745745 436.24004 
L 449.444681 437.299156 
L 453.6 437.493129 
L 453.6 437.493129 
" clip-path="url(#pff8db198f8)" style="fill: none; stroke: #0173b2; stroke-width: 2; stroke-linecap: square"/>
   </g>
   <g id="line2d_22">
    <path d="M 63 173.847978 
L 67.155319 152.662005 
L 69.232979 142.659391 
L 73.388298 124.72589 
L 75.465957 116.307947 
L 77.543617 108.401632 
L 79.621277 101.389602 
L 81.698936 95.027836 
L 83.776596 89.395641 
L 85.854255 84.727338 
L 87.931915 80.85957 
L 90.009574 77.689483 
L 92.087234 75.274423 
L 94.164894 73.56058 
L 96.242553 72.230251 
L 98.320213 71.372683 
L 102.475532 70.179999 
L 106.630851 69.913712 
L 110.78617 70.137629 
L 112.86383 70.469487 
L 117.019149 71.657836 
L 123.252128 74.33223 
L 125.329787 75.405073 
L 129.485106 77.749183 
L 137.795745 81.599119 
L 141.951064 83.226263 
L 144.028723 83.991131 
L 146.106383 84.493438 
L 150.261702 85.185891 
L 152.339362 85.20484 
L 154.417021 85.068416 
L 156.494681 84.719823 
L 158.57234 84.177482 
L 162.72766 82.568895 
L 164.805319 81.662304 
L 166.882979 80.571663 
L 168.960638 79.279924 
L 175.193617 76.143119 
L 177.271277 74.828806 
L 181.426596 72.617703 
L 185.581915 70.965834 
L 189.737234 69.677709 
L 191.814894 69.123473 
L 193.892553 68.819891 
L 195.970213 68.64113 
L 202.203191 68.499375 
L 206.358511 69.32373 
L 208.43617 70.04648 
L 210.51383 71.173996 
L 212.591489 72.884134 
L 214.669149 75.523776 
L 216.746809 78.815079 
L 218.824468 83.233265 
L 220.902128 88.473276 
L 222.979787 94.982844 
L 225.057447 102.494878 
L 227.135106 111.024442 
L 231.290426 129.257743 
L 233.368085 138.849214 
L 235.445745 149.281625 
L 239.601064 172.098662 
L 247.911702 221.895293 
L 252.067021 247.641393 
L 256.22234 272.00765 
L 260.37766 295.300961 
L 264.532979 317.251272 
L 266.610638 327.524161 
L 268.688298 337.149149 
L 270.765957 345.841514 
L 274.921277 361.919634 
L 276.998936 369.218557 
L 279.076596 375.849777 
L 281.154255 381.964259 
L 283.231915 387.290514 
L 285.309574 392.168223 
L 287.387234 396.362628 
L 289.464894 399.941926 
L 291.542553 402.954934 
L 295.697872 408.391875 
L 297.775532 410.653732 
L 299.853191 412.461934 
L 301.930851 413.814603 
L 304.008511 415.450159 
L 306.08617 416.72834 
L 310.241489 418.501744 
L 312.319149 419.11491 
L 314.396809 419.460064 
L 316.474468 419.606053 
L 318.552128 419.595358 
L 322.707447 419.194929 
L 326.862766 419.994988 
L 331.018085 420.350461 
L 335.173404 420.485709 
L 337.251064 420.471955 
L 341.406383 422.256892 
L 345.561702 423.804265 
L 351.794681 425.765812 
L 360.105319 427.841656 
L 370.493617 429.952277 
L 372.571277 430.218411 
L 374.648936 430.603711 
L 389.192553 432.5583 
L 397.503191 433.646487 
L 409.969149 434.590992 
L 414.124468 434.889938 
L 420.357447 435.311387 
L 428.668085 435.922086 
L 441.134043 436.881116 
L 443.211702 437.111606 
L 445.289362 437.112264 
L 447.367021 437.30809 
L 449.444681 437.285616 
L 459.832979 437.788261 
L 461.910638 437.771696 
L 463.988298 437.874574 
L 463.988298 437.874574 
" clip-path="url(#pff8db198f8)" style="fill: none; stroke-dasharray: 7.4,3.2; stroke-dashoffset: 0; stroke: #e377c2; stroke-width: 2"/>
   </g>
   <g id="line2d_23">
    <path d="M 63 178.128047 
L 67.155319 156.957833 
L 69.232979 146.874615 
L 73.388298 128.708912 
L 75.465957 120.134184 
L 77.543617 112.116209 
L 79.621277 104.844046 
L 81.698936 98.233736 
L 83.776596 92.054952 
L 85.854255 86.568188 
L 87.931915 81.763052 
L 90.009574 77.458681 
L 92.087234 73.821014 
L 94.164894 70.839101 
L 96.242553 68.51512 
L 98.320213 66.885523 
L 100.397872 65.66449 
L 102.475532 64.636645 
L 104.553191 64.419061 
L 106.630851 64.344955 
L 108.708511 64.641377 
L 110.78617 65.20864 
L 112.86383 65.977203 
L 117.019149 68.709289 
L 123.252128 73.312065 
L 129.485106 78.757817 
L 135.718085 82.94073 
L 137.795745 84.319466 
L 139.873404 85.518622 
L 141.951064 86.5371 
L 144.028723 87.429957 
L 146.106383 88.150739 
L 148.184043 88.669461 
L 150.261702 88.985342 
L 152.339362 89.097711 
L 154.417021 89.006007 
L 156.494681 88.709781 
L 158.57234 88.208696 
L 160.65 87.502529 
L 162.72766 86.612582 
L 164.805319 85.599163 
L 166.882979 84.399615 
L 175.193617 78.762676 
L 177.271277 77.041617 
L 181.426596 73.223522 
L 187.659574 68.496415 
L 189.737234 67.05172 
L 191.814894 65.828434 
L 193.892553 65.0267 
L 195.970213 64.510862 
L 198.047872 64.364242 
L 200.125532 64.492091 
L 202.203191 64.921346 
L 206.358511 67.465313 
L 208.43617 69.553755 
L 210.51383 72.39208 
L 212.591489 75.890108 
L 214.669149 80.22614 
L 216.746809 85.075853 
L 218.824468 90.701992 
L 220.902128 97.097462 
L 222.979787 104.079818 
L 225.057447 111.708319 
L 227.135106 120.215428 
L 231.290426 138.853355 
L 233.368085 148.937596 
L 237.523404 171.114639 
L 241.678723 195.418147 
L 247.911702 233.262769 
L 254.144681 272.344074 
L 260.37766 309.249448 
L 264.532979 332.298761 
L 268.688298 353.240184 
L 272.843617 371.772277 
L 274.921277 380.216374 
L 276.998936 388.087184 
L 279.076596 395.353197 
L 281.154255 402.019824 
L 283.231915 408.111639 
L 285.309574 413.572529 
L 287.387234 418.469276 
L 289.464894 422.824363 
L 291.542553 426.755661 
L 293.620213 430.17772 
L 295.697872 433.130832 
L 297.775532 435.740096 
L 299.853191 438.017693 
L 301.930851 439.935044 
L 304.008511 441.561864 
L 306.08617 442.957198 
L 308.16383 444.122461 
L 310.241489 445.080207 
L 312.319149 445.847326 
L 314.396809 446.482437 
L 318.552128 447.38425 
L 322.707447 447.928527 
L 326.862766 448.244779 
L 333.095745 448.466771 
L 343.484043 448.554457 
L 422.435106 448.56 
L 453.6 448.56 
L 453.6 448.56 
" clip-path="url(#pff8db198f8)" style="fill: none; stroke-dasharray: 2,3.3; stroke-dashoffset: 0; stroke: #000000; stroke-width: 2"/>
   </g>
   <g id="patch_193">
    <path d="M 63 448.56 
L 63 60.48 
" style="fill: none; stroke: #000000; stroke-width: 0.8; stroke-linejoin: miter; stroke-linecap: square"/>
   </g>
   <g id="patch_194">
    <path d="M 63 448.56 
L 453.6 448.56 
" style="fill: none; stroke: #000000; stroke-width: 0.8; stroke-linejoin: miter; stroke-linecap: square"/>
   </g>
   <g id="legend_1">
    <g id="patch_195">
     <path d="M 300.960625 132.096563 
L 443.8 132.096563 
Q 446.6 132.096563 446.6 129.296562 
L 446.6 70.28 
Q 446.6 67.48 443.8 67.48 
L 300.960625 67.48 
Q 298.160625 67.48 298.160625 70.28 
L 298.160625 129.296562 
Q 298.160625 132.096563 300.960625 132.096563 
z
" style="fill: #ffffff; opacity: 0.8; stroke: #cccccc; stroke-linejoin: miter"/>
    </g>
    <g id="line2d_24">
     <path d="M 303.760625 78.372383 
L 317.760625 78.372383 
L 331.760625 78.372383 
" style="fill: none; stroke: #0173b2; stroke-width: 2; stroke-linecap: square"/>
    </g>
    <g id="text_24">
     <text style="font-size: 14px; font-family: 'Arial', sans-serif; text-anchor: start" x="342.960625" y="83.272383" transform="rotate(-0 342.960625 83.272383)">Under-reporting</text>
    </g>
    <g id="line2d_25">
     <path d="M 303.760625 98.511328 
L 317.760625 98.511328 
L 331.760625 98.511328 
" style="fill: none; stroke-dasharray: 7.4,3.2; stroke-dashoffset: 0; stroke: #e377c2; stroke-width: 2"/>
    </g>
    <g id="text_25">
     <text style="font-size: 14px; font-family: 'Arial', sans-serif; text-anchor: start" x="342.960625" y="103.411328" transform="rotate(-0 342.960625 103.411328)">Full reporting</text>
    </g>
    <g id="line2d_26">
     <path d="M 303.760625 118.650273 
L 317.760625 118.650273 
L 331.760625 118.650273 
" style="fill: none; stroke-dasharray: 2,3.3; stroke-dashoffset: 0; stroke: #000000; stroke-width: 2"/>
    </g>
    <g id="text_26">
     <text style="font-size: 14px; font-family: 'Arial', sans-serif; text-anchor: start" x="342.960625" y="123.550273" transform="rotate(-0 342.960625 123.550273)">Seasonal prior</text>
    </g>
   </g>
  </g>
 </g>
 <defs>
  <clipPath id="pff8db198f8">
   <rect x="63" y="60.48" width="390.6" height="388.08"/>
  </clipPath>
 </defs>
</svg>
