<?xml version="1.0" encoding="utf-8" standalone="no"?>
<!DOCTYPE svg PUBLIC "-//W3C//DTD SVG 1.1//EN"
  "http://www.w3.org/Graphics/SVG/1.1/DTD/svg11.dtd">
<svg xmlns:xlink="http://www.w3.org/1999/xlink" width="504pt" height="504pt" viewBox="0 0 504 504" xmlns="http://www.w3.org/2000/svg" version="1.1">
 <metadata>
  <rdf:RDF xmlns:dc="http://purl.org/dc/elements/1.1/" xmlns:cc="http://creativecommons.org/ns#" xmlns:rdf="http://www.w3.org/1999/02/22-rdf-syntax-ns#">
   <cc:Work>
    <dc:type rdf:resource="http://purl.org/dc/dcmitype/StillImage"/>
    <dc:date>2026-07-13T19:48:26.548990</dc:date>
    <dc:format>image/svg+xml</dc:format>
    <dc:creator>
     <cc:Agent>
      <dc:title>Matplotlib v3.11.0, https://matplotlib.org/</dc:title>
     </cc:Agent>
    </dc:creator>
   </cc:Work>
  </rdf:RDF>
 </metadata>
 <defs>
  <style type="text/css">*{stroke-linejoin: round; stroke-linecap: butt}</style>
 </defs>
 <g id="figure_1">
  <g id="patch_1">
   <path d="M 0 504 
L 504 504 
L 504 0 
L 0 0 
L 0 504 
z
" style="fill: none"/>
  </g>
  <g id="axes_1">
   <g id="patch_2">
    <path d="M 63 448.56 
L 453.6 448.56 
L 453.6 60.48 
L 63 60.48 
L 63 448.56 
z
" style="fill: none"/>
   </g>
   <g id="matplotlib.axis_1">
    <g id="ytick_1">
     <g id="line2d_1">
      <defs>
       <path id="me09f05e332" d="M 0 0 
L 3.5 0 
" style="stroke: #7f7f7f; stroke-width: 0.8"/>
      </defs>
      <g>
       <use xlink:href="#me09f05e332" x="453.6" y="448.56" style="fill: #7f7f7f; stroke: #7f7f7f; stroke-width: 0.8"/>
      </g>
     </g>
     <g id="text_1">
      <text style="font-size: 16px; font-family: 'Arial', sans-serif; text-anchor: start; fill: #7f7f7f" x="460.6" y="454.638125" transform="rotate(-0 460.6 454.638125)">0</text>
     </g>
    </g>
    <g id="ytick_2">
     <g id="line2d_2">
      <g>
       <use xlink:href="#me09f05e332" x="453.6" y="396.816" style="fill: #7f7f7f; stroke: #7f7f7f; stroke-width: 0.8"/>
      </g>
     </g>
     <g id="text_2">
      <text style="font-size: 16px; font-family: 'Arial', sans-serif; text-anchor: start; fill: #7f7f7f" x="460.6" y="402.894125" transform="rotate(-0 460.6 402.894125)">2</text>
     </g>
    </g>
    <g id="ytick_3">
     <g id="line2d_3">
      <g>
       <use xlink:href="#me09f05e332" x="453.6" y="345.072" style="fill: #7f7f7f; stroke: #7f7f7f; stroke-width: 0.8"/>
      </g>
     </g>
     <g id="text_3">
      <text style="font-size: 16px; font-family: 'Arial', sans-serif; text-anchor: start; fill: #7f7f7f" x="460.6" y="351.150125" transform="rotate(-0 460.6 351.150125)">4</text>
     </g>
    </g>
    <g id="ytick_4">
     <g id="line2d_4">
      <g>
       <use xlink:href="#me09f05e332" x="453.6" y="293.328" style="fill: #7f7f7f; stroke: #7f7f7f; stroke-width: 0.8"/>
      </g>
     </g>
     <g id="text_4">
      <text style="font-size: 16px; font-family: 'Arial', sans-serif; text-anchor: start; fill: #7f7f7f" x="460.6" y="299.406125" transform="rotate(-0 460.6 299.406125)">6</text>
     </g>
    </g>
    <g id="ytick_5">
     <g id="line2d_5">
      <g>
       <use xlink:href="#me09f05e332" x="453.6" y="241.584" style="fill: #7f7f7f; stroke: #7f7f7f; stroke-width: 0.8"/>
      </g>
     </g>
     <g id="text_5">
      <text style="font-size: 16px; font-family: 'Arial', sans-serif; text-anchor: start; fill: #7f7f7f" x="460.6" y="247.662125" transform="rotate(-0 460.6 247.662125)">8</text>
     </g>
    </g>
    <g id="ytick_6">
     <g id="line2d_6">
      <g>
       <use xlink:href="#me09f05e332" x="453.6" y="189.84" style="fill: #7f7f7f; stroke: #7f7f7f; stroke-width: 0.8"/>
      </g>
     </g>
     <g id="text_6">
      <text style="font-size: 16px; font-family: 'Arial', sans-serif; text-anchor: start; fill: #7f7f7f" x="460.6" y="195.918125" transform="rotate(-0 460.6 195.918125)">10</text>
     </g>
    </g>
    <g id="ytick_7">
     <g id="line2d_7">
      <g>
       <use xlink:href="#me09f05e332" x="453.6" y="138.096" style="fill: #7f7f7f; stroke: #7f7f7f; stroke-width: 0.8"/>
      </g>
     </g>
     <g id="text_7">
      <text style="font-size: 16px; font-family: 'Arial', sans-serif; text-anchor: start; fill: #7f7f7f" x="460.6" y="144.174125" transform="rotate(-0 460.6 144.174125)">12</text>
     </g>
    </g>
    <g id="ytick_8">
     <g id="line2d_8">
      <g>
       <use xlink:href="#me09f05e332" x="453.6" y="86.352" style="fill: #7f7f7f; stroke: #7f7f7f; stroke-width: 0.8"/>
      </g>
     </g>
     <g id="text_8">
      <text style="font-size: 16px; font-family: 'Arial', sans-serif; text-anchor: start; fill: #7f7f7f" x="460.6" y="92.430125" transform="rotate(-0 460.6 92.430125)">14</text>
     </g>
    </g>
    <g id="text_9">
     <text style="font-size: 16px; font-family: 'Arial', sans-serif; text-anchor: middle; fill: #7f7f7f" x="497.1175" y="254.52" transform="rotate(-90 497.1175 254.52)">Number of cases</text>
    </g>
   </g>
   <g id="patch_3">
    <path d="M 62.102069 448.56 
L 63.897931 448.56 
L 63.897931 396.816 
L 62.102069 396.816 
z
" clip-path="url(#pe2cbf8bba0)" style="fill: #7f7f7f; opacity: 0.5"/>
   </g>
   <g id="patch_4">
    <path d="M 64.346897 448.56 
L 66.142759 448.56 
L 66.142759 396.816 
L 64.346897 396.816 
z
" clip-path="url(#pe2cbf8bba0)" style="fill: #7f7f7f; opacity: 0.5"/>
   </g>
   <g id="patch_5">
    <path d="M 66.591724 448.56 
L 68.387586 448.56 
L 68.387586 396.816 
L 66.591724 396.816 
z
" clip-path="url(#pe2cbf8bba0)" style="fill: #7f7f7f; opacity: 0.5"/>
   </g>
   <g id="patch_6">
    <path d="M 68.836552 448.56 
L 70.632414 448.56 
L 70.632414 448.56 
L 68.836552 448.56 
z
" clip-path="url(#pe2cbf8bba0)" style="fill: #7f7f7f; opacity: 0.5"/>
   </g>
   <g id="patch_7">
    <path d="M 71.081379 448.56 
L 72.877241 448.56 
L 72.877241 448.56 
L 71.081379 448.56 
z
" clip-path="url(#pe2cbf8bba0)" style="fill: #7f7f7f; opacity: 0.5"/>
   </g>
   <g id="patch_8">
    <path d="M 73.326207 448.56 
L 75.122069 448.56 
L 75.122069 448.56 
L 73.326207 448.56 
z
" clip-path="url(#pe2cbf8bba0)" style="fill: #7f7f7f; opacity: 0.5"/>
   </g>
   <g id="patch_9">
    <path d="M 75.571034 448.56 
L 77.366897 448.56 
L 77.366897 448.56 
L 75.571034 448.56 
z
" clip-path="url(#pe2cbf8bba0)" style="fill: #7f7f7f; opacity: 0.5"/>
   </g>
   <g id="patch_10">
    <path d="M 77.815862 448.56 
L 79.611724 448.56 
L 79.611724 448.56 
L 77.815862 448.56 
z
" clip-path="url(#pe2cbf8bba0)" style="fill: #7f7f7f; opacity: 0.5"/>
   </g>
   <g id="patch_11">
    <path d="M 80.06069 448.56 
L 81.856552 448.56 
L 81.856552 448.56 
L 80.06069 448.56 
z
" clip-path="url(#pe2cbf8bba0)" style="fill: #7f7f7f; opacity: 0.5"/>
   </g>
   <g id="patch_12">
    <path d="M 82.305517 448.56 
L 84.101379 448.56 
L 84.101379 422.688 
L 82.305517 422.688 
z
" clip-path="url(#pe2cbf8bba0)" style="fill: #7f7f7f; opacity: 0.5"/>
   </g>
   <g id="patch_13">
    <path d="M 84.550345 448.56 
L 86.346207 448.56 
L 86.346207 448.56 
L 84.550345 448.56 
z
" clip-path="url(#pe2cbf8bba0)" style="fill: #7f7f7f; opacity: 0.5"/>
   </g>
   <g id="patch_14">
    <path d="M 86.795172 448.56 
L 88.591034 448.56 
L 88.591034 448.56 
L 86.795172 448.56 
z
" clip-path="url(#pe2cbf8bba0)" style="fill: #7f7f7f; opacity: 0.5"/>
   </g>
   <g id="patch_15">
    <path d="M 89.04 448.56 
L 90.835862 448.56 
L 90.835862 448.56 
L 89.04 448.56 
z
" clip-path="url(#pe2cbf8bba0)" style="fill: #7f7f7f; opacity: 0.5"/>
   </g>
   <g id="patch_16">
    <path d="M 91.284828 448.56 
L 93.08069 448.56 
L 93.08069 448.56 
L 91.284828 448.56 
z
" clip-path="url(#pe2cbf8bba0)" style="fill: #7f7f7f; opacity: 0.5"/>
   </g>
   <g id="patch_17">
    <path d="M 93.529655 448.56 
L 95.325517 448.56 
L 95.325517 448.56 
L 93.529655 448.56 
z
" clip-path="url(#pe2cbf8bba0)" style="fill: #7f7f7f; opacity: 0.5"/>
   </g>
   <g id="patch_18">
    <path d="M 95.774483 448.56 
L 97.570345 448.56 
L 97.570345 448.56 
L 95.774483 448.56 
z
" clip-path="url(#pe2cbf8bba0)" style="fill: #7f7f7f; opacity: 0.5"/>
   </g>
   <g id="patch_19">
    <path d="M 98.01931 448.56 
L 99.815172 448.56 
L 99.815172 448.56 
L 98.01931 448.56 
z
" clip-path="url(#pe2cbf8bba0)" style="fill: #7f7f7f; opacity: 0.5"/>
   </g>
   <g id="patch_20">
    <path d="M 100.264138 448.56 
L 102.06 448.56 
L 102.06 448.56 
L 100.264138 448.56 
z
" clip-path="url(#pe2cbf8bba0)" style="fill: #7f7f7f; opacity: 0.5"/>
   </g>
   <g id="patch_21">
    <path d="M 102.508966 448.56 
L 104.304828 448.56 
L 104.304828 448.56 
L 102.508966 448.56 
z
" clip-path="url(#pe2cbf8bba0)" style="fill: #7f7f7f; opacity: 0.5"/>
   </g>
   <g id="patch_22">
    <path d="M 104.753793 448.56 
L 106.549655 448.56 
L 106.549655 422.688 
L 104.753793 422.688 
z
" clip-path="url(#pe2cbf8bba0)" style="fill: #7f7f7f; opacity: 0.5"/>
   </g>
   <g id="patch_23">
    <path d="M 106.998621 448.56 
L 108.794483 448.56 
L 108.794483 448.56 
L 106.998621 448.56 
z
" clip-path="url(#pe2cbf8bba0)" style="fill: #7f7f7f; opacity: 0.5"/>
   </g>
   <g id="patch_24">
    <path d="M 109.243448 448.56 
L 111.03931 448.56 
L 111.03931 448.56 
L 109.243448 448.56 
z
" clip-path="url(#pe2cbf8bba0)" style="fill: #7f7f7f; opacity: 0.5"/>
   </g>
   <g id="patch_25">
    <path d="M 111.488276 448.56 
L 113.284138 448.56 
L 113.284138 422.688 
L 111.488276 422.688 
z
" clip-path="url(#pe2cbf8bba0)" style="fill: #7f7f7f; opacity: 0.5"/>
   </g>
   <g id="patch_26">
    <path d="M 113.733103 448.56 
L 115.528966 448.56 
L 115.528966 448.56 
L 113.733103 448.56 
z
" clip-path="url(#pe2cbf8bba0)" style="fill: #7f7f7f; opacity: 0.5"/>
   </g>
   <g id="patch_27">
    <path d="M 115.977931 448.56 
L 117.773793 448.56 
L 117.773793 422.688 
L 115.977931 422.688 
z
" clip-path="url(#pe2cbf8bba0)" style="fill: #7f7f7f; opacity: 0.5"/>
   </g>
   <g id="patch_28">
    <path d="M 118.222759 448.56 
L 120.018621 448.56 
L 120.018621 448.56 
L 118.222759 448.56 
z
" clip-path="url(#pe2cbf8bba0)" style="fill: #7f7f7f; opacity: 0.5"/>
   </g>
   <g id="patch_29">
    <path d="M 120.467586 448.56 
L 122.263448 448.56 
L 122.263448 422.688 
L 120.467586 422.688 
z
" clip-path="url(#pe2cbf8bba0)" style="fill: #7f7f7f; opacity: 0.5"/>
   </g>
   <g id="patch_30">
    <path d="M 122.712414 448.56 
L 124.508276 448.56 
L 124.508276 448.56 
L 122.712414 448.56 
z
" clip-path="url(#pe2cbf8bba0)" style="fill: #7f7f7f; opacity: 0.5"/>
   </g>
   <g id="patch_31">
    <path d="M 124.957241 448.56 
L 126.753103 448.56 
L 126.753103 422.688 
L 124.957241 422.688 
z
" clip-path="url(#pe2cbf8bba0)" style="fill: #7f7f7f; opacity: 0.5"/>
   </g>
   <g id="patch_32">
    <path d="M 127.202069 448.56 
L 128.997931 448.56 
L 128.997931 422.688 
L 127.202069 422.688 
z
" clip-path="url(#pe2cbf8bba0)" style="fill: #7f7f7f; opacity: 0.5"/>
   </g>
   <g id="patch_33">
    <path d="M 129.446897 448.56 
L 131.242759 448.56 
L 131.242759 448.56 
L 129.446897 448.56 
z
" clip-path="url(#pe2cbf8bba0)" style="fill: #7f7f7f; opacity: 0.5"/>
   </g>
   <g id="patch_34">
    <path d="M 131.691724 448.56 
L 133.487586 448.56 
L 133.487586 422.688 
L 131.691724 422.688 
z
" clip-path="url(#pe2cbf8bba0)" style="fill: #7f7f7f; opacity: 0.5"/>
   </g>
   <g id="patch_35">
    <path d="M 133.936552 448.56 
L 135.732414 448.56 
L 135.732414 422.688 
L 133.936552 422.688 
z
" clip-path="url(#pe2cbf8bba0)" style="fill: #7f7f7f; opacity: 0.5"/>
   </g>
   <g id="patch_36">
    <path d="M 136.181379 448.56 
L 137.977241 448.56 
L 137.977241 448.56 
L 136.181379 448.56 
z
" clip-path="url(#pe2cbf8bba0)" style="fill: #7f7f7f; opacity: 0.5"/>
   </g>
   <g id="patch_37">
    <path d="M 138.426207 448.56 
L 140.222069 448.56 
L 140.222069 422.688 
L 138.426207 422.688 
z
" clip-path="url(#pe2cbf8bba0)" style="fill: #7f7f7f; opacity: 0.5"/>
   </g>
   <g id="patch_38">
    <path d="M 140.671034 448.56 
L 142.466897 448.56 
L 142.466897 448.56 
L 140.671034 448.56 
z
" clip-path="url(#pe2cbf8bba0)" style="fill: #7f7f7f; opacity: 0.5"/>
   </g>
   <g id="patch_39">
    <path d="M 142.915862 448.56 
L 144.711724 448.56 
L 144.711724 448.56 
L 142.915862 448.56 
z
" clip-path="url(#pe2cbf8bba0)" style="fill: #7f7f7f; opacity: 0.5"/>
   </g>
   <g id="patch_40">
    <path d="M 145.16069 448.56 
L 146.956552 448.56 
L 146.956552 370.944 
L 145.16069 370.944 
z
" clip-path="url(#pe2cbf8bba0)" style="fill: #7f7f7f; opacity: 0.5"/>
   </g>
   <g id="patch_41">
    <path d="M 147.405517 448.56 
L 149.201379 448.56 
L 149.201379 396.816 
L 147.405517 396.816 
z
" clip-path="url(#pe2cbf8bba0)" style="fill: #7f7f7f; opacity: 0.5"/>
   </g>
   <g id="patch_42">
    <path d="M 149.650345 448.56 
L 151.446207 448.56 
L 151.446207 422.688 
L 149.650345 422.688 
z
" clip-path="url(#pe2cbf8bba0)" style="fill: #7f7f7f; opacity: 0.5"/>
   </g>
   <g id="patch_43">
    <path d="M 151.895172 448.56 
L 153.691034 448.56 
L 153.691034 422.688 
L 151.895172 422.688 
z
" clip-path="url(#pe2cbf8bba0)" style="fill: #7f7f7f; opacity: 0.5"/>
   </g>
   <g id="patch_44">
    <path d="M 154.14 448.56 
L 155.935862 448.56 
L 155.935862 422.688 
L 154.14 422.688 
z
" clip-path="url(#pe2cbf8bba0)" style="fill: #7f7f7f; opacity: 0.5"/>
   </g>
   <g id="patch_45">
    <path d="M 156.384828 448.56 
L 158.18069 448.56 
L 158.18069 422.688 
L 156.384828 422.688 
z
" clip-path="url(#pe2cbf8bba0)" style="fill: #7f7f7f; opacity: 0.5"/>
   </g>
   <g id="patch_46">
    <path d="M 158.629655 448.56 
L 160.425517 448.56 
L 160.425517 370.944 
L 158.629655 370.944 
z
" clip-path="url(#pe2cbf8bba0)" style="fill: #7f7f7f; opacity: 0.5"/>
   </g>
   <g id="patch_47">
    <path d="M 160.874483 448.56 
L 162.670345 448.56 
L 162.670345 448.56 
L 160.874483 448.56 
z
" clip-path="url(#pe2cbf8bba0)" style="fill: #7f7f7f; opacity: 0.5"/>
   </g>
   <g id="patch_48">
    <path d="M 163.11931 448.56 
L 164.915172 448.56 
L 164.915172 422.688 
L 163.11931 422.688 
z
" clip-path="url(#pe2cbf8bba0)" style="fill: #7f7f7f; opacity: 0.5"/>
   </g>
   <g id="patch_49">
    <path d="M 165.364138 448.56 
L 167.16 448.56 
L 167.16 422.688 
L 165.364138 422.688 
z
" clip-path="url(#pe2cbf8bba0)" style="fill: #7f7f7f; opacity: 0.5"/>
   </g>
   <g id="patch_50">
    <path d="M 167.608966 448.56 
L 169.404828 448.56 
L 169.404828 345.072 
L 167.608966 345.072 
z
" clip-path="url(#pe2cbf8bba0)" style="fill: #7f7f7f; opacity: 0.5"/>
   </g>
   <g id="patch_51">
    <path d="M 169.853793 448.56 
L 171.649655 448.56 
L 171.649655 370.944 
L 169.853793 370.944 
z
" clip-path="url(#pe2cbf8bba0)" style="fill: #7f7f7f; opacity: 0.5"/>
   </g>
   <g id="patch_52">
    <path d="M 172.098621 448.56 
L 173.894483 448.56 
L 173.894483 370.944 
L 172.098621 370.944 
z
" clip-path="url(#pe2cbf8bba0)" style="fill: #7f7f7f; opacity: 0.5"/>
   </g>
   <g id="patch_53">
    <path d="M 174.343448 448.56 
L 176.13931 448.56 
L 176.13931 396.816 
L 174.343448 396.816 
z
" clip-path="url(#pe2cbf8bba0)" style="fill: #7f7f7f; opacity: 0.5"/>
   </g>
   <g id="patch_54">
    <path d="M 176.588276 448.56 
L 178.384138 448.56 
L 178.384138 345.072 
L 176.588276 345.072 
z
" clip-path="url(#pe2cbf8bba0)" style="fill: #7f7f7f; opacity: 0.5"/>
   </g>
   <g id="patch_55">
    <path d="M 178.833103 448.56 
L 180.628966 448.56 
L 180.628966 345.072 
L 178.833103 345.072 
z
" clip-path="url(#pe2cbf8bba0)" style="fill: #7f7f7f; opacity: 0.5"/>
   </g>
   <g id="patch_56">
    <path d="M 181.077931 448.56 
L 182.873793 448.56 
L 182.873793 241.584 
L 181.077931 241.584 
z
" clip-path="url(#pe2cbf8bba0)" style="fill: #7f7f7f; opacity: 0.5"/>
   </g>
   <g id="patch_57">
    <path d="M 183.322759 448.56 
L 185.118621 448.56 
L 185.118621 319.2 
L 183.322759 319.2 
z
" clip-path="url(#pe2cbf8bba0)" style="fill: #7f7f7f; opacity: 0.5"/>
   </g>
   <g id="patch_58">
    <path d="M 185.567586 448.56 
L 187.363448 448.56 
L 187.363448 241.584 
L 185.567586 241.584 
z
" clip-path="url(#pe2cbf8bba0)" style="fill: #7f7f7f; opacity: 0.5"/>
   </g>
   <g id="patch_59">
    <path d="M 187.812414 448.56 
L 189.608276 448.56 
L 189.608276 319.2 
L 187.812414 319.2 
z
" clip-path="url(#pe2cbf8bba0)" style="fill: #7f7f7f; opacity: 0.5"/>
   </g>
   <g id="patch_60">
    <path d="M 190.057241 448.56 
L 191.853103 448.56 
L 191.853103 345.072 
L 190.057241 345.072 
z
" clip-path="url(#pe2cbf8bba0)" style="fill: #7f7f7f; opacity: 0.5"/>
   </g>
   <g id="patch_61">
    <path d="M 192.302069 448.56 
L 194.097931 448.56 
L 194.097931 319.2 
L 192.302069 319.2 
z
" clip-path="url(#pe2cbf8bba0)" style="fill: #7f7f7f; opacity: 0.5"/>
   </g>
   <g id="patch_62">
    <path d="M 194.546897 448.56 
L 196.342759 448.56 
L 196.342759 267.456 
L 194.546897 267.456 
z
" clip-path="url(#pe2cbf8bba0)" style="fill: #7f7f7f; opacity: 0.5"/>
   </g>
   <g id="patch_63">
    <path d="M 196.791724 448.56 
L 198.587586 448.56 
L 198.587586 396.816 
L 196.791724 396.816 
z
" clip-path="url(#pe2cbf8bba0)" style="fill: #7f7f7f; opacity: 0.5"/>
   </g>
   <g id="patch_64">
    <path d="M 199.036552 448.56 
L 200.832414 448.56 
L 200.832414 422.688 
L 199.036552 422.688 
z
" clip-path="url(#pe2cbf8bba0)" style="fill: #7f7f7f; opacity: 0.5"/>
   </g>
   <g id="patch_65">
    <path d="M 201.281379 448.56 
L 203.077241 448.56 
L 203.077241 241.584 
L 201.281379 241.584 
z
" clip-path="url(#pe2cbf8bba0)" style="fill: #7f7f7f; opacity: 0.5"/>
   </g>
   <g id="patch_66">
    <path d="M 203.526207 448.56 
L 205.322069 448.56 
L 205.322069 396.816 
L 203.526207 396.816 
z
" clip-path="url(#pe2cbf8bba0)" style="fill: #7f7f7f; opacity: 0.5"/>
   </g>
   <g id="patch_67">
    <path d="M 205.771034 448.56 
L 207.566897 448.56 
L 207.566897 345.072 
L 205.771034 345.072 
z
" clip-path="url(#pe2cbf8bba0)" style="fill: #7f7f7f; opacity: 0.5"/>
   </g>
   <g id="patch_68">
    <path d="M 208.015862 448.56 
L 209.811724 448.56 
L 209.811724 396.816 
L 208.015862 396.816 
z
" clip-path="url(#pe2cbf8bba0)" style="fill: #7f7f7f; opacity: 0.5"/>
   </g>
   <g id="patch_69">
    <path d="M 210.26069 448.56 
L 212.056552 448.56 
L 212.056552 215.712 
L 210.26069 215.712 
z
" clip-path="url(#pe2cbf8bba0)" style="fill: #7f7f7f; opacity: 0.5"/>
   </g>
   <g id="patch_70">
    <path d="M 212.505517 448.56 
L 214.301379 448.56 
L 214.301379 241.584 
L 212.505517 241.584 
z
" clip-path="url(#pe2cbf8bba0)" style="fill: #7f7f7f; opacity: 0.5"/>
   </g>
   <g id="patch_71">
    <path d="M 214.750345 448.56 
L 216.546207 448.56 
L 216.546207 241.584 
L 214.750345 241.584 
z
" clip-path="url(#pe2cbf8bba0)" style="fill: #7f7f7f; opacity: 0.5"/>
   </g>
   <g id="patch_72">
    <path d="M 216.995172 448.56 
L 218.791034 448.56 
L 218.791034 267.456 
L 216.995172 267.456 
z
" clip-path="url(#pe2cbf8bba0)" style="fill: #7f7f7f; opacity: 0.5"/>
   </g>
   <g id="patch_73">
    <path d="M 219.24 448.56 
L 221.035862 448.56 
L 221.035862 215.712 
L 219.24 215.712 
z
" clip-path="url(#pe2cbf8bba0)" style="fill: #7f7f7f; opacity: 0.5"/>
   </g>
   <g id="patch_74">
    <path d="M 221.484828 448.56 
L 223.28069 448.56 
L 223.28069 138.096 
L 221.484828 138.096 
z
" clip-path="url(#pe2cbf8bba0)" style="fill: #7f7f7f; opacity: 0.5"/>
   </g>
   <g id="patch_75">
    <path d="M 223.729655 448.56 
L 225.525517 448.56 
L 225.525517 138.096 
L 223.729655 138.096 
z
" clip-path="url(#pe2cbf8bba0)" style="fill: #7f7f7f; opacity: 0.5"/>
   </g>
   <g id="patch_76">
    <path d="M 225.974483 448.56 
L 227.770345 448.56 
L 227.770345 267.456 
L 225.974483 267.456 
z
" clip-path="url(#pe2cbf8bba0)" style="fill: #7f7f7f; opacity: 0.5"/>
   </g>
   <g id="patch_77">
    <path d="M 228.21931 448.56 
L 230.015172 448.56 
L 230.015172 138.096 
L 228.21931 138.096 
z
" clip-path="url(#pe2cbf8bba0)" style="fill: #7f7f7f; opacity: 0.5"/>
   </g>
   <g id="patch_78">
    <path d="M 230.464138 448.56 
L 232.26 448.56 
L 232.26 396.816 
L 230.464138 396.816 
z
" clip-path="url(#pe2cbf8bba0)" style="fill: #7f7f7f; opacity: 0.5"/>
   </g>
   <g id="patch_79">
    <path d="M 232.708966 448.56 
L 234.504828 448.56 
L 234.504828 60.48 
L 232.708966 60.48 
z
" clip-path="url(#pe2cbf8bba0)" style="fill: #7f7f7f; opacity: 0.5"/>
   </g>
   <g id="patch_80">
    <path d="M 234.953793 448.56 
L 236.749655 448.56 
L 236.749655 163.968 
L 234.953793 163.968 
z
" clip-path="url(#pe2cbf8bba0)" style="fill: #7f7f7f; opacity: 0.5"/>
   </g>
   <g id="patch_81">
    <path d="M 237.198621 448.56 
L 238.994483 448.56 
L 238.994483 319.2 
L 237.198621 319.2 
z
" clip-path="url(#pe2cbf8bba0)" style="fill: #7f7f7f; opacity: 0.5"/>
   </g>
   <g id="patch_82">
    <path d="M 239.443448 448.56 
L 241.23931 448.56 
L 241.23931 345.072 
L 239.443448 345.072 
z
" clip-path="url(#pe2cbf8bba0)" style="fill: #7f7f7f; opacity: 0.5"/>
   </g>
   <g id="patch_83">
    <path d="M 241.688276 448.56 
L 243.484138 448.56 
L 243.484138 396.816 
L 241.688276 396.816 
z
" clip-path="url(#pe2cbf8bba0)" style="fill: #7f7f7f; opacity: 0.5"/>
   </g>
   <g id="patch_84">
    <path d="M 243.933103 448.56 
L 245.728966 448.56 
L 245.728966 345.072 
L 243.933103 345.072 
z
" clip-path="url(#pe2cbf8bba0)" style="fill: #7f7f7f; opacity: 0.5"/>
   </g>
   <g id="patch_85">
    <path d="M 246.177931 448.56 
L 247.973793 448.56 
L 247.973793 267.456 
L 246.177931 267.456 
z
" clip-path="url(#pe2cbf8bba0)" style="fill: #7f7f7f; opacity: 0.5"/>
   </g>
   <g id="patch_86">
    <path d="M 248.422759 448.56 
L 250.218621 448.56 
L 250.218621 112.224 
L 248.422759 112.224 
z
" clip-path="url(#pe2cbf8bba0)" style="fill: #7f7f7f; opacity: 0.5"/>
   </g>
   <g id="patch_87">
    <path d="M 250.667586 448.56 
L 252.463448 448.56 
L 252.463448 293.328 
L 250.667586 293.328 
z
" clip-path="url(#pe2cbf8bba0)" style="fill: #7f7f7f; opacity: 0.5"/>
   </g>
   <g id="patch_88">
    <path d="M 252.912414 448.56 
L 254.708276 448.56 
L 254.708276 241.584 
L 252.912414 241.584 
z
" clip-path="url(#pe2cbf8bba0)" style="fill: #7f7f7f; opacity: 0.5"/>
   </g>
   <g id="patch_89">
    <path d="M 255.157241 448.56 
L 256.953103 448.56 
L 256.953103 345.072 
L 255.157241 345.072 
z
" clip-path="url(#pe2cbf8bba0)" style="fill: #7f7f7f; opacity: 0.5"/>
   </g>
   <g id="patch_90">
    <path d="M 257.402069 448.56 
L 259.197931 448.56 
L 259.197931 319.2 
L 257.402069 319.2 
z
" clip-path="url(#pe2cbf8bba0)" style="fill: #7f7f7f; opacity: 0.5"/>
   </g>
   <g id="patch_91">
    <path d="M 259.646897 448.56 
L 261.442759 448.56 
L 261.442759 370.944 
L 259.646897 370.944 
z
" clip-path="url(#pe2cbf8bba0)" style="fill: #7f7f7f; opacity: 0.5"/>
   </g>
   <g id="patch_92">
    <path d="M 261.891724 448.56 
L 263.687586 448.56 
L 263.687586 396.816 
L 261.891724 396.816 
z
" clip-path="url(#pe2cbf8bba0)" style="fill: #7f7f7f; opacity: 0.5"/>
   </g>
   <g id="patch_93">
    <path d="M 264.136552 448.56 
L 265.932414 448.56 
L 265.932414 396.816 
L 264.136552 396.816 
z
" clip-path="url(#pe2cbf8bba0)" style="fill: #7f7f7f; opacity: 0.5"/>
   </g>
   <g id="patch_94">
    <path d="M 266.381379 448.56 
L 268.177241 448.56 
L 268.177241 448.56 
L 266.381379 448.56 
z
" clip-path="url(#pe2cbf8bba0)" style="fill: #7f7f7f; opacity: 0.5"/>
   </g>
   <g id="patch_95">
    <path d="M 268.626207 448.56 
L 270.422069 448.56 
L 270.422069 422.688 
L 268.626207 422.688 
z
" clip-path="url(#pe2cbf8bba0)" style="fill: #7f7f7f; opacity: 0.5"/>
   </g>
   <g id="patch_96">
    <path d="M 270.871034 448.56 
L 272.666897 448.56 
L 272.666897 396.816 
L 270.871034 396.816 
z
" clip-path="url(#pe2cbf8bba0)" style="fill: #7f7f7f; opacity: 0.5"/>
   </g>
   <g id="patch_97">
    <path d="M 273.115862 448.56 
L 274.911724 448.56 
L 274.911724 370.944 
L 273.115862 370.944 
z
" clip-path="url(#pe2cbf8bba0)" style="fill: #7f7f7f; opacity: 0.5"/>
   </g>
   <g id="patch_98">
    <path d="M 275.36069 448.56 
L 277.156552 448.56 
L 277.156552 422.688 
L 275.36069 422.688 
z
" clip-path="url(#pe2cbf8bba0)" style="fill: #7f7f7f; opacity: 0.5"/>
   </g>
   <g id="patch_99">
    <path d="M 277.605517 448.56 
L 279.401379 448.56 
L 279.401379 370.944 
L 277.605517 370.944 
z
" clip-path="url(#pe2cbf8bba0)" style="fill: #7f7f7f; opacity: 0.5"/>
   </g>
   <g id="patch_100">
    <path d="M 279.850345 448.56 
L 281.646207 448.56 
L 281.646207 396.816 
L 279.850345 396.816 
z
" clip-path="url(#pe2cbf8bba0)" style="fill: #7f7f7f; opacity: 0.5"/>
   </g>
   <g id="patch_101">
    <path d="M 282.095172 448.56 
L 283.891034 448.56 
L 283.891034 448.56 
L 282.095172 448.56 
z
" clip-path="url(#pe2cbf8bba0)" style="fill: #7f7f7f; opacity: 0.5"/>
   </g>
   <g id="patch_102">
    <path d="M 284.34 448.56 
L 286.135862 448.56 
L 286.135862 448.56 
L 284.34 448.56 
z
" clip-path="url(#pe2cbf8bba0)" style="fill: #7f7f7f; opacity: 0.5"/>
   </g>
   <g id="patch_103">
    <path d="M 286.584828 448.56 
L 288.38069 448.56 
L 288.38069 422.688 
L 286.584828 422.688 
z
" clip-path="url(#pe2cbf8bba0)" style="fill: #7f7f7f; opacity: 0.5"/>
   </g>
   <g id="patch_104">
    <path d="M 288.829655 448.56 
L 290.625517 448.56 
L 290.625517 396.816 
L 288.829655 396.816 
z
" clip-path="url(#pe2cbf8bba0)" style="fill: #7f7f7f; opacity: 0.5"/>
   </g>
   <g id="patch_105">
    <path d="M 291.074483 448.56 
L 292.870345 448.56 
L 292.870345 422.688 
L 291.074483 422.688 
z
" clip-path="url(#pe2cbf8bba0)" style="fill: #7f7f7f; opacity: 0.5"/>
   </g>
   <g id="patch_106">
    <path d="M 293.31931 448.56 
L 295.115172 448.56 
L 295.115172 448.56 
L 293.31931 448.56 
z
" clip-path="url(#pe2cbf8bba0)" style="fill: #7f7f7f; opacity: 0.5"/>
   </g>
   <g id="patch_107">
    <path d="M 295.564138 448.56 
L 297.36 448.56 
L 297.36 422.688 
L 295.564138 422.688 
z
" clip-path="url(#pe2cbf8bba0)" style="fill: #7f7f7f; opacity: 0.5"/>
   </g>
   <g id="patch_108">
    <path d="M 297.808966 448.56 
L 299.604828 448.56 
L 299.604828 448.56 
L 297.808966 448.56 
z
" clip-path="url(#pe2cbf8bba0)" style="fill: #7f7f7f; opacity: 0.5"/>
   </g>
   <g id="patch_109">
    <path d="M 300.053793 448.56 
L 301.849655 448.56 
L 301.849655 422.688 
L 300.053793 422.688 
z
" clip-path="url(#pe2cbf8bba0)" style="fill: #7f7f7f; opacity: 0.5"/>
   </g>
   <g id="patch_110">
    <path d="M 302.298621 448.56 
L 304.094483 448.56 
L 304.094483 448.56 
L 302.298621 448.56 
z
" clip-path="url(#pe2cbf8bba0)" style="fill: #7f7f7f; opacity: 0.5"/>
   </g>
   <g id="patch_111">
    <path d="M 304.543448 448.56 
L 306.33931 448.56 
L 306.33931 448.56 
L 304.543448 448.56 
z
" clip-path="url(#pe2cbf8bba0)" style="fill: #7f7f7f; opacity: 0.5"/>
   </g>
   <g id="patch_112">
    <path d="M 306.788276 448.56 
L 308.584138 448.56 
L 308.584138 448.56 
L 306.788276 448.56 
z
" clip-path="url(#pe2cbf8bba0)" style="fill: #7f7f7f; opacity: 0.5"/>
   </g>
   <g id="patch_113">
    <path d="M 309.033103 448.56 
L 310.828966 448.56 
L 310.828966 422.688 
L 309.033103 422.688 
z
" clip-path="url(#pe2cbf8bba0)" style="fill: #7f7f7f; opacity: 0.5"/>
   </g>
   <g id="patch_114">
    <path d="M 311.277931 448.56 
L 313.073793 448.56 
L 313.073793 422.688 
L 311.277931 422.688 
z
" clip-path="url(#pe2cbf8bba0)" style="fill: #7f7f7f; opacity: 0.5"/>
   </g>
   <g id="patch_115">
    <path d="M 313.522759 448.56 
L 315.318621 448.56 
L 315.318621 448.56 
L 313.522759 448.56 
z
" clip-path="url(#pe2cbf8bba0)" style="fill: #7f7f7f; opacity: 0.5"/>
   </g>
   <g id="patch_116">
    <path d="M 315.767586 448.56 
L 317.563448 448.56 
L 317.563448 448.56 
L 315.767586 448.56 
z
" clip-path="url(#pe2cbf8bba0)" style="fill: #7f7f7f; opacity: 0.5"/>
   </g>
   <g id="patch_117">
    <path d="M 318.012414 448.56 
L 319.808276 448.56 
L 319.808276 448.56 
L 318.012414 448.56 
z
" clip-path="url(#pe2cbf8bba0)" style="fill: #7f7f7f; opacity: 0.5"/>
   </g>
   <g id="patch_118">
    <path d="M 320.257241 448.56 
L 322.053103 448.56 
L 322.053103 422.688 
L 320.257241 422.688 
z
" clip-path="url(#pe2cbf8bba0)" style="fill: #7f7f7f; opacity: 0.5"/>
   </g>
   <g id="patch_119">
    <path d="M 322.502069 448.56 
L 324.297931 448.56 
L 324.297931 448.56 
L 322.502069 448.56 
z
" clip-path="url(#pe2cbf8bba0)" style="fill: #7f7f7f; opacity: 0.5"/>
   </g>
   <g id="patch_120">
    <path d="M 324.746897 448.56 
L 326.542759 448.56 
L 326.542759 448.56 
L 324.746897 448.56 
z
" clip-path="url(#pe2cbf8bba0)" style="fill: #7f7f7f; opacity: 0.5"/>
   </g>
   <g id="patch_121">
    <path d="M 326.991724 448.56 
L 328.787586 448.56 
L 328.787586 448.56 
L 326.991724 448.56 
z
" clip-path="url(#pe2cbf8bba0)" style="fill: #7f7f7f; opacity: 0.5"/>
   </g>
   <g id="patch_122">
    <path d="M 329.236552 448.56 
L 331.032414 448.56 
L 331.032414 448.56 
L 329.236552 448.56 
z
" clip-path="url(#pe2cbf8bba0)" style="fill: #7f7f7f; opacity: 0.5"/>
   </g>
   <g id="patch_123">
    <path d="M 331.481379 448.56 
L 333.277241 448.56 
L 333.277241 448.56 
L 331.481379 448.56 
z
" clip-path="url(#pe2cbf8bba0)" style="fill: #7f7f7f; opacity: 0.5"/>
   </g>
   <g id="patch_124">
    <path d="M 333.726207 448.56 
L 335.522069 448.56 
L 335.522069 448.56 
L 333.726207 448.56 
z
" clip-path="url(#pe2cbf8bba0)" style="fill: #7f7f7f; opacity: 0.5"/>
   </g>
   <g id="patch_125">
    <path d="M 335.971034 448.56 
L 337.766897 448.56 
L 337.766897 448.56 
L 335.971034 448.56 
z
" clip-path="url(#pe2cbf8bba0)" style="fill: #7f7f7f; opacity: 0.5"/>
   </g>
   <g id="patch_126">
    <path d="M 338.215862 448.56 
L 340.011724 448.56 
L 340.011724 448.56 
L 338.215862 448.56 
z
" clip-path="url(#pe2cbf8bba0)" style="fill: #7f7f7f; opacity: 0.5"/>
   </g>
   <g id="patch_127">
    <path d="M 340.46069 448.56 
L 342.256552 448.56 
L 342.256552 448.56 
L 340.46069 448.56 
z
" clip-path="url(#pe2cbf8bba0)" style="fill: #7f7f7f; opacity: 0.5"/>
   </g>
   <g id="patch_128">
    <path d="M 342.705517 448.56 
L 344.501379 448.56 
L 344.501379 422.688 
L 342.705517 422.688 
z
" clip-path="url(#pe2cbf8bba0)" style="fill: #7f7f7f; opacity: 0.5"/>
   </g>
   <g id="patch_129">
    <path d="M 344.950345 448.56 
L 346.746207 448.56 
L 346.746207 448.56 
L 344.950345 448.56 
z
" clip-path="url(#pe2cbf8bba0)" style="fill: #7f7f7f; opacity: 0.5"/>
   </g>
   <g id="patch_130">
    <path d="M 347.195172 448.56 
L 348.991034 448.56 
L 348.991034 448.56 
L 347.195172 448.56 
z
" clip-path="url(#pe2cbf8bba0)" style="fill: #7f7f7f; opacity: 0.5"/>
   </g>
   <g id="patch_131">
    <path d="M 349.44 448.56 
L 351.235862 448.56 
L 351.235862 448.56 
L 349.44 448.56 
z
" clip-path="url(#pe2cbf8bba0)" style="fill: #7f7f7f; opacity: 0.5"/>
   </g>
   <g id="patch_132">
    <path d="M 351.684828 448.56 
L 353.48069 448.56 
L 353.48069 448.56 
L 351.684828 448.56 
z
" clip-path="url(#pe2cbf8bba0)" style="fill: #7f7f7f; opacity: 0.5"/>
   </g>
   <g id="patch_133">
    <path d="M 353.929655 448.56 
L 355.725517 448.56 
L 355.725517 448.56 
L 353.929655 448.56 
z
" clip-path="url(#pe2cbf8bba0)" style="fill: #7f7f7f; opacity: 0.5"/>
   </g>
   <g id="patch_134">
    <path d="M 356.174483 448.56 
L 357.970345 448.56 
L 357.970345 448.56 
L 356.174483 448.56 
z
" clip-path="url(#pe2cbf8bba0)" style="fill: #7f7f7f; opacity: 0.5"/>
   </g>
   <g id="patch_135">
    <path d="M 358.41931 448.56 
L 360.215172 448.56 
L 360.215172 422.688 
L 358.41931 422.688 
z
" clip-path="url(#pe2cbf8bba0)" style="fill: #7f7f7f; opacity: 0.5"/>
   </g>
   <g id="patch_136">
    <path d="M 360.664138 448.56 
L 362.46 448.56 
L 362.46 448.56 
L 360.664138 448.56 
z
" clip-path="url(#pe2cbf8bba0)" style="fill: #7f7f7f; opacity: 0.5"/>
   </g>
   <g id="patch_137">
    <path d="M 362.908966 448.56 
L 364.704828 448.56 
L 364.704828 448.56 
L 362.908966 448.56 
z
" clip-path="url(#pe2cbf8bba0)" style="fill: #7f7f7f; opacity: 0.5"/>
   </g>
   <g id="patch_138">
    <path d="M 365.153793 448.56 
L 366.949655 448.56 
L 366.949655 448.56 
L 365.153793 448.56 
z
" clip-path="url(#pe2cbf8bba0)" style="fill: #7f7f7f; opacity: 0.5"/>
   </g>
   <g id="patch_139">
    <path d="M 367.398621 448.56 
L 369.194483 448.56 
L 369.194483 448.56 
L 367.398621 448.56 
z
" clip-path="url(#pe2cbf8bba0)" style="fill: #7f7f7f; opacity: 0.5"/>
   </g>
   <g id="patch_140">
    <path d="M 369.643448 448.56 
L 371.43931 448.56 
L 371.43931 448.56 
L 369.643448 448.56 
z
" clip-path="url(#pe2cbf8bba0)" style="fill: #7f7f7f; opacity: 0.5"/>
   </g>
   <g id="patch_141">
    <path d="M 371.888276 448.56 
L 373.684138 448.56 
L 373.684138 448.56 
L 371.888276 448.56 
z
" clip-path="url(#pe2cbf8bba0)" style="fill: #7f7f7f; opacity: 0.5"/>
   </g>
   <g id="patch_142">
    <path d="M 374.133103 448.56 
L 375.928966 448.56 
L 375.928966 448.56 
L 374.133103 448.56 
z
" clip-path="url(#pe2cbf8bba0)" style="fill: #7f7f7f; opacity: 0.5"/>
   </g>
   <g id="patch_143">
    <path d="M 376.377931 448.56 
L 378.173793 448.56 
L 378.173793 448.56 
L 376.377931 448.56 
z
" clip-path="url(#pe2cbf8bba0)" style="fill: #7f7f7f; opacity: 0.5"/>
   </g>
   <g id="patch_144">
    <path d="M 378.622759 448.56 
L 380.418621 448.56 
L 380.418621 448.56 
L 378.622759 448.56 
z
" clip-path="url(#pe2cbf8bba0)" style="fill: #7f7f7f; opacity: 0.5"/>
   </g>
   <g id="patch_145">
    <path d="M 380.867586 448.56 
L 382.663448 448.56 
L 382.663448 448.56 
L 380.867586 448.56 
z
" clip-path="url(#pe2cbf8bba0)" style="fill: #7f7f7f; opacity: 0.5"/>
   </g>
   <g id="patch_146">
    <path d="M 383.112414 448.56 
L 384.908276 448.56 
L 384.908276 448.56 
L 383.112414 448.56 
z
" clip-path="url(#pe2cbf8bba0)" style="fill: #7f7f7f; opacity: 0.5"/>
   </g>
   <g id="patch_147">
    <path d="M 385.357241 448.56 
L 387.153103 448.56 
L 387.153103 448.56 
L 385.357241 448.56 
z
" clip-path="url(#pe2cbf8bba0)" style="fill: #7f7f7f; opacity: 0.5"/>
   </g>
   <g id="patch_148">
    <path d="M 387.602069 448.56 
L 389.397931 448.56 
L 389.397931 448.56 
L 387.602069 448.56 
z
" clip-path="url(#pe2cbf8bba0)" style="fill: #7f7f7f; opacity: 0.5"/>
   </g>
   <g id="patch_149">
    <path d="M 389.846897 448.56 
L 391.642759 448.56 
L 391.642759 448.56 
L 389.846897 448.56 
z
" clip-path="url(#pe2cbf8bba0)" style="fill: #7f7f7f; opacity: 0.5"/>
   </g>
   <g id="patch_150">
    <path d="M 392.091724 448.56 
L 393.887586 448.56 
L 393.887586 448.56 
L 392.091724 448.56 
z
" clip-path="url(#pe2cbf8bba0)" style="fill: #7f7f7f; opacity: 0.5"/>
   </g>
   <g id="patch_151">
    <path d="M 394.336552 448.56 
L 396.132414 448.56 
L 396.132414 448.56 
L 394.336552 448.56 
z
" clip-path="url(#pe2cbf8bba0)" style="fill: #7f7f7f; opacity: 0.5"/>
   </g>
   <g id="patch_152">
    <path d="M 396.581379 448.56 
L 398.377241 448.56 
L 398.377241 448.56 
L 396.581379 448.56 
z
" clip-path="url(#pe2cbf8bba0)" style="fill: #7f7f7f; opacity: 0.5"/>
   </g>
   <g id="patch_153">
    <path d="M 398.826207 448.56 
L 400.622069 448.56 
L 400.622069 448.56 
L 398.826207 448.56 
z
" clip-path="url(#pe2cbf8bba0)" style="fill: #7f7f7f; opacity: 0.5"/>
   </g>
   <g id="patch_154">
    <path d="M 401.071034 448.56 
L 402.866897 448.56 
L 402.866897 448.56 
L 401.071034 448.56 
z
" clip-path="url(#pe2cbf8bba0)" style="fill: #7f7f7f; opacity: 0.5"/>
   </g>
   <g id="patch_155">
    <path d="M 403.315862 448.56 
L 405.111724 448.56 
L 405.111724 448.56 
L 403.315862 448.56 
z
" clip-path="url(#pe2cbf8bba0)" style="fill: #7f7f7f; opacity: 0.5"/>
   </g>
   <g id="patch_156">
    <path d="M 405.56069 448.56 
L 407.356552 448.56 
L 407.356552 448.56 
L 405.56069 448.56 
z
" clip-path="url(#pe2cbf8bba0)" style="fill: #7f7f7f; opacity: 0.5"/>
   </g>
   <g id="patch_157">
    <path d="M 407.805517 448.56 
L 409.601379 448.56 
L 409.601379 448.56 
L 407.805517 448.56 
z
" clip-path="url(#pe2cbf8bba0)" style="fill: #7f7f7f; opacity: 0.5"/>
   </g>
   <g id="patch_158">
    <path d="M 410.050345 448.56 
L 411.846207 448.56 
L 411.846207 448.56 
L 410.050345 448.56 
z
" clip-path="url(#pe2cbf8bba0)" style="fill: #7f7f7f; opacity: 0.5"/>
   </g>
   <g id="patch_159">
    <path d="M 412.295172 448.56 
L 414.091034 448.56 
L 414.091034 448.56 
L 412.295172 448.56 
z
" clip-path="url(#pe2cbf8bba0)" style="fill: #7f7f7f; opacity: 0.5"/>
   </g>
   <g id="patch_160">
    <path d="M 414.54 448.56 
L 416.335862 448.56 
L 416.335862 448.56 
L 414.54 448.56 
z
" clip-path="url(#pe2cbf8bba0)" style="fill: #7f7f7f; opacity: 0.5"/>
   </g>
   <g id="patch_161">
    <path d="M 416.784828 448.56 
L 418.58069 448.56 
L 418.58069 448.56 
L 416.784828 448.56 
z
" clip-path="url(#pe2cbf8bba0)" style="fill: #7f7f7f; opacity: 0.5"/>
   </g>
   <g id="patch_162">
    <path d="M 419.029655 448.56 
L 420.825517 448.56 
L 420.825517 448.56 
L 419.029655 448.56 
z
" clip-path="url(#pe2cbf8bba0)" style="fill: #7f7f7f; opacity: 0.5"/>
   </g>
   <g id="patch_163">
    <path d="M 421.274483 448.56 
L 423.070345 448.56 
L 423.070345 448.56 
L 421.274483 448.56 
z
" clip-path="url(#pe2cbf8bba0)" style="fill: #7f7f7f; opacity: 0.5"/>
   </g>
   <g id="patch_164">
    <path d="M 423.51931 448.56 
L 425.315172 448.56 
L 425.315172 448.56 
L 423.51931 448.56 
z
" clip-path="url(#pe2cbf8bba0)" style="fill: #7f7f7f; opacity: 0.5"/>
   </g>
   <g id="patch_165">
    <path d="M 425.764138 448.56 
L 427.56 448.56 
L 427.56 448.56 
L 425.764138 448.56 
z
" clip-path="url(#pe2cbf8bba0)" style="fill: #7f7f7f; opacity: 0.5"/>
   </g>
   <g id="patch_166">
    <path d="M 428.008966 448.56 
L 429.804828 448.56 
L 429.804828 448.56 
L 428.008966 448.56 
z
" clip-path="url(#pe2cbf8bba0)" style="fill: #7f7f7f; opacity: 0.5"/>
   </g>
   <g id="patch_167">
    <path d="M 430.253793 448.56 
L 432.049655 448.56 
L 432.049655 448.56 
L 430.253793 448.56 
z
" clip-path="url(#pe2cbf8bba0)" style="fill: #7f7f7f; opacity: 0.5"/>
   </g>
   <g id="patch_168">
    <path d="M 432.498621 448.56 
L 434.294483 448.56 
L 434.294483 448.56 
L 432.498621 448.56 
z
" clip-path="url(#pe2cbf8bba0)" style="fill: #7f7f7f; opacity: 0.5"/>
   </g>
   <g id="patch_169">
    <path d="M 434.743448 448.56 
L 436.53931 448.56 
L 436.53931 448.56 
L 434.743448 448.56 
z
" clip-path="url(#pe2cbf8bba0)" style="fill: #7f7f7f; opacity: 0.5"/>
   </g>
   <g id="patch_170">
    <path d="M 436.988276 448.56 
L 438.784138 448.56 
L 438.784138 448.56 
L 436.988276 448.56 
z
" clip-path="url(#pe2cbf8bba0)" style="fill: #7f7f7f; opacity: 0.5"/>
   </g>
   <g id="patch_171">
    <path d="M 439.233103 448.56 
L 441.028966 448.56 
L 441.028966 448.56 
L 439.233103 448.56 
z
" clip-path="url(#pe2cbf8bba0)" style="fill: #7f7f7f; opacity: 0.5"/>
   </g>
   <g id="patch_172">
    <path d="M 441.477931 448.56 
L 443.273793 448.56 
L 443.273793 448.56 
L 441.477931 448.56 
z
" clip-path="url(#pe2cbf8bba0)" style="fill: #7f7f7f; opacity: 0.5"/>
   </g>
   <g id="patch_173">
    <path d="M 443.722759 448.56 
L 445.518621 448.56 
L 445.518621 448.56 
L 443.722759 448.56 
z
" clip-path="url(#pe2cbf8bba0)" style="fill: #7f7f7f; opacity: 0.5"/>
   </g>
   <g id="patch_174">
    <path d="M 445.967586 448.56 
L 447.763448 448.56 
L 447.763448 448.56 
L 445.967586 448.56 
z
" clip-path="url(#pe2cbf8bba0)" style="fill: #7f7f7f; opacity: 0.5"/>
   </g>
   <g id="patch_175">
    <path d="M 448.212414 448.56 
L 450.008276 448.56 
L 450.008276 448.56 
L 448.212414 448.56 
z
" clip-path="url(#pe2cbf8bba0)" style="fill: #7f7f7f; opacity: 0.5"/>
   </g>
   <g id="patch_176">
    <path d="M 450.457241 448.56 
L 452.253103 448.56 
L 452.253103 448.56 
L 450.457241 448.56 
z
" clip-path="url(#pe2cbf8bba0)" style="fill: #7f7f7f; opacity: 0.5"/>
   </g>
   <g id="patch_177">
    <path d="M 452.702069 448.56 
L 454.497931 448.56 
L 454.497931 448.56 
L 452.702069 448.56 
z
" clip-path="url(#pe2cbf8bba0)" style="fill: #7f7f7f; opacity: 0.5"/>
   </g>
   <g id="patch_178">
    <path d="M 453.6 448.56 
L 453.6 60.48 
" style="fill: none; stroke: #7f7f7f; stroke-width: 0.8; stroke-linejoin: miter; stroke-linecap: square"/>
   </g>
  </g>
  <g id="axes_2">
   <g id="FillBetweenPolyCollection_1">
    <defs>
     <path id="m768ca9df70" d="M 63 -367.663166 
L 63 -293.245035 
L 65.244828 -303.816829 
L 67.489655 -314.256719 
L 69.734483 -324.409178 
L 71.97931 -333.508085 
L 74.224138 -342.475641 
L 76.468966 -350.798847 
L 78.713793 -358.243793 
L 80.958621 -365.872866 
L 83.203448 -372.052352 
L 85.448276 -378.371809 
L 87.693103 -383.990785 
L 89.937931 -388.512393 
L 92.182759 -392.957643 
L 94.427586 -396.660246 
L 96.672414 -399.790226 
L 98.917241 -401.992182 
L 101.162069 -403.657385 
L 103.406897 -405.257258 
L 105.651724 -406.05392 
L 107.896552 -406.198501 
L 110.141379 -406.286035 
L 112.386207 -406.505524 
L 114.631034 -405.89045 
L 116.875862 -404.796468 
L 119.12069 -403.396561 
L 121.365517 -402.522184 
L 123.610345 -401.087751 
L 125.855172 -399.58259 
L 128.1 -397.619212 
L 130.344828 -396.244661 
L 132.589655 -394.492541 
L 134.834483 -393.262052 
L 137.07931 -392.119437 
L 139.324138 -390.432764 
L 141.568966 -389.625086 
L 143.813793 -388.225708 
L 146.058621 -387.920379 
L 148.303448 -386.844594 
L 150.548276 -385.702776 
L 152.793103 -385.256634 
L 155.037931 -384.696131 
L 157.282759 -384.317427 
L 159.527586 -384.521776 
L 161.772414 -384.355496 
L 164.017241 -384.813078 
L 166.262069 -385.554978 
L 168.506897 -386.19824 
L 170.751724 -387.369501 
L 172.996552 -388.208511 
L 175.241379 -389.72484 
L 177.486207 -391.433004 
L 179.731034 -393.011393 
L 181.975862 -394.097475 
L 184.22069 -395.828391 
L 186.465517 -397.936753 
L 188.710345 -399.603777 
L 190.955172 -401.704592 
L 193.2 -403.434422 
L 195.444828 -404.48039 
L 197.689655 -406.460119 
L 199.934483 -407.587281 
L 202.17931 -409.057016 
L 204.424138 -409.782591 
L 206.668966 -410.204588 
L 208.913793 -410.555813 
L 211.158621 -410.565036 
L 213.403448 -410.528639 
L 215.648276 -410.009219 
L 217.893103 -408.93429 
L 220.137931 -407.448342 
L 222.382759 -404.94652 
L 224.627586 -401.752244 
L 226.872414 -397.331918 
L 229.117241 -392.731841 
L 231.362069 -387.051601 
L 233.606897 -380.807236 
L 235.851724 -374.200395 
L 238.096552 -366.276117 
L 240.341379 -357.678196 
L 242.586207 -348.848193 
L 244.831034 -339.818766 
L 247.075862 -330.063081 
L 249.32069 -319.710359 
L 251.565517 -308.988931 
L 253.810345 -297.566655 
L 256.055172 -285.416377 
L 258.3 -273.081375 
L 260.544828 -260.921901 
L 262.789655 -247.923045 
L 265.034483 -235.342129 
L 267.27931 -222.866707 
L 269.524138 -210.634697 
L 271.768966 -199.11684 
L 274.013793 -187.32441 
L 276.258621 -175.995856 
L 278.503448 -165.698422 
L 280.748276 -155.194305 
L 282.993103 -144.651078 
L 285.237931 -135.435291 
L 287.482759 -127.415149 
L 289.727586 -119.567201 
L 291.972414 -112.331467 
L 294.217241 -105.756225 
L 296.462069 -99.473192 
L 298.706897 -93.914633 
L 300.951724 -88.990522 
L 303.196552 -84.329462 
L 305.441379 -81.083164 
L 307.686207 -77.74066 
L 309.931034 -75.702702 
L 312.175862 -73.497557 
L 314.42069 -70.645355 
L 316.665517 -68.690346 
L 318.910345 -67.575394 
L 321.155172 -66.545497 
L 323.4 -64.811139 
L 325.644828 -63.08233 
L 327.889655 -62.025163 
L 330.134483 -61.267873 
L 332.37931 -60.744598 
L 334.624138 -60.876372 
L 336.868966 -61.229166 
L 339.113793 -62.084748 
L 341.358621 -62.598955 
L 343.603448 -63.635036 
L 345.848276 -63.002319 
L 348.093103 -62.643851 
L 350.337931 -61.960325 
L 352.582759 -61.754943 
L 354.827586 -61.701579 
L 357.072414 -62.032165 
L 359.317241 -62.484513 
L 361.562069 -60.132931 
L 363.806897 -58.140327 
L 366.051724 -56.455213 
L 368.296552 -55.480617 
L 370.541379 -55.441262 
L 372.786207 -55.440032 
L 375.031034 -55.440006 
L 377.275862 -55.440004 
L 379.52069 -55.440004 
L 381.765517 -55.440004 
L 384.010345 -55.440004 
L 386.255172 -55.440004 
L 388.5 -55.440004 
L 390.744828 -55.440004 
L 392.989655 -55.440004 
L 395.234483 -55.440004 
L 397.47931 -55.440004 
L 399.724138 -55.440004 
L 401.968966 -55.440004 
L 404.213793 -55.440004 
L 406.458621 -55.440004 
L 408.703448 -55.440004 
L 410.948276 -55.440004 
L 413.193103 -55.440004 
L 415.437931 -55.440004 
L 417.682759 -55.440004 
L 419.927586 -55.440004 
L 422.172414 -55.440004 
L 424.417241 -55.440004 
L 426.662069 -55.440004 
L 428.906897 -55.440004 
L 431.151724 -55.440004 
L 433.396552 -55.440004 
L 435.641379 -55.440004 
L 437.886207 -55.440004 
L 440.131034 -55.440004 
L 442.375862 -55.440004 
L 444.62069 -55.440004 
L 446.865517 -55.440004 
L 449.110345 -55.440004 
L 451.355172 -55.440004 
L 453.6 -55.440004 
L 453.6 -101.008985 
L 453.6 -101.008985 
L 451.355172 -101.558199 
L 449.110345 -101.868212 
L 446.865517 -101.943794 
L 444.62069 -101.379323 
L 442.375862 -101.83105 
L 440.131034 -101.750666 
L 437.886207 -102.052293 
L 435.641379 -102.19608 
L 433.396552 -102.47811 
L 431.151724 -103.009337 
L 428.906897 -103.291153 
L 426.662069 -103.270169 
L 424.417241 -102.895095 
L 422.172414 -103.851407 
L 419.927586 -103.887059 
L 417.682759 -103.902032 
L 415.437931 -103.714473 
L 413.193103 -103.793616 
L 410.948276 -103.943351 
L 408.703448 -104.469988 
L 406.458621 -104.960559 
L 404.213793 -104.983623 
L 401.968966 -105.266793 
L 399.724138 -105.637332 
L 397.47931 -105.956613 
L 395.234483 -106.55709 
L 392.989655 -106.226643 
L 390.744828 -106.60784 
L 388.5 -106.797596 
L 386.255172 -106.980914 
L 384.010345 -107.397741 
L 381.765517 -107.885621 
L 379.52069 -107.613033 
L 377.275862 -107.48987 
L 375.031034 -107.950349 
L 372.786207 -108.148492 
L 370.541379 -108.810965 
L 368.296552 -109.222434 
L 366.051724 -109.605586 
L 363.806897 -109.699804 
L 361.562069 -110.358308 
L 359.317241 -110.697925 
L 357.072414 -110.940213 
L 354.827586 -111.236127 
L 352.582759 -111.364621 
L 350.337931 -111.485044 
L 348.093103 -111.465482 
L 345.848276 -111.455326 
L 343.603448 -112.087968 
L 341.358621 -112.097279 
L 339.113793 -112.145868 
L 336.868966 -112.252369 
L 334.624138 -112.488373 
L 332.37931 -112.878177 
L 330.134483 -113.660305 
L 327.889655 -114.167334 
L 325.644828 -115.128772 
L 323.4 -116.644485 
L 321.155172 -118.274338 
L 318.910345 -119.95398 
L 316.665517 -121.987896 
L 314.42069 -124.450617 
L 312.175862 -127.076119 
L 309.931034 -130.134922 
L 307.686207 -133.5778 
L 305.441379 -137.456975 
L 303.196552 -142.018679 
L 300.951724 -147.047849 
L 298.706897 -152.361182 
L 296.462069 -158.95858 
L 294.217241 -165.754906 
L 291.972414 -173.563908 
L 289.727586 -181.91206 
L 287.482759 -190.054535 
L 285.237931 -199.023723 
L 282.993103 -209.270394 
L 280.748276 -219.735221 
L 278.503448 -230.904311 
L 276.258621 -241.984321 
L 274.013793 -253.858539 
L 271.768966 -265.125286 
L 269.524138 -277.833959 
L 267.27931 -289.880291 
L 265.034483 -302.768265 
L 262.789655 -315.686436 
L 260.544828 -328.796263 
L 258.3 -341.133387 
L 256.055172 -353.678218 
L 253.810345 -366.060979 
L 251.565517 -377.717132 
L 249.32069 -388.610396 
L 247.075862 -399.133172 
L 244.831034 -408.431367 
L 242.586207 -417.872816 
L 240.341379 -427.177494 
L 238.096552 -435.032677 
L 235.851724 -439.677434 
L 233.606897 -439.677624 
L 231.362069 -439.677624 
L 229.117241 -439.677624 
L 226.872414 -439.677624 
L 224.627586 -439.677624 
L 222.382759 -439.677624 
L 220.137931 -439.677624 
L 217.893103 -439.677624 
L 215.648276 -439.677624 
L 213.403448 -439.677624 
L 211.158621 -439.677624 
L 208.913793 -439.677624 
L 206.668966 -439.677624 
L 204.424138 -439.677624 
L 202.17931 -439.677624 
L 199.934483 -439.677624 
L 197.689655 -439.677624 
L 195.444828 -439.677624 
L 193.2 -439.677624 
L 190.955172 -439.677624 
L 188.710345 -439.677624 
L 186.465517 -439.677624 
L 184.22069 -439.677624 
L 181.975862 -439.677624 
L 179.731034 -439.677624 
L 177.486207 -439.677624 
L 175.241379 -439.677624 
L 172.996552 -439.677624 
L 170.751724 -439.677624 
L 168.506897 -439.677624 
L 166.262069 -439.677624 
L 164.017241 -439.677624 
L 161.772414 -439.677624 
L 159.527586 -439.677624 
L 157.282759 -439.677624 
L 155.037931 -439.677624 
L 152.793103 -439.677624 
L 150.548276 -439.677624 
L 148.303448 -439.677624 
L 146.058621 -439.677624 
L 143.813793 -439.677624 
L 141.568966 -439.677624 
L 139.324138 -439.677624 
L 137.07931 -439.677624 
L 134.834483 -439.677624 
L 132.589655 -439.677624 
L 130.344828 -439.677624 
L 128.1 -439.677624 
L 125.855172 -439.677624 
L 123.610345 -439.677624 
L 121.365517 -439.677624 
L 119.12069 -439.677624 
L 116.875862 -439.677624 
L 114.631034 -439.677624 
L 112.386207 -439.677624 
L 110.141379 -439.677624 
L 107.896552 -439.677624 
L 105.651724 -439.677624 
L 103.406897 -439.677624 
L 101.162069 -439.677624 
L 98.917241 -439.677624 
L 96.672414 -439.677624 
L 94.427586 -439.677624 
L 92.182759 -439.677624 
L 89.937931 -439.677624 
L 87.693103 -439.677624 
L 85.448276 -439.677624 
L 83.203448 -439.677624 
L 80.958621 -439.650125 
L 78.713793 -433.69423 
L 76.468966 -425.359865 
L 74.224138 -417.022527 
L 71.97931 -408.334125 
L 69.734483 -399.042993 
L 67.489655 -389.203981 
L 65.244828 -378.790098 
L 63 -367.663166 
z
" style="stroke: #0173b2; stroke-opacity: 0.2"/>
    </defs>
    <g clip-path="url(#pe2cbf8bba0)">
     <use xlink:href="#m768ca9df70" x="0" y="504" style="fill: #0173b2; fill-opacity: 0.2; stroke: #0173b2; stroke-opacity: 0.2"/>
    </g>
   </g>
   <g id="FillBetweenPolyCollection_2">
    <defs>
     <path id="m807713d216" d="M 63 -369.482596 
L 63 -290.910184 
L 65.244828 -301.413472 
L 67.489655 -313.167651 
L 69.734483 -323.160524 
L 71.97931 -332.146613 
L 74.224138 -341.136313 
L 76.468966 -350.040291 
L 78.713793 -357.179204 
L 80.958621 -364.542148 
L 83.203448 -371.110032 
L 85.448276 -376.511648 
L 87.693103 -382.182809 
L 89.937931 -386.253456 
L 92.182759 -392.053301 
L 94.427586 -395.932881 
L 96.672414 -398.614136 
L 98.917241 -400.829288 
L 101.162069 -402.320358 
L 103.406897 -403.554787 
L 105.651724 -405.11535 
L 107.896552 -406.092978 
L 110.141379 -406.167227 
L 112.386207 -406.466664 
L 114.631034 -405.396078 
L 116.875862 -405.356766 
L 119.12069 -403.851803 
L 121.365517 -402.855886 
L 123.610345 -401.90614 
L 125.855172 -399.687499 
L 128.1 -398.699135 
L 130.344828 -397.339501 
L 132.589655 -394.804708 
L 134.834483 -392.742151 
L 137.07931 -390.943126 
L 139.324138 -389.313739 
L 141.568966 -388.4546 
L 143.813793 -386.959555 
L 146.058621 -385.63065 
L 148.303448 -385.130928 
L 150.548276 -384.43718 
L 152.793103 -383.860619 
L 155.037931 -382.957041 
L 157.282759 -383.581248 
L 159.527586 -383.327251 
L 161.772414 -384.089108 
L 164.017241 -384.14007 
L 166.262069 -383.900563 
L 168.506897 -386.088483 
L 170.751724 -386.501521 
L 172.996552 -388.063364 
L 175.241379 -389.960378 
L 177.486207 -391.326317 
L 179.731034 -393.195383 
L 181.975862 -394.287977 
L 184.22069 -395.689816 
L 186.465517 -397.512018 
L 188.710345 -401.062824 
L 190.955172 -402.378926 
L 193.2 -403.531106 
L 195.444828 -404.198514 
L 197.689655 -405.517048 
L 199.934483 -406.703143 
L 202.17931 -407.888556 
L 204.424138 -409.257736 
L 206.668966 -409.409686 
L 208.913793 -410.04872 
L 211.158621 -410.718745 
L 213.403448 -410.951187 
L 215.648276 -409.584037 
L 217.893103 -407.63494 
L 220.137931 -406.177376 
L 222.382759 -404.020092 
L 224.627586 -400.619209 
L 226.872414 -397.246414 
L 229.117241 -392.197923 
L 231.362069 -386.063132 
L 233.606897 -379.870187 
L 235.851724 -372.358137 
L 238.096552 -364.820168 
L 240.341379 -356.4105 
L 242.586207 -347.408292 
L 244.831034 -338.967034 
L 247.075862 -330.270705 
L 249.32069 -319.683481 
L 251.565517 -308.19856 
L 253.810345 -296.994689 
L 256.055172 -284.473869 
L 258.3 -272.743106 
L 260.544828 -259.817632 
L 262.789655 -247.872141 
L 265.034483 -234.655021 
L 267.27931 -221.21453 
L 269.524138 -208.98295 
L 271.768966 -197.099466 
L 274.013793 -185.526352 
L 276.258621 -175.006887 
L 278.503448 -163.612256 
L 280.748276 -153.096127 
L 282.993103 -142.944288 
L 285.237931 -133.98403 
L 287.482759 -126.552477 
L 289.727586 -119.454465 
L 291.972414 -111.957487 
L 294.217241 -104.559892 
L 296.462069 -98.524572 
L 298.706897 -93.380653 
L 300.951724 -88.745228 
L 303.196552 -83.934796 
L 305.441379 -80.550584 
L 307.686207 -78.551227 
L 309.931034 -75.566561 
L 312.175862 -73.153016 
L 314.42069 -70.539074 
L 316.665517 -68.382045 
L 318.910345 -67.273107 
L 321.155172 -66.004965 
L 323.4 -64.266563 
L 325.644828 -61.774036 
L 327.889655 -61.218801 
L 330.134483 -60.682332 
L 332.37931 -60.07962 
L 334.624138 -59.9747 
L 336.868966 -60.427669 
L 339.113793 -61.557699 
L 341.358621 -62.091898 
L 343.603448 -63.532487 
L 345.848276 -63.156338 
L 348.093103 -62.524491 
L 350.337931 -61.566411 
L 352.582759 -62.167111 
L 354.827586 -61.397371 
L 357.072414 -61.845842 
L 359.317241 -62.532609 
L 361.562069 -60.537536 
L 363.806897 -58.318881 
L 366.051724 -56.347217 
L 368.296552 -55.474384 
L 370.541379 -55.440477 
L 372.786207 -55.440024 
L 375.031034 -55.440004 
L 377.275862 -55.440004 
L 379.52069 -55.440004 
L 381.765517 -55.440004 
L 384.010345 -55.440004 
L 386.255172 -55.440004 
L 388.5 -55.440004 
L 390.744828 -55.440004 
L 392.989655 -55.440004 
L 395.234483 -55.440004 
L 397.47931 -55.440004 
L 399.724138 -55.440004 
L 401.968966 -55.440004 
L 404.213793 -55.440004 
L 406.458621 -55.440004 
L 408.703448 -55.440004 
L 410.948276 -55.440004 
L 413.193103 -55.440004 
L 415.437931 -55.440004 
L 417.682759 -55.440004 
L 419.927586 -55.440004 
L 422.172414 -55.440004 
L 424.417241 -55.440004 
L 426.662069 -55.440004 
L 428.906897 -55.440004 
L 431.151724 -55.440004 
L 433.396552 -55.440004 
L 435.641379 -55.440004 
L 437.886207 -55.440004 
L 440.131034 -55.440004 
L 442.375862 -55.440004 
L 444.62069 -55.440004 
L 446.865517 -55.440004 
L 449.110345 -55.440004 
L 451.355172 -55.440004 
L 453.6 -55.440004 
L 453.6 -101.226789 
L 453.6 -101.226789 
L 451.355172 -102.267485 
L 449.110345 -101.76488 
L 446.865517 -102.26285 
L 444.62069 -102.057432 
L 442.375862 -102.492056 
L 440.131034 -102.848102 
L 437.886207 -102.553656 
L 435.641379 -102.186482 
L 433.396552 -102.396986 
L 431.151724 -101.974527 
L 428.906897 -102.715732 
L 426.662069 -103.757031 
L 424.417241 -104.009301 
L 422.172414 -103.525484 
L 419.927586 -103.303289 
L 417.682759 -104.107566 
L 415.437931 -104.431842 
L 413.193103 -104.6086 
L 410.948276 -103.65514 
L 408.703448 -104.274668 
L 406.458621 -105.344704 
L 404.213793 -104.632692 
L 401.968966 -104.97665 
L 399.724138 -105.031726 
L 397.47931 -104.779836 
L 395.234483 -104.044627 
L 392.989655 -104.81059 
L 390.744828 -104.227391 
L 388.5 -104.831194 
L 386.255172 -103.881057 
L 384.010345 -104.595011 
L 381.765517 -105.631253 
L 379.52069 -106.020419 
L 377.275862 -106.682522 
L 375.031034 -107.100629 
L 372.786207 -107.752822 
L 370.541379 -107.717866 
L 368.296552 -108.665073 
L 366.051724 -108.542357 
L 363.806897 -108.303083 
L 361.562069 -108.048605 
L 359.317241 -108.817656 
L 357.072414 -108.758468 
L 354.827586 -108.592019 
L 352.582759 -108.117829 
L 350.337931 -108.663903 
L 348.093103 -108.934158 
L 345.848276 -110.126473 
L 343.603448 -111.313709 
L 341.358621 -110.829631 
L 339.113793 -110.444002 
L 336.868966 -110.736279 
L 334.624138 -110.584788 
L 332.37931 -110.715796 
L 330.134483 -111.668946 
L 327.889655 -112.977373 
L 325.644828 -114.573524 
L 323.4 -115.602875 
L 321.155172 -117.394711 
L 318.910345 -119.248232 
L 316.665517 -121.637611 
L 314.42069 -124.141497 
L 312.175862 -127.108198 
L 309.931034 -129.983998 
L 307.686207 -133.344424 
L 305.441379 -137.129997 
L 303.196552 -141.338673 
L 300.951724 -146.877735 
L 298.706897 -152.209894 
L 296.462069 -158.636216 
L 294.217241 -165.614905 
L 291.972414 -173.198743 
L 289.727586 -180.978872 
L 287.482759 -189.714202 
L 285.237931 -199.131682 
L 282.993103 -209.556262 
L 280.748276 -219.217441 
L 278.503448 -231.340883 
L 276.258621 -242.103247 
L 274.013793 -253.80087 
L 271.768966 -265.009697 
L 269.524138 -277.642755 
L 267.27931 -290.581935 
L 265.034483 -302.702357 
L 262.789655 -315.819621 
L 260.544828 -328.535174 
L 258.3 -340.885371 
L 256.055172 -353.954931 
L 253.810345 -366.080599 
L 251.565517 -378.161463 
L 249.32069 -389.05424 
L 247.075862 -399.522909 
L 244.831034 -409.968673 
L 242.586207 -420.163902 
L 240.341379 -429.136565 
L 238.096552 -437.047555 
L 235.851724 -439.677619 
L 233.606897 -439.677624 
L 231.362069 -439.677624 
L 229.117241 -439.677624 
L 226.872414 -439.677624 
L 224.627586 -439.677624 
L 222.382759 -439.677624 
L 220.137931 -439.677624 
L 217.893103 -439.677624 
L 215.648276 -439.677624 
L 213.403448 -439.677624 
L 211.158621 -439.677624 
L 208.913793 -439.677624 
L 206.668966 -439.677624 
L 204.424138 -439.677624 
L 202.17931 -439.677624 
L 199.934483 -439.677624 
L 197.689655 -439.677624 
L 195.444828 -439.677624 
L 193.2 -439.677624 
L 190.955172 -439.677624 
L 188.710345 -439.677624 
L 186.465517 -439.677624 
L 184.22069 -439.677624 
L 181.975862 -439.677624 
L 179.731034 -439.677624 
L 177.486207 -439.677624 
L 175.241379 -439.677624 
L 172.996552 -439.677624 
L 170.751724 -439.677624 
L 168.506897 -439.677624 
L 166.262069 -439.677624 
L 164.017241 -439.677624 
L 161.772414 -439.677624 
L 159.527586 -439.677624 
L 157.282759 -439.677624 
L 155.037931 -439.677624 
L 152.793103 -439.677624 
L 150.548276 -439.677624 
L 148.303448 -439.677624 
L 146.058621 -439.677624 
L 143.813793 -439.677624 
L 141.568966 -439.677624 
L 139.324138 -439.677624 
L 137.07931 -439.677624 
L 134.834483 -439.677624 
L 132.589655 -439.677624 
L 130.344828 -439.677624 
L 128.1 -439.677624 
L 125.855172 -439.677624 
L 123.610345 -439.677624 
L 121.365517 -439.677624 
L 119.12069 -439.677624 
L 116.875862 -439.677624 
L 114.631034 -439.677624 
L 112.386207 -439.677624 
L 110.141379 -439.677624 
L 107.896552 -439.677624 
L 105.651724 -439.677624 
L 103.406897 -439.677624 
L 101.162069 -439.677624 
L 98.917241 -439.677624 
L 96.672414 -439.677624 
L 94.427586 -439.677624 
L 92.182759 -439.677624 
L 89.937931 -439.677624 
L 87.693103 -439.677624 
L 85.448276 -439.677624 
L 83.203448 -439.677624 
L 80.958621 -439.673483 
L 78.713793 -433.603105 
L 76.468966 -426.353962 
L 74.224138 -418.87707 
L 71.97931 -409.892838 
L 69.734483 -399.411652 
L 67.489655 -390.024467 
L 65.244828 -379.970314 
L 63 -369.482596 
z
" style="stroke: #e377c2; stroke-opacity: 0.2"/>
    </defs>
    <g clip-path="url(#pe2cbf8bba0)">
     <use xlink:href="#m807713d216" x="0" y="504" style="fill: #e377c2; fill-opacity: 0.2; stroke: #e377c2; stroke-opacity: 0.2"/>
    </g>
   </g>
   <g id="matplotlib.axis_2">
    <g id="xtick_1">
     <g id="line2d_9">
      <defs>
       <path id="med24be9393" d="M 0 0 
L 0 3.5 
" style="stroke: #000000; stroke-width: 0.8"/>
      </defs>
      <g>
       <use xlink:href="#med24be9393" x="74.224138" y="448.56" style="stroke: #000000; stroke-width: 0.8"/>
      </g>
     </g>
     <g id="text_10">
      <text style="font-size: 16px; font-family: 'Arial', sans-serif; text-anchor: middle" x="74.224138" y="467.7175" transform="rotate(-0 74.224138 467.7175)">1 Jul</text>
     </g>
    </g>
    <g id="xtick_2">
     <g id="line2d_10">
      <g>
       <use xlink:href="#med24be9393" x="143.813793" y="448.56" style="stroke: #000000; stroke-width: 0.8"/>
      </g>
     </g>
     <g id="text_11">
      <text style="font-size: 16px; font-family: 'Arial', sans-serif; text-anchor: middle" x="143.813793" y="467.71625" transform="rotate(-0 143.813793 467.71625)">1 Aug</text>
     </g>
    </g>
    <g id="xtick_3">
     <g id="line2d_11">
      <g>
       <use xlink:href="#med24be9393" x="213.403448" y="448.56" style="stroke: #000000; stroke-width: 0.8"/>
      </g>
     </g>
     <g id="text_12">
      <text style="font-size: 16px; font-family: 'Arial', sans-serif; text-anchor: middle" x="213.403448" y="467.71625" transform="rotate(-0 213.403448 467.71625)">1 Sep</text>
     </g>
    </g>
    <g id="xtick_4">
     <g id="line2d_12">
      <g>
       <use xlink:href="#med24be9393" x="280.748276" y="448.56" style="stroke: #000000; stroke-width: 0.8"/>
      </g>
     </g>
     <g id="text_13">
      <text style="font-size: 16px; font-family: 'Arial', sans-serif; text-anchor: middle" x="280.748276" y="467.71625" transform="rotate(-0 280.748276 467.71625)">1 Oct</text>
     </g>
    </g>
    <g id="xtick_5">
     <g id="line2d_13">
      <g>
       <use xlink:href="#med24be9393" x="350.337931" y="448.56" style="stroke: #000000; stroke-width: 0.8"/>
      </g>
     </g>
     <g id="text_14">
      <text style="font-size: 16px; font-family: 'Arial', sans-serif; text-anchor: middle" x="350.337931" y="467.71625" transform="rotate(-0 350.337931 467.71625)">1 Nov</text>
     </g>
    </g>
    <g id="xtick_6">
     <g id="line2d_14">
      <g>
       <use xlink:href="#med24be9393" x="417.682759" y="448.56" style="stroke: #000000; stroke-width: 0.8"/>
      </g>
     </g>
     <g id="text_15">
      <text style="font-size: 16px; font-family: 'Arial', sans-serif; text-anchor: middle" x="417.682759" y="467.71625" transform="rotate(-0 417.682759 467.71625)">1 Dec</text>
     </g>
    </g>
    <g id="text_16">
     <text style="font-size: 16px; font-family: 'Arial', sans-serif; text-anchor: middle" x="258.3" y="487.7175" transform="rotate(-0 258.3 487.7175)">Date (2017)</text>
    </g>
   </g>
   <g id="matplotlib.axis_3">
    <g id="ytick_9">
     <g id="line2d_15">
      <defs>
       <path id="me2f547b724" d="M 0 0 
L -3.5 0 
" style="stroke: #000000; stroke-width: 0.8"/>
      </defs>
      <g>
       <use xlink:href="#me2f547b724" x="63" y="448.56" style="stroke: #000000; stroke-width: 0.8"/>
      </g>
     </g>
     <g id="text_17">
      <text style="font-size: 16px; font-family: 'Arial', sans-serif; text-anchor: end" x="56" y="454.638125" transform="rotate(-0 56 454.638125)">0.0</text>
     </g>
    </g>
    <g id="ytick_10">
     <g id="line2d_16">
      <g>
       <use xlink:href="#me2f547b724" x="63" y="371.712475" style="stroke: #000000; stroke-width: 0.8"/>
      </g>
     </g>
     <g id="text_18">
      <text style="font-size: 16px; font-family: 'Arial', sans-serif; text-anchor: end" x="56" y="377.7906" transform="rotate(-0 56 377.7906)">0.2</text>
     </g>
    </g>
    <g id="ytick_11">
     <g id="line2d_17">
      <g>
       <use xlink:href="#me2f547b724" x="63" y="294.86495" style="stroke: #000000; stroke-width: 0.8"/>
      </g>
     </g>
     <g id="text_19">
      <text style="font-size: 16px; font-family: 'Arial', sans-serif; text-anchor: end" x="56" y="300.943075" transform="rotate(-0 56 300.943075)">0.4</text>
     </g>
    </g>
    <g id="ytick_12">
     <g id="line2d_18">
      <g>
       <use xlink:href="#me2f547b724" x="63" y="218.017426" style="stroke: #000000; stroke-width: 0.8"/>
      </g>
     </g>
     <g id="text_20">
      <text style="font-size: 16px; font-family: 'Arial', sans-serif; text-anchor: end" x="56" y="224.095551" transform="rotate(-0 56 224.095551)">0.6</text>
     </g>
    </g>
    <g id="ytick_13">
     <g id="line2d_19">
      <g>
       <use xlink:href="#me2f547b724" x="63" y="141.169901" style="stroke: #000000; stroke-width: 0.8"/>
      </g>
     </g>
     <g id="text_21">
      <text style="font-size: 16px; font-family: 'Arial', sans-serif; text-anchor: end" x="56" y="147.248026" transform="rotate(-0 56 147.248026)">0.8</text>
     </g>
    </g>
    <g id="ytick_14">
     <g id="line2d_20">
      <g>
       <use xlink:href="#me2f547b724" x="63" y="64.322376" style="stroke: #000000; stroke-width: 0.8"/>
      </g>
     </g>
     <g id="text_22">
      <text style="font-size: 16px; font-family: 'Arial', sans-serif; text-anchor: end" x="56" y="70.400501" transform="rotate(-0 56 70.400501)">1.0</text>
     </g>
    </g>
    <g id="text_23">
     <text style="font-size: 16px; font-family: 'Arial', sans-serif; text-anchor: middle" x="22.71125" y="254.52" transform="rotate(-90 22.71125 254.52)">Temperature suitability for transmission</text>
    </g>
   </g>
   <g id="line2d_21">
    <path d="M 63 173.562044 
L 65.244828 162.606735 
L 69.734483 142.340652 
L 74.224138 124.399253 
L 76.468966 115.969163 
L 78.713793 108.133116 
L 80.958621 101.067362 
L 83.203448 94.805369 
L 85.448276 89.230809 
L 87.693103 84.559019 
L 89.937931 80.748855 
L 92.182759 77.650451 
L 94.427586 75.306829 
L 96.672414 73.527686 
L 98.917241 72.296339 
L 101.162069 71.434947 
L 103.406897 70.843776 
L 105.651724 70.390174 
L 110.141379 70.180513 
L 112.386207 70.208582 
L 116.875862 70.71439 
L 121.365517 71.950304 
L 125.855172 73.523665 
L 128.1 74.414119 
L 137.07931 78.633503 
L 141.568966 80.531149 
L 143.813793 81.485595 
L 150.548276 83.668599 
L 152.793103 84.228097 
L 155.037931 84.597681 
L 157.282759 84.840197 
L 159.527586 84.850033 
L 161.772414 84.731758 
L 164.017241 84.384169 
L 168.506897 83.066106 
L 172.996552 81.380052 
L 177.486207 79.096445 
L 181.975862 76.798165 
L 184.22069 75.77641 
L 188.710345 73.449446 
L 190.955172 72.441343 
L 195.444828 70.897476 
L 199.934483 69.657308 
L 202.17931 69.113247 
L 206.668966 68.647249 
L 211.158621 68.480432 
L 213.403448 68.534838 
L 217.893103 69.291508 
L 220.137931 69.976164 
L 222.382759 71.102916 
L 224.627586 72.769345 
L 226.872414 75.371057 
L 229.117241 78.626451 
L 231.362069 83.036411 
L 233.606897 88.376023 
L 235.851724 94.923281 
L 238.096552 102.488311 
L 240.341379 110.972757 
L 244.831034 129.236424 
L 247.075862 138.864336 
L 249.32069 149.359844 
L 251.565517 160.438492 
L 253.810345 172.113543 
L 262.789655 221.944674 
L 267.27931 247.628822 
L 271.768966 271.835073 
L 276.258621 295.130194 
L 280.748276 317.097021 
L 282.993103 327.371678 
L 285.237931 337.020741 
L 289.727586 353.96446 
L 291.972414 361.82535 
L 294.217241 369.176998 
L 296.462069 375.722781 
L 298.706897 381.802597 
L 300.951724 387.125828 
L 303.196552 391.989187 
L 305.441379 396.170514 
L 307.686207 399.71893 
L 312.175862 405.493388 
L 314.42069 408.188705 
L 316.665517 410.434788 
L 318.910345 412.290506 
L 321.155172 413.611151 
L 323.4 415.20128 
L 325.644828 416.532195 
L 327.889655 417.505362 
L 330.134483 418.270604 
L 332.37931 418.808568 
L 334.624138 419.132765 
L 336.868966 419.243153 
L 341.358621 419.066643 
L 343.603448 418.818591 
L 348.093103 419.566384 
L 350.337931 419.856927 
L 357.072414 420.279875 
L 359.317241 420.334525 
L 363.806897 422.096047 
L 368.296552 423.583007 
L 375.031034 425.522243 
L 379.52069 426.583076 
L 384.010345 427.602743 
L 388.5 428.520848 
L 395.234483 429.77117 
L 401.968966 430.745397 
L 422.172414 433.213459 
L 428.906897 433.850947 
L 442.375862 434.952231 
L 453.6 435.662689 
L 453.6 435.662689 
" clip-path="url(#pe2cbf8bba0)" style="fill: none; stroke: #0173b2; stroke-width: 2; stroke-linecap: square"/>
   </g>
   <g id="line2d_22">
    <path d="M 63 174.268214 
L 65.244828 163.295618 
L 69.734483 143.067748 
L 71.97931 133.8299 
L 76.468966 116.68975 
L 78.713793 108.885308 
L 80.958621 101.772689 
L 83.203448 95.487389 
L 85.448276 89.85823 
L 87.693103 85.132501 
L 89.937931 81.271755 
L 92.182759 78.053476 
L 94.427586 75.611149 
L 96.672414 73.779917 
L 98.917241 72.417141 
L 101.162069 71.526098 
L 105.651724 70.28549 
L 110.141379 70.08041 
L 116.875862 70.511069 
L 119.12069 71.041378 
L 123.610345 72.41247 
L 128.1 74.180448 
L 130.344828 75.211887 
L 132.589655 76.507839 
L 137.07931 78.643507 
L 139.324138 79.589858 
L 141.568966 80.702341 
L 148.303448 83.322226 
L 150.548276 84.044216 
L 155.037931 85.034929 
L 157.282759 85.172765 
L 159.527586 85.141085 
L 161.772414 84.953267 
L 164.017241 84.569233 
L 166.262069 83.996866 
L 172.996552 81.38081 
L 175.241379 80.330913 
L 177.486207 79.128253 
L 179.731034 77.764942 
L 186.465517 74.446395 
L 190.955172 72.268125 
L 193.2 71.467242 
L 197.689655 70.275375 
L 204.424138 68.865356 
L 208.913793 68.452137 
L 211.158621 68.368345 
L 213.403448 68.469678 
L 215.648276 68.762501 
L 217.893103 69.247625 
L 220.137931 69.932585 
L 222.382759 71.116188 
L 224.627586 72.901463 
L 226.872414 75.485428 
L 229.117241 78.749647 
L 231.362069 83.251316 
L 233.606897 88.542548 
L 235.851724 95.06589 
L 238.096552 102.593331 
L 240.341379 110.99887 
L 244.831034 129.295795 
L 247.075862 138.956928 
L 249.32069 149.491615 
L 251.565517 160.600832 
L 253.810345 172.366652 
L 262.789655 222.207813 
L 267.27931 247.932836 
L 271.768966 272.077605 
L 276.258621 295.310594 
L 280.748276 317.4026 
L 282.993103 327.650962 
L 285.237931 337.374741 
L 287.482759 346.08169 
L 291.972414 362.148919 
L 294.217241 369.461088 
L 296.462069 376.076455 
L 298.706897 382.186744 
L 300.951724 387.607323 
L 303.196552 392.569483 
L 305.441379 396.786853 
L 307.686207 400.311189 
L 312.175862 406.014786 
L 314.42069 408.630917 
L 316.665517 410.994573 
L 318.910345 412.897095 
L 321.155172 414.211224 
L 323.4 415.948708 
L 325.644828 417.278542 
L 327.889655 418.301511 
L 330.134483 419.0786 
L 332.37931 419.638313 
L 334.624138 419.931301 
L 336.868966 419.976992 
L 339.113793 419.908196 
L 341.358621 419.72308 
L 343.603448 419.393982 
L 348.093103 420.194153 
L 350.337931 420.506728 
L 354.827586 420.790406 
L 359.317241 420.902696 
L 366.051724 423.341717 
L 370.541379 424.751763 
L 377.275862 426.691652 
L 384.010345 428.353326 
L 395.234483 430.359638 
L 401.968966 431.209847 
L 404.213793 431.526872 
L 406.458621 431.726803 
L 410.948276 432.343517 
L 417.682759 433.018949 
L 424.417241 433.559272 
L 428.906897 433.898669 
L 433.396552 434.333562 
L 440.131034 434.915086 
L 446.865517 435.22705 
L 453.6 435.816529 
L 453.6 435.816529 
" clip-path="url(#pe2cbf8bba0)" style="fill: none; stroke-dasharray: 7.4,3.2; stroke-dashoffset: 0; stroke: #e377c2; stroke-width: 2"/>
   </g>
   <g id="line2d_23">
    <path d="M 63 178.128047 
L 67.489655 156.957833 
L 69.734483 146.874615 
L 74.224138 128.708912 
L 76.468966 120.134184 
L 78.713793 112.116209 
L 80.958621 104.844046 
L 83.203448 98.233736 
L 85.448276 92.054952 
L 87.693103 86.568188 
L 89.937931 81.763052 
L 92.182759 77.458681 
L 94.427586 73.821014 
L 96.672414 70.839101 
L 98.917241 68.51512 
L 101.162069 66.885523 
L 103.406897 65.66449 
L 105.651724 64.636645 
L 107.896552 64.419061 
L 110.141379 64.344955 
L 112.386207 64.641377 
L 114.631034 65.20864 
L 116.875862 65.977203 
L 121.365517 68.709289 
L 128.1 73.312065 
L 134.834483 78.757817 
L 137.07931 80.193512 
L 139.324138 81.497119 
L 143.813793 84.319466 
L 146.058621 85.518622 
L 148.303448 86.5371 
L 150.548276 87.429957 
L 152.793103 88.150739 
L 155.037931 88.669461 
L 157.282759 88.985342 
L 159.527586 89.097711 
L 161.772414 89.006007 
L 164.017241 88.709781 
L 166.262069 88.208696 
L 168.506897 87.502529 
L 170.751724 86.612582 
L 172.996552 85.599163 
L 175.241379 84.399615 
L 184.22069 78.762676 
L 186.465517 77.041617 
L 190.955172 73.223522 
L 197.689655 68.496415 
L 199.934483 67.05172 
L 202.17931 65.828434 
L 204.424138 65.0267 
L 206.668966 64.510862 
L 208.913793 64.364242 
L 211.158621 64.492091 
L 213.403448 64.921346 
L 217.893103 67.465313 
L 220.137931 69.553755 
L 222.382759 72.39208 
L 224.627586 75.890108 
L 226.872414 80.22614 
L 229.117241 85.075853 
L 231.362069 90.701992 
L 233.606897 97.097462 
L 235.851724 104.079818 
L 238.096552 111.708319 
L 240.341379 120.215428 
L 244.831034 138.853355 
L 247.075862 148.937596 
L 251.565517 171.114639 
L 253.810345 182.963733 
L 262.789655 233.262769 
L 269.524138 272.344074 
L 276.258621 309.249448 
L 280.748276 332.298761 
L 285.237931 353.240184 
L 289.727586 371.772277 
L 291.972414 380.216374 
L 294.217241 388.087184 
L 296.462069 395.353197 
L 298.706897 402.019824 
L 300.951724 408.111639 
L 303.196552 413.572529 
L 305.441379 418.469276 
L 307.686207 422.824363 
L 309.931034 426.755661 
L 312.175862 430.17772 
L 314.42069 433.130832 
L 316.665517 435.740096 
L 318.910345 438.017693 
L 321.155172 439.935044 
L 323.4 441.561864 
L 325.644828 442.957198 
L 327.889655 444.122461 
L 330.134483 445.080207 
L 332.37931 445.847326 
L 334.624138 446.482437 
L 339.113793 447.38425 
L 343.603448 447.928527 
L 348.093103 448.244779 
L 354.827586 448.466771 
L 366.051724 448.554457 
L 451.355172 448.56 
L 453.6 448.56 
L 453.6 448.56 
" clip-path="url(#pe2cbf8bba0)" style="fill: none; stroke-dasharray: 2,3.3; stroke-dashoffset: 0; stroke: #000000; stroke-width: 2"/>
   </g>
   <g id="patch_179">
    <path d="M 63 448.56 
L 63 60.48 
" style="fill: none; stroke: #000000; stroke-width: 0.8; stroke-linejoin: miter; stroke-linecap: square"/>
   </g>
   <g id="patch_180">
    <path d="M 63 448.56 
L 453.6 448.56 
" style="fill: none; stroke: #000000; stroke-width: 0.8; stroke-linejoin: miter; stroke-linecap: square"/>
   </g>
   <g id="legend_1">
    <g id="patch_181">
     <path d="M 288.05875 134.683281 
L 443.8 134.683281 
Q 446.6 134.683281 446.6 131.883281 
L 446.6 70.28 
Q 446.6 67.48 443.8 67.48 
L 288.05875 67.48 
Q 285.25875 67.48 285.25875 70.28 
L 285.25875 131.883281 
Q 285.25875 134.683281 288.05875 134.683281 
z
" style="fill: #ffffff; opacity: 0.8; stroke: #cccccc; stroke-linejoin: miter"/>
    </g>
    <g id="line2d_24">
     <path d="M 290.85875 78.817812 
L 304.85875 78.817812 
L 318.85875 78.817812 
" style="fill: none; stroke: #0173b2; stroke-width: 2; stroke-linecap: square"/>
    </g>
    <g id="text_24">
     <text style="font-size: 14px; font-family: 'Arial', sans-serif; text-anchor: start" x="330.05875" y="83.717812" transform="rotate(-0 330.05875 83.717812)">Under-reporting</text>
    </g>
    <g id="line2d_25">
     <path d="M 290.85875 99.818906 
L 304.85875 99.818906 
L 318.85875 99.818906 
" style="fill: none; stroke-dasharray: 7.4,3.2; stroke-dashoffset: 0; stroke: #e377c2; stroke-width: 2"/>
    </g>
    <g id="text_25">
     <text style="font-size: 14px; font-family: 'Arial', sans-serif; text-anchor: start" x="330.05875" y="104.718906" transform="rotate(-0 330.05875 104.718906)">Full reporting</text>
    </g>
    <g id="line2d_26">
     <path d="M 290.85875 120.82 
L 304.85875 120.82 
L 318.85875 120.82 
" style="fill: none; stroke-dasharray: 2,3.3; stroke-dashoffset: 0; stroke: #000000; stroke-width: 2"/>
    </g>
    <g id="text_26">
     <text style="font-size: 14px; font-family: 'Arial', sans-serif; text-anchor: start" x="330.05875" y="125.72" transform="rotate(-0 330.05875 125.72)">Seasonal prior</text>
    </g>
   </g>
  </g>
 </g>
 <defs>
  <clipPath id="pe2cbf8bba0">
   <rect x="63" y="60.48" width="390.6" height="388.08"/>
  </clipPath>
 </defs>
</svg>
