<?xml version="1.0" encoding="utf-8" standalone="no"?>
<!DOCTYPE svg PUBLIC "-//W3C//DTD SVG 1.1//EN"
  "http://www.w3.org/Graphics/SVG/1.1/DTD/svg11.dtd">
<svg xmlns:xlink="http://www.w3.org/1999/xlink" width="504pt" height="504pt" viewBox="0 0 504 504" xmlns="http://www.w3.org/2000/svg" version="1.1">
 <metadata>
  <rdf:RDF xmlns:dc="http://purl.org/dc/elements/1.1/" xmlns:cc="http://creativecommons.org/ns#" xmlns:rdf="http://www.w3.org/1999/02/22-rdf-syntax-ns#">
   <cc:Work>
    <dc:type rdf:resource="http://purl.org/dc/dcmitype/StillImage"/>
    <dc:date>2026-06-17T19:02:33.416406</dc:date>
    <dc:format>image/svg+xml</dc:format>
    <dc:creator>
     <cc:Agent>
      <dc:title>Matplotlib v3.10.9, https://matplotlib.org/</dc:title>
     </cc:Agent>
    </dc:creator>
   </cc:Work>
  </rdf:RDF>
 </metadata>
 <defs>
  <style type="text/css">*{stroke-linejoin: round; stroke-linecap: butt}</style>
 </defs>
 <g id="figure_1">
  <g id="patch_1">
   <path d="M 0 504 
L 504 504 
L 504 0 
L 0 0 
L 0 504 
z
" style="fill: none"/>
  </g>
  <g id="axes_1">
   <g id="patch_2">
    <path d="M 63 448.56 
L 453.6 448.56 
L 453.6 60.48 
L 63 60.48 
L 63 448.56 
z
" style="fill: none"/>
   </g>
   <g id="matplotlib.axis_1">
    <g id="xtick_1">
     <g id="line2d_1">
      <defs>
       <path id="m27dc363469" d="M 0 0 
L 0 3.5 
" style="stroke: #000000; stroke-width: 0.8"/>
      </defs>
      <g>
       <use xlink:href="#m27dc363469" x="80.754545" y="448.56" style="stroke: #000000; stroke-width: 0.8"/>
      </g>
     </g>
     <g id="text_1">
      <text style="font-size: 16px; font-family: 'Arial', sans-serif; text-anchor: middle" x="80.754545" y="467.0125" transform="rotate(-0 80.754545 467.0125)">1 Jan</text>
     </g>
    </g>
    <g id="xtick_2">
     <g id="line2d_2">
      <g>
       <use xlink:href="#m27dc363469" x="110.995804" y="448.56" style="stroke: #000000; stroke-width: 0.8"/>
      </g>
     </g>
    </g>
    <g id="xtick_3">
     <g id="line2d_3">
      <g>
       <use xlink:href="#m27dc363469" x="138.31049" y="448.56" style="stroke: #000000; stroke-width: 0.8"/>
      </g>
     </g>
     <g id="text_2">
      <text style="font-size: 16px; font-family: 'Arial', sans-serif; text-anchor: middle" x="138.31049" y="467.0125" transform="rotate(-0 138.31049 467.0125)">1 Mar</text>
     </g>
    </g>
    <g id="xtick_4">
     <g id="line2d_4">
      <g>
       <use xlink:href="#m27dc363469" x="168.551748" y="448.56" style="stroke: #000000; stroke-width: 0.8"/>
      </g>
     </g>
    </g>
    <g id="xtick_5">
     <g id="line2d_5">
      <g>
       <use xlink:href="#m27dc363469" x="197.817483" y="448.56" style="stroke: #000000; stroke-width: 0.8"/>
      </g>
     </g>
     <g id="text_3">
      <text style="font-size: 16px; font-family: 'Arial', sans-serif; text-anchor: middle" x="197.817483" y="467.06" transform="rotate(-0 197.817483 467.06)">1 May</text>
     </g>
    </g>
    <g id="xtick_6">
     <g id="line2d_6">
      <g>
       <use xlink:href="#m27dc363469" x="228.058741" y="448.56" style="stroke: #000000; stroke-width: 0.8"/>
      </g>
     </g>
    </g>
    <g id="xtick_7">
     <g id="line2d_7">
      <g>
       <use xlink:href="#m27dc363469" x="257.324476" y="448.56" style="stroke: #000000; stroke-width: 0.8"/>
      </g>
     </g>
     <g id="text_4">
      <text style="font-size: 16px; font-family: 'Arial', sans-serif; text-anchor: middle" x="257.324476" y="467.0125" transform="rotate(-0 257.324476 467.0125)">1 Jul</text>
     </g>
    </g>
    <g id="xtick_8">
     <g id="line2d_8">
      <g>
       <use xlink:href="#m27dc363469" x="287.565734" y="448.56" style="stroke: #000000; stroke-width: 0.8"/>
      </g>
     </g>
    </g>
    <g id="xtick_9">
     <g id="line2d_9">
      <g>
       <use xlink:href="#m27dc363469" x="317.806993" y="448.56" style="stroke: #000000; stroke-width: 0.8"/>
      </g>
     </g>
     <g id="text_5">
      <text style="font-size: 16px; font-family: 'Arial', sans-serif; text-anchor: middle" x="317.806993" y="467.2075" transform="rotate(-0 317.806993 467.2075)">1 Sep</text>
     </g>
    </g>
    <g id="xtick_10">
     <g id="line2d_10">
      <g>
       <use xlink:href="#m27dc363469" x="347.072727" y="448.56" style="stroke: #000000; stroke-width: 0.8"/>
      </g>
     </g>
    </g>
    <g id="xtick_11">
     <g id="line2d_11">
      <g>
       <use xlink:href="#m27dc363469" x="377.313986" y="448.56" style="stroke: #000000; stroke-width: 0.8"/>
      </g>
     </g>
     <g id="text_6">
      <text style="font-size: 16px; font-family: 'Arial', sans-serif; text-anchor: middle" x="377.313986" y="467.0125" transform="rotate(-0 377.313986 467.0125)">1 Nov</text>
     </g>
    </g>
    <g id="xtick_12">
     <g id="line2d_12">
      <g>
       <use xlink:href="#m27dc363469" x="406.57972" y="448.56" style="stroke: #000000; stroke-width: 0.8"/>
      </g>
     </g>
    </g>
    <g id="xtick_13">
     <g id="line2d_13">
      <g>
       <use xlink:href="#m27dc363469" x="436.820979" y="448.56" style="stroke: #000000; stroke-width: 0.8"/>
      </g>
     </g>
     <g id="text_7">
      <text style="font-size: 16px; font-family: 'Arial', sans-serif; text-anchor: middle" x="436.820979" y="467.0125" transform="rotate(-0 436.820979 467.0125)">1 Jan</text>
     </g>
    </g>
    <g id="text_8">
     <text style="font-size: 16px; font-family: 'Arial', sans-serif; text-anchor: middle" x="258.3" y="485.88" transform="rotate(-0 258.3 485.88)">Date</text>
    </g>
   </g>
   <g id="matplotlib.axis_2">
    <g id="ytick_1">
     <g id="line2d_14">
      <defs>
       <path id="me77b289d7e" d="M 0 0 
L -3.5 0 
" style="stroke: #000000; stroke-width: 0.8"/>
      </defs>
      <g>
       <use xlink:href="#me77b289d7e" x="63" y="448.56" style="stroke: #000000; stroke-width: 0.8"/>
      </g>
     </g>
     <g id="text_9">
      <text style="font-size: 16px; font-family: 'Arial', sans-serif; text-anchor: end" x="56" y="454.28625" transform="rotate(-0 56 454.28625)">0.00</text>
     </g>
    </g>
    <g id="ytick_2">
     <g id="line2d_15">
      <g>
       <use xlink:href="#me77b289d7e" x="63" y="402.357285" style="stroke: #000000; stroke-width: 0.8"/>
      </g>
     </g>
     <g id="text_10">
      <text style="font-size: 16px; font-family: 'Arial', sans-serif; text-anchor: end" x="56" y="408.083535" transform="rotate(-0 56 408.083535)">0.25</text>
     </g>
    </g>
    <g id="ytick_3">
     <g id="line2d_16">
      <g>
       <use xlink:href="#me77b289d7e" x="63" y="356.15457" style="stroke: #000000; stroke-width: 0.8"/>
      </g>
     </g>
     <g id="text_11">
      <text style="font-size: 16px; font-family: 'Arial', sans-serif; text-anchor: end" x="56" y="361.88082" transform="rotate(-0 56 361.88082)">0.50</text>
     </g>
    </g>
    <g id="ytick_4">
     <g id="line2d_17">
      <g>
       <use xlink:href="#me77b289d7e" x="63" y="309.951855" style="stroke: #000000; stroke-width: 0.8"/>
      </g>
     </g>
     <g id="text_12">
      <text style="font-size: 16px; font-family: 'Arial', sans-serif; text-anchor: end" x="56" y="315.678105" transform="rotate(-0 56 315.678105)">0.75</text>
     </g>
    </g>
    <g id="ytick_5">
     <g id="line2d_18">
      <g>
       <use xlink:href="#me77b289d7e" x="63" y="263.74914" style="stroke: #000000; stroke-width: 0.8"/>
      </g>
     </g>
     <g id="text_13">
      <text style="font-size: 16px; font-family: 'Arial', sans-serif; text-anchor: end" x="56" y="269.47539" transform="rotate(-0 56 269.47539)">1.00</text>
     </g>
    </g>
    <g id="ytick_6">
     <g id="line2d_19">
      <g>
       <use xlink:href="#me77b289d7e" x="63" y="217.546425" style="stroke: #000000; stroke-width: 0.8"/>
      </g>
     </g>
     <g id="text_14">
      <text style="font-size: 16px; font-family: 'Arial', sans-serif; text-anchor: end" x="56" y="223.272675" transform="rotate(-0 56 223.272675)">1.25</text>
     </g>
    </g>
    <g id="ytick_7">
     <g id="line2d_20">
      <g>
       <use xlink:href="#me77b289d7e" x="63" y="171.34371" style="stroke: #000000; stroke-width: 0.8"/>
      </g>
     </g>
     <g id="text_15">
      <text style="font-size: 16px; font-family: 'Arial', sans-serif; text-anchor: end" x="56" y="177.06996" transform="rotate(-0 56 177.06996)">1.50</text>
     </g>
    </g>
    <g id="ytick_8">
     <g id="line2d_21">
      <g>
       <use xlink:href="#me77b289d7e" x="63" y="125.140995" style="stroke: #000000; stroke-width: 0.8"/>
      </g>
     </g>
     <g id="text_16">
      <text style="font-size: 16px; font-family: 'Arial', sans-serif; text-anchor: end" x="56" y="130.867245" transform="rotate(-0 56 130.867245)">1.75</text>
     </g>
    </g>
    <g id="ytick_9">
     <g id="line2d_22">
      <g>
       <use xlink:href="#me77b289d7e" x="63" y="78.93828" style="stroke: #000000; stroke-width: 0.8"/>
      </g>
     </g>
     <g id="text_17">
      <text style="font-size: 16px; font-family: 'Arial', sans-serif; text-anchor: end" x="56" y="84.66453" transform="rotate(-0 56 84.66453)">2.00</text>
     </g>
    </g>
    <g id="text_18">
     <text style="font-size: 16px; font-family: 'Arial', sans-serif; text-anchor: middle" x="17.6825" y="254.52" transform="rotate(-90 17.6825 254.52)">Time-dependent reproduction number</text>
    </g>
   </g>
   <g id="line2d_23">
    <path d="M 80.754545 448.56 
L 202.695105 448.452778 
L 205.621678 448.267002 
L 208.548252 447.861211 
L 210.499301 447.382872 
L 212.45035 446.651679 
L 214.401399 445.565594 
L 216.352448 444.01941 
L 217.327972 443.023374 
L 219.279021 440.512369 
L 220.254545 438.962246 
L 221.23007 437.175313 
L 223.181119 432.825281 
L 224.156643 430.219513 
L 225.132168 427.279255 
L 227.083217 420.297313 
L 229.034266 411.734216 
L 230.985315 401.371698 
L 232.936364 389.120473 
L 234.887413 375.016004 
L 236.838462 359.090095 
L 238.78951 341.205144 
L 240.740559 321.573496 
L 243.667133 289.76373 
L 246.593706 255.928303 
L 250.495804 210.512329 
L 253.422378 177.980021 
L 255.373427 158.350338 
L 257.324476 140.875635 
L 259.275524 124.914097 
L 261.226573 111.559695 
L 263.177622 100.337889 
L 265.128671 91.574896 
L 266.104196 88.075601 
L 267.07972 85.207117 
L 268.055245 82.971537 
L 269.030769 81.403928 
L 270.006294 80.229341 
L 270.981818 79.240594 
L 271.957343 79.031287 
L 272.932867 78.96 
L 273.908392 79.245146 
L 274.883916 79.790831 
L 275.859441 80.530159 
L 277.81049 83.15832 
L 280.737063 87.586013 
L 283.663636 92.824615 
L 287.565734 98.174706 
L 288.541259 99.328248 
L 290.492308 101.166878 
L 291.467832 101.860242 
L 292.443357 102.359233 
L 293.418881 102.663099 
L 294.394406 102.771193 
L 295.36993 102.682977 
L 296.345455 102.398019 
L 297.320979 101.915994 
L 298.296503 101.236689 
L 300.247552 99.405725 
L 301.223077 98.251806 
L 305.125175 92.82929 
L 306.100699 91.173697 
L 308.051748 87.500838 
L 311.953846 81.563803 
L 312.929371 80.387049 
L 313.904895 79.615812 
L 314.88042 79.119596 
L 315.855944 78.978553 
L 316.831469 79.101539 
L 317.806993 79.514466 
L 319.758042 81.961663 
L 320.733566 83.970663 
L 321.709091 86.701022 
L 322.684615 90.06599 
L 323.66014 94.237085 
L 324.635664 98.902321 
L 325.611189 104.314449 
L 327.562238 117.1834 
L 328.537762 124.521722 
L 330.488811 141.50907 
L 332.43986 160.334846 
L 335.366434 193.066672 
L 340.244056 254.142582 
L 343.170629 291.070562 
L 346.097203 325.76481 
L 348.048252 346.976094 
L 349.999301 366.007908 
L 351.95035 382.816078 
L 353.901399 397.377116 
L 355.852448 409.650242 
L 357.803497 419.613888 
L 359.754545 427.58507 
L 360.73007 430.876958 
L 362.681119 436.227749 
L 363.656643 438.418709 
L 364.632168 440.263126 
L 365.607692 441.828064 
L 366.583217 443.170321 
L 367.558741 444.291259 
L 368.534266 445.212574 
L 370.485315 446.561464 
L 372.436364 447.428974 
L 374.387413 447.952547 
L 376.338462 448.256769 
L 379.265035 448.470318 
L 384.142657 448.554668 
L 423.163636 448.56 
L 435.845455 448.56 
L 435.845455 448.56 
" clip-path="url(#p7c4914d111)" style="fill: none; stroke: #2e7ebc; stroke-width: 2; stroke-linecap: square"/>
   </g>
   <g id="line2d_24">
    <path d="M 80.754545 448.559992 
L 156.845455 448.452778 
L 161.723077 448.232148 
L 165.625175 447.861211 
L 168.551748 447.382872 
L 171.478322 446.651679 
L 174.404895 445.565594 
L 176.355944 444.58011 
L 178.306993 443.355386 
L 180.258042 441.849713 
L 182.209091 439.995661 
L 184.16014 437.770957 
L 186.111189 435.112484 
L 188.062238 431.956692 
L 190.013287 428.259341 
L 191.964336 423.942283 
L 193.915385 418.943569 
L 195.866434 413.234839 
L 197.817483 406.784869 
L 199.768531 399.407998 
L 201.71958 391.240514 
L 203.670629 382.301666 
L 206.597203 367.252226 
L 209.523776 350.40202 
L 212.45035 331.597953 
L 216.352448 304.160869 
L 220.254545 274.993873 
L 231.960839 184.936627 
L 234.887413 164.816782 
L 236.838462 152.377733 
L 239.765035 135.376597 
L 241.716084 124.914097 
L 243.667133 115.798936 
L 245.618182 107.597195 
L 247.569231 100.337889 
L 249.52028 94.335322 
L 250.495804 91.574896 
L 252.446853 87.11944 
L 253.422378 85.207117 
L 254.397902 83.71673 
L 255.373427 82.449001 
L 256.348951 81.403928 
L 258.3 79.899759 
L 259.275524 79.240594 
L 261.226573 79.007525 
L 262.202098 78.96 
L 264.153147 79.427041 
L 265.128671 79.790831 
L 266.104196 80.283716 
L 267.07972 80.949756 
L 269.030769 82.701863 
L 272.932867 86.592624 
L 273.908392 87.586013 
L 277.81049 92.283674 
L 279.761538 94.205698 
L 282.688112 96.848415 
L 284.639161 98.55922 
L 286.59021 99.981405 
L 288.541259 101.166878 
L 290.492308 102.026572 
L 291.467832 102.359233 
L 293.418881 102.69913 
L 294.394406 102.771193 
L 296.345455 102.587991 
L 297.320979 102.398019 
L 299.272028 101.689559 
L 301.223077 100.66596 
L 303.174126 99.405725 
L 305.125175 97.807552 
L 310.002797 93.297116 
L 311.953846 91.173697 
L 314.88042 87.500838 
L 319.758042 82.490297 
L 321.709091 80.7793 
L 322.684615 80.12997 
L 323.66014 79.615812 
L 324.635664 79.285001 
L 325.611189 79.072582 
L 326.586713 78.978553 
L 328.537762 79.239181 
L 329.513287 79.514466 
L 332.43986 81.961663 
L 333.415385 83.300996 
L 334.390909 84.880783 
L 335.366434 86.701022 
L 337.317483 91.456355 
L 339.268531 97.347243 
L 341.21958 104.314449 
L 343.170629 112.705562 
L 345.121678 122.075615 
L 347.072727 132.705232 
L 349.999301 150.634196 
L 351.95035 163.851972 
L 354.876923 185.467759 
L 357.803497 209.04212 
L 361.705594 241.452398 
L 366.583217 283.054921 
L 370.485315 314.548642 
L 373.411888 336.721188 
L 376.338462 356.866027 
L 379.265035 374.693183 
L 382.191608 390.387492 
L 384.142657 399.514794 
L 386.093706 407.696879 
L 388.044755 414.903408 
L 389.995804 421.010363 
L 391.946853 426.324484 
L 393.897902 430.876958 
L 395.848951 434.554408 
L 397.8 437.688389 
L 399.751049 440.263126 
L 401.702098 442.275483 
L 403.653147 443.917613 
L 405.604196 445.212574 
L 407.555245 446.154163 
L 409.506294 446.885645 
L 411.457343 447.428974 
L 414.383916 447.952547 
L 418.286014 448.320026 
L 423.163636 448.503943 
L 433.894406 448.559757 
L 435.845455 448.559967 
L 435.845455 448.559967 
" clip-path="url(#p7c4914d111)" style="fill: none; stroke: #e25508; stroke-width: 2; stroke-linecap: square"/>
   </g>
   <g id="line2d_25">
    <path d="M 80.754545 448.56 
L 232.936364 448.469644 
L 234.887413 448.306507 
L 236.838462 447.945766 
L 237.813986 447.649924 
L 238.78951 447.219578 
L 239.765035 446.651679 
L 240.740559 445.861729 
L 241.716084 444.860461 
L 242.691608 443.521392 
L 243.667133 441.849713 
L 244.642657 439.737307 
L 245.618182 437.175313 
L 246.593706 433.968883 
L 247.569231 430.219513 
L 248.544755 425.610769 
L 249.52028 420.297313 
L 250.495804 413.98515 
L 251.471329 406.784869 
L 253.422378 389.120473 
L 255.373427 367.252226 
L 257.324476 341.205144 
L 259.275524 311.264721 
L 262.202098 261.694863 
L 266.104196 193.870424 
L 268.055245 163.200171 
L 270.006294 136.751357 
L 270.981818 124.914097 
L 272.932867 105.615945 
L 273.908392 98.026712 
L 274.883916 91.574896 
L 275.859441 86.641359 
L 276.834965 82.971537 
L 277.81049 80.816635 
L 278.786014 79.240594 
L 279.761538 78.995643 
L 280.737063 79.245146 
L 281.712587 80.160495 
L 282.688112 81.78895 
L 284.639161 86.09593 
L 285.614685 88.469382 
L 286.59021 91.201793 
L 287.565734 93.515156 
L 290.492308 99.328248 
L 291.467832 100.737431 
L 292.443357 101.860242 
L 293.418881 102.511166 
L 294.394406 102.771193 
L 295.36993 102.540498 
L 296.345455 101.915994 
L 297.320979 100.808642 
L 298.296503 99.405725 
L 299.272028 97.585424 
L 302.198601 91.173697 
L 303.174126 88.391702 
L 305.125175 83.704749 
L 306.100699 81.563803 
L 307.076224 80.001431 
L 308.051748 79.119596 
L 309.027273 79.040046 
L 310.002797 79.514466 
L 310.978322 81.342579 
L 311.953846 83.970663 
L 312.929371 88.383506 
L 313.904895 94.237085 
L 314.88042 101.608385 
L 315.855944 110.466643 
L 316.831469 120.852561 
L 317.806993 132.705232 
L 319.758042 160.334846 
L 321.709091 193.066672 
L 325.611189 266.709763 
L 328.537762 320.156726 
L 330.488811 351.921061 
L 332.43986 378.75463 
L 333.415385 390.387492 
L 335.366434 409.650242 
L 336.341958 417.258648 
L 337.317483 423.803313 
L 338.293007 429.231014 
L 339.268531 433.717738 
L 340.244056 437.323229 
L 341.21958 440.263126 
L 342.195105 442.499193 
L 343.170629 444.291259 
L 344.146154 445.581544 
L 345.121678 446.561464 
L 346.097203 447.238355 
L 347.072727 447.724267 
L 349.023776 448.256769 
L 350.974825 448.470318 
L 354.876923 448.557571 
L 417.31049 448.56 
L 435.845455 448.56 
L 435.845455 448.56 
" clip-path="url(#p7c4914d111)" style="fill: none; stroke: #2f974e; stroke-width: 2; stroke-linecap: square"/>
   </g>
   <g id="patch_3">
    <path d="M 63 448.56 
L 63 60.48 
" style="fill: none; stroke: #000000; stroke-width: 0.8; stroke-linejoin: miter; stroke-linecap: square"/>
   </g>
   <g id="patch_4">
    <path d="M 63 448.56 
L 453.6 448.56 
" style="fill: none; stroke: #000000; stroke-width: 0.8; stroke-linejoin: miter; stroke-linecap: square"/>
   </g>
   <g id="legend_1">
    <g id="patch_5">
     <path d="M 350.28 131.090313 
L 443.8 131.090313 
Q 446.6 131.090313 446.6 128.290313 
L 446.6 70.28 
Q 446.6 67.48 443.8 67.48 
L 350.28 67.48 
Q 347.48 67.48 347.48 70.28 
L 347.48 128.290313 
Q 347.48 131.090313 350.28 131.090313 
z
" style="fill: #ffffff; opacity: 0.8; stroke: #cccccc; stroke-linejoin: miter"/>
    </g>
    <g id="line2d_26">
     <path d="M 353.08 78.200938 
L 367.08 78.200938 
L 381.08 78.200938 
" style="fill: none; stroke: #2e7ebc; stroke-width: 2; stroke-linecap: square"/>
    </g>
    <g id="text_19">
     <!-- $\sigma = 1$ -->
     <g transform="translate(392.28 83.100938)">
      <text>
       <tspan x="0" y="-0.796875" style="font-style: oblique; font-size: 14px; font-family: 'DejaVu Sans'">σ</tspan>
       <tspan x="11.600586" y="-0.796875" style="font-size: 14px; font-family: 'DejaVu Sans'">=</tspan>
       <tspan x="26.058594" y="-0.796875" style="font-size: 14px; font-family: 'DejaVu Sans'">1</tspan>
      </text>
     </g>
    </g>
    <g id="line2d_27">
     <path d="M 353.08 98.004375 
L 367.08 98.004375 
L 381.08 98.004375 
" style="fill: none; stroke: #e25508; stroke-width: 2; stroke-linecap: square"/>
    </g>
    <g id="text_20">
     <!-- $\sigma = 2/3$ -->
     <g transform="translate(392.28 102.904375)">
      <text>
       <tspan x="0" y="-0.609375" style="font-style: oblique; font-size: 14px; font-family: 'DejaVu Sans'">σ</tspan>
       <tspan x="11.600586" y="-0.609375" style="font-size: 14px; font-family: 'DejaVu Sans'">=</tspan>
       <tspan x="26.058594" y="-0.609375" style="font-size: 14px; font-family: 'DejaVu Sans'">2</tspan>
       <tspan x="34.96582" y="-0.609375" style="font-size: 14px; font-family: 'DejaVu Sans'">/</tspan>
       <tspan x="39.682617" y="-0.609375" style="font-size: 14px; font-family: 'DejaVu Sans'">3</tspan>
      </text>
     </g>
    </g>
    <g id="line2d_28">
     <path d="M 353.08 117.807813 
L 367.08 117.807813 
L 381.08 117.807813 
" style="fill: none; stroke: #2f974e; stroke-width: 2; stroke-linecap: square"/>
    </g>
    <g id="text_21">
     <!-- $\sigma = 3/2$ -->
     <g transform="translate(392.28 122.707813)">
      <text>
       <tspan x="0" y="-0.609375" style="font-style: oblique; font-size: 14px; font-family: 'DejaVu Sans'">σ</tspan>
       <tspan x="11.600586" y="-0.609375" style="font-size: 14px; font-family: 'DejaVu Sans'">=</tspan>
       <tspan x="26.058594" y="-0.609375" style="font-size: 14px; font-family: 'DejaVu Sans'">3</tspan>
       <tspan x="34.96582" y="-0.609375" style="font-size: 14px; font-family: 'DejaVu Sans'">/</tspan>
       <tspan x="39.182617" y="-0.609375" style="font-size: 14px; font-family: 'DejaVu Sans'">2</tspan>
      </text>
     </g>
    </g>
   </g>
  </g>
 </g>
 <defs>
  <clipPath id="p7c4914d111">
   <rect x="63" y="60.48" width="390.6" height="388.08"/>
  </clipPath>
 </defs>
</svg>
