<?xml version="1.0" encoding="utf-8" standalone="no"?>
<!DOCTYPE svg PUBLIC "-//W3C//DTD SVG 1.1//EN"
  "http://www.w3.org/Graphics/SVG/1.1/DTD/svg11.dtd">
<svg xmlns:xlink="http://www.w3.org/1999/xlink" width="504pt" height="504pt" viewBox="0 0 504 504" xmlns="http://www.w3.org/2000/svg" version="1.1">
 <metadata>
  <rdf:RDF xmlns:dc="http://purl.org/dc/elements/1.1/" xmlns:cc="http://creativecommons.org/ns#" xmlns:rdf="http://www.w3.org/1999/02/22-rdf-syntax-ns#">
   <cc:Work>
    <dc:type rdf:resource="http://purl.org/dc/dcmitype/StillImage"/>
    <dc:date>2026-07-21T19:44:11.708675</dc:date>
    <dc:format>image/svg+xml</dc:format>
    <dc:creator>
     <cc:Agent>
      <dc:title>Matplotlib v3.11.0, https://matplotlib.org/</dc:title>
     </cc:Agent>
    </dc:creator>
   </cc:Work>
  </rdf:RDF>
 </metadata>
 <defs>
  <style type="text/css">*{stroke-linejoin: round; stroke-linecap: butt}</style>
 </defs>
 <g id="figure_1">
  <g id="patch_1">
   <path d="M 0 504 
L 504 504 
L 504 0 
L 0 0 
L 0 504 
z
" style="fill: none"/>
  </g>
  <g id="axes_1">
   <g id="patch_2">
    <path d="M 63 448.56 
L 453.6 448.56 
L 453.6 60.48 
L 63 60.48 
L 63 448.56 
z
" style="fill: none"/>
   </g>
   <g id="matplotlib.axis_1">
    <g id="xtick_1">
     <g id="line2d_1">
      <defs>
       <path id="m6446b48f23" d="M 0 0 
L 0 3.5 
" style="stroke: #000000; stroke-width: 0.8"/>
      </defs>
      <g>
       <use xlink:href="#m6446b48f23" x="80.754545" y="448.56" style="stroke: #000000; stroke-width: 0.8"/>
      </g>
     </g>
     <g id="text_1">
      <text style="font-size: 16px; font-family: 'Arial', sans-serif; text-anchor: middle" x="80.754545" y="467.71625" transform="rotate(-0 80.754545 467.71625)">1 Jan</text>
     </g>
    </g>
    <g id="xtick_2">
     <g id="line2d_2">
      <g>
       <use xlink:href="#m6446b48f23" x="110.995804" y="448.56" style="stroke: #000000; stroke-width: 0.8"/>
      </g>
     </g>
    </g>
    <g id="xtick_3">
     <g id="line2d_3">
      <g>
       <use xlink:href="#m6446b48f23" x="138.31049" y="448.56" style="stroke: #000000; stroke-width: 0.8"/>
      </g>
     </g>
     <g id="text_2">
      <text style="font-size: 16px; font-family: 'Arial', sans-serif; text-anchor: middle" x="138.31049" y="467.71625" transform="rotate(-0 138.31049 467.71625)">1 Mar</text>
     </g>
    </g>
    <g id="xtick_4">
     <g id="line2d_4">
      <g>
       <use xlink:href="#m6446b48f23" x="168.551748" y="448.56" style="stroke: #000000; stroke-width: 0.8"/>
      </g>
     </g>
    </g>
    <g id="xtick_5">
     <g id="line2d_5">
      <g>
       <use xlink:href="#m6446b48f23" x="197.817483" y="448.56" style="stroke: #000000; stroke-width: 0.8"/>
      </g>
     </g>
     <g id="text_3">
      <text style="font-size: 16px; font-family: 'Arial', sans-serif; text-anchor: middle" x="197.817483" y="467.71625" transform="rotate(-0 197.817483 467.71625)">1 May</text>
     </g>
    </g>
    <g id="xtick_6">
     <g id="line2d_6">
      <g>
       <use xlink:href="#m6446b48f23" x="228.058741" y="448.56" style="stroke: #000000; stroke-width: 0.8"/>
      </g>
     </g>
    </g>
    <g id="xtick_7">
     <g id="line2d_7">
      <g>
       <use xlink:href="#m6446b48f23" x="257.324476" y="448.56" style="stroke: #000000; stroke-width: 0.8"/>
      </g>
     </g>
     <g id="text_4">
      <text style="font-size: 16px; font-family: 'Arial', sans-serif; text-anchor: middle" x="257.324476" y="467.7175" transform="rotate(-0 257.324476 467.7175)">1 Jul</text>
     </g>
    </g>
    <g id="xtick_8">
     <g id="line2d_8">
      <g>
       <use xlink:href="#m6446b48f23" x="287.565734" y="448.56" style="stroke: #000000; stroke-width: 0.8"/>
      </g>
     </g>
    </g>
    <g id="xtick_9">
     <g id="line2d_9">
      <g>
       <use xlink:href="#m6446b48f23" x="317.806993" y="448.56" style="stroke: #000000; stroke-width: 0.8"/>
      </g>
     </g>
     <g id="text_5">
      <text style="font-size: 16px; font-family: 'Arial', sans-serif; text-anchor: middle" x="317.806993" y="467.71625" transform="rotate(-0 317.806993 467.71625)">1 Sep</text>
     </g>
    </g>
    <g id="xtick_10">
     <g id="line2d_10">
      <g>
       <use xlink:href="#m6446b48f23" x="347.072727" y="448.56" style="stroke: #000000; stroke-width: 0.8"/>
      </g>
     </g>
    </g>
    <g id="xtick_11">
     <g id="line2d_11">
      <g>
       <use xlink:href="#m6446b48f23" x="377.313986" y="448.56" style="stroke: #000000; stroke-width: 0.8"/>
      </g>
     </g>
     <g id="text_6">
      <text style="font-size: 16px; font-family: 'Arial', sans-serif; text-anchor: middle" x="377.313986" y="467.71625" transform="rotate(-0 377.313986 467.71625)">1 Nov</text>
     </g>
    </g>
    <g id="xtick_12">
     <g id="line2d_12">
      <g>
       <use xlink:href="#m6446b48f23" x="406.57972" y="448.56" style="stroke: #000000; stroke-width: 0.8"/>
      </g>
     </g>
    </g>
    <g id="xtick_13">
     <g id="line2d_13">
      <g>
       <use xlink:href="#m6446b48f23" x="436.820979" y="448.56" style="stroke: #000000; stroke-width: 0.8"/>
      </g>
     </g>
     <g id="text_7">
      <text style="font-size: 16px; font-family: 'Arial', sans-serif; text-anchor: middle" x="436.820979" y="467.71625" transform="rotate(-0 436.820979 467.71625)">1 Jan</text>
     </g>
    </g>
    <g id="text_8">
     <text style="font-size: 16px; font-family: 'Arial', sans-serif; text-anchor: middle" x="258.3" y="487.7175" transform="rotate(-0 258.3 487.7175)">Date</text>
    </g>
   </g>
   <g id="matplotlib.axis_2">
    <g id="ytick_1">
     <g id="line2d_14">
      <defs>
       <path id="m8843cc27ac" d="M 0 0 
L -3.5 0 
" style="stroke: #000000; stroke-width: 0.8"/>
      </defs>
      <g>
       <use xlink:href="#m8843cc27ac" x="63" y="448.56" style="stroke: #000000; stroke-width: 0.8"/>
      </g>
     </g>
     <g id="text_9">
      <text style="font-size: 16px; font-family: 'Arial', sans-serif; text-anchor: end" x="56" y="454.638125" transform="rotate(-0 56 454.638125)">0.00</text>
     </g>
    </g>
    <g id="ytick_2">
     <g id="line2d_15">
      <g>
       <use xlink:href="#m8843cc27ac" x="63" y="402.357285" style="stroke: #000000; stroke-width: 0.8"/>
      </g>
     </g>
     <g id="text_10">
      <text style="font-size: 16px; font-family: 'Arial', sans-serif; text-anchor: end" x="56" y="408.43541" transform="rotate(-0 56 408.43541)">0.25</text>
     </g>
    </g>
    <g id="ytick_3">
     <g id="line2d_16">
      <g>
       <use xlink:href="#m8843cc27ac" x="63" y="356.15457" style="stroke: #000000; stroke-width: 0.8"/>
      </g>
     </g>
     <g id="text_11">
      <text style="font-size: 16px; font-family: 'Arial', sans-serif; text-anchor: end" x="56" y="362.232695" transform="rotate(-0 56 362.232695)">0.50</text>
     </g>
    </g>
    <g id="ytick_4">
     <g id="line2d_17">
      <g>
       <use xlink:href="#m8843cc27ac" x="63" y="309.951855" style="stroke: #000000; stroke-width: 0.8"/>
      </g>
     </g>
     <g id="text_12">
      <text style="font-size: 16px; font-family: 'Arial', sans-serif; text-anchor: end" x="56" y="316.02998" transform="rotate(-0 56 316.02998)">0.75</text>
     </g>
    </g>
    <g id="ytick_5">
     <g id="line2d_18">
      <g>
       <use xlink:href="#m8843cc27ac" x="63" y="263.74914" style="stroke: #000000; stroke-width: 0.8"/>
      </g>
     </g>
     <g id="text_13">
      <text style="font-size: 16px; font-family: 'Arial', sans-serif; text-anchor: end" x="56" y="269.827265" transform="rotate(-0 56 269.827265)">1.00</text>
     </g>
    </g>
    <g id="ytick_6">
     <g id="line2d_19">
      <g>
       <use xlink:href="#m8843cc27ac" x="63" y="217.546425" style="stroke: #000000; stroke-width: 0.8"/>
      </g>
     </g>
     <g id="text_14">
      <text style="font-size: 16px; font-family: 'Arial', sans-serif; text-anchor: end" x="56" y="223.62455" transform="rotate(-0 56 223.62455)">1.25</text>
     </g>
    </g>
    <g id="ytick_7">
     <g id="line2d_20">
      <g>
       <use xlink:href="#m8843cc27ac" x="63" y="171.34371" style="stroke: #000000; stroke-width: 0.8"/>
      </g>
     </g>
     <g id="text_15">
      <text style="font-size: 16px; font-family: 'Arial', sans-serif; text-anchor: end" x="56" y="177.421835" transform="rotate(-0 56 177.421835)">1.50</text>
     </g>
    </g>
    <g id="ytick_8">
     <g id="line2d_21">
      <g>
       <use xlink:href="#m8843cc27ac" x="63" y="125.140995" style="stroke: #000000; stroke-width: 0.8"/>
      </g>
     </g>
     <g id="text_16">
      <text style="font-size: 16px; font-family: 'Arial', sans-serif; text-anchor: end" x="56" y="131.21912" transform="rotate(-0 56 131.21912)">1.75</text>
     </g>
    </g>
    <g id="ytick_9">
     <g id="line2d_22">
      <g>
       <use xlink:href="#m8843cc27ac" x="63" y="78.93828" style="stroke: #000000; stroke-width: 0.8"/>
      </g>
     </g>
     <g id="text_17">
      <text style="font-size: 16px; font-family: 'Arial', sans-serif; text-anchor: end" x="56" y="85.016405" transform="rotate(-0 56 85.016405)">2.00</text>
     </g>
    </g>
    <g id="text_18">
     <text style="font-size: 16px; font-family: 'Arial', sans-serif; text-anchor: middle" x="12.53125" y="254.52" transform="rotate(-90 12.53125 254.52)">Time-dependent reproduction number</text>
    </g>
   </g>
   <g id="line2d_23">
    <path d="M 80.754545 448.56 
L 162.698601 448.469644 
L 167.576224 448.267002 
L 171.478322 447.895033 
L 174.404895 447.409577 
L 177.331469 446.651679 
L 179.282517 445.920956 
L 181.233566 445.001487 
L 183.184615 443.820203 
L 185.135664 442.319178 
L 187.086713 440.512369 
L 189.037762 438.247473 
L 190.988811 435.52505 
L 192.93986 432.304127 
L 194.890909 428.455359 
L 196.841958 423.942283 
L 198.793007 418.672821 
L 200.744056 412.63459 
L 202.695105 405.702235 
L 204.646154 397.837038 
L 206.597203 389.120473 
L 208.548252 379.387401 
L 210.499301 368.804981 
L 213.425874 351.270828 
L 216.352448 331.597953 
L 220.254545 302.740099 
L 224.156643 271.980893 
L 233.911888 192.779325 
L 236.838462 171.029009 
L 239.765035 151.183213 
L 242.691608 133.451934 
L 244.642657 122.815435 
L 246.593706 113.467354 
L 248.544755 105.088139 
L 250.495804 98.026712 
L 252.446853 91.98896 
L 254.397902 87.215056 
L 255.373427 85.207117 
L 256.348951 83.642211 
L 257.324476 82.344493 
L 258.3 81.286469 
L 260.251049 79.734968 
L 261.226573 79.198733 
L 263.177622 78.988515 
L 264.153147 79.045544 
L 265.128671 79.245146 
L 267.07972 80.086562 
L 268.055245 80.656038 
L 270.981818 83.448716 
L 274.883916 87.586013 
L 278.786014 92.50005 
L 280.737063 94.456502 
L 282.688112 96.292936 
L 284.639161 98.174706 
L 286.59021 99.720142 
L 288.541259 100.995099 
L 290.492308 101.96004 
L 292.443357 102.541552 
L 294.394406 102.771193 
L 296.345455 102.568994 
L 297.320979 102.349816 
L 299.272028 101.576342 
L 301.223077 100.466204 
L 303.174126 99.059549 
L 305.125175 97.318871 
L 310.002797 92.498171 
L 311.953846 90.039019 
L 313.904895 87.500838 
L 318.782517 82.258673 
L 320.733566 80.504724 
L 322.684615 79.466947 
L 323.66014 79.119596 
L 325.611189 79.027747 
L 326.586713 79.142831 
L 327.562238 79.43188 
L 328.537762 80.118981 
L 330.488811 81.837846 
L 331.464336 83.167063 
L 332.43986 84.789771 
L 333.415385 86.701022 
L 334.390909 89.056499 
L 336.341958 94.703609 
L 338.293007 101.608385 
L 340.244056 109.851424 
L 342.195105 119.384897 
L 344.146154 130.250179 
L 347.072727 148.809171 
L 349.023776 162.445122 
L 351.95035 185.087814 
L 354.876923 209.841077 
L 358.779021 243.990435 
L 363.656643 287.463524 
L 367.558741 320.156726 
L 370.485315 342.874132 
L 372.436364 356.866027 
L 375.362937 375.505472 
L 377.313986 386.601785 
L 379.265035 396.678153 
L 381.216084 405.548179 
L 383.167133 413.327458 
L 385.118182 420.032831 
L 387.069231 425.694192 
L 389.02028 430.547769 
L 390.971329 434.470741 
L 392.922378 437.761421 
L 394.873427 440.41962 
L 396.824476 442.499193 
L 398.775524 444.179165 
L 400.726573 445.433956 
L 402.677622 446.378179 
L 404.628671 447.085859 
L 406.57972 447.576621 
L 409.506294 448.056625 
L 413.408392 448.379535 
L 418.286014 448.524228 
L 430.967832 448.56 
L 435.845455 448.56 
L 435.845455 448.56 
" clip-path="url(#p4f136fe717)" style="fill: none; stroke: #e25508; stroke-width: 2; stroke-linecap: square"/>
   </g>
   <g id="line2d_24">
    <path d="M 80.754545 448.56 
L 202.695105 448.452778 
L 205.621678 448.267002 
L 208.548252 447.861211 
L 210.499301 447.382872 
L 212.45035 446.651679 
L 214.401399 445.565594 
L 216.352448 444.01941 
L 217.327972 443.023374 
L 219.279021 440.512369 
L 220.254545 438.962246 
L 221.23007 437.175313 
L 223.181119 432.825281 
L 224.156643 430.219513 
L 225.132168 427.279255 
L 227.083217 420.297313 
L 229.034266 411.734216 
L 230.985315 401.371698 
L 232.936364 389.120473 
L 234.887413 375.016004 
L 236.838462 359.090095 
L 238.78951 341.205144 
L 240.740559 321.573496 
L 243.667133 289.76373 
L 246.593706 255.928303 
L 250.495804 210.512329 
L 253.422378 177.980021 
L 255.373427 158.350338 
L 257.324476 140.875635 
L 259.275524 124.914097 
L 261.226573 111.559695 
L 263.177622 100.337889 
L 265.128671 91.574896 
L 266.104196 88.075601 
L 267.07972 85.207117 
L 268.055245 82.971537 
L 269.030769 81.403928 
L 270.006294 80.229341 
L 270.981818 79.240594 
L 271.957343 79.031287 
L 272.932867 78.96 
L 273.908392 79.245146 
L 274.883916 79.790831 
L 275.859441 80.530159 
L 277.81049 83.15832 
L 280.737063 87.586013 
L 283.663636 92.824615 
L 287.565734 98.174706 
L 288.541259 99.328248 
L 290.492308 101.166878 
L 291.467832 101.860242 
L 292.443357 102.359233 
L 293.418881 102.663099 
L 294.394406 102.771193 
L 295.36993 102.682977 
L 296.345455 102.398019 
L 297.320979 101.915994 
L 298.296503 101.236689 
L 300.247552 99.405725 
L 301.223077 98.251806 
L 305.125175 92.82929 
L 306.100699 91.173697 
L 308.051748 87.500838 
L 311.953846 81.563803 
L 312.929371 80.387049 
L 313.904895 79.615812 
L 314.88042 79.119596 
L 315.855944 78.978553 
L 316.831469 79.101539 
L 317.806993 79.514466 
L 319.758042 81.961663 
L 320.733566 83.970663 
L 321.709091 86.701022 
L 322.684615 90.06599 
L 323.66014 94.237085 
L 324.635664 98.902321 
L 325.611189 104.314449 
L 327.562238 117.1834 
L 328.537762 124.521722 
L 330.488811 141.50907 
L 332.43986 160.334846 
L 335.366434 193.066672 
L 340.244056 254.142582 
L 343.170629 291.070562 
L 346.097203 325.76481 
L 348.048252 346.976094 
L 349.999301 366.007908 
L 351.95035 382.816078 
L 353.901399 397.377116 
L 355.852448 409.650242 
L 357.803497 419.613888 
L 359.754545 427.58507 
L 360.73007 430.876958 
L 362.681119 436.227749 
L 363.656643 438.418709 
L 364.632168 440.263126 
L 365.607692 441.828064 
L 366.583217 443.170321 
L 367.558741 444.291259 
L 368.534266 445.212574 
L 370.485315 446.561464 
L 372.436364 447.428974 
L 374.387413 447.952547 
L 376.338462 448.256769 
L 379.265035 448.470318 
L 384.142657 448.554668 
L 423.163636 448.56 
L 435.845455 448.56 
L 435.845455 448.56 
" clip-path="url(#p4f136fe717)" style="fill: none; stroke: #2e7ebc; stroke-width: 2; stroke-linecap: square"/>
   </g>
   <g id="line2d_25">
    <path d="M 80.754545 448.56 
L 223.181119 448.483137 
L 226.107692 448.267002 
L 228.058741 447.928855 
L 230.00979 447.317554 
L 230.985315 446.853981 
L 231.960839 446.256626 
L 232.936364 445.495081 
L 233.911888 444.52404 
L 234.887413 443.322185 
L 235.862937 441.849713 
L 236.838462 440.047332 
L 237.813986 437.890086 
L 238.78951 435.318767 
L 239.765035 432.304127 
L 240.740559 428.749384 
L 241.716084 424.609677 
L 242.691608 419.89119 
L 243.667133 414.435336 
L 244.642657 408.269673 
L 245.618182 401.371698 
L 247.569231 385.029189 
L 249.52028 365.6198 
L 251.471329 343.044519 
L 253.422378 317.449986 
L 256.348951 275.370496 
L 262.202098 187.371439 
L 264.153147 161.260238 
L 266.104196 138.401068 
L 268.055245 118.618111 
L 270.006294 102.976917 
L 270.981818 96.640005 
L 271.957343 91.224967 
L 272.932867 86.928207 
L 273.908392 83.642211 
L 274.883916 81.403928 
L 275.859441 79.932717 
L 276.834965 79.11501 
L 277.81049 78.967129 
L 278.786014 79.354283 
L 279.761538 80.160495 
L 280.737063 81.537192 
L 282.688112 85.204552 
L 283.663636 87.138988 
L 286.59021 93.653264 
L 289.516783 98.751477 
L 290.492308 100.112037 
L 291.467832 101.236214 
L 292.443357 102.059838 
L 293.418881 102.571939 
L 294.394406 102.771193 
L 295.36993 102.59749 
L 296.345455 102.108804 
L 297.320979 101.30462 
L 298.296503 100.185621 
L 299.272028 98.828766 
L 301.223077 95.375727 
L 302.198601 93.671378 
L 303.174126 91.670375 
L 305.125175 87.040901 
L 308.051748 81.328452 
L 309.027273 80.001431 
L 310.002797 79.218839 
L 310.978322 78.990852 
L 311.953846 79.266709 
L 312.929371 80.360787 
L 313.904895 81.961663 
L 314.88042 84.789771 
L 315.855944 88.720003 
L 316.831469 93.819976 
L 317.806993 99.984747 
L 318.782517 107.390546 
L 319.758042 115.840049 
L 320.733566 125.340073 
L 322.684615 147.896658 
L 324.635664 174.120848 
L 326.586713 203.84927 
L 330.488811 267.943497 
L 333.415385 314.548642 
L 335.366434 342.874132 
L 337.317483 367.744963 
L 339.268531 388.873209 
L 341.21958 406.134188 
L 342.195105 413.327458 
L 343.170629 419.613888 
L 344.146154 424.93784 
L 345.121678 429.560203 
L 346.097203 433.43366 
L 347.072727 436.665941 
L 348.048252 439.340918 
L 349.023776 441.515077 
L 349.999301 443.282415 
L 350.974825 444.659785 
L 351.95035 445.729131 
L 352.925874 446.561464 
L 353.901399 447.162107 
L 355.852448 447.929719 
L 357.803497 448.304212 
L 360.73007 448.512959 
L 366.583217 448.559936 
L 435.845455 448.56 
L 435.845455 448.56 
" clip-path="url(#p4f136fe717)" style="fill: none; stroke: #2f974e; stroke-width: 2; stroke-linecap: square"/>
   </g>
   <g id="patch_3">
    <path d="M 63 448.56 
L 63 60.48 
" style="fill: none; stroke: #000000; stroke-width: 0.8; stroke-linejoin: miter; stroke-linecap: square"/>
   </g>
   <g id="patch_4">
    <path d="M 63 448.56 
L 453.6 448.56 
" style="fill: none; stroke: #000000; stroke-width: 0.8; stroke-linejoin: miter; stroke-linecap: square"/>
   </g>
   <g id="legend_1">
    <g id="patch_5">
     <path d="M 351.26 134.683281 
L 443.8 134.683281 
Q 446.6 134.683281 446.6 131.883281 
L 446.6 70.28 
Q 446.6 67.48 443.8 67.48 
L 351.26 67.48 
Q 348.46 67.48 348.46 70.28 
L 348.46 131.883281 
Q 348.46 134.683281 351.26 134.683281 
z
" style="fill: #ffffff; opacity: 0.8; stroke: #cccccc; stroke-linejoin: miter"/>
    </g>
    <g id="line2d_26">
     <path d="M 354.06 78.817812 
L 368.06 78.817812 
L 382.06 78.817812 
" style="fill: none; stroke: #e25508; stroke-width: 2; stroke-linecap: square"/>
    </g>
    <g id="text_19">
     <!-- $\gamma = 0.7$ -->
     <g transform="translate(393.26 83.717812)">
      <text>
       <tspan x="0" y="-0.609375" style="font-style: oblique; font-size: 14px; font-family: 'DejaVu Sans'">γ</tspan>
       <tspan x="11.012695" y="-0.609375" style="font-size: 14px; font-family: 'DejaVu Sans'">=</tspan>
       <tspan x="25.470703" y="-0.609375" style="font-size: 14px; font-family: 'DejaVu Sans'">0</tspan>
       <tspan x="34.37793" y="-0.609375" style="font-size: 14px; font-family: 'DejaVu Sans'">.</tspan>
       <tspan x="38.828125" y="-0.609375" style="font-size: 14px; font-family: 'DejaVu Sans'">7</tspan>
      </text>
     </g>
    </g>
    <g id="line2d_27">
     <path d="M 354.06 99.818906 
L 368.06 99.818906 
L 382.06 99.818906 
" style="fill: none; stroke: #2e7ebc; stroke-width: 2; stroke-linecap: square"/>
    </g>
    <g id="text_20">
     <!-- $\gamma = 1$ -->
     <g transform="translate(393.26 104.718906)">
      <text>
       <tspan x="0" y="-0.796875" style="font-style: oblique; font-size: 14px; font-family: 'DejaVu Sans'">γ</tspan>
       <tspan x="11.012695" y="-0.796875" style="font-size: 14px; font-family: 'DejaVu Sans'">=</tspan>
       <tspan x="25.470703" y="-0.796875" style="font-size: 14px; font-family: 'DejaVu Sans'">1</tspan>
      </text>
     </g>
    </g>
    <g id="line2d_28">
     <path d="M 354.06 120.82 
L 368.06 120.82 
L 382.06 120.82 
" style="fill: none; stroke: #2f974e; stroke-width: 2; stroke-linecap: square"/>
    </g>
    <g id="text_21">
     <!-- $\gamma = 1.3$ -->
     <g transform="translate(393.26 125.72)">
      <text>
       <tspan x="0" y="-0.609375" style="font-style: oblique; font-size: 14px; font-family: 'DejaVu Sans'">γ</tspan>
       <tspan x="11.012695" y="-0.609375" style="font-size: 14px; font-family: 'DejaVu Sans'">=</tspan>
       <tspan x="25.470703" y="-0.609375" style="font-size: 14px; font-family: 'DejaVu Sans'">1</tspan>
       <tspan x="34.37793" y="-0.609375" style="font-size: 14px; font-family: 'DejaVu Sans'">.</tspan>
       <tspan x="38.828125" y="-0.609375" style="font-size: 14px; font-family: 'DejaVu Sans'">3</tspan>
      </text>
     </g>
    </g>
   </g>
  </g>
 </g>
 <defs>
  <clipPath id="p4f136fe717">
   <rect x="63" y="60.48" width="390.6" height="388.08"/>
  </clipPath>
 </defs>
</svg>
