<?xml version="1.0" encoding="utf-8" standalone="no"?>
<!DOCTYPE svg PUBLIC "-//W3C//DTD SVG 1.1//EN"
  "http://www.w3.org/Graphics/SVG/1.1/DTD/svg11.dtd">
<svg xmlns:xlink="http://www.w3.org/1999/xlink" width="504pt" height="504pt" viewBox="0 0 504 504" xmlns="http://www.w3.org/2000/svg" version="1.1">
 <metadata>
  <rdf:RDF xmlns:dc="http://purl.org/dc/elements/1.1/" xmlns:cc="http://creativecommons.org/ns#" xmlns:rdf="http://www.w3.org/1999/02/22-rdf-syntax-ns#">
   <cc:Work>
    <dc:type rdf:resource="http://purl.org/dc/dcmitype/StillImage"/>
    <dc:date>2026-06-17T19:02:33.666497</dc:date>
    <dc:format>image/svg+xml</dc:format>
    <dc:creator>
     <cc:Agent>
      <dc:title>Matplotlib v3.10.9, https://matplotlib.org/</dc:title>
     </cc:Agent>
    </dc:creator>
   </cc:Work>
  </rdf:RDF>
 </metadata>
 <defs>
  <style type="text/css">*{stroke-linejoin: round; stroke-linecap: butt}</style>
 </defs>
 <g id="figure_1">
  <g id="patch_1">
   <path d="M 0 504 
L 504 504 
L 504 0 
L 0 0 
L 0 504 
z
" style="fill: none"/>
  </g>
  <g id="axes_1">
   <g id="patch_2">
    <path d="M 63 448.56 
L 453.6 448.56 
L 453.6 60.48 
L 63 60.48 
L 63 448.56 
z
" style="fill: none"/>
   </g>
   <g id="matplotlib.axis_1">
    <g id="xtick_1">
     <g id="line2d_1">
      <defs>
       <path id="m0fec36bb25" d="M 0 0 
L 0 3.5 
" style="stroke: #000000; stroke-width: 0.8"/>
      </defs>
      <g>
       <use xlink:href="#m0fec36bb25" x="63" y="448.56" style="stroke: #000000; stroke-width: 0.8"/>
      </g>
     </g>
     <g id="text_1">
      <text style="font-size: 16px; font-family: 'Arial', sans-serif; text-anchor: middle" x="63" y="467.06" transform="rotate(-0 63 467.06)">1 Apr</text>
     </g>
    </g>
    <g id="xtick_2">
     <g id="line2d_2">
      <g>
       <use xlink:href="#m0fec36bb25" x="105.610909" y="448.56" style="stroke: #000000; stroke-width: 0.8"/>
      </g>
     </g>
    </g>
    <g id="xtick_3">
     <g id="line2d_3">
      <g>
       <use xlink:href="#m0fec36bb25" x="149.642182" y="448.56" style="stroke: #000000; stroke-width: 0.8"/>
      </g>
     </g>
     <g id="text_2">
      <text style="font-size: 16px; font-family: 'Arial', sans-serif; text-anchor: middle" x="149.642182" y="467.0125" transform="rotate(-0 149.642182 467.0125)">1 Jun</text>
     </g>
    </g>
    <g id="xtick_4">
     <g id="line2d_4">
      <g>
       <use xlink:href="#m0fec36bb25" x="192.253091" y="448.56" style="stroke: #000000; stroke-width: 0.8"/>
      </g>
     </g>
    </g>
    <g id="xtick_5">
     <g id="line2d_5">
      <g>
       <use xlink:href="#m0fec36bb25" x="236.284364" y="448.56" style="stroke: #000000; stroke-width: 0.8"/>
      </g>
     </g>
     <g id="text_3">
      <text style="font-size: 16px; font-family: 'Arial', sans-serif; text-anchor: middle" x="236.284364" y="467.06" transform="rotate(-0 236.284364 467.06)">1 Aug</text>
     </g>
    </g>
    <g id="xtick_6">
     <g id="line2d_6">
      <g>
       <use xlink:href="#m0fec36bb25" x="280.315636" y="448.56" style="stroke: #000000; stroke-width: 0.8"/>
      </g>
     </g>
    </g>
    <g id="xtick_7">
     <g id="line2d_7">
      <g>
       <use xlink:href="#m0fec36bb25" x="322.926545" y="448.56" style="stroke: #000000; stroke-width: 0.8"/>
      </g>
     </g>
     <g id="text_4">
      <text style="font-size: 16px; font-family: 'Arial', sans-serif; text-anchor: middle" x="322.926545" y="467.0125" transform="rotate(-0 322.926545 467.0125)">1 Oct</text>
     </g>
    </g>
    <g id="xtick_8">
     <g id="line2d_8">
      <g>
       <use xlink:href="#m0fec36bb25" x="366.957818" y="448.56" style="stroke: #000000; stroke-width: 0.8"/>
      </g>
     </g>
    </g>
    <g id="xtick_9">
     <g id="line2d_9">
      <g>
       <use xlink:href="#m0fec36bb25" x="409.568727" y="448.56" style="stroke: #000000; stroke-width: 0.8"/>
      </g>
     </g>
     <g id="text_5">
      <text style="font-size: 16px; font-family: 'Arial', sans-serif; text-anchor: middle" x="409.568727" y="467.0125" transform="rotate(-0 409.568727 467.0125)">1 Dec</text>
     </g>
    </g>
    <g id="xtick_10">
     <g id="line2d_10">
      <g>
       <use xlink:href="#m0fec36bb25" x="453.6" y="448.56" style="stroke: #000000; stroke-width: 0.8"/>
      </g>
     </g>
    </g>
    <g id="text_6">
     <text style="font-size: 16px; font-family: 'Arial', sans-serif; text-anchor: middle" x="258.3" y="485.88" transform="rotate(-0 258.3 485.88)">Week of final case</text>
    </g>
   </g>
   <g id="matplotlib.axis_2">
    <g id="ytick_1">
     <g id="line2d_11">
      <defs>
       <path id="m7c0e014712" d="M 0 0 
L -3.5 0 
" style="stroke: #000000; stroke-width: 0.8"/>
      </defs>
      <g>
       <use xlink:href="#m7c0e014712" x="63" y="448.56" style="stroke: #000000; stroke-width: 0.8"/>
      </g>
     </g>
     <g id="text_7">
      <text style="font-size: 16px; font-family: 'Arial', sans-serif; text-anchor: end" x="56" y="454.28625" transform="rotate(-0 56 454.28625)">0</text>
     </g>
    </g>
    <g id="ytick_2">
     <g id="line2d_12">
      <g>
       <use xlink:href="#m7c0e014712" x="63" y="376.693333" style="stroke: #000000; stroke-width: 0.8"/>
      </g>
     </g>
     <g id="text_8">
      <text style="font-size: 16px; font-family: 'Arial', sans-serif; text-anchor: end" x="56" y="382.419583" transform="rotate(-0 56 382.419583)">5</text>
     </g>
    </g>
    <g id="ytick_3">
     <g id="line2d_13">
      <g>
       <use xlink:href="#m7c0e014712" x="63" y="304.826667" style="stroke: #000000; stroke-width: 0.8"/>
      </g>
     </g>
     <g id="text_9">
      <text style="font-size: 16px; font-family: 'Arial', sans-serif; text-anchor: end" x="56" y="310.552917" transform="rotate(-0 56 310.552917)">10</text>
     </g>
    </g>
    <g id="ytick_4">
     <g id="line2d_14">
      <g>
       <use xlink:href="#m7c0e014712" x="63" y="232.96" style="stroke: #000000; stroke-width: 0.8"/>
      </g>
     </g>
     <g id="text_10">
      <text style="font-size: 16px; font-family: 'Arial', sans-serif; text-anchor: end" x="56" y="238.68625" transform="rotate(-0 56 238.68625)">15</text>
     </g>
    </g>
    <g id="ytick_5">
     <g id="line2d_15">
      <g>
       <use xlink:href="#m7c0e014712" x="63" y="161.093333" style="stroke: #000000; stroke-width: 0.8"/>
      </g>
     </g>
     <g id="text_11">
      <text style="font-size: 16px; font-family: 'Arial', sans-serif; text-anchor: end" x="56" y="166.819583" transform="rotate(-0 56 166.819583)">20</text>
     </g>
    </g>
    <g id="ytick_6">
     <g id="line2d_16">
      <g>
       <use xlink:href="#m7c0e014712" x="63" y="89.226667" style="stroke: #000000; stroke-width: 0.8"/>
      </g>
     </g>
     <g id="text_12">
      <text style="font-size: 16px; font-family: 'Arial', sans-serif; text-anchor: end" x="56" y="94.952917" transform="rotate(-0 56 94.952917)">25</text>
     </g>
    </g>
    <g id="text_13">
     <text style="font-size: 16px; font-family: 'Arial', sans-serif; text-anchor: middle" x="30.8375" y="254.52" transform="rotate(-90 30.8375 254.52)">Days from final case until decision</text>
    </g>
   </g>
   <g id="LineCollection_1">
    <path clip-path="url(#p529b9deede)" style="fill: none; stroke: #f7fcf5; stroke-width: 2"/>
   </g>
   <g id="line2d_17">
    <defs>
     <path id="m3b1f02a2d6" d="M 3 0 
L -3 -0 
" style="stroke: #f7fcf5"/>
    </defs>
    <g clip-path="url(#p529b9deede)"/>
   </g>
   <g id="line2d_18">
    <g clip-path="url(#p529b9deede)"/>
   </g>
   <g id="LineCollection_2">
    <path clip-path="url(#p529b9deede)" style="fill: none; stroke: #f7fcf5; stroke-width: 2"/>
   </g>
   <g id="line2d_19">
    <g clip-path="url(#p529b9deede)"/>
   </g>
   <g id="line2d_20">
    <g clip-path="url(#p529b9deede)"/>
   </g>
   <g id="LineCollection_3">
    <path clip-path="url(#p529b9deede)" style="fill: none; stroke: #f7fcf5; stroke-width: 2"/>
   </g>
   <g id="line2d_21">
    <g clip-path="url(#p529b9deede)"/>
   </g>
   <g id="line2d_22">
    <g clip-path="url(#p529b9deede)"/>
   </g>
   <g id="LineCollection_4">
    <path clip-path="url(#p529b9deede)" style="fill: none; stroke: #f7fcf5; stroke-width: 2"/>
   </g>
   <g id="line2d_23">
    <g clip-path="url(#p529b9deede)"/>
   </g>
   <g id="line2d_24">
    <g clip-path="url(#p529b9deede)"/>
   </g>
   <g id="LineCollection_5">
    <path clip-path="url(#p529b9deede)" style="fill: none; stroke: #f7fcf5; stroke-width: 2"/>
   </g>
   <g id="line2d_25">
    <g clip-path="url(#p529b9deede)"/>
   </g>
   <g id="line2d_26">
    <g clip-path="url(#p529b9deede)"/>
   </g>
   <g id="LineCollection_6">
    <path clip-path="url(#p529b9deede)" style="fill: none; stroke: #f7fcf5; stroke-width: 2"/>
   </g>
   <g id="line2d_27">
    <g clip-path="url(#p529b9deede)"/>
   </g>
   <g id="line2d_28">
    <g clip-path="url(#p529b9deede)"/>
   </g>
   <g id="LineCollection_7">
    <path clip-path="url(#p529b9deede)" style="fill: none; stroke: #f7fcf5; stroke-width: 2"/>
   </g>
   <g id="line2d_29">
    <g clip-path="url(#p529b9deede)"/>
   </g>
   <g id="line2d_30">
    <g clip-path="url(#p529b9deede)"/>
   </g>
   <g id="LineCollection_8">
    <path clip-path="url(#p529b9deede)" style="fill: none; stroke: #f7fcf5; stroke-width: 2"/>
   </g>
   <g id="line2d_31">
    <g clip-path="url(#p529b9deede)"/>
   </g>
   <g id="line2d_32">
    <g clip-path="url(#p529b9deede)"/>
   </g>
   <g id="LineCollection_9">
    <path clip-path="url(#p529b9deede)" style="fill: none; stroke: #f7fcf5; stroke-width: 2"/>
   </g>
   <g id="line2d_33">
    <g clip-path="url(#p529b9deede)"/>
   </g>
   <g id="line2d_34">
    <g clip-path="url(#p529b9deede)"/>
   </g>
   <g id="LineCollection_10">
    <path clip-path="url(#p529b9deede)" style="fill: none; stroke: #f7fcf5; stroke-width: 2"/>
   </g>
   <g id="line2d_35">
    <g clip-path="url(#p529b9deede)"/>
   </g>
   <g id="line2d_36">
    <g clip-path="url(#p529b9deede)"/>
   </g>
   <g id="LineCollection_11">
    <path clip-path="url(#p529b9deede)" style="fill: none; stroke: #f7fcf5; stroke-width: 2"/>
   </g>
   <g id="line2d_37">
    <g clip-path="url(#p529b9deede)"/>
   </g>
   <g id="line2d_38">
    <g clip-path="url(#p529b9deede)"/>
   </g>
   <g id="LineCollection_12">
    <path clip-path="url(#p529b9deede)" style="fill: none; stroke: #f7fcf5; stroke-width: 2"/>
   </g>
   <g id="line2d_39">
    <g clip-path="url(#p529b9deede)"/>
   </g>
   <g id="line2d_40">
    <g clip-path="url(#p529b9deede)"/>
   </g>
   <g id="LineCollection_13">
    <path clip-path="url(#p529b9deede)" style="fill: none; stroke: #f7fcf5; stroke-width: 2"/>
   </g>
   <g id="line2d_41">
    <g clip-path="url(#p529b9deede)"/>
   </g>
   <g id="line2d_42">
    <g clip-path="url(#p529b9deede)"/>
   </g>
   <g id="LineCollection_14">
    <path clip-path="url(#p529b9deede)" style="fill: none; stroke: #f7fcf5; stroke-width: 2"/>
   </g>
   <g id="line2d_43">
    <g clip-path="url(#p529b9deede)"/>
   </g>
   <g id="line2d_44">
    <g clip-path="url(#p529b9deede)"/>
   </g>
   <g id="LineCollection_15">
    <path clip-path="url(#p529b9deede)" style="fill: none; stroke: #f7fcf5; stroke-width: 2"/>
   </g>
   <g id="line2d_45">
    <g clip-path="url(#p529b9deede)"/>
   </g>
   <g id="line2d_46">
    <g clip-path="url(#p529b9deede)"/>
   </g>
   <g id="LineCollection_16">
    <path clip-path="url(#p529b9deede)" style="fill: none; stroke: #f7fcf5; stroke-width: 2"/>
   </g>
   <g id="line2d_47">
    <g clip-path="url(#p529b9deede)"/>
   </g>
   <g id="line2d_48">
    <g clip-path="url(#p529b9deede)"/>
   </g>
   <g id="LineCollection_17">
    <path clip-path="url(#p529b9deede)" style="fill: none; stroke: #f7fcf5; stroke-width: 2"/>
   </g>
   <g id="line2d_49">
    <g clip-path="url(#p529b9deede)"/>
   </g>
   <g id="line2d_50">
    <g clip-path="url(#p529b9deede)"/>
   </g>
   <g id="LineCollection_18">
    <path clip-path="url(#p529b9deede)" style="fill: none; stroke: #f7fcf5; stroke-width: 2"/>
   </g>
   <g id="line2d_51">
    <g clip-path="url(#p529b9deede)"/>
   </g>
   <g id="line2d_52">
    <g clip-path="url(#p529b9deede)"/>
   </g>
   <g id="LineCollection_19">
    <path clip-path="url(#p529b9deede)" style="fill: none; stroke: #f7fcf5; stroke-width: 2"/>
   </g>
   <g id="line2d_53">
    <g clip-path="url(#p529b9deede)"/>
   </g>
   <g id="line2d_54">
    <g clip-path="url(#p529b9deede)"/>
   </g>
   <g id="LineCollection_20">
    <path clip-path="url(#p529b9deede)" style="fill: none; stroke: #f7fcf5; stroke-width: 2"/>
   </g>
   <g id="line2d_55">
    <g clip-path="url(#p529b9deede)"/>
   </g>
   <g id="line2d_56">
    <g clip-path="url(#p529b9deede)"/>
   </g>
   <g id="LineCollection_21">
    <path clip-path="url(#p529b9deede)" style="fill: none; stroke: #f7fcf5; stroke-width: 2"/>
   </g>
   <g id="line2d_57">
    <g clip-path="url(#p529b9deede)"/>
   </g>
   <g id="line2d_58">
    <g clip-path="url(#p529b9deede)"/>
   </g>
   <g id="LineCollection_22">
    <path d="M 148.932 434.186667 
L 148.932 434.186667 
" clip-path="url(#p529b9deede)" style="fill: none; stroke: #f7fcf5; stroke-width: 2"/>
   </g>
   <g id="line2d_59">
    <g clip-path="url(#p529b9deede)">
     <use xlink:href="#m3b1f02a2d6" x="148.932" y="434.186667" style="fill: #f7fcf5; stroke: #f7fcf5"/>
    </g>
   </g>
   <g id="line2d_60">
    <g clip-path="url(#p529b9deede)">
     <use xlink:href="#m3b1f02a2d6" x="148.932" y="434.186667" style="fill: #f7fcf5; stroke: #f7fcf5"/>
    </g>
   </g>
   <g id="LineCollection_23">
    <path d="M 158.874545 189.84 
L 158.874545 161.093333 
" clip-path="url(#p529b9deede)" style="fill: none; stroke: #f5fbf3; stroke-width: 2"/>
   </g>
   <g id="line2d_61">
    <defs>
     <path id="ma2edcd742a" d="M 3 0 
L -3 -0 
" style="stroke: #f5fbf3"/>
    </defs>
    <g clip-path="url(#p529b9deede)">
     <use xlink:href="#ma2edcd742a" x="158.874545" y="189.84" style="fill: #f5fbf3; stroke: #f5fbf3"/>
    </g>
   </g>
   <g id="line2d_62">
    <g clip-path="url(#p529b9deede)">
     <use xlink:href="#ma2edcd742a" x="158.874545" y="161.093333" style="fill: #f5fbf3; stroke: #f5fbf3"/>
    </g>
   </g>
   <g id="LineCollection_24">
    <path d="M 168.817091 161.093333 
L 168.817091 132.346667 
" clip-path="url(#p529b9deede)" style="fill: none; stroke: #e7f6e2; stroke-width: 2"/>
   </g>
   <g id="line2d_63">
    <defs>
     <path id="m65d2be78e8" d="M 3 0 
L -3 -0 
" style="stroke: #e7f6e2"/>
    </defs>
    <g clip-path="url(#p529b9deede)">
     <use xlink:href="#m65d2be78e8" x="168.817091" y="161.093333" style="fill: #e7f6e2; stroke: #e7f6e2"/>
    </g>
   </g>
   <g id="line2d_64">
    <g clip-path="url(#p529b9deede)">
     <use xlink:href="#m65d2be78e8" x="168.817091" y="132.346667" style="fill: #e7f6e2; stroke: #e7f6e2"/>
    </g>
   </g>
   <g id="LineCollection_25">
    <path d="M 178.759636 132.346667 
L 178.759636 117.973333 
" clip-path="url(#p529b9deede)" style="fill: none; stroke: #a2d99c; stroke-width: 2"/>
   </g>
   <g id="line2d_65">
    <defs>
     <path id="mccc6a792d7" d="M 3 0 
L -3 -0 
" style="stroke: #a2d99c"/>
    </defs>
    <g clip-path="url(#p529b9deede)">
     <use xlink:href="#mccc6a792d7" x="178.759636" y="132.346667" style="fill: #a2d99c; stroke: #a2d99c"/>
    </g>
   </g>
   <g id="line2d_66">
    <g clip-path="url(#p529b9deede)">
     <use xlink:href="#mccc6a792d7" x="178.759636" y="117.973333" style="fill: #a2d99c; stroke: #a2d99c"/>
    </g>
   </g>
   <g id="LineCollection_26">
    <path d="M 188.702182 117.973333 
L 188.702182 117.973333 
" clip-path="url(#p529b9deede)" style="fill: none; stroke: #2e964d; stroke-width: 2"/>
   </g>
   <g id="line2d_67">
    <defs>
     <path id="m112b33f1af" d="M 3 0 
L -3 -0 
" style="stroke: #2e964d"/>
    </defs>
    <g clip-path="url(#p529b9deede)">
     <use xlink:href="#m112b33f1af" x="188.702182" y="117.973333" style="fill: #2e964d; stroke: #2e964d"/>
    </g>
   </g>
   <g id="line2d_68">
    <g clip-path="url(#p529b9deede)">
     <use xlink:href="#m112b33f1af" x="188.702182" y="117.973333" style="fill: #2e964d; stroke: #2e964d"/>
    </g>
   </g>
   <g id="LineCollection_27">
    <path d="M 198.644727 117.973333 
L 198.644727 103.6 
" clip-path="url(#p529b9deede)" style="fill: none; stroke: #1d8640; stroke-width: 2"/>
   </g>
   <g id="line2d_69">
    <defs>
     <path id="mb3d4b8f4ff" d="M 3 0 
L -3 -0 
" style="stroke: #1d8640"/>
    </defs>
    <g clip-path="url(#p529b9deede)">
     <use xlink:href="#mb3d4b8f4ff" x="198.644727" y="117.973333" style="fill: #1d8640; stroke: #1d8640"/>
    </g>
   </g>
   <g id="line2d_70">
    <g clip-path="url(#p529b9deede)">
     <use xlink:href="#mb3d4b8f4ff" x="198.644727" y="103.6" style="fill: #1d8640; stroke: #1d8640"/>
    </g>
   </g>
   <g id="LineCollection_28">
    <path d="M 208.587273 117.973333 
L 208.587273 103.6 
" clip-path="url(#p529b9deede)" style="fill: none; stroke: #097532; stroke-width: 2"/>
   </g>
   <g id="line2d_71">
    <defs>
     <path id="m414150c651" d="M 3 0 
L -3 -0 
" style="stroke: #097532"/>
    </defs>
    <g clip-path="url(#p529b9deede)">
     <use xlink:href="#m414150c651" x="208.587273" y="117.973333" style="fill: #097532; stroke: #097532"/>
    </g>
   </g>
   <g id="line2d_72">
    <g clip-path="url(#p529b9deede)">
     <use xlink:href="#m414150c651" x="208.587273" y="103.6" style="fill: #097532; stroke: #097532"/>
    </g>
   </g>
   <g id="LineCollection_29">
    <path d="M 218.529818 117.973333 
L 218.529818 103.6 
" clip-path="url(#p529b9deede)" style="fill: none; stroke: #026f2e; stroke-width: 2"/>
   </g>
   <g id="line2d_73">
    <defs>
     <path id="m359a977d9e" d="M 3 0 
L -3 -0 
" style="stroke: #026f2e"/>
    </defs>
    <g clip-path="url(#p529b9deede)">
     <use xlink:href="#m359a977d9e" x="218.529818" y="117.973333" style="fill: #026f2e; stroke: #026f2e"/>
    </g>
   </g>
   <g id="line2d_74">
    <g clip-path="url(#p529b9deede)">
     <use xlink:href="#m359a977d9e" x="218.529818" y="103.6" style="fill: #026f2e; stroke: #026f2e"/>
    </g>
   </g>
   <g id="LineCollection_30">
    <path d="M 228.472364 117.973333 
L 228.472364 103.6 
" clip-path="url(#p529b9deede)" style="fill: none; stroke: #006d2c; stroke-width: 2"/>
   </g>
   <g id="line2d_75">
    <defs>
     <path id="mefa3be3e50" d="M 3 0 
L -3 -0 
" style="stroke: #006d2c"/>
    </defs>
    <g clip-path="url(#p529b9deede)">
     <use xlink:href="#mefa3be3e50" x="228.472364" y="117.973333" style="fill: #006d2c; stroke: #006d2c"/>
    </g>
   </g>
   <g id="line2d_76">
    <g clip-path="url(#p529b9deede)">
     <use xlink:href="#mefa3be3e50" x="228.472364" y="103.6" style="fill: #006d2c; stroke: #006d2c"/>
    </g>
   </g>
   <g id="LineCollection_31">
    <path d="M 238.414909 117.973333 
L 238.414909 103.6 
" clip-path="url(#p529b9deede)" style="fill: none; stroke: #1a843f; stroke-width: 2"/>
   </g>
   <g id="line2d_77">
    <defs>
     <path id="mfe53c6d369" d="M 3 0 
L -3 -0 
" style="stroke: #1a843f"/>
    </defs>
    <g clip-path="url(#p529b9deede)">
     <use xlink:href="#mfe53c6d369" x="238.414909" y="117.973333" style="fill: #1a843f; stroke: #1a843f"/>
    </g>
   </g>
   <g id="line2d_78">
    <g clip-path="url(#p529b9deede)">
     <use xlink:href="#mfe53c6d369" x="238.414909" y="103.6" style="fill: #1a843f; stroke: #1a843f"/>
    </g>
   </g>
   <g id="LineCollection_32">
    <path d="M 248.357455 132.346667 
L 248.357455 103.6 
" clip-path="url(#p529b9deede)" style="fill: none; stroke: #16803c; stroke-width: 2"/>
   </g>
   <g id="line2d_79">
    <defs>
     <path id="m9d160e0430" d="M 3 0 
L -3 -0 
" style="stroke: #16803c"/>
    </defs>
    <g clip-path="url(#p529b9deede)">
     <use xlink:href="#m9d160e0430" x="248.357455" y="132.346667" style="fill: #16803c; stroke: #16803c"/>
    </g>
   </g>
   <g id="line2d_80">
    <g clip-path="url(#p529b9deede)">
     <use xlink:href="#m9d160e0430" x="248.357455" y="103.6" style="fill: #16803c; stroke: #16803c"/>
    </g>
   </g>
   <g id="LineCollection_33">
    <path d="M 258.3 146.72 
L 258.3 117.973333 
" clip-path="url(#p529b9deede)" style="fill: none; stroke: #005a24; stroke-width: 2"/>
   </g>
   <g id="line2d_81">
    <defs>
     <path id="m196ba3b50d" d="M 3 0 
L -3 -0 
" style="stroke: #005a24"/>
    </defs>
    <g clip-path="url(#p529b9deede)">
     <use xlink:href="#m196ba3b50d" x="258.3" y="146.72" style="fill: #005a24; stroke: #005a24"/>
    </g>
   </g>
   <g id="line2d_82">
    <g clip-path="url(#p529b9deede)">
     <use xlink:href="#m196ba3b50d" x="258.3" y="117.973333" style="fill: #005a24; stroke: #005a24"/>
    </g>
   </g>
   <g id="LineCollection_34">
    <path d="M 268.242545 175.466667 
L 268.242545 146.72 
" clip-path="url(#p529b9deede)" style="fill: none; stroke: #00441b; stroke-width: 2"/>
   </g>
   <g id="line2d_83">
    <defs>
     <path id="m903fbc0c35" d="M 3 0 
L -3 -0 
" style="stroke: #00441b"/>
    </defs>
    <g clip-path="url(#p529b9deede)">
     <use xlink:href="#m903fbc0c35" x="268.242545" y="175.466667" style="fill: #00441b; stroke: #00441b"/>
    </g>
   </g>
   <g id="line2d_84">
    <g clip-path="url(#p529b9deede)">
     <use xlink:href="#m903fbc0c35" x="268.242545" y="146.72" style="fill: #00441b; stroke: #00441b"/>
    </g>
   </g>
   <g id="LineCollection_35">
    <path d="M 278.185091 218.586667 
L 278.185091 175.466667 
" clip-path="url(#p529b9deede)" style="fill: none; stroke: #00441b; stroke-width: 2"/>
   </g>
   <g id="line2d_85">
    <g clip-path="url(#p529b9deede)">
     <use xlink:href="#m903fbc0c35" x="278.185091" y="218.586667" style="fill: #00441b; stroke: #00441b"/>
    </g>
   </g>
   <g id="line2d_86">
    <g clip-path="url(#p529b9deede)">
     <use xlink:href="#m903fbc0c35" x="278.185091" y="175.466667" style="fill: #00441b; stroke: #00441b"/>
    </g>
   </g>
   <g id="LineCollection_36">
    <path d="M 288.127636 276.08 
L 288.127636 204.213333 
" clip-path="url(#p529b9deede)" style="fill: none; stroke: #00441b; stroke-width: 2"/>
   </g>
   <g id="line2d_87">
    <g clip-path="url(#p529b9deede)">
     <use xlink:href="#m903fbc0c35" x="288.127636" y="276.08" style="fill: #00441b; stroke: #00441b"/>
    </g>
   </g>
   <g id="line2d_88">
    <g clip-path="url(#p529b9deede)">
     <use xlink:href="#m903fbc0c35" x="288.127636" y="204.213333" style="fill: #00441b; stroke: #00441b"/>
    </g>
   </g>
   <g id="LineCollection_37">
    <path d="M 298.070182 376.693333 
L 298.070182 247.333333 
" clip-path="url(#p529b9deede)" style="fill: none; stroke: #00441b; stroke-width: 2"/>
   </g>
   <g id="line2d_89">
    <g clip-path="url(#p529b9deede)">
     <use xlink:href="#m903fbc0c35" x="298.070182" y="376.693333" style="fill: #00441b; stroke: #00441b"/>
    </g>
   </g>
   <g id="line2d_90">
    <g clip-path="url(#p529b9deede)">
     <use xlink:href="#m903fbc0c35" x="298.070182" y="247.333333" style="fill: #00441b; stroke: #00441b"/>
    </g>
   </g>
   <g id="LineCollection_38">
    <path d="M 308.012727 434.186667 
L 308.012727 304.826667 
" clip-path="url(#p529b9deede)" style="fill: none; stroke: #00441b; stroke-width: 2"/>
   </g>
   <g id="line2d_91">
    <g clip-path="url(#p529b9deede)">
     <use xlink:href="#m903fbc0c35" x="308.012727" y="434.186667" style="fill: #00441b; stroke: #00441b"/>
    </g>
   </g>
   <g id="line2d_92">
    <g clip-path="url(#p529b9deede)">
     <use xlink:href="#m903fbc0c35" x="308.012727" y="304.826667" style="fill: #00441b; stroke: #00441b"/>
    </g>
   </g>
   <g id="LineCollection_39">
    <path d="M 317.955273 434.186667 
L 317.955273 362.32 
" clip-path="url(#p529b9deede)" style="fill: none; stroke: #00441b; stroke-width: 2"/>
   </g>
   <g id="line2d_93">
    <g clip-path="url(#p529b9deede)">
     <use xlink:href="#m903fbc0c35" x="317.955273" y="434.186667" style="fill: #00441b; stroke: #00441b"/>
    </g>
   </g>
   <g id="line2d_94">
    <g clip-path="url(#p529b9deede)">
     <use xlink:href="#m903fbc0c35" x="317.955273" y="362.32" style="fill: #00441b; stroke: #00441b"/>
    </g>
   </g>
   <g id="LineCollection_40">
    <path d="M 327.897818 434.186667 
L 327.897818 434.186667 
" clip-path="url(#p529b9deede)" style="fill: none; stroke: #caeac3; stroke-width: 2"/>
   </g>
   <g id="line2d_95">
    <defs>
     <path id="m4e12a0793e" d="M 3 0 
L -3 -0 
" style="stroke: #caeac3"/>
    </defs>
    <g clip-path="url(#p529b9deede)">
     <use xlink:href="#m4e12a0793e" x="327.897818" y="434.186667" style="fill: #caeac3; stroke: #caeac3"/>
    </g>
   </g>
   <g id="line2d_96">
    <g clip-path="url(#p529b9deede)">
     <use xlink:href="#m4e12a0793e" x="327.897818" y="434.186667" style="fill: #caeac3; stroke: #caeac3"/>
    </g>
   </g>
   <g id="LineCollection_41">
    <path clip-path="url(#p529b9deede)" style="fill: none; stroke: #f7fcf5; stroke-width: 2"/>
   </g>
   <g id="line2d_97">
    <g clip-path="url(#p529b9deede)"/>
   </g>
   <g id="line2d_98">
    <g clip-path="url(#p529b9deede)"/>
   </g>
   <g id="LineCollection_42">
    <path clip-path="url(#p529b9deede)" style="fill: none; stroke: #f7fcf5; stroke-width: 2"/>
   </g>
   <g id="line2d_99">
    <g clip-path="url(#p529b9deede)"/>
   </g>
   <g id="line2d_100">
    <g clip-path="url(#p529b9deede)"/>
   </g>
   <g id="LineCollection_43">
    <path clip-path="url(#p529b9deede)" style="fill: none; stroke: #f7fcf5; stroke-width: 2"/>
   </g>
   <g id="line2d_101">
    <g clip-path="url(#p529b9deede)"/>
   </g>
   <g id="line2d_102">
    <g clip-path="url(#p529b9deede)"/>
   </g>
   <g id="LineCollection_44">
    <path clip-path="url(#p529b9deede)" style="fill: none; stroke: #f7fcf5; stroke-width: 2"/>
   </g>
   <g id="line2d_103">
    <g clip-path="url(#p529b9deede)"/>
   </g>
   <g id="line2d_104">
    <g clip-path="url(#p529b9deede)"/>
   </g>
   <g id="LineCollection_45">
    <path clip-path="url(#p529b9deede)" style="fill: none; stroke: #f7fcf5; stroke-width: 2"/>
   </g>
   <g id="line2d_105">
    <g clip-path="url(#p529b9deede)"/>
   </g>
   <g id="line2d_106">
    <g clip-path="url(#p529b9deede)"/>
   </g>
   <g id="LineCollection_46">
    <path clip-path="url(#p529b9deede)" style="fill: none; stroke: #f7fcf5; stroke-width: 2"/>
   </g>
   <g id="line2d_107">
    <g clip-path="url(#p529b9deede)"/>
   </g>
   <g id="line2d_108">
    <g clip-path="url(#p529b9deede)"/>
   </g>
   <g id="LineCollection_47">
    <path clip-path="url(#p529b9deede)" style="fill: none; stroke: #f7fcf5; stroke-width: 2"/>
   </g>
   <g id="line2d_109">
    <g clip-path="url(#p529b9deede)"/>
   </g>
   <g id="line2d_110">
    <g clip-path="url(#p529b9deede)"/>
   </g>
   <g id="LineCollection_48">
    <path clip-path="url(#p529b9deede)" style="fill: none; stroke: #f7fcf5; stroke-width: 2"/>
   </g>
   <g id="line2d_111">
    <g clip-path="url(#p529b9deede)"/>
   </g>
   <g id="line2d_112">
    <g clip-path="url(#p529b9deede)"/>
   </g>
   <g id="LineCollection_49">
    <path clip-path="url(#p529b9deede)" style="fill: none; stroke: #f7fcf5; stroke-width: 2"/>
   </g>
   <g id="line2d_113">
    <g clip-path="url(#p529b9deede)"/>
   </g>
   <g id="line2d_114">
    <g clip-path="url(#p529b9deede)"/>
   </g>
   <g id="LineCollection_50">
    <path clip-path="url(#p529b9deede)" style="fill: none; stroke: #f7fcf5; stroke-width: 2"/>
   </g>
   <g id="line2d_115">
    <g clip-path="url(#p529b9deede)"/>
   </g>
   <g id="line2d_116">
    <g clip-path="url(#p529b9deede)"/>
   </g>
   <g id="LineCollection_51">
    <path clip-path="url(#p529b9deede)" style="fill: none; stroke: #f7fcf5; stroke-width: 2"/>
   </g>
   <g id="line2d_117">
    <g clip-path="url(#p529b9deede)"/>
   </g>
   <g id="line2d_118">
    <g clip-path="url(#p529b9deede)"/>
   </g>
   <g id="LineCollection_52">
    <path clip-path="url(#p529b9deede)" style="fill: none; stroke: #f7fcf5; stroke-width: 2"/>
   </g>
   <g id="line2d_119">
    <g clip-path="url(#p529b9deede)"/>
   </g>
   <g id="line2d_120">
    <g clip-path="url(#p529b9deede)"/>
   </g>
   <g id="line2d_121">
    <defs>
     <path id="mbce09e8672" d="M 0 4 
C 1.060812 4 2.078319 3.578535 2.828427 2.828427 
C 3.578535 2.078319 4 1.060812 4 0 
C 4 -1.060812 3.578535 -2.078319 2.828427 -2.828427 
C 2.078319 -3.578535 1.060812 -4 0 -4 
C -1.060812 -4 -2.078319 -3.578535 -2.828427 -2.828427 
C -3.578535 -2.078319 -4 -1.060812 -4 0 
C -4 1.060812 -3.578535 2.078319 -2.828427 2.828427 
C -2.078319 3.578535 -1.060812 4 0 4 
z
" style="stroke: #f7fcf5"/>
    </defs>
    <g clip-path="url(#p529b9deede)"/>
   </g>
   <g id="line2d_122">
    <g clip-path="url(#p529b9deede)"/>
   </g>
   <g id="line2d_123">
    <g clip-path="url(#p529b9deede)"/>
   </g>
   <g id="line2d_124">
    <g clip-path="url(#p529b9deede)"/>
   </g>
   <g id="line2d_125">
    <g clip-path="url(#p529b9deede)"/>
   </g>
   <g id="line2d_126">
    <g clip-path="url(#p529b9deede)"/>
   </g>
   <g id="line2d_127">
    <g clip-path="url(#p529b9deede)"/>
   </g>
   <g id="line2d_128">
    <g clip-path="url(#p529b9deede)"/>
   </g>
   <g id="line2d_129">
    <g clip-path="url(#p529b9deede)"/>
   </g>
   <g id="line2d_130">
    <g clip-path="url(#p529b9deede)"/>
   </g>
   <g id="line2d_131">
    <g clip-path="url(#p529b9deede)"/>
   </g>
   <g id="line2d_132">
    <g clip-path="url(#p529b9deede)"/>
   </g>
   <g id="line2d_133">
    <g clip-path="url(#p529b9deede)"/>
   </g>
   <g id="line2d_134">
    <g clip-path="url(#p529b9deede)"/>
   </g>
   <g id="line2d_135">
    <g clip-path="url(#p529b9deede)"/>
   </g>
   <g id="line2d_136">
    <g clip-path="url(#p529b9deede)"/>
   </g>
   <g id="line2d_137">
    <g clip-path="url(#p529b9deede)"/>
   </g>
   <g id="line2d_138">
    <g clip-path="url(#p529b9deede)"/>
   </g>
   <g id="line2d_139">
    <g clip-path="url(#p529b9deede)"/>
   </g>
   <g id="line2d_140">
    <g clip-path="url(#p529b9deede)"/>
   </g>
   <g id="line2d_141">
    <g clip-path="url(#p529b9deede)"/>
   </g>
   <g id="line2d_142">
    <g clip-path="url(#p529b9deede)">
     <use xlink:href="#mbce09e8672" x="148.932" y="434.186667" style="fill: #f7fcf5; stroke: #f7fcf5"/>
    </g>
   </g>
   <g id="line2d_143">
    <defs>
     <path id="mb7cac373a5" d="M 0 4 
C 1.060812 4 2.078319 3.578535 2.828427 2.828427 
C 3.578535 2.078319 4 1.060812 4 0 
C 4 -1.060812 3.578535 -2.078319 2.828427 -2.828427 
C 2.078319 -3.578535 1.060812 -4 0 -4 
C -1.060812 -4 -2.078319 -3.578535 -2.828427 -2.828427 
C -3.578535 -2.078319 -4 -1.060812 -4 0 
C -4 1.060812 -3.578535 2.078319 -2.828427 2.828427 
C -2.078319 3.578535 -1.060812 4 0 4 
z
" style="stroke: #f5fbf3"/>
    </defs>
    <g clip-path="url(#p529b9deede)">
     <use xlink:href="#mb7cac373a5" x="158.874545" y="175.466667" style="fill: #f5fbf3; stroke: #f5fbf3"/>
    </g>
   </g>
   <g id="line2d_144">
    <defs>
     <path id="mb6dd78baf5" d="M 0 4 
C 1.060812 4 2.078319 3.578535 2.828427 2.828427 
C 3.578535 2.078319 4 1.060812 4 0 
C 4 -1.060812 3.578535 -2.078319 2.828427 -2.828427 
C 2.078319 -3.578535 1.060812 -4 0 -4 
C -1.060812 -4 -2.078319 -3.578535 -2.828427 -2.828427 
C -3.578535 -2.078319 -4 -1.060812 -4 0 
C -4 1.060812 -3.578535 2.078319 -2.828427 2.828427 
C -2.078319 3.578535 -1.060812 4 0 4 
z
" style="stroke: #e7f6e2"/>
    </defs>
    <g clip-path="url(#p529b9deede)">
     <use xlink:href="#mb6dd78baf5" x="168.817091" y="132.346667" style="fill: #e7f6e2; stroke: #e7f6e2"/>
    </g>
   </g>
   <g id="line2d_145">
    <defs>
     <path id="m6f73beee32" d="M 0 4 
C 1.060812 4 2.078319 3.578535 2.828427 2.828427 
C 3.578535 2.078319 4 1.060812 4 0 
C 4 -1.060812 3.578535 -2.078319 2.828427 -2.828427 
C 2.078319 -3.578535 1.060812 -4 0 -4 
C -1.060812 -4 -2.078319 -3.578535 -2.828427 -2.828427 
C -3.578535 -2.078319 -4 -1.060812 -4 0 
C -4 1.060812 -3.578535 2.078319 -2.828427 2.828427 
C -2.078319 3.578535 -1.060812 4 0 4 
z
" style="stroke: #a2d99c"/>
    </defs>
    <g clip-path="url(#p529b9deede)">
     <use xlink:href="#m6f73beee32" x="178.759636" y="117.973333" style="fill: #a2d99c; stroke: #a2d99c"/>
    </g>
   </g>
   <g id="line2d_146">
    <defs>
     <path id="m5ba9438142" d="M 0 4 
C 1.060812 4 2.078319 3.578535 2.828427 2.828427 
C 3.578535 2.078319 4 1.060812 4 0 
C 4 -1.060812 3.578535 -2.078319 2.828427 -2.828427 
C 2.078319 -3.578535 1.060812 -4 0 -4 
C -1.060812 -4 -2.078319 -3.578535 -2.828427 -2.828427 
C -3.578535 -2.078319 -4 -1.060812 -4 0 
C -4 1.060812 -3.578535 2.078319 -2.828427 2.828427 
C -2.078319 3.578535 -1.060812 4 0 4 
z
" style="stroke: #2e964d"/>
    </defs>
    <g clip-path="url(#p529b9deede)">
     <use xlink:href="#m5ba9438142" x="188.702182" y="117.973333" style="fill: #2e964d; stroke: #2e964d"/>
    </g>
   </g>
   <g id="line2d_147">
    <defs>
     <path id="m9f1e5a83ba" d="M 0 4 
C 1.060812 4 2.078319 3.578535 2.828427 2.828427 
C 3.578535 2.078319 4 1.060812 4 0 
C 4 -1.060812 3.578535 -2.078319 2.828427 -2.828427 
C 2.078319 -3.578535 1.060812 -4 0 -4 
C -1.060812 -4 -2.078319 -3.578535 -2.828427 -2.828427 
C -3.578535 -2.078319 -4 -1.060812 -4 0 
C -4 1.060812 -3.578535 2.078319 -2.828427 2.828427 
C -2.078319 3.578535 -1.060812 4 0 4 
z
" style="stroke: #1d8640"/>
    </defs>
    <g clip-path="url(#p529b9deede)">
     <use xlink:href="#m9f1e5a83ba" x="198.644727" y="117.973333" style="fill: #1d8640; stroke: #1d8640"/>
    </g>
   </g>
   <g id="line2d_148">
    <defs>
     <path id="m2a799b5917" d="M 0 4 
C 1.060812 4 2.078319 3.578535 2.828427 2.828427 
C 3.578535 2.078319 4 1.060812 4 0 
C 4 -1.060812 3.578535 -2.078319 2.828427 -2.828427 
C 2.078319 -3.578535 1.060812 -4 0 -4 
C -1.060812 -4 -2.078319 -3.578535 -2.828427 -2.828427 
C -3.578535 -2.078319 -4 -1.060812 -4 0 
C -4 1.060812 -3.578535 2.078319 -2.828427 2.828427 
C -2.078319 3.578535 -1.060812 4 0 4 
z
" style="stroke: #097532"/>
    </defs>
    <g clip-path="url(#p529b9deede)">
     <use xlink:href="#m2a799b5917" x="208.587273" y="117.973333" style="fill: #097532; stroke: #097532"/>
    </g>
   </g>
   <g id="line2d_149">
    <defs>
     <path id="me57cf7b0c7" d="M 0 4 
C 1.060812 4 2.078319 3.578535 2.828427 2.828427 
C 3.578535 2.078319 4 1.060812 4 0 
C 4 -1.060812 3.578535 -2.078319 2.828427 -2.828427 
C 2.078319 -3.578535 1.060812 -4 0 -4 
C -1.060812 -4 -2.078319 -3.578535 -2.828427 -2.828427 
C -3.578535 -2.078319 -4 -1.060812 -4 0 
C -4 1.060812 -3.578535 2.078319 -2.828427 2.828427 
C -2.078319 3.578535 -1.060812 4 0 4 
z
" style="stroke: #026f2e"/>
    </defs>
    <g clip-path="url(#p529b9deede)">
     <use xlink:href="#me57cf7b0c7" x="218.529818" y="117.973333" style="fill: #026f2e; stroke: #026f2e"/>
    </g>
   </g>
   <g id="line2d_150">
    <defs>
     <path id="m6bfa021b94" d="M 0 4 
C 1.060812 4 2.078319 3.578535 2.828427 2.828427 
C 3.578535 2.078319 4 1.060812 4 0 
C 4 -1.060812 3.578535 -2.078319 2.828427 -2.828427 
C 2.078319 -3.578535 1.060812 -4 0 -4 
C -1.060812 -4 -2.078319 -3.578535 -2.828427 -2.828427 
C -3.578535 -2.078319 -4 -1.060812 -4 0 
C -4 1.060812 -3.578535 2.078319 -2.828427 2.828427 
C -2.078319 3.578535 -1.060812 4 0 4 
z
" style="stroke: #006d2c"/>
    </defs>
    <g clip-path="url(#p529b9deede)">
     <use xlink:href="#m6bfa021b94" x="228.472364" y="117.973333" style="fill: #006d2c; stroke: #006d2c"/>
    </g>
   </g>
   <g id="line2d_151">
    <defs>
     <path id="mb21ed43723" d="M 0 4 
C 1.060812 4 2.078319 3.578535 2.828427 2.828427 
C 3.578535 2.078319 4 1.060812 4 0 
C 4 -1.060812 3.578535 -2.078319 2.828427 -2.828427 
C 2.078319 -3.578535 1.060812 -4 0 -4 
C -1.060812 -4 -2.078319 -3.578535 -2.828427 -2.828427 
C -3.578535 -2.078319 -4 -1.060812 -4 0 
C -4 1.060812 -3.578535 2.078319 -2.828427 2.828427 
C -2.078319 3.578535 -1.060812 4 0 4 
z
" style="stroke: #1a843f"/>
    </defs>
    <g clip-path="url(#p529b9deede)">
     <use xlink:href="#mb21ed43723" x="238.414909" y="117.973333" style="fill: #1a843f; stroke: #1a843f"/>
    </g>
   </g>
   <g id="line2d_152">
    <defs>
     <path id="m0148739524" d="M 0 4 
C 1.060812 4 2.078319 3.578535 2.828427 2.828427 
C 3.578535 2.078319 4 1.060812 4 0 
C 4 -1.060812 3.578535 -2.078319 2.828427 -2.828427 
C 2.078319 -3.578535 1.060812 -4 0 -4 
C -1.060812 -4 -2.078319 -3.578535 -2.828427 -2.828427 
C -3.578535 -2.078319 -4 -1.060812 -4 0 
C -4 1.060812 -3.578535 2.078319 -2.828427 2.828427 
C -2.078319 3.578535 -1.060812 4 0 4 
z
" style="stroke: #16803c"/>
    </defs>
    <g clip-path="url(#p529b9deede)">
     <use xlink:href="#m0148739524" x="248.357455" y="117.973333" style="fill: #16803c; stroke: #16803c"/>
    </g>
   </g>
   <g id="line2d_153">
    <defs>
     <path id="mb212ad0ffe" d="M 0 4 
C 1.060812 4 2.078319 3.578535 2.828427 2.828427 
C 3.578535 2.078319 4 1.060812 4 0 
C 4 -1.060812 3.578535 -2.078319 2.828427 -2.828427 
C 2.078319 -3.578535 1.060812 -4 0 -4 
C -1.060812 -4 -2.078319 -3.578535 -2.828427 -2.828427 
C -3.578535 -2.078319 -4 -1.060812 -4 0 
C -4 1.060812 -3.578535 2.078319 -2.828427 2.828427 
C -2.078319 3.578535 -1.060812 4 0 4 
z
" style="stroke: #005a24"/>
    </defs>
    <g clip-path="url(#p529b9deede)">
     <use xlink:href="#mb212ad0ffe" x="258.3" y="146.72" style="fill: #005a24; stroke: #005a24"/>
    </g>
   </g>
   <g id="line2d_154">
    <defs>
     <path id="m977cffa08f" d="M 0 4 
C 1.060812 4 2.078319 3.578535 2.828427 2.828427 
C 3.578535 2.078319 4 1.060812 4 0 
C 4 -1.060812 3.578535 -2.078319 2.828427 -2.828427 
C 2.078319 -3.578535 1.060812 -4 0 -4 
C -1.060812 -4 -2.078319 -3.578535 -2.828427 -2.828427 
C -3.578535 -2.078319 -4 -1.060812 -4 0 
C -4 1.060812 -3.578535 2.078319 -2.828427 2.828427 
C -2.078319 3.578535 -1.060812 4 0 4 
z
" style="stroke: #00441b"/>
    </defs>
    <g clip-path="url(#p529b9deede)">
     <use xlink:href="#m977cffa08f" x="268.242545" y="161.093333" style="fill: #00441b; stroke: #00441b"/>
    </g>
   </g>
   <g id="line2d_155">
    <g clip-path="url(#p529b9deede)">
     <use xlink:href="#m977cffa08f" x="278.185091" y="204.213333" style="fill: #00441b; stroke: #00441b"/>
    </g>
   </g>
   <g id="line2d_156">
    <g clip-path="url(#p529b9deede)">
     <use xlink:href="#m977cffa08f" x="288.127636" y="247.333333" style="fill: #00441b; stroke: #00441b"/>
    </g>
   </g>
   <g id="line2d_157">
    <g clip-path="url(#p529b9deede)">
     <use xlink:href="#m977cffa08f" x="298.070182" y="304.826667" style="fill: #00441b; stroke: #00441b"/>
    </g>
   </g>
   <g id="line2d_158">
    <g clip-path="url(#p529b9deede)">
     <use xlink:href="#m977cffa08f" x="308.012727" y="362.32" style="fill: #00441b; stroke: #00441b"/>
    </g>
   </g>
   <g id="line2d_159">
    <g clip-path="url(#p529b9deede)">
     <use xlink:href="#m977cffa08f" x="317.955273" y="419.813333" style="fill: #00441b; stroke: #00441b"/>
    </g>
   </g>
   <g id="line2d_160">
    <defs>
     <path id="mdeebc2208a" d="M 0 4 
C 1.060812 4 2.078319 3.578535 2.828427 2.828427 
C 3.578535 2.078319 4 1.060812 4 0 
C 4 -1.060812 3.578535 -2.078319 2.828427 -2.828427 
C 2.078319 -3.578535 1.060812 -4 0 -4 
C -1.060812 -4 -2.078319 -3.578535 -2.828427 -2.828427 
C -3.578535 -2.078319 -4 -1.060812 -4 0 
C -4 1.060812 -3.578535 2.078319 -2.828427 2.828427 
C -2.078319 3.578535 -1.060812 4 0 4 
z
" style="stroke: #caeac3"/>
    </defs>
    <g clip-path="url(#p529b9deede)">
     <use xlink:href="#mdeebc2208a" x="327.897818" y="434.186667" style="fill: #caeac3; stroke: #caeac3"/>
    </g>
   </g>
   <g id="line2d_161">
    <g clip-path="url(#p529b9deede)"/>
   </g>
   <g id="line2d_162">
    <g clip-path="url(#p529b9deede)"/>
   </g>
   <g id="line2d_163">
    <g clip-path="url(#p529b9deede)"/>
   </g>
   <g id="line2d_164">
    <g clip-path="url(#p529b9deede)"/>
   </g>
   <g id="line2d_165">
    <g clip-path="url(#p529b9deede)"/>
   </g>
   <g id="line2d_166">
    <g clip-path="url(#p529b9deede)"/>
   </g>
   <g id="line2d_167">
    <g clip-path="url(#p529b9deede)"/>
   </g>
   <g id="line2d_168">
    <g clip-path="url(#p529b9deede)"/>
   </g>
   <g id="line2d_169">
    <g clip-path="url(#p529b9deede)"/>
   </g>
   <g id="line2d_170">
    <g clip-path="url(#p529b9deede)"/>
   </g>
   <g id="line2d_171">
    <g clip-path="url(#p529b9deede)"/>
   </g>
   <g id="line2d_172">
    <g clip-path="url(#p529b9deede)"/>
   </g>
   <g id="patch_3">
    <path d="M 63 448.56 
L 63 60.48 
" style="fill: none; stroke: #000000; stroke-width: 0.8; stroke-linejoin: miter; stroke-linecap: square"/>
   </g>
   <g id="patch_4">
    <path d="M 63 448.56 
L 453.6 448.56 
" style="fill: none; stroke: #000000; stroke-width: 0.8; stroke-linejoin: miter; stroke-linecap: square"/>
   </g>
  </g>
 </g>
 <defs>
  <clipPath id="p529b9deede">
   <rect x="63" y="60.48" width="390.6" height="388.08"/>
  </clipPath>
 </defs>
</svg>
