<?xml version="1.0" encoding="utf-8" standalone="no"?>
<!DOCTYPE svg PUBLIC "-//W3C//DTD SVG 1.1//EN"
  "http://www.w3.org/Graphics/SVG/1.1/DTD/svg11.dtd">
<svg xmlns:xlink="http://www.w3.org/1999/xlink" width="504pt" height="504pt" viewBox="0 0 504 504" xmlns="http://www.w3.org/2000/svg" version="1.1">
 <metadata>
  <rdf:RDF xmlns:dc="http://purl.org/dc/elements/1.1/" xmlns:cc="http://creativecommons.org/ns#" xmlns:rdf="http://www.w3.org/1999/02/22-rdf-syntax-ns#">
   <cc:Work>
    <dc:type rdf:resource="http://purl.org/dc/dcmitype/StillImage"/>
    <dc:date>2026-07-13T19:55:00.196473</dc:date>
    <dc:format>image/svg+xml</dc:format>
    <dc:creator>
     <cc:Agent>
      <dc:title>Matplotlib v3.11.0, https://matplotlib.org/</dc:title>
     </cc:Agent>
    </dc:creator>
   </cc:Work>
  </rdf:RDF>
 </metadata>
 <defs>
  <style type="text/css">*{stroke-linejoin: round; stroke-linecap: butt}</style>
 </defs>
 <g id="figure_1">
  <g id="patch_1">
   <path d="M 0 504 
L 504 504 
L 504 0 
L 0 0 
L 0 504 
z
" style="fill: none"/>
  </g>
  <g id="axes_1">
   <g id="patch_2">
    <path d="M 63 448.56 
L 453.6 448.56 
L 453.6 60.48 
L 63 60.48 
L 63 448.56 
z
" style="fill: none"/>
   </g>
   <g id="matplotlib.axis_1">
    <g id="xtick_1">
     <g id="line2d_1">
      <defs>
       <path id="me67e06d729" d="M 0 0 
L 0 3.5 
" style="stroke: #000000; stroke-width: 0.8"/>
      </defs>
      <g>
       <use xlink:href="#me67e06d729" x="63" y="448.56" style="stroke: #000000; stroke-width: 0.8"/>
      </g>
     </g>
     <g id="text_1">
      <text style="font-size: 16px; font-family: 'Arial', sans-serif; text-anchor: middle" x="63" y="467.71625" transform="rotate(-0 63 467.71625)">1 Apr</text>
     </g>
    </g>
    <g id="xtick_2">
     <g id="line2d_2">
      <g>
       <use xlink:href="#me67e06d729" x="105.610909" y="448.56" style="stroke: #000000; stroke-width: 0.8"/>
      </g>
     </g>
    </g>
    <g id="xtick_3">
     <g id="line2d_3">
      <g>
       <use xlink:href="#me67e06d729" x="149.642182" y="448.56" style="stroke: #000000; stroke-width: 0.8"/>
      </g>
     </g>
     <g id="text_2">
      <text style="font-size: 16px; font-family: 'Arial', sans-serif; text-anchor: middle" x="149.642182" y="467.71625" transform="rotate(-0 149.642182 467.71625)">1 Jun</text>
     </g>
    </g>
    <g id="xtick_4">
     <g id="line2d_4">
      <g>
       <use xlink:href="#me67e06d729" x="192.253091" y="448.56" style="stroke: #000000; stroke-width: 0.8"/>
      </g>
     </g>
    </g>
    <g id="xtick_5">
     <g id="line2d_5">
      <g>
       <use xlink:href="#me67e06d729" x="236.284364" y="448.56" style="stroke: #000000; stroke-width: 0.8"/>
      </g>
     </g>
     <g id="text_3">
      <text style="font-size: 16px; font-family: 'Arial', sans-serif; text-anchor: middle" x="236.284364" y="467.71625" transform="rotate(-0 236.284364 467.71625)">1 Aug</text>
     </g>
    </g>
    <g id="xtick_6">
     <g id="line2d_6">
      <g>
       <use xlink:href="#me67e06d729" x="280.315636" y="448.56" style="stroke: #000000; stroke-width: 0.8"/>
      </g>
     </g>
    </g>
    <g id="xtick_7">
     <g id="line2d_7">
      <g>
       <use xlink:href="#me67e06d729" x="322.926545" y="448.56" style="stroke: #000000; stroke-width: 0.8"/>
      </g>
     </g>
     <g id="text_4">
      <text style="font-size: 16px; font-family: 'Arial', sans-serif; text-anchor: middle" x="322.926545" y="467.71625" transform="rotate(-0 322.926545 467.71625)">1 Oct</text>
     </g>
    </g>
    <g id="xtick_8">
     <g id="line2d_8">
      <g>
       <use xlink:href="#me67e06d729" x="366.957818" y="448.56" style="stroke: #000000; stroke-width: 0.8"/>
      </g>
     </g>
    </g>
    <g id="xtick_9">
     <g id="line2d_9">
      <g>
       <use xlink:href="#me67e06d729" x="409.568727" y="448.56" style="stroke: #000000; stroke-width: 0.8"/>
      </g>
     </g>
     <g id="text_5">
      <text style="font-size: 16px; font-family: 'Arial', sans-serif; text-anchor: middle" x="409.568727" y="467.71625" transform="rotate(-0 409.568727 467.71625)">1 Dec</text>
     </g>
    </g>
    <g id="xtick_10">
     <g id="line2d_10">
      <g>
       <use xlink:href="#me67e06d729" x="453.6" y="448.56" style="stroke: #000000; stroke-width: 0.8"/>
      </g>
     </g>
    </g>
    <g id="text_6">
     <text style="font-size: 16px; font-family: 'Arial', sans-serif; text-anchor: middle" x="258.3" y="487.7175" transform="rotate(-0 258.3 487.7175)">Week of last observed case</text>
    </g>
   </g>
   <g id="matplotlib.axis_2">
    <g id="ytick_1">
     <g id="line2d_11">
      <defs>
       <path id="m60c81e7634" d="M 0 0 
L -3.5 0 
" style="stroke: #000000; stroke-width: 0.8"/>
      </defs>
      <g>
       <use xlink:href="#m60c81e7634" x="63" y="448.56" style="stroke: #000000; stroke-width: 0.8"/>
      </g>
     </g>
     <g id="text_7">
      <text style="font-size: 16px; font-family: 'Arial', sans-serif; text-anchor: end" x="56" y="454.638125" transform="rotate(-0 56 454.638125)">0</text>
     </g>
    </g>
    <g id="ytick_2">
     <g id="line2d_12">
      <g>
       <use xlink:href="#m60c81e7634" x="63" y="385.966452" style="stroke: #000000; stroke-width: 0.8"/>
      </g>
     </g>
     <g id="text_8">
      <text style="font-size: 16px; font-family: 'Arial', sans-serif; text-anchor: end" x="56" y="392.044577" transform="rotate(-0 56 392.044577)">5</text>
     </g>
    </g>
    <g id="ytick_3">
     <g id="line2d_13">
      <g>
       <use xlink:href="#m60c81e7634" x="63" y="323.372903" style="stroke: #000000; stroke-width: 0.8"/>
      </g>
     </g>
     <g id="text_9">
      <text style="font-size: 16px; font-family: 'Arial', sans-serif; text-anchor: end" x="56" y="329.451028" transform="rotate(-0 56 329.451028)">10</text>
     </g>
    </g>
    <g id="ytick_4">
     <g id="line2d_14">
      <g>
       <use xlink:href="#m60c81e7634" x="63" y="260.779355" style="stroke: #000000; stroke-width: 0.8"/>
      </g>
     </g>
     <g id="text_10">
      <text style="font-size: 16px; font-family: 'Arial', sans-serif; text-anchor: end" x="56" y="266.85748" transform="rotate(-0 56 266.85748)">15</text>
     </g>
    </g>
    <g id="ytick_5">
     <g id="line2d_15">
      <g>
       <use xlink:href="#m60c81e7634" x="63" y="198.185806" style="stroke: #000000; stroke-width: 0.8"/>
      </g>
     </g>
     <g id="text_11">
      <text style="font-size: 16px; font-family: 'Arial', sans-serif; text-anchor: end" x="56" y="204.263931" transform="rotate(-0 56 204.263931)">20</text>
     </g>
    </g>
    <g id="ytick_6">
     <g id="line2d_16">
      <g>
       <use xlink:href="#m60c81e7634" x="63" y="135.592258" style="stroke: #000000; stroke-width: 0.8"/>
      </g>
     </g>
     <g id="text_12">
      <text style="font-size: 16px; font-family: 'Arial', sans-serif; text-anchor: end" x="56" y="141.670383" transform="rotate(-0 56 141.670383)">25</text>
     </g>
    </g>
    <g id="ytick_7">
     <g id="line2d_17">
      <g>
       <use xlink:href="#m60c81e7634" x="63" y="72.99871" style="stroke: #000000; stroke-width: 0.8"/>
      </g>
     </g>
     <g id="text_13">
      <text style="font-size: 16px; font-family: 'Arial', sans-serif; text-anchor: end" x="56" y="79.076835" transform="rotate(-0 56 79.076835)">30</text>
     </g>
    </g>
    <g id="text_14">
     <text style="font-size: 16px; font-family: 'Arial', sans-serif" transform="translate(6.990312 373.18) rotate(-90)">Days from last observed case</text>
     <text style="font-size: 16px; font-family: 'Arial', sans-serif" transform="translate(26.194687 374.39) rotate(-90)">until risk falls below threshold</text>
    </g>
   </g>
   <g id="LineCollection_1">
    <path clip-path="url(#pff78d02b0b)" style="fill: none; stroke: #f7fcf5; stroke-width: 2"/>
   </g>
   <g id="line2d_18">
    <defs>
     <path id="m2ad8a594b6" d="M 3 0 
L -3 -0 
" style="stroke: #f7fcf5"/>
    </defs>
    <g clip-path="url(#pff78d02b0b)"/>
   </g>
   <g id="line2d_19">
    <g clip-path="url(#pff78d02b0b)"/>
   </g>
   <g id="LineCollection_2">
    <path clip-path="url(#pff78d02b0b)" style="fill: none; stroke: #f7fcf5; stroke-width: 2"/>
   </g>
   <g id="line2d_20">
    <g clip-path="url(#pff78d02b0b)"/>
   </g>
   <g id="line2d_21">
    <g clip-path="url(#pff78d02b0b)"/>
   </g>
   <g id="LineCollection_3">
    <path clip-path="url(#pff78d02b0b)" style="fill: none; stroke: #f7fcf5; stroke-width: 2"/>
   </g>
   <g id="line2d_22">
    <g clip-path="url(#pff78d02b0b)"/>
   </g>
   <g id="line2d_23">
    <g clip-path="url(#pff78d02b0b)"/>
   </g>
   <g id="LineCollection_4">
    <path clip-path="url(#pff78d02b0b)" style="fill: none; stroke: #f7fcf5; stroke-width: 2"/>
   </g>
   <g id="line2d_24">
    <g clip-path="url(#pff78d02b0b)"/>
   </g>
   <g id="line2d_25">
    <g clip-path="url(#pff78d02b0b)"/>
   </g>
   <g id="LineCollection_5">
    <path clip-path="url(#pff78d02b0b)" style="fill: none; stroke: #f7fcf5; stroke-width: 2"/>
   </g>
   <g id="line2d_26">
    <g clip-path="url(#pff78d02b0b)"/>
   </g>
   <g id="line2d_27">
    <g clip-path="url(#pff78d02b0b)"/>
   </g>
   <g id="LineCollection_6">
    <path clip-path="url(#pff78d02b0b)" style="fill: none; stroke: #f7fcf5; stroke-width: 2"/>
   </g>
   <g id="line2d_28">
    <g clip-path="url(#pff78d02b0b)"/>
   </g>
   <g id="line2d_29">
    <g clip-path="url(#pff78d02b0b)"/>
   </g>
   <g id="LineCollection_7">
    <path clip-path="url(#pff78d02b0b)" style="fill: none; stroke: #f7fcf5; stroke-width: 2"/>
   </g>
   <g id="line2d_30">
    <g clip-path="url(#pff78d02b0b)"/>
   </g>
   <g id="line2d_31">
    <g clip-path="url(#pff78d02b0b)"/>
   </g>
   <g id="LineCollection_8">
    <path clip-path="url(#pff78d02b0b)" style="fill: none; stroke: #f7fcf5; stroke-width: 2"/>
   </g>
   <g id="line2d_32">
    <g clip-path="url(#pff78d02b0b)"/>
   </g>
   <g id="line2d_33">
    <g clip-path="url(#pff78d02b0b)"/>
   </g>
   <g id="LineCollection_9">
    <path clip-path="url(#pff78d02b0b)" style="fill: none; stroke: #f7fcf5; stroke-width: 2"/>
   </g>
   <g id="line2d_34">
    <g clip-path="url(#pff78d02b0b)"/>
   </g>
   <g id="line2d_35">
    <g clip-path="url(#pff78d02b0b)"/>
   </g>
   <g id="LineCollection_10">
    <path clip-path="url(#pff78d02b0b)" style="fill: none; stroke: #f7fcf5; stroke-width: 2"/>
   </g>
   <g id="line2d_36">
    <g clip-path="url(#pff78d02b0b)"/>
   </g>
   <g id="line2d_37">
    <g clip-path="url(#pff78d02b0b)"/>
   </g>
   <g id="LineCollection_11">
    <path clip-path="url(#pff78d02b0b)" style="fill: none; stroke: #f7fcf5; stroke-width: 2"/>
   </g>
   <g id="line2d_38">
    <g clip-path="url(#pff78d02b0b)"/>
   </g>
   <g id="line2d_39">
    <g clip-path="url(#pff78d02b0b)"/>
   </g>
   <g id="LineCollection_12">
    <path clip-path="url(#pff78d02b0b)" style="fill: none; stroke: #f7fcf5; stroke-width: 2"/>
   </g>
   <g id="line2d_40">
    <g clip-path="url(#pff78d02b0b)"/>
   </g>
   <g id="line2d_41">
    <g clip-path="url(#pff78d02b0b)"/>
   </g>
   <g id="LineCollection_13">
    <path clip-path="url(#pff78d02b0b)" style="fill: none; stroke: #f7fcf5; stroke-width: 2"/>
   </g>
   <g id="line2d_42">
    <g clip-path="url(#pff78d02b0b)"/>
   </g>
   <g id="line2d_43">
    <g clip-path="url(#pff78d02b0b)"/>
   </g>
   <g id="LineCollection_14">
    <path clip-path="url(#pff78d02b0b)" style="fill: none; stroke: #f7fcf5; stroke-width: 2"/>
   </g>
   <g id="line2d_44">
    <g clip-path="url(#pff78d02b0b)"/>
   </g>
   <g id="line2d_45">
    <g clip-path="url(#pff78d02b0b)"/>
   </g>
   <g id="LineCollection_15">
    <path clip-path="url(#pff78d02b0b)" style="fill: none; stroke: #f7fcf5; stroke-width: 2"/>
   </g>
   <g id="line2d_46">
    <g clip-path="url(#pff78d02b0b)"/>
   </g>
   <g id="line2d_47">
    <g clip-path="url(#pff78d02b0b)"/>
   </g>
   <g id="LineCollection_16">
    <path clip-path="url(#pff78d02b0b)" style="fill: none; stroke: #f7fcf5; stroke-width: 2"/>
   </g>
   <g id="line2d_48">
    <g clip-path="url(#pff78d02b0b)"/>
   </g>
   <g id="line2d_49">
    <g clip-path="url(#pff78d02b0b)"/>
   </g>
   <g id="LineCollection_17">
    <path clip-path="url(#pff78d02b0b)" style="fill: none; stroke: #f7fcf5; stroke-width: 2"/>
   </g>
   <g id="line2d_50">
    <g clip-path="url(#pff78d02b0b)"/>
   </g>
   <g id="line2d_51">
    <g clip-path="url(#pff78d02b0b)"/>
   </g>
   <g id="LineCollection_18">
    <path clip-path="url(#pff78d02b0b)" style="fill: none; stroke: #f7fcf5; stroke-width: 2"/>
   </g>
   <g id="line2d_52">
    <g clip-path="url(#pff78d02b0b)"/>
   </g>
   <g id="line2d_53">
    <g clip-path="url(#pff78d02b0b)"/>
   </g>
   <g id="LineCollection_19">
    <path clip-path="url(#pff78d02b0b)" style="fill: none; stroke: #f7fcf5; stroke-width: 2"/>
   </g>
   <g id="line2d_54">
    <g clip-path="url(#pff78d02b0b)"/>
   </g>
   <g id="line2d_55">
    <g clip-path="url(#pff78d02b0b)"/>
   </g>
   <g id="LineCollection_20">
    <path clip-path="url(#pff78d02b0b)" style="fill: none; stroke: #f7fcf5; stroke-width: 2"/>
   </g>
   <g id="line2d_56">
    <g clip-path="url(#pff78d02b0b)"/>
   </g>
   <g id="line2d_57">
    <g clip-path="url(#pff78d02b0b)"/>
   </g>
   <g id="LineCollection_21">
    <path d="M 138.989455 160.629677 
L 138.989455 160.629677 
" clip-path="url(#pff78d02b0b)" style="fill: none; stroke: #f7fcf5; stroke-width: 2"/>
   </g>
   <g id="line2d_58">
    <g clip-path="url(#pff78d02b0b)">
     <use xlink:href="#m2ad8a594b6" x="138.989455" y="160.629677" style="fill: #f7fcf5; stroke: #f7fcf5"/>
    </g>
   </g>
   <g id="line2d_59">
    <g clip-path="url(#pff78d02b0b)">
     <use xlink:href="#m2ad8a594b6" x="138.989455" y="160.629677" style="fill: #f7fcf5; stroke: #f7fcf5"/>
    </g>
   </g>
   <g id="LineCollection_22">
    <path d="M 148.932 153.744387 
L 148.932 129.958839 
" clip-path="url(#pff78d02b0b)" style="fill: none; stroke: #f4fbf2; stroke-width: 2"/>
   </g>
   <g id="line2d_60">
    <defs>
     <path id="ma611fe169b" d="M 3 0 
L -3 -0 
" style="stroke: #f4fbf2"/>
    </defs>
    <g clip-path="url(#pff78d02b0b)">
     <use xlink:href="#ma611fe169b" x="148.932" y="153.744387" style="fill: #f4fbf2; stroke: #f4fbf2"/>
    </g>
   </g>
   <g id="line2d_61">
    <g clip-path="url(#pff78d02b0b)">
     <use xlink:href="#ma611fe169b" x="148.932" y="129.958839" style="fill: #f4fbf2; stroke: #f4fbf2"/>
    </g>
   </g>
   <g id="LineCollection_23">
    <path d="M 158.874545 123.073548 
L 158.874545 110.554839 
" clip-path="url(#pff78d02b0b)" style="fill: none; stroke: #e5f5e0; stroke-width: 2"/>
   </g>
   <g id="line2d_62">
    <defs>
     <path id="m4d8efe22ad" d="M 3 0 
L -3 -0 
" style="stroke: #e5f5e0"/>
    </defs>
    <g clip-path="url(#pff78d02b0b)">
     <use xlink:href="#m4d8efe22ad" x="158.874545" y="123.073548" style="fill: #e5f5e0; stroke: #e5f5e0"/>
    </g>
   </g>
   <g id="line2d_63">
    <g clip-path="url(#pff78d02b0b)">
     <use xlink:href="#m4d8efe22ad" x="158.874545" y="110.554839" style="fill: #e5f5e0; stroke: #e5f5e0"/>
    </g>
   </g>
   <g id="LineCollection_24">
    <path d="M 168.817091 110.554839 
L 168.817091 110.554839 
" clip-path="url(#pff78d02b0b)" style="fill: none; stroke: #79c67a; stroke-width: 2"/>
   </g>
   <g id="line2d_64">
    <defs>
     <path id="m6127729387" d="M 3 0 
L -3 -0 
" style="stroke: #79c67a"/>
    </defs>
    <g clip-path="url(#pff78d02b0b)">
     <use xlink:href="#m6127729387" x="168.817091" y="110.554839" style="fill: #79c67a; stroke: #79c67a"/>
    </g>
   </g>
   <g id="line2d_65">
    <g clip-path="url(#pff78d02b0b)">
     <use xlink:href="#m6127729387" x="168.817091" y="110.554839" style="fill: #79c67a; stroke: #79c67a"/>
    </g>
   </g>
   <g id="LineCollection_25">
    <path d="M 178.759636 110.554839 
L 178.759636 110.554839 
" clip-path="url(#pff78d02b0b)" style="fill: none; stroke: #349d53; stroke-width: 2"/>
   </g>
   <g id="line2d_66">
    <defs>
     <path id="mfe8f29c9e9" d="M 3 0 
L -3 -0 
" style="stroke: #349d53"/>
    </defs>
    <g clip-path="url(#pff78d02b0b)">
     <use xlink:href="#mfe8f29c9e9" x="178.759636" y="110.554839" style="fill: #349d53; stroke: #349d53"/>
    </g>
   </g>
   <g id="line2d_67">
    <g clip-path="url(#pff78d02b0b)">
     <use xlink:href="#mfe8f29c9e9" x="178.759636" y="110.554839" style="fill: #349d53; stroke: #349d53"/>
    </g>
   </g>
   <g id="LineCollection_26">
    <path d="M 188.702182 110.554839 
L 188.702182 98.036129 
" clip-path="url(#pff78d02b0b)" style="fill: none; stroke: #1f8742; stroke-width: 2"/>
   </g>
   <g id="line2d_68">
    <defs>
     <path id="mc3fcec5a60" d="M 3 0 
L -3 -0 
" style="stroke: #1f8742"/>
    </defs>
    <g clip-path="url(#pff78d02b0b)">
     <use xlink:href="#mc3fcec5a60" x="188.702182" y="110.554839" style="fill: #1f8742; stroke: #1f8742"/>
    </g>
   </g>
   <g id="line2d_69">
    <g clip-path="url(#pff78d02b0b)">
     <use xlink:href="#mc3fcec5a60" x="188.702182" y="98.036129" style="fill: #1f8742; stroke: #1f8742"/>
    </g>
   </g>
   <g id="LineCollection_27">
    <path d="M 198.644727 110.554839 
L 198.644727 98.036129 
" clip-path="url(#pff78d02b0b)" style="fill: none; stroke: #218944; stroke-width: 2"/>
   </g>
   <g id="line2d_70">
    <defs>
     <path id="m1491fa69ad" d="M 3 0 
L -3 -0 
" style="stroke: #218944"/>
    </defs>
    <g clip-path="url(#pff78d02b0b)">
     <use xlink:href="#m1491fa69ad" x="198.644727" y="110.554839" style="fill: #218944; stroke: #218944"/>
    </g>
   </g>
   <g id="line2d_71">
    <g clip-path="url(#pff78d02b0b)">
     <use xlink:href="#m1491fa69ad" x="198.644727" y="98.036129" style="fill: #218944; stroke: #218944"/>
    </g>
   </g>
   <g id="LineCollection_28">
    <path d="M 208.587273 110.554839 
L 208.587273 98.036129 
" clip-path="url(#pff78d02b0b)" style="fill: none; stroke: #29914a; stroke-width: 2"/>
   </g>
   <g id="line2d_72">
    <defs>
     <path id="m75eb93bebf" d="M 3 0 
L -3 -0 
" style="stroke: #29914a"/>
    </defs>
    <g clip-path="url(#pff78d02b0b)">
     <use xlink:href="#m75eb93bebf" x="208.587273" y="110.554839" style="fill: #29914a; stroke: #29914a"/>
    </g>
   </g>
   <g id="line2d_73">
    <g clip-path="url(#pff78d02b0b)">
     <use xlink:href="#m75eb93bebf" x="208.587273" y="98.036129" style="fill: #29914a; stroke: #29914a"/>
    </g>
   </g>
   <g id="LineCollection_29">
    <path d="M 218.529818 110.554839 
L 218.529818 98.036129 
" clip-path="url(#pff78d02b0b)" style="fill: none; stroke: #208843; stroke-width: 2"/>
   </g>
   <g id="line2d_74">
    <defs>
     <path id="m7f52069392" d="M 3 0 
L -3 -0 
" style="stroke: #208843"/>
    </defs>
    <g clip-path="url(#pff78d02b0b)">
     <use xlink:href="#m7f52069392" x="218.529818" y="110.554839" style="fill: #208843; stroke: #208843"/>
    </g>
   </g>
   <g id="line2d_75">
    <g clip-path="url(#pff78d02b0b)">
     <use xlink:href="#m7f52069392" x="218.529818" y="98.036129" style="fill: #208843; stroke: #208843"/>
    </g>
   </g>
   <g id="LineCollection_30">
    <path d="M 228.472364 110.554839 
L 228.472364 98.036129 
" clip-path="url(#pff78d02b0b)" style="fill: none; stroke: #1e8741; stroke-width: 2"/>
   </g>
   <g id="line2d_76">
    <defs>
     <path id="m68c82ddb9d" d="M 3 0 
L -3 -0 
" style="stroke: #1e8741"/>
    </defs>
    <g clip-path="url(#pff78d02b0b)">
     <use xlink:href="#m68c82ddb9d" x="228.472364" y="110.554839" style="fill: #1e8741; stroke: #1e8741"/>
    </g>
   </g>
   <g id="line2d_77">
    <g clip-path="url(#pff78d02b0b)">
     <use xlink:href="#m68c82ddb9d" x="228.472364" y="98.036129" style="fill: #1e8741; stroke: #1e8741"/>
    </g>
   </g>
   <g id="LineCollection_31">
    <path d="M 238.414909 110.554839 
L 238.414909 98.036129 
" clip-path="url(#pff78d02b0b)" style="fill: none; stroke: #258d47; stroke-width: 2"/>
   </g>
   <g id="line2d_78">
    <defs>
     <path id="m3e920f8007" d="M 3 0 
L -3 -0 
" style="stroke: #258d47"/>
    </defs>
    <g clip-path="url(#pff78d02b0b)">
     <use xlink:href="#m3e920f8007" x="238.414909" y="110.554839" style="fill: #258d47; stroke: #258d47"/>
    </g>
   </g>
   <g id="line2d_79">
    <g clip-path="url(#pff78d02b0b)">
     <use xlink:href="#m3e920f8007" x="238.414909" y="98.036129" style="fill: #258d47; stroke: #258d47"/>
    </g>
   </g>
   <g id="LineCollection_32">
    <path d="M 248.357455 123.073548 
L 248.357455 98.036129 
" clip-path="url(#pff78d02b0b)" style="fill: none; stroke: #2f974e; stroke-width: 2"/>
   </g>
   <g id="line2d_80">
    <defs>
     <path id="mdcc4c1da80" d="M 3 0 
L -3 -0 
" style="stroke: #2f974e"/>
    </defs>
    <g clip-path="url(#pff78d02b0b)">
     <use xlink:href="#mdcc4c1da80" x="248.357455" y="123.073548" style="fill: #2f974e; stroke: #2f974e"/>
    </g>
   </g>
   <g id="line2d_81">
    <g clip-path="url(#pff78d02b0b)">
     <use xlink:href="#mdcc4c1da80" x="248.357455" y="98.036129" style="fill: #2f974e; stroke: #2f974e"/>
    </g>
   </g>
   <g id="LineCollection_33">
    <path d="M 258.3 135.592258 
L 258.3 110.554839 
" clip-path="url(#pff78d02b0b)" style="fill: none; stroke: #29914a; stroke-width: 2"/>
   </g>
   <g id="line2d_82">
    <g clip-path="url(#pff78d02b0b)">
     <use xlink:href="#m75eb93bebf" x="258.3" y="135.592258" style="fill: #29914a; stroke: #29914a"/>
    </g>
   </g>
   <g id="line2d_83">
    <g clip-path="url(#pff78d02b0b)">
     <use xlink:href="#m75eb93bebf" x="258.3" y="110.554839" style="fill: #29914a; stroke: #29914a"/>
    </g>
   </g>
   <g id="LineCollection_34">
    <path d="M 268.242545 148.110968 
L 268.242545 123.073548 
" clip-path="url(#pff78d02b0b)" style="fill: none; stroke: #00441b; stroke-width: 2"/>
   </g>
   <g id="line2d_84">
    <defs>
     <path id="m2d21870d92" d="M 3 0 
L -3 -0 
" style="stroke: #00441b"/>
    </defs>
    <g clip-path="url(#pff78d02b0b)">
     <use xlink:href="#m2d21870d92" x="268.242545" y="148.110968" style="fill: #00441b; stroke: #00441b"/>
    </g>
   </g>
   <g id="line2d_85">
    <g clip-path="url(#pff78d02b0b)">
     <use xlink:href="#m2d21870d92" x="268.242545" y="123.073548" style="fill: #00441b; stroke: #00441b"/>
    </g>
   </g>
   <g id="LineCollection_35">
    <path d="M 278.185091 173.148387 
L 278.185091 148.110968 
" clip-path="url(#pff78d02b0b)" style="fill: none; stroke: #00441b; stroke-width: 2"/>
   </g>
   <g id="line2d_86">
    <g clip-path="url(#pff78d02b0b)">
     <use xlink:href="#m2d21870d92" x="278.185091" y="173.148387" style="fill: #00441b; stroke: #00441b"/>
    </g>
   </g>
   <g id="line2d_87">
    <g clip-path="url(#pff78d02b0b)">
     <use xlink:href="#m2d21870d92" x="278.185091" y="148.110968" style="fill: #00441b; stroke: #00441b"/>
    </g>
   </g>
   <g id="LineCollection_36">
    <path d="M 288.127636 210.704516 
L 288.127636 173.148387 
" clip-path="url(#pff78d02b0b)" style="fill: none; stroke: #00441b; stroke-width: 2"/>
   </g>
   <g id="line2d_88">
    <g clip-path="url(#pff78d02b0b)">
     <use xlink:href="#m2d21870d92" x="288.127636" y="210.704516" style="fill: #00441b; stroke: #00441b"/>
    </g>
   </g>
   <g id="line2d_89">
    <g clip-path="url(#pff78d02b0b)">
     <use xlink:href="#m2d21870d92" x="288.127636" y="173.148387" style="fill: #00441b; stroke: #00441b"/>
    </g>
   </g>
   <g id="LineCollection_37">
    <path d="M 298.070182 248.260645 
L 298.070182 198.185806 
" clip-path="url(#pff78d02b0b)" style="fill: none; stroke: #00441b; stroke-width: 2"/>
   </g>
   <g id="line2d_90">
    <g clip-path="url(#pff78d02b0b)">
     <use xlink:href="#m2d21870d92" x="298.070182" y="248.260645" style="fill: #00441b; stroke: #00441b"/>
    </g>
   </g>
   <g id="line2d_91">
    <g clip-path="url(#pff78d02b0b)">
     <use xlink:href="#m2d21870d92" x="298.070182" y="198.185806" style="fill: #00441b; stroke: #00441b"/>
    </g>
   </g>
   <g id="LineCollection_38">
    <path d="M 308.012727 310.854194 
L 308.012727 235.741935 
" clip-path="url(#pff78d02b0b)" style="fill: none; stroke: #00441b; stroke-width: 2"/>
   </g>
   <g id="line2d_92">
    <g clip-path="url(#pff78d02b0b)">
     <use xlink:href="#m2d21870d92" x="308.012727" y="310.854194" style="fill: #00441b; stroke: #00441b"/>
    </g>
   </g>
   <g id="line2d_93">
    <g clip-path="url(#pff78d02b0b)">
     <use xlink:href="#m2d21870d92" x="308.012727" y="235.741935" style="fill: #00441b; stroke: #00441b"/>
    </g>
   </g>
   <g id="LineCollection_39">
    <path d="M 317.955273 385.966452 
L 317.955273 273.298065 
" clip-path="url(#pff78d02b0b)" style="fill: none; stroke: #00441b; stroke-width: 2"/>
   </g>
   <g id="line2d_94">
    <g clip-path="url(#pff78d02b0b)">
     <use xlink:href="#m2d21870d92" x="317.955273" y="385.966452" style="fill: #00441b; stroke: #00441b"/>
    </g>
   </g>
   <g id="line2d_95">
    <g clip-path="url(#pff78d02b0b)">
     <use xlink:href="#m2d21870d92" x="317.955273" y="273.298065" style="fill: #00441b; stroke: #00441b"/>
    </g>
   </g>
   <g id="LineCollection_40">
    <path d="M 327.897818 436.04129 
L 327.897818 323.372903 
" clip-path="url(#pff78d02b0b)" style="fill: none; stroke: #00441b; stroke-width: 2"/>
   </g>
   <g id="line2d_96">
    <g clip-path="url(#pff78d02b0b)">
     <use xlink:href="#m2d21870d92" x="327.897818" y="436.04129" style="fill: #00441b; stroke: #00441b"/>
    </g>
   </g>
   <g id="line2d_97">
    <g clip-path="url(#pff78d02b0b)">
     <use xlink:href="#m2d21870d92" x="327.897818" y="323.372903" style="fill: #00441b; stroke: #00441b"/>
    </g>
   </g>
   <g id="LineCollection_41">
    <path d="M 337.840364 436.04129 
L 337.840364 411.003871 
" clip-path="url(#pff78d02b0b)" style="fill: none; stroke: #58b668; stroke-width: 2"/>
   </g>
   <g id="line2d_98">
    <defs>
     <path id="m3f825566db" d="M 3 0 
L -3 -0 
" style="stroke: #58b668"/>
    </defs>
    <g clip-path="url(#pff78d02b0b)">
     <use xlink:href="#m3f825566db" x="337.840364" y="436.04129" style="fill: #58b668; stroke: #58b668"/>
    </g>
   </g>
   <g id="line2d_99">
    <g clip-path="url(#pff78d02b0b)">
     <use xlink:href="#m3f825566db" x="337.840364" y="411.003871" style="fill: #58b668; stroke: #58b668"/>
    </g>
   </g>
   <g id="LineCollection_42">
    <path d="M 347.782909 436.04129 
L 347.782909 436.04129 
" clip-path="url(#pff78d02b0b)" style="fill: none; stroke: #f6fcf4; stroke-width: 2"/>
   </g>
   <g id="line2d_100">
    <defs>
     <path id="mcf0be89761" d="M 3 0 
L -3 -0 
" style="stroke: #f6fcf4"/>
    </defs>
    <g clip-path="url(#pff78d02b0b)">
     <use xlink:href="#mcf0be89761" x="347.782909" y="436.04129" style="fill: #f6fcf4; stroke: #f6fcf4"/>
    </g>
   </g>
   <g id="line2d_101">
    <g clip-path="url(#pff78d02b0b)">
     <use xlink:href="#mcf0be89761" x="347.782909" y="436.04129" style="fill: #f6fcf4; stroke: #f6fcf4"/>
    </g>
   </g>
   <g id="LineCollection_43">
    <path clip-path="url(#pff78d02b0b)" style="fill: none; stroke: #f7fcf5; stroke-width: 2"/>
   </g>
   <g id="line2d_102">
    <g clip-path="url(#pff78d02b0b)"/>
   </g>
   <g id="line2d_103">
    <g clip-path="url(#pff78d02b0b)"/>
   </g>
   <g id="LineCollection_44">
    <path clip-path="url(#pff78d02b0b)" style="fill: none; stroke: #f7fcf5; stroke-width: 2"/>
   </g>
   <g id="line2d_104">
    <g clip-path="url(#pff78d02b0b)"/>
   </g>
   <g id="line2d_105">
    <g clip-path="url(#pff78d02b0b)"/>
   </g>
   <g id="LineCollection_45">
    <path clip-path="url(#pff78d02b0b)" style="fill: none; stroke: #f7fcf5; stroke-width: 2"/>
   </g>
   <g id="line2d_106">
    <g clip-path="url(#pff78d02b0b)"/>
   </g>
   <g id="line2d_107">
    <g clip-path="url(#pff78d02b0b)"/>
   </g>
   <g id="LineCollection_46">
    <path clip-path="url(#pff78d02b0b)" style="fill: none; stroke: #f7fcf5; stroke-width: 2"/>
   </g>
   <g id="line2d_108">
    <g clip-path="url(#pff78d02b0b)"/>
   </g>
   <g id="line2d_109">
    <g clip-path="url(#pff78d02b0b)"/>
   </g>
   <g id="LineCollection_47">
    <path clip-path="url(#pff78d02b0b)" style="fill: none; stroke: #f7fcf5; stroke-width: 2"/>
   </g>
   <g id="line2d_110">
    <g clip-path="url(#pff78d02b0b)"/>
   </g>
   <g id="line2d_111">
    <g clip-path="url(#pff78d02b0b)"/>
   </g>
   <g id="LineCollection_48">
    <path clip-path="url(#pff78d02b0b)" style="fill: none; stroke: #f7fcf5; stroke-width: 2"/>
   </g>
   <g id="line2d_112">
    <g clip-path="url(#pff78d02b0b)"/>
   </g>
   <g id="line2d_113">
    <g clip-path="url(#pff78d02b0b)"/>
   </g>
   <g id="LineCollection_49">
    <path clip-path="url(#pff78d02b0b)" style="fill: none; stroke: #f7fcf5; stroke-width: 2"/>
   </g>
   <g id="line2d_114">
    <g clip-path="url(#pff78d02b0b)"/>
   </g>
   <g id="line2d_115">
    <g clip-path="url(#pff78d02b0b)"/>
   </g>
   <g id="LineCollection_50">
    <path clip-path="url(#pff78d02b0b)" style="fill: none; stroke: #f7fcf5; stroke-width: 2"/>
   </g>
   <g id="line2d_116">
    <g clip-path="url(#pff78d02b0b)"/>
   </g>
   <g id="line2d_117">
    <g clip-path="url(#pff78d02b0b)"/>
   </g>
   <g id="LineCollection_51">
    <path clip-path="url(#pff78d02b0b)" style="fill: none; stroke: #f7fcf5; stroke-width: 2"/>
   </g>
   <g id="line2d_118">
    <g clip-path="url(#pff78d02b0b)"/>
   </g>
   <g id="line2d_119">
    <g clip-path="url(#pff78d02b0b)"/>
   </g>
   <g id="LineCollection_52">
    <path clip-path="url(#pff78d02b0b)" style="fill: none; stroke: #f7fcf5; stroke-width: 2"/>
   </g>
   <g id="line2d_120">
    <g clip-path="url(#pff78d02b0b)"/>
   </g>
   <g id="line2d_121">
    <g clip-path="url(#pff78d02b0b)"/>
   </g>
   <g id="line2d_122">
    <defs>
     <path id="m4b9e506b1f" d="M 0 4 
C 1.060812 4 2.078319 3.578535 2.828427 2.828427 
C 3.578535 2.078319 4 1.060812 4 0 
C 4 -1.060812 3.578535 -2.078319 2.828427 -2.828427 
C 2.078319 -3.578535 1.060812 -4 0 -4 
C -1.060812 -4 -2.078319 -3.578535 -2.828427 -2.828427 
C -3.578535 -2.078319 -4 -1.060812 -4 0 
C -4 1.060812 -3.578535 2.078319 -2.828427 2.828427 
C -2.078319 3.578535 -1.060812 4 0 4 
z
" style="stroke: #f7fcf5"/>
    </defs>
    <g clip-path="url(#pff78d02b0b)"/>
   </g>
   <g id="line2d_123">
    <g clip-path="url(#pff78d02b0b)"/>
   </g>
   <g id="line2d_124">
    <g clip-path="url(#pff78d02b0b)"/>
   </g>
   <g id="line2d_125">
    <g clip-path="url(#pff78d02b0b)"/>
   </g>
   <g id="line2d_126">
    <g clip-path="url(#pff78d02b0b)"/>
   </g>
   <g id="line2d_127">
    <g clip-path="url(#pff78d02b0b)"/>
   </g>
   <g id="line2d_128">
    <g clip-path="url(#pff78d02b0b)"/>
   </g>
   <g id="line2d_129">
    <g clip-path="url(#pff78d02b0b)"/>
   </g>
   <g id="line2d_130">
    <g clip-path="url(#pff78d02b0b)"/>
   </g>
   <g id="line2d_131">
    <g clip-path="url(#pff78d02b0b)"/>
   </g>
   <g id="line2d_132">
    <g clip-path="url(#pff78d02b0b)"/>
   </g>
   <g id="line2d_133">
    <g clip-path="url(#pff78d02b0b)"/>
   </g>
   <g id="line2d_134">
    <g clip-path="url(#pff78d02b0b)"/>
   </g>
   <g id="line2d_135">
    <g clip-path="url(#pff78d02b0b)"/>
   </g>
   <g id="line2d_136">
    <g clip-path="url(#pff78d02b0b)"/>
   </g>
   <g id="line2d_137">
    <g clip-path="url(#pff78d02b0b)"/>
   </g>
   <g id="line2d_138">
    <g clip-path="url(#pff78d02b0b)"/>
   </g>
   <g id="line2d_139">
    <g clip-path="url(#pff78d02b0b)"/>
   </g>
   <g id="line2d_140">
    <g clip-path="url(#pff78d02b0b)"/>
   </g>
   <g id="line2d_141">
    <g clip-path="url(#pff78d02b0b)"/>
   </g>
   <g id="line2d_142">
    <g clip-path="url(#pff78d02b0b)">
     <use xlink:href="#m4b9e506b1f" x="138.989455" y="160.629677" style="fill: #f7fcf5; stroke: #f7fcf5"/>
    </g>
   </g>
   <g id="line2d_143">
    <defs>
     <path id="mefc28b8b3b" d="M 0 4 
C 1.060812 4 2.078319 3.578535 2.828427 2.828427 
C 3.578535 2.078319 4 1.060812 4 0 
C 4 -1.060812 3.578535 -2.078319 2.828427 -2.828427 
C 2.078319 -3.578535 1.060812 -4 0 -4 
C -1.060812 -4 -2.078319 -3.578535 -2.828427 -2.828427 
C -3.578535 -2.078319 -4 -1.060812 -4 0 
C -4 1.060812 -3.578535 2.078319 -2.828427 2.828427 
C -2.078319 3.578535 -1.060812 4 0 4 
z
" style="stroke: #f4fbf2"/>
    </defs>
    <g clip-path="url(#pff78d02b0b)">
     <use xlink:href="#mefc28b8b3b" x="148.932" y="135.592258" style="fill: #f4fbf2; stroke: #f4fbf2"/>
    </g>
   </g>
   <g id="line2d_144">
    <defs>
     <path id="mb294e86503" d="M 0 4 
C 1.060812 4 2.078319 3.578535 2.828427 2.828427 
C 3.578535 2.078319 4 1.060812 4 0 
C 4 -1.060812 3.578535 -2.078319 2.828427 -2.828427 
C 2.078319 -3.578535 1.060812 -4 0 -4 
C -1.060812 -4 -2.078319 -3.578535 -2.828427 -2.828427 
C -3.578535 -2.078319 -4 -1.060812 -4 0 
C -4 1.060812 -3.578535 2.078319 -2.828427 2.828427 
C -2.078319 3.578535 -1.060812 4 0 4 
z
" style="stroke: #e5f5e0"/>
    </defs>
    <g clip-path="url(#pff78d02b0b)">
     <use xlink:href="#mb294e86503" x="158.874545" y="123.073548" style="fill: #e5f5e0; stroke: #e5f5e0"/>
    </g>
   </g>
   <g id="line2d_145">
    <defs>
     <path id="m6739664757" d="M 0 4 
C 1.060812 4 2.078319 3.578535 2.828427 2.828427 
C 3.578535 2.078319 4 1.060812 4 0 
C 4 -1.060812 3.578535 -2.078319 2.828427 -2.828427 
C 2.078319 -3.578535 1.060812 -4 0 -4 
C -1.060812 -4 -2.078319 -3.578535 -2.828427 -2.828427 
C -3.578535 -2.078319 -4 -1.060812 -4 0 
C -4 1.060812 -3.578535 2.078319 -2.828427 2.828427 
C -2.078319 3.578535 -1.060812 4 0 4 
z
" style="stroke: #79c67a"/>
    </defs>
    <g clip-path="url(#pff78d02b0b)">
     <use xlink:href="#m6739664757" x="168.817091" y="110.554839" style="fill: #79c67a; stroke: #79c67a"/>
    </g>
   </g>
   <g id="line2d_146">
    <defs>
     <path id="m14b1f3d847" d="M 0 4 
C 1.060812 4 2.078319 3.578535 2.828427 2.828427 
C 3.578535 2.078319 4 1.060812 4 0 
C 4 -1.060812 3.578535 -2.078319 2.828427 -2.828427 
C 2.078319 -3.578535 1.060812 -4 0 -4 
C -1.060812 -4 -2.078319 -3.578535 -2.828427 -2.828427 
C -3.578535 -2.078319 -4 -1.060812 -4 0 
C -4 1.060812 -3.578535 2.078319 -2.828427 2.828427 
C -2.078319 3.578535 -1.060812 4 0 4 
z
" style="stroke: #349d53"/>
    </defs>
    <g clip-path="url(#pff78d02b0b)">
     <use xlink:href="#m14b1f3d847" x="178.759636" y="110.554839" style="fill: #349d53; stroke: #349d53"/>
    </g>
   </g>
   <g id="line2d_147">
    <defs>
     <path id="maf75941d29" d="M 0 4 
C 1.060812 4 2.078319 3.578535 2.828427 2.828427 
C 3.578535 2.078319 4 1.060812 4 0 
C 4 -1.060812 3.578535 -2.078319 2.828427 -2.828427 
C 2.078319 -3.578535 1.060812 -4 0 -4 
C -1.060812 -4 -2.078319 -3.578535 -2.828427 -2.828427 
C -3.578535 -2.078319 -4 -1.060812 -4 0 
C -4 1.060812 -3.578535 2.078319 -2.828427 2.828427 
C -2.078319 3.578535 -1.060812 4 0 4 
z
" style="stroke: #1f8742"/>
    </defs>
    <g clip-path="url(#pff78d02b0b)">
     <use xlink:href="#maf75941d29" x="188.702182" y="110.554839" style="fill: #1f8742; stroke: #1f8742"/>
    </g>
   </g>
   <g id="line2d_148">
    <defs>
     <path id="mcadd54e0f0" d="M 0 4 
C 1.060812 4 2.078319 3.578535 2.828427 2.828427 
C 3.578535 2.078319 4 1.060812 4 0 
C 4 -1.060812 3.578535 -2.078319 2.828427 -2.828427 
C 2.078319 -3.578535 1.060812 -4 0 -4 
C -1.060812 -4 -2.078319 -3.578535 -2.828427 -2.828427 
C -3.578535 -2.078319 -4 -1.060812 -4 0 
C -4 1.060812 -3.578535 2.078319 -2.828427 2.828427 
C -2.078319 3.578535 -1.060812 4 0 4 
z
" style="stroke: #218944"/>
    </defs>
    <g clip-path="url(#pff78d02b0b)">
     <use xlink:href="#mcadd54e0f0" x="198.644727" y="110.554839" style="fill: #218944; stroke: #218944"/>
    </g>
   </g>
   <g id="line2d_149">
    <defs>
     <path id="m92f321d8d5" d="M 0 4 
C 1.060812 4 2.078319 3.578535 2.828427 2.828427 
C 3.578535 2.078319 4 1.060812 4 0 
C 4 -1.060812 3.578535 -2.078319 2.828427 -2.828427 
C 2.078319 -3.578535 1.060812 -4 0 -4 
C -1.060812 -4 -2.078319 -3.578535 -2.828427 -2.828427 
C -3.578535 -2.078319 -4 -1.060812 -4 0 
C -4 1.060812 -3.578535 2.078319 -2.828427 2.828427 
C -2.078319 3.578535 -1.060812 4 0 4 
z
" style="stroke: #29914a"/>
    </defs>
    <g clip-path="url(#pff78d02b0b)">
     <use xlink:href="#m92f321d8d5" x="208.587273" y="110.554839" style="fill: #29914a; stroke: #29914a"/>
    </g>
   </g>
   <g id="line2d_150">
    <defs>
     <path id="m9578c7ae82" d="M 0 4 
C 1.060812 4 2.078319 3.578535 2.828427 2.828427 
C 3.578535 2.078319 4 1.060812 4 0 
C 4 -1.060812 3.578535 -2.078319 2.828427 -2.828427 
C 2.078319 -3.578535 1.060812 -4 0 -4 
C -1.060812 -4 -2.078319 -3.578535 -2.828427 -2.828427 
C -3.578535 -2.078319 -4 -1.060812 -4 0 
C -4 1.060812 -3.578535 2.078319 -2.828427 2.828427 
C -2.078319 3.578535 -1.060812 4 0 4 
z
" style="stroke: #208843"/>
    </defs>
    <g clip-path="url(#pff78d02b0b)">
     <use xlink:href="#m9578c7ae82" x="218.529818" y="110.554839" style="fill: #208843; stroke: #208843"/>
    </g>
   </g>
   <g id="line2d_151">
    <defs>
     <path id="mbacb2472e3" d="M 0 4 
C 1.060812 4 2.078319 3.578535 2.828427 2.828427 
C 3.578535 2.078319 4 1.060812 4 0 
C 4 -1.060812 3.578535 -2.078319 2.828427 -2.828427 
C 2.078319 -3.578535 1.060812 -4 0 -4 
C -1.060812 -4 -2.078319 -3.578535 -2.828427 -2.828427 
C -3.578535 -2.078319 -4 -1.060812 -4 0 
C -4 1.060812 -3.578535 2.078319 -2.828427 2.828427 
C -2.078319 3.578535 -1.060812 4 0 4 
z
" style="stroke: #1e8741"/>
    </defs>
    <g clip-path="url(#pff78d02b0b)">
     <use xlink:href="#mbacb2472e3" x="228.472364" y="110.554839" style="fill: #1e8741; stroke: #1e8741"/>
    </g>
   </g>
   <g id="line2d_152">
    <defs>
     <path id="ma18af27f1e" d="M 0 4 
C 1.060812 4 2.078319 3.578535 2.828427 2.828427 
C 3.578535 2.078319 4 1.060812 4 0 
C 4 -1.060812 3.578535 -2.078319 2.828427 -2.828427 
C 2.078319 -3.578535 1.060812 -4 0 -4 
C -1.060812 -4 -2.078319 -3.578535 -2.828427 -2.828427 
C -3.578535 -2.078319 -4 -1.060812 -4 0 
C -4 1.060812 -3.578535 2.078319 -2.828427 2.828427 
C -2.078319 3.578535 -1.060812 4 0 4 
z
" style="stroke: #258d47"/>
    </defs>
    <g clip-path="url(#pff78d02b0b)">
     <use xlink:href="#ma18af27f1e" x="238.414909" y="110.554839" style="fill: #258d47; stroke: #258d47"/>
    </g>
   </g>
   <g id="line2d_153">
    <defs>
     <path id="m349d8f9287" d="M 0 4 
C 1.060812 4 2.078319 3.578535 2.828427 2.828427 
C 3.578535 2.078319 4 1.060812 4 0 
C 4 -1.060812 3.578535 -2.078319 2.828427 -2.828427 
C 2.078319 -3.578535 1.060812 -4 0 -4 
C -1.060812 -4 -2.078319 -3.578535 -2.828427 -2.828427 
C -3.578535 -2.078319 -4 -1.060812 -4 0 
C -4 1.060812 -3.578535 2.078319 -2.828427 2.828427 
C -2.078319 3.578535 -1.060812 4 0 4 
z
" style="stroke: #2f974e"/>
    </defs>
    <g clip-path="url(#pff78d02b0b)">
     <use xlink:href="#m349d8f9287" x="248.357455" y="110.554839" style="fill: #2f974e; stroke: #2f974e"/>
    </g>
   </g>
   <g id="line2d_154">
    <g clip-path="url(#pff78d02b0b)">
     <use xlink:href="#m92f321d8d5" x="258.3" y="123.073548" style="fill: #29914a; stroke: #29914a"/>
    </g>
   </g>
   <g id="line2d_155">
    <defs>
     <path id="m487e5953bb" d="M 0 4 
C 1.060812 4 2.078319 3.578535 2.828427 2.828427 
C 3.578535 2.078319 4 1.060812 4 0 
C 4 -1.060812 3.578535 -2.078319 2.828427 -2.828427 
C 2.078319 -3.578535 1.060812 -4 0 -4 
C -1.060812 -4 -2.078319 -3.578535 -2.828427 -2.828427 
C -3.578535 -2.078319 -4 -1.060812 -4 0 
C -4 1.060812 -3.578535 2.078319 -2.828427 2.828427 
C -2.078319 3.578535 -1.060812 4 0 4 
z
" style="stroke: #00441b"/>
    </defs>
    <g clip-path="url(#pff78d02b0b)">
     <use xlink:href="#m487e5953bb" x="268.242545" y="148.110968" style="fill: #00441b; stroke: #00441b"/>
    </g>
   </g>
   <g id="line2d_156">
    <g clip-path="url(#pff78d02b0b)">
     <use xlink:href="#m487e5953bb" x="278.185091" y="160.629677" style="fill: #00441b; stroke: #00441b"/>
    </g>
   </g>
   <g id="line2d_157">
    <g clip-path="url(#pff78d02b0b)">
     <use xlink:href="#m487e5953bb" x="288.127636" y="198.185806" style="fill: #00441b; stroke: #00441b"/>
    </g>
   </g>
   <g id="line2d_158">
    <g clip-path="url(#pff78d02b0b)">
     <use xlink:href="#m487e5953bb" x="298.070182" y="223.223226" style="fill: #00441b; stroke: #00441b"/>
    </g>
   </g>
   <g id="line2d_159">
    <g clip-path="url(#pff78d02b0b)">
     <use xlink:href="#m487e5953bb" x="308.012727" y="273.298065" style="fill: #00441b; stroke: #00441b"/>
    </g>
   </g>
   <g id="line2d_160">
    <g clip-path="url(#pff78d02b0b)">
     <use xlink:href="#m487e5953bb" x="317.955273" y="310.854194" style="fill: #00441b; stroke: #00441b"/>
    </g>
   </g>
   <g id="line2d_161">
    <g clip-path="url(#pff78d02b0b)">
     <use xlink:href="#m487e5953bb" x="327.897818" y="373.447742" style="fill: #00441b; stroke: #00441b"/>
    </g>
   </g>
   <g id="line2d_162">
    <defs>
     <path id="m98dcb6de5e" d="M 0 4 
C 1.060812 4 2.078319 3.578535 2.828427 2.828427 
C 3.578535 2.078319 4 1.060812 4 0 
C 4 -1.060812 3.578535 -2.078319 2.828427 -2.828427 
C 2.078319 -3.578535 1.060812 -4 0 -4 
C -1.060812 -4 -2.078319 -3.578535 -2.828427 -2.828427 
C -3.578535 -2.078319 -4 -1.060812 -4 0 
C -4 1.060812 -3.578535 2.078319 -2.828427 2.828427 
C -2.078319 3.578535 -1.060812 4 0 4 
z
" style="stroke: #58b668"/>
    </defs>
    <g clip-path="url(#pff78d02b0b)">
     <use xlink:href="#m98dcb6de5e" x="337.840364" y="436.04129" style="fill: #58b668; stroke: #58b668"/>
    </g>
   </g>
   <g id="line2d_163">
    <defs>
     <path id="m198de99cc2" d="M 0 4 
C 1.060812 4 2.078319 3.578535 2.828427 2.828427 
C 3.578535 2.078319 4 1.060812 4 0 
C 4 -1.060812 3.578535 -2.078319 2.828427 -2.828427 
C 2.078319 -3.578535 1.060812 -4 0 -4 
C -1.060812 -4 -2.078319 -3.578535 -2.828427 -2.828427 
C -3.578535 -2.078319 -4 -1.060812 -4 0 
C -4 1.060812 -3.578535 2.078319 -2.828427 2.828427 
C -2.078319 3.578535 -1.060812 4 0 4 
z
" style="stroke: #f6fcf4"/>
    </defs>
    <g clip-path="url(#pff78d02b0b)">
     <use xlink:href="#m198de99cc2" x="347.782909" y="436.04129" style="fill: #f6fcf4; stroke: #f6fcf4"/>
    </g>
   </g>
   <g id="line2d_164">
    <g clip-path="url(#pff78d02b0b)"/>
   </g>
   <g id="line2d_165">
    <g clip-path="url(#pff78d02b0b)"/>
   </g>
   <g id="line2d_166">
    <g clip-path="url(#pff78d02b0b)"/>
   </g>
   <g id="line2d_167">
    <g clip-path="url(#pff78d02b0b)"/>
   </g>
   <g id="line2d_168">
    <g clip-path="url(#pff78d02b0b)"/>
   </g>
   <g id="line2d_169">
    <g clip-path="url(#pff78d02b0b)"/>
   </g>
   <g id="line2d_170">
    <g clip-path="url(#pff78d02b0b)"/>
   </g>
   <g id="line2d_171">
    <g clip-path="url(#pff78d02b0b)"/>
   </g>
   <g id="line2d_172">
    <g clip-path="url(#pff78d02b0b)"/>
   </g>
   <g id="line2d_173">
    <g clip-path="url(#pff78d02b0b)"/>
   </g>
   <g id="patch_3">
    <path d="M 63 448.56 
L 63 60.48 
" style="fill: none; stroke: #000000; stroke-width: 0.8; stroke-linejoin: miter; stroke-linecap: square"/>
   </g>
   <g id="patch_4">
    <path d="M 63 448.56 
L 453.6 448.56 
" style="fill: none; stroke: #000000; stroke-width: 0.8; stroke-linejoin: miter; stroke-linecap: square"/>
   </g>
  </g>
 </g>
 <defs>
  <clipPath id="pff78d02b0b">
   <rect x="63" y="60.48" width="390.6" height="388.08"/>
  </clipPath>
 </defs>
</svg>
