<?xml version="1.0" encoding="utf-8" standalone="no"?>
<!DOCTYPE svg PUBLIC "-//W3C//DTD SVG 1.1//EN"
  "http://www.w3.org/Graphics/SVG/1.1/DTD/svg11.dtd">
<svg xmlns:xlink="http://www.w3.org/1999/xlink" width="504pt" height="504pt" viewBox="0 0 504 504" xmlns="http://www.w3.org/2000/svg" version="1.1">
 <metadata>
  <rdf:RDF xmlns:dc="http://purl.org/dc/elements/1.1/" xmlns:cc="http://creativecommons.org/ns#" xmlns:rdf="http://www.w3.org/1999/02/22-rdf-syntax-ns#">
   <cc:Work>
    <dc:type rdf:resource="http://purl.org/dc/dcmitype/StillImage"/>
    <dc:date>2026-06-17T19:02:33.357164</dc:date>
    <dc:format>image/svg+xml</dc:format>
    <dc:creator>
     <cc:Agent>
      <dc:title>Matplotlib v3.10.9, https://matplotlib.org/</dc:title>
     </cc:Agent>
    </dc:creator>
   </cc:Work>
  </rdf:RDF>
 </metadata>
 <defs>
  <style type="text/css">*{stroke-linejoin: round; stroke-linecap: butt}</style>
 </defs>
 <g id="figure_1">
  <g id="patch_1">
   <path d="M 0 504 
L 504 504 
L 504 0 
L 0 0 
L 0 504 
z
" style="fill: none"/>
  </g>
  <g id="axes_1">
   <g id="patch_2">
    <path d="M 63 448.56 
L 453.6 448.56 
L 453.6 60.48 
L 63 60.48 
L 63 448.56 
z
" style="fill: none"/>
   </g>
   <g id="matplotlib.axis_1">
    <g id="xtick_1">
     <g id="line2d_1">
      <defs>
       <path id="ma5c340a6b6" d="M 0 0 
L 0 3.5 
" style="stroke: #000000; stroke-width: 0.8"/>
      </defs>
      <g>
       <use xlink:href="#ma5c340a6b6" x="63" y="448.56" style="stroke: #000000; stroke-width: 0.8"/>
      </g>
     </g>
     <g id="text_1">
      <text style="font-size: 16px; font-family: 'Arial', sans-serif; text-anchor: middle" x="63" y="467.06" transform="rotate(-0 63 467.06)">1 Apr</text>
     </g>
    </g>
    <g id="xtick_2">
     <g id="line2d_2">
      <g>
       <use xlink:href="#ma5c340a6b6" x="105.610909" y="448.56" style="stroke: #000000; stroke-width: 0.8"/>
      </g>
     </g>
    </g>
    <g id="xtick_3">
     <g id="line2d_3">
      <g>
       <use xlink:href="#ma5c340a6b6" x="149.642182" y="448.56" style="stroke: #000000; stroke-width: 0.8"/>
      </g>
     </g>
     <g id="text_2">
      <text style="font-size: 16px; font-family: 'Arial', sans-serif; text-anchor: middle" x="149.642182" y="467.0125" transform="rotate(-0 149.642182 467.0125)">1 Jun</text>
     </g>
    </g>
    <g id="xtick_4">
     <g id="line2d_4">
      <g>
       <use xlink:href="#ma5c340a6b6" x="192.253091" y="448.56" style="stroke: #000000; stroke-width: 0.8"/>
      </g>
     </g>
    </g>
    <g id="xtick_5">
     <g id="line2d_5">
      <g>
       <use xlink:href="#ma5c340a6b6" x="236.284364" y="448.56" style="stroke: #000000; stroke-width: 0.8"/>
      </g>
     </g>
     <g id="text_3">
      <text style="font-size: 16px; font-family: 'Arial', sans-serif; text-anchor: middle" x="236.284364" y="467.06" transform="rotate(-0 236.284364 467.06)">1 Aug</text>
     </g>
    </g>
    <g id="xtick_6">
     <g id="line2d_6">
      <g>
       <use xlink:href="#ma5c340a6b6" x="280.315636" y="448.56" style="stroke: #000000; stroke-width: 0.8"/>
      </g>
     </g>
    </g>
    <g id="xtick_7">
     <g id="line2d_7">
      <g>
       <use xlink:href="#ma5c340a6b6" x="322.926545" y="448.56" style="stroke: #000000; stroke-width: 0.8"/>
      </g>
     </g>
     <g id="text_4">
      <text style="font-size: 16px; font-family: 'Arial', sans-serif; text-anchor: middle" x="322.926545" y="467.0125" transform="rotate(-0 322.926545 467.0125)">1 Oct</text>
     </g>
    </g>
    <g id="xtick_8">
     <g id="line2d_8">
      <g>
       <use xlink:href="#ma5c340a6b6" x="366.957818" y="448.56" style="stroke: #000000; stroke-width: 0.8"/>
      </g>
     </g>
    </g>
    <g id="xtick_9">
     <g id="line2d_9">
      <g>
       <use xlink:href="#ma5c340a6b6" x="409.568727" y="448.56" style="stroke: #000000; stroke-width: 0.8"/>
      </g>
     </g>
     <g id="text_5">
      <text style="font-size: 16px; font-family: 'Arial', sans-serif; text-anchor: middle" x="409.568727" y="467.0125" transform="rotate(-0 409.568727 467.0125)">1 Dec</text>
     </g>
    </g>
    <g id="xtick_10">
     <g id="line2d_10">
      <g>
       <use xlink:href="#ma5c340a6b6" x="453.6" y="448.56" style="stroke: #000000; stroke-width: 0.8"/>
      </g>
     </g>
    </g>
    <g id="text_6">
     <text style="font-size: 16px; font-family: 'Arial', sans-serif; text-anchor: middle" x="258.3" y="485.88" transform="rotate(-0 258.3 485.88)">Week of final case</text>
    </g>
   </g>
   <g id="matplotlib.axis_2">
    <g id="ytick_1">
     <g id="line2d_11">
      <defs>
       <path id="mc3252ba40e" d="M 0 0 
L -3.5 0 
" style="stroke: #000000; stroke-width: 0.8"/>
      </defs>
      <g>
       <use xlink:href="#mc3252ba40e" x="63" y="448.56" style="stroke: #000000; stroke-width: 0.8"/>
      </g>
     </g>
     <g id="text_7">
      <text style="font-size: 16px; font-family: 'Arial', sans-serif; text-anchor: end" x="56" y="454.28625" transform="rotate(-0 56 454.28625)">0</text>
     </g>
    </g>
    <g id="ytick_2">
     <g id="line2d_12">
      <g>
       <use xlink:href="#mc3252ba40e" x="63" y="376.693333" style="stroke: #000000; stroke-width: 0.8"/>
      </g>
     </g>
     <g id="text_8">
      <text style="font-size: 16px; font-family: 'Arial', sans-serif; text-anchor: end" x="56" y="382.419583" transform="rotate(-0 56 382.419583)">5</text>
     </g>
    </g>
    <g id="ytick_3">
     <g id="line2d_13">
      <g>
       <use xlink:href="#mc3252ba40e" x="63" y="304.826667" style="stroke: #000000; stroke-width: 0.8"/>
      </g>
     </g>
     <g id="text_9">
      <text style="font-size: 16px; font-family: 'Arial', sans-serif; text-anchor: end" x="56" y="310.552917" transform="rotate(-0 56 310.552917)">10</text>
     </g>
    </g>
    <g id="ytick_4">
     <g id="line2d_14">
      <g>
       <use xlink:href="#mc3252ba40e" x="63" y="232.96" style="stroke: #000000; stroke-width: 0.8"/>
      </g>
     </g>
     <g id="text_10">
      <text style="font-size: 16px; font-family: 'Arial', sans-serif; text-anchor: end" x="56" y="238.68625" transform="rotate(-0 56 238.68625)">15</text>
     </g>
    </g>
    <g id="ytick_5">
     <g id="line2d_15">
      <g>
       <use xlink:href="#mc3252ba40e" x="63" y="161.093333" style="stroke: #000000; stroke-width: 0.8"/>
      </g>
     </g>
     <g id="text_11">
      <text style="font-size: 16px; font-family: 'Arial', sans-serif; text-anchor: end" x="56" y="166.819583" transform="rotate(-0 56 166.819583)">20</text>
     </g>
    </g>
    <g id="ytick_6">
     <g id="line2d_16">
      <g>
       <use xlink:href="#mc3252ba40e" x="63" y="89.226667" style="stroke: #000000; stroke-width: 0.8"/>
      </g>
     </g>
     <g id="text_12">
      <text style="font-size: 16px; font-family: 'Arial', sans-serif; text-anchor: end" x="56" y="94.952917" transform="rotate(-0 56 94.952917)">25</text>
     </g>
    </g>
    <g id="text_13">
     <text style="font-size: 16px; font-family: 'Arial', sans-serif; text-anchor: middle" x="30.8375" y="254.52" transform="rotate(-90 30.8375 254.52)">Days from final case until decision</text>
    </g>
   </g>
   <g id="LineCollection_1">
    <path clip-path="url(#p138e473002)" style="fill: none; stroke: #f7fcf5; stroke-width: 2"/>
   </g>
   <g id="line2d_17">
    <defs>
     <path id="m64d2eec47e" d="M 3 0 
L -3 -0 
" style="stroke: #f7fcf5"/>
    </defs>
    <g clip-path="url(#p138e473002)"/>
   </g>
   <g id="line2d_18">
    <g clip-path="url(#p138e473002)"/>
   </g>
   <g id="LineCollection_2">
    <path clip-path="url(#p138e473002)" style="fill: none; stroke: #f7fcf5; stroke-width: 2"/>
   </g>
   <g id="line2d_19">
    <g clip-path="url(#p138e473002)"/>
   </g>
   <g id="line2d_20">
    <g clip-path="url(#p138e473002)"/>
   </g>
   <g id="LineCollection_3">
    <path clip-path="url(#p138e473002)" style="fill: none; stroke: #f7fcf5; stroke-width: 2"/>
   </g>
   <g id="line2d_21">
    <g clip-path="url(#p138e473002)"/>
   </g>
   <g id="line2d_22">
    <g clip-path="url(#p138e473002)"/>
   </g>
   <g id="LineCollection_4">
    <path clip-path="url(#p138e473002)" style="fill: none; stroke: #f7fcf5; stroke-width: 2"/>
   </g>
   <g id="line2d_23">
    <g clip-path="url(#p138e473002)"/>
   </g>
   <g id="line2d_24">
    <g clip-path="url(#p138e473002)"/>
   </g>
   <g id="LineCollection_5">
    <path clip-path="url(#p138e473002)" style="fill: none; stroke: #f7fcf5; stroke-width: 2"/>
   </g>
   <g id="line2d_25">
    <g clip-path="url(#p138e473002)"/>
   </g>
   <g id="line2d_26">
    <g clip-path="url(#p138e473002)"/>
   </g>
   <g id="LineCollection_6">
    <path clip-path="url(#p138e473002)" style="fill: none; stroke: #f7fcf5; stroke-width: 2"/>
   </g>
   <g id="line2d_27">
    <g clip-path="url(#p138e473002)"/>
   </g>
   <g id="line2d_28">
    <g clip-path="url(#p138e473002)"/>
   </g>
   <g id="LineCollection_7">
    <path clip-path="url(#p138e473002)" style="fill: none; stroke: #f7fcf5; stroke-width: 2"/>
   </g>
   <g id="line2d_29">
    <g clip-path="url(#p138e473002)"/>
   </g>
   <g id="line2d_30">
    <g clip-path="url(#p138e473002)"/>
   </g>
   <g id="LineCollection_8">
    <path clip-path="url(#p138e473002)" style="fill: none; stroke: #f7fcf5; stroke-width: 2"/>
   </g>
   <g id="line2d_31">
    <g clip-path="url(#p138e473002)"/>
   </g>
   <g id="line2d_32">
    <g clip-path="url(#p138e473002)"/>
   </g>
   <g id="LineCollection_9">
    <path clip-path="url(#p138e473002)" style="fill: none; stroke: #f7fcf5; stroke-width: 2"/>
   </g>
   <g id="line2d_33">
    <g clip-path="url(#p138e473002)"/>
   </g>
   <g id="line2d_34">
    <g clip-path="url(#p138e473002)"/>
   </g>
   <g id="LineCollection_10">
    <path clip-path="url(#p138e473002)" style="fill: none; stroke: #f7fcf5; stroke-width: 2"/>
   </g>
   <g id="line2d_35">
    <g clip-path="url(#p138e473002)"/>
   </g>
   <g id="line2d_36">
    <g clip-path="url(#p138e473002)"/>
   </g>
   <g id="LineCollection_11">
    <path clip-path="url(#p138e473002)" style="fill: none; stroke: #f7fcf5; stroke-width: 2"/>
   </g>
   <g id="line2d_37">
    <g clip-path="url(#p138e473002)"/>
   </g>
   <g id="line2d_38">
    <g clip-path="url(#p138e473002)"/>
   </g>
   <g id="LineCollection_12">
    <path clip-path="url(#p138e473002)" style="fill: none; stroke: #f7fcf5; stroke-width: 2"/>
   </g>
   <g id="line2d_39">
    <g clip-path="url(#p138e473002)"/>
   </g>
   <g id="line2d_40">
    <g clip-path="url(#p138e473002)"/>
   </g>
   <g id="LineCollection_13">
    <path clip-path="url(#p138e473002)" style="fill: none; stroke: #f7fcf5; stroke-width: 2"/>
   </g>
   <g id="line2d_41">
    <g clip-path="url(#p138e473002)"/>
   </g>
   <g id="line2d_42">
    <g clip-path="url(#p138e473002)"/>
   </g>
   <g id="LineCollection_14">
    <path clip-path="url(#p138e473002)" style="fill: none; stroke: #f7fcf5; stroke-width: 2"/>
   </g>
   <g id="line2d_43">
    <g clip-path="url(#p138e473002)"/>
   </g>
   <g id="line2d_44">
    <g clip-path="url(#p138e473002)"/>
   </g>
   <g id="LineCollection_15">
    <path clip-path="url(#p138e473002)" style="fill: none; stroke: #f7fcf5; stroke-width: 2"/>
   </g>
   <g id="line2d_45">
    <g clip-path="url(#p138e473002)"/>
   </g>
   <g id="line2d_46">
    <g clip-path="url(#p138e473002)"/>
   </g>
   <g id="LineCollection_16">
    <path clip-path="url(#p138e473002)" style="fill: none; stroke: #f7fcf5; stroke-width: 2"/>
   </g>
   <g id="line2d_47">
    <g clip-path="url(#p138e473002)"/>
   </g>
   <g id="line2d_48">
    <g clip-path="url(#p138e473002)"/>
   </g>
   <g id="LineCollection_17">
    <path clip-path="url(#p138e473002)" style="fill: none; stroke: #f7fcf5; stroke-width: 2"/>
   </g>
   <g id="line2d_49">
    <g clip-path="url(#p138e473002)"/>
   </g>
   <g id="line2d_50">
    <g clip-path="url(#p138e473002)"/>
   </g>
   <g id="LineCollection_18">
    <path d="M 109.161818 434.186667 
L 109.161818 434.186667 
" clip-path="url(#p138e473002)" style="fill: none; stroke: #f7fcf5; stroke-width: 2"/>
   </g>
   <g id="line2d_51">
    <g clip-path="url(#p138e473002)">
     <use xlink:href="#m64d2eec47e" x="109.161818" y="434.186667" style="fill: #f7fcf5; stroke: #f7fcf5"/>
    </g>
   </g>
   <g id="line2d_52">
    <g clip-path="url(#p138e473002)">
     <use xlink:href="#m64d2eec47e" x="109.161818" y="434.186667" style="fill: #f7fcf5; stroke: #f7fcf5"/>
    </g>
   </g>
   <g id="LineCollection_19">
    <path d="M 119.104364 350.102667 
L 119.104364 189.84 
" clip-path="url(#p138e473002)" style="fill: none; stroke: #f4fbf1; stroke-width: 2"/>
   </g>
   <g id="line2d_53">
    <defs>
     <path id="mf98c01c944" d="M 3 0 
L -3 -0 
" style="stroke: #f4fbf1"/>
    </defs>
    <g clip-path="url(#p138e473002)">
     <use xlink:href="#mf98c01c944" x="119.104364" y="350.102667" style="fill: #f4fbf1; stroke: #f4fbf1"/>
    </g>
   </g>
   <g id="line2d_54">
    <g clip-path="url(#p138e473002)">
     <use xlink:href="#mf98c01c944" x="119.104364" y="189.84" style="fill: #f4fbf1; stroke: #f4fbf1"/>
    </g>
   </g>
   <g id="LineCollection_20">
    <path d="M 129.046909 189.84 
L 129.046909 146.72 
" clip-path="url(#p138e473002)" style="fill: none; stroke: #e8f6e4; stroke-width: 2"/>
   </g>
   <g id="line2d_55">
    <defs>
     <path id="m9fa34e2560" d="M 3 0 
L -3 -0 
" style="stroke: #e8f6e4"/>
    </defs>
    <g clip-path="url(#p138e473002)">
     <use xlink:href="#m9fa34e2560" x="129.046909" y="189.84" style="fill: #e8f6e4; stroke: #e8f6e4"/>
    </g>
   </g>
   <g id="line2d_56">
    <g clip-path="url(#p138e473002)">
     <use xlink:href="#m9fa34e2560" x="129.046909" y="146.72" style="fill: #e8f6e4; stroke: #e8f6e4"/>
    </g>
   </g>
   <g id="LineCollection_21">
    <path d="M 138.989455 146.72 
L 138.989455 117.973333 
" clip-path="url(#p138e473002)" style="fill: none; stroke: #c3e7bc; stroke-width: 2"/>
   </g>
   <g id="line2d_57">
    <defs>
     <path id="m3097c1c717" d="M 3 0 
L -3 -0 
" style="stroke: #c3e7bc"/>
    </defs>
    <g clip-path="url(#p138e473002)">
     <use xlink:href="#m3097c1c717" x="138.989455" y="146.72" style="fill: #c3e7bc; stroke: #c3e7bc"/>
    </g>
   </g>
   <g id="line2d_58">
    <g clip-path="url(#p138e473002)">
     <use xlink:href="#m3097c1c717" x="138.989455" y="117.973333" style="fill: #c3e7bc; stroke: #c3e7bc"/>
    </g>
   </g>
   <g id="LineCollection_22">
    <path d="M 148.932 117.973333 
L 148.932 103.6 
" clip-path="url(#p138e473002)" style="fill: none; stroke: #7dc87e; stroke-width: 2"/>
   </g>
   <g id="line2d_59">
    <defs>
     <path id="m718458eadb" d="M 3 0 
L -3 -0 
" style="stroke: #7dc87e"/>
    </defs>
    <g clip-path="url(#p138e473002)">
     <use xlink:href="#m718458eadb" x="148.932" y="117.973333" style="fill: #7dc87e; stroke: #7dc87e"/>
    </g>
   </g>
   <g id="line2d_60">
    <g clip-path="url(#p138e473002)">
     <use xlink:href="#m718458eadb" x="148.932" y="103.6" style="fill: #7dc87e; stroke: #7dc87e"/>
    </g>
   </g>
   <g id="LineCollection_23">
    <path d="M 158.874545 117.973333 
L 158.874545 103.6 
" clip-path="url(#p138e473002)" style="fill: none; stroke: #78c679; stroke-width: 2"/>
   </g>
   <g id="line2d_61">
    <defs>
     <path id="m30ee0da971" d="M 3 0 
L -3 -0 
" style="stroke: #78c679"/>
    </defs>
    <g clip-path="url(#p138e473002)">
     <use xlink:href="#m30ee0da971" x="158.874545" y="117.973333" style="fill: #78c679; stroke: #78c679"/>
    </g>
   </g>
   <g id="line2d_62">
    <g clip-path="url(#p138e473002)">
     <use xlink:href="#m30ee0da971" x="158.874545" y="103.6" style="fill: #78c679; stroke: #78c679"/>
    </g>
   </g>
   <g id="LineCollection_24">
    <path d="M 168.817091 103.6 
L 168.817091 89.226667 
" clip-path="url(#p138e473002)" style="fill: none; stroke: #a3da9d; stroke-width: 2"/>
   </g>
   <g id="line2d_63">
    <defs>
     <path id="mf74d76a434" d="M 3 0 
L -3 -0 
" style="stroke: #a3da9d"/>
    </defs>
    <g clip-path="url(#p138e473002)">
     <use xlink:href="#mf74d76a434" x="168.817091" y="103.6" style="fill: #a3da9d; stroke: #a3da9d"/>
    </g>
   </g>
   <g id="line2d_64">
    <g clip-path="url(#p138e473002)">
     <use xlink:href="#mf74d76a434" x="168.817091" y="89.226667" style="fill: #a3da9d; stroke: #a3da9d"/>
    </g>
   </g>
   <g id="LineCollection_25">
    <path d="M 178.759636 103.6 
L 178.759636 89.226667 
" clip-path="url(#p138e473002)" style="fill: none; stroke: #cfecc9; stroke-width: 2"/>
   </g>
   <g id="line2d_65">
    <defs>
     <path id="m61616a9922" d="M 3 0 
L -3 -0 
" style="stroke: #cfecc9"/>
    </defs>
    <g clip-path="url(#p138e473002)">
     <use xlink:href="#m61616a9922" x="178.759636" y="103.6" style="fill: #cfecc9; stroke: #cfecc9"/>
    </g>
   </g>
   <g id="line2d_66">
    <g clip-path="url(#p138e473002)">
     <use xlink:href="#m61616a9922" x="178.759636" y="89.226667" style="fill: #cfecc9; stroke: #cfecc9"/>
    </g>
   </g>
   <g id="LineCollection_26">
    <path d="M 188.702182 103.6 
L 188.702182 89.226667 
" clip-path="url(#p138e473002)" style="fill: none; stroke: #e1f3dc; stroke-width: 2"/>
   </g>
   <g id="line2d_67">
    <defs>
     <path id="m71518ce9fc" d="M 3 0 
L -3 -0 
" style="stroke: #e1f3dc"/>
    </defs>
    <g clip-path="url(#p138e473002)">
     <use xlink:href="#m71518ce9fc" x="188.702182" y="103.6" style="fill: #e1f3dc; stroke: #e1f3dc"/>
    </g>
   </g>
   <g id="line2d_68">
    <g clip-path="url(#p138e473002)">
     <use xlink:href="#m71518ce9fc" x="188.702182" y="89.226667" style="fill: #e1f3dc; stroke: #e1f3dc"/>
    </g>
   </g>
   <g id="LineCollection_27">
    <path d="M 198.644727 103.6 
L 198.644727 93.538667 
" clip-path="url(#p138e473002)" style="fill: none; stroke: #eaf7e6; stroke-width: 2"/>
   </g>
   <g id="line2d_69">
    <defs>
     <path id="mf055918eb8" d="M 3 0 
L -3 -0 
" style="stroke: #eaf7e6"/>
    </defs>
    <g clip-path="url(#p138e473002)">
     <use xlink:href="#mf055918eb8" x="198.644727" y="103.6" style="fill: #eaf7e6; stroke: #eaf7e6"/>
    </g>
   </g>
   <g id="line2d_70">
    <g clip-path="url(#p138e473002)">
     <use xlink:href="#mf055918eb8" x="198.644727" y="93.538667" style="fill: #eaf7e6; stroke: #eaf7e6"/>
    </g>
   </g>
   <g id="LineCollection_28">
    <path d="M 208.587273 103.6 
L 208.587273 93.179333 
" clip-path="url(#p138e473002)" style="fill: none; stroke: #eaf7e6; stroke-width: 2"/>
   </g>
   <g id="line2d_71">
    <g clip-path="url(#p138e473002)">
     <use xlink:href="#mf055918eb8" x="208.587273" y="103.6" style="fill: #eaf7e6; stroke: #eaf7e6"/>
    </g>
   </g>
   <g id="line2d_72">
    <g clip-path="url(#p138e473002)">
     <use xlink:href="#mf055918eb8" x="208.587273" y="93.179333" style="fill: #eaf7e6; stroke: #eaf7e6"/>
    </g>
   </g>
   <g id="LineCollection_29">
    <path d="M 218.529818 103.6 
L 218.529818 89.226667 
" clip-path="url(#p138e473002)" style="fill: none; stroke: #eaf7e6; stroke-width: 2"/>
   </g>
   <g id="line2d_73">
    <g clip-path="url(#p138e473002)">
     <use xlink:href="#mf055918eb8" x="218.529818" y="103.6" style="fill: #eaf7e6; stroke: #eaf7e6"/>
    </g>
   </g>
   <g id="line2d_74">
    <g clip-path="url(#p138e473002)">
     <use xlink:href="#mf055918eb8" x="218.529818" y="89.226667" style="fill: #eaf7e6; stroke: #eaf7e6"/>
    </g>
   </g>
   <g id="LineCollection_30">
    <path d="M 228.472364 103.6 
L 228.472364 91.382667 
" clip-path="url(#p138e473002)" style="fill: none; stroke: #ebf7e7; stroke-width: 2"/>
   </g>
   <g id="line2d_75">
    <defs>
     <path id="mf186eea145" d="M 3 0 
L -3 -0 
" style="stroke: #ebf7e7"/>
    </defs>
    <g clip-path="url(#p138e473002)">
     <use xlink:href="#mf186eea145" x="228.472364" y="103.6" style="fill: #ebf7e7; stroke: #ebf7e7"/>
    </g>
   </g>
   <g id="line2d_76">
    <g clip-path="url(#p138e473002)">
     <use xlink:href="#mf186eea145" x="228.472364" y="91.382667" style="fill: #ebf7e7; stroke: #ebf7e7"/>
    </g>
   </g>
   <g id="LineCollection_31">
    <path d="M 238.414909 103.6 
L 238.414909 89.226667 
" clip-path="url(#p138e473002)" style="fill: none; stroke: #ecf8e8; stroke-width: 2"/>
   </g>
   <g id="line2d_77">
    <defs>
     <path id="mbd69582d2c" d="M 3 0 
L -3 -0 
" style="stroke: #ecf8e8"/>
    </defs>
    <g clip-path="url(#p138e473002)">
     <use xlink:href="#mbd69582d2c" x="238.414909" y="103.6" style="fill: #ecf8e8; stroke: #ecf8e8"/>
    </g>
   </g>
   <g id="line2d_78">
    <g clip-path="url(#p138e473002)">
     <use xlink:href="#mbd69582d2c" x="238.414909" y="89.226667" style="fill: #ecf8e8; stroke: #ecf8e8"/>
    </g>
   </g>
   <g id="LineCollection_32">
    <path d="M 248.357455 103.6 
L 248.357455 89.226667 
" clip-path="url(#p138e473002)" style="fill: none; stroke: #edf8e9; stroke-width: 2"/>
   </g>
   <g id="line2d_79">
    <defs>
     <path id="m4a106b0914" d="M 3 0 
L -3 -0 
" style="stroke: #edf8e9"/>
    </defs>
    <g clip-path="url(#p138e473002)">
     <use xlink:href="#m4a106b0914" x="248.357455" y="103.6" style="fill: #edf8e9; stroke: #edf8e9"/>
    </g>
   </g>
   <g id="line2d_80">
    <g clip-path="url(#p138e473002)">
     <use xlink:href="#m4a106b0914" x="248.357455" y="89.226667" style="fill: #edf8e9; stroke: #edf8e9"/>
    </g>
   </g>
   <g id="LineCollection_33">
    <path d="M 258.3 103.6 
L 258.3 86.352 
" clip-path="url(#p138e473002)" style="fill: none; stroke: #edf8e9; stroke-width: 2"/>
   </g>
   <g id="line2d_81">
    <g clip-path="url(#p138e473002)">
     <use xlink:href="#m4a106b0914" x="258.3" y="103.6" style="fill: #edf8e9; stroke: #edf8e9"/>
    </g>
   </g>
   <g id="line2d_82">
    <g clip-path="url(#p138e473002)">
     <use xlink:href="#m4a106b0914" x="258.3" y="86.352" style="fill: #edf8e9; stroke: #edf8e9"/>
    </g>
   </g>
   <g id="LineCollection_34">
    <path d="M 268.242545 117.973333 
L 268.242545 103.6 
" clip-path="url(#p138e473002)" style="fill: none; stroke: #ecf8e8; stroke-width: 2"/>
   </g>
   <g id="line2d_83">
    <g clip-path="url(#p138e473002)">
     <use xlink:href="#mbd69582d2c" x="268.242545" y="117.973333" style="fill: #ecf8e8; stroke: #ecf8e8"/>
    </g>
   </g>
   <g id="line2d_84">
    <g clip-path="url(#p138e473002)">
     <use xlink:href="#mbd69582d2c" x="268.242545" y="103.6" style="fill: #ecf8e8; stroke: #ecf8e8"/>
    </g>
   </g>
   <g id="LineCollection_35">
    <path d="M 278.185091 132.346667 
L 278.185091 117.973333 
" clip-path="url(#p138e473002)" style="fill: none; stroke: #ebf7e7; stroke-width: 2"/>
   </g>
   <g id="line2d_85">
    <g clip-path="url(#p138e473002)">
     <use xlink:href="#mf186eea145" x="278.185091" y="132.346667" style="fill: #ebf7e7; stroke: #ebf7e7"/>
    </g>
   </g>
   <g id="line2d_86">
    <g clip-path="url(#p138e473002)">
     <use xlink:href="#mf186eea145" x="278.185091" y="117.973333" style="fill: #ebf7e7; stroke: #ebf7e7"/>
    </g>
   </g>
   <g id="LineCollection_36">
    <path d="M 288.127636 146.72 
L 288.127636 132.346667 
" clip-path="url(#p138e473002)" style="fill: none; stroke: #d3eecd; stroke-width: 2"/>
   </g>
   <g id="line2d_87">
    <defs>
     <path id="m4762c8624e" d="M 3 0 
L -3 -0 
" style="stroke: #d3eecd"/>
    </defs>
    <g clip-path="url(#p138e473002)">
     <use xlink:href="#m4762c8624e" x="288.127636" y="146.72" style="fill: #d3eecd; stroke: #d3eecd"/>
    </g>
   </g>
   <g id="line2d_88">
    <g clip-path="url(#p138e473002)">
     <use xlink:href="#m4762c8624e" x="288.127636" y="132.346667" style="fill: #d3eecd; stroke: #d3eecd"/>
    </g>
   </g>
   <g id="LineCollection_37">
    <path d="M 298.070182 175.466667 
L 298.070182 146.72 
" clip-path="url(#p138e473002)" style="fill: none; stroke: #5bb86a; stroke-width: 2"/>
   </g>
   <g id="line2d_89">
    <defs>
     <path id="m5ce9c8b95a" d="M 3 0 
L -3 -0 
" style="stroke: #5bb86a"/>
    </defs>
    <g clip-path="url(#p138e473002)">
     <use xlink:href="#m5ce9c8b95a" x="298.070182" y="175.466667" style="fill: #5bb86a; stroke: #5bb86a"/>
    </g>
   </g>
   <g id="line2d_90">
    <g clip-path="url(#p138e473002)">
     <use xlink:href="#m5ce9c8b95a" x="298.070182" y="146.72" style="fill: #5bb86a; stroke: #5bb86a"/>
    </g>
   </g>
   <g id="LineCollection_38">
    <path d="M 308.012727 204.213333 
L 308.012727 161.093333 
" clip-path="url(#p138e473002)" style="fill: none; stroke: #00441b; stroke-width: 2"/>
   </g>
   <g id="line2d_91">
    <defs>
     <path id="m4bc2918b0b" d="M 3 0 
L -3 -0 
" style="stroke: #00441b"/>
    </defs>
    <g clip-path="url(#p138e473002)">
     <use xlink:href="#m4bc2918b0b" x="308.012727" y="204.213333" style="fill: #00441b; stroke: #00441b"/>
    </g>
   </g>
   <g id="line2d_92">
    <g clip-path="url(#p138e473002)">
     <use xlink:href="#m4bc2918b0b" x="308.012727" y="161.093333" style="fill: #00441b; stroke: #00441b"/>
    </g>
   </g>
   <g id="LineCollection_39">
    <path d="M 317.955273 247.333333 
L 317.955273 189.84 
" clip-path="url(#p138e473002)" style="fill: none; stroke: #00441b; stroke-width: 2"/>
   </g>
   <g id="line2d_93">
    <g clip-path="url(#p138e473002)">
     <use xlink:href="#m4bc2918b0b" x="317.955273" y="247.333333" style="fill: #00441b; stroke: #00441b"/>
    </g>
   </g>
   <g id="line2d_94">
    <g clip-path="url(#p138e473002)">
     <use xlink:href="#m4bc2918b0b" x="317.955273" y="189.84" style="fill: #00441b; stroke: #00441b"/>
    </g>
   </g>
   <g id="LineCollection_40">
    <path d="M 327.897818 304.826667 
L 327.897818 218.586667 
" clip-path="url(#p138e473002)" style="fill: none; stroke: #00441b; stroke-width: 2"/>
   </g>
   <g id="line2d_95">
    <g clip-path="url(#p138e473002)">
     <use xlink:href="#m4bc2918b0b" x="327.897818" y="304.826667" style="fill: #00441b; stroke: #00441b"/>
    </g>
   </g>
   <g id="line2d_96">
    <g clip-path="url(#p138e473002)">
     <use xlink:href="#m4bc2918b0b" x="327.897818" y="218.586667" style="fill: #00441b; stroke: #00441b"/>
    </g>
   </g>
   <g id="LineCollection_41">
    <path d="M 337.840364 405.44 
L 337.840364 261.706667 
" clip-path="url(#p138e473002)" style="fill: none; stroke: #00441b; stroke-width: 2"/>
   </g>
   <g id="line2d_97">
    <g clip-path="url(#p138e473002)">
     <use xlink:href="#m4bc2918b0b" x="337.840364" y="405.44" style="fill: #00441b; stroke: #00441b"/>
    </g>
   </g>
   <g id="line2d_98">
    <g clip-path="url(#p138e473002)">
     <use xlink:href="#m4bc2918b0b" x="337.840364" y="261.706667" style="fill: #00441b; stroke: #00441b"/>
    </g>
   </g>
   <g id="LineCollection_42">
    <path d="M 347.782909 434.186667 
L 347.782909 290.453333 
" clip-path="url(#p138e473002)" style="fill: none; stroke: #00441b; stroke-width: 2"/>
   </g>
   <g id="line2d_99">
    <g clip-path="url(#p138e473002)">
     <use xlink:href="#m4bc2918b0b" x="347.782909" y="434.186667" style="fill: #00441b; stroke: #00441b"/>
    </g>
   </g>
   <g id="line2d_100">
    <g clip-path="url(#p138e473002)">
     <use xlink:href="#m4bc2918b0b" x="347.782909" y="290.453333" style="fill: #00441b; stroke: #00441b"/>
    </g>
   </g>
   <g id="LineCollection_43">
    <path d="M 357.725455 434.186667 
L 357.725455 319.2 
" clip-path="url(#p138e473002)" style="fill: none; stroke: #00441b; stroke-width: 2"/>
   </g>
   <g id="line2d_101">
    <g clip-path="url(#p138e473002)">
     <use xlink:href="#m4bc2918b0b" x="357.725455" y="434.186667" style="fill: #00441b; stroke: #00441b"/>
    </g>
   </g>
   <g id="line2d_102">
    <g clip-path="url(#p138e473002)">
     <use xlink:href="#m4bc2918b0b" x="357.725455" y="319.2" style="fill: #00441b; stroke: #00441b"/>
    </g>
   </g>
   <g id="LineCollection_44">
    <path d="M 367.668 434.186667 
L 367.668 376.693333 
" clip-path="url(#p138e473002)" style="fill: none; stroke: #00441b; stroke-width: 2"/>
   </g>
   <g id="line2d_103">
    <g clip-path="url(#p138e473002)">
     <use xlink:href="#m4bc2918b0b" x="367.668" y="434.186667" style="fill: #00441b; stroke: #00441b"/>
    </g>
   </g>
   <g id="line2d_104">
    <g clip-path="url(#p138e473002)">
     <use xlink:href="#m4bc2918b0b" x="367.668" y="376.693333" style="fill: #00441b; stroke: #00441b"/>
    </g>
   </g>
   <g id="LineCollection_45">
    <path d="M 377.610545 434.186667 
L 377.610545 434.186667 
" clip-path="url(#p138e473002)" style="fill: none; stroke: #eef8ea; stroke-width: 2"/>
   </g>
   <g id="line2d_105">
    <defs>
     <path id="mb89aea93f0" d="M 3 0 
L -3 -0 
" style="stroke: #eef8ea"/>
    </defs>
    <g clip-path="url(#p138e473002)">
     <use xlink:href="#mb89aea93f0" x="377.610545" y="434.186667" style="fill: #eef8ea; stroke: #eef8ea"/>
    </g>
   </g>
   <g id="line2d_106">
    <g clip-path="url(#p138e473002)">
     <use xlink:href="#mb89aea93f0" x="377.610545" y="434.186667" style="fill: #eef8ea; stroke: #eef8ea"/>
    </g>
   </g>
   <g id="LineCollection_46">
    <path clip-path="url(#p138e473002)" style="fill: none; stroke: #f7fcf5; stroke-width: 2"/>
   </g>
   <g id="line2d_107">
    <g clip-path="url(#p138e473002)"/>
   </g>
   <g id="line2d_108">
    <g clip-path="url(#p138e473002)"/>
   </g>
   <g id="LineCollection_47">
    <path clip-path="url(#p138e473002)" style="fill: none; stroke: #f7fcf5; stroke-width: 2"/>
   </g>
   <g id="line2d_109">
    <g clip-path="url(#p138e473002)"/>
   </g>
   <g id="line2d_110">
    <g clip-path="url(#p138e473002)"/>
   </g>
   <g id="LineCollection_48">
    <path clip-path="url(#p138e473002)" style="fill: none; stroke: #f7fcf5; stroke-width: 2"/>
   </g>
   <g id="line2d_111">
    <g clip-path="url(#p138e473002)"/>
   </g>
   <g id="line2d_112">
    <g clip-path="url(#p138e473002)"/>
   </g>
   <g id="LineCollection_49">
    <path clip-path="url(#p138e473002)" style="fill: none; stroke: #f7fcf5; stroke-width: 2"/>
   </g>
   <g id="line2d_113">
    <g clip-path="url(#p138e473002)"/>
   </g>
   <g id="line2d_114">
    <g clip-path="url(#p138e473002)"/>
   </g>
   <g id="LineCollection_50">
    <path clip-path="url(#p138e473002)" style="fill: none; stroke: #f7fcf5; stroke-width: 2"/>
   </g>
   <g id="line2d_115">
    <g clip-path="url(#p138e473002)"/>
   </g>
   <g id="line2d_116">
    <g clip-path="url(#p138e473002)"/>
   </g>
   <g id="LineCollection_51">
    <path clip-path="url(#p138e473002)" style="fill: none; stroke: #f7fcf5; stroke-width: 2"/>
   </g>
   <g id="line2d_117">
    <g clip-path="url(#p138e473002)"/>
   </g>
   <g id="line2d_118">
    <g clip-path="url(#p138e473002)"/>
   </g>
   <g id="LineCollection_52">
    <path clip-path="url(#p138e473002)" style="fill: none; stroke: #f7fcf5; stroke-width: 2"/>
   </g>
   <g id="line2d_119">
    <g clip-path="url(#p138e473002)"/>
   </g>
   <g id="line2d_120">
    <g clip-path="url(#p138e473002)"/>
   </g>
   <g id="line2d_121">
    <defs>
     <path id="mf9f6ecc4ff" d="M 0 4 
C 1.060812 4 2.078319 3.578535 2.828427 2.828427 
C 3.578535 2.078319 4 1.060812 4 0 
C 4 -1.060812 3.578535 -2.078319 2.828427 -2.828427 
C 2.078319 -3.578535 1.060812 -4 0 -4 
C -1.060812 -4 -2.078319 -3.578535 -2.828427 -2.828427 
C -3.578535 -2.078319 -4 -1.060812 -4 0 
C -4 1.060812 -3.578535 2.078319 -2.828427 2.828427 
C -2.078319 3.578535 -1.060812 4 0 4 
z
" style="stroke: #f7fcf5"/>
    </defs>
    <g clip-path="url(#p138e473002)"/>
   </g>
   <g id="line2d_122">
    <g clip-path="url(#p138e473002)"/>
   </g>
   <g id="line2d_123">
    <g clip-path="url(#p138e473002)"/>
   </g>
   <g id="line2d_124">
    <g clip-path="url(#p138e473002)"/>
   </g>
   <g id="line2d_125">
    <g clip-path="url(#p138e473002)"/>
   </g>
   <g id="line2d_126">
    <g clip-path="url(#p138e473002)"/>
   </g>
   <g id="line2d_127">
    <g clip-path="url(#p138e473002)"/>
   </g>
   <g id="line2d_128">
    <g clip-path="url(#p138e473002)"/>
   </g>
   <g id="line2d_129">
    <g clip-path="url(#p138e473002)"/>
   </g>
   <g id="line2d_130">
    <g clip-path="url(#p138e473002)"/>
   </g>
   <g id="line2d_131">
    <g clip-path="url(#p138e473002)"/>
   </g>
   <g id="line2d_132">
    <g clip-path="url(#p138e473002)"/>
   </g>
   <g id="line2d_133">
    <g clip-path="url(#p138e473002)"/>
   </g>
   <g id="line2d_134">
    <g clip-path="url(#p138e473002)"/>
   </g>
   <g id="line2d_135">
    <g clip-path="url(#p138e473002)"/>
   </g>
   <g id="line2d_136">
    <g clip-path="url(#p138e473002)"/>
   </g>
   <g id="line2d_137">
    <g clip-path="url(#p138e473002)"/>
   </g>
   <g id="line2d_138">
    <g clip-path="url(#p138e473002)">
     <use xlink:href="#mf9f6ecc4ff" x="109.161818" y="434.186667" style="fill: #f7fcf5; stroke: #f7fcf5"/>
    </g>
   </g>
   <g id="line2d_139">
    <defs>
     <path id="m8b05358795" d="M 0 4 
C 1.060812 4 2.078319 3.578535 2.828427 2.828427 
C 3.578535 2.078319 4 1.060812 4 0 
C 4 -1.060812 3.578535 -2.078319 2.828427 -2.828427 
C 2.078319 -3.578535 1.060812 -4 0 -4 
C -1.060812 -4 -2.078319 -3.578535 -2.828427 -2.828427 
C -3.578535 -2.078319 -4 -1.060812 -4 0 
C -4 1.060812 -3.578535 2.078319 -2.828427 2.828427 
C -2.078319 3.578535 -1.060812 4 0 4 
z
" style="stroke: #f4fbf1"/>
    </defs>
    <g clip-path="url(#p138e473002)">
     <use xlink:href="#m8b05358795" x="119.104364" y="218.586667" style="fill: #f4fbf1; stroke: #f4fbf1"/>
    </g>
   </g>
   <g id="line2d_140">
    <defs>
     <path id="m1345cc9d2d" d="M 0 4 
C 1.060812 4 2.078319 3.578535 2.828427 2.828427 
C 3.578535 2.078319 4 1.060812 4 0 
C 4 -1.060812 3.578535 -2.078319 2.828427 -2.828427 
C 2.078319 -3.578535 1.060812 -4 0 -4 
C -1.060812 -4 -2.078319 -3.578535 -2.828427 -2.828427 
C -3.578535 -2.078319 -4 -1.060812 -4 0 
C -4 1.060812 -3.578535 2.078319 -2.828427 2.828427 
C -2.078319 3.578535 -1.060812 4 0 4 
z
" style="stroke: #e8f6e4"/>
    </defs>
    <g clip-path="url(#p138e473002)">
     <use xlink:href="#m1345cc9d2d" x="129.046909" y="161.093333" style="fill: #e8f6e4; stroke: #e8f6e4"/>
    </g>
   </g>
   <g id="line2d_141">
    <defs>
     <path id="mad6828772b" d="M 0 4 
C 1.060812 4 2.078319 3.578535 2.828427 2.828427 
C 3.578535 2.078319 4 1.060812 4 0 
C 4 -1.060812 3.578535 -2.078319 2.828427 -2.828427 
C 2.078319 -3.578535 1.060812 -4 0 -4 
C -1.060812 -4 -2.078319 -3.578535 -2.828427 -2.828427 
C -3.578535 -2.078319 -4 -1.060812 -4 0 
C -4 1.060812 -3.578535 2.078319 -2.828427 2.828427 
C -2.078319 3.578535 -1.060812 4 0 4 
z
" style="stroke: #c3e7bc"/>
    </defs>
    <g clip-path="url(#p138e473002)">
     <use xlink:href="#mad6828772b" x="138.989455" y="132.346667" style="fill: #c3e7bc; stroke: #c3e7bc"/>
    </g>
   </g>
   <g id="line2d_142">
    <defs>
     <path id="m672d4c0f3c" d="M 0 4 
C 1.060812 4 2.078319 3.578535 2.828427 2.828427 
C 3.578535 2.078319 4 1.060812 4 0 
C 4 -1.060812 3.578535 -2.078319 2.828427 -2.828427 
C 2.078319 -3.578535 1.060812 -4 0 -4 
C -1.060812 -4 -2.078319 -3.578535 -2.828427 -2.828427 
C -3.578535 -2.078319 -4 -1.060812 -4 0 
C -4 1.060812 -3.578535 2.078319 -2.828427 2.828427 
C -2.078319 3.578535 -1.060812 4 0 4 
z
" style="stroke: #7dc87e"/>
    </defs>
    <g clip-path="url(#p138e473002)">
     <use xlink:href="#m672d4c0f3c" x="148.932" y="117.973333" style="fill: #7dc87e; stroke: #7dc87e"/>
    </g>
   </g>
   <g id="line2d_143">
    <defs>
     <path id="mc7376c77d4" d="M 0 4 
C 1.060812 4 2.078319 3.578535 2.828427 2.828427 
C 3.578535 2.078319 4 1.060812 4 0 
C 4 -1.060812 3.578535 -2.078319 2.828427 -2.828427 
C 2.078319 -3.578535 1.060812 -4 0 -4 
C -1.060812 -4 -2.078319 -3.578535 -2.828427 -2.828427 
C -3.578535 -2.078319 -4 -1.060812 -4 0 
C -4 1.060812 -3.578535 2.078319 -2.828427 2.828427 
C -2.078319 3.578535 -1.060812 4 0 4 
z
" style="stroke: #78c679"/>
    </defs>
    <g clip-path="url(#p138e473002)">
     <use xlink:href="#mc7376c77d4" x="158.874545" y="103.6" style="fill: #78c679; stroke: #78c679"/>
    </g>
   </g>
   <g id="line2d_144">
    <defs>
     <path id="m1d69d17873" d="M 0 4 
C 1.060812 4 2.078319 3.578535 2.828427 2.828427 
C 3.578535 2.078319 4 1.060812 4 0 
C 4 -1.060812 3.578535 -2.078319 2.828427 -2.828427 
C 2.078319 -3.578535 1.060812 -4 0 -4 
C -1.060812 -4 -2.078319 -3.578535 -2.828427 -2.828427 
C -3.578535 -2.078319 -4 -1.060812 -4 0 
C -4 1.060812 -3.578535 2.078319 -2.828427 2.828427 
C -2.078319 3.578535 -1.060812 4 0 4 
z
" style="stroke: #a3da9d"/>
    </defs>
    <g clip-path="url(#p138e473002)">
     <use xlink:href="#m1d69d17873" x="168.817091" y="103.6" style="fill: #a3da9d; stroke: #a3da9d"/>
    </g>
   </g>
   <g id="line2d_145">
    <defs>
     <path id="m76d389aa80" d="M 0 4 
C 1.060812 4 2.078319 3.578535 2.828427 2.828427 
C 3.578535 2.078319 4 1.060812 4 0 
C 4 -1.060812 3.578535 -2.078319 2.828427 -2.828427 
C 2.078319 -3.578535 1.060812 -4 0 -4 
C -1.060812 -4 -2.078319 -3.578535 -2.828427 -2.828427 
C -3.578535 -2.078319 -4 -1.060812 -4 0 
C -4 1.060812 -3.578535 2.078319 -2.828427 2.828427 
C -2.078319 3.578535 -1.060812 4 0 4 
z
" style="stroke: #cfecc9"/>
    </defs>
    <g clip-path="url(#p138e473002)">
     <use xlink:href="#m76d389aa80" x="178.759636" y="103.6" style="fill: #cfecc9; stroke: #cfecc9"/>
    </g>
   </g>
   <g id="line2d_146">
    <defs>
     <path id="m5b385284a9" d="M 0 4 
C 1.060812 4 2.078319 3.578535 2.828427 2.828427 
C 3.578535 2.078319 4 1.060812 4 0 
C 4 -1.060812 3.578535 -2.078319 2.828427 -2.828427 
C 2.078319 -3.578535 1.060812 -4 0 -4 
C -1.060812 -4 -2.078319 -3.578535 -2.828427 -2.828427 
C -3.578535 -2.078319 -4 -1.060812 -4 0 
C -4 1.060812 -3.578535 2.078319 -2.828427 2.828427 
C -2.078319 3.578535 -1.060812 4 0 4 
z
" style="stroke: #e1f3dc"/>
    </defs>
    <g clip-path="url(#p138e473002)">
     <use xlink:href="#m5b385284a9" x="188.702182" y="103.6" style="fill: #e1f3dc; stroke: #e1f3dc"/>
    </g>
   </g>
   <g id="line2d_147">
    <defs>
     <path id="ma18437ed5b" d="M 0 4 
C 1.060812 4 2.078319 3.578535 2.828427 2.828427 
C 3.578535 2.078319 4 1.060812 4 0 
C 4 -1.060812 3.578535 -2.078319 2.828427 -2.828427 
C 2.078319 -3.578535 1.060812 -4 0 -4 
C -1.060812 -4 -2.078319 -3.578535 -2.828427 -2.828427 
C -3.578535 -2.078319 -4 -1.060812 -4 0 
C -4 1.060812 -3.578535 2.078319 -2.828427 2.828427 
C -2.078319 3.578535 -1.060812 4 0 4 
z
" style="stroke: #eaf7e6"/>
    </defs>
    <g clip-path="url(#p138e473002)">
     <use xlink:href="#ma18437ed5b" x="198.644727" y="103.6" style="fill: #eaf7e6; stroke: #eaf7e6"/>
    </g>
   </g>
   <g id="line2d_148">
    <g clip-path="url(#p138e473002)">
     <use xlink:href="#ma18437ed5b" x="208.587273" y="103.6" style="fill: #eaf7e6; stroke: #eaf7e6"/>
    </g>
   </g>
   <g id="line2d_149">
    <g clip-path="url(#p138e473002)">
     <use xlink:href="#ma18437ed5b" x="218.529818" y="103.6" style="fill: #eaf7e6; stroke: #eaf7e6"/>
    </g>
   </g>
   <g id="line2d_150">
    <defs>
     <path id="m4dd20e3411" d="M 0 4 
C 1.060812 4 2.078319 3.578535 2.828427 2.828427 
C 3.578535 2.078319 4 1.060812 4 0 
C 4 -1.060812 3.578535 -2.078319 2.828427 -2.828427 
C 2.078319 -3.578535 1.060812 -4 0 -4 
C -1.060812 -4 -2.078319 -3.578535 -2.828427 -2.828427 
C -3.578535 -2.078319 -4 -1.060812 -4 0 
C -4 1.060812 -3.578535 2.078319 -2.828427 2.828427 
C -2.078319 3.578535 -1.060812 4 0 4 
z
" style="stroke: #ebf7e7"/>
    </defs>
    <g clip-path="url(#p138e473002)">
     <use xlink:href="#m4dd20e3411" x="228.472364" y="103.6" style="fill: #ebf7e7; stroke: #ebf7e7"/>
    </g>
   </g>
   <g id="line2d_151">
    <defs>
     <path id="m65494d9ddf" d="M 0 4 
C 1.060812 4 2.078319 3.578535 2.828427 2.828427 
C 3.578535 2.078319 4 1.060812 4 0 
C 4 -1.060812 3.578535 -2.078319 2.828427 -2.828427 
C 2.078319 -3.578535 1.060812 -4 0 -4 
C -1.060812 -4 -2.078319 -3.578535 -2.828427 -2.828427 
C -3.578535 -2.078319 -4 -1.060812 -4 0 
C -4 1.060812 -3.578535 2.078319 -2.828427 2.828427 
C -2.078319 3.578535 -1.060812 4 0 4 
z
" style="stroke: #ecf8e8"/>
    </defs>
    <g clip-path="url(#p138e473002)">
     <use xlink:href="#m65494d9ddf" x="238.414909" y="103.6" style="fill: #ecf8e8; stroke: #ecf8e8"/>
    </g>
   </g>
   <g id="line2d_152">
    <defs>
     <path id="mb891e28921" d="M 0 4 
C 1.060812 4 2.078319 3.578535 2.828427 2.828427 
C 3.578535 2.078319 4 1.060812 4 0 
C 4 -1.060812 3.578535 -2.078319 2.828427 -2.828427 
C 2.078319 -3.578535 1.060812 -4 0 -4 
C -1.060812 -4 -2.078319 -3.578535 -2.828427 -2.828427 
C -3.578535 -2.078319 -4 -1.060812 -4 0 
C -4 1.060812 -3.578535 2.078319 -2.828427 2.828427 
C -2.078319 3.578535 -1.060812 4 0 4 
z
" style="stroke: #edf8e9"/>
    </defs>
    <g clip-path="url(#p138e473002)">
     <use xlink:href="#mb891e28921" x="248.357455" y="103.6" style="fill: #edf8e9; stroke: #edf8e9"/>
    </g>
   </g>
   <g id="line2d_153">
    <g clip-path="url(#p138e473002)">
     <use xlink:href="#mb891e28921" x="258.3" y="103.6" style="fill: #edf8e9; stroke: #edf8e9"/>
    </g>
   </g>
   <g id="line2d_154">
    <g clip-path="url(#p138e473002)">
     <use xlink:href="#m65494d9ddf" x="268.242545" y="117.973333" style="fill: #ecf8e8; stroke: #ecf8e8"/>
    </g>
   </g>
   <g id="line2d_155">
    <g clip-path="url(#p138e473002)">
     <use xlink:href="#m4dd20e3411" x="278.185091" y="117.973333" style="fill: #ebf7e7; stroke: #ebf7e7"/>
    </g>
   </g>
   <g id="line2d_156">
    <defs>
     <path id="mff0929df16" d="M 0 4 
C 1.060812 4 2.078319 3.578535 2.828427 2.828427 
C 3.578535 2.078319 4 1.060812 4 0 
C 4 -1.060812 3.578535 -2.078319 2.828427 -2.828427 
C 2.078319 -3.578535 1.060812 -4 0 -4 
C -1.060812 -4 -2.078319 -3.578535 -2.828427 -2.828427 
C -3.578535 -2.078319 -4 -1.060812 -4 0 
C -4 1.060812 -3.578535 2.078319 -2.828427 2.828427 
C -2.078319 3.578535 -1.060812 4 0 4 
z
" style="stroke: #d3eecd"/>
    </defs>
    <g clip-path="url(#p138e473002)">
     <use xlink:href="#mff0929df16" x="288.127636" y="146.72" style="fill: #d3eecd; stroke: #d3eecd"/>
    </g>
   </g>
   <g id="line2d_157">
    <defs>
     <path id="mdf74e1e095" d="M 0 4 
C 1.060812 4 2.078319 3.578535 2.828427 2.828427 
C 3.578535 2.078319 4 1.060812 4 0 
C 4 -1.060812 3.578535 -2.078319 2.828427 -2.828427 
C 2.078319 -3.578535 1.060812 -4 0 -4 
C -1.060812 -4 -2.078319 -3.578535 -2.828427 -2.828427 
C -3.578535 -2.078319 -4 -1.060812 -4 0 
C -4 1.060812 -3.578535 2.078319 -2.828427 2.828427 
C -2.078319 3.578535 -1.060812 4 0 4 
z
" style="stroke: #5bb86a"/>
    </defs>
    <g clip-path="url(#p138e473002)">
     <use xlink:href="#mdf74e1e095" x="298.070182" y="161.093333" style="fill: #5bb86a; stroke: #5bb86a"/>
    </g>
   </g>
   <g id="line2d_158">
    <defs>
     <path id="m53e0d24918" d="M 0 4 
C 1.060812 4 2.078319 3.578535 2.828427 2.828427 
C 3.578535 2.078319 4 1.060812 4 0 
C 4 -1.060812 3.578535 -2.078319 2.828427 -2.828427 
C 2.078319 -3.578535 1.060812 -4 0 -4 
C -1.060812 -4 -2.078319 -3.578535 -2.828427 -2.828427 
C -3.578535 -2.078319 -4 -1.060812 -4 0 
C -4 1.060812 -3.578535 2.078319 -2.828427 2.828427 
C -2.078319 3.578535 -1.060812 4 0 4 
z
" style="stroke: #00441b"/>
    </defs>
    <g clip-path="url(#p138e473002)">
     <use xlink:href="#m53e0d24918" x="308.012727" y="189.84" style="fill: #00441b; stroke: #00441b"/>
    </g>
   </g>
   <g id="line2d_159">
    <g clip-path="url(#p138e473002)">
     <use xlink:href="#m53e0d24918" x="317.955273" y="218.586667" style="fill: #00441b; stroke: #00441b"/>
    </g>
   </g>
   <g id="line2d_160">
    <g clip-path="url(#p138e473002)">
     <use xlink:href="#m53e0d24918" x="327.897818" y="261.706667" style="fill: #00441b; stroke: #00441b"/>
    </g>
   </g>
   <g id="line2d_161">
    <g clip-path="url(#p138e473002)">
     <use xlink:href="#m53e0d24918" x="337.840364" y="304.826667" style="fill: #00441b; stroke: #00441b"/>
    </g>
   </g>
   <g id="line2d_162">
    <g clip-path="url(#p138e473002)">
     <use xlink:href="#m53e0d24918" x="347.782909" y="347.946667" style="fill: #00441b; stroke: #00441b"/>
    </g>
   </g>
   <g id="line2d_163">
    <g clip-path="url(#p138e473002)">
     <use xlink:href="#m53e0d24918" x="357.725455" y="362.32" style="fill: #00441b; stroke: #00441b"/>
    </g>
   </g>
   <g id="line2d_164">
    <g clip-path="url(#p138e473002)">
     <use xlink:href="#m53e0d24918" x="367.668" y="405.44" style="fill: #00441b; stroke: #00441b"/>
    </g>
   </g>
   <g id="line2d_165">
    <defs>
     <path id="m1266d95ee8" d="M 0 4 
C 1.060812 4 2.078319 3.578535 2.828427 2.828427 
C 3.578535 2.078319 4 1.060812 4 0 
C 4 -1.060812 3.578535 -2.078319 2.828427 -2.828427 
C 2.078319 -3.578535 1.060812 -4 0 -4 
C -1.060812 -4 -2.078319 -3.578535 -2.828427 -2.828427 
C -3.578535 -2.078319 -4 -1.060812 -4 0 
C -4 1.060812 -3.578535 2.078319 -2.828427 2.828427 
C -2.078319 3.578535 -1.060812 4 0 4 
z
" style="stroke: #eef8ea"/>
    </defs>
    <g clip-path="url(#p138e473002)">
     <use xlink:href="#m1266d95ee8" x="377.610545" y="434.186667" style="fill: #eef8ea; stroke: #eef8ea"/>
    </g>
   </g>
   <g id="line2d_166">
    <g clip-path="url(#p138e473002)"/>
   </g>
   <g id="line2d_167">
    <g clip-path="url(#p138e473002)"/>
   </g>
   <g id="line2d_168">
    <g clip-path="url(#p138e473002)"/>
   </g>
   <g id="line2d_169">
    <g clip-path="url(#p138e473002)"/>
   </g>
   <g id="line2d_170">
    <g clip-path="url(#p138e473002)"/>
   </g>
   <g id="line2d_171">
    <g clip-path="url(#p138e473002)"/>
   </g>
   <g id="line2d_172">
    <g clip-path="url(#p138e473002)"/>
   </g>
   <g id="patch_3">
    <path d="M 63 448.56 
L 63 60.48 
" style="fill: none; stroke: #000000; stroke-width: 0.8; stroke-linejoin: miter; stroke-linecap: square"/>
   </g>
   <g id="patch_4">
    <path d="M 63 448.56 
L 453.6 448.56 
" style="fill: none; stroke: #000000; stroke-width: 0.8; stroke-linejoin: miter; stroke-linecap: square"/>
   </g>
  </g>
 </g>
 <defs>
  <clipPath id="p138e473002">
   <rect x="63" y="60.48" width="390.6" height="388.08"/>
  </clipPath>
 </defs>
</svg>
