<?xml version="1.0" encoding="utf-8" standalone="no"?>
<!DOCTYPE svg PUBLIC "-//W3C//DTD SVG 1.1//EN"
  "http://www.w3.org/Graphics/SVG/1.1/DTD/svg11.dtd">
<svg xmlns:xlink="http://www.w3.org/1999/xlink" width="504pt" height="504pt" viewBox="0 0 504 504" xmlns="http://www.w3.org/2000/svg" version="1.1">
 <metadata>
  <rdf:RDF xmlns:dc="http://purl.org/dc/elements/1.1/" xmlns:cc="http://creativecommons.org/ns#" xmlns:rdf="http://www.w3.org/1999/02/22-rdf-syntax-ns#">
   <cc:Work>
    <dc:type rdf:resource="http://purl.org/dc/dcmitype/StillImage"/>
    <dc:date>2026-06-23T17:58:30.983320</dc:date>
    <dc:format>image/svg+xml</dc:format>
    <dc:creator>
     <cc:Agent>
      <dc:title>Matplotlib v3.11.0, https://matplotlib.org/</dc:title>
     </cc:Agent>
    </dc:creator>
   </cc:Work>
  </rdf:RDF>
 </metadata>
 <defs>
  <style type="text/css">*{stroke-linejoin: round; stroke-linecap: butt}</style>
 </defs>
 <g id="figure_1">
  <g id="patch_1">
   <path d="M 0 504 
L 504 504 
L 504 0 
L 0 0 
L 0 504 
z
" style="fill: none"/>
  </g>
  <g id="axes_1">
   <g id="patch_2">
    <path d="M 63 448.56 
L 453.6 448.56 
L 453.6 60.48 
L 63 60.48 
L 63 448.56 
z
" style="fill: none"/>
   </g>
   <g id="matplotlib.axis_1">
    <g id="xtick_1">
     <g id="line2d_1">
      <defs>
       <path id="m7819730a55" d="M 0 0 
L 0 3.5 
" style="stroke: #000000; stroke-width: 0.8"/>
      </defs>
      <g>
       <use xlink:href="#m7819730a55" x="63" y="448.56" style="stroke: #000000; stroke-width: 0.8"/>
      </g>
     </g>
     <g id="text_1">
      <text style="font-size: 16px; font-family: 'Arial', sans-serif; text-anchor: middle" x="63" y="467.71625" transform="rotate(-0 63 467.71625)">1 Apr</text>
     </g>
    </g>
    <g id="xtick_2">
     <g id="line2d_2">
      <g>
       <use xlink:href="#m7819730a55" x="105.610909" y="448.56" style="stroke: #000000; stroke-width: 0.8"/>
      </g>
     </g>
    </g>
    <g id="xtick_3">
     <g id="line2d_3">
      <g>
       <use xlink:href="#m7819730a55" x="149.642182" y="448.56" style="stroke: #000000; stroke-width: 0.8"/>
      </g>
     </g>
     <g id="text_2">
      <text style="font-size: 16px; font-family: 'Arial', sans-serif; text-anchor: middle" x="149.642182" y="467.71625" transform="rotate(-0 149.642182 467.71625)">1 Jun</text>
     </g>
    </g>
    <g id="xtick_4">
     <g id="line2d_4">
      <g>
       <use xlink:href="#m7819730a55" x="192.253091" y="448.56" style="stroke: #000000; stroke-width: 0.8"/>
      </g>
     </g>
    </g>
    <g id="xtick_5">
     <g id="line2d_5">
      <g>
       <use xlink:href="#m7819730a55" x="236.284364" y="448.56" style="stroke: #000000; stroke-width: 0.8"/>
      </g>
     </g>
     <g id="text_3">
      <text style="font-size: 16px; font-family: 'Arial', sans-serif; text-anchor: middle" x="236.284364" y="467.71625" transform="rotate(-0 236.284364 467.71625)">1 Aug</text>
     </g>
    </g>
    <g id="xtick_6">
     <g id="line2d_6">
      <g>
       <use xlink:href="#m7819730a55" x="280.315636" y="448.56" style="stroke: #000000; stroke-width: 0.8"/>
      </g>
     </g>
    </g>
    <g id="xtick_7">
     <g id="line2d_7">
      <g>
       <use xlink:href="#m7819730a55" x="322.926545" y="448.56" style="stroke: #000000; stroke-width: 0.8"/>
      </g>
     </g>
     <g id="text_4">
      <text style="font-size: 16px; font-family: 'Arial', sans-serif; text-anchor: middle" x="322.926545" y="467.71625" transform="rotate(-0 322.926545 467.71625)">1 Oct</text>
     </g>
    </g>
    <g id="xtick_8">
     <g id="line2d_8">
      <g>
       <use xlink:href="#m7819730a55" x="366.957818" y="448.56" style="stroke: #000000; stroke-width: 0.8"/>
      </g>
     </g>
    </g>
    <g id="xtick_9">
     <g id="line2d_9">
      <g>
       <use xlink:href="#m7819730a55" x="409.568727" y="448.56" style="stroke: #000000; stroke-width: 0.8"/>
      </g>
     </g>
     <g id="text_5">
      <text style="font-size: 16px; font-family: 'Arial', sans-serif; text-anchor: middle" x="409.568727" y="467.71625" transform="rotate(-0 409.568727 467.71625)">1 Dec</text>
     </g>
    </g>
    <g id="xtick_10">
     <g id="line2d_10">
      <g>
       <use xlink:href="#m7819730a55" x="453.6" y="448.56" style="stroke: #000000; stroke-width: 0.8"/>
      </g>
     </g>
    </g>
    <g id="text_6">
     <text style="font-size: 16px; font-family: 'Arial', sans-serif; text-anchor: middle" x="258.3" y="487.7175" transform="rotate(-0 258.3 487.7175)">Week of last observed case</text>
    </g>
   </g>
   <g id="matplotlib.axis_2">
    <g id="ytick_1">
     <g id="line2d_11">
      <defs>
       <path id="ma3e285c263" d="M 0 0 
L -3.5 0 
" style="stroke: #000000; stroke-width: 0.8"/>
      </defs>
      <g>
       <use xlink:href="#ma3e285c263" x="63" y="448.56" style="stroke: #000000; stroke-width: 0.8"/>
      </g>
     </g>
     <g id="text_7">
      <text style="font-size: 16px; font-family: 'Arial', sans-serif; text-anchor: end" x="56" y="454.638125" transform="rotate(-0 56 454.638125)">0</text>
     </g>
    </g>
    <g id="ytick_2">
     <g id="line2d_12">
      <g>
       <use xlink:href="#ma3e285c263" x="63" y="385.966452" style="stroke: #000000; stroke-width: 0.8"/>
      </g>
     </g>
     <g id="text_8">
      <text style="font-size: 16px; font-family: 'Arial', sans-serif; text-anchor: end" x="56" y="392.044577" transform="rotate(-0 56 392.044577)">5</text>
     </g>
    </g>
    <g id="ytick_3">
     <g id="line2d_13">
      <g>
       <use xlink:href="#ma3e285c263" x="63" y="323.372903" style="stroke: #000000; stroke-width: 0.8"/>
      </g>
     </g>
     <g id="text_9">
      <text style="font-size: 16px; font-family: 'Arial', sans-serif; text-anchor: end" x="56" y="329.451028" transform="rotate(-0 56 329.451028)">10</text>
     </g>
    </g>
    <g id="ytick_4">
     <g id="line2d_14">
      <g>
       <use xlink:href="#ma3e285c263" x="63" y="260.779355" style="stroke: #000000; stroke-width: 0.8"/>
      </g>
     </g>
     <g id="text_10">
      <text style="font-size: 16px; font-family: 'Arial', sans-serif; text-anchor: end" x="56" y="266.85748" transform="rotate(-0 56 266.85748)">15</text>
     </g>
    </g>
    <g id="ytick_5">
     <g id="line2d_15">
      <g>
       <use xlink:href="#ma3e285c263" x="63" y="198.185806" style="stroke: #000000; stroke-width: 0.8"/>
      </g>
     </g>
     <g id="text_11">
      <text style="font-size: 16px; font-family: 'Arial', sans-serif; text-anchor: end" x="56" y="204.263931" transform="rotate(-0 56 204.263931)">20</text>
     </g>
    </g>
    <g id="ytick_6">
     <g id="line2d_16">
      <g>
       <use xlink:href="#ma3e285c263" x="63" y="135.592258" style="stroke: #000000; stroke-width: 0.8"/>
      </g>
     </g>
     <g id="text_12">
      <text style="font-size: 16px; font-family: 'Arial', sans-serif; text-anchor: end" x="56" y="141.670383" transform="rotate(-0 56 141.670383)">25</text>
     </g>
    </g>
    <g id="ytick_7">
     <g id="line2d_17">
      <g>
       <use xlink:href="#ma3e285c263" x="63" y="72.99871" style="stroke: #000000; stroke-width: 0.8"/>
      </g>
     </g>
     <g id="text_13">
      <text style="font-size: 16px; font-family: 'Arial', sans-serif; text-anchor: end" x="56" y="79.076835" transform="rotate(-0 56 79.076835)">30</text>
     </g>
    </g>
    <g id="text_14">
     <text style="font-size: 16px; font-family: 'Arial', sans-serif" transform="translate(6.990312 373.18) rotate(-90)">Days from last observed case</text>
     <text style="font-size: 16px; font-family: 'Arial', sans-serif" transform="translate(26.194687 374.39) rotate(-90)">until risk falls below threshold</text>
    </g>
   </g>
   <g id="LineCollection_1">
    <path clip-path="url(#pecb76aa23c)" style="fill: none; stroke: #f7fcf5; stroke-width: 2"/>
   </g>
   <g id="line2d_18">
    <defs>
     <path id="m917af05b8b" d="M 3 0 
L -3 -0 
" style="stroke: #f7fcf5"/>
    </defs>
    <g clip-path="url(#pecb76aa23c)"/>
   </g>
   <g id="line2d_19">
    <g clip-path="url(#pecb76aa23c)"/>
   </g>
   <g id="LineCollection_2">
    <path clip-path="url(#pecb76aa23c)" style="fill: none; stroke: #f7fcf5; stroke-width: 2"/>
   </g>
   <g id="line2d_20">
    <g clip-path="url(#pecb76aa23c)"/>
   </g>
   <g id="line2d_21">
    <g clip-path="url(#pecb76aa23c)"/>
   </g>
   <g id="LineCollection_3">
    <path clip-path="url(#pecb76aa23c)" style="fill: none; stroke: #f7fcf5; stroke-width: 2"/>
   </g>
   <g id="line2d_22">
    <g clip-path="url(#pecb76aa23c)"/>
   </g>
   <g id="line2d_23">
    <g clip-path="url(#pecb76aa23c)"/>
   </g>
   <g id="LineCollection_4">
    <path clip-path="url(#pecb76aa23c)" style="fill: none; stroke: #f7fcf5; stroke-width: 2"/>
   </g>
   <g id="line2d_24">
    <g clip-path="url(#pecb76aa23c)"/>
   </g>
   <g id="line2d_25">
    <g clip-path="url(#pecb76aa23c)"/>
   </g>
   <g id="LineCollection_5">
    <path clip-path="url(#pecb76aa23c)" style="fill: none; stroke: #f7fcf5; stroke-width: 2"/>
   </g>
   <g id="line2d_26">
    <g clip-path="url(#pecb76aa23c)"/>
   </g>
   <g id="line2d_27">
    <g clip-path="url(#pecb76aa23c)"/>
   </g>
   <g id="LineCollection_6">
    <path clip-path="url(#pecb76aa23c)" style="fill: none; stroke: #f7fcf5; stroke-width: 2"/>
   </g>
   <g id="line2d_28">
    <g clip-path="url(#pecb76aa23c)"/>
   </g>
   <g id="line2d_29">
    <g clip-path="url(#pecb76aa23c)"/>
   </g>
   <g id="LineCollection_7">
    <path clip-path="url(#pecb76aa23c)" style="fill: none; stroke: #f7fcf5; stroke-width: 2"/>
   </g>
   <g id="line2d_30">
    <g clip-path="url(#pecb76aa23c)"/>
   </g>
   <g id="line2d_31">
    <g clip-path="url(#pecb76aa23c)"/>
   </g>
   <g id="LineCollection_8">
    <path clip-path="url(#pecb76aa23c)" style="fill: none; stroke: #f7fcf5; stroke-width: 2"/>
   </g>
   <g id="line2d_32">
    <g clip-path="url(#pecb76aa23c)"/>
   </g>
   <g id="line2d_33">
    <g clip-path="url(#pecb76aa23c)"/>
   </g>
   <g id="LineCollection_9">
    <path clip-path="url(#pecb76aa23c)" style="fill: none; stroke: #f7fcf5; stroke-width: 2"/>
   </g>
   <g id="line2d_34">
    <g clip-path="url(#pecb76aa23c)"/>
   </g>
   <g id="line2d_35">
    <g clip-path="url(#pecb76aa23c)"/>
   </g>
   <g id="LineCollection_10">
    <path clip-path="url(#pecb76aa23c)" style="fill: none; stroke: #f7fcf5; stroke-width: 2"/>
   </g>
   <g id="line2d_36">
    <g clip-path="url(#pecb76aa23c)"/>
   </g>
   <g id="line2d_37">
    <g clip-path="url(#pecb76aa23c)"/>
   </g>
   <g id="LineCollection_11">
    <path clip-path="url(#pecb76aa23c)" style="fill: none; stroke: #f7fcf5; stroke-width: 2"/>
   </g>
   <g id="line2d_38">
    <g clip-path="url(#pecb76aa23c)"/>
   </g>
   <g id="line2d_39">
    <g clip-path="url(#pecb76aa23c)"/>
   </g>
   <g id="LineCollection_12">
    <path clip-path="url(#pecb76aa23c)" style="fill: none; stroke: #f7fcf5; stroke-width: 2"/>
   </g>
   <g id="line2d_40">
    <g clip-path="url(#pecb76aa23c)"/>
   </g>
   <g id="line2d_41">
    <g clip-path="url(#pecb76aa23c)"/>
   </g>
   <g id="LineCollection_13">
    <path clip-path="url(#pecb76aa23c)" style="fill: none; stroke: #f7fcf5; stroke-width: 2"/>
   </g>
   <g id="line2d_42">
    <g clip-path="url(#pecb76aa23c)"/>
   </g>
   <g id="line2d_43">
    <g clip-path="url(#pecb76aa23c)"/>
   </g>
   <g id="LineCollection_14">
    <path clip-path="url(#pecb76aa23c)" style="fill: none; stroke: #f7fcf5; stroke-width: 2"/>
   </g>
   <g id="line2d_44">
    <g clip-path="url(#pecb76aa23c)"/>
   </g>
   <g id="line2d_45">
    <g clip-path="url(#pecb76aa23c)"/>
   </g>
   <g id="LineCollection_15">
    <path clip-path="url(#pecb76aa23c)" style="fill: none; stroke: #f7fcf5; stroke-width: 2"/>
   </g>
   <g id="line2d_46">
    <g clip-path="url(#pecb76aa23c)"/>
   </g>
   <g id="line2d_47">
    <g clip-path="url(#pecb76aa23c)"/>
   </g>
   <g id="LineCollection_16">
    <path clip-path="url(#pecb76aa23c)" style="fill: none; stroke: #f7fcf5; stroke-width: 2"/>
   </g>
   <g id="line2d_48">
    <g clip-path="url(#pecb76aa23c)"/>
   </g>
   <g id="line2d_49">
    <g clip-path="url(#pecb76aa23c)"/>
   </g>
   <g id="LineCollection_17">
    <path clip-path="url(#pecb76aa23c)" style="fill: none; stroke: #f7fcf5; stroke-width: 2"/>
   </g>
   <g id="line2d_50">
    <g clip-path="url(#pecb76aa23c)"/>
   </g>
   <g id="line2d_51">
    <g clip-path="url(#pecb76aa23c)"/>
   </g>
   <g id="LineCollection_18">
    <path d="M 109.161818 185.667097 
L 109.161818 185.667097 
" clip-path="url(#pecb76aa23c)" style="fill: none; stroke: #f7fcf5; stroke-width: 2"/>
   </g>
   <g id="line2d_52">
    <g clip-path="url(#pecb76aa23c)">
     <use xlink:href="#m917af05b8b" x="109.161818" y="185.667097" style="fill: #f7fcf5; stroke: #f7fcf5"/>
    </g>
   </g>
   <g id="line2d_53">
    <g clip-path="url(#pecb76aa23c)">
     <use xlink:href="#m917af05b8b" x="109.161818" y="185.667097" style="fill: #f7fcf5; stroke: #f7fcf5"/>
    </g>
   </g>
   <g id="LineCollection_19">
    <path d="M 119.104364 177.529935 
L 119.104364 148.110968 
" clip-path="url(#pecb76aa23c)" style="fill: none; stroke: #f4fbf1; stroke-width: 2"/>
   </g>
   <g id="line2d_54">
    <defs>
     <path id="m7c59095608" d="M 3 0 
L -3 -0 
" style="stroke: #f4fbf1"/>
    </defs>
    <g clip-path="url(#pecb76aa23c)">
     <use xlink:href="#m7c59095608" x="119.104364" y="177.529935" style="fill: #f4fbf1; stroke: #f4fbf1"/>
    </g>
   </g>
   <g id="line2d_55">
    <g clip-path="url(#pecb76aa23c)">
     <use xlink:href="#m7c59095608" x="119.104364" y="148.110968" style="fill: #f4fbf1; stroke: #f4fbf1"/>
    </g>
   </g>
   <g id="LineCollection_20">
    <path d="M 129.046909 148.110968 
L 129.046909 123.073548 
" clip-path="url(#pecb76aa23c)" style="fill: none; stroke: #e8f6e4; stroke-width: 2"/>
   </g>
   <g id="line2d_56">
    <defs>
     <path id="mbcaef329d9" d="M 3 0 
L -3 -0 
" style="stroke: #e8f6e4"/>
    </defs>
    <g clip-path="url(#pecb76aa23c)">
     <use xlink:href="#mbcaef329d9" x="129.046909" y="148.110968" style="fill: #e8f6e4; stroke: #e8f6e4"/>
    </g>
   </g>
   <g id="line2d_57">
    <g clip-path="url(#pecb76aa23c)">
     <use xlink:href="#mbcaef329d9" x="129.046909" y="123.073548" style="fill: #e8f6e4; stroke: #e8f6e4"/>
    </g>
   </g>
   <g id="LineCollection_21">
    <path d="M 138.989455 123.073548 
L 138.989455 110.554839 
" clip-path="url(#pecb76aa23c)" style="fill: none; stroke: #c3e7bc; stroke-width: 2"/>
   </g>
   <g id="line2d_58">
    <defs>
     <path id="m6f0e6b4b4b" d="M 3 0 
L -3 -0 
" style="stroke: #c3e7bc"/>
    </defs>
    <g clip-path="url(#pecb76aa23c)">
     <use xlink:href="#m6f0e6b4b4b" x="138.989455" y="123.073548" style="fill: #c3e7bc; stroke: #c3e7bc"/>
    </g>
   </g>
   <g id="line2d_59">
    <g clip-path="url(#pecb76aa23c)">
     <use xlink:href="#m6f0e6b4b4b" x="138.989455" y="110.554839" style="fill: #c3e7bc; stroke: #c3e7bc"/>
    </g>
   </g>
   <g id="LineCollection_22">
    <path d="M 148.932 110.554839 
L 148.932 98.036129 
" clip-path="url(#pecb76aa23c)" style="fill: none; stroke: #7dc87e; stroke-width: 2"/>
   </g>
   <g id="line2d_60">
    <defs>
     <path id="m8eb598c2c8" d="M 3 0 
L -3 -0 
" style="stroke: #7dc87e"/>
    </defs>
    <g clip-path="url(#pecb76aa23c)">
     <use xlink:href="#m8eb598c2c8" x="148.932" y="110.554839" style="fill: #7dc87e; stroke: #7dc87e"/>
    </g>
   </g>
   <g id="line2d_61">
    <g clip-path="url(#pecb76aa23c)">
     <use xlink:href="#m8eb598c2c8" x="148.932" y="98.036129" style="fill: #7dc87e; stroke: #7dc87e"/>
    </g>
   </g>
   <g id="LineCollection_23">
    <path d="M 158.874545 98.036129 
L 158.874545 98.036129 
" clip-path="url(#pecb76aa23c)" style="fill: none; stroke: #78c679; stroke-width: 2"/>
   </g>
   <g id="line2d_62">
    <defs>
     <path id="me65d9f3abc" d="M 3 0 
L -3 -0 
" style="stroke: #78c679"/>
    </defs>
    <g clip-path="url(#pecb76aa23c)">
     <use xlink:href="#me65d9f3abc" x="158.874545" y="98.036129" style="fill: #78c679; stroke: #78c679"/>
    </g>
   </g>
   <g id="line2d_63">
    <g clip-path="url(#pecb76aa23c)">
     <use xlink:href="#me65d9f3abc" x="158.874545" y="98.036129" style="fill: #78c679; stroke: #78c679"/>
    </g>
   </g>
   <g id="LineCollection_24">
    <path d="M 168.817091 98.036129 
L 168.817091 85.517419 
" clip-path="url(#pecb76aa23c)" style="fill: none; stroke: #a3da9d; stroke-width: 2"/>
   </g>
   <g id="line2d_64">
    <defs>
     <path id="m2fdd876e71" d="M 3 0 
L -3 -0 
" style="stroke: #a3da9d"/>
    </defs>
    <g clip-path="url(#pecb76aa23c)">
     <use xlink:href="#m2fdd876e71" x="168.817091" y="98.036129" style="fill: #a3da9d; stroke: #a3da9d"/>
    </g>
   </g>
   <g id="line2d_65">
    <g clip-path="url(#pecb76aa23c)">
     <use xlink:href="#m2fdd876e71" x="168.817091" y="85.517419" style="fill: #a3da9d; stroke: #a3da9d"/>
    </g>
   </g>
   <g id="LineCollection_25">
    <path d="M 178.759636 98.036129 
L 178.759636 98.036129 
" clip-path="url(#pecb76aa23c)" style="fill: none; stroke: #cfecc9; stroke-width: 2"/>
   </g>
   <g id="line2d_66">
    <defs>
     <path id="m9be3dee09f" d="M 3 0 
L -3 -0 
" style="stroke: #cfecc9"/>
    </defs>
    <g clip-path="url(#pecb76aa23c)">
     <use xlink:href="#m9be3dee09f" x="178.759636" y="98.036129" style="fill: #cfecc9; stroke: #cfecc9"/>
    </g>
   </g>
   <g id="line2d_67">
    <g clip-path="url(#pecb76aa23c)">
     <use xlink:href="#m9be3dee09f" x="178.759636" y="98.036129" style="fill: #cfecc9; stroke: #cfecc9"/>
    </g>
   </g>
   <g id="LineCollection_26">
    <path d="M 188.702182 98.036129 
L 188.702182 85.517419 
" clip-path="url(#pecb76aa23c)" style="fill: none; stroke: #e1f3dc; stroke-width: 2"/>
   </g>
   <g id="line2d_68">
    <defs>
     <path id="m3c771e6ead" d="M 3 0 
L -3 -0 
" style="stroke: #e1f3dc"/>
    </defs>
    <g clip-path="url(#pecb76aa23c)">
     <use xlink:href="#m3c771e6ead" x="188.702182" y="98.036129" style="fill: #e1f3dc; stroke: #e1f3dc"/>
    </g>
   </g>
   <g id="line2d_69">
    <g clip-path="url(#pecb76aa23c)">
     <use xlink:href="#m3c771e6ead" x="188.702182" y="85.517419" style="fill: #e1f3dc; stroke: #e1f3dc"/>
    </g>
   </g>
   <g id="LineCollection_27">
    <path d="M 198.644727 98.036129 
L 198.644727 89.273032 
" clip-path="url(#pecb76aa23c)" style="fill: none; stroke: #eaf7e6; stroke-width: 2"/>
   </g>
   <g id="line2d_70">
    <defs>
     <path id="m9997ea6ea0" d="M 3 0 
L -3 -0 
" style="stroke: #eaf7e6"/>
    </defs>
    <g clip-path="url(#pecb76aa23c)">
     <use xlink:href="#m9997ea6ea0" x="198.644727" y="98.036129" style="fill: #eaf7e6; stroke: #eaf7e6"/>
    </g>
   </g>
   <g id="line2d_71">
    <g clip-path="url(#pecb76aa23c)">
     <use xlink:href="#m9997ea6ea0" x="198.644727" y="89.273032" style="fill: #eaf7e6; stroke: #eaf7e6"/>
    </g>
   </g>
   <g id="LineCollection_28">
    <path d="M 208.587273 98.036129 
L 208.587273 88.960065 
" clip-path="url(#pecb76aa23c)" style="fill: none; stroke: #eaf7e6; stroke-width: 2"/>
   </g>
   <g id="line2d_72">
    <g clip-path="url(#pecb76aa23c)">
     <use xlink:href="#m9997ea6ea0" x="208.587273" y="98.036129" style="fill: #eaf7e6; stroke: #eaf7e6"/>
    </g>
   </g>
   <g id="line2d_73">
    <g clip-path="url(#pecb76aa23c)">
     <use xlink:href="#m9997ea6ea0" x="208.587273" y="88.960065" style="fill: #eaf7e6; stroke: #eaf7e6"/>
    </g>
   </g>
   <g id="LineCollection_29">
    <path d="M 218.529818 98.036129 
L 218.529818 85.517419 
" clip-path="url(#pecb76aa23c)" style="fill: none; stroke: #eaf7e6; stroke-width: 2"/>
   </g>
   <g id="line2d_74">
    <g clip-path="url(#pecb76aa23c)">
     <use xlink:href="#m9997ea6ea0" x="218.529818" y="98.036129" style="fill: #eaf7e6; stroke: #eaf7e6"/>
    </g>
   </g>
   <g id="line2d_75">
    <g clip-path="url(#pecb76aa23c)">
     <use xlink:href="#m9997ea6ea0" x="218.529818" y="85.517419" style="fill: #eaf7e6; stroke: #eaf7e6"/>
    </g>
   </g>
   <g id="LineCollection_30">
    <path d="M 228.472364 98.036129 
L 228.472364 98.036129 
" clip-path="url(#pecb76aa23c)" style="fill: none; stroke: #ebf7e7; stroke-width: 2"/>
   </g>
   <g id="line2d_76">
    <defs>
     <path id="m360cce28fa" d="M 3 0 
L -3 -0 
" style="stroke: #ebf7e7"/>
    </defs>
    <g clip-path="url(#pecb76aa23c)">
     <use xlink:href="#m360cce28fa" x="228.472364" y="98.036129" style="fill: #ebf7e7; stroke: #ebf7e7"/>
    </g>
   </g>
   <g id="line2d_77">
    <g clip-path="url(#pecb76aa23c)">
     <use xlink:href="#m360cce28fa" x="228.472364" y="98.036129" style="fill: #ebf7e7; stroke: #ebf7e7"/>
    </g>
   </g>
   <g id="LineCollection_31">
    <path d="M 238.414909 98.036129 
L 238.414909 85.517419 
" clip-path="url(#pecb76aa23c)" style="fill: none; stroke: #ecf8e8; stroke-width: 2"/>
   </g>
   <g id="line2d_78">
    <defs>
     <path id="m277a479b03" d="M 3 0 
L -3 -0 
" style="stroke: #ecf8e8"/>
    </defs>
    <g clip-path="url(#pecb76aa23c)">
     <use xlink:href="#m277a479b03" x="238.414909" y="98.036129" style="fill: #ecf8e8; stroke: #ecf8e8"/>
    </g>
   </g>
   <g id="line2d_79">
    <g clip-path="url(#pecb76aa23c)">
     <use xlink:href="#m277a479b03" x="238.414909" y="85.517419" style="fill: #ecf8e8; stroke: #ecf8e8"/>
    </g>
   </g>
   <g id="LineCollection_32">
    <path d="M 248.357455 98.036129 
L 248.357455 95.845355 
" clip-path="url(#pecb76aa23c)" style="fill: none; stroke: #edf8e9; stroke-width: 2"/>
   </g>
   <g id="line2d_80">
    <defs>
     <path id="md93d4a08e7" d="M 3 0 
L -3 -0 
" style="stroke: #edf8e9"/>
    </defs>
    <g clip-path="url(#pecb76aa23c)">
     <use xlink:href="#md93d4a08e7" x="248.357455" y="98.036129" style="fill: #edf8e9; stroke: #edf8e9"/>
    </g>
   </g>
   <g id="line2d_81">
    <g clip-path="url(#pecb76aa23c)">
     <use xlink:href="#md93d4a08e7" x="248.357455" y="95.845355" style="fill: #edf8e9; stroke: #edf8e9"/>
    </g>
   </g>
   <g id="LineCollection_33">
    <path d="M 258.3 110.554839 
L 258.3 85.517419 
" clip-path="url(#pecb76aa23c)" style="fill: none; stroke: #edf8e9; stroke-width: 2"/>
   </g>
   <g id="line2d_82">
    <g clip-path="url(#pecb76aa23c)">
     <use xlink:href="#md93d4a08e7" x="258.3" y="110.554839" style="fill: #edf8e9; stroke: #edf8e9"/>
    </g>
   </g>
   <g id="line2d_83">
    <g clip-path="url(#pecb76aa23c)">
     <use xlink:href="#md93d4a08e7" x="258.3" y="85.517419" style="fill: #edf8e9; stroke: #edf8e9"/>
    </g>
   </g>
   <g id="LineCollection_34">
    <path d="M 268.242545 110.554839 
L 268.242545 98.036129 
" clip-path="url(#pecb76aa23c)" style="fill: none; stroke: #ecf8e8; stroke-width: 2"/>
   </g>
   <g id="line2d_84">
    <g clip-path="url(#pecb76aa23c)">
     <use xlink:href="#m277a479b03" x="268.242545" y="110.554839" style="fill: #ecf8e8; stroke: #ecf8e8"/>
    </g>
   </g>
   <g id="line2d_85">
    <g clip-path="url(#pecb76aa23c)">
     <use xlink:href="#m277a479b03" x="268.242545" y="98.036129" style="fill: #ecf8e8; stroke: #ecf8e8"/>
    </g>
   </g>
   <g id="LineCollection_35">
    <path d="M 278.185091 123.073548 
L 278.185091 110.554839 
" clip-path="url(#pecb76aa23c)" style="fill: none; stroke: #ebf7e7; stroke-width: 2"/>
   </g>
   <g id="line2d_86">
    <g clip-path="url(#pecb76aa23c)">
     <use xlink:href="#m360cce28fa" x="278.185091" y="123.073548" style="fill: #ebf7e7; stroke: #ebf7e7"/>
    </g>
   </g>
   <g id="line2d_87">
    <g clip-path="url(#pecb76aa23c)">
     <use xlink:href="#m360cce28fa" x="278.185091" y="110.554839" style="fill: #ebf7e7; stroke: #ebf7e7"/>
    </g>
   </g>
   <g id="LineCollection_36">
    <path d="M 288.127636 148.110968 
L 288.127636 123.073548 
" clip-path="url(#pecb76aa23c)" style="fill: none; stroke: #d3eecd; stroke-width: 2"/>
   </g>
   <g id="line2d_88">
    <defs>
     <path id="m5793dbd853" d="M 3 0 
L -3 -0 
" style="stroke: #d3eecd"/>
    </defs>
    <g clip-path="url(#pecb76aa23c)">
     <use xlink:href="#m5793dbd853" x="288.127636" y="148.110968" style="fill: #d3eecd; stroke: #d3eecd"/>
    </g>
   </g>
   <g id="line2d_89">
    <g clip-path="url(#pecb76aa23c)">
     <use xlink:href="#m5793dbd853" x="288.127636" y="123.073548" style="fill: #d3eecd; stroke: #d3eecd"/>
    </g>
   </g>
   <g id="LineCollection_37">
    <path d="M 298.070182 160.629677 
L 298.070182 148.110968 
" clip-path="url(#pecb76aa23c)" style="fill: none; stroke: #5bb86a; stroke-width: 2"/>
   </g>
   <g id="line2d_90">
    <defs>
     <path id="m5a683d8c09" d="M 3 0 
L -3 -0 
" style="stroke: #5bb86a"/>
    </defs>
    <g clip-path="url(#pecb76aa23c)">
     <use xlink:href="#m5a683d8c09" x="298.070182" y="160.629677" style="fill: #5bb86a; stroke: #5bb86a"/>
    </g>
   </g>
   <g id="line2d_91">
    <g clip-path="url(#pecb76aa23c)">
     <use xlink:href="#m5a683d8c09" x="298.070182" y="148.110968" style="fill: #5bb86a; stroke: #5bb86a"/>
    </g>
   </g>
   <g id="LineCollection_38">
    <path d="M 308.012727 198.185806 
L 308.012727 160.629677 
" clip-path="url(#pecb76aa23c)" style="fill: none; stroke: #00441b; stroke-width: 2"/>
   </g>
   <g id="line2d_92">
    <defs>
     <path id="m56532434ea" d="M 3 0 
L -3 -0 
" style="stroke: #00441b"/>
    </defs>
    <g clip-path="url(#pecb76aa23c)">
     <use xlink:href="#m56532434ea" x="308.012727" y="198.185806" style="fill: #00441b; stroke: #00441b"/>
    </g>
   </g>
   <g id="line2d_93">
    <g clip-path="url(#pecb76aa23c)">
     <use xlink:href="#m56532434ea" x="308.012727" y="160.629677" style="fill: #00441b; stroke: #00441b"/>
    </g>
   </g>
   <g id="LineCollection_39">
    <path d="M 317.955273 223.223226 
L 317.955273 185.667097 
" clip-path="url(#pecb76aa23c)" style="fill: none; stroke: #00441b; stroke-width: 2"/>
   </g>
   <g id="line2d_94">
    <g clip-path="url(#pecb76aa23c)">
     <use xlink:href="#m56532434ea" x="317.955273" y="223.223226" style="fill: #00441b; stroke: #00441b"/>
    </g>
   </g>
   <g id="line2d_95">
    <g clip-path="url(#pecb76aa23c)">
     <use xlink:href="#m56532434ea" x="317.955273" y="185.667097" style="fill: #00441b; stroke: #00441b"/>
    </g>
   </g>
   <g id="LineCollection_40">
    <path d="M 327.897818 273.298065 
L 327.897818 210.704516 
" clip-path="url(#pecb76aa23c)" style="fill: none; stroke: #00441b; stroke-width: 2"/>
   </g>
   <g id="line2d_96">
    <g clip-path="url(#pecb76aa23c)">
     <use xlink:href="#m56532434ea" x="327.897818" y="273.298065" style="fill: #00441b; stroke: #00441b"/>
    </g>
   </g>
   <g id="line2d_97">
    <g clip-path="url(#pecb76aa23c)">
     <use xlink:href="#m56532434ea" x="327.897818" y="210.704516" style="fill: #00441b; stroke: #00441b"/>
    </g>
   </g>
   <g id="LineCollection_41">
    <path d="M 337.840364 323.372903 
L 337.840364 248.260645 
" clip-path="url(#pecb76aa23c)" style="fill: none; stroke: #00441b; stroke-width: 2"/>
   </g>
   <g id="line2d_98">
    <g clip-path="url(#pecb76aa23c)">
     <use xlink:href="#m56532434ea" x="337.840364" y="323.372903" style="fill: #00441b; stroke: #00441b"/>
    </g>
   </g>
   <g id="line2d_99">
    <g clip-path="url(#pecb76aa23c)">
     <use xlink:href="#m56532434ea" x="337.840364" y="248.260645" style="fill: #00441b; stroke: #00441b"/>
    </g>
   </g>
   <g id="LineCollection_42">
    <path d="M 347.782909 385.966452 
L 347.782909 273.298065 
" clip-path="url(#pecb76aa23c)" style="fill: none; stroke: #00441b; stroke-width: 2"/>
   </g>
   <g id="line2d_100">
    <g clip-path="url(#pecb76aa23c)">
     <use xlink:href="#m56532434ea" x="347.782909" y="385.966452" style="fill: #00441b; stroke: #00441b"/>
    </g>
   </g>
   <g id="line2d_101">
    <g clip-path="url(#pecb76aa23c)">
     <use xlink:href="#m56532434ea" x="347.782909" y="273.298065" style="fill: #00441b; stroke: #00441b"/>
    </g>
   </g>
   <g id="LineCollection_43">
    <path d="M 357.725455 411.003871 
L 357.725455 310.854194 
" clip-path="url(#pecb76aa23c)" style="fill: none; stroke: #00441b; stroke-width: 2"/>
   </g>
   <g id="line2d_102">
    <g clip-path="url(#pecb76aa23c)">
     <use xlink:href="#m56532434ea" x="357.725455" y="411.003871" style="fill: #00441b; stroke: #00441b"/>
    </g>
   </g>
   <g id="line2d_103">
    <g clip-path="url(#pecb76aa23c)">
     <use xlink:href="#m56532434ea" x="357.725455" y="310.854194" style="fill: #00441b; stroke: #00441b"/>
    </g>
   </g>
   <g id="LineCollection_44">
    <path d="M 367.668 436.04129 
L 367.668 360.929032 
" clip-path="url(#pecb76aa23c)" style="fill: none; stroke: #00441b; stroke-width: 2"/>
   </g>
   <g id="line2d_104">
    <g clip-path="url(#pecb76aa23c)">
     <use xlink:href="#m56532434ea" x="367.668" y="436.04129" style="fill: #00441b; stroke: #00441b"/>
    </g>
   </g>
   <g id="line2d_105">
    <g clip-path="url(#pecb76aa23c)">
     <use xlink:href="#m56532434ea" x="367.668" y="360.929032" style="fill: #00441b; stroke: #00441b"/>
    </g>
   </g>
   <g id="LineCollection_45">
    <path d="M 377.610545 436.04129 
L 377.610545 436.04129 
" clip-path="url(#pecb76aa23c)" style="fill: none; stroke: #eef8ea; stroke-width: 2"/>
   </g>
   <g id="line2d_106">
    <defs>
     <path id="m4fc0e7ca50" d="M 3 0 
L -3 -0 
" style="stroke: #eef8ea"/>
    </defs>
    <g clip-path="url(#pecb76aa23c)">
     <use xlink:href="#m4fc0e7ca50" x="377.610545" y="436.04129" style="fill: #eef8ea; stroke: #eef8ea"/>
    </g>
   </g>
   <g id="line2d_107">
    <g clip-path="url(#pecb76aa23c)">
     <use xlink:href="#m4fc0e7ca50" x="377.610545" y="436.04129" style="fill: #eef8ea; stroke: #eef8ea"/>
    </g>
   </g>
   <g id="LineCollection_46">
    <path clip-path="url(#pecb76aa23c)" style="fill: none; stroke: #f7fcf5; stroke-width: 2"/>
   </g>
   <g id="line2d_108">
    <g clip-path="url(#pecb76aa23c)"/>
   </g>
   <g id="line2d_109">
    <g clip-path="url(#pecb76aa23c)"/>
   </g>
   <g id="LineCollection_47">
    <path clip-path="url(#pecb76aa23c)" style="fill: none; stroke: #f7fcf5; stroke-width: 2"/>
   </g>
   <g id="line2d_110">
    <g clip-path="url(#pecb76aa23c)"/>
   </g>
   <g id="line2d_111">
    <g clip-path="url(#pecb76aa23c)"/>
   </g>
   <g id="LineCollection_48">
    <path clip-path="url(#pecb76aa23c)" style="fill: none; stroke: #f7fcf5; stroke-width: 2"/>
   </g>
   <g id="line2d_112">
    <g clip-path="url(#pecb76aa23c)"/>
   </g>
   <g id="line2d_113">
    <g clip-path="url(#pecb76aa23c)"/>
   </g>
   <g id="LineCollection_49">
    <path clip-path="url(#pecb76aa23c)" style="fill: none; stroke: #f7fcf5; stroke-width: 2"/>
   </g>
   <g id="line2d_114">
    <g clip-path="url(#pecb76aa23c)"/>
   </g>
   <g id="line2d_115">
    <g clip-path="url(#pecb76aa23c)"/>
   </g>
   <g id="LineCollection_50">
    <path clip-path="url(#pecb76aa23c)" style="fill: none; stroke: #f7fcf5; stroke-width: 2"/>
   </g>
   <g id="line2d_116">
    <g clip-path="url(#pecb76aa23c)"/>
   </g>
   <g id="line2d_117">
    <g clip-path="url(#pecb76aa23c)"/>
   </g>
   <g id="LineCollection_51">
    <path clip-path="url(#pecb76aa23c)" style="fill: none; stroke: #f7fcf5; stroke-width: 2"/>
   </g>
   <g id="line2d_118">
    <g clip-path="url(#pecb76aa23c)"/>
   </g>
   <g id="line2d_119">
    <g clip-path="url(#pecb76aa23c)"/>
   </g>
   <g id="LineCollection_52">
    <path clip-path="url(#pecb76aa23c)" style="fill: none; stroke: #f7fcf5; stroke-width: 2"/>
   </g>
   <g id="line2d_120">
    <g clip-path="url(#pecb76aa23c)"/>
   </g>
   <g id="line2d_121">
    <g clip-path="url(#pecb76aa23c)"/>
   </g>
   <g id="line2d_122">
    <defs>
     <path id="m066d1386a1" d="M 0 4 
C 1.060812 4 2.078319 3.578535 2.828427 2.828427 
C 3.578535 2.078319 4 1.060812 4 0 
C 4 -1.060812 3.578535 -2.078319 2.828427 -2.828427 
C 2.078319 -3.578535 1.060812 -4 0 -4 
C -1.060812 -4 -2.078319 -3.578535 -2.828427 -2.828427 
C -3.578535 -2.078319 -4 -1.060812 -4 0 
C -4 1.060812 -3.578535 2.078319 -2.828427 2.828427 
C -2.078319 3.578535 -1.060812 4 0 4 
z
" style="stroke: #f7fcf5"/>
    </defs>
    <g clip-path="url(#pecb76aa23c)"/>
   </g>
   <g id="line2d_123">
    <g clip-path="url(#pecb76aa23c)"/>
   </g>
   <g id="line2d_124">
    <g clip-path="url(#pecb76aa23c)"/>
   </g>
   <g id="line2d_125">
    <g clip-path="url(#pecb76aa23c)"/>
   </g>
   <g id="line2d_126">
    <g clip-path="url(#pecb76aa23c)"/>
   </g>
   <g id="line2d_127">
    <g clip-path="url(#pecb76aa23c)"/>
   </g>
   <g id="line2d_128">
    <g clip-path="url(#pecb76aa23c)"/>
   </g>
   <g id="line2d_129">
    <g clip-path="url(#pecb76aa23c)"/>
   </g>
   <g id="line2d_130">
    <g clip-path="url(#pecb76aa23c)"/>
   </g>
   <g id="line2d_131">
    <g clip-path="url(#pecb76aa23c)"/>
   </g>
   <g id="line2d_132">
    <g clip-path="url(#pecb76aa23c)"/>
   </g>
   <g id="line2d_133">
    <g clip-path="url(#pecb76aa23c)"/>
   </g>
   <g id="line2d_134">
    <g clip-path="url(#pecb76aa23c)"/>
   </g>
   <g id="line2d_135">
    <g clip-path="url(#pecb76aa23c)"/>
   </g>
   <g id="line2d_136">
    <g clip-path="url(#pecb76aa23c)"/>
   </g>
   <g id="line2d_137">
    <g clip-path="url(#pecb76aa23c)"/>
   </g>
   <g id="line2d_138">
    <g clip-path="url(#pecb76aa23c)"/>
   </g>
   <g id="line2d_139">
    <g clip-path="url(#pecb76aa23c)">
     <use xlink:href="#m066d1386a1" x="109.161818" y="185.667097" style="fill: #f7fcf5; stroke: #f7fcf5"/>
    </g>
   </g>
   <g id="line2d_140">
    <defs>
     <path id="m8b8857d0cd" d="M 0 4 
C 1.060812 4 2.078319 3.578535 2.828427 2.828427 
C 3.578535 2.078319 4 1.060812 4 0 
C 4 -1.060812 3.578535 -2.078319 2.828427 -2.828427 
C 2.078319 -3.578535 1.060812 -4 0 -4 
C -1.060812 -4 -2.078319 -3.578535 -2.828427 -2.828427 
C -3.578535 -2.078319 -4 -1.060812 -4 0 
C -4 1.060812 -3.578535 2.078319 -2.828427 2.828427 
C -2.078319 3.578535 -1.060812 4 0 4 
z
" style="stroke: #f4fbf1"/>
    </defs>
    <g clip-path="url(#pecb76aa23c)">
     <use xlink:href="#m8b8857d0cd" x="119.104364" y="148.110968" style="fill: #f4fbf1; stroke: #f4fbf1"/>
    </g>
   </g>
   <g id="line2d_141">
    <defs>
     <path id="m453a3b816c" d="M 0 4 
C 1.060812 4 2.078319 3.578535 2.828427 2.828427 
C 3.578535 2.078319 4 1.060812 4 0 
C 4 -1.060812 3.578535 -2.078319 2.828427 -2.828427 
C 2.078319 -3.578535 1.060812 -4 0 -4 
C -1.060812 -4 -2.078319 -3.578535 -2.828427 -2.828427 
C -3.578535 -2.078319 -4 -1.060812 -4 0 
C -4 1.060812 -3.578535 2.078319 -2.828427 2.828427 
C -2.078319 3.578535 -1.060812 4 0 4 
z
" style="stroke: #e8f6e4"/>
    </defs>
    <g clip-path="url(#pecb76aa23c)">
     <use xlink:href="#m453a3b816c" x="129.046909" y="123.073548" style="fill: #e8f6e4; stroke: #e8f6e4"/>
    </g>
   </g>
   <g id="line2d_142">
    <defs>
     <path id="m20010074d1" d="M 0 4 
C 1.060812 4 2.078319 3.578535 2.828427 2.828427 
C 3.578535 2.078319 4 1.060812 4 0 
C 4 -1.060812 3.578535 -2.078319 2.828427 -2.828427 
C 2.078319 -3.578535 1.060812 -4 0 -4 
C -1.060812 -4 -2.078319 -3.578535 -2.828427 -2.828427 
C -3.578535 -2.078319 -4 -1.060812 -4 0 
C -4 1.060812 -3.578535 2.078319 -2.828427 2.828427 
C -2.078319 3.578535 -1.060812 4 0 4 
z
" style="stroke: #c3e7bc"/>
    </defs>
    <g clip-path="url(#pecb76aa23c)">
     <use xlink:href="#m20010074d1" x="138.989455" y="110.554839" style="fill: #c3e7bc; stroke: #c3e7bc"/>
    </g>
   </g>
   <g id="line2d_143">
    <defs>
     <path id="m577f1326c7" d="M 0 4 
C 1.060812 4 2.078319 3.578535 2.828427 2.828427 
C 3.578535 2.078319 4 1.060812 4 0 
C 4 -1.060812 3.578535 -2.078319 2.828427 -2.828427 
C 2.078319 -3.578535 1.060812 -4 0 -4 
C -1.060812 -4 -2.078319 -3.578535 -2.828427 -2.828427 
C -3.578535 -2.078319 -4 -1.060812 -4 0 
C -4 1.060812 -3.578535 2.078319 -2.828427 2.828427 
C -2.078319 3.578535 -1.060812 4 0 4 
z
" style="stroke: #7dc87e"/>
    </defs>
    <g clip-path="url(#pecb76aa23c)">
     <use xlink:href="#m577f1326c7" x="148.932" y="98.036129" style="fill: #7dc87e; stroke: #7dc87e"/>
    </g>
   </g>
   <g id="line2d_144">
    <defs>
     <path id="md16824fabc" d="M 0 4 
C 1.060812 4 2.078319 3.578535 2.828427 2.828427 
C 3.578535 2.078319 4 1.060812 4 0 
C 4 -1.060812 3.578535 -2.078319 2.828427 -2.828427 
C 2.078319 -3.578535 1.060812 -4 0 -4 
C -1.060812 -4 -2.078319 -3.578535 -2.828427 -2.828427 
C -3.578535 -2.078319 -4 -1.060812 -4 0 
C -4 1.060812 -3.578535 2.078319 -2.828427 2.828427 
C -2.078319 3.578535 -1.060812 4 0 4 
z
" style="stroke: #78c679"/>
    </defs>
    <g clip-path="url(#pecb76aa23c)">
     <use xlink:href="#md16824fabc" x="158.874545" y="98.036129" style="fill: #78c679; stroke: #78c679"/>
    </g>
   </g>
   <g id="line2d_145">
    <defs>
     <path id="m7b2bdb1878" d="M 0 4 
C 1.060812 4 2.078319 3.578535 2.828427 2.828427 
C 3.578535 2.078319 4 1.060812 4 0 
C 4 -1.060812 3.578535 -2.078319 2.828427 -2.828427 
C 2.078319 -3.578535 1.060812 -4 0 -4 
C -1.060812 -4 -2.078319 -3.578535 -2.828427 -2.828427 
C -3.578535 -2.078319 -4 -1.060812 -4 0 
C -4 1.060812 -3.578535 2.078319 -2.828427 2.828427 
C -2.078319 3.578535 -1.060812 4 0 4 
z
" style="stroke: #a3da9d"/>
    </defs>
    <g clip-path="url(#pecb76aa23c)">
     <use xlink:href="#m7b2bdb1878" x="168.817091" y="98.036129" style="fill: #a3da9d; stroke: #a3da9d"/>
    </g>
   </g>
   <g id="line2d_146">
    <defs>
     <path id="mda033d51b8" d="M 0 4 
C 1.060812 4 2.078319 3.578535 2.828427 2.828427 
C 3.578535 2.078319 4 1.060812 4 0 
C 4 -1.060812 3.578535 -2.078319 2.828427 -2.828427 
C 2.078319 -3.578535 1.060812 -4 0 -4 
C -1.060812 -4 -2.078319 -3.578535 -2.828427 -2.828427 
C -3.578535 -2.078319 -4 -1.060812 -4 0 
C -4 1.060812 -3.578535 2.078319 -2.828427 2.828427 
C -2.078319 3.578535 -1.060812 4 0 4 
z
" style="stroke: #cfecc9"/>
    </defs>
    <g clip-path="url(#pecb76aa23c)">
     <use xlink:href="#mda033d51b8" x="178.759636" y="98.036129" style="fill: #cfecc9; stroke: #cfecc9"/>
    </g>
   </g>
   <g id="line2d_147">
    <defs>
     <path id="mb7cb22ec7e" d="M 0 4 
C 1.060812 4 2.078319 3.578535 2.828427 2.828427 
C 3.578535 2.078319 4 1.060812 4 0 
C 4 -1.060812 3.578535 -2.078319 2.828427 -2.828427 
C 2.078319 -3.578535 1.060812 -4 0 -4 
C -1.060812 -4 -2.078319 -3.578535 -2.828427 -2.828427 
C -3.578535 -2.078319 -4 -1.060812 -4 0 
C -4 1.060812 -3.578535 2.078319 -2.828427 2.828427 
C -2.078319 3.578535 -1.060812 4 0 4 
z
" style="stroke: #e1f3dc"/>
    </defs>
    <g clip-path="url(#pecb76aa23c)">
     <use xlink:href="#mb7cb22ec7e" x="188.702182" y="98.036129" style="fill: #e1f3dc; stroke: #e1f3dc"/>
    </g>
   </g>
   <g id="line2d_148">
    <defs>
     <path id="m64b7a931f9" d="M 0 4 
C 1.060812 4 2.078319 3.578535 2.828427 2.828427 
C 3.578535 2.078319 4 1.060812 4 0 
C 4 -1.060812 3.578535 -2.078319 2.828427 -2.828427 
C 2.078319 -3.578535 1.060812 -4 0 -4 
C -1.060812 -4 -2.078319 -3.578535 -2.828427 -2.828427 
C -3.578535 -2.078319 -4 -1.060812 -4 0 
C -4 1.060812 -3.578535 2.078319 -2.828427 2.828427 
C -2.078319 3.578535 -1.060812 4 0 4 
z
" style="stroke: #eaf7e6"/>
    </defs>
    <g clip-path="url(#pecb76aa23c)">
     <use xlink:href="#m64b7a931f9" x="198.644727" y="98.036129" style="fill: #eaf7e6; stroke: #eaf7e6"/>
    </g>
   </g>
   <g id="line2d_149">
    <g clip-path="url(#pecb76aa23c)">
     <use xlink:href="#m64b7a931f9" x="208.587273" y="98.036129" style="fill: #eaf7e6; stroke: #eaf7e6"/>
    </g>
   </g>
   <g id="line2d_150">
    <g clip-path="url(#pecb76aa23c)">
     <use xlink:href="#m64b7a931f9" x="218.529818" y="98.036129" style="fill: #eaf7e6; stroke: #eaf7e6"/>
    </g>
   </g>
   <g id="line2d_151">
    <defs>
     <path id="m489fcd12cd" d="M 0 4 
C 1.060812 4 2.078319 3.578535 2.828427 2.828427 
C 3.578535 2.078319 4 1.060812 4 0 
C 4 -1.060812 3.578535 -2.078319 2.828427 -2.828427 
C 2.078319 -3.578535 1.060812 -4 0 -4 
C -1.060812 -4 -2.078319 -3.578535 -2.828427 -2.828427 
C -3.578535 -2.078319 -4 -1.060812 -4 0 
C -4 1.060812 -3.578535 2.078319 -2.828427 2.828427 
C -2.078319 3.578535 -1.060812 4 0 4 
z
" style="stroke: #ebf7e7"/>
    </defs>
    <g clip-path="url(#pecb76aa23c)">
     <use xlink:href="#m489fcd12cd" x="228.472364" y="98.036129" style="fill: #ebf7e7; stroke: #ebf7e7"/>
    </g>
   </g>
   <g id="line2d_152">
    <defs>
     <path id="m929e8b277c" d="M 0 4 
C 1.060812 4 2.078319 3.578535 2.828427 2.828427 
C 3.578535 2.078319 4 1.060812 4 0 
C 4 -1.060812 3.578535 -2.078319 2.828427 -2.828427 
C 2.078319 -3.578535 1.060812 -4 0 -4 
C -1.060812 -4 -2.078319 -3.578535 -2.828427 -2.828427 
C -3.578535 -2.078319 -4 -1.060812 -4 0 
C -4 1.060812 -3.578535 2.078319 -2.828427 2.828427 
C -2.078319 3.578535 -1.060812 4 0 4 
z
" style="stroke: #ecf8e8"/>
    </defs>
    <g clip-path="url(#pecb76aa23c)">
     <use xlink:href="#m929e8b277c" x="238.414909" y="98.036129" style="fill: #ecf8e8; stroke: #ecf8e8"/>
    </g>
   </g>
   <g id="line2d_153">
    <defs>
     <path id="m7ae5567cef" d="M 0 4 
C 1.060812 4 2.078319 3.578535 2.828427 2.828427 
C 3.578535 2.078319 4 1.060812 4 0 
C 4 -1.060812 3.578535 -2.078319 2.828427 -2.828427 
C 2.078319 -3.578535 1.060812 -4 0 -4 
C -1.060812 -4 -2.078319 -3.578535 -2.828427 -2.828427 
C -3.578535 -2.078319 -4 -1.060812 -4 0 
C -4 1.060812 -3.578535 2.078319 -2.828427 2.828427 
C -2.078319 3.578535 -1.060812 4 0 4 
z
" style="stroke: #edf8e9"/>
    </defs>
    <g clip-path="url(#pecb76aa23c)">
     <use xlink:href="#m7ae5567cef" x="248.357455" y="98.036129" style="fill: #edf8e9; stroke: #edf8e9"/>
    </g>
   </g>
   <g id="line2d_154">
    <g clip-path="url(#pecb76aa23c)">
     <use xlink:href="#m7ae5567cef" x="258.3" y="98.036129" style="fill: #edf8e9; stroke: #edf8e9"/>
    </g>
   </g>
   <g id="line2d_155">
    <g clip-path="url(#pecb76aa23c)">
     <use xlink:href="#m929e8b277c" x="268.242545" y="110.554839" style="fill: #ecf8e8; stroke: #ecf8e8"/>
    </g>
   </g>
   <g id="line2d_156">
    <g clip-path="url(#pecb76aa23c)">
     <use xlink:href="#m489fcd12cd" x="278.185091" y="123.073548" style="fill: #ebf7e7; stroke: #ebf7e7"/>
    </g>
   </g>
   <g id="line2d_157">
    <defs>
     <path id="m3c3c78d50c" d="M 0 4 
C 1.060812 4 2.078319 3.578535 2.828427 2.828427 
C 3.578535 2.078319 4 1.060812 4 0 
C 4 -1.060812 3.578535 -2.078319 2.828427 -2.828427 
C 2.078319 -3.578535 1.060812 -4 0 -4 
C -1.060812 -4 -2.078319 -3.578535 -2.828427 -2.828427 
C -3.578535 -2.078319 -4 -1.060812 -4 0 
C -4 1.060812 -3.578535 2.078319 -2.828427 2.828427 
C -2.078319 3.578535 -1.060812 4 0 4 
z
" style="stroke: #d3eecd"/>
    </defs>
    <g clip-path="url(#pecb76aa23c)">
     <use xlink:href="#m3c3c78d50c" x="288.127636" y="135.592258" style="fill: #d3eecd; stroke: #d3eecd"/>
    </g>
   </g>
   <g id="line2d_158">
    <defs>
     <path id="m6444e5235c" d="M 0 4 
C 1.060812 4 2.078319 3.578535 2.828427 2.828427 
C 3.578535 2.078319 4 1.060812 4 0 
C 4 -1.060812 3.578535 -2.078319 2.828427 -2.828427 
C 2.078319 -3.578535 1.060812 -4 0 -4 
C -1.060812 -4 -2.078319 -3.578535 -2.828427 -2.828427 
C -3.578535 -2.078319 -4 -1.060812 -4 0 
C -4 1.060812 -3.578535 2.078319 -2.828427 2.828427 
C -2.078319 3.578535 -1.060812 4 0 4 
z
" style="stroke: #5bb86a"/>
    </defs>
    <g clip-path="url(#pecb76aa23c)">
     <use xlink:href="#m6444e5235c" x="298.070182" y="160.629677" style="fill: #5bb86a; stroke: #5bb86a"/>
    </g>
   </g>
   <g id="line2d_159">
    <defs>
     <path id="mc69d8e42a6" d="M 0 4 
C 1.060812 4 2.078319 3.578535 2.828427 2.828427 
C 3.578535 2.078319 4 1.060812 4 0 
C 4 -1.060812 3.578535 -2.078319 2.828427 -2.828427 
C 2.078319 -3.578535 1.060812 -4 0 -4 
C -1.060812 -4 -2.078319 -3.578535 -2.828427 -2.828427 
C -3.578535 -2.078319 -4 -1.060812 -4 0 
C -4 1.060812 -3.578535 2.078319 -2.828427 2.828427 
C -2.078319 3.578535 -1.060812 4 0 4 
z
" style="stroke: #00441b"/>
    </defs>
    <g clip-path="url(#pecb76aa23c)">
     <use xlink:href="#mc69d8e42a6" x="308.012727" y="185.667097" style="fill: #00441b; stroke: #00441b"/>
    </g>
   </g>
   <g id="line2d_160">
    <g clip-path="url(#pecb76aa23c)">
     <use xlink:href="#mc69d8e42a6" x="317.955273" y="210.704516" style="fill: #00441b; stroke: #00441b"/>
    </g>
   </g>
   <g id="line2d_161">
    <g clip-path="url(#pecb76aa23c)">
     <use xlink:href="#mc69d8e42a6" x="327.897818" y="235.741935" style="fill: #00441b; stroke: #00441b"/>
    </g>
   </g>
   <g id="line2d_162">
    <g clip-path="url(#pecb76aa23c)">
     <use xlink:href="#mc69d8e42a6" x="337.840364" y="273.298065" style="fill: #00441b; stroke: #00441b"/>
    </g>
   </g>
   <g id="line2d_163">
    <g clip-path="url(#pecb76aa23c)">
     <use xlink:href="#mc69d8e42a6" x="347.782909" y="310.854194" style="fill: #00441b; stroke: #00441b"/>
    </g>
   </g>
   <g id="line2d_164">
    <g clip-path="url(#pecb76aa23c)">
     <use xlink:href="#mc69d8e42a6" x="357.725455" y="348.410323" style="fill: #00441b; stroke: #00441b"/>
    </g>
   </g>
   <g id="line2d_165">
    <g clip-path="url(#pecb76aa23c)">
     <use xlink:href="#mc69d8e42a6" x="367.668" y="385.966452" style="fill: #00441b; stroke: #00441b"/>
    </g>
   </g>
   <g id="line2d_166">
    <defs>
     <path id="mdaa573b99b" d="M 0 4 
C 1.060812 4 2.078319 3.578535 2.828427 2.828427 
C 3.578535 2.078319 4 1.060812 4 0 
C 4 -1.060812 3.578535 -2.078319 2.828427 -2.828427 
C 2.078319 -3.578535 1.060812 -4 0 -4 
C -1.060812 -4 -2.078319 -3.578535 -2.828427 -2.828427 
C -3.578535 -2.078319 -4 -1.060812 -4 0 
C -4 1.060812 -3.578535 2.078319 -2.828427 2.828427 
C -2.078319 3.578535 -1.060812 4 0 4 
z
" style="stroke: #eef8ea"/>
    </defs>
    <g clip-path="url(#pecb76aa23c)">
     <use xlink:href="#mdaa573b99b" x="377.610545" y="436.04129" style="fill: #eef8ea; stroke: #eef8ea"/>
    </g>
   </g>
   <g id="line2d_167">
    <g clip-path="url(#pecb76aa23c)"/>
   </g>
   <g id="line2d_168">
    <g clip-path="url(#pecb76aa23c)"/>
   </g>
   <g id="line2d_169">
    <g clip-path="url(#pecb76aa23c)"/>
   </g>
   <g id="line2d_170">
    <g clip-path="url(#pecb76aa23c)"/>
   </g>
   <g id="line2d_171">
    <g clip-path="url(#pecb76aa23c)"/>
   </g>
   <g id="line2d_172">
    <g clip-path="url(#pecb76aa23c)"/>
   </g>
   <g id="line2d_173">
    <g clip-path="url(#pecb76aa23c)"/>
   </g>
   <g id="patch_3">
    <path d="M 63 448.56 
L 63 60.48 
" style="fill: none; stroke: #000000; stroke-width: 0.8; stroke-linejoin: miter; stroke-linecap: square"/>
   </g>
   <g id="patch_4">
    <path d="M 63 448.56 
L 453.6 448.56 
" style="fill: none; stroke: #000000; stroke-width: 0.8; stroke-linejoin: miter; stroke-linecap: square"/>
   </g>
  </g>
 </g>
 <defs>
  <clipPath id="pecb76aa23c">
   <rect x="63" y="60.48" width="390.6" height="388.08"/>
  </clipPath>
 </defs>
</svg>
