<?xml version="1.0" encoding="utf-8" standalone="no"?>
<!DOCTYPE svg PUBLIC "-//W3C//DTD SVG 1.1//EN"
  "http://www.w3.org/Graphics/SVG/1.1/DTD/svg11.dtd">
<svg xmlns:xlink="http://www.w3.org/1999/xlink" width="504pt" height="504pt" viewBox="0 0 504 504" xmlns="http://www.w3.org/2000/svg" version="1.1">
 <metadata>
  <rdf:RDF xmlns:dc="http://purl.org/dc/elements/1.1/" xmlns:cc="http://creativecommons.org/ns#" xmlns:rdf="http://www.w3.org/1999/02/22-rdf-syntax-ns#">
   <cc:Work>
    <dc:type rdf:resource="http://purl.org/dc/dcmitype/StillImage"/>
    <dc:date>2026-07-23T17:48:58.266680</dc:date>
    <dc:format>image/svg+xml</dc:format>
    <dc:creator>
     <cc:Agent>
      <dc:title>Matplotlib v3.11.0, https://matplotlib.org/</dc:title>
     </cc:Agent>
    </dc:creator>
   </cc:Work>
  </rdf:RDF>
 </metadata>
 <defs>
  <style type="text/css">*{stroke-linejoin: round; stroke-linecap: butt}</style>
 </defs>
 <g id="figure_1">
  <g id="patch_1">
   <path d="M 0 504 
L 504 504 
L 504 0 
L 0 0 
L 0 504 
z
" style="fill: none"/>
  </g>
  <g id="axes_1">
   <g id="patch_2">
    <path d="M 63 448.56 
L 453.6 448.56 
L 453.6 60.48 
L 63 60.48 
L 63 448.56 
z
" style="fill: none"/>
   </g>
   <g id="matplotlib.axis_1">
    <g id="xtick_1">
     <g id="line2d_1">
      <defs>
       <path id="m7de4d217e2" d="M 0 0 
L 0 3.5 
" style="stroke: #000000; stroke-width: 0.8"/>
      </defs>
      <g>
       <use xlink:href="#m7de4d217e2" x="80.754545" y="448.56" style="stroke: #000000; stroke-width: 0.8"/>
      </g>
     </g>
     <g id="text_1">
      <text style="font-size: 16px; font-family: 'Arial', sans-serif; text-anchor: middle" x="80.754545" y="467.208438" transform="rotate(-0 80.754545 467.208438)">1 Jan</text>
     </g>
    </g>
    <g id="xtick_2">
     <g id="line2d_2">
      <g>
       <use xlink:href="#m7de4d217e2" x="110.995804" y="448.56" style="stroke: #000000; stroke-width: 0.8"/>
      </g>
     </g>
    </g>
    <g id="xtick_3">
     <g id="line2d_3">
      <g>
       <use xlink:href="#m7de4d217e2" x="138.31049" y="448.56" style="stroke: #000000; stroke-width: 0.8"/>
      </g>
     </g>
     <g id="text_2">
      <text style="font-size: 16px; font-family: 'Arial', sans-serif; text-anchor: middle" x="138.31049" y="467.208438" transform="rotate(-0 138.31049 467.208438)">1 Mar</text>
     </g>
    </g>
    <g id="xtick_4">
     <g id="line2d_4">
      <g>
       <use xlink:href="#m7de4d217e2" x="168.551748" y="448.56" style="stroke: #000000; stroke-width: 0.8"/>
      </g>
     </g>
    </g>
    <g id="xtick_5">
     <g id="line2d_5">
      <g>
       <use xlink:href="#m7de4d217e2" x="197.817483" y="448.56" style="stroke: #000000; stroke-width: 0.8"/>
      </g>
     </g>
     <g id="text_3">
      <text style="font-size: 16px; font-family: 'Arial', sans-serif; text-anchor: middle" x="197.817483" y="467.208438" transform="rotate(-0 197.817483 467.208438)">1 May</text>
     </g>
    </g>
    <g id="xtick_6">
     <g id="line2d_6">
      <g>
       <use xlink:href="#m7de4d217e2" x="228.058741" y="448.56" style="stroke: #000000; stroke-width: 0.8"/>
      </g>
     </g>
    </g>
    <g id="xtick_7">
     <g id="line2d_7">
      <g>
       <use xlink:href="#m7de4d217e2" x="257.324476" y="448.56" style="stroke: #000000; stroke-width: 0.8"/>
      </g>
     </g>
     <g id="text_4">
      <text style="font-size: 16px; font-family: 'Arial', sans-serif; text-anchor: middle" x="257.324476" y="467.208438" transform="rotate(-0 257.324476 467.208438)">1 Jul</text>
     </g>
    </g>
    <g id="xtick_8">
     <g id="line2d_8">
      <g>
       <use xlink:href="#m7de4d217e2" x="287.565734" y="448.56" style="stroke: #000000; stroke-width: 0.8"/>
      </g>
     </g>
    </g>
    <g id="xtick_9">
     <g id="line2d_9">
      <g>
       <use xlink:href="#m7de4d217e2" x="317.806993" y="448.56" style="stroke: #000000; stroke-width: 0.8"/>
      </g>
     </g>
     <g id="text_5">
      <text style="font-size: 16px; font-family: 'Arial', sans-serif; text-anchor: middle" x="317.806993" y="467.208438" transform="rotate(-0 317.806993 467.208438)">1 Sep</text>
     </g>
    </g>
    <g id="xtick_10">
     <g id="line2d_10">
      <g>
       <use xlink:href="#m7de4d217e2" x="347.072727" y="448.56" style="stroke: #000000; stroke-width: 0.8"/>
      </g>
     </g>
    </g>
    <g id="xtick_11">
     <g id="line2d_11">
      <g>
       <use xlink:href="#m7de4d217e2" x="377.313986" y="448.56" style="stroke: #000000; stroke-width: 0.8"/>
      </g>
     </g>
     <g id="text_6">
      <text style="font-size: 16px; font-family: 'Arial', sans-serif; text-anchor: middle" x="377.313986" y="467.208438" transform="rotate(-0 377.313986 467.208438)">1 Nov</text>
     </g>
    </g>
    <g id="xtick_12">
     <g id="line2d_12">
      <g>
       <use xlink:href="#m7de4d217e2" x="406.57972" y="448.56" style="stroke: #000000; stroke-width: 0.8"/>
      </g>
     </g>
    </g>
    <g id="xtick_13">
     <g id="line2d_13">
      <g>
       <use xlink:href="#m7de4d217e2" x="436.820979" y="448.56" style="stroke: #000000; stroke-width: 0.8"/>
      </g>
     </g>
     <g id="text_7">
      <text style="font-size: 16px; font-family: 'Arial', sans-serif; text-anchor: middle" x="436.820979" y="467.208438" transform="rotate(-0 436.820979 467.208438)">1 Jan</text>
     </g>
    </g>
    <g id="text_8">
     <text style="font-size: 16px; font-family: 'Arial', sans-serif; text-anchor: middle" x="258.3" y="486.224375" transform="rotate(-0 258.3 486.224375)">Date</text>
    </g>
   </g>
   <g id="matplotlib.axis_2">
    <g id="ytick_1">
     <g id="line2d_14">
      <defs>
       <path id="m5f4abc6e2b" d="M 0 0 
L -3.5 0 
" style="stroke: #000000; stroke-width: 0.8"/>
      </defs>
      <g>
       <use xlink:href="#m5f4abc6e2b" x="63" y="448.56" style="stroke: #000000; stroke-width: 0.8"/>
      </g>
     </g>
     <g id="text_9">
      <text style="font-size: 16px; font-family: 'Arial', sans-serif; text-anchor: end" x="56" y="454.384219" transform="rotate(-0 56 454.384219)">0.0</text>
     </g>
    </g>
    <g id="ytick_2">
     <g id="line2d_15">
      <g>
       <use xlink:href="#m5f4abc6e2b" x="63" y="386.95638" style="stroke: #000000; stroke-width: 0.8"/>
      </g>
     </g>
     <g id="text_10">
      <text style="font-size: 16px; font-family: 'Arial', sans-serif; text-anchor: end" x="56" y="392.780599" transform="rotate(-0 56 392.780599)">0.5</text>
     </g>
    </g>
    <g id="ytick_3">
     <g id="line2d_16">
      <g>
       <use xlink:href="#m5f4abc6e2b" x="63" y="325.35276" style="stroke: #000000; stroke-width: 0.8"/>
      </g>
     </g>
     <g id="text_11">
      <text style="font-size: 16px; font-family: 'Arial', sans-serif; text-anchor: end" x="56" y="331.176979" transform="rotate(-0 56 331.176979)">1.0</text>
     </g>
    </g>
    <g id="ytick_4">
     <g id="line2d_17">
      <g>
       <use xlink:href="#m5f4abc6e2b" x="63" y="263.74914" style="stroke: #000000; stroke-width: 0.8"/>
      </g>
     </g>
     <g id="text_12">
      <text style="font-size: 16px; font-family: 'Arial', sans-serif; text-anchor: end" x="56" y="269.573359" transform="rotate(-0 56 269.573359)">1.5</text>
     </g>
    </g>
    <g id="ytick_5">
     <g id="line2d_18">
      <g>
       <use xlink:href="#m5f4abc6e2b" x="63" y="202.14552" style="stroke: #000000; stroke-width: 0.8"/>
      </g>
     </g>
     <g id="text_13">
      <text style="font-size: 16px; font-family: 'Arial', sans-serif; text-anchor: end" x="56" y="207.969739" transform="rotate(-0 56 207.969739)">2.0</text>
     </g>
    </g>
    <g id="ytick_6">
     <g id="line2d_19">
      <g>
       <use xlink:href="#m5f4abc6e2b" x="63" y="140.5419" style="stroke: #000000; stroke-width: 0.8"/>
      </g>
     </g>
     <g id="text_14">
      <text style="font-size: 16px; font-family: 'Arial', sans-serif; text-anchor: end" x="56" y="146.366119" transform="rotate(-0 56 146.366119)">2.5</text>
     </g>
    </g>
    <g id="ytick_7">
     <g id="line2d_20">
      <g>
       <use xlink:href="#m5f4abc6e2b" x="63" y="78.93828" style="stroke: #000000; stroke-width: 0.8"/>
      </g>
     </g>
     <g id="text_15">
      <text style="font-size: 16px; font-family: 'Arial', sans-serif; text-anchor: end" x="56" y="84.762499" transform="rotate(-0 56 84.762499)">3.0</text>
     </g>
    </g>
    <g id="text_16">
     <text style="font-size: 16px; font-family: 'Arial', sans-serif; text-anchor: middle" x="26.392812" y="254.52" transform="rotate(-90 26.392812 254.52)">Time-dependent reproduction number</text>
    </g>
   </g>
   <g id="line2d_21">
    <path d="M 80.754545 448.56 
L 204.646154 448.453006 
L 208.548252 448.210605 
L 211.474825 447.808142 
L 213.425874 447.358932 
L 215.376923 446.71023 
L 217.327972 445.791687 
L 219.279021 444.536184 
L 221.23007 442.867656 
L 223.181119 440.69264 
L 225.132168 437.919628 
L 227.083217 434.428656 
L 229.034266 430.147108 
L 230.985315 424.965849 
L 232.936364 418.840236 
L 234.887413 411.788002 
L 236.838462 403.825048 
L 238.78951 394.882572 
L 240.740559 385.066748 
L 243.667133 369.161865 
L 246.593706 352.244152 
L 250.495804 329.536164 
L 253.422378 313.270011 
L 255.373427 303.455169 
L 257.324476 294.717818 
L 259.275524 286.737049 
L 261.226573 280.059848 
L 263.177622 274.448945 
L 265.128671 270.067448 
L 266.104196 268.317801 
L 267.07972 266.883558 
L 268.055245 265.765769 
L 269.030769 264.981964 
L 270.981818 263.900297 
L 272.932867 263.76 
L 273.908392 263.902573 
L 275.859441 264.545079 
L 277.81049 265.85916 
L 280.737063 268.073006 
L 283.663636 270.692307 
L 287.565734 273.367353 
L 289.516783 274.433992 
L 291.467832 275.210121 
L 293.418881 275.611549 
L 295.36993 275.621489 
L 297.320979 275.237997 
L 299.272028 274.470297 
L 301.223077 273.405903 
L 305.125175 270.694645 
L 307.076224 268.921284 
L 309.027273 267.263858 
L 311.953846 265.061901 
L 312.929371 264.473524 
L 313.904895 264.087906 
L 314.88042 263.839798 
L 315.855944 263.769277 
L 316.831469 263.830769 
L 317.806993 264.037233 
L 319.758042 265.260831 
L 320.733566 266.265332 
L 321.709091 267.630511 
L 322.684615 269.312995 
L 324.635664 273.731161 
L 325.611189 276.437225 
L 327.562238 282.8717 
L 329.513287 290.632616 
L 331.464336 299.597098 
L 333.415385 309.723113 
L 335.366434 320.813336 
L 340.244056 351.351291 
L 343.170629 369.815281 
L 346.097203 387.162405 
L 348.048252 397.768047 
L 349.999301 407.283954 
L 351.95035 415.688039 
L 353.901399 422.968558 
L 355.852448 429.105121 
L 357.803497 434.086944 
L 359.754545 438.072535 
L 360.73007 439.718479 
L 362.681119 442.393874 
L 363.656643 443.489355 
L 365.607692 445.194032 
L 367.558741 446.42563 
L 369.50979 447.255257 
L 371.460839 447.803867 
L 373.411888 448.142134 
L 376.338462 448.408385 
L 381.216084 448.543241 
L 397.8 448.56 
L 435.845455 448.56 
L 435.845455 448.56 
" clip-path="url(#paaf672ad06)" style="fill: none; stroke: #e25508; stroke-width: 2; stroke-linecap: square"/>
   </g>
   <g id="line2d_22">
    <path d="M 80.754545 448.56 
L 203.670629 448.458901 
L 207.572727 448.20688 
L 210.499301 447.775248 
L 212.45035 447.287786 
L 214.401399 446.56373 
L 216.352448 445.53294 
L 218.303497 444.086476 
L 220.254545 442.161497 
L 221.23007 440.970208 
L 223.181119 438.070187 
L 225.132168 434.372837 
L 227.083217 429.718208 
L 229.034266 424.009478 
L 230.985315 417.101132 
L 232.936364 408.933649 
L 234.887413 399.530669 
L 236.838462 388.913397 
L 238.78951 376.990096 
L 240.740559 363.902331 
L 243.667133 342.69582 
L 246.593706 320.138869 
L 250.495804 289.861552 
L 253.422378 268.173347 
L 255.373427 255.086892 
L 257.324476 243.43709 
L 259.275524 232.796065 
L 261.226573 223.89313 
L 263.177622 216.411926 
L 265.128671 210.569931 
L 266.104196 208.237068 
L 267.07972 206.324744 
L 268.055245 204.834358 
L 269.030769 203.789285 
L 270.981818 202.347063 
L 272.932867 202.16 
L 273.908392 202.350098 
L 274.883916 202.713887 
L 275.859441 203.206773 
L 277.81049 204.95888 
L 280.737063 207.910675 
L 283.663636 211.403076 
L 287.565734 214.969804 
L 289.516783 216.391989 
L 291.467832 217.426828 
L 292.443357 217.759489 
L 293.418881 217.962066 
L 294.394406 218.034129 
L 295.36993 217.975318 
L 296.345455 217.785346 
L 297.320979 217.463996 
L 299.272028 216.440397 
L 301.223077 215.021204 
L 305.125175 211.406193 
L 307.076224 209.041711 
L 309.027273 206.83181 
L 311.953846 203.895869 
L 312.929371 203.111366 
L 313.904895 202.597208 
L 314.88042 202.266397 
L 315.855944 202.172369 
L 316.831469 202.254359 
L 317.806993 202.529644 
L 319.758042 204.161109 
L 320.733566 205.500442 
L 321.709091 207.320681 
L 322.684615 209.563993 
L 324.635664 215.454881 
L 325.611189 219.062966 
L 327.562238 227.642267 
L 329.513287 237.990155 
L 331.464336 249.942797 
L 333.415385 263.44415 
L 335.366434 278.231115 
L 340.244056 318.948388 
L 343.170629 343.567041 
L 346.097203 366.69654 
L 348.048252 380.837396 
L 349.999301 393.525272 
L 351.95035 404.730718 
L 353.901399 414.438077 
L 355.852448 422.620161 
L 357.803497 429.262592 
L 359.754545 434.576713 
L 360.73007 436.771305 
L 362.681119 440.338499 
L 363.656643 441.799139 
L 364.632168 443.028751 
L 366.583217 444.966881 
L 368.534266 446.328383 
L 370.485315 447.227643 
L 372.436364 447.805983 
L 374.387413 448.155031 
L 377.313986 448.421103 
L 382.191608 448.547304 
L 402.677622 448.56 
L 435.845455 448.56 
L 435.845455 448.56 
" clip-path="url(#paaf672ad06)" style="fill: none; stroke: #2e7ebc; stroke-width: 2; stroke-linecap: square"/>
   </g>
   <g id="line2d_23">
    <path d="M 80.754545 448.56 
L 202.695105 448.452778 
L 205.621678 448.267002 
L 208.548252 447.861211 
L 210.499301 447.382872 
L 212.45035 446.651679 
L 214.401399 445.565594 
L 216.352448 444.01941 
L 217.327972 443.023374 
L 219.279021 440.512369 
L 220.254545 438.962246 
L 221.23007 437.175313 
L 223.181119 432.825281 
L 224.156643 430.219513 
L 225.132168 427.279255 
L 227.083217 420.297313 
L 229.034266 411.734216 
L 230.985315 401.371698 
L 232.936364 389.120473 
L 234.887413 375.016004 
L 236.838462 359.090095 
L 238.78951 341.205144 
L 240.740559 321.573496 
L 243.667133 289.76373 
L 246.593706 255.928303 
L 250.495804 210.512329 
L 253.422378 177.980021 
L 255.373427 158.350338 
L 257.324476 140.875635 
L 259.275524 124.914097 
L 261.226573 111.559695 
L 263.177622 100.337889 
L 265.128671 91.574896 
L 266.104196 88.075601 
L 267.07972 85.207117 
L 268.055245 82.971537 
L 269.030769 81.403928 
L 270.006294 80.229341 
L 270.981818 79.240594 
L 271.957343 79.031287 
L 272.932867 78.96 
L 273.908392 79.245146 
L 274.883916 79.790831 
L 275.859441 80.530159 
L 277.81049 83.15832 
L 280.737063 87.586013 
L 283.663636 92.824615 
L 287.565734 98.174706 
L 288.541259 99.328248 
L 290.492308 101.166878 
L 291.467832 101.860242 
L 292.443357 102.359233 
L 293.418881 102.663099 
L 294.394406 102.771193 
L 295.36993 102.682977 
L 296.345455 102.398019 
L 297.320979 101.915994 
L 298.296503 101.236689 
L 300.247552 99.405725 
L 301.223077 98.251806 
L 305.125175 92.82929 
L 306.100699 91.173697 
L 308.051748 87.500838 
L 311.953846 81.563803 
L 312.929371 80.387049 
L 313.904895 79.615812 
L 314.88042 79.119596 
L 315.855944 78.978553 
L 316.831469 79.101539 
L 317.806993 79.514466 
L 319.758042 81.961663 
L 320.733566 83.970663 
L 321.709091 86.701022 
L 322.684615 90.06599 
L 323.66014 94.237085 
L 324.635664 98.902321 
L 325.611189 104.314449 
L 327.562238 117.1834 
L 328.537762 124.521722 
L 330.488811 141.50907 
L 332.43986 160.334846 
L 335.366434 193.066672 
L 340.244056 254.142582 
L 343.170629 291.070562 
L 346.097203 325.76481 
L 348.048252 346.976094 
L 349.999301 366.007908 
L 351.95035 382.816078 
L 353.901399 397.377116 
L 355.852448 409.650242 
L 357.803497 419.613888 
L 359.754545 427.58507 
L 360.73007 430.876958 
L 362.681119 436.227749 
L 363.656643 438.418709 
L 364.632168 440.263126 
L 365.607692 441.828064 
L 366.583217 443.170321 
L 367.558741 444.291259 
L 368.534266 445.212574 
L 370.485315 446.561464 
L 372.436364 447.428974 
L 374.387413 447.952547 
L 376.338462 448.256769 
L 379.265035 448.470318 
L 384.142657 448.554668 
L 423.163636 448.56 
L 435.845455 448.56 
L 435.845455 448.56 
" clip-path="url(#paaf672ad06)" style="fill: none; stroke: #2f974e; stroke-width: 2; stroke-linecap: square"/>
   </g>
   <g id="patch_3">
    <path d="M 63 448.56 
L 63 60.48 
" style="fill: none; stroke: #000000; stroke-width: 0.8; stroke-linejoin: miter; stroke-linecap: square"/>
   </g>
   <g id="patch_4">
    <path d="M 63 448.56 
L 453.6 448.56 
" style="fill: none; stroke: #000000; stroke-width: 0.8; stroke-linejoin: miter; stroke-linecap: square"/>
   </g>
   <g id="legend_1">
    <g id="patch_5">
     <path d="M 72.8 132.738867 
L 190.12 132.738867 
Q 192.92 132.738867 192.92 129.938867 
L 192.92 70.28 
Q 192.92 67.48 190.12 67.48 
L 72.8 67.48 
Q 70 67.48 70 70.28 
L 70 129.938867 
Q 70 132.738867 72.8 132.738867 
z
" style="fill: #ffffff; opacity: 0.8; stroke: #cccccc; stroke-linejoin: miter"/>
    </g>
    <g id="line2d_24">
     <path d="M 75.6 78.4 
L 89.6 78.4 
L 103.6 78.4 
" style="fill: none; stroke: #e25508; stroke-width: 2; stroke-linecap: square"/>
    </g>
    <g id="text_17">
     <!-- $R_{\max} = 1.5$ -->
     <g transform="translate(114.8 83.3)">
      <text>
       <tspan x="0" y="-0.796875" style="font-style: oblique; font-size: 14px; font-family: 'DejaVu Sans'">R</tspan>
       <tspan x="9.727539" y="1.303118" style="font-size: 9.8px; font-family: 'DejaVu Sans'">m</tspan>
       <tspan x="19.273926" y="1.303118" style="font-size: 9.8px; font-family: 'DejaVu Sans'">a</tspan>
       <tspan x="25.279297" y="1.303118" style="font-size: 9.8px; font-family: 'DejaVu Sans'">x</tspan>
       <tspan x="35.780354" y="-0.796875" style="font-size: 14px; font-family: 'DejaVu Sans'">=</tspan>
       <tspan x="50.238362" y="-0.796875" style="font-size: 14px; font-family: 'DejaVu Sans'">1</tspan>
       <tspan x="59.145588" y="-0.796875" style="font-size: 14px; font-family: 'DejaVu Sans'">.</tspan>
       <tspan x="63.595784" y="-0.796875" style="font-size: 14px; font-family: 'DejaVu Sans'">5</tspan>
      </text>
     </g>
    </g>
    <g id="line2d_25">
     <path d="M 75.6 98.846289 
L 89.6 98.846289 
L 103.6 98.846289 
" style="fill: none; stroke: #2e7ebc; stroke-width: 2; stroke-linecap: square"/>
    </g>
    <g id="text_18">
     <!-- $R_{\max} = 2$ -->
     <g transform="translate(114.8 103.746289)">
      <text>
       <tspan x="0" y="-0.609375" style="font-style: oblique; font-size: 14px; font-family: 'DejaVu Sans'">R</tspan>
       <tspan x="9.727539" y="1.490618" style="font-size: 9.8px; font-family: 'DejaVu Sans'">m</tspan>
       <tspan x="19.273926" y="1.490618" style="font-size: 9.8px; font-family: 'DejaVu Sans'">a</tspan>
       <tspan x="25.279297" y="1.490618" style="font-size: 9.8px; font-family: 'DejaVu Sans'">x</tspan>
       <tspan x="35.780354" y="-0.609375" style="font-size: 14px; font-family: 'DejaVu Sans'">=</tspan>
       <tspan x="50.238362" y="-0.609375" style="font-size: 14px; font-family: 'DejaVu Sans'">2</tspan>
      </text>
     </g>
    </g>
    <g id="line2d_26">
     <path d="M 75.6 119.292578 
L 89.6 119.292578 
L 103.6 119.292578 
" style="fill: none; stroke: #2f974e; stroke-width: 2; stroke-linecap: square"/>
    </g>
    <g id="text_19">
     <!-- $R_{\max} = 3$ -->
     <g transform="translate(114.8 124.192578)">
      <text>
       <tspan x="0" y="-0.609375" style="font-style: oblique; font-size: 14px; font-family: 'DejaVu Sans'">R</tspan>
       <tspan x="9.727539" y="1.490618" style="font-size: 9.8px; font-family: 'DejaVu Sans'">m</tspan>
       <tspan x="19.273926" y="1.490618" style="font-size: 9.8px; font-family: 'DejaVu Sans'">a</tspan>
       <tspan x="25.279297" y="1.490618" style="font-size: 9.8px; font-family: 'DejaVu Sans'">x</tspan>
       <tspan x="35.780354" y="-0.609375" style="font-size: 14px; font-family: 'DejaVu Sans'">=</tspan>
       <tspan x="50.238362" y="-0.609375" style="font-size: 14px; font-family: 'DejaVu Sans'">3</tspan>
      </text>
     </g>
    </g>
   </g>
  </g>
 </g>
 <defs>
  <clipPath id="paaf672ad06">
   <rect x="63" y="60.48" width="390.6" height="388.08"/>
  </clipPath>
 </defs>
</svg>
