<?xml version="1.0" encoding="utf-8" standalone="no"?>
<!DOCTYPE svg PUBLIC "-//W3C//DTD SVG 1.1//EN"
  "http://www.w3.org/Graphics/SVG/1.1/DTD/svg11.dtd">
<svg xmlns:xlink="http://www.w3.org/1999/xlink" width="504pt" height="504pt" viewBox="0 0 504 504" xmlns="http://www.w3.org/2000/svg" version="1.1">
 <metadata>
  <rdf:RDF xmlns:dc="http://purl.org/dc/elements/1.1/" xmlns:cc="http://creativecommons.org/ns#" xmlns:rdf="http://www.w3.org/1999/02/22-rdf-syntax-ns#">
   <cc:Work>
    <dc:type rdf:resource="http://purl.org/dc/dcmitype/StillImage"/>
    <dc:date>2026-07-10T11:33:23.231049</dc:date>
    <dc:format>image/svg+xml</dc:format>
    <dc:creator>
     <cc:Agent>
      <dc:title>Matplotlib v3.11.0, https://matplotlib.org/</dc:title>
     </cc:Agent>
    </dc:creator>
   </cc:Work>
  </rdf:RDF>
 </metadata>
 <defs>
  <style type="text/css">*{stroke-linejoin: round; stroke-linecap: butt}</style>
 </defs>
 <g id="figure_1">
  <g id="patch_1">
   <path d="M 0 504 
L 504 504 
L 504 0 
L 0 0 
L 0 504 
z
" style="fill: none"/>
  </g>
  <g id="axes_1">
   <g id="patch_2">
    <path d="M 63 448.56 
L 453.6 448.56 
L 453.6 60.48 
L 63 60.48 
L 63 448.56 
z
" style="fill: none"/>
   </g>
   <g id="matplotlib.axis_1">
    <g id="ytick_1">
     <g id="line2d_1">
      <defs>
       <path id="m6ce4c13ca2" d="M 0 0 
L 3.5 0 
" style="stroke: #7f7f7f; stroke-width: 0.8"/>
      </defs>
      <g>
       <use xlink:href="#m6ce4c13ca2" x="453.6" y="448.56" style="fill: #7f7f7f; stroke: #7f7f7f; stroke-width: 0.8"/>
      </g>
     </g>
     <g id="text_1">
      <text style="font-size: 16px; font-family: 'Arial', sans-serif; text-anchor: start; fill: #7f7f7f" x="460.6" y="454.384219" transform="rotate(-0 460.6 454.384219)">0</text>
     </g>
    </g>
    <g id="ytick_2">
     <g id="line2d_2">
      <g>
       <use xlink:href="#m6ce4c13ca2" x="453.6" y="396.816" style="fill: #7f7f7f; stroke: #7f7f7f; stroke-width: 0.8"/>
      </g>
     </g>
     <g id="text_2">
      <text style="font-size: 16px; font-family: 'Arial', sans-serif; text-anchor: start; fill: #7f7f7f" x="460.6" y="402.640219" transform="rotate(-0 460.6 402.640219)">2</text>
     </g>
    </g>
    <g id="ytick_3">
     <g id="line2d_3">
      <g>
       <use xlink:href="#m6ce4c13ca2" x="453.6" y="345.072" style="fill: #7f7f7f; stroke: #7f7f7f; stroke-width: 0.8"/>
      </g>
     </g>
     <g id="text_3">
      <text style="font-size: 16px; font-family: 'Arial', sans-serif; text-anchor: start; fill: #7f7f7f" x="460.6" y="350.896219" transform="rotate(-0 460.6 350.896219)">4</text>
     </g>
    </g>
    <g id="ytick_4">
     <g id="line2d_4">
      <g>
       <use xlink:href="#m6ce4c13ca2" x="453.6" y="293.328" style="fill: #7f7f7f; stroke: #7f7f7f; stroke-width: 0.8"/>
      </g>
     </g>
     <g id="text_4">
      <text style="font-size: 16px; font-family: 'Arial', sans-serif; text-anchor: start; fill: #7f7f7f" x="460.6" y="299.152219" transform="rotate(-0 460.6 299.152219)">6</text>
     </g>
    </g>
    <g id="ytick_5">
     <g id="line2d_5">
      <g>
       <use xlink:href="#m6ce4c13ca2" x="453.6" y="241.584" style="fill: #7f7f7f; stroke: #7f7f7f; stroke-width: 0.8"/>
      </g>
     </g>
     <g id="text_5">
      <text style="font-size: 16px; font-family: 'Arial', sans-serif; text-anchor: start; fill: #7f7f7f" x="460.6" y="247.408219" transform="rotate(-0 460.6 247.408219)">8</text>
     </g>
    </g>
    <g id="ytick_6">
     <g id="line2d_6">
      <g>
       <use xlink:href="#m6ce4c13ca2" x="453.6" y="189.84" style="fill: #7f7f7f; stroke: #7f7f7f; stroke-width: 0.8"/>
      </g>
     </g>
     <g id="text_6">
      <text style="font-size: 16px; font-family: 'Arial', sans-serif; text-anchor: start; fill: #7f7f7f" x="460.6" y="195.664219" transform="rotate(-0 460.6 195.664219)">10</text>
     </g>
    </g>
    <g id="ytick_7">
     <g id="line2d_7">
      <g>
       <use xlink:href="#m6ce4c13ca2" x="453.6" y="138.096" style="fill: #7f7f7f; stroke: #7f7f7f; stroke-width: 0.8"/>
      </g>
     </g>
     <g id="text_7">
      <text style="font-size: 16px; font-family: 'Arial', sans-serif; text-anchor: start; fill: #7f7f7f" x="460.6" y="143.920219" transform="rotate(-0 460.6 143.920219)">12</text>
     </g>
    </g>
    <g id="ytick_8">
     <g id="line2d_8">
      <g>
       <use xlink:href="#m6ce4c13ca2" x="453.6" y="86.352" style="fill: #7f7f7f; stroke: #7f7f7f; stroke-width: 0.8"/>
      </g>
     </g>
     <g id="text_8">
      <text style="font-size: 16px; font-family: 'Arial', sans-serif; text-anchor: start; fill: #7f7f7f" x="460.6" y="92.176219" transform="rotate(-0 460.6 92.176219)">14</text>
     </g>
    </g>
    <g id="text_9">
     <text style="font-size: 16px; font-family: 'Arial', sans-serif; text-anchor: middle; fill: #7f7f7f" x="494.043438" y="254.52" transform="rotate(-90 494.043438 254.52)">Number of cases</text>
    </g>
   </g>
   <g id="patch_3">
    <path d="M 80.754545 448.56 
L 82.389026 448.56 
L 82.389026 396.816 
L 80.754545 396.816 
z
" clip-path="url(#p415feb01c4)" style="fill: #7f7f7f; opacity: 0.5"/>
   </g>
   <g id="patch_4">
    <path d="M 82.797646 448.56 
L 84.432127 448.56 
L 84.432127 396.816 
L 82.797646 396.816 
z
" clip-path="url(#p415feb01c4)" style="fill: #7f7f7f; opacity: 0.5"/>
   </g>
   <g id="patch_5">
    <path d="M 84.840747 448.56 
L 86.475228 448.56 
L 86.475228 396.816 
L 84.840747 396.816 
z
" clip-path="url(#p415feb01c4)" style="fill: #7f7f7f; opacity: 0.5"/>
   </g>
   <g id="patch_6">
    <path d="M 86.883848 448.56 
L 88.518328 448.56 
L 88.518328 448.56 
L 86.883848 448.56 
z
" clip-path="url(#p415feb01c4)" style="fill: #7f7f7f; opacity: 0.5"/>
   </g>
   <g id="patch_7">
    <path d="M 88.926948 448.56 
L 90.561429 448.56 
L 90.561429 448.56 
L 88.926948 448.56 
z
" clip-path="url(#p415feb01c4)" style="fill: #7f7f7f; opacity: 0.5"/>
   </g>
   <g id="patch_8">
    <path d="M 90.970049 448.56 
L 92.60453 448.56 
L 92.60453 448.56 
L 90.970049 448.56 
z
" clip-path="url(#p415feb01c4)" style="fill: #7f7f7f; opacity: 0.5"/>
   </g>
   <g id="patch_9">
    <path d="M 93.01315 448.56 
L 94.647631 448.56 
L 94.647631 448.56 
L 93.01315 448.56 
z
" clip-path="url(#p415feb01c4)" style="fill: #7f7f7f; opacity: 0.5"/>
   </g>
   <g id="patch_10">
    <path d="M 95.056251 448.56 
L 96.690731 448.56 
L 96.690731 448.56 
L 95.056251 448.56 
z
" clip-path="url(#p415feb01c4)" style="fill: #7f7f7f; opacity: 0.5"/>
   </g>
   <g id="patch_11">
    <path d="M 97.099351 448.56 
L 98.733832 448.56 
L 98.733832 448.56 
L 97.099351 448.56 
z
" clip-path="url(#p415feb01c4)" style="fill: #7f7f7f; opacity: 0.5"/>
   </g>
   <g id="patch_12">
    <path d="M 99.142452 448.56 
L 100.776933 448.56 
L 100.776933 422.688 
L 99.142452 422.688 
z
" clip-path="url(#p415feb01c4)" style="fill: #7f7f7f; opacity: 0.5"/>
   </g>
   <g id="patch_13">
    <path d="M 101.185553 448.56 
L 102.820033 448.56 
L 102.820033 448.56 
L 101.185553 448.56 
z
" clip-path="url(#p415feb01c4)" style="fill: #7f7f7f; opacity: 0.5"/>
   </g>
   <g id="patch_14">
    <path d="M 103.228654 448.56 
L 104.863134 448.56 
L 104.863134 448.56 
L 103.228654 448.56 
z
" clip-path="url(#p415feb01c4)" style="fill: #7f7f7f; opacity: 0.5"/>
   </g>
   <g id="patch_15">
    <path d="M 105.271754 448.56 
L 106.906235 448.56 
L 106.906235 448.56 
L 105.271754 448.56 
z
" clip-path="url(#p415feb01c4)" style="fill: #7f7f7f; opacity: 0.5"/>
   </g>
   <g id="patch_16">
    <path d="M 107.314855 448.56 
L 108.949336 448.56 
L 108.949336 448.56 
L 107.314855 448.56 
z
" clip-path="url(#p415feb01c4)" style="fill: #7f7f7f; opacity: 0.5"/>
   </g>
   <g id="patch_17">
    <path d="M 109.357956 448.56 
L 110.992436 448.56 
L 110.992436 448.56 
L 109.357956 448.56 
z
" clip-path="url(#p415feb01c4)" style="fill: #7f7f7f; opacity: 0.5"/>
   </g>
   <g id="patch_18">
    <path d="M 111.401057 448.56 
L 113.035537 448.56 
L 113.035537 448.56 
L 111.401057 448.56 
z
" clip-path="url(#p415feb01c4)" style="fill: #7f7f7f; opacity: 0.5"/>
   </g>
   <g id="patch_19">
    <path d="M 113.444157 448.56 
L 115.078638 448.56 
L 115.078638 448.56 
L 113.444157 448.56 
z
" clip-path="url(#p415feb01c4)" style="fill: #7f7f7f; opacity: 0.5"/>
   </g>
   <g id="patch_20">
    <path d="M 115.487258 448.56 
L 117.121739 448.56 
L 117.121739 448.56 
L 115.487258 448.56 
z
" clip-path="url(#p415feb01c4)" style="fill: #7f7f7f; opacity: 0.5"/>
   </g>
   <g id="patch_21">
    <path d="M 117.530359 448.56 
L 119.164839 448.56 
L 119.164839 448.56 
L 117.530359 448.56 
z
" clip-path="url(#p415feb01c4)" style="fill: #7f7f7f; opacity: 0.5"/>
   </g>
   <g id="patch_22">
    <path d="M 119.57346 448.56 
L 121.20794 448.56 
L 121.20794 422.688 
L 119.57346 422.688 
z
" clip-path="url(#p415feb01c4)" style="fill: #7f7f7f; opacity: 0.5"/>
   </g>
   <g id="patch_23">
    <path d="M 121.61656 448.56 
L 123.251041 448.56 
L 123.251041 448.56 
L 121.61656 448.56 
z
" clip-path="url(#p415feb01c4)" style="fill: #7f7f7f; opacity: 0.5"/>
   </g>
   <g id="patch_24">
    <path d="M 123.659661 448.56 
L 125.294142 448.56 
L 125.294142 448.56 
L 123.659661 448.56 
z
" clip-path="url(#p415feb01c4)" style="fill: #7f7f7f; opacity: 0.5"/>
   </g>
   <g id="patch_25">
    <path d="M 125.702762 448.56 
L 127.337242 448.56 
L 127.337242 422.688 
L 125.702762 422.688 
z
" clip-path="url(#p415feb01c4)" style="fill: #7f7f7f; opacity: 0.5"/>
   </g>
   <g id="patch_26">
    <path d="M 127.745863 448.56 
L 129.380343 448.56 
L 129.380343 448.56 
L 127.745863 448.56 
z
" clip-path="url(#p415feb01c4)" style="fill: #7f7f7f; opacity: 0.5"/>
   </g>
   <g id="patch_27">
    <path d="M 129.788963 448.56 
L 131.423444 448.56 
L 131.423444 422.688 
L 129.788963 422.688 
z
" clip-path="url(#p415feb01c4)" style="fill: #7f7f7f; opacity: 0.5"/>
   </g>
   <g id="patch_28">
    <path d="M 131.832064 448.56 
L 133.466545 448.56 
L 133.466545 448.56 
L 131.832064 448.56 
z
" clip-path="url(#p415feb01c4)" style="fill: #7f7f7f; opacity: 0.5"/>
   </g>
   <g id="patch_29">
    <path d="M 133.875165 448.56 
L 135.509645 448.56 
L 135.509645 422.688 
L 133.875165 422.688 
z
" clip-path="url(#p415feb01c4)" style="fill: #7f7f7f; opacity: 0.5"/>
   </g>
   <g id="patch_30">
    <path d="M 135.918266 448.56 
L 137.552746 448.56 
L 137.552746 448.56 
L 135.918266 448.56 
z
" clip-path="url(#p415feb01c4)" style="fill: #7f7f7f; opacity: 0.5"/>
   </g>
   <g id="patch_31">
    <path d="M 137.961366 448.56 
L 139.595847 448.56 
L 139.595847 422.688 
L 137.961366 422.688 
z
" clip-path="url(#p415feb01c4)" style="fill: #7f7f7f; opacity: 0.5"/>
   </g>
   <g id="patch_32">
    <path d="M 140.004467 448.56 
L 141.638948 448.56 
L 141.638948 422.688 
L 140.004467 422.688 
z
" clip-path="url(#p415feb01c4)" style="fill: #7f7f7f; opacity: 0.5"/>
   </g>
   <g id="patch_33">
    <path d="M 142.047568 448.56 
L 143.682048 448.56 
L 143.682048 448.56 
L 142.047568 448.56 
z
" clip-path="url(#p415feb01c4)" style="fill: #7f7f7f; opacity: 0.5"/>
   </g>
   <g id="patch_34">
    <path d="M 144.090668 448.56 
L 145.725149 448.56 
L 145.725149 422.688 
L 144.090668 422.688 
z
" clip-path="url(#p415feb01c4)" style="fill: #7f7f7f; opacity: 0.5"/>
   </g>
   <g id="patch_35">
    <path d="M 146.133769 448.56 
L 147.76825 448.56 
L 147.76825 422.688 
L 146.133769 422.688 
z
" clip-path="url(#p415feb01c4)" style="fill: #7f7f7f; opacity: 0.5"/>
   </g>
   <g id="patch_36">
    <path d="M 148.17687 448.56 
L 149.811351 448.56 
L 149.811351 448.56 
L 148.17687 448.56 
z
" clip-path="url(#p415feb01c4)" style="fill: #7f7f7f; opacity: 0.5"/>
   </g>
   <g id="patch_37">
    <path d="M 150.219971 448.56 
L 151.854451 448.56 
L 151.854451 422.688 
L 150.219971 422.688 
z
" clip-path="url(#p415feb01c4)" style="fill: #7f7f7f; opacity: 0.5"/>
   </g>
   <g id="patch_38">
    <path d="M 152.263071 448.56 
L 153.897552 448.56 
L 153.897552 448.56 
L 152.263071 448.56 
z
" clip-path="url(#p415feb01c4)" style="fill: #7f7f7f; opacity: 0.5"/>
   </g>
   <g id="patch_39">
    <path d="M 154.306172 448.56 
L 155.940653 448.56 
L 155.940653 448.56 
L 154.306172 448.56 
z
" clip-path="url(#p415feb01c4)" style="fill: #7f7f7f; opacity: 0.5"/>
   </g>
   <g id="patch_40">
    <path d="M 156.349273 448.56 
L 157.983754 448.56 
L 157.983754 370.944 
L 156.349273 370.944 
z
" clip-path="url(#p415feb01c4)" style="fill: #7f7f7f; opacity: 0.5"/>
   </g>
   <g id="patch_41">
    <path d="M 158.392374 448.56 
L 160.026854 448.56 
L 160.026854 396.816 
L 158.392374 396.816 
z
" clip-path="url(#p415feb01c4)" style="fill: #7f7f7f; opacity: 0.5"/>
   </g>
   <g id="patch_42">
    <path d="M 160.435474 448.56 
L 162.069955 448.56 
L 162.069955 422.688 
L 160.435474 422.688 
z
" clip-path="url(#p415feb01c4)" style="fill: #7f7f7f; opacity: 0.5"/>
   </g>
   <g id="patch_43">
    <path d="M 162.478575 448.56 
L 164.113056 448.56 
L 164.113056 422.688 
L 162.478575 422.688 
z
" clip-path="url(#p415feb01c4)" style="fill: #7f7f7f; opacity: 0.5"/>
   </g>
   <g id="patch_44">
    <path d="M 164.521676 448.56 
L 166.156157 448.56 
L 166.156157 422.688 
L 164.521676 422.688 
z
" clip-path="url(#p415feb01c4)" style="fill: #7f7f7f; opacity: 0.5"/>
   </g>
   <g id="patch_45">
    <path d="M 166.564777 448.56 
L 168.199257 448.56 
L 168.199257 422.688 
L 166.564777 422.688 
z
" clip-path="url(#p415feb01c4)" style="fill: #7f7f7f; opacity: 0.5"/>
   </g>
   <g id="patch_46">
    <path d="M 168.607877 448.56 
L 170.242358 448.56 
L 170.242358 370.944 
L 168.607877 370.944 
z
" clip-path="url(#p415feb01c4)" style="fill: #7f7f7f; opacity: 0.5"/>
   </g>
   <g id="patch_47">
    <path d="M 170.650978 448.56 
L 172.285459 448.56 
L 172.285459 448.56 
L 170.650978 448.56 
z
" clip-path="url(#p415feb01c4)" style="fill: #7f7f7f; opacity: 0.5"/>
   </g>
   <g id="patch_48">
    <path d="M 172.694079 448.56 
L 174.328559 448.56 
L 174.328559 422.688 
L 172.694079 422.688 
z
" clip-path="url(#p415feb01c4)" style="fill: #7f7f7f; opacity: 0.5"/>
   </g>
   <g id="patch_49">
    <path d="M 174.73718 448.56 
L 176.37166 448.56 
L 176.37166 422.688 
L 174.73718 422.688 
z
" clip-path="url(#p415feb01c4)" style="fill: #7f7f7f; opacity: 0.5"/>
   </g>
   <g id="patch_50">
    <path d="M 176.78028 448.56 
L 178.414761 448.56 
L 178.414761 345.072 
L 176.78028 345.072 
z
" clip-path="url(#p415feb01c4)" style="fill: #7f7f7f; opacity: 0.5"/>
   </g>
   <g id="patch_51">
    <path d="M 178.823381 448.56 
L 180.457862 448.56 
L 180.457862 370.944 
L 178.823381 370.944 
z
" clip-path="url(#p415feb01c4)" style="fill: #7f7f7f; opacity: 0.5"/>
   </g>
   <g id="patch_52">
    <path d="M 180.866482 448.56 
L 182.500962 448.56 
L 182.500962 370.944 
L 180.866482 370.944 
z
" clip-path="url(#p415feb01c4)" style="fill: #7f7f7f; opacity: 0.5"/>
   </g>
   <g id="patch_53">
    <path d="M 182.909583 448.56 
L 184.544063 448.56 
L 184.544063 396.816 
L 182.909583 396.816 
z
" clip-path="url(#p415feb01c4)" style="fill: #7f7f7f; opacity: 0.5"/>
   </g>
   <g id="patch_54">
    <path d="M 184.952683 448.56 
L 186.587164 448.56 
L 186.587164 345.072 
L 184.952683 345.072 
z
" clip-path="url(#p415feb01c4)" style="fill: #7f7f7f; opacity: 0.5"/>
   </g>
   <g id="patch_55">
    <path d="M 186.995784 448.56 
L 188.630265 448.56 
L 188.630265 345.072 
L 186.995784 345.072 
z
" clip-path="url(#p415feb01c4)" style="fill: #7f7f7f; opacity: 0.5"/>
   </g>
   <g id="patch_56">
    <path d="M 189.038885 448.56 
L 190.673365 448.56 
L 190.673365 241.584 
L 189.038885 241.584 
z
" clip-path="url(#p415feb01c4)" style="fill: #7f7f7f; opacity: 0.5"/>
   </g>
   <g id="patch_57">
    <path d="M 191.081986 448.56 
L 192.716466 448.56 
L 192.716466 319.2 
L 191.081986 319.2 
z
" clip-path="url(#p415feb01c4)" style="fill: #7f7f7f; opacity: 0.5"/>
   </g>
   <g id="patch_58">
    <path d="M 193.125086 448.56 
L 194.759567 448.56 
L 194.759567 241.584 
L 193.125086 241.584 
z
" clip-path="url(#p415feb01c4)" style="fill: #7f7f7f; opacity: 0.5"/>
   </g>
   <g id="patch_59">
    <path d="M 195.168187 448.56 
L 196.802668 448.56 
L 196.802668 319.2 
L 195.168187 319.2 
z
" clip-path="url(#p415feb01c4)" style="fill: #7f7f7f; opacity: 0.5"/>
   </g>
   <g id="patch_60">
    <path d="M 197.211288 448.56 
L 198.845768 448.56 
L 198.845768 345.072 
L 197.211288 345.072 
z
" clip-path="url(#p415feb01c4)" style="fill: #7f7f7f; opacity: 0.5"/>
   </g>
   <g id="patch_61">
    <path d="M 199.254389 448.56 
L 200.888869 448.56 
L 200.888869 319.2 
L 199.254389 319.2 
z
" clip-path="url(#p415feb01c4)" style="fill: #7f7f7f; opacity: 0.5"/>
   </g>
   <g id="patch_62">
    <path d="M 201.297489 448.56 
L 202.93197 448.56 
L 202.93197 267.456 
L 201.297489 267.456 
z
" clip-path="url(#p415feb01c4)" style="fill: #7f7f7f; opacity: 0.5"/>
   </g>
   <g id="patch_63">
    <path d="M 203.34059 448.56 
L 204.975071 448.56 
L 204.975071 396.816 
L 203.34059 396.816 
z
" clip-path="url(#p415feb01c4)" style="fill: #7f7f7f; opacity: 0.5"/>
   </g>
   <g id="patch_64">
    <path d="M 205.383691 448.56 
L 207.018171 448.56 
L 207.018171 422.688 
L 205.383691 422.688 
z
" clip-path="url(#p415feb01c4)" style="fill: #7f7f7f; opacity: 0.5"/>
   </g>
   <g id="patch_65">
    <path d="M 207.426792 448.56 
L 209.061272 448.56 
L 209.061272 241.584 
L 207.426792 241.584 
z
" clip-path="url(#p415feb01c4)" style="fill: #7f7f7f; opacity: 0.5"/>
   </g>
   <g id="patch_66">
    <path d="M 209.469892 448.56 
L 211.104373 448.56 
L 211.104373 396.816 
L 209.469892 396.816 
z
" clip-path="url(#p415feb01c4)" style="fill: #7f7f7f; opacity: 0.5"/>
   </g>
   <g id="patch_67">
    <path d="M 211.512993 448.56 
L 213.147474 448.56 
L 213.147474 345.072 
L 211.512993 345.072 
z
" clip-path="url(#p415feb01c4)" style="fill: #7f7f7f; opacity: 0.5"/>
   </g>
   <g id="patch_68">
    <path d="M 213.556094 448.56 
L 215.190574 448.56 
L 215.190574 396.816 
L 213.556094 396.816 
z
" clip-path="url(#p415feb01c4)" style="fill: #7f7f7f; opacity: 0.5"/>
   </g>
   <g id="patch_69">
    <path d="M 215.599194 448.56 
L 217.233675 448.56 
L 217.233675 215.712 
L 215.599194 215.712 
z
" clip-path="url(#p415feb01c4)" style="fill: #7f7f7f; opacity: 0.5"/>
   </g>
   <g id="patch_70">
    <path d="M 217.642295 448.56 
L 219.276776 448.56 
L 219.276776 241.584 
L 217.642295 241.584 
z
" clip-path="url(#p415feb01c4)" style="fill: #7f7f7f; opacity: 0.5"/>
   </g>
   <g id="patch_71">
    <path d="M 219.685396 448.56 
L 221.319877 448.56 
L 221.319877 241.584 
L 219.685396 241.584 
z
" clip-path="url(#p415feb01c4)" style="fill: #7f7f7f; opacity: 0.5"/>
   </g>
   <g id="patch_72">
    <path d="M 221.728497 448.56 
L 223.362977 448.56 
L 223.362977 267.456 
L 221.728497 267.456 
z
" clip-path="url(#p415feb01c4)" style="fill: #7f7f7f; opacity: 0.5"/>
   </g>
   <g id="patch_73">
    <path d="M 223.771597 448.56 
L 225.406078 448.56 
L 225.406078 215.712 
L 223.771597 215.712 
z
" clip-path="url(#p415feb01c4)" style="fill: #7f7f7f; opacity: 0.5"/>
   </g>
   <g id="patch_74">
    <path d="M 225.814698 448.56 
L 227.449179 448.56 
L 227.449179 138.096 
L 225.814698 138.096 
z
" clip-path="url(#p415feb01c4)" style="fill: #7f7f7f; opacity: 0.5"/>
   </g>
   <g id="patch_75">
    <path d="M 227.857799 448.56 
L 229.49228 448.56 
L 229.49228 138.096 
L 227.857799 138.096 
z
" clip-path="url(#p415feb01c4)" style="fill: #7f7f7f; opacity: 0.5"/>
   </g>
   <g id="patch_76">
    <path d="M 229.9009 448.56 
L 231.53538 448.56 
L 231.53538 267.456 
L 229.9009 267.456 
z
" clip-path="url(#p415feb01c4)" style="fill: #7f7f7f; opacity: 0.5"/>
   </g>
   <g id="patch_77">
    <path d="M 231.944 448.56 
L 233.578481 448.56 
L 233.578481 138.096 
L 231.944 138.096 
z
" clip-path="url(#p415feb01c4)" style="fill: #7f7f7f; opacity: 0.5"/>
   </g>
   <g id="patch_78">
    <path d="M 233.987101 448.56 
L 235.621582 448.56 
L 235.621582 396.816 
L 233.987101 396.816 
z
" clip-path="url(#p415feb01c4)" style="fill: #7f7f7f; opacity: 0.5"/>
   </g>
   <g id="patch_79">
    <path d="M 236.030202 448.56 
L 237.664682 448.56 
L 237.664682 60.48 
L 236.030202 60.48 
z
" clip-path="url(#p415feb01c4)" style="fill: #7f7f7f; opacity: 0.5"/>
   </g>
   <g id="patch_80">
    <path d="M 238.073303 448.56 
L 239.707783 448.56 
L 239.707783 163.968 
L 238.073303 163.968 
z
" clip-path="url(#p415feb01c4)" style="fill: #7f7f7f; opacity: 0.5"/>
   </g>
   <g id="patch_81">
    <path d="M 240.116403 448.56 
L 241.750884 448.56 
L 241.750884 319.2 
L 240.116403 319.2 
z
" clip-path="url(#p415feb01c4)" style="fill: #7f7f7f; opacity: 0.5"/>
   </g>
   <g id="patch_82">
    <path d="M 242.159504 448.56 
L 243.793985 448.56 
L 243.793985 345.072 
L 242.159504 345.072 
z
" clip-path="url(#p415feb01c4)" style="fill: #7f7f7f; opacity: 0.5"/>
   </g>
   <g id="patch_83">
    <path d="M 244.202605 448.56 
L 245.837085 448.56 
L 245.837085 396.816 
L 244.202605 396.816 
z
" clip-path="url(#p415feb01c4)" style="fill: #7f7f7f; opacity: 0.5"/>
   </g>
   <g id="patch_84">
    <path d="M 246.245706 448.56 
L 247.880186 448.56 
L 247.880186 345.072 
L 246.245706 345.072 
z
" clip-path="url(#p415feb01c4)" style="fill: #7f7f7f; opacity: 0.5"/>
   </g>
   <g id="patch_85">
    <path d="M 248.288806 448.56 
L 249.923287 448.56 
L 249.923287 267.456 
L 248.288806 267.456 
z
" clip-path="url(#p415feb01c4)" style="fill: #7f7f7f; opacity: 0.5"/>
   </g>
   <g id="patch_86">
    <path d="M 250.331907 448.56 
L 251.966388 448.56 
L 251.966388 112.224 
L 250.331907 112.224 
z
" clip-path="url(#p415feb01c4)" style="fill: #7f7f7f; opacity: 0.5"/>
   </g>
   <g id="patch_87">
    <path d="M 252.375008 448.56 
L 254.009488 448.56 
L 254.009488 293.328 
L 252.375008 293.328 
z
" clip-path="url(#p415feb01c4)" style="fill: #7f7f7f; opacity: 0.5"/>
   </g>
   <g id="patch_88">
    <path d="M 254.418109 448.56 
L 256.052589 448.56 
L 256.052589 241.584 
L 254.418109 241.584 
z
" clip-path="url(#p415feb01c4)" style="fill: #7f7f7f; opacity: 0.5"/>
   </g>
   <g id="patch_89">
    <path d="M 256.461209 448.56 
L 258.09569 448.56 
L 258.09569 345.072 
L 256.461209 345.072 
z
" clip-path="url(#p415feb01c4)" style="fill: #7f7f7f; opacity: 0.5"/>
   </g>
   <g id="patch_90">
    <path d="M 258.50431 448.56 
L 260.138791 448.56 
L 260.138791 319.2 
L 258.50431 319.2 
z
" clip-path="url(#p415feb01c4)" style="fill: #7f7f7f; opacity: 0.5"/>
   </g>
   <g id="patch_91">
    <path d="M 260.547411 448.56 
L 262.181891 448.56 
L 262.181891 370.944 
L 260.547411 370.944 
z
" clip-path="url(#p415feb01c4)" style="fill: #7f7f7f; opacity: 0.5"/>
   </g>
   <g id="patch_92">
    <path d="M 262.590512 448.56 
L 264.224992 448.56 
L 264.224992 396.816 
L 262.590512 396.816 
z
" clip-path="url(#p415feb01c4)" style="fill: #7f7f7f; opacity: 0.5"/>
   </g>
   <g id="patch_93">
    <path d="M 264.633612 448.56 
L 266.268093 448.56 
L 266.268093 396.816 
L 264.633612 396.816 
z
" clip-path="url(#p415feb01c4)" style="fill: #7f7f7f; opacity: 0.5"/>
   </g>
   <g id="patch_94">
    <path d="M 266.676713 448.56 
L 268.311194 448.56 
L 268.311194 448.56 
L 266.676713 448.56 
z
" clip-path="url(#p415feb01c4)" style="fill: #7f7f7f; opacity: 0.5"/>
   </g>
   <g id="patch_95">
    <path d="M 268.719814 448.56 
L 270.354294 448.56 
L 270.354294 422.688 
L 268.719814 422.688 
z
" clip-path="url(#p415feb01c4)" style="fill: #7f7f7f; opacity: 0.5"/>
   </g>
   <g id="patch_96">
    <path d="M 270.762915 448.56 
L 272.397395 448.56 
L 272.397395 396.816 
L 270.762915 396.816 
z
" clip-path="url(#p415feb01c4)" style="fill: #7f7f7f; opacity: 0.5"/>
   </g>
   <g id="patch_97">
    <path d="M 272.806015 448.56 
L 274.440496 448.56 
L 274.440496 370.944 
L 272.806015 370.944 
z
" clip-path="url(#p415feb01c4)" style="fill: #7f7f7f; opacity: 0.5"/>
   </g>
   <g id="patch_98">
    <path d="M 274.849116 448.56 
L 276.483597 448.56 
L 276.483597 422.688 
L 274.849116 422.688 
z
" clip-path="url(#p415feb01c4)" style="fill: #7f7f7f; opacity: 0.5"/>
   </g>
   <g id="patch_99">
    <path d="M 276.892217 448.56 
L 278.526697 448.56 
L 278.526697 370.944 
L 276.892217 370.944 
z
" clip-path="url(#p415feb01c4)" style="fill: #7f7f7f; opacity: 0.5"/>
   </g>
   <g id="patch_100">
    <path d="M 278.935318 448.56 
L 280.569798 448.56 
L 280.569798 396.816 
L 278.935318 396.816 
z
" clip-path="url(#p415feb01c4)" style="fill: #7f7f7f; opacity: 0.5"/>
   </g>
   <g id="patch_101">
    <path d="M 280.978418 448.56 
L 282.612899 448.56 
L 282.612899 448.56 
L 280.978418 448.56 
z
" clip-path="url(#p415feb01c4)" style="fill: #7f7f7f; opacity: 0.5"/>
   </g>
   <g id="patch_102">
    <path d="M 283.021519 448.56 
L 284.656 448.56 
L 284.656 448.56 
L 283.021519 448.56 
z
" clip-path="url(#p415feb01c4)" style="fill: #7f7f7f; opacity: 0.5"/>
   </g>
   <g id="patch_103">
    <path d="M 285.06462 448.56 
L 286.6991 448.56 
L 286.6991 422.688 
L 285.06462 422.688 
z
" clip-path="url(#p415feb01c4)" style="fill: #7f7f7f; opacity: 0.5"/>
   </g>
   <g id="patch_104">
    <path d="M 287.10772 448.56 
L 288.742201 448.56 
L 288.742201 396.816 
L 287.10772 396.816 
z
" clip-path="url(#p415feb01c4)" style="fill: #7f7f7f; opacity: 0.5"/>
   </g>
   <g id="patch_105">
    <path d="M 289.150821 448.56 
L 290.785302 448.56 
L 290.785302 422.688 
L 289.150821 422.688 
z
" clip-path="url(#p415feb01c4)" style="fill: #7f7f7f; opacity: 0.5"/>
   </g>
   <g id="patch_106">
    <path d="M 291.193922 448.56 
L 292.828403 448.56 
L 292.828403 448.56 
L 291.193922 448.56 
z
" clip-path="url(#p415feb01c4)" style="fill: #7f7f7f; opacity: 0.5"/>
   </g>
   <g id="patch_107">
    <path d="M 293.237023 448.56 
L 294.871503 448.56 
L 294.871503 422.688 
L 293.237023 422.688 
z
" clip-path="url(#p415feb01c4)" style="fill: #7f7f7f; opacity: 0.5"/>
   </g>
   <g id="patch_108">
    <path d="M 295.280123 448.56 
L 296.914604 448.56 
L 296.914604 448.56 
L 295.280123 448.56 
z
" clip-path="url(#p415feb01c4)" style="fill: #7f7f7f; opacity: 0.5"/>
   </g>
   <g id="patch_109">
    <path d="M 297.323224 448.56 
L 298.957705 448.56 
L 298.957705 422.688 
L 297.323224 422.688 
z
" clip-path="url(#p415feb01c4)" style="fill: #7f7f7f; opacity: 0.5"/>
   </g>
   <g id="patch_110">
    <path d="M 299.366325 448.56 
L 301.000806 448.56 
L 301.000806 448.56 
L 299.366325 448.56 
z
" clip-path="url(#p415feb01c4)" style="fill: #7f7f7f; opacity: 0.5"/>
   </g>
   <g id="patch_111">
    <path d="M 301.409426 448.56 
L 303.043906 448.56 
L 303.043906 448.56 
L 301.409426 448.56 
z
" clip-path="url(#p415feb01c4)" style="fill: #7f7f7f; opacity: 0.5"/>
   </g>
   <g id="patch_112">
    <path d="M 303.452526 448.56 
L 305.087007 448.56 
L 305.087007 448.56 
L 303.452526 448.56 
z
" clip-path="url(#p415feb01c4)" style="fill: #7f7f7f; opacity: 0.5"/>
   </g>
   <g id="patch_113">
    <path d="M 305.495627 448.56 
L 307.130108 448.56 
L 307.130108 422.688 
L 305.495627 422.688 
z
" clip-path="url(#p415feb01c4)" style="fill: #7f7f7f; opacity: 0.5"/>
   </g>
   <g id="patch_114">
    <path d="M 307.538728 448.56 
L 309.173208 448.56 
L 309.173208 422.688 
L 307.538728 422.688 
z
" clip-path="url(#p415feb01c4)" style="fill: #7f7f7f; opacity: 0.5"/>
   </g>
   <g id="patch_115">
    <path d="M 309.581829 448.56 
L 311.216309 448.56 
L 311.216309 448.56 
L 309.581829 448.56 
z
" clip-path="url(#p415feb01c4)" style="fill: #7f7f7f; opacity: 0.5"/>
   </g>
   <g id="patch_116">
    <path d="M 311.624929 448.56 
L 313.25941 448.56 
L 313.25941 448.56 
L 311.624929 448.56 
z
" clip-path="url(#p415feb01c4)" style="fill: #7f7f7f; opacity: 0.5"/>
   </g>
   <g id="patch_117">
    <path d="M 313.66803 448.56 
L 315.302511 448.56 
L 315.302511 448.56 
L 313.66803 448.56 
z
" clip-path="url(#p415feb01c4)" style="fill: #7f7f7f; opacity: 0.5"/>
   </g>
   <g id="patch_118">
    <path d="M 315.711131 448.56 
L 317.345611 448.56 
L 317.345611 422.688 
L 315.711131 422.688 
z
" clip-path="url(#p415feb01c4)" style="fill: #7f7f7f; opacity: 0.5"/>
   </g>
   <g id="patch_119">
    <path d="M 317.754232 448.56 
L 319.388712 448.56 
L 319.388712 448.56 
L 317.754232 448.56 
z
" clip-path="url(#p415feb01c4)" style="fill: #7f7f7f; opacity: 0.5"/>
   </g>
   <g id="patch_120">
    <path d="M 319.797332 448.56 
L 321.431813 448.56 
L 321.431813 448.56 
L 319.797332 448.56 
z
" clip-path="url(#p415feb01c4)" style="fill: #7f7f7f; opacity: 0.5"/>
   </g>
   <g id="patch_121">
    <path d="M 321.840433 448.56 
L 323.474914 448.56 
L 323.474914 448.56 
L 321.840433 448.56 
z
" clip-path="url(#p415feb01c4)" style="fill: #7f7f7f; opacity: 0.5"/>
   </g>
   <g id="patch_122">
    <path d="M 323.883534 448.56 
L 325.518014 448.56 
L 325.518014 448.56 
L 323.883534 448.56 
z
" clip-path="url(#p415feb01c4)" style="fill: #7f7f7f; opacity: 0.5"/>
   </g>
   <g id="patch_123">
    <path d="M 325.926635 448.56 
L 327.561115 448.56 
L 327.561115 448.56 
L 325.926635 448.56 
z
" clip-path="url(#p415feb01c4)" style="fill: #7f7f7f; opacity: 0.5"/>
   </g>
   <g id="patch_124">
    <path d="M 327.969735 448.56 
L 329.604216 448.56 
L 329.604216 448.56 
L 327.969735 448.56 
z
" clip-path="url(#p415feb01c4)" style="fill: #7f7f7f; opacity: 0.5"/>
   </g>
   <g id="patch_125">
    <path d="M 330.012836 448.56 
L 331.647317 448.56 
L 331.647317 448.56 
L 330.012836 448.56 
z
" clip-path="url(#p415feb01c4)" style="fill: #7f7f7f; opacity: 0.5"/>
   </g>
   <g id="patch_126">
    <path d="M 332.055937 448.56 
L 333.690417 448.56 
L 333.690417 448.56 
L 332.055937 448.56 
z
" clip-path="url(#p415feb01c4)" style="fill: #7f7f7f; opacity: 0.5"/>
   </g>
   <g id="patch_127">
    <path d="M 334.099038 448.56 
L 335.733518 448.56 
L 335.733518 448.56 
L 334.099038 448.56 
z
" clip-path="url(#p415feb01c4)" style="fill: #7f7f7f; opacity: 0.5"/>
   </g>
   <g id="patch_128">
    <path d="M 336.142138 448.56 
L 337.776619 448.56 
L 337.776619 422.688 
L 336.142138 422.688 
z
" clip-path="url(#p415feb01c4)" style="fill: #7f7f7f; opacity: 0.5"/>
   </g>
   <g id="patch_129">
    <path d="M 338.185239 448.56 
L 339.81972 448.56 
L 339.81972 448.56 
L 338.185239 448.56 
z
" clip-path="url(#p415feb01c4)" style="fill: #7f7f7f; opacity: 0.5"/>
   </g>
   <g id="patch_130">
    <path d="M 340.22834 448.56 
L 341.86282 448.56 
L 341.86282 448.56 
L 340.22834 448.56 
z
" clip-path="url(#p415feb01c4)" style="fill: #7f7f7f; opacity: 0.5"/>
   </g>
   <g id="patch_131">
    <path d="M 342.271441 448.56 
L 343.905921 448.56 
L 343.905921 448.56 
L 342.271441 448.56 
z
" clip-path="url(#p415feb01c4)" style="fill: #7f7f7f; opacity: 0.5"/>
   </g>
   <g id="patch_132">
    <path d="M 344.314541 448.56 
L 345.949022 448.56 
L 345.949022 448.56 
L 344.314541 448.56 
z
" clip-path="url(#p415feb01c4)" style="fill: #7f7f7f; opacity: 0.5"/>
   </g>
   <g id="patch_133">
    <path d="M 346.357642 448.56 
L 347.992123 448.56 
L 347.992123 448.56 
L 346.357642 448.56 
z
" clip-path="url(#p415feb01c4)" style="fill: #7f7f7f; opacity: 0.5"/>
   </g>
   <g id="patch_134">
    <path d="M 348.400743 448.56 
L 350.035223 448.56 
L 350.035223 448.56 
L 348.400743 448.56 
z
" clip-path="url(#p415feb01c4)" style="fill: #7f7f7f; opacity: 0.5"/>
   </g>
   <g id="patch_135">
    <path d="M 350.443843 448.56 
L 352.078324 448.56 
L 352.078324 422.688 
L 350.443843 422.688 
z
" clip-path="url(#p415feb01c4)" style="fill: #7f7f7f; opacity: 0.5"/>
   </g>
   <g id="patch_136">
    <path d="M 352.486944 448.56 
L 354.121425 448.56 
L 354.121425 448.56 
L 352.486944 448.56 
z
" clip-path="url(#p415feb01c4)" style="fill: #7f7f7f; opacity: 0.5"/>
   </g>
   <g id="patch_137">
    <path d="M 354.530045 448.56 
L 356.164526 448.56 
L 356.164526 448.56 
L 354.530045 448.56 
z
" clip-path="url(#p415feb01c4)" style="fill: #7f7f7f; opacity: 0.5"/>
   </g>
   <g id="patch_138">
    <path d="M 356.573146 448.56 
L 358.207626 448.56 
L 358.207626 448.56 
L 356.573146 448.56 
z
" clip-path="url(#p415feb01c4)" style="fill: #7f7f7f; opacity: 0.5"/>
   </g>
   <g id="patch_139">
    <path d="M 358.616246 448.56 
L 360.250727 448.56 
L 360.250727 448.56 
L 358.616246 448.56 
z
" clip-path="url(#p415feb01c4)" style="fill: #7f7f7f; opacity: 0.5"/>
   </g>
   <g id="patch_140">
    <path d="M 360.659347 448.56 
L 362.293828 448.56 
L 362.293828 448.56 
L 360.659347 448.56 
z
" clip-path="url(#p415feb01c4)" style="fill: #7f7f7f; opacity: 0.5"/>
   </g>
   <g id="patch_141">
    <path d="M 362.702448 448.56 
L 364.336929 448.56 
L 364.336929 448.56 
L 362.702448 448.56 
z
" clip-path="url(#p415feb01c4)" style="fill: #7f7f7f; opacity: 0.5"/>
   </g>
   <g id="patch_142">
    <path d="M 364.745549 448.56 
L 366.380029 448.56 
L 366.380029 448.56 
L 364.745549 448.56 
z
" clip-path="url(#p415feb01c4)" style="fill: #7f7f7f; opacity: 0.5"/>
   </g>
   <g id="patch_143">
    <path d="M 366.788649 448.56 
L 368.42313 448.56 
L 368.42313 448.56 
L 366.788649 448.56 
z
" clip-path="url(#p415feb01c4)" style="fill: #7f7f7f; opacity: 0.5"/>
   </g>
   <g id="patch_144">
    <path d="M 368.83175 448.56 
L 370.466231 448.56 
L 370.466231 448.56 
L 368.83175 448.56 
z
" clip-path="url(#p415feb01c4)" style="fill: #7f7f7f; opacity: 0.5"/>
   </g>
   <g id="patch_145">
    <path d="M 370.874851 448.56 
L 372.509332 448.56 
L 372.509332 448.56 
L 370.874851 448.56 
z
" clip-path="url(#p415feb01c4)" style="fill: #7f7f7f; opacity: 0.5"/>
   </g>
   <g id="patch_146">
    <path d="M 372.917952 448.56 
L 374.552432 448.56 
L 374.552432 448.56 
L 372.917952 448.56 
z
" clip-path="url(#p415feb01c4)" style="fill: #7f7f7f; opacity: 0.5"/>
   </g>
   <g id="patch_147">
    <path d="M 374.961052 448.56 
L 376.595533 448.56 
L 376.595533 448.56 
L 374.961052 448.56 
z
" clip-path="url(#p415feb01c4)" style="fill: #7f7f7f; opacity: 0.5"/>
   </g>
   <g id="patch_148">
    <path d="M 377.004153 448.56 
L 378.638634 448.56 
L 378.638634 448.56 
L 377.004153 448.56 
z
" clip-path="url(#p415feb01c4)" style="fill: #7f7f7f; opacity: 0.5"/>
   </g>
   <g id="patch_149">
    <path d="M 379.047254 448.56 
L 380.681734 448.56 
L 380.681734 448.56 
L 379.047254 448.56 
z
" clip-path="url(#p415feb01c4)" style="fill: #7f7f7f; opacity: 0.5"/>
   </g>
   <g id="patch_150">
    <path d="M 381.090355 448.56 
L 382.724835 448.56 
L 382.724835 448.56 
L 381.090355 448.56 
z
" clip-path="url(#p415feb01c4)" style="fill: #7f7f7f; opacity: 0.5"/>
   </g>
   <g id="patch_151">
    <path d="M 383.133455 448.56 
L 384.767936 448.56 
L 384.767936 448.56 
L 383.133455 448.56 
z
" clip-path="url(#p415feb01c4)" style="fill: #7f7f7f; opacity: 0.5"/>
   </g>
   <g id="patch_152">
    <path d="M 385.176556 448.56 
L 386.811037 448.56 
L 386.811037 448.56 
L 385.176556 448.56 
z
" clip-path="url(#p415feb01c4)" style="fill: #7f7f7f; opacity: 0.5"/>
   </g>
   <g id="patch_153">
    <path d="M 387.219657 448.56 
L 388.854137 448.56 
L 388.854137 448.56 
L 387.219657 448.56 
z
" clip-path="url(#p415feb01c4)" style="fill: #7f7f7f; opacity: 0.5"/>
   </g>
   <g id="patch_154">
    <path d="M 389.262758 448.56 
L 390.897238 448.56 
L 390.897238 448.56 
L 389.262758 448.56 
z
" clip-path="url(#p415feb01c4)" style="fill: #7f7f7f; opacity: 0.5"/>
   </g>
   <g id="patch_155">
    <path d="M 391.305858 448.56 
L 392.940339 448.56 
L 392.940339 448.56 
L 391.305858 448.56 
z
" clip-path="url(#p415feb01c4)" style="fill: #7f7f7f; opacity: 0.5"/>
   </g>
   <g id="patch_156">
    <path d="M 393.348959 448.56 
L 394.98344 448.56 
L 394.98344 448.56 
L 393.348959 448.56 
z
" clip-path="url(#p415feb01c4)" style="fill: #7f7f7f; opacity: 0.5"/>
   </g>
   <g id="patch_157">
    <path d="M 395.39206 448.56 
L 397.02654 448.56 
L 397.02654 448.56 
L 395.39206 448.56 
z
" clip-path="url(#p415feb01c4)" style="fill: #7f7f7f; opacity: 0.5"/>
   </g>
   <g id="patch_158">
    <path d="M 397.435161 448.56 
L 399.069641 448.56 
L 399.069641 448.56 
L 397.435161 448.56 
z
" clip-path="url(#p415feb01c4)" style="fill: #7f7f7f; opacity: 0.5"/>
   </g>
   <g id="patch_159">
    <path d="M 399.478261 448.56 
L 401.112742 448.56 
L 401.112742 448.56 
L 399.478261 448.56 
z
" clip-path="url(#p415feb01c4)" style="fill: #7f7f7f; opacity: 0.5"/>
   </g>
   <g id="patch_160">
    <path d="M 401.521362 448.56 
L 403.155843 448.56 
L 403.155843 448.56 
L 401.521362 448.56 
z
" clip-path="url(#p415feb01c4)" style="fill: #7f7f7f; opacity: 0.5"/>
   </g>
   <g id="patch_161">
    <path d="M 403.564463 448.56 
L 405.198943 448.56 
L 405.198943 448.56 
L 403.564463 448.56 
z
" clip-path="url(#p415feb01c4)" style="fill: #7f7f7f; opacity: 0.5"/>
   </g>
   <g id="patch_162">
    <path d="M 405.607564 448.56 
L 407.242044 448.56 
L 407.242044 448.56 
L 405.607564 448.56 
z
" clip-path="url(#p415feb01c4)" style="fill: #7f7f7f; opacity: 0.5"/>
   </g>
   <g id="patch_163">
    <path d="M 407.650664 448.56 
L 409.285145 448.56 
L 409.285145 448.56 
L 407.650664 448.56 
z
" clip-path="url(#p415feb01c4)" style="fill: #7f7f7f; opacity: 0.5"/>
   </g>
   <g id="patch_164">
    <path d="M 409.693765 448.56 
L 411.328246 448.56 
L 411.328246 448.56 
L 409.693765 448.56 
z
" clip-path="url(#p415feb01c4)" style="fill: #7f7f7f; opacity: 0.5"/>
   </g>
   <g id="patch_165">
    <path d="M 411.736866 448.56 
L 413.371346 448.56 
L 413.371346 448.56 
L 411.736866 448.56 
z
" clip-path="url(#p415feb01c4)" style="fill: #7f7f7f; opacity: 0.5"/>
   </g>
   <g id="patch_166">
    <path d="M 413.779967 448.56 
L 415.414447 448.56 
L 415.414447 448.56 
L 413.779967 448.56 
z
" clip-path="url(#p415feb01c4)" style="fill: #7f7f7f; opacity: 0.5"/>
   </g>
   <g id="patch_167">
    <path d="M 415.823067 448.56 
L 417.457548 448.56 
L 417.457548 448.56 
L 415.823067 448.56 
z
" clip-path="url(#p415feb01c4)" style="fill: #7f7f7f; opacity: 0.5"/>
   </g>
   <g id="patch_168">
    <path d="M 417.866168 448.56 
L 419.500649 448.56 
L 419.500649 448.56 
L 417.866168 448.56 
z
" clip-path="url(#p415feb01c4)" style="fill: #7f7f7f; opacity: 0.5"/>
   </g>
   <g id="patch_169">
    <path d="M 419.909269 448.56 
L 421.543749 448.56 
L 421.543749 448.56 
L 419.909269 448.56 
z
" clip-path="url(#p415feb01c4)" style="fill: #7f7f7f; opacity: 0.5"/>
   </g>
   <g id="patch_170">
    <path d="M 421.952369 448.56 
L 423.58685 448.56 
L 423.58685 448.56 
L 421.952369 448.56 
z
" clip-path="url(#p415feb01c4)" style="fill: #7f7f7f; opacity: 0.5"/>
   </g>
   <g id="patch_171">
    <path d="M 423.99547 448.56 
L 425.629951 448.56 
L 425.629951 448.56 
L 423.99547 448.56 
z
" clip-path="url(#p415feb01c4)" style="fill: #7f7f7f; opacity: 0.5"/>
   </g>
   <g id="patch_172">
    <path d="M 426.038571 448.56 
L 427.673052 448.56 
L 427.673052 448.56 
L 426.038571 448.56 
z
" clip-path="url(#p415feb01c4)" style="fill: #7f7f7f; opacity: 0.5"/>
   </g>
   <g id="patch_173">
    <path d="M 428.081672 448.56 
L 429.716152 448.56 
L 429.716152 448.56 
L 428.081672 448.56 
z
" clip-path="url(#p415feb01c4)" style="fill: #7f7f7f; opacity: 0.5"/>
   </g>
   <g id="patch_174">
    <path d="M 430.124772 448.56 
L 431.759253 448.56 
L 431.759253 448.56 
L 430.124772 448.56 
z
" clip-path="url(#p415feb01c4)" style="fill: #7f7f7f; opacity: 0.5"/>
   </g>
   <g id="patch_175">
    <path d="M 432.167873 448.56 
L 433.802354 448.56 
L 433.802354 448.56 
L 432.167873 448.56 
z
" clip-path="url(#p415feb01c4)" style="fill: #7f7f7f; opacity: 0.5"/>
   </g>
   <g id="patch_176">
    <path d="M 434.210974 448.56 
L 435.845455 448.56 
L 435.845455 448.56 
L 434.210974 448.56 
z
" clip-path="url(#p415feb01c4)" style="fill: #7f7f7f; opacity: 0.5"/>
   </g>
   <g id="patch_177">
    <path d="M 453.6 448.56 
L 453.6 60.48 
" style="fill: none; stroke: #7f7f7f; stroke-width: 0.8; stroke-linejoin: miter; stroke-linecap: square"/>
   </g>
  </g>
  <g id="axes_2">
   <g id="FillBetweenPolyCollection_1">
    <defs>
     <path id="meadaca15de" d="M 81.571786 -345.847873 
L 81.571786 -84.689281 
L 83.614886 -87.221969 
L 85.657987 -87.59821 
L 87.701088 -85.860035 
L 89.744189 -85.863849 
L 91.787289 -84.434896 
L 93.83039 -82.574392 
L 95.873491 -81.573671 
L 97.916592 -81.283592 
L 99.959692 -79.874093 
L 102.002793 -80.082318 
L 104.045894 -79.213125 
L 106.088995 -78.504944 
L 108.132095 -78.637914 
L 110.175196 -78.606341 
L 112.218297 -78.64845 
L 114.261398 -79.9433 
L 116.304498 -81.179185 
L 118.347599 -83.218184 
L 120.3907 -84.879888 
L 122.433801 -85.66114 
L 124.476901 -87.020815 
L 126.520002 -89.834997 
L 128.563103 -92.234167 
L 130.606204 -93.766601 
L 132.649304 -96.598923 
L 134.692405 -99.003191 
L 136.735506 -100.089752 
L 138.778607 -101.039866 
L 140.821707 -102.472746 
L 142.864808 -103.380969 
L 144.907909 -105.269168 
L 146.95101 -105.631683 
L 148.99411 -105.645117 
L 151.037211 -107.361963 
L 153.080312 -107.702795 
L 155.123412 -111.301334 
L 157.166513 -114.844274 
L 159.209614 -116.821225 
L 161.252715 -116.475943 
L 163.295815 -115.575199 
L 165.338916 -114.600895 
L 167.382017 -116.625824 
L 169.425118 -117.903663 
L 171.468218 -117.372978 
L 173.511319 -120.00197 
L 175.55442 -124.395406 
L 177.597521 -131.599256 
L 179.640621 -135.235653 
L 181.683722 -138.571515 
L 183.726823 -142.705001 
L 185.769924 -152.54532 
L 187.813024 -160.165659 
L 189.856125 -169.231397 
L 191.899226 -165.243396 
L 193.942327 -161.459751 
L 195.985427 -145.376576 
L 198.028528 -132.943394 
L 200.071629 -125.246745 
L 202.11473 -116.638149 
L 204.15783 -104.971871 
L 206.200931 -99.220327 
L 208.244032 -99.713227 
L 210.287133 -94.973949 
L 212.330233 -94.685647 
L 214.373334 -95.824788 
L 216.416435 -102.592164 
L 218.459536 -108.358858 
L 220.502636 -112.651178 
L 222.545737 -114.746101 
L 224.588838 -121.03887 
L 226.631938 -126.658442 
L 228.675039 -125.056966 
L 230.71814 -119.522837 
L 232.761241 -116.924054 
L 234.804341 -108.156912 
L 236.847442 -109.921051 
L 238.890543 -102.134222 
L 240.933644 -90.84492 
L 242.976744 -84.088557 
L 245.019845 -80.93607 
L 247.062946 -81.217025 
L 249.106047 -83.363179 
L 251.149147 -85.261555 
L 253.192248 -81.486074 
L 255.235349 -78.51604 
L 257.27845 -74.846763 
L 259.32155 -72.089768 
L 261.364651 -69.144142 
L 263.407752 -67.22171 
L 265.450853 -65.613706 
L 267.493953 -64.625303 
L 269.537054 -64.176101 
L 271.580155 -64.056131 
L 273.623256 -64.070028 
L 275.666356 -63.878268 
L 277.709457 -63.542647 
L 279.752558 -63.00562 
L 281.795659 -62.186561 
L 283.838759 -61.797137 
L 285.88186 -61.709541 
L 287.924961 -61.52505 
L 289.968062 -61.172105 
L 292.011162 -60.691902 
L 294.054263 -60.276359 
L 296.097364 -59.845854 
L 298.140464 -59.612559 
L 300.183565 -59.274449 
L 302.226666 -58.929827 
L 304.269767 -58.74545 
L 306.312867 -58.573375 
L 308.355968 -58.399614 
L 310.399069 -58.167155 
L 312.44217 -57.86062 
L 314.48527 -57.64569 
L 316.528371 -57.522414 
L 318.571472 -57.176256 
L 320.614573 -56.843056 
L 322.657673 -56.659743 
L 324.700774 -56.661597 
L 326.743875 -56.609369 
L 328.786976 -56.494685 
L 330.830076 -56.59796 
L 332.873177 -56.720563 
L 334.916278 -56.853084 
L 336.959379 -56.994863 
L 339.002479 -56.774987 
L 341.04558 -56.71813 
L 343.088681 -56.55979 
L 345.131782 -56.563567 
L 347.174882 -56.513262 
L 349.217983 -56.578795 
L 351.261084 -56.640289 
L 353.304185 -56.270426 
L 355.347285 -55.919578 
L 357.390386 -55.553053 
L 359.433487 -55.441581 
L 361.476588 -55.44003 
L 363.519688 -55.440004 
L 365.562789 -55.440002 
L 367.60589 -55.440001 
L 369.64899 -55.440001 
L 371.692091 -55.440001 
L 373.735192 -55.440001 
L 375.778293 -55.440001 
L 377.821393 -55.440001 
L 379.864494 -55.440001 
L 381.907595 -55.440001 
L 383.950696 -55.440001 
L 385.993796 -55.440001 
L 388.036897 -55.440001 
L 390.079998 -55.440001 
L 392.123099 -55.44 
L 394.166199 -55.44 
L 396.2093 -55.44 
L 398.252401 -55.44 
L 400.295502 -55.44 
L 402.338602 -55.44 
L 404.381703 -55.44 
L 406.424804 -55.44 
L 408.467905 -55.44 
L 410.511005 -55.44 
L 412.554106 -55.44 
L 414.597207 -55.44 
L 416.640308 -55.44 
L 418.683408 -55.44 
L 420.726509 -55.44 
L 422.76961 -55.44 
L 424.812711 -55.44 
L 426.855811 -55.44 
L 428.898912 -55.44 
L 430.942013 -55.44 
L 432.985114 -55.44 
L 435.028214 -55.44 
L 435.028214 -71.49616 
L 435.028214 -71.49616 
L 432.985114 -71.474219 
L 430.942013 -71.764477 
L 428.898912 -71.935366 
L 426.855811 -72.261805 
L 424.812711 -72.369305 
L 422.76961 -72.777126 
L 420.726509 -71.655932 
L 418.683408 -71.943936 
L 416.640308 -72.948169 
L 414.597207 -73.180668 
L 412.554106 -73.106079 
L 410.511005 -72.983917 
L 408.467905 -72.530333 
L 406.424804 -72.932602 
L 404.381703 -73.203342 
L 402.338602 -74.445839 
L 400.295502 -73.947084 
L 398.252401 -74.686531 
L 396.2093 -74.466996 
L 394.166199 -75.157556 
L 392.123099 -74.18518 
L 390.079998 -74.455621 
L 388.036897 -74.43693 
L 385.993796 -75.001944 
L 383.950696 -74.581197 
L 381.907595 -74.525331 
L 379.864494 -75.733511 
L 377.821393 -75.830474 
L 375.778293 -75.868622 
L 373.735192 -76.060489 
L 371.692091 -76.359538 
L 369.64899 -77.103512 
L 367.60589 -77.193533 
L 365.562789 -76.680958 
L 363.519688 -77.973539 
L 361.476588 -78.458679 
L 359.433487 -78.60064 
L 357.390386 -79.502872 
L 355.347285 -80.844996 
L 353.304185 -82.156165 
L 351.261084 -82.097838 
L 349.217983 -81.954958 
L 347.174882 -81.326131 
L 345.131782 -80.689428 
L 343.088681 -80.103817 
L 341.04558 -80.04346 
L 339.002479 -79.321335 
L 336.959379 -79.033179 
L 334.916278 -77.512403 
L 332.873177 -76.558556 
L 330.830076 -76.381798 
L 328.786976 -75.465113 
L 326.743875 -74.613524 
L 324.700774 -74.506855 
L 322.657673 -74.399981 
L 320.614573 -73.486016 
L 318.571472 -74.387234 
L 316.528371 -74.27175 
L 314.48527 -74.244772 
L 312.44217 -74.45695 
L 310.399069 -74.229002 
L 308.355968 -74.824959 
L 306.312867 -74.800812 
L 304.269767 -74.62081 
L 302.226666 -73.985096 
L 300.183565 -74.203971 
L 298.140464 -75.02556 
L 296.097364 -75.200951 
L 294.054263 -75.841792 
L 292.011162 -75.673425 
L 289.968062 -76.181057 
L 287.924961 -76.681317 
L 285.88186 -76.356699 
L 283.838759 -76.048502 
L 281.795659 -76.026784 
L 279.752558 -77.209791 
L 277.709457 -78.618713 
L 275.666356 -78.283084 
L 273.623256 -79.206534 
L 271.580155 -79.503371 
L 269.537054 -78.775896 
L 267.493953 -79.157641 
L 265.450853 -81.815779 
L 263.407752 -84.104973 
L 261.364651 -88.636291 
L 259.32155 -93.675304 
L 257.27845 -98.385369 
L 255.235349 -105.579642 
L 253.192248 -110.644006 
L 251.149147 -117.311244 
L 249.106047 -112.859777 
L 247.062946 -109.521924 
L 245.019845 -109.567103 
L 242.976744 -116.113325 
L 240.933644 -129.395934 
L 238.890543 -149.849311 
L 236.847442 -168.193753 
L 234.804341 -161.045317 
L 232.761241 -178.001313 
L 230.71814 -180.405415 
L 228.675039 -195.233885 
L 226.631938 -195.306601 
L 224.588838 -184.94215 
L 222.545737 -175.032233 
L 220.502636 -167.217834 
L 218.459536 -162.010526 
L 216.416435 -156.285415 
L 214.373334 -141.907863 
L 212.330233 -140.511528 
L 210.287133 -142.428245 
L 208.244032 -152.717265 
L 206.200931 -152.542419 
L 204.15783 -165.458135 
L 202.11473 -190.793662 
L 200.071629 -207.656871 
L 198.028528 -227.216918 
L 195.985427 -255.966632 
L 193.942327 -285.860045 
L 191.899226 -295.693659 
L 189.856125 -311.964464 
L 187.813024 -294.322022 
L 185.769924 -286.122876 
L 183.726823 -273.638692 
L 181.683722 -265.985568 
L 179.640621 -261.269459 
L 177.597521 -257.758834 
L 175.55442 -243.122955 
L 173.511319 -235.160876 
L 171.468218 -230.298181 
L 169.425118 -239.539496 
L 167.382017 -237.134614 
L 165.338916 -236.31616 
L 163.295815 -238.154268 
L 161.252715 -240.747889 
L 159.209614 -245.593194 
L 157.166513 -249.023587 
L 155.123412 -235.905234 
L 153.080312 -233.320989 
L 151.037211 -236.954394 
L 148.99411 -239.499487 
L 146.95101 -245.009004 
L 144.907909 -245.527641 
L 142.864808 -251.166996 
L 140.821707 -259.437781 
L 138.778607 -261.768877 
L 136.735506 -255.462716 
L 134.692405 -253.641085 
L 132.649304 -244.019968 
L 130.606204 -234.177685 
L 128.563103 -222.94547 
L 126.520002 -213.973084 
L 124.476901 -198.849985 
L 122.433801 -188.379186 
L 120.3907 -180.732802 
L 118.347599 -168.902643 
L 116.304498 -161.617643 
L 114.261398 -156.496549 
L 112.218297 -152.781398 
L 110.175196 -151.743814 
L 108.132095 -153.787167 
L 106.088995 -155.757606 
L 104.045894 -161.501889 
L 102.002793 -169.196736 
L 99.959692 -187.416892 
L 97.916592 -196.243378 
L 95.873491 -215.942155 
L 93.83039 -237.391748 
L 91.787289 -262.880791 
L 89.744189 -290.540062 
L 87.701088 -318.145779 
L 85.657987 -349.21041 
L 83.614886 -350.580587 
L 81.571786 -345.847873 
z
" style="stroke: #0173b2; stroke-opacity: 0.3"/>
    </defs>
    <g clip-path="url(#p415feb01c4)">
     <use xlink:href="#meadaca15de" x="0" y="504" style="fill: #0173b2; fill-opacity: 0.3; stroke: #0173b2; stroke-opacity: 0.3"/>
    </g>
   </g>
   <g id="FillBetweenPolyCollection_2">
    <defs>
     <path id="m94787f32ea" d="M 81.571786 -425.04 
L 81.571786 -94.473802 
L 83.614886 -97.504936 
L 85.657987 -96.611369 
L 87.701088 -93.678457 
L 89.744189 -90.667948 
L 91.787289 -87.343641 
L 93.83039 -85.78869 
L 95.873491 -83.858858 
L 97.916592 -81.934112 
L 99.959692 -81.149468 
L 102.002793 -79.953278 
L 104.045894 -79.107289 
L 106.088995 -78.129141 
L 108.132095 -77.806525 
L 110.175196 -77.134957 
L 112.218297 -78.153813 
L 114.261398 -78.766277 
L 116.304498 -80.026 
L 118.347599 -81.977049 
L 120.3907 -84.009211 
L 122.433801 -86.095082 
L 124.476901 -88.504247 
L 126.520002 -91.25723 
L 128.563103 -93.308353 
L 130.606204 -96.083335 
L 132.649304 -98.140508 
L 134.692405 -99.379114 
L 136.735506 -101.778498 
L 138.778607 -102.446973 
L 140.821707 -103.779644 
L 142.864808 -104.228261 
L 144.907909 -104.524987 
L 146.95101 -104.71174 
L 148.99411 -105.582875 
L 151.037211 -108.211673 
L 153.080312 -108.750381 
L 155.123412 -111.042227 
L 157.166513 -116.679295 
L 159.209614 -116.238067 
L 161.252715 -114.860086 
L 163.295815 -115.002865 
L 165.338916 -114.498484 
L 167.382017 -116.038682 
L 169.425118 -119.374516 
L 171.468218 -116.650836 
L 173.511319 -119.596473 
L 175.55442 -124.798073 
L 177.597521 -132.228894 
L 179.640621 -137.362925 
L 181.683722 -139.709483 
L 183.726823 -143.776685 
L 185.769924 -151.168733 
L 187.813024 -158.571615 
L 189.856125 -168.378884 
L 191.899226 -164.562534 
L 193.942327 -162.580388 
L 195.985427 -145.697189 
L 198.028528 -132.342375 
L 200.071629 -124.544514 
L 202.11473 -115.545254 
L 204.15783 -104.571764 
L 206.200931 -99.727206 
L 208.244032 -99.466554 
L 210.287133 -94.459843 
L 212.330233 -94.621636 
L 214.373334 -95.826772 
L 216.416435 -102.912235 
L 218.459536 -107.240125 
L 220.502636 -111.917599 
L 222.545737 -115.027641 
L 224.588838 -120.942412 
L 226.631938 -127.503173 
L 228.675039 -125.072072 
L 230.71814 -119.415818 
L 232.761241 -115.804407 
L 234.804341 -107.890916 
L 236.847442 -111.155415 
L 238.890543 -101.731053 
L 240.933644 -90.853606 
L 242.976744 -84.395886 
L 245.019845 -80.711411 
L 247.062946 -81.097648 
L 249.106047 -82.853413 
L 251.149147 -84.810674 
L 253.192248 -81.045752 
L 255.235349 -78.133691 
L 257.27845 -74.313416 
L 259.32155 -71.924829 
L 261.364651 -68.865976 
L 263.407752 -66.776065 
L 265.450853 -65.599372 
L 267.493953 -64.644359 
L 269.537054 -64.040652 
L 271.580155 -63.984083 
L 273.623256 -64.109076 
L 275.666356 -63.772709 
L 277.709457 -63.69825 
L 279.752558 -63.227108 
L 281.795659 -62.508037 
L 283.838759 -62.203601 
L 285.88186 -62.342988 
L 287.924961 -62.206981 
L 289.968062 -62.087846 
L 292.011162 -61.896763 
L 294.054263 -61.80129 
L 296.097364 -61.771469 
L 298.140464 -61.617013 
L 300.183565 -61.596324 
L 302.226666 -61.477411 
L 304.269767 -61.740675 
L 306.312867 -61.863074 
L 308.355968 -61.670858 
L 310.399069 -61.73731 
L 312.44217 -61.594101 
L 314.48527 -61.69684 
L 316.528371 -61.702354 
L 318.571472 -61.618026 
L 320.614573 -61.278974 
L 322.657673 -61.173059 
L 324.700774 -61.327933 
L 326.743875 -61.361696 
L 328.786976 -61.428439 
L 330.830076 -61.529663 
L 332.873177 -61.635751 
L 334.916278 -61.570683 
L 336.959379 -61.896356 
L 339.002479 -61.804138 
L 341.04558 -61.678513 
L 343.088681 -61.798069 
L 345.131782 -61.865483 
L 347.174882 -61.873019 
L 349.217983 -62.034343 
L 351.261084 -61.998296 
L 353.304185 -61.998296 
L 355.347285 -61.998296 
L 357.390386 -61.998296 
L 359.433487 -61.998296 
L 361.476588 -61.998296 
L 363.519688 -61.998296 
L 365.562789 -61.998296 
L 367.60589 -61.998296 
L 369.64899 -61.998296 
L 371.692091 -61.998296 
L 373.735192 -61.998296 
L 375.778293 -61.998296 
L 377.821393 -61.998296 
L 379.864494 -61.998296 
L 381.907595 -61.998296 
L 383.950696 -61.998296 
L 385.993796 -61.998296 
L 388.036897 -61.998296 
L 390.079998 -61.998296 
L 392.123099 -61.998296 
L 394.166199 -61.998296 
L 396.2093 -61.998296 
L 398.252401 -61.998296 
L 400.295502 -61.998296 
L 402.338602 -61.998296 
L 404.381703 -61.998296 
L 406.424804 -61.998296 
L 408.467905 -61.998296 
L 410.511005 -61.998296 
L 412.554106 -61.998296 
L 414.597207 -61.998296 
L 416.640308 -61.998296 
L 418.683408 -61.998296 
L 420.726509 -61.998296 
L 422.76961 -61.998296 
L 424.812711 -61.998296 
L 426.855811 -61.998296 
L 428.898912 -61.998296 
L 430.942013 -61.998296 
L 432.985114 -61.998296 
L 435.028214 -61.998296 
L 435.028214 -114.006013 
L 435.028214 -114.006013 
L 432.985114 -114.006013 
L 430.942013 -114.006013 
L 428.898912 -114.006013 
L 426.855811 -114.006013 
L 424.812711 -114.006013 
L 422.76961 -114.006013 
L 420.726509 -114.006013 
L 418.683408 -114.006013 
L 416.640308 -114.006013 
L 414.597207 -114.006013 
L 412.554106 -114.006013 
L 410.511005 -114.006013 
L 408.467905 -114.006013 
L 406.424804 -114.006013 
L 404.381703 -114.006013 
L 402.338602 -114.006013 
L 400.295502 -114.006013 
L 398.252401 -114.006013 
L 396.2093 -114.006013 
L 394.166199 -114.006013 
L 392.123099 -114.006013 
L 390.079998 -114.006013 
L 388.036897 -114.006013 
L 385.993796 -114.006013 
L 383.950696 -114.006013 
L 381.907595 -114.006013 
L 379.864494 -114.006013 
L 377.821393 -114.006013 
L 375.778293 -114.006013 
L 373.735192 -114.006013 
L 371.692091 -114.006013 
L 369.64899 -114.006013 
L 367.60589 -114.006013 
L 365.562789 -114.006013 
L 363.519688 -114.006013 
L 361.476588 -114.006013 
L 359.433487 -114.006013 
L 357.390386 -114.006013 
L 355.347285 -114.006013 
L 353.304185 -114.006013 
L 351.261084 -114.006013 
L 349.217983 -112.325205 
L 347.174882 -109.816859 
L 345.131782 -107.926517 
L 343.088681 -106.828309 
L 341.04558 -106.205171 
L 339.002479 -103.288662 
L 336.959379 -103.198065 
L 334.916278 -99.382528 
L 332.873177 -97.331227 
L 330.830076 -93.946219 
L 328.786976 -93.014742 
L 326.743875 -91.483337 
L 324.700774 -91.008062 
L 322.657673 -90.424573 
L 320.614573 -89.053321 
L 318.571472 -87.300777 
L 316.528371 -86.963669 
L 314.48527 -85.974848 
L 312.44217 -84.886146 
L 310.399069 -84.596388 
L 308.355968 -84.704306 
L 306.312867 -83.828343 
L 304.269767 -82.086745 
L 302.226666 -81.531621 
L 300.183565 -80.547857 
L 298.140464 -80.512852 
L 296.097364 -79.870866 
L 294.054263 -79.231004 
L 292.011162 -79.192121 
L 289.968062 -79.115012 
L 287.924961 -79.377585 
L 285.88186 -78.33439 
L 283.838759 -78.042179 
L 281.795659 -77.911632 
L 279.752558 -78.514202 
L 277.709457 -78.919057 
L 275.666356 -78.508537 
L 273.623256 -79.177729 
L 271.580155 -78.882845 
L 269.537054 -78.825853 
L 267.493953 -78.777594 
L 265.450853 -81.256223 
L 263.407752 -84.230005 
L 261.364651 -88.349159 
L 259.32155 -93.164878 
L 257.27845 -97.996301 
L 255.235349 -105.621162 
L 253.192248 -109.90523 
L 251.149147 -115.527636 
L 249.106047 -112.307802 
L 247.062946 -108.269925 
L 245.019845 -108.62843 
L 242.976744 -115.422115 
L 240.933644 -128.592246 
L 238.890543 -147.252266 
L 236.847442 -163.821421 
L 234.804341 -160.89439 
L 232.761241 -177.859471 
L 230.71814 -181.92734 
L 228.675039 -194.121173 
L 226.631938 -194.317533 
L 224.588838 -186.920135 
L 222.545737 -174.328797 
L 220.502636 -167.467368 
L 218.459536 -161.6881 
L 216.416435 -154.871466 
L 214.373334 -142.49524 
L 212.330233 -139.467078 
L 210.287133 -141.66208 
L 208.244032 -150.07947 
L 206.200931 -151.607774 
L 204.15783 -165.420574 
L 202.11473 -188.573367 
L 200.071629 -207.216314 
L 198.028528 -229.48864 
L 195.985427 -256.057821 
L 193.942327 -287.521702 
L 191.899226 -295.800863 
L 189.856125 -313.686924 
L 187.813024 -295.764625 
L 185.769924 -282.851934 
L 183.726823 -269.432067 
L 181.683722 -265.28868 
L 179.640621 -259.194216 
L 177.597521 -254.073654 
L 175.55442 -241.658049 
L 173.511319 -233.888665 
L 171.468218 -231.229508 
L 169.425118 -236.851525 
L 167.382017 -237.741501 
L 165.338916 -237.993163 
L 163.295815 -238.032724 
L 161.252715 -239.656017 
L 159.209614 -243.956914 
L 157.166513 -245.354122 
L 155.123412 -236.093613 
L 153.080312 -232.278801 
L 151.037211 -234.208677 
L 148.99411 -234.739517 
L 146.95101 -244.989269 
L 144.907909 -245.920412 
L 142.864808 -249.741109 
L 140.821707 -251.596032 
L 138.778607 -250.738296 
L 136.735506 -247.647567 
L 134.692405 -248.826865 
L 132.649304 -239.084057 
L 130.606204 -234.031544 
L 128.563103 -220.917715 
L 126.520002 -210.507335 
L 124.476901 -197.13604 
L 122.433801 -185.369681 
L 120.3907 -178.660455 
L 118.347599 -169.716949 
L 116.304498 -162.063823 
L 114.261398 -158.483466 
L 112.218297 -152.565146 
L 110.175196 -152.218706 
L 108.132095 -152.466315 
L 106.088995 -152.664144 
L 104.045894 -158.087043 
L 102.002793 -169.72333 
L 99.959692 -181.967464 
L 97.916592 -195.095626 
L 95.873491 -213.362959 
L 93.83039 -237.503778 
L 91.787289 -271.070454 
L 89.744189 -306.804349 
L 87.701088 -347.074267 
L 85.657987 -392.327162 
L 83.614886 -419.723053 
L 81.571786 -425.04 
z
" style="stroke: #de8f05; stroke-opacity: 0.3"/>
    </defs>
    <g clip-path="url(#p415feb01c4)">
     <use xlink:href="#m94787f32ea" x="0" y="504" style="fill: #de8f05; fill-opacity: 0.3; stroke: #de8f05; stroke-opacity: 0.3"/>
    </g>
   </g>
   <g id="matplotlib.axis_2">
    <g id="xtick_1">
     <g id="line2d_9">
      <defs>
       <path id="macf0fe4615" d="M 0 0 
L 0 3.5 
" style="stroke: #000000; stroke-width: 0.8"/>
      </defs>
      <g>
       <use xlink:href="#macf0fe4615" x="91.787289" y="448.56" style="stroke: #000000; stroke-width: 0.8"/>
      </g>
     </g>
     <g id="text_10">
      <text style="font-size: 16px; font-family: 'Arial', sans-serif; text-anchor: middle" x="91.787289" y="467.208438" transform="rotate(-0 91.787289 467.208438)">1 Jul</text>
     </g>
    </g>
    <g id="xtick_2">
     <g id="line2d_10">
      <g>
       <use xlink:href="#macf0fe4615" x="155.123412" y="448.56" style="stroke: #000000; stroke-width: 0.8"/>
      </g>
     </g>
     <g id="text_11">
      <text style="font-size: 16px; font-family: 'Arial', sans-serif; text-anchor: middle" x="155.123412" y="467.208438" transform="rotate(-0 155.123412 467.208438)">1 Aug</text>
     </g>
    </g>
    <g id="xtick_3">
     <g id="line2d_11">
      <g>
       <use xlink:href="#macf0fe4615" x="218.459536" y="448.56" style="stroke: #000000; stroke-width: 0.8"/>
      </g>
     </g>
     <g id="text_12">
      <text style="font-size: 16px; font-family: 'Arial', sans-serif; text-anchor: middle" x="218.459536" y="467.208438" transform="rotate(-0 218.459536 467.208438)">1 Sep</text>
     </g>
    </g>
    <g id="xtick_4">
     <g id="line2d_12">
      <g>
       <use xlink:href="#macf0fe4615" x="279.752558" y="448.56" style="stroke: #000000; stroke-width: 0.8"/>
      </g>
     </g>
     <g id="text_13">
      <text style="font-size: 16px; font-family: 'Arial', sans-serif; text-anchor: middle" x="279.752558" y="467.2175" transform="rotate(-0 279.752558 467.2175)">1 Oct</text>
     </g>
    </g>
    <g id="xtick_5">
     <g id="line2d_13">
      <g>
       <use xlink:href="#macf0fe4615" x="343.088681" y="448.56" style="stroke: #000000; stroke-width: 0.8"/>
      </g>
     </g>
     <g id="text_14">
      <text style="font-size: 16px; font-family: 'Arial', sans-serif; text-anchor: middle" x="343.088681" y="467.208438" transform="rotate(-0 343.088681 467.208438)">1 Nov</text>
     </g>
    </g>
    <g id="xtick_6">
     <g id="line2d_14">
      <g>
       <use xlink:href="#macf0fe4615" x="404.381703" y="448.56" style="stroke: #000000; stroke-width: 0.8"/>
      </g>
     </g>
     <g id="text_15">
      <text style="font-size: 16px; font-family: 'Arial', sans-serif; text-anchor: middle" x="404.381703" y="467.208438" transform="rotate(-0 404.381703 467.208438)">1 Dec</text>
     </g>
    </g>
    <g id="text_16">
     <text style="font-size: 16px; font-family: 'Arial', sans-serif; text-anchor: middle" x="258.3" y="486.233125" transform="rotate(-0 258.3 486.233125)">Date (2017)</text>
    </g>
   </g>
   <g id="matplotlib.axis_3">
    <g id="ytick_9">
     <g id="line2d_15">
      <defs>
       <path id="mef063edcd3" d="M 0 0 
L -3.5 0 
" style="stroke: #000000; stroke-width: 0.8"/>
      </defs>
      <g>
       <use xlink:href="#mef063edcd3" x="63" y="448.56" style="stroke: #000000; stroke-width: 0.8"/>
      </g>
     </g>
     <g id="text_17">
      <text style="font-size: 16px; font-family: 'Arial', sans-serif; text-anchor: end" x="56" y="454.384219" transform="rotate(-0 56 454.384219)">0</text>
     </g>
    </g>
    <g id="ytick_10">
     <g id="line2d_16">
      <g>
       <use xlink:href="#mef063edcd3" x="63" y="399.530808" style="stroke: #000000; stroke-width: 0.8"/>
      </g>
     </g>
     <g id="text_18">
      <text style="font-size: 16px; font-family: 'Arial', sans-serif; text-anchor: end" x="56" y="405.355027" transform="rotate(-0 56 405.355027)">1</text>
     </g>
    </g>
    <g id="ytick_11">
     <g id="line2d_17">
      <g>
       <use xlink:href="#mef063edcd3" x="63" y="350.501616" style="stroke: #000000; stroke-width: 0.8"/>
      </g>
     </g>
     <g id="text_19">
      <text style="font-size: 16px; font-family: 'Arial', sans-serif; text-anchor: end" x="56" y="356.325835" transform="rotate(-0 56 356.325835)">2</text>
     </g>
    </g>
    <g id="ytick_12">
     <g id="line2d_18">
      <g>
       <use xlink:href="#mef063edcd3" x="63" y="301.472424" style="stroke: #000000; stroke-width: 0.8"/>
      </g>
     </g>
     <g id="text_20">
      <text style="font-size: 16px; font-family: 'Arial', sans-serif; text-anchor: end" x="56" y="307.296643" transform="rotate(-0 56 307.296643)">3</text>
     </g>
    </g>
    <g id="ytick_13">
     <g id="line2d_19">
      <g>
       <use xlink:href="#mef063edcd3" x="63" y="252.443232" style="stroke: #000000; stroke-width: 0.8"/>
      </g>
     </g>
     <g id="text_21">
      <text style="font-size: 16px; font-family: 'Arial', sans-serif; text-anchor: end" x="56" y="258.267451" transform="rotate(-0 56 258.267451)">4</text>
     </g>
    </g>
    <g id="ytick_14">
     <g id="line2d_20">
      <g>
       <use xlink:href="#mef063edcd3" x="63" y="203.41404" style="stroke: #000000; stroke-width: 0.8"/>
      </g>
     </g>
     <g id="text_22">
      <text style="font-size: 16px; font-family: 'Arial', sans-serif; text-anchor: end" x="56" y="209.238259" transform="rotate(-0 56 209.238259)">5</text>
     </g>
    </g>
    <g id="ytick_15">
     <g id="line2d_21">
      <g>
       <use xlink:href="#mef063edcd3" x="63" y="154.384848" style="stroke: #000000; stroke-width: 0.8"/>
      </g>
     </g>
     <g id="text_23">
      <text style="font-size: 16px; font-family: 'Arial', sans-serif; text-anchor: end" x="56" y="160.209066" transform="rotate(-0 56 160.209066)">6</text>
     </g>
    </g>
    <g id="ytick_16">
     <g id="line2d_22">
      <g>
       <use xlink:href="#mef063edcd3" x="63" y="105.355656" style="stroke: #000000; stroke-width: 0.8"/>
      </g>
     </g>
     <g id="text_24">
      <text style="font-size: 16px; font-family: 'Arial', sans-serif; text-anchor: end" x="56" y="111.179874" transform="rotate(-0 56 111.179874)">7</text>
     </g>
    </g>
    <g id="text_25">
     <text style="font-size: 16px; font-family: 'Arial', sans-serif; text-anchor: middle" x="39.735312" y="254.52" transform="rotate(-90 39.735312 254.52)">Time-dependent reproduction number</text>
    </g>
   </g>
   <g id="line2d_23">
    <path d="M 81.571786 338.726612 
L 83.614886 332.673037 
L 85.657987 334.005241 
L 87.701088 343.947165 
L 91.787289 361.180903 
L 93.83039 368.646689 
L 95.873491 375.175121 
L 97.916592 380.683358 
L 99.959692 384.755104 
L 102.002793 389.838348 
L 104.045894 393.39876 
L 106.088995 395.514048 
L 108.132095 396.616427 
L 110.175196 396.69634 
L 112.218297 396.009449 
L 114.261398 394.400294 
L 116.304498 391.775441 
L 118.347599 387.775666 
L 120.3907 382.425985 
L 122.433801 378.559228 
L 124.476901 373.193751 
L 126.520002 366.737312 
L 128.563103 362.012932 
L 130.606204 355.912099 
L 132.649304 351.758317 
L 134.692405 347.05595 
L 136.735506 345.163138 
L 138.778607 342.168918 
L 140.821707 341.40407 
L 142.864808 342.938339 
L 144.907909 342.490463 
L 146.95101 343.207853 
L 148.99411 344.953704 
L 151.037211 344.525719 
L 153.080312 344.841238 
L 155.123412 341.733578 
L 157.166513 334.497318 
L 159.209614 334.127166 
L 161.252715 336.847426 
L 163.295815 338.190214 
L 165.338916 338.573885 
L 167.382017 337.822034 
L 169.425118 335.497743 
L 171.468218 339.139016 
L 173.511319 336.125294 
L 175.55442 330.261137 
L 177.597521 319.228067 
L 179.640621 314.616946 
L 183.726823 306.637187 
L 185.769924 295.697556 
L 187.813024 285.612125 
L 189.856125 273.8628 
L 191.899226 281.366418 
L 193.942327 288.420301 
L 195.985427 309.92279 
L 198.028528 328.945999 
L 202.11473 355.734205 
L 204.15783 372.827174 
L 206.200931 381.615897 
L 208.244032 381.807143 
L 210.287133 388.753389 
L 212.330233 389.448384 
L 214.373334 387.716968 
L 216.416435 377.639099 
L 218.459536 371.932748 
L 222.545737 362.543935 
L 226.631938 346.455723 
L 228.675039 346.963369 
L 230.71814 356.487593 
L 232.761241 360.012986 
L 234.804341 372.249853 
L 236.847442 368.478881 
L 238.890543 380.646748 
L 240.933644 396.165914 
L 242.976744 405.531536 
L 245.019845 410.572668 
L 247.062946 410.482739 
L 251.149147 404.618589 
L 253.192248 409.679671 
L 255.235349 413.41888 
L 257.27845 418.815589 
L 261.364651 426.355876 
L 263.407752 429.397763 
L 265.450853 431.462485 
L 267.493953 433.152016 
L 269.537054 433.609026 
L 273.623256 433.540511 
L 275.666356 434.113841 
L 277.709457 434.188709 
L 279.752558 434.982901 
L 281.795659 436.007534 
L 283.838759 436.365168 
L 287.924961 436.294367 
L 292.011162 437.457242 
L 294.054263 437.793737 
L 296.097364 438.292869 
L 298.140464 438.623357 
L 300.183565 439.109403 
L 302.226666 439.397718 
L 304.269767 439.523832 
L 306.312867 439.478043 
L 308.355968 439.696125 
L 310.399069 440.083119 
L 314.48527 440.523697 
L 316.528371 440.574423 
L 320.614573 441.197791 
L 324.700774 441.325983 
L 326.743875 441.321344 
L 332.873177 440.861277 
L 336.959379 440.036323 
L 343.088681 440.097325 
L 347.174882 440.06836 
L 351.261084 439.835984 
L 361.476588 441.87564 
L 365.562789 442.471674 
L 369.64899 442.903137 
L 373.735192 443.335089 
L 383.950696 444.039851 
L 394.166199 444.454363 
L 435.028214 445.783124 
L 435.028214 445.783124 
" clip-path="url(#p415feb01c4)" style="fill: none; stroke: #0173b2; stroke-width: 2; stroke-linecap: square"/>
   </g>
   <g id="line2d_24">
    <path d="M 81.571786 303.960271 
L 83.614886 301.793914 
L 85.657987 308.760482 
L 87.701088 325.015751 
L 89.744189 339.096993 
L 91.787289 351.634278 
L 93.83039 362.514272 
L 95.873491 371.648257 
L 97.916592 378.790555 
L 99.959692 383.904939 
L 102.002793 389.639952 
L 104.045894 393.760559 
L 106.088995 396.234894 
L 108.132095 397.440357 
L 110.175196 397.659698 
L 112.218297 396.815797 
L 114.261398 395.01927 
L 116.304498 392.258716 
L 118.347599 388.380311 
L 120.3907 383.451438 
L 122.433801 379.705598 
L 124.476901 374.699436 
L 126.520002 368.015366 
L 128.563103 363.074258 
L 130.606204 356.711781 
L 132.649304 352.924093 
L 134.692405 348.193392 
L 136.735506 346.17379 
L 138.778607 343.06043 
L 140.821707 342.02564 
L 142.864808 343.190006 
L 144.907909 342.420224 
L 146.95101 342.657373 
L 148.99411 345.354638 
L 151.037211 344.889708 
L 153.080312 344.772388 
L 155.123412 341.779642 
L 157.166513 334.887229 
L 159.209614 334.276357 
L 161.252715 336.72882 
L 163.295815 338.449011 
L 165.338916 338.813174 
L 167.382017 337.975871 
L 169.425118 335.257469 
L 171.468218 338.691575 
L 173.511319 336.218018 
L 175.55442 330.241527 
L 177.597521 319.298101 
L 179.640621 314.76837 
L 181.683722 311.129826 
L 183.726823 306.414726 
L 187.813024 285.917634 
L 189.856125 273.608308 
L 193.942327 288.46321 
L 195.985427 309.793189 
L 198.028528 328.84148 
L 200.071629 342.942118 
L 202.11473 356.037354 
L 204.15783 372.873919 
L 206.200931 381.567856 
L 208.244032 382.171299 
L 210.287133 388.766776 
L 212.330233 389.433194 
L 214.373334 387.778135 
L 216.416435 377.668289 
L 218.459536 372.117431 
L 222.545737 363.015559 
L 226.631938 346.92389 
L 228.675039 347.648694 
L 230.71814 356.834692 
L 232.761241 360.330656 
L 234.804341 372.859525 
L 236.847442 369.331369 
L 238.890543 381.381513 
L 240.933644 396.611547 
L 242.976744 405.869282 
L 245.019845 410.8634 
L 247.062946 410.808052 
L 251.149147 405.329051 
L 253.192248 410.170271 
L 255.235349 413.708264 
L 257.27845 419.217038 
L 259.32155 422.836336 
L 261.364651 426.766467 
L 263.407752 429.772473 
L 265.450853 431.854768 
L 267.493953 433.44624 
L 269.537054 433.873887 
L 273.623256 433.624389 
L 275.666356 434.041385 
L 277.709457 433.997179 
L 279.752558 434.518079 
L 281.795659 435.280656 
L 283.838759 435.458573 
L 287.924961 434.825427 
L 292.011162 435.267784 
L 294.054263 435.1976 
L 296.097364 435.278041 
L 298.140464 435.028239 
L 300.183565 435.059821 
L 304.269767 434.513906 
L 306.312867 433.925392 
L 308.355968 433.586399 
L 310.399069 433.637112 
L 312.44217 433.518792 
L 316.528371 432.856602 
L 318.571472 432.9073 
L 322.657673 432.493869 
L 326.743875 431.827328 
L 330.830076 430.769867 
L 334.916278 429.146489 
L 336.959379 428.101245 
L 345.131782 426.339806 
L 351.261084 424.406606 
L 435.028214 424.406606 
L 435.028214 424.406606 
" clip-path="url(#p415feb01c4)" style="fill: none; stroke: #de8f05; stroke-width: 2; stroke-linecap: square"/>
   </g>
   <g id="patch_178">
    <path d="M 63 448.56 
L 63 60.48 
" style="fill: none; stroke: #000000; stroke-width: 0.8; stroke-linejoin: miter; stroke-linecap: square"/>
   </g>
   <g id="patch_179">
    <path d="M 63 448.56 
L 453.6 448.56 
" style="fill: none; stroke: #000000; stroke-width: 0.8; stroke-linejoin: miter; stroke-linecap: square"/>
   </g>
   <g id="legend_1">
    <g id="patch_180">
     <path d="M 259.721875 111.957891 
L 443.8 111.957891 
Q 446.6 111.957891 446.6 109.157891 
L 446.6 70.28 
Q 446.6 67.48 443.8 67.48 
L 259.721875 67.48 
Q 256.921875 67.48 256.921875 70.28 
L 256.921875 109.157891 
Q 256.921875 111.957891 259.721875 111.957891 
z
" style="fill: #ffffff; opacity: 0.8; stroke: #cccccc; stroke-linejoin: miter"/>
    </g>
    <g id="line2d_25">
     <path d="M 262.521875 78.372383 
L 276.521875 78.372383 
L 290.521875 78.372383 
" style="fill: none; stroke: #0173b2; stroke-width: 2; stroke-linecap: square"/>
    </g>
    <g id="text_26">
     <text style="font-size: 14px; font-family: 'Arial', sans-serif; text-anchor: start" x="301.721875" y="83.272383" transform="rotate(-0 301.721875 83.272383)">Suitability-based</text>
    </g>
    <g id="line2d_26">
     <path d="M 262.521875 98.511328 
L 276.521875 98.511328 
L 290.521875 98.511328 
" style="fill: none; stroke: #de8f05; stroke-width: 2; stroke-linecap: square"/>
    </g>
    <g id="text_27">
     <text style="font-size: 14px; font-family: 'Arial', sans-serif; text-anchor: start" x="301.721875" y="103.411328" transform="rotate(-0 301.721875 103.411328)">Frozen autoregressive</text>
    </g>
   </g>
  </g>
 </g>
 <defs>
  <clipPath id="p415feb01c4">
   <rect x="63" y="60.48" width="390.6" height="388.08"/>
  </clipPath>
 </defs>
</svg>
