<?xml version="1.0" encoding="utf-8" standalone="no"?>
<!DOCTYPE svg PUBLIC "-//W3C//DTD SVG 1.1//EN"
  "http://www.w3.org/Graphics/SVG/1.1/DTD/svg11.dtd">
<svg xmlns:xlink="http://www.w3.org/1999/xlink" width="504pt" height="504pt" viewBox="0 0 504 504" xmlns="http://www.w3.org/2000/svg" version="1.1">
 <metadata>
  <rdf:RDF xmlns:dc="http://purl.org/dc/elements/1.1/" xmlns:cc="http://creativecommons.org/ns#" xmlns:rdf="http://www.w3.org/1999/02/22-rdf-syntax-ns#">
   <cc:Work>
    <dc:type rdf:resource="http://purl.org/dc/dcmitype/StillImage"/>
    <dc:date>2026-06-18T11:48:17.863404</dc:date>
    <dc:format>image/svg+xml</dc:format>
    <dc:creator>
     <cc:Agent>
      <dc:title>Matplotlib v3.11.0, https://matplotlib.org/</dc:title>
     </cc:Agent>
    </dc:creator>
   </cc:Work>
  </rdf:RDF>
 </metadata>
 <defs>
  <style type="text/css">*{stroke-linejoin: round; stroke-linecap: butt}</style>
 </defs>
 <g id="figure_1">
  <g id="patch_1">
   <path d="M 0 504 
L 504 504 
L 504 0 
L 0 0 
L 0 504 
z
" style="fill: none"/>
  </g>
  <g id="axes_1">
   <g id="patch_2">
    <path d="M 63 448.56 
L 453.6 448.56 
L 453.6 60.48 
L 63 60.48 
L 63 448.56 
z
" style="fill: none"/>
   </g>
   <g id="FillBetweenPolyCollection_1">
    <defs>
     <path id="m7bb1511ebd" d="M 81.571786 -323.017749 
L 81.571786 -82.272762 
L 83.614886 -85.338671 
L 85.657987 -87.411711 
L 87.701088 -85.418714 
L 89.744189 -83.927223 
L 91.787289 -82.611602 
L 93.83039 -81.18532 
L 95.873491 -79.814119 
L 97.916592 -79.224073 
L 99.959692 -78.794252 
L 102.002793 -77.042411 
L 104.045894 -77.061085 
L 106.088995 -76.844847 
L 108.132095 -76.579852 
L 110.175196 -76.268764 
L 112.218297 -76.437306 
L 114.261398 -77.529036 
L 116.304498 -79.169188 
L 118.347599 -80.645647 
L 120.3907 -82.249268 
L 122.433801 -83.686225 
L 124.476901 -85.587947 
L 126.520002 -87.68918 
L 128.563103 -89.185812 
L 130.606204 -91.667401 
L 132.649304 -93.613542 
L 134.692405 -95.499121 
L 136.735506 -96.844322 
L 138.778607 -98.541214 
L 140.821707 -99.397433 
L 142.864808 -99.505621 
L 144.907909 -100.207998 
L 146.95101 -100.883077 
L 148.99411 -101.558683 
L 151.037211 -102.972782 
L 153.080312 -104.637178 
L 155.123412 -107.102136 
L 157.166513 -110.147491 
L 159.209614 -110.61159 
L 161.252715 -110.836366 
L 163.295815 -111.26354 
L 165.338916 -110.946332 
L 167.382017 -112.135742 
L 169.425118 -114.463964 
L 171.468218 -114.006779 
L 173.511319 -116.523459 
L 175.55442 -121.000259 
L 177.597521 -127.195474 
L 179.640621 -132.899697 
L 181.683722 -134.445667 
L 183.726823 -137.290938 
L 185.769924 -145.098243 
L 187.813024 -152.975516 
L 189.856125 -160.527596 
L 191.899226 -156.951965 
L 193.942327 -153.578578 
L 195.985427 -139.535877 
L 198.028528 -129.063038 
L 200.071629 -120.321418 
L 202.11473 -112.285534 
L 204.15783 -101.286475 
L 206.200931 -95.461504 
L 208.244032 -96.206803 
L 210.287133 -91.971422 
L 212.330233 -91.653309 
L 214.373334 -93.125095 
L 216.416435 -100.515816 
L 218.459536 -105.196967 
L 220.502636 -107.790105 
L 222.545737 -111.106603 
L 224.588838 -116.951253 
L 226.631938 -121.94312 
L 228.675039 -122.185087 
L 230.71814 -115.846531 
L 232.761241 -114.302784 
L 234.804341 -106.107946 
L 236.847442 -107.862013 
L 238.890543 -99.79024 
L 240.933644 -89.203232 
L 242.976744 -82.896425 
L 245.019845 -79.903128 
L 247.062946 -79.866209 
L 249.106047 -81.962218 
L 251.149147 -83.972562 
L 253.192248 -80.743252 
L 255.235349 -77.320295 
L 257.27845 -73.713019 
L 259.32155 -71.292731 
L 261.364651 -68.648858 
L 263.407752 -66.501291 
L 265.450853 -65.153415 
L 267.493953 -64.108361 
L 269.537054 -63.736513 
L 271.580155 -63.652122 
L 273.623256 -63.427539 
L 275.666356 -63.099931 
L 277.709457 -62.86791 
L 279.752558 -62.434368 
L 281.795659 -61.736709 
L 283.838759 -61.364009 
L 285.88186 -61.302011 
L 287.924961 -61.189675 
L 289.968062 -60.801153 
L 292.011162 -60.368977 
L 294.054263 -59.990195 
L 296.097364 -59.608992 
L 298.140464 -59.189509 
L 300.183565 -58.898756 
L 302.226666 -58.679796 
L 304.269767 -58.42128 
L 306.312867 -58.283654 
L 308.355968 -58.160107 
L 310.399069 -57.848711 
L 312.44217 -57.610029 
L 314.48527 -57.532018 
L 316.528371 -57.45289 
L 318.571472 -57.149183 
L 320.614573 -56.852554 
L 322.657673 -56.691321 
L 324.700774 -56.53746 
L 326.743875 -56.395462 
L 328.786976 -56.403027 
L 330.830076 -56.439489 
L 332.873177 -56.561671 
L 334.916278 -56.667615 
L 336.959379 -56.931998 
L 339.002479 -56.875296 
L 341.04558 -56.744594 
L 343.088681 -56.684698 
L 345.131782 -56.578 
L 347.174882 -56.570291 
L 349.217983 -56.741861 
L 351.261084 -56.768083 
L 353.304185 -56.347799 
L 355.347285 -55.96198 
L 357.390386 -55.605046 
L 359.433487 -55.450785 
L 361.476588 -55.440233 
L 363.519688 -55.440005 
L 365.562789 -55.440002 
L 367.60589 -55.440001 
L 369.64899 -55.440001 
L 371.692091 -55.440001 
L 373.735192 -55.440001 
L 375.778293 -55.440001 
L 377.821393 -55.440001 
L 379.864494 -55.440001 
L 381.907595 -55.440001 
L 383.950696 -55.440001 
L 385.993796 -55.440001 
L 388.036897 -55.440001 
L 390.079998 -55.44 
L 392.123099 -55.44 
L 394.166199 -55.44 
L 396.2093 -55.44 
L 398.252401 -55.44 
L 400.295502 -55.44 
L 402.338602 -55.44 
L 404.381703 -55.44 
L 406.424804 -55.44 
L 408.467905 -55.44 
L 410.511005 -55.44 
L 412.554106 -55.44 
L 414.597207 -55.44 
L 416.640308 -55.44 
L 418.683408 -55.44 
L 420.726509 -55.44 
L 422.76961 -55.44 
L 424.812711 -55.44 
L 426.855811 -55.44 
L 428.898912 -55.44 
L 430.942013 -55.44 
L 432.985114 -55.44 
L 435.028214 -55.44 
L 435.028214 -68.512022 
L 435.028214 -68.512022 
L 432.985114 -68.548537 
L 430.942013 -69.592251 
L 428.898912 -69.500818 
L 426.855811 -69.7979 
L 424.812711 -70.100814 
L 422.76961 -69.807902 
L 420.726509 -70.088273 
L 418.683408 -70.3821 
L 416.640308 -70.271196 
L 414.597207 -71.448159 
L 412.554106 -71.625009 
L 410.511005 -70.915265 
L 408.467905 -71.0184 
L 406.424804 -71.061188 
L 404.381703 -71.69307 
L 402.338602 -72.117254 
L 400.295502 -71.275848 
L 398.252401 -71.399987 
L 396.2093 -72.655844 
L 394.166199 -71.960206 
L 392.123099 -72.43164 
L 390.079998 -72.352866 
L 388.036897 -73.226106 
L 385.993796 -73.407171 
L 383.950696 -73.490547 
L 381.907595 -73.315497 
L 379.864494 -74.605087 
L 377.821393 -73.736571 
L 375.778293 -74.612706 
L 373.735192 -73.872529 
L 371.692091 -74.638074 
L 369.64899 -75.231177 
L 367.60589 -75.496906 
L 365.562789 -75.915154 
L 363.519688 -76.202574 
L 361.476588 -76.531384 
L 359.433487 -76.721758 
L 357.390386 -78.37306 
L 355.347285 -78.980668 
L 353.304185 -79.635398 
L 351.261084 -80.701463 
L 349.217983 -81.291197 
L 347.174882 -80.612698 
L 345.131782 -80.508987 
L 343.088681 -79.920618 
L 341.04558 -79.365844 
L 339.002479 -79.129652 
L 336.959379 -77.669778 
L 334.916278 -76.896817 
L 332.873177 -75.661195 
L 330.830076 -75.083677 
L 328.786976 -74.220549 
L 326.743875 -73.778894 
L 324.700774 -73.559845 
L 322.657673 -73.186251 
L 320.614573 -72.778576 
L 318.571472 -72.365252 
L 316.528371 -73.172631 
L 314.48527 -72.936548 
L 312.44217 -72.870703 
L 310.399069 -73.331411 
L 308.355968 -73.697668 
L 306.312867 -74.192306 
L 304.269767 -73.302535 
L 302.226666 -73.28468 
L 300.183565 -73.491069 
L 298.140464 -73.783441 
L 296.097364 -74.221078 
L 294.054263 -74.436389 
L 292.011162 -74.655714 
L 289.968062 -74.901795 
L 287.924961 -75.840377 
L 285.88186 -75.285425 
L 283.838759 -75.200291 
L 281.795659 -75.433672 
L 279.752558 -76.843836 
L 277.709457 -77.875184 
L 275.666356 -77.91558 
L 273.623256 -78.236256 
L 271.580155 -77.92239 
L 269.537054 -77.63164 
L 267.493953 -78.08959 
L 265.450853 -80.22761 
L 263.407752 -83.016917 
L 261.364651 -86.516906 
L 259.32155 -91.247023 
L 257.27845 -96.280636 
L 255.235349 -102.821301 
L 253.192248 -107.402042 
L 251.149147 -112.795166 
L 249.106047 -110.738204 
L 247.062946 -107.10345 
L 245.019845 -106.461602 
L 242.976744 -112.744541 
L 240.933644 -124.493026 
L 238.890543 -144.398929 
L 236.847442 -158.651663 
L 234.804341 -155.049897 
L 232.761241 -171.219359 
L 230.71814 -175.234857 
L 228.675039 -186.791862 
L 226.631938 -186.71854 
L 224.588838 -176.603615 
L 222.545737 -167.778864 
L 220.502636 -161.280467 
L 218.459536 -156.578385 
L 216.416435 -151.64965 
L 214.373334 -136.635576 
L 212.330233 -135.562655 
L 210.287133 -135.660451 
L 208.244032 -145.206228 
L 206.200931 -145.9825 
L 204.15783 -159.373091 
L 202.11473 -183.415473 
L 200.071629 -197.774623 
L 198.028528 -215.904096 
L 195.985427 -243.879584 
L 193.942327 -271.733574 
L 191.899226 -281.415513 
L 189.856125 -295.814642 
L 187.813024 -279.785743 
L 185.769924 -268.127998 
L 183.726823 -253.948074 
L 181.683722 -251.367639 
L 179.640621 -250.32798 
L 177.597521 -245.283264 
L 175.55442 -229.19736 
L 173.511319 -222.677729 
L 171.468218 -219.609583 
L 169.425118 -226.642872 
L 167.382017 -229.099652 
L 165.338916 -230.152375 
L 163.295815 -230.123623 
L 161.252715 -231.874053 
L 159.209614 -238.799633 
L 157.166513 -239.697613 
L 155.123412 -229.233115 
L 153.080312 -227.631255 
L 151.037211 -228.999117 
L 148.99411 -230.039684 
L 146.95101 -235.771258 
L 144.907909 -239.959765 
L 142.864808 -242.062079 
L 140.821707 -245.241056 
L 138.778607 -250.196254 
L 136.735506 -240.973965 
L 134.692405 -240.89469 
L 132.649304 -238.255435 
L 130.606204 -230.510256 
L 128.563103 -220.911197 
L 126.520002 -211.090181 
L 124.476901 -197.84572 
L 122.433801 -184.605527 
L 120.3907 -178.129383 
L 118.347599 -165.807721 
L 116.304498 -156.51172 
L 114.261398 -154.04515 
L 112.218297 -151.507931 
L 110.175196 -148.315213 
L 108.132095 -149.08627 
L 106.088995 -152.053112 
L 104.045894 -157.539666 
L 102.002793 -163.094037 
L 99.959692 -176.236269 
L 97.916592 -188.06441 
L 95.873491 -201.418252 
L 93.83039 -217.428148 
L 91.787289 -238.567351 
L 89.744189 -264.355502 
L 87.701088 -285.627441 
L 85.657987 -315.875775 
L 83.614886 -330.818002 
L 81.571786 -323.017749 
z
" style="stroke: #0173b2; stroke-opacity: 0.3"/>
    </defs>
    <g clip-path="url(#pb17270115b)">
     <use xlink:href="#m7bb1511ebd" x="0" y="504" style="fill: #0173b2; fill-opacity: 0.3; stroke: #0173b2; stroke-opacity: 0.3"/>
    </g>
   </g>
   <g id="FillBetweenPolyCollection_2">
    <defs>
     <path id="m66414f06c8" d="M 81.571786 -421.861901 
L 81.571786 -91.8461 
L 83.614886 -95.032831 
L 85.657987 -94.161949 
L 87.701088 -91.44145 
L 89.744189 -88.821872 
L 91.787289 -86.060696 
L 93.83039 -84.080101 
L 95.873491 -82.233325 
L 97.916592 -80.517515 
L 99.959692 -79.97794 
L 102.002793 -78.497205 
L 104.045894 -77.28629 
L 106.088995 -76.597308 
L 108.132095 -76.528464 
L 110.175196 -76.519328 
L 112.218297 -77.118813 
L 114.261398 -77.724988 
L 116.304498 -79.298324 
L 118.347599 -81.15887 
L 120.3907 -82.818401 
L 122.433801 -84.81231 
L 124.476901 -86.362539 
L 126.520002 -88.368058 
L 128.563103 -90.307685 
L 130.606204 -92.955405 
L 132.649304 -94.608769 
L 134.692405 -97.874089 
L 136.735506 -98.798017 
L 138.778607 -100.794362 
L 140.821707 -102.140445 
L 142.864808 -102.178682 
L 144.907909 -103.332891 
L 146.95101 -102.76773 
L 148.99411 -103.980911 
L 151.037211 -104.345664 
L 153.080312 -105.15717 
L 155.123412 -108.110057 
L 157.166513 -113.092185 
L 159.209614 -114.097733 
L 161.252715 -112.171118 
L 163.295815 -112.107015 
L 165.338916 -112.890205 
L 167.382017 -113.655979 
L 169.425118 -115.876206 
L 171.468218 -114.588827 
L 173.511319 -117.740445 
L 175.55442 -121.514553 
L 177.597521 -128.996623 
L 179.640621 -131.825616 
L 181.683722 -134.675957 
L 183.726823 -139.944142 
L 185.769924 -146.724016 
L 187.813024 -155.575191 
L 189.856125 -163.138968 
L 191.899226 -159.765024 
L 193.942327 -154.810025 
L 195.985427 -140.90747 
L 198.028528 -129.936463 
L 200.071629 -120.444048 
L 202.11473 -112.334853 
L 204.15783 -100.752988 
L 206.200931 -95.784838 
L 208.244032 -96.165363 
L 210.287133 -92.170228 
L 212.330233 -91.946931 
L 214.373334 -93.540719 
L 216.416435 -100.777441 
L 218.459536 -104.692154 
L 220.502636 -107.726383 
L 222.545737 -111.369582 
L 224.588838 -117.166306 
L 226.631938 -123.168102 
L 228.675039 -122.668679 
L 230.71814 -115.361976 
L 232.761241 -113.32945 
L 234.804341 -104.589987 
L 236.847442 -107.387238 
L 238.890543 -99.626158 
L 240.933644 -88.547979 
L 242.976744 -82.802807 
L 245.019845 -79.250011 
L 247.062946 -79.691071 
L 249.106047 -81.107805 
L 251.149147 -83.168004 
L 253.192248 -79.48884 
L 255.235349 -77.363004 
L 257.27845 -73.280619 
L 259.32155 -70.973314 
L 261.364651 -68.350386 
L 263.407752 -66.345945 
L 265.450853 -64.802967 
L 267.493953 -63.755529 
L 269.537054 -63.571348 
L 271.580155 -63.60631 
L 273.623256 -63.575717 
L 275.666356 -63.167595 
L 277.709457 -63.287783 
L 279.752558 -62.790332 
L 281.795659 -62.417393 
L 283.838759 -62.112734 
L 285.88186 -62.057544 
L 287.924961 -62.118675 
L 289.968062 -61.998609 
L 292.011162 -61.696794 
L 294.054263 -61.642813 
L 296.097364 -61.379959 
L 298.140464 -61.382009 
L 300.183565 -61.171948 
L 302.226666 -61.054956 
L 304.269767 -61.188252 
L 306.312867 -61.469123 
L 308.355968 -61.41442 
L 310.399069 -61.206638 
L 312.44217 -61.185028 
L 314.48527 -61.189038 
L 316.528371 -61.214853 
L 318.571472 -61.052436 
L 320.614573 -60.988541 
L 322.657673 -60.910397 
L 324.700774 -61.045601 
L 326.743875 -61.018829 
L 328.786976 -61.058767 
L 330.830076 -61.19876 
L 332.873177 -61.528216 
L 334.916278 -61.45891 
L 336.959379 -61.794555 
L 339.002479 -61.802691 
L 341.04558 -61.796565 
L 343.088681 -61.805746 
L 345.131782 -61.727986 
L 347.174882 -61.849586 
L 349.217983 -61.947932 
L 351.261084 -61.975067 
L 353.304185 -61.975067 
L 355.347285 -61.975067 
L 357.390386 -61.975067 
L 359.433487 -61.975067 
L 361.476588 -61.975067 
L 363.519688 -61.975067 
L 365.562789 -61.975067 
L 367.60589 -61.975067 
L 369.64899 -61.975067 
L 371.692091 -61.975067 
L 373.735192 -61.975067 
L 375.778293 -61.975067 
L 377.821393 -61.975067 
L 379.864494 -61.975067 
L 381.907595 -61.975067 
L 383.950696 -61.975067 
L 385.993796 -61.975067 
L 388.036897 -61.975067 
L 390.079998 -61.975067 
L 392.123099 -61.975067 
L 394.166199 -61.975067 
L 396.2093 -61.975067 
L 398.252401 -61.975067 
L 400.295502 -61.975067 
L 402.338602 -61.975067 
L 404.381703 -61.975067 
L 406.424804 -61.975067 
L 408.467905 -61.975067 
L 410.511005 -61.975067 
L 412.554106 -61.975067 
L 414.597207 -61.975067 
L 416.640308 -61.975067 
L 418.683408 -61.975067 
L 420.726509 -61.975067 
L 422.76961 -61.975067 
L 424.812711 -61.975067 
L 426.855811 -61.975067 
L 428.898912 -61.975067 
L 430.942013 -61.975067 
L 432.985114 -61.975067 
L 435.028214 -61.975067 
L 435.028214 -109.304023 
L 435.028214 -109.304023 
L 432.985114 -109.304023 
L 430.942013 -109.304023 
L 428.898912 -109.304023 
L 426.855811 -109.304023 
L 424.812711 -109.304023 
L 422.76961 -109.304023 
L 420.726509 -109.304023 
L 418.683408 -109.304023 
L 416.640308 -109.304023 
L 414.597207 -109.304023 
L 412.554106 -109.304023 
L 410.511005 -109.304023 
L 408.467905 -109.304023 
L 406.424804 -109.304023 
L 404.381703 -109.304023 
L 402.338602 -109.304023 
L 400.295502 -109.304023 
L 398.252401 -109.304023 
L 396.2093 -109.304023 
L 394.166199 -109.304023 
L 392.123099 -109.304023 
L 390.079998 -109.304023 
L 388.036897 -109.304023 
L 385.993796 -109.304023 
L 383.950696 -109.304023 
L 381.907595 -109.304023 
L 379.864494 -109.304023 
L 377.821393 -109.304023 
L 375.778293 -109.304023 
L 373.735192 -109.304023 
L 371.692091 -109.304023 
L 369.64899 -109.304023 
L 367.60589 -109.304023 
L 365.562789 -109.304023 
L 363.519688 -109.304023 
L 361.476588 -109.304023 
L 359.433487 -109.304023 
L 357.390386 -109.304023 
L 355.347285 -109.304023 
L 353.304185 -109.304023 
L 351.261084 -109.304023 
L 349.217983 -106.57079 
L 347.174882 -103.656324 
L 345.131782 -102.328051 
L 343.088681 -102.725117 
L 341.04558 -99.596343 
L 339.002479 -98.556278 
L 336.959379 -96.63604 
L 334.916278 -94.76257 
L 332.873177 -93.587372 
L 330.830076 -92.173622 
L 328.786976 -90.475179 
L 326.743875 -89.008156 
L 324.700774 -88.265297 
L 322.657673 -87.29167 
L 320.614573 -87.072679 
L 318.571472 -86.000102 
L 316.528371 -86.172393 
L 314.48527 -84.393272 
L 312.44217 -83.799275 
L 310.399069 -83.067686 
L 308.355968 -82.590422 
L 306.312867 -82.344921 
L 304.269767 -81.125503 
L 302.226666 -80.098451 
L 300.183565 -79.575883 
L 298.140464 -79.300744 
L 296.097364 -77.863506 
L 294.054263 -78.132826 
L 292.011162 -77.772635 
L 289.968062 -77.590641 
L 287.924961 -77.877182 
L 285.88186 -76.815291 
L 283.838759 -75.790022 
L 281.795659 -76.046661 
L 279.752558 -76.764052 
L 277.709457 -77.313351 
L 275.666356 -77.102564 
L 273.623256 -77.726033 
L 271.580155 -76.828844 
L 269.537054 -76.864509 
L 267.493953 -76.941544 
L 265.450853 -79.669667 
L 263.407752 -81.83014 
L 261.364651 -86.248158 
L 259.32155 -90.998419 
L 257.27845 -95.469258 
L 255.235349 -102.080163 
L 253.192248 -106.768071 
L 251.149147 -113.271269 
L 249.106047 -109.357506 
L 247.062946 -105.451361 
L 245.019845 -105.843833 
L 242.976744 -112.589475 
L 240.933644 -123.838636 
L 238.890543 -143.959814 
L 236.847442 -157.959771 
L 234.804341 -153.350508 
L 232.761241 -170.421144 
L 230.71814 -173.512495 
L 228.675039 -185.591872 
L 226.631938 -185.640148 
L 224.588838 -177.646897 
L 222.545737 -167.249808 
L 220.502636 -162.250122 
L 218.459536 -156.49787 
L 216.416435 -148.895454 
L 214.373334 -135.626604 
L 212.330233 -134.094275 
L 210.287133 -136.230836 
L 208.244032 -145.425684 
L 206.200931 -147.085023 
L 204.15783 -158.405616 
L 202.11473 -182.362394 
L 200.071629 -201.125008 
L 198.028528 -220.763811 
L 195.985427 -245.395291 
L 193.942327 -274.644515 
L 191.899226 -281.710887 
L 189.856125 -295.312201 
L 187.813024 -281.511577 
L 185.769924 -270.795331 
L 183.726823 -256.791 
L 181.683722 -253.352327 
L 179.640621 -246.685185 
L 177.597521 -246.992924 
L 175.55442 -235.164493 
L 173.511319 -223.402691 
L 171.468218 -222.199919 
L 169.425118 -228.517006 
L 167.382017 -226.246273 
L 165.338916 -224.637412 
L 163.295815 -225.883674 
L 161.252715 -230.578348 
L 159.209614 -235.316694 
L 157.166513 -239.331314 
L 155.123412 -229.697812 
L 153.080312 -227.777221 
L 151.037211 -228.941726 
L 148.99411 -230.487591 
L 146.95101 -238.76981 
L 144.907909 -237.209933 
L 142.864808 -236.339906 
L 140.821707 -243.674169 
L 138.778607 -243.015882 
L 136.735506 -236.879917 
L 134.692405 -237.342377 
L 132.649304 -227.721104 
L 130.606204 -218.627293 
L 128.563103 -210.01231 
L 126.520002 -199.903637 
L 124.476901 -190.376429 
L 122.433801 -180.817929 
L 120.3907 -171.857914 
L 118.347599 -161.606882 
L 116.304498 -154.344105 
L 114.261398 -151.136407 
L 112.218297 -147.448549 
L 110.175196 -147.075214 
L 108.132095 -146.892325 
L 106.088995 -150.600783 
L 104.045894 -159.009293 
L 102.002793 -165.640224 
L 99.959692 -177.322977 
L 97.916592 -194.660253 
L 95.873491 -213.113364 
L 93.83039 -237.01921 
L 91.787289 -268.769245 
L 89.744189 -304.742244 
L 87.701088 -350.619802 
L 85.657987 -400.854089 
L 83.614886 -425.04 
L 81.571786 -421.861901 
z
" style="stroke: #de8f05; stroke-opacity: 0.3"/>
    </defs>
    <g clip-path="url(#pb17270115b)">
     <use xlink:href="#m66414f06c8" x="0" y="504" style="fill: #de8f05; fill-opacity: 0.3; stroke: #de8f05; stroke-opacity: 0.3"/>
    </g>
   </g>
   <g id="matplotlib.axis_1">
    <g id="xtick_1">
     <g id="line2d_1">
      <defs>
       <path id="mf6c93bd134" d="M 0 0 
L 0 3.5 
" style="stroke: #000000; stroke-width: 0.8"/>
      </defs>
      <g>
       <use xlink:href="#mf6c93bd134" x="91.787289" y="448.56" style="stroke: #000000; stroke-width: 0.8"/>
      </g>
     </g>
     <g id="text_1">
      <text style="font-size: 16px; font-family: 'Arial', sans-serif; text-anchor: middle" x="91.787289" y="467.208438" transform="rotate(-0 91.787289 467.208438)">1 Jul</text>
     </g>
    </g>
    <g id="xtick_2">
     <g id="line2d_2">
      <g>
       <use xlink:href="#mf6c93bd134" x="155.123412" y="448.56" style="stroke: #000000; stroke-width: 0.8"/>
      </g>
     </g>
     <g id="text_2">
      <text style="font-size: 16px; font-family: 'Arial', sans-serif; text-anchor: middle" x="155.123412" y="467.208438" transform="rotate(-0 155.123412 467.208438)">1 Aug</text>
     </g>
    </g>
    <g id="xtick_3">
     <g id="line2d_3">
      <g>
       <use xlink:href="#mf6c93bd134" x="218.459536" y="448.56" style="stroke: #000000; stroke-width: 0.8"/>
      </g>
     </g>
     <g id="text_3">
      <text style="font-size: 16px; font-family: 'Arial', sans-serif; text-anchor: middle" x="218.459536" y="467.208438" transform="rotate(-0 218.459536 467.208438)">1 Sep</text>
     </g>
    </g>
    <g id="xtick_4">
     <g id="line2d_4">
      <g>
       <use xlink:href="#mf6c93bd134" x="279.752558" y="448.56" style="stroke: #000000; stroke-width: 0.8"/>
      </g>
     </g>
     <g id="text_4">
      <text style="font-size: 16px; font-family: 'Arial', sans-serif; text-anchor: middle" x="279.752558" y="467.2175" transform="rotate(-0 279.752558 467.2175)">1 Oct</text>
     </g>
    </g>
    <g id="xtick_5">
     <g id="line2d_5">
      <g>
       <use xlink:href="#mf6c93bd134" x="343.088681" y="448.56" style="stroke: #000000; stroke-width: 0.8"/>
      </g>
     </g>
     <g id="text_5">
      <text style="font-size: 16px; font-family: 'Arial', sans-serif; text-anchor: middle" x="343.088681" y="467.208438" transform="rotate(-0 343.088681 467.208438)">1 Nov</text>
     </g>
    </g>
    <g id="xtick_6">
     <g id="line2d_6">
      <g>
       <use xlink:href="#mf6c93bd134" x="404.381703" y="448.56" style="stroke: #000000; stroke-width: 0.8"/>
      </g>
     </g>
     <g id="text_6">
      <text style="font-size: 16px; font-family: 'Arial', sans-serif; text-anchor: middle" x="404.381703" y="467.208438" transform="rotate(-0 404.381703 467.208438)">1 Dec</text>
     </g>
    </g>
    <g id="text_7">
     <text style="font-size: 16px; font-family: 'Arial', sans-serif; text-anchor: middle" x="258.3" y="486.233125" transform="rotate(-0 258.3 486.233125)">Date (2017)</text>
    </g>
   </g>
   <g id="matplotlib.axis_2">
    <g id="ytick_1">
     <g id="line2d_7">
      <defs>
       <path id="m713b22054a" d="M 0 0 
L -3.5 0 
" style="stroke: #000000; stroke-width: 0.8"/>
      </defs>
      <g>
       <use xlink:href="#m713b22054a" x="63" y="448.56" style="stroke: #000000; stroke-width: 0.8"/>
      </g>
     </g>
     <g id="text_8">
      <text style="font-size: 16px; font-family: 'Arial', sans-serif; text-anchor: end" x="56" y="454.384219" transform="rotate(-0 56 454.384219)">0</text>
     </g>
    </g>
    <g id="ytick_2">
     <g id="line2d_8">
      <g>
       <use xlink:href="#m713b22054a" x="63" y="402.346623" style="stroke: #000000; stroke-width: 0.8"/>
      </g>
     </g>
     <g id="text_9">
      <text style="font-size: 16px; font-family: 'Arial', sans-serif; text-anchor: end" x="56" y="408.170842" transform="rotate(-0 56 408.170842)">1</text>
     </g>
    </g>
    <g id="ytick_3">
     <g id="line2d_9">
      <g>
       <use xlink:href="#m713b22054a" x="63" y="356.133247" style="stroke: #000000; stroke-width: 0.8"/>
      </g>
     </g>
     <g id="text_10">
      <text style="font-size: 16px; font-family: 'Arial', sans-serif; text-anchor: end" x="56" y="361.957465" transform="rotate(-0 56 361.957465)">2</text>
     </g>
    </g>
    <g id="ytick_4">
     <g id="line2d_10">
      <g>
       <use xlink:href="#m713b22054a" x="63" y="309.91987" style="stroke: #000000; stroke-width: 0.8"/>
      </g>
     </g>
     <g id="text_11">
      <text style="font-size: 16px; font-family: 'Arial', sans-serif; text-anchor: end" x="56" y="315.744089" transform="rotate(-0 56 315.744089)">3</text>
     </g>
    </g>
    <g id="ytick_5">
     <g id="line2d_11">
      <g>
       <use xlink:href="#m713b22054a" x="63" y="263.706493" style="stroke: #000000; stroke-width: 0.8"/>
      </g>
     </g>
     <g id="text_12">
      <text style="font-size: 16px; font-family: 'Arial', sans-serif; text-anchor: end" x="56" y="269.530712" transform="rotate(-0 56 269.530712)">4</text>
     </g>
    </g>
    <g id="ytick_6">
     <g id="line2d_12">
      <g>
       <use xlink:href="#m713b22054a" x="63" y="217.493117" style="stroke: #000000; stroke-width: 0.8"/>
      </g>
     </g>
     <g id="text_13">
      <text style="font-size: 16px; font-family: 'Arial', sans-serif; text-anchor: end" x="56" y="223.317335" transform="rotate(-0 56 223.317335)">5</text>
     </g>
    </g>
    <g id="ytick_7">
     <g id="line2d_13">
      <g>
       <use xlink:href="#m713b22054a" x="63" y="171.27974" style="stroke: #000000; stroke-width: 0.8"/>
      </g>
     </g>
     <g id="text_14">
      <text style="font-size: 16px; font-family: 'Arial', sans-serif; text-anchor: end" x="56" y="177.103959" transform="rotate(-0 56 177.103959)">6</text>
     </g>
    </g>
    <g id="ytick_8">
     <g id="line2d_14">
      <g>
       <use xlink:href="#m713b22054a" x="63" y="125.066363" style="stroke: #000000; stroke-width: 0.8"/>
      </g>
     </g>
     <g id="text_15">
      <text style="font-size: 16px; font-family: 'Arial', sans-serif; text-anchor: end" x="56" y="130.890582" transform="rotate(-0 56 130.890582)">7</text>
     </g>
    </g>
    <g id="ytick_9">
     <g id="line2d_15">
      <g>
       <use xlink:href="#m713b22054a" x="63" y="78.852987" style="stroke: #000000; stroke-width: 0.8"/>
      </g>
     </g>
     <g id="text_16">
      <text style="font-size: 16px; font-family: 'Arial', sans-serif; text-anchor: end" x="56" y="84.677205" transform="rotate(-0 56 84.677205)">8</text>
     </g>
    </g>
    <g id="text_17">
     <text style="font-size: 16px; font-family: 'Arial', sans-serif; text-anchor: middle" x="39.735312" y="254.52" transform="rotate(-90 39.735312 254.52)">Time-dependent reproduction number</text>
    </g>
   </g>
   <g id="line2d_16">
    <path d="M 81.571786 345.937055 
L 83.614886 339.417384 
L 85.657987 341.551366 
L 89.744189 359.52443 
L 91.787289 367.44896 
L 93.83039 374.245871 
L 95.873491 380.371906 
L 97.916592 385.065342 
L 99.959692 388.915139 
L 102.002793 393.435791 
L 104.045894 396.565292 
L 106.088995 398.920954 
L 108.132095 399.888843 
L 110.175196 400.003039 
L 112.218297 399.010188 
L 114.261398 397.274331 
L 116.304498 394.635437 
L 118.347599 390.583921 
L 120.3907 385.42475 
L 122.433801 382.014637 
L 124.476901 376.718136 
L 126.520002 370.566442 
L 128.563103 366.315595 
L 130.606204 360.430751 
L 132.649304 357.111356 
L 134.692405 352.721153 
L 136.735506 351.13963 
L 138.778607 348.226593 
L 140.821707 347.441892 
L 142.864808 348.558401 
L 144.907909 347.962239 
L 146.95101 348.69001 
L 148.99411 350.818098 
L 151.037211 349.910939 
L 153.080312 350.159049 
L 155.123412 347.190452 
L 157.166513 340.453524 
L 159.209614 340.486853 
L 161.252715 343.11238 
L 163.295815 344.448685 
L 165.338916 345.42237 
L 167.382017 344.4728 
L 169.425118 342.82128 
L 171.468218 345.699395 
L 173.511319 342.876907 
L 175.55442 337.530266 
L 177.597521 327.017578 
L 179.640621 322.516286 
L 181.683722 319.165752 
L 183.726823 315.422307 
L 185.769924 304.879789 
L 187.813024 295.437796 
L 189.856125 284.232279 
L 191.899226 290.738673 
L 193.942327 298.040414 
L 195.985427 318.495216 
L 198.028528 336.369659 
L 200.071629 349.29658 
L 202.11473 361.309307 
L 204.15783 377.655455 
L 206.200931 386.045486 
L 208.244032 386.321513 
L 210.287133 392.618203 
L 212.330233 392.965693 
L 214.373334 391.390004 
L 216.416435 381.877844 
L 218.459536 376.363675 
L 222.545737 367.727551 
L 224.588838 360.194466 
L 226.631938 352.150926 
L 228.675039 352.783581 
L 230.71814 361.727499 
L 232.761241 364.84698 
L 234.804341 376.535628 
L 236.847442 373.285727 
L 238.890543 384.601614 
L 240.933644 399.069334 
L 242.976744 407.876548 
L 245.019845 412.604519 
L 247.062946 412.529057 
L 251.149147 407.258655 
L 253.192248 412.052371 
L 255.235349 415.477159 
L 257.27845 420.557153 
L 261.364651 427.695455 
L 263.407752 430.430367 
L 265.450853 432.440453 
L 267.493953 434.039685 
L 269.537054 434.41626 
L 273.623256 434.344534 
L 275.666356 434.744629 
L 277.709457 434.918737 
L 279.752558 435.650648 
L 281.795659 436.653621 
L 283.838759 437.051774 
L 287.924961 436.970294 
L 292.011162 438.065831 
L 298.140464 439.162529 
L 300.183565 439.625692 
L 302.226666 439.896667 
L 304.269767 439.995458 
L 306.312867 439.932195 
L 308.355968 440.129229 
L 310.399069 440.578459 
L 312.44217 440.894314 
L 314.48527 441.028198 
L 316.528371 441.026989 
L 318.571472 441.357771 
L 322.657673 441.683559 
L 326.743875 441.741144 
L 330.830076 441.4545 
L 334.916278 440.893945 
L 336.959379 440.434249 
L 345.131782 440.43823 
L 349.217983 440.311857 
L 351.261084 440.269292 
L 355.347285 441.21783 
L 363.519688 442.534862 
L 369.64899 443.31907 
L 375.778293 443.796892 
L 392.123099 444.789924 
L 402.338602 445.123459 
L 428.898912 445.918857 
L 435.028214 446.05646 
L 435.028214 446.05646 
" clip-path="url(#pb17270115b)" style="fill: none; stroke: #0173b2; stroke-width: 2; stroke-linecap: square"/>
   </g>
   <g id="line2d_17">
    <path d="M 81.571786 309.868592 
L 83.614886 307.46067 
L 85.657987 315.203695 
L 87.701088 330.473618 
L 89.744189 344.20485 
L 91.787289 355.967884 
L 93.83039 366.462475 
L 95.873491 375.004702 
L 97.916592 381.937122 
L 99.959692 387.040644 
L 102.002793 392.777582 
L 104.045894 396.420938 
L 106.088995 398.938385 
L 108.132095 400.136243 
L 110.175196 400.500161 
L 112.218297 399.808663 
L 114.261398 398.137047 
L 116.304498 395.6795 
L 118.347599 392.193598 
L 120.3907 387.349371 
L 122.433801 383.494688 
L 124.476901 378.946754 
L 126.520002 372.699121 
L 128.563103 368.189909 
L 130.606204 362.694834 
L 132.649304 358.73722 
L 134.692405 354.085562 
L 136.735506 352.001674 
L 138.778607 349.232805 
L 140.821707 348.662526 
L 142.864808 349.658085 
L 144.907909 348.668975 
L 146.95101 349.442092 
L 148.99411 351.42253 
L 151.037211 350.796575 
L 153.080312 350.777626 
L 155.123412 347.550188 
L 157.166513 340.877293 
L 159.209614 340.652158 
L 161.252715 343.263711 
L 163.295815 344.58324 
L 165.338916 345.098072 
L 167.382017 343.840765 
L 169.425118 341.657183 
L 171.468218 344.954036 
L 173.511319 342.29727 
L 175.55442 337.150315 
L 177.597521 327.222261 
L 183.726823 314.560722 
L 185.769924 304.025906 
L 187.813024 294.396082 
L 189.856125 283.988838 
L 191.899226 291.380354 
L 193.942327 297.89169 
L 195.985427 318.496411 
L 198.028528 336.048282 
L 202.11473 361.178478 
L 204.15783 377.678335 
L 206.200931 385.791833 
L 208.244032 386.514946 
L 210.287133 392.997905 
L 212.330233 393.486222 
L 214.373334 391.762662 
L 216.416435 382.106931 
L 218.459536 376.721672 
L 222.545737 367.964923 
L 226.631938 353.137631 
L 228.675039 353.044667 
L 230.71814 361.999517 
L 232.761241 365.229722 
L 234.804341 377.254724 
L 236.847442 374.061225 
L 238.890543 385.019435 
L 240.933644 399.581963 
L 242.976744 408.19754 
L 245.019845 413.087119 
L 247.062946 412.990314 
L 251.149147 407.713641 
L 253.192248 412.609127 
L 255.235349 415.874442 
L 257.27845 420.90785 
L 259.32155 424.308565 
L 261.364651 427.94564 
L 263.407752 430.832595 
L 265.450853 432.828542 
L 267.493953 434.370794 
L 269.537054 434.724294 
L 273.623256 434.469701 
L 275.666356 434.873038 
L 277.709457 434.860885 
L 279.752558 435.388478 
L 281.795659 436.052317 
L 283.838759 436.231899 
L 287.924961 435.53687 
L 292.011162 435.971537 
L 294.054263 435.893066 
L 296.097364 435.964356 
L 298.140464 435.754009 
L 300.183565 435.819773 
L 302.226666 435.612739 
L 304.269767 435.235799 
L 306.312867 434.688643 
L 308.355968 434.477517 
L 312.44217 434.435884 
L 316.528371 433.819116 
L 318.571472 433.815417 
L 322.657673 433.496728 
L 326.743875 432.791408 
L 330.830076 431.730846 
L 334.916278 430.433319 
L 336.959379 429.610967 
L 339.002479 429.394976 
L 343.088681 428.581019 
L 349.217983 426.951449 
L 351.261084 426.307413 
L 435.028214 426.307413 
L 435.028214 426.307413 
" clip-path="url(#pb17270115b)" style="fill: none; stroke: #de8f05; stroke-width: 2; stroke-linecap: square"/>
   </g>
   <g id="patch_3">
    <path d="M 63 448.56 
L 63 60.48 
" style="fill: none; stroke: #000000; stroke-width: 0.8; stroke-linejoin: miter; stroke-linecap: square"/>
   </g>
   <g id="patch_4">
    <path d="M 63 448.56 
L 453.6 448.56 
" style="fill: none; stroke: #000000; stroke-width: 0.8; stroke-linejoin: miter; stroke-linecap: square"/>
   </g>
   <g id="legend_1">
    <g id="patch_5">
     <path d="M 259.721875 111.957891 
L 443.8 111.957891 
Q 446.6 111.957891 446.6 109.157891 
L 446.6 70.28 
Q 446.6 67.48 443.8 67.48 
L 259.721875 67.48 
Q 256.921875 67.48 256.921875 70.28 
L 256.921875 109.157891 
Q 256.921875 111.957891 259.721875 111.957891 
z
" style="fill: #ffffff; opacity: 0.8; stroke: #cccccc; stroke-linejoin: miter"/>
    </g>
    <g id="line2d_18">
     <path d="M 262.521875 78.372383 
L 276.521875 78.372383 
L 290.521875 78.372383 
" style="fill: none; stroke: #0173b2; stroke-width: 2; stroke-linecap: square"/>
    </g>
    <g id="text_18">
     <text style="font-size: 14px; font-family: 'Arial', sans-serif; text-anchor: start" x="301.721875" y="83.272383" transform="rotate(-0 301.721875 83.272383)">Suitability-based</text>
    </g>
    <g id="line2d_19">
     <path d="M 262.521875 98.511328 
L 276.521875 98.511328 
L 290.521875 98.511328 
" style="fill: none; stroke: #de8f05; stroke-width: 2; stroke-linecap: square"/>
    </g>
    <g id="text_19">
     <text style="font-size: 14px; font-family: 'Arial', sans-serif; text-anchor: start" x="301.721875" y="103.411328" transform="rotate(-0 301.721875 103.411328)">Frozen autoregressive</text>
    </g>
   </g>
  </g>
  <g id="axes_2">
   <g id="patch_6">
    <path d="M 80.754545 448.56 
L 82.389026 448.56 
L 82.389026 396.816 
L 80.754545 396.816 
z
" clip-path="url(#pb17270115b)" style="fill: #7f7f7f; opacity: 0.5"/>
   </g>
   <g id="patch_7">
    <path d="M 82.797646 448.56 
L 84.432127 448.56 
L 84.432127 396.816 
L 82.797646 396.816 
z
" clip-path="url(#pb17270115b)" style="fill: #7f7f7f; opacity: 0.5"/>
   </g>
   <g id="patch_8">
    <path d="M 84.840747 448.56 
L 86.475228 448.56 
L 86.475228 396.816 
L 84.840747 396.816 
z
" clip-path="url(#pb17270115b)" style="fill: #7f7f7f; opacity: 0.5"/>
   </g>
   <g id="patch_9">
    <path d="M 86.883848 448.56 
L 88.518328 448.56 
L 88.518328 448.56 
L 86.883848 448.56 
z
" clip-path="url(#pb17270115b)" style="fill: #7f7f7f; opacity: 0.5"/>
   </g>
   <g id="patch_10">
    <path d="M 88.926948 448.56 
L 90.561429 448.56 
L 90.561429 448.56 
L 88.926948 448.56 
z
" clip-path="url(#pb17270115b)" style="fill: #7f7f7f; opacity: 0.5"/>
   </g>
   <g id="patch_11">
    <path d="M 90.970049 448.56 
L 92.60453 448.56 
L 92.60453 448.56 
L 90.970049 448.56 
z
" clip-path="url(#pb17270115b)" style="fill: #7f7f7f; opacity: 0.5"/>
   </g>
   <g id="patch_12">
    <path d="M 93.01315 448.56 
L 94.647631 448.56 
L 94.647631 448.56 
L 93.01315 448.56 
z
" clip-path="url(#pb17270115b)" style="fill: #7f7f7f; opacity: 0.5"/>
   </g>
   <g id="patch_13">
    <path d="M 95.056251 448.56 
L 96.690731 448.56 
L 96.690731 448.56 
L 95.056251 448.56 
z
" clip-path="url(#pb17270115b)" style="fill: #7f7f7f; opacity: 0.5"/>
   </g>
   <g id="patch_14">
    <path d="M 97.099351 448.56 
L 98.733832 448.56 
L 98.733832 448.56 
L 97.099351 448.56 
z
" clip-path="url(#pb17270115b)" style="fill: #7f7f7f; opacity: 0.5"/>
   </g>
   <g id="patch_15">
    <path d="M 99.142452 448.56 
L 100.776933 448.56 
L 100.776933 422.688 
L 99.142452 422.688 
z
" clip-path="url(#pb17270115b)" style="fill: #7f7f7f; opacity: 0.5"/>
   </g>
   <g id="patch_16">
    <path d="M 101.185553 448.56 
L 102.820033 448.56 
L 102.820033 448.56 
L 101.185553 448.56 
z
" clip-path="url(#pb17270115b)" style="fill: #7f7f7f; opacity: 0.5"/>
   </g>
   <g id="patch_17">
    <path d="M 103.228654 448.56 
L 104.863134 448.56 
L 104.863134 448.56 
L 103.228654 448.56 
z
" clip-path="url(#pb17270115b)" style="fill: #7f7f7f; opacity: 0.5"/>
   </g>
   <g id="patch_18">
    <path d="M 105.271754 448.56 
L 106.906235 448.56 
L 106.906235 448.56 
L 105.271754 448.56 
z
" clip-path="url(#pb17270115b)" style="fill: #7f7f7f; opacity: 0.5"/>
   </g>
   <g id="patch_19">
    <path d="M 107.314855 448.56 
L 108.949336 448.56 
L 108.949336 448.56 
L 107.314855 448.56 
z
" clip-path="url(#pb17270115b)" style="fill: #7f7f7f; opacity: 0.5"/>
   </g>
   <g id="patch_20">
    <path d="M 109.357956 448.56 
L 110.992436 448.56 
L 110.992436 448.56 
L 109.357956 448.56 
z
" clip-path="url(#pb17270115b)" style="fill: #7f7f7f; opacity: 0.5"/>
   </g>
   <g id="patch_21">
    <path d="M 111.401057 448.56 
L 113.035537 448.56 
L 113.035537 448.56 
L 111.401057 448.56 
z
" clip-path="url(#pb17270115b)" style="fill: #7f7f7f; opacity: 0.5"/>
   </g>
   <g id="patch_22">
    <path d="M 113.444157 448.56 
L 115.078638 448.56 
L 115.078638 448.56 
L 113.444157 448.56 
z
" clip-path="url(#pb17270115b)" style="fill: #7f7f7f; opacity: 0.5"/>
   </g>
   <g id="patch_23">
    <path d="M 115.487258 448.56 
L 117.121739 448.56 
L 117.121739 448.56 
L 115.487258 448.56 
z
" clip-path="url(#pb17270115b)" style="fill: #7f7f7f; opacity: 0.5"/>
   </g>
   <g id="patch_24">
    <path d="M 117.530359 448.56 
L 119.164839 448.56 
L 119.164839 448.56 
L 117.530359 448.56 
z
" clip-path="url(#pb17270115b)" style="fill: #7f7f7f; opacity: 0.5"/>
   </g>
   <g id="patch_25">
    <path d="M 119.57346 448.56 
L 121.20794 448.56 
L 121.20794 422.688 
L 119.57346 422.688 
z
" clip-path="url(#pb17270115b)" style="fill: #7f7f7f; opacity: 0.5"/>
   </g>
   <g id="patch_26">
    <path d="M 121.61656 448.56 
L 123.251041 448.56 
L 123.251041 448.56 
L 121.61656 448.56 
z
" clip-path="url(#pb17270115b)" style="fill: #7f7f7f; opacity: 0.5"/>
   </g>
   <g id="patch_27">
    <path d="M 123.659661 448.56 
L 125.294142 448.56 
L 125.294142 448.56 
L 123.659661 448.56 
z
" clip-path="url(#pb17270115b)" style="fill: #7f7f7f; opacity: 0.5"/>
   </g>
   <g id="patch_28">
    <path d="M 125.702762 448.56 
L 127.337242 448.56 
L 127.337242 422.688 
L 125.702762 422.688 
z
" clip-path="url(#pb17270115b)" style="fill: #7f7f7f; opacity: 0.5"/>
   </g>
   <g id="patch_29">
    <path d="M 127.745863 448.56 
L 129.380343 448.56 
L 129.380343 448.56 
L 127.745863 448.56 
z
" clip-path="url(#pb17270115b)" style="fill: #7f7f7f; opacity: 0.5"/>
   </g>
   <g id="patch_30">
    <path d="M 129.788963 448.56 
L 131.423444 448.56 
L 131.423444 422.688 
L 129.788963 422.688 
z
" clip-path="url(#pb17270115b)" style="fill: #7f7f7f; opacity: 0.5"/>
   </g>
   <g id="patch_31">
    <path d="M 131.832064 448.56 
L 133.466545 448.56 
L 133.466545 448.56 
L 131.832064 448.56 
z
" clip-path="url(#pb17270115b)" style="fill: #7f7f7f; opacity: 0.5"/>
   </g>
   <g id="patch_32">
    <path d="M 133.875165 448.56 
L 135.509645 448.56 
L 135.509645 422.688 
L 133.875165 422.688 
z
" clip-path="url(#pb17270115b)" style="fill: #7f7f7f; opacity: 0.5"/>
   </g>
   <g id="patch_33">
    <path d="M 135.918266 448.56 
L 137.552746 448.56 
L 137.552746 448.56 
L 135.918266 448.56 
z
" clip-path="url(#pb17270115b)" style="fill: #7f7f7f; opacity: 0.5"/>
   </g>
   <g id="patch_34">
    <path d="M 137.961366 448.56 
L 139.595847 448.56 
L 139.595847 422.688 
L 137.961366 422.688 
z
" clip-path="url(#pb17270115b)" style="fill: #7f7f7f; opacity: 0.5"/>
   </g>
   <g id="patch_35">
    <path d="M 140.004467 448.56 
L 141.638948 448.56 
L 141.638948 422.688 
L 140.004467 422.688 
z
" clip-path="url(#pb17270115b)" style="fill: #7f7f7f; opacity: 0.5"/>
   </g>
   <g id="patch_36">
    <path d="M 142.047568 448.56 
L 143.682048 448.56 
L 143.682048 448.56 
L 142.047568 448.56 
z
" clip-path="url(#pb17270115b)" style="fill: #7f7f7f; opacity: 0.5"/>
   </g>
   <g id="patch_37">
    <path d="M 144.090668 448.56 
L 145.725149 448.56 
L 145.725149 422.688 
L 144.090668 422.688 
z
" clip-path="url(#pb17270115b)" style="fill: #7f7f7f; opacity: 0.5"/>
   </g>
   <g id="patch_38">
    <path d="M 146.133769 448.56 
L 147.76825 448.56 
L 147.76825 422.688 
L 146.133769 422.688 
z
" clip-path="url(#pb17270115b)" style="fill: #7f7f7f; opacity: 0.5"/>
   </g>
   <g id="patch_39">
    <path d="M 148.17687 448.56 
L 149.811351 448.56 
L 149.811351 448.56 
L 148.17687 448.56 
z
" clip-path="url(#pb17270115b)" style="fill: #7f7f7f; opacity: 0.5"/>
   </g>
   <g id="patch_40">
    <path d="M 150.219971 448.56 
L 151.854451 448.56 
L 151.854451 422.688 
L 150.219971 422.688 
z
" clip-path="url(#pb17270115b)" style="fill: #7f7f7f; opacity: 0.5"/>
   </g>
   <g id="patch_41">
    <path d="M 152.263071 448.56 
L 153.897552 448.56 
L 153.897552 448.56 
L 152.263071 448.56 
z
" clip-path="url(#pb17270115b)" style="fill: #7f7f7f; opacity: 0.5"/>
   </g>
   <g id="patch_42">
    <path d="M 154.306172 448.56 
L 155.940653 448.56 
L 155.940653 448.56 
L 154.306172 448.56 
z
" clip-path="url(#pb17270115b)" style="fill: #7f7f7f; opacity: 0.5"/>
   </g>
   <g id="patch_43">
    <path d="M 156.349273 448.56 
L 157.983754 448.56 
L 157.983754 370.944 
L 156.349273 370.944 
z
" clip-path="url(#pb17270115b)" style="fill: #7f7f7f; opacity: 0.5"/>
   </g>
   <g id="patch_44">
    <path d="M 158.392374 448.56 
L 160.026854 448.56 
L 160.026854 396.816 
L 158.392374 396.816 
z
" clip-path="url(#pb17270115b)" style="fill: #7f7f7f; opacity: 0.5"/>
   </g>
   <g id="patch_45">
    <path d="M 160.435474 448.56 
L 162.069955 448.56 
L 162.069955 422.688 
L 160.435474 422.688 
z
" clip-path="url(#pb17270115b)" style="fill: #7f7f7f; opacity: 0.5"/>
   </g>
   <g id="patch_46">
    <path d="M 162.478575 448.56 
L 164.113056 448.56 
L 164.113056 422.688 
L 162.478575 422.688 
z
" clip-path="url(#pb17270115b)" style="fill: #7f7f7f; opacity: 0.5"/>
   </g>
   <g id="patch_47">
    <path d="M 164.521676 448.56 
L 166.156157 448.56 
L 166.156157 422.688 
L 164.521676 422.688 
z
" clip-path="url(#pb17270115b)" style="fill: #7f7f7f; opacity: 0.5"/>
   </g>
   <g id="patch_48">
    <path d="M 166.564777 448.56 
L 168.199257 448.56 
L 168.199257 422.688 
L 166.564777 422.688 
z
" clip-path="url(#pb17270115b)" style="fill: #7f7f7f; opacity: 0.5"/>
   </g>
   <g id="patch_49">
    <path d="M 168.607877 448.56 
L 170.242358 448.56 
L 170.242358 370.944 
L 168.607877 370.944 
z
" clip-path="url(#pb17270115b)" style="fill: #7f7f7f; opacity: 0.5"/>
   </g>
   <g id="patch_50">
    <path d="M 170.650978 448.56 
L 172.285459 448.56 
L 172.285459 448.56 
L 170.650978 448.56 
z
" clip-path="url(#pb17270115b)" style="fill: #7f7f7f; opacity: 0.5"/>
   </g>
   <g id="patch_51">
    <path d="M 172.694079 448.56 
L 174.328559 448.56 
L 174.328559 422.688 
L 172.694079 422.688 
z
" clip-path="url(#pb17270115b)" style="fill: #7f7f7f; opacity: 0.5"/>
   </g>
   <g id="patch_52">
    <path d="M 174.73718 448.56 
L 176.37166 448.56 
L 176.37166 422.688 
L 174.73718 422.688 
z
" clip-path="url(#pb17270115b)" style="fill: #7f7f7f; opacity: 0.5"/>
   </g>
   <g id="patch_53">
    <path d="M 176.78028 448.56 
L 178.414761 448.56 
L 178.414761 345.072 
L 176.78028 345.072 
z
" clip-path="url(#pb17270115b)" style="fill: #7f7f7f; opacity: 0.5"/>
   </g>
   <g id="patch_54">
    <path d="M 178.823381 448.56 
L 180.457862 448.56 
L 180.457862 370.944 
L 178.823381 370.944 
z
" clip-path="url(#pb17270115b)" style="fill: #7f7f7f; opacity: 0.5"/>
   </g>
   <g id="patch_55">
    <path d="M 180.866482 448.56 
L 182.500962 448.56 
L 182.500962 370.944 
L 180.866482 370.944 
z
" clip-path="url(#pb17270115b)" style="fill: #7f7f7f; opacity: 0.5"/>
   </g>
   <g id="patch_56">
    <path d="M 182.909583 448.56 
L 184.544063 448.56 
L 184.544063 396.816 
L 182.909583 396.816 
z
" clip-path="url(#pb17270115b)" style="fill: #7f7f7f; opacity: 0.5"/>
   </g>
   <g id="patch_57">
    <path d="M 184.952683 448.56 
L 186.587164 448.56 
L 186.587164 345.072 
L 184.952683 345.072 
z
" clip-path="url(#pb17270115b)" style="fill: #7f7f7f; opacity: 0.5"/>
   </g>
   <g id="patch_58">
    <path d="M 186.995784 448.56 
L 188.630265 448.56 
L 188.630265 345.072 
L 186.995784 345.072 
z
" clip-path="url(#pb17270115b)" style="fill: #7f7f7f; opacity: 0.5"/>
   </g>
   <g id="patch_59">
    <path d="M 189.038885 448.56 
L 190.673365 448.56 
L 190.673365 241.584 
L 189.038885 241.584 
z
" clip-path="url(#pb17270115b)" style="fill: #7f7f7f; opacity: 0.5"/>
   </g>
   <g id="patch_60">
    <path d="M 191.081986 448.56 
L 192.716466 448.56 
L 192.716466 319.2 
L 191.081986 319.2 
z
" clip-path="url(#pb17270115b)" style="fill: #7f7f7f; opacity: 0.5"/>
   </g>
   <g id="patch_61">
    <path d="M 193.125086 448.56 
L 194.759567 448.56 
L 194.759567 241.584 
L 193.125086 241.584 
z
" clip-path="url(#pb17270115b)" style="fill: #7f7f7f; opacity: 0.5"/>
   </g>
   <g id="patch_62">
    <path d="M 195.168187 448.56 
L 196.802668 448.56 
L 196.802668 319.2 
L 195.168187 319.2 
z
" clip-path="url(#pb17270115b)" style="fill: #7f7f7f; opacity: 0.5"/>
   </g>
   <g id="patch_63">
    <path d="M 197.211288 448.56 
L 198.845768 448.56 
L 198.845768 345.072 
L 197.211288 345.072 
z
" clip-path="url(#pb17270115b)" style="fill: #7f7f7f; opacity: 0.5"/>
   </g>
   <g id="patch_64">
    <path d="M 199.254389 448.56 
L 200.888869 448.56 
L 200.888869 319.2 
L 199.254389 319.2 
z
" clip-path="url(#pb17270115b)" style="fill: #7f7f7f; opacity: 0.5"/>
   </g>
   <g id="patch_65">
    <path d="M 201.297489 448.56 
L 202.93197 448.56 
L 202.93197 267.456 
L 201.297489 267.456 
z
" clip-path="url(#pb17270115b)" style="fill: #7f7f7f; opacity: 0.5"/>
   </g>
   <g id="patch_66">
    <path d="M 203.34059 448.56 
L 204.975071 448.56 
L 204.975071 396.816 
L 203.34059 396.816 
z
" clip-path="url(#pb17270115b)" style="fill: #7f7f7f; opacity: 0.5"/>
   </g>
   <g id="patch_67">
    <path d="M 205.383691 448.56 
L 207.018171 448.56 
L 207.018171 422.688 
L 205.383691 422.688 
z
" clip-path="url(#pb17270115b)" style="fill: #7f7f7f; opacity: 0.5"/>
   </g>
   <g id="patch_68">
    <path d="M 207.426792 448.56 
L 209.061272 448.56 
L 209.061272 241.584 
L 207.426792 241.584 
z
" clip-path="url(#pb17270115b)" style="fill: #7f7f7f; opacity: 0.5"/>
   </g>
   <g id="patch_69">
    <path d="M 209.469892 448.56 
L 211.104373 448.56 
L 211.104373 396.816 
L 209.469892 396.816 
z
" clip-path="url(#pb17270115b)" style="fill: #7f7f7f; opacity: 0.5"/>
   </g>
   <g id="patch_70">
    <path d="M 211.512993 448.56 
L 213.147474 448.56 
L 213.147474 345.072 
L 211.512993 345.072 
z
" clip-path="url(#pb17270115b)" style="fill: #7f7f7f; opacity: 0.5"/>
   </g>
   <g id="patch_71">
    <path d="M 213.556094 448.56 
L 215.190574 448.56 
L 215.190574 396.816 
L 213.556094 396.816 
z
" clip-path="url(#pb17270115b)" style="fill: #7f7f7f; opacity: 0.5"/>
   </g>
   <g id="patch_72">
    <path d="M 215.599194 448.56 
L 217.233675 448.56 
L 217.233675 215.712 
L 215.599194 215.712 
z
" clip-path="url(#pb17270115b)" style="fill: #7f7f7f; opacity: 0.5"/>
   </g>
   <g id="patch_73">
    <path d="M 217.642295 448.56 
L 219.276776 448.56 
L 219.276776 241.584 
L 217.642295 241.584 
z
" clip-path="url(#pb17270115b)" style="fill: #7f7f7f; opacity: 0.5"/>
   </g>
   <g id="patch_74">
    <path d="M 219.685396 448.56 
L 221.319877 448.56 
L 221.319877 241.584 
L 219.685396 241.584 
z
" clip-path="url(#pb17270115b)" style="fill: #7f7f7f; opacity: 0.5"/>
   </g>
   <g id="patch_75">
    <path d="M 221.728497 448.56 
L 223.362977 448.56 
L 223.362977 267.456 
L 221.728497 267.456 
z
" clip-path="url(#pb17270115b)" style="fill: #7f7f7f; opacity: 0.5"/>
   </g>
   <g id="patch_76">
    <path d="M 223.771597 448.56 
L 225.406078 448.56 
L 225.406078 215.712 
L 223.771597 215.712 
z
" clip-path="url(#pb17270115b)" style="fill: #7f7f7f; opacity: 0.5"/>
   </g>
   <g id="patch_77">
    <path d="M 225.814698 448.56 
L 227.449179 448.56 
L 227.449179 138.096 
L 225.814698 138.096 
z
" clip-path="url(#pb17270115b)" style="fill: #7f7f7f; opacity: 0.5"/>
   </g>
   <g id="patch_78">
    <path d="M 227.857799 448.56 
L 229.49228 448.56 
L 229.49228 138.096 
L 227.857799 138.096 
z
" clip-path="url(#pb17270115b)" style="fill: #7f7f7f; opacity: 0.5"/>
   </g>
   <g id="patch_79">
    <path d="M 229.9009 448.56 
L 231.53538 448.56 
L 231.53538 267.456 
L 229.9009 267.456 
z
" clip-path="url(#pb17270115b)" style="fill: #7f7f7f; opacity: 0.5"/>
   </g>
   <g id="patch_80">
    <path d="M 231.944 448.56 
L 233.578481 448.56 
L 233.578481 138.096 
L 231.944 138.096 
z
" clip-path="url(#pb17270115b)" style="fill: #7f7f7f; opacity: 0.5"/>
   </g>
   <g id="patch_81">
    <path d="M 233.987101 448.56 
L 235.621582 448.56 
L 235.621582 396.816 
L 233.987101 396.816 
z
" clip-path="url(#pb17270115b)" style="fill: #7f7f7f; opacity: 0.5"/>
   </g>
   <g id="patch_82">
    <path d="M 236.030202 448.56 
L 237.664682 448.56 
L 237.664682 60.48 
L 236.030202 60.48 
z
" clip-path="url(#pb17270115b)" style="fill: #7f7f7f; opacity: 0.5"/>
   </g>
   <g id="patch_83">
    <path d="M 238.073303 448.56 
L 239.707783 448.56 
L 239.707783 163.968 
L 238.073303 163.968 
z
" clip-path="url(#pb17270115b)" style="fill: #7f7f7f; opacity: 0.5"/>
   </g>
   <g id="patch_84">
    <path d="M 240.116403 448.56 
L 241.750884 448.56 
L 241.750884 319.2 
L 240.116403 319.2 
z
" clip-path="url(#pb17270115b)" style="fill: #7f7f7f; opacity: 0.5"/>
   </g>
   <g id="patch_85">
    <path d="M 242.159504 448.56 
L 243.793985 448.56 
L 243.793985 345.072 
L 242.159504 345.072 
z
" clip-path="url(#pb17270115b)" style="fill: #7f7f7f; opacity: 0.5"/>
   </g>
   <g id="patch_86">
    <path d="M 244.202605 448.56 
L 245.837085 448.56 
L 245.837085 396.816 
L 244.202605 396.816 
z
" clip-path="url(#pb17270115b)" style="fill: #7f7f7f; opacity: 0.5"/>
   </g>
   <g id="patch_87">
    <path d="M 246.245706 448.56 
L 247.880186 448.56 
L 247.880186 345.072 
L 246.245706 345.072 
z
" clip-path="url(#pb17270115b)" style="fill: #7f7f7f; opacity: 0.5"/>
   </g>
   <g id="patch_88">
    <path d="M 248.288806 448.56 
L 249.923287 448.56 
L 249.923287 267.456 
L 248.288806 267.456 
z
" clip-path="url(#pb17270115b)" style="fill: #7f7f7f; opacity: 0.5"/>
   </g>
   <g id="patch_89">
    <path d="M 250.331907 448.56 
L 251.966388 448.56 
L 251.966388 112.224 
L 250.331907 112.224 
z
" clip-path="url(#pb17270115b)" style="fill: #7f7f7f; opacity: 0.5"/>
   </g>
   <g id="patch_90">
    <path d="M 252.375008 448.56 
L 254.009488 448.56 
L 254.009488 293.328 
L 252.375008 293.328 
z
" clip-path="url(#pb17270115b)" style="fill: #7f7f7f; opacity: 0.5"/>
   </g>
   <g id="patch_91">
    <path d="M 254.418109 448.56 
L 256.052589 448.56 
L 256.052589 241.584 
L 254.418109 241.584 
z
" clip-path="url(#pb17270115b)" style="fill: #7f7f7f; opacity: 0.5"/>
   </g>
   <g id="patch_92">
    <path d="M 256.461209 448.56 
L 258.09569 448.56 
L 258.09569 345.072 
L 256.461209 345.072 
z
" clip-path="url(#pb17270115b)" style="fill: #7f7f7f; opacity: 0.5"/>
   </g>
   <g id="patch_93">
    <path d="M 258.50431 448.56 
L 260.138791 448.56 
L 260.138791 319.2 
L 258.50431 319.2 
z
" clip-path="url(#pb17270115b)" style="fill: #7f7f7f; opacity: 0.5"/>
   </g>
   <g id="patch_94">
    <path d="M 260.547411 448.56 
L 262.181891 448.56 
L 262.181891 370.944 
L 260.547411 370.944 
z
" clip-path="url(#pb17270115b)" style="fill: #7f7f7f; opacity: 0.5"/>
   </g>
   <g id="patch_95">
    <path d="M 262.590512 448.56 
L 264.224992 448.56 
L 264.224992 396.816 
L 262.590512 396.816 
z
" clip-path="url(#pb17270115b)" style="fill: #7f7f7f; opacity: 0.5"/>
   </g>
   <g id="patch_96">
    <path d="M 264.633612 448.56 
L 266.268093 448.56 
L 266.268093 396.816 
L 264.633612 396.816 
z
" clip-path="url(#pb17270115b)" style="fill: #7f7f7f; opacity: 0.5"/>
   </g>
   <g id="patch_97">
    <path d="M 266.676713 448.56 
L 268.311194 448.56 
L 268.311194 448.56 
L 266.676713 448.56 
z
" clip-path="url(#pb17270115b)" style="fill: #7f7f7f; opacity: 0.5"/>
   </g>
   <g id="patch_98">
    <path d="M 268.719814 448.56 
L 270.354294 448.56 
L 270.354294 422.688 
L 268.719814 422.688 
z
" clip-path="url(#pb17270115b)" style="fill: #7f7f7f; opacity: 0.5"/>
   </g>
   <g id="patch_99">
    <path d="M 270.762915 448.56 
L 272.397395 448.56 
L 272.397395 396.816 
L 270.762915 396.816 
z
" clip-path="url(#pb17270115b)" style="fill: #7f7f7f; opacity: 0.5"/>
   </g>
   <g id="patch_100">
    <path d="M 272.806015 448.56 
L 274.440496 448.56 
L 274.440496 370.944 
L 272.806015 370.944 
z
" clip-path="url(#pb17270115b)" style="fill: #7f7f7f; opacity: 0.5"/>
   </g>
   <g id="patch_101">
    <path d="M 274.849116 448.56 
L 276.483597 448.56 
L 276.483597 422.688 
L 274.849116 422.688 
z
" clip-path="url(#pb17270115b)" style="fill: #7f7f7f; opacity: 0.5"/>
   </g>
   <g id="patch_102">
    <path d="M 276.892217 448.56 
L 278.526697 448.56 
L 278.526697 370.944 
L 276.892217 370.944 
z
" clip-path="url(#pb17270115b)" style="fill: #7f7f7f; opacity: 0.5"/>
   </g>
   <g id="patch_103">
    <path d="M 278.935318 448.56 
L 280.569798 448.56 
L 280.569798 396.816 
L 278.935318 396.816 
z
" clip-path="url(#pb17270115b)" style="fill: #7f7f7f; opacity: 0.5"/>
   </g>
   <g id="patch_104">
    <path d="M 280.978418 448.56 
L 282.612899 448.56 
L 282.612899 448.56 
L 280.978418 448.56 
z
" clip-path="url(#pb17270115b)" style="fill: #7f7f7f; opacity: 0.5"/>
   </g>
   <g id="patch_105">
    <path d="M 283.021519 448.56 
L 284.656 448.56 
L 284.656 448.56 
L 283.021519 448.56 
z
" clip-path="url(#pb17270115b)" style="fill: #7f7f7f; opacity: 0.5"/>
   </g>
   <g id="patch_106">
    <path d="M 285.06462 448.56 
L 286.6991 448.56 
L 286.6991 422.688 
L 285.06462 422.688 
z
" clip-path="url(#pb17270115b)" style="fill: #7f7f7f; opacity: 0.5"/>
   </g>
   <g id="patch_107">
    <path d="M 287.10772 448.56 
L 288.742201 448.56 
L 288.742201 396.816 
L 287.10772 396.816 
z
" clip-path="url(#pb17270115b)" style="fill: #7f7f7f; opacity: 0.5"/>
   </g>
   <g id="patch_108">
    <path d="M 289.150821 448.56 
L 290.785302 448.56 
L 290.785302 422.688 
L 289.150821 422.688 
z
" clip-path="url(#pb17270115b)" style="fill: #7f7f7f; opacity: 0.5"/>
   </g>
   <g id="patch_109">
    <path d="M 291.193922 448.56 
L 292.828403 448.56 
L 292.828403 448.56 
L 291.193922 448.56 
z
" clip-path="url(#pb17270115b)" style="fill: #7f7f7f; opacity: 0.5"/>
   </g>
   <g id="patch_110">
    <path d="M 293.237023 448.56 
L 294.871503 448.56 
L 294.871503 422.688 
L 293.237023 422.688 
z
" clip-path="url(#pb17270115b)" style="fill: #7f7f7f; opacity: 0.5"/>
   </g>
   <g id="patch_111">
    <path d="M 295.280123 448.56 
L 296.914604 448.56 
L 296.914604 448.56 
L 295.280123 448.56 
z
" clip-path="url(#pb17270115b)" style="fill: #7f7f7f; opacity: 0.5"/>
   </g>
   <g id="patch_112">
    <path d="M 297.323224 448.56 
L 298.957705 448.56 
L 298.957705 422.688 
L 297.323224 422.688 
z
" clip-path="url(#pb17270115b)" style="fill: #7f7f7f; opacity: 0.5"/>
   </g>
   <g id="patch_113">
    <path d="M 299.366325 448.56 
L 301.000806 448.56 
L 301.000806 448.56 
L 299.366325 448.56 
z
" clip-path="url(#pb17270115b)" style="fill: #7f7f7f; opacity: 0.5"/>
   </g>
   <g id="patch_114">
    <path d="M 301.409426 448.56 
L 303.043906 448.56 
L 303.043906 448.56 
L 301.409426 448.56 
z
" clip-path="url(#pb17270115b)" style="fill: #7f7f7f; opacity: 0.5"/>
   </g>
   <g id="patch_115">
    <path d="M 303.452526 448.56 
L 305.087007 448.56 
L 305.087007 448.56 
L 303.452526 448.56 
z
" clip-path="url(#pb17270115b)" style="fill: #7f7f7f; opacity: 0.5"/>
   </g>
   <g id="patch_116">
    <path d="M 305.495627 448.56 
L 307.130108 448.56 
L 307.130108 422.688 
L 305.495627 422.688 
z
" clip-path="url(#pb17270115b)" style="fill: #7f7f7f; opacity: 0.5"/>
   </g>
   <g id="patch_117">
    <path d="M 307.538728 448.56 
L 309.173208 448.56 
L 309.173208 422.688 
L 307.538728 422.688 
z
" clip-path="url(#pb17270115b)" style="fill: #7f7f7f; opacity: 0.5"/>
   </g>
   <g id="patch_118">
    <path d="M 309.581829 448.56 
L 311.216309 448.56 
L 311.216309 448.56 
L 309.581829 448.56 
z
" clip-path="url(#pb17270115b)" style="fill: #7f7f7f; opacity: 0.5"/>
   </g>
   <g id="patch_119">
    <path d="M 311.624929 448.56 
L 313.25941 448.56 
L 313.25941 448.56 
L 311.624929 448.56 
z
" clip-path="url(#pb17270115b)" style="fill: #7f7f7f; opacity: 0.5"/>
   </g>
   <g id="patch_120">
    <path d="M 313.66803 448.56 
L 315.302511 448.56 
L 315.302511 448.56 
L 313.66803 448.56 
z
" clip-path="url(#pb17270115b)" style="fill: #7f7f7f; opacity: 0.5"/>
   </g>
   <g id="patch_121">
    <path d="M 315.711131 448.56 
L 317.345611 448.56 
L 317.345611 422.688 
L 315.711131 422.688 
z
" clip-path="url(#pb17270115b)" style="fill: #7f7f7f; opacity: 0.5"/>
   </g>
   <g id="patch_122">
    <path d="M 317.754232 448.56 
L 319.388712 448.56 
L 319.388712 448.56 
L 317.754232 448.56 
z
" clip-path="url(#pb17270115b)" style="fill: #7f7f7f; opacity: 0.5"/>
   </g>
   <g id="patch_123">
    <path d="M 319.797332 448.56 
L 321.431813 448.56 
L 321.431813 448.56 
L 319.797332 448.56 
z
" clip-path="url(#pb17270115b)" style="fill: #7f7f7f; opacity: 0.5"/>
   </g>
   <g id="patch_124">
    <path d="M 321.840433 448.56 
L 323.474914 448.56 
L 323.474914 448.56 
L 321.840433 448.56 
z
" clip-path="url(#pb17270115b)" style="fill: #7f7f7f; opacity: 0.5"/>
   </g>
   <g id="patch_125">
    <path d="M 323.883534 448.56 
L 325.518014 448.56 
L 325.518014 448.56 
L 323.883534 448.56 
z
" clip-path="url(#pb17270115b)" style="fill: #7f7f7f; opacity: 0.5"/>
   </g>
   <g id="patch_126">
    <path d="M 325.926635 448.56 
L 327.561115 448.56 
L 327.561115 448.56 
L 325.926635 448.56 
z
" clip-path="url(#pb17270115b)" style="fill: #7f7f7f; opacity: 0.5"/>
   </g>
   <g id="patch_127">
    <path d="M 327.969735 448.56 
L 329.604216 448.56 
L 329.604216 448.56 
L 327.969735 448.56 
z
" clip-path="url(#pb17270115b)" style="fill: #7f7f7f; opacity: 0.5"/>
   </g>
   <g id="patch_128">
    <path d="M 330.012836 448.56 
L 331.647317 448.56 
L 331.647317 448.56 
L 330.012836 448.56 
z
" clip-path="url(#pb17270115b)" style="fill: #7f7f7f; opacity: 0.5"/>
   </g>
   <g id="patch_129">
    <path d="M 332.055937 448.56 
L 333.690417 448.56 
L 333.690417 448.56 
L 332.055937 448.56 
z
" clip-path="url(#pb17270115b)" style="fill: #7f7f7f; opacity: 0.5"/>
   </g>
   <g id="patch_130">
    <path d="M 334.099038 448.56 
L 335.733518 448.56 
L 335.733518 448.56 
L 334.099038 448.56 
z
" clip-path="url(#pb17270115b)" style="fill: #7f7f7f; opacity: 0.5"/>
   </g>
   <g id="patch_131">
    <path d="M 336.142138 448.56 
L 337.776619 448.56 
L 337.776619 422.688 
L 336.142138 422.688 
z
" clip-path="url(#pb17270115b)" style="fill: #7f7f7f; opacity: 0.5"/>
   </g>
   <g id="patch_132">
    <path d="M 338.185239 448.56 
L 339.81972 448.56 
L 339.81972 448.56 
L 338.185239 448.56 
z
" clip-path="url(#pb17270115b)" style="fill: #7f7f7f; opacity: 0.5"/>
   </g>
   <g id="patch_133">
    <path d="M 340.22834 448.56 
L 341.86282 448.56 
L 341.86282 448.56 
L 340.22834 448.56 
z
" clip-path="url(#pb17270115b)" style="fill: #7f7f7f; opacity: 0.5"/>
   </g>
   <g id="patch_134">
    <path d="M 342.271441 448.56 
L 343.905921 448.56 
L 343.905921 448.56 
L 342.271441 448.56 
z
" clip-path="url(#pb17270115b)" style="fill: #7f7f7f; opacity: 0.5"/>
   </g>
   <g id="patch_135">
    <path d="M 344.314541 448.56 
L 345.949022 448.56 
L 345.949022 448.56 
L 344.314541 448.56 
z
" clip-path="url(#pb17270115b)" style="fill: #7f7f7f; opacity: 0.5"/>
   </g>
   <g id="patch_136">
    <path d="M 346.357642 448.56 
L 347.992123 448.56 
L 347.992123 448.56 
L 346.357642 448.56 
z
" clip-path="url(#pb17270115b)" style="fill: #7f7f7f; opacity: 0.5"/>
   </g>
   <g id="patch_137">
    <path d="M 348.400743 448.56 
L 350.035223 448.56 
L 350.035223 448.56 
L 348.400743 448.56 
z
" clip-path="url(#pb17270115b)" style="fill: #7f7f7f; opacity: 0.5"/>
   </g>
   <g id="patch_138">
    <path d="M 350.443843 448.56 
L 352.078324 448.56 
L 352.078324 422.688 
L 350.443843 422.688 
z
" clip-path="url(#pb17270115b)" style="fill: #7f7f7f; opacity: 0.5"/>
   </g>
   <g id="patch_139">
    <path d="M 352.486944 448.56 
L 354.121425 448.56 
L 354.121425 448.56 
L 352.486944 448.56 
z
" clip-path="url(#pb17270115b)" style="fill: #7f7f7f; opacity: 0.5"/>
   </g>
   <g id="patch_140">
    <path d="M 354.530045 448.56 
L 356.164526 448.56 
L 356.164526 448.56 
L 354.530045 448.56 
z
" clip-path="url(#pb17270115b)" style="fill: #7f7f7f; opacity: 0.5"/>
   </g>
   <g id="patch_141">
    <path d="M 356.573146 448.56 
L 358.207626 448.56 
L 358.207626 448.56 
L 356.573146 448.56 
z
" clip-path="url(#pb17270115b)" style="fill: #7f7f7f; opacity: 0.5"/>
   </g>
   <g id="patch_142">
    <path d="M 358.616246 448.56 
L 360.250727 448.56 
L 360.250727 448.56 
L 358.616246 448.56 
z
" clip-path="url(#pb17270115b)" style="fill: #7f7f7f; opacity: 0.5"/>
   </g>
   <g id="patch_143">
    <path d="M 360.659347 448.56 
L 362.293828 448.56 
L 362.293828 448.56 
L 360.659347 448.56 
z
" clip-path="url(#pb17270115b)" style="fill: #7f7f7f; opacity: 0.5"/>
   </g>
   <g id="patch_144">
    <path d="M 362.702448 448.56 
L 364.336929 448.56 
L 364.336929 448.56 
L 362.702448 448.56 
z
" clip-path="url(#pb17270115b)" style="fill: #7f7f7f; opacity: 0.5"/>
   </g>
   <g id="patch_145">
    <path d="M 364.745549 448.56 
L 366.380029 448.56 
L 366.380029 448.56 
L 364.745549 448.56 
z
" clip-path="url(#pb17270115b)" style="fill: #7f7f7f; opacity: 0.5"/>
   </g>
   <g id="patch_146">
    <path d="M 366.788649 448.56 
L 368.42313 448.56 
L 368.42313 448.56 
L 366.788649 448.56 
z
" clip-path="url(#pb17270115b)" style="fill: #7f7f7f; opacity: 0.5"/>
   </g>
   <g id="patch_147">
    <path d="M 368.83175 448.56 
L 370.466231 448.56 
L 370.466231 448.56 
L 368.83175 448.56 
z
" clip-path="url(#pb17270115b)" style="fill: #7f7f7f; opacity: 0.5"/>
   </g>
   <g id="patch_148">
    <path d="M 370.874851 448.56 
L 372.509332 448.56 
L 372.509332 448.56 
L 370.874851 448.56 
z
" clip-path="url(#pb17270115b)" style="fill: #7f7f7f; opacity: 0.5"/>
   </g>
   <g id="patch_149">
    <path d="M 372.917952 448.56 
L 374.552432 448.56 
L 374.552432 448.56 
L 372.917952 448.56 
z
" clip-path="url(#pb17270115b)" style="fill: #7f7f7f; opacity: 0.5"/>
   </g>
   <g id="patch_150">
    <path d="M 374.961052 448.56 
L 376.595533 448.56 
L 376.595533 448.56 
L 374.961052 448.56 
z
" clip-path="url(#pb17270115b)" style="fill: #7f7f7f; opacity: 0.5"/>
   </g>
   <g id="patch_151">
    <path d="M 377.004153 448.56 
L 378.638634 448.56 
L 378.638634 448.56 
L 377.004153 448.56 
z
" clip-path="url(#pb17270115b)" style="fill: #7f7f7f; opacity: 0.5"/>
   </g>
   <g id="patch_152">
    <path d="M 379.047254 448.56 
L 380.681734 448.56 
L 380.681734 448.56 
L 379.047254 448.56 
z
" clip-path="url(#pb17270115b)" style="fill: #7f7f7f; opacity: 0.5"/>
   </g>
   <g id="patch_153">
    <path d="M 381.090355 448.56 
L 382.724835 448.56 
L 382.724835 448.56 
L 381.090355 448.56 
z
" clip-path="url(#pb17270115b)" style="fill: #7f7f7f; opacity: 0.5"/>
   </g>
   <g id="patch_154">
    <path d="M 383.133455 448.56 
L 384.767936 448.56 
L 384.767936 448.56 
L 383.133455 448.56 
z
" clip-path="url(#pb17270115b)" style="fill: #7f7f7f; opacity: 0.5"/>
   </g>
   <g id="patch_155">
    <path d="M 385.176556 448.56 
L 386.811037 448.56 
L 386.811037 448.56 
L 385.176556 448.56 
z
" clip-path="url(#pb17270115b)" style="fill: #7f7f7f; opacity: 0.5"/>
   </g>
   <g id="patch_156">
    <path d="M 387.219657 448.56 
L 388.854137 448.56 
L 388.854137 448.56 
L 387.219657 448.56 
z
" clip-path="url(#pb17270115b)" style="fill: #7f7f7f; opacity: 0.5"/>
   </g>
   <g id="patch_157">
    <path d="M 389.262758 448.56 
L 390.897238 448.56 
L 390.897238 448.56 
L 389.262758 448.56 
z
" clip-path="url(#pb17270115b)" style="fill: #7f7f7f; opacity: 0.5"/>
   </g>
   <g id="patch_158">
    <path d="M 391.305858 448.56 
L 392.940339 448.56 
L 392.940339 448.56 
L 391.305858 448.56 
z
" clip-path="url(#pb17270115b)" style="fill: #7f7f7f; opacity: 0.5"/>
   </g>
   <g id="patch_159">
    <path d="M 393.348959 448.56 
L 394.98344 448.56 
L 394.98344 448.56 
L 393.348959 448.56 
z
" clip-path="url(#pb17270115b)" style="fill: #7f7f7f; opacity: 0.5"/>
   </g>
   <g id="patch_160">
    <path d="M 395.39206 448.56 
L 397.02654 448.56 
L 397.02654 448.56 
L 395.39206 448.56 
z
" clip-path="url(#pb17270115b)" style="fill: #7f7f7f; opacity: 0.5"/>
   </g>
   <g id="patch_161">
    <path d="M 397.435161 448.56 
L 399.069641 448.56 
L 399.069641 448.56 
L 397.435161 448.56 
z
" clip-path="url(#pb17270115b)" style="fill: #7f7f7f; opacity: 0.5"/>
   </g>
   <g id="patch_162">
    <path d="M 399.478261 448.56 
L 401.112742 448.56 
L 401.112742 448.56 
L 399.478261 448.56 
z
" clip-path="url(#pb17270115b)" style="fill: #7f7f7f; opacity: 0.5"/>
   </g>
   <g id="patch_163">
    <path d="M 401.521362 448.56 
L 403.155843 448.56 
L 403.155843 448.56 
L 401.521362 448.56 
z
" clip-path="url(#pb17270115b)" style="fill: #7f7f7f; opacity: 0.5"/>
   </g>
   <g id="patch_164">
    <path d="M 403.564463 448.56 
L 405.198943 448.56 
L 405.198943 448.56 
L 403.564463 448.56 
z
" clip-path="url(#pb17270115b)" style="fill: #7f7f7f; opacity: 0.5"/>
   </g>
   <g id="patch_165">
    <path d="M 405.607564 448.56 
L 407.242044 448.56 
L 407.242044 448.56 
L 405.607564 448.56 
z
" clip-path="url(#pb17270115b)" style="fill: #7f7f7f; opacity: 0.5"/>
   </g>
   <g id="patch_166">
    <path d="M 407.650664 448.56 
L 409.285145 448.56 
L 409.285145 448.56 
L 407.650664 448.56 
z
" clip-path="url(#pb17270115b)" style="fill: #7f7f7f; opacity: 0.5"/>
   </g>
   <g id="patch_167">
    <path d="M 409.693765 448.56 
L 411.328246 448.56 
L 411.328246 448.56 
L 409.693765 448.56 
z
" clip-path="url(#pb17270115b)" style="fill: #7f7f7f; opacity: 0.5"/>
   </g>
   <g id="patch_168">
    <path d="M 411.736866 448.56 
L 413.371346 448.56 
L 413.371346 448.56 
L 411.736866 448.56 
z
" clip-path="url(#pb17270115b)" style="fill: #7f7f7f; opacity: 0.5"/>
   </g>
   <g id="patch_169">
    <path d="M 413.779967 448.56 
L 415.414447 448.56 
L 415.414447 448.56 
L 413.779967 448.56 
z
" clip-path="url(#pb17270115b)" style="fill: #7f7f7f; opacity: 0.5"/>
   </g>
   <g id="patch_170">
    <path d="M 415.823067 448.56 
L 417.457548 448.56 
L 417.457548 448.56 
L 415.823067 448.56 
z
" clip-path="url(#pb17270115b)" style="fill: #7f7f7f; opacity: 0.5"/>
   </g>
   <g id="patch_171">
    <path d="M 417.866168 448.56 
L 419.500649 448.56 
L 419.500649 448.56 
L 417.866168 448.56 
z
" clip-path="url(#pb17270115b)" style="fill: #7f7f7f; opacity: 0.5"/>
   </g>
   <g id="patch_172">
    <path d="M 419.909269 448.56 
L 421.543749 448.56 
L 421.543749 448.56 
L 419.909269 448.56 
z
" clip-path="url(#pb17270115b)" style="fill: #7f7f7f; opacity: 0.5"/>
   </g>
   <g id="patch_173">
    <path d="M 421.952369 448.56 
L 423.58685 448.56 
L 423.58685 448.56 
L 421.952369 448.56 
z
" clip-path="url(#pb17270115b)" style="fill: #7f7f7f; opacity: 0.5"/>
   </g>
   <g id="patch_174">
    <path d="M 423.99547 448.56 
L 425.629951 448.56 
L 425.629951 448.56 
L 423.99547 448.56 
z
" clip-path="url(#pb17270115b)" style="fill: #7f7f7f; opacity: 0.5"/>
   </g>
   <g id="patch_175">
    <path d="M 426.038571 448.56 
L 427.673052 448.56 
L 427.673052 448.56 
L 426.038571 448.56 
z
" clip-path="url(#pb17270115b)" style="fill: #7f7f7f; opacity: 0.5"/>
   </g>
   <g id="patch_176">
    <path d="M 428.081672 448.56 
L 429.716152 448.56 
L 429.716152 448.56 
L 428.081672 448.56 
z
" clip-path="url(#pb17270115b)" style="fill: #7f7f7f; opacity: 0.5"/>
   </g>
   <g id="patch_177">
    <path d="M 430.124772 448.56 
L 431.759253 448.56 
L 431.759253 448.56 
L 430.124772 448.56 
z
" clip-path="url(#pb17270115b)" style="fill: #7f7f7f; opacity: 0.5"/>
   </g>
   <g id="patch_178">
    <path d="M 432.167873 448.56 
L 433.802354 448.56 
L 433.802354 448.56 
L 432.167873 448.56 
z
" clip-path="url(#pb17270115b)" style="fill: #7f7f7f; opacity: 0.5"/>
   </g>
   <g id="patch_179">
    <path d="M 434.210974 448.56 
L 435.845455 448.56 
L 435.845455 448.56 
L 434.210974 448.56 
z
" clip-path="url(#pb17270115b)" style="fill: #7f7f7f; opacity: 0.5"/>
   </g>
   <g id="matplotlib.axis_3">
    <g id="ytick_10">
     <g id="line2d_20">
      <defs>
       <path id="ma139214ea3" d="M 0 0 
L 3.5 0 
" style="stroke: #7f7f7f; stroke-width: 0.8"/>
      </defs>
      <g>
       <use xlink:href="#ma139214ea3" x="453.6" y="448.56" style="fill: #7f7f7f; stroke: #7f7f7f; stroke-width: 0.8"/>
      </g>
     </g>
     <g id="text_20">
      <text style="font-size: 16px; font-family: 'Arial', sans-serif; text-anchor: start; fill: #7f7f7f" x="460.6" y="454.384219" transform="rotate(-0 460.6 454.384219)">0</text>
     </g>
    </g>
    <g id="ytick_11">
     <g id="line2d_21">
      <g>
       <use xlink:href="#ma139214ea3" x="453.6" y="396.816" style="fill: #7f7f7f; stroke: #7f7f7f; stroke-width: 0.8"/>
      </g>
     </g>
     <g id="text_21">
      <text style="font-size: 16px; font-family: 'Arial', sans-serif; text-anchor: start; fill: #7f7f7f" x="460.6" y="402.640219" transform="rotate(-0 460.6 402.640219)">2</text>
     </g>
    </g>
    <g id="ytick_12">
     <g id="line2d_22">
      <g>
       <use xlink:href="#ma139214ea3" x="453.6" y="345.072" style="fill: #7f7f7f; stroke: #7f7f7f; stroke-width: 0.8"/>
      </g>
     </g>
     <g id="text_22">
      <text style="font-size: 16px; font-family: 'Arial', sans-serif; text-anchor: start; fill: #7f7f7f" x="460.6" y="350.896219" transform="rotate(-0 460.6 350.896219)">4</text>
     </g>
    </g>
    <g id="ytick_13">
     <g id="line2d_23">
      <g>
       <use xlink:href="#ma139214ea3" x="453.6" y="293.328" style="fill: #7f7f7f; stroke: #7f7f7f; stroke-width: 0.8"/>
      </g>
     </g>
     <g id="text_23">
      <text style="font-size: 16px; font-family: 'Arial', sans-serif; text-anchor: start; fill: #7f7f7f" x="460.6" y="299.152219" transform="rotate(-0 460.6 299.152219)">6</text>
     </g>
    </g>
    <g id="ytick_14">
     <g id="line2d_24">
      <g>
       <use xlink:href="#ma139214ea3" x="453.6" y="241.584" style="fill: #7f7f7f; stroke: #7f7f7f; stroke-width: 0.8"/>
      </g>
     </g>
     <g id="text_24">
      <text style="font-size: 16px; font-family: 'Arial', sans-serif; text-anchor: start; fill: #7f7f7f" x="460.6" y="247.408219" transform="rotate(-0 460.6 247.408219)">8</text>
     </g>
    </g>
    <g id="ytick_15">
     <g id="line2d_25">
      <g>
       <use xlink:href="#ma139214ea3" x="453.6" y="189.84" style="fill: #7f7f7f; stroke: #7f7f7f; stroke-width: 0.8"/>
      </g>
     </g>
     <g id="text_25">
      <text style="font-size: 16px; font-family: 'Arial', sans-serif; text-anchor: start; fill: #7f7f7f" x="460.6" y="195.664219" transform="rotate(-0 460.6 195.664219)">10</text>
     </g>
    </g>
    <g id="ytick_16">
     <g id="line2d_26">
      <g>
       <use xlink:href="#ma139214ea3" x="453.6" y="138.096" style="fill: #7f7f7f; stroke: #7f7f7f; stroke-width: 0.8"/>
      </g>
     </g>
     <g id="text_26">
      <text style="font-size: 16px; font-family: 'Arial', sans-serif; text-anchor: start; fill: #7f7f7f" x="460.6" y="143.920219" transform="rotate(-0 460.6 143.920219)">12</text>
     </g>
    </g>
    <g id="ytick_17">
     <g id="line2d_27">
      <g>
       <use xlink:href="#ma139214ea3" x="453.6" y="86.352" style="fill: #7f7f7f; stroke: #7f7f7f; stroke-width: 0.8"/>
      </g>
     </g>
     <g id="text_27">
      <text style="font-size: 16px; font-family: 'Arial', sans-serif; text-anchor: start; fill: #7f7f7f" x="460.6" y="92.176219" transform="rotate(-0 460.6 92.176219)">14</text>
     </g>
    </g>
    <g id="text_28">
     <text style="font-size: 16px; font-family: 'Arial', sans-serif; text-anchor: middle; fill: #7f7f7f" x="494.043438" y="254.52" transform="rotate(-90 494.043438 254.52)">Number of cases</text>
    </g>
   </g>
   <g id="patch_180">
    <path d="M 453.6 448.56 
L 453.6 60.48 
" style="fill: none; stroke: #7f7f7f; stroke-width: 0.8; stroke-linejoin: miter; stroke-linecap: square"/>
   </g>
  </g>
 </g>
 <defs>
  <clipPath id="pb17270115b">
   <rect x="63" y="60.48" width="390.6" height="388.08"/>
  </clipPath>
 </defs>
</svg>
