<?xml version="1.0" encoding="utf-8" standalone="no"?>
<!DOCTYPE svg PUBLIC "-//W3C//DTD SVG 1.1//EN"
  "http://www.w3.org/Graphics/SVG/1.1/DTD/svg11.dtd">
<svg xmlns:xlink="http://www.w3.org/1999/xlink" width="504pt" height="504pt" viewBox="0 0 504 504" xmlns="http://www.w3.org/2000/svg" version="1.1">
 <metadata>
  <rdf:RDF xmlns:dc="http://purl.org/dc/elements/1.1/" xmlns:cc="http://creativecommons.org/ns#" xmlns:rdf="http://www.w3.org/1999/02/22-rdf-syntax-ns#">
   <cc:Work>
    <dc:type rdf:resource="http://purl.org/dc/dcmitype/StillImage"/>
    <dc:date>2026-07-01T16:26:19.223148</dc:date>
    <dc:format>image/svg+xml</dc:format>
    <dc:creator>
     <cc:Agent>
      <dc:title>Matplotlib v3.11.0, https://matplotlib.org/</dc:title>
     </cc:Agent>
    </dc:creator>
   </cc:Work>
  </rdf:RDF>
 </metadata>
 <defs>
  <style type="text/css">*{stroke-linejoin: round; stroke-linecap: butt}</style>
 </defs>
 <g id="figure_1">
  <g id="patch_1">
   <path d="M 0 504 
L 504 504 
L 504 0 
L 0 0 
L 0 504 
z
" style="fill: none"/>
  </g>
  <g id="axes_1">
   <g id="patch_2">
    <path d="M 63 448.56 
L 453.6 448.56 
L 453.6 60.48 
L 63 60.48 
L 63 448.56 
z
" style="fill: none"/>
   </g>
   <g id="FillBetweenPolyCollection_1">
    <defs>
     <path id="m74a134f233" d="M 81.431554 -86.24 
L 81.431554 -86.24 
L 83.124075 -55.44 
L 84.816596 -55.44 
L 86.509117 -55.44 
L 88.201638 -55.44 
L 89.894159 -55.44 
L 91.58668 -55.44 
L 93.279201 -86.24 
L 94.971722 -55.44 
L 96.664243 -86.24 
L 98.356764 -55.44 
L 100.049285 -55.44 
L 101.741806 -55.44 
L 103.434327 -55.44 
L 105.126848 -86.24 
L 106.819369 -86.24 
L 108.51189 -117.04 
L 110.204411 -55.44 
L 111.896932 -86.24 
L 113.589453 -55.44 
L 115.281974 -55.44 
L 116.974495 -55.44 
L 118.667016 -55.44 
L 120.359537 -55.44 
L 122.052058 -55.44 
L 123.744579 -55.44 
L 125.4371 -55.44 
L 127.129621 -55.44 
L 128.822142 -86.24 
L 130.514663 -55.44 
L 132.207184 -55.44 
L 133.899705 -147.84 
L 135.592226 -55.44 
L 137.284747 -86.24 
L 138.977268 -55.44 
L 140.669789 -55.44 
L 142.36231 -86.24 
L 144.054831 -117.04 
L 145.747352 -55.44 
L 147.439873 -55.44 
L 149.132394 -55.44 
L 150.824916 -86.24 
L 152.517437 -86.24 
L 154.209958 -86.24 
L 155.902479 -55.44 
L 157.595 -86.24 
L 159.287521 -55.44 
L 160.980042 -117.04 
L 162.672563 -55.44 
L 164.365084 -117.04 
L 166.057605 -55.44 
L 167.750126 -55.44 
L 169.442647 -86.24 
L 171.135168 -55.44 
L 172.827689 -117.04 
L 174.52021 -147.84 
L 176.212731 -117.04 
L 177.905252 -86.24 
L 179.597773 -147.84 
L 181.290294 -117.04 
L 182.982815 -55.44 
L 184.675336 -86.24 
L 186.367857 -147.84 
L 188.060378 -147.84 
L 189.752899 -117.04 
L 191.44542 -117.04 
L 193.137941 -117.04 
L 194.830462 -117.04 
L 196.522983 -117.04 
L 198.215504 -147.84 
L 199.908025 -178.64 
L 201.600546 -117.04 
L 203.293067 -86.24 
L 204.985588 -86.24 
L 206.678109 -117.04 
L 208.37063 -117.04 
L 210.063151 -117.04 
L 211.755672 -117.04 
L 213.448193 -117.04 
L 215.140714 -147.84 
L 216.833235 -147.84 
L 218.525756 -147.84 
L 220.218277 -117.04 
L 221.910798 -86.24 
L 223.603319 -117.04 
L 225.29584 -86.24 
L 226.988361 -86.24 
L 228.680882 -86.24 
L 230.373403 -86.24 
L 232.065924 -117.04 
L 233.758445 -86.24 
L 235.450966 -147.84 
L 237.143487 -55.44 
L 238.836008 -117.04 
L 240.528529 -55.44 
L 242.22105 -86.24 
L 243.913571 -117.04 
L 245.606092 -86.24 
L 247.298613 -86.24 
L 248.991134 -55.44 
L 250.683655 -55.44 
L 252.376176 -86.24 
L 254.068697 -55.44 
L 255.761218 -55.44 
L 257.453739 -86.24 
L 259.146261 -55.44 
L 260.838782 -55.44 
L 262.531303 -55.44 
L 264.223824 -117.04 
L 265.916345 -86.24 
L 267.608866 -55.44 
L 269.301387 -55.44 
L 270.993908 -55.44 
L 272.686429 -55.44 
L 274.37895 -55.44 
L 276.071471 -55.44 
L 277.763992 -55.44 
L 279.456513 -55.44 
L 281.149034 -55.44 
L 282.841555 -55.44 
L 284.534076 -55.44 
L 286.226597 -55.44 
L 287.919118 -55.44 
L 289.611639 -55.44 
L 291.30416 -55.44 
L 292.996681 -55.44 
L 294.689202 -55.44 
L 296.381723 -55.44 
L 298.074244 -55.44 
L 299.766765 -55.44 
L 301.459286 -55.44 
L 303.151807 -55.44 
L 304.844328 -55.44 
L 306.536849 -55.44 
L 308.22937 -55.44 
L 309.921891 -55.44 
L 311.614412 -55.44 
L 313.306933 -55.44 
L 314.999454 -55.44 
L 316.691975 -55.44 
L 318.384496 -55.44 
L 320.077017 -55.44 
L 321.769538 -55.44 
L 323.462059 -55.44 
L 325.15458 -55.44 
L 326.847101 -55.44 
L 328.539622 -55.44 
L 330.232143 -55.44 
L 331.924664 -55.44 
L 333.617185 -55.44 
L 335.309706 -55.44 
L 337.002227 -55.44 
L 338.694748 -55.44 
L 340.387269 -55.44 
L 342.07979 -55.44 
L 343.772311 -55.44 
L 345.464832 -55.44 
L 347.157353 -55.44 
L 348.849874 -55.44 
L 350.542395 -55.44 
L 352.234916 -55.44 
L 353.927437 -55.44 
L 355.619958 -55.44 
L 357.312479 -55.44 
L 359.005 -55.44 
L 360.697521 -55.44 
L 362.390042 -55.44 
L 364.082563 -55.44 
L 365.775084 -55.44 
L 367.467606 -55.44 
L 369.160127 -55.44 
L 370.852648 -55.44 
L 372.545169 -55.44 
L 374.23769 -55.44 
L 375.930211 -55.44 
L 377.622732 -55.44 
L 379.315253 -55.44 
L 381.007774 -55.44 
L 382.700295 -55.44 
L 384.392816 -55.44 
L 386.085337 -55.44 
L 387.777858 -55.44 
L 389.470379 -55.44 
L 391.1629 -55.44 
L 392.855421 -55.44 
L 394.547942 -55.44 
L 396.240463 -55.44 
L 397.932984 -55.44 
L 399.625505 -55.44 
L 401.318026 -55.44 
L 403.010547 -55.44 
L 404.703068 -55.44 
L 406.395589 -55.44 
L 408.08811 -55.44 
L 409.780631 -55.44 
L 411.473152 -55.44 
L 413.165673 -55.44 
L 414.858194 -55.44 
L 416.550715 -55.44 
L 418.243236 -55.44 
L 419.935757 -55.44 
L 421.628278 -55.44 
L 423.320799 -55.44 
L 425.01332 -55.44 
L 426.705841 -55.44 
L 428.398362 -55.44 
L 430.090883 -55.44 
L 431.783404 -55.44 
L 433.475925 -55.44 
L 435.168446 -55.44 
L 435.168446 -55.44 
L 435.168446 -55.44 
L 433.475925 -55.44 
L 431.783404 -55.44 
L 430.090883 -55.44 
L 428.398362 -55.44 
L 426.705841 -55.44 
L 425.01332 -55.44 
L 423.320799 -55.44 
L 421.628278 -55.44 
L 419.935757 -55.44 
L 418.243236 -55.44 
L 416.550715 -55.44 
L 414.858194 -55.44 
L 413.165673 -55.44 
L 411.473152 -55.44 
L 409.780631 -55.44 
L 408.08811 -55.44 
L 406.395589 -55.44 
L 404.703068 -55.44 
L 403.010547 -55.44 
L 401.318026 -55.44 
L 399.625505 -55.44 
L 397.932984 -55.44 
L 396.240463 -55.44 
L 394.547942 -55.44 
L 392.855421 -55.44 
L 391.1629 -55.44 
L 389.470379 -55.44 
L 387.777858 -55.44 
L 386.085337 -55.44 
L 384.392816 -55.44 
L 382.700295 -55.44 
L 381.007774 -55.44 
L 379.315253 -55.44 
L 377.622732 -55.44 
L 375.930211 -55.44 
L 374.23769 -55.44 
L 372.545169 -55.44 
L 370.852648 -55.44 
L 369.160127 -55.44 
L 367.467606 -55.44 
L 365.775084 -55.44 
L 364.082563 -55.44 
L 362.390042 -55.44 
L 360.697521 -55.44 
L 359.005 -55.44 
L 357.312479 -55.44 
L 355.619958 -55.44 
L 353.927437 -55.44 
L 352.234916 -55.44 
L 350.542395 -55.44 
L 348.849874 -55.44 
L 347.157353 -55.44 
L 345.464832 -55.44 
L 343.772311 -55.44 
L 342.07979 -55.44 
L 340.387269 -55.44 
L 338.694748 -55.44 
L 337.002227 -55.44 
L 335.309706 -55.44 
L 333.617185 -55.44 
L 331.924664 -55.44 
L 330.232143 -55.44 
L 328.539622 -55.44 
L 326.847101 -55.44 
L 325.15458 -55.44 
L 323.462059 -55.44 
L 321.769538 -55.44 
L 320.077017 -55.44 
L 318.384496 -55.44 
L 316.691975 -55.44 
L 314.999454 -55.44 
L 313.306933 -55.44 
L 311.614412 -55.44 
L 309.921891 -55.44 
L 308.22937 -55.44 
L 306.536849 -55.44 
L 304.844328 -86.24 
L 303.151807 -55.44 
L 301.459286 -55.44 
L 299.766765 -86.24 
L 298.074244 -86.24 
L 296.381723 -86.24 
L 294.689202 -86.24 
L 292.996681 -86.24 
L 291.30416 -86.24 
L 289.611639 -86.24 
L 287.919118 -86.24 
L 286.226597 -86.24 
L 284.534076 -86.24 
L 282.841555 -86.24 
L 281.149034 -86.24 
L 279.456513 -86.24 
L 277.763992 -86.24 
L 276.071471 -86.24 
L 274.37895 -86.24 
L 272.686429 -86.24 
L 270.993908 -117.04 
L 269.301387 -117.04 
L 267.608866 -117.04 
L 265.916345 -147.84 
L 264.223824 -178.64 
L 262.531303 -117.04 
L 260.838782 -117.04 
L 259.146261 -117.04 
L 257.453739 -178.64 
L 255.761218 -147.84 
L 254.068697 -147.84 
L 252.376176 -178.64 
L 250.683655 -147.84 
L 248.991134 -147.84 
L 247.298613 -209.44 
L 245.606092 -209.44 
L 243.913571 -240.24 
L 242.22105 -209.44 
L 240.528529 -209.44 
L 238.836008 -271.04 
L 237.143487 -209.44 
L 235.450966 -301.84 
L 233.758445 -240.24 
L 232.065924 -271.04 
L 230.373403 -271.04 
L 228.680882 -271.04 
L 226.988361 -271.04 
L 225.29584 -271.04 
L 223.603319 -301.84 
L 221.910798 -301.84 
L 220.218277 -332.64 
L 218.525756 -394.24 
L 216.833235 -394.24 
L 215.140714 -363.44 
L 213.448193 -363.44 
L 211.755672 -332.64 
L 210.063151 -363.44 
L 208.37063 -332.64 
L 206.678109 -332.64 
L 204.985588 -301.84 
L 203.293067 -302.61 
L 201.600546 -333.41 
L 199.908025 -425.04 
L 198.215504 -394.24 
L 196.522983 -363.44 
L 194.830462 -363.44 
L 193.137941 -332.64 
L 191.44542 -363.44 
L 189.752899 -332.64 
L 188.060378 -363.44 
L 186.367857 -363.44 
L 184.675336 -271.04 
L 182.982815 -240.24 
L 181.290294 -301.84 
L 179.597773 -332.64 
L 177.905252 -271.04 
L 176.212731 -301.84 
L 174.52021 -332.64 
L 172.827689 -271.04 
L 171.135168 -209.44 
L 169.442647 -240.24 
L 167.750126 -209.44 
L 166.057605 -178.64 
L 164.365084 -271.04 
L 162.672563 -178.64 
L 160.980042 -240.24 
L 159.287521 -178.64 
L 157.595 -209.44 
L 155.902479 -178.64 
L 154.209958 -209.44 
L 152.517437 -209.44 
L 150.824916 -209.44 
L 149.132394 -178.64 
L 147.439873 -178.64 
L 145.747352 -147.84 
L 144.054831 -209.44 
L 142.36231 -178.64 
L 140.669789 -147.84 
L 138.977268 -147.84 
L 137.284747 -178.64 
L 135.592226 -147.84 
L 133.899705 -240.24 
L 132.207184 -147.84 
L 130.514663 -147.84 
L 128.822142 -178.64 
L 127.129621 -147.84 
L 125.4371 -147.84 
L 123.744579 -147.84 
L 122.052058 -147.84 
L 120.359537 -147.84 
L 118.667016 -147.84 
L 116.974495 -147.84 
L 115.281974 -147.84 
L 113.589453 -117.04 
L 111.896932 -147.84 
L 110.204411 -117.04 
L 108.51189 -178.64 
L 106.819369 -147.84 
L 105.126848 -147.84 
L 103.434327 -86.24 
L 101.741806 -86.24 
L 100.049285 -86.24 
L 98.356764 -86.24 
L 96.664243 -117.04 
L 94.971722 -86.24 
L 93.279201 -117.04 
L 91.58668 -86.24 
L 89.894159 -86.24 
L 88.201638 -86.24 
L 86.509117 -55.44 
L 84.816596 -55.44 
L 83.124075 -55.44 
L 81.431554 -86.24 
z
" style="stroke: #0173b2; stroke-opacity: 0.3"/>
    </defs>
    <g clip-path="url(#pc18190ee0b)">
     <use xlink:href="#m74a134f233" x="0" y="504" style="fill: #0173b2; fill-opacity: 0.3; stroke: #0173b2; stroke-opacity: 0.3"/>
    </g>
   </g>
   <g id="matplotlib.axis_1">
    <g id="xtick_1">
     <g id="line2d_1">
      <defs>
       <path id="mdb48e50830" d="M 0 0 
L 0 3.5 
" style="stroke: #000000; stroke-width: 0.8"/>
      </defs>
      <g>
       <use xlink:href="#mdb48e50830" x="81.431554" y="448.56" style="stroke: #000000; stroke-width: 0.8"/>
      </g>
     </g>
     <g id="text_1">
      <text style="font-size: 16px; font-family: 'Arial', sans-serif; text-anchor: middle" x="81.431554" y="467.208438" transform="rotate(-0 81.431554 467.208438)">0</text>
     </g>
    </g>
    <g id="xtick_2">
     <g id="line2d_2">
      <g>
       <use xlink:href="#mdb48e50830" x="166.057605" y="448.56" style="stroke: #000000; stroke-width: 0.8"/>
      </g>
     </g>
     <g id="text_2">
      <text style="font-size: 16px; font-family: 'Arial', sans-serif; text-anchor: middle" x="166.057605" y="467.208438" transform="rotate(-0 166.057605 467.208438)">50</text>
     </g>
    </g>
    <g id="xtick_3">
     <g id="line2d_3">
      <g>
       <use xlink:href="#mdb48e50830" x="250.683655" y="448.56" style="stroke: #000000; stroke-width: 0.8"/>
      </g>
     </g>
     <g id="text_3">
      <text style="font-size: 16px; font-family: 'Arial', sans-serif; text-anchor: middle" x="250.683655" y="467.208438" transform="rotate(-0 250.683655 467.208438)">100</text>
     </g>
    </g>
    <g id="xtick_4">
     <g id="line2d_4">
      <g>
       <use xlink:href="#mdb48e50830" x="335.309706" y="448.56" style="stroke: #000000; stroke-width: 0.8"/>
      </g>
     </g>
     <g id="text_4">
      <text style="font-size: 16px; font-family: 'Arial', sans-serif; text-anchor: middle" x="335.309706" y="467.208438" transform="rotate(-0 335.309706 467.208438)">150</text>
     </g>
    </g>
    <g id="xtick_5">
     <g id="line2d_5">
      <g>
       <use xlink:href="#mdb48e50830" x="419.935757" y="448.56" style="stroke: #000000; stroke-width: 0.8"/>
      </g>
     </g>
     <g id="text_5">
      <text style="font-size: 16px; font-family: 'Arial', sans-serif; text-anchor: middle" x="419.935757" y="467.208438" transform="rotate(-0 419.935757 467.208438)">200</text>
     </g>
    </g>
    <g id="text_6">
     <text style="font-size: 16px; font-family: 'Arial', sans-serif; text-anchor: middle" x="258.3" y="486.224063" transform="rotate(-0 258.3 486.224063)">Day of outbreak</text>
    </g>
   </g>
   <g id="matplotlib.axis_2">
    <g id="ytick_1">
     <g id="line2d_6">
      <defs>
       <path id="mbb641c39df" d="M 0 0 
L -3.5 0 
" style="stroke: #000000; stroke-width: 0.8"/>
      </defs>
      <g>
       <use xlink:href="#mbb641c39df" x="63" y="448.56" style="stroke: #000000; stroke-width: 0.8"/>
      </g>
     </g>
     <g id="text_7">
      <text style="font-size: 16px; font-family: 'Arial', sans-serif; text-anchor: end" x="56" y="454.384219" transform="rotate(-0 56 454.384219)">0</text>
     </g>
    </g>
    <g id="ytick_2">
     <g id="line2d_7">
      <g>
       <use xlink:href="#mbb641c39df" x="63" y="386.96" style="stroke: #000000; stroke-width: 0.8"/>
      </g>
     </g>
     <g id="text_8">
      <text style="font-size: 16px; font-family: 'Arial', sans-serif; text-anchor: end" x="56" y="392.784219" transform="rotate(-0 56 392.784219)">2</text>
     </g>
    </g>
    <g id="ytick_3">
     <g id="line2d_8">
      <g>
       <use xlink:href="#mbb641c39df" x="63" y="325.36" style="stroke: #000000; stroke-width: 0.8"/>
      </g>
     </g>
     <g id="text_9">
      <text style="font-size: 16px; font-family: 'Arial', sans-serif; text-anchor: end" x="56" y="331.184219" transform="rotate(-0 56 331.184219)">4</text>
     </g>
    </g>
    <g id="ytick_4">
     <g id="line2d_9">
      <g>
       <use xlink:href="#mbb641c39df" x="63" y="263.76" style="stroke: #000000; stroke-width: 0.8"/>
      </g>
     </g>
     <g id="text_10">
      <text style="font-size: 16px; font-family: 'Arial', sans-serif; text-anchor: end" x="56" y="269.584219" transform="rotate(-0 56 269.584219)">6</text>
     </g>
    </g>
    <g id="ytick_5">
     <g id="line2d_10">
      <g>
       <use xlink:href="#mbb641c39df" x="63" y="202.16" style="stroke: #000000; stroke-width: 0.8"/>
      </g>
     </g>
     <g id="text_11">
      <text style="font-size: 16px; font-family: 'Arial', sans-serif; text-anchor: end" x="56" y="207.984219" transform="rotate(-0 56 207.984219)">8</text>
     </g>
    </g>
    <g id="ytick_6">
     <g id="line2d_11">
      <g>
       <use xlink:href="#mbb641c39df" x="63" y="140.56" style="stroke: #000000; stroke-width: 0.8"/>
      </g>
     </g>
     <g id="text_12">
      <text style="font-size: 16px; font-family: 'Arial', sans-serif; text-anchor: end" x="56" y="146.384219" transform="rotate(-0 56 146.384219)">10</text>
     </g>
    </g>
    <g id="ytick_7">
     <g id="line2d_12">
      <g>
       <use xlink:href="#mbb641c39df" x="63" y="78.96" style="stroke: #000000; stroke-width: 0.8"/>
      </g>
     </g>
     <g id="text_13">
      <text style="font-size: 16px; font-family: 'Arial', sans-serif; text-anchor: end" x="56" y="84.784219" transform="rotate(-0 56 84.784219)">12</text>
     </g>
    </g>
    <g id="text_14">
     <text style="font-size: 16px; font-family: 'Arial', sans-serif; text-anchor: middle" x="30.8375" y="254.52" transform="rotate(-90 30.8375 254.52)">Cases per day</text>
    </g>
   </g>
   <g id="patch_3">
    <path d="M 80.754545 448.56 
L 82.108562 448.56 
L 82.108562 417.76 
L 80.754545 417.76 
z
" clip-path="url(#pc18190ee0b)" style="fill: #7f7f7f"/>
   </g>
   <g id="patch_4">
    <path d="M 82.447066 448.56 
L 83.801083 448.56 
L 83.801083 448.56 
L 82.447066 448.56 
z
" clip-path="url(#pc18190ee0b)" style="fill: #7f7f7f"/>
   </g>
   <g id="patch_5">
    <path d="M 84.139587 448.56 
L 85.493604 448.56 
L 85.493604 448.56 
L 84.139587 448.56 
z
" clip-path="url(#pc18190ee0b)" style="fill: #7f7f7f"/>
   </g>
   <g id="patch_6">
    <path d="M 85.832109 448.56 
L 87.186125 448.56 
L 87.186125 448.56 
L 85.832109 448.56 
z
" clip-path="url(#pc18190ee0b)" style="fill: #7f7f7f"/>
   </g>
   <g id="patch_7">
    <path d="M 87.52463 448.56 
L 88.878646 448.56 
L 88.878646 448.56 
L 87.52463 448.56 
z
" clip-path="url(#pc18190ee0b)" style="fill: #7f7f7f"/>
   </g>
   <g id="patch_8">
    <path d="M 89.217151 448.56 
L 90.571167 448.56 
L 90.571167 448.56 
L 89.217151 448.56 
z
" clip-path="url(#pc18190ee0b)" style="fill: #7f7f7f"/>
   </g>
   <g id="patch_9">
    <path d="M 90.909672 448.56 
L 92.263688 448.56 
L 92.263688 448.56 
L 90.909672 448.56 
z
" clip-path="url(#pc18190ee0b)" style="fill: #7f7f7f"/>
   </g>
   <g id="patch_10">
    <path d="M 92.602193 448.56 
L 93.956209 448.56 
L 93.956209 417.76 
L 92.602193 417.76 
z
" clip-path="url(#pc18190ee0b)" style="fill: #7f7f7f"/>
   </g>
   <g id="patch_11">
    <path d="M 94.294714 448.56 
L 95.64873 448.56 
L 95.64873 448.56 
L 94.294714 448.56 
z
" clip-path="url(#pc18190ee0b)" style="fill: #7f7f7f"/>
   </g>
   <g id="patch_12">
    <path d="M 95.987235 448.56 
L 97.341251 448.56 
L 97.341251 417.76 
L 95.987235 417.76 
z
" clip-path="url(#pc18190ee0b)" style="fill: #7f7f7f"/>
   </g>
   <g id="patch_13">
    <path d="M 97.679756 448.56 
L 99.033772 448.56 
L 99.033772 448.56 
L 97.679756 448.56 
z
" clip-path="url(#pc18190ee0b)" style="fill: #7f7f7f"/>
   </g>
   <g id="patch_14">
    <path d="M 99.372277 448.56 
L 100.726293 448.56 
L 100.726293 448.56 
L 99.372277 448.56 
z
" clip-path="url(#pc18190ee0b)" style="fill: #7f7f7f"/>
   </g>
   <g id="patch_15">
    <path d="M 101.064798 448.56 
L 102.418814 448.56 
L 102.418814 448.56 
L 101.064798 448.56 
z
" clip-path="url(#pc18190ee0b)" style="fill: #7f7f7f"/>
   </g>
   <g id="patch_16">
    <path d="M 102.757319 448.56 
L 104.111335 448.56 
L 104.111335 448.56 
L 102.757319 448.56 
z
" clip-path="url(#pc18190ee0b)" style="fill: #7f7f7f"/>
   </g>
   <g id="patch_17">
    <path d="M 104.44984 448.56 
L 105.803856 448.56 
L 105.803856 417.76 
L 104.44984 417.76 
z
" clip-path="url(#pc18190ee0b)" style="fill: #7f7f7f"/>
   </g>
   <g id="patch_18">
    <path d="M 106.142361 448.56 
L 107.496378 448.56 
L 107.496378 417.76 
L 106.142361 417.76 
z
" clip-path="url(#pc18190ee0b)" style="fill: #7f7f7f"/>
   </g>
   <g id="patch_19">
    <path d="M 107.834882 448.56 
L 109.188899 448.56 
L 109.188899 386.96 
L 107.834882 386.96 
z
" clip-path="url(#pc18190ee0b)" style="fill: #7f7f7f"/>
   </g>
   <g id="patch_20">
    <path d="M 109.527403 448.56 
L 110.88142 448.56 
L 110.88142 448.56 
L 109.527403 448.56 
z
" clip-path="url(#pc18190ee0b)" style="fill: #7f7f7f"/>
   </g>
   <g id="patch_21">
    <path d="M 111.219924 448.56 
L 112.573941 448.56 
L 112.573941 417.76 
L 111.219924 417.76 
z
" clip-path="url(#pc18190ee0b)" style="fill: #7f7f7f"/>
   </g>
   <g id="patch_22">
    <path d="M 112.912445 448.56 
L 114.266462 448.56 
L 114.266462 448.56 
L 112.912445 448.56 
z
" clip-path="url(#pc18190ee0b)" style="fill: #7f7f7f"/>
   </g>
   <g id="patch_23">
    <path d="M 114.604966 448.56 
L 115.958983 448.56 
L 115.958983 448.56 
L 114.604966 448.56 
z
" clip-path="url(#pc18190ee0b)" style="fill: #7f7f7f"/>
   </g>
   <g id="patch_24">
    <path d="M 116.297487 448.56 
L 117.651504 448.56 
L 117.651504 448.56 
L 116.297487 448.56 
z
" clip-path="url(#pc18190ee0b)" style="fill: #7f7f7f"/>
   </g>
   <g id="patch_25">
    <path d="M 117.990008 448.56 
L 119.344025 448.56 
L 119.344025 448.56 
L 117.990008 448.56 
z
" clip-path="url(#pc18190ee0b)" style="fill: #7f7f7f"/>
   </g>
   <g id="patch_26">
    <path d="M 119.682529 448.56 
L 121.036546 448.56 
L 121.036546 448.56 
L 119.682529 448.56 
z
" clip-path="url(#pc18190ee0b)" style="fill: #7f7f7f"/>
   </g>
   <g id="patch_27">
    <path d="M 121.37505 448.56 
L 122.729067 448.56 
L 122.729067 448.56 
L 121.37505 448.56 
z
" clip-path="url(#pc18190ee0b)" style="fill: #7f7f7f"/>
   </g>
   <g id="patch_28">
    <path d="M 123.067571 448.56 
L 124.421588 448.56 
L 124.421588 448.56 
L 123.067571 448.56 
z
" clip-path="url(#pc18190ee0b)" style="fill: #7f7f7f"/>
   </g>
   <g id="patch_29">
    <path d="M 124.760092 448.56 
L 126.114109 448.56 
L 126.114109 448.56 
L 124.760092 448.56 
z
" clip-path="url(#pc18190ee0b)" style="fill: #7f7f7f"/>
   </g>
   <g id="patch_30">
    <path d="M 126.452613 448.56 
L 127.80663 448.56 
L 127.80663 448.56 
L 126.452613 448.56 
z
" clip-path="url(#pc18190ee0b)" style="fill: #7f7f7f"/>
   </g>
   <g id="patch_31">
    <path d="M 128.145134 448.56 
L 129.499151 448.56 
L 129.499151 417.76 
L 128.145134 417.76 
z
" clip-path="url(#pc18190ee0b)" style="fill: #7f7f7f"/>
   </g>
   <g id="patch_32">
    <path d="M 129.837655 448.56 
L 131.191672 448.56 
L 131.191672 448.56 
L 129.837655 448.56 
z
" clip-path="url(#pc18190ee0b)" style="fill: #7f7f7f"/>
   </g>
   <g id="patch_33">
    <path d="M 131.530176 448.56 
L 132.884193 448.56 
L 132.884193 448.56 
L 131.530176 448.56 
z
" clip-path="url(#pc18190ee0b)" style="fill: #7f7f7f"/>
   </g>
   <g id="patch_34">
    <path d="M 133.222697 448.56 
L 134.576714 448.56 
L 134.576714 356.16 
L 133.222697 356.16 
z
" clip-path="url(#pc18190ee0b)" style="fill: #7f7f7f"/>
   </g>
   <g id="patch_35">
    <path d="M 134.915218 448.56 
L 136.269235 448.56 
L 136.269235 448.56 
L 134.915218 448.56 
z
" clip-path="url(#pc18190ee0b)" style="fill: #7f7f7f"/>
   </g>
   <g id="patch_36">
    <path d="M 136.607739 448.56 
L 137.961756 448.56 
L 137.961756 417.76 
L 136.607739 417.76 
z
" clip-path="url(#pc18190ee0b)" style="fill: #7f7f7f"/>
   </g>
   <g id="patch_37">
    <path d="M 138.30026 448.56 
L 139.654277 448.56 
L 139.654277 448.56 
L 138.30026 448.56 
z
" clip-path="url(#pc18190ee0b)" style="fill: #7f7f7f"/>
   </g>
   <g id="patch_38">
    <path d="M 139.992781 448.56 
L 141.346798 448.56 
L 141.346798 448.56 
L 139.992781 448.56 
z
" clip-path="url(#pc18190ee0b)" style="fill: #7f7f7f"/>
   </g>
   <g id="patch_39">
    <path d="M 141.685302 448.56 
L 143.039319 448.56 
L 143.039319 417.76 
L 141.685302 417.76 
z
" clip-path="url(#pc18190ee0b)" style="fill: #7f7f7f"/>
   </g>
   <g id="patch_40">
    <path d="M 143.377823 448.56 
L 144.73184 448.56 
L 144.73184 386.96 
L 143.377823 386.96 
z
" clip-path="url(#pc18190ee0b)" style="fill: #7f7f7f"/>
   </g>
   <g id="patch_41">
    <path d="M 145.070344 448.56 
L 146.424361 448.56 
L 146.424361 448.56 
L 145.070344 448.56 
z
" clip-path="url(#pc18190ee0b)" style="fill: #7f7f7f"/>
   </g>
   <g id="patch_42">
    <path d="M 146.762865 448.56 
L 148.116882 448.56 
L 148.116882 448.56 
L 146.762865 448.56 
z
" clip-path="url(#pc18190ee0b)" style="fill: #7f7f7f"/>
   </g>
   <g id="patch_43">
    <path d="M 148.455386 448.56 
L 149.809403 448.56 
L 149.809403 448.56 
L 148.455386 448.56 
z
" clip-path="url(#pc18190ee0b)" style="fill: #7f7f7f"/>
   </g>
   <g id="patch_44">
    <path d="M 150.147907 448.56 
L 151.501924 448.56 
L 151.501924 417.76 
L 150.147907 417.76 
z
" clip-path="url(#pc18190ee0b)" style="fill: #7f7f7f"/>
   </g>
   <g id="patch_45">
    <path d="M 151.840428 448.56 
L 153.194445 448.56 
L 153.194445 417.76 
L 151.840428 417.76 
z
" clip-path="url(#pc18190ee0b)" style="fill: #7f7f7f"/>
   </g>
   <g id="patch_46">
    <path d="M 153.532949 448.56 
L 154.886966 448.56 
L 154.886966 417.76 
L 153.532949 417.76 
z
" clip-path="url(#pc18190ee0b)" style="fill: #7f7f7f"/>
   </g>
   <g id="patch_47">
    <path d="M 155.22547 448.56 
L 156.579487 448.56 
L 156.579487 448.56 
L 155.22547 448.56 
z
" clip-path="url(#pc18190ee0b)" style="fill: #7f7f7f"/>
   </g>
   <g id="patch_48">
    <path d="M 156.917991 448.56 
L 158.272008 448.56 
L 158.272008 417.76 
L 156.917991 417.76 
z
" clip-path="url(#pc18190ee0b)" style="fill: #7f7f7f"/>
   </g>
   <g id="patch_49">
    <path d="M 158.610512 448.56 
L 159.964529 448.56 
L 159.964529 448.56 
L 158.610512 448.56 
z
" clip-path="url(#pc18190ee0b)" style="fill: #7f7f7f"/>
   </g>
   <g id="patch_50">
    <path d="M 160.303033 448.56 
L 161.65705 448.56 
L 161.65705 386.96 
L 160.303033 386.96 
z
" clip-path="url(#pc18190ee0b)" style="fill: #7f7f7f"/>
   </g>
   <g id="patch_51">
    <path d="M 161.995554 448.56 
L 163.349571 448.56 
L 163.349571 448.56 
L 161.995554 448.56 
z
" clip-path="url(#pc18190ee0b)" style="fill: #7f7f7f"/>
   </g>
   <g id="patch_52">
    <path d="M 163.688075 448.56 
L 165.042092 448.56 
L 165.042092 386.96 
L 163.688075 386.96 
z
" clip-path="url(#pc18190ee0b)" style="fill: #7f7f7f"/>
   </g>
   <g id="patch_53">
    <path d="M 165.380596 448.56 
L 166.734613 448.56 
L 166.734613 448.56 
L 165.380596 448.56 
z
" clip-path="url(#pc18190ee0b)" style="fill: #7f7f7f"/>
   </g>
   <g id="patch_54">
    <path d="M 167.073117 448.56 
L 168.427134 448.56 
L 168.427134 448.56 
L 167.073117 448.56 
z
" clip-path="url(#pc18190ee0b)" style="fill: #7f7f7f"/>
   </g>
   <g id="patch_55">
    <path d="M 168.765638 448.56 
L 170.119655 448.56 
L 170.119655 417.76 
L 168.765638 417.76 
z
" clip-path="url(#pc18190ee0b)" style="fill: #7f7f7f"/>
   </g>
   <g id="patch_56">
    <path d="M 170.458159 448.56 
L 171.812176 448.56 
L 171.812176 448.56 
L 170.458159 448.56 
z
" clip-path="url(#pc18190ee0b)" style="fill: #7f7f7f"/>
   </g>
   <g id="patch_57">
    <path d="M 172.15068 448.56 
L 173.504697 448.56 
L 173.504697 386.96 
L 172.15068 386.96 
z
" clip-path="url(#pc18190ee0b)" style="fill: #7f7f7f"/>
   </g>
   <g id="patch_58">
    <path d="M 173.843201 448.56 
L 175.197218 448.56 
L 175.197218 356.16 
L 173.843201 356.16 
z
" clip-path="url(#pc18190ee0b)" style="fill: #7f7f7f"/>
   </g>
   <g id="patch_59">
    <path d="M 175.535722 448.56 
L 176.889739 448.56 
L 176.889739 386.96 
L 175.535722 386.96 
z
" clip-path="url(#pc18190ee0b)" style="fill: #7f7f7f"/>
   </g>
   <g id="patch_60">
    <path d="M 177.228243 448.56 
L 178.58226 448.56 
L 178.58226 417.76 
L 177.228243 417.76 
z
" clip-path="url(#pc18190ee0b)" style="fill: #7f7f7f"/>
   </g>
   <g id="patch_61">
    <path d="M 178.920764 448.56 
L 180.274781 448.56 
L 180.274781 356.16 
L 178.920764 356.16 
z
" clip-path="url(#pc18190ee0b)" style="fill: #7f7f7f"/>
   </g>
   <g id="patch_62">
    <path d="M 180.613285 448.56 
L 181.967302 448.56 
L 181.967302 386.96 
L 180.613285 386.96 
z
" clip-path="url(#pc18190ee0b)" style="fill: #7f7f7f"/>
   </g>
   <g id="patch_63">
    <path d="M 182.305806 448.56 
L 183.659823 448.56 
L 183.659823 448.56 
L 182.305806 448.56 
z
" clip-path="url(#pc18190ee0b)" style="fill: #7f7f7f"/>
   </g>
   <g id="patch_64">
    <path d="M 183.998327 448.56 
L 185.352344 448.56 
L 185.352344 417.76 
L 183.998327 417.76 
z
" clip-path="url(#pc18190ee0b)" style="fill: #7f7f7f"/>
   </g>
   <g id="patch_65">
    <path d="M 185.690848 448.56 
L 187.044865 448.56 
L 187.044865 356.16 
L 185.690848 356.16 
z
" clip-path="url(#pc18190ee0b)" style="fill: #7f7f7f"/>
   </g>
   <g id="patch_66">
    <path d="M 187.383369 448.56 
L 188.737386 448.56 
L 188.737386 356.16 
L 187.383369 356.16 
z
" clip-path="url(#pc18190ee0b)" style="fill: #7f7f7f"/>
   </g>
   <g id="patch_67">
    <path d="M 189.07589 448.56 
L 190.429907 448.56 
L 190.429907 386.96 
L 189.07589 386.96 
z
" clip-path="url(#pc18190ee0b)" style="fill: #7f7f7f"/>
   </g>
   <g id="patch_68">
    <path d="M 190.768411 448.56 
L 192.122428 448.56 
L 192.122428 386.96 
L 190.768411 386.96 
z
" clip-path="url(#pc18190ee0b)" style="fill: #7f7f7f"/>
   </g>
   <g id="patch_69">
    <path d="M 192.460932 448.56 
L 193.814949 448.56 
L 193.814949 386.96 
L 192.460932 386.96 
z
" clip-path="url(#pc18190ee0b)" style="fill: #7f7f7f"/>
   </g>
   <g id="patch_70">
    <path d="M 194.153454 448.56 
L 195.50747 448.56 
L 195.50747 386.96 
L 194.153454 386.96 
z
" clip-path="url(#pc18190ee0b)" style="fill: #7f7f7f"/>
   </g>
   <g id="patch_71">
    <path d="M 195.845975 448.56 
L 197.199991 448.56 
L 197.199991 386.96 
L 195.845975 386.96 
z
" clip-path="url(#pc18190ee0b)" style="fill: #7f7f7f"/>
   </g>
   <g id="patch_72">
    <path d="M 197.538496 448.56 
L 198.892512 448.56 
L 198.892512 356.16 
L 197.538496 356.16 
z
" clip-path="url(#pc18190ee0b)" style="fill: #7f7f7f"/>
   </g>
   <g id="patch_73">
    <path d="M 199.231017 448.56 
L 200.585033 448.56 
L 200.585033 325.36 
L 199.231017 325.36 
z
" clip-path="url(#pc18190ee0b)" style="fill: #7f7f7f"/>
   </g>
   <g id="patch_74">
    <path d="M 200.923538 448.56 
L 202.277554 448.56 
L 202.277554 386.96 
L 200.923538 386.96 
z
" clip-path="url(#pc18190ee0b)" style="fill: #7f7f7f"/>
   </g>
   <g id="patch_75">
    <path d="M 202.616059 448.56 
L 203.970075 448.56 
L 203.970075 417.76 
L 202.616059 417.76 
z
" clip-path="url(#pc18190ee0b)" style="fill: #7f7f7f"/>
   </g>
   <g id="patch_76">
    <path d="M 204.30858 448.56 
L 205.662596 448.56 
L 205.662596 417.76 
L 204.30858 417.76 
z
" clip-path="url(#pc18190ee0b)" style="fill: #7f7f7f"/>
   </g>
   <g id="patch_77">
    <path d="M 206.001101 448.56 
L 207.355117 448.56 
L 207.355117 386.96 
L 206.001101 386.96 
z
" clip-path="url(#pc18190ee0b)" style="fill: #7f7f7f"/>
   </g>
   <g id="patch_78">
    <path d="M 207.693622 448.56 
L 209.047638 448.56 
L 209.047638 386.96 
L 207.693622 386.96 
z
" clip-path="url(#pc18190ee0b)" style="fill: #7f7f7f"/>
   </g>
   <g id="patch_79">
    <path d="M 209.386143 448.56 
L 210.740159 448.56 
L 210.740159 386.96 
L 209.386143 386.96 
z
" clip-path="url(#pc18190ee0b)" style="fill: #7f7f7f"/>
   </g>
   <g id="patch_80">
    <path d="M 211.078664 448.56 
L 212.43268 448.56 
L 212.43268 386.96 
L 211.078664 386.96 
z
" clip-path="url(#pc18190ee0b)" style="fill: #7f7f7f"/>
   </g>
   <g id="patch_81">
    <path d="M 212.771185 448.56 
L 214.125201 448.56 
L 214.125201 386.96 
L 212.771185 386.96 
z
" clip-path="url(#pc18190ee0b)" style="fill: #7f7f7f"/>
   </g>
   <g id="patch_82">
    <path d="M 214.463706 448.56 
L 215.817723 448.56 
L 215.817723 356.16 
L 214.463706 356.16 
z
" clip-path="url(#pc18190ee0b)" style="fill: #7f7f7f"/>
   </g>
   <g id="patch_83">
    <path d="M 216.156227 448.56 
L 217.510244 448.56 
L 217.510244 356.16 
L 216.156227 356.16 
z
" clip-path="url(#pc18190ee0b)" style="fill: #7f7f7f"/>
   </g>
   <g id="patch_84">
    <path d="M 217.848748 448.56 
L 219.202765 448.56 
L 219.202765 356.16 
L 217.848748 356.16 
z
" clip-path="url(#pc18190ee0b)" style="fill: #7f7f7f"/>
   </g>
   <g id="patch_85">
    <path d="M 219.541269 448.56 
L 220.895286 448.56 
L 220.895286 386.96 
L 219.541269 386.96 
z
" clip-path="url(#pc18190ee0b)" style="fill: #7f7f7f"/>
   </g>
   <g id="patch_86">
    <path d="M 221.23379 448.56 
L 222.587807 448.56 
L 222.587807 417.76 
L 221.23379 417.76 
z
" clip-path="url(#pc18190ee0b)" style="fill: #7f7f7f"/>
   </g>
   <g id="patch_87">
    <path d="M 222.926311 448.56 
L 224.280328 448.56 
L 224.280328 386.96 
L 222.926311 386.96 
z
" clip-path="url(#pc18190ee0b)" style="fill: #7f7f7f"/>
   </g>
   <g id="patch_88">
    <path d="M 224.618832 448.56 
L 225.972849 448.56 
L 225.972849 417.76 
L 224.618832 417.76 
z
" clip-path="url(#pc18190ee0b)" style="fill: #7f7f7f"/>
   </g>
   <g id="patch_89">
    <path d="M 226.311353 448.56 
L 227.66537 448.56 
L 227.66537 417.76 
L 226.311353 417.76 
z
" clip-path="url(#pc18190ee0b)" style="fill: #7f7f7f"/>
   </g>
   <g id="patch_90">
    <path d="M 228.003874 448.56 
L 229.357891 448.56 
L 229.357891 417.76 
L 228.003874 417.76 
z
" clip-path="url(#pc18190ee0b)" style="fill: #7f7f7f"/>
   </g>
   <g id="patch_91">
    <path d="M 229.696395 448.56 
L 231.050412 448.56 
L 231.050412 417.76 
L 229.696395 417.76 
z
" clip-path="url(#pc18190ee0b)" style="fill: #7f7f7f"/>
   </g>
   <g id="patch_92">
    <path d="M 231.388916 448.56 
L 232.742933 448.56 
L 232.742933 386.96 
L 231.388916 386.96 
z
" clip-path="url(#pc18190ee0b)" style="fill: #7f7f7f"/>
   </g>
   <g id="patch_93">
    <path d="M 233.081437 448.56 
L 234.435454 448.56 
L 234.435454 417.76 
L 233.081437 417.76 
z
" clip-path="url(#pc18190ee0b)" style="fill: #7f7f7f"/>
   </g>
   <g id="patch_94">
    <path d="M 234.773958 448.56 
L 236.127975 448.56 
L 236.127975 356.16 
L 234.773958 356.16 
z
" clip-path="url(#pc18190ee0b)" style="fill: #7f7f7f"/>
   </g>
   <g id="patch_95">
    <path d="M 236.466479 448.56 
L 237.820496 448.56 
L 237.820496 448.56 
L 236.466479 448.56 
z
" clip-path="url(#pc18190ee0b)" style="fill: #7f7f7f"/>
   </g>
   <g id="patch_96">
    <path d="M 238.159 448.56 
L 239.513017 448.56 
L 239.513017 386.96 
L 238.159 386.96 
z
" clip-path="url(#pc18190ee0b)" style="fill: #7f7f7f"/>
   </g>
   <g id="patch_97">
    <path d="M 239.851521 448.56 
L 241.205538 448.56 
L 241.205538 448.56 
L 239.851521 448.56 
z
" clip-path="url(#pc18190ee0b)" style="fill: #7f7f7f"/>
   </g>
   <g id="patch_98">
    <path d="M 241.544042 448.56 
L 242.898059 448.56 
L 242.898059 417.76 
L 241.544042 417.76 
z
" clip-path="url(#pc18190ee0b)" style="fill: #7f7f7f"/>
   </g>
   <g id="patch_99">
    <path d="M 243.236563 448.56 
L 244.59058 448.56 
L 244.59058 386.96 
L 243.236563 386.96 
z
" clip-path="url(#pc18190ee0b)" style="fill: #7f7f7f"/>
   </g>
   <g id="patch_100">
    <path d="M 244.929084 448.56 
L 246.283101 448.56 
L 246.283101 417.76 
L 244.929084 417.76 
z
" clip-path="url(#pc18190ee0b)" style="fill: #7f7f7f"/>
   </g>
   <g id="patch_101">
    <path d="M 246.621605 448.56 
L 247.975622 448.56 
L 247.975622 417.76 
L 246.621605 417.76 
z
" clip-path="url(#pc18190ee0b)" style="fill: #7f7f7f"/>
   </g>
   <g id="patch_102">
    <path d="M 248.314126 448.56 
L 249.668143 448.56 
L 249.668143 448.56 
L 248.314126 448.56 
z
" clip-path="url(#pc18190ee0b)" style="fill: #7f7f7f"/>
   </g>
   <g id="patch_103">
    <path d="M 250.006647 448.56 
L 251.360664 448.56 
L 251.360664 448.56 
L 250.006647 448.56 
z
" clip-path="url(#pc18190ee0b)" style="fill: #7f7f7f"/>
   </g>
   <g id="patch_104">
    <path d="M 251.699168 448.56 
L 253.053185 448.56 
L 253.053185 417.76 
L 251.699168 417.76 
z
" clip-path="url(#pc18190ee0b)" style="fill: #7f7f7f"/>
   </g>
   <g id="patch_105">
    <path d="M 253.391689 448.56 
L 254.745706 448.56 
L 254.745706 448.56 
L 253.391689 448.56 
z
" clip-path="url(#pc18190ee0b)" style="fill: #7f7f7f"/>
   </g>
   <g id="patch_106">
    <path d="M 255.08421 448.56 
L 256.438227 448.56 
L 256.438227 448.56 
L 255.08421 448.56 
z
" clip-path="url(#pc18190ee0b)" style="fill: #7f7f7f"/>
   </g>
   <g id="patch_107">
    <path d="M 256.776731 448.56 
L 258.130748 448.56 
L 258.130748 417.76 
L 256.776731 417.76 
z
" clip-path="url(#pc18190ee0b)" style="fill: #7f7f7f"/>
   </g>
   <g id="patch_108">
    <path d="M 258.469252 448.56 
L 259.823269 448.56 
L 259.823269 448.56 
L 258.469252 448.56 
z
" clip-path="url(#pc18190ee0b)" style="fill: #7f7f7f"/>
   </g>
   <g id="patch_109">
    <path d="M 260.161773 448.56 
L 261.51579 448.56 
L 261.51579 448.56 
L 260.161773 448.56 
z
" clip-path="url(#pc18190ee0b)" style="fill: #7f7f7f"/>
   </g>
   <g id="patch_110">
    <path d="M 261.854294 448.56 
L 263.208311 448.56 
L 263.208311 448.56 
L 261.854294 448.56 
z
" clip-path="url(#pc18190ee0b)" style="fill: #7f7f7f"/>
   </g>
   <g id="patch_111">
    <path d="M 263.546815 448.56 
L 264.900832 448.56 
L 264.900832 386.96 
L 263.546815 386.96 
z
" clip-path="url(#pc18190ee0b)" style="fill: #7f7f7f"/>
   </g>
   <g id="patch_112">
    <path d="M 265.239336 448.56 
L 266.593353 448.56 
L 266.593353 417.76 
L 265.239336 417.76 
z
" clip-path="url(#pc18190ee0b)" style="fill: #7f7f7f"/>
   </g>
   <g id="patch_113">
    <path d="M 266.931857 448.56 
L 268.285874 448.56 
L 268.285874 448.56 
L 266.931857 448.56 
z
" clip-path="url(#pc18190ee0b)" style="fill: #7f7f7f"/>
   </g>
   <g id="patch_114">
    <path d="M 268.624378 448.56 
L 269.978395 448.56 
L 269.978395 448.56 
L 268.624378 448.56 
z
" clip-path="url(#pc18190ee0b)" style="fill: #7f7f7f"/>
   </g>
   <g id="patch_115">
    <path d="M 270.316899 448.56 
L 271.670916 448.56 
L 271.670916 448.56 
L 270.316899 448.56 
z
" clip-path="url(#pc18190ee0b)" style="fill: #7f7f7f"/>
   </g>
   <g id="patch_116">
    <path d="M 272.00942 448.56 
L 273.363437 448.56 
L 273.363437 448.56 
L 272.00942 448.56 
z
" clip-path="url(#pc18190ee0b)" style="fill: #7f7f7f"/>
   </g>
   <g id="patch_117">
    <path d="M 273.701941 448.56 
L 275.055958 448.56 
L 275.055958 448.56 
L 273.701941 448.56 
z
" clip-path="url(#pc18190ee0b)" style="fill: #7f7f7f"/>
   </g>
   <g id="patch_118">
    <path d="M 275.394462 448.56 
L 276.748479 448.56 
L 276.748479 448.56 
L 275.394462 448.56 
z
" clip-path="url(#pc18190ee0b)" style="fill: #7f7f7f"/>
   </g>
   <g id="patch_119">
    <path d="M 277.086983 448.56 
L 278.441 448.56 
L 278.441 448.56 
L 277.086983 448.56 
z
" clip-path="url(#pc18190ee0b)" style="fill: #7f7f7f"/>
   </g>
   <g id="patch_120">
    <path d="M 278.779504 448.56 
L 280.133521 448.56 
L 280.133521 448.56 
L 278.779504 448.56 
z
" clip-path="url(#pc18190ee0b)" style="fill: #7f7f7f"/>
   </g>
   <g id="patch_121">
    <path d="M 280.472025 448.56 
L 281.826042 448.56 
L 281.826042 448.56 
L 280.472025 448.56 
z
" clip-path="url(#pc18190ee0b)" style="fill: #7f7f7f"/>
   </g>
   <g id="patch_122">
    <path d="M 282.164546 448.56 
L 283.518563 448.56 
L 283.518563 448.56 
L 282.164546 448.56 
z
" clip-path="url(#pc18190ee0b)" style="fill: #7f7f7f"/>
   </g>
   <g id="patch_123">
    <path d="M 283.857067 448.56 
L 285.211084 448.56 
L 285.211084 448.56 
L 283.857067 448.56 
z
" clip-path="url(#pc18190ee0b)" style="fill: #7f7f7f"/>
   </g>
   <g id="patch_124">
    <path d="M 285.549588 448.56 
L 286.903605 448.56 
L 286.903605 448.56 
L 285.549588 448.56 
z
" clip-path="url(#pc18190ee0b)" style="fill: #7f7f7f"/>
   </g>
   <g id="patch_125">
    <path d="M 287.242109 448.56 
L 288.596126 448.56 
L 288.596126 448.56 
L 287.242109 448.56 
z
" clip-path="url(#pc18190ee0b)" style="fill: #7f7f7f"/>
   </g>
   <g id="patch_126">
    <path d="M 288.93463 448.56 
L 290.288647 448.56 
L 290.288647 448.56 
L 288.93463 448.56 
z
" clip-path="url(#pc18190ee0b)" style="fill: #7f7f7f"/>
   </g>
   <g id="patch_127">
    <path d="M 290.627151 448.56 
L 291.981168 448.56 
L 291.981168 448.56 
L 290.627151 448.56 
z
" clip-path="url(#pc18190ee0b)" style="fill: #7f7f7f"/>
   </g>
   <g id="patch_128">
    <path d="M 292.319672 448.56 
L 293.673689 448.56 
L 293.673689 448.56 
L 292.319672 448.56 
z
" clip-path="url(#pc18190ee0b)" style="fill: #7f7f7f"/>
   </g>
   <g id="patch_129">
    <path d="M 294.012193 448.56 
L 295.36621 448.56 
L 295.36621 448.56 
L 294.012193 448.56 
z
" clip-path="url(#pc18190ee0b)" style="fill: #7f7f7f"/>
   </g>
   <g id="patch_130">
    <path d="M 295.704714 448.56 
L 297.058731 448.56 
L 297.058731 448.56 
L 295.704714 448.56 
z
" clip-path="url(#pc18190ee0b)" style="fill: #7f7f7f"/>
   </g>
   <g id="patch_131">
    <path d="M 297.397235 448.56 
L 298.751252 448.56 
L 298.751252 448.56 
L 297.397235 448.56 
z
" clip-path="url(#pc18190ee0b)" style="fill: #7f7f7f"/>
   </g>
   <g id="patch_132">
    <path d="M 299.089756 448.56 
L 300.443773 448.56 
L 300.443773 448.56 
L 299.089756 448.56 
z
" clip-path="url(#pc18190ee0b)" style="fill: #7f7f7f"/>
   </g>
   <g id="patch_133">
    <path d="M 300.782277 448.56 
L 302.136294 448.56 
L 302.136294 448.56 
L 300.782277 448.56 
z
" clip-path="url(#pc18190ee0b)" style="fill: #7f7f7f"/>
   </g>
   <g id="patch_134">
    <path d="M 302.474799 448.56 
L 303.828815 448.56 
L 303.828815 448.56 
L 302.474799 448.56 
z
" clip-path="url(#pc18190ee0b)" style="fill: #7f7f7f"/>
   </g>
   <g id="patch_135">
    <path d="M 304.16732 448.56 
L 305.521336 448.56 
L 305.521336 448.56 
L 304.16732 448.56 
z
" clip-path="url(#pc18190ee0b)" style="fill: #7f7f7f"/>
   </g>
   <g id="patch_136">
    <path d="M 305.859841 448.56 
L 307.213857 448.56 
L 307.213857 448.56 
L 305.859841 448.56 
z
" clip-path="url(#pc18190ee0b)" style="fill: #7f7f7f"/>
   </g>
   <g id="patch_137">
    <path d="M 307.552362 448.56 
L 308.906378 448.56 
L 308.906378 448.56 
L 307.552362 448.56 
z
" clip-path="url(#pc18190ee0b)" style="fill: #7f7f7f"/>
   </g>
   <g id="patch_138">
    <path d="M 309.244883 448.56 
L 310.598899 448.56 
L 310.598899 448.56 
L 309.244883 448.56 
z
" clip-path="url(#pc18190ee0b)" style="fill: #7f7f7f"/>
   </g>
   <g id="patch_139">
    <path d="M 310.937404 448.56 
L 312.29142 448.56 
L 312.29142 448.56 
L 310.937404 448.56 
z
" clip-path="url(#pc18190ee0b)" style="fill: #7f7f7f"/>
   </g>
   <g id="patch_140">
    <path d="M 312.629925 448.56 
L 313.983941 448.56 
L 313.983941 448.56 
L 312.629925 448.56 
z
" clip-path="url(#pc18190ee0b)" style="fill: #7f7f7f"/>
   </g>
   <g id="patch_141">
    <path d="M 314.322446 448.56 
L 315.676462 448.56 
L 315.676462 448.56 
L 314.322446 448.56 
z
" clip-path="url(#pc18190ee0b)" style="fill: #7f7f7f"/>
   </g>
   <g id="patch_142">
    <path d="M 316.014967 448.56 
L 317.368983 448.56 
L 317.368983 448.56 
L 316.014967 448.56 
z
" clip-path="url(#pc18190ee0b)" style="fill: #7f7f7f"/>
   </g>
   <g id="patch_143">
    <path d="M 317.707488 448.56 
L 319.061504 448.56 
L 319.061504 448.56 
L 317.707488 448.56 
z
" clip-path="url(#pc18190ee0b)" style="fill: #7f7f7f"/>
   </g>
   <g id="patch_144">
    <path d="M 319.400009 448.56 
L 320.754025 448.56 
L 320.754025 448.56 
L 319.400009 448.56 
z
" clip-path="url(#pc18190ee0b)" style="fill: #7f7f7f"/>
   </g>
   <g id="patch_145">
    <path d="M 321.09253 448.56 
L 322.446546 448.56 
L 322.446546 448.56 
L 321.09253 448.56 
z
" clip-path="url(#pc18190ee0b)" style="fill: #7f7f7f"/>
   </g>
   <g id="patch_146">
    <path d="M 322.785051 448.56 
L 324.139068 448.56 
L 324.139068 448.56 
L 322.785051 448.56 
z
" clip-path="url(#pc18190ee0b)" style="fill: #7f7f7f"/>
   </g>
   <g id="patch_147">
    <path d="M 324.477572 448.56 
L 325.831589 448.56 
L 325.831589 448.56 
L 324.477572 448.56 
z
" clip-path="url(#pc18190ee0b)" style="fill: #7f7f7f"/>
   </g>
   <g id="patch_148">
    <path d="M 326.170093 448.56 
L 327.52411 448.56 
L 327.52411 448.56 
L 326.170093 448.56 
z
" clip-path="url(#pc18190ee0b)" style="fill: #7f7f7f"/>
   </g>
   <g id="patch_149">
    <path d="M 327.862614 448.56 
L 329.216631 448.56 
L 329.216631 448.56 
L 327.862614 448.56 
z
" clip-path="url(#pc18190ee0b)" style="fill: #7f7f7f"/>
   </g>
   <g id="patch_150">
    <path d="M 329.555135 448.56 
L 330.909152 448.56 
L 330.909152 448.56 
L 329.555135 448.56 
z
" clip-path="url(#pc18190ee0b)" style="fill: #7f7f7f"/>
   </g>
   <g id="patch_151">
    <path d="M 331.247656 448.56 
L 332.601673 448.56 
L 332.601673 448.56 
L 331.247656 448.56 
z
" clip-path="url(#pc18190ee0b)" style="fill: #7f7f7f"/>
   </g>
   <g id="patch_152">
    <path d="M 332.940177 448.56 
L 334.294194 448.56 
L 334.294194 448.56 
L 332.940177 448.56 
z
" clip-path="url(#pc18190ee0b)" style="fill: #7f7f7f"/>
   </g>
   <g id="patch_153">
    <path d="M 334.632698 448.56 
L 335.986715 448.56 
L 335.986715 448.56 
L 334.632698 448.56 
z
" clip-path="url(#pc18190ee0b)" style="fill: #7f7f7f"/>
   </g>
   <g id="patch_154">
    <path d="M 336.325219 448.56 
L 337.679236 448.56 
L 337.679236 448.56 
L 336.325219 448.56 
z
" clip-path="url(#pc18190ee0b)" style="fill: #7f7f7f"/>
   </g>
   <g id="patch_155">
    <path d="M 338.01774 448.56 
L 339.371757 448.56 
L 339.371757 448.56 
L 338.01774 448.56 
z
" clip-path="url(#pc18190ee0b)" style="fill: #7f7f7f"/>
   </g>
   <g id="patch_156">
    <path d="M 339.710261 448.56 
L 341.064278 448.56 
L 341.064278 448.56 
L 339.710261 448.56 
z
" clip-path="url(#pc18190ee0b)" style="fill: #7f7f7f"/>
   </g>
   <g id="patch_157">
    <path d="M 341.402782 448.56 
L 342.756799 448.56 
L 342.756799 448.56 
L 341.402782 448.56 
z
" clip-path="url(#pc18190ee0b)" style="fill: #7f7f7f"/>
   </g>
   <g id="patch_158">
    <path d="M 343.095303 448.56 
L 344.44932 448.56 
L 344.44932 448.56 
L 343.095303 448.56 
z
" clip-path="url(#pc18190ee0b)" style="fill: #7f7f7f"/>
   </g>
   <g id="patch_159">
    <path d="M 344.787824 448.56 
L 346.141841 448.56 
L 346.141841 448.56 
L 344.787824 448.56 
z
" clip-path="url(#pc18190ee0b)" style="fill: #7f7f7f"/>
   </g>
   <g id="patch_160">
    <path d="M 346.480345 448.56 
L 347.834362 448.56 
L 347.834362 448.56 
L 346.480345 448.56 
z
" clip-path="url(#pc18190ee0b)" style="fill: #7f7f7f"/>
   </g>
   <g id="patch_161">
    <path d="M 348.172866 448.56 
L 349.526883 448.56 
L 349.526883 448.56 
L 348.172866 448.56 
z
" clip-path="url(#pc18190ee0b)" style="fill: #7f7f7f"/>
   </g>
   <g id="patch_162">
    <path d="M 349.865387 448.56 
L 351.219404 448.56 
L 351.219404 448.56 
L 349.865387 448.56 
z
" clip-path="url(#pc18190ee0b)" style="fill: #7f7f7f"/>
   </g>
   <g id="patch_163">
    <path d="M 351.557908 448.56 
L 352.911925 448.56 
L 352.911925 448.56 
L 351.557908 448.56 
z
" clip-path="url(#pc18190ee0b)" style="fill: #7f7f7f"/>
   </g>
   <g id="patch_164">
    <path d="M 353.250429 448.56 
L 354.604446 448.56 
L 354.604446 448.56 
L 353.250429 448.56 
z
" clip-path="url(#pc18190ee0b)" style="fill: #7f7f7f"/>
   </g>
   <g id="patch_165">
    <path d="M 354.94295 448.56 
L 356.296967 448.56 
L 356.296967 448.56 
L 354.94295 448.56 
z
" clip-path="url(#pc18190ee0b)" style="fill: #7f7f7f"/>
   </g>
   <g id="patch_166">
    <path d="M 356.635471 448.56 
L 357.989488 448.56 
L 357.989488 448.56 
L 356.635471 448.56 
z
" clip-path="url(#pc18190ee0b)" style="fill: #7f7f7f"/>
   </g>
   <g id="patch_167">
    <path d="M 358.327992 448.56 
L 359.682009 448.56 
L 359.682009 448.56 
L 358.327992 448.56 
z
" clip-path="url(#pc18190ee0b)" style="fill: #7f7f7f"/>
   </g>
   <g id="patch_168">
    <path d="M 360.020513 448.56 
L 361.37453 448.56 
L 361.37453 448.56 
L 360.020513 448.56 
z
" clip-path="url(#pc18190ee0b)" style="fill: #7f7f7f"/>
   </g>
   <g id="patch_169">
    <path d="M 361.713034 448.56 
L 363.067051 448.56 
L 363.067051 448.56 
L 361.713034 448.56 
z
" clip-path="url(#pc18190ee0b)" style="fill: #7f7f7f"/>
   </g>
   <g id="patch_170">
    <path d="M 363.405555 448.56 
L 364.759572 448.56 
L 364.759572 448.56 
L 363.405555 448.56 
z
" clip-path="url(#pc18190ee0b)" style="fill: #7f7f7f"/>
   </g>
   <g id="patch_171">
    <path d="M 365.098076 448.56 
L 366.452093 448.56 
L 366.452093 448.56 
L 365.098076 448.56 
z
" clip-path="url(#pc18190ee0b)" style="fill: #7f7f7f"/>
   </g>
   <g id="patch_172">
    <path d="M 366.790597 448.56 
L 368.144614 448.56 
L 368.144614 448.56 
L 366.790597 448.56 
z
" clip-path="url(#pc18190ee0b)" style="fill: #7f7f7f"/>
   </g>
   <g id="patch_173">
    <path d="M 368.483118 448.56 
L 369.837135 448.56 
L 369.837135 448.56 
L 368.483118 448.56 
z
" clip-path="url(#pc18190ee0b)" style="fill: #7f7f7f"/>
   </g>
   <g id="patch_174">
    <path d="M 370.175639 448.56 
L 371.529656 448.56 
L 371.529656 448.56 
L 370.175639 448.56 
z
" clip-path="url(#pc18190ee0b)" style="fill: #7f7f7f"/>
   </g>
   <g id="patch_175">
    <path d="M 371.86816 448.56 
L 373.222177 448.56 
L 373.222177 448.56 
L 371.86816 448.56 
z
" clip-path="url(#pc18190ee0b)" style="fill: #7f7f7f"/>
   </g>
   <g id="patch_176">
    <path d="M 373.560681 448.56 
L 374.914698 448.56 
L 374.914698 448.56 
L 373.560681 448.56 
z
" clip-path="url(#pc18190ee0b)" style="fill: #7f7f7f"/>
   </g>
   <g id="patch_177">
    <path d="M 375.253202 448.56 
L 376.607219 448.56 
L 376.607219 448.56 
L 375.253202 448.56 
z
" clip-path="url(#pc18190ee0b)" style="fill: #7f7f7f"/>
   </g>
   <g id="patch_178">
    <path d="M 376.945723 448.56 
L 378.29974 448.56 
L 378.29974 448.56 
L 376.945723 448.56 
z
" clip-path="url(#pc18190ee0b)" style="fill: #7f7f7f"/>
   </g>
   <g id="patch_179">
    <path d="M 378.638244 448.56 
L 379.992261 448.56 
L 379.992261 448.56 
L 378.638244 448.56 
z
" clip-path="url(#pc18190ee0b)" style="fill: #7f7f7f"/>
   </g>
   <g id="patch_180">
    <path d="M 380.330765 448.56 
L 381.684782 448.56 
L 381.684782 448.56 
L 380.330765 448.56 
z
" clip-path="url(#pc18190ee0b)" style="fill: #7f7f7f"/>
   </g>
   <g id="patch_181">
    <path d="M 382.023286 448.56 
L 383.377303 448.56 
L 383.377303 448.56 
L 382.023286 448.56 
z
" clip-path="url(#pc18190ee0b)" style="fill: #7f7f7f"/>
   </g>
   <g id="patch_182">
    <path d="M 383.715807 448.56 
L 385.069824 448.56 
L 385.069824 448.56 
L 383.715807 448.56 
z
" clip-path="url(#pc18190ee0b)" style="fill: #7f7f7f"/>
   </g>
   <g id="patch_183">
    <path d="M 385.408328 448.56 
L 386.762345 448.56 
L 386.762345 448.56 
L 385.408328 448.56 
z
" clip-path="url(#pc18190ee0b)" style="fill: #7f7f7f"/>
   </g>
   <g id="patch_184">
    <path d="M 387.100849 448.56 
L 388.454866 448.56 
L 388.454866 448.56 
L 387.100849 448.56 
z
" clip-path="url(#pc18190ee0b)" style="fill: #7f7f7f"/>
   </g>
   <g id="patch_185">
    <path d="M 388.79337 448.56 
L 390.147387 448.56 
L 390.147387 448.56 
L 388.79337 448.56 
z
" clip-path="url(#pc18190ee0b)" style="fill: #7f7f7f"/>
   </g>
   <g id="patch_186">
    <path d="M 390.485891 448.56 
L 391.839908 448.56 
L 391.839908 448.56 
L 390.485891 448.56 
z
" clip-path="url(#pc18190ee0b)" style="fill: #7f7f7f"/>
   </g>
   <g id="patch_187">
    <path d="M 392.178412 448.56 
L 393.532429 448.56 
L 393.532429 448.56 
L 392.178412 448.56 
z
" clip-path="url(#pc18190ee0b)" style="fill: #7f7f7f"/>
   </g>
   <g id="patch_188">
    <path d="M 393.870933 448.56 
L 395.22495 448.56 
L 395.22495 448.56 
L 393.870933 448.56 
z
" clip-path="url(#pc18190ee0b)" style="fill: #7f7f7f"/>
   </g>
   <g id="patch_189">
    <path d="M 395.563454 448.56 
L 396.917471 448.56 
L 396.917471 448.56 
L 395.563454 448.56 
z
" clip-path="url(#pc18190ee0b)" style="fill: #7f7f7f"/>
   </g>
   <g id="patch_190">
    <path d="M 397.255975 448.56 
L 398.609992 448.56 
L 398.609992 448.56 
L 397.255975 448.56 
z
" clip-path="url(#pc18190ee0b)" style="fill: #7f7f7f"/>
   </g>
   <g id="patch_191">
    <path d="M 398.948496 448.56 
L 400.302513 448.56 
L 400.302513 448.56 
L 398.948496 448.56 
z
" clip-path="url(#pc18190ee0b)" style="fill: #7f7f7f"/>
   </g>
   <g id="patch_192">
    <path d="M 400.641017 448.56 
L 401.995034 448.56 
L 401.995034 448.56 
L 400.641017 448.56 
z
" clip-path="url(#pc18190ee0b)" style="fill: #7f7f7f"/>
   </g>
   <g id="patch_193">
    <path d="M 402.333538 448.56 
L 403.687555 448.56 
L 403.687555 448.56 
L 402.333538 448.56 
z
" clip-path="url(#pc18190ee0b)" style="fill: #7f7f7f"/>
   </g>
   <g id="patch_194">
    <path d="M 404.026059 448.56 
L 405.380076 448.56 
L 405.380076 448.56 
L 404.026059 448.56 
z
" clip-path="url(#pc18190ee0b)" style="fill: #7f7f7f"/>
   </g>
   <g id="patch_195">
    <path d="M 405.71858 448.56 
L 407.072597 448.56 
L 407.072597 448.56 
L 405.71858 448.56 
z
" clip-path="url(#pc18190ee0b)" style="fill: #7f7f7f"/>
   </g>
   <g id="patch_196">
    <path d="M 407.411101 448.56 
L 408.765118 448.56 
L 408.765118 448.56 
L 407.411101 448.56 
z
" clip-path="url(#pc18190ee0b)" style="fill: #7f7f7f"/>
   </g>
   <g id="patch_197">
    <path d="M 409.103622 448.56 
L 410.457639 448.56 
L 410.457639 448.56 
L 409.103622 448.56 
z
" clip-path="url(#pc18190ee0b)" style="fill: #7f7f7f"/>
   </g>
   <g id="patch_198">
    <path d="M 410.796144 448.56 
L 412.15016 448.56 
L 412.15016 448.56 
L 410.796144 448.56 
z
" clip-path="url(#pc18190ee0b)" style="fill: #7f7f7f"/>
   </g>
   <g id="patch_199">
    <path d="M 412.488665 448.56 
L 413.842681 448.56 
L 413.842681 448.56 
L 412.488665 448.56 
z
" clip-path="url(#pc18190ee0b)" style="fill: #7f7f7f"/>
   </g>
   <g id="patch_200">
    <path d="M 414.181186 448.56 
L 415.535202 448.56 
L 415.535202 448.56 
L 414.181186 448.56 
z
" clip-path="url(#pc18190ee0b)" style="fill: #7f7f7f"/>
   </g>
   <g id="patch_201">
    <path d="M 415.873707 448.56 
L 417.227723 448.56 
L 417.227723 448.56 
L 415.873707 448.56 
z
" clip-path="url(#pc18190ee0b)" style="fill: #7f7f7f"/>
   </g>
   <g id="patch_202">
    <path d="M 417.566228 448.56 
L 418.920244 448.56 
L 418.920244 448.56 
L 417.566228 448.56 
z
" clip-path="url(#pc18190ee0b)" style="fill: #7f7f7f"/>
   </g>
   <g id="patch_203">
    <path d="M 419.258749 448.56 
L 420.612765 448.56 
L 420.612765 448.56 
L 419.258749 448.56 
z
" clip-path="url(#pc18190ee0b)" style="fill: #7f7f7f"/>
   </g>
   <g id="patch_204">
    <path d="M 420.95127 448.56 
L 422.305286 448.56 
L 422.305286 448.56 
L 420.95127 448.56 
z
" clip-path="url(#pc18190ee0b)" style="fill: #7f7f7f"/>
   </g>
   <g id="patch_205">
    <path d="M 422.643791 448.56 
L 423.997807 448.56 
L 423.997807 448.56 
L 422.643791 448.56 
z
" clip-path="url(#pc18190ee0b)" style="fill: #7f7f7f"/>
   </g>
   <g id="patch_206">
    <path d="M 424.336312 448.56 
L 425.690328 448.56 
L 425.690328 448.56 
L 424.336312 448.56 
z
" clip-path="url(#pc18190ee0b)" style="fill: #7f7f7f"/>
   </g>
   <g id="patch_207">
    <path d="M 426.028833 448.56 
L 427.382849 448.56 
L 427.382849 448.56 
L 426.028833 448.56 
z
" clip-path="url(#pc18190ee0b)" style="fill: #7f7f7f"/>
   </g>
   <g id="patch_208">
    <path d="M 427.721354 448.56 
L 429.07537 448.56 
L 429.07537 448.56 
L 427.721354 448.56 
z
" clip-path="url(#pc18190ee0b)" style="fill: #7f7f7f"/>
   </g>
   <g id="patch_209">
    <path d="M 429.413875 448.56 
L 430.767891 448.56 
L 430.767891 448.56 
L 429.413875 448.56 
z
" clip-path="url(#pc18190ee0b)" style="fill: #7f7f7f"/>
   </g>
   <g id="patch_210">
    <path d="M 431.106396 448.56 
L 432.460413 448.56 
L 432.460413 448.56 
L 431.106396 448.56 
z
" clip-path="url(#pc18190ee0b)" style="fill: #7f7f7f"/>
   </g>
   <g id="patch_211">
    <path d="M 432.798917 448.56 
L 434.152934 448.56 
L 434.152934 448.56 
L 432.798917 448.56 
z
" clip-path="url(#pc18190ee0b)" style="fill: #7f7f7f"/>
   </g>
   <g id="patch_212">
    <path d="M 434.491438 448.56 
L 435.845455 448.56 
L 435.845455 448.56 
L 434.491438 448.56 
z
" clip-path="url(#pc18190ee0b)" style="fill: #7f7f7f"/>
   </g>
   <g id="patch_213">
    <path d="M 80.754545 417.76 
L 82.108562 417.76 
L 82.108562 417.76 
L 80.754545 417.76 
z
" clip-path="url(#pc18190ee0b)" style="fill: #9467bd"/>
   </g>
   <g id="patch_214">
    <path d="M 82.447066 448.56 
L 83.801083 448.56 
L 83.801083 448.56 
L 82.447066 448.56 
z
" clip-path="url(#pc18190ee0b)" style="fill: #9467bd"/>
   </g>
   <g id="patch_215">
    <path d="M 84.139587 448.56 
L 85.493604 448.56 
L 85.493604 448.56 
L 84.139587 448.56 
z
" clip-path="url(#pc18190ee0b)" style="fill: #9467bd"/>
   </g>
   <g id="patch_216">
    <path d="M 85.832109 448.56 
L 87.186125 448.56 
L 87.186125 448.56 
L 85.832109 448.56 
z
" clip-path="url(#pc18190ee0b)" style="fill: #9467bd"/>
   </g>
   <g id="patch_217">
    <path d="M 87.52463 448.56 
L 88.878646 448.56 
L 88.878646 448.56 
L 87.52463 448.56 
z
" clip-path="url(#pc18190ee0b)" style="fill: #9467bd"/>
   </g>
   <g id="patch_218">
    <path d="M 89.217151 448.56 
L 90.571167 448.56 
L 90.571167 417.76 
L 89.217151 417.76 
z
" clip-path="url(#pc18190ee0b)" style="fill: #9467bd"/>
   </g>
   <g id="patch_219">
    <path d="M 90.909672 448.56 
L 92.263688 448.56 
L 92.263688 448.56 
L 90.909672 448.56 
z
" clip-path="url(#pc18190ee0b)" style="fill: #9467bd"/>
   </g>
   <g id="patch_220">
    <path d="M 92.602193 417.76 
L 93.956209 417.76 
L 93.956209 417.76 
L 92.602193 417.76 
z
" clip-path="url(#pc18190ee0b)" style="fill: #9467bd"/>
   </g>
   <g id="patch_221">
    <path d="M 94.294714 448.56 
L 95.64873 448.56 
L 95.64873 448.56 
L 94.294714 448.56 
z
" clip-path="url(#pc18190ee0b)" style="fill: #9467bd"/>
   </g>
   <g id="patch_222">
    <path d="M 95.987235 417.76 
L 97.341251 417.76 
L 97.341251 417.76 
L 95.987235 417.76 
z
" clip-path="url(#pc18190ee0b)" style="fill: #9467bd"/>
   </g>
   <g id="patch_223">
    <path d="M 97.679756 448.56 
L 99.033772 448.56 
L 99.033772 448.56 
L 97.679756 448.56 
z
" clip-path="url(#pc18190ee0b)" style="fill: #9467bd"/>
   </g>
   <g id="patch_224">
    <path d="M 99.372277 448.56 
L 100.726293 448.56 
L 100.726293 448.56 
L 99.372277 448.56 
z
" clip-path="url(#pc18190ee0b)" style="fill: #9467bd"/>
   </g>
   <g id="patch_225">
    <path d="M 101.064798 448.56 
L 102.418814 448.56 
L 102.418814 448.56 
L 101.064798 448.56 
z
" clip-path="url(#pc18190ee0b)" style="fill: #9467bd"/>
   </g>
   <g id="patch_226">
    <path d="M 102.757319 448.56 
L 104.111335 448.56 
L 104.111335 448.56 
L 102.757319 448.56 
z
" clip-path="url(#pc18190ee0b)" style="fill: #9467bd"/>
   </g>
   <g id="patch_227">
    <path d="M 104.44984 417.76 
L 105.803856 417.76 
L 105.803856 417.76 
L 104.44984 417.76 
z
" clip-path="url(#pc18190ee0b)" style="fill: #9467bd"/>
   </g>
   <g id="patch_228">
    <path d="M 106.142361 417.76 
L 107.496378 417.76 
L 107.496378 417.76 
L 106.142361 417.76 
z
" clip-path="url(#pc18190ee0b)" style="fill: #9467bd"/>
   </g>
   <g id="patch_229">
    <path d="M 107.834882 386.96 
L 109.188899 386.96 
L 109.188899 386.96 
L 107.834882 386.96 
z
" clip-path="url(#pc18190ee0b)" style="fill: #9467bd"/>
   </g>
   <g id="patch_230">
    <path d="M 109.527403 448.56 
L 110.88142 448.56 
L 110.88142 448.56 
L 109.527403 448.56 
z
" clip-path="url(#pc18190ee0b)" style="fill: #9467bd"/>
   </g>
   <g id="patch_231">
    <path d="M 111.219924 417.76 
L 112.573941 417.76 
L 112.573941 386.96 
L 111.219924 386.96 
z
" clip-path="url(#pc18190ee0b)" style="fill: #9467bd"/>
   </g>
   <g id="patch_232">
    <path d="M 112.912445 448.56 
L 114.266462 448.56 
L 114.266462 448.56 
L 112.912445 448.56 
z
" clip-path="url(#pc18190ee0b)" style="fill: #9467bd"/>
   </g>
   <g id="patch_233">
    <path d="M 114.604966 448.56 
L 115.958983 448.56 
L 115.958983 448.56 
L 114.604966 448.56 
z
" clip-path="url(#pc18190ee0b)" style="fill: #9467bd"/>
   </g>
   <g id="patch_234">
    <path d="M 116.297487 448.56 
L 117.651504 448.56 
L 117.651504 448.56 
L 116.297487 448.56 
z
" clip-path="url(#pc18190ee0b)" style="fill: #9467bd"/>
   </g>
   <g id="patch_235">
    <path d="M 117.990008 448.56 
L 119.344025 448.56 
L 119.344025 417.76 
L 117.990008 417.76 
z
" clip-path="url(#pc18190ee0b)" style="fill: #9467bd"/>
   </g>
   <g id="patch_236">
    <path d="M 119.682529 448.56 
L 121.036546 448.56 
L 121.036546 448.56 
L 119.682529 448.56 
z
" clip-path="url(#pc18190ee0b)" style="fill: #9467bd"/>
   </g>
   <g id="patch_237">
    <path d="M 121.37505 448.56 
L 122.729067 448.56 
L 122.729067 417.76 
L 121.37505 417.76 
z
" clip-path="url(#pc18190ee0b)" style="fill: #9467bd"/>
   </g>
   <g id="patch_238">
    <path d="M 123.067571 448.56 
L 124.421588 448.56 
L 124.421588 417.76 
L 123.067571 417.76 
z
" clip-path="url(#pc18190ee0b)" style="fill: #9467bd"/>
   </g>
   <g id="patch_239">
    <path d="M 124.760092 448.56 
L 126.114109 448.56 
L 126.114109 417.76 
L 124.760092 417.76 
z
" clip-path="url(#pc18190ee0b)" style="fill: #9467bd"/>
   </g>
   <g id="patch_240">
    <path d="M 126.452613 448.56 
L 127.80663 448.56 
L 127.80663 448.56 
L 126.452613 448.56 
z
" clip-path="url(#pc18190ee0b)" style="fill: #9467bd"/>
   </g>
   <g id="patch_241">
    <path d="M 128.145134 417.76 
L 129.499151 417.76 
L 129.499151 386.96 
L 128.145134 386.96 
z
" clip-path="url(#pc18190ee0b)" style="fill: #9467bd"/>
   </g>
   <g id="patch_242">
    <path d="M 129.837655 448.56 
L 131.191672 448.56 
L 131.191672 386.96 
L 129.837655 386.96 
z
" clip-path="url(#pc18190ee0b)" style="fill: #9467bd"/>
   </g>
   <g id="patch_243">
    <path d="M 131.530176 448.56 
L 132.884193 448.56 
L 132.884193 448.56 
L 131.530176 448.56 
z
" clip-path="url(#pc18190ee0b)" style="fill: #9467bd"/>
   </g>
   <g id="patch_244">
    <path d="M 133.222697 356.16 
L 134.576714 356.16 
L 134.576714 356.16 
L 133.222697 356.16 
z
" clip-path="url(#pc18190ee0b)" style="fill: #9467bd"/>
   </g>
   <g id="patch_245">
    <path d="M 134.915218 448.56 
L 136.269235 448.56 
L 136.269235 448.56 
L 134.915218 448.56 
z
" clip-path="url(#pc18190ee0b)" style="fill: #9467bd"/>
   </g>
   <g id="patch_246">
    <path d="M 136.607739 417.76 
L 137.961756 417.76 
L 137.961756 386.96 
L 136.607739 386.96 
z
" clip-path="url(#pc18190ee0b)" style="fill: #9467bd"/>
   </g>
   <g id="patch_247">
    <path d="M 138.30026 448.56 
L 139.654277 448.56 
L 139.654277 448.56 
L 138.30026 448.56 
z
" clip-path="url(#pc18190ee0b)" style="fill: #9467bd"/>
   </g>
   <g id="patch_248">
    <path d="M 139.992781 448.56 
L 141.346798 448.56 
L 141.346798 417.76 
L 139.992781 417.76 
z
" clip-path="url(#pc18190ee0b)" style="fill: #9467bd"/>
   </g>
   <g id="patch_249">
    <path d="M 141.685302 417.76 
L 143.039319 417.76 
L 143.039319 417.76 
L 141.685302 417.76 
z
" clip-path="url(#pc18190ee0b)" style="fill: #9467bd"/>
   </g>
   <g id="patch_250">
    <path d="M 143.377823 386.96 
L 144.73184 386.96 
L 144.73184 386.96 
L 143.377823 386.96 
z
" clip-path="url(#pc18190ee0b)" style="fill: #9467bd"/>
   </g>
   <g id="patch_251">
    <path d="M 145.070344 448.56 
L 146.424361 448.56 
L 146.424361 448.56 
L 145.070344 448.56 
z
" clip-path="url(#pc18190ee0b)" style="fill: #9467bd"/>
   </g>
   <g id="patch_252">
    <path d="M 146.762865 448.56 
L 148.116882 448.56 
L 148.116882 417.76 
L 146.762865 417.76 
z
" clip-path="url(#pc18190ee0b)" style="fill: #9467bd"/>
   </g>
   <g id="patch_253">
    <path d="M 148.455386 448.56 
L 149.809403 448.56 
L 149.809403 417.76 
L 148.455386 417.76 
z
" clip-path="url(#pc18190ee0b)" style="fill: #9467bd"/>
   </g>
   <g id="patch_254">
    <path d="M 150.147907 417.76 
L 151.501924 417.76 
L 151.501924 356.16 
L 150.147907 356.16 
z
" clip-path="url(#pc18190ee0b)" style="fill: #9467bd"/>
   </g>
   <g id="patch_255">
    <path d="M 151.840428 417.76 
L 153.194445 417.76 
L 153.194445 386.96 
L 151.840428 386.96 
z
" clip-path="url(#pc18190ee0b)" style="fill: #9467bd"/>
   </g>
   <g id="patch_256">
    <path d="M 153.532949 417.76 
L 154.886966 417.76 
L 154.886966 386.96 
L 153.532949 386.96 
z
" clip-path="url(#pc18190ee0b)" style="fill: #9467bd"/>
   </g>
   <g id="patch_257">
    <path d="M 155.22547 448.56 
L 156.579487 448.56 
L 156.579487 356.16 
L 155.22547 356.16 
z
" clip-path="url(#pc18190ee0b)" style="fill: #9467bd"/>
   </g>
   <g id="patch_258">
    <path d="M 156.917991 417.76 
L 158.272008 417.76 
L 158.272008 417.76 
L 156.917991 417.76 
z
" clip-path="url(#pc18190ee0b)" style="fill: #9467bd"/>
   </g>
   <g id="patch_259">
    <path d="M 158.610512 448.56 
L 159.964529 448.56 
L 159.964529 386.96 
L 158.610512 386.96 
z
" clip-path="url(#pc18190ee0b)" style="fill: #9467bd"/>
   </g>
   <g id="patch_260">
    <path d="M 160.303033 386.96 
L 161.65705 386.96 
L 161.65705 325.36 
L 160.303033 325.36 
z
" clip-path="url(#pc18190ee0b)" style="fill: #9467bd"/>
   </g>
   <g id="patch_261">
    <path d="M 161.995554 448.56 
L 163.349571 448.56 
L 163.349571 294.56 
L 161.995554 294.56 
z
" clip-path="url(#pc18190ee0b)" style="fill: #9467bd"/>
   </g>
   <g id="patch_262">
    <path d="M 163.688075 386.96 
L 165.042092 386.96 
L 165.042092 386.96 
L 163.688075 386.96 
z
" clip-path="url(#pc18190ee0b)" style="fill: #9467bd"/>
   </g>
   <g id="patch_263">
    <path d="M 165.380596 448.56 
L 166.734613 448.56 
L 166.734613 417.76 
L 165.380596 417.76 
z
" clip-path="url(#pc18190ee0b)" style="fill: #9467bd"/>
   </g>
   <g id="patch_264">
    <path d="M 167.073117 448.56 
L 168.427134 448.56 
L 168.427134 448.56 
L 167.073117 448.56 
z
" clip-path="url(#pc18190ee0b)" style="fill: #9467bd"/>
   </g>
   <g id="patch_265">
    <path d="M 168.765638 417.76 
L 170.119655 417.76 
L 170.119655 417.76 
L 168.765638 417.76 
z
" clip-path="url(#pc18190ee0b)" style="fill: #9467bd"/>
   </g>
   <g id="patch_266">
    <path d="M 170.458159 448.56 
L 171.812176 448.56 
L 171.812176 417.76 
L 170.458159 417.76 
z
" clip-path="url(#pc18190ee0b)" style="fill: #9467bd"/>
   </g>
   <g id="patch_267">
    <path d="M 172.15068 386.96 
L 173.504697 386.96 
L 173.504697 202.16 
L 172.15068 202.16 
z
" clip-path="url(#pc18190ee0b)" style="fill: #9467bd"/>
   </g>
   <g id="patch_268">
    <path d="M 173.843201 356.16 
L 175.197218 356.16 
L 175.197218 232.96 
L 173.843201 232.96 
z
" clip-path="url(#pc18190ee0b)" style="fill: #9467bd"/>
   </g>
   <g id="patch_269">
    <path d="M 175.535722 386.96 
L 176.889739 386.96 
L 176.889739 356.16 
L 175.535722 356.16 
z
" clip-path="url(#pc18190ee0b)" style="fill: #9467bd"/>
   </g>
   <g id="patch_270">
    <path d="M 177.228243 417.76 
L 178.58226 417.76 
L 178.58226 356.16 
L 177.228243 356.16 
z
" clip-path="url(#pc18190ee0b)" style="fill: #9467bd"/>
   </g>
   <g id="patch_271">
    <path d="M 178.920764 356.16 
L 180.274781 356.16 
L 180.274781 294.56 
L 178.920764 294.56 
z
" clip-path="url(#pc18190ee0b)" style="fill: #9467bd"/>
   </g>
   <g id="patch_272">
    <path d="M 180.613285 386.96 
L 181.967302 386.96 
L 181.967302 356.16 
L 180.613285 356.16 
z
" clip-path="url(#pc18190ee0b)" style="fill: #9467bd"/>
   </g>
   <g id="patch_273">
    <path d="M 182.305806 448.56 
L 183.659823 448.56 
L 183.659823 386.96 
L 182.305806 386.96 
z
" clip-path="url(#pc18190ee0b)" style="fill: #9467bd"/>
   </g>
   <g id="patch_274">
    <path d="M 183.998327 417.76 
L 185.352344 417.76 
L 185.352344 386.96 
L 183.998327 386.96 
z
" clip-path="url(#pc18190ee0b)" style="fill: #9467bd"/>
   </g>
   <g id="patch_275">
    <path d="M 185.690848 356.16 
L 187.044865 356.16 
L 187.044865 263.76 
L 185.690848 263.76 
z
" clip-path="url(#pc18190ee0b)" style="fill: #9467bd"/>
   </g>
   <g id="patch_276">
    <path d="M 187.383369 356.16 
L 188.737386 356.16 
L 188.737386 232.96 
L 187.383369 232.96 
z
" clip-path="url(#pc18190ee0b)" style="fill: #9467bd"/>
   </g>
   <g id="patch_277">
    <path d="M 189.07589 386.96 
L 190.429907 386.96 
L 190.429907 325.36 
L 189.07589 325.36 
z
" clip-path="url(#pc18190ee0b)" style="fill: #9467bd"/>
   </g>
   <g id="patch_278">
    <path d="M 190.768411 386.96 
L 192.122428 386.96 
L 192.122428 325.36 
L 190.768411 325.36 
z
" clip-path="url(#pc18190ee0b)" style="fill: #9467bd"/>
   </g>
   <g id="patch_279">
    <path d="M 192.460932 386.96 
L 193.814949 386.96 
L 193.814949 171.36 
L 192.460932 171.36 
z
" clip-path="url(#pc18190ee0b)" style="fill: #9467bd"/>
   </g>
   <g id="patch_280">
    <path d="M 194.153454 386.96 
L 195.50747 386.96 
L 195.50747 386.96 
L 194.153454 386.96 
z
" clip-path="url(#pc18190ee0b)" style="fill: #9467bd"/>
   </g>
   <g id="patch_281">
    <path d="M 195.845975 386.96 
L 197.199991 386.96 
L 197.199991 263.76 
L 195.845975 263.76 
z
" clip-path="url(#pc18190ee0b)" style="fill: #9467bd"/>
   </g>
   <g id="patch_282">
    <path d="M 197.538496 356.16 
L 198.892512 356.16 
L 198.892512 325.36 
L 197.538496 325.36 
z
" clip-path="url(#pc18190ee0b)" style="fill: #9467bd"/>
   </g>
   <g id="patch_283">
    <path d="M 199.231017 325.36 
L 200.585033 325.36 
L 200.585033 263.76 
L 199.231017 263.76 
z
" clip-path="url(#pc18190ee0b)" style="fill: #9467bd"/>
   </g>
   <g id="patch_284">
    <path d="M 200.923538 386.96 
L 202.277554 386.96 
L 202.277554 294.56 
L 200.923538 294.56 
z
" clip-path="url(#pc18190ee0b)" style="fill: #9467bd"/>
   </g>
   <g id="patch_285">
    <path d="M 202.616059 417.76 
L 203.970075 417.76 
L 203.970075 325.36 
L 202.616059 325.36 
z
" clip-path="url(#pc18190ee0b)" style="fill: #9467bd"/>
   </g>
   <g id="patch_286">
    <path d="M 204.30858 417.76 
L 205.662596 417.76 
L 205.662596 294.56 
L 204.30858 294.56 
z
" clip-path="url(#pc18190ee0b)" style="fill: #9467bd"/>
   </g>
   <g id="patch_287">
    <path d="M 206.001101 386.96 
L 207.355117 386.96 
L 207.355117 325.36 
L 206.001101 325.36 
z
" clip-path="url(#pc18190ee0b)" style="fill: #9467bd"/>
   </g>
   <g id="patch_288">
    <path d="M 207.693622 386.96 
L 209.047638 386.96 
L 209.047638 294.56 
L 207.693622 294.56 
z
" clip-path="url(#pc18190ee0b)" style="fill: #9467bd"/>
   </g>
   <g id="patch_289">
    <path d="M 209.386143 386.96 
L 210.740159 386.96 
L 210.740159 386.96 
L 209.386143 386.96 
z
" clip-path="url(#pc18190ee0b)" style="fill: #9467bd"/>
   </g>
   <g id="patch_290">
    <path d="M 211.078664 386.96 
L 212.43268 386.96 
L 212.43268 232.96 
L 211.078664 232.96 
z
" clip-path="url(#pc18190ee0b)" style="fill: #9467bd"/>
   </g>
   <g id="patch_291">
    <path d="M 212.771185 386.96 
L 214.125201 386.96 
L 214.125201 232.96 
L 212.771185 232.96 
z
" clip-path="url(#pc18190ee0b)" style="fill: #9467bd"/>
   </g>
   <g id="patch_292">
    <path d="M 214.463706 356.16 
L 215.817723 356.16 
L 215.817723 325.36 
L 214.463706 325.36 
z
" clip-path="url(#pc18190ee0b)" style="fill: #9467bd"/>
   </g>
   <g id="patch_293">
    <path d="M 216.156227 356.16 
L 217.510244 356.16 
L 217.510244 171.36 
L 216.156227 171.36 
z
" clip-path="url(#pc18190ee0b)" style="fill: #9467bd"/>
   </g>
   <g id="patch_294">
    <path d="M 217.848748 356.16 
L 219.202765 356.16 
L 219.202765 294.56 
L 217.848748 294.56 
z
" clip-path="url(#pc18190ee0b)" style="fill: #9467bd"/>
   </g>
   <g id="patch_295">
    <path d="M 219.541269 386.96 
L 220.895286 386.96 
L 220.895286 356.16 
L 219.541269 356.16 
z
" clip-path="url(#pc18190ee0b)" style="fill: #9467bd"/>
   </g>
   <g id="patch_296">
    <path d="M 221.23379 417.76 
L 222.587807 417.76 
L 222.587807 325.36 
L 221.23379 325.36 
z
" clip-path="url(#pc18190ee0b)" style="fill: #9467bd"/>
   </g>
   <g id="patch_297">
    <path d="M 222.926311 386.96 
L 224.280328 386.96 
L 224.280328 356.16 
L 222.926311 356.16 
z
" clip-path="url(#pc18190ee0b)" style="fill: #9467bd"/>
   </g>
   <g id="patch_298">
    <path d="M 224.618832 417.76 
L 225.972849 417.76 
L 225.972849 263.76 
L 224.618832 263.76 
z
" clip-path="url(#pc18190ee0b)" style="fill: #9467bd"/>
   </g>
   <g id="patch_299">
    <path d="M 226.311353 417.76 
L 227.66537 417.76 
L 227.66537 356.16 
L 226.311353 356.16 
z
" clip-path="url(#pc18190ee0b)" style="fill: #9467bd"/>
   </g>
   <g id="patch_300">
    <path d="M 228.003874 417.76 
L 229.357891 417.76 
L 229.357891 417.76 
L 228.003874 417.76 
z
" clip-path="url(#pc18190ee0b)" style="fill: #9467bd"/>
   </g>
   <g id="patch_301">
    <path d="M 229.696395 417.76 
L 231.050412 417.76 
L 231.050412 263.76 
L 229.696395 263.76 
z
" clip-path="url(#pc18190ee0b)" style="fill: #9467bd"/>
   </g>
   <g id="patch_302">
    <path d="M 231.388916 386.96 
L 232.742933 386.96 
L 232.742933 325.36 
L 231.388916 325.36 
z
" clip-path="url(#pc18190ee0b)" style="fill: #9467bd"/>
   </g>
   <g id="patch_303">
    <path d="M 233.081437 417.76 
L 234.435454 417.76 
L 234.435454 417.76 
L 233.081437 417.76 
z
" clip-path="url(#pc18190ee0b)" style="fill: #9467bd"/>
   </g>
   <g id="patch_304">
    <path d="M 234.773958 356.16 
L 236.127975 356.16 
L 236.127975 325.36 
L 234.773958 325.36 
z
" clip-path="url(#pc18190ee0b)" style="fill: #9467bd"/>
   </g>
   <g id="patch_305">
    <path d="M 236.466479 448.56 
L 237.820496 448.56 
L 237.820496 325.36 
L 236.466479 325.36 
z
" clip-path="url(#pc18190ee0b)" style="fill: #9467bd"/>
   </g>
   <g id="patch_306">
    <path d="M 238.159 386.96 
L 239.513017 386.96 
L 239.513017 325.36 
L 238.159 325.36 
z
" clip-path="url(#pc18190ee0b)" style="fill: #9467bd"/>
   </g>
   <g id="patch_307">
    <path d="M 239.851521 448.56 
L 241.205538 448.56 
L 241.205538 386.96 
L 239.851521 386.96 
z
" clip-path="url(#pc18190ee0b)" style="fill: #9467bd"/>
   </g>
   <g id="patch_308">
    <path d="M 241.544042 417.76 
L 242.898059 417.76 
L 242.898059 325.36 
L 241.544042 325.36 
z
" clip-path="url(#pc18190ee0b)" style="fill: #9467bd"/>
   </g>
   <g id="patch_309">
    <path d="M 243.236563 386.96 
L 244.59058 386.96 
L 244.59058 263.76 
L 243.236563 263.76 
z
" clip-path="url(#pc18190ee0b)" style="fill: #9467bd"/>
   </g>
   <g id="patch_310">
    <path d="M 244.929084 417.76 
L 246.283101 417.76 
L 246.283101 417.76 
L 244.929084 417.76 
z
" clip-path="url(#pc18190ee0b)" style="fill: #9467bd"/>
   </g>
   <g id="patch_311">
    <path d="M 246.621605 417.76 
L 247.975622 417.76 
L 247.975622 417.76 
L 246.621605 417.76 
z
" clip-path="url(#pc18190ee0b)" style="fill: #9467bd"/>
   </g>
   <g id="patch_312">
    <path d="M 248.314126 448.56 
L 249.668143 448.56 
L 249.668143 417.76 
L 248.314126 417.76 
z
" clip-path="url(#pc18190ee0b)" style="fill: #9467bd"/>
   </g>
   <g id="patch_313">
    <path d="M 250.006647 448.56 
L 251.360664 448.56 
L 251.360664 448.56 
L 250.006647 448.56 
z
" clip-path="url(#pc18190ee0b)" style="fill: #9467bd"/>
   </g>
   <g id="patch_314">
    <path d="M 251.699168 417.76 
L 253.053185 417.76 
L 253.053185 294.56 
L 251.699168 294.56 
z
" clip-path="url(#pc18190ee0b)" style="fill: #9467bd"/>
   </g>
   <g id="patch_315">
    <path d="M 253.391689 448.56 
L 254.745706 448.56 
L 254.745706 417.76 
L 253.391689 417.76 
z
" clip-path="url(#pc18190ee0b)" style="fill: #9467bd"/>
   </g>
   <g id="patch_316">
    <path d="M 255.08421 448.56 
L 256.438227 448.56 
L 256.438227 356.16 
L 255.08421 356.16 
z
" clip-path="url(#pc18190ee0b)" style="fill: #9467bd"/>
   </g>
   <g id="patch_317">
    <path d="M 256.776731 417.76 
L 258.130748 417.76 
L 258.130748 386.96 
L 256.776731 386.96 
z
" clip-path="url(#pc18190ee0b)" style="fill: #9467bd"/>
   </g>
   <g id="patch_318">
    <path d="M 258.469252 448.56 
L 259.823269 448.56 
L 259.823269 448.56 
L 258.469252 448.56 
z
" clip-path="url(#pc18190ee0b)" style="fill: #9467bd"/>
   </g>
   <g id="patch_319">
    <path d="M 260.161773 448.56 
L 261.51579 448.56 
L 261.51579 448.56 
L 260.161773 448.56 
z
" clip-path="url(#pc18190ee0b)" style="fill: #9467bd"/>
   </g>
   <g id="patch_320">
    <path d="M 261.854294 448.56 
L 263.208311 448.56 
L 263.208311 386.96 
L 261.854294 386.96 
z
" clip-path="url(#pc18190ee0b)" style="fill: #9467bd"/>
   </g>
   <g id="patch_321">
    <path d="M 263.546815 386.96 
L 264.900832 386.96 
L 264.900832 294.56 
L 263.546815 294.56 
z
" clip-path="url(#pc18190ee0b)" style="fill: #9467bd"/>
   </g>
   <g id="patch_322">
    <path d="M 265.239336 417.76 
L 266.593353 417.76 
L 266.593353 386.96 
L 265.239336 386.96 
z
" clip-path="url(#pc18190ee0b)" style="fill: #9467bd"/>
   </g>
   <g id="patch_323">
    <path d="M 266.931857 448.56 
L 268.285874 448.56 
L 268.285874 417.76 
L 266.931857 417.76 
z
" clip-path="url(#pc18190ee0b)" style="fill: #9467bd"/>
   </g>
   <g id="patch_324">
    <path d="M 268.624378 448.56 
L 269.978395 448.56 
L 269.978395 448.56 
L 268.624378 448.56 
z
" clip-path="url(#pc18190ee0b)" style="fill: #9467bd"/>
   </g>
   <g id="patch_325">
    <path d="M 270.316899 448.56 
L 271.670916 448.56 
L 271.670916 448.56 
L 270.316899 448.56 
z
" clip-path="url(#pc18190ee0b)" style="fill: #9467bd"/>
   </g>
   <g id="patch_326">
    <path d="M 272.00942 448.56 
L 273.363437 448.56 
L 273.363437 386.96 
L 272.00942 386.96 
z
" clip-path="url(#pc18190ee0b)" style="fill: #9467bd"/>
   </g>
   <g id="patch_327">
    <path d="M 273.701941 448.56 
L 275.055958 448.56 
L 275.055958 417.76 
L 273.701941 417.76 
z
" clip-path="url(#pc18190ee0b)" style="fill: #9467bd"/>
   </g>
   <g id="patch_328">
    <path d="M 275.394462 448.56 
L 276.748479 448.56 
L 276.748479 417.76 
L 275.394462 417.76 
z
" clip-path="url(#pc18190ee0b)" style="fill: #9467bd"/>
   </g>
   <g id="patch_329">
    <path d="M 277.086983 448.56 
L 278.441 448.56 
L 278.441 448.56 
L 277.086983 448.56 
z
" clip-path="url(#pc18190ee0b)" style="fill: #9467bd"/>
   </g>
   <g id="patch_330">
    <path d="M 278.779504 448.56 
L 280.133521 448.56 
L 280.133521 448.56 
L 278.779504 448.56 
z
" clip-path="url(#pc18190ee0b)" style="fill: #9467bd"/>
   </g>
   <g id="patch_331">
    <path d="M 280.472025 448.56 
L 281.826042 448.56 
L 281.826042 448.56 
L 280.472025 448.56 
z
" clip-path="url(#pc18190ee0b)" style="fill: #9467bd"/>
   </g>
   <g id="patch_332">
    <path d="M 282.164546 448.56 
L 283.518563 448.56 
L 283.518563 417.76 
L 282.164546 417.76 
z
" clip-path="url(#pc18190ee0b)" style="fill: #9467bd"/>
   </g>
   <g id="patch_333">
    <path d="M 283.857067 448.56 
L 285.211084 448.56 
L 285.211084 417.76 
L 283.857067 417.76 
z
" clip-path="url(#pc18190ee0b)" style="fill: #9467bd"/>
   </g>
   <g id="patch_334">
    <path d="M 285.549588 448.56 
L 286.903605 448.56 
L 286.903605 448.56 
L 285.549588 448.56 
z
" clip-path="url(#pc18190ee0b)" style="fill: #9467bd"/>
   </g>
   <g id="patch_335">
    <path d="M 287.242109 448.56 
L 288.596126 448.56 
L 288.596126 448.56 
L 287.242109 448.56 
z
" clip-path="url(#pc18190ee0b)" style="fill: #9467bd"/>
   </g>
   <g id="patch_336">
    <path d="M 288.93463 448.56 
L 290.288647 448.56 
L 290.288647 448.56 
L 288.93463 448.56 
z
" clip-path="url(#pc18190ee0b)" style="fill: #9467bd"/>
   </g>
   <g id="patch_337">
    <path d="M 290.627151 448.56 
L 291.981168 448.56 
L 291.981168 448.56 
L 290.627151 448.56 
z
" clip-path="url(#pc18190ee0b)" style="fill: #9467bd"/>
   </g>
   <g id="patch_338">
    <path d="M 292.319672 448.56 
L 293.673689 448.56 
L 293.673689 448.56 
L 292.319672 448.56 
z
" clip-path="url(#pc18190ee0b)" style="fill: #9467bd"/>
   </g>
   <g id="patch_339">
    <path d="M 294.012193 448.56 
L 295.36621 448.56 
L 295.36621 448.56 
L 294.012193 448.56 
z
" clip-path="url(#pc18190ee0b)" style="fill: #9467bd"/>
   </g>
   <g id="patch_340">
    <path d="M 295.704714 448.56 
L 297.058731 448.56 
L 297.058731 417.76 
L 295.704714 417.76 
z
" clip-path="url(#pc18190ee0b)" style="fill: #9467bd"/>
   </g>
   <g id="patch_341">
    <path d="M 297.397235 448.56 
L 298.751252 448.56 
L 298.751252 448.56 
L 297.397235 448.56 
z
" clip-path="url(#pc18190ee0b)" style="fill: #9467bd"/>
   </g>
   <g id="patch_342">
    <path d="M 299.089756 448.56 
L 300.443773 448.56 
L 300.443773 448.56 
L 299.089756 448.56 
z
" clip-path="url(#pc18190ee0b)" style="fill: #9467bd"/>
   </g>
   <g id="patch_343">
    <path d="M 300.782277 448.56 
L 302.136294 448.56 
L 302.136294 448.56 
L 300.782277 448.56 
z
" clip-path="url(#pc18190ee0b)" style="fill: #9467bd"/>
   </g>
   <g id="patch_344">
    <path d="M 302.474799 448.56 
L 303.828815 448.56 
L 303.828815 448.56 
L 302.474799 448.56 
z
" clip-path="url(#pc18190ee0b)" style="fill: #9467bd"/>
   </g>
   <g id="patch_345">
    <path d="M 304.16732 448.56 
L 305.521336 448.56 
L 305.521336 448.56 
L 304.16732 448.56 
z
" clip-path="url(#pc18190ee0b)" style="fill: #9467bd"/>
   </g>
   <g id="patch_346">
    <path d="M 305.859841 448.56 
L 307.213857 448.56 
L 307.213857 448.56 
L 305.859841 448.56 
z
" clip-path="url(#pc18190ee0b)" style="fill: #9467bd"/>
   </g>
   <g id="patch_347">
    <path d="M 307.552362 448.56 
L 308.906378 448.56 
L 308.906378 448.56 
L 307.552362 448.56 
z
" clip-path="url(#pc18190ee0b)" style="fill: #9467bd"/>
   </g>
   <g id="patch_348">
    <path d="M 309.244883 448.56 
L 310.598899 448.56 
L 310.598899 448.56 
L 309.244883 448.56 
z
" clip-path="url(#pc18190ee0b)" style="fill: #9467bd"/>
   </g>
   <g id="patch_349">
    <path d="M 310.937404 448.56 
L 312.29142 448.56 
L 312.29142 448.56 
L 310.937404 448.56 
z
" clip-path="url(#pc18190ee0b)" style="fill: #9467bd"/>
   </g>
   <g id="patch_350">
    <path d="M 312.629925 448.56 
L 313.983941 448.56 
L 313.983941 448.56 
L 312.629925 448.56 
z
" clip-path="url(#pc18190ee0b)" style="fill: #9467bd"/>
   </g>
   <g id="patch_351">
    <path d="M 314.322446 448.56 
L 315.676462 448.56 
L 315.676462 448.56 
L 314.322446 448.56 
z
" clip-path="url(#pc18190ee0b)" style="fill: #9467bd"/>
   </g>
   <g id="patch_352">
    <path d="M 316.014967 448.56 
L 317.368983 448.56 
L 317.368983 448.56 
L 316.014967 448.56 
z
" clip-path="url(#pc18190ee0b)" style="fill: #9467bd"/>
   </g>
   <g id="patch_353">
    <path d="M 317.707488 448.56 
L 319.061504 448.56 
L 319.061504 448.56 
L 317.707488 448.56 
z
" clip-path="url(#pc18190ee0b)" style="fill: #9467bd"/>
   </g>
   <g id="patch_354">
    <path d="M 319.400009 448.56 
L 320.754025 448.56 
L 320.754025 448.56 
L 319.400009 448.56 
z
" clip-path="url(#pc18190ee0b)" style="fill: #9467bd"/>
   </g>
   <g id="patch_355">
    <path d="M 321.09253 448.56 
L 322.446546 448.56 
L 322.446546 448.56 
L 321.09253 448.56 
z
" clip-path="url(#pc18190ee0b)" style="fill: #9467bd"/>
   </g>
   <g id="patch_356">
    <path d="M 322.785051 448.56 
L 324.139068 448.56 
L 324.139068 448.56 
L 322.785051 448.56 
z
" clip-path="url(#pc18190ee0b)" style="fill: #9467bd"/>
   </g>
   <g id="patch_357">
    <path d="M 324.477572 448.56 
L 325.831589 448.56 
L 325.831589 448.56 
L 324.477572 448.56 
z
" clip-path="url(#pc18190ee0b)" style="fill: #9467bd"/>
   </g>
   <g id="patch_358">
    <path d="M 326.170093 448.56 
L 327.52411 448.56 
L 327.52411 448.56 
L 326.170093 448.56 
z
" clip-path="url(#pc18190ee0b)" style="fill: #9467bd"/>
   </g>
   <g id="patch_359">
    <path d="M 327.862614 448.56 
L 329.216631 448.56 
L 329.216631 448.56 
L 327.862614 448.56 
z
" clip-path="url(#pc18190ee0b)" style="fill: #9467bd"/>
   </g>
   <g id="patch_360">
    <path d="M 329.555135 448.56 
L 330.909152 448.56 
L 330.909152 448.56 
L 329.555135 448.56 
z
" clip-path="url(#pc18190ee0b)" style="fill: #9467bd"/>
   </g>
   <g id="patch_361">
    <path d="M 331.247656 448.56 
L 332.601673 448.56 
L 332.601673 448.56 
L 331.247656 448.56 
z
" clip-path="url(#pc18190ee0b)" style="fill: #9467bd"/>
   </g>
   <g id="patch_362">
    <path d="M 332.940177 448.56 
L 334.294194 448.56 
L 334.294194 448.56 
L 332.940177 448.56 
z
" clip-path="url(#pc18190ee0b)" style="fill: #9467bd"/>
   </g>
   <g id="patch_363">
    <path d="M 334.632698 448.56 
L 335.986715 448.56 
L 335.986715 448.56 
L 334.632698 448.56 
z
" clip-path="url(#pc18190ee0b)" style="fill: #9467bd"/>
   </g>
   <g id="patch_364">
    <path d="M 336.325219 448.56 
L 337.679236 448.56 
L 337.679236 448.56 
L 336.325219 448.56 
z
" clip-path="url(#pc18190ee0b)" style="fill: #9467bd"/>
   </g>
   <g id="patch_365">
    <path d="M 338.01774 448.56 
L 339.371757 448.56 
L 339.371757 448.56 
L 338.01774 448.56 
z
" clip-path="url(#pc18190ee0b)" style="fill: #9467bd"/>
   </g>
   <g id="patch_366">
    <path d="M 339.710261 448.56 
L 341.064278 448.56 
L 341.064278 448.56 
L 339.710261 448.56 
z
" clip-path="url(#pc18190ee0b)" style="fill: #9467bd"/>
   </g>
   <g id="patch_367">
    <path d="M 341.402782 448.56 
L 342.756799 448.56 
L 342.756799 448.56 
L 341.402782 448.56 
z
" clip-path="url(#pc18190ee0b)" style="fill: #9467bd"/>
   </g>
   <g id="patch_368">
    <path d="M 343.095303 448.56 
L 344.44932 448.56 
L 344.44932 448.56 
L 343.095303 448.56 
z
" clip-path="url(#pc18190ee0b)" style="fill: #9467bd"/>
   </g>
   <g id="patch_369">
    <path d="M 344.787824 448.56 
L 346.141841 448.56 
L 346.141841 448.56 
L 344.787824 448.56 
z
" clip-path="url(#pc18190ee0b)" style="fill: #9467bd"/>
   </g>
   <g id="patch_370">
    <path d="M 346.480345 448.56 
L 347.834362 448.56 
L 347.834362 448.56 
L 346.480345 448.56 
z
" clip-path="url(#pc18190ee0b)" style="fill: #9467bd"/>
   </g>
   <g id="patch_371">
    <path d="M 348.172866 448.56 
L 349.526883 448.56 
L 349.526883 448.56 
L 348.172866 448.56 
z
" clip-path="url(#pc18190ee0b)" style="fill: #9467bd"/>
   </g>
   <g id="patch_372">
    <path d="M 349.865387 448.56 
L 351.219404 448.56 
L 351.219404 448.56 
L 349.865387 448.56 
z
" clip-path="url(#pc18190ee0b)" style="fill: #9467bd"/>
   </g>
   <g id="patch_373">
    <path d="M 351.557908 448.56 
L 352.911925 448.56 
L 352.911925 448.56 
L 351.557908 448.56 
z
" clip-path="url(#pc18190ee0b)" style="fill: #9467bd"/>
   </g>
   <g id="patch_374">
    <path d="M 353.250429 448.56 
L 354.604446 448.56 
L 354.604446 448.56 
L 353.250429 448.56 
z
" clip-path="url(#pc18190ee0b)" style="fill: #9467bd"/>
   </g>
   <g id="patch_375">
    <path d="M 354.94295 448.56 
L 356.296967 448.56 
L 356.296967 448.56 
L 354.94295 448.56 
z
" clip-path="url(#pc18190ee0b)" style="fill: #9467bd"/>
   </g>
   <g id="patch_376">
    <path d="M 356.635471 448.56 
L 357.989488 448.56 
L 357.989488 448.56 
L 356.635471 448.56 
z
" clip-path="url(#pc18190ee0b)" style="fill: #9467bd"/>
   </g>
   <g id="patch_377">
    <path d="M 358.327992 448.56 
L 359.682009 448.56 
L 359.682009 448.56 
L 358.327992 448.56 
z
" clip-path="url(#pc18190ee0b)" style="fill: #9467bd"/>
   </g>
   <g id="patch_378">
    <path d="M 360.020513 448.56 
L 361.37453 448.56 
L 361.37453 448.56 
L 360.020513 448.56 
z
" clip-path="url(#pc18190ee0b)" style="fill: #9467bd"/>
   </g>
   <g id="patch_379">
    <path d="M 361.713034 448.56 
L 363.067051 448.56 
L 363.067051 448.56 
L 361.713034 448.56 
z
" clip-path="url(#pc18190ee0b)" style="fill: #9467bd"/>
   </g>
   <g id="patch_380">
    <path d="M 363.405555 448.56 
L 364.759572 448.56 
L 364.759572 448.56 
L 363.405555 448.56 
z
" clip-path="url(#pc18190ee0b)" style="fill: #9467bd"/>
   </g>
   <g id="patch_381">
    <path d="M 365.098076 448.56 
L 366.452093 448.56 
L 366.452093 448.56 
L 365.098076 448.56 
z
" clip-path="url(#pc18190ee0b)" style="fill: #9467bd"/>
   </g>
   <g id="patch_382">
    <path d="M 366.790597 448.56 
L 368.144614 448.56 
L 368.144614 448.56 
L 366.790597 448.56 
z
" clip-path="url(#pc18190ee0b)" style="fill: #9467bd"/>
   </g>
   <g id="patch_383">
    <path d="M 368.483118 448.56 
L 369.837135 448.56 
L 369.837135 448.56 
L 368.483118 448.56 
z
" clip-path="url(#pc18190ee0b)" style="fill: #9467bd"/>
   </g>
   <g id="patch_384">
    <path d="M 370.175639 448.56 
L 371.529656 448.56 
L 371.529656 448.56 
L 370.175639 448.56 
z
" clip-path="url(#pc18190ee0b)" style="fill: #9467bd"/>
   </g>
   <g id="patch_385">
    <path d="M 371.86816 448.56 
L 373.222177 448.56 
L 373.222177 448.56 
L 371.86816 448.56 
z
" clip-path="url(#pc18190ee0b)" style="fill: #9467bd"/>
   </g>
   <g id="patch_386">
    <path d="M 373.560681 448.56 
L 374.914698 448.56 
L 374.914698 448.56 
L 373.560681 448.56 
z
" clip-path="url(#pc18190ee0b)" style="fill: #9467bd"/>
   </g>
   <g id="patch_387">
    <path d="M 375.253202 448.56 
L 376.607219 448.56 
L 376.607219 448.56 
L 375.253202 448.56 
z
" clip-path="url(#pc18190ee0b)" style="fill: #9467bd"/>
   </g>
   <g id="patch_388">
    <path d="M 376.945723 448.56 
L 378.29974 448.56 
L 378.29974 448.56 
L 376.945723 448.56 
z
" clip-path="url(#pc18190ee0b)" style="fill: #9467bd"/>
   </g>
   <g id="patch_389">
    <path d="M 378.638244 448.56 
L 379.992261 448.56 
L 379.992261 448.56 
L 378.638244 448.56 
z
" clip-path="url(#pc18190ee0b)" style="fill: #9467bd"/>
   </g>
   <g id="patch_390">
    <path d="M 380.330765 448.56 
L 381.684782 448.56 
L 381.684782 448.56 
L 380.330765 448.56 
z
" clip-path="url(#pc18190ee0b)" style="fill: #9467bd"/>
   </g>
   <g id="patch_391">
    <path d="M 382.023286 448.56 
L 383.377303 448.56 
L 383.377303 448.56 
L 382.023286 448.56 
z
" clip-path="url(#pc18190ee0b)" style="fill: #9467bd"/>
   </g>
   <g id="patch_392">
    <path d="M 383.715807 448.56 
L 385.069824 448.56 
L 385.069824 448.56 
L 383.715807 448.56 
z
" clip-path="url(#pc18190ee0b)" style="fill: #9467bd"/>
   </g>
   <g id="patch_393">
    <path d="M 385.408328 448.56 
L 386.762345 448.56 
L 386.762345 448.56 
L 385.408328 448.56 
z
" clip-path="url(#pc18190ee0b)" style="fill: #9467bd"/>
   </g>
   <g id="patch_394">
    <path d="M 387.100849 448.56 
L 388.454866 448.56 
L 388.454866 448.56 
L 387.100849 448.56 
z
" clip-path="url(#pc18190ee0b)" style="fill: #9467bd"/>
   </g>
   <g id="patch_395">
    <path d="M 388.79337 448.56 
L 390.147387 448.56 
L 390.147387 448.56 
L 388.79337 448.56 
z
" clip-path="url(#pc18190ee0b)" style="fill: #9467bd"/>
   </g>
   <g id="patch_396">
    <path d="M 390.485891 448.56 
L 391.839908 448.56 
L 391.839908 448.56 
L 390.485891 448.56 
z
" clip-path="url(#pc18190ee0b)" style="fill: #9467bd"/>
   </g>
   <g id="patch_397">
    <path d="M 392.178412 448.56 
L 393.532429 448.56 
L 393.532429 448.56 
L 392.178412 448.56 
z
" clip-path="url(#pc18190ee0b)" style="fill: #9467bd"/>
   </g>
   <g id="patch_398">
    <path d="M 393.870933 448.56 
L 395.22495 448.56 
L 395.22495 448.56 
L 393.870933 448.56 
z
" clip-path="url(#pc18190ee0b)" style="fill: #9467bd"/>
   </g>
   <g id="patch_399">
    <path d="M 395.563454 448.56 
L 396.917471 448.56 
L 396.917471 448.56 
L 395.563454 448.56 
z
" clip-path="url(#pc18190ee0b)" style="fill: #9467bd"/>
   </g>
   <g id="patch_400">
    <path d="M 397.255975 448.56 
L 398.609992 448.56 
L 398.609992 448.56 
L 397.255975 448.56 
z
" clip-path="url(#pc18190ee0b)" style="fill: #9467bd"/>
   </g>
   <g id="patch_401">
    <path d="M 398.948496 448.56 
L 400.302513 448.56 
L 400.302513 448.56 
L 398.948496 448.56 
z
" clip-path="url(#pc18190ee0b)" style="fill: #9467bd"/>
   </g>
   <g id="patch_402">
    <path d="M 400.641017 448.56 
L 401.995034 448.56 
L 401.995034 448.56 
L 400.641017 448.56 
z
" clip-path="url(#pc18190ee0b)" style="fill: #9467bd"/>
   </g>
   <g id="patch_403">
    <path d="M 402.333538 448.56 
L 403.687555 448.56 
L 403.687555 448.56 
L 402.333538 448.56 
z
" clip-path="url(#pc18190ee0b)" style="fill: #9467bd"/>
   </g>
   <g id="patch_404">
    <path d="M 404.026059 448.56 
L 405.380076 448.56 
L 405.380076 448.56 
L 404.026059 448.56 
z
" clip-path="url(#pc18190ee0b)" style="fill: #9467bd"/>
   </g>
   <g id="patch_405">
    <path d="M 405.71858 448.56 
L 407.072597 448.56 
L 407.072597 448.56 
L 405.71858 448.56 
z
" clip-path="url(#pc18190ee0b)" style="fill: #9467bd"/>
   </g>
   <g id="patch_406">
    <path d="M 407.411101 448.56 
L 408.765118 448.56 
L 408.765118 448.56 
L 407.411101 448.56 
z
" clip-path="url(#pc18190ee0b)" style="fill: #9467bd"/>
   </g>
   <g id="patch_407">
    <path d="M 409.103622 448.56 
L 410.457639 448.56 
L 410.457639 448.56 
L 409.103622 448.56 
z
" clip-path="url(#pc18190ee0b)" style="fill: #9467bd"/>
   </g>
   <g id="patch_408">
    <path d="M 410.796144 448.56 
L 412.15016 448.56 
L 412.15016 448.56 
L 410.796144 448.56 
z
" clip-path="url(#pc18190ee0b)" style="fill: #9467bd"/>
   </g>
   <g id="patch_409">
    <path d="M 412.488665 448.56 
L 413.842681 448.56 
L 413.842681 448.56 
L 412.488665 448.56 
z
" clip-path="url(#pc18190ee0b)" style="fill: #9467bd"/>
   </g>
   <g id="patch_410">
    <path d="M 414.181186 448.56 
L 415.535202 448.56 
L 415.535202 448.56 
L 414.181186 448.56 
z
" clip-path="url(#pc18190ee0b)" style="fill: #9467bd"/>
   </g>
   <g id="patch_411">
    <path d="M 415.873707 448.56 
L 417.227723 448.56 
L 417.227723 448.56 
L 415.873707 448.56 
z
" clip-path="url(#pc18190ee0b)" style="fill: #9467bd"/>
   </g>
   <g id="patch_412">
    <path d="M 417.566228 448.56 
L 418.920244 448.56 
L 418.920244 448.56 
L 417.566228 448.56 
z
" clip-path="url(#pc18190ee0b)" style="fill: #9467bd"/>
   </g>
   <g id="patch_413">
    <path d="M 419.258749 448.56 
L 420.612765 448.56 
L 420.612765 448.56 
L 419.258749 448.56 
z
" clip-path="url(#pc18190ee0b)" style="fill: #9467bd"/>
   </g>
   <g id="patch_414">
    <path d="M 420.95127 448.56 
L 422.305286 448.56 
L 422.305286 448.56 
L 420.95127 448.56 
z
" clip-path="url(#pc18190ee0b)" style="fill: #9467bd"/>
   </g>
   <g id="patch_415">
    <path d="M 422.643791 448.56 
L 423.997807 448.56 
L 423.997807 448.56 
L 422.643791 448.56 
z
" clip-path="url(#pc18190ee0b)" style="fill: #9467bd"/>
   </g>
   <g id="patch_416">
    <path d="M 424.336312 448.56 
L 425.690328 448.56 
L 425.690328 448.56 
L 424.336312 448.56 
z
" clip-path="url(#pc18190ee0b)" style="fill: #9467bd"/>
   </g>
   <g id="patch_417">
    <path d="M 426.028833 448.56 
L 427.382849 448.56 
L 427.382849 448.56 
L 426.028833 448.56 
z
" clip-path="url(#pc18190ee0b)" style="fill: #9467bd"/>
   </g>
   <g id="patch_418">
    <path d="M 427.721354 448.56 
L 429.07537 448.56 
L 429.07537 448.56 
L 427.721354 448.56 
z
" clip-path="url(#pc18190ee0b)" style="fill: #9467bd"/>
   </g>
   <g id="patch_419">
    <path d="M 429.413875 448.56 
L 430.767891 448.56 
L 430.767891 448.56 
L 429.413875 448.56 
z
" clip-path="url(#pc18190ee0b)" style="fill: #9467bd"/>
   </g>
   <g id="patch_420">
    <path d="M 431.106396 448.56 
L 432.460413 448.56 
L 432.460413 448.56 
L 431.106396 448.56 
z
" clip-path="url(#pc18190ee0b)" style="fill: #9467bd"/>
   </g>
   <g id="patch_421">
    <path d="M 432.798917 448.56 
L 434.152934 448.56 
L 434.152934 448.56 
L 432.798917 448.56 
z
" clip-path="url(#pc18190ee0b)" style="fill: #9467bd"/>
   </g>
   <g id="patch_422">
    <path d="M 434.491438 448.56 
L 435.845455 448.56 
L 435.845455 448.56 
L 434.491438 448.56 
z
" clip-path="url(#pc18190ee0b)" style="fill: #9467bd"/>
   </g>
   <g id="patch_423">
    <path d="M 63 448.56 
L 63 60.48 
" style="fill: none; stroke: #000000; stroke-width: 0.8; stroke-linejoin: miter; stroke-linecap: square"/>
   </g>
   <g id="patch_424">
    <path d="M 63 448.56 
L 453.6 448.56 
" style="fill: none; stroke: #000000; stroke-width: 0.8; stroke-linejoin: miter; stroke-linecap: square"/>
   </g>
   <g id="line2d_13">
    <path d="M 81.431554 417.76 
L 83.124075 448.56 
L 86.509117 448.45605 
L 89.894159 446.88525 
L 91.58668 444.89095 
L 93.279201 412.5317 
L 94.971722 442.65795 
L 96.664243 412.45085 
L 98.356764 443.4472 
L 100.049285 443.401 
L 101.741806 443.65895 
L 103.434327 442.554 
L 105.126848 409.5903 
L 106.819369 408.2505 
L 108.51189 374.73625 
L 110.204411 433.87995 
L 111.896932 403.3071 
L 113.589453 433.77985 
L 115.281974 430.86155 
L 116.974495 430.773 
L 118.667016 429.92215 
L 120.359537 428.87495 
L 122.052058 426.64965 
L 123.744579 426.4995 
L 125.4371 425.84885 
L 127.129621 423.56195 
L 128.822142 392.658 
L 130.514663 425.2983 
L 132.207184 425.7449 
L 133.899705 332.6442 
L 135.592226 425.23285 
L 137.284747 395.4531 
L 138.977268 425.2213 
L 140.669789 424.36275 
L 144.054831 359.8945 
L 145.747352 420.301 
L 147.439873 419.2076 
L 149.132394 417.144 
L 150.824916 383.264 
L 152.517437 381.9011 
L 154.209958 381.38135 
L 155.902479 409.5518 
L 157.595 374.9711 
L 159.287521 405.16665 
L 160.980042 342.77355 
L 162.672563 403.49575 
L 164.365084 339.0968 
L 166.057605 403.09535 
L 167.750126 400.3811 
L 169.442647 363.55585 
L 171.135168 391.8418 
L 172.827689 325.13285 
L 174.52021 286.9139 
L 176.212731 312.87445 
L 177.905252 345.6264 
L 179.597773 280.77315 
L 181.290294 312.8321 
L 182.982815 375.49855 
L 184.675336 340.8216 
L 186.367857 270.90175 
L 188.060378 268.48395 
L 189.752899 293.35495 
L 191.44542 291.79955 
L 193.137941 290.54445 
L 194.830462 285.4894 
L 196.522983 282.19765 
L 198.215504 249.69595 
L 199.908025 219.5851 
L 201.600546 289.8938 
L 203.293067 320.9171 
L 204.985588 326.515 
L 206.678109 292.99305 
L 208.37063 292.8737 
L 211.755672 289.1392 
L 213.448193 288.1074 
L 215.140714 255.97915 
L 216.833235 254.96275 
L 218.525756 257.44985 
L 220.218277 300.39275 
L 221.910798 338.1266 
L 223.603319 311.4384 
L 225.29584 346.4503 
L 226.988361 349.0606 
L 228.680882 354.26965 
L 230.373403 354.70855 
L 232.065924 327.51985 
L 233.758445 358.3083 
L 235.450966 299.69975 
L 237.143487 394.08635 
L 238.836008 337.4336 
L 240.528529 403.3225 
L 242.22105 374.53605 
L 243.913571 347.98645 
L 245.606092 381.86645 
L 247.298613 385.18515 
L 248.991134 419.9853 
L 250.683655 423.26165 
L 252.376176 393.5666 
L 254.068697 429.1406 
L 255.761218 429.98375 
L 257.453739 398.9412 
L 259.146261 433.5681 
L 260.838782 433.42565 
L 262.531303 433.61815 
L 264.223824 373.61975 
L 267.608866 438.8888 
L 269.301387 439.4201 
L 270.993908 440.37105 
L 272.686429 442.2152 
L 274.37895 442.8158 
L 276.071471 443.09685 
L 277.763992 443.92845 
L 279.456513 444.21335 
L 281.149034 443.81295 
L 282.841555 444.5868 
L 284.534076 444.86785 
L 289.611639 446.3039 
L 291.30416 446.36165 
L 292.996681 446.80055 
L 294.689202 447.3665 
L 296.381723 447.27025 
L 299.766765 447.2741 
L 301.459286 447.93245 
L 304.844328 447.73995 
L 306.536849 448.0826 
L 313.306933 448.0518 
L 314.999454 448.35595 
L 318.384496 448.2366 
L 321.769538 448.3367 
L 323.462059 448.28665 
L 326.847101 448.44835 
L 328.539622 448.42525 
L 331.924664 448.4984 
L 333.617185 448.41755 
L 337.002227 448.54845 
L 342.07979 448.44065 
L 345.464832 448.54845 
L 347.157353 448.47915 
L 350.542395 448.55615 
L 435.168446 448.56 
L 435.168446 448.56 
" clip-path="url(#pc18190ee0b)" style="fill: none; stroke: #0173b2; stroke-width: 2; stroke-linecap: square"/>
   </g>
   <g id="legend_1">
    <g id="patch_425">
     <path d="M 291.630938 132.096289 
L 443.8 132.096289 
Q 446.6 132.096289 446.6 129.296289 
L 446.6 70.28 
Q 446.6 67.48 443.8 67.48 
L 291.630938 67.48 
Q 288.830938 67.48 288.830938 70.28 
L 288.830938 129.296289 
Q 288.830938 132.096289 291.630938 132.096289 
z
" style="fill: #ffffff; opacity: 0.8; stroke: #cccccc; stroke-linejoin: miter"/>
    </g>
    <g id="line2d_14">
     <path d="M 294.430938 78.372383 
L 308.430938 78.372383 
L 322.430938 78.372383 
" style="fill: none; stroke: #0173b2; stroke-width: 2; stroke-linecap: square"/>
    </g>
    <g id="text_15">
     <text style="font-size: 14px; font-family: 'Arial', sans-serif; text-anchor: start" x="333.630938" y="83.272383" transform="rotate(-0 333.630938 83.272383)">Inferred true</text>
    </g>
    <g id="patch_426">
     <path d="M 294.430938 103.411055 
L 322.430938 103.411055 
L 322.430938 93.611055 
L 294.430938 93.611055 
z
" style="fill: #7f7f7f"/>
    </g>
    <g id="text_16">
     <text style="font-size: 14px; font-family: 'Arial', sans-serif; text-anchor: start" x="333.630938" y="103.411055" transform="rotate(-0 333.630938 103.411055)">Reported</text>
    </g>
    <g id="patch_427">
     <path d="M 294.430938 123.549727 
L 322.430938 123.549727 
L 322.430938 113.749727 
L 294.430938 113.749727 
z
" style="fill: #9467bd"/>
    </g>
    <g id="text_17">
     <text style="font-size: 14px; font-family: 'Arial', sans-serif; text-anchor: start" x="333.630938" y="123.549727" transform="rotate(-0 333.630938 123.549727)">Unreported (true)</text>
    </g>
   </g>
  </g>
 </g>
 <defs>
  <clipPath id="pc18190ee0b">
   <rect x="63" y="60.48" width="390.6" height="388.08"/>
  </clipPath>
 </defs>
</svg>
