<?xml version="1.0" encoding="utf-8" standalone="no"?>
<!DOCTYPE svg PUBLIC "-//W3C//DTD SVG 1.1//EN"
  "http://www.w3.org/Graphics/SVG/1.1/DTD/svg11.dtd">
<svg xmlns:xlink="http://www.w3.org/1999/xlink" width="504pt" height="504pt" viewBox="0 0 504 504" xmlns="http://www.w3.org/2000/svg" version="1.1">
 <metadata>
  <rdf:RDF xmlns:dc="http://purl.org/dc/elements/1.1/" xmlns:cc="http://creativecommons.org/ns#" xmlns:rdf="http://www.w3.org/1999/02/22-rdf-syntax-ns#">
   <cc:Work>
    <dc:type rdf:resource="http://purl.org/dc/dcmitype/StillImage"/>
    <dc:date>2026-07-04T09:27:35.924955</dc:date>
    <dc:format>image/svg+xml</dc:format>
    <dc:creator>
     <cc:Agent>
      <dc:title>Matplotlib v3.11.0, https://matplotlib.org/</dc:title>
     </cc:Agent>
    </dc:creator>
   </cc:Work>
  </rdf:RDF>
 </metadata>
 <defs>
  <style type="text/css">*{stroke-linejoin: round; stroke-linecap: butt}</style>
 </defs>
 <g id="figure_1">
  <g id="patch_1">
   <path d="M 0 504 
L 504 504 
L 504 0 
L 0 0 
L 0 504 
z
" style="fill: none"/>
  </g>
  <g id="axes_1">
   <g id="patch_2">
    <path d="M 63 448.56 
L 453.6 448.56 
L 453.6 60.48 
L 63 60.48 
L 63 448.56 
z
" style="fill: none"/>
   </g>
   <g id="matplotlib.axis_1">
    <g id="xtick_1">
     <g id="line2d_1">
      <defs>
       <path id="m654a22ce6b" d="M 0 0 
L 0 3.5 
" style="stroke: #000000; stroke-width: 0.8"/>
      </defs>
      <g>
       <use xlink:href="#m654a22ce6b" x="137.963636" y="448.56" style="stroke: #000000; stroke-width: 0.8"/>
      </g>
     </g>
     <g id="text_1">
      <text style="font-size: 16px; font-family: 'Arial', sans-serif; text-anchor: middle" x="137.963636" y="467.71625" transform="rotate(-0 137.963636 467.71625)">2</text>
     </g>
    </g>
    <g id="xtick_2">
     <g id="line2d_2">
      <g>
       <use xlink:href="#m654a22ce6b" x="216.872727" y="448.56" style="stroke: #000000; stroke-width: 0.8"/>
      </g>
     </g>
     <g id="text_2">
      <text style="font-size: 16px; font-family: 'Arial', sans-serif; text-anchor: middle" x="216.872727" y="467.71625" transform="rotate(-0 216.872727 467.71625)">4</text>
     </g>
    </g>
    <g id="xtick_3">
     <g id="line2d_3">
      <g>
       <use xlink:href="#m654a22ce6b" x="295.781818" y="448.56" style="stroke: #000000; stroke-width: 0.8"/>
      </g>
     </g>
     <g id="text_3">
      <text style="font-size: 16px; font-family: 'Arial', sans-serif; text-anchor: middle" x="295.781818" y="467.71625" transform="rotate(-0 295.781818 467.71625)">6</text>
     </g>
    </g>
    <g id="xtick_4">
     <g id="line2d_4">
      <g>
       <use xlink:href="#m654a22ce6b" x="374.690909" y="448.56" style="stroke: #000000; stroke-width: 0.8"/>
      </g>
     </g>
     <g id="text_4">
      <text style="font-size: 16px; font-family: 'Arial', sans-serif; text-anchor: middle" x="374.690909" y="467.71625" transform="rotate(-0 374.690909 467.71625)">8</text>
     </g>
    </g>
    <g id="xtick_5">
     <g id="line2d_5">
      <g>
       <use xlink:href="#m654a22ce6b" x="453.6" y="448.56" style="stroke: #000000; stroke-width: 0.8"/>
      </g>
     </g>
     <g id="text_5">
      <text style="font-size: 16px; font-family: 'Arial', sans-serif; text-anchor: middle" x="453.6" y="467.71625" transform="rotate(-0 453.6 467.71625)">10</text>
     </g>
    </g>
    <g id="text_6">
     <text style="font-size: 16px; font-family: 'Arial', sans-serif; text-anchor: middle" x="258.3" y="487.7175" transform="rotate(-0 258.3 487.7175)">Risk threshold (%)</text>
    </g>
   </g>
   <g id="matplotlib.axis_2">
    <g id="ytick_1">
     <g id="line2d_6">
      <defs>
       <path id="mca32937c4c" d="M 0 0 
L -3.5 0 
" style="stroke: #000000; stroke-width: 0.8"/>
      </defs>
      <g>
       <use xlink:href="#mca32937c4c" x="63" y="448.56" style="stroke: #000000; stroke-width: 0.8"/>
      </g>
     </g>
     <g id="text_7">
      <text style="font-size: 16px; font-family: 'Arial', sans-serif; text-anchor: end" x="56" y="454.638125" transform="rotate(-0 56 454.638125)">0</text>
     </g>
    </g>
    <g id="ytick_2">
     <g id="line2d_7">
      <g>
       <use xlink:href="#mca32937c4c" x="63" y="397.995831" style="stroke: #000000; stroke-width: 0.8"/>
      </g>
     </g>
     <g id="text_8">
      <text style="font-size: 16px; font-family: 'Arial', sans-serif; text-anchor: end" x="56" y="404.073956" transform="rotate(-0 56 404.073956)">10</text>
     </g>
    </g>
    <g id="ytick_3">
     <g id="line2d_8">
      <g>
       <use xlink:href="#mca32937c4c" x="63" y="347.431661" style="stroke: #000000; stroke-width: 0.8"/>
      </g>
     </g>
     <g id="text_9">
      <text style="font-size: 16px; font-family: 'Arial', sans-serif; text-anchor: end" x="56" y="353.509786" transform="rotate(-0 56 353.509786)">20</text>
     </g>
    </g>
    <g id="ytick_4">
     <g id="line2d_9">
      <g>
       <use xlink:href="#mca32937c4c" x="63" y="296.867492" style="stroke: #000000; stroke-width: 0.8"/>
      </g>
     </g>
     <g id="text_10">
      <text style="font-size: 16px; font-family: 'Arial', sans-serif; text-anchor: end" x="56" y="302.945617" transform="rotate(-0 56 302.945617)">30</text>
     </g>
    </g>
    <g id="ytick_5">
     <g id="line2d_10">
      <g>
       <use xlink:href="#mca32937c4c" x="63" y="246.303322" style="stroke: #000000; stroke-width: 0.8"/>
      </g>
     </g>
     <g id="text_11">
      <text style="font-size: 16px; font-family: 'Arial', sans-serif; text-anchor: end" x="56" y="252.381447" transform="rotate(-0 56 252.381447)">40</text>
     </g>
    </g>
    <g id="ytick_6">
     <g id="line2d_11">
      <g>
       <use xlink:href="#mca32937c4c" x="63" y="195.739153" style="stroke: #000000; stroke-width: 0.8"/>
      </g>
     </g>
     <g id="text_12">
      <text style="font-size: 16px; font-family: 'Arial', sans-serif; text-anchor: end" x="56" y="201.817278" transform="rotate(-0 56 201.817278)">50</text>
     </g>
    </g>
    <g id="ytick_7">
     <g id="line2d_12">
      <g>
       <use xlink:href="#mca32937c4c" x="63" y="145.174984" style="stroke: #000000; stroke-width: 0.8"/>
      </g>
     </g>
     <g id="text_13">
      <text style="font-size: 16px; font-family: 'Arial', sans-serif; text-anchor: end" x="56" y="151.253109" transform="rotate(-0 56 151.253109)">60</text>
     </g>
    </g>
    <g id="ytick_8">
     <g id="line2d_13">
      <g>
       <use xlink:href="#mca32937c4c" x="63" y="94.610814" style="stroke: #000000; stroke-width: 0.8"/>
      </g>
     </g>
     <g id="text_14">
      <text style="font-size: 16px; font-family: 'Arial', sans-serif; text-anchor: end" x="56" y="100.688939" transform="rotate(-0 56 100.688939)">70</text>
     </g>
    </g>
    <g id="text_15">
     <text style="font-size: 16px; font-family: 'Arial', sans-serif" transform="translate(6.990312 370.52625) rotate(-90)">Days from last reported case</text>
     <text style="font-size: 16px; font-family: 'Arial', sans-serif" transform="translate(26.194687 374.39) rotate(-90)">until risk falls below threshold</text>
    </g>
   </g>
   <g id="line2d_14">
    <path d="M 63 215.964821 
L 66.906 221.021238 
L 70.812 226.077655 
L 74.718 231.134072 
L 78.624 236.190489 
L 82.53 236.190489 
L 86.436 236.190489 
L 90.342 241.246906 
L 94.248 241.246906 
L 98.154 241.246906 
L 102.06 246.303322 
L 105.966 246.303322 
L 109.872 246.303322 
L 113.778 246.303322 
L 117.684 246.303322 
L 121.59 251.359739 
L 125.496 251.359739 
L 129.402 251.359739 
L 133.308 251.359739 
L 137.214 251.359739 
L 141.12 251.359739 
L 145.026 256.416156 
L 148.932 256.416156 
L 152.838 256.416156 
L 156.744 256.416156 
L 160.65 256.416156 
L 164.556 256.416156 
L 168.462 256.416156 
L 172.368 256.416156 
L 176.274 256.416156 
L 180.18 261.472573 
L 184.086 261.472573 
L 187.992 261.472573 
L 191.898 261.472573 
L 195.804 261.472573 
L 199.71 261.472573 
L 203.616 261.472573 
L 207.522 261.472573 
L 211.428 261.472573 
L 215.334 261.472573 
L 219.24 261.472573 
L 223.146 261.472573 
L 227.052 266.52899 
L 230.958 266.52899 
L 234.864 266.52899 
L 238.77 266.52899 
L 242.676 266.52899 
L 246.582 266.52899 
L 250.488 266.52899 
L 254.394 266.52899 
L 258.3 266.52899 
L 262.206 266.52899 
L 266.112 266.52899 
L 270.018 266.52899 
L 273.924 266.52899 
L 277.83 266.52899 
L 281.736 266.52899 
L 285.642 271.585407 
L 289.548 271.585407 
L 293.454 271.585407 
L 297.36 271.585407 
L 301.266 271.585407 
L 305.172 271.585407 
L 309.078 271.585407 
L 312.984 271.585407 
L 316.89 271.585407 
L 320.796 271.585407 
L 324.702 271.585407 
L 328.608 271.585407 
L 332.514 271.585407 
L 336.42 271.585407 
L 340.326 271.585407 
L 344.232 271.585407 
L 348.138 271.585407 
L 352.044 271.585407 
L 355.95 271.585407 
L 359.856 276.641824 
L 363.762 276.641824 
L 367.668 276.641824 
L 371.574 276.641824 
L 375.48 276.641824 
L 379.386 276.641824 
L 383.292 276.641824 
L 387.198 276.641824 
L 391.104 276.641824 
L 395.01 276.641824 
L 398.916 276.641824 
L 402.822 276.641824 
L 406.728 276.641824 
L 410.634 276.641824 
L 414.54 276.641824 
L 418.446 276.641824 
L 422.352 276.641824 
L 426.258 276.641824 
L 430.164 276.641824 
L 434.07 276.641824 
L 437.976 276.641824 
L 441.882 276.641824 
L 445.788 276.641824 
L 449.694 276.641824 
L 453.6 276.641824 
" clip-path="url(#pe6358d8f66)" style="fill: none; stroke: #000000; stroke-width: 2; stroke-linecap: square"/>
   </g>
   <g id="line2d_15">
    <path d="M 63 89.554397 
L 66.906 114.836482 
L 70.812 130.005733 
L 74.718 140.118567 
L 78.624 145.174984 
L 82.53 155.287818 
L 86.436 165.400651 
L 90.342 170.457068 
L 94.248 175.513485 
L 98.154 180.569902 
L 102.06 185.626319 
L 105.966 190.682736 
L 109.872 190.682736 
L 113.778 195.739153 
L 117.684 200.79557 
L 121.59 205.851987 
L 125.496 205.851987 
L 129.402 210.908404 
L 133.308 210.908404 
L 137.214 210.908404 
L 141.12 215.964821 
L 145.026 215.964821 
L 148.932 221.021238 
L 152.838 221.021238 
L 156.744 226.077655 
L 160.65 226.077655 
L 164.556 231.134072 
L 168.462 231.134072 
L 172.368 231.134072 
L 176.274 231.134072 
L 180.18 236.190489 
L 184.086 236.190489 
L 187.992 236.190489 
L 191.898 236.190489 
L 195.804 236.190489 
L 199.71 241.246906 
L 203.616 241.246906 
L 207.522 241.246906 
L 211.428 241.246906 
L 215.334 246.303322 
L 219.24 246.303322 
L 223.146 246.303322 
L 227.052 246.303322 
L 230.958 246.303322 
L 234.864 246.303322 
L 238.77 251.359739 
L 242.676 251.359739 
L 246.582 251.359739 
L 250.488 251.359739 
L 254.394 251.359739 
L 258.3 251.359739 
L 262.206 256.416156 
L 266.112 256.416156 
L 270.018 256.416156 
L 273.924 256.416156 
L 277.83 256.416156 
L 281.736 256.416156 
L 285.642 256.416156 
L 289.548 256.416156 
L 293.454 261.472573 
L 297.36 261.472573 
L 301.266 261.472573 
L 305.172 261.472573 
L 309.078 261.472573 
L 312.984 261.472573 
L 316.89 261.472573 
L 320.796 261.472573 
L 324.702 266.52899 
L 328.608 266.52899 
L 332.514 266.52899 
L 336.42 266.52899 
L 340.326 266.52899 
L 344.232 266.52899 
L 348.138 266.52899 
L 352.044 266.52899 
L 355.95 271.585407 
L 359.856 271.585407 
L 363.762 271.585407 
L 367.668 271.585407 
L 371.574 271.585407 
L 375.48 271.585407 
L 379.386 271.585407 
L 383.292 271.585407 
L 387.198 276.641824 
L 391.104 276.641824 
L 395.01 276.641824 
L 398.916 276.641824 
L 402.822 276.641824 
L 406.728 276.641824 
L 410.634 276.641824 
L 414.54 276.641824 
L 418.446 276.641824 
L 422.352 276.641824 
L 426.258 276.641824 
L 430.164 281.698241 
L 434.07 281.698241 
L 437.976 281.698241 
L 441.882 281.698241 
L 445.788 281.698241 
L 449.694 281.698241 
L 453.6 281.698241 
" clip-path="url(#pe6358d8f66)" style="fill: none; stroke: #0173b2; stroke-width: 2; stroke-linecap: square"/>
   </g>
   <g id="line2d_16">
    <path d="M 63 74.385147 
L 66.906 119.892899 
L 70.812 135.06215 
L 74.718 150.231401 
L 78.624 160.344235 
L 82.53 165.400651 
L 86.436 170.457068 
L 90.342 175.513485 
L 94.248 180.569902 
L 98.154 185.626319 
L 102.06 190.682736 
L 105.966 190.682736 
L 109.872 195.739153 
L 113.778 195.739153 
L 117.684 200.79557 
L 121.59 205.851987 
L 125.496 205.851987 
L 129.402 210.908404 
L 133.308 210.908404 
L 137.214 210.908404 
L 141.12 215.964821 
L 145.026 215.964821 
L 148.932 215.964821 
L 152.838 221.021238 
L 156.744 221.021238 
L 160.65 221.021238 
L 164.556 226.077655 
L 168.462 226.077655 
L 172.368 231.134072 
L 176.274 231.134072 
L 180.18 231.134072 
L 184.086 231.134072 
L 187.992 236.190489 
L 191.898 236.190489 
L 195.804 236.190489 
L 199.71 236.190489 
L 203.616 241.246906 
L 207.522 241.246906 
L 211.428 241.246906 
L 215.334 241.246906 
L 219.24 246.303322 
L 223.146 246.303322 
L 227.052 246.303322 
L 230.958 246.303322 
L 234.864 246.303322 
L 238.77 251.359739 
L 242.676 251.359739 
L 246.582 251.359739 
L 250.488 251.359739 
L 254.394 251.359739 
L 258.3 256.416156 
L 262.206 256.416156 
L 266.112 256.416156 
L 270.018 256.416156 
L 273.924 256.416156 
L 277.83 256.416156 
L 281.736 256.416156 
L 285.642 261.472573 
L 289.548 261.472573 
L 293.454 261.472573 
L 297.36 261.472573 
L 301.266 261.472573 
L 305.172 266.52899 
L 309.078 266.52899 
L 312.984 266.52899 
L 316.89 266.52899 
L 320.796 266.52899 
L 324.702 266.52899 
L 328.608 266.52899 
L 332.514 271.585407 
L 336.42 271.585407 
L 340.326 271.585407 
L 344.232 271.585407 
L 348.138 271.585407 
L 352.044 271.585407 
L 355.95 271.585407 
L 359.856 271.585407 
L 363.762 276.641824 
L 367.668 276.641824 
L 371.574 276.641824 
L 375.48 276.641824 
L 379.386 276.641824 
L 383.292 276.641824 
L 387.198 276.641824 
L 391.104 276.641824 
L 395.01 276.641824 
L 398.916 276.641824 
L 402.822 276.641824 
L 406.728 281.698241 
L 410.634 281.698241 
L 414.54 281.698241 
L 418.446 281.698241 
L 422.352 281.698241 
L 426.258 281.698241 
L 430.164 281.698241 
L 434.07 281.698241 
L 437.976 281.698241 
L 441.882 281.698241 
L 445.788 281.698241 
L 449.694 286.754658 
L 453.6 286.754658 
" clip-path="url(#pe6358d8f66)" style="fill: none; stroke: #029e73; stroke-width: 2; stroke-linecap: square"/>
   </g>
   <g id="line2d_17">
    <path d="M 63 286.754658 
L 66.906 296.867492 
L 70.812 301.923909 
L 74.718 306.980326 
L 78.624 306.980326 
L 82.53 312.036743 
L 86.436 312.036743 
L 90.342 312.036743 
L 94.248 317.09316 
L 98.154 317.09316 
L 102.06 317.09316 
L 105.966 317.09316 
L 109.872 322.149577 
L 113.778 322.149577 
L 117.684 322.149577 
L 121.59 322.149577 
L 125.496 322.149577 
L 129.402 322.149577 
L 133.308 327.205993 
L 137.214 327.205993 
L 141.12 327.205993 
L 145.026 327.205993 
L 148.932 327.205993 
L 152.838 327.205993 
L 156.744 327.205993 
L 160.65 327.205993 
L 164.556 327.205993 
L 168.462 332.26241 
L 172.368 332.26241 
L 176.274 332.26241 
L 180.18 332.26241 
L 184.086 332.26241 
L 187.992 332.26241 
L 191.898 332.26241 
L 195.804 332.26241 
L 199.71 332.26241 
L 203.616 332.26241 
L 207.522 332.26241 
L 211.428 337.318827 
L 215.334 337.318827 
L 219.24 337.318827 
L 223.146 337.318827 
L 227.052 337.318827 
L 230.958 337.318827 
L 234.864 337.318827 
L 238.77 337.318827 
L 242.676 337.318827 
L 246.582 337.318827 
L 250.488 337.318827 
L 254.394 337.318827 
L 258.3 337.318827 
L 262.206 337.318827 
L 266.112 337.318827 
L 270.018 337.318827 
L 273.924 342.375244 
L 277.83 342.375244 
L 281.736 342.375244 
L 285.642 342.375244 
L 289.548 342.375244 
L 293.454 342.375244 
L 297.36 342.375244 
L 301.266 342.375244 
L 305.172 342.375244 
L 309.078 342.375244 
L 312.984 342.375244 
L 316.89 342.375244 
L 320.796 342.375244 
L 324.702 342.375244 
L 328.608 342.375244 
L 332.514 342.375244 
L 336.42 342.375244 
L 340.326 342.375244 
L 344.232 342.375244 
L 348.138 342.375244 
L 352.044 347.431661 
L 355.95 347.431661 
L 359.856 347.431661 
L 363.762 347.431661 
L 367.668 347.431661 
L 371.574 347.431661 
L 375.48 347.431661 
L 379.386 347.431661 
L 383.292 347.431661 
L 387.198 347.431661 
L 391.104 347.431661 
L 395.01 347.431661 
L 398.916 347.431661 
L 402.822 347.431661 
L 406.728 347.431661 
L 410.634 347.431661 
L 414.54 347.431661 
L 418.446 347.431661 
L 422.352 347.431661 
L 426.258 347.431661 
L 430.164 347.431661 
L 434.07 347.431661 
L 437.976 347.431661 
L 441.882 347.431661 
L 445.788 347.431661 
L 449.694 347.431661 
L 453.6 352.488078 
" clip-path="url(#pe6358d8f66)" style="fill: none; stroke: #de8f05; stroke-width: 2; stroke-linecap: square"/>
   </g>
   <g id="patch_3">
    <path d="M 63 448.56 
L 63 60.48 
" style="fill: none; stroke: #000000; stroke-width: 0.8; stroke-linejoin: miter; stroke-linecap: square"/>
   </g>
   <g id="patch_4">
    <path d="M 63 448.56 
L 453.6 448.56 
" style="fill: none; stroke: #000000; stroke-width: 0.8; stroke-linejoin: miter; stroke-linecap: square"/>
   </g>
   <g id="legend_1">
    <g id="patch_5">
     <path d="M 229.777188 155.684375 
L 443.8 155.684375 
Q 446.6 155.684375 446.6 152.884375 
L 446.6 70.28 
Q 446.6 67.48 443.8 67.48 
L 229.777188 67.48 
Q 226.977188 67.48 226.977188 70.28 
L 226.977188 152.884375 
Q 226.977188 155.684375 229.777188 155.684375 
z
" style="fill: #ffffff; opacity: 0.8; stroke: #cccccc; stroke-linejoin: miter"/>
    </g>
    <g id="line2d_18">
     <path d="M 232.577188 78.817812 
L 246.577188 78.817812 
L 260.577188 78.817812 
" style="fill: none; stroke: #000000; stroke-width: 2; stroke-linecap: square"/>
    </g>
    <g id="text_16">
     <text style="font-size: 14px; font-family: 'Arial', sans-serif; text-anchor: start" x="271.777188" y="83.717812" transform="rotate(-0 271.777188 83.717812)">True</text>
    </g>
    <g id="line2d_19">
     <path d="M 232.577188 99.818906 
L 246.577188 99.818906 
L 260.577188 99.818906 
" style="fill: none; stroke: #0173b2; stroke-width: 2; stroke-linecap: square"/>
    </g>
    <g id="text_17">
     <text style="font-size: 14px; font-family: 'Arial', sans-serif; text-anchor: start" x="271.777188" y="104.718906" transform="rotate(-0 271.777188 104.718906)">Under-reporting (est. R)</text>
    </g>
    <g id="line2d_20">
     <path d="M 232.577188 120.82 
L 246.577188 120.82 
L 260.577188 120.82 
" style="fill: none; stroke: #029e73; stroke-width: 2; stroke-linecap: square"/>
    </g>
    <g id="text_18">
     <text style="font-size: 14px; font-family: 'Arial', sans-serif; text-anchor: start" x="271.777188" y="125.72" transform="rotate(-0 271.777188 125.72)">Under-reporting (true R)</text>
    </g>
    <g id="line2d_21">
     <path d="M 232.577188 141.821094 
L 246.577188 141.821094 
L 260.577188 141.821094 
" style="fill: none; stroke: #de8f05; stroke-width: 2; stroke-linecap: square"/>
    </g>
    <g id="text_19">
     <text style="font-size: 14px; font-family: 'Arial', sans-serif; text-anchor: start" x="271.777188" y="146.721094" transform="rotate(-0 271.777188 146.721094)">Naive (reported only)</text>
    </g>
   </g>
  </g>
 </g>
 <defs>
  <clipPath id="pe6358d8f66">
   <rect x="63" y="60.48" width="390.6" height="388.08"/>
  </clipPath>
 </defs>
</svg>
